<?xml version="1.0" encoding="UTF-8" standalone="no"?>
<svg xmlns:ffdec="https://www.free-decompiler.com/flash" xmlns:xlink="http://www.w3.org/1999/xlink" ffdec:objectType="shape" height="22.85px" width="86.0px" xmlns="http://www.w3.org/2000/svg">
  <g transform="matrix(1.0, 0.0, 0.0, 1.0, -4.8, -1.25)">
    <path d="M6.8 3.25 Q7.85 2.15 9.3 2.15 L86.3 2.15 Q87.85 2.15 88.9 3.25 89.9 4.3 89.9 5.75 L89.9 19.6 Q89.9 21.05 88.9 22.15 87.85 23.2 86.3 23.2 L9.3 23.2 Q7.85 23.2 6.8 22.15 5.7 21.05 5.7 19.6 L5.7 5.75 Q5.7 4.3 6.8 3.25" fill="url(#gradient0)" fill-rule="evenodd" stroke="none"/>
    <path d="M6.15 22.75 Q4.8 21.4 4.8 19.6 L4.8 5.75 Q4.8 3.9 6.15 2.55 7.5 1.25 9.3 1.25 L86.3 1.25 Q88.2 1.25 89.5 2.55 90.8 3.9 90.8 5.75 L90.8 19.6 Q90.8 21.4 89.5 22.75 88.2 24.1 86.3 24.1 L9.3 24.1 Q7.5 24.1 6.15 22.75 M7.45 3.85 Q6.6 4.65 6.6 5.75 L6.6 19.6 Q6.6 20.7 7.45 21.45 8.2 22.3 9.3 22.3 L86.3 22.3 Q87.45 22.3 88.25 21.45 89.0 20.7 89.0 19.6 L89.0 5.75 Q89.0 4.65 88.25 3.85 87.45 3.05 86.3 3.05 L9.3 3.05 Q8.2 3.05 7.45 3.85" fill="#e4a100" fill-rule="evenodd" stroke="none"/>
  </g>
  <defs>
    <linearGradient gradientTransform="matrix(0.0514, 0.0, 0.0, -0.0514, 47.85, 12.7)" gradientUnits="userSpaceOnUse" id="gradient0" spreadMethod="pad" x1="-819.2" x2="819.2">
      <stop offset="0.0" stop-color="#ab5000"/>
      <stop offset="0.5294117647058824" stop-color="#8f3800"/>
      <stop offset="1.0" stop-color="#ab5c00"/>
    </linearGradient>
  </defs>
</svg>
