<?xml version="1.0" encoding="UTF-8" standalone="no"?>
<svg xmlns:ffdec="https://www.free-decompiler.com/flash" xmlns:xlink="http://www.w3.org/1999/xlink" ffdec:objectType="shape" height="162.0px" width="294.85px" xmlns="http://www.w3.org/2000/svg">
  <g transform="matrix(1.0, 0.0, 0.0, 1.0, 1.0, 1.0)">
    <path d="M292.85 14.05 L292.85 156.8 Q292.85 158.15 291.95 159.05 291.1 160.0 289.85 160.0 L3.0 160.0 Q1.75 160.0 0.9 159.05 0.0 158.15 0.0 156.8 L0.0 3.25 Q0.0 1.9 0.9 1.0 1.75 0.0 3.0 0.0 L105.75 0.0 Q107.0 0.0 108.6 0.55 110.2 1.1 111.2 1.85 L120.9 8.95 Q121.95 9.7 123.55 10.25 L126.4 10.8 289.85 10.8 Q291.1 10.8 291.95 11.75 292.85 12.7 292.85 14.05" fill="url(#gradient0)" fill-rule="evenodd" stroke="none"/>
    <path d="M292.85 14.05 L292.85 156.8 Q292.85 158.15 291.95 159.05 291.1 160.0 289.85 160.0 L3.0 160.0 Q1.75 160.0 0.9 159.05 0.0 158.15 0.0 156.8 L0.0 3.25 Q0.0 1.9 0.9 1.0 1.75 0.0 3.0 0.0 L105.75 0.0 Q107.0 0.0 108.6 0.55 110.2 1.1 111.2 1.85 L120.9 8.95 Q121.95 9.7 123.55 10.25 L126.4 10.8 289.85 10.8 Q291.1 10.8 291.95 11.75 292.85 12.7 292.85 14.05 Z" fill="none" stroke="#2187e8" stroke-linecap="butt" stroke-linejoin="miter-clip" stroke-miterlimit="4.0" stroke-width="2.0"/>
    <path d="M284.15 19.1 L284.15 121.95 Q284.15 123.45 283.25 124.45 282.4 125.5 281.15 125.5 L11.7 125.5 Q10.45 125.5 9.6 124.45 8.7 123.45 8.7 121.95 L8.7 19.1 Q8.7 17.6 9.6 16.6 10.45 15.5 11.7 15.5 L281.15 15.5 Q282.4 15.5 283.25 16.6 284.15 17.6 284.15 19.1" fill="url(#gradient1)" fill-rule="evenodd" stroke="none"/>
    <path d="M284.15 19.1 L284.15 121.95 Q284.15 123.45 283.25 124.45 282.4 125.5 281.15 125.5 L11.7 125.5 Q10.45 125.5 9.6 124.45 8.7 123.45 8.7 121.95 L8.7 19.1 Q8.7 17.6 9.6 16.6 10.45 15.5 11.7 15.5 L281.15 15.5 Q282.4 15.5 283.25 16.6 284.15 17.6 284.15 19.1 Z" fill="none" stroke="#005eb5" stroke-linecap="butt" stroke-linejoin="miter-clip" stroke-miterlimit="4.0" stroke-width="1.0"/>
  </g>
  <defs>
    <linearGradient gradientTransform="matrix(0.0, -0.0977, -0.0906, 0.0, 146.4, 80.05)" gradientUnits="userSpaceOnUse" id="gradient0" spreadMethod="pad" x1="-819.2" x2="819.2">
      <stop offset="0.0" stop-color="#000d35"/>
      <stop offset="1.0" stop-color="#003d86"/>
    </linearGradient>
    <linearGradient gradientTransform="matrix(0.0, -0.0671, -0.0564, 0.0, 146.4, 70.55)" gradientUnits="userSpaceOnUse" id="gradient1" spreadMethod="pad" x1="-819.2" x2="819.2">
      <stop offset="0.0" stop-color="#053363"/>
      <stop offset="0.058823529411764705" stop-color="#042a56"/>
      <stop offset="0.17647058823529413" stop-color="#021e45"/>
      <stop offset="0.3215686274509804" stop-color="#011539"/>
      <stop offset="0.5137254901960784" stop-color="#001032"/>
      <stop offset="1.0" stop-color="#000f30"/>
    </linearGradient>
  </defs>
</svg>
