<?xml version="1.0" encoding="UTF-8" standalone="no"?>
<svg xmlns:ffdec="https://www.free-decompiler.com/flash" xmlns:xlink="http://www.w3.org/1999/xlink" ffdec:objectType="shape" height="25.35px" width="95.55px" xmlns="http://www.w3.org/2000/svg">
  <g transform="matrix(1.0, 0.0, 0.0, 1.0, 0.0, 0.0)">
    <path d="M93.4 23.2 Q92.2 24.35 90.55 24.35 L5.0 24.35 Q3.3 24.35 2.15 23.2 1.0 22.0 1.0 20.35 L1.0 5.0 Q1.0 3.3 2.15 2.15 3.3 1.0 5.0 1.0 L90.55 1.0 Q92.2 1.0 93.4 2.15 94.55 3.3 94.55 5.0 L94.55 20.35 Q94.55 22.0 93.4 23.2" fill="url(#gradient0)" fill-rule="evenodd" stroke="none"/>
    <path d="M90.55 0.0 Q92.6 0.0 94.1 1.45 95.55 2.9 95.55 5.0 L95.55 20.35 Q95.55 22.4 94.1 23.9 92.6 25.35 90.55 25.35 L5.0 25.35 Q2.9 25.35 1.45 23.9 0.0 22.4 0.0 20.35 L0.0 5.0 Q0.0 2.9 1.45 1.45 2.9 0.0 5.0 0.0 L90.55 0.0 M90.55 23.35 Q91.8 23.35 92.65 22.45 93.55 21.6 93.55 20.35 L93.55 5.0 Q93.55 3.75 92.65 2.9 91.8 2.0 90.55 2.0 L5.0 2.0 Q3.75 2.0 2.9 2.9 2.0 3.75 2.0 5.0 L2.0 20.35 Q2.0 21.6 2.9 22.45 3.75 23.35 5.0 23.35 L90.55 23.35" fill="#e4a100" fill-rule="evenodd" stroke="none"/>
  </g>
  <defs>
    <linearGradient gradientTransform="matrix(0.0571, 0.0, 0.0, -0.0571, 47.75, 12.65)" gradientUnits="userSpaceOnUse" id="gradient0" spreadMethod="pad" x1="-819.2" x2="819.2">
      <stop offset="0.0" stop-color="#ab5000"/>
      <stop offset="0.5294117647058824" stop-color="#8f3800"/>
      <stop offset="1.0" stop-color="#ab5c00"/>
    </linearGradient>
  </defs>
</svg>
