<?xml version="1.0" encoding="UTF-8" standalone="no"?>
<svg xmlns:ffdec="https://www.free-decompiler.com/flash" xmlns:xlink="http://www.w3.org/1999/xlink" ffdec:objectType="shape" height="17.85px" width="19.7px" xmlns="http://www.w3.org/2000/svg">
  <g transform="matrix(1.0, 0.0, 0.0, 1.0, 0.0, 0.0)">
    <path d="M0.0 0.85 L16.05 0.85 Q17.15 0.85 17.95 1.75 18.85 2.55 18.85 3.65 L18.85 14.2 Q18.85 15.3 17.95 16.15 L17.95 16.2 Q17.15 17.0 16.05 17.0 L0.0 17.0 0.0 0.85" fill="#014074" fill-rule="evenodd" stroke="none"/>
    <path d="M0.0 17.0 L16.05 17.0 Q17.15 17.0 17.95 16.2 L17.95 16.15 Q18.85 15.3 18.85 14.2 L18.85 3.65 Q18.85 2.55 17.95 1.75 17.15 0.85 16.05 0.85 L0.0 0.85 0.0 0.0 16.05 0.0 Q17.55 0.0 18.55 1.1 L18.6 1.15 Q19.7 2.15 19.7 3.65 L19.7 14.2 Q19.7 15.7 18.6 16.75 L18.55 16.75 Q17.55 17.85 16.05 17.85 L0.0 17.85 0.0 17.0" fill="#6bcbe8" fill-rule="evenodd" stroke="none"/>
    <path d="M11.85 10.5 L10.25 10.5 10.25 12.05 8.7 12.05 8.7 10.5 7.1 10.5 7.1 8.9 5.5 8.9 5.5 7.35 3.95 7.35 3.95 5.75 14.9 5.75 14.9 7.35 13.4 7.35 13.4 8.9 11.85 8.9 11.85 10.5" fill="#ffcc00" fill-rule="evenodd" stroke="none"/>
  </g>
</svg>
