<?xml version="1.0" encoding="UTF-8" standalone="no"?>
<svg xmlns:ffdec="https://www.free-decompiler.com/flash" xmlns:xlink="http://www.w3.org/1999/xlink" ffdec:objectType="shape" height="13.8px" width="25.95px" xmlns="http://www.w3.org/2000/svg">
  <g transform="matrix(1.0, 0.0, 0.0, 1.0, -2.95, -1.2)">
    <path d="M5.1 1.7 L26.75 1.7 Q27.4 1.7 27.9 2.45 28.4 3.1 28.4 4.15 L28.4 12.05 Q28.4 13.1 27.9 13.8 27.4 14.5 26.75 14.5 L5.1 14.5 Q4.4 14.5 3.95 13.8 3.45 13.1 3.45 12.05 L3.45 4.15 Q3.45 3.1 3.95 2.45 4.4 1.7 5.1 1.7" fill="#053aa9" fill-rule="evenodd" stroke="none"/>
    <path d="M5.1 1.7 L26.75 1.7 Q27.4 1.7 27.9 2.45 28.4 3.1 28.4 4.15 L28.4 12.05 Q28.4 13.1 27.9 13.8 27.4 14.5 26.75 14.5 L5.1 14.5 Q4.4 14.5 3.95 13.8 3.45 13.1 3.45 12.05 L3.45 4.15 Q3.45 3.1 3.95 2.45 4.4 1.7 5.1 1.7 Z" fill="none" stroke="#2e74ff" stroke-linecap="butt" stroke-linejoin="miter-clip" stroke-miterlimit="4.0" stroke-width="1.0"/>
  </g>
</svg>
