<?xml version="1.0" encoding="UTF-8" standalone="no"?>
<svg xmlns:ffdec="https://www.free-decompiler.com/flash" xmlns:xlink="http://www.w3.org/1999/xlink" ffdec:objectType="shape" height="15.25px" width="41.75px" xmlns="http://www.w3.org/2000/svg">
  <g transform="matrix(1.0, 0.0, 0.0, 1.0, -1.55, -0.6)">
    <path d="M4.8 1.1 L40.1 1.1 Q41.2 1.1 41.95 1.9 42.8 2.7 42.8 3.8 L42.8 12.6 Q42.8 13.75 41.95 14.5 41.2 15.35 40.1 15.35 L4.8 15.35 Q3.65 15.35 2.9 14.5 2.05 13.75 2.05 12.6 L2.05 3.8 Q2.05 2.7 2.9 1.9 3.65 1.1 4.8 1.1" fill="#053aa9" fill-rule="evenodd" stroke="none"/>
    <path d="M4.8 1.1 L40.1 1.1 Q41.2 1.1 41.95 1.9 42.8 2.7 42.8 3.8 L42.8 12.6 Q42.8 13.75 41.95 14.5 41.2 15.35 40.1 15.35 L4.8 15.35 Q3.65 15.35 2.9 14.5 2.05 13.75 2.05 12.6 L2.05 3.8 Q2.05 2.7 2.9 1.9 3.65 1.1 4.8 1.1" fill="#053aa9" fill-rule="evenodd" stroke="none"/>
    <path d="M4.8 1.1 L40.1 1.1 Q41.2 1.1 41.95 1.9 42.8 2.7 42.8 3.8 L42.8 12.6 Q42.8 13.75 41.95 14.5 41.2 15.35 40.1 15.35 L4.8 15.35 Q3.65 15.35 2.9 14.5 2.05 13.75 2.05 12.6 L2.05 3.8 Q2.05 2.7 2.9 1.9 3.65 1.1 4.8 1.1 Z" fill="none" stroke="#2e74ff" stroke-linecap="butt" stroke-linejoin="miter-clip" stroke-miterlimit="4.0" stroke-width="1.0"/>
  </g>
</svg>
