<?xml version="1.0" encoding="UTF-8" standalone="no"?>
<svg xmlns:ffdec="https://www.free-decompiler.com/flash" xmlns:xlink="http://www.w3.org/1999/xlink" ffdec:objectType="shape" height="13.95px" width="38.05px" xmlns="http://www.w3.org/2000/svg">
  <g transform="matrix(1.0, 0.0, 0.0, 1.0, -3.4, -0.7)">
    <path d="M6.4 1.2 L38.45 1.2 Q39.5 1.2 40.2 1.95 40.95 2.65 40.95 3.65 L40.95 11.7 Q40.95 12.7 40.2 13.4 39.5 14.15 38.45 14.15 L6.4 14.15 Q5.35 14.15 4.65 13.4 3.9 12.7 3.9 11.7 L3.9 3.65 Q3.9 2.65 4.65 1.95 5.35 1.2 6.4 1.2" fill="#053aa9" fill-rule="evenodd" stroke="none"/>
    <path d="M6.4 1.2 L38.45 1.2 Q39.5 1.2 40.2 1.95 40.95 2.65 40.95 3.65 L40.95 11.7 Q40.95 12.7 40.2 13.4 39.5 14.15 38.45 14.15 L6.4 14.15 Q5.35 14.15 4.65 13.4 3.9 12.7 3.9 11.7 L3.9 3.65 Q3.9 2.65 4.65 1.95 5.35 1.2 6.4 1.2" fill="#053aa9" fill-rule="evenodd" stroke="none"/>
    <path d="M6.4 1.2 L38.45 1.2 Q39.5 1.2 40.2 1.95 40.95 2.65 40.95 3.65 L40.95 11.7 Q40.95 12.7 40.2 13.4 39.5 14.15 38.45 14.15 L6.4 14.15 Q5.35 14.15 4.65 13.4 3.9 12.7 3.9 11.7 L3.9 3.65 Q3.9 2.65 4.65 1.95 5.35 1.2 6.4 1.2 Z" fill="none" stroke="#2e74ff" stroke-linecap="butt" stroke-linejoin="miter-clip" stroke-miterlimit="4.0" stroke-width="1.0"/>
  </g>
</svg>
