<?xml version="1.0" encoding="UTF-8" standalone="no"?>
<svg xmlns:ffdec="https://www.free-decompiler.com/flash" xmlns:xlink="http://www.w3.org/1999/xlink" ffdec:objectType="shape" height="20.95px" width="57.1px" xmlns="http://www.w3.org/2000/svg">
  <g transform="matrix(1.0, 0.0, 0.0, 1.0, 0.5, 0.5)">
    <path d="M56.1 3.0 L56.1 16.95 Q56.1 18.2 55.45 19.05 54.85 19.95 53.95 19.95 L2.15 19.95 Q1.25 19.95 0.65 19.05 0.0 18.2 0.0 16.95 L0.0 3.0 Q0.0 1.75 0.65 0.9 1.25 0.0 2.15 0.0 L53.95 0.0 Q54.85 0.0 55.45 0.9 56.1 1.75 56.1 3.0" fill="url(#gradient0)" fill-rule="evenodd" stroke="none"/>
    <path d="M55.45 0.9 Q56.1 1.75 56.1 3.0 L56.1 16.95 Q56.1 18.2 55.45 19.05 54.85 19.95 53.9 19.95 L2.15 19.95 Q1.25 19.95 0.65 19.05 0.0 18.2 0.0 16.95 L0.0 3.0 Q0.0 1.75 0.65 0.9 1.25 0.0 2.15 0.0 L53.9 0.0 Q54.85 0.0 55.45 0.9 Z" fill="none" stroke="#2e74ff" stroke-linecap="butt" stroke-linejoin="miter-clip" stroke-miterlimit="4.0" stroke-width="1.0"/>
  </g>
  <defs>
    <linearGradient gradientTransform="matrix(0.0, -0.011, 0.7229, 0.0, -7.25, 9.95)" gradientUnits="userSpaceOnUse" id="gradient0" spreadMethod="pad" x1="-819.2" x2="819.2">
      <stop offset="0.0" stop-color="#004bc2"/>
      <stop offset="0.7647058823529411" stop-color="#003498"/>
      <stop offset="1.0" stop-color="#0057d9"/>
    </linearGradient>
  </defs>
</svg>
