<?xml version="1.0" encoding="UTF-8" standalone="no"?>
<svg xmlns:ffdec="https://www.free-decompiler.com/flash" xmlns:xlink="http://www.w3.org/1999/xlink" ffdec:objectType="shape" height="18.95px" width="51.65px" xmlns="http://www.w3.org/2000/svg">
  <g transform="matrix(1.0, 0.0, 0.0, 1.0, -0.45, -1.25)">
    <path d="M51.55 4.45 L51.55 17.0 Q51.55 18.15 50.95 18.9 50.4 19.7 49.6 19.7 L3.0 19.7 Q2.2 19.7 1.65 18.9 1.05 18.15 1.05 17.0 L1.05 4.45 Q1.05 3.3 1.65 2.55 2.2 1.75 3.0 1.75 L49.6 1.75 Q50.4 1.75 50.95 2.55 51.55 3.3 51.55 4.45" fill="url(#gradient0)" fill-rule="evenodd" stroke="none"/>
    <path d="M50.95 2.55 Q51.5 3.35 51.5 4.45 L51.5 17.0 Q51.5 18.15 50.95 18.9 50.4 19.7 49.55 19.7 L3.0 19.7 Q2.15 19.7 1.6 18.9 1.05 18.15 1.05 17.0 L1.05 4.45 Q1.05 3.35 1.6 2.55 2.15 1.75 3.0 1.75 L49.55 1.75 Q50.4 1.75 50.95 2.55 Z" fill="none" stroke="#2e74ff" stroke-linecap="butt" stroke-linejoin="miter-clip" stroke-miterlimit="4.0" stroke-width="1.0"/>
  </g>
  <defs>
    <linearGradient gradientTransform="matrix(0.0, -0.0099, 0.6507, 0.0, -5.45, 10.75)" gradientUnits="userSpaceOnUse" id="gradient0" spreadMethod="pad" x1="-819.2" x2="819.2">
      <stop offset="0.0" stop-color="#004bc2"/>
      <stop offset="0.7647058823529411" stop-color="#003498"/>
      <stop offset="1.0" stop-color="#0057d9"/>
    </linearGradient>
  </defs>
</svg>
