<?xml version="1.0" encoding="UTF-8" standalone="no"?>
<svg xmlns:ffdec="https://www.free-decompiler.com/flash" xmlns:xlink="http://www.w3.org/1999/xlink" ffdec:objectType="shape" height="21.5px" width="57.1px" xmlns="http://www.w3.org/2000/svg">
  <g transform="matrix(1.0, 0.0, 0.0, 1.0, 0.5, 0.5)">
    <path d="M55.5 1.15 Q56.1 2.0 56.1 3.25 L56.1 17.25 Q56.1 18.5 55.5 19.35 54.85 20.25 53.95 20.25 L2.15 20.25 Q1.3 20.25 0.7 19.35 0.0 18.5 0.0 17.25 L0.0 3.25 Q0.0 2.0 0.7 1.15 1.3 0.25 2.15 0.25 L53.95 0.25 Q54.85 0.25 55.5 1.15" fill="#043089" fill-rule="evenodd" stroke="none"/>
    <path d="M56.1 3.25 L56.1 17.25 Q56.1 18.5 55.5 19.35 54.85 20.25 53.95 20.25 L2.15 20.25 Q1.3 20.25 0.7 19.35 0.0 18.5 0.0 17.25 L0.0 3.25 Q0.0 2.0 0.7 1.15 1.3 0.25 2.15 0.25 L53.95 0.25 Q54.85 0.25 55.5 1.15 56.1 2.0 56.1 3.25 Z" fill="none" stroke="#2e74ff" stroke-linecap="butt" stroke-linejoin="miter-clip" stroke-miterlimit="4.0" stroke-width="1.0"/>
  </g>
</svg>
