<?xml version="1.0" encoding="UTF-8" standalone="no"?>
<svg xmlns:ffdec="https://www.free-decompiler.com/flash" xmlns:xlink="http://www.w3.org/1999/xlink" ffdec:objectType="shape" height="374.45px" width="434.5px" xmlns="http://www.w3.org/2000/svg">
  <g transform="matrix(1.0, 0.0, 0.0, 1.0, 0.0, 0.0)">
    <path d="M422.75 0.0 Q424.0 0.0 425.5 0.6 427.05 1.2 427.95 2.05 L432.3 6.1 Q433.2 6.95 433.85 8.4 434.5 9.9 434.5 11.15 L434.5 84.8 Q434.5 86.05 433.95 87.6 433.4 89.15 432.65 90.15 L431.55 91.55 Q430.8 92.55 430.25 94.1 429.7 95.65 429.7 96.9 L429.7 299.25 Q429.7 300.5 430.15 302.15 430.55 303.8 431.15 304.9 L433.05 308.4 Q433.65 309.5 434.1 311.15 434.5 312.8 434.5 314.05 L434.5 360.05 Q434.5 361.3 433.6 362.15 432.75 363.05 431.5 363.05 L425.25 363.05 Q424.0 363.05 422.5 363.65 420.95 364.25 420.05 365.05 L415.45 369.1 413.0 370.5 410.2 371.1 394.6 371.1 391.85 371.6 Q390.35 372.05 389.5 372.75 388.65 373.45 387.15 373.95 L384.45 374.45 3.0 374.45 Q1.75 374.45 0.9 373.55 0.0 372.7 0.0 371.45 L0.0 314.05 Q0.0 312.8 0.55 311.25 1.05 309.65 1.8 308.65 L4.85 304.65 Q5.6 303.65 6.15 302.1 6.7 300.5 6.7 299.25 L6.7 96.9 Q6.7 95.65 6.05 94.2 5.4 92.7 4.45 91.85 L2.2 89.8 Q1.3 88.95 0.65 87.5 0.0 86.05 0.0 84.8 L0.0 31.55 Q0.0 30.3 0.55 28.75 1.15 27.2 1.95 26.25 L4.05 23.75 Q4.85 22.8 5.45 21.3 6.0 19.75 6.0 18.5 L6.0 3.0 Q6.0 1.75 6.9 0.9 7.75 0.0 9.0 0.0 L422.75 0.0" fill="url(#gradient0)" fill-rule="evenodd" stroke="none"/>
  </g>
  <defs>
    <linearGradient gradientTransform="matrix(-0.0958, -0.2782, -0.2782, 0.0958, 214.75, 183.85)" gradientUnits="userSpaceOnUse" id="gradient0" spreadMethod="pad" x1="-819.2" x2="819.2">
      <stop offset="0.0" stop-color="#0166d4"/>
      <stop offset="0.39215686274509803" stop-color="#0268d5"/>
      <stop offset="0.5764705882352941" stop-color="#0770d9"/>
      <stop offset="0.7215686274509804" stop-color="#0e7de0"/>
      <stop offset="0.8431372549019608" stop-color="#188fea"/>
      <stop offset="0.9490196078431372" stop-color="#26a7f7"/>
      <stop offset="1.0" stop-color="#2eb5ff"/>
    </linearGradient>
  </defs>
</svg>
