<?xml version="1.0" encoding="UTF-8" standalone="no"?>
<svg xmlns:ffdec="https://www.free-decompiler.com/flash" xmlns:xlink="http://www.w3.org/1999/xlink" ffdec:objectType="shape" height="357.05px" width="414.15px" xmlns="http://www.w3.org/2000/svg">
  <g transform="matrix(1.0, 0.0, 0.0, 1.0, 0.0, 0.0)">
    <path d="M413.15 10.75 L413.15 345.2 Q413.15 346.05 412.55 346.6 412.0 347.2 411.15 347.2 L385.55 347.2 382.4 347.75 Q380.65 348.25 379.5 349.05 L371.35 354.55 Q370.45 355.15 368.95 355.6 L366.4 356.05 3.0 356.05 Q2.2 356.05 1.6 355.45 1.0 354.9 1.0 354.05 L1.0 30.15 Q1.0 29.1 1.5 27.7 2.0 26.35 2.7 25.55 L4.55 23.4 Q5.5 22.3 6.1 20.6 6.75 18.9 6.75 17.45 L6.75 3.0 Q6.75 2.2 7.35 1.6 7.95 1.0 8.75 1.0 L402.85 1.0 405.25 1.5 Q406.6 2.05 407.35 2.75 L411.3 6.45 Q412.05 7.1 412.6 8.45 413.15 9.75 413.15 10.75" fill="url(#gradient0)" fill-rule="evenodd" stroke="none"/>
    <path d="M405.6 0.6 Q407.15 1.2 408.05 2.05 L412.0 5.7 Q412.9 6.55 413.55 8.05 414.15 9.5 414.15 10.75 L414.15 345.2 Q414.15 346.45 413.25 347.3 412.4 348.2 411.15 348.2 L385.55 348.2 Q384.3 348.2 382.7 348.7 381.1 349.15 380.05 349.85 L371.9 355.35 Q370.9 356.05 369.25 356.55 L366.4 357.05 3.0 357.05 Q1.75 357.05 0.9 356.15 0.0 355.3 0.0 354.05 L0.0 30.15 Q0.0 28.95 0.6 27.4 1.15 25.85 1.95 24.9 L3.8 22.75 5.15 20.25 Q5.75 18.7 5.75 17.45 L5.75 3.0 Q5.75 1.75 6.65 0.9 7.5 0.0 8.75 0.0 L402.85 0.0 Q404.1 0.0 405.6 0.6 M412.15 10.75 L411.7 8.8 Q411.2 7.7 410.6 7.15 L406.7 3.5 Q406.05 2.9 404.9 2.45 L402.85 2.0 8.75 2.0 Q8.35 2.0 8.05 2.3 7.75 2.6 7.75 3.0 L7.75 17.45 Q7.75 19.05 7.05 20.95 6.35 22.8 5.3 24.05 L3.45 26.2 Q2.9 26.9 2.45 28.1 2.0 29.3 2.0 30.15 L2.0 354.05 Q2.0 354.45 2.3 354.75 2.6 355.05 3.0 355.05 L366.4 355.05 368.7 354.65 Q370.0 354.25 370.8 353.7 L378.95 348.2 Q380.2 347.35 382.1 346.75 L385.55 346.2 411.15 346.2 Q411.55 346.2 411.85 345.9 L412.15 345.2 412.15 10.75" fill="#00b8ff" fill-rule="evenodd" stroke="none"/>
  </g>
  <defs>
    <linearGradient gradientTransform="matrix(0.0, -0.2167, -0.2167, 0.0, 207.1, 178.5)" gradientUnits="userSpaceOnUse" id="gradient0" spreadMethod="pad" x1="-819.2" x2="819.2">
      <stop offset="0.0" stop-color="#21303d"/>
      <stop offset="0.050980392156862744" stop-color="#2c3744"/>
      <stop offset="0.1450980392156863" stop-color="#383f4d"/>
      <stop offset="0.27058823529411763" stop-color="#404453"/>
      <stop offset="0.5372549019607843" stop-color="#424554"/>
      <stop offset="0.796078431372549" stop-color="#404453"/>
      <stop offset="0.8901960784313725" stop-color="#393f4e"/>
      <stop offset="0.9568627450980393" stop-color="#2e3846"/>
      <stop offset="1.0" stop-color="#21303d"/>
    </linearGradient>
  </defs>
</svg>
