<?xml version="1.0" encoding="UTF-8" standalone="no"?>
<svg xmlns:ffdec="https://www.free-decompiler.com/flash" xmlns:xlink="http://www.w3.org/1999/xlink" ffdec:objectType="shape" height="67.15px" width="176.05px" xmlns="http://www.w3.org/2000/svg">
  <g transform="matrix(1.0, 0.0, 0.0, 1.0, 0.0, 0.0)">
    <path d="M26.25 1.9 L149.7 1.9 Q153.0 1.9 153.6 0.95 L154.55 0.65 156.65 0.5 173.05 0.5 Q174.1 0.5 174.85 1.25 175.55 1.95 175.55 3.0 L175.55 19.35 175.4 21.5 175.05 22.45 Q174.15 23.15 174.15 26.35 L174.15 40.9 174.25 42.7 Q174.5 44.4 175.05 44.8 175.55 45.3 175.55 47.85 L175.55 64.15 Q175.55 65.15 174.85 65.9 174.1 66.65 173.05 66.65 L156.65 66.65 Q154.15 66.65 153.6 66.1 153.2 65.55 151.5 65.3 L149.7 65.2 26.25 65.2 Q23.05 65.2 22.35 66.1 L21.4 66.45 19.25 66.65 3.0 66.65 Q2.0 66.65 1.25 65.9 0.5 65.15 0.5 64.15 L0.5 47.8 Q0.5 45.25 1.0 44.75 1.85 44.2 1.85 40.9 L1.85 26.35 Q1.85 23.1 0.95 22.5 0.5 21.6 0.5 19.4 L0.5 3.0 Q0.5 1.95 1.25 1.25 2.0 0.5 3.0 0.5 L19.25 0.5 Q22.0 0.5 22.35 1.0 23.05 1.9 26.25 1.9" fill="#0e0f0f" fill-rule="evenodd" stroke="none"/>
    <path d="M22.05 1.35 L19.25 1.0 3.0 1.0 Q2.15 1.0 1.6 1.55 1.0 2.15 1.0 3.0 L1.0 19.4 Q1.0 21.4 1.4 22.2 2.35 23.1 2.35 26.35 L2.35 40.9 Q2.35 44.2 1.4 45.1 1.0 45.75 1.0 47.8 L1.0 64.15 Q1.0 65.0 1.6 65.55 2.2 66.15 3.0 66.15 L19.25 66.15 22.05 65.75 Q22.95 64.7 26.25 64.7 L149.7 64.7 Q153.0 64.7 153.95 65.75 L156.65 66.15 173.05 66.15 Q173.9 66.15 174.45 65.55 175.05 65.0 175.05 64.15 L175.05 47.85 Q175.05 46.05 174.7 45.15 173.65 44.25 173.65 40.9 L173.65 26.35 Q173.65 23.05 174.65 22.15 175.05 21.35 175.05 19.35 L175.05 3.0 Q175.05 2.15 174.45 1.55 173.9 1.0 173.05 1.0 L156.65 1.0 153.95 1.35 Q153.0 2.4 149.7 2.4 L26.25 2.4 Q22.95 2.4 22.05 1.35 M24.0 1.2 L26.25 1.4 149.7 1.4 Q152.7 1.4 153.2 0.7 153.65 0.0 156.65 0.0 L173.05 0.0 Q174.3 0.0 175.15 0.9 176.05 1.75 176.05 3.0 L176.05 19.35 Q176.05 22.4 175.35 22.85 174.65 23.4 174.65 26.35 L174.65 40.9 Q174.65 43.9 175.35 44.4 176.05 44.85 176.05 47.85 L176.05 64.15 Q176.05 65.4 175.15 66.25 174.3 67.15 173.05 67.15 L156.65 67.15 154.4 66.95 Q153.4 66.7 153.2 66.4 153.0 66.1 151.95 65.9 L149.7 65.7 26.25 65.7 24.0 65.9 Q23.0 66.1 22.75 66.4 L21.55 66.95 19.25 67.15 3.0 67.15 Q1.75 67.15 0.9 66.25 0.0 65.4 0.0 64.15 L0.0 47.8 Q0.0 44.8 0.7 44.35 1.35 43.9 1.35 40.9 L1.35 26.35 Q1.35 23.35 0.7 22.9 0.0 22.45 0.0 19.4 L0.0 3.0 Q0.0 1.75 0.9 0.9 1.75 0.0 3.0 0.0 L19.25 0.0 21.55 0.2 Q22.55 0.4 22.75 0.7 23.0 1.0 24.0 1.2" fill="#2d3135" fill-rule="evenodd" stroke="none"/>
    <path d="M19.0 16.0 L157.65 16.0 157.75 51.9 19.0 51.9 19.0 16.0" fill="#191919" fill-rule="evenodd" stroke="none"/>
    <path d="M19.0 16.0 L157.65 16.0 157.75 51.9 19.0 51.9 19.0 16.0 Z" fill="none" stroke="#232323" stroke-linecap="butt" stroke-linejoin="miter-clip" stroke-miterlimit="4.0" stroke-width="1.0"/>
    <path d="M4.65 6.4 L4.65 11.45 2.8 11.45 2.8 5.2 5.05 2.9 11.25 2.9 11.25 4.65 6.4 4.65 4.65 6.4" fill="#757782" fill-rule="evenodd" stroke="none"/>
    <path d="M171.5 6.4 L169.75 4.65 164.85 4.65 164.85 2.9 171.05 2.9 173.3 5.2 173.3 11.45 171.5 11.45 171.5 6.4" fill="#757782" fill-rule="evenodd" stroke="none"/>
    <path d="M4.65 60.95 L6.4 62.7 11.25 62.7 11.25 64.45 5.05 64.45 2.8 62.15 2.8 55.9 4.65 55.9 4.65 60.95" fill="#757782" fill-rule="evenodd" stroke="none"/>
    <path d="M171.5 60.95 L171.5 55.9 173.3 55.9 173.3 62.15 171.05 64.45 164.85 64.45 164.85 62.7 169.75 62.7 171.5 60.95" fill="#757782" fill-rule="evenodd" stroke="none"/>
    <path d="M8.1 8.3 L168.1 8.3 168.1 59.4 8.1 59.4 8.1 8.3" fill="#252426" fill-rule="evenodd" stroke="none"/>
    <path d="M8.6 8.8 L8.6 58.9 167.6 58.9 167.6 8.8 8.6 8.8 M7.6 59.9 L7.6 7.8 168.6 7.8 168.6 59.9 7.6 59.9" fill="#191919" fill-rule="evenodd" stroke="none"/>
    <path d="M9.95 57.8 L9.35 57.15 13.45 53.05 14.1 53.65 9.95 57.8" fill="#40383d" fill-rule="evenodd" stroke="none"/>
    <path d="M9.95 57.8 L9.35 57.15 13.45 53.05 14.1 53.65 9.95 57.8 Z" fill="none" stroke="#30272b" stroke-linecap="butt" stroke-linejoin="miter-clip" stroke-miterlimit="4.0" stroke-width="1.0"/>
    <path d="M13.8 53.65 L13.8 14.0 162.35 14.0 162.35 53.65 13.8 53.65" fill="#333233" fill-rule="evenodd" stroke="none"/>
    <path d="M10.45 21.3 L10.45 47.0 7.6 49.1 7.6 19.15 10.45 21.3" fill="#0f120f" fill-rule="evenodd" stroke="none"/>
    <path d="M165.7 21.3 L168.6 19.15 168.6 49.1 165.7 47.0 165.7 21.3" fill="#0f120f" fill-rule="evenodd" stroke="none"/>
    <path d="M166.55 57.8 L162.4 53.65 163.05 53.05 167.15 57.15 166.55 57.8" fill="#403b3d" fill-rule="evenodd" stroke="none"/>
    <path d="M166.55 57.8 L167.15 57.15 163.05 53.05 162.4 53.65 166.55 57.8 Z" fill="none" stroke="#302a2b" stroke-linecap="butt" stroke-linejoin="miter-clip" stroke-miterlimit="4.0" stroke-width="1.0"/>
    <path d="M9.95 9.9 L14.1 14.0 13.45 14.65 9.35 10.5 9.95 9.9" fill="#403b3d" fill-rule="evenodd" stroke="none"/>
    <path d="M9.95 9.9 L9.35 10.5 13.45 14.65 14.1 14.0 9.95 9.9 Z" fill="none" stroke="#302a2b" stroke-linecap="butt" stroke-linejoin="miter-clip" stroke-miterlimit="4.0" stroke-width="1.0"/>
    <path d="M166.55 9.9 L167.15 10.5 163.05 14.65 162.4 14.0 166.55 9.9" fill="#403b3d" fill-rule="evenodd" stroke="none"/>
    <path d="M166.55 9.9 L167.15 10.5 163.05 14.65 162.4 14.0 166.55 9.9 Z" fill="none" stroke="#302a2b" stroke-linecap="butt" stroke-linejoin="miter-clip" stroke-miterlimit="4.0" stroke-width="1.0"/>
    <path d="M14.9 8.9 L160.95 8.9 Q163.45 8.9 165.2 10.65 166.95 12.45 166.95 14.9 L166.95 51.7 Q166.95 54.2 165.2 55.95 163.45 57.7 160.95 57.7 L14.9 57.7 Q12.4 57.7 10.65 55.95 8.9 54.2 8.9 51.7 L8.9 14.9 Q8.9 12.45 10.65 10.65 12.45 8.9 14.9 8.9" fill="url(#gradient0)" fill-rule="evenodd" stroke="none"/>
    <path d="M14.9 9.9 Q12.85 9.9 11.35 11.35 9.9 12.85 9.9 14.9 L9.9 51.7 Q9.9 53.75 11.35 55.25 12.85 56.7 14.9 56.7 L160.95 56.7 Q163.0 56.7 164.5 55.25 165.95 53.75 165.95 51.7 L165.95 14.9 Q165.95 12.85 164.5 11.35 163.0 9.9 160.95 9.9 L14.9 9.9 M7.9 14.9 Q7.9 12.0 9.95 9.95 12.0 7.9 14.9 7.9 L160.95 7.9 Q163.85 7.9 165.9 9.95 167.95 12.0 167.95 14.9 L167.95 51.7 Q167.95 54.6 165.9 56.65 163.85 58.7 160.95 58.7 L14.9 58.7 Q12.0 58.7 9.95 56.65 7.9 54.6 7.9 51.7 L7.9 14.9" fill="#ffe300" fill-rule="evenodd" stroke="none"/>
  </g>
  <defs>
    <linearGradient gradientTransform="matrix(0.0965, 0.0, 0.0, -0.0965, 87.95, 33.3)" gradientUnits="userSpaceOnUse" id="gradient0" spreadMethod="pad" x1="-819.2" x2="819.2">
      <stop offset="0.0" stop-color="#915900"/>
      <stop offset="0.054901960784313725" stop-color="#9e6100"/>
      <stop offset="0.3764705882352941" stop-color="#e48d00"/>
      <stop offset="0.5294117647058824" stop-color="#ff9e00"/>
      <stop offset="0.6039215686274509" stop-color="#f49700"/>
      <stop offset="0.7411764705882353" stop-color="#d88500"/>
      <stop offset="0.9137254901960784" stop-color="#aa6900"/>
      <stop offset="1.0" stop-color="#915900"/>
    </linearGradient>
  </defs>
</svg>
