<?xml version="1.0" encoding="UTF-8" standalone="no"?>
<svg xmlns:ffdec="https://www.free-decompiler.com/flash" xmlns:xlink="http://www.w3.org/1999/xlink" ffdec:objectType="shape" height="25.5px" width="98.7px" xmlns="http://www.w3.org/2000/svg">
  <g transform="matrix(1.0, 0.0, 0.0, 1.0, -5.5, -1.4)">
    <path d="M98.2 6.3 Q98.2 5.15 97.35 4.4 96.6 3.6 95.5 3.6 L14.2 3.6 Q13.1 3.6 12.3 4.4 11.5 5.15 11.5 6.3 L11.5 22.3 Q11.5 23.45 12.3 24.2 13.1 25.0 14.2 25.0 L95.5 25.0 Q96.6 25.0 97.35 24.2 98.2 23.45 98.2 22.3 L98.2 6.3 M103.4 2.2 Q104.2 2.95 104.2 4.1 L104.2 24.2 Q104.2 25.3 103.4 26.1 102.65 26.9 101.5 26.9 L8.2 26.9 Q7.05 26.9 6.3 26.1 5.5 25.3 5.5 24.2 L5.5 4.1 Q5.5 2.95 6.3 2.2 7.05 1.4 8.2 1.4 L101.5 1.4 Q102.65 1.4 103.4 2.2" fill="url(#gradient0)" fill-rule="evenodd" stroke="none"/>
    <path d="M95.5 3.6 Q96.6 3.6 97.35 4.4 98.2 5.15 98.2 6.3 L98.2 22.3 Q98.2 23.45 97.35 24.2 96.6 25.0 95.5 25.0 L14.2 25.0 Q13.1 25.0 12.3 24.2 11.5 23.45 11.5 22.3 L11.5 6.3 Q11.5 5.15 12.3 4.4 13.1 3.6 14.2 3.6 L95.5 3.6 M96.45 6.7 Q96.45 5.55 95.6 4.8 94.85 4.0 93.75 4.0 L15.9 4.0 Q14.75 4.0 14.0 4.8 13.2 5.55 13.2 6.7 L13.2 21.75 Q13.2 22.9 14.0 23.65 14.75 24.45 15.9 24.45 L93.75 24.45 Q94.85 24.45 95.6 23.65 96.45 22.9 96.45 21.75 L96.45 6.7" fill="#042b59" fill-rule="evenodd" stroke="none"/>
    <path d="M93.6 4.0 Q94.7 4.0 95.5 4.8 96.3 5.55 96.3 6.7 L96.3 21.6 Q96.3 22.7 95.5 23.45 94.7 24.3 93.6 24.3 L15.9 24.3 Q14.75 24.3 14.0 23.45 13.2 22.7 13.2 21.6 L13.2 6.7 Q13.2 5.55 14.0 4.8 14.75 4.0 15.9 4.0 L93.6 4.0" fill="url(#gradient1)" fill-rule="evenodd" stroke="none"/>
    <path d="M37.95 5.4 L16.95 9.85 Q15.85 10.05 15.05 9.45 14.3 8.8 14.3 7.7 L14.3 7.55 Q14.3 6.4 15.1 5.65 15.9 4.85 17.0 4.85 L37.95 4.85 39.05 5.0 37.95 5.4" fill="url(#gradient2)" fill-rule="evenodd" stroke="none"/>
    <path d="M71.8 5.4 Q70.75 5.15 70.75 5.0 L71.9 4.85 92.8 4.85 Q93.9 4.85 94.65 5.65 95.5 6.4 95.5 7.55 L95.5 7.7 Q95.5 8.8 94.7 9.45 93.95 10.05 92.85 9.85 L71.8 5.4" fill="url(#gradient3)" fill-rule="evenodd" stroke="none"/>
    <path d="M37.95 22.45 Q39.1 22.65 39.05 22.85 L37.95 23.0 17.0 23.0 Q15.9 23.0 15.1 22.25 14.3 21.45 14.3 20.3 L14.3 19.65 Q14.3 18.5 15.05 17.95 15.85 17.3 16.95 17.6 L37.95 22.45" fill="url(#gradient4)" fill-rule="evenodd" stroke="none"/>
    <path d="M94.7 17.95 Q95.5 18.5 95.5 19.65 L95.5 20.3 Q95.5 21.45 94.65 22.25 93.9 23.0 92.8 23.0 L71.9 23.0 70.75 22.85 Q70.75 22.65 71.8 22.45 L92.85 17.6 Q93.95 17.3 94.7 17.95" fill="url(#gradient5)" fill-rule="evenodd" stroke="none"/>
  </g>
  <defs>
    <linearGradient gradientTransform="matrix(0.0, -0.0156, -0.0156, 0.0, 54.85, 14.1)" gradientUnits="userSpaceOnUse" id="gradient0" spreadMethod="pad" x1="-819.2" x2="819.2">
      <stop offset="0.00392156862745098" stop-color="#404964"/>
      <stop offset="0.07058823529411765" stop-color="#0e0f16"/>
      <stop offset="0.3137254901960784" stop-color="#1a1d29"/>
      <stop offset="0.807843137254902" stop-color="#3a425b"/>
      <stop offset="0.9372549019607843" stop-color="#434d69"/>
      <stop offset="0.9529411764705882" stop-color="#59707d"/>
      <stop offset="1.0" stop-color="#373838"/>
    </linearGradient>
    <radialGradient cx="0" cy="0" gradientTransform="matrix(0.0781, 0.0, 0.0, 0.0149, 55.7, 20.05)" gradientUnits="userSpaceOnUse" id="gradient1" r="819.2" spreadMethod="pad">
      <stop offset="0.0" stop-color="#5effff"/>
      <stop offset="0.10196078431372549" stop-color="#55efff"/>
      <stop offset="0.30196078431372547" stop-color="#3dc6ff"/>
      <stop offset="0.5764705882352941" stop-color="#1684ff"/>
      <stop offset="0.6745098039215687" stop-color="#086bff"/>
      <stop offset="0.7215686274509804" stop-color="#0a71ff"/>
      <stop offset="0.8352941176470589" stop-color="#0c7aff"/>
      <stop offset="1.0" stop-color="#0d7dff"/>
    </radialGradient>
    <linearGradient gradientTransform="matrix(0.0018, 0.0048, 0.004, -0.0015, 26.25, 5.85)" gradientUnits="userSpaceOnUse" id="gradient2" spreadMethod="pad" x1="-819.2" x2="819.2">
      <stop offset="0.0" stop-color="#00bdff"/>
      <stop offset="0.011764705882352941" stop-color="#00b7ff" stop-opacity="0.93333334"/>
      <stop offset="0.08235294117647059" stop-color="#009cff" stop-opacity="0.6431373"/>
      <stop offset="0.16470588235294117" stop-color="#0086ff" stop-opacity="0.40392157"/>
      <stop offset="0.25882352941176473" stop-color="#0075ff" stop-opacity="0.21960784"/>
      <stop offset="0.3764705882352941" stop-color="#006aff" stop-opacity="0.09411765"/>
      <stop offset="0.5411764705882353" stop-color="#0063ff" stop-opacity="0.019607844"/>
      <stop offset="1.0" stop-color="#0061ff" stop-opacity="0.0"/>
    </linearGradient>
    <linearGradient gradientTransform="matrix(-0.0019, 0.0047, -0.0039, -0.0016, 82.35, 5.55)" gradientUnits="userSpaceOnUse" id="gradient3" spreadMethod="pad" x1="-819.2" x2="819.2">
      <stop offset="0.0" stop-color="#00bdff"/>
      <stop offset="0.011764705882352941" stop-color="#00b7ff" stop-opacity="0.93333334"/>
      <stop offset="0.08235294117647059" stop-color="#009cff" stop-opacity="0.6431373"/>
      <stop offset="0.16470588235294117" stop-color="#0086ff" stop-opacity="0.40392157"/>
      <stop offset="0.25882352941176473" stop-color="#0075ff" stop-opacity="0.21960784"/>
      <stop offset="0.3764705882352941" stop-color="#006aff" stop-opacity="0.09411765"/>
      <stop offset="0.5411764705882353" stop-color="#0063ff" stop-opacity="0.019607844"/>
      <stop offset="1.0" stop-color="#0061ff" stop-opacity="0.0"/>
    </linearGradient>
    <linearGradient gradientTransform="matrix(0.0026, -0.0051, 0.0038, 0.0019, 26.45, 22.55)" gradientUnits="userSpaceOnUse" id="gradient4" spreadMethod="pad" x1="-819.2" x2="819.2">
      <stop offset="0.0" stop-color="#00bdff"/>
      <stop offset="0.011764705882352941" stop-color="#00b7ff" stop-opacity="0.93333334"/>
      <stop offset="0.08235294117647059" stop-color="#009cff" stop-opacity="0.6431373"/>
      <stop offset="0.16470588235294117" stop-color="#0086ff" stop-opacity="0.40392157"/>
      <stop offset="0.25882352941176473" stop-color="#0075ff" stop-opacity="0.21960784"/>
      <stop offset="0.3764705882352941" stop-color="#006aff" stop-opacity="0.09411765"/>
      <stop offset="0.5411764705882353" stop-color="#0063ff" stop-opacity="0.019607844"/>
      <stop offset="1.0" stop-color="#0061ff" stop-opacity="0.0"/>
    </linearGradient>
    <linearGradient gradientTransform="matrix(-0.0018, -0.0048, -0.004, 0.0015, 83.65, 21.4)" gradientUnits="userSpaceOnUse" id="gradient5" spreadMethod="pad" x1="-819.2" x2="819.2">
      <stop offset="0.0" stop-color="#00bdff"/>
      <stop offset="0.011764705882352941" stop-color="#00b7ff" stop-opacity="0.93333334"/>
      <stop offset="0.08235294117647059" stop-color="#009cff" stop-opacity="0.6431373"/>
      <stop offset="0.16470588235294117" stop-color="#0086ff" stop-opacity="0.40392157"/>
      <stop offset="0.25882352941176473" stop-color="#0075ff" stop-opacity="0.21960784"/>
      <stop offset="0.3764705882352941" stop-color="#006aff" stop-opacity="0.09411765"/>
      <stop offset="0.5411764705882353" stop-color="#0063ff" stop-opacity="0.019607844"/>
      <stop offset="1.0" stop-color="#0061ff" stop-opacity="0.0"/>
    </linearGradient>
  </defs>
</svg>
