<?xml version="1.0" encoding="UTF-8" standalone="no"?>
<svg xmlns:ffdec="https://www.free-decompiler.com/flash" xmlns:xlink="http://www.w3.org/1999/xlink" ffdec:objectType="shape" height="28.35px" width="109.7px" xmlns="http://www.w3.org/2000/svg">
  <g transform="matrix(1.0, 0.0, 0.0, 1.0, 0.0, 0.0)">
    <path d="M106.7 0.0 Q107.95 0.0 108.8 0.9 109.7 1.75 109.7 3.0 L109.7 25.35 Q109.7 26.6 108.8 27.45 107.95 28.35 106.7 28.35 L3.0 28.35 Q1.75 28.35 0.9 27.45 0.0 26.6 0.0 25.35 L0.0 3.0 Q0.0 1.75 0.9 0.9 1.75 0.0 3.0 0.0 L106.7 0.0 M102.1 3.35 Q101.25 2.45 100.0 2.45 L9.7 2.45 Q8.45 2.45 7.6 3.35 6.7 4.2 6.7 5.45 L6.7 23.25 Q6.7 24.5 7.6 25.35 8.45 26.25 9.7 26.25 L100.0 26.25 Q101.25 26.25 102.1 25.35 103.0 24.5 103.0 23.25 L103.0 5.45 Q103.0 4.2 102.1 3.35" fill="url(#gradient0)" fill-rule="evenodd" stroke="none"/>
    <path d="M100.0 2.45 Q101.25 2.45 102.1 3.35 103.0 4.2 103.0 5.45 L103.0 23.25 Q103.0 24.5 102.1 25.35 101.25 26.25 100.0 26.25 L9.7 26.25 Q8.45 26.25 7.6 25.35 6.7 24.5 6.7 23.25 L6.7 5.45 Q6.7 4.2 7.6 3.35 8.45 2.45 9.7 2.45 L100.0 2.45 M101.05 22.65 L101.05 5.9 Q101.05 4.65 100.15 3.8 99.3 2.9 98.05 2.9 L11.6 2.9 Q10.35 2.9 9.5 3.8 8.6 4.65 8.6 5.9 L8.6 22.65 Q8.6 23.9 9.5 24.75 10.35 25.65 11.6 25.65 L98.05 25.65 Q99.3 25.65 100.15 24.75 101.05 23.9 101.05 22.65" fill="#042b59" fill-rule="evenodd" stroke="none"/>
  </g>
  <defs>
    <linearGradient gradientTransform="matrix(0.0, -0.0173, -0.0173, 0.0, 54.85, 14.2)" gradientUnits="userSpaceOnUse" id="gradient0" spreadMethod="pad" x1="-819.2" x2="819.2">
      <stop offset="0.00392156862745098" stop-color="#404964"/>
      <stop offset="0.07058823529411765" stop-color="#0e0f16"/>
      <stop offset="0.3137254901960784" stop-color="#1a1d29"/>
      <stop offset="0.807843137254902" stop-color="#3a425b"/>
      <stop offset="0.9372549019607843" stop-color="#434d69"/>
      <stop offset="0.9529411764705882" stop-color="#59707d"/>
      <stop offset="1.0" stop-color="#373838"/>
    </linearGradient>
  </defs>
</svg>
