<?xml version="1.0" encoding="UTF-8" standalone="no"?>
<svg xmlns:ffdec="https://www.free-decompiler.com/flash" xmlns:xlink="http://www.w3.org/1999/xlink" ffdec:objectType="shape" height="22.8px" width="86.0px" xmlns="http://www.w3.org/2000/svg">
  <g transform="matrix(1.0, 0.0, 0.0, 1.0, -4.8, -1.25)">
    <path d="M88.85 22.1 Q87.75 23.15 86.3 23.15 L9.3 23.15 Q7.75 23.15 6.7 22.1 5.7 21.05 5.7 19.55 L5.7 5.75 Q5.7 4.2 6.7 3.15 7.75 2.15 9.3 2.15 L86.3 2.15 Q87.75 2.15 88.85 3.15 89.9 4.2 89.9 5.75 L89.9 19.55 Q89.9 21.05 88.85 22.1" fill="url(#gradient0)" fill-rule="evenodd" stroke="none"/>
    <path d="M86.3 22.25 Q87.4 22.25 88.15 21.45 89.0 20.7 89.0 19.55 L89.0 5.75 Q89.0 4.6 88.15 3.85 87.4 3.05 86.3 3.05 L9.3 3.05 Q8.15 3.05 7.4 3.85 6.6 4.6 6.6 5.75 L6.6 19.55 Q6.6 20.7 7.4 21.45 8.15 22.25 9.3 22.25 L86.3 22.25 M86.3 1.25 Q88.15 1.25 89.5 2.55 90.8 3.85 90.8 5.75 L90.8 19.55 Q90.8 21.4 89.5 22.75 88.15 24.05 86.3 24.05 L9.3 24.05 Q7.4 24.05 6.1 22.75 4.8 21.4 4.8 19.55 L4.8 5.75 Q4.8 3.85 6.1 2.55 7.4 1.25 9.3 1.25 L86.3 1.25" fill="#e4a100" fill-rule="evenodd" stroke="none"/>
  </g>
  <defs>
    <linearGradient gradientTransform="matrix(0.0514, 0.0, 0.0, -0.0514, 47.75, 12.6)" gradientUnits="userSpaceOnUse" id="gradient0" spreadMethod="pad" x1="-819.2" x2="819.2">
      <stop offset="0.0" stop-color="#ab5000"/>
      <stop offset="0.5294117647058824" stop-color="#8f3800"/>
      <stop offset="1.0" stop-color="#ab5c00"/>
    </linearGradient>
  </defs>
</svg>
