<?xml version="1.0" encoding="UTF-8" standalone="no"?>
<svg xmlns:ffdec="https://www.free-decompiler.com/flash" xmlns:xlink="http://www.w3.org/1999/xlink" ffdec:objectType="shape" height="13.05px" width="13.1px" xmlns="http://www.w3.org/2000/svg">
  <g transform="matrix(1.0, 0.0, 0.0, 1.0, -1.3, -1.35)">
    <path d="M13.9 7.85 Q13.9 10.35 12.15 12.15 10.35 13.9 7.85 13.9 5.35 13.9 3.55 12.15 1.8 10.35 1.8 7.85 1.8 5.35 3.55 3.6 5.35 1.85 7.85 1.85 10.35 1.85 12.15 3.6 13.9 5.35 13.9 7.85" fill="#00e1ff" fill-rule="evenodd" stroke="none"/>
    <path d="M13.9 7.85 Q13.9 10.35 12.15 12.15 10.35 13.9 7.85 13.9 5.35 13.9 3.55 12.15 1.8 10.35 1.8 7.85 1.8 5.35 3.55 3.6 5.35 1.85 7.85 1.85 10.35 1.85 12.15 3.6 13.9 5.35 13.9 7.85 Z" fill="none" stroke="#0063f2" stroke-linecap="butt" stroke-linejoin="miter-clip" stroke-miterlimit="4.0" stroke-width="1.0"/>
  </g>
</svg>
