<?xml version="1.0" encoding="UTF-8" standalone="no"?>
<svg xmlns:ffdec="https://www.free-decompiler.com/flash" xmlns:xlink="http://www.w3.org/1999/xlink" ffdec:objectType="shape" height="15.2px" width="13.2px" xmlns="http://www.w3.org/2000/svg">
  <g transform="matrix(1.0, 0.0, 0.0, 1.0, 0.0, 0.0)">
    <path d="M11.1 0.0 Q12.0 0.0 12.6 0.7 13.2 1.4 13.2 2.45 L13.2 12.75 Q13.2 13.75 12.6 14.45 12.0 15.2 11.1 15.2 L2.05 15.2 Q1.15 15.2 0.6 14.45 0.0 13.75 0.0 12.75 L0.0 2.45 Q0.0 1.4 0.6 0.7 1.15 0.0 2.05 0.0 L11.1 0.0" fill="url(#gradient0)" fill-rule="evenodd" stroke="none"/>
    <path d="M11.3 4.1 L9.3 4.1 6.6 5.85 4.0 4.1 1.85 4.1 6.6 10.15 11.3 4.1" fill="url(#gradient1)" fill-rule="evenodd" stroke="none"/>
    <path d="M11.3 4.1 L6.6 10.15 1.85 4.1 4.0 4.1 6.6 5.85 9.3 4.1 11.3 4.1 Z" ffdec:has-small-stroke="true" ffdec:original-stroke-width="0.5" fill="none" stroke="#3e3e3e" stroke-linecap="butt" stroke-linejoin="miter-clip" stroke-miterlimit="4.0" stroke-width="1.0"/>
  </g>
  <defs>
    <linearGradient gradientTransform="matrix(0.0, -0.0093, -0.0093, 0.0, 6.6, 7.6)" gradientUnits="userSpaceOnUse" id="gradient0" spreadMethod="pad" x1="-819.2" x2="819.2">
      <stop offset="0.0" stop-color="#75757a"/>
      <stop offset="0.17254901960784313" stop-color="#737375"/>
      <stop offset="0.4745098039215686" stop-color="#bac2c2"/>
      <stop offset="1.0" stop-color="#babfbf"/>
    </linearGradient>
    <linearGradient gradientTransform="matrix(5.0E-4, -0.0052, -0.0043, -4.0E-4, -23.6, 4.9)" gradientUnits="userSpaceOnUse" id="gradient1" spreadMethod="pad" x1="-819.2" x2="819.2">
      <stop offset="0.10980392156862745" stop-color="#ffff00"/>
      <stop offset="1.0" stop-color="#ff9966"/>
    </linearGradient>
  </defs>
</svg>
