<?xml version="1.0" encoding="UTF-8" standalone="no"?>
<svg xmlns:ffdec="https://www.free-decompiler.com/flash" xmlns:xlink="http://www.w3.org/1999/xlink" ffdec:objectType="shape" height="13.7px" width="11.9px" xmlns="http://www.w3.org/2000/svg">
  <g transform="matrix(1.0, 0.0, 0.0, 1.0, -0.65, -0.75)">
    <path d="M10.65 0.75 Q11.45 0.75 12.0 1.4 12.55 2.0 12.55 2.95 L12.55 12.25 Q12.55 13.15 12.0 13.8 11.45 14.45 10.65 14.45 L2.5 14.45 Q1.7 14.45 1.2 13.8 0.65 13.15 0.65 12.25 L0.65 2.95 Q0.65 2.0 1.2 1.4 1.7 0.75 2.5 0.75 L10.65 0.75" fill="url(#gradient0)" fill-rule="evenodd" stroke="none"/>
    <path d="M10.85 9.85 L9.05 9.85 6.6 8.25 4.25 9.85 2.3 9.85 6.6 4.4 10.85 9.85" fill="url(#gradient1)" fill-rule="evenodd" stroke="none"/>
    <path d="M10.85 9.85 L6.6 4.4 2.3 9.85 4.25 9.85 6.6 8.25 9.05 9.85 10.85 9.85 Z" ffdec:has-small-stroke="true" ffdec:original-stroke-width="0.5" fill="none" stroke="#3e3e3e" stroke-linecap="butt" stroke-linejoin="miter-clip" stroke-miterlimit="4.0" stroke-width="1.0"/>
  </g>
  <defs>
    <linearGradient gradientTransform="matrix(0.0, -0.0083, -0.0083, 0.0, 6.6, 7.6)" gradientUnits="userSpaceOnUse" id="gradient0" spreadMethod="pad" x1="-819.2" x2="819.2">
      <stop offset="0.0" stop-color="#75757a"/>
      <stop offset="0.17254901960784313" stop-color="#737375"/>
      <stop offset="0.4745098039215686" stop-color="#bac2c2"/>
      <stop offset="1.0" stop-color="#babfbf"/>
    </linearGradient>
    <linearGradient gradientTransform="matrix(4.0E-4, 0.0047, -0.0039, 3.0E-4, -20.55, 9.1)" gradientUnits="userSpaceOnUse" id="gradient1" spreadMethod="pad" x1="-819.2" x2="819.2">
      <stop offset="0.10980392156862745" stop-color="#ffff00"/>
      <stop offset="1.0" stop-color="#ff9966"/>
    </linearGradient>
  </defs>
</svg>
