<?xml version="1.0" encoding="UTF-8" standalone="no"?>
<svg xmlns:ffdec="https://www.free-decompiler.com/flash" xmlns:xlink="http://www.w3.org/1999/xlink" ffdec:objectType="shape" height="15.65px" width="19.2px" xmlns="http://www.w3.org/2000/svg">
  <g transform="matrix(1.0, 0.0, 0.0, 1.0, 0.0, 0.0)">
    <path d="M18.5 2.85 Q18.5 0.75 16.45 0.7 L2.75 0.7 Q0.7 0.75 0.7 2.85 L0.7 12.8 Q0.7 14.9 2.75 14.95 L2.85 14.95 16.45 14.95 Q18.5 14.9 18.5 12.8 L18.5 2.85 M16.35 0.0 Q19.2 0.0 19.2 2.85 L19.2 12.8 Q19.2 15.65 16.35 15.65 L2.85 15.65 Q0.0 15.65 0.0 12.8 L0.0 2.85 Q0.0 0.0 2.85 0.0 L16.35 0.0" fill="#6bcbe8" fill-rule="evenodd" stroke="none"/>
    <path d="M18.5 2.85 L18.5 12.8 Q18.5 14.9 16.45 14.95 L2.85 14.95 2.75 14.95 Q0.7 14.9 0.7 12.8 L0.7 2.85 Q0.7 0.75 2.75 0.7 L16.45 0.7 Q18.5 0.75 18.5 2.85 M11.75 6.4 L10.3 6.4 10.3 5.0 8.9 5.0 8.9 6.4 7.45 6.4 7.45 7.85 6.0 7.85 6.0 9.25 4.6 9.25 4.6 10.7 14.6 10.7 14.6 9.25 13.15 9.25 13.15 7.85 11.75 7.85 11.75 6.4" fill="#014074" fill-rule="evenodd" stroke="none"/>
    <path d="M11.75 6.4 L11.75 7.85 13.15 7.85 13.15 9.25 14.6 9.25 14.6 10.7 4.6 10.7 4.6 9.25 6.0 9.25 6.0 7.85 7.45 7.85 7.45 6.4 8.9 6.4 8.9 5.0 10.3 5.0 10.3 6.4 11.75 6.4" fill="#ffcc00" fill-rule="evenodd" stroke="none"/>
  </g>
</svg>
