<?xml version="1.0" encoding="UTF-8" standalone="no"?>
<svg xmlns:ffdec="https://www.free-decompiler.com/flash" xmlns:xlink="http://www.w3.org/1999/xlink" ffdec:objectType="shape" height="13.7px" width="16.8px" xmlns="http://www.w3.org/2000/svg">
  <g transform="matrix(1.0, 0.0, 0.0, 1.0, -1.2, -1.0)">
    <path d="M17.4 3.5 Q17.4 1.65 15.6 1.6 L3.6 1.6 Q1.8 1.65 1.8 3.5 L1.8 12.2 Q1.8 14.05 3.6 14.1 L3.7 14.1 15.6 14.1 Q17.4 14.05 17.4 12.2 L17.4 3.5 M15.5 1.0 Q18.0 1.0 18.0 3.5 L18.0 12.2 Q18.0 14.7 15.5 14.7 L3.7 14.7 Q1.2 14.7 1.2 12.2 L1.2 3.5 Q1.2 1.0 3.7 1.0 L15.5 1.0" fill="#6bcbe8" fill-rule="evenodd" stroke="none"/>
    <path d="M17.4 3.5 L17.4 12.2 Q17.4 14.05 15.6 14.1 L3.7 14.1 3.6 14.1 Q1.8 14.05 1.8 12.2 L1.8 3.5 Q1.8 1.65 3.6 1.6 L15.6 1.6 Q17.4 1.65 17.4 3.5 M11.5 7.85 L11.5 6.6 10.2 6.6 10.2 5.4 9.0 5.4 9.0 6.6 7.7 6.6 7.7 7.85 6.45 7.85 6.45 9.1 5.25 9.1 5.25 10.35 14.0 10.35 14.0 9.1 12.7 9.1 12.7 7.85 11.5 7.85" fill="#014074" fill-rule="evenodd" stroke="none"/>
    <path d="M11.5 7.85 L12.7 7.85 12.7 9.1 14.0 9.1 14.0 10.35 5.25 10.35 5.25 9.1 6.45 9.1 6.45 7.85 7.7 7.85 7.7 6.6 9.0 6.6 9.0 5.4 10.2 5.4 10.2 6.6 11.5 6.6 11.5 7.85" fill="#66ff00" fill-rule="evenodd" stroke="none"/>
  </g>
</svg>
