<?xml version="1.0" encoding="UTF-8" standalone="no"?>
<svg xmlns:ffdec="https://www.free-decompiler.com/flash" xmlns:xlink="http://www.w3.org/1999/xlink" ffdec:objectType="shape" height="17.65px" width="32.15px" xmlns="http://www.w3.org/2000/svg">
  <g transform="matrix(1.0, 0.0, 0.0, 1.0, 0.5, 0.5)">
    <path d="M11.6 0.0 L28.05 0.0 Q30.1 0.0 30.85 1.45 31.55 2.95 30.5 5.0 L27.1 11.65 Q26.05 13.7 23.85 15.2 21.6 16.65 19.55 16.65 L3.1 16.65 Q1.05 16.65 0.3 15.2 -0.4 13.7 0.65 11.65 L4.05 5.0 Q5.1 2.95 7.3 1.45 9.55 0.0 11.6 0.0" fill="#00a4ff" fill-opacity="0.44705883" fill-rule="evenodd" stroke="none"/>
    <path d="M11.6 0.0 L28.05 0.0 Q30.1 0.0 30.85 1.45 31.55 2.95 30.5 5.0 L27.1 11.65 Q26.05 13.7 23.85 15.2 21.6 16.65 19.55 16.65 L3.1 16.65 Q1.05 16.65 0.3 15.2 -0.4 13.7 0.65 11.65 L4.05 5.0 Q5.1 2.95 7.3 1.45 9.55 0.0 11.6 0.0 Z" fill="none" stroke="#0098ff" stroke-linecap="butt" stroke-linejoin="miter-clip" stroke-miterlimit="4.0" stroke-width="1.0"/>
    <path d="M11.95 10.55 L10.0 14.4 6.25 9.15 15.4 3.9 13.3 8.0 19.55 8.0 Q20.8 8.0 22.15 7.1 23.45 6.25 24.1 5.0 L24.7 3.8 26.65 3.8 24.75 7.55 Q24.1 8.8 22.8 9.65 21.45 10.55 20.2 10.55 L11.95 10.55" fill="#6bfce7" fill-rule="evenodd" stroke="none"/>
  </g>
</svg>
