<?xml version="1.0" encoding="UTF-8" standalone="no"?>
<svg xmlns:ffdec="https://www.free-decompiler.com/flash" xmlns:xlink="http://www.w3.org/1999/xlink" ffdec:objectType="shape" height="16.0px" width="29.15px" xmlns="http://www.w3.org/2000/svg">
  <g transform="matrix(1.0, 0.0, 0.0, 1.0, -1.05, -0.35)">
    <path d="M12.0 0.85 L26.8 0.85 Q28.65 0.85 29.3 2.15 29.95 3.5 29.0 5.35 L25.95 11.35 Q25.0 13.2 23.0 14.55 21.0 15.85 19.15 15.85 L4.35 15.85 Q2.5 15.85 1.8 14.55 1.2 13.2 2.15 11.35 L5.2 5.35 Q6.15 3.5 8.1 2.15 10.15 0.85 12.0 0.85" fill="#44b5ff" fill-opacity="0.99215686" fill-rule="evenodd" stroke="none"/>
    <path d="M12.0 0.85 L26.8 0.85 Q28.65 0.85 29.3 2.15 29.95 3.5 29.0 5.35 L25.95 11.35 Q25.0 13.2 23.0 14.55 21.0 15.85 19.15 15.85 L4.35 15.85 Q2.5 15.85 1.8 14.55 1.2 13.2 2.15 11.35 L5.2 5.35 Q6.15 3.5 8.1 2.15 10.15 0.85 12.0 0.85 Z" fill="none" stroke="#0098ff" stroke-linecap="butt" stroke-linejoin="miter-clip" stroke-miterlimit="4.0" stroke-width="1.0"/>
    <path d="M12.3 10.35 L10.55 13.8 7.2 9.1 15.4 4.35 13.5 8.05 19.15 8.05 Q20.25 8.05 21.5 7.25 22.65 6.5 23.25 5.35 L23.8 4.25 25.55 4.25 23.85 7.65 Q23.25 8.75 22.05 9.55 20.85 10.35 19.75 10.35 L12.3 10.35" fill="#6bfce7" fill-rule="evenodd" stroke="none"/>
  </g>
</svg>
