<?xml version="1.0" encoding="UTF-8" standalone="no"?>
<svg xmlns:ffdec="https://www.free-decompiler.com/flash" xmlns:xlink="http://www.w3.org/1999/xlink" ffdec:objectType="shape" height="77.25px" width="47.25px" xmlns="http://www.w3.org/2000/svg">
  <g transform="matrix(1.0, 0.0, 0.0, 1.0, 0.45, 0.5)">
    <path d="M42.4 0.0 Q46.3 0.0 46.3 3.7 L46.3 72.55 Q46.3 76.25 42.4 76.25 L4.0 76.25 Q0.05 76.25 0.05 72.55 L0.05 3.7 Q0.05 0.0 4.0 0.0 L42.4 0.0" fill="#043089" fill-rule="evenodd" stroke="none"/>
    <path d="M42.4 0.0 L4.0 0.0 Q0.05 0.0 0.05 3.7 L0.05 72.55 Q0.05 76.25 4.0 76.25 L42.4 76.25 Q46.3 76.25 46.3 72.55 L46.3 3.7 Q46.3 0.0 42.4 0.0 Z" fill="none" stroke="#2e74ff" stroke-linecap="round" stroke-linejoin="round" stroke-width="1.0"/>
  </g>
</svg>
