<?xml version="1.0" encoding="UTF-8" standalone="no"?>
<svg xmlns:ffdec="https://www.free-decompiler.com/flash" xmlns:xlink="http://www.w3.org/1999/xlink" ffdec:objectType="shape" height="18.95px" width="51.65px" xmlns="http://www.w3.org/2000/svg">
  <g transform="matrix(1.0, 0.0, 0.0, 1.0, -0.45, -0.75)">
    <path d="M51.55 3.95 L51.55 16.5 Q51.55 17.65 50.95 18.4 50.4 19.2 49.6 19.2 L3.0 19.2 Q2.2 19.2 1.65 18.4 1.05 17.65 1.05 16.5 L1.05 3.95 Q1.05 2.8 1.65 2.05 2.2 1.25 3.0 1.25 L49.6 1.25 Q50.4 1.25 50.95 2.05 51.55 2.8 51.55 3.95" fill="url(#gradient0)" fill-rule="evenodd" stroke="none"/>
    <path d="M50.95 2.05 Q51.5 2.85 51.5 3.95 L51.5 16.5 Q51.5 17.65 50.95 18.4 50.4 19.2 49.55 19.2 L3.0 19.2 Q2.15 19.2 1.6 18.4 1.05 17.65 1.05 16.5 L1.05 3.95 Q1.05 2.85 1.6 2.05 2.15 1.25 3.0 1.25 L49.55 1.25 Q50.4 1.25 50.95 2.05 Z" fill="none" stroke="#2e74ff" stroke-linecap="butt" stroke-linejoin="miter-clip" stroke-miterlimit="4.0" stroke-width="1.0"/>
  </g>
  <defs>
    <linearGradient gradientTransform="matrix(0.0, -0.0099, 0.6507, 0.0, -5.45, 10.25)" gradientUnits="userSpaceOnUse" id="gradient0" spreadMethod="pad" x1="-819.2" x2="819.2">
      <stop offset="0.0" stop-color="#004bc2"/>
      <stop offset="0.7647058823529411" stop-color="#003498"/>
      <stop offset="1.0" stop-color="#0057d9"/>
    </linearGradient>
  </defs>
</svg>
