<?xml version="1.0" encoding="UTF-8" standalone="no"?>
<svg xmlns:ffdec="https://www.free-decompiler.com/flash" xmlns:xlink="http://www.w3.org/1999/xlink" ffdec:objectType="shape" height="66.7px" width="298.4px" xmlns="http://www.w3.org/2000/svg">
  <g transform="matrix(1.0, 0.0, 0.0, 1.0, 0.0, 0.0)">
    <path d="M298.4 5.0 L298.4 61.7 Q298.4 63.75 296.95 65.25 295.45 66.7 293.4 66.7 L5.0 66.7 Q2.95 66.7 1.45 65.25 0.0 63.75 0.0 61.7 L0.0 27.0 Q0.0 24.95 1.1 22.5 2.2 20.1 3.8 18.7 L21.5 3.25 Q23.05 1.9 25.6 0.95 28.2 0.0 30.25 0.0 L293.4 0.0 Q295.45 0.0 296.95 1.45 298.4 2.95 298.4 5.0" fill="url(#gradient0)" fill-rule="evenodd" stroke="none"/>
  </g>
  <defs>
    <linearGradient gradientTransform="matrix(0.0614, 0.1022, 0.1022, -0.0614, 152.25, 38.45)" gradientUnits="userSpaceOnUse" id="gradient0" spreadMethod="pad" x1="-819.2" x2="819.2">
      <stop offset="0.0" stop-color="#00adee"/>
      <stop offset="0.023529411764705882" stop-color="#00a7ec"/>
      <stop offset="0.13333333333333333" stop-color="#008fe3"/>
      <stop offset="0.25882352941176473" stop-color="#017ddc"/>
      <stop offset="0.403921568627451" stop-color="#0170d8"/>
      <stop offset="0.596078431372549" stop-color="#0168d5"/>
      <stop offset="1.0" stop-color="#0166d4"/>
    </linearGradient>
  </defs>
</svg>
