<?xml version="1.0" encoding="UTF-8" standalone="no"?>
<svg xmlns:ffdec="https://www.free-decompiler.com/flash" xmlns:xlink="http://www.w3.org/1999/xlink" ffdec:objectType="shape" height="38.7px" width="138.1px" xmlns="http://www.w3.org/2000/svg">
  <g transform="matrix(1.0, 0.0, 0.0, 1.0, -19.1, -13.65)">
    <path d="M49.8 14.95 L21.5 30.4 19.85 30.5 Q19.1 30.1 19.1 29.0 L19.1 16.35 Q19.1 15.2 19.95 14.45 20.7 13.65 21.8 13.65 L49.5 13.65 Q50.6 13.65 50.7 14.05 50.8 14.4 49.8 14.95" fill="url(#gradient0)" fill-rule="evenodd" stroke="none"/>
    <path d="M154.5 13.65 Q155.6 13.65 156.35 14.45 157.2 15.2 157.2 16.35 L157.2 29.0 Q157.2 30.1 156.45 30.5 L154.8 30.4 126.45 14.95 Q125.45 14.4 125.6 14.05 125.7 13.65 126.8 13.65 L154.5 13.65" fill="url(#gradient1)" fill-rule="evenodd" stroke="none"/>
    <path d="M49.8 51.1 Q50.8 51.6 50.7 52.0 50.6 52.35 49.5 52.35 L21.8 52.35 Q20.7 52.35 19.95 51.55 19.1 50.75 19.1 49.65 L19.1 37.0 Q19.1 35.85 19.85 35.45 L21.5 35.6 49.8 51.1" fill="url(#gradient2)" fill-rule="evenodd" stroke="none"/>
    <path d="M157.2 37.0 L157.2 49.65 Q157.2 50.75 156.35 51.55 155.6 52.35 154.5 52.35 L126.8 52.35 Q125.7 52.35 125.6 52.0 125.45 51.6 126.45 51.1 L154.8 35.6 156.45 35.45 Q157.2 35.85 157.2 37.0" fill="url(#gradient3)" fill-rule="evenodd" stroke="none"/>
  </g>
  <defs>
    <linearGradient gradientTransform="matrix(0.0042, 0.0108, 0.0089, -0.0034, 32.6, 18.7)" gradientUnits="userSpaceOnUse" id="gradient0" spreadMethod="pad" x1="-819.2" x2="819.2">
      <stop offset="0.0" stop-color="#ffbd00"/>
      <stop offset="0.011764705882352941" stop-color="#ffb700" stop-opacity="0.93333334"/>
      <stop offset="0.08235294117647059" stop-color="#ff9c00" stop-opacity="0.6431373"/>
      <stop offset="0.16470588235294117" stop-color="#ff8600" stop-opacity="0.40392157"/>
      <stop offset="0.25882352941176473" stop-color="#ff7500" stop-opacity="0.21960784"/>
      <stop offset="0.3764705882352941" stop-color="#ff6a00" stop-opacity="0.09411765"/>
      <stop offset="0.5411764705882353" stop-color="#ff6300" stop-opacity="0.019607844"/>
      <stop offset="1.0" stop-color="#ff6100" stop-opacity="0.0"/>
    </linearGradient>
    <linearGradient gradientTransform="matrix(-0.0058, 0.01, -0.0083, -0.0048, 142.85, 17.75)" gradientUnits="userSpaceOnUse" id="gradient1" spreadMethod="pad" x1="-819.2" x2="819.2">
      <stop offset="0.0" stop-color="#ffbd00"/>
      <stop offset="0.011764705882352941" stop-color="#ffb700" stop-opacity="0.93333334"/>
      <stop offset="0.08235294117647059" stop-color="#ff9c00" stop-opacity="0.6431373"/>
      <stop offset="0.16470588235294117" stop-color="#ff8600" stop-opacity="0.40392157"/>
      <stop offset="0.25882352941176473" stop-color="#ff7500" stop-opacity="0.21960784"/>
      <stop offset="0.3764705882352941" stop-color="#ff6a00" stop-opacity="0.09411765"/>
      <stop offset="0.5411764705882353" stop-color="#ff6300" stop-opacity="0.019607844"/>
      <stop offset="1.0" stop-color="#ff6100" stop-opacity="0.0"/>
    </linearGradient>
    <linearGradient gradientTransform="matrix(0.0082, -0.0082, 0.0068, 0.0068, 30.2, 48.75)" gradientUnits="userSpaceOnUse" id="gradient2" spreadMethod="pad" x1="-819.2" x2="819.2">
      <stop offset="0.0" stop-color="#ffbd00"/>
      <stop offset="0.011764705882352941" stop-color="#ffb700" stop-opacity="0.93333334"/>
      <stop offset="0.08235294117647059" stop-color="#ff9c00" stop-opacity="0.6431373"/>
      <stop offset="0.16470588235294117" stop-color="#ff8600" stop-opacity="0.40392157"/>
      <stop offset="0.25882352941176473" stop-color="#ff7500" stop-opacity="0.21960784"/>
      <stop offset="0.3764705882352941" stop-color="#ff6a00" stop-opacity="0.09411765"/>
      <stop offset="0.5411764705882353" stop-color="#ff6300" stop-opacity="0.019607844"/>
      <stop offset="1.0" stop-color="#ff6100" stop-opacity="0.0"/>
    </linearGradient>
    <linearGradient gradientTransform="matrix(-0.0058, -0.01, -0.0083, 0.0048, 144.05, 47.6)" gradientUnits="userSpaceOnUse" id="gradient3" spreadMethod="pad" x1="-819.2" x2="819.2">
      <stop offset="0.0" stop-color="#ffbd00"/>
      <stop offset="0.011764705882352941" stop-color="#ffb700" stop-opacity="0.93333334"/>
      <stop offset="0.08235294117647059" stop-color="#ff9c00" stop-opacity="0.6431373"/>
      <stop offset="0.16470588235294117" stop-color="#ff8600" stop-opacity="0.40392157"/>
      <stop offset="0.25882352941176473" stop-color="#ff7500" stop-opacity="0.21960784"/>
      <stop offset="0.3764705882352941" stop-color="#ff6a00" stop-opacity="0.09411765"/>
      <stop offset="0.5411764705882353" stop-color="#ff6300" stop-opacity="0.019607844"/>
      <stop offset="1.0" stop-color="#ff6100" stop-opacity="0.0"/>
    </linearGradient>
  </defs>
</svg>
