<?xml version="1.0" encoding="UTF-8" standalone="no"?>
<svg xmlns:ffdec="https://www.free-decompiler.com/flash" xmlns:xlink="http://www.w3.org/1999/xlink" ffdec:objectType="shape" height="67.15px" width="176.05px" xmlns="http://www.w3.org/2000/svg">
  <g transform="matrix(1.0, 0.0, 0.0, 1.0, 0.0, 0.0)">
    <path d="M175.55 3.0 L175.55 19.35 175.35 21.5 175.0 22.5 Q174.1 23.15 174.1 26.4 L174.1 40.9 174.2 42.7 Q174.45 44.4 175.05 44.8 175.55 45.45 175.55 47.9 L175.55 64.15 Q175.55 65.15 174.8 65.9 174.05 66.65 173.05 66.65 L156.65 66.65 154.55 66.45 153.55 66.15 Q153.15 65.6 151.45 65.35 L149.65 65.2 26.25 65.2 Q23.0 65.2 22.3 66.15 L21.35 66.45 19.2 66.65 3.0 66.65 Q1.95 66.65 1.25 65.9 0.5 65.15 0.5 64.15 L0.5 47.8 Q0.5 45.35 0.95 44.75 1.8 44.2 1.8 40.9 L1.8 26.4 Q1.8 23.1 0.95 22.5 L0.65 21.55 Q0.5 20.55 0.5 19.45 L0.5 3.0 Q0.5 1.95 1.25 1.25 1.95 0.5 3.0 0.5 L19.2 0.5 21.35 0.7 22.35 1.0 Q23.0 1.9 26.25 1.9 L149.65 1.9 Q152.95 1.9 153.55 1.0 154.05 0.5 156.65 0.5 L173.05 0.5 Q174.05 0.5 174.8 1.25 175.55 1.95 175.55 3.0" fill="#0e0f0f" fill-rule="evenodd" stroke="none"/>
    <path d="M173.05 0.0 Q174.3 0.0 175.15 0.9 176.05 1.75 176.05 3.0 L176.05 19.35 175.85 21.65 175.3 22.85 174.8 24.1 174.6 26.4 174.6 40.9 174.8 43.2 175.3 44.4 175.85 45.65 176.05 47.9 176.05 64.15 Q176.05 65.4 175.15 66.25 174.3 67.15 173.05 67.15 L156.65 67.15 154.4 66.95 Q153.35 66.7 153.15 66.45 152.95 66.15 151.95 65.95 L149.65 65.7 26.25 65.7 23.95 65.95 Q22.95 66.15 22.7 66.45 22.5 66.7 21.5 66.95 L19.2 67.15 3.0 67.15 Q1.75 67.15 0.9 66.25 0.0 65.4 0.0 64.15 L0.0 47.8 0.2 45.55 Q0.4 44.55 0.65 44.35 1.3 43.9 1.3 40.9 L1.3 26.4 Q1.3 23.35 0.65 22.9 0.0 22.45 0.0 19.45 L0.0 3.0 Q0.0 1.75 0.9 0.9 1.75 0.0 3.0 0.0 L19.2 0.0 21.5 0.2 Q22.5 0.4 22.7 0.7 22.9 1.0 23.95 1.2 L26.25 1.4 149.65 1.4 151.95 1.2 Q152.95 1.0 153.15 0.7 153.35 0.4 154.4 0.2 L156.65 0.0 173.05 0.0 M175.05 3.0 Q175.05 2.2 174.45 1.6 173.9 1.0 173.05 1.0 L156.65 1.0 Q154.7 1.0 153.9 1.4 153.0 2.4 149.65 2.4 L26.25 2.4 Q22.9 2.4 22.0 1.4 L19.2 1.0 3.0 1.0 Q2.2 1.0 1.6 1.6 1.0 2.2 1.0 3.0 L1.0 19.45 Q1.0 21.5 1.35 22.2 2.3 23.1 2.3 26.4 L2.3 40.9 Q2.3 44.2 1.35 45.1 1.0 45.8 1.0 47.8 L1.0 64.15 Q1.0 65.0 1.6 65.55 2.2 66.15 3.0 66.15 L19.2 66.15 22.0 65.75 Q22.9 64.7 26.25 64.7 L149.65 64.7 Q152.95 64.7 153.9 65.75 154.7 66.15 156.65 66.15 L173.05 66.15 Q173.9 66.15 174.45 65.55 175.05 65.0 175.05 64.15 L175.05 47.9 Q175.05 45.95 174.65 45.15 173.6 44.2 173.6 40.9 L173.6 26.4 Q173.6 23.1 174.65 22.15 175.05 21.35 175.05 19.35 L175.05 3.0" fill="#2d3135" fill-rule="evenodd" stroke="none"/>
    <path d="M157.75 51.9 L18.95 51.9 18.95 16.0 157.6 16.0 157.75 51.9" fill="#191919" fill-rule="evenodd" stroke="none"/>
    <path d="M157.75 51.9 L18.95 51.9 18.95 16.0 157.6 16.0 157.75 51.9 Z" fill="none" stroke="#232323" stroke-linecap="butt" stroke-linejoin="miter-clip" stroke-miterlimit="4.0" stroke-width="1.0"/>
    <path d="M11.25 2.9 L11.25 4.65 6.35 4.65 4.6 6.4 4.6 11.5 2.75 11.5 2.75 5.2 5.0 2.9 11.25 2.9" fill="#757782" fill-rule="evenodd" stroke="none"/>
    <path d="M173.3 5.2 L173.3 11.5 171.45 11.5 171.45 6.4 169.7 4.65 164.8 4.65 164.8 2.9 171.0 2.9 173.3 5.2" fill="#757782" fill-rule="evenodd" stroke="none"/>
    <path d="M4.6 55.9 L4.6 60.95 6.35 62.7 11.25 62.7 11.25 64.45 5.0 64.45 2.75 62.2 2.75 55.9 4.6 55.9" fill="#757782" fill-rule="evenodd" stroke="none"/>
    <path d="M171.45 55.9 L173.3 55.9 173.3 62.2 171.0 64.45 164.8 64.45 164.8 62.7 169.7 62.7 171.45 60.95 171.45 55.9" fill="#757782" fill-rule="evenodd" stroke="none"/>
    <path d="M8.05 59.4 L8.05 8.3 168.05 8.3 168.05 59.4 8.05 59.4" fill="#252426" fill-rule="evenodd" stroke="none"/>
    <path d="M168.55 7.8 L168.55 59.9 7.55 59.9 7.55 7.8 168.55 7.8 M167.55 8.8 L8.55 8.8 8.55 58.9 167.55 58.9 167.55 8.8" fill="#191919" fill-rule="evenodd" stroke="none"/>
    <path d="M9.95 57.8 L9.3 57.2 13.45 53.05 14.05 53.7 9.95 57.8" fill="#40383d" fill-rule="evenodd" stroke="none"/>
    <path d="M9.95 57.8 L9.3 57.2 13.45 53.05 14.05 53.7 9.95 57.8 Z" fill="none" stroke="#30272b" stroke-linecap="butt" stroke-linejoin="miter-clip" stroke-miterlimit="4.0" stroke-width="1.0"/>
    <path d="M162.3 14.05 L162.3 53.7 13.8 53.7 13.8 14.05 162.3 14.05" fill="#333233" fill-rule="evenodd" stroke="none"/>
    <path d="M10.45 47.0 L7.55 49.1 7.55 19.2 10.45 21.3 10.45 47.0" fill="#0f120f" fill-rule="evenodd" stroke="none"/>
    <path d="M165.7 47.0 L165.7 21.3 168.55 19.2 168.55 49.1 165.7 47.0" fill="#0f120f" fill-rule="evenodd" stroke="none"/>
    <path d="M166.5 57.8 L162.35 53.7 163.0 53.05 167.1 57.2 166.5 57.8" fill="#403b3d" fill-rule="evenodd" stroke="none"/>
    <path d="M166.5 57.8 L167.1 57.2 163.0 53.05 162.35 53.7 166.5 57.8 Z" fill="none" stroke="#302a2b" stroke-linecap="butt" stroke-linejoin="miter-clip" stroke-miterlimit="4.0" stroke-width="1.0"/>
    <path d="M9.95 9.9 L14.05 14.05 13.45 14.65 9.3 10.55 9.95 9.9" fill="#403b3d" fill-rule="evenodd" stroke="none"/>
    <path d="M9.95 9.9 L9.3 10.55 13.45 14.65 14.05 14.05 9.95 9.9 Z" fill="none" stroke="#302a2b" stroke-linecap="butt" stroke-linejoin="miter-clip" stroke-miterlimit="4.0" stroke-width="1.0"/>
    <path d="M166.5 9.9 L167.1 10.55 163.0 14.65 162.35 14.05 166.5 9.9" fill="#403b3d" fill-rule="evenodd" stroke="none"/>
    <path d="M166.5 9.9 L167.1 10.55 163.0 14.65 162.35 14.05 166.5 9.9 Z" fill="none" stroke="#302a2b" stroke-linecap="butt" stroke-linejoin="miter-clip" stroke-miterlimit="4.0" stroke-width="1.0"/>
    <path d="M166.9 14.95 L166.9 51.75 Q166.9 54.25 165.15 56.0 163.4 57.75 160.9 57.75 L14.85 57.75 Q12.4 57.75 10.6 56.0 8.85 54.25 8.85 51.75 L8.85 14.95 Q8.85 12.45 10.6 10.7 12.35 8.95 14.85 8.95 L160.9 8.95 Q163.4 8.95 165.15 10.7 166.9 12.45 166.9 14.95" fill="url(#gradient0)" fill-rule="evenodd" stroke="none"/>
    <path d="M165.85 10.0 Q167.9 12.05 167.9 14.95 L167.9 51.75 Q167.9 54.65 165.85 56.7 163.8 58.75 160.9 58.75 L14.85 58.75 Q11.95 58.75 9.9 56.7 7.85 54.65 7.85 51.75 L7.85 14.95 Q7.85 12.05 9.9 10.0 11.95 7.95 14.85 7.95 L160.9 7.95 Q163.8 7.95 165.85 10.0 M165.9 14.95 Q165.9 12.9 164.45 11.4 162.95 9.95 160.9 9.95 L14.85 9.95 Q12.8 9.95 11.3 11.4 9.85 12.9 9.85 14.95 L9.85 51.75 Q9.85 53.8 11.3 55.3 12.8 56.75 14.85 56.75 L160.9 56.75 Q162.95 56.75 164.45 55.3 165.9 53.8 165.9 51.75 L165.9 14.95" fill="#042b59" fill-rule="evenodd" stroke="none"/>
    <path d="M140.05 52.3 L144.9 57.1 35.15 57.1 40.0 52.3 140.05 52.3" fill="#112774" fill-rule="evenodd" stroke="none"/>
    <path d="M140.05 14.75 L40.0 14.75 35.15 9.95 144.9 9.95 140.05 14.75" fill="#112774" fill-rule="evenodd" stroke="none"/>
  </g>
  <defs>
    <linearGradient gradientTransform="matrix(0.1013, 0.0, 0.0, 1.0, 87.95, 2.6)" gradientUnits="userSpaceOnUse" id="gradient0" spreadMethod="pad" x1="-819.2" x2="819.2">
      <stop offset="0.0" stop-color="#021558"/>
      <stop offset="0.47843137254901963" stop-color="#051f7a"/>
      <stop offset="1.0" stop-color="#000f42"/>
    </linearGradient>
  </defs>
</svg>
