<?xml version="1.0" encoding="UTF-8" standalone="no"?>
<svg xmlns:ffdec="https://www.free-decompiler.com/flash" xmlns:xlink="http://www.w3.org/1999/xlink" ffdec:objectType="shape" height="25.5px" width="98.7px" xmlns="http://www.w3.org/2000/svg">
  <g transform="matrix(1.0, 0.0, 0.0, 1.0, -5.5, -1.4)">
    <path d="M98.2 6.3 Q98.2 5.15 97.35 4.4 96.6 3.6 95.5 3.6 L14.2 3.6 Q13.1 3.6 12.3 4.4 11.5 5.15 11.5 6.3 L11.5 22.3 Q11.5 23.45 12.3 24.2 13.1 25.0 14.2 25.0 L95.5 25.0 Q96.6 25.0 97.35 24.2 98.2 23.45 98.2 22.3 L98.2 6.3 M103.4 2.2 Q104.2 2.95 104.2 4.1 L104.2 24.2 Q104.2 25.3 103.4 26.1 102.65 26.9 101.5 26.9 L8.2 26.9 Q7.05 26.9 6.3 26.1 5.5 25.3 5.5 24.2 L5.5 4.1 Q5.5 2.95 6.3 2.2 7.05 1.4 8.2 1.4 L101.5 1.4 Q102.65 1.4 103.4 2.2" fill="url(#gradient0)" fill-rule="evenodd" stroke="none"/>
    <path d="M95.5 3.6 Q96.6 3.6 97.35 4.4 98.2 5.15 98.2 6.3 L98.2 22.3 Q98.2 23.45 97.35 24.2 96.6 25.0 95.5 25.0 L14.2 25.0 Q13.1 25.0 12.3 24.2 11.5 23.45 11.5 22.3 L11.5 6.3 Q11.5 5.15 12.3 4.4 13.1 3.6 14.2 3.6 L95.5 3.6 M96.45 6.7 Q96.45 5.55 95.6 4.8 94.85 4.0 93.75 4.0 L15.9 4.0 Q14.75 4.0 14.0 4.8 13.2 5.55 13.2 6.7 L13.2 21.75 Q13.2 22.9 14.0 23.65 14.75 24.45 15.9 24.45 L93.75 24.45 Q94.85 24.45 95.6 23.65 96.45 22.9 96.45 21.75 L96.45 6.7" fill="#042b59" fill-rule="evenodd" stroke="none"/>
    <path d="M93.6 4.0 Q94.7 4.0 95.5 4.8 96.3 5.55 96.3 6.7 L96.3 21.6 Q96.3 22.7 95.5 23.45 94.7 24.3 93.6 24.3 L15.9 24.3 Q14.75 24.3 14.0 23.45 13.2 22.7 13.2 21.6 L13.2 6.7 Q13.2 5.55 14.0 4.8 14.75 4.0 15.9 4.0 L93.6 4.0" fill="url(#gradient1)" fill-rule="evenodd" stroke="none"/>
  </g>
  <defs>
    <linearGradient gradientTransform="matrix(0.0, -0.0156, -0.0156, 0.0, 54.85, 14.1)" gradientUnits="userSpaceOnUse" id="gradient0" spreadMethod="pad" x1="-819.2" x2="819.2">
      <stop offset="0.00392156862745098" stop-color="#404964"/>
      <stop offset="0.07058823529411765" stop-color="#0e0f16"/>
      <stop offset="0.3137254901960784" stop-color="#1a1d29"/>
      <stop offset="0.807843137254902" stop-color="#3a425b"/>
      <stop offset="0.9372549019607843" stop-color="#434d69"/>
      <stop offset="0.9529411764705882" stop-color="#59707d"/>
      <stop offset="1.0" stop-color="#373838"/>
    </linearGradient>
    <radialGradient cx="0" cy="0" gradientTransform="matrix(0.0781, 0.0, 0.0, 0.0149, 55.7, 20.05)" gradientUnits="userSpaceOnUse" id="gradient1" r="819.2" spreadMethod="pad">
      <stop offset="0.0" stop-color="#5effff"/>
      <stop offset="0.10196078431372549" stop-color="#55efff"/>
      <stop offset="0.30196078431372547" stop-color="#3dc6ff"/>
      <stop offset="0.5764705882352941" stop-color="#1684ff"/>
      <stop offset="0.6745098039215687" stop-color="#086bff"/>
      <stop offset="0.7215686274509804" stop-color="#0a71ff"/>
      <stop offset="0.8352941176470589" stop-color="#0c7aff"/>
      <stop offset="1.0" stop-color="#0d7dff"/>
    </radialGradient>
  </defs>
</svg>
