<?xml version="1.0" encoding="UTF-8" standalone="no"?>
<svg xmlns:ffdec="https://www.free-decompiler.com/flash" xmlns:xlink="http://www.w3.org/1999/xlink" ffdec:objectType="shape" height="61.15px" width="61.15px" xmlns="http://www.w3.org/2000/svg">
  <g transform="matrix(1.0, 0.0, 0.0, 1.0, 0.0, 0.0)">
    <path d="M33.8 1.95 Q36.35 1.95 36.9 1.4 37.3 0.85 39.0 0.6 L40.75 0.5 57.15 0.5 Q58.6 0.5 59.65 1.55 60.65 2.55 60.65 4.0 L60.65 20.4 Q60.65 23.65 59.75 24.3 L59.45 25.25 59.25 27.4 59.25 33.95 59.45 36.05 59.75 37.0 Q60.65 37.65 60.65 40.9 L60.65 57.15 Q60.65 58.6 59.65 59.65 58.6 60.65 57.15 60.65 L40.75 60.65 Q37.5 60.65 36.9 59.75 36.4 59.25 33.8 59.25 L27.3 59.25 Q24.65 59.25 24.15 59.75 23.5 60.65 20.25 60.65 L4.0 60.65 Q2.55 60.65 1.55 59.65 0.5 58.6 0.5 57.15 L0.5 40.85 Q0.5 39.95 0.65 39.05 0.85 37.35 1.4 36.95 L1.7 36.0 1.85 33.95 1.85 27.4 Q1.85 24.8 1.35 24.3 0.85 23.9 0.65 22.2 L0.5 20.45 0.5 4.0 Q0.5 2.6 1.55 1.55 2.6 0.5 4.0 0.5 L20.25 0.5 Q23.5 0.5 24.15 1.45 L25.15 1.75 27.3 1.95 33.8 1.95" fill="#191919" fill-rule="evenodd" stroke="none"/>
    <path d="M4.0 1.0 Q2.75 1.0 1.9 1.9 1.0 2.75 1.0 4.0 L1.0 20.45 Q1.0 23.45 1.7 23.9 2.35 24.45 2.35 27.4 L2.35 33.95 Q2.35 36.95 1.7 37.4 1.0 37.85 1.0 40.85 L1.0 57.15 Q1.0 58.4 1.9 59.25 2.75 60.15 4.0 60.15 L20.25 60.15 22.55 59.95 23.75 59.45 Q23.95 59.15 25.0 58.95 L27.3 58.75 33.8 58.75 36.1 58.95 Q37.1 59.15 37.3 59.45 37.5 59.75 38.5 59.95 L40.75 60.15 57.15 60.15 Q58.4 60.15 59.25 59.25 60.15 58.4 60.15 57.15 L60.15 40.9 Q60.15 37.95 59.45 37.4 58.75 36.95 58.75 33.95 L58.75 27.4 Q58.75 24.35 59.45 23.9 60.15 23.4 60.15 20.4 L60.15 4.0 Q60.15 2.75 59.25 1.9 58.4 1.0 57.15 1.0 L40.75 1.0 38.5 1.2 Q37.5 1.45 37.3 1.7 37.1 2.0 36.1 2.25 L33.8 2.45 27.3 2.45 25.0 2.25 Q24.0 2.0 23.75 1.7 L22.55 1.2 20.25 1.0 4.0 1.0 M0.0 4.0 Q0.0 2.35 1.2 1.2 2.35 0.0 4.0 0.0 L20.25 0.0 Q23.55 0.0 24.5 1.05 L27.3 1.45 33.8 1.45 36.55 1.05 Q37.5 0.0 40.75 0.0 L57.15 0.0 Q58.85 0.0 60.0 1.2 61.15 2.35 61.15 4.0 L61.15 20.4 Q61.15 23.7 60.15 24.6 59.75 25.4 59.75 27.4 L59.75 33.95 Q59.75 35.9 60.15 36.7 61.15 37.55 61.15 40.9 L61.15 57.15 Q61.15 58.8 60.0 60.0 58.85 61.15 57.15 61.15 L40.75 61.15 Q37.45 61.15 36.55 60.1 L33.8 59.75 27.3 59.75 24.5 60.15 Q23.55 61.15 20.25 61.15 L4.0 61.15 Q2.35 61.15 1.2 60.0 0.0 58.8 0.0 57.15 L0.0 40.85 Q0.0 37.55 1.0 36.65 1.35 35.6 1.35 33.95 L1.35 27.4 Q1.35 25.7 1.0 24.65 0.0 23.7 0.0 20.45 L0.0 4.0" fill="#111010" fill-rule="evenodd" stroke="none"/>
  </g>
</svg>
