<?xml version="1.0" encoding="UTF-8" standalone="no"?>
<svg xmlns:ffdec="https://www.free-decompiler.com/flash" xmlns:xlink="http://www.w3.org/1999/xlink" ffdec:objectType="shape" height="10.0px" width="10.0px" xmlns="http://www.w3.org/2000/svg">
  <g transform="matrix(1.0, 0.0, 0.0, 1.0, 0.0, 0.0)">
    <path d="M0.0 4.15 Q0.0 2.4 1.3 1.2 2.6 0.0 4.45 0.0 6.3 0.0 7.6 1.2 8.9 2.4 8.9 4.15 8.9 5.9 7.6 7.1 6.3 8.3 4.45 8.3 2.6 8.3 1.3 7.1 0.0 5.85 0.0 4.15" fill="url(#gradient0)" fill-rule="evenodd" stroke="none"/>
    <path d="M10.0 6.3 L10.0 7.8 7.3 6.25 4.65 7.8 4.65 6.3 7.3 4.75 10.0 6.3" fill="#ffff80" fill-rule="evenodd" stroke="none"/>
    <path d="M10.0 8.5 L10.0 10.0 7.3 8.45 4.65 10.0 4.65 8.5 7.3 6.95 10.0 8.5" fill="#ffff80" fill-rule="evenodd" stroke="none"/>
  </g>
  <defs>
    <radialGradient cx="0" cy="0" gradientTransform="matrix(-0.0054, 0.0, 0.0, -0.0051, 4.45, 4.15)" gradientUnits="userSpaceOnUse" id="gradient0" r="819.2" spreadMethod="pad">
      <stop offset="0.0" stop-color="#52c900"/>
      <stop offset="0.2823529411764706" stop-color="#4fc600"/>
      <stop offset="0.47843137254901963" stop-color="#47bd00"/>
      <stop offset="0.6509803921568628" stop-color="#39ae00"/>
      <stop offset="0.803921568627451" stop-color="#259800"/>
      <stop offset="0.9490196078431372" stop-color="#0b7c00"/>
      <stop offset="1.0" stop-color="#007000"/>
    </radialGradient>
  </defs>
</svg>
