<?xml version="1.0" encoding="UTF-8" standalone="no"?>
<svg xmlns:ffdec="https://www.free-decompiler.com/flash" xmlns:xlink="http://www.w3.org/1999/xlink" ffdec:objectType="shape" height="30.1px" width="43.65px" xmlns="http://www.w3.org/2000/svg">
  <g transform="matrix(1.0, 0.0, 0.0, 1.0, 0.0, 0.0)">
    <path d="M18.45 2.4 Q12.45 3.1 8.7 5.6 4.95 8.1 3.65 12.15 L0.15 12.15 Q1.45 7.45 6.5 4.1 11.55 0.75 18.45 0.0 L18.45 2.4" fill="#009cff" fill-rule="evenodd" stroke="none"/>
    <path d="M37.25 4.15 Q42.2 7.5 43.5 12.15 L40.0 12.15 Q37.4 3.95 25.45 2.45 L25.45 0.05 Q32.25 0.85 37.25 4.15" fill="#009cff" fill-rule="evenodd" stroke="none"/>
    <path d="M25.45 27.65 Q31.6 26.9 35.4 24.2 39.2 21.55 40.15 17.25 L43.65 17.25 Q42.6 22.15 37.55 25.7 32.5 29.3 25.45 30.1 L25.45 27.65" fill="#009cff" fill-rule="evenodd" stroke="none"/>
    <path d="M3.45 17.25 Q4.5 21.55 8.35 24.25 12.25 26.95 18.45 27.7 L18.45 30.1 Q11.3 29.35 6.15 25.8 1.05 22.2 0.0 17.25 L3.45 17.25" fill="#009cff" fill-rule="evenodd" stroke="none"/>
  </g>
</svg>
