<?xml version="1.0" encoding="UTF-8" standalone="no"?>
<svg xmlns:ffdec="https://www.free-decompiler.com/flash" xmlns:xlink="http://www.w3.org/1999/xlink" ffdec:objectType="shape" height="30.05px" width="43.65px" xmlns="http://www.w3.org/2000/svg">
  <g transform="matrix(1.0, 0.0, 0.0, 1.0, 0.0, -2.45)">
    <path d="M18.45 4.85 Q6.25 6.3 3.65 14.6 L0.15 14.6 Q1.45 9.85 6.5 6.5 11.55 3.15 18.45 2.45 L18.45 4.85" fill="#ffbd36" fill-rule="evenodd" stroke="none"/>
    <path d="M40.0 14.6 Q38.75 10.55 35.05 8.1 31.35 5.6 25.45 4.85 L25.45 2.45 Q32.25 3.25 37.25 6.6 42.2 9.9 43.5 14.6 L40.0 14.6" fill="#ffbd36" fill-rule="evenodd" stroke="none"/>
    <path d="M25.45 30.1 Q31.6 29.3 35.4 26.65 39.2 23.95 40.15 19.7 L43.65 19.7 Q42.65 24.6 37.55 28.15 32.5 31.7 25.45 32.5 L25.45 30.1" fill="#ffbd36" fill-rule="evenodd" stroke="none"/>
    <path d="M18.45 32.5 Q11.3 31.75 6.15 28.2 1.05 24.65 0.0 19.7 L3.5 19.7 Q4.5 24.0 8.35 26.7 12.25 29.4 18.45 30.1 L18.45 32.5" fill="#ffbd36" fill-rule="evenodd" stroke="none"/>
  </g>
</svg>
