<?xml version="1.0" encoding="UTF-8" standalone="no"?>
<svg xmlns:ffdec="https://www.free-decompiler.com/flash" xmlns:xlink="http://www.w3.org/1999/xlink" ffdec:objectType="shape" height="21.0px" width="31.35px" xmlns="http://www.w3.org/2000/svg">
  <g transform="matrix(1.0, 0.0, 0.0, 1.0, 0.0, 0.0)">
    <path d="M30.85 10.5 Q30.85 14.65 26.4 17.6 21.95 20.5 15.7 20.5 9.4 20.5 4.95 17.6 0.5 14.65 0.5 10.5 0.5 6.35 4.95 3.45 9.4 0.5 15.7 0.5 21.95 0.5 26.4 3.45 30.85 6.35 30.85 10.5" fill="url(#gradient0)" fill-rule="evenodd" stroke="none"/>
    <path d="M30.85 10.5 Q30.85 14.65 26.4 17.6 21.95 20.5 15.7 20.5 9.4 20.5 4.95 17.6 0.5 14.65 0.5 10.5 0.5 6.35 4.95 3.45 9.4 0.5 15.7 0.5 21.95 0.5 26.4 3.45 30.85 6.35 30.85 10.5 Z" fill="none" stroke="#ffbd36" stroke-linecap="butt" stroke-linejoin="miter-clip" stroke-miterlimit="4.0" stroke-width="1.0"/>
  </g>
  <defs>
    <radialGradient cx="0" cy="0" gradientTransform="matrix(0.016, 0.0, 0.0, -0.0104, 15.7, 10.5)" gradientUnits="userSpaceOnUse" id="gradient0" r="819.2" spreadMethod="pad">
      <stop offset="0.0" stop-color="#d91c00" stop-opacity="0.11764706"/>
      <stop offset="0.23137254901960785" stop-color="#d92800" stop-opacity="0.16078432"/>
      <stop offset="0.6470588235294118" stop-color="#d94700" stop-opacity="0.27450982"/>
      <stop offset="1.0" stop-color="#d96600" stop-opacity="0.3882353"/>
    </radialGradient>
  </defs>
</svg>
