<?xml version="1.0" encoding="UTF-8" standalone="no"?>
<svg xmlns:ffdec="https://www.free-decompiler.com/flash" xmlns:xlink="http://www.w3.org/1999/xlink" ffdec:objectType="shape" height="12.2px" width="110.2px" xmlns="http://www.w3.org/2000/svg">
  <g transform="matrix(1.0, 0.0, 0.0, 1.0, 0.5, 0.5)">
    <path d="M11.2 11.2 L0.0 11.2 0.0 0.0 11.2 0.0 11.2 11.2" fill="#003fa8" fill-rule="evenodd" stroke="none"/>
    <path d="M11.2 11.2 L0.0 11.2 0.0 0.0 11.2 0.0 11.2 11.2 Z" fill="none" stroke="#1b58cb" stroke-linecap="round" stroke-linejoin="round" stroke-width="1.0"/>
    <path d="M14.0 11.2 L14.0 0.0 25.2 0.0 25.2 11.2 14.0 11.2" fill="#003fa8" fill-rule="evenodd" stroke="none"/>
    <path d="M14.0 11.2 L14.0 0.0 25.2 0.0 25.2 11.2 14.0 11.2 Z" fill="none" stroke="#1b58cb" stroke-linecap="round" stroke-linejoin="round" stroke-width="1.0"/>
    <path d="M109.2 0.0 L109.2 11.2 98.0 11.2 98.0 0.0 109.2 0.0" fill="#003fa8" fill-rule="evenodd" stroke="none"/>
    <path d="M109.2 0.0 L109.2 11.2 98.0 11.2 98.0 0.0 109.2 0.0 Z" fill="none" stroke="#1b58cb" stroke-linecap="round" stroke-linejoin="round" stroke-width="1.0"/>
    <path d="M95.2 0.0 L95.2 11.2 84.0 11.2 84.0 0.0 95.2 0.0" fill="#003fa8" fill-rule="evenodd" stroke="none"/>
    <path d="M95.2 0.0 L95.2 11.2 84.0 11.2 84.0 0.0 95.2 0.0 Z" fill="none" stroke="#1b58cb" stroke-linecap="round" stroke-linejoin="round" stroke-width="1.0"/>
    <path d="M81.2 11.2 L70.0 11.2 70.0 0.0 81.2 0.0 81.2 11.2" fill="#003fa8" fill-rule="evenodd" stroke="none"/>
    <path d="M81.2 11.2 L70.0 11.2 70.0 0.0 81.2 0.0 81.2 11.2 Z" fill="none" stroke="#1b58cb" stroke-linecap="round" stroke-linejoin="round" stroke-width="1.0"/>
    <path d="M56.0 11.2 L56.0 0.0 67.2 0.0 67.2 11.2 56.0 11.2" fill="#003fa8" fill-rule="evenodd" stroke="none"/>
    <path d="M56.0 11.2 L56.0 0.0 67.2 0.0 67.2 11.2 56.0 11.2 Z" fill="none" stroke="#1b58cb" stroke-linecap="round" stroke-linejoin="round" stroke-width="1.0"/>
    <path d="M53.2 11.2 L42.0 11.2 42.0 0.0 53.2 0.0 53.2 11.2" fill="#003fa8" fill-rule="evenodd" stroke="none"/>
    <path d="M53.2 11.2 L42.0 11.2 42.0 0.0 53.2 0.0 53.2 11.2 Z" fill="none" stroke="#1b58cb" stroke-linecap="round" stroke-linejoin="round" stroke-width="1.0"/>
    <path d="M39.2 0.0 L39.2 11.2 28.0 11.2 28.0 0.0 39.2 0.0" fill="#003fa8" fill-rule="evenodd" stroke="none"/>
    <path d="M39.2 0.0 L39.2 11.2 28.0 11.2 28.0 0.0 39.2 0.0 Z" fill="none" stroke="#1b58cb" stroke-linecap="round" stroke-linejoin="round" stroke-width="1.0"/>
  </g>
</svg>
