<?xml version="1.0" encoding="UTF-8" standalone="no"?>
<svg xmlns:ffdec="https://www.free-decompiler.com/flash" xmlns:xlink="http://www.w3.org/1999/xlink" ffdec:objectType="shape" height="9.3px" width="49.95px" xmlns="http://www.w3.org/2000/svg">
  <g transform="matrix(1.0, 0.0, 0.0, 1.0, -1.95, -1.65)">
    <path d="M10.3 5.3 Q9.3 6.3 8.1 5.8 L5.95 8.2 Q6.35 9.45 5.45 10.35 4.6 11.2 3.35 10.85 L4.35 9.85 Q4.65 9.55 4.05 8.9 3.4 8.35 3.1 8.65 L2.15 9.6 2.05 9.5 Q1.65 8.3 2.55 7.4 3.5 6.45 4.7 6.95 L6.8 4.6 Q6.3 3.25 7.3 2.3 8.15 1.4 9.45 1.75 L8.45 2.8 Q8.1 3.1 8.75 3.75 L8.8 3.8 Q9.4 4.4 9.7 4.05 L10.7 3.05 10.85 3.15 Q11.2 4.45 10.3 5.3" fill="#ffff00" fill-rule="evenodd" stroke="none"/>
    <path d="M23.95 5.3 Q22.95 6.3 21.75 5.8 L19.6 8.2 Q20.0 9.45 19.1 10.35 18.25 11.2 17.0 10.85 L18.0 9.85 Q18.3 9.55 17.7 8.9 17.05 8.35 16.75 8.65 L15.8 9.6 15.7 9.5 Q15.3 8.3 16.2 7.4 17.15 6.45 18.35 6.95 L20.45 4.6 Q19.95 3.25 20.95 2.3 21.8 1.4 23.1 1.75 L22.1 2.8 Q21.75 3.1 22.4 3.75 L22.45 3.8 Q23.05 4.4 23.35 4.05 L24.35 3.05 24.5 3.15 Q24.85 4.45 23.95 5.3" fill="#ffff00" fill-rule="evenodd" stroke="none"/>
    <path d="M37.6 5.3 Q36.6 6.3 35.4 5.8 L33.25 8.2 Q33.65 9.45 32.75 10.35 31.9 11.2 30.65 10.85 L31.65 9.85 Q31.95 9.55 31.35 8.9 30.7 8.35 30.4 8.65 L29.45 9.6 29.35 9.5 Q28.95 8.3 29.85 7.4 30.8 6.45 32.0 6.95 L34.1 4.6 Q33.6 3.25 34.6 2.3 35.45 1.4 36.75 1.75 L35.75 2.8 Q35.4 3.1 36.05 3.75 L36.1 3.8 Q36.7 4.4 37.0 4.05 L38.0 3.05 38.15 3.15 Q38.5 4.45 37.6 5.3" fill="#ffff00" fill-rule="evenodd" stroke="none"/>
    <path d="M51.25 5.3 Q50.25 6.3 49.05 5.8 L46.9 8.2 Q47.3 9.45 46.4 10.35 45.55 11.2 44.3 10.85 L45.3 9.85 Q45.6 9.55 45.0 8.9 44.35 8.35 44.05 8.65 L43.1 9.6 43.0 9.5 Q42.6 8.3 43.5 7.4 44.45 6.45 45.65 6.95 L47.75 4.6 Q47.25 3.25 48.25 2.3 49.1 1.4 50.4 1.75 L49.4 2.8 Q49.05 3.1 49.7 3.75 L49.75 3.8 Q50.35 4.4 50.65 4.05 L51.65 3.05 51.8 3.15 Q52.15 4.45 51.25 5.3" fill="#ffff00" fill-rule="evenodd" stroke="none"/>
  </g>
</svg>
