<?xml version="1.0" encoding="UTF-8" standalone="no"?>
<svg xmlns:ffdec="https://www.free-decompiler.com/flash" xmlns:xlink="http://www.w3.org/1999/xlink" ffdec:objectType="shape" height="20.7px" width="67.8px" xmlns="http://www.w3.org/2000/svg">
  <g transform="matrix(1.0, 0.0, 0.0, 1.0, -3.75, -1.15)">
    <path d="M70.5 2.25 Q71.1 2.95 71.1 3.85 L71.1 19.15 Q71.1 20.1 70.5 20.75 69.8 21.4 68.85 21.4 L6.45 21.4 Q5.5 21.4 4.85 20.75 4.2 20.1 4.2 19.15 L4.2 3.85 Q4.2 2.95 4.85 2.25 5.5 1.6 6.45 1.6 L68.85 1.6 Q69.8 1.6 70.5 2.25" fill="url(#gradient0)" fill-rule="evenodd" stroke="none"/>
    <path d="M68.85 1.15 Q70.0 1.15 70.75 1.95 71.55 2.7 71.55 3.85 L71.55 19.15 Q71.55 20.25 70.75 21.1 70.0 21.85 68.85 21.85 L6.45 21.85 Q5.3 21.85 4.5 21.1 3.75 20.3 3.75 19.15 L3.75 3.85 Q3.75 2.7 4.5 1.95 5.3 1.15 6.45 1.15 L68.85 1.15 M70.1 2.6 Q69.65 2.05 68.85 2.05 L6.45 2.05 Q5.75 2.05 5.2 2.6 4.65 3.15 4.65 3.85 L4.65 19.15 Q4.65 19.9 5.2 20.4 5.75 20.95 6.45 20.95 L68.85 20.95 Q69.65 20.95 70.1 20.4 70.65 19.9 70.65 19.15 L70.65 3.85 Q70.65 3.15 70.1 2.6" fill="#00d8ff" fill-rule="evenodd" stroke="none"/>
    <path d="M69.4 3.25 Q69.95 3.6 69.95 4.05 69.95 4.5 69.4 4.8 L68.15 5.1 7.1 5.1 5.85 4.8 Q5.3 4.5 5.3 4.05 5.3 3.6 5.85 3.25 L7.1 2.95 68.15 2.95 Q68.85 2.95 69.4 3.25" fill="url(#gradient1)" fill-rule="evenodd" stroke="none"/>
  </g>
  <defs>
    <linearGradient gradientTransform="matrix(0.0408, 0.0, 0.0, -0.0408, 37.65, 11.5)" gradientUnits="userSpaceOnUse" id="gradient0" spreadMethod="pad" x1="-819.2" x2="819.2">
      <stop offset="0.0" stop-color="#004fbd"/>
      <stop offset="0.058823529411764705" stop-color="#005bd0"/>
      <stop offset="0.1450980392156863" stop-color="#0069e5"/>
      <stop offset="0.23921568627450981" stop-color="#0073f4"/>
      <stop offset="0.35294117647058826" stop-color="#0078fc"/>
      <stop offset="0.5294117647058824" stop-color="#007aff"/>
      <stop offset="0.6666666666666666" stop-color="#0078fc"/>
      <stop offset="0.7725490196078432" stop-color="#0072f2"/>
      <stop offset="0.8666666666666667" stop-color="#0067e2"/>
      <stop offset="0.9568627450980393" stop-color="#0058ca"/>
      <stop offset="1.0" stop-color="#004fbd"/>
    </linearGradient>
    <linearGradient gradientTransform="matrix(0.0, -0.0013, -0.0013, 0.0, 37.65, 4.05)" gradientUnits="userSpaceOnUse" id="gradient1" spreadMethod="pad" x1="-819.2" x2="819.2">
      <stop offset="0.0" stop-color="#21ffff" stop-opacity="0.2"/>
      <stop offset="1.0" stop-color="#21ffff" stop-opacity="0.29803923"/>
    </linearGradient>
  </defs>
</svg>
