<?xml version="1.0" encoding="UTF-8" standalone="no"?>
<svg xmlns:ffdec="https://www.free-decompiler.com/flash" xmlns:xlink="http://www.w3.org/1999/xlink" ffdec:objectType="shape" height="16.85px" width="79.4px" xmlns="http://www.w3.org/2000/svg">
  <g transform="matrix(1.0, 0.0, 0.0, 1.0, -8.0, -1.05)">
    <path d="M86.4 12.05 L86.4 2.05 12.85 2.05 9.0 5.95 9.0 16.9 81.55 16.9 86.4 12.05 Z" fill="none" stroke="#399cff" stroke-linecap="butt" stroke-linejoin="miter-clip" stroke-miterlimit="4.0" stroke-width="2.0"/>
    <path d="M86.2 11.85 L81.4 16.7 8.8 16.7 8.8 5.75 12.65 1.85 86.2 1.85 86.2 11.85" fill="url(#gradient0)" fill-rule="evenodd" stroke="none"/>
    <path d="M86.4 12.05 L81.55 16.9 9.0 16.9 9.0 5.95 12.85 2.05 23.35 2.7 Q36.05 3.3 47.45 3.3 L86.4 2.05 86.4 12.05" fill="url(#gradient1)" fill-rule="evenodd" stroke="none"/>
    <path d="M86.4 12.05 L86.4 2.05 47.45 3.3 Q36.05 3.3 23.35 2.7 L12.85 2.05 9.0 5.95 9.0 16.9 81.55 16.9 86.4 12.05 Z" fill="none" stroke="#0099ff" stroke-linecap="butt" stroke-linejoin="miter-clip" stroke-miterlimit="4.0" stroke-width="1.0"/>
  </g>
  <defs>
    <linearGradient gradientTransform="matrix(0.0473, 0.0, 0.0, -0.0473, 47.5, 9.3)" gradientUnits="userSpaceOnUse" id="gradient0" spreadMethod="pad" x1="-819.2" x2="819.2">
      <stop offset="0.0" stop-color="#003096"/>
      <stop offset="0.5215686274509804" stop-color="#5cccff"/>
      <stop offset="0.796078431372549" stop-color="#2874c4"/>
      <stop offset="1.0" stop-color="#003096"/>
    </linearGradient>
    <linearGradient gradientTransform="matrix(-0.0475, 0.0, 0.0, 0.0471, 47.7, 9.5)" gradientUnits="userSpaceOnUse" id="gradient1" spreadMethod="pad" x1="-819.2" x2="819.2">
      <stop offset="0.0" stop-color="#004fbd"/>
      <stop offset="0.058823529411764705" stop-color="#005bd0"/>
      <stop offset="0.1450980392156863" stop-color="#0069e5"/>
      <stop offset="0.23921568627450981" stop-color="#0073f4"/>
      <stop offset="0.35294117647058826" stop-color="#0078fc"/>
      <stop offset="0.5294117647058824" stop-color="#007aff"/>
      <stop offset="0.6666666666666666" stop-color="#0078fc"/>
      <stop offset="0.7725490196078432" stop-color="#0072f2"/>
      <stop offset="0.8666666666666667" stop-color="#0067e2"/>
      <stop offset="0.9568627450980393" stop-color="#0058ca"/>
      <stop offset="1.0" stop-color="#004fbd"/>
    </linearGradient>
  </defs>
</svg>
