<?xml version="1.0" encoding="UTF-8" standalone="no"?>
<svg xmlns:ffdec="https://www.free-decompiler.com/flash" xmlns:xlink="http://www.w3.org/1999/xlink" ffdec:objectType="shape" height="21.85px" width="39.45px" xmlns="http://www.w3.org/2000/svg">
  <g transform="matrix(1.0, 0.0, 0.0, 1.0, 0.0, 0.0)">
    <path d="M16.65 1.75 Q5.65 2.8 3.3 8.85 L0.15 8.85 Q1.35 5.4 5.9 2.95 10.45 0.55 16.65 0.0 L16.65 1.75" fill="#009cff" fill-rule="evenodd" stroke="none"/>
    <path d="M36.15 8.85 Q33.85 2.9 23.0 1.75 L23.0 0.0 Q29.2 0.6 33.65 3.0 38.15 5.45 39.35 8.85 L36.15 8.85" fill="#009cff" fill-rule="evenodd" stroke="none"/>
    <path d="M23.0 20.1 Q28.55 19.55 32.0 17.6 35.4 15.65 36.3 12.55 L39.45 12.55 Q38.5 16.1 33.95 18.7 29.4 21.25 23.0 21.85 L23.0 20.1" fill="#009cff" fill-rule="evenodd" stroke="none"/>
    <path d="M3.15 12.55 Q4.1 15.65 7.55 17.6 11.05 19.6 16.65 20.1 L16.65 21.85 Q10.2 21.3 5.55 18.7 0.95 16.15 0.0 12.55 L3.15 12.55" fill="#009cff" fill-rule="evenodd" stroke="none"/>
  </g>
</svg>
