<?xml version="1.0" encoding="UTF-8" standalone="no"?>
<svg xmlns:ffdec="https://www.free-decompiler.com/flash" xmlns:xlink="http://www.w3.org/1999/xlink" ffdec:objectType="shape" height="15.55px" width="28.45px" xmlns="http://www.w3.org/2000/svg">
  <g transform="matrix(1.0, 0.0, 0.0, 1.0, 0.0, 0.0)">
    <path d="M27.95 7.8 Q27.95 10.8 23.95 12.95 19.9 15.05 14.2 15.05 8.55 15.05 4.5 12.95 0.5 10.8 0.5 7.8 0.5 4.75 4.5 2.65 8.55 0.5 14.2 0.5 19.9 0.5 23.95 2.65 27.95 4.75 27.95 7.8" fill="url(#gradient0)" fill-rule="evenodd" stroke="none"/>
    <path d="M27.95 7.8 Q27.95 10.8 23.95 12.95 19.9 15.05 14.2 15.05 8.55 15.05 4.5 12.95 0.5 10.8 0.5 7.8 0.5 4.75 4.5 2.65 8.55 0.5 14.2 0.5 19.9 0.5 23.95 2.65 27.95 4.75 27.95 7.8 Z" fill="none" stroke="#2e8eff" stroke-linecap="butt" stroke-linejoin="miter-clip" stroke-miterlimit="4.0" stroke-width="1.0"/>
  </g>
  <defs>
    <radialGradient cx="0" cy="0" gradientTransform="matrix(0.0145, 0.0, 0.0, -0.0076, 14.2, 7.8)" gradientUnits="userSpaceOnUse" id="gradient0" r="819.2" spreadMethod="pad">
      <stop offset="0.0" stop-color="#00195e" stop-opacity="0.11764706"/>
      <stop offset="0.17647058823529413" stop-color="#00216a" stop-opacity="0.14901961"/>
      <stop offset="0.49019607843137253" stop-color="#003789" stop-opacity="0.22745098"/>
      <stop offset="0.9058823529411765" stop-color="#005abb" stop-opacity="0.35686275"/>
      <stop offset="1.0" stop-color="#0063c7" stop-opacity="0.3882353"/>
    </radialGradient>
  </defs>
</svg>
