<?xml version="1.0" encoding="UTF-8" standalone="no"?>
<svg xmlns:ffdec="https://www.free-decompiler.com/flash" xmlns:xlink="http://www.w3.org/1999/xlink" ffdec:objectType="shape" height="10.9px" width="19.0px" xmlns="http://www.w3.org/2000/svg">
  <g transform="matrix(1.0, 0.0, 0.0, 1.0, 9.6, 5.8)">
    <path d="M4.7 -4.1 L6.3 -2.5 1.95 3.35 -2.65 3.35 -6.75 -2.8 -5.45 -4.1 4.7 -4.1" fill="#001a33" fill-rule="evenodd" stroke="none"/>
    <path d="M4.7 -4.1 L-5.45 -4.1 -6.75 -2.8 -2.65 3.35 1.95 3.35 6.3 -2.5 4.7 -4.1 M6.85 -5.3 L8.75 -3.8 2.85 4.6 -3.4 4.6 -9.0 -3.8 -7.5 -5.3 6.85 -5.3" fill="url(#gradient0)" fill-rule="evenodd" stroke="none"/>
    <path d="M6.85 -5.3 L-7.5 -5.3 -9.0 -3.8 -3.4 4.6 2.85 4.6 8.75 -3.8 6.85 -5.3 Z" fill="none" stroke="#4998f8" stroke-linecap="butt" stroke-linejoin="miter-clip" stroke-miterlimit="4.0" stroke-width="1.0"/>
    <path d="M0.9 -2.9 L2.7 -2.9 0.95 -0.25 2.55 2.2 0.8 2.2 -0.05 0.65 -1.0 2.2 -2.75 2.2 -1.1 -0.25 -2.9 -2.9 -1.1 -2.9 -0.1 -1.25 0.9 -2.9" fill="#fea015" fill-rule="evenodd" stroke="none"/>
  </g>
  <defs>
    <linearGradient gradientTransform="matrix(0.0, 0.006, 0.006, 0.0, -0.1, -0.35)" gradientUnits="userSpaceOnUse" id="gradient0" spreadMethod="pad" x1="-819.2" x2="819.2">
      <stop offset="0.0" stop-color="#012d8f"/>
      <stop offset="0.16470588235294117" stop-color="#0638ac"/>
      <stop offset="0.35294117647058826" stop-color="#0939aa"/>
      <stop offset="0.4980392156862745" stop-color="#0b47d2"/>
      <stop offset="0.6431372549019608" stop-color="#0a3db1"/>
      <stop offset="0.8156862745098039" stop-color="#063ebd"/>
      <stop offset="1.0" stop-color="#012987"/>
    </linearGradient>
  </defs>
</svg>
