<?xml version="1.0" encoding="UTF-8" standalone="no"?>
<svg xmlns:ffdec="https://www.free-decompiler.com/flash" xmlns:xlink="http://www.w3.org/1999/xlink" ffdec:objectType="shape" height="18.55px" width="61.9px" xmlns="http://www.w3.org/2000/svg">
  <g transform="matrix(1.0, 0.0, 0.0, 1.0, 0.0, 0.0)">
    <path d="M61.9 3.0 L61.9 7.45 Q61.9 8.65 61.25 10.2 60.65 11.7 59.75 12.6 L55.85 16.45 Q54.95 17.3 53.45 17.95 51.95 18.55 50.7 18.55 L3.0 18.55 Q1.75 18.55 0.9 17.65 0.0 16.8 0.0 15.55 L0.0 3.0 Q0.0 1.75 0.9 0.9 1.75 0.0 3.0 0.0 L58.9 0.0 Q60.15 0.0 61.0 0.9 61.9 1.75 61.9 3.0" fill="#034689" fill-rule="evenodd" stroke="none"/>
  </g>
</svg>
