<?xml version="1.0" encoding="UTF-8" standalone="no"?>
<svg xmlns:ffdec="https://www.free-decompiler.com/flash" xmlns:xlink="http://www.w3.org/1999/xlink" ffdec:objectType="shape" height="14.0px" width="49.2px" xmlns="http://www.w3.org/2000/svg">
  <g transform="matrix(1.0, 0.0, 0.0, 1.0, -15.1, -81.15)">
    <path d="M61.55 81.65 Q62.5 81.65 63.15 82.3 63.8 82.95 63.8 83.9 L63.8 92.4 Q63.8 93.35 63.15 94.0 62.5 94.65 61.55 94.65 L43.6 94.65 Q42.65 94.65 42.0 94.0 41.35 93.35 41.35 92.4 L41.35 83.9 Q41.35 82.95 42.0 82.3 42.65 81.65 43.6 81.65 L61.55 81.65" fill="#00a4ff" fill-opacity="0.3372549" fill-rule="evenodd" stroke="none"/>
    <path d="M61.55 81.65 Q62.5 81.65 63.15 82.3 63.8 82.95 63.8 83.9 L63.8 92.4 Q63.8 93.35 63.15 94.0 62.5 94.65 61.55 94.65 L43.6 94.65 Q42.65 94.65 42.0 94.0 41.35 93.35 41.35 92.4 L41.35 83.9 Q41.35 82.95 42.0 82.3 42.65 81.65 43.6 81.65 L61.55 81.65 Z" fill="none" stroke="#50f7ff" stroke-linecap="butt" stroke-linejoin="miter-clip" stroke-miterlimit="4.0" stroke-opacity="0.6" stroke-width="1.0"/>
    <path d="M17.75 89.8 L21.9 89.8 21.9 91.9 15.1 91.9 15.1 83.3 17.75 83.3 17.75 89.8 M25.0 83.3 L26.95 89.5 28.85 83.3 31.55 83.3 28.35 91.9 25.5 91.9 22.25 83.3 25.0 83.3 M32.3 91.9 L32.3 89.5 34.85 89.5 34.85 91.9 32.3 91.9" fill="#66c5ff" fill-rule="evenodd" stroke="none"/>
  </g>
</svg>
