<?xml version="1.0" encoding="UTF-8" standalone="no"?>
<svg xmlns:ffdec="https://www.free-decompiler.com/flash" xmlns:xlink="http://www.w3.org/1999/xlink" ffdec:objectType="shape" height="9.9px" width="17.2px" xmlns="http://www.w3.org/2000/svg">
  <g transform="matrix(1.0, 0.0, 0.0, 1.0, 8.7, 5.25)">
    <path d="M4.25 -3.7 L5.65 -2.25 1.75 3.0 -2.4 3.0 -6.05 -2.5 -4.9 -3.7 4.25 -3.7" fill="#001a33" fill-rule="evenodd" stroke="none"/>
    <path d="M4.25 -3.7 L-4.9 -3.7 -6.05 -2.5 -2.4 3.0 1.75 3.0 5.65 -2.25 4.25 -3.7 M6.15 -4.75 L7.85 -3.4 2.55 4.15 -3.05 4.15 -8.1 -3.4 -6.75 -4.75 6.15 -4.75" fill="url(#gradient0)" fill-rule="evenodd" stroke="none"/>
    <path d="M6.15 -4.75 L-6.75 -4.75 -8.1 -3.4 -3.05 4.15 2.55 4.15 7.85 -3.4 6.15 -4.75 Z" fill="none" stroke="#4998f8" stroke-linecap="butt" stroke-linejoin="miter-clip" stroke-miterlimit="4.0" stroke-width="1.0"/>
    <path d="M0.8 -2.6 L2.4 -2.6 0.85 -0.2 2.3 2.0 0.75 2.0 -0.05 0.6 -0.85 2.0 -2.45 2.0 -1.0 -0.2 -2.6 -2.6 -1.0 -2.6 -0.1 -1.1 0.8 -2.6" fill="#fea015" fill-rule="evenodd" stroke="none"/>
  </g>
  <defs>
    <linearGradient gradientTransform="matrix(0.0, 0.0054, 0.0054, 0.0, -0.1, -0.3)" gradientUnits="userSpaceOnUse" id="gradient0" spreadMethod="pad" x1="-819.2" x2="819.2">
      <stop offset="0.0" stop-color="#012d8f"/>
      <stop offset="0.16470588235294117" stop-color="#0638ac"/>
      <stop offset="0.35294117647058826" stop-color="#0939aa"/>
      <stop offset="0.4980392156862745" stop-color="#0b47d2"/>
      <stop offset="0.6431372549019608" stop-color="#0a3db1"/>
      <stop offset="0.8156862745098039" stop-color="#063ebd"/>
      <stop offset="1.0" stop-color="#012987"/>
    </linearGradient>
  </defs>
</svg>
