<?xml version="1.0" encoding="UTF-8" standalone="no"?>
<svg xmlns:ffdec="https://www.free-decompiler.com/flash" xmlns:xlink="http://www.w3.org/1999/xlink" ffdec:objectType="shape" height="73.6px" width="408.15px" xmlns="http://www.w3.org/2000/svg">
  <g transform="matrix(1.0, 0.0, 0.0, 1.0, -16.65, -25.25)">
    <path d="M64.4 92.9 Q64.4 93.85 63.75 94.5 63.1 95.15 62.15 95.15 L44.15 95.15 Q43.2 95.15 42.55 94.5 41.9 93.85 41.9 92.9 L41.9 84.4 Q41.9 83.45 42.55 82.8 43.2 82.15 44.15 82.15 L62.15 82.15 Q63.1 82.15 63.75 82.8 64.4 83.45 64.4 84.4 L64.4 92.9" fill="#00a4ff" fill-opacity="0.3372549" fill-rule="evenodd" stroke="none"/>
    <path d="M64.4 92.9 Q64.4 93.85 63.75 94.5 63.1 95.15 62.15 95.15 L44.15 95.15 Q43.2 95.15 42.55 94.5 41.9 93.85 41.9 92.9 L41.9 84.4 Q41.9 83.45 42.55 82.8 43.2 82.15 44.15 82.15 L62.15 82.15 Q63.1 82.15 63.75 82.8 64.4 83.45 64.4 84.4 L64.4 92.9 Z" fill="none" stroke="#50f7ff" stroke-linecap="butt" stroke-linejoin="miter-clip" stroke-miterlimit="4.0" stroke-opacity="0.6" stroke-width="1.0"/>
    <path d="M16.65 84.15 L19.3 84.15 19.3 90.65 23.45 90.65 23.45 92.75 16.65 92.75 16.65 84.15 M33.1 84.15 L29.9 92.75 27.05 92.75 23.8 84.15 26.55 84.15 28.5 90.35 30.4 84.15 33.1 84.15 M33.85 90.35 L36.4 90.35 36.4 92.75 33.85 92.75 33.85 90.35" fill="#66c5ff" fill-rule="evenodd" stroke="none"/>
    <path d="M420.45 44.85 L335.15 44.85 Q334.0 44.85 333.15 43.85 332.3 42.8 332.3 41.35 L332.3 29.25 Q332.3 27.85 333.15 26.8 334.05 25.75 335.15 25.75 L420.45 25.75 Q421.65 25.75 422.45 26.8 423.3 27.85 423.3 29.25 L423.3 41.35 Q423.3 42.8 422.45 43.85 421.65 44.85 420.45 44.85" fill="url(#gradient0)" fill-rule="evenodd" stroke="none"/>
    <path d="M422.9 41.35 L422.9 29.25 Q422.9 28.0 422.15 27.15 421.45 26.25 420.45 26.25 L335.15 26.25 Q334.15 26.25 333.45 27.15 332.7 28.0 332.7 29.25 L332.7 41.35 Q332.7 42.6 333.45 43.45 334.15 44.35 335.15 44.35 L420.45 44.35 Q421.45 44.35 422.15 43.45 422.9 42.6 422.9 41.35 M423.7 29.25 L423.7 41.35 Q423.7 43.0 422.75 44.2 421.8 45.35 420.45 45.35 L335.15 45.35 Q333.8 45.35 332.9 44.2 331.9 43.0 331.9 41.35 L331.9 29.25 Q331.9 27.6 332.9 26.45 333.8 25.25 335.15 25.25 L420.45 25.25 Q421.8 25.25 422.75 26.45 423.7 27.6 423.7 29.25" fill="#064b84" fill-rule="evenodd" stroke="none"/>
    <path d="M421.55 71.4 L335.45 71.4 Q334.3 71.4 333.45 70.35 332.6 69.35 332.6 67.9 L332.6 55.8 Q332.6 54.35 333.45 53.3 334.25 52.3 335.45 52.3 L421.55 52.3 Q422.7 52.3 423.6 53.3 424.4 54.35 424.4 55.8 L424.4 67.9 Q424.4 69.35 423.6 70.35 422.7 71.4 421.55 71.4" fill="url(#gradient1)" fill-rule="evenodd" stroke="none"/>
    <path d="M423.25 70.0 Q424.0 69.15 424.0 67.9 L424.0 55.8 Q424.0 54.55 423.25 53.7 422.55 52.8 421.55 52.8 L335.45 52.8 Q334.45 52.8 333.75 53.7 333.0 54.55 333.0 55.8 L333.0 67.9 Q333.0 69.15 333.75 70.0 334.45 70.9 335.45 70.9 L421.55 70.9 Q422.55 70.9 423.25 70.0 M423.85 53.0 Q424.8 54.15 424.8 55.8 L424.8 67.9 Q424.8 69.55 423.85 70.75 422.95 71.9 421.55 71.9 L335.45 71.9 Q334.1 71.9 333.15 70.75 332.15 69.55 332.15 67.9 L332.15 55.8 Q332.15 54.15 333.15 53.0 334.1 51.8 335.45 51.8 L421.55 51.8 Q422.95 51.8 423.85 53.0" fill="#064b84" fill-rule="evenodd" stroke="none"/>
    <path d="M142.7 79.25 L226.75 79.25 Q228.0 79.25 228.85 80.25 229.75 81.3 229.75 82.75 L229.75 94.85 Q229.75 96.3 228.85 97.3 228.0 98.35 226.75 98.35 L142.7 98.35 Q141.45 98.35 140.55 97.3 139.7 96.3 139.7 94.85 L139.7 82.75 Q139.7 81.3 140.55 80.25 141.45 79.25 142.7 79.25" fill="url(#gradient2)" fill-rule="evenodd" stroke="none"/>
    <path d="M142.7 79.75 Q141.65 79.75 140.9 80.65 140.15 81.5 140.15 82.75 L140.15 94.85 Q140.15 96.1 140.9 96.95 141.65 97.85 142.7 97.85 L226.75 97.85 Q227.8 97.85 228.55 96.95 229.3 96.1 229.3 94.85 L229.3 82.75 Q229.3 81.5 228.55 80.65 227.8 79.75 226.75 79.75 L142.7 79.75 M139.3 82.75 Q139.3 81.05 140.3 79.9 141.3 78.75 142.7 78.75 L226.75 78.75 Q228.15 78.75 229.2 79.9 230.15 81.05 230.15 82.75 L230.15 94.85 Q230.15 96.5 229.2 97.7 228.15 98.85 226.75 98.85 L142.7 98.85 Q141.3 98.85 140.3 97.7 139.3 96.5 139.3 94.85 L139.3 82.75" fill="#064b84" fill-rule="evenodd" stroke="none"/>
  </g>
  <defs>
    <linearGradient gradientTransform="matrix(0.0, -0.0117, -0.0095, 0.0, 377.8, 35.3)" gradientUnits="userSpaceOnUse" id="gradient0" spreadMethod="pad" x1="-819.2" x2="819.2">
      <stop offset="0.0" stop-color="#001f4a"/>
      <stop offset="0.592156862745098" stop-color="#001e48"/>
      <stop offset="0.8274509803921568" stop-color="#001941"/>
      <stop offset="1.0" stop-color="#001035"/>
    </linearGradient>
    <linearGradient gradientTransform="matrix(0.0, -0.0117, -0.0096, 0.0, 378.5, 61.85)" gradientUnits="userSpaceOnUse" id="gradient1" spreadMethod="pad" x1="-819.2" x2="819.2">
      <stop offset="0.0" stop-color="#001f4a"/>
      <stop offset="0.592156862745098" stop-color="#001e48"/>
      <stop offset="0.8274509803921568" stop-color="#001941"/>
      <stop offset="1.0" stop-color="#001035"/>
    </linearGradient>
    <linearGradient gradientTransform="matrix(0.0, -0.0117, -0.0099, 0.0, 184.7, 88.8)" gradientUnits="userSpaceOnUse" id="gradient2" spreadMethod="pad" x1="-819.2" x2="819.2">
      <stop offset="0.0" stop-color="#001f4a"/>
      <stop offset="0.592156862745098" stop-color="#001e48"/>
      <stop offset="0.8274509803921568" stop-color="#001941"/>
      <stop offset="1.0" stop-color="#001035"/>
    </linearGradient>
  </defs>
</svg>
