<?xml version="1.0" encoding="UTF-8" standalone="no"?>
<svg xmlns:ffdec="https://www.free-decompiler.com/flash" xmlns:xlink="http://www.w3.org/1999/xlink" ffdec:objectType="shape" height="26.25px" width="131.6px" xmlns="http://www.w3.org/2000/svg">
  <g transform="matrix(1.0, 0.0, 0.0, 1.0, 0.0, 0.0)">
    <path d="M5.65 1.0 L125.9 1.0 Q127.75 1.0 129.15 2.2 130.45 3.35 130.45 5.0 L130.45 21.25 Q130.45 22.9 129.15 24.1 127.75 25.25 125.9 25.25 L5.65 25.25 Q3.8 25.25 2.5 24.1 1.1 22.9 1.1 21.25 L1.1 5.0 Q1.1 3.35 2.5 2.2 3.8 1.0 5.65 1.0" fill="url(#gradient0)" fill-rule="evenodd" stroke="none"/>
    <path d="M5.65 2.0 Q4.25 2.0 3.3 2.9 2.25 3.75 2.25 5.0 L2.25 21.25 Q2.25 22.5 3.3 23.35 4.25 24.25 5.65 24.25 L125.9 24.25 Q127.3 24.25 128.25 23.35 129.3 22.5 129.3 21.25 L129.3 5.0 Q129.3 3.75 128.25 2.9 127.3 2.0 125.9 2.0 L5.65 2.0 M0.0 21.25 L0.0 5.0 Q0.0 2.95 1.65 1.45 3.35 0.0 5.65 0.0 L125.9 0.0 Q128.2 0.0 129.95 1.45 131.6 2.95 131.6 5.0 L131.6 21.25 Q131.6 23.3 129.95 24.8 128.2 26.25 125.9 26.25 L5.65 26.25 Q3.35 26.25 1.65 24.8 0.0 23.3 0.0 21.25" fill="#e4a100" fill-rule="evenodd" stroke="none"/>
  </g>
  <defs>
    <linearGradient gradientTransform="matrix(0.0789, 0.0, 0.0, -0.0693, 65.8, 13.15)" gradientUnits="userSpaceOnUse" id="gradient0" spreadMethod="pad" x1="-819.2" x2="819.2">
      <stop offset="0.0" stop-color="#ab5000"/>
      <stop offset="0.5294117647058824" stop-color="#8f3800"/>
      <stop offset="1.0" stop-color="#ab5c00"/>
    </linearGradient>
  </defs>
</svg>
