<?xml version="1.0" encoding="UTF-8" standalone="no"?>
<svg xmlns:ffdec="https://www.free-decompiler.com/flash" xmlns:xlink="http://www.w3.org/1999/xlink" ffdec:objectType="shape" height="23.65px" width="118.45px" xmlns="http://www.w3.org/2000/svg">
  <g transform="matrix(1.0, 0.0, 0.0, 1.0, -6.55, -1.3)">
    <path d="M11.7 2.2 L119.85 2.2 Q121.55 2.2 122.8 3.3 123.95 4.3 123.95 5.8 L123.95 20.45 Q123.95 21.9 122.8 23.0 121.55 24.05 119.85 24.05 L11.7 24.05 Q10.0 24.05 8.8 23.0 7.6 21.9 7.6 20.45 L7.6 5.8 Q7.6 4.3 8.8 3.3 10.0 2.2 11.7 2.2" fill="url(#gradient0)" fill-rule="evenodd" stroke="none"/>
    <path d="M8.05 2.6 Q9.6 1.3 11.7 1.3 L119.85 1.3 Q122.0 1.3 123.5 2.6 125.0 3.95 125.0 5.8 L125.0 20.45 Q125.0 22.3 123.5 23.65 122.0 24.95 119.85 24.95 L11.7 24.95 Q9.6 24.95 8.05 23.65 6.55 22.3 6.55 20.45 L6.55 5.8 Q6.55 3.95 8.05 2.6 M11.7 3.1 Q10.4 3.1 9.55 3.9 8.6 4.7 8.6 5.8 L8.6 20.45 Q8.6 21.55 9.55 22.3 10.4 23.15 11.7 23.15 L119.85 23.15 Q121.15 23.15 122.05 22.3 122.95 21.55 122.95 20.45 L122.95 5.8 Q122.95 4.7 122.05 3.9 121.15 3.1 119.85 3.1 L11.7 3.1" fill="#e4a100" fill-rule="evenodd" stroke="none"/>
  </g>
  <defs>
    <linearGradient gradientTransform="matrix(0.0711, 0.0, 0.0, -0.0624, 65.8, 13.15)" gradientUnits="userSpaceOnUse" id="gradient0" spreadMethod="pad" x1="-819.2" x2="819.2">
      <stop offset="0.0" stop-color="#ab5000"/>
      <stop offset="0.5294117647058824" stop-color="#8f3800"/>
      <stop offset="1.0" stop-color="#ab5c00"/>
    </linearGradient>
  </defs>
</svg>
