<?xml version="1.0" encoding="UTF-8" standalone="no"?>
<svg xmlns:ffdec="https://www.free-decompiler.com/flash" xmlns:xlink="http://www.w3.org/1999/xlink" ffdec:objectType="shape" height="28.3px" width="28.35px" xmlns="http://www.w3.org/2000/svg">
  <g transform="matrix(1.0, 0.0, 0.0, 1.0, 1.0, 1.0)">
    <path d="M26.35 13.15 Q26.35 18.6 22.5 22.45 18.65 26.3 13.15 26.3 7.7 26.3 3.85 22.45 0.0 18.6 0.0 13.15 0.0 7.7 3.85 3.85 7.7 0.0 13.15 0.0 18.6 0.0 22.5 3.85 26.35 7.7 26.35 13.15" fill="#021e7f" fill-rule="evenodd" stroke="none"/>
    <path d="M26.35 13.15 Q26.35 18.6 22.5 22.45 18.65 26.3 13.15 26.3 7.7 26.3 3.85 22.45 0.0 18.6 0.0 13.15 0.0 7.7 3.85 3.85 7.7 0.0 13.15 0.0 18.6 0.0 22.5 3.85 26.35 7.7 26.35 13.15 Z" fill="none" stroke="#065eea" stroke-linecap="butt" stroke-linejoin="miter-clip" stroke-miterlimit="4.0" stroke-width="2.0"/>
    <path d="M13.15 6.1 L16.55 7.15 Q19.45 7.7 20.85 6.85 21.25 8.35 21.25 11.05 21.25 17.5 13.15 22.75 5.05 17.5 5.05 11.05 5.05 8.35 5.45 6.85 6.85 7.7 9.7 7.15 11.55 6.8 13.15 6.1" fill="#0f8cd8" fill-rule="evenodd" stroke="none"/>
    <path d="M13.15 7.1 Q13.8 7.5 15.0 7.85 L17.7 8.2 19.1 8.15 19.35 11.45 Q19.35 17.15 13.15 21.75 6.95 17.15 6.95 11.45 L7.15 8.15 8.5 8.2 Q10.6 8.4 13.15 7.1" fill="#044ba0" fill-rule="evenodd" stroke="none"/>
    <path d="M18.4 11.9 Q18.4 16.75 13.15 20.65 7.85 16.75 7.85 11.9 7.85 9.95 8.0 9.1 L9.2 9.1 Q10.65 9.25 13.15 8.2 15.3 9.3 17.05 9.1 L18.25 9.1 18.4 11.9" fill="#40a9ff" fill-rule="evenodd" stroke="none"/>
    <path d="M17.6 12.3 Q17.6 16.4 13.15 19.7 8.65 16.4 8.65 12.3 8.65 10.65 8.8 9.9 L9.8 9.9 Q11.05 10.0 13.15 9.15 15.1 10.0 16.45 9.9 L17.45 9.9 17.6 12.3" fill="#48f6ff" fill-rule="evenodd" stroke="none"/>
  </g>
</svg>
