<?xml version="1.0" encoding="UTF-8" standalone="no"?>
<svg xmlns:ffdec="https://www.free-decompiler.com/flash" xmlns:xlink="http://www.w3.org/1999/xlink" ffdec:objectType="shape" height="17.2px" width="438.85px" xmlns="http://www.w3.org/2000/svg">
  <g transform="matrix(1.0, 0.0, 0.0, 1.0, 0.5, -0.5)">
    <path d="M437.85 14.2 Q437.85 15.45 436.95 16.3 436.1 17.2 434.85 17.2 L3.0 17.2 Q1.75 17.2 0.9 16.3 0.0 15.45 0.0 14.2 L0.0 4.0 Q0.0 2.75 0.9 1.9 1.75 1.0 3.0 1.0 L434.85 1.0 Q436.1 1.0 436.95 1.9 437.85 2.75 437.85 4.0 L437.85 14.2" fill="url(#gradient0)" fill-rule="evenodd" stroke="none"/>
    <path d="M437.85 14.2 Q437.85 15.45 436.95 16.3 436.1 17.2 434.85 17.2 L3.0 17.2 Q1.75 17.2 0.9 16.3 0.0 15.45 0.0 14.2 L0.0 4.0 Q0.0 2.75 0.9 1.9 1.75 1.0 3.0 1.0 L434.85 1.0 Q436.1 1.0 436.95 1.9 437.85 2.75 437.85 4.0 L437.85 14.2 Z" fill="none" stroke="#29abe2" stroke-linecap="butt" stroke-linejoin="miter-clip" stroke-miterlimit="4.0" stroke-width="1.0"/>
    <path d="M424.85 11.0 L419.3 6.25 430.45 6.25 424.85 11.0" fill="url(#gradient1)" fill-rule="evenodd" stroke="none"/>
  </g>
  <defs>
    <linearGradient gradientTransform="matrix(0.0, -0.0099, -0.0099, 0.0, 218.95, 9.1)" gradientUnits="userSpaceOnUse" id="gradient0" spreadMethod="pad" x1="-819.2" x2="819.2">
      <stop offset="0.0" stop-color="#005289"/>
      <stop offset="0.08235294117647059" stop-color="#003673"/>
      <stop offset="0.2901960784313726" stop-color="#00437d"/>
      <stop offset="1.0" stop-color="#006b9e"/>
    </linearGradient>
    <linearGradient gradientTransform="matrix(0.0, -0.0029, -0.0029, 0.0, 424.85, 8.6)" gradientUnits="userSpaceOnUse" id="gradient1" spreadMethod="pad" x1="-819.2" x2="819.2">
      <stop offset="0.0" stop-color="#00abff"/>
      <stop offset="1.0" stop-color="#29e8ff"/>
    </linearGradient>
  </defs>
</svg>
