<?xml version="1.0" encoding="UTF-8" standalone="no"?>
<svg xmlns:ffdec="https://www.free-decompiler.com/flash" xmlns:xlink="http://www.w3.org/1999/xlink" ffdec:objectType="shape" height="23.0px" width="129.65px" xmlns="http://www.w3.org/2000/svg">
  <g transform="matrix(1.0, 0.0, 0.0, 1.0, 0.0, 0.0)">
    <path d="M118.4 22.5 L10.3 22.5 Q9.35 22.5 8.3 22.0 L6.7 20.75 1.1 13.4 Q0.5 12.6 0.5 11.55 0.5 10.45 1.1 9.65 L6.7 2.3 Q7.25 1.55 8.3 1.05 9.35 0.5 10.3 0.5 L118.4 0.5 Q119.35 0.5 120.4 1.0 121.45 1.5 122.05 2.2 L128.45 9.7 Q129.15 10.45 129.15 11.55 129.15 12.6 128.45 13.35 L122.05 20.85 Q121.45 21.55 120.4 22.05 L118.4 22.5" fill="url(#gradient0)" fill-rule="evenodd" stroke="none"/>
    <path d="M120.2 1.45 Q119.2 1.0 118.4 1.0 L10.3 1.0 Q9.5 1.0 8.55 1.5 L7.05 2.6 1.5 9.95 Q1.0 10.6 1.0 11.55 1.0 12.45 1.5 13.1 L7.05 20.45 8.55 21.55 10.3 22.0 118.4 22.0 120.2 21.55 Q121.15 21.15 121.7 20.5 L128.1 13.05 Q128.65 12.4 128.65 11.55 128.65 10.65 128.1 10.0 L121.7 2.55 120.2 1.45 M120.6 0.55 Q121.75 1.1 122.45 1.9 L128.85 9.35 Q129.65 10.25 129.65 11.55 129.65 12.8 128.85 13.7 L122.45 21.15 120.6 22.45 Q119.45 23.0 118.4 23.0 L10.3 23.0 Q9.2 23.0 8.1 22.45 6.95 21.9 6.3 21.05 L0.7 13.7 Q0.0 12.8 0.0 11.55 0.0 10.25 0.7 9.35 L6.3 2.0 Q6.95 1.15 8.1 0.6 9.25 0.0 10.3 0.0 L118.4 0.0 Q119.45 0.0 120.6 0.55" fill="#29c7e2" fill-rule="evenodd" stroke="none"/>
  </g>
  <defs>
    <linearGradient gradientTransform="matrix(0.0, -0.0134, -0.0134, 0.0, 64.8, 11.5)" gradientUnits="userSpaceOnUse" id="gradient0" spreadMethod="pad" x1="-819.2" x2="819.2">
      <stop offset="0.0" stop-color="#006e89"/>
      <stop offset="0.08235294117647059" stop-color="#005273"/>
      <stop offset="0.2901960784313726" stop-color="#005f7d"/>
      <stop offset="1.0" stop-color="#00879e"/>
    </linearGradient>
  </defs>
</svg>
