<?xml version="1.0" encoding="UTF-8" standalone="no"?>
<svg xmlns:ffdec="https://www.free-decompiler.com/flash" xmlns:xlink="http://www.w3.org/1999/xlink" ffdec:objectType="shape" height="23.0px" width="129.6px" xmlns="http://www.w3.org/2000/svg">
  <g transform="matrix(1.0, 0.0, 0.0, 1.0, 0.0, 0.0)">
    <path d="M120.35 22.0 L118.35 22.5 10.25 22.5 8.25 22.0 Q7.2 21.45 6.65 20.7 L1.05 13.4 Q0.45 12.6 0.45 11.5 0.45 10.4 1.05 9.6 L6.65 2.3 Q7.2 1.55 8.25 1.05 9.3 0.5 10.25 0.5 L118.35 0.5 Q119.3 0.5 120.35 1.0 121.45 1.5 122.05 2.2 L128.45 9.65 Q129.1 10.4 129.1 11.5 129.1 12.55 128.45 13.35 L122.05 20.8 Q121.45 21.5 120.35 22.0" fill="url(#gradient0)" fill-rule="evenodd" stroke="none"/>
    <path d="M120.55 0.55 Q121.75 1.05 122.4 1.85 L128.8 9.35 Q129.6 10.25 129.6 11.5 129.6 12.75 128.8 13.65 L122.4 21.15 120.55 22.45 118.35 23.0 10.25 23.0 Q9.2 23.0 8.05 22.45 6.9 21.85 6.25 21.0 L0.65 13.7 Q0.0 12.75 0.0 11.5 0.0 10.25 0.65 9.3 L6.25 2.0 Q6.9 1.15 8.05 0.55 9.2 0.0 10.25 0.0 L118.35 0.0 Q119.4 0.0 120.55 0.55 M128.6 11.5 Q128.6 10.6 128.05 10.0 L121.65 2.5 120.15 1.45 118.35 1.0 10.25 1.0 Q9.4 1.0 8.5 1.45 7.55 1.95 7.05 2.6 L1.45 9.9 Q0.95 10.6 0.95 11.5 0.95 12.45 1.45 13.1 L7.05 20.4 8.5 21.55 10.25 22.0 118.35 22.0 120.15 21.55 121.65 20.5 128.05 13.0 Q128.6 12.4 128.6 11.5" fill="#00ffff" fill-rule="evenodd" stroke="none"/>
  </g>
  <defs>
    <linearGradient gradientTransform="matrix(0.0, -0.0134, -0.0134, 0.0, 64.8, 11.5)" gradientUnits="userSpaceOnUse" id="gradient0" spreadMethod="pad" x1="-819.2" x2="819.2">
      <stop offset="0.0" stop-color="#006e89"/>
      <stop offset="1.0" stop-color="#00879e"/>
    </linearGradient>
  </defs>
</svg>
