<?xml version="1.0" encoding="UTF-8" standalone="no"?>
<svg xmlns:ffdec="https://www.free-decompiler.com/flash" xmlns:xlink="http://www.w3.org/1999/xlink" ffdec:objectType="shape" height="20.7px" width="116.65px" xmlns="http://www.w3.org/2000/svg">
  <g transform="matrix(1.0, 0.0, 0.0, 1.0, -6.5, -1.15)">
    <path d="M114.8 20.95 L113.0 21.4 15.75 21.4 13.95 20.95 Q13.0 20.45 12.5 19.8 L7.45 13.25 Q6.9 12.5 6.9 11.5 6.9 10.55 7.45 9.8 L12.5 3.25 Q13.0 2.55 13.95 2.1 14.9 1.6 15.75 1.6 L113.0 1.6 Q113.9 1.6 114.8 2.05 L116.35 3.15 122.1 9.85 Q122.7 10.55 122.7 11.5 122.7 12.45 122.1 13.2 L116.35 19.9 114.8 20.95" fill="url(#gradient0)" fill-rule="evenodd" stroke="none"/>
    <path d="M122.25 11.5 Q122.25 10.7 121.75 10.15 L116.0 3.4 114.65 2.45 113.0 2.05 15.75 2.05 Q14.95 2.05 14.15 2.45 13.3 2.9 12.85 3.5 L7.8 10.1 Q7.35 10.7 7.35 11.5 7.35 12.35 7.8 12.95 L12.85 19.55 Q13.3 20.1 14.15 20.55 14.95 20.95 15.75 20.95 L113.0 20.95 114.65 20.55 116.0 19.6 121.75 12.85 Q122.25 12.35 122.25 11.5 M115.0 1.65 Q116.1 2.1 116.65 2.85 L122.45 9.6 Q123.15 10.4 123.15 11.5 123.15 12.65 122.45 13.45 L116.65 20.2 115.0 21.35 113.0 21.85 15.75 21.85 Q14.8 21.85 13.75 21.35 L12.15 20.05 7.1 13.5 Q6.5 12.65 6.5 11.5 6.5 10.4 7.1 9.55 L12.15 2.95 13.75 1.65 Q14.8 1.15 15.75 1.15 L113.0 1.15 Q113.95 1.15 115.0 1.65" fill="#00ffff" fill-rule="evenodd" stroke="none"/>
  </g>
  <defs>
    <linearGradient gradientTransform="matrix(0.0, -0.0121, -0.0121, 0.0, 64.85, 11.5)" gradientUnits="userSpaceOnUse" id="gradient0" spreadMethod="pad" x1="-819.2" x2="819.2">
      <stop offset="0.0" stop-color="#006e89"/>
      <stop offset="1.0" stop-color="#00879e"/>
    </linearGradient>
  </defs>
</svg>
