<?xml version="1.0" encoding="UTF-8" standalone="no"?>
<svg xmlns:ffdec="https://www.free-decompiler.com/flash" xmlns:xlink="http://www.w3.org/1999/xlink" ffdec:objectType="shape" height="66.7px" width="438.85px" xmlns="http://www.w3.org/2000/svg">
  <g transform="matrix(1.0, 0.0, 0.0, 1.0, 0.0, 0.0)">
    <path d="M438.35 3.5 L438.35 63.2 Q438.35 64.45 437.45 65.3 436.6 66.2 435.35 66.2 L3.5 66.2 Q2.25 66.2 1.4 65.3 0.5 64.45 0.5 63.2 L0.5 3.5 Q0.5 2.25 1.4 1.4 2.25 0.5 3.5 0.5 L435.35 0.5 Q436.6 0.5 437.45 1.4 438.35 2.25 438.35 3.5" fill="url(#gradient0)" fill-rule="evenodd" stroke="none"/>
    <path d="M438.35 3.5 L438.35 63.2 Q438.35 64.45 437.45 65.3 436.6 66.2 435.35 66.2 L3.5 66.2 Q2.25 66.2 1.4 65.3 0.5 64.45 0.5 63.2 L0.5 3.5 Q0.5 2.25 1.4 1.4 2.25 0.5 3.5 0.5 L435.35 0.5 Q436.6 0.5 437.45 1.4 438.35 2.25 438.35 3.5 Z" fill="none" stroke="#29abe2" stroke-linecap="butt" stroke-linejoin="miter-clip" stroke-miterlimit="4.0" stroke-width="1.0"/>
  </g>
  <defs>
    <linearGradient gradientTransform="matrix(0.0, -0.0401, -0.0401, 0.0, 219.45, 33.35)" gradientUnits="userSpaceOnUse" id="gradient0" spreadMethod="pad" x1="-819.2" x2="819.2">
      <stop offset="0.0" stop-color="#005289"/>
      <stop offset="0.08235294117647059" stop-color="#003673"/>
      <stop offset="0.2901960784313726" stop-color="#00437d"/>
      <stop offset="1.0" stop-color="#006b9e"/>
    </linearGradient>
  </defs>
</svg>
