<?xml version="1.0" encoding="UTF-8" standalone="no"?>
<svg xmlns:ffdec="https://www.free-decompiler.com/flash" xmlns:xlink="http://www.w3.org/1999/xlink" ffdec:objectType="shape" height="31.2px" width="148.35px" xmlns="http://www.w3.org/2000/svg">
  <g transform="matrix(1.0, 0.0, 0.0, 1.0, 0.6, 0.6)">
    <path d="M136.8 29.35 L134.05 30.0 3.0 30.0 Q1.75 30.0 0.9 29.05 0.0 28.15 0.0 26.8 L0.0 3.25 Q0.0 1.9 0.9 1.0 1.75 0.0 3.0 0.0 L144.15 0.0 Q145.4 0.0 146.25 1.0 147.15 1.9 147.15 3.25 L147.15 17.15 Q147.15 18.5 146.5 20.05 145.85 21.65 144.9 22.5 L139.3 27.85 Q138.4 28.8 136.8 29.35" fill="url(#gradient0)" fill-rule="evenodd" stroke="none"/>
    <path d="M136.8 29.35 Q138.4 28.8 139.3 27.85 L144.9 22.5 Q145.85 21.65 146.5 20.05 147.15 18.5 147.15 17.15 L147.15 3.25 Q147.15 1.9 146.25 1.0 145.4 0.0 144.15 0.0 L3.0 0.0 Q1.75 0.0 0.9 1.0 0.0 1.9 0.0 3.25 L0.0 26.8 Q0.0 28.15 0.9 29.05 1.75 30.0 3.0 30.0 L134.05 30.0 136.8 29.35 Z" fill="none" stroke="#29abe2" stroke-linecap="butt" stroke-linejoin="miter-clip" stroke-miterlimit="4.0" stroke-width="1.2000000000000002"/>
  </g>
  <defs>
    <linearGradient gradientTransform="matrix(0.0918, 0.0, 0.0, -0.1306, 73.8, 16.0)" gradientUnits="userSpaceOnUse" id="gradient0" spreadMethod="pad" x1="-819.2" x2="819.2">
      <stop offset="0.00392156862745098" stop-color="#002f73"/>
      <stop offset="0.00784313725490196" stop-color="#002f73"/>
      <stop offset="0.1607843137254902" stop-color="#00429a"/>
      <stop offset="0.30196078431372547" stop-color="#004fb5"/>
      <stop offset="0.42745098039215684" stop-color="#0057c6"/>
      <stop offset="0.5215686274509804" stop-color="#005acc"/>
      <stop offset="0.6078431372549019" stop-color="#0057c6"/>
      <stop offset="0.7215686274509804" stop-color="#0050b7"/>
      <stop offset="0.8470588235294118" stop-color="#00439d"/>
      <stop offset="0.9803921568627451" stop-color="#003278"/>
      <stop offset="1.0" stop-color="#002f73"/>
    </linearGradient>
  </defs>
</svg>
