<?xml version="1.0" encoding="UTF-8" standalone="no"?>
<svg xmlns:ffdec="https://www.free-decompiler.com/flash" xmlns:xlink="http://www.w3.org/1999/xlink" ffdec:objectType="shape" height="16.05px" width="16.1px" xmlns="http://www.w3.org/2000/svg">
  <g transform="matrix(1.0, 0.0, 0.0, 1.0, -9.85, -9.75)">
    <path d="M17.9 25.8 Q14.55 25.8 12.2 23.45 9.85 21.1 9.85 17.75 9.85 14.45 12.2 12.1 14.55 9.75 17.9 9.75 21.2 9.75 23.6 12.1 25.95 14.45 25.95 17.75 25.95 21.1 23.6 23.45 21.2 25.8 17.9 25.8" fill="#003c40" fill-rule="evenodd" stroke="none"/>
    <path d="M25.2 17.75 Q25.2 20.8 23.05 22.95 20.95 25.1 17.9 25.1 14.85 25.1 12.7 22.95 10.55 20.8 10.55 17.75 10.55 14.7 12.7 12.6 14.85 10.45 17.9 10.45 20.95 10.45 23.05 12.6 25.2 14.7 25.2 17.75" fill="url(#gradient0)" fill-rule="evenodd" stroke="none"/>
    <path d="M10.65 16.7 L14.45 16.7 Q14.8 15.6 15.75 14.9 16.7 14.15 17.9 14.15 19.1 14.15 20.1 14.9 21.0 15.6 21.35 16.7 L25.15 16.7 25.15 18.8 21.35 18.8 Q21.0 19.95 20.1 20.65 19.15 21.35 17.9 21.35 16.7 21.35 15.75 20.65 14.8 19.95 14.45 18.8 L10.65 18.8 10.55 17.75 10.65 16.7" fill="url(#gradient1)" fill-rule="evenodd" stroke="none"/>
    <path d="M25.2 17.1 L25.2 18.4 10.6 18.4 10.55 17.75 10.6 17.1 25.2 17.1" fill="#00565c" fill-rule="evenodd" stroke="none"/>
    <path d="M21.0 17.75 Q21.0 19.05 20.1 19.95 19.2 20.85 17.9 20.85 16.6 20.85 15.7 19.95 14.8 19.05 14.8 17.75 14.8 16.5 15.7 15.55 16.65 14.65 17.9 14.65 19.2 14.65 20.1 15.55 21.0 16.5 21.0 17.75" fill="#00565c" fill-rule="evenodd" stroke="none"/>
    <path d="M20.5 17.75 Q20.5 18.85 19.75 19.6 18.95 20.35 17.9 20.35 16.8 20.35 16.05 19.6 15.3 18.85 15.3 17.75 15.3 16.7 16.05 15.95 16.8 15.2 17.9 15.2 18.95 15.2 19.75 15.95 20.5 16.7 20.5 17.75" fill="url(#gradient2)" fill-rule="evenodd" stroke="none"/>
    <path d="M18.05 16.8 Q18.05 17.5 17.35 17.5 17.05 17.5 16.85 17.3 L16.6 16.8 Q16.6 16.1 17.35 16.1 18.05 16.1 18.05 16.8" fill="#ffffff" fill-rule="evenodd" stroke="none"/>
  </g>
  <defs>
    <radialGradient cx="0" cy="0" gradientTransform="matrix(0.0115, 0.0, 0.0, -0.0115, 16.4, 15.75)" gradientUnits="userSpaceOnUse" id="gradient0" r="819.2" spreadMethod="pad">
      <stop offset="0.0" stop-color="#f3fadf"/>
      <stop offset="0.19215686274509805" stop-color="#dafacb"/>
      <stop offset="0.5098039215686274" stop-color="#7ccc68"/>
      <stop offset="0.5803921568627451" stop-color="#5fb766"/>
      <stop offset="0.6784313725490196" stop-color="#3c9d63"/>
      <stop offset="0.7607843137254902" stop-color="#268d62"/>
      <stop offset="0.8117647058823529" stop-color="#1e8761"/>
      <stop offset="1.0" stop-color="#75cce6"/>
    </radialGradient>
    <linearGradient gradientTransform="matrix(-0.0041, -0.0035, -0.0035, 0.0041, 18.7, 18.45)" gradientUnits="userSpaceOnUse" id="gradient1" spreadMethod="pad" x1="-819.2" x2="819.2">
      <stop offset="0.0" stop-color="#7ccc68"/>
      <stop offset="0.25882352941176473" stop-color="#9cdc8a"/>
      <stop offset="0.5725490196078431" stop-color="#beecad"/>
      <stop offset="0.8313725490196079" stop-color="#d2f6c3"/>
      <stop offset="1.0" stop-color="#dafacb"/>
    </linearGradient>
    <radialGradient cx="0" cy="0" gradientTransform="matrix(0.0041, 0.0, 0.0, -0.0041, 17.65, 17.0)" gradientUnits="userSpaceOnUse" id="gradient2" r="819.2" spreadMethod="pad">
      <stop offset="0.0" stop-color="#e8e8e8"/>
      <stop offset="0.7137254901960784" stop-color="#696969"/>
      <stop offset="1.0" stop-color="#999999"/>
    </radialGradient>
  </defs>
</svg>
