<?xml version="1.0" encoding="UTF-8" standalone="no"?>
<svg xmlns:ffdec="https://www.free-decompiler.com/flash" xmlns:xlink="http://www.w3.org/1999/xlink" ffdec:objectType="shape" height="16.05px" width="22.75px" xmlns="http://www.w3.org/2000/svg">
  <g transform="matrix(1.0, 0.0, 0.0, 1.0, 0.0, 0.0)">
    <path d="M20.7 13.3 L18.25 12.15 Q17.15 13.95 15.35 15.0 13.5 16.05 11.35 16.05 9.25 16.05 7.4 15.0 5.6 13.95 4.5 12.15 L2.05 13.3 1.75 13.4 Q1.35 13.4 1.1 13.0 0.0 10.75 0.0 8.0 0.0 5.3 1.1 3.05 1.35 2.65 1.75 2.65 L2.05 2.7 4.5 3.9 Q5.6 2.05 7.4 1.05 9.2 0.0 11.35 0.0 13.5 0.0 15.35 1.05 17.15 2.05 18.25 3.9 L20.7 2.7 21.0 2.65 Q21.45 2.65 21.6 3.05 22.75 5.3 22.75 8.0 22.75 10.75 21.6 13.0 L21.0 13.4 20.7 13.3" fill="#000000" fill-rule="evenodd" stroke="none"/>
  </g>
</svg>
