<?xml version="1.0" encoding="UTF-8" standalone="no"?>
<svg xmlns:ffdec="https://www.free-decompiler.com/flash" xmlns:xlink="http://www.w3.org/1999/xlink" ffdec:objectType="shape" height="23.35px" width="25.65px" xmlns="http://www.w3.org/2000/svg">
  <g transform="matrix(1.0, 0.0, 0.0, 1.0, 0.0, 0.0)">
    <path d="M21.25 23.35 Q20.05 23.35 19.0 22.75 17.95 22.1 17.4 21.05 16.95 20.25 16.85 19.1 15.15 17.75 12.85 17.75 10.6 17.75 8.75 19.2 8.7 20.9 7.4 22.15 6.15 23.35 4.4 23.35 2.45 23.25 1.25 22.0 0.0 20.75 0.0 18.85 0.05 17.1 1.35 15.85 2.65 14.6 4.4 14.6 5.55 14.6 6.4 15.1 8.55 14.25 9.7 12.25 10.8 10.4 10.5 8.1 8.95 7.15 8.55 5.4 8.1 3.7 9.05 2.1 10.35 0.0 12.8 0.0 14.1 0.0 15.05 0.65 16.6 1.6 17.05 3.35 17.5 5.1 16.55 6.65 L15.25 8.0 Q14.85 10.35 16.0 12.25 17.1 14.2 19.25 15.05 20.25 14.55 21.2 14.55 22.4 14.55 23.45 15.2 24.5 15.8 25.05 16.85 25.95 18.4 25.45 20.2 24.95 21.95 23.35 22.8 22.35 23.35 21.25 23.35" fill="#000000" fill-rule="evenodd" stroke="none"/>
  </g>
</svg>
