<?xml version="1.0" encoding="UTF-8" standalone="no"?>
<svg xmlns:ffdec="https://www.free-decompiler.com/flash" xmlns:xlink="http://www.w3.org/1999/xlink" ffdec:objectType="shape" height="23.35px" width="25.65px" xmlns="http://www.w3.org/2000/svg">
  <g transform="matrix(1.0, 0.0, 0.0, 1.0, -4.95, -4.15)">
    <path d="M17.75 4.15 Q19.05 4.15 20.0 4.8 21.55 5.75 22.0 7.5 22.45 9.25 21.5 10.8 L20.2 12.15 Q19.8 14.5 20.95 16.4 22.05 18.35 24.2 19.2 25.2 18.7 26.15 18.7 27.35 18.7 28.4 19.35 29.45 19.95 30.0 21.0 30.9 22.55 30.4 24.35 29.9 26.1 28.3 26.95 27.3 27.5 26.2 27.5 25.0 27.5 23.95 26.9 22.9 26.25 22.35 25.2 21.9 24.4 21.8 23.25 20.1 21.9 17.8 21.9 15.55 21.9 13.7 23.35 13.65 25.05 12.35 26.3 11.1 27.5 9.35 27.5 7.4 27.4 6.2 26.15 4.95 24.9 4.95 23.0 5.0 21.25 6.3 20.0 7.6 18.75 9.35 18.75 10.45 18.75 11.35 19.2 13.45 18.45 14.65 16.4 15.75 14.55 15.45 12.25 13.9 11.3 13.5 9.55 13.05 7.85 14.0 6.25 15.3 4.15 17.75 4.15" fill="#003c40" fill-rule="evenodd" stroke="none"/>
    <path d="M13.05 23.2 Q13.0 24.7 11.9 25.75 10.8 26.85 9.25 26.8 7.75 26.75 6.7 25.65 5.6 24.55 5.65 23.0 5.7 21.5 6.8 20.45 7.9 19.4 9.45 19.45 10.95 19.45 12.0 20.55 13.05 21.65 13.05 23.2" fill="url(#gradient0)" fill-rule="evenodd" stroke="none"/>
    <path d="M24.4 19.9 Q25.75 19.15 27.2 19.6 28.65 20.0 29.4 21.35 30.15 22.65 29.75 24.15 29.3 25.6 27.95 26.35 26.6 27.05 25.15 26.65 23.65 26.2 22.95 24.85 22.2 23.55 22.65 22.1 23.05 20.6 24.4 19.9" fill="url(#gradient1)" fill-rule="evenodd" stroke="none"/>
    <path d="M15.85 11.65 Q14.55 10.85 14.2 9.4 13.8 7.9 14.6 6.6 15.4 5.3 16.85 4.95 18.35 4.6 19.65 5.4 20.95 6.2 21.35 7.65 21.7 9.15 20.9 10.45 20.1 11.75 18.6 12.1 17.15 12.45 15.85 11.65" fill="url(#gradient2)" fill-rule="evenodd" stroke="none"/>
    <path d="M9.6 21.7 L9.3 22.4 8.55 22.7 Q8.15 22.65 7.85 22.35 7.55 22.05 7.55 21.65 7.55 21.25 7.85 20.95 L8.6 20.7 9.3 21.0 9.6 21.7" fill="#ffffff" fill-rule="evenodd" stroke="none"/>
    <path d="M26.7 21.9 L26.4 22.6 25.65 22.85 24.9 22.55 Q24.6 22.25 24.6 21.85 24.7 20.85 25.7 20.85 26.1 20.9 26.4 21.2 L26.7 21.9" fill="#ffffff" fill-rule="evenodd" stroke="none"/>
    <path d="M17.8 7.2 L17.5 7.9 16.75 8.15 Q16.3 8.15 16.0 7.85 15.7 7.55 15.7 7.15 15.75 6.75 16.05 6.45 16.35 6.15 16.8 6.2 17.2 6.2 17.5 6.5 L17.8 7.2" fill="#ffffff" fill-rule="evenodd" stroke="none"/>
    <path d="M25.25 20.25 Q24.75 22.2 23.3 23.7 L22.9 24.05 22.55 23.7 Q22.35 22.55 22.85 21.5 23.35 20.45 24.4 19.9 L25.0 19.6 25.4 19.75 25.25 20.25" fill="#186e4f" fill-rule="evenodd" stroke="none"/>
    <path d="M19.8 10.8 L20.3 10.9 20.25 11.25 Q19.35 12.05 18.15 12.2 16.9 12.3 15.85 11.65 L15.45 11.4 15.3 10.9 15.85 10.8 17.8 10.5 19.8 10.8" fill="#186e4f" fill-rule="evenodd" stroke="none"/>
    <path d="M10.55 19.65 Q11.7 20.05 12.35 21.0 13.05 21.95 13.05 23.2 L12.95 23.85 12.7 24.05 12.35 23.7 Q10.9 22.25 10.35 20.25 L10.2 19.75 10.55 19.65" fill="#186e4f" fill-rule="evenodd" stroke="none"/>
    <path d="M15.25 16.75 Q16.75 14.2 15.95 11.3 L17.8 11.05 19.65 11.3 Q18.85 14.2 20.35 16.75 21.85 19.35 24.7 20.1 24.3 21.85 22.9 23.3 20.8 21.2 17.8 21.2 14.8 21.2 12.7 23.3 11.3 21.85 10.9 20.1 13.75 19.35 15.25 16.75" fill="url(#gradient3)" fill-rule="evenodd" stroke="none"/>
    <path d="M20.05 17.1 Q18.65 14.45 19.25 11.6 L17.8 11.4 16.35 11.6 Q17.0 14.55 15.55 17.1 14.05 19.75 11.35 20.55 11.8 22.05 12.8 23.2 L12.7 23.3 Q11.3 21.85 10.9 20.1 13.75 19.35 15.25 16.75 16.75 14.2 15.95 11.3 L17.8 11.05 19.65 11.3 Q18.85 14.2 20.35 16.75 21.85 19.35 24.7 20.1 24.3 21.85 22.9 23.3 L22.8 23.2 Q23.8 22.05 24.25 20.55 21.55 19.75 20.05 17.1" fill="#f2f2f2" fill-rule="evenodd" stroke="none"/>
  </g>
  <defs>
    <radialGradient cx="0" cy="0" gradientTransform="matrix(0.0059, 1.0E-4, 1.0E-4, -0.0059, 9.0, 22.05)" gradientUnits="userSpaceOnUse" id="gradient0" r="819.2" spreadMethod="pad">
      <stop offset="0.0" stop-color="#f3fadf"/>
      <stop offset="0.19215686274509805" stop-color="#dafacb"/>
      <stop offset="0.5098039215686274" stop-color="#7ccc68"/>
      <stop offset="0.5803921568627451" stop-color="#5fb766"/>
      <stop offset="0.6784313725490196" stop-color="#3c9d63"/>
      <stop offset="0.7607843137254902" stop-color="#268d62"/>
      <stop offset="0.8117647058823529" stop-color="#1e8761"/>
      <stop offset="1.0" stop-color="#75cce6"/>
    </radialGradient>
    <radialGradient cx="0" cy="0" gradientTransform="matrix(-0.0028, -0.0052, -0.0052, 0.0028, 25.3, 22.1)" gradientUnits="userSpaceOnUse" id="gradient1" r="819.2" spreadMethod="pad">
      <stop offset="0.0" stop-color="#f3fadf"/>
      <stop offset="0.19215686274509805" stop-color="#dafacb"/>
      <stop offset="0.5098039215686274" stop-color="#7ccc68"/>
      <stop offset="0.5803921568627451" stop-color="#5fb766"/>
      <stop offset="0.6784313725490196" stop-color="#3c9d63"/>
      <stop offset="0.7607843137254902" stop-color="#268d62"/>
      <stop offset="0.8117647058823529" stop-color="#1e8761"/>
      <stop offset="1.0" stop-color="#75cce6"/>
    </radialGradient>
    <radialGradient cx="0" cy="0" gradientTransform="matrix(-0.0031, 0.0051, 0.0051, 0.0031, 17.0, 7.65)" gradientUnits="userSpaceOnUse" id="gradient2" r="819.2" spreadMethod="pad">
      <stop offset="0.0" stop-color="#f3fadf"/>
      <stop offset="0.19215686274509805" stop-color="#dafacb"/>
      <stop offset="0.5098039215686274" stop-color="#7ccc68"/>
      <stop offset="0.5803921568627451" stop-color="#5fb766"/>
      <stop offset="0.6784313725490196" stop-color="#3c9d63"/>
      <stop offset="0.7607843137254902" stop-color="#268d62"/>
      <stop offset="0.8117647058823529" stop-color="#1e8761"/>
      <stop offset="1.0" stop-color="#75cce6"/>
    </radialGradient>
    <radialGradient cx="0" cy="0" gradientTransform="matrix(0.0091, 0.0, 0.0, -0.0091, 17.65, 18.25)" gradientUnits="userSpaceOnUse" id="gradient3" r="819.2" spreadMethod="pad">
      <stop offset="0.0" stop-color="#ffffff"/>
      <stop offset="0.36470588235294116" stop-color="#e8e8e8"/>
      <stop offset="0.8313725490196079" stop-color="#858585"/>
      <stop offset="1.0" stop-color="#d4d4d4"/>
    </radialGradient>
  </defs>
</svg>
