<?xml version="1.0" encoding="UTF-8" standalone="no"?>
<svg xmlns:ffdec="https://www.free-decompiler.com/flash" xmlns:xlink="http://www.w3.org/1999/xlink" ffdec:objectType="shape" height="23.8px" width="25.45px" xmlns="http://www.w3.org/2000/svg">
  <g transform="matrix(1.0, 0.0, 0.0, 1.0, 0.0, 0.0)">
    <path d="M22.1 22.9 Q20.7 23.7 19.0 23.7 17.25 23.7 15.7 22.8 14.15 21.9 13.3 20.35 L12.75 18.95 Q12.2 21.05 10.45 22.45 8.7 23.8 6.5 23.8 L6.35 23.8 Q3.7 23.75 1.85 21.8 -0.05 19.85 0.0 17.2 0.1 14.6 2.0 12.75 3.85 10.9 6.5 10.9 L6.65 10.9 8.15 11.1 Q6.75 9.7 6.4 8.0 5.7 5.5 7.15 3.1 8.0 1.65 9.5 0.8 10.95 0.0 12.65 0.0 14.4 0.0 16.0 0.95 18.35 2.35 18.95 4.95 19.6 7.55 18.2 9.85 L17.25 11.05 19.0 10.8 Q20.75 10.8 22.3 11.7 23.8 12.6 24.65 14.15 25.9 16.4 25.2 19.05 24.4 21.65 22.1 22.9" fill="#000000" fill-rule="evenodd" stroke="none"/>
  </g>
</svg>
