<?xml version="1.0" encoding="UTF-8" standalone="no"?>
<svg xmlns:ffdec="https://www.free-decompiler.com/flash" xmlns:xlink="http://www.w3.org/1999/xlink" ffdec:objectType="shape" height="27.0px" width="133.2px" xmlns="http://www.w3.org/2000/svg">
  <g transform="matrix(1.0, 0.0, 0.0, 1.0, -7.4, -1.5)">
    <path d="M137.85 1.5 Q139.0 1.5 139.85 2.3 140.6 3.05 140.6 4.2 L140.6 17.7 140.15 19.7 138.95 21.4 132.55 27.05 Q131.85 27.7 130.75 28.1 L128.7 28.5 10.15 28.5 Q9.0 28.5 8.2 27.7 7.4 26.9 7.4 25.8 L7.4 4.2 Q7.4 3.05 8.2 2.3 9.0 1.5 10.15 1.5 L137.85 1.5 M139.7 4.2 Q139.7 3.5 139.1 2.95 138.6 2.4 137.85 2.4 L10.15 2.4 Q9.4 2.4 8.9 2.95 8.3 3.5 8.3 4.2 L8.3 25.8 Q8.3 26.55 8.9 27.05 9.4 27.6 10.15 27.6 L128.7 27.6 130.4 27.25 131.9 26.4 138.35 20.7 139.3 19.3 Q139.7 18.45 139.7 17.7 L139.7 4.2" fill="url(#gradient0)" fill-rule="evenodd" stroke="none"/>
    <path d="M139.7 4.2 L139.7 17.7 Q139.7 18.45 139.3 19.3 L138.35 20.7 131.9 26.4 130.4 27.25 128.7 27.6 10.15 27.6 Q9.4 27.6 8.9 27.05 8.3 26.55 8.3 25.8 L8.3 4.2 Q8.3 3.5 8.9 2.95 9.4 2.4 10.15 2.4 L137.85 2.4 Q138.6 2.4 139.1 2.95 139.7 3.5 139.7 4.2" fill="url(#gradient1)" fill-rule="evenodd" stroke="none"/>
  </g>
  <defs>
    <linearGradient gradientTransform="matrix(0.0826, 0.0, 0.0, -0.1175, 73.8, 15.9)" gradientUnits="userSpaceOnUse" id="gradient0" spreadMethod="pad" x1="-819.2" x2="819.2">
      <stop offset="0.00392156862745098" stop-color="#002f73"/>
      <stop offset="0.00784313725490196" stop-color="#002f73"/>
      <stop offset="0.1607843137254902" stop-color="#00429a"/>
      <stop offset="0.30196078431372547" stop-color="#004fb5"/>
      <stop offset="0.42745098039215684" stop-color="#0057c6"/>
      <stop offset="0.5215686274509804" stop-color="#005acc"/>
      <stop offset="0.6078431372549019" stop-color="#0057c6"/>
      <stop offset="0.7215686274509804" stop-color="#0050b7"/>
      <stop offset="0.8470588235294118" stop-color="#00439d"/>
      <stop offset="0.9803921568627451" stop-color="#003278"/>
      <stop offset="1.0" stop-color="#002f73"/>
    </linearGradient>
    <linearGradient gradientTransform="matrix(0.1046, 0.0, 0.0, -0.1102, 73.1, 16.35)" gradientUnits="userSpaceOnUse" id="gradient1" spreadMethod="pad" x1="-819.2" x2="819.2">
      <stop offset="0.00392156862745098" stop-color="#002f73"/>
      <stop offset="0.00784313725490196" stop-color="#002f73"/>
      <stop offset="0.1568627450980392" stop-color="#0157ab"/>
      <stop offset="0.5019607843137255" stop-color="#026fdb"/>
      <stop offset="0.8470588235294118" stop-color="#0156a9"/>
      <stop offset="0.9803921568627451" stop-color="#003278"/>
      <stop offset="1.0" stop-color="#002f73"/>
    </linearGradient>
  </defs>
</svg>
