<?xml version="1.0" encoding="UTF-8" standalone="no"?>
<svg xmlns:ffdec="https://www.free-decompiler.com/flash" xmlns:xlink="http://www.w3.org/1999/xlink" ffdec:objectType="shape" height="28.45px" width="29.35px" xmlns="http://www.w3.org/2000/svg">
  <g transform="matrix(1.0, 0.0, 0.0, 1.0, -3.1, -4.5)">
    <path d="M31.55 17.0 L27.5 16.25 Q28.95 17.15 29.75 18.65 31.0 21.0 30.25 23.55 29.55 26.1 27.15 27.4 25.65 28.2 24.05 28.2 22.4 28.2 20.9 27.4 22.2 29.35 23.65 30.7 23.95 30.9 23.85 31.35 L23.45 31.85 Q20.8 32.95 17.8 32.95 14.8 32.95 12.15 31.85 L11.7 31.35 Q11.65 31.0 11.9 30.7 L14.6 27.55 Q13.0 28.3 11.55 28.3 L11.4 28.3 Q8.75 28.25 6.9 26.3 5.05 24.35 5.1 21.7 5.15 20.0 6.05 18.55 6.9 17.1 8.3 16.25 6.25 16.3 4.0 17.0 L3.8 17.0 3.35 16.85 3.1 16.25 Q3.95 10.15 8.8 6.45 8.95 6.3 9.2 6.3 L9.45 6.35 9.9 6.8 Q10.45 9.05 11.3 10.7 11.4 9.0 12.2 7.6 14.1 4.5 17.75 4.5 19.65 4.5 21.1 5.45 22.55 6.3 23.35 7.8 24.15 9.2 24.2 10.85 25.25 8.75 25.7 6.8 25.8 6.4 26.15 6.35 L26.35 6.3 26.8 6.45 Q31.65 10.15 32.45 16.25 L32.2 16.85 31.75 17.0 31.55 17.0" fill="#003c40" fill-rule="evenodd" stroke="none"/>
    <path d="M17.35 21.95 Q17.3 24.35 15.55 26.0 13.8 27.65 11.45 27.6 9.05 27.55 7.4 25.8 5.75 24.1 5.8 21.7 5.85 19.3 7.55 17.65 9.3 16.0 11.7 16.05 14.05 16.15 15.75 17.85 17.4 19.55 17.35 21.95" fill="url(#gradient0)" fill-rule="evenodd" stroke="none"/>
    <path d="M21.3 16.7 Q23.4 15.55 25.7 16.2 28.0 16.85 29.1 18.95 30.25 21.05 29.6 23.35 28.95 25.65 26.85 26.8 24.75 27.95 22.45 27.25 20.15 26.6 19.0 24.5 17.85 22.4 18.55 20.1 19.2 17.8 21.3 16.7" fill="url(#gradient1)" fill-rule="evenodd" stroke="none"/>
    <path d="M14.75 15.9 Q12.7 14.65 12.15 12.35 11.55 10.0 12.8 7.95 14.05 5.9 16.35 5.35 18.7 4.75 20.75 6.0 22.8 7.3 23.35 9.6 23.9 11.9 22.65 13.95 21.4 16.0 19.1 16.55 16.75 17.15 14.75 15.9" fill="url(#gradient2)" fill-rule="evenodd" stroke="none"/>
    <path d="M10.6 20.15 L10.3 20.85 Q10.0 21.15 9.55 21.15 9.15 21.15 8.85 20.85 8.55 20.55 8.55 20.15 8.55 19.75 8.85 19.45 9.2 19.15 9.6 19.15 L10.35 19.45 Q10.65 19.75 10.6 20.15" fill="#ffffff" fill-rule="evenodd" stroke="none"/>
    <path d="M17.05 9.15 L16.75 9.85 16.0 10.1 Q15.55 10.1 15.25 9.8 14.95 9.5 14.95 9.1 15.05 8.1 16.05 8.1 L16.75 8.45 17.05 9.15" fill="#ffffff" fill-rule="evenodd" stroke="none"/>
    <path d="M26.75 16.65 L26.6 16.65 Q24.2 16.65 22.3 17.45 23.35 18.5 25.0 19.0 L26.05 19.25 25.75 20.35 Q25.2 22.45 23.65 24.0 L22.9 24.8 22.1 24.0 Q20.9 22.8 19.45 22.45 19.6 24.3 20.85 26.5 19.65 25.7 19.0 24.5 17.85 22.4 18.55 20.1 19.2 17.8 21.3 16.7 22.6 15.95 24.05 15.95 25.5 15.95 26.75 16.65" fill="#186e4f" fill-rule="evenodd" stroke="none"/>
    <path d="M15.75 17.85 Q17.4 19.55 17.35 21.95 17.25 25.0 14.65 26.7 15.9 24.55 16.15 22.45 14.6 22.85 13.45 24.0 L12.7 24.8 11.9 24.0 Q10.45 22.55 9.8 20.35 L9.55 19.25 10.6 19.0 Q12.15 18.55 13.25 17.45 11.4 16.65 9.05 16.65 10.25 16.05 11.7 16.05 14.05 16.15 15.75 17.85" fill="#186e4f" fill-rule="evenodd" stroke="none"/>
    <path d="M14.6 10.45 L15.7 10.2 17.8 9.9 19.9 10.2 20.95 10.45 20.7 11.5 Q20.25 13.05 20.65 14.6 22.35 13.4 23.5 11.35 23.35 12.85 22.65 13.95 21.4 16.0 19.1 16.55 16.75 17.15 14.75 15.9 12.1 14.25 12.0 11.15 13.15 13.35 14.9 14.6 15.3 13.25 14.9 11.5 L14.6 10.45" fill="#186e4f" fill-rule="evenodd" stroke="none"/>
    <path d="M23.75 15.85 Q20.35 16.6 19.05 18.9 17.75 21.2 18.75 24.5 19.85 28.0 23.2 31.2 20.65 32.25 17.8 32.25 14.9 32.25 12.4 31.2 15.7 28.0 16.8 24.5 17.85 21.2 16.55 18.9 15.2 16.6 11.8 15.85 8.25 15.05 3.8 16.3 4.15 13.5 5.6 11.05 7.0 8.65 9.2 7.0 10.3 11.45 12.75 14.15 15.15 16.7 17.8 16.7 20.45 16.7 22.8 14.15 25.25 11.45 26.35 7.0 31.0 10.5 31.75 16.3 27.35 15.05 23.75 15.85" fill="url(#gradient3)" fill-rule="evenodd" stroke="none"/>
    <path d="M18.35 22.0 Q18.4 24.15 19.6 26.5 20.85 29.0 23.2 31.2 L22.65 31.4 Q20.25 29.1 19.1 26.55 18.05 24.15 18.35 22.0" fill="#f2f2f2" fill-rule="evenodd" stroke="none"/>
    <path d="M31.75 16.3 L31.5 16.25 Q30.5 11.35 26.55 8.1 25.35 12.5 22.8 14.8 20.55 16.85 17.75 16.85 14.95 16.85 12.7 14.8 10.1 12.5 8.95 8.1 4.9 11.35 4.0 16.3 L3.8 16.3 Q4.15 13.5 5.6 11.05 7.0 8.65 9.2 7.0 10.3 11.45 12.75 14.15 15.15 16.7 17.8 16.7 20.45 16.7 22.8 14.15 25.25 11.45 26.35 7.0 31.0 10.5 31.75 16.3" fill="#f2f2f2" fill-rule="evenodd" stroke="none"/>
    <path d="M17.2 22.6 Q17.45 26.95 12.9 31.4 L12.4 31.2 Q16.8 26.95 17.2 22.6" fill="#f2f2f2" fill-rule="evenodd" stroke="none"/>
    <path d="M13.75 16.5 L14.3 15.5 Q16.05 16.7 17.8 16.7 19.6 16.7 21.25 15.5 L21.8 16.5 Q20.0 17.35 19.05 18.9 18.2 20.35 18.35 22.5 L17.8 22.45 17.2 22.5 Q17.45 20.5 16.55 18.9 15.6 17.3 13.75 16.5" fill="#666666" fill-rule="evenodd" stroke="none"/>
    <path d="M15.25 16.7 Q16.75 14.1 15.95 11.25 L17.8 11.0 19.6 11.25 Q18.85 14.15 20.35 16.7 21.85 19.25 24.7 20.05 24.25 21.85 22.9 23.2 20.8 21.1 17.8 21.1 14.8 21.1 12.7 23.2 11.4 21.9 10.85 20.05 13.75 19.25 15.25 16.7" fill="url(#gradient4)" fill-rule="evenodd" stroke="none"/>
    <path d="M19.25 11.5 L17.8 11.35 16.3 11.5 Q17.0 14.4 15.55 17.0 14.05 19.65 11.35 20.5 11.85 22.05 12.8 23.15 L12.7 23.2 Q11.4 21.9 10.85 20.05 13.75 19.25 15.25 16.7 16.75 14.1 15.95 11.25 L17.8 11.0 19.6 11.25 Q18.85 14.15 20.35 16.7 21.85 19.25 24.7 20.05 24.25 21.85 22.9 23.2 L22.75 23.15 Q23.75 22.1 24.25 20.5 21.55 19.65 20.05 17.0 18.6 14.5 19.25 11.5" fill="#ffffff" fill-rule="evenodd" stroke="none"/>
  </g>
  <defs>
    <radialGradient cx="0" cy="0" gradientTransform="matrix(0.0092, 2.0E-4, 2.0E-4, -0.0092, 11.05, 20.15)" gradientUnits="userSpaceOnUse" id="gradient0" r="819.2" spreadMethod="pad">
      <stop offset="0.0" stop-color="#f3fadf"/>
      <stop offset="0.19215686274509805" stop-color="#dafacb"/>
      <stop offset="0.5098039215686274" stop-color="#7ccc68"/>
      <stop offset="0.5803921568627451" stop-color="#5fb766"/>
      <stop offset="0.6784313725490196" stop-color="#3c9d63"/>
      <stop offset="0.7607843137254902" stop-color="#268d62"/>
      <stop offset="0.8117647058823529" stop-color="#1e8761"/>
      <stop offset="1.0" stop-color="#75cce6"/>
    </radialGradient>
    <radialGradient cx="0" cy="0" gradientTransform="matrix(-0.0044, -0.0081, -0.0081, 0.0044, 23.65, 19.95)" gradientUnits="userSpaceOnUse" id="gradient1" r="819.2" spreadMethod="pad">
      <stop offset="0.0" stop-color="#f3fadf"/>
      <stop offset="0.19215686274509805" stop-color="#dafacb"/>
      <stop offset="0.5098039215686274" stop-color="#7ccc68"/>
      <stop offset="0.5803921568627451" stop-color="#5fb766"/>
      <stop offset="0.6784313725490196" stop-color="#3c9d63"/>
      <stop offset="0.7607843137254902" stop-color="#268d62"/>
      <stop offset="0.8117647058823529" stop-color="#1e8761"/>
      <stop offset="1.0" stop-color="#75cce6"/>
    </radialGradient>
    <radialGradient cx="0" cy="0" gradientTransform="matrix(-0.0048, 0.0079, 0.0079, 0.0048, 17.0, 8.95)" gradientUnits="userSpaceOnUse" id="gradient2" r="819.2" spreadMethod="pad">
      <stop offset="0.0" stop-color="#f3fadf"/>
      <stop offset="0.19215686274509805" stop-color="#dafacb"/>
      <stop offset="0.5098039215686274" stop-color="#7ccc68"/>
      <stop offset="0.5803921568627451" stop-color="#5fb766"/>
      <stop offset="0.6784313725490196" stop-color="#3c9d63"/>
      <stop offset="0.7607843137254902" stop-color="#268d62"/>
      <stop offset="0.8117647058823529" stop-color="#1e8761"/>
      <stop offset="1.0" stop-color="#75cce6"/>
    </radialGradient>
    <radialGradient cx="0" cy="0" gradientTransform="matrix(0.0171, 0.0, 0.0, -0.0171, 17.75, 18.1)" gradientUnits="userSpaceOnUse" id="gradient3" r="819.2" spreadMethod="pad">
      <stop offset="0.0" stop-color="#ffffff"/>
      <stop offset="0.36470588235294116" stop-color="#e8e8e8"/>
      <stop offset="0.8313725490196079" stop-color="#858585"/>
      <stop offset="1.0" stop-color="#d4d4d4"/>
    </radialGradient>
    <radialGradient cx="0" cy="0" gradientTransform="matrix(0.0091, 0.0, 0.0, -0.0091, 17.65, 18.2)" gradientUnits="userSpaceOnUse" id="gradient4" r="819.2" spreadMethod="pad">
      <stop offset="0.0" stop-color="#dafacb"/>
      <stop offset="0.5098039215686274" stop-color="#7ccc68"/>
      <stop offset="0.5803921568627451" stop-color="#5fb766"/>
      <stop offset="0.6784313725490196" stop-color="#3c9d63"/>
      <stop offset="0.7607843137254902" stop-color="#268d62"/>
      <stop offset="0.8117647058823529" stop-color="#1e8761"/>
      <stop offset="1.0" stop-color="#75cce6"/>
    </radialGradient>
  </defs>
</svg>
