<?xml version="1.0" encoding="UTF-8" standalone="no"?>
<svg xmlns:ffdec="https://www.free-decompiler.com/flash" xmlns:xlink="http://www.w3.org/1999/xlink" ffdec:objectType="shape" height="13.4px" width="29.75px" xmlns="http://www.w3.org/2000/svg">
  <g transform="matrix(1.0, 0.0, 0.0, 1.0, 0.0, 0.0)">
    <path d="M29.25 6.1 Q29.75 6.2 29.75 6.7 29.75 7.2 29.25 7.35 28.6 7.5 27.15 8.85 L24.95 10.6 Q23.55 11.45 22.1 11.45 L21.8 11.45 Q20.85 11.35 20.0 10.9 18.0 13.4 14.8 13.4 11.65 13.4 9.6 10.95 8.85 11.35 7.9 11.45 L7.6 11.45 Q6.15 11.45 4.75 10.6 L2.6 8.85 Q1.15 7.5 0.45 7.35 0.0 7.15 0.0 6.7 0.0 6.2 0.45 6.1 L2.6 4.55 Q3.95 3.3 4.75 2.8 6.15 1.95 7.6 1.95 L7.9 1.95 Q8.9 2.05 9.6 2.5 11.7 0.0 14.8 0.0 18.0 0.0 20.0 2.55 L21.8 1.95 22.1 1.95 Q23.55 1.95 24.95 2.8 L27.15 4.55 Q28.65 5.95 29.25 6.1" fill="#000000" fill-rule="evenodd" stroke="none"/>
  </g>
</svg>
