<?xml version="1.0" encoding="UTF-8" standalone="no"?>
<svg xmlns:ffdec="https://www.free-decompiler.com/flash" xmlns:xlink="http://www.w3.org/1999/xlink" ffdec:objectType="shape" height="13.4px" width="29.8px" xmlns="http://www.w3.org/2000/svg">
  <g transform="matrix(1.0, 0.0, 0.0, 1.0, -2.9, -11.1)">
    <path d="M27.9 13.9 Q28.7 14.4 30.05 15.65 31.45 17.0 32.2 17.2 32.7 17.3 32.7 17.8 32.7 18.3 32.2 18.4 31.55 18.55 30.05 19.95 L27.9 21.7 Q26.5 22.55 25.05 22.55 L24.75 22.55 22.95 22.0 Q20.95 24.5 17.75 24.5 14.55 24.5 12.55 22.05 L10.85 22.55 10.55 22.55 Q9.1 22.55 7.7 21.7 L5.55 19.95 Q4.05 18.55 3.4 18.4 2.9 18.3 2.9 17.8 2.9 17.3 3.4 17.2 4.15 17.0 5.55 15.65 L7.7 13.9 Q9.1 13.05 10.55 13.05 L10.85 13.05 12.55 13.55 Q14.55 11.1 17.75 11.1 20.95 11.1 22.95 13.6 23.9 13.1 24.75 13.05 L25.05 13.05 Q26.5 13.05 27.9 13.9" fill="#111a6b" fill-rule="evenodd" stroke="none"/>
    <path d="M23.8 17.8 Q23.8 20.3 22.05 22.1 20.25 23.85 17.75 23.85 15.25 23.85 13.45 22.1 11.7 20.3 11.7 17.8 11.7 15.3 13.45 13.5 15.25 11.75 17.75 11.75 20.25 11.75 22.05 13.5 23.8 15.3 23.8 17.8" fill="url(#gradient0)" fill-rule="evenodd" stroke="none"/>
    <path d="M20.55 15.05 L22.15 13.65 Q23.8 15.45 23.8 17.8 23.8 20.15 22.15 21.95 L20.55 20.5 Q20.3 20.25 20.3 19.85 L20.3 15.75 20.55 15.05" fill="#666666" fill-rule="evenodd" stroke="none"/>
    <path d="M13.4 13.6 L15.05 15.05 15.3 15.75 15.3 19.85 15.05 20.5 13.4 22.0 Q11.7 20.2 11.7 17.8 11.7 15.4 13.4 13.6" fill="#666666" fill-rule="evenodd" stroke="none"/>
    <path d="M21.35 19.85 L21.35 15.75 22.4 14.75 Q23.7 13.75 24.8 13.7 26.8 13.6 28.95 15.5 31.35 17.65 32.05 17.8 31.35 17.95 28.95 20.1 26.8 22.0 24.8 21.9 23.7 21.85 22.4 20.85 L21.35 19.85 M14.25 19.85 Q12.6 21.8 10.8 21.9 8.85 22.0 6.65 20.1 4.25 17.95 3.55 17.8 4.25 17.65 6.65 15.5 8.85 13.6 10.8 13.7 12.6 13.8 14.25 15.75 L14.25 19.85" fill="url(#gradient1)" fill-rule="evenodd" stroke="none"/>
    <path d="M24.8 13.7 Q26.8 13.6 28.95 15.5 31.35 17.65 32.05 17.8 31.35 17.95 28.95 20.1 26.8 22.0 24.8 21.9 23.6 21.85 22.0 20.5 23.25 21.45 24.25 21.5 26.1 21.6 28.1 19.9 30.35 17.95 31.0 17.8 30.35 17.65 28.1 15.7 26.1 14.0 24.25 14.1 23.25 14.15 22.0 15.1 23.45 13.75 24.8 13.7" fill="url(#gradient2)" fill-rule="evenodd" stroke="none"/>
    <path d="M11.35 21.5 Q12.35 21.45 13.6 20.5 12.0 21.85 10.8 21.9 8.85 22.0 6.65 20.1 4.25 17.95 3.55 17.8 4.25 17.65 6.65 15.5 8.85 13.6 10.8 13.7 12.15 13.75 13.6 15.1 12.35 14.15 11.35 14.1 9.5 14.0 7.5 15.7 L4.6 17.8 7.5 19.9 Q9.5 21.6 11.35 21.5" fill="url(#gradient3)" fill-rule="evenodd" stroke="none"/>
    <path d="M22.2 17.8 Q22.2 19.65 20.9 20.95 19.6 22.25 17.75 22.25 15.9 22.25 14.55 20.95 13.25 19.65 13.25 17.8 13.25 15.95 14.55 14.65 15.9 13.35 17.75 13.35 19.6 13.35 20.9 14.65 22.2 15.95 22.2 17.8" fill="url(#gradient4)" fill-rule="evenodd" stroke="none"/>
  </g>
  <defs>
    <radialGradient cx="0" cy="0" gradientTransform="matrix(0.0096, 0.0, 0.0, -0.0096, 16.2, 16.4)" gradientUnits="userSpaceOnUse" id="gradient0" r="819.2" spreadMethod="pad">
      <stop offset="0.0" stop-color="#ffffff"/>
      <stop offset="0.2901960784313726" stop-color="#e8e8e8"/>
      <stop offset="0.4392156862745098" stop-color="#c4c4c4"/>
      <stop offset="0.7019607843137254" stop-color="#888888"/>
      <stop offset="0.8313725490196079" stop-color="#707070"/>
      <stop offset="1.0" stop-color="#d4d4d4"/>
    </radialGradient>
    <radialGradient cx="0" cy="0" gradientTransform="matrix(0.0165, 0.0, 0.0, -0.0165, 17.85, 18.05)" gradientUnits="userSpaceOnUse" id="gradient1" r="819.2" spreadMethod="pad">
      <stop offset="0.4470588235294118" stop-color="#e8e8e8"/>
      <stop offset="0.8313725490196079" stop-color="#858585"/>
      <stop offset="1.0" stop-color="#d4d4d4"/>
    </radialGradient>
    <radialGradient cx="0" cy="0" gradientTransform="matrix(0.0071, 0.0, 0.0, -0.0071, 27.05, 18.05)" gradientUnits="userSpaceOnUse" id="gradient2" r="819.2" spreadMethod="pad">
      <stop offset="0.4470588235294118" stop-color="#e8e8e8"/>
      <stop offset="0.8313725490196079" stop-color="#858585"/>
      <stop offset="1.0" stop-color="#d4d4d4"/>
    </radialGradient>
    <radialGradient cx="0" cy="0" gradientTransform="matrix(0.0071, 0.0, 0.0, -0.0071, 8.6, 18.05)" gradientUnits="userSpaceOnUse" id="gradient3" r="819.2" spreadMethod="pad">
      <stop offset="0.4470588235294118" stop-color="#e8e8e8"/>
      <stop offset="0.8313725490196079" stop-color="#858585"/>
      <stop offset="1.0" stop-color="#d4d4d4"/>
    </radialGradient>
    <radialGradient cx="0" cy="0" gradientTransform="matrix(0.0071, 0.0, 0.0, -0.0071, 16.6, 16.75)" gradientUnits="userSpaceOnUse" id="gradient4" r="819.2" spreadMethod="pad">
      <stop offset="0.0" stop-color="#dffaf8"/>
      <stop offset="0.19215686274509805" stop-color="#8fd3fa"/>
      <stop offset="0.5098039215686274" stop-color="#5480db"/>
      <stop offset="0.5372549019607843" stop-color="#5077d3"/>
      <stop offset="0.6549019607843137" stop-color="#4354b3"/>
      <stop offset="0.7490196078431373" stop-color="#3a3ea0"/>
      <stop offset="0.8117647058823529" stop-color="#373699"/>
      <stop offset="1.0" stop-color="#a075e6"/>
    </radialGradient>
  </defs>
</svg>
