<?xml version="1.0" encoding="UTF-8" standalone="no"?>
<svg xmlns:ffdec="https://www.free-decompiler.com/flash" xmlns:xlink="http://www.w3.org/1999/xlink" ffdec:objectType="shape" height="21.9px" width="21.9px" xmlns="http://www.w3.org/2000/svg">
  <g transform="matrix(1.0, 0.0, 0.0, 1.0, 0.0, 0.0)">
    <path d="M21.25 0.0 L21.7 0.2 Q22.05 0.55 21.8 1.0 21.45 1.6 21.35 3.65 L21.05 6.6 Q20.6 8.3 19.4 9.35 18.75 9.95 17.65 10.25 L17.7 10.95 17.65 11.65 Q18.75 11.95 19.4 12.55 20.6 13.6 21.05 15.35 L21.35 18.25 Q21.45 20.35 21.8 20.9 22.05 21.35 21.7 21.7 L21.25 21.9 20.9 21.8 18.25 21.35 15.3 21.05 Q13.6 20.6 12.55 19.4 11.95 18.75 11.65 17.75 L10.9 17.8 10.2 17.75 9.35 19.4 Q8.3 20.6 6.6 21.05 L3.65 21.35 1.0 21.8 0.65 21.9 Q0.35 21.9 0.2 21.7 -0.15 21.35 0.1 20.9 0.45 20.35 0.55 18.25 L0.85 15.35 Q1.3 13.6 2.5 12.55 3.15 12.0 4.1 11.7 L4.05 10.95 4.1 10.25 Q3.1 9.95 2.5 9.35 1.3 8.3 0.85 6.6 L0.55 3.65 Q0.45 1.6 0.1 1.0 -0.15 0.55 0.2 0.2 0.4 0.0 0.65 0.0 L1.0 0.1 3.65 0.55 6.6 0.85 Q8.3 1.3 9.35 2.5 L10.2 4.15 11.65 4.15 Q11.95 3.2 12.55 2.5 13.6 1.3 15.3 0.85 L18.25 0.55 20.9 0.1 21.25 0.0" fill="#000000" fill-rule="evenodd" stroke="none"/>
  </g>
</svg>
