<?xml version="1.0" encoding="UTF-8" standalone="no"?>
<svg xmlns:ffdec="https://www.free-decompiler.com/flash" xmlns:xlink="http://www.w3.org/1999/xlink" ffdec:objectType="shape" height="35.2px" width="35.15px" xmlns="http://www.w3.org/2000/svg">
  <g transform="matrix(1.0, 0.0, 0.0, 1.0, 0.0, 0.0)">
    <path d="M27.35 20.7 Q26.6 23.1 24.85 24.9 23.05 26.65 20.65 27.4 20.15 30.6 18.2 34.8 L17.6 35.2 Q17.1 35.2 16.95 34.8 15.1 30.8 14.5 27.4 12.1 26.65 10.35 24.9 8.55 23.1 7.8 20.7 4.4 20.1 0.4 18.25 0.0 18.1 0.0 17.6 0.0 17.15 0.4 17.0 4.65 15.05 7.8 14.55 8.55 12.15 10.35 10.35 12.1 8.6 14.5 7.8 15.15 4.3 16.95 0.45 17.15 0.0 17.6 0.0 18.0 0.0 18.2 0.45 20.15 4.55 20.65 7.8 23.05 8.6 24.85 10.35 26.6 12.15 27.35 14.55 30.65 15.05 34.75 17.0 35.15 17.15 35.15 17.6 35.15 18.1 34.75 18.25 30.9 20.05 27.35 20.7" fill="#000000" fill-rule="evenodd" stroke="none"/>
  </g>
</svg>
