<?xml version="1.0" encoding="UTF-8" standalone="no"?>
<svg xmlns:ffdec="https://www.free-decompiler.com/flash" xmlns:xlink="http://www.w3.org/1999/xlink" ffdec:objectType="shape" height="35.2px" width="35.15px" xmlns="http://www.w3.org/2000/svg">
  <g transform="matrix(1.0, 0.0, 0.0, 1.0, -0.3, -0.15)">
    <path d="M0.3 17.75 Q0.3 17.3 0.7 17.15 4.95 15.2 8.1 14.7 8.85 12.3 10.65 10.5 12.4 8.75 14.8 7.95 15.45 4.45 17.25 0.6 17.45 0.15 17.9 0.15 18.3 0.15 18.5 0.6 20.45 4.7 20.95 7.95 23.35 8.75 25.15 10.5 26.9 12.3 27.65 14.7 30.95 15.2 35.05 17.15 35.45 17.3 35.45 17.75 35.45 18.25 35.05 18.4 31.2 20.2 27.65 20.85 26.9 23.25 25.15 25.05 23.35 26.8 20.95 27.55 20.45 30.75 18.5 34.95 L17.9 35.35 Q17.4 35.35 17.25 34.95 15.4 30.95 14.8 27.55 12.4 26.8 10.65 25.05 8.85 23.25 8.1 20.85 4.7 20.25 0.7 18.4 0.3 18.25 0.3 17.75" fill="#111a6b" fill-rule="evenodd" stroke="none"/>
    <path d="M27.45 17.75 Q27.45 21.7 24.65 24.55 21.85 27.35 17.9 27.35 13.95 27.35 11.1 24.55 8.3 21.75 8.3 17.75 8.3 13.8 11.1 11.0 13.95 8.2 17.9 8.2 21.85 8.2 24.65 11.0 27.45 13.8 27.45 17.75" fill="url(#gradient0)" fill-rule="evenodd" stroke="none"/>
    <path d="M25.35 17.75 Q25.35 20.85 23.15 23.05 21.0 25.2 17.9 25.2 14.8 25.2 12.6 23.05 10.45 20.85 10.45 17.75 10.45 14.65 12.6 12.5 14.8 10.3 17.9 10.3 21.0 10.3 23.15 12.5 25.35 14.7 25.35 17.75" fill="#373699" fill-rule="evenodd" stroke="none"/>
    <path d="M24.6 17.75 Q24.6 20.55 22.65 22.5 20.7 24.45 17.9 24.45 15.15 24.45 13.15 22.5 11.2 20.55 11.2 17.75 11.2 15.0 13.15 13.0 15.15 11.05 17.9 11.05 20.7 11.05 22.65 13.0 24.6 15.0 24.6 17.75" fill="url(#gradient1)" fill-rule="evenodd" stroke="none"/>
    <path d="M22.2 12.6 L23.0 13.45 18.7 17.75 23.0 22.05 22.2 22.9 17.9 18.6 13.55 22.9 12.75 22.05 17.05 17.75 12.75 13.45 13.55 12.6 17.9 16.95 22.2 12.6" fill="#4d4d4d" fill-rule="evenodd" stroke="none"/>
    <path d="M17.9 12.6 Q16.45 12.45 15.3 11.55 15.15 10.7 15.35 8.9 15.85 5.35 17.9 0.9 L17.9 12.6" fill="url(#gradient2)" fill-rule="evenodd" stroke="none"/>
    <path d="M17.9 12.6 L17.9 0.9 Q19.95 5.35 20.4 8.9 L20.45 11.55 Q19.75 12.1 18.75 12.4 L17.9 12.6" fill="url(#gradient3)" fill-rule="evenodd" stroke="none"/>
    <path d="M17.9 22.9 L17.9 34.65 Q15.85 30.2 15.35 26.6 L15.3 23.95 Q16.45 23.1 17.9 22.9" fill="url(#gradient4)" fill-rule="evenodd" stroke="none"/>
    <path d="M17.9 22.9 L18.75 23.1 Q19.75 23.4 20.45 23.95 L20.4 26.6 Q19.95 30.2 17.9 34.65 L17.9 22.9" fill="url(#gradient5)" fill-rule="evenodd" stroke="none"/>
    <path d="M12.75 17.75 Q12.55 19.15 11.7 20.35 L9.05 20.3 Q5.45 19.8 1.0 17.75 L12.75 17.75" fill="url(#gradient6)" fill-rule="evenodd" stroke="none"/>
    <path d="M12.75 17.75 L1.0 17.75 Q5.45 15.7 9.05 15.25 L11.7 15.2 Q12.55 16.35 12.75 17.75" fill="url(#gradient7)" fill-rule="evenodd" stroke="none"/>
    <path d="M23.2 18.6 L23.0 17.75 34.75 17.75 Q30.3 19.8 26.75 20.3 L24.1 20.35 23.2 18.6" fill="url(#gradient8)" fill-rule="evenodd" stroke="none"/>
    <path d="M26.75 15.25 Q30.3 15.7 34.75 17.75 L23.0 17.75 23.2 16.9 24.1 15.2 26.75 15.25" fill="url(#gradient9)" fill-rule="evenodd" stroke="none"/>
  </g>
  <defs>
    <radialGradient cx="0" cy="0" gradientTransform="matrix(0.0151, 0.0, 0.0, -0.0151, 15.95, 15.15)" gradientUnits="userSpaceOnUse" id="gradient0" r="819.2" spreadMethod="pad">
      <stop offset="0.0" stop-color="#dffaf8"/>
      <stop offset="0.19215686274509805" stop-color="#8fd3fa"/>
      <stop offset="0.5098039215686274" stop-color="#5480db"/>
      <stop offset="0.5372549019607843" stop-color="#5077d3"/>
      <stop offset="0.6549019607843137" stop-color="#4354b3"/>
      <stop offset="0.7490196078431373" stop-color="#3a3ea0"/>
      <stop offset="0.8117647058823529" stop-color="#373699"/>
      <stop offset="1.0" stop-color="#a075e6"/>
    </radialGradient>
    <radialGradient cx="0" cy="0" gradientTransform="matrix(0.0106, 0.0, 0.0, -0.0106, 16.5, 15.9)" gradientUnits="userSpaceOnUse" id="gradient1" r="819.2" spreadMethod="pad">
      <stop offset="0.0" stop-color="#ffffff"/>
      <stop offset="0.2901960784313726" stop-color="#e8e8e8"/>
      <stop offset="0.4392156862745098" stop-color="#c4c4c4"/>
      <stop offset="0.7019607843137254" stop-color="#888888"/>
      <stop offset="0.8313725490196079" stop-color="#707070"/>
      <stop offset="1.0" stop-color="#d4d4d4"/>
    </radialGradient>
    <linearGradient gradientTransform="matrix(0.0031, 0.0037, 0.0037, -0.0031, 18.3, 8.3)" gradientUnits="userSpaceOnUse" id="gradient2" spreadMethod="pad" x1="-819.2" x2="819.2">
      <stop offset="0.0" stop-color="#ffffff"/>
      <stop offset="1.0" stop-color="#666666"/>
    </linearGradient>
    <linearGradient gradientTransform="matrix(-0.002, 0.0, 0.0, 0.002, 19.25, 6.75)" gradientUnits="userSpaceOnUse" id="gradient3" spreadMethod="pad" x1="-819.2" x2="819.2">
      <stop offset="0.0" stop-color="#ffffff"/>
      <stop offset="1.0" stop-color="#666666"/>
    </linearGradient>
    <linearGradient gradientTransform="matrix(0.0031, 0.0037, -0.0037, 0.0031, 18.3, 27.2)" gradientUnits="userSpaceOnUse" id="gradient4" spreadMethod="pad" x1="-819.2" x2="819.2">
      <stop offset="0.0" stop-color="#ffffff"/>
      <stop offset="1.0" stop-color="#666666"/>
    </linearGradient>
    <linearGradient gradientTransform="matrix(-0.002, 0.0, 0.0, -0.002, 19.25, 28.75)" gradientUnits="userSpaceOnUse" id="gradient5" spreadMethod="pad" x1="-819.2" x2="819.2">
      <stop offset="0.0" stop-color="#ffffff"/>
      <stop offset="1.0" stop-color="#666666"/>
    </linearGradient>
    <linearGradient gradientTransform="matrix(0.0, -0.0022, -0.0022, 0.0, 6.85, 19.5)" gradientUnits="userSpaceOnUse" id="gradient6" spreadMethod="pad" x1="-819.2" x2="819.2">
      <stop offset="0.0" stop-color="#ffffff"/>
      <stop offset="1.0" stop-color="#666666"/>
    </linearGradient>
    <linearGradient gradientTransform="matrix(0.0037, 0.0018, 0.0018, -0.0037, 8.45, 17.5)" gradientUnits="userSpaceOnUse" id="gradient7" spreadMethod="pad" x1="-819.2" x2="819.2">
      <stop offset="0.0" stop-color="#ffffff"/>
      <stop offset="1.0" stop-color="#666666"/>
    </linearGradient>
    <linearGradient gradientTransform="matrix(0.0, 0.0022, -0.0022, 0.0, 28.9, 19.5)" gradientUnits="userSpaceOnUse" id="gradient8" spreadMethod="pad" x1="-819.2" x2="819.2">
      <stop offset="0.0" stop-color="#ffffff"/>
      <stop offset="1.0" stop-color="#666666"/>
    </linearGradient>
    <linearGradient gradientTransform="matrix(-0.0037, -0.0018, 0.0018, -0.0037, 27.35, 17.5)" gradientUnits="userSpaceOnUse" id="gradient9" spreadMethod="pad" x1="-819.2" x2="819.2">
      <stop offset="0.0" stop-color="#ffffff"/>
      <stop offset="1.0" stop-color="#666666"/>
    </linearGradient>
  </defs>
</svg>
