<?xml version="1.0" encoding="UTF-8" standalone="no"?>
<svg xmlns:ffdec="https://www.free-decompiler.com/flash" xmlns:xlink="http://www.w3.org/1999/xlink" ffdec:objectType="shape" height="35.2px" width="35.2px" xmlns="http://www.w3.org/2000/svg">
  <g transform="matrix(1.0, 0.0, 0.0, 1.0, 0.0, 0.0)">
    <path d="M22.35 8.5 Q25.0 6.65 29.3 5.0 L29.55 4.95 30.05 5.15 Q30.35 5.45 30.2 5.9 28.7 10.0 26.7 12.85 L27.4 14.5 Q30.55 15.05 34.8 16.95 35.2 17.2 35.2 17.6 35.2 18.0 34.8 18.25 30.55 20.15 27.4 20.7 L26.7 22.35 Q28.7 25.2 30.2 29.3 L30.05 30.05 Q29.75 30.25 29.55 30.25 L29.3 30.2 Q25.2 28.7 22.35 26.7 L20.7 27.4 Q20.05 30.85 18.25 34.8 18.1 35.2 17.6 35.2 17.15 35.2 17.0 34.8 15.05 30.6 14.55 27.4 13.5 27.05 12.85 26.7 9.9 28.75 5.9 30.2 L5.65 30.25 5.2 30.05 Q4.85 29.7 5.0 29.3 6.65 25.0 8.5 22.35 L7.8 20.7 Q4.55 20.1 0.45 18.25 0.0 18.0 0.0 17.6 0.0 17.2 0.45 16.95 4.55 15.1 7.8 14.5 L8.5 12.85 Q6.65 10.2 5.0 5.9 4.85 5.5 5.2 5.15 L5.65 4.95 5.9 5.0 Q10.1 6.6 12.85 8.5 13.5 8.15 14.55 7.8 15.05 4.6 17.0 0.4 17.15 0.0 17.6 0.0 18.1 0.0 18.25 0.4 20.05 4.35 20.7 7.8 L22.35 8.5" fill="#000000" fill-rule="evenodd" stroke="none"/>
  </g>
</svg>
