<?xml version="1.0" encoding="UTF-8" standalone="no"?>
<svg xmlns:ffdec="https://www.free-decompiler.com/flash" xmlns:xlink="http://www.w3.org/1999/xlink" ffdec:objectType="shape" height="35.2px" width="35.2px" xmlns="http://www.w3.org/2000/svg">
  <g transform="matrix(1.0, 0.0, 0.0, 1.0, -0.3, -0.15)">
    <path d="M35.1 18.4 Q30.85 20.3 27.7 20.85 L27.0 22.5 Q29.0 25.35 30.5 29.45 30.65 29.9 30.35 30.2 L29.85 30.4 29.6 30.35 Q25.5 28.85 22.65 26.85 L21.0 27.55 Q20.35 31.0 18.55 34.95 18.4 35.35 17.9 35.35 17.45 35.35 17.3 34.95 15.35 30.75 14.85 27.55 L13.15 26.85 Q10.2 28.9 6.2 30.35 L5.95 30.4 Q5.7 30.4 5.5 30.2 5.15 29.85 5.3 29.45 6.95 25.15 8.8 22.5 L8.1 20.85 Q4.85 20.25 0.75 18.4 0.3 18.15 0.3 17.75 0.3 17.35 0.75 17.1 4.85 15.25 8.1 14.65 L8.8 13.0 Q6.95 10.35 5.3 6.05 5.15 5.65 5.5 5.3 L5.95 5.1 6.2 5.15 Q10.4 6.75 13.15 8.65 L14.85 7.95 Q15.35 4.75 17.3 0.55 17.45 0.15 17.9 0.15 18.4 0.15 18.55 0.55 20.35 4.5 21.0 7.95 L22.65 8.65 Q25.3 6.8 29.6 5.15 L29.85 5.1 30.35 5.3 Q30.65 5.6 30.5 6.05 29.0 10.15 27.0 13.0 L27.7 14.65 Q30.85 15.2 35.1 17.1 35.5 17.35 35.5 17.75 L35.1 18.4" fill="#111a6b" fill-rule="evenodd" stroke="none"/>
    <path d="M24.7 11.0 Q27.5 13.8 27.5 17.75 27.5 21.7 24.7 24.5 21.9 27.3 17.9 27.3 13.95 27.3 11.15 24.5 8.35 21.7 8.35 17.75 8.35 13.8 11.15 11.0 13.95 8.2 17.9 8.2 21.9 8.2 24.7 11.0" fill="url(#gradient0)" fill-rule="evenodd" stroke="none"/>
    <path d="M14.3 14.1 Q13.15 15.0 11.7 15.2 L9.85 13.3 Q7.65 10.45 5.95 5.8 L14.3 14.1" fill="url(#gradient1)" fill-rule="evenodd" stroke="none"/>
    <path d="M14.3 14.1 L5.95 5.8 Q10.6 7.5 13.45 9.7 L15.35 11.55 Q15.15 13.0 14.3 14.1" fill="url(#gradient2)" fill-rule="evenodd" stroke="none"/>
    <path d="M22.4 25.8 L20.45 23.95 Q20.6 23.05 21.1 22.15 L21.55 21.4 29.85 29.7 Q25.25 28.0 22.4 25.8" fill="url(#gradient3)" fill-rule="evenodd" stroke="none"/>
    <path d="M25.95 22.25 Q28.15 25.1 29.85 29.7 L21.55 21.4 Q21.95 21.2 22.3 20.95 23.2 20.45 24.1 20.3 L25.95 22.25" fill="url(#gradient4)" fill-rule="evenodd" stroke="none"/>
    <path d="M14.3 21.4 L14.75 22.15 Q15.25 23.05 15.35 23.95 L13.45 25.8 Q10.6 28.0 5.95 29.7 L14.3 21.4" fill="url(#gradient5)" fill-rule="evenodd" stroke="none"/>
    <path d="M14.3 21.4 L5.95 29.7 Q7.65 25.1 9.85 22.25 10.95 20.8 11.7 20.3 13.15 20.5 14.3 21.4" fill="url(#gradient6)" fill-rule="evenodd" stroke="none"/>
    <path d="M25.95 13.3 L24.1 15.2 Q23.2 15.1 22.3 14.6 L21.55 14.1 29.85 5.8 Q28.15 10.45 25.95 13.3" fill="url(#gradient7)" fill-rule="evenodd" stroke="none"/>
    <path d="M22.4 9.7 Q25.25 7.5 29.85 5.8 L21.55 14.1 Q20.65 13.0 20.45 11.55 L22.4 9.7" fill="url(#gradient8)" fill-rule="evenodd" stroke="none"/>
    <path d="M25.35 17.75 Q25.35 20.85 23.2 23.0 21.0 25.2 17.9 25.2 14.85 25.2 12.65 23.0 10.45 20.85 10.45 17.75 10.45 14.7 12.65 12.5 14.85 10.3 17.9 10.3 21.0 10.3 23.2 12.5 25.35 14.65 25.35 17.75" fill="#373699" fill-rule="evenodd" stroke="none"/>
    <path d="M24.6 17.75 Q24.6 20.55 22.65 22.5 20.7 24.45 17.9 24.45 15.15 24.45 13.15 22.5 11.2 20.55 11.2 17.75 11.2 15.0 13.15 13.0 15.15 11.05 17.9 11.05 20.7 11.05 22.65 13.0 24.6 15.0 24.6 17.75" fill="url(#gradient9)" fill-rule="evenodd" stroke="none"/>
    <path d="M22.2 12.6 L23.05 13.45 18.75 17.75 23.05 22.05 22.2 22.9 17.9 18.6 13.6 22.9 12.8 22.05 17.1 17.75 12.75 13.45 13.6 12.6 17.9 16.95 22.2 12.6" fill="#4d4d4d" fill-rule="evenodd" stroke="none"/>
    <path d="M17.9 12.6 Q16.5 12.45 15.35 11.55 15.15 10.7 15.4 8.9 15.85 5.35 17.9 0.85 L17.9 12.6" fill="url(#gradient10)" fill-rule="evenodd" stroke="none"/>
    <path d="M17.9 12.6 L17.9 0.85 Q19.95 5.35 20.45 8.9 L20.5 11.55 Q19.8 12.1 18.75 12.4 L17.9 12.6" fill="url(#gradient11)" fill-rule="evenodd" stroke="none"/>
    <path d="M17.9 22.9 L17.9 34.65 Q15.85 30.2 15.4 26.6 L15.35 23.95 Q16.5 23.05 17.9 22.9" fill="url(#gradient12)" fill-rule="evenodd" stroke="none"/>
    <path d="M17.9 22.9 L18.75 23.1 Q19.8 23.4 20.5 23.95 L20.45 26.6 Q19.95 30.2 17.9 34.65 L17.9 22.9" fill="url(#gradient13)" fill-rule="evenodd" stroke="none"/>
    <path d="M12.75 17.75 Q12.6 19.15 11.7 20.35 L9.05 20.3 Q5.5 19.8 1.0 17.75 L12.75 17.75" fill="url(#gradient14)" fill-rule="evenodd" stroke="none"/>
    <path d="M12.75 17.75 L1.0 17.75 Q5.5 15.7 9.05 15.25 L11.7 15.2 Q12.6 16.35 12.75 17.75" fill="url(#gradient15)" fill-rule="evenodd" stroke="none"/>
    <path d="M23.25 18.6 L23.05 17.75 34.8 17.75 Q30.35 19.8 26.75 20.3 L24.1 20.35 23.25 18.6" fill="url(#gradient16)" fill-rule="evenodd" stroke="none"/>
    <path d="M26.75 15.25 Q30.35 15.7 34.8 17.75 L23.05 17.75 23.25 16.9 Q23.55 15.9 24.1 15.2 L26.75 15.25" fill="url(#gradient17)" fill-rule="evenodd" stroke="none"/>
  </g>
  <defs>
    <radialGradient cx="0" cy="0" gradientTransform="matrix(0.0151, 0.0, 0.0, -0.0151, 15.95, 15.1)" gradientUnits="userSpaceOnUse" id="gradient0" r="819.2" spreadMethod="pad">
      <stop offset="0.0" stop-color="#dffaf8"/>
      <stop offset="0.19215686274509805" stop-color="#8fd3fa"/>
      <stop offset="0.5098039215686274" stop-color="#5480db"/>
      <stop offset="0.5372549019607843" stop-color="#5077d3"/>
      <stop offset="0.6549019607843137" stop-color="#4354b3"/>
      <stop offset="0.7490196078431373" stop-color="#3a3ea0"/>
      <stop offset="0.8117647058823529" stop-color="#373699"/>
      <stop offset="1.0" stop-color="#a075e6"/>
    </radialGradient>
    <linearGradient gradientTransform="matrix(0.0048, 5.0E-4, 5.0E-4, -0.0048, 11.5, 10.75)" gradientUnits="userSpaceOnUse" id="gradient1" spreadMethod="pad" x1="-819.2" x2="819.2">
      <stop offset="0.0" stop-color="#ffffff"/>
      <stop offset="1.0" stop-color="#666666"/>
    </linearGradient>
    <linearGradient gradientTransform="matrix(-0.0014, 0.0014, 0.0014, 0.0014, 11.1, 9.0)" gradientUnits="userSpaceOnUse" id="gradient2" spreadMethod="pad" x1="-819.2" x2="819.2">
      <stop offset="0.0" stop-color="#ffffff"/>
      <stop offset="1.0" stop-color="#666666"/>
    </linearGradient>
    <linearGradient gradientTransform="matrix(0.0048, 5.0E-4, -5.0E-4, 0.0048, 24.9, 24.15)" gradientUnits="userSpaceOnUse" id="gradient3" spreadMethod="pad" x1="-819.2" x2="819.2">
      <stop offset="0.0" stop-color="#ffffff"/>
      <stop offset="1.0" stop-color="#666666"/>
    </linearGradient>
    <linearGradient gradientTransform="matrix(-0.0014, 0.0014, -0.0014, -0.0014, 26.65, 24.55)" gradientUnits="userSpaceOnUse" id="gradient4" spreadMethod="pad" x1="-819.2" x2="819.2">
      <stop offset="0.0" stop-color="#ffffff"/>
      <stop offset="1.0" stop-color="#666666"/>
    </linearGradient>
    <linearGradient gradientTransform="matrix(-0.0015, -0.0016, -0.0016, 0.0015, 11.35, 26.8)" gradientUnits="userSpaceOnUse" id="gradient5" spreadMethod="pad" x1="-819.2" x2="819.2">
      <stop offset="0.0" stop-color="#ffffff"/>
      <stop offset="1.0" stop-color="#666666"/>
    </linearGradient>
    <linearGradient gradientTransform="matrix(0.0039, -0.0013, -0.0013, -0.0039, 11.05, 24.25)" gradientUnits="userSpaceOnUse" id="gradient6" spreadMethod="pad" x1="-819.2" x2="819.2">
      <stop offset="0.0" stop-color="#ffffff"/>
      <stop offset="1.0" stop-color="#666666"/>
    </linearGradient>
    <linearGradient gradientTransform="matrix(0.0015, 0.0016, -0.0016, 0.0015, 26.95, 11.15)" gradientUnits="userSpaceOnUse" id="gradient7" spreadMethod="pad" x1="-819.2" x2="819.2">
      <stop offset="0.0" stop-color="#ffffff"/>
      <stop offset="1.0" stop-color="#666666"/>
    </linearGradient>
    <linearGradient gradientTransform="matrix(-0.0039, 0.0013, -0.0013, -0.0039, 24.4, 10.9)" gradientUnits="userSpaceOnUse" id="gradient8" spreadMethod="pad" x1="-819.2" x2="819.2">
      <stop offset="0.0" stop-color="#ffffff"/>
      <stop offset="1.0" stop-color="#666666"/>
    </linearGradient>
    <radialGradient cx="0" cy="0" gradientTransform="matrix(0.0106, 0.0, 0.0, -0.0106, 16.55, 15.9)" gradientUnits="userSpaceOnUse" id="gradient9" r="819.2" spreadMethod="pad">
      <stop offset="0.0" stop-color="#ffffff"/>
      <stop offset="0.2901960784313726" stop-color="#e8e8e8"/>
      <stop offset="0.4392156862745098" stop-color="#c4c4c4"/>
      <stop offset="0.7019607843137254" stop-color="#888888"/>
      <stop offset="0.8313725490196079" stop-color="#707070"/>
      <stop offset="1.0" stop-color="#d4d4d4"/>
    </radialGradient>
    <linearGradient gradientTransform="matrix(0.0031, 0.0037, 0.0037, -0.0031, 18.35, 8.3)" gradientUnits="userSpaceOnUse" id="gradient10" spreadMethod="pad" x1="-819.2" x2="819.2">
      <stop offset="0.0" stop-color="#d1f1ff"/>
      <stop offset="0.27450980392156865" stop-color="#8acae6"/>
      <stop offset="1.0" stop-color="#3131b0"/>
    </linearGradient>
    <linearGradient gradientTransform="matrix(-0.002, 0.0, 0.0, 0.002, 19.25, 6.75)" gradientUnits="userSpaceOnUse" id="gradient11" spreadMethod="pad" x1="-819.2" x2="819.2">
      <stop offset="0.0" stop-color="#d1f1ff"/>
      <stop offset="0.27450980392156865" stop-color="#8acae6"/>
      <stop offset="1.0" stop-color="#3131b0"/>
    </linearGradient>
    <linearGradient gradientTransform="matrix(0.0031, 0.0037, -0.0037, 0.0031, 18.35, 27.2)" gradientUnits="userSpaceOnUse" id="gradient12" spreadMethod="pad" x1="-819.2" x2="819.2">
      <stop offset="0.0" stop-color="#d1f1ff"/>
      <stop offset="0.27450980392156865" stop-color="#8acae6"/>
      <stop offset="1.0" stop-color="#3131b0"/>
    </linearGradient>
    <linearGradient gradientTransform="matrix(-0.002, 0.0, 0.0, -0.002, 19.25, 28.75)" gradientUnits="userSpaceOnUse" id="gradient13" spreadMethod="pad" x1="-819.2" x2="819.2">
      <stop offset="0.0" stop-color="#d1f1ff"/>
      <stop offset="0.27450980392156865" stop-color="#8acae6"/>
      <stop offset="1.0" stop-color="#3131b0"/>
    </linearGradient>
    <linearGradient gradientTransform="matrix(0.0, -0.0022, -0.0022, 0.0, 6.9, 19.5)" gradientUnits="userSpaceOnUse" id="gradient14" spreadMethod="pad" x1="-819.2" x2="819.2">
      <stop offset="0.0" stop-color="#d1f1ff"/>
      <stop offset="0.27450980392156865" stop-color="#8acae6"/>
      <stop offset="1.0" stop-color="#3131b0"/>
    </linearGradient>
    <linearGradient gradientTransform="matrix(0.0037, 0.0018, 0.0018, -0.0037, 8.45, 17.5)" gradientUnits="userSpaceOnUse" id="gradient15" spreadMethod="pad" x1="-819.2" x2="819.2">
      <stop offset="0.0" stop-color="#d1f1ff"/>
      <stop offset="0.27450980392156865" stop-color="#8acae6"/>
      <stop offset="1.0" stop-color="#3131b0"/>
    </linearGradient>
    <linearGradient gradientTransform="matrix(0.0, 0.0022, -0.0022, 0.0, 28.95, 19.5)" gradientUnits="userSpaceOnUse" id="gradient16" spreadMethod="pad" x1="-819.2" x2="819.2">
      <stop offset="0.0" stop-color="#d1f1ff"/>
      <stop offset="0.27450980392156865" stop-color="#8acae6"/>
      <stop offset="1.0" stop-color="#3131b0"/>
    </linearGradient>
    <linearGradient gradientTransform="matrix(-0.0037, -0.0018, 0.0018, -0.0037, 27.35, 17.5)" gradientUnits="userSpaceOnUse" id="gradient17" spreadMethod="pad" x1="-819.2" x2="819.2">
      <stop offset="0.0" stop-color="#d1f1ff"/>
      <stop offset="0.27450980392156865" stop-color="#8acae6"/>
      <stop offset="1.0" stop-color="#3131b0"/>
    </linearGradient>
  </defs>
</svg>
