<?xml version="1.0" encoding="UTF-8" standalone="no"?>
<svg xmlns:ffdec="https://www.free-decompiler.com/flash" xmlns:xlink="http://www.w3.org/1999/xlink" ffdec:objectType="shape" height="35.2px" width="35.15px" xmlns="http://www.w3.org/2000/svg">
  <g transform="matrix(1.0, 0.0, 0.0, 1.0, -0.35, -0.15)">
    <path d="M3.65 11.85 Q3.8 11.5 4.3 11.4 L7.85 11.45 Q6.65 9.45 5.3 6.05 5.2 5.55 5.5 5.35 5.65 5.1 6.0 5.1 L6.2 5.15 Q9.1 6.2 11.65 7.65 11.5 6.2 11.6 4.1 11.6 3.65 12.0 3.5 L12.3 3.45 12.75 3.65 15.25 6.15 Q15.95 3.55 17.3 0.6 L17.9 0.15 18.55 0.6 Q19.9 3.55 20.6 6.15 L23.1 3.65 23.55 3.45 23.85 3.5 Q24.25 3.65 24.25 4.1 L24.2 7.65 Q26.5 6.3 29.6 5.15 L29.85 5.1 30.35 5.35 Q30.7 5.6 30.5 6.05 29.3 9.35 28.0 11.45 L31.55 11.4 32.2 11.85 32.05 12.6 29.5 15.05 Q32.55 15.9 35.1 17.1 35.5 17.35 35.5 17.75 35.5 18.25 35.1 18.4 32.1 19.8 29.5 20.45 L32.05 22.95 Q32.35 23.25 32.2 23.65 32.0 24.1 31.55 24.1 L28.0 24.05 Q29.3 26.15 30.5 29.45 30.65 29.9 30.35 30.2 L29.85 30.4 29.6 30.35 Q26.5 29.2 24.2 27.85 L24.25 31.4 Q24.25 31.85 23.85 32.0 L23.55 32.05 23.1 31.9 20.6 29.35 Q19.95 31.8 18.55 34.95 18.4 35.35 17.9 35.35 17.45 35.35 17.3 34.95 15.9 31.8 15.25 29.35 L12.75 31.9 12.3 32.05 12.0 32.0 Q11.6 31.85 11.6 31.4 11.5 29.3 11.65 27.85 9.1 29.3 6.2 30.35 L6.0 30.4 5.5 30.2 Q5.2 29.9 5.3 29.45 6.65 26.05 7.85 24.05 L4.3 24.1 Q3.85 24.1 3.65 23.65 3.5 23.25 3.8 22.95 L6.35 20.45 Q3.75 19.8 0.75 18.4 0.35 18.25 0.35 17.75 0.35 17.35 0.75 17.1 3.3 15.9 6.35 15.05 L3.8 12.6 Q3.5 12.3 3.65 11.85" fill="#111a6b" fill-rule="evenodd" stroke="none"/>
    <path d="M24.7 11.0 Q27.5 13.8 27.5 17.75 27.5 21.75 24.7 24.55 21.9 27.35 17.9 27.35 13.95 27.35 11.15 24.55 8.35 21.7 8.35 17.75 8.35 13.8 11.15 11.0 13.95 8.2 17.9 8.2 21.9 8.2 24.7 11.0" fill="url(#gradient0)" fill-rule="evenodd" stroke="none"/>
    <path d="M14.3 14.15 Q13.15 15.0 11.7 15.2 L9.85 13.3 Q7.7 10.45 6.0 5.8 L14.3 14.15" fill="url(#gradient1)" fill-rule="evenodd" stroke="none"/>
    <path d="M14.3 14.15 L6.0 5.8 Q10.65 7.5 13.45 9.7 L15.35 11.55 Q15.15 13.0 14.3 14.15" fill="url(#gradient2)" fill-rule="evenodd" stroke="none"/>
    <path d="M22.4 25.8 L20.5 23.95 Q20.65 23.05 21.1 22.15 L21.55 21.4 29.85 29.7 Q25.25 28.0 22.4 25.8" fill="url(#gradient3)" fill-rule="evenodd" stroke="none"/>
    <path d="M29.85 29.7 L21.55 21.4 Q21.95 21.2 22.3 20.95 23.25 20.45 24.1 20.3 L25.95 22.25 Q28.15 25.1 29.85 29.7" fill="url(#gradient4)" fill-rule="evenodd" stroke="none"/>
    <path d="M14.3 21.4 L14.75 22.15 Q15.25 23.05 15.35 23.95 L13.45 25.8 Q10.65 28.0 6.0 29.7 L14.3 21.4" fill="url(#gradient5)" fill-rule="evenodd" stroke="none"/>
    <path d="M14.3 21.4 L6.0 29.7 Q7.7 25.1 9.85 22.25 10.95 20.8 11.7 20.3 13.15 20.5 14.3 21.4" fill="url(#gradient6)" fill-rule="evenodd" stroke="none"/>
    <path d="M24.1 15.2 Q23.25 15.1 22.3 14.6 L21.55 14.15 29.85 5.8 Q28.15 10.45 25.95 13.3 L24.1 15.2" fill="url(#gradient7)" fill-rule="evenodd" stroke="none"/>
    <path d="M22.4 9.7 Q25.25 7.5 29.85 5.8 L21.55 14.15 Q20.7 13.0 20.5 11.55 L22.4 9.7" fill="url(#gradient8)" fill-rule="evenodd" stroke="none"/>
    <path d="M14.3 14.15 Q13.15 15.0 11.7 15.2 L9.85 13.3 Q7.7 10.45 6.0 5.8 L14.3 14.15" fill="url(#gradient9)" fill-rule="evenodd" stroke="none"/>
    <path d="M14.3 14.15 L6.0 5.8 Q10.65 7.5 13.45 9.7 L15.35 11.55 Q15.15 13.0 14.3 14.15" fill="url(#gradient10)" fill-rule="evenodd" stroke="none"/>
    <path d="M22.4 25.8 L20.5 23.95 Q20.65 23.05 21.1 22.15 L21.55 21.4 29.85 29.7 Q25.25 28.0 22.4 25.8" fill="url(#gradient11)" fill-rule="evenodd" stroke="none"/>
    <path d="M29.85 29.7 L21.55 21.4 Q21.95 21.2 22.3 20.95 23.25 20.45 24.1 20.3 L25.95 22.25 Q28.15 25.1 29.85 29.7" fill="url(#gradient12)" fill-rule="evenodd" stroke="none"/>
    <path d="M14.3 21.4 L14.75 22.15 Q15.25 23.05 15.35 23.95 L13.45 25.8 Q10.65 28.0 6.0 29.7 L14.3 21.4" fill="url(#gradient13)" fill-rule="evenodd" stroke="none"/>
    <path d="M14.3 21.4 L6.0 29.7 Q7.7 25.1 9.85 22.25 10.95 20.8 11.7 20.3 13.15 20.5 14.3 21.4" fill="url(#gradient14)" fill-rule="evenodd" stroke="none"/>
    <path d="M24.1 15.2 Q23.25 15.1 22.3 14.6 L21.55 14.15 29.85 5.8 Q28.15 10.45 25.95 13.3 L24.1 15.2" fill="url(#gradient15)" fill-rule="evenodd" stroke="none"/>
    <path d="M22.4 9.7 Q25.25 7.5 29.85 5.8 L21.55 14.15 Q20.7 13.0 20.5 11.55 L22.4 9.7" fill="url(#gradient16)" fill-rule="evenodd" stroke="none"/>
    <path d="M13.8 16.05 Q13.15 17.15 12.05 17.75 L9.95 16.8 Q7.25 15.25 4.3 12.1 L13.8 16.05" fill="url(#gradient17)" fill-rule="evenodd" stroke="none"/>
    <path d="M13.8 16.05 L4.3 12.1 11.65 12.75 Q13.15 13.15 13.8 13.6 14.1 14.85 13.8 16.05" fill="url(#gradient18)" fill-rule="evenodd" stroke="none"/>
    <path d="M24.2 22.75 L22.05 21.9 Q21.85 21.15 21.95 20.25 L22.05 19.5 31.55 23.4 Q27.25 23.55 24.2 22.75" fill="url(#gradient19)" fill-rule="evenodd" stroke="none"/>
    <path d="M31.55 23.4 L22.05 19.5 22.5 18.85 23.75 17.75 25.9 18.7 Q28.6 20.25 31.55 23.4" fill="url(#gradient20)" fill-rule="evenodd" stroke="none"/>
    <path d="M16.2 21.9 L16.85 22.35 17.95 23.6 17.0 25.75 Q15.45 28.45 12.3 31.35 L16.2 21.9" fill="url(#gradient21)" fill-rule="evenodd" stroke="none"/>
    <path d="M16.2 21.9 L12.3 31.35 Q12.1 27.05 12.95 24.05 L13.8 21.9 Q15.0 21.55 16.2 21.9" fill="url(#gradient22)" fill-rule="evenodd" stroke="none"/>
    <path d="M19.65 13.6 L23.55 4.15 Q23.75 8.45 22.9 11.45 L22.05 13.65 20.4 13.75 19.65 13.6" fill="url(#gradient23)" fill-rule="evenodd" stroke="none"/>
    <path d="M19.65 13.6 Q18.55 13.0 17.9 11.9 L18.85 9.75 Q20.4 7.05 23.55 4.15 L19.65 13.6" fill="url(#gradient24)" fill-rule="evenodd" stroke="none"/>
    <path d="M16.2 13.6 L13.8 13.65 Q13.35 13.0 12.95 11.45 12.1 8.45 12.3 4.15 L16.2 13.6" fill="url(#gradient25)" fill-rule="evenodd" stroke="none"/>
    <path d="M16.2 13.6 L12.3 4.15 Q15.45 7.05 17.0 9.75 L17.95 11.9 16.85 13.15 16.2 13.6" fill="url(#gradient26)" fill-rule="evenodd" stroke="none"/>
    <path d="M19.65 21.9 L23.55 31.35 Q20.4 28.45 18.85 25.75 L17.9 23.6 Q18.55 22.5 19.65 21.9" fill="url(#gradient27)" fill-rule="evenodd" stroke="none"/>
    <path d="M19.65 21.9 L20.4 21.75 22.05 21.9 22.9 24.05 Q23.75 27.05 23.55 31.35 L19.65 21.9" fill="url(#gradient28)" fill-rule="evenodd" stroke="none"/>
    <path d="M13.8 19.5 L13.9 20.25 13.8 21.9 11.65 22.75 4.3 23.4 13.8 19.5" fill="url(#gradient29)" fill-rule="evenodd" stroke="none"/>
    <path d="M13.8 19.5 L4.3 23.4 Q7.25 20.25 9.95 18.7 11.3 17.9 12.05 17.75 13.15 18.4 13.8 19.5" fill="url(#gradient30)" fill-rule="evenodd" stroke="none"/>
    <path d="M22.5 16.7 L22.05 16.05 31.55 12.1 Q28.6 15.25 25.9 16.8 L23.75 17.75 22.5 16.7" fill="url(#gradient31)" fill-rule="evenodd" stroke="none"/>
    <path d="M24.2 12.75 Q27.25 11.95 31.55 12.1 L22.05 16.05 Q21.75 14.85 22.05 13.6 L24.2 12.75" fill="url(#gradient32)" fill-rule="evenodd" stroke="none"/>
    <path d="M23.2 12.5 Q25.35 14.65 25.35 17.75 25.35 20.85 23.2 23.05 21.0 25.2 17.9 25.2 14.8 25.2 12.65 23.05 10.45 20.85 10.45 17.75 10.45 14.7 12.65 12.5 14.85 10.3 17.9 10.3 21.0 10.3 23.2 12.5" fill="#666666" fill-rule="evenodd" stroke="none"/>
    <path d="M22.7 13.0 Q24.65 14.95 24.65 17.75 24.65 20.55 22.7 22.5 20.7 24.45 17.9 24.45 15.15 24.45 13.15 22.5 11.2 20.55 11.2 17.75 11.2 15.0 13.15 13.0 15.15 11.05 17.9 11.05 20.7 11.05 22.7 13.0" fill="url(#gradient33)" fill-rule="evenodd" stroke="none"/>
    <path d="M22.25 12.6 L23.05 13.45 18.75 17.75 23.05 22.05 22.25 22.9 17.9 18.6 13.6 22.9 12.8 22.05 17.1 17.75 12.8 13.45 13.6 12.6 17.9 16.95 22.25 12.6" fill="#373699" fill-rule="evenodd" stroke="none"/>
    <path d="M17.9 12.6 Q16.5 12.45 15.35 11.55 15.15 10.7 15.4 8.9 15.85 5.35 17.9 0.85 L17.9 12.6" fill="url(#gradient34)" fill-rule="evenodd" stroke="none"/>
    <path d="M17.9 12.6 L17.9 0.85 Q19.95 5.35 20.45 8.9 L20.5 11.55 Q19.8 12.1 18.75 12.4 L17.9 12.6" fill="url(#gradient35)" fill-rule="evenodd" stroke="none"/>
    <path d="M17.9 22.9 L17.9 34.65 Q15.85 30.2 15.4 26.6 L15.35 23.95 Q16.5 23.1 17.9 22.9" fill="url(#gradient36)" fill-rule="evenodd" stroke="none"/>
    <path d="M17.9 22.9 L18.75 23.1 Q19.8 23.4 20.5 23.95 L20.45 26.6 Q19.95 30.2 17.9 34.65 L17.9 22.9" fill="url(#gradient37)" fill-rule="evenodd" stroke="none"/>
    <path d="M12.8 17.75 Q12.6 19.2 11.75 20.35 L9.1 20.3 Q5.5 19.8 1.05 17.75 L12.8 17.75" fill="url(#gradient38)" fill-rule="evenodd" stroke="none"/>
    <path d="M9.1 15.25 L11.75 15.2 Q12.6 16.35 12.8 17.75 L1.05 17.75 Q5.5 15.7 9.1 15.25" fill="url(#gradient39)" fill-rule="evenodd" stroke="none"/>
    <path d="M34.8 17.75 Q30.35 19.8 26.75 20.3 L24.1 20.35 Q23.55 19.65 23.25 18.6 L23.05 17.75 34.8 17.75" fill="url(#gradient40)" fill-rule="evenodd" stroke="none"/>
    <path d="M24.1 15.2 L26.75 15.25 Q30.35 15.7 34.8 17.75 L23.05 17.75 23.25 16.9 Q23.55 15.9 24.1 15.2" fill="url(#gradient41)" fill-rule="evenodd" stroke="none"/>
  </g>
  <defs>
    <radialGradient cx="0" cy="0" gradientTransform="matrix(0.0151, 0.0, 0.0, -0.0151, 16.0, 15.1)" gradientUnits="userSpaceOnUse" id="gradient0" r="819.2" spreadMethod="pad">
      <stop offset="0.3686274509803922" stop-color="#e8e8e8"/>
      <stop offset="0.8313725490196079" stop-color="#858585"/>
      <stop offset="1.0" stop-color="#d4d4d4"/>
    </radialGradient>
    <linearGradient gradientTransform="matrix(0.0048, 5.0E-4, 5.0E-4, -0.0048, 11.55, 10.75)" gradientUnits="userSpaceOnUse" id="gradient1" spreadMethod="pad" x1="-819.2" x2="819.2">
      <stop offset="0.0" stop-color="#ffffff"/>
      <stop offset="1.0" stop-color="#666666"/>
    </linearGradient>
    <linearGradient gradientTransform="matrix(-0.0014, 0.0014, 0.0014, 0.0014, 11.1, 9.05)" gradientUnits="userSpaceOnUse" id="gradient2" spreadMethod="pad" x1="-819.2" x2="819.2">
      <stop offset="0.0" stop-color="#ffffff"/>
      <stop offset="1.0" stop-color="#666666"/>
    </linearGradient>
    <linearGradient gradientTransform="matrix(0.0048, 5.0E-4, -5.0E-4, 0.0048, 24.9, 24.15)" gradientUnits="userSpaceOnUse" id="gradient3" spreadMethod="pad" x1="-819.2" x2="819.2">
      <stop offset="0.0" stop-color="#ffffff"/>
      <stop offset="1.0" stop-color="#666666"/>
    </linearGradient>
    <linearGradient gradientTransform="matrix(-0.0014, 0.0014, -0.0014, -0.0014, 26.65, 24.55)" gradientUnits="userSpaceOnUse" id="gradient4" spreadMethod="pad" x1="-819.2" x2="819.2">
      <stop offset="0.0" stop-color="#ffffff"/>
      <stop offset="1.0" stop-color="#666666"/>
    </linearGradient>
    <linearGradient gradientTransform="matrix(-0.0015, -0.0016, -0.0016, 0.0015, 11.35, 26.8)" gradientUnits="userSpaceOnUse" id="gradient5" spreadMethod="pad" x1="-819.2" x2="819.2">
      <stop offset="0.0" stop-color="#ffffff"/>
      <stop offset="1.0" stop-color="#666666"/>
    </linearGradient>
    <linearGradient gradientTransform="matrix(0.0039, -0.0013, -0.0013, -0.0039, 11.05, 24.25)" gradientUnits="userSpaceOnUse" id="gradient6" spreadMethod="pad" x1="-819.2" x2="819.2">
      <stop offset="0.0" stop-color="#ffffff"/>
      <stop offset="1.0" stop-color="#666666"/>
    </linearGradient>
    <linearGradient gradientTransform="matrix(0.0015, 0.0016, -0.0016, 0.0015, 26.95, 11.2)" gradientUnits="userSpaceOnUse" id="gradient7" spreadMethod="pad" x1="-819.2" x2="819.2">
      <stop offset="0.0" stop-color="#ffffff"/>
      <stop offset="1.0" stop-color="#666666"/>
    </linearGradient>
    <linearGradient gradientTransform="matrix(-0.0039, 0.0013, -0.0013, -0.0039, 24.45, 10.9)" gradientUnits="userSpaceOnUse" id="gradient8" spreadMethod="pad" x1="-819.2" x2="819.2">
      <stop offset="0.0" stop-color="#ffffff"/>
      <stop offset="1.0" stop-color="#666666"/>
    </linearGradient>
    <linearGradient gradientTransform="matrix(0.0048, 5.0E-4, 5.0E-4, -0.0048, 11.55, 10.75)" gradientUnits="userSpaceOnUse" id="gradient9" spreadMethod="pad" x1="-819.2" x2="819.2">
      <stop offset="0.0" stop-color="#d1f1ff"/>
      <stop offset="0.27450980392156865" stop-color="#8acae6"/>
      <stop offset="1.0" stop-color="#3131b0"/>
    </linearGradient>
    <linearGradient gradientTransform="matrix(-0.0014, 0.0014, 0.0014, 0.0014, 11.1, 9.05)" gradientUnits="userSpaceOnUse" id="gradient10" spreadMethod="pad" x1="-819.2" x2="819.2">
      <stop offset="0.0" stop-color="#d1f1ff"/>
      <stop offset="0.27450980392156865" stop-color="#8acae6"/>
      <stop offset="1.0" stop-color="#3131b0"/>
    </linearGradient>
    <linearGradient gradientTransform="matrix(0.0048, 5.0E-4, -5.0E-4, 0.0048, 24.9, 24.15)" gradientUnits="userSpaceOnUse" id="gradient11" spreadMethod="pad" x1="-819.2" x2="819.2">
      <stop offset="0.0" stop-color="#d1f1ff"/>
      <stop offset="0.27450980392156865" stop-color="#8acae6"/>
      <stop offset="1.0" stop-color="#3131b0"/>
    </linearGradient>
    <linearGradient gradientTransform="matrix(-0.0014, 0.0014, -0.0014, -0.0014, 26.65, 24.55)" gradientUnits="userSpaceOnUse" id="gradient12" spreadMethod="pad" x1="-819.2" x2="819.2">
      <stop offset="0.0" stop-color="#d1f1ff"/>
      <stop offset="0.27450980392156865" stop-color="#8acae6"/>
      <stop offset="1.0" stop-color="#3131b0"/>
    </linearGradient>
    <linearGradient gradientTransform="matrix(-0.0015, -0.0016, -0.0016, 0.0015, 11.35, 26.8)" gradientUnits="userSpaceOnUse" id="gradient13" spreadMethod="pad" x1="-819.2" x2="819.2">
      <stop offset="0.0" stop-color="#d1f1ff"/>
      <stop offset="0.27450980392156865" stop-color="#8acae6"/>
      <stop offset="1.0" stop-color="#3131b0"/>
    </linearGradient>
    <linearGradient gradientTransform="matrix(0.0039, -0.0013, -0.0013, -0.0039, 11.05, 24.25)" gradientUnits="userSpaceOnUse" id="gradient14" spreadMethod="pad" x1="-819.2" x2="819.2">
      <stop offset="0.0" stop-color="#d1f1ff"/>
      <stop offset="0.27450980392156865" stop-color="#8acae6"/>
      <stop offset="1.0" stop-color="#3131b0"/>
    </linearGradient>
    <linearGradient gradientTransform="matrix(0.0015, 0.0016, -0.0016, 0.0015, 26.95, 11.2)" gradientUnits="userSpaceOnUse" id="gradient15" spreadMethod="pad" x1="-819.2" x2="819.2">
      <stop offset="0.0" stop-color="#d1f1ff"/>
      <stop offset="0.27450980392156865" stop-color="#8acae6"/>
      <stop offset="1.0" stop-color="#3131b0"/>
    </linearGradient>
    <linearGradient gradientTransform="matrix(-0.0039, 0.0013, -0.0013, -0.0039, 24.45, 10.9)" gradientUnits="userSpaceOnUse" id="gradient16" spreadMethod="pad" x1="-819.2" x2="819.2">
      <stop offset="0.0" stop-color="#d1f1ff"/>
      <stop offset="0.27450980392156865" stop-color="#8acae6"/>
      <stop offset="1.0" stop-color="#3131b0"/>
    </linearGradient>
    <linearGradient gradientTransform="matrix(0.004, -0.0012, -0.0012, -0.004, 10.45, 14.25)" gradientUnits="userSpaceOnUse" id="gradient17" spreadMethod="pad" x1="-819.2" x2="819.2">
      <stop offset="0.0" stop-color="#ffffff"/>
      <stop offset="1.0" stop-color="#666666"/>
    </linearGradient>
    <linearGradient gradientTransform="matrix(-7.0E-4, 0.0016, 0.0016, 7.0E-4, 9.5, 13.0)" gradientUnits="userSpaceOnUse" id="gradient18" spreadMethod="pad" x1="-819.2" x2="819.2">
      <stop offset="0.0" stop-color="#ffffff"/>
      <stop offset="1.0" stop-color="#666666"/>
    </linearGradient>
    <linearGradient gradientTransform="matrix(0.004, -0.0012, 0.0012, 0.004, 25.7, 20.6)" gradientUnits="userSpaceOnUse" id="gradient19" spreadMethod="pad" x1="-819.2" x2="819.2">
      <stop offset="0.0" stop-color="#ffffff"/>
      <stop offset="1.0" stop-color="#666666"/>
    </linearGradient>
    <linearGradient gradientTransform="matrix(-7.0E-4, 0.0016, -0.0016, -7.0E-4, 27.25, 20.35)" gradientUnits="userSpaceOnUse" id="gradient20" spreadMethod="pad" x1="-819.2" x2="819.2">
      <stop offset="0.0" stop-color="#ffffff"/>
      <stop offset="1.0" stop-color="#666666"/>
    </linearGradient>
    <linearGradient gradientTransform="matrix(-0.0018, -7.0E-4, -7.0E-4, 0.0018, 15.65, 27.25)" gradientUnits="userSpaceOnUse" id="gradient21" spreadMethod="pad" x1="-819.2" x2="819.2">
      <stop offset="0.0" stop-color="#ffffff"/>
      <stop offset="1.0" stop-color="#666666"/>
    </linearGradient>
    <linearGradient gradientTransform="matrix(0.0027, -0.0023, -0.0023, -0.0027, 14.55, 25.3)" gradientUnits="userSpaceOnUse" id="gradient22" spreadMethod="pad" x1="-819.2" x2="819.2">
      <stop offset="0.0" stop-color="#ffffff"/>
      <stop offset="1.0" stop-color="#666666"/>
    </linearGradient>
    <linearGradient gradientTransform="matrix(0.0018, 7.0E-4, -7.0E-4, 0.0018, 23.0, 9.45)" gradientUnits="userSpaceOnUse" id="gradient23" spreadMethod="pad" x1="-819.2" x2="819.2">
      <stop offset="0.0" stop-color="#ffffff"/>
      <stop offset="1.0" stop-color="#666666"/>
    </linearGradient>
    <linearGradient gradientTransform="matrix(-0.0027, 0.0023, -0.0023, -0.0027, 20.9, 10.05)" gradientUnits="userSpaceOnUse" id="gradient24" spreadMethod="pad" x1="-819.2" x2="819.2">
      <stop offset="0.0" stop-color="#ffffff"/>
      <stop offset="1.0" stop-color="#666666"/>
    </linearGradient>
    <linearGradient gradientTransform="matrix(0.0037, 0.002, 0.002, -0.0037, 15.1, 10.0)" gradientUnits="userSpaceOnUse" id="gradient25" spreadMethod="pad" x1="-819.2" x2="819.2">
      <stop offset="0.0" stop-color="#ffffff"/>
      <stop offset="1.0" stop-color="#666666"/>
    </linearGradient>
    <linearGradient gradientTransform="matrix(-0.0016, 6.0E-4, 6.0E-4, 0.0016, 15.35, 8.45)" gradientUnits="userSpaceOnUse" id="gradient26" spreadMethod="pad" x1="-819.2" x2="819.2">
      <stop offset="0.0" stop-color="#ffffff"/>
      <stop offset="1.0" stop-color="#666666"/>
    </linearGradient>
    <linearGradient gradientTransform="matrix(0.0037, 0.002, -0.002, 0.0037, 21.4, 25.25)" gradientUnits="userSpaceOnUse" id="gradient27" spreadMethod="pad" x1="-819.2" x2="819.2">
      <stop offset="0.0" stop-color="#ffffff"/>
      <stop offset="1.0" stop-color="#666666"/>
    </linearGradient>
    <linearGradient gradientTransform="matrix(-0.0016, 6.0E-4, -6.0E-4, -0.0016, 22.7, 26.15)" gradientUnits="userSpaceOnUse" id="gradient28" spreadMethod="pad" x1="-819.2" x2="819.2">
      <stop offset="0.0" stop-color="#ffffff"/>
      <stop offset="1.0" stop-color="#666666"/>
    </linearGradient>
    <linearGradient gradientTransform="matrix(-7.0E-4, -0.0018, -0.0018, 7.0E-4, 9.6, 22.85)" gradientUnits="userSpaceOnUse" id="gradient29" spreadMethod="pad" x1="-819.2" x2="819.2">
      <stop offset="0.0" stop-color="#ffffff"/>
      <stop offset="1.0" stop-color="#666666"/>
    </linearGradient>
    <linearGradient gradientTransform="matrix(0.0036, 2.0E-4, 2.0E-4, -0.0036, 10.2, 20.7)" gradientUnits="userSpaceOnUse" id="gradient30" spreadMethod="pad" x1="-819.2" x2="819.2">
      <stop offset="0.0" stop-color="#ffffff"/>
      <stop offset="1.0" stop-color="#666666"/>
    </linearGradient>
    <linearGradient gradientTransform="matrix(7.0E-4, 0.0018, -0.0018, 7.0E-4, 27.4, 15.45)" gradientUnits="userSpaceOnUse" id="gradient31" spreadMethod="pad" x1="-819.2" x2="819.2">
      <stop offset="0.0" stop-color="#ffffff"/>
      <stop offset="1.0" stop-color="#666666"/>
    </linearGradient>
    <linearGradient gradientTransform="matrix(-0.0036, -2.0E-4, 2.0E-4, -0.0036, 25.45, 14.4)" gradientUnits="userSpaceOnUse" id="gradient32" spreadMethod="pad" x1="-819.2" x2="819.2">
      <stop offset="0.0" stop-color="#ffffff"/>
      <stop offset="1.0" stop-color="#666666"/>
    </linearGradient>
    <radialGradient cx="0" cy="0" gradientTransform="matrix(0.0106, 0.0, 0.0, -0.0106, 16.55, 15.9)" gradientUnits="userSpaceOnUse" id="gradient33" r="819.2" spreadMethod="pad">
      <stop offset="0.0" stop-color="#dffaf8"/>
      <stop offset="0.19215686274509805" stop-color="#8fd3fa"/>
      <stop offset="0.5098039215686274" stop-color="#5480db"/>
      <stop offset="0.5372549019607843" stop-color="#5077d3"/>
      <stop offset="0.6549019607843137" stop-color="#4354b3"/>
      <stop offset="0.7490196078431373" stop-color="#3a3ea0"/>
      <stop offset="0.8117647058823529" stop-color="#373699"/>
      <stop offset="1.0" stop-color="#a075e6"/>
    </radialGradient>
    <linearGradient gradientTransform="matrix(0.0031, 0.0037, 0.0037, -0.0031, 18.35, 8.3)" gradientUnits="userSpaceOnUse" id="gradient34" spreadMethod="pad" x1="-819.2" x2="819.2">
      <stop offset="0.0" stop-color="#d1f1ff"/>
      <stop offset="0.27450980392156865" stop-color="#8acae6"/>
      <stop offset="1.0" stop-color="#3131b0"/>
    </linearGradient>
    <linearGradient gradientTransform="matrix(-0.002, 0.0, 0.0, 0.002, 19.3, 6.75)" gradientUnits="userSpaceOnUse" id="gradient35" spreadMethod="pad" x1="-819.2" x2="819.2">
      <stop offset="0.0" stop-color="#d1f1ff"/>
      <stop offset="0.27450980392156865" stop-color="#8acae6"/>
      <stop offset="1.0" stop-color="#3131b0"/>
    </linearGradient>
    <linearGradient gradientTransform="matrix(0.0031, 0.0037, -0.0037, 0.0031, 18.35, 27.2)" gradientUnits="userSpaceOnUse" id="gradient36" spreadMethod="pad" x1="-819.2" x2="819.2">
      <stop offset="0.0" stop-color="#d1f1ff"/>
      <stop offset="0.27450980392156865" stop-color="#8acae6"/>
      <stop offset="1.0" stop-color="#3131b0"/>
    </linearGradient>
    <linearGradient gradientTransform="matrix(-0.002, 0.0, 0.0, -0.002, 19.3, 28.75)" gradientUnits="userSpaceOnUse" id="gradient37" spreadMethod="pad" x1="-819.2" x2="819.2">
      <stop offset="0.0" stop-color="#d1f1ff"/>
      <stop offset="0.27450980392156865" stop-color="#8acae6"/>
      <stop offset="1.0" stop-color="#3131b0"/>
    </linearGradient>
    <linearGradient gradientTransform="matrix(0.0, -0.0022, -0.0022, 0.0, 6.9, 19.5)" gradientUnits="userSpaceOnUse" id="gradient38" spreadMethod="pad" x1="-819.2" x2="819.2">
      <stop offset="0.0" stop-color="#d1f1ff"/>
      <stop offset="0.27450980392156865" stop-color="#8acae6"/>
      <stop offset="1.0" stop-color="#3131b0"/>
    </linearGradient>
    <linearGradient gradientTransform="matrix(0.0037, 0.0018, 0.0018, -0.0037, 8.45, 17.5)" gradientUnits="userSpaceOnUse" id="gradient39" spreadMethod="pad" x1="-819.2" x2="819.2">
      <stop offset="0.0" stop-color="#d1f1ff"/>
      <stop offset="0.27450980392156865" stop-color="#8acae6"/>
      <stop offset="1.0" stop-color="#3131b0"/>
    </linearGradient>
    <linearGradient gradientTransform="matrix(0.0, 0.0022, -0.0022, 0.0, 28.95, 19.5)" gradientUnits="userSpaceOnUse" id="gradient40" spreadMethod="pad" x1="-819.2" x2="819.2">
      <stop offset="0.0" stop-color="#d1f1ff"/>
      <stop offset="0.27450980392156865" stop-color="#8acae6"/>
      <stop offset="1.0" stop-color="#3131b0"/>
    </linearGradient>
    <linearGradient gradientTransform="matrix(-0.0037, -0.0018, 0.0018, -0.0037, 27.4, 17.5)" gradientUnits="userSpaceOnUse" id="gradient41" spreadMethod="pad" x1="-819.2" x2="819.2">
      <stop offset="0.0" stop-color="#d1f1ff"/>
      <stop offset="0.27450980392156865" stop-color="#8acae6"/>
      <stop offset="1.0" stop-color="#3131b0"/>
    </linearGradient>
  </defs>
</svg>
