<?xml version="1.0" encoding="UTF-8" standalone="no"?>
<svg xmlns:ffdec="https://www.free-decompiler.com/flash" xmlns:xlink="http://www.w3.org/1999/xlink" ffdec:objectType="shape" height="19.2px" width="19.25px" xmlns="http://www.w3.org/2000/svg">
  <g transform="matrix(1.0, 0.0, 0.0, 1.0, 0.0, 0.0)">
    <path d="M13.25 6.0 L10.1 6.0 Q9.9 6.0 9.6 5.8 L9.15 6.0 5.95 6.0 5.95 9.15 5.8 9.6 5.95 10.05 5.95 13.2 9.15 13.2 9.6 13.4 10.1 13.2 13.25 13.2 13.25 10.05 Q13.25 9.75 13.4 9.6 L13.25 9.15 13.25 6.0 M19.25 10.05 L19.25 18.5 19.05 19.0 18.55 19.2 10.1 19.2 Q9.9 19.2 9.6 19.0 L9.15 19.2 0.7 19.2 Q0.0 19.2 0.0 18.5 L0.0 10.05 Q0.0 9.75 0.15 9.6 0.0 9.45 0.0 9.15 L0.0 0.7 Q0.0 0.0 0.7 0.0 L9.15 0.0 9.6 0.2 10.1 0.0 18.55 0.0 Q19.25 0.0 19.25 0.7 L19.25 9.15 19.1 9.6 19.25 10.05" fill="#000000" fill-rule="evenodd" stroke="none"/>
  </g>
</svg>
