<?xml version="1.0" encoding="UTF-8" standalone="no"?>
<svg xmlns:ffdec="https://www.free-decompiler.com/flash" xmlns:xlink="http://www.w3.org/1999/xlink" ffdec:objectType="shape" height="19.15px" width="19.25px" xmlns="http://www.w3.org/2000/svg">
  <g transform="matrix(1.0, 0.0, 0.0, 1.0, -8.3, -8.2)">
    <path d="M9.0 8.2 L17.45 8.2 17.95 8.35 Q18.1 8.2 18.4 8.2 L26.85 8.2 Q27.55 8.2 27.55 8.85 L27.55 17.35 27.4 17.75 27.55 18.2 27.55 26.65 Q27.55 27.35 26.85 27.35 L18.4 27.35 Q18.1 27.35 17.95 27.15 L17.45 27.35 9.0 27.35 Q8.3 27.35 8.3 26.65 L8.3 18.2 8.45 17.75 8.3 17.35 8.3 8.85 Q8.3 8.2 9.0 8.2 M17.95 13.95 L17.45 14.15 14.3 14.15 14.3 17.35 14.15 17.75 14.3 18.2 14.3 21.4 17.45 21.4 17.95 21.55 Q18.1 21.4 18.4 21.4 L21.6 21.4 21.6 18.2 Q21.6 18.0 21.75 17.75 L21.6 17.35 21.6 14.15 18.4 14.15 Q18.1 14.15 17.95 13.95" fill="#0f2c40" fill-rule="evenodd" stroke="none"/>
    <path d="M13.6 17.35 L9.0 17.35 9.0 8.85 17.45 8.85 17.45 13.45 13.6 13.45 13.6 17.35" fill="url(#gradient0)" fill-rule="evenodd" stroke="none"/>
    <path d="M9.8 9.7 L9.8 17.35 9.0 17.35 9.0 8.85 17.45 8.85 17.45 9.7 9.8 9.7" fill="#c7fff8" fill-rule="evenodd" stroke="none"/>
    <path d="M13.6 18.2 L13.6 22.05 17.45 22.05 17.45 26.65 9.0 26.65 9.0 18.2 13.6 18.2" fill="url(#gradient1)" fill-rule="evenodd" stroke="none"/>
    <path d="M9.8 18.2 L9.8 25.85 17.45 25.85 17.45 26.65 9.0 26.65 9.0 18.2 9.8 18.2" fill="#f2f2f2" fill-rule="evenodd" stroke="none"/>
    <path d="M22.25 17.35 L22.25 13.45 18.4 13.45 18.4 8.85 26.85 8.85 26.85 17.35 22.25 17.35" fill="url(#gradient2)" fill-rule="evenodd" stroke="none"/>
    <path d="M26.05 9.7 L18.4 9.7 18.4 8.85 26.85 8.85 26.85 17.35 26.05 17.35 26.05 9.7" fill="#f2f2f2" fill-rule="evenodd" stroke="none"/>
    <path d="M22.25 18.2 L26.85 18.2 26.85 26.65 18.4 26.65 18.4 22.05 22.25 22.05 22.25 18.2" fill="url(#gradient3)" fill-rule="evenodd" stroke="none"/>
    <path d="M26.05 18.2 L26.85 18.2 26.85 26.65 18.4 26.65 18.4 25.85 26.05 25.85 26.05 18.2" fill="#c7fff8" fill-rule="evenodd" stroke="none"/>
  </g>
  <defs>
    <linearGradient gradientTransform="matrix(0.0041, 0.0042, 0.0042, -0.0041, 12.5, 12.35)" gradientUnits="userSpaceOnUse" id="gradient0" spreadMethod="pad" x1="-819.2" x2="819.2">
      <stop offset="0.0" stop-color="#169191"/>
      <stop offset="0.2627450980392157" stop-color="#1aafb3"/>
      <stop offset="0.6862745098039216" stop-color="#21e5f2"/>
      <stop offset="1.0" stop-color="#8ffff2"/>
    </linearGradient>
    <linearGradient gradientTransform="matrix(-0.0039, 0.004, 0.004, 0.0039, 12.8, 22.9)" gradientUnits="userSpaceOnUse" id="gradient1" spreadMethod="pad" x1="-819.2" x2="819.2">
      <stop offset="0.0" stop-color="#e8e8e8"/>
      <stop offset="0.17647058823529413" stop-color="#dedede"/>
      <stop offset="0.47843137254901963" stop-color="#c2c2c2"/>
      <stop offset="0.8705882352941177" stop-color="#969696"/>
      <stop offset="1.0" stop-color="#858585"/>
    </linearGradient>
    <linearGradient gradientTransform="matrix(0.0039, 0.0039, -0.0039, 0.0039, 23.25, 12.5)" gradientUnits="userSpaceOnUse" id="gradient2" spreadMethod="pad" x1="-819.2" x2="819.2">
      <stop offset="0.0" stop-color="#e8e8e8"/>
      <stop offset="0.17647058823529413" stop-color="#dedede"/>
      <stop offset="0.47843137254901963" stop-color="#c2c2c2"/>
      <stop offset="0.8705882352941177" stop-color="#969696"/>
      <stop offset="1.0" stop-color="#858585"/>
    </linearGradient>
    <linearGradient gradientTransform="matrix(-0.0038, -0.0038, -0.0038, 0.0038, 22.85, 22.65)" gradientUnits="userSpaceOnUse" id="gradient3" spreadMethod="pad" x1="-819.2" x2="819.2">
      <stop offset="0.0" stop-color="#169191"/>
      <stop offset="0.2627450980392157" stop-color="#1aafb3"/>
      <stop offset="0.6862745098039216" stop-color="#21e5f2"/>
      <stop offset="1.0" stop-color="#8ffff2"/>
    </linearGradient>
  </defs>
</svg>
