<?xml version="1.0" encoding="UTF-8" standalone="no"?>
<svg xmlns:ffdec="https://www.free-decompiler.com/flash" xmlns:xlink="http://www.w3.org/1999/xlink" ffdec:objectType="shape" height="28.95px" width="28.95px" xmlns="http://www.w3.org/2000/svg">
  <g transform="matrix(1.0, 0.0, 0.0, 1.0, 0.0, 0.0)">
    <path d="M28.95 5.75 L28.95 9.45 28.75 9.9 28.25 10.1 26.45 10.1 26.45 18.8 28.25 18.8 28.75 19.0 28.95 19.5 28.95 23.15 Q28.95 23.85 28.25 23.85 L26.45 23.85 26.45 25.8 Q26.45 26.5 25.8 26.5 L23.85 26.5 23.85 28.25 Q23.85 28.95 23.15 28.95 L19.5 28.95 Q18.8 28.95 18.8 28.25 L18.8 26.5 10.1 26.5 10.1 28.25 Q10.1 28.95 9.4 28.95 L5.75 28.95 Q5.05 28.95 5.05 28.25 L5.05 26.5 3.1 26.5 Q2.45 26.5 2.45 25.8 L2.45 23.85 0.65 23.85 Q0.0 23.85 0.0 23.15 L0.0 19.5 0.2 19.0 Q0.4 18.8 0.65 18.8 L2.45 18.8 2.45 10.1 0.65 10.1 Q0.0 10.1 0.0 9.45 L0.0 5.75 Q0.0 5.1 0.65 5.1 L2.45 5.1 2.45 3.15 Q2.45 2.45 3.1 2.45 L5.05 2.45 5.05 0.7 Q5.05 0.0 5.75 0.0 L9.4 0.0 Q10.1 0.0 10.1 0.7 L10.1 2.45 18.8 2.45 18.8 0.7 Q18.8 0.0 19.5 0.0 L23.15 0.0 Q23.85 0.0 23.85 0.7 L23.85 2.45 25.8 2.45 Q26.45 2.45 26.45 3.15 L26.45 5.1 28.25 5.1 28.75 5.3 28.95 5.75" fill="#000000" fill-rule="evenodd" stroke="none"/>
  </g>
</svg>
