<?xml version="1.0" encoding="UTF-8" standalone="no"?>
<svg xmlns:ffdec="https://www.free-decompiler.com/flash" xmlns:xlink="http://www.w3.org/1999/xlink" ffdec:objectType="shape" height="28.95px" width="28.95px" xmlns="http://www.w3.org/2000/svg">
  <g transform="matrix(1.0, 0.0, 0.0, 1.0, -3.3, -3.1)">
    <path d="M27.15 3.8 L27.15 5.55 29.1 5.55 Q29.8 5.55 29.8 6.25 L29.8 8.2 31.55 8.2 Q32.25 8.2 32.25 8.9 L32.25 12.55 Q32.25 13.25 31.55 13.25 L29.8 13.25 29.8 21.95 31.55 21.95 Q32.25 21.95 32.25 22.65 L32.25 26.3 Q32.25 26.95 31.55 26.95 L29.8 26.95 29.8 28.9 Q29.8 29.6 29.1 29.6 L27.15 29.6 27.15 31.4 Q27.15 32.05 26.45 32.05 L22.8 32.05 Q22.15 32.05 22.15 31.4 L22.15 29.6 13.4 29.6 13.4 31.4 Q13.4 32.05 12.75 32.05 L9.1 32.05 Q8.4 32.05 8.4 31.4 L8.4 29.6 6.45 29.6 Q5.75 29.6 5.75 28.9 L5.75 26.95 4.0 26.95 Q3.3 26.95 3.3 26.3 L3.3 22.65 Q3.3 21.95 4.0 21.95 L5.75 21.95 5.75 13.25 4.0 13.25 Q3.3 13.25 3.3 12.55 L3.3 8.9 Q3.3 8.2 4.0 8.2 L5.75 8.2 5.75 6.25 5.95 5.75 6.45 5.55 8.4 5.55 8.4 3.8 Q8.4 3.1 9.1 3.1 L12.75 3.1 Q13.4 3.1 13.4 3.8 L13.4 5.55 22.15 5.55 22.15 3.8 Q22.15 3.1 22.8 3.1 L26.45 3.1 Q27.15 3.1 27.15 3.8" fill="#0f2c40" fill-rule="evenodd" stroke="none"/>
    <path d="M29.1 28.9 L6.45 28.9 6.45 6.25 29.1 6.25 29.1 28.9" fill="#f2f2f2" fill-rule="evenodd" stroke="none"/>
    <path d="M7.15 28.25 L7.15 6.95 28.4 6.95 28.4 28.25 7.15 28.25" fill="url(#gradient0)" fill-rule="evenodd" stroke="none"/>
    <path d="M27.4 6.25 L27.4 7.95 29.1 7.95 29.1 13.5 23.75 13.5 23.75 21.7 29.1 21.7 29.1 27.2 27.4 27.2 27.4 28.9 21.9 28.9 21.9 23.55 13.65 23.55 13.65 28.9 8.15 28.9 8.15 27.2 6.45 27.2 6.45 21.7 11.8 21.7 11.8 13.5 6.45 13.5 6.45 7.95 8.15 7.95 8.15 6.25 13.65 6.25 13.65 11.6 21.9 11.6 21.9 6.25 27.4 6.25" fill="#666666" fill-rule="evenodd" stroke="none"/>
    <path d="M31.55 22.65 L31.55 26.3 26.45 26.3 26.45 31.4 22.8 31.4 22.8 22.65 31.55 22.65" fill="url(#gradient1)" fill-rule="evenodd" stroke="none"/>
    <path d="M31.55 22.65 L31.55 23.5 23.65 23.5 23.65 31.4 22.8 31.4 22.8 22.65 31.55 22.65" fill="#c7fff8" fill-rule="evenodd" stroke="none"/>
    <path d="M26.45 3.8 L26.45 8.9 31.55 8.9 31.55 12.55 22.8 12.55 22.8 3.8 26.45 3.8" fill="url(#gradient2)" fill-rule="evenodd" stroke="none"/>
    <path d="M31.55 12.55 L22.8 12.55 22.8 3.8 23.65 3.8 23.65 11.7 31.55 11.7 31.55 12.55" fill="#c7fff8" fill-rule="evenodd" stroke="none"/>
    <path d="M4.0 22.65 L12.75 22.65 12.75 31.4 9.1 31.4 9.1 26.3 4.0 26.3 4.0 22.65" fill="url(#gradient3)" fill-rule="evenodd" stroke="none"/>
    <path d="M12.75 22.65 L12.75 31.4 11.9 31.4 11.9 23.5 4.0 23.5 4.0 22.65 12.75 22.65" fill="#c7fff8" fill-rule="evenodd" stroke="none"/>
    <path d="M12.75 12.55 L4.0 12.55 4.0 8.9 9.1 8.9 9.1 3.8 12.75 3.8 12.75 12.55" fill="url(#gradient4)" fill-rule="evenodd" stroke="none"/>
    <path d="M11.9 11.7 L11.9 3.8 12.75 3.8 12.75 12.55 4.0 12.55 4.0 11.7 11.9 11.7" fill="#c7fff8" fill-rule="evenodd" stroke="none"/>
    <path d="M22.8 22.65 L12.75 22.65 12.75 12.55 22.8 12.55 22.8 22.65" fill="url(#gradient5)" fill-rule="evenodd" stroke="none"/>
    <path d="M12.75 12.55 L22.8 12.55 22.8 22.65 22.15 22.65 22.15 13.3 13.4 13.3 13.4 22.65 12.75 22.65 12.75 12.55" fill="#c7fff8" fill-rule="evenodd" stroke="none"/>
  </g>
  <defs>
    <radialGradient cx="0" cy="0" gradientTransform="matrix(0.0163, 0.0, 0.0, -0.0163, 17.8, 17.6)" gradientUnits="userSpaceOnUse" id="gradient0" r="819.2" spreadMethod="pad">
      <stop offset="0.3568627450980392" stop-color="#e8e8e8"/>
      <stop offset="0.44313725490196076" stop-color="#e3e3e3"/>
      <stop offset="0.5450980392156862" stop-color="#d5d5d5"/>
      <stop offset="0.6549019607843137" stop-color="#bebebe"/>
      <stop offset="0.7647058823529411" stop-color="#9e9e9e"/>
      <stop offset="0.8352941176470589" stop-color="#858585"/>
      <stop offset="1.0" stop-color="#adadad"/>
    </radialGradient>
    <linearGradient gradientTransform="matrix(0.004, 0.0041, 0.0041, -0.004, 26.25, 26.05)" gradientUnits="userSpaceOnUse" id="gradient1" spreadMethod="pad" x1="-819.2" x2="819.2">
      <stop offset="0.0" stop-color="#169191"/>
      <stop offset="0.2627450980392157" stop-color="#1aafb3"/>
      <stop offset="0.6862745098039216" stop-color="#21e5f2"/>
      <stop offset="1.0" stop-color="#8ffff2"/>
    </linearGradient>
    <linearGradient gradientTransform="matrix(0.004, 0.0041, -0.0041, 0.004, 26.25, 9.15)" gradientUnits="userSpaceOnUse" id="gradient2" spreadMethod="pad" x1="-819.2" x2="819.2">
      <stop offset="0.0" stop-color="#169191"/>
      <stop offset="0.2627450980392157" stop-color="#1aafb3"/>
      <stop offset="0.6862745098039216" stop-color="#21e5f2"/>
      <stop offset="1.0" stop-color="#8ffff2"/>
    </linearGradient>
    <linearGradient gradientTransform="matrix(-0.004, -0.0041, 0.0041, -0.004, 9.3, 26.05)" gradientUnits="userSpaceOnUse" id="gradient3" spreadMethod="pad" x1="-819.2" x2="819.2">
      <stop offset="0.0" stop-color="#169191"/>
      <stop offset="0.2627450980392157" stop-color="#1aafb3"/>
      <stop offset="0.6862745098039216" stop-color="#21e5f2"/>
      <stop offset="1.0" stop-color="#8ffff2"/>
    </linearGradient>
    <linearGradient gradientTransform="matrix(-0.004, -0.0041, -0.0041, 0.004, 9.3, 9.15)" gradientUnits="userSpaceOnUse" id="gradient4" spreadMethod="pad" x1="-819.2" x2="819.2">
      <stop offset="0.0" stop-color="#169191"/>
      <stop offset="0.2627450980392157" stop-color="#1aafb3"/>
      <stop offset="0.6862745098039216" stop-color="#21e5f2"/>
      <stop offset="1.0" stop-color="#8ffff2"/>
    </linearGradient>
    <linearGradient gradientTransform="matrix(0.0, 0.0061, 0.0061, 0.0, 17.8, 18.15)" gradientUnits="userSpaceOnUse" id="gradient5" spreadMethod="pad" x1="-819.2" x2="819.2">
      <stop offset="0.0" stop-color="#169191"/>
      <stop offset="0.2627450980392157" stop-color="#1aafb3"/>
      <stop offset="0.6862745098039216" stop-color="#21e5f2"/>
      <stop offset="1.0" stop-color="#8ffff2"/>
    </linearGradient>
  </defs>
</svg>
