<?xml version="1.0" encoding="UTF-8" standalone="no"?>
<svg xmlns:ffdec="https://www.free-decompiler.com/flash" xmlns:xlink="http://www.w3.org/1999/xlink" ffdec:objectType="shape" height="20.35px" width="23.3px" xmlns="http://www.w3.org/2000/svg">
  <g transform="matrix(1.0, 0.0, 0.0, 1.0, 0.05, 0.0)">
    <path d="M22.55 20.35 L14.5 20.35 Q14.05 20.35 13.9 20.0 13.65 19.7 13.9 19.3 L15.4 16.65 7.85 16.65 9.4 19.3 9.4 20.0 Q9.2 20.35 8.8 20.35 L0.7 20.35 Q0.25 20.35 0.1 20.0 -0.15 19.7 0.1 19.3 L4.15 12.3 Q4.35 11.95 4.75 11.95 5.1 11.95 5.35 12.3 L6.9 15.0 10.6 8.6 7.5 8.6 Q7.1 8.6 6.9 8.25 6.65 7.9 6.9 7.55 L11.0 0.35 Q11.25 0.0 11.65 0.0 12.0 0.0 12.25 0.35 L16.4 7.55 Q16.6 7.9 16.4 8.25 16.15 8.6 15.8 8.6 L12.7 8.6 16.35 15.0 17.9 12.3 Q18.15 11.95 18.55 11.95 L19.15 12.3 23.2 19.3 23.2 20.0 22.55 20.35" fill="#000000" fill-rule="evenodd" stroke="none"/>
  </g>
</svg>
