<?xml version="1.0" encoding="UTF-8" standalone="no"?>
<svg xmlns:ffdec="https://www.free-decompiler.com/flash" xmlns:xlink="http://www.w3.org/1999/xlink" ffdec:objectType="shape" height="28.45px" width="26.0px" xmlns="http://www.w3.org/2000/svg">
  <g transform="matrix(1.0, 0.0, 0.0, 1.0, 0.0, 0.0)">
    <path d="M23.95 20.35 L18.1 20.35 13.6 28.1 Q13.45 28.45 13.0 28.45 12.55 28.45 12.4 28.1 L7.9 20.35 2.05 20.35 Q1.7 20.35 1.45 20.0 1.3 19.65 1.45 19.3 L4.4 14.25 0.1 6.8 Q-0.05 6.5 0.1 6.1 0.35 5.75 0.7 5.75 L9.25 5.75 12.4 0.35 Q12.6 0.0 13.0 0.0 13.45 0.0 13.6 0.35 L16.75 5.75 25.3 5.75 Q25.75 5.75 25.9 6.1 26.15 6.5 25.9 6.8 L21.6 14.25 24.55 19.3 Q24.8 19.65 24.55 20.0 L23.95 20.35" fill="#000000" fill-rule="evenodd" stroke="none"/>
  </g>
</svg>
