<?xml version="1.0" encoding="UTF-8" standalone="no"?>
<svg xmlns:ffdec="https://www.free-decompiler.com/flash" xmlns:xlink="http://www.w3.org/1999/xlink" ffdec:objectType="shape" height="28.45px" width="26.0px" xmlns="http://www.w3.org/2000/svg">
  <g transform="matrix(1.0, 0.0, 0.0, 1.0, -4.9, -5.05)">
    <path d="M18.5 5.4 L21.65 10.8 30.2 10.8 Q30.65 10.8 30.8 11.15 31.05 11.55 30.8 11.85 L26.5 19.3 29.45 24.35 Q29.7 24.7 29.45 25.05 L28.85 25.4 23.0 25.4 18.5 33.15 Q18.35 33.5 17.9 33.5 17.45 33.5 17.3 33.15 L12.8 25.4 6.95 25.4 Q6.6 25.4 6.35 25.05 6.2 24.7 6.35 24.35 L9.3 19.3 5.0 11.85 Q4.85 11.55 5.0 11.15 5.25 10.8 5.6 10.8 L14.15 10.8 17.3 5.4 Q17.5 5.05 17.9 5.05 18.35 5.05 18.5 5.4" fill="#42210b" fill-rule="evenodd" stroke="none"/>
    <path d="M5.6 11.5 L30.2 11.5 17.9 32.8 5.6 11.5" fill="url(#gradient0)" fill-rule="evenodd" stroke="none"/>
    <path d="M7.05 12.35 L28.75 12.35 17.9 31.15 7.05 12.35" fill="url(#gradient1)" fill-rule="evenodd" stroke="none"/>
    <path d="M17.9 5.75 L28.85 24.7 6.95 24.7 17.9 5.75" fill="url(#gradient2)" fill-rule="evenodd" stroke="none"/>
    <path d="M13.3 11.5 L22.5 11.5 26.35 18.15 21.95 25.85 13.85 25.85 9.45 18.15 13.3 11.5" fill="#666666" fill-rule="evenodd" stroke="none"/>
    <path d="M17.9 5.75 L28.85 24.7 6.95 24.7 17.9 5.75" fill="#fcee21" fill-rule="evenodd" stroke="none"/>
    <path d="M17.9 7.25 L27.55 23.95 8.25 23.95 17.9 7.25" fill="url(#gradient3)" fill-rule="evenodd" stroke="none"/>
    <path d="M15.2 16.35 L17.9 11.75 20.5 16.2 23.05 14.7 23.65 15.75 21.1 17.25 23.7 21.7 18.5 21.7 18.5 24.7 17.3 24.7 17.3 21.7 12.15 21.7 14.6 17.4 12.05 15.95 12.65 14.9 15.2 16.35" fill="#543026" fill-rule="evenodd" stroke="none"/>
    <path d="M13.4 21.0 L17.9 13.2 22.4 21.0 13.4 21.0" fill="url(#gradient4)" fill-rule="evenodd" stroke="none"/>
    <path d="M17.9 14.1 L13.95 21.0 13.4 21.0 17.9 13.2 22.4 21.0 21.85 21.0 17.9 14.1" fill="url(#gradient5)" fill-rule="evenodd" stroke="none"/>
  </g>
  <defs>
    <radialGradient cx="0" cy="0" gradientTransform="matrix(-0.0173, 0.0, 0.0, 0.0173, 18.05, 18.45)" gradientUnits="userSpaceOnUse" id="gradient0" r="819.2" spreadMethod="pad">
      <stop offset="0.4823529411764706" stop-color="#d4d4d4"/>
      <stop offset="1.0" stop-color="#ffffff"/>
    </radialGradient>
    <radialGradient cx="0" cy="0" gradientTransform="matrix(-0.0152, 0.0, 0.0, 0.0152, 18.05, 18.45)" gradientUnits="userSpaceOnUse" id="gradient1" r="819.2" spreadMethod="pad">
      <stop offset="0.49411764705882355" stop-color="#e8e8e8"/>
      <stop offset="0.5686274509803921" stop-color="#e3e3e3"/>
      <stop offset="0.6588235294117647" stop-color="#d5d5d5"/>
      <stop offset="0.7490196078431373" stop-color="#bebebe"/>
      <stop offset="0.8470588235294118" stop-color="#9e9e9e"/>
      <stop offset="0.9098039215686274" stop-color="#858585"/>
      <stop offset="1.0" stop-color="#d4d4d4"/>
    </radialGradient>
    <radialGradient cx="0" cy="0" gradientTransform="matrix(0.0154, 0.0, 0.0, -0.0154, 17.75, 18.55)" gradientUnits="userSpaceOnUse" id="gradient2" r="819.2" spreadMethod="pad">
      <stop offset="0.4823529411764706" stop-color="#d4d4d4"/>
      <stop offset="1.0" stop-color="#ffffff"/>
    </radialGradient>
    <radialGradient cx="0" cy="0" gradientTransform="matrix(0.0136, 0.0, 0.0, -0.0136, 17.8, 18.65)" gradientUnits="userSpaceOnUse" id="gradient3" r="819.2" spreadMethod="pad">
      <stop offset="0.0" stop-color="#fbf300"/>
      <stop offset="0.1411764705882353" stop-color="#fbee01"/>
      <stop offset="0.30980392156862746" stop-color="#fae004"/>
      <stop offset="0.49411764705882355" stop-color="#fac809"/>
      <stop offset="0.6823529411764706" stop-color="#f9a70f"/>
      <stop offset="0.8784313725490196" stop-color="#f87d18"/>
      <stop offset="1.0" stop-color="#f75f1e"/>
    </radialGradient>
    <linearGradient gradientTransform="matrix(-0.0039, -0.0038, -0.0038, 0.0039, 17.8, 19.15)" gradientUnits="userSpaceOnUse" id="gradient4" spreadMethod="pad" x1="-819.2" x2="819.2">
      <stop offset="0.0" stop-color="#ffffff"/>
      <stop offset="1.0" stop-color="#666666"/>
    </linearGradient>
    <linearGradient gradientTransform="matrix(0.0055, 0.0, 0.0, -0.0055, 17.9, 17.1)" gradientUnits="userSpaceOnUse" id="gradient5" spreadMethod="pad" x1="-819.2" x2="819.2">
      <stop offset="0.0" stop-color="#fdfdfe"/>
      <stop offset="0.9098039215686274" stop-color="#fdfdfe"/>
      <stop offset="1.0" stop-color="#fdfdfe"/>
    </linearGradient>
  </defs>
</svg>
