<?xml version="1.0" encoding="UTF-8" standalone="no"?>
<svg xmlns:ffdec="https://www.free-decompiler.com/flash" xmlns:xlink="http://www.w3.org/1999/xlink" ffdec:objectType="shape" height="25.95px" width="29.4px" xmlns="http://www.w3.org/2000/svg">
  <g transform="matrix(1.0, 0.0, 0.0, 1.0, 0.0, 0.0)">
    <path d="M23.3 5.1 L23.3 10.35 28.7 10.35 Q29.4 10.35 29.4 11.05 L29.4 14.85 Q29.4 15.55 28.7 15.55 L23.3 15.55 23.3 20.85 23.1 21.35 22.6 21.55 19.4 21.55 19.35 21.8 Q18.85 23.7 17.6 25.65 17.4 25.95 17.0 25.95 L10.9 25.45 Q10.45 25.45 10.25 24.95 10.15 24.45 10.55 24.2 12.3 22.95 13.15 21.55 L6.85 21.55 Q6.15 21.55 6.15 20.85 L6.15 15.55 0.7 15.55 Q0.0 15.55 0.0 14.85 L0.0 11.05 0.2 10.55 0.7 10.35 6.15 10.35 6.15 5.1 Q6.15 4.4 6.85 4.4 L9.95 4.4 10.15 3.45 Q10.65 1.65 11.55 0.3 11.8 0.0 12.15 0.0 L18.45 0.5 Q18.95 0.5 19.05 1.05 19.15 1.55 18.75 1.8 16.9 2.8 16.05 4.4 L22.6 4.4 Q23.3 4.4 23.3 5.1" fill="#000000" fill-rule="evenodd" stroke="none"/>
  </g>
</svg>
