<?xml version="1.0" encoding="UTF-8" standalone="no"?>
<svg xmlns:ffdec="https://www.free-decompiler.com/flash" xmlns:xlink="http://www.w3.org/1999/xlink" ffdec:objectType="shape" height="25.95px" width="29.4px" xmlns="http://www.w3.org/2000/svg">
  <g transform="matrix(1.0, 0.0, 0.0, 1.0, 0.0, 0.0)">
    <path d="M24.55 3.85 L24.55 6.45 28.7 6.45 Q29.4 6.45 29.4 7.15 L29.4 10.95 Q29.4 11.65 28.7 11.65 L24.55 11.65 24.55 14.35 28.7 14.35 Q29.4 14.35 29.4 15.05 L29.4 18.85 Q29.4 19.55 28.7 19.55 L24.55 19.55 24.55 22.1 Q24.55 22.7 23.9 22.8 23.35 24.4 22.5 25.65 22.3 25.95 21.9 25.95 L15.8 25.45 Q15.3 25.45 15.15 24.95 15.05 24.45 15.45 24.2 L17.05 22.8 14.1 22.8 Q13.7 24.15 12.7 25.65 L12.15 25.95 6.0 25.45 Q5.5 25.45 5.35 24.95 5.25 24.45 5.65 24.2 L7.3 22.8 5.6 22.8 Q4.9 22.8 4.9 22.1 L4.9 19.55 0.7 19.55 Q0.45 19.55 0.2 19.35 L0.0 18.85 0.0 15.05 Q0.0 14.35 0.7 14.35 L4.9 14.35 4.9 11.65 0.7 11.65 Q0.0 11.65 0.0 10.95 L0.0 7.15 Q0.0 6.45 0.7 6.45 L4.85 6.45 4.9 3.85 Q4.9 3.4 5.35 3.2 5.8 1.8 6.65 0.35 6.9 0.0 7.25 0.0 L13.55 0.5 Q14.05 0.6 14.15 1.05 14.3 1.55 13.85 1.8 12.95 2.3 12.1 3.15 L15.15 3.15 Q15.6 1.75 16.45 0.35 16.7 0.0 17.05 0.0 L23.35 0.5 Q23.85 0.6 23.95 1.05 24.05 1.55 23.65 1.8 22.75 2.3 21.9 3.15 L23.85 3.15 Q24.55 3.15 24.55 3.85" fill="#000000" fill-rule="evenodd" stroke="none"/>
  </g>
</svg>
