<?xml version="1.0" encoding="UTF-8" standalone="no"?>
<svg xmlns:ffdec="https://www.free-decompiler.com/flash" xmlns:xlink="http://www.w3.org/1999/xlink" ffdec:objectType="shape" height="25.95px" width="29.4px" xmlns="http://www.w3.org/2000/svg">
  <g transform="matrix(1.0, 0.0, 0.0, 1.0, -2.85, -4.7)">
    <path d="M26.5 6.5 Q25.6 7.0 24.75 7.85 L26.7 7.85 Q27.4 7.85 27.4 8.55 L27.4 11.15 31.55 11.15 Q32.25 11.15 32.25 11.85 L32.25 15.65 Q32.25 16.35 31.55 16.35 L27.4 16.35 27.4 19.05 31.55 19.05 Q32.25 19.05 32.25 19.75 L32.25 23.55 Q32.25 24.25 31.55 24.25 L27.4 24.25 27.4 26.8 Q27.4 27.4 26.75 27.5 26.2 29.1 25.35 30.35 25.15 30.65 24.75 30.65 L18.65 30.15 Q18.15 30.15 18.0 29.65 17.9 29.15 18.3 28.9 L19.9 27.5 16.95 27.5 Q16.55 28.85 15.55 30.35 L15.0 30.65 8.85 30.15 Q8.35 30.15 8.2 29.65 8.1 29.15 8.5 28.9 L10.15 27.5 8.45 27.5 Q7.75 27.5 7.75 26.8 L7.75 24.25 3.55 24.25 3.05 24.05 2.85 23.55 2.85 19.75 3.05 19.25 3.55 19.05 7.75 19.05 7.75 16.35 3.55 16.35 Q2.85 16.35 2.85 15.65 L2.85 11.85 3.05 11.35 3.55 11.15 7.7 11.15 7.75 8.55 Q7.75 8.1 8.2 7.9 8.65 6.5 9.5 5.05 9.75 4.7 10.1 4.7 L16.4 5.2 Q16.9 5.3 17.0 5.75 17.15 6.25 16.7 6.5 15.8 7.0 14.95 7.85 L18.0 7.85 19.3 5.05 Q19.55 4.7 19.9 4.7 L26.2 5.2 Q26.7 5.3 26.8 5.75 26.9 6.25 26.5 6.5" fill="#42210b" fill-rule="evenodd" stroke="none"/>
    <path d="M26.7 26.8 L8.45 26.8 8.45 8.55 26.7 8.55 26.7 26.8" fill="url(#gradient0)" fill-rule="evenodd" stroke="none"/>
    <path d="M31.55 15.65 L3.55 15.65 3.55 11.85 31.55 11.85 31.55 15.65" fill="url(#gradient1)" fill-rule="evenodd" stroke="none"/>
    <path d="M31.55 23.55 L3.55 23.55 3.55 19.75 31.55 19.75 31.55 23.55" fill="url(#gradient2)" fill-rule="evenodd" stroke="none"/>
    <path d="M17.6 15.65 Q16.95 13.7 16.85 11.85 L24.05 11.85 Q24.25 13.25 25.4 15.05 L25.8 15.65 17.6 15.65" fill="#999999" fill-rule="evenodd" stroke="none"/>
    <path d="M17.8 19.75 Q18.35 21.7 18.35 23.55 L11.2 23.55 Q11.15 21.95 9.8 19.75 L17.8 19.75" fill="#999999" fill-rule="evenodd" stroke="none"/>
    <path d="M27.55 19.75 Q28.15 21.65 28.15 23.55 L21.0 23.55 Q20.95 21.9 19.55 19.75 L27.55 19.75" fill="#999999" fill-rule="evenodd" stroke="none"/>
    <path d="M7.8 15.65 Q7.15 13.7 7.05 11.85 L14.25 11.85 Q14.45 13.25 15.6 15.05 L16.0 15.65 7.8 15.65" fill="#999999" fill-rule="evenodd" stroke="none"/>
    <path d="M16.35 5.9 Q13.5 7.6 12.95 9.85 12.25 12.35 14.45 15.8 17.9 21.2 16.6 26.35 16.15 28.1 15.0 29.95 L8.9 29.45 Q11.75 27.6 12.45 24.95 13.05 22.35 10.95 18.95 7.4 13.35 8.8 8.35 9.25 6.75 10.1 5.4 L16.35 5.9" fill="url(#gradient3)" fill-rule="evenodd" stroke="none"/>
    <path d="M10.8 6.2 Q9.95 7.65 9.45 9.2 8.1 14.15 11.6 19.75 13.8 23.15 13.1 25.8 12.55 27.85 10.45 29.6 L8.9 29.45 Q11.75 27.6 12.45 24.95 13.05 22.35 10.95 18.95 7.4 13.35 8.8 8.35 9.25 6.75 10.1 5.4 L16.35 5.9 15.35 6.6 10.8 6.2" fill="#fbf77e" fill-rule="evenodd" stroke="none"/>
    <path d="M26.1 5.9 Q23.3 7.65 22.7 9.85 22.1 12.35 24.25 15.8 27.7 21.2 26.4 26.35 25.9 28.2 24.75 29.95 L18.7 29.45 Q21.55 27.6 22.2 24.95 22.9 22.35 20.7 18.95 17.2 13.35 18.55 8.35 19.1 6.65 19.9 5.4 L26.1 5.9" fill="url(#gradient4)" fill-rule="evenodd" stroke="none"/>
    <path d="M20.6 6.2 Q19.6 7.8 19.25 9.2 17.9 14.15 21.4 19.75 23.6 23.15 22.9 25.8 22.35 27.85 20.25 29.6 L18.7 29.45 Q21.55 27.6 22.2 24.95 22.9 22.35 20.7 18.95 17.2 13.35 18.55 8.35 19.1 6.65 19.9 5.4 L26.1 5.9 25.15 6.6 20.6 6.2" fill="#fbf77e" fill-rule="evenodd" stroke="none"/>
  </g>
  <defs>
    <radialGradient cx="0" cy="0" gradientTransform="matrix(0.0139, 0.0, 0.0, -0.0139, 17.55, 17.7)" gradientUnits="userSpaceOnUse" id="gradient0" r="819.2" spreadMethod="pad">
      <stop offset="0.3254901960784314" stop-color="#999999"/>
      <stop offset="1.0" stop-color="#4d4d4d"/>
    </radialGradient>
    <radialGradient cx="0" cy="0" gradientTransform="matrix(0.0175, 0.0, 0.0, -0.0175, 17.55, 13.75)" gradientUnits="userSpaceOnUse" id="gradient1" r="819.2" spreadMethod="pad">
      <stop offset="0.3686274509803922" stop-color="#e8e8e8"/>
      <stop offset="0.8313725490196079" stop-color="#858585"/>
      <stop offset="1.0" stop-color="#d4d4d4"/>
    </radialGradient>
    <radialGradient cx="0" cy="0" gradientTransform="matrix(0.0175, 0.0, 0.0, -0.0175, 17.55, 21.65)" gradientUnits="userSpaceOnUse" id="gradient2" r="819.2" spreadMethod="pad">
      <stop offset="0.3686274509803922" stop-color="#e8e8e8"/>
      <stop offset="0.8313725490196079" stop-color="#858585"/>
      <stop offset="1.0" stop-color="#d4d4d4"/>
    </radialGradient>
    <radialGradient cx="0" cy="0" gradientTransform="matrix(0.0184, 0.0, 0.0, -0.0184, 8.75, 15.15)" gradientUnits="userSpaceOnUse" id="gradient3" r="819.2" spreadMethod="pad">
      <stop offset="0.0" stop-color="#fbf300"/>
      <stop offset="0.1411764705882353" stop-color="#fbee01"/>
      <stop offset="0.30980392156862746" stop-color="#fae004"/>
      <stop offset="0.49411764705882355" stop-color="#fac809"/>
      <stop offset="0.6823529411764706" stop-color="#f9a70f"/>
      <stop offset="0.8784313725490196" stop-color="#f87d18"/>
      <stop offset="1.0" stop-color="#f75f1e"/>
    </radialGradient>
    <radialGradient cx="0" cy="0" gradientTransform="matrix(0.0184, 0.0, 0.0, -0.0184, 18.55, 15.15)" gradientUnits="userSpaceOnUse" id="gradient4" r="819.2" spreadMethod="pad">
      <stop offset="0.0" stop-color="#fbf300"/>
      <stop offset="0.1411764705882353" stop-color="#fbee01"/>
      <stop offset="0.30980392156862746" stop-color="#fae004"/>
      <stop offset="0.49411764705882355" stop-color="#fac809"/>
      <stop offset="0.6823529411764706" stop-color="#f9a70f"/>
      <stop offset="0.8784313725490196" stop-color="#f87d18"/>
      <stop offset="1.0" stop-color="#f75f1e"/>
    </radialGradient>
  </defs>
</svg>
