<?xml version="1.0" encoding="UTF-8" standalone="no"?>
<svg xmlns:ffdec="https://www.free-decompiler.com/flash" xmlns:xlink="http://www.w3.org/1999/xlink" ffdec:objectType="shape" height="25.95px" width="29.4px" xmlns="http://www.w3.org/2000/svg">
  <g transform="matrix(1.0, 0.0, 0.0, 1.0, 0.0, 0.0)">
    <path d="M29.4 5.0 L29.4 8.8 29.2 9.35 28.7 9.55 25.25 9.55 25.25 10.35 28.7 10.35 29.2 10.55 29.4 11.05 29.4 14.85 Q29.4 15.55 28.7 15.55 L26.6 15.55 26.8 16.4 28.7 16.4 29.2 16.6 29.4 17.1 29.4 20.9 Q29.4 21.6 28.7 21.6 L26.7 21.6 26.65 21.8 Q26.25 23.65 24.95 25.65 24.75 25.95 24.35 25.95 L18.2 25.45 Q17.95 25.45 17.8 25.25 L17.55 25.65 Q17.4 25.95 17.0 25.95 L10.85 25.45 Q10.6 25.45 10.45 25.25 L10.2 25.65 Q10.0 25.95 9.6 25.95 L3.45 25.45 Q3.05 25.45 2.85 24.95 2.75 24.45 3.15 24.2 L4.25 23.3 4.1 22.85 4.1 21.6 0.7 21.6 Q0.0 21.6 0.0 20.9 L0.0 17.1 0.2 16.6 Q0.4 16.4 0.7 16.4 L4.1 16.4 4.1 15.55 0.7 15.55 Q0.0 15.55 0.0 14.85 L0.0 11.05 0.2 10.55 Q0.4 10.35 0.7 10.35 L2.95 10.35 2.7 9.55 0.7 9.55 Q0.0 9.55 0.0 8.8 L0.0 5.0 0.2 4.5 Q0.4 4.3 0.7 4.3 L2.55 4.3 2.75 3.45 Q3.25 1.65 4.15 0.3 4.4 0.0 4.75 0.0 L11.0 0.5 11.35 0.6 11.55 0.3 Q11.7 0.0 12.1 0.0 L18.4 0.5 18.7 0.6 18.9 0.3 Q19.15 0.0 19.5 0.0 L25.75 0.5 Q26.2 0.5 26.4 1.05 26.5 1.6 26.05 1.8 L25.0 2.55 25.25 3.1 25.25 4.3 28.7 4.3 29.2 4.5 29.4 5.0" fill="#000000" fill-rule="evenodd" stroke="none"/>
  </g>
</svg>
