<?xml version="1.0" encoding="UTF-8" standalone="no"?>
<svg xmlns:ffdec="https://www.free-decompiler.com/flash" xmlns:xlink="http://www.w3.org/1999/xlink" ffdec:objectType="shape" height="25.95px" width="29.4px" xmlns="http://www.w3.org/2000/svg">
  <g transform="matrix(1.0, 0.0, 0.0, 1.0, -2.65, -4.75)">
    <path d="M29.05 5.8 Q29.15 6.35 28.7 6.55 L27.65 7.3 27.9 7.85 27.9 9.05 31.35 9.05 31.85 9.25 32.05 9.75 32.05 13.55 31.85 14.1 31.35 14.3 27.9 14.3 27.9 15.1 31.35 15.1 31.85 15.3 32.05 15.8 32.05 19.6 Q32.05 20.3 31.35 20.3 L29.25 20.3 29.45 21.15 31.35 21.15 31.85 21.35 32.05 21.85 32.05 25.65 Q32.05 26.35 31.35 26.35 L29.35 26.35 29.3 26.55 Q28.9 28.4 27.6 30.4 27.4 30.7 27.0 30.7 L20.85 30.2 Q20.6 30.2 20.45 30.0 L20.2 30.4 19.65 30.7 13.5 30.2 Q13.25 30.2 13.1 30.0 L12.85 30.4 Q12.65 30.7 12.25 30.7 L6.1 30.2 Q5.7 30.2 5.5 29.7 5.4 29.2 5.8 28.95 L6.9 28.05 6.75 27.6 6.75 26.35 3.35 26.35 Q2.65 26.35 2.65 25.65 L2.65 21.85 Q2.65 21.15 3.35 21.15 L6.75 21.15 6.75 20.3 3.35 20.3 Q2.65 20.3 2.65 19.6 L2.65 15.8 Q2.65 15.1 3.35 15.1 L5.6 15.1 5.35 14.3 3.35 14.3 Q2.65 14.3 2.65 13.55 L2.65 9.75 Q2.65 9.05 3.35 9.05 L5.2 9.05 5.4 8.2 Q5.9 6.4 6.8 5.05 7.05 4.75 7.4 4.75 L13.65 5.25 14.0 5.35 14.2 5.05 Q14.35 4.75 14.75 4.75 L21.05 5.25 21.35 5.35 21.55 5.05 Q21.8 4.75 22.15 4.75 L28.4 5.25 Q28.85 5.25 29.05 5.8" fill="#42210b" fill-rule="evenodd" stroke="none"/>
    <path d="M27.2 27.6 L7.45 27.6 7.45 7.85 27.2 7.85 27.2 27.6" fill="url(#gradient0)" fill-rule="evenodd" stroke="none"/>
    <path d="M31.35 19.6 L3.35 19.6 3.35 15.8 31.35 15.8 31.35 19.6" fill="url(#gradient1)" fill-rule="evenodd" stroke="none"/>
    <path d="M31.35 13.55 L3.35 13.55 3.35 9.75 31.35 9.75 31.35 13.55" fill="url(#gradient2)" fill-rule="evenodd" stroke="none"/>
    <path d="M31.35 25.65 L3.35 25.65 3.35 21.85 31.35 21.85 31.35 25.65" fill="url(#gradient3)" fill-rule="evenodd" stroke="none"/>
    <path d="M7.85 25.65 L8.2 24.7 Q8.55 23.5 8.15 21.85 L12.65 21.85 Q12.85 23.8 12.5 25.65 L7.85 25.65" fill="#999999" fill-rule="evenodd" stroke="none"/>
    <path d="M10.4 15.8 Q11.65 17.85 12.15 19.6 L7.25 19.6 6.7 18.7 5.2 15.8 10.4 15.8" fill="#999999" fill-rule="evenodd" stroke="none"/>
    <path d="M27.4 21.85 Q27.65 23.85 27.2 25.65 L22.6 25.65 22.95 24.7 Q23.3 23.5 22.9 21.85 L27.4 21.85" fill="#999999" fill-rule="evenodd" stroke="none"/>
    <path d="M8.7 9.75 Q8.3 11.5 9.2 13.55 L4.5 13.55 Q4.1 11.8 4.25 9.75 L8.7 9.75" fill="#999999" fill-rule="evenodd" stroke="none"/>
    <path d="M16.05 9.75 Q15.7 11.4 16.6 13.55 L11.9 13.55 Q11.45 11.6 11.65 9.75 L16.05 9.75" fill="#999999" fill-rule="evenodd" stroke="none"/>
    <path d="M25.15 15.8 Q26.4 17.85 26.9 19.6 L22.0 19.6 21.45 18.7 19.95 15.8 25.15 15.8" fill="#999999" fill-rule="evenodd" stroke="none"/>
    <path d="M15.25 25.65 L15.6 24.7 Q15.9 23.35 15.55 21.85 L20.0 21.85 Q20.2 23.8 19.85 25.65 L15.25 25.65" fill="#999999" fill-rule="evenodd" stroke="none"/>
    <path d="M23.45 9.75 Q23.05 11.5 23.95 13.55 L19.25 13.55 Q18.85 11.8 19.0 9.75 L23.45 9.75" fill="#999999" fill-rule="evenodd" stroke="none"/>
    <path d="M17.8 15.8 L19.55 19.6 14.6 19.6 14.1 18.7 12.6 15.8 17.8 15.8" fill="#999999" fill-rule="evenodd" stroke="none"/>
    <path d="M13.6 5.95 Q10.8 7.7 10.2 9.9 9.55 12.3 11.75 15.8 15.15 21.35 13.9 26.35 13.45 28.25 12.25 30.0 L6.2 29.5 Q9.1 27.4 9.7 25.0 10.4 22.4 8.2 19.0 4.7 13.4 6.05 8.4 6.45 6.9 7.4 5.45 L13.6 5.95" fill="url(#gradient4)" fill-rule="evenodd" stroke="none"/>
    <path d="M8.1 6.25 Q7.15 7.7 6.75 9.2 5.4 14.25 8.9 19.8 11.1 23.2 10.4 25.8 9.9 27.8 7.75 29.65 L6.2 29.5 Q9.1 27.4 9.7 25.0 10.4 22.4 8.2 19.0 4.7 13.4 6.05 8.4 6.45 6.9 7.4 5.45 L13.6 5.95 12.65 6.6 8.1 6.25" fill="#fbf77e" fill-rule="evenodd" stroke="none"/>
    <path d="M21.0 5.95 Q18.2 7.6 17.6 9.9 16.95 12.35 19.1 15.8 22.55 21.25 21.25 26.35 20.75 28.35 19.65 30.0 L13.55 29.5 Q16.5 27.45 17.1 25.0 17.7 22.4 15.6 19.0 12.1 13.45 13.45 8.4 13.9 6.8 14.75 5.45 L21.0 5.95" fill="url(#gradient5)" fill-rule="evenodd" stroke="none"/>
    <path d="M15.45 6.25 Q14.6 7.6 14.15 9.2 12.75 14.2 16.3 19.8 18.4 23.2 17.8 25.8 17.3 27.8 15.15 29.65 L13.55 29.5 Q16.5 27.45 17.1 25.0 17.7 22.4 15.6 19.0 12.1 13.45 13.45 8.4 13.9 6.8 14.75 5.45 L21.0 5.95 20.0 6.6 15.45 6.25" fill="#fbf77e" fill-rule="evenodd" stroke="none"/>
    <path d="M28.35 5.95 Q25.55 7.7 24.95 9.9 24.3 12.3 26.5 15.8 29.9 21.35 28.65 26.35 28.2 28.25 27.0 30.0 L20.95 29.5 Q23.85 27.4 24.45 25.0 25.15 22.4 22.95 19.0 19.45 13.4 20.8 8.4 21.2 6.9 22.15 5.45 L28.35 5.95" fill="url(#gradient6)" fill-rule="evenodd" stroke="none"/>
    <path d="M28.35 5.95 L27.4 6.6 22.85 6.25 Q21.9 7.7 21.5 9.2 20.15 14.25 23.65 19.8 25.85 23.2 25.15 25.8 24.65 27.8 22.5 29.65 L20.95 29.5 Q23.85 27.4 24.45 25.0 25.15 22.4 22.95 19.0 19.45 13.4 20.8 8.4 21.2 6.9 22.15 5.45 L28.35 5.95" fill="#fbf77e" fill-rule="evenodd" stroke="none"/>
  </g>
  <defs>
    <radialGradient cx="0" cy="0" gradientTransform="matrix(0.012, 0.0, 0.0, -0.012, 17.35, 17.7)" gradientUnits="userSpaceOnUse" id="gradient0" r="819.2" spreadMethod="pad">
      <stop offset="0.3254901960784314" stop-color="#999999"/>
      <stop offset="1.0" stop-color="#4d4d4d"/>
    </radialGradient>
    <radialGradient cx="0" cy="0" gradientTransform="matrix(0.0175, 0.0, 0.0, -0.0175, 17.35, 17.7)" gradientUnits="userSpaceOnUse" id="gradient1" r="819.2" spreadMethod="pad">
      <stop offset="0.3686274509803922" stop-color="#e8e8e8"/>
      <stop offset="0.8313725490196079" stop-color="#858585"/>
      <stop offset="1.0" stop-color="#d4d4d4"/>
    </radialGradient>
    <radialGradient cx="0" cy="0" gradientTransform="matrix(0.0175, 0.0, 0.0, -0.0175, 17.35, 11.65)" gradientUnits="userSpaceOnUse" id="gradient2" r="819.2" spreadMethod="pad">
      <stop offset="0.3686274509803922" stop-color="#e8e8e8"/>
      <stop offset="0.8313725490196079" stop-color="#858585"/>
      <stop offset="1.0" stop-color="#d4d4d4"/>
    </radialGradient>
    <radialGradient cx="0" cy="0" gradientTransform="matrix(0.0175, 0.0, 0.0, -0.0175, 17.35, 23.75)" gradientUnits="userSpaceOnUse" id="gradient3" r="819.2" spreadMethod="pad">
      <stop offset="0.3686274509803922" stop-color="#e8e8e8"/>
      <stop offset="0.8313725490196079" stop-color="#858585"/>
      <stop offset="1.0" stop-color="#d4d4d4"/>
    </radialGradient>
    <radialGradient cx="0" cy="0" gradientTransform="matrix(0.0184, 0.0, 0.0, -0.0184, 6.05, 15.2)" gradientUnits="userSpaceOnUse" id="gradient4" r="819.2" spreadMethod="pad">
      <stop offset="0.0" stop-color="#fbf300"/>
      <stop offset="0.1411764705882353" stop-color="#fbee01"/>
      <stop offset="0.30980392156862746" stop-color="#fae004"/>
      <stop offset="0.49411764705882355" stop-color="#fac809"/>
      <stop offset="0.6823529411764706" stop-color="#f9a70f"/>
      <stop offset="0.8784313725490196" stop-color="#f87d18"/>
      <stop offset="1.0" stop-color="#f75f1e"/>
    </radialGradient>
    <radialGradient cx="0" cy="0" gradientTransform="matrix(0.0184, 0.0, 0.0, -0.0184, 13.4, 15.2)" gradientUnits="userSpaceOnUse" id="gradient5" r="819.2" spreadMethod="pad">
      <stop offset="0.0" stop-color="#fbf300"/>
      <stop offset="0.1411764705882353" stop-color="#fbee01"/>
      <stop offset="0.30980392156862746" stop-color="#fae004"/>
      <stop offset="0.49411764705882355" stop-color="#fac809"/>
      <stop offset="0.6823529411764706" stop-color="#f9a70f"/>
      <stop offset="0.8784313725490196" stop-color="#f87d18"/>
      <stop offset="1.0" stop-color="#f75f1e"/>
    </radialGradient>
    <radialGradient cx="0" cy="0" gradientTransform="matrix(0.0184, 0.0, 0.0, -0.0184, 20.8, 15.2)" gradientUnits="userSpaceOnUse" id="gradient6" r="819.2" spreadMethod="pad">
      <stop offset="0.0" stop-color="#fbf300"/>
      <stop offset="0.1411764705882353" stop-color="#fbee01"/>
      <stop offset="0.30980392156862746" stop-color="#fae004"/>
      <stop offset="0.49411764705882355" stop-color="#fac809"/>
      <stop offset="0.6823529411764706" stop-color="#f9a70f"/>
      <stop offset="0.8784313725490196" stop-color="#f87d18"/>
      <stop offset="1.0" stop-color="#f75f1e"/>
    </radialGradient>
  </defs>
</svg>
