<?xml version="1.0" encoding="UTF-8" standalone="no"?>
<svg xmlns:ffdec="https://www.free-decompiler.com/flash" xmlns:xlink="http://www.w3.org/1999/xlink" ffdec:objectType="shape" height="17.05px" width="18.2px" xmlns="http://www.w3.org/2000/svg">
  <g transform="matrix(1.0, 0.0, 0.0, 1.0, 0.0, 0.0)">
    <path d="M18.2 0.7 L18.2 16.35 Q18.2 17.05 17.5 17.05 15.1 17.05 13.05 15.85 11.05 14.6 9.95 12.5 L9.1 12.6 8.25 12.5 Q7.15 14.6 5.1 15.85 3.05 17.05 0.7 17.05 0.0 17.05 0.0 16.35 L0.0 0.7 0.2 0.2 Q0.4 0.0 0.7 0.0 3.0 0.0 5.05 1.2 7.05 2.4 8.15 4.45 L9.1 4.35 10.0 4.45 Q11.15 2.4 13.15 1.2 15.2 0.0 17.5 0.0 18.2 0.0 18.2 0.7" fill="#000000" fill-rule="evenodd" stroke="none"/>
  </g>
</svg>
