<?xml version="1.0" encoding="UTF-8" standalone="no"?>
<svg xmlns:ffdec="https://www.free-decompiler.com/flash" xmlns:xlink="http://www.w3.org/1999/xlink" ffdec:objectType="shape" height="17.05px" width="18.2px" xmlns="http://www.w3.org/2000/svg">
  <g transform="matrix(1.0, 0.0, 0.0, 1.0, -8.9, -9.05)">
    <path d="M27.1 9.75 L27.1 25.4 Q27.1 26.1 26.4 26.1 24.0 26.1 21.95 24.9 19.95 23.65 18.85 21.55 L18.0 21.65 17.15 21.55 Q16.05 23.65 14.0 24.9 11.95 26.1 9.6 26.1 8.9 26.1 8.9 25.4 L8.9 9.75 9.1 9.25 Q9.3 9.05 9.6 9.05 11.9 9.05 13.95 10.25 15.95 11.45 17.05 13.5 L18.0 13.4 18.9 13.5 Q20.05 11.45 22.05 10.25 24.1 9.05 26.4 9.05 27.1 9.05 27.1 9.75" fill="#111a6b" fill-rule="evenodd" stroke="none"/>
    <path d="M26.4 25.4 Q23.15 25.4 20.85 23.1 18.55 20.8 18.55 17.6 18.55 14.35 20.85 12.05 23.15 9.75 26.4 9.75 L26.4 25.4" fill="url(#gradient0)" fill-rule="evenodd" stroke="none"/>
    <path d="M20.85 12.05 Q23.15 9.75 26.4 9.75 L26.4 10.55 Q23.45 10.8 21.35 12.95 19.3 15.15 19.3 18.15 19.3 20.15 20.25 21.85 21.2 23.5 22.8 24.55 20.9 23.55 19.75 21.7 18.55 19.8 18.55 17.6 18.55 14.35 20.85 12.05" fill="#f2f2f2" fill-rule="evenodd" stroke="none"/>
    <path d="M9.6 25.4 L9.6 9.75 Q12.85 9.75 15.1 12.05 17.4 14.35 17.4 17.6 17.4 20.85 15.1 23.1 12.85 25.4 9.6 25.4" fill="url(#gradient1)" fill-rule="evenodd" stroke="none"/>
    <path d="M15.1 12.05 Q17.4 14.35 17.4 17.6 17.4 19.8 16.25 21.7 15.1 23.55 13.2 24.55 14.8 23.5 15.75 21.85 16.7 20.15 16.7 18.15 16.7 15.15 14.65 12.95 12.6 10.8 9.6 10.55 L9.6 9.75 Q12.85 9.75 15.1 12.05" fill="#f2f2f2" fill-rule="evenodd" stroke="none"/>
    <path d="M19.75 13.5 Q20.95 14.0 21.65 15.1 22.4 16.2 22.4 17.55 22.4 18.9 21.65 20.0 20.9 21.1 19.7 21.6 18.55 19.7 18.55 17.6 18.55 15.4 19.75 13.5" fill="#666666" fill-rule="evenodd" stroke="none"/>
    <path d="M13.6 17.55 Q13.6 16.2 14.35 15.1 15.1 14.0 16.25 13.5 17.4 15.35 17.4 17.6 17.4 19.8 16.3 21.6 15.1 21.1 14.35 20.0 13.6 18.9 13.6 17.55" fill="#666666" fill-rule="evenodd" stroke="none"/>
    <path d="M21.4 17.55 Q21.4 18.95 20.4 19.95 19.4 20.95 18.0 20.95 16.6 20.95 15.55 19.95 14.55 18.95 14.55 17.55 14.55 16.15 15.55 15.1 16.6 14.1 18.0 14.1 19.4 14.1 20.4 15.1 21.4 16.1 21.4 17.55" fill="url(#gradient2)" fill-rule="evenodd" stroke="none"/>
    <path d="M17.8 16.5 Q17.8 17.05 17.25 17.05 16.65 17.05 16.65 16.5 16.65 15.9 17.25 15.9 17.8 15.9 17.8 16.5" fill="#ffbff8" fill-rule="evenodd" stroke="none"/>
  </g>
  <defs>
    <radialGradient cx="0" cy="0" gradientTransform="matrix(0.0123, 0.0, 0.0, -0.0123, 28.6, 20.35)" gradientUnits="userSpaceOnUse" id="gradient0" r="819.2" spreadMethod="pad">
      <stop offset="0.22745098039215686" stop-color="#e8e8e8"/>
      <stop offset="0.3686274509803922" stop-color="#e3e3e3"/>
      <stop offset="0.5294117647058824" stop-color="#d5d5d5"/>
      <stop offset="0.7058823529411765" stop-color="#bebebe"/>
      <stop offset="0.8862745098039215" stop-color="#9e9e9e"/>
      <stop offset="1.0" stop-color="#858585"/>
    </radialGradient>
    <radialGradient cx="0" cy="0" gradientTransform="matrix(-0.0123, 0.0, 0.0, -0.0123, 7.35, 20.35)" gradientUnits="userSpaceOnUse" id="gradient1" r="819.2" spreadMethod="pad">
      <stop offset="0.22745098039215686" stop-color="#e8e8e8"/>
      <stop offset="0.3686274509803922" stop-color="#e3e3e3"/>
      <stop offset="0.5294117647058824" stop-color="#d5d5d5"/>
      <stop offset="0.7058823529411765" stop-color="#bebebe"/>
      <stop offset="0.8862745098039215" stop-color="#9e9e9e"/>
      <stop offset="1.0" stop-color="#858585"/>
    </radialGradient>
    <radialGradient cx="0" cy="0" gradientTransform="matrix(0.0048, 0.0, 0.0, -0.0048, 17.2, 16.75)" gradientUnits="userSpaceOnUse" id="gradient2" r="819.2" spreadMethod="pad">
      <stop offset="0.0" stop-color="#ff8ff4"/>
      <stop offset="0.4549019607843137" stop-color="#ff38de"/>
      <stop offset="0.8313725490196079" stop-color="#8a00bd"/>
      <stop offset="1.0" stop-color="#b052eb"/>
    </radialGradient>
  </defs>
</svg>
