<?xml version="1.0" encoding="UTF-8" standalone="no"?>
<svg xmlns:ffdec="https://www.free-decompiler.com/flash" xmlns:xlink="http://www.w3.org/1999/xlink" ffdec:objectType="shape" height="24.15px" width="26.1px" xmlns="http://www.w3.org/2000/svg">
  <g transform="matrix(1.0, 0.0, 0.0, 1.0, 0.0, 0.0)">
    <path d="M22.45 6.7 Q19.75 7.1 18.05 8.6 16.3 10.1 16.3 12.1 16.3 14.05 18.05 15.6 19.75 17.15 22.45 17.5 23.05 17.6 23.05 18.15 L23.05 23.45 Q23.05 24.15 22.35 24.15 19.3 24.15 16.75 22.15 14.25 20.2 13.05 16.95 11.85 20.2 9.35 22.15 6.8 24.15 3.75 24.15 3.05 24.15 3.05 23.45 L3.05 18.15 Q3.05 17.6 3.65 17.5 6.35 17.15 8.1 15.6 9.8 14.05 9.8 12.1 9.8 10.1 8.1 8.6 6.35 7.1 3.65 6.7 3.05 6.6 3.05 6.0 L3.05 0.7 Q3.05 0.0 3.75 0.0 6.8 0.0 9.35 2.0 11.85 3.95 13.05 7.2 14.25 3.95 16.75 2.0 19.3 0.0 22.35 0.0 23.05 0.0 23.05 0.7 L23.05 6.0 Q23.05 6.6 22.45 6.7 M26.1 7.8 L26.1 16.35 Q26.1 17.05 25.4 17.05 21.7 17.05 19.2 15.65 16.65 14.2 16.65 12.1 16.65 10.0 19.2 8.55 21.75 7.1 25.4 7.1 26.1 7.1 26.1 7.8 M0.7 7.1 Q4.4 7.1 6.9 8.55 9.45 10.0 9.45 12.1 9.45 14.2 6.9 15.65 4.4 17.05 0.7 17.05 0.0 17.05 0.0 16.35 L0.0 7.8 Q0.0 7.1 0.7 7.1" fill="#000000" fill-rule="evenodd" stroke="none"/>
  </g>
</svg>
