<?xml version="1.0" encoding="UTF-8" standalone="no"?>
<svg xmlns:ffdec="https://www.free-decompiler.com/flash" xmlns:xlink="http://www.w3.org/1999/xlink" ffdec:objectType="shape" height="24.15px" width="26.1px" xmlns="http://www.w3.org/2000/svg">
  <g transform="matrix(1.0, 0.0, 0.0, 1.0, -4.85, -5.5)">
    <path d="M30.95 13.3 L30.95 21.85 Q30.95 22.55 30.25 22.55 26.55 22.55 24.05 21.15 21.5 19.7 21.5 17.6 21.5 15.5 24.05 14.05 26.6 12.6 30.25 12.6 30.95 12.6 30.95 13.3 M27.9 6.2 L27.9 11.5 Q27.9 12.1 27.3 12.2 24.6 12.6 22.9 14.1 21.15 15.6 21.15 17.6 21.15 19.55 22.9 21.1 24.6 22.65 27.3 23.0 27.9 23.1 27.9 23.65 L27.9 28.95 Q27.9 29.65 27.2 29.65 24.15 29.65 21.6 27.65 19.1 25.7 17.9 22.45 16.7 25.7 14.2 27.65 11.65 29.65 8.6 29.65 7.9 29.65 7.9 28.95 L7.9 23.65 Q7.9 23.1 8.5 23.0 11.2 22.65 12.95 21.1 14.65 19.55 14.65 17.6 14.65 15.6 12.95 14.1 11.2 12.6 8.5 12.2 7.9 12.1 7.9 11.5 L7.9 6.2 8.1 5.7 Q8.3 5.5 8.6 5.5 11.65 5.5 14.2 7.5 16.7 9.45 17.9 12.7 19.1 9.45 21.6 7.5 24.15 5.5 27.2 5.5 27.9 5.5 27.9 6.2 M5.55 22.55 Q4.85 22.55 4.85 21.85 L4.85 13.3 Q4.85 12.6 5.55 12.6 9.25 12.6 11.75 14.05 14.3 15.5 14.3 17.6 14.3 19.7 11.75 21.15 9.25 22.55 5.55 22.55" fill="#111a6b" fill-rule="evenodd" stroke="none"/>
    <path d="M5.55 21.85 L5.55 13.3 Q8.9 13.3 11.25 14.55 13.6 15.8 13.6 17.6 13.6 19.35 11.25 20.6 8.9 21.85 5.55 21.85" fill="url(#gradient0)" fill-rule="evenodd" stroke="none"/>
    <path d="M5.55 13.3 Q8.9 13.3 11.25 14.55 13.6 15.8 13.6 17.6 13.6 19.35 11.25 20.6 8.9 21.85 5.55 21.85 L5.55 21.3 Q8.55 21.1 10.5 20.05 12.5 19.0 12.5 17.6 12.5 16.2 10.5 15.1 8.5 14.05 5.55 13.85 L5.55 13.3" fill="#ffabf7" fill-rule="evenodd" stroke="none"/>
    <path d="M15.35 17.6 Q15.35 15.35 13.4 13.6 11.5 11.9 8.6 11.5 L8.6 6.2 Q12.55 6.2 15.3 9.55 18.1 12.9 18.1 17.6 18.1 22.3 15.3 25.6 12.55 28.95 8.6 28.95 L8.6 23.65 Q11.5 23.3 13.4 21.55 15.35 19.85 15.35 17.6" fill="url(#gradient1)" fill-rule="evenodd" stroke="none"/>
    <path d="M17.35 17.6 Q17.35 13.4 14.8 10.3 12.3 7.25 8.6 6.95 L8.6 6.2 Q12.55 6.2 15.3 9.55 18.1 12.9 18.1 17.6 18.1 22.3 15.3 25.6 12.55 28.95 8.6 28.95 L8.6 28.25 Q12.3 27.9 14.8 24.85 17.35 21.8 17.35 17.6" fill="#f2f2f2" fill-rule="evenodd" stroke="none"/>
    <path d="M30.25 21.85 Q26.9 21.85 24.55 20.6 22.2 19.35 22.2 17.6 22.2 15.8 24.55 14.55 26.9 13.3 30.25 13.3 L30.25 21.85" fill="url(#gradient2)" fill-rule="evenodd" stroke="none"/>
    <path d="M30.25 21.3 L30.25 21.85 Q26.9 21.85 24.55 20.6 22.2 19.35 22.2 17.6 22.2 15.8 24.55 14.55 26.9 13.3 30.25 13.3 L30.25 13.85 Q27.3 14.05 25.3 15.1 23.3 16.2 23.3 17.6 23.3 19.0 25.3 20.05 27.25 21.1 30.25 21.3" fill="#ffabf7" fill-rule="evenodd" stroke="none"/>
    <path d="M27.2 23.65 L27.2 28.95 Q23.25 28.95 20.5 25.6 17.75 22.3 17.75 17.6 17.75 12.85 20.5 9.55 23.25 6.2 27.2 6.2 L27.2 11.5 Q24.3 11.9 22.4 13.6 20.45 15.35 20.45 17.6 20.45 19.85 22.4 21.55 24.3 23.3 27.2 23.65" fill="url(#gradient3)" fill-rule="evenodd" stroke="none"/>
    <path d="M27.2 28.25 L27.2 28.95 Q23.25 28.95 20.5 25.6 17.75 22.3 17.75 17.6 17.75 12.85 20.5 9.55 23.25 6.2 27.2 6.2 L27.2 6.95 Q23.5 7.25 21.0 10.3 18.45 13.4 18.45 17.6 18.45 21.8 21.0 24.85 23.5 27.9 27.2 28.25" fill="#f2f2f2" fill-rule="evenodd" stroke="none"/>
  </g>
  <defs>
    <radialGradient cx="0" cy="0" gradientTransform="matrix(-0.0089, 0.0, 0.0, -0.008, 5.45, 19.9)" gradientUnits="userSpaceOnUse" id="gradient0" r="819.2" spreadMethod="pad">
      <stop offset="0.0" stop-color="#ff38de"/>
      <stop offset="0.19215686274509805" stop-color="#fb36dd"/>
      <stop offset="0.3764705882352941" stop-color="#f031da"/>
      <stop offset="0.5568627450980392" stop-color="#dc27d4"/>
      <stop offset="0.7372549019607844" stop-color="#c11acd"/>
      <stop offset="0.9137254901960784" stop-color="#9e0ac3"/>
      <stop offset="1.0" stop-color="#8a00bd"/>
    </radialGradient>
    <radialGradient cx="0" cy="0" gradientTransform="matrix(-0.017, 0.0, 0.0, -0.017, 17.95, 17.75)" gradientUnits="userSpaceOnUse" id="gradient1" r="819.2" spreadMethod="pad">
      <stop offset="0.0" stop-color="#e8e8e8"/>
      <stop offset="0.13725490196078433" stop-color="#e2e2e2"/>
      <stop offset="0.3176470588235294" stop-color="#d1d1d1"/>
      <stop offset="0.5254901960784314" stop-color="#b5b5b5"/>
      <stop offset="0.7529411764705882" stop-color="#8e8e8e"/>
      <stop offset="0.7764705882352941" stop-color="#8a8a8a"/>
      <stop offset="1.0" stop-color="#999999"/>
    </radialGradient>
    <radialGradient cx="0" cy="0" gradientTransform="matrix(0.0089, 0.0, 0.0, -0.008, 30.35, 19.9)" gradientUnits="userSpaceOnUse" id="gradient2" r="819.2" spreadMethod="pad">
      <stop offset="0.0" stop-color="#ff38de"/>
      <stop offset="0.19215686274509805" stop-color="#fb36dd"/>
      <stop offset="0.3764705882352941" stop-color="#f031da"/>
      <stop offset="0.5568627450980392" stop-color="#dc27d4"/>
      <stop offset="0.7372549019607844" stop-color="#c11acd"/>
      <stop offset="0.9137254901960784" stop-color="#9e0ac3"/>
      <stop offset="1.0" stop-color="#8a00bd"/>
    </radialGradient>
    <radialGradient cx="0" cy="0" gradientTransform="matrix(0.017, 0.0, 0.0, -0.017, 17.85, 17.75)" gradientUnits="userSpaceOnUse" id="gradient3" r="819.2" spreadMethod="pad">
      <stop offset="0.0" stop-color="#e8e8e8"/>
      <stop offset="0.13725490196078433" stop-color="#e2e2e2"/>
      <stop offset="0.3176470588235294" stop-color="#d1d1d1"/>
      <stop offset="0.5254901960784314" stop-color="#b5b5b5"/>
      <stop offset="0.7529411764705882" stop-color="#8e8e8e"/>
      <stop offset="0.7764705882352941" stop-color="#8a8a8a"/>
      <stop offset="1.0" stop-color="#999999"/>
    </radialGradient>
  </defs>
</svg>
