<?xml version="1.0" encoding="UTF-8" standalone="no"?>
<svg xmlns:ffdec="https://www.free-decompiler.com/flash" xmlns:xlink="http://www.w3.org/1999/xlink" ffdec:objectType="shape" height="31.0px" width="30.95px" xmlns="http://www.w3.org/2000/svg">
  <g transform="matrix(1.0, 0.0, 0.0, 1.0, 0.0, 0.0)">
    <path d="M27.9 3.45 L27.9 9.05 Q27.9 9.65 27.25 9.75 25.85 9.9 24.3 10.4 27.2 10.75 29.05 12.15 30.95 13.6 30.95 15.5 30.95 17.4 29.05 18.85 27.2 20.25 24.3 20.55 L27.25 21.25 Q27.9 21.35 27.9 21.95 L27.9 27.55 27.7 28.05 27.2 28.25 Q23.4 28.25 20.2 26.05 19.6 28.3 18.35 29.65 17.05 31.0 15.45 31.0 13.9 31.0 12.6 29.65 11.35 28.3 10.75 26.05 7.55 28.25 3.75 28.25 3.05 28.25 3.05 27.55 L3.05 21.95 Q3.05 21.35 3.7 21.25 L6.65 20.55 Q3.75 20.25 1.9 18.85 0.0 17.4 0.0 15.5 0.0 13.6 1.9 12.15 3.75 10.75 6.65 10.4 5.1 9.9 3.7 9.75 3.05 9.65 3.05 9.05 L3.05 3.45 Q3.05 2.75 3.75 2.75 7.55 2.75 10.75 4.95 11.35 2.7 12.6 1.35 13.9 0.0 15.45 0.0 17.05 0.0 18.35 1.35 19.6 2.7 20.2 4.95 23.4 2.75 27.2 2.75 27.9 2.75 27.9 3.45 M22.05 11.5 Q19.5 13.15 19.5 15.5 19.5 17.8 22.05 19.45 L22.05 11.5 M14.4 8.9 L15.45 11.25 Q15.95 9.85 16.55 8.9 L14.4 8.9 M15.45 19.75 L14.4 22.1 16.55 22.1 15.45 19.75 M8.9 19.45 Q11.45 17.8 11.45 15.5 11.45 13.15 8.9 11.5 L8.9 19.45" fill="#000000" fill-rule="evenodd" stroke="none"/>
  </g>
</svg>
