<?xml version="1.0" encoding="UTF-8" standalone="no"?>
<svg xmlns:ffdec="https://www.free-decompiler.com/flash" xmlns:xlink="http://www.w3.org/1999/xlink" ffdec:objectType="shape" height="27.0px" width="133.2px" xmlns="http://www.w3.org/2000/svg">
  <g transform="matrix(1.0, 0.0, 0.0, 1.0, -7.4, -1.5)">
    <path d="M8.9 2.95 Q9.4 2.4 10.15 2.4 L137.85 2.4 Q138.6 2.4 139.1 2.95 139.7 3.5 139.7 4.2 L139.7 25.8 Q139.7 26.55 139.1 27.05 138.6 27.6 137.85 27.6 L19.3 27.6 17.6 27.25 16.1 26.4 9.65 20.7 Q9.1 20.2 8.7 19.3 8.3 18.45 8.3 17.7 L8.3 4.2 Q8.3 3.5 8.9 2.95 M10.15 1.5 Q9.0 1.5 8.15 2.3 7.4 3.05 7.4 4.2 L7.4 17.7 Q7.4 18.65 7.85 19.7 8.3 20.75 9.05 21.4 L15.45 27.05 Q16.15 27.7 17.25 28.1 L19.3 28.5 137.85 28.5 Q139.0 28.5 139.8 27.7 140.6 26.9 140.6 25.8 L140.6 4.2 Q140.6 3.05 139.8 2.3 139.0 1.5 137.85 1.5 L10.15 1.5" fill="url(#gradient0)" fill-rule="evenodd" stroke="none"/>
    <path d="M8.9 2.95 Q8.3 3.5 8.3 4.2 L8.3 17.7 Q8.3 18.45 8.7 19.3 9.1 20.2 9.65 20.7 L16.1 26.4 17.6 27.25 19.3 27.6 137.85 27.6 Q138.6 27.6 139.1 27.05 139.7 26.55 139.7 25.8 L139.7 4.2 Q139.7 3.5 139.1 2.95 138.6 2.4 137.85 2.4 L10.15 2.4 Q9.4 2.4 8.9 2.95" fill="url(#gradient1)" fill-rule="evenodd" stroke="none"/>
  </g>
  <defs>
    <linearGradient gradientTransform="matrix(-0.0826, 0.0, 0.0, -0.1175, 74.2, 15.9)" gradientUnits="userSpaceOnUse" id="gradient0" spreadMethod="pad" x1="-819.2" x2="819.2">
      <stop offset="0.00392156862745098" stop-color="#002f73"/>
      <stop offset="0.00784313725490196" stop-color="#002f73"/>
      <stop offset="0.1607843137254902" stop-color="#00429a"/>
      <stop offset="0.30196078431372547" stop-color="#004fb5"/>
      <stop offset="0.42745098039215684" stop-color="#0057c6"/>
      <stop offset="0.5215686274509804" stop-color="#005acc"/>
      <stop offset="0.6078431372549019" stop-color="#0057c6"/>
      <stop offset="0.7215686274509804" stop-color="#0050b7"/>
      <stop offset="0.8470588235294118" stop-color="#00439d"/>
      <stop offset="0.9803921568627451" stop-color="#003278"/>
      <stop offset="1.0" stop-color="#002f73"/>
    </linearGradient>
    <linearGradient gradientTransform="matrix(-0.1046, 0.0, 0.0, -0.1102, 74.9, 16.35)" gradientUnits="userSpaceOnUse" id="gradient1" spreadMethod="pad" x1="-819.2" x2="819.2">
      <stop offset="0.00392156862745098" stop-color="#002f73"/>
      <stop offset="0.00784313725490196" stop-color="#002f73"/>
      <stop offset="0.1568627450980392" stop-color="#0157ab"/>
      <stop offset="0.5019607843137255" stop-color="#026fdb"/>
      <stop offset="0.8470588235294118" stop-color="#0156a9"/>
      <stop offset="0.9803921568627451" stop-color="#003278"/>
      <stop offset="1.0" stop-color="#002f73"/>
    </linearGradient>
  </defs>
</svg>
