<?xml version="1.0" encoding="UTF-8" standalone="no"?>
<svg xmlns:ffdec="https://www.free-decompiler.com/flash" xmlns:xlink="http://www.w3.org/1999/xlink" ffdec:objectType="shape" height="29.75px" width="31.75px" xmlns="http://www.w3.org/2000/svg">
  <g transform="matrix(1.0, 0.0, 0.0, 1.0, -1.95, -3.95)">
    <path d="M26.4 3.95 Q30.35 5.05 32.35 8.5 34.35 12.05 33.35 15.95 L33.0 16.35 32.65 16.45 32.45 16.45 26.6 14.85 26.85 16.9 Q26.85 19.9 25.05 22.3 23.25 24.7 20.45 25.55 L24.75 29.85 24.95 30.35 24.75 30.8 Q21.85 33.7 17.8 33.7 13.8 33.7 10.9 30.8 L10.7 30.35 10.9 29.85 15.2 25.55 Q12.4 24.7 10.6 22.3 8.8 19.9 8.8 16.9 L9.05 14.85 3.15 16.45 3.0 16.45 2.65 16.35 Q2.4 16.25 2.3 15.95 1.3 12.05 3.3 8.5 5.3 5.05 9.25 3.95 L9.4 3.95 Q9.95 3.95 10.1 4.45 L11.65 10.35 Q14.2 7.9 17.8 7.9 21.4 7.9 24.0 10.35 L25.55 4.45 Q25.7 3.95 26.25 3.95 L26.4 3.95" fill="#33116b" fill-rule="evenodd" stroke="none"/>
    <path d="M26.15 16.9 Q26.15 20.35 23.7 22.8 21.25 25.25 17.8 25.25 14.4 25.25 11.95 22.8 9.5 20.35 9.5 16.9 9.5 13.45 11.95 11.05 14.4 8.6 17.8 8.6 21.25 8.6 23.7 11.05 26.15 13.45 26.15 16.9" fill="url(#gradient0)" fill-rule="evenodd" stroke="none"/>
    <path d="M17.8 19.3 L11.9 22.75 Q10.45 21.3 9.8 19.15 12.8 17.45 15.75 15.7 L15.75 8.85 17.8 8.6 19.9 8.85 19.9 15.7 25.85 19.15 Q25.2 21.3 23.75 22.75 L17.8 19.3" fill="url(#gradient1)" fill-rule="evenodd" stroke="none"/>
    <path d="M17.8 18.45 L11.4 22.15 Q10.55 21.2 10.05 19.85 L16.5 16.15 16.5 8.7 17.8 8.6 19.15 8.7 19.15 16.15 25.6 19.85 24.25 22.15 17.8 18.45" fill="url(#gradient2)" fill-rule="evenodd" stroke="none"/>
    <path d="M9.8 14.65 Q10.4 12.65 11.85 11.1 L12.6 13.9 9.8 14.65" fill="#474747" fill-rule="evenodd" stroke="none"/>
    <path d="M23.75 11.1 Q25.3 12.65 25.8 14.65 L23.0 13.9 23.75 11.1" fill="#474747" fill-rule="evenodd" stroke="none"/>
    <path d="M19.85 24.95 L17.8 25.25 15.75 24.95 17.8 22.9 19.85 24.95" fill="#474747" fill-rule="evenodd" stroke="none"/>
    <path d="M31.75 8.85 Q33.6 12.1 32.65 15.75 L23.9 13.4 26.25 4.65 Q29.85 5.65 31.75 8.85 M24.25 30.35 Q21.6 33.0 17.85 33.0 14.05 33.0 11.4 30.35 L17.8 23.9 24.25 30.35 M11.75 13.4 L3.0 15.75 Q2.05 12.1 3.9 8.85 5.75 5.65 9.4 4.65 L11.75 13.4" fill="url(#gradient3)" fill-rule="evenodd" stroke="none"/>
    <path d="M24.25 13.5 L23.9 13.4 26.25 4.65 Q28.55 5.3 30.25 6.95 31.85 8.55 32.55 10.7 30.8 6.9 26.45 5.75 L24.25 13.5" fill="#ffabf7" fill-rule="evenodd" stroke="none"/>
    <path d="M3.1 10.7 Q3.8 8.55 5.45 6.95 7.1 5.3 9.4 4.65 L11.75 13.4 11.4 13.5 9.2 5.75 Q4.9 6.9 3.1 10.7" fill="#ffabf7" fill-rule="evenodd" stroke="none"/>
    <path d="M11.75 30.65 L11.4 30.35 17.8 23.9 24.25 30.35 23.85 30.65 17.8 24.9 11.75 30.65" fill="#ffabf7" fill-rule="evenodd" stroke="none"/>
  </g>
  <defs>
    <radialGradient cx="0" cy="0" gradientTransform="matrix(0.0125, 0.0, 0.0, -0.0125, 16.55, 14.9)" gradientUnits="userSpaceOnUse" id="gradient0" r="819.2" spreadMethod="pad">
      <stop offset="0.0" stop-color="#ffffff"/>
      <stop offset="0.2901960784313726" stop-color="#e8e8e8"/>
      <stop offset="0.4392156862745098" stop-color="#c4c4c4"/>
      <stop offset="0.7019607843137254" stop-color="#888888"/>
      <stop offset="0.8313725490196079" stop-color="#707070"/>
      <stop offset="1.0" stop-color="#d4d4d4"/>
    </radialGradient>
    <radialGradient cx="0" cy="0" gradientTransform="matrix(0.0106, 0.0, 0.0, -0.0106, 16.45, 16.05)" gradientUnits="userSpaceOnUse" id="gradient1" r="819.2" spreadMethod="pad">
      <stop offset="0.4588235294117647" stop-color="#ffffff"/>
      <stop offset="0.8117647058823529" stop-color="#b3b3b3"/>
    </radialGradient>
    <radialGradient cx="0" cy="0" gradientTransform="matrix(0.0089, 0.0, 0.0, -0.0089, 17.95, 16.9)" gradientUnits="userSpaceOnUse" id="gradient2" r="819.2" spreadMethod="pad">
      <stop offset="0.43137254901960786" stop-color="#333333"/>
      <stop offset="1.0" stop-color="#808080"/>
    </radialGradient>
    <radialGradient cx="0" cy="0" gradientTransform="matrix(0.0194, 0.0, 0.0, -0.0194, 17.95, 16.3)" gradientUnits="userSpaceOnUse" id="gradient3" r="819.2" spreadMethod="pad">
      <stop offset="0.0" stop-color="#ff8ff4"/>
      <stop offset="0.6" stop-color="#ff38de"/>
      <stop offset="0.8862745098039215" stop-color="#8a00bd"/>
      <stop offset="1.0" stop-color="#b052eb"/>
    </radialGradient>
  </defs>
</svg>
