<?xml version="1.0" encoding="UTF-8" standalone="no"?>
<svg xmlns:ffdec="https://www.free-decompiler.com/flash" xmlns:xlink="http://www.w3.org/1999/xlink" ffdec:objectType="shape" height="32.4px" width="34.35px" xmlns="http://www.w3.org/2000/svg">
  <g transform="matrix(1.0, 0.0, 0.0, 1.0, 0.0, 0.0)">
    <path d="M24.8 0.55 L25.1 0.1 25.45 0.0 25.7 0.05 Q30.0 1.6 32.5 5.85 35.0 10.15 34.15 14.65 L33.8 15.15 33.45 15.2 33.2 15.2 29.15 13.7 29.2 14.7 Q29.2 18.2 27.3 21.15 25.45 24.1 22.3 25.55 L25.6 28.4 25.85 28.9 25.6 29.45 Q22.1 32.4 17.15 32.4 12.25 32.4 8.75 29.45 8.5 29.25 8.5 28.9 L8.75 28.4 12.05 25.55 Q8.9 24.1 7.05 21.15 5.15 18.2 5.15 14.7 L5.2 13.7 1.1 15.2 0.85 15.2 0.5 15.15 Q0.2 14.95 0.2 14.65 -0.6 10.15 1.85 5.85 4.3 1.6 8.6 0.05 L8.85 0.0 9.2 0.1 9.55 0.55 10.3 4.85 Q13.45 2.7 17.15 2.7 20.95 2.7 24.0 4.85 L24.8 0.55" fill="#000000" fill-rule="evenodd" stroke="none"/>
  </g>
</svg>
