<?xml version="1.0" encoding="UTF-8" standalone="no"?>
<svg xmlns:ffdec="https://www.free-decompiler.com/flash" xmlns:xlink="http://www.w3.org/1999/xlink" ffdec:objectType="shape" height="32.4px" width="34.35px" xmlns="http://www.w3.org/2000/svg">
  <g transform="matrix(1.0, 0.0, 0.0, 1.0, -1.0, -1.6)">
    <path d="M26.7 1.65 Q31.0 3.2 33.5 7.45 36.0 11.75 35.15 16.25 L34.8 16.75 34.45 16.8 34.2 16.8 30.15 15.3 30.2 16.3 Q30.2 19.8 28.3 22.75 26.45 25.7 23.3 27.15 L26.6 30.0 26.85 30.5 26.6 31.05 Q23.1 34.0 18.15 34.0 13.25 34.0 9.75 31.05 9.5 30.85 9.5 30.5 L9.75 30.0 13.05 27.15 Q9.9 25.7 8.05 22.75 6.15 19.8 6.15 16.3 L6.2 15.3 2.1 16.8 1.85 16.8 1.5 16.75 1.2 16.25 Q0.4 11.75 2.85 7.45 5.3 3.2 9.6 1.65 L9.85 1.6 10.2 1.7 10.55 2.15 11.3 6.45 Q14.45 4.3 18.15 4.3 21.95 4.3 25.0 6.45 L25.8 2.15 Q25.8 1.9 26.1 1.7 L26.45 1.6 26.7 1.65" fill="#33116b" fill-rule="evenodd" stroke="none"/>
    <path d="M29.5 16.3 Q29.5 21.0 26.15 24.3 22.85 27.65 18.15 27.65 13.45 27.65 10.15 24.3 6.85 21.0 6.85 16.3 6.85 11.6 10.15 8.3 13.45 5.0 18.15 5.0 22.85 5.0 26.15 8.3 29.5 11.6 29.5 16.3" fill="url(#gradient0)" fill-rule="evenodd" stroke="none"/>
    <path d="M10.1 24.25 Q8.1 22.25 7.25 19.35 L15.35 14.7 15.35 5.35 18.15 5.0 21.0 5.35 21.0 14.7 29.05 19.35 Q28.3 22.1 26.25 24.25 L18.15 19.6 10.1 24.25" fill="url(#gradient1)" fill-rule="evenodd" stroke="none"/>
    <path d="M16.35 5.15 L18.15 5.0 19.95 5.15 19.95 15.25 28.75 20.3 Q28.0 22.15 26.95 23.45 L18.15 18.4 9.4 23.45 Q8.35 22.15 7.6 20.3 L16.35 15.25 16.35 5.15" fill="url(#gradient2)" fill-rule="evenodd" stroke="none"/>
    <path d="M6.9 15.4 Q7.1 12.8 8.4 10.6 9.65 8.4 11.75 7.0 L12.9 13.25 6.9 15.4" fill="#4c007d" fill-rule="evenodd" stroke="none"/>
    <path d="M24.6 7.0 Q26.65 8.4 27.95 10.6 29.25 12.8 29.45 15.4 L23.45 13.25 24.6 7.0" fill="#4c007d" fill-rule="evenodd" stroke="none"/>
    <path d="M23.0 26.5 Q20.6 27.65 18.15 27.65 15.75 27.65 13.3 26.5 L18.15 22.4 23.0 26.5" fill="#4c007d" fill-rule="evenodd" stroke="none"/>
    <path d="M26.15 30.5 Q22.85 33.3 18.2 33.3 13.5 33.3 10.2 30.5 L18.15 23.75 26.15 30.5 M1.85 16.1 Q1.1 11.85 3.45 7.8 5.75 3.75 9.85 2.3 L11.75 12.6 1.85 16.1 M34.45 16.1 L24.6 12.6 26.45 2.3 Q30.55 3.75 32.9 7.8 35.25 11.85 34.45 16.1" fill="url(#gradient3)" fill-rule="evenodd" stroke="none"/>
    <path d="M25.0 12.75 L24.6 12.6 26.45 2.3 Q29.25 3.3 31.35 5.65 33.4 8.0 34.2 10.95 33.15 8.4 31.25 6.45 29.25 4.5 26.7 3.6 L25.0 12.75" fill="#f2f2f2" fill-rule="evenodd" stroke="none"/>
    <path d="M5.1 6.45 Q3.15 8.4 2.15 10.95 2.95 7.95 4.95 5.65 7.05 3.3 9.85 2.3 L11.75 12.6 11.35 12.75 9.65 3.6 Q7.05 4.5 5.1 6.45" fill="#f2f2f2" fill-rule="evenodd" stroke="none"/>
    <path d="M10.9 31.05 L10.2 30.5 18.15 23.75 26.15 30.5 25.45 31.05 18.15 25.05 10.9 31.05" fill="#f2f2f2" fill-rule="evenodd" stroke="none"/>
    <path d="M23.35 16.3 Q23.35 18.5 21.85 20.0 20.35 21.5 18.15 21.5 16.0 21.5 14.5 20.0 12.95 18.45 12.95 16.3 12.95 14.15 14.5 12.65 16.0 11.1 18.15 11.1 20.3 11.1 21.85 12.65 23.35 14.15 23.35 16.3" fill="#4c007d" fill-rule="evenodd" stroke="none"/>
    <path d="M22.45 16.3 Q22.45 18.1 21.2 19.35 19.95 20.6 18.15 20.6 16.4 20.6 15.1 19.35 13.85 18.1 13.85 16.3 13.85 14.55 15.1 13.25 16.4 12.0 18.15 12.0 19.95 12.0 21.2 13.25 22.45 14.55 22.45 16.3" fill="url(#gradient4)" fill-rule="evenodd" stroke="none"/>
  </g>
  <defs>
    <radialGradient cx="0" cy="0" gradientTransform="matrix(0.017, 0.0, 0.0, -0.017, 16.45, 13.6)" gradientUnits="userSpaceOnUse" id="gradient0" r="819.2" spreadMethod="pad">
      <stop offset="0.0" stop-color="#ff8ff4"/>
      <stop offset="0.35294117647058826" stop-color="#ff38de"/>
      <stop offset="0.7647058823529411" stop-color="#7b00a8"/>
      <stop offset="1.0" stop-color="#bf59ff"/>
    </radialGradient>
    <radialGradient cx="0" cy="0" gradientTransform="matrix(0.0138, 0.0, 0.0, -0.0138, 15.9, 14.85)" gradientUnits="userSpaceOnUse" id="gradient1" r="819.2" spreadMethod="pad">
      <stop offset="0.0" stop-color="#ffe8fd"/>
      <stop offset="1.0" stop-color="#ff82ea"/>
    </radialGradient>
    <radialGradient cx="0" cy="0" gradientTransform="matrix(0.0121, 0.0, 0.0, -0.0121, 18.35, 16.25)" gradientUnits="userSpaceOnUse" id="gradient2" r="819.2" spreadMethod="pad">
      <stop offset="0.3764705882352941" stop-color="#4c007d"/>
      <stop offset="1.0" stop-color="#7f00ad"/>
    </radialGradient>
    <radialGradient cx="0" cy="0" gradientTransform="matrix(0.0224, 0.0, 0.0, -0.0224, 18.15, 16.35)" gradientUnits="userSpaceOnUse" id="gradient3" r="819.2" spreadMethod="pad">
      <stop offset="0.0" stop-color="#ffffff"/>
      <stop offset="0.5137254901960784" stop-color="#e8e8e8"/>
      <stop offset="0.8352941176470589" stop-color="#858585"/>
      <stop offset="1.0" stop-color="#d4d4d4"/>
    </radialGradient>
    <radialGradient cx="0" cy="0" gradientTransform="matrix(0.0062, 0.0, 0.0, -0.0062, 17.7, 15.2)" gradientUnits="userSpaceOnUse" id="gradient4" r="819.2" spreadMethod="pad">
      <stop offset="0.0" stop-color="#ffffff"/>
      <stop offset="0.2901960784313726" stop-color="#e8e8e8"/>
      <stop offset="0.4392156862745098" stop-color="#c4c4c4"/>
      <stop offset="0.7019607843137254" stop-color="#888888"/>
      <stop offset="0.8313725490196079" stop-color="#707070"/>
      <stop offset="1.0" stop-color="#d4d4d4"/>
    </radialGradient>
  </defs>
</svg>
