<?xml version="1.0" encoding="UTF-8" standalone="no"?>
<svg xmlns:ffdec="https://www.free-decompiler.com/flash" xmlns:xlink="http://www.w3.org/1999/xlink" ffdec:objectType="shape" height="33.65px" width="32.9px" xmlns="http://www.w3.org/2000/svg">
  <g transform="matrix(1.0, 0.0, 0.0, 1.0, 0.0, 0.0)">
    <path d="M32.9 8.45 Q32.8 9.1 32.25 9.1 L29.7 9.55 Q26.95 10.2 25.65 11.45 27.65 12.0 28.3 13.8 28.7 15.05 28.1 16.35 27.5 17.6 26.2 18.4 L26.0 19.4 Q27.95 19.9 29.25 21.6 31.0 23.95 31.25 28.3 L31.15 28.75 30.75 29.0 30.55 29.05 Q30.15 29.05 29.95 28.6 L28.75 26.35 Q27.25 23.9 25.65 23.05 25.75 25.2 24.25 26.3 23.35 26.9 22.25 26.9 20.55 26.9 19.2 25.7 L18.2 25.85 Q18.55 30.7 11.4 33.6 L11.15 33.65 Q10.7 33.65 10.5 33.3 10.25 32.8 10.65 32.4 14.1 29.45 14.65 26.6 L13.1 26.9 Q11.95 26.9 11.1 26.3 10.05 25.5 9.8 24.1 9.5 22.75 10.1 21.3 L9.7 20.4 7.6 20.8 Q3.9 20.8 0.2 16.35 -0.2 15.9 0.2 15.4 0.4 15.2 0.7 15.2 L1.1 15.3 Q4.4 17.3 7.15 17.3 L7.8 17.25 Q6.45 15.55 7.05 13.8 7.45 12.65 8.5 12.0 9.6 11.3 11.0 11.3 L11.45 11.3 12.2 10.65 Q9.05 6.8 13.15 0.35 13.4 0.0 13.75 0.0 L14.0 0.05 Q14.55 0.3 14.4 0.9 14.15 2.0 14.05 3.4 13.85 6.25 14.6 7.9 15.8 6.1 17.65 6.1 18.95 6.1 20.0 7.05 21.0 8.0 21.4 9.5 L22.25 10.0 Q24.0 7.15 28.25 7.15 L32.35 7.7 Q32.9 7.85 32.9 8.45" fill="#000000" fill-rule="evenodd" stroke="none"/>
  </g>
</svg>
