<?xml version="1.0" encoding="UTF-8" standalone="no"?>
<svg xmlns:ffdec="https://www.free-decompiler.com/flash" xmlns:xlink="http://www.w3.org/1999/xlink" ffdec:objectType="shape" height="32.1px" width="32.6px" xmlns="http://www.w3.org/2000/svg">
  <g transform="matrix(1.0, 0.0, 0.0, 1.0, -1.65, -1.05)">
    <path d="M2.6 11.55 Q3.9 9.05 6.8 6.85 6.95 6.7 7.2 6.7 L7.7 6.9 Q8.2 7.3 7.8 7.75 5.2 12.35 6.75 15.2 7.6 16.75 9.15 17.05 L9.05 16.75 Q7.55 15.95 6.95 14.35 6.3 12.75 6.85 11.15 7.3 9.75 8.45 8.85 9.55 7.95 11.0 7.85 11.0 5.15 12.7 3.2 14.6 1.05 17.7 1.05 21.1 1.05 24.9 3.75 25.35 4.1 25.1 4.6 L24.5 5.0 24.35 5.0 21.5 4.65 Q18.15 4.65 16.65 6.6 15.8 7.75 15.9 9.15 L16.2 8.9 Q16.5 7.3 17.8 6.2 19.15 5.1 20.85 5.1 22.3 5.1 23.5 5.9 24.7 6.75 25.25 8.05 L27.5 7.7 Q30.8 7.7 32.7 10.3 35.35 13.8 33.45 20.0 33.3 20.5 32.75 20.5 L32.7 20.5 Q32.15 20.4 32.05 19.85 31.75 16.3 30.1 14.4 28.75 12.85 26.95 12.85 L25.5 13.1 25.8 13.3 26.4 13.25 Q27.95 13.25 29.15 14.15 30.4 15.1 30.85 16.55 31.35 17.95 30.95 19.35 30.55 20.75 29.45 21.65 30.55 23.15 30.8 24.9 31.0 26.7 30.3 28.3 29.35 30.55 26.8 31.8 24.25 33.1 20.6 33.15 20.05 33.15 19.95 32.6 19.8 32.0 20.35 31.8 25.15 29.65 25.55 26.4 25.8 24.7 24.7 23.45 L24.65 23.85 Q25.35 25.35 24.95 27.0 24.5 28.65 23.1 29.65 21.85 30.55 20.25 30.55 18.95 30.55 17.8 29.85 15.7 32.75 12.35 32.75 10.35 32.75 8.55 31.5 5.7 29.55 4.15 25.0 3.95 24.45 4.5 24.2 L4.85 24.1 5.35 24.35 Q8.3 27.7 11.3 27.7 13.6 27.7 14.6 25.9 L14.25 25.95 Q12.9 27.2 11.05 27.2 9.55 27.2 8.25 26.3 7.05 25.45 6.55 24.05 6.05 22.7 6.4 21.35 4.65 20.75 3.4 19.45 2.2 18.15 1.8 16.45 1.3 14.05 2.6 11.55" fill="#300000" fill-rule="evenodd" stroke="none"/>
    <path d="M16.8 9.75 Q16.8 8.15 18.0 6.95 19.15 5.8 20.85 5.8 22.5 5.8 23.7 6.95 24.9 8.15 24.9 9.75 24.9 11.4 23.7 12.55 22.5 13.7 20.85 13.7 19.15 13.7 18.0 12.55 16.8 11.4 16.8 9.75" fill="url(#gradient0)" fill-rule="evenodd" stroke="none"/>
    <path d="M23.7 12.55 Q22.5 13.7 20.85 13.7 19.15 13.7 18.0 12.55 16.8 11.4 16.8 9.75 16.8 9.15 16.95 8.6 L18.0 8.4 Q19.1 8.4 19.95 9.2 20.8 10.0 21.1 11.25 L21.2 11.3 Q22.5 9.25 24.6 8.4 L24.9 9.75 Q24.9 11.4 23.7 12.55" fill="#4d4d4d" fill-rule="evenodd" stroke="none"/>
    <path d="M10.0 16.4 Q8.45 15.9 7.7 14.45 7.0 12.95 7.5 11.35 8.05 9.75 9.5 9.0 10.95 8.2 12.5 8.7 14.1 9.25 14.8 10.7 15.55 12.2 15.0 13.8 14.45 15.4 13.05 16.15 L10.0 16.4" fill="url(#gradient1)" fill-rule="evenodd" stroke="none"/>
    <path d="M12.85 12.7 Q11.3 10.75 11.15 8.55 L12.5 8.7 Q14.1 9.25 14.8 10.7 15.55 12.2 15.0 13.8 14.45 15.4 13.05 16.15 L10.0 16.4 8.95 15.9 Q8.95 15.2 9.1 14.85 9.4 13.85 10.45 13.25 11.5 12.7 12.8 12.75 L12.85 12.7" fill="#4d4d4d" fill-rule="evenodd" stroke="none"/>
    <path d="M14.25 24.9 Q13.3 26.25 11.7 26.5 10.05 26.7 8.65 25.7 7.3 24.75 7.05 23.1 6.75 21.45 7.7 20.15 8.7 18.85 10.3 18.6 11.95 18.4 13.3 19.35 14.65 20.35 14.95 21.95 15.2 23.6 14.25 24.9" fill="url(#gradient2)" fill-rule="evenodd" stroke="none"/>
    <path d="M10.3 18.6 Q11.95 18.4 13.3 19.35 14.65 20.35 14.95 21.95 15.2 23.6 14.25 24.9 L13.4 25.75 12.5 25.3 Q11.6 24.65 11.35 23.5 11.15 22.35 11.65 21.15 L11.6 21.1 7.1 21.4 Q7.35 20.6 7.7 20.15 8.7 18.85 10.3 18.6" fill="#4d4d4d" fill-rule="evenodd" stroke="none"/>
    <path d="M23.65 23.5 Q24.6 24.8 24.35 26.45 24.05 28.05 22.7 29.05 21.35 30.05 19.7 29.85 18.1 29.6 17.1 28.25 16.15 26.95 16.4 25.3 16.7 23.7 18.05 22.7 19.4 21.75 21.05 21.95 22.7 22.2 23.65 23.5" fill="url(#gradient3)" fill-rule="evenodd" stroke="none"/>
    <path d="M23.65 23.5 L24.2 24.55 23.5 25.3 Q22.6 25.95 21.45 25.8 20.25 25.7 19.25 24.85 L19.2 24.85 Q19.3 27.25 18.1 29.2 L17.1 28.25 Q16.15 26.95 16.4 25.3 16.7 23.7 18.05 22.7 19.4 21.75 21.05 21.95 22.7 22.2 23.65 23.5" fill="#4d4d4d" fill-rule="evenodd" stroke="none"/>
    <path d="M25.2 14.15 Q26.75 13.65 28.25 14.4 29.65 15.15 30.2 16.75 30.75 18.35 30.0 19.85 29.3 21.35 27.7 21.85 L24.7 21.6 Q23.2 20.8 22.7 19.2 22.2 17.6 22.95 16.15 23.65 14.65 25.2 14.15" fill="url(#gradient4)" fill-rule="evenodd" stroke="none"/>
    <path d="M25.2 14.15 L26.35 13.95 26.9 14.85 Q27.25 15.9 26.75 16.95 26.25 18.0 25.1 18.7 L25.1 18.8 Q27.45 19.5 28.95 21.15 L27.7 21.85 24.7 21.6 Q23.2 20.8 22.7 19.2 22.2 17.6 22.95 16.15 23.65 14.65 25.2 14.15" fill="#4d4d4d" fill-rule="evenodd" stroke="none"/>
    <path d="M26.1 17.75 Q26.1 21.1 23.7 23.5 21.35 25.85 18.0 25.85 14.6 25.85 12.25 23.5 9.85 21.1 9.85 17.75 9.85 14.4 12.25 12.0 14.6 9.65 18.0 9.65 21.35 9.65 23.7 12.0 26.1 14.4 26.1 17.75" fill="url(#gradient5)" fill-rule="evenodd" stroke="none"/>
    <path d="M23.35 13.9 L21.3 14.45 21.4 12.05 Q22.8 9.6 25.35 8.75 L29.95 8.9 Q35.4 11.35 32.75 19.8 32.25 14.15 28.8 12.55 25.65 11.1 23.35 13.9" fill="url(#gradient6)" fill-rule="evenodd" stroke="none"/>
    <path d="M21.6 14.1 Q24.7 8.75 29.15 10.3 33.55 11.8 33.25 17.8 L32.75 19.8 Q32.35 15.45 30.1 13.4 28.05 11.55 25.65 12.3 24.45 12.55 23.65 13.55 L21.6 14.1" fill="#fff494" fill-rule="evenodd" stroke="none"/>
    <path d="M21.3 14.45 Q24.65 8.65 29.3 10.8 34.0 12.95 32.75 19.8 32.25 14.15 28.8 12.55 25.65 11.1 23.35 13.9 L21.3 14.45" fill="url(#gradient7)" fill-rule="evenodd" stroke="none"/>
    <path d="M16.0 11.45 L15.85 13.55 13.65 12.75 Q11.75 10.65 11.7 7.95 11.65 5.4 13.25 3.65 17.25 -0.8 24.5 4.3 18.95 3.05 16.4 5.85 14.0 8.4 16.0 11.45" fill="url(#gradient8)" fill-rule="evenodd" stroke="none"/>
    <path d="M15.65 13.2 Q11.55 8.6 14.35 4.85 17.15 1.1 22.75 3.25 L24.5 4.3 Q20.2 3.35 17.55 4.9 15.2 6.3 15.2 8.8 15.05 9.95 15.75 11.1 L15.65 13.2" fill="#fff494" fill-rule="evenodd" stroke="none"/>
    <path d="M15.85 13.55 Q11.4 8.6 14.9 4.8 18.35 1.0 24.5 4.3 18.95 3.05 16.4 5.85 14.0 8.4 16.0 11.45 L15.85 13.55" fill="url(#gradient9)" fill-rule="evenodd" stroke="none"/>
    <path d="M11.35 17.7 L13.35 18.45 11.9 20.35 Q9.3 21.5 6.75 20.7 4.3 19.95 3.1 17.9 0.15 12.7 7.2 7.4 4.3 12.3 6.15 15.6 7.85 18.65 11.35 17.7" fill="url(#gradient10)" fill-rule="evenodd" stroke="none"/>
    <path d="M5.65 8.7 L7.2 7.4 Q5.0 11.15 5.65 14.15 6.2 16.85 8.6 17.65 L10.95 17.8 12.95 18.55 Q7.3 21.05 4.6 17.25 1.9 13.4 5.65 8.7" fill="#fff494" fill-rule="evenodd" stroke="none"/>
    <path d="M7.2 7.4 Q4.3 12.3 6.15 15.6 7.85 18.65 11.35 17.7 L13.35 18.45 Q7.25 21.15 4.75 16.7 2.2 12.2 7.2 7.4" fill="url(#gradient11)" fill-rule="evenodd" stroke="none"/>
    <path d="M15.9 24.05 L17.25 22.4 18.55 24.35 Q18.85 27.2 17.3 29.35 15.85 31.45 13.5 31.95 7.7 33.15 4.85 24.8 8.55 29.05 12.25 28.35 15.7 27.65 15.9 24.05" fill="url(#gradient12)" fill-rule="evenodd" stroke="none"/>
    <path d="M17.2 22.8 Q17.85 28.95 13.35 30.35 8.9 31.7 5.6 26.7 5.1 25.75 4.85 24.8 7.75 28.05 10.75 28.4 13.5 28.65 15.0 26.65 15.8 25.8 15.85 24.45 L17.2 22.8" fill="#fff494" fill-rule="evenodd" stroke="none"/>
    <path d="M17.25 22.4 Q17.95 29.0 12.9 30.05 7.85 31.05 4.85 24.8 8.55 29.05 12.25 28.35 15.7 27.65 15.9 24.05 L17.25 22.4" fill="url(#gradient13)" fill-rule="evenodd" stroke="none"/>
    <path d="M23.3 21.65 L22.15 19.9 24.45 19.25 Q27.2 19.85 28.85 22.0 30.35 24.0 30.1 26.4 29.45 32.3 20.6 32.45 25.8 30.2 26.25 26.45 26.7 23.0 23.3 21.65" fill="url(#gradient14)" fill-rule="evenodd" stroke="none"/>
    <path d="M22.55 20.05 Q28.6 21.35 28.55 26.05 28.45 30.7 22.65 32.3 L20.6 32.45 Q24.65 30.7 25.85 27.9 26.95 25.4 25.5 23.35 24.95 22.3 23.7 21.85 L22.55 20.05" fill="#fff494" fill-rule="evenodd" stroke="none"/>
    <path d="M22.15 19.9 Q28.7 21.3 28.1 26.4 27.5 31.5 20.6 32.45 25.8 30.2 26.25 26.45 26.7 23.0 23.3 21.65 L22.15 19.9" fill="url(#gradient15)" fill-rule="evenodd" stroke="none"/>
    <path d="M15.3 12.4 Q15.3 10.95 16.1 9.95 16.9 8.95 18.0 8.95 19.1 8.95 19.85 9.95 20.65 11.0 20.65 12.4 20.65 13.8 19.85 14.85 19.1 15.85 18.0 15.85 16.9 15.85 16.1 14.85 15.3 13.85 15.3 12.4" fill="url(#gradient16)" fill-rule="evenodd" stroke="none"/>
    <path d="M12.05 18.65 Q10.7 18.2 10.0 17.15 9.3 16.1 9.65 15.05 10.0 14.0 11.2 13.55 12.35 13.1 13.75 13.55 15.1 14.0 15.8 15.05 16.5 16.1 16.15 17.15 15.8 18.2 14.6 18.65 13.4 19.1 12.05 18.65" fill="url(#gradient17)" fill-rule="evenodd" stroke="none"/>
    <path d="M17.0 23.65 Q16.2 24.8 14.95 25.15 13.7 25.5 12.8 24.85 11.9 24.2 11.85 22.95 11.8 21.65 12.65 20.5 13.5 19.35 14.75 19.0 15.95 18.65 16.85 19.3 17.75 19.95 17.8 21.2 17.85 22.5 17.0 23.65" fill="url(#gradient18)" fill-rule="evenodd" stroke="none"/>
    <path d="M23.3 20.5 Q24.15 21.65 24.1 22.95 24.05 24.2 23.15 24.85 22.25 25.5 21.0 25.15 19.75 24.8 18.95 23.65 18.1 22.5 18.15 21.2 18.2 19.95 19.1 19.3 20.0 18.65 21.2 19.0 22.45 19.35 23.3 20.5" fill="url(#gradient19)" fill-rule="evenodd" stroke="none"/>
    <path d="M22.25 13.55 Q23.6 13.1 24.8 13.55 25.95 14.0 26.35 15.05 26.7 16.1 25.95 17.15 25.25 18.2 23.9 18.65 22.55 19.1 21.35 18.65 20.15 18.2 19.8 17.15 19.45 16.1 20.2 15.05 20.9 14.0 22.25 13.55" fill="url(#gradient20)" fill-rule="evenodd" stroke="none"/>
    <path d="M21.6 17.75 Q21.6 19.25 20.55 20.35 19.5 21.4 18.0 21.4 16.45 21.4 15.4 20.35 14.35 19.25 14.35 17.75 14.35 16.25 15.4 15.2 16.45 14.1 18.0 14.1 19.5 14.1 20.55 15.2 21.6 16.25 21.6 17.75" fill="#851b1b" fill-rule="evenodd" stroke="none"/>
    <path d="M21.05 17.75 Q21.05 19.0 20.15 19.9 19.25 20.8 18.0 20.8 16.7 20.8 15.8 19.9 14.9 19.0 14.9 17.75 14.9 16.5 15.8 15.6 16.7 14.7 18.0 14.7 19.25 14.7 20.15 15.6 21.05 16.5 21.05 17.75" fill="url(#gradient21)" fill-rule="evenodd" stroke="none"/>
    <path d="M17.3 16.7 L16.95 17.05 15.65 15.8 16.0 15.4 17.3 16.7" fill="#4d4d4d" fill-rule="evenodd" stroke="none"/>
    <path d="M19.05 17.05 L18.65 16.7 19.95 15.4 20.3 15.8 19.05 17.05" fill="#4d4d4d" fill-rule="evenodd" stroke="none"/>
    <path d="M16.95 18.45 L17.3 18.8 16.0 20.1 15.65 19.7 16.95 18.45" fill="#4d4d4d" fill-rule="evenodd" stroke="none"/>
    <path d="M18.65 18.8 L19.05 18.45 20.3 19.7 19.95 20.1 18.65 18.8" fill="#4d4d4d" fill-rule="evenodd" stroke="none"/>
  </g>
  <defs>
    <linearGradient gradientTransform="matrix(-0.0046, 5.0E-4, 5.0E-4, 0.0046, 20.85, 9.75)" gradientUnits="userSpaceOnUse" id="gradient0" spreadMethod="pad" x1="-819.2" x2="819.2">
      <stop offset="0.0" stop-color="#ffffff"/>
      <stop offset="1.0" stop-color="#666666"/>
    </linearGradient>
    <linearGradient gradientTransform="matrix(-0.001, 0.0045, 0.0045, 0.001, 11.25, 12.55)" gradientUnits="userSpaceOnUse" id="gradient1" spreadMethod="pad" x1="-819.2" x2="819.2">
      <stop offset="0.0" stop-color="#ffffff"/>
      <stop offset="1.0" stop-color="#666666"/>
    </linearGradient>
    <linearGradient gradientTransform="matrix(0.004, 0.0023, 0.0023, -0.004, 10.95, 22.55)" gradientUnits="userSpaceOnUse" id="gradient2" spreadMethod="pad" x1="-819.2" x2="819.2">
      <stop offset="0.0" stop-color="#ffffff"/>
      <stop offset="1.0" stop-color="#666666"/>
    </linearGradient>
    <linearGradient gradientTransform="matrix(0.0035, -0.0031, -0.0031, -0.0035, 20.35, 25.9)" gradientUnits="userSpaceOnUse" id="gradient3" spreadMethod="pad" x1="-819.2" x2="819.2">
      <stop offset="0.0" stop-color="#ffffff"/>
      <stop offset="1.0" stop-color="#666666"/>
    </linearGradient>
    <linearGradient gradientTransform="matrix(-0.0019, -0.0043, -0.0043, 0.0019, 26.45, 18.0)" gradientUnits="userSpaceOnUse" id="gradient4" spreadMethod="pad" x1="-819.2" x2="819.2">
      <stop offset="0.0" stop-color="#ffffff"/>
      <stop offset="1.0" stop-color="#666666"/>
    </linearGradient>
    <radialGradient cx="0" cy="0" gradientTransform="matrix(0.0128, 0.0, 0.0, -0.0128, 16.35, 15.5)" gradientUnits="userSpaceOnUse" id="gradient5" r="819.2" spreadMethod="pad">
      <stop offset="0.47843137254901963" stop-color="#e8e8e8"/>
      <stop offset="0.8313725490196079" stop-color="#858585"/>
      <stop offset="0.8666666666666667" stop-color="#8a8a8a"/>
      <stop offset="0.9058823529411765" stop-color="#989898"/>
      <stop offset="0.9490196078431372" stop-color="#afafaf"/>
      <stop offset="0.9921568627450981" stop-color="#cfcfcf"/>
      <stop offset="1.0" stop-color="#d4d4d4"/>
    </radialGradient>
    <linearGradient gradientTransform="matrix(-0.0069, 7.0E-4, 7.0E-4, 0.0069, 27.4, 14.35)" gradientUnits="userSpaceOnUse" id="gradient6" spreadMethod="pad" x1="-819.2" x2="819.2">
      <stop offset="0.0" stop-color="#ffe875"/>
      <stop offset="0.43137254901960786" stop-color="#e60707"/>
      <stop offset="0.7137254901960784" stop-color="#870000"/>
      <stop offset="1.0" stop-color="#eb3f73"/>
    </linearGradient>
    <linearGradient gradientTransform="matrix(-0.0071, 0.0, 0.0, 0.0071, 27.15, 15.05)" gradientUnits="userSpaceOnUse" id="gradient7" spreadMethod="pad" x1="-819.2" x2="819.2">
      <stop offset="0.0" stop-color="#e60707"/>
      <stop offset="0.27450980392156865" stop-color="#870000"/>
      <stop offset="0.7019607843137254" stop-color="#9a0c16"/>
      <stop offset="1.0" stop-color="#eb3f73"/>
    </linearGradient>
    <linearGradient gradientTransform="matrix(-0.0015, 0.0068, 0.0068, 0.0015, 17.65, 7.7)" gradientUnits="userSpaceOnUse" id="gradient8" spreadMethod="pad" x1="-819.2" x2="819.2">
      <stop offset="0.0" stop-color="#ffe875"/>
      <stop offset="0.43137254901960786" stop-color="#e60707"/>
      <stop offset="0.7137254901960784" stop-color="#870000"/>
      <stop offset="1.0" stop-color="#eb3f73"/>
    </linearGradient>
    <linearGradient gradientTransform="matrix(-0.0022, 0.0068, 0.0068, 0.0022, 18.25, 8.2)" gradientUnits="userSpaceOnUse" id="gradient9" spreadMethod="pad" x1="-819.2" x2="819.2">
      <stop offset="0.0" stop-color="#e60707"/>
      <stop offset="0.27450980392156865" stop-color="#870000"/>
      <stop offset="0.7019607843137254" stop-color="#9a0c16"/>
      <stop offset="1.0" stop-color="#eb3f73"/>
    </linearGradient>
    <linearGradient gradientTransform="matrix(0.006, 0.0035, 0.0035, -0.006, 8.35, 14.95)" gradientUnits="userSpaceOnUse" id="gradient10" spreadMethod="pad" x1="-819.2" x2="819.2">
      <stop offset="0.0" stop-color="#ffe875"/>
      <stop offset="0.43137254901960786" stop-color="#e60707"/>
      <stop offset="0.7137254901960784" stop-color="#870000"/>
      <stop offset="1.0" stop-color="#eb3f73"/>
    </linearGradient>
    <linearGradient gradientTransform="matrix(0.0058, 0.0042, 0.0042, -0.0058, 9.0, 14.55)" gradientUnits="userSpaceOnUse" id="gradient11" spreadMethod="pad" x1="-819.2" x2="819.2">
      <stop offset="0.0" stop-color="#e60707"/>
      <stop offset="0.27450980392156865" stop-color="#870000"/>
      <stop offset="0.7019607843137254" stop-color="#9a0c16"/>
      <stop offset="1.0" stop-color="#eb3f73"/>
    </linearGradient>
    <linearGradient gradientTransform="matrix(0.0052, -0.0046, -0.0046, -0.0052, 12.35, 26.05)" gradientUnits="userSpaceOnUse" id="gradient12" spreadMethod="pad" x1="-819.2" x2="819.2">
      <stop offset="0.0" stop-color="#ffe875"/>
      <stop offset="0.43137254901960786" stop-color="#e60707"/>
      <stop offset="0.7137254901960784" stop-color="#870000"/>
      <stop offset="1.0" stop-color="#eb3f73"/>
    </linearGradient>
    <linearGradient gradientTransform="matrix(0.0058, -0.0042, -0.0042, -0.0058, 12.15, 25.3)" gradientUnits="userSpaceOnUse" id="gradient13" spreadMethod="pad" x1="-819.2" x2="819.2">
      <stop offset="0.0" stop-color="#e60707"/>
      <stop offset="0.27450980392156865" stop-color="#870000"/>
      <stop offset="0.7019607843137254" stop-color="#9a0c16"/>
      <stop offset="1.0" stop-color="#eb3f73"/>
    </linearGradient>
    <linearGradient gradientTransform="matrix(-0.0028, -0.0064, -0.0064, 0.0028, 24.15, 25.65)" gradientUnits="userSpaceOnUse" id="gradient14" spreadMethod="pad" x1="-819.2" x2="819.2">
      <stop offset="0.0" stop-color="#ffe875"/>
      <stop offset="0.43137254901960786" stop-color="#e60707"/>
      <stop offset="0.7137254901960784" stop-color="#870000"/>
      <stop offset="1.0" stop-color="#eb3f73"/>
    </linearGradient>
    <linearGradient gradientTransform="matrix(-0.0022, -0.0068, -0.0068, 0.0022, 23.35, 25.65)" gradientUnits="userSpaceOnUse" id="gradient15" spreadMethod="pad" x1="-819.2" x2="819.2">
      <stop offset="0.0" stop-color="#e60707"/>
      <stop offset="0.27450980392156865" stop-color="#870000"/>
      <stop offset="0.7019607843137254" stop-color="#9a0c16"/>
      <stop offset="1.0" stop-color="#eb3f73"/>
    </linearGradient>
    <radialGradient cx="0" cy="0" gradientTransform="matrix(0.0105, 0.0, 0.0, -0.0105, 17.8, 17.75)" gradientUnits="userSpaceOnUse" id="gradient16" r="819.2" spreadMethod="pad">
      <stop offset="0.47843137254901963" stop-color="#e8e8e8"/>
      <stop offset="0.8313725490196079" stop-color="#858585"/>
      <stop offset="0.8666666666666667" stop-color="#8a8a8a"/>
      <stop offset="0.9058823529411765" stop-color="#989898"/>
      <stop offset="0.9490196078431372" stop-color="#afafaf"/>
      <stop offset="0.9921568627450981" stop-color="#cfcfcf"/>
      <stop offset="1.0" stop-color="#d4d4d4"/>
    </radialGradient>
    <radialGradient cx="0" cy="0" gradientTransform="matrix(0.0033, -0.01, -0.01, -0.0033, 17.9, 17.95)" gradientUnits="userSpaceOnUse" id="gradient17" r="819.2" spreadMethod="pad">
      <stop offset="0.47843137254901963" stop-color="#e8e8e8"/>
      <stop offset="0.8313725490196079" stop-color="#858585"/>
      <stop offset="0.8666666666666667" stop-color="#8a8a8a"/>
      <stop offset="0.9058823529411765" stop-color="#989898"/>
      <stop offset="0.9490196078431372" stop-color="#afafaf"/>
      <stop offset="0.9921568627450981" stop-color="#cfcfcf"/>
      <stop offset="1.0" stop-color="#d4d4d4"/>
    </radialGradient>
    <radialGradient cx="0" cy="0" gradientTransform="matrix(-0.0085, -0.0062, -0.0062, 0.0085, 18.15, 17.85)" gradientUnits="userSpaceOnUse" id="gradient18" r="819.2" spreadMethod="pad">
      <stop offset="0.47843137254901963" stop-color="#e8e8e8"/>
      <stop offset="0.8313725490196079" stop-color="#858585"/>
      <stop offset="0.8666666666666667" stop-color="#8a8a8a"/>
      <stop offset="0.9058823529411765" stop-color="#989898"/>
      <stop offset="0.9490196078431372" stop-color="#afafaf"/>
      <stop offset="0.9921568627450981" stop-color="#cfcfcf"/>
      <stop offset="1.0" stop-color="#d4d4d4"/>
    </radialGradient>
    <radialGradient cx="0" cy="0" gradientTransform="matrix(-0.0085, 0.0062, 0.0062, 0.0085, 18.15, 17.65)" gradientUnits="userSpaceOnUse" id="gradient19" r="819.2" spreadMethod="pad">
      <stop offset="0.47843137254901963" stop-color="#e8e8e8"/>
      <stop offset="0.8313725490196079" stop-color="#858585"/>
      <stop offset="0.8666666666666667" stop-color="#8a8a8a"/>
      <stop offset="0.9058823529411765" stop-color="#989898"/>
      <stop offset="0.9490196078431372" stop-color="#afafaf"/>
      <stop offset="0.9921568627450981" stop-color="#cfcfcf"/>
      <stop offset="1.0" stop-color="#d4d4d4"/>
    </radialGradient>
    <radialGradient cx="0" cy="0" gradientTransform="matrix(0.0033, 0.01, 0.01, -0.0033, 17.9, 17.55)" gradientUnits="userSpaceOnUse" id="gradient20" r="819.2" spreadMethod="pad">
      <stop offset="0.47843137254901963" stop-color="#e8e8e8"/>
      <stop offset="0.8313725490196079" stop-color="#858585"/>
      <stop offset="0.8666666666666667" stop-color="#8a8a8a"/>
      <stop offset="0.9058823529411765" stop-color="#989898"/>
      <stop offset="0.9490196078431372" stop-color="#afafaf"/>
      <stop offset="0.9921568627450981" stop-color="#cfcfcf"/>
      <stop offset="1.0" stop-color="#d4d4d4"/>
    </radialGradient>
    <radialGradient cx="0" cy="0" gradientTransform="matrix(0.0048, 0.0, 0.0, -0.0048, 17.35, 16.9)" gradientUnits="userSpaceOnUse" id="gradient21" r="819.2" spreadMethod="pad">
      <stop offset="0.0" stop-color="#ffffff"/>
      <stop offset="0.2901960784313726" stop-color="#e8e8e8"/>
      <stop offset="0.4392156862745098" stop-color="#c4c4c4"/>
      <stop offset="0.7019607843137254" stop-color="#888888"/>
      <stop offset="0.8313725490196079" stop-color="#707070"/>
      <stop offset="1.0" stop-color="#d4d4d4"/>
    </radialGradient>
  </defs>
</svg>
