<?xml version="1.0" encoding="UTF-8" standalone="no"?>
<svg xmlns:ffdec="https://www.free-decompiler.com/flash" xmlns:xlink="http://www.w3.org/1999/xlink" ffdec:objectType="shape" height="35.5px" width="35.8px" xmlns="http://www.w3.org/2000/svg">
  <g transform="matrix(1.0, 0.0, 0.0, 1.0, 0.05, 0.0)">
    <path d="M32.5 5.75 Q33.05 7.4 32.6 8.95 35.25 11.8 34.35 17.0 L34.2 18.95 34.9 19.65 Q36.1 21.4 35.65 23.55 35.2 25.65 33.4 26.95 32.0 28.0 30.4 28.05 28.45 31.45 23.2 32.15 L21.35 32.65 20.85 33.5 Q19.4 35.5 16.85 35.5 15.0 35.5 13.45 34.35 12.1 33.4 11.5 31.85 7.7 31.1 5.35 26.25 L4.35 24.65 3.35 24.45 Q1.4 23.85 0.45 21.8 -0.4 19.9 0.25 17.7 0.75 16.2 2.05 15.05 1.6 11.15 5.5 7.45 L6.7 6.0 6.55 5.0 Q6.55 2.95 8.15 1.45 9.75 0.0 12.05 0.0 13.75 0.0 15.1 0.9 16.4 0.25 18.05 0.25 20.6 0.25 23.35 1.75 L25.15 2.5 26.05 2.05 27.45 1.85 Q29.15 1.85 30.55 2.95 31.95 4.0 32.5 5.75" fill="#000000" fill-rule="evenodd" stroke="none"/>
  </g>
</svg>
