<?xml version="1.0" encoding="UTF-8" standalone="no"?>
<svg xmlns:ffdec="https://www.free-decompiler.com/flash" xmlns:xlink="http://www.w3.org/1999/xlink" ffdec:objectType="shape" height="18.5px" width="23.3px" xmlns="http://www.w3.org/2000/svg">
  <g transform="matrix(1.0, 0.0, 0.0, 1.0, 0.0, 0.0)">
    <path d="M23.3 14.2 Q23.3 15.95 22.05 17.25 20.8 18.5 19.0 18.5 L4.25 18.5 Q2.5 18.5 1.25 17.25 0.0 15.95 0.0 14.2 0.0 12.45 1.25 11.2 2.5 9.95 4.25 9.95 L19.0 9.95 Q20.8 9.95 22.05 11.2 23.3 12.45 23.3 14.2 M22.05 7.35 Q20.8 8.6 19.0 8.6 L4.25 8.6 Q2.5 8.6 1.25 7.35 0.0 6.05 0.0 4.3 0.0 2.55 1.25 1.25 2.5 0.0 4.25 0.0 L19.0 0.0 Q20.8 0.0 22.05 1.25 23.3 2.55 23.3 4.3 23.3 6.05 22.05 7.35" fill="#000000" fill-rule="evenodd" stroke="none"/>
  </g>
</svg>
