<?xml version="1.0" encoding="UTF-8" standalone="no"?>
<svg xmlns:ffdec="https://www.free-decompiler.com/flash" xmlns:xlink="http://www.w3.org/1999/xlink" ffdec:objectType="shape" height="24.7px" width="23.35px" xmlns="http://www.w3.org/2000/svg">
  <g transform="matrix(1.0, 0.0, 0.0, 1.0, 0.0, 0.0)">
    <path d="M22.1 1.25 Q23.35 2.55 23.35 4.3 23.35 5.65 22.5 6.8 21.7 7.9 20.45 8.3 21.7 8.75 22.5 9.85 23.35 11.0 23.35 12.35 23.35 13.75 22.5 14.85 21.7 15.95 20.45 16.4 21.7 16.8 22.5 17.9 23.35 19.05 23.35 20.4 23.35 22.15 22.1 23.45 20.8 24.7 19.05 24.7 L4.3 24.7 Q2.55 24.7 1.25 23.45 0.0 22.15 0.0 20.4 0.0 19.05 0.85 17.9 1.65 16.8 2.9 16.4 1.65 15.95 0.85 14.85 0.0 13.75 0.0 12.35 0.0 11.0 0.85 9.85 1.65 8.75 2.9 8.3 1.65 7.9 0.85 6.8 0.0 5.65 0.0 4.3 0.0 2.55 1.25 1.25 2.55 0.0 4.3 0.0 L19.05 0.0 Q20.8 0.0 22.1 1.25" fill="#000000" fill-rule="evenodd" stroke="none"/>
  </g>
</svg>
