<?xml version="1.0" encoding="UTF-8" standalone="no"?>
<svg xmlns:ffdec="https://www.free-decompiler.com/flash" xmlns:xlink="http://www.w3.org/1999/xlink" ffdec:objectType="shape" height="29.15px" width="23.3px" xmlns="http://www.w3.org/2000/svg">
  <g transform="matrix(1.0, 0.0, 0.0, 1.0, 0.0, 0.0)">
    <path d="M14.0 20.6 L11.65 18.75 9.3 20.6 14.0 20.6 M21.65 7.6 Q22.85 8.6 23.1 10.1 23.25 11.7 22.3 12.9 21.15 14.35 19.35 14.35 L17.7 13.95 21.65 17.05 Q22.85 18.0 23.05 19.5 23.25 21.0 22.35 22.2 23.3 23.4 23.3 24.85 23.3 26.6 22.05 27.9 20.8 29.15 19.05 29.15 L4.3 29.15 Q2.55 29.15 1.25 27.9 0.0 26.6 0.0 24.85 0.0 23.5 0.95 22.2 0.05 21.0 0.25 19.5 0.45 18.0 1.65 17.05 L5.6 13.95 4.0 14.35 Q2.2 14.35 1.05 12.9 0.1 11.7 0.25 10.1 0.5 8.6 1.65 7.6 L11.25 0.15 11.65 0.0 12.1 0.15 21.65 7.6" fill="#000000" fill-rule="evenodd" stroke="none"/>
  </g>
</svg>
