<?xml version="1.0" encoding="UTF-8" standalone="no"?>
<svg xmlns:ffdec="https://www.free-decompiler.com/flash" xmlns:xlink="http://www.w3.org/1999/xlink" ffdec:objectType="shape" height="29.15px" width="23.3px" xmlns="http://www.w3.org/2000/svg">
  <g transform="matrix(1.0, 0.0, 0.0, 1.0, 12.3, 15.1)">
    <path d="M1.7 5.5 L-0.65 3.65 -3.0 5.5 1.7 5.5 M9.35 -7.5 Q10.55 -6.5 10.8 -5.0 10.95 -3.4 10.0 -2.2 8.85 -0.75 7.05 -0.75 L5.4 -1.15 9.35 1.95 Q10.55 2.9 10.75 4.4 10.95 5.9 10.05 7.1 11.0 8.3 11.0 9.75 11.0 11.5 9.75 12.8 8.5 14.05 6.75 14.05 L-8.0 14.05 Q-9.75 14.05 -11.05 12.8 -12.3 11.5 -12.3 9.75 -12.3 8.4 -11.35 7.1 -12.25 5.9 -12.05 4.4 -11.85 2.9 -10.65 1.95 L-6.7 -1.15 Q-7.5 -0.75 -8.3 -0.75 -10.1 -0.75 -11.25 -2.2 -12.2 -3.4 -12.05 -5.0 -11.8 -6.5 -10.65 -7.5 L-1.05 -14.95 -0.65 -15.1 -0.2 -14.95 9.35 -7.5" fill="#003c40" fill-rule="evenodd" stroke="none"/>
    <path d="M9.25 7.25 Q10.3 8.3 10.3 9.75 10.3 11.25 9.25 12.3 8.2 13.35 6.75 13.35 L-8.0 13.35 Q-9.5 13.35 -10.55 12.3 -11.6 11.25 -11.6 9.75 -11.6 8.3 -10.55 7.25 -9.5 6.2 -8.0 6.2 L6.75 6.2 Q8.2 6.2 9.25 7.25" fill="url(#gradient0)" fill-rule="evenodd" stroke="none"/>
    <path d="M8.35 8.15 Q9.0 8.8 9.0 9.75 9.0 10.7 8.35 11.35 7.7 12.0 6.75 12.0 L-8.0 12.0 Q-8.95 12.0 -9.6 11.35 -10.25 10.7 -10.25 9.75 -10.25 8.8 -9.6 8.15 -8.95 7.5 -8.0 7.5 L6.75 7.5 Q7.7 7.5 8.35 8.15" fill="url(#gradient1)" fill-rule="evenodd" stroke="none"/>
    <path d="M7.05 7.95 Q6.0 7.95 5.2 7.3 L-0.65 2.75 -6.45 7.3 Q-7.4 8.1 -8.7 7.95 -9.95 7.75 -10.7 6.75 -11.5 5.8 -11.35 4.5 -11.2 3.25 -10.2 2.5 L-0.65 -5.0 8.95 2.5 Q9.95 3.25 10.1 4.5 10.25 5.8 9.45 6.75 8.55 7.95 7.05 7.95" fill="url(#gradient2)" fill-rule="evenodd" stroke="none"/>
    <path d="M5.2 7.3 L-0.65 2.75 -6.45 7.3 Q-7.4 8.05 -8.6 7.95 -9.8 7.8 -10.6 6.9 L-0.65 -1.05 9.35 6.9 Q8.4 7.95 7.05 7.95 6.0 7.95 5.2 7.3" fill="url(#gradient3)" fill-rule="evenodd" stroke="none"/>
    <path d="M-0.4 -3.35 L8.25 3.4 Q8.85 3.85 8.95 4.65 9.05 5.4 8.55 6.05 8.05 6.8 7.05 6.8 6.35 6.8 5.9 6.4 L0.05 1.85 Q-0.3 1.6 -0.65 1.6 L-1.35 1.85 -7.15 6.4 Q-7.6 6.8 -8.3 6.8 -9.25 6.8 -9.8 6.05 -10.3 5.5 -10.2 4.65 -10.1 3.85 -9.5 3.4 L-0.85 -3.35 -0.65 -3.45 -0.4 -3.35" fill="#dafacb" fill-rule="evenodd" stroke="none"/>
    <path d="M-1.55 1.55 L-7.4 6.1 -8.3 6.4 Q-9.1 6.4 -9.5 5.85 -9.9 5.35 -9.8 4.7 -9.75 4.1 -9.25 3.7 L-0.65 -3.05 8.0 3.7 Q8.5 4.1 8.6 4.7 L8.25 5.85 Q7.8 6.4 7.05 6.4 6.5 6.4 6.1 6.1 L0.3 1.55 Q-0.05 1.25 -0.65 1.25 -1.15 1.25 -1.55 1.55" fill="url(#gradient4)" fill-rule="evenodd" stroke="none"/>
    <path d="M7.05 -1.45 Q6.1 -1.45 5.2 -2.1 L-0.65 -6.65 -6.45 -2.1 Q-7.45 -1.35 -8.7 -1.5 -9.95 -1.65 -10.7 -2.65 -11.5 -3.6 -11.35 -4.9 -11.2 -6.15 -10.2 -6.9 L-0.65 -14.4 8.95 -6.9 Q9.95 -6.15 10.1 -4.9 10.25 -3.6 9.45 -2.65 8.55 -1.45 7.05 -1.45" fill="url(#gradient5)" fill-rule="evenodd" stroke="none"/>
    <path d="M5.2 -2.1 L-0.65 -6.65 -6.45 -2.1 Q-7.4 -1.35 -8.6 -1.45 -9.8 -1.6 -10.6 -2.5 L-0.65 -10.5 9.35 -2.55 Q8.4 -1.45 7.05 -1.45 6.1 -1.45 5.2 -2.1" fill="url(#gradient6)" fill-rule="evenodd" stroke="none"/>
    <path d="M8.55 -3.35 Q7.95 -2.6 7.05 -2.6 6.45 -2.6 5.9 -3.0 L0.05 -7.55 -0.65 -7.8 -1.35 -7.55 -7.15 -3.0 Q-7.7 -2.6 -8.3 -2.6 -9.2 -2.6 -9.8 -3.35 -10.3 -3.9 -10.2 -4.75 -10.1 -5.55 -9.5 -6.0 L-0.85 -12.75 -0.65 -12.85 -0.4 -12.75 8.25 -6.0 Q8.85 -5.55 8.95 -4.75 9.05 -4.0 8.55 -3.35" fill="#dafacb" fill-rule="evenodd" stroke="none"/>
    <path d="M-1.55 -7.85 L-7.4 -3.3 Q-7.75 -3.0 -8.3 -3.0 -9.1 -3.0 -9.5 -3.6 -9.9 -4.1 -9.8 -4.7 -9.75 -5.3 -9.25 -5.7 L-0.65 -12.45 8.0 -5.7 Q8.5 -5.3 8.6 -4.7 8.65 -4.1 8.25 -3.6 7.8 -3.0 7.05 -3.0 6.5 -3.0 6.1 -3.3 L0.3 -7.85 Q-0.15 -8.2 -0.65 -8.2 L-1.55 -7.85" fill="url(#gradient7)" fill-rule="evenodd" stroke="none"/>
  </g>
  <defs>
    <linearGradient gradientTransform="matrix(0.0, 0.0039, 0.0039, 0.0, -0.65, 9.65)" gradientUnits="userSpaceOnUse" id="gradient0" spreadMethod="pad" x1="-819.2" x2="819.2">
      <stop offset="0.0" stop-color="#e8e8e8"/>
      <stop offset="0.1607843137254902" stop-color="#e3e3e3"/>
      <stop offset="0.34901960784313724" stop-color="#d5d5d5"/>
      <stop offset="0.5490196078431373" stop-color="#bebebe"/>
      <stop offset="0.7568627450980392" stop-color="#9d9d9d"/>
      <stop offset="0.9725490196078431" stop-color="#747474"/>
      <stop offset="1.0" stop-color="#6e6e6e"/>
    </linearGradient>
    <linearGradient gradientTransform="matrix(0.0, -0.0026, -0.0026, 0.0, -0.65, 9.9)" gradientUnits="userSpaceOnUse" id="gradient1" spreadMethod="pad" x1="-819.2" x2="819.2">
      <stop offset="0.0" stop-color="#e8e8e8"/>
      <stop offset="0.24313725490196078" stop-color="#e3e3e3"/>
      <stop offset="0.5254901960784314" stop-color="#d5d5d5"/>
      <stop offset="0.8274509803921568" stop-color="#bebebe"/>
      <stop offset="1.0" stop-color="#adadad"/>
    </linearGradient>
    <linearGradient gradientTransform="matrix(0.0, 0.0063, 0.0063, 0.0, -0.65, 1.65)" gradientUnits="userSpaceOnUse" id="gradient2" spreadMethod="pad" x1="-819.2" x2="819.2">
      <stop offset="0.0" stop-color="#dafacb"/>
      <stop offset="0.14901960784313725" stop-color="#b8e9a7"/>
      <stop offset="0.3176470588235294" stop-color="#97d985"/>
      <stop offset="0.4588235294117647" stop-color="#83d070"/>
      <stop offset="0.5529411764705883" stop-color="#7ccc68"/>
      <stop offset="0.6549019607843137" stop-color="#5fb766"/>
      <stop offset="0.8" stop-color="#3c9d63"/>
      <stop offset="0.9215686274509803" stop-color="#268d62"/>
      <stop offset="1.0" stop-color="#1e8761"/>
    </linearGradient>
    <radialGradient cx="0" cy="0" gradientTransform="matrix(0.0111, 0.0, 0.0, -0.0111, -0.55, 1.55)" gradientUnits="userSpaceOnUse" id="gradient3" r="819.2" spreadMethod="pad">
      <stop offset="0.0" stop-color="#2d9262"/>
      <stop offset="0.6431372549019608" stop-color="#7ccc68"/>
      <stop offset="0.7254901960784313" stop-color="#5fb766"/>
      <stop offset="0.8431372549019608" stop-color="#3c9d63"/>
      <stop offset="0.9372549019607843" stop-color="#268d62"/>
      <stop offset="1.0" stop-color="#1e8761"/>
    </radialGradient>
    <linearGradient gradientTransform="matrix(0.0, -0.0054, -0.0054, 0.0, -0.65, 1.8)" gradientUnits="userSpaceOnUse" id="gradient4" spreadMethod="pad" x1="-819.2" x2="819.2">
      <stop offset="0.0" stop-color="#dafacb"/>
      <stop offset="0.14901960784313725" stop-color="#b8e9a7"/>
      <stop offset="0.3176470588235294" stop-color="#97d985"/>
      <stop offset="0.4588235294117647" stop-color="#83d070"/>
      <stop offset="0.5529411764705883" stop-color="#7ccc68"/>
      <stop offset="0.6549019607843137" stop-color="#5fb766"/>
      <stop offset="0.8" stop-color="#3c9d63"/>
      <stop offset="0.9215686274509803" stop-color="#268d62"/>
      <stop offset="1.0" stop-color="#1e8761"/>
    </linearGradient>
    <linearGradient gradientTransform="matrix(0.0, 0.0063, 0.0063, 0.0, -0.65, -7.75)" gradientUnits="userSpaceOnUse" id="gradient5" spreadMethod="pad" x1="-819.2" x2="819.2">
      <stop offset="0.0" stop-color="#dafacb"/>
      <stop offset="0.14901960784313725" stop-color="#b8e9a7"/>
      <stop offset="0.3176470588235294" stop-color="#97d985"/>
      <stop offset="0.4588235294117647" stop-color="#83d070"/>
      <stop offset="0.5529411764705883" stop-color="#7ccc68"/>
      <stop offset="0.6549019607843137" stop-color="#5fb766"/>
      <stop offset="0.8" stop-color="#3c9d63"/>
      <stop offset="0.9215686274509803" stop-color="#268d62"/>
      <stop offset="1.0" stop-color="#1e8761"/>
    </linearGradient>
    <radialGradient cx="0" cy="0" gradientTransform="matrix(0.0111, 0.0, 0.0, -0.0111, -0.55, -7.9)" gradientUnits="userSpaceOnUse" id="gradient6" r="819.2" spreadMethod="pad">
      <stop offset="0.0" stop-color="#2d9262"/>
      <stop offset="0.6431372549019608" stop-color="#7ccc68"/>
      <stop offset="0.7254901960784313" stop-color="#5fb766"/>
      <stop offset="0.8431372549019608" stop-color="#3c9d63"/>
      <stop offset="0.9372549019607843" stop-color="#268d62"/>
      <stop offset="1.0" stop-color="#1e8761"/>
    </radialGradient>
    <linearGradient gradientTransform="matrix(0.0, -0.0054, -0.0054, 0.0, -0.65, -7.65)" gradientUnits="userSpaceOnUse" id="gradient7" spreadMethod="pad" x1="-819.2" x2="819.2">
      <stop offset="0.0" stop-color="#dafacb"/>
      <stop offset="0.14901960784313725" stop-color="#b8e9a7"/>
      <stop offset="0.3176470588235294" stop-color="#97d985"/>
      <stop offset="0.4588235294117647" stop-color="#83d070"/>
      <stop offset="0.5529411764705883" stop-color="#7ccc68"/>
      <stop offset="0.6549019607843137" stop-color="#5fb766"/>
      <stop offset="0.8" stop-color="#3c9d63"/>
      <stop offset="0.9215686274509803" stop-color="#268d62"/>
      <stop offset="1.0" stop-color="#1e8761"/>
    </linearGradient>
  </defs>
</svg>
