<?xml version="1.0" encoding="UTF-8" standalone="no"?>
<svg xmlns:ffdec="https://www.free-decompiler.com/flash" xmlns:xlink="http://www.w3.org/1999/xlink" ffdec:objectType="shape" height="27.9px" width="22.9px" xmlns="http://www.w3.org/2000/svg">
  <g transform="matrix(1.0, 0.0, 0.0, 1.0, 0.0, 0.0)">
    <path d="M22.3 15.55 L17.35 20.3 18.55 27.05 18.25 27.75 17.85 27.9 17.5 27.8 11.45 24.6 5.4 27.8 5.05 27.9 4.65 27.75 Q4.3 27.45 4.35 27.05 L5.55 20.3 0.6 15.55 Q0.3 15.15 0.45 14.8 L1.0 14.35 2.5 14.1 Q1.55 13.8 0.8 12.9 -0.15 11.6 0.05 10.15 0.2 8.6 1.45 7.65 L11.0 0.15 11.45 0.0 11.9 0.15 21.45 7.65 Q22.7 8.6 22.85 10.15 23.05 11.65 22.1 12.9 21.35 13.8 20.4 14.1 L21.9 14.35 Q22.3 14.45 22.45 14.8 L22.3 15.55 M7.8 13.35 L8.7 11.5 6.0 13.6 7.8 13.35 M16.9 13.6 L14.2 11.5 15.1 13.35 16.9 13.6" fill="#000000" fill-rule="evenodd" stroke="none"/>
  </g>
</svg>
