<?xml version="1.0" encoding="UTF-8" standalone="no"?>
<svg xmlns:ffdec="https://www.free-decompiler.com/flash" xmlns:xlink="http://www.w3.org/1999/xlink" ffdec:objectType="shape" height="35.45px" width="22.9px" xmlns="http://www.w3.org/2000/svg">
  <g transform="matrix(1.0, 0.0, 0.0, 1.0, 12.1, 18.25)">
    <path d="M-10.15 -3.3 L-4.0 -4.2 -2.35 -7.6 -6.05 -4.7 Q-7.1 -3.9 -8.35 -3.9 -10.15 -3.9 -11.3 -5.35 -12.25 -6.65 -12.05 -8.1 -11.9 -9.65 -10.65 -10.6 L-1.1 -18.1 -0.65 -18.25 -0.25 -18.1 9.35 -10.6 Q10.55 -9.65 10.75 -8.1 10.95 -6.6 10.0 -5.35 8.8 -3.9 7.05 -3.9 5.8 -3.9 4.7 -4.7 L1.0 -7.6 2.7 -4.2 8.85 -3.3 9.4 -2.8 Q9.55 -2.45 9.2 -2.1 L4.8 2.2 5.15 4.25 8.85 4.8 Q9.25 4.9 9.4 5.25 9.55 5.65 9.2 6.0 L4.8 10.3 5.85 16.4 Q5.95 16.8 5.55 17.1 L5.15 17.2 4.8 17.15 -0.65 14.25 -6.15 17.15 -6.45 17.2 -6.85 17.1 Q-7.25 16.85 -7.15 16.4 L-6.1 10.3 -10.55 6.0 -10.7 5.25 Q-10.65 4.9 -10.15 4.8 L-6.45 4.25 -6.1 2.2 -10.55 -2.1 -10.7 -2.8 -10.15 -3.3" fill="#42210b" fill-rule="evenodd" stroke="none"/>
    <path d="M-10.25 -10.05 L-0.65 -17.55 8.9 -10.05 Q9.9 -9.25 10.05 -8.0 10.2 -6.8 9.45 -5.8 8.55 -4.6 7.05 -4.6 5.95 -4.6 5.15 -5.25 L-0.65 -9.8 -6.45 -5.25 Q-7.45 -4.45 -8.7 -4.6 -9.95 -4.8 -10.75 -5.8 -11.55 -6.75 -11.4 -8.0 -11.25 -9.25 -10.25 -10.05" fill="url(#gradient0)" fill-rule="evenodd" stroke="none"/>
    <path d="M-6.45 -5.25 Q-7.4 -4.5 -8.65 -4.6 -9.85 -4.75 -10.65 -5.65 L-0.65 -13.6 9.3 -5.65 Q8.35 -4.6 7.05 -4.6 5.95 -4.6 5.15 -5.25 L-0.65 -9.8 -6.45 -5.25" fill="#6e6e6e" fill-rule="evenodd" stroke="none"/>
    <path d="M-8.35 -5.75 Q-9.3 -5.75 -9.85 -6.5 -10.3 -7.15 -10.25 -7.9 -10.15 -8.65 -9.5 -9.15 L-0.9 -15.9 -0.65 -16.0 -0.4 -15.9 8.2 -9.15 Q8.8 -8.7 8.9 -7.9 9.05 -7.15 8.55 -6.5 7.95 -5.75 7.05 -5.75 6.35 -5.75 5.85 -6.15 L0.05 -10.7 -0.65 -10.95 -1.35 -10.7 -7.15 -6.15 Q-7.65 -5.75 -8.35 -5.75" fill="#f7f7f7" fill-rule="evenodd" stroke="none"/>
    <path d="M-8.35 -6.15 Q-9.1 -6.15 -9.55 -6.7 -9.95 -7.25 -9.85 -7.85 -9.8 -8.45 -9.3 -8.85 L-0.65 -15.6 7.95 -8.85 Q8.45 -8.5 8.55 -7.85 8.65 -7.25 8.25 -6.7 7.8 -6.15 7.05 -6.15 6.5 -6.15 6.1 -6.45 L0.3 -11.0 -0.65 -11.3 -1.6 -11.0 -7.4 -6.45 Q-7.8 -6.15 -8.35 -6.15" fill="url(#gradient1)" fill-rule="evenodd" stroke="none"/>
    <path d="M-0.65 -9.4 L-0.65 0.25 -3.55 -3.55 -0.65 -9.4" fill="url(#gradient2)" fill-rule="evenodd" stroke="none"/>
    <path d="M-10.05 -2.6 L-3.55 -3.55 -0.65 0.25 -10.05 -2.6" fill="url(#gradient3)" fill-rule="evenodd" stroke="none"/>
    <path d="M-10.05 -2.6 L-0.65 0.25 -5.35 2.0 -10.05 -2.6" fill="url(#gradient4)" fill-rule="evenodd" stroke="none"/>
    <path d="M-0.65 5.4 L-6.45 8.45 -0.65 0.25 -0.65 5.4" fill="url(#gradient5)" fill-rule="evenodd" stroke="none"/>
    <path d="M-5.35 2.0 L-0.65 0.25 -6.45 8.45 -5.35 2.0" fill="url(#gradient6)" fill-rule="evenodd" stroke="none"/>
    <path d="M5.15 8.45 L-0.65 5.4 -0.65 0.25 5.15 8.45" fill="url(#gradient7)" fill-rule="evenodd" stroke="none"/>
    <path d="M4.05 2.0 L5.15 8.45 -0.65 0.25 4.05 2.0" fill="url(#gradient8)" fill-rule="evenodd" stroke="none"/>
    <path d="M8.75 -2.6 L4.05 2.0 -0.65 0.25 8.75 -2.6" fill="url(#gradient9)" fill-rule="evenodd" stroke="none"/>
    <path d="M2.25 -3.55 L8.75 -2.6 -0.65 0.25 2.25 -3.55" fill="url(#gradient10)" fill-rule="evenodd" stroke="none"/>
    <path d="M-0.65 -9.4 L2.25 -3.55 -0.65 0.25 -0.65 -9.4" fill="url(#gradient11)" fill-rule="evenodd" stroke="none"/>
    <path d="M-0.65 -9.4 L-0.3 -0.2 8.75 -2.6 -0.15 0.55 5.15 8.45 -0.65 0.75 -6.45 8.45 -1.15 0.4 -10.05 -2.6 -0.9 -0.1 -0.65 -9.4" fill="url(#gradient12)" fill-rule="evenodd" stroke="none"/>
    <path d="M-5.9 8.15 L-6.35 7.7 -5.6 3.45 -3.55 3.15 -0.65 -2.7 2.25 3.15 4.3 3.45 5.0 7.7 4.6 8.15 -0.65 5.4 -5.9 8.15" fill="#8c1440" fill-rule="evenodd" stroke="none"/>
    <path d="M-0.65 -1.35 L-0.65 8.3 -3.55 4.55 -0.65 -1.35" fill="url(#gradient13)" fill-rule="evenodd" stroke="none"/>
    <path d="M-10.05 5.5 L-3.55 4.55 -0.65 8.3 -10.05 5.5" fill="url(#gradient14)" fill-rule="evenodd" stroke="none"/>
    <path d="M-0.65 8.3 L-5.35 10.05 -10.05 5.5 -0.65 8.3" fill="url(#gradient15)" fill-rule="evenodd" stroke="none"/>
    <path d="M-6.45 16.5 L-0.65 8.3 -0.65 13.45 -6.45 16.5" fill="url(#gradient16)" fill-rule="evenodd" stroke="none"/>
    <path d="M-5.35 10.05 L-0.65 8.3 -6.45 16.5 -5.35 10.05" fill="url(#gradient17)" fill-rule="evenodd" stroke="none"/>
    <path d="M-0.65 13.45 L-0.65 8.3 5.15 16.5 -0.65 13.45" fill="url(#gradient18)" fill-rule="evenodd" stroke="none"/>
    <path d="M5.15 16.5 L-0.65 8.3 4.05 10.05 5.15 16.5" fill="url(#gradient19)" fill-rule="evenodd" stroke="none"/>
    <path d="M8.75 5.5 L4.05 10.05 -0.65 8.3 8.75 5.5" fill="url(#gradient20)" fill-rule="evenodd" stroke="none"/>
    <path d="M2.25 4.55 L8.75 5.5 -0.65 8.3 2.25 4.55" fill="url(#gradient21)" fill-rule="evenodd" stroke="none"/>
    <path d="M-0.65 -1.35 L2.25 4.55 -0.65 8.3 -0.65 -1.35" fill="url(#gradient22)" fill-rule="evenodd" stroke="none"/>
    <path d="M-0.65 -1.35 L-0.3 7.9 8.75 5.5 -0.15 8.6 5.15 16.5 -0.65 8.85 -6.45 16.5 -1.15 8.5 -10.05 5.5 -0.9 7.95 -0.65 -1.35" fill="url(#gradient23)" fill-rule="evenodd" stroke="none"/>
  </g>
  <defs>
    <linearGradient gradientTransform="matrix(0.0, 0.0063, 0.0063, 0.0, -0.65, -10.9)" gradientUnits="userSpaceOnUse" id="gradient0" spreadMethod="pad" x1="-819.2" x2="819.2">
      <stop offset="0.0" stop-color="#e8e8e8"/>
      <stop offset="0.1607843137254902" stop-color="#e3e3e3"/>
      <stop offset="0.34901960784313724" stop-color="#d5d5d5"/>
      <stop offset="0.5490196078431373" stop-color="#bebebe"/>
      <stop offset="0.7568627450980392" stop-color="#9d9d9d"/>
      <stop offset="0.9725490196078431" stop-color="#747474"/>
      <stop offset="1.0" stop-color="#6e6e6e"/>
    </linearGradient>
    <linearGradient gradientTransform="matrix(0.0, -0.0054, -0.0054, 0.0, -0.65, -10.75)" gradientUnits="userSpaceOnUse" id="gradient1" spreadMethod="pad" x1="-819.2" x2="819.2">
      <stop offset="0.0" stop-color="#e8e8e8"/>
      <stop offset="0.24313725490196078" stop-color="#e3e3e3"/>
      <stop offset="0.5254901960784314" stop-color="#d5d5d5"/>
      <stop offset="0.8274509803921568" stop-color="#bebebe"/>
      <stop offset="1.0" stop-color="#adadad"/>
    </linearGradient>
    <linearGradient gradientTransform="matrix(0.0012, -0.002, -0.002, -0.0012, -0.95, -4.1)" gradientUnits="userSpaceOnUse" id="gradient2" spreadMethod="pad" x1="-819.2" x2="819.2">
      <stop offset="0.0" stop-color="#fcff36"/>
      <stop offset="1.0" stop-color="#fffed4"/>
    </linearGradient>
    <linearGradient gradientTransform="matrix(-0.0033, 2.0E-4, 2.0E-4, 0.0033, -6.05, -1.4)" gradientUnits="userSpaceOnUse" id="gradient3" spreadMethod="pad" x1="-819.2" x2="819.2">
      <stop offset="0.0" stop-color="#ffe924"/>
      <stop offset="1.0" stop-color="#fffed4"/>
    </linearGradient>
    <linearGradient gradientTransform="matrix(-5.0E-4, -0.0025, -0.0025, 5.0E-4, -5.05, 0.55)" gradientUnits="userSpaceOnUse" id="gradient4" spreadMethod="pad" x1="-819.2" x2="819.2">
      <stop offset="0.0" stop-color="#bd2b2b"/>
      <stop offset="1.0" stop-color="#faaf19"/>
    </linearGradient>
    <linearGradient gradientTransform="matrix(4.0E-4, 0.0019, 0.0019, -4.0E-4, -3.3, 5.7)" gradientUnits="userSpaceOnUse" id="gradient5" spreadMethod="pad" x1="-819.2" x2="819.2">
      <stop offset="0.0" stop-color="#8c1440"/>
      <stop offset="1.0" stop-color="#faaf19"/>
    </linearGradient>
    <linearGradient gradientTransform="matrix(0.0015, -0.0029, -0.0029, -0.0015, -4.3, 3.65)" gradientUnits="userSpaceOnUse" id="gradient6" spreadMethod="pad" x1="-819.2" x2="819.2">
      <stop offset="0.0" stop-color="#eeff36"/>
      <stop offset="1.0" stop-color="#ffa319"/>
    </linearGradient>
    <linearGradient gradientTransform="matrix(0.0035, 0.0, 0.0, -0.0035, 2.25, 4.35)" gradientUnits="userSpaceOnUse" id="gradient7" spreadMethod="pad" x1="-819.2" x2="819.2">
      <stop offset="0.0" stop-color="#ed9632"/>
      <stop offset="1.0" stop-color="#b03500"/>
    </linearGradient>
    <linearGradient gradientTransform="matrix(9.0E-4, 0.0035, 0.0035, -9.0E-4, 2.9, 5.55)" gradientUnits="userSpaceOnUse" id="gradient8" spreadMethod="pad" x1="-819.2" x2="819.2">
      <stop offset="0.0" stop-color="#8c1440"/>
      <stop offset="1.0" stop-color="#faaf19"/>
    </linearGradient>
    <linearGradient gradientTransform="matrix(0.0, 0.0019, 0.0019, 0.0, 4.05, 0.65)" gradientUnits="userSpaceOnUse" id="gradient9" spreadMethod="pad" x1="-819.2" x2="819.2">
      <stop offset="0.0" stop-color="#8c1440"/>
      <stop offset="1.0" stop-color="#faaf19"/>
    </linearGradient>
    <linearGradient gradientTransform="matrix(0.0035, 0.0, 0.0, -0.0035, 4.7, -1.7)" gradientUnits="userSpaceOnUse" id="gradient10" spreadMethod="pad" x1="-819.2" x2="819.2">
      <stop offset="0.0" stop-color="#fcff36"/>
      <stop offset="1.0" stop-color="#b03500"/>
    </linearGradient>
    <linearGradient gradientTransform="matrix(-0.0018, 4.0E-4, 4.0E-4, 0.0018, 1.35, -5.1)" gradientUnits="userSpaceOnUse" id="gradient11" spreadMethod="pad" x1="-819.2" x2="819.2">
      <stop offset="0.0" stop-color="#bd2b2b"/>
      <stop offset="1.0" stop-color="#faaf19"/>
    </linearGradient>
    <radialGradient cx="0" cy="0" gradientTransform="matrix(0.0112, 0.0, 0.0, -0.0112, -0.7, 0.3)" gradientUnits="userSpaceOnUse" id="gradient12" r="819.2" spreadMethod="pad">
      <stop offset="0.2196078431372549" stop-color="#ebffd6"/>
      <stop offset="0.5882352941176471" stop-color="#eeff36"/>
      <stop offset="1.0" stop-color="#ffa319"/>
    </radialGradient>
    <linearGradient gradientTransform="matrix(0.0012, -0.002, -0.002, -0.0012, -0.95, 4.0)" gradientUnits="userSpaceOnUse" id="gradient13" spreadMethod="pad" x1="-819.2" x2="819.2">
      <stop offset="0.0" stop-color="#fcff36"/>
      <stop offset="1.0" stop-color="#fffed4"/>
    </linearGradient>
    <linearGradient gradientTransform="matrix(-0.0033, 2.0E-4, 2.0E-4, 0.0033, -6.05, 6.7)" gradientUnits="userSpaceOnUse" id="gradient14" spreadMethod="pad" x1="-819.2" x2="819.2">
      <stop offset="0.0" stop-color="#ffe924"/>
      <stop offset="1.0" stop-color="#fffed4"/>
    </linearGradient>
    <linearGradient gradientTransform="matrix(-5.0E-4, -0.0025, -0.0025, 5.0E-4, -5.05, 8.6)" gradientUnits="userSpaceOnUse" id="gradient15" spreadMethod="pad" x1="-819.2" x2="819.2">
      <stop offset="0.0" stop-color="#bd2b2b"/>
      <stop offset="1.0" stop-color="#faaf19"/>
    </linearGradient>
    <linearGradient gradientTransform="matrix(4.0E-4, 0.0019, 0.0019, -4.0E-4, -3.3, 13.8)" gradientUnits="userSpaceOnUse" id="gradient16" spreadMethod="pad" x1="-819.2" x2="819.2">
      <stop offset="0.0" stop-color="#8c1440"/>
      <stop offset="1.0" stop-color="#faaf19"/>
    </linearGradient>
    <linearGradient gradientTransform="matrix(0.0015, -0.0029, -0.0029, -0.0015, -4.3, 11.7)" gradientUnits="userSpaceOnUse" id="gradient17" spreadMethod="pad" x1="-819.2" x2="819.2">
      <stop offset="0.0" stop-color="#eeff36"/>
      <stop offset="1.0" stop-color="#ffa319"/>
    </linearGradient>
    <linearGradient gradientTransform="matrix(0.0035, 0.0, 0.0, -0.0035, 2.25, 12.4)" gradientUnits="userSpaceOnUse" id="gradient18" spreadMethod="pad" x1="-819.2" x2="819.2">
      <stop offset="0.0" stop-color="#ed9632"/>
      <stop offset="1.0" stop-color="#b03500"/>
    </linearGradient>
    <linearGradient gradientTransform="matrix(9.0E-4, 0.0035, 0.0035, -9.0E-4, 2.9, 13.6)" gradientUnits="userSpaceOnUse" id="gradient19" spreadMethod="pad" x1="-819.2" x2="819.2">
      <stop offset="0.0" stop-color="#8c1440"/>
      <stop offset="1.0" stop-color="#faaf19"/>
    </linearGradient>
    <linearGradient gradientTransform="matrix(0.0, 0.0019, 0.0019, 0.0, 4.05, 8.7)" gradientUnits="userSpaceOnUse" id="gradient20" spreadMethod="pad" x1="-819.2" x2="819.2">
      <stop offset="0.0" stop-color="#8c1440"/>
      <stop offset="1.0" stop-color="#faaf19"/>
    </linearGradient>
    <linearGradient gradientTransform="matrix(0.0035, 0.0, 0.0, -0.0035, 4.7, 6.4)" gradientUnits="userSpaceOnUse" id="gradient21" spreadMethod="pad" x1="-819.2" x2="819.2">
      <stop offset="0.0" stop-color="#fcff36"/>
      <stop offset="1.0" stop-color="#b03500"/>
    </linearGradient>
    <linearGradient gradientTransform="matrix(-0.0018, 4.0E-4, 4.0E-4, 0.0018, 1.35, 3.0)" gradientUnits="userSpaceOnUse" id="gradient22" spreadMethod="pad" x1="-819.2" x2="819.2">
      <stop offset="0.0" stop-color="#bd2b2b"/>
      <stop offset="1.0" stop-color="#faaf19"/>
    </linearGradient>
    <radialGradient cx="0" cy="0" gradientTransform="matrix(0.0112, 0.0, 0.0, -0.0112, -0.7, 8.4)" gradientUnits="userSpaceOnUse" id="gradient23" r="819.2" spreadMethod="pad">
      <stop offset="0.2196078431372549" stop-color="#ebffd6"/>
      <stop offset="0.5882352941176471" stop-color="#eeff36"/>
      <stop offset="1.0" stop-color="#ffa319"/>
    </radialGradient>
  </defs>
</svg>
