<?xml version="1.0" encoding="UTF-8" standalone="no"?>
<svg xmlns:ffdec="https://www.free-decompiler.com/flash" xmlns:xlink="http://www.w3.org/1999/xlink" ffdec:objectType="shape" height="34.4px" width="32.75px" xmlns="http://www.w3.org/2000/svg">
  <g transform="matrix(1.0, 0.0, 0.0, 1.0, 0.05, 0.0)">
    <path d="M27.75 10.15 Q27.9 11.7 27.0 12.9 26.3 13.75 25.25 14.15 L25.0 14.6 21.2 18.35 21.85 22.05 23.55 18.55 Q23.8 18.15 24.2 18.15 24.65 18.15 24.8 18.55 L27.05 23.1 32.1 23.85 Q32.55 23.85 32.65 24.3 L32.5 25.0 28.85 28.55 29.7 33.6 Q29.8 34.0 29.4 34.25 L29.0 34.4 28.7 34.3 24.2 31.95 19.7 34.3 19.35 34.4 18.95 34.25 Q18.6 34.0 18.7 33.6 L19.55 28.55 16.35 25.45 13.15 28.55 14.0 33.6 Q14.1 34.0 13.7 34.25 L13.3 34.4 13.0 34.3 8.5 31.95 4.0 34.3 3.65 34.4 3.25 34.25 Q2.9 33.95 2.95 33.6 L3.85 28.55 0.2 25.0 Q-0.1 24.8 0.0 24.3 0.2 23.85 0.6 23.85 L5.6 23.1 7.85 18.55 Q8.0 18.15 8.5 18.15 8.95 18.15 9.1 18.55 L10.85 22.05 11.5 18.35 7.65 14.6 7.45 14.15 Q6.35 13.75 5.7 12.9 4.75 11.65 4.9 10.15 5.15 8.55 6.35 7.65 L15.9 0.15 Q16.15 0.0 16.35 0.0 L16.75 0.15 26.35 7.65 Q27.5 8.6 27.75 10.15 M13.35 12.65 L14.1 11.1 11.85 12.85 13.35 12.65 M13.4 23.4 L16.35 23.8 19.25 23.4 16.35 21.85 13.4 23.4 M19.35 12.65 L20.85 12.85 18.55 11.1 19.35 12.65" fill="#000000" fill-rule="evenodd" stroke="none"/>
  </g>
</svg>
