<?xml version="1.0" encoding="UTF-8" standalone="no"?>
<svg xmlns:ffdec="https://www.free-decompiler.com/flash" xmlns:xlink="http://www.w3.org/1999/xlink" ffdec:objectType="shape" height="34.4px" width="32.75px" xmlns="http://www.w3.org/2000/svg">
  <g transform="matrix(1.0, 0.0, 0.0, 1.0, 17.05, 17.7)">
    <path d="M15.5 7.3 L11.85 10.85 12.7 15.9 Q12.8 16.3 12.4 16.55 L12.0 16.7 11.7 16.6 7.2 14.25 2.7 16.6 2.35 16.7 1.95 16.55 Q1.6 16.3 1.7 15.9 L2.55 10.85 -0.65 7.75 -3.85 10.85 -3.0 15.9 Q-2.9 16.3 -3.3 16.55 L-3.7 16.7 -4.0 16.6 -8.5 14.25 -13.0 16.6 -13.35 16.7 -13.75 16.55 -14.05 15.9 -13.15 10.85 -16.8 7.3 Q-17.1 7.1 -17.0 6.6 -16.8 6.15 -16.4 6.15 L-11.4 5.4 -9.15 0.85 -8.5 0.45 Q-8.05 0.45 -7.9 0.85 L-6.15 4.35 -5.5 0.65 -9.35 -3.1 -9.55 -3.55 Q-10.65 -3.95 -11.3 -4.8 -12.25 -6.05 -12.1 -7.55 -11.85 -9.15 -10.65 -10.05 L-1.1 -17.55 -0.65 -17.7 -0.25 -17.55 9.35 -10.05 Q10.5 -9.1 10.75 -7.55 10.9 -6.0 10.0 -4.8 9.3 -3.95 8.25 -3.55 L8.0 -3.1 4.2 0.65 4.85 4.35 6.55 0.85 Q6.8 0.45 7.2 0.45 7.65 0.45 7.8 0.85 L10.05 5.4 15.1 6.15 Q15.55 6.15 15.65 6.6 L15.5 7.3 M3.85 -4.85 L1.55 -6.6 2.35 -5.05 3.85 -4.85 M-5.15 -4.85 L-3.65 -5.05 -2.9 -6.6 -5.15 -4.85 M-0.65 4.15 L-3.6 5.7 -0.65 6.1 2.25 5.7 -0.65 4.15" fill="#42210b" fill-rule="evenodd" stroke="none"/>
    <path d="M9.45 -5.25 Q8.55 -4.05 7.0 -4.05 6.05 -4.05 5.15 -4.7 L-0.65 -9.25 -6.45 -4.7 Q-7.45 -3.9 -8.7 -4.05 -9.95 -4.25 -10.75 -5.25 -11.55 -6.2 -11.4 -7.5 -11.25 -8.75 -10.25 -9.5 L-0.65 -17.0 8.9 -9.5 Q9.9 -8.75 10.05 -7.5 10.2 -6.25 9.45 -5.25" fill="url(#gradient0)" fill-rule="evenodd" stroke="none"/>
    <path d="M5.15 -4.7 L-0.65 -9.25 -6.45 -4.7 Q-7.4 -3.95 -8.65 -4.05 -9.85 -4.2 -10.65 -5.1 L-0.65 -13.1 9.3 -5.1 Q8.35 -4.05 7.0 -4.05 6.05 -4.05 5.15 -4.7" fill="#6e6e6e" fill-rule="evenodd" stroke="none"/>
    <path d="M8.5 -5.95 Q8.0 -5.2 7.0 -5.2 6.45 -5.2 5.85 -5.6 L0.05 -10.15 -0.65 -10.4 -1.35 -10.15 -7.2 -5.6 Q-7.75 -5.2 -8.35 -5.2 -9.3 -5.2 -9.85 -5.95 -10.3 -6.6 -10.25 -7.35 -10.15 -8.15 -9.55 -8.6 L-0.9 -15.35 -0.65 -15.45 -0.45 -15.35 8.2 -8.6 Q8.8 -8.15 8.9 -7.35 9.05 -6.6 8.5 -5.95" fill="#f7f7f7" fill-rule="evenodd" stroke="none"/>
    <path d="M8.2 -6.2 Q7.85 -5.6 7.0 -5.6 6.5 -5.6 6.1 -5.9 L0.3 -10.45 Q-0.2 -10.8 -0.65 -10.8 L-1.6 -10.45 -7.4 -5.9 Q-7.8 -5.6 -8.35 -5.6 -9.1 -5.6 -9.55 -6.2 -9.95 -6.7 -9.85 -7.3 -9.8 -7.95 -9.3 -8.3 L-0.65 -15.05 7.95 -8.3 Q8.45 -7.95 8.55 -7.3 8.6 -6.7 8.2 -6.2" fill="url(#gradient1)" fill-rule="evenodd" stroke="none"/>
    <path d="M-8.5 9.2 L-10.95 6.05 -8.5 1.15 -8.5 9.2" fill="url(#gradient2)" fill-rule="evenodd" stroke="none"/>
    <path d="M-16.3 6.8 L-10.95 6.05 -8.5 9.2 -16.3 6.8" fill="url(#gradient3)" fill-rule="evenodd" stroke="none"/>
    <path d="M-8.5 9.2 L-12.4 10.65 -16.3 6.8 -8.5 9.2" fill="url(#gradient4)" fill-rule="evenodd" stroke="none"/>
    <path d="M-13.35 16.0 L-8.5 9.2 -8.5 13.45 -13.35 16.0" fill="url(#gradient5)" fill-rule="evenodd" stroke="none"/>
    <path d="M-12.4 10.65 L-8.5 9.2 -13.35 16.0 -12.4 10.65" fill="url(#gradient6)" fill-rule="evenodd" stroke="none"/>
    <path d="M-8.5 13.45 L-8.5 9.2 -3.7 16.0 -8.5 13.45" fill="url(#gradient7)" fill-rule="evenodd" stroke="none"/>
    <path d="M-3.7 16.0 L-8.5 9.2 -4.6 10.65 -3.7 16.0" fill="url(#gradient8)" fill-rule="evenodd" stroke="none"/>
    <path d="M-0.7 6.8 L-4.6 10.65 -8.5 9.2 -0.7 6.8" fill="url(#gradient9)" fill-rule="evenodd" stroke="none"/>
    <path d="M-6.1 6.05 L-0.7 6.8 -8.5 9.2 -6.1 6.05" fill="url(#gradient10)" fill-rule="evenodd" stroke="none"/>
    <path d="M-8.5 1.15 L-6.1 6.05 -8.5 9.2 -8.5 1.15" fill="url(#gradient11)" fill-rule="evenodd" stroke="none"/>
    <path d="M-8.5 1.15 L-8.25 8.8 -0.7 6.8 -8.1 9.45 -3.7 16.0 -8.5 9.6 -13.35 16.0 -8.95 9.35 -16.3 6.8 -8.75 8.9 -8.5 1.15" fill="url(#gradient12)" fill-rule="evenodd" stroke="none"/>
    <path d="M7.2 9.2 L4.8 6.05 7.2 1.15 7.2 9.2" fill="url(#gradient13)" fill-rule="evenodd" stroke="none"/>
    <path d="M-0.6 6.8 L4.8 6.05 7.2 9.2 -0.6 6.8" fill="url(#gradient14)" fill-rule="evenodd" stroke="none"/>
    <path d="M7.2 9.2 L3.3 10.65 -0.6 6.8 7.2 9.2" fill="url(#gradient15)" fill-rule="evenodd" stroke="none"/>
    <path d="M2.35 16.0 L7.2 9.2 7.2 13.45 Q4.8 14.75 2.35 16.0" fill="url(#gradient16)" fill-rule="evenodd" stroke="none"/>
    <path d="M3.3 10.65 L7.2 9.2 2.35 16.0 3.3 10.65" fill="url(#gradient17)" fill-rule="evenodd" stroke="none"/>
    <path d="M12.0 16.0 L7.2 13.45 7.2 9.2 12.0 16.0" fill="url(#gradient18)" fill-rule="evenodd" stroke="none"/>
    <path d="M12.0 16.0 L7.2 9.2 11.1 10.65 12.0 16.0" fill="url(#gradient19)" fill-rule="evenodd" stroke="none"/>
    <path d="M15.0 6.8 L11.1 10.65 7.2 9.2 15.0 6.8" fill="url(#gradient20)" fill-rule="evenodd" stroke="none"/>
    <path d="M15.0 6.8 L7.2 9.2 9.6 6.05 15.0 6.8" fill="url(#gradient21)" fill-rule="evenodd" stroke="none"/>
    <path d="M7.2 1.15 L9.6 6.05 7.2 9.2 7.2 1.15" fill="url(#gradient22)" fill-rule="evenodd" stroke="none"/>
    <path d="M7.2 1.15 L7.45 8.8 15.0 6.8 7.6 9.45 12.0 16.0 7.2 9.6 2.35 16.0 6.8 9.35 -0.6 6.8 6.95 8.9 7.2 1.15" fill="url(#gradient23)" fill-rule="evenodd" stroke="none"/>
    <path d="M-0.65 -1.1 L-3.2 -4.4 -0.65 -9.55 -0.65 -1.1" fill="url(#gradient24)" fill-rule="evenodd" stroke="none"/>
    <path d="M-8.85 -3.6 L-3.2 -4.4 -0.65 -1.1 -8.85 -3.6" fill="url(#gradient25)" fill-rule="evenodd" stroke="none"/>
    <path d="M-0.65 -1.1 L-4.75 0.4 -8.85 -3.6 -0.65 -1.1" fill="url(#gradient26)" fill-rule="evenodd" stroke="none"/>
    <path d="M-0.65 3.4 L-5.75 6.05 -0.65 -1.1 -0.65 3.4" fill="url(#gradient27)" fill-rule="evenodd" stroke="none"/>
    <path d="M-4.75 0.4 L-0.65 -1.1 -5.75 6.05 -4.75 0.4" fill="url(#gradient28)" fill-rule="evenodd" stroke="none"/>
    <path d="M4.4 6.05 L-0.65 3.4 -0.65 -1.1 4.4 6.05" fill="url(#gradient29)" fill-rule="evenodd" stroke="none"/>
    <path d="M3.45 0.4 L4.4 6.05 -0.65 -1.1 3.45 0.4" fill="url(#gradient30)" fill-rule="evenodd" stroke="none"/>
    <path d="M7.55 -3.6 L3.45 0.4 -0.65 -1.1 7.55 -3.6" fill="url(#gradient31)" fill-rule="evenodd" stroke="none"/>
    <path d="M1.85 -4.4 L7.55 -3.6 -0.65 -1.1 1.85 -4.4" fill="url(#gradient32)" fill-rule="evenodd" stroke="none"/>
    <path d="M-0.65 -9.55 L1.85 -4.4 -0.65 -1.1 -0.65 -9.55" fill="url(#gradient33)" fill-rule="evenodd" stroke="none"/>
    <path d="M-0.25 -0.85 L4.4 6.05 -0.65 -0.65 -5.75 6.05 -1.1 -0.95 -8.85 -3.6 -0.9 -1.45 -0.65 -9.55 -0.35 -1.5 7.55 -3.6 -0.25 -0.85" fill="url(#gradient34)" fill-rule="evenodd" stroke="none"/>
  </g>
  <defs>
    <linearGradient gradientTransform="matrix(0.0, 0.0063, 0.0063, 0.0, -0.65, -10.35)" gradientUnits="userSpaceOnUse" id="gradient0" spreadMethod="pad" x1="-819.2" x2="819.2">
      <stop offset="0.0" stop-color="#e8e8e8"/>
      <stop offset="0.1607843137254902" stop-color="#e3e3e3"/>
      <stop offset="0.34901960784313724" stop-color="#d5d5d5"/>
      <stop offset="0.5490196078431373" stop-color="#bebebe"/>
      <stop offset="0.7568627450980392" stop-color="#9d9d9d"/>
      <stop offset="0.9725490196078431" stop-color="#747474"/>
      <stop offset="1.0" stop-color="#6e6e6e"/>
    </linearGradient>
    <linearGradient gradientTransform="matrix(0.0, -0.0054, -0.0054, 0.0, -0.65, -10.2)" gradientUnits="userSpaceOnUse" id="gradient1" spreadMethod="pad" x1="-819.2" x2="819.2">
      <stop offset="0.0" stop-color="#e8e8e8"/>
      <stop offset="0.24313725490196078" stop-color="#e3e3e3"/>
      <stop offset="0.5254901960784314" stop-color="#d5d5d5"/>
      <stop offset="0.8274509803921568" stop-color="#bebebe"/>
      <stop offset="1.0" stop-color="#adadad"/>
    </linearGradient>
    <linearGradient gradientTransform="matrix(0.001, -0.0017, -0.0017, -0.001, -8.75, 5.55)" gradientUnits="userSpaceOnUse" id="gradient2" spreadMethod="pad" x1="-819.2" x2="819.2">
      <stop offset="0.0" stop-color="#fcff36"/>
      <stop offset="1.0" stop-color="#fffed4"/>
    </linearGradient>
    <linearGradient gradientTransform="matrix(-0.0027, 2.0E-4, 2.0E-4, 0.0027, -13.0, 7.85)" gradientUnits="userSpaceOnUse" id="gradient3" spreadMethod="pad" x1="-819.2" x2="819.2">
      <stop offset="0.0" stop-color="#ffe924"/>
      <stop offset="1.0" stop-color="#fffed4"/>
    </linearGradient>
    <linearGradient gradientTransform="matrix(-4.0E-4, -0.0021, -0.0021, 4.0E-4, -12.15, 9.4)" gradientUnits="userSpaceOnUse" id="gradient4" spreadMethod="pad" x1="-819.2" x2="819.2">
      <stop offset="0.0" stop-color="#bd2b2b"/>
      <stop offset="1.0" stop-color="#faaf19"/>
    </linearGradient>
    <linearGradient gradientTransform="matrix(3.0E-4, 0.0016, 0.0016, -3.0E-4, -10.7, 13.75)" gradientUnits="userSpaceOnUse" id="gradient5" spreadMethod="pad" x1="-819.2" x2="819.2">
      <stop offset="0.0" stop-color="#8c1440"/>
      <stop offset="1.0" stop-color="#faaf19"/>
    </linearGradient>
    <linearGradient gradientTransform="matrix(0.0013, -0.0024, -0.0024, -0.0013, -11.55, 12.0)" gradientUnits="userSpaceOnUse" id="gradient6" spreadMethod="pad" x1="-819.2" x2="819.2">
      <stop offset="0.0" stop-color="#eeff36"/>
      <stop offset="1.0" stop-color="#ffa319"/>
    </linearGradient>
    <linearGradient gradientTransform="matrix(0.0029, 0.0, 0.0, -0.0029, -6.1, 12.6)" gradientUnits="userSpaceOnUse" id="gradient7" spreadMethod="pad" x1="-819.2" x2="819.2">
      <stop offset="0.0" stop-color="#ed9632"/>
      <stop offset="1.0" stop-color="#b03500"/>
    </linearGradient>
    <linearGradient gradientTransform="matrix(8.0E-4, 0.0029, 0.0029, -8.0E-4, -5.6, 13.6)" gradientUnits="userSpaceOnUse" id="gradient8" spreadMethod="pad" x1="-819.2" x2="819.2">
      <stop offset="0.0" stop-color="#8c1440"/>
      <stop offset="1.0" stop-color="#faaf19"/>
    </linearGradient>
    <linearGradient gradientTransform="matrix(0.0, 0.0016, 0.0016, 0.0, -4.6, 9.5)" gradientUnits="userSpaceOnUse" id="gradient9" spreadMethod="pad" x1="-819.2" x2="819.2">
      <stop offset="0.0" stop-color="#8c1440"/>
      <stop offset="1.0" stop-color="#faaf19"/>
    </linearGradient>
    <linearGradient gradientTransform="matrix(0.0029, 0.0, 0.0, -0.0029, -4.05, 7.6)" gradientUnits="userSpaceOnUse" id="gradient10" spreadMethod="pad" x1="-819.2" x2="819.2">
      <stop offset="0.0" stop-color="#fcff36"/>
      <stop offset="1.0" stop-color="#b03500"/>
    </linearGradient>
    <linearGradient gradientTransform="matrix(-0.0015, 4.0E-4, 4.0E-4, 0.0015, -6.85, 4.75)" gradientUnits="userSpaceOnUse" id="gradient11" spreadMethod="pad" x1="-819.2" x2="819.2">
      <stop offset="0.0" stop-color="#bd2b2b"/>
      <stop offset="1.0" stop-color="#faaf19"/>
    </linearGradient>
    <radialGradient cx="0" cy="0" gradientTransform="matrix(0.0093, 0.0, 0.0, -0.0093, -8.55, 9.25)" gradientUnits="userSpaceOnUse" id="gradient12" r="819.2" spreadMethod="pad">
      <stop offset="0.2196078431372549" stop-color="#ebffd6"/>
      <stop offset="0.5882352941176471" stop-color="#eeff36"/>
      <stop offset="1.0" stop-color="#ffa319"/>
    </radialGradient>
    <linearGradient gradientTransform="matrix(0.001, -0.0017, -0.0017, -0.001, 6.95, 5.55)" gradientUnits="userSpaceOnUse" id="gradient13" spreadMethod="pad" x1="-819.2" x2="819.2">
      <stop offset="0.0" stop-color="#fcff36"/>
      <stop offset="1.0" stop-color="#fffed4"/>
    </linearGradient>
    <linearGradient gradientTransform="matrix(-0.0027, 2.0E-4, 2.0E-4, 0.0027, 2.7, 7.85)" gradientUnits="userSpaceOnUse" id="gradient14" spreadMethod="pad" x1="-819.2" x2="819.2">
      <stop offset="0.0" stop-color="#ffe924"/>
      <stop offset="1.0" stop-color="#fffed4"/>
    </linearGradient>
    <linearGradient gradientTransform="matrix(-4.0E-4, -0.0021, -0.0021, 4.0E-4, 3.55, 9.4)" gradientUnits="userSpaceOnUse" id="gradient15" spreadMethod="pad" x1="-819.2" x2="819.2">
      <stop offset="0.0" stop-color="#bd2b2b"/>
      <stop offset="1.0" stop-color="#faaf19"/>
    </linearGradient>
    <linearGradient gradientTransform="matrix(3.0E-4, 0.0016, 0.0016, -3.0E-4, 5.0, 13.75)" gradientUnits="userSpaceOnUse" id="gradient16" spreadMethod="pad" x1="-819.2" x2="819.2">
      <stop offset="0.0" stop-color="#8c1440"/>
      <stop offset="1.0" stop-color="#faaf19"/>
    </linearGradient>
    <linearGradient gradientTransform="matrix(0.0013, -0.0024, -0.0024, -0.0013, 4.15, 12.0)" gradientUnits="userSpaceOnUse" id="gradient17" spreadMethod="pad" x1="-819.2" x2="819.2">
      <stop offset="0.0" stop-color="#eeff36"/>
      <stop offset="1.0" stop-color="#ffa319"/>
    </linearGradient>
    <linearGradient gradientTransform="matrix(0.0029, 0.0, 0.0, -0.0029, 9.6, 12.6)" gradientUnits="userSpaceOnUse" id="gradient18" spreadMethod="pad" x1="-819.2" x2="819.2">
      <stop offset="0.0" stop-color="#ed9632"/>
      <stop offset="1.0" stop-color="#b03500"/>
    </linearGradient>
    <linearGradient gradientTransform="matrix(8.0E-4, 0.0029, 0.0029, -8.0E-4, 10.15, 13.6)" gradientUnits="userSpaceOnUse" id="gradient19" spreadMethod="pad" x1="-819.2" x2="819.2">
      <stop offset="0.0" stop-color="#8c1440"/>
      <stop offset="1.0" stop-color="#faaf19"/>
    </linearGradient>
    <linearGradient gradientTransform="matrix(0.0, 0.0016, 0.0016, 0.0, 11.1, 9.5)" gradientUnits="userSpaceOnUse" id="gradient20" spreadMethod="pad" x1="-819.2" x2="819.2">
      <stop offset="0.0" stop-color="#8c1440"/>
      <stop offset="1.0" stop-color="#faaf19"/>
    </linearGradient>
    <linearGradient gradientTransform="matrix(0.0029, 0.0, 0.0, -0.0029, 11.65, 7.6)" gradientUnits="userSpaceOnUse" id="gradient21" spreadMethod="pad" x1="-819.2" x2="819.2">
      <stop offset="0.0" stop-color="#fcff36"/>
      <stop offset="1.0" stop-color="#b03500"/>
    </linearGradient>
    <linearGradient gradientTransform="matrix(-0.0015, 4.0E-4, 4.0E-4, 0.0015, 8.85, 4.75)" gradientUnits="userSpaceOnUse" id="gradient22" spreadMethod="pad" x1="-819.2" x2="819.2">
      <stop offset="0.0" stop-color="#bd2b2b"/>
      <stop offset="1.0" stop-color="#faaf19"/>
    </linearGradient>
    <radialGradient cx="0" cy="0" gradientTransform="matrix(0.0093, 0.0, 0.0, -0.0093, 7.15, 9.25)" gradientUnits="userSpaceOnUse" id="gradient23" r="819.2" spreadMethod="pad">
      <stop offset="0.2196078431372549" stop-color="#ebffd6"/>
      <stop offset="0.5882352941176471" stop-color="#eeff36"/>
      <stop offset="1.0" stop-color="#ffa319"/>
    </radialGradient>
    <linearGradient gradientTransform="matrix(0.001, -0.0018, -0.0018, -0.001, -0.9, -4.9)" gradientUnits="userSpaceOnUse" id="gradient24" spreadMethod="pad" x1="-819.2" x2="819.2">
      <stop offset="0.0" stop-color="#fcff36"/>
      <stop offset="1.0" stop-color="#fffed4"/>
    </linearGradient>
    <linearGradient gradientTransform="matrix(-0.0029, 2.0E-4, 2.0E-4, 0.0029, -5.4, -2.55)" gradientUnits="userSpaceOnUse" id="gradient25" spreadMethod="pad" x1="-819.2" x2="819.2">
      <stop offset="0.0" stop-color="#ffe924"/>
      <stop offset="1.0" stop-color="#fffed4"/>
    </linearGradient>
    <linearGradient gradientTransform="matrix(-4.0E-4, -0.0022, -0.0022, 4.0E-4, -4.5, -0.85)" gradientUnits="userSpaceOnUse" id="gradient26" spreadMethod="pad" x1="-819.2" x2="819.2">
      <stop offset="0.0" stop-color="#bd2b2b"/>
      <stop offset="1.0" stop-color="#faaf19"/>
    </linearGradient>
    <linearGradient gradientTransform="matrix(3.0E-4, 0.0017, 0.0017, -3.0E-4, -2.95, 3.65)" gradientUnits="userSpaceOnUse" id="gradient27" spreadMethod="pad" x1="-819.2" x2="819.2">
      <stop offset="0.0" stop-color="#8c1440"/>
      <stop offset="1.0" stop-color="#faaf19"/>
    </linearGradient>
    <linearGradient gradientTransform="matrix(0.0013, -0.0026, -0.0026, -0.0013, -3.85, 1.85)" gradientUnits="userSpaceOnUse" id="gradient28" spreadMethod="pad" x1="-819.2" x2="819.2">
      <stop offset="0.0" stop-color="#eeff36"/>
      <stop offset="1.0" stop-color="#ffa319"/>
    </linearGradient>
    <linearGradient gradientTransform="matrix(0.0031, 0.0, 0.0, -0.0031, 1.85, 2.45)" gradientUnits="userSpaceOnUse" id="gradient29" spreadMethod="pad" x1="-819.2" x2="819.2">
      <stop offset="0.0" stop-color="#ed9632"/>
      <stop offset="1.0" stop-color="#b03500"/>
    </linearGradient>
    <linearGradient gradientTransform="matrix(8.0E-4, 0.0031, 0.0031, -8.0E-4, 2.45, 3.5)" gradientUnits="userSpaceOnUse" id="gradient30" spreadMethod="pad" x1="-819.2" x2="819.2">
      <stop offset="0.0" stop-color="#8c1440"/>
      <stop offset="1.0" stop-color="#faaf19"/>
    </linearGradient>
    <linearGradient gradientTransform="matrix(0.0, 0.0017, 0.0017, 0.0, 3.45, -0.75)" gradientUnits="userSpaceOnUse" id="gradient31" spreadMethod="pad" x1="-819.2" x2="819.2">
      <stop offset="0.0" stop-color="#8c1440"/>
      <stop offset="1.0" stop-color="#faaf19"/>
    </linearGradient>
    <linearGradient gradientTransform="matrix(0.0031, 0.0, 0.0, -0.0031, 4.0, -2.8)" gradientUnits="userSpaceOnUse" id="gradient32" spreadMethod="pad" x1="-819.2" x2="819.2">
      <stop offset="0.0" stop-color="#fcff36"/>
      <stop offset="1.0" stop-color="#b03500"/>
    </linearGradient>
    <linearGradient gradientTransform="matrix(-0.0016, 4.0E-4, 4.0E-4, 0.0016, 1.1, -5.75)" gradientUnits="userSpaceOnUse" id="gradient33" spreadMethod="pad" x1="-819.2" x2="819.2">
      <stop offset="0.0" stop-color="#bd2b2b"/>
      <stop offset="1.0" stop-color="#faaf19"/>
    </linearGradient>
    <radialGradient cx="0" cy="0" gradientTransform="matrix(0.0098, 0.0, 0.0, -0.0098, -0.7, -1.05)" gradientUnits="userSpaceOnUse" id="gradient34" r="819.2" spreadMethod="pad">
      <stop offset="0.2196078431372549" stop-color="#ebffd6"/>
      <stop offset="0.5882352941176471" stop-color="#eeff36"/>
      <stop offset="1.0" stop-color="#ffa319"/>
    </radialGradient>
  </defs>
</svg>
