<?xml version="1.0" encoding="UTF-8" standalone="no"?>
<svg xmlns:ffdec="https://www.free-decompiler.com/flash" xmlns:xlink="http://www.w3.org/1999/xlink" ffdec:objectType="shape" height="37.75px" width="38.05px" xmlns="http://www.w3.org/2000/svg">
  <g transform="matrix(1.0, 0.0, 0.0, 1.0, 0.0, 0.0)">
    <path d="M31.05 2.35 L30.7 4.3 Q33.65 6.85 35.25 10.4 36.85 13.9 36.85 17.8 36.85 19.85 36.35 21.85 L37.8 23.25 Q38.15 23.6 38.0 23.95 37.85 24.4 37.45 24.45 L35.45 24.75 Q33.55 29.3 29.5 32.2 25.45 35.15 20.55 35.55 L19.65 37.35 19.05 37.75 Q18.55 37.75 18.4 37.35 L17.5 35.55 Q12.6 35.15 8.55 32.2 4.55 29.3 2.6 24.75 L0.6 24.45 Q0.2 24.4 0.05 23.95 -0.05 23.55 0.25 23.25 L1.7 21.85 Q1.2 19.85 1.2 17.8 1.2 13.9 2.8 10.4 4.4 6.85 7.35 4.35 L7.05 2.35 Q6.95 1.9 7.3 1.65 L7.7 1.55 8.05 1.6 9.85 2.55 Q14.0 0.0 19.05 0.0 24.05 0.0 28.25 2.55 L30.0 1.6 30.35 1.55 30.75 1.65 Q31.15 1.95 31.05 2.35" fill="#000000" fill-rule="evenodd" stroke="none"/>
  </g>
</svg>
