<?xml version="1.0" encoding="UTF-8" standalone="no"?>
<svg xmlns:ffdec="https://www.free-decompiler.com/flash" xmlns:xlink="http://www.w3.org/1999/xlink" ffdec:objectType="shape" height="28.3px" width="37.1px" xmlns="http://www.w3.org/2000/svg">
  <g transform="matrix(1.0, 0.0, 0.0, 1.0, 0.0, 0.0)">
    <path d="M26.35 10.8 L26.25 12.2 Q28.3 10.65 31.15 10.85 34.05 11.0 35.8 12.9 37.45 14.65 37.0 16.9 36.5 19.1 34.4 20.3 35.25 22.1 33.8 23.55 32.5 24.85 30.65 24.85 28.75 24.85 27.45 23.55 26.0 22.1 26.85 20.35 L26.85 20.3 Q25.15 19.35 24.45 17.7 L22.1 17.2 19.9 18.0 Q22.35 19.15 22.35 21.6 22.35 24.05 19.95 25.25 17.75 26.4 15.2 25.55 12.45 24.7 12.0 22.25 L10.25 23.75 Q11.1 25.5 9.65 26.95 8.35 28.3 6.5 28.3 4.6 28.3 3.3 27.0 1.85 25.55 2.7 23.8 L2.7 23.75 Q1.45 23.05 0.7 21.9 -0.15 20.55 0.0 19.25 0.15 16.15 3.5 14.85 6.55 13.7 9.35 14.8 7.5 12.3 8.25 9.4 5.7 7.85 5.7 5.15 5.75 2.45 8.3 1.0 10.85 -0.5 14.0 0.2 17.35 1.0 18.35 3.75 21.4 4.1 23.7 5.85 26.2 7.85 26.35 10.8" fill="#000000" fill-rule="evenodd" stroke="none"/>
  </g>
</svg>
