<?xml version="1.0" encoding="UTF-8" standalone="no"?>
<svg xmlns:ffdec="https://www.free-decompiler.com/flash" xmlns:xlink="http://www.w3.org/1999/xlink" ffdec:objectType="shape" height="21.8px" width="28.55px" xmlns="http://www.w3.org/2000/svg">
  <g transform="matrix(1.0, 0.0, 0.0, 1.0, 0.0, 0.0)">
    <path d="M26.45 15.65 Q27.1 17.05 26.0 18.15 25.0 19.15 23.55 19.15 22.1 19.15 21.1 18.15 20.0 17.05 20.65 15.7 L20.65 15.65 Q19.35 14.95 18.8 13.65 L17.0 13.3 15.3 13.9 Q17.2 14.8 17.2 16.65 17.2 18.55 15.35 19.45 L11.7 19.7 Q9.55 19.05 9.25 17.15 L7.9 18.3 Q8.55 19.65 7.4 20.8 6.4 21.8 5.0 21.8 3.55 21.8 2.55 20.8 1.4 19.7 2.05 18.35 L2.05 18.3 Q1.1 17.8 0.55 16.9 -0.1 15.85 0.0 14.85 0.1 12.45 2.7 11.45 5.05 10.6 7.2 11.45 5.75 9.5 6.35 7.3 4.4 6.1 4.4 4.0 4.4 1.95 6.4 0.8 8.35 -0.35 10.75 0.2 13.35 0.8 14.1 2.95 16.45 3.2 18.2 4.55 20.15 6.1 20.25 8.35 L20.2 9.45 Q21.75 8.25 23.95 8.4 26.2 8.5 27.55 9.95 28.8 11.3 28.45 13.05 28.05 14.75 26.45 15.65" fill="#131f30" fill-rule="evenodd" stroke="none"/>
    <path d="M16.7 16.7 Q16.7 17.8 15.7 18.6 14.7 19.45 13.2 19.45 11.8 19.45 10.75 18.6 9.75 17.8 9.75 16.7 9.75 15.6 10.75 14.8 11.8 13.95 13.2 13.95 14.7 13.95 15.7 14.8 16.7 15.6 16.7 16.7" fill="url(#gradient0)" fill-rule="evenodd" stroke="none"/>
    <path d="M14.85 15.1 L14.4 15.7 13.2 15.95 12.05 15.7 Q11.6 15.45 11.6 15.1 11.6 14.7 12.05 14.45 L13.2 14.2 14.4 14.45 14.85 15.1" fill="#0e1f38" fill-rule="evenodd" stroke="none"/>
    <path d="M13.75 4.05 Q13.75 5.5 12.45 6.5 11.15 7.55 9.3 7.55 7.45 7.55 6.15 6.5 4.85 5.5 4.85 4.05 4.85 2.65 6.15 1.6 7.45 0.6 9.3 0.6 11.15 0.6 12.45 1.6 13.75 2.65 13.75 4.05" fill="url(#gradient1)" fill-rule="evenodd" stroke="none"/>
    <path d="M13.75 4.05 L13.6 4.95 Q11.85 6.4 9.3 6.4 6.75 6.4 5.0 4.95 L4.85 4.05 4.9 3.6 Q5.55 4.45 6.75 5.0 7.9 5.55 9.3 5.55 10.7 5.55 11.9 5.0 13.05 4.45 13.7 3.6 L13.75 4.05" fill="#0542a4" fill-rule="evenodd" stroke="none"/>
    <path d="M9.3 5.8 Q6.4 5.8 4.85 3.95 L4.9 3.6 Q5.55 4.45 6.75 5.0 7.9 5.55 9.3 5.55 10.7 5.55 11.9 5.0 13.05 4.45 13.7 3.6 L13.75 3.95 Q12.2 5.8 9.3 5.8" fill="#0e1f38" fill-rule="evenodd" stroke="none"/>
    <path d="M10.7 1.95 Q10.7 2.3 10.3 2.5 L9.3 2.75 8.35 2.5 Q7.9 2.3 7.9 1.95 7.9 1.65 8.35 1.45 L9.3 1.25 10.3 1.45 10.7 1.95" fill="#f0ffff" fill-rule="evenodd" stroke="none"/>
    <path d="M14.45 15.1 Q14.0 15.45 13.25 15.45 L12.35 15.3 11.95 15.1 11.95 10.1 14.45 10.1 14.45 15.1" fill="url(#gradient2)" fill-rule="evenodd" stroke="none"/>
    <path d="M6.05 6.45 Q6.9 4.7 8.8 3.65 10.75 2.55 13.2 2.55 L13.35 2.55 Q13.75 3.3 13.75 4.05 13.75 5.5 12.45 6.5 11.15 7.55 9.3 7.55 7.4 7.55 6.05 6.45" fill="#0542a4" fill-rule="evenodd" stroke="none"/>
    <path d="M19.7 8.5 Q19.7 10.6 17.8 12.1 15.9 13.6 13.2 13.6 10.55 13.6 8.6 12.1 6.7 10.6 6.7 8.5 6.7 6.4 8.6 4.95 10.55 3.45 13.2 3.45 15.9 3.45 17.8 4.95 19.7 6.4 19.7 8.5" fill="url(#gradient3)" fill-rule="evenodd" stroke="none"/>
    <path d="M13.2 10.65 Q15.25 10.65 17.0 9.9 18.7 9.1 19.7 7.8 L19.7 8.5 19.55 9.8 Q16.9 11.95 13.2 11.95 9.55 11.95 6.9 9.8 L6.7 8.5 6.75 7.8 Q7.75 9.1 9.45 9.9 11.2 10.65 13.2 10.65" fill="#0542a4" fill-rule="evenodd" stroke="none"/>
    <path d="M17.0 10.35 Q15.2 11.1 13.2 11.1 11.25 11.1 9.45 10.35 7.75 9.6 6.75 8.35 L6.75 7.8 Q7.75 9.1 9.45 9.9 11.2 10.65 13.2 10.65 15.25 10.65 17.0 9.9 18.7 9.1 19.7 7.8 L19.7 8.35 Q18.7 9.6 17.0 10.35" fill="#0e1f38" fill-rule="evenodd" stroke="none"/>
    <path d="M15.2 5.45 Q15.2 5.95 14.65 6.25 L13.2 6.55 11.8 6.25 Q11.2 5.95 11.2 5.45 11.2 5.0 11.8 4.7 12.4 4.35 13.2 4.35 14.05 4.35 14.65 4.7 15.2 5.0 15.2 5.45" fill="#f0ffff" fill-rule="evenodd" stroke="none"/>
    <path d="M5.55 14.3 L9.05 12.3 9.65 12.3 Q10.3 12.35 10.75 12.7 11.4 13.3 10.95 13.3 L7.4 15.95 5.55 14.3" fill="url(#gradient4)" fill-rule="evenodd" stroke="none"/>
    <path d="M16.55 12.6 Q17.45 11.7 18.2 11.3 L18.85 11.05 21.7 11.6 21.7 13.65 16.55 12.6" fill="url(#gradient5)" fill-rule="evenodd" stroke="none"/>
    <path d="M7.55 19.25 Q7.55 20.1 6.8 20.65 6.05 21.3 5.0 21.3 3.9 21.3 3.15 20.65 2.4 20.1 2.4 19.25 2.4 18.4 3.15 17.8 3.9 17.25 5.0 17.25 6.05 17.25 6.8 17.8 7.55 18.4 7.55 19.25" fill="url(#gradient6)" fill-rule="evenodd" stroke="none"/>
    <path d="M5.0 19.1 Q3.75 19.1 2.55 18.5 3.25 17.25 5.0 17.25 5.8 17.25 6.45 17.6 L7.4 18.5 Q6.25 19.1 5.0 19.1" fill="#0542a4" fill-rule="evenodd" stroke="none"/>
    <path d="M9.45 15.05 Q9.45 16.45 8.15 17.5 6.85 18.5 5.0 18.5 3.15 18.5 1.85 17.5 0.55 16.45 0.55 15.05 0.55 13.6 1.85 12.6 3.15 11.55 5.0 11.55 6.85 11.55 8.15 12.6 9.45 13.6 9.45 15.05" fill="url(#gradient7)" fill-rule="evenodd" stroke="none"/>
    <path d="M5.0 16.5 L7.55 15.95 9.4 14.6 9.45 15.05 9.3 15.9 Q7.55 17.4 5.0 17.4 2.45 17.4 0.65 15.9 L0.55 15.05 0.55 14.6 Q1.25 15.45 2.4 15.95 L5.0 16.5" fill="#0542a4" fill-rule="evenodd" stroke="none"/>
    <path d="M5.0 16.5 L7.55 15.95 9.4 14.6 9.4 14.95 Q8.75 15.8 7.55 16.3 L5.0 16.8 2.4 16.3 Q1.25 15.8 0.55 14.95 L0.55 14.6 Q1.25 15.45 2.4 15.95 L5.0 16.5" fill="#0e1f38" fill-rule="evenodd" stroke="none"/>
    <path d="M6.4 12.95 Q6.4 13.3 5.95 13.45 L5.0 13.7 4.05 13.45 Q3.6 13.3 3.6 12.95 3.6 12.65 4.05 12.45 L5.0 12.2 5.95 12.45 Q6.4 12.65 6.4 12.95" fill="#f0ffff" fill-rule="evenodd" stroke="none"/>
    <path d="M26.15 16.6 Q26.15 17.45 25.4 18.05 24.65 18.6 23.55 18.6 22.5 18.6 21.7 18.05 20.95 17.45 20.95 16.6 20.95 15.8 21.7 15.2 22.5 14.6 23.55 14.6 24.65 14.6 25.4 15.2 26.15 15.8 26.15 16.6" fill="url(#gradient8)" fill-rule="evenodd" stroke="none"/>
    <path d="M23.55 16.45 Q22.2 16.45 21.15 15.9 21.45 15.3 22.05 14.95 22.75 14.6 23.55 14.6 25.3 14.6 25.95 15.9 24.9 16.45 23.55 16.45" fill="#0542a4" fill-rule="evenodd" stroke="none"/>
    <path d="M28.0 12.4 Q28.0 13.85 26.7 14.85 25.4 15.9 23.55 15.9 21.7 15.9 20.4 14.85 19.1 13.85 19.1 12.4 19.1 10.95 20.4 9.95 21.7 8.95 23.55 8.95 25.4 8.95 26.7 9.95 28.0 10.95 28.0 12.4" fill="url(#gradient9)" fill-rule="evenodd" stroke="none"/>
    <path d="M27.95 11.95 L28.0 12.4 27.85 13.3 Q26.1 14.75 23.55 14.75 21.05 14.75 19.2 13.3 L19.1 12.4 19.15 11.95 Q19.85 12.8 21.0 13.35 22.2 13.9 23.55 13.9 24.95 13.9 26.15 13.35 L27.95 11.95" fill="#0542a4" fill-rule="evenodd" stroke="none"/>
    <path d="M27.95 11.95 L28.0 12.3 Q26.45 14.15 23.55 14.15 20.65 14.15 19.1 12.3 L19.15 11.95 Q19.85 12.8 21.0 13.35 22.2 13.9 23.55 13.9 24.95 13.9 26.15 13.35 L27.95 11.95" fill="#0e1f38" fill-rule="evenodd" stroke="none"/>
    <path d="M24.9 10.3 L24.55 10.85 23.55 11.1 22.6 10.85 22.2 10.3 Q22.2 10.0 22.6 9.8 L23.55 9.6 24.55 9.8 Q24.9 10.0 24.9 10.3" fill="#f0ffff" fill-rule="evenodd" stroke="none"/>
  </g>
  <defs>
    <radialGradient cx="0" cy="0" gradientTransform="matrix(0.0045, 0.0, 0.0, -0.0045, 13.2, 15.45)" gradientUnits="userSpaceOnUse" id="gradient0" r="819.2" spreadMethod="pad">
      <stop offset="0.0" stop-color="#cbe3fa"/>
      <stop offset="0.4745098039215686" stop-color="#8cb9fa"/>
      <stop offset="0.8588235294117647" stop-color="#3277db"/>
      <stop offset="1.0" stop-color="#758ee6"/>
    </radialGradient>
    <radialGradient cx="0" cy="0" gradientTransform="matrix(0.0058, 0.0, 0.0, -0.0058, 9.25, 2.45)" gradientUnits="userSpaceOnUse" id="gradient1" r="819.2" spreadMethod="pad">
      <stop offset="0.0" stop-color="#cbe3fa"/>
      <stop offset="0.4745098039215686" stop-color="#8cb9fa"/>
      <stop offset="0.8588235294117647" stop-color="#3277db"/>
      <stop offset="1.0" stop-color="#758ee6"/>
    </radialGradient>
    <linearGradient gradientTransform="matrix(0.0015, 0.0, 0.0, -0.0015, 13.2, 12.8)" gradientUnits="userSpaceOnUse" id="gradient2" spreadMethod="pad" x1="-819.2" x2="819.2">
      <stop offset="0.0" stop-color="#4884db"/>
      <stop offset="1.0" stop-color="#324485"/>
    </linearGradient>
    <radialGradient cx="0" cy="0" gradientTransform="matrix(0.0084, 0.0, 0.0, -0.0084, 13.2, 6.15)" gradientUnits="userSpaceOnUse" id="gradient3" r="819.2" spreadMethod="pad">
      <stop offset="0.0" stop-color="#cbe3fa"/>
      <stop offset="0.4745098039215686" stop-color="#8cb9fa"/>
      <stop offset="0.8588235294117647" stop-color="#3277db"/>
      <stop offset="1.0" stop-color="#758ee6"/>
    </radialGradient>
    <linearGradient gradientTransform="matrix(7.0E-4, 8.0E-4, 8.0E-4, -7.0E-4, 8.45, 13.85)" gradientUnits="userSpaceOnUse" id="gradient4" spreadMethod="pad" x1="-819.2" x2="819.2">
      <stop offset="0.0" stop-color="#4884db"/>
      <stop offset="1.0" stop-color="#324485"/>
    </linearGradient>
    <linearGradient gradientTransform="matrix(4.0E-4, -0.001, -0.001, -4.0E-4, 19.4, 12.25)" gradientUnits="userSpaceOnUse" id="gradient5" spreadMethod="pad" x1="-819.2" x2="819.2">
      <stop offset="0.0" stop-color="#4884db"/>
      <stop offset="1.0" stop-color="#324485"/>
    </linearGradient>
    <radialGradient cx="0" cy="0" gradientTransform="matrix(0.0033, 0.0, 0.0, -0.0033, 4.95, 18.3)" gradientUnits="userSpaceOnUse" id="gradient6" r="819.2" spreadMethod="pad">
      <stop offset="0.0" stop-color="#cbe3fa"/>
      <stop offset="0.4745098039215686" stop-color="#8cb9fa"/>
      <stop offset="0.8588235294117647" stop-color="#3277db"/>
      <stop offset="1.0" stop-color="#758ee6"/>
    </radialGradient>
    <radialGradient cx="0" cy="0" gradientTransform="matrix(0.0058, 0.0, 0.0, -0.0058, 4.95, 13.45)" gradientUnits="userSpaceOnUse" id="gradient7" r="819.2" spreadMethod="pad">
      <stop offset="0.0" stop-color="#cbe3fa"/>
      <stop offset="0.4745098039215686" stop-color="#8cb9fa"/>
      <stop offset="0.8588235294117647" stop-color="#3277db"/>
      <stop offset="1.0" stop-color="#758ee6"/>
    </radialGradient>
    <radialGradient cx="0" cy="0" gradientTransform="matrix(0.0033, 0.0, 0.0, -0.0033, 23.55, 15.65)" gradientUnits="userSpaceOnUse" id="gradient8" r="819.2" spreadMethod="pad">
      <stop offset="0.0" stop-color="#cbe3fa"/>
      <stop offset="0.4745098039215686" stop-color="#8cb9fa"/>
      <stop offset="0.8588235294117647" stop-color="#3277db"/>
      <stop offset="1.0" stop-color="#758ee6"/>
    </radialGradient>
    <radialGradient cx="0" cy="0" gradientTransform="matrix(0.0058, 0.0, 0.0, -0.0058, 23.55, 10.8)" gradientUnits="userSpaceOnUse" id="gradient9" r="819.2" spreadMethod="pad">
      <stop offset="0.0" stop-color="#cbe3fa"/>
      <stop offset="0.4745098039215686" stop-color="#8cb9fa"/>
      <stop offset="0.8588235294117647" stop-color="#3277db"/>
      <stop offset="1.0" stop-color="#758ee6"/>
    </radialGradient>
  </defs>
</svg>
