<?xml version="1.0" encoding="UTF-8" standalone="no"?>
<svg xmlns:ffdec="https://www.free-decompiler.com/flash" xmlns:xlink="http://www.w3.org/1999/xlink" ffdec:objectType="shape" height="50.7px" width="51.05px" xmlns="http://www.w3.org/2000/svg">
  <g transform="matrix(1.0, 0.0, 0.0, 1.0, 206.0, 82.2)">
    <path d="M-158.0 -33.5 L-154.95 -36.5 -154.95 -33.85 -157.35 -31.5 -171.3 -31.5 -172.35 -32.8 -188.65 -32.8 -189.7 -31.5 -203.65 -31.5 -206.0 -33.85 -206.0 -36.5 -203.0 -33.5 -158.0 -33.5" fill="#06bdef" fill-rule="evenodd" stroke="none"/>
    <path d="M-158.0 -80.2 L-203.0 -80.2 -206.0 -77.15 -206.0 -79.85 -203.65 -82.2 -189.7 -82.2 -188.65 -80.85 -172.35 -80.85 -171.3 -82.2 -157.35 -82.2 -154.95 -79.85 -154.95 -77.15 -158.0 -80.2" fill="#06bdef" fill-rule="evenodd" stroke="none"/>
  </g>
</svg>
