<?xml version="1.0" encoding="UTF-8" standalone="no"?>
<svg xmlns:ffdec="https://www.free-decompiler.com/flash" xmlns:xlink="http://www.w3.org/1999/xlink" ffdec:objectType="shape" height="328.65px" width="514.35px" xmlns="http://www.w3.org/2000/svg">
  <g transform="matrix(1.0, 0.0, 0.0, 1.0, 257.2, 152.85)">
    <path d="M235.6 -150.1 L238.05 -145.35 -133.6 -145.35 -140.4 -150.1 235.6 -150.1" fill="url(#gradient0)" fill-rule="evenodd" stroke="none"/>
    <path d="M235.6 -150.1 L-140.4 -150.1 -133.6 -145.35 238.05 -145.35 235.6 -150.1 Z" fill="none" stroke="#0842b7" stroke-linecap="butt" stroke-linejoin="miter-clip" stroke-miterlimit="4.0" stroke-width="1.0"/>
    <path d="M255.25 -140.5 Q256.15 -139.65 256.15 -138.35 L256.15 171.65 Q256.15 172.95 255.25 173.85 254.4 174.8 253.15 174.8 L-253.2 174.8 Q-254.45 174.8 -255.3 173.85 -256.2 172.95 -256.2 171.65 L-256.2 -148.75 Q-256.2 -150.05 -255.3 -150.95 -254.45 -151.85 -253.2 -151.85 L-153.45 -151.85 -150.6 -151.35 Q-149.0 -150.85 -148.0 -150.1 L-138.3 -143.25 Q-137.25 -142.5 -135.65 -142.0 L-132.8 -141.45 253.15 -141.45 Q254.4 -141.45 255.25 -140.5" fill="#042d7f" fill-rule="evenodd" stroke="none"/>
    <path d="M255.25 -140.5 Q256.15 -139.65 256.15 -138.35 L256.15 171.65 Q256.15 172.95 255.25 173.85 254.4 174.8 253.15 174.8 L-253.2 174.8 Q-254.45 174.8 -255.3 173.85 -256.2 172.95 -256.2 171.65 L-256.2 -148.75 Q-256.2 -150.05 -255.3 -150.95 -254.45 -151.85 -253.2 -151.85 L-153.45 -151.85 -150.6 -151.35 Q-149.0 -150.85 -148.0 -150.1 L-138.3 -143.25 Q-137.25 -142.5 -135.65 -142.0 L-132.8 -141.45 253.15 -141.45 Q254.4 -141.45 255.25 -140.5 Z" fill="none" stroke="#0376ff" stroke-linecap="butt" stroke-linejoin="miter-clip" stroke-miterlimit="4.0" stroke-width="2.0"/>
    <path d="M244.6 -121.45 Q245.85 -121.45 246.7 -120.7 247.6 -120.05 247.6 -119.05 L247.6 162.25 Q247.6 163.25 246.7 163.9 245.85 164.6 244.6 164.6 L-245.1 164.6 Q-246.35 164.6 -247.2 163.9 -248.1 163.25 -248.1 162.25 L-248.1 -119.05 Q-248.1 -120.05 -247.2 -120.7 -246.35 -121.45 -245.1 -121.45 L244.6 -121.45" fill="url(#gradient1)" fill-rule="evenodd" stroke="none"/>
    <path d="M246.7 -120.7 Q245.85 -121.45 244.6 -121.45 L-245.1 -121.45 Q-246.35 -121.45 -247.2 -120.7 -248.1 -120.05 -248.1 -119.05 L-248.1 160.25 Q-248.1 161.25 -247.2 161.9 -246.35 162.6 -245.1 162.6 L244.6 162.6 Q245.85 162.6 246.7 161.9 247.6 161.25 247.6 160.25 L247.6 -119.05 Q247.6 -120.05 246.7 -120.7 Z" fill="none" stroke="#0068ff" stroke-linecap="butt" stroke-linejoin="miter-clip" stroke-miterlimit="4.0" stroke-width="1.0"/>
  </g>
  <defs>
    <linearGradient gradientTransform="matrix(0.231, 0.0, 0.0, -0.231, 48.8, -147.7)" gradientUnits="userSpaceOnUse" id="gradient0" spreadMethod="pad" x1="-819.2" x2="819.2">
      <stop offset="0.0" stop-color="#1cadff"/>
      <stop offset="1.0" stop-color="#0233b5"/>
    </linearGradient>
    <linearGradient gradientTransform="matrix(0.0, -0.1746, 0.2209, 0.0, -0.25, 21.6)" gradientUnits="userSpaceOnUse" id="gradient1" spreadMethod="pad" x1="-819.2" x2="819.2">
      <stop offset="0.0" stop-color="#000d36"/>
      <stop offset="0.3607843137254902" stop-color="#000e38"/>
      <stop offset="0.5647058823529412" stop-color="#011241"/>
      <stop offset="0.7333333333333333" stop-color="#021a4e"/>
      <stop offset="0.8745098039215686" stop-color="#032462"/>
      <stop offset="1.0" stop-color="#05307a"/>
    </linearGradient>
  </defs>
</svg>
