<?xml version="1.0" encoding="UTF-8" standalone="no"?>
<svg xmlns:ffdec="https://www.free-decompiler.com/flash" xmlns:xlink="http://www.w3.org/1999/xlink" ffdec:objectType="shape" height="370.8px" width="440.85px" xmlns="http://www.w3.org/2000/svg">
  <g transform="matrix(1.0, 0.0, 0.0, 1.0, 0.0, 0.0)">
    <path d="M439.85 15.0 L439.85 365.8 Q439.85 367.45 438.7 368.65 437.5 369.8 435.85 369.8 L5.0 369.8 Q3.35 369.8 2.2 368.65 1.0 367.45 1.0 365.8 L1.0 5.0 Q1.0 3.3 2.2 2.15 3.35 1.0 5.0 1.0 L74.0 1.0 Q75.4 1.0 77.15 1.55 78.85 2.1 80.0 2.9 L89.15 9.4 Q90.0 10.05 91.45 10.5 L94.0 11.0 435.85 11.0 Q437.5 11.0 438.7 12.15 439.85 13.3 439.85 15.0" fill="url(#gradient0)" fill-rule="evenodd" stroke="none"/>
    <path d="M438.85 15.0 Q438.85 13.75 437.95 12.9 437.1 12.0 435.85 12.0 L94.0 12.0 91.15 11.5 Q89.55 10.95 88.55 10.25 L79.45 3.7 Q78.45 3.0 76.85 2.5 L74.0 2.0 5.0 2.0 Q3.75 2.0 2.9 2.9 2.0 3.75 2.0 5.0 L2.0 365.8 Q2.0 367.05 2.9 367.9 3.75 368.8 5.0 368.8 L435.85 368.8 Q437.1 368.8 437.95 367.9 438.85 367.05 438.85 365.8 L438.85 15.0 M435.85 10.0 Q437.9 10.0 439.4 11.45 440.85 12.9 440.85 15.0 L440.85 365.8 Q440.85 367.85 439.4 369.35 437.9 370.8 435.85 370.8 L5.0 370.8 Q2.95 370.8 1.45 369.35 0.0 367.85 0.0 365.8 L0.0 5.0 Q0.0 2.9 1.45 1.45 2.95 0.0 5.0 0.0 L74.0 0.0 Q75.55 0.0 77.45 0.6 79.35 1.2 80.6 2.1 L89.7 8.6 Q90.45 9.15 91.75 9.6 L94.0 10.0 435.85 10.0" fill="#0082d6" fill-rule="evenodd" stroke="none"/>
  </g>
  <defs>
    <linearGradient gradientTransform="matrix(0.0, -0.2251, -0.2251, 0.0, 220.45, 185.4)" gradientUnits="userSpaceOnUse" id="gradient0" spreadMethod="pad" x1="-819.2" x2="819.2">
      <stop offset="0.0" stop-color="#00123b"/>
      <stop offset="0.4" stop-color="#001f51"/>
      <stop offset="1.0" stop-color="#013878"/>
    </linearGradient>
  </defs>
</svg>
