<?xml version="1.0" encoding="UTF-8" standalone="no"?>
<svg xmlns:ffdec="https://www.free-decompiler.com/flash" xmlns:xlink="http://www.w3.org/1999/xlink" ffdec:objectType="shape" height="20.1px" width="108.65px" xmlns="http://www.w3.org/2000/svg">
  <g transform="matrix(1.0, 0.0, 0.0, 1.0, 75.15, 128.75)">
    <path d="M29.5 -109.15 L-71.15 -109.15 Q-72.6 -109.15 -73.65 -110.2 -74.65 -111.2 -74.65 -112.65 L-74.65 -124.75 Q-74.65 -126.2 -73.65 -127.25 -72.6 -128.25 -71.15 -128.25 L29.5 -128.25 Q30.95 -128.25 32.0 -127.25 33.0 -126.2 33.0 -124.75 L33.0 -112.65 Q33.0 -111.2 32.0 -110.2 30.95 -109.15 29.5 -109.15" fill="url(#gradient0)" fill-rule="evenodd" stroke="none"/>
    <path d="M29.5 -109.65 Q30.75 -109.65 31.6 -110.55 32.5 -111.4 32.5 -112.65 L32.5 -124.75 Q32.5 -126.0 31.6 -126.85 30.75 -127.75 29.5 -127.75 L-71.15 -127.75 Q-72.4 -127.75 -73.25 -126.85 -74.15 -126.0 -74.15 -124.75 L-74.15 -112.65 Q-74.15 -111.4 -73.25 -110.55 -72.4 -109.65 -71.15 -109.65 L29.5 -109.65 M33.5 -124.75 L33.5 -112.65 Q33.5 -111.0 32.35 -109.8 31.15 -108.65 29.5 -108.65 L-71.15 -108.65 Q-72.8 -108.65 -73.95 -109.8 -75.15 -111.0 -75.15 -112.65 L-75.15 -124.75 Q-75.15 -126.4 -73.95 -127.55 -72.8 -128.75 -71.15 -128.75 L29.5 -128.75 Q31.15 -128.75 32.35 -127.55 33.5 -126.4 33.5 -124.75" fill="#064b84" fill-rule="evenodd" stroke="none"/>
  </g>
  <defs>
    <linearGradient gradientTransform="matrix(0.0, -0.0117, -0.0117, 0.0, -20.85, -118.7)" gradientUnits="userSpaceOnUse" id="gradient0" spreadMethod="pad" x1="-819.2" x2="819.2">
      <stop offset="0.0" stop-color="#001f4a"/>
      <stop offset="0.592156862745098" stop-color="#001e48"/>
      <stop offset="0.8274509803921568" stop-color="#001941"/>
      <stop offset="1.0" stop-color="#001035"/>
    </linearGradient>
  </defs>
</svg>
