<?xml version="1.0" encoding="UTF-8" standalone="no"?>
<svg xmlns:ffdec="https://www.free-decompiler.com/flash" xmlns:xlink="http://www.w3.org/1999/xlink" ffdec:objectType="shape" height="20.1px" width="107.8px" xmlns="http://www.w3.org/2000/svg">
  <g transform="matrix(1.0, 0.0, 0.0, 1.0, -101.9, 155.25)">
    <path d="M205.7 -135.65 L105.9 -135.65 Q104.5 -135.65 103.45 -136.7 102.4 -137.7 102.4 -139.15 L102.4 -151.25 Q102.4 -152.7 103.45 -153.75 104.45 -154.75 105.9 -154.75 L205.7 -154.75 Q207.15 -154.75 208.2 -153.75 209.2 -152.7 209.2 -151.25 L209.2 -139.15 Q209.2 -137.7 208.2 -136.7 207.15 -135.65 205.7 -135.65" fill="url(#gradient0)" fill-rule="evenodd" stroke="none"/>
    <path d="M208.7 -151.25 Q208.7 -152.5 207.8 -153.35 206.95 -154.25 205.7 -154.25 L105.9 -154.25 Q104.65 -154.25 103.8 -153.35 102.9 -152.5 102.9 -151.25 L102.9 -139.15 Q102.9 -137.9 103.8 -137.05 104.65 -136.15 105.9 -136.15 L205.7 -136.15 Q206.95 -136.15 207.8 -137.05 208.7 -137.9 208.7 -139.15 L208.7 -151.25 M205.7 -155.25 Q207.35 -155.25 208.55 -154.1 209.7 -152.95 209.7 -151.25 L209.7 -139.15 Q209.7 -137.5 208.55 -136.3 207.35 -135.15 205.7 -135.15 L105.9 -135.15 Q104.25 -135.15 103.1 -136.3 101.9 -137.5 101.9 -139.15 L101.9 -151.25 Q101.9 -152.95 103.1 -154.1 104.25 -155.25 105.9 -155.25 L205.7 -155.25" fill="#064b84" fill-rule="evenodd" stroke="none"/>
  </g>
  <defs>
    <linearGradient gradientTransform="matrix(0.0, -0.0117, -0.0117, 0.0, 155.8, -145.2)" gradientUnits="userSpaceOnUse" id="gradient0" spreadMethod="pad" x1="-819.2" x2="819.2">
      <stop offset="0.0" stop-color="#001f4a"/>
      <stop offset="0.592156862745098" stop-color="#001e48"/>
      <stop offset="0.8274509803921568" stop-color="#001941"/>
      <stop offset="1.0" stop-color="#001035"/>
    </linearGradient>
  </defs>
</svg>
