<?xml version="1.0" encoding="UTF-8" standalone="no"?>
<svg xmlns:ffdec="https://www.free-decompiler.com/flash" xmlns:xlink="http://www.w3.org/1999/xlink" ffdec:objectType="shape" height="17.2px" width="419.9px" xmlns="http://www.w3.org/2000/svg">
  <g transform="matrix(1.0, 0.0, 0.0, 1.0, 210.0, 95.85)">
    <path d="M209.4 -92.35 L209.4 -82.15 Q209.4 -80.9 208.5 -80.05 207.65 -79.15 206.4 -79.15 L-206.5 -79.15 Q-207.75 -79.15 -208.6 -80.05 -209.5 -80.9 -209.5 -82.15 L-209.5 -92.35 Q-209.5 -93.6 -208.6 -94.45 -207.75 -95.35 -206.5 -95.35 L206.4 -95.35 Q207.65 -95.35 208.5 -94.45 209.4 -93.6 209.4 -92.35" fill="url(#gradient0)" fill-rule="evenodd" stroke="none"/>
    <path d="M209.4 -92.35 L209.4 -82.15 Q209.4 -80.9 208.5 -80.05 207.65 -79.15 206.4 -79.15 L-206.5 -79.15 Q-207.75 -79.15 -208.6 -80.05 -209.5 -80.9 -209.5 -82.15 L-209.5 -92.35 Q-209.5 -93.6 -208.6 -94.45 -207.75 -95.35 -206.5 -95.35 L206.4 -95.35 Q207.65 -95.35 208.5 -94.45 209.4 -93.6 209.4 -92.35 Z" fill="none" stroke="#0c81bc" stroke-linecap="butt" stroke-linejoin="miter-clip" stroke-miterlimit="4.0" stroke-width="1.0"/>
  </g>
  <defs>
    <linearGradient gradientTransform="matrix(0.0, -0.0099, -0.0099, 0.0, -0.05, -87.25)" gradientUnits="userSpaceOnUse" id="gradient0" spreadMethod="pad" x1="-819.2" x2="819.2">
      <stop offset="0.0" stop-color="#00316e"/>
      <stop offset="0.22745098039215686" stop-color="#003e78"/>
      <stop offset="1.0" stop-color="#006699"/>
    </linearGradient>
  </defs>
</svg>
