<?xml version="1.0" encoding="UTF-8" standalone="no"?>
<svg xmlns:ffdec="https://www.free-decompiler.com/flash" xmlns:xlink="http://www.w3.org/1999/xlink" ffdec:objectType="shape" height="64.45px" width="59.3px" xmlns="http://www.w3.org/2000/svg">
  <g transform="matrix(1.0, 0.0, 0.0, 1.0, 0.0, 0.0)">
    <path d="M58.8 3.5 L58.8 18.25 Q58.8 19.5 58.05 20.85 57.3 22.15 56.25 22.8 L54.9 23.6 53.1 23.75 Q52.35 23.35 52.35 22.1 L52.35 12.6 Q52.35 11.35 51.45 10.5 50.6 9.6 49.35 9.6 L11.7 9.6 Q10.45 9.6 9.6 10.5 8.7 11.35 8.7 12.6 L8.7 51.85 Q8.7 53.1 9.6 53.95 10.45 54.85 11.7 54.85 L49.35 54.85 Q50.6 54.85 51.45 53.95 52.35 53.1 52.35 51.85 L52.35 43.1 Q52.35 41.85 53.15 41.35 L55.05 41.4 56.1 41.9 Q57.2 42.4 58.0 43.7 58.8 44.95 58.8 46.2 L58.8 60.95 Q58.8 62.2 57.9 63.05 57.05 63.95 55.8 63.95 L3.5 63.95 Q2.25 63.95 1.4 63.05 0.5 62.2 0.5 60.95 L0.5 46.45 Q0.5 45.2 1.15 43.75 1.8 42.25 2.75 41.45 L2.85 41.4 Q3.8 40.6 4.45 39.1 5.1 37.65 5.1 36.4 L5.1 27.85 Q5.1 26.6 4.4 25.15 3.75 23.7 2.8 22.9 1.85 22.1 1.2 20.7 0.5 19.25 0.5 18.0 L0.5 3.5 Q0.5 2.25 1.4 1.4 2.25 0.5 3.5 0.5 L55.8 0.5 Q57.05 0.5 57.9 1.4 58.8 2.25 58.8 3.5" fill="url(#gradient0)" fill-rule="evenodd" stroke="none"/>
    <path d="M58.8 3.5 L58.8 18.25 Q58.8 19.5 58.05 20.85 57.3 22.15 56.25 22.8 L54.9 23.6 53.1 23.75 Q52.35 23.35 52.35 22.1 L52.35 12.6 Q52.35 11.35 51.45 10.5 50.6 9.6 49.35 9.6 L11.7 9.6 Q10.45 9.6 9.6 10.5 8.7 11.35 8.7 12.6 L8.7 51.85 Q8.7 53.1 9.6 53.95 10.45 54.85 11.7 54.85 L49.35 54.85 Q50.6 54.85 51.45 53.95 52.35 53.1 52.35 51.85 L52.35 43.1 Q52.35 41.85 53.15 41.35 L55.05 41.4 56.1 41.9 Q57.2 42.4 58.0 43.7 58.8 44.95 58.8 46.2 L58.8 60.95 Q58.8 62.2 57.9 63.05 57.05 63.95 55.8 63.95 L3.5 63.95 Q2.25 63.95 1.4 63.05 0.5 62.2 0.5 60.95 L0.5 46.45 Q0.5 45.2 1.15 43.75 1.8 42.25 2.75 41.45 L2.85 41.4 Q3.8 40.6 4.45 39.1 5.1 37.65 5.1 36.4 L5.1 27.85 Q5.1 26.6 4.4 25.15 3.75 23.7 2.8 22.9 1.85 22.1 1.2 20.7 0.5 19.25 0.5 18.0 L0.5 3.5 Q0.5 2.25 1.4 1.4 2.25 0.5 3.5 0.5 L55.8 0.5 Q57.05 0.5 57.9 1.4 58.8 2.25 58.8 3.5 Z" fill="none" stroke="#008fed" stroke-linecap="butt" stroke-linejoin="miter-clip" stroke-miterlimit="4.0" stroke-width="1.0"/>
  </g>
  <defs>
    <linearGradient gradientTransform="matrix(0.0, -0.0387, -0.0387, 0.0, 29.65, 32.25)" gradientUnits="userSpaceOnUse" id="gradient0" spreadMethod="pad" x1="-819.2" x2="819.2">
      <stop offset="0.0" stop-color="#0349a3"/>
      <stop offset="1.0" stop-color="#0466ed"/>
    </linearGradient>
  </defs>
</svg>
