<?xml version="1.0" encoding="UTF-8" standalone="no"?>
<svg xmlns:ffdec="https://www.free-decompiler.com/flash" xmlns:xlink="http://www.w3.org/1999/xlink" ffdec:objectType="shape" height="54.3px" width="47.95px" xmlns="http://www.w3.org/2000/svg">
  <g transform="matrix(1.0, 0.0, 0.0, 1.0, 200.3, 163.4)">
    <path d="M-170.65 -111.4 L-156.9 -111.4 Q-155.3 -111.4 -154.15 -112.55 -153.0 -113.7 -153.0 -115.3 L-153.0 -116.55 -152.35 -116.55 -152.35 -113.15 Q-152.35 -111.5 -153.55 -110.3 -154.7 -109.1 -156.4 -109.1 L-170.65 -109.1 -170.65 -111.4" fill="#0677ff" fill-rule="evenodd" stroke="none"/>
    <path d="M-156.4 -163.4 Q-154.7 -163.4 -153.55 -162.2 -152.35 -161.05 -152.35 -159.35 L-152.35 -156.0 -153.0 -156.0 -153.0 -157.2 Q-153.0 -158.8 -154.15 -159.95 -155.3 -161.1 -156.9 -161.1 L-170.65 -161.1 -170.65 -163.4 -156.4 -163.4" fill="#0677ff" fill-rule="evenodd" stroke="none"/>
    <path d="M-198.5 -112.55 Q-197.35 -111.4 -195.75 -111.4 L-182.0 -111.4 -182.0 -109.1 -196.25 -109.1 Q-197.95 -109.1 -199.1 -110.3 -200.3 -111.5 -200.3 -113.15 L-200.3 -116.55 -199.65 -116.55 -199.65 -115.3 Q-199.65 -113.7 -198.5 -112.55" fill="#0677ff" fill-rule="evenodd" stroke="none"/>
    <path d="M-182.0 -161.1 L-195.75 -161.1 Q-197.35 -161.1 -198.5 -159.95 -199.65 -158.8 -199.65 -157.2 L-199.65 -156.0 -200.3 -156.0 -200.3 -159.35 Q-200.3 -161.05 -199.1 -162.2 -197.95 -163.4 -196.25 -163.4 L-182.0 -163.4 -182.0 -161.1" fill="#0677ff" fill-rule="evenodd" stroke="none"/>
  </g>
</svg>
