<?xml version="1.0" encoding="UTF-8" standalone="no"?>
<svg xmlns:ffdec="https://www.free-decompiler.com/flash" xmlns:xlink="http://www.w3.org/1999/xlink" ffdec:objectType="shape" height="404.7px" width="514.35px" xmlns="http://www.w3.org/2000/svg">
  <g transform="matrix(1.0, 0.0, 0.0, 1.0, 257.2, 201.9)">
    <path d="M256.15 -187.9 L256.15 198.8 Q256.15 200.05 255.25 200.9 254.4 201.8 253.15 201.8 L-253.2 201.8 Q-254.45 201.8 -255.3 200.9 -256.2 200.05 -256.2 198.8 L-256.2 -197.9 Q-256.2 -199.15 -255.3 -200.0 -254.45 -200.9 -253.2 -200.9 L-153.45 -200.9 -150.6 -200.4 Q-149.0 -199.9 -148.0 -199.2 L-138.3 -192.6 Q-137.25 -191.9 -135.65 -191.4 L-132.8 -190.9 253.15 -190.9 Q254.4 -190.9 255.25 -190.0 256.15 -189.15 256.15 -187.9" fill="#042d7f" fill-rule="evenodd" stroke="none"/>
    <path d="M256.15 -187.9 L256.15 198.8 Q256.15 200.05 255.25 200.9 254.4 201.8 253.15 201.8 L-253.2 201.8 Q-254.45 201.8 -255.3 200.9 -256.2 200.05 -256.2 198.8 L-256.2 -197.9 Q-256.2 -199.15 -255.3 -200.0 -254.45 -200.9 -253.2 -200.9 L-153.45 -200.9 -150.6 -200.4 Q-149.0 -199.9 -148.0 -199.2 L-138.3 -192.6 Q-137.25 -191.9 -135.65 -191.4 L-132.8 -190.9 253.15 -190.9 Q254.4 -190.9 255.25 -190.0 256.15 -189.15 256.15 -187.9 Z" fill="none" stroke="#0376ff" stroke-linecap="butt" stroke-linejoin="miter-clip" stroke-miterlimit="4.0" stroke-width="2.0"/>
    <path d="M254.6 199.9 L251.65 199.9 251.65 199.4 254.1 199.4 254.1 -188.8 -136.6 -188.8 -151.7 -198.75 -254.35 -198.75 -254.35 199.4 -251.15 199.4 -251.15 199.9 -254.85 199.9 -254.85 -199.25 -151.65 -199.25 -136.6 -189.3 254.6 -189.3 254.6 199.9" fill="#1456c1" fill-rule="evenodd" stroke="none"/>
    <path d="M244.6 -170.45 Q245.85 -170.45 246.7 -169.55 247.6 -168.7 247.6 -167.45 L247.6 188.55 Q247.6 189.8 246.7 190.65 245.85 191.55 244.6 191.55 L-245.1 191.55 Q-246.35 191.55 -247.2 190.65 -248.1 189.8 -248.1 188.55 L-248.1 -167.45 Q-248.1 -168.7 -247.2 -169.55 -246.35 -170.45 -245.1 -170.45 L244.6 -170.45" fill="url(#gradient0)" fill-rule="evenodd" stroke="none"/>
    <path d="M244.6 -170.45 L-245.1 -170.45 Q-246.35 -170.45 -247.2 -169.55 -248.1 -168.7 -248.1 -167.45 L-248.1 188.55 Q-248.1 189.8 -247.2 190.65 -246.35 191.55 -245.1 191.55 L244.6 191.55 Q245.85 191.55 246.7 190.65 247.6 189.8 247.6 188.55 L247.6 -167.45 Q247.6 -168.7 246.7 -169.55 245.85 -170.45 244.6 -170.45 Z" fill="none" stroke="#0068ff" stroke-linecap="butt" stroke-linejoin="miter-clip" stroke-miterlimit="4.0" stroke-width="1.0"/>
  </g>
  <defs>
    <linearGradient gradientTransform="matrix(0.0, -0.2209, 0.2209, 0.0, -0.25, 10.55)" gradientUnits="userSpaceOnUse" id="gradient0" spreadMethod="pad" x1="-819.2" x2="819.2">
      <stop offset="0.0" stop-color="#000d36"/>
      <stop offset="0.3607843137254902" stop-color="#000e38"/>
      <stop offset="0.5647058823529412" stop-color="#011241"/>
      <stop offset="0.7333333333333333" stop-color="#021a4e"/>
      <stop offset="0.8745098039215686" stop-color="#032462"/>
      <stop offset="1.0" stop-color="#05307a"/>
    </linearGradient>
  </defs>
</svg>
