<?xml version="1.0" encoding="UTF-8" standalone="no"?>
<svg xmlns:ffdec="https://www.free-decompiler.com/flash" xmlns:xlink="http://www.w3.org/1999/xlink" ffdec:objectType="shape" height="21.0px" width="81.95px" xmlns="http://www.w3.org/2000/svg">
  <g transform="matrix(1.0, 0.0, 0.0, 1.0, 40.95, -208.0)">
    <path d="M12.25 208.5 L19.25 208.5 19.25 210.85 12.25 210.85 12.25 208.5 M19.25 228.5 L12.25 228.5 12.25 226.0 19.25 226.0 19.25 228.5" fill="url(#gradient0)" fill-rule="evenodd" stroke="none"/>
    <path d="M3.25 210.85 L12.25 210.85 19.25 210.85 22.3 210.85 33.8 222.8 29.6 226.0 19.25 226.0 12.25 226.0 3.25 226.0 -13.25 226.0 -16.25 226.0 -19.1 226.0 -30.9 226.0 -34.5 223.4 -23.55 210.85 -18.9 210.85 -16.25 210.85 -13.25 210.85 3.25 210.85" fill="#000102" fill-rule="evenodd" stroke="none"/>
    <path d="M3.25 208.5 L12.25 208.5 12.25 210.85 3.25 210.85 3.25 208.5 M12.25 228.5 L3.25 228.5 3.25 226.0 12.25 226.0 12.25 228.5" fill="url(#gradient1)" fill-rule="evenodd" stroke="none"/>
    <path d="M3.25 228.5 L-13.25 228.5 -13.25 226.0 3.25 226.0 3.25 228.5 M-13.25 208.5 L3.25 208.5 3.25 210.85 -13.25 210.85 -13.25 208.5" fill="url(#gradient2)" fill-rule="evenodd" stroke="none"/>
    <path d="M19.25 208.5 L24.6 208.5 40.25 225.4 35.2 228.5 19.25 228.5 19.25 226.0 29.6 226.0 33.8 222.8 22.3 210.85 19.25 210.85 19.25 208.5" fill="url(#gradient3)" fill-rule="evenodd" stroke="none"/>
    <path d="M-16.25 228.5 L-19.5 228.5 -18.9 228.05 -19.1 226.0 -16.25 226.0 -16.25 228.5 M-19.9 208.5 L-16.25 208.5 -16.25 210.85 -18.9 210.85 -18.9 209.15 -19.9 208.5" fill="url(#gradient4)" fill-rule="evenodd" stroke="none"/>
    <path d="M-13.25 228.5 L-16.25 228.5 -16.25 226.0 -13.25 226.0 -13.25 228.5 M-16.25 208.5 L-13.25 208.5 -13.25 210.85 -16.25 210.85 -16.25 208.5" fill="url(#gradient5)" fill-rule="evenodd" stroke="none"/>
    <path d="M-19.5 228.5 L-36.25 228.5 -40.25 225.4 -25.55 208.5 -19.9 208.5 -18.9 209.15 -18.9 210.85 -23.55 210.85 -34.5 223.4 -30.9 226.0 -19.1 226.0 -18.9 228.05 -19.5 228.5" fill="url(#gradient6)" fill-rule="evenodd" stroke="none"/>
    <path d="M3.25 208.5 L12.25 208.5 19.25 208.5 24.6 208.5 40.25 225.4 35.2 228.5 19.25 228.5 12.25 228.5 3.25 228.5 -13.25 228.5 -16.25 228.5 -19.5 228.5 -36.25 228.5 -40.25 225.4 -25.55 208.5 -19.9 208.5 -16.25 208.5 -13.25 208.5 3.25 208.5 Z" fill="none" stroke="#736357" stroke-linecap="butt" stroke-linejoin="miter-clip" stroke-miterlimit="4.0" stroke-width="1.0"/>
  </g>
  <defs>
    <linearGradient gradientTransform="matrix(0.0, -0.0122, 0.0788, 0.0, 16.9, 218.5)" gradientUnits="userSpaceOnUse" id="gradient0" spreadMethod="pad" x1="-819.2" x2="819.2">
      <stop offset="0.0" stop-color="#242424"/>
      <stop offset="1.0" stop-color="#505050"/>
    </linearGradient>
    <linearGradient gradientTransform="matrix(0.0, -0.0122, 0.2232, 0.0, 25.4, 218.5)" gradientUnits="userSpaceOnUse" id="gradient1" spreadMethod="pad" x1="-819.2" x2="819.2">
      <stop offset="0.0" stop-color="#242424"/>
      <stop offset="1.0" stop-color="#505050"/>
    </linearGradient>
    <linearGradient gradientTransform="matrix(0.0, -0.0122, 0.8183, 0.0, 86.3, 218.5)" gradientUnits="userSpaceOnUse" id="gradient2" spreadMethod="pad" x1="-819.2" x2="819.2">
      <stop offset="0.0" stop-color="#242424"/>
      <stop offset="1.0" stop-color="#505050"/>
    </linearGradient>
    <linearGradient gradientTransform="matrix(0.0, -0.0122, 0.016, 0.0, 16.7, 218.5)" gradientUnits="userSpaceOnUse" id="gradient3" spreadMethod="pad" x1="-819.2" x2="819.2">
      <stop offset="0.0" stop-color="#242424"/>
      <stop offset="1.0" stop-color="#505050"/>
    </linearGradient>
    <linearGradient gradientTransform="matrix(0.0, -0.0122, 0.0788, 0.0, -5.6, 218.5)" gradientUnits="userSpaceOnUse" id="gradient4" spreadMethod="pad" x1="-819.2" x2="819.2">
      <stop offset="0.0" stop-color="#242424"/>
      <stop offset="1.0" stop-color="#505050"/>
    </linearGradient>
    <linearGradient gradientTransform="matrix(0.0, -0.0122, 0.2232, 0.0, 13.9, 218.5)" gradientUnits="userSpaceOnUse" id="gradient5" spreadMethod="pad" x1="-819.2" x2="819.2">
      <stop offset="0.0" stop-color="#242424"/>
      <stop offset="1.0" stop-color="#505050"/>
    </linearGradient>
    <linearGradient gradientTransform="matrix(0.0, -0.0122, 0.016, 0.0, -16.7, 218.5)" gradientUnits="userSpaceOnUse" id="gradient6" spreadMethod="pad" x1="-819.2" x2="819.2">
      <stop offset="0.0" stop-color="#242424"/>
      <stop offset="1.0" stop-color="#505050"/>
    </linearGradient>
  </defs>
</svg>
