<?xml version="1.0" encoding="UTF-8" standalone="no"?>
<svg xmlns:ffdec="https://www.free-decompiler.com/flash" xmlns:xlink="http://www.w3.org/1999/xlink" ffdec:objectType="shape" height="53.9px" width="610.65px" xmlns="http://www.w3.org/2000/svg">
  <g transform="matrix(1.0, 0.0, 0.0, 1.0, 306.65, 181.3)">
    <path d="M-36.6 -156.2 L89.5 -156.2 Q90.7 -156.2 92.1 -156.9 93.45 -157.6 94.15 -158.6 L108.65 -178.4 Q109.35 -179.4 110.75 -180.1 112.1 -180.8 113.35 -180.8 L300.55 -180.8 Q301.8 -180.8 302.6 -179.9 303.5 -179.05 303.5 -177.8 L303.5 -130.9 Q303.5 -129.65 302.6 -128.8 301.8 -127.9 300.55 -127.9 L-36.6 -127.9 -36.6 -156.2" fill="url(#gradient0)" fill-rule="evenodd" stroke="none"/>
    <path d="M-36.6 -127.9 L-303.2 -127.9 Q-304.45 -127.9 -305.25 -128.8 -306.15 -129.65 -306.15 -130.9 L-306.15 -177.8 Q-306.15 -179.05 -305.25 -179.9 -304.45 -180.8 -303.2 -180.8 L-116.0 -180.8 Q-114.75 -180.8 -113.4 -180.1 -112.0 -179.4 -111.3 -178.4 L-96.8 -158.6 Q-96.1 -157.6 -94.75 -156.9 -93.35 -156.2 -92.15 -156.2 L-36.6 -156.2 -36.6 -127.9" fill="url(#gradient1)" fill-rule="evenodd" stroke="none"/>
    <path d="M-36.6 -156.2 L89.5 -156.2 Q90.7 -156.2 92.1 -156.9 93.45 -157.6 94.15 -158.6 L108.65 -178.4 Q109.35 -179.4 110.75 -180.1 112.1 -180.8 113.35 -180.8 L300.55 -180.8 Q301.8 -180.8 302.6 -179.9 303.5 -179.05 303.5 -177.8 L303.5 -130.9 Q303.5 -129.65 302.6 -128.8 301.8 -127.9 300.55 -127.9 L-36.6 -127.9 -303.2 -127.9 Q-304.45 -127.9 -305.25 -128.8 -306.15 -129.65 -306.15 -130.9 L-306.15 -177.8 Q-306.15 -179.05 -305.25 -179.9 -304.45 -180.8 -303.2 -180.8 L-116.0 -180.8 Q-114.75 -180.8 -113.4 -180.1 -112.0 -179.4 -111.3 -178.4 L-96.8 -158.6 Q-96.1 -157.6 -94.75 -156.9 -93.35 -156.2 -92.15 -156.2 L-36.6 -156.2 Z" fill="none" stroke="#0068ff" stroke-linecap="butt" stroke-linejoin="miter-clip" stroke-miterlimit="4.0" stroke-width="1.0"/>
  </g>
  <defs>
    <linearGradient gradientTransform="matrix(0.0, -0.0323, -0.0314, 0.0, -1.2, -154.35)" gradientUnits="userSpaceOnUse" id="gradient0" spreadMethod="pad" x1="-819.2" x2="819.2">
      <stop offset="0.0" stop-color="#000a40"/>
      <stop offset="0.47058823529411764" stop-color="#000b42"/>
      <stop offset="0.6627450980392157" stop-color="#011049"/>
      <stop offset="0.8" stop-color="#021955"/>
      <stop offset="0.9137254901960784" stop-color="#032566"/>
      <stop offset="1.0" stop-color="#05337a"/>
    </linearGradient>
    <linearGradient gradientTransform="matrix(0.0, -0.0323, 0.0314, 0.0, -1.45, -154.35)" gradientUnits="userSpaceOnUse" id="gradient1" spreadMethod="pad" x1="-819.2" x2="819.2">
      <stop offset="0.0" stop-color="#000a40"/>
      <stop offset="0.47058823529411764" stop-color="#000b42"/>
      <stop offset="0.6627450980392157" stop-color="#011049"/>
      <stop offset="0.8" stop-color="#021955"/>
      <stop offset="0.9137254901960784" stop-color="#032566"/>
      <stop offset="1.0" stop-color="#05337a"/>
    </linearGradient>
  </defs>
</svg>
