<?xml version="1.0" encoding="UTF-8" standalone="no"?>
<svg xmlns:ffdec="https://www.free-decompiler.com/flash" xmlns:xlink="http://www.w3.org/1999/xlink" ffdec:objectType="shape" height="30.85px" width="108.5px" xmlns="http://www.w3.org/2000/svg">
  <g transform="matrix(1.0, 0.0, 0.0, 1.0, 0.0, 0.0)">
    <path d="M18.15 3.8 L1.75 25.85 Q0.65 27.35 1.25 28.6 1.85 29.85 3.75 29.85 L103.5 29.85 Q105.15 29.85 106.3 28.7 107.5 27.5 107.5 25.85 L107.5 5.0 Q107.5 3.35 106.3 2.2 105.15 1.0 103.5 1.0 L23.75 1.0 Q22.25 1.0 20.65 1.8 19.0 2.6 18.15 3.8" fill="url(#gradient0)" fill-rule="evenodd" stroke="none"/>
    <path d="M105.6 2.9 Q106.5 3.75 106.5 5.0 L106.5 25.85 Q106.5 27.1 105.6 27.95 104.75 28.85 103.5 28.85 L3.75 28.85 Q2.5 28.85 2.15 28.15 1.8 27.45 2.55 26.45 L18.95 4.4 Q19.7 3.4 21.1 2.7 22.5 2.0 23.75 2.0 L103.5 2.0 Q104.75 2.0 105.6 2.9 M107.05 1.45 Q105.55 0.0 103.5 0.0 L23.75 0.0 Q22.0 0.0 20.2 0.9 18.35 1.8 17.35 3.2 L0.95 25.25 Q-0.55 27.2 0.35 29.05 1.3 30.85 3.75 30.85 L103.5 30.85 Q105.55 30.85 107.05 29.4 108.5 27.9 108.5 25.85 L108.5 5.0 Q108.5 2.95 107.05 1.45" fill="#0068ff" fill-rule="evenodd" stroke="none"/>
  </g>
  <defs>
    <linearGradient gradientTransform="matrix(0.0, -0.0176, 0.0176, 0.0, 54.3, 15.4)" gradientUnits="userSpaceOnUse" id="gradient0" spreadMethod="pad" x1="-819.2" x2="819.2">
      <stop offset="0.0" stop-color="#05337a"/>
      <stop offset="0.17647058823529413" stop-color="#032970"/>
      <stop offset="0.4627450980392157" stop-color="#012168"/>
      <stop offset="1.0" stop-color="#001f66"/>
    </linearGradient>
  </defs>
</svg>
