<?xml version="1.0" encoding="UTF-8" standalone="no"?>
<svg xmlns:ffdec="https://www.free-decompiler.com/flash" xmlns:xlink="http://www.w3.org/1999/xlink" ffdec:objectType="shape" height="27.75px" width="97.65px" xmlns="http://www.w3.org/2000/svg">
  <g transform="matrix(1.0, 0.0, 0.0, 1.0, -5.4, -1.55)">
    <path d="M21.75 4.95 L7.0 24.8 Q6.0 26.15 6.55 27.3 7.05 28.4 8.8 28.4 L98.55 28.4 Q100.05 28.4 101.05 27.4 102.15 26.3 102.15 24.8 L102.15 6.05 Q102.15 4.55 101.05 3.55 100.05 2.45 98.55 2.45 L26.8 2.45 Q25.45 2.45 24.0 3.15 22.5 3.9 21.75 4.95" fill="url(#gradient0)" fill-rule="evenodd" stroke="none"/>
    <path d="M101.75 2.85 Q100.4 1.55 98.55 1.55 L26.75 1.55 Q25.2 1.55 23.6 2.35 21.9 3.15 21.0 4.4 L6.25 24.25 Q4.9 26.0 5.7 27.7 6.55 29.3 8.75 29.3 L98.55 29.3 Q100.4 29.3 101.75 28.0 103.05 26.65 103.05 24.8 L103.05 6.05 Q103.05 4.2 101.75 2.85 M98.55 3.35 Q99.65 3.35 100.45 4.15 101.25 4.9 101.25 6.05 L101.25 24.8 Q101.25 25.95 100.45 26.7 99.65 27.5 98.55 27.5 L8.75 27.5 Q7.65 27.5 7.35 26.85 7.0 26.25 7.7 25.35 L22.45 5.5 Q23.15 4.6 24.4 3.95 25.65 3.35 26.75 3.35 L98.55 3.35" fill="#0068ff" fill-rule="evenodd" stroke="none"/>
  </g>
  <defs>
    <linearGradient gradientTransform="matrix(0.0, -0.0188, -0.0188, 0.0, 8.95, 17.85)" gradientUnits="userSpaceOnUse" id="gradient0" spreadMethod="pad" x1="-819.2" x2="819.2">
      <stop offset="0.0" stop-color="#004bc2"/>
      <stop offset="0.7647058823529411" stop-color="#003498"/>
      <stop offset="1.0" stop-color="#0057d9"/>
    </linearGradient>
  </defs>
</svg>
