<?xml version="1.0" encoding="UTF-8" standalone="no"?>
<svg xmlns:ffdec="https://www.free-decompiler.com/flash" xmlns:xlink="http://www.w3.org/1999/xlink" ffdec:objectType="shape" height="14.4px" width="41.85px" xmlns="http://www.w3.org/2000/svg">
  <g transform="matrix(1.0, 0.0, 0.0, 1.0, -0.25, 0.05)">
    <path d="M14.65 0.7 Q13.5 0.7 12.2 1.25 10.9 1.85 10.2 2.7 L2.65 11.55 Q1.95 12.4 2.2 12.95 2.5 13.6 3.6 13.6 L29.95 13.6 Q31.05 13.6 32.35 12.95 33.6 12.35 34.25 11.45 L40.75 2.85 Q41.4 1.95 41.1 1.3 40.8 0.7 39.65 0.7 L14.65 0.7" fill="#042d7f" fill-rule="evenodd" stroke="none"/>
    <path d="M14.65 0.7 L39.65 0.7 Q40.8 0.7 41.1 1.3 41.4 1.95 40.75 2.85 L34.25 11.45 Q33.6 12.35 32.35 12.95 31.05 13.6 29.95 13.6 L3.6 13.6 Q2.5 13.6 2.2 12.95 1.95 12.4 2.65 11.55 L10.2 2.7 Q10.9 1.85 12.2 1.25 13.5 0.7 14.65 0.7 Z" fill="none" stroke="#0376ff" stroke-linecap="butt" stroke-linejoin="miter-clip" stroke-miterlimit="4.0" stroke-width="1.5"/>
    <path d="M25.0 5.25 L26.1 3.55 17.55 7.35 21.25 11.1 22.25 9.5 21.9 7.35 25.0 5.25" fill="#1691f9" fill-rule="evenodd" stroke="none"/>
  </g>
</svg>
