<?xml version="1.0" encoding="UTF-8" standalone="no"?>
<svg xmlns:ffdec="https://www.free-decompiler.com/flash" xmlns:xlink="http://www.w3.org/1999/xlink" ffdec:objectType="shape" height="24.6px" width="188.35px" xmlns="http://www.w3.org/2000/svg">
  <g transform="matrix(1.0, 0.0, 0.0, 1.0, -10.4, -1.35)">
    <path d="M195.65 1.35 Q197.8 1.35 198.5 3.0 199.2 4.7 197.9 6.4 L184.95 23.2 Q184.05 24.4 182.5 25.2 180.9 25.95 179.45 25.95 L28.9 25.95 Q27.4 25.95 25.9 25.15 24.3 24.35 23.4 23.15 L11.2 6.4 Q9.95 4.6 10.7 3.0 11.45 1.35 13.55 1.35 L195.65 1.35 M141.45 24.15 L179.45 24.15 181.75 23.6 Q183.0 22.95 183.65 22.1 L196.6 5.25 Q197.3 4.4 196.95 3.8 196.75 3.15 195.65 3.15 L141.45 3.15 97.15 3.15 13.55 3.15 Q12.45 3.15 12.25 3.8 11.95 4.4 12.55 5.3 L24.75 22.05 26.6 23.55 Q27.8 24.15 28.9 24.15 L97.15 24.15 141.45 24.15" fill="#0659ff" fill-rule="evenodd" stroke="none"/>
    <path d="M141.45 3.15 L195.65 3.15 Q196.75 3.15 196.95 3.8 197.3 4.4 196.6 5.25 L183.65 22.1 Q183.0 22.95 181.75 23.6 L179.45 24.15 141.45 24.15 141.45 3.15" fill="url(#gradient0)" fill-rule="evenodd" stroke="none"/>
    <path d="M141.45 24.15 L97.15 24.15 97.15 3.15 141.45 3.15 141.45 24.15" fill="url(#gradient1)" fill-rule="evenodd" stroke="none"/>
    <path d="M97.15 24.15 L28.9 24.15 Q27.8 24.15 26.6 23.55 L24.75 22.05 12.55 5.3 Q11.95 4.4 12.25 3.8 12.45 3.15 13.55 3.15 L97.15 3.15 97.15 24.15" fill="url(#gradient2)" fill-rule="evenodd" stroke="none"/>
  </g>
  <defs>
    <linearGradient gradientTransform="matrix(0.0, -0.0139, -0.0132, 0.0, 115.45, 13.7)" gradientUnits="userSpaceOnUse" id="gradient0" spreadMethod="pad" x1="-819.2" x2="819.2">
      <stop offset="0.0" stop-color="#004bc2"/>
      <stop offset="0.7647058823529411" stop-color="#003498"/>
      <stop offset="1.0" stop-color="#0057d9"/>
    </linearGradient>
    <linearGradient gradientTransform="matrix(0.0, -0.0139, -0.0326, 0.0, 88.6, 13.7)" gradientUnits="userSpaceOnUse" id="gradient1" spreadMethod="pad" x1="-819.2" x2="819.2">
      <stop offset="0.0" stop-color="#004bc2"/>
      <stop offset="0.7647058823529411" stop-color="#003498"/>
      <stop offset="1.0" stop-color="#0057d9"/>
    </linearGradient>
    <linearGradient gradientTransform="matrix(0.0, -0.0139, -0.0132, 0.0, 93.75, 13.7)" gradientUnits="userSpaceOnUse" id="gradient2" spreadMethod="pad" x1="-819.2" x2="819.2">
      <stop offset="0.0" stop-color="#004bc2"/>
      <stop offset="0.7647058823529411" stop-color="#003498"/>
      <stop offset="1.0" stop-color="#0057d9"/>
    </linearGradient>
  </defs>
</svg>
