<?xml version="1.0" encoding="UTF-8" standalone="no"?>
<svg xmlns:ffdec="https://www.free-decompiler.com/flash" xmlns:xlink="http://www.w3.org/1999/xlink" ffdec:objectType="shape" height="29.85px" width="93.25px" xmlns="http://www.w3.org/2000/svg">
  <g transform="matrix(1.0, 0.0, 0.0, 1.0, 0.0, 0.0)">
    <path d="M92.45 25.35 Q92.45 26.9 91.3 28.0 90.15 29.1 88.5 29.1 L4.75 29.1 Q3.1 29.1 1.95 28.0 0.8 26.9 0.8 25.35 L0.8 4.5 Q0.8 2.95 1.95 1.85 3.1 0.75 4.75 0.75 L88.5 0.75 Q90.15 0.75 91.3 1.85 92.45 2.95 92.45 4.5 L92.45 25.35" fill="url(#gradient0)" fill-rule="evenodd" stroke="none"/>
    <path d="M91.85 1.3 Q93.25 2.65 93.25 4.5 L93.25 25.35 Q93.25 27.2 91.85 28.55 90.45 29.85 88.5 29.85 L4.75 29.85 Q2.8 29.85 1.35 28.55 0.0 27.25 0.0 25.35 L0.0 4.5 Q0.0 2.65 1.35 1.3 2.8 0.0 4.75 0.0 L88.5 0.0 Q90.45 0.0 91.85 1.3 M91.65 4.5 Q91.65 3.25 90.75 2.4 89.85 1.5 88.5 1.5 L4.75 1.5 Q3.4 1.5 2.5 2.4 1.6 3.25 1.6 4.5 L1.6 25.35 Q1.6 26.6 2.5 27.45 3.4 28.35 4.75 28.35 L88.5 28.35 Q89.85 28.35 90.75 27.45 91.65 26.6 91.65 25.35 L91.65 4.5" fill="#0659ff" fill-rule="evenodd" stroke="none"/>
  </g>
  <defs>
    <linearGradient gradientTransform="matrix(0.0, -0.0176, -0.0185, 0.0, 56.9, 15.4)" gradientUnits="userSpaceOnUse" id="gradient0" spreadMethod="pad" x1="-819.2" x2="819.2">
      <stop offset="0.0" stop-color="#05337a"/>
      <stop offset="0.17647058823529413" stop-color="#032970"/>
      <stop offset="0.4627450980392157" stop-color="#012168"/>
      <stop offset="1.0" stop-color="#001f66"/>
    </linearGradient>
  </defs>
</svg>
