<?xml version="1.0" encoding="UTF-8" standalone="no"?>
<svg xmlns:ffdec="https://www.free-decompiler.com/flash" xmlns:xlink="http://www.w3.org/1999/xlink" ffdec:objectType="shape" height="30.85px" width="108.5px" xmlns="http://www.w3.org/2000/svg">
  <g transform="matrix(1.0, 0.0, 0.0, 1.0, 0.0, 0.0)">
    <path d="M90.35 3.8 L106.75 25.85 Q107.85 27.35 107.25 28.6 106.65 29.85 104.75 29.85 L5.0 29.85 Q3.35 29.85 2.2 28.7 1.0 27.5 1.0 25.85 L1.0 5.0 Q1.0 3.35 2.2 2.2 3.35 1.0 5.0 1.0 L84.75 1.0 Q86.25 1.0 87.85 1.8 89.5 2.6 90.35 3.8" fill="url(#gradient0)" fill-rule="evenodd" stroke="none"/>
    <path d="M1.45 1.45 Q2.95 0.0 5.0 0.0 L84.75 0.0 Q86.5 0.0 88.3 0.9 90.15 1.8 91.15 3.2 L107.55 25.25 Q109.05 27.2 108.15 29.05 107.2 30.85 104.75 30.85 L5.0 30.85 Q2.95 30.85 1.45 29.4 0.0 27.9 0.0 25.85 L0.0 5.0 Q0.0 2.95 1.45 1.45 M5.0 2.0 Q3.75 2.0 2.9 2.9 2.0 3.75 2.0 5.0 L2.0 25.85 Q2.0 27.1 2.9 27.95 3.75 28.85 5.0 28.85 L104.75 28.85 Q106.0 28.85 106.35 28.15 106.7 27.45 105.95 26.45 L89.55 4.4 Q88.8 3.4 87.4 2.7 86.0 2.0 84.75 2.0 L5.0 2.0" fill="#0068ff" fill-rule="evenodd" stroke="none"/>
  </g>
  <defs>
    <linearGradient gradientTransform="matrix(0.0, -0.0208, 0.0208, 0.0, 104.55, 18.1)" gradientUnits="userSpaceOnUse" id="gradient0" spreadMethod="pad" x1="-819.2" x2="819.2">
      <stop offset="0.0" stop-color="#004bc2"/>
      <stop offset="0.7647058823529411" stop-color="#003498"/>
      <stop offset="1.0" stop-color="#0057d9"/>
    </linearGradient>
  </defs>
</svg>
