<?xml version="1.0" encoding="UTF-8" standalone="no"?>
<svg xmlns:ffdec="https://www.free-decompiler.com/flash" xmlns:xlink="http://www.w3.org/1999/xlink" ffdec:objectType="shape" height="21.85px" width="151.75px" xmlns="http://www.w3.org/2000/svg">
  <g transform="matrix(1.0, 0.0, 0.0, 1.0, 77.85, 152.85)">
    <path d="M73.4 -150.35 L73.4 -133.8 Q73.4 -132.95 72.8 -132.4 72.25 -131.8 71.4 -131.8 L-75.35 -131.8 Q-76.15 -131.8 -76.75 -132.4 -77.35 -132.95 -77.35 -133.8 L-77.35 -150.35 Q-77.35 -151.15 -76.75 -151.75 -76.15 -152.35 -75.35 -152.35 L71.4 -152.35 Q72.25 -152.35 72.8 -151.75 73.4 -151.15 73.4 -150.35" fill="#020b44" fill-rule="evenodd" stroke="none"/>
    <path d="M73.4 -150.35 L73.4 -133.8 Q73.4 -132.95 72.8 -132.4 72.25 -131.8 71.4 -131.8 L-75.35 -131.8 Q-76.15 -131.8 -76.75 -132.4 -77.35 -132.95 -77.35 -133.8 L-77.35 -150.35 Q-77.35 -151.15 -76.75 -151.75 -76.15 -152.35 -75.35 -152.35 L71.4 -152.35 Q72.25 -152.35 72.8 -151.75 73.4 -151.15 73.4 -150.35 Z" fill="none" stroke="#075bd6" stroke-linecap="butt" stroke-linejoin="miter-clip" stroke-miterlimit="4.0" stroke-width="1.0"/>
  </g>
</svg>
