<?xml version="1.0" encoding="UTF-8" standalone="no"?>
<svg xmlns:ffdec="https://www.free-decompiler.com/flash" xmlns:xlink="http://www.w3.org/1999/xlink" ffdec:objectType="shape" height="48.25px" width="46.55px" xmlns="http://www.w3.org/2000/svg">
  <g transform="matrix(1.0, 0.0, 0.0, 1.0, 7.65, 11.3)">
    <path d="M-3.65 -10.8 L34.9 -10.8 Q36.35 -10.8 37.35 -9.8 38.4 -8.75 38.4 -7.3 L38.4 32.95 Q38.4 34.4 37.35 35.45 36.35 36.45 34.9 36.45 L-3.65 36.45 Q-5.1 36.45 -6.15 35.45 -7.15 34.4 -7.15 32.95 L-7.15 -7.3 Q-7.15 -8.75 -6.15 -9.8 -5.1 -10.8 -3.65 -10.8" fill="url(#gradient0)" fill-rule="evenodd" stroke="none"/>
    <path d="M-7.65 32.95 L-7.65 -7.3 Q-7.65 -8.95 -6.45 -10.1 -5.3 -11.3 -3.65 -11.3 L34.9 -11.3 Q36.55 -11.3 37.75 -10.1 38.9 -8.95 38.9 -7.3 L38.9 32.95 Q38.9 34.6 37.75 35.8 36.55 36.95 34.9 36.95 L-3.65 36.95 Q-5.3 36.95 -6.45 35.8 -7.65 34.6 -7.65 32.95 M-3.65 -10.3 Q-4.9 -10.3 -5.75 -9.4 -6.65 -8.55 -6.65 -7.3 L-6.65 32.95 Q-6.65 34.2 -5.75 35.05 -4.9 35.95 -3.65 35.95 L34.9 35.95 Q36.15 35.95 37.0 35.05 37.9 34.2 37.9 32.95 L37.9 -7.3 Q37.9 -8.55 37.0 -9.4 36.15 -10.3 34.9 -10.3 L-3.65 -10.3" fill="#399cff" fill-rule="evenodd" stroke="none"/>
    <path d="M18.3 4.2 Q16.1 4.2 14.55 5.75 13.0 7.3 13.0 9.5 13.0 11.7 14.55 13.25 16.1 14.8 18.3 14.8 20.5 14.8 22.05 13.25 23.6 11.7 23.6 9.5 23.6 7.3 22.05 5.75 20.5 4.2 18.3 4.2 M12.3 3.5 Q14.8 1.0 18.3 1.0 21.85 1.0 24.3 3.5 26.8 6.0 26.8 9.5 26.8 13.05 24.3 15.5 21.85 18.0 18.3 18.0 15.7 18.0 13.4 16.45 L8.75 21.9 Q5.35 25.95 4.45 26.15 3.35 26.4 2.2 25.0 1.15 23.7 1.0 22.4 0.95 21.5 5.05 18.55 7.8 16.55 11.35 14.35 9.8 12.05 9.8 9.5 9.8 6.0 12.3 3.5" fill="#004dbc" fill-rule="evenodd" stroke="none"/>
    <path d="M18.3 1.0 Q14.8 1.0 12.3 3.5 9.8 6.0 9.8 9.5 9.8 12.05 11.35 14.35 7.8 16.55 5.05 18.55 0.95 21.5 1.0 22.4 1.1 23.65 2.05 24.85 3.05 26.2 4.15 26.2 L4.45 26.15 Q5.35 25.95 8.75 21.9 L13.4 16.45 Q15.7 18.0 18.3 18.0 21.85 18.0 24.3 15.5 26.8 13.05 26.8 9.5 26.8 6.0 24.3 3.5 21.85 1.0 18.3 1.0 M14.55 5.75 Q16.1 4.2 18.3 4.2 20.5 4.2 22.05 5.75 23.6 7.3 23.6 9.5 23.6 11.7 22.05 13.25 20.5 14.8 18.3 14.8 16.1 14.8 14.55 13.25 13.0 11.7 13.0 9.5 13.0 7.3 14.55 5.75 M18.3 5.2 Q16.55 5.2 15.25 6.45 14.0 7.75 14.0 9.5 14.0 11.3 15.25 12.55 16.55 13.8 18.3 13.8 20.1 13.8 21.35 12.55 22.6 11.3 22.6 9.5 22.6 7.75 21.35 6.45 20.1 5.2 18.3 5.2 M11.6 2.8 Q14.4 0.0 18.3 0.0 22.25 0.0 25.0 2.8 27.8 5.6 27.8 9.5 27.8 13.45 25.0 16.2 22.25 19.0 18.3 19.0 15.8 19.0 13.6 17.75 L11.8 19.9 7.15 25.25 4.7 27.1 4.15 27.2 Q2.65 27.2 1.35 25.55 0.15 24.1 0.0 22.5 -0.05 21.55 1.45 20.15 3.65 18.1 9.95 14.0 8.8 11.95 8.8 9.5 8.8 5.6 11.6 2.8" fill="#076cdb" fill-rule="evenodd" stroke="none"/>
  </g>
  <defs>
    <linearGradient gradientTransform="matrix(0.0, -0.0289, -0.0289, 0.0, 15.6, 12.8)" gradientUnits="userSpaceOnUse" id="gradient0" spreadMethod="pad" x1="-819.2" x2="819.2">
      <stop offset="0.0" stop-color="#004bc2"/>
      <stop offset="0.7647058823529411" stop-color="#003498"/>
      <stop offset="1.0" stop-color="#0057d9"/>
    </linearGradient>
  </defs>
</svg>
