<?xml version="1.0" encoding="UTF-8" standalone="no"?>
<svg xmlns:ffdec="https://www.free-decompiler.com/flash" xmlns:xlink="http://www.w3.org/1999/xlink" ffdec:objectType="shape" height="43.45px" width="41.9px" xmlns="http://www.w3.org/2000/svg">
  <g transform="matrix(1.0, 0.0, 0.0, 1.0, 5.35, 8.9)">
    <path d="M36.1 -5.25 L36.1 30.95 Q36.1 32.25 35.15 33.2 34.25 34.1 32.95 34.1 L-1.75 34.1 Q-3.05 34.1 -4.0 33.2 -4.9 32.25 -4.9 30.95 L-4.9 -5.25 Q-4.9 -6.55 -4.0 -7.5 -3.05 -8.4 -1.75 -8.4 L32.95 -8.4 Q34.25 -8.4 35.15 -7.5 36.1 -6.55 36.1 -5.25" fill="url(#gradient0)" fill-rule="evenodd" stroke="none"/>
    <path d="M-5.35 30.95 L-5.35 -5.3 Q-5.35 -6.75 -4.3 -7.8 -3.25 -8.9 -1.75 -8.9 L32.95 -8.9 Q34.4 -8.9 35.5 -7.8 36.55 -6.75 36.55 -5.3 L36.55 30.95 Q36.55 32.45 35.5 33.5 34.4 34.55 32.95 34.55 L-1.75 34.55 Q-3.25 34.55 -4.3 33.5 -5.35 32.45 -5.35 30.95 M-1.75 -8.0 Q-2.9 -8.0 -3.65 -7.15 -4.45 -6.4 -4.45 -5.3 L-4.45 30.95 Q-4.45 32.05 -3.65 32.85 -2.9 33.65 -1.75 33.65 L32.95 33.65 Q34.05 33.65 34.85 32.85 35.65 32.05 35.65 30.95 L35.65 -5.3 Q35.65 -6.4 34.85 -7.15 34.05 -8.0 32.95 -8.0 L-1.75 -8.0" fill="#e4a100" fill-rule="evenodd" stroke="none"/>
    <path d="M21.25 13.25 Q22.65 11.9 22.65 9.9 22.65 7.9 21.25 6.5 19.85 5.15 17.85 5.15 15.9 5.15 14.5 6.5 13.1 7.9 13.1 9.9 13.1 11.9 14.5 13.25 15.9 14.65 17.85 14.65 19.85 14.65 21.25 13.25 M25.5 9.9 Q25.5 13.1 23.25 15.3 21.05 17.55 17.85 17.55 15.55 17.55 13.45 16.15 L9.25 21.05 Q6.2 24.7 5.4 24.9 4.4 25.1 3.4 23.85 2.45 22.7 2.3 21.5 2.25 20.7 5.95 18.05 8.4 16.25 11.6 14.25 10.2 12.2 10.2 9.9 10.2 6.75 12.45 4.5 14.7 2.25 17.85 2.25 21.05 2.25 23.25 4.5 25.5 6.75 25.5 9.9" fill="#ffe091" fill-rule="evenodd" stroke="none"/>
    <path d="M23.25 15.3 Q25.5 13.1 25.5 9.9 25.5 6.75 23.25 4.5 21.05 2.25 17.85 2.25 14.7 2.25 12.45 4.5 10.2 6.75 10.2 9.9 10.2 12.2 11.6 14.25 8.4 16.25 5.95 18.05 2.25 20.7 2.3 21.5 2.4 22.65 3.25 23.7 4.15 24.95 5.15 24.95 L5.4 24.9 Q6.2 24.7 9.25 21.05 L13.45 16.15 Q15.55 17.55 17.85 17.55 21.05 17.55 23.25 15.3 M22.65 9.9 Q22.65 11.9 21.25 13.25 19.85 14.65 17.85 14.65 15.9 14.65 14.5 13.25 13.1 11.9 13.1 9.9 13.1 7.9 14.5 6.5 15.9 5.15 17.85 5.15 19.85 5.15 21.25 6.5 22.65 7.9 22.65 9.9 M20.6 12.65 Q21.75 11.5 21.75 9.9 21.75 8.3 20.6 7.15 19.5 6.05 17.85 6.05 16.3 6.05 15.1 7.15 14.0 8.3 14.0 9.9 14.0 11.5 15.1 12.65 16.3 13.75 17.85 13.75 19.5 13.75 20.6 12.65 M26.4 9.9 Q26.4 13.45 23.9 15.95 21.4 18.45 17.85 18.45 15.6 18.45 13.65 17.3 L12.0 19.25 7.85 24.05 Q6.35 25.55 5.65 25.75 L5.15 25.85 Q3.8 25.85 2.6 24.35 1.55 23.05 1.4 21.6 1.35 20.75 2.7 19.5 4.7 17.65 10.35 13.95 9.3 12.1 9.3 9.9 9.3 6.4 11.85 3.85 14.35 1.35 17.85 1.35 21.4 1.35 23.9 3.85 26.4 6.4 26.4 9.9" fill="#e4a100" fill-rule="evenodd" stroke="none"/>
  </g>
  <defs>
    <linearGradient gradientTransform="matrix(-3.0E-4, -0.0203, -0.047, 7.0E-4, 387.8, 4.45)" gradientUnits="userSpaceOnUse" id="gradient0" spreadMethod="pad" x1="-819.2" x2="819.2">
      <stop offset="0.0" stop-color="#ab5000"/>
      <stop offset="0.5294117647058824" stop-color="#8f3800"/>
      <stop offset="1.0" stop-color="#ab5c00"/>
    </linearGradient>
  </defs>
</svg>
