<?xml version="1.0" encoding="UTF-8" standalone="no"?>
<svg xmlns:ffdec="https://www.free-decompiler.com/flash" xmlns:xlink="http://www.w3.org/1999/xlink" ffdec:objectType="shape" height="369.0px" width="610.65px" xmlns="http://www.w3.org/2000/svg">
  <g transform="matrix(1.0, 0.0, 0.0, 1.0, 0.5, -4.6)">
    <path d="M418.5 5.1 L605.65 5.1 Q606.95 5.1 607.8 6.0 608.7 6.85 608.7 8.05 L608.7 370.15 Q608.7 371.35 607.8 372.2 606.95 373.1 605.65 373.1 L4.35 373.1 Q3.1 373.1 2.25 372.2 1.35 371.35 1.35 370.15 L1.35 8.05 Q1.35 6.85 2.25 6.0 3.1 5.1 4.35 5.1 L185.4 5.1 185.4 55.1 418.5 55.1 418.5 5.1" fill="url(#gradient0)" fill-rule="evenodd" stroke="none"/>
    <path d="M185.4 5.1 L4.35 5.1 Q3.1 5.1 2.25 6.0 1.35 6.85 1.35 8.05 L1.35 370.15 Q1.35 371.35 2.25 372.2 3.1 373.1 4.35 373.1 L605.65 373.1 Q606.95 373.1 607.8 372.2 608.7 371.35 608.7 370.15 L608.7 8.05 Q608.7 6.85 607.8 6.0 606.95 5.1 605.65 5.1 L418.5 5.1" fill="none" stroke="#0068ff" stroke-linecap="butt" stroke-linejoin="miter-clip" stroke-miterlimit="4.0" stroke-width="1.0"/>
    <path d="M609.05 85.2 Q609.05 86.45 608.15 87.3 607.3 88.2 606.05 88.2 L4.4 88.2 Q3.1 88.2 2.25 87.3 1.35 86.45 1.35 85.2 L1.35 63.6 Q1.35 62.35 2.25 61.5 3.1 60.6 4.4 60.6 L606.05 60.6 Q607.3 60.6 608.15 61.5 609.05 62.35 609.05 63.6 L609.05 85.2" fill="#042370" fill-rule="evenodd" stroke="none"/>
    <path d="M609.05 85.2 Q609.05 86.45 608.15 87.3 607.3 88.2 606.05 88.2 L4.4 88.2 Q3.1 88.2 2.25 87.3 1.35 86.45 1.35 85.2 L1.35 63.6 Q1.35 62.35 2.25 61.5 3.1 60.6 4.4 60.6 L606.05 60.6 Q607.3 60.6 608.15 61.5 609.05 62.35 609.05 63.6 L609.05 85.2 Z" fill="none" stroke="#2565f4" stroke-linecap="butt" stroke-linejoin="miter-clip" stroke-miterlimit="4.0" stroke-width="1.0"/>
    <path d="M269.55 29.7 L395.65 29.7 Q396.85 29.7 398.25 29.0 399.6 28.3 400.3 27.3 L414.8 7.5 Q415.5 6.5 416.9 5.8 418.25 5.1 419.5 5.1 L606.7 5.1 Q607.95 5.1 608.75 6.0 609.65 6.85 609.65 8.1 L609.65 55.0 Q609.65 56.25 608.75 57.1 607.95 58.0 606.7 58.0 L269.55 58.0 269.55 29.7" fill="url(#gradient1)" fill-rule="evenodd" stroke="none"/>
    <path d="M269.55 58.0 L2.95 58.0 Q1.7 58.0 0.9 57.1 0.0 56.25 0.0 55.0 L0.0 8.1 Q0.0 6.85 0.9 6.0 1.7 5.1 2.95 5.1 L190.15 5.1 Q191.4 5.1 192.75 5.8 194.15 6.5 194.85 7.5 L209.35 27.3 Q210.05 28.3 211.4 29.0 212.8 29.7 214.0 29.7 L269.55 29.7 269.55 58.0" fill="url(#gradient2)" fill-rule="evenodd" stroke="none"/>
    <path d="M269.55 29.7 L395.65 29.7 Q396.85 29.7 398.25 29.0 399.6 28.3 400.3 27.3 L414.8 7.5 Q415.5 6.5 416.9 5.8 418.25 5.1 419.5 5.1 L606.7 5.1 Q607.95 5.1 608.75 6.0 609.65 6.85 609.65 8.1 L609.65 55.0 Q609.65 56.25 608.75 57.1 607.95 58.0 606.7 58.0 L269.55 58.0 2.95 58.0 Q1.7 58.0 0.9 57.1 0.0 56.25 0.0 55.0 L0.0 8.1 Q0.0 6.85 0.9 6.0 1.7 5.1 2.95 5.1 L190.15 5.1 Q191.4 5.1 192.75 5.8 194.15 6.5 194.85 7.5 L209.35 27.3 Q210.05 28.3 211.4 29.0 212.8 29.7 214.0 29.7 L269.55 29.7 Z" fill="none" stroke="#0068ff" stroke-linecap="butt" stroke-linejoin="miter-clip" stroke-miterlimit="4.0" stroke-width="1.0"/>
  </g>
  <defs>
    <linearGradient gradientTransform="matrix(0.0, -0.2246, -0.228, 0.0, 305.0, 189.1)" gradientUnits="userSpaceOnUse" id="gradient0" spreadMethod="pad" x1="-819.2" x2="819.2">
      <stop offset="0.0" stop-color="#05307a"/>
      <stop offset="0.023529411764705882" stop-color="#042c73"/>
      <stop offset="0.11764705882352941" stop-color="#03215d"/>
      <stop offset="0.22745098039215686" stop-color="#02184b"/>
      <stop offset="0.3607843137254902" stop-color="#01123f"/>
      <stop offset="0.5450980392156862" stop-color="#000e38"/>
      <stop offset="1.0" stop-color="#000d36"/>
    </linearGradient>
    <linearGradient gradientTransform="matrix(0.0, -0.0323, -0.0314, 0.0, 304.95, 31.55)" gradientUnits="userSpaceOnUse" id="gradient1" spreadMethod="pad" x1="-819.2" x2="819.2">
      <stop offset="0.0" stop-color="#000a40"/>
      <stop offset="0.47058823529411764" stop-color="#000b42"/>
      <stop offset="0.6627450980392157" stop-color="#011049"/>
      <stop offset="0.8" stop-color="#021955"/>
      <stop offset="0.9137254901960784" stop-color="#032566"/>
      <stop offset="1.0" stop-color="#05337a"/>
    </linearGradient>
    <linearGradient gradientTransform="matrix(0.0, -0.0323, 0.0314, 0.0, 304.7, 31.55)" gradientUnits="userSpaceOnUse" id="gradient2" spreadMethod="pad" x1="-819.2" x2="819.2">
      <stop offset="0.0" stop-color="#000a40"/>
      <stop offset="0.47058823529411764" stop-color="#000b42"/>
      <stop offset="0.6627450980392157" stop-color="#011049"/>
      <stop offset="0.8" stop-color="#021955"/>
      <stop offset="0.9137254901960784" stop-color="#032566"/>
      <stop offset="1.0" stop-color="#05337a"/>
    </linearGradient>
  </defs>
</svg>
