<?xml version="1.0" encoding="UTF-8" standalone="no"?>
<svg xmlns:ffdec="https://www.free-decompiler.com/flash" xmlns:xlink="http://www.w3.org/1999/xlink" ffdec:objectType="shape" height="294.45px" width="609.3px" xmlns="http://www.w3.org/2000/svg">
  <g transform="matrix(1.0, 0.0, 0.0, 1.0, -0.55, -32.8)">
    <path d="M379.85 35.3 L379.85 51.85 Q379.85 52.7 379.25 53.25 378.7 53.85 377.85 53.85 L231.1 53.85 Q230.3 53.85 229.7 53.25 229.1 52.7 229.1 51.85 L229.1 35.3 Q229.1 34.5 229.7 33.9 230.3 33.3 231.1 33.3 L377.85 33.3 Q378.7 33.3 379.25 33.9 379.85 34.5 379.85 35.3" fill="#020b44" fill-rule="evenodd" stroke="none"/>
    <path d="M379.85 35.3 L379.85 51.85 Q379.85 52.7 379.25 53.25 378.7 53.85 377.85 53.85 L231.1 53.85 Q230.3 53.85 229.7 53.25 229.1 52.7 229.1 51.85 L229.1 35.3 Q229.1 34.5 229.7 33.9 230.3 33.3 231.1 33.3 L377.85 33.3 Q378.7 33.3 379.25 33.9 379.85 34.5 379.85 35.3 Z" fill="none" stroke="#075bd6" stroke-linecap="butt" stroke-linejoin="miter-clip" stroke-miterlimit="4.0" stroke-width="1.0"/>
    <path d="M609.3 327.25 L0.55 327.25 0.55 326.25 609.3 326.25 609.3 327.25" fill="#4083cd" fill-rule="evenodd" stroke="none"/>
    <path d="M609.85 232.25 L1.1 232.25 1.1 231.25 609.85 231.25 609.85 232.25" fill="#4083cd" fill-rule="evenodd" stroke="none"/>
    <path d="M609.85 279.25 L1.1 279.25 1.1 278.25 609.85 278.25 609.85 279.25" fill="#4083cd" fill-rule="evenodd" stroke="none"/>
    <path d="M609.85 137.75 L1.1 137.75 1.1 136.75 609.85 136.75 609.85 137.75" fill="#4083cd" fill-rule="evenodd" stroke="none"/>
    <path d="M609.85 185.25 L1.1 185.25 1.1 184.25 609.85 184.25 609.85 185.25" fill="#4083cd" fill-rule="evenodd" stroke="none"/>
  </g>
</svg>
