<?xml version="1.0" encoding="UTF-8" standalone="no"?>
<svg xmlns:ffdec="https://www.free-decompiler.com/flash" xmlns:xlink="http://www.w3.org/1999/xlink" ffdec:objectType="shape" height="25.9px" width="53.85px" xmlns="http://www.w3.org/2000/svg">
  <g transform="matrix(1.0, 0.0, 0.0, 1.0, 7.65, 0.0)">
    <path d="M44.8 4.0 Q44.8 2.75 43.6 1.9 42.4 1.0 40.7 1.0 L-2.15 1.0 Q-3.9 1.0 -5.0 1.9 -6.3 2.75 -6.3 4.0 L-6.3 21.9 Q-6.3 23.15 -5.0 24.0 -3.9 24.9 -2.15 24.9 L40.7 24.9 Q42.4 24.9 43.6 24.0 44.8 23.15 44.8 21.9 L44.8 4.0 M45.6 2.15 Q46.2 2.95 46.2 4.0 L46.2 21.9 Q46.2 22.95 45.6 23.8 L44.6 24.75 Q43.0 25.9 40.7 25.9 L-2.15 25.9 Q-4.4 25.9 -6.0 24.75 -7.65 23.55 -7.65 21.9 L-7.65 4.0 Q-7.65 2.35 -6.0 1.2 -4.4 0.0 -2.15 0.0 L40.7 0.0 Q43.0 0.0 44.6 1.2 45.2 1.65 45.6 2.15" fill="#399cff" fill-rule="evenodd" stroke="none"/>
    <path d="M44.8 4.0 L44.8 21.9 Q44.8 23.15 43.6 24.0 42.4 24.9 40.7 24.9 L-2.15 24.9 Q-3.9 24.9 -5.0 24.0 -6.3 23.15 -6.3 21.9 L-6.3 4.0 Q-6.3 2.75 -5.0 1.9 -3.9 1.0 -2.15 1.0 L40.7 1.0 Q42.4 1.0 43.6 1.9 44.8 2.75 44.8 4.0" fill="#042d7f" fill-rule="evenodd" stroke="none"/>
  </g>
</svg>
