<?xml version="1.0" encoding="UTF-8" standalone="no"?>
<svg xmlns:ffdec="https://www.free-decompiler.com/flash" xmlns:xlink="http://www.w3.org/1999/xlink" ffdec:objectType="shape" height="23.35px" width="23.35px" xmlns="http://www.w3.org/2000/svg">
  <g transform="matrix(1.0, 0.0, 0.0, 1.0, 0.0, 0.0)">
    <path d="M23.1 11.7 Q23.1 12.55 22.65 13.0 L13.0 22.65 Q12.55 23.1 11.7 23.1 10.85 23.1 10.35 22.65 L0.75 13.0 Q0.25 12.55 0.25 11.7 0.25 10.8 0.75 10.35 L10.35 0.7 Q10.85 0.25 11.7 0.25 12.55 0.25 13.0 0.7 L22.65 10.35 Q23.1 10.8 23.1 11.7" fill="#038dff" fill-rule="evenodd" stroke="none"/>
    <path d="M23.1 11.7 Q23.1 12.55 22.65 13.0 L13.0 22.65 Q12.55 23.1 11.7 23.1 10.85 23.1 10.35 22.65 L0.75 13.0 Q0.25 12.55 0.25 11.7 0.25 10.8 0.75 10.35 L10.35 0.7 Q10.85 0.25 11.7 0.25 12.55 0.25 13.0 0.7 L22.65 10.35 Q23.1 10.8 23.1 11.7 Z" ffdec:has-small-stroke="true" ffdec:original-stroke-width="0.5" fill="none" stroke="#0086ff" stroke-linecap="butt" stroke-linejoin="miter-clip" stroke-miterlimit="4.0" stroke-width="1.0"/>
    <path d="M22.25 11.7 L22.0 12.3 12.35 22.0 11.7 22.25 11.05 22.0 1.35 12.3 1.15 11.65 1.35 11.05 11.05 1.35 11.7 1.15 12.35 1.35 22.0 11.05 22.25 11.7" fill="#231815" fill-rule="evenodd" stroke="none"/>
    <path d="M20.85 11.35 L21.0 11.7 20.85 12.0 12.05 21.0 11.7 21.15 11.35 21.0 2.55 12.0 Q2.4 11.95 2.4 11.65 2.4 11.45 2.55 11.35 L11.35 2.3 11.35 2.35 Q11.7 2.0 12.05 2.35 L20.85 11.35" fill="#038dff" fill-rule="evenodd" stroke="none"/>
    <path d="M20.85 11.35 L12.05 2.35 Q11.7 2.0 11.35 2.35 L11.35 2.3 2.55 11.35 Q2.4 11.45 2.4 11.65 2.4 11.95 2.55 12.0 L11.35 21.0 11.7 21.15 12.05 21.0 20.85 12.0 21.0 11.7 20.85 11.35 Z" ffdec:has-small-stroke="true" ffdec:original-stroke-width="0.5" fill="none" stroke="#0086ff" stroke-linecap="butt" stroke-linejoin="miter-clip" stroke-miterlimit="4.0" stroke-width="1.0"/>
    <path d="M12.0 20.9 Q11.7 21.25 11.35 20.9 11.05 20.6 11.35 20.3 11.7 19.95 12.0 20.3 L12.15 20.6 12.0 20.9" fill="url(#gradient0)" fill-rule="evenodd" stroke="none"/>
    <path d="M11.4 20.9 Q11.2 20.6 11.4 20.3 11.7 20.05 11.95 20.3 12.2 20.6 11.95 20.9 11.7 21.2 11.4 20.9" fill="url(#gradient1)" fill-rule="evenodd" stroke="none"/>
    <path d="M11.9 20.4 L11.9 20.45 11.8 20.55 11.8 20.6 11.9 20.7 11.9 20.75 11.85 20.8 11.8 20.8 11.7 20.7 11.65 20.7 11.55 20.8 11.5 20.8 11.5 20.7 11.6 20.6 11.6 20.55 11.5 20.45 11.5 20.4 11.55 20.4 11.65 20.5 11.7 20.5 11.8 20.4 11.85 20.4 11.9 20.4" fill="url(#gradient2)" fill-rule="evenodd" stroke="none"/>
    <path d="M12.0 3.1 Q11.7 3.45 11.35 3.1 11.05 2.8 11.35 2.45 11.7 2.15 12.0 2.45 12.35 2.8 12.0 3.1" fill="url(#gradient3)" fill-rule="evenodd" stroke="none"/>
    <path d="M11.4 3.05 Q11.15 2.8 11.4 2.5 11.7 2.25 11.95 2.5 12.25 2.8 11.95 3.05 11.7 3.35 11.4 3.05" fill="url(#gradient4)" fill-rule="evenodd" stroke="none"/>
    <path d="M11.9 2.6 L11.9 2.65 11.8 2.75 11.8 2.8 11.9 2.9 11.9 2.95 11.85 2.95 11.8 2.95 11.7 2.85 11.65 2.85 11.55 2.95 11.5 2.95 11.5 2.9 11.6 2.8 11.6 2.75 11.5 2.65 11.5 2.55 11.55 2.55 11.65 2.65 11.7 2.65 11.8 2.55 11.85 2.55 11.9 2.6" fill="url(#gradient5)" fill-rule="evenodd" stroke="none"/>
  </g>
  <defs>
    <radialGradient cx="0" cy="0" gradientTransform="matrix(0.0012, 0.0, 0.0, -0.0012, 11.3, 20.1)" gradientUnits="userSpaceOnUse" id="gradient0" r="819.2" spreadMethod="pad">
      <stop offset="0.0" stop-color="#d79300"/>
      <stop offset="0.4470588235294118" stop-color="#e29b00"/>
      <stop offset="1.0" stop-color="#f5a900"/>
    </radialGradient>
    <radialGradient cx="0" cy="0" fx="28.8" fy="0" gradientTransform="matrix(0.0, -7.0E-4, -7.0E-4, 0.0, 11.7, 20.65)" gradientUnits="userSpaceOnUse" id="gradient1" r="819.2" spreadMethod="pad">
      <stop offset="0.0" stop-color="#ffffff"/>
      <stop offset="0.5372549019607843" stop-color="#b5b5b6"/>
      <stop offset="1.0" stop-color="#281e1c"/>
    </radialGradient>
    <radialGradient cx="0" cy="0" gradientTransform="matrix(4.0E-4, 4.0E-4, 4.0E-4, -4.0E-4, 11.8, 19.95)" gradientUnits="userSpaceOnUse" id="gradient2" r="819.2" spreadMethod="pad">
      <stop offset="0.0" stop-color="#d2d2d3"/>
      <stop offset="0.08235294117647059" stop-color="#b9b7b8"/>
      <stop offset="0.24705882352941178" stop-color="#8b8786"/>
      <stop offset="0.4117647058823529" stop-color="#665f5e"/>
      <stop offset="0.5725490196078431" stop-color="#49403e"/>
      <stop offset="0.7254901960784313" stop-color="#342a27"/>
      <stop offset="0.8705882352941177" stop-color="#271d1a"/>
      <stop offset="1.0" stop-color="#231815"/>
    </radialGradient>
    <radialGradient cx="0" cy="0" gradientTransform="matrix(0.0012, 0.0, 0.0, -0.0012, 11.9, 3.05)" gradientUnits="userSpaceOnUse" id="gradient3" r="819.2" spreadMethod="pad">
      <stop offset="0.0" stop-color="#d79300"/>
      <stop offset="0.4470588235294118" stop-color="#e29b00"/>
      <stop offset="1.0" stop-color="#f5a900"/>
    </radialGradient>
    <radialGradient cx="0" cy="0" fx="28.8" fy="0" gradientTransform="matrix(0.0, -7.0E-4, -7.0E-4, 0.0, 11.7, 2.85)" gradientUnits="userSpaceOnUse" id="gradient4" r="819.2" spreadMethod="pad">
      <stop offset="0.0" stop-color="#ffffff"/>
      <stop offset="0.5372549019607843" stop-color="#b5b5b6"/>
      <stop offset="1.0" stop-color="#281e1c"/>
    </radialGradient>
    <radialGradient cx="0" cy="0" gradientTransform="matrix(4.0E-4, 4.0E-4, 4.0E-4, -4.0E-4, 11.8, 2.15)" gradientUnits="userSpaceOnUse" id="gradient5" r="819.2" spreadMethod="pad">
      <stop offset="0.0" stop-color="#d2d2d3"/>
      <stop offset="0.08235294117647059" stop-color="#b9b7b8"/>
      <stop offset="0.24705882352941178" stop-color="#8b8786"/>
      <stop offset="0.4117647058823529" stop-color="#665f5e"/>
      <stop offset="0.5725490196078431" stop-color="#49403e"/>
      <stop offset="0.7254901960784313" stop-color="#342a27"/>
      <stop offset="0.8705882352941177" stop-color="#271d1a"/>
      <stop offset="1.0" stop-color="#231815"/>
    </radialGradient>
  </defs>
</svg>
