<?xml version="1.0" encoding="UTF-8" standalone="no"?>
<svg xmlns:ffdec="https://www.free-decompiler.com/flash" xmlns:xlink="http://www.w3.org/1999/xlink" ffdec:objectType="shape" height="25.9px" width="53.9px" xmlns="http://www.w3.org/2000/svg">
  <g transform="matrix(1.0, 0.0, 0.0, 1.0, 7.65, 0.0)">
    <path d="M45.0 4.0 L45.0 21.9 Q45.0 23.35 43.65 24.35 42.2 25.4 40.2 25.4 L-2.1 25.4 Q-4.1 25.4 -5.55 24.35 -6.9 23.35 -6.9 21.9 L-6.9 4.0 Q-6.9 2.55 -5.55 1.5 -4.1 0.5 -2.1 0.5 L40.2 0.5 Q42.2 0.5 43.65 1.5 45.0 2.55 45.0 4.0" fill="url(#gradient0)" fill-rule="evenodd" stroke="none"/>
    <path d="M-5.95 1.2 Q-4.35 0.0 -2.1 0.0 L40.7 0.0 Q42.95 0.0 44.65 1.2 46.25 2.35 46.25 4.0 L46.25 21.9 Q46.25 23.55 44.65 24.75 42.95 25.9 40.7 25.9 L-2.1 25.9 Q-4.35 25.9 -5.95 24.75 -7.65 23.55 -7.65 21.9 L-7.65 4.0 Q-7.65 2.35 -5.95 1.2 M-2.1 1.0 Q-3.8 1.0 -5.0 1.9 -6.25 2.75 -6.25 4.0 L-6.25 21.9 Q-6.25 23.15 -5.0 24.0 -3.8 24.9 -2.1 24.9 L40.7 24.9 Q42.4 24.9 43.6 24.0 44.85 23.15 44.85 21.9 L44.85 4.0 Q44.85 2.75 43.6 1.9 42.4 1.0 40.7 1.0 L-2.1 1.0" fill="#399cff" fill-rule="evenodd" stroke="none"/>
  </g>
  <defs>
    <linearGradient gradientTransform="matrix(0.0, -0.0152, -0.0208, 0.0, 19.0, 12.95)" gradientUnits="userSpaceOnUse" id="gradient0" spreadMethod="pad" x1="-819.2" x2="819.2">
      <stop offset="0.0" stop-color="#004bc2"/>
      <stop offset="0.7647058823529411" stop-color="#003498"/>
      <stop offset="1.0" stop-color="#0057d9"/>
    </linearGradient>
  </defs>
</svg>
