<?xml version="1.0" encoding="UTF-8" standalone="no"?>
<svg xmlns:ffdec="https://www.free-decompiler.com/flash" xmlns:xlink="http://www.w3.org/1999/xlink" ffdec:objectType="shape" height="23.3px" width="48.45px" xmlns="http://www.w3.org/2000/svg">
  <g transform="matrix(1.0, 0.0, 0.0, 1.0, 4.9, -1.3)">
    <path d="M42.45 4.9 L42.45 21.0 Q42.45 22.3 41.2 23.2 39.95 24.15 38.15 24.15 L0.05 24.15 Q-1.75 24.15 -3.05 23.2 -4.3 22.3 -4.3 21.0 L-4.3 4.9 Q-4.3 3.6 -3.05 2.65 -1.75 1.75 0.05 1.75 L38.15 1.75 Q39.95 1.75 41.2 2.65 42.45 3.6 42.45 4.9" fill="url(#gradient0)" fill-rule="evenodd" stroke="none"/>
    <path d="M-2.55 3.0 Q-3.65 3.75 -3.65 4.9 L-3.65 21.0 Q-3.65 22.1 -2.55 22.9 -1.5 23.7 0.1 23.7 L38.55 23.7 Q40.15 23.7 41.2 22.9 42.3 22.1 42.3 21.0 L42.3 4.9 Q42.3 3.75 41.2 3.0 40.15 2.2 38.55 2.2 L0.1 2.2 Q-1.5 2.2 -2.55 3.0 M-3.4 2.35 Q-2.0 1.3 0.1 1.3 L38.55 1.3 Q40.65 1.3 42.1 2.35 43.55 3.4 43.55 4.9 L43.55 21.0 Q43.55 22.45 42.1 23.55 40.65 24.6 38.55 24.6 L0.1 24.6 Q-2.0 24.6 -3.4 23.55 -4.9 22.45 -4.9 21.0 L-4.9 4.9 Q-4.9 3.4 -3.4 2.35" fill="#399cff" fill-rule="evenodd" stroke="none"/>
  </g>
  <defs>
    <linearGradient gradientTransform="matrix(0.0, -0.0137, -0.0188, 0.0, 19.05, 12.95)" gradientUnits="userSpaceOnUse" id="gradient0" spreadMethod="pad" x1="-819.2" x2="819.2">
      <stop offset="0.0" stop-color="#004bc2"/>
      <stop offset="0.7647058823529411" stop-color="#003498"/>
      <stop offset="1.0" stop-color="#0057d9"/>
    </linearGradient>
  </defs>
</svg>
