<?xml version="1.0" encoding="UTF-8" standalone="no"?>
<svg xmlns:ffdec="https://www.free-decompiler.com/flash" xmlns:xlink="http://www.w3.org/1999/xlink" ffdec:objectType="shape" height="125.5px" width="264.85px" xmlns="http://www.w3.org/2000/svg">
  <g transform="matrix(1.0, 0.0, 0.0, 1.0, 132.2, 62.8)">
    <path d="M-44.0 -53.9 Q-43.1 -53.25 -41.5 -52.75 L-38.8 -52.3 128.65 -52.3 Q130.1 -52.3 131.15 -51.25 132.15 -50.25 132.15 -48.8 L132.15 58.7 Q132.15 60.15 131.15 61.15 130.1 62.2 128.65 62.2 L-128.2 62.2 Q-129.65 62.2 -130.7 61.15 -131.7 60.15 -131.7 58.7 L-131.7 -58.8 Q-131.7 -60.25 -130.7 -61.25 -129.65 -62.3 -128.2 -62.3 L-59.45 -62.3 -56.5 -61.75 Q-54.8 -61.25 -53.7 -60.5 L-44.0 -53.9" fill="url(#gradient0)" fill-rule="evenodd" stroke="none"/>
    <path d="M-44.3 -53.5 L-54.0 -60.1 Q-55.0 -60.8 -56.6 -61.3 L-59.45 -61.8 -128.2 -61.8 Q-129.45 -61.8 -130.3 -60.9 -131.2 -60.05 -131.2 -58.8 L-131.2 58.7 Q-131.2 59.95 -130.3 60.8 -129.45 61.7 -128.2 61.7 L128.65 61.7 Q129.9 61.7 130.75 60.8 131.65 59.95 131.65 58.7 L131.65 -48.8 Q131.65 -50.05 130.75 -50.9 129.9 -51.8 128.65 -51.8 L-38.8 -51.8 Q-40.05 -51.8 -41.65 -52.3 -43.25 -52.8 -44.3 -53.5 M-59.45 -62.8 L-56.3 -62.25 Q-54.6 -61.7 -53.45 -60.9 L-43.7 -54.3 Q-42.8 -53.7 -41.35 -53.25 L-38.8 -52.8 128.65 -52.8 Q130.3 -52.8 131.5 -51.6 132.65 -50.45 132.65 -48.8 L132.65 58.7 Q132.65 60.35 131.5 61.55 130.3 62.7 128.65 62.7 L-128.2 62.7 Q-129.85 62.7 -131.0 61.55 -132.2 60.35 -132.2 58.7 L-132.2 -58.8 Q-132.2 -60.45 -131.0 -61.6 -129.85 -62.8 -128.2 -62.8 L-59.45 -62.8" fill="#0068ff" fill-rule="evenodd" stroke="none"/>
    <path d="M-129.35 59.3 L-126.15 59.3 -126.15 59.8 -129.85 59.8 -129.85 -60.15 -57.65 -60.15 -42.6 -50.2 130.1 -50.2 130.1 59.8 127.15 59.8 127.15 59.3 129.6 59.3 129.6 -49.7 -42.6 -49.7 -57.7 -59.65 -129.35 -59.65 -129.35 59.3" fill="#1456c1" fill-rule="evenodd" stroke="none"/>
    <path d="M-117.5 -36.25 L117.95 -36.25 Q120.0 -36.25 121.5 -34.8 122.95 -33.3 122.95 -31.25 L122.95 19.15 Q122.95 21.2 121.5 22.7 120.0 24.15 117.95 24.15 L-117.5 24.15 Q-119.55 24.15 -121.05 22.7 -122.5 21.2 -122.5 19.15 L-122.5 -31.25 Q-122.5 -33.3 -121.05 -34.8 -119.55 -36.25 -117.5 -36.25" fill="#000d38" fill-rule="evenodd" stroke="none"/>
  </g>
  <defs>
    <linearGradient gradientTransform="matrix(0.0, -0.076, -0.076, 0.0, 0.2, -0.05)" gradientUnits="userSpaceOnUse" id="gradient0" spreadMethod="pad" x1="-819.2" x2="819.2">
      <stop offset="0.0" stop-color="#05337a"/>
      <stop offset="0.17647058823529413" stop-color="#032970"/>
      <stop offset="0.4627450980392157" stop-color="#012168"/>
      <stop offset="1.0" stop-color="#001f66"/>
    </linearGradient>
  </defs>
</svg>
