<?xml version="1.0" encoding="UTF-8" standalone="no"?>
<svg xmlns:ffdec="https://www.free-decompiler.com/flash" xmlns:xlink="http://www.w3.org/1999/xlink" ffdec:objectType="shape" height="15.1px" width="17.5px" xmlns="http://www.w3.org/2000/svg">
  <g transform="matrix(1.0, 0.0, 0.0, 1.0, 0.0, 0.0)">
    <path d="M16.6 11.95 L17.5 12.85 Q17.5 14.35 15.85 14.95 L14.85 14.25 Q16.0 13.55 16.6 11.95" fill="#185cf8" fill-rule="evenodd" stroke="none"/>
    <path d="M14.85 14.25 L14.25 15.05 Q11.6 15.35 10.05 14.05 12.0 13.65 12.85 12.15 L2.3 4.9 Q1.0 2.9 0.0 0.0 L5.65 1.1 14.1 9.9 Q15.45 8.85 15.55 7.0 16.8 8.4 17.3 11.05 L17.25 11.1 17.25 11.15 16.6 11.95 Q16.0 13.55 14.85 14.25" fill="url(#gradient0)" fill-rule="evenodd" stroke="none"/>
  </g>
  <defs>
    <linearGradient gradientTransform="matrix(0.0146, 0.0115, 0.0073, -0.0093, 40.65, -27.95)" gradientUnits="userSpaceOnUse" id="gradient0" spreadMethod="pad" x1="-819.2" x2="819.2">
      <stop offset="0.0" stop-color="#70f0fa"/>
      <stop offset="0.023529411764705882" stop-color="#6eebfa"/>
      <stop offset="0.1568627450980392" stop-color="#66cffa"/>
      <stop offset="0.29411764705882354" stop-color="#60bbfa"/>
      <stop offset="0.43137254901960786" stop-color="#5caffa"/>
      <stop offset="0.5686274509803921" stop-color="#5babfa"/>
      <stop offset="0.6" stop-color="#579efa"/>
      <stop offset="0.6549019607843137" stop-color="#518bfa"/>
      <stop offset="0.7215686274509804" stop-color="#4d7ffa"/>
      <stop offset="0.8117647058823529" stop-color="#4b77fa"/>
      <stop offset="1.0" stop-color="#4a75fa"/>
    </linearGradient>
  </defs>
</svg>
