<?xml version="1.0" encoding="UTF-8" standalone="no"?>
<svg xmlns:ffdec="https://www.free-decompiler.com/flash" xmlns:xlink="http://www.w3.org/1999/xlink" ffdec:objectType="shape" height="58.1px" width="639.0px" xmlns="http://www.w3.org/2000/svg">
  <g transform="matrix(1.0, 0.0, 0.0, 1.0, 317.3, 167.5)">
    <path d="M318.7 -167.5 Q319.95 -167.5 320.8 -166.6 321.7 -165.75 321.7 -164.5 L321.7 -112.4 Q321.7 -111.15 320.8 -110.3 319.95 -109.4 318.7 -109.4 L-314.3 -109.4 Q-315.55 -109.4 -316.4 -110.3 -317.3 -111.15 -317.3 -112.4 L-317.3 -164.5 Q-317.3 -165.75 -316.4 -166.6 -315.55 -167.5 -314.3 -167.5 L-93.35 -167.5 -90.7 -167.1 Q-89.3 -166.75 -88.55 -166.2 -87.8 -165.65 -86.4 -165.25 L-83.75 -164.85 87.05 -164.85 89.75 -165.25 Q91.25 -165.65 92.05 -166.2 92.9 -166.75 94.4 -167.1 L97.1 -167.5 318.7 -167.5" fill="#0c0f21" fill-rule="evenodd" stroke="none"/>
  </g>
</svg>
