<?xml version="1.0" encoding="UTF-8" standalone="no"?>
<svg xmlns:ffdec="https://www.free-decompiler.com/flash" xmlns:xlink="http://www.w3.org/1999/xlink" ffdec:objectType="shape" height="48.2px" width="100.0px" xmlns="http://www.w3.org/2000/svg">
  <g transform="matrix(1.0, 0.0, 0.0, 1.0, 0.0, 0.0)">
    <path d="M98.95 7.05 L98.95 41.3 Q98.95 43.65 97.65 45.35 96.25 47.05 94.35 47.05 L5.6 47.05 Q3.7 47.05 2.3 45.35 0.95 43.65 0.95 41.3 L0.95 7.05 Q0.95 4.7 2.3 3.0 3.7 1.3 5.6 1.3 L94.35 1.3 Q96.25 1.3 97.65 3.0 98.95 4.7 98.95 7.05" fill="#020d26" fill-rule="evenodd" stroke="none"/>
    <path d="M98.35 7.05 Q98.35 5.0 97.2 3.5 96.0 2.05 94.35 2.05 L5.6 2.05 Q3.95 2.05 2.7 3.5 1.55 5.0 1.55 7.05 L1.55 41.3 Q1.55 43.35 2.7 44.85 3.95 46.3 5.6 46.3 L94.35 46.3 Q96.0 46.3 97.2 44.85 98.35 43.35 98.35 41.3 L98.35 7.05 M94.35 0.55 Q96.5 0.55 98.05 2.45 99.6 4.35 99.6 7.05 L99.6 41.3 Q99.6 44.0 98.05 45.9 96.5 47.8 94.35 47.8 L5.6 47.8 Q3.45 47.8 1.9 45.9 0.35 44.0 0.35 41.3 L0.35 7.05 Q0.35 4.35 1.9 2.45 3.45 0.55 5.6 0.55 L94.35 0.55" fill="#1c4b84" fill-rule="evenodd" stroke="none"/>
    <path d="M94.95 9.6 L94.95 38.45 Q94.95 40.05 94.05 41.1 93.2 42.2 91.9 42.2 L8.05 42.2 Q6.8 42.2 5.9 41.1 5.0 40.05 5.0 38.45 L5.0 9.6 Q5.0 8.05 5.9 6.95 6.8 5.85 8.05 5.85 L91.9 5.85 Q93.15 5.85 94.05 6.95 94.95 8.05 94.95 9.6" fill="url(#gradient0)" fill-rule="evenodd" stroke="none"/>
    <path d="M94.35 9.6 Q94.35 8.35 93.6 7.5 92.9 6.6 91.9 6.6 L8.05 6.6 Q7.05 6.6 6.35 7.5 5.65 8.35 5.65 9.6 L5.65 38.45 Q5.65 39.7 6.35 40.55 7.05 41.45 8.05 41.45 L91.9 41.45 Q92.9 41.45 93.6 40.55 94.35 39.7 94.35 38.45 L94.35 9.6 M91.9 5.1 Q93.4 5.1 94.5 6.45 95.55 7.75 95.55 9.6 L95.55 38.45 Q95.55 40.35 94.5 41.65 93.45 42.95 91.9 42.95 L8.05 42.95 Q6.55 42.95 5.45 41.65 4.4 40.35 4.4 38.45 L4.4 9.6 Q4.4 7.75 5.45 6.45 6.55 5.1 8.05 5.1 L91.9 5.1" fill="#2ca8e8" fill-rule="evenodd" stroke="none"/>
    <path d="M90.15 10.0 L9.8 38.4 Q8.85 38.75 8.15 38.1 7.5 37.45 7.5 36.2 L7.5 12.15 Q7.5 10.9 8.2 10.05 8.9 9.15 9.9 9.15 L90.05 9.15 Q91.05 9.15 91.05 9.4 L90.15 10.0" fill="url(#gradient1)" fill-rule="evenodd" stroke="none"/>
    <path d="M1.55 5.6 L1.55 11.85 0.0 11.85 0.0 4.45 4.0 0.0 9.55 0.0 9.55 1.9 4.65 1.9 1.55 5.6" fill="#69bfff" fill-rule="evenodd" stroke="none"/>
    <path d="M1.55 42.6 L4.65 46.3 9.55 46.3 9.55 48.2 4.0 48.2 0.0 43.8 0.0 36.4 1.55 36.4 1.55 42.6" fill="#69bfff" fill-rule="evenodd" stroke="none"/>
    <path d="M98.5 5.6 L95.4 1.9 90.5 1.9 90.5 0.0 96.05 0.0 100.0 4.45 100.0 11.85 98.5 11.85 98.5 5.6" fill="#69bfff" fill-rule="evenodd" stroke="none"/>
    <path d="M98.5 42.6 L98.5 36.4 100.0 36.4 100.0 43.8 96.05 48.2 90.5 48.2 90.5 46.3 95.4 46.3 98.5 42.6" fill="#69bfff" fill-rule="evenodd" stroke="none"/>
  </g>
  <defs>
    <linearGradient gradientTransform="matrix(0.0549, 0.0, 0.0, -0.068, 49.95, 24.05)" gradientUnits="userSpaceOnUse" id="gradient0" spreadMethod="pad" x1="-819.2" x2="819.2">
      <stop offset="0.0" stop-color="#0057ab"/>
      <stop offset="0.5294117647058824" stop-color="#003d87"/>
      <stop offset="1.0" stop-color="#0063c2"/>
    </linearGradient>
    <linearGradient gradientTransform="matrix(0.0071, 0.0217, 0.0145, -0.0073, 44.75, 11.7)" gradientUnits="userSpaceOnUse" id="gradient1" spreadMethod="pad" x1="-819.2" x2="819.2">
      <stop offset="0.0" stop-color="#c2c2b3"/>
      <stop offset="0.043137254901960784" stop-color="#9ba5ae" stop-opacity="0.8"/>
      <stop offset="0.09411764705882353" stop-color="#7789aa" stop-opacity="0.6117647"/>
      <stop offset="0.14901960784313725" stop-color="#5770a6" stop-opacity="0.44313726"/>
      <stop offset="0.21176470588235294" stop-color="#3b5ba3" stop-opacity="0.30588236"/>
      <stop offset="0.2823529411764706" stop-color="#254ba0" stop-opacity="0.19215687"/>
      <stop offset="0.36470588235294116" stop-color="#143e9e" stop-opacity="0.101960786"/>
      <stop offset="0.4627450980392157" stop-color="#09359d" stop-opacity="0.043137256"/>
      <stop offset="0.6078431372549019" stop-color="#022f9c" stop-opacity="0.007843138"/>
      <stop offset="1.0" stop-color="#002e9c" stop-opacity="0.0"/>
    </linearGradient>
  </defs>
</svg>
