<?xml version="1.0" encoding="UTF-8" standalone="no"?>
<svg xmlns:ffdec="https://www.free-decompiler.com/flash" xmlns:xlink="http://www.w3.org/1999/xlink" ffdec:objectType="shape" height="125.5px" width="264.85px" xmlns="http://www.w3.org/2000/svg">
  <g transform="matrix(1.0, 0.0, 0.0, 1.0, 132.3, 62.8)">
    <path d="M-44.1 -53.9 Q-43.2 -53.25 -41.6 -52.75 L-38.9 -52.3 128.55 -52.3 Q130.0 -52.3 131.05 -51.25 132.05 -50.25 132.05 -48.8 L132.05 58.7 Q132.05 60.15 131.05 61.15 130.0 62.2 128.55 62.2 L-128.3 62.2 Q-129.75 62.2 -130.8 61.15 -131.8 60.15 -131.8 58.7 L-131.8 -58.8 Q-131.8 -60.25 -130.8 -61.25 -129.75 -62.3 -128.3 -62.3 L-59.55 -62.3 -56.6 -61.75 -53.8 -60.5 -44.1 -53.9" fill="url(#gradient0)" fill-rule="evenodd" stroke="none"/>
    <path d="M-44.4 -53.5 L-54.1 -60.1 Q-55.1 -60.8 -56.7 -61.3 L-59.55 -61.8 -128.3 -61.8 Q-129.55 -61.8 -130.4 -60.9 -131.3 -60.05 -131.3 -58.8 L-131.3 58.7 Q-131.3 59.95 -130.4 60.8 -129.55 61.7 -128.3 61.7 L128.55 61.7 Q129.8 61.7 130.65 60.8 131.55 59.95 131.55 58.7 L131.55 -48.8 Q131.55 -50.05 130.65 -50.9 129.8 -51.8 128.55 -51.8 L-38.9 -51.8 -41.75 -52.3 Q-43.35 -52.8 -44.4 -53.5 M-59.55 -62.8 L-56.4 -62.25 Q-54.7 -61.7 -53.55 -60.9 L-43.8 -54.3 Q-42.9 -53.7 -41.45 -53.25 L-38.9 -52.8 128.55 -52.8 Q130.2 -52.8 131.4 -51.6 132.55 -50.45 132.55 -48.8 L132.55 58.7 Q132.55 60.35 131.4 61.55 130.2 62.7 128.55 62.7 L-128.3 62.7 Q-129.95 62.7 -131.1 61.55 -132.3 60.35 -132.3 58.7 L-132.3 -58.8 Q-132.3 -60.45 -131.1 -61.6 -129.95 -62.8 -128.3 -62.8 L-59.55 -62.8" fill="#0068ff" fill-rule="evenodd" stroke="none"/>
    <path d="M-129.45 59.3 L-126.25 59.3 -126.25 59.8 -129.95 59.8 -129.95 -60.15 -57.75 -60.15 -42.7 -50.2 130.0 -50.2 130.0 59.8 127.05 59.8 127.05 59.3 129.5 59.3 129.5 -49.7 -42.7 -49.7 -57.8 -59.65 -129.45 -59.65 -129.45 59.3" fill="#1456c1" fill-rule="evenodd" stroke="none"/>
    <path d="M-117.6 -36.25 L117.85 -36.25 Q119.9 -36.25 121.4 -34.8 122.85 -33.3 122.85 -31.25 L122.85 19.15 Q122.85 21.2 121.4 22.7 119.9 24.15 117.85 24.15 L-117.6 24.15 Q-119.65 24.15 -121.15 22.7 -122.6 21.2 -122.6 19.15 L-122.6 -31.25 Q-122.6 -33.3 -121.15 -34.8 -119.65 -36.25 -117.6 -36.25" fill="#000d38" fill-rule="evenodd" stroke="none"/>
  </g>
  <defs>
    <linearGradient gradientTransform="matrix(0.0, -0.076, -0.076, 0.0, 0.1, -0.05)" gradientUnits="userSpaceOnUse" id="gradient0" spreadMethod="pad" x1="-819.2" x2="819.2">
      <stop offset="0.0" stop-color="#05337a"/>
      <stop offset="0.17647058823529413" stop-color="#032970"/>
      <stop offset="0.4627450980392157" stop-color="#012168"/>
      <stop offset="1.0" stop-color="#001f66"/>
    </linearGradient>
  </defs>
</svg>
