<?xml version="1.0" encoding="UTF-8" standalone="no"?>
<svg xmlns:ffdec="https://www.free-decompiler.com/flash" xmlns:xlink="http://www.w3.org/1999/xlink" ffdec:objectType="shape" height="22.5px" width="139.0px" xmlns="http://www.w3.org/2000/svg">
  <g transform="matrix(1.0, 0.0, 0.0, 1.0, 70.3, 13.5)">
    <path d="M-66.3 -13.0 L64.7 -13.0 Q66.15 -13.0 67.2 -12.0 68.2 -10.95 68.2 -9.5 L68.2 5.0 Q68.2 6.45 67.2 7.5 66.15 8.5 64.7 8.5 L-66.3 8.5 Q-67.75 8.5 -68.75 7.5 -69.8 6.45 -69.8 5.0 L-69.8 -9.5 Q-69.8 -10.95 -68.75 -12.0 -67.75 -13.0 -66.3 -13.0" fill="#001556" fill-rule="evenodd" stroke="none"/>
    <path d="M-70.3 -9.5 Q-70.3 -11.15 -69.1 -12.3 -67.95 -13.5 -66.3 -13.5 L64.7 -13.5 Q66.35 -13.5 67.55 -12.3 68.7 -11.15 68.7 -9.5 L68.7 5.0 Q68.7 6.65 67.55 7.85 66.35 9.0 64.7 9.0 L-66.3 9.0 Q-67.95 9.0 -69.1 7.85 -70.3 6.65 -70.3 5.0 L-70.3 -9.5 M-66.3 -12.5 Q-67.55 -12.5 -68.4 -11.6 -69.3 -10.75 -69.3 -9.5 L-69.3 5.0 Q-69.3 6.25 -68.4 7.1 -67.55 8.0 -66.3 8.0 L64.7 8.0 Q65.95 8.0 66.8 7.1 67.7 6.25 67.7 5.0 L67.7 -9.5 Q67.7 -10.75 66.8 -11.6 65.95 -12.5 64.7 -12.5 L-66.3 -12.5" fill="#023ca3" fill-rule="evenodd" stroke="none"/>
  </g>
</svg>
