<?xml version="1.0" encoding="UTF-8" standalone="no"?>
<svg xmlns:ffdec="https://www.free-decompiler.com/flash" xmlns:xlink="http://www.w3.org/1999/xlink" ffdec:objectType="shape" height="48.2px" width="100.0px" xmlns="http://www.w3.org/2000/svg">
  <g transform="matrix(1.0, 0.0, 0.0, 1.0, 0.0, 0.0)">
    <path d="M98.95 7.05 L98.95 41.3 Q98.95 43.7 97.55 45.4 96.2 47.05 94.3 47.05 L5.6 47.05 Q3.65 47.05 2.3 45.4 0.95 43.7 0.95 41.3 L0.95 7.05 Q0.95 4.7 2.3 3.0 3.65 1.3 5.6 1.3 L94.3 1.3 Q96.2 1.3 97.55 3.0 98.95 4.7 98.95 7.05" fill="#020d26" fill-rule="evenodd" stroke="none"/>
    <path d="M98.35 7.05 Q98.35 5.0 97.15 3.5 95.95 2.05 94.3 2.05 L5.6 2.05 Q3.95 2.05 2.7 3.5 1.55 5.0 1.55 7.05 L1.55 41.3 Q1.55 43.35 2.7 44.85 3.95 46.3 5.6 46.3 L94.3 46.3 Q95.95 46.3 97.15 44.85 98.35 43.35 98.35 41.3 L98.35 7.05 M94.3 0.55 Q96.45 0.55 98.0 2.45 99.55 4.4 99.55 7.05 L99.55 41.3 Q99.55 44.0 98.0 45.9 96.45 47.8 94.3 47.8 L5.6 47.8 Q3.4 47.8 1.85 45.9 0.35 44.0 0.35 41.3 L0.35 7.05 Q0.35 4.4 1.85 2.45 3.4 0.55 5.6 0.55 L94.3 0.55" fill="#1c4b84" fill-rule="evenodd" stroke="none"/>
    <path d="M94.85 9.65 L94.85 38.45 Q94.85 40.05 93.95 41.1 93.15 42.2 91.85 42.2 L8.0 42.2 Q6.75 42.2 5.85 41.1 5.0 40.0 5.0 38.45 L5.0 9.65 Q5.0 8.1 5.85 7.0 6.75 5.9 8.0 5.9 L91.85 5.9 Q93.15 5.9 93.95 7.0 94.85 8.1 94.85 9.65" fill="url(#gradient0)" fill-rule="evenodd" stroke="none"/>
    <path d="M94.25 9.65 Q94.25 8.4 93.55 7.55 92.85 6.65 91.85 6.65 L8.0 6.65 Q7.0 6.65 6.3 7.55 5.6 8.4 5.6 9.65 L5.6 38.45 Q5.6 39.7 6.3 40.55 7.0 41.45 8.0 41.45 L91.85 41.45 Q92.85 41.45 93.55 40.55 94.25 39.7 94.25 38.45 L94.25 9.65 M91.85 5.15 Q93.35 5.15 94.4 6.45 95.45 7.8 95.45 9.65 L95.45 38.45 Q95.45 40.35 94.4 41.65 93.35 42.95 91.85 42.95 L8.0 42.95 Q6.5 42.95 5.4 41.65 4.35 40.35 4.35 38.45 L4.35 9.65 Q4.35 7.8 5.4 6.45 6.5 5.15 8.0 5.15 L91.85 5.15" fill="#57ccef" fill-rule="evenodd" stroke="none"/>
    <path d="M90.05 10.0 L9.8 38.4 Q8.8 38.75 8.1 38.1 7.45 37.5 7.45 36.25 L7.45 12.2 Q7.45 10.95 8.15 10.1 8.85 9.2 9.85 9.2 L90.0 9.2 Q91.0 9.2 91.0 9.45 L90.05 10.0" fill="url(#gradient1)" fill-rule="evenodd" stroke="none"/>
    <path d="M1.5 5.65 L1.5 11.85 0.0 11.85 0.0 4.45 3.95 0.0 9.55 0.0 9.55 1.95 4.6 1.95 1.5 5.65" fill="#69bfff" fill-rule="evenodd" stroke="none"/>
    <path d="M1.5 42.6 L4.6 46.3 9.55 46.3 9.55 48.2 3.95 48.2 0.0 43.8 0.0 36.4 1.5 36.4 1.5 42.6" fill="#69bfff" fill-rule="evenodd" stroke="none"/>
    <path d="M98.4 5.65 L95.35 1.95 90.4 1.95 90.4 0.0 96.0 0.0 100.0 4.45 100.0 11.85 98.4 11.85 98.4 5.65" fill="#69bfff" fill-rule="evenodd" stroke="none"/>
    <path d="M98.4 42.6 L98.4 36.4 100.0 36.4 100.0 43.8 96.0 48.2 90.4 48.2 90.4 46.3 95.35 46.3 98.4 42.6" fill="#69bfff" fill-rule="evenodd" stroke="none"/>
  </g>
  <defs>
    <radialGradient cx="0" cy="0" gradientTransform="matrix(0.0782, 0.0, 0.0, -0.0242, 50.95, 37.85)" gradientUnits="userSpaceOnUse" id="gradient0" r="819.2" spreadMethod="pad">
      <stop offset="0.0" stop-color="#33b5bf"/>
      <stop offset="0.14901960784313725" stop-color="#32afc3"/>
      <stop offset="0.34901960784313724" stop-color="#309ece"/>
      <stop offset="0.5764705882352941" stop-color="#2c82e1"/>
      <stop offset="0.7411764705882353" stop-color="#2969f2"/>
      <stop offset="0.7568627450980392" stop-color="#2767ee"/>
      <stop offset="0.9137254901960784" stop-color="#1459ce"/>
      <stop offset="1.0" stop-color="#0d54c2"/>
    </radialGradient>
    <linearGradient gradientTransform="matrix(0.0071, 0.0217, 0.0145, -0.0073, 44.75, 11.7)" gradientUnits="userSpaceOnUse" id="gradient1" spreadMethod="pad" x1="-819.2" x2="819.2">
      <stop offset="0.0" stop-color="#c2c2b3"/>
      <stop offset="0.043137254901960784" stop-color="#9b9fa2" stop-opacity="0.8"/>
      <stop offset="0.09411764705882353" stop-color="#777e92" stop-opacity="0.6117647"/>
      <stop offset="0.14901960784313725" stop-color="#576184" stop-opacity="0.44313726"/>
      <stop offset="0.21176470588235294" stop-color="#3b4878" stop-opacity="0.30588236"/>
      <stop offset="0.2823529411764706" stop-color="#25346e" stop-opacity="0.19215687"/>
      <stop offset="0.36470588235294116" stop-color="#142567" stop-opacity="0.101960786"/>
      <stop offset="0.4627450980392157" stop-color="#091a62" stop-opacity="0.043137256"/>
      <stop offset="0.6078431372549019" stop-color="#02145f" stop-opacity="0.007843138"/>
      <stop offset="1.0" stop-color="#00125e" stop-opacity="0.0"/>
    </linearGradient>
  </defs>
</svg>
