<?xml version="1.0" encoding="UTF-8" standalone="no"?>
<svg xmlns:ffdec="https://www.free-decompiler.com/flash" xmlns:xlink="http://www.w3.org/1999/xlink" ffdec:objectType="shape" height="325.9px" width="569.75px" xmlns="http://www.w3.org/2000/svg">
  <g transform="matrix(1.0, 0.0, 0.0, 1.0, 0.0, 1.95)">
    <path d="M553.0 146.55 L553.0 147.25 552.95 147.25 553.0 146.55" fill="url(#gradient0)" fill-rule="evenodd" stroke="none"/>
    <path d="M553.0 146.55 L553.0 59.2 Q553.0 57.95 553.6 56.45 554.2 54.9 555.0 54.0 L559.35 49.1 Q560.2 48.2 560.8 48.45 561.4 48.65 561.4 49.9 578.15 173.4 561.4 298.9 561.4 300.15 560.75 300.4 560.1 300.7 559.2 299.85 L555.2 296.1 Q554.3 295.3 553.65 293.8 553.0 292.3 553.0 291.05 L553.0 147.25 553.0 146.55" fill="url(#gradient1)" fill-rule="evenodd" stroke="none"/>
    <path d="M560.95 25.0 Q563.0 25.0 564.2 26.45 565.35 27.9 564.9 29.9 L562.05 43.2 560.6 47.95 558.7 52.55 557.25 55.3 Q556.3 57.15 555.65 59.9 554.95 62.7 554.95 64.75 L554.95 282.6 Q554.95 284.65 555.85 287.1 556.7 289.5 557.95 290.85 559.2 292.2 560.45 294.6 561.65 296.95 562.15 298.95 L564.8 310.05 Q565.3 312.05 564.15 313.45 563.0 314.9 560.95 314.9 L432.4 314.9 Q430.35 314.9 427.95 316.05 425.6 317.25 424.35 318.85 L423.45 320.0 Q422.2 321.6 419.85 322.8 417.45 323.95 415.4 323.95 L294.55 323.95 Q292.5 323.95 291.0 322.5 289.55 321.0 289.55 318.95 L289.55 262.95 Q289.55 260.9 290.25 258.55 291.0 256.2 292.0 254.95 293.05 253.7 293.8 251.35 294.5 249.05 294.5 246.95 L294.5 80.6 Q294.5 78.55 293.8 76.2 293.05 73.85 292.0 72.6 291.0 71.4 290.25 69.05 289.55 66.7 289.55 64.65 L289.55 30.0 Q289.55 27.95 291.0 26.45 292.5 25.0 294.55 25.0 L560.95 25.0" fill="url(#gradient2)" fill-rule="evenodd" stroke="none"/>
    <path d="M305.9 46.25 L542.1 46.25 Q544.15 46.25 545.65 47.7 547.1 49.2 547.1 51.25 L547.1 272.15 Q547.1 274.2 546.1 276.75 545.05 279.3 543.65 280.8 L529.4 295.9 Q528.0 297.4 525.5 298.45 523.0 299.5 520.95 299.5 L326.7 299.5 Q324.65 299.5 322.15 298.5 319.6 297.45 318.15 296.0 L304.45 282.45 Q303.0 281.0 301.95 278.5 300.9 275.95 300.9 273.9 L300.9 51.25 Q300.9 49.2 302.35 47.7 303.85 46.25 305.9 46.25" fill="url(#gradient3)" fill-rule="evenodd" stroke="none"/>
    <path d="M310.9 51.25 L537.1 51.25 Q539.15 51.25 540.65 52.7 542.1 54.2 542.1 56.25 L542.1 288.35 Q542.1 290.4 540.65 291.9 539.15 293.35 537.1 293.35 L310.9 293.35 Q308.85 293.35 307.35 291.9 305.9 290.4 305.9 288.35 L305.9 56.25 Q305.9 54.2 307.35 52.7 308.85 51.25 310.9 51.25" fill="#161719" fill-rule="evenodd" stroke="none"/>
    <path d="M541.6 266.15 L547.95 272.5 548.2 272.8 548.2 293.15 540.85 300.5 519.95 300.5 519.65 300.25 512.5 293.05 537.45 293.1 541.6 288.95 541.6 266.15 M547.2 273.2 L542.6 268.6 542.6 289.35 537.85 294.1 514.9 294.1 520.35 299.5 540.4 299.5 547.2 292.7 547.2 273.2" fill="#181919" fill-rule="evenodd" stroke="none"/>
    <path d="M547.2 273.2 L547.2 292.7 540.4 299.5 520.35 299.5 514.9 294.1 537.85 294.1 542.6 289.35 542.6 268.6 547.2 273.2" fill="#717272" fill-rule="evenodd" stroke="none"/>
    <path d="M332.9 294.1 L309.95 294.1 305.2 289.35 305.2 268.6 300.6 273.2 300.6 292.7 307.4 299.5 327.45 299.5 332.9 294.1 Z" fill="none" stroke="#181919" stroke-linecap="butt" stroke-linejoin="miter-clip" stroke-miterlimit="4.0" stroke-width="2.0"/>
    <path d="M332.9 294.1 L327.45 299.5 307.4 299.5 300.6 292.7 300.6 273.2 305.2 268.6 305.2 289.35 309.95 294.1 332.9 294.1" fill="#717272" fill-rule="evenodd" stroke="none"/>
    <path d="M381.2 46.75 L385.15 42.8 470.45 42.8 474.4 46.75 381.2 46.75" fill="#333333" fill-rule="evenodd" stroke="none"/>
    <path d="M29.3 84.5 L34.9 90.1 34.9 235.2 29.3 240.85 13.9 240.85 8.3 235.2 8.3 90.1 13.9 84.5 29.3 84.5" fill="url(#gradient4)" fill-rule="evenodd" stroke="none"/>
    <path d="M29.3 84.5 L34.9 90.1 34.9 235.2 29.3 240.85 13.9 240.85 8.3 235.2 8.3 90.1 13.9 84.5 29.3 84.5 Z" fill="none" stroke="#00a1ff" stroke-linecap="butt" stroke-linejoin="miter-clip" stroke-miterlimit="4.0" stroke-width="2.0"/>
    <path d="M31.35 81.25 L38.45 88.35 38.45 93.85 4.9 93.85 4.9 88.35 12.0 81.25 31.35 81.25" fill="url(#gradient5)" fill-rule="evenodd" stroke="none"/>
    <path d="M15.35 75.8 L27.9 75.8 27.9 81.35 15.35 81.35 15.35 75.8" fill="url(#gradient6)" fill-rule="evenodd" stroke="none"/>
    <path d="M4.95 93.9 L4.95 88.35 38.25 88.35 38.25 93.9 4.95 93.9" fill="url(#gradient7)" fill-rule="evenodd" stroke="none"/>
    <path d="M4.9 233.05 L38.45 233.05 38.45 238.5 31.35 245.6 12.0 245.6 4.9 238.5 4.9 233.05" fill="url(#gradient8)" fill-rule="evenodd" stroke="none"/>
    <path d="M4.95 232.95 L38.25 232.95 38.25 238.5 4.95 238.5 4.95 232.95" fill="url(#gradient9)" fill-rule="evenodd" stroke="none"/>
    <path d="M16.6 245.6 L26.3 245.6 26.3 249.3 Q26.3 251.3 24.9 252.7 23.45 254.15 21.45 254.15 19.45 254.15 18.0 252.7 16.6 251.3 16.6 249.3 L16.6 245.6" fill="url(#gradient10)" fill-rule="evenodd" stroke="none"/>
    <path d="M16.6 247.15 L16.6 245.6 26.3 245.6 26.3 247.15 16.6 247.15" fill="url(#gradient11)" fill-rule="evenodd" stroke="none"/>
    <path d="M0.45 135.7 Q0.9 134.05 1.55 132.95 L2.05 132.1 Q2.7 131.0 3.85 130.8 5.0 130.55 6.0 131.3 L21.3 142.55 Q22.3 143.25 23.0 144.65 23.7 146.05 23.7 147.3 L23.7 176.35 Q23.7 177.6 23.0 179.0 22.25 180.4 21.25 181.05 L6.1 191.45 Q5.05 192.15 3.8 191.95 2.55 191.75 1.8 190.75 1.05 189.8 0.55 188.2 0.0 186.65 0.0 185.4 L0.0 138.55 Q0.0 137.3 0.45 135.7" fill="url(#gradient12)" fill-rule="evenodd" stroke="none"/>
    <path d="M20.65 148.05 Q21.35 149.45 21.35 150.7 L21.35 151.25 Q21.35 154.15 20.95 155.15 20.55 156.05 20.55 159.1 L20.55 164.15 Q20.55 167.25 20.95 167.95 21.35 168.85 21.35 171.8 L21.35 172.8 Q21.35 174.05 20.65 175.4 19.9 176.8 18.85 177.5 L7.7 185.15 Q6.7 185.85 5.45 185.75 4.2 185.7 3.45 184.9 2.7 184.1 2.2 182.7 1.65 181.25 1.65 180.0 L1.65 177.4 Q1.65 174.45 2.1 173.0 2.55 171.65 2.55 168.6 L2.55 153.5 Q2.55 150.45 2.1 149.2 1.65 147.85 1.65 144.9 L1.65 143.65 Q1.65 142.4 2.2 140.85 2.7 139.25 3.45 138.25 4.2 137.25 5.45 137.05 6.65 136.9 7.65 137.6 L18.95 145.9 Q19.95 146.65 20.65 148.05" fill="#2b2b2a" fill-rule="evenodd" stroke="none"/>
    <path d="M6.5 141.95 Q5.35 141.95 4.8 142.85 4.3 143.65 4.0 145.1 3.65 146.55 3.65 147.8 L3.65 176.35 Q3.65 177.6 4.0 178.95 4.3 180.25 4.8 180.9 5.25 181.5 6.25 181.5 7.4 181.5 8.45 180.75 L16.65 175.15 Q17.65 174.45 18.4 173.05 19.1 171.7 19.1 170.45 L19.1 153.55 Q19.1 152.3 18.4 150.9 17.7 149.5 16.7 148.75 L8.4 142.65 Q7.45 141.95 6.5 141.95 M19.3 150.45 Q20.1 152.1 20.1 153.55 L20.1 170.45 Q20.1 171.95 19.25 173.55 18.45 175.15 17.2 175.95 L9.05 181.6 Q7.7 182.5 6.25 182.5 4.75 182.5 4.0 181.5 3.4 180.7 3.05 179.25 2.65 177.8 2.65 176.35 L2.65 147.8 Q2.65 146.4 3.0 144.85 3.4 143.25 3.95 142.3 4.75 140.95 6.5 140.95 7.9 140.95 9.0 141.85 L17.3 147.95 Q18.5 148.85 19.3 150.45" fill="#1966d8" fill-rule="evenodd" stroke="none"/>
    <path d="M3.65 147.8 Q3.65 146.55 4.0 145.1 4.3 143.65 4.8 142.85 5.3 142.0 6.35 141.95 7.4 141.9 8.4 142.65 L16.7 148.75 Q17.7 149.5 18.4 150.9 19.1 152.3 19.1 153.55 L19.1 170.45 Q19.1 171.7 18.4 173.05 17.65 174.45 16.65 175.15 L8.45 180.75 Q7.45 181.45 6.35 181.5 5.3 181.55 4.8 180.9 4.3 180.25 4.0 178.95 3.65 177.6 3.65 176.35 L3.65 147.8" fill="#04429b" fill-rule="evenodd" stroke="none"/>
    <path d="M284.3 26.45 Q285.75 27.95 285.75 30.0 L285.75 67.65 Q285.75 69.7 286.5 72.05 287.25 74.4 288.25 75.6 289.3 76.85 290.05 79.2 290.75 81.55 290.75 83.6 L290.75 243.95 Q290.75 246.05 290.05 248.35 289.3 250.7 288.25 251.95 287.25 253.2 286.5 255.55 285.75 257.9 285.75 259.95 L285.75 309.9 Q285.75 311.95 284.3 313.45 282.8 314.9 280.75 314.9 L21.3 314.9 Q19.25 314.9 17.95 313.45 16.65 312.0 16.85 309.95 L21.8 262.95 Q22.05 260.9 22.6 259.0 23.2 257.1 23.8 256.45 24.45 255.85 24.85 253.95 25.3 252.05 25.3 249.95 L25.3 194.3 Q25.3 192.25 25.8 189.8 26.35 187.4 27.05 186.05 27.75 184.7 28.3 182.3 28.8 179.85 28.8 177.8 L28.8 145.95 Q28.8 143.9 28.3 141.45 27.75 139.05 27.05 137.7 26.35 136.4 25.8 133.95 25.3 131.5 25.3 129.45 L25.3 77.6 Q25.3 75.5 24.85 73.65 24.45 71.75 23.8 71.1 23.2 70.5 22.55 68.6 21.9 66.7 21.65 64.65 L17.0 29.95 Q16.7 27.95 17.95 26.45 19.25 25.0 21.3 25.0 L280.75 25.0 Q282.8 25.0 284.3 26.45" fill="url(#gradient13)" fill-rule="evenodd" stroke="none"/>
    <path d="M277.85 51.25 L277.85 272.15 Q277.85 274.25 276.85 276.75 275.85 279.3 274.45 280.8 L260.2 295.9 Q258.8 297.4 256.3 298.45 253.8 299.5 251.75 299.5 L57.5 299.5 Q55.45 299.5 52.95 298.5 50.4 297.45 48.95 296.0 L35.25 282.45 Q33.8 281.0 32.75 278.5 31.7 275.95 31.7 273.9 L31.7 51.25 Q31.7 49.2 33.15 47.7 34.65 46.25 36.7 46.25 L272.85 46.25 Q274.9 46.25 276.4 47.7 277.85 49.2 277.85 51.25" fill="url(#gradient14)" fill-rule="evenodd" stroke="none"/>
    <path d="M272.85 56.25 L272.85 288.35 Q272.85 290.4 271.4 291.9 269.9 293.35 267.85 293.35 L41.7 293.35 Q39.65 293.35 38.15 291.9 36.7 290.4 36.7 288.35 L36.7 56.25 Q36.7 54.2 38.15 52.7 39.65 51.25 41.7 51.25 L267.85 51.25 Q269.9 51.25 271.4 52.7 272.85 54.2 272.85 56.25" fill="#161719" fill-rule="evenodd" stroke="none"/>
    <path d="M272.4 266.15 L279.0 272.8 279.0 293.15 278.7 293.4 271.9 300.25 271.6 300.5 250.75 300.5 250.45 300.25 243.3 293.05 268.25 293.1 272.4 288.95 272.4 266.15 M278.0 273.2 L273.4 268.6 273.4 289.35 268.65 294.1 245.7 294.1 251.15 299.5 271.2 299.5 278.0 292.7 278.0 273.2" fill="#181919" fill-rule="evenodd" stroke="none"/>
    <path d="M278.0 273.2 L278.0 292.7 271.2 299.5 251.15 299.5 245.7 294.1 268.65 294.1 273.4 289.35 273.4 268.6 278.0 273.2" fill="#717272" fill-rule="evenodd" stroke="none"/>
    <path d="M31.4 273.2 L31.4 292.7 38.2 299.5 58.25 299.5 63.7 294.1 40.75 294.1 36.0 289.35 36.0 268.6 31.4 273.2 Z" fill="none" stroke="#181919" stroke-linecap="butt" stroke-linejoin="miter-clip" stroke-miterlimit="4.0" stroke-width="2.0"/>
    <path d="M31.4 273.2 L36.0 268.6 36.0 289.35 40.75 294.1 63.7 294.1 58.25 299.5 38.2 299.5 31.4 292.7 31.4 273.2" fill="#717272" fill-rule="evenodd" stroke="none"/>
    <path d="M107.0 47.25 L110.95 43.3 196.25 43.3 200.2 47.25 107.0 47.25" fill="#333333" fill-rule="evenodd" stroke="none"/>
    <path d="M297.55 102.1 L297.55 150.8 Q297.55 152.05 296.65 152.9 295.8 153.8 294.55 153.8 L288.3 153.8 Q287.05 153.8 286.2 152.9 285.3 152.05 285.3 150.8 L285.3 102.1 Q285.3 100.85 286.2 100.0 287.05 99.1 288.3 99.1 L294.55 99.1 Q295.8 99.1 296.65 100.0 297.55 100.85 297.55 102.1" fill="#010814" fill-rule="evenodd" stroke="none"/>
    <path d="M295.4 102.8 L295.4 150.05 Q295.4 150.9 294.8 151.45 294.25 152.05 293.4 152.05 L289.15 152.05 Q288.35 152.05 287.75 151.45 287.15 150.9 287.15 150.05 L287.15 102.8 Q287.15 102.0 287.75 101.4 288.35 100.8 289.15 100.8 L293.4 100.8 Q294.25 100.8 294.8 101.4 295.4 102.0 295.4 102.8" fill="url(#gradient15)" fill-rule="evenodd" stroke="none"/>
    <path d="M288.15 100.8 L294.4 100.8 Q294.8 100.8 295.1 101.1 L295.4 101.8 295.4 106.7 295.1 107.4 Q294.8 107.7 294.4 107.7 L288.15 107.7 287.45 107.4 Q287.15 107.1 287.15 106.7 L287.15 101.8 Q287.15 101.4 287.45 101.1 287.75 100.8 288.15 100.8" fill="url(#gradient16)" fill-rule="evenodd" stroke="none"/>
    <path d="M295.4 106.6 L287.15 106.6 287.15 101.85 295.4 101.85 295.4 106.6" fill="#363738" fill-rule="evenodd" stroke="none"/>
    <path d="M289.15 106.0 L288.15 106.0 288.15 102.4 289.15 102.4 289.15 106.0" fill="#0c0c0c" fill-rule="evenodd" stroke="none"/>
    <path d="M294.55 106.0 L293.55 106.0 293.55 102.4 294.55 102.4 294.55 106.0" fill="#0c0c0c" fill-rule="evenodd" stroke="none"/>
    <path d="M295.4 111.2 L295.4 112.25 287.15 112.25 287.15 111.2 295.4 111.2" fill="#191919" fill-rule="evenodd" stroke="none"/>
    <path d="M295.4 115.2 L295.4 116.25 287.15 116.25 287.15 115.2 295.4 115.2" fill="#191919" fill-rule="evenodd" stroke="none"/>
    <path d="M295.4 136.15 L295.4 137.2 287.15 137.2 287.15 136.15 295.4 136.15" fill="#191919" fill-rule="evenodd" stroke="none"/>
    <path d="M295.4 140.4 L295.4 141.45 287.15 141.45 287.15 140.4 295.4 140.4" fill="#191919" fill-rule="evenodd" stroke="none"/>
    <path d="M295.4 146.45 L295.4 151.3 295.1 152.0 Q294.8 152.3 294.4 152.3 L288.15 152.3 287.45 152.0 Q287.15 151.7 287.15 151.3 L287.15 146.45 Q287.15 146.05 287.45 145.75 287.75 145.45 288.15 145.45 L294.4 145.45 Q294.8 145.45 295.1 145.75 L295.4 146.45" fill="url(#gradient17)" fill-rule="evenodd" stroke="none"/>
    <path d="M295.4 151.25 L287.15 151.25 287.15 146.5 295.4 146.5 295.4 151.25" fill="#363738" fill-rule="evenodd" stroke="none"/>
    <path d="M289.15 150.65 L288.15 150.65 288.15 147.1 289.15 147.1 289.15 150.65" fill="#0c0c0c" fill-rule="evenodd" stroke="none"/>
    <path d="M294.55 150.65 L293.55 150.65 293.55 147.1 294.55 147.1 294.55 150.65" fill="#0c0c0c" fill-rule="evenodd" stroke="none"/>
    <path d="M297.55 177.1 L297.55 225.75 Q297.55 227.0 296.65 227.85 295.8 228.75 294.55 228.75 L288.3 228.75 Q287.05 228.75 286.2 227.85 285.3 227.0 285.3 225.75 L285.3 177.1 Q285.3 175.85 286.2 175.0 287.05 174.1 288.3 174.1 L294.55 174.1 Q295.8 174.1 296.65 175.0 297.55 175.85 297.55 177.1" fill="#010814" fill-rule="evenodd" stroke="none"/>
    <path d="M295.4 177.8 L295.4 225.05 Q295.4 225.9 294.8 226.45 294.25 227.05 293.4 227.05 L289.15 227.05 Q288.35 227.05 287.75 226.45 287.15 225.9 287.15 225.05 L287.15 177.8 Q287.15 177.0 287.75 176.4 288.35 175.8 289.15 175.8 L293.4 175.8 Q294.25 175.8 294.8 176.4 295.4 177.0 295.4 177.8" fill="url(#gradient18)" fill-rule="evenodd" stroke="none"/>
    <path d="M288.15 175.8 L294.4 175.8 Q294.8 175.8 295.1 176.1 L295.4 176.8 295.4 181.65 295.1 182.35 Q294.8 182.65 294.4 182.65 L288.15 182.65 287.45 182.35 Q287.15 182.05 287.15 181.65 L287.15 176.8 Q287.15 176.4 287.45 176.1 287.75 175.8 288.15 175.8" fill="url(#gradient19)" fill-rule="evenodd" stroke="none"/>
    <path d="M295.4 181.55 L287.15 181.55 287.15 176.8 295.4 176.8 295.4 181.55" fill="#363738" fill-rule="evenodd" stroke="none"/>
    <path d="M289.15 180.95 L288.15 180.95 288.15 177.4 289.15 177.4 289.15 180.95" fill="#0c0c0c" fill-rule="evenodd" stroke="none"/>
    <path d="M294.55 180.95 L293.55 180.95 293.55 177.4 294.55 177.4 294.55 180.95" fill="#0c0c0c" fill-rule="evenodd" stroke="none"/>
    <path d="M295.4 186.15 L295.4 187.2 287.15 187.2 287.15 186.15 295.4 186.15" fill="#191919" fill-rule="evenodd" stroke="none"/>
    <path d="M295.4 190.15 L295.4 191.2 287.15 191.2 287.15 190.15 295.4 190.15" fill="#191919" fill-rule="evenodd" stroke="none"/>
    <path d="M295.4 211.1 L295.4 212.15 287.15 212.15 287.15 211.1 295.4 211.1" fill="#191919" fill-rule="evenodd" stroke="none"/>
    <path d="M295.4 215.35 L295.4 216.4 287.15 216.4 287.15 215.35 295.4 215.35" fill="#191919" fill-rule="evenodd" stroke="none"/>
    <path d="M295.4 221.4 L295.4 226.3 295.1 227.0 Q294.8 227.3 294.4 227.3 L288.15 227.3 287.45 227.0 Q287.15 226.7 287.15 226.3 L287.15 221.4 Q287.15 221.0 287.45 220.7 287.75 220.4 288.15 220.4 L294.4 220.4 Q294.8 220.4 295.1 220.7 L295.4 221.4" fill="url(#gradient20)" fill-rule="evenodd" stroke="none"/>
    <path d="M295.4 226.2 L287.15 226.2 287.15 221.45 295.4 221.45 295.4 226.2" fill="#363738" fill-rule="evenodd" stroke="none"/>
    <path d="M289.15 225.65 L288.15 225.65 288.15 222.05 289.15 222.05 289.15 225.65" fill="#0c0c0c" fill-rule="evenodd" stroke="none"/>
    <path d="M294.55 225.65 L293.55 225.65 293.55 222.05 294.55 222.05 294.55 225.65" fill="#0c0c0c" fill-rule="evenodd" stroke="none"/>
    <path d="M380.9 31.5 L376.0 27.1 Q375.1 26.3 375.35 25.7 375.55 25.1 376.8 25.1 L477.8 25.1 Q479.05 25.1 479.25 25.7 479.5 26.35 478.6 27.2 L474.15 31.45 Q473.25 32.3 471.7 32.9 470.2 33.5 468.95 33.5 L453.15 33.5 Q451.95 33.5 450.7 34.0 449.5 34.45 449.05 35.1 448.55 35.8 447.35 36.25 L444.9 36.75 408.75 36.75 406.3 36.25 Q405.05 35.8 404.55 35.1 404.05 34.45 402.85 34.0 401.6 33.5 400.35 33.5 L386.1 33.5 Q384.85 33.5 383.35 32.9 381.8 32.35 380.9 31.5" fill="#333333" fill-rule="evenodd" stroke="none"/>
    <path d="M451.9 -1.95 Q453.25 -1.95 454.95 -1.35 456.7 -0.75 457.75 0.1 L459.1 1.2 Q460.2 2.0 460.45 3.45 460.75 4.85 460.05 6.05 L447.25 29.1 Q446.6 30.3 445.2 31.1 443.75 31.95 442.4 31.95 L411.1 31.95 Q409.75 31.95 408.35 31.05 406.9 30.25 406.3 29.05 L394.45 6.1 Q393.85 4.9 394.1 3.4 394.3 1.85 395.3 0.9 L395.8 0.4 Q396.75 -0.6 398.4 -1.25 L401.4 -1.95 451.9 -1.95" fill="url(#gradient21)" fill-rule="evenodd" stroke="none"/>
    <path d="M449.4 1.1 Q451.0 1.75 451.95 2.75 L452.55 3.3 Q453.45 4.2 453.7 5.75 453.9 7.2 453.25 8.4 L443.65 25.7 Q443.0 26.9 441.5 27.75 440.1 28.6 438.75 28.6 L438.25 28.6 Q434.95 28.6 434.0 28.0 432.9 27.4 429.7 27.4 L424.35 27.4 Q421.05 27.4 420.1 28.0 L418.55 28.45 416.0 28.6 415.0 28.6 Q413.65 28.6 412.2 27.75 410.8 26.85 410.2 25.65 L401.3 8.45 Q400.7 7.25 400.85 5.7 400.95 4.05 401.85 3.0 L401.9 2.95 Q402.7 1.9 404.3 1.2 405.85 0.45 407.2 0.45 L409.9 0.45 Q413.25 0.45 414.7 1.1 L419.45 1.75 435.8 1.75 Q438.9 1.75 440.45 1.1 441.75 0.45 445.1 0.45 L446.4 0.45 Q447.75 0.45 449.4 1.1" fill="#2b2b2a" fill-rule="evenodd" stroke="none"/>
    <path d="M413.25 23.45 L405.5 8.55 Q405.05 7.75 405.2 6.7 405.4 5.7 406.05 5.1 L406.3 4.8 408.05 3.7 Q409.2 3.2 410.1 3.2 L443.0 3.2 445.0 3.65 Q446.15 4.05 446.85 4.6 L447.7 5.25 Q448.4 5.8 448.6 6.75 448.8 7.75 448.35 8.5 L440.05 23.45 438.65 24.85 Q437.7 25.4 436.75 25.4 L416.4 25.4 Q415.55 25.4 414.6 24.85 413.7 24.25 413.25 23.45" fill="#113ebc" fill-rule="evenodd" stroke="none"/>
    <path d="M445.0 3.65 L443.0 3.2 410.1 3.2 Q409.2 3.2 408.05 3.7 L406.3 4.8 406.05 5.1 Q405.4 5.7 405.2 6.7 405.05 7.75 405.5 8.55 L413.25 23.45 Q413.7 24.25 414.6 24.85 415.55 25.4 416.4 25.4 L436.75 25.4 Q437.7 25.4 438.65 24.85 L440.05 23.45 448.35 8.5 Q448.8 7.75 448.6 6.75 448.4 5.8 447.7 5.25 L446.85 4.6 Q446.15 4.05 445.0 3.65 Z" fill="none" stroke="#03133f" stroke-linecap="butt" stroke-linejoin="miter-clip" stroke-miterlimit="4.0" stroke-width="1.0"/>
    <path d="M382.15 31.55 L385.4 31.8 Q387.8 30.4 394.85 28.1 396.8 27.5 395.65 25.4 394.55 23.35 392.0 24.15 383.25 27.1 379.7 30.1 379.4 30.9 382.15 31.55" fill="url(#gradient22)" fill-rule="evenodd" stroke="none"/>
    <path d="M472.5 31.55 L469.25 31.8 Q466.85 30.4 459.8 28.1 457.85 27.5 459.0 25.4 460.1 23.35 462.65 24.15 471.4 27.1 474.95 30.1 475.25 30.9 472.5 31.55" fill="url(#gradient23)" fill-rule="evenodd" stroke="none"/>
    <path d="M459.8 14.2 L462.3 15.75 463.6 20.9 458.3 29.75 453.15 31.1 450.65 29.6 459.8 14.2" fill="url(#gradient24)" fill-rule="evenodd" stroke="none"/>
    <path d="M465.2 23.85 L461.8 29.65 459.25 28.15 462.6 22.4 465.2 23.85" fill="#333333" fill-rule="evenodd" stroke="none"/>
    <path d="M393.95 14.2 L391.45 15.75 390.15 20.9 395.45 29.75 400.6 31.1 403.15 29.6 393.95 14.2" fill="url(#gradient25)" fill-rule="evenodd" stroke="none"/>
    <path d="M388.55 23.85 L391.95 29.65 394.5 28.15 391.15 22.4 388.55 23.85" fill="#333333" fill-rule="evenodd" stroke="none"/>
    <path d="M107.4 31.5 L102.5 27.1 Q101.6 26.3 101.85 25.7 102.05 25.1 103.3 25.1 L204.3 25.1 Q205.55 25.1 205.75 25.7 206.0 26.35 205.1 27.2 L200.65 31.45 198.2 32.9 Q196.7 33.5 195.45 33.5 L179.65 33.5 Q178.45 33.5 177.2 34.0 176.0 34.45 175.55 35.1 L173.85 36.25 171.4 36.75 135.25 36.75 132.8 36.25 Q131.55 35.8 131.05 35.1 130.55 34.45 129.35 34.0 128.1 33.5 126.85 33.5 L112.6 33.5 Q111.35 33.5 109.85 32.9 L107.4 31.5" fill="#333333" fill-rule="evenodd" stroke="none"/>
    <path d="M178.4 -1.95 L181.45 -1.35 Q183.2 -0.75 184.25 0.1 L185.6 1.2 Q186.7 2.0 186.95 3.45 187.25 4.85 186.55 6.05 L173.75 29.1 Q173.1 30.3 171.7 31.1 170.25 31.95 168.9 31.95 L137.6 31.95 Q136.25 31.95 134.85 31.05 133.4 30.25 132.8 29.05 L120.95 6.1 Q120.35 4.9 120.6 3.4 120.8 1.85 121.8 0.9 L122.3 0.4 Q123.25 -0.6 124.9 -1.25 126.55 -1.95 127.9 -1.95 L178.4 -1.95" fill="url(#gradient26)" fill-rule="evenodd" stroke="none"/>
    <path d="M175.9 1.1 Q177.5 1.75 178.45 2.75 L179.05 3.3 Q179.95 4.2 180.2 5.75 180.4 7.2 179.75 8.4 L170.15 25.7 Q169.5 26.9 168.0 27.75 166.6 28.6 165.25 28.6 L164.75 28.6 Q161.45 28.6 160.5 28.0 159.4 27.4 156.2 27.4 L150.85 27.4 Q147.55 27.4 146.6 28.0 L145.05 28.45 142.5 28.6 141.5 28.6 Q140.15 28.6 138.7 27.75 137.3 26.85 136.7 25.65 L127.8 8.45 Q127.2 7.25 127.35 5.7 127.45 4.05 128.35 3.0 L128.4 2.95 Q129.2 1.9 130.8 1.2 132.35 0.45 133.7 0.45 L136.4 0.45 Q139.75 0.45 141.2 1.1 L145.95 1.75 162.3 1.75 166.95 1.1 Q168.25 0.45 171.6 0.45 L172.9 0.45 Q174.25 0.45 175.9 1.1" fill="#2b2b2a" fill-rule="evenodd" stroke="none"/>
    <path d="M139.75 23.45 L132.0 8.55 Q131.55 7.75 131.7 6.7 131.9 5.7 132.55 5.1 L132.8 4.8 Q133.45 4.15 134.55 3.7 135.7 3.2 136.6 3.2 L169.5 3.2 171.5 3.65 Q172.65 4.05 173.35 4.6 L174.2 5.25 Q174.9 5.8 175.1 6.75 175.3 7.75 174.85 8.5 L166.55 23.45 165.15 24.85 Q164.2 25.4 163.25 25.4 L142.9 25.4 Q142.05 25.4 141.1 24.85 140.2 24.25 139.75 23.45" fill="#113ebc" fill-rule="evenodd" stroke="none"/>
    <path d="M169.5 3.2 L136.6 3.2 Q135.7 3.2 134.55 3.7 133.45 4.15 132.8 4.8 L132.55 5.1 Q131.9 5.7 131.7 6.7 131.55 7.75 132.0 8.55 L139.75 23.45 Q140.2 24.25 141.1 24.85 142.05 25.4 142.9 25.4 L163.25 25.4 Q164.2 25.4 165.15 24.85 L166.55 23.45 174.85 8.5 Q175.3 7.75 175.1 6.75 174.9 5.8 174.2 5.25 L173.35 4.6 Q172.65 4.05 171.5 3.65 L169.5 3.2 Z" fill="none" stroke="#03133f" stroke-linecap="butt" stroke-linejoin="miter-clip" stroke-miterlimit="4.0" stroke-width="1.0"/>
    <path d="M108.65 31.55 L111.9 31.8 Q114.3 30.4 121.35 28.1 123.3 27.5 122.15 25.4 121.05 23.35 118.5 24.15 109.75 27.1 106.2 30.1 105.9 30.9 108.65 31.55" fill="url(#gradient27)" fill-rule="evenodd" stroke="none"/>
    <path d="M199.0 31.55 L195.75 31.8 Q193.35 30.4 186.3 28.1 184.35 27.5 185.5 25.4 186.6 23.35 189.15 24.15 197.9 27.1 201.45 30.1 201.75 30.9 199.0 31.55" fill="url(#gradient28)" fill-rule="evenodd" stroke="none"/>
    <path d="M186.3 14.2 L188.8 15.75 190.1 20.9 184.8 29.75 179.65 31.1 177.15 29.6 186.3 14.2" fill="url(#gradient29)" fill-rule="evenodd" stroke="none"/>
    <path d="M191.7 23.85 L188.3 29.65 185.75 28.15 189.1 22.4 191.7 23.85" fill="#333333" fill-rule="evenodd" stroke="none"/>
    <path d="M120.45 14.2 L117.95 15.75 116.65 20.9 121.95 29.75 127.1 31.1 129.65 29.6 120.45 14.2" fill="url(#gradient30)" fill-rule="evenodd" stroke="none"/>
    <path d="M115.05 23.85 L118.45 29.65 121.0 28.15 117.65 22.4 115.05 23.85" fill="#333333" fill-rule="evenodd" stroke="none"/>
    <path d="M154.45 13.05 L162.2 10.45 161.3 19.5 154.3 22.05 154.45 13.05" fill="#094ace" fill-rule="evenodd" stroke="none"/>
    <path d="M153.3 22.05 L146.35 19.2 145.35 10.2 153.45 13.05 153.3 22.05" fill="#0f67f4" fill-rule="evenodd" stroke="none"/>
    <path d="M153.95 12.15 L146.35 9.5 154.05 7.05 161.25 9.75 153.95 12.15" fill="#0d90fc" fill-rule="evenodd" stroke="none"/>
    <path d="M428.0 13.05 L435.75 10.45 434.85 19.5 427.85 22.05 428.0 13.05" fill="#094ace" fill-rule="evenodd" stroke="none"/>
    <path d="M426.85 22.05 L419.9 19.2 418.9 10.2 427.0 13.05 426.85 22.05" fill="#0f67f4" fill-rule="evenodd" stroke="none"/>
    <path d="M427.5 12.15 L419.9 9.5 427.6 7.05 434.8 9.75 427.5 12.15" fill="#0d90fc" fill-rule="evenodd" stroke="none"/>
  </g>
  <defs>
    <linearGradient gradientTransform="matrix(0.0, -0.1484, -0.1484, 0.0, 555.55, 169.95)" gradientUnits="userSpaceOnUse" id="gradient0" spreadMethod="pad" x1="-819.2" x2="819.2">
      <stop offset="0.0" stop-color="#1a171a"/>
      <stop offset="1.0" stop-color="#282628"/>
    </linearGradient>
    <linearGradient gradientTransform="matrix(0.0, -0.1484, -0.1484, 0.0, 555.55, 178.95)" gradientUnits="userSpaceOnUse" id="gradient1" spreadMethod="pad" x1="-819.2" x2="819.2">
      <stop offset="0.0" stop-color="#1a171a"/>
      <stop offset="1.0" stop-color="#282628"/>
    </linearGradient>
    <linearGradient gradientTransform="matrix(0.0, -0.1824, -0.1824, 0.0, 427.25, 174.45)" gradientUnits="userSpaceOnUse" id="gradient2" spreadMethod="pad" x1="-819.2" x2="819.2">
      <stop offset="0.0" stop-color="#373737"/>
      <stop offset="0.17254901960784313" stop-color="#656565"/>
      <stop offset="0.33725490196078434" stop-color="#6c6c6c"/>
      <stop offset="0.5843137254901961" stop-color="#808080"/>
      <stop offset="0.8784313725490196" stop-color="#a1a1a1"/>
      <stop offset="0.9019607843137255" stop-color="#a4a4a4"/>
      <stop offset="1.0" stop-color="#373737"/>
    </linearGradient>
    <linearGradient gradientTransform="matrix(0.0, -0.1546, -0.1546, 0.0, 424.0, 172.85)" gradientUnits="userSpaceOnUse" id="gradient3" spreadMethod="pad" x1="-819.2" x2="819.2">
      <stop offset="0.0" stop-color="#505050"/>
      <stop offset="1.0" stop-color="#393939"/>
    </linearGradient>
    <linearGradient gradientTransform="matrix(-0.0165, 0.0, 0.0, -0.0165, 20.95, 162.65)" gradientUnits="userSpaceOnUse" id="gradient4" spreadMethod="pad" x1="-819.2" x2="819.2">
      <stop offset="0.0" stop-color="#0f47ba"/>
      <stop offset="0.24313725490196078" stop-color="#000f63"/>
      <stop offset="0.37254901960784315" stop-color="#001566"/>
      <stop offset="0.5450980392156862" stop-color="#002670"/>
      <stop offset="0.7450980392156863" stop-color="#004180"/>
      <stop offset="0.9568627450980393" stop-color="#006797"/>
      <stop offset="1.0" stop-color="#00709c"/>
    </linearGradient>
    <linearGradient gradientTransform="matrix(0.0205, 0.0, 0.0, 0.0205, 21.65, 87.55)" gradientUnits="userSpaceOnUse" id="gradient5" spreadMethod="pad" x1="-819.2" x2="819.2">
      <stop offset="0.0" stop-color="#6d6e70"/>
      <stop offset="0.10980392156862745" stop-color="#454647"/>
      <stop offset="0.9058823529411765" stop-color="#c2c4c7"/>
      <stop offset="1.0" stop-color="#555555"/>
    </linearGradient>
    <linearGradient gradientTransform="matrix(-0.0076, 0.0, 0.0, 0.0076, 21.6, 78.55)" gradientUnits="userSpaceOnUse" id="gradient6" spreadMethod="pad" x1="-819.2" x2="819.2">
      <stop offset="0.0" stop-color="#75757a"/>
      <stop offset="0.40784313725490196" stop-color="#737375"/>
      <stop offset="0.7019607843137254" stop-color="#bac2c2"/>
      <stop offset="1.0" stop-color="#babfbf"/>
    </linearGradient>
    <linearGradient gradientTransform="matrix(0.0203, 0.0, 0.0, 0.0203, 21.6, 91.15)" gradientUnits="userSpaceOnUse" id="gradient7" spreadMethod="pad" x1="-819.2" x2="819.2">
      <stop offset="0.0" stop-color="#a4a5a7"/>
      <stop offset="0.19215686274509805" stop-color="#75757a"/>
      <stop offset="0.3568627450980392" stop-color="#949597"/>
      <stop offset="0.7372549019607844" stop-color="#f0edf5"/>
      <stop offset="1.0" stop-color="#d9d9db"/>
    </linearGradient>
    <linearGradient gradientTransform="matrix(-0.0205, 0.0, 0.0, 0.0205, 21.65, 239.3)" gradientUnits="userSpaceOnUse" id="gradient8" spreadMethod="pad" x1="-819.2" x2="819.2">
      <stop offset="0.0" stop-color="#6d6e70"/>
      <stop offset="0.10980392156862745" stop-color="#454647"/>
      <stop offset="0.9058823529411765" stop-color="#c2c4c7"/>
      <stop offset="1.0" stop-color="#555555"/>
    </linearGradient>
    <linearGradient gradientTransform="matrix(-0.0203, 0.0, 0.0, 0.0203, 21.6, 235.75)" gradientUnits="userSpaceOnUse" id="gradient9" spreadMethod="pad" x1="-819.2" x2="819.2">
      <stop offset="0.0" stop-color="#a4a5a7"/>
      <stop offset="0.19215686274509805" stop-color="#75757a"/>
      <stop offset="0.3568627450980392" stop-color="#949597"/>
      <stop offset="0.7372549019607844" stop-color="#f0edf5"/>
      <stop offset="1.0" stop-color="#d9d9db"/>
    </linearGradient>
    <linearGradient gradientTransform="matrix(-0.0059, 0.0, 0.0, -0.0059, 21.45, 249.9)" gradientUnits="userSpaceOnUse" id="gradient10" spreadMethod="pad" x1="-819.2" x2="819.2">
      <stop offset="0.0" stop-color="#babfbf"/>
      <stop offset="0.2980392156862745" stop-color="#bac2c2"/>
      <stop offset="0.592156862745098" stop-color="#737375"/>
      <stop offset="1.0" stop-color="#75757a"/>
    </linearGradient>
    <linearGradient gradientTransform="matrix(0.0, 9.0E-4, -9.0E-4, 0.0, 21.45, 246.35)" gradientUnits="userSpaceOnUse" id="gradient11" spreadMethod="pad" x1="-819.2" x2="819.2">
      <stop offset="0.0" stop-color="#6d6e70"/>
      <stop offset="0.10980392156862745" stop-color="#454647"/>
      <stop offset="0.9058823529411765" stop-color="#c2c4c7"/>
      <stop offset="1.0" stop-color="#555555"/>
    </linearGradient>
    <linearGradient gradientTransform="matrix(-0.0145, 0.0, 0.0, -0.0145, 11.85, 161.35)" gradientUnits="userSpaceOnUse" id="gradient12" spreadMethod="pad" x1="-819.2" x2="819.2">
      <stop offset="0.0" stop-color="#373737"/>
      <stop offset="0.6549019607843137" stop-color="#a4a4a4"/>
      <stop offset="0.803921568627451" stop-color="#a4a4a4"/>
      <stop offset="1.0" stop-color="#6b6b6b"/>
    </linearGradient>
    <linearGradient gradientTransform="matrix(0.0, -0.1769, -0.1769, 0.0, 153.8, 169.95)" gradientUnits="userSpaceOnUse" id="gradient13" spreadMethod="pad" x1="-819.2" x2="819.2">
      <stop offset="0.0" stop-color="#373737"/>
      <stop offset="0.17254901960784313" stop-color="#656565"/>
      <stop offset="0.33725490196078434" stop-color="#6c6c6c"/>
      <stop offset="0.5843137254901961" stop-color="#808080"/>
      <stop offset="0.8784313725490196" stop-color="#a1a1a1"/>
      <stop offset="0.9019607843137255" stop-color="#a4a4a4"/>
      <stop offset="1.0" stop-color="#373737"/>
    </linearGradient>
    <linearGradient gradientTransform="matrix(0.0, -0.1546, -0.1546, 0.0, 154.8, 172.85)" gradientUnits="userSpaceOnUse" id="gradient14" spreadMethod="pad" x1="-819.2" x2="819.2">
      <stop offset="0.0" stop-color="#505050"/>
      <stop offset="1.0" stop-color="#393939"/>
    </linearGradient>
    <linearGradient gradientTransform="matrix(0.005, 0.0, 0.0, -0.005, 291.3, 126.45)" gradientUnits="userSpaceOnUse" id="gradient15" spreadMethod="pad" x1="-819.2" x2="819.2">
      <stop offset="0.0" stop-color="#000000"/>
      <stop offset="0.5137254901960784" stop-color="#333336"/>
      <stop offset="1.0" stop-color="#000000"/>
    </linearGradient>
    <linearGradient gradientTransform="matrix(0.005, 0.0, 0.0, -0.005, 291.3, 104.25)" gradientUnits="userSpaceOnUse" id="gradient16" spreadMethod="pad" x1="-819.2" x2="819.2">
      <stop offset="0.0" stop-color="#505050"/>
      <stop offset="0.09803921568627451" stop-color="#373737"/>
      <stop offset="0.5254901960784314" stop-color="#6e6963"/>
      <stop offset="0.8862745098039215" stop-color="#3d3d3d"/>
      <stop offset="1.0" stop-color="#505050"/>
    </linearGradient>
    <linearGradient gradientTransform="matrix(0.005, 0.0, 0.0, -0.005, 291.3, 148.9)" gradientUnits="userSpaceOnUse" id="gradient17" spreadMethod="pad" x1="-819.2" x2="819.2">
      <stop offset="0.0" stop-color="#505050"/>
      <stop offset="0.09803921568627451" stop-color="#373737"/>
      <stop offset="0.5254901960784314" stop-color="#6e6963"/>
      <stop offset="0.8862745098039215" stop-color="#3d3d3d"/>
      <stop offset="1.0" stop-color="#505050"/>
    </linearGradient>
    <linearGradient gradientTransform="matrix(0.005, 0.0, 0.0, -0.005, 291.3, 201.4)" gradientUnits="userSpaceOnUse" id="gradient18" spreadMethod="pad" x1="-819.2" x2="819.2">
      <stop offset="0.0" stop-color="#000000"/>
      <stop offset="0.5137254901960784" stop-color="#333336"/>
      <stop offset="1.0" stop-color="#000000"/>
    </linearGradient>
    <linearGradient gradientTransform="matrix(0.005, 0.0, 0.0, -0.005, 291.3, 179.2)" gradientUnits="userSpaceOnUse" id="gradient19" spreadMethod="pad" x1="-819.2" x2="819.2">
      <stop offset="0.0" stop-color="#505050"/>
      <stop offset="0.09803921568627451" stop-color="#373737"/>
      <stop offset="0.5254901960784314" stop-color="#6e6963"/>
      <stop offset="0.8862745098039215" stop-color="#3d3d3d"/>
      <stop offset="1.0" stop-color="#505050"/>
    </linearGradient>
    <linearGradient gradientTransform="matrix(0.005, 0.0, 0.0, -0.005, 291.3, 223.85)" gradientUnits="userSpaceOnUse" id="gradient20" spreadMethod="pad" x1="-819.2" x2="819.2">
      <stop offset="0.0" stop-color="#505050"/>
      <stop offset="0.09803921568627451" stop-color="#373737"/>
      <stop offset="0.5254901960784314" stop-color="#6e6963"/>
      <stop offset="0.8862745098039215" stop-color="#3d3d3d"/>
      <stop offset="1.0" stop-color="#505050"/>
    </linearGradient>
    <linearGradient gradientTransform="matrix(0.0, -0.0207, 0.0207, 0.0, 427.25, 15.0)" gradientUnits="userSpaceOnUse" id="gradient21" spreadMethod="pad" x1="-819.2" x2="819.2">
      <stop offset="0.0" stop-color="#373737"/>
      <stop offset="0.6549019607843137" stop-color="#a4a4a4"/>
      <stop offset="0.803921568627451" stop-color="#a4a4a4"/>
      <stop offset="1.0" stop-color="#6b6b6b"/>
    </linearGradient>
    <linearGradient gradientTransform="matrix(0.0016, 0.004, 0.0094, -0.0039, 353.65, 42.6)" gradientUnits="userSpaceOnUse" id="gradient22" spreadMethod="pad" x1="-819.2" x2="819.2">
      <stop offset="0.0" stop-color="#505050"/>
      <stop offset="0.09803921568627451" stop-color="#373737"/>
      <stop offset="0.5254901960784314" stop-color="#6e6861"/>
      <stop offset="0.8862745098039215" stop-color="#3d3d3d"/>
      <stop offset="1.0" stop-color="#505050"/>
    </linearGradient>
    <linearGradient gradientTransform="matrix(-0.0016, 0.004, -0.0094, -0.0039, 501.0, 42.6)" gradientUnits="userSpaceOnUse" id="gradient23" spreadMethod="pad" x1="-819.2" x2="819.2">
      <stop offset="0.0" stop-color="#505050"/>
      <stop offset="0.09803921568627451" stop-color="#373737"/>
      <stop offset="0.5254901960784314" stop-color="#6e6861"/>
      <stop offset="0.8862745098039215" stop-color="#3d3d3d"/>
      <stop offset="1.0" stop-color="#505050"/>
    </linearGradient>
    <linearGradient gradientTransform="matrix(-0.0053, 0.0096, 0.0096, 0.0053, 458.05, 23.55)" gradientUnits="userSpaceOnUse" id="gradient24" spreadMethod="pad" x1="-819.2" x2="819.2">
      <stop offset="0.0" stop-color="#505050"/>
      <stop offset="0.09803921568627451" stop-color="#373737"/>
      <stop offset="0.5254901960784314" stop-color="#6e6963"/>
      <stop offset="0.8862745098039215" stop-color="#3d3d3d"/>
      <stop offset="1.0" stop-color="#505050"/>
    </linearGradient>
    <linearGradient gradientTransform="matrix(0.0053, 0.0096, -0.0096, 0.0053, 395.7, 23.55)" gradientUnits="userSpaceOnUse" id="gradient25" spreadMethod="pad" x1="-819.2" x2="819.2">
      <stop offset="0.0" stop-color="#505050"/>
      <stop offset="0.09803921568627451" stop-color="#373737"/>
      <stop offset="0.5254901960784314" stop-color="#6e6963"/>
      <stop offset="0.8862745098039215" stop-color="#3d3d3d"/>
      <stop offset="1.0" stop-color="#505050"/>
    </linearGradient>
    <linearGradient gradientTransform="matrix(0.0, -0.0207, 0.0207, 0.0, 153.75, 15.0)" gradientUnits="userSpaceOnUse" id="gradient26" spreadMethod="pad" x1="-819.2" x2="819.2">
      <stop offset="0.0" stop-color="#373737"/>
      <stop offset="0.6549019607843137" stop-color="#a4a4a4"/>
      <stop offset="0.803921568627451" stop-color="#a4a4a4"/>
      <stop offset="1.0" stop-color="#6b6b6b"/>
    </linearGradient>
    <linearGradient gradientTransform="matrix(0.0016, 0.004, 0.0094, -0.0039, 80.15, 42.6)" gradientUnits="userSpaceOnUse" id="gradient27" spreadMethod="pad" x1="-819.2" x2="819.2">
      <stop offset="0.0" stop-color="#505050"/>
      <stop offset="0.09803921568627451" stop-color="#373737"/>
      <stop offset="0.5254901960784314" stop-color="#6e6861"/>
      <stop offset="0.8862745098039215" stop-color="#3d3d3d"/>
      <stop offset="1.0" stop-color="#505050"/>
    </linearGradient>
    <linearGradient gradientTransform="matrix(-0.0016, 0.004, -0.0094, -0.0039, 227.5, 42.6)" gradientUnits="userSpaceOnUse" id="gradient28" spreadMethod="pad" x1="-819.2" x2="819.2">
      <stop offset="0.0" stop-color="#505050"/>
      <stop offset="0.09803921568627451" stop-color="#373737"/>
      <stop offset="0.5254901960784314" stop-color="#6e6861"/>
      <stop offset="0.8862745098039215" stop-color="#3d3d3d"/>
      <stop offset="1.0" stop-color="#505050"/>
    </linearGradient>
    <linearGradient gradientTransform="matrix(-0.0053, 0.0096, 0.0096, 0.0053, 184.55, 23.55)" gradientUnits="userSpaceOnUse" id="gradient29" spreadMethod="pad" x1="-819.2" x2="819.2">
      <stop offset="0.0" stop-color="#505050"/>
      <stop offset="0.09803921568627451" stop-color="#373737"/>
      <stop offset="0.5254901960784314" stop-color="#6e6963"/>
      <stop offset="0.8862745098039215" stop-color="#3d3d3d"/>
      <stop offset="1.0" stop-color="#505050"/>
    </linearGradient>
    <linearGradient gradientTransform="matrix(0.0053, 0.0096, -0.0096, 0.0053, 122.2, 23.55)" gradientUnits="userSpaceOnUse" id="gradient30" spreadMethod="pad" x1="-819.2" x2="819.2">
      <stop offset="0.0" stop-color="#505050"/>
      <stop offset="0.09803921568627451" stop-color="#373737"/>
      <stop offset="0.5254901960784314" stop-color="#6e6963"/>
      <stop offset="0.8862745098039215" stop-color="#3d3d3d"/>
      <stop offset="1.0" stop-color="#505050"/>
    </linearGradient>
  </defs>
</svg>
