<?xml version="1.0" encoding="UTF-8" standalone="no"?>
<svg xmlns:ffdec="https://www.free-decompiler.com/flash" xmlns:xlink="http://www.w3.org/1999/xlink" ffdec:objectType="shape" height="43.4px" width="90.0px" xmlns="http://www.w3.org/2000/svg">
  <g transform="matrix(1.0, 0.0, 0.0, 1.0, -4.95, -2.4)">
    <path d="M94.05 8.75 L94.05 39.55 Q94.05 41.75 92.8 43.25 91.55 44.75 89.85 44.75 L10.0 44.75 Q8.3 44.75 7.1 43.25 5.85 41.75 5.85 39.55 L5.85 8.75 Q5.85 6.65 7.1 5.1 8.3 3.55 10.0 3.55 L89.85 3.55 Q91.55 3.55 92.8 5.1 94.05 6.65 94.05 8.75" fill="#020d26" fill-rule="evenodd" stroke="none"/>
    <path d="M89.85 2.9 Q91.8 2.9 93.2 4.6 94.6 6.35 94.6 8.75 L94.6 39.55 Q94.6 42.0 93.2 43.7 91.8 45.4 89.85 45.4 L10.0 45.4 Q8.05 45.4 6.7 43.7 5.3 42.0 5.3 39.55 L5.3 8.75 Q5.3 6.35 6.7 4.6 8.05 2.9 10.0 2.9 L89.85 2.9 M93.5 8.75 Q93.5 6.9 92.45 5.55 91.35 4.25 89.85 4.25 L10.0 4.25 Q8.55 4.25 7.45 5.55 6.4 6.9 6.4 8.75 L6.4 39.55 Q6.4 41.4 7.45 42.75 8.55 44.05 10.0 44.05 L89.85 44.05 Q91.35 44.05 92.45 42.75 93.5 41.4 93.5 39.55 L93.5 8.75" fill="#1c4b84" fill-rule="evenodd" stroke="none"/>
    <path d="M90.35 11.1 L90.35 37.0 Q90.35 38.45 89.55 39.4 88.8 40.4 87.65 40.4 L12.2 40.4 Q11.05 40.4 10.25 39.4 9.45 38.4 9.45 37.0 L9.45 11.1 Q9.45 9.7 10.25 8.7 11.05 7.7 12.2 7.7 L87.65 7.7 Q88.8 7.7 89.55 8.7 90.35 9.7 90.35 11.1" fill="url(#gradient0)" fill-rule="evenodd" stroke="none"/>
    <path d="M87.65 7.05 Q89.0 7.05 89.95 8.2 90.9 9.4 90.9 11.1 L90.9 37.0 Q90.9 38.7 89.95 39.9 89.0 41.05 87.65 41.05 L12.2 41.05 Q10.85 41.05 9.85 39.9 8.95 38.7 8.95 37.0 L8.95 11.1 Q8.95 9.4 9.85 8.2 10.85 7.05 12.2 7.05 L87.65 7.05 M89.8 11.1 Q89.8 9.95 89.15 9.2 88.55 8.4 87.65 8.4 L12.2 8.4 Q11.3 8.4 10.65 9.2 10.0 9.95 10.0 11.1 L10.0 37.0 Q10.0 38.15 10.65 38.9 11.3 39.7 12.2 39.7 L87.65 39.7 Q88.55 39.7 89.15 38.9 89.8 38.15 89.8 37.0 L89.8 11.1" fill="#57ccef" fill-rule="evenodd" stroke="none"/>
    <path d="M86.05 11.4 L13.8 36.95 Q12.9 37.25 12.3 36.7 11.7 36.15 11.7 35.0 L11.7 13.4 Q11.7 12.25 12.35 11.5 12.95 10.7 13.85 10.7 L85.95 10.7 86.9 10.9 Q86.9 11.1 86.05 11.4" fill="url(#gradient1)" fill-rule="evenodd" stroke="none"/>
    <path d="M6.35 7.5 L6.35 13.05 4.95 13.05 4.95 6.4 8.55 2.4 13.55 2.4 13.55 4.15 9.15 4.15 6.35 7.5" fill="#69bfff" fill-rule="evenodd" stroke="none"/>
    <path d="M6.35 40.75 L9.15 44.05 13.55 44.05 13.55 45.8 8.55 45.8 4.95 41.8 4.95 35.15 6.35 35.15 6.35 40.75" fill="#69bfff" fill-rule="evenodd" stroke="none"/>
    <path d="M93.55 7.5 L90.8 4.15 86.35 4.15 86.35 2.4 91.4 2.4 94.95 6.4 94.95 13.05 93.55 13.05 93.55 7.5" fill="#69bfff" fill-rule="evenodd" stroke="none"/>
    <path d="M93.55 40.75 L93.55 35.15 94.95 35.15 94.95 41.8 91.4 45.8 86.35 45.8 86.35 44.05 90.8 44.05 93.55 40.75" fill="#69bfff" fill-rule="evenodd" stroke="none"/>
  </g>
  <defs>
    <radialGradient cx="0" cy="0" gradientTransform="matrix(0.0704, 0.0, 0.0, -0.0218, 50.85, 36.45)" gradientUnits="userSpaceOnUse" id="gradient0" r="819.2" spreadMethod="pad">
      <stop offset="0.0" stop-color="#33b5bf"/>
      <stop offset="0.14901960784313725" stop-color="#32afc3"/>
      <stop offset="0.34901960784313724" stop-color="#309ece"/>
      <stop offset="0.5764705882352941" stop-color="#2c82e1"/>
      <stop offset="0.7411764705882353" stop-color="#2969f2"/>
      <stop offset="0.7568627450980392" stop-color="#2767ee"/>
      <stop offset="0.9137254901960784" stop-color="#1459ce"/>
      <stop offset="1.0" stop-color="#0d54c2"/>
    </radialGradient>
    <linearGradient gradientTransform="matrix(0.0064, 0.0195, 0.0131, -0.0065, 45.25, 12.95)" gradientUnits="userSpaceOnUse" id="gradient1" spreadMethod="pad" x1="-819.2" x2="819.2">
      <stop offset="0.0" stop-color="#c2c2b3"/>
      <stop offset="0.043137254901960784" stop-color="#9b9fa2" stop-opacity="0.8"/>
      <stop offset="0.09411764705882353" stop-color="#777e92" stop-opacity="0.6117647"/>
      <stop offset="0.14901960784313725" stop-color="#576184" stop-opacity="0.44313726"/>
      <stop offset="0.21176470588235294" stop-color="#3b4878" stop-opacity="0.30588236"/>
      <stop offset="0.2823529411764706" stop-color="#25346e" stop-opacity="0.19215687"/>
      <stop offset="0.36470588235294116" stop-color="#142567" stop-opacity="0.101960786"/>
      <stop offset="0.4627450980392157" stop-color="#091a62" stop-opacity="0.043137256"/>
      <stop offset="0.6078431372549019" stop-color="#02145f" stop-opacity="0.007843138"/>
      <stop offset="1.0" stop-color="#00125e" stop-opacity="0.0"/>
    </linearGradient>
  </defs>
</svg>
