<?xml version="1.0" encoding="UTF-8" standalone="no"?>
<svg xmlns:ffdec="https://www.free-decompiler.com/flash" xmlns:xlink="http://www.w3.org/1999/xlink" ffdec:objectType="shape" height="60.9px" width="31.05px" xmlns="http://www.w3.org/2000/svg">
  <g transform="matrix(1.0, 0.0, 0.0, 1.0, 0.05, -11.95)">
    <path d="M31.0 27.6 L31.0 56.25 Q31.0 57.5 30.2 58.8 29.45 60.1 28.35 60.75 L7.25 72.45 4.9 72.8 Q3.55 72.55 2.8 71.6 L1.8 70.3 Q1.0 69.35 0.5 67.75 -0.05 66.2 -0.05 64.95 L-0.05 18.7 Q-0.05 17.45 0.55 15.95 1.2 14.45 2.05 13.55 L2.55 13.1 Q3.4 12.2 4.8 12.0 6.2 11.8 7.3 12.35 L28.3 23.2 Q29.4 23.75 30.2 25.05 31.0 26.35 31.0 27.6" fill="url(#gradient0)" fill-rule="evenodd" stroke="none"/>
    <path d="M3.35 50.2 Q3.35 53.05 2.75 54.45 2.15 55.65 2.15 58.75 L2.15 59.9 Q2.15 61.15 2.75 62.65 3.4 64.15 4.25 65.0 L4.75 65.55 Q5.6 66.4 7.0 66.6 8.4 66.8 9.45 66.2 L25.3 57.4 Q26.4 56.8 27.15 55.45 27.95 54.15 27.95 52.9 L27.95 52.45 Q27.95 49.45 27.4 48.55 26.85 47.55 26.85 44.6 L26.85 39.7 Q26.85 36.65 27.4 35.9 27.95 35.1 27.95 32.05 L27.95 31.15 Q27.95 29.9 27.15 28.65 26.4 27.35 25.3 26.75 L9.5 18.6 Q8.4 18.05 6.95 18.2 5.45 18.3 4.5 19.1 L4.45 19.15 Q3.5 19.9 2.85 21.35 2.15 22.75 2.15 24.0 L2.15 26.5 Q2.15 29.55 2.75 30.9 3.35 32.4 3.35 35.3 L3.35 50.2" fill="#2b2b2a" fill-rule="evenodd" stroke="none"/>
    <path d="M6.15 23.2 L6.4 22.95 Q7.0 22.4 7.95 22.25 L9.6 22.45 23.25 29.55 24.5 30.8 Q25.0 31.65 25.0 32.45 L25.0 51.1 Q25.0 51.95 24.5 52.8 24.0 53.7 23.3 54.1 L9.55 61.7 7.95 61.95 Q7.1 61.8 6.6 61.15 L5.95 60.35 Q5.45 59.7 5.1 58.65 4.75 57.6 4.75 56.8 L4.75 26.65 Q4.75 25.8 5.15 24.8 5.55 23.8 6.15 23.2" fill="#043095" fill-rule="evenodd" stroke="none"/>
    <path d="M6.15 23.2 L6.4 22.95 Q7.0 22.4 7.95 22.25 L9.6 22.45 23.25 29.55 24.5 30.8 Q25.0 31.65 25.0 32.45 L25.0 51.1 Q25.0 51.95 24.5 52.8 24.0 53.7 23.3 54.1 L9.55 61.7 7.95 61.95 Q7.1 61.8 6.6 61.15 L5.95 60.35 Q5.45 59.7 5.1 58.65 4.75 57.6 4.75 56.8 L4.75 26.65 Q4.75 25.8 5.15 24.8 5.55 23.8 6.15 23.2" fill="url(#gradient1)" fill-rule="evenodd" stroke="none"/>
    <path d="M6.15 23.2 L6.4 22.95 Q7.0 22.4 7.95 22.25 L9.6 22.45 23.25 29.55 24.5 30.8 Q25.0 31.65 25.0 32.45 L25.0 51.1 Q25.0 51.95 24.5 52.8 24.0 53.7 23.3 54.1 L9.55 61.7 7.95 61.95 Q7.1 61.8 6.6 61.15 L5.95 60.35 Q5.45 59.7 5.1 58.65 4.75 57.6 4.75 56.8 L4.75 26.65 Q4.75 25.8 5.15 24.8 5.55 23.8 6.15 23.2 Z" fill="none" stroke="#069aff" stroke-linecap="butt" stroke-linejoin="miter-clip" stroke-miterlimit="4.0" stroke-width="1.0"/>
  </g>
  <defs>
    <linearGradient gradientTransform="matrix(0.019, 0.0, 0.0, -0.019, 15.45, 42.4)" gradientUnits="userSpaceOnUse" id="gradient0" spreadMethod="pad" x1="-819.2" x2="819.2">
      <stop offset="0.0" stop-color="#373737"/>
      <stop offset="0.6549019607843137" stop-color="#a4a4a4"/>
      <stop offset="0.803921568627451" stop-color="#a4a4a4"/>
      <stop offset="1.0" stop-color="#6b6b6b"/>
    </linearGradient>
    <linearGradient gradientTransform="matrix(0.0209, 0.0, 0.0, 0.0173, 21.0, 8.8)" gradientUnits="userSpaceOnUse" id="gradient1" spreadMethod="pad" x1="-819.2" x2="819.2">
      <stop offset="0.0" stop-color="#0078ff"/>
      <stop offset="0.0196078431372549" stop-color="#0074ff" stop-opacity="0.90588236"/>
      <stop offset="0.12941176470588237" stop-color="#0063ff" stop-opacity="0.49803922"/>
      <stop offset="0.26666666666666666" stop-color="#0058ff" stop-opacity="0.20784314"/>
      <stop offset="0.4627450980392157" stop-color="#0051ff" stop-opacity="0.043137256"/>
      <stop offset="1.0" stop-color="#004fff" stop-opacity="0.0"/>
    </linearGradient>
  </defs>
</svg>
