<?xml version="1.0" encoding="UTF-8" standalone="no"?>
<svg xmlns:ffdec="https://www.free-decompiler.com/flash" xmlns:xlink="http://www.w3.org/1999/xlink" ffdec:objectType="shape" height="54.85px" width="27.95px" xmlns="http://www.w3.org/2000/svg">
  <g transform="matrix(1.0, 0.0, 0.0, 1.0, -1.5, -15.0)">
    <path d="M29.45 29.1 L29.45 54.85 Q29.45 56.0 28.75 57.15 28.05 58.35 27.05 58.9 L8.05 69.45 Q7.15 70.0 5.95 69.75 4.75 69.55 4.05 68.7 L3.15 67.5 Q2.45 66.65 2.0 65.2 1.5 63.85 1.5 62.7 L1.5 21.1 Q1.5 19.95 2.05 18.6 2.65 17.25 3.4 16.45 L3.85 16.05 Q4.6 15.25 5.85 15.05 L8.1 15.35 27.0 25.15 Q28.0 25.6 28.75 26.8 29.45 27.95 29.45 29.1" fill="url(#gradient0)" fill-rule="evenodd" stroke="none"/>
    <path d="M4.6 49.45 Q4.6 52.0 4.05 53.25 3.5 54.35 3.5 57.15 L3.5 58.15 Q3.5 59.3 4.05 60.65 4.6 62.0 5.4 62.75 L5.85 63.25 Q6.6 64.0 7.85 64.2 L10.05 63.85 24.35 55.9 26.0 54.15 Q26.7 53.0 26.7 51.85 L26.7 51.45 Q26.7 48.75 26.2 47.95 25.75 47.05 25.75 44.4 L25.75 40.0 Q25.75 37.25 26.2 36.55 26.7 35.85 26.7 33.1 L26.7 32.3 Q26.7 31.15 26.0 30.05 25.3 28.85 24.35 28.35 L10.1 21.0 7.8 20.65 Q6.45 20.7 5.6 21.45 L5.55 21.5 Q4.7 22.15 4.15 23.45 3.5 24.75 3.5 25.85 L3.5 28.1 Q3.5 30.85 4.05 32.05 4.6 33.4 4.6 36.0 L4.6 49.45" fill="#2b2b2a" fill-rule="evenodd" stroke="none"/>
    <path d="M8.7 24.25 L10.15 24.45 22.45 30.85 23.6 31.95 Q24.05 32.75 24.05 33.45 L24.05 50.25 Q24.05 51.0 23.6 51.75 L22.5 52.95 Q16.35 56.4 10.15 59.8 L8.7 60.0 Q7.9 59.85 7.45 59.3 L6.9 58.55 Q6.45 58.0 6.1 57.05 5.8 56.1 5.8 55.35 L5.8 28.25 Q5.8 27.45 6.15 26.55 L7.05 25.15 7.3 24.9 Q7.85 24.4 8.7 24.25" fill="#043095" fill-rule="evenodd" stroke="none"/>
    <path d="M8.7 24.25 L10.15 24.45 22.45 30.85 23.6 31.95 Q24.05 32.75 24.05 33.45 L24.05 50.25 Q24.05 51.0 23.6 51.75 L22.5 52.95 Q16.35 56.4 10.15 59.8 L8.7 60.0 Q7.9 59.85 7.45 59.3 L6.9 58.55 Q6.45 58.0 6.1 57.05 5.8 56.1 5.8 55.35 L5.8 28.25 Q5.8 27.45 6.15 26.55 L7.05 25.15 7.3 24.9 Q7.85 24.4 8.7 24.25" fill="url(#gradient1)" fill-rule="evenodd" stroke="none"/>
    <path d="M8.7 24.25 L10.15 24.45 22.45 30.85 23.6 31.95 Q24.05 32.75 24.05 33.45 L24.05 50.25 Q24.05 51.0 23.6 51.75 L22.5 52.95 Q16.35 56.4 10.15 59.8 L8.7 60.0 Q7.9 59.85 7.45 59.3 L6.9 58.55 Q6.45 58.0 6.1 57.05 5.8 56.1 5.8 55.35 L5.8 28.25 Q5.8 27.45 6.15 26.55 L7.05 25.15 7.3 24.9 Q7.85 24.4 8.7 24.25 Z" fill="none" stroke="#069aff" stroke-linecap="butt" stroke-linejoin="miter-clip" stroke-miterlimit="4.0" stroke-width="1.0"/>
    <path d="M12.1 38.45 L9.3 36.4 12.0 34.1 17.6 34.0 20.4 36.1 17.7 38.3 12.1 38.45" fill="#00b8ff" fill-rule="evenodd" stroke="none"/>
    <path d="M20.65 46.8 L20.75 48.2 18.0 50.4 12.45 50.6 9.6 48.5 9.6 47.1 12.25 44.85 17.85 44.7 20.65 46.8" fill="#0982f4" fill-rule="evenodd" stroke="none"/>
    <path d="M12.4 49.1 L9.6 47.1 12.25 44.85 17.85 44.7 20.65 46.8 18.0 49.0 12.4 49.1" fill="#00b8ff" fill-rule="evenodd" stroke="none"/>
    <path d="M19.1 46.75 L17.25 48.25 12.95 48.35 11.35 46.95 11.1 38.5 18.85 38.25 19.1 46.75" fill="#48f1ff" fill-rule="evenodd" stroke="none"/>
    <path d="M20.4 35.35 L20.45 36.8 17.7 39.0 12.15 39.15 9.3 37.1 9.25 35.65 12.0 33.4 17.6 33.3 20.4 35.35" fill="#0982f4" fill-rule="evenodd" stroke="none"/>
    <path d="M12.1 37.75 L9.25 35.65 12.0 33.4 17.6 33.3 20.4 35.35 17.65 37.6 12.1 37.75" fill="#00b8ff" fill-rule="evenodd" stroke="none"/>
  </g>
  <defs>
    <linearGradient gradientTransform="matrix(0.0171, 0.0, 0.0, -0.0171, 15.45, 42.4)" gradientUnits="userSpaceOnUse" id="gradient0" spreadMethod="pad" x1="-819.2" x2="819.2">
      <stop offset="0.0" stop-color="#373737"/>
      <stop offset="0.6549019607843137" stop-color="#a4a4a4"/>
      <stop offset="0.803921568627451" stop-color="#a4a4a4"/>
      <stop offset="1.0" stop-color="#6b6b6b"/>
    </linearGradient>
    <linearGradient gradientTransform="matrix(0.0188, 0.0, 0.0, 0.0156, 20.45, 12.15)" gradientUnits="userSpaceOnUse" id="gradient1" spreadMethod="pad" x1="-819.2" x2="819.2">
      <stop offset="0.0" stop-color="#0078ff"/>
      <stop offset="0.0196078431372549" stop-color="#0074ff" stop-opacity="0.90588236"/>
      <stop offset="0.12941176470588237" stop-color="#0063ff" stop-opacity="0.49803922"/>
      <stop offset="0.26666666666666666" stop-color="#0058ff" stop-opacity="0.20784314"/>
      <stop offset="0.4627450980392157" stop-color="#0051ff" stop-opacity="0.043137256"/>
      <stop offset="1.0" stop-color="#004fff" stop-opacity="0.0"/>
    </linearGradient>
  </defs>
</svg>
