<?xml version="1.0" encoding="UTF-8" standalone="no"?>
<svg xmlns:ffdec="https://www.free-decompiler.com/flash" xmlns:xlink="http://www.w3.org/1999/xlink" ffdec:objectType="shape" height="48.15px" width="100.0px" xmlns="http://www.w3.org/2000/svg">
  <g transform="matrix(1.0, 0.0, 0.0, 1.0, 0.0, 0.0)">
    <path d="M99.0 7.05 L99.0 41.25 Q99.0 43.65 97.6 45.35 96.25 47.0 94.35 47.0 L5.65 47.0 Q3.75 47.0 2.4 45.35 1.0 43.65 1.0 41.25 L1.0 7.05 Q1.0 4.65 2.4 3.0 3.75 1.3 5.65 1.3 L94.35 1.3 Q96.25 1.3 97.6 3.0 99.0 4.65 99.0 7.05" fill="#352502" fill-rule="evenodd" stroke="none"/>
    <path d="M98.4 7.05 Q98.4 5.0 97.2 3.5 96.0 2.05 94.35 2.05 L5.65 2.05 Q4.0 2.05 2.8 3.5 1.6 5.0 1.6 7.05 L1.6 41.25 Q1.6 43.3 2.8 44.8 4.0 46.25 5.65 46.25 L94.35 46.25 Q96.0 46.25 97.2 44.8 98.4 43.3 98.4 41.25 L98.4 7.05 M94.35 0.55 Q96.55 0.55 98.05 2.45 99.6 4.35 99.6 7.05 L99.6 41.25 Q99.6 43.95 98.05 45.85 96.55 47.75 94.35 47.75 L5.65 47.75 Q3.45 47.75 1.95 45.85 0.4 43.95 0.4 41.25 L0.4 7.05 Q0.4 4.35 1.95 2.45 3.45 0.55 5.65 0.55 L94.35 0.55" fill="#5b4002" fill-rule="evenodd" stroke="none"/>
    <path d="M94.95 9.6 L94.95 38.45 Q94.95 40.0 94.1 41.1 93.2 42.2 91.95 42.2 L8.05 42.2 Q6.8 42.2 5.95 41.1 5.05 40.0 5.05 38.45 L5.05 9.6 Q5.05 8.05 5.95 6.95 6.8 5.85 8.05 5.85 L91.95 5.85 Q93.2 5.85 94.1 6.95 94.95 8.05 94.95 9.6" fill="url(#gradient0)" fill-rule="evenodd" stroke="none"/>
    <path d="M94.35 9.6 Q94.35 8.35 93.65 7.5 92.95 6.6 91.95 6.6 L8.05 6.6 Q7.05 6.6 6.35 7.5 5.65 8.35 5.65 9.6 L5.65 38.45 Q5.65 39.7 6.35 40.55 7.05 41.45 8.05 41.45 L91.95 41.45 Q92.95 41.45 93.65 40.55 94.35 39.7 94.35 38.45 L94.35 9.6 M91.95 5.1 Q93.45 5.1 94.5 6.4 95.55 7.75 95.55 9.6 L95.55 38.45 Q95.55 40.3 94.5 41.6 93.45 42.95 91.95 42.95 L8.05 42.95 Q6.55 42.95 5.5 41.6 4.45 40.3 4.45 38.45 L4.45 9.6 Q4.45 7.75 5.5 6.4 6.55 5.1 8.05 5.1 L91.95 5.1" fill="#d1884b" fill-rule="evenodd" stroke="none"/>
    <path d="M90.15 9.95 L9.85 38.35 Q8.9 38.7 8.25 38.05 7.55 37.45 7.55 36.2 L7.55 12.15 Q7.55 10.9 8.25 10.05 8.95 9.15 9.95 9.15 L90.05 9.15 Q91.05 9.15 91.1 9.4 L90.15 9.95" fill="url(#gradient1)" fill-rule="evenodd" stroke="none"/>
    <path d="M1.55 5.6 L1.55 11.8 0.0 11.8 0.0 4.4 4.0 0.0 9.55 0.0 9.55 1.9 4.65 1.9 1.55 5.6" fill="#f7b141" fill-rule="evenodd" stroke="none"/>
    <path d="M1.55 42.55 L4.65 46.25 9.55 46.25 9.55 48.15 4.0 48.15 0.0 43.75 0.0 36.35 1.55 36.35 1.55 42.55" fill="#f7b141" fill-rule="evenodd" stroke="none"/>
    <path d="M98.45 5.6 L95.35 1.9 90.45 1.9 90.45 0.0 96.0 0.0 100.0 4.4 100.0 11.8 98.45 11.8 98.45 5.6" fill="#f7b141" fill-rule="evenodd" stroke="none"/>
    <path d="M98.45 42.55 L98.45 36.35 100.0 36.35 100.0 43.75 96.0 48.15 90.45 48.15 90.45 46.25 95.35 46.25 98.45 42.55" fill="#f7b141" fill-rule="evenodd" stroke="none"/>
  </g>
  <defs>
    <radialGradient cx="0" cy="0" gradientTransform="matrix(0.0782, 0.0, 0.0, -0.0242, 51.0, 37.8)" gradientUnits="userSpaceOnUse" id="gradient0" r="819.2" spreadMethod="pad">
      <stop offset="0.0" stop-color="#a66803"/>
      <stop offset="0.5137254901960784" stop-color="#732e00"/>
      <stop offset="0.6627450980392157" stop-color="#592204"/>
      <stop offset="0.8784313725490196" stop-color="#39140a"/>
      <stop offset="1.0" stop-color="#2d0e0c"/>
    </radialGradient>
    <linearGradient gradientTransform="matrix(0.0071, 0.0217, 0.0145, -0.0073, 44.8, 11.65)" gradientUnits="userSpaceOnUse" id="gradient1" spreadMethod="pad" x1="-819.2" x2="819.2">
      <stop offset="0.0" stop-color="#c2c2b3"/>
      <stop offset="0.023529411764705882" stop-color="#b8ad9f" stop-opacity="0.8784314"/>
      <stop offset="0.07450980392156863" stop-color="#a7897c" stop-opacity="0.6745098"/>
      <stop offset="0.13333333333333333" stop-color="#98695c" stop-opacity="0.49019608"/>
      <stop offset="0.19607843137254902" stop-color="#8c4d42" stop-opacity="0.3372549"/>
      <stop offset="0.26666666666666666" stop-color="#81372c" stop-opacity="0.21176471"/>
      <stop offset="0.34901960784313724" stop-color="#7a261c" stop-opacity="0.11372549"/>
      <stop offset="0.4549019607843137" stop-color="#741b10" stop-opacity="0.047058824"/>
      <stop offset="0.6" stop-color="#71140a" stop-opacity="0.007843138"/>
      <stop offset="1.0" stop-color="#701208" stop-opacity="0.0"/>
    </linearGradient>
  </defs>
</svg>
