<?xml version="1.0" encoding="UTF-8" standalone="no"?>
<svg xmlns:ffdec="https://www.free-decompiler.com/flash" xmlns:xlink="http://www.w3.org/1999/xlink" ffdec:objectType="shape" height="60.9px" width="31.05px" xmlns="http://www.w3.org/2000/svg">
  <g transform="matrix(1.0, 0.0, 0.0, 1.0, 0.05, -11.95)">
    <path d="M31.0 27.6 L31.0 56.25 Q31.0 57.5 30.2 58.8 29.45 60.1 28.35 60.75 L7.25 72.45 4.9 72.8 Q3.55 72.55 2.8 71.6 L1.8 70.3 Q1.0 69.35 0.5 67.75 -0.05 66.2 -0.05 64.95 L-0.05 18.7 Q-0.05 17.45 0.55 15.95 1.2 14.45 2.05 13.55 L2.55 13.1 Q3.4 12.2 4.8 12.0 6.2 11.8 7.3 12.35 L28.3 23.2 Q29.4 23.75 30.2 25.05 31.0 26.35 31.0 27.6" fill="url(#gradient0)" fill-rule="evenodd" stroke="none"/>
    <path d="M3.3 50.2 Q3.3 53.05 2.7 54.45 2.1 55.65 2.1 58.75 L2.1 59.9 Q2.1 61.15 2.7 62.65 3.35 64.15 4.2 65.0 L4.7 65.55 Q5.55 66.4 6.95 66.6 8.35 66.8 9.4 66.2 L25.25 57.4 Q26.35 56.8 27.1 55.45 27.9 54.15 27.9 52.9 L27.9 52.45 Q27.9 49.45 27.35 48.55 26.8 47.55 26.8 44.6 L26.8 39.7 Q26.8 36.65 27.35 35.9 27.9 35.1 27.9 32.05 L27.9 31.15 Q27.9 29.9 27.1 28.65 26.35 27.35 25.25 26.75 L9.45 18.6 Q8.35 18.05 6.9 18.2 5.4 18.3 4.45 19.1 L4.4 19.15 Q3.45 19.9 2.8 21.35 2.1 22.75 2.1 24.0 L2.1 26.5 Q2.1 29.55 2.7 30.9 3.3 32.4 3.3 35.3 L3.3 50.2" fill="#2b2b2a" fill-rule="evenodd" stroke="none"/>
    <path d="M4.7 56.8 Q4.7 57.6 5.05 58.65 5.4 59.7 5.9 60.35 L6.55 61.15 Q7.05 61.8 7.9 61.95 L9.5 61.7 23.25 54.1 Q23.95 53.7 24.45 52.8 24.95 51.95 24.95 51.1 L24.95 32.45 Q24.95 31.65 24.45 30.8 L23.2 29.55 9.55 22.45 7.9 22.25 Q6.95 22.4 6.35 22.95 L6.1 23.2 5.1 24.8 Q4.7 25.8 4.7 26.65 L4.7 56.8" fill="#03287a" fill-rule="evenodd" stroke="none"/>
    <path d="M4.7 56.8 L4.7 26.65 Q4.7 25.8 5.1 24.8 L6.1 23.2 6.35 22.95 Q6.95 22.4 7.9 22.25 L9.55 22.45 23.2 29.55 24.45 30.8 Q24.95 31.65 24.95 32.45 L24.95 51.1 Q24.95 51.95 24.45 52.8 23.95 53.7 23.25 54.1 L9.5 61.7 7.9 61.95 Q7.05 61.8 6.55 61.15 L5.9 60.35 Q5.4 59.7 5.05 58.65 4.7 57.6 4.7 56.8 Z" fill="none" stroke="#069aff" stroke-linecap="butt" stroke-linejoin="miter-clip" stroke-miterlimit="4.0" stroke-width="1.0"/>
  </g>
  <defs>
    <linearGradient gradientTransform="matrix(0.019, 0.0, 0.0, -0.019, 15.45, 42.4)" gradientUnits="userSpaceOnUse" id="gradient0" spreadMethod="pad" x1="-819.2" x2="819.2">
      <stop offset="0.0" stop-color="#373737"/>
      <stop offset="0.6549019607843137" stop-color="#a4a4a4"/>
      <stop offset="0.803921568627451" stop-color="#a4a4a4"/>
      <stop offset="1.0" stop-color="#6b6b6b"/>
    </linearGradient>
  </defs>
</svg>
