<?xml version="1.0" encoding="UTF-8" standalone="no"?>
<svg xmlns:ffdec="https://www.free-decompiler.com/flash" xmlns:xlink="http://www.w3.org/1999/xlink" ffdec:objectType="shape" height="14.95px" width="14.35px" xmlns="http://www.w3.org/2000/svg">
  <g transform="matrix(1.0, 0.0, 0.0, 1.0, -8.15, -32.85)">
    <path d="M22.5 47.8 L8.15 47.8 12.1 45.9 12.9 44.35 18.15 44.35 19.0 45.9 22.5 47.8" fill="#00c5ff" fill-rule="evenodd" stroke="none"/>
    <path d="M19.35 40.1 L18.65 43.6 16.5 46.6 14.3 46.6 12.45 43.6 11.3 40.15 19.35 40.1" fill="#098fff" fill-rule="evenodd" stroke="none"/>
    <path d="M17.55 32.85 L19.6 36.9 20.95 38.25 20.95 39.3 20.0 39.55 19.5 40.9 18.5 41.7 Q17.25 42.5 15.8 42.5 14.4 42.5 12.75 41.7 L11.4 40.9 10.2 39.3 9.15 39.3 9.15 38.0 11.0 36.7 13.95 32.85 17.55 32.85" fill="#00c5ff" fill-rule="evenodd" stroke="none"/>
    <path d="M20.35 39.5 L20.0 39.55 19.5 40.9 18.5 41.7 Q17.25 42.5 15.8 42.5 14.4 42.5 12.75 41.7 L11.4 40.9 10.35 39.5 Q10.6 38.25 12.05 37.4 13.45 36.55 15.35 36.55 17.25 36.55 18.65 37.4 20.05 38.25 20.35 39.5" fill="#098fff" fill-rule="evenodd" stroke="none"/>
    <path d="M15.4 39.55 Q18.15 39.55 19.75 40.2 L19.5 40.9 18.5 41.7 Q17.25 42.5 15.8 42.5 14.4 42.5 12.75 41.7 L11.4 40.9 10.9 40.25 Q12.65 39.55 15.4 39.55" fill="#45f1ff" fill-rule="evenodd" stroke="none"/>
    <path d="M18.65 41.85 L19.0 41.35 19.6 41.45 19.75 42.5 19.25 43.05 18.9 43.3 18.25 43.55 18.65 41.85" fill="#098fff" fill-rule="evenodd" stroke="none"/>
    <path d="M12.1 41.85 L12.5 43.55 11.85 43.3 11.5 43.05 11.0 42.5 11.15 41.45 11.75 41.35 12.1 41.85" fill="#098fff" fill-rule="evenodd" stroke="none"/>
    <path d="M16.85 37.65 Q16.85 38.3 16.4 38.7 L15.35 39.15 Q14.7 39.15 14.25 38.7 13.8 38.3 13.8 37.65 13.8 37.0 14.25 36.55 14.7 36.1 15.35 36.1 16.0 36.1 16.4 36.55 L16.85 37.65" fill="#08b2ff" fill-rule="evenodd" stroke="none"/>
    <path d="M16.85 37.65 Q16.85 38.3 16.4 38.7 L15.35 39.15 Q14.7 39.15 14.25 38.7 13.8 38.3 13.8 37.65 13.8 37.0 14.25 36.55 14.7 36.1 15.35 36.1 16.0 36.1 16.4 36.55 L16.85 37.65 Z" ffdec:has-small-stroke="true" ffdec:original-stroke-width="0.5" fill="none" stroke="#00e3ff" stroke-linecap="butt" stroke-linejoin="miter-clip" stroke-miterlimit="4.0" stroke-width="1.0"/>
  </g>
</svg>
