<?xml version="1.0" encoding="UTF-8" standalone="no"?>
<svg xmlns:ffdec="https://www.free-decompiler.com/flash" xmlns:xlink="http://www.w3.org/1999/xlink" ffdec:objectType="shape" height="54.85px" width="27.95px" xmlns="http://www.w3.org/2000/svg">
  <g transform="matrix(1.0, 0.0, 0.0, 1.0, -1.5, -15.0)">
    <path d="M29.45 29.1 L29.45 54.85 Q29.45 56.0 28.75 57.15 28.05 58.35 27.05 58.9 L8.05 69.45 Q7.15 70.0 5.95 69.75 4.75 69.55 4.05 68.7 L3.15 67.5 Q2.45 66.65 2.0 65.2 1.5 63.85 1.5 62.7 L1.5 21.1 Q1.5 19.95 2.05 18.6 2.65 17.25 3.4 16.45 L3.85 16.05 Q4.6 15.25 5.85 15.05 L8.1 15.35 27.0 25.15 Q28.0 25.6 28.75 26.8 29.45 27.95 29.45 29.1" fill="url(#gradient0)" fill-rule="evenodd" stroke="none"/>
    <path d="M4.6 49.45 Q4.6 52.0 4.05 53.25 3.5 54.35 3.5 57.15 L3.5 58.15 Q3.5 59.3 4.05 60.65 4.6 62.0 5.4 62.75 L5.85 63.25 Q6.6 64.0 7.85 64.2 L10.05 63.85 24.35 55.9 26.0 54.15 Q26.7 53.0 26.7 51.85 L26.7 51.45 Q26.7 48.75 26.2 47.95 25.75 47.05 25.75 44.4 L25.75 40.0 Q25.75 37.25 26.2 36.55 26.7 35.85 26.7 33.1 L26.7 32.3 Q26.7 31.15 26.0 30.05 25.3 28.85 24.35 28.35 L10.1 21.0 7.8 20.65 Q6.45 20.7 5.6 21.45 L5.55 21.5 Q4.7 22.15 4.15 23.45 3.5 24.75 3.5 25.85 L3.5 28.1 Q3.5 30.85 4.05 32.05 4.6 33.4 4.6 36.0 L4.6 49.45" fill="#2b2b2a" fill-rule="evenodd" stroke="none"/>
    <path d="M22.45 30.85 L23.6 31.95 Q24.05 32.75 24.05 33.45 L24.05 50.25 Q24.05 51.0 23.6 51.75 L22.5 52.95 Q16.35 56.4 10.15 59.8 L8.7 60.0 Q7.9 59.85 7.45 59.3 L6.9 58.55 Q6.45 58.0 6.1 57.05 5.8 56.1 5.8 55.35 L5.8 28.25 Q5.8 27.45 6.15 26.55 L7.05 25.15 7.3 24.9 Q7.85 24.4 8.7 24.25 L10.15 24.45 22.45 30.85" fill="#043095" fill-rule="evenodd" stroke="none"/>
    <path d="M22.45 30.85 L23.6 31.95 Q24.05 32.75 24.05 33.45 L24.05 50.25 Q24.05 51.0 23.6 51.75 L22.5 52.95 Q16.35 56.4 10.15 59.8 L8.7 60.0 Q7.9 59.85 7.45 59.3 L6.9 58.55 Q6.45 58.0 6.1 57.05 5.8 56.1 5.8 55.35 L5.8 28.25 Q5.8 27.45 6.15 26.55 L7.05 25.15 7.3 24.9 Q7.85 24.4 8.7 24.25 L10.15 24.45 22.45 30.85" fill="url(#gradient1)" fill-rule="evenodd" stroke="none"/>
    <path d="M22.45 30.85 L23.6 31.95 Q24.05 32.75 24.05 33.45 L24.05 50.25 Q24.05 51.0 23.6 51.75 L22.5 52.95 Q16.35 56.4 10.15 59.8 L8.7 60.0 Q7.9 59.85 7.45 59.3 L6.9 58.55 Q6.45 58.0 6.1 57.05 5.8 56.1 5.8 55.35 L5.8 28.25 Q5.8 27.45 6.15 26.55 L7.05 25.15 7.3 24.9 Q7.85 24.4 8.7 24.25 L10.15 24.45 22.45 30.85 Z" fill="none" stroke="#069aff" stroke-linecap="butt" stroke-linejoin="miter-clip" stroke-miterlimit="4.0" stroke-width="1.0"/>
    <path d="M21.75 47.05 L8.85 47.05 12.4 45.35 13.1 43.95 17.85 43.95 18.6 45.35 21.75 47.05" fill="#00c5ff" fill-rule="evenodd" stroke="none"/>
    <path d="M18.9 40.1 L18.3 43.25 16.35 45.95 14.35 45.95 12.7 43.25 11.65 40.15 18.9 40.1" fill="#098fff" fill-rule="evenodd" stroke="none"/>
    <path d="M17.3 33.6 L19.15 37.25 20.35 38.45 20.35 39.4 19.5 39.65 19.05 40.85 18.15 41.55 Q17.0 42.3 15.7 42.3 14.45 42.3 12.95 41.55 L11.75 40.85 10.65 39.4 9.75 39.4 9.75 38.25 11.4 37.05 14.05 33.6 17.3 33.6" fill="#00c5ff" fill-rule="evenodd" stroke="none"/>
    <path d="M19.8 39.6 L19.5 39.65 19.05 40.85 18.15 41.55 Q17.0 42.3 15.7 42.3 14.45 42.3 12.95 41.55 L11.75 40.85 10.8 39.6 Q11.05 38.45 12.35 37.7 13.6 36.95 15.3 36.95 17.0 36.95 18.3 37.7 19.55 38.45 19.8 39.6" fill="#098fff" fill-rule="evenodd" stroke="none"/>
    <path d="M15.35 39.65 Q17.85 39.65 19.25 40.2 L19.05 40.85 18.15 41.55 Q17.0 42.3 15.7 42.3 14.45 42.3 12.95 41.55 L11.75 40.85 11.3 40.25 15.35 39.65" fill="#45f1ff" fill-rule="evenodd" stroke="none"/>
    <path d="M18.3 41.7 L18.6 41.25 19.15 41.35 19.25 42.3 18.8 42.8 18.5 43.0 17.9 43.25 18.3 41.7" fill="#098fff" fill-rule="evenodd" stroke="none"/>
    <path d="M12.4 41.7 L12.75 43.25 12.15 43.0 11.85 42.8 11.4 42.3 11.55 41.35 12.05 41.25 12.4 41.7" fill="#098fff" fill-rule="evenodd" stroke="none"/>
    <path d="M16.65 37.9 Q16.65 38.5 16.25 38.85 15.9 39.25 15.3 39.25 14.7 39.25 14.3 38.85 13.9 38.5 13.9 37.9 13.9 37.35 14.3 36.95 14.7 36.5 15.3 36.5 15.9 36.5 16.25 36.95 16.65 37.35 16.65 37.9" fill="#08b2ff" fill-rule="evenodd" stroke="none"/>
    <path d="M16.65 37.9 Q16.65 38.5 16.25 38.85 15.9 39.25 15.3 39.25 14.7 39.25 14.3 38.85 13.9 38.5 13.9 37.9 13.9 37.35 14.3 36.95 14.7 36.5 15.3 36.5 15.9 36.5 16.25 36.95 16.65 37.35 16.65 37.9 Z" ffdec:has-small-stroke="true" ffdec:original-stroke-width="0.5" fill="none" stroke="#00e3ff" stroke-linecap="butt" stroke-linejoin="miter-clip" stroke-miterlimit="4.0" stroke-width="1.0"/>
  </g>
  <defs>
    <linearGradient gradientTransform="matrix(0.0171, 0.0, 0.0, -0.0171, 15.45, 42.4)" gradientUnits="userSpaceOnUse" id="gradient0" spreadMethod="pad" x1="-819.2" x2="819.2">
      <stop offset="0.0" stop-color="#373737"/>
      <stop offset="0.6549019607843137" stop-color="#a4a4a4"/>
      <stop offset="0.803921568627451" stop-color="#a4a4a4"/>
      <stop offset="1.0" stop-color="#6b6b6b"/>
    </linearGradient>
    <linearGradient gradientTransform="matrix(0.0188, 0.0, 0.0, 0.0156, 20.45, 12.15)" gradientUnits="userSpaceOnUse" id="gradient1" spreadMethod="pad" x1="-819.2" x2="819.2">
      <stop offset="0.0" stop-color="#0078ff"/>
      <stop offset="0.0196078431372549" stop-color="#0074ff" stop-opacity="0.90588236"/>
      <stop offset="0.12941176470588237" stop-color="#0063ff" stop-opacity="0.49803922"/>
      <stop offset="0.26666666666666666" stop-color="#0058ff" stop-opacity="0.20784314"/>
      <stop offset="0.4627450980392157" stop-color="#0051ff" stop-opacity="0.043137256"/>
      <stop offset="1.0" stop-color="#004fff" stop-opacity="0.0"/>
    </linearGradient>
  </defs>
</svg>
