<?xml version="1.0" encoding="UTF-8" standalone="no"?>
<svg xmlns:ffdec="https://www.free-decompiler.com/flash" xmlns:xlink="http://www.w3.org/1999/xlink" ffdec:objectType="shape" height="60.9px" width="31.05px" xmlns="http://www.w3.org/2000/svg">
  <g transform="matrix(1.0, 0.0, 0.0, 1.0, 0.05, -11.95)">
    <path d="M31.0 27.6 L31.0 56.25 Q31.0 57.5 30.2 58.8 29.45 60.1 28.35 60.75 L7.25 72.45 4.9 72.8 Q3.55 72.55 2.8 71.6 L1.8 70.3 Q1.0 69.35 0.5 67.75 -0.05 66.2 -0.05 64.95 L-0.05 18.7 Q-0.05 17.45 0.55 15.95 1.2 14.45 2.05 13.55 L2.55 13.1 Q3.4 12.2 4.8 12.0 6.2 11.8 7.3 12.35 L28.3 23.2 Q29.4 23.75 30.2 25.05 31.0 26.35 31.0 27.6" fill="url(#gradient0)" fill-rule="evenodd" stroke="none"/>
    <path d="M3.35 50.2 Q3.35 53.05 2.75 54.45 2.15 55.65 2.15 58.75 L2.15 59.9 Q2.15 61.15 2.75 62.65 3.4 64.15 4.25 65.0 L4.75 65.55 Q5.6 66.4 7.0 66.6 8.4 66.8 9.45 66.2 L25.3 57.4 Q26.4 56.8 27.15 55.45 27.95 54.15 27.95 52.9 L27.95 52.45 Q27.95 49.45 27.4 48.55 26.85 47.55 26.85 44.6 L26.85 39.7 Q26.85 36.65 27.4 35.9 27.95 35.1 27.95 32.05 L27.95 31.15 Q27.95 29.9 27.15 28.65 26.4 27.35 25.3 26.75 L9.5 18.6 Q8.4 18.05 6.95 18.2 5.45 18.3 4.5 19.1 L4.45 19.15 Q3.5 19.9 2.85 21.35 2.15 22.75 2.15 24.0 L2.15 26.5 Q2.15 29.55 2.75 30.9 3.35 32.4 3.35 35.3 L3.35 50.2" fill="#2b2b2a" fill-rule="evenodd" stroke="none"/>
    <path d="M7.95 22.25 L9.6 22.45 23.25 29.55 24.5 30.8 Q25.0 31.65 25.0 32.45 L25.0 51.1 Q25.0 51.95 24.5 52.8 24.0 53.7 23.3 54.1 L9.55 61.7 7.95 61.95 Q7.1 61.8 6.6 61.15 L5.95 60.35 Q5.45 59.7 5.1 58.65 4.75 57.6 4.75 56.8 L4.75 26.65 Q4.75 25.8 5.15 24.8 5.55 23.8 6.15 23.2 L6.4 22.95 Q7.0 22.4 7.95 22.25" fill="url(#gradient1)" fill-rule="evenodd" stroke="none"/>
    <path d="M7.95 22.25 L9.6 22.45 23.25 29.55 24.5 30.8 Q25.0 31.65 25.0 32.45 L25.0 51.1 Q25.0 51.95 24.5 52.8 24.0 53.7 23.3 54.1 L9.55 61.7 7.95 61.95 Q7.1 61.8 6.6 61.15 L5.95 60.35 Q5.45 59.7 5.1 58.65 4.75 57.6 4.75 56.8 L4.75 26.65 Q4.75 25.8 5.15 24.8 5.55 23.8 6.15 23.2 L6.4 22.95 Q7.0 22.4 7.95 22.25 Z" fill="none" stroke="#f19e24" stroke-linecap="butt" stroke-linejoin="miter-clip" stroke-miterlimit="4.0" stroke-width="1.0"/>
    <path d="M7.95 22.25 L9.6 22.45 23.25 29.55 24.5 30.8 Q25.0 31.65 25.0 32.45 L25.0 51.1 Q25.0 51.95 24.5 52.8 24.0 53.7 23.3 54.1 L9.55 61.7 7.95 61.95 Q7.1 61.8 6.6 61.15 L5.95 60.35 Q5.45 59.7 5.1 58.65 4.75 57.6 4.75 56.8 L4.75 26.65 Q4.75 25.8 5.15 24.8 5.55 23.8 6.15 23.2 L6.4 22.95 Q7.0 22.4 7.95 22.25 Z" fill="none" stroke="#f19e24" stroke-linecap="butt" stroke-linejoin="miter-clip" stroke-miterlimit="4.0" stroke-width="1.0"/>
    <path d="M22.5 47.8 L8.15 47.8 12.1 45.9 12.9 44.35 18.15 44.35 19.0 45.9 22.5 47.8" fill="#fec501" fill-rule="evenodd" stroke="none"/>
    <path d="M16.5 46.6 L14.3 46.6 12.45 43.6 11.3 40.15 19.35 40.1 18.65 43.6 16.5 46.6" fill="#cc9e00" fill-rule="evenodd" stroke="none"/>
    <path d="M19.6 36.9 L20.95 38.25 20.95 39.3 20.0 39.55 19.5 40.9 18.5 41.7 Q17.25 42.5 15.8 42.5 14.4 42.5 12.75 41.7 L11.4 40.9 10.2 39.3 9.15 39.3 9.15 38.0 11.0 36.7 13.95 32.85 17.55 32.85 19.6 36.9" fill="#fec501" fill-rule="evenodd" stroke="none"/>
    <path d="M20.35 39.5 L20.0 39.55 19.5 40.9 18.5 41.7 Q17.25 42.5 15.8 42.5 14.4 42.5 12.75 41.7 L11.4 40.9 10.35 39.5 Q10.6 38.25 12.05 37.4 13.45 36.55 15.35 36.55 17.25 36.55 18.65 37.4 20.05 38.25 20.35 39.5" fill="#cc9e00" fill-rule="evenodd" stroke="none"/>
    <path d="M18.5 41.7 Q17.25 42.5 15.8 42.5 14.4 42.5 12.75 41.7 L11.4 40.9 10.9 40.25 Q12.65 39.55 15.4 39.55 18.15 39.55 19.75 40.2 L19.5 40.9 18.5 41.7" fill="#ffcc00" fill-rule="evenodd" stroke="none"/>
    <path d="M19.0 41.35 L19.6 41.45 19.75 42.5 19.25 43.05 18.9 43.3 18.25 43.55 18.65 41.85 19.0 41.35" fill="#cc9e00" fill-rule="evenodd" stroke="none"/>
    <path d="M11.75 41.35 L12.1 41.85 12.5 43.55 11.85 43.3 11.5 43.05 11.0 42.5 11.15 41.45 11.75 41.35" fill="#cc9e00" fill-rule="evenodd" stroke="none"/>
    <path d="M16.4 38.7 L15.35 39.15 Q14.7 39.15 14.25 38.7 13.8 38.3 13.8 37.65 13.8 37.0 14.25 36.55 14.7 36.1 15.35 36.1 16.0 36.1 16.4 36.55 L16.85 37.65 Q16.85 38.3 16.4 38.7" fill="#ffcc00" fill-rule="evenodd" stroke="none"/>
    <path d="M16.4 38.7 L15.35 39.15 Q14.7 39.15 14.25 38.7 13.8 38.3 13.8 37.65 13.8 37.0 14.25 36.55 14.7 36.1 15.35 36.1 16.0 36.1 16.4 36.55 L16.85 37.65 Q16.85 38.3 16.4 38.7 Z" ffdec:has-small-stroke="true" ffdec:original-stroke-width="0.5" fill="none" stroke="#ffff00" stroke-linecap="butt" stroke-linejoin="miter-clip" stroke-miterlimit="4.0" stroke-width="1.0"/>
  </g>
  <defs>
    <linearGradient gradientTransform="matrix(0.019, 0.0, 0.0, -0.019, 15.45, 42.4)" gradientUnits="userSpaceOnUse" id="gradient0" spreadMethod="pad" x1="-819.2" x2="819.2">
      <stop offset="0.0" stop-color="#373737"/>
      <stop offset="0.6549019607843137" stop-color="#a4a4a4"/>
      <stop offset="0.803921568627451" stop-color="#a4a4a4"/>
      <stop offset="1.0" stop-color="#6b6b6b"/>
    </linearGradient>
    <linearGradient gradientTransform="matrix(0.0118, 0.0, 0.0, 0.0085, 15.45, 77.7)" gradientUnits="userSpaceOnUse" id="gradient1" spreadMethod="pad" x1="-819.2" x2="819.2">
      <stop offset="0.0" stop-color="#eb8242"/>
      <stop offset="0.00392156862745098" stop-color="#e87f40"/>
      <stop offset="0.043137254901960784" stop-color="#cb6129"/>
      <stop offset="0.08627450980392157" stop-color="#b34917"/>
      <stop offset="0.13333333333333333" stop-color="#a3380a"/>
      <stop offset="0.1803921568627451" stop-color="#992e02"/>
      <stop offset="0.24313725490196078" stop-color="#962b00"/>
      <stop offset="0.4392156862745098" stop-color="#982e00"/>
      <stop offset="0.592156862745098" stop-color="#9f3800"/>
      <stop offset="0.7333333333333333" stop-color="#ab4901"/>
      <stop offset="0.8666666666666667" stop-color="#bb6002"/>
      <stop offset="0.996078431372549" stop-color="#d07f03"/>
      <stop offset="1.0" stop-color="#d18003"/>
    </linearGradient>
  </defs>
</svg>
