<?xml version="1.0" encoding="UTF-8" standalone="no"?>
<svg xmlns:ffdec="https://www.free-decompiler.com/flash" xmlns:xlink="http://www.w3.org/1999/xlink" ffdec:objectType="shape" height="18.1px" width="10.7px" xmlns="http://www.w3.org/2000/svg">
  <g transform="matrix(1.0, 0.0, 0.0, 1.0, -10.95, -32.5)">
    <path d="M20.75 50.1 L12.05 48.45 Q11.45 48.35 11.45 47.8 L11.45 35.35 Q11.45 34.75 12.05 34.65 L20.75 33.0 Q21.15 33.0 21.15 33.35 L21.15 49.8 21.05 50.05 20.85 50.1 20.75 50.1" fill="#0062ff" fill-rule="evenodd" stroke="none"/>
    <path d="M20.85 32.5 Q21.65 32.5 21.65 33.35 L21.65 49.8 Q21.65 50.6 20.85 50.6 L20.65 50.6 11.95 48.95 Q11.55 48.9 11.25 48.55 10.95 48.2 10.95 47.8 L10.95 35.35 Q10.95 34.95 11.25 34.6 11.55 34.25 11.95 34.15 L20.65 32.5 20.85 32.5 M20.65 49.55 L20.65 33.55 12.1 35.15 11.95 35.35 11.95 47.8 12.15 48.0 20.65 49.55" fill="#069aff" fill-rule="evenodd" stroke="none"/>
    <path d="M16.7 45.3 L15.9 45.3 15.9 35.7 16.7 35.7 16.7 45.3" fill="#66ffff" fill-rule="evenodd" stroke="none"/>
    <path d="M20.0 44.75 L16.25 43.45 16.25 39.6 20.0 43.95 20.0 44.75" fill="#66ffff" fill-rule="evenodd" stroke="none"/>
    <path d="M12.6 44.75 L12.6 43.95 16.35 39.6 16.35 43.45 12.6 44.75" fill="#66ffff" fill-rule="evenodd" stroke="none"/>
    <path d="M18.15 46.55 L16.25 46.05 16.25 44.75 18.15 45.9 18.15 46.55" fill="#66ffff" fill-rule="evenodd" stroke="none"/>
    <path d="M14.25 46.55 L14.25 45.9 16.35 44.75 16.35 46.05 14.25 46.55" fill="#66ffff" fill-rule="evenodd" stroke="none"/>
  </g>
</svg>
