<?xml version="1.0" encoding="UTF-8" standalone="no"?>
<svg xmlns:ffdec="https://www.free-decompiler.com/flash" xmlns:xlink="http://www.w3.org/1999/xlink" ffdec:objectType="shape" height="54.85px" width="27.95px" xmlns="http://www.w3.org/2000/svg">
  <g transform="matrix(1.0, 0.0, 0.0, 1.0, -1.6, -14.95)">
    <path d="M25.2 15.0 Q26.45 15.2 27.25 16.0 L27.7 16.4 Q28.45 17.2 29.0 18.55 29.55 19.9 29.55 21.05 L29.55 62.65 Q29.55 63.8 29.05 65.15 28.6 66.6 27.9 67.45 L27.0 68.65 Q26.35 69.5 25.1 69.7 23.95 69.95 23.0 69.4 13.5 64.15 4.0 58.85 3.0 58.3 2.35 57.1 1.6 55.95 1.6 54.8 L1.6 29.05 Q1.6 27.9 2.35 26.75 3.05 25.55 4.05 25.1 L22.95 15.3 Q23.95 14.8 25.2 15.0" fill="url(#gradient0)" fill-rule="evenodd" stroke="none"/>
    <path d="M26.5 49.4 Q26.5 51.95 27.05 53.2 27.6 54.3 27.6 57.1 L27.6 58.1 Q27.6 59.25 27.05 60.6 26.5 61.95 25.7 62.7 L25.25 63.2 Q24.5 63.95 23.25 64.15 L21.05 63.8 6.75 55.85 Q5.8 55.3 5.1 54.1 4.4 52.95 4.4 51.8 L4.4 51.4 Q4.4 48.7 4.9 47.9 5.35 47.0 5.35 44.35 L5.35 39.95 Q5.35 37.2 4.9 36.5 4.4 35.8 4.4 33.05 L4.4 32.25 Q4.4 31.1 5.1 30.0 5.8 28.8 6.75 28.3 L21.0 20.95 Q22.0 20.45 23.3 20.6 24.65 20.65 25.5 21.4 L25.55 21.45 Q26.4 22.1 26.95 23.4 27.6 24.7 27.6 25.8 L27.6 28.05 Q27.6 30.8 27.05 32.0 26.5 33.35 26.5 35.95 L26.5 49.4" fill="#2b2b2a" fill-rule="evenodd" stroke="none"/>
    <path d="M8.65 30.8 L20.95 24.4 22.4 24.2 Q23.25 24.35 23.8 24.85 L24.05 25.1 24.95 26.5 25.3 28.2 25.3 55.3 25.0 57.0 24.2 58.5 23.65 59.25 Q23.2 59.8 22.4 59.95 L20.95 59.75 8.6 52.9 Q7.95 52.55 7.5 51.7 7.05 50.95 7.05 50.2 L7.05 33.4 Q7.05 32.7 7.5 31.9 L8.65 30.8" fill="#043095" fill-rule="evenodd" stroke="none"/>
    <path d="M8.65 30.8 L20.95 24.4 22.4 24.2 Q23.25 24.35 23.8 24.85 L24.05 25.1 24.95 26.5 25.3 28.2 25.3 55.3 25.0 57.0 24.2 58.5 23.65 59.25 Q23.2 59.8 22.4 59.95 L20.95 59.75 8.6 52.9 Q7.95 52.55 7.5 51.7 7.05 50.95 7.05 50.2 L7.05 33.4 Q7.05 32.7 7.5 31.9 L8.65 30.8" fill="url(#gradient1)" fill-rule="evenodd" stroke="none"/>
    <path d="M8.65 30.8 L7.5 31.9 Q7.05 32.7 7.05 33.4 L7.05 50.2 Q7.05 50.95 7.5 51.7 7.95 52.55 8.6 52.9 L20.95 59.75 22.4 59.95 Q23.2 59.8 23.65 59.25 L24.2 58.5 25.0 57.0 25.3 55.3 25.3 28.2 24.95 26.5 24.05 25.1 23.8 24.85 Q23.25 24.35 22.4 24.2 L20.95 24.4 8.65 30.8 Z" fill="none" stroke="#069aff" stroke-linecap="butt" stroke-linejoin="miter-clip" stroke-miterlimit="4.0" stroke-width="1.0"/>
    <path d="M20.35 49.25 L12.5 47.75 Q12.0 47.65 12.0 47.15 L12.0 35.95 Q12.0 35.45 12.5 35.35 L20.35 33.85 20.7 34.15 20.7 48.95 20.6 49.2 20.45 49.25 20.35 49.25" fill="#0062ff" fill-rule="evenodd" stroke="none"/>
    <path d="M20.25 48.75 L20.25 34.35 12.55 35.8 12.45 35.95 12.45 47.15 12.6 47.35 20.25 48.75 M20.45 33.4 Q21.15 33.4 21.15 34.15 L21.15 48.95 Q21.15 49.7 20.45 49.7 L20.25 49.7 12.45 48.2 11.8 47.85 11.55 47.15 11.55 35.95 Q11.55 35.6 11.8 35.3 L12.45 34.9 20.25 33.4 20.45 33.4" fill="#069aff" fill-rule="evenodd" stroke="none"/>
    <path d="M16.7 44.9 L16.0 44.9 16.0 36.3 16.7 36.3 16.7 44.9" fill="#66ffff" fill-rule="evenodd" stroke="none"/>
    <path d="M19.65 44.45 L16.3 43.25 16.3 39.8 19.65 43.7 19.65 44.45" fill="#66ffff" fill-rule="evenodd" stroke="none"/>
    <path d="M13.0 44.45 L13.0 43.7 16.4 39.8 16.4 43.25 13.0 44.45" fill="#66ffff" fill-rule="evenodd" stroke="none"/>
    <path d="M18.0 46.05 L16.3 45.6 16.3 44.45 18.0 45.45 18.0 46.05" fill="#66ffff" fill-rule="evenodd" stroke="none"/>
    <path d="M14.5 46.05 L14.5 45.45 16.4 44.45 16.4 45.6 14.5 46.05" fill="#66ffff" fill-rule="evenodd" stroke="none"/>
  </g>
  <defs>
    <linearGradient gradientTransform="matrix(0.0171, 0.0, 0.0, 0.0171, 15.6, 42.35)" gradientUnits="userSpaceOnUse" id="gradient0" spreadMethod="pad" x1="-819.2" x2="819.2">
      <stop offset="0.0" stop-color="#373737"/>
      <stop offset="0.6549019607843137" stop-color="#a4a4a4"/>
      <stop offset="0.803921568627451" stop-color="#a4a4a4"/>
      <stop offset="1.0" stop-color="#6b6b6b"/>
    </linearGradient>
    <linearGradient gradientTransform="matrix(-0.0188, 0.0, 0.0, 0.0156, 10.65, 12.1)" gradientUnits="userSpaceOnUse" id="gradient1" spreadMethod="pad" x1="-819.2" x2="819.2">
      <stop offset="0.0" stop-color="#0078ff"/>
      <stop offset="0.0196078431372549" stop-color="#0074ff" stop-opacity="0.90588236"/>
      <stop offset="0.12941176470588237" stop-color="#0063ff" stop-opacity="0.49803922"/>
      <stop offset="0.26666666666666666" stop-color="#0058ff" stop-opacity="0.20784314"/>
      <stop offset="0.4627450980392157" stop-color="#0051ff" stop-opacity="0.043137256"/>
      <stop offset="1.0" stop-color="#004fff" stop-opacity="0.0"/>
    </linearGradient>
  </defs>
</svg>
