<?xml version="1.0" encoding="UTF-8" standalone="no"?>
<svg xmlns:ffdec="https://www.free-decompiler.com/flash" xmlns:xlink="http://www.w3.org/1999/xlink" ffdec:objectType="shape" height="60.9px" width="31.05px" xmlns="http://www.w3.org/2000/svg">
  <g transform="matrix(1.0, 0.0, 0.0, 1.0, -0.05, -11.95)">
    <path d="M26.25 12.0 Q27.65 12.2 28.5 13.1 L29.0 13.55 Q29.85 14.45 30.5 15.95 31.1 17.45 31.1 18.7 L31.1 64.95 Q31.1 66.2 30.55 67.75 30.05 69.35 29.25 70.3 L28.25 71.6 Q27.5 72.55 26.15 72.8 24.85 73.05 23.8 72.45 L2.7 60.75 Q1.6 60.1 0.85 58.8 0.05 57.5 0.05 56.25 L0.05 27.6 Q0.05 26.35 0.85 25.05 1.65 23.75 2.75 23.2 L23.75 12.35 Q24.85 11.8 26.25 12.0" fill="url(#gradient0)" fill-rule="evenodd" stroke="none"/>
    <path d="M27.75 50.2 Q27.75 53.05 28.35 54.45 28.95 55.65 28.95 58.75 L28.95 59.9 Q28.95 61.15 28.35 62.65 27.7 64.15 26.85 65.0 L26.35 65.55 Q25.5 66.4 24.1 66.6 22.7 66.8 21.65 66.2 L5.8 57.4 Q4.7 56.8 3.95 55.45 3.15 54.15 3.15 52.9 L3.15 52.45 Q3.15 49.45 3.7 48.55 4.25 47.55 4.25 44.6 L4.25 39.7 Q4.25 36.65 3.7 35.9 3.15 35.1 3.15 32.05 L3.15 31.15 Q3.15 29.9 3.95 28.65 4.7 27.35 5.8 26.75 L21.6 18.6 Q22.7 18.05 24.15 18.2 25.65 18.3 26.6 19.1 L26.65 19.15 Q27.6 19.9 28.25 21.35 28.95 22.75 28.95 24.0 L28.95 26.5 Q28.95 29.55 28.35 30.9 27.75 32.4 27.75 35.3 L27.75 50.2" fill="#2b2b2a" fill-rule="evenodd" stroke="none"/>
    <path d="M23.15 22.25 Q24.1 22.4 24.7 22.95 L24.95 23.2 Q25.55 23.8 25.95 24.8 26.35 25.8 26.35 26.65 L26.35 56.8 26.0 58.65 25.15 60.35 24.5 61.15 Q24.0 61.8 23.15 61.95 L21.55 61.7 7.8 54.1 Q7.1 53.7 6.6 52.8 6.1 51.95 6.1 51.1 L6.1 32.45 Q6.1 31.65 6.6 30.8 7.15 29.95 7.85 29.55 L21.5 22.45 23.15 22.25" fill="url(#gradient1)" fill-rule="evenodd" stroke="none"/>
    <path d="M23.15 22.25 L21.5 22.45 7.85 29.55 Q7.15 29.95 6.6 30.8 6.1 31.65 6.1 32.45 L6.1 51.1 Q6.1 51.95 6.6 52.8 7.1 53.7 7.8 54.1 L21.55 61.7 23.15 61.95 Q24.0 61.8 24.5 61.15 L25.15 60.35 26.0 58.65 26.35 56.8 26.35 26.65 Q26.35 25.8 25.95 24.8 25.55 23.8 24.95 23.2 L24.7 22.95 Q24.1 22.4 23.15 22.25 Z" fill="none" stroke="#f19e24" stroke-linecap="butt" stroke-linejoin="miter-clip" stroke-miterlimit="4.0" stroke-width="1.0"/>
    <path d="M23.15 22.25 L21.5 22.45 7.85 29.55 Q7.15 29.95 6.6 30.8 6.1 31.65 6.1 32.45 L6.1 51.1 Q6.1 51.95 6.6 52.8 7.1 53.7 7.8 54.1 L21.55 61.7 23.15 61.95 Q24.0 61.8 24.5 61.15 L25.15 60.35 26.0 58.65 26.35 56.8 26.35 26.65 Q26.35 25.8 25.95 24.8 25.55 23.8 24.95 23.2 L24.7 22.95 Q24.1 22.4 23.15 22.25 Z" fill="none" stroke="#f19e24" stroke-linecap="butt" stroke-linejoin="miter-clip" stroke-miterlimit="4.0" stroke-width="1.0"/>
    <path d="M20.75 50.1 L12.05 48.45 Q11.45 48.35 11.45 47.8 L11.45 35.35 Q11.45 34.75 12.05 34.65 L20.75 33.0 Q21.15 33.0 21.15 33.35 L21.15 49.8 21.05 50.05 20.85 50.1 20.75 50.1" fill="#ff9900" fill-rule="evenodd" stroke="none"/>
    <path d="M11.95 35.35 L11.95 47.8 12.15 48.0 20.65 49.55 20.65 33.55 12.1 35.15 11.95 35.35 M11.95 48.95 Q11.55 48.9 11.25 48.55 10.95 48.2 10.95 47.8 L10.95 35.35 Q10.95 34.95 11.25 34.6 11.55 34.25 11.95 34.15 L20.65 32.5 20.85 32.5 Q21.65 32.5 21.65 33.35 L21.65 49.8 Q21.65 50.6 20.85 50.6 L20.65 50.6 11.95 48.95" fill="#c67700" fill-rule="evenodd" stroke="none"/>
    <path d="M16.7 45.3 L15.9 45.3 15.9 35.7 16.7 35.7 16.7 45.3" fill="#ffcc00" fill-rule="evenodd" stroke="none"/>
    <path d="M20.0 44.75 L16.25 43.45 16.25 39.6 20.0 43.95 20.0 44.75" fill="#ffcc00" fill-rule="evenodd" stroke="none"/>
    <path d="M12.6 44.75 L12.6 43.95 16.35 39.6 16.35 43.45 12.6 44.75" fill="#ffcc00" fill-rule="evenodd" stroke="none"/>
    <path d="M18.15 46.55 L16.25 46.05 16.25 44.75 18.15 45.9 18.15 46.55" fill="#ffcc00" fill-rule="evenodd" stroke="none"/>
    <path d="M14.25 46.55 L14.25 45.9 16.35 44.75 16.35 46.05 14.25 46.55" fill="#ffcc00" fill-rule="evenodd" stroke="none"/>
  </g>
  <defs>
    <linearGradient gradientTransform="matrix(0.019, 0.0, 0.0, 0.019, 15.6, 42.4)" gradientUnits="userSpaceOnUse" id="gradient0" spreadMethod="pad" x1="-819.2" x2="819.2">
      <stop offset="0.0" stop-color="#373737"/>
      <stop offset="0.6549019607843137" stop-color="#a4a4a4"/>
      <stop offset="0.803921568627451" stop-color="#a4a4a4"/>
      <stop offset="1.0" stop-color="#6b6b6b"/>
    </linearGradient>
    <linearGradient gradientTransform="matrix(-0.0118, 0.0, 0.0, 0.0085, 15.65, 77.7)" gradientUnits="userSpaceOnUse" id="gradient1" spreadMethod="pad" x1="-819.2" x2="819.2">
      <stop offset="0.0" stop-color="#eb8242"/>
      <stop offset="0.00392156862745098" stop-color="#e87f40"/>
      <stop offset="0.043137254901960784" stop-color="#cb6129"/>
      <stop offset="0.08627450980392157" stop-color="#b34917"/>
      <stop offset="0.13333333333333333" stop-color="#a3380a"/>
      <stop offset="0.1803921568627451" stop-color="#992e02"/>
      <stop offset="0.24313725490196078" stop-color="#962b00"/>
      <stop offset="0.4392156862745098" stop-color="#982e00"/>
      <stop offset="0.592156862745098" stop-color="#9f3800"/>
      <stop offset="0.7333333333333333" stop-color="#ab4901"/>
      <stop offset="0.8666666666666667" stop-color="#bb6002"/>
      <stop offset="0.996078431372549" stop-color="#d07f03"/>
      <stop offset="1.0" stop-color="#d18003"/>
    </linearGradient>
  </defs>
</svg>
