<?xml version="1.0" encoding="UTF-8" standalone="no"?>
<svg xmlns:ffdec="https://www.free-decompiler.com/flash" xmlns:xlink="http://www.w3.org/1999/xlink" ffdec:objectType="shape" height="339.5px" width="529.5px" xmlns="http://www.w3.org/2000/svg">
  <g transform="matrix(1.0, 0.0, 0.0, 1.0, 268.3, 157.3)">
    <path d="M95.15 138.85 L18.1 138.85 Q16.85 138.85 15.55 139.65 14.25 140.4 13.65 141.5 L5.9 155.45 Q5.3 156.55 5.75 157.3 6.15 158.1 7.4 158.1 L107.0 158.1 Q108.25 158.1 108.65 157.35 109.05 156.6 108.4 155.55 L99.7 141.45 Q99.05 140.35 97.75 139.6 96.4 138.85 95.15 138.85 Z" fill="none" stroke="#181919" stroke-linecap="butt" stroke-linejoin="miter-clip" stroke-miterlimit="4.0" stroke-width="2.0"/>
    <path d="M95.15 138.85 Q96.4 138.85 97.75 139.6 99.05 140.35 99.7 141.45 L108.4 155.55 Q109.05 156.6 108.65 157.35 108.25 158.1 107.0 158.1 L7.4 158.1 Q6.15 158.1 5.75 157.3 5.3 156.55 5.9 155.45 L13.65 141.5 Q14.25 140.4 15.55 139.65 16.85 138.85 18.1 138.85 L95.15 138.85" fill="#1e1e1e" fill-rule="evenodd" stroke="none"/>
    <path d="M114.75 139.6 Q113.4 138.85 112.15 138.85 L18.1 138.85 Q16.85 138.85 15.55 139.65 14.25 140.4 13.65 141.5 L5.9 155.45 Q5.3 156.55 5.75 157.3 6.15 158.1 7.4 158.1 L124.0 158.1 Q125.25 158.1 125.65 157.35 126.05 156.6 125.4 155.55 L116.7 141.45 Q116.05 140.35 114.75 139.6 Z" fill="none" stroke="#181919" stroke-linecap="butt" stroke-linejoin="miter-clip" stroke-miterlimit="4.0" stroke-width="2.0"/>
    <path d="M114.75 139.6 Q116.05 140.35 116.7 141.45 L125.4 155.55 Q126.05 156.6 125.65 157.35 125.25 158.1 124.0 158.1 L7.4 158.1 Q6.15 158.1 5.75 157.3 5.3 156.55 5.9 155.45 L13.65 141.5 Q14.25 140.4 15.55 139.65 16.85 138.85 18.1 138.85 L112.15 138.85 Q113.4 138.85 114.75 139.6" fill="#1e1e1e" fill-rule="evenodd" stroke="none"/>
    <path d="M124.55 163.8 L114.65 180.5 113.35 181.7 Q112.45 182.2 111.6 182.2 L17.1 182.2 Q16.3 182.2 15.45 181.7 14.65 181.15 14.25 180.4 L6.65 163.9 Q6.3 163.15 6.3 162.1 6.3 161.05 6.7 160.3 L15.4 143.7 Q15.8 142.95 16.65 142.45 17.55 141.9 18.35 141.9 L111.6 141.9 Q112.45 141.9 113.35 142.4 114.25 142.95 114.65 143.65 L124.55 160.35 Q125.0 161.05 125.0 162.1 125.0 163.1 124.55 163.8" fill="url(#gradient0)" fill-rule="evenodd" stroke="none"/>
    <path d="M121.6 164.15 L113.5 177.75 Q113.0 178.6 111.9 179.2 L109.85 179.85 19.0 179.85 Q18.05 179.85 17.05 179.2 16.0 178.55 15.65 177.7 L9.5 164.45 Q9.1 163.5 9.1 162.15 9.15 160.8 9.6 159.95 L16.7 146.4 Q17.1 145.55 18.15 144.95 19.25 144.3 20.2 144.3 L109.85 144.3 Q110.85 144.3 111.9 144.9 113.0 145.55 113.5 146.4 L121.6 160.0 Q122.1 160.85 122.1 162.1 122.1 163.35 121.6 164.15" fill="url(#gradient1)" fill-rule="evenodd" stroke="none"/>
    <path d="M121.35 161.7 L121.35 162.55 9.8 162.55 9.8 161.7 121.35 161.7" fill="url(#gradient2)" fill-rule="evenodd" stroke="none"/>
    <path d="M-117.65 134.95 Q-116.4 134.95 -115.15 135.45 -113.95 135.95 -113.45 136.6 -112.95 137.25 -111.7 137.75 L-109.2 138.2 -78.0 138.2 Q-76.75 138.2 -75.3 138.85 -73.8 139.5 -73.0 140.45 L-65.65 148.75 Q-64.8 149.65 -65.1 150.35 -65.4 151.0 -66.65 151.0 L-207.65 151.0 Q-208.9 151.0 -209.2 150.3 -209.5 149.65 -208.7 148.7 L-201.8 140.5 Q-200.95 139.55 -199.55 138.9 -198.1 138.2 -196.85 138.2 L-162.05 138.2 -159.6 137.75 Q-158.4 137.25 -157.9 136.6 -157.45 135.95 -156.25 135.45 -155.05 134.95 -153.8 134.95 L-117.65 134.95" fill="#333333" fill-rule="evenodd" stroke="none"/>
    <path d="M-119.65 134.95 Q-118.4 134.95 -117.15 135.45 -115.95 135.95 -115.45 136.6 -114.95 137.25 -113.7 137.75 L-111.2 138.2 -83.0 138.2 Q-81.75 138.2 -80.3 138.85 -78.8 139.5 -78.0 140.45 L-70.65 148.75 Q-69.8 149.65 -70.1 150.35 -70.4 151.0 -71.65 151.0 L-202.65 151.0 Q-203.9 151.0 -204.2 150.3 -204.5 149.65 -203.7 148.7 L-196.8 140.5 Q-195.95 139.55 -194.55 138.9 -193.1 138.2 -191.85 138.2 L-164.05 138.2 -161.6 137.75 -159.9 136.6 Q-159.45 135.95 -158.25 135.45 -157.05 134.95 -155.8 134.95 L-119.65 134.95" fill="#1e1e1e" fill-rule="evenodd" stroke="none"/>
    <path d="M-208.5 -144.2 L-200.45 -143.15 Q-196.85 -142.1 -198.3 -139.45 L-204.05 -129.05 Q-204.75 -127.75 -206.45 -126.8 -208.15 -125.85 -209.75 -125.85 L-256.4 -125.85 Q-258.05 -125.85 -259.7 -126.8 -261.4 -127.75 -262.15 -129.05 L-267.9 -139.45 Q-269.35 -142.2 -265.75 -143.15 L-257.75 -144.2 -233.1 -145.3 -208.5 -144.2" fill="url(#gradient3)" fill-rule="evenodd" stroke="none"/>
    <path d="M-254.9 -130.6 L-261.6 -142.55 -205.5 -142.5 -211.95 -130.6 -254.9 -130.6" fill="#033363" fill-rule="evenodd" stroke="none"/>
    <path d="M-254.9 -130.6 L-211.95 -130.6 -205.5 -142.5 -261.6 -142.55 -254.9 -130.6 Z" fill="none" stroke="#424344" stroke-linecap="butt" stroke-linejoin="miter-clip" stroke-miterlimit="4.0" stroke-width="1.0"/>
    <path d="M5.1 -139.45 Q4.35 -140.8 4.95 -141.75 5.5 -142.7 7.25 -143.15 L15.25 -144.2 39.85 -145.3 64.5 -144.2 72.55 -143.15 Q76.15 -142.1 74.7 -139.45 L68.95 -129.05 Q68.2 -127.75 66.55 -126.8 64.85 -125.85 63.25 -125.85 L16.55 -125.85 Q14.95 -125.85 13.25 -126.8 11.6 -127.75 10.85 -129.05 L5.1 -139.45" fill="url(#gradient4)" fill-rule="evenodd" stroke="none"/>
    <path d="M18.1 -130.6 L11.35 -142.55 67.5 -142.5 61.05 -130.6 18.1 -130.6" fill="#033363" fill-rule="evenodd" stroke="none"/>
    <path d="M18.1 -130.6 L61.05 -130.6 67.5 -142.5 11.35 -142.55 18.1 -130.6 Z" fill="none" stroke="#424344" stroke-linecap="butt" stroke-linejoin="miter-clip" stroke-miterlimit="4.0" stroke-width="1.0"/>
    <path d="M216.25 136.4 L218.65 136.8 Q219.85 137.2 220.3 137.75 L221.9 138.75 224.35 139.15 249.95 139.15 Q251.2 139.15 252.65 139.8 254.1 140.45 254.9 141.4 L260.55 147.75 Q261.4 148.65 261.1 149.35 260.8 150.0 259.55 150.0 L140.7 150.0 Q139.45 150.0 139.15 149.3 138.85 148.65 139.65 147.7 L144.95 141.4 Q145.75 140.45 147.2 139.8 148.65 139.15 149.9 139.15 L178.55 139.15 180.95 138.75 Q182.1 138.3 182.5 137.75 182.85 137.2 184.05 136.8 L186.45 136.4 216.25 136.4" fill="#333333" fill-rule="evenodd" stroke="none"/>
    <path d="M214.55 136.4 L216.95 136.8 Q218.15 137.2 218.6 137.75 219.0 138.3 220.2 138.75 L222.65 139.15 245.7 139.15 Q246.95 139.15 248.4 139.8 249.9 140.45 250.7 141.4 L256.3 147.75 Q257.15 148.65 256.85 149.35 256.55 150.0 255.3 150.0 L144.95 150.0 Q143.7 150.0 143.4 149.3 143.1 148.65 143.9 147.7 L149.2 141.4 Q150.0 140.45 151.45 139.8 152.9 139.15 154.15 139.15 L176.85 139.15 179.25 138.75 180.8 137.75 Q181.2 137.2 182.35 136.8 L184.75 136.4 214.55 136.4" fill="#1e1e1e" fill-rule="evenodd" stroke="none"/>
    <path d="M116.4 -139.95 L116.4 -157.3 142.45 -157.3 142.45 -139.95 116.4 -139.95" fill="#ffff00" fill-opacity="0.0" fill-rule="evenodd" stroke="none"/>
  </g>
  <defs>
    <linearGradient gradientTransform="matrix(0.0, -0.0246, -0.0246, 0.0, 65.65, 162.05)" gradientUnits="userSpaceOnUse" id="gradient0" spreadMethod="pad" x1="-819.2" x2="819.2">
      <stop offset="0.0" stop-color="#a4a4a4"/>
      <stop offset="1.0" stop-color="#505050"/>
    </linearGradient>
    <linearGradient gradientTransform="matrix(0.069, 0.0, 0.0, -0.069, 65.6, 162.05)" gradientUnits="userSpaceOnUse" id="gradient1" spreadMethod="pad" x1="-819.2" x2="819.2">
      <stop offset="0.0" stop-color="#0b001c"/>
      <stop offset="0.11372549019607843" stop-color="#070733"/>
      <stop offset="0.24705882352941178" stop-color="#030d47"/>
      <stop offset="0.3843137254901961" stop-color="#011153"/>
      <stop offset="0.5176470588235295" stop-color="#001257"/>
      <stop offset="0.6627450980392157" stop-color="#011154"/>
      <stop offset="0.7764705882352941" stop-color="#020e4a"/>
      <stop offset="0.8823529411764706" stop-color="#060939"/>
      <stop offset="0.9803921568627451" stop-color="#0a0222"/>
      <stop offset="1.0" stop-color="#0b001c"/>
    </linearGradient>
    <linearGradient gradientTransform="matrix(0.0681, 0.0, 0.0, -0.0681, 65.6, 162.15)" gradientUnits="userSpaceOnUse" id="gradient2" spreadMethod="pad" x1="-819.2" x2="819.2">
      <stop offset="0.0" stop-color="#505050"/>
      <stop offset="0.5137254901960784" stop-color="#c8c8c8"/>
      <stop offset="1.0" stop-color="#505050"/>
    </linearGradient>
    <linearGradient gradientTransform="matrix(0.0, -0.0119, -0.0119, 0.0, -233.1, -135.55)" gradientUnits="userSpaceOnUse" id="gradient3" spreadMethod="pad" x1="-819.2" x2="819.2">
      <stop offset="0.0" stop-color="#373737"/>
      <stop offset="0.12549019607843137" stop-color="#aaaaaa"/>
      <stop offset="1.0" stop-color="#282828"/>
    </linearGradient>
    <linearGradient gradientTransform="matrix(0.0, -0.0119, -0.0119, 0.0, 39.9, -135.55)" gradientUnits="userSpaceOnUse" id="gradient4" spreadMethod="pad" x1="-819.2" x2="819.2">
      <stop offset="0.0" stop-color="#373737"/>
      <stop offset="0.12549019607843137" stop-color="#aaaaaa"/>
      <stop offset="1.0" stop-color="#282828"/>
    </linearGradient>
  </defs>
</svg>
