<?xml version="1.0" encoding="UTF-8" standalone="no"?>
<svg xmlns:ffdec="https://www.free-decompiler.com/flash" xmlns:xlink="http://www.w3.org/1999/xlink" ffdec:objectType="shape" height="27.5px" width="22.4px" xmlns="http://www.w3.org/2000/svg">
  <g transform="matrix(1.0, 0.0, 0.0, 1.0, 0.0, 0.0)">
    <path d="M20.8 10.5 Q22.4 10.5 22.4 12.1 L22.4 25.8 Q22.4 27.5 20.8 27.5 L1.7 27.5 Q0.0 27.5 0.0 25.8 L0.0 12.1 Q0.0 10.5 1.7 10.5 L2.2 10.5 Q1.85 2.7 7.7 0.6 L7.8 0.5 8.05 0.4 Q16.2 -1.35 19.4 4.9 20.35 6.5 20.1 10.5 L20.8 10.5 M21.7 12.1 Q21.7 11.1 20.8 11.1 L19.65 11.1 19.4 11.1 2.4 11.1 2.2 11.1 1.7 11.1 Q0.7 11.1 0.7 12.1 L0.7 25.8 Q0.7 26.85 1.7 26.85 L20.8 26.85 Q21.7 26.85 21.7 25.8 L21.7 12.1 M16.2 7.05 L16.2 10.5 19.4 10.5 Q19.55 6.7 18.85 5.1 15.85 -0.5 8.15 0.95 L8.05 0.95 7.95 1.1 Q2.55 3.05 2.85 10.5 L6.2 10.5 6.2 7.2 Q7.35 3.95 11.05 3.75 14.6 3.6 16.2 7.05 M15.65 10.5 L15.65 7.3 Q14.25 4.2 11.05 4.3 7.8 4.55 6.8 7.3 L6.8 10.5 15.65 10.5" fill="#000000" fill-rule="evenodd" stroke="none"/>
    <path d="M21.7 12.1 L21.7 25.8 Q21.7 26.85 20.8 26.85 L1.7 26.85 Q0.7 26.85 0.7 25.8 L0.7 12.1 Q0.7 11.1 1.7 11.1 L2.2 11.1 2.4 11.1 19.4 11.1 19.65 11.1 20.8 11.1 Q21.7 11.1 21.7 12.1 M2.55 24.55 Q2.55 25.55 3.55 25.55 L18.85 25.55 Q20.0 25.55 20.0 24.55 L20.0 13.5 Q20.0 12.45 18.85 12.45 L3.55 12.45 Q2.55 12.45 2.55 13.5 L2.55 24.55" fill="url(#gradient0)" fill-rule="evenodd" stroke="none"/>
    <path d="M16.2 7.05 Q14.6 3.6 11.05 3.75 7.35 3.95 6.2 7.2 L6.2 10.5 2.85 10.5 Q2.55 3.05 7.95 1.1 L8.05 0.95 8.15 0.95 Q15.85 -0.5 18.85 5.1 19.55 6.7 19.4 10.5 L16.2 10.5 16.2 7.05" fill="url(#gradient1)" fill-rule="evenodd" stroke="none"/>
    <path d="M2.55 24.55 L2.55 13.5 Q2.55 12.45 3.55 12.45 L18.85 12.45 Q20.0 12.45 20.0 13.5 L20.0 24.55 Q20.0 25.55 18.85 25.55 L3.55 25.55 Q2.55 25.55 2.55 24.55" fill="url(#gradient2)" fill-rule="evenodd" stroke="none"/>
    <path d="M9.5 17.55 Q9.5 16.95 9.95 16.55 10.4 16.15 11.05 16.15 11.7 16.15 12.15 16.55 12.6 16.95 12.6 17.55 L12.15 18.6 11.8 18.85 11.8 22.1 10.3 22.1 10.3 18.85 9.95 18.6 Q9.5 18.15 9.5 17.55" fill="#101405" fill-rule="evenodd" stroke="none"/>
    <path d="M9.0 17.55 Q9.0 16.75 9.6 16.2 10.2 15.65 11.05 15.65 11.9 15.65 12.5 16.2 13.1 16.75 13.1 17.55 13.1 18.35 12.5 18.9 L12.0 19.25 12.0 22.55 10.05 22.55 10.05 19.25 9.6 18.9 Q9.0 18.35 9.0 17.55 M9.5 17.55 Q9.5 18.15 9.95 18.6 L10.3 18.85 10.3 22.1 11.8 22.1 11.8 18.85 12.15 18.6 12.6 17.55 Q12.6 16.95 12.15 16.55 11.7 16.15 11.05 16.15 10.4 16.15 9.95 16.55 9.5 16.95 9.5 17.55" fill="url(#gradient3)" fill-rule="evenodd" stroke="none"/>
  </g>
  <defs>
    <linearGradient gradientTransform="matrix(0.0011, 0.0111, -0.0099, 0.001, 11.15, 19.0)" gradientUnits="userSpaceOnUse" id="gradient0" spreadMethod="pad" x1="-819.2" x2="819.2">
      <stop offset="0.0" stop-color="#9f9b93"/>
      <stop offset="1.0" stop-color="#39372d"/>
    </linearGradient>
    <radialGradient cx="0" cy="0" gradientTransform="matrix(0.0128, 0.0, 0.0, 0.0128, 11.15, 9.45)" gradientUnits="userSpaceOnUse" id="gradient1" r="819.2" spreadMethod="pad">
      <stop offset="0.49019607843137253" stop-color="#555555"/>
      <stop offset="0.6823529411764706" stop-color="#d9d9d9"/>
      <stop offset="0.7843137254901961" stop-color="#d5d5d5"/>
      <stop offset="0.8980392156862745" stop-color="#000000"/>
    </radialGradient>
    <linearGradient gradientTransform="matrix(0.0, 0.0082, -0.008, 0.0, 11.25, 19.0)" gradientUnits="userSpaceOnUse" id="gradient2" spreadMethod="pad" x1="-819.2" x2="819.2">
      <stop offset="0.0" stop-color="#fefad6"/>
      <stop offset="0.3058823529411765" stop-color="#a0a291"/>
      <stop offset="1.0" stop-color="#504d38"/>
    </linearGradient>
    <linearGradient gradientTransform="matrix(0.0, -0.0027, 0.0035, 0.0, 26.2, 20.15)" gradientUnits="userSpaceOnUse" id="gradient3" spreadMethod="pad" x1="-819.2" x2="819.2">
      <stop offset="0.0" stop-color="#b3b3b3"/>
      <stop offset="1.0" stop-color="#6f6f6f"/>
    </linearGradient>
  </defs>
</svg>
