<?xml version="1.0" encoding="UTF-8" standalone="no"?>
<svg xmlns:ffdec="https://www.free-decompiler.com/flash" xmlns:xlink="http://www.w3.org/1999/xlink" ffdec:objectType="shape" height="42.85px" width="42.8px" xmlns="http://www.w3.org/2000/svg">
  <g transform="matrix(1.0, 0.0, 0.0, 1.0, 0.5, 0.5)">
    <path d="M0.0 41.85 L0.0 0.0 41.8 0.0 41.8 41.85 0.0 41.85" fill="#252426" fill-rule="evenodd" stroke="none"/>
    <path d="M0.0 41.85 L41.8 41.85 41.8 0.0 0.0 0.0 0.0 41.85 Z" fill="none" stroke="#0a0d0a" stroke-linecap="butt" stroke-linejoin="miter-clip" stroke-miterlimit="4.0" stroke-width="1.0"/>
    <path d="M2.25 39.85 L1.65 39.25 5.55 35.35 6.15 35.95 2.25 39.85" fill="#40383d" fill-rule="evenodd" stroke="none"/>
    <path d="M2.25 39.85 L1.65 39.25 5.55 35.35 6.15 35.95 2.25 39.85 Z" fill="none" stroke="#30272b" stroke-linecap="butt" stroke-linejoin="miter-clip" stroke-miterlimit="4.0" stroke-width="1.0"/>
    <path d="M5.9 35.95 L5.9 5.95 35.9 5.95 35.9 35.95 5.9 35.95" fill="#333233" fill-rule="evenodd" stroke="none"/>
    <path d="M2.7 29.6 L0.0 31.6 0.0 10.8 2.7 12.8 2.7 29.6" fill="#0f120f" fill-rule="evenodd" stroke="none"/>
    <path d="M39.1 29.6 L39.1 12.8 41.8 10.8 41.8 31.6 39.1 29.6" fill="#0f120f" fill-rule="evenodd" stroke="none"/>
    <path d="M39.85 39.85 L35.95 35.95 36.55 35.35 40.45 39.25 39.85 39.85" fill="#403b3d" fill-rule="evenodd" stroke="none"/>
    <path d="M39.85 39.85 L40.45 39.25 36.55 35.35 35.95 35.95 39.85 39.85 Z" fill="none" stroke="#302a2b" stroke-linecap="butt" stroke-linejoin="miter-clip" stroke-miterlimit="4.0" stroke-width="1.0"/>
    <path d="M2.25 2.0 L6.15 5.95 5.55 6.5 1.65 2.6 2.25 2.0" fill="#403b3d" fill-rule="evenodd" stroke="none"/>
    <path d="M2.25 2.0 L1.65 2.6 5.55 6.5 6.15 5.95 2.25 2.0 Z" fill="none" stroke="#302a2b" stroke-linecap="butt" stroke-linejoin="miter-clip" stroke-miterlimit="4.0" stroke-width="1.0"/>
    <path d="M39.85 2.0 L40.45 2.6 36.55 6.5 35.95 5.95 39.85 2.0" fill="#403b3d" fill-rule="evenodd" stroke="none"/>
    <path d="M39.85 2.0 L40.45 2.6 36.55 6.5 35.95 5.95 39.85 2.0 Z" fill="none" stroke="#302a2b" stroke-linecap="butt" stroke-linejoin="miter-clip" stroke-miterlimit="4.0" stroke-width="1.0"/>
    <path d="M16.8 12.9 Q18.5 11.2 20.9 11.2 23.35 11.2 25.05 12.9 26.75 14.6 26.75 17.0 L26.75 20.7 28.55 20.7 28.55 30.6 13.3 30.6 13.3 20.7 24.75 20.7 24.75 17.0 Q24.75 15.45 23.6 14.3 22.5 13.2 20.9 13.2 19.35 13.2 18.2 14.3 17.1 15.45 17.1 17.0 L17.1 18.0 15.05 18.0 15.05 17.0 Q15.05 14.6 16.8 12.9" fill="url(#gradient0)" fill-rule="evenodd" stroke="none"/>
    <path d="M14.05 17.0 Q14.05 14.2 16.05 12.2 18.1 10.2 20.9 10.2 23.75 10.2 25.75 12.2 27.75 14.2 27.75 17.0 L27.75 19.7 29.55 19.7 29.55 31.6 12.3 31.6 12.3 19.7 23.75 19.7 23.75 17.0 Q23.75 15.85 22.9 15.0 22.05 14.2 20.9 14.2 19.75 14.2 18.9 15.0 18.1 15.85 18.1 17.0 L18.1 19.0 14.05 19.0 14.05 17.0 M16.8 12.9 Q15.05 14.6 15.05 17.0 L15.05 18.0 17.1 18.0 17.1 17.0 Q17.1 15.45 18.2 14.3 19.35 13.2 20.9 13.2 22.5 13.2 23.6 14.3 24.75 15.45 24.75 17.0 L24.75 20.7 13.3 20.7 13.3 30.6 28.55 30.6 28.55 20.7 26.75 20.7 26.75 17.0 Q26.75 14.6 25.05 12.9 23.35 11.2 20.9 11.2 18.5 11.2 16.8 12.9" fill="#1a1a1a" fill-rule="evenodd" stroke="none"/>
  </g>
  <defs>
    <linearGradient gradientTransform="matrix(0.0093, 0.0, 0.0, -0.0093, 20.9, 20.9)" gradientUnits="userSpaceOnUse" id="gradient0" spreadMethod="pad" x1="-819.2" x2="819.2">
      <stop offset="0.0" stop-color="#596b73"/>
      <stop offset="0.32941176470588235" stop-color="#8d96a1"/>
      <stop offset="0.5215686274509804" stop-color="#adb0bd"/>
      <stop offset="1.0" stop-color="#596b73"/>
    </linearGradient>
  </defs>
</svg>
