<?xml version="1.0" encoding="UTF-8" standalone="no"?>
<svg xmlns:ffdec="https://www.free-decompiler.com/flash" xmlns:xlink="http://www.w3.org/1999/xlink" ffdec:objectType="shape" height="44.9px" width="45.0px" xmlns="http://www.w3.org/2000/svg">
  <g transform="matrix(1.0, 0.0, 0.0, 1.0, 21.9, 23.2)">
    <path d="M-20.95 -22.25 L-20.95 -15.75 -21.85 -15.75 -21.85 -23.2 -14.45 -23.2 -14.45 -22.25 -20.95 -22.25" fill="#03abff" fill-rule="evenodd" stroke="none"/>
    <path d="M21.95 -22.25 L15.45 -22.25 15.45 -23.2 22.85 -23.2 22.85 -15.75 21.95 -15.75 21.95 -22.25" fill="#03abff" fill-rule="evenodd" stroke="none"/>
    <path d="M-21.0 20.8 L-14.45 20.8 -14.45 21.7 -21.9 21.7 -21.9 14.3 -21.0 14.3 -21.0 20.8" fill="#03abff" fill-rule="evenodd" stroke="none"/>
    <path d="M22.15 20.8 L22.15 14.3 23.1 14.3 23.1 21.7 15.65 21.7 15.65 20.8 22.15 20.8" fill="#03abff" fill-rule="evenodd" stroke="none"/>
  </g>
</svg>
