<?xml version="1.0" encoding="UTF-8" standalone="no"?>
<svg xmlns:ffdec="https://www.free-decompiler.com/flash" xmlns:xlink="http://www.w3.org/1999/xlink" ffdec:objectType="shape" height="386.1px" width="257.65px" xmlns="http://www.w3.org/2000/svg">
  <g transform="matrix(1.0, 0.0, 0.0, 1.0, 129.05, 192.95)">
    <path d="M113.7 -122.0 L113.7 189.15 Q113.7 190.4 112.8 191.25 111.95 192.15 110.7 192.15 L-111.15 192.15 Q-112.4 192.15 -113.25 191.25 -114.15 190.4 -114.15 189.15 L-114.15 -122.0 Q-114.15 -123.25 -113.25 -124.1 -112.4 -125.0 -111.15 -125.0 L-101.15 -125.0 -98.35 -125.3 Q-96.8 -125.6 -95.85 -126.0 -93.5 -127.0 -90.5 -127.0 L91.85 -127.0 94.65 -126.7 97.15 -126.0 Q99.5 -125.0 102.5 -125.0 L110.7 -125.0 Q111.95 -125.0 112.8 -124.1 113.7 -123.25 113.7 -122.0" fill="url(#gradient0)" fill-rule="evenodd" stroke="none"/>
    <path d="M113.7 -122.0 L113.7 189.15 Q113.7 190.4 112.8 191.25 111.95 192.15 110.7 192.15 L-111.15 192.15 Q-112.4 192.15 -113.25 191.25 -114.15 190.4 -114.15 189.15 L-114.15 -122.0 Q-114.15 -123.25 -113.25 -124.1 -112.4 -125.0 -111.15 -125.0 L-101.15 -125.0 -98.35 -125.3 Q-96.8 -125.6 -95.85 -126.0 -93.5 -127.0 -90.5 -127.0 L91.85 -127.0 94.65 -126.7 97.15 -126.0 Q99.5 -125.0 102.5 -125.0 L110.7 -125.0 Q111.95 -125.0 112.8 -124.1 113.7 -123.25 113.7 -122.0 Z" fill="none" stroke="#217cff" stroke-linecap="butt" stroke-linejoin="miter-clip" stroke-miterlimit="4.0" stroke-width="2.0"/>
    <path d="M125.3 -161.55 Q126.45 -160.4 126.45 -158.75 L126.45 -121.1 Q126.45 -119.45 125.3 -118.25 124.1 -117.1 122.45 -117.1 L103.35 -117.1 Q100.1 -117.1 97.2 -118.25 L95.25 -119.05 92.6 -119.8 89.85 -120.1 -90.65 -120.1 Q-93.5 -120.1 -96.15 -119.1 L-98.5 -118.2 Q-101.6 -117.1 -104.65 -117.1 L-122.9 -117.1 Q-124.55 -117.1 -125.7 -118.25 -126.9 -119.45 -126.9 -121.1 L-126.9 -158.75 Q-126.9 -160.4 -125.7 -161.55 -124.55 -162.75 -122.9 -162.75 L122.45 -162.75 Q124.1 -162.75 125.3 -161.55" fill="url(#gradient1)" fill-rule="evenodd" stroke="none"/>
    <path d="M124.55 -160.85 Q123.7 -161.75 122.45 -161.75 L-122.9 -161.75 Q-124.15 -161.75 -125.0 -160.85 -125.9 -160.0 -125.9 -158.75 L-125.9 -121.1 Q-125.9 -119.85 -125.0 -119.0 -124.15 -118.1 -122.9 -118.1 L-104.65 -118.1 Q-101.55 -118.1 -98.85 -119.15 L-96.5 -120.05 Q-93.55 -121.1 -90.65 -121.1 L89.85 -121.1 92.8 -120.75 95.6 -119.95 97.55 -119.2 Q100.4 -118.1 103.35 -118.1 L122.45 -118.1 Q123.7 -118.1 124.55 -119.0 125.45 -119.85 125.45 -121.1 L125.45 -158.75 Q125.45 -160.0 124.55 -160.85 M122.45 -163.75 Q124.5 -163.75 126.0 -162.3 127.45 -160.8 127.45 -158.75 L127.45 -121.1 Q127.45 -119.05 126.0 -117.55 124.5 -116.1 122.45 -116.1 L103.35 -116.1 100.0 -116.45 Q98.1 -116.8 96.8 -117.35 L94.85 -118.1 92.4 -118.8 89.85 -119.1 -90.65 -119.1 Q-93.3 -119.1 -95.75 -118.15 L-98.15 -117.25 Q-101.25 -116.1 -104.65 -116.1 L-122.9 -116.1 Q-124.95 -116.1 -126.45 -117.55 -127.9 -119.05 -127.9 -121.1 L-127.9 -158.75 Q-127.9 -160.8 -126.45 -162.3 -124.95 -163.75 -122.9 -163.75 L122.45 -163.75" fill="#0068ff" fill-rule="evenodd" stroke="none"/>
    <path d="M-18.85 -149.55 L-21.6 -150.0 Q-23.15 -150.5 -24.05 -151.15 -25.0 -151.8 -26.5 -152.25 L-29.25 -152.75 -100.6 -152.75 Q-101.85 -152.75 -103.35 -153.35 -104.9 -153.9 -105.85 -154.75 L-112.6 -161.0 Q-113.55 -161.8 -113.3 -162.4 -113.1 -163.0 -111.85 -163.0 L110.7 -163.0 Q111.95 -163.0 112.15 -162.4 112.4 -161.8 111.5 -160.95 L105.15 -154.8 Q104.25 -153.95 102.75 -153.35 101.25 -152.75 100.0 -152.75 L29.05 -152.75 26.3 -152.25 Q24.85 -151.8 23.95 -151.15 23.05 -150.5 21.55 -150.0 L18.8 -149.55 -18.85 -149.55" fill="#001e60" fill-rule="evenodd" stroke="none"/>
    <path d="M-18.85 -152.55 L-21.45 -153.0 Q-22.85 -153.5 -23.55 -154.15 -24.25 -154.8 -25.65 -155.25 L-28.25 -155.75 -100.6 -155.75 Q-101.85 -155.75 -103.35 -156.35 -104.9 -156.9 -105.85 -157.75 L-112.6 -164.0 Q-113.55 -164.8 -113.3 -165.4 -113.1 -166.0 -111.85 -166.0 L110.7 -166.0 Q111.95 -166.0 112.15 -165.4 112.4 -164.8 111.5 -163.95 L105.15 -157.8 Q104.25 -156.95 102.75 -156.35 101.25 -155.75 100.0 -155.75 L28.05 -155.75 25.45 -155.25 Q24.1 -154.8 23.45 -154.15 22.8 -153.5 21.4 -153.0 L18.8 -152.55 -18.85 -152.55" fill="#474646" fill-rule="evenodd" stroke="none"/>
    <path d="M-18.85 -152.55 L-21.45 -153.0 Q-22.85 -153.5 -23.55 -154.15 -24.25 -154.8 -25.65 -155.25 L-28.25 -155.75 -56.45 -155.75 -59.35 -156.15 Q-61.0 -156.55 -62.1 -157.1 L-63.6 -157.9 Q-64.7 -158.45 -66.4 -158.85 L-69.3 -159.25 -103.8 -159.25 Q-105.05 -159.25 -106.6 -159.85 -108.15 -160.4 -109.1 -161.2 L-112.55 -164.1 Q-113.5 -164.9 -113.3 -165.45 -113.1 -166.0 -111.85 -166.0 L110.7 -166.0 Q111.95 -166.0 112.2 -165.35 112.45 -164.75 111.6 -163.85 L109.25 -161.45 Q108.4 -160.55 106.9 -159.9 105.4 -159.25 104.15 -159.25 L68.05 -159.25 65.15 -158.8 Q63.5 -158.4 62.4 -157.8 L61.25 -157.2 Q60.15 -156.6 58.5 -156.15 L55.6 -155.75 28.05 -155.75 25.45 -155.25 Q24.1 -154.8 23.45 -154.15 22.8 -153.5 21.4 -153.0 L18.8 -152.55 -18.85 -152.55" fill="url(#gradient2)" fill-rule="evenodd" stroke="none"/>
    <path d="M-123.35 -149.15 Q-122.75 -147.65 -122.75 -146.4 L-122.75 -129.45 Q-122.75 -128.2 -123.35 -126.7 -123.95 -125.15 -124.8 -124.25 L-127.0 -121.8 Q-127.85 -120.9 -128.45 -121.15 -129.05 -121.35 -129.05 -122.6 L-129.05 -152.95 Q-129.05 -154.2 -128.45 -154.45 -127.8 -154.7 -126.95 -153.8 L-124.85 -151.6 Q-124.0 -150.7 -123.35 -149.15" fill="url(#gradient3)" fill-rule="evenodd" stroke="none"/>
    <path d="M122.9 -149.15 Q123.55 -150.7 124.4 -151.6 L126.5 -153.8 Q127.35 -154.7 128.0 -154.45 128.6 -154.2 128.6 -152.95 L128.6 -122.6 Q128.6 -121.35 128.0 -121.15 127.4 -120.9 126.55 -121.8 L124.35 -124.25 Q123.5 -125.15 122.9 -126.7 122.3 -128.2 122.3 -129.45 L122.3 -146.4 Q122.3 -147.65 122.9 -149.15" fill="url(#gradient4)" fill-rule="evenodd" stroke="none"/>
    <path d="M50.7 -166.0 L51.6 -165.75 Q51.65 -165.45 50.95 -165.05 L44.75 -161.7 Q43.0 -160.75 41.0 -160.75 L26.05 -160.75 24.15 -160.4 22.45 -159.5 21.4 -158.75 Q20.75 -158.25 19.7 -157.9 L17.8 -157.55 -17.85 -157.55 -19.75 -157.9 Q-20.8 -158.2 -21.45 -158.7 L-22.65 -159.55 -24.35 -160.4 -26.25 -160.75 -41.6 -160.75 Q-43.6 -160.75 -45.4 -161.65 L-52.05 -165.1 Q-52.8 -165.45 -52.75 -165.75 L-51.85 -166.0 50.7 -166.0" fill="#333333" fill-rule="evenodd" stroke="none"/>
    <path d="M22.55 -192.95 L25.45 -192.4 Q27.1 -191.85 28.05 -191.0 L29.35 -190.0 Q30.4 -189.2 30.65 -187.9 30.9 -186.55 30.3 -185.4 L18.2 -163.75 Q17.6 -162.6 16.25 -161.85 14.9 -161.1 13.65 -161.1 L-15.8 -161.1 Q-17.1 -161.1 -18.4 -161.9 -19.75 -162.65 -20.3 -163.8 L-31.45 -185.35 Q-32.0 -186.5 -31.8 -187.95 -31.6 -189.4 -30.7 -190.3 L-30.2 -190.75 Q-29.3 -191.7 -27.75 -192.3 L-24.95 -192.95 22.55 -192.95" fill="url(#gradient5)" fill-rule="evenodd" stroke="none"/>
    <path d="M20.2 -190.1 Q21.75 -189.5 22.6 -188.55 L23.2 -188.05 Q24.05 -187.15 24.25 -185.75 24.45 -184.35 23.85 -183.2 L14.8 -166.95 Q14.2 -165.8 12.8 -165.05 11.5 -164.2 10.2 -164.2 L9.75 -164.2 Q6.65 -164.2 5.75 -164.8 4.7 -165.35 1.65 -165.35 L-3.35 -165.35 Q-6.45 -165.35 -7.3 -164.8 -7.65 -164.5 -8.8 -164.35 L-11.2 -164.2 -12.15 -164.2 Q-13.45 -164.2 -14.75 -165.05 -16.1 -165.85 -16.65 -167.0 L-25.05 -183.15 Q-25.6 -184.3 -25.45 -185.8 -25.35 -187.3 -24.5 -188.3 L-24.45 -188.35 Q-23.7 -189.35 -22.2 -190.0 -20.75 -190.7 -19.5 -190.7 L-16.9 -190.7 Q-13.8 -190.7 -12.4 -190.1 -10.85 -189.5 -7.95 -189.5 L7.4 -189.5 Q10.35 -189.5 11.8 -190.1 13.0 -190.7 16.2 -190.7 L17.4 -190.7 Q18.65 -190.7 20.2 -190.1" fill="#2b2b2a" fill-rule="evenodd" stroke="none"/>
    <path d="M-13.8 -169.05 L-21.1 -183.05 Q-21.5 -183.85 -21.35 -184.8 -21.2 -185.8 -20.55 -186.35 L-20.3 -186.6 -18.65 -187.65 -16.75 -188.1 14.2 -188.1 16.1 -187.7 17.85 -186.8 18.6 -186.2 Q19.3 -185.7 19.5 -184.75 19.65 -183.85 19.25 -183.1 L11.45 -169.05 Q11.0 -168.25 10.1 -167.75 9.2 -167.25 8.35 -167.25 L-10.8 -167.25 Q-11.65 -167.25 -12.5 -167.75 L-13.8 -169.05" fill="#113ebc" fill-rule="evenodd" stroke="none"/>
    <path d="M19.45 -184.75 Q19.25 -185.65 18.6 -186.2 L17.8 -186.8 16.05 -187.7 14.2 -188.1 -16.75 -188.1 -18.7 -187.65 Q-19.75 -187.2 -20.35 -186.6 L-20.6 -186.3 Q-21.2 -185.75 -21.4 -184.8 -21.5 -183.85 -21.1 -183.05 L-13.8 -169.05 -12.55 -167.75 Q-11.65 -167.2 -10.85 -167.2 L8.3 -167.2 Q9.2 -167.2 10.1 -167.75 11.0 -168.25 11.4 -169.05 L19.2 -183.1 Q19.65 -183.85 19.45 -184.75 Z" fill="none" stroke="#03133f" stroke-linecap="butt" stroke-linejoin="miter-clip" stroke-miterlimit="4.0" stroke-width="1.0"/>
    <path d="M-43.05 -161.45 L-40.0 -161.2 Q-37.75 -162.5 -31.1 -164.7 -29.25 -165.3 -30.35 -167.25 -31.35 -169.2 -33.75 -168.4 -42.0 -165.65 -45.35 -162.8 -45.65 -162.05 -43.05 -161.45" fill="url(#gradient6)" fill-rule="evenodd" stroke="none"/>
    <path d="M41.95 -161.45 L38.9 -161.2 Q36.65 -162.5 30.0 -164.7 28.15 -165.3 29.25 -167.25 30.25 -169.2 32.65 -168.4 40.9 -165.65 44.25 -162.8 44.55 -162.05 41.95 -161.45" fill="url(#gradient7)" fill-rule="evenodd" stroke="none"/>
    <path d="M30.0 -177.75 L32.4 -176.35 33.6 -171.45 28.6 -163.15 23.75 -161.9 Q22.6 -162.55 21.4 -163.3 L30.0 -177.75" fill="url(#gradient8)" fill-rule="evenodd" stroke="none"/>
    <path d="M35.1 -168.65 L31.9 -163.25 29.45 -164.65 32.7 -170.05 35.1 -168.65" fill="#333333" fill-rule="evenodd" stroke="none"/>
    <path d="M-31.9 -177.75 L-34.3 -176.35 -35.55 -171.45 -30.55 -163.15 -25.7 -161.9 -23.35 -163.3 -31.9 -177.75" fill="url(#gradient9)" fill-rule="evenodd" stroke="none"/>
    <path d="M-37.05 -168.65 L-33.8 -163.25 -31.4 -164.65 -34.6 -170.05 -37.05 -168.65" fill="#333333" fill-rule="evenodd" stroke="none"/>
  </g>
  <defs>
    <linearGradient gradientTransform="matrix(0.0, -0.1948, -0.1948, 0.0, -0.25, 32.6)" gradientUnits="userSpaceOnUse" id="gradient0" spreadMethod="pad" x1="-819.2" x2="819.2">
      <stop offset="0.0" stop-color="#000042"/>
      <stop offset="1.0" stop-color="#003093"/>
    </linearGradient>
    <linearGradient gradientTransform="matrix(0.0, -0.0279, -0.0279, 0.0, -0.2, -139.9)" gradientUnits="userSpaceOnUse" id="gradient1" spreadMethod="pad" x1="-819.2" x2="819.2">
      <stop offset="0.0" stop-color="#0536b8"/>
      <stop offset="0.054901960784313725" stop-color="#0432aa"/>
      <stop offset="0.16862745098039217" stop-color="#032b91"/>
      <stop offset="0.30196078431372547" stop-color="#01267e"/>
      <stop offset="0.4549019607843137" stop-color="#012270"/>
      <stop offset="0.6431372549019608" stop-color="#002068"/>
      <stop offset="1.0" stop-color="#001f66"/>
    </linearGradient>
    <linearGradient gradientTransform="matrix(0.0, -0.0082, -0.0082, 0.0, -0.55, -159.25)" gradientUnits="userSpaceOnUse" id="gradient2" spreadMethod="pad" x1="-819.2" x2="819.2">
      <stop offset="0.0" stop-color="#a4a4a4"/>
      <stop offset="1.0" stop-color="#505050"/>
    </linearGradient>
    <linearGradient gradientTransform="matrix(-0.0038, 0.0, 0.0, 0.0038, -125.9, -137.8)" gradientUnits="userSpaceOnUse" id="gradient3" spreadMethod="pad" x1="-819.2" x2="819.2">
      <stop offset="0.0" stop-color="#505050"/>
      <stop offset="1.0" stop-color="#a4a4a4"/>
    </linearGradient>
    <linearGradient gradientTransform="matrix(-0.0038, 0.0, 0.0, -0.0038, 125.45, -137.8)" gradientUnits="userSpaceOnUse" id="gradient4" spreadMethod="pad" x1="-819.2" x2="819.2">
      <stop offset="0.0" stop-color="#505050"/>
      <stop offset="1.0" stop-color="#a4a4a4"/>
    </linearGradient>
    <linearGradient gradientTransform="matrix(0.0, -0.0195, 0.0195, 0.0, -0.6, -177.0)" gradientUnits="userSpaceOnUse" id="gradient5" spreadMethod="pad" x1="-819.2" x2="819.2">
      <stop offset="0.0" stop-color="#373737"/>
      <stop offset="0.6549019607843137" stop-color="#a4a4a4"/>
      <stop offset="0.803921568627451" stop-color="#a4a4a4"/>
      <stop offset="1.0" stop-color="#6b6b6b"/>
    </linearGradient>
    <linearGradient gradientTransform="matrix(0.0016, 0.0038, 0.0089, -0.0036, -69.85, -151.05)" gradientUnits="userSpaceOnUse" id="gradient6" spreadMethod="pad" x1="-819.2" x2="819.2">
      <stop offset="0.0" stop-color="#505050"/>
      <stop offset="0.09803921568627451" stop-color="#373737"/>
      <stop offset="0.5254901960784314" stop-color="#6e6861"/>
      <stop offset="0.8862745098039215" stop-color="#3d3d3d"/>
      <stop offset="1.0" stop-color="#505050"/>
    </linearGradient>
    <linearGradient gradientTransform="matrix(-0.0016, 0.0038, -0.0089, -0.0036, 68.75, -151.05)" gradientUnits="userSpaceOnUse" id="gradient7" spreadMethod="pad" x1="-819.2" x2="819.2">
      <stop offset="0.0" stop-color="#505050"/>
      <stop offset="0.09803921568627451" stop-color="#373737"/>
      <stop offset="0.5254901960784314" stop-color="#6e6861"/>
      <stop offset="0.8862745098039215" stop-color="#3d3d3d"/>
      <stop offset="1.0" stop-color="#505050"/>
    </linearGradient>
    <linearGradient gradientTransform="matrix(-0.005, 0.009, 0.009, 0.005, 28.35, -168.95)" gradientUnits="userSpaceOnUse" id="gradient8" spreadMethod="pad" x1="-819.2" x2="819.2">
      <stop offset="0.0" stop-color="#505050"/>
      <stop offset="0.09803921568627451" stop-color="#373737"/>
      <stop offset="0.5254901960784314" stop-color="#6e6963"/>
      <stop offset="0.8862745098039215" stop-color="#3d3d3d"/>
      <stop offset="1.0" stop-color="#505050"/>
    </linearGradient>
    <linearGradient gradientTransform="matrix(0.005, 0.009, -0.009, 0.005, -30.3, -168.95)" gradientUnits="userSpaceOnUse" id="gradient9" spreadMethod="pad" x1="-819.2" x2="819.2">
      <stop offset="0.0" stop-color="#505050"/>
      <stop offset="0.09803921568627451" stop-color="#373737"/>
      <stop offset="0.5254901960784314" stop-color="#6e6963"/>
      <stop offset="0.8862745098039215" stop-color="#3d3d3d"/>
      <stop offset="1.0" stop-color="#505050"/>
    </linearGradient>
  </defs>
</svg>
