<?xml version="1.0" encoding="UTF-8" standalone="no"?>
<svg xmlns:ffdec="https://www.free-decompiler.com/flash" xmlns:xlink="http://www.w3.org/1999/xlink" ffdec:objectType="shape" height="25.35px" width="115.6px" xmlns="http://www.w3.org/2000/svg">
  <g transform="matrix(1.0, 0.0, 0.0, 1.0, 0.0, 0.0)">
    <path d="M110.6 24.35 L5.0 24.35 Q3.35 24.35 2.2 23.2 1.0 22.05 1.0 20.35 L1.0 5.0 Q1.0 3.35 2.2 2.2 3.35 1.0 5.0 1.0 L110.6 1.0 Q112.25 1.0 113.45 2.2 114.6 3.35 114.6 5.0 L114.6 20.35 Q114.6 22.05 113.45 23.2 112.25 24.35 110.6 24.35" fill="url(#gradient0)" fill-rule="evenodd" stroke="none"/>
    <path d="M114.15 1.45 Q115.6 2.95 115.6 5.0 L115.6 20.35 Q115.6 22.45 114.15 23.9 112.65 25.35 110.6 25.35 L5.0 25.35 Q2.95 25.35 1.45 23.9 0.0 22.45 0.0 20.35 L0.0 5.0 Q0.0 2.95 1.45 1.45 2.95 0.0 5.0 0.0 L110.6 0.0 Q112.65 0.0 114.15 1.45 M113.6 5.0 Q113.6 3.75 112.7 2.9 111.85 2.0 110.6 2.0 L5.0 2.0 Q3.75 2.0 2.9 2.9 2.0 3.75 2.0 5.0 L2.0 20.35 Q2.0 21.6 2.9 22.45 3.75 23.35 5.0 23.35 L110.6 23.35 Q111.85 23.35 112.7 22.45 113.6 21.6 113.6 20.35 L113.6 5.0" fill="#2c8ff2" fill-rule="evenodd" stroke="none"/>
  </g>
  <defs>
    <linearGradient gradientTransform="matrix(0.0693, 0.0, 0.0, -0.0693, 57.8, 12.7)" gradientUnits="userSpaceOnUse" id="gradient0" spreadMethod="pad" x1="-819.2" x2="819.2">
      <stop offset="0.0" stop-color="#003eb5"/>
      <stop offset="0.5294117647058824" stop-color="#00278b"/>
      <stop offset="1.0" stop-color="#004acc"/>
    </linearGradient>
  </defs>
</svg>
