<?xml version="1.0" encoding="UTF-8" standalone="no"?>
<svg xmlns:ffdec="https://www.free-decompiler.com/flash" xmlns:xlink="http://www.w3.org/1999/xlink" ffdec:objectType="shape" height="123.35px" width="102.35px" xmlns="http://www.w3.org/2000/svg">
  <g transform="matrix(1.0, 0.0, 0.0, 1.0, 95.15, 184.9)">
    <path d="M-93.55 -63.1 Q-95.15 -64.7 -95.15 -66.9 L-95.15 -71.2 -92.05 -71.2 -92.05 -66.9 Q-92.05 -65.95 -91.35 -65.3 -90.7 -64.6 -89.75 -64.6 L-85.55 -64.6 -85.55 -61.55 -89.75 -61.55 Q-91.95 -61.55 -93.55 -63.1" fill="#08a7ff" fill-rule="evenodd" stroke="none"/>
    <path d="M-48.5 -63.1 Q-50.1 -61.55 -52.35 -61.55 L-56.55 -61.55 -56.55 -64.6 -52.35 -64.6 Q-51.4 -64.6 -50.7 -65.3 -50.0 -65.95 -50.0 -66.9 L-50.0 -71.2 -46.95 -71.2 -46.95 -66.9 Q-46.95 -64.7 -48.5 -63.1" fill="#08a7ff" fill-rule="evenodd" stroke="none"/>
    <path d="M-85.55 -106.8 L-89.75 -106.8 Q-90.7 -106.8 -91.35 -106.1 -92.05 -105.45 -92.05 -104.5 L-92.05 -100.25 -95.15 -100.25 -95.15 -104.5 Q-95.15 -106.7 -93.55 -108.3 -91.95 -109.9 -89.75 -109.9 L-85.55 -109.9 -85.55 -106.8" fill="#08a7ff" fill-rule="evenodd" stroke="none"/>
    <path d="M-50.7 -106.1 Q-51.4 -106.8 -52.35 -106.8 L-56.55 -106.8 -56.55 -109.9 -52.35 -109.9 Q-50.1 -109.9 -48.5 -108.3 -46.95 -106.7 -46.95 -104.5 L-46.95 -100.25 -50.0 -100.25 -50.0 -104.5 Q-50.0 -105.45 -50.7 -106.1" fill="#08a7ff" fill-rule="evenodd" stroke="none"/>
    <path d="M-53.05 -64.2 L-89.05 -64.2 Q-90.45 -64.2 -91.5 -65.25 -92.55 -66.25 -92.55 -67.7 L-92.55 -103.7 Q-92.55 -105.15 -91.5 -106.2 -90.5 -107.2 -89.05 -107.2 L-53.05 -107.2 Q-51.6 -107.2 -50.55 -106.2 -49.55 -105.15 -49.55 -103.7 L-49.55 -67.7 Q-49.55 -66.25 -50.55 -65.25 -51.6 -64.2 -53.05 -64.2" fill="#001556" fill-rule="evenodd" stroke="none"/>
    <path d="M-50.05 -103.7 Q-50.05 -104.95 -50.95 -105.8 -51.8 -106.7 -53.05 -106.7 L-89.05 -106.7 Q-90.3 -106.7 -91.15 -105.8 -92.05 -104.95 -92.05 -103.7 L-92.05 -67.7 Q-92.05 -66.45 -91.15 -65.6 -90.3 -64.7 -89.05 -64.7 L-53.05 -64.7 Q-51.8 -64.7 -50.95 -65.6 -50.05 -66.45 -50.05 -67.7 L-50.05 -103.7 M-50.2 -106.5 Q-49.05 -105.35 -49.05 -103.7 L-49.05 -67.7 Q-49.05 -66.05 -50.2 -64.85 -51.4 -63.7 -53.05 -63.7 L-89.05 -63.7 Q-90.7 -63.7 -91.85 -64.85 -93.05 -66.05 -93.05 -67.7 L-93.05 -103.7 Q-93.05 -105.35 -91.85 -106.5 -90.7 -107.7 -89.05 -107.7 L-53.05 -107.7 Q-51.4 -107.7 -50.2 -106.5" fill="#0b7ff4" fill-rule="evenodd" stroke="none"/>
    <path d="M-3.3 -176.35 L-3.8 -177.8 -1.15 -178.75 -0.65 -177.3 -3.3 -176.35" fill="#054cdb" fill-rule="evenodd" stroke="none"/>
    <path d="M-9.45 -176.95 Q-7.55 -177.1 -7.05 -177.6 -4.6 -179.05 -3.8 -177.8 L-3.3 -176.35 Q-3.2 -174.9 -5.95 -174.5 -6.5 -174.5 -8.2 -173.5 -9.9 -172.45 -12.15 -172.35 -12.9 -173.2 -13.15 -174.4 L-13.25 -175.45 Q-11.5 -176.75 -9.45 -176.95" fill="#0080ff" fill-rule="evenodd" stroke="none"/>
    <path d="M5.35 -175.75 L0.15 -173.9 -2.6 -181.65 2.55 -183.5 5.35 -175.75" fill="#066dea" fill-rule="evenodd" stroke="none"/>
    <path d="M3.85 -183.1 L-3.2 -180.55 -3.95 -182.35 3.1 -184.9 3.85 -183.1" fill="#00aaff" fill-rule="evenodd" stroke="none"/>
    <path d="M6.55 -175.3 L-0.5 -172.75 -0.8 -174.15 6.25 -176.65 6.55 -175.3" fill="#00aaff" fill-rule="evenodd" stroke="none"/>
    <path d="M7.2 -169.05 L-6.2 -169.05 -6.2 -170.55 7.2 -170.55 7.2 -169.05" fill="#066dea" fill-rule="evenodd" stroke="none"/>
  </g>
</svg>
