<?xml version="1.0" encoding="UTF-8" standalone="no"?>
<svg xmlns:ffdec="https://www.free-decompiler.com/flash" xmlns:xlink="http://www.w3.org/1999/xlink" ffdec:objectType="shape" height="325.9px" width="555.1px" xmlns="http://www.w3.org/2000/svg">
  <g transform="matrix(1.0, 0.0, 0.0, 1.0, 274.2, 166.8)">
    <path d="M-273.05 -138.4 Q-271.75 -139.85 -269.7 -139.85 L-10.25 -139.85 Q-8.2 -139.85 -6.7 -138.4 -5.25 -136.9 -5.25 -134.85 L-5.25 -97.2 Q-5.25 -95.15 -4.5 -92.8 -3.75 -90.45 -2.75 -89.25 -1.7 -88.0 -0.95 -85.65 -0.25 -83.3 -0.25 -81.25 L-0.25 79.1 Q-0.25 81.2 -0.95 83.5 -1.7 85.85 -2.75 87.1 -3.75 88.35 -4.5 90.7 -5.25 93.05 -5.25 95.1 L-5.25 145.05 Q-5.25 147.1 -6.7 148.6 -8.2 150.05 -10.25 150.05 L-269.7 150.05 Q-271.75 150.05 -273.05 148.6 -274.35 147.15 -274.15 145.1 L-269.2 98.1 -268.4 94.15 Q-267.8 92.25 -267.2 91.6 -266.55 91.0 -266.15 89.1 -265.7 87.2 -265.7 85.1 L-265.7 29.45 -265.45 26.35 -265.2 24.95 -265.45 24.95 -265.45 -32.3 -265.65 -34.5 -265.7 -35.4 -265.7 -87.25 Q-265.7 -89.35 -266.15 -91.2 -266.55 -93.1 -267.2 -93.75 -267.8 -94.35 -268.45 -96.25 -269.1 -98.15 -269.35 -100.2 L-274.0 -134.9 Q-274.15 -135.8 -273.95 -136.6 L-273.85 -136.95 -273.05 -138.4" fill="url(#gradient0)" fill-rule="evenodd" stroke="none"/>
    <path d="M-13.15 -113.6 L-13.15 107.3 Q-13.15 109.4 -14.15 111.9 -15.15 114.45 -16.55 115.95 L-30.8 131.05 Q-32.2 132.55 -34.7 133.6 -37.2 134.65 -39.25 134.65 L-233.5 134.65 Q-235.55 134.65 -238.05 133.65 -240.6 132.6 -242.05 131.15 L-255.75 117.6 Q-257.2 116.15 -258.25 113.65 -259.3 111.1 -259.3 109.05 L-259.3 -113.6 Q-259.3 -115.65 -257.85 -117.15 -256.35 -118.6 -254.3 -118.6 L-18.15 -118.6 Q-16.1 -118.6 -14.6 -117.15 -13.15 -115.65 -13.15 -113.6" fill="url(#gradient1)" fill-rule="evenodd" stroke="none"/>
    <path d="M-18.15 -108.6 L-18.15 123.5 Q-18.15 125.55 -19.6 127.05 -21.1 128.5 -23.15 128.5 L-249.3 128.5 Q-251.35 128.5 -252.85 127.05 -254.3 125.55 -254.3 123.5 L-254.3 -108.6 Q-254.3 -110.65 -252.85 -112.15 -251.35 -113.6 -249.3 -113.6 L-23.15 -113.6 Q-21.1 -113.6 -19.6 -112.15 -18.15 -110.65 -18.15 -108.6" fill="#161719" fill-rule="evenodd" stroke="none"/>
    <path d="M-18.6 101.3 L-12.0 107.95 -12.0 128.3 -12.3 128.55 -19.1 135.4 -19.4 135.65 -40.25 135.65 -40.55 135.4 -47.7 128.2 -22.75 128.25 -18.6 124.1 -18.6 101.3 M-13.0 108.35 L-17.6 103.75 -17.6 124.5 -22.35 129.25 -45.3 129.25 -39.85 134.65 -19.8 134.65 -13.0 127.85 -13.0 108.35" fill="#181919" fill-rule="evenodd" stroke="none"/>
    <path d="M-13.0 108.35 L-13.0 127.85 -19.8 134.65 -39.85 134.65 -45.3 129.25 -22.35 129.25 -17.6 124.5 -17.6 103.75 -13.0 108.35" fill="#717272" fill-rule="evenodd" stroke="none"/>
    <path d="M-259.6 108.35 L-259.6 127.85 -252.8 134.65 -232.75 134.65 -227.3 129.25 -250.25 129.25 -255.0 124.5 -255.0 103.75 -259.6 108.35 Z" fill="none" stroke="#181919" stroke-linecap="butt" stroke-linejoin="miter-clip" stroke-miterlimit="4.0" stroke-width="2.0"/>
    <path d="M-259.6 108.35 L-255.0 103.75 -255.0 124.5 -250.25 129.25 -227.3 129.25 -232.75 134.65 -252.8 134.65 -259.6 127.85 -259.6 108.35" fill="#717272" fill-rule="evenodd" stroke="none"/>
    <path d="M-184.0 -117.6 L-180.05 -121.55 -94.75 -121.55 -90.8 -117.6 -184.0 -117.6" fill="#333333" fill-rule="evenodd" stroke="none"/>
    <path d="M260.45 -17.45 L260.45 -104.9 Q260.45 -106.15 261.05 -107.65 261.65 -109.2 262.45 -110.1 L266.8 -115.0 Q267.65 -115.9 268.25 -115.65 268.85 -115.45 268.85 -114.2 285.6 9.3 268.85 134.8 268.85 136.05 268.2 136.3 267.55 136.6 266.65 135.75 L262.65 132.0 Q261.75 131.2 261.1 129.7 260.45 128.2 260.45 126.95 L260.45 -16.85 260.45 -17.45" fill="url(#gradient2)" fill-rule="evenodd" stroke="none"/>
    <path d="M260.45 -17.45 L260.45 -16.85 260.4 -16.85 260.45 -17.45" fill="url(#gradient3)" fill-rule="evenodd" stroke="none"/>
    <path d="M0.0 -138.4 Q1.5 -139.85 3.55 -139.85 L269.95 -139.85 Q272.0 -139.85 273.2 -138.4 274.35 -136.95 273.9 -134.95 L272.45 -121.5 272.55 -121.65 272.55 -105.5 272.75 -105.5 272.75 -94.7 Q272.75 -92.65 272.05 -90.3 271.3 -87.95 270.3 -86.75 269.25 -85.5 268.5 -83.15 L268.05 -81.25 268.05 -75.15 267.8 -72.05 267.55 -70.65 Q267.0 -68.2 266.3 -66.9 265.6 -65.55 265.05 -63.15 264.55 -60.7 264.55 -58.65 L264.55 -26.8 Q264.55 -24.75 265.05 -22.3 265.6 -19.9 266.3 -18.55 267.0 -17.2 267.55 -14.8 L267.8 -13.35 268.0 -11.5 268.05 -11.5 268.05 4.65 267.8 7.25 267.55 8.6 Q267.0 11.05 266.3 12.35 L265.7 13.75 265.05 16.1 Q264.55 18.55 264.55 20.6 L264.55 53.0 Q264.6 54.8 265.05 56.95 265.6 59.35 266.3 60.7 267.0 62.05 267.55 64.45 L267.8 65.85 268.05 68.95 268.05 90.2 268.5 92.0 Q269.25 94.35 270.3 95.6 271.3 96.85 272.05 99.2 L272.35 100.25 272.7 102.5 272.75 103.6 272.75 122.0 272.3 122.0 272.3 134.6 272.35 134.1 272.55 136.45 272.55 136.55 272.6 137.15 272.85 141.2 273.8 145.2 Q274.3 147.2 273.15 148.6 L272.55 149.2 272.4 149.3 Q271.4 150.05 269.95 150.05 L141.4 150.05 Q139.35 150.05 136.95 151.2 134.6 152.4 133.35 154.0 L132.45 155.15 Q131.2 156.75 128.85 157.95 126.45 159.1 124.4 159.1 L3.55 159.1 Q1.5 159.1 0.0 157.65 -1.45 156.15 -1.45 154.1 L-1.45 98.1 -1.4 97.0 -0.75 93.7 Q0.0 91.35 1.0 90.1 2.05 88.85 2.8 86.5 3.5 84.2 3.5 82.1 L3.5 -84.25 Q3.5 -86.3 2.8 -88.65 2.05 -91.0 1.0 -92.25 0.0 -93.45 -0.75 -95.8 -1.45 -98.15 -1.45 -100.2 L-1.45 -134.85 Q-1.45 -136.9 0.0 -138.4 M226.35 -89.9 L226.35 -90.75 226.35 -89.9 M271.7 136.4 L271.75 136.6 271.7 135.75 271.7 136.4" fill="url(#gradient4)" fill-rule="evenodd" stroke="none"/>
    <path d="M14.9 -118.6 L251.1 -118.6 Q253.15 -118.6 254.65 -117.15 256.1 -115.65 256.1 -113.6 L256.1 107.3 Q256.1 109.35 255.1 111.9 254.05 114.45 252.65 115.95 L238.4 131.05 Q237.0 132.55 234.5 133.6 232.0 134.65 229.95 134.65 L35.7 134.65 Q33.65 134.65 31.15 133.65 28.6 132.6 27.15 131.15 L13.45 117.6 Q12.0 116.15 10.95 113.65 9.9 111.1 9.9 109.05 L9.9 -113.6 Q9.9 -115.65 11.35 -117.15 12.85 -118.6 14.9 -118.6" fill="url(#gradient5)" fill-rule="evenodd" stroke="none"/>
    <path d="M19.9 -113.6 L246.1 -113.6 Q248.15 -113.6 249.65 -112.15 251.1 -110.65 251.1 -108.6 L251.1 123.5 Q251.1 125.55 249.65 127.05 248.15 128.5 246.1 128.5 L19.9 128.5 Q17.85 128.5 16.35 127.05 14.9 125.55 14.9 123.5 L14.9 -108.6 Q14.9 -110.65 16.35 -112.15 17.85 -113.6 19.9 -113.6" fill="#161719" fill-rule="evenodd" stroke="none"/>
    <path d="M250.6 101.3 L256.95 107.65 257.2 107.95 257.2 128.3 249.85 135.65 228.95 135.65 228.65 135.4 221.5 128.2 246.45 128.25 250.6 124.1 250.6 101.3 M256.2 108.35 L251.6 103.75 251.6 124.5 246.85 129.25 223.9 129.25 229.35 134.65 249.4 134.65 256.2 127.85 256.2 108.35" fill="#181919" fill-rule="evenodd" stroke="none"/>
    <path d="M256.2 108.35 L256.2 127.85 249.4 134.65 229.35 134.65 223.9 129.25 246.85 129.25 251.6 124.5 251.6 103.75 256.2 108.35" fill="#717272" fill-rule="evenodd" stroke="none"/>
    <path d="M41.9 129.25 L18.95 129.25 14.2 124.5 14.2 103.75 9.6 108.35 9.6 127.85 16.4 134.65 36.45 134.65 41.9 129.25 Z" fill="none" stroke="#181919" stroke-linecap="butt" stroke-linejoin="miter-clip" stroke-miterlimit="4.0" stroke-width="2.0"/>
    <path d="M41.9 129.25 L36.45 134.65 16.4 134.65 9.6 127.85 9.6 108.35 14.2 103.75 14.2 124.5 18.95 129.25 41.9 129.25" fill="#717272" fill-rule="evenodd" stroke="none"/>
    <path d="M90.2 -118.1 L94.15 -122.05 179.45 -122.05 183.4 -118.1 90.2 -118.1" fill="#333333" fill-rule="evenodd" stroke="none"/>
    <path d="M89.9 -133.35 L85.0 -137.75 Q84.1 -138.55 84.35 -139.15 84.55 -139.75 85.8 -139.75 L186.8 -139.75 Q188.05 -139.75 188.25 -139.15 188.5 -138.5 187.6 -137.65 L183.15 -133.4 Q182.25 -132.55 180.7 -131.95 179.2 -131.35 177.95 -131.35 L162.15 -131.35 159.7 -130.85 Q158.5 -130.4 158.05 -129.75 157.55 -129.05 156.35 -128.6 155.15 -128.1 153.9 -128.1 L117.75 -128.1 Q116.5 -128.1 115.3 -128.6 114.05 -129.05 113.55 -129.75 113.05 -130.4 111.85 -130.85 L109.35 -131.35 95.1 -131.35 Q93.85 -131.35 92.35 -131.95 90.8 -132.5 89.9 -133.35" fill="#333333" fill-rule="evenodd" stroke="none"/>
    <path d="M160.9 -166.8 Q162.25 -166.8 163.95 -166.2 165.7 -165.6 166.75 -164.75 L168.1 -163.65 Q169.2 -162.85 169.45 -161.4 169.75 -160.0 169.05 -158.8 L156.25 -135.75 Q155.6 -134.55 154.2 -133.75 152.75 -132.9 151.4 -132.9 L120.1 -132.9 Q118.75 -132.9 117.35 -133.8 115.9 -134.6 115.3 -135.8 L103.45 -158.75 Q102.85 -159.95 103.1 -161.45 103.3 -163.0 104.3 -163.95 L104.8 -164.45 Q105.75 -165.45 107.4 -166.1 109.05 -166.8 110.4 -166.8 L160.9 -166.8" fill="url(#gradient6)" fill-rule="evenodd" stroke="none"/>
    <path d="M158.4 -163.75 Q160.0 -163.1 160.95 -162.1 L161.55 -161.55 Q162.45 -160.65 162.7 -159.1 162.9 -157.65 162.25 -156.45 L152.65 -139.15 Q152.0 -137.95 150.5 -137.1 149.1 -136.25 147.75 -136.25 L147.25 -136.25 Q143.95 -136.25 143.0 -136.85 141.9 -137.45 138.7 -137.45 L133.35 -137.45 Q130.05 -137.45 129.1 -136.85 L127.55 -136.4 125.0 -136.25 124.0 -136.25 Q122.65 -136.25 121.2 -137.1 119.8 -138.0 119.2 -139.2 L110.3 -156.4 Q109.7 -157.6 109.85 -159.15 109.95 -160.8 110.85 -161.85 L110.9 -161.9 Q111.7 -162.95 113.3 -163.65 114.85 -164.4 116.2 -164.4 L118.9 -164.4 123.7 -163.75 Q125.35 -163.1 128.45 -163.1 L144.8 -163.1 Q147.9 -163.1 149.45 -163.75 150.75 -164.4 154.1 -164.4 L155.4 -164.4 158.4 -163.75" fill="#2b2b2a" fill-rule="evenodd" stroke="none"/>
    <path d="M122.25 -141.4 L114.5 -156.3 Q114.05 -157.1 114.2 -158.15 114.4 -159.15 115.05 -159.75 L115.3 -160.05 117.05 -161.15 119.1 -161.65 152.0 -161.65 154.0 -161.2 155.85 -160.25 156.7 -159.6 Q157.4 -159.05 157.6 -158.1 157.8 -157.1 157.35 -156.35 L149.05 -141.4 Q148.6 -140.55 147.65 -140.0 146.7 -139.45 145.75 -139.45 L125.4 -139.45 Q124.55 -139.45 123.6 -140.0 122.7 -140.6 122.25 -141.4" fill="#113ebc" fill-rule="evenodd" stroke="none"/>
    <path d="M149.05 -141.4 L157.35 -156.35 Q157.8 -157.1 157.6 -158.1 157.4 -159.05 156.7 -159.6 L155.85 -160.25 154.0 -161.2 152.0 -161.65 119.1 -161.65 117.05 -161.15 115.3 -160.05 115.05 -159.75 Q114.4 -159.15 114.2 -158.15 114.05 -157.1 114.5 -156.3 L122.25 -141.4 Q122.7 -140.6 123.6 -140.0 124.55 -139.45 125.4 -139.45 L145.75 -139.45 Q146.7 -139.45 147.65 -140.0 148.6 -140.55 149.05 -141.4 Z" fill="none" stroke="#03133f" stroke-linecap="butt" stroke-linejoin="miter-clip" stroke-miterlimit="4.0" stroke-width="1.0"/>
    <path d="M91.15 -133.3 L94.4 -133.05 Q96.8 -134.45 103.85 -136.75 105.8 -137.35 104.65 -139.45 103.55 -141.5 101.0 -140.7 92.25 -137.75 88.7 -134.75 88.4 -133.95 91.15 -133.3" fill="url(#gradient7)" fill-rule="evenodd" stroke="none"/>
    <path d="M181.5 -133.3 L178.25 -133.05 Q175.85 -134.45 168.8 -136.75 166.85 -137.35 168.0 -139.45 169.1 -141.5 171.65 -140.7 180.4 -137.75 183.95 -134.75 184.25 -133.95 181.5 -133.3" fill="url(#gradient8)" fill-rule="evenodd" stroke="none"/>
    <path d="M168.8 -150.65 L171.3 -149.1 172.6 -143.95 167.3 -135.1 162.15 -133.75 159.65 -135.25 168.8 -150.65" fill="url(#gradient9)" fill-rule="evenodd" stroke="none"/>
    <path d="M174.2 -141.0 L170.8 -135.2 168.25 -136.7 171.6 -142.45 174.2 -141.0" fill="#333333" fill-rule="evenodd" stroke="none"/>
    <path d="M102.95 -150.65 L100.45 -149.1 99.15 -143.95 104.45 -135.1 109.6 -133.75 112.15 -135.25 102.95 -150.65" fill="url(#gradient10)" fill-rule="evenodd" stroke="none"/>
    <path d="M97.55 -141.0 L100.95 -135.2 103.5 -136.7 100.15 -142.45 Q98.85 -141.65 97.55 -141.0" fill="#333333" fill-rule="evenodd" stroke="none"/>
    <path d="M-183.6 -133.35 L-188.5 -137.75 Q-189.4 -138.55 -189.15 -139.15 -188.95 -139.75 -187.7 -139.75 L-86.7 -139.75 Q-85.45 -139.75 -85.25 -139.15 -85.0 -138.5 -85.9 -137.65 L-90.35 -133.4 Q-91.25 -132.55 -92.8 -131.95 -94.3 -131.35 -95.55 -131.35 L-111.35 -131.35 -113.8 -130.85 Q-115.0 -130.4 -115.45 -129.75 -115.95 -129.05 -117.15 -128.6 -118.35 -128.1 -119.6 -128.1 L-155.75 -128.1 Q-157.0 -128.1 -158.2 -128.6 -159.45 -129.05 -159.95 -129.75 -160.45 -130.4 -161.65 -130.85 L-164.15 -131.35 -178.4 -131.35 Q-179.65 -131.35 -181.15 -131.95 -182.7 -132.5 -183.6 -133.35" fill="#333333" fill-rule="evenodd" stroke="none"/>
    <path d="M-112.6 -166.8 L-109.55 -166.2 Q-107.8 -165.6 -106.75 -164.75 L-105.4 -163.65 Q-104.3 -162.85 -104.05 -161.4 -103.75 -160.0 -104.45 -158.8 L-117.25 -135.75 Q-117.9 -134.55 -119.3 -133.75 -120.75 -132.9 -122.1 -132.9 L-153.4 -132.9 Q-154.75 -132.9 -156.15 -133.8 -157.6 -134.6 -158.2 -135.8 L-170.05 -158.75 Q-170.65 -159.95 -170.4 -161.45 -170.2 -163.0 -169.2 -163.95 L-168.7 -164.45 Q-167.75 -165.45 -166.1 -166.1 -164.45 -166.8 -163.1 -166.8 L-112.6 -166.8" fill="url(#gradient11)" fill-rule="evenodd" stroke="none"/>
    <path d="M-115.1 -163.75 Q-113.5 -163.1 -112.55 -162.1 L-111.95 -161.55 Q-111.05 -160.65 -110.8 -159.1 -110.6 -157.65 -111.25 -156.45 L-120.85 -139.15 Q-121.5 -137.95 -123.0 -137.1 -124.4 -136.25 -125.75 -136.25 L-126.25 -136.25 Q-129.55 -136.25 -130.5 -136.85 -131.6 -137.45 -134.8 -137.45 L-140.15 -137.45 Q-143.45 -137.45 -144.4 -136.85 L-145.95 -136.4 -148.5 -136.25 -149.5 -136.25 Q-150.85 -136.25 -152.3 -137.1 -153.7 -138.0 -154.3 -139.2 L-163.2 -156.4 Q-163.8 -157.6 -163.65 -159.15 -163.55 -160.8 -162.65 -161.85 L-162.6 -161.9 Q-161.8 -162.95 -160.2 -163.65 -158.65 -164.4 -157.3 -164.4 L-154.6 -164.4 Q-151.25 -164.4 -149.8 -163.75 -148.15 -163.1 -145.05 -163.1 L-128.7 -163.1 Q-125.6 -163.1 -124.05 -163.75 L-119.4 -164.4 -118.1 -164.4 Q-116.75 -164.4 -115.1 -163.75" fill="#2b2b2a" fill-rule="evenodd" stroke="none"/>
    <path d="M-151.25 -141.4 L-159.0 -156.3 Q-159.45 -157.1 -159.3 -158.15 -159.1 -159.15 -158.45 -159.75 L-158.2 -160.05 -156.45 -161.15 -154.4 -161.65 -121.5 -161.65 -119.5 -161.2 -117.65 -160.25 -116.8 -159.6 Q-116.1 -159.05 -115.9 -158.1 -115.7 -157.1 -116.15 -156.35 L-124.45 -141.4 Q-124.9 -140.55 -125.85 -140.0 -126.8 -139.45 -127.75 -139.45 L-148.1 -139.45 Q-148.95 -139.45 -149.9 -140.0 L-151.25 -141.4" fill="#113ebc" fill-rule="evenodd" stroke="none"/>
    <path d="M-116.15 -156.35 Q-115.7 -157.1 -115.9 -158.1 -116.1 -159.05 -116.8 -159.6 L-117.65 -160.25 -119.5 -161.2 -121.5 -161.65 -154.4 -161.65 -156.45 -161.15 -158.2 -160.05 -158.45 -159.75 Q-159.1 -159.15 -159.3 -158.15 -159.45 -157.1 -159.0 -156.3 L-151.25 -141.4 -149.9 -140.0 Q-148.95 -139.45 -148.1 -139.45 L-127.75 -139.45 Q-126.8 -139.45 -125.85 -140.0 -124.9 -140.55 -124.45 -141.4 L-116.15 -156.35 Z" fill="none" stroke="#03133f" stroke-linecap="butt" stroke-linejoin="miter-clip" stroke-miterlimit="4.0" stroke-width="1.0"/>
    <path d="M-182.35 -133.3 L-179.1 -133.05 Q-176.7 -134.45 -169.65 -136.75 -167.7 -137.35 -168.85 -139.45 -169.95 -141.5 -172.5 -140.7 -181.25 -137.75 -184.8 -134.75 -185.1 -133.95 -182.35 -133.3" fill="url(#gradient12)" fill-rule="evenodd" stroke="none"/>
    <path d="M-92.0 -133.3 L-95.25 -133.05 Q-97.65 -134.45 -104.7 -136.75 -106.65 -137.35 -105.5 -139.45 -104.4 -141.5 -101.85 -140.7 -93.1 -137.75 -89.55 -134.75 -89.25 -133.95 -92.0 -133.3" fill="url(#gradient13)" fill-rule="evenodd" stroke="none"/>
    <path d="M-104.7 -150.65 L-102.2 -149.1 -100.9 -143.95 -106.2 -135.1 -111.35 -133.75 -113.85 -135.25 -104.7 -150.65" fill="url(#gradient14)" fill-rule="evenodd" stroke="none"/>
    <path d="M-99.3 -141.0 L-102.7 -135.2 -105.25 -136.7 -101.9 -142.45 -99.3 -141.0" fill="#333333" fill-rule="evenodd" stroke="none"/>
    <path d="M-170.55 -150.65 L-173.05 -149.1 -174.35 -143.95 -169.05 -135.1 -163.9 -133.75 -161.35 -135.25 -170.55 -150.65" fill="url(#gradient15)" fill-rule="evenodd" stroke="none"/>
    <path d="M-175.95 -141.0 L-172.55 -135.2 -170.0 -136.7 -173.35 -142.45 Q-174.65 -141.65 -175.95 -141.0" fill="#333333" fill-rule="evenodd" stroke="none"/>
    <path d="M-145.0 -152.85 L-139.4 -158.4 -139.35 -158.45 -138.85 -158.85 Q-138.55 -159.1 -138.15 -159.15 L-137.5 -159.3 -137.3 -159.3 Q-136.1 -159.3 -135.25 -158.45 L-129.15 -152.4 Q-128.3 -151.5 -128.3 -150.3 -128.3 -149.05 -129.15 -148.15 L-134.7 -142.6 Q-135.6 -141.75 -136.8 -141.75 -138.05 -141.75 -138.95 -142.6 L-145.0 -148.6 -145.35 -149.05 Q-145.75 -149.6 -145.8 -150.3 L-145.85 -150.75 -145.8 -151.3 -145.55 -152.05 -145.45 -152.2 -145.0 -152.75 -145.0 -152.85 M-144.95 -151.85 L-145.2 -151.25 -145.2 -151.15 -145.2 -150.4 -145.0 -149.7 -145.1 -151.05 Q-144.95 -151.7 -144.45 -152.2 L-138.9 -157.75 Q-138.15 -158.45 -137.2 -158.45 -136.2 -158.45 -135.55 -157.75 L-130.0 -152.2 -129.5 -151.5 -129.9 -152.2 -130.1 -152.4 -135.6 -158.0 Q-136.3 -158.7 -137.3 -158.7 L-137.95 -158.55 -138.5 -158.35 -139.0 -158.0 -144.55 -152.4 -144.95 -151.85 M-142.05 -148.25 L-143.7 -149.9 -143.9 -150.15 -143.6 -149.65 -142.05 -148.1 -141.95 -147.95 -141.55 -147.05 -141.3 -146.6 -140.65 -145.95 -140.5 -145.85 -139.2 -145.25 -138.05 -144.1 Q-137.7 -143.75 -137.2 -143.75 -136.7 -143.75 -136.35 -144.1 L-135.15 -145.25 -134.35 -145.55 -133.6 -146.0 -133.35 -146.15 -132.95 -146.55 Q-132.7 -146.9 -132.6 -147.3 L-132.55 -147.75 -132.55 -147.9 -130.8 -149.65 Q-130.45 -149.95 -130.45 -150.5 L-130.6 -151.05 -130.55 -150.75 Q-130.55 -150.25 -130.9 -149.9 L-132.6 -148.2 -132.95 -149.0 Q-133.1 -149.55 -133.65 -149.95 L-134.55 -150.35 -135.9 -150.75 -136.5 -150.9 -136.5 -152.7 -135.9 -152.5 Q-135.4 -152.25 -135.25 -151.75 L-132.95 -151.9 -133.25 -152.55 -133.25 -152.6 -133.3 -152.75 -133.75 -153.4 -134.4 -153.9 Q-135.2 -154.4 -136.5 -154.55 L-136.5 -154.65 -136.8 -154.65 -136.8 -155.2 -138.2 -155.2 -138.2 -154.65 Q-139.8 -154.45 -140.75 -153.85 -141.55 -153.35 -141.7 -152.6 L-141.75 -152.2 -141.75 -152.05 Q-141.75 -151.5 -141.35 -151.0 L-140.5 -149.95 -139.7 -149.5 -139.6 -149.45 -138.2 -149.0 -138.2 -147.05 -139.05 -147.55 -139.3 -147.75 -139.55 -148.1 -139.55 -148.2 -139.65 -148.4 -142.05 -148.25 M-135.65 -145.15 L-136.5 -144.35 -136.5 -145.1 -135.65 -145.15 M-137.85 -144.1 L-138.15 -144.35 -139.0 -145.2 -138.2 -145.05 -138.2 -144.55 -137.85 -144.55 -137.85 -144.1" fill="#0d90fc" fill-rule="evenodd" stroke="none"/>
    <path d="M-142.05 -148.1 L-142.15 -148.25 -142.05 -148.25 -139.65 -148.4 -139.55 -148.2 -139.55 -148.1 -139.3 -147.75 -139.05 -147.55 -138.2 -147.05 -138.2 -149.0 -139.6 -149.45 -139.7 -149.5 -140.5 -149.95 -141.35 -151.0 Q-141.75 -151.5 -141.75 -152.05 L-141.75 -152.2 -141.7 -152.6 Q-141.55 -153.35 -140.75 -153.85 -139.8 -154.45 -138.2 -154.65 L-138.2 -155.2 -136.8 -155.2 -136.8 -154.65 -136.5 -154.65 -136.5 -154.55 Q-135.2 -154.4 -134.4 -153.9 L-133.75 -153.4 -133.3 -152.75 -133.25 -152.6 -133.25 -152.55 -132.95 -151.9 -135.25 -151.75 Q-135.4 -152.25 -135.9 -152.5 L-136.5 -152.7 -136.5 -150.9 -135.9 -150.75 -134.55 -150.35 -133.65 -149.95 Q-133.1 -149.55 -132.95 -149.0 L-132.6 -148.2 -132.55 -147.9 -132.55 -147.75 -132.6 -147.3 Q-132.7 -146.9 -132.95 -146.55 L-133.35 -146.15 -133.6 -146.0 -134.35 -145.55 -135.15 -145.25 -135.65 -145.15 -136.5 -145.1 -136.5 -144.35 -136.5 -144.0 -137.85 -144.0 -137.85 -144.1 -137.85 -144.55 -138.2 -144.55 -138.2 -145.05 -139.0 -145.2 -139.2 -145.25 -140.5 -145.85 -140.65 -145.95 -141.3 -146.6 -141.55 -147.05 -141.95 -147.95 -142.05 -148.1" fill="#0563be" fill-rule="evenodd" stroke="none"/>
    <path d="M-143.95 -150.15 L-143.75 -149.9 -138.2 -144.35 Q-137.85 -144.0 -137.35 -144.0 -136.85 -144.0 -136.55 -144.35 L-130.95 -149.9 Q-130.6 -150.25 -130.6 -150.75 L-130.65 -151.05 -130.5 -150.5 Q-130.5 -149.95 -130.85 -149.65 L-136.4 -144.1 Q-136.75 -143.75 -137.25 -143.75 -137.75 -143.75 -138.1 -144.1 L-143.65 -149.65 -143.95 -150.15 M-145.0 -151.85 L-144.6 -152.4 -139.05 -158.0 -138.55 -158.35 -138.0 -158.55 -137.35 -158.7 Q-136.35 -158.7 -135.65 -158.0 L-130.15 -152.4 -129.95 -152.2 -129.55 -151.5 -130.05 -152.2 -135.6 -157.75 Q-136.25 -158.45 -137.25 -158.45 -138.2 -158.45 -138.95 -157.75 L-144.5 -152.2 -145.15 -151.05 -145.05 -149.7 -145.25 -150.4 -145.25 -151.15 -145.25 -151.25 -145.0 -151.85" fill="#013465" fill-rule="evenodd" stroke="none"/>
    <path d="M-142.35 -152.1 L-142.65 -153.15 Q-142.65 -154.4 -141.5 -155.15 -140.25 -155.9 -138.45 -156.0 L-138.45 -156.8 -137.15 -156.8 -137.15 -156.4 -137.05 -156.4 -136.75 -156.3 -136.75 -156.0 -134.0 -155.35 -133.5 -154.95 Q-133.15 -154.6 -132.95 -154.0 L-132.95 -153.95 -132.55 -153.15 -135.35 -153.0 -135.5 -153.45 -135.6 -153.55 -135.6 -153.65 -135.7 -153.65 -136.75 -154.1 -136.75 -151.85 -136.1 -151.65 Q-134.1 -151.25 -133.15 -150.6 L-133.45 -150.9 Q-132.75 -150.4 -132.55 -149.75 L-132.45 -149.1 Q-132.45 -147.75 -133.7 -146.9 -134.85 -146.15 -136.65 -145.85 L-137.15 -145.75 -137.15 -144.5 -138.45 -144.5 -138.45 -145.55 -138.75 -145.55 -138.75 -145.75 -139.4 -145.75 -140.65 -146.15 -141.9 -146.7 -142.35 -147.0 -142.65 -147.45 -142.95 -147.95 -143.1 -148.5 -143.1 -148.6 -140.35 -148.7 -140.1 -148.3 -139.8 -148.05 -139.6 -147.85 -138.45 -147.15 -138.45 -150.1 -138.75 -150.2 -138.75 -150.4 Q-140.85 -150.9 -141.9 -151.55 L-142.25 -151.95 -142.35 -152.1 M-138.75 -154.6 L-139.6 -154.3 -140.1 -153.75 -139.9 -153.05 -139.8 -153.0 -139.7 -153.15 -139.4 -152.7 -139.6 -152.8 -139.05 -152.3 -138.45 -152.1 -138.45 -154.5 -138.75 -154.5 -138.75 -154.6 M-135.35 -149.25 L-135.7 -149.55 -137.15 -150.1 -136.95 -147.15 -136.75 -147.45 -136.75 -147.1 Q-136.1 -147.15 -135.4 -147.55 -134.95 -148.05 -134.95 -148.5 -134.95 -149.0 -135.35 -149.35 L-135.35 -149.25" fill="#a3dafe" fill-rule="evenodd" stroke="none"/>
    <path d="M-22.35 77.9 L-22.35 127.0 -250.35 127.0 -250.35 77.9 -22.35 77.9" fill="#202121" fill-rule="evenodd" stroke="none"/>
    <path d="M-22.35 77.9 L-250.35 77.9 -250.35 127.0 -22.35 127.0 -22.35 77.9 Z" fill="none" stroke="#111010" stroke-linecap="butt" stroke-linejoin="miter-clip" stroke-miterlimit="4.0" stroke-width="1.0"/>
    <path d="M-25.45 94.05 L-22.75 92.05 -22.75 112.85 -25.45 110.85 -25.45 94.05" fill="#121412" fill-rule="evenodd" stroke="none"/>
    <path d="M-250.35 94.05 L-247.65 92.05 -247.65 112.85 -250.35 110.85 -250.35 94.05" fill="#121412" fill-rule="evenodd" stroke="none"/>
    <path d="M-55.6 91.65 Q-54.2 91.65 -53.3 92.65 -52.3 93.6 -52.3 94.95 L-52.3 110.55 Q-52.3 111.9 -53.3 112.85 -54.2 113.85 -55.6 113.85 L-190.15 113.85 Q-191.5 113.85 -192.45 112.85 -193.45 111.9 -193.45 110.55 L-193.45 94.95 Q-193.45 93.6 -192.45 92.65 -191.5 91.65 -190.15 91.65 L-55.6 91.65" fill="#4d4d4d" fill-rule="evenodd" stroke="none"/>
    <path d="M-198.9 92.45 L-198.9 113.3 -219.75 113.3 -219.75 92.45 -198.9 92.45" fill="#0f0f0f" fill-rule="evenodd" stroke="none"/>
    <path d="M-209.7 99.1 Q-211.05 99.2 -212.0 100.15 -212.95 101.1 -213.1 102.45 -213.25 103.8 -212.55 104.9 L-207.3 99.65 Q-208.4 98.95 -209.7 99.1 M-205.55 103.25 Q-205.4 101.95 -206.1 100.85 L-211.35 106.05 Q-210.25 106.8 -208.9 106.65 -207.55 106.5 -206.6 105.55 -205.7 104.6 -205.55 103.25 M-213.3 98.9 Q-211.65 97.25 -209.3 97.25 -207.0 97.25 -205.35 98.9 -204.05 100.2 -203.75 102.1 L-202.3 102.1 -202.3 103.6 -203.75 103.6 Q-204.05 105.5 -205.35 106.85 -207.0 108.45 -209.3 108.45 -211.65 108.45 -213.3 106.85 -214.65 105.5 -214.85 103.6 L-216.35 103.6 -216.35 102.1 -214.85 102.1 Q-214.6 100.15 -213.3 98.9" fill="#191919" fill-rule="evenodd" stroke="none"/>
    <path d="M-62.4 92.65 Q-61.15 92.65 -60.3 93.55 -59.4 94.4 -59.4 95.65 L-59.4 109.8 Q-59.4 111.05 -60.3 111.9 -61.15 112.8 -62.4 112.8 L-188.8 112.8 Q-190.05 112.8 -190.9 111.9 -191.8 111.05 -191.8 109.8 L-191.8 95.65 Q-191.8 94.4 -190.9 93.55 -190.05 92.65 -188.8 92.65 L-62.4 92.65" fill="#111111" fill-rule="evenodd" stroke="none"/>
    <path d="M-114.35 129.4 L-111.95 129.8 Q-110.75 130.2 -110.3 130.75 L-108.7 131.75 -106.25 132.15 -80.65 132.15 Q-79.4 132.15 -77.95 132.8 -76.5 133.45 -75.7 134.4 L-70.05 140.75 Q-69.2 141.65 -69.5 142.35 -69.8 143.0 -71.05 143.0 L-189.9 143.0 Q-191.15 143.0 -191.45 142.3 -191.75 141.65 -190.95 140.7 L-185.65 134.4 Q-184.85 133.45 -183.4 132.8 -181.95 132.15 -180.7 132.15 L-152.05 132.15 -149.65 131.75 Q-148.5 131.3 -148.1 130.75 -147.75 130.2 -146.55 129.8 L-144.15 129.4 -114.35 129.4" fill="#333333" fill-rule="evenodd" stroke="none"/>
    <path d="M-144.5 122.75 L-111.75 122.75 -111.75 123.35 -111.05 123.55 Q-108.7 124.3 -107.8 125.45 -107.0 126.55 -104.65 127.45 -102.25 128.2 -99.75 128.2 L-76.1 128.2 -76.1 129.0 -74.9 129.45 Q-71.9 130.8 -70.35 132.65 L-59.25 145.25 Q-57.5 147.05 -58.1 148.45 -58.7 149.7 -61.25 149.7 L-144.5 149.7 -144.5 122.75 -144.5 149.7 -198.7 149.7 Q-201.25 149.7 -201.85 148.3 -202.35 147.05 -200.8 145.15 L-190.3 132.65 Q-189.35 131.5 -187.85 130.6 L-187.85 128.2 -160.95 128.2 Q-158.5 128.2 -156.15 127.45 -153.95 126.55 -153.15 125.45 -152.4 124.3 -150.05 123.55 L-150.0 123.55 -150.0 122.75 -148.75 122.75 -144.5 122.75 M-150.0 123.55 L-148.75 123.15 -148.75 122.75 -148.75 123.15 -150.0 123.55" fill="#1e1e1e" fill-rule="evenodd" stroke="none"/>
    <path d="M137.95 -152.75 L145.7 -155.35 144.8 -146.3 137.8 -143.75 137.95 -152.75" fill="#094ace" fill-rule="evenodd" stroke="none"/>
    <path d="M136.8 -143.75 L129.85 -146.6 128.85 -155.6 136.95 -152.75 136.8 -143.75" fill="#0f67f4" fill-rule="evenodd" stroke="none"/>
    <path d="M137.45 -153.65 L129.85 -156.3 137.55 -158.75 144.75 -156.05 137.45 -153.65" fill="#0d90fc" fill-rule="evenodd" stroke="none"/>
    <path d="M6.55 -62.75 L6.55 -14.05 Q6.55 -12.8 5.65 -11.95 4.8 -11.05 3.55 -11.05 L-2.7 -11.05 Q-3.95 -11.05 -4.8 -11.95 -5.7 -12.8 -5.7 -14.05 L-5.7 -62.75 Q-5.7 -64.0 -4.8 -64.85 -3.95 -65.75 -2.7 -65.75 L3.55 -65.75 Q4.8 -65.75 5.65 -64.85 6.55 -64.0 6.55 -62.75" fill="#010814" fill-rule="evenodd" stroke="none"/>
    <path d="M4.4 -62.05 L4.4 -14.8 Q4.4 -13.95 3.8 -13.4 3.25 -12.8 2.4 -12.8 L-1.85 -12.8 Q-2.65 -12.8 -3.25 -13.4 -3.85 -13.95 -3.85 -14.8 L-3.85 -62.05 Q-3.85 -62.85 -3.25 -63.45 -2.65 -64.05 -1.85 -64.05 L2.4 -64.05 Q3.25 -64.05 3.8 -63.45 4.4 -62.85 4.4 -62.05" fill="url(#gradient16)" fill-rule="evenodd" stroke="none"/>
    <path d="M-2.85 -64.05 L3.4 -64.05 4.1 -63.75 4.4 -63.05 4.4 -58.15 4.1 -57.45 Q3.8 -57.15 3.4 -57.15 L-2.85 -57.15 Q-3.25 -57.15 -3.55 -57.45 L-3.85 -58.15 -3.85 -63.05 -3.55 -63.75 Q-3.25 -64.05 -2.85 -64.05" fill="url(#gradient17)" fill-rule="evenodd" stroke="none"/>
    <path d="M4.4 -58.25 L-3.85 -58.25 -3.85 -63.0 4.4 -63.0 4.4 -58.25" fill="#363738" fill-rule="evenodd" stroke="none"/>
    <path d="M-1.85 -58.85 L-2.85 -58.85 -2.85 -62.45 -1.85 -62.45 -1.85 -58.85" fill="#0c0c0c" fill-rule="evenodd" stroke="none"/>
    <path d="M3.55 -58.85 L2.55 -58.85 2.55 -62.45 3.55 -62.45 3.55 -58.85" fill="#0c0c0c" fill-rule="evenodd" stroke="none"/>
    <path d="M4.4 -53.65 L4.4 -52.6 -3.85 -52.6 -3.85 -53.65 4.4 -53.65" fill="#191919" fill-rule="evenodd" stroke="none"/>
    <path d="M4.4 -49.65 L4.4 -48.6 -3.85 -48.6 -3.85 -49.65 4.4 -49.65" fill="#191919" fill-rule="evenodd" stroke="none"/>
    <path d="M4.4 -28.7 L4.4 -27.65 -3.85 -27.65 -3.85 -28.7 4.4 -28.7" fill="#191919" fill-rule="evenodd" stroke="none"/>
    <path d="M4.4 -24.45 L4.4 -23.4 -3.85 -23.4 -3.85 -24.45 4.4 -24.45" fill="#191919" fill-rule="evenodd" stroke="none"/>
    <path d="M4.4 -18.4 L4.4 -13.55 4.1 -12.85 Q3.8 -12.55 3.4 -12.55 L-2.85 -12.55 Q-3.25 -12.55 -3.55 -12.85 L-3.85 -13.55 -3.85 -18.4 -3.55 -19.1 Q-3.25 -19.4 -2.85 -19.4 L3.4 -19.4 4.1 -19.1 4.4 -18.4" fill="url(#gradient18)" fill-rule="evenodd" stroke="none"/>
    <path d="M4.4 -13.6 L-3.85 -13.6 -3.85 -18.35 4.4 -18.35 4.4 -13.6" fill="#363738" fill-rule="evenodd" stroke="none"/>
    <path d="M-1.85 -14.2 L-2.85 -14.2 -2.85 -17.75 -1.85 -17.75 -1.85 -14.2" fill="#0c0c0c" fill-rule="evenodd" stroke="none"/>
    <path d="M3.55 -14.2 L2.55 -14.2 2.55 -17.75 3.55 -17.75 3.55 -14.2" fill="#0c0c0c" fill-rule="evenodd" stroke="none"/>
    <path d="M6.55 12.25 L6.55 60.9 Q6.55 62.15 5.65 63.0 4.8 63.9 3.55 63.9 L-2.7 63.9 Q-3.95 63.9 -4.8 63.0 -5.7 62.15 -5.7 60.9 L-5.7 12.25 Q-5.7 11.0 -4.8 10.15 -3.95 9.25 -2.7 9.25 L3.55 9.25 Q4.8 9.25 5.65 10.15 6.55 11.0 6.55 12.25" fill="#010814" fill-rule="evenodd" stroke="none"/>
    <path d="M4.4 12.95 L4.4 60.2 Q4.4 61.05 3.8 61.6 3.25 62.2 2.4 62.2 L-1.85 62.2 Q-2.65 62.2 -3.25 61.6 -3.85 61.05 -3.85 60.2 L-3.85 12.95 Q-3.85 12.15 -3.25 11.55 -2.65 10.95 -1.85 10.95 L2.4 10.95 Q3.25 10.95 3.8 11.55 4.4 12.15 4.4 12.95" fill="url(#gradient19)" fill-rule="evenodd" stroke="none"/>
    <path d="M-2.85 10.95 L3.4 10.95 Q3.8 10.95 4.1 11.25 L4.4 11.95 4.4 16.8 4.1 17.5 3.4 17.8 -2.85 17.8 Q-3.25 17.8 -3.55 17.5 L-3.85 16.8 -3.85 11.95 -3.55 11.25 Q-3.25 10.95 -2.85 10.95" fill="url(#gradient20)" fill-rule="evenodd" stroke="none"/>
    <path d="M4.4 16.7 L-3.85 16.7 -3.85 11.95 4.4 11.95 4.4 16.7" fill="#363738" fill-rule="evenodd" stroke="none"/>
    <path d="M-1.85 16.1 L-2.85 16.1 -2.85 12.55 -1.85 12.55 -1.85 16.1" fill="#0c0c0c" fill-rule="evenodd" stroke="none"/>
    <path d="M3.55 16.1 L2.55 16.1 2.55 12.55 3.55 12.55 3.55 16.1" fill="#0c0c0c" fill-rule="evenodd" stroke="none"/>
    <path d="M4.4 21.3 L4.4 22.35 -3.85 22.35 -3.85 21.3 4.4 21.3" fill="#191919" fill-rule="evenodd" stroke="none"/>
    <path d="M4.4 25.3 L4.4 26.35 -3.85 26.35 -3.85 25.3 4.4 25.3" fill="#191919" fill-rule="evenodd" stroke="none"/>
    <path d="M4.4 46.25 L4.4 47.3 -3.85 47.3 -3.85 46.25 4.4 46.25" fill="#191919" fill-rule="evenodd" stroke="none"/>
    <path d="M4.4 50.5 L4.4 51.55 -3.85 51.55 -3.85 50.5 4.4 50.5" fill="#191919" fill-rule="evenodd" stroke="none"/>
    <path d="M4.4 56.55 L4.4 61.45 4.1 62.15 3.4 62.45 -2.85 62.45 Q-3.25 62.45 -3.55 62.15 L-3.85 61.45 -3.85 56.55 -3.55 55.85 Q-3.25 55.55 -2.85 55.55 L3.4 55.55 Q3.8 55.55 4.1 55.85 L4.4 56.55" fill="url(#gradient21)" fill-rule="evenodd" stroke="none"/>
    <path d="M4.4 61.35 L-3.85 61.35 -3.85 56.6 4.4 56.6 4.4 61.35" fill="#363738" fill-rule="evenodd" stroke="none"/>
    <path d="M-1.85 60.8 L-2.85 60.8 -2.85 57.2 -1.85 57.2 -1.85 60.8" fill="#0c0c0c" fill-rule="evenodd" stroke="none"/>
    <path d="M3.55 60.8 L2.55 60.8 2.55 57.2 3.55 57.2 3.55 60.8" fill="#0c0c0c" fill-rule="evenodd" stroke="none"/>
    <path d="M280.9 62.15 L279.5 64.45 274.75 65.6 266.65 60.8 265.4 56.05 266.8 53.8 280.9 62.15" fill="url(#gradient22)" fill-rule="evenodd" stroke="none"/>
    <path d="M272.05 67.1 L266.75 63.95 268.1 61.7 273.35 64.75 272.05 67.1" fill="#333333" fill-rule="evenodd" stroke="none"/>
  </g>
  <defs>
    <linearGradient gradientTransform="matrix(0.0, -0.1769, -0.1769, 0.0, -137.2, 5.1)" gradientUnits="userSpaceOnUse" id="gradient0" spreadMethod="pad" x1="-819.2" x2="819.2">
      <stop offset="0.0" stop-color="#373737"/>
      <stop offset="0.17254901960784313" stop-color="#656565"/>
      <stop offset="0.33725490196078434" stop-color="#6c6c6c"/>
      <stop offset="0.5843137254901961" stop-color="#808080"/>
      <stop offset="0.8784313725490196" stop-color="#a1a1a1"/>
      <stop offset="0.9019607843137255" stop-color="#a4a4a4"/>
      <stop offset="1.0" stop-color="#373737"/>
    </linearGradient>
    <linearGradient gradientTransform="matrix(0.0, -0.1546, -0.1546, 0.0, -136.2, 8.0)" gradientUnits="userSpaceOnUse" id="gradient1" spreadMethod="pad" x1="-819.2" x2="819.2">
      <stop offset="0.0" stop-color="#505050"/>
      <stop offset="1.0" stop-color="#393939"/>
    </linearGradient>
    <linearGradient gradientTransform="matrix(0.0, -0.1484, -0.1484, 0.0, 263.0, 14.85)" gradientUnits="userSpaceOnUse" id="gradient2" spreadMethod="pad" x1="-819.2" x2="819.2">
      <stop offset="0.0" stop-color="#1a171a"/>
      <stop offset="1.0" stop-color="#282628"/>
    </linearGradient>
    <linearGradient gradientTransform="matrix(0.0, -0.1484, -0.1484, 0.0, 263.0, 5.85)" gradientUnits="userSpaceOnUse" id="gradient3" spreadMethod="pad" x1="-819.2" x2="819.2">
      <stop offset="0.0" stop-color="#1a171a"/>
      <stop offset="1.0" stop-color="#282628"/>
    </linearGradient>
    <linearGradient gradientTransform="matrix(0.0, -0.1824, -0.1824, 0.0, 136.25, 9.6)" gradientUnits="userSpaceOnUse" id="gradient4" spreadMethod="pad" x1="-819.2" x2="819.2">
      <stop offset="0.0" stop-color="#373737"/>
      <stop offset="0.17254901960784313" stop-color="#656565"/>
      <stop offset="0.33725490196078434" stop-color="#6c6c6c"/>
      <stop offset="0.5843137254901961" stop-color="#808080"/>
      <stop offset="0.8784313725490196" stop-color="#a1a1a1"/>
      <stop offset="0.9019607843137255" stop-color="#a4a4a4"/>
      <stop offset="1.0" stop-color="#373737"/>
    </linearGradient>
    <linearGradient gradientTransform="matrix(0.0, -0.1546, -0.1546, 0.0, 133.0, 8.0)" gradientUnits="userSpaceOnUse" id="gradient5" spreadMethod="pad" x1="-819.2" x2="819.2">
      <stop offset="0.0" stop-color="#505050"/>
      <stop offset="1.0" stop-color="#393939"/>
    </linearGradient>
    <linearGradient gradientTransform="matrix(0.0, -0.0207, 0.0207, 0.0, 136.25, -149.85)" gradientUnits="userSpaceOnUse" id="gradient6" spreadMethod="pad" x1="-819.2" x2="819.2">
      <stop offset="0.0" stop-color="#373737"/>
      <stop offset="0.6549019607843137" stop-color="#a4a4a4"/>
      <stop offset="0.803921568627451" stop-color="#a4a4a4"/>
      <stop offset="1.0" stop-color="#6b6b6b"/>
    </linearGradient>
    <linearGradient gradientTransform="matrix(0.0016, 0.004, 0.0094, -0.0039, 62.65, -122.25)" gradientUnits="userSpaceOnUse" id="gradient7" spreadMethod="pad" x1="-819.2" x2="819.2">
      <stop offset="0.0" stop-color="#505050"/>
      <stop offset="0.09803921568627451" stop-color="#373737"/>
      <stop offset="0.5254901960784314" stop-color="#6e6861"/>
      <stop offset="0.8862745098039215" stop-color="#3d3d3d"/>
      <stop offset="1.0" stop-color="#505050"/>
    </linearGradient>
    <linearGradient gradientTransform="matrix(-0.0016, 0.004, -0.0094, -0.0039, 210.0, -122.25)" gradientUnits="userSpaceOnUse" id="gradient8" spreadMethod="pad" x1="-819.2" x2="819.2">
      <stop offset="0.0" stop-color="#505050"/>
      <stop offset="0.09803921568627451" stop-color="#373737"/>
      <stop offset="0.5254901960784314" stop-color="#6e6861"/>
      <stop offset="0.8862745098039215" stop-color="#3d3d3d"/>
      <stop offset="1.0" stop-color="#505050"/>
    </linearGradient>
    <linearGradient gradientTransform="matrix(-0.0053, 0.0096, 0.0096, 0.0053, 167.05, -141.3)" gradientUnits="userSpaceOnUse" id="gradient9" spreadMethod="pad" x1="-819.2" x2="819.2">
      <stop offset="0.0" stop-color="#505050"/>
      <stop offset="0.09803921568627451" stop-color="#373737"/>
      <stop offset="0.5254901960784314" stop-color="#6e6963"/>
      <stop offset="0.8862745098039215" stop-color="#3d3d3d"/>
      <stop offset="1.0" stop-color="#505050"/>
    </linearGradient>
    <linearGradient gradientTransform="matrix(0.0053, 0.0096, -0.0096, 0.0053, 104.7, -141.3)" gradientUnits="userSpaceOnUse" id="gradient10" spreadMethod="pad" x1="-819.2" x2="819.2">
      <stop offset="0.0" stop-color="#505050"/>
      <stop offset="0.09803921568627451" stop-color="#373737"/>
      <stop offset="0.5254901960784314" stop-color="#6e6963"/>
      <stop offset="0.8862745098039215" stop-color="#3d3d3d"/>
      <stop offset="1.0" stop-color="#505050"/>
    </linearGradient>
    <linearGradient gradientTransform="matrix(0.0, -0.0207, 0.0207, 0.0, -137.25, -149.85)" gradientUnits="userSpaceOnUse" id="gradient11" spreadMethod="pad" x1="-819.2" x2="819.2">
      <stop offset="0.0" stop-color="#373737"/>
      <stop offset="0.6549019607843137" stop-color="#a4a4a4"/>
      <stop offset="0.803921568627451" stop-color="#a4a4a4"/>
      <stop offset="1.0" stop-color="#6b6b6b"/>
    </linearGradient>
    <linearGradient gradientTransform="matrix(0.0016, 0.004, 0.0094, -0.0039, -210.85, -122.25)" gradientUnits="userSpaceOnUse" id="gradient12" spreadMethod="pad" x1="-819.2" x2="819.2">
      <stop offset="0.0" stop-color="#505050"/>
      <stop offset="0.09803921568627451" stop-color="#373737"/>
      <stop offset="0.5254901960784314" stop-color="#6e6861"/>
      <stop offset="0.8862745098039215" stop-color="#3d3d3d"/>
      <stop offset="1.0" stop-color="#505050"/>
    </linearGradient>
    <linearGradient gradientTransform="matrix(-0.0016, 0.004, -0.0094, -0.0039, -63.5, -122.25)" gradientUnits="userSpaceOnUse" id="gradient13" spreadMethod="pad" x1="-819.2" x2="819.2">
      <stop offset="0.0" stop-color="#505050"/>
      <stop offset="0.09803921568627451" stop-color="#373737"/>
      <stop offset="0.5254901960784314" stop-color="#6e6861"/>
      <stop offset="0.8862745098039215" stop-color="#3d3d3d"/>
      <stop offset="1.0" stop-color="#505050"/>
    </linearGradient>
    <linearGradient gradientTransform="matrix(-0.0053, 0.0096, 0.0096, 0.0053, -106.45, -141.3)" gradientUnits="userSpaceOnUse" id="gradient14" spreadMethod="pad" x1="-819.2" x2="819.2">
      <stop offset="0.0" stop-color="#505050"/>
      <stop offset="0.09803921568627451" stop-color="#373737"/>
      <stop offset="0.5254901960784314" stop-color="#6e6963"/>
      <stop offset="0.8862745098039215" stop-color="#3d3d3d"/>
      <stop offset="1.0" stop-color="#505050"/>
    </linearGradient>
    <linearGradient gradientTransform="matrix(0.0053, 0.0096, -0.0096, 0.0053, -168.8, -141.3)" gradientUnits="userSpaceOnUse" id="gradient15" spreadMethod="pad" x1="-819.2" x2="819.2">
      <stop offset="0.0" stop-color="#505050"/>
      <stop offset="0.09803921568627451" stop-color="#373737"/>
      <stop offset="0.5254901960784314" stop-color="#6e6963"/>
      <stop offset="0.8862745098039215" stop-color="#3d3d3d"/>
      <stop offset="1.0" stop-color="#505050"/>
    </linearGradient>
    <linearGradient gradientTransform="matrix(0.005, 0.0, 0.0, -0.005, 0.3, -38.4)" gradientUnits="userSpaceOnUse" id="gradient16" spreadMethod="pad" x1="-819.2" x2="819.2">
      <stop offset="0.0" stop-color="#000000"/>
      <stop offset="0.5137254901960784" stop-color="#333336"/>
      <stop offset="1.0" stop-color="#000000"/>
    </linearGradient>
    <linearGradient gradientTransform="matrix(0.005, 0.0, 0.0, -0.005, 0.3, -60.6)" gradientUnits="userSpaceOnUse" id="gradient17" spreadMethod="pad" x1="-819.2" x2="819.2">
      <stop offset="0.0" stop-color="#505050"/>
      <stop offset="0.09803921568627451" stop-color="#373737"/>
      <stop offset="0.5254901960784314" stop-color="#6e6963"/>
      <stop offset="0.8862745098039215" stop-color="#3d3d3d"/>
      <stop offset="1.0" stop-color="#505050"/>
    </linearGradient>
    <linearGradient gradientTransform="matrix(0.005, 0.0, 0.0, -0.005, 0.3, -15.95)" gradientUnits="userSpaceOnUse" id="gradient18" spreadMethod="pad" x1="-819.2" x2="819.2">
      <stop offset="0.0" stop-color="#505050"/>
      <stop offset="0.09803921568627451" stop-color="#373737"/>
      <stop offset="0.5254901960784314" stop-color="#6e6963"/>
      <stop offset="0.8862745098039215" stop-color="#3d3d3d"/>
      <stop offset="1.0" stop-color="#505050"/>
    </linearGradient>
    <linearGradient gradientTransform="matrix(0.005, 0.0, 0.0, -0.005, 0.3, 36.55)" gradientUnits="userSpaceOnUse" id="gradient19" spreadMethod="pad" x1="-819.2" x2="819.2">
      <stop offset="0.0" stop-color="#000000"/>
      <stop offset="0.5137254901960784" stop-color="#333336"/>
      <stop offset="1.0" stop-color="#000000"/>
    </linearGradient>
    <linearGradient gradientTransform="matrix(0.005, 0.0, 0.0, -0.005, 0.3, 14.35)" gradientUnits="userSpaceOnUse" id="gradient20" spreadMethod="pad" x1="-819.2" x2="819.2">
      <stop offset="0.0" stop-color="#505050"/>
      <stop offset="0.09803921568627451" stop-color="#373737"/>
      <stop offset="0.5254901960784314" stop-color="#6e6963"/>
      <stop offset="0.8862745098039215" stop-color="#3d3d3d"/>
      <stop offset="1.0" stop-color="#505050"/>
    </linearGradient>
    <linearGradient gradientTransform="matrix(0.005, 0.0, 0.0, -0.005, 0.3, 59.0)" gradientUnits="userSpaceOnUse" id="gradient21" spreadMethod="pad" x1="-819.2" x2="819.2">
      <stop offset="0.0" stop-color="#505050"/>
      <stop offset="0.09803921568627451" stop-color="#373737"/>
      <stop offset="0.5254901960784314" stop-color="#6e6963"/>
      <stop offset="0.8862745098039215" stop-color="#3d3d3d"/>
      <stop offset="1.0" stop-color="#505050"/>
    </linearGradient>
    <linearGradient gradientTransform="matrix(-0.0088, -0.0049, -0.0049, 0.0088, 272.35, 60.55)" gradientUnits="userSpaceOnUse" id="gradient22" spreadMethod="pad" x1="-819.2" x2="819.2">
      <stop offset="0.0" stop-color="#505050"/>
      <stop offset="0.09803921568627451" stop-color="#373737"/>
      <stop offset="0.5254901960784314" stop-color="#6e6963"/>
      <stop offset="0.8862745098039215" stop-color="#3d3d3d"/>
      <stop offset="1.0" stop-color="#505050"/>
    </linearGradient>
  </defs>
</svg>
