<?xml version="1.0" encoding="UTF-8" standalone="no"?>
<svg xmlns:ffdec="https://www.free-decompiler.com/flash" xmlns:xlink="http://www.w3.org/1999/xlink" ffdec:objectType="shape" height="17.0px" width="37.0px" xmlns="http://www.w3.org/2000/svg">
  <g transform="matrix(1.0, 0.0, 0.0, 1.0, -36.55, -187.8)">
    <path d="M47.75 190.2 L47.4 190.2 40.75 200.25 42.9 202.35 47.75 202.35 47.75 204.3 39.65 204.3 37.2 201.85 46.2 188.3 47.75 188.3 47.75 190.2" fill="url(#gradient0)" fill-rule="evenodd" stroke="none"/>
    <path d="M58.75 190.2 L47.75 190.2 47.75 188.3 58.75 188.3 58.75 190.2 M47.75 202.35 L58.75 202.35 58.75 204.3 47.75 204.3 47.75 202.35" fill="url(#gradient1)" fill-rule="evenodd" stroke="none"/>
    <path d="M58.75 202.35 L66.4 202.35 69.0 199.75 61.95 190.2 58.75 190.2 58.75 188.3 63.35 188.3 72.9 201.85 69.85 204.3 58.75 204.3 58.75 202.35" fill="url(#gradient2)" fill-rule="evenodd" stroke="none"/>
    <path d="M58.75 190.2 L61.95 190.2 69.0 199.75 66.4 202.35 58.75 202.35 47.75 202.35 42.9 202.35 40.75 200.25 47.4 190.2 47.75 190.2 58.75 190.2" fill="#000102" fill-rule="evenodd" stroke="none"/>
    <path d="M58.75 204.3 L69.85 204.3 72.9 201.85 63.35 188.3 58.75 188.3 47.75 188.3 46.2 188.3 37.2 201.85 39.65 204.3 47.75 204.3 58.75 204.3 Z" fill="none" stroke="#736357" stroke-linecap="butt" stroke-linejoin="miter-clip" stroke-miterlimit="4.0" stroke-width="1.0"/>
  </g>
  <defs>
    <linearGradient gradientTransform="matrix(0.0, -0.0098, 0.0098, 0.0, 51.55, 196.3)" gradientUnits="userSpaceOnUse" id="gradient0" spreadMethod="pad" x1="-819.2" x2="819.2">
      <stop offset="0.0" stop-color="#242424"/>
      <stop offset="1.0" stop-color="#505050"/>
    </linearGradient>
    <linearGradient gradientTransform="matrix(0.0, -0.0098, 0.0269, 0.0, 58.2, 196.3)" gradientUnits="userSpaceOnUse" id="gradient1" spreadMethod="pad" x1="-819.2" x2="819.2">
      <stop offset="0.0" stop-color="#242424"/>
      <stop offset="1.0" stop-color="#505050"/>
    </linearGradient>
    <linearGradient gradientTransform="matrix(0.0, -0.0098, 0.0098, 0.0, 58.55, 196.3)" gradientUnits="userSpaceOnUse" id="gradient2" spreadMethod="pad" x1="-819.2" x2="819.2">
      <stop offset="0.0" stop-color="#242424"/>
      <stop offset="1.0" stop-color="#505050"/>
    </linearGradient>
  </defs>
</svg>
