<?xml version="1.0" encoding="UTF-8" standalone="no"?>
<svg xmlns:ffdec="https://www.free-decompiler.com/flash" xmlns:xlink="http://www.w3.org/1999/xlink" ffdec:objectType="shape" height="130.75px" width="284.85px" xmlns="http://www.w3.org/2000/svg">
  <g transform="matrix(1.0, 0.0, 0.0, 1.0, 142.4, 65.4)">
    <path d="M141.95 -51.4 L141.95 61.35 Q141.95 62.8 140.95 63.85 139.9 64.85 138.45 64.85 L-138.4 64.85 Q-139.85 64.85 -140.9 63.85 -141.9 62.8 -141.9 61.35 L-141.9 -61.4 Q-141.9 -62.85 -140.9 -63.85 -139.85 -64.9 -138.4 -64.9 L-67.65 -64.9 -64.65 -64.35 Q-63.0 -63.85 -61.9 -63.1 L-52.2 -56.5 Q-51.25 -55.85 -49.7 -55.35 L-47.0 -54.9 138.45 -54.9 Q139.9 -54.9 140.95 -53.85 141.95 -52.85 141.95 -51.4" fill="url(#gradient0)" fill-rule="evenodd" stroke="none"/>
    <path d="M141.45 -51.4 Q141.45 -52.65 140.55 -53.5 139.7 -54.4 138.45 -54.4 L-47.0 -54.4 -49.85 -54.9 Q-51.45 -55.4 -52.45 -56.1 L-62.2 -62.7 Q-63.2 -63.4 -64.8 -63.9 L-67.65 -64.4 -138.4 -64.4 Q-139.65 -64.4 -140.5 -63.5 -141.4 -62.65 -141.4 -61.4 L-141.4 61.35 Q-141.4 62.6 -140.5 63.5 -139.65 64.35 -138.4 64.35 L138.45 64.35 Q139.7 64.35 140.55 63.5 141.45 62.6 141.45 61.35 L141.45 -51.4 M138.45 -55.4 Q140.1 -55.4 141.3 -54.2 142.45 -53.05 142.45 -51.4 L142.45 61.35 Q142.45 63.05 141.3 64.2 140.1 65.35 138.45 65.35 L-138.4 65.35 Q-140.05 65.35 -141.2 64.2 -142.4 63.05 -142.4 61.35 L-142.4 -61.4 Q-142.4 -63.05 -141.2 -64.2 -140.05 -65.4 -138.4 -65.4 L-67.65 -65.4 -64.5 -64.85 Q-62.8 -64.3 -61.6 -63.55 L-51.9 -56.9 Q-51.0 -56.3 -49.55 -55.85 L-47.0 -55.4 138.45 -55.4" fill="#0068ff" fill-rule="evenodd" stroke="none"/>
    <path d="M139.9 62.5 L136.95 62.5 136.95 62.0 139.4 62.0 139.4 -52.3 -50.75 -52.3 -65.9 -62.25 -139.55 -62.25 -139.55 62.0 -136.3 62.0 -136.3 62.5 -140.05 62.5 -140.05 -62.75 -65.85 -62.75 -50.75 -52.8 139.9 -52.8 139.9 62.5" fill="#1456c1" fill-rule="evenodd" stroke="none"/>
    <path d="M120.65 -62.15 L123.15 -57.4 -49.0 -57.4 -55.8 -62.15 120.65 -62.15" fill="url(#gradient1)" fill-rule="evenodd" stroke="none"/>
    <path d="M120.65 -62.15 L-55.8 -62.15 -49.0 -57.4 123.15 -57.4 120.65 -62.15 Z" fill="none" stroke="#0842b7" stroke-linecap="butt" stroke-linejoin="miter-clip" stroke-miterlimit="4.0" stroke-width="1.0"/>
    <path d="M-138.05 -62.75 L-129.65 -62.75 -132.35 -60.1 -138.05 -60.1 -138.05 -62.75" fill="#0068ff" fill-rule="evenodd" stroke="none"/>
    <path d="M127.1 -38.5 L127.1 16.15 Q127.1 17.4 126.2 18.25 125.35 19.15 124.1 19.15 L72.15 19.15 69.95 18.75 Q68.75 18.3 67.95 17.7 L67.25 17.2 65.85 16.45 64.3 16.15 -47.7 16.15 -49.9 15.65 Q-51.1 15.15 -51.8 14.4 L-57.55 8.4 -58.7 6.45 Q-59.2 5.25 -59.2 4.25 L-59.2 -38.5 Q-59.2 -39.75 -58.3 -40.6 -57.45 -41.5 -56.2 -41.5 L124.1 -41.5 Q125.35 -41.5 126.2 -40.6 127.1 -39.75 127.1 -38.5" fill="#001556" fill-rule="evenodd" stroke="none"/>
    <path d="M126.1 -38.5 Q126.1 -39.3 125.5 -39.9 124.95 -40.5 124.1 -40.5 L-56.2 -40.5 Q-57.0 -40.5 -57.6 -39.9 -58.2 -39.3 -58.2 -38.5 L-58.2 4.25 Q-58.2 5.05 -57.8 6.1 L-56.8 7.7 -51.05 13.7 -49.5 14.75 -47.7 15.15 64.3 15.15 66.2 15.5 Q67.25 15.9 67.9 16.4 L68.55 16.9 70.3 17.8 72.15 18.15 124.1 18.15 Q124.95 18.15 125.5 17.55 126.1 17.0 126.1 16.15 L126.1 -38.5 M124.1 -42.5 Q125.75 -42.5 126.95 -41.35 128.1 -40.2 128.1 -38.5 L128.1 16.15 Q128.1 17.8 126.95 19.0 125.75 20.15 124.1 20.15 L72.15 20.15 69.6 19.7 Q68.25 19.2 67.35 18.5 L66.65 17.95 65.55 17.4 64.3 17.15 -47.7 17.15 -50.3 16.6 -52.5 15.1 -58.25 9.1 Q-59.1 8.2 -59.65 6.85 -60.2 5.45 -60.2 4.25 L-60.2 -38.5 Q-60.2 -40.2 -59.0 -41.35 -57.85 -42.5 -56.2 -42.5 L124.1 -42.5" fill="#075bd6" fill-rule="evenodd" stroke="none"/>
    <path d="M63.95 18.45 L68.95 22.1 -51.9 22.1 -60.35 14.25 -60.35 9.1 -50.95 18.45 63.95 18.45" fill="#073a93" fill-rule="evenodd" stroke="none"/>
    <path d="M-95.1 33.35 L-35.55 33.35 Q-34.55 33.35 -33.8 34.1 -33.05 34.85 -33.05 35.85 L-33.05 50.55 Q-33.05 51.6 -33.8 52.35 -34.55 53.05 -35.55 53.05 L-95.1 53.05 Q-96.1 53.05 -96.85 52.35 -97.6 51.6 -97.6 50.55 L-97.6 35.85 Q-97.6 34.85 -96.85 34.1 -96.1 33.35 -95.1 33.35" fill="#001556" fill-rule="evenodd" stroke="none"/>
    <path d="M-95.1 33.85 Q-95.9 33.85 -96.5 34.45 -97.1 35.05 -97.1 35.85 L-97.1 50.55 Q-97.1 51.4 -96.5 51.95 -95.9 52.55 -95.1 52.55 L-35.55 52.55 Q-34.7 52.55 -34.15 51.95 -33.55 51.4 -33.55 50.55 L-33.55 35.85 Q-33.55 35.05 -34.15 34.45 -34.7 33.85 -35.55 33.85 L-95.1 33.85 M-98.1 35.85 Q-98.1 34.6 -97.2 33.75 -96.35 32.85 -95.1 32.85 L-35.55 32.85 Q-34.3 32.85 -33.45 33.75 -32.55 34.6 -32.55 35.85 L-32.55 50.55 Q-32.55 51.8 -33.45 52.65 -34.3 53.55 -35.55 53.55 L-95.1 53.55 Q-96.35 53.55 -97.2 52.65 -98.1 51.8 -98.1 50.55 L-98.1 35.85" fill="#0670ef" fill-rule="evenodd" stroke="none"/>
  </g>
  <defs>
    <linearGradient gradientTransform="matrix(0.0, -0.0792, -0.0792, 0.0, 0.05, 0.0)" gradientUnits="userSpaceOnUse" id="gradient0" spreadMethod="pad" x1="-819.2" x2="819.2">
      <stop offset="0.0" stop-color="#05337a"/>
      <stop offset="0.17647058823529413" stop-color="#032970"/>
      <stop offset="0.4627450980392157" stop-color="#012168"/>
      <stop offset="1.0" stop-color="#001f66"/>
    </linearGradient>
    <linearGradient gradientTransform="matrix(0.1092, 0.0, 0.0, -0.1092, 33.7, -59.8)" gradientUnits="userSpaceOnUse" id="gradient1" spreadMethod="pad" x1="-819.2" x2="819.2">
      <stop offset="0.0" stop-color="#1cadff"/>
      <stop offset="1.0" stop-color="#0233b5"/>
    </linearGradient>
  </defs>
</svg>
