<?xml version="1.0" encoding="UTF-8" standalone="no"?>
<svg xmlns:ffdec="https://www.free-decompiler.com/flash" xmlns:xlink="http://www.w3.org/1999/xlink" ffdec:objectType="shape" height="44.05px" width="44.0px" xmlns="http://www.w3.org/2000/svg">
  <g transform="matrix(1.0, 0.0, 0.0, 1.0, 123.55, 40.15)">
    <path d="M-80.05 -36.15 L-80.05 -0.1 Q-80.05 1.35 -81.05 2.35 -82.1 3.4 -83.55 3.4 L-119.55 3.4 Q-120.95 3.4 -122.0 2.35 -123.05 1.35 -123.05 -0.1 L-123.05 -36.15 Q-123.05 -37.55 -122.0 -38.6 -120.95 -39.65 -119.55 -39.65 L-83.55 -39.65 Q-82.1 -39.65 -81.05 -38.6 -80.05 -37.6 -80.05 -36.15" fill="#001556" fill-rule="evenodd" stroke="none"/>
    <path d="M-80.55 -36.15 Q-80.55 -37.35 -81.45 -38.25 -82.3 -39.15 -83.55 -39.15 L-119.55 -39.15 Q-120.8 -39.15 -121.65 -38.25 -122.55 -37.35 -122.55 -36.15 L-122.55 -0.1 Q-122.55 1.15 -121.65 2.0 -120.8 2.9 -119.55 2.9 L-83.55 2.9 Q-82.3 2.9 -81.45 2.0 -80.55 1.15 -80.55 -0.1 L-80.55 -36.15 M-83.55 -40.15 Q-81.9 -40.15 -80.7 -38.95 -79.55 -37.8 -79.55 -36.15 L-79.55 -0.1 Q-79.55 1.55 -80.7 2.75 -81.9 3.9 -83.55 3.9 L-119.55 3.9 Q-121.2 3.9 -122.35 2.75 -123.55 1.55 -123.55 -0.1 L-123.55 -36.15 Q-123.55 -37.8 -122.35 -38.95 -121.2 -40.15 -119.55 -40.15 L-83.55 -40.15" fill="#0b7ff4" fill-rule="evenodd" stroke="none"/>
  </g>
</svg>
