<?xml version="1.0" encoding="UTF-8" standalone="no"?>
<svg xmlns:ffdec="https://www.free-decompiler.com/flash" xmlns:xlink="http://www.w3.org/1999/xlink" ffdec:objectType="shape" height="48.35px" width="48.2px" xmlns="http://www.w3.org/2000/svg">
  <g transform="matrix(1.0, 0.0, 0.0, 1.0, 125.65, 42.3)">
    <path d="M-125.65 -3.6 L-122.55 -3.6 -122.55 0.65 Q-122.55 1.6 -121.85 2.3 -121.2 2.95 -120.25 2.95 L-116.05 2.95 -116.05 6.05 -120.25 6.05 Q-122.45 6.05 -124.05 4.5 -125.65 2.9 -125.65 0.65 L-125.65 -3.6" fill="#08a7ff" fill-rule="evenodd" stroke="none"/>
    <path d="M-77.45 -3.6 L-77.45 0.65 Q-77.45 2.9 -79.0 4.5 -80.6 6.05 -82.85 6.05 L-87.05 6.05 -87.05 2.95 -82.85 2.95 Q-81.85 2.95 -81.2 2.3 -80.5 1.6 -80.5 0.65 L-80.5 -3.6 -77.45 -3.6" fill="#08a7ff" fill-rule="evenodd" stroke="none"/>
    <path d="M-116.05 -39.2 L-120.25 -39.2 Q-121.2 -39.2 -121.85 -38.55 -122.55 -37.85 -122.55 -36.9 L-122.55 -32.65 -125.65 -32.65 -125.65 -36.9 Q-125.65 -39.15 -124.05 -40.7 -122.45 -42.3 -120.25 -42.3 L-116.05 -42.3 -116.05 -39.2" fill="#08a7ff" fill-rule="evenodd" stroke="none"/>
    <path d="M-87.05 -39.2 L-87.05 -42.3 -82.85 -42.3 Q-80.6 -42.3 -79.0 -40.7 -77.45 -39.15 -77.45 -36.9 L-77.45 -32.65 -80.5 -32.65 -80.5 -36.9 Q-80.5 -37.85 -81.2 -38.55 -81.85 -39.2 -82.85 -39.2 L-87.05 -39.2" fill="#08a7ff" fill-rule="evenodd" stroke="none"/>
  </g>
</svg>
