<?xml version="1.0" encoding="UTF-8" standalone="no"?>
<svg xmlns:ffdec="https://www.free-decompiler.com/flash" xmlns:xlink="http://www.w3.org/1999/xlink" ffdec:objectType="shape" height="91.25px" width="154.4px" xmlns="http://www.w3.org/2000/svg">
  <g transform="matrix(1.0, 0.0, 0.0, 1.0, 77.35, 45.65)">
    <path d="M43.95 -45.15 L75.05 -45.15 Q75.7 -45.15 76.1 -44.7 76.55 -44.3 76.55 -43.65 L76.55 -32.2 Q76.55 -31.1 76.1 -30.1 L74.5 -26.65 Q74.1 -25.75 74.1 -24.95 L74.1 25.45 Q74.1 26.3 74.5 27.1 L76.05 30.2 Q76.55 31.1 76.55 32.3 L76.55 43.6 Q76.55 44.25 76.1 44.65 75.7 45.1 75.05 45.1 L-75.35 45.1 Q-76.0 45.1 -76.4 44.65 -76.85 44.25 -76.85 43.6 L-76.85 32.3 Q-76.85 31.1 -76.35 30.2 L-74.85 27.1 Q-74.45 26.45 -74.45 25.45 L-74.45 -24.95 Q-74.45 -25.85 -74.8 -26.65 L-76.4 -30.1 Q-76.85 -31.1 -76.85 -32.2 L-76.85 -43.65 Q-76.85 -44.3 -76.4 -44.7 -76.0 -45.15 -75.35 -45.15 L-42.95 -45.15 Q-41.85 -45.15 -40.85 -44.6 L-36.9 -42.35 Q-36.2 -41.9 -35.3 -41.9 L36.1 -41.9 Q37.0 -41.9 37.7 -42.35 L41.85 -44.6 Q42.85 -45.15 43.95 -45.15" fill="url(#gradient0)" fill-rule="evenodd" stroke="none"/>
    <path d="M43.95 -44.65 L42.1 -44.2 37.95 -41.9 Q37.05 -41.4 36.1 -41.4 L-35.3 -41.4 Q-36.15 -41.4 -37.15 -41.9 L-41.1 -44.15 Q-41.85 -44.65 -42.95 -44.65 L-75.35 -44.65 -76.05 -44.35 -76.35 -43.65 -76.35 -32.2 Q-76.35 -31.1 -75.95 -30.3 L-74.35 -26.85 Q-73.95 -25.85 -73.95 -24.95 L-73.95 25.45 Q-73.95 26.45 -74.4 27.35 L-75.95 30.4 Q-76.35 31.4 -76.35 32.3 L-76.35 43.6 -76.05 44.3 -75.35 44.6 75.05 44.6 75.75 44.3 76.05 43.6 76.05 32.3 Q76.05 31.3 75.6 30.4 L74.05 27.35 Q73.6 26.45 73.6 25.45 L73.6 -24.95 Q73.6 -25.95 74.05 -26.85 L75.65 -30.3 Q76.05 -31.3 76.05 -32.2 L76.05 -43.65 75.75 -44.35 75.05 -44.65 43.95 -44.65 M36.1 -42.4 Q36.8 -42.4 37.5 -42.8 L41.6 -45.05 Q42.7 -45.65 43.95 -45.65 L75.05 -45.65 Q75.9 -45.65 76.45 -45.05 77.05 -44.45 77.05 -43.65 L77.05 -32.2 Q77.05 -30.9 76.55 -29.9 L74.95 -26.45 Q74.6 -25.5 74.6 -24.95 L74.6 25.45 Q74.6 26.1 74.95 26.9 L76.5 29.95 Q77.05 31.15 77.05 32.3 L77.05 43.6 Q77.05 44.45 76.45 45.0 75.9 45.6 75.05 45.6 L-75.35 45.6 Q-76.2 45.6 -76.8 45.0 -77.35 44.45 -77.35 43.6 L-77.35 32.3 Q-77.35 30.95 -76.8 29.95 L-75.3 26.9 Q-74.95 26.3 -74.95 25.45 L-74.95 -24.95 Q-74.95 -25.65 -75.25 -26.45 L-76.85 -29.9 Q-77.35 -30.9 -77.35 -32.2 L-77.35 -43.65 Q-77.35 -44.5 -76.8 -45.05 -76.2 -45.65 -75.35 -45.65 L-42.95 -45.65 Q-41.65 -45.65 -40.6 -45.05 L-36.65 -42.8 Q-36.05 -42.4 -35.3 -42.4 L36.1 -42.4" fill="#2b2b2b" fill-rule="evenodd" stroke="none"/>
    <path d="M-67.8 -37.7 Q-68.6 -37.7 -69.2 -37.1 -69.8 -36.5 -69.8 -35.7 L-69.8 37.2 Q-69.8 38.05 -69.2 38.6 -68.6 39.2 -67.8 39.2 L67.35 39.2 Q68.2 39.2 68.75 38.6 69.35 38.05 69.35 37.2 L69.35 -35.7 Q69.35 -36.5 68.75 -37.1 68.2 -37.7 67.35 -37.7 L-67.8 -37.7 M-69.9 -37.85 Q-69.05 -38.7 -67.8 -38.7 L67.35 -38.7 Q68.6 -38.7 69.45 -37.85 70.35 -36.95 70.35 -35.7 L70.35 37.2 Q70.35 38.45 69.45 39.3 68.6 40.2 67.35 40.2 L-67.8 40.2 Q-69.05 40.2 -69.9 39.3 -70.8 38.45 -70.8 37.2 L-70.8 -35.7 Q-70.8 -36.95 -69.9 -37.85" fill="#333333" fill-rule="evenodd" stroke="none"/>
    <path d="M-67.8 -37.7 L67.35 -37.7 Q68.2 -37.7 68.75 -37.1 69.35 -36.5 69.35 -35.7 L69.35 37.2 Q69.35 38.05 68.75 38.6 68.2 39.2 67.35 39.2 L-67.8 39.2 Q-68.6 39.2 -69.2 38.6 -69.8 38.05 -69.8 37.2 L-69.8 -35.7 Q-69.8 -36.5 -69.2 -37.1 -68.6 -37.7 -67.8 -37.7" fill="url(#gradient1)" fill-rule="evenodd" stroke="none"/>
    <path d="M-64.35 -35.25 L64.15 -35.25 Q65.4 -35.25 66.25 -34.35 67.15 -33.5 67.15 -32.25 L67.15 33.75 Q67.15 35.0 66.25 35.85 65.4 36.75 64.15 36.75 L-64.35 36.75 Q-65.6 36.75 -66.45 35.85 -67.35 35.0 -67.35 33.75 L-67.35 -32.25 Q-67.35 -33.5 -66.45 -34.35 -65.6 -35.25 -64.35 -35.25" fill="#1d1e1e" fill-rule="evenodd" stroke="none"/>
  </g>
  <defs>
    <linearGradient gradientTransform="matrix(0.0, -0.0551, -0.0551, 0.0, -0.15, -0.05)" gradientUnits="userSpaceOnUse" id="gradient0" spreadMethod="pad" x1="-819.2" x2="819.2">
      <stop offset="0.0" stop-color="#575651"/>
      <stop offset="0.611764705882353" stop-color="#ada9a0"/>
      <stop offset="0.7607843137254902" stop-color="#afaba2"/>
      <stop offset="0.8431372549019608" stop-color="#b6b3aa"/>
      <stop offset="0.9058823529411765" stop-color="#c3bfb8"/>
      <stop offset="0.9607843137254902" stop-color="#d4d1cb"/>
      <stop offset="1.0" stop-color="#e5e2dd"/>
    </linearGradient>
    <linearGradient gradientTransform="matrix(0.0, -0.047, -0.047, 0.0, -0.2, 0.75)" gradientUnits="userSpaceOnUse" id="gradient1" spreadMethod="pad" x1="-819.2" x2="819.2">
      <stop offset="0.0" stop-color="#31302c"/>
      <stop offset="1.0" stop-color="#484640"/>
    </linearGradient>
  </defs>
</svg>
