<?xml version="1.0" encoding="UTF-8" standalone="no"?>
<svg xmlns:ffdec="https://www.free-decompiler.com/flash" xmlns:xlink="http://www.w3.org/1999/xlink" ffdec:objectType="shape" height="68.5px" width="131.65px" xmlns="http://www.w3.org/2000/svg">
  <g transform="matrix(1.0, 0.0, 0.0, 1.0, 0.0, 0.0)">
    <path d="M131.15 4.0 L131.15 64.5 Q131.15 65.95 130.15 66.95 129.1 68.0 127.65 68.0 L4.0 68.0 Q2.55 68.0 1.5 66.95 0.5 65.95 0.5 64.5 L0.5 4.0 Q0.5 2.55 1.5 1.5 2.55 0.5 4.0 0.5 L127.65 0.5 Q129.1 0.5 130.15 1.5 131.15 2.55 131.15 4.0" fill="url(#gradient0)" fill-rule="evenodd" stroke="none"/>
    <path d="M127.65 0.0 Q129.3 0.0 130.5 1.15 131.65 2.3 131.65 4.0 L131.65 64.5 Q131.65 66.15 130.5 67.35 129.3 68.5 127.65 68.5 L4.0 68.5 Q2.35 68.5 1.2 67.35 0.0 66.15 0.0 64.5 L0.0 4.0 Q0.0 2.3 1.2 1.15 2.35 0.0 4.0 0.0 L127.65 0.0 M130.65 4.0 Q130.65 2.75 129.75 1.9 128.9 1.0 127.65 1.0 L4.0 1.0 Q2.75 1.0 1.9 1.9 1.0 2.75 1.0 4.0 L1.0 64.5 Q1.0 65.75 1.9 66.6 2.75 67.5 4.0 67.5 L127.65 67.5 Q128.9 67.5 129.75 66.6 130.65 65.75 130.65 64.5 L130.65 4.0" fill="#0082d6" fill-rule="evenodd" stroke="none"/>
  </g>
  <defs>
    <linearGradient gradientTransform="matrix(0.0, -0.0412, -0.0412, 0.0, 65.85, 34.25)" gradientUnits="userSpaceOnUse" id="gradient0" spreadMethod="pad" x1="-819.2" x2="819.2">
      <stop offset="0.0" stop-color="#013878"/>
      <stop offset="0.6549019607843137" stop-color="#001646"/>
      <stop offset="1.0" stop-color="#000830"/>
    </linearGradient>
  </defs>
</svg>
