<?xml version="1.0" encoding="UTF-8" standalone="no"?>
<svg xmlns:ffdec="https://www.free-decompiler.com/flash" xmlns:xlink="http://www.w3.org/1999/xlink" ffdec:objectType="shape" height="271.45px" width="233.95px" xmlns="http://www.w3.org/2000/svg">
  <g transform="matrix(1.0, 0.0, 0.0, 1.0, 117.45, 122.4)">
    <path d="M115.5 -108.4 L115.5 144.3 Q115.5 145.55 114.6 146.4 113.75 147.3 112.5 147.3 L-113.45 147.3 Q-114.7 147.3 -115.55 146.4 -116.45 145.55 -116.45 144.3 L-116.45 -118.4 Q-116.45 -119.65 -115.55 -120.5 -114.7 -121.4 -113.45 -121.4 L-47.45 -121.4 -44.6 -120.9 Q-43.0 -120.35 -42.0 -119.65 L-32.9 -113.15 Q-31.9 -112.4 -30.3 -111.9 -28.7 -111.4 -27.45 -111.4 L112.5 -111.4 Q113.75 -111.4 114.6 -110.5 115.5 -109.65 115.5 -108.4" fill="url(#gradient0)" fill-rule="evenodd" stroke="none"/>
    <path d="M115.5 -108.4 L115.5 144.3 Q115.5 145.55 114.6 146.4 113.75 147.3 112.5 147.3 L-113.45 147.3 Q-114.7 147.3 -115.55 146.4 -116.45 145.55 -116.45 144.3 L-116.45 -118.4 Q-116.45 -119.65 -115.55 -120.5 -114.7 -121.4 -113.45 -121.4 L-47.45 -121.4 -44.6 -120.9 Q-43.0 -120.35 -42.0 -119.65 L-32.9 -113.15 Q-31.9 -112.4 -30.3 -111.9 -28.7 -111.4 -27.45 -111.4 L112.5 -111.4 Q113.75 -111.4 114.6 -110.5 115.5 -109.65 115.5 -108.4 Z" fill="none" stroke="#217cff" stroke-linecap="butt" stroke-linejoin="miter-clip" stroke-miterlimit="4.0" stroke-width="2.0"/>
    <path d="M-54.75 -102.25 L-54.75 -66.25 Q-54.75 -64.8 -55.8 -63.75 -56.8 -62.75 -58.25 -62.75 L-94.25 -62.75 Q-95.7 -62.75 -96.75 -63.75 -97.75 -64.8 -97.75 -66.25 L-97.75 -102.25 Q-97.75 -103.7 -96.75 -104.7 -95.7 -105.75 -94.25 -105.75 L-58.25 -105.75 Q-56.8 -105.75 -55.8 -104.7 -54.75 -103.65 -54.75 -102.25" fill="#001556" fill-rule="evenodd" stroke="none"/>
    <path d="M82.55 70.15 Q81.8 70.9 80.75 70.9 L-40.8 70.9 Q-41.8 70.9 -42.55 70.15 -43.3 69.4 -43.3 68.4 L-43.3 51.7 Q-43.3 50.65 -42.55 49.95 -41.8 49.2 -40.8 49.2 L80.75 49.2 Q81.8 49.2 82.55 49.95 83.25 50.65 83.25 51.7 L83.25 68.4 Q83.25 69.4 82.55 70.15" fill="#041a66" fill-rule="evenodd" stroke="none"/>
    <path d="M82.15 69.8 Q82.75 69.25 82.75 68.4 L82.75 51.7 Q82.75 50.9 82.15 50.3 81.6 49.7 80.75 49.7 L-40.8 49.7 Q-41.6 49.7 -42.2 50.3 -42.8 50.9 -42.8 51.7 L-42.8 68.4 Q-42.8 69.25 -42.2 69.8 -41.6 70.4 -40.8 70.4 L80.75 70.4 Q81.6 70.4 82.15 69.8 M82.85 49.6 Q83.75 50.45 83.75 51.7 L83.75 68.4 Q83.75 69.65 82.85 70.5 82.0 71.4 80.75 71.4 L-40.8 71.4 Q-42.05 71.4 -42.9 70.5 -43.8 69.65 -43.8 68.4 L-43.8 51.7 Q-43.8 50.45 -42.9 49.6 -42.05 48.7 -40.8 48.7 L80.75 48.7 Q82.0 48.7 82.85 49.6" fill="#0a71ed" fill-rule="evenodd" stroke="none"/>
    <path d="M83.65 83.85 L83.65 98.85 Q83.65 99.9 82.9 100.65 82.15 101.35 81.15 101.35 L-40.8 101.35 Q-41.8 101.35 -42.55 100.65 -43.3 99.9 -43.3 98.85 L-43.3 83.85 Q-43.3 82.85 -42.55 82.1 -41.8 81.35 -40.8 81.35 L81.15 81.35 Q82.15 81.35 82.9 82.1 83.65 82.85 83.65 83.85" fill="#041a66" fill-rule="evenodd" stroke="none"/>
    <path d="M83.15 83.85 Q83.15 83.05 82.55 82.45 82.0 81.85 81.15 81.85 L-40.8 81.85 Q-41.6 81.85 -42.2 82.45 -42.8 83.05 -42.8 83.85 L-42.8 98.85 Q-42.8 99.7 -42.2 100.25 -41.6 100.85 -40.8 100.85 L81.15 100.85 Q82.0 100.85 82.55 100.25 83.15 99.7 83.15 98.85 L83.15 83.85 M83.25 81.75 Q84.15 82.6 84.15 83.85 L84.15 98.85 Q84.15 100.1 83.25 100.95 82.4 101.85 81.15 101.85 L-40.8 101.85 Q-42.05 101.85 -42.9 100.95 -43.8 100.1 -43.8 98.85 L-43.8 83.85 Q-43.8 82.6 -42.9 81.75 -42.05 80.85 -40.8 80.85 L81.15 80.85 Q82.4 80.85 83.25 81.75" fill="#0a71ed" fill-rule="evenodd" stroke="none"/>
    <path d="M-30.4 -105.45 L113.65 -105.45 113.65 149.05 110.7 149.05 110.7 148.55 113.15 148.55 113.15 -104.95 -30.4 -104.95 -45.5 -114.9 -113.6 -114.9 -113.6 148.55 -110.35 148.55 -110.35 149.05 -114.1 149.05 -114.1 -115.4 -45.45 -115.4 -30.4 -105.45" fill="#1456d9" fill-rule="evenodd" stroke="none"/>
    <path d="M105.2 -119.75 L107.65 -115.0 -29.6 -115.0 -36.45 -119.75 105.2 -119.75" fill="url(#gradient1)" fill-rule="evenodd" stroke="none"/>
    <path d="M105.2 -119.75 L-36.45 -119.75 -29.6 -115.0 107.65 -115.0 105.2 -119.75 Z" fill="none" stroke="#0842b7" stroke-linecap="butt" stroke-linejoin="miter-clip" stroke-miterlimit="4.0" stroke-width="1.0"/>
    <path d="M97.9 -51.2 Q97.9 -52.25 97.3 -53.05 96.75 -53.85 95.85 -53.85 L-95.8 -53.85 Q-96.6 -53.85 -97.25 -53.05 -97.85 -52.25 -97.85 -51.2 L-97.85 0.15 Q-97.85 1.25 -97.45 2.55 L-96.45 4.65 -90.6 12.55 Q-90.0 13.35 -89.0 13.95 -88.0 14.45 -87.1 14.45 L14.2 14.45 Q15.05 14.45 16.1 14.9 L17.85 16.1 18.55 16.75 20.3 17.95 22.2 18.4 95.85 18.4 Q96.75 18.4 97.3 17.6 97.9 16.9 97.9 15.75 L97.9 -51.2 M95.85 -56.45 Q97.55 -56.45 98.75 -54.9 99.95 -53.4 99.95 -51.2 L99.95 15.75 Q99.95 17.95 98.75 19.5 97.55 21.05 95.85 21.05 L22.2 21.05 Q21.0 21.05 19.6 20.45 18.25 19.8 17.25 18.85 L16.6 18.15 Q15.5 17.1 14.2 17.1 L-87.1 17.1 Q-88.4 17.1 -89.75 16.3 -91.2 15.5 -92.05 14.3 L-97.9 6.45 -99.35 3.5 Q-99.9 1.7 -99.9 0.15 L-99.9 -51.2 Q-99.9 -53.4 -98.65 -54.9 -97.5 -56.45 -95.8 -56.45 L95.85 -56.45" fill="#075bd6" fill-rule="evenodd" stroke="none"/>
    <path d="M97.9 -51.2 L97.9 15.75 Q97.9 16.9 97.3 17.6 96.75 18.4 95.85 18.4 L22.2 18.4 20.3 17.95 18.55 16.75 17.85 16.1 16.1 14.9 Q15.05 14.45 14.2 14.45 L-87.1 14.45 Q-88.0 14.45 -89.0 13.95 -90.0 13.35 -90.6 12.55 L-96.45 4.65 -97.45 2.55 Q-97.85 1.25 -97.85 0.15 L-97.85 -51.2 Q-97.85 -52.25 -97.25 -53.05 -96.6 -53.85 -95.8 -53.85 L95.85 -53.85 Q96.75 -53.85 97.3 -53.05 97.9 -52.25 97.9 -51.2" fill="#001556" fill-rule="evenodd" stroke="none"/>
    <path d="M-91.45 23.55 L-100.05 13.25 -100.05 6.45 -90.5 18.8 13.8 18.8 18.9 23.55 -91.45 23.55" fill="#073a93" fill-rule="evenodd" stroke="none"/>
    <path d="M-90.75 -63.15 L-90.75 -60.05 -94.95 -60.05 Q-97.2 -60.05 -98.75 -61.6 -100.35 -63.2 -100.35 -65.45 L-100.35 -69.7 -97.25 -69.7 -97.25 -65.45 Q-97.25 -64.45 -96.6 -63.8 -95.9 -63.15 -94.95 -63.15 L-90.75 -63.15" fill="#08a7ff" fill-rule="evenodd" stroke="none"/>
    <path d="M-52.15 -65.45 Q-52.15 -63.2 -53.75 -61.6 -55.35 -60.05 -57.55 -60.05 L-61.75 -60.05 -61.75 -63.15 -57.55 -63.15 Q-56.6 -63.15 -55.95 -63.8 -55.25 -64.5 -55.25 -65.45 L-55.25 -69.7 -52.15 -69.7 -52.15 -65.45" fill="#08a7ff" fill-rule="evenodd" stroke="none"/>
    <path d="M-90.75 -105.35 L-94.95 -105.35 Q-95.9 -105.35 -96.6 -104.65 -97.25 -104.0 -97.25 -103.0 L-97.25 -98.75 -100.35 -98.75 -100.35 -103.0 Q-100.35 -105.25 -98.75 -106.8 -97.2 -108.4 -94.95 -108.4 L-90.75 -108.4 -90.75 -105.35" fill="#08a7ff" fill-rule="evenodd" stroke="none"/>
    <path d="M-61.75 -105.35 L-61.75 -108.4 -57.55 -108.4 Q-55.35 -108.4 -53.75 -106.8 -52.15 -105.25 -52.15 -103.0 L-52.15 -98.75 -55.25 -98.75 -55.25 -103.0 Q-55.25 -103.95 -55.95 -104.65 -56.6 -105.35 -57.55 -105.35 L-61.75 -105.35" fill="#08a7ff" fill-rule="evenodd" stroke="none"/>
    <path d="M-58.25 -106.25 Q-56.6 -106.25 -55.4 -105.05 -54.25 -103.9 -54.25 -102.25 L-54.25 -66.25 Q-54.25 -64.55 -55.4 -63.4 -56.6 -62.25 -58.25 -62.25 L-94.25 -62.25 Q-95.9 -62.25 -97.05 -63.4 -98.25 -64.55 -98.25 -66.25 L-98.25 -102.25 Q-98.25 -103.9 -97.05 -105.05 -95.9 -106.25 -94.25 -106.25 L-58.25 -106.25 M-55.25 -102.25 Q-55.25 -103.5 -56.15 -104.35 -57.0 -105.25 -58.25 -105.25 L-94.25 -105.25 Q-95.5 -105.25 -96.35 -104.35 -97.25 -103.5 -97.25 -102.25 L-97.25 -66.25 Q-97.25 -65.0 -96.35 -64.15 -95.5 -63.25 -94.25 -63.25 L-58.25 -63.25 Q-57.0 -63.25 -56.15 -64.15 -55.25 -65.0 -55.25 -66.25 L-55.25 -102.25" fill="#0b7ff4" fill-rule="evenodd" stroke="none"/>
  </g>
  <defs>
    <linearGradient gradientTransform="matrix(0.0, -0.164, -0.164, 0.0, -0.45, 12.95)" gradientUnits="userSpaceOnUse" id="gradient0" spreadMethod="pad" x1="-819.2" x2="819.2">
      <stop offset="0.0" stop-color="#000042"/>
      <stop offset="1.0" stop-color="#003093"/>
    </linearGradient>
    <linearGradient gradientTransform="matrix(0.0879, 0.0, 0.0, -0.0879, 35.6, -117.4)" gradientUnits="userSpaceOnUse" id="gradient1" spreadMethod="pad" x1="-819.2" x2="819.2">
      <stop offset="0.0" stop-color="#1cadff"/>
      <stop offset="1.0" stop-color="#0233b5"/>
    </linearGradient>
  </defs>
</svg>
