<?xml version="1.0" encoding="UTF-8" standalone="no"?>
<svg xmlns:ffdec="https://www.free-decompiler.com/flash" xmlns:xlink="http://www.w3.org/1999/xlink" ffdec:objectType="shape" height="17.5px" width="30.85px" xmlns="http://www.w3.org/2000/svg">
  <g transform="matrix(1.0, 0.0, 0.0, 1.0, 3.05, -0.4)">
    <path d="M24.0 17.4 L0.05 17.4 -2.45 14.95 6.8 0.9 17.35 0.9 27.15 14.95 24.0 17.4" fill="url(#gradient0)" fill-rule="evenodd" stroke="none"/>
    <path d="M24.0 17.4 L0.05 17.4 -2.45 14.95 6.8 0.9 17.35 0.9 27.15 14.95 24.0 17.4 Z" fill="none" stroke="#736357" stroke-linecap="butt" stroke-linejoin="miter-clip" stroke-miterlimit="4.0" stroke-width="1.0"/>
    <path d="M20.45 15.45 L3.4 15.45 1.2 13.25 8.1 2.9 15.85 2.9 23.1 12.8 20.45 15.45" fill="#000102" fill-rule="evenodd" stroke="none"/>
    <path d="M12.4 7.5 L13.85 4.85 16.75 4.85 14.05 9.0 17.0 13.4 14.05 13.4 12.35 10.65 10.65 13.4 7.75 13.4 10.65 8.95 7.95 4.85 10.9 4.85 12.4 7.5" fill="#fea015" fill-rule="evenodd" stroke="none"/>
  </g>
  <defs>
    <linearGradient gradientTransform="matrix(0.0, -0.0101, 0.0101, 0.0, 12.35, 9.15)" gradientUnits="userSpaceOnUse" id="gradient0" spreadMethod="pad" x1="-819.2" x2="819.2">
      <stop offset="0.0" stop-color="#242424"/>
      <stop offset="1.0" stop-color="#505050"/>
    </linearGradient>
  </defs>
</svg>
