<?xml version="1.0" encoding="UTF-8" standalone="no"?>
<svg xmlns:ffdec="https://www.free-decompiler.com/flash" xmlns:xlink="http://www.w3.org/1999/xlink" ffdec:objectType="shape" height="56.6px" width="56.85px" xmlns="http://www.w3.org/2000/svg">
  <g transform="matrix(1.0, 0.0, 0.0, 1.0, -0.75, -0.85)">
    <path d="M7.8 18.55 L7.8 39.75 2.15 39.75 2.15 18.55 7.8 18.55 M50.65 39.75 L50.65 18.55 56.4 18.55 56.4 39.75 50.65 39.75" fill="#202347" fill-rule="evenodd" stroke="none"/>
    <path d="M54.35 18.75 L57.05 16.75 57.05 41.55 54.35 39.55 54.35 18.75" fill="url(#gradient0)" fill-rule="evenodd" stroke="none"/>
    <path d="M4.05 18.75 L4.05 39.55 1.35 41.55 1.35 16.75 4.05 18.75" fill="url(#gradient1)" fill-rule="evenodd" stroke="none"/>
    <path d="M18.6 51.05 L39.75 51.05 39.75 56.2 18.6 56.2 18.6 51.05 M39.75 8.25 L18.6 8.25 18.6 2.0 39.75 2.0 39.75 8.25" fill="#202347" fill-rule="evenodd" stroke="none"/>
    <path d="M18.8 4.05 L16.8 1.3 41.6 1.3 39.6 4.05 18.8 4.05" fill="url(#gradient2)" fill-rule="evenodd" stroke="none"/>
    <path d="M41.6 57.05 L16.8 57.05 18.8 54.3 39.6 54.3 41.6 57.05" fill="url(#gradient3)" fill-rule="evenodd" stroke="none"/>
    <path d="M7.3 7.75 L51.15 7.75 51.15 51.55 7.3 51.55 7.3 7.75 M50.15 8.75 L8.3 8.75 8.3 50.55 50.15 50.55 50.15 8.75" fill="#81878c" fill-rule="evenodd" stroke="none"/>
    <path d="M8.95 50.1 Q9.65 50.75 10.6 50.75 L14.8 50.75 14.8 53.85 10.6 53.85 Q8.35 53.85 6.8 52.3 5.2 50.7 5.2 48.45 L5.2 44.2 8.3 44.2 8.3 48.45 Q8.3 49.45 8.95 50.1" fill="#f0bd00" fill-rule="evenodd" stroke="none"/>
    <path d="M53.4 48.45 Q53.4 50.7 51.85 52.3 50.25 53.85 48.0 53.85 L43.8 53.85 43.8 50.75 48.0 50.75 Q48.95 50.75 49.6 50.1 50.3 49.4 50.3 48.45 L50.3 44.2 53.4 44.2 53.4 48.45" fill="#f0bd00" fill-rule="evenodd" stroke="none"/>
    <path d="M14.8 8.6 L10.6 8.6 Q9.65 8.6 8.95 9.25 8.3 9.95 8.3 10.9 L8.3 15.15 5.2 15.15 5.2 10.9 Q5.2 8.65 6.8 7.1 8.35 5.5 10.6 5.5 L14.8 5.5 14.8 8.6" fill="#f0bd00" fill-rule="evenodd" stroke="none"/>
    <path d="M43.8 8.6 L43.8 5.5 48.0 5.5 Q50.25 5.5 51.85 7.1 53.4 8.65 53.4 10.9 L53.4 15.15 50.3 15.15 50.3 10.9 Q50.3 9.95 49.6 9.25 48.95 8.6 48.0 8.6 L43.8 8.6" fill="#f0bd00" fill-rule="evenodd" stroke="none"/>
    <path d="M31.75 2.7 L25.8 2.7 24.9 1.35 32.7 1.35 31.75 2.7" fill="#a3ffff" fill-rule="evenodd" stroke="none"/>
    <path d="M32.0 3.2 L25.55 3.2 23.95 0.85 33.7 0.85 32.0 3.2 M32.7 1.35 L24.9 1.35 25.8 2.7 31.75 2.7 32.7 1.35" fill="#303030" fill-rule="evenodd" stroke="none"/>
    <path d="M31.75 55.6 L32.7 56.95 24.9 56.95 25.8 55.6 31.75 55.6" fill="#a3ffff" fill-rule="evenodd" stroke="none"/>
    <path d="M23.95 57.45 L25.4 55.3 25.55 55.1 32.0 55.1 33.7 57.45 23.95 57.45 M25.8 55.6 L24.9 56.95 32.7 56.95 31.75 55.6 25.8 55.6" fill="#303030" fill-rule="evenodd" stroke="none"/>
    <path d="M2.6 26.2 L2.6 32.15 1.25 33.05 1.25 25.25 2.6 26.2" fill="#a3ffff" fill-rule="evenodd" stroke="none"/>
    <path d="M0.75 24.25 L3.1 25.95 3.1 32.4 0.75 34.0 0.75 24.25 M1.25 33.05 L2.6 32.15 2.6 26.2 1.25 25.25 1.25 33.05" fill="#303030" fill-rule="evenodd" stroke="none"/>
    <path d="M55.75 26.2 L57.1 25.25 57.1 33.05 55.75 32.15 55.75 26.2" fill="#a3ffff" fill-rule="evenodd" stroke="none"/>
    <path d="M55.25 25.95 L57.6 24.25 57.6 34.0 55.25 32.4 55.25 25.95 M55.75 26.2 L55.75 32.15 57.1 33.05 57.1 25.25 55.75 26.2" fill="#303030" fill-rule="evenodd" stroke="none"/>
  </g>
  <defs>
    <linearGradient gradientTransform="matrix(0.0017, 0.0, 0.0, -0.0017, 55.7, 29.15)" gradientUnits="userSpaceOnUse" id="gradient0" spreadMethod="pad" x1="-819.2" x2="819.2">
      <stop offset="0.0" stop-color="#8580a6"/>
      <stop offset="0.6039215686274509" stop-color="#545260"/>
      <stop offset="1.0" stop-color="#373737"/>
    </linearGradient>
    <linearGradient gradientTransform="matrix(0.0017, 0.0, 0.0, -0.0017, 2.7, 29.15)" gradientUnits="userSpaceOnUse" id="gradient1" spreadMethod="pad" x1="-819.2" x2="819.2">
      <stop offset="0.0" stop-color="#373737"/>
      <stop offset="0.396078431372549" stop-color="#545260"/>
      <stop offset="1.0" stop-color="#8580a6"/>
    </linearGradient>
    <linearGradient gradientTransform="matrix(0.0, -0.0017, -0.0017, 0.0, 29.2, 2.65)" gradientUnits="userSpaceOnUse" id="gradient2" spreadMethod="pad" x1="-819.2" x2="819.2">
      <stop offset="0.0" stop-color="#8580a6"/>
      <stop offset="0.6039215686274509" stop-color="#545260"/>
      <stop offset="1.0" stop-color="#373737"/>
    </linearGradient>
    <linearGradient gradientTransform="matrix(0.0, -0.0017, -0.0017, 0.0, 29.2, 55.65)" gradientUnits="userSpaceOnUse" id="gradient3" spreadMethod="pad" x1="-819.2" x2="819.2">
      <stop offset="0.0" stop-color="#373737"/>
      <stop offset="0.396078431372549" stop-color="#545260"/>
      <stop offset="1.0" stop-color="#8580a6"/>
    </linearGradient>
  </defs>
</svg>
