<?xml version="1.0" encoding="UTF-8" standalone="no"?>
<svg xmlns:ffdec="https://www.free-decompiler.com/flash" xmlns:xlink="http://www.w3.org/1999/xlink" ffdec:objectType="shape" height="103.1px" width="95.5px" xmlns="http://www.w3.org/2000/svg">
  <g transform="matrix(1.0, 0.0, 0.0, 1.0, 143.0, 62.85)">
    <path d="M-51.0 -62.35 L-139.5 -62.35 Q-140.75 -62.35 -141.6 -61.45 -142.5 -60.6 -142.5 -59.35 L-142.5 36.75 Q-142.5 38.0 -141.6 38.85 -140.75 39.75 -139.5 39.75 L-51.0 39.75 Q-49.75 39.75 -48.9 38.85 -48.0 38.0 -48.0 36.75 L-48.0 -59.35 Q-48.0 -60.6 -48.9 -61.45 -49.75 -62.35 -51.0 -62.35 Z" fill="none" stroke="#0068ff" stroke-linecap="butt" stroke-linejoin="miter-clip" stroke-miterlimit="4.0" stroke-width="1.0"/>
    <path d="M-51.05 -46.75 L-48.3 -48.75 -48.3 1.05 -51.05 -0.95 -51.05 -46.75" fill="#004fff" fill-rule="evenodd" stroke="none"/>
    <path d="M-139.5 -46.75 L-139.5 -0.95 -142.2 1.05 -142.2 -48.75 -139.5 -46.75" fill="#004fff" fill-rule="evenodd" stroke="none"/>
  </g>
</svg>
