<?xml version="1.0" encoding="UTF-8" standalone="no"?>
<svg xmlns:ffdec="https://www.free-decompiler.com/flash" xmlns:xlink="http://www.w3.org/1999/xlink" ffdec:objectType="shape" height="103.1px" width="95.45px" xmlns="http://www.w3.org/2000/svg">
  <g transform="matrix(1.0, 0.0, 0.0, 1.0, 46.3, 62.85)">
    <path d="M45.65 -62.35 L-42.8 -62.35 Q-44.05 -62.35 -44.9 -61.45 -45.8 -60.6 -45.8 -59.35 L-45.8 36.75 Q-45.8 38.0 -44.9 38.85 -44.05 39.75 -42.8 39.75 L45.65 39.75 Q46.9 39.75 47.75 38.85 48.65 38.0 48.65 36.75 L48.65 -59.35 Q48.65 -60.6 47.75 -61.45 46.9 -62.35 45.65 -62.35 Z" fill="none" stroke="#0068ff" stroke-linecap="butt" stroke-linejoin="miter-clip" stroke-miterlimit="4.0" stroke-width="1.0"/>
    <path d="M45.6 -46.75 L48.35 -48.75 48.35 1.05 45.6 -0.95 45.6 -46.75" fill="#004fff" fill-rule="evenodd" stroke="none"/>
    <path d="M-42.8 -0.95 L-45.55 1.05 -45.55 -48.75 -42.8 -46.75 -42.8 -0.95" fill="#004fff" fill-rule="evenodd" stroke="none"/>
  </g>
</svg>
