<?xml version="1.0" encoding="UTF-8" standalone="no"?>
<svg xmlns:ffdec="https://www.free-decompiler.com/flash" xmlns:xlink="http://www.w3.org/1999/xlink" ffdec:objectType="shape" height="114.75px" width="303.7px" xmlns="http://www.w3.org/2000/svg">
  <g transform="matrix(1.0, 0.0, 0.0, 1.0, 150.7, 67.1)">
    <path d="M142.15 -62.35 L53.7 -62.35 Q52.45 -62.35 51.6 -61.45 50.7 -60.6 50.7 -59.35 L50.7 36.75 Q50.7 38.0 51.6 38.85 52.45 39.75 53.7 39.75 L142.15 39.75 Q143.4 39.75 144.25 38.85 145.15 38.0 145.15 36.75 L145.15 -59.35 Q145.15 -60.6 144.25 -61.45 143.4 -62.35 142.15 -62.35 Z" fill="none" stroke="#0068ff" stroke-linecap="butt" stroke-linejoin="miter-clip" stroke-miterlimit="4.0" stroke-width="1.0"/>
    <path d="M142.1 -46.75 L144.85 -48.75 144.85 1.05 142.1 -0.95 142.1 -46.75" fill="#004fff" fill-rule="evenodd" stroke="none"/>
    <path d="M53.7 -46.75 L53.7 -0.95 50.95 1.05 50.95 -48.75 53.7 -46.75" fill="#004fff" fill-rule="evenodd" stroke="none"/>
    <path d="M-150.7 -66.85 L-144.2 -66.85 -145.0 -65.75 -149.6 -65.75 -149.6 -61.15 -150.7 -60.35 -150.7 -66.85" fill="#0057ff" fill-rule="evenodd" stroke="none"/>
    <path d="M153.0 -67.1 L153.0 -60.6 151.95 -61.4 151.95 -66.05 147.3 -66.05 146.5 -67.1 153.0 -67.1" fill="#0057ff" fill-rule="evenodd" stroke="none"/>
    <path d="M-149.6 46.3 L-145.0 46.3 -144.2 47.4 -150.7 47.4 -150.7 40.9 -149.6 41.7 -149.6 46.3" fill="#0078ff" fill-rule="evenodd" stroke="none"/>
    <path d="M151.95 46.6 L151.95 42.0 153.0 41.15 153.0 47.65 146.5 47.65 147.3 46.6 151.95 46.6" fill="#0078ff" fill-rule="evenodd" stroke="none"/>
  </g>
</svg>
