<?xml version="1.0" encoding="UTF-8" standalone="no"?>
<svg xmlns:ffdec="https://www.free-decompiler.com/flash" xmlns:xlink="http://www.w3.org/1999/xlink" ffdec:objectType="shape" height="82.0px" width="142.4px" xmlns="http://www.w3.org/2000/svg">
  <g transform="matrix(1.0, 0.0, 0.0, 1.0, -502.8, -75.25)">
    <path d="M644.4 94.45 Q644.4 95.25 643.6 95.85 642.85 96.45 641.85 96.45 L554.9 96.45 Q553.9 96.45 553.15 95.85 552.4 95.3 552.4 94.45 L552.4 77.75 Q552.4 76.95 553.15 76.35 553.9 75.75 554.9 75.75 L641.85 75.75 Q642.85 75.75 643.6 76.35 644.4 76.95 644.4 77.75 L644.4 94.45" fill="#001556" fill-rule="evenodd" stroke="none"/>
    <path d="M644.4 94.45 Q644.4 95.25 643.6 95.85 642.85 96.45 641.85 96.45 L554.9 96.45 Q553.9 96.45 553.15 95.85 552.4 95.3 552.4 94.45 L552.4 77.75 Q552.4 76.95 553.15 76.35 553.9 75.75 554.9 75.75 L641.85 75.75 Q642.85 75.75 643.6 76.35 644.4 76.95 644.4 77.75 L644.4 94.45 Z" fill="none" stroke="#075bd6" stroke-linecap="butt" stroke-linejoin="miter-clip" stroke-miterlimit="4.0" stroke-width="1.0"/>
    <path d="M628.5 154.75 Q628.5 155.55 627.45 156.15 626.45 156.75 625.05 156.75 L506.95 156.75 Q505.55 156.75 504.55 156.15 503.5 155.6 503.5 154.75 L503.5 138.05 Q503.5 137.25 504.55 136.65 505.55 136.05 506.95 136.05 L625.05 136.05 Q626.45 136.05 627.45 136.65 628.5 137.25 628.5 138.05 L628.5 154.75" fill="#001556" fill-rule="evenodd" stroke="none"/>
    <path d="M628.5 154.75 Q628.5 155.55 627.45 156.15 626.45 156.75 625.05 156.75 L506.95 156.75 Q505.55 156.75 504.55 156.15 503.5 155.6 503.5 154.75 L503.5 138.05 Q503.5 137.25 504.55 136.65 505.55 136.05 506.95 136.05 L625.05 136.05 Q626.45 136.05 627.45 136.65 628.5 137.25 628.5 138.05 L628.5 154.75 Z" fill="none" stroke="#075bd6" stroke-linecap="butt" stroke-linejoin="miter-clip" stroke-miterlimit="4.0" stroke-width="1.0"/>
  </g>
</svg>
