<?xml version="1.0" encoding="UTF-8" standalone="no"?>
<svg xmlns:ffdec="https://www.free-decompiler.com/flash" xmlns:xlink="http://www.w3.org/1999/xlink" ffdec:objectType="shape" height="36.15px" width="186.35px" xmlns="http://www.w3.org/2000/svg">
  <g transform="matrix(1.0, 0.0, 0.0, 1.0, 0.05, 0.0)">
    <path d="M184.1 2.2 Q185.3 3.35 185.3 5.0 L185.3 31.15 Q185.3 32.8 184.1 34.0 182.95 35.15 181.3 35.15 L4.95 35.15 Q3.3 35.15 2.1 33.95 0.95 32.8 0.95 31.15 L1.0 12.5 Q1.05 11.05 1.9 9.45 2.75 7.85 4.0 7.05 L10.8 2.75 Q11.95 2.0 13.75 1.5 L16.9 1.0 181.3 1.0 Q182.95 1.0 184.1 2.2" fill="#081f66" fill-rule="evenodd" stroke="none"/>
    <path d="M183.4 2.9 Q182.55 2.0 181.3 2.0 L16.9 2.0 14.05 2.45 Q12.4 2.95 11.35 3.6 L4.55 7.9 Q3.5 8.55 2.75 9.95 2.05 11.3 2.0 12.55 L1.95 31.15 Q1.95 32.4 2.85 33.25 3.7 34.15 4.95 34.15 L181.3 34.15 Q182.55 34.15 183.4 33.25 184.3 32.4 184.3 31.15 L184.3 5.0 Q184.3 3.75 183.4 2.9 M186.3 5.0 L186.3 31.15 Q186.3 33.2 184.85 34.7 183.35 36.15 181.3 36.15 L4.95 36.15 Q2.9 36.15 1.4 34.65 -0.05 33.2 -0.05 31.15 L0.0 12.5 Q0.05 10.75 1.0 9.0 2.0 7.2 3.5 6.25 L10.3 1.9 Q11.55 1.1 13.45 0.55 L16.9 0.0 181.3 0.0 Q183.35 0.0 184.85 1.45 186.3 2.95 186.3 5.0" fill="#066bce" fill-rule="evenodd" stroke="none"/>
    <path d="M40.75 34.4 L156.3 34.4 153.2 31.25 43.9 31.25 40.75 34.4 Z" fill="none" stroke="#0385e0" stroke-linecap="butt" stroke-linejoin="miter-clip" stroke-miterlimit="4.0" stroke-width="1.0"/>
    <path d="M153.2 31.25 L156.3 34.4 40.75 34.4 43.9 31.25 153.2 31.25" fill="#0547ae" fill-rule="evenodd" stroke="none"/>
    <path d="M40.75 2.0 L156.3 2.0 153.2 5.1 43.9 5.1 40.75 2.0 Z" fill="none" stroke="#0385e0" stroke-linecap="butt" stroke-linejoin="miter-clip" stroke-miterlimit="4.0" stroke-width="1.0"/>
    <path d="M153.2 5.1 L43.9 5.1 40.75 2.0 156.3 2.0 153.2 5.1" fill="#0547ae" fill-rule="evenodd" stroke="none"/>
  </g>
</svg>
