<?xml version="1.0" encoding="UTF-8" standalone="no"?>
<svg xmlns:ffdec="https://www.free-decompiler.com/flash" xmlns:xlink="http://www.w3.org/1999/xlink" ffdec:objectType="shape" height="27.05px" width="96.25px" xmlns="http://www.w3.org/2000/svg">
  <g transform="matrix(1.0, 0.0, 0.0, 1.0, -13.75, 0.75)">
    <path d="M109.25 20.55 Q109.25 22.6 108.15 24.1 107.0 25.55 105.45 25.55 L18.35 25.55 Q16.75 25.55 15.6 24.1 14.5 22.6 14.5 20.55 L14.5 5.0 Q14.5 2.95 15.6 1.45 16.75 0.0 18.35 0.0 L105.45 0.0 Q107.0 0.0 108.15 1.45 109.25 2.95 109.25 5.0 L109.25 20.55" fill="url(#gradient0)" fill-rule="evenodd" stroke="none"/>
    <path d="M18.35 0.0 L105.45 0.0 Q107.0 0.0 108.15 1.45 109.25 2.95 109.25 5.0 L109.25 20.55 Q109.25 22.6 108.15 24.1 107.0 25.55 105.45 25.55 L18.35 25.55 Q16.75 25.55 15.6 24.1 14.5 22.6 14.5 20.55 L14.5 5.0 Q14.5 2.95 15.6 1.45 16.75 0.0 18.35 0.0 Z" fill="none" stroke="#0376ff" stroke-linecap="butt" stroke-linejoin="miter-clip" stroke-miterlimit="4.0" stroke-width="1.5"/>
    <path d="M16.1 22.35 L14.55 23.1 14.55 2.3 16.1 3.05 16.1 22.35" fill="#399cff" fill-rule="evenodd" stroke="none"/>
    <path d="M16.1 22.35 L16.1 3.05 14.55 2.3 14.55 23.1 16.1 22.35 Z" fill="none" stroke="#0677ff" stroke-linecap="butt" stroke-linejoin="miter-clip" stroke-miterlimit="4.0" stroke-width="1.0"/>
    <path d="M107.65 22.5 L107.65 3.2 109.15 2.45 109.15 23.25 107.65 22.5" fill="#399cff" fill-rule="evenodd" stroke="none"/>
    <path d="M107.65 22.5 L107.65 3.2 109.15 2.45 109.15 23.25 107.65 22.5 Z" fill="none" stroke="#0677ff" stroke-linecap="butt" stroke-linejoin="miter-clip" stroke-miterlimit="4.0" stroke-width="1.0"/>
  </g>
  <defs>
    <linearGradient gradientTransform="matrix(0.0, -0.0168, -0.0129, 0.0, 63.4, 14.75)" gradientUnits="userSpaceOnUse" id="gradient0" spreadMethod="pad" x1="-819.2" x2="819.2">
      <stop offset="0.0" stop-color="#004bc2"/>
      <stop offset="0.7647058823529411" stop-color="#003498"/>
      <stop offset="1.0" stop-color="#0057d9"/>
    </linearGradient>
  </defs>
</svg>
