<?xml version="1.0" encoding="UTF-8" standalone="no"?>
<svg xmlns:ffdec="https://www.free-decompiler.com/flash" xmlns:xlink="http://www.w3.org/1999/xlink" ffdec:objectType="shape" height="27.05px" width="96.25px" xmlns="http://www.w3.org/2000/svg">
  <g transform="matrix(1.0, 0.0, 0.0, 1.0, -13.75, 0.35)">
    <path d="M109.25 20.95 Q109.25 23.0 108.15 24.5 107.0 25.95 105.45 25.95 L18.35 25.95 Q16.75 25.95 15.6 24.5 14.5 23.0 14.5 20.95 L14.5 5.4 Q14.5 3.35 15.6 1.85 16.75 0.4 18.35 0.4 L105.45 0.4 Q107.0 0.4 108.15 1.85 109.25 3.35 109.25 5.4 L109.25 20.95" fill="url(#gradient0)" fill-rule="evenodd" stroke="none"/>
    <path d="M14.5 5.4 Q14.5 3.35 15.6 1.85 16.75 0.4 18.35 0.4 L105.45 0.4 Q107.0 0.4 108.15 1.85 109.25 3.35 109.25 5.4 L109.25 20.95 Q109.25 23.0 108.15 24.5 107.0 25.95 105.45 25.95 L18.35 25.95 Q16.75 25.95 15.6 24.5 14.5 23.0 14.5 20.95 L14.5 5.4 Z" fill="none" stroke="#f19e24" stroke-linecap="butt" stroke-linejoin="miter-clip" stroke-miterlimit="4.0" stroke-width="1.5"/>
    <path d="M16.1 22.75 L14.55 23.5 14.55 2.7 16.1 3.45 16.1 22.75" fill="#d18003" fill-rule="evenodd" stroke="none"/>
    <path d="M16.1 22.75 L16.1 3.45 14.55 2.7 14.55 23.5 16.1 22.75 Z" fill="none" stroke="#f19e24" stroke-linecap="butt" stroke-linejoin="miter-clip" stroke-miterlimit="4.0" stroke-width="1.0"/>
    <path d="M107.65 22.9 L107.65 3.6 109.15 2.85 109.15 23.65 107.65 22.9" fill="#d18003" fill-rule="evenodd" stroke="none"/>
    <path d="M107.65 22.9 L107.65 3.6 109.15 2.85 109.15 23.65 107.65 22.9 Z" fill="none" stroke="#f19e24" stroke-linecap="butt" stroke-linejoin="miter-clip" stroke-miterlimit="4.0" stroke-width="1.0"/>
  </g>
  <defs>
    <linearGradient gradientTransform="matrix(0.0, -0.0171, -0.0085, 0.0, 58.35, 15.65)" gradientUnits="userSpaceOnUse" id="gradient0" spreadMethod="pad" x1="-819.2" x2="819.2">
      <stop offset="0.0" stop-color="#eb8242"/>
      <stop offset="0.00392156862745098" stop-color="#e87f40"/>
      <stop offset="0.043137254901960784" stop-color="#cb6129"/>
      <stop offset="0.08627450980392157" stop-color="#b34917"/>
      <stop offset="0.13333333333333333" stop-color="#a3380a"/>
      <stop offset="0.1803921568627451" stop-color="#992e02"/>
      <stop offset="0.24313725490196078" stop-color="#962b00"/>
      <stop offset="0.4392156862745098" stop-color="#982e00"/>
      <stop offset="0.592156862745098" stop-color="#9f3800"/>
      <stop offset="0.7333333333333333" stop-color="#ab4901"/>
      <stop offset="0.8666666666666667" stop-color="#bb6002"/>
      <stop offset="0.996078431372549" stop-color="#d07f03"/>
      <stop offset="1.0" stop-color="#d18003"/>
    </linearGradient>
  </defs>
</svg>
