<?xml version="1.0" encoding="UTF-8" standalone="no"?>
<svg xmlns:ffdec="https://www.free-decompiler.com/flash" xmlns:xlink="http://www.w3.org/1999/xlink" ffdec:objectType="shape" height="33.45px" width="92.25px" xmlns="http://www.w3.org/2000/svg">
  <g transform="matrix(1.0, 0.0, 0.0, 1.0, 1.0, 0.0)">
    <path d="M78.5 28.1 Q78.2 29.45 77.25 30.2 L75.55 31.55 Q74.6 32.35 73.0 32.9 L70.2 33.45 19.9 33.45 17.15 32.8 Q15.65 32.15 14.8 31.3 L13.95 30.45 Q13.1 29.6 12.85 28.2 12.65 26.8 13.2 25.7 L25.15 2.65 Q25.7 1.55 27.0 0.8 28.25 0.0 29.5 0.0 L60.85 0.0 Q62.1 0.0 63.4 0.8 64.7 1.55 65.3 2.6 L78.15 25.7 Q78.75 26.8 78.5 28.1" fill="url(#gradient0)" fill-rule="evenodd" stroke="none"/>
    <path d="M70.75 28.15 L69.85 29.0 Q69.0 29.85 67.5 30.5 L64.75 31.1 63.05 31.1 58.65 30.45 Q57.25 29.8 54.3 29.8 L37.8 29.8 35.25 30.0 33.3 30.45 28.8 31.1 25.65 31.1 Q24.4 31.1 23.0 30.4 21.55 29.75 20.75 28.75 L20.45 28.35 Q19.65 27.4 19.55 25.95 19.4 24.5 19.95 23.35 L28.95 6.0 Q29.5 4.9 30.8 4.15 32.1 3.35 33.35 3.35 L34.8 3.35 Q37.75 3.35 38.65 3.9 39.5 4.5 42.55 4.5 L48.3 4.5 Q51.35 4.5 52.3 3.9 53.3 3.35 56.3 3.35 L57.25 3.35 Q58.5 3.35 59.8 4.1 61.1 4.85 61.7 5.95 L71.4 23.4 Q72.0 24.5 71.8 25.9 71.6 27.3 70.75 28.15" fill="#2b2b2a" fill-rule="evenodd" stroke="none"/>
    <path d="M66.95 21.9 Q67.75 23.3 67.5 24.9 67.2 26.5 66.05 27.45 65.05 28.25 63.4 28.75 L60.3 29.3 29.55 29.3 26.55 28.75 Q25.0 28.15 24.2 27.35 23.25 26.45 23.15 24.85 23.0 23.25 23.7 21.85 L30.55 8.7 Q31.25 7.35 32.8 6.4 34.3 5.45 35.8 5.45 L54.2 5.45 Q55.7 5.45 57.25 6.35 58.8 7.3 59.55 8.6 L66.95 21.9 M63.05 27.8 Q64.55 27.35 65.4 26.65 66.25 26.0 66.45 24.7 66.65 23.45 66.05 22.35 L58.65 9.1 Q58.05 8.0 56.75 7.25 55.45 6.45 54.2 6.45 L35.8 6.45 Q34.55 6.45 33.3 7.25 32.0 8.05 31.45 9.15 L24.6 22.35 Q24.05 23.45 24.1 24.7 24.2 26.0 24.9 26.65 25.6 27.35 26.95 27.8 L29.55 28.3 60.3 28.3 63.05 27.8" fill="#894502" fill-rule="evenodd" stroke="none"/>
    <path d="M63.05 27.8 L60.3 28.3 29.55 28.3 26.95 27.8 Q25.6 27.35 24.9 26.65 24.2 26.0 24.1 24.7 24.05 23.45 24.6 22.35 L31.45 9.15 Q32.0 8.05 33.3 7.25 34.55 6.45 35.8 6.45 L54.2 6.45 Q55.45 6.45 56.75 7.25 58.05 8.0 58.65 9.1 L66.05 22.35 Q66.65 23.45 66.45 24.7 66.25 26.0 65.4 26.65 64.55 27.35 63.05 27.8" fill="url(#gradient1)" fill-rule="evenodd" stroke="none"/>
    <path d="M1.5 0.65 L4.75 0.4 Q7.15 1.8 14.2 4.1 16.15 4.7 15.0 6.8 13.9 8.85 11.35 8.05 2.6 5.1 -0.95 2.1 -1.25 1.3 1.5 0.65" fill="url(#gradient2)" fill-rule="evenodd" stroke="none"/>
    <path d="M88.75 0.65 L85.5 0.4 Q83.1 1.8 76.05 4.1 74.1 4.7 75.25 6.8 76.35 8.85 78.9 8.05 87.65 5.1 91.2 2.1 91.5 1.3 88.75 0.65" fill="url(#gradient3)" fill-rule="evenodd" stroke="none"/>
    <path d="M65.45 3.4 L67.8 2.1 72.5 3.4 77.1 11.65 75.8 16.35 73.45 17.7 65.45 3.4" fill="url(#gradient4)" fill-rule="evenodd" stroke="none"/>
    <path d="M75.65 3.55 L78.6 8.9 76.25 10.2 73.25 4.85 75.65 3.55" fill="#333333" fill-rule="evenodd" stroke="none"/>
    <path d="M22.8 2.1 L25.15 3.4 17.15 17.7 14.8 16.35 13.5 11.65 18.1 3.4 22.8 2.1" fill="url(#gradient5)" fill-rule="evenodd" stroke="none"/>
    <path d="M14.95 3.55 L17.35 4.85 14.35 10.2 12.0 8.9 14.95 3.55" fill="#333333" fill-rule="evenodd" stroke="none"/>
    <path d="M46.0 16.2 L53.8 13.6 52.85 22.65 45.85 25.2 46.0 16.2" fill="#f7b000" fill-rule="evenodd" stroke="none"/>
    <path d="M37.95 22.35 L36.9 13.3 45.0 16.2 44.85 25.2 37.95 22.35" fill="#ffda22" fill-rule="evenodd" stroke="none"/>
    <path d="M37.95 12.6 L45.6 10.2 52.85 12.9 45.55 15.3 37.95 12.6" fill="#fff35c" fill-rule="evenodd" stroke="none"/>
  </g>
  <defs>
    <linearGradient gradientTransform="matrix(0.0, -0.0204, -0.0204, 0.0, 45.7, 16.7)" gradientUnits="userSpaceOnUse" id="gradient0" spreadMethod="pad" x1="-819.2" x2="819.2">
      <stop offset="0.0" stop-color="#373737"/>
      <stop offset="0.6549019607843137" stop-color="#a4a4a4"/>
      <stop offset="0.803921568627451" stop-color="#a4a4a4"/>
      <stop offset="1.0" stop-color="#6b6b6b"/>
    </linearGradient>
    <linearGradient gradientTransform="matrix(0.0, -0.0133, -0.0133, 0.0, 45.3, 17.4)" gradientUnits="userSpaceOnUse" id="gradient1" spreadMethod="pad" x1="-819.2" x2="819.2">
      <stop offset="0.0" stop-color="#aa6609"/>
      <stop offset="1.0" stop-color="#aa6e09"/>
    </linearGradient>
    <linearGradient gradientTransform="matrix(0.0016, -0.004, 0.0094, 0.0039, -27.0, -10.4)" gradientUnits="userSpaceOnUse" id="gradient2" spreadMethod="pad" x1="-819.2" x2="819.2">
      <stop offset="0.0" stop-color="#505050"/>
      <stop offset="0.09803921568627451" stop-color="#373737"/>
      <stop offset="0.5254901960784314" stop-color="#6e6861"/>
      <stop offset="0.8862745098039215" stop-color="#3d3d3d"/>
      <stop offset="1.0" stop-color="#505050"/>
    </linearGradient>
    <linearGradient gradientTransform="matrix(-0.0016, -0.004, -0.0094, 0.0039, 117.25, -10.4)" gradientUnits="userSpaceOnUse" id="gradient3" spreadMethod="pad" x1="-819.2" x2="819.2">
      <stop offset="0.0" stop-color="#505050"/>
      <stop offset="0.09803921568627451" stop-color="#373737"/>
      <stop offset="0.5254901960784314" stop-color="#6e6861"/>
      <stop offset="0.8862745098039215" stop-color="#3d3d3d"/>
      <stop offset="1.0" stop-color="#505050"/>
    </linearGradient>
    <linearGradient gradientTransform="matrix(0.0052, 0.0086, 0.0086, -0.0052, 72.05, 9.0)" gradientUnits="userSpaceOnUse" id="gradient4" spreadMethod="pad" x1="-819.2" x2="819.2">
      <stop offset="0.0" stop-color="#505050"/>
      <stop offset="0.09803921568627451" stop-color="#373737"/>
      <stop offset="0.5254901960784314" stop-color="#6e6963"/>
      <stop offset="0.8862745098039215" stop-color="#3d3d3d"/>
      <stop offset="1.0" stop-color="#505050"/>
    </linearGradient>
    <linearGradient gradientTransform="matrix(0.0056, -0.0084, -0.0084, -0.0056, 18.65, 9.0)" gradientUnits="userSpaceOnUse" id="gradient5" spreadMethod="pad" x1="-819.2" x2="819.2">
      <stop offset="0.0" stop-color="#505050"/>
      <stop offset="0.09803921568627451" stop-color="#373737"/>
      <stop offset="0.5254901960784314" stop-color="#6e6963"/>
      <stop offset="0.8862745098039215" stop-color="#3d3d3d"/>
      <stop offset="1.0" stop-color="#505050"/>
    </linearGradient>
  </defs>
</svg>
