<?xml version="1.0" encoding="UTF-8" standalone="no"?>
<svg xmlns:ffdec="https://www.free-decompiler.com/flash" xmlns:xlink="http://www.w3.org/1999/xlink" ffdec:objectType="shape" height="50.1px" width="156.25px" xmlns="http://www.w3.org/2000/svg">
  <g transform="matrix(1.0, 0.0, 0.0, 1.0, 0.5, 0.5)">
    <path d="M155.25 0.0 L155.25 49.1 0.0 49.1 0.0 0.0 155.25 0.0" fill="#202121" fill-rule="evenodd" stroke="none"/>
    <path d="M155.25 0.0 L0.0 0.0 0.0 49.1 155.25 49.1 155.25 0.0 Z" fill="none" stroke="#111010" stroke-linecap="butt" stroke-linejoin="miter-clip" stroke-miterlimit="4.0" stroke-width="1.0"/>
    <path d="M152.2 15.6 L154.9 13.6 154.9 34.4 152.2 32.4 152.2 15.6" fill="#121412" fill-rule="evenodd" stroke="none"/>
    <path d="M3.2 45.7 L3.2 2.9 46.05 2.9 46.05 45.7 3.2 45.7" fill="#0f0f0f" fill-rule="evenodd" stroke="none"/>
    <path d="M29.5 28.65 Q31.2 26.95 31.45 24.55 31.7 22.2 30.45 20.2 L21.0 29.6 Q23.0 30.9 25.4 30.65 27.8 30.35 29.5 28.65 M24.7 13.75 Q28.85 13.75 31.8 16.7 34.15 19.05 34.65 22.45 L37.25 22.45 37.25 25.2 34.65 25.2 Q34.15 28.6 31.8 30.95 28.85 33.9 24.7 33.9 20.5 33.9 17.55 30.95 15.1 28.6 14.7 25.2 L12.05 25.2 12.05 22.45 14.7 22.45 Q15.2 19.0 17.55 16.7 20.5 13.75 24.7 13.75 M28.3 18.05 Q26.35 16.8 23.95 17.05 21.55 17.3 19.85 19.0 18.15 20.7 17.9 23.1 17.6 25.5 18.9 27.5 L28.3 18.05" fill="#191919" fill-rule="evenodd" stroke="none"/>
    <path d="M142.95 13.75 Q144.2 13.75 145.05 14.65 145.95 15.5 145.95 16.75 L145.95 30.9 Q145.95 32.15 145.05 33.0 144.2 33.9 142.95 33.9 L56.05 33.9 Q54.8 33.9 53.95 33.0 53.05 32.15 53.05 30.9 L53.05 16.75 Q53.05 15.5 53.95 14.65 54.8 13.75 56.05 13.75 L142.95 13.75" fill="#2c2d2d" fill-rule="evenodd" stroke="none"/>
  </g>
</svg>
