<?xml version="1.0" encoding="UTF-8" standalone="no"?>
<svg xmlns:ffdec="https://www.free-decompiler.com/flash" xmlns:xlink="http://www.w3.org/1999/xlink" ffdec:objectType="shape" height="494.9px" width="705.8px" xmlns="http://www.w3.org/2000/svg">
  <g transform="matrix(1.0, 0.0, 0.0, 1.0, 0.0, -3.5)">
    <path d="M701.45 28.55 L703.65 30.75 Q704.55 31.65 705.2 33.15 705.8 34.65 705.8 35.9 L705.8 135.65 Q705.8 138.55 704.6 141.4 L701.0 149.85 Q700.5 151.0 700.15 152.7 699.8 154.4 699.8 155.65 L699.8 398.65 Q699.8 401.75 700.75 404.45 L704.85 416.8 Q705.8 419.75 705.8 422.65 L705.75 481.15 Q705.75 482.4 705.15 483.9 704.5 485.4 703.65 486.25 L694.35 495.55 Q693.5 496.45 691.95 497.1 690.45 497.7 689.2 497.7 L16.45 497.7 Q15.2 497.7 13.7 497.1 12.2 496.45 11.35 495.55 L2.15 486.35 Q1.25 485.5 0.65 483.95 0.0 482.45 0.0 481.2 L0.0 422.65 Q0.0 419.75 0.95 416.8 L5.05 404.45 Q6.0 401.75 6.0 398.65 L6.0 155.65 5.65 152.7 4.8 149.85 1.2 141.4 Q0.7 140.2 0.35 138.55 0.0 136.85 0.0 135.65 L0.0 35.9 Q0.0 34.65 0.65 33.15 1.25 31.65 2.15 30.75 L4.35 28.55 Q5.25 27.65 6.75 27.05 8.25 26.4 9.5 26.4 L696.3 26.4 Q697.55 26.4 699.05 27.05 700.55 27.65 701.45 28.55" fill="url(#gradient0)" fill-rule="evenodd" stroke="none"/>
    <path d="M222.2 498.4 Q220.95 498.4 220.75 497.8 220.5 497.2 221.4 496.35 L225.85 492.1 Q226.75 491.25 228.3 490.65 229.8 490.05 231.05 490.05 L475.3 490.05 Q476.55 490.05 478.05 490.65 479.55 491.3 480.4 492.15 L484.5 496.3 Q485.35 497.15 485.1 497.8 484.85 498.4 483.6 498.4 L222.2 498.4" fill="#333333" fill-rule="evenodd" stroke="none"/>
    <path d="M259.2 498.4 Q257.95 498.4 257.7 497.8 257.4 497.15 258.25 496.25 L265.05 489.0 Q265.9 488.1 267.35 487.45 268.8 486.8 270.05 486.8 L438.6 486.8 Q439.85 486.8 441.35 487.45 442.85 488.05 443.7 488.95 L450.55 496.25 Q451.4 497.15 451.15 497.8 450.85 498.4 449.6 498.4 L259.2 498.4" fill="#1e1e1e" fill-rule="evenodd" stroke="none"/>
    <path d="M498.5 26.1 Q499.75 26.1 499.95 26.7 500.2 27.35 499.3 28.2 L491.5 35.65 489.1 37.15 Q487.6 37.75 486.35 37.75 L382.95 37.75 Q381.7 37.75 380.45 38.3 379.25 38.8 378.7 39.55 378.2 40.3 376.95 40.85 L374.45 41.35 331.0 41.35 328.5 40.85 Q327.2 40.3 326.65 39.55 326.1 38.8 324.8 38.3 323.5 37.75 322.25 37.75 L218.4 37.75 Q217.15 37.75 215.65 37.15 214.15 36.55 213.2 35.7 L204.95 28.15 Q204.0 27.3 204.25 26.7 204.5 26.1 205.75 26.1 L498.5 26.1" fill="#333333" fill-rule="evenodd" stroke="none"/>
    <path d="M376.7 3.5 Q378.05 3.5 379.75 4.1 381.5 4.7 382.55 5.55 L383.9 6.65 Q385.0 7.45 385.25 8.9 385.55 10.3 384.85 11.5 L372.05 34.55 Q371.4 35.75 370.0 36.55 368.55 37.4 367.2 37.4 L335.9 37.4 Q334.55 37.4 333.15 36.5 331.7 35.7 331.1 34.5 L319.25 11.55 Q318.65 10.35 318.9 8.85 319.1 7.3 320.1 6.35 L320.6 5.85 Q321.55 4.85 323.2 4.2 324.85 3.5 326.2 3.5 L376.7 3.5" fill="url(#gradient1)" fill-rule="evenodd" stroke="none"/>
    <path d="M374.2 6.55 Q375.8 7.2 376.75 8.2 L377.35 8.75 Q378.25 9.65 378.5 11.2 378.7 12.65 378.05 13.85 L368.45 31.15 Q367.8 32.35 366.3 33.2 364.9 34.05 363.55 34.05 L363.05 34.05 Q359.75 34.05 358.8 33.45 357.7 32.85 354.5 32.85 L349.15 32.85 Q345.85 32.85 344.9 33.45 L343.35 33.9 340.8 34.05 339.8 34.05 Q338.45 34.05 337.0 33.2 335.6 32.3 335.0 31.1 L326.1 13.9 Q325.5 12.7 325.65 11.15 325.75 9.5 326.65 8.45 L326.7 8.4 Q327.5 7.35 329.1 6.65 330.65 5.9 332.0 5.9 L334.7 5.9 339.5 6.55 Q341.15 7.2 344.25 7.2 L360.6 7.2 365.25 6.55 Q366.55 5.9 369.9 5.9 L371.2 5.9 Q372.55 5.9 374.2 6.55" fill="#2b2b2a" fill-rule="evenodd" stroke="none"/>
    <path d="M338.05 28.9 L330.3 14.0 Q329.85 13.2 330.0 12.15 330.2 11.15 330.85 10.55 L331.1 10.25 332.85 9.15 Q334.0 8.65 334.9 8.65 L367.8 8.65 Q368.65 8.65 369.8 9.1 370.95 9.5 371.65 10.05 L372.5 10.7 Q373.2 11.25 373.4 12.2 373.6 13.2 373.15 13.95 L364.85 28.9 363.45 30.3 Q362.5 30.85 361.55 30.85 L341.2 30.85 Q340.35 30.85 339.4 30.3 338.5 29.7 338.05 28.9" fill="#113ebc" fill-rule="evenodd" stroke="none"/>
    <path d="M367.8 8.65 L334.9 8.65 Q334.0 8.65 332.85 9.15 L331.1 10.25 330.85 10.55 Q330.2 11.15 330.0 12.15 329.85 13.2 330.3 14.0 L338.05 28.9 Q338.5 29.7 339.4 30.3 340.35 30.85 341.2 30.85 L361.55 30.85 Q362.5 30.85 363.45 30.3 L364.85 28.9 373.15 13.95 Q373.6 13.2 373.4 12.2 373.2 11.25 372.5 10.7 L371.65 10.05 Q370.95 9.5 369.8 9.1 368.65 8.65 367.8 8.65 Z" fill="none" stroke="#03133f" stroke-linecap="butt" stroke-linejoin="miter-clip" stroke-miterlimit="4.0" stroke-width="1.0"/>
    <path d="M306.95 37.0 L310.2 37.25 Q312.6 35.85 319.65 33.55 321.6 32.95 320.45 30.85 319.35 28.8 316.8 29.6 308.05 32.55 304.5 35.55 304.2 36.35 306.95 37.0" fill="url(#gradient2)" fill-rule="evenodd" stroke="none"/>
    <path d="M397.3 37.0 L394.05 37.25 Q391.65 35.85 384.6 33.55 382.65 32.95 383.8 30.85 384.9 28.8 387.45 29.6 396.2 32.55 399.75 35.55 400.05 36.35 397.3 37.0" fill="url(#gradient3)" fill-rule="evenodd" stroke="none"/>
    <path d="M384.6 19.65 L387.1 21.2 388.4 26.35 383.1 35.2 377.95 36.55 375.45 35.05 384.6 19.65" fill="url(#gradient4)" fill-rule="evenodd" stroke="none"/>
    <path d="M390.0 29.3 L386.6 35.1 384.05 33.6 387.4 27.85 390.0 29.3" fill="#333333" fill-rule="evenodd" stroke="none"/>
    <path d="M318.75 19.65 L316.25 21.2 314.95 26.35 320.25 35.2 325.4 36.55 327.95 35.05 318.75 19.65" fill="url(#gradient5)" fill-rule="evenodd" stroke="none"/>
    <path d="M313.35 29.3 L316.75 35.1 319.3 33.6 315.95 27.85 313.35 29.3" fill="#333333" fill-rule="evenodd" stroke="none"/>
    <path d="M689.05 53.75 L689.05 477.7 Q689.05 479.75 687.6 481.25 686.1 482.7 684.05 482.7 L21.1 482.7 Q19.05 482.7 17.55 481.25 16.1 479.75 16.1 477.7 L16.1 53.75 Q16.1 51.7 17.55 50.2 19.05 48.75 21.1 48.75 L110.4 48.75 115.3 49.25 120.1 50.5 121.7 51.05 Q123.65 51.75 126.5 52.25 L131.4 52.75 590.4 52.75 595.3 52.25 Q598.15 51.7 600.05 51.0 L601.25 50.55 Q603.15 49.8 606.0 49.3 L610.9 48.75 684.05 48.75 Q686.1 48.75 687.6 50.2 689.05 51.7 689.05 53.75" fill="#474646" fill-rule="evenodd" stroke="none"/>
    <path d="M685.75 58.55 L685.75 473.95 Q685.75 476.0 684.3 477.5 682.8 478.95 680.75 478.95 L660.4 478.95 656.35 479.45 Q654.35 479.95 653.65 480.6 652.95 481.3 650.95 481.75 L646.9 482.25 513.9 482.25 509.7 481.75 Q507.6 481.3 506.65 480.6 505.7 479.9 503.6 479.45 L499.4 478.95 208.9 478.95 204.85 479.4 Q202.85 479.8 202.15 480.45 201.45 481.05 199.45 481.5 L195.4 481.95 59.25 481.95 55.05 481.5 Q52.95 481.05 52.05 480.45 51.15 479.8 49.05 479.4 L44.9 478.95 24.4 478.95 Q22.35 478.95 20.85 477.5 19.4 476.0 19.4 473.95 L19.4 58.55 Q19.4 56.5 20.85 55.0 22.35 53.55 24.4 53.55 L680.75 53.55 Q682.8 53.55 684.3 55.0 685.75 56.5 685.75 58.55" fill="#0c0c0c" fill-rule="evenodd" stroke="none"/>
  </g>
  <defs>
    <linearGradient gradientTransform="matrix(0.0, -0.2876, -0.2876, 0.0, 352.9, 262.05)" gradientUnits="userSpaceOnUse" id="gradient0" spreadMethod="pad" x1="-819.2" x2="819.2">
      <stop offset="0.0" stop-color="#505050"/>
      <stop offset="0.10980392156862745" stop-color="#282828"/>
      <stop offset="0.19607843137254902" stop-color="#3a3a3a"/>
      <stop offset="0.43529411764705883" stop-color="#676767"/>
      <stop offset="0.6509803921568628" stop-color="#888888"/>
      <stop offset="0.8313725490196079" stop-color="#9d9d9d"/>
      <stop offset="0.9490196078431372" stop-color="#a4a4a4"/>
      <stop offset="0.9725490196078431" stop-color="#787878"/>
      <stop offset="0.9882352941176471" stop-color="#5c5c5c"/>
      <stop offset="1.0" stop-color="#525252"/>
    </linearGradient>
    <linearGradient gradientTransform="matrix(0.0, -0.0207, 0.0207, 0.0, 352.05, 20.45)" gradientUnits="userSpaceOnUse" id="gradient1" spreadMethod="pad" x1="-819.2" x2="819.2">
      <stop offset="0.0" stop-color="#373737"/>
      <stop offset="0.6549019607843137" stop-color="#a4a4a4"/>
      <stop offset="0.803921568627451" stop-color="#a4a4a4"/>
      <stop offset="1.0" stop-color="#6b6b6b"/>
    </linearGradient>
    <linearGradient gradientTransform="matrix(0.0016, 0.004, 0.0094, -0.0039, 278.45, 48.05)" gradientUnits="userSpaceOnUse" id="gradient2" spreadMethod="pad" x1="-819.2" x2="819.2">
      <stop offset="0.0" stop-color="#505050"/>
      <stop offset="0.09803921568627451" stop-color="#373737"/>
      <stop offset="0.5254901960784314" stop-color="#6e6861"/>
      <stop offset="0.8862745098039215" stop-color="#3d3d3d"/>
      <stop offset="1.0" stop-color="#505050"/>
    </linearGradient>
    <linearGradient gradientTransform="matrix(-0.0016, 0.004, -0.0094, -0.0039, 425.8, 48.05)" gradientUnits="userSpaceOnUse" id="gradient3" spreadMethod="pad" x1="-819.2" x2="819.2">
      <stop offset="0.0" stop-color="#505050"/>
      <stop offset="0.09803921568627451" stop-color="#373737"/>
      <stop offset="0.5254901960784314" stop-color="#6e6861"/>
      <stop offset="0.8862745098039215" stop-color="#3d3d3d"/>
      <stop offset="1.0" stop-color="#505050"/>
    </linearGradient>
    <linearGradient gradientTransform="matrix(-0.0053, 0.0096, 0.0096, 0.0053, 382.85, 29.0)" gradientUnits="userSpaceOnUse" id="gradient4" spreadMethod="pad" x1="-819.2" x2="819.2">
      <stop offset="0.0" stop-color="#505050"/>
      <stop offset="0.09803921568627451" stop-color="#373737"/>
      <stop offset="0.5254901960784314" stop-color="#6e6963"/>
      <stop offset="0.8862745098039215" stop-color="#3d3d3d"/>
      <stop offset="1.0" stop-color="#505050"/>
    </linearGradient>
    <linearGradient gradientTransform="matrix(0.0053, 0.0096, -0.0096, 0.0053, 320.5, 29.0)" gradientUnits="userSpaceOnUse" id="gradient5" spreadMethod="pad" x1="-819.2" x2="819.2">
      <stop offset="0.0" stop-color="#505050"/>
      <stop offset="0.09803921568627451" stop-color="#373737"/>
      <stop offset="0.5254901960784314" stop-color="#6e6963"/>
      <stop offset="0.8862745098039215" stop-color="#3d3d3d"/>
      <stop offset="1.0" stop-color="#505050"/>
    </linearGradient>
  </defs>
</svg>
