<?xml version="1.0" encoding="UTF-8" standalone="no"?>
<svg xmlns:ffdec="https://www.free-decompiler.com/flash" xmlns:xlink="http://www.w3.org/1999/xlink" ffdec:objectType="shape" height="46.95px" width="190.75px" xmlns="http://www.w3.org/2000/svg">
  <g transform="matrix(1.0, 0.0, 0.0, 1.0, -10.6, -2.6)">
    <path d="M200.15 8.9 L200.15 43.35 Q200.15 45.5 198.65 47.05 197.1 48.5 195.0 48.5 L16.8 48.5 Q14.65 48.5 13.15 47.05 11.6 45.5 11.6 43.35 L11.6 8.9 Q11.6 6.8 13.15 5.25 14.65 3.75 16.8 3.75 L195.0 3.75 Q197.1 3.75 198.65 5.25 200.15 6.8 200.15 8.9" fill="#020d26" fill-rule="evenodd" stroke="none"/>
    <path d="M195.0 3.05 Q197.4 3.05 199.15 4.75 200.85 6.55 200.85 8.9 L200.85 43.35 Q200.85 45.75 199.15 47.5 197.4 49.2 195.0 49.2 L16.8 49.2 Q14.35 49.2 12.65 47.5 10.95 45.75 10.95 43.35 L10.95 8.9 Q10.95 6.55 12.65 4.75 14.35 3.05 16.8 3.05 L195.0 3.05 M199.5 8.9 Q199.5 7.05 198.2 5.7 196.85 4.4 195.0 4.4 L16.8 4.4 Q14.95 4.4 13.6 5.7 12.3 7.05 12.3 8.9 L12.3 43.35 Q12.3 45.2 13.6 46.55 14.95 47.85 16.8 47.85 L195.0 47.85 Q196.85 47.85 198.2 46.55 199.5 45.2 199.5 43.35 L199.5 8.9" fill="#1c4b84" fill-rule="evenodd" stroke="none"/>
    <path d="M195.65 11.25 L195.65 40.8 Q195.65 42.2 194.65 43.2 193.7 44.2 192.3 44.2 L19.5 44.2 Q18.1 44.2 17.1 43.2 16.1 42.2 16.1 40.8 L16.1 11.25 Q16.1 9.85 17.1 8.85 18.1 7.9 19.5 7.9 L192.3 7.9 Q193.7 7.9 194.65 8.85 195.65 9.85 195.65 11.25" fill="url(#gradient0)" fill-rule="evenodd" stroke="none"/>
    <path d="M192.3 7.2 Q193.95 7.2 195.1 8.35 196.35 9.6 196.35 11.25 L196.35 40.8 Q196.35 42.5 195.1 43.65 193.95 44.85 192.3 44.85 L19.5 44.85 Q17.8 44.85 16.65 43.65 15.45 42.5 15.45 40.8 L15.45 11.25 Q15.45 9.6 16.65 8.35 17.8 7.2 19.5 7.2 L192.3 7.2 M195.0 11.25 Q195.0 10.15 194.2 9.35 193.4 8.55 192.3 8.55 L19.5 8.55 Q18.35 8.55 17.6 9.35 16.8 10.15 16.8 11.25 L16.8 40.8 Q16.8 41.95 17.6 42.7 18.35 43.5 19.5 43.5 L192.3 43.5 Q193.4 43.5 194.2 42.7 195.0 41.95 195.0 40.8 L195.0 11.25" fill="#7ecafc" fill-rule="evenodd" stroke="none"/>
    <path d="M190.2 11.3 L21.55 41.0 Q20.45 41.2 19.65 40.55 18.9 39.9 18.9 38.8 L18.9 13.55 Q18.9 12.4 19.7 11.65 20.5 10.85 21.6 10.85 L190.15 10.85 191.3 11.0 190.2 11.3" fill="url(#gradient1)" fill-rule="evenodd" stroke="none"/>
    <path d="M12.3 7.65 L12.3 13.25 10.6 13.25 10.6 6.55 15.0 2.6 21.2 2.6 21.2 4.3 15.7 4.3 12.3 7.65" fill="#69bfff" fill-rule="evenodd" stroke="none"/>
    <path d="M12.3 44.5 L15.7 47.85 21.2 47.85 21.2 49.55 15.0 49.55 10.6 45.6 10.6 38.95 12.3 38.95 12.3 44.5" fill="#69bfff" fill-rule="evenodd" stroke="none"/>
    <path d="M199.6 7.65 L196.15 4.3 190.7 4.3 190.7 2.6 196.9 2.6 201.35 6.55 201.35 13.25 199.6 13.25 199.6 7.65" fill="#69bfff" fill-rule="evenodd" stroke="none"/>
    <path d="M199.6 44.5 L199.6 38.95 201.35 38.95 201.35 45.6 196.9 49.55 190.7 49.55 190.7 47.85 196.15 47.85 199.6 44.5" fill="#69bfff" fill-rule="evenodd" stroke="none"/>
  </g>
  <defs>
    <radialGradient cx="0" cy="0" gradientTransform="matrix(0.1559, 0.0, 0.0, -0.039, 107.95, 39.8)" gradientUnits="userSpaceOnUse" id="gradient0" r="819.2" spreadMethod="pad">
      <stop offset="0.0" stop-color="#3399cc"/>
      <stop offset="0.14901960784313725" stop-color="#3293d0"/>
      <stop offset="0.34901960784313724" stop-color="#3082db"/>
      <stop offset="0.5764705882352941" stop-color="#2c66ee"/>
      <stop offset="0.7411764705882353" stop-color="#294dff"/>
      <stop offset="0.7568627450980392" stop-color="#274bfb"/>
      <stop offset="0.9137254901960784" stop-color="#143ddb"/>
      <stop offset="1.0" stop-color="#0d38cf"/>
    </radialGradient>
    <linearGradient gradientTransform="matrix(0.0146, 0.0362, 0.03, -0.0121, 99.3, 13.3)" gradientUnits="userSpaceOnUse" id="gradient1" spreadMethod="pad" x1="-819.2" x2="819.2">
      <stop offset="0.0" stop-color="#c2c2b3"/>
      <stop offset="0.043137254901960784" stop-color="#9b9f91" stop-opacity="0.8"/>
      <stop offset="0.09411764705882353" stop-color="#777e71" stop-opacity="0.6117647"/>
      <stop offset="0.14901960784313725" stop-color="#576154" stop-opacity="0.44313726"/>
      <stop offset="0.21176470588235294" stop-color="#3b483c" stop-opacity="0.30588236"/>
      <stop offset="0.2823529411764706" stop-color="#253429" stop-opacity="0.19215687"/>
      <stop offset="0.36470588235294116" stop-color="#14251a" stop-opacity="0.101960786"/>
      <stop offset="0.4627450980392157" stop-color="#091a10" stop-opacity="0.043137256"/>
      <stop offset="0.6078431372549019" stop-color="#02140a" stop-opacity="0.007843138"/>
      <stop offset="1.0" stop-color="#001208" stop-opacity="0.0"/>
    </linearGradient>
  </defs>
</svg>
