<?xml version="1.0" encoding="UTF-8" standalone="no"?>
<svg xmlns:ffdec="https://www.free-decompiler.com/flash" xmlns:xlink="http://www.w3.org/1999/xlink" ffdec:objectType="shape" height="15.9px" width="20.45px" xmlns="http://www.w3.org/2000/svg">
  <g transform="matrix(1.0, 0.0, 0.0, 1.0, 12.55, 236.65)">
    <path d="M-2.6 -228.1 L-3.1 -229.55 -0.45 -230.5 0.05 -229.05 -2.6 -228.1" fill="#054cdb" fill-rule="evenodd" stroke="none"/>
    <path d="M-8.75 -228.65 Q-6.8 -228.85 -6.35 -229.3 -3.9 -230.7 -3.1 -229.55 L-2.6 -228.1 Q-2.5 -226.6 -5.25 -226.2 -5.8 -226.2 -7.5 -225.2 -9.2 -224.15 -11.45 -224.1 -12.2 -224.9 -12.45 -226.1 L-12.55 -227.15 Q-10.8 -228.5 -8.75 -228.65" fill="#0080ff" fill-rule="evenodd" stroke="none"/>
    <path d="M6.05 -227.5 L0.85 -225.6 -1.9 -233.35 3.25 -235.2 6.05 -227.5" fill="#066dea" fill-rule="evenodd" stroke="none"/>
    <path d="M4.55 -234.8 L-2.5 -232.3 -3.25 -234.1 3.8 -236.65 4.55 -234.8" fill="#0080ff" fill-rule="evenodd" stroke="none"/>
    <path d="M7.25 -227.05 L0.2 -224.5 -0.1 -225.85 6.95 -228.4 7.25 -227.05" fill="#0080ff" fill-rule="evenodd" stroke="none"/>
    <path d="M7.9 -220.75 L-5.5 -220.75 -5.5 -222.25 7.9 -222.25 7.9 -220.75" fill="#066dea" fill-rule="evenodd" stroke="none"/>
  </g>
</svg>
