<?xml version="1.0" encoding="UTF-8" standalone="no"?>
<svg xmlns:ffdec="https://www.free-decompiler.com/flash" xmlns:xlink="http://www.w3.org/1999/xlink" ffdec:objectType="shape" height="438.8px" width="705.8px" xmlns="http://www.w3.org/2000/svg">
  <g transform="matrix(1.0, 0.0, 0.0, 1.0, 355.4, 248.8)">
    <path d="M346.05 -218.75 L348.25 -216.55 349.8 -214.15 Q350.4 -212.65 350.4 -211.4 L350.4 -111.65 Q350.4 -108.75 349.2 -105.9 L345.6 -97.45 Q345.1 -96.3 344.75 -94.6 344.4 -92.9 344.4 -91.65 L344.4 84.35 Q344.4 87.45 345.35 90.15 L349.45 102.5 Q350.4 105.45 350.4 108.35 L350.35 166.85 Q350.35 168.1 349.75 169.6 349.1 171.1 348.25 171.95 L338.95 181.25 Q338.1 182.15 336.55 182.8 335.05 183.4 333.8 183.4 L-338.95 183.4 -341.7 182.8 Q-343.2 182.15 -344.05 181.25 L-353.25 172.05 Q-354.15 171.2 -354.75 169.65 -355.4 168.15 -355.4 166.9 L-355.4 108.35 Q-355.4 105.45 -354.45 102.5 L-350.35 90.15 Q-349.4 87.45 -349.4 84.35 L-349.4 -91.65 Q-349.4 -92.9 -349.75 -94.6 -350.1 -96.3 -350.6 -97.45 L-354.2 -105.9 -355.05 -108.75 -355.4 -111.65 -355.4 -211.4 Q-355.4 -212.65 -354.75 -214.15 -354.15 -215.65 -353.25 -216.55 L-351.05 -218.75 Q-350.15 -219.65 -348.65 -220.25 -347.15 -220.9 -345.9 -220.9 L340.9 -220.9 Q342.15 -220.9 343.65 -220.25 345.15 -219.65 346.05 -218.75" fill="url(#gradient0)" fill-rule="evenodd" stroke="none"/>
    <path d="M145.1 -226.2 Q146.35 -226.2 146.55 -225.6 146.8 -224.95 145.9 -224.1 L138.1 -216.65 Q137.25 -215.8 135.7 -215.15 134.2 -214.55 132.95 -214.55 L29.55 -214.55 Q28.3 -214.55 27.05 -214.0 L25.3 -212.75 Q24.8 -212.0 23.55 -211.45 22.3 -210.95 21.05 -210.95 L-22.4 -210.95 -24.9 -211.45 Q-26.2 -212.0 -26.75 -212.75 -27.3 -213.5 -28.6 -214.0 L-31.15 -214.55 -135.0 -214.55 Q-136.25 -214.55 -137.75 -215.15 -139.25 -215.75 -140.2 -216.6 L-148.45 -224.15 Q-149.4 -225.0 -149.15 -225.6 -148.9 -226.2 -147.65 -226.2 L145.1 -226.2" fill="#333333" fill-rule="evenodd" stroke="none"/>
    <path d="M23.3 -248.8 L26.35 -248.2 Q28.1 -247.6 29.15 -246.75 L30.5 -245.65 Q31.6 -244.85 31.85 -243.4 32.15 -242.0 31.45 -240.8 L18.65 -217.75 Q18.0 -216.55 16.6 -215.75 15.15 -214.9 13.8 -214.9 L-17.5 -214.9 Q-18.85 -214.9 -20.25 -215.8 -21.7 -216.6 -22.3 -217.8 L-34.15 -240.75 Q-34.75 -241.95 -34.5 -243.45 -34.3 -245.0 -33.3 -245.95 L-32.8 -246.45 Q-31.85 -247.45 -30.2 -248.1 -28.55 -248.8 -27.2 -248.8 L23.3 -248.8" fill="url(#gradient1)" fill-rule="evenodd" stroke="none"/>
    <path d="M20.8 -245.75 Q22.4 -245.1 23.35 -244.1 L23.95 -243.55 Q24.85 -242.65 25.1 -241.1 25.3 -239.65 24.65 -238.45 L15.05 -221.15 Q14.4 -219.95 12.9 -219.1 11.5 -218.25 10.15 -218.25 L9.65 -218.25 Q6.35 -218.25 5.4 -218.85 4.3 -219.45 1.1 -219.45 L-4.25 -219.45 Q-7.55 -219.45 -8.5 -218.85 L-10.05 -218.4 -12.6 -218.25 -13.6 -218.25 Q-14.95 -218.25 -16.4 -219.1 -17.8 -220.0 -18.4 -221.2 L-27.3 -238.4 Q-27.9 -239.6 -27.75 -241.15 -27.65 -242.8 -26.75 -243.85 L-26.7 -243.9 Q-25.9 -244.95 -24.3 -245.65 -22.75 -246.4 -21.4 -246.4 L-18.7 -246.4 Q-15.35 -246.4 -13.9 -245.75 -12.25 -245.1 -9.15 -245.1 L7.2 -245.1 Q10.3 -245.1 11.85 -245.75 13.15 -246.4 16.5 -246.4 L17.8 -246.4 Q19.15 -246.4 20.8 -245.75" fill="#2b2b2a" fill-rule="evenodd" stroke="none"/>
    <path d="M-15.35 -223.4 L-23.1 -238.3 Q-23.55 -239.1 -23.4 -240.15 -23.2 -241.15 -22.55 -241.75 L-22.3 -242.05 -20.55 -243.15 -18.5 -243.65 14.4 -243.65 16.4 -243.2 Q17.55 -242.8 18.25 -242.25 L19.1 -241.6 Q19.8 -241.05 20.0 -240.1 20.2 -239.1 19.75 -238.35 L11.45 -223.4 Q11.0 -222.55 10.05 -222.0 9.1 -221.45 8.15 -221.45 L-12.2 -221.45 Q-13.05 -221.45 -14.0 -222.0 -14.9 -222.6 -15.35 -223.4" fill="#113ebc" fill-rule="evenodd" stroke="none"/>
    <path d="M11.45 -223.4 L19.75 -238.35 Q20.2 -239.1 20.0 -240.1 19.8 -241.05 19.1 -241.6 L18.25 -242.25 Q17.55 -242.8 16.4 -243.2 L14.4 -243.65 -18.5 -243.65 -20.55 -243.15 -22.3 -242.05 -22.55 -241.75 Q-23.2 -241.15 -23.4 -240.15 -23.55 -239.1 -23.1 -238.3 L-15.35 -223.4 Q-14.9 -222.6 -14.0 -222.0 -13.05 -221.45 -12.2 -221.45 L8.15 -221.45 Q9.1 -221.45 10.05 -222.0 11.0 -222.55 11.45 -223.4 Z" fill="none" stroke="#03133f" stroke-linecap="butt" stroke-linejoin="miter-clip" stroke-miterlimit="4.0" stroke-width="1.0"/>
    <path d="M-46.45 -215.3 L-43.2 -215.05 Q-40.8 -216.45 -33.75 -218.75 -31.8 -219.35 -32.95 -221.45 -34.05 -223.5 -36.6 -222.7 -45.35 -219.75 -48.9 -216.75 -49.2 -215.95 -46.45 -215.3" fill="url(#gradient2)" fill-rule="evenodd" stroke="none"/>
    <path d="M43.9 -215.3 L40.65 -215.05 Q38.25 -216.45 31.2 -218.75 29.25 -219.35 30.4 -221.45 31.5 -223.5 34.05 -222.7 42.8 -219.75 46.35 -216.75 46.65 -215.95 43.9 -215.3" fill="url(#gradient3)" fill-rule="evenodd" stroke="none"/>
    <path d="M31.2 -232.65 L33.7 -231.1 35.0 -225.95 29.7 -217.1 24.55 -215.75 22.05 -217.25 31.2 -232.65" fill="url(#gradient4)" fill-rule="evenodd" stroke="none"/>
    <path d="M36.6 -223.0 L33.2 -217.2 30.65 -218.7 34.0 -224.45 Q35.35 -223.65 36.6 -223.0" fill="#333333" fill-rule="evenodd" stroke="none"/>
    <path d="M-34.65 -232.65 L-37.15 -231.1 -38.45 -225.95 -33.15 -217.1 -28.0 -215.75 -25.45 -217.25 -34.65 -232.65" fill="url(#gradient5)" fill-rule="evenodd" stroke="none"/>
    <path d="M-40.05 -223.0 L-36.65 -217.2 -34.1 -218.7 -37.45 -224.45 -40.05 -223.0" fill="#333333" fill-rule="evenodd" stroke="none"/>
    <path d="M242.7 -208.85 Q245.55 -209.4 247.45 -210.1 L248.65 -210.55 Q250.55 -211.3 253.4 -211.8 L258.3 -212.35 331.45 -212.35 Q333.5 -212.35 335.0 -210.9 336.45 -209.4 336.45 -207.35 L336.45 176.6 Q336.45 178.65 335.0 180.15 333.5 181.6 331.45 181.6 L-337.9 181.6 Q-339.95 181.6 -341.45 180.15 -342.9 178.65 -342.9 176.6 L-342.9 -205.8 -336.35 -212.35 -248.6 -212.35 -243.7 -211.85 -238.9 -210.6 -237.3 -210.05 Q-235.35 -209.35 -232.5 -208.85 L-227.6 -208.35 237.8 -208.35 242.7 -208.85" fill="#474646" fill-rule="evenodd" stroke="none"/>
    <path d="M79.25 -208.0 L79.0 -208.35 323.45 -208.35 Q331.3 -207.95 330.15 -200.0 L330.15 -152.55 326.55 -149.2 326.55 38.0 326.7 38.0 326.7 87.05 326.85 87.05 326.85 104.35 330.45 107.7 330.45 155.15 Q330.75 157.2 330.45 158.75 L330.45 165.7 Q330.45 167.75 328.95 169.25 327.45 170.7 325.35 170.7 L304.75 170.7 300.65 171.2 Q298.65 171.7 297.9 172.35 297.2 173.05 295.2 173.5 L291.1 174.0 160.4 174.0 156.15 173.5 Q154.0 173.05 153.05 172.35 152.05 171.65 149.95 171.2 L145.7 170.7 -143.45 170.7 -147.6 171.15 Q-149.7 171.55 -150.4 172.2 -151.1 172.8 -153.2 173.25 L-157.35 173.7 -297.15 173.7 -301.45 173.25 Q-303.6 172.8 -304.55 172.2 -305.45 171.55 -307.6 171.15 L-311.85 170.7 -332.9 170.7 Q-335.05 170.7 -336.55 169.25 -338.05 167.75 -338.05 165.7 L-338.05 118.25 -337.75 118.25 -337.75 107.7 -334.2 104.35 -334.2 87.05 -334.35 87.05 -334.35 51.0 -334.5 51.0 -334.5 -149.2 -338.05 -152.55 -338.05 -200.0 Q-339.2 -207.95 -331.4 -208.35 L-84.05 -208.35 -84.35 -208.0 79.25 -208.0" fill="#0c0c0c" fill-rule="evenodd" stroke="none"/>
    <path d="M-155.85 182.25 L-152.9 181.65 152.4 181.65 155.35 182.25 157.9 183.75 162.25 187.9 Q163.2 188.75 162.9 189.4 162.65 190.0 161.3 190.0 L-162.35 190.0 Q-163.7 190.0 -163.9 189.4 -164.2 188.8 -163.25 187.95 L-158.45 183.7 Q-157.5 182.85 -155.85 182.25" fill="#333333" fill-rule="evenodd" stroke="none"/>
    <path d="M-139.75 179.05 Q-138.2 178.4 -136.85 178.4 L135.7 178.4 Q137.05 178.4 138.65 179.05 140.3 179.65 141.2 180.55 L148.6 187.85 Q149.55 188.75 149.25 189.4 148.95 190.0 147.6 190.0 L-148.6 190.0 Q-149.95 190.0 -150.2 189.4 -150.55 188.75 -149.65 187.85 L-142.25 180.6 Q-141.35 179.7 -139.75 179.05" fill="#1e1e1e" fill-rule="evenodd" stroke="none"/>
  </g>
  <defs>
    <linearGradient gradientTransform="matrix(0.0, -0.2672, -0.2876, 0.0, -1.45, -25.25)" gradientUnits="userSpaceOnUse" id="gradient0" spreadMethod="pad" x1="-819.2" x2="819.2">
      <stop offset="0.0" stop-color="#505050"/>
      <stop offset="0.10980392156862745" stop-color="#282828"/>
      <stop offset="0.19607843137254902" stop-color="#3a3a3a"/>
      <stop offset="0.43529411764705883" stop-color="#676767"/>
      <stop offset="0.6509803921568628" stop-color="#888888"/>
      <stop offset="0.8313725490196079" stop-color="#9d9d9d"/>
      <stop offset="0.9490196078431372" stop-color="#a4a4a4"/>
      <stop offset="0.9725490196078431" stop-color="#787878"/>
      <stop offset="0.9882352941176471" stop-color="#5c5c5c"/>
      <stop offset="1.0" stop-color="#525252"/>
    </linearGradient>
    <linearGradient gradientTransform="matrix(0.0, -0.0207, 0.0207, 0.0, -1.35, -231.85)" gradientUnits="userSpaceOnUse" id="gradient1" spreadMethod="pad" x1="-819.2" x2="819.2">
      <stop offset="0.0" stop-color="#373737"/>
      <stop offset="0.6549019607843137" stop-color="#a4a4a4"/>
      <stop offset="0.803921568627451" stop-color="#a4a4a4"/>
      <stop offset="1.0" stop-color="#6b6b6b"/>
    </linearGradient>
    <linearGradient gradientTransform="matrix(0.0016, 0.004, 0.0094, -0.0039, -74.95, -204.25)" gradientUnits="userSpaceOnUse" id="gradient2" spreadMethod="pad" x1="-819.2" x2="819.2">
      <stop offset="0.0" stop-color="#505050"/>
      <stop offset="0.09803921568627451" stop-color="#373737"/>
      <stop offset="0.5254901960784314" stop-color="#6e6861"/>
      <stop offset="0.8862745098039215" stop-color="#3d3d3d"/>
      <stop offset="1.0" stop-color="#505050"/>
    </linearGradient>
    <linearGradient gradientTransform="matrix(-0.0016, 0.004, -0.0094, -0.0039, 72.4, -204.25)" gradientUnits="userSpaceOnUse" id="gradient3" spreadMethod="pad" x1="-819.2" x2="819.2">
      <stop offset="0.0" stop-color="#505050"/>
      <stop offset="0.09803921568627451" stop-color="#373737"/>
      <stop offset="0.5254901960784314" stop-color="#6e6861"/>
      <stop offset="0.8862745098039215" stop-color="#3d3d3d"/>
      <stop offset="1.0" stop-color="#505050"/>
    </linearGradient>
    <linearGradient gradientTransform="matrix(-0.0053, 0.0096, 0.0096, 0.0053, 29.45, -223.3)" gradientUnits="userSpaceOnUse" id="gradient4" spreadMethod="pad" x1="-819.2" x2="819.2">
      <stop offset="0.0" stop-color="#505050"/>
      <stop offset="0.09803921568627451" stop-color="#373737"/>
      <stop offset="0.5254901960784314" stop-color="#6e6963"/>
      <stop offset="0.8862745098039215" stop-color="#3d3d3d"/>
      <stop offset="1.0" stop-color="#505050"/>
    </linearGradient>
    <linearGradient gradientTransform="matrix(0.0053, 0.0096, -0.0096, 0.0053, -32.9, -223.3)" gradientUnits="userSpaceOnUse" id="gradient5" spreadMethod="pad" x1="-819.2" x2="819.2">
      <stop offset="0.0" stop-color="#505050"/>
      <stop offset="0.09803921568627451" stop-color="#373737"/>
      <stop offset="0.5254901960784314" stop-color="#6e6963"/>
      <stop offset="0.8862745098039215" stop-color="#3d3d3d"/>
      <stop offset="1.0" stop-color="#505050"/>
    </linearGradient>
  </defs>
</svg>
