<?xml version="1.0" encoding="UTF-8" standalone="no"?>
<svg xmlns:ffdec="https://www.free-decompiler.com/flash" xmlns:xlink="http://www.w3.org/1999/xlink" ffdec:objectType="shape" height="55.5px" width="665.0px" xmlns="http://www.w3.org/2000/svg">
  <g transform="matrix(1.0, 0.0, 0.0, 1.0, 1.0, 1.0)">
    <path d="M663.0 3.5 L663.0 50.0 Q663.0 51.45 662.0 52.45 660.95 53.5 659.5 53.5 L3.5 53.5 Q2.1 53.5 1.05 52.45 0.0 51.45 0.0 50.0 L0.0 3.5 Q0.0 2.05 1.05 1.0 2.05 0.0 3.5 0.0 L659.5 0.0 Q660.95 0.0 662.0 1.0 663.0 2.05 663.0 3.5" fill="url(#gradient0)" fill-rule="evenodd" stroke="none"/>
    <path d="M663.0 3.5 L663.0 50.0 Q663.0 51.45 662.0 52.45 660.95 53.5 659.5 53.5 L3.5 53.5 Q2.1 53.5 1.05 52.45 0.0 51.45 0.0 50.0 L0.0 3.5 Q0.0 2.05 1.05 1.0 2.05 0.0 3.5 0.0 L659.5 0.0 Q660.95 0.0 662.0 1.0 663.0 2.05 663.0 3.5 Z" fill="none" stroke="#398aff" stroke-linecap="round" stroke-linejoin="round" stroke-width="2.0"/>
  </g>
  <defs>
    <linearGradient gradientTransform="matrix(0.404, 0.0, 0.0, -0.048, 329.25, 19.0)" gradientUnits="userSpaceOnUse" id="gradient0" spreadMethod="pad" x1="-819.2" x2="819.2">
      <stop offset="0.0" stop-color="#0042cc"/>
      <stop offset="0.7450980392156863" stop-color="#00267d"/>
      <stop offset="1.0" stop-color="#0042cc"/>
    </linearGradient>
  </defs>
</svg>
