<?xml version="1.0" encoding="UTF-8" standalone="no"?>
<svg xmlns:ffdec="https://www.free-decompiler.com/flash" xmlns:xlink="http://www.w3.org/1999/xlink" ffdec:objectType="shape" height="22.0px" width="75.25px" xmlns="http://www.w3.org/2000/svg">
  <g transform="matrix(1.0, 0.0, 0.0, 1.0, 36.55, -184.0)">
    <path d="M20.85 187.0 L20.85 184.5 23.05 184.5 38.0 202.3 33.2 205.5 20.85 205.5 20.85 202.95 27.8 202.95 31.9 199.55 20.85 187.0" fill="url(#gradient0)" fill-rule="evenodd" stroke="none"/>
    <path d="M9.95 187.0 L20.85 187.0 31.9 199.55 27.8 202.95 20.85 202.95 9.95 202.95 -14.9 202.95 -15.9 202.95 -26.95 202.95 -30.35 200.2 -19.9 187.0 -15.9 187.0 -14.9 187.0 9.95 187.0" fill="#000102" fill-rule="evenodd" stroke="none"/>
    <path d="M9.95 187.0 L9.95 184.5 20.85 184.5 20.85 187.0 9.95 187.0 M9.95 202.95 L20.85 202.95 20.85 205.5 9.95 205.5 9.95 202.95" fill="url(#gradient1)" fill-rule="evenodd" stroke="none"/>
    <path d="M9.95 184.5 L9.95 187.0 -14.9 187.0 -14.9 184.5 9.95 184.5 M-14.9 202.95 L9.95 202.95 9.95 205.5 -14.9 205.5 -14.9 202.95" fill="url(#gradient2)" fill-rule="evenodd" stroke="none"/>
    <path d="M-14.9 184.5 L-14.9 187.0 -15.9 187.0 -15.9 184.5 -14.9 184.5 M-15.9 205.5 L-15.9 202.95 -14.9 202.95 -14.9 205.5 -15.9 205.5" fill="url(#gradient3)" fill-rule="evenodd" stroke="none"/>
    <path d="M-15.9 184.5 L-15.9 187.0 -19.9 187.0 -30.35 200.2 -26.95 202.95 -15.9 202.95 -15.9 205.5 -32.05 205.5 -35.9 202.3 -21.8 184.5 -15.9 184.5" fill="url(#gradient4)" fill-rule="evenodd" stroke="none"/>
    <path d="M20.85 184.5 L9.95 184.5 -14.9 184.5 -15.9 184.5 -21.8 184.5 -35.9 202.3 -32.05 205.5 -15.9 205.5 -14.9 205.5 9.95 205.5 20.85 205.5 33.2 205.5 38.0 202.3 23.05 184.5 20.85 184.5 Z" fill="none" stroke="#736357" stroke-linecap="butt" stroke-linejoin="miter-clip" stroke-miterlimit="4.0" stroke-width="1.0"/>
  </g>
  <defs>
    <linearGradient gradientTransform="matrix(0.0, -0.0128, 0.0153, 0.0, 15.5, 195.0)" gradientUnits="userSpaceOnUse" id="gradient0" spreadMethod="pad" x1="-819.2" x2="819.2">
      <stop offset="0.0" stop-color="#242424"/>
      <stop offset="1.0" stop-color="#505050"/>
    </linearGradient>
    <linearGradient gradientTransform="matrix(0.0, -0.0128, 0.1225, 0.0, 1.85, 195.0)" gradientUnits="userSpaceOnUse" id="gradient1" spreadMethod="pad" x1="-819.2" x2="819.2">
      <stop offset="0.0" stop-color="#242424"/>
      <stop offset="1.0" stop-color="#505050"/>
    </linearGradient>
    <linearGradient gradientTransform="matrix(0.0, -0.0128, 0.4348, 0.0, -6.6, 195.0)" gradientUnits="userSpaceOnUse" id="gradient2" spreadMethod="pad" x1="-819.2" x2="819.2">
      <stop offset="0.0" stop-color="#242424"/>
      <stop offset="1.0" stop-color="#505050"/>
    </linearGradient>
    <linearGradient gradientTransform="matrix(0.0, -0.0128, 0.1225, 0.0, -12.55, 195.0)" gradientUnits="userSpaceOnUse" id="gradient3" spreadMethod="pad" x1="-819.2" x2="819.2">
      <stop offset="0.0" stop-color="#242424"/>
      <stop offset="1.0" stop-color="#505050"/>
    </linearGradient>
    <linearGradient gradientTransform="matrix(0.0, -0.0128, 0.0153, 0.0, -13.4, 195.0)" gradientUnits="userSpaceOnUse" id="gradient4" spreadMethod="pad" x1="-819.2" x2="819.2">
      <stop offset="0.0" stop-color="#242424"/>
      <stop offset="1.0" stop-color="#505050"/>
    </linearGradient>
  </defs>
</svg>
