<?xml version="1.0" encoding="UTF-8" standalone="no"?>
<svg xmlns:ffdec="https://www.free-decompiler.com/flash" xmlns:xlink="http://www.w3.org/1999/xlink" ffdec:objectType="shape" height="43.4px" width="90.0px" xmlns="http://www.w3.org/2000/svg">
  <g transform="matrix(1.0, 0.0, 0.0, 1.0, -5.15, -2.4)">
    <path d="M94.25 8.75 L94.25 39.55 Q94.25 41.75 93.0 43.25 91.75 44.75 90.05 44.75 L10.2 44.75 Q8.5 44.75 7.3 43.25 6.05 41.75 6.05 39.55 L6.05 8.75 Q6.05 6.65 7.3 5.1 8.5 3.55 10.2 3.55 L90.05 3.55 Q91.75 3.55 93.0 5.1 94.25 6.65 94.25 8.75" fill="#020d26" fill-rule="evenodd" stroke="none"/>
    <path d="M90.05 2.9 Q92.0 2.9 93.4 4.6 94.8 6.35 94.8 8.75 L94.8 39.55 Q94.8 42.0 93.4 43.7 92.0 45.4 90.05 45.4 L10.2 45.4 Q8.25 45.4 6.9 43.7 5.5 42.0 5.5 39.55 L5.5 8.75 Q5.5 6.35 6.9 4.6 8.25 2.9 10.2 2.9 L90.05 2.9 M93.7 8.75 Q93.7 6.9 92.65 5.55 91.55 4.25 90.05 4.25 L10.2 4.25 Q8.75 4.25 7.65 5.55 6.6 6.9 6.6 8.75 L6.6 39.55 Q6.6 41.4 7.65 42.75 8.75 44.05 10.2 44.05 L90.05 44.05 Q91.55 44.05 92.65 42.75 93.7 41.4 93.7 39.55 L93.7 8.75" fill="#1c4b84" fill-rule="evenodd" stroke="none"/>
    <path d="M90.55 11.1 L90.55 37.0 Q90.55 38.45 89.75 39.4 89.0 40.4 87.85 40.4 L12.4 40.4 Q11.25 40.4 10.45 39.4 9.65 38.4 9.65 37.0 L9.65 11.1 Q9.65 9.7 10.45 8.7 11.25 7.7 12.4 7.7 L87.85 7.7 Q89.0 7.7 89.75 8.7 90.55 9.7 90.55 11.1" fill="url(#gradient0)" fill-rule="evenodd" stroke="none"/>
    <path d="M87.85 7.05 Q89.2 7.05 90.15 8.2 91.1 9.4 91.1 11.1 L91.1 37.0 Q91.1 38.7 90.15 39.9 89.2 41.05 87.85 41.05 L12.4 41.05 Q11.05 41.05 10.05 39.9 9.15 38.7 9.15 37.0 L9.15 11.1 Q9.15 9.4 10.05 8.2 11.05 7.05 12.4 7.05 L87.85 7.05 M90.0 11.1 Q90.0 9.95 89.35 9.2 88.75 8.4 87.85 8.4 L12.4 8.4 Q11.5 8.4 10.85 9.2 10.2 9.95 10.2 11.1 L10.2 37.0 Q10.2 38.15 10.85 38.9 11.5 39.7 12.4 39.7 L87.85 39.7 Q88.75 39.7 89.35 38.9 90.0 38.15 90.0 37.0 L90.0 11.1" fill="#57ccef" fill-rule="evenodd" stroke="none"/>
    <path d="M86.25 11.4 L14.0 36.95 Q13.1 37.25 12.5 36.7 11.9 36.15 11.9 35.0 L11.9 13.4 Q11.9 12.25 12.55 11.5 13.15 10.7 14.05 10.7 L86.15 10.7 87.1 10.9 86.25 11.4" fill="url(#gradient1)" fill-rule="evenodd" stroke="none"/>
    <path d="M6.55 7.5 L6.55 13.05 5.15 13.05 5.15 6.4 8.75 2.4 13.75 2.4 13.75 4.15 9.35 4.15 6.55 7.5" fill="#69bfff" fill-rule="evenodd" stroke="none"/>
    <path d="M6.55 40.75 L9.35 44.05 13.75 44.05 13.75 45.8 8.75 45.8 5.15 41.8 5.15 35.15 6.55 35.15 6.55 40.75" fill="#69bfff" fill-rule="evenodd" stroke="none"/>
    <path d="M93.75 7.5 L91.0 4.15 86.55 4.15 86.55 2.4 91.6 2.4 95.15 6.4 95.15 13.05 93.75 13.05 93.75 7.5" fill="#69bfff" fill-rule="evenodd" stroke="none"/>
    <path d="M93.75 40.75 L93.75 35.15 95.15 35.15 95.15 41.8 91.6 45.8 86.55 45.8 86.55 44.05 91.0 44.05 93.75 40.75" fill="#69bfff" fill-rule="evenodd" stroke="none"/>
  </g>
  <defs>
    <radialGradient cx="0" cy="0" gradientTransform="matrix(0.0704, 0.0, 0.0, -0.0218, 51.05, 36.45)" gradientUnits="userSpaceOnUse" id="gradient0" r="819.2" spreadMethod="pad">
      <stop offset="0.0" stop-color="#33b5bf"/>
      <stop offset="0.14901960784313725" stop-color="#32afc3"/>
      <stop offset="0.34901960784313724" stop-color="#309ece"/>
      <stop offset="0.5764705882352941" stop-color="#2c82e1"/>
      <stop offset="0.7411764705882353" stop-color="#2969f2"/>
      <stop offset="0.7568627450980392" stop-color="#2767ee"/>
      <stop offset="0.9137254901960784" stop-color="#1459ce"/>
      <stop offset="1.0" stop-color="#0d54c2"/>
    </radialGradient>
    <linearGradient gradientTransform="matrix(0.0064, 0.0195, 0.0131, -0.0065, 45.45, 12.95)" gradientUnits="userSpaceOnUse" id="gradient1" spreadMethod="pad" x1="-819.2" x2="819.2">
      <stop offset="0.0" stop-color="#c2c2b3"/>
      <stop offset="0.043137254901960784" stop-color="#9b9fa2" stop-opacity="0.8"/>
      <stop offset="0.09411764705882353" stop-color="#777e92" stop-opacity="0.6117647"/>
      <stop offset="0.14901960784313725" stop-color="#576184" stop-opacity="0.44313726"/>
      <stop offset="0.21176470588235294" stop-color="#3b4878" stop-opacity="0.30588236"/>
      <stop offset="0.2823529411764706" stop-color="#25346e" stop-opacity="0.19215687"/>
      <stop offset="0.36470588235294116" stop-color="#142567" stop-opacity="0.101960786"/>
      <stop offset="0.4627450980392157" stop-color="#091a62" stop-opacity="0.043137256"/>
      <stop offset="0.6078431372549019" stop-color="#02145f" stop-opacity="0.007843138"/>
      <stop offset="1.0" stop-color="#00125e" stop-opacity="0.0"/>
    </linearGradient>
  </defs>
</svg>
