<?xml version="1.0" encoding="UTF-8" standalone="no"?>
<svg xmlns:ffdec="https://www.free-decompiler.com/flash" xmlns:xlink="http://www.w3.org/1999/xlink" ffdec:objectType="shape" height="48.15px" width="100.0px" xmlns="http://www.w3.org/2000/svg">
  <g transform="matrix(1.0, 0.0, 0.0, 1.0, -2.35, 0.0)">
    <path d="M101.35 7.05 L101.35 41.25 Q101.35 43.65 99.95 45.35 98.6 47.0 96.7 47.0 L8.0 47.0 Q6.1 47.0 4.75 45.35 3.35 43.65 3.35 41.25 L3.35 7.05 Q3.35 4.65 4.75 3.0 6.1 1.3 8.0 1.3 L96.7 1.3 Q98.6 1.3 99.95 3.0 101.35 4.65 101.35 7.05" fill="#352502" fill-rule="evenodd" stroke="none"/>
    <path d="M96.7 0.55 Q98.9 0.55 100.4 2.45 101.95 4.35 101.95 7.05 L101.95 41.25 Q101.95 43.95 100.4 45.85 98.9 47.75 96.7 47.75 L8.0 47.75 Q5.8 47.75 4.3 45.85 2.75 43.95 2.75 41.25 L2.75 7.05 Q2.75 4.35 4.3 2.45 5.8 0.55 8.0 0.55 L96.7 0.55 M100.75 7.05 Q100.75 5.0 99.55 3.5 98.35 2.05 96.7 2.05 L8.0 2.05 Q6.35 2.05 5.15 3.5 3.95 5.0 3.95 7.05 L3.95 41.25 Q3.95 43.3 5.15 44.8 6.35 46.25 8.0 46.25 L96.7 46.25 Q98.35 46.25 99.55 44.8 100.75 43.3 100.75 41.25 L100.75 7.05" fill="#5b4002" fill-rule="evenodd" stroke="none"/>
    <path d="M97.3 9.6 L97.3 38.45 Q97.3 40.0 96.45 41.1 95.55 42.2 94.3 42.2 L10.4 42.2 Q9.15 42.2 8.3 41.1 7.4 40.0 7.4 38.45 L7.4 9.6 Q7.4 8.05 8.3 6.95 9.15 5.85 10.4 5.85 L94.3 5.85 Q95.55 5.85 96.45 6.95 97.3 8.05 97.3 9.6" fill="url(#gradient0)" fill-rule="evenodd" stroke="none"/>
    <path d="M94.3 5.1 Q95.8 5.1 96.85 6.4 97.9 7.75 97.9 9.6 L97.9 38.45 Q97.9 40.3 96.85 41.6 95.8 42.95 94.3 42.95 L10.4 42.95 Q8.9 42.95 7.85 41.6 6.8 40.3 6.8 38.45 L6.8 9.6 Q6.8 7.75 7.85 6.4 8.9 5.1 10.4 5.1 L94.3 5.1 M96.7 9.6 Q96.7 8.35 96.0 7.5 95.3 6.6 94.3 6.6 L10.4 6.6 Q9.4 6.6 8.7 7.5 8.0 8.35 8.0 9.6 L8.0 38.45 Q8.0 39.7 8.7 40.55 9.4 41.45 10.4 41.45 L94.3 41.45 Q95.3 41.45 96.0 40.55 96.7 39.7 96.7 38.45 L96.7 9.6" fill="#d1884b" fill-rule="evenodd" stroke="none"/>
    <path d="M92.5 9.95 L12.2 38.35 Q11.25 38.7 10.6 38.05 9.9 37.45 9.9 36.2 L9.9 12.15 Q9.9 10.9 10.6 10.05 11.3 9.15 12.3 9.15 L92.4 9.15 93.45 9.4 92.5 9.95" fill="url(#gradient1)" fill-rule="evenodd" stroke="none"/>
    <path d="M3.9 5.6 L3.9 11.8 2.35 11.8 2.35 4.4 6.35 0.0 11.9 0.0 11.9 1.9 7.0 1.9 3.9 5.6" fill="#f7b141" fill-rule="evenodd" stroke="none"/>
    <path d="M3.9 42.55 L7.0 46.25 11.9 46.25 11.9 48.15 6.35 48.15 2.35 43.75 2.35 36.35 3.9 36.35 3.9 42.55" fill="#f7b141" fill-rule="evenodd" stroke="none"/>
    <path d="M100.8 5.6 L97.7 1.9 92.8 1.9 92.8 0.0 98.35 0.0 102.35 4.4 102.35 11.8 100.8 11.8 100.8 5.6" fill="#f7b141" fill-rule="evenodd" stroke="none"/>
    <path d="M100.8 42.55 L100.8 36.35 102.35 36.35 102.35 43.75 98.35 48.15 92.8 48.15 92.8 46.25 97.7 46.25 100.8 42.55" fill="#f7b141" fill-rule="evenodd" stroke="none"/>
  </g>
  <defs>
    <radialGradient cx="0" cy="0" gradientTransform="matrix(0.0782, 0.0, 0.0, -0.0242, 53.35, 37.8)" gradientUnits="userSpaceOnUse" id="gradient0" r="819.2" spreadMethod="pad">
      <stop offset="0.0" stop-color="#a66803"/>
      <stop offset="0.5137254901960784" stop-color="#732e00"/>
      <stop offset="0.6627450980392157" stop-color="#592204"/>
      <stop offset="0.8784313725490196" stop-color="#39140a"/>
      <stop offset="1.0" stop-color="#2d0e0c"/>
    </radialGradient>
    <linearGradient gradientTransform="matrix(0.0071, 0.0217, 0.0145, -0.0073, 47.15, 11.65)" gradientUnits="userSpaceOnUse" id="gradient1" spreadMethod="pad" x1="-819.2" x2="819.2">
      <stop offset="0.0" stop-color="#c2c2b3"/>
      <stop offset="0.023529411764705882" stop-color="#b8ad9f" stop-opacity="0.8784314"/>
      <stop offset="0.07450980392156863" stop-color="#a7897c" stop-opacity="0.6745098"/>
      <stop offset="0.13333333333333333" stop-color="#98695c" stop-opacity="0.49019608"/>
      <stop offset="0.19607843137254902" stop-color="#8c4d42" stop-opacity="0.3372549"/>
      <stop offset="0.26666666666666666" stop-color="#81372c" stop-opacity="0.21176471"/>
      <stop offset="0.34901960784313724" stop-color="#7a261c" stop-opacity="0.11372549"/>
      <stop offset="0.4549019607843137" stop-color="#741b10" stop-opacity="0.047058824"/>
      <stop offset="0.6" stop-color="#71140a" stop-opacity="0.007843138"/>
      <stop offset="1.0" stop-color="#701208" stop-opacity="0.0"/>
    </linearGradient>
  </defs>
</svg>
