<?xml version="1.0" encoding="UTF-8" standalone="no"?>
<svg xmlns:ffdec="https://www.free-decompiler.com/flash" xmlns:xlink="http://www.w3.org/1999/xlink" ffdec:objectType="shape" height="22.4px" width="97.3px" xmlns="http://www.w3.org/2000/svg">
  <g transform="matrix(1.0, 0.0, 0.0, 1.0, -4.15, -1.4)">
    <path d="M83.1 3.25 Q85.55 4.3 87.0 5.8 L99.65 19.35 Q101.1 20.9 100.6 21.95 100.15 23.05 98.1 23.05 L23.95 23.05 Q21.9 23.05 19.55 21.9 17.2 20.7 15.95 19.05 L6.2 6.15 Q4.95 4.5 5.55 3.35 6.15 2.15 8.2 2.15 L78.6 2.15 Q80.65 2.15 83.1 3.25" fill="url(#gradient0)" fill-rule="evenodd" stroke="none"/>
    <path d="M78.55 2.15 L8.15 2.15 Q6.1 2.15 5.5 3.35 4.9 4.5 6.15 6.15 L15.9 19.05 Q17.15 20.7 19.5 21.9 21.85 23.05 23.9 23.05 L98.05 23.05 Q100.1 23.05 100.55 21.95 101.05 20.9 99.6 19.35 L86.95 5.8 Q85.5 4.3 83.05 3.25 80.6 2.15 78.55 2.15 Z" fill="none" stroke="#0376ff" stroke-linecap="butt" stroke-linejoin="miter-clip" stroke-miterlimit="4.0" stroke-width="1.5"/>
  </g>
  <defs>
    <linearGradient gradientTransform="matrix(0.0, -0.0168, -0.0107, 0.0, 40.6, 14.75)" gradientUnits="userSpaceOnUse" id="gradient0" spreadMethod="pad" x1="-819.2" x2="819.2">
      <stop offset="0.0" stop-color="#004bc2"/>
      <stop offset="0.7647058823529411" stop-color="#003498"/>
      <stop offset="1.0" stop-color="#0057d9"/>
    </linearGradient>
  </defs>
</svg>
