<?xml version="1.0" encoding="UTF-8" standalone="no"?>
<svg xmlns:ffdec="https://www.free-decompiler.com/flash" xmlns:xlink="http://www.w3.org/1999/xlink" ffdec:objectType="shape" height="20.3px" width="87.65px" xmlns="http://www.w3.org/2000/svg">
  <g transform="matrix(1.0, 0.0, 0.0, 1.0, -9.4, -2.45)">
    <path d="M80.15 4.15 Q82.35 5.1 83.65 6.45 L95.05 18.65 Q96.35 20.05 95.9 21.0 95.5 22.0 93.65 22.0 L26.9 22.0 Q25.05 22.0 22.95 20.95 20.85 19.9 19.7 18.4 L10.95 6.8 Q9.8 5.3 10.35 4.25 10.9 3.2 12.75 3.2 L76.1 3.2 Q77.95 3.2 80.15 4.15" fill="url(#gradient0)" fill-rule="evenodd" stroke="none"/>
    <path d="M76.05 3.2 L12.7 3.2 Q10.85 3.2 10.35 4.25 9.8 5.3 10.9 6.8 L19.7 18.4 Q20.8 19.9 22.95 20.95 25.05 22.0 26.9 22.0 L93.6 22.0 Q95.45 22.0 95.85 21.0 96.3 20.05 95.0 18.65 L83.65 6.5 Q82.35 5.15 80.1 4.2 77.9 3.2 76.05 3.2 Z" fill="none" stroke="#0376ff" stroke-linecap="butt" stroke-linejoin="miter-clip" stroke-miterlimit="4.0" stroke-width="1.5"/>
  </g>
  <defs>
    <linearGradient gradientTransform="matrix(0.0, -0.0151, -0.0096, 0.0, 41.9, 14.5)" gradientUnits="userSpaceOnUse" id="gradient0" spreadMethod="pad" x1="-819.2" x2="819.2">
      <stop offset="0.0" stop-color="#004bc2"/>
      <stop offset="0.7647058823529411" stop-color="#003498"/>
      <stop offset="1.0" stop-color="#0057d9"/>
    </linearGradient>
  </defs>
</svg>
