<?xml version="1.0" encoding="UTF-8" standalone="no"?>
<svg xmlns:ffdec="https://www.free-decompiler.com/flash" xmlns:xlink="http://www.w3.org/1999/xlink" ffdec:objectType="shape" height="24.1px" width="86.45px" xmlns="http://www.w3.org/2000/svg">
  <g transform="matrix(1.0, 0.0, 0.0, 1.0, 1.0, 1.0)">
    <path d="M83.45 18.35 Q84.8 19.85 84.3 20.95 83.75 22.1 81.75 22.1 L18.5 22.1 Q16.5 22.1 14.2 20.9 11.9 19.7 10.75 18.05 L0.8 4.05 Q-0.4 2.35 0.2 1.15 0.85 0.0 2.9 0.0 L62.85 0.0 Q64.85 0.0 67.3 1.05 69.65 2.2 71.0 3.75 L83.45 18.35" fill="url(#gradient0)" fill-rule="evenodd" stroke="none"/>
    <path d="M62.85 0.0 L2.9 0.0 Q0.85 0.0 0.2 1.15 -0.4 2.35 0.8 4.05 L10.75 18.05 Q11.9 19.7 14.2 20.9 16.5 22.1 18.5 22.1 L81.75 22.1 Q83.75 22.1 84.3 20.95 84.8 19.85 83.45 18.35 L71.0 3.75 Q69.65 2.2 67.3 1.05 64.85 0.0 62.85 0.0 Z" fill="none" stroke="#0376ff" stroke-linecap="butt" stroke-linejoin="miter-clip" stroke-miterlimit="4.0" stroke-width="2.0"/>
    <path d="M49.45 11.05 L43.25 17.5 41.5 14.75 42.15 11.1 36.8 7.55 34.95 4.65 49.45 11.05" fill="#03d0ff" fill-rule="evenodd" stroke="none"/>
  </g>
  <defs>
    <linearGradient gradientTransform="matrix(0.0, -0.0118, 0.0084, 0.0, 59.85, 11.85)" gradientUnits="userSpaceOnUse" id="gradient0" spreadMethod="pad" x1="-819.2" x2="819.2">
      <stop offset="0.00392156862745098" stop-color="#0d4f94"/>
      <stop offset="1.0" stop-color="#005cff"/>
    </linearGradient>
  </defs>
</svg>
