<?xml version="1.0" encoding="UTF-8" standalone="no"?>
<svg xmlns:ffdec="https://www.free-decompiler.com/flash" xmlns:xlink="http://www.w3.org/1999/xlink" ffdec:objectType="shape" height="74.85px" width="199.85px" xmlns="http://www.w3.org/2000/svg">
  <g transform="matrix(1.0, 0.0, 0.0, 1.0, 1.0, 1.0)">
    <path d="M178.0 0.0 L180.75 0.6 Q182.3 1.2 183.2 2.0 L195.6 13.5 Q196.55 14.35 197.2 15.85 197.85 17.3 197.85 18.55 L197.85 59.0 Q197.85 60.25 197.2 61.75 196.55 63.25 195.65 64.05 L188.75 70.55 186.3 72.0 183.55 72.6 146.35 72.6 Q145.1 72.6 143.7 72.0 142.3 71.45 141.55 70.6 140.85 69.8 139.4 69.2 138.0 68.6 136.75 68.6 L71.85 68.6 Q70.6 68.6 69.2 69.2 67.75 69.8 66.95 70.6 L64.75 72.0 Q63.3 72.6 62.05 72.6 L12.95 72.6 Q11.7 72.6 10.2 72.0 8.65 71.45 7.7 70.6 L2.25 65.7 Q1.3 64.9 0.65 63.4 0.0 61.95 0.0 60.7 L0.0 6.5 Q0.0 5.25 0.55 3.85 1.05 2.45 1.8 1.75 2.5 1.05 3.9 0.5 5.3 0.0 6.55 0.0 L178.0 0.0" fill="url(#gradient0)" fill-rule="evenodd" stroke="none"/>
    <path d="M178.0 0.0 L6.55 0.0 Q5.3 0.0 3.9 0.5 2.5 1.05 1.8 1.75 1.05 2.45 0.55 3.85 0.0 5.25 0.0 6.5 L0.0 60.7 Q0.0 61.95 0.65 63.4 1.3 64.9 2.25 65.7 L7.7 70.6 Q8.65 71.45 10.2 72.0 11.7 72.6 12.95 72.6 L62.05 72.6 Q63.3 72.6 64.75 72.0 L66.95 70.6 Q67.75 69.8 69.2 69.2 70.6 68.6 71.85 68.6 L136.75 68.6 Q138.0 68.6 139.4 69.2 140.85 69.8 141.55 70.6 142.3 71.45 143.7 72.0 145.1 72.6 146.35 72.6 L183.55 72.6 186.3 72.0 188.75 70.55 195.65 64.05 Q196.55 63.25 197.2 61.75 197.85 60.25 197.85 59.0 L197.85 18.55 Q197.85 17.3 197.2 15.85 196.55 14.35 195.6 13.5 L183.2 2.0 Q182.3 1.2 180.75 0.6 L178.0 0.0 Z" fill="none" stroke="#33961c" stroke-linecap="butt" stroke-linejoin="miter-clip" stroke-miterlimit="4.0" stroke-width="2.0"/>
    <path d="M193.0 20.8 L193.0 54.0 Q193.0 55.25 192.35 56.75 191.7 58.25 190.8 59.05 L186.5 63.15 184.05 64.6 Q182.55 65.2 181.3 65.2 L14.65 65.2 Q13.4 65.2 12.55 64.3 11.65 63.45 11.65 62.2 L11.65 30.9 Q11.65 29.65 11.1 28.1 10.5 26.55 9.7 25.6 L7.6 23.15 Q6.8 22.2 6.2 20.65 5.65 19.1 5.65 17.85 L5.65 9.4 Q5.65 8.15 6.55 7.3 7.4 6.4 8.65 6.4 L140.0 6.4 142.7 6.9 Q144.2 7.4 145.05 8.1 145.9 8.8 147.4 9.25 L150.1 9.75 168.75 9.75 Q170.0 9.75 171.55 10.35 173.05 10.95 174.0 11.75 L178.55 15.8 Q179.5 16.65 181.05 17.2 182.55 17.8 183.8 17.8 L190.05 17.8 Q191.25 17.8 192.1 18.7 193.0 19.55 193.0 20.8" fill="#16191c" fill-rule="evenodd" stroke="none"/>
    <path d="M191.35 14.8 L185.8 14.8 175.45 6.15 148.45 6.15 145.8 4.5 179.1 4.5 191.35 14.8" fill="#004ad1" fill-rule="evenodd" stroke="none"/>
    <path d="M42.05 6.95 L43.05 6.65 45.15 6.45 61.5 6.45 Q62.55 6.45 63.3 7.2 64.0 7.95 64.0 8.95 L64.0 25.35 Q64.0 27.95 63.5 28.45 62.6 29.1 62.6 32.35 L62.6 38.9 62.7 40.65 Q62.95 42.4 63.55 42.8 64.0 43.25 64.0 45.85 L64.0 62.1 Q64.0 63.15 63.3 63.9 62.55 64.6 61.5 64.6 L45.15 64.6 Q42.55 64.6 42.05 64.1 41.65 63.55 39.95 63.3 L38.15 63.2 31.65 63.2 Q28.4 63.2 27.7 64.1 27.35 64.6 24.6 64.6 L8.35 64.6 Q7.35 64.6 6.6 63.9 5.85 63.15 5.85 62.1 L5.85 45.8 Q5.85 43.4 6.35 42.75 7.2 42.15 7.2 38.9 L7.2 32.35 Q7.2 29.1 6.35 28.5 5.85 27.85 5.85 25.4 L5.85 8.95 Q5.85 7.95 6.6 7.2 7.35 6.45 8.35 6.45 L24.6 6.45 26.75 6.65 27.7 7.0 Q28.4 7.9 31.65 7.9 L38.15 7.9 Q41.45 7.9 42.05 6.95" fill="#191919" fill-rule="evenodd" stroke="none"/>
    <path d="M27.4 7.35 L24.6 6.95 8.35 6.95 Q7.55 6.95 6.95 7.55 6.35 8.15 6.35 8.95 L6.35 25.4 Q6.35 27.5 6.75 28.15 7.7 29.05 7.7 32.35 L7.7 38.9 Q7.7 42.15 6.75 43.05 6.35 43.85 6.35 45.8 L6.35 62.1 Q6.35 62.95 6.95 63.5 7.55 64.1 8.35 64.1 L24.6 64.1 27.4 63.7 Q28.3 62.7 31.65 62.7 L38.15 62.7 Q41.5 62.7 42.4 63.75 L45.15 64.1 61.5 64.1 Q62.35 64.1 62.95 63.5 63.5 62.95 63.5 62.1 L63.5 45.85 Q63.5 43.8 63.15 43.1 62.1 42.2 62.1 38.9 L62.1 32.35 Q62.1 29.05 63.15 28.1 63.5 27.25 63.5 25.35 L63.5 8.95 Q63.5 8.1 62.95 7.55 62.35 6.95 61.5 6.95 L45.15 6.95 42.4 7.35 Q41.45 8.4 38.15 8.4 L31.65 8.4 Q28.3 8.4 27.4 7.35 M29.35 7.2 L31.65 7.4 38.15 7.4 40.45 7.2 Q41.45 6.95 41.65 6.7 41.85 6.4 42.85 6.2 L45.15 5.95 61.5 5.95 Q62.75 5.95 63.6 6.85 64.5 7.7 64.5 8.95 L64.5 25.35 Q64.5 28.35 63.8 28.85 63.1 29.4 63.1 32.35 L63.1 38.9 Q63.1 41.9 63.8 42.4 64.5 42.85 64.5 45.85 L64.5 62.1 Q64.5 63.35 63.6 64.2 62.75 65.1 61.5 65.1 L45.15 65.1 Q42.1 65.1 41.65 64.4 41.45 64.1 40.45 63.9 L38.15 63.7 31.65 63.7 29.35 63.9 Q28.3 64.1 28.1 64.4 27.9 64.7 26.9 64.9 L24.6 65.1 8.35 65.1 Q7.1 65.1 6.25 64.2 5.35 63.35 5.35 62.1 L5.35 45.8 Q5.35 42.8 6.05 42.35 6.7 41.9 6.7 38.9 L6.7 32.35 Q6.7 29.35 6.05 28.9 5.35 28.4 5.35 25.4 L5.35 8.95 Q5.35 7.7 6.25 6.85 7.1 5.95 8.35 5.95 L24.6 5.95 26.9 6.2 Q27.9 6.4 28.1 6.7 28.35 6.95 29.35 7.2" fill="#111010" fill-rule="evenodd" stroke="none"/>
    <path d="M57.4 13.0 L57.4 57.95 12.5 57.95 12.5 13.0 57.4 13.0" fill="#232323" fill-rule="evenodd" stroke="none"/>
    <path d="M56.9 13.5 L13.0 13.5 13.0 57.45 56.9 57.45 56.9 13.5 M12.0 12.5 L57.9 12.5 57.9 58.45 12.0 58.45 12.0 12.5" fill="#545453" fill-rule="evenodd" stroke="none"/>
    <path d="M10.15 12.45 L10.15 17.25 8.4 17.25 8.4 11.3 10.55 9.15 16.5 9.15 16.5 10.8 11.8 10.8 10.15 12.45" fill="#757782" fill-rule="evenodd" stroke="none"/>
    <path d="M59.75 12.45 L58.05 10.8 53.4 10.8 53.4 9.15 59.35 9.15 61.5 11.3 61.5 17.25 59.75 17.25 59.75 12.45" fill="#757782" fill-rule="evenodd" stroke="none"/>
    <path d="M10.15 58.8 L11.8 60.45 16.5 60.45 16.5 62.1 10.55 62.1 8.4 59.95 8.4 53.95 10.15 53.95 10.15 58.8" fill="#757782" fill-rule="evenodd" stroke="none"/>
    <path d="M59.75 58.8 L59.75 53.95 61.5 53.95 61.5 59.95 59.35 62.1 53.4 62.1 53.4 60.45 58.05 60.45 59.75 58.8" fill="#757782" fill-rule="evenodd" stroke="none"/>
    <path d="M56.8 56.3 L55.8 57.25 51.65 53.1 52.65 52.1 56.8 56.3" fill="#666668" fill-rule="evenodd" stroke="none"/>
    <path d="M17.35 52.1 L18.35 53.1 14.2 57.25 13.2 56.3 17.35 52.1" fill="#666668" fill-rule="evenodd" stroke="none"/>
    <path d="M56.8 14.6 L52.65 18.75 51.65 17.8 55.8 13.6 56.8 14.6" fill="#666668" fill-rule="evenodd" stroke="none"/>
    <path d="M17.35 18.75 L13.2 14.6 14.2 13.6 18.35 17.8 17.35 18.75" fill="#666668" fill-rule="evenodd" stroke="none"/>
    <path d="M39.9 16.3 L54.25 16.3 54.25 30.05 53.25 32.75 53.25 37.6 54.25 40.3 54.25 54.65 39.9 54.65 37.25 53.65 32.35 53.65 29.65 54.65 15.9 54.65 15.9 40.2 16.9 37.45 16.9 32.7 15.9 29.95 15.9 16.3 29.65 16.3 32.35 17.3 37.25 17.3 39.9 16.3" fill="#161616" fill-rule="evenodd" stroke="none"/>
    <path d="M39.9 16.3 L54.25 16.3 54.25 30.05 53.25 32.75 53.25 37.6 54.25 40.3 54.25 54.65 39.9 54.65 37.25 53.65 32.35 53.65 29.65 54.65 15.9 54.65 15.9 40.2 16.9 37.45 16.9 32.7 15.9 29.95 15.9 16.3 29.65 16.3 32.35 17.3 37.25 17.3 39.9 16.3 Z" fill="none" stroke="#0c0c0c" stroke-linecap="butt" stroke-linejoin="miter-clip" stroke-miterlimit="4.0" stroke-width="1.0"/>
    <path d="M73.6 73.85 Q72.35 73.85 72.0 73.35 71.6 72.85 72.3 72.15 73.0 71.45 74.4 70.95 75.75 70.45 77.0 70.45 L130.7 70.45 133.3 70.95 Q134.7 71.45 135.4 72.15 136.1 72.85 135.75 73.35 135.35 73.85 134.1 73.85 L73.6 73.85" fill="url(#gradient1)" fill-rule="evenodd" stroke="none"/>
  </g>
  <defs>
    <linearGradient gradientTransform="matrix(0.0, -0.0443, -0.0443, 0.0, 98.95, 36.3)" gradientUnits="userSpaceOnUse" id="gradient0" spreadMethod="pad" x1="-819.2" x2="819.2">
      <stop offset="0.0" stop-color="#2b2f35"/>
      <stop offset="0.5882352941176471" stop-color="#4b4e58"/>
      <stop offset="0.9803921568627451" stop-color="#626571"/>
      <stop offset="1.0" stop-color="#666875"/>
    </linearGradient>
    <linearGradient gradientTransform="matrix(0.039, 0.0, 0.0, -0.039, 103.85, 72.15)" gradientUnits="userSpaceOnUse" id="gradient1" spreadMethod="pad" x1="-819.2" x2="819.2">
      <stop offset="0.0" stop-color="#260000"/>
      <stop offset="0.06666666666666667" stop-color="#300000"/>
      <stop offset="0.5176470588235295" stop-color="#700300"/>
      <stop offset="0.8823529411764706" stop-color="#390100"/>
      <stop offset="1.0" stop-color="#260000"/>
    </linearGradient>
  </defs>
</svg>
