<?xml version="1.0" encoding="UTF-8" standalone="no"?>
<svg xmlns:ffdec="https://www.free-decompiler.com/flash" xmlns:xlink="http://www.w3.org/1999/xlink" ffdec:objectType="shape" height="25.5px" width="72.5px" xmlns="http://www.w3.org/2000/svg">
  <g transform="matrix(1.0, 0.0, 0.0, 1.0, -125.1, 1.0)">
    <path d="M170.45 -1.0 L186.2 4.0 197.6 14.55 197.6 24.5 125.1 -0.9 170.45 -1.0" fill="url(#gradient0)" fill-rule="evenodd" stroke="none"/>
    <path d="M169.35 4.05 L166.85 10.65 165.15 10.0 159.7 2.4 157.95 1.75 158.6 0.0 160.35 0.65 165.85 8.2 167.65 3.4 169.35 4.05 M157.85 7.25 L156.15 6.6 157.65 2.55 159.35 3.2 157.85 7.25" fill="#3d5c00" fill-rule="evenodd" stroke="none"/>
    <path d="M168.7 9.45 L169.6 7.0 180.35 11.0 179.75 12.6 170.75 9.2 170.45 9.95 179.5 13.35 178.8 15.15 170.25 11.9 Q169.35 11.6 168.9 10.85 168.45 10.2 168.7 9.45 M172.7 5.3 L181.3 8.5 180.65 10.25 169.9 6.25 169.95 6.15 Q170.2 5.4 171.0 5.2 L172.7 5.3" fill="#3d5c00" fill-rule="evenodd" stroke="none"/>
    <path d="M188.45 11.2 L189.7 17.25 191.5 12.35 193.2 13.0 190.75 19.6 188.3 18.7 187.15 13.05 182.35 16.45 180.0 15.6 182.5 9.0 184.2 9.6 182.4 14.5 187.35 10.8 188.45 11.2" fill="#3d5c00" fill-rule="evenodd" stroke="none"/>
  </g>
  <defs>
    <linearGradient gradientTransform="matrix(0.0, -0.0155, -0.0155, 0.0, 161.35, 11.75)" gradientUnits="userSpaceOnUse" id="gradient0" spreadMethod="pad" x1="-819.2" x2="819.2">
      <stop offset="0.0" stop-color="#83ff00"/>
      <stop offset="0.8941176470588236" stop-color="#8dff00"/>
      <stop offset="1.0" stop-color="#92ff00"/>
    </linearGradient>
  </defs>
</svg>
