<?xml version="1.0" encoding="UTF-8" standalone="no"?>
<svg xmlns:ffdec="https://www.free-decompiler.com/flash" xmlns:xlink="http://www.w3.org/1999/xlink" ffdec:objectType="shape" height="74.85px" width="199.35px" xmlns="http://www.w3.org/2000/svg">
  <g transform="matrix(1.0, 0.0, 0.0, 1.0, 1.0, 1.0)">
    <path d="M177.55 0.0 L180.3 0.6 Q181.8 1.15 182.75 2.0 L195.15 13.5 Q196.1 14.35 196.7 15.85 197.35 17.3 197.35 18.55 L197.35 59.0 Q197.35 60.25 196.75 61.75 196.1 63.25 195.2 64.05 L188.3 70.55 Q187.35 71.4 185.85 72.0 184.35 72.6 183.1 72.6 L146.0 72.6 Q144.75 72.6 143.35 72.0 141.95 71.45 141.2 70.6 140.45 69.8 139.05 69.2 137.65 68.6 136.4 68.6 L71.65 68.6 69.0 69.2 Q67.55 69.8 66.75 70.6 66.0 71.4 64.55 72.0 63.1 72.6 61.85 72.6 L12.9 72.6 Q11.65 72.6 10.2 72.0 8.65 71.45 7.7 70.6 L2.25 65.7 Q1.3 64.9 0.65 63.4 0.0 61.95 0.0 60.7 L0.0 6.5 Q0.0 5.25 0.5 3.85 1.05 2.45 1.75 1.75 2.5 1.05 3.9 0.5 5.3 0.0 6.55 0.0 L177.55 0.0" fill="url(#gradient0)" fill-rule="evenodd" stroke="none"/>
    <path d="M177.55 0.0 L6.55 0.0 Q5.3 0.0 3.9 0.5 2.5 1.05 1.75 1.75 1.05 2.45 0.5 3.85 0.0 5.25 0.0 6.5 L0.0 60.7 Q0.0 61.95 0.65 63.4 1.3 64.9 2.25 65.7 L7.7 70.6 Q8.65 71.45 10.2 72.0 11.65 72.6 12.9 72.6 L61.85 72.6 Q63.1 72.6 64.55 72.0 66.0 71.4 66.75 70.6 67.55 69.8 69.0 69.2 L71.65 68.6 136.4 68.6 Q137.65 68.6 139.05 69.2 140.45 69.8 141.2 70.6 141.95 71.45 143.35 72.0 144.75 72.6 146.0 72.6 L183.1 72.6 Q184.35 72.6 185.85 72.0 187.35 71.4 188.3 70.55 L195.2 64.05 Q196.1 63.25 196.75 61.75 197.35 60.25 197.35 59.0 L197.35 18.55 Q197.35 17.3 196.7 15.85 196.1 14.35 195.15 13.5 L182.75 2.0 Q181.8 1.15 180.3 0.6 L177.55 0.0 Z" fill="none" stroke="#a87d1b" stroke-linecap="butt" stroke-linejoin="miter-clip" stroke-miterlimit="4.0" stroke-width="2.0"/>
    <path d="M149.75 9.75 L168.35 9.75 Q169.6 9.75 171.1 10.35 172.6 10.95 173.55 11.75 L178.1 15.8 Q179.05 16.65 180.6 17.2 182.1 17.8 183.35 17.8 L189.55 17.8 Q190.75 17.8 191.6 18.7 192.5 19.55 192.5 20.8 L192.5 54.0 Q192.5 55.25 191.9 56.75 191.25 58.25 190.35 59.05 L186.05 63.15 Q185.1 64.0 183.6 64.6 182.05 65.2 180.85 65.2 L14.6 65.2 Q13.35 65.2 12.5 64.3 11.6 63.45 11.6 62.2 L11.6 30.9 Q11.6 29.65 11.05 28.1 10.5 26.55 9.7 25.6 L7.55 23.15 Q6.75 22.2 6.2 20.65 5.6 19.1 5.6 17.85 L5.6 9.4 Q5.6 8.15 6.5 7.3 7.35 6.4 8.6 6.4 L139.65 6.4 142.35 6.9 Q143.85 7.4 144.7 8.1 145.55 8.8 147.05 9.25 L149.75 9.75" fill="#16191c" fill-rule="evenodd" stroke="none"/>
    <path d="M148.1 6.15 L145.4 4.5 178.65 4.5 190.9 14.8 185.35 14.8 175.0 6.15 148.1 6.15" fill="#004ad1" fill-rule="evenodd" stroke="none"/>
    <path d="M62.45 32.35 L62.45 38.9 62.55 40.65 Q62.8 42.4 63.35 42.8 63.85 43.2 63.85 45.85 L63.85 62.1 Q63.85 63.15 63.15 63.9 62.4 64.6 61.35 64.6 L45.0 64.6 Q42.45 64.6 41.95 64.1 41.55 63.55 39.85 63.3 L38.05 63.2 31.5 63.2 Q28.35 63.2 27.65 64.1 27.15 64.6 24.55 64.6 L8.35 64.6 Q7.35 64.6 6.6 63.9 5.85 63.15 5.85 62.1 L5.85 45.8 Q5.85 43.25 6.35 42.75 7.2 42.15 7.2 38.9 L7.2 32.35 Q7.2 29.1 6.3 28.5 5.85 27.9 5.85 25.4 L5.85 8.95 Q5.85 7.95 6.6 7.2 7.35 6.45 8.35 6.45 L24.55 6.45 26.65 6.65 27.65 7.0 Q28.35 7.9 31.5 7.9 L38.05 7.9 Q41.35 7.9 41.95 6.95 42.6 6.45 45.0 6.45 L61.35 6.45 Q62.4 6.45 63.15 7.2 63.85 7.95 63.85 8.95 L63.85 25.35 Q63.85 27.95 63.35 28.45 62.45 29.1 62.45 32.35" fill="#191919" fill-rule="evenodd" stroke="none"/>
    <path d="M61.35 5.95 Q62.6 5.95 63.45 6.85 64.35 7.7 64.35 8.95 L64.35 25.35 Q64.35 28.35 63.65 28.85 62.95 29.4 62.95 32.35 L62.95 38.9 Q62.95 41.9 63.65 42.4 64.35 42.85 64.35 45.85 L64.35 62.1 Q64.35 63.35 63.45 64.2 62.6 65.1 61.35 65.1 L45.0 65.1 42.75 64.9 Q41.75 64.7 41.55 64.4 41.35 64.1 40.3 63.9 L38.05 63.7 31.5 63.7 Q28.6 63.7 28.05 64.4 27.55 65.1 24.55 65.1 L8.35 65.1 Q7.1 65.1 6.25 64.2 5.35 63.35 5.35 62.1 L5.35 45.8 Q5.35 42.8 6.05 42.35 6.7 41.9 6.7 38.9 L6.7 32.35 Q6.7 29.35 6.05 28.9 5.35 28.4 5.35 25.4 L5.35 8.95 Q5.35 7.7 6.25 6.85 7.1 5.95 8.35 5.95 L24.55 5.95 Q27.5 5.95 28.05 6.7 28.3 6.95 29.3 7.2 L31.5 7.4 38.05 7.4 40.3 7.2 Q41.3 6.95 41.55 6.7 41.75 6.4 42.75 6.2 L45.0 5.95 61.35 5.95 M63.35 8.95 Q63.35 8.15 62.75 7.55 62.2 6.95 61.35 6.95 L45.0 6.95 42.3 7.35 Q41.35 8.4 38.05 8.4 L31.5 8.4 Q28.25 8.4 27.35 7.35 L24.55 6.95 8.35 6.95 Q7.55 6.95 6.95 7.55 6.35 8.15 6.35 8.95 L6.35 25.4 Q6.35 27.5 6.75 28.15 7.7 29.1 7.7 32.35 L7.7 38.9 Q7.7 42.15 6.7 43.05 6.35 44.1 6.35 45.8 L6.35 62.1 Q6.35 62.95 6.95 63.5 7.55 64.1 8.35 64.1 L24.55 64.1 27.35 63.7 Q28.25 62.7 31.5 62.7 L38.05 62.7 Q41.4 62.7 42.3 63.75 L45.0 64.1 61.35 64.1 Q62.2 64.1 62.75 63.5 63.35 62.95 63.35 62.1 L63.35 45.85 Q63.35 44.15 63.0 43.1 61.95 42.25 61.95 38.9 L61.95 32.35 Q61.95 29.05 62.95 28.1 63.35 27.45 63.35 25.35 L63.35 8.95" fill="#111010" fill-rule="evenodd" stroke="none"/>
    <path d="M57.25 57.95 L12.45 57.95 12.45 13.0 57.25 13.0 57.25 57.95" fill="#232323" fill-rule="evenodd" stroke="none"/>
    <path d="M56.75 57.45 L56.75 13.5 12.95 13.5 12.95 57.45 56.75 57.45 M57.75 12.5 L57.75 58.45 11.95 58.45 11.95 12.5 57.75 12.5" fill="#545453" fill-rule="evenodd" stroke="none"/>
    <path d="M10.15 12.45 L10.15 17.25 8.4 17.25 8.4 11.3 10.55 9.15 16.45 9.15 16.45 10.8 11.75 10.8 10.15 12.45" fill="#757782" fill-rule="evenodd" stroke="none"/>
    <path d="M59.6 12.45 L57.9 10.8 53.25 10.8 53.25 9.15 59.2 9.15 61.35 11.3 61.35 17.25 59.6 17.25 59.6 12.45" fill="#757782" fill-rule="evenodd" stroke="none"/>
    <path d="M10.15 58.8 L11.75 60.45 16.45 60.45 16.45 62.1 10.55 62.1 8.4 59.95 8.4 53.95 10.15 53.95 10.15 58.8" fill="#757782" fill-rule="evenodd" stroke="none"/>
    <path d="M59.6 58.8 L59.6 53.95 61.35 53.95 61.35 59.95 59.2 62.1 53.25 62.1 53.25 60.45 57.9 60.45 59.6 58.8" fill="#757782" fill-rule="evenodd" stroke="none"/>
    <path d="M56.65 56.3 L55.65 57.25 51.5 53.1 52.5 52.1 56.65 56.3" fill="#666668" fill-rule="evenodd" stroke="none"/>
    <path d="M17.3 52.1 L18.3 53.1 14.1 57.25 13.15 56.3 17.3 52.1" fill="#666668" fill-rule="evenodd" stroke="none"/>
    <path d="M56.65 14.6 L52.5 18.75 51.5 17.8 55.65 13.6 56.65 14.6" fill="#666668" fill-rule="evenodd" stroke="none"/>
    <path d="M17.3 18.75 L13.15 14.6 14.1 13.6 18.3 17.8 17.3 18.75" fill="#666668" fill-rule="evenodd" stroke="none"/>
    <path d="M54.05 30.05 L53.05 32.75 53.05 37.6 54.05 40.3 54.05 54.65 39.8 54.65 37.15 53.65 32.25 53.65 29.6 54.65 15.85 54.65 15.85 40.2 16.85 37.45 16.85 32.7 15.85 29.95 15.85 16.3 29.6 16.3 32.25 17.3 37.15 17.3 39.8 16.3 54.05 16.3 54.05 30.05" fill="#161616" fill-rule="evenodd" stroke="none"/>
    <path d="M54.05 30.05 L53.05 32.75 53.05 37.6 54.05 40.3 54.05 54.65 39.8 54.65 37.15 53.65 32.25 53.65 29.6 54.65 15.85 54.65 15.85 40.2 16.85 37.45 16.85 32.7 15.85 29.95 15.85 16.3 29.6 16.3 32.25 17.3 37.15 17.3 39.8 16.3 54.05 16.3 54.05 30.05 Z" fill="none" stroke="#0c0c0c" stroke-linecap="butt" stroke-linejoin="miter-clip" stroke-miterlimit="4.0" stroke-width="1.0"/>
    <path d="M73.4 73.85 Q72.15 73.85 71.8 73.35 71.4 72.85 72.1 72.15 72.8 71.45 74.2 70.95 L76.8 70.45 130.35 70.45 Q131.6 70.45 132.95 70.95 134.35 71.45 135.05 72.15 135.75 72.85 135.4 73.35 135.0 73.85 133.75 73.85 L73.4 73.85" fill="url(#gradient1)" fill-rule="evenodd" stroke="none"/>
  </g>
  <defs>
    <linearGradient gradientTransform="matrix(0.0, -0.0443, -0.0442, 0.0, 98.7, 36.3)" gradientUnits="userSpaceOnUse" id="gradient0" spreadMethod="pad" x1="-819.2" x2="819.2">
      <stop offset="0.0" stop-color="#2b2f35"/>
      <stop offset="0.5882352941176471" stop-color="#4b4e58"/>
      <stop offset="0.9803921568627451" stop-color="#626571"/>
      <stop offset="1.0" stop-color="#666875"/>
    </linearGradient>
    <linearGradient gradientTransform="matrix(0.039, 0.0, 0.0, -0.039, 103.6, 72.15)" gradientUnits="userSpaceOnUse" id="gradient1" spreadMethod="pad" x1="-819.2" x2="819.2">
      <stop offset="0.0" stop-color="#260000"/>
      <stop offset="0.06666666666666667" stop-color="#300000"/>
      <stop offset="0.5176470588235295" stop-color="#700300"/>
      <stop offset="0.8823529411764706" stop-color="#390100"/>
      <stop offset="1.0" stop-color="#260000"/>
    </linearGradient>
  </defs>
</svg>
