<?xml version="1.0" encoding="UTF-8" standalone="no"?>
<svg xmlns:ffdec="https://www.free-decompiler.com/flash" xmlns:xlink="http://www.w3.org/1999/xlink" ffdec:objectType="shape" height="25.5px" width="72.35px" xmlns="http://www.w3.org/2000/svg">
  <g transform="matrix(1.0, 0.0, 0.0, 1.0, -125.0, 0.5)">
    <path d="M170.2 -0.5 L185.95 4.5 197.35 15.05 197.35 25.0 125.0 -0.4 170.2 -0.5" fill="url(#gradient0)" fill-rule="evenodd" stroke="none"/>
    <path d="M159.2 3.7 L166.5 6.45 167.45 3.9 169.15 4.55 166.7 11.15 165.0 10.5 165.9 8.0 158.6 5.25 157.65 7.75 155.95 7.1 158.45 0.5 160.15 1.15 159.2 3.7" fill="#894603" fill-rule="evenodd" stroke="none"/>
    <path d="M172.5 5.8 L178.9 8.2 Q179.8 8.6 180.25 9.3 180.7 9.95 180.45 10.7 L179.2 14.0 Q179.0 14.65 178.15 14.9 L176.45 14.85 170.0 12.4 168.7 11.35 Q168.25 10.7 168.5 9.95 L169.7 6.65 Q170.05 5.9 170.8 5.7 L172.5 5.8 M171.65 11.0 L176.1 12.65 177.25 12.75 177.9 12.25 178.4 11.0 178.15 10.2 Q177.85 9.85 177.25 9.6 L172.8 7.9 171.7 7.8 Q171.2 7.95 171.05 8.25 L170.55 9.55 Q170.45 9.95 170.75 10.35 L171.65 11.0" fill="#894603" fill-rule="evenodd" stroke="none"/>
    <path d="M182.3 9.5 L192.95 13.5 192.3 15.25 187.8 13.55 186.0 18.4 184.25 17.75 186.1 12.9 181.6 11.25 182.3 9.5" fill="#894603" fill-rule="evenodd" stroke="none"/>
  </g>
  <defs>
    <linearGradient gradientTransform="matrix(0.0, -0.0155, -0.0155, 0.0, 161.2, 12.25)" gradientUnits="userSpaceOnUse" id="gradient0" spreadMethod="pad" x1="-819.2" x2="819.2">
      <stop offset="0.0" stop-color="#d98500"/>
      <stop offset="0.8941176470588236" stop-color="#ebcc00"/>
      <stop offset="1.0" stop-color="#e89600"/>
    </linearGradient>
  </defs>
</svg>
