<?xml version="1.0" encoding="UTF-8" standalone="no"?>
<svg xmlns:ffdec="https://www.free-decompiler.com/flash" xmlns:xlink="http://www.w3.org/1999/xlink" ffdec:objectType="shape" height="74.85px" width="199.35px" xmlns="http://www.w3.org/2000/svg">
  <g transform="matrix(1.0, 0.0, 0.0, 1.0, 1.0, 1.0)">
    <path d="M177.55 0.0 L180.3 0.6 Q181.8 1.2 182.75 2.05 L195.15 13.55 Q196.1 14.35 196.7 15.85 197.35 17.3 197.35 18.55 L197.35 59.05 Q197.35 60.3 196.75 61.75 L195.2 64.1 188.3 70.6 Q187.35 71.45 185.85 72.05 L183.1 72.65 146.0 72.65 Q144.8 72.65 143.35 72.05 141.95 71.45 141.2 70.6 140.45 69.8 139.05 69.2 137.65 68.6 136.4 68.6 L71.65 68.6 69.0 69.2 Q67.55 69.8 66.75 70.6 66.0 71.45 64.55 72.05 63.1 72.65 61.85 72.65 L12.9 72.65 Q11.7 72.65 10.2 72.05 8.65 71.45 7.7 70.6 L2.25 65.7 Q1.3 64.9 0.65 63.4 0.0 61.95 0.0 60.7 L0.0 6.55 Q0.0 5.3 0.5 3.9 1.05 2.5 1.75 1.75 2.5 1.05 3.9 0.5 5.3 0.0 6.55 0.0 L177.55 0.0" fill="url(#gradient0)" fill-rule="evenodd" stroke="none"/>
    <path d="M177.55 0.0 L6.55 0.0 Q5.3 0.0 3.9 0.5 2.5 1.05 1.75 1.75 1.05 2.5 0.5 3.9 0.0 5.3 0.0 6.55 L0.0 60.7 Q0.0 61.95 0.65 63.4 1.3 64.9 2.25 65.7 L7.7 70.6 Q8.65 71.45 10.2 72.05 11.7 72.65 12.9 72.65 L61.85 72.65 Q63.1 72.65 64.55 72.05 66.0 71.45 66.75 70.6 67.55 69.8 69.0 69.2 L71.65 68.6 136.4 68.6 Q137.65 68.6 139.05 69.2 140.45 69.8 141.2 70.6 141.95 71.45 143.35 72.05 144.8 72.65 146.0 72.65 L183.1 72.65 185.85 72.05 Q187.35 71.45 188.3 70.6 L195.2 64.1 196.75 61.75 Q197.35 60.3 197.35 59.05 L197.35 18.55 Q197.35 17.3 196.7 15.85 196.1 14.35 195.15 13.55 L182.75 2.05 Q181.8 1.2 180.3 0.6 L177.55 0.0 Z" fill="none" stroke="#f7b31d" stroke-linecap="butt" stroke-linejoin="miter-clip" stroke-miterlimit="4.0" stroke-width="2.0"/>
    <path d="M149.75 9.75 L168.35 9.75 Q169.6 9.75 171.1 10.35 172.6 10.95 173.55 11.75 L178.1 15.8 Q179.05 16.65 180.6 17.2 182.1 17.8 183.35 17.8 L189.55 17.8 Q190.75 17.8 191.6 18.7 192.5 19.55 192.5 20.8 L192.5 54.05 Q192.5 55.3 191.9 56.75 L190.35 59.1 186.05 63.15 Q185.1 64.0 183.6 64.6 182.05 65.2 180.85 65.2 L14.6 65.2 Q13.35 65.2 12.5 64.3 11.6 63.45 11.6 62.2 L11.6 30.9 Q11.6 29.65 11.05 28.15 10.5 26.6 9.7 25.65 L7.55 23.15 Q6.75 22.2 6.2 20.65 5.6 19.1 5.6 17.85 L5.6 9.4 Q5.6 8.15 6.5 7.3 7.35 6.4 8.6 6.4 L139.65 6.4 142.35 6.9 Q143.85 7.4 144.7 8.1 145.55 8.8 147.05 9.25 L149.75 9.75" fill="#1e2226" fill-rule="evenodd" stroke="none"/>
    <path d="M148.1 6.2 L145.4 4.5 178.65 4.5 190.9 14.8 185.35 14.8 175.0 6.2 148.1 6.2" fill="#004ad1" fill-rule="evenodd" stroke="none"/>
    <path d="M61.35 6.5 Q62.4 6.5 63.15 7.25 63.85 7.95 63.85 9.0 L63.85 25.35 63.7 27.5 63.35 28.45 Q62.45 29.15 62.45 32.4 L62.45 38.9 62.55 40.7 Q62.8 42.4 63.35 42.8 63.85 43.3 63.85 45.85 L63.85 62.15 Q63.85 63.15 63.15 63.9 62.4 64.65 61.35 64.65 L45.0 64.65 Q42.5 64.65 41.95 64.1 41.55 63.55 39.85 63.3 L38.05 63.2 31.5 63.2 Q28.35 63.2 27.65 64.15 L26.65 64.45 24.55 64.65 8.35 64.65 Q7.35 64.65 6.6 63.9 5.85 63.15 5.85 62.15 L5.85 45.8 Q5.85 43.25 6.35 42.75 7.2 42.2 7.2 38.9 L7.2 32.4 Q7.2 29.1 6.3 28.5 5.85 27.9 5.85 25.4 L5.85 9.0 Q5.85 7.95 6.6 7.25 7.35 6.5 8.35 6.5 L24.55 6.5 Q27.15 6.5 27.65 7.0 28.35 7.9 31.5 7.9 L38.05 7.9 Q41.35 7.9 41.95 6.95 42.55 6.5 45.0 6.5 L61.35 6.5" fill="#191919" fill-rule="evenodd" stroke="none"/>
    <path d="M61.35 6.0 Q62.6 6.0 63.45 6.9 64.35 7.75 64.35 9.0 L64.35 25.35 Q64.35 28.4 63.65 28.85 62.95 29.4 62.95 32.4 L62.95 38.9 Q62.95 41.95 63.65 42.4 64.35 42.85 64.35 45.85 L64.35 62.15 Q64.35 63.4 63.45 64.25 62.6 65.15 61.35 65.15 L45.0 65.15 42.75 64.95 Q41.75 64.7 41.55 64.4 40.95 63.7 38.05 63.7 L31.5 63.7 Q28.65 63.7 28.05 64.4 L26.8 64.95 24.55 65.15 8.35 65.15 Q7.1 65.15 6.25 64.25 5.35 63.4 5.35 62.15 L5.35 45.8 Q5.35 42.8 6.05 42.35 6.7 41.9 6.7 38.9 L6.7 32.4 Q6.7 29.35 6.05 28.9 5.35 28.45 5.35 25.4 L5.35 9.0 Q5.35 7.75 6.25 6.9 7.1 6.0 8.35 6.0 L24.55 6.0 26.8 6.2 Q27.85 6.4 28.05 6.7 28.6 7.4 31.5 7.4 L38.05 7.4 Q41.05 7.4 41.55 6.7 42.0 6.0 45.0 6.0 L61.35 6.0 M63.35 9.0 Q63.35 8.2 62.75 7.6 62.2 7.0 61.35 7.0 L45.0 7.0 Q42.9 7.0 42.3 7.35 41.4 8.4 38.05 8.4 L31.5 8.4 Q28.25 8.4 27.35 7.4 L24.55 7.0 8.35 7.0 Q7.55 7.0 6.95 7.6 6.35 8.2 6.35 9.0 L6.35 25.4 Q6.35 27.4 6.75 28.2 7.7 29.15 7.7 32.4 L7.7 38.9 Q7.7 42.2 6.7 43.1 6.35 44.0 6.35 45.8 L6.35 62.15 Q6.35 63.0 6.95 63.55 7.55 64.15 8.35 64.15 L24.55 64.15 27.35 63.75 Q28.25 62.7 31.5 62.7 L38.05 62.7 Q41.35 62.7 42.3 63.75 L45.0 64.15 61.35 64.15 Q62.2 64.15 62.75 63.55 63.35 63.0 63.35 62.15 L63.35 45.85 Q63.35 44.05 63.0 43.15 61.95 42.25 61.95 38.9 L61.95 32.4 Q61.95 29.05 62.95 28.15 63.35 27.35 63.35 25.35 L63.35 9.0" fill="#111010" fill-rule="evenodd" stroke="none"/>
    <path d="M12.45 57.95 L12.45 13.05 57.25 13.05 57.25 57.95 12.45 57.95" fill="#232323" fill-rule="evenodd" stroke="none"/>
    <path d="M56.75 13.55 L12.95 13.55 12.95 57.45 56.75 57.45 56.75 13.55 M57.75 58.45 L11.95 58.45 11.95 12.55 57.75 12.55 57.75 58.45" fill="#545453" fill-rule="evenodd" stroke="none"/>
    <path d="M10.15 12.45 L10.15 17.3 8.4 17.3 8.4 11.3 10.55 9.15 16.45 9.15 16.45 10.8 11.75 10.8 10.15 12.45" fill="#757782" fill-rule="evenodd" stroke="none"/>
    <path d="M59.6 12.45 L57.9 10.8 53.25 10.8 53.25 9.15 59.2 9.15 61.35 11.3 61.35 17.3 59.6 17.3 59.6 12.45" fill="#757782" fill-rule="evenodd" stroke="none"/>
    <path d="M10.15 58.8 L11.75 60.45 16.45 60.45 16.45 62.1 10.55 62.1 8.4 59.95 8.4 53.95 10.15 53.95 10.15 58.8" fill="#757782" fill-rule="evenodd" stroke="none"/>
    <path d="M59.6 58.8 L59.6 53.95 61.35 53.95 61.35 59.95 59.2 62.1 53.25 62.1 53.25 60.45 57.9 60.45 59.6 58.8" fill="#757782" fill-rule="evenodd" stroke="none"/>
    <path d="M56.65 56.3 L55.65 57.25 51.5 53.1 52.5 52.15 56.65 56.3" fill="#666668" fill-rule="evenodd" stroke="none"/>
    <path d="M17.3 52.15 L18.3 53.1 14.1 57.25 13.15 56.3 17.3 52.15" fill="#666668" fill-rule="evenodd" stroke="none"/>
    <path d="M56.65 14.6 L52.5 18.75 51.5 17.8 55.65 13.65 56.65 14.6" fill="#666668" fill-rule="evenodd" stroke="none"/>
    <path d="M17.3 18.75 L13.15 14.6 14.1 13.65 18.3 17.8 17.3 18.75" fill="#666668" fill-rule="evenodd" stroke="none"/>
    <path d="M54.05 30.05 L53.05 32.75 53.05 37.6 54.05 40.3 54.05 54.65 39.8 54.65 37.15 53.65 32.25 53.65 29.6 54.65 15.85 54.65 15.85 40.2 16.85 37.45 16.85 32.7 15.85 29.95 15.85 16.3 29.6 16.3 32.25 17.3 37.15 17.3 39.8 16.3 54.05 16.3 54.05 30.05" fill="#161616" fill-rule="evenodd" stroke="none"/>
    <path d="M54.05 30.05 L53.05 32.75 53.05 37.6 54.05 40.3 54.05 54.65 39.8 54.65 37.15 53.65 32.25 53.65 29.6 54.65 15.85 54.65 15.85 40.2 16.85 37.45 16.85 32.7 15.85 29.95 15.85 16.3 29.6 16.3 32.25 17.3 37.15 17.3 39.8 16.3 54.05 16.3 54.05 30.05 Z" fill="none" stroke="#0c0c0c" stroke-linecap="butt" stroke-linejoin="miter-clip" stroke-miterlimit="4.0" stroke-width="1.0"/>
    <path d="M130.35 70.45 Q131.55 70.45 132.95 70.95 134.35 71.45 135.05 72.15 135.75 72.85 135.4 73.35 135.0 73.85 133.75 73.85 L73.4 73.85 Q72.15 73.85 71.8 73.35 71.4 72.85 72.1 72.15 72.85 71.45 74.2 70.95 L76.8 70.45 130.35 70.45" fill="url(#gradient1)" fill-rule="evenodd" stroke="none"/>
  </g>
  <defs>
    <linearGradient gradientTransform="matrix(0.0, -0.0443, -0.0442, 0.0, 98.7, 36.3)" gradientUnits="userSpaceOnUse" id="gradient0" spreadMethod="pad" x1="-819.2" x2="819.2">
      <stop offset="0.0" stop-color="#404242"/>
      <stop offset="0.32941176470588235" stop-color="#606165"/>
      <stop offset="0.9803921568627451" stop-color="#a8a8b3"/>
      <stop offset="1.0" stop-color="#454647"/>
    </linearGradient>
    <linearGradient gradientTransform="matrix(0.039, 0.0, 0.0, -0.039, 103.6, 72.15)" gradientUnits="userSpaceOnUse" id="gradient1" spreadMethod="pad" x1="-819.2" x2="819.2">
      <stop offset="0.0" stop-color="#260000"/>
      <stop offset="0.06666666666666667" stop-color="#300000"/>
      <stop offset="0.5176470588235295" stop-color="#700300"/>
      <stop offset="0.8823529411764706" stop-color="#390100"/>
      <stop offset="1.0" stop-color="#260000"/>
    </linearGradient>
  </defs>
</svg>
