<?xml version="1.0" encoding="UTF-8" standalone="no"?>
<svg xmlns:ffdec="https://www.free-decompiler.com/flash" xmlns:xlink="http://www.w3.org/1999/xlink" ffdec:objectType="shape" height="55.5px" width="83.55px" xmlns="http://www.w3.org/2000/svg">
  <g transform="matrix(1.0, 0.0, 0.0, 1.0, 0.5, 0.5)">
    <path d="M82.55 4.4 L82.55 50.1 Q82.55 54.5 77.55 54.5 L5.0 54.5 Q0.0 54.5 0.0 50.1 L0.0 4.4 Q0.0 0.0 5.0 0.0 L77.55 0.0 Q82.55 0.0 82.55 4.4" fill="#032c66" fill-rule="evenodd" stroke="none"/>
    <path d="M82.55 4.4 Q82.55 0.0 77.55 0.0 L5.0 0.0 Q0.0 0.0 0.0 4.4 L0.0 50.1 Q0.0 54.5 5.0 54.5 L77.55 54.5 Q82.55 54.5 82.55 50.1 L82.55 4.4 Z" fill="none" stroke="#5caaff" stroke-linecap="butt" stroke-linejoin="miter-clip" stroke-miterlimit="4.0" stroke-width="1.0"/>
  </g>
</svg>
