<?xml version="1.0" encoding="UTF-8" standalone="no"?>
<svg xmlns:ffdec="https://www.free-decompiler.com/flash" xmlns:xlink="http://www.w3.org/1999/xlink" ffdec:objectType="shape" height="22.0px" width="79.6px" xmlns="http://www.w3.org/2000/svg">
  <g transform="matrix(1.0, 0.0, 0.0, 1.0, 0.0, 0.0)">
    <path d="M4.0 0.5 L75.6 0.5 Q77.05 0.5 78.1 1.5 79.1 2.55 79.1 4.0 L79.1 18.0 Q79.1 19.45 78.1 20.45 77.05 21.5 75.6 21.5 L4.0 21.5 Q2.6 21.5 1.55 20.45 0.5 19.45 0.5 18.0 L0.5 4.0 Q0.5 2.55 1.55 1.5 2.55 0.5 4.0 0.5" fill="#233b5e" fill-rule="evenodd" stroke="none"/>
    <path d="M78.6 4.0 Q78.6 2.75 77.7 1.9 76.85 1.0 75.6 1.0 L4.0 1.0 Q2.75 1.0 1.9 1.9 1.0 2.75 1.0 4.0 L1.0 18.0 Q1.0 19.25 1.9 20.1 2.75 21.0 4.0 21.0 L75.6 21.0 Q76.85 21.0 77.7 20.1 78.6 19.25 78.6 18.0 L78.6 4.0 M78.45 1.2 Q79.6 2.35 79.6 4.0 L79.6 18.0 Q79.6 19.65 78.45 20.85 77.3 22.0 75.6 22.0 L4.0 22.0 Q2.35 22.0 1.2 20.85 0.0 19.65 0.0 18.0 L0.0 4.0 Q0.0 2.35 1.2 1.2 2.35 0.0 4.0 0.0 L75.6 0.0 Q77.3 0.0 78.45 1.2" fill="#5580bf" fill-rule="evenodd" stroke="none"/>
  </g>
</svg>
