<?xml version="1.0" encoding="UTF-8" standalone="no"?>
<svg xmlns:ffdec="https://www.free-decompiler.com/flash" xmlns:xlink="http://www.w3.org/1999/xlink" ffdec:objectType="shape" height="21.0px" width="78.6px" xmlns="http://www.w3.org/2000/svg">
  <g transform="matrix(1.0, 0.0, 0.0, 1.0, -0.5, -0.5)">
    <path d="M78.6 18.0 Q78.6 19.25 77.7 20.1 76.85 21.0 75.6 21.0 L4.0 21.0 Q2.75 21.0 1.9 20.1 1.0 19.25 1.0 18.0 L1.0 4.0 Q1.0 2.75 1.9 1.9 2.75 1.0 4.0 1.0 L75.6 1.0 Q76.85 1.0 77.7 1.9 78.6 2.75 78.6 4.0 L78.6 18.0" fill="url(#gradient0)" fill-rule="evenodd" stroke="none"/>
    <path d="M78.6 18.0 Q78.6 19.25 77.7 20.1 76.85 21.0 75.6 21.0 L4.0 21.0 Q2.75 21.0 1.9 20.1 1.0 19.25 1.0 18.0 L1.0 4.0 Q1.0 2.75 1.9 1.9 2.75 1.0 4.0 1.0 L75.6 1.0 Q76.85 1.0 77.7 1.9 78.6 2.75 78.6 4.0 L78.6 18.0 Z" fill="none" stroke="#85cbff" stroke-linecap="butt" stroke-linejoin="miter-clip" stroke-miterlimit="4.0" stroke-width="1.0"/>
  </g>
  <defs>
    <linearGradient gradientTransform="matrix(0.0474, 0.0, 0.0, -0.0474, 39.8, 11.0)" gradientUnits="userSpaceOnUse" id="gradient0" spreadMethod="pad" x1="-819.2" x2="819.2">
      <stop offset="0.0" stop-color="#0069ff"/>
      <stop offset="0.7450980392156863" stop-color="#0026b3"/>
      <stop offset="1.0" stop-color="#0069ff"/>
    </linearGradient>
  </defs>
</svg>
