<?xml version="1.0" encoding="UTF-8" standalone="no"?>
<svg xmlns:ffdec="https://www.free-decompiler.com/flash" xmlns:xlink="http://www.w3.org/1999/xlink" ffdec:objectType="shape" height="19.0px" width="70.95px" xmlns="http://www.w3.org/2000/svg">
  <g transform="matrix(1.0, 0.0, 0.0, 1.0, -4.3, -1.5)">
    <path d="M74.75 17.3 Q74.75 18.45 73.9 19.2 73.15 20.0 72.05 20.0 L7.6 20.0 Q6.45 20.0 5.7 19.2 4.9 18.45 4.9 17.3 L4.9 4.7 Q4.9 3.6 5.7 2.8 6.45 2.0 7.6 2.0 L72.05 2.0 Q73.15 2.0 73.9 2.8 74.75 3.6 74.75 4.7 L74.75 17.3" fill="url(#gradient0)" fill-rule="evenodd" stroke="none"/>
    <path d="M74.75 17.3 Q74.75 18.45 73.9 19.2 73.15 20.0 72.05 20.0 L7.6 20.0 Q6.45 20.0 5.7 19.2 4.9 18.45 4.9 17.3 L4.9 4.7 Q4.9 3.6 5.7 2.8 6.45 2.0 7.6 2.0 L72.05 2.0 Q73.15 2.0 73.9 2.8 74.75 3.6 74.75 4.7 L74.75 17.3 Z" fill="none" stroke="#85cbff" stroke-linecap="butt" stroke-linejoin="miter-clip" stroke-miterlimit="4.0" stroke-width="1.0"/>
  </g>
  <defs>
    <linearGradient gradientTransform="matrix(0.0426, 0.0, 0.0, -0.0426, 39.8, 11.0)" gradientUnits="userSpaceOnUse" id="gradient0" spreadMethod="pad" x1="-819.2" x2="819.2">
      <stop offset="0.0" stop-color="#0069ff"/>
      <stop offset="0.7450980392156863" stop-color="#0026b3"/>
      <stop offset="1.0" stop-color="#0069ff"/>
    </linearGradient>
  </defs>
</svg>
