<?xml version="1.0" encoding="UTF-8" standalone="no"?>
<svg xmlns:ffdec="https://www.free-decompiler.com/flash" xmlns:xlink="http://www.w3.org/1999/xlink" ffdec:objectType="shape" height="74.35px" width="197.85px" xmlns="http://www.w3.org/2000/svg">
  <g transform="matrix(1.0, 0.0, 0.0, 1.0, 0.0, 0.0)">
    <path d="M0.0 6.55 Q0.0 5.3 0.5 3.9 1.05 2.5 1.75 1.8 2.5 1.05 3.9 0.55 5.25 0.0 6.5 0.0 L177.95 0.0 Q179.2 0.0 180.7 0.6 182.25 1.2 183.15 2.05 L195.65 13.55 Q196.55 14.4 197.2 15.85 197.85 17.3 197.85 18.55 L197.85 59.05 Q197.85 60.3 197.2 61.75 196.55 63.25 195.65 64.1 L188.7 70.6 Q187.8 71.45 186.3 72.05 L183.55 72.65 146.35 72.65 Q145.1 72.65 143.7 72.05 142.3 71.5 141.55 70.65 140.8 69.8 139.4 69.2 138.0 68.6 136.75 68.6 L71.8 68.6 Q70.6 68.6 69.15 69.2 67.7 69.8 66.9 70.65 66.1 71.5 64.7 72.05 L62.0 72.65 12.95 72.65 Q11.7 72.65 10.2 72.05 8.65 71.5 7.7 70.65 L2.25 65.7 Q1.3 64.9 0.65 63.4 0.0 61.95 0.0 60.7 L0.0 6.55" fill="url(#gradient0)" fill-rule="evenodd" stroke="none"/>
    <path d="M6.5 7.35 Q7.35 6.45 8.6 6.45 L139.95 6.45 142.7 6.95 Q144.2 7.4 145.05 8.1 145.85 8.8 147.35 9.3 L150.1 9.8 168.75 9.8 Q170.0 9.8 171.55 10.4 173.05 11.0 174.0 11.8 L178.55 15.85 Q179.5 16.7 181.05 17.25 182.55 17.85 183.8 17.85 L190.0 17.85 Q191.25 17.85 192.1 18.75 193.0 19.6 193.0 20.85 L193.0 54.05 Q193.0 55.3 192.35 56.75 191.75 58.25 190.8 59.1 L186.45 63.15 184.05 64.6 Q182.55 65.2 181.3 65.2 L14.65 65.2 Q13.4 65.2 12.55 64.3 11.65 63.45 11.65 62.2 L11.65 30.9 Q11.65 29.7 11.05 28.15 10.5 26.6 9.7 25.65 L7.55 23.15 Q6.75 22.2 6.2 20.7 5.6 19.15 5.6 17.9 L5.6 9.45 Q5.6 8.2 6.5 7.35" fill="#1e2226" fill-rule="evenodd" stroke="none"/>
    <path d="M148.45 6.2 L145.75 4.5 179.1 4.5 191.4 14.8 185.8 14.8 175.45 6.2 148.45 6.2" fill="#004ad1" fill-rule="evenodd" stroke="none"/>
    <path d="M6.6 7.25 Q7.35 6.5 8.35 6.5 L24.6 6.5 Q27.05 6.5 27.7 7.0 28.3 7.9 31.6 7.9 L38.15 7.9 Q41.4 7.9 42.05 7.0 L43.0 6.7 45.1 6.5 61.5 6.5 Q62.55 6.5 63.3 7.25 64.0 7.95 64.0 9.0 L64.0 25.35 Q64.0 27.85 63.5 28.5 62.6 29.15 62.6 32.4 L62.6 38.95 62.7 40.7 Q62.95 42.45 63.5 42.8 64.0 43.3 64.0 45.9 L64.0 62.15 Q64.0 63.2 63.3 63.95 62.55 64.65 61.5 64.65 L45.1 64.65 43.0 64.45 42.0 64.15 Q41.6 63.6 39.9 63.35 L38.15 63.2 31.6 63.2 Q28.35 63.2 27.7 64.15 L26.7 64.45 24.6 64.65 8.35 64.65 Q7.35 64.65 6.6 63.95 5.85 63.2 5.85 62.15 L5.85 45.8 Q5.85 43.25 6.35 42.75 7.15 42.2 7.2 38.95 L7.2 32.4 Q7.15 29.15 6.3 28.5 L6.0 27.55 Q5.85 26.6 5.85 25.45 L5.85 9.0 Q5.85 7.95 6.6 7.25" fill="#191919" fill-rule="evenodd" stroke="none"/>
    <path d="M5.35 9.0 Q5.35 7.75 6.25 6.9 7.1 6.0 8.35 6.0 L24.6 6.0 26.85 6.2 Q27.9 6.4 28.1 6.7 28.65 7.4 31.6 7.4 L38.15 7.4 Q41.15 7.4 41.65 6.7 42.1 6.0 45.1 6.0 L61.5 6.0 Q62.75 6.0 63.6 6.9 64.5 7.75 64.5 9.0 L64.5 25.35 Q64.5 28.4 63.8 28.9 63.1 29.35 63.1 32.4 L63.1 38.95 Q63.1 41.95 63.8 42.4 64.5 42.85 64.5 45.9 L64.5 62.15 Q64.5 63.4 63.6 64.25 62.75 65.15 61.5 65.15 L45.1 65.15 42.85 64.95 41.65 64.45 Q41.1 63.7 38.15 63.7 L31.6 63.7 Q28.65 63.7 28.1 64.45 27.6 65.15 24.6 65.15 L8.35 65.15 Q7.1 65.15 6.25 64.25 5.35 63.4 5.35 62.15 L5.35 45.8 5.55 43.55 Q5.75 42.55 6.0 42.4 6.7 41.95 6.7 38.95 L6.7 32.4 Q6.7 29.45 6.0 28.9 5.35 28.45 5.35 25.45 L5.35 9.0 M6.95 7.6 Q6.35 8.2 6.35 9.0 L6.35 25.45 Q6.35 27.15 6.7 28.2 7.7 29.15 7.7 32.4 L7.7 38.95 Q7.7 42.2 6.7 43.1 6.35 44.15 6.35 45.8 L6.35 62.15 Q6.35 63.0 6.95 63.55 7.55 64.15 8.35 64.15 L24.6 64.15 27.35 63.75 Q28.3 62.7 31.6 62.7 L38.15 62.7 Q41.45 62.7 42.35 63.75 L45.1 64.15 61.5 64.15 Q62.35 64.15 62.9 63.55 63.5 63.0 63.5 62.15 L63.5 45.9 Q63.5 43.95 63.1 43.15 62.1 42.25 62.1 38.95 L62.1 32.4 Q62.1 29.05 63.1 28.15 63.5 27.35 63.5 25.35 L63.5 9.0 Q63.5 8.2 62.9 7.6 62.35 7.0 61.5 7.0 L45.1 7.0 42.35 7.4 Q41.5 8.4 38.15 8.4 L31.6 8.4 Q28.3 8.4 27.35 7.4 L24.6 7.0 8.35 7.0 Q7.55 7.0 6.95 7.6" fill="#111010" fill-rule="evenodd" stroke="none"/>
    <path d="M57.4 13.05 L57.4 57.95 12.45 57.95 12.45 13.05 57.4 13.05" fill="#232323" fill-rule="evenodd" stroke="none"/>
    <path d="M56.9 13.55 L12.95 13.55 12.95 57.45 56.9 57.45 56.9 13.55 M11.95 12.55 L57.9 12.55 57.9 58.45 11.95 58.45 11.95 12.55" fill="#545453" fill-rule="evenodd" stroke="none"/>
    <path d="M10.15 12.5 L10.15 17.3 8.4 17.3 8.4 11.3 10.55 9.15 16.45 9.15 16.45 10.8 11.8 10.8 10.15 12.5" fill="#757782" fill-rule="evenodd" stroke="none"/>
    <path d="M59.7 12.5 L58.05 10.8 53.4 10.8 53.4 9.15 59.3 9.15 61.45 11.3 61.45 17.3 59.7 17.3 59.7 12.5" fill="#757782" fill-rule="evenodd" stroke="none"/>
    <path d="M10.15 58.8 L11.8 60.45 16.45 60.45 16.45 62.15 10.55 62.15 8.4 59.95 8.4 54.0 10.15 54.0 10.15 58.8" fill="#757782" fill-rule="evenodd" stroke="none"/>
    <path d="M59.7 58.8 L59.7 54.0 61.45 54.0 61.45 59.95 59.3 62.15 53.4 62.15 53.4 60.45 58.05 60.45 59.7 58.8" fill="#757782" fill-rule="evenodd" stroke="none"/>
    <path d="M56.8 56.3 L55.8 57.3 51.65 53.1 52.6 52.15 56.8 56.3" fill="#666668" fill-rule="evenodd" stroke="none"/>
    <path d="M17.35 52.15 L18.3 53.1 14.15 57.3 13.2 56.3 17.35 52.15" fill="#666668" fill-rule="evenodd" stroke="none"/>
    <path d="M56.8 14.6 L52.6 18.8 51.65 17.8 55.8 13.65 56.8 14.6" fill="#666668" fill-rule="evenodd" stroke="none"/>
    <path d="M17.35 18.8 L13.2 14.6 14.15 13.65 18.3 17.8 17.35 18.8" fill="#666668" fill-rule="evenodd" stroke="none"/>
    <path d="M39.9 16.35 L54.2 16.35 54.2 30.05 53.2 32.75 53.2 37.6 54.2 40.3 54.2 54.65 39.9 54.65 37.25 53.65 32.3 53.65 29.65 54.65 15.9 54.65 15.9 40.25 16.9 37.5 16.9 32.75 15.9 30.0 15.9 16.35 29.65 16.35 32.3 17.35 37.25 17.35 39.9 16.35" fill="#161616" fill-rule="evenodd" stroke="none"/>
    <path d="M39.9 16.35 L54.2 16.35 54.2 30.05 53.2 32.75 53.2 37.6 54.2 40.3 54.2 54.65 39.9 54.65 37.25 53.65 32.3 53.65 29.65 54.65 15.9 54.65 15.9 40.25 16.9 37.5 16.9 32.75 15.9 30.0 15.9 16.35 29.65 16.35 32.3 17.35 37.25 17.35 39.9 16.35 Z" fill="none" stroke="#0c0c0c" stroke-linecap="butt" stroke-linejoin="miter-clip" stroke-miterlimit="4.0" stroke-width="1.0"/>
    <path d="M131.7 70.95 L133.5 71.35 Q134.5 71.8 135.1 72.35 L135.65 72.95 Q136.25 73.5 136.1 73.95 135.95 74.35 135.1 74.35 L72.6 74.35 Q71.8 74.35 71.6 73.95 71.45 73.5 72.0 72.95 L72.6 72.35 74.15 71.35 Q75.2 70.95 76.0 70.95 L131.7 70.95" fill="url(#gradient1)" fill-rule="evenodd" stroke="none"/>
  </g>
  <defs>
    <linearGradient gradientTransform="matrix(0.0, -0.0443, -0.0443, 0.0, 98.95, 36.35)" gradientUnits="userSpaceOnUse" id="gradient0" spreadMethod="pad" x1="-819.2" x2="819.2">
      <stop offset="0.0" stop-color="#404242"/>
      <stop offset="0.32941176470588235" stop-color="#606165"/>
      <stop offset="0.9803921568627451" stop-color="#a8a8b3"/>
      <stop offset="1.0" stop-color="#454647"/>
    </linearGradient>
    <linearGradient gradientTransform="matrix(0.0394, 0.0, 0.0, -0.0394, 103.85, 72.65)" gradientUnits="userSpaceOnUse" id="gradient1" spreadMethod="pad" x1="-819.2" x2="819.2">
      <stop offset="0.0" stop-color="#120000"/>
      <stop offset="0.5176470588235295" stop-color="#470300"/>
      <stop offset="1.0" stop-color="#120000"/>
    </linearGradient>
  </defs>
</svg>
