<?xml version="1.0" encoding="UTF-8" standalone="no"?>
<svg xmlns:ffdec="https://www.free-decompiler.com/flash" xmlns:xlink="http://www.w3.org/1999/xlink" ffdec:objectType="shape" height="362.25px" width="662.15px" xmlns="http://www.w3.org/2000/svg">
  <g transform="matrix(1.0, 0.0, 0.0, 1.0, 0.5, 0.0)">
    <path d="M661.15 16.15 L661.15 358.15 Q661.15 359.4 660.2 360.25 659.3 361.15 658.0 361.15 L120.65 361.15 Q119.3 361.15 118.4 360.25 117.45 359.4 117.45 358.15 L117.45 16.15 Q117.45 14.9 118.4 14.05 119.3 13.15 120.65 13.15 L658.0 13.15 Q659.3 13.15 660.2 14.05 661.15 14.9 661.15 16.15" fill="url(#gradient0)" fill-rule="evenodd" stroke="none"/>
    <path d="M661.15 16.15 L661.15 358.15 Q661.15 359.4 660.2 360.25 659.3 361.15 658.0 361.15 L120.65 361.15 Q119.3 361.15 118.4 360.25 117.45 359.4 117.45 358.15 L117.45 16.15 Q117.45 14.9 118.4 14.05 119.3 13.15 120.65 13.15 L658.0 13.15 Q659.3 13.15 660.2 14.05 661.15 14.9 661.15 16.15 Z" fill="none" stroke="#0068ff" stroke-linecap="butt" stroke-linejoin="miter-clip" stroke-miterlimit="4.0" stroke-width="1.0"/>
    <path d="M656.55 361.75 L5.65 361.75 Q4.2 361.75 3.2 360.75 2.15 359.7 2.15 358.25 L2.15 322.0 Q2.15 320.55 3.2 319.5 4.2 318.5 5.65 318.5 L180.0 318.5 182.95 319.1 Q184.6 319.7 185.6 320.55 L187.55 322.25 Q188.4 323.0 189.9 323.55 L192.5 324.1 455.9 324.1 458.6 323.6 Q460.1 323.15 461.05 322.45 L464.15 320.3 Q465.2 319.55 466.9 319.05 468.6 318.5 469.9 318.5 L656.55 318.5 Q658.0 318.5 659.05 319.5 660.05 320.55 660.05 322.0 L660.05 358.25 Q660.05 359.7 659.05 360.75 658.0 361.75 656.55 361.75" fill="url(#gradient1)" fill-rule="evenodd" stroke="none"/>
    <path d="M659.4 319.2 Q660.55 320.35 660.55 322.0 L660.55 358.25 Q660.55 359.9 659.4 361.1 658.25 362.25 656.55 362.25 L5.65 362.25 Q4.0 362.25 2.85 361.1 1.65 359.9 1.65 358.25 L1.65 322.0 Q1.65 320.35 2.85 319.2 4.0 318.0 5.65 318.0 L180.0 318.0 183.1 318.65 Q184.8 319.25 185.9 320.2 L187.85 321.85 190.05 323.1 192.5 323.6 455.9 323.6 458.45 323.15 Q459.9 322.7 460.75 322.05 L463.85 319.9 Q465.0 319.1 466.75 318.55 468.5 318.0 469.9 318.0 L656.55 318.0 Q658.25 318.0 659.4 319.2 M659.55 322.0 Q659.55 320.75 658.65 319.9 657.8 319.0 656.55 319.0 L469.9 319.0 Q468.65 319.0 467.05 319.5 465.45 320.0 464.45 320.7 L461.35 322.85 Q460.35 323.55 458.75 324.1 L455.9 324.6 192.5 324.6 Q191.25 324.6 189.7 324.0 188.15 323.45 187.2 322.65 L185.25 320.95 Q184.3 320.15 182.8 319.55 181.25 319.0 180.0 319.0 L5.65 319.0 Q4.4 319.0 3.55 319.9 2.65 320.75 2.65 322.0 L2.65 358.25 Q2.65 359.5 3.55 360.35 4.4 361.25 5.65 361.25 L656.55 361.25 Q657.8 361.25 658.65 360.35 659.55 359.5 659.55 358.25 L659.55 322.0" fill="#0068ff" fill-rule="evenodd" stroke="none"/>
    <path d="M661.15 4.5 L661.15 26.1 Q661.15 27.35 660.2 28.2 659.3 29.1 657.95 29.1 L120.65 29.1 Q119.35 29.1 118.45 28.2 117.5 27.35 117.5 26.1 L117.5 4.5 Q117.5 3.25 118.45 2.4 119.35 1.5 120.65 1.5 L657.95 1.5 Q659.3 1.5 660.2 2.4 661.15 3.25 661.15 4.5" fill="#042370" fill-rule="evenodd" stroke="none"/>
    <path d="M661.15 4.5 L661.15 26.1 Q661.15 27.35 660.2 28.2 659.3 29.1 657.95 29.1 L120.65 29.1 Q119.35 29.1 118.45 28.2 117.5 27.35 117.5 26.1 L117.5 4.5 Q117.5 3.25 118.45 2.4 119.35 1.5 120.65 1.5 L657.95 1.5 Q659.3 1.5 660.2 2.4 661.15 3.25 661.15 4.5 Z" fill="none" stroke="#2565f4" stroke-linecap="butt" stroke-linejoin="miter-clip" stroke-miterlimit="4.0" stroke-width="1.0"/>
    <path d="M82.0 29.3 L112.65 29.3 Q113.7 29.3 114.4 30.2 115.15 31.05 115.15 32.3 L115.15 227.75 Q115.15 229.0 114.4 229.85 113.7 230.75 112.65 230.75 L2.45 230.75 Q1.45 230.75 0.75 229.85 0.0 229.0 0.0 227.75 L0.0 32.3 Q0.0 31.05 0.75 30.2 1.45 29.3 2.45 29.3 L33.35 29.3 Q35.85 29.3 37.8 28.3 39.7 27.3 42.2 27.3 L72.8 27.3 Q75.2 27.3 77.4 28.3 79.5 29.3 82.0 29.3" fill="url(#gradient2)" fill-rule="evenodd" stroke="none"/>
    <path d="M82.0 29.3 L112.65 29.3 Q113.7 29.3 114.4 30.2 115.15 31.05 115.15 32.3 L115.15 227.75 Q115.15 229.0 114.4 229.85 113.7 230.75 112.65 230.75 L2.45 230.75 Q1.45 230.75 0.75 229.85 0.0 229.0 0.0 227.75 L0.0 32.3 Q0.0 31.05 0.75 30.2 1.45 29.3 2.45 29.3 L33.35 29.3 Q35.85 29.3 37.8 28.3 39.7 27.3 42.2 27.3 L72.8 27.3 Q75.2 27.3 77.4 28.3 79.5 29.3 82.0 29.3 Z" fill="none" stroke="#0068ff" stroke-linecap="butt" stroke-linejoin="miter-clip" stroke-miterlimit="4.0" stroke-width="1.0"/>
    <path d="M113.95 1.5 Q114.75 2.55 114.75 3.95 L114.75 25.4 Q114.75 26.85 113.95 27.85 113.15 28.9 112.0 28.9 L79.75 28.9 Q77.4 28.9 75.15 27.85 73.3 26.9 70.9 26.9 L41.4 26.9 39.25 27.15 Q38.05 27.45 37.3 27.85 35.25 28.9 32.9 28.9 L3.2 28.9 Q2.05 28.9 1.2 27.85 0.4 26.85 0.4 25.4 L0.4 3.95 Q0.4 2.5 1.2 1.5 2.05 0.45 3.2 0.45 L112.0 0.45 Q113.15 0.45 113.95 1.5" fill="url(#gradient3)" fill-rule="evenodd" stroke="none"/>
    <path d="M114.35 3.95 Q114.35 2.7 113.65 1.85 112.95 0.95 112.0 0.95 L3.2 0.95 Q2.2 0.95 1.5 1.85 0.8 2.7 0.8 3.95 L0.8 25.5 Q0.8 26.75 1.5 27.6 2.2 28.5 3.2 28.5 L32.9 28.5 Q35.3 28.5 37.15 27.5 39.05 26.5 41.4 26.5 L70.9 26.5 Q73.2 26.5 75.3 27.5 77.35 28.5 79.75 28.5 L112.0 28.5 Q112.95 28.5 113.65 27.6 114.35 26.75 114.35 25.5 L114.35 3.95 M112.0 0.0 Q113.3 0.0 114.25 1.15 115.15 2.3 115.15 3.95 L115.15 25.5 Q115.15 27.15 114.25 28.35 113.3 29.5 112.0 29.5 L79.75 29.5 Q77.3 29.5 75.05 28.4 73.1 27.5 70.9 27.5 L41.4 27.5 Q39.15 27.5 37.45 28.4 35.45 29.5 32.9 29.5 L3.2 29.5 Q1.85 29.5 0.95 28.35 0.0 27.15 0.0 25.5 L0.0 3.95 Q0.0 2.3 0.95 1.15 1.85 0.0 3.2 0.0 L112.0 0.0" fill="#399cff" fill-rule="evenodd" stroke="none"/>
    <path d="M115.15 239.55 L115.15 310.15 Q115.15 312.8 113.95 314.7 112.7 316.55 110.95 316.55 L88.55 316.55 84.95 316.05 Q83.1 315.45 82.2 314.7 81.25 313.95 79.4 313.4 L75.8 312.85 44.1 312.85 Q42.4 312.85 40.5 313.4 38.65 313.95 37.75 314.7 36.8 315.45 34.95 316.05 L31.35 316.55 5.7 316.55 Q3.95 316.55 2.7 314.7 1.5 312.8 1.5 310.15 L1.5 239.55 Q1.5 236.95 2.7 235.05 3.95 233.2 5.7 233.2 L110.95 233.2 Q112.7 233.2 113.95 235.05 115.15 236.95 115.15 239.55" fill="#01133d" fill-rule="evenodd" stroke="none"/>
    <path d="M115.15 239.55 L115.15 310.15 Q115.15 312.8 113.95 314.7 112.7 316.55 110.95 316.55 L88.55 316.55 84.95 316.05 Q83.1 315.45 82.2 314.7 81.25 313.95 79.4 313.4 L75.8 312.85 44.1 312.85 Q42.4 312.85 40.5 313.4 38.65 313.95 37.75 314.7 36.8 315.45 34.95 316.05 L31.35 316.55 5.7 316.55 Q3.95 316.55 2.7 314.7 1.5 312.8 1.5 310.15 L1.5 239.55 Q1.5 236.95 2.7 235.05 3.95 233.2 5.7 233.2 L110.95 233.2 Q112.7 233.2 113.95 235.05 115.15 236.95 115.15 239.55 Z" fill="none" stroke="#ffff33" stroke-linecap="butt" stroke-linejoin="miter-clip" stroke-miterlimit="4.0" stroke-width="2.0"/>
    <path d="M115.15 239.55 L115.15 310.15 Q115.15 312.8 113.95 314.7 112.7 316.55 110.95 316.55 L88.55 316.55 84.95 316.05 Q83.1 315.45 82.2 314.7 81.25 313.95 79.4 313.4 L75.8 312.85 44.1 312.85 Q42.4 312.85 40.5 313.4 38.65 313.95 37.75 314.7 36.8 315.45 34.95 316.05 L31.35 316.55 5.7 316.55 Q3.95 316.55 2.7 314.7 1.5 312.8 1.5 310.15 L1.5 239.55 Q1.5 236.95 2.7 235.05 3.95 233.2 5.7 233.2 L110.95 233.2 Q112.7 233.2 113.95 235.05 115.15 236.95 115.15 239.55 Z" fill="none" stroke="#032b7c" stroke-linecap="butt" stroke-linejoin="miter-clip" stroke-miterlimit="4.0" stroke-width="2.0"/>
  </g>
  <defs>
    <linearGradient gradientTransform="matrix(0.0, -0.2124, -0.2242, 0.0, 389.3, 187.15)" gradientUnits="userSpaceOnUse" id="gradient0" spreadMethod="pad" x1="-819.2" x2="819.2">
      <stop offset="0.0" stop-color="#05307a"/>
      <stop offset="0.023529411764705882" stop-color="#042c73"/>
      <stop offset="0.11764705882352941" stop-color="#03215d"/>
      <stop offset="0.22745098039215686" stop-color="#02184b"/>
      <stop offset="0.3607843137254902" stop-color="#01123f"/>
      <stop offset="0.5450980392156862" stop-color="#000e38"/>
      <stop offset="1.0" stop-color="#000d36"/>
    </linearGradient>
    <linearGradient gradientTransform="matrix(0.0, -0.0264, -0.0264, 0.0, 331.1, 340.15)" gradientUnits="userSpaceOnUse" id="gradient1" spreadMethod="pad" x1="-819.2" x2="819.2">
      <stop offset="0.0" stop-color="#05337a"/>
      <stop offset="0.17647058823529413" stop-color="#032970"/>
      <stop offset="0.4627450980392157" stop-color="#012168"/>
      <stop offset="1.0" stop-color="#001f66"/>
    </linearGradient>
    <linearGradient gradientTransform="matrix(0.0, -0.1242, -0.102, 0.0, 57.55, 129.0)" gradientUnits="userSpaceOnUse" id="gradient2" spreadMethod="pad" x1="-819.2" x2="819.2">
      <stop offset="0.0" stop-color="#05337a"/>
      <stop offset="0.08627450980392157" stop-color="#032566"/>
      <stop offset="0.2" stop-color="#021955"/>
      <stop offset="0.33725490196078434" stop-color="#011049"/>
      <stop offset="0.5294117647058824" stop-color="#000b42"/>
      <stop offset="1.0" stop-color="#000a40"/>
    </linearGradient>
    <linearGradient gradientTransform="matrix(0.0, -0.0173, -0.0138, 0.0, 57.6, 14.65)" gradientUnits="userSpaceOnUse" id="gradient3" spreadMethod="pad" x1="-819.2" x2="819.2">
      <stop offset="0.0" stop-color="#004bc2"/>
      <stop offset="0.7647058823529411" stop-color="#003498"/>
      <stop offset="1.0" stop-color="#0057d9"/>
    </linearGradient>
  </defs>
</svg>
