<?xml version="1.0" encoding="UTF-8" standalone="no"?>
<svg xmlns:ffdec="https://www.free-decompiler.com/flash" xmlns:xlink="http://www.w3.org/1999/xlink" ffdec:objectType="shape" height="32.55px" width="167.7px" xmlns="http://www.w3.org/2000/svg">
  <g transform="matrix(1.0, 0.0, 0.0, 1.0, -9.25, -1.8)">
    <path d="M175.0 3.8 Q176.05 4.8 176.05 6.3 L176.05 29.85 Q176.05 31.3 175.0 32.4 173.95 33.45 172.45 33.45 L13.75 33.45 Q12.25 33.45 11.2 32.35 10.15 31.3 10.15 29.85 L10.2 13.05 Q10.25 11.75 11.0 10.3 11.75 8.85 12.9 8.15 L19.0 4.25 Q20.05 3.6 21.65 3.15 L24.5 2.7 172.45 2.7 Q173.95 2.7 175.0 3.8" fill="url(#gradient0)" fill-rule="evenodd" stroke="none"/>
    <path d="M176.95 6.3 L176.95 29.85 Q176.95 31.7 175.65 33.05 174.3 34.35 172.45 34.35 L13.75 34.35 Q11.9 34.35 10.55 33.0 9.25 31.7 9.25 29.85 L9.3 13.05 Q9.35 11.45 10.2 9.9 11.1 8.3 12.45 7.4 L18.55 3.5 Q19.7 2.8 21.4 2.3 L24.5 1.8 172.45 1.8 Q174.3 1.8 175.65 3.1 176.95 4.45 176.95 6.3 M174.35 4.4 Q173.6 3.6 172.45 3.6 L24.5 3.6 21.95 4.0 Q20.45 4.45 19.5 5.05 L13.4 8.9 Q12.45 9.5 11.75 10.75 11.15 11.95 11.1 13.1 L11.05 29.85 Q11.05 30.95 11.85 31.7 12.65 32.55 13.75 32.55 L172.45 32.55 Q173.6 32.55 174.35 31.7 175.15 30.95 175.15 29.85 L175.15 6.3 Q175.15 5.15 174.35 4.4" fill="#f7b141" fill-rule="evenodd" stroke="none"/>
    <path d="M46.0 32.75 L149.95 32.75 147.2 29.9 48.8 29.9 46.0 32.75 Z" fill="none" stroke="#f7b141" stroke-linecap="butt" stroke-linejoin="miter-clip" stroke-miterlimit="4.0" stroke-width="1.0"/>
    <path d="M46.0 32.75 L149.95 32.75 147.2 29.9 48.8 29.9 46.0 32.75" fill="#d88a0a" fill-rule="evenodd" stroke="none"/>
    <path d="M46.0 3.6 L149.95 3.6 147.2 6.4 48.8 6.4 46.0 3.6 Z" fill="none" stroke="#f7b141" stroke-linecap="butt" stroke-linejoin="miter-clip" stroke-miterlimit="4.0" stroke-width="1.0"/>
    <path d="M147.2 6.4 L48.8 6.4 45.95 3.6 149.95 3.6 147.2 6.4" fill="#d88a0a" fill-rule="evenodd" stroke="none"/>
  </g>
  <defs>
    <radialGradient cx="0" cy="0" gradientTransform="matrix(0.1559, 0.0, 0.0, -0.039, 97.1, 26.1)" gradientUnits="userSpaceOnUse" id="gradient0" r="819.2" spreadMethod="pad">
      <stop offset="0.0" stop-color="#e6b107"/>
      <stop offset="0.10588235294117647" stop-color="#e1ab07"/>
      <stop offset="0.24705882352941178" stop-color="#d29a06"/>
      <stop offset="0.40784313725490196" stop-color="#b97e04"/>
      <stop offset="0.5843137254901961" stop-color="#975702"/>
      <stop offset="0.7411764705882353" stop-color="#732e00"/>
      <stop offset="0.8196078431372549" stop-color="#592204"/>
      <stop offset="0.9372549019607843" stop-color="#39140a"/>
      <stop offset="1.0" stop-color="#2d0e0c"/>
    </radialGradient>
  </defs>
</svg>
