<?xml version="1.0" encoding="UTF-8" standalone="no"?>
<svg xmlns:ffdec="https://www.free-decompiler.com/flash" xmlns:xlink="http://www.w3.org/1999/xlink" ffdec:objectType="shape" height="33.95px" width="184.75px" xmlns="http://www.w3.org/2000/svg">
  <g transform="matrix(1.0, 0.0, 0.0, 1.0, -5.15, -323.5)">
    <path d="M185.95 356.95 L145.1 356.95 142.05 356.55 Q140.3 356.2 139.15 355.65 L138.1 355.15 Q137.05 354.65 135.4 354.3 L132.6 353.95 45.35 353.95 42.55 354.3 Q40.85 354.6 39.8 355.1 L38.3 355.7 35.4 356.6 32.35 356.95 9.15 356.95 Q7.7 356.95 6.65 355.95 5.65 354.9 5.65 353.45 L5.65 327.5 Q5.65 326.05 6.65 325.05 7.7 324.0 9.15 324.0 L174.95 324.0 177.9 324.5 Q179.6 325.05 180.7 325.75 L186.65 329.7 Q187.8 330.5 188.6 331.95 189.4 333.4 189.4 334.8 L189.4 353.45 Q189.45 354.85 188.4 355.9 187.45 356.95 185.95 356.95" fill="url(#gradient0)" fill-rule="evenodd" stroke="none"/>
    <path d="M174.95 323.5 L178.1 324.05 Q179.85 324.55 181.0 325.35 L186.95 329.3 Q188.2 330.15 189.05 331.7 189.9 333.3 189.9 334.8 L189.9 353.45 Q190.0 355.05 188.75 356.25 187.65 357.45 185.95 357.45 L145.1 357.45 141.95 357.05 138.95 356.1 137.9 355.6 135.3 354.8 132.6 354.45 45.35 354.45 42.65 354.8 Q41.05 355.1 40.0 355.55 L38.5 356.2 Q37.25 356.75 35.5 357.1 L32.35 357.45 9.15 357.45 Q7.5 357.45 6.35 356.3 5.15 355.1 5.15 353.45 L5.15 327.5 Q5.15 325.85 6.35 324.7 7.5 323.5 9.15 323.5 L174.95 323.5 M177.8 325.0 L174.95 324.5 9.15 324.5 Q7.9 324.5 7.05 325.4 6.15 326.25 6.15 327.5 L6.15 353.45 Q6.15 354.7 7.05 355.55 7.9 356.45 9.15 356.45 L32.35 356.45 35.3 356.1 Q36.95 355.75 38.1 355.25 L39.6 354.65 42.4 353.8 45.35 353.45 132.6 353.45 135.5 353.8 138.3 354.7 139.35 355.2 142.15 356.1 145.1 356.45 185.95 356.45 Q187.2 356.45 188.05 355.55 188.95 354.7 188.9 353.45 L188.9 334.8 Q188.9 333.55 188.15 332.2 187.4 330.85 186.4 330.15 L180.45 326.2 Q179.4 325.5 177.8 325.0" fill="#399cff" fill-rule="evenodd" stroke="none"/>
    <path d="M140.6 347.4 Q140.6 348.25 140.0 348.8 139.45 349.4 138.6 349.4 L17.05 349.4 Q16.25 349.4 15.65 348.8 15.05 348.25 15.05 347.4 L15.05 330.7 Q15.05 329.9 15.65 329.3 16.25 328.7 17.05 328.7 L138.6 328.7 Q139.45 328.7 140.0 329.3 140.6 329.9 140.6 330.7 L140.6 347.4" fill="#001556" fill-rule="evenodd" stroke="none"/>
    <path d="M140.6 347.4 Q140.6 348.25 140.0 348.8 139.45 349.4 138.6 349.4 L17.05 349.4 Q16.25 349.4 15.65 348.8 15.05 348.25 15.05 347.4 L15.05 330.7 Q15.05 329.9 15.65 329.3 16.25 328.7 17.05 328.7 L138.6 328.7 Q139.45 328.7 140.0 329.3 140.6 329.9 140.6 330.7 L140.6 347.4 Z" fill="none" stroke="#075bd6" stroke-linecap="butt" stroke-linejoin="miter-clip" stroke-miterlimit="4.0" stroke-width="1.0"/>
  </g>
  <defs>
    <linearGradient gradientTransform="matrix(0.0, -0.0201, -0.0201, 0.0, 97.55, 340.5)" gradientUnits="userSpaceOnUse" id="gradient0" spreadMethod="pad" x1="-819.2" x2="819.2">
      <stop offset="0.0" stop-color="#004bc2"/>
      <stop offset="0.7647058823529411" stop-color="#003498"/>
      <stop offset="1.0" stop-color="#0057d9"/>
    </linearGradient>
  </defs>
</svg>
