<?xml version="1.0" encoding="UTF-8" standalone="no"?>
<svg xmlns:ffdec="https://www.free-decompiler.com/flash" xmlns:xlink="http://www.w3.org/1999/xlink" ffdec:objectType="shape" height="49.8px" width="71.7px" xmlns="http://www.w3.org/2000/svg">
  <g transform="matrix(1.0, 0.0, 0.0, 1.0, 0.5, 0.5)">
    <path d="M65.65 0.0 Q67.75 0.0 69.25 1.65 70.7 3.3 70.7 5.65 L70.7 43.15 Q70.7 45.5 69.25 47.15 67.75 48.8 65.65 48.8 L5.15 48.8 Q3.05 48.8 1.55 47.15 0.1 45.5 0.05 43.15 L0.0 5.65 Q0.0 3.35 1.5 1.65 3.0 0.0 5.1 0.0 L65.65 0.0" fill="#094cad" fill-rule="evenodd" stroke="none"/>
    <path d="M65.65 0.0 L5.1 0.0 Q3.0 0.0 1.5 1.65 0.0 3.35 0.0 5.65 L0.05 43.15 Q0.1 45.5 1.55 47.15 3.05 48.8 5.15 48.8 L65.65 48.8 Q67.75 48.8 69.25 47.15 70.7 45.5 70.7 43.15 L70.7 5.65 Q70.7 3.3 69.25 1.65 67.75 0.0 65.65 0.0 Z" fill="none" stroke="#5cc2f0" stroke-linecap="butt" stroke-linejoin="miter-clip" stroke-miterlimit="4.0" stroke-opacity="0.6" stroke-width="1.0"/>
    <path d="M67.45 5.65 L67.45 43.15 Q67.45 43.85 66.9 44.35 66.35 44.85 65.65 44.85 L5.15 44.85 Q4.45 44.85 3.9 44.35 3.35 43.85 3.35 43.15 L3.3 5.65 Q3.3 5.1 3.65 4.65 4.2 3.95 5.1 3.95 L65.65 3.95 Q66.35 3.95 66.9 4.45 67.45 5.0 67.45 5.65" fill="url(#gradient0)" fill-rule="evenodd" stroke="none"/>
    <path d="M66.55 16.95 L69.9 12.9 69.9 33.75 66.55 29.65 66.55 16.95" fill="#1c74f4" fill-rule="evenodd" stroke="none"/>
    <path d="M4.3 16.95 L4.3 29.65 0.95 33.75 0.95 12.9 4.3 16.95" fill="#1c74f4" fill-rule="evenodd" stroke="none"/>
  </g>
  <defs>
    <linearGradient gradientTransform="matrix(0.0293, 0.0326, 0.0326, -0.0293, 35.4, 24.35)" gradientUnits="userSpaceOnUse" id="gradient0" spreadMethod="pad" x1="-819.2" x2="819.2">
      <stop offset="0.0" stop-color="#00003b"/>
      <stop offset="0.07058823529411765" stop-color="#000542"/>
      <stop offset="0.7019607843137254" stop-color="#003381"/>
      <stop offset="1.0" stop-color="#004599"/>
    </linearGradient>
  </defs>
</svg>
