<?xml version="1.0" encoding="UTF-8" standalone="no"?>
<svg xmlns:ffdec="https://www.free-decompiler.com/flash" xmlns:xlink="http://www.w3.org/1999/xlink" ffdec:objectType="shape" height="25.7px" width="55.9px" xmlns="http://www.w3.org/2000/svg">
  <g transform="matrix(1.0, 0.0, 0.0, 1.0, 0.0, 0.0)">
    <path d="M55.9 12.85 Q55.9 18.2 47.7 21.95 39.55 25.7 27.95 25.7 16.35 25.7 8.2 21.95 0.0 18.2 0.0 12.85 0.0 7.55 8.2 3.75 16.35 0.0 27.95 0.0 39.55 0.0 47.7 3.75 55.9 7.55 55.9 12.85" fill="#14ebf0" fill-rule="evenodd" stroke="none"/>
    <path d="M54.4 12.35 Q54.4 17.3 46.65 20.8 38.9 24.3 27.95 24.3 17.0 24.3 9.25 20.8 1.5 17.3 1.5 12.35 1.5 7.4 9.25 3.9 17.0 0.4 27.95 0.4 38.9 0.4 46.65 3.9 54.4 7.4 54.4 12.35" fill="#004fad" fill-rule="evenodd" stroke="none"/>
    <path d="M45.0 4.3 Q52.05 7.35 52.05 11.75 52.05 16.1 45.0 19.2 37.95 22.25 27.95 22.25 18.0 22.25 10.95 19.2 3.9 16.1 3.9 11.75 3.9 7.35 10.95 4.3 17.95 1.2 27.95 1.2 37.95 1.2 45.0 4.3" fill="#0068c7" fill-rule="evenodd" stroke="none"/>
  </g>
</svg>
