<?xml version="1.0" encoding="UTF-8" standalone="no"?>
<svg xmlns:ffdec="https://www.free-decompiler.com/flash" xmlns:xlink="http://www.w3.org/1999/xlink" ffdec:objectType="shape" height="58.5px" width="253.15px" xmlns="http://www.w3.org/2000/svg">
  <g transform="matrix(1.0, 0.0, 0.0, 1.0, -130.75, 0.0)">
    <path d="M130.75 32.35 L142.7 32.35 142.8 36.7 130.8 36.7 130.75 32.35" fill="url(#gradient0)" fill-rule="evenodd" stroke="none"/>
    <path d="M147.8 38.8 L142.6 38.8 Q141.8 38.8 141.5 38.3 L141.35 37.8 141.4 31.75 141.45 31.4 Q141.7 31.0 142.5 31.0 L147.7 31.0 147.8 38.8" fill="#00ffff" fill-rule="evenodd" stroke="none"/>
    <path d="M148.45 30.05 L148.6 39.75 142.15 39.7 Q141.2 39.7 140.85 39.1 L140.65 38.5 140.65 37.3 142.8 37.3 Q143.75 37.3 143.55 36.75 L143.6 32.5 Q143.65 31.8 142.7 31.8 L140.7 31.8 140.7 31.0 140.75 30.55 Q141.0 30.05 142.0 30.05 L148.45 30.05" fill="url(#gradient1)" fill-rule="evenodd" stroke="none"/>
    <path d="M130.75 20.5 L142.7 20.5 142.8 24.85 130.8 24.85 130.75 20.5" fill="url(#gradient2)" fill-rule="evenodd" stroke="none"/>
    <path d="M147.8 26.95 L142.6 26.95 Q141.8 26.95 141.5 26.45 L141.35 25.95 141.4 19.95 141.45 19.55 Q141.7 19.15 142.5 19.15 L147.7 19.2 147.8 26.95" fill="#00ffff" fill-rule="evenodd" stroke="none"/>
    <path d="M148.45 18.25 L148.6 27.9 142.15 27.9 Q141.2 27.9 140.85 27.3 L140.65 26.65 140.65 25.5 142.8 25.5 Q143.75 25.5 143.55 24.95 L143.6 20.65 Q143.65 19.95 142.7 19.95 L140.7 19.95 140.7 19.15 140.75 18.7 Q141.0 18.2 142.0 18.2 L148.45 18.25" fill="url(#gradient3)" fill-rule="evenodd" stroke="none"/>
    <path d="M130.75 8.2 L142.7 8.2 142.8 12.55 130.8 12.55 130.75 8.2" fill="url(#gradient4)" fill-rule="evenodd" stroke="none"/>
    <path d="M147.8 14.65 L142.6 14.65 Q141.8 14.65 141.5 14.15 L141.35 13.65 141.4 7.6 141.45 7.25 Q141.7 6.85 142.5 6.85 L147.7 6.9 147.8 14.65" fill="#00ffff" fill-rule="evenodd" stroke="none"/>
    <path d="M148.45 5.95 L148.6 15.6 142.15 15.6 Q141.2 15.6 140.85 15.0 L140.65 14.35 140.65 13.2 142.8 13.2 Q143.75 13.2 143.55 12.65 L143.6 8.35 Q143.65 7.65 142.7 7.65 L140.7 7.65 140.7 6.85 140.75 6.4 Q141.0 5.9 142.0 5.9 L148.45 5.95" fill="url(#gradient5)" fill-rule="evenodd" stroke="none"/>
    <path d="M382.8 45.85 Q382.8 47.1 381.9 47.95 381.05 48.85 379.8 48.85 L276.4 48.85 Q275.15 48.85 273.85 49.3 272.55 49.7 271.95 50.35 271.4 50.95 270.1 51.4 L267.55 51.85 158.85 51.85 Q157.6 51.85 156.05 51.25 154.5 50.7 153.55 49.9 L147.65 44.8 Q146.7 43.95 146.05 42.55 145.35 41.1 145.35 39.85 L145.35 22.2 Q145.35 20.95 145.65 19.65 145.95 18.35 146.35 17.7 L147.05 15.75 147.35 13.2 147.35 3.0 Q147.35 1.75 148.25 0.9 149.1 0.0 150.35 0.0 L379.8 0.0 Q381.05 0.0 381.9 0.9 382.8 1.75 382.8 3.0 L382.8 45.85" fill="url(#gradient6)" fill-rule="evenodd" stroke="none"/>
    <path d="M374.4 4.05 Q375.25 4.9 375.25 6.15 L375.25 41.7 Q375.25 42.95 374.4 43.8 373.55 44.7 372.3 44.7 L155.15 44.7 Q153.9 44.7 153.05 43.8 152.15 42.95 152.15 41.7 L152.15 6.15 Q152.15 4.9 153.05 4.05 153.9 3.15 155.15 3.15 L372.3 3.15 Q373.55 3.15 374.4 4.05" fill="url(#gradient7)" fill-rule="evenodd" stroke="none"/>
    <path d="M371.7 6.75 Q372.3 7.35 372.3 8.15 L372.3 39.25 Q372.3 40.1 371.7 40.65 371.15 41.25 370.3 41.25 L157.15 41.25 Q156.35 41.25 155.75 40.65 155.15 40.1 155.15 39.25 L155.15 8.15 Q155.15 7.35 155.75 6.75 156.35 6.15 157.15 6.15 L370.3 6.15 Q371.15 6.15 371.7 6.75" fill="url(#gradient8)" fill-rule="evenodd" stroke="none"/>
    <path d="M375.25 24.15 L151.55 24.15 151.55 23.15 375.25 23.15 375.25 24.15" fill="url(#gradient9)" fill-rule="evenodd" stroke="none"/>
    <path d="M378.25 15.85 L382.75 11.4 382.75 39.55 378.25 35.65 378.25 15.85" fill="#515151" fill-rule="evenodd" stroke="none"/>
    <path d="M258.1 42.2 L261.75 38.7 265.4 42.2 258.1 42.2" fill="#767777" fill-rule="evenodd" stroke="none"/>
    <path d="M261.75 8.65 L258.1 5.15 265.4 5.15 261.75 8.65" fill="#767777" fill-rule="evenodd" stroke="none"/>
    <path d="M383.55 56.4 L327.25 56.4 327.25 52.7 379.85 52.7 383.55 56.4" fill="url(#gradient10)" fill-rule="evenodd" stroke="none"/>
    <path d="M374.9 48.0 L382.9 56.05 382.9 39.9 374.9 48.0 M383.9 58.5 L373.45 48.0 383.9 37.5 383.9 58.5" fill="#4a4a4a" fill-rule="evenodd" stroke="none"/>
    <path d="M382.9 56.05 L374.9 48.0 382.9 39.9 382.9 56.05" fill="#7a7c7c" fill-rule="evenodd" stroke="none"/>
  </g>
  <defs>
    <linearGradient gradientTransform="matrix(-0.0073, 0.0, -1.0E-4, -0.0073, 136.8, 34.5)" gradientUnits="userSpaceOnUse" id="gradient0" spreadMethod="pad" x1="-819.2" x2="819.2">
      <stop offset="0.0" stop-color="#0091ff" stop-opacity="0.8"/>
      <stop offset="0.4" stop-color="#3d8fff" stop-opacity="0.44705883"/>
      <stop offset="0.803921568627451" stop-color="#748dff" stop-opacity="0.1254902"/>
      <stop offset="1.0" stop-color="#8a8cff" stop-opacity="0.0"/>
    </linearGradient>
    <linearGradient gradientTransform="matrix(-0.0036, 0.0076, -0.0059, -0.0071, 144.55, 35.05)" gradientUnits="userSpaceOnUse" id="gradient1" spreadMethod="pad" x1="-819.2" x2="819.2">
      <stop offset="0.0" stop-color="#2b2e2d"/>
      <stop offset="1.0" stop-color="#81878b"/>
    </linearGradient>
    <linearGradient gradientTransform="matrix(-0.0073, 0.0, -1.0E-4, -0.0073, 136.8, 22.7)" gradientUnits="userSpaceOnUse" id="gradient2" spreadMethod="pad" x1="-819.2" x2="819.2">
      <stop offset="0.0" stop-color="#0091ff" stop-opacity="0.8"/>
      <stop offset="0.4" stop-color="#3d8fff" stop-opacity="0.44705883"/>
      <stop offset="0.803921568627451" stop-color="#748dff" stop-opacity="0.1254902"/>
      <stop offset="1.0" stop-color="#8a8cff" stop-opacity="0.0"/>
    </linearGradient>
    <linearGradient gradientTransform="matrix(-0.0036, 0.0076, -0.0059, -0.0071, 144.55, 23.25)" gradientUnits="userSpaceOnUse" id="gradient3" spreadMethod="pad" x1="-819.2" x2="819.2">
      <stop offset="0.0" stop-color="#2b2e2d"/>
      <stop offset="1.0" stop-color="#81878b"/>
    </linearGradient>
    <linearGradient gradientTransform="matrix(-0.0073, 0.0, -1.0E-4, -0.0073, 136.8, 10.4)" gradientUnits="userSpaceOnUse" id="gradient4" spreadMethod="pad" x1="-819.2" x2="819.2">
      <stop offset="0.0" stop-color="#0091ff" stop-opacity="0.8"/>
      <stop offset="0.4" stop-color="#3d8fff" stop-opacity="0.44705883"/>
      <stop offset="0.803921568627451" stop-color="#748dff" stop-opacity="0.1254902"/>
      <stop offset="1.0" stop-color="#8a8cff" stop-opacity="0.0"/>
    </linearGradient>
    <linearGradient gradientTransform="matrix(-0.0036, 0.0076, -0.0059, -0.0071, 144.55, 10.95)" gradientUnits="userSpaceOnUse" id="gradient5" spreadMethod="pad" x1="-819.2" x2="819.2">
      <stop offset="0.0" stop-color="#2b2e2d"/>
      <stop offset="1.0" stop-color="#81878b"/>
    </linearGradient>
    <linearGradient gradientTransform="matrix(0.0, -0.0316, -0.0316, 0.0, 264.1, 25.95)" gradientUnits="userSpaceOnUse" id="gradient6" spreadMethod="pad" x1="-819.2" x2="819.2">
      <stop offset="0.011764705882352941" stop-color="#242633"/>
      <stop offset="0.17647058823529413" stop-color="#555555"/>
      <stop offset="0.9333333333333333" stop-color="#9b9d9e"/>
      <stop offset="0.9568627450980393" stop-color="#838586"/>
      <stop offset="1.0" stop-color="#464748"/>
      <stop offset="1.0" stop-color="#454647"/>
    </linearGradient>
    <linearGradient gradientTransform="matrix(0.0, -0.0253, -0.0253, 0.0, 263.7, 23.9)" gradientUnits="userSpaceOnUse" id="gradient7" spreadMethod="pad" x1="-819.2" x2="819.2">
      <stop offset="0.0" stop-color="#abb3ba"/>
      <stop offset="1.0" stop-color="#3c3c3c"/>
    </linearGradient>
    <linearGradient gradientTransform="matrix(0.1325, 0.0, 0.0, -0.1329, 263.7, 23.7)" gradientUnits="userSpaceOnUse" id="gradient8" spreadMethod="pad" x1="-819.2" x2="819.2">
      <stop offset="0.0" stop-color="#050d1f"/>
      <stop offset="0.01568627450980392" stop-color="#070d1e"/>
      <stop offset="0.5411764705882353" stop-color="#470300"/>
      <stop offset="0.9294117647058824" stop-color="#100b1a"/>
      <stop offset="1.0" stop-color="#050d1f"/>
    </linearGradient>
    <linearGradient gradientTransform="matrix(0.1365, 0.0, 0.0, -0.1369, 263.4, 23.65)" gradientUnits="userSpaceOnUse" id="gradient9" spreadMethod="pad" x1="-819.2" x2="819.2">
      <stop offset="0.0" stop-color="#a5a7a9"/>
      <stop offset="0.5019607843137255" stop-color="#7d7e7f"/>
      <stop offset="1.0" stop-color="#a5a7a9"/>
    </linearGradient>
    <linearGradient gradientTransform="matrix(0.0, -0.0023, -0.0023, 0.0, 355.4, 54.55)" gradientUnits="userSpaceOnUse" id="gradient10" spreadMethod="pad" x1="-819.2" x2="819.2">
      <stop offset="0.0" stop-color="#373737"/>
      <stop offset="0.6549019607843137" stop-color="#a4a4a4"/>
      <stop offset="0.803921568627451" stop-color="#a4a4a4"/>
      <stop offset="1.0" stop-color="#6b6b6b"/>
    </linearGradient>
  </defs>
</svg>
