<?xml version="1.0" encoding="UTF-8" standalone="no"?>
<svg xmlns:ffdec="https://www.free-decompiler.com/flash" xmlns:xlink="http://www.w3.org/1999/xlink" ffdec:objectType="shape" height="21.0px" width="78.6px" xmlns="http://www.w3.org/2000/svg">
  <g transform="matrix(1.0, 0.0, 0.0, 1.0, 0.5, 0.5)">
    <path d="M74.6 20.0 L3.0 20.0 Q1.75 20.0 0.9 19.1 0.0 18.25 0.0 17.0 L0.0 3.0 Q0.0 1.75 0.9 0.9 1.75 0.0 3.0 0.0 L74.6 0.0 Q75.85 0.0 76.7 0.9 77.6 1.75 77.6 3.0 L77.6 17.0 Q77.6 18.25 76.7 19.1 75.85 20.0 74.6 20.0" fill="#233b5e" fill-rule="evenodd" stroke="none"/>
    <path d="M3.0 0.0 L74.6 0.0 Q75.85 0.0 76.7 0.9 77.6 1.75 77.6 3.0 L77.6 17.0 Q77.6 18.25 76.7 19.1 75.85 20.0 74.6 20.0 L3.0 20.0 Q1.75 20.0 0.9 19.1 0.0 18.25 0.0 17.0 L0.0 3.0 Q0.0 1.75 0.9 0.9 1.75 0.0 3.0 0.0 Z" fill="none" stroke="#5580bf" stroke-linecap="butt" stroke-linejoin="miter-clip" stroke-miterlimit="4.0" stroke-width="1.0"/>
  </g>
</svg>
