<?xml version="1.0" encoding="UTF-8" standalone="no"?>
<svg xmlns:ffdec="https://www.free-decompiler.com/flash" xmlns:xlink="http://www.w3.org/1999/xlink" ffdec:objectType="shape" height="6.55px" width="89.9px" xmlns="http://www.w3.org/2000/svg">
  <g transform="matrix(1.0, 0.0, 0.0, 1.0, -273.45, -44.3)">
    <path d="M359.3 46.15 Q360.8 46.75 361.7 47.6 362.55 48.45 362.3 49.05 362.05 49.65 360.8 49.65 L276.0 49.65 Q274.75 49.65 274.55 49.05 274.3 48.5 275.2 47.65 L275.25 47.6 Q276.15 46.75 277.7 46.15 279.15 45.55 280.4 45.55 L305.2 45.55 Q308.3 45.55 309.05 44.95 310.0 44.3 312.95 44.3 L324.3 44.3 Q327.3 44.3 328.15 44.95 328.9 45.55 332.0 45.55 L356.55 45.55 Q357.75 45.55 359.3 46.15" fill="#000b1e" fill-rule="evenodd" stroke="none"/>
    <path d="M362.8 50.85 L274.0 50.85 Q273.6 50.85 273.5 50.65 273.4 50.45 273.7 50.2 L276.7 47.45 Q277.4 46.75 278.45 46.75 L307.6 46.75 Q308.65 46.75 309.25 46.15 309.9 45.5 310.95 45.5 L326.3 45.5 Q327.4 45.5 327.95 46.15 328.55 46.75 329.6 46.75 L358.55 46.75 Q359.5 46.75 360.3 47.45 L363.1 50.15 Q363.4 50.45 363.3 50.65 363.2 50.85 362.8 50.85" fill="#474646" fill-rule="evenodd" stroke="none"/>
    <path d="M362.8 50.85 L274.0 50.85 Q273.6 50.85 273.5 50.65 273.45 50.45 273.75 50.2 L275.4 48.8 Q276.25 48.15 277.2 48.15 L291.3 48.15 Q292.35 48.15 293.15 47.7 L294.1 47.2 Q295.0 46.75 296.0 46.75 L307.6 46.75 Q308.65 46.75 309.25 46.15 309.9 45.5 310.95 45.5 L326.3 45.5 Q327.4 45.5 327.95 46.15 328.55 46.75 329.6 46.75 L340.95 46.75 Q341.8 46.75 342.8 47.25 L343.6 47.7 345.5 48.15 360.2 48.15 Q361.25 48.15 361.9 48.9 L363.15 50.15 363.3 50.65 Q363.2 50.85 362.8 50.85" fill="url(#gradient0)" fill-rule="evenodd" stroke="none"/>
    <path d="M300.4 49.2 L302.25 48.75 308.0 48.75 Q309.05 48.75 309.8 48.15 L309.95 48.05 Q310.8 47.5 311.75 47.5 L325.5 47.5 Q326.55 47.5 327.3 48.1 L327.4 48.15 Q328.15 48.75 329.2 48.75 L334.75 48.75 Q335.85 48.75 336.6 49.25 L338.7 50.4 339.0 50.7 338.55 50.85 298.2 50.85 Q297.85 50.85 297.8 50.7 L298.1 50.4 300.4 49.2" fill="#333333" fill-rule="evenodd" stroke="none"/>
  </g>
  <defs>
    <linearGradient gradientTransform="matrix(0.0, -0.0033, 0.0033, 0.0, 318.4, 48.15)" gradientUnits="userSpaceOnUse" id="gradient0" spreadMethod="pad" x1="-819.2" x2="819.2">
      <stop offset="0.0" stop-color="#a4a4a4"/>
      <stop offset="1.0" stop-color="#505050"/>
    </linearGradient>
  </defs>
</svg>
