<?xml version="1.0" encoding="UTF-8" standalone="no"?>
<svg xmlns:ffdec="https://www.free-decompiler.com/flash" xmlns:xlink="http://www.w3.org/1999/xlink" ffdec:objectType="shape" height="12.1px" width="32.6px" xmlns="http://www.w3.org/2000/svg">
  <g transform="matrix(1.0, 0.0, 0.0, 1.0, -0.4, -0.15)">
    <path d="M20.55 0.15 Q21.75 0.15 23.0 0.95 24.3 1.7 24.9 2.75 L27.7 7.9 Q28.3 8.9 28.4 9.95 28.5 10.95 28.0 11.35 L26.35 12.0 23.9 12.25 9.4 12.25 7.05 12.0 Q5.95 11.75 5.55 11.35 5.2 10.95 5.3 9.95 5.45 8.9 6.0 7.85 L8.65 2.75 Q9.15 1.7 10.45 0.95 11.65 0.15 12.85 0.15 L20.55 0.15" fill="url(#gradient0)" fill-rule="evenodd" stroke="none"/>
    <path d="M19.25 1.6 L20.6 1.4 21.15 1.4 Q22.1 1.4 22.65 2.2 L26.25 8.7 Q26.7 9.6 26.0 10.25 L25.55 10.7 Q24.9 11.4 23.85 11.4 L23.0 11.4 21.55 11.2 20.1 10.95 13.9 10.95 12.4 11.2 10.85 11.4 9.55 11.4 Q8.6 11.4 7.95 10.65 L7.7 10.3 7.4 9.55 Q7.35 9.1 7.55 8.7 L10.85 2.2 Q11.05 1.9 11.5 1.65 L12.35 1.4 13.05 1.4 14.35 1.6 15.65 1.8 17.95 1.8 19.25 1.6" fill="#2b2b2a" fill-rule="evenodd" stroke="none"/>
    <path d="M12.25 2.5 L21.1 2.5 24.8 9.2 23.3 10.4 9.95 10.4 8.8 9.2 12.25 2.5" fill="#0248ca" fill-rule="evenodd" stroke="none"/>
    <path d="M12.0 5.1 L21.8 5.1 16.85 10.0 12.0 5.1" fill="#00c9ff" fill-rule="evenodd" stroke="none"/>
    <path d="M30.95 0.4 L32.15 0.5 Q33.1 0.75 33.0 1.0 31.75 2.1 28.65 3.15 27.75 3.45 27.3 2.7 26.9 2.0 27.6 1.75 L30.95 0.4" fill="url(#gradient1)" fill-rule="evenodd" stroke="none"/>
    <path d="M2.7 0.3 Q4.0 1.1 6.0 1.75 6.7 2.0 6.35 2.7 5.95 3.45 5.0 3.15 1.9 2.1 0.45 0.75 0.2 0.55 1.3 0.35 L2.7 0.3" fill="url(#gradient2)" fill-rule="evenodd" stroke="none"/>
    <path d="M24.05 1.4 L24.9 0.9 26.6 1.4 28.25 4.35 27.75 6.1 26.9 6.55 24.05 1.4" fill="url(#gradient3)" fill-rule="evenodd" stroke="none"/>
    <path d="M27.7 1.45 L28.8 3.4 27.95 3.9 26.9 1.95 27.7 1.45" fill="#333333" fill-rule="evenodd" stroke="none"/>
    <path d="M9.45 1.4 L6.6 6.55 5.75 6.1 5.25 4.35 6.9 1.4 8.65 0.9 9.45 1.4" fill="url(#gradient4)" fill-rule="evenodd" stroke="none"/>
    <path d="M5.8 1.45 L6.65 1.95 5.55 3.9 4.75 3.4 5.8 1.45" fill="#333333" fill-rule="evenodd" stroke="none"/>
  </g>
  <defs>
    <linearGradient gradientTransform="matrix(0.0, -0.0074, -0.0074, 0.0, 16.8, 6.2)" gradientUnits="userSpaceOnUse" id="gradient0" spreadMethod="pad" x1="-819.2" x2="819.2">
      <stop offset="0.0" stop-color="#373737"/>
      <stop offset="0.6549019607843137" stop-color="#a4a4a4"/>
      <stop offset="0.803921568627451" stop-color="#a4a4a4"/>
      <stop offset="1.0" stop-color="#6b6b6b"/>
    </linearGradient>
    <linearGradient gradientTransform="matrix(0.0035, 0.0, 0.0, -0.0035, 30.1, 1.8)" gradientUnits="userSpaceOnUse" id="gradient1" spreadMethod="pad" x1="-819.2" x2="819.2">
      <stop offset="0.0" stop-color="#5e5e5e"/>
      <stop offset="0.43137254901960786" stop-color="#3b3b3b"/>
      <stop offset="1.0" stop-color="#080808"/>
    </linearGradient>
    <linearGradient gradientTransform="matrix(0.0037, 0.0, 0.0, -0.0037, 3.4, 1.75)" gradientUnits="userSpaceOnUse" id="gradient2" spreadMethod="pad" x1="-819.2" x2="819.2">
      <stop offset="0.0" stop-color="#080808"/>
      <stop offset="0.5686274509803921" stop-color="#3b3b3b"/>
      <stop offset="1.0" stop-color="#5e5e5e"/>
    </linearGradient>
    <linearGradient gradientTransform="matrix(0.0019, 0.0031, 0.0031, -0.0019, 26.45, 3.45)" gradientUnits="userSpaceOnUse" id="gradient3" spreadMethod="pad" x1="-819.2" x2="819.2">
      <stop offset="0.0" stop-color="#505050"/>
      <stop offset="0.09803921568627451" stop-color="#373737"/>
      <stop offset="0.5254901960784314" stop-color="#6e6861"/>
      <stop offset="0.8862745098039215" stop-color="#3d3d3d"/>
      <stop offset="1.0" stop-color="#505050"/>
    </linearGradient>
    <linearGradient gradientTransform="matrix(0.002, -0.003, -0.003, -0.002, 7.1, 3.45)" gradientUnits="userSpaceOnUse" id="gradient4" spreadMethod="pad" x1="-819.2" x2="819.2">
      <stop offset="0.0" stop-color="#505050"/>
      <stop offset="0.09803921568627451" stop-color="#373737"/>
      <stop offset="0.5254901960784314" stop-color="#6e6861"/>
      <stop offset="0.8862745098039215" stop-color="#3d3d3d"/>
      <stop offset="1.0" stop-color="#505050"/>
    </linearGradient>
  </defs>
</svg>
