<?xml version="1.0" encoding="UTF-8" standalone="no"?>
<svg xmlns:ffdec="https://www.free-decompiler.com/flash" xmlns:xlink="http://www.w3.org/1999/xlink" ffdec:objectType="shape" height="16.7px" width="48.1px" xmlns="http://www.w3.org/2000/svg">
  <g transform="matrix(1.0, 0.0, 0.0, 1.0, -2.7, -1.0)">
    <path d="M3.4 4.65 L50.0 4.65 Q50.5 4.65 50.65 5.0 50.9 5.3 50.6 5.55 L46.75 10.05 50.6 14.05 Q50.9 14.35 50.7 14.65 L50.0 14.95 3.4 14.95 2.75 14.65 Q2.6 14.4 2.8 14.05 L6.7 10.05 2.8 5.55 Q2.6 5.25 2.75 5.0 3.0 4.65 3.4 4.65" fill="#292940" fill-rule="evenodd" stroke="none"/>
    <path d="M3.4 14.45 L7.6 10.05 3.4 5.25 50.0 5.25 45.9 10.05 50.0 14.45 3.4 14.45" fill="url(#gradient0)" fill-rule="evenodd" stroke="none"/>
    <path d="M4.85 12.95 L7.6 10.05 4.7 6.75 48.75 6.75 45.9 10.05 48.65 12.95 4.85 12.95" fill="url(#gradient1)" fill-rule="evenodd" stroke="none"/>
    <path d="M14.95 1.0 Q15.45 1.0 15.55 1.45 L16.65 5.85 17.3 2.9 17.45 2.65 18.6 1.2 Q18.8 1.0 19.1 1.0 L22.55 1.0 Q23.2 1.0 23.2 1.6 L23.2 2.25 24.0 1.2 24.5 1.0 27.05 1.0 27.7 1.45 29.05 7.0 30.05 2.9 30.15 2.65 31.35 1.2 31.85 1.0 34.35 1.0 34.85 1.2 35.0 1.75 34.8 2.35 35.8 1.2 36.3 1.0 40.1 1.0 Q42.7 1.0 43.85 2.25 45.1 3.65 45.1 5.95 45.1 7.2 44.7 8.2 L44.35 8.9 Q43.2 11.05 41.8 11.7 L41.75 11.75 Q40.9 12.2 39.5 12.25 L39.5 15.65 39.35 16.05 38.2 17.5 37.7 17.7 37.45 17.7 37.25 17.6 35.1 17.6 34.65 17.4 34.45 16.95 34.45 3.8 31.5 15.65 31.4 15.85 30.2 17.3 Q30.05 17.6 29.7 17.6 L26.9 17.6 Q26.4 17.6 26.3 17.1 L23.2 5.05 23.2 15.45 23.05 15.85 21.9 17.3 21.4 17.6 19.15 17.6 Q18.5 17.6 18.5 16.95 L18.5 15.75 18.45 15.85 17.25 17.3 16.75 17.6 15.0 17.6 Q14.45 17.6 14.4 17.1 L14.1 15.95 13.05 17.3 12.55 17.6 10.35 17.6 Q9.7 17.6 9.7 16.95 L9.7 3.05 9.85 2.65 11.0 1.2 11.5 1.0 14.95 1.0 M40.0 7.3 Q40.0 6.35 39.55 6.1 L39.5 6.05 39.5 7.3 40.0 7.3" fill="#4d1a17" fill-rule="evenodd" stroke="none"/>
    <path d="M38.85 11.4 L38.85 15.65 37.7 17.1 37.7 15.65 36.3 15.65 36.3 10.55 37.6 10.8 38.85 11.4" fill="url(#gradient2)" fill-rule="evenodd" stroke="none"/>
    <path d="M44.1 8.0 L43.8 8.55 Q42.7 10.55 41.5 11.15 L41.9 10.0 41.0 10.15 41.0 7.7 Q41.8 7.2 41.8 5.9 41.8 4.35 41.0 4.1 L40.35 3.9 38.85 3.85 38.85 4.35 36.3 4.35 36.3 3.05 35.1 3.05 36.3 1.6 40.1 1.6 Q42.4 1.6 43.4 2.7 44.5 3.85 44.5 5.95 44.5 7.1 44.1 8.0" fill="url(#gradient3)" fill-rule="evenodd" stroke="none"/>
    <path d="M40.85 7.75 L41.0 7.7 41.0 10.15 40.25 10.2 38.85 10.25 38.85 11.25 37.6 10.65 36.3 10.45 36.3 4.35 38.85 4.35 38.85 7.95 40.85 7.75" fill="url(#gradient4)" fill-rule="evenodd" stroke="none"/>
    <path d="M12.55 16.95 L10.35 16.95 10.35 3.05 13.75 3.05 15.8 12.05 15.9 12.05 17.95 3.05 21.4 3.05 21.4 16.95 19.15 16.95 19.25 5.5 19.2 5.5 16.75 16.95 15.0 16.95 12.5 5.5 12.4 5.5 12.55 16.95 M39.85 5.5 L37.7 5.35 37.7 9.4 39.65 9.25 Q40.6 8.9 40.6 7.3 40.6 5.95 39.85 5.5 M38.95 3.05 Q41.15 3.05 42.25 4.15 43.25 5.3 43.25 7.4 43.25 9.95 41.75 10.95 40.95 11.6 39.1 11.7 L37.7 11.75 37.7 16.95 35.1 16.95 35.1 3.05 38.95 3.05 M33.2 3.05 L29.7 16.95 26.9 16.95 23.35 3.05 25.9 3.05 28.3 12.9 28.35 12.9 30.65 3.05 33.2 3.05" fill="url(#gradient5)" fill-rule="evenodd" stroke="none"/>
    <path d="M12.15 16.95 L12.2 5.5 12.4 5.5 12.55 16.95 12.15 16.95" fill="url(#gradient6)" fill-rule="evenodd" stroke="none"/>
    <path d="M18.9 5.5 L19.2 5.5 16.75 16.95 16.45 16.95 18.9 5.5" fill="url(#gradient7)" fill-rule="evenodd" stroke="none"/>
    <path d="M17.8 3.5 L17.95 3.05 21.4 3.05 21.4 16.95 21.0 16.95 21.0 3.5 17.8 3.5" fill="url(#gradient8)" fill-rule="evenodd" stroke="none"/>
    <path d="M23.45 3.5 L23.35 3.05 25.9 3.05 28.15 12.35 27.95 13.35 27.9 13.35 25.5 3.5 23.45 3.5" fill="url(#gradient9)" fill-rule="evenodd" stroke="none"/>
    <path d="M13.4 3.5 L10.35 3.5 10.35 3.05 13.75 3.05 15.5 10.3 15.7 11.35 15.5 12.5 15.45 12.5 13.4 3.5" fill="url(#gradient10)" fill-rule="evenodd" stroke="none"/>
    <path d="M30.55 3.5 L30.65 3.05 33.2 3.05 29.7 16.95 29.4 16.95 32.8 3.5 30.55 3.5" fill="url(#gradient11)" fill-rule="evenodd" stroke="none"/>
    <path d="M37.3 5.35 L37.7 5.35 37.7 9.4 39.65 9.25 39.9 9.1 39.25 9.7 37.3 9.85 37.3 5.35" fill="url(#gradient12)" fill-rule="evenodd" stroke="none"/>
    <path d="M41.85 4.6 Q40.75 3.5 38.55 3.5 L35.1 3.5 35.1 3.05 38.95 3.05 Q41.15 3.05 42.25 4.15 43.25 5.3 43.25 7.4 43.25 9.6 42.1 10.7 42.9 9.55 42.9 7.85 42.9 5.8 41.85 4.6" fill="url(#gradient13)" fill-rule="evenodd" stroke="none"/>
    <path d="M37.3 11.75 L37.7 11.75 37.7 16.95 37.3 16.95 37.3 11.75" fill="url(#gradient14)" fill-rule="evenodd" stroke="none"/>
    <path d="M10.35 3.05 L11.5 1.6 14.95 1.6 13.75 3.05 10.35 3.05" fill="url(#gradient15)" fill-rule="evenodd" stroke="none"/>
    <path d="M16.75 16.95 L19.2 5.5 19.25 5.5 19.15 9.85 17.95 15.45 16.75 16.95" fill="url(#gradient16)" fill-rule="evenodd" stroke="none"/>
    <path d="M12.55 16.95 L12.4 5.5 12.5 5.5 13.7 11.05 13.7 15.45 12.55 16.95" fill="url(#gradient17)" fill-rule="evenodd" stroke="none"/>
    <path d="M21.4 16.95 L21.4 3.05 22.55 1.6 22.55 15.45 21.4 16.95" fill="url(#gradient18)" fill-rule="evenodd" stroke="none"/>
    <path d="M17.95 3.05 L19.1 1.6 22.55 1.6 21.4 3.05 17.95 3.05" fill="url(#gradient19)" fill-rule="evenodd" stroke="none"/>
    <path d="M13.75 3.05 L14.95 1.6 16.65 8.55 15.9 12.05 15.8 12.05 13.75 3.05" fill="url(#gradient20)" fill-rule="evenodd" stroke="none"/>
    <path d="M23.35 3.05 L24.5 1.6 27.05 1.6 25.9 3.05 23.35 3.05" fill="url(#gradient21)" fill-rule="evenodd" stroke="none"/>
    <path d="M25.9 3.05 L27.05 1.6 29.05 9.7 28.35 12.9 28.3 12.9 25.9 3.05" fill="url(#gradient22)" fill-rule="evenodd" stroke="none"/>
    <path d="M30.65 3.05 L31.85 1.6 34.35 1.6 33.2 3.05 30.65 3.05" fill="url(#gradient23)" fill-rule="evenodd" stroke="none"/>
    <path d="M29.7 16.95 L33.2 3.05 34.35 1.6 30.9 15.45 29.7 16.95" fill="url(#gradient24)" fill-rule="evenodd" stroke="none"/>
  </g>
  <defs>
    <linearGradient gradientTransform="matrix(0.0, 0.0051, 0.0051, 0.0, 26.7, 9.8)" gradientUnits="userSpaceOnUse" id="gradient0" spreadMethod="pad" x1="-819.2" x2="819.2">
      <stop offset="0.0" stop-color="#e8e8e8"/>
      <stop offset="0.1607843137254902" stop-color="#e3e3e3"/>
      <stop offset="0.34901960784313724" stop-color="#d5d5d5"/>
      <stop offset="0.5490196078431373" stop-color="#bebebe"/>
      <stop offset="0.7568627450980392" stop-color="#9d9d9d"/>
      <stop offset="0.9725490196078431" stop-color="#747474"/>
      <stop offset="1.0" stop-color="#6e6e6e"/>
    </linearGradient>
    <linearGradient gradientTransform="matrix(0.0, -0.0037, -0.0037, 0.0, 26.7, 9.9)" gradientUnits="userSpaceOnUse" id="gradient1" spreadMethod="pad" x1="-819.2" x2="819.2">
      <stop offset="0.0" stop-color="#e8e8e8"/>
      <stop offset="0.24313725490196078" stop-color="#e3e3e3"/>
      <stop offset="0.5254901960784314" stop-color="#d5d5d5"/>
      <stop offset="0.8274509803921568" stop-color="#bebebe"/>
      <stop offset="1.0" stop-color="#adadad"/>
    </linearGradient>
    <linearGradient gradientTransform="matrix(4.0E-4, 0.0021, 0.0021, -4.0E-4, 37.65, 13.85)" gradientUnits="userSpaceOnUse" id="gradient2" spreadMethod="pad" x1="-819.2" x2="819.2">
      <stop offset="0.0" stop-color="#8f2b00"/>
      <stop offset="1.0" stop-color="#d4750d"/>
    </linearGradient>
    <linearGradient gradientTransform="matrix(-0.0028, -0.0051, -0.0051, 0.0028, 40.65, 5.35)" gradientUnits="userSpaceOnUse" id="gradient3" spreadMethod="pad" x1="-819.2" x2="819.2">
      <stop offset="0.0" stop-color="#8f2b00"/>
      <stop offset="1.0" stop-color="#d4750d"/>
    </linearGradient>
    <linearGradient gradientTransform="matrix(0.0013, 0.001, 0.001, -0.0013, 38.5, 8.15)" gradientUnits="userSpaceOnUse" id="gradient4" spreadMethod="pad" x1="-819.2" x2="819.2">
      <stop offset="0.0" stop-color="#8f2b00"/>
      <stop offset="1.0" stop-color="#d4750d"/>
    </linearGradient>
    <linearGradient gradientTransform="matrix(0.0, -0.0094, -0.0094, 0.0, 26.8, 9.05)" gradientUnits="userSpaceOnUse" id="gradient5" spreadMethod="pad" x1="-819.2" x2="819.2">
      <stop offset="0.4588235294117647" stop-color="#fcff3b"/>
      <stop offset="1.0" stop-color="#ff7800"/>
    </linearGradient>
    <linearGradient gradientTransform="matrix(0.0, -0.0078, -0.0078, 0.0, 12.35, 10.45)" gradientUnits="userSpaceOnUse" id="gradient6" spreadMethod="pad" x1="-819.2" x2="819.2">
      <stop offset="0.0" stop-color="#fdf76e"/>
      <stop offset="1.0" stop-color="#fdfdfd"/>
    </linearGradient>
    <linearGradient gradientTransform="matrix(0.0, -0.0078, -0.0078, 0.0, 17.8, 10.45)" gradientUnits="userSpaceOnUse" id="gradient7" spreadMethod="pad" x1="-819.2" x2="819.2">
      <stop offset="0.0" stop-color="#fdf76e"/>
      <stop offset="1.0" stop-color="#fdfdfd"/>
    </linearGradient>
    <linearGradient gradientTransform="matrix(0.0, -0.0094, -0.0094, 0.0, 19.6, 9.05)" gradientUnits="userSpaceOnUse" id="gradient8" spreadMethod="pad" x1="-819.2" x2="819.2">
      <stop offset="0.0" stop-color="#fdf76e"/>
      <stop offset="1.0" stop-color="#fdfdfd"/>
    </linearGradient>
    <linearGradient gradientTransform="matrix(0.0, -0.007, -0.007, 0.0, 25.75, 7.45)" gradientUnits="userSpaceOnUse" id="gradient9" spreadMethod="pad" x1="-819.2" x2="819.2">
      <stop offset="0.0" stop-color="#fdf76e"/>
      <stop offset="1.0" stop-color="#fdfdfd"/>
    </linearGradient>
    <linearGradient gradientTransform="matrix(0.0, -0.0064, -0.0064, 0.0, 13.05, 7.1)" gradientUnits="userSpaceOnUse" id="gradient10" spreadMethod="pad" x1="-819.2" x2="819.2">
      <stop offset="0.0" stop-color="#fdf76e"/>
      <stop offset="1.0" stop-color="#fdfdfd"/>
    </linearGradient>
    <linearGradient gradientTransform="matrix(0.0, -0.0094, -0.0094, 0.0, 31.3, 9.05)" gradientUnits="userSpaceOnUse" id="gradient11" spreadMethod="pad" x1="-819.2" x2="819.2">
      <stop offset="0.0" stop-color="#fdf76e"/>
      <stop offset="1.0" stop-color="#fdfdfd"/>
    </linearGradient>
    <linearGradient gradientTransform="matrix(0.0, -0.0031, -0.0031, 0.0, 38.6, 7.3)" gradientUnits="userSpaceOnUse" id="gradient12" spreadMethod="pad" x1="-819.2" x2="819.2">
      <stop offset="0.0" stop-color="#fdf76e"/>
      <stop offset="1.0" stop-color="#fdfdfd"/>
    </linearGradient>
    <linearGradient gradientTransform="matrix(0.0, -0.0052, -0.0052, 0.0, 39.2, 6.35)" gradientUnits="userSpaceOnUse" id="gradient13" spreadMethod="pad" x1="-819.2" x2="819.2">
      <stop offset="0.0" stop-color="#fdf76e"/>
      <stop offset="1.0" stop-color="#fdfdfd"/>
    </linearGradient>
    <linearGradient gradientTransform="matrix(0.0, -0.0035, -0.0035, 0.0, 37.45, 14.0)" gradientUnits="userSpaceOnUse" id="gradient14" spreadMethod="pad" x1="-819.2" x2="819.2">
      <stop offset="0.0" stop-color="#fdf76e"/>
      <stop offset="1.0" stop-color="#fdfdfd"/>
    </linearGradient>
    <linearGradient gradientTransform="matrix(-0.0027, 8.0E-4, 8.0E-4, 0.0027, 12.65, 2.35)" gradientUnits="userSpaceOnUse" id="gradient15" spreadMethod="pad" x1="-819.2" x2="819.2">
      <stop offset="0.0" stop-color="#8f2b00"/>
      <stop offset="1.0" stop-color="#d4750d"/>
    </linearGradient>
    <linearGradient gradientTransform="matrix(-0.0013, 0.0043, 0.0043, 0.0013, 18.3, 11.4)" gradientUnits="userSpaceOnUse" id="gradient16" spreadMethod="pad" x1="-819.2" x2="819.2">
      <stop offset="0.0" stop-color="#8f2b00"/>
      <stop offset="1.0" stop-color="#d4750d"/>
    </linearGradient>
    <linearGradient gradientTransform="matrix(0.0011, 0.0045, 0.0045, -0.0011, 12.6, 11.5)" gradientUnits="userSpaceOnUse" id="gradient17" spreadMethod="pad" x1="-819.2" x2="819.2">
      <stop offset="0.0" stop-color="#8f2b00"/>
      <stop offset="1.0" stop-color="#d4750d"/>
    </linearGradient>
    <linearGradient gradientTransform="matrix(-0.0011, 0.0066, 0.0066, 0.0011, 21.95, 9.55)" gradientUnits="userSpaceOnUse" id="gradient18" spreadMethod="pad" x1="-819.2" x2="819.2">
      <stop offset="0.0" stop-color="#8f2b00"/>
      <stop offset="1.0" stop-color="#d4750d"/>
    </linearGradient>
    <linearGradient gradientTransform="matrix(-0.0021, 6.0E-4, 6.0E-4, 0.0021, 20.4, 2.3)" gradientUnits="userSpaceOnUse" id="gradient19" spreadMethod="pad" x1="-819.2" x2="819.2">
      <stop offset="0.0" stop-color="#8f2b00"/>
      <stop offset="1.0" stop-color="#d4750d"/>
    </linearGradient>
    <linearGradient gradientTransform="matrix(-6.0E-4, -0.004, -0.004, 6.0E-4, 15.3, 6.55)" gradientUnits="userSpaceOnUse" id="gradient20" spreadMethod="pad" x1="-819.2" x2="819.2">
      <stop offset="0.0" stop-color="#8f2b00"/>
      <stop offset="1.0" stop-color="#d4750d"/>
    </linearGradient>
    <linearGradient gradientTransform="matrix(-0.0017, 7.0E-4, 7.0E-4, 0.0017, 25.25, 2.35)" gradientUnits="userSpaceOnUse" id="gradient21" spreadMethod="pad" x1="-819.2" x2="819.2">
      <stop offset="0.0" stop-color="#8f2b00"/>
      <stop offset="1.0" stop-color="#d4750d"/>
    </linearGradient>
    <linearGradient gradientTransform="matrix(-0.0012, -0.0042, -0.0042, 0.0012, 27.55, 6.85)" gradientUnits="userSpaceOnUse" id="gradient22" spreadMethod="pad" x1="-819.2" x2="819.2">
      <stop offset="0.0" stop-color="#8f2b00"/>
      <stop offset="1.0" stop-color="#d4750d"/>
    </linearGradient>
    <linearGradient gradientTransform="matrix(-0.0019, 8.0E-4, 8.0E-4, 0.0019, 32.5, 2.35)" gradientUnits="userSpaceOnUse" id="gradient23" spreadMethod="pad" x1="-819.2" x2="819.2">
      <stop offset="0.0" stop-color="#8f2b00"/>
      <stop offset="1.0" stop-color="#d4750d"/>
    </linearGradient>
    <linearGradient gradientTransform="matrix(-0.0031, 0.0073, 0.0073, 0.0031, 32.05, 9.2)" gradientUnits="userSpaceOnUse" id="gradient24" spreadMethod="pad" x1="-819.2" x2="819.2">
      <stop offset="0.0" stop-color="#8f2b00"/>
      <stop offset="1.0" stop-color="#d4750d"/>
    </linearGradient>
  </defs>
</svg>
