<?xml version="1.0" encoding="UTF-8" standalone="no"?>
<svg xmlns:ffdec="https://www.free-decompiler.com/flash" xmlns:xlink="http://www.w3.org/1999/xlink" ffdec:objectType="shape" height="12.4px" width="33.45px" xmlns="http://www.w3.org/2000/svg">
  <g transform="matrix(1.0, 0.0, 0.0, 1.0, 0.0, 0.0)">
    <path d="M20.65 0.0 Q21.9 0.0 23.2 0.8 24.5 1.55 25.1 2.65 L28.0 7.9 Q28.6 8.95 28.7 10.0 28.8 11.05 28.3 11.45 27.8 11.85 26.6 12.1 L24.1 12.4 9.25 12.4 6.85 12.1 Q5.7 11.85 5.3 11.45 4.95 11.05 5.05 10.0 5.2 8.95 5.75 7.85 L8.45 2.65 Q9.0 1.55 10.3 0.8 11.55 0.0 12.8 0.0 L20.65 0.0" fill="url(#gradient0)" fill-rule="evenodd" stroke="none"/>
    <path d="M19.35 1.45 L20.7 1.25 21.3 1.25 Q22.25 1.25 22.8 2.1 L26.5 8.75 Q26.95 9.65 26.25 10.35 L25.8 10.8 Q25.1 11.5 24.05 11.5 L23.2 11.5 21.7 11.3 20.2 11.05 13.85 11.05 12.3 11.3 10.75 11.5 9.4 11.5 Q8.4 11.5 7.75 10.75 L7.5 10.4 7.2 9.6 7.35 8.75 10.75 2.1 11.4 1.5 12.25 1.25 13.0 1.25 14.3 1.45 15.65 1.65 18.0 1.65 19.35 1.45" fill="#2b2b2a" fill-rule="evenodd" stroke="none"/>
    <path d="M12.15 2.4 L21.2 2.4 25.0 9.25 23.45 10.5 9.8 10.5 8.6 9.25 12.15 2.4" fill="#0248ca" fill-rule="evenodd" stroke="none"/>
    <path d="M11.9 8.75 L21.95 8.75 16.9 3.75 11.9 8.75" fill="#00c9ff" fill-rule="evenodd" stroke="none"/>
    <path d="M31.35 0.25 L32.55 0.35 Q33.55 0.6 33.45 0.85 32.15 1.95 28.95 3.05 28.05 3.35 27.6 2.6 27.2 1.85 27.9 1.6 L31.35 0.25" fill="url(#gradient1)" fill-rule="evenodd" stroke="none"/>
    <path d="M2.35 0.15 Q3.7 0.95 5.75 1.6 6.45 1.85 6.1 2.6 5.7 3.35 4.75 3.05 1.55 1.95 0.05 0.6 -0.2 0.4 0.95 0.2 L2.35 0.15" fill="url(#gradient2)" fill-rule="evenodd" stroke="none"/>
    <path d="M24.25 1.25 L25.1 0.75 26.85 1.25 28.55 4.3 28.05 6.05 27.2 6.55 24.25 1.25" fill="url(#gradient3)" fill-rule="evenodd" stroke="none"/>
    <path d="M28.0 1.3 L29.1 3.3 28.25 3.8 27.15 1.8 28.0 1.3" fill="#333333" fill-rule="evenodd" stroke="none"/>
    <path d="M9.3 1.25 L6.35 6.55 5.5 6.05 5.0 4.3 6.7 1.25 8.45 0.75 9.3 1.25" fill="url(#gradient4)" fill-rule="evenodd" stroke="none"/>
    <path d="M5.55 1.3 L6.4 1.8 5.3 3.8 4.45 3.3 5.55 1.3" fill="#333333" fill-rule="evenodd" stroke="none"/>
  </g>
  <defs>
    <linearGradient gradientTransform="matrix(0.0, -0.0076, -0.0076, 0.0, 16.85, 6.2)" gradientUnits="userSpaceOnUse" id="gradient0" spreadMethod="pad" x1="-819.2" x2="819.2">
      <stop offset="0.0" stop-color="#373737"/>
      <stop offset="0.6549019607843137" stop-color="#a4a4a4"/>
      <stop offset="0.803921568627451" stop-color="#a4a4a4"/>
      <stop offset="1.0" stop-color="#6b6b6b"/>
    </linearGradient>
    <linearGradient gradientTransform="matrix(0.0036, 0.0, 0.0, -0.0036, 30.45, 1.65)" gradientUnits="userSpaceOnUse" id="gradient1" spreadMethod="pad" x1="-819.2" x2="819.2">
      <stop offset="0.0" stop-color="#5e5e5e"/>
      <stop offset="0.43137254901960786" stop-color="#3b3b3b"/>
      <stop offset="1.0" stop-color="#080808"/>
    </linearGradient>
    <linearGradient gradientTransform="matrix(0.0038, 0.0, 0.0, -0.0038, 3.1, 1.6)" gradientUnits="userSpaceOnUse" id="gradient2" spreadMethod="pad" x1="-819.2" x2="819.2">
      <stop offset="0.0" stop-color="#080808"/>
      <stop offset="0.5686274509803921" stop-color="#3b3b3b"/>
      <stop offset="1.0" stop-color="#5e5e5e"/>
    </linearGradient>
    <linearGradient gradientTransform="matrix(0.0019, 0.0032, 0.0032, -0.0019, 26.7, 3.35)" gradientUnits="userSpaceOnUse" id="gradient3" spreadMethod="pad" x1="-819.2" x2="819.2">
      <stop offset="0.0" stop-color="#505050"/>
      <stop offset="0.09803921568627451" stop-color="#373737"/>
      <stop offset="0.5254901960784314" stop-color="#6e6861"/>
      <stop offset="0.8862745098039215" stop-color="#3d3d3d"/>
      <stop offset="1.0" stop-color="#505050"/>
    </linearGradient>
    <linearGradient gradientTransform="matrix(0.0021, -0.0031, -0.0031, -0.0021, 6.9, 3.35)" gradientUnits="userSpaceOnUse" id="gradient4" spreadMethod="pad" x1="-819.2" x2="819.2">
      <stop offset="0.0" stop-color="#505050"/>
      <stop offset="0.09803921568627451" stop-color="#373737"/>
      <stop offset="0.5254901960784314" stop-color="#6e6861"/>
      <stop offset="0.8862745098039215" stop-color="#3d3d3d"/>
      <stop offset="1.0" stop-color="#505050"/>
    </linearGradient>
  </defs>
</svg>
