<?xml version="1.0" encoding="UTF-8" standalone="no"?>
<svg xmlns:ffdec="https://www.free-decompiler.com/flash" xmlns:xlink="http://www.w3.org/1999/xlink" ffdec:objectType="shape" height="24.7px" width="24.7px" xmlns="http://www.w3.org/2000/svg">
  <g transform="matrix(1.0, 0.0, 0.0, 1.0, 0.0, 0.0)">
    <path d="M23.45 15.45 L15.4 23.5 Q14.1 24.7 12.35 24.7 10.55 24.7 9.3 23.5 L1.25 15.45 Q0.0 14.15 0.0 12.4 0.0 10.6 1.25 9.35 L9.3 1.3 Q10.5 0.0 12.35 0.0 14.15 0.0 15.4 1.3 L23.45 9.35 Q24.7 10.6 24.7 12.4 24.7 14.15 23.45 15.45" fill="#07101f" fill-rule="evenodd" stroke="none"/>
    <path d="M22.1 12.4 Q22.1 11.7 21.6 11.15 L13.55 3.1 Q13.1 2.6 12.35 2.6 11.65 2.6 11.15 3.1 L3.1 11.15 Q2.6 11.65 2.6 12.4 2.6 13.15 3.1 13.6 L11.15 21.65 Q11.65 22.1 12.35 22.1 13.1 22.1 13.55 21.65 L21.6 13.6 Q22.1 13.1 22.1 12.4 M22.8 9.95 Q23.85 10.95 23.85 12.4 23.85 13.8 22.8 14.8 L14.8 22.85 Q13.8 23.85 12.35 23.85 10.9 23.85 9.9 22.85 L1.85 14.8 Q0.9 13.8 0.9 12.4 0.9 10.95 1.85 9.95 L9.9 1.9 Q10.9 0.9 12.35 0.9 13.8 0.9 14.8 1.9 L22.8 9.95" fill="url(#gradient0)" fill-rule="evenodd" stroke="none"/>
    <path d="M22.25 12.75 Q22.25 13.5 21.75 13.95 L13.7 22.0 Q13.2 22.5 12.5 22.5 11.8 22.5 11.3 22.0 L3.25 13.95 2.8 13.2 3.1 13.6 11.15 21.65 Q11.65 22.1 12.35 22.1 13.1 22.1 13.55 21.65 L21.6 13.6 Q22.1 13.1 22.1 12.4 L22.05 11.9 22.25 12.75" fill="url(#gradient1)" fill-rule="evenodd" stroke="none"/>
    <path d="M23.65 11.3 L22.95 10.3 14.9 2.25 Q13.95 1.25 12.5 1.25 11.1 1.25 10.05 2.25 L2.05 10.3 Q1.3 11.0 1.1 11.95 0.9 12.9 1.2 13.85 0.75 12.85 0.9 11.8 1.1 10.7 1.85 9.95 L9.9 1.9 Q10.9 0.9 12.35 0.9 13.8 0.9 14.8 1.9 L22.8 9.95 Q23.4 10.5 23.65 11.3" fill="url(#gradient2)" fill-rule="evenodd" stroke="none"/>
    <path d="M20.7 12.65 L12.65 20.7 12.35 20.85 Q12.15 20.85 12.05 20.7 L4.0 12.65 3.9 12.4 4.0 12.1 12.05 4.05 12.35 3.9 12.65 4.05 20.7 12.1 20.8 12.4 20.7 12.65" fill="url(#gradient3)" fill-rule="evenodd" stroke="none"/>
    <path d="M12.5 4.5 L12.2 4.6 4.15 12.65 4.1 12.75 4.0 12.65 3.9 12.4 4.0 12.1 12.05 4.05 12.35 3.9 12.65 4.05 20.7 12.1 20.8 12.4 20.8 12.55 12.8 4.6 12.5 4.5" fill="url(#gradient4)" fill-rule="evenodd" stroke="none"/>
    <path d="M15.2 8.4 L16.25 9.6 16.7 10.45 16.85 10.95 13.8 11.2 13.7 10.9 13.55 10.6 13.55 11.15 Q15.15 11.5 15.85 12.0 L16.6 13.0 Q17.05 13.6 17.05 14.3 17.05 15.45 15.95 16.25 15.05 16.9 13.55 17.1 L13.55 18.15 11.45 18.15 11.45 17.6 11.15 17.6 11.15 17.1 Q9.95 16.85 9.25 16.45 8.45 15.9 8.1 15.1 L7.6 14.0 7.45 13.55 10.45 13.3 Q9.65 13.05 9.15 12.65 8.6 12.3 8.4 11.7 7.9 11.05 7.9 10.35 7.9 9.3 9.0 8.55 9.9 7.95 11.15 7.8 L11.15 7.25 13.25 7.25 13.25 7.8 13.55 7.8 13.55 7.85 Q14.6 8.05 15.2 8.4 M10.95 14.1 L11.05 14.2 11.15 14.25 11.15 13.55 10.55 13.35 10.75 13.85 10.85 13.85 10.95 14.1 M13.55 14.35 L13.6 14.3 13.8 14.1 13.55 14.0 13.55 14.35" fill="#2a63b5" fill-rule="evenodd" stroke="none"/>
    <path d="M13.1 8.7 Q14.45 8.8 15.25 9.3 16.05 9.8 16.25 10.6 L14.15 10.75 Q14.0 10.15 13.1 9.9 L13.1 11.95 Q15.15 12.3 15.9 12.85 16.6 13.45 16.6 14.3 16.6 15.25 15.7 15.9 14.75 16.6 13.1 16.7 L13.1 17.7 11.85 17.7 11.85 16.75 Q10.45 16.65 9.5 16.05 8.6 15.5 8.35 14.45 L10.55 14.3 11.05 15.0 11.85 15.45 11.85 13.25 Q10.3 12.95 9.45 12.35 8.65 11.75 8.65 10.85 8.65 10.0 9.55 9.4 10.45 8.8 11.85 8.7 L11.85 8.2 13.1 8.2 13.1 8.7 M11.1 10.25 Q10.8 10.5 10.8 10.8 L11.1 11.35 11.85 11.75 11.85 9.9 Q11.35 10.0 11.1 10.25 M14.25 13.9 L13.1 13.45 13.1 15.55 14.15 15.15 Q14.55 14.9 14.55 14.45 L14.25 13.9" fill="#994a00" fill-rule="evenodd" stroke="none"/>
    <path d="M12.8 9.35 L12.8 11.45 Q14.8 11.8 15.6 12.35 16.35 12.95 16.35 13.75 16.35 14.75 15.4 15.4 14.45 16.05 12.8 16.2 L12.8 17.2 11.6 17.2 11.6 16.25 Q10.2 16.15 9.2 15.55 8.3 15.0 8.05 13.9 L10.25 13.75 10.75 14.5 11.6 14.95 11.6 12.75 Q9.95 12.4 9.15 11.85 8.35 11.2 8.35 10.35 8.35 9.45 9.25 8.9 10.15 8.3 11.6 8.2 L11.6 7.65 12.8 7.65 12.8 8.2 Q14.15 8.3 14.95 8.8 15.8 9.25 16.0 10.05 L13.85 10.25 Q13.65 9.65 12.8 9.35 M10.8 9.7 L10.5 10.3 10.75 10.85 11.6 11.2 11.6 9.35 10.8 9.7 M13.9 13.35 Q13.6 13.1 12.8 12.95 L12.8 15.0 Q13.45 15.0 13.85 14.65 L14.25 13.95 13.9 13.35" fill="url(#gradient5)" fill-rule="evenodd" stroke="none"/>
    <path d="M15.8 12.55 Q15.05 12.0 13.05 11.65 L13.05 11.5 Q14.9 11.85 15.6 12.35 L15.8 12.55" fill="#f6fccc" fill-rule="evenodd" stroke="none"/>
    <path d="M14.45 14.2 L14.1 14.9 13.05 15.25 13.05 15.0 13.85 14.65 14.25 13.95 14.15 13.55 Q14.45 13.8 14.45 14.2" fill="#f6fccc" fill-rule="evenodd" stroke="none"/>
    <path d="M11.8 11.4 L10.95 11.05 10.85 10.85 11.6 11.2 11.6 9.65 11.8 9.6 11.8 11.4" fill="#f6fccc" fill-rule="evenodd" stroke="none"/>
    <path d="M11.8 12.95 L11.8 15.15 10.95 14.7 10.75 14.5 11.6 14.95 11.6 12.9 11.8 12.95" fill="#f6fccc" fill-rule="evenodd" stroke="none"/>
    <path d="M13.65 9.9 L13.95 10.25 13.85 10.25 13.65 9.9" fill="#f6fccc" fill-rule="evenodd" stroke="none"/>
    <path d="M8.25 14.1 L8.85 15.3 Q8.25 14.7 8.05 13.9 L10.25 13.75 10.35 14.0 8.25 14.1" fill="#f6fccc" fill-rule="evenodd" stroke="none"/>
    <path d="M11.8 16.45 L11.8 17.2 11.6 17.2 11.6 16.4 11.8 16.45" fill="#f6fccc" fill-rule="evenodd" stroke="none"/>
    <path d="M13.05 8.45 L13.05 8.25 Q14.15 8.35 14.95 8.8 15.25 8.95 15.55 9.25 L15.2 9.0 Q14.4 8.55 13.05 8.45" fill="#f6fccc" fill-rule="evenodd" stroke="none"/>
    <path d="M11.8 8.45 Q10.4 8.5 9.5 9.1 8.6 9.7 8.6 10.6 8.6 11.15 9.0 11.7 8.35 11.15 8.35 10.35 8.35 9.45 9.25 8.9 10.15 8.3 11.6 8.2 L11.6 7.65 12.8 7.65 12.8 7.9 11.8 7.9 11.8 8.45" fill="#f6fccc" fill-rule="evenodd" stroke="none"/>
  </g>
  <defs>
    <linearGradient gradientTransform="matrix(0.0, 0.0134, 0.0134, 0.0, 12.35, 12.45)" gradientUnits="userSpaceOnUse" id="gradient0" spreadMethod="pad" x1="-819.2" x2="819.2">
      <stop offset="0.0" stop-color="#3277db"/>
      <stop offset="1.0" stop-color="#8cb9fa"/>
    </linearGradient>
    <linearGradient gradientTransform="matrix(0.0, 0.0061, 0.0061, 0.0, 12.55, 17.25)" gradientUnits="userSpaceOnUse" id="gradient1" spreadMethod="pad" x1="-819.2" x2="819.2">
      <stop offset="0.0" stop-color="#8cbbff"/>
      <stop offset="1.0" stop-color="#c1d8fa"/>
    </linearGradient>
    <linearGradient gradientTransform="matrix(0.0, 0.0075, 0.0075, 0.0, 12.25, 7.4)" gradientUnits="userSpaceOnUse" id="gradient2" spreadMethod="pad" x1="-819.2" x2="819.2">
      <stop offset="0.0" stop-color="#8cbbff"/>
      <stop offset="1.0" stop-color="#c1d8fa"/>
    </linearGradient>
    <linearGradient gradientTransform="matrix(0.0, 0.0094, 0.0094, 0.0, 12.35, 12.15)" gradientUnits="userSpaceOnUse" id="gradient3" spreadMethod="pad" x1="-819.2" x2="819.2">
      <stop offset="0.0" stop-color="#3277db"/>
      <stop offset="1.0" stop-color="#8cb9fa"/>
    </linearGradient>
    <linearGradient gradientTransform="matrix(0.0, 0.0049, 0.0049, 0.0, 12.35, 8.2)" gradientUnits="userSpaceOnUse" id="gradient4" spreadMethod="pad" x1="-819.2" x2="819.2">
      <stop offset="0.0" stop-color="#8cbbff"/>
      <stop offset="1.0" stop-color="#c1d8fa"/>
    </linearGradient>
    <linearGradient gradientTransform="matrix(3.0E-4, 0.0054, 0.0054, -3.0E-4, 12.1, 12.55)" gradientUnits="userSpaceOnUse" id="gradient5" spreadMethod="pad" x1="-819.2" x2="819.2">
      <stop offset="0.0" stop-color="#fcee21"/>
      <stop offset="1.0" stop-color="#f7931e"/>
    </linearGradient>
  </defs>
</svg>
