<?xml version="1.0" encoding="UTF-8" standalone="no"?>
<svg xmlns:ffdec="https://www.free-decompiler.com/flash" xmlns:xlink="http://www.w3.org/1999/xlink" ffdec:objectType="shape" height="64.8px" width="381.6px" xmlns="http://www.w3.org/2000/svg">
  <g transform="matrix(1.0, 0.0, 0.0, 1.0, 0.0, 0.0)">
    <path d="M381.6 9.0 L381.6 37.2 246.25 37.2 246.25 9.0 381.6 9.0" fill="url(#gradient0)" fill-rule="evenodd" stroke="none"/>
    <path d="M255.3 25.35 L255.35 21.0 267.35 21.0 267.3 25.35 255.3 25.35" fill="url(#gradient1)" fill-rule="evenodd" stroke="none"/>
    <path d="M250.3 27.45 L250.4 19.7 255.6 19.65 Q256.9 19.65 256.65 20.45 L256.7 26.45 Q256.75 27.45 255.45 27.45 L250.3 27.45" fill="#00ffff" fill-rule="evenodd" stroke="none"/>
    <path d="M249.6 18.75 L256.1 18.7 Q257.1 18.7 257.35 19.2 L257.4 19.65 257.4 20.45 255.35 20.45 Q254.8 20.45 254.55 20.8 L254.45 21.15 254.5 25.45 254.55 25.75 255.25 26.0 257.45 26.0 257.45 27.15 257.3 27.8 Q256.9 28.4 255.9 28.4 L249.5 28.4 249.6 18.75" fill="url(#gradient2)" fill-rule="evenodd" stroke="none"/>
    <path d="M252.9 37.2 L252.95 32.85 265.0 32.85 264.9 37.2 252.9 37.2" fill="url(#gradient3)" fill-rule="evenodd" stroke="none"/>
    <path d="M247.9 39.3 L248.0 31.5 253.2 31.5 Q254.5 31.5 254.25 32.25 L254.3 38.3 Q254.35 39.3 253.05 39.3 L247.9 39.3" fill="#00ffff" fill-rule="evenodd" stroke="none"/>
    <path d="M253.7 30.55 Q254.7 30.55 255.0 31.05 L255.05 31.5 255.05 32.3 253.0 32.3 Q252.4 32.3 252.2 32.65 L252.1 33.0 252.15 37.55 252.9 37.8 255.1 37.8 255.1 39.0 254.95 39.6 Q254.55 40.2 253.55 40.2 L241.95 40.25 247.25 30.55 253.7 30.55" fill="url(#gradient4)" fill-rule="evenodd" stroke="none"/>
    <path d="M254.3 13.05 L254.35 8.7 266.35 8.7 266.3 13.05 254.3 13.05" fill="url(#gradient5)" fill-rule="evenodd" stroke="none"/>
    <path d="M249.3 15.15 L249.4 7.4 254.6 7.35 Q255.9 7.35 255.65 8.1 L255.7 14.15 Q255.75 15.15 254.45 15.15 L249.3 15.15" fill="#00ffff" fill-rule="evenodd" stroke="none"/>
    <path d="M255.1 6.4 Q256.1 6.4 256.35 6.9 L256.4 7.35 256.4 8.15 254.35 8.15 Q253.8 8.15 253.55 8.5 L253.45 8.85 253.5 13.15 253.55 13.45 254.25 13.7 256.45 13.7 256.45 14.85 256.3 15.5 Q255.9 16.1 254.9 16.1 L248.5 16.1 248.6 6.45 255.1 6.4" fill="url(#gradient6)" fill-rule="evenodd" stroke="none"/>
    <path d="M213.55 47.95 Q213.75 48.7 213.1 49.25 L204.1 57.5 Q203.15 58.35 201.85 58.35 L47.6 58.35 Q46.75 58.35 46.4 57.7 46.1 57.05 46.8 56.4 L55.6 48.15 Q56.55 47.3 57.85 47.3 L212.35 47.3 Q213.25 47.3 213.55 47.95" fill="#070400" fill-rule="evenodd" stroke="none"/>
    <path d="M212.85 48.25 L212.35 48.05 57.85 48.05 Q56.9 48.05 56.15 48.7 L47.3 56.95 Q47.0 57.2 47.1 57.4 47.2 57.6 47.6 57.6 L201.85 57.6 Q202.8 57.6 203.55 56.95 L212.6 48.7 212.85 48.25 M212.35 46.55 Q213.85 46.55 214.25 47.7 214.7 48.8 213.6 49.8 L204.6 58.05 Q203.4 59.1 201.85 59.1 L47.6 59.1 Q46.15 59.1 45.7 57.95 45.25 56.85 46.3 55.85 L55.1 47.6 Q56.35 46.55 57.85 46.55 L212.35 46.55" fill="#4c4c4c" fill-rule="evenodd" stroke="none"/>
    <path d="M248.95 3.0 L248.95 9.7 Q248.95 10.95 249.35 12.25 249.75 13.6 250.3 14.2 250.85 14.85 251.2 16.15 251.6 17.5 251.6 18.7 L251.6 27.15 Q251.6 28.4 251.05 29.95 L249.7 32.45 237.5 47.5 235.3 49.1 Q233.85 49.8 232.6 49.8 L105.4 49.8 Q104.15 49.8 102.75 50.5 101.35 51.2 100.6 52.2 L92.9 62.4 90.75 64.1 Q89.35 64.8 88.1 64.8 L2.95 64.8 Q1.7 64.8 0.85 63.9 0.0 63.05 0.0 61.8 L0.0 3.0 Q0.0 1.75 0.85 0.9 1.7 0.0 2.95 0.0 L245.95 0.0 Q247.2 0.0 248.05 0.9 248.95 1.75 248.95 3.0" fill="url(#gradient7)" fill-rule="evenodd" stroke="none"/>
    <path d="M59.4 3.85 Q60.65 3.85 61.5 4.75 62.4 5.6 62.4 6.85 L62.4 55.6 Q62.4 56.85 61.5 57.7 60.65 58.6 59.4 58.6 L10.7 58.6 Q9.45 58.6 8.6 57.7 7.7 56.85 7.7 55.6 L7.7 6.85 Q7.7 5.6 8.6 4.75 9.45 3.85 10.7 3.85 L59.4 3.85" fill="url(#gradient8)" fill-rule="evenodd" stroke="none"/>
    <path d="M57.35 5.95 Q58.6 5.95 59.45 6.85 60.35 7.7 60.35 8.95 L60.35 53.5 Q60.35 54.75 59.45 55.6 58.6 56.5 57.35 56.5 L12.75 56.5 Q11.5 56.5 10.65 55.6 9.75 54.75 9.75 53.5 L9.75 8.95 Q9.75 7.7 10.65 6.85 11.5 5.95 12.75 5.95 L57.35 5.95" fill="#010f3f" fill-rule="evenodd" stroke="none"/>
    <path d="M205.2 35.35 Q205.9 36.1 205.9 37.1 L205.9 40.75 Q205.9 41.75 205.2 42.5 204.45 43.25 203.4 43.25 L119.35 43.25 Q118.3 43.25 117.6 42.5 116.85 41.75 116.85 40.75 L116.85 37.1 Q116.85 36.1 117.6 35.35 118.3 34.6 119.35 34.6 L203.4 34.6 Q204.45 34.6 205.2 35.35" fill="#1c1c1c" fill-rule="evenodd" stroke="none"/>
    <path d="M204.8 35.7 Q204.25 35.1 203.4 35.1 L119.35 35.1 Q118.55 35.1 117.95 35.7 117.35 36.3 117.35 37.1 L117.35 40.75 Q117.35 41.6 117.95 42.15 118.55 42.75 119.35 42.75 L203.4 42.75 Q204.25 42.75 204.8 42.15 205.4 41.6 205.4 40.75 L205.4 37.1 Q205.4 36.3 204.8 35.7 M203.4 34.1 Q204.65 34.1 205.5 35.0 206.4 35.85 206.4 37.1 L206.4 40.75 Q206.4 42.0 205.5 42.85 204.65 43.75 203.4 43.75 L119.35 43.75 Q118.1 43.75 117.25 42.85 116.35 42.0 116.35 40.75 L116.35 37.1 Q116.35 35.85 117.25 35.0 118.1 34.1 119.35 34.1 L203.4 34.1" fill="#7c7c7c" fill-rule="evenodd" stroke="none"/>
  </g>
  <defs>
    <linearGradient gradientTransform="matrix(0.1612, 0.0, 0.0, -0.1706, 389.6, 22.2)" gradientUnits="userSpaceOnUse" id="gradient0" spreadMethod="pad" x1="-819.2" x2="819.2">
      <stop offset="0.0" stop-color="#3b73ff" stop-opacity="0.49803922"/>
      <stop offset="0.08627450980392157" stop-color="#3b73ff" stop-opacity="0.2"/>
      <stop offset="0.21176470588235294" stop-color="#3b73ff" stop-opacity="0.101960786"/>
      <stop offset="0.4549019607843137" stop-color="#3b73ff" stop-opacity="0.0"/>
      <stop offset="0.8392156862745098" stop-color="#3b73ff" stop-opacity="0.105882354"/>
      <stop offset="0.9254901960784314" stop-color="#3b73ff" stop-opacity="0.2"/>
      <stop offset="1.0" stop-color="#3b73ff" stop-opacity="0.49803922"/>
    </linearGradient>
    <linearGradient gradientTransform="matrix(0.0073, 0.0, 1.0E-4, -0.0073, 261.3, 23.2)" gradientUnits="userSpaceOnUse" id="gradient1" spreadMethod="pad" x1="-819.2" x2="819.2">
      <stop offset="0.0" stop-color="#0091ff" stop-opacity="0.8"/>
      <stop offset="0.4" stop-color="#3d8fff" stop-opacity="0.44705883"/>
      <stop offset="0.803921568627451" stop-color="#748dff" stop-opacity="0.1254902"/>
      <stop offset="1.0" stop-color="#8a8cff" stop-opacity="0.0"/>
    </linearGradient>
    <linearGradient gradientTransform="matrix(0.0036, -0.0076, -0.0092, -1.0E-4, 253.55, 23.75)" gradientUnits="userSpaceOnUse" id="gradient2" spreadMethod="pad" x1="-819.2" x2="819.2">
      <stop offset="0.0" stop-color="#2b2e2d"/>
      <stop offset="1.0" stop-color="#81878b"/>
    </linearGradient>
    <linearGradient gradientTransform="matrix(0.0073, 0.0, 1.0E-4, -0.0073, 258.95, 35.0)" gradientUnits="userSpaceOnUse" id="gradient3" spreadMethod="pad" x1="-819.2" x2="819.2">
      <stop offset="0.0" stop-color="#0091ff" stop-opacity="0.8"/>
      <stop offset="0.4" stop-color="#3d8fff" stop-opacity="0.44705883"/>
      <stop offset="0.803921568627451" stop-color="#748dff" stop-opacity="0.1254902"/>
      <stop offset="1.0" stop-color="#8a8cff" stop-opacity="0.0"/>
    </linearGradient>
    <linearGradient gradientTransform="matrix(0.0042, -0.0088, -0.0107, -1.0E-4, 248.6, 35.6)" gradientUnits="userSpaceOnUse" id="gradient4" spreadMethod="pad" x1="-819.2" x2="819.2">
      <stop offset="0.0" stop-color="#2b2e2d"/>
      <stop offset="1.0" stop-color="#81878b"/>
    </linearGradient>
    <linearGradient gradientTransform="matrix(0.0073, 0.0, 1.0E-4, -0.0073, 260.3, 10.9)" gradientUnits="userSpaceOnUse" id="gradient5" spreadMethod="pad" x1="-819.2" x2="819.2">
      <stop offset="0.0" stop-color="#0091ff" stop-opacity="0.8"/>
      <stop offset="0.4" stop-color="#3d8fff" stop-opacity="0.44705883"/>
      <stop offset="0.803921568627451" stop-color="#748dff" stop-opacity="0.1254902"/>
      <stop offset="1.0" stop-color="#8a8cff" stop-opacity="0.0"/>
    </linearGradient>
    <linearGradient gradientTransform="matrix(0.0036, -0.0076, -0.0092, -1.0E-4, 252.5, 11.45)" gradientUnits="userSpaceOnUse" id="gradient6" spreadMethod="pad" x1="-819.2" x2="819.2">
      <stop offset="0.0" stop-color="#2b2e2d"/>
      <stop offset="1.0" stop-color="#81878b"/>
    </linearGradient>
    <linearGradient gradientTransform="matrix(0.0, -0.0403, 0.1536, 0.0, 125.8, 31.75)" gradientUnits="userSpaceOnUse" id="gradient7" spreadMethod="pad" x1="-819.2" x2="819.2">
      <stop offset="0.0196078431372549" stop-color="#292929"/>
      <stop offset="0.09411764705882353" stop-color="#404242"/>
      <stop offset="0.3803921568627451" stop-color="#606165"/>
      <stop offset="0.9333333333333333" stop-color="#9898a1"/>
      <stop offset="0.9882352941176471" stop-color="#454647"/>
    </linearGradient>
    <linearGradient gradientTransform="matrix(0.0, -0.0334, -0.0334, 0.0, 35.05, 31.25)" gradientUnits="userSpaceOnUse" id="gradient8" spreadMethod="pad" x1="-819.2" x2="819.2">
      <stop offset="0.0" stop-color="#2e302e"/>
      <stop offset="1.0" stop-color="#474a4a"/>
    </linearGradient>
  </defs>
</svg>
