<?xml version="1.0" encoding="UTF-8" standalone="no"?>
<svg xmlns:ffdec="https://www.free-decompiler.com/flash" xmlns:xlink="http://www.w3.org/1999/xlink" ffdec:objectType="shape" height="40.15px" width="239.0px" xmlns="http://www.w3.org/2000/svg">
  <g transform="matrix(1.0, 0.0, 0.0, 1.0, -4.15, -6.1)">
    <path d="M242.55 6.7 Q243.15 7.3 243.15 8.1 L243.15 19.15 Q243.15 20.0 242.75 21.0 L241.8 22.65 238.55 26.1 237.0 27.15 235.15 27.55 210.65 27.55 206.85 28.05 203.05 28.55 118.65 28.55 114.7 28.1 114.35 28.0 110.4 27.55 95.15 27.55 Q94.35 27.55 93.75 26.95 93.15 26.4 93.15 25.55 L93.0 8.1 Q93.0 7.3 93.6 6.7 94.2 6.1 95.0 6.1 L241.15 6.1 Q242.0 6.1 242.55 6.7" fill="#1b1b1c" fill-rule="evenodd" stroke="none"/>
    <path d="M239.45 9.05 Q239.9 9.5 239.9 10.1 L239.9 17.35 239.55 19.05 238.7 20.55 236.05 23.7 234.75 24.65 233.15 25.05 98.4 25.05 Q97.8 25.05 97.35 24.6 96.9 24.15 96.9 23.55 L96.9 10.1 Q96.9 9.5 97.35 9.05 97.8 8.6 98.4 8.6 L238.4 8.6 Q239.0 8.6 239.45 9.05" fill="url(#gradient0)" fill-rule="evenodd" stroke="none"/>
    <path d="M239.1 9.4 Q238.8 9.1 238.4 9.1 L98.4 9.1 Q98.0 9.1 97.7 9.4 97.4 9.7 97.4 10.1 L97.4 23.55 97.7 24.25 98.4 24.55 233.15 24.55 234.5 24.2 Q235.3 23.85 235.7 23.35 L238.35 20.2 239.1 18.85 239.4 17.35 239.4 10.1 239.1 9.4 M238.4 8.1 Q239.25 8.1 239.8 8.7 240.4 9.3 240.4 10.1 L240.4 17.35 Q240.4 18.15 240.0 19.2 L239.1 20.85 236.45 24.0 234.95 25.1 233.15 25.55 98.4 25.55 Q97.6 25.55 97.0 24.95 96.4 24.4 96.4 23.55 L96.4 10.1 Q96.4 9.3 97.0 8.7 97.6 8.1 98.4 8.1 L238.4 8.1" fill="#0443a8" fill-rule="evenodd" stroke="none"/>
    <path d="M62.35 17.7 L65.95 21.85 65.95 36.7 62.35 40.85 62.35 17.7" fill="url(#gradient1)" fill-rule="evenodd" stroke="none"/>
    <path d="M4.15 36.7 L4.15 21.85 7.75 17.7 7.75 40.85 4.15 36.7" fill="url(#gradient2)" fill-rule="evenodd" stroke="none"/>
    <path d="M94.95 32.0 L111.25 32.0 Q112.3 32.0 113.05 32.75 113.75 33.5 113.75 34.5 L113.75 43.25 Q113.75 44.25 113.05 45.0 112.3 45.75 111.25 45.75 L94.95 45.75 Q93.9 45.75 93.2 45.0 92.45 44.25 92.45 43.25 L92.45 34.5 Q92.45 33.5 93.2 32.75 93.9 32.0 94.95 32.0" fill="url(#gradient3)" fill-rule="evenodd" stroke="none"/>
    <path d="M93.55 33.1 Q92.95 33.7 92.95 34.5 L92.95 43.25 Q92.95 44.1 93.55 44.65 94.15 45.25 94.95 45.25 L111.25 45.25 Q112.1 45.25 112.65 44.65 113.25 44.1 113.25 43.25 L113.25 34.5 Q113.25 33.7 112.65 33.1 112.1 32.5 111.25 32.5 L94.95 32.5 Q94.15 32.5 93.55 33.1 M91.95 34.5 Q91.95 33.25 92.85 32.4 93.7 31.5 94.95 31.5 L111.25 31.5 Q112.5 31.5 113.35 32.4 114.25 33.25 114.25 34.5 L114.25 43.25 Q114.25 44.5 113.35 45.35 112.5 46.25 111.25 46.25 L94.95 46.25 Q93.7 46.25 92.85 45.35 91.95 44.5 91.95 43.25 L91.95 34.5" fill="#3d3e3f" fill-rule="evenodd" stroke="none"/>
  </g>
  <defs>
    <linearGradient gradientTransform="matrix(0.0872, 0.0, 0.0, -0.0872, 168.4, 16.8)" gradientUnits="userSpaceOnUse" id="gradient0" spreadMethod="pad" x1="-819.2" x2="819.2">
      <stop offset="0.0" stop-color="#0b001c"/>
      <stop offset="0.11372549019607843" stop-color="#070733"/>
      <stop offset="0.24705882352941178" stop-color="#030d47"/>
      <stop offset="0.3843137254901961" stop-color="#011153"/>
      <stop offset="0.5176470588235295" stop-color="#001257"/>
      <stop offset="0.6627450980392157" stop-color="#011154"/>
      <stop offset="0.7764705882352941" stop-color="#020e4a"/>
      <stop offset="0.8823529411764706" stop-color="#060939"/>
      <stop offset="0.9803921568627451" stop-color="#0a0222"/>
      <stop offset="1.0" stop-color="#0b001c"/>
    </linearGradient>
    <linearGradient gradientTransform="matrix(0.0, -0.0141, -0.0141, 0.0, 64.15, 29.3)" gradientUnits="userSpaceOnUse" id="gradient1" spreadMethod="pad" x1="-819.2" x2="819.2">
      <stop offset="0.0" stop-color="#2e302e"/>
      <stop offset="1.0" stop-color="#474a4a"/>
    </linearGradient>
    <linearGradient gradientTransform="matrix(0.0, 0.0141, -0.0141, 0.0, 5.95, 29.3)" gradientUnits="userSpaceOnUse" id="gradient2" spreadMethod="pad" x1="-819.2" x2="819.2">
      <stop offset="0.0" stop-color="#2e302e"/>
      <stop offset="1.0" stop-color="#474a4a"/>
    </linearGradient>
    <linearGradient gradientTransform="matrix(0.013, 0.0, 0.0, -0.013, 103.1, 38.85)" gradientUnits="userSpaceOnUse" id="gradient3" spreadMethod="pad" x1="-819.2" x2="819.2">
      <stop offset="0.0" stop-color="#0b001c"/>
      <stop offset="0.03529411764705882" stop-color="#0a062a"/>
      <stop offset="0.12941176470588237" stop-color="#06154e"/>
      <stop offset="0.22745098039215686" stop-color="#03216b"/>
      <stop offset="0.3254901960784314" stop-color="#02297f"/>
      <stop offset="0.4196078431372549" stop-color="#002e8b"/>
      <stop offset="0.5176470588235295" stop-color="#00308f"/>
      <stop offset="0.6274509803921569" stop-color="#002f8c"/>
      <stop offset="0.7137254901960784" stop-color="#012b82"/>
      <stop offset="0.796078431372549" stop-color="#032471"/>
      <stop offset="0.8705882352941177" stop-color="#051a5a"/>
      <stop offset="0.9411764705882353" stop-color="#080d3b"/>
      <stop offset="1.0" stop-color="#0b001c"/>
    </linearGradient>
  </defs>
</svg>
