<?xml version="1.0" encoding="UTF-8" standalone="no"?>
<svg xmlns:ffdec="https://www.free-decompiler.com/flash" xmlns:xlink="http://www.w3.org/1999/xlink" ffdec:objectType="shape" height="3.55px" width="59.3px" xmlns="http://www.w3.org/2000/svg">
  <g transform="matrix(1.0, 0.0, 0.0, 1.0, 0.0, 0.0)">
    <path d="M50.6 0.0 L50.6 3.55 1.0 3.55 Q0.6 3.55 0.3 3.25 0.0 2.95 0.0 2.55 L0.0 1.0 Q0.0 0.6 0.3 0.3 0.6 0.0 1.0 0.0 L50.6 0.0" fill="url(#gradient0)" fill-rule="evenodd" stroke="none"/>
    <path d="M53.75 3.55 L53.75 0.0 58.3 0.0 Q58.7 0.0 59.0 0.3 L59.3 1.0 59.3 2.55 59.0 3.25 58.3 3.55 53.75 3.55" fill="url(#gradient1)" fill-rule="evenodd" stroke="none"/>
    <path d="M53.75 0.0 L53.75 3.55 50.6 3.55 50.6 0.0 53.75 0.0" fill="url(#gradient2)" fill-rule="evenodd" stroke="none"/>
  </g>
  <defs>
    <linearGradient gradientTransform="matrix(0.0353, 0.0, 0.0, -0.0352, 28.9, 1.75)" gradientUnits="userSpaceOnUse" id="gradient0" spreadMethod="pad" x1="-819.2" x2="819.2">
      <stop offset="0.0" stop-color="#0057ff"/>
      <stop offset="1.0" stop-color="#3df252"/>
    </linearGradient>
    <linearGradient gradientTransform="matrix(0.0353, 0.0, 0.0, -0.0352, 30.4, 1.75)" gradientUnits="userSpaceOnUse" id="gradient1" spreadMethod="pad" x1="-819.2" x2="819.2">
      <stop offset="0.0" stop-color="#0057ff"/>
      <stop offset="1.0" stop-color="#3df252"/>
    </linearGradient>
    <linearGradient gradientTransform="matrix(0.0674, 0.0, 0.0, -0.0352, 9.15, 1.75)" gradientUnits="userSpaceOnUse" id="gradient2" spreadMethod="pad" x1="-819.2" x2="819.2">
      <stop offset="0.0" stop-color="#0057ff"/>
      <stop offset="1.0" stop-color="#3df252"/>
    </linearGradient>
  </defs>
</svg>
