<?xml version="1.0" encoding="UTF-8" standalone="no"?>
<svg xmlns:ffdec="https://www.free-decompiler.com/flash" xmlns:xlink="http://www.w3.org/1999/xlink" ffdec:objectType="shape" height="14.75px" width="14.8px" xmlns="http://www.w3.org/2000/svg">
  <g transform="matrix(1.0, 0.0, 0.0, 1.0, 0.0, 0.0)">
    <path d="M9.05 12.15 L10.4 12.15 7.4 14.75 4.45 12.15 5.7 12.15 7.4 12.9 9.05 12.15" fill="#22d1ff" fill-rule="evenodd" stroke="none"/>
    <path d="M9.05 2.6 L7.4 1.85 5.7 2.6 4.45 2.6 7.4 0.0 10.4 2.6 9.05 2.6" fill="#22d1ff" fill-rule="evenodd" stroke="none"/>
    <path d="M14.8 7.4 L12.15 10.35 12.15 9.1 12.95 7.4 12.15 5.75 12.15 4.4 14.8 7.4" fill="#22d1ff" fill-rule="evenodd" stroke="none"/>
    <path d="M0.0 7.4 L2.65 4.4 2.65 5.75 1.85 7.4 2.65 9.1 2.65 10.35 0.0 7.4" fill="#22d1ff" fill-rule="evenodd" stroke="none"/>
    <path d="M11.0 7.15 L11.0 7.75 8.25 8.25 7.7 11.05 7.1 11.05 6.55 8.25 3.8 7.75 3.8 7.15 6.55 6.5 7.1 3.85 7.7 3.85 8.25 6.5 11.0 7.15" fill="#22a1ff" fill-rule="evenodd" stroke="none"/>
  </g>
</svg>
