<?xml version="1.0" encoding="UTF-8" standalone="no"?>
<svg xmlns:ffdec="https://www.free-decompiler.com/flash" xmlns:xlink="http://www.w3.org/1999/xlink" ffdec:objectType="shape" height="33.4px" width="29.35px" xmlns="http://www.w3.org/2000/svg">
  <g transform="matrix(1.0, 0.0, 0.0, 1.0, 0.0, 0.0)">
    <path d="M22.95 11.25 Q23.5 12.6 23.4 14.4 L28.2 13.5 Q28.7 13.5 29.0 13.85 L29.35 14.65 29.35 27.15 Q29.35 28.5 28.35 29.6 27.35 30.7 25.75 31.05 L24.5 31.2 Q22.95 31.2 21.8 30.45 20.65 29.7 20.3 28.45 19.95 27.2 20.65 25.85 21.7 24.15 23.75 23.7 L25.05 23.55 25.5 23.6 25.5 20.75 19.75 21.85 18.8 22.6 18.8 28.55 Q19.15 29.95 18.4 31.1 17.5 32.7 15.3 33.25 L14.05 33.4 Q12.5 33.4 11.35 32.65 10.2 31.9 9.85 30.65 9.45 29.35 10.2 28.05 11.25 26.35 13.3 25.9 L14.55 25.75 14.95 25.75 14.95 24.65 Q12.2 26.3 9.2 26.3 6.9 26.3 5.1 25.3 1.15 23.25 0.25 18.2 -0.65 13.15 2.0 8.15 3.95 4.45 7.15 2.2 10.35 0.0 13.75 0.0 16.0 0.0 17.9 1.0 20.4 2.35 21.75 5.1 23.1 7.85 22.95 11.25" fill="#131c3b" fill-rule="evenodd" stroke="none"/>
    <path d="M13.0 13.95 Q14.45 11.25 16.7 10.0 18.95 8.75 20.7 9.7 22.45 10.6 22.7 13.2 22.95 15.75 21.5 18.45 20.1 21.15 17.8 22.4 15.55 23.65 13.8 22.75 12.05 21.8 11.8 19.25 11.6 16.65 13.0 13.95" fill="url(#gradient0)" fill-rule="evenodd" stroke="none"/>
    <path d="M17.55 1.65 Q21.25 3.6 22.05 8.35 22.9 13.1 20.4 17.85 17.85 22.6 13.45 24.65 9.05 26.65 5.4 24.7 1.75 22.75 0.9 18.0 0.1 13.25 2.6 8.5 5.1 3.7 9.5 1.7 13.85 -0.3 17.55 1.65" fill="url(#gradient1)" fill-rule="evenodd" stroke="none"/>
    <path d="M11.35 1.05 L15.8 0.95 10.05 25.6 Q7.65 25.75 5.8 24.9 L11.35 1.05" fill="#f5f5f5" fill-rule="evenodd" stroke="none"/>
    <path d="M6.05 4.0 L8.95 2.0 3.85 23.65 Q2.8 22.75 2.0 21.3 L6.05 4.0" fill="#f5f5f5" fill-rule="evenodd" stroke="none"/>
    <path d="M16.55 3.55 Q19.65 5.15 20.3 9.15 21.0 13.1 18.9 17.1 16.8 21.1 13.15 22.75 9.5 24.4 6.4 22.8 3.35 21.2 2.7 17.25 2.0 13.25 4.05 9.25 6.15 5.3 9.8 3.6 13.5 1.95 16.55 3.55" fill="url(#gradient2)" fill-rule="evenodd" stroke="none"/>
    <path d="M16.3 5.65 Q18.8 7.0 19.35 10.25 19.95 13.5 18.2 16.7 16.5 19.95 13.5 21.35 10.5 22.7 8.0 21.4 5.5 20.1 4.95 16.85 4.4 13.6 6.1 10.35 7.85 7.1 10.8 5.7 13.8 4.35 16.3 5.65" fill="#131f26" fill-rule="evenodd" stroke="none"/>
    <path d="M16.1 6.2 Q18.45 7.45 19.0 10.5 19.5 13.5 17.9 16.55 16.35 19.6 13.5 20.9 10.7 22.2 8.35 20.95 6.05 19.7 5.5 16.7 5.0 13.65 6.55 10.6 8.15 7.55 10.95 6.25 13.75 4.95 16.1 6.2" fill="url(#gradient3)" fill-rule="evenodd" stroke="none"/>
    <path d="M11.55 6.0 L16.1 6.2 Q18.45 7.45 19.0 10.5 19.5 13.5 17.9 16.55 16.35 19.6 13.5 20.9 10.7 22.2 8.35 20.95 6.3 19.8 5.65 17.25 6.25 19.4 8.2 20.5 10.45 21.65 13.15 20.45 15.8 19.2 17.35 16.25 18.9 13.35 18.4 10.4 17.9 7.5 15.65 6.3 13.85 5.35 11.55 6.0" fill="#bdf3ff" fill-rule="evenodd" stroke="none"/>
    <path d="M11.45 6.05 L16.1 6.2 16.55 6.45 Q16.75 11.45 14.95 15.05 13.2 18.55 9.1 21.25 L8.35 20.95 7.75 20.55 Q10.85 18.3 12.3 15.7 12.0 15.35 12.0 14.7 9.8 12.5 6.0 11.85 L6.55 10.6 Q7.2 9.4 8.2 8.25 11.9 11.15 12.8 13.1 L13.3 12.8 Q13.65 9.65 11.45 6.05" fill="url(#gradient4)" fill-rule="evenodd" stroke="none"/>
    <path d="M15.0 11.6 Q15.85 12.05 16.05 13.15 16.25 14.25 15.7 15.4 15.1 16.5 14.1 16.95 L12.2 17.0 Q11.35 16.55 11.15 15.45 10.95 14.3 11.55 13.2 12.1 12.1 13.15 11.6 14.15 11.15 15.0 11.6" fill="url(#gradient5)" fill-rule="evenodd" stroke="none"/>
    <path d="M12.5 13.15 Q13.05 12.15 13.7 12.5 L14.05 13.05 13.9 13.85 Q13.35 14.85 12.65 14.5 L12.35 13.95 12.5 13.15" fill="#cccccc" fill-rule="evenodd" stroke="none"/>
    <path d="M14.8 17.15 Q14.8 16.6 15.15 16.2 15.5 15.75 16.05 15.65 L21.7 14.6 20.4 17.85 Q18.2 21.85 14.8 23.95 L14.8 17.15" fill="#130e47" fill-rule="evenodd" stroke="none"/>
    <path d="M18.65 21.35 Q18.1 21.45 18.1 22.0 L18.1 29.1 15.65 29.55 15.65 17.15 Q15.65 16.6 16.2 16.5 L28.1 14.25 28.5 14.3 28.65 14.65 28.65 27.05 26.2 27.55 26.2 20.45 Q26.2 19.9 25.65 20.0 L18.65 21.35" fill="url(#gradient6)" fill-rule="evenodd" stroke="none"/>
    <path d="M16.4 17.75 L16.4 29.4 15.65 29.55 15.65 17.15 Q15.65 16.6 16.2 16.5 L28.1 14.25 28.5 14.3 28.65 14.65 28.65 14.9 16.95 17.15 Q16.4 17.25 16.4 17.75" fill="url(#gradient7)" fill-rule="evenodd" stroke="none"/>
    <path d="M26.95 21.05 L26.95 27.4 26.2 27.55 26.2 20.3 25.85 20.0 26.45 20.1 Q26.95 20.35 26.95 21.05" fill="url(#gradient8)" fill-rule="evenodd" stroke="none"/>
    <path d="M18.1 28.65 Q18.5 29.9 17.6 31.05 16.75 32.2 15.15 32.55 L12.25 32.3 Q10.9 31.7 10.5 30.45 10.15 29.2 11.05 28.05 11.95 26.95 13.5 26.55 15.05 26.2 16.4 26.8 17.75 27.4 18.1 28.65" fill="url(#gradient9)" fill-rule="evenodd" stroke="none"/>
    <path d="M28.55 26.5 Q28.9 27.75 28.05 28.9 27.15 30.05 25.6 30.4 L22.65 30.15 Q21.3 29.5 20.95 28.25 20.6 27.0 21.45 25.9 22.35 24.8 23.9 24.4 L26.85 24.65 Q28.2 25.25 28.55 26.5" fill="url(#gradient10)" fill-rule="evenodd" stroke="none"/>
    <path d="M14.7 28.25 L14.6 28.85 13.95 29.3 Q12.9 29.6 12.65 28.9 L12.8 28.3 13.45 27.85 Q14.55 27.55 14.7 28.25" fill="#e6faff" fill-rule="evenodd" stroke="none"/>
    <path d="M25.4 26.0 L25.3 26.6 24.65 27.0 Q23.6 27.3 23.35 26.6 23.15 25.9 24.15 25.55 L24.95 25.55 25.4 26.0" fill="#e6faff" fill-rule="evenodd" stroke="none"/>
  </g>
  <defs>
    <linearGradient gradientTransform="matrix(0.0042, -0.0079, -0.0079, -0.0042, 17.25, 16.2)" gradientUnits="userSpaceOnUse" id="gradient0" spreadMethod="pad" x1="-819.2" x2="819.2">
      <stop offset="0.0" stop-color="#1a1a1a"/>
      <stop offset="0.7098039215686275" stop-color="#707070"/>
      <stop offset="0.8431372549019608" stop-color="#686868"/>
      <stop offset="1.0" stop-color="#404040"/>
    </linearGradient>
    <linearGradient gradientTransform="matrix(-0.0061, 0.014, 0.014, 0.0061, 11.4, 13.35)" gradientUnits="userSpaceOnUse" id="gradient1" spreadMethod="pad" x1="-819.2" x2="819.2">
      <stop offset="0.0" stop-color="#b3b3b3"/>
      <stop offset="1.0" stop-color="#ebebeb"/>
    </linearGradient>
    <linearGradient gradientTransform="matrix(0.0062, -0.0117, -0.0117, -0.0062, 11.5, 13.15)" gradientUnits="userSpaceOnUse" id="gradient2" spreadMethod="pad" x1="-819.2" x2="819.2">
      <stop offset="0.0" stop-color="#1a1a1a"/>
      <stop offset="0.7098039215686275" stop-color="#707070"/>
      <stop offset="0.8431372549019608" stop-color="#686868"/>
      <stop offset="1.0" stop-color="#404040"/>
    </linearGradient>
    <radialGradient cx="0" cy="0" gradientTransform="matrix(0.0049, -0.0092, -0.0092, -0.0049, 13.9, 14.5)" gradientUnits="userSpaceOnUse" id="gradient3" r="819.2" spreadMethod="pad">
      <stop offset="0.0" stop-color="#3645d1"/>
      <stop offset="0.5843137254901961" stop-color="#56a1f1"/>
      <stop offset="0.7333333333333333" stop-color="#5fb9fa"/>
      <stop offset="0.7843137254901961" stop-color="#6bc1fb"/>
      <stop offset="0.8823529411764706" stop-color="#8cd5fc"/>
      <stop offset="1.0" stop-color="#bdf3ff"/>
    </radialGradient>
    <radialGradient cx="0" cy="0" gradientTransform="matrix(0.0047, -0.0089, -0.0089, -0.0047, 13.85, 14.35)" gradientUnits="userSpaceOnUse" id="gradient4" r="819.2" spreadMethod="pad">
      <stop offset="0.00392156862745098" stop-color="#5fb9fa"/>
      <stop offset="0.1568627450980392" stop-color="#6bc1fb"/>
      <stop offset="0.42745098039215684" stop-color="#8cd5fc"/>
      <stop offset="0.7686274509803922" stop-color="#bdf3ff"/>
      <stop offset="1.0" stop-color="#dbf9ff"/>
    </radialGradient>
    <radialGradient cx="0" cy="0" gradientTransform="matrix(0.0019, -0.0037, -0.0037, -0.0019, 13.05, 13.25)" gradientUnits="userSpaceOnUse" id="gradient5" r="819.2" spreadMethod="pad">
      <stop offset="0.0" stop-color="#969696"/>
      <stop offset="0.2980392156862745" stop-color="#686868"/>
      <stop offset="0.9411764705882353" stop-color="#1a1a1a"/>
    </radialGradient>
    <linearGradient gradientTransform="matrix(-0.0012, -0.0058, -0.0058, 0.0012, 21.8, 20.4)" gradientUnits="userSpaceOnUse" id="gradient6" spreadMethod="pad" x1="-819.2" x2="819.2">
      <stop offset="0.0" stop-color="#3645d1"/>
      <stop offset="0.5843137254901961" stop-color="#56a1f1"/>
      <stop offset="0.7333333333333333" stop-color="#5fb9fa"/>
      <stop offset="0.7843137254901961" stop-color="#6bc1fb"/>
      <stop offset="0.8823529411764706" stop-color="#8cd5fc"/>
      <stop offset="1.0" stop-color="#bdf3ff"/>
    </linearGradient>
    <linearGradient gradientTransform="matrix(-0.0012, -0.0057, -0.0057, 0.0012, 21.8, 20.35)" gradientUnits="userSpaceOnUse" id="gradient7" spreadMethod="pad" x1="-819.2" x2="819.2">
      <stop offset="0.0" stop-color="#5fb9fa"/>
      <stop offset="0.1450980392156863" stop-color="#6bbffa"/>
      <stop offset="0.41568627450980394" stop-color="#8ccffc"/>
      <stop offset="0.7725490196078432" stop-color="#c1e8fe"/>
      <stop offset="1.0" stop-color="#e6faff"/>
    </linearGradient>
    <linearGradient gradientTransform="matrix(-7.0E-4, -0.0034, -0.0034, 7.0E-4, 26.3, 22.85)" gradientUnits="userSpaceOnUse" id="gradient8" spreadMethod="pad" x1="-819.2" x2="819.2">
      <stop offset="0.0" stop-color="#5fb9fa"/>
      <stop offset="0.1450980392156863" stop-color="#6bbffa"/>
      <stop offset="0.41568627450980394" stop-color="#8ccffc"/>
      <stop offset="0.7725490196078432" stop-color="#c1e8fe"/>
      <stop offset="1.0" stop-color="#e6faff"/>
    </linearGradient>
    <radialGradient cx="0" cy="0" gradientTransform="matrix(0.0049, -0.0012, -0.0014, -0.0051, 13.3, 29.0)" gradientUnits="userSpaceOnUse" id="gradient9" r="819.2" spreadMethod="pad">
      <stop offset="0.0" stop-color="#bdf3ff"/>
      <stop offset="0.25882352941176473" stop-color="#5fb9fa"/>
      <stop offset="0.3411764705882353" stop-color="#5badf6"/>
      <stop offset="0.4823529411764706" stop-color="#4f8cea"/>
      <stop offset="0.6352941176470588" stop-color="#4163dc"/>
      <stop offset="0.8196078431372549" stop-color="#3645d1"/>
      <stop offset="1.0" stop-color="#605ed1"/>
    </radialGradient>
    <radialGradient cx="0" cy="0" gradientTransform="matrix(0.0049, -0.0012, -0.0014, -0.0051, 23.75, 26.8)" gradientUnits="userSpaceOnUse" id="gradient10" r="819.2" spreadMethod="pad">
      <stop offset="0.0" stop-color="#bdf3ff"/>
      <stop offset="0.25882352941176473" stop-color="#5fb9fa"/>
      <stop offset="0.3411764705882353" stop-color="#5badf6"/>
      <stop offset="0.4823529411764706" stop-color="#4f8cea"/>
      <stop offset="0.6352941176470588" stop-color="#4163dc"/>
      <stop offset="0.8196078431372549" stop-color="#3645d1"/>
      <stop offset="1.0" stop-color="#605ed1"/>
    </radialGradient>
  </defs>
</svg>
