<?xml version="1.0" encoding="UTF-8" standalone="no"?>
<svg xmlns:ffdec="https://www.free-decompiler.com/flash" xmlns:xlink="http://www.w3.org/1999/xlink" ffdec:objectType="shape" height="33.25px" width="29.7px" xmlns="http://www.w3.org/2000/svg">
  <g transform="matrix(1.0, 0.0, 0.0, 1.0, 0.0, 0.0)">
    <path d="M22.9 11.25 Q23.8 13.35 23.1 16.2 L24.5 14.8 Q24.9 14.4 25.5 14.4 26.05 14.4 26.55 14.8 L29.3 17.6 Q29.7 18.0 29.7 18.6 29.7 19.2 29.3 19.6 L25.1 23.8 29.3 28.0 Q29.7 28.5 29.7 29.05 29.7 29.65 29.3 30.05 L26.55 32.85 Q26.05 33.25 25.5 33.25 24.9 33.25 24.5 32.85 L20.3 28.65 16.1 32.85 Q15.6 33.25 15.05 33.25 14.55 33.25 14.05 32.85 L11.3 30.05 Q10.85 29.65 10.85 29.05 10.85 28.4 11.3 28.0 L14.3 25.0 Q11.8 26.3 9.2 26.3 7.0 26.3 5.1 25.3 1.15 23.25 0.2 18.15 -0.65 13.2 1.95 8.15 3.95 4.45 7.15 2.2 10.35 0.0 13.75 0.0 15.9 0.0 17.9 1.0 20.4 2.3 21.75 5.1 23.1 7.85 22.9 11.25" fill="#000000" fill-rule="evenodd" stroke="none"/>
  </g>
</svg>
