<?xml version="1.0" encoding="UTF-8" standalone="no"?>
<svg xmlns:ffdec="https://www.free-decompiler.com/flash" xmlns:xlink="http://www.w3.org/1999/xlink" ffdec:objectType="shape" height="35.15px" width="33.5px" xmlns="http://www.w3.org/2000/svg">
  <g transform="matrix(1.0, 0.0, 0.0, 1.0, 0.0, 0.0)">
    <path d="M33.3 24.1 L33.45 25.0 32.95 25.75 30.25 27.45 30.4 27.9 Q30.65 28.4 30.4 28.8 L29.8 29.45 26.35 30.85 26.5 31.45 Q26.6 32.0 26.3 32.35 L25.55 32.85 13.35 35.15 Q12.4 35.15 12.15 34.2 L11.3 29.5 1.1 27.95 0.65 27.65 0.5 27.15 1.25 23.05 Q0.4 22.1 0.4 20.8 0.4 18.8 2.2 17.9 L2.3 17.4 Q0.6 16.55 0.6 14.7 L0.0 3.7 Q0.0 2.15 1.1 1.1 2.15 0.0 3.7 0.0 5.2 0.0 6.3 1.1 7.35 2.15 7.35 3.7 L7.25 5.8 13.9 3.85 14.25 3.8 Q14.75 3.8 15.05 4.2 15.5 4.75 15.35 5.65 L14.9 8.2 19.05 8.85 Q19.8 8.95 20.3 9.6 20.75 10.3 20.6 11.05 L20.55 11.4 22.8 9.95 23.45 9.75 Q24.05 9.75 24.45 10.3 L33.3 24.1" fill="#000000" fill-rule="evenodd" stroke="none"/>
  </g>
</svg>
