<?xml version="1.0" encoding="UTF-8" standalone="no"?>
<svg xmlns:ffdec="https://www.free-decompiler.com/flash" xmlns:xlink="http://www.w3.org/1999/xlink" ffdec:objectType="shape" height="35.15px" width="33.5px" xmlns="http://www.w3.org/2000/svg">
  <g transform="matrix(1.0, 0.0, 0.0, 1.0, 0.0, 0.0)">
    <path d="M15.05 4.2 Q15.5 4.75 15.35 5.65 L14.9 8.2 19.05 8.85 Q19.8 8.95 20.3 9.6 20.75 10.3 20.6 11.05 L20.55 11.4 22.8 9.95 23.45 9.75 Q24.05 9.75 24.45 10.3 L33.3 24.1 33.45 25.0 32.95 25.75 30.25 27.45 30.4 27.9 Q30.65 28.4 30.4 28.8 L29.8 29.45 26.35 30.85 26.5 31.45 Q26.6 32.0 26.3 32.35 L25.55 32.85 13.35 35.15 Q12.4 35.15 12.15 34.2 L11.3 29.5 1.1 27.95 0.65 27.65 0.5 27.15 1.25 23.05 Q0.4 22.1 0.4 20.8 0.4 18.8 2.2 17.9 L2.3 17.4 Q0.6 16.55 0.6 14.7 L0.0 3.7 Q0.0 2.15 1.1 1.1 2.15 0.0 3.7 0.0 5.2 0.0 6.3 1.1 7.35 2.15 7.35 3.7 L7.25 5.8 13.9 3.85 14.25 3.8 Q14.75 3.8 15.05 4.2" fill="#130e45" fill-rule="evenodd" stroke="none"/>
    <path d="M19.9 10.95 L16.6 28.35 Q16.55 28.85 16.1 29.15 L15.15 29.4 1.2 27.25 4.95 7.4 18.9 9.55 19.7 10.05 Q20.0 10.45 19.9 10.95" fill="url(#gradient0)" fill-rule="evenodd" stroke="none"/>
    <path d="M19.45 9.75 Q20.05 10.25 19.9 10.95 L16.6 28.35 Q16.55 28.85 16.1 29.15 L15.15 29.4 1.2 27.25 1.3 26.65 14.7 28.7 15.65 28.5 Q16.1 28.15 16.15 27.65 L19.45 10.25 19.45 9.75" fill="url(#gradient1)" fill-rule="evenodd" stroke="none"/>
    <path d="M13.3 25.65 L12.75 26.55 Q12.35 26.9 11.85 26.95 L1.7 27.35 1.2 27.25 4.95 7.4 16.35 9.15 13.3 25.65" fill="url(#gradient2)" fill-rule="evenodd" stroke="none"/>
    <path d="M23.85 10.65 L32.7 24.5 Q32.95 24.85 32.55 25.15 L22.25 31.75 Q21.85 31.95 21.6 31.6 L12.75 17.75 Q12.5 17.4 12.9 17.1 L23.2 10.5 Q23.6 10.3 23.85 10.65" fill="url(#gradient3)" fill-rule="evenodd" stroke="none"/>
    <path d="M23.2 10.5 Q23.6 10.3 23.85 10.65 L32.7 24.5 Q32.95 24.85 32.55 25.15 L22.25 31.75 Q21.85 31.95 21.6 31.6 L21.55 31.5 31.8 24.95 Q32.15 24.65 31.95 24.3 L23.15 10.55 23.2 10.5" fill="#8c9099" fill-rule="evenodd" stroke="none"/>
    <path d="M12.9 17.1 L23.2 10.5 Q23.6 10.3 23.85 10.65 L23.9 10.7 13.7 17.25 Q13.25 17.45 13.55 17.9 L22.35 31.65 22.25 31.75 Q21.85 31.95 21.6 31.6 L12.75 17.75 Q12.5 17.4 12.9 17.1" fill="#e6e6e6" fill-rule="evenodd" stroke="none"/>
    <path d="M26.15 16.85 L22.1 19.45 19.3 15.0 23.35 12.45 26.15 16.85" fill="#747987" fill-rule="evenodd" stroke="none"/>
    <path d="M25.3 16.6 L22.3 18.5 20.2 15.2 23.15 13.25 25.3 16.6" fill="#f2f2f2" fill-rule="evenodd" stroke="none"/>
    <path d="M27.4 19.4 L19.5 24.5 19.1 23.85 27.0 18.8 27.4 19.4" fill="#cdd1da" fill-rule="evenodd" stroke="none"/>
    <path d="M27.05 19.4 L19.15 24.45 18.75 23.8 26.65 18.75 27.05 19.4" fill="#3c4254" fill-rule="evenodd" stroke="none"/>
    <path d="M28.45 21.05 L20.55 26.1 20.15 25.5 28.05 20.4 28.45 21.05" fill="#cdd1da" fill-rule="evenodd" stroke="none"/>
    <path d="M28.1 21.0 L20.2 26.1 19.8 25.45 27.7 20.4 28.1 21.0" fill="#3c4254" fill-rule="evenodd" stroke="none"/>
    <path d="M29.5 22.7 L21.6 27.75 21.2 27.1 29.1 22.05 29.5 22.7" fill="#cdd1da" fill-rule="evenodd" stroke="none"/>
    <path d="M29.15 22.65 L21.25 27.7 20.85 27.1 28.75 22.05 29.15 22.65" fill="#3c4254" fill-rule="evenodd" stroke="none"/>
    <path d="M30.55 24.35 L22.65 29.4 22.25 28.75 30.15 23.7 30.55 24.35" fill="#cdd1da" fill-rule="evenodd" stroke="none"/>
    <path d="M30.2 24.3 L22.3 29.35 21.9 28.7 29.8 23.65 30.2 24.3" fill="#3c4254" fill-rule="evenodd" stroke="none"/>
    <path d="M23.55 13.0 L29.75 28.2 Q29.9 28.65 29.5 28.8 L18.2 33.4 Q17.75 33.55 17.6 33.15 L11.4 17.95 Q11.25 17.5 11.65 17.35 L22.95 12.75 Q23.4 12.6 23.55 13.0" fill="url(#gradient4)" fill-rule="evenodd" stroke="none"/>
    <path d="M22.95 12.75 Q23.4 12.6 23.55 13.0 L29.75 28.2 Q29.9 28.65 29.5 28.8 L18.2 33.4 Q17.75 33.55 17.6 33.15 L17.55 33.1 28.8 28.5 Q29.25 28.35 29.05 27.85 L22.9 12.75 22.95 12.75" fill="#8c9099" fill-rule="evenodd" stroke="none"/>
    <path d="M11.65 17.35 L22.95 12.75 Q23.4 12.6 23.55 13.0 L23.6 13.05 12.4 17.6 Q11.95 17.8 12.15 18.25 L18.3 33.4 18.2 33.4 Q17.75 33.55 17.6 33.15 L11.4 17.95 Q11.25 17.5 11.65 17.35" fill="#e6e6e6" fill-rule="evenodd" stroke="none"/>
    <path d="M22.75 14.65 L24.7 19.5 20.25 21.3 18.3 16.45 22.75 14.65" fill="#747987" fill-rule="evenodd" stroke="none"/>
    <path d="M22.4 15.45 L23.9 19.05 20.65 20.4 19.15 16.75 22.4 15.45" fill="#f2f2f2" fill-rule="evenodd" stroke="none"/>
    <path d="M25.5 22.25 L16.8 25.8 16.5 25.1 25.2 21.55 25.5 22.25" fill="#cdd1da" fill-rule="evenodd" stroke="none"/>
    <path d="M25.15 22.15 L16.45 25.7 16.2 25.0 24.85 21.45 25.15 22.15" fill="#3c4254" fill-rule="evenodd" stroke="none"/>
    <path d="M26.2 24.05 L17.55 27.6 17.25 26.9 25.95 23.35 26.2 24.05" fill="#cdd1da" fill-rule="evenodd" stroke="none"/>
    <path d="M25.9 23.95 L17.2 27.5 16.9 26.8 25.6 23.25 25.9 23.95" fill="#3c4254" fill-rule="evenodd" stroke="none"/>
    <path d="M26.95 25.85 L18.25 29.4 18.0 28.7 26.65 25.15 26.95 25.85" fill="#cdd1da" fill-rule="evenodd" stroke="none"/>
    <path d="M26.65 25.75 L17.95 29.3 17.65 28.6 26.35 25.05 26.65 25.75" fill="#3c4254" fill-rule="evenodd" stroke="none"/>
    <path d="M27.7 27.65 L19.0 31.2 18.7 30.5 27.4 26.95 27.7 27.65" fill="#cdd1da" fill-rule="evenodd" stroke="none"/>
    <path d="M27.35 27.55 L18.7 31.1 18.4 30.4 27.1 26.85 27.35 27.55" fill="#3c4254" fill-rule="evenodd" stroke="none"/>
    <path d="M22.75 15.45 L25.8 31.6 Q25.9 32.05 25.4 32.15 L13.4 34.4 Q12.95 34.5 12.85 34.05 L9.8 17.9 Q9.7 17.45 10.2 17.35 L22.2 15.1 Q22.65 15.0 22.75 15.45" fill="url(#gradient5)" fill-rule="evenodd" stroke="none"/>
    <path d="M22.2 15.1 Q22.65 15.0 22.75 15.45 L25.8 31.6 Q25.9 32.05 25.4 32.15 L13.4 34.4 Q12.95 34.5 12.85 34.05 L12.85 33.95 24.8 31.7 Q25.25 31.6 25.15 31.15 L22.15 15.1 22.2 15.1" fill="#8c9099" fill-rule="evenodd" stroke="none"/>
    <path d="M10.2 17.35 L22.2 15.1 Q22.65 15.0 22.75 15.45 L22.75 15.5 10.85 17.8 Q10.4 17.8 10.5 18.35 L13.55 34.4 13.4 34.4 Q12.95 34.5 12.85 34.05 L9.8 17.9 Q9.7 17.45 10.2 17.35" fill="#e6e6e6" fill-rule="evenodd" stroke="none"/>
    <path d="M16.85 17.8 L21.6 16.9 22.6 22.05 17.85 22.95 16.85 17.8" fill="#747987" fill-rule="evenodd" stroke="none"/>
    <path d="M21.85 21.5 L18.4 22.15 17.65 18.3 21.15 17.65 21.85 21.5" fill="#f2f2f2" fill-rule="evenodd" stroke="none"/>
    <path d="M22.8 24.9 L13.55 26.65 13.4 25.9 22.65 24.15 22.8 24.9" fill="#cdd1da" fill-rule="evenodd" stroke="none"/>
    <path d="M22.5 24.75 L13.25 26.5 13.1 25.75 22.35 24.0 22.5 24.75" fill="#3c4254" fill-rule="evenodd" stroke="none"/>
    <path d="M23.15 26.85 L13.9 28.6 13.8 27.85 23.0 26.1 23.15 26.85" fill="#cdd1da" fill-rule="evenodd" stroke="none"/>
    <path d="M22.85 26.65 L13.6 28.4 13.5 27.65 22.7 25.9 22.85 26.65" fill="#3c4254" fill-rule="evenodd" stroke="none"/>
    <path d="M23.5 28.75 L14.3 30.5 14.15 29.75 23.35 28.0 23.5 28.75" fill="#cdd1da" fill-rule="evenodd" stroke="none"/>
    <path d="M23.2 28.6 L14.0 30.35 13.85 29.6 23.05 27.85 23.2 28.6" fill="#3c4254" fill-rule="evenodd" stroke="none"/>
    <path d="M23.85 30.65 L14.65 32.4 14.5 31.65 23.75 29.9 23.85 30.65" fill="#cdd1da" fill-rule="evenodd" stroke="none"/>
    <path d="M23.55 30.5 L14.35 32.25 14.2 31.5 23.45 29.75 23.55 30.5" fill="#3c4254" fill-rule="evenodd" stroke="none"/>
    <path d="M10.2 17.35 L15.0 16.45 13.45 25.0 Q13.2 26.2 12.4 26.45 L11.5 26.75 9.8 17.9 Q9.7 17.45 10.2 17.35" fill="#747987" fill-rule="evenodd" stroke="none"/>
    <path d="M14.65 5.55 L11.45 23.1 11.05 24.05 10.45 24.55 1.2 27.25 4.85 7.2 14.1 4.55 14.6 4.75 14.65 5.55" fill="url(#gradient6)" fill-rule="evenodd" stroke="none"/>
    <path d="M14.15 4.5 L14.6 4.75 14.65 5.55 11.45 23.1 11.05 24.05 10.45 24.55 1.2 27.25 1.3 26.7 9.95 24.2 10.55 23.65 10.95 22.7 14.15 5.15 14.15 4.5" fill="url(#gradient7)" fill-rule="evenodd" stroke="none"/>
    <path d="M4.85 7.2 L5.55 7.0 1.9 27.05 1.2 27.25 4.85 7.2" fill="url(#gradient8)" fill-rule="evenodd" stroke="none"/>
    <path d="M8.35 6.2 L7.85 15.35 Q7.85 16.35 7.15 17.0 6.5 17.7 5.5 17.7 4.7 17.7 4.1 17.25 3.5 16.75 3.25 16.05 L4.85 7.2 8.35 6.2" fill="url(#gradient9)" fill-rule="evenodd" stroke="none"/>
    <path d="M7.35 19.6 Q8.1 20.35 8.1 21.45 8.1 22.55 7.35 23.3 6.55 24.05 5.5 24.05 4.4 24.05 3.65 23.3 2.9 22.55 2.9 21.45 2.9 20.35 3.65 19.6 4.4 18.85 5.5 18.85 6.55 18.85 7.35 19.6" fill="url(#gradient10)" fill-rule="evenodd" stroke="none"/>
    <path d="M5.55 19.0 Q6.3 19.75 6.3 20.8 6.3 21.9 5.55 22.65 4.75 23.4 3.7 23.4 2.6 23.4 1.85 22.65 1.1 21.9 1.1 20.8 1.1 19.75 1.85 19.0 2.6 18.25 3.7 18.25 4.75 18.25 5.55 19.0" fill="url(#gradient11)" fill-rule="evenodd" stroke="none"/>
    <path d="M6.05 14.7 Q6.05 15.7 5.35 16.35 4.7 17.05 3.7 17.05 2.7 17.05 2.0 16.35 1.3 15.65 1.3 14.7 L0.7 3.7 Q0.7 2.45 1.6 1.6 2.45 0.7 3.7 0.7 4.9 0.7 5.8 1.6 6.65 2.45 6.65 3.7 L6.05 14.7" fill="url(#gradient12)" fill-rule="evenodd" stroke="none"/>
    <path d="M3.65 5.0 L3.4 5.65 Q3.1 5.95 2.75 5.95 2.4 5.95 2.15 5.65 1.9 5.4 1.9 5.0 1.9 4.65 2.15 4.35 2.4 4.1 2.75 4.1 3.15 4.1 3.4 4.35 L3.65 5.0" fill="#ffffba" fill-rule="evenodd" stroke="none"/>
    <path d="M3.65 19.9 Q3.65 20.65 2.95 20.65 2.2 20.65 2.2 19.9 L2.45 19.4 Q2.65 19.15 2.95 19.15 L3.45 19.4 3.65 19.9" fill="#ffff8f" fill-rule="evenodd" stroke="none"/>
  </g>
  <defs>
    <linearGradient gradientTransform="matrix(-0.0019, -0.008, -0.008, 0.0019, 11.3, 21.85)" gradientUnits="userSpaceOnUse" id="gradient0" spreadMethod="pad" x1="-819.2" x2="819.2">
      <stop offset="0.0" stop-color="#70e9ff"/>
      <stop offset="1.0" stop-color="#1e96fd"/>
    </linearGradient>
    <radialGradient cx="0" cy="0" gradientTransform="matrix(0.0117, 0.0, 0.0, -0.0117, 14.55, 28.8)" gradientUnits="userSpaceOnUse" id="gradient1" r="819.2" spreadMethod="pad">
      <stop offset="0.36470588235294116" stop-color="#dbffff"/>
      <stop offset="1.0" stop-color="#8dffff"/>
    </radialGradient>
    <linearGradient gradientTransform="matrix(-0.0017, -0.0069, -0.0069, 0.0017, 9.25, 20.2)" gradientUnits="userSpaceOnUse" id="gradient2" spreadMethod="pad" x1="-819.2" x2="819.2">
      <stop offset="0.0" stop-color="#4884db"/>
      <stop offset="1.0" stop-color="#324485"/>
    </linearGradient>
    <linearGradient gradientTransform="matrix(-0.0103, -0.0092, -0.0092, 0.0103, 22.6, 21.0)" gradientUnits="userSpaceOnUse" id="gradient3" spreadMethod="pad" x1="-819.2" x2="819.2">
      <stop offset="0.0" stop-color="#cdd1da"/>
      <stop offset="1.0" stop-color="#8c9099"/>
    </linearGradient>
    <linearGradient gradientTransform="matrix(-0.0085, -0.0109, -0.0109, 0.0085, 20.45, 22.95)" gradientUnits="userSpaceOnUse" id="gradient4" spreadMethod="pad" x1="-819.2" x2="819.2">
      <stop offset="0.0" stop-color="#cdd1da"/>
      <stop offset="1.0" stop-color="#8c9099"/>
    </linearGradient>
    <linearGradient gradientTransform="matrix(-0.0062, -0.0124, -0.0124, 0.0062, 17.7, 24.6)" gradientUnits="userSpaceOnUse" id="gradient5" spreadMethod="pad" x1="-819.2" x2="819.2">
      <stop offset="0.0" stop-color="#cdd1da"/>
      <stop offset="1.0" stop-color="#8c9099"/>
    </linearGradient>
    <linearGradient gradientTransform="matrix(-0.0027, -0.0097, -0.0098, 0.0029, 7.55, 14.8)" gradientUnits="userSpaceOnUse" id="gradient6" spreadMethod="pad" x1="-819.2" x2="819.2">
      <stop offset="0.0" stop-color="#70e9ff"/>
      <stop offset="1.0" stop-color="#1e96fd"/>
    </linearGradient>
    <radialGradient cx="0" cy="0" gradientTransform="matrix(0.0139, 0.0, 0.0, -0.0139, 11.35, 22.45)" gradientUnits="userSpaceOnUse" id="gradient7" r="819.2" spreadMethod="pad">
      <stop offset="0.36470588235294116" stop-color="#dbffff"/>
      <stop offset="1.0" stop-color="#8dffff"/>
    </radialGradient>
    <linearGradient gradientTransform="matrix(-0.0034, -0.0121, -0.0121, 0.0034, 3.35, 17.0)" gradientUnits="userSpaceOnUse" id="gradient8" spreadMethod="pad" x1="-819.2" x2="819.2">
      <stop offset="0.0" stop-color="#4884db"/>
      <stop offset="1.0" stop-color="#6198eb"/>
    </linearGradient>
    <linearGradient gradientTransform="matrix(0.0013, -0.0098, -0.0098, -0.0013, 5.6, 15.2)" gradientUnits="userSpaceOnUse" id="gradient9" spreadMethod="pad" x1="-819.2" x2="819.2">
      <stop offset="0.0" stop-color="#4884db"/>
      <stop offset="1.0" stop-color="#264b85"/>
    </linearGradient>
    <linearGradient gradientTransform="matrix(0.0013, -0.0098, -0.0098, -0.0013, 6.3, 15.3)" gradientUnits="userSpaceOnUse" id="gradient10" spreadMethod="pad" x1="-819.2" x2="819.2">
      <stop offset="0.0" stop-color="#4884db"/>
      <stop offset="1.0" stop-color="#264b85"/>
    </linearGradient>
    <radialGradient cx="0" cy="0" gradientTransform="matrix(0.0034, 0.0, 0.0, -0.0034, 3.25, 20.25)" gradientUnits="userSpaceOnUse" id="gradient11" r="819.2" spreadMethod="pad">
      <stop offset="0.0" stop-color="#ffff30"/>
      <stop offset="0.8235294117647058" stop-color="#e56622"/>
      <stop offset="1.0" stop-color="#e5b095"/>
    </radialGradient>
    <radialGradient cx="0" cy="0" gradientTransform="matrix(0.0146, 0.0, 0.0, -0.0146, 2.15, 5.4)" gradientUnits="userSpaceOnUse" id="gradient12" r="819.2" spreadMethod="pad">
      <stop offset="0.0" stop-color="#ffff30"/>
      <stop offset="0.8235294117647058" stop-color="#e56622"/>
      <stop offset="1.0" stop-color="#e5b095"/>
    </radialGradient>
  </defs>
</svg>
