<?xml version="1.0" encoding="UTF-8" standalone="no"?>
<svg xmlns:ffdec="https://www.free-decompiler.com/flash" xmlns:xlink="http://www.w3.org/1999/xlink" ffdec:objectType="shape" height="37.6px" width="35.8px" xmlns="http://www.w3.org/2000/svg">
  <g transform="matrix(1.0, 0.0, 0.0, 1.0, 1.2, 1.25)">
    <path d="M14.9 3.25 Q15.35 3.85 15.2 4.8 L14.7 7.5 19.15 8.2 Q19.95 8.3 20.5 9.0 21.0 9.75 20.8 10.55 L20.75 10.95 23.15 9.4 23.85 9.15 Q24.5 9.15 24.95 9.75 L34.4 24.5 34.55 25.5 34.0 26.3 31.15 28.1 31.3 28.6 Q31.55 29.1 31.3 29.55 L30.65 30.25 26.95 31.75 27.15 32.4 Q27.25 32.95 26.9 33.35 26.55 33.8 26.1 33.85 L13.05 36.35 Q12.05 36.35 11.8 35.3 L10.9 30.3 -0.05 28.65 -0.5 28.3 -0.65 27.8 0.15 23.4 Q-0.8 22.4 -0.8 21.0 -0.8 18.85 1.15 17.9 L1.25 17.35 Q-0.55 16.45 -0.55 14.45 L-1.2 2.7 Q-1.2 1.05 -0.05 -0.1 1.1 -1.25 2.75 -1.25 4.35 -1.25 5.55 -0.1 6.65 1.05 6.65 2.7 L6.55 4.95 13.65 2.85 14.05 2.8 Q14.55 2.8 14.9 3.25" fill="#130e45" fill-rule="evenodd" stroke="none"/>
    <path d="M20.05 10.45 L16.55 29.05 16.0 29.9 Q15.55 30.3 15.0 30.2 L0.1 27.9 4.1 6.65 19.0 8.95 Q19.6 9.05 19.85 9.5 20.2 9.9 20.05 10.45" fill="url(#gradient0)" fill-rule="evenodd" stroke="none"/>
    <path d="M19.6 9.15 Q20.25 9.7 20.05 10.45 L16.55 29.05 16.0 29.9 Q15.55 30.3 15.0 30.2 L0.1 27.9 0.2 27.25 14.5 29.45 15.55 29.2 Q16.0 28.85 16.05 28.3 L19.6 9.7 19.6 9.15" fill="url(#gradient1)" fill-rule="evenodd" stroke="none"/>
    <path d="M13.0 26.15 L12.45 27.15 11.45 27.55 0.6 28.0 0.1 27.9 4.1 6.65 16.25 8.55 13.0 26.15" fill="url(#gradient2)" fill-rule="evenodd" stroke="none"/>
    <path d="M24.3 10.15 L33.75 24.95 Q34.0 25.3 33.6 25.65 L22.6 32.7 Q22.15 32.9 21.9 32.55 L12.45 17.75 Q12.15 17.35 12.6 17.05 L23.6 10.0 Q24.05 9.75 24.3 10.15" fill="url(#gradient3)" fill-rule="evenodd" stroke="none"/>
    <path d="M23.6 10.0 Q24.05 9.75 24.3 10.15 L33.75 24.95 Q34.0 25.3 33.6 25.65 L22.6 32.7 Q22.15 32.9 21.9 32.55 L21.85 32.45 32.8 25.45 Q33.15 25.1 32.95 24.75 L23.55 10.05 23.6 10.0" fill="#8c9099" fill-rule="evenodd" stroke="none"/>
    <path d="M12.6 17.05 L23.6 10.0 Q24.05 9.75 24.3 10.15 L24.35 10.2 13.45 17.2 Q12.95 17.4 13.3 17.9 L22.7 32.6 22.6 32.7 Q22.15 32.9 21.9 32.55 L12.45 17.75 Q12.15 17.35 12.6 17.05" fill="#e6e6e6" fill-rule="evenodd" stroke="none"/>
    <path d="M26.75 16.75 L22.4 19.55 19.45 14.8 23.75 12.05 26.75 16.75" fill="#747987" fill-rule="evenodd" stroke="none"/>
    <path d="M25.85 16.5 L22.65 18.55 20.4 15.0 23.55 12.9 25.85 16.5" fill="#f2f2f2" fill-rule="evenodd" stroke="none"/>
    <path d="M28.1 19.5 L19.65 24.95 19.2 24.25 27.65 18.85 28.1 19.5" fill="#cdd1da" fill-rule="evenodd" stroke="none"/>
    <path d="M27.7 19.5 L19.25 24.9 18.85 24.2 27.3 18.8 27.7 19.5" fill="#3c4254" fill-rule="evenodd" stroke="none"/>
    <path d="M29.2 21.25 L20.75 26.65 20.35 26.0 28.8 20.55 29.2 21.25" fill="#cdd1da" fill-rule="evenodd" stroke="none"/>
    <path d="M28.85 21.2 L20.4 26.65 19.95 25.95 28.4 20.55 28.85 21.2" fill="#3c4254" fill-rule="evenodd" stroke="none"/>
    <path d="M30.35 23.0 L21.9 28.4 21.45 27.7 29.9 22.35 30.35 23.0" fill="#cdd1da" fill-rule="evenodd" stroke="none"/>
    <path d="M29.95 22.95 L21.5 28.35 21.1 27.7 29.55 22.35 29.95 22.95" fill="#3c4254" fill-rule="evenodd" stroke="none"/>
    <path d="M31.45 24.8 L23.0 30.2 22.6 29.5 31.05 24.1 31.45 24.8" fill="#cdd1da" fill-rule="evenodd" stroke="none"/>
    <path d="M31.1 24.75 L22.65 30.15 22.2 29.45 30.65 24.05 31.1 24.75" fill="#3c4254" fill-rule="evenodd" stroke="none"/>
    <path d="M23.95 12.65 L30.6 28.9 Q30.75 29.4 30.35 29.55 L18.25 34.45 Q17.75 34.6 17.6 34.2 L11.0 17.95 Q10.8 17.45 11.25 17.3 L23.35 12.4 Q23.8 12.2 23.95 12.65" fill="url(#gradient4)" fill-rule="evenodd" stroke="none"/>
    <path d="M23.35 12.4 Q23.8 12.2 23.95 12.65 L30.6 28.9 Q30.75 29.4 30.35 29.55 L18.25 34.45 Q17.75 34.6 17.6 34.2 L17.55 34.15 29.6 29.2 Q30.05 29.05 29.85 28.55 L23.3 12.4 23.35 12.4" fill="#8c9099" fill-rule="evenodd" stroke="none"/>
    <path d="M11.25 17.3 L23.35 12.4 Q23.8 12.2 23.95 12.65 L24.05 12.7 12.05 17.55 Q11.55 17.8 11.8 18.25 L18.35 34.45 18.25 34.45 Q17.75 34.6 17.6 34.2 L11.0 17.95 Q10.8 17.45 11.25 17.3" fill="#e6e6e6" fill-rule="evenodd" stroke="none"/>
    <path d="M23.1 14.4 L25.2 19.6 20.45 21.5 18.35 16.35 23.1 14.4" fill="#747987" fill-rule="evenodd" stroke="none"/>
    <path d="M22.75 15.25 L24.35 19.1 20.85 20.55 19.25 16.65 22.75 15.25" fill="#f2f2f2" fill-rule="evenodd" stroke="none"/>
    <path d="M26.05 22.55 L16.75 26.35 16.45 25.6 25.75 21.8 26.05 22.55" fill="#cdd1da" fill-rule="evenodd" stroke="none"/>
    <path d="M25.7 22.45 L16.4 26.25 16.1 25.5 25.35 21.7 25.7 22.45" fill="#3c4254" fill-rule="evenodd" stroke="none"/>
    <path d="M26.8 24.45 L17.55 28.25 17.25 27.5 26.55 23.7 26.8 24.45" fill="#cdd1da" fill-rule="evenodd" stroke="none"/>
    <path d="M26.5 24.35 L17.2 28.15 16.85 27.4 26.15 23.6 26.5 24.35" fill="#3c4254" fill-rule="evenodd" stroke="none"/>
    <path d="M27.6 26.4 L18.3 30.2 18.05 29.45 27.3 25.65 27.6 26.4" fill="#cdd1da" fill-rule="evenodd" stroke="none"/>
    <path d="M27.3 26.3 L18.0 30.1 17.65 29.35 26.95 25.55 27.3 26.3" fill="#3c4254" fill-rule="evenodd" stroke="none"/>
    <path d="M28.4 28.3 L19.1 32.1 18.8 31.35 28.1 27.55 28.4 28.3" fill="#cdd1da" fill-rule="evenodd" stroke="none"/>
    <path d="M28.05 28.2 L18.8 32.0 18.45 31.25 27.75 27.45 28.05 28.2" fill="#3c4254" fill-rule="evenodd" stroke="none"/>
    <path d="M23.1 15.25 L26.4 32.55 Q26.5 33.0 25.95 33.1 L13.1 35.55 Q12.65 35.65 12.55 35.15 L9.25 17.9 Q9.15 17.4 9.7 17.3 L22.55 14.9 Q23.0 14.8 23.1 15.25" fill="url(#gradient5)" fill-rule="evenodd" stroke="none"/>
    <path d="M22.55 14.9 Q23.0 14.8 23.1 15.25 L26.4 32.55 Q26.5 33.0 25.95 33.1 L13.1 35.55 Q12.65 35.65 12.55 35.15 L12.55 35.05 25.3 32.65 Q25.8 32.55 25.7 32.05 L22.5 14.9 22.55 14.9" fill="#8c9099" fill-rule="evenodd" stroke="none"/>
    <path d="M9.7 17.3 L22.55 14.9 Q23.0 14.8 23.1 15.25 L23.1 15.3 10.4 17.8 Q9.9 17.8 10.0 18.35 L13.3 35.55 13.1 35.55 Q12.65 35.65 12.55 35.15 L9.25 17.9 Q9.15 17.4 9.7 17.3" fill="#e6e6e6" fill-rule="evenodd" stroke="none"/>
    <path d="M16.8 17.8 L21.9 16.8 22.95 22.35 17.9 23.3 16.8 17.8" fill="#747987" fill-rule="evenodd" stroke="none"/>
    <path d="M22.15 21.75 L18.45 22.45 17.65 18.3 21.4 17.6 22.15 21.75" fill="#f2f2f2" fill-rule="evenodd" stroke="none"/>
    <path d="M23.15 25.35 L13.3 27.25 13.1 26.45 23.0 24.55 23.15 25.35" fill="#cdd1da" fill-rule="evenodd" stroke="none"/>
    <path d="M22.85 25.2 L12.95 27.1 12.8 26.3 22.7 24.4 22.85 25.2" fill="#3c4254" fill-rule="evenodd" stroke="none"/>
    <path d="M23.55 27.45 L13.65 29.35 13.55 28.55 23.4 26.65 23.55 27.45" fill="#cdd1da" fill-rule="evenodd" stroke="none"/>
    <path d="M23.2 27.25 L13.35 29.1 13.25 28.3 23.05 26.45 23.2 27.25" fill="#3c4254" fill-rule="evenodd" stroke="none"/>
    <path d="M23.9 29.5 L14.1 31.35 13.9 30.55 23.75 28.7 23.9 29.5" fill="#cdd1da" fill-rule="evenodd" stroke="none"/>
    <path d="M23.6 29.35 L13.75 31.2 13.6 30.4 23.45 28.55 23.6 29.35" fill="#3c4254" fill-rule="evenodd" stroke="none"/>
    <path d="M24.3 31.5 L14.45 33.4 14.3 32.6 24.2 30.7 24.3 31.5" fill="#cdd1da" fill-rule="evenodd" stroke="none"/>
    <path d="M23.95 31.35 L14.15 33.25 14.0 32.45 23.85 30.55 23.95 31.35" fill="#3c4254" fill-rule="evenodd" stroke="none"/>
    <path d="M9.7 17.3 L14.85 16.35 13.15 25.5 Q12.9 26.75 12.05 27.05 L11.1 27.35 9.25 17.9 Q9.15 17.4 9.7 17.3" fill="#747987" fill-rule="evenodd" stroke="none"/>
    <path d="M14.45 4.7 L11.05 23.45 10.6 24.45 9.95 25.0 0.1 27.9 4.0 6.45 13.85 3.6 Q14.2 3.5 14.4 3.85 L14.45 4.7" fill="url(#gradient6)" fill-rule="evenodd" stroke="none"/>
    <path d="M13.9 3.55 L14.4 3.85 14.45 4.7 11.05 23.45 10.6 24.45 9.95 25.0 0.1 27.9 0.2 27.3 9.45 24.6 10.05 24.05 10.5 23.0 13.9 4.25 13.9 3.55" fill="url(#gradient7)" fill-rule="evenodd" stroke="none"/>
    <path d="M4.0 6.45 L4.75 6.25 0.8 27.65 0.1 27.9 4.0 6.45" fill="url(#gradient8)" fill-rule="evenodd" stroke="none"/>
    <path d="M7.7 5.4 L7.2 15.15 Q7.2 16.25 6.45 16.95 5.75 17.65 4.65 17.65 3.8 17.65 3.2 17.2 2.55 16.65 2.25 15.9 L4.0 6.45 7.7 5.4" fill="url(#gradient9)" fill-rule="evenodd" stroke="none"/>
    <path d="M6.65 19.7 Q7.45 20.5 7.45 21.7 7.45 22.85 6.65 23.65 5.8 24.45 4.65 24.45 3.5 24.45 2.7 23.65 1.9 22.85 1.9 21.7 1.9 20.5 2.7 19.7 3.5 18.9 4.65 18.9 5.8 18.9 6.65 19.7" fill="url(#gradient10)" fill-rule="evenodd" stroke="none"/>
    <path d="M4.75 19.05 Q5.55 19.85 5.55 21.0 5.55 22.15 4.75 22.95 3.85 23.75 2.75 23.75 1.55 23.75 0.75 22.95 -0.05 22.15 -0.05 21.0 -0.05 19.85 0.75 19.05 1.55 18.25 2.75 18.25 3.85 18.25 4.75 19.05" fill="url(#gradient11)" fill-rule="evenodd" stroke="none"/>
    <path d="M5.25 14.45 Q5.25 15.55 4.5 16.25 3.8 17.0 2.75 17.0 1.7 17.0 0.95 16.25 0.2 15.5 0.2 14.45 L-0.45 2.7 Q-0.45 1.35 0.5 0.45 1.4 -0.5 2.75 -0.5 4.05 -0.5 5.0 0.45 5.9 1.35 5.9 2.7 L5.25 14.45" fill="url(#gradient12)" fill-rule="evenodd" stroke="none"/>
    <path d="M2.7 4.1 L2.45 4.8 1.75 5.1 Q1.35 5.1 1.1 4.8 L0.8 4.1 Q0.8 3.7 1.1 3.4 L1.75 3.15 2.45 3.4 2.7 4.1" fill="#ffffba" fill-rule="evenodd" stroke="none"/>
    <path d="M2.7 20.05 Q2.7 20.85 1.95 20.85 1.15 20.85 1.15 20.05 1.15 19.7 1.4 19.5 1.65 19.2 1.95 19.2 2.2 19.2 2.5 19.5 L2.7 20.05" fill="#ffff8f" fill-rule="evenodd" stroke="none"/>
  </g>
  <defs>
    <linearGradient gradientTransform="matrix(-0.0021, -0.0085, -0.0085, 0.0021, 10.9, 22.1)" gradientUnits="userSpaceOnUse" id="gradient0" spreadMethod="pad" x1="-819.2" x2="819.2">
      <stop offset="0.0" stop-color="#70e9ff"/>
      <stop offset="1.0" stop-color="#1e96fd"/>
    </linearGradient>
    <radialGradient cx="0" cy="0" gradientTransform="matrix(0.0125, 0.0, 0.0, -0.0125, 14.35, 29.55)" gradientUnits="userSpaceOnUse" id="gradient1" r="819.2" spreadMethod="pad">
      <stop offset="0.36470588235294116" stop-color="#dbffff"/>
      <stop offset="1.0" stop-color="#8dffff"/>
    </radialGradient>
    <linearGradient gradientTransform="matrix(-0.0018, -0.0074, -0.0074, 0.0018, 8.7, 20.35)" gradientUnits="userSpaceOnUse" id="gradient2" spreadMethod="pad" x1="-819.2" x2="819.2">
      <stop offset="0.0" stop-color="#4884db"/>
      <stop offset="1.0" stop-color="#324485"/>
    </linearGradient>
    <linearGradient gradientTransform="matrix(-0.011, -0.0098, -0.0098, 0.011, 22.95, 21.2)" gradientUnits="userSpaceOnUse" id="gradient3" spreadMethod="pad" x1="-819.2" x2="819.2">
      <stop offset="0.0" stop-color="#cdd1da"/>
      <stop offset="1.0" stop-color="#8c9099"/>
    </linearGradient>
    <linearGradient gradientTransform="matrix(-0.0091, -0.0116, -0.0116, 0.0091, 20.65, 23.3)" gradientUnits="userSpaceOnUse" id="gradient4" spreadMethod="pad" x1="-819.2" x2="819.2">
      <stop offset="0.0" stop-color="#cdd1da"/>
      <stop offset="1.0" stop-color="#8c9099"/>
    </linearGradient>
    <linearGradient gradientTransform="matrix(-0.0066, -0.0132, -0.0132, 0.0066, 17.7, 25.05)" gradientUnits="userSpaceOnUse" id="gradient5" spreadMethod="pad" x1="-819.2" x2="819.2">
      <stop offset="0.0" stop-color="#cdd1da"/>
      <stop offset="1.0" stop-color="#8c9099"/>
    </linearGradient>
    <linearGradient gradientTransform="matrix(-0.0029, -0.0104, -0.0104, 0.0031, 6.85, 14.55)" gradientUnits="userSpaceOnUse" id="gradient6" spreadMethod="pad" x1="-819.2" x2="819.2">
      <stop offset="0.0" stop-color="#70e9ff"/>
      <stop offset="1.0" stop-color="#1e96fd"/>
    </linearGradient>
    <radialGradient cx="0" cy="0" gradientTransform="matrix(0.0148, 0.0, 0.0, -0.0148, 10.95, 22.75)" gradientUnits="userSpaceOnUse" id="gradient7" r="819.2" spreadMethod="pad">
      <stop offset="0.36470588235294116" stop-color="#dbffff"/>
      <stop offset="1.0" stop-color="#8dffff"/>
    </radialGradient>
    <linearGradient gradientTransform="matrix(-0.0037, -0.013, -0.013, 0.0037, 2.35, 16.95)" gradientUnits="userSpaceOnUse" id="gradient8" spreadMethod="pad" x1="-819.2" x2="819.2">
      <stop offset="0.0" stop-color="#4884db"/>
      <stop offset="1.0" stop-color="#6198eb"/>
    </linearGradient>
    <linearGradient gradientTransform="matrix(0.0014, -0.0105, -0.0105, -0.0014, 4.8, 15.0)" gradientUnits="userSpaceOnUse" id="gradient9" spreadMethod="pad" x1="-819.2" x2="819.2">
      <stop offset="0.0" stop-color="#4884db"/>
      <stop offset="1.0" stop-color="#264b85"/>
    </linearGradient>
    <linearGradient gradientTransform="matrix(0.0014, -0.0105, -0.0105, -0.0014, 5.55, 15.1)" gradientUnits="userSpaceOnUse" id="gradient10" spreadMethod="pad" x1="-819.2" x2="819.2">
      <stop offset="0.0" stop-color="#4884db"/>
      <stop offset="1.0" stop-color="#264b85"/>
    </linearGradient>
    <radialGradient cx="0" cy="0" gradientTransform="matrix(0.0036, 0.0, 0.0, -0.0036, 2.25, 20.4)" gradientUnits="userSpaceOnUse" id="gradient11" r="819.2" spreadMethod="pad">
      <stop offset="0.0" stop-color="#ffff30"/>
      <stop offset="0.8235294117647058" stop-color="#e56622"/>
      <stop offset="1.0" stop-color="#e5b095"/>
    </radialGradient>
    <radialGradient cx="0" cy="0" gradientTransform="matrix(0.0156, 0.0, 0.0, -0.0156, 1.1, 4.5)" gradientUnits="userSpaceOnUse" id="gradient12" r="819.2" spreadMethod="pad">
      <stop offset="0.0" stop-color="#ffff30"/>
      <stop offset="0.8235294117647058" stop-color="#e56622"/>
      <stop offset="1.0" stop-color="#e5b095"/>
    </radialGradient>
  </defs>
</svg>
