<?xml version="1.0" encoding="UTF-8" standalone="no"?>
<svg xmlns:ffdec="https://www.free-decompiler.com/flash" xmlns:xlink="http://www.w3.org/1999/xlink" ffdec:objectType="shape" height="31.65px" width="30.15px" xmlns="http://www.w3.org/2000/svg">
  <g transform="matrix(1.0, 0.0, 0.0, 1.0, -1.75, -1.8)">
    <path d="M15.3 5.6 Q15.7 6.1 15.55 6.9 L15.15 9.2 18.9 9.75 Q19.6 9.85 20.05 10.45 20.45 11.05 20.3 11.75 L20.25 12.05 22.3 10.75 Q22.5 10.6 22.85 10.6 23.4 10.6 23.75 11.05 L31.75 23.5 31.85 24.3 31.4 25.0 29.0 26.5 29.1 26.9 Q29.35 27.35 29.1 27.7 L28.6 28.3 25.45 29.55 25.6 30.1 Q25.7 30.6 25.45 30.9 25.1 31.3 24.75 31.35 L13.75 33.45 Q12.9 33.45 12.7 32.6 L11.95 28.35 2.75 26.95 2.35 26.7 2.2 26.25 2.9 22.55 Q2.1 21.7 2.1 20.5 2.1 18.7 3.75 17.9 L3.85 17.45 Q2.3 16.7 2.3 15.05 L1.75 5.15 Q1.75 3.75 2.75 2.8 3.7 1.8 5.1 1.8 6.45 1.8 7.45 2.8 8.35 3.75 8.35 5.15 L8.3 7.0 14.25 5.25 14.6 5.2 Q15.05 5.2 15.3 5.6" fill="#130e45" fill-rule="evenodd" stroke="none"/>
    <path d="M19.65 11.65 L16.7 27.3 16.25 28.05 Q15.85 28.35 15.4 28.25 L2.85 26.35 6.2 8.45 18.75 10.4 19.5 10.85 Q19.75 11.2 19.65 11.65" fill="url(#gradient0)" fill-rule="evenodd" stroke="none"/>
    <path d="M19.25 10.6 Q19.8 11.05 19.65 11.65 L16.7 27.3 16.25 28.05 Q15.85 28.35 15.4 28.25 L2.85 26.35 2.95 25.8 15.0 27.65 15.85 27.45 16.3 26.7 19.25 11.05 19.25 10.6" fill="url(#gradient1)" fill-rule="evenodd" stroke="none"/>
    <path d="M13.75 24.9 L13.25 25.7 12.4 26.05 3.3 26.4 2.85 26.35 6.2 8.45 16.45 10.05 13.75 24.9" fill="url(#gradient2)" fill-rule="evenodd" stroke="none"/>
    <path d="M23.2 11.4 L31.2 23.85 Q31.4 24.15 31.05 24.45 L21.8 30.4 21.2 30.25 13.25 17.8 Q13.0 17.45 13.35 17.2 L22.65 11.25 Q23.0 11.05 23.2 11.4" fill="url(#gradient3)" fill-rule="evenodd" stroke="none"/>
    <path d="M22.65 11.25 Q23.0 11.05 23.2 11.4 L31.2 23.85 Q31.4 24.15 31.05 24.45 L21.8 30.4 21.2 30.25 21.15 30.15 30.4 24.25 Q30.7 24.0 30.5 23.65 L22.6 11.3 22.65 11.25" fill="#8c9099" fill-rule="evenodd" stroke="none"/>
    <path d="M13.35 17.2 L22.65 11.25 Q23.0 11.05 23.2 11.4 L23.25 11.45 14.1 17.35 Q13.7 17.5 13.95 17.9 L21.85 30.3 21.8 30.4 21.2 30.25 13.25 17.8 Q13.0 17.45 13.35 17.2" fill="#e6e6e6" fill-rule="evenodd" stroke="none"/>
    <path d="M25.3 16.95 L21.65 19.3 19.15 15.3 22.75 13.0 25.3 16.95" fill="#747987" fill-rule="evenodd" stroke="none"/>
    <path d="M24.55 16.75 L21.85 18.45 19.95 15.5 22.6 13.75 24.55 16.75" fill="#f2f2f2" fill-rule="evenodd" stroke="none"/>
    <path d="M26.4 19.25 L19.3 23.85 18.95 23.25 26.05 18.7 26.4 19.25" fill="#cdd1da" fill-rule="evenodd" stroke="none"/>
    <path d="M26.1 19.25 L19.0 23.8 18.65 23.2 25.75 18.7 26.1 19.25" fill="#3c4254" fill-rule="evenodd" stroke="none"/>
    <path d="M27.35 20.75 L20.25 25.3 19.9 24.75 27.0 20.15 27.35 20.75" fill="#cdd1da" fill-rule="evenodd" stroke="none"/>
    <path d="M27.05 20.7 L19.95 25.3 19.6 24.7 26.7 20.15 27.05 20.7" fill="#3c4254" fill-rule="evenodd" stroke="none"/>
    <path d="M28.3 22.25 L21.2 26.8 20.85 26.2 27.95 21.65 28.3 22.25" fill="#cdd1da" fill-rule="evenodd" stroke="none"/>
    <path d="M28.0 22.2 L20.9 26.75 20.5 26.2 27.65 21.65 28.0 22.2" fill="#3c4254" fill-rule="evenodd" stroke="none"/>
    <path d="M29.25 23.7 L22.15 28.25 21.8 27.7 28.9 23.15 29.25 23.7" fill="#cdd1da" fill-rule="evenodd" stroke="none"/>
    <path d="M28.95 23.65 L21.85 28.2 21.45 27.65 28.6 23.1 28.95 23.65" fill="#3c4254" fill-rule="evenodd" stroke="none"/>
    <path d="M22.95 13.5 L28.55 27.2 Q28.65 27.6 28.3 27.7 L18.15 31.85 Q17.75 32.0 17.6 31.65 L12.0 17.95 Q11.9 17.55 12.25 17.4 L22.4 13.3 Q22.8 13.15 22.95 13.5" fill="url(#gradient4)" fill-rule="evenodd" stroke="none"/>
    <path d="M22.4 13.3 Q22.8 13.15 22.95 13.5 L28.55 27.2 Q28.65 27.6 28.3 27.7 L18.15 31.85 Q17.75 32.0 17.6 31.65 L17.55 31.6 27.7 27.45 Q28.1 27.3 27.9 26.85 L22.35 13.3 22.4 13.3" fill="#8c9099" fill-rule="evenodd" stroke="none"/>
    <path d="M12.25 17.4 L22.4 13.3 Q22.8 13.15 22.95 13.5 L23.0 13.55 12.9 17.65 Q12.5 17.8 12.7 18.25 L18.25 31.85 18.15 31.85 Q17.75 32.0 17.6 31.65 L12.0 17.95 Q11.9 17.55 12.25 17.4" fill="#e6e6e6" fill-rule="evenodd" stroke="none"/>
    <path d="M22.25 15.0 L24.0 19.35 20.0 20.95 18.25 16.6 22.25 15.0" fill="#747987" fill-rule="evenodd" stroke="none"/>
    <path d="M21.9 15.7 L23.25 18.95 20.35 20.15 19.0 16.9 21.9 15.7" fill="#f2f2f2" fill-rule="evenodd" stroke="none"/>
    <path d="M24.7 21.85 L16.9 25.0 16.6 24.4 24.45 21.2 24.7 21.85" fill="#cdd1da" fill-rule="evenodd" stroke="none"/>
    <path d="M24.4 21.75 L16.55 24.95 16.35 24.3 24.1 21.1 24.4 21.75" fill="#3c4254" fill-rule="evenodd" stroke="none"/>
    <path d="M25.35 23.45 L17.55 26.65 17.3 26.0 25.1 22.8 25.35 23.45" fill="#cdd1da" fill-rule="evenodd" stroke="none"/>
    <path d="M25.05 23.35 L17.25 26.55 16.95 25.9 24.8 22.75 25.05 23.35" fill="#3c4254" fill-rule="evenodd" stroke="none"/>
    <path d="M26.0 25.05 L18.2 28.25 17.95 27.65 25.75 24.45 26.0 25.05" fill="#cdd1da" fill-rule="evenodd" stroke="none"/>
    <path d="M25.75 25.0 Q21.85 26.6 17.9 28.15 L17.65 27.55 25.45 24.35 25.75 25.0" fill="#3c4254" fill-rule="evenodd" stroke="none"/>
    <path d="M26.7 26.7 L18.85 29.9 18.6 29.25 26.4 26.05 26.7 26.7" fill="#cdd1da" fill-rule="evenodd" stroke="none"/>
    <path d="M26.35 26.6 L18.6 29.8 18.3 29.15 26.15 25.95 26.35 26.6" fill="#3c4254" fill-rule="evenodd" stroke="none"/>
    <path d="M22.25 15.7 L25.0 30.25 Q25.05 30.65 24.6 30.75 L13.8 32.75 Q13.4 32.85 13.3 32.45 L10.6 17.9 Q10.5 17.5 10.95 17.4 L21.75 15.4 Q22.15 15.3 22.25 15.7" fill="url(#gradient5)" fill-rule="evenodd" stroke="none"/>
    <path d="M21.75 15.4 Q22.15 15.3 22.25 15.7 L25.0 30.25 Q25.05 30.65 24.6 30.75 L13.8 32.75 Q13.4 32.85 13.3 32.45 L13.3 32.35 24.1 30.35 Q24.5 30.25 24.4 29.85 L21.7 15.4 21.75 15.4" fill="#8c9099" fill-rule="evenodd" stroke="none"/>
    <path d="M10.95 17.4 L21.75 15.4 Q22.15 15.3 22.25 15.7 L22.25 15.75 11.5 17.8 Q11.1 17.8 11.2 18.3 L13.95 32.75 13.8 32.75 Q13.4 32.85 13.3 32.45 L10.6 17.9 Q10.5 17.5 10.95 17.4" fill="#e6e6e6" fill-rule="evenodd" stroke="none"/>
    <path d="M16.9 17.8 L21.2 17.0 22.1 21.65 17.8 22.45 16.9 17.8" fill="#747987" fill-rule="evenodd" stroke="none"/>
    <path d="M21.4 21.15 L18.3 21.75 17.65 18.25 20.8 17.7 21.4 21.15" fill="#f2f2f2" fill-rule="evenodd" stroke="none"/>
    <path d="M22.3 24.2 L13.95 25.8 13.8 25.1 22.15 23.55 22.3 24.2" fill="#cdd1da" fill-rule="evenodd" stroke="none"/>
    <path d="M22.0 24.1 L13.7 25.65 13.55 25.0 21.85 23.4 22.0 24.1" fill="#3c4254" fill-rule="evenodd" stroke="none"/>
    <path d="M22.6 25.95 L14.25 27.55 14.2 26.85 22.45 25.3 22.6 25.95" fill="#cdd1da" fill-rule="evenodd" stroke="none"/>
    <path d="M22.3 25.8 L14.0 27.35 13.9 26.7 22.2 25.1 22.3 25.8" fill="#3c4254" fill-rule="evenodd" stroke="none"/>
    <path d="M22.9 27.7 L14.65 29.25 14.5 28.6 22.75 27.0 22.9 27.7" fill="#cdd1da" fill-rule="evenodd" stroke="none"/>
    <path d="M22.65 27.55 L14.35 29.1 14.2 28.45 22.5 26.85 22.65 27.55" fill="#3c4254" fill-rule="evenodd" stroke="none"/>
    <path d="M23.2 29.4 L14.95 30.95 14.8 30.3 23.15 28.7 23.2 29.4" fill="#cdd1da" fill-rule="evenodd" stroke="none"/>
    <path d="M22.95 29.25 L14.65 30.85 14.55 30.15 22.85 28.6 22.95 29.25" fill="#3c4254" fill-rule="evenodd" stroke="none"/>
    <path d="M10.95 17.4 L15.25 16.6 13.85 24.3 Q13.65 25.4 12.9 25.6 L12.1 25.9 10.6 17.9 Q10.5 17.5 10.95 17.4" fill="#747987" fill-rule="evenodd" stroke="none"/>
    <path d="M14.95 6.8 L12.05 22.6 11.7 23.45 Q11.45 23.85 11.15 23.9 L2.85 26.35 6.1 8.3 14.45 5.9 Q14.7 5.8 14.9 6.1 L14.95 6.8" fill="url(#gradient6)" fill-rule="evenodd" stroke="none"/>
    <path d="M14.5 5.85 L14.9 6.1 14.95 6.8 12.05 22.6 11.7 23.45 Q11.45 23.85 11.15 23.9 L2.85 26.35 2.95 25.85 10.7 23.6 11.25 23.1 11.6 22.25 14.5 6.45 14.5 5.85" fill="url(#gradient7)" fill-rule="evenodd" stroke="none"/>
    <path d="M6.1 8.3 L6.75 8.1 3.45 26.15 2.85 26.35 6.1 8.3" fill="url(#gradient8)" fill-rule="evenodd" stroke="none"/>
    <path d="M9.25 7.4 L8.8 15.6 Q8.8 16.5 8.2 17.1 7.6 17.75 6.7 17.75 6.0 17.75 5.45 17.35 4.9 16.9 4.7 16.25 L6.1 8.3 9.25 7.4" fill="url(#gradient9)" fill-rule="evenodd" stroke="none"/>
    <path d="M8.35 19.45 Q9.05 20.1 9.05 21.1 9.05 22.1 8.35 22.75 7.65 23.45 6.7 23.45 5.7 23.45 5.05 22.75 4.35 22.1 4.35 21.1 4.35 20.1 5.05 19.45 5.7 18.75 6.7 18.75 7.65 18.75 8.35 19.45" fill="url(#gradient10)" fill-rule="evenodd" stroke="none"/>
    <path d="M6.75 18.9 Q7.45 19.6 7.45 20.5 7.45 21.5 6.75 22.2 6.05 22.85 5.1 22.85 4.1 22.85 3.4 22.2 2.75 21.5 2.75 20.5 2.75 19.6 3.4 18.9 4.1 18.25 5.1 18.25 6.05 18.25 6.75 18.9" fill="url(#gradient11)" fill-rule="evenodd" stroke="none"/>
    <path d="M7.2 15.05 Q7.2 15.95 6.55 16.5 6.0 17.15 5.1 17.15 4.2 17.15 3.55 16.5 2.95 15.9 2.95 15.05 L2.4 5.15 Q2.4 4.0 3.2 3.25 3.95 2.45 5.1 2.45 6.15 2.45 7.0 3.25 7.75 4.0 7.75 5.15 L7.2 15.05" fill="url(#gradient12)" fill-rule="evenodd" stroke="none"/>
    <path d="M5.05 6.3 L4.8 6.9 4.25 7.15 Q3.9 7.15 3.7 6.9 L3.45 6.3 3.7 5.7 4.25 5.5 4.8 5.7 5.05 6.3" fill="#ffffba" fill-rule="evenodd" stroke="none"/>
    <path d="M5.05 19.7 Q5.05 20.4 4.4 20.4 3.75 20.4 3.75 19.7 L3.95 19.25 Q4.15 19.05 4.4 19.05 L4.85 19.25 5.05 19.7" fill="#ffff8f" fill-rule="evenodd" stroke="none"/>
  </g>
  <defs>
    <linearGradient gradientTransform="matrix(-0.0017, -0.0072, -0.0072, 0.0017, 11.95, 21.45)" gradientUnits="userSpaceOnUse" id="gradient0" spreadMethod="pad" x1="-819.2" x2="819.2">
      <stop offset="0.0" stop-color="#70e9ff"/>
      <stop offset="1.0" stop-color="#1e96fd"/>
    </linearGradient>
    <radialGradient cx="0" cy="0" gradientTransform="matrix(0.0105, 0.0, 0.0, -0.0105, 14.85, 27.7)" gradientUnits="userSpaceOnUse" id="gradient1" r="819.2" spreadMethod="pad">
      <stop offset="0.36470588235294116" stop-color="#dbffff"/>
      <stop offset="1.0" stop-color="#8dffff"/>
    </radialGradient>
    <linearGradient gradientTransform="matrix(-0.0015, -0.0062, -0.0062, 0.0015, 10.1, 20.0)" gradientUnits="userSpaceOnUse" id="gradient2" spreadMethod="pad" x1="-819.2" x2="819.2">
      <stop offset="0.0" stop-color="#4884db"/>
      <stop offset="1.0" stop-color="#324485"/>
    </linearGradient>
    <linearGradient gradientTransform="matrix(-0.0093, -0.0083, -0.0083, 0.0093, 22.1, 20.7)" gradientUnits="userSpaceOnUse" id="gradient3" spreadMethod="pad" x1="-819.2" x2="819.2">
      <stop offset="0.0" stop-color="#cdd1da"/>
      <stop offset="1.0" stop-color="#8c9099"/>
    </linearGradient>
    <linearGradient gradientTransform="matrix(-0.0077, -0.0098, -0.0098, 0.0077, 20.15, 22.45)" gradientUnits="userSpaceOnUse" id="gradient4" spreadMethod="pad" x1="-819.2" x2="819.2">
      <stop offset="0.0" stop-color="#cdd1da"/>
      <stop offset="1.0" stop-color="#8c9099"/>
    </linearGradient>
    <linearGradient gradientTransform="matrix(-0.0056, -0.0111, -0.0111, 0.0056, 17.7, 23.95)" gradientUnits="userSpaceOnUse" id="gradient5" spreadMethod="pad" x1="-819.2" x2="819.2">
      <stop offset="0.0" stop-color="#cdd1da"/>
      <stop offset="1.0" stop-color="#8c9099"/>
    </linearGradient>
    <linearGradient gradientTransform="matrix(-0.0025, -0.0087, -0.0088, 0.0026, 8.55, 15.1)" gradientUnits="userSpaceOnUse" id="gradient6" spreadMethod="pad" x1="-819.2" x2="819.2">
      <stop offset="0.0" stop-color="#70e9ff"/>
      <stop offset="1.0" stop-color="#1e96fd"/>
    </linearGradient>
    <radialGradient cx="0" cy="0" gradientTransform="matrix(0.0125, 0.0, 0.0, -0.0125, 11.95, 22.0)" gradientUnits="userSpaceOnUse" id="gradient7" r="819.2" spreadMethod="pad">
      <stop offset="0.36470588235294116" stop-color="#dbffff"/>
      <stop offset="1.0" stop-color="#8dffff"/>
    </radialGradient>
    <linearGradient gradientTransform="matrix(-0.0031, -0.0109, -0.0109, 0.0031, 4.75, 17.1)" gradientUnits="userSpaceOnUse" id="gradient8" spreadMethod="pad" x1="-819.2" x2="819.2">
      <stop offset="0.0" stop-color="#4884db"/>
      <stop offset="1.0" stop-color="#6198eb"/>
    </linearGradient>
    <linearGradient gradientTransform="matrix(0.0012, -0.0088, -0.0088, -0.0012, 6.8, 15.5)" gradientUnits="userSpaceOnUse" id="gradient9" spreadMethod="pad" x1="-819.2" x2="819.2">
      <stop offset="0.0" stop-color="#4884db"/>
      <stop offset="1.0" stop-color="#264b85"/>
    </linearGradient>
    <linearGradient gradientTransform="matrix(0.0012, -0.0088, -0.0088, -0.0012, 7.45, 15.55)" gradientUnits="userSpaceOnUse" id="gradient10" spreadMethod="pad" x1="-819.2" x2="819.2">
      <stop offset="0.0" stop-color="#4884db"/>
      <stop offset="1.0" stop-color="#264b85"/>
    </linearGradient>
    <radialGradient cx="0" cy="0" gradientTransform="matrix(0.0031, 0.0, 0.0, -0.0031, 4.7, 20.05)" gradientUnits="userSpaceOnUse" id="gradient11" r="819.2" spreadMethod="pad">
      <stop offset="0.0" stop-color="#ffff30"/>
      <stop offset="0.8235294117647058" stop-color="#e56622"/>
      <stop offset="1.0" stop-color="#e5b095"/>
    </radialGradient>
    <radialGradient cx="0" cy="0" gradientTransform="matrix(0.0132, 0.0, 0.0, -0.0132, 3.7, 6.65)" gradientUnits="userSpaceOnUse" id="gradient12" r="819.2" spreadMethod="pad">
      <stop offset="0.0" stop-color="#ffff30"/>
      <stop offset="0.8235294117647058" stop-color="#e56622"/>
      <stop offset="1.0" stop-color="#e5b095"/>
    </radialGradient>
  </defs>
</svg>
