<?xml version="1.0" encoding="UTF-8" standalone="no"?>
<svg xmlns:ffdec="https://www.free-decompiler.com/flash" xmlns:xlink="http://www.w3.org/1999/xlink" ffdec:objectType="shape" height="131.1px" width="29.6px" xmlns="http://www.w3.org/2000/svg">
  <g transform="matrix(1.0, 0.0, 0.0, 1.0, 0.0, 0.0)">
    <path d="M29.1 3.5 L29.1 127.6 Q29.1 128.85 28.2 129.7 27.35 130.6 26.1 130.6 L3.5 130.6 Q2.25 130.6 1.4 129.7 0.5 128.85 0.5 127.6 L0.5 3.5 Q0.5 2.25 1.4 1.4 2.25 0.5 3.5 0.5 L26.1 0.5 Q27.35 0.5 28.2 1.4 29.1 2.25 29.1 3.5" fill="#021f49" fill-rule="evenodd" stroke="none"/>
    <path d="M29.1 3.5 L29.1 127.6 Q29.1 128.85 28.2 129.7 27.35 130.6 26.1 130.6 L3.5 130.6 Q2.25 130.6 1.4 129.7 0.5 128.85 0.5 127.6 L0.5 3.5 Q0.5 2.25 1.4 1.4 2.25 0.5 3.5 0.5 L26.1 0.5 Q27.35 0.5 28.2 1.4 29.1 2.25 29.1 3.5 Z" fill="none" stroke="#025fce" stroke-linecap="butt" stroke-linejoin="miter-clip" stroke-miterlimit="4.0" stroke-width="1.0"/>
  </g>
</svg>
