<?xml version="1.0" encoding="UTF-8" standalone="no"?>
<svg xmlns:ffdec="https://www.free-decompiler.com/flash" xmlns:xlink="http://www.w3.org/1999/xlink" ffdec:objectType="shape" height="33.55px" width="36.15px" xmlns="http://www.w3.org/2000/svg">
  <g transform="matrix(1.0, 0.0, 0.0, 1.0, 0.0, 0.0)">
    <path d="M35.15 7.25 Q36.15 8.3 36.15 9.75 36.15 11.15 35.2 12.15 34.25 13.15 32.9 13.2 L27.6 24.85 26.65 31.3 Q26.5 32.25 25.75 32.9 24.95 33.55 24.0 33.55 L6.35 33.55 Q5.4 33.55 4.6 32.9 3.85 32.25 3.7 31.3 L0.05 7.35 Q-0.1 6.5 0.35 5.8 L3.2 1.7 Q3.7 1.0 4.6 0.5 5.55 0.0 6.4 0.0 L23.9 0.0 Q24.8 0.0 25.75 0.5 26.65 1.0 27.15 1.7 L29.95 5.75 Q30.4 6.4 30.3 7.25 31.4 6.25 32.7 6.25 34.15 6.25 35.15 7.25 M29.7 11.4 L29.4 13.3 30.0 11.9 29.7 11.4" fill="#000000" fill-rule="evenodd" stroke="none"/>
  </g>
</svg>
