<?xml version="1.0" encoding="UTF-8" standalone="no"?>
<svg xmlns:ffdec="https://www.free-decompiler.com/flash" xmlns:xlink="http://www.w3.org/1999/xlink" ffdec:objectType="shape" height="31.1px" width="30.45px" xmlns="http://www.w3.org/2000/svg">
  <g transform="matrix(1.0, 0.0, 0.0, 1.0, 0.0, 0.0)">
    <path d="M12.75 9.6 L12.0 9.65 10.45 11.45 11.55 11.45 11.85 11.5 12.2 11.45 13.65 11.45 13.95 11.5 14.3 11.45 15.75 11.45 16.05 11.5 Q16.05 10.9 15.75 10.6 15.0 9.6 12.75 9.6 M21.75 0.0 L21.85 0.0 Q27.5 0.7 29.55 4.35 30.55 6.2 30.45 7.95 30.15 10.05 28.6 12.0 L27.0 13.65 26.75 13.75 Q25.55 14.15 23.45 15.8 L20.65 18.25 20.65 19.9 20.6 20.25 20.65 20.6 20.65 22.0 20.6 22.35 20.65 22.65 20.65 24.1 20.6 24.45 20.65 24.75 20.65 26.2 Q20.65 26.8 20.1 26.9 L18.9 27.3 18.8 27.3 18.45 27.35 18.35 27.4 18.1 27.4 16.9 28.6 16.9 28.9 16.8 29.25 16.8 29.3 16.45 30.55 Q16.3 31.1 15.7 31.1 L14.25 31.1 13.95 31.0 13.6 31.1 12.2 31.1 11.85 31.0 11.5 31.1 10.1 31.1 9.75 31.0 9.4 31.1 8.0 31.1 7.65 31.0 7.3 31.1 5.9 31.1 Q5.3 31.1 5.15 30.55 L4.8 29.35 4.8 29.25 4.75 28.9 4.7 28.8 4.7 28.6 Q3.95 28.15 3.5 27.4 L3.25 27.4 2.9 27.3 2.75 27.3 1.5 26.9 Q0.95 26.8 0.95 26.2 L0.95 24.75 1.05 24.45 0.95 24.1 0.95 23.0 0.8 22.85 0.75 22.3 0.5 20.85 Q-0.1 17.1 0.05 16.0 L0.85 12.25 Q1.5 9.7 2.15 8.5 L2.25 8.4 5.45 5.05 7.9 2.65 Q9.4 0.5 21.75 0.0" fill="#000000" fill-rule="evenodd" stroke="none"/>
  </g>
</svg>
