<?xml version="1.0" encoding="UTF-8" standalone="no"?>
<svg xmlns:ffdec="https://www.free-decompiler.com/flash" xmlns:xlink="http://www.w3.org/1999/xlink" ffdec:objectType="shape" height="21.8px" width="28.95px" xmlns="http://www.w3.org/2000/svg">
  <g transform="matrix(1.0, 0.0, 0.0, 1.0, -10.45, -9.3)">
    <path d="M24.35 17.65 L21.25 17.5 Q19.85 19.95 17.2 20.9 16.0 23.95 14.8 25.55 15.5 29.7 13.4 30.75 L11.15 31.0 10.8 28.35 Q10.35 25.7 10.5 24.65 10.7 23.05 11.3 20.95 11.9 18.5 12.5 17.45 L18.2 11.7 Q18.85 10.5 25.25 9.75 L31.5 9.3 Q36.7 10.0 38.6 13.25 39.5 14.9 39.4 16.4 39.15 18.35 37.7 20.15 L36.25 21.6 Q34.7 22.05 32.1 24.25 L29.75 26.3 Q28.6 26.75 27.55 28.0 L26.7 29.15 Q25.95 30.1 24.85 29.85 22.7 28.65 23.75 26.25 L25.25 24.1 26.25 21.55 Q27.2 18.45 24.35 17.65" fill="#ff0000" fill-rule="evenodd" stroke="none"/>
  </g>
</svg>
