<?xml version="1.0" encoding="UTF-8" standalone="no"?>
<svg xmlns:ffdec="https://www.free-decompiler.com/flash" xmlns:xlink="http://www.w3.org/1999/xlink" ffdec:objectType="shape" height="22.65px" width="29.0px" xmlns="http://www.w3.org/2000/svg">
  <g transform="matrix(1.0, 0.0, 0.0, 1.0, -4.0, -4.75)">
    <path d="M26.1 5.15 L27.0 4.75 27.1 4.75 Q31.25 5.75 32.5 9.35 33.15 11.1 32.95 12.7 32.7 14.65 31.25 16.45 L29.8 17.9 Q28.25 18.35 25.65 20.55 L23.3 22.6 Q22.65 22.8 21.5 24.2 L20.45 25.5 Q19.7 26.45 18.4 26.15 16.25 24.95 17.15 22.5 L19.8 17.85 Q20.75 14.75 17.9 13.95 L14.8 13.8 Q13.4 16.25 10.75 17.2 9.55 20.25 8.35 21.85 9.05 26.0 6.95 27.05 L4.7 27.3 4.35 24.65 Q3.9 22.0 4.05 20.95 4.25 19.35 4.85 17.25 5.45 14.8 6.05 13.75 7.7 11.8 11.75 8.0 12.4 6.8 18.8 6.05 L25.05 5.6 26.1 5.15" fill="#ff0000" fill-rule="evenodd" stroke="none"/>
  </g>
</svg>
