<?xml version="1.0" encoding="UTF-8" standalone="no"?>
<svg xmlns:ffdec="https://www.free-decompiler.com/flash" xmlns:xlink="http://www.w3.org/1999/xlink" ffdec:objectType="shape" height="18.15px" width="18.2px" xmlns="http://www.w3.org/2000/svg">
  <g transform="matrix(1.0, 0.0, 0.0, 1.0, -7.8, -7.8)">
    <path d="M20.4 7.8 L21.8 7.8 22.2 9.0 22.25 9.35 22.0 9.9 21.3 11.0 20.6 11.95 Q19.85 13.1 19.9 14.15 19.6 15.55 21.0 16.75 L22.2 16.9 Q22.8 16.85 23.9 15.5 L25.4 13.9 25.45 13.9 26.0 14.1 26.0 15.5 24.9 15.85 26.0 16.2 26.0 17.6 24.9 17.95 26.0 18.25 26.0 19.7 24.9 20.05 26.0 20.35 26.0 21.8 24.45 22.25 23.7 22.25 Q23.4 23.3 22.25 23.7 L22.25 24.35 22.2 24.7 21.8 25.95 20.35 25.95 20.05 24.85 19.7 25.95 18.3 25.95 17.95 24.85 17.6 25.95 16.2 25.95 15.85 24.85 15.5 25.95 14.1 25.95 13.75 24.85 13.45 25.95 12.0 25.95 11.55 24.35 11.55 23.7 Q10.4 23.3 10.1 22.25 L9.45 22.25 9.1 22.2 7.8 21.8 7.8 20.35 8.9 20.05 7.8 19.7 7.8 18.25 8.9 17.95 7.8 17.6 7.8 16.2 8.9 15.85 7.8 15.5 7.8 14.1 8.9 13.75 7.8 13.4 7.8 12.0 9.0 11.6 9.4 11.55 10.1 11.55 Q10.4 10.4 11.55 10.1 L11.55 9.4 12.0 7.8 13.45 7.8 13.75 8.9 14.1 7.8 15.55 7.8 15.85 8.9 16.2 7.8 17.65 7.8 17.95 8.9 18.3 7.8 19.75 7.8 20.05 8.9 20.4 7.8" fill="#ff0000" fill-rule="evenodd" stroke="none"/>
  </g>
</svg>
