<?xml version="1.0" encoding="UTF-8" standalone="no"?>
<svg xmlns:ffdec="https://www.free-decompiler.com/flash" xmlns:xlink="http://www.w3.org/1999/xlink" ffdec:objectType="shape" height="25.45px" width="44.1px" xmlns="http://www.w3.org/2000/svg">
  <g transform="matrix(1.0, 0.0, 0.0, 1.0, 0.05, 0.05)">
    <path d="M44.0 15.1 L39.75 17.55 35.55 15.1 35.55 10.25 39.75 7.8 43.95 10.2 44.0 15.1 M39.5 2.45 L39.55 7.3 35.3 9.75 31.05 7.3 31.05 2.45 35.3 0.0 39.5 2.45 M35.1 10.2 L35.1 15.1 30.9 17.55 26.65 15.1 26.65 10.25 30.85 7.8 35.1 10.2 M26.25 10.2 L26.3 15.1 22.05 17.55 17.8 15.1 17.8 10.25 22.05 7.8 26.25 10.2 M21.85 22.9 L17.65 25.35 13.4 22.9 13.4 18.05 17.6 15.6 21.85 18.0 21.85 22.9 M22.25 18.05 Q24.4 16.85 26.5 15.6 L30.7 18.0 30.75 22.9 26.5 25.35 22.25 22.9 22.25 18.05 M17.35 10.2 L17.35 15.1 13.1 17.55 8.9 15.1 8.9 10.25 13.1 7.8 17.35 10.2 M12.9 7.3 L8.65 9.75 4.45 7.3 4.45 2.45 8.65 0.0 12.85 2.45 12.9 7.3 M8.45 10.2 L8.45 15.1 4.25 17.55 0.0 15.1 0.0 10.25 4.2 7.8 8.45 10.2" fill="#015287" fill-rule="evenodd" stroke="none"/>
    <path d="M44.0 15.1 L39.75 17.55 35.55 15.1 35.55 10.25 39.75 7.8 43.95 10.2 44.0 15.1 M39.5 2.45 L39.55 7.3 35.3 9.75 31.05 7.3 31.05 2.45 35.3 0.0 39.5 2.45 M35.1 10.2 L35.1 15.1 30.9 17.55 26.65 15.1 26.65 10.25 30.85 7.8 35.1 10.2 M26.25 10.2 L26.3 15.1 22.05 17.55 17.8 15.1 17.8 10.25 22.05 7.8 26.25 10.2 M21.85 22.9 L17.65 25.35 13.4 22.9 13.4 18.05 17.6 15.6 21.85 18.0 21.85 22.9 M22.25 18.05 Q24.4 16.85 26.5 15.6 L30.7 18.0 30.75 22.9 26.5 25.35 22.25 22.9 22.25 18.05 M17.35 10.2 L17.35 15.1 13.1 17.55 8.9 15.1 8.9 10.25 13.1 7.8 17.35 10.2 M12.9 7.3 L8.65 9.75 4.45 7.3 4.45 2.45 8.65 0.0 12.85 2.45 12.9 7.3 M8.45 10.2 L8.45 15.1 4.25 17.55 0.0 15.1 0.0 10.25 4.2 7.8 8.45 10.2 Z" ffdec:has-small-stroke="true" ffdec:original-stroke-width="0.1" fill="none" stroke="#91d9f7" stroke-linecap="round" stroke-linejoin="round" stroke-width="1.0"/>
    <path d="M43.3 14.7 L39.85 16.7 36.4 14.7 36.4 10.75 39.85 8.75 43.25 10.75 43.3 14.7 M31.9 3.0 L35.35 1.0 38.75 3.0 38.8 6.95 35.35 8.95 31.9 6.95 31.9 3.0 M34.25 10.75 L34.3 14.7 30.85 16.7 27.4 14.7 27.4 10.75 30.85 8.75 34.25 10.75 M25.5 10.75 L25.55 14.7 22.1 16.7 18.65 14.7 18.65 10.75 22.1 8.75 25.5 10.75 M21.1 22.45 L17.65 24.45 14.2 22.45 14.2 18.5 17.65 16.5 21.05 18.5 21.1 22.45 M23.05 18.5 L26.5 16.5 29.9 18.5 29.95 22.45 26.5 24.45 23.05 22.45 23.05 18.5 M16.5 10.65 L16.55 14.6 13.1 16.6 9.65 14.6 9.65 10.65 13.1 8.65 16.5 10.65 M12.1 6.85 L8.65 8.85 5.2 6.85 5.2 2.9 8.65 0.9 12.05 2.9 12.1 6.85 M4.3 8.65 L7.7 10.65 7.75 14.6 4.3 16.6 0.85 14.6 0.85 10.65 4.3 8.65" fill="#0280d2" fill-rule="evenodd" stroke="none"/>
    <path d="M43.3 14.7 L39.85 16.7 36.4 14.7 36.4 10.75 39.85 8.75 43.25 10.75 43.3 14.7 M31.9 3.0 L35.35 1.0 38.75 3.0 38.8 6.95 35.35 8.95 31.9 6.95 31.9 3.0 M34.25 10.75 L34.3 14.7 30.85 16.7 27.4 14.7 27.4 10.75 30.85 8.75 34.25 10.75 M25.5 10.75 L25.55 14.7 22.1 16.7 18.65 14.7 18.65 10.75 22.1 8.75 25.5 10.75 M21.1 22.45 L17.65 24.45 14.2 22.45 14.2 18.5 17.65 16.5 21.05 18.5 21.1 22.45 M23.05 18.5 L26.5 16.5 29.9 18.5 29.95 22.45 26.5 24.45 23.05 22.45 23.05 18.5 M16.5 10.65 L16.55 14.6 13.1 16.6 9.65 14.6 9.65 10.65 13.1 8.65 16.5 10.65 M12.1 6.85 L8.65 8.85 5.2 6.85 5.2 2.9 8.65 0.9 12.05 2.9 12.1 6.85 M4.3 8.65 L7.7 10.65 7.75 14.6 4.3 16.6 0.85 14.6 0.85 10.65 4.3 8.65 Z" ffdec:has-small-stroke="true" ffdec:original-stroke-width="0.1" fill="none" stroke="#62c8f2" stroke-linecap="round" stroke-linejoin="round" stroke-width="1.0"/>
  </g>
</svg>
