<?xml version="1.0" encoding="UTF-8" standalone="no"?>
<svg xmlns:ffdec="https://www.free-decompiler.com/flash" xmlns:xlink="http://www.w3.org/1999/xlink" ffdec:objectType="shape" height="57.4px" width="57.35px" xmlns="http://www.w3.org/2000/svg">
  <g transform="matrix(1.0, 0.0, 0.0, 1.0, 0.0, 0.0)">
    <path d="M57.35 46.95 L57.35 53.5 53.0 57.4 4.65 57.4 0.0 52.55 0.0 47.05 2.1 42.9 2.1 14.55 0.0 10.5 0.0 5.0 4.5 0.0 53.1 0.0 57.35 4.2 57.35 10.6 55.25 14.55 55.25 43.0 57.35 46.95" fill="url(#gradient0)" fill-rule="evenodd" stroke="none"/>
    <path d="M37.15 52.75 L20.9 52.75 19.85 54.1 5.85 54.1 3.5 51.75 3.5 49.05 6.5 52.1 51.5 52.1 54.55 49.05 54.55 51.75 52.2 54.1 38.2 54.1 37.15 52.75" fill="url(#gradient1)" fill-rule="evenodd" stroke="none"/>
    <path d="M51.5 5.4 L6.5 5.4 3.5 8.4 3.5 5.75 5.85 3.4 19.85 3.4 20.9 4.7 37.15 4.7 38.2 3.4 52.2 3.4 54.55 5.75 54.55 8.4 51.5 5.4" fill="url(#gradient2)" fill-rule="evenodd" stroke="none"/>
  </g>
  <defs>
    <linearGradient gradientTransform="matrix(0.0, -0.035, -0.035, 0.0, 28.7, 28.7)" gradientUnits="userSpaceOnUse" id="gradient0" spreadMethod="pad" x1="-819.2" x2="819.2">
      <stop offset="0.0" stop-color="#0d0d21"/>
      <stop offset="0.6980392156862745" stop-color="#0d0f22"/>
      <stop offset="0.9764705882352941" stop-color="#0f1624"/>
      <stop offset="1.0" stop-color="#0f1724"/>
    </linearGradient>
    <linearGradient gradientTransform="matrix(0.0311, 0.0, 0.0, -0.0311, 29.0, 51.6)" gradientUnits="userSpaceOnUse" id="gradient1" spreadMethod="pad" x1="-819.2" x2="819.2">
      <stop offset="0.0" stop-color="#00a1ff"/>
      <stop offset="1.0" stop-color="#2fcaed"/>
    </linearGradient>
    <linearGradient gradientTransform="matrix(0.0311, 0.0, 0.0, -0.0311, 29.0, 5.9)" gradientUnits="userSpaceOnUse" id="gradient2" spreadMethod="pad" x1="-819.2" x2="819.2">
      <stop offset="0.0" stop-color="#00a1ff"/>
      <stop offset="1.0" stop-color="#2fcaed"/>
    </linearGradient>
  </defs>
</svg>
