<?xml version="1.0" encoding="UTF-8" standalone="no"?>
<svg xmlns:ffdec="https://www.free-decompiler.com/flash" xmlns:xlink="http://www.w3.org/1999/xlink" ffdec:objectType="shape" height="24.85px" width="21.85px" xmlns="http://www.w3.org/2000/svg">
  <g transform="matrix(1.0, 0.0, 0.0, 1.0, 0.0, 0.0)">
    <path d="M21.85 6.55 L21.15 18.8 20.9 19.25 11.2 24.75 10.9 24.85 10.65 24.75 0.9 19.25 0.65 18.8 0.0 6.55 Q-0.1 6.2 0.25 6.05 L10.65 0.1 10.9 0.0 11.2 0.1 21.55 6.05 Q21.85 6.15 21.85 6.55" fill="#130e45" fill-rule="evenodd" stroke="none"/>
    <path d="M10.9 0.55 L21.3 6.5 20.65 18.75 10.9 24.35 1.2 18.75 0.5 6.5 10.9 0.55" fill="url(#gradient0)" fill-rule="evenodd" stroke="none"/>
    <path d="M10.9 12.45 L0.5 6.5 10.9 0.55 21.3 6.5 10.9 12.45" fill="url(#gradient1)" fill-rule="evenodd" stroke="none"/>
    <path d="M10.9 24.35 L1.2 18.75 0.5 6.5 10.9 12.45 10.9 24.35" fill="url(#gradient2)" fill-rule="evenodd" stroke="none"/>
    <path d="M10.9 12.45 L21.3 6.5 20.65 18.75 10.9 24.35 10.9 12.45" fill="url(#gradient3)" fill-rule="evenodd" stroke="none"/>
    <path d="M1.65 18.3 L5.3 15.3 10.65 23.5 1.65 18.3" fill="#0542a4" fill-rule="evenodd" stroke="none"/>
    <path d="M0.5 6.5 L10.9 10.85 21.3 6.5 11.6 12.05 10.9 24.5 10.25 12.1 0.5 6.5" fill="url(#gradient4)" fill-rule="evenodd" stroke="none"/>
    <path d="M1.35 7.85 L9.6 12.75 5.15 16.05 1.35 7.85" fill="#0542a4" fill-rule="evenodd" stroke="none"/>
    <path d="M1.35 7.3 L9.6 12.2 5.15 15.5 1.35 7.3" fill="url(#gradient5)" fill-rule="evenodd" stroke="none"/>
    <path d="M20.15 18.1 L11.15 23.3 16.55 15.1 20.15 18.1" fill="#173159" fill-rule="evenodd" stroke="none"/>
    <path d="M20.75 7.95 L16.9 16.2 12.45 12.85 20.75 7.95" fill="#173159" fill-rule="evenodd" stroke="none"/>
    <path d="M20.75 7.4 L16.9 15.6 12.45 12.3 20.75 7.4" fill="url(#gradient6)" fill-rule="evenodd" stroke="none"/>
    <path d="M1.45 18.6 L5.05 15.6 10.5 23.85 1.45 18.6" fill="url(#gradient7)" fill-rule="evenodd" stroke="none"/>
    <path d="M20.35 18.45 L11.3 23.7 16.75 15.45 20.35 18.45" fill="url(#gradient8)" fill-rule="evenodd" stroke="none"/>
  </g>
  <defs>
    <linearGradient gradientTransform="matrix(-0.0099, -0.0074, -0.0074, 0.0099, 9.8, 11.55)" gradientUnits="userSpaceOnUse" id="gradient0" spreadMethod="pad" x1="-819.2" x2="819.2">
      <stop offset="0.0" stop-color="#4884db"/>
      <stop offset="1.0" stop-color="#324485"/>
    </linearGradient>
    <linearGradient gradientTransform="matrix(0.0127, 0.0, 0.0, -0.0127, 10.9, 6.5)" gradientUnits="userSpaceOnUse" id="gradient1" spreadMethod="pad" x1="-819.2" x2="819.2">
      <stop offset="0.0" stop-color="#baefff"/>
      <stop offset="1.0" stop-color="#a8c9fa"/>
    </linearGradient>
    <linearGradient gradientTransform="matrix(-9.0E-4, 0.0063, 0.0063, 9.0E-4, 5.55, 16.5)" gradientUnits="userSpaceOnUse" id="gradient2" spreadMethod="pad" x1="-819.2" x2="819.2">
      <stop offset="0.0" stop-color="#3277db"/>
      <stop offset="1.0" stop-color="#8cb9fa"/>
    </linearGradient>
    <linearGradient gradientTransform="matrix(-0.0049, -0.0037, -0.0037, 0.0049, 15.5, 14.95)" gradientUnits="userSpaceOnUse" id="gradient3" spreadMethod="pad" x1="-819.2" x2="819.2">
      <stop offset="0.0" stop-color="#4884db"/>
      <stop offset="1.0" stop-color="#324485"/>
    </linearGradient>
    <radialGradient cx="0" cy="0" gradientTransform="matrix(0.0119, 0.0, 0.0, -0.0119, 11.1, 11.65)" gradientUnits="userSpaceOnUse" id="gradient4" r="819.2" spreadMethod="pad">
      <stop offset="0.0" stop-color="#dbffff"/>
      <stop offset="1.0" stop-color="#8dffff"/>
    </radialGradient>
    <linearGradient gradientTransform="matrix(-0.0012, 0.0023, 0.0023, 0.0012, 4.2, 12.15)" gradientUnits="userSpaceOnUse" id="gradient5" spreadMethod="pad" x1="-819.2" x2="819.2">
      <stop offset="0.0" stop-color="#3277db"/>
      <stop offset="1.0" stop-color="#8cb9fa"/>
    </linearGradient>
    <linearGradient gradientTransform="matrix(-0.001, -0.002, -0.002, 0.001, 17.45, 11.55)" gradientUnits="userSpaceOnUse" id="gradient6" spreadMethod="pad" x1="-819.2" x2="819.2">
      <stop offset="0.0" stop-color="#4884db"/>
      <stop offset="1.0" stop-color="#324485"/>
    </linearGradient>
    <linearGradient gradientTransform="matrix(-0.001, 0.002, 0.002, 0.001, 6.95, 19.35)" gradientUnits="userSpaceOnUse" id="gradient7" spreadMethod="pad" x1="-819.2" x2="819.2">
      <stop offset="0.0" stop-color="#b3d2ff"/>
      <stop offset="1.0" stop-color="#8cb9fa"/>
    </linearGradient>
    <linearGradient gradientTransform="matrix(-0.0011, -0.0019, -0.0019, 0.0011, 14.85, 19.25)" gradientUnits="userSpaceOnUse" id="gradient8" spreadMethod="pad" x1="-819.2" x2="819.2">
      <stop offset="0.0" stop-color="#4884db"/>
      <stop offset="1.0" stop-color="#76b9e8"/>
    </linearGradient>
  </defs>
</svg>
