<?xml version="1.0" encoding="UTF-8" standalone="no"?>
<svg xmlns:ffdec="https://www.free-decompiler.com/flash" xmlns:xlink="http://www.w3.org/1999/xlink" ffdec:objectType="shape" height="33.1px" width="32.8px" xmlns="http://www.w3.org/2000/svg">
  <g transform="matrix(1.0, 0.0, 0.0, 1.0, 0.0, 0.0)">
    <path d="M26.25 24.65 Q22.8 28.8 18.95 32.25 18.25 33.1 17.05 33.1 16.2 33.1 15.5 32.55 L7.6 26.1 6.25 27.65 Q5.3 28.25 4.2 28.25 2.65 28.25 1.55 27.15 0.45 26.05 0.45 24.5 0.45 22.95 1.55 21.9 2.65 20.8 4.2 20.8 L5.5 21.0 5.9 20.55 Q8.2 18.25 11.35 13.5 14.5 8.85 16.0 4.8 L16.0 4.7 16.05 4.65 Q16.85 3.55 18.15 3.55 L19.5 3.95 31.2 11.45 Q31.95 11.85 32.25 12.7 33.15 14.05 32.6 15.4 30.5 19.55 26.25 24.65 M8.4 4.2 L7.65 17.15 Q7.65 18.6 6.65 19.6 5.65 20.6 4.2 20.6 2.75 20.6 1.75 19.6 0.75 18.55 0.75 17.1 L0.0 4.2 Q0.0 2.5 1.25 1.25 2.5 0.0 4.2 0.0 5.95 0.0 7.15 1.25 8.4 2.5 8.4 4.2" fill="#000000" fill-rule="evenodd" stroke="none"/>
  </g>
</svg>
