<?xml version="1.0" encoding="UTF-8" standalone="no"?>
<svg xmlns:ffdec="https://www.free-decompiler.com/flash" xmlns:xlink="http://www.w3.org/1999/xlink" ffdec:objectType="shape" height="19.5px" width="20.9px" xmlns="http://www.w3.org/2000/svg">
  <g transform="matrix(1.0, 0.0, 0.0, 1.0, -0.85, -2.55)">
    <path d="M5.25 17.9 Q5.25 18.85 4.6 19.5 4.0 20.15 3.05 20.15 2.1 20.15 1.5 19.5 0.85 18.85 0.85 17.9 0.85 17.0 1.5 16.35 2.1 15.7 3.05 15.7 4.0 15.7 4.6 16.35 5.25 17.0 5.25 17.9" fill="url(#gradient0)" fill-rule="evenodd" stroke="none"/>
    <path d="M21.75 10.5 L18.8 14.8 14.95 12.05 17.45 7.5 21.75 10.5" fill="#747987" fill-rule="evenodd" stroke="none"/>
    <path d="M20.85 10.65 L18.65 13.85 15.8 11.85 17.65 8.45 20.85 10.65" fill="#f2f2f2" fill-rule="evenodd" stroke="none"/>
    <path d="M16.75 17.9 L9.15 12.5 9.7 11.7 17.3 17.15 16.75 17.9" fill="#cdd1da" fill-rule="evenodd" stroke="none"/>
    <path d="M15.0 20.0 L7.6 14.55 8.15 13.75 15.55 19.25 15.0 20.0" fill="#cdd1da" fill-rule="evenodd" stroke="none"/>
    <path d="M13.15 22.05 L6.0 16.4 6.6 15.7 13.7 21.3 13.15 22.05" fill="#cdd1da" fill-rule="evenodd" stroke="none"/>
    <path d="M16.75 17.45 L9.15 12.0 9.7 11.25 17.3 16.7 16.75 17.45" fill="#3c4254" fill-rule="evenodd" stroke="none"/>
    <path d="M15.0 19.5 L7.6 14.0 8.15 13.3 15.55 18.75 15.0 19.5" fill="#3c4254" fill-rule="evenodd" stroke="none"/>
    <path d="M13.15 21.55 L6.0 15.9 6.6 15.2 13.7 20.85 13.15 21.55" fill="#3c4254" fill-rule="evenodd" stroke="none"/>
    <path d="M3.15 3.3 L2.95 3.9 Q2.75 4.1 2.4 4.1 L1.9 3.9 1.7 3.3 1.9 2.75 2.4 2.55 2.95 2.75 3.15 3.3" fill="#ffff8f" fill-rule="evenodd" stroke="none"/>
    <path d="M3.0 17.15 L2.8 17.6 2.4 17.75 1.95 17.6 1.8 17.15 Q1.8 16.9 1.95 16.7 L2.4 16.5 Q3.0 16.5 3.0 17.15" fill="#ffff8f" fill-rule="evenodd" stroke="none"/>
  </g>
  <defs>
    <radialGradient cx="0" cy="0" gradientTransform="matrix(0.0029, 0.0, 0.0, -0.0029, 2.65, 17.45)" gradientUnits="userSpaceOnUse" id="gradient0" r="819.2" spreadMethod="pad">
      <stop offset="0.0" stop-color="#ffff30"/>
      <stop offset="0.8235294117647058" stop-color="#e56622"/>
      <stop offset="1.0" stop-color="#e5b095"/>
    </radialGradient>
  </defs>
</svg>
