<?xml version="1.0" encoding="UTF-8" standalone="no"?>
<svg xmlns:ffdec="https://www.free-decompiler.com/flash" xmlns:xlink="http://www.w3.org/1999/xlink" ffdec:objectType="shape" height="35.25px" width="34.55px" xmlns="http://www.w3.org/2000/svg">
  <g transform="matrix(1.0, 0.0, 0.0, 1.0, 0.0, 0.0)">
    <path d="M22.6 0.0 L22.7 0.0 23.2 0.2 29.6 6.95 Q29.9 7.25 29.8 7.55 L28.4 16.15 28.1 16.65 25.6 18.15 32.7 22.25 Q34.55 23.35 34.55 25.0 34.55 26.65 32.7 27.75 L21.35 34.3 Q19.6 35.25 17.3 35.25 14.9 35.25 13.25 34.3 L1.9 27.75 Q0.0 26.7 0.0 25.0 0.0 23.3 1.9 22.25 L8.95 18.15 6.5 16.65 6.15 16.15 4.8 7.55 Q4.7 7.2 4.95 6.95 L11.35 0.2 11.85 0.0 12.0 0.0 Q12.35 0.1 12.5 0.4 L14.7 5.25 14.55 6.05 11.65 9.0 12.2 12.5 13.5 13.1 Q15.15 11.75 17.3 11.75 19.35 11.75 21.1 13.1 L22.4 12.5 22.95 9.0 20.0 6.05 Q19.65 5.65 19.9 5.25 L22.05 0.4 22.6 0.0" fill="#000000" fill-rule="evenodd" stroke="none"/>
  </g>
</svg>
