<?xml version="1.0" encoding="UTF-8" standalone="no"?>
<svg xmlns:ffdec="https://www.free-decompiler.com/flash" xmlns:xlink="http://www.w3.org/1999/xlink" ffdec:objectType="shape" height="24.1px" width="23.6px" xmlns="http://www.w3.org/2000/svg">
  <g transform="matrix(1.0, 0.0, 0.0, 1.0, 0.0, 0.0)">
    <path d="M15.85 0.15 L20.25 4.75 20.35 5.15 19.4 11.05 19.2 11.35 17.5 12.4 22.35 15.2 Q23.6 15.95 23.6 17.1 23.6 18.2 22.35 18.95 L14.6 23.45 Q13.4 24.1 11.8 24.1 10.2 24.1 9.05 23.45 L1.3 18.95 Q0.0 18.25 0.0 17.1 0.0 15.9 1.3 15.2 L6.1 12.4 4.45 11.35 4.2 11.05 3.3 5.15 Q3.2 4.9 3.4 4.75 L7.75 0.15 Q7.9 0.0 8.1 0.0 L8.2 0.0 8.55 0.25 10.05 3.6 9.95 4.15 7.95 6.15 8.35 8.55 9.25 8.95 Q10.35 8.0 11.8 8.0 13.25 8.0 14.4 8.95 L15.3 8.55 15.7 6.15 13.65 4.15 Q13.45 3.85 13.6 3.6 L15.05 0.25 Q15.15 0.05 15.45 0.0 L15.5 0.0 15.85 0.15" fill="#133021" fill-rule="evenodd" stroke="none"/>
    <path d="M22.1 18.5 L14.35 23.05 Q13.3 23.6 11.8 23.6 10.3 23.6 9.3 23.05 L1.55 18.5 Q0.5 17.95 0.5 17.1 0.5 16.2 1.55 15.6 L9.3 11.15 Q10.3 10.5 11.8 10.5 13.3 10.5 14.35 11.15 L22.1 15.6 Q23.15 16.2 23.15 17.1 23.15 17.95 22.1 18.5" fill="#356b47" fill-rule="evenodd" stroke="none"/>
    <path d="M21.0 18.0 L14.1 22.0 Q13.1 22.55 11.8 22.55 10.5 22.55 9.55 22.0 L2.65 18.0 Q1.7 17.45 1.7 16.7 1.7 15.95 2.65 15.4 L9.55 11.4 Q10.5 10.85 11.8 10.85 13.1 10.85 14.1 11.4 L21.0 15.4 Q21.9 15.95 21.9 16.7 21.9 17.45 21.0 18.0" fill="url(#gradient0)" fill-rule="evenodd" stroke="none"/>
    <path d="M18.3 15.7 Q18.3 17.2 16.4 18.25 14.5 19.3 11.8 19.3 9.1 19.3 7.2 18.25 5.3 17.2 5.3 15.7 5.3 14.25 7.2 13.2 9.1 12.15 11.8 12.15 14.5 12.15 16.4 13.2 18.3 14.25 18.3 15.7" fill="#006837" fill-rule="evenodd" stroke="none"/>
    <path d="M9.85 15.45 L9.85 14.35 10.75 14.2 13.75 14.2 13.75 16.0 Q10.9 16.45 9.85 15.45" fill="#5c5966" fill-rule="evenodd" stroke="none"/>
    <path d="M7.8 11.6 L8.65 12.0 8.25 13.3 Q8.15 14.4 8.55 14.95 9.25 15.9 11.6 15.6 L11.7 16.55 10.6 16.6 Q8.6 16.6 7.8 15.45 7.1 14.55 7.4 13.0 L7.8 11.6" fill="#5c5966" fill-rule="evenodd" stroke="none"/>
    <path d="M8.1 0.45 L9.6 3.8 7.45 5.95 7.9 8.85 11.1 10.4 9.6 13.95 4.7 10.95 3.7 5.1 8.1 0.45" fill="url(#gradient1)" fill-rule="evenodd" stroke="none"/>
    <path d="M5.15 10.65 L4.25 5.2 7.95 1.3 9.0 3.7 7.1 5.65 6.95 6.05 7.45 8.9 7.7 9.3 10.5 10.6 9.35 13.25 5.15 10.65" fill="url(#gradient2)" fill-rule="evenodd" stroke="none"/>
    <path d="M8.05 10.45 Q8.45 10.7 8.2 11.1 L7.8 11.3 7.55 11.25 5.7 10.15 5.05 6.25 Q5.0 5.75 5.45 5.7 5.9 5.65 6.0 6.1 L6.55 9.55 8.05 10.45" fill="#ffffff" fill-rule="evenodd" stroke="none"/>
    <path d="M8.3 9.05 L11.1 10.4 9.6 13.95 6.65 12.15 7.1 10.75 5.9 10.0 5.25 6.1 Q5.15 5.7 5.6 5.55 6.1 5.5 6.15 5.95 L6.75 9.4 7.55 9.95 8.3 9.05" fill="#5c5966" fill-rule="evenodd" stroke="none"/>
    <path d="M9.25 15.45 L9.0 16.35 Q8.15 16.05 7.8 15.45 7.25 14.75 7.3 13.55 L8.25 13.7 Q8.25 14.5 8.55 14.95 L9.25 15.45" fill="#9a95ab" fill-rule="evenodd" stroke="none"/>
    <path d="M12.05 15.6 Q14.4 15.9 15.05 14.95 15.5 14.4 15.35 13.3 L14.95 12.0 15.85 11.6 16.25 13.0 Q16.5 14.55 15.8 15.45 15.05 16.6 13.0 16.6 L11.95 16.55 12.05 15.6" fill="#5c5966" fill-rule="evenodd" stroke="none"/>
    <path d="M15.5 0.45 L19.9 5.1 18.95 10.95 14.05 13.95 12.5 10.4 15.7 8.85 16.2 5.95 14.0 3.8 15.5 0.45" fill="url(#gradient3)" fill-rule="evenodd" stroke="none"/>
    <path d="M18.5 10.65 L14.25 13.25 13.1 10.6 15.95 9.3 16.2 8.9 16.65 6.05 16.55 5.65 14.6 3.7 15.65 1.3 19.4 5.2 18.5 10.65" fill="url(#gradient4)" fill-rule="evenodd" stroke="none"/>
    <path d="M15.6 10.45 L17.05 9.55 17.65 6.1 Q17.75 5.65 18.2 5.7 18.65 5.75 18.6 6.25 L17.95 10.15 16.05 11.25 15.85 11.3 15.4 11.1 Q15.2 10.7 15.6 10.45" fill="#ffffff" fill-rule="evenodd" stroke="none"/>
    <path d="M15.3 9.05 L16.05 9.95 16.9 9.4 17.45 5.95 Q17.55 5.5 18.0 5.55 18.5 5.7 18.4 6.1 L17.75 10.0 16.5 10.75 17.0 12.15 14.05 13.95 12.5 10.4 Q13.9 9.75 15.3 9.05" fill="#5c5966" fill-rule="evenodd" stroke="none"/>
    <path d="M14.35 15.45 L15.05 14.95 Q15.4 14.5 15.4 13.7 L16.35 13.55 Q16.4 14.75 15.8 15.45 15.4 16.1 14.65 16.35 L14.35 15.45" fill="#9a95ab" fill-rule="evenodd" stroke="none"/>
    <path d="M13.75 17.25 L9.85 17.25 9.85 14.2 13.75 14.2 13.75 17.25" fill="url(#gradient5)" fill-rule="evenodd" stroke="none"/>
    <path d="M15.45 12.15 Q15.45 13.65 14.4 14.7 13.35 15.8 11.8 15.8 10.3 15.8 9.25 14.7 8.15 13.65 8.15 12.15 8.15 10.6 9.25 9.55 10.3 8.5 11.8 8.5 13.35 8.5 14.4 9.55 15.45 10.65 15.45 12.15" fill="url(#gradient6)" fill-rule="evenodd" stroke="none"/>
    <path d="M14.75 12.15 Q14.75 13.4 13.9 14.3 13.05 15.15 11.8 15.15 10.6 15.15 9.75 14.3 8.85 13.4 8.85 12.15 8.85 10.95 9.75 10.05 10.6 9.2 11.8 9.2 13.05 9.2 13.9 10.05 14.75 10.95 14.75 12.15" fill="#ffffff" fill-rule="evenodd" stroke="none"/>
    <path d="M14.6 12.35 Q14.6 13.5 13.75 14.3 12.95 15.15 11.8 15.15 10.65 15.15 9.9 14.3 9.05 13.5 9.05 12.35 9.05 11.2 9.9 10.4 10.65 9.6 11.8 9.6 12.95 9.6 13.75 10.4 14.6 11.2 14.6 12.35" fill="url(#gradient7)" fill-rule="evenodd" stroke="none"/>
    <path d="M12.6 12.35 L12.35 12.9 Q12.15 13.15 11.8 13.15 L11.25 12.9 11.0 12.35 Q11.0 12.0 11.25 11.8 11.5 11.55 11.8 11.55 12.15 11.55 12.35 11.8 L12.6 12.35" fill="#ffffff" fill-rule="evenodd" stroke="none"/>
    <path d="M12.55 12.25 L12.35 12.75 11.8 13.0 11.3 12.75 11.1 12.25 11.3 11.75 11.8 11.55 12.35 11.75 12.55 12.25" fill="#272332" fill-rule="evenodd" stroke="none"/>
    <path d="M9.8 12.7 L9.5 12.85 9.15 12.7 9.0 12.35 Q9.0 11.9 9.5 11.9 9.95 11.9 9.95 12.35 L9.8 12.7 M11.8 15.15 Q11.35 15.15 11.35 14.7 11.35 14.2 11.8 14.2 12.3 14.2 12.3 14.7 12.3 15.15 11.8 15.15 M11.35 10.05 Q11.35 9.55 11.8 9.55 12.3 9.55 12.3 10.05 L12.15 10.35 11.8 10.5 Q11.35 10.5 11.35 10.05 M14.65 12.35 L14.5 12.7 14.15 12.85 13.8 12.7 13.65 12.35 Q13.65 11.9 14.15 11.9 L14.5 12.0 14.65 12.35" fill="#ffffff" fill-rule="evenodd" stroke="none"/>
    <path d="M11.35 14.55 Q11.35 14.1 11.8 14.1 L12.15 14.25 12.3 14.55 Q12.3 15.05 11.8 15.05 11.35 15.05 11.35 14.55 M9.0 12.25 Q9.0 11.75 9.5 11.75 9.65 11.75 9.8 11.9 L9.95 12.25 9.5 12.7 Q9.0 12.7 9.0 12.25 M11.8 10.4 Q11.35 10.4 11.35 9.9 11.35 9.4 11.8 9.4 12.3 9.4 12.3 9.9 12.3 10.4 11.8 10.4 M14.65 12.25 Q14.65 12.7 14.15 12.7 13.65 12.7 13.65 12.25 L13.8 11.9 Q13.95 11.75 14.15 11.75 14.3 11.75 14.5 11.9 L14.65 12.25" fill="#272332" fill-rule="evenodd" stroke="none"/>
  </g>
  <defs>
    <linearGradient gradientTransform="matrix(0.0057, 0.0031, 0.0031, -0.0057, 10.55, 16.0)" gradientUnits="userSpaceOnUse" id="gradient0" spreadMethod="pad" x1="-819.2" x2="819.2">
      <stop offset="0.0" stop-color="#009245"/>
      <stop offset="1.0" stop-color="#8cc63f"/>
    </linearGradient>
    <linearGradient gradientTransform="matrix(0.001, 0.0064, 0.0064, -0.001, 7.3, 7.05)" gradientUnits="userSpaceOnUse" id="gradient1" spreadMethod="pad" x1="-819.2" x2="819.2">
      <stop offset="0.0" stop-color="#fdfefd"/>
      <stop offset="1.0" stop-color="#dfded7"/>
    </linearGradient>
    <linearGradient gradientTransform="matrix(9.0E-4, 0.0057, 0.0057, -9.0E-4, 7.25, 7.15)" gradientUnits="userSpaceOnUse" id="gradient2" spreadMethod="pad" x1="-819.2" x2="819.2">
      <stop offset="0.0" stop-color="#eeefef"/>
      <stop offset="1.0" stop-color="#a7a4a8"/>
    </linearGradient>
    <linearGradient gradientTransform="matrix(-0.001, -0.0064, 0.0064, -0.001, 16.3, 7.05)" gradientUnits="userSpaceOnUse" id="gradient3" spreadMethod="pad" x1="-819.2" x2="819.2">
      <stop offset="0.0" stop-color="#fdfefd"/>
      <stop offset="1.0" stop-color="#dfded7"/>
    </linearGradient>
    <linearGradient gradientTransform="matrix(-9.0E-4, -0.0057, 0.0057, -9.0E-4, 16.35, 7.15)" gradientUnits="userSpaceOnUse" id="gradient4" spreadMethod="pad" x1="-819.2" x2="819.2">
      <stop offset="0.0" stop-color="#eeefef"/>
      <stop offset="1.0" stop-color="#a7a4a8"/>
    </linearGradient>
    <linearGradient gradientTransform="matrix(0.0024, 0.0, 0.0, -0.0024, 11.8, 15.7)" gradientUnits="userSpaceOnUse" id="gradient5" spreadMethod="pad" x1="-819.2" x2="819.2">
      <stop offset="0.0" stop-color="#8c9099"/>
      <stop offset="0.12156862745098039" stop-color="#cdd1da"/>
      <stop offset="0.3568627450980392" stop-color="#cdd1da"/>
      <stop offset="0.8" stop-color="#777d8a"/>
      <stop offset="1.0" stop-color="#cdd1da"/>
    </linearGradient>
    <linearGradient gradientTransform="matrix(0.0, -0.0044, -0.0044, 0.0, 11.8, 12.15)" gradientUnits="userSpaceOnUse" id="gradient6" spreadMethod="pad" x1="-819.2" x2="819.2">
      <stop offset="0.0" stop-color="#999999"/>
      <stop offset="1.0" stop-color="#f2f2f2"/>
    </linearGradient>
    <linearGradient gradientTransform="matrix(0.0, 0.0034, 0.0034, 0.0, 11.8, 12.35)" gradientUnits="userSpaceOnUse" id="gradient7" spreadMethod="pad" x1="-819.2" x2="819.2">
      <stop offset="0.0" stop-color="#999999"/>
      <stop offset="1.0" stop-color="#f2f2f2"/>
    </linearGradient>
  </defs>
</svg>
