<?xml version="1.0" encoding="UTF-8" standalone="no"?>
<svg xmlns:ffdec="https://www.free-decompiler.com/flash" xmlns:xlink="http://www.w3.org/1999/xlink" ffdec:objectType="shape" height="30.3px" width="34.85px" xmlns="http://www.w3.org/2000/svg">
  <g transform="matrix(1.0, 0.0, 0.0, 1.0, 0.0, 0.0)">
    <path d="M31.75 4.05 Q33.55 5.85 33.55 8.45 33.55 11.05 31.65 12.85 L31.85 13.0 32.0 13.15 Q34.7 15.4 34.85 16.95 34.85 17.75 34.35 18.4 33.8 19.0 33.1 19.0 32.4 19.0 31.45 18.3 L31.45 23.95 31.45 24.45 30.95 25.3 Q30.4 25.85 29.4 25.85 28.45 25.85 27.9 25.3 27.4 24.75 27.4 23.9 L27.4 20.65 27.35 20.5 27.35 23.95 Q27.4 24.7 26.85 25.3 26.3 25.85 25.35 25.85 24.35 25.85 23.8 25.3 L23.3 24.45 23.25 23.95 23.25 20.8 22.55 20.25 22.55 28.0 Q22.55 28.95 21.9 29.6 21.2 30.3 20.05 30.3 18.95 30.3 18.25 29.6 17.85 29.2 17.75 28.55 L17.7 27.95 17.7 23.7 Q17.65 23.35 17.4 23.35 L17.2 23.55 17.15 23.75 17.15 28.0 17.1 28.55 16.6 29.6 Q15.9 30.3 14.75 30.3 13.65 30.3 12.95 29.6 12.3 28.95 12.3 28.0 L12.3 20.25 11.55 20.8 11.55 23.95 11.5 24.45 11.05 25.3 Q10.5 25.85 9.5 25.85 8.55 25.85 8.0 25.3 7.5 24.75 7.5 23.9 L7.5 20.65 7.45 20.5 7.45 23.95 7.4 24.4 6.95 25.3 Q6.4 25.85 5.45 25.85 4.45 25.85 3.9 25.3 L3.4 24.45 3.35 23.95 3.35 18.3 Q2.5 19.0 1.75 19.0 1.05 19.0 0.5 18.4 -0.05 17.65 0.0 16.95 0.15 15.4 2.85 13.15 L3.05 12.95 3.2 12.85 Q1.3 11.05 1.3 8.45 1.3 5.85 3.1 4.05 4.9 2.25 7.45 2.25 9.45 2.25 11.0 3.35 12.1 1.8 13.75 0.95 15.45 0.0 17.4 0.0 19.4 0.0 21.1 0.95 22.75 1.8 23.85 3.35 25.4 2.25 27.35 2.25 29.95 2.25 31.75 4.05" fill="#000000" fill-rule="evenodd" stroke="none"/>
  </g>
</svg>
