<?xml version="1.0" encoding="UTF-8" standalone="no"?>
<svg xmlns:ffdec="https://www.free-decompiler.com/flash" xmlns:xlink="http://www.w3.org/1999/xlink" ffdec:objectType="shape" height="50.5px" width="50.45px" xmlns="http://www.w3.org/2000/svg">
  <g transform="matrix(1.0, 0.0, 0.0, 1.0, 0.0, 0.0)">
    <path d="M41.65 41.7 Q48.45 34.85 48.45 25.25 48.45 15.65 41.65 8.85 34.85 2.0 25.25 2.0 15.6 2.0 8.8 8.85 2.0 15.65 2.0 25.25 2.0 34.85 8.8 41.7 15.6 48.5 25.25 48.5 34.85 48.5 41.65 41.7 M43.05 7.4 Q50.45 14.8 50.45 25.25 50.45 35.7 43.05 43.1 35.7 50.5 25.25 50.5 14.8 50.5 7.4 43.1 0.0 35.7 0.0 25.25 0.0 14.8 7.4 7.4 14.8 0.0 25.25 0.0 35.7 0.0 43.05 7.4" fill="#00d4ff" fill-rule="evenodd" stroke="none"/>
  </g>
</svg>
