<?xml version="1.0" encoding="UTF-8" standalone="no"?>
<svg xmlns:ffdec="https://www.free-decompiler.com/flash" xmlns:xlink="http://www.w3.org/1999/xlink" ffdec:objectType="shape" height="32.45px" width="33.85px" xmlns="http://www.w3.org/2000/svg">
  <g transform="matrix(1.0, 0.0, 0.0, 1.0, 0.0, 0.0)">
    <path d="M23.85 0.7 L25.5 3.05 Q28.35 7.5 29.35 8.5 L29.75 8.9 32.85 12.15 Q33.85 13.35 33.85 14.05 33.85 14.7 33.2 15.3 L31.9 16.35 31.25 16.8 30.75 16.3 31.2 16.85 31.05 17.0 30.95 17.05 30.9 17.1 30.85 17.45 Q30.75 18.2 30.3 18.65 L29.55 19.1 Q29.15 19.3 28.75 19.45 L28.9 20.7 Q28.9 21.8 27.95 22.9 L27.85 23.8 27.8 23.9 Q27.25 28.4 24.85 30.45 22.5 32.45 17.75 32.45 13.15 32.45 10.8 30.65 8.45 28.8 7.75 24.75 L7.7 24.7 8.4 24.5 7.7 24.6 7.6 23.75 7.6 23.7 6.8 22.5 Q6.55 21.8 6.4 20.25 L5.6 20.0 4.85 19.55 3.3 17.95 Q2.4 16.85 1.15 16.55 L0.55 16.35 Q0.15 16.2 0.05 15.65 -0.1 14.85 0.2 12.9 L0.35 12.6 Q0.55 12.3 1.5 11.85 L3.0 10.9 4.15 9.65 6.65 7.0 8.3 4.85 Q11.3 0.95 11.95 0.65 13.7 0.0 17.25 0.0 L21.0 0.2 23.85 0.7" fill="#000000" fill-rule="evenodd" stroke="none"/>
  </g>
</svg>
