<?xml version="1.0" encoding="UTF-8" standalone="no"?>
<svg xmlns:ffdec="https://www.free-decompiler.com/flash" xmlns:xlink="http://www.w3.org/1999/xlink" ffdec:objectType="shape" height="24.5px" width="25.55px" xmlns="http://www.w3.org/2000/svg">
  <g transform="matrix(1.0, 0.0, 0.0, 1.0, 0.0, 0.0)">
    <path d="M19.3 2.3 L22.15 6.4 22.45 6.7 24.8 9.2 Q25.55 10.1 25.55 10.65 25.55 11.1 25.05 11.55 L24.1 12.35 23.6 12.7 23.2 12.3 23.55 12.7 23.45 12.85 23.35 12.85 23.35 12.9 23.3 13.15 22.9 14.1 22.3 14.45 21.7 14.7 21.8 15.65 Q21.8 16.45 21.1 17.3 L21.05 17.95 21.05 18.05 Q20.6 21.45 18.75 23.0 16.95 24.5 13.4 24.5 9.95 24.5 8.15 23.15 6.4 21.75 5.85 18.7 L5.8 18.65 6.35 18.5 5.8 18.55 5.75 17.95 5.75 17.9 5.15 17.0 4.85 15.35 4.25 15.1 3.65 14.75 2.5 13.55 Q1.85 12.7 0.9 12.5 L0.45 12.35 Q0.1 12.25 0.05 11.8 -0.05 11.25 0.15 9.75 L0.25 9.5 Q0.4 9.3 1.15 8.95 L2.25 8.25 3.15 7.3 5.05 5.3 6.25 3.7 Q8.55 0.7 9.05 0.55 10.3 0.0 13.05 0.0 L15.85 0.15 18.0 0.55 19.3 2.3" fill="#141414" fill-rule="evenodd" stroke="none"/>
    <path d="M20.7 14.3 Q20.7 19.3 19.5 21.35 17.85 23.95 13.4 23.95 8.85 23.95 7.3 21.35 6.1 19.35 6.1 14.3 L20.7 14.3" fill="url(#gradient0)" fill-rule="evenodd" stroke="none"/>
    <path d="M20.7 13.6 L20.95 14.1 21.3 15.65 Q21.35 16.6 19.85 17.75 18.45 18.9 17.2 18.95 16.05 19.0 15.4 18.35 14.75 17.7 13.65 17.75 12.55 17.8 12.05 18.35 11.5 19.0 10.3 19.15 8.7 19.35 7.25 18.5 6.1 17.8 5.65 16.75 L5.4 15.5 5.35 14.55 20.7 13.6" fill="url(#gradient1)" fill-rule="evenodd" stroke="none"/>
    <path d="M6.1 15.5 L6.1 15.3 20.7 14.4 20.5 17.95 Q19.8 18.7 18.9 19.2 17.95 19.65 17.2 19.7 16.05 19.8 15.4 19.1 14.75 18.45 13.65 18.55 12.55 18.6 12.05 19.15 11.5 19.8 10.3 19.95 8.0 20.25 6.35 18.55 L6.1 15.5" fill="#8f522f" fill-rule="evenodd" stroke="none"/>
    <path d="M20.7 13.6 L20.95 14.1 21.3 15.65 Q21.35 16.6 19.85 17.75 18.45 18.9 17.2 18.95 16.05 19.0 15.4 18.35 14.75 17.7 13.65 17.75 12.55 17.8 12.05 18.35 11.5 19.0 10.3 19.15 8.7 19.35 7.25 18.5 6.1 17.8 5.65 16.75 L5.4 15.5 5.35 14.55 20.7 13.6" fill="url(#gradient2)" fill-rule="evenodd" stroke="none"/>
    <path d="M9.9 13.95 L10.75 18.7 10.3 18.8 8.7 18.7 8.7 14.0 9.9 13.95" fill="#b0ebeb" fill-rule="evenodd" stroke="none"/>
    <path d="M4.6 14.65 Q4.75 13.45 6.25 12.7 8.35 11.6 12.9 11.65 19.1 11.75 22.5 13.7 L22.15 13.95 19.05 15.1 Q16.05 15.95 13.25 16.0 L8.1 15.65 4.6 14.65" fill="#141414" fill-rule="evenodd" stroke="none"/>
    <path d="M22.9 12.65 L22.75 13.2 22.5 13.7 Q19.1 11.75 12.9 11.65 8.35 11.6 6.25 12.7 4.75 13.45 4.6 14.65 L4.4 14.6 4.0 14.35 Q3.8 13.35 4.05 13.05 5.0 11.95 6.2 11.35 9.05 9.95 14.2 10.0 20.4 10.15 22.9 12.65" fill="url(#gradient3)" fill-rule="evenodd" stroke="none"/>
    <path d="M17.2 1.75 Q17.75 2.1 18.6 3.75 L19.85 6.2 22.15 8.85 24.05 10.85 24.15 11.3 23.8 11.95 22.9 12.65 Q20.4 10.15 14.2 10.0 9.05 9.95 6.2 11.35 5.0 11.95 4.05 13.05 3.8 13.35 4.0 14.35 L2.9 13.2 2.9 13.15 Q2.9 12.25 2.15 11.85 L1.35 11.55 1.4 10.8 Q1.55 10.15 1.95 9.85 L2.9 9.25 6.4 5.65 9.8 2.1 Q10.4 1.6 13.25 1.4 L17.2 1.75" fill="url(#gradient4)" fill-rule="evenodd" stroke="none"/>
    <path d="M17.7 1.0 L19.4 3.5 Q21.05 6.1 21.8 6.8 25.05 9.95 25.05 10.65 L23.8 11.95 24.15 11.3 24.05 10.85 22.15 8.85 19.85 6.2 18.6 3.75 Q17.75 2.1 17.2 1.75 L13.25 1.4 Q10.4 1.6 9.8 2.1 L6.4 5.65 2.9 9.25 1.95 9.85 Q1.55 10.15 1.4 10.8 L1.35 11.55 2.15 11.85 Q2.9 12.25 2.9 13.15 L1.65 12.15 0.65 11.85 0.55 10.8 0.7 9.8 1.55 9.3 2.65 8.55 5.45 5.65 7.5 2.95 9.2 1.0 13.05 0.55 16.0 0.7 17.7 1.0" fill="url(#gradient5)" fill-rule="evenodd" stroke="none"/>
    <path d="M19.05 15.1 Q16.05 15.95 13.25 16.0 L8.1 15.65 4.6 14.65 4.8 14.05 Q8.1 15.7 13.35 15.5 18.3 15.35 21.8 13.35 L22.5 13.7 22.15 13.95 19.05 15.1" fill="#1c2727" fill-rule="evenodd" stroke="none"/>
    <path d="M11.95 14.7 L17.65 14.45 20.2 13.85 Q19.25 14.85 15.45 15.35 L11.35 15.45 Q11.05 15.2 11.5 14.95 L11.95 14.7" fill="#3d4436" fill-rule="evenodd" stroke="none"/>
    <path d="M7.15 14.7 L9.0 13.8 Q11.65 12.9 15.65 13.0 L16.45 13.35 Q17.1 13.85 16.15 14.3 L12.85 14.6 Q10.45 14.55 9.8 15.1 L7.15 14.7" fill="url(#gradient6)" fill-rule="evenodd" stroke="none"/>
    <path d="M15.2 15.35 L13.65 15.4 12.75 15.2 15.05 14.9 17.15 14.65 16.8 14.95 15.2 15.35" fill="#aba9a1" fill-rule="evenodd" stroke="none"/>
    <path d="M14.2 10.0 L17.3 10.25 Q15.2 11.35 13.3 11.45 11.35 11.5 9.05 10.4 L14.2 10.0" fill="#2c0f10" fill-rule="evenodd" stroke="none"/>
    <path d="M9.5 7.25 L10.65 6.85 7.75 6.85 Q9.4 5.15 11.35 4.55 L13.0 4.2 Q15.5 3.95 17.8 6.55 19.0 7.8 19.65 9.15 L18.4 8.0 17.65 7.5 Q18.2 9.1 22.05 11.8 L21.65 10.7 22.65 11.65 21.35 9.1 23.35 11.35 23.7 11.95 22.9 12.65 Q20.4 10.15 14.2 10.0 9.05 9.95 6.2 11.35 5.0 11.95 4.05 13.05 3.8 13.35 4.0 14.35 L2.9 13.2 2.9 13.15 2.7 12.35 2.55 11.05 Q2.4 10.5 3.05 10.35 L3.8 10.25 Q4.05 9.75 5.25 9.5 L6.45 9.4 5.35 10.15 Q4.85 10.55 5.05 10.75 L5.35 10.85 Q6.9 10.85 10.35 9.4 L8.65 9.5 7.4 9.8 Q8.55 8.9 9.05 8.7 L9.15 8.55 7.8 8.5 6.6 8.6 9.5 7.25" fill="url(#gradient7)" fill-rule="evenodd" stroke="none"/>
    <path d="M17.05 7.75 Q17.05 9.15 15.95 10.1 14.8 11.05 13.2 11.05 11.6 11.05 10.5 10.1 9.35 9.15 9.35 7.75 9.35 6.4 10.5 5.45 11.6 4.45 13.2 4.45 14.8 4.45 15.95 5.45 17.05 6.4 17.05 7.75" fill="url(#gradient8)" fill-rule="evenodd" stroke="none"/>
    <path d="M16.15 7.65 Q16.15 8.75 15.25 9.5 14.4 10.25 13.1 10.25 11.85 10.25 11.0 9.5 10.1 8.75 10.1 7.65 10.1 6.6 11.0 5.85 11.85 5.1 13.1 5.1 14.4 5.1 15.25 5.85 16.15 6.55 16.15 7.65" fill="#ffb300" fill-rule="evenodd" stroke="none"/>
    <path d="M16.35 7.9 Q16.35 8.95 15.5 9.7 14.6 10.45 13.35 10.45 12.05 10.45 11.2 9.7 10.3 9.0 10.3 7.9 10.3 6.8 11.2 6.05 12.05 5.3 13.35 5.3 14.6 5.3 15.5 6.05 16.35 6.85 16.35 7.9" fill="url(#gradient9)" fill-rule="evenodd" stroke="none"/>
    <path d="M14.9 8.35 L14.7 8.8 14.15 9.0 Q13.85 9.0 13.65 8.8 L13.4 8.35 13.65 7.9 14.15 7.7 14.7 7.9 14.9 8.35" fill="#ff9127" fill-rule="evenodd" stroke="none"/>
  </g>
  <defs>
    <radialGradient cx="0" cy="0" gradientTransform="matrix(0.0091, 0.0, 0.0, -0.008, 11.5, 18.25)" gradientUnits="userSpaceOnUse" id="gradient0" r="819.2" spreadMethod="pad">
      <stop offset="0.0" stop-color="#faffbd"/>
      <stop offset="0.3607843137254902" stop-color="#cfc56b"/>
      <stop offset="0.4745098039215686" stop-color="#cbb964"/>
      <stop offset="0.6784313725490196" stop-color="#c29850"/>
      <stop offset="0.8549019607843137" stop-color="#b8783d"/>
      <stop offset="1.0" stop-color="#b39288"/>
    </radialGradient>
    <linearGradient gradientTransform="matrix(0.0097, 0.0, 0.0, -0.0097, 13.3, 16.4)" gradientUnits="userSpaceOnUse" id="gradient1" spreadMethod="pad" x1="-819.2" x2="819.2">
      <stop offset="0.0" stop-color="#000000"/>
      <stop offset="0.5333333333333333" stop-color="#666666"/>
      <stop offset="1.0" stop-color="#000000"/>
    </linearGradient>
    <linearGradient gradientTransform="matrix(0.0097, 0.0, 0.0, -0.0097, 13.3, 16.4)" gradientUnits="userSpaceOnUse" id="gradient2" spreadMethod="pad" x1="-819.2" x2="819.2">
      <stop offset="0.0" stop-color="#274473"/>
      <stop offset="0.4235294117647059" stop-color="#2690f0"/>
      <stop offset="0.6431372549019608" stop-color="#3590de"/>
      <stop offset="1.0" stop-color="#143873"/>
    </linearGradient>
    <linearGradient gradientTransform="matrix(0.0116, 0.0, 0.0, -0.0116, 13.4, 12.35)" gradientUnits="userSpaceOnUse" id="gradient3" spreadMethod="pad" x1="-819.2" x2="819.2">
      <stop offset="0.0" stop-color="#26140d"/>
      <stop offset="0.18823529411764706" stop-color="#d95900"/>
      <stop offset="0.5254901960784314" stop-color="#f5dd00"/>
      <stop offset="0.8352941176470589" stop-color="#de6b1b"/>
      <stop offset="1.0" stop-color="#26140d"/>
    </linearGradient>
    <linearGradient gradientTransform="matrix(0.014, 0.0, 0.0, -0.014, 12.75, 7.85)" gradientUnits="userSpaceOnUse" id="gradient4" spreadMethod="pad" x1="-819.2" x2="819.2">
      <stop offset="0.0" stop-color="#566965"/>
      <stop offset="0.30196078431372547" stop-color="#c1c699"/>
      <stop offset="0.6980392156862745" stop-color="#b6bd94"/>
      <stop offset="1.0" stop-color="#566965"/>
    </linearGradient>
    <linearGradient gradientTransform="matrix(0.0149, 0.0, 0.0, -0.0149, 12.75, 6.85)" gradientUnits="userSpaceOnUse" id="gradient5" spreadMethod="pad" x1="-819.2" x2="819.2">
      <stop offset="0.0" stop-color="#26140d"/>
      <stop offset="0.18823529411764706" stop-color="#d95900"/>
      <stop offset="0.5254901960784314" stop-color="#f5dd00"/>
      <stop offset="0.8352941176470589" stop-color="#de6b1b"/>
      <stop offset="1.0" stop-color="#26140d"/>
    </linearGradient>
    <linearGradient gradientTransform="matrix(0.0058, 0.0, 0.0, -0.0058, 11.95, 14.05)" gradientUnits="userSpaceOnUse" id="gradient6" spreadMethod="pad" x1="-819.2" x2="819.2">
      <stop offset="0.0" stop-color="#141414"/>
      <stop offset="1.0" stop-color="#2b2017"/>
    </linearGradient>
    <linearGradient gradientTransform="matrix(0.013, 0.0, 0.0, -0.013, 13.1, 9.25)" gradientUnits="userSpaceOnUse" id="gradient7" spreadMethod="pad" x1="-819.2" x2="819.2">
      <stop offset="0.0" stop-color="#1b2120"/>
      <stop offset="0.2784313725490196" stop-color="#657a76"/>
      <stop offset="0.4980392156862745" stop-color="#98b8b2"/>
      <stop offset="0.7098039215686275" stop-color="#657a76"/>
      <stop offset="1.0" stop-color="#1b2120"/>
    </linearGradient>
    <linearGradient gradientTransform="matrix(-0.0047, 0.0, 0.0, 0.0047, 13.2, 7.75)" gradientUnits="userSpaceOnUse" id="gradient8" spreadMethod="pad" x1="-819.2" x2="819.2">
      <stop offset="0.0" stop-color="#a10f08"/>
      <stop offset="1.0" stop-color="#f95a25"/>
    </linearGradient>
    <linearGradient gradientTransform="matrix(0.0037, 0.0, 0.0, -0.0037, 13.35, 7.9)" gradientUnits="userSpaceOnUse" id="gradient9" spreadMethod="pad" x1="-819.2" x2="819.2">
      <stop offset="0.0" stop-color="#a10f08"/>
      <stop offset="1.0" stop-color="#f95a25"/>
    </linearGradient>
  </defs>
</svg>
