<?xml version="1.0" encoding="UTF-8" standalone="no"?>
<svg xmlns:ffdec="https://www.free-decompiler.com/flash" xmlns:xlink="http://www.w3.org/1999/xlink" ffdec:objectType="shape" height="23.1px" width="35.8px" xmlns="http://www.w3.org/2000/svg">
  <g transform="matrix(1.0, 0.0, 0.0, 1.0, 0.0, 0.0)">
    <path d="M34.2 11.35 L24.85 13.9 24.85 16.35 Q24.8 17.95 23.5 18.85 22.25 19.75 20.05 19.8 L20.05 20.0 Q19.7 22.35 18.15 23.0 L17.9 23.1 17.65 23.0 Q16.15 22.35 15.75 20.0 L15.75 19.8 Q13.55 19.75 12.3 18.85 11.05 17.95 10.95 16.35 L10.95 13.9 1.6 11.35 1.2 10.75 1.65 10.15 8.95 8.75 9.1 7.5 12.4 7.55 9.45 2.2 9.25 1.95 10.1 0.0 11.8 0.4 16.55 7.15 19.25 7.15 24.0 0.4 25.7 0.0 26.55 1.95 23.4 7.55 26.75 7.5 26.85 8.75 34.2 10.15 34.6 10.7 34.2 11.35 M8.1 14.6 L8.5 14.7 10.35 16.1 Q10.85 16.45 10.5 17.0 L7.75 20.7 Q7.6 20.95 7.25 20.95 L0.6 20.95 Q0.0 20.95 0.0 20.3 L0.0 17.95 Q0.0 17.35 0.6 17.35 L5.75 17.35 7.6 14.85 Q7.75 14.6 8.0 14.6 L8.1 14.6 M10.5 5.5 Q10.85 6.05 10.35 6.4 L8.5 7.8 8.1 7.9 7.6 7.65 5.75 5.15 0.6 5.15 Q0.0 5.15 0.0 4.55 L0.0 2.2 Q0.0 1.55 0.6 1.55 L7.25 1.55 Q7.6 1.55 7.75 1.8 L10.5 5.5 M28.2 14.85 L30.05 17.35 35.15 17.35 Q35.8 17.35 35.8 17.95 L35.8 20.3 Q35.8 20.95 35.15 20.95 L28.55 20.95 Q28.2 20.95 28.05 20.7 L25.3 17.0 Q24.95 16.45 25.4 16.1 L27.3 14.7 27.7 14.6 27.8 14.6 28.2 14.85 M35.15 1.55 Q35.8 1.55 35.8 2.2 L35.8 4.55 Q35.8 5.15 35.15 5.15 L30.05 5.15 28.2 7.65 27.7 7.9 27.3 7.8 25.4 6.4 Q24.95 6.05 25.3 5.5 L28.05 1.8 Q28.2 1.55 28.55 1.55 L35.15 1.55" fill="#000000" fill-rule="evenodd" stroke="none"/>
  </g>
</svg>
