<?xml version="1.0" encoding="UTF-8" standalone="no"?>
<svg xmlns:ffdec="https://www.free-decompiler.com/flash" xmlns:xlink="http://www.w3.org/1999/xlink" ffdec:objectType="shape" height="30.75px" width="33.2px" xmlns="http://www.w3.org/2000/svg">
  <g transform="matrix(1.0, 0.0, 0.0, 1.0, 0.0, 0.0)">
    <path d="M30.8 8.7 L28.5 14.2 Q29.2 15.45 28.8 16.5 L28.5 16.95 28.35 17.5 Q27.7 19.1 25.1 19.1 L23.25 18.9 Q23.85 19.45 24.1 20.15 L24.25 21.0 24.7 21.8 Q25.4 23.85 23.3 26.2 21.2 28.5 17.4 29.8 14.85 30.75 12.2 30.75 10.05 30.75 8.6 30.05 7.15 29.35 6.7 28.1 L6.55 27.25 6.15 26.45 Q5.55 24.8 6.85 22.95 L3.5 13.35 Q1.35 12.65 0.75 11.05 0.6 10.7 0.6 10.2 0.25 9.8 0.2 9.4 -0.6 7.3 1.7 4.85 3.95 2.6 7.45 1.4 10.0 0.45 12.65 0.45 14.8 0.45 16.25 1.15 17.7 1.85 18.15 3.1 L18.3 4.0 18.7 4.75 Q19.3 6.4 18.0 8.3 L18.8 10.6 19.35 10.4 21.65 4.9 Q20.9 3.7 21.35 2.6 L21.65 2.15 21.75 1.65 Q22.45 0.0 25.05 0.0 26.7 0.0 28.7 0.8 32.05 2.2 32.95 4.4 33.4 5.45 33.0 6.3 L32.75 6.75 32.6 7.3 Q32.15 8.35 30.8 8.7" fill="#000000" fill-rule="evenodd" stroke="none"/>
  </g>
</svg>
