<?xml version="1.0" encoding="UTF-8" standalone="no"?>
<svg xmlns:ffdec="https://www.free-decompiler.com/flash" xmlns:xlink="http://www.w3.org/1999/xlink" ffdec:objectType="shape" height="24.25px" width="26.15px" xmlns="http://www.w3.org/2000/svg">
  <g transform="matrix(1.0, 0.0, 0.0, 1.0, -0.05, 0.0)">
    <path d="M22.65 0.65 Q25.3 1.75 26.0 3.45 26.35 4.3 26.05 4.95 L25.85 5.3 25.75 5.75 Q25.4 6.6 24.3 6.85 L22.5 11.2 Q23.05 12.2 22.75 13.0 L22.5 13.35 22.4 13.8 Q21.85 15.05 19.8 15.05 L18.35 14.9 Q18.85 15.35 19.05 15.9 L19.15 16.55 19.5 17.2 Q20.05 18.8 18.4 20.65 16.75 22.5 13.75 23.5 11.75 24.25 9.65 24.25 L6.8 23.7 Q5.65 23.15 5.3 22.15 L5.2 21.5 4.85 20.85 Q4.4 19.55 5.4 18.1 L2.8 10.55 Q1.1 10.0 0.6 8.7 L0.5 8.05 0.2 7.4 Q-0.45 5.75 1.35 3.8 3.15 2.05 5.9 1.1 7.9 0.35 10.0 0.35 11.7 0.35 12.85 0.9 14.0 1.45 14.35 2.45 L14.45 3.15 14.75 3.75 Q15.25 5.05 14.2 6.55 L14.85 8.35 15.3 8.2 17.1 3.85 Q16.5 2.9 16.85 2.05 L17.1 1.7 17.2 1.3 Q17.75 0.0 19.8 0.0 21.1 0.0 22.65 0.65" fill="#193026" fill-rule="evenodd" stroke="none"/>
    <path d="M21.9 13.55 Q21.55 14.4 20.2 14.5 18.75 14.6 17.15 13.9 15.5 13.3 14.6 12.2 13.7 11.1 14.0 10.35 14.4 9.5 15.75 9.4 17.2 9.25 18.8 9.95 20.4 10.6 21.3 11.65 22.25 12.75 21.9 13.55" fill="url(#gradient0)" fill-rule="evenodd" stroke="none"/>
    <path d="M22.25 12.8 Q21.85 13.65 20.5 13.75 19.05 13.85 17.45 13.15 15.85 12.5 14.95 11.45 14.0 10.35 14.4 9.55 14.7 8.7 16.1 8.6 17.5 8.5 19.1 9.2 20.75 9.85 21.65 10.9 22.55 12.0 22.25 12.8" fill="url(#gradient1)" fill-rule="evenodd" stroke="none"/>
    <path d="M21.7 12.55 Q21.45 13.2 20.25 13.3 19.05 13.35 17.6 12.8 16.2 12.2 15.4 11.3 14.6 10.35 14.9 9.7 15.15 9.0 16.4 8.9 17.55 8.85 19.0 9.4 20.4 10.0 21.2 10.9 22.05 11.85 21.7 12.55" fill="#696c73" fill-rule="evenodd" stroke="none"/>
    <path d="M24.1 5.9 L21.45 12.4 Q21.15 12.95 20.1 13.0 19.05 13.05 17.75 12.5 16.45 12.0 15.7 11.15 14.95 10.35 15.2 9.8 L17.95 3.3 24.1 5.9" fill="url(#gradient2)" fill-rule="evenodd" stroke="none"/>
    <path d="M17.85 12.25 Q16.85 11.85 16.25 11.25 15.7 10.6 15.9 10.25 L18.6 3.65 23.4 5.6 20.65 12.25 Q20.5 12.6 19.65 12.65 L17.85 12.25" fill="#193026" fill-rule="evenodd" stroke="none"/>
    <path d="M16.2 9.45 L17.4 6.45 Q18.25 5.9 19.15 6.25 19.9 6.45 20.75 7.15 21.55 7.75 22.45 7.95 L20.8 11.85 17.4 10.65 16.2 9.45" fill="url(#gradient3)" fill-rule="evenodd" stroke="none"/>
    <path d="M22.35 8.25 L22.05 8.9 20.1 9.65 16.55 8.55 17.05 7.3 18.15 7.75 20.05 7.75 22.25 8.1 22.35 8.25" fill="#b9fca1" fill-rule="evenodd" stroke="none"/>
    <path d="M18.95 8.1 L22.45 7.9 20.65 12.25 Q20.5 12.6 19.65 12.65 L17.85 12.25 Q16.85 11.85 16.25 11.25 15.7 10.6 15.9 10.25 L17.0 7.55 Q18.15 8.3 18.95 8.1" fill="url(#gradient4)" fill-rule="evenodd" stroke="none"/>
    <path d="M20.2 11.05 Q19.9 11.65 19.3 11.4 L18.95 11.05 18.95 10.55 Q19.15 10.0 19.8 10.15 L20.2 10.55 20.2 11.05" fill="#b9fca1" fill-rule="evenodd" stroke="none"/>
    <path d="M19.4 9.5 Q19.25 9.85 18.9 9.7 18.5 9.55 18.7 9.25 18.85 8.85 19.2 9.0 19.55 9.15 19.4 9.5" fill="#b9fca1" fill-rule="evenodd" stroke="none"/>
    <path d="M20.0 10.9 Q19.8 11.3 19.4 11.1 L19.15 10.9 19.15 10.55 Q19.3 10.15 19.7 10.3 20.1 10.5 20.0 10.9" fill="#e4fcdb" fill-rule="evenodd" stroke="none"/>
    <path d="M20.4 12.1 L22.1 7.9 22.45 7.9 20.65 12.25 Q20.5 12.6 19.65 12.65 L17.85 12.25 16.5 11.5 Q17.55 12.15 18.9 12.25 L20.4 12.1" fill="#009245" fill-rule="evenodd" stroke="none"/>
    <path d="M18.1 10.5 L16.65 9.9 18.85 4.6 20.3 5.2 18.1 10.5" fill="url(#gradient5)" fill-rule="evenodd" stroke="none"/>
    <path d="M24.7 3.65 Q25.6 4.7 25.25 5.5 24.9 6.35 23.55 6.45 22.1 6.55 20.5 5.85 18.9 5.25 17.95 4.15 17.05 3.05 17.4 2.25 17.75 1.45 19.1 1.35 20.55 1.25 22.15 1.9 23.75 2.55 24.7 3.65" fill="url(#gradient6)" fill-rule="evenodd" stroke="none"/>
    <path d="M25.0 2.9 Q25.9 3.95 25.55 4.75 25.25 5.6 23.85 5.7 22.45 5.8 20.8 5.1 19.2 4.45 18.3 3.4 17.4 2.3 17.7 1.5 18.05 0.65 19.45 0.55 20.85 0.45 22.45 1.15 24.1 1.8 25.0 2.9" fill="url(#gradient7)" fill-rule="evenodd" stroke="none"/>
    <path d="M18.95 17.4 Q19.45 18.75 17.9 20.4 16.25 22.05 13.6 23.0 10.85 23.95 8.6 23.65 6.35 23.35 5.85 21.95 5.35 20.65 6.95 18.95 8.5 17.3 11.2 16.35 13.95 15.4 16.25 15.7 18.5 16.0 18.95 17.4" fill="url(#gradient8)" fill-rule="evenodd" stroke="none"/>
    <path d="M18.5 16.1 Q19.0 17.45 17.4 19.15 15.85 20.75 13.1 21.75 10.4 22.7 8.15 22.35 5.9 22.1 5.4 20.7 4.9 19.35 6.5 17.65 8.05 16.0 10.8 15.05 13.5 14.1 15.8 14.4 18.05 14.7 18.5 16.1" fill="url(#gradient9)" fill-rule="evenodd" stroke="none"/>
    <path d="M17.65 16.3 Q18.05 17.45 16.65 18.85 15.25 20.25 12.9 21.05 10.5 21.9 8.6 21.65 6.65 21.4 6.2 20.25 5.8 19.15 7.2 17.7 8.6 16.35 10.95 15.5 13.3 14.65 15.3 14.9 17.25 15.15 17.65 16.3" fill="#696c73" fill-rule="evenodd" stroke="none"/>
    <path d="M13.3 5.6 L17.1 16.45 Q17.4 17.4 16.15 18.6 14.9 19.85 12.7 20.6 10.6 21.35 8.8 21.2 7.05 21.05 6.75 20.1 L2.95 9.25 13.3 5.6" fill="url(#gradient10)" fill-rule="evenodd" stroke="none"/>
    <path d="M12.6 20.25 L9.55 20.65 Q8.25 20.5 8.0 19.9 L4.1 8.85 12.15 6.0 16.0 17.1 Q16.25 17.75 15.25 18.65 14.25 19.65 12.6 20.25" fill="#193026" fill-rule="evenodd" stroke="none"/>
    <path d="M7.5 18.6 L5.8 13.6 Q6.15 12.05 7.6 11.4 8.7 10.9 10.5 10.75 12.15 10.65 13.45 9.85 L15.8 16.45 10.3 18.75 7.5 18.6" fill="url(#gradient11)" fill-rule="evenodd" stroke="none"/>
    <path d="M13.65 10.35 L14.05 11.5 Q13.7 12.75 12.55 14.6 L7.0 17.1 6.25 15.0 Q7.1 15.2 8.05 14.45 L10.35 12.25 Q12.15 10.7 13.45 10.4 L13.65 10.35" fill="#b9fca1" fill-rule="evenodd" stroke="none"/>
    <path d="M9.45 13.9 Q11.15 11.55 13.45 9.8 L16.0 17.1 Q16.25 17.75 15.25 18.65 14.25 19.65 12.6 20.25 L9.55 20.65 Q8.25 20.5 8.0 19.9 L6.4 15.4 Q8.7 15.05 9.45 13.9" fill="url(#gradient12)" fill-rule="evenodd" stroke="none"/>
    <path d="M14.1 16.15 L14.1 17.0 13.45 17.55 12.6 17.5 Q12.2 17.3 12.05 16.9 11.9 16.5 12.1 16.05 12.3 15.65 12.7 15.5 L13.55 15.55 14.1 16.15" fill="#b9fca1" fill-rule="evenodd" stroke="none"/>
    <path d="M11.45 15.15 L11.4 15.65 Q11.3 15.9 11.05 15.95 10.45 16.15 10.3 15.6 L10.3 15.1 10.65 14.8 Q11.25 14.6 11.45 15.15" fill="#b9fca1" fill-rule="evenodd" stroke="none"/>
    <path d="M13.65 16.2 Q13.95 16.9 13.25 17.15 12.55 17.35 12.35 16.7 12.2 16.4 12.35 16.15 L12.75 15.8 Q13.05 15.65 13.3 15.8 L13.65 16.2" fill="#e4fcdb" fill-rule="evenodd" stroke="none"/>
    <path d="M15.5 17.25 Q15.35 16.35 13.0 10.2 L13.45 9.8 16.0 17.1 Q16.25 17.75 15.25 18.65 14.25 19.65 12.6 20.25 L10.1 20.65 Q12.1 20.4 13.95 19.0 15.6 17.8 15.5 17.25" fill="#009245" fill-rule="evenodd" stroke="none"/>
    <path d="M11.0 17.8 L8.6 18.6 5.5 9.8 7.85 8.95 11.0 17.8" fill="url(#gradient13)" fill-rule="evenodd" stroke="none"/>
    <path d="M14.25 3.95 Q14.75 5.3 13.15 6.95 11.6 8.6 8.85 9.55 6.15 10.5 3.9 10.2 1.65 9.9 1.1 8.5 0.65 7.15 2.25 5.5 3.8 3.85 6.55 2.9 9.25 1.95 11.55 2.25 13.8 2.55 14.25 3.95" fill="url(#gradient14)" fill-rule="evenodd" stroke="none"/>
    <path d="M13.8 2.65 Q14.3 4.0 12.7 5.7 11.15 7.35 8.4 8.3 5.7 9.25 3.45 8.9 1.15 8.65 0.7 7.25 0.2 5.85 1.8 4.2 3.35 2.55 6.1 1.6 8.8 0.65 11.05 0.95 13.3 1.25 13.8 2.65" fill="url(#gradient15)" fill-rule="evenodd" stroke="none"/>
  </g>
  <defs>
    <linearGradient gradientTransform="matrix(0.0048, 0.002, 0.002, -0.0048, 17.95, 11.95)" gradientUnits="userSpaceOnUse" id="gradient0" spreadMethod="pad" x1="-819.2" x2="819.2">
      <stop offset="0.0" stop-color="#333333"/>
      <stop offset="1.0" stop-color="#999999"/>
    </linearGradient>
    <linearGradient gradientTransform="matrix(0.0048, 0.002, 0.002, -0.0048, 18.3, 11.15)" gradientUnits="userSpaceOnUse" id="gradient1" spreadMethod="pad" x1="-819.2" x2="819.2">
      <stop offset="0.0" stop-color="#cccccc"/>
      <stop offset="1.0" stop-color="#f2f2f2"/>
    </linearGradient>
    <linearGradient gradientTransform="matrix(0.002, -0.0048, -0.0048, -0.002, 19.4, 8.55)" gradientUnits="userSpaceOnUse" id="gradient2" spreadMethod="pad" x1="-819.2" x2="819.2">
      <stop offset="0.0" stop-color="#ffffff"/>
      <stop offset="0.1450980392156863" stop-color="#92d1d1"/>
      <stop offset="0.8196078431372549" stop-color="#ffffff"/>
      <stop offset="0.9568627450980393" stop-color="#bdffff"/>
    </linearGradient>
    <linearGradient gradientTransform="matrix(0.0026, 5.0E-4, 5.0E-4, -0.0026, 18.55, 8.75)" gradientUnits="userSpaceOnUse" id="gradient3" spreadMethod="pad" x1="-819.2" x2="819.2">
      <stop offset="0.0" stop-color="#cfff4d"/>
      <stop offset="0.7098039215686275" stop-color="#15b354"/>
      <stop offset="1.0" stop-color="#267269"/>
    </linearGradient>
    <linearGradient gradientTransform="matrix(-0.0026, -0.0028, -0.0028, 0.0026, 19.65, 9.9)" gradientUnits="userSpaceOnUse" id="gradient4" spreadMethod="pad" x1="-819.2" x2="819.2">
      <stop offset="0.0" stop-color="#cfff4d"/>
      <stop offset="0.7098039215686275" stop-color="#15b354"/>
      <stop offset="1.0" stop-color="#267269"/>
    </linearGradient>
    <linearGradient gradientTransform="matrix(-9.0E-4, 0.0021, 0.0021, 9.0E-4, 18.15, 8.25)" gradientUnits="userSpaceOnUse" id="gradient5" spreadMethod="pad" x1="-819.2" x2="819.2">
      <stop offset="0.0" stop-color="#ffffff"/>
      <stop offset="1.0" stop-color="#ffffff"/>
    </linearGradient>
    <linearGradient gradientTransform="matrix(0.0048, 0.002, 0.002, -0.0048, 21.3, 3.9)" gradientUnits="userSpaceOnUse" id="gradient6" spreadMethod="pad" x1="-819.2" x2="819.2">
      <stop offset="0.0" stop-color="#333333"/>
      <stop offset="1.0" stop-color="#999999"/>
    </linearGradient>
    <linearGradient gradientTransform="matrix(0.0048, 0.002, 0.002, -0.0048, 21.65, 3.1)" gradientUnits="userSpaceOnUse" id="gradient7" spreadMethod="pad" x1="-819.2" x2="819.2">
      <stop offset="0.0" stop-color="#cccccc"/>
      <stop offset="1.0" stop-color="#f2f2f2"/>
    </linearGradient>
    <linearGradient gradientTransform="matrix(0.008, -0.0028, -0.0028, -0.008, 12.4, 19.7)" gradientUnits="userSpaceOnUse" id="gradient8" spreadMethod="pad" x1="-819.2" x2="819.2">
      <stop offset="0.0" stop-color="#333333"/>
      <stop offset="1.0" stop-color="#999999"/>
    </linearGradient>
    <linearGradient gradientTransform="matrix(0.008, -0.0028, -0.0028, -0.008, 11.95, 18.4)" gradientUnits="userSpaceOnUse" id="gradient9" spreadMethod="pad" x1="-819.2" x2="819.2">
      <stop offset="0.0" stop-color="#cccccc"/>
      <stop offset="1.0" stop-color="#f2f2f2"/>
    </linearGradient>
    <linearGradient gradientTransform="matrix(-0.0028, -0.008, -0.008, 0.0028, 10.45, 14.0)" gradientUnits="userSpaceOnUse" id="gradient10" spreadMethod="pad" x1="-819.2" x2="819.2">
      <stop offset="0.0" stop-color="#ffffff"/>
      <stop offset="0.1450980392156863" stop-color="#92d1d1"/>
      <stop offset="0.8196078431372549" stop-color="#ffffff"/>
      <stop offset="0.9568627450980393" stop-color="#bdffff"/>
    </linearGradient>
    <linearGradient gradientTransform="matrix(0.0037, -0.0022, -0.0022, -0.0037, 9.65, 15.1)" gradientUnits="userSpaceOnUse" id="gradient11" spreadMethod="pad" x1="-819.2" x2="819.2">
      <stop offset="0.0" stop-color="#cfff4d"/>
      <stop offset="0.7098039215686275" stop-color="#15b354"/>
      <stop offset="1.0" stop-color="#267269"/>
    </linearGradient>
    <linearGradient gradientTransform="matrix(-0.0063, -6.0E-4, -6.0E-4, 0.0063, 12.25, 15.3)" gradientUnits="userSpaceOnUse" id="gradient12" spreadMethod="pad" x1="-819.2" x2="819.2">
      <stop offset="0.0" stop-color="#cfff4d"/>
      <stop offset="0.7098039215686275" stop-color="#15b354"/>
      <stop offset="1.0" stop-color="#267269"/>
    </linearGradient>
    <linearGradient gradientTransform="matrix(0.0012, 0.0034, 0.0034, -0.0012, 8.6, 14.95)" gradientUnits="userSpaceOnUse" id="gradient13" spreadMethod="pad" x1="-819.2" x2="819.2">
      <stop offset="0.0" stop-color="#ffffff"/>
      <stop offset="1.0" stop-color="#ffffff"/>
    </linearGradient>
    <linearGradient gradientTransform="matrix(0.008, -0.0028, -0.0028, -0.008, 7.65, 6.25)" gradientUnits="userSpaceOnUse" id="gradient14" spreadMethod="pad" x1="-819.2" x2="819.2">
      <stop offset="0.0" stop-color="#333333"/>
      <stop offset="1.0" stop-color="#999999"/>
    </linearGradient>
    <linearGradient gradientTransform="matrix(0.008, -0.0028, -0.0028, -0.008, 7.25, 4.95)" gradientUnits="userSpaceOnUse" id="gradient15" spreadMethod="pad" x1="-819.2" x2="819.2">
      <stop offset="0.0" stop-color="#cccccc"/>
      <stop offset="1.0" stop-color="#f2f2f2"/>
    </linearGradient>
  </defs>
</svg>
