<?xml version="1.0" encoding="UTF-8" standalone="no"?>
<svg xmlns:ffdec="https://www.free-decompiler.com/flash" xmlns:xlink="http://www.w3.org/1999/xlink" ffdec:objectType="shape" height="22.15px" width="22.65px" xmlns="http://www.w3.org/2000/svg">
  <g transform="matrix(1.0, 0.0, 0.0, 1.0, 0.0, 0.0)">
    <path d="M6.0 0.0 Q7.45 0.0 9.25 1.45 11.1 0.0 12.55 0.0 13.25 0.0 13.9 0.35 15.75 1.4 15.35 4.7 L15.3 4.9 Q18.5 6.2 18.5 8.35 18.5 9.45 17.7 10.35 16.85 11.25 15.3 11.85 L15.35 12.05 Q15.75 15.35 13.9 16.4 L12.55 16.75 Q11.1 16.75 9.25 15.35 7.45 16.75 6.0 16.75 L4.65 16.4 Q2.7 15.3 3.25 11.85 0.0 10.55 0.0 8.35 0.0 6.2 3.25 4.9 3.0 3.25 3.35 2.05 3.7 0.9 4.65 0.35 5.3 0.0 6.0 0.0 M6.0 2.15 L5.7 2.2 Q5.1 2.5 5.3 4.3 L6.75 4.05 7.7 2.9 Q6.65 2.15 6.0 2.15 M3.75 7.0 Q2.15 7.75 2.15 8.35 2.15 9.0 3.75 9.75 L4.3 8.35 3.75 7.0 M12.8 2.2 L12.55 2.15 Q11.9 2.15 10.85 2.9 L11.8 4.05 13.2 4.3 Q13.4 2.55 12.8 2.2 M10.5 9.65 Q10.0 10.15 9.25 10.15 8.55 10.15 8.0 9.65 7.45 9.15 7.45 8.35 7.45 7.6 8.0 7.1 8.55 6.6 9.25 6.6 10.0 6.6 10.5 7.1 11.05 7.6 11.05 8.35 11.05 9.1 10.5 9.65 M7.95 6.05 L6.6 8.35 7.95 10.65 9.25 10.75 10.6 10.65 11.95 8.35 10.6 6.05 7.95 6.05 M14.75 7.0 L14.25 8.35 14.75 9.75 Q16.4 9.05 16.4 8.35 16.4 7.75 14.75 7.0 M11.8 12.7 L10.85 13.8 Q11.9 14.6 12.55 14.6 L12.8 14.55 Q13.4 14.2 13.2 12.45 L11.8 12.7 M5.7 14.55 L6.0 14.6 Q6.65 14.6 7.7 13.8 L6.75 12.7 5.3 12.45 Q5.1 14.2 5.7 14.55" fill="#130e45" fill-rule="evenodd" stroke="none"/>
    <path d="M8.65 4.35 L9.85 4.35 9.25 3.65 8.65 4.35 M11.5 4.5 L13.6 4.8 13.65 4.5 Q13.95 2.25 13.05 1.8 12.8 1.65 12.55 1.65 11.6 1.65 10.2 2.85 L11.5 4.5 M5.2 6.0 L5.5 6.85 6.1 5.85 5.2 6.0 M6.1 8.35 L6.85 9.75 7.7 11.1 10.85 11.1 11.7 9.75 12.4 8.35 10.85 5.6 7.7 5.6 6.1 8.35 M4.05 6.4 Q1.65 7.3 1.65 8.35 1.65 9.45 4.05 10.35 L4.75 8.35 4.05 6.4 M5.5 1.8 Q4.5 2.35 4.95 4.8 L7.0 4.5 8.35 2.85 Q6.95 1.65 6.0 1.65 L5.5 1.8 M4.85 0.75 L6.0 0.45 Q7.45 0.45 9.25 2.0 11.1 0.45 12.55 0.45 13.2 0.45 13.65 0.75 15.25 1.65 14.85 4.65 L14.8 5.2 Q16.35 5.75 17.2 6.55 18.1 7.4 18.1 8.35 18.1 10.4 14.8 11.55 L14.85 12.1 Q15.25 15.05 13.65 16.0 13.2 16.3 12.55 16.3 11.05 16.3 9.25 14.7 7.45 16.3 6.0 16.3 L4.85 16.0 Q3.15 15.0 3.75 11.55 0.45 10.4 0.45 8.35 0.45 6.4 3.75 5.2 3.15 1.75 4.85 0.75 M10.2 9.3 Q9.85 9.7 9.25 9.7 8.75 9.7 8.35 9.3 7.95 8.95 7.95 8.35 7.95 7.85 8.35 7.4 8.75 7.0 9.25 7.0 9.85 7.0 10.2 7.4 10.6 7.85 10.6 8.35 10.6 8.95 10.2 9.3 M5.2 10.7 L6.1 10.85 5.5 9.85 5.2 10.7 M5.5 14.95 L6.0 15.05 Q6.95 15.05 8.35 13.9 L7.0 12.3 4.95 11.9 Q4.5 14.4 5.5 14.95 M9.85 12.4 L8.65 12.4 9.25 13.05 9.85 12.4 M12.45 10.85 L13.3 10.7 13.05 9.85 12.45 10.85 M13.65 12.25 L13.6 11.9 11.5 12.3 10.2 13.9 Q11.6 15.05 12.55 15.05 L13.05 14.95 Q13.95 14.45 13.65 12.25 M12.45 5.85 L13.05 6.9 13.3 6.05 12.45 5.85 M14.5 6.4 L13.75 8.35 14.5 10.35 Q16.85 9.5 16.85 8.35 16.85 7.2 14.5 6.4" fill="#8dffff" fill-rule="evenodd" stroke="none"/>
    <path d="M7.7 5.6 L6.1 8.35 7.45 10.75 7.2 10.75 6.35 9.4 5.6 8.0 6.35 6.6 7.2 5.25 10.4 5.25 10.6 5.6 9.25 5.55 7.7 5.6" fill="#4d8cb5" fill-rule="evenodd" stroke="none"/>
    <path d="M5.0 1.45 Q5.15 1.3 5.5 1.3 6.4 1.3 7.85 2.45 6.7 1.65 6.0 1.65 L5.5 1.8 Q4.6 2.3 4.9 4.35 L4.45 4.45 Q4.0 1.95 5.0 1.45" fill="#4d8cb5" fill-rule="evenodd" stroke="none"/>
    <path d="M8.15 3.95 L8.75 3.3 9.2 3.75 9.0 3.95 8.75 3.95 8.15 3.95" fill="#4d8cb5" fill-rule="evenodd" stroke="none"/>
    <path d="M5.4 10.15 L5.3 10.45 4.75 10.35 5.0 9.5 5.4 10.15" fill="#4d8cb5" fill-rule="evenodd" stroke="none"/>
    <path d="M5.0 6.5 L4.75 5.65 5.6 5.5 5.3 6.0 5.25 6.0 5.2 6.0 5.2 6.05 5.0 6.5" fill="#4d8cb5" fill-rule="evenodd" stroke="none"/>
    <path d="M9.25 9.7 Q8.65 9.7 8.25 9.25 L8.75 9.35 Q9.35 9.35 9.7 8.95 10.1 8.55 10.1 8.0 L9.8 7.15 Q10.6 7.5 10.6 8.35 10.6 8.95 10.2 9.3 9.85 9.7 9.25 9.7" fill="#4d8cb5" fill-rule="evenodd" stroke="none"/>
    <path d="M12.6 1.45 L12.9 1.75 12.55 1.65 Q11.6 1.65 10.2 2.85 L11.25 4.1 11.05 4.05 9.65 2.45 Q11.1 1.3 12.1 1.3 L12.6 1.45" fill="#4d8cb5" fill-rule="evenodd" stroke="none"/>
    <path d="M14.4 4.3 Q14.7 1.8 13.6 0.75 L13.65 0.75 Q15.25 1.65 14.85 4.65 L14.8 5.0 14.3 4.8 14.4 4.3" fill="#4d8cb5" fill-rule="evenodd" stroke="none"/>
    <path d="M12.55 6.5 L12.0 5.5 12.8 5.65 12.75 5.9 12.45 5.85 12.65 6.2 12.55 6.5" fill="#4d8cb5" fill-rule="evenodd" stroke="none"/>
    <path d="M2.2 9.3 Q1.2 8.65 1.2 8.0 1.2 6.85 3.55 6.0 L3.7 6.5 Q1.65 7.4 1.65 8.35 1.65 8.85 2.2 9.3" fill="#4d8cb5" fill-rule="evenodd" stroke="none"/>
    <path d="M13.3 8.0 L14.0 6.0 15.85 7.05 14.5 6.4 13.75 8.35 14.35 9.85 14.0 9.95 13.3 8.0" fill="#4d8cb5" fill-rule="evenodd" stroke="none"/>
    <path d="M8.75 14.35 L9.25 14.75 Q7.45 16.3 6.0 16.3 L4.85 16.0 4.4 15.65 5.5 15.9 Q6.95 15.9 8.75 14.35" fill="#4d8cb5" fill-rule="evenodd" stroke="none"/>
    <path d="M11.5 12.3 L10.2 13.9 9.65 13.5 11.05 11.9 13.1 11.55 13.15 11.9 13.2 12.0 11.5 12.3" fill="#4d8cb5" fill-rule="evenodd" stroke="none"/>
    <path d="M17.6 8.0 Q17.6 6.9 16.55 6.05 18.1 7.1 18.1 8.35 18.1 10.4 14.8 11.55 L14.85 12.1 Q15.25 15.05 13.65 16.0 13.2 16.3 12.55 16.3 11.2 16.3 9.4 14.85 10.85 15.9 12.1 15.9 L13.2 15.65 Q14.75 14.7 14.4 11.7 L14.3 11.15 Q17.6 10.0 17.6 8.0" fill="#4d8cb5" fill-rule="evenodd" stroke="none"/>
    <path d="M3.3 11.15 L3.25 11.35 Q2.15 10.9 1.45 10.3 L3.3 11.15" fill="#4d8cb5" fill-rule="evenodd" stroke="none"/>
    <path d="M8.15 12.0 L9.35 12.0 9.05 12.4 8.65 12.4 8.85 12.6 8.75 12.7 8.15 12.0" fill="#4d8cb5" fill-rule="evenodd" stroke="none"/>
    <path d="M12.8 10.25 L12.8 10.35 12.0 10.5 12.55 9.45 12.8 10.25" fill="#4d8cb5" fill-rule="evenodd" stroke="none"/>
    <path d="M5.0 14.55 Q4.0 14.0 4.45 11.55 L6.5 11.9 6.8 12.25 4.95 11.9 Q4.65 13.9 5.2 14.6 L5.0 14.55" fill="#4d8cb5" fill-rule="evenodd" stroke="none"/>
    <path d="M17.3 7.75 L17.3 12.5 17.65 12.85 21.75 18.05 Q23.05 19.7 22.45 20.9 21.85 22.15 19.8 22.15 L9.45 22.15 Q7.35 22.15 6.8 20.9 6.2 19.7 7.45 18.05 L11.6 12.85 11.9 12.5 11.9 7.75 Q11.9 7.2 12.3 6.8 12.7 6.45 13.2 6.45 L16.0 6.45 Q16.55 6.45 16.95 6.8 17.3 7.2 17.3 7.75" fill="#130e45" fill-rule="evenodd" stroke="none"/>
    <path d="M16.85 7.75 L16.85 12.7 21.4 18.3 Q22.5 19.7 22.05 20.7 21.55 21.65 19.8 21.65 L9.45 21.65 Q7.65 21.65 7.2 20.7 6.75 19.7 7.85 18.3 L12.35 12.7 12.35 7.75 Q12.35 7.4 12.6 7.15 L13.2 6.9 16.0 6.9 Q16.35 6.9 16.6 7.15 L16.85 7.75" fill="url(#gradient0)" fill-rule="evenodd" stroke="none"/>
    <path d="M13.2 6.9 L16.0 6.9 16.0 13.05 16.25 13.3 20.7 18.85 Q21.5 19.8 21.25 20.3 21.0 20.8 19.8 20.8 L9.45 20.8 Q8.2 20.8 7.95 20.3 7.75 19.8 8.5 18.85 L12.6 13.7 12.95 13.3 13.2 13.05 13.2 6.9" fill="#263d61" fill-rule="evenodd" stroke="none"/>
    <path d="M10.05 16.85 Q12.1 17.4 14.2 16.85 15.85 16.45 17.9 15.25 L20.7 18.85 Q21.5 19.8 21.25 20.3 21.0 20.8 19.8 20.8 L9.45 20.8 Q8.2 20.8 7.95 20.3 7.75 19.8 8.5 18.85 L10.05 16.85" fill="url(#gradient1)" fill-rule="evenodd" stroke="none"/>
    <path d="M10.4 16.45 L14.1 16.2 17.5 14.8 17.9 15.25 Q15.85 16.45 14.2 16.85 12.1 17.4 10.05 16.85 L10.4 16.45" fill="url(#gradient2)" fill-rule="evenodd" stroke="none"/>
    <path d="M13.8 6.9 L14.6 6.9 14.6 13.2 14.25 15.65 Q13.7 18.3 12.55 19.3 L10.45 19.3 Q13.6 15.05 13.75 13.3 L13.85 9.45 13.8 6.9" fill="url(#gradient3)" fill-rule="evenodd" stroke="none"/>
    <path d="M17.4 15.55 L17.85 15.25 20.7 18.85 Q21.5 19.8 21.25 20.3 21.0 20.8 19.8 20.8 L16.7 20.8 Q19.6 20.7 20.35 20.2 L20.6 19.8 20.5 19.6 17.4 15.55" fill="url(#gradient4)" fill-rule="evenodd" stroke="none"/>
    <path d="M17.8 18.1 L17.5 18.85 16.8 19.15 Q16.35 19.15 16.05 18.85 15.75 18.55 15.75 18.1 15.75 17.65 16.05 17.35 16.35 17.05 16.8 17.05 17.2 17.05 17.5 17.35 L17.8 18.1" fill="#ffffff" fill-rule="evenodd" stroke="none"/>
    <path d="M15.55 19.35 L15.4 19.8 15.0 19.95 14.55 19.8 14.4 19.35 Q14.4 19.1 14.55 18.9 14.75 18.75 15.0 18.75 L15.4 18.9 15.55 19.35" fill="#ffffff" fill-rule="evenodd" stroke="none"/>
  </g>
  <defs>
    <linearGradient gradientTransform="matrix(0.0, -0.009, -0.009, 0.0, 14.6, 14.3)" gradientUnits="userSpaceOnUse" id="gradient0" spreadMethod="pad" x1="-819.2" x2="819.2">
      <stop offset="0.0" stop-color="#ffffff"/>
      <stop offset="0.10196078431372549" stop-color="#92d1d1"/>
      <stop offset="0.8588235294117647" stop-color="#ffffff"/>
      <stop offset="1.0" stop-color="#bdffff"/>
    </linearGradient>
    <linearGradient gradientTransform="matrix(-0.0072, -0.0033, -0.0033, 0.0072, 15.55, 19.1)" gradientUnits="userSpaceOnUse" id="gradient1" spreadMethod="pad" x1="-819.2" x2="819.2">
      <stop offset="0.0" stop-color="#8dffff"/>
      <stop offset="0.7098039215686275" stop-color="#63b4e9"/>
      <stop offset="1.0" stop-color="#264972"/>
    </linearGradient>
    <linearGradient gradientTransform="matrix(0.0048, 0.0, 0.0, -0.0048, 13.95, 15.95)" gradientUnits="userSpaceOnUse" id="gradient2" spreadMethod="pad" x1="-819.2" x2="819.2">
      <stop offset="0.0" stop-color="#8dffff"/>
      <stop offset="0.7098039215686275" stop-color="#63b4e9"/>
      <stop offset="1.0" stop-color="#264972"/>
    </linearGradient>
    <linearGradient gradientTransform="matrix(0.0, 0.0037, 0.0037, 0.0, 12.5, 15.8)" gradientUnits="userSpaceOnUse" id="gradient3" spreadMethod="pad" x1="-819.2" x2="819.2">
      <stop offset="0.0" stop-color="#ffffff"/>
      <stop offset="1.0" stop-color="#ffffff"/>
    </linearGradient>
    <linearGradient gradientTransform="matrix(0.0, -0.0034, -0.0034, 0.0, 18.5, 18.0)" gradientUnits="userSpaceOnUse" id="gradient4" spreadMethod="pad" x1="-819.2" x2="819.2">
      <stop offset="0.0" stop-color="#63b4e9"/>
      <stop offset="1.0" stop-color="#264972"/>
    </linearGradient>
  </defs>
</svg>
