<?xml version="1.0" encoding="UTF-8" standalone="no"?>
<svg xmlns:ffdec="https://www.free-decompiler.com/flash" xmlns:xlink="http://www.w3.org/1999/xlink" ffdec:objectType="shape" height="33.55px" width="36.1px" xmlns="http://www.w3.org/2000/svg">
  <g transform="matrix(1.0, 0.0, 0.0, 1.0, 0.0, 0.0)">
    <path d="M20.9 2.2 L22.5 4.7 23.65 7.7 20.1 12.1 17.8 11.7 15.45 14.65 16.6 16.35 19.55 16.35 24.65 9.0 26.5 8.6 27.45 10.7 27.25 11.0 24.05 16.75 27.6 16.7 27.75 18.0 35.65 19.55 36.1 20.15 35.7 20.9 25.6 23.6 25.6 26.25 Q25.5 28.0 24.15 29.0 22.75 29.95 20.4 30.0 L20.4 30.2 Q20.15 31.75 19.25 32.75 L18.35 33.45 18.1 33.55 17.8 33.45 16.9 32.75 Q16.0 31.75 15.75 30.2 L15.75 30.0 Q13.4 29.95 12.05 29.0 10.65 28.0 10.55 26.25 L10.6 23.85 9.65 25.0 6.05 24.45 4.65 22.3 4.85 22.05 4.45 21.95 3.8 22.8 2.95 21.55 0.45 20.9 0.0 20.25 0.5 19.55 1.8 19.3 1.05 17.35 4.6 12.95 6.85 13.3 8.85 10.85 8.75 10.7 9.7 8.6 10.5 8.8 12.3 6.55 11.45 4.4 15.0 0.0 18.6 0.6 20.0 2.7 17.6 5.75 18.35 5.35 20.9 2.2" fill="#000000" fill-rule="evenodd" stroke="none"/>
  </g>
</svg>
