<?xml version="1.0" encoding="UTF-8" standalone="no"?>
<svg xmlns:ffdec="https://www.free-decompiler.com/flash" xmlns:xlink="http://www.w3.org/1999/xlink" ffdec:objectType="shape" height="21.8px" width="23.5px" xmlns="http://www.w3.org/2000/svg">
  <g transform="matrix(1.0, 0.0, 0.0, 1.0, 0.0, 0.0)">
    <path d="M8.0 4.2 L7.5 2.8 9.75 0.0 12.1 0.35 13.0 1.7 11.45 3.7 12.0 3.45 13.6 1.4 14.65 3.0 15.4 4.95 13.1 7.8 11.6 7.6 10.05 9.5 10.85 10.6 12.75 10.6 16.1 5.8 17.25 5.55 17.85 6.9 17.75 7.1 15.65 10.9 17.95 10.85 18.05 11.7 23.2 12.7 23.5 13.1 23.25 13.55 16.65 15.35 16.65 17.05 Q16.6 18.2 15.7 18.85 14.8 19.45 13.3 19.5 L13.3 19.6 Q13.1 20.65 12.55 21.25 L11.95 21.75 11.8 21.8 11.6 21.75 11.0 21.25 Q10.4 20.65 10.3 19.6 L10.25 19.5 Q8.7 19.45 7.85 18.85 6.95 18.2 6.9 17.05 L6.9 15.5 6.3 16.2 3.95 15.85 3.05 14.5 3.15 14.35 2.9 14.25 2.45 14.8 1.9 14.0 0.3 13.55 0.0 13.15 0.3 12.7 1.15 12.5 0.7 11.25 3.0 8.4 4.45 8.6 5.75 7.0 5.7 6.9 6.3 5.55 6.85 5.7 8.0 4.2" fill="#130e45" fill-rule="evenodd" stroke="none"/>
    <path d="M8.15 16.3 L8.8 15.75 Q9.3 15.55 9.9 16.3 L10.55 17.5 10.65 18.65 Q8.7 18.65 8.2 17.4 8.0 16.8 8.1 16.35 L8.15 16.3" fill="#00215c" fill-rule="evenodd" stroke="none"/>
    <path d="M0.4 13.15 L8.2 13.05 7.35 15.0 0.4 13.15" fill="url(#gradient0)" fill-rule="evenodd" stroke="none"/>
    <path d="M6.2 6.9 L9.3 11.4 8.65 11.3 6.2 6.9" fill="#70e9ff" fill-rule="evenodd" stroke="none"/>
    <path d="M16.35 6.2 L17.0 6.05 17.35 6.9 14.25 11.4 14.9 11.3 17.6 11.3 17.65 12.05 23.15 13.15 15.35 13.05 16.2 15.0 16.2 17.0 Q16.15 18.3 14.9 18.75 L12.9 19.0 12.9 18.65 Q14.85 18.65 15.35 17.4 L15.45 16.35 Q15.9 16.6 15.5 15.8 15.2 15.15 14.35 15.3 L13.1 16.45 11.8 11.85 10.45 16.45 9.75 15.65 9.2 15.3 Q8.35 15.15 8.05 15.8 7.7 16.6 8.1 16.35 8.0 16.8 8.2 17.4 8.7 18.65 10.65 18.65 L10.65 19.0 8.65 18.75 Q7.4 18.3 7.3 17.0 7.25 15.7 7.35 15.0 L8.2 13.05 0.4 13.15 5.9 12.05 5.95 11.3 8.65 11.3 9.3 11.4 6.2 6.9 6.55 6.05 7.25 6.2 10.6 11.0 12.95 11.0 16.35 6.2" fill="url(#gradient1)" fill-rule="evenodd" stroke="none"/>
    <path d="M12.85 15.55 L11.8 13.7 10.7 15.55 11.8 11.85 12.85 15.55" fill="#0542a4" fill-rule="evenodd" stroke="none"/>
    <path d="M13.65 16.3 Q14.3 15.55 14.8 15.75 L15.4 16.3 15.45 16.35 15.35 17.4 Q14.85 18.65 12.9 18.65 L13.0 17.5 Q13.15 16.9 13.65 16.3" fill="#00215c" fill-rule="evenodd" stroke="none"/>
    <path d="M16.2 15.0 L15.35 13.05 23.15 13.15 16.2 15.0" fill="url(#gradient2)" fill-rule="evenodd" stroke="none"/>
    <path d="M14.9 11.3 L14.25 11.4 17.35 6.9 14.9 11.3" fill="#70e9ff" fill-rule="evenodd" stroke="none"/>
    <path d="M13.65 16.3 Q13.15 16.9 13.0 17.5 L12.9 18.65 12.85 19.55 Q12.65 21.0 11.8 21.3 L11.35 21.0 Q10.85 20.45 10.7 19.55 L10.65 19.0 10.65 18.65 10.55 17.5 9.9 16.3 Q9.3 15.55 8.8 15.75 L8.15 16.3 8.1 16.35 Q7.7 16.6 8.05 15.8 8.35 15.15 9.2 15.3 L9.75 15.65 10.45 16.45 10.7 15.55 11.8 13.7 12.85 15.55 13.1 16.45 14.35 15.3 Q15.65 15.1 15.45 16.35 L15.4 16.3 14.8 15.75 Q14.3 15.55 13.65 16.3" fill="#70e9ff" fill-rule="evenodd" stroke="none"/>
    <path d="M10.55 10.2 L8.7 12.45 9.3 13.85 7.25 16.35 6.85 16.3 6.9 15.35 4.85 14.8 5.9 13.4 6.15 12.75 Q5.35 12.45 4.9 13.05 L3.75 14.5 3.4 14.35 2.95 13.7 2.35 12.3 5.5 11.7 5.55 10.85 7.9 10.9 6.55 8.5 8.05 6.65 10.55 10.2" fill="#130e45" fill-rule="evenodd" stroke="none"/>
    <path d="M6.95 10.9 L10.75 6.15 11.45 7.15 7.65 11.85 6.95 10.9" fill="url(#gradient3)" fill-rule="evenodd" stroke="none"/>
    <path d="M10.75 3.8 Q10.4 3.55 10.35 3.1 10.3 2.7 10.6 2.3 L11.9 0.7 12.55 1.65 11.25 3.3 Q11.0 3.6 11.0 4.0 L10.75 3.8" fill="url(#gradient4)" fill-rule="evenodd" stroke="none"/>
    <path d="M10.75 6.15 L12.25 6.4 12.9 7.4 11.45 7.15 10.75 6.15" fill="url(#gradient5)" fill-rule="evenodd" stroke="none"/>
    <path d="M6.95 10.9 L7.65 11.85 7.6 11.9 8.15 13.3 7.5 12.3 6.95 10.9" fill="url(#gradient6)" fill-rule="evenodd" stroke="none"/>
    <path d="M4.65 11.35 Q5.1 11.65 5.1 12.2 4.35 11.95 3.8 12.5 L2.5 14.15 1.8 13.15 3.15 11.55 Q3.4 11.2 3.85 11.1 L4.65 11.35" fill="url(#gradient7)" fill-rule="evenodd" stroke="none"/>
    <path d="M5.45 14.8 L7.5 12.3 8.15 13.3 6.15 15.8 5.45 14.8" fill="url(#gradient8)" fill-rule="evenodd" stroke="none"/>
    <path d="M3.5 14.5 L5.45 14.8 6.15 15.8 4.15 15.5 3.5 14.5" fill="url(#gradient9)" fill-rule="evenodd" stroke="none"/>
    <path d="M14.3 3.9 L14.95 4.9 12.9 7.4 12.25 6.4 14.3 3.9" fill="url(#gradient10)" fill-rule="evenodd" stroke="none"/>
    <path d="M14.3 3.9 L13.55 2.05 14.3 3.15 14.95 4.9 14.3 3.9" fill="#55525e" fill-rule="evenodd" stroke="none"/>
    <path d="M13.55 2.05 L14.3 3.9 12.25 6.4 10.75 6.15 6.95 10.9 7.5 12.3 5.45 14.8 3.5 14.5 4.8 12.85 5.1 12.2 Q5.1 11.65 4.65 11.35 L3.85 11.1 Q3.4 11.2 3.15 11.55 L1.8 13.15 1.1 11.3 3.15 8.8 4.6 9.05 8.45 4.3 7.9 2.9 9.95 0.35 11.9 0.7 10.6 2.3 Q10.3 2.7 10.35 3.1 10.4 3.55 10.75 3.8 L11.0 4.0 Q11.7 4.3 12.25 3.65 L13.55 2.05" fill="url(#gradient11)" fill-rule="evenodd" stroke="none"/>
    <path d="M11.25 0.9 L10.3 2.1 Q9.95 2.55 10.05 3.15 10.05 3.7 10.5 4.1 L10.85 4.3 11.45 4.4 Q12.1 4.4 12.55 3.9 L13.5 2.7 13.9 3.8 12.1 6.05 10.65 5.8 6.55 10.85 7.1 12.25 5.35 14.45 4.15 14.25 5.1 13.1 5.4 12.2 Q5.4 11.55 4.9 11.1 L3.95 10.8 Q3.3 10.8 2.85 11.3 L1.95 12.45 1.55 11.35 3.3 9.15 4.8 9.4 8.85 4.35 8.3 2.95 10.1 0.75 11.25 0.9" fill="url(#gradient12)" fill-rule="evenodd" stroke="none"/>
    <path d="M8.85 4.35 L8.3 2.95 9.6 1.35 10.15 2.35 Q9.95 2.8 10.05 3.3 10.1 3.8 10.5 4.1 L10.85 4.3 11.3 4.4 12.15 5.95 12.1 6.05 10.65 5.8 10.05 6.5 8.85 4.35" fill="#f6f7f7" fill-rule="evenodd" stroke="none"/>
    <path d="M9.5 7.2 L9.0 7.8 7.8 5.65 8.3 5.0 9.5 7.2" fill="#f6f7f7" fill-rule="evenodd" stroke="none"/>
  </g>
  <defs>
    <linearGradient gradientTransform="matrix(0.0, -0.0014, -0.0014, 0.0, 4.35, 13.9)" gradientUnits="userSpaceOnUse" id="gradient0" spreadMethod="pad" x1="-819.2" x2="819.2">
      <stop offset="0.0" stop-color="#70e9ff"/>
      <stop offset="1.0" stop-color="#bdffff"/>
    </linearGradient>
    <linearGradient gradientTransform="matrix(0.0, 0.0066, 0.0066, 0.0, 11.8, 11.75)" gradientUnits="userSpaceOnUse" id="gradient1" spreadMethod="pad" x1="-819.2" x2="819.2">
      <stop offset="0.0" stop-color="#70e9ff"/>
      <stop offset="1.0" stop-color="#1e96fd"/>
    </linearGradient>
    <linearGradient gradientTransform="matrix(0.0, -0.0014, -0.0014, 0.0, 19.25, 13.9)" gradientUnits="userSpaceOnUse" id="gradient2" spreadMethod="pad" x1="-819.2" x2="819.2">
      <stop offset="0.0" stop-color="#70e9ff"/>
      <stop offset="1.0" stop-color="#bdffff"/>
    </linearGradient>
    <linearGradient gradientTransform="matrix(0.0028, 0.0, 0.0, -0.0028, 9.2, 9.05)" gradientUnits="userSpaceOnUse" id="gradient3" spreadMethod="pad" x1="-819.2" x2="819.2">
      <stop offset="0.0" stop-color="#272332"/>
      <stop offset="1.0" stop-color="#bbb7bc"/>
    </linearGradient>
    <linearGradient gradientTransform="matrix(0.0014, 0.0, 0.0, -0.0014, 11.45, 2.3)" gradientUnits="userSpaceOnUse" id="gradient4" spreadMethod="pad" x1="-819.2" x2="819.2">
      <stop offset="0.0" stop-color="#272332"/>
      <stop offset="1.0" stop-color="#bbb7bc"/>
    </linearGradient>
    <linearGradient gradientTransform="matrix(0.0013, 0.0, 0.0, -0.0013, 11.85, 6.8)" gradientUnits="userSpaceOnUse" id="gradient5" spreadMethod="pad" x1="-819.2" x2="819.2">
      <stop offset="0.0" stop-color="#272332"/>
      <stop offset="1.0" stop-color="#bbb7bc"/>
    </linearGradient>
    <linearGradient gradientTransform="matrix(7.0E-4, 0.0, 0.0, -7.0E-4, 7.55, 12.1)" gradientUnits="userSpaceOnUse" id="gradient6" spreadMethod="pad" x1="-819.2" x2="819.2">
      <stop offset="0.0" stop-color="#272332"/>
      <stop offset="1.0" stop-color="#55525e"/>
    </linearGradient>
    <linearGradient gradientTransform="matrix(0.002, 0.0, 0.0, -0.002, 3.45, 12.65)" gradientUnits="userSpaceOnUse" id="gradient7" spreadMethod="pad" x1="-819.2" x2="819.2">
      <stop offset="0.0" stop-color="#272332"/>
      <stop offset="1.0" stop-color="#bbb7bc"/>
    </linearGradient>
    <linearGradient gradientTransform="matrix(0.0016, 0.0, 0.0, -0.0016, 6.8, 14.05)" gradientUnits="userSpaceOnUse" id="gradient8" spreadMethod="pad" x1="-819.2" x2="819.2">
      <stop offset="0.0" stop-color="#272332"/>
      <stop offset="1.0" stop-color="#bbb7bc"/>
    </linearGradient>
    <linearGradient gradientTransform="matrix(0.0016, 0.0, 0.0, -0.0016, 4.8, 15.15)" gradientUnits="userSpaceOnUse" id="gradient9" spreadMethod="pad" x1="-819.2" x2="819.2">
      <stop offset="0.0" stop-color="#272332"/>
      <stop offset="1.0" stop-color="#bbb7bc"/>
    </linearGradient>
    <linearGradient gradientTransform="matrix(0.0016, 0.0, 0.0, -0.0016, 13.6, 5.65)" gradientUnits="userSpaceOnUse" id="gradient10" spreadMethod="pad" x1="-819.2" x2="819.2">
      <stop offset="0.0" stop-color="#272332"/>
      <stop offset="1.0" stop-color="#bbb7bc"/>
    </linearGradient>
    <linearGradient gradientTransform="matrix(0.0059, -0.0056, -0.0056, -0.0059, 6.95, 8.3)" gradientUnits="userSpaceOnUse" id="gradient11" spreadMethod="pad" x1="-819.2" x2="819.2">
      <stop offset="0.0" stop-color="#bbb7bc"/>
      <stop offset="0.8352941176470589" stop-color="#fdfefd"/>
    </linearGradient>
    <linearGradient gradientTransform="matrix(0.0076, -1.0E-4, -1.0E-4, -0.0076, 7.7, 7.6)" gradientUnits="userSpaceOnUse" id="gradient12" spreadMethod="pad" x1="-819.2" x2="819.2">
      <stop offset="0.12549019607843137" stop-color="#eeefef"/>
      <stop offset="0.4549019607843137" stop-color="#bbb7bc"/>
      <stop offset="0.6431372549019608" stop-color="#bbb7bc"/>
      <stop offset="1.0" stop-color="#e7e6e8"/>
    </linearGradient>
  </defs>
</svg>
