<?xml version="1.0" encoding="UTF-8" standalone="no"?>
<svg xmlns:ffdec="https://www.free-decompiler.com/flash" xmlns:xlink="http://www.w3.org/1999/xlink" ffdec:objectType="shape" height="34.35px" width="34.6px" xmlns="http://www.w3.org/2000/svg">
  <g transform="matrix(1.0, 0.0, 0.0, 1.0, 0.0, 0.0)">
    <path d="M33.0 10.7 L30.6 15.3 28.55 15.4 27.1 18.1 32.7 21.35 Q34.6 22.45 34.6 24.1 34.6 25.75 32.7 26.85 L21.35 33.4 Q19.6 34.35 17.3 34.35 15.0 34.35 13.25 33.4 L1.9 26.85 Q0.0 25.8 0.0 24.1 0.0 22.4 1.9 21.35 L5.05 19.5 5.05 7.45 7.7 5.85 7.7 2.45 11.8 0.0 15.9 2.45 15.9 3.45 22.6 7.45 22.6 7.8 23.85 5.35 27.25 5.2 29.0 6.95 29.45 6.1 31.4 8.2 33.0 10.7" fill="#000000" fill-rule="evenodd" stroke="none"/>
  </g>
</svg>
