<?xml version="1.0" encoding="UTF-8" standalone="no"?>
<svg xmlns:ffdec="https://www.free-decompiler.com/flash" xmlns:xlink="http://www.w3.org/1999/xlink" ffdec:objectType="shape" height="23.0px" width="23.2px" xmlns="http://www.w3.org/2000/svg">
  <g transform="matrix(1.0, 0.0, 0.0, 1.0, 0.0, 0.0)">
    <path d="M21.9 17.95 L14.3 22.35 Q13.15 23.0 11.6 23.0 10.05 23.0 8.9 22.35 L1.3 17.95 Q0.0 17.25 0.0 16.15 0.0 15.0 1.3 14.3 L3.4 13.05 3.4 5.0 5.15 3.9 5.15 1.65 7.9 0.0 10.65 1.65 10.65 2.3 15.15 5.0 15.15 5.2 16.0 3.55 18.25 3.45 19.45 4.65 19.75 4.05 21.05 5.5 22.1 7.15 20.5 10.25 19.15 10.3 18.15 12.1 21.9 14.3 Q23.2 15.05 23.2 16.15 23.2 17.25 21.9 17.95" fill="#133021" fill-rule="evenodd" stroke="none"/>
    <path d="M11.6 9.7 Q13.05 9.7 14.05 10.3 L21.7 14.7 Q22.7 15.3 22.7 16.15 22.7 16.95 21.7 17.55 L14.05 21.95 Q13.05 22.55 11.6 22.55 10.1 22.55 9.1 21.95 L1.5 17.55 Q0.45 16.95 0.45 16.15 0.45 15.3 1.5 14.7 L9.1 10.3 Q10.1 9.7 11.6 9.7" fill="#356b47" fill-rule="evenodd" stroke="none"/>
    <path d="M20.55 17.05 L13.8 20.95 Q12.9 21.5 11.6 21.5 10.3 21.5 9.4 20.95 L2.6 17.05 Q1.7 16.5 1.7 15.75 1.7 15.05 2.6 14.5 L9.4 10.55 Q10.3 10.05 11.6 10.05 12.9 10.05 13.8 10.55 L20.55 14.5 Q21.5 15.05 21.5 15.75 21.5 16.5 20.55 17.05" fill="url(#gradient0)" fill-rule="evenodd" stroke="none"/>
    <path d="M17.55 14.75 L17.95 15.75 17.95 16.85 16.25 18.7 13.7 19.4 12.65 18.85 11.35 18.85 10.5 18.35 10.4 18.45 8.5 18.45 3.5 14.85 3.85 14.4 13.2 13.15 15.3 13.6 15.65 14.5 16.25 14.2 17.55 14.75" fill="#006837" fill-rule="evenodd" stroke="none"/>
    <path d="M9.25 17.95 L3.85 14.7 3.85 5.25 9.25 5.25 9.25 17.95" fill="url(#gradient1)" fill-rule="evenodd" stroke="none"/>
    <path d="M14.7 5.25 L14.7 14.7 9.25 17.95 9.25 5.25 14.7 5.25" fill="url(#gradient2)" fill-rule="evenodd" stroke="none"/>
    <path d="M9.25 8.45 L3.85 5.25 9.25 2.0 14.7 5.25 9.25 8.45" fill="url(#gradient3)" fill-rule="evenodd" stroke="none"/>
    <path d="M5.65 4.45 L9.75 3.75 11.35 4.65 8.5 6.45 5.65 4.45" fill="#b3b3b3" fill-rule="evenodd" stroke="none"/>
    <path d="M7.9 5.7 L5.65 4.35 5.65 1.9 7.9 1.9 7.9 5.7" fill="url(#gradient4)" fill-rule="evenodd" stroke="none"/>
    <path d="M10.2 1.9 L10.2 4.35 7.9 5.7 7.9 1.9 10.2 1.9" fill="url(#gradient5)" fill-rule="evenodd" stroke="none"/>
    <path d="M7.9 3.25 L5.65 1.9 7.9 0.55 10.2 1.9 7.9 3.25" fill="url(#gradient6)" fill-rule="evenodd" stroke="none"/>
    <path d="M3.85 5.25 L9.25 7.95 14.7 5.25 9.5 8.3 9.25 18.05 9.05 8.35 3.85 5.25" fill="#ffffff" fill-rule="evenodd" stroke="none"/>
    <path d="M5.65 1.9 L7.9 3.05 10.2 1.9 8.1 3.15 7.9 5.7 7.8 3.2 5.65 1.9" fill="#ffffff" fill-rule="evenodd" stroke="none"/>
    <path d="M15.5 14.0 L18.05 9.05 18.85 9.85 16.3 14.7 15.5 14.0" fill="url(#gradient7)" fill-rule="evenodd" stroke="none"/>
    <path d="M17.6 7.0 L17.1 6.4 Q17.0 6.0 17.2 5.65 L18.1 3.95 18.85 4.75 17.95 6.4 17.9 7.1 17.6 7.0" fill="url(#gradient8)" fill-rule="evenodd" stroke="none"/>
    <path d="M18.05 9.05 L19.45 9.05 20.2 9.8 18.85 9.85 18.05 9.05" fill="url(#gradient9)" fill-rule="evenodd" stroke="none"/>
    <path d="M15.5 14.0 L16.3 14.7 16.25 14.75 17.0 15.95 16.2 15.15 15.5 14.0" fill="url(#gradient10)" fill-rule="evenodd" stroke="none"/>
    <path d="M13.5 14.8 Q13.95 15.1 14.0 15.5 13.35 15.35 12.95 16.0 L12.05 17.65 11.3 16.9 12.15 15.25 Q12.35 14.85 12.75 14.7 L13.5 14.8" fill="url(#gradient11)" fill-rule="evenodd" stroke="none"/>
    <path d="M14.85 17.75 L16.2 15.15 17.0 15.95 15.6 18.55 14.85 17.75" fill="url(#gradient12)" fill-rule="evenodd" stroke="none"/>
    <path d="M13.05 17.85 L14.85 17.75 15.6 18.55 13.8 18.6 13.05 17.85" fill="url(#gradient13)" fill-rule="evenodd" stroke="none"/>
    <path d="M21.6 7.2 L20.2 9.8 19.45 9.05 20.8 6.4 21.6 7.2" fill="url(#gradient14)" fill-rule="evenodd" stroke="none"/>
    <path d="M20.8 6.4 L19.85 4.9 20.65 5.75 21.6 7.2 20.8 6.4" fill="#55525e" fill-rule="evenodd" stroke="none"/>
    <path d="M16.3 4.05 L18.1 3.95 17.2 5.65 Q17.0 6.0 17.1 6.4 L17.6 7.0 17.9 7.1 Q18.6 7.2 18.95 6.55 L19.85 4.9 20.8 6.4 19.45 9.05 18.05 9.05 15.5 14.0 16.2 15.15 14.85 17.75 13.05 17.85 13.95 16.15 14.0 15.5 Q13.95 15.1 13.5 14.8 L12.75 14.7 Q12.35 14.85 12.15 15.25 L11.3 16.9 10.3 15.4 11.7 12.8 13.05 12.7 15.65 7.8 14.9 6.65 16.3 4.05" fill="url(#gradient15)" fill-rule="evenodd" stroke="none"/>
    <path d="M17.55 4.3 L16.9 5.5 Q16.7 6.0 16.8 6.5 L17.45 7.25 17.85 7.4 18.35 7.4 Q18.95 7.25 19.25 6.7 L19.85 5.5 20.45 6.4 19.25 8.7 17.85 8.75 15.1 14.0 15.85 15.15 14.65 17.45 13.55 17.45 14.2 16.3 14.35 15.45 Q14.2 14.8 13.65 14.5 L12.75 14.4 Q12.15 14.55 11.9 15.05 L11.25 16.25 10.7 15.35 11.9 13.1 13.25 13.0 16.0 7.8 15.3 6.6 16.5 4.35 17.55 4.3" fill="url(#gradient16)" fill-rule="evenodd" stroke="none"/>
  </g>
  <defs>
    <linearGradient gradientTransform="matrix(0.0056, 0.0031, 0.0031, -0.0056, 10.3, 15.05)" gradientUnits="userSpaceOnUse" id="gradient0" spreadMethod="pad" x1="-819.2" x2="819.2">
      <stop offset="0.0" stop-color="#009245"/>
      <stop offset="1.0" stop-color="#8cc63f"/>
    </linearGradient>
    <linearGradient gradientTransform="matrix(0.0033, 0.0, 0.0, -0.0033, 6.55, 11.6)" gradientUnits="userSpaceOnUse" id="gradient1" spreadMethod="pad" x1="-819.2" x2="819.2">
      <stop offset="0.0" stop-color="#999999"/>
      <stop offset="1.0" stop-color="#cccccc"/>
    </linearGradient>
    <linearGradient gradientTransform="matrix(0.0033, 0.0, 0.0, -0.0033, 11.95, 11.6)" gradientUnits="userSpaceOnUse" id="gradient2" spreadMethod="pad" x1="-819.2" x2="819.2">
      <stop offset="0.0" stop-color="#333333"/>
      <stop offset="1.0" stop-color="#999999"/>
    </linearGradient>
    <linearGradient gradientTransform="matrix(0.0066, 0.0, 0.0, -0.0066, 9.25, 5.25)" gradientUnits="userSpaceOnUse" id="gradient3" spreadMethod="pad" x1="-819.2" x2="819.2">
      <stop offset="0.0" stop-color="#cccccc"/>
      <stop offset="1.0" stop-color="#f2f2f2"/>
    </linearGradient>
    <linearGradient gradientTransform="matrix(0.0014, 0.0, 0.0, -0.0014, 6.75, 3.8)" gradientUnits="userSpaceOnUse" id="gradient4" spreadMethod="pad" x1="-819.2" x2="819.2">
      <stop offset="0.0" stop-color="#999999"/>
      <stop offset="1.0" stop-color="#cccccc"/>
    </linearGradient>
    <linearGradient gradientTransform="matrix(0.0014, 0.0, 0.0, -0.0014, 9.05, 3.8)" gradientUnits="userSpaceOnUse" id="gradient5" spreadMethod="pad" x1="-819.2" x2="819.2">
      <stop offset="0.0" stop-color="#333333"/>
      <stop offset="1.0" stop-color="#999999"/>
    </linearGradient>
    <linearGradient gradientTransform="matrix(0.0028, 0.0, 0.0, -0.0028, 7.9, 1.9)" gradientUnits="userSpaceOnUse" id="gradient6" spreadMethod="pad" x1="-819.2" x2="819.2">
      <stop offset="0.0" stop-color="#cccccc"/>
      <stop offset="1.0" stop-color="#f2f2f2"/>
    </linearGradient>
    <linearGradient gradientTransform="matrix(0.0025, -5.0E-4, -5.0E-4, -0.0025, 17.15, 11.9)" gradientUnits="userSpaceOnUse" id="gradient7" spreadMethod="pad" x1="-819.2" x2="819.2">
      <stop offset="0.0" stop-color="#272332"/>
      <stop offset="1.0" stop-color="#bbb7bc"/>
    </linearGradient>
    <linearGradient gradientTransform="matrix(0.0012, -3.0E-4, -3.0E-4, -0.0012, 18.0, 5.5)" gradientUnits="userSpaceOnUse" id="gradient8" spreadMethod="pad" x1="-819.2" x2="819.2">
      <stop offset="0.0" stop-color="#272332"/>
      <stop offset="1.0" stop-color="#bbb7bc"/>
    </linearGradient>
    <linearGradient gradientTransform="matrix(0.0012, -2.0E-4, -2.0E-4, -0.0012, 19.15, 9.45)" gradientUnits="userSpaceOnUse" id="gradient9" spreadMethod="pad" x1="-819.2" x2="819.2">
      <stop offset="0.0" stop-color="#272332"/>
      <stop offset="1.0" stop-color="#bbb7bc"/>
    </linearGradient>
    <linearGradient gradientTransform="matrix(6.0E-4, -1.0E-4, -1.0E-4, -6.0E-4, 16.25, 14.95)" gradientUnits="userSpaceOnUse" id="gradient10" spreadMethod="pad" x1="-819.2" x2="819.2">
      <stop offset="0.0" stop-color="#272332"/>
      <stop offset="1.0" stop-color="#55525e"/>
    </linearGradient>
    <linearGradient gradientTransform="matrix(0.0018, -4.0E-4, -4.0E-4, -0.0018, 12.65, 16.15)" gradientUnits="userSpaceOnUse" id="gradient11" spreadMethod="pad" x1="-819.2" x2="819.2">
      <stop offset="0.0" stop-color="#272332"/>
      <stop offset="1.0" stop-color="#bbb7bc"/>
    </linearGradient>
    <linearGradient gradientTransform="matrix(0.0015, -3.0E-4, -3.0E-4, -0.0015, 15.9, 16.85)" gradientUnits="userSpaceOnUse" id="gradient12" spreadMethod="pad" x1="-819.2" x2="819.2">
      <stop offset="0.0" stop-color="#272332"/>
      <stop offset="1.0" stop-color="#bbb7bc"/>
    </linearGradient>
    <linearGradient gradientTransform="matrix(0.0014, -3.0E-4, -3.0E-4, -0.0014, 14.35, 18.15)" gradientUnits="userSpaceOnUse" id="gradient13" spreadMethod="pad" x1="-819.2" x2="819.2">
      <stop offset="0.0" stop-color="#272332"/>
      <stop offset="1.0" stop-color="#bbb7bc"/>
    </linearGradient>
    <linearGradient gradientTransform="matrix(0.0015, -3.0E-4, -3.0E-4, -0.0015, 20.5, 8.1)" gradientUnits="userSpaceOnUse" id="gradient14" spreadMethod="pad" x1="-819.2" x2="819.2">
      <stop offset="0.0" stop-color="#272332"/>
      <stop offset="1.0" stop-color="#bbb7bc"/>
    </linearGradient>
    <linearGradient gradientTransform="matrix(0.0043, -0.0061, -0.0061, -0.0043, 15.05, 11.65)" gradientUnits="userSpaceOnUse" id="gradient15" spreadMethod="pad" x1="-819.2" x2="819.2">
      <stop offset="0.0" stop-color="#bbb7bc"/>
      <stop offset="0.8352941176470589" stop-color="#fdfefd"/>
    </linearGradient>
    <linearGradient gradientTransform="matrix(0.0068, -0.0014, -0.0014, -0.0068, 15.55, 10.9)" gradientUnits="userSpaceOnUse" id="gradient16" spreadMethod="pad" x1="-819.2" x2="819.2">
      <stop offset="0.12549019607843137" stop-color="#eeefef"/>
      <stop offset="0.4549019607843137" stop-color="#bbb7bc"/>
      <stop offset="0.6431372549019608" stop-color="#bbb7bc"/>
      <stop offset="1.0" stop-color="#e7e6e8"/>
    </linearGradient>
  </defs>
</svg>
