<?xml version="1.0" encoding="UTF-8" standalone="no"?>
<svg xmlns:ffdec="https://www.free-decompiler.com/flash" xmlns:xlink="http://www.w3.org/1999/xlink" ffdec:objectType="shape" height="156.5px" width="301.5px" xmlns="http://www.w3.org/2000/svg">
  <g transform="matrix(1.0, 0.0, 0.0, 1.0, 150.5, 78.5)">
    <path d="M6.0 -65.25 L14.85 -74.05 143.7 -74.2 144.8 -74.0 145.8 -73.3 Q146.7 -72.45 146.7 -71.2 L146.7 71.25 Q146.7 72.5 145.8 73.35 144.95 74.25 143.7 74.25 L-143.15 74.25 Q-144.4 74.25 -145.25 73.35 -146.15 72.5 -146.15 71.25 L-146.15 -71.2 Q-146.15 -72.45 -145.25 -73.3 -144.4 -74.2 -143.15 -74.2 L-97.05 -74.2 -86.75 -65.25 6.0 -65.25" fill="url(#gradient0)" fill-rule="evenodd" stroke="none"/>
    <path d="M6.0 -65.25 L-86.75 -65.25 -97.05 -74.2 -143.15 -74.2 Q-144.4 -74.2 -145.25 -73.3 -146.15 -72.45 -146.15 -71.2 L-146.15 71.25 Q-146.15 72.5 -145.25 73.35 -144.4 74.25 -143.15 74.25 L143.7 74.25 Q144.95 74.25 145.8 73.35 146.7 72.5 146.7 71.25 L146.7 -71.2 Q146.7 -72.45 145.8 -73.3 L144.8 -74.0 143.7 -74.2 14.85 -74.05 6.0 -65.25 Z" fill="none" stroke="#2187e8" stroke-linecap="butt" stroke-linejoin="miter-clip" stroke-miterlimit="4.0" stroke-width="2.0"/>
    <path d="M145.2 -73.1 L145.5 -72.7 128.85 -71.35 Q78.75 -67.75 8.2 -67.7 L14.7 -74.2 144.5 -74.2 145.2 -73.1 M-92.6 -69.85 L-116.85 -71.35 -143.9 -73.8 -143.5 -74.2 -96.95 -74.2 -92.6 -69.85" fill="#27d0fa" fill-opacity="0.5019608" fill-rule="evenodd" stroke="none"/>
    <path d="M150.5 -46.5 L150.5 -72.0 Q150.5 -78.0 144.5 -78.0 L115.5 -78.0 M115.5 77.5 L144.5 77.5 Q150.5 77.5 150.5 71.5 L150.5 48.0 M-118.0 -78.0 L-144.0 -78.0 Q-150.0 -78.0 -150.0 -72.0 L-150.0 -46.5 M-149.5 48.0 L-149.5 71.5 Q-149.5 77.5 -143.5 77.5 L-117.5 77.5" fill="none" stroke="url(#gradient1)" stroke-linecap="butt" stroke-linejoin="miter-clip" stroke-miterlimit="4.0" stroke-width="1.0"/>
    <path d="M135.0 -55.35 Q135.95 -54.3 135.95 -52.7 L135.95 56.8 Q135.95 58.35 135.0 59.45 134.2 60.6 132.95 60.6 L-132.05 60.6 Q-133.3 60.6 -134.1 59.45 -135.0 58.35 -135.0 56.8 L-135.0 -52.7 Q-135.0 -54.3 -134.1 -55.35 -133.3 -56.5 -132.05 -56.5 L132.95 -56.5 Q134.2 -56.5 135.0 -55.35" fill="url(#gradient2)" fill-rule="evenodd" stroke="none"/>
    <path d="M135.95 -52.7 L135.95 56.8 Q135.95 58.4 135.05 59.45 134.2 60.6 133.0 60.6 L-132.05 60.6 Q-133.3 60.6 -134.1 59.45 -135.0 58.4 -135.0 56.8 L-135.0 -52.7 Q-135.0 -54.25 -134.1 -55.35 -133.3 -56.5 -132.05 -56.5 L133.0 -56.5 Q134.2 -56.5 135.05 -55.35 135.95 -54.25 135.95 -52.7 Z" fill="none" stroke="#005eb5" stroke-linecap="butt" stroke-linejoin="miter-clip" stroke-miterlimit="4.0" stroke-width="1.0"/>
    <path d="M4.0 -66.7 L-85.7 -67.15 -95.6 -76.3 12.3 -75.85 4.0 -66.7" fill="url(#gradient3)" fill-rule="evenodd" stroke="none"/>
  </g>
  <defs>
    <linearGradient gradientTransform="matrix(0.0, -0.0906, -0.0906, 0.0, 0.25, 0.05)" gradientUnits="userSpaceOnUse" id="gradient0" spreadMethod="pad" x1="-819.2" x2="819.2">
      <stop offset="0.0" stop-color="#000d35"/>
      <stop offset="1.0" stop-color="#003d86"/>
    </linearGradient>
    <linearGradient gradientTransform="matrix(0.0, -0.0986, 0.0955, 0.0, 0.25, -0.25)" gradientUnits="userSpaceOnUse" id="gradient1" spreadMethod="pad" x1="-819.2" x2="819.2">
      <stop offset="0.0" stop-color="#1787e5"/>
      <stop offset="1.0" stop-color="#27d0fa"/>
    </linearGradient>
    <linearGradient gradientTransform="matrix(0.0, -0.0715, -0.0555, 0.0, 0.45, 2.1)" gradientUnits="userSpaceOnUse" id="gradient2" spreadMethod="pad" x1="-819.2" x2="819.2">
      <stop offset="0.0" stop-color="#053363"/>
      <stop offset="0.058823529411764705" stop-color="#042a56"/>
      <stop offset="0.47058823529411764" stop-color="#032b63"/>
      <stop offset="1.0" stop-color="#011b54"/>
    </linearGradient>
    <linearGradient gradientTransform="matrix(0.0, -0.0054, 0.0056, 0.0, -46.05, -72.4)" gradientUnits="userSpaceOnUse" id="gradient3" spreadMethod="pad" x1="-819.2" x2="819.2">
      <stop offset="0.0" stop-color="#0b4164"/>
      <stop offset="0.6745098039215687" stop-color="#43b6e7"/>
      <stop offset="1.0" stop-color="#27d0fa"/>
    </linearGradient>
  </defs>
</svg>
