<?xml version="1.0" encoding="UTF-8" standalone="no"?>
<svg xmlns:ffdec="https://www.free-decompiler.com/flash" xmlns:xlink="http://www.w3.org/1999/xlink" ffdec:objectType="shape" height="23.0px" width="80.6px" xmlns="http://www.w3.org/2000/svg">
  <g transform="matrix(1.0, 0.0, 0.0, 1.0, 0.5, 0.5)">
    <path d="M3.1 0.0 L76.55 0.0 Q77.8 0.0 78.7 1.0 79.6 1.9 79.6 3.3 L79.6 18.7 Q79.6 20.05 78.7 21.0 77.8 22.0 76.55 22.0 L3.1 22.0 Q1.8 22.0 0.95 21.0 0.0 20.05 0.0 18.7 L0.0 3.3 Q0.0 1.9 0.95 1.0 1.8 0.0 3.1 0.0" fill="#042370" fill-rule="evenodd" stroke="none"/>
    <path d="M3.1 0.0 L76.55 0.0 Q77.8 0.0 78.7 1.0 79.6 1.9 79.6 3.3 L79.6 18.7 Q79.6 20.05 78.7 21.0 77.8 22.0 76.55 22.0 L3.1 22.0 Q1.8 22.0 0.95 21.0 0.0 20.05 0.0 18.7 L0.0 3.3 Q0.0 1.9 0.95 1.0 1.8 0.0 3.1 0.0 Z" fill="none" stroke="#1165ed" stroke-linecap="butt" stroke-linejoin="miter-clip" stroke-miterlimit="4.0" stroke-width="1.0"/>
  </g>
</svg>
