<?xml version="1.0" encoding="UTF-8" standalone="no"?>
<svg xmlns:ffdec="https://www.free-decompiler.com/flash" xmlns:xlink="http://www.w3.org/1999/xlink" ffdec:objectType="shape" height="50.5px" width="32.4px" xmlns="http://www.w3.org/2000/svg">
  <g transform="matrix(1.0, 0.0, 0.0, 1.0, -1.4, -0.85)">
    <path d="M31.1 3.25 L31.1 1.2 32.0 1.35 32.0 13.35 25.25 18.1 25.25 33.95 32.0 38.9 32.05 50.85 31.15 51.1 31.15 51.0 31.15 48.95 31.15 48.35 31.15 44.75 31.15 42.85 31.1 40.85 31.1 39.8 31.1 38.9 28.2 36.8 24.4 34.0 24.35 33.95 24.35 18.1 25.3 17.4 31.1 13.35 31.1 12.95 31.1 11.9 31.1 9.8 31.1 7.9 31.1 3.85 31.1 3.25" fill="#00d4ff" fill-opacity="0.78039217" fill-rule="evenodd" stroke="none"/>
    <path d="M32.05 50.85 L32.0 38.9 25.25 33.95 25.25 18.1 32.0 13.35 32.0 1.35 33.55 1.65 33.6 14.35 26.75 19.1 26.6 19.1 26.6 32.85 33.65 37.95 33.8 50.55 32.05 51.1 32.05 50.85" fill="#000422" fill-opacity="0.5803922" fill-rule="evenodd" stroke="none"/>
    <path d="M31.1 3.85 L31.1 7.9 28.05 7.4 28.05 9.2 Q29.65 9.35 31.1 9.8 L31.1 11.9 Q28.9 11.2 26.4 11.2 20.15 11.2 15.7 15.65 11.25 20.1 11.25 26.35 11.25 32.65 15.7 37.1 20.15 41.55 26.4 41.55 L31.1 40.85 31.15 42.85 30.2 43.05 Q23.5 44.6 17.65 41.1 14.35 39.1 12.2 35.9 L10.6 36.8 Q12.95 40.4 16.7 42.7 23.25 46.6 30.65 44.85 L31.15 44.75 31.15 48.35 26.65 48.75 Q17.25 48.75 10.6 42.1 3.95 35.5 3.95 26.1 3.95 16.7 10.6 10.1 17.25 3.45 26.65 3.45 L31.1 3.85 M25.9 9.15 L25.9 7.35 Q21.1 7.45 16.95 9.85 12.65 12.3 10.1 16.6 7.55 20.85 7.45 25.85 7.35 30.6 9.55 34.95 L11.1 34.05 Q9.15 30.2 9.25 25.85 9.35 21.4 11.65 17.55 13.95 13.7 17.8 11.45 21.55 9.3 25.9 9.15" fill="#000a59" fill-rule="evenodd" stroke="none"/>
    <path d="M31.1 3.25 L31.1 3.85 26.65 3.45 Q17.25 3.45 10.6 10.1 3.95 16.7 3.95 26.1 3.95 35.5 10.6 42.1 17.25 48.75 26.65 48.75 L31.15 48.35 31.15 48.95 26.65 49.35 Q17.0 49.35 10.2 42.55 3.4 35.7 3.4 26.1 3.4 16.5 10.2 9.7 17.0 2.85 26.65 2.85 L31.1 3.25" fill="url(#gradient0)" fill-rule="evenodd" stroke="none"/>
    <path d="M31.1 1.2 L31.1 3.25 26.65 2.85 Q17.0 2.85 10.2 9.7 3.4 16.5 3.4 26.1 3.4 35.7 10.2 42.55 17.0 49.35 26.65 49.35 L31.15 48.95 31.15 51.0 26.65 51.35 Q16.2 51.35 8.8 43.95 1.4 36.55 1.4 26.1 1.4 15.65 8.8 8.25 16.2 0.85 26.65 0.85 L30.75 1.15 31.1 1.2" fill="#00d4ff" fill-rule="evenodd" stroke="none"/>
    <path d="M31.1 7.9 L31.1 9.8 Q29.65 9.35 28.05 9.2 L28.05 7.4 31.1 7.9 M31.15 42.85 L31.15 44.75 30.65 44.85 Q23.25 46.6 16.7 42.7 12.95 40.4 10.6 36.8 L12.2 35.9 Q14.35 39.1 17.65 41.1 23.5 44.6 30.2 43.05 L31.15 42.85 M25.9 9.15 Q21.55 9.3 17.8 11.45 13.95 13.7 11.65 17.55 9.35 21.4 9.25 25.85 9.15 30.2 11.1 34.05 L9.55 34.95 Q7.35 30.6 7.45 25.85 7.55 20.85 10.1 16.6 12.65 12.3 16.95 9.85 21.1 7.45 25.9 7.35 L25.9 9.15" fill="#0073ff" fill-rule="evenodd" stroke="none"/>
    <path d="M31.1 12.95 L31.1 13.35 25.3 17.4 24.35 18.05 24.35 18.1 24.35 33.95 24.4 34.0 24.4 34.1 28.2 36.8 31.1 38.9 31.1 39.8 Q28.9 40.55 26.4 40.55 20.55 40.55 16.4 36.4 12.25 32.25 12.25 26.35 12.25 20.5 16.4 16.35 20.55 12.2 26.4 12.2 28.9 12.2 31.1 12.95" fill="url(#gradient1)" fill-rule="evenodd" stroke="none"/>
    <path d="M31.1 11.9 L31.1 12.95 Q28.9 12.2 26.4 12.2 20.55 12.2 16.4 16.35 12.25 20.5 12.25 26.35 12.25 32.25 16.4 36.4 20.55 40.55 26.4 40.55 28.9 40.55 31.1 39.8 L31.1 40.85 26.4 41.55 Q20.15 41.55 15.7 37.1 11.25 32.65 11.25 26.35 11.25 20.1 15.7 15.65 20.15 11.2 26.4 11.2 28.9 11.2 31.1 11.9" fill="#006dff" fill-rule="evenodd" stroke="none"/>
  </g>
  <defs>
    <linearGradient gradientTransform="matrix(0.0308, 0.0, 0.0, -0.0308, 26.65, 26.1)" gradientUnits="userSpaceOnUse" id="gradient0" spreadMethod="pad" x1="-819.2" x2="819.2">
      <stop offset="0.0" stop-color="#0073b5"/>
      <stop offset="0.10196078431372549" stop-color="#0060aa"/>
      <stop offset="0.23529411764705882" stop-color="#004ea0"/>
      <stop offset="0.32941176470588235" stop-color="#00479c"/>
      <stop offset="1.0" stop-color="#008cff"/>
    </linearGradient>
    <radialGradient cx="0" cy="0" gradientTransform="matrix(0.0179, 0.0, 0.0, -0.0179, 26.4, 26.35)" gradientUnits="userSpaceOnUse" id="gradient1" r="819.2" spreadMethod="pad">
      <stop offset="0.0" stop-color="#0073ff"/>
      <stop offset="0.16470588235294117" stop-color="#006ef9"/>
      <stop offset="0.3843137254901961" stop-color="#0060e8"/>
      <stop offset="0.6352941176470588" stop-color="#0049cc"/>
      <stop offset="0.9058823529411765" stop-color="#0028a5"/>
      <stop offset="1.0" stop-color="#001c96"/>
    </radialGradient>
  </defs>
</svg>
