<?xml version="1.0" encoding="UTF-8" standalone="no"?>
<svg xmlns:ffdec="https://www.free-decompiler.com/flash" xmlns:xlink="http://www.w3.org/1999/xlink" ffdec:objectType="shape" height="23.0px" width="78.6px" xmlns="http://www.w3.org/2000/svg">
  <g transform="matrix(1.0, 0.0, 0.0, 1.0, 0.5, 0.5)">
    <path d="M3.0 0.0 L74.6 0.0 Q75.85 0.0 76.7 1.0 77.6 1.9 77.6 3.3 L77.6 18.7 Q77.6 20.05 76.7 21.0 75.85 22.0 74.6 22.0 L3.0 22.0 Q1.75 22.0 0.9 21.0 0.0 20.05 0.0 18.7 L0.0 3.3 Q0.0 1.9 0.9 1.0 1.75 0.0 3.0 0.0" fill="#042370" fill-rule="evenodd" stroke="none"/>
    <path d="M3.0 0.0 L74.6 0.0 Q75.85 0.0 76.7 1.0 77.6 1.9 77.6 3.3 L77.6 18.7 Q77.6 20.05 76.7 21.0 75.85 22.0 74.6 22.0 L3.0 22.0 Q1.75 22.0 0.9 21.0 0.0 20.05 0.0 18.7 L0.0 3.3 Q0.0 1.9 0.9 1.0 1.75 0.0 3.0 0.0 Z" fill="none" stroke="#1165ed" stroke-linecap="butt" stroke-linejoin="miter-clip" stroke-miterlimit="4.0" stroke-width="1.0"/>
  </g>
</svg>
