<?xml version="1.0" encoding="UTF-8" standalone="no"?>
<svg xmlns:ffdec="https://www.free-decompiler.com/flash" xmlns:xlink="http://www.w3.org/1999/xlink" ffdec:objectType="shape" height="23.0px" width="80.6px" xmlns="http://www.w3.org/2000/svg">
  <g transform="matrix(1.0, 0.0, 0.0, 1.0, 0.5, 0.5)">
    <path d="M0.0 4.0 Q0.0 2.35 1.2 1.2 2.35 0.0 4.0 0.0 L75.6 0.0 Q77.3 0.0 78.45 1.2 79.6 2.35 79.6 4.0 L79.6 18.0 Q79.6 19.65 78.45 20.85 77.3 22.0 75.6 22.0 L4.0 22.0 Q2.35 22.0 1.2 20.85 0.0 19.65 0.0 18.0 L0.0 4.0 M1.9 1.9 Q1.0 2.75 1.0 4.0 L1.0 18.0 Q1.0 19.25 1.9 20.1 2.75 21.0 4.0 21.0 L75.6 21.0 Q76.85 21.0 77.7 20.1 78.6 19.25 78.6 18.0 L78.6 4.0 Q78.6 2.75 77.7 1.9 76.85 1.0 75.6 1.0 L4.0 1.0 Q2.75 1.0 1.9 1.9" fill="#999999" fill-rule="evenodd" stroke="none"/>
    <path d="M3.1 0.0 L76.55 0.0 Q77.8 0.0 78.7 1.0 79.6 1.9 79.6 3.3 L79.6 18.7 Q79.6 20.05 78.7 21.0 77.8 22.0 76.55 22.0 L3.1 22.0 Q1.8 22.0 0.95 21.0 0.0 20.05 0.0 18.7 L0.0 3.3 Q0.0 1.9 0.95 1.0 1.8 0.0 3.1 0.0" fill="#042370" fill-rule="evenodd" stroke="none"/>
    <path d="M3.1 0.0 L76.55 0.0 Q77.8 0.0 78.7 1.0 79.6 1.9 79.6 3.3 L79.6 18.7 Q79.6 20.05 78.7 21.0 77.8 22.0 76.55 22.0 L3.1 22.0 Q1.8 22.0 0.95 21.0 0.0 20.05 0.0 18.7 L0.0 3.3 Q0.0 1.9 0.95 1.0 1.8 0.0 3.1 0.0 Z" fill="none" stroke="#1165ed" stroke-linecap="butt" stroke-linejoin="miter-clip" stroke-miterlimit="4.0" stroke-width="1.0"/>
  </g>
</svg>
