<?xml version="1.0" encoding="UTF-8" standalone="no"?>
<svg xmlns:ffdec="https://www.free-decompiler.com/flash" xmlns:xlink="http://www.w3.org/1999/xlink" ffdec:objectType="shape" height="27.25px" width="138.75px" xmlns="http://www.w3.org/2000/svg">
  <g transform="matrix(1.0, 0.0, 0.0, 1.0, 12.0, -3.8)">
    <path d="M125.6 7.0 Q126.75 8.15 126.75 9.8 L126.75 27.05 Q126.75 28.75 125.6 29.9 124.45 31.05 122.75 31.05 L-5.5 31.05 -5.5 30.95 Q-6.5 30.7 -7.3 29.9 -8.5 28.75 -8.5 27.05 L-8.5 9.8 Q-8.5 8.15 -7.3 7.0 -6.5 6.2 -5.5 5.95 L-5.5 5.8 122.75 5.8 Q124.45 5.8 125.6 7.0 M125.75 9.8 Q125.75 8.55 124.85 7.7 124.0 6.8 122.75 6.8 L-4.55 6.8 Q-5.75 6.8 -6.6 7.7 -7.5 8.55 -7.5 9.8 L-7.5 27.05 Q-7.5 28.3 -6.6 29.15 -5.75 30.05 -4.55 30.05 L122.75 30.05 Q124.0 30.05 124.85 29.15 125.75 28.3 125.75 27.05 L125.75 9.8" fill="#4aa5ff" fill-rule="evenodd" stroke="none"/>
    <path d="M11.2 5.05 L4.5 13.4 3.2 14.35 1.65 14.75 -10.0 14.75 Q-10.6 14.75 -11.05 14.3 L-11.5 13.25 -11.5 5.8 Q-11.5 5.2 -11.05 4.75 -10.6 4.3 -10.0 4.3 L10.85 4.3 11.45 4.5 11.2 5.05" fill="#085aff" fill-rule="evenodd" stroke="none"/>
    <path d="M3.0 13.9 L4.1 13.1 10.75 4.8 -10.0 4.8 Q-10.4 4.8 -10.7 5.1 L-11.0 5.8 -11.0 13.25 -10.7 13.95 -10.0 14.25 1.65 14.25 3.0 13.9 M10.85 3.8 Q11.7 3.8 11.9 4.25 12.1 4.75 11.6 5.4 L4.9 13.7 3.45 14.8 1.65 15.25 -10.0 15.25 Q-10.8 15.25 -11.4 14.65 -12.0 14.1 -12.0 13.25 L-12.0 5.8 Q-12.0 5.0 -11.4 4.4 -10.8 3.8 -10.0 3.8 L10.85 3.8" fill="#29abe2" fill-rule="evenodd" stroke="none"/>
  </g>
</svg>
