<?xml version="1.0" encoding="UTF-8" standalone="no"?>
<svg xmlns:ffdec="https://www.free-decompiler.com/flash" xmlns:xlink="http://www.w3.org/1999/xlink" ffdec:objectType="shape" height="33.75px" width="33.75px" xmlns="http://www.w3.org/2000/svg">
  <g transform="matrix(1.0, 0.0, 0.0, 1.0, -1.05, -0.7)">
    <path d="M28.8 6.7 Q33.3 11.25 33.3 17.6 33.3 23.95 28.8 28.45 24.25 32.95 17.9 32.95 11.55 32.95 7.05 28.45 2.55 23.95 2.55 17.6 2.55 11.2 7.05 6.7 11.55 2.2 17.9 2.2 24.3 2.2 28.8 6.7" fill="#082e99" fill-rule="evenodd" stroke="none"/>
    <path d="M17.9 2.2 Q11.55 2.2 7.05 6.7 2.55 11.2 2.55 17.6 2.55 23.95 7.05 28.45 11.55 32.95 17.9 32.95 24.25 32.95 28.8 28.45 33.3 23.95 33.3 17.6 33.3 11.25 28.8 6.7 24.3 2.2 17.9 2.2 M17.9 0.7 Q24.9 0.7 29.85 5.65 34.8 10.6 34.8 17.6 34.8 24.55 29.85 29.5 24.9 34.45 17.9 34.45 10.95 34.45 6.0 29.5 1.05 24.6 1.05 17.6 1.05 10.6 6.0 5.65 10.9 0.7 17.9 0.7" fill="#4aa5ff" fill-rule="evenodd" stroke="none"/>
  </g>
</svg>
