<?xml version="1.0" encoding="UTF-8" standalone="no"?>
<svg xmlns:ffdec="https://www.free-decompiler.com/flash" xmlns:xlink="http://www.w3.org/1999/xlink" ffdec:objectType="shape" height="49.2px" width="26.1px" xmlns="http://www.w3.org/2000/svg">
  <g transform="matrix(1.0, 0.0, 0.0, 1.0, 0.0, 0.0)">
    <path d="M6.85 2.7 L6.85 2.1 Q12.7 3.6 17.3 8.2 24.1 15.0 24.1 24.6 24.1 34.2 17.3 41.05 12.75 45.6 6.95 47.1 L6.95 46.5 Q12.55 45.0 16.9 40.6 23.55 34.0 23.55 24.6 23.55 15.25 16.9 8.6 12.5 4.15 6.85 2.7" fill="url(#gradient0)" fill-rule="evenodd" stroke="none"/>
    <path d="M6.85 2.1 L6.85 0.0 Q13.55 1.55 18.7 6.75 26.1 14.15 26.1 24.6 26.1 35.05 18.7 42.45 13.6 47.6 6.95 49.2 L6.95 47.1 Q12.75 45.6 17.3 41.05 24.1 34.2 24.1 24.6 24.1 15.0 17.3 8.2 12.7 3.6 6.85 2.1" fill="#00d4ff" fill-rule="evenodd" stroke="none"/>
    <path d="M6.95 38.75 L6.95 37.65 Q9.0 36.6 10.7 34.9 14.85 30.75 14.85 24.85 14.85 19.0 10.7 14.85 8.95 13.1 6.85 12.1 L6.85 11.0 Q9.35 12.1 11.4 14.15 15.85 18.6 15.85 24.85 15.85 31.15 11.4 35.6 9.35 37.65 6.95 38.75" fill="#006dff" fill-rule="evenodd" stroke="none"/>
    <path d="M6.95 37.65 L6.95 36.85 0.05 31.75 0.0 16.95 6.85 12.35 6.85 12.1 Q8.95 13.1 10.7 14.85 14.85 19.0 14.85 24.85 14.85 30.75 10.7 34.9 9.0 36.6 6.95 37.65" fill="url(#gradient1)" fill-rule="evenodd" stroke="none"/>
    <path d="M6.95 46.5 L6.95 42.75 Q12.85 40.7 16.45 35.3 L14.9 34.35 Q11.85 38.95 6.95 40.8 L6.95 38.75 Q9.35 37.65 11.4 35.6 15.85 31.15 15.85 24.85 15.85 18.6 11.4 14.15 9.35 12.1 6.85 11.0 L6.85 8.8 Q8.2 9.3 9.45 10.05 15.25 13.5 17.1 20.0 19.0 26.45 16.0 32.5 L17.55 33.45 Q20.95 26.8 18.9 19.55 16.8 12.3 10.35 8.45 8.7 7.45 6.85 6.85 L6.85 2.7 Q12.5 4.15 16.9 8.6 23.55 15.25 23.55 24.6 23.55 34.0 16.9 40.6 12.55 45.0 6.95 46.5" fill="#000a59" fill-rule="evenodd" stroke="none"/>
    <path d="M6.95 42.75 L6.95 40.8 Q11.85 38.95 14.9 34.35 L16.45 35.3 Q12.85 40.7 6.95 42.75 M6.85 8.8 L6.85 6.85 Q8.7 7.45 10.35 8.45 16.8 12.3 18.9 19.55 20.95 26.8 17.55 33.45 L16.0 32.5 Q19.0 26.45 17.1 20.0 15.25 13.5 9.45 10.05 8.2 9.3 6.85 8.8" fill="#0073ff" fill-rule="evenodd" stroke="none"/>
    <path d="M17.55 33.45 L16.0 32.5 M14.9 34.35 L16.45 35.3" fill="none" stroke="#006dff" stroke-linecap="butt" stroke-linejoin="miter-clip" stroke-miterlimit="4.0" stroke-width="1.0"/>
  </g>
  <defs>
    <linearGradient gradientTransform="matrix(0.0308, 0.0, 0.0, -0.0308, 0.9, 24.6)" gradientUnits="userSpaceOnUse" id="gradient0" spreadMethod="pad" x1="-819.2" x2="819.2">
      <stop offset="0.0" stop-color="#0073b5"/>
      <stop offset="0.10196078431372549" stop-color="#0060aa"/>
      <stop offset="0.23529411764705882" stop-color="#004ea0"/>
      <stop offset="0.32941176470588235" stop-color="#00479c"/>
      <stop offset="1.0" stop-color="#008cff"/>
    </linearGradient>
    <radialGradient cx="0" cy="0" gradientTransform="matrix(0.0179, 0.0, 0.0, -0.0179, 0.65, 24.85)" gradientUnits="userSpaceOnUse" id="gradient1" r="819.2" spreadMethod="pad">
      <stop offset="0.0" stop-color="#0073ff"/>
      <stop offset="0.16470588235294117" stop-color="#006ef9"/>
      <stop offset="0.3843137254901961" stop-color="#0060e8"/>
      <stop offset="0.6352941176470588" stop-color="#0049cc"/>
      <stop offset="0.9058823529411765" stop-color="#0028a5"/>
      <stop offset="1.0" stop-color="#001c96"/>
    </radialGradient>
  </defs>
</svg>
