<?xml version="1.0" encoding="UTF-8" standalone="no"?>
<svg xmlns:ffdec="https://www.free-decompiler.com/flash" xmlns:xlink="http://www.w3.org/1999/xlink" ffdec:objectType="shape" height="21.3px" width="21.35px" xmlns="http://www.w3.org/2000/svg">
  <g transform="matrix(1.0, 0.0, 0.0, 1.0, -1.55, -0.55)">
    <path d="M22.4 11.2 Q22.4 15.4 19.4 18.4 16.4 21.35 12.2 21.35 8.0 21.35 5.05 18.4 2.05 15.4 2.05 11.2 2.05 7.0 5.05 4.05 8.0 1.05 12.2 1.05 16.4 1.05 19.4 4.05 22.4 7.0 22.4 11.2" fill="#000000" fill-rule="evenodd" stroke="none"/>
    <path d="M22.4 11.2 Q22.4 15.4 19.4 18.4 16.4 21.35 12.2 21.35 8.0 21.35 5.05 18.4 2.05 15.4 2.05 11.2 2.05 7.0 5.05 4.05 8.0 1.05 12.2 1.05 16.4 1.05 19.4 4.05 22.4 7.0 22.4 11.2 Z" fill="none" stroke="#727272" stroke-linecap="butt" stroke-linejoin="miter-clip" stroke-miterlimit="4.0" stroke-width="1.0"/>
    <path d="M19.5 11.2 Q19.5 14.25 17.35 16.35 15.25 18.5 12.2 18.5 9.2 18.5 7.05 16.35 4.9 14.25 4.9 11.2 4.9 8.15 7.05 6.05 9.2 3.9 12.2 3.9 15.25 3.9 17.35 6.05 19.5 8.15 19.5 11.2" fill="#022966" fill-rule="evenodd" stroke="none"/>
    <path d="M19.5 11.2 Q19.5 14.25 17.35 16.35 15.25 18.5 12.2 18.5 9.2 18.5 7.05 16.35 4.9 14.25 4.9 11.2 4.9 8.15 7.05 6.05 9.2 3.9 12.2 3.9 15.25 3.9 17.35 6.05 19.5 8.15 19.5 11.2 Z" fill="none" stroke="#0ca5f2" stroke-linecap="butt" stroke-linejoin="miter-clip" stroke-miterlimit="4.0" stroke-width="1.5"/>
    <path d="M17.8 12.1 L11.4 12.1 11.4 11.15 17.8 11.15 17.8 12.1" fill="#0c90ea" fill-rule="evenodd" stroke="none"/>
    <path d="M13.8 8.35 L12.2 12.25 11.35 11.9 12.95 8.0 13.8 8.35" fill="#0c90ea" fill-rule="evenodd" stroke="none"/>
  </g>
</svg>
