<?xml version="1.0" encoding="UTF-8" standalone="no"?>
<svg xmlns:ffdec="https://www.free-decompiler.com/flash" xmlns:xlink="http://www.w3.org/1999/xlink" ffdec:objectType="shape" height="21.3px" width="21.35px" xmlns="http://www.w3.org/2000/svg">
  <g transform="matrix(1.0, 0.0, 0.0, 1.0, -1.55, -0.55)">
    <path d="M22.4 11.2 Q22.4 15.4 19.4 18.4 16.4 21.35 12.2 21.35 8.0 21.35 5.05 18.4 2.05 15.4 2.05 11.2 2.05 7.0 5.05 4.05 8.0 1.05 12.2 1.05 16.4 1.05 19.4 4.05 22.4 7.0 22.4 11.2" fill="#000000" fill-rule="evenodd" stroke="none"/>
    <path d="M22.4 11.2 Q22.4 15.4 19.4 18.4 16.4 21.35 12.2 21.35 8.0 21.35 5.05 18.4 2.05 15.4 2.05 11.2 2.05 7.0 5.05 4.05 8.0 1.05 12.2 1.05 16.4 1.05 19.4 4.05 22.4 7.0 22.4 11.2 Z" fill="none" stroke="#727272" stroke-linecap="butt" stroke-linejoin="miter-clip" stroke-miterlimit="4.0" stroke-width="1.0"/>
    <path d="M18.75 11.15 Q18.75 13.9 16.8 15.8 14.9 17.75 12.15 17.75 9.45 17.75 7.55 15.8 5.6 13.9 5.6 11.15 5.6 8.4 7.55 6.5 9.45 4.6 12.15 4.6 14.9 4.6 16.8 6.5 18.75 8.4 18.75 11.15" fill="#0345a7" fill-rule="evenodd" stroke="none"/>
    <path d="M18.75 11.15 Q18.75 13.9 16.8 15.8 14.9 17.75 12.15 17.75 9.45 17.75 7.55 15.8 5.6 13.9 5.6 11.15 5.6 8.4 7.55 6.5 9.45 4.6 12.15 4.6 14.9 4.6 16.8 6.5 18.75 8.4 18.75 11.15 Z" fill="none" stroke="#0ca5f2" stroke-linecap="butt" stroke-linejoin="miter-clip" stroke-miterlimit="4.0" stroke-width="1.5"/>
    <path d="M17.2 11.95 L11.45 11.95 11.45 11.1 17.2 11.1 17.2 11.95" fill="#0c90ea" fill-rule="evenodd" stroke="none"/>
    <path d="M13.6 8.6 L12.15 12.1 11.4 11.8 12.85 8.3 13.6 8.6" fill="#0c90ea" fill-rule="evenodd" stroke="none"/>
  </g>
</svg>
