<?xml version="1.0" encoding="UTF-8" standalone="no"?>
<svg xmlns:ffdec="https://www.free-decompiler.com/flash" xmlns:xlink="http://www.w3.org/1999/xlink" ffdec:objectType="shape" height="55.3px" width="112.5px" xmlns="http://www.w3.org/2000/svg">
  <g transform="matrix(1.0, 0.0, 0.0, 1.0, -13.7, -6.55)">
    <path d="M51.75 22.75 Q50.95 17.1 51.0 16.35 51.15 12.5 54.4 10.7 61.1 7.0 70.45 7.25 79.75 7.5 86.25 11.6 88.45 13.0 88.45 16.95 L88.25 22.75 Q96.2 20.0 106.55 20.8 118.05 21.7 122.5 26.8 127.4 32.4 125.8 38.2 124.2 44.05 117.1 46.75 104.95 51.35 95.25 45.1 94.95 48.55 92.8 51.75 90.5 55.15 86.4 57.8 80.05 61.9 69.55 61.85 59.05 61.85 53.15 57.8 49.2 55.1 46.85 51.1 44.65 47.35 45.15 44.8 40.05 47.95 34.15 48.4 28.4 48.9 22.8 46.75 15.7 44.05 14.1 38.2 12.55 32.4 17.4 26.8 22.25 21.2 30.7 19.15 39.15 17.1 46.25 19.75 L51.75 22.75" fill="url(#gradient0)" fill-rule="evenodd" stroke="none"/>
    <path d="M47.75 48.7 Q46.15 45.3 46.9 41.75 41.7 44.8 35.4 45.55 28.9 46.3 23.55 44.35 16.5 41.75 14.85 36.1 13.15 30.35 18.25 25.4 23.15 20.9 28.85 19.3 34.45 17.75 35.4 16.8 43.35 16.4 47.7 13.25 50.6 10.15 51.25 10.05 L70.05 6.85 Q82.2 5.65 87.15 9.55 90.45 13.0 93.85 14.65 96.5 15.95 100.75 16.7 L109.6 19.25 Q116.7 21.7 121.6 25.4 126.85 30.15 125.1 36.0 123.35 41.75 116.25 44.35 110.8 46.35 104.15 45.5 97.7 44.7 92.5 41.5 93.4 45.1 91.75 48.55 90.05 52.15 86.05 54.85 79.3 59.35 69.75 59.35 60.15 59.35 53.4 54.85 49.45 52.2 47.75 48.7" fill="url(#gradient1)" fill-rule="evenodd" stroke="none"/>
  </g>
  <defs>
    <linearGradient gradientTransform="matrix(0.0686, 0.0, 0.0, -0.0686, 69.95, 34.55)" gradientUnits="userSpaceOnUse" id="gradient0" spreadMethod="pad" x1="-819.2" x2="819.2">
      <stop offset="0.0" stop-color="#0045ff"/>
      <stop offset="0.09803921568627451" stop-color="#1b63ff"/>
      <stop offset="0.2" stop-color="#2f7bff"/>
      <stop offset="0.30980392156862746" stop-color="#3e8cff"/>
      <stop offset="0.42745098039215684" stop-color="#4796ff"/>
      <stop offset="0.5764705882352941" stop-color="#4a99ff"/>
      <stop offset="1.0" stop-color="#0054ff"/>
    </linearGradient>
    <linearGradient gradientTransform="matrix(0.0, -0.0322, -0.0322, 0.0, 69.95, 32.95)" gradientUnits="userSpaceOnUse" id="gradient1" spreadMethod="pad" x1="-819.2" x2="819.2">
      <stop offset="0.0" stop-color="#786963"/>
      <stop offset="0.3411764705882353" stop-color="#3a3635"/>
      <stop offset="0.6078431372549019" stop-color="#777674"/>
      <stop offset="0.9254901960784314" stop-color="#343434"/>
      <stop offset="1.0" stop-color="#525252"/>
    </linearGradient>
  </defs>
</svg>
