<?xml version="1.0" encoding="UTF-8" standalone="no"?>
<svg xmlns:ffdec="https://www.free-decompiler.com/flash" xmlns:xlink="http://www.w3.org/1999/xlink" ffdec:objectType="shape" height="23.0px" width="36.85px" xmlns="http://www.w3.org/2000/svg">
  <g transform="matrix(1.0, 0.0, 0.0, 1.0, 0.0, 0.0)">
    <path d="M18.2 23.0 Q10.55 22.9 5.2 19.45 -0.1 16.0 0.0 11.25 0.1 6.45 5.55 3.15 11.05 -0.1 18.65 0.0 26.3 0.1 31.6 3.55 36.95 7.0 36.85 11.75 36.8 16.55 31.3 19.8 25.8 23.1 18.2 23.0" fill="url(#gradient0)" fill-rule="evenodd" stroke="none"/>
    <path d="M18.2 21.8 Q11.4 21.6 6.65 18.85 1.95 16.05 2.05 12.35 2.2 8.6 7.05 6.15 11.95 3.65 18.75 3.8 25.55 4.0 30.25 6.75 34.95 9.5 34.85 13.25 34.75 16.95 29.85 19.45 25.0 21.95 18.2 21.8" fill="#515a60" fill-rule="evenodd" stroke="none"/>
    <path d="M7.3 19.35 Q2.85 16.85 3.0 13.5 3.1 10.15 7.7 7.9 12.25 5.6 18.7 5.8 25.05 5.95 29.5 8.45 33.95 10.95 33.85 14.35 33.75 17.7 29.15 19.95 24.55 22.2 18.15 22.05 11.75 21.85 7.3 19.35" fill="url(#gradient1)" fill-rule="evenodd" stroke="none"/>
    <path d="M17.9 6.3 Q12.0 6.3 7.9 8.35 3.6 10.45 3.5 13.55 3.35 16.5 7.55 18.95 12.3 21.55 18.95 21.55 24.7 21.55 28.95 19.5 33.3 17.35 33.35 14.3 33.45 11.25 29.3 8.9 24.55 6.3 17.9 6.3 M18.95 22.05 Q12.1 22.05 7.3 19.35 2.85 16.85 3.0 13.5 3.1 10.15 7.7 7.9 12.0 5.8 17.9 5.8 24.75 5.8 29.5 8.45 33.95 10.95 33.85 14.35 33.75 17.7 29.15 19.95 24.9 22.05 18.95 22.05" fill="#0068ff" fill-rule="evenodd" stroke="none"/>
  </g>
  <defs>
    <linearGradient gradientTransform="matrix(-0.0038, -0.0142, 0.0142, -0.0038, 18.4, 11.5)" gradientUnits="userSpaceOnUse" id="gradient0" spreadMethod="pad" x1="-819.2" x2="819.2">
      <stop offset="0.0" stop-color="#737375"/>
      <stop offset="1.0" stop-color="#abb1b2"/>
    </linearGradient>
    <linearGradient gradientTransform="matrix(0.0, 0.0099, -0.0099, 0.0, 18.4, 13.9)" gradientUnits="userSpaceOnUse" id="gradient1" spreadMethod="pad" x1="-819.2" x2="819.2">
      <stop offset="0.0" stop-color="#0547d1"/>
      <stop offset="0.22745098039215686" stop-color="#03369f"/>
      <stop offset="0.47843137254901963" stop-color="#02256f"/>
      <stop offset="0.7019607843137254" stop-color="#01194b"/>
      <stop offset="0.8823529411764706" stop-color="#001236"/>
      <stop offset="1.0" stop-color="#000f2e"/>
    </linearGradient>
  </defs>
</svg>
