<?xml version="1.0" encoding="UTF-8" standalone="no"?>
<svg xmlns:ffdec="https://www.free-decompiler.com/flash" xmlns:xlink="http://www.w3.org/1999/xlink" ffdec:objectType="shape" height="25.65px" width="38.1px" xmlns="http://www.w3.org/2000/svg">
  <g transform="matrix(1.0, 0.0, 0.0, 1.0, 0.0, 0.0)">
    <path d="M37.7 21.85 Q36.15 25.45 29.8 25.45 L24.55 24.85 Q22.4 25.65 20.4 25.65 16.9 25.65 13.95 23.7 11.0 21.7 9.45 18.4 4.1 14.8 1.65 10.95 -0.85 7.1 0.4 4.25 1.95 0.6 8.25 0.6 11.25 0.6 14.75 1.5 17.5 0.0 20.4 0.0 24.8 0.0 28.2 3.05 31.6 6.05 32.4 10.6 35.9 13.7 37.3 16.6 38.65 19.55 37.7 21.85 M33.0 18.55 Q33.4 17.5 32.25 15.8 31.8 17.9 30.65 19.8 32.55 19.5 33.0 18.55 M8.7 7.05 Q8.45 7.65 8.85 8.8 L10.1 6.0 Q9.0 6.4 8.7 7.05" fill="#000000" fill-rule="evenodd" stroke="none"/>
  </g>
</svg>
