<?xml version="1.0" encoding="UTF-8" standalone="no"?>
<svg xmlns:ffdec="https://www.free-decompiler.com/flash" xmlns:xlink="http://www.w3.org/1999/xlink" ffdec:objectType="shape" height="15.25px" width="22.65px" xmlns="http://www.w3.org/2000/svg">
  <g transform="matrix(1.0, 0.0, 0.0, 1.0, -6.75, -3.95)">
    <path d="M26.05 10.25 Q28.1 12.1 28.95 13.8 29.75 15.55 29.2 16.9 28.25 19.05 24.5 19.05 L21.35 18.7 18.9 19.2 Q16.85 19.2 15.05 18.0 13.3 16.85 12.4 14.85 9.2 12.75 7.75 10.45 6.3 8.15 7.0 6.45 7.95 4.3 11.7 4.3 L15.55 4.85 Q17.2 3.95 18.9 3.95 21.5 3.95 23.55 5.75 25.55 7.55 26.05 10.25 M11.95 8.15 Q11.8 8.5 12.05 9.15 12.35 8.25 12.8 7.5 12.15 7.75 11.95 8.15 M25.0 15.7 Q26.15 15.5 26.4 14.95 26.65 14.35 25.95 13.35 L25.0 15.7" fill="#182a47" fill-rule="evenodd" stroke="none"/>
    <path d="M25.65 11.55 Q25.65 14.5 23.7 16.55 21.7 18.65 18.9 18.65 16.1 18.65 14.15 16.55 12.15 14.5 12.15 11.55 12.15 8.65 14.15 6.55 16.1 4.45 18.9 4.45 21.7 4.45 23.7 6.55 25.65 8.65 25.65 11.55" fill="url(#gradient0)" fill-rule="evenodd" stroke="none"/>
    <path d="M19.6 5.4 L19.65 4.5 Q22.2 4.85 23.95 6.8 25.65 8.85 25.65 11.55 25.65 14.5 23.7 16.55 21.7 18.65 18.9 18.65 16.1 18.65 14.15 16.55 12.15 14.5 12.15 11.55 12.15 10.6 12.45 9.5 L12.75 9.35 13.6 8.7 12.45 10.75 14.85 8.85 14.25 10.8 14.1 12.65 15.05 12.65 16.6 13.65 17.05 15.0 17.65 16.45 19.3 16.45 20.35 15.4 19.05 14.7 19.0 14.05 19.25 13.0 20.6 14.1 21.15 13.85 20.9 13.1 20.95 12.9 23.7 12.8 24.15 12.25 24.0 10.8 22.9 10.25 22.6 10.4 20.25 11.3 19.25 11.4 18.75 9.3 19.35 7.85 20.25 8.4 21.6 8.4 21.95 7.35 21.05 6.15 20.25 5.95 19.6 5.4" fill="url(#gradient1)" fill-rule="evenodd" stroke="none"/>
    <path d="M24.0 10.9 L24.2 11.0 24.4 12.4 24.0 13.0 21.2 13.05 21.15 13.35 21.4 14.05 20.85 14.3 20.6 14.1 21.15 13.85 20.9 13.1 20.95 12.9 23.7 12.8 24.15 12.25 24.0 10.9" fill="#0542a4" fill-rule="evenodd" stroke="none"/>
    <path d="M19.9 4.7 L19.85 5.6 19.6 5.4 19.65 4.5 Q21.6 4.75 23.1 6.0 21.75 4.95 19.9 4.7" fill="#0542a4" fill-rule="evenodd" stroke="none"/>
    <path d="M18.75 9.3 L19.35 7.85 20.25 8.4 21.6 8.4 21.95 7.35 21.2 6.3 21.35 6.3 22.2 7.55 21.8 8.6 20.55 8.6 19.6 8.0 19.0 9.5 19.45 11.35 19.25 11.4 18.75 9.3" fill="#0542a4" fill-rule="evenodd" stroke="none"/>
    <path d="M19.25 13.0 L19.45 13.2 19.25 14.25 19.3 14.8 19.05 14.7 19.0 14.05 19.25 13.0" fill="#0542a4" fill-rule="evenodd" stroke="none"/>
    <path d="M12.7 10.9 L13.1 10.2 14.85 8.85 14.7 9.35 12.7 10.9" fill="#0542a4" fill-rule="evenodd" stroke="none"/>
    <path d="M13.0 9.55 L12.7 9.7 12.5 10.65 12.45 10.75 12.5 10.7 12.45 11.75 Q12.45 13.35 13.1 14.8 13.75 16.2 14.85 17.2 13.6 16.25 12.9 14.8 12.15 13.25 12.15 11.55 12.15 10.6 12.45 9.5 L12.75 9.35 13.6 8.7 13.25 9.4 13.0 9.55" fill="#0542a4" fill-rule="evenodd" stroke="none"/>
    <path d="M17.85 16.6 L17.8 16.45 19.3 16.45 20.3 15.45 20.6 15.6 19.55 16.6 17.85 16.6" fill="#0542a4" fill-rule="evenodd" stroke="none"/>
    <path d="M7.45 6.65 Q8.05 5.25 10.35 4.9 12.55 4.55 15.65 5.35 L13.9 6.8 Q11.95 6.9 11.5 7.9 10.95 9.15 12.85 11.15 14.7 13.1 17.85 14.55 21.05 16.05 23.7 16.25 26.3 16.4 26.85 15.15 27.35 13.95 25.6 12.1 L25.65 11.55 25.55 10.5 Q27.5 12.2 28.35 13.8 29.25 15.5 28.7 16.7 27.9 18.65 24.2 18.55 20.5 18.45 16.1 16.35 11.7 14.3 9.15 11.45 6.65 8.6 7.45 6.65" fill="url(#gradient2)" fill-rule="evenodd" stroke="none"/>
    <path d="M13.2 6.3 L11.65 6.2 Q10.0 6.45 10.0 8.2 9.95 11.5 17.85 15.25 21.8 17.15 25.45 16.8 29.65 16.4 26.5 12.35 30.0 15.8 26.95 17.15 23.95 18.4 18.6 16.2 13.85 14.2 11.5 11.85 9.5 9.9 9.5 8.15 9.5 6.7 10.75 6.2 L13.2 6.3" fill="url(#gradient3)" fill-rule="evenodd" stroke="none"/>
  </g>
  <defs>
    <radialGradient cx="0" cy="0" gradientTransform="matrix(0.0101, 0.0, 0.0, -0.0107, 16.9, 9.6)" gradientUnits="userSpaceOnUse" id="gradient0" r="819.2" spreadMethod="pad">
      <stop offset="0.0" stop-color="#f4ffe6"/>
      <stop offset="0.2235294117647059" stop-color="#b4ff51"/>
      <stop offset="0.6901960784313725" stop-color="#00733b"/>
      <stop offset="1.0" stop-color="#77a695"/>
    </radialGradient>
    <radialGradient cx="0" cy="0" gradientTransform="matrix(0.012, 0.0, 0.0, -0.0127, 16.85, 9.9)" gradientUnits="userSpaceOnUse" id="gradient1" r="819.2" spreadMethod="pad">
      <stop offset="0.0" stop-color="#70e9ff"/>
      <stop offset="0.5019607843137255" stop-color="#1256af"/>
      <stop offset="0.7333333333333333" stop-color="#032c6e"/>
      <stop offset="1.0" stop-color="#6995db"/>
    </radialGradient>
    <linearGradient gradientTransform="matrix(0.0132, 0.0, 0.0, -0.0132, 18.1, 11.7)" gradientUnits="userSpaceOnUse" id="gradient2" spreadMethod="pad" x1="-819.2" x2="819.2">
      <stop offset="0.0" stop-color="#d7f2e7"/>
      <stop offset="1.0" stop-color="#2e5566"/>
    </linearGradient>
    <linearGradient gradientTransform="matrix(0.0115, 0.0, 0.0, -0.0115, 15.2, 11.8)" gradientUnits="userSpaceOnUse" id="gradient3" spreadMethod="pad" x1="-819.2" x2="819.2">
      <stop offset="0.0" stop-color="#d7f2e7"/>
      <stop offset="1.0" stop-color="#2e5566"/>
    </linearGradient>
  </defs>
</svg>
