<?xml version="1.0" encoding="UTF-8" standalone="no"?>
<svg xmlns:ffdec="https://www.free-decompiler.com/flash" xmlns:xlink="http://www.w3.org/1999/xlink" ffdec:objectType="shape" height="23.0px" width="36.85px" xmlns="http://www.w3.org/2000/svg">
  <g transform="matrix(1.0, 0.0, 0.0, 1.0, 0.0, 0.0)">
    <path d="M0.0 11.2 Q0.1 6.45 5.55 3.15 11.0 -0.15 18.65 0.0 26.25 0.1 31.6 3.55 36.95 7.0 36.85 11.75 36.8 16.5 31.3 19.8 25.85 23.1 18.2 23.0 10.55 22.85 5.2 19.4 -0.1 15.95 0.0 11.2" fill="url(#gradient0)" fill-rule="evenodd" stroke="none"/>
    <path d="M2.05 12.35 Q2.2 8.6 7.05 6.1 12.0 3.6 18.75 3.8 25.55 4.0 30.25 6.75 34.95 9.5 34.85 13.2 34.75 16.95 29.85 19.45 24.95 21.95 18.2 21.75 11.35 21.55 6.65 18.8 1.95 16.05 2.05 12.35" fill="#515a60" fill-rule="evenodd" stroke="none"/>
    <path d="M3.0 13.5 Q3.1 10.15 7.7 7.85 12.3 5.6 18.7 5.75 25.1 5.95 29.55 8.45 34.0 10.95 33.85 14.3 33.75 17.65 29.15 19.95 24.55 22.2 18.15 22.05 11.75 21.85 7.3 19.35 2.85 16.85 3.0 13.5" fill="url(#gradient1)" fill-rule="evenodd" stroke="none"/>
    <path d="M3.0 13.5 Q3.1 10.15 7.7 7.85 12.0 5.75 17.9 5.75 24.75 5.75 29.55 8.45 34.0 10.95 33.85 14.3 33.75 17.65 29.15 19.95 24.9 22.05 18.95 22.05 12.25 22.05 7.3 19.35 2.85 16.85 3.0 13.5 M17.9 6.25 Q12.15 6.25 7.9 8.3 3.6 10.45 3.5 13.5 3.4 16.55 7.55 18.9 12.35 21.55 18.95 21.55 24.7 21.55 28.95 19.5 33.25 17.35 33.35 14.3 33.45 11.25 29.3 8.9 24.6 6.25 17.9 6.25" fill="#00aaff" fill-rule="evenodd" stroke="none"/>
  </g>
  <defs>
    <linearGradient gradientTransform="matrix(0.0033, 0.0143, -0.0143, 0.0033, 18.4, 11.5)" gradientUnits="userSpaceOnUse" id="gradient0" spreadMethod="pad" x1="-819.2" x2="819.2">
      <stop offset="0.0" stop-color="#737375"/>
      <stop offset="1.0" stop-color="#abb1b2"/>
    </linearGradient>
    <radialGradient cx="0" cy="0" gradientTransform="matrix(-0.0151, 0.0, 0.0, -0.0151, 18.4, 13.9)" gradientUnits="userSpaceOnUse" id="gradient1" r="819.2" spreadMethod="pad">
      <stop offset="0.0" stop-color="#000f2e"/>
      <stop offset="0.11764705882352941" stop-color="#001236"/>
      <stop offset="0.2980392156862745" stop-color="#01194b"/>
      <stop offset="0.5215686274509804" stop-color="#02256f"/>
      <stop offset="0.7725490196078432" stop-color="#03369f"/>
      <stop offset="1.0" stop-color="#0547d1"/>
    </radialGradient>
  </defs>
</svg>
