<?xml version="1.0" encoding="UTF-8" standalone="no"?>
<svg xmlns:ffdec="https://www.free-decompiler.com/flash" xmlns:xlink="http://www.w3.org/1999/xlink" ffdec:objectType="shape" height="13.7px" width="20.4px" xmlns="http://www.w3.org/2000/svg">
  <g transform="matrix(1.0, 0.0, 0.0, 1.0, -7.95, -4.75)">
    <path d="M25.3 10.4 Q27.15 12.05 27.9 13.6 28.65 15.2 28.15 16.4 27.3 18.35 23.9 18.35 L21.1 18.05 18.9 18.45 Q17.0 18.45 15.45 17.4 13.85 16.35 13.0 14.6 10.15 12.65 8.85 10.6 7.5 8.55 8.2 7.0 9.0 5.05 12.4 5.05 L15.85 5.55 Q17.35 4.75 18.9 4.75 21.25 4.75 23.05 6.35 24.85 7.95 25.3 10.4 M12.6 8.5 Q12.5 8.85 12.7 9.45 L13.35 7.95 Q12.8 8.15 12.6 8.5 M24.35 15.3 Q25.4 15.15 25.6 14.65 25.85 14.1 25.2 13.2 L24.35 15.3" fill="#182a47" fill-rule="evenodd" stroke="none"/>
    <path d="M24.95 11.6 Q24.95 14.25 23.2 16.1 21.4 17.95 18.9 17.95 16.35 17.95 14.6 16.1 12.8 14.25 12.8 11.6 12.8 8.95 14.6 7.1 16.35 5.2 18.9 5.2 21.4 5.2 23.2 7.1 24.95 8.95 24.95 11.6" fill="url(#gradient0)" fill-rule="evenodd" stroke="none"/>
    <path d="M19.5 6.05 L19.55 5.25 Q21.85 5.55 23.4 7.35 24.95 9.15 24.95 11.6 24.95 14.25 23.2 16.1 21.4 17.95 18.9 17.95 16.35 17.95 14.6 16.1 12.8 14.25 12.8 11.6 L13.05 9.75 13.35 9.65 14.1 9.05 13.05 10.85 15.25 9.15 14.7 10.9 14.55 12.6 15.4 12.6 16.8 13.5 17.2 14.7 17.75 16.0 19.2 16.0 20.15 15.05 19.0 14.4 18.95 13.85 19.15 12.9 20.4 13.9 20.9 13.65 20.65 13.0 20.7 12.8 23.2 12.75 23.6 12.2 23.45 10.9 22.5 10.45 22.2 10.55 20.1 11.35 19.15 11.45 18.7 9.6 19.3 8.25 20.1 8.75 21.3 8.75 21.6 7.8 20.85 6.7 20.1 6.55 19.5 6.05" fill="url(#gradient1)" fill-rule="evenodd" stroke="none"/>
    <path d="M23.45 11.0 L23.65 11.05 23.8 12.35 23.45 12.9 20.95 12.95 20.9 13.2 21.1 13.85 20.6 14.05 20.4 13.9 20.9 13.65 20.65 13.0 20.7 12.8 23.2 12.75 23.6 12.2 23.45 11.0" fill="#0542a4" fill-rule="evenodd" stroke="none"/>
    <path d="M19.8 5.45 L19.75 6.25 19.5 6.05 19.55 5.25 Q21.3 5.5 22.65 6.6 21.4 5.65 19.8 5.45" fill="#0542a4" fill-rule="evenodd" stroke="none"/>
    <path d="M18.7 9.6 L19.3 8.25 20.1 8.75 21.3 8.75 21.6 7.8 20.95 6.85 21.05 6.85 21.85 8.0 21.5 8.95 20.35 8.95 19.5 8.4 18.95 9.75 19.35 11.4 19.15 11.45 18.7 9.6" fill="#0542a4" fill-rule="evenodd" stroke="none"/>
    <path d="M19.15 12.9 L19.4 13.1 19.15 14.0 19.2 14.5 19.0 14.4 18.95 13.85 19.15 12.9" fill="#0542a4" fill-rule="evenodd" stroke="none"/>
    <path d="M13.3 11.0 L13.65 10.4 15.25 9.15 15.1 9.65 13.3 11.0" fill="#0542a4" fill-rule="evenodd" stroke="none"/>
    <path d="M13.6 9.8 L13.3 9.9 13.1 10.8 13.05 10.85 13.1 10.85 13.05 11.75 Q13.05 13.2 13.65 14.5 14.2 15.8 15.25 16.7 14.1 15.8 13.5 14.5 12.8 13.15 12.8 11.6 L13.05 9.75 13.35 9.65 14.1 9.05 13.75 9.65 13.6 9.8" fill="#0542a4" fill-rule="evenodd" stroke="none"/>
    <path d="M17.95 16.15 L17.85 16.0 19.2 16.0 20.15 15.1 20.4 15.2 19.45 16.15 17.95 16.15" fill="#0542a4" fill-rule="evenodd" stroke="none"/>
    <path d="M8.6 7.2 Q9.1 5.9 11.2 5.6 L15.95 6.0 Q15.05 6.55 14.4 7.35 12.6 7.4 12.2 8.3 11.75 9.45 13.4 11.2 15.1 12.95 17.95 14.3 20.8 15.65 23.2 15.8 25.55 15.95 26.0 14.85 26.45 13.75 24.9 12.1 L24.95 11.6 24.85 10.65 Q26.65 12.15 27.4 13.6 28.2 15.15 27.7 16.25 26.95 17.95 23.65 17.9 20.3 17.8 16.35 15.9 12.4 14.05 10.1 11.5 7.85 8.95 8.6 7.2" fill="url(#gradient2)" fill-rule="evenodd" stroke="none"/>
    <path d="M13.75 6.85 L12.35 6.8 Q10.9 7.0 10.85 8.6 10.8 11.55 17.95 14.9 21.45 16.6 24.75 16.3 28.55 15.95 25.7 12.3 28.9 15.45 26.1 16.6 23.4 17.75 18.6 15.75 14.35 14.0 12.2 11.85 10.4 10.1 10.4 8.5 10.4 7.2 11.55 6.8 L13.75 6.85" fill="url(#gradient3)" fill-rule="evenodd" stroke="none"/>
  </g>
  <defs>
    <radialGradient cx="0" cy="0" gradientTransform="matrix(0.0091, 0.0, 0.0, -0.0096, 17.1, 9.85)" gradientUnits="userSpaceOnUse" id="gradient0" r="819.2" spreadMethod="pad">
      <stop offset="0.0" stop-color="#f4ffe6"/>
      <stop offset="0.2235294117647059" stop-color="#b4ff51"/>
      <stop offset="0.6901960784313725" stop-color="#00733b"/>
      <stop offset="1.0" stop-color="#77a695"/>
    </radialGradient>
    <radialGradient cx="0" cy="0" gradientTransform="matrix(0.0108, 0.0, 0.0, -0.0114, 17.0, 10.1)" gradientUnits="userSpaceOnUse" id="gradient1" r="819.2" spreadMethod="pad">
      <stop offset="0.0" stop-color="#70e9ff"/>
      <stop offset="0.5019607843137255" stop-color="#1256af"/>
      <stop offset="0.7333333333333333" stop-color="#032c6e"/>
      <stop offset="1.0" stop-color="#6995db"/>
    </radialGradient>
    <linearGradient gradientTransform="matrix(0.0119, 0.0, 0.0, -0.0119, 18.15, 11.7)" gradientUnits="userSpaceOnUse" id="gradient2" spreadMethod="pad" x1="-819.2" x2="819.2">
      <stop offset="0.0" stop-color="#d7f2e7"/>
      <stop offset="1.0" stop-color="#2e5566"/>
    </linearGradient>
    <linearGradient gradientTransform="matrix(0.0103, 0.0, 0.0, -0.0103, 15.55, 11.8)" gradientUnits="userSpaceOnUse" id="gradient3" spreadMethod="pad" x1="-819.2" x2="819.2">
      <stop offset="0.0" stop-color="#d7f2e7"/>
      <stop offset="1.0" stop-color="#2e5566"/>
    </linearGradient>
  </defs>
</svg>
