<?xml version="1.0" encoding="UTF-8" standalone="no"?>
<svg xmlns:ffdec="https://www.free-decompiler.com/flash" xmlns:xlink="http://www.w3.org/1999/xlink" ffdec:objectType="shape" height="24.1px" width="33.3px" xmlns="http://www.w3.org/2000/svg">
  <g transform="matrix(1.0, 0.0, 0.0, 1.0, 0.0, 0.0)">
    <path d="M25.45 0.9 Q31.3 2.8 32.85 7.35 34.4 11.95 30.75 16.55 27.1 21.15 20.4 23.1 13.7 25.05 7.85 23.2 2.0 21.35 0.45 16.75 -1.1 12.15 2.55 7.55 6.2 2.95 12.9 1.0 19.6 -0.95 25.45 0.9" fill="url(#gradient0)" fill-rule="evenodd" stroke="none"/>
    <path d="M29.45 15.35 Q26.15 19.25 20.15 21.2 14.1 23.15 8.9 22.0 3.7 20.85 2.35 17.25 1.0 13.65 4.3 9.7 7.6 5.8 13.6 3.85 19.65 1.9 24.85 3.05 30.05 4.2 31.4 7.8 32.75 11.4 29.45 15.35" fill="#515a60" fill-rule="evenodd" stroke="none"/>
    <path d="M29.0 16.05 Q25.85 19.6 20.15 21.45 14.5 23.3 9.65 22.3 4.75 21.3 3.55 18.05 2.3 14.8 5.45 11.2 8.6 7.6 14.3 5.75 20.0 3.95 24.85 4.95 29.75 5.95 30.95 9.2 32.15 12.45 29.0 16.05" fill="url(#gradient1)" fill-rule="evenodd" stroke="none"/>
    <path d="M28.6 15.7 Q31.5 12.4 30.5 9.5 29.5 6.4 24.75 5.45 L21.4 5.1 Q17.0 5.1 12.65 6.9 8.35 8.7 5.85 11.55 2.95 14.85 3.95 17.75 5.05 20.9 9.75 21.8 L13.05 22.15 Q17.45 22.15 21.8 20.35 26.15 18.55 28.6 15.7 M30.95 9.2 Q32.15 12.45 29.0 16.05 26.4 19.0 21.9 20.85 17.45 22.65 13.05 22.65 L9.65 22.3 Q4.75 21.3 3.55 18.05 2.3 14.8 5.45 11.2 8.05 8.25 12.55 6.4 16.95 4.6 21.4 4.6 L24.85 4.95 Q29.75 5.95 30.95 9.2" fill="#0068ff" fill-rule="evenodd" stroke="none"/>
  </g>
  <defs>
    <linearGradient gradientTransform="matrix(0.0199, -0.005, 0.0064, 0.0245, 16.65, 12.05)" gradientUnits="userSpaceOnUse" id="gradient0" spreadMethod="pad" x1="-819.2" x2="819.2">
      <stop offset="0.0" stop-color="#737375"/>
      <stop offset="1.0" stop-color="#abb1b2"/>
    </linearGradient>
    <linearGradient gradientTransform="matrix(9.0E-4, 0.0106, -0.0106, 9.0E-4, 17.25, 13.6)" gradientUnits="userSpaceOnUse" id="gradient1" spreadMethod="pad" x1="-819.2" x2="819.2">
      <stop offset="0.0" stop-color="#0547d1"/>
      <stop offset="0.22745098039215686" stop-color="#03369f"/>
      <stop offset="0.47843137254901963" stop-color="#02256f"/>
      <stop offset="0.7019607843137254" stop-color="#01194b"/>
      <stop offset="0.8823529411764706" stop-color="#001236"/>
      <stop offset="1.0" stop-color="#000f2e"/>
    </linearGradient>
  </defs>
</svg>
