<?xml version="1.0" encoding="UTF-8" standalone="no"?>
<svg xmlns:ffdec="https://www.free-decompiler.com/flash" xmlns:xlink="http://www.w3.org/1999/xlink" ffdec:objectType="shape" height="24.8px" width="37.6px" xmlns="http://www.w3.org/2000/svg">
  <g transform="matrix(1.0, 0.0, 0.0, 1.0, 0.0, 0.0)">
    <path d="M23.15 22.8 Q17.75 24.8 12.8 24.8 8.4 24.8 5.4 23.3 2.4 21.75 1.4 19.1 0.55 16.85 1.3 14.4 0.0 13.25 0.0 11.6 0.0 10.05 1.1 9.0 2.15 7.9 3.65 7.9 4.55 7.9 5.25 8.25 9.3 4.3 15.4 2.0 20.8 0.0 25.75 0.0 30.1 0.0 33.15 1.55 36.2 3.05 37.15 5.75 38.75 10.05 34.65 15.05 30.55 20.05 23.15 22.8 M32.25 13.95 Q35.95 9.85 34.75 6.65 34.05 4.75 31.65 3.65 29.3 2.6 25.75 2.6 21.25 2.6 16.3 4.45 10.7 6.5 7.05 10.1 L7.35 11.6 Q7.35 13.1 6.3 14.2 5.25 15.25 3.75 15.25 3.3 16.75 3.8 18.2 4.5 20.1 6.9 21.15 9.3 22.2 12.8 22.2 17.45 22.2 22.25 20.4 28.5 18.05 32.25 13.95" fill="#000000" fill-rule="evenodd" stroke="none"/>
    <path d="M22.55 21.2 Q29.25 18.7 33.1 14.35 36.9 10.0 35.55 6.35 34.75 4.2 32.15 2.95 29.55 1.75 25.75 1.75 21.0 1.75 16.0 3.65 9.8 5.95 5.95 9.95 6.5 10.65 6.5 11.6 6.5 12.75 5.7 13.6 4.85 14.4 3.65 14.4 L3.1 14.35 Q2.3 16.7 3.0 18.5 3.8 20.65 6.4 21.85 9.0 23.1 12.8 23.1 17.55 23.1 22.55 21.2 M36.35 6.05 Q37.85 10.0 33.9 14.7 29.9 19.35 22.85 22.0 17.55 23.95 12.8 23.95 8.75 23.95 5.9 22.6 3.1 21.2 2.2 18.8 1.4 16.65 2.35 14.05 0.85 13.2 0.85 11.6 0.85 10.4 1.65 9.6 2.5 8.75 3.65 8.75 4.55 8.75 5.4 9.35 9.35 5.15 15.7 2.8 20.85 0.9 25.75 0.9 29.85 0.9 32.65 2.25 35.45 3.6 36.35 6.05" fill="#000000" fill-rule="evenodd" stroke="none"/>
    <path d="M29.15 4.05 Q30.05 4.95 30.05 6.25 L29.85 7.35 30.35 8.3 Q31.4 11.1 28.95 14.2 26.45 17.3 21.75 19.05 18.6 20.25 15.45 20.25 12.7 20.25 10.8 19.25 8.9 18.3 8.2 16.55 7.4 14.4 8.7 12.0 10.0 9.6 12.95 7.7 13.55 6.0 15.05 4.95 16.5 3.9 18.35 3.9 19.95 3.9 21.25 4.7 L23.1 4.55 24.3 4.6 Q25.2 3.15 26.95 3.15 28.25 3.15 29.15 4.05 M24.05 9.6 Q24.05 11.95 22.4 13.65 20.7 15.3 18.35 15.3 16.4 15.3 14.85 14.1 13.3 12.9 12.8 11.05 11.5 12.25 10.9 13.5 10.3 14.7 10.65 15.65 11.0 16.6 12.3 17.1 L15.45 17.65 Q18.1 17.65 20.85 16.6 24.55 15.25 26.6 12.95 28.5 10.85 27.9 9.2 L26.95 9.35 Q25.95 9.35 25.1 8.75 24.3 8.15 24.0 7.2 L23.5 7.15 Q24.05 8.35 24.05 9.6" fill="#000000" fill-rule="evenodd" stroke="none"/>
    <path d="M24.7 6.4 L23.1 6.3 21.9 6.35 Q23.15 7.7 23.15 9.6 23.15 11.6 21.75 13.0 20.35 14.45 18.35 14.45 16.35 14.45 14.9 13.0 13.5 11.6 13.5 9.6 L13.5 9.4 Q11.35 10.95 10.35 12.7 9.3 14.5 9.85 15.95 10.3 17.15 11.8 17.85 13.3 18.55 15.45 18.55 18.1 18.55 21.15 17.45 25.05 16.0 27.25 13.5 29.5 10.95 28.7 8.9 L28.2 8.05 Q27.65 8.45 26.95 8.45 26.05 8.45 25.4 7.85 24.8 7.25 24.7 6.4 M26.95 4.0 Q27.85 4.0 28.5 4.65 29.15 5.3 29.15 6.25 29.15 6.95 28.8 7.45 L29.5 8.6 Q30.45 11.05 28.1 13.85 25.75 16.65 21.45 18.25 18.3 19.4 15.45 19.4 13.0 19.4 11.25 18.55 9.55 17.7 9.0 16.25 8.3 14.35 9.65 12.15 10.9 10.0 13.7 8.25 14.1 6.75 15.4 5.75 16.7 4.75 18.35 4.75 19.8 4.75 21.05 5.6 L23.1 5.45 24.8 5.55 Q25.3 4.0 26.95 4.0" fill="#000000" fill-rule="evenodd" stroke="none"/>
  </g>
</svg>
