<?xml version="1.0" encoding="UTF-8" standalone="no"?>
<svg xmlns:ffdec="https://www.free-decompiler.com/flash" xmlns:xlink="http://www.w3.org/1999/xlink" ffdec:objectType="shape" height="15.2px" width="23.0px" xmlns="http://www.w3.org/2000/svg">
  <g transform="matrix(1.0, 0.0, 0.0, 1.0, -5.2, -5.5)">
    <path d="M7.4 10.35 L8.4 10.55 Q10.9 8.15 14.6 6.75 17.9 5.5 20.95 5.5 23.6 5.5 25.5 6.45 27.35 7.4 27.95 9.05 28.9 11.65 26.4 14.75 23.9 17.8 19.35 19.5 16.05 20.7 13.0 20.7 10.35 20.7 8.5 19.8 6.65 18.85 6.05 17.2 5.5 15.85 6.0 14.35 5.2 13.65 5.2 12.6 5.2 11.65 5.85 11.0 6.5 10.35 7.4 10.35 M9.4 18.45 Q10.9 19.1 13.0 19.1 15.85 19.1 18.8 18.0 22.65 16.55 24.95 14.05 27.2 11.55 26.45 9.6 26.05 8.4 24.55 7.75 23.15 7.1 20.95 7.1 18.2 7.1 15.15 8.25 11.75 9.5 9.5 11.7 L9.7 12.6 Q9.7 13.55 9.05 14.2 8.4 14.85 7.5 14.85 7.2 15.75 7.5 16.65 7.95 17.8 9.4 18.45" fill="#182a47" fill-rule="evenodd" stroke="none"/>
    <path d="M9.15 12.6 Q9.15 13.3 8.65 13.85 8.15 14.35 7.4 14.35 L7.1 14.3 Q6.6 15.75 7.0 16.85 7.5 18.15 9.1 18.9 10.7 19.65 13.0 19.65 15.95 19.65 19.0 18.5 23.1 16.95 25.45 14.3 27.8 11.65 26.95 9.4 26.45 8.1 24.85 7.3 23.3 6.6 20.95 6.6 18.05 6.6 15.0 7.75 11.2 9.15 8.85 11.6 L9.15 12.6 M7.4 10.85 Q7.95 10.85 8.5 11.25 10.9 8.65 14.8 7.25 17.95 6.05 20.95 6.05 23.45 6.05 25.2 6.9 26.9 7.7 27.45 9.2 28.35 11.65 25.95 14.5 23.5 17.35 19.2 19.0 15.95 20.2 13.0 20.2 10.55 20.2 8.8 19.35 7.1 18.5 6.55 17.05 6.05 15.7 6.6 14.1 5.7 13.6 5.7 12.6 5.7 11.9 6.2 11.4 6.7 10.85 7.4 10.85" fill="url(#gradient0)" fill-rule="evenodd" stroke="none"/>
    <path d="M14.4 8.55 Q15.3 7.9 16.4 7.9 17.4 7.9 18.2 8.4 L19.35 8.3 20.05 8.35 Q20.6 7.45 21.7 7.45 22.5 7.45 23.05 8.0 23.6 8.55 23.6 9.35 L23.45 10.0 23.75 10.6 Q24.4 12.3 22.9 14.2 21.4 16.1 18.5 17.2 16.55 17.9 14.65 17.9 12.95 17.9 11.8 17.3 10.65 16.7 10.2 15.65 9.7 14.35 10.5 12.85 11.3 11.4 13.1 10.25 13.5 9.2 14.4 8.55 M14.65 16.3 Q16.25 16.3 17.95 15.7 20.2 14.85 21.45 13.45 22.65 12.15 22.25 11.15 L21.7 11.25 Q21.05 11.25 20.55 10.85 20.05 10.5 19.9 9.9 L19.55 9.9 19.9 11.4 Q19.9 12.85 18.9 13.85 17.85 14.9 16.4 14.9 15.25 14.9 14.3 14.15 13.35 13.4 13.0 12.3 12.2 13.0 11.85 13.8 11.5 14.5 11.7 15.1 11.9 15.7 12.7 16.0 L14.65 16.3" fill="#182a47" fill-rule="evenodd" stroke="none"/>
    <path d="M13.45 11.4 L13.45 11.25 Q12.15 12.2 11.5 13.3 10.9 14.4 11.2 15.3 11.5 16.0 12.4 16.45 L14.65 16.85 Q16.25 16.85 18.15 16.2 20.5 15.3 21.85 13.8 23.25 12.2 22.75 10.95 L22.45 10.45 21.7 10.7 Q21.15 10.7 20.75 10.3 20.35 9.95 20.3 9.45 L19.35 9.35 18.6 9.4 Q19.35 10.25 19.35 11.4 19.35 12.6 18.5 13.45 17.65 14.35 16.4 14.35 15.2 14.35 14.3 13.45 13.45 12.6 13.45 11.4 M13.55 10.55 Q13.8 9.65 14.6 9.05 15.4 8.4 16.4 8.4 17.3 8.4 18.05 8.95 L19.35 8.85 20.35 8.9 20.85 8.25 Q21.25 7.95 21.7 7.95 22.25 7.95 22.65 8.35 23.05 8.75 23.05 9.35 L22.8 10.1 23.25 10.8 Q23.85 12.3 22.4 14.0 20.95 15.7 18.3 16.7 16.4 17.4 14.65 17.4 13.15 17.4 12.05 16.85 11.05 16.35 10.7 15.45 10.25 14.3 11.1 12.95 11.85 11.65 13.55 10.55" fill="url(#gradient1)" fill-rule="evenodd" stroke="none"/>
    <path d="M8.5 11.95 Q6.2 14.6 7.0 16.85 7.5 18.15 9.1 18.9 10.7 19.65 13.0 19.65 15.95 19.65 19.0 18.5 23.1 16.95 25.45 14.3 27.8 11.65 26.95 9.4 26.45 8.1 24.85 7.3 23.3 6.6 20.95 6.6 18.05 6.6 15.0 7.75 10.85 9.25 8.5 11.95 M6.55 17.05 Q5.6 14.6 8.05 11.75 10.45 8.85 14.8 7.25 17.95 6.05 20.95 6.05 23.45 6.05 25.2 6.9 26.9 7.7 27.45 9.2 28.35 11.65 25.95 14.5 23.5 17.35 19.2 19.0 15.95 20.2 13.0 20.2 10.55 20.2 8.8 19.35 7.1 18.5 6.55 17.05" fill="#70e9ff" fill-rule="evenodd" stroke="none"/>
    <path d="M12.1 12.45 Q10.7 14.0 11.2 15.3 11.5 16.0 12.4 16.45 L14.65 16.85 Q16.25 16.85 18.15 16.2 20.5 15.3 21.85 13.8 23.25 12.2 22.75 10.95 22.5 10.2 21.55 9.8 20.7 9.35 19.35 9.35 17.6 9.35 15.85 10.05 13.45 10.95 12.1 12.45 M15.65 9.55 Q17.5 8.85 19.35 8.85 20.85 8.85 21.9 9.35 22.95 9.85 23.25 10.8 23.85 12.3 22.4 14.0 20.95 15.7 18.3 16.7 16.4 17.4 14.65 17.4 13.15 17.4 12.05 16.85 11.05 16.35 10.7 15.45 10.15 13.95 11.6 12.25 13.0 10.55 15.65 9.55" fill="#70e9ff" fill-rule="evenodd" stroke="none"/>
    <path d="M23.05 9.35 Q23.05 9.9 22.65 10.3 22.25 10.7 21.7 10.7 21.1 10.7 20.7 10.3 20.3 9.9 20.3 9.35 20.3 8.75 20.7 8.35 21.1 7.95 21.7 7.95 22.25 7.95 22.65 8.35 23.05 8.75 23.05 9.35" fill="url(#gradient2)" fill-rule="evenodd" stroke="none"/>
    <path d="M9.15 12.6 Q9.15 13.3 8.65 13.85 8.15 14.35 7.4 14.35 6.7 14.35 6.2 13.85 5.7 13.3 5.7 12.6 5.7 11.9 6.2 11.4 6.7 10.85 7.4 10.85 8.15 10.85 8.65 11.4 9.15 11.9 9.15 12.6" fill="url(#gradient3)" fill-rule="evenodd" stroke="none"/>
    <path d="M19.35 11.4 Q19.35 12.6 18.5 13.45 17.65 14.35 16.4 14.35 15.2 14.35 14.3 13.45 13.45 12.6 13.45 11.4 13.45 10.15 14.3 9.3 15.2 8.4 16.4 8.4 17.65 8.4 18.5 9.3 19.35 10.15 19.35 11.4" fill="url(#gradient4)" fill-rule="evenodd" stroke="none"/>
  </g>
  <defs>
    <radialGradient cx="0" cy="0" gradientTransform="matrix(0.0135, 0.0, 0.0, -0.0135, 14.75, 11.85)" gradientUnits="userSpaceOnUse" id="gradient0" r="819.2" spreadMethod="pad">
      <stop offset="0.0" stop-color="#fffbd9"/>
      <stop offset="0.21176470588235294" stop-color="#ffe600"/>
      <stop offset="0.6901960784313725" stop-color="#942c00"/>
      <stop offset="1.0" stop-color="#a6778b"/>
    </radialGradient>
    <radialGradient cx="0" cy="0" gradientTransform="matrix(0.0082, 0.0, 0.0, -0.0082, 15.85, 11.8)" gradientUnits="userSpaceOnUse" id="gradient1" r="819.2" spreadMethod="pad">
      <stop offset="0.0" stop-color="#fffbd9"/>
      <stop offset="0.21176470588235294" stop-color="#ffe600"/>
      <stop offset="0.6901960784313725" stop-color="#942c00"/>
      <stop offset="1.0" stop-color="#a6778b"/>
    </radialGradient>
    <radialGradient cx="0" cy="0" gradientTransform="matrix(0.0026, 0.0, 0.0, -0.0026, 21.45, 9.1)" gradientUnits="userSpaceOnUse" id="gradient2" r="819.2" spreadMethod="pad">
      <stop offset="0.0" stop-color="#f4ffe6"/>
      <stop offset="0.2235294117647059" stop-color="#b4ff51"/>
      <stop offset="0.6901960784313725" stop-color="#00733b"/>
      <stop offset="1.0" stop-color="#77a695"/>
    </radialGradient>
    <radialGradient cx="0" cy="0" gradientTransform="matrix(0.0025, 0.0, 0.0, -0.0025, 7.1, 12.25)" gradientUnits="userSpaceOnUse" id="gradient3" r="819.2" spreadMethod="pad">
      <stop offset="0.0" stop-color="#fd73ff"/>
      <stop offset="0.6901960784313725" stop-color="#400094"/>
      <stop offset="0.7411764705882353" stop-color="#440594"/>
      <stop offset="0.8" stop-color="#511495"/>
      <stop offset="0.8666666666666667" stop-color="#662d97"/>
      <stop offset="0.9333333333333333" stop-color="#834e99"/>
      <stop offset="1.0" stop-color="#a6779c"/>
    </radialGradient>
    <radialGradient cx="0" cy="0" gradientTransform="matrix(0.0043, 0.0, 0.0, -0.0043, 15.85, 10.85)" gradientUnits="userSpaceOnUse" id="gradient4" r="819.2" spreadMethod="pad">
      <stop offset="0.0" stop-color="#fffbd9"/>
      <stop offset="0.21176470588235294" stop-color="#ffe600"/>
      <stop offset="0.6901960784313725" stop-color="#942c00"/>
      <stop offset="1.0" stop-color="#a6778b"/>
    </radialGradient>
  </defs>
</svg>
