<?xml version="1.0" encoding="UTF-8" standalone="no"?>
<svg xmlns:ffdec="https://www.free-decompiler.com/flash" xmlns:xlink="http://www.w3.org/1999/xlink" ffdec:objectType="shape" height="24.1px" width="33.3px" xmlns="http://www.w3.org/2000/svg">
  <g transform="matrix(1.0, 0.0, 0.0, 1.0, 0.0, 0.0)">
    <path d="M12.9 1.0 Q19.6 -0.95 25.45 0.9 31.3 2.75 32.85 7.35 34.4 11.95 30.75 16.55 27.1 21.15 20.4 23.1 13.7 25.05 7.85 23.2 2.0 21.35 0.45 16.75 -1.1 12.15 2.55 7.55 6.2 2.95 12.9 1.0" fill="url(#gradient0)" fill-rule="evenodd" stroke="none"/>
    <path d="M29.45 15.3 Q26.15 19.25 20.15 21.2 14.1 23.1 8.9 21.95 3.7 20.8 2.35 17.2 1.0 13.6 4.3 9.7 7.6 5.8 13.6 3.85 19.65 1.9 24.85 3.05 30.05 4.2 31.4 7.8 32.75 11.4 29.45 15.3" fill="#515a60" fill-rule="evenodd" stroke="none"/>
    <path d="M30.95 9.2 Q32.15 12.45 29.0 16.0 25.85 19.6 20.2 21.45 14.55 23.3 9.65 22.3 4.75 21.3 3.55 18.05 2.3 14.8 5.45 11.2 8.6 7.6 14.3 5.75 20.0 3.95 24.85 4.95 29.7 5.95 30.95 9.2" fill="url(#gradient1)" fill-rule="evenodd" stroke="none"/>
    <path d="M21.4 4.6 L24.85 4.95 Q29.7 5.95 30.95 9.2 32.15 12.45 29.0 16.0 26.4 18.95 21.9 20.8 17.5 22.6 13.05 22.6 L9.65 22.3 Q4.75 21.3 3.55 18.05 2.3 14.8 5.45 11.2 8.05 8.25 12.55 6.4 16.95 4.6 21.4 4.6 M24.75 5.4 L21.4 5.1 Q17.0 5.1 12.65 6.9 8.35 8.7 5.85 11.5 3.0 14.8 3.95 17.7 5.05 20.8 9.75 21.8 L13.05 22.1 Q17.45 22.1 21.8 20.3 26.1 18.5 28.6 15.7 31.5 12.4 30.5 9.5 29.5 6.4 24.75 5.4" fill="#00aaff" fill-rule="evenodd" stroke="none"/>
  </g>
  <defs>
    <linearGradient gradientTransform="matrix(0.0199, -0.005, 0.0064, 0.0245, 16.65, 12.05)" gradientUnits="userSpaceOnUse" id="gradient0" spreadMethod="pad" x1="-819.2" x2="819.2">
      <stop offset="0.0" stop-color="#737375"/>
      <stop offset="1.0" stop-color="#abb1b2"/>
    </linearGradient>
    <radialGradient cx="0" cy="0" gradientTransform="matrix(-0.0143, 0.0012, -0.0012, -0.0143, 17.25, 13.6)" gradientUnits="userSpaceOnUse" id="gradient1" r="819.2" spreadMethod="pad">
      <stop offset="0.0" stop-color="#000f2e"/>
      <stop offset="0.11764705882352941" stop-color="#001236"/>
      <stop offset="0.2980392156862745" stop-color="#01194b"/>
      <stop offset="0.5215686274509804" stop-color="#02256f"/>
      <stop offset="0.7725490196078432" stop-color="#03369f"/>
      <stop offset="1.0" stop-color="#0547d1"/>
    </radialGradient>
  </defs>
</svg>
