<?xml version="1.0" encoding="UTF-8" standalone="no"?>
<svg xmlns:ffdec="https://www.free-decompiler.com/flash" xmlns:xlink="http://www.w3.org/1999/xlink" ffdec:objectType="shape" height="21.7px" width="29.95px" xmlns="http://www.w3.org/2000/svg">
  <g transform="matrix(1.0, 0.0, 0.0, 1.0, -1.7, -1.2)">
    <path d="M13.3 2.1 Q19.3 0.35 24.6 2.0 29.85 3.65 31.25 7.8 32.65 11.95 29.35 16.1 26.05 20.25 20.05 22.0 14.0 23.75 8.75 22.1 3.45 20.4 2.1 16.25 0.7 12.15 3.95 8.0 7.25 3.85 13.3 2.1" fill="url(#gradient0)" fill-rule="evenodd" stroke="none"/>
    <path d="M28.2 14.95 Q25.2 18.5 19.8 20.3 14.35 22.0 9.7 20.95 5.0 19.9 3.8 16.7 2.55 13.45 5.55 9.95 8.5 6.4 13.9 4.65 19.35 2.9 24.05 3.95 28.7 5.0 29.95 8.2 31.15 11.45 28.2 14.95" fill="#515a60" fill-rule="evenodd" stroke="none"/>
    <path d="M27.75 15.6 Q24.95 18.85 19.85 20.5 14.75 22.15 10.35 21.25 5.95 20.35 4.85 17.45 3.75 14.5 6.6 11.3 9.4 8.05 14.55 6.35 19.65 4.75 24.05 5.65 28.4 6.55 29.55 9.5 30.6 12.4 27.75 15.6" fill="url(#gradient1)" fill-rule="evenodd" stroke="none"/>
    <path d="M23.95 6.05 L20.95 5.8 Q16.95 5.8 13.05 7.4 9.2 9.05 6.95 11.55 4.35 14.5 5.25 17.15 6.2 19.9 10.45 20.8 L13.4 21.1 Q17.4 21.1 21.3 19.45 25.15 17.85 27.4 15.35 30.0 12.35 29.1 9.75 28.2 6.95 23.95 6.05 M20.95 5.35 L24.05 5.65 Q28.4 6.55 29.55 9.5 30.6 12.4 27.75 15.6 25.45 18.25 21.4 19.9 17.4 21.55 13.4 21.55 L10.35 21.25 Q5.95 20.35 4.85 17.45 3.75 14.5 6.6 11.3 8.9 8.6 12.95 6.95 16.95 5.35 20.95 5.35" fill="#00aaff" fill-rule="evenodd" stroke="none"/>
  </g>
  <defs>
    <linearGradient gradientTransform="matrix(0.0179, -0.0045, 0.0058, 0.0221, 16.65, 12.05)" gradientUnits="userSpaceOnUse" id="gradient0" spreadMethod="pad" x1="-819.2" x2="819.2">
      <stop offset="0.0" stop-color="#737375"/>
      <stop offset="1.0" stop-color="#abb1b2"/>
    </linearGradient>
    <radialGradient cx="0" cy="0" gradientTransform="matrix(-0.0129, 0.0011, -0.0011, -0.0129, 17.2, 13.45)" gradientUnits="userSpaceOnUse" id="gradient1" r="819.2" spreadMethod="pad">
      <stop offset="0.0" stop-color="#000f2e"/>
      <stop offset="0.11764705882352941" stop-color="#001236"/>
      <stop offset="0.2980392156862745" stop-color="#01194b"/>
      <stop offset="0.5215686274509804" stop-color="#02256f"/>
      <stop offset="0.7725490196078432" stop-color="#03369f"/>
      <stop offset="1.0" stop-color="#0547d1"/>
    </radialGradient>
  </defs>
</svg>
