<?xml version="1.0" encoding="UTF-8" standalone="no"?>
<svg xmlns:ffdec="https://www.free-decompiler.com/flash" xmlns:xlink="http://www.w3.org/1999/xlink" ffdec:objectType="shape" height="13.65px" width="20.75px" xmlns="http://www.w3.org/2000/svg">
  <g transform="matrix(1.0, 0.0, 0.0, 1.0, -6.35, -6.3)">
    <path d="M9.25 10.85 Q11.5 8.65 14.85 7.4 17.8 6.3 20.55 6.3 22.95 6.3 24.65 7.15 26.3 8.0 26.85 9.45 27.7 11.85 25.45 14.6 23.2 17.35 19.1 18.85 16.15 19.95 13.4 19.95 11.0 19.95 9.35 19.15 7.7 18.3 7.15 16.85 6.65 15.6 7.1 14.25 6.35 13.6 6.35 12.7 6.35 11.85 6.95 11.25 7.55 10.65 8.35 10.65 L9.25 10.85 M10.15 17.95 Q11.5 18.55 13.4 18.55 16.0 18.55 18.6 17.55 22.05 16.25 24.15 14.0 26.15 11.75 25.5 9.95 25.15 8.9 23.8 8.3 22.5 7.75 20.55 7.75 18.05 7.75 15.35 8.75 12.25 9.9 10.25 11.85 L10.4 12.7 Q10.4 13.5 9.85 14.15 9.25 14.7 8.45 14.7 8.2 15.55 8.45 16.35 8.85 17.4 10.15 17.95" fill="#182a47" fill-rule="evenodd" stroke="none"/>
    <path d="M9.95 12.7 Q9.95 13.35 9.5 13.8 9.05 14.25 8.35 14.25 L8.05 14.2 Q7.65 15.5 8.0 16.5 8.45 17.7 9.9 18.35 11.3 19.05 13.4 19.05 16.05 19.05 18.8 18.0 22.5 16.6 24.6 14.2 26.7 11.8 25.95 9.8 25.5 8.6 24.1 7.9 22.65 7.25 20.55 7.25 17.95 7.25 15.2 8.3 11.75 9.6 9.65 11.8 L9.95 12.7 M7.25 11.6 Q7.75 11.1 8.35 11.1 8.85 11.1 9.35 11.45 11.5 9.15 15.0 7.85 17.85 6.8 20.55 6.8 22.8 6.8 24.35 7.55 25.9 8.3 26.4 9.65 27.2 11.8 25.05 14.4 22.85 16.95 18.95 18.4 16.05 19.5 13.4 19.5 11.2 19.5 9.6 18.75 8.05 18.0 7.55 16.65 7.15 15.5 7.65 14.05 6.85 13.55 6.85 12.7 6.85 12.05 7.25 11.6" fill="url(#gradient0)" fill-rule="evenodd" stroke="none"/>
    <path d="M16.45 8.45 Q17.35 8.45 18.05 8.9 L19.1 8.8 19.75 8.85 Q20.25 8.05 21.2 8.05 21.95 8.05 22.45 8.55 22.9 9.05 22.9 9.75 L22.8 10.35 23.1 10.85 Q23.65 12.4 22.3 14.15 20.95 15.85 18.35 16.8 L14.9 17.45 Q13.35 17.45 12.3 16.9 11.25 16.4 10.9 15.4 10.45 14.25 11.15 12.9 11.85 11.6 13.5 10.55 13.85 9.6 14.65 9.05 15.45 8.45 16.45 8.45 M14.9 16.05 L17.85 15.45 Q19.9 14.7 21.0 13.45 22.05 12.3 21.75 11.35 L21.2 11.45 20.2 11.1 Q19.75 10.8 19.6 10.25 L19.3 10.25 19.6 11.6 Q19.6 12.9 18.7 13.8 17.75 14.75 16.45 14.75 15.4 14.75 14.55 14.05 13.7 13.4 13.4 12.4 12.7 13.05 12.35 13.75 12.05 14.4 12.25 14.9 12.4 15.45 13.15 15.7 L14.9 16.05" fill="#182a47" fill-rule="evenodd" stroke="none"/>
    <path d="M14.85 9.45 Q15.55 8.9 16.45 8.9 17.25 8.9 17.95 9.4 L19.1 9.3 20.05 9.35 20.45 8.75 21.2 8.5 Q21.7 8.5 22.05 8.85 22.45 9.2 22.45 9.75 L22.25 10.4 22.6 11.05 Q23.15 12.4 21.85 13.95 20.55 15.5 18.2 16.35 L14.9 17.0 12.55 16.5 Q11.6 16.05 11.3 15.25 10.95 14.2 11.7 13.0 12.35 11.8 13.9 10.85 14.15 10.0 14.85 9.45 M13.8 11.6 L13.8 11.5 Q12.6 12.35 12.05 13.3 11.5 14.3 11.8 15.1 12.05 15.75 12.85 16.15 L14.9 16.5 18.0 15.9 Q20.15 15.1 21.4 13.75 22.6 12.35 22.2 11.2 L21.9 10.75 21.2 10.95 Q20.7 10.95 20.35 10.65 L19.95 9.85 19.1 9.75 18.45 9.8 Q19.1 10.55 19.1 11.6 19.1 12.7 18.35 13.45 17.6 14.25 16.45 14.25 15.35 14.25 14.55 13.45 13.8 12.7 13.8 11.6" fill="url(#gradient1)" fill-rule="evenodd" stroke="none"/>
    <path d="M7.55 16.65 Q6.75 14.5 8.9 11.9 11.1 9.3 15.0 7.85 17.85 6.8 20.55 6.8 22.8 6.8 24.35 7.55 25.9 8.3 26.4 9.65 27.2 11.8 25.05 14.4 22.85 16.95 18.95 18.4 16.05 19.5 13.4 19.5 11.2 19.5 9.6 18.75 8.05 18.0 7.55 16.65 M9.35 12.1 Q7.25 14.5 8.0 16.5 8.45 17.7 9.9 18.35 11.3 19.05 13.4 19.05 16.05 19.05 18.8 18.0 22.5 16.6 24.6 14.2 26.7 11.8 25.95 9.8 25.5 8.6 24.1 7.9 22.65 7.25 20.55 7.25 17.95 7.25 15.2 8.3 11.45 9.65 9.35 12.1" fill="#70e9ff" fill-rule="evenodd" stroke="none"/>
    <path d="M15.8 9.95 Q17.45 9.3 19.1 9.3 20.45 9.3 21.4 9.75 22.35 10.2 22.6 11.05 23.15 12.4 21.85 13.95 20.55 15.5 18.2 16.35 L14.9 17.0 12.55 16.5 Q11.6 16.05 11.3 15.25 10.85 13.9 12.1 12.35 13.4 10.8 15.8 9.95 M12.6 12.55 Q11.35 13.95 11.8 15.1 12.05 15.75 12.85 16.15 L14.9 16.5 18.0 15.9 Q20.15 15.1 21.4 13.75 22.6 12.35 22.2 11.2 21.95 10.5 21.1 10.15 20.3 9.75 19.1 9.75 17.5 9.75 15.95 10.4 13.8 11.2 12.6 12.55" fill="#70e9ff" fill-rule="evenodd" stroke="none"/>
    <path d="M22.45 9.75 Q22.45 10.25 22.05 10.6 L21.2 10.95 Q20.7 10.95 20.35 10.6 19.95 10.25 19.95 9.75 19.95 9.2 20.35 8.85 20.7 8.5 21.2 8.5 21.7 8.5 22.05 8.85 22.45 9.2 22.45 9.75" fill="url(#gradient2)" fill-rule="evenodd" stroke="none"/>
    <path d="M9.95 12.7 Q9.95 13.35 9.5 13.8 9.05 14.25 8.35 14.25 7.75 14.25 7.25 13.8 6.85 13.35 6.85 12.7 6.85 12.05 7.25 11.6 7.75 11.1 8.35 11.1 9.05 11.1 9.5 11.6 9.95 12.05 9.95 12.7" fill="url(#gradient3)" fill-rule="evenodd" stroke="none"/>
    <path d="M19.1 11.6 Q19.1 12.7 18.35 13.45 17.6 14.25 16.45 14.25 15.35 14.25 14.55 13.45 13.8 12.7 13.8 11.6 13.8 10.5 14.55 9.7 15.35 8.9 16.45 8.9 17.6 8.9 18.35 9.7 19.1 10.5 19.1 11.6" fill="url(#gradient4)" fill-rule="evenodd" stroke="none"/>
  </g>
  <defs>
    <radialGradient cx="0" cy="0" gradientTransform="matrix(0.0121, 0.0, 0.0, -0.0121, 14.95, 12.0)" gradientUnits="userSpaceOnUse" id="gradient0" r="819.2" spreadMethod="pad">
      <stop offset="0.0" stop-color="#fffbd9"/>
      <stop offset="0.21176470588235294" stop-color="#ffe600"/>
      <stop offset="0.6901960784313725" stop-color="#942c00"/>
      <stop offset="1.0" stop-color="#a6778b"/>
    </radialGradient>
    <radialGradient cx="0" cy="0" gradientTransform="matrix(0.0074, 0.0, 0.0, -0.0074, 15.95, 12.0)" gradientUnits="userSpaceOnUse" id="gradient1" r="819.2" spreadMethod="pad">
      <stop offset="0.0" stop-color="#fffbd9"/>
      <stop offset="0.21176470588235294" stop-color="#ffe600"/>
      <stop offset="0.6901960784313725" stop-color="#942c00"/>
      <stop offset="1.0" stop-color="#a6778b"/>
    </radialGradient>
    <radialGradient cx="0" cy="0" gradientTransform="matrix(0.0023, 0.0, 0.0, -0.0023, 21.0, 9.5)" gradientUnits="userSpaceOnUse" id="gradient2" r="819.2" spreadMethod="pad">
      <stop offset="0.0" stop-color="#f4ffe6"/>
      <stop offset="0.2235294117647059" stop-color="#b4ff51"/>
      <stop offset="0.6901960784313725" stop-color="#00733b"/>
      <stop offset="1.0" stop-color="#77a695"/>
    </radialGradient>
    <radialGradient cx="0" cy="0" gradientTransform="matrix(0.0022, 0.0, 0.0, -0.0022, 8.05, 12.35)" gradientUnits="userSpaceOnUse" id="gradient3" r="819.2" spreadMethod="pad">
      <stop offset="0.0" stop-color="#fd73ff"/>
      <stop offset="0.6901960784313725" stop-color="#400094"/>
      <stop offset="0.7411764705882353" stop-color="#440594"/>
      <stop offset="0.8" stop-color="#511495"/>
      <stop offset="0.8666666666666667" stop-color="#662d97"/>
      <stop offset="0.9333333333333333" stop-color="#834e99"/>
      <stop offset="1.0" stop-color="#a6779c"/>
    </radialGradient>
    <radialGradient cx="0" cy="0" gradientTransform="matrix(0.0039, 0.0, 0.0, -0.0039, 16.0, 11.1)" gradientUnits="userSpaceOnUse" id="gradient4" r="819.2" spreadMethod="pad">
      <stop offset="0.0" stop-color="#fffbd9"/>
      <stop offset="0.21176470588235294" stop-color="#ffe600"/>
      <stop offset="0.6901960784313725" stop-color="#942c00"/>
      <stop offset="1.0" stop-color="#a6778b"/>
    </radialGradient>
  </defs>
</svg>
