<?xml version="1.0" encoding="UTF-8" standalone="no"?>
<svg xmlns:ffdec="https://www.free-decompiler.com/flash" xmlns:xlink="http://www.w3.org/1999/xlink" ffdec:objectType="shape" height="18.45px" width="18.55px" xmlns="http://www.w3.org/2000/svg">
  <g transform="matrix(1.0, 0.0, 0.0, 1.0, 0.0, 0.0)">
    <path d="M8.75 1.4 L8.75 1.9 12.25 4.0 12.25 5.65 12.6 5.45 15.85 7.4 15.85 10.35 17.45 11.25 Q18.55 11.9 18.55 12.85 18.55 13.85 17.45 14.5 L11.5 17.95 Q10.6 18.45 9.3 18.45 7.95 18.45 7.05 17.95 L1.1 14.5 Q0.0 13.85 0.0 12.85 0.0 11.9 1.1 11.25 L2.65 10.35 2.65 4.0 4.05 3.2 4.05 1.4 6.4 0.0 8.75 1.4" fill="#133021" fill-rule="evenodd" stroke="none"/>
    <path d="M17.2 14.0 L11.2 17.45 9.3 17.9 Q8.15 17.9 7.35 17.45 L1.4 14.0 Q0.55 13.55 0.55 12.9 0.55 12.2 1.4 11.75 L7.35 8.3 Q8.15 7.85 9.3 7.85 10.4 7.85 11.2 8.3 L17.2 11.75 Q18.0 12.2 18.0 12.9 18.0 13.55 17.2 14.0" fill="#356b47" fill-rule="evenodd" stroke="none"/>
    <path d="M16.3 13.6 L11.0 16.65 9.3 17.1 Q8.25 17.1 7.55 16.65 L2.2 13.6 Q1.5 13.2 1.5 12.6 1.5 12.0 2.2 11.6 L7.55 8.55 Q8.25 8.1 9.3 8.1 10.3 8.1 11.0 8.55 L16.3 11.6 Q17.0 12.0 17.0 12.6 17.0 13.2 16.3 13.6" fill="url(#gradient0)" fill-rule="evenodd" stroke="none"/>
    <path d="M3.2 11.35 L15.3 12.15 15.85 12.85 12.6 14.55 10.2 13.4 7.45 14.9 2.75 11.75 3.2 11.35" fill="#006837" fill-rule="evenodd" stroke="none"/>
    <path d="M7.45 14.3 L3.2 11.8 3.2 4.35 7.45 4.35 7.45 14.3" fill="url(#gradient1)" fill-rule="evenodd" stroke="none"/>
    <path d="M11.7 4.35 L11.7 11.8 7.45 14.3 7.45 4.35 11.7 4.35" fill="url(#gradient2)" fill-rule="evenodd" stroke="none"/>
    <path d="M7.45 6.85 L3.2 4.35 7.45 1.8 11.7 4.35 7.45 6.85" fill="url(#gradient3)" fill-rule="evenodd" stroke="none"/>
    <path d="M12.6 14.3 L9.95 12.7 9.95 7.7 12.6 7.7 12.6 14.3" fill="url(#gradient4)" fill-rule="evenodd" stroke="none"/>
    <path d="M15.3 7.7 L15.3 12.7 12.6 14.3 12.6 7.7 15.3 7.7" fill="url(#gradient5)" fill-rule="evenodd" stroke="none"/>
    <path d="M12.6 9.3 L9.95 7.7 12.6 6.1 15.3 7.7 12.6 9.3" fill="url(#gradient6)" fill-rule="evenodd" stroke="none"/>
    <path d="M4.6 3.7 L7.85 3.15 9.1 3.9 6.85 5.3 4.6 3.7" fill="#b3b3b3" fill-rule="evenodd" stroke="none"/>
    <path d="M6.4 1.75 L6.4 4.75 4.6 3.65 4.6 1.75 6.4 1.75" fill="url(#gradient7)" fill-rule="evenodd" stroke="none"/>
    <path d="M8.2 1.75 L8.2 3.65 6.4 4.75 6.4 1.75 8.2 1.75" fill="url(#gradient8)" fill-rule="evenodd" stroke="none"/>
    <path d="M8.2 1.75 L6.4 2.8 4.6 1.75 6.4 0.65 8.2 1.75" fill="url(#gradient9)" fill-rule="evenodd" stroke="none"/>
    <path d="M3.2 4.35 L7.45 6.45 11.7 4.35 7.65 6.7 7.45 14.4 7.3 6.75 3.2 4.35" fill="#ffffff" fill-rule="evenodd" stroke="none"/>
    <path d="M9.95 7.7 L12.6 9.05 15.3 7.7 12.75 9.2 12.6 14.3 12.5 9.25 9.95 7.7" fill="#ffffff" fill-rule="evenodd" stroke="none"/>
    <path d="M6.55 2.75 L6.4 4.75 6.3 2.75 4.6 1.75 6.4 2.65 8.2 1.75 6.55 2.75" fill="#ffffff" fill-rule="evenodd" stroke="none"/>
  </g>
  <defs>
    <linearGradient gradientTransform="matrix(0.0044, 0.0024, 0.0024, -0.0044, 8.3, 12.05)" gradientUnits="userSpaceOnUse" id="gradient0" spreadMethod="pad" x1="-819.2" x2="819.2">
      <stop offset="0.0" stop-color="#009245"/>
      <stop offset="1.0" stop-color="#8cc63f"/>
    </linearGradient>
    <linearGradient gradientTransform="matrix(0.0026, 0.0, 0.0, -0.0026, 5.3, 9.3)" gradientUnits="userSpaceOnUse" id="gradient1" spreadMethod="pad" x1="-819.2" x2="819.2">
      <stop offset="0.0" stop-color="#999999"/>
      <stop offset="1.0" stop-color="#cccccc"/>
    </linearGradient>
    <linearGradient gradientTransform="matrix(0.0026, 0.0, 0.0, -0.0026, 9.55, 9.3)" gradientUnits="userSpaceOnUse" id="gradient2" spreadMethod="pad" x1="-819.2" x2="819.2">
      <stop offset="0.0" stop-color="#333333"/>
      <stop offset="1.0" stop-color="#999999"/>
    </linearGradient>
    <linearGradient gradientTransform="matrix(0.0052, 0.0, 0.0, -0.0052, 7.45, 4.35)" gradientUnits="userSpaceOnUse" id="gradient3" spreadMethod="pad" x1="-819.2" x2="819.2">
      <stop offset="0.0" stop-color="#cccccc"/>
      <stop offset="1.0" stop-color="#f2f2f2"/>
    </linearGradient>
    <linearGradient gradientTransform="matrix(0.0016, 0.0, 0.0, -0.0016, 11.3, 11.0)" gradientUnits="userSpaceOnUse" id="gradient4" spreadMethod="pad" x1="-819.2" x2="819.2">
      <stop offset="0.0" stop-color="#999999"/>
      <stop offset="1.0" stop-color="#cccccc"/>
    </linearGradient>
    <linearGradient gradientTransform="matrix(0.0016, 0.0, 0.0, -0.0016, 13.95, 11.0)" gradientUnits="userSpaceOnUse" id="gradient5" spreadMethod="pad" x1="-819.2" x2="819.2">
      <stop offset="0.0" stop-color="#333333"/>
      <stop offset="1.0" stop-color="#999999"/>
    </linearGradient>
    <linearGradient gradientTransform="matrix(0.0033, 0.0, 0.0, -0.0033, 12.6, 7.7)" gradientUnits="userSpaceOnUse" id="gradient6" spreadMethod="pad" x1="-819.2" x2="819.2">
      <stop offset="0.0" stop-color="#cccccc"/>
      <stop offset="1.0" stop-color="#f2f2f2"/>
    </linearGradient>
    <linearGradient gradientTransform="matrix(0.0011, 0.0, 0.0, -0.0011, 5.5, 3.25)" gradientUnits="userSpaceOnUse" id="gradient7" spreadMethod="pad" x1="-819.2" x2="819.2">
      <stop offset="0.0" stop-color="#999999"/>
      <stop offset="1.0" stop-color="#cccccc"/>
    </linearGradient>
    <linearGradient gradientTransform="matrix(0.0011, 0.0, 0.0, -0.0011, 7.3, 3.25)" gradientUnits="userSpaceOnUse" id="gradient8" spreadMethod="pad" x1="-819.2" x2="819.2">
      <stop offset="0.0" stop-color="#333333"/>
      <stop offset="1.0" stop-color="#999999"/>
    </linearGradient>
    <linearGradient gradientTransform="matrix(0.0022, 0.0, 0.0, -0.0022, 6.4, 1.75)" gradientUnits="userSpaceOnUse" id="gradient9" spreadMethod="pad" x1="-819.2" x2="819.2">
      <stop offset="0.0" stop-color="#cccccc"/>
      <stop offset="1.0" stop-color="#f2f2f2"/>
    </linearGradient>
  </defs>
</svg>
