<?xml version="1.0" encoding="UTF-8" standalone="no"?>
<svg xmlns:ffdec="https://www.free-decompiler.com/flash" xmlns:xlink="http://www.w3.org/1999/xlink" ffdec:objectType="shape" height="43.2px" width="43.2px" xmlns="http://www.w3.org/2000/svg">
  <g transform="matrix(1.0, 0.0, 0.0, 1.0, 0.0, 0.0)">
    <path d="M21.55 0.0 Q30.55 0.0 36.9 6.3 43.2 12.65 43.2 21.55 43.2 30.5 36.9 36.85 30.55 43.2 21.55 43.2 12.65 43.2 6.3 36.85 0.0 30.5 0.0 21.55 0.0 12.65 6.3 6.3 12.65 0.0 21.55 0.0" fill="url(#gradient0)" fill-rule="evenodd" stroke="none"/>
    <path d="M7.05 36.1 Q1.1 30.15 1.1 21.6 1.1 13.1 7.05 7.15 9.95 4.25 13.75 2.65 17.45 1.15 21.55 1.15 30.1 1.15 36.1 7.15 42.1 13.15 42.1 21.65 42.1 30.15 36.1 36.15 30.0 42.15 21.55 42.15 13.1 42.15 7.05 36.1" fill="url(#gradient1)" fill-rule="evenodd" stroke="none"/>
    <path d="M21.6 4.0 Q28.9 4.0 34.0 9.05 39.15 14.2 39.15 21.45 39.15 28.7 34.0 33.8 28.85 38.95 21.6 38.95 14.4 38.95 9.3 33.8 4.2 28.7 4.2 21.45 4.2 14.2 9.3 9.05 14.35 4.0 21.6 4.0 M21.6 36.15 Q27.75 36.15 32.05 31.85 36.35 27.55 36.35 21.45 36.35 15.35 32.05 11.0 27.75 6.7 21.6 6.7 15.5 6.7 11.2 11.0 6.9 15.3 6.9 21.45 6.9 27.55 11.2 31.85 15.5 36.15 21.6 36.15" fill="#1e1612" fill-rule="evenodd" stroke="none"/>
    <path d="M9.0 29.55 L4.1 32.45 3.75 31.85 8.7 29.0 9.0 29.55" fill="#211c18" fill-rule="evenodd" stroke="none"/>
    <path d="M34.25 29.45 L34.6 28.9 39.4 31.8 39.1 32.4 34.25 29.45" fill="#211c18" fill-rule="evenodd" stroke="none"/>
    <path d="M22.05 1.05 L22.05 6.75 21.4 6.75 21.4 1.05 22.05 1.05" fill="#211c18" fill-rule="evenodd" stroke="none"/>
    <path d="M21.55 37.0 Q15.05 37.0 10.6 32.45 6.0 27.9 6.0 21.45 6.0 15.0 10.6 10.45 15.15 5.85 21.55 5.85 28.0 5.85 32.6 10.45 37.15 15.0 37.15 21.45 37.15 27.9 32.6 32.5 28.05 37.0 21.55 37.0" fill="url(#gradient2)" fill-rule="evenodd" stroke="none"/>
    <path d="M21.55 37.0 Q15.05 37.0 10.6 32.45 6.0 27.9 6.0 21.45 6.0 15.0 10.6 10.45 15.15 5.85 21.55 5.85 28.0 5.85 32.6 10.45 37.15 15.0 37.15 21.45 37.15 27.9 32.6 32.5 28.05 37.0 21.55 37.0 M21.55 6.9 Q15.6 6.9 11.3 11.15 7.05 15.45 7.05 21.45 7.05 27.45 11.3 31.7 15.45 35.95 21.55 35.95 27.65 35.95 31.85 31.75 36.1 27.5 36.1 21.45 36.1 15.45 31.85 11.15 27.6 6.9 21.55 6.9" fill="#0068ff" fill-rule="evenodd" stroke="none"/>
  </g>
  <defs>
    <linearGradient gradientTransform="matrix(0.0, -0.0264, -0.0264, 0.0, 21.55, 21.55)" gradientUnits="userSpaceOnUse" id="gradient0" spreadMethod="pad" x1="-819.2" x2="819.2">
      <stop offset="0.0" stop-color="#1c1c1c"/>
      <stop offset="0.27450980392156865" stop-color="#202020"/>
      <stop offset="0.5450980392156862" stop-color="#2c2c2c"/>
      <stop offset="0.8156862745098039" stop-color="#404040"/>
      <stop offset="1.0" stop-color="#525252"/>
    </linearGradient>
    <linearGradient gradientTransform="matrix(0.0, -0.025, -0.025, 0.0, 21.55, 21.6)" gradientUnits="userSpaceOnUse" id="gradient1" spreadMethod="pad" x1="-819.2" x2="819.2">
      <stop offset="0.0" stop-color="#6a6a6a"/>
      <stop offset="0.403921568627451" stop-color="#242424"/>
      <stop offset="1.0" stop-color="#a3a3a6"/>
    </linearGradient>
    <linearGradient gradientTransform="matrix(0.0, -0.019, -0.019, 0.0, 21.55, 21.45)" gradientUnits="userSpaceOnUse" id="gradient2" spreadMethod="pad" x1="-819.2" x2="819.2">
      <stop offset="0.0" stop-color="#0547d1"/>
      <stop offset="0.22745098039215686" stop-color="#03369f"/>
      <stop offset="0.47843137254901963" stop-color="#02256f"/>
      <stop offset="0.7019607843137254" stop-color="#01194b"/>
      <stop offset="0.8823529411764706" stop-color="#001236"/>
      <stop offset="1.0" stop-color="#000f2e"/>
    </linearGradient>
  </defs>
</svg>
