<?xml version="1.0" encoding="UTF-8" standalone="no"?>
<svg xmlns:ffdec="https://www.free-decompiler.com/flash" xmlns:xlink="http://www.w3.org/1999/xlink" ffdec:objectType="shape" height="29.35px" width="42.45px" xmlns="http://www.w3.org/2000/svg">
  <g transform="matrix(1.0, 0.0, 0.0, 1.0, 0.0, 0.0)">
    <path d="M41.9 12.9 L42.45 13.6 42.0 14.45 30.1 17.65 30.1 20.75 Q29.95 22.8 28.35 23.95 26.75 25.1 24.0 25.15 L23.95 25.4 Q23.5 28.4 21.55 29.2 L21.25 29.35 20.95 29.2 Q19.0 28.4 18.55 25.4 L18.5 25.15 Q15.75 25.1 14.15 23.95 12.55 22.8 12.45 20.75 L12.45 17.7 0.55 14.45 0.0 13.7 0.6 12.9 9.9 11.1 10.05 9.55 14.25 9.6 10.5 2.8 10.25 2.45 11.35 0.0 13.5 0.5 19.55 9.1 22.95 9.1 29.0 0.5 31.15 0.0 32.25 2.45 28.25 9.6 32.45 9.55 32.6 11.1 41.9 12.9" fill="#000000" fill-rule="evenodd" stroke="none"/>
  </g>
</svg>
