<?xml version="1.0" encoding="UTF-8" standalone="no"?>
<svg xmlns:ffdec="https://www.free-decompiler.com/flash" xmlns:xlink="http://www.w3.org/1999/xlink" ffdec:objectType="shape" height="22.5px" width="32.6px" xmlns="http://www.w3.org/2000/svg">
  <g transform="matrix(1.0, 0.0, 0.0, 1.0, 0.0, 0.0)">
    <path d="M32.15 9.9 L32.6 10.45 32.2 11.1 23.1 13.6 23.1 15.9 Q23.0 17.5 21.8 18.35 20.55 19.3 18.4 19.35 L18.4 19.5 Q18.2 20.95 17.35 21.8 L16.55 22.45 16.3 22.5 16.05 22.45 15.25 21.8 Q14.45 20.95 14.25 19.5 L14.2 19.35 Q12.05 19.3 10.85 18.35 9.65 17.5 9.55 15.9 L9.55 13.6 0.45 11.1 0.0 10.5 0.5 9.9 7.6 8.5 7.7 7.35 10.95 7.4 8.05 2.15 7.85 1.95 8.75 0.0 10.35 0.4 15.0 7.0 17.6 7.0 22.25 0.4 23.9 0.0 24.75 1.95 24.55 2.15 21.65 7.4 24.9 7.35 25.0 8.5 32.15 9.9" fill="#130e45" fill-rule="evenodd" stroke="none"/>
    <path d="M11.3 14.9 L12.15 14.15 Q12.85 13.9 13.75 14.9 L14.6 16.55 14.75 18.2 Q12.05 18.15 11.35 16.4 11.05 15.65 11.2 14.95 L11.3 14.9" fill="#00215c" fill-rule="evenodd" stroke="none"/>
    <path d="M0.6 10.5 L11.35 10.4 10.2 13.1 0.6 10.5" fill="url(#gradient0)" fill-rule="evenodd" stroke="none"/>
    <path d="M8.55 1.85 L12.85 8.1 11.95 8.05 8.55 1.85" fill="#70e9ff" fill-rule="evenodd" stroke="none"/>
    <path d="M8.55 1.85 L9.1 0.75 10.0 0.95 14.7 7.6 17.95 7.6 22.6 0.95 23.55 0.75 24.05 1.85 19.8 8.1 24.35 7.95 24.45 9.0 32.05 10.5 21.25 10.4 22.45 13.1 22.45 15.9 Q22.35 17.65 20.65 18.35 L17.85 18.7 17.9 18.2 Q20.55 18.15 21.25 16.4 21.6 15.55 21.4 14.95 21.95 15.3 21.45 14.2 21.0 13.3 19.85 13.5 L19.15 14.05 18.15 15.1 16.3 8.8 14.45 15.1 13.45 14.05 12.75 13.5 Q11.6 13.3 11.15 14.2 10.65 15.3 11.2 14.95 11.05 15.65 11.35 16.4 12.05 18.15 14.75 18.2 L14.75 18.7 Q10.3 18.85 10.15 15.9 10.05 14.4 10.2 13.1 L11.35 10.4 0.6 10.5 8.2 9.0 8.25 7.95 12.85 8.1 8.55 1.85" fill="url(#gradient1)" fill-rule="evenodd" stroke="none"/>
    <path d="M17.8 13.85 L16.3 11.3 14.85 13.85 16.3 8.8 17.8 13.85" fill="#0542a4" fill-rule="evenodd" stroke="none"/>
    <path d="M18.9 14.9 Q19.8 13.9 20.45 14.15 L21.35 14.9 21.4 14.95 Q21.6 15.55 21.25 16.4 20.55 18.15 17.9 18.2 L18.0 16.55 Q18.2 15.75 18.9 14.9" fill="#00215c" fill-rule="evenodd" stroke="none"/>
    <path d="M22.45 13.1 L21.25 10.4 32.05 10.5 22.45 13.1" fill="url(#gradient2)" fill-rule="evenodd" stroke="none"/>
    <path d="M20.65 8.05 L19.8 8.1 24.05 1.85 20.65 8.05" fill="#70e9ff" fill-rule="evenodd" stroke="none"/>
    <path d="M12.15 14.15 L11.3 14.9 11.2 14.95 Q10.65 15.3 11.15 14.2 11.6 13.3 12.75 13.5 L13.45 14.05 14.45 15.1 14.85 13.85 16.3 11.3 17.8 13.85 18.15 15.1 19.15 14.05 19.85 13.5 Q21.0 13.3 21.45 14.2 21.95 15.3 21.4 14.95 L21.35 14.9 20.45 14.15 Q19.8 13.9 18.9 14.9 18.2 15.75 18.0 16.55 L17.9 18.2 17.8 19.4 Q17.6 20.65 16.95 21.35 L16.3 21.85 15.7 21.35 Q15.05 20.65 14.85 19.4 L14.75 18.2 14.6 16.55 13.75 14.9 Q12.85 13.9 12.15 14.15" fill="#70e9ff" fill-rule="evenodd" stroke="none"/>
  </g>
  <defs>
    <linearGradient gradientTransform="matrix(0.0, -0.0019, -0.0019, 0.0, 6.0, 11.6)" gradientUnits="userSpaceOnUse" id="gradient0" spreadMethod="pad" x1="-819.2" x2="819.2">
      <stop offset="0.0" stop-color="#70e9ff"/>
      <stop offset="1.0" stop-color="#bdffff"/>
    </linearGradient>
    <linearGradient gradientTransform="matrix(0.0, 0.0092, 0.0092, 0.0, 16.3, 8.6)" gradientUnits="userSpaceOnUse" id="gradient1" spreadMethod="pad" x1="-819.2" x2="819.2">
      <stop offset="0.0" stop-color="#70e9ff"/>
      <stop offset="1.0" stop-color="#1e96fd"/>
    </linearGradient>
    <linearGradient gradientTransform="matrix(0.0, -0.0019, -0.0019, 0.0, 26.65, 11.6)" gradientUnits="userSpaceOnUse" id="gradient2" spreadMethod="pad" x1="-819.2" x2="819.2">
      <stop offset="0.0" stop-color="#70e9ff"/>
      <stop offset="1.0" stop-color="#bdffff"/>
    </linearGradient>
  </defs>
</svg>
