<?xml version="1.0" encoding="UTF-8" standalone="no"?>
<svg xmlns:ffdec="https://www.free-decompiler.com/flash" xmlns:xlink="http://www.w3.org/1999/xlink" ffdec:objectType="shape" height="43.2px" width="43.2px" xmlns="http://www.w3.org/2000/svg">
  <g transform="matrix(1.0, 0.0, 0.0, 1.0, 0.0, 0.0)">
    <path d="M21.6 0.0 Q30.55 0.0 36.9 6.3 43.2 12.65 43.2 21.6 43.2 30.5 36.9 36.85 30.55 43.2 21.6 43.2 12.65 43.2 6.3 36.85 0.0 30.5 0.0 21.6 0.0 12.65 6.3 6.3 12.65 0.0 21.6 0.0" fill="url(#gradient0)" fill-rule="evenodd" stroke="none"/>
    <path d="M21.5 1.3 Q30.1 1.3 36.05 7.3 42.05 13.35 42.05 21.85 42.05 30.3 36.05 36.35 30.0 42.3 21.5 42.3 13.05 42.3 7.05 36.3 1.05 30.3 1.05 21.8 1.05 13.3 7.05 7.3 9.9 4.4 13.7 2.85 17.45 1.3 21.5 1.3" fill="url(#gradient1)" fill-rule="evenodd" stroke="none"/>
    <path d="M21.6 6.9 Q15.5 6.9 11.2 11.2 6.9 15.5 6.9 21.65 6.9 27.7 11.2 32.0 15.5 36.35 21.6 36.35 27.7 36.35 32.0 32.0 36.35 27.7 36.35 21.65 36.35 15.55 32.0 11.2 27.7 6.9 21.6 6.9 M33.95 9.25 Q39.1 14.4 39.1 21.65 39.1 28.85 33.95 33.95 28.8 39.1 21.6 39.1 14.4 39.1 9.25 33.95 4.15 28.85 4.15 21.65 4.15 14.4 9.25 9.25 14.35 4.15 21.6 4.15 28.85 4.15 33.95 9.25" fill="#2c2736" fill-rule="evenodd" stroke="none"/>
    <path d="M8.95 29.7 L4.05 32.6 3.7 32.0 8.65 29.15 8.95 29.7" fill="#211c18" fill-rule="evenodd" stroke="none"/>
    <path d="M34.2 29.6 L34.55 29.05 39.35 31.95 39.05 32.55 34.2 29.6" fill="#211c18" fill-rule="evenodd" stroke="none"/>
    <path d="M22.0 1.2 L22.0 6.9 21.35 6.9 21.35 1.2 22.0 1.2" fill="#211c18" fill-rule="evenodd" stroke="none"/>
    <path d="M21.5 37.15 Q15.0 37.15 10.55 32.6 5.95 28.05 5.95 21.6 5.95 15.15 10.55 10.6 15.1 6.0 21.5 6.0 27.95 6.0 32.55 10.6 37.1 15.15 37.1 21.6 37.1 28.05 32.55 32.65 28.0 37.15 21.5 37.15" fill="url(#gradient2)" fill-rule="evenodd" stroke="none"/>
    <path d="M31.8 11.35 Q27.55 7.1 21.5 7.1 15.55 7.1 11.3 11.35 7.05 15.6 7.05 21.65 7.05 27.6 11.3 31.85 15.45 36.1 21.5 36.1 27.6 36.1 31.8 31.9 36.05 27.65 36.05 21.65 36.05 15.6 31.8 11.35 M21.5 6.05 Q28.0 6.05 32.55 10.6 37.1 15.15 37.1 21.65 37.1 28.1 32.55 32.65 28.05 37.15 21.5 37.15 15.0 37.15 10.55 32.6 6.0 28.1 6.0 21.65 6.0 15.15 10.55 10.6 15.1 6.05 21.5 6.05" fill="#2079ff" fill-rule="evenodd" stroke="none"/>
  </g>
  <defs>
    <linearGradient gradientTransform="matrix(0.0, -0.0264, -0.0264, 0.0, 21.6, 21.6)" gradientUnits="userSpaceOnUse" id="gradient0" spreadMethod="pad" x1="-819.2" x2="819.2">
      <stop offset="0.0" stop-color="#1c1c1c"/>
      <stop offset="0.27450980392156865" stop-color="#202020"/>
      <stop offset="0.5450980392156862" stop-color="#2c2c2c"/>
      <stop offset="0.8156862745098039" stop-color="#404040"/>
      <stop offset="1.0" stop-color="#525252"/>
    </linearGradient>
    <linearGradient gradientTransform="matrix(0.0, -0.025, -0.025, 0.0, 21.5, 21.8)" gradientUnits="userSpaceOnUse" id="gradient1" spreadMethod="pad" x1="-819.2" x2="819.2">
      <stop offset="0.0" stop-color="#7b7b7b"/>
      <stop offset="0.403921568627451" stop-color="#2f2f2f"/>
      <stop offset="1.0" stop-color="#b6b6b8"/>
    </linearGradient>
    <linearGradient gradientTransform="matrix(0.0, -0.019, -0.019, 0.0, 21.5, 21.6)" gradientUnits="userSpaceOnUse" id="gradient2" spreadMethod="pad" x1="-819.2" x2="819.2">
      <stop offset="0.0" stop-color="#0f6cf9"/>
      <stop offset="0.22745098039215686" stop-color="#0553c7"/>
      <stop offset="0.47843137254901963" stop-color="#043f95"/>
      <stop offset="0.7098039215686275" stop-color="#02347d"/>
      <stop offset="0.8823529411764706" stop-color="#01265c"/>
      <stop offset="1.0" stop-color="#012354"/>
    </linearGradient>
  </defs>
</svg>
