<?xml version="1.0" encoding="UTF-8" standalone="no"?>
<svg xmlns:ffdec="https://www.free-decompiler.com/flash" xmlns:xlink="http://www.w3.org/1999/xlink" ffdec:objectType="shape" height="38.9px" width="38.9px" xmlns="http://www.w3.org/2000/svg">
  <g transform="matrix(1.0, 0.0, 0.0, 1.0, -2.15, -2.15)">
    <path d="M21.55 2.15 Q29.65 2.15 35.35 7.8 41.05 13.55 41.05 21.55 41.05 29.6 35.35 35.3 29.65 41.05 21.55 41.05 13.55 41.05 7.8 35.3 2.15 29.6 2.15 21.55 2.15 13.55 7.8 7.8 13.55 2.15 21.55 2.15" fill="url(#gradient0)" fill-rule="evenodd" stroke="none"/>
    <path d="M21.55 3.15 Q29.25 3.15 34.65 8.5 40.05 13.95 40.05 21.6 40.05 29.2 34.65 34.65 29.2 40.05 21.55 40.05 13.95 40.05 8.55 34.6 3.15 29.2 3.15 21.55 3.15 13.9 8.55 8.5 11.15 5.9 14.55 4.5 17.9 3.15 21.55 3.15" fill="url(#gradient1)" fill-rule="evenodd" stroke="none"/>
    <path d="M21.55 8.35 Q16.1 8.35 12.2 12.2 8.35 16.1 8.35 21.6 8.35 27.1 12.2 30.95 16.1 34.85 21.55 34.85 27.1 34.85 30.95 30.95 34.85 27.1 34.85 21.6 34.85 16.15 30.95 12.2 27.1 8.35 21.55 8.35 M32.7 10.45 Q37.35 15.1 37.35 21.6 37.35 28.15 32.7 32.7 28.1 37.35 21.55 37.35 15.1 37.35 10.45 32.7 5.9 28.15 5.9 21.6 5.9 15.1 10.45 10.45 15.05 5.9 21.55 5.9 28.15 5.9 32.7 10.45" fill="#2c2736" fill-rule="evenodd" stroke="none"/>
    <path d="M10.25 33.15 L5.85 35.75 5.55 35.25 10.0 32.7 10.25 33.15" fill="#211c18" fill-rule="evenodd" stroke="none"/>
    <path d="M33.0 33.05 L33.3 32.6 37.65 35.2 37.35 35.7 33.0 33.05" fill="#211c18" fill-rule="evenodd" stroke="none"/>
    <path d="M22.0 7.5 L22.0 12.65 21.4 12.65 21.4 7.5 22.0 7.5" fill="#211c18" fill-rule="evenodd" stroke="none"/>
    <path d="M21.55 35.6 Q15.7 35.6 11.7 31.5 7.6 27.45 7.6 21.65 7.6 15.85 11.7 11.7 15.8 7.6 21.55 7.6 27.4 7.6 31.5 11.7 35.6 15.85 35.6 21.65 35.6 27.45 31.5 31.55 27.4 35.6 21.55 35.6" fill="url(#gradient2)" fill-rule="evenodd" stroke="none"/>
    <path d="M30.85 12.35 Q27.0 8.55 21.55 8.55 16.2 8.55 12.35 12.35 8.55 16.2 8.55 21.6 8.55 27.0 12.35 30.85 16.1 34.65 21.55 34.65 27.05 34.65 30.85 30.9 34.65 27.05 34.65 21.6 34.65 16.2 30.85 12.35 M21.55 7.6 Q27.4 7.6 31.5 11.7 35.6 15.8 35.6 21.6 35.6 27.45 31.5 31.55 27.45 35.6 21.55 35.6 15.7 35.6 11.7 31.5 7.6 27.45 7.6 21.6 7.6 15.8 11.7 11.7 15.8 7.6 21.55 7.6" fill="#2079ff" fill-rule="evenodd" stroke="none"/>
  </g>
  <defs>
    <linearGradient gradientTransform="matrix(0.0, -0.0237, -0.0237, 0.0, 21.55, 21.55)" gradientUnits="userSpaceOnUse" id="gradient0" spreadMethod="pad" x1="-819.2" x2="819.2">
      <stop offset="0.0" stop-color="#1c1c1c"/>
      <stop offset="0.27450980392156865" stop-color="#202020"/>
      <stop offset="0.5450980392156862" stop-color="#2c2c2c"/>
      <stop offset="0.8156862745098039" stop-color="#404040"/>
      <stop offset="1.0" stop-color="#525252"/>
    </linearGradient>
    <linearGradient gradientTransform="matrix(0.0, -0.0225, -0.0225, 0.0, 21.55, 21.55)" gradientUnits="userSpaceOnUse" id="gradient1" spreadMethod="pad" x1="-819.2" x2="819.2">
      <stop offset="0.0" stop-color="#7b7b7b"/>
      <stop offset="0.403921568627451" stop-color="#2f2f2f"/>
      <stop offset="1.0" stop-color="#b6b6b8"/>
    </linearGradient>
    <linearGradient gradientTransform="matrix(0.0, -0.0171, -0.0171, 0.0, 21.55, 21.65)" gradientUnits="userSpaceOnUse" id="gradient2" spreadMethod="pad" x1="-819.2" x2="819.2">
      <stop offset="0.0" stop-color="#0f6cf9"/>
      <stop offset="0.22745098039215686" stop-color="#0553c7"/>
      <stop offset="0.47843137254901963" stop-color="#043f95"/>
      <stop offset="0.7098039215686275" stop-color="#02347d"/>
      <stop offset="0.8823529411764706" stop-color="#01265c"/>
      <stop offset="1.0" stop-color="#012354"/>
    </linearGradient>
  </defs>
</svg>
