<?xml version="1.0" encoding="UTF-8" standalone="no"?>
<svg xmlns:ffdec="https://www.free-decompiler.com/flash" xmlns:xlink="http://www.w3.org/1999/xlink" ffdec:objectType="shape" height="47.05px" width="47.05px" xmlns="http://www.w3.org/2000/svg">
  <g transform="matrix(1.0, 0.0, 0.0, 1.0, 3.0, 3.0)">
    <path d="M20.5 -3.0 Q30.25 -3.0 37.15 3.9 44.05 10.8 44.05 20.5 44.05 30.25 37.15 37.15 30.25 44.05 20.5 44.05 10.75 44.05 3.85 37.15 -3.0 30.25 -3.0 20.5 -3.0 10.8 3.85 3.9 10.75 -3.0 20.5 -3.0" fill="url(#gradient0)" fill-rule="evenodd" stroke="none"/>
    <path d="M4.65 36.5 Q-1.9 30.0 -1.9 20.75 -1.9 11.5 4.65 4.95 7.8 1.8 11.9 0.1 15.95 -1.55 20.4 -1.55 29.75 -1.55 36.25 4.95 42.75 11.55 42.75 20.8 42.75 30.0 36.25 36.6 29.65 43.1 20.4 43.1 11.2 43.1 4.65 36.5" fill="url(#gradient1)" fill-rule="evenodd" stroke="none"/>
    <path d="M20.5 36.6 Q27.15 36.6 31.85 31.9 36.55 27.2 36.55 20.55 36.55 13.95 31.85 9.2 27.15 4.5 20.5 4.5 13.85 4.5 9.15 9.2 4.45 13.9 4.45 20.55 4.45 27.2 9.15 31.9 13.85 36.6 20.5 36.6 M20.5 1.55 Q28.4 1.55 33.95 7.1 39.55 12.7 39.55 20.55 39.55 28.45 33.95 34.0 28.35 39.6 20.5 39.6 12.65 39.6 7.05 34.0 1.5 28.45 1.5 20.55 1.5 12.7 7.05 7.1 12.6 1.55 20.5 1.55" fill="#1e1612" fill-rule="evenodd" stroke="none"/>
    <path d="M6.75 29.4 L1.4 32.5 1.05 31.9 6.4 28.8 6.75 29.4" fill="#211c18" fill-rule="evenodd" stroke="none"/>
    <path d="M34.25 29.25 L34.6 28.7 39.85 31.85 39.5 32.45 34.25 29.25" fill="#211c18" fill-rule="evenodd" stroke="none"/>
    <path d="M20.95 -1.65 L20.95 4.55 20.25 4.55 20.25 -1.65 20.95 -1.65" fill="#211c18" fill-rule="evenodd" stroke="none"/>
    <path d="M20.4 37.5 Q13.35 37.5 8.45 32.5 3.5 27.6 3.5 20.55 3.5 13.55 8.45 8.55 13.45 3.6 20.4 3.6 27.45 3.6 32.45 8.55 37.4 13.55 37.4 20.55 37.4 27.6 32.45 32.6 27.5 37.5 20.4 37.5" fill="url(#gradient2)" fill-rule="evenodd" stroke="none"/>
    <path d="M20.4 4.75 Q13.9 4.75 9.25 9.35 4.65 14.0 4.65 20.55 4.65 27.1 9.25 31.7 13.8 36.35 20.4 36.35 27.05 36.35 31.65 31.8 36.25 27.15 36.25 20.55 36.25 14.0 31.65 9.35 27.0 4.75 20.4 4.75 M20.4 37.5 Q13.35 37.5 8.45 32.5 3.5 27.6 3.5 20.55 3.5 13.55 8.45 8.55 13.45 3.6 20.4 3.6 27.45 3.6 32.45 8.55 37.4 13.55 37.4 20.55 37.4 27.6 32.45 32.6 27.5 37.5 20.4 37.5" fill="#0068ff" fill-rule="evenodd" stroke="none"/>
  </g>
  <defs>
    <linearGradient gradientTransform="matrix(0.0, -0.0287, -0.0287, 0.0, 20.5, 20.5)" gradientUnits="userSpaceOnUse" id="gradient0" spreadMethod="pad" x1="-819.2" x2="819.2">
      <stop offset="0.0" stop-color="#1c1c1c"/>
      <stop offset="0.27450980392156865" stop-color="#202020"/>
      <stop offset="0.5450980392156862" stop-color="#2c2c2c"/>
      <stop offset="0.8156862745098039" stop-color="#404040"/>
      <stop offset="1.0" stop-color="#525252"/>
    </linearGradient>
    <linearGradient gradientTransform="matrix(0.0, -0.0273, -0.0273, 0.0, 20.4, 20.75)" gradientUnits="userSpaceOnUse" id="gradient1" spreadMethod="pad" x1="-819.2" x2="819.2">
      <stop offset="0.0" stop-color="#6a6a6a"/>
      <stop offset="0.403921568627451" stop-color="#242424"/>
      <stop offset="1.0" stop-color="#a3a3a6"/>
    </linearGradient>
    <linearGradient gradientTransform="matrix(0.0, -0.0207, -0.0207, 0.0, 20.4, 20.55)" gradientUnits="userSpaceOnUse" id="gradient2" spreadMethod="pad" x1="-819.2" x2="819.2">
      <stop offset="0.0" stop-color="#0547d1"/>
      <stop offset="0.22745098039215686" stop-color="#03369f"/>
      <stop offset="0.47843137254901963" stop-color="#02256f"/>
      <stop offset="0.7019607843137254" stop-color="#01194b"/>
      <stop offset="0.8823529411764706" stop-color="#001236"/>
      <stop offset="1.0" stop-color="#000f2e"/>
    </linearGradient>
  </defs>
</svg>
