<?xml version="1.0" encoding="UTF-8" standalone="no"?>
<svg xmlns:ffdec="https://www.free-decompiler.com/flash" xmlns:xlink="http://www.w3.org/1999/xlink" ffdec:objectType="shape" height="33.55px" width="39.65px" xmlns="http://www.w3.org/2000/svg">
  <g transform="matrix(1.0, 0.0, 0.0, 1.0, 0.0, 0.0)">
    <path d="M33.6 11.05 L33.15 13.65 33.3 13.65 33.6 13.7 Q39.65 16.25 39.65 20.1 39.65 22.35 37.35 24.3 35.0 26.25 30.9 27.45 L30.9 31.25 Q30.9 32.2 30.25 32.85 29.55 33.55 28.45 33.55 27.3 33.55 26.6 32.85 26.2 32.4 26.1 31.8 L26.05 31.2 26.05 28.5 25.5 28.55 25.5 31.25 25.45 31.8 24.95 32.85 Q24.25 33.55 23.15 33.55 22.0 33.55 21.3 32.85 20.65 32.2 20.65 31.25 L20.65 28.9 19.85 28.95 17.6 28.85 Q17.1 30.25 15.3 30.25 14.15 30.25 13.5 29.6 13.1 29.2 12.95 28.4 L12.4 28.3 Q12.25 29.15 11.8 29.6 11.25 30.25 10.0 30.25 8.8 30.25 8.15 29.6 7.55 28.95 7.55 28.0 L7.55 27.05 Q3.95 25.8 2.0 24.0 0.0 22.2 0.0 20.1 0.0 18.1 1.85 16.3 2.0 16.15 2.3 16.15 2.6 16.15 2.75 16.3 3.25 16.65 2.9 17.2 2.35 18.05 2.35 18.85 2.35 20.15 3.75 21.45 5.1 22.7 7.55 23.65 L7.55 20.25 Q6.1 21.35 5.2 21.35 4.35 21.35 3.75 20.6 3.05 19.8 3.2 18.9 3.35 17.0 6.8 14.1 L7.4 13.6 Q4.85 11.35 4.85 7.8 4.85 4.6 7.15 2.3 9.45 0.0 12.65 0.0 15.25 0.0 17.35 1.6 19.45 3.15 20.15 5.6 22.4 3.25 25.8 3.25 29.05 3.25 31.3 5.55 33.6 7.85 33.6 11.05 M31.65 17.35 Q34.35 19.7 35.0 21.25 36.2 20.05 36.2 18.85 36.2 16.75 32.95 14.95 L32.7 14.7 31.05 16.85 31.25 17.05 30.95 17.65 31.35 17.1 31.65 17.35 M18.6 14.15 L18.25 13.25 17.9 13.6 18.6 14.15 M12.65 23.35 L12.45 23.55 12.4 23.75 12.4 25.0 12.9 25.1 12.9 23.7 Q12.85 23.35 12.65 23.35 M17.75 24.5 L17.75 25.6 20.65 25.6 20.65 23.5 Q19.3 24.6 18.35 24.6 L17.75 24.5" fill="#000000" fill-rule="evenodd" stroke="none"/>
  </g>
</svg>
