<?xml version="1.0" encoding="UTF-8" standalone="no"?>
<svg xmlns:ffdec="https://www.free-decompiler.com/flash" xmlns:xlink="http://www.w3.org/1999/xlink" ffdec:objectType="shape" height="42.35px" width="42.35px" xmlns="http://www.w3.org/2000/svg">
  <g transform="matrix(1.0, 0.0, 0.0, 1.0, 0.65, 0.65)">
    <path d="M20.5 -0.65 Q29.3 -0.65 35.5 5.5 41.7 11.75 41.7 20.5 41.7 29.25 35.5 35.45 29.3 41.7 20.5 41.7 11.75 41.7 5.5 35.45 -0.65 29.25 -0.65 20.5 -0.65 11.75 5.5 5.5 11.75 -0.65 20.5 -0.65" fill="url(#gradient0)" fill-rule="evenodd" stroke="none"/>
    <path d="M34.7 6.5 Q40.55 12.4 40.55 20.75 40.55 29.05 34.7 34.95 28.75 40.8 20.45 40.8 12.15 40.8 6.25 34.9 0.4 29.05 0.4 20.7 0.4 12.35 6.25 6.5 9.05 3.65 12.8 2.15 16.45 0.65 20.45 0.65 28.85 0.65 34.7 6.5" fill="url(#gradient1)" fill-rule="evenodd" stroke="none"/>
    <path d="M32.65 8.4 Q37.7 13.45 37.7 20.55 37.7 27.65 32.65 32.65 27.6 37.7 20.5 37.7 13.45 37.7 8.4 32.65 3.4 27.65 3.4 20.55 3.4 13.45 8.4 8.4 13.4 3.4 20.5 3.4 27.65 3.4 32.65 8.4 M30.75 10.3 Q26.5 6.1 20.5 6.1 14.55 6.1 10.3 10.3 6.1 14.55 6.1 20.55 6.1 26.5 10.3 30.75 14.55 34.95 20.5 34.95 26.5 34.95 30.75 30.75 34.95 26.5 34.95 20.55 34.95 14.6 30.75 10.3" fill="#2c2736" fill-rule="evenodd" stroke="none"/>
    <path d="M8.2 28.5 L3.35 31.35 3.05 30.8 7.9 28.0 8.2 28.5" fill="#211c18" fill-rule="evenodd" stroke="none"/>
    <path d="M32.95 28.4 L33.25 27.9 38.0 30.75 37.7 31.3 32.95 28.4" fill="#211c18" fill-rule="evenodd" stroke="none"/>
    <path d="M20.95 0.6 L20.95 6.2 20.35 6.2 20.35 0.6 20.95 0.6" fill="#211c18" fill-rule="evenodd" stroke="none"/>
    <path d="M20.5 35.8 Q14.1 35.8 9.75 31.35 5.25 26.9 5.25 20.6 5.25 14.25 9.75 9.8 14.2 5.3 20.5 5.3 26.85 5.3 31.3 9.8 35.8 14.25 35.8 20.6 35.8 26.9 31.3 31.4 26.9 35.8 20.5 35.8" fill="url(#gradient2)" fill-rule="evenodd" stroke="none"/>
    <path d="M31.25 9.75 Q35.75 14.2 35.75 20.55 35.75 26.9 31.25 31.35 26.85 35.8 20.45 35.8 14.05 35.8 9.7 31.3 5.2 26.9 5.2 20.55 5.2 14.2 9.7 9.75 14.15 5.25 20.45 5.25 26.75 5.25 31.25 9.75 M30.55 10.45 Q26.35 6.3 20.45 6.3 14.6 6.3 10.4 10.45 6.25 14.65 6.25 20.55 6.25 26.4 10.4 30.6 14.5 34.75 20.45 34.75 26.4 34.75 30.55 30.65 34.7 26.45 34.7 20.55 34.7 14.65 30.55 10.45" fill="#2079ff" fill-rule="evenodd" stroke="none"/>
  </g>
  <defs>
    <linearGradient gradientTransform="matrix(0.0, -0.0258, -0.0258, 0.0, 20.5, 20.5)" gradientUnits="userSpaceOnUse" id="gradient0" spreadMethod="pad" x1="-819.2" x2="819.2">
      <stop offset="0.0" stop-color="#1c1c1c"/>
      <stop offset="0.27450980392156865" stop-color="#202020"/>
      <stop offset="0.5450980392156862" stop-color="#2c2c2c"/>
      <stop offset="0.8156862745098039" stop-color="#404040"/>
      <stop offset="1.0" stop-color="#525252"/>
    </linearGradient>
    <linearGradient gradientTransform="matrix(0.0, -0.0245, -0.0245, 0.0, 20.45, 20.7)" gradientUnits="userSpaceOnUse" id="gradient1" spreadMethod="pad" x1="-819.2" x2="819.2">
      <stop offset="0.0" stop-color="#7b7b7b"/>
      <stop offset="0.403921568627451" stop-color="#2f2f2f"/>
      <stop offset="1.0" stop-color="#b6b6b8"/>
    </linearGradient>
    <linearGradient gradientTransform="matrix(0.0, -0.0186, -0.0186, 0.0, 20.5, 20.6)" gradientUnits="userSpaceOnUse" id="gradient2" spreadMethod="pad" x1="-819.2" x2="819.2">
      <stop offset="0.0" stop-color="#0f6cf9"/>
      <stop offset="0.22745098039215686" stop-color="#0553c7"/>
      <stop offset="0.47843137254901963" stop-color="#043f95"/>
      <stop offset="0.7098039215686275" stop-color="#02347d"/>
      <stop offset="0.8823529411764706" stop-color="#01265c"/>
      <stop offset="1.0" stop-color="#012354"/>
    </linearGradient>
  </defs>
</svg>
