<?xml version="1.0" encoding="UTF-8" standalone="no"?>
<svg xmlns:ffdec="https://www.free-decompiler.com/flash" xmlns:xlink="http://www.w3.org/1999/xlink" ffdec:objectType="shape" height="47.05px" width="47.05px" xmlns="http://www.w3.org/2000/svg">
  <g transform="matrix(1.0, 0.0, 0.0, 1.0, 3.0, 3.0)">
    <path d="M20.5 -3.0 Q30.25 -3.0 37.15 3.9 44.05 10.8 44.05 20.5 44.05 30.25 37.15 37.15 30.25 44.05 20.5 44.05 10.75 44.05 3.85 37.15 -3.0 30.25 -3.0 20.5 -3.0 10.8 3.85 3.9 10.75 -3.0 20.5 -3.0" fill="url(#gradient0)" fill-rule="evenodd" stroke="none"/>
    <path d="M4.75 36.3 Q-1.8 29.8 -1.8 20.55 -1.8 11.3 4.75 4.75 7.9 1.6 12.0 -0.1 16.05 -1.75 20.5 -1.75 29.85 -1.75 36.35 4.75 42.85 11.35 42.85 20.6 42.85 29.8 36.35 36.4 29.75 42.9 20.5 42.9 11.3 42.9 4.75 36.3" fill="url(#gradient1)" fill-rule="evenodd" stroke="none"/>
    <path d="M20.6 1.35 Q28.5 1.35 34.05 6.9 39.65 12.5 39.65 20.35 39.65 28.25 34.05 33.8 28.45 39.4 20.6 39.4 12.75 39.4 7.15 33.8 1.6 28.25 1.6 20.35 1.6 12.5 7.15 6.9 12.7 1.35 20.6 1.35 M20.6 36.4 Q27.25 36.4 31.95 31.7 36.65 27.0 36.65 20.35 36.65 13.75 31.95 9.0 27.25 4.3 20.6 4.3 13.95 4.3 9.25 9.0 4.55 13.7 4.55 20.35 4.55 27.0 9.25 31.7 13.95 36.4 20.6 36.4" fill="#1e1612" fill-rule="evenodd" stroke="none"/>
    <path d="M6.85 29.2 L1.5 32.3 1.15 31.7 6.5 28.6 6.85 29.2" fill="#211c18" fill-rule="evenodd" stroke="none"/>
    <path d="M34.35 29.05 L34.7 28.5 39.95 31.65 39.6 32.25 34.35 29.05" fill="#211c18" fill-rule="evenodd" stroke="none"/>
    <path d="M21.05 -1.85 L21.05 4.35 20.35 4.35 20.35 -1.85 21.05 -1.85" fill="#211c18" fill-rule="evenodd" stroke="none"/>
    <path d="M20.5 37.3 Q13.45 37.3 8.55 32.3 3.6 27.4 3.6 20.35 3.6 13.35 8.55 8.35 13.55 3.4 20.5 3.4 27.55 3.4 32.55 8.35 37.5 13.35 37.5 20.35 37.5 27.4 32.55 32.4 27.6 37.3 20.5 37.3" fill="url(#gradient2)" fill-rule="evenodd" stroke="none"/>
    <path d="M20.5 37.3 Q13.45 37.3 8.55 32.3 3.6 27.4 3.6 20.35 3.6 13.35 8.55 8.35 13.55 3.4 20.5 3.4 27.55 3.4 32.55 8.35 37.5 13.35 37.5 20.35 37.5 27.4 32.55 32.4 27.6 37.3 20.5 37.3 M20.5 4.55 Q14.0 4.55 9.35 9.15 4.75 13.8 4.75 20.35 4.75 26.9 9.35 31.5 13.9 36.15 20.5 36.15 27.15 36.15 31.75 31.6 36.35 26.95 36.35 20.35 36.35 13.8 31.75 9.15 27.1 4.55 20.5 4.55" fill="#0068ff" fill-rule="evenodd" stroke="none"/>
  </g>
  <defs>
    <linearGradient gradientTransform="matrix(0.0, -0.0287, -0.0287, 0.0, 20.5, 20.5)" gradientUnits="userSpaceOnUse" id="gradient0" spreadMethod="pad" x1="-819.2" x2="819.2">
      <stop offset="0.0" stop-color="#1c1c1c"/>
      <stop offset="0.27450980392156865" stop-color="#202020"/>
      <stop offset="0.5450980392156862" stop-color="#2c2c2c"/>
      <stop offset="0.8156862745098039" stop-color="#404040"/>
      <stop offset="1.0" stop-color="#525252"/>
    </linearGradient>
    <linearGradient gradientTransform="matrix(0.0, -0.0273, -0.0273, 0.0, 20.5, 20.55)" gradientUnits="userSpaceOnUse" id="gradient1" spreadMethod="pad" x1="-819.2" x2="819.2">
      <stop offset="0.0" stop-color="#6a6a6a"/>
      <stop offset="0.403921568627451" stop-color="#242424"/>
      <stop offset="1.0" stop-color="#a3a3a6"/>
    </linearGradient>
    <linearGradient gradientTransform="matrix(0.0, -0.0207, -0.0207, 0.0, 20.5, 20.35)" gradientUnits="userSpaceOnUse" id="gradient2" spreadMethod="pad" x1="-819.2" x2="819.2">
      <stop offset="0.0" stop-color="#0547d1"/>
      <stop offset="0.22745098039215686" stop-color="#03369f"/>
      <stop offset="0.47843137254901963" stop-color="#02256f"/>
      <stop offset="0.7019607843137254" stop-color="#01194b"/>
      <stop offset="0.8823529411764706" stop-color="#001236"/>
      <stop offset="1.0" stop-color="#000f2e"/>
    </linearGradient>
  </defs>
</svg>
