<?xml version="1.0" encoding="UTF-8" standalone="no"?>
<svg xmlns:ffdec="https://www.free-decompiler.com/flash" xmlns:xlink="http://www.w3.org/1999/xlink" ffdec:objectType="shape" height="37.25px" width="31.5px" xmlns="http://www.w3.org/2000/svg">
  <g transform="matrix(1.0, 0.0, 0.0, 1.0, 0.0, 0.0)">
    <path d="M30.0 9.95 L31.45 14.9 31.3 15.6 28.55 18.45 Q29.2 20.4 29.2 22.65 29.2 28.7 24.9 32.95 20.65 37.25 14.6 37.25 8.55 37.25 4.3 32.95 0.0 28.7 0.0 22.65 0.0 17.4 3.4 13.3 L1.4 9.8 Q1.25 9.45 1.4 9.1 L3.9 4.85 Q4.05 4.55 4.45 4.55 L8.85 4.35 Q9.3 4.35 9.5 4.8 L10.65 8.0 10.7 5.05 Q10.7 4.65 11.15 4.4 L12.55 3.85 12.65 1.85 Q12.75 1.4 13.05 1.25 L15.7 0.05 16.0 0.0 16.45 0.15 18.7 2.2 18.95 2.85 18.85 3.15 22.55 6.4 Q22.9 6.7 22.75 7.1 L22.55 7.7 23.95 7.75 25.3 5.7 Q25.45 5.4 25.85 5.4 L28.9 5.4 Q29.45 5.4 29.55 5.9 L30.45 8.95 30.3 9.55 30.0 9.95" fill="#000000" fill-rule="evenodd" stroke="none"/>
  </g>
</svg>
