<?xml version="1.0" encoding="UTF-8" standalone="no"?>
<svg xmlns:ffdec="https://www.free-decompiler.com/flash" xmlns:xlink="http://www.w3.org/1999/xlink" ffdec:objectType="shape" height="25.1px" width="21.25px" xmlns="http://www.w3.org/2000/svg">
  <g transform="matrix(1.0, 0.0, 0.0, 1.0, 0.0, 0.0)">
    <path d="M21.1 10.55 L19.25 12.45 Q19.7 13.75 19.7 15.3 19.7 19.35 16.8 22.2 13.95 25.1 9.85 25.1 5.8 25.1 2.9 22.2 0.0 19.35 0.0 15.3 0.0 11.75 2.3 9.0 L0.95 6.6 0.95 6.15 2.65 3.3 Q2.75 3.1 3.0 3.1 L6.0 2.95 Q6.3 2.95 6.4 3.25 L7.2 5.4 7.25 3.4 7.55 3.0 8.5 2.6 8.55 1.25 8.8 0.85 10.6 0.05 10.8 0.0 11.1 0.1 12.6 1.5 Q12.8 1.65 12.8 1.95 L12.7 2.15 15.2 4.35 Q15.45 4.55 15.35 4.8 L15.2 5.2 16.15 5.25 17.05 3.85 17.45 3.65 19.5 3.65 19.95 4.0 20.55 6.05 20.45 6.45 20.25 6.7 21.2 10.05 21.1 10.55" fill="#131030" fill-rule="evenodd" stroke="none"/>
    <path d="M13.45 13.8 L12.05 10.75 15.05 5.7 17.9 7.95 13.45 13.8" fill="url(#gradient0)" fill-rule="evenodd" stroke="none"/>
    <path d="M20.75 10.2 L16.7 14.45 13.45 13.8 17.9 7.95 20.75 10.2" fill="url(#gradient1)" fill-rule="evenodd" stroke="none"/>
    <path d="M16.55 9.7 L15.05 5.7 19.5 5.8 20.75 10.2 16.55 9.7" fill="url(#gradient2)" fill-rule="evenodd" stroke="none"/>
    <path d="M16.3 5.9 L18.9 7.2 19.3 8.5 16.95 8.35 16.3 5.9" fill="#b3b3b3" fill-rule="evenodd" stroke="none"/>
    <path d="M16.95 7.65 L16.35 5.85 17.45 4.15 18.75 5.15 16.95 7.65" fill="url(#gradient3)" fill-rule="evenodd" stroke="none"/>
    <path d="M20.05 6.2 L18.8 7.8 16.95 7.65 18.75 5.15 20.05 6.2" fill="url(#gradient4)" fill-rule="evenodd" stroke="none"/>
    <path d="M18.1 6.1 L17.45 4.15 19.5 4.15 20.05 6.2 18.1 6.1" fill="url(#gradient5)" fill-rule="evenodd" stroke="none"/>
    <path d="M15.05 5.7 L16.75 9.5 20.75 10.2 16.7 9.7 13.45 13.85 16.45 9.6 15.05 5.7" fill="#ffffff" fill-rule="evenodd" stroke="none"/>
    <path d="M17.45 4.15 L18.2 5.95 20.05 6.2 18.2 6.1 16.95 7.65 18.05 6.0 17.45 4.15" fill="#ffffff" fill-rule="evenodd" stroke="none"/>
    <path d="M19.2 15.3 Q19.2 19.2 16.5 21.9 13.75 24.65 9.85 24.65 6.0 24.65 3.25 21.9 0.5 19.15 0.5 15.3 0.5 11.4 3.25 8.7 6.0 5.9 9.85 5.9 13.75 5.9 16.5 8.7 19.2 11.4 19.2 15.3" fill="#000000" fill-rule="evenodd" stroke="none"/>
    <path d="M7.3 19.55 L7.2 20.1 7.3 20.65 9.1 20.35 7.3 19.55 M4.85 20.6 L6.55 20.75 6.4 20.1 6.65 19.2 4.85 18.0 Q4.5 18.7 4.5 19.3 4.5 19.95 4.85 20.6 M11.7 22.6 L11.9 22.8 Q13.85 22.3 14.9 21.05 L13.35 21.15 Q12.8 22.1 11.7 22.6 M8.05 22.8 L8.25 22.6 Q7.35 22.2 6.85 21.5 L5.5 21.5 Q6.5 22.4 8.05 22.8 M10.0 22.95 L9.0 22.85 8.9 23.0 10.0 23.05 11.05 23.0 10.95 22.85 10.0 22.95 M10.45 22.15 L10.0 21.4 9.5 22.15 10.0 22.2 10.45 22.15 M7.75 21.4 L8.7 21.95 9.3 21.05 7.75 21.4 M7.7 18.9 L9.0 19.5 8.5 18.35 Q8.0 18.6 7.7 18.9 M11.25 22.0 Q12.05 21.7 12.45 21.05 L10.5 20.75 11.25 22.0 M10.85 19.75 L12.4 19.0 11.5 18.35 10.85 19.75 M12.8 20.35 L12.75 19.7 Q12.2 19.95 11.7 20.25 L12.8 20.35 M15.35 20.15 L15.5 19.3 15.15 18.0 13.4 19.3 13.55 20.1 13.55 20.35 15.35 20.15 M17.0 14.55 L17.55 12.8 Q16.25 10.85 13.65 9.9 L13.35 12.25 Q15.65 13.0 17.0 14.55 M17.05 15.95 L15.7 17.5 Q16.25 18.3 16.25 19.3 L16.2 19.9 Q16.95 19.6 17.45 19.1 L17.6 17.95 Q17.6 16.95 17.05 15.95 M13.15 13.0 L12.6 15.2 Q14.25 15.8 15.25 16.85 L16.6 15.25 Q15.4 13.7 13.15 13.0 M12.35 15.9 L12.3 16.05 11.75 17.65 Q12.55 18.0 13.05 18.6 L14.7 17.4 Q13.85 16.4 12.35 15.9 M7.65 16.05 L7.65 15.9 Q6.15 16.4 5.3 17.4 L7.05 18.55 Q7.55 17.9 8.25 17.65 L7.65 16.05 M10.0 18.0 L9.25 18.1 10.0 19.75 10.75 18.1 10.0 18.0 M8.4 15.7 L8.95 17.35 10.0 17.25 11.05 17.35 11.6 15.7 10.0 15.55 8.4 15.7 M10.0 12.5 L7.55 12.8 8.15 15.0 10.0 14.8 11.85 15.0 12.4 12.8 10.0 12.5 M12.9 9.7 L9.95 9.25 7.05 9.6 Q7.15 10.8 7.4 12.0 L10.0 11.7 12.6 12.0 12.9 9.7 M2.2 12.85 Q2.3 13.7 2.85 14.7 4.2 13.05 6.65 12.25 L6.3 9.85 Q3.65 10.75 2.2 12.85 M3.3 15.35 L3.35 15.4 4.7 16.9 Q5.75 15.75 7.45 15.2 L6.85 13.0 Q4.5 13.8 3.3 15.35 M2.85 16.05 Q2.4 17.0 2.4 17.95 2.4 18.95 2.8 19.8 L3.95 20.35 3.75 19.3 Q3.75 18.35 4.25 17.55 L2.85 16.05 M2.3 11.35 L2.2 11.6 2.4 11.45 2.3 11.35 M6.3 7.85 Q6.5 6.85 6.95 6.4 L7.45 7.0 Q7.25 7.15 7.15 7.65 L10.0 7.35 12.8 7.65 Q12.7 7.05 12.4 6.95 L12.6 6.3 13.05 6.5 Q13.5 6.95 13.65 7.85 16.25 8.65 17.75 10.45 L17.2 10.95 Q15.95 9.5 13.7 8.7 L13.7 9.1 15.6 9.95 17.45 11.45 17.35 11.15 18.1 10.85 Q18.45 11.7 18.4 12.6 L18.95 13.75 18.25 14.0 18.15 13.8 17.5 15.25 Q18.4 16.5 18.4 17.95 L18.4 18.2 18.7 18.3 18.35 19.2 18.15 19.5 18.0 19.85 17.8 19.8 Q17.05 20.45 15.9 20.8 15.0 22.6 12.6 23.4 L12.95 23.45 13.15 24.05 12.65 24.25 11.7 23.65 10.0 23.85 8.3 23.65 7.15 24.25 6.75 24.1 6.95 23.45 7.35 23.4 Q5.35 22.7 4.4 21.3 3.3 21.05 2.5 20.5 L2.4 20.6 2.2 20.3 1.55 19.6 1.4 19.3 1.75 19.1 1.6 17.95 Q1.6 16.65 2.4 15.4 L1.65 13.85 1.5 14.25 0.75 14.05 1.4 12.7 Q1.3 11.9 1.55 11.05 L2.1 11.25 1.8 11.05 Q3.2 8.9 6.3 7.85 M7.05 8.5 L7.05 8.85 9.95 8.5 12.9 8.9 12.9 8.45 10.0 8.1 7.05 8.5 M6.3 9.1 L6.3 8.7 Q3.8 9.55 2.6 11.25 4.05 9.8 6.3 9.1" fill="#153d75" fill-rule="evenodd" stroke="none"/>
    <path d="M13.25 22.95 L13.3 22.75 9.85 23.25 6.5 22.75 6.55 22.9 Q8.1 23.5 9.95 23.5 L13.25 22.95 M13.4 21.9 L13.25 19.9 9.95 20.35 6.5 19.85 Q6.3 21.05 6.4 21.9 8.05 22.5 9.85 22.5 L13.4 21.9 M18.0 15.4 L16.75 13.45 Q15.7 15.2 13.25 16.1 L13.9 18.9 Q17.05 17.75 18.0 15.4 M18.2 17.65 L18.3 16.45 Q16.9 18.6 14.0 19.65 L14.15 21.6 Q17.25 20.3 18.2 17.65 M18.05 13.65 L18.3 13.55 Q18.2 12.45 17.55 11.45 L17.45 11.5 17.35 11.2 17.35 11.35 17.15 12.7 18.25 14.25 18.25 14.2 18.05 13.65 M12.55 16.35 L9.95 16.7 7.2 16.3 6.6 19.1 9.95 19.6 13.15 19.15 12.55 16.35 M9.95 12.5 L8.55 12.3 7.4 15.6 9.95 15.9 12.35 15.6 12.0 14.6 11.2 12.35 9.95 12.5 M8.85 11.6 L9.95 11.7 10.9 11.65 9.9 9.55 Q9.2 10.8 8.85 11.6 M13.7 10.9 L11.95 12.1 13.05 15.4 Q15.4 14.55 16.25 12.85 L13.7 10.9 M13.05 10.55 L12.25 10.15 10.75 9.55 11.65 11.45 13.05 10.55 M13.15 8.25 Q12.6 7.55 11.65 7.2 L10.55 8.5 13.15 8.25 M13.5 7.5 L14.05 8.3 15.15 8.55 13.5 7.5 M13.45 9.85 L13.5 9.3 13.5 9.0 11.7 9.1 13.45 9.85 M9.95 6.95 L9.0 7.0 9.9 8.1 10.75 7.0 9.95 6.95 M9.1 8.35 L8.2 7.25 Q7.35 7.55 6.85 8.15 L9.1 8.35 M16.25 9.85 Q15.45 9.3 14.25 9.1 L14.25 9.3 14.1 10.25 Q15.3 10.95 16.55 12.05 L16.6 11.35 16.25 9.85 M6.7 15.35 L7.0 14.35 7.85 12.1 Q6.9 11.7 6.3 11.05 L3.75 13.0 Q4.55 14.5 6.7 15.35 M2.5 14.55 L2.0 15.5 Q3.0 17.75 5.85 18.85 L6.5 16.05 Q4.25 15.25 3.2 13.6 L2.5 14.55 M1.65 16.5 Q1.45 17.25 1.55 17.85 2.6 20.35 5.6 21.65 5.6 20.55 5.75 19.6 2.95 18.6 1.65 16.5 M2.55 11.35 L2.55 11.15 2.35 11.45 Q1.6 12.65 1.6 13.85 L1.7 14.45 1.85 14.15 2.85 12.85 Q2.55 12.15 2.55 11.35 M2.6 10.65 L2.4 11.0 2.55 11.15 2.6 10.65 M7.35 10.45 L6.95 10.65 8.1 11.35 8.9 9.75 7.35 10.45 M6.55 10.0 L7.0 9.75 8.7 9.05 6.4 8.9 6.4 9.3 6.55 10.0 M5.9 8.2 L6.4 7.5 4.95 8.35 5.9 8.2 M5.6 9.3 L5.65 9.0 Q4.65 9.15 3.85 9.6 3.3 10.45 3.3 11.35 L3.45 12.25 Q4.55 11.15 5.85 10.4 L5.6 9.3 M2.2 9.9 L3.35 9.0 Q4.4 7.4 6.75 6.55 L6.9 6.4 7.7 6.2 7.95 6.2 9.95 6.0 11.9 6.2 12.05 6.2 12.9 6.4 12.9 6.5 Q15.65 7.35 16.8 9.3 17.55 9.9 17.95 10.65 L18.0 10.85 18.4 11.35 19.0 13.3 19.05 13.85 19.0 14.1 19.2 14.9 19.2 15.3 Q19.2 17.05 18.6 18.7 L18.1 19.5 17.95 19.85 17.55 20.65 16.25 22.1 Q15.3 22.95 13.8 23.55 L13.65 23.85 12.7 24.2 12.65 23.95 9.95 24.25 7.15 23.9 7.05 24.2 6.2 23.9 5.95 23.5 Q3.5 22.5 2.3 20.6 L2.1 20.25 2.2 20.2 1.7 19.5 1.55 19.6 Q0.5 17.5 0.5 15.3 L0.5 14.85 0.85 13.65 Q0.85 12.6 1.45 11.45 L1.4 11.45 1.6 10.85 2.2 9.9" fill="url(#gradient6)" fill-rule="evenodd" stroke="none"/>
    <path d="M10.35 10.35 L7.65 8.5 7.7 3.4 11.25 4.05 10.35 10.35" fill="url(#gradient7)" fill-rule="evenodd" stroke="none"/>
    <path d="M14.9 4.65 L13.45 9.55 10.35 10.35 11.25 4.05 14.9 4.65" fill="url(#gradient8)" fill-rule="evenodd" stroke="none"/>
    <path d="M11.0 6.0 L7.7 3.4 11.65 1.8 14.9 4.65 11.0 6.0" fill="url(#gradient9)" fill-rule="evenodd" stroke="none"/>
    <path d="M13.7 10.95 L12.1 9.8 12.8 6.9 14.9 7.25 13.7 10.95" fill="url(#gradient10)" fill-rule="evenodd" stroke="none"/>
    <path d="M16.95 7.65 L15.8 10.5 13.7 10.95 14.9 7.25 16.95 7.65" fill="url(#gradient11)" fill-rule="evenodd" stroke="none"/>
    <path d="M14.6 8.25 L12.8 6.9 15.25 6.15 16.95 7.65 14.6 8.25" fill="url(#gradient12)" fill-rule="evenodd" stroke="none"/>
    <path d="M8.9 3.1 L11.8 3.1 12.75 3.95 10.7 4.75 8.9 3.1" fill="#b3b3b3" fill-rule="evenodd" stroke="none"/>
    <path d="M10.35 4.25 L8.9 3.05 9.0 1.3 10.65 1.55 10.35 4.25" fill="url(#gradient13)" fill-rule="evenodd" stroke="none"/>
    <path d="M12.3 1.85 L12.0 3.6 10.35 4.25 10.65 1.55 12.3 1.85" fill="url(#gradient14)" fill-rule="evenodd" stroke="none"/>
    <path d="M10.55 2.6 L9.0 1.3 10.8 0.5 12.3 1.85 10.55 2.6" fill="url(#gradient15)" fill-rule="evenodd" stroke="none"/>
    <path d="M7.7 3.4 L11.05 5.7 14.9 4.65 11.15 5.9 10.35 10.35 10.85 5.9 7.7 3.4" fill="#ffffff" fill-rule="evenodd" stroke="none"/>
    <path d="M12.8 6.9 L14.6 8.1 16.95 7.65 14.7 8.25 13.7 10.95 14.45 8.2 12.8 6.9" fill="#ffffff" fill-rule="evenodd" stroke="none"/>
    <path d="M5.8 9.45 L3.3 9.8 1.35 6.4 3.65 4.9 5.8 9.45" fill="url(#gradient16)" fill-rule="evenodd" stroke="none"/>
    <path d="M6.0 3.4 L7.35 7.2 5.8 9.45 3.65 4.9 6.0 3.4" fill="url(#gradient17)" fill-rule="evenodd" stroke="none"/>
    <path d="M4.25 6.15 L1.35 6.4 3.05 3.55 6.0 3.4 4.25 6.15" fill="url(#gradient18)" fill-rule="evenodd" stroke="none"/>
    <path d="M1.35 6.4 L4.15 5.95 6.0 3.4 4.35 6.0 5.8 9.45 4.1 6.2 1.35 6.4" fill="#ffffff" fill-rule="evenodd" stroke="none"/>
  </g>
  <defs>
    <linearGradient gradientTransform="matrix(0.0018, 0.0014, 0.0016, -0.0021, 14.25, 9.75)" gradientUnits="userSpaceOnUse" id="gradient0" spreadMethod="pad" x1="-819.2" x2="819.2">
      <stop offset="0.0" stop-color="#999999"/>
      <stop offset="1.0" stop-color="#cccccc"/>
    </linearGradient>
    <linearGradient gradientTransform="matrix(0.0018, 0.0014, 0.0016, -0.002, 17.05, 11.95)" gradientUnits="userSpaceOnUse" id="gradient1" spreadMethod="pad" x1="-819.2" x2="819.2">
      <stop offset="0.0" stop-color="#333333"/>
      <stop offset="1.0" stop-color="#999999"/>
    </linearGradient>
    <linearGradient gradientTransform="matrix(0.0035, 0.0027, 0.0032, -0.0041, 18.0, 7.8)" gradientUnits="userSpaceOnUse" id="gradient2" spreadMethod="pad" x1="-819.2" x2="819.2">
      <stop offset="0.0" stop-color="#cccccc"/>
      <stop offset="1.0" stop-color="#f2f2f2"/>
    </linearGradient>
    <linearGradient gradientTransform="matrix(9.0E-4, 7.0E-4, 8.0E-4, -0.001, 17.2, 5.9)" gradientUnits="userSpaceOnUse" id="gradient3" spreadMethod="pad" x1="-819.2" x2="819.2">
      <stop offset="0.0" stop-color="#999999"/>
      <stop offset="1.0" stop-color="#cccccc"/>
    </linearGradient>
    <linearGradient gradientTransform="matrix(8.0E-4, 6.0E-4, 7.0E-4, -9.0E-4, 18.5, 6.9)" gradientUnits="userSpaceOnUse" id="gradient4" spreadMethod="pad" x1="-819.2" x2="819.2">
      <stop offset="0.0" stop-color="#333333"/>
      <stop offset="1.0" stop-color="#999999"/>
    </linearGradient>
    <linearGradient gradientTransform="matrix(0.0016, 0.0013, 0.0014, -0.0018, 18.8, 5.1)" gradientUnits="userSpaceOnUse" id="gradient5" spreadMethod="pad" x1="-819.2" x2="819.2">
      <stop offset="0.0" stop-color="#cccccc"/>
      <stop offset="1.0" stop-color="#f2f2f2"/>
    </linearGradient>
    <radialGradient cx="0" cy="0" gradientTransform="matrix(0.0164, 0.0, 0.0, -0.0164, 8.25, 11.65)" gradientUnits="userSpaceOnUse" id="gradient6" r="819.2" spreadMethod="pad">
      <stop offset="0.0" stop-color="#ffffff"/>
      <stop offset="0.050980392156862744" stop-color="#f2ffff"/>
      <stop offset="0.1450980392156863" stop-color="#cffffe"/>
      <stop offset="0.27450980392156865" stop-color="#97fffd"/>
      <stop offset="0.30196078431372547" stop-color="#8afffd"/>
      <stop offset="0.43529411764705883" stop-color="#66fffc"/>
      <stop offset="0.49019607843137253" stop-color="#56d7d8"/>
      <stop offset="0.5803921568627451" stop-color="#3e9aa1"/>
      <stop offset="0.6666666666666666" stop-color="#2b6a76"/>
      <stop offset="0.7372549019607844" stop-color="#1d4757"/>
      <stop offset="0.796078431372549" stop-color="#153244"/>
      <stop offset="0.8352941176470589" stop-color="#122a3d"/>
      <stop offset="1.0" stop-color="#6d899e"/>
    </radialGradient>
    <linearGradient gradientTransform="matrix(0.0022, 4.0E-4, 4.0E-4, -0.0022, 9.0, 6.85)" gradientUnits="userSpaceOnUse" id="gradient7" spreadMethod="pad" x1="-819.2" x2="819.2">
      <stop offset="0.0" stop-color="#999999"/>
      <stop offset="1.0" stop-color="#cccccc"/>
    </linearGradient>
    <linearGradient gradientTransform="matrix(0.0022, 4.0E-4, 4.0E-4, -0.0022, 12.55, 7.45)" gradientUnits="userSpaceOnUse" id="gradient8" spreadMethod="pad" x1="-819.2" x2="819.2">
      <stop offset="0.0" stop-color="#333333"/>
      <stop offset="1.0" stop-color="#999999"/>
    </linearGradient>
    <linearGradient gradientTransform="matrix(0.0044, 7.0E-4, 7.0E-4, -0.0044, 11.35, 3.9)" gradientUnits="userSpaceOnUse" id="gradient9" spreadMethod="pad" x1="-819.2" x2="819.2">
      <stop offset="0.0" stop-color="#cccccc"/>
      <stop offset="1.0" stop-color="#f2f2f2"/>
    </linearGradient>
    <linearGradient gradientTransform="matrix(0.0014, 2.0E-4, 2.0E-4, -0.0014, 13.45, 8.95)" gradientUnits="userSpaceOnUse" id="gradient10" spreadMethod="pad" x1="-819.2" x2="819.2">
      <stop offset="0.0" stop-color="#999999"/>
      <stop offset="1.0" stop-color="#cccccc"/>
    </linearGradient>
    <linearGradient gradientTransform="matrix(0.0016, 3.0E-4, 3.0E-4, -0.0016, 15.35, 9.3)" gradientUnits="userSpaceOnUse" id="gradient11" spreadMethod="pad" x1="-819.2" x2="819.2">
      <stop offset="0.0" stop-color="#333333"/>
      <stop offset="1.0" stop-color="#999999"/>
    </linearGradient>
    <linearGradient gradientTransform="matrix(0.0025, 4.0E-4, 4.0E-4, -0.0025, 14.9, 7.25)" gradientUnits="userSpaceOnUse" id="gradient12" spreadMethod="pad" x1="-819.2" x2="819.2">
      <stop offset="0.0" stop-color="#cccccc"/>
      <stop offset="1.0" stop-color="#f2f2f2"/>
    </linearGradient>
    <linearGradient gradientTransform="matrix(0.0011, 2.0E-4, 2.0E-4, -0.0011, 9.7, 2.75)" gradientUnits="userSpaceOnUse" id="gradient13" spreadMethod="pad" x1="-819.2" x2="819.2">
      <stop offset="0.0" stop-color="#999999"/>
      <stop offset="1.0" stop-color="#cccccc"/>
    </linearGradient>
    <linearGradient gradientTransform="matrix(0.001, 2.0E-4, 2.0E-4, -0.001, 11.25, 3.0)" gradientUnits="userSpaceOnUse" id="gradient14" spreadMethod="pad" x1="-819.2" x2="819.2">
      <stop offset="0.0" stop-color="#333333"/>
      <stop offset="1.0" stop-color="#999999"/>
    </linearGradient>
    <linearGradient gradientTransform="matrix(0.002, 3.0E-4, 3.0E-4, -0.002, 10.65, 1.55)" gradientUnits="userSpaceOnUse" id="gradient15" spreadMethod="pad" x1="-819.2" x2="819.2">
      <stop offset="0.0" stop-color="#cccccc"/>
      <stop offset="1.0" stop-color="#f2f2f2"/>
    </linearGradient>
    <linearGradient gradientTransform="matrix(0.0015, -0.001, -0.001, -0.0015, 3.8, 7.8)" gradientUnits="userSpaceOnUse" id="gradient16" spreadMethod="pad" x1="-819.2" x2="819.2">
      <stop offset="0.0" stop-color="#999999"/>
      <stop offset="1.0" stop-color="#cccccc"/>
    </linearGradient>
    <linearGradient gradientTransform="matrix(0.0018, -0.0012, -0.0012, -0.0018, 5.9, 6.4)" gradientUnits="userSpaceOnUse" id="gradient17" spreadMethod="pad" x1="-819.2" x2="819.2">
      <stop offset="0.0" stop-color="#333333"/>
      <stop offset="1.0" stop-color="#999999"/>
    </linearGradient>
    <linearGradient gradientTransform="matrix(0.0028, -0.0018, -0.0018, -0.0028, 3.65, 4.85)" gradientUnits="userSpaceOnUse" id="gradient18" spreadMethod="pad" x1="-819.2" x2="819.2">
      <stop offset="0.0" stop-color="#cccccc"/>
      <stop offset="1.0" stop-color="#f2f2f2"/>
    </linearGradient>
  </defs>
</svg>
