<?xml version="1.0" encoding="UTF-8" standalone="no"?>
<svg xmlns:ffdec="https://www.free-decompiler.com/flash" xmlns:xlink="http://www.w3.org/1999/xlink" ffdec:objectType="shape" height="37.05px" width="37.05px" xmlns="http://www.w3.org/2000/svg">
  <g transform="matrix(1.0, 0.0, 0.0, 1.0, -2.05, -2.05)">
    <path d="M20.55 2.05 Q28.25 2.05 33.7 7.45 39.1 12.9 39.1 20.55 39.1 28.2 33.7 33.65 28.25 39.1 20.55 39.1 12.9 39.1 7.45 33.65 2.05 28.2 2.05 20.55 2.05 12.9 7.45 7.45 12.9 2.05 20.55 2.05" fill="url(#gradient0)" fill-rule="evenodd" stroke="none"/>
    <path d="M20.55 3.0 Q27.9 3.0 33.0 8.15 38.15 13.35 38.15 20.6 38.15 27.85 33.0 33.05 27.8 38.15 20.55 38.15 13.3 38.15 8.15 33.0 3.0 27.85 3.0 20.55 3.0 13.3 8.15 8.15 10.6 5.7 13.85 4.35 17.05 3.0 20.55 3.0" fill="url(#gradient1)" fill-rule="evenodd" stroke="none"/>
    <path d="M20.55 7.95 Q15.3 7.95 11.65 11.65 7.95 15.3 7.95 20.6 7.95 25.8 11.65 29.5 15.3 33.2 20.55 33.2 25.8 33.2 29.5 29.5 33.2 25.8 33.2 20.6 33.2 15.35 29.5 11.65 25.8 7.95 20.55 7.95 M31.15 9.95 Q35.55 14.4 35.55 20.6 35.55 26.8 31.15 31.15 26.75 35.55 20.55 35.55 14.4 35.55 9.95 31.15 5.6 26.8 5.6 20.6 5.6 14.4 9.95 9.95 14.35 5.6 20.55 5.6 26.8 5.6 31.15 9.95" fill="#2c2736" fill-rule="evenodd" stroke="none"/>
    <path d="M9.8 31.55 L5.6 34.0 5.3 33.5 9.55 31.1 9.8 31.55" fill="#211c18" fill-rule="evenodd" stroke="none"/>
    <path d="M31.45 31.45 L31.7 31.0 35.85 33.45 35.6 33.95 31.45 31.45" fill="#211c18" fill-rule="evenodd" stroke="none"/>
    <path d="M20.95 7.1 L20.95 12.0 20.45 12.0 20.45 7.1 20.95 7.1" fill="#211c18" fill-rule="evenodd" stroke="none"/>
    <path d="M20.5 33.95 Q14.95 33.95 11.1 30.0 7.2 26.15 7.2 20.6 7.2 15.05 11.1 11.15 15.0 7.25 20.5 7.25 26.05 7.25 29.95 11.15 33.9 15.05 33.9 20.6 33.9 26.15 29.95 30.05 26.1 33.95 20.5 33.95" fill="url(#gradient2)" fill-rule="evenodd" stroke="none"/>
    <path d="M29.3 11.75 Q25.65 8.1 20.5 8.1 15.35 8.1 11.7 11.75 8.1 15.4 8.1 20.6 8.1 25.7 11.7 29.35 15.3 33.0 20.5 33.0 25.7 33.0 29.3 29.4 32.95 25.75 32.95 20.6 32.95 15.4 29.3 11.75 M20.5 7.2 Q26.05 7.2 29.95 11.15 33.85 15.05 33.85 20.6 33.85 26.1 29.95 30.05 26.1 33.9 20.5 33.9 14.9 33.9 11.1 30.0 7.2 26.1 7.2 20.6 7.2 15.05 11.1 11.15 15.0 7.2 20.5 7.2" fill="#2079ff" fill-rule="evenodd" stroke="none"/>
  </g>
  <defs>
    <linearGradient gradientTransform="matrix(0.0, -0.0226, -0.0226, 0.0, 20.55, 20.55)" gradientUnits="userSpaceOnUse" id="gradient0" spreadMethod="pad" x1="-819.2" x2="819.2">
      <stop offset="0.0" stop-color="#1c1c1c"/>
      <stop offset="0.27450980392156865" stop-color="#202020"/>
      <stop offset="0.5450980392156862" stop-color="#2c2c2c"/>
      <stop offset="0.8156862745098039" stop-color="#404040"/>
      <stop offset="1.0" stop-color="#525252"/>
    </linearGradient>
    <linearGradient gradientTransform="matrix(0.0, -0.0215, -0.0215, 0.0, 20.55, 20.55)" gradientUnits="userSpaceOnUse" id="gradient1" spreadMethod="pad" x1="-819.2" x2="819.2">
      <stop offset="0.0" stop-color="#7b7b7b"/>
      <stop offset="0.403921568627451" stop-color="#2f2f2f"/>
      <stop offset="1.0" stop-color="#b6b6b8"/>
    </linearGradient>
    <linearGradient gradientTransform="matrix(0.0, -0.0163, -0.0163, 0.0, 20.5, 20.6)" gradientUnits="userSpaceOnUse" id="gradient2" spreadMethod="pad" x1="-819.2" x2="819.2">
      <stop offset="0.0" stop-color="#0f6cf9"/>
      <stop offset="0.22745098039215686" stop-color="#0553c7"/>
      <stop offset="0.47843137254901963" stop-color="#043f95"/>
      <stop offset="0.7098039215686275" stop-color="#02347d"/>
      <stop offset="0.8823529411764706" stop-color="#01265c"/>
      <stop offset="1.0" stop-color="#012354"/>
    </linearGradient>
  </defs>
</svg>
