<?xml version="1.0" encoding="UTF-8" standalone="no"?>
<svg xmlns:ffdec="https://www.free-decompiler.com/flash" xmlns:xlink="http://www.w3.org/1999/xlink" ffdec:objectType="shape" height="22.35px" width="20.8px" xmlns="http://www.w3.org/2000/svg">
  <g transform="matrix(1.0, 0.0, 0.0, 1.0, 0.0, 0.0)">
    <path d="M17.45 7.25 Q16.75 10.55 13.95 13.25 L13.5 13.7 15.1 16.75 17.25 16.75 20.8 22.35 1.4 22.35 4.95 16.75 7.9 16.75 7.95 16.55 6.45 16.7 Q4.0 16.7 2.5 15.15 L2.05 14.65 2.0 14.65 2.0 14.55 1.65 13.95 Q0.7 12.15 1.2 9.8 1.65 7.4 3.35 5.2 L2.7 5.3 Q1.6 5.3 0.8 4.55 0.0 3.75 0.0 2.7 0.0 1.6 0.8 0.8 1.6 0.0 2.7 0.0 3.8 0.0 4.55 0.8 5.35 1.6 5.35 2.7 L5.25 3.15 Q6.85 1.8 8.65 1.05 10.5 0.25 12.2 0.25 14.05 0.25 15.35 1.15 L15.75 1.4 16.2 1.8 Q18.15 3.85 17.45 7.25" fill="#1a1a1a" fill-rule="evenodd" stroke="none"/>
    <path d="M15.7 2.3 Q17.4 4.05 16.8 7.1 16.1 10.15 13.5 12.75 10.9 15.35 7.8 15.9 4.7 16.45 2.95 14.65 1.25 12.9 1.9 9.85 2.55 6.8 5.15 4.25 7.8 1.65 10.9 1.1 13.95 0.55 15.7 2.3" fill="url(#gradient0)" fill-rule="evenodd" stroke="none"/>
    <path d="M8.9 14.7 L12.65 13.5 14.7 17.5 8.45 17.7 8.9 14.7" fill="#4d4d4d" fill-rule="evenodd" stroke="none"/>
    <path d="M19.5 21.65 L2.65 21.65 5.35 17.45 16.85 17.45 19.5 21.65" fill="url(#gradient1)" fill-rule="evenodd" stroke="none"/>
    <path d="M6.7 3.2 Q9.6 1.1 12.05 1.05 13.65 1.0 14.85 1.75 L14.2 2.25 Q13.0 1.5 11.35 1.65 8.65 2.0 5.6 4.8 2.75 7.5 2.0 10.15 3.1 5.9 6.7 3.2" fill="#ffffff" fill-rule="evenodd" stroke="none"/>
    <path d="M14.55 7.55 Q15.35 8.5 14.9 10.05 14.45 11.65 12.95 12.85 11.45 14.05 9.85 14.2 8.25 14.4 7.45 13.4 6.65 12.4 7.1 10.85 7.55 9.3 9.0 8.1 10.5 6.9 12.1 6.7 13.7 6.55 14.55 7.55" fill="#999999" fill-rule="evenodd" stroke="none"/>
    <path d="M11.2 12.5 L3.3 3.85 3.75 3.2 13.0 10.65 11.2 12.5" fill="url(#gradient2)" fill-rule="evenodd" stroke="none"/>
    <path d="M4.6 2.7 Q4.6 3.5 4.05 4.05 3.5 4.6 2.7 4.6 1.9 4.6 1.3 4.05 0.7 3.5 0.7 2.7 0.7 1.85 1.3 1.3 1.9 0.7 2.7 0.7 3.5 0.7 4.05 1.3 4.6 1.85 4.6 2.7" fill="url(#gradient3)" fill-rule="evenodd" stroke="none"/>
    <path d="M15.7 2.3 Q17.4 4.05 16.8 7.1 16.1 10.15 13.5 12.75 10.9 15.35 7.8 15.9 4.7 16.45 2.95 14.65 L2.25 13.65 6.75 13.5 Q9.35 12.65 11.55 10.5 13.6 8.5 14.55 6.1 15.45 3.7 15.0 1.75 L15.7 2.3" fill="url(#gradient4)" fill-rule="evenodd" stroke="none"/>
    <path d="M14.85 1.75 L15.0 1.9 15.1 3.3 Q15.0 5.05 14.45 6.65 12.55 11.8 6.1 13.75 8.5 12.95 10.55 11.1 14.45 7.55 14.2 2.25 L14.85 1.75" fill="#ffffff" fill-rule="evenodd" stroke="none"/>
    <path d="M3.55 20.3 L4.05 19.45 16.9 19.45 15.9 17.45 16.85 17.45 19.5 21.65 2.65 21.65 3.05 21.05 17.6 21.05 17.2 20.3 3.55 20.3" fill="#666666" fill-rule="evenodd" stroke="none"/>
  </g>
  <defs>
    <linearGradient gradientTransform="matrix(0.0022, -0.007, -0.007, -0.0022, 9.55, 7.8)" gradientUnits="userSpaceOnUse" id="gradient0" spreadMethod="pad" x1="-819.2" x2="819.2">
      <stop offset="0.0" stop-color="#f2f2f2"/>
      <stop offset="1.0" stop-color="#808080"/>
    </linearGradient>
    <linearGradient gradientTransform="matrix(0.0033, 0.0, 0.0, -0.0033, 7.95, 19.55)" gradientUnits="userSpaceOnUse" id="gradient1" spreadMethod="pad" x1="-819.2" x2="819.2">
      <stop offset="0.0" stop-color="#999999"/>
      <stop offset="1.0" stop-color="#b3b3b3"/>
    </linearGradient>
    <linearGradient gradientTransform="matrix(-9.0E-4, 9.0E-4, 9.0E-4, 9.0E-4, 7.7, 7.65)" gradientUnits="userSpaceOnUse" id="gradient2" spreadMethod="pad" x1="-819.2" x2="819.2">
      <stop offset="0.0" stop-color="#ffffff"/>
      <stop offset="1.0" stop-color="#4d4d4d"/>
    </linearGradient>
    <radialGradient cx="0" cy="0" gradientTransform="matrix(0.0042, 0.0, 0.0, -0.0042, 2.1, 2.25)" gradientUnits="userSpaceOnUse" id="gradient3" r="819.2" spreadMethod="pad">
      <stop offset="0.0" stop-color="#ffffff"/>
      <stop offset="1.0" stop-color="#000000"/>
    </radialGradient>
    <linearGradient gradientTransform="matrix(0.009, 0.0, 0.0, -0.009, 9.6, 8.85)" gradientUnits="userSpaceOnUse" id="gradient4" spreadMethod="pad" x1="-819.2" x2="819.2">
      <stop offset="0.0" stop-color="#1a1a1a"/>
      <stop offset="1.0" stop-color="#b3b3b3"/>
    </linearGradient>
  </defs>
</svg>
