<?xml version="1.0" encoding="UTF-8" standalone="no"?>
<svg xmlns:ffdec="https://www.free-decompiler.com/flash" xmlns:xlink="http://www.w3.org/1999/xlink" ffdec:objectType="shape" height="27.4px" width="38.5px" xmlns="http://www.w3.org/2000/svg">
  <g transform="matrix(1.0, 0.0, 0.0, 1.0, 0.0, 0.0)">
    <path d="M0.0 13.4 Q0.1 7.7 5.8 3.75 11.55 -0.15 19.5 0.0 27.45 0.15 33.05 4.25 38.6 8.35 38.5 14.05 38.4 19.7 32.7 23.65 27.0 27.55 19.05 27.4 11.05 27.25 5.5 23.15 -0.1 19.05 0.0 13.4" fill="url(#gradient0)" fill-rule="evenodd" stroke="none"/>
    <path d="M2.05 14.4 Q2.05 9.6 7.05 6.2 12.1 2.85 19.15 2.85 26.25 2.85 31.25 6.2 36.3 9.6 36.3 14.4 36.3 19.2 31.25 22.55 26.25 25.95 19.15 25.95 12.05 25.95 7.05 22.55 2.05 19.2 2.05 14.4" fill="#515a60" fill-rule="evenodd" stroke="none"/>
    <path d="M3.05 15.85 Q3.05 11.5 7.75 8.45 12.45 5.4 19.15 5.35 25.8 5.35 30.55 8.4 35.3 11.5 35.3 15.8 35.3 20.15 30.55 23.2 25.85 26.3 19.15 26.3 12.5 26.3 7.75 23.2 3.05 20.15 3.05 15.85" fill="url(#gradient1)" fill-rule="evenodd" stroke="none"/>
    <path d="M19.15 5.85 Q12.75 5.85 8.0 8.85 3.55 11.8 3.55 15.85 3.55 19.85 8.05 22.8 12.65 25.75 19.15 25.75 25.7 25.75 30.3 22.8 34.8 19.85 34.8 15.8 34.8 11.7 30.3 8.85 25.7 5.85 19.15 5.85 M3.05 15.85 Q3.05 11.5 7.75 8.45 12.5 5.35 19.15 5.35 25.75 5.35 30.55 8.4 35.3 11.5 35.3 15.8 35.3 20.15 30.55 23.2 25.85 26.25 19.15 26.25 12.45 26.25 7.75 23.2 3.05 20.15 3.05 15.85" fill="#0068ff" fill-rule="evenodd" stroke="none"/>
  </g>
  <defs>
    <linearGradient gradientTransform="matrix(-0.0045, -0.0166, 0.0166, -0.0045, 19.25, 13.7)" gradientUnits="userSpaceOnUse" id="gradient0" spreadMethod="pad" x1="-819.2" x2="819.2">
      <stop offset="0.0" stop-color="#737375"/>
      <stop offset="1.0" stop-color="#abb1b2"/>
    </linearGradient>
    <linearGradient gradientTransform="matrix(0.0, 0.0128, -0.0128, 0.0, 19.15, 15.8)" gradientUnits="userSpaceOnUse" id="gradient1" spreadMethod="pad" x1="-819.2" x2="819.2">
      <stop offset="0.0" stop-color="#0547d1"/>
      <stop offset="0.22745098039215686" stop-color="#03369f"/>
      <stop offset="0.47843137254901963" stop-color="#02256f"/>
      <stop offset="0.7019607843137254" stop-color="#01194b"/>
      <stop offset="0.8823529411764706" stop-color="#001236"/>
      <stop offset="1.0" stop-color="#000f2e"/>
    </linearGradient>
  </defs>
</svg>
