<?xml version="1.0" encoding="UTF-8" standalone="no"?>
<svg xmlns:ffdec="https://www.free-decompiler.com/flash" xmlns:xlink="http://www.w3.org/1999/xlink" ffdec:objectType="shape" height="29.9px" width="34.25px" xmlns="http://www.w3.org/2000/svg">
  <g transform="matrix(1.0, 0.0, 0.0, 1.0, 0.05, 0.0)">
    <path d="M34.15 11.4 Q34.3 12.45 33.65 13.25 L32.35 14.8 Q31.45 15.85 30.05 15.85 L29.1 15.7 29.1 27.35 Q29.1 28.4 28.35 29.15 27.6 29.9 26.55 29.9 L7.65 29.9 Q6.6 29.9 5.85 29.15 5.1 28.4 5.1 27.35 L5.1 15.7 4.15 15.85 Q2.7 15.85 1.8 14.8 L0.55 13.25 Q-0.15 12.4 0.0 11.4 0.25 10.3 1.15 9.85 L15.15 1.95 Q16.0 1.45 17.1 1.45 18.15 1.45 19.05 1.95 L21.35 3.25 21.35 1.85 Q21.35 1.1 21.9 0.55 22.4 0.0 23.2 0.0 L27.4 0.0 Q28.15 0.0 28.7 0.55 29.2 1.1 29.2 1.85 L29.2 7.7 33.0 9.85 Q34.0 10.35 34.15 11.4" fill="#000000" fill-rule="evenodd" stroke="none"/>
  </g>
</svg>
