<?xml version="1.0" encoding="UTF-8" standalone="no"?>
<svg xmlns:ffdec="https://www.free-decompiler.com/flash" xmlns:xlink="http://www.w3.org/1999/xlink" ffdec:objectType="shape" height="17.6px" width="20.15px" xmlns="http://www.w3.org/2000/svg">
  <g transform="matrix(1.0, 0.0, 0.0, 1.0, -8.6, -5.35)">
    <path d="M8.6 12.05 Q8.75 11.4 9.3 11.15 L17.55 6.5 Q18.05 6.2 18.7 6.2 L19.85 6.5 21.2 7.25 21.2 6.4 Q21.2 5.95 21.5 5.65 21.8 5.35 22.3 5.35 L24.75 5.35 Q25.2 5.35 25.5 5.65 L25.8 6.4 25.8 9.85 28.05 11.15 Q28.65 11.4 28.75 12.05 28.8 12.65 28.45 13.15 L27.65 14.05 Q27.15 14.65 26.3 14.65 L25.75 14.55 25.75 21.45 25.3 22.5 Q24.9 22.95 24.25 22.95 L13.15 22.95 Q12.5 22.95 12.05 22.5 11.6 22.05 11.6 21.45 L11.6 14.55 11.05 14.65 Q10.2 14.65 9.7 14.05 L8.95 13.15 Q8.55 12.65 8.6 12.05" fill="#1a1a1a" fill-rule="evenodd" stroke="none"/>
    <path d="M9.25 12.85 Q8.95 12.5 9.05 12.1 9.1 11.7 9.5 11.5 L17.75 6.85 18.7 6.6 19.6 6.85 21.65 8.0 21.65 6.4 21.85 5.95 Q22.0 5.75 22.3 5.75 L24.75 5.75 25.2 5.95 25.4 6.4 25.4 10.1 27.85 11.5 28.3 12.1 Q28.4 12.5 28.1 12.85 L27.35 13.8 26.6 14.2 25.75 14.05 25.3 13.85 25.3 21.45 25.0 22.2 Q24.7 22.55 24.25 22.55 L13.15 22.55 Q12.7 22.55 12.35 22.2 12.05 21.9 12.05 21.45 L12.05 13.85 11.65 14.05 10.75 14.2 Q10.3 14.1 10.0 13.8 L9.25 12.85" fill="#5c5c61" fill-rule="evenodd" stroke="none"/>
    <path d="M21.65 10.9 L21.65 6.4 21.85 5.95 Q22.0 5.75 22.3 5.75 L24.75 5.75 25.2 5.95 25.4 6.4 25.4 10.9 21.65 10.9" fill="#5c5c61" fill-rule="evenodd" stroke="none"/>
    <path d="M21.65 10.65 L21.65 6.1 21.85 5.9 24.6 5.9 24.8 6.1 24.8 10.65 21.65 10.65" fill="#e6e6e6" fill-rule="evenodd" stroke="none"/>
    <path d="M22.05 10.45 L22.05 6.4 Q22.05 6.2 22.3 6.2 L24.75 6.2 24.95 6.4 24.95 10.45 22.05 10.45" fill="url(#gradient0)" fill-rule="evenodd" stroke="none"/>
    <path d="M25.3 12.45 L25.3 21.45 25.0 22.2 Q24.7 22.55 24.25 22.55 L13.15 22.55 Q12.7 22.55 12.35 22.2 12.05 21.9 12.05 21.45 L12.05 12.45 18.65 9.05 25.3 12.45" fill="#5c5c61" fill-rule="evenodd" stroke="none"/>
    <path d="M24.45 12.7 L24.45 21.45 24.3 21.9 Q24.1 22.1 23.8 22.1 L12.7 22.1 Q12.4 22.1 12.25 21.9 L12.05 21.45 12.05 12.7 18.2 9.5 24.45 12.7" fill="#e6e6e6" fill-rule="evenodd" stroke="none"/>
    <path d="M24.9 12.7 L24.9 21.45 24.7 21.9 24.25 22.1 13.15 22.1 Q12.85 22.1 12.7 21.9 L12.5 21.45 12.5 12.7 18.65 9.5 24.9 12.7" fill="url(#gradient1)" fill-rule="evenodd" stroke="none"/>
    <path d="M22.05 17.25 L22.05 22.1 15.35 22.1 15.35 17.25 22.05 17.25" fill="url(#gradient2)" fill-rule="evenodd" stroke="none"/>
    <path d="M21.55 17.7 L21.55 22.5 15.8 22.5 15.8 17.7 21.55 17.7" fill="#1b1a23" fill-rule="evenodd" stroke="none"/>
    <path d="M13.8 11.55 L14.85 11.0 18.1 14.25 18.1 9.3 18.65 9.05 19.25 9.35 19.25 14.25 22.5 11.0 23.6 11.55 20.35 14.8 25.3 14.8 25.3 15.95 12.05 15.95 12.05 14.8 17.05 14.8 13.8 11.55" fill="#332513" fill-rule="evenodd" stroke="none"/>
    <path d="M13.8 11.35 L14.85 10.75 18.1 14.05 18.1 9.1 18.65 8.8 19.25 9.15 19.25 14.05 22.5 10.8 23.6 11.35 20.35 14.55 25.3 14.55 25.3 15.7 12.05 15.7 12.05 14.55 17.05 14.55 13.8 11.35" fill="#a18628" fill-rule="evenodd" stroke="none"/>
    <path d="M9.25 12.85 Q8.95 12.5 9.05 12.1 9.1 11.7 9.5 11.5 L17.75 6.85 18.7 6.6 19.6 6.85 27.85 11.5 28.3 12.1 Q28.4 12.5 28.1 12.85 L27.35 13.8 26.6 14.2 25.75 14.05 19.65 10.8 18.7 10.6 17.75 10.8 11.65 14.05 10.75 14.2 Q10.3 14.1 10.0 13.8 L9.25 12.85" fill="#5c5c61" fill-rule="evenodd" stroke="none"/>
    <path d="M17.35 10.05 L11.2 13.35 10.75 13.45 10.05 13.15 9.3 12.2 9.2 11.85 Q9.25 11.6 9.45 11.5 L17.8 6.8 18.5 6.6 19.25 6.8 27.6 11.5 27.85 11.85 27.75 12.2 26.95 13.15 26.25 13.45 25.85 13.35 19.65 10.05 18.5 9.75 Q17.85 9.75 17.35 10.05" fill="#e6e6e6" fill-rule="evenodd" stroke="none"/>
    <path d="M17.55 10.4 L11.45 13.7 11.05 13.8 Q10.6 13.8 10.35 13.5 L9.6 12.55 9.45 12.2 9.75 11.85 17.95 7.2 18.7 7.05 19.4 7.2 27.65 11.85 27.9 12.2 27.75 12.55 27.05 13.5 Q26.75 13.8 26.3 13.8 L25.9 13.7 19.85 10.4 18.7 10.15 17.55 10.4" fill="url(#gradient3)" fill-rule="evenodd" stroke="none"/>
  </g>
  <defs>
    <linearGradient gradientTransform="matrix(0.0018, 0.0, 0.0, -0.0018, 23.5, 8.35)" gradientUnits="userSpaceOnUse" id="gradient0" spreadMethod="pad" x1="-819.2" x2="819.2">
      <stop offset="0.0" stop-color="#e6e4d1"/>
      <stop offset="1.0" stop-color="#9999a1"/>
    </linearGradient>
    <linearGradient gradientTransform="matrix(0.0, 0.0077, 0.0077, 0.0, 18.7, 15.6)" gradientUnits="userSpaceOnUse" id="gradient1" spreadMethod="pad" x1="-819.2" x2="819.2">
      <stop offset="0.3803921568627451" stop-color="#bebdad"/>
      <stop offset="1.0" stop-color="#5c5c61"/>
    </linearGradient>
    <linearGradient gradientTransform="matrix(-0.0035, 5.0E-4, 5.0E-4, 0.0035, 18.85, 19.65)" gradientUnits="userSpaceOnUse" id="gradient2" spreadMethod="pad" x1="-819.2" x2="819.2">
      <stop offset="0.0" stop-color="#999999"/>
      <stop offset="1.0" stop-color="#5c5c61"/>
    </linearGradient>
    <linearGradient gradientTransform="matrix(0.0073, 0.0017, 0.0017, -0.0073, 20.15, 11.65)" gradientUnits="userSpaceOnUse" id="gradient3" spreadMethod="pad" x1="-819.2" x2="819.2">
      <stop offset="0.0" stop-color="#e6e4d1"/>
      <stop offset="1.0" stop-color="#9999a1"/>
    </linearGradient>
  </defs>
</svg>
