<?xml version="1.0" encoding="UTF-8" standalone="no"?>
<svg xmlns:ffdec="https://www.free-decompiler.com/flash" xmlns:xlink="http://www.w3.org/1999/xlink" ffdec:objectType="shape" height="27.45px" width="38.5px" xmlns="http://www.w3.org/2000/svg">
  <g transform="matrix(1.0, 0.0, 0.0, 1.0, 0.0, 0.0)">
    <path d="M33.05 4.25 Q38.6 8.4 38.5 14.05 38.4 19.75 32.7 23.65 27.0 27.6 19.05 27.45 11.05 27.35 5.5 23.2 -0.1 19.1 0.0 13.4 0.1 7.7 5.8 3.8 11.55 -0.15 19.5 0.0 27.45 0.15 33.05 4.25" fill="url(#gradient0)" fill-rule="evenodd" stroke="none"/>
    <path d="M31.25 6.25 Q36.3 9.65 36.3 14.4 36.3 19.2 31.25 22.6 26.25 26.0 19.15 26.0 12.1 26.0 7.05 22.6 2.05 19.2 2.05 14.45 2.05 9.6 7.05 6.25 12.1 2.85 19.15 2.85 26.25 2.85 31.25 6.25" fill="#515a60" fill-rule="evenodd" stroke="none"/>
    <path d="M30.55 8.45 Q35.3 11.55 35.3 15.85 35.3 20.2 30.55 23.25 25.8 26.3 19.15 26.3 12.45 26.3 7.75 23.25 3.05 20.2 3.05 15.85 3.05 11.55 7.75 8.45 12.5 5.4 19.15 5.4 25.85 5.4 30.55 8.45" fill="url(#gradient1)" fill-rule="evenodd" stroke="none"/>
    <path d="M30.55 8.45 Q35.3 11.55 35.3 15.85 35.3 20.2 30.55 23.25 25.85 26.3 19.15 26.3 12.45 26.3 7.75 23.25 3.05 20.2 3.05 15.85 3.05 11.55 7.75 8.45 12.45 5.4 19.15 5.4 25.85 5.4 30.55 8.45 M30.3 22.8 Q34.8 19.95 34.8 15.85 34.8 11.75 30.3 8.9 25.7 5.9 19.15 5.9 12.6 5.9 8.0 8.9 3.55 11.8 3.55 15.85 3.55 19.9 8.05 22.85 12.65 25.8 19.15 25.8 25.75 25.8 30.3 22.8" fill="#00aaff" fill-rule="evenodd" stroke="none"/>
  </g>
  <defs>
    <linearGradient gradientTransform="matrix(0.0039, 0.0168, -0.0168, 0.0039, 19.25, 13.75)" gradientUnits="userSpaceOnUse" id="gradient0" spreadMethod="pad" x1="-819.2" x2="819.2">
      <stop offset="0.0" stop-color="#737375"/>
      <stop offset="0.4745098039215686" stop-color="#bac2c2"/>
      <stop offset="1.0" stop-color="#babfbf"/>
    </linearGradient>
    <radialGradient cx="0" cy="0" gradientTransform="matrix(-0.0166, 0.0, 0.0, -0.0166, 19.15, 15.85)" gradientUnits="userSpaceOnUse" id="gradient1" r="819.2" spreadMethod="pad">
      <stop offset="0.0" stop-color="#000f2e"/>
      <stop offset="0.11764705882352941" stop-color="#001236"/>
      <stop offset="0.2980392156862745" stop-color="#01194b"/>
      <stop offset="0.5215686274509804" stop-color="#02256f"/>
      <stop offset="0.7725490196078432" stop-color="#03369f"/>
      <stop offset="1.0" stop-color="#0547d1"/>
    </radialGradient>
  </defs>
</svg>
