<?xml version="1.0" encoding="UTF-8" standalone="no"?>
<svg xmlns:ffdec="https://www.free-decompiler.com/flash" xmlns:xlink="http://www.w3.org/1999/xlink" ffdec:objectType="shape" height="24.7px" width="34.65px" xmlns="http://www.w3.org/2000/svg">
  <g transform="matrix(1.0, 0.0, 0.0, 1.0, -1.95, -1.35)">
    <path d="M31.7 5.2 Q36.7 8.9 36.6 14.0 36.55 19.15 31.4 22.65 26.25 26.2 19.1 26.05 11.9 26.0 6.9 22.25 1.9 18.55 1.95 13.4 2.05 8.3 7.2 4.8 12.35 1.25 19.5 1.35 26.65 1.5 31.7 5.2" fill="url(#gradient0)" fill-rule="evenodd" stroke="none"/>
    <path d="M30.1 7.0 Q34.65 10.05 34.65 14.3 34.65 18.65 30.1 21.7 25.6 24.75 19.2 24.75 12.85 24.75 8.3 21.7 3.8 18.65 3.8 14.35 3.8 10.0 8.3 7.0 12.85 3.95 19.2 3.95 25.6 3.95 30.1 7.0" fill="#515a60" fill-rule="evenodd" stroke="none"/>
    <path d="M29.45 8.95 Q33.75 11.75 33.75 15.65 33.75 19.55 29.45 22.3 25.2 25.05 19.2 25.05 13.15 25.05 8.95 22.3 4.7 19.55 4.7 15.65 4.7 11.75 8.95 8.95 13.2 6.2 19.2 6.2 25.25 6.2 29.45 8.95" fill="url(#gradient1)" fill-rule="evenodd" stroke="none"/>
    <path d="M29.25 21.9 Q33.3 19.3 33.3 15.65 33.3 11.95 29.25 9.35 25.1 6.65 19.2 6.65 13.3 6.65 9.15 9.35 5.15 12.0 5.15 15.65 5.15 19.25 9.2 21.95 13.35 24.6 19.2 24.6 25.15 24.6 29.25 21.9 M29.45 8.95 Q33.75 11.75 33.75 15.65 33.75 19.55 29.45 22.3 25.25 25.05 19.2 25.05 13.15 25.05 8.95 22.3 4.7 19.55 4.7 15.65 4.7 11.75 8.95 8.95 13.15 6.2 19.2 6.2 25.25 6.2 29.45 8.95" fill="#00aaff" fill-rule="evenodd" stroke="none"/>
  </g>
  <defs>
    <linearGradient gradientTransform="matrix(0.0035, 0.0151, -0.0151, 0.0035, 19.3, 13.75)" gradientUnits="userSpaceOnUse" id="gradient0" spreadMethod="pad" x1="-819.2" x2="819.2">
      <stop offset="0.0" stop-color="#737375"/>
      <stop offset="0.4745098039215686" stop-color="#bac2c2"/>
      <stop offset="1.0" stop-color="#babfbf"/>
    </linearGradient>
    <radialGradient cx="0" cy="0" gradientTransform="matrix(-0.0149, 0.0, 0.0, -0.0149, 19.2, 15.65)" gradientUnits="userSpaceOnUse" id="gradient1" r="819.2" spreadMethod="pad">
      <stop offset="0.0" stop-color="#000f2e"/>
      <stop offset="0.11764705882352941" stop-color="#001236"/>
      <stop offset="0.2980392156862745" stop-color="#01194b"/>
      <stop offset="0.5215686274509804" stop-color="#02256f"/>
      <stop offset="0.7725490196078432" stop-color="#03369f"/>
      <stop offset="1.0" stop-color="#0547d1"/>
    </radialGradient>
  </defs>
</svg>
