<?xml version="1.0" encoding="UTF-8" standalone="no"?>
<svg xmlns:ffdec="https://www.free-decompiler.com/flash" xmlns:xlink="http://www.w3.org/1999/xlink" ffdec:objectType="shape" height="21.3px" width="55.1px" xmlns="http://www.w3.org/2000/svg">
  <g transform="matrix(1.0, 0.0, 0.0, 1.0, 0.0, 0.95)">
    <path d="M52.1 19.8 L3.0 19.8 Q1.95 19.8 1.25 18.95 0.5 18.15 0.5 17.05 L0.5 2.35 Q0.5 1.2 1.25 0.45 1.95 -0.4 3.0 -0.4 L52.1 -0.4 Q53.1 -0.4 53.85 0.45 54.6 1.2 54.6 2.35 L54.6 17.05 Q54.6 18.15 53.85 18.95 53.1 19.8 52.1 19.8" fill="url(#gradient0)" fill-rule="evenodd" stroke="none"/>
    <path d="M54.2 0.05 Q55.1 1.0 55.1 2.35 L55.1 17.05 Q55.1 18.4 54.2 19.35 53.35 20.35 52.1 20.35 L3.0 20.35 Q1.75 20.35 0.9 19.35 0.0 18.4 0.0 17.05 L0.0 2.35 Q0.0 1.0 0.9 0.05 1.75 -0.95 3.0 -0.95 L52.1 -0.95 Q53.35 -0.95 54.2 0.05 M54.1 2.35 Q54.1 1.45 53.5 0.8 52.95 0.15 52.1 0.15 L3.0 0.15 Q2.2 0.15 1.6 0.8 1.0 1.45 1.0 2.35 L1.0 17.05 Q1.0 17.95 1.6 18.6 2.2 19.25 3.0 19.25 L52.1 19.25 Q52.95 19.25 53.5 18.6 54.1 17.95 54.1 17.05 L54.1 2.35" fill="#1c1e1d" fill-rule="evenodd" stroke="none"/>
  </g>
  <defs>
    <linearGradient gradientTransform="matrix(0.0, -0.0123, -0.0112, 0.0, 27.55, 9.65)" gradientUnits="userSpaceOnUse" id="gradient0" spreadMethod="pad" x1="-819.2" x2="819.2">
      <stop offset="0.00392156862745098" stop-color="#5d7c38"/>
      <stop offset="0.2901960784313726" stop-color="#4e6f38"/>
      <stop offset="1.0" stop-color="#91aa38"/>
    </linearGradient>
  </defs>
</svg>
