<?xml version="1.0" encoding="UTF-8" standalone="no"?>
<svg xmlns:ffdec="https://www.free-decompiler.com/flash" xmlns:xlink="http://www.w3.org/1999/xlink" ffdec:objectType="shape" height="21.3px" width="55.1px" xmlns="http://www.w3.org/2000/svg">
  <g transform="matrix(1.0, 0.0, 0.0, 1.0, 0.0, 0.9)">
    <path d="M3.0 -0.35 L52.1 -0.35 Q53.1 -0.35 53.85 0.5 54.6 1.25 54.6 2.4 L54.6 17.1 Q54.6 18.2 53.85 19.0 53.1 19.85 52.1 19.85 L3.0 19.85 Q1.95 19.85 1.25 19.0 0.5 18.2 0.5 17.1 L0.5 2.4 Q0.5 1.25 1.25 0.5 1.95 -0.35 3.0 -0.35" fill="url(#gradient0)" fill-rule="evenodd" stroke="none"/>
    <path d="M1.0 2.4 L1.0 17.1 Q1.0 18.0 1.6 18.65 2.2 19.3 3.0 19.3 L52.1 19.3 Q52.95 19.3 53.5 18.65 54.1 18.0 54.1 17.1 L54.1 2.4 Q54.1 1.5 53.5 0.85 52.95 0.2 52.1 0.2 L3.0 0.2 Q2.2 0.2 1.6 0.85 1.0 1.5 1.0 2.4 M0.0 17.1 L0.0 2.4 Q0.0 1.05 0.9 0.1 1.75 -0.9 3.0 -0.9 L52.1 -0.9 Q53.35 -0.9 54.2 0.1 55.1 1.05 55.1 2.4 L55.1 17.1 Q55.1 18.45 54.2 19.4 53.35 20.4 52.1 20.4 L3.0 20.4 Q1.75 20.4 0.9 19.4 0.0 18.45 0.0 17.1" fill="#1d2120" fill-rule="evenodd" stroke="none"/>
  </g>
  <defs>
    <linearGradient gradientTransform="matrix(0.0, -0.0123, -0.0112, 0.0, 27.55, 9.7)" gradientUnits="userSpaceOnUse" id="gradient0" spreadMethod="pad" x1="-819.2" x2="819.2">
      <stop offset="0.00392156862745098" stop-color="#5d7c38"/>
      <stop offset="0.25882352941176473" stop-color="#708d38"/>
      <stop offset="1.0" stop-color="#b7bd38"/>
    </linearGradient>
  </defs>
</svg>
