<?xml version="1.0" encoding="UTF-8" standalone="no"?>
<svg xmlns:ffdec="https://www.free-decompiler.com/flash" xmlns:xlink="http://www.w3.org/1999/xlink" ffdec:objectType="shape" height="225.2px" width="651.0px" xmlns="http://www.w3.org/2000/svg">
  <g transform="matrix(1.0, 0.0, 0.0, 1.0, -3.5, -149.8)">
    <path d="M654.5 375.0 L455.5 375.0 256.5 375.0 57.5 375.0 3.5 375.0 3.5 150.9 3.5 149.8 202.5 149.8 401.5 149.8 600.5 149.8 654.5 149.8 654.5 373.85 654.5 375.0 M653.5 373.85 L653.5 372.7 653.5 150.9 601.5 150.9 402.5 150.9 203.5 150.9 4.5 150.9 4.5 152.05 4.5 373.85 56.5 373.85 255.5 373.85 454.5 373.85 653.5 373.85" fill="#05309b" fill-rule="evenodd" stroke="none"/>
    <path d="M653.5 373.85 L454.5 373.85 255.5 373.85 56.5 373.85 4.5 373.85 4.5 152.05 4.5 150.9 203.5 150.9 402.5 150.9 601.5 150.9 653.5 150.9 653.5 372.7 653.5 373.85" fill="#021849" fill-rule="evenodd" stroke="none"/>
  </g>
</svg>
