<?xml version="1.0" encoding="UTF-8" standalone="no"?>
<svg xmlns:ffdec="https://www.free-decompiler.com/flash" xmlns:xlink="http://www.w3.org/1999/xlink" ffdec:objectType="shape" height="57.75px" width="190.8px" xmlns="http://www.w3.org/2000/svg">
  <g transform="matrix(1.0, 0.0, 0.0, 1.0, -10.6, -3.2)">
    <path d="M200.2 10.95 L200.2 53.35 Q200.2 56.0 198.7 57.85 197.15 59.7 195.05 59.7 L16.8 59.7 Q14.7 59.7 13.15 57.85 11.65 56.0 11.65 53.35 L11.65 10.95 Q11.65 8.35 13.15 6.45 14.7 4.6 16.8 4.6 L195.05 4.6 Q197.15 4.6 198.7 6.45 200.2 8.35 200.2 10.95" fill="#020d26" fill-rule="evenodd" stroke="none"/>
    <path d="M195.05 3.75 Q197.45 3.75 199.2 5.85 200.9 8.0 200.9 10.95 L200.9 53.35 Q200.9 56.3 199.2 58.45 197.45 60.55 195.05 60.55 L16.8 60.55 Q14.35 60.55 12.65 58.45 10.95 56.3 10.95 53.35 L10.95 10.95 Q10.95 8.0 12.65 5.85 14.35 3.75 16.8 3.75 L195.05 3.75 M199.55 10.95 Q199.55 8.7 198.25 7.0 196.9 5.4 195.05 5.4 L16.8 5.4 Q14.95 5.4 13.6 7.0 12.3 8.7 12.3 10.95 L12.3 53.35 Q12.3 55.6 13.6 57.25 14.95 58.85 16.8 58.85 L195.05 58.85 Q196.9 58.85 198.25 57.25 199.55 55.6 199.55 53.35 L199.55 10.95" fill="#1c4b84" fill-rule="evenodd" stroke="none"/>
    <path d="M195.7 13.85 L195.7 50.25 Q195.7 51.95 194.75 53.15 193.75 54.4 192.35 54.4 L19.5 54.4 Q18.1 54.4 17.15 53.15 16.15 51.95 16.15 50.25 L16.15 13.85 Q16.15 12.1 17.15 10.9 18.1 9.7 19.5 9.7 L192.35 9.7 Q193.75 9.7 194.75 10.9 195.7 12.1 195.7 13.85" fill="url(#gradient0)" fill-rule="evenodd" stroke="none"/>
    <path d="M192.35 8.85 Q194.0 8.85 195.15 10.3 196.4 11.8 196.4 13.85 L196.4 50.25 Q196.4 52.3 195.15 53.7 194.0 55.2 192.35 55.2 L19.5 55.2 Q17.85 55.2 16.65 53.7 15.45 52.3 15.45 50.25 L15.45 13.85 Q15.45 11.8 16.65 10.3 17.85 8.85 19.5 8.85 L192.35 8.85 M195.05 13.85 Q195.05 12.45 194.25 11.5 193.45 10.5 192.35 10.5 L19.5 10.5 Q18.4 10.5 17.6 11.5 16.8 12.45 16.8 13.85 L16.8 50.25 Q16.8 51.6 17.6 52.55 18.4 53.55 19.5 53.55 L192.35 53.55 Q193.45 53.55 194.25 52.55 195.05 51.6 195.05 50.25 L195.05 13.85" fill="#7ecafc" fill-rule="evenodd" stroke="none"/>
    <path d="M190.25 13.9 L21.55 50.45 Q20.45 50.75 19.7 49.9 18.9 49.1 18.9 47.75 L18.9 16.65 Q18.9 15.25 19.75 14.35 20.5 13.35 21.6 13.35 L190.2 13.35 191.35 13.5 190.25 13.9" fill="url(#gradient1)" fill-rule="evenodd" stroke="none"/>
    <path d="M12.3 9.4 L12.3 16.25 10.6 16.25 10.6 8.05 15.0 3.2 21.2 3.2 21.2 5.3 15.7 5.3 12.3 9.4" fill="#69bfff" fill-rule="evenodd" stroke="none"/>
    <path d="M12.3 54.75 L15.7 58.85 21.2 58.85 21.2 60.95 15.0 60.95 10.6 56.1 10.6 47.9 12.3 47.9 12.3 54.75" fill="#69bfff" fill-rule="evenodd" stroke="none"/>
    <path d="M199.7 9.4 L196.2 5.3 190.75 5.3 190.75 3.2 197.0 3.2 201.4 8.05 201.4 16.25 199.7 16.25 199.7 9.4" fill="#69bfff" fill-rule="evenodd" stroke="none"/>
    <path d="M199.7 54.75 L199.7 47.9 201.4 47.9 201.4 56.1 197.0 60.95 190.75 60.95 190.75 58.85 196.2 58.85 199.7 54.75" fill="#69bfff" fill-rule="evenodd" stroke="none"/>
    <path d="M38.65 22.45 L71.5 22.45 Q72.4 22.45 73.05 23.15 73.75 23.8 73.75 24.7 L73.75 39.5 Q73.75 40.45 73.05 41.1 72.4 41.75 71.5 41.75 L38.65 41.75 Q37.75 41.75 37.05 41.1 36.4 40.45 36.4 39.5 L36.4 24.7 Q36.4 23.8 37.05 23.15 37.75 22.45 38.65 22.45" fill="#0074ff" fill-rule="evenodd" stroke="none"/>
    <path d="M71.5 22.0 Q72.65 22.0 73.4 22.8 74.2 23.6 74.2 24.7 L74.2 39.45 Q74.2 40.6 73.4 41.35 72.65 42.15 71.5 42.15 L38.65 42.15 Q37.55 42.15 36.8 41.35 35.95 40.6 35.95 39.45 L35.95 24.7 Q35.95 23.6 36.8 22.8 37.55 22.0 38.65 22.0 L71.5 22.0 M73.3 24.7 Q73.3 24.0 72.8 23.45 72.3 22.9 71.5 22.9 L38.65 22.9 Q37.95 22.9 37.4 23.45 36.85 24.0 36.85 24.7 L36.85 39.45 Q36.85 40.25 37.4 40.7 37.95 41.25 38.65 41.25 L71.5 41.25 Q72.3 41.25 72.8 40.7 73.3 40.25 73.3 39.45 L73.3 24.7" fill="#5cc5ff" fill-rule="evenodd" stroke="none"/>
    <path d="M71.6 23.0 L57.25 30.6 Q56.35 31.1 55.05 31.1 53.8 31.1 52.9 30.6 L38.6 23.0 38.05 22.65 38.65 22.6 71.5 22.6 72.15 22.65 71.6 23.0" fill="#036eed" fill-rule="evenodd" stroke="none"/>
    <path d="M39.6 23.05 Q46.35 26.65 53.1 30.2 53.9 30.65 55.05 30.65 L57.05 30.2 70.55 23.05 39.6 23.05 M71.5 22.15 Q72.65 22.15 72.75 22.5 72.8 22.85 71.85 23.4 L57.45 31.0 Q56.5 31.55 55.05 31.55 53.7 31.55 52.65 31.0 L38.35 23.4 Q37.35 22.85 37.45 22.5 37.55 22.15 38.65 22.15 L71.5 22.15" fill="#5cc5ff" fill-rule="evenodd" stroke="none"/>
  </g>
  <defs>
    <radialGradient cx="0" cy="0" gradientTransform="matrix(0.1559, 0.0, 0.0, -0.048, 108.0, 48.95)" gradientUnits="userSpaceOnUse" id="gradient0" r="819.2" spreadMethod="pad">
      <stop offset="0.0" stop-color="#3399cc"/>
      <stop offset="0.14901960784313725" stop-color="#3293d0"/>
      <stop offset="0.34901960784313724" stop-color="#3082db"/>
      <stop offset="0.5764705882352941" stop-color="#2c66ee"/>
      <stop offset="0.7411764705882353" stop-color="#294dff"/>
      <stop offset="0.7568627450980392" stop-color="#274bfb"/>
      <stop offset="0.9137254901960784" stop-color="#143ddb"/>
      <stop offset="1.0" stop-color="#0d38cf"/>
    </radialGradient>
    <linearGradient gradientTransform="matrix(0.0146, 0.0446, 0.03, -0.0149, 99.35, 16.3)" gradientUnits="userSpaceOnUse" id="gradient1" spreadMethod="pad" x1="-819.2" x2="819.2">
      <stop offset="0.0" stop-color="#c2c2b3"/>
      <stop offset="0.043137254901960784" stop-color="#9b9f91" stop-opacity="0.8"/>
      <stop offset="0.09411764705882353" stop-color="#777e71" stop-opacity="0.6117647"/>
      <stop offset="0.14901960784313725" stop-color="#576154" stop-opacity="0.44313726"/>
      <stop offset="0.21176470588235294" stop-color="#3b483c" stop-opacity="0.30588236"/>
      <stop offset="0.2823529411764706" stop-color="#253429" stop-opacity="0.19215687"/>
      <stop offset="0.36470588235294116" stop-color="#14251a" stop-opacity="0.101960786"/>
      <stop offset="0.4627450980392157" stop-color="#091a10" stop-opacity="0.043137256"/>
      <stop offset="0.6078431372549019" stop-color="#02140a" stop-opacity="0.007843138"/>
      <stop offset="1.0" stop-color="#001208" stop-opacity="0.0"/>
    </linearGradient>
  </defs>
</svg>
