<?xml version="1.0" encoding="UTF-8" standalone="no"?>
<svg xmlns:ffdec="https://www.free-decompiler.com/flash" xmlns:xlink="http://www.w3.org/1999/xlink" ffdec:objectType="shape" height="64.2px" width="212.0px" xmlns="http://www.w3.org/2000/svg">
  <g transform="matrix(1.0, 0.0, 0.0, 1.0, 0.0, 0.0)">
    <path d="M210.75 8.7 L210.75 55.75 Q210.75 58.6 209.1 60.7 207.4 62.8 205.0 62.8 L6.95 62.8 Q4.6 62.8 2.9 60.7 1.2 58.6 1.2 55.75 L1.2 8.7 Q1.2 5.8 2.9 3.7 4.6 1.6 6.95 1.6 L205.0 1.6 Q207.4 1.6 209.1 3.7 210.75 5.8 210.75 8.7" fill="#352502" fill-rule="evenodd" stroke="none"/>
    <path d="M205.0 0.7 Q207.7 0.7 209.6 3.05 211.5 5.35 211.5 8.7 L211.5 55.75 Q211.5 59.05 209.6 61.4 207.7 63.75 205.0 63.75 L6.95 63.75 Q4.3 63.75 2.35 61.4 0.45 59.05 0.45 55.75 L0.45 8.7 Q0.45 5.35 2.35 3.05 4.3 0.7 6.95 0.7 L205.0 0.7 M210.0 8.7 Q210.0 6.15 208.55 4.3 207.05 2.55 205.0 2.55 L6.95 2.55 Q4.9 2.55 3.4 4.3 1.95 6.15 1.95 8.7 L1.95 55.75 Q1.95 58.25 3.4 60.1 4.9 61.9 6.95 61.9 L205.0 61.9 Q207.05 61.9 208.55 60.1 210.0 58.25 210.0 55.75 L210.0 8.7" fill="#5b4002" fill-rule="evenodd" stroke="none"/>
    <path d="M205.75 11.85 L205.75 52.25 Q205.75 54.15 204.65 55.5 203.55 56.85 202.0 56.85 L9.95 56.85 Q8.4 56.85 7.3 55.5 6.2 54.15 6.2 52.25 L6.2 11.85 Q6.2 9.9 7.3 8.55 8.4 7.2 9.95 7.2 L202.0 7.2 Q203.55 7.2 204.65 8.55 205.75 9.9 205.75 11.85" fill="url(#gradient0)" fill-rule="evenodd" stroke="none"/>
    <path d="M202.0 6.3 Q203.85 6.3 205.2 7.95 206.5 9.55 206.5 11.85 L206.5 52.25 Q206.5 54.55 205.2 56.15 203.9 57.75 202.0 57.75 L9.95 57.75 Q8.1 57.75 6.8 56.15 5.45 54.5 5.45 52.25 L5.45 11.85 Q5.45 9.55 6.8 7.95 8.1 6.3 9.95 6.3 L202.0 6.3 M205.0 11.85 Q205.0 10.3 204.1 9.25 203.25 8.15 202.0 8.15 L9.95 8.15 Q8.7 8.15 7.85 9.25 6.95 10.3 6.95 11.85 L6.95 52.25 Q6.95 53.75 7.85 54.8 8.7 55.9 9.95 55.9 L202.0 55.9 Q203.25 55.9 204.1 54.8 205.0 53.75 205.0 52.25 L205.0 11.85" fill="#d3c292" fill-rule="evenodd" stroke="none"/>
    <path d="M199.7 11.95 L12.25 53.75 Q11.0 54.05 10.15 53.15 9.3 52.25 9.3 50.7 L9.3 14.95 Q9.3 13.4 10.2 12.4 11.05 11.25 12.3 11.25 L199.65 11.25 200.9 11.45 Q200.95 11.7 199.7 11.95" fill="url(#gradient1)" fill-rule="evenodd" stroke="none"/>
    <path d="M1.9 6.9 L1.9 14.55 0.0 14.55 0.0 5.5 4.9 0.0 11.8 0.0 11.8 2.35 5.7 2.35 1.9 6.9" fill="#f7b141" fill-rule="evenodd" stroke="none"/>
    <path d="M1.9 57.35 L5.7 61.9 11.8 61.9 11.8 64.2 4.9 64.2 0.0 58.75 0.0 49.7 1.9 49.7 1.9 57.35" fill="#f7b141" fill-rule="evenodd" stroke="none"/>
    <path d="M210.1 6.9 L206.25 2.35 200.2 2.35 200.2 0.0 207.1 0.0 212.0 5.5 212.0 14.55 210.1 14.55 210.1 6.9" fill="#f7b141" fill-rule="evenodd" stroke="none"/>
    <path d="M210.1 57.35 L210.1 49.7 212.0 49.7 212.0 58.75 207.1 64.2 200.2 64.2 200.2 61.9 206.25 61.9 210.1 57.35" fill="#f7b141" fill-rule="evenodd" stroke="none"/>
    <path d="M30.5 21.4 L67.0 21.4 Q68.0 21.4 68.75 22.15 69.5 22.9 69.5 23.9 L69.5 40.3 Q69.5 41.35 68.75 42.1 68.0 42.8 67.0 42.8 L30.5 42.8 Q29.5 42.8 28.75 42.1 28.0 41.35 28.0 40.3 L28.0 23.9 Q28.0 22.9 28.75 22.15 29.5 21.4 30.5 21.4" fill="#d18003" fill-rule="evenodd" stroke="none"/>
    <path d="M69.1 21.8 Q70.0 22.65 70.0 23.9 L70.0 40.3 Q70.0 41.55 69.1 42.4 68.25 43.3 67.0 43.3 L30.5 43.3 Q29.25 43.3 28.4 42.4 27.5 41.55 27.5 40.3 L27.5 23.9 Q27.5 22.65 28.4 21.8 29.25 20.9 30.5 20.9 L67.0 20.9 Q68.25 20.9 69.1 21.8 M68.4 22.5 Q67.85 21.9 67.0 21.9 L30.5 21.9 Q29.7 21.9 29.1 22.5 28.5 23.1 28.5 23.9 L28.5 40.3 Q28.5 41.15 29.1 41.7 29.7 42.3 30.5 42.3 L67.0 42.3 Q67.85 42.3 68.4 41.7 69.0 41.15 69.0 40.3 L69.0 23.9 Q69.0 23.1 68.4 22.5" fill="#f19e24" fill-rule="evenodd" stroke="none"/>
    <path d="M67.1 22.0 L51.15 30.45 48.7 31.0 Q47.3 31.0 46.3 30.45 L30.4 22.0 29.8 21.6 30.5 21.55 67.0 21.55 67.7 21.6 67.1 22.0" fill="#f19e24" fill-rule="evenodd" stroke="none"/>
    <path d="M67.0 21.05 Q68.25 21.05 68.35 21.45 68.45 21.85 67.35 22.45 L51.35 30.9 Q50.3 31.5 48.7 31.5 47.2 31.5 46.05 30.9 L30.15 22.45 Q29.05 21.85 29.15 21.45 29.25 21.05 30.5 21.05 L67.0 21.05 M46.55 30.0 Q47.45 30.5 48.7 30.5 50.0 30.5 50.9 30.0 L65.95 22.05 31.55 22.05 46.55 30.0" fill="#fff098" fill-rule="evenodd" stroke="none"/>
  </g>
  <defs>
    <radialGradient cx="0" cy="0" gradientTransform="matrix(0.1733, 0.0, 0.0, -0.0533, 108.3, 50.85)" gradientUnits="userSpaceOnUse" id="gradient0" r="819.2" spreadMethod="pad">
      <stop offset="0.0" stop-color="#e6b107"/>
      <stop offset="0.10588235294117647" stop-color="#e1ab07"/>
      <stop offset="0.24705882352941178" stop-color="#d29a06"/>
      <stop offset="0.40784313725490196" stop-color="#b97e04"/>
      <stop offset="0.5843137254901961" stop-color="#975702"/>
      <stop offset="0.7411764705882353" stop-color="#732e00"/>
      <stop offset="0.8196078431372549" stop-color="#592204"/>
      <stop offset="0.9372549019607843" stop-color="#39140a"/>
      <stop offset="1.0" stop-color="#2d0e0c"/>
    </radialGradient>
    <linearGradient gradientTransform="matrix(0.0163, 0.0495, 0.0334, -0.0166, 98.5, 14.7)" gradientUnits="userSpaceOnUse" id="gradient1" spreadMethod="pad" x1="-819.2" x2="819.2">
      <stop offset="0.0" stop-color="#c2c2b3"/>
      <stop offset="0.043137254901960784" stop-color="#9b9f91" stop-opacity="0.8"/>
      <stop offset="0.09411764705882353" stop-color="#777e71" stop-opacity="0.6117647"/>
      <stop offset="0.14901960784313725" stop-color="#576154" stop-opacity="0.44313726"/>
      <stop offset="0.21176470588235294" stop-color="#3b483c" stop-opacity="0.30588236"/>
      <stop offset="0.2823529411764706" stop-color="#253429" stop-opacity="0.19215687"/>
      <stop offset="0.36470588235294116" stop-color="#14251a" stop-opacity="0.101960786"/>
      <stop offset="0.4627450980392157" stop-color="#091a10" stop-opacity="0.043137256"/>
      <stop offset="0.6078431372549019" stop-color="#02140a" stop-opacity="0.007843138"/>
      <stop offset="1.0" stop-color="#001208" stop-opacity="0.0"/>
    </linearGradient>
  </defs>
</svg>
