<?xml version="1.0" encoding="UTF-8" standalone="no"?>
<svg xmlns:ffdec="https://www.free-decompiler.com/flash" xmlns:xlink="http://www.w3.org/1999/xlink" ffdec:objectType="shape" height="19.15px" width="49.55px" xmlns="http://www.w3.org/2000/svg">
  <g transform="matrix(1.0, 0.0, 0.0, 1.0, -2.75, -0.6)">
    <path d="M5.45 1.1 L49.6 1.1 Q50.5 1.1 51.2 1.85 51.85 2.55 51.85 3.6 L51.85 16.8 Q51.85 17.8 51.2 18.55 50.5 19.25 49.6 19.25 L5.45 19.25 Q4.5 19.25 3.85 18.55 3.2 17.8 3.2 16.8 L3.2 3.6 Q3.2 2.55 3.85 1.85 4.5 1.1 5.45 1.1" fill="url(#gradient0)" fill-rule="evenodd" stroke="none"/>
    <path d="M4.15 2.2 Q3.65 2.8 3.65 3.6 L3.65 16.8 Q3.65 17.65 4.15 18.2 4.7 18.75 5.45 18.75 L49.6 18.75 Q50.4 18.75 50.9 18.2 51.4 17.65 51.4 16.8 L51.4 3.6 Q51.4 2.8 50.9 2.2 50.4 1.6 49.6 1.6 L5.45 1.6 Q4.7 1.6 4.15 2.2 M3.55 18.85 Q2.75 18.05 2.75 16.8 L2.75 3.6 Q2.75 2.35 3.55 1.5 4.3 0.6 5.45 0.6 L49.6 0.6 Q50.75 0.6 51.5 1.5 52.3 2.35 52.3 3.6 L52.3 16.8 Q52.3 18.05 51.5 18.85 50.75 19.75 49.6 19.75 L5.45 19.75 Q4.3 19.75 3.55 18.85" fill="#1d2120" fill-rule="evenodd" stroke="none"/>
  </g>
  <defs>
    <linearGradient gradientTransform="matrix(0.0, -0.0111, -0.0101, 0.0, 27.55, 10.15)" gradientUnits="userSpaceOnUse" id="gradient0" spreadMethod="pad" x1="-819.2" x2="819.2">
      <stop offset="0.00392156862745098" stop-color="#5d7c38"/>
      <stop offset="0.25882352941176473" stop-color="#708d38"/>
      <stop offset="1.0" stop-color="#b7bd38"/>
    </linearGradient>
  </defs>
</svg>
