<?xml version="1.0" encoding="UTF-8" standalone="no"?>
<svg xmlns:ffdec="https://www.free-decompiler.com/flash" xmlns:xlink="http://www.w3.org/1999/xlink" ffdec:objectType="shape" height="64.2px" width="212.0px" xmlns="http://www.w3.org/2000/svg">
  <g transform="matrix(1.0, 0.0, 0.0, 1.0, 0.0, 0.0)">
    <path d="M210.7 8.65 L210.7 55.7 Q210.7 58.65 209.0 60.75 207.3 62.8 204.95 62.8 L6.9 62.8 Q4.55 62.8 2.85 60.75 1.15 58.65 1.15 55.7 L1.15 8.65 Q1.15 5.75 2.85 3.65 4.55 1.55 6.9 1.55 L204.95 1.55 Q207.3 1.55 209.0 3.65 210.7 5.75 210.7 8.65" fill="#020d26" fill-rule="evenodd" stroke="none"/>
    <path d="M204.95 0.65 Q207.65 0.65 209.55 2.95 211.45 5.35 211.45 8.65 L211.45 55.7 Q211.45 59.05 209.55 61.4 207.65 63.7 204.95 63.7 L6.9 63.7 Q4.2 63.7 2.3 61.4 0.4 59.05 0.4 55.7 L0.4 8.65 Q0.4 5.35 2.3 2.95 4.2 0.65 6.9 0.65 L204.95 0.65 M209.95 8.65 Q209.95 6.1 208.5 4.25 207.0 2.45 204.95 2.45 L6.9 2.45 Q4.85 2.45 3.35 4.25 1.9 6.1 1.9 8.65 L1.9 55.7 Q1.9 58.25 3.35 60.1 4.85 61.85 6.9 61.85 L204.95 61.85 Q207.0 61.85 208.5 60.1 209.95 58.25 209.95 55.7 L209.95 8.65" fill="#1c4b84" fill-rule="evenodd" stroke="none"/>
    <path d="M205.7 11.8 L205.7 52.25 Q205.7 54.15 204.6 55.5 203.5 56.9 201.95 56.9 L9.9 56.9 Q8.35 56.9 7.25 55.5 6.15 54.15 6.15 52.25 L6.15 11.8 Q6.15 9.9 7.25 8.55 8.35 7.2 9.9 7.2 L201.95 7.2 Q203.5 7.2 204.6 8.55 205.7 9.9 205.7 11.8" fill="url(#gradient0)" fill-rule="evenodd" stroke="none"/>
    <path d="M201.95 6.3 Q203.8 6.3 205.1 7.9 206.45 9.55 206.45 11.85 L206.45 52.25 Q206.45 54.55 205.1 56.15 203.8 57.8 201.95 57.8 L9.9 57.8 Q8.05 57.8 6.75 56.15 5.4 54.55 5.4 52.25 L5.4 11.85 Q5.4 9.55 6.75 7.9 8.05 6.3 9.9 6.3 L201.95 6.3 M204.95 11.85 Q204.95 10.3 204.05 9.25 203.2 8.15 201.95 8.15 L9.9 8.15 Q8.65 8.15 7.8 9.25 6.9 10.3 6.9 11.85 L6.9 52.25 Q6.9 53.8 7.8 54.85 8.65 55.95 9.9 55.95 L201.95 55.95 Q203.2 55.95 204.05 54.85 204.95 53.8 204.95 52.25 L204.95 11.85" fill="#7ecafc" fill-rule="evenodd" stroke="none"/>
    <path d="M199.65 11.9 L12.2 52.5 Q10.95 52.8 10.1 51.9 9.25 51.05 9.25 49.5 L9.25 14.95 Q9.25 13.45 10.15 12.4 11.0 11.25 12.25 11.25 L199.6 11.25 200.85 11.45 Q200.9 11.65 199.65 11.9" fill="url(#gradient1)" fill-rule="evenodd" stroke="none"/>
    <path d="M1.9 6.9 L1.9 14.55 0.0 14.55 0.0 5.45 4.9 0.0 11.8 0.0 11.8 2.35 5.7 2.35 1.9 6.9" fill="#69bfff" fill-rule="evenodd" stroke="none"/>
    <path d="M1.9 57.3 L5.7 61.85 11.8 61.85 11.8 64.2 4.9 64.2 0.0 58.8 0.0 49.7 1.9 49.7 1.9 57.3" fill="#69bfff" fill-rule="evenodd" stroke="none"/>
    <path d="M210.1 6.9 L206.25 2.35 200.2 2.35 200.2 0.0 207.1 0.0 212.0 5.45 212.0 14.55 210.1 14.55 210.1 6.9" fill="#69bfff" fill-rule="evenodd" stroke="none"/>
    <path d="M210.1 57.3 L210.1 49.7 212.0 49.7 212.0 58.8 207.1 64.2 200.2 64.2 200.2 61.85 206.25 61.85 210.1 57.3" fill="#69bfff" fill-rule="evenodd" stroke="none"/>
    <path d="M52.3 30.6 Q50.15 32.7 47.15 32.7 44.15 32.7 42.05 30.6 39.95 28.45 39.95 25.5 39.95 22.5 42.05 20.4 44.15 18.25 47.15 18.25 50.15 18.25 52.3 20.4 54.4 22.5 54.4 25.5 54.4 28.45 52.3 30.6" fill="#0099ff" fill-rule="evenodd" stroke="none"/>
    <path d="M47.15 34.85 Q50.3 34.85 52.55 38.25 54.75 41.7 54.8 46.6 L39.5 46.6 Q39.6 41.7 41.8 38.25 44.05 34.85 47.15 34.85" fill="#0099ff" fill-rule="evenodd" stroke="none"/>
    <path d="M67.0 31.5 Q65.4 33.15 63.05 33.15 60.7 33.15 59.05 31.5 57.4 29.85 57.4 27.5 57.4 25.15 59.05 23.55 60.7 21.9 63.05 21.9 65.4 21.9 67.0 23.55 68.65 25.2 68.65 27.5 68.65 29.85 67.0 31.5" fill="#036eed" fill-rule="evenodd" stroke="none"/>
    <path d="M57.05 43.95 Q57.1 40.15 58.85 37.5 60.6 34.8 63.05 34.8 65.5 34.8 67.25 37.5 68.95 40.15 69.0 43.95 L57.05 43.95" fill="#036eed" fill-rule="evenodd" stroke="none"/>
  </g>
  <defs>
    <radialGradient cx="0" cy="0" gradientTransform="matrix(0.1733, 0.0, 0.0, -0.0533, 108.2, 50.85)" gradientUnits="userSpaceOnUse" id="gradient0" r="819.2" spreadMethod="pad">
      <stop offset="0.0" stop-color="#3399cc"/>
      <stop offset="0.14901960784313725" stop-color="#3293d0"/>
      <stop offset="0.34901960784313724" stop-color="#3082db"/>
      <stop offset="0.5764705882352941" stop-color="#2c66ee"/>
      <stop offset="0.7411764705882353" stop-color="#294dff"/>
      <stop offset="0.7568627450980392" stop-color="#274bfb"/>
      <stop offset="0.9137254901960784" stop-color="#143ddb"/>
      <stop offset="1.0" stop-color="#0d38cf"/>
    </radialGradient>
    <linearGradient gradientTransform="matrix(0.0163, 0.0495, 0.0334, -0.0166, 98.65, 14.6)" gradientUnits="userSpaceOnUse" id="gradient1" spreadMethod="pad" x1="-819.2" x2="819.2">
      <stop offset="0.0" stop-color="#c2c2b3"/>
      <stop offset="0.043137254901960784" stop-color="#9b9f91" stop-opacity="0.8"/>
      <stop offset="0.09411764705882353" stop-color="#777e71" stop-opacity="0.6117647"/>
      <stop offset="0.14901960784313725" stop-color="#576154" stop-opacity="0.44313726"/>
      <stop offset="0.21176470588235294" stop-color="#3b483c" stop-opacity="0.30588236"/>
      <stop offset="0.2823529411764706" stop-color="#253429" stop-opacity="0.19215687"/>
      <stop offset="0.36470588235294116" stop-color="#14251a" stop-opacity="0.101960786"/>
      <stop offset="0.4627450980392157" stop-color="#091a10" stop-opacity="0.043137256"/>
      <stop offset="0.6078431372549019" stop-color="#02140a" stop-opacity="0.007843138"/>
      <stop offset="1.0" stop-color="#001208" stop-opacity="0.0"/>
    </linearGradient>
  </defs>
</svg>
