<?xml version="1.0" encoding="UTF-8" standalone="no"?>
<svg xmlns:ffdec="https://www.free-decompiler.com/flash" xmlns:xlink="http://www.w3.org/1999/xlink" ffdec:objectType="shape" height="57.75px" width="190.8px" xmlns="http://www.w3.org/2000/svg">
  <g transform="matrix(1.0, 0.0, 0.0, 1.0, -10.6, -3.2)">
    <path d="M200.2 10.95 L200.2 53.35 Q200.2 56.0 198.7 57.85 197.15 59.7 195.05 59.7 L16.8 59.7 Q14.7 59.7 13.15 57.85 11.65 56.0 11.65 53.35 L11.65 10.95 Q11.65 8.35 13.15 6.45 14.7 4.6 16.8 4.6 L195.05 4.6 Q197.15 4.6 198.7 6.45 200.2 8.35 200.2 10.95" fill="#020d26" fill-rule="evenodd" stroke="none"/>
    <path d="M199.55 10.95 Q199.55 8.7 198.25 7.0 196.9 5.4 195.05 5.4 L16.8 5.4 Q14.95 5.4 13.6 7.0 12.3 8.7 12.3 10.95 L12.3 53.35 Q12.3 55.6 13.6 57.25 14.95 58.85 16.8 58.85 L195.05 58.85 Q196.9 58.85 198.25 57.25 199.55 55.6 199.55 53.35 L199.55 10.95 M195.05 3.75 Q197.45 3.75 199.2 5.85 200.9 8.0 200.9 10.95 L200.9 53.35 Q200.9 56.3 199.2 58.45 197.45 60.55 195.05 60.55 L16.8 60.55 Q14.35 60.55 12.65 58.45 10.95 56.3 10.95 53.35 L10.95 10.95 Q10.95 8.0 12.65 5.85 14.35 3.75 16.8 3.75 L195.05 3.75" fill="#1c4b84" fill-rule="evenodd" stroke="none"/>
    <path d="M195.7 13.85 L195.7 50.25 Q195.7 51.95 194.75 53.15 193.75 54.4 192.35 54.4 L19.5 54.4 Q18.1 54.4 17.15 53.15 16.15 51.95 16.15 50.25 L16.15 13.85 Q16.15 12.1 17.15 10.9 18.1 9.7 19.5 9.7 L192.35 9.7 Q193.75 9.7 194.75 10.9 195.7 12.1 195.7 13.85" fill="url(#gradient0)" fill-rule="evenodd" stroke="none"/>
    <path d="M195.05 13.85 Q195.05 12.45 194.25 11.5 193.45 10.5 192.35 10.5 L19.5 10.5 Q18.4 10.5 17.6 11.5 16.8 12.45 16.8 13.85 L16.8 50.25 Q16.8 51.6 17.6 52.55 18.4 53.55 19.5 53.55 L192.35 53.55 Q193.45 53.55 194.25 52.55 195.05 51.6 195.05 50.25 L195.05 13.85 M192.35 8.85 Q194.0 8.85 195.15 10.3 196.4 11.8 196.4 13.85 L196.4 50.25 Q196.4 52.3 195.15 53.7 194.0 55.2 192.35 55.2 L19.5 55.2 Q17.85 55.2 16.65 53.7 15.45 52.3 15.45 50.25 L15.45 13.85 Q15.45 11.8 16.65 10.3 17.85 8.85 19.5 8.85 L192.35 8.85" fill="#7ecafc" fill-rule="evenodd" stroke="none"/>
    <path d="M190.25 13.9 L21.55 50.45 Q20.45 50.75 19.7 49.9 18.9 49.1 18.9 47.75 L18.9 16.65 Q18.9 15.25 19.75 14.35 20.5 13.35 21.6 13.35 L190.2 13.35 191.35 13.5 190.25 13.9" fill="url(#gradient1)" fill-rule="evenodd" stroke="none"/>
    <path d="M12.3 9.4 L12.3 16.25 10.6 16.25 10.6 8.05 15.0 3.2 21.2 3.2 21.2 5.3 15.7 5.3 12.3 9.4" fill="#69bfff" fill-rule="evenodd" stroke="none"/>
    <path d="M12.3 54.75 L15.7 58.85 21.2 58.85 21.2 60.95 15.0 60.95 10.6 56.1 10.6 47.9 12.3 47.9 12.3 54.75" fill="#69bfff" fill-rule="evenodd" stroke="none"/>
    <path d="M199.7 9.4 L196.2 5.3 190.75 5.3 190.75 3.2 197.0 3.2 201.4 8.05 201.4 16.25 199.7 16.25 199.7 9.4" fill="#69bfff" fill-rule="evenodd" stroke="none"/>
    <path d="M199.7 54.75 L199.7 47.9 201.4 47.9 201.4 56.1 197.0 60.95 190.75 60.95 190.75 58.85 196.2 58.85 199.7 54.75" fill="#69bfff" fill-rule="evenodd" stroke="none"/>
    <path d="M52.5 30.75 Q50.6 32.65 47.9 32.65 45.2 32.65 43.3 30.75 41.4 28.85 41.4 26.15 41.4 23.45 43.3 21.6 45.2 19.65 47.9 19.65 50.6 19.65 52.5 21.6 54.4 23.45 54.4 26.15 54.4 28.85 52.5 30.75" fill="#0099ff" fill-rule="evenodd" stroke="none"/>
    <path d="M47.9 34.6 Q50.7 34.6 52.75 37.65 54.7 40.75 54.75 45.15 L41.0 45.15 Q41.1 40.75 43.05 37.65 45.1 34.6 47.9 34.6" fill="#0099ff" fill-rule="evenodd" stroke="none"/>
    <path d="M65.75 31.6 Q64.3 33.05 62.2 33.05 60.1 33.05 58.6 31.6 57.1 30.1 57.1 28.0 57.1 25.85 58.6 24.45 60.1 22.95 62.2 22.95 64.3 22.95 65.75 24.45 67.25 25.9 67.25 28.0 67.25 30.1 65.75 31.6" fill="#036eed" fill-rule="evenodd" stroke="none"/>
    <path d="M56.8 42.8 Q56.85 39.35 58.4 37.0 60.0 34.55 62.2 34.55 64.4 34.55 66.0 37.0 67.5 39.35 67.55 42.8 L56.8 42.8" fill="#036eed" fill-rule="evenodd" stroke="none"/>
  </g>
  <defs>
    <radialGradient cx="0" cy="0" gradientTransform="matrix(0.1559, 0.0, 0.0, -0.048, 108.0, 48.95)" gradientUnits="userSpaceOnUse" id="gradient0" r="819.2" spreadMethod="pad">
      <stop offset="0.0" stop-color="#3399cc"/>
      <stop offset="0.14901960784313725" stop-color="#3293d0"/>
      <stop offset="0.34901960784313724" stop-color="#3082db"/>
      <stop offset="0.5764705882352941" stop-color="#2c66ee"/>
      <stop offset="0.7411764705882353" stop-color="#294dff"/>
      <stop offset="0.7568627450980392" stop-color="#274bfb"/>
      <stop offset="0.9137254901960784" stop-color="#143ddb"/>
      <stop offset="1.0" stop-color="#0d38cf"/>
    </radialGradient>
    <linearGradient gradientTransform="matrix(0.0146, 0.0446, 0.03, -0.0149, 99.35, 16.3)" gradientUnits="userSpaceOnUse" id="gradient1" spreadMethod="pad" x1="-819.2" x2="819.2">
      <stop offset="0.0" stop-color="#c2c2b3"/>
      <stop offset="0.043137254901960784" stop-color="#9b9f91" stop-opacity="0.8"/>
      <stop offset="0.09411764705882353" stop-color="#777e71" stop-opacity="0.6117647"/>
      <stop offset="0.14901960784313725" stop-color="#576154" stop-opacity="0.44313726"/>
      <stop offset="0.21176470588235294" stop-color="#3b483c" stop-opacity="0.30588236"/>
      <stop offset="0.2823529411764706" stop-color="#253429" stop-opacity="0.19215687"/>
      <stop offset="0.36470588235294116" stop-color="#14251a" stop-opacity="0.101960786"/>
      <stop offset="0.4627450980392157" stop-color="#091a10" stop-opacity="0.043137256"/>
      <stop offset="0.6078431372549019" stop-color="#02140a" stop-opacity="0.007843138"/>
      <stop offset="1.0" stop-color="#001208" stop-opacity="0.0"/>
    </linearGradient>
  </defs>
</svg>
