<?xml version="1.0" encoding="UTF-8" standalone="no"?>
<svg xmlns:ffdec="https://www.free-decompiler.com/flash" xmlns:xlink="http://www.w3.org/1999/xlink" ffdec:objectType="shape" height="23.05px" width="53.9px" xmlns="http://www.w3.org/2000/svg">
  <g transform="matrix(1.0, 0.0, 0.0, 1.0, -0.35, -0.3)">
    <path d="M54.25 0.3 L54.25 23.2 3.95 23.35 4.45 23.3 0.35 23.3 0.4 0.3 54.25 0.3" fill="#0d0d0d" fill-rule="evenodd" stroke="none"/>
    <path d="M50.4 6.25 L50.4 21.95 5.4 22.05 2.95 16.8 2.95 1.65 44.2 1.65 46.8 4.45 Q49.4 4.25 50.4 6.25" fill="#070734" fill-rule="evenodd" stroke="none"/>
    <path d="M43.3 0.95 L44.15 1.95 4.4 1.95 4.4 0.95 43.3 0.95" fill="#64f9f9" fill-rule="evenodd" stroke="none"/>
    <path d="M44.15 1.95 L43.3 0.95 53.6 0.95 53.65 22.75 50.35 22.75 50.35 22.65 50.35 7.1 Q49.65 4.8 46.75 5.05 L44.15 1.95" fill="url(#gradient0)" fill-rule="evenodd" stroke="none"/>
    <path d="M44.15 1.95 L46.75 5.05 Q49.65 4.8 50.35 7.1 L50.35 22.65 11.45 22.75 8.0 18.65 Q5.1 18.9 4.4 16.6 L4.4 1.95 44.15 1.95" fill="url(#gradient1)" fill-rule="evenodd" stroke="none"/>
    <path d="M4.4 0.95 L4.4 1.95 4.4 16.6 Q5.1 18.9 8.0 18.65 L11.45 22.75 1.15 22.75 1.1 0.9 4.4 0.9 4.4 0.95" fill="url(#gradient2)" fill-rule="evenodd" stroke="none"/>
  </g>
  <defs>
    <linearGradient gradientTransform="matrix(0.0, -0.0135, 0.0113, 0.0, 49.15, 11.7)" gradientUnits="userSpaceOnUse" id="gradient0" spreadMethod="pad" x1="-819.2" x2="819.2">
      <stop offset="0.0" stop-color="#01425c"/>
      <stop offset="0.047058823529411764" stop-color="#039ada" stop-opacity="0.88235295"/>
      <stop offset="0.5176470588235295" stop-color="#06b0f9" stop-opacity="0.7019608"/>
      <stop offset="1.0" stop-color="#bcf8fe"/>
    </linearGradient>
    <linearGradient gradientTransform="matrix(-1.0E-4, -0.0125, 0.0127, -1.0E-4, 27.85, 12.2)" gradientUnits="userSpaceOnUse" id="gradient1" spreadMethod="pad" x1="-819.2" x2="819.2">
      <stop offset="0.0" stop-color="#1fade9" stop-opacity="0.9607843"/>
      <stop offset="0.24313725490196078" stop-color="#1fade9" stop-opacity="0.52156866"/>
      <stop offset="0.4549019607843137" stop-color="#0c7bb1" stop-opacity="0.27058825"/>
      <stop offset="0.5411764705882353" stop-color="#026396" stop-opacity="0.15294118"/>
      <stop offset="0.9254901960784314" stop-color="#04d8fd" stop-opacity="0.8117647"/>
      <stop offset="0.9882352941176471" stop-color="#04f2ff"/>
    </linearGradient>
    <linearGradient gradientTransform="matrix(0.0, 0.0135, -0.0113, 0.0, 5.6, 12.0)" gradientUnits="userSpaceOnUse" id="gradient2" spreadMethod="pad" x1="-819.2" x2="819.2">
      <stop offset="0.0" stop-color="#01425c"/>
      <stop offset="0.047058823529411764" stop-color="#039ada" stop-opacity="0.88235295"/>
      <stop offset="0.5176470588235295" stop-color="#06b0f9" stop-opacity="0.7019608"/>
      <stop offset="1.0" stop-color="#bcf8fe"/>
    </linearGradient>
  </defs>
</svg>
