<?xml version="1.0" encoding="UTF-8" standalone="no"?>
<svg xmlns:ffdec="https://www.free-decompiler.com/flash" xmlns:xlink="http://www.w3.org/1999/xlink" ffdec:objectType="shape" height="317.8px" width="659.05px" xmlns="http://www.w3.org/2000/svg">
  <g transform="matrix(1.0, 0.0, 0.0, 1.0, 0.5, -93.0)">
    <path d="M657.5 98.45 L657.5 134.8 Q657.5 136.9 656.6 138.3 655.75 139.75 654.5 139.75 L3.5 139.75 Q2.25 139.75 1.4 138.3 0.55 136.9 0.55 134.8 L0.55 98.45 Q0.55 96.4 1.4 95.0 2.25 93.5 3.5 93.5 L654.5 93.5 Q655.75 93.5 656.6 95.0 657.5 96.4 657.5 98.45" fill="#032863" fill-rule="evenodd" stroke="none"/>
    <path d="M657.5 98.45 L657.5 134.8 Q657.5 136.9 656.6 138.3 655.75 139.75 654.5 139.75 L3.5 139.75 Q2.25 139.75 1.4 138.3 0.55 136.9 0.55 134.8 L0.55 98.45 Q0.55 96.4 1.4 95.0 2.25 93.5 3.5 93.5 L654.5 93.5 Q655.75 93.5 656.6 95.0 657.5 96.4 657.5 98.45 Z" fill="none" stroke="#034089" stroke-linecap="butt" stroke-linejoin="miter-clip" stroke-miterlimit="4.0" stroke-width="1.0"/>
    <path d="M658.05 410.3 L0.0 410.3 0.0 141.15 658.05 141.15 658.05 410.3" fill="#021849" fill-rule="evenodd" stroke="none"/>
    <path d="M658.05 410.3 L0.0 410.3 0.0 141.15 658.05 141.15 658.05 410.3 Z" fill="none" stroke="#05309b" stroke-linecap="round" stroke-linejoin="round" stroke-width="1.0"/>
    <path d="M653.5 332.85 L653.5 331.9 653.5 145.75 601.5 145.75 402.5 145.75 203.5 145.75 4.5 145.75 4.5 146.7 4.5 332.85 56.5 332.85 255.5 332.85 454.5 332.85 653.5 332.85 M654.5 333.8 L455.5 333.8 256.5 333.8 57.5 333.8 3.5 333.8 3.5 145.75 3.5 144.8 202.5 144.8 401.5 144.8 600.5 144.8 654.5 144.8 654.5 332.85 654.5 333.8" fill="#05309b" fill-rule="evenodd" stroke="none"/>
    <path d="M653.5 332.85 L454.5 332.85 255.5 332.85 56.5 332.85 4.5 332.85 4.5 146.7 4.5 145.75 203.5 145.75 402.5 145.75 601.5 145.75 653.5 145.75 653.5 331.9 653.5 332.85" fill="#021849" fill-rule="evenodd" stroke="none"/>
    <path d="M445.3 116.6 L84.1 116.6 84.1 95.4 445.3 95.4 445.3 116.6" fill="#043fa7" fill-rule="evenodd" stroke="none"/>
    <path d="M445.3 140.1 L84.1 140.1 84.1 118.9 445.3 118.9 445.3 140.1" fill="#043fa7" fill-rule="evenodd" stroke="none"/>
  </g>
</svg>
