<?xml version="1.0" encoding="UTF-8" standalone="no"?>
<svg xmlns:ffdec="https://www.free-decompiler.com/flash" xmlns:xlink="http://www.w3.org/1999/xlink" ffdec:objectType="shape" height="55.7px" width="52.05px" xmlns="http://www.w3.org/2000/svg">
  <g transform="matrix(1.0, 0.0, 0.0, 1.0, -6.55, -24.8)">
    <path d="M24.45 78.7 L40.7 78.7 41.75 80.0 55.75 80.0 58.1 77.65 58.1 75.0 55.05 78.0 10.1 78.0 7.05 75.0 7.05 77.65 9.4 80.0 23.4 80.0 24.45 78.7 Z" fill="none" stroke="#3edbff" stroke-linecap="butt" stroke-linejoin="miter-clip" stroke-miterlimit="4.0" stroke-width="1.0"/>
    <path d="M24.45 78.7 L23.4 80.0 9.4 80.0 7.05 77.65 7.05 75.0 10.1 78.0 55.05 78.0 58.1 75.0 58.1 77.65 55.75 80.0 41.75 80.0 40.7 78.7 24.45 78.7" fill="#0472af" fill-rule="evenodd" stroke="none"/>
    <path d="M55.05 27.3 L10.1 27.3 7.05 30.35 7.05 27.65 9.4 25.3 23.4 25.3 24.45 26.6 40.7 26.6 41.75 25.3 55.75 25.3 58.1 27.65 58.1 30.35 55.05 27.3 Z" fill="none" stroke="#3edbff" stroke-linecap="butt" stroke-linejoin="miter-clip" stroke-miterlimit="4.0" stroke-width="1.0"/>
    <path d="M55.05 27.3 L10.1 27.3 7.05 30.35 7.05 27.65 9.4 25.3 23.4 25.3 24.45 26.6 40.7 26.6 41.75 25.3 55.75 25.3 58.1 27.65 58.1 30.35 55.05 27.3" fill="#0472af" fill-rule="evenodd" stroke="none"/>
  </g>
</svg>
