<?xml version="1.0" encoding="UTF-8" standalone="no"?>
<svg xmlns:ffdec="https://www.free-decompiler.com/flash" xmlns:xlink="http://www.w3.org/1999/xlink" ffdec:objectType="shape" height="8.2px" width="7.0px" xmlns="http://www.w3.org/2000/svg">
  <g transform="matrix(1.0, 0.0, 0.0, 1.0, 2.6, 4.0)">
    <path d="M2.15 -3.75 Q3.35 -3.2 3.95 -2.2 L4.35 -0.85 Q4.55 0.05 4.2 1.15 3.7 2.4 2.2 3.35 0.4 4.5 -2.1 4.1 0.25 3.0 1.1 0.15 1.95 -1.9 2.15 -3.75" fill="#436301" fill-rule="evenodd" stroke="none"/>
    <path d="M1.0 -4.0 L2.15 -3.75 Q1.95 -1.9 1.1 0.15 0.5 -2.15 1.0 -4.0" fill="#98df04" fill-rule="evenodd" stroke="none"/>
    <path d="M-2.1 4.1 Q-3.05 0.85 -2.2 -1.5 -1.35 -3.7 1.0 -4.0 0.5 -2.15 1.1 0.15 0.25 3.0 -2.1 4.1" fill="#6b9d02" fill-rule="evenodd" stroke="none"/>
  </g>
</svg>
