<?xml version="1.0" encoding="UTF-8" standalone="no"?>
<svg xmlns:ffdec="https://www.free-decompiler.com/flash" xmlns:xlink="http://www.w3.org/1999/xlink" ffdec:objectType="shape" height="707.8px" width="742.7px" xmlns="http://www.w3.org/2000/svg">
  <g transform="matrix(1.0, 0.0, 0.0, 1.0, 371.8, 315.15)">
    <path d="M368.95 -305.95 Q368.95 -308.75 366.9 -310.8 364.75 -312.75 361.85 -312.75 L-362.8 -312.75 Q-365.7 -312.75 -367.85 -310.8 -369.9 -308.75 -369.9 -305.95 L-369.9 379.7 Q-369.9 382.5 -367.85 384.55 -365.7 386.5 -362.8 386.5 L-304.35 386.5 -298.65 386.95 Q-295.8 387.4 -294.9 388.0 -293.9 388.6 -291.05 389.05 L-285.35 389.5 289.3 389.5 295.05 389.05 Q297.9 388.6 298.85 388.0 299.85 387.4 302.7 386.95 L308.4 386.5 361.85 386.5 Q364.75 386.5 366.9 384.55 368.95 382.5 368.95 379.7 L368.95 -305.95 M363.75 -315.15 Q366.7 -315.15 368.8 -313.15 370.9 -311.1 370.9 -308.35 L370.9 385.9 Q370.9 388.65 368.8 390.7 366.7 392.65 363.75 392.65 L-364.7 392.65 Q-367.6 392.65 -369.75 390.7 -371.8 388.65 -371.8 385.9 L-371.8 -308.35 Q-371.8 -311.1 -369.75 -313.15 -367.6 -315.15 -364.7 -315.15 L363.75 -315.15" fill="url(#gradient0)" fill-rule="evenodd" stroke="none"/>
  </g>
  <defs>
    <linearGradient gradientTransform="matrix(0.0, -0.432, -0.4534, 0.0, -0.45, 38.75)" gradientUnits="userSpaceOnUse" id="gradient0" spreadMethod="pad" x1="-819.2" x2="819.2">
      <stop offset="0.0" stop-color="#0166d4"/>
      <stop offset="0.39215686274509803" stop-color="#0268d5"/>
      <stop offset="0.5764705882352941" stop-color="#0770d9"/>
      <stop offset="0.7215686274509804" stop-color="#0e7de0"/>
      <stop offset="0.8431372549019608" stop-color="#188fea"/>
      <stop offset="0.9490196078431372" stop-color="#26a7f7"/>
      <stop offset="1.0" stop-color="#2eb5ff"/>
    </linearGradient>
  </defs>
</svg>
