<?xml version="1.0" encoding="UTF-8" standalone="no"?>
<svg xmlns:ffdec="https://www.free-decompiler.com/flash" xmlns:xlink="http://www.w3.org/1999/xlink" ffdec:objectType="shape" height="361.0px" width="166.6px" xmlns="http://www.w3.org/2000/svg">
  <g transform="matrix(1.0, 0.0, 0.0, 1.0, -18.45, -25.65)">
    <path d="M121.35 26.15 L145.9 84.45 128.6 182.05 146.25 214.25 147.15 214.85 146.95 214.15 M127.75 180.55 L127.95 180.85 128.35 180.55 62.95 71.75 M128.6 182.05 L127.95 180.85 80.55 215.75 80.75 216.35 81.35 216.55 M146.25 214.25 L146.95 215.75 M179.75 236.55 L147.15 214.85 184.55 335.75 M99.75 270.95 L80.75 216.35 80.05 216.1 78.95 216.55 M80.55 215.75 L80.05 216.1 18.95 194.15 M78.95 386.15 L78.15 332.7 77.15 332.6 98.95 270.15 M183.75 335.75 L155.45 341.25 158.15 341.35 M155.45 341.25 L78.15 332.7 M153.35 342.15 L150.95 386.15" fill="none" stroke="#0a387e" stroke-linecap="round" stroke-linejoin="round" stroke-width="1.0"/>
  </g>
</svg>
