<?xml version="1.0" encoding="UTF-8" standalone="no"?>
<svg xmlns:ffdec="https://www.free-decompiler.com/flash" xmlns:xlink="http://www.w3.org/1999/xlink" ffdec:objectType="shape" height="31.0px" width="167.05px" xmlns="http://www.w3.org/2000/svg">
  <g transform="matrix(1.0, 0.0, 0.0, 1.0, -15.85, -15.3)">
    <path d="M166.15 45.8 L18.85 45.8 Q17.8 45.8 17.1 45.1 16.35 44.35 16.35 43.3 L16.35 18.3 Q16.35 17.3 17.1 16.55 17.8 15.8 18.85 15.8 L166.15 15.8 Q167.1 15.8 168.2 16.3 169.25 16.75 169.9 17.45 L181.8 30.6 Q182.5 31.45 182.4 32.4 182.3 33.5 181.6 34.15 L170.0 44.35 Q169.3 45.0 168.2 45.4 L166.15 45.8" fill="url(#gradient0)" fill-rule="evenodd" stroke="none"/>
    <path d="M169.5 17.8 Q168.95 17.2 167.95 16.75 L166.15 16.3 18.85 16.3 Q18.05 16.3 17.45 16.9 16.85 17.5 16.85 18.3 L16.85 43.3 Q16.85 44.15 17.45 44.7 18.05 45.3 18.85 45.3 L166.15 45.3 Q166.95 45.3 168.0 44.9 169.05 44.55 169.65 44.0 L181.25 33.75 Q181.85 33.2 181.9 32.4 181.95 31.55 181.4 30.95 L169.5 17.8 M166.15 15.3 Q167.2 15.3 168.35 15.85 169.55 16.35 170.25 17.1 L182.15 30.3 Q183.0 31.2 182.9 32.45 182.8 33.75 181.9 34.5 L170.35 44.75 Q169.6 45.4 168.4 45.85 L166.15 46.3 18.85 46.3 Q17.6 46.3 16.75 45.4 15.85 44.55 15.85 43.3 L15.85 18.3 Q15.85 17.05 16.75 16.2 17.6 15.3 18.85 15.3 L166.15 15.3" fill="#29abe2" fill-rule="evenodd" stroke="none"/>
  </g>
  <defs>
    <linearGradient gradientTransform="matrix(0.1013, 0.0, 0.0, -0.1013, 99.4, 30.8)" gradientUnits="userSpaceOnUse" id="gradient0" spreadMethod="pad" x1="-819.2" x2="819.2">
      <stop offset="0.0" stop-color="#008cff"/>
      <stop offset="0.18823529411764706" stop-color="#0089fb" stop-opacity="0.96862745"/>
      <stop offset="0.36470588235294116" stop-color="#0081f0" stop-opacity="0.8784314"/>
      <stop offset="0.5372549019607843" stop-color="#0074dd" stop-opacity="0.7294118"/>
      <stop offset="0.7058823529411765" stop-color="#0061c2" stop-opacity="0.5176471"/>
      <stop offset="0.8705882352941177" stop-color="#004aa0" stop-opacity="0.2509804"/>
      <stop offset="1.0" stop-color="#003380" stop-opacity="0.0"/>
    </linearGradient>
  </defs>
</svg>
