<?xml version="1.0" encoding="UTF-8" standalone="no"?>
<svg xmlns:ffdec="https://www.free-decompiler.com/flash" xmlns:xlink="http://www.w3.org/1999/xlink" ffdec:objectType="shape" height="519.4px" width="632.55px" xmlns="http://www.w3.org/2000/svg">
  <g transform="matrix(1.0, 0.0, 0.0, 1.0, 316.1, 246.1)">
    <path d="M283.15 234.3 L-283.5 234.3 -283.5 -215.75 283.15 -215.75 283.15 234.3" fill="#01061c" fill-rule="evenodd" stroke="none"/>
    <path d="M283.15 234.3 L-283.5 234.3 -283.5 -215.75 283.15 -215.75 283.15 234.3 Z" fill="none" stroke="#0459ad" stroke-linecap="butt" stroke-linejoin="miter-clip" stroke-miterlimit="4.0" stroke-width="1.0"/>
    <path d="M311.9 -246.1 Q313.95 -246.1 315.2 -244.65 316.45 -243.2 316.15 -241.2 L311.65 -212.1 310.75 -208.2 Q310.1 -206.35 309.55 -205.85 309.0 -205.3 308.65 -203.4 308.25 -201.55 308.25 -199.5 L308.25 202.35 Q308.25 204.4 308.65 206.3 309.0 208.15 309.55 208.7 310.1 209.2 310.65 211.1 L311.35 215.0 316.4 268.3 Q316.65 270.35 315.3 271.85 313.95 273.3 311.9 273.3 L-311.55 273.3 Q-313.6 273.3 -314.95 271.85 -316.25 270.35 -316.05 268.3 L-311.0 215.35 Q-310.8 213.25 -310.25 211.4 -309.7 209.5 -309.05 208.85 -308.45 208.25 -308.0 206.35 -307.55 204.4 -307.55 202.35 L-307.55 -199.5 Q-307.55 -201.55 -308.0 -203.5 -308.45 -205.4 -309.05 -206.0 -309.7 -206.65 -310.35 -208.55 -311.0 -210.4 -311.3 -212.45 L-315.8 -241.2 Q-316.1 -243.2 -314.85 -244.65 -313.6 -246.1 -311.55 -246.1 L311.9 -246.1" fill="url(#gradient0)" fill-rule="evenodd" stroke="none"/>
    <path d="M302.0 -219.9 L302.0 252.9 Q302.0 254.55 300.85 255.75 299.65 256.9 298.0 256.9 L-296.15 256.9 Q-297.8 256.9 -298.95 255.75 -300.15 254.55 -300.15 252.9 L-300.15 -219.9 Q-300.15 -221.55 -298.95 -222.7 -297.8 -223.9 -296.15 -223.9 L298.0 -223.9 Q299.65 -223.9 300.85 -222.7 302.0 -221.55 302.0 -219.9" fill="url(#gradient1)" fill-rule="evenodd" stroke="none"/>
    <path d="M298.0 -214.9 L298.0 246.75 Q298.0 248.8 296.55 250.3 295.05 251.75 293.0 251.75 L-291.15 251.75 Q-293.2 251.75 -294.7 250.3 -296.15 248.8 -296.15 246.75 L-296.15 -214.9 Q-296.15 -216.95 -294.7 -218.45 -293.2 -219.9 -291.15 -219.9 L293.0 -219.9 Q295.05 -219.9 296.55 -218.45 298.0 -216.95 298.0 -214.9" fill="#0b0d11" fill-rule="evenodd" stroke="none"/>
  </g>
  <defs>
    <linearGradient gradientTransform="matrix(0.0, -0.317, -0.317, 0.0, 0.15, 13.6)" gradientUnits="userSpaceOnUse" id="gradient0" spreadMethod="pad" x1="-819.2" x2="819.2">
      <stop offset="0.0" stop-color="#505050"/>
      <stop offset="0.10980392156862745" stop-color="#282828"/>
      <stop offset="0.18823529411764706" stop-color="#3a3a3a"/>
      <stop offset="0.4196078431372549" stop-color="#676767"/>
      <stop offset="0.6235294117647059" stop-color="#888888"/>
      <stop offset="0.792156862745098" stop-color="#9d9d9d"/>
      <stop offset="0.9058823529411765" stop-color="#a4a4a4"/>
      <stop offset="1.0" stop-color="#373737"/>
    </linearGradient>
    <linearGradient gradientTransform="matrix(0.0, -0.2935, -0.2935, 0.0, 0.9, 16.5)" gradientUnits="userSpaceOnUse" id="gradient1" spreadMethod="pad" x1="-819.2" x2="819.2">
      <stop offset="0.0" stop-color="#505050"/>
      <stop offset="1.0" stop-color="#393939"/>
    </linearGradient>
  </defs>
</svg>
