<?xml version="1.0" encoding="UTF-8" standalone="no"?>
<svg xmlns:ffdec="https://www.free-decompiler.com/flash" xmlns:xlink="http://www.w3.org/1999/xlink" ffdec:objectType="shape" height="214.25px" width="286.45px" xmlns="http://www.w3.org/2000/svg">
  <g transform="matrix(1.0, 0.0, 0.0, 1.0, 249.95, 95.25)">
    <path d="M-179.25 -89.8 Q-178.85 -90.0 -178.4 -90.3 L-177.8 -90.65 -177.5 -90.9 -176.0 -90.9 -174.35 -90.9 -174.9 -80.9 -176.4 -80.9 -178.15 -80.9 -177.9 -84.55 -177.7 -88.2 -178.25 -87.85 -179.35 -87.1 -179.3 -88.55 -179.25 -89.8 M-189.0 -89.8 L-188.15 -90.3 -187.55 -90.65 -187.25 -90.9 -185.75 -90.9 -184.1 -90.9 -184.65 -80.9 -186.15 -80.9 -187.9 -80.9 -187.65 -84.55 -187.45 -88.2 -188.0 -87.85 -189.1 -87.1 -189.05 -88.55 -189.0 -89.8" fill="#fdd32d" fill-rule="evenodd" stroke="none"/>
    <path d="M-179.25 -89.8 Q-178.85 -90.0 -178.4 -90.3 L-177.8 -90.65 -177.5 -90.9 -176.0 -90.9 -174.35 -90.9 -174.9 -80.9 -176.4 -80.9 -178.15 -80.9 -177.9 -84.55 -177.7 -88.2 -178.25 -87.85 -179.35 -87.1 -179.3 -88.55 -179.25 -89.8 M-189.0 -89.8 L-188.15 -90.3 -187.55 -90.65 -187.25 -90.9 -185.75 -90.9 -184.1 -90.9 -184.65 -80.9 -186.15 -80.9 -187.9 -80.9 -187.65 -84.55 -187.45 -88.2 -188.0 -87.85 -189.1 -87.1 -189.05 -88.55 -189.0 -89.8 Z" fill="none" stroke="#0842b7" stroke-linecap="butt" stroke-linejoin="miter-clip" stroke-miterlimit="4.0" stroke-width="2.0"/>
    <path d="M-148.3 -45.85 L-147.0 -45.35 -146.2 -44.6 Q-145.9 -44.15 -145.9 -43.65 L-146.0 -43.0 -146.3 -42.25 -147.0 -41.2 -148.4 -39.6 -150.2 -37.85 -149.4 -37.85 -148.25 -37.85 -147.1 -37.9 -146.3 -37.95 -146.35 -37.1 -146.45 -35.8 -150.25 -35.8 -154.35 -35.8 -154.3 -36.7 -154.25 -37.85 -152.85 -39.1 -151.0 -40.85 -149.95 -42.1 -149.6 -42.65 -149.55 -42.95 -149.65 -43.3 -149.95 -43.6 -150.45 -43.75 -151.1 -43.85 -152.2 -43.75 -153.75 -43.4 -153.55 -44.45 -153.35 -45.65 -149.75 -46.0 -148.3 -45.85" fill="#fdd32d" fill-rule="evenodd" stroke="none"/>
    <path d="M-148.3 -45.85 L-147.0 -45.35 -146.2 -44.6 Q-145.9 -44.15 -145.9 -43.65 L-146.0 -43.0 -146.3 -42.25 -147.0 -41.2 -148.4 -39.6 -150.2 -37.85 -149.4 -37.85 -148.25 -37.85 -147.1 -37.9 -146.3 -37.95 -146.35 -37.1 -146.45 -35.8 -150.25 -35.8 -154.35 -35.8 -154.3 -36.7 -154.25 -37.85 -152.85 -39.1 -151.0 -40.85 -149.95 -42.1 -149.6 -42.65 -149.55 -42.95 -149.65 -43.3 -149.95 -43.6 -150.45 -43.75 -151.1 -43.85 -152.2 -43.75 -153.75 -43.4 -153.55 -44.45 -153.35 -45.65 -149.75 -46.0 -148.3 -45.85 Z" fill="none" stroke="#0842b7" stroke-linecap="butt" stroke-linejoin="miter-clip" stroke-miterlimit="4.0" stroke-width="2.0"/>
    <path d="M-145.65 -44.4 L-145.75 -43.75 -146.05 -43.0 -146.75 -41.95 -148.15 -40.35 -149.95 -38.6 -149.15 -38.6 -148.0 -38.6 -146.85 -38.65 -146.05 -38.7 -146.1 -37.85 -146.2 -36.55 -150.0 -36.55 -154.1 -36.55 -154.05 -37.45 -154.0 -38.6 -152.6 -39.85 -150.75 -41.6 -149.7 -42.85 -149.35 -43.4 -149.3 -43.7 -149.4 -44.05 -149.7 -44.35 -150.2 -44.5 -150.85 -44.6 -151.95 -44.5 -153.5 -44.15 -153.3 -45.2 -153.1 -46.4 -149.5 -46.75 -148.05 -46.6 -146.75 -46.1 -145.95 -45.35 Q-145.65 -44.9 -145.65 -44.4" fill="#fdd32d" fill-rule="evenodd" stroke="none"/>
    <path d="M-188.85 -87.6 L-188.8 -89.05 -188.75 -90.3 Q-188.35 -90.5 -187.9 -90.8 L-187.3 -91.15 -187.0 -91.4 -185.5 -91.4 -183.85 -91.4 -184.4 -81.4 -185.9 -81.4 -187.65 -81.4 -187.4 -85.05 -187.2 -88.7 -187.75 -88.35 -188.85 -87.6 M-179.1 -87.6 L-179.05 -89.05 -179.0 -90.3 -178.15 -90.8 -177.55 -91.15 -177.25 -91.4 -175.75 -91.4 -174.1 -91.4 -174.65 -81.4 -176.15 -81.4 -177.9 -81.4 -177.65 -85.05 -177.45 -88.7 -178.0 -88.35 -179.1 -87.6" fill="#fdd32d" fill-rule="evenodd" stroke="none"/>
    <path d="M-211.55 -25.95 L-210.7 -25.15 -210.45 -24.0 -210.55 -23.3 -210.85 -22.65 -211.35 -22.15 -211.9 -21.75 -212.6 -21.45 -211.85 -21.25 -211.35 -20.95 -210.9 -20.5 -210.65 -19.9 -210.55 -19.25 Q-210.55 -18.5 -210.85 -17.9 -211.2 -17.25 -211.85 -16.85 -212.5 -16.45 -213.35 -16.3 L-215.05 -16.1 -216.6 -16.2 -218.4 -16.5 -218.6 -18.85 Q-217.0 -18.3 -215.65 -18.3 -214.85 -18.3 -214.35 -18.65 -213.85 -18.95 -213.85 -19.5 -213.85 -20.05 -214.35 -20.3 L-215.95 -20.55 -217.2 -20.45 -217.05 -22.7 -215.95 -22.6 -214.85 -22.7 Q-214.4 -22.8 -214.2 -23.05 L-213.95 -23.55 -214.15 -24.0 -214.65 -24.3 -215.55 -24.4 -216.55 -24.35 -217.95 -24.1 -217.6 -25.8 -217.5 -26.3 -214.6 -26.5 -212.95 -26.35 -211.55 -25.95" fill="#fdd32d" fill-rule="evenodd" stroke="none"/>
    <path d="M-211.55 -25.95 L-210.7 -25.15 -210.45 -24.0 -210.55 -23.3 -210.85 -22.65 -211.35 -22.15 -211.9 -21.75 -212.6 -21.45 -211.85 -21.25 -211.35 -20.95 -210.9 -20.5 -210.65 -19.9 -210.55 -19.25 Q-210.55 -18.5 -210.85 -17.9 -211.2 -17.25 -211.85 -16.85 -212.5 -16.45 -213.35 -16.3 L-215.05 -16.1 -216.6 -16.2 -218.4 -16.5 -218.6 -18.85 Q-217.0 -18.3 -215.65 -18.3 -214.85 -18.3 -214.35 -18.65 -213.85 -18.95 -213.85 -19.5 -213.85 -20.05 -214.35 -20.3 L-215.95 -20.55 -217.2 -20.45 -217.05 -22.7 -215.95 -22.6 -214.85 -22.7 Q-214.4 -22.8 -214.2 -23.05 L-213.95 -23.55 -214.15 -24.0 -214.65 -24.3 -215.55 -24.4 -216.55 -24.35 -217.95 -24.1 -217.6 -25.8 -217.5 -26.3 -214.6 -26.5 -212.95 -26.35 -211.55 -25.95 Z" fill="none" stroke="#0842b7" stroke-linecap="butt" stroke-linejoin="miter-clip" stroke-miterlimit="4.0" stroke-width="2.0"/>
    <path d="M-211.55 -26.3 L-210.7 -25.5 -210.45 -24.35 -210.55 -23.65 -210.85 -23.0 -211.35 -22.5 -211.9 -22.1 -212.6 -21.8 -211.85 -21.6 -211.35 -21.3 -210.9 -20.85 -210.65 -20.25 -210.55 -19.6 Q-210.55 -18.85 -210.85 -18.25 -211.2 -17.6 -211.85 -17.2 -212.5 -16.8 -213.35 -16.65 L-215.05 -16.45 -216.6 -16.55 -218.4 -16.85 -218.6 -19.2 Q-217.0 -18.65 -215.65 -18.65 -214.85 -18.65 -214.35 -19.0 -213.85 -19.3 -213.85 -19.85 -213.85 -20.4 -214.35 -20.65 L-215.95 -20.9 -217.2 -20.8 -217.05 -23.05 -215.95 -22.95 -214.85 -23.05 Q-214.4 -23.15 -214.2 -23.4 L-213.95 -23.9 -214.15 -24.35 -214.65 -24.65 -215.55 -24.75 -216.55 -24.7 -217.95 -24.45 -217.6 -26.15 -217.5 -26.65 -214.6 -26.85 -212.95 -26.7 -211.55 -26.3" fill="#fdd32d" fill-rule="evenodd" stroke="none"/>
    <path d="M-234.9 38.6 L-233.6 39.1 Q-233.05 39.4 -232.8 39.85 -232.5 40.3 -232.5 40.8 L-232.6 41.45 -232.9 42.2 -233.6 43.25 -235.0 44.85 -236.8 46.6 -236.0 46.6 -234.85 46.6 -233.7 46.55 -232.9 46.5 -232.95 47.35 -233.05 48.65 -236.85 48.65 -240.95 48.65 -240.9 47.75 -240.85 46.6 -239.45 45.35 -237.6 43.6 -236.55 42.35 -236.2 41.8 -236.15 41.5 -236.25 41.15 -236.55 40.85 -237.05 40.7 -237.7 40.6 -238.8 40.7 -240.35 41.05 -240.15 40.0 -239.95 38.8 -236.35 38.45 -234.9 38.6 M-243.8 38.65 L-244.35 48.65 -245.85 48.65 -247.6 48.65 -247.35 45.0 -247.15 41.35 -247.7 41.7 -248.8 42.45 -248.75 41.0 -248.7 39.75 -247.85 39.25 -247.25 38.9 -246.95 38.65 -245.45 38.65 -243.8 38.65" fill="#fdd32d" fill-rule="evenodd" stroke="none"/>
    <path d="M-234.9 38.6 L-233.6 39.1 Q-233.05 39.4 -232.8 39.85 -232.5 40.3 -232.5 40.8 L-232.6 41.45 -232.9 42.2 -233.6 43.25 -235.0 44.85 -236.8 46.6 -236.0 46.6 -234.85 46.6 -233.7 46.55 -232.9 46.5 -232.95 47.35 -233.05 48.65 -236.85 48.65 -240.95 48.65 -240.9 47.75 -240.85 46.6 -239.45 45.35 -237.6 43.6 -236.55 42.35 -236.2 41.8 -236.15 41.5 -236.25 41.15 -236.55 40.85 -237.05 40.7 -237.7 40.6 -238.8 40.7 -240.35 41.05 -240.15 40.0 -239.95 38.8 -236.35 38.45 -234.9 38.6 M-243.8 38.65 L-244.35 48.65 -245.85 48.65 -247.6 48.65 -247.35 45.0 -247.15 41.35 -247.7 41.7 -248.8 42.45 -248.75 41.0 -248.7 39.75 -247.85 39.25 -247.25 38.9 -246.95 38.65 -245.45 38.65 -243.8 38.65 Z" fill="none" stroke="#0842b7" stroke-linecap="butt" stroke-linejoin="miter-clip" stroke-miterlimit="4.0" stroke-width="2.0"/>
    <path d="M-235.4 37.6 L-234.1 38.1 Q-233.55 38.4 -233.3 38.85 -233.0 39.3 -233.0 39.8 L-233.1 40.45 -233.4 41.2 -234.1 42.25 -235.5 43.85 -237.3 45.6 -236.5 45.6 -235.35 45.6 -234.2 45.55 -233.4 45.5 -233.45 46.35 -233.55 47.65 -237.35 47.65 -241.45 47.65 -241.4 46.75 -241.35 45.6 -239.95 44.35 -238.1 42.6 -237.05 41.35 -236.7 40.8 -236.65 40.5 -236.75 40.15 -237.05 39.85 -237.55 39.7 -238.2 39.6 -239.3 39.7 -240.85 40.05 -240.65 39.0 -240.45 37.8 -236.85 37.45 -235.4 37.6 M-245.95 37.65 L-244.3 37.65 -244.85 47.65 -246.35 47.65 -248.1 47.65 -247.85 44.0 -247.65 40.35 -248.2 40.7 -249.3 41.45 -249.25 40.0 -249.2 38.75 -248.35 38.25 -247.75 37.9 -247.45 37.65 -245.95 37.65" fill="#fdd32d" fill-rule="evenodd" stroke="none"/>
    <path d="M-192.9 22.55 L-190.75 22.55 -190.6 19.25 -191.4 20.45 -191.85 21.1 -192.9 22.55 M-195.25 22.15 L-193.5 19.9 -191.65 17.15 -189.6 17.15 -187.85 17.15 -188.05 20.2 -188.15 22.45 -187.3 22.45 -186.9 22.45 -186.6 22.45 -186.65 24.3 -186.65 24.6 -187.9 24.6 -188.2 24.6 -188.3 27.15 -189.8 27.15 -191.4 27.15 -191.25 25.75 -191.2 24.6 -195.35 24.65 -195.3 24.45 -195.3 23.95 -195.25 22.55 -195.25 22.15" fill="#fdd32d" fill-rule="evenodd" stroke="none"/>
    <path d="M-192.9 22.55 L-190.75 22.55 -190.6 19.25 -191.4 20.45 -191.85 21.1 -192.9 22.55 M-195.25 22.15 L-193.5 19.9 -191.65 17.15 -189.6 17.15 -187.85 17.15 -188.05 20.2 -188.15 22.45 -187.3 22.45 -186.9 22.45 -186.6 22.45 -186.65 24.3 -186.65 24.6 -187.9 24.6 -188.2 24.6 -188.3 27.15 -189.8 27.15 -191.4 27.15 -191.25 25.75 -191.2 24.6 -195.35 24.65 -195.3 24.45 -195.3 23.95 -195.25 22.55 -195.25 22.15 Z" fill="none" stroke="#0842b7" stroke-linecap="butt" stroke-linejoin="miter-clip" stroke-miterlimit="4.0" stroke-width="2.0"/>
    <path d="M-189.6 16.65 L-187.85 16.65 -188.05 19.7 -188.15 21.95 -187.3 21.95 -186.9 21.95 -186.6 21.95 -186.65 23.8 -186.65 24.1 -187.9 24.1 -188.2 24.1 -188.3 26.65 -189.8 26.65 -191.4 26.65 -191.25 25.25 -191.2 24.1 -195.35 24.15 -195.3 23.95 -195.3 23.45 -195.25 22.05 -195.25 21.65 -193.5 19.4 -191.65 16.65 -189.6 16.65 M-191.85 20.6 L-192.9 22.05 -190.75 22.05 -190.6 18.75 -191.4 19.95 -191.85 20.6" fill="#fdd32d" fill-rule="evenodd" stroke="none"/>
    <path d="M-171.15 69.95 Q-170.0 69.95 -169.15 70.35 -168.25 70.7 -167.85 71.35 -167.45 72.0 -167.45 72.8 -167.45 73.6 -167.85 74.35 -168.3 75.1 -169.0 75.5 -169.7 75.95 -170.65 76.15 L-172.6 76.35 -173.45 76.3 -174.35 76.2 -175.25 76.0 -175.3 75.25 -175.35 74.6 -175.45 73.65 -172.9 74.1 -171.95 73.95 -171.25 73.45 -171.0 72.75 Q-171.0 72.25 -171.5 71.95 L-173.05 71.7 -173.95 71.75 -175.2 71.85 -174.8 67.15 -174.75 66.15 -171.25 66.15 -167.65 66.15 -167.7 67.35 -167.75 68.35 -169.9 68.3 -171.0 68.3 -171.75 68.3 -171.9 70.0 -171.15 69.95" fill="#fdd32d" fill-rule="evenodd" stroke="none"/>
    <path d="M-171.15 69.95 Q-170.0 69.95 -169.15 70.35 -168.25 70.7 -167.85 71.35 -167.45 72.0 -167.45 72.8 -167.45 73.6 -167.85 74.35 -168.3 75.1 -169.0 75.5 -169.7 75.95 -170.65 76.15 L-172.6 76.35 -173.45 76.3 -174.35 76.2 -175.25 76.0 -175.3 75.25 -175.35 74.6 -175.45 73.65 -172.9 74.1 -171.95 73.95 -171.25 73.45 -171.0 72.75 Q-171.0 72.25 -171.5 71.95 L-173.05 71.7 -173.95 71.75 -175.2 71.85 -174.8 67.15 -174.75 66.15 -171.25 66.15 -167.65 66.15 -167.7 67.35 -167.75 68.35 -169.9 68.3 -171.0 68.3 -171.75 68.3 -171.9 70.0 -171.15 69.95 Z" fill="none" stroke="#0842b7" stroke-linecap="butt" stroke-linejoin="miter-clip" stroke-miterlimit="4.0" stroke-width="2.0"/>
    <path d="M-170.4 67.8 L-171.5 67.8 -172.25 67.8 -172.4 69.5 -171.65 69.45 Q-170.5 69.45 -169.65 69.85 -168.75 70.2 -168.35 70.85 -167.95 71.5 -167.95 72.3 -167.95 73.1 -168.35 73.85 -168.8 74.6 -169.5 75.0 L-171.15 75.65 -173.1 75.85 -173.95 75.8 -174.85 75.7 -175.75 75.5 -175.8 74.75 -175.85 74.1 -175.95 73.15 -173.4 73.6 -172.45 73.45 -171.75 72.95 -171.5 72.25 Q-171.5 71.75 -172.0 71.45 L-173.55 71.2 -174.45 71.25 -175.7 71.35 -175.3 66.65 -175.25 65.65 -171.75 65.65 -168.15 65.65 -168.2 66.85 -168.25 67.85 -170.4 67.8" fill="#fdd32d" fill-rule="evenodd" stroke="none"/>
    <path d="M-148.65 110.15 L-148.95 110.8 -149.45 111.3 -150.0 111.7 -150.7 112.0 -149.95 112.2 -149.45 112.5 -149.0 112.95 Q-148.8 113.2 -148.75 113.55 L-148.65 114.2 Q-148.65 114.95 -148.95 115.55 L-149.95 116.6 -151.45 117.15 -153.15 117.35 -154.7 117.25 -156.5 116.95 -156.7 114.6 Q-155.1 115.15 -153.75 115.15 -152.95 115.15 -152.45 114.8 -151.95 114.5 -151.95 113.95 -151.95 113.4 -152.45 113.15 L-154.05 112.9 -155.3 113.0 -155.15 110.75 -154.05 110.85 -152.95 110.75 -152.3 110.4 -152.05 109.9 -152.25 109.45 -152.75 109.15 -153.65 109.05 -154.65 109.1 -156.05 109.35 -155.7 107.65 -155.6 107.15 -152.7 106.95 -151.05 107.1 -149.65 107.5 Q-149.1 107.8 -148.8 108.3 -148.55 108.8 -148.55 109.45 L-148.65 110.15 M-160.35 117.15 L-161.85 117.15 -163.6 117.15 -163.35 113.5 -163.15 109.85 -163.7 110.2 -164.8 110.95 -164.75 109.5 -164.7 108.25 -163.85 107.75 -163.25 107.4 -162.95 107.15 -161.45 107.15 -159.8 107.15 -160.35 117.15" fill="#fdd32d" fill-rule="evenodd" stroke="none"/>
    <path d="M-148.65 110.15 L-148.95 110.8 -149.45 111.3 -150.0 111.7 -150.7 112.0 -149.95 112.2 -149.45 112.5 -149.0 112.95 Q-148.8 113.2 -148.75 113.55 L-148.65 114.2 Q-148.65 114.95 -148.95 115.55 L-149.95 116.6 -151.45 117.15 -153.15 117.35 -154.7 117.25 -156.5 116.95 -156.7 114.6 Q-155.1 115.15 -153.75 115.15 -152.95 115.15 -152.45 114.8 -151.95 114.5 -151.95 113.95 -151.95 113.4 -152.45 113.15 L-154.05 112.9 -155.3 113.0 -155.15 110.75 -154.05 110.85 -152.95 110.75 -152.3 110.4 -152.05 109.9 -152.25 109.45 -152.75 109.15 -153.65 109.05 -154.65 109.1 -156.05 109.35 -155.7 107.65 -155.6 107.15 -152.7 106.95 -151.05 107.1 -149.65 107.5 Q-149.1 107.8 -148.8 108.3 -148.55 108.8 -148.55 109.45 L-148.65 110.15 M-160.35 117.15 L-161.85 117.15 -163.6 117.15 -163.35 113.5 -163.15 109.85 -163.7 110.2 -164.8 110.95 -164.75 109.5 -164.7 108.25 -163.85 107.75 -163.25 107.4 -162.95 107.15 -161.45 107.15 -159.8 107.15 -160.35 117.15 Z" fill="none" stroke="#0842b7" stroke-linecap="butt" stroke-linejoin="miter-clip" stroke-miterlimit="4.0" stroke-width="2.0"/>
    <path d="M-148.8 107.8 Q-148.55 108.3 -148.55 108.95 L-148.65 109.65 -148.95 110.3 -149.45 110.8 -150.0 111.2 -150.7 111.5 -149.95 111.7 -149.45 112.0 -149.0 112.45 Q-148.8 112.7 -148.75 113.05 L-148.65 113.7 Q-148.65 114.45 -148.95 115.05 L-149.95 116.1 -151.45 116.65 -153.15 116.85 -154.7 116.75 -156.5 116.45 -156.7 114.1 Q-155.1 114.65 -153.75 114.65 -152.95 114.65 -152.45 114.3 -151.95 114.0 -151.95 113.45 -151.95 112.9 -152.45 112.65 L-154.05 112.4 -155.3 112.5 -155.15 110.25 -154.05 110.35 -152.95 110.25 -152.3 109.9 -152.05 109.4 -152.25 108.95 -152.75 108.65 -153.65 108.55 -154.65 108.6 -156.05 108.85 -155.7 107.15 -155.6 106.65 -152.7 106.45 -151.05 106.6 -149.65 107.0 Q-149.1 107.3 -148.8 107.8 M-159.8 106.65 L-160.35 116.65 -161.85 116.65 -163.6 116.65 -163.35 113.0 -163.15 109.35 -163.7 109.7 -164.8 110.45 -164.75 109.0 -164.7 107.75 -163.85 107.25 -163.25 106.9 -162.95 106.65 -161.45 106.65 -159.8 106.65" fill="#fdd32d" fill-rule="evenodd" stroke="none"/>
    <path d="M-102.55 77.3 Q-102.25 78.0 -102.25 78.85 -102.25 79.4 -102.4 79.95 L-102.85 80.9 -103.55 81.7 Q-104.0 82.05 -104.5 82.2 L-105.55 82.5 -106.65 82.6 -108.95 82.15 Q-109.95 81.7 -110.4 80.95 L-110.85 79.25 -110.7 78.05 -110.2 76.55 -109.05 74.5 -107.6 72.4 -103.85 72.4 -105.3 74.15 -106.3 75.5 -107.05 76.75 -107.55 77.95 -107.75 78.55 -107.8 79.1 -107.65 79.75 -107.25 80.25 -106.55 80.45 -105.95 80.3 -105.5 79.8 -105.35 79.15 Q-105.35 78.55 -105.8 78.3 L-106.65 78.05 -107.05 78.05 -106.4 77.0 -105.8 76.0 -105.1 75.95 -103.6 76.3 Q-102.9 76.6 -102.55 77.3" fill="#fdd32d" fill-rule="evenodd" stroke="none"/>
    <path d="M-102.55 77.3 Q-102.25 78.0 -102.25 78.85 -102.25 79.4 -102.4 79.95 L-102.85 80.9 -103.55 81.7 Q-104.0 82.05 -104.5 82.2 L-105.55 82.5 -106.65 82.6 -108.95 82.15 Q-109.95 81.7 -110.4 80.95 L-110.85 79.25 -110.7 78.05 -110.2 76.55 -109.05 74.5 -107.6 72.4 -103.85 72.4 -105.3 74.15 -106.3 75.5 -107.05 76.75 -107.55 77.95 -107.75 78.55 -107.8 79.1 -107.65 79.75 -107.25 80.25 -106.55 80.45 -105.95 80.3 -105.5 79.8 -105.35 79.15 Q-105.35 78.55 -105.8 78.3 L-106.65 78.05 -107.05 78.05 -106.4 77.0 -105.8 76.0 -105.1 75.95 -103.6 76.3 Q-102.9 76.6 -102.55 77.3 Z" fill="none" stroke="#0842b7" stroke-linecap="butt" stroke-linejoin="miter-clip" stroke-miterlimit="4.0" stroke-width="2.0"/>
    <path d="M-103.85 72.15 L-105.3 73.9 -106.3 75.25 -107.05 76.5 -107.55 77.7 -107.75 78.3 -107.8 78.85 -107.65 79.5 -107.25 80.0 -106.55 80.2 -105.95 80.05 -105.5 79.55 -105.35 78.9 Q-105.35 78.3 -105.8 78.05 L-106.65 77.8 -107.05 77.8 -106.4 76.75 -105.8 75.75 -105.1 75.7 -103.6 76.05 Q-102.9 76.35 -102.55 77.05 -102.25 77.75 -102.25 78.6 -102.25 79.15 -102.4 79.7 L-102.85 80.65 -103.55 81.45 Q-104.0 81.8 -104.5 81.95 L-105.55 82.25 -106.65 82.35 -108.95 81.9 Q-109.95 81.45 -110.4 80.7 L-110.85 79.0 -110.7 77.8 -110.2 76.3 -109.05 74.25 -107.6 72.15 -103.85 72.15" fill="#fdd32d" fill-rule="evenodd" stroke="none"/>
    <path d="M-55.95 110.35 L-57.0 111.8 -54.85 111.8 -54.7 108.5 -55.5 109.7 -55.95 110.35 M-55.75 106.4 L-53.7 106.4 -51.95 106.4 -52.15 109.45 -52.25 111.7 -51.4 111.7 -51.0 111.7 -50.7 111.7 -50.75 113.55 -50.75 113.85 -52.0 113.85 -52.3 113.85 -52.4 116.4 -53.9 116.4 -55.5 116.4 -55.35 115.0 -55.3 113.85 -59.45 113.9 -59.4 113.7 -59.4 113.2 -59.35 111.8 -59.35 111.4 -57.6 109.15 -55.75 106.4 M-65.45 106.4 L-63.95 106.4 -62.3 106.4 -62.85 116.4 -64.35 116.4 -66.1 116.4 -65.85 112.75 -65.65 109.1 -66.2 109.45 -67.3 110.2 -67.25 108.75 -67.2 107.5 -66.35 107.0 -65.75 106.65 -65.45 106.4" fill="#fdd32d" fill-rule="evenodd" stroke="none"/>
    <path d="M-55.95 110.35 L-57.0 111.8 -54.85 111.8 -54.7 108.5 -55.5 109.7 -55.95 110.35 M-55.75 106.4 L-53.7 106.4 -51.95 106.4 -52.15 109.45 -52.25 111.7 -51.4 111.7 -51.0 111.7 -50.7 111.7 -50.75 113.55 -50.75 113.85 -52.0 113.85 -52.3 113.85 -52.4 116.4 -53.9 116.4 -55.5 116.4 -55.35 115.0 -55.3 113.85 -59.45 113.9 -59.4 113.7 -59.4 113.2 -59.35 111.8 -59.35 111.4 -57.6 109.15 -55.75 106.4 M-65.45 106.4 L-63.95 106.4 -62.3 106.4 -62.85 116.4 -64.35 116.4 -66.1 116.4 -65.85 112.75 -65.65 109.1 -66.2 109.45 -67.3 110.2 -67.25 108.75 -67.2 107.5 -66.35 107.0 -65.75 106.65 -65.45 106.4 Z" fill="none" stroke="#0842b7" stroke-linecap="butt" stroke-linejoin="miter-clip" stroke-miterlimit="4.0" stroke-width="2.0"/>
    <path d="M-56.2 109.85 L-57.25 111.3 -55.1 111.3 -54.95 108.0 -55.75 109.2 -56.2 109.85 M-56.0 105.9 L-53.95 105.9 -52.2 105.9 -52.4 108.95 -52.5 111.2 -51.65 111.2 -51.25 111.2 -50.95 111.2 -51.0 113.05 -51.0 113.35 -52.25 113.35 -52.55 113.35 -52.65 115.9 -54.15 115.9 -55.75 115.9 -55.6 114.5 -55.55 113.35 -59.7 113.4 -59.65 113.2 -59.65 112.7 -59.6 111.3 -59.6 110.9 -57.85 108.65 -56.0 105.9 M-66.45 108.95 L-67.55 109.7 -67.5 108.25 -67.45 107.0 -66.6 106.5 -66.0 106.15 -65.7 105.9 -64.2 105.9 -62.55 105.9 -63.1 115.9 -64.6 115.9 -66.35 115.9 -66.1 112.25 -65.9 108.6 -66.45 108.95" fill="#fdd32d" fill-rule="evenodd" stroke="none"/>
    <path d="M-14.75 63.45 L-17.6 69.05 -18.6 71.15 -22.45 71.15 -21.6 69.6 -20.05 66.65 -18.75 64.2 -18.3 63.3 -19.3 63.3 -22.6 63.4 -22.5 61.15 -14.65 61.15 -14.75 63.45" fill="#fdd32d" fill-rule="evenodd" stroke="none"/>
    <path d="M-14.75 63.45 L-17.6 69.05 -18.6 71.15 -22.45 71.15 -21.6 69.6 -20.05 66.65 -18.75 64.2 -18.3 63.3 -19.3 63.3 -22.6 63.4 -22.5 61.15 -14.65 61.15 -14.75 63.45 Z" fill="none" stroke="#0842b7" stroke-linecap="butt" stroke-linejoin="miter-clip" stroke-miterlimit="4.0" stroke-width="2.0"/>
    <path d="M-17.85 68.55 L-18.85 70.65 -22.7 70.65 -21.85 69.1 -20.3 66.15 -19.0 63.7 -18.55 62.8 -19.55 62.8 -22.85 62.9 -22.75 60.65 -14.9 60.65 -15.0 62.95 -17.85 68.55" fill="#fdd32d" fill-rule="evenodd" stroke="none"/>
    <path d="M24.2 77.9 L23.65 87.9 22.15 87.9 20.4 87.9 20.65 84.25 20.85 80.6 20.3 80.95 19.2 81.7 19.25 80.25 19.3 79.0 20.15 78.5 20.75 78.15 Q20.85 78.05 21.05 77.9 L22.55 77.9 24.2 77.9 M33.0 80.05 L31.9 80.05 31.15 80.05 31.0 81.75 31.75 81.7 33.75 82.1 Q34.65 82.45 35.05 83.1 35.45 83.75 35.45 84.55 35.45 85.35 35.05 86.1 L33.9 87.25 32.25 87.9 30.3 88.1 29.45 88.05 28.55 87.95 27.65 87.75 27.6 87.0 27.55 86.35 27.45 85.4 30.0 85.85 30.95 85.7 31.65 85.2 31.9 84.5 Q31.9 84.0 31.4 83.7 L29.85 83.45 28.95 83.5 27.7 83.6 28.1 78.9 28.15 77.9 31.65 77.9 35.25 77.9 35.2 79.1 35.15 80.1 33.0 80.05" fill="#fdd32d" fill-rule="evenodd" stroke="none"/>
    <path d="M24.2 77.9 L23.65 87.9 22.15 87.9 20.4 87.9 20.65 84.25 20.85 80.6 20.3 80.95 19.2 81.7 19.25 80.25 19.3 79.0 20.15 78.5 20.75 78.15 Q20.85 78.05 21.05 77.9 L22.55 77.9 24.2 77.9 M33.0 80.05 L31.9 80.05 31.15 80.05 31.0 81.75 31.75 81.7 33.75 82.1 Q34.65 82.45 35.05 83.1 35.45 83.75 35.45 84.55 35.45 85.35 35.05 86.1 L33.9 87.25 32.25 87.9 30.3 88.1 29.45 88.05 28.55 87.95 27.65 87.75 27.6 87.0 27.55 86.35 27.45 85.4 30.0 85.85 30.95 85.7 31.65 85.2 31.9 84.5 Q31.9 84.0 31.4 83.7 L29.85 83.45 28.95 83.5 27.7 83.6 28.1 78.9 28.15 77.9 31.65 77.9 35.25 77.9 35.2 79.1 35.15 80.1 33.0 80.05 Z" fill="none" stroke="#0842b7" stroke-linecap="butt" stroke-linejoin="miter-clip" stroke-miterlimit="4.0" stroke-width="2.0"/>
    <path d="M19.2 80.95 L19.25 79.5 19.3 78.25 20.15 77.75 20.75 77.4 Q20.85 77.3 21.05 77.15 L22.55 77.15 24.2 77.15 23.65 87.15 22.15 87.15 20.4 87.15 20.65 83.5 20.85 79.85 20.3 80.2 19.2 80.95 M33.0 79.3 L31.9 79.3 31.15 79.3 31.0 81.0 31.75 80.95 33.75 81.35 Q34.65 81.7 35.05 82.35 35.45 83.0 35.45 83.8 35.45 84.6 35.05 85.35 L33.9 86.5 32.25 87.15 30.3 87.35 29.45 87.3 28.55 87.2 27.65 87.0 27.6 86.25 27.55 85.6 27.45 84.65 30.0 85.1 30.95 84.95 31.65 84.45 31.9 83.75 Q31.9 83.25 31.4 82.95 L29.85 82.7 28.95 82.75 27.7 82.85 28.1 78.15 28.15 77.15 31.65 77.15 35.25 77.15 35.2 78.35 35.15 79.35 33.0 79.3" fill="#fdd32d" fill-rule="evenodd" stroke="none"/>
    <path d="M34.3 1.7 L35.05 2.55 35.3 3.7 35.2 4.3 35.0 4.85 34.7 5.3 34.3 5.65 33.6 6.05 34.3 6.3 34.8 6.6 35.2 7.05 35.4 7.55 35.5 8.15 35.15 9.55 34.15 10.65 32.7 11.2 31.05 11.4 29.45 11.25 28.1 10.7 27.25 9.8 Q26.95 9.3 26.95 8.65 26.95 8.25 27.1 7.9 L27.4 7.2 27.85 6.7 28.35 6.35 29.05 6.05 28.45 5.75 28.05 5.4 27.75 4.9 27.55 4.4 27.5 3.9 Q27.5 3.15 27.85 2.6 28.15 2.05 28.8 1.65 29.4 1.3 30.15 1.15 L31.65 1.0 33.1 1.2 34.3 1.7 M31.45 3.05 Q30.9 3.05 30.55 3.35 30.2 3.7 30.2 4.15 L30.35 4.65 30.75 5.0 31.35 5.1 32.25 4.8 Q32.6 4.5 32.6 4.0 L32.3 3.3 31.45 3.05 M29.9 8.25 L30.05 8.8 30.55 9.2 31.2 9.35 31.9 9.2 32.4 8.8 32.6 8.1 Q32.6 7.6 32.25 7.35 31.9 7.05 31.3 7.05 30.65 7.05 30.25 7.4 29.9 7.7 29.9 8.25" fill="#fdd32d" fill-rule="evenodd" stroke="none"/>
    <path d="M34.3 1.7 L35.05 2.55 35.3 3.7 35.2 4.3 35.0 4.85 34.7 5.3 34.3 5.65 33.6 6.05 34.3 6.3 34.8 6.6 35.2 7.05 35.4 7.55 35.5 8.15 35.15 9.55 34.15 10.65 32.7 11.2 31.05 11.4 29.45 11.25 28.1 10.7 27.25 9.8 Q26.95 9.3 26.95 8.65 26.95 8.25 27.1 7.9 L27.4 7.2 27.85 6.7 28.35 6.35 29.05 6.05 28.45 5.75 28.05 5.4 27.75 4.9 27.55 4.4 27.5 3.9 Q27.5 3.15 27.85 2.6 28.15 2.05 28.8 1.65 29.4 1.3 30.15 1.15 L31.65 1.0 33.1 1.2 34.3 1.7 M31.45 3.05 Q30.9 3.05 30.55 3.35 30.2 3.7 30.2 4.15 L30.35 4.65 30.75 5.0 31.35 5.1 32.25 4.8 Q32.6 4.5 32.6 4.0 L32.3 3.3 31.45 3.05 M29.9 8.25 L30.05 8.8 30.55 9.2 31.2 9.35 31.9 9.2 32.4 8.8 32.6 8.1 Q32.6 7.6 32.25 7.35 31.9 7.05 31.3 7.05 30.65 7.05 30.25 7.4 29.9 7.7 29.9 8.25 Z" fill="none" stroke="#0842b7" stroke-linecap="butt" stroke-linejoin="miter-clip" stroke-miterlimit="4.0" stroke-width="2.0"/>
    <path d="M34.8 2.05 L35.05 3.2 34.95 3.8 34.75 4.35 34.45 4.8 34.05 5.15 33.35 5.55 34.05 5.8 34.55 6.1 34.95 6.55 35.15 7.05 35.25 7.65 34.9 9.05 33.9 10.15 32.45 10.7 30.8 10.9 29.2 10.75 Q28.45 10.55 27.85 10.2 27.25 9.8 27.0 9.3 26.7 8.8 26.7 8.15 26.7 7.75 26.85 7.4 L27.15 6.7 27.6 6.2 28.1 5.85 28.8 5.55 28.2 5.25 27.8 4.9 27.5 4.4 27.3 3.9 27.25 3.4 Q27.25 2.65 27.6 2.1 27.9 1.55 28.55 1.15 L29.9 0.65 31.4 0.5 32.85 0.7 34.05 1.2 34.8 2.05 M32.05 2.8 L31.2 2.55 Q30.65 2.55 30.3 2.85 29.95 3.2 29.95 3.65 29.95 3.95 30.1 4.15 30.25 4.4 30.5 4.5 L31.1 4.6 32.0 4.3 Q32.35 4.0 32.35 3.5 L32.05 2.8 M32.0 6.85 Q31.65 6.55 31.05 6.55 30.4 6.55 30.0 6.9 29.65 7.2 29.65 7.75 L29.8 8.3 30.3 8.7 30.95 8.85 31.65 8.7 32.15 8.3 32.35 7.6 Q32.35 7.1 32.0 6.85" fill="#fdd32d" fill-rule="evenodd" stroke="none"/>
    <path d="M-11.4 -48.45 L-11.15 -47.2 -11.25 -46.2 -11.55 -45.1 -12.2 -43.75 -13.1 -42.15 -14.45 -40.3 -18.25 -40.3 -17.05 -41.8 -15.9 -43.35 -15.0 -44.7 -14.55 -45.7 -14.3 -46.45 -14.25 -47.05 -14.35 -47.7 -14.75 -48.2 -15.4 -48.35 Q-15.95 -48.35 -16.35 -47.95 -16.75 -47.6 -16.75 -47.0 L-16.6 -46.4 -16.15 -46.0 -15.55 -45.85 -15.0 -45.95 -16.45 -43.85 -16.85 -43.8 -17.9 -44.0 Q-18.45 -44.15 -18.9 -44.55 L-19.55 -45.5 -19.8 -46.7 Q-19.8 -47.6 -19.4 -48.35 L-18.35 -49.6 Q-17.65 -50.1 -16.85 -50.3 L-15.1 -50.5 -13.45 -50.25 Q-12.65 -50.05 -12.15 -49.55 -11.65 -49.1 -11.4 -48.45" fill="#fdd32d" fill-rule="evenodd" stroke="none"/>
    <path d="M-11.4 -48.45 L-11.15 -47.2 -11.25 -46.2 -11.55 -45.1 -12.2 -43.75 -13.1 -42.15 -14.45 -40.3 -18.25 -40.3 -17.05 -41.8 -15.9 -43.35 -15.0 -44.7 -14.55 -45.7 -14.3 -46.45 -14.25 -47.05 -14.35 -47.7 -14.75 -48.2 -15.4 -48.35 Q-15.95 -48.35 -16.35 -47.95 -16.75 -47.6 -16.75 -47.0 L-16.6 -46.4 -16.15 -46.0 -15.55 -45.85 -15.0 -45.95 -16.45 -43.85 -16.85 -43.8 -17.9 -44.0 Q-18.45 -44.15 -18.9 -44.55 L-19.55 -45.5 -19.8 -46.7 Q-19.8 -47.6 -19.4 -48.35 L-18.35 -49.6 Q-17.65 -50.1 -16.85 -50.3 L-15.1 -50.5 -13.45 -50.25 Q-12.65 -50.05 -12.15 -49.55 -11.65 -49.1 -11.4 -48.45 Z" fill="none" stroke="#0842b7" stroke-linecap="butt" stroke-linejoin="miter-clip" stroke-miterlimit="4.0" stroke-width="2.0"/>
    <path d="M-13.45 -50.75 Q-12.65 -50.55 -12.15 -50.05 -11.65 -49.6 -11.4 -48.95 L-11.15 -47.7 -11.25 -46.7 -11.55 -45.6 -12.2 -44.25 -13.1 -42.65 -14.45 -40.8 -18.25 -40.8 -17.05 -42.3 -15.9 -43.85 -15.0 -45.2 -14.55 -46.2 -14.3 -46.95 -14.25 -47.55 -14.35 -48.2 -14.75 -48.7 -15.4 -48.85 Q-15.95 -48.85 -16.35 -48.45 -16.75 -48.1 -16.75 -47.5 L-16.6 -46.9 -16.15 -46.5 -15.55 -46.35 -15.0 -46.45 -16.45 -44.35 -16.85 -44.3 -17.9 -44.5 Q-18.45 -44.65 -18.9 -45.05 L-19.55 -46.0 -19.8 -47.2 Q-19.8 -48.1 -19.4 -48.85 L-18.35 -50.1 Q-17.65 -50.6 -16.85 -50.8 L-15.1 -51.0 -13.45 -50.75" fill="#fdd32d" fill-rule="evenodd" stroke="none"/>
    <path d="M-73.95 -45.55 L-74.5 -35.55 -76.0 -35.55 -77.75 -35.55 -77.5 -39.2 -77.3 -42.85 -77.85 -42.5 -78.95 -41.75 -78.9 -43.2 -78.85 -44.45 -78.0 -44.95 -77.4 -45.3 -77.1 -45.55 -75.6 -45.55 -73.95 -45.55" fill="#fdd32d" fill-rule="evenodd" stroke="none"/>
    <path d="M-73.95 -45.55 L-74.5 -35.55 -76.0 -35.55 -77.75 -35.55 -77.5 -39.2 -77.3 -42.85 -77.85 -42.5 -78.95 -41.75 -78.9 -43.2 -78.85 -44.45 -78.0 -44.95 -77.4 -45.3 -77.1 -45.55 -75.6 -45.55 -73.95 -45.55 Z" fill="none" stroke="#0842b7" stroke-linecap="butt" stroke-linejoin="miter-clip" stroke-miterlimit="4.0" stroke-width="2.0"/>
    <path d="M-78.0 -45.2 L-77.4 -45.55 -77.1 -45.8 -75.6 -45.8 -73.95 -45.8 -74.5 -35.8 -76.0 -35.8 -77.75 -35.8 -77.5 -39.45 -77.3 -43.1 -77.85 -42.75 -78.95 -42.0 -78.9 -43.45 -78.85 -44.7 -78.0 -45.2" fill="#fdd32d" fill-rule="evenodd" stroke="none"/>
    <path d="M-86.95 -92.8 Q-86.35 -93.55 -85.45 -93.9 L-83.6 -94.25 -81.45 -93.8 Q-80.5 -93.3 -80.0 -92.2 -79.45 -91.1 -79.45 -89.55 -79.45 -88.4 -79.8 -87.2 -80.1 -86.05 -80.65 -85.35 -81.25 -84.65 -82.15 -84.25 L-84.1 -83.85 -85.75 -84.15 -87.1 -85.1 Q-87.7 -85.7 -87.95 -86.6 L-88.2 -88.5 -87.85 -90.9 Q-87.55 -92.05 -86.95 -92.8 M-91.05 -94.05 L-91.6 -84.05 -93.1 -84.05 -94.85 -84.05 -94.6 -87.7 -94.4 -91.35 -94.95 -91.0 -96.05 -90.25 -96.0 -91.7 -95.95 -92.95 Q-95.55 -93.15 -95.1 -93.45 L-94.5 -93.8 -94.2 -94.05 -92.7 -94.05 -91.05 -94.05 M-84.8 -91.2 L-85.15 -90.0 -85.25 -88.35 -85.1 -87.05 -84.65 -86.3 Q-84.4 -86.0 -84.0 -86.0 L-83.55 -86.1 -83.1 -86.5 -82.7 -87.3 -82.45 -88.4 -82.35 -89.6 Q-82.35 -90.85 -82.7 -91.45 -83.05 -92.05 -83.65 -92.05 L-84.25 -91.85 -84.8 -91.2" fill="#fdd32d" fill-rule="evenodd" stroke="none"/>
    <path d="M-86.95 -92.8 Q-86.35 -93.55 -85.45 -93.9 L-83.6 -94.25 -81.45 -93.8 Q-80.5 -93.3 -80.0 -92.2 -79.45 -91.1 -79.45 -89.55 -79.45 -88.4 -79.8 -87.2 -80.1 -86.05 -80.65 -85.35 -81.25 -84.65 -82.15 -84.25 L-84.1 -83.85 -85.75 -84.15 -87.1 -85.1 Q-87.7 -85.7 -87.95 -86.6 L-88.2 -88.5 -87.85 -90.9 Q-87.55 -92.05 -86.95 -92.8 M-91.05 -94.05 L-91.6 -84.05 -93.1 -84.05 -94.85 -84.05 -94.6 -87.7 -94.4 -91.35 -94.95 -91.0 -96.05 -90.25 -96.0 -91.7 -95.95 -92.95 Q-95.55 -93.15 -95.1 -93.45 L-94.5 -93.8 -94.2 -94.05 -92.7 -94.05 -91.05 -94.05 M-84.8 -91.2 L-85.15 -90.0 -85.25 -88.35 -85.1 -87.05 -84.65 -86.3 Q-84.4 -86.0 -84.0 -86.0 L-83.55 -86.1 -83.1 -86.5 -82.7 -87.3 -82.45 -88.4 -82.35 -89.6 Q-82.35 -90.85 -82.7 -91.45 -83.05 -92.05 -83.65 -92.05 L-84.25 -91.85 -84.8 -91.2 Z" fill="none" stroke="#0842b7" stroke-linecap="butt" stroke-linejoin="miter-clip" stroke-miterlimit="4.0" stroke-width="2.0"/>
    <path d="M-81.2 -94.05 Q-80.25 -93.55 -79.75 -92.45 -79.2 -91.35 -79.2 -89.8 -79.2 -88.65 -79.55 -87.45 -79.85 -86.3 -80.4 -85.6 -81.0 -84.9 -81.9 -84.5 L-83.85 -84.1 -85.5 -84.4 Q-86.3 -84.7 -86.85 -85.35 -87.45 -85.95 -87.7 -86.85 L-87.95 -88.75 -87.6 -91.15 Q-87.3 -92.3 -86.7 -93.05 L-85.2 -94.15 -83.35 -94.5 -81.2 -94.05 M-82.45 -91.7 Q-82.8 -92.3 -83.4 -92.3 L-84.0 -92.1 -84.55 -91.45 -84.9 -90.25 -85.0 -88.6 -84.85 -87.3 -84.4 -86.55 Q-84.15 -86.25 -83.75 -86.25 L-83.3 -86.35 -82.85 -86.75 -82.45 -87.55 -82.2 -88.65 -82.1 -89.85 Q-82.1 -91.1 -82.45 -91.7 M-90.8 -94.3 L-91.35 -84.3 -92.85 -84.3 -94.6 -84.3 -94.35 -87.95 -94.15 -91.6 -94.7 -91.25 -95.8 -90.5 -95.75 -91.95 -95.7 -93.2 -94.85 -93.7 -94.25 -94.05 -93.95 -94.3 -92.45 -94.3 -90.8 -94.3" fill="#fdd32d" fill-rule="evenodd" stroke="none"/>
  </g>
</svg>
