<?xml version="1.0" encoding="UTF-8" standalone="no"?>
<svg xmlns:ffdec="https://www.free-decompiler.com/flash" xmlns:xlink="http://www.w3.org/1999/xlink" ffdec:objectType="shape" height="11.6px" width="13.7px" xmlns="http://www.w3.org/2000/svg">
  <g transform="matrix(1.0, 0.0, 0.0, 1.0, 0.0, 0.0)">
    <path d="M1.15 4.95 Q1.05 5.6 0.85 5.5 0.65 5.5 0.75 4.9 0.85 4.3 1.05 4.3 1.35 4.4 1.15 4.95" fill="#76b7fa" fill-rule="evenodd" stroke="none"/>
    <path d="M12.5 4.85 Q12.4 4.3 12.6 4.2 12.85 4.2 12.95 4.75 L12.85 5.4 Q12.7 5.5 12.5 4.85" fill="#76b7fa" fill-rule="evenodd" stroke="none"/>
    <path d="M10.95 3.3 L11.15 3.7 13.45 3.7 13.7 4.25 9.6 5.2 9.75 6.45 9.05 6.45 8.45 7.35 7.9 7.8 7.4 10.3 6.85 11.6 6.35 10.2 5.85 7.8 5.25 7.35 4.7 6.5 4.0 6.5 4.1 5.25 0.0 4.4 0.2 3.85 2.5 3.8 3.05 3.25 4.7 3.35 3.4 0.05 3.7 0.05 5.6 3.35 6.05 3.05 6.5 2.95 6.85 3.05 7.15 2.95 7.6 3.0 8.05 3.3 9.9 0.0 10.15 0.0 8.95 3.35 10.95 3.3" fill="url(#gradient0)" fill-rule="evenodd" stroke="none"/>
    <path d="M7.9 7.4 L8.2 6.0 9.1 6.0 9.35 6.05 9.4 6.3 8.9 6.3 8.4 7.15 7.9 7.4" fill="#3980c6" fill-rule="evenodd" stroke="none"/>
    <path d="M6.0 7.5 L5.35 7.2 4.8 6.35 4.35 6.35 4.35 6.1 4.6 6.05 5.55 6.0 6.0 7.5" fill="#3980c6" fill-rule="evenodd" stroke="none"/>
    <path d="M7.65 5.4 Q7.65 5.8 7.45 5.8 L6.9 5.7 6.35 5.8 Q6.15 5.8 6.15 5.4 6.15 4.4 6.9 4.3 7.2 4.3 7.45 4.65 L7.65 5.4" fill="#a1ffff" fill-rule="evenodd" stroke="none"/>
    <path d="M9.7 6.1 L9.6 5.2 10.2 5.05 12.2 6.65 12.1 6.95 9.7 6.1" fill="url(#gradient1)" fill-rule="evenodd" stroke="none"/>
    <path d="M4.0 6.15 L1.6 7.0 1.5 6.7 3.5 5.15 4.1 5.3 4.0 6.15" fill="url(#gradient2)" fill-rule="evenodd" stroke="none"/>
  </g>
  <defs>
    <linearGradient gradientTransform="matrix(-1.0E-4, -0.007, -0.007, 1.0E-4, 6.85, 5.8)" gradientUnits="userSpaceOnUse" id="gradient0" spreadMethod="pad" x1="-819.2" x2="819.2">
      <stop offset="0.0" stop-color="#70f0fa"/>
      <stop offset="0.023529411764705882" stop-color="#6eebfa"/>
      <stop offset="0.1568627450980392" stop-color="#66cffa"/>
      <stop offset="0.29411764705882354" stop-color="#60bbfa"/>
      <stop offset="0.43137254901960786" stop-color="#5caffa"/>
      <stop offset="0.5686274509803921" stop-color="#5babfa"/>
      <stop offset="0.6" stop-color="#579efa"/>
      <stop offset="0.6549019607843137" stop-color="#518bfa"/>
      <stop offset="0.7215686274509804" stop-color="#4d7ffa"/>
      <stop offset="0.8117647058823529" stop-color="#4b77fa"/>
      <stop offset="1.0" stop-color="#4a75fa"/>
    </linearGradient>
    <linearGradient gradientTransform="matrix(0.0013, -4.0E-4, -4.0E-4, -0.0013, 10.85, 6.1)" gradientUnits="userSpaceOnUse" id="gradient1" spreadMethod="pad" x1="-819.2" x2="819.2">
      <stop offset="0.0" stop-color="#4782fa"/>
      <stop offset="0.08235294117647059" stop-color="#4b87fa"/>
      <stop offset="0.6627450980392157" stop-color="#66a3fa"/>
      <stop offset="1.0" stop-color="#70adfa"/>
    </linearGradient>
    <linearGradient gradientTransform="matrix(0.0017, -6.0E-4, -6.0E-4, -0.0017, 2.8, 6.0)" gradientUnits="userSpaceOnUse" id="gradient2" spreadMethod="pad" x1="-819.2" x2="819.2">
      <stop offset="0.0" stop-color="#70adfa"/>
      <stop offset="0.33725490196078434" stop-color="#66a3fa"/>
      <stop offset="0.9176470588235294" stop-color="#4b87fa"/>
      <stop offset="1.0" stop-color="#4782fa"/>
    </linearGradient>
  </defs>
</svg>
