<?xml version="1.0" encoding="UTF-8" standalone="no"?>
<svg xmlns:ffdec="https://www.free-decompiler.com/flash" xmlns:xlink="http://www.w3.org/1999/xlink" ffdec:objectType="shape" height="211.4px" width="502.05px" xmlns="http://www.w3.org/2000/svg">
  <g transform="matrix(1.0, 0.0, 0.0, 1.0, 350.65, -16.3)">
    <path d="M-184.15 224.4 L-184.15 19.0 Q-184.15 18.1 -183.15 17.45 -182.1 16.85 -180.7 16.85 L95.0 16.85 95.0 227.2 -180.7 227.2 -184.15 224.4" fill="url(#gradient0)" fill-rule="evenodd" stroke="none"/>
    <path d="M147.95 227.2 L151.4 224.4 Q151.4 225.6 150.35 226.45 149.4 227.2 147.95 227.2" fill="url(#gradient1)" fill-rule="evenodd" stroke="none"/>
    <path d="M-184.15 224.4 L-180.7 227.2 Q-182.1 227.2 -183.15 226.45 -184.15 225.6 -184.15 224.4" fill="url(#gradient2)" fill-rule="evenodd" stroke="none"/>
    <path d="M150.1 17.45 Q151.15 18.1 151.15 19.0 L151.15 224.4 147.7 227.2 94.75 227.2 94.75 16.85 147.7 16.85 Q149.15 16.85 150.1 17.45" fill="url(#gradient3)" fill-rule="evenodd" stroke="none"/>
    <path d="M69.55 16.4 L69.55 17.4 -181.75 17.4 Q-182.6 17.4 -183.15 18.3 -183.75 19.15 -183.75 20.4 L-183.75 222.2 Q-183.75 223.9 -183.15 225.05 -182.6 226.3 -181.75 226.3 L69.55 226.3 69.55 227.7 -181.75 227.7 Q-182.85 227.7 -183.6 226.1 -184.4 224.45 -184.4 222.2 L-184.4 20.4 Q-184.4 18.75 -183.6 17.6 -182.85 16.4 -181.75 16.4 L69.55 16.4" fill="#03386d" fill-rule="evenodd" stroke="none"/>
    <path d="M149.95 18.3 Q149.4 17.4 148.55 17.4 L66.55 17.4 66.55 16.4 148.55 16.4 Q149.65 16.4 150.45 17.6 151.2 18.75 151.2 20.4 L151.2 222.2 Q151.2 224.45 150.45 226.1 149.65 227.7 148.55 227.7 L66.55 227.7 66.55 226.3 148.55 226.3 Q149.4 226.3 149.95 225.05 150.55 223.9 150.55 222.2 L150.55 20.4 Q150.55 19.15 149.95 18.3" fill="#03386d" fill-rule="evenodd" stroke="none"/>
    <path d="M149.75 86.75 L149.75 121.75 -184.4 121.75 -184.4 86.75 149.75 86.75" fill="#011c43" fill-rule="evenodd" stroke="none"/>
    <path d="M149.75 156.65 L149.75 191.65 -184.4 191.65 -184.4 156.65 149.75 156.65" fill="#011c43" fill-rule="evenodd" stroke="none"/>
    <path d="M-267.0 17.3 L-187.05 17.3 -187.05 146.5 -267.0 146.5 -267.0 17.3" fill="url(#gradient4)" fill-rule="evenodd" stroke="none"/>
    <path d="M-349.65 146.5 L-349.65 17.3 -267.0 17.3 -267.0 146.5 -349.65 146.5" fill="url(#gradient5)" fill-rule="evenodd" stroke="none"/>
    <path d="M-267.0 226.2 L-349.65 226.2 -349.65 146.5 -267.0 146.5 -267.0 226.2" fill="url(#gradient6)" fill-rule="evenodd" stroke="none"/>
    <path d="M-187.05 146.5 L-187.05 226.2 -267.0 226.2 -267.0 146.5 -187.05 146.5" fill="url(#gradient7)" fill-rule="evenodd" stroke="none"/>
    <path d="M-267.0 17.3 L-187.05 17.3 -187.05 146.5 -187.05 226.2 -267.0 226.2 -349.65 226.2 -349.65 146.5 -349.65 17.3 -267.0 17.3 Z" fill="none" stroke="#27d0fa" stroke-linecap="butt" stroke-linejoin="miter-clip" stroke-miterlimit="4.0" stroke-width="2.0"/>
  </g>
  <defs>
    <linearGradient gradientTransform="matrix(0.0, -0.1264, -0.2792, 0.0, 8.85, 122.2)" gradientUnits="userSpaceOnUse" id="gradient0" spreadMethod="pad" x1="-819.2" x2="819.2">
      <stop offset="0.0" stop-color="#001740"/>
      <stop offset="0.17254901960784313" stop-color="#001234"/>
      <stop offset="0.40784313725490196" stop-color="#00102d"/>
      <stop offset="1.0" stop-color="#000f2b"/>
    </linearGradient>
    <linearGradient gradientTransform="matrix(0.0, -0.2275, -0.2792, 0.0, -41.6, 40.8)" gradientUnits="userSpaceOnUse" id="gradient1" spreadMethod="pad" x1="-819.2" x2="819.2">
      <stop offset="0.0" stop-color="#001740"/>
      <stop offset="0.17254901960784313" stop-color="#001234"/>
      <stop offset="0.40784313725490196" stop-color="#00102d"/>
      <stop offset="1.0" stop-color="#000f2b"/>
    </linearGradient>
    <linearGradient gradientTransform="matrix(0.0, -0.2275, -0.2792, 0.0, 8.9, 40.8)" gradientUnits="userSpaceOnUse" id="gradient2" spreadMethod="pad" x1="-819.2" x2="819.2">
      <stop offset="0.0" stop-color="#001740"/>
      <stop offset="0.17254901960784313" stop-color="#001234"/>
      <stop offset="0.40784313725490196" stop-color="#00102d"/>
      <stop offset="1.0" stop-color="#000f2b"/>
    </linearGradient>
    <linearGradient gradientTransform="matrix(0.0, -0.1264, -0.2792, 0.0, 6.1, 122.2)" gradientUnits="userSpaceOnUse" id="gradient3" spreadMethod="pad" x1="-819.2" x2="819.2">
      <stop offset="0.0" stop-color="#001740"/>
      <stop offset="0.17254901960784313" stop-color="#001234"/>
      <stop offset="0.40784313725490196" stop-color="#00102d"/>
      <stop offset="1.0" stop-color="#000f2b"/>
    </linearGradient>
    <linearGradient gradientTransform="matrix(6.0E-4, -0.1154, 0.1147, 6.0E-4, -278.85, 111.25)" gradientUnits="userSpaceOnUse" id="gradient4" spreadMethod="pad" x1="-819.2" x2="819.2">
      <stop offset="0.0" stop-color="#000b1a"/>
      <stop offset="1.0" stop-color="#011c43"/>
    </linearGradient>
    <linearGradient gradientTransform="matrix(6.0E-4, -0.1154, 0.1147, 6.0E-4, -257.85, 111.25)" gradientUnits="userSpaceOnUse" id="gradient5" spreadMethod="pad" x1="-819.2" x2="819.2">
      <stop offset="0.0" stop-color="#000b1a"/>
      <stop offset="1.0" stop-color="#011c43"/>
    </linearGradient>
    <linearGradient gradientTransform="matrix(6.0E-4, -0.1566, 0.1147, 8.0E-4, -257.85, 98.65)" gradientUnits="userSpaceOnUse" id="gradient6" spreadMethod="pad" x1="-819.2" x2="819.2">
      <stop offset="0.0" stop-color="#000b1a"/>
      <stop offset="1.0" stop-color="#011c43"/>
    </linearGradient>
    <linearGradient gradientTransform="matrix(6.0E-4, -0.1566, 0.1147, 8.0E-4, -278.85, 98.65)" gradientUnits="userSpaceOnUse" id="gradient7" spreadMethod="pad" x1="-819.2" x2="819.2">
      <stop offset="0.0" stop-color="#000b1a"/>
      <stop offset="1.0" stop-color="#011c43"/>
    </linearGradient>
  </defs>
</svg>
