<?xml version="1.0" encoding="UTF-8" standalone="no"?>
<svg xmlns:ffdec="https://www.free-decompiler.com/flash" xmlns:xlink="http://www.w3.org/1999/xlink" ffdec:objectType="shape" height="146.25px" width="151.75px" xmlns="http://www.w3.org/2000/svg">
  <g transform="matrix(1.0, 0.0, 0.0, 1.0, 0.0, 0.0)">
    <path d="M105.85 4.75 L68.05 145.75 51.6 141.35 89.4 0.35 105.85 4.75" fill="url(#gradient0)" fill-rule="evenodd" stroke="none"/>
    <path d="M105.85 4.7 L68.05 145.7 51.6 141.3 89.4 0.3 105.85 4.7" fill="url(#gradient1)" fill-rule="evenodd" stroke="none"/>
    <path d="M122.65 14.1 L49.65 140.55 34.9 132.05 107.9 5.6 122.65 14.1" fill="url(#gradient2)" fill-rule="evenodd" stroke="none"/>
    <path d="M87.25 0.0 L87.25 146.0 70.25 146.0 70.25 0.0 87.25 0.0" fill="url(#gradient3)" fill-rule="evenodd" stroke="none"/>
    <path d="M122.7 14.0 L49.7 140.45 34.95 131.95 107.95 5.5 122.7 14.0" fill="url(#gradient4)" fill-rule="evenodd" stroke="none"/>
    <path d="M136.5 27.35 L33.25 130.6 21.25 118.6 124.5 15.35 136.5 27.35" fill="url(#gradient5)" fill-rule="evenodd" stroke="none"/>
    <path d="M146.3 43.9 L19.85 116.9 11.35 102.15 137.8 29.15 146.3 43.9" fill="url(#gradient6)" fill-rule="evenodd" stroke="none"/>
    <path d="M151.55 62.35 L10.55 100.15 6.15 83.7 147.15 45.9 151.55 62.35" fill="url(#gradient7)" fill-rule="evenodd" stroke="none"/>
    <path d="M151.75 81.55 L5.75 81.55 5.75 64.55 151.75 64.55 151.75 81.55" fill="url(#gradient8)" fill-rule="evenodd" stroke="none"/>
    <path d="M45.9 5.0 L83.7 146.0 100.15 141.6 62.35 0.6 45.9 5.0" fill="url(#gradient9)" fill-rule="evenodd" stroke="none"/>
    <path d="M45.9 4.95 L83.7 145.95 100.15 141.55 62.35 0.55 45.9 4.95" fill="url(#gradient10)" fill-rule="evenodd" stroke="none"/>
    <path d="M29.1 14.35 L102.1 140.8 116.85 132.3 43.85 5.85 29.1 14.35" fill="url(#gradient11)" fill-rule="evenodd" stroke="none"/>
    <path d="M64.5 0.25 L64.5 146.25 81.5 146.25 81.5 0.25 64.5 0.25" fill="url(#gradient12)" fill-rule="evenodd" stroke="none"/>
    <path d="M29.05 14.25 L102.05 140.7 116.8 132.2 43.8 5.75 29.05 14.25" fill="url(#gradient13)" fill-rule="evenodd" stroke="none"/>
    <path d="M15.25 27.6 L118.5 130.85 130.5 118.85 27.25 15.6 15.25 27.6" fill="url(#gradient14)" fill-rule="evenodd" stroke="none"/>
    <path d="M5.45 44.15 L131.9 117.15 140.4 102.4 13.95 29.4 5.45 44.15" fill="url(#gradient15)" fill-rule="evenodd" stroke="none"/>
    <path d="M0.2 62.6 L141.2 100.4 145.6 83.95 4.6 46.15 0.2 62.6" fill="url(#gradient16)" fill-rule="evenodd" stroke="none"/>
    <path d="M0.0 81.8 L146.0 81.8 146.0 64.8 0.0 64.8 0.0 81.8" fill="url(#gradient17)" fill-rule="evenodd" stroke="none"/>
  </g>
  <defs>
    <radialGradient cx="0" cy="0" gradientTransform="matrix(0.0867, 0.0232, -0.0232, 0.0867, 78.7, 73.05)" gradientUnits="userSpaceOnUse" id="gradient0" r="819.2" spreadMethod="pad">
      <stop offset="0.0" stop-color="#ffffff" stop-opacity="0.5019608"/>
      <stop offset="1.0" stop-color="#ffffff" stop-opacity="0.0"/>
    </radialGradient>
    <radialGradient cx="0" cy="0" gradientTransform="matrix(0.0867, 0.0232, -0.0232, 0.0867, 78.7, 73.0)" gradientUnits="userSpaceOnUse" id="gradient1" r="819.2" spreadMethod="pad">
      <stop offset="0.0" stop-color="#ffffff" stop-opacity="0.5019608"/>
      <stop offset="1.0" stop-color="#ffffff" stop-opacity="0.0"/>
    </radialGradient>
    <radialGradient cx="0" cy="0" gradientTransform="matrix(0.0777, 0.0449, -0.0449, 0.0777, 78.8, 73.05)" gradientUnits="userSpaceOnUse" id="gradient2" r="819.2" spreadMethod="pad">
      <stop offset="0.0" stop-color="#ffffff" stop-opacity="0.5019608"/>
      <stop offset="1.0" stop-color="#ffffff" stop-opacity="0.0"/>
    </radialGradient>
    <radialGradient cx="0" cy="0" gradientTransform="matrix(0.0897, 0.0, 0.0, 0.0897, 78.75, 73.0)" gradientUnits="userSpaceOnUse" id="gradient3" r="819.2" spreadMethod="pad">
      <stop offset="0.0" stop-color="#ffffff" stop-opacity="0.5019608"/>
      <stop offset="1.0" stop-color="#ffffff" stop-opacity="0.0"/>
    </radialGradient>
    <radialGradient cx="0" cy="0" gradientTransform="matrix(0.0777, 0.0449, -0.0449, 0.0777, 78.85, 72.95)" gradientUnits="userSpaceOnUse" id="gradient4" r="819.2" spreadMethod="pad">
      <stop offset="0.0" stop-color="#ffffff" stop-opacity="0.5019608"/>
      <stop offset="1.0" stop-color="#ffffff" stop-opacity="0.0"/>
    </radialGradient>
    <radialGradient cx="0" cy="0" gradientTransform="matrix(0.0634, 0.0634, -0.0634, 0.0634, 78.85, 73.0)" gradientUnits="userSpaceOnUse" id="gradient5" r="819.2" spreadMethod="pad">
      <stop offset="0.0" stop-color="#ffffff" stop-opacity="0.5019608"/>
      <stop offset="1.0" stop-color="#ffffff" stop-opacity="0.0"/>
    </radialGradient>
    <radialGradient cx="0" cy="0" gradientTransform="matrix(0.0449, 0.0777, -0.0777, 0.0449, 78.85, 73.05)" gradientUnits="userSpaceOnUse" id="gradient6" r="819.2" spreadMethod="pad">
      <stop offset="0.0" stop-color="#ffffff" stop-opacity="0.5019608"/>
      <stop offset="1.0" stop-color="#ffffff" stop-opacity="0.0"/>
    </radialGradient>
    <radialGradient cx="0" cy="0" gradientTransform="matrix(0.0232, 0.0867, -0.0867, 0.0232, 78.85, 73.0)" gradientUnits="userSpaceOnUse" id="gradient7" r="819.2" spreadMethod="pad">
      <stop offset="0.0" stop-color="#ffffff" stop-opacity="0.5019608"/>
      <stop offset="1.0" stop-color="#ffffff" stop-opacity="0.0"/>
    </radialGradient>
    <radialGradient cx="0" cy="0" gradientTransform="matrix(0.0, 0.0897, -0.0897, 0.0, 78.75, 73.05)" gradientUnits="userSpaceOnUse" id="gradient8" r="819.2" spreadMethod="pad">
      <stop offset="0.0" stop-color="#ffffff" stop-opacity="0.5019608"/>
      <stop offset="1.0" stop-color="#ffffff" stop-opacity="0.0"/>
    </radialGradient>
    <radialGradient cx="0" cy="0" gradientTransform="matrix(-0.0867, 0.0232, 0.0232, 0.0867, 73.05, 73.3)" gradientUnits="userSpaceOnUse" id="gradient9" r="819.2" spreadMethod="pad">
      <stop offset="0.0" stop-color="#ffffff" stop-opacity="0.5019608"/>
      <stop offset="1.0" stop-color="#ffffff" stop-opacity="0.0"/>
    </radialGradient>
    <radialGradient cx="0" cy="0" gradientTransform="matrix(-0.0867, 0.0232, 0.0232, 0.0867, 73.05, 73.25)" gradientUnits="userSpaceOnUse" id="gradient10" r="819.2" spreadMethod="pad">
      <stop offset="0.0" stop-color="#ffffff" stop-opacity="0.5019608"/>
      <stop offset="1.0" stop-color="#ffffff" stop-opacity="0.0"/>
    </radialGradient>
    <radialGradient cx="0" cy="0" gradientTransform="matrix(-0.0777, 0.0449, 0.0449, 0.0777, 72.95, 73.3)" gradientUnits="userSpaceOnUse" id="gradient11" r="819.2" spreadMethod="pad">
      <stop offset="0.0" stop-color="#ffffff" stop-opacity="0.5019608"/>
      <stop offset="1.0" stop-color="#ffffff" stop-opacity="0.0"/>
    </radialGradient>
    <radialGradient cx="0" cy="0" gradientTransform="matrix(-0.0897, 0.0, 0.0, 0.0897, 73.0, 73.25)" gradientUnits="userSpaceOnUse" id="gradient12" r="819.2" spreadMethod="pad">
      <stop offset="0.0" stop-color="#ffffff" stop-opacity="0.5019608"/>
      <stop offset="1.0" stop-color="#ffffff" stop-opacity="0.0"/>
    </radialGradient>
    <radialGradient cx="0" cy="0" gradientTransform="matrix(-0.0777, 0.0449, 0.0449, 0.0777, 72.9, 73.2)" gradientUnits="userSpaceOnUse" id="gradient13" r="819.2" spreadMethod="pad">
      <stop offset="0.0" stop-color="#ffffff" stop-opacity="0.5019608"/>
      <stop offset="1.0" stop-color="#ffffff" stop-opacity="0.0"/>
    </radialGradient>
    <radialGradient cx="0" cy="0" gradientTransform="matrix(-0.0634, 0.0634, 0.0634, 0.0634, 72.9, 73.25)" gradientUnits="userSpaceOnUse" id="gradient14" r="819.2" spreadMethod="pad">
      <stop offset="0.0" stop-color="#ffffff" stop-opacity="0.5019608"/>
      <stop offset="1.0" stop-color="#ffffff" stop-opacity="0.0"/>
    </radialGradient>
    <radialGradient cx="0" cy="0" gradientTransform="matrix(-0.0449, 0.0777, 0.0777, 0.0449, 72.9, 73.3)" gradientUnits="userSpaceOnUse" id="gradient15" r="819.2" spreadMethod="pad">
      <stop offset="0.0" stop-color="#ffffff" stop-opacity="0.5019608"/>
      <stop offset="1.0" stop-color="#ffffff" stop-opacity="0.0"/>
    </radialGradient>
    <radialGradient cx="0" cy="0" gradientTransform="matrix(-0.0232, 0.0867, 0.0867, 0.0232, 72.9, 73.25)" gradientUnits="userSpaceOnUse" id="gradient16" r="819.2" spreadMethod="pad">
      <stop offset="0.0" stop-color="#ffffff" stop-opacity="0.5019608"/>
      <stop offset="1.0" stop-color="#ffffff" stop-opacity="0.0"/>
    </radialGradient>
    <radialGradient cx="0" cy="0" gradientTransform="matrix(0.0, 0.0897, 0.0897, 0.0, 73.0, 73.3)" gradientUnits="userSpaceOnUse" id="gradient17" r="819.2" spreadMethod="pad">
      <stop offset="0.0" stop-color="#ffffff" stop-opacity="0.5019608"/>
      <stop offset="1.0" stop-color="#ffffff" stop-opacity="0.0"/>
    </radialGradient>
  </defs>
</svg>
