<?xml version="1.0" encoding="UTF-8" standalone="no"?>
<svg xmlns:ffdec="https://www.free-decompiler.com/flash" xmlns:xlink="http://www.w3.org/1999/xlink" ffdec:objectType="shape" height="75.0px" width="74.6px" xmlns="http://www.w3.org/2000/svg">
  <g transform="matrix(1.0, 0.0, 0.0, 1.0, 305.7, -33.05)">
    <path d="M-272.0 104.8 Q-283.4 98.5 -297.95 94.0 -304.3 90.4 -304.7 84.05 L-304.7 39.75 -300.7 37.25 -285.25 37.25 -279.75 34.05 -257.15 34.05 -251.6 37.25 -236.2 37.25 -232.1 39.75 -232.1 84.05 -232.15 84.7 Q-232.9 90.6 -238.8 94.0 -253.75 98.55 -265.25 105.05 L-267.8 106.55 Q-268.25 106.6 -268.5 106.8 L-268.8 106.65 -272.0 104.8" fill="#010c21" fill-rule="evenodd" stroke="none"/>
    <path d="M-272.0 104.8 Q-283.4 98.5 -297.95 94.0 -304.3 90.4 -304.7 84.05 L-304.7 39.75 -300.7 37.25 -285.25 37.25 -279.75 34.05 -257.15 34.05 -251.6 37.25 -236.2 37.25 -232.1 39.75 -232.1 84.05 -232.15 84.7 Q-232.9 90.6 -238.8 94.0 -253.75 98.55 -265.25 105.05 L-267.8 106.55 M-268.25 106.8 L-268.1 107.0 -268.35 106.95 -268.5 106.8" fill="none" stroke="#7ae2fc" stroke-linecap="butt" stroke-linejoin="miter-clip" stroke-miterlimit="4.0" stroke-width="2.0"/>
    <path d="M-268.1 106.65 L-268.25 106.8 M-268.8 106.65 L-272.0 104.8" fill="none" stroke="#7ae2fc" stroke-linecap="butt" stroke-linejoin="miter-clip" stroke-miterlimit="4.0" stroke-width="2.0"/>
    <path d="M-267.8 106.55 L-268.1 106.65 M-268.5 106.8 L-268.8 106.65" fill="none" stroke="#7ae2fc" stroke-linecap="round" stroke-linejoin="miter-clip" stroke-miterlimit="4.0" stroke-width="2.0"/>
    <path d="M-267.8 106.55 Q-268.25 106.6 -268.5 106.8" fill="none" stroke="#7ae2fc" stroke-linecap="round" stroke-linejoin="miter-clip" stroke-miterlimit="4.0" stroke-width="2.0"/>
  </g>
</svg>
