<?xml version="1.0" encoding="UTF-8" standalone="no"?>
<svg xmlns:ffdec="https://www.free-decompiler.com/flash" xmlns:xlink="http://www.w3.org/1999/xlink" ffdec:objectType="shape" height="76.75px" width="166.2px" xmlns="http://www.w3.org/2000/svg">
  <g transform="matrix(1.0, 0.0, 0.0, 1.0, 0.0, 0.0)">
    <path d="M162.25 40.5 L162.25 22.55 163.75 22.55 163.75 40.5 162.25 40.5 163.75 40.5 163.75 52.75 162.25 52.75 162.25 40.5 M0.0 40.5 L0.0 6.95 1.0 6.95 1.0 6.75 1.25 6.35 8.75 0.2 9.25 0.0 155.2 0.0 155.65 0.15 164.45 5.45 164.7 5.7 164.75 5.95 164.75 6.0 166.2 6.0 166.2 40.5 164.7 40.5 166.2 40.5 166.2 69.6 164.75 69.6 164.75 70.0 164.55 70.45 157.05 76.6 156.5 76.75 11.15 76.75 10.7 76.65 2.8 71.25 2.6 71.05 2.5 70.75 2.45 58.7 2.55 58.45 5.55 54.1 5.55 41.75 5.5 22.75 5.0 22.55 2.5 20.15 1.5 19.25 1.5 40.5 0.0 40.5 1.5 40.5 1.5 70.4 0.0 70.4 0.0 40.5 M7.05 40.5 L5.55 40.5 5.55 41.75 5.55 40.5 7.05 40.5 7.05 54.25 6.95 54.55 3.95 58.9 4.0 70.5 11.45 75.5 156.2 75.5 163.25 69.75 163.25 59.8 159.15 54.35 159.0 54.0 159.0 40.5 159.0 21.95 159.25 21.55 159.3 21.55 159.25 21.45 Q159.2 21.15 159.4 21.0 L163.25 16.95 163.25 6.3 154.95 1.25 9.55 1.25 2.5 7.0 2.5 18.55 2.6 18.55 Q2.9 18.6 3.1 18.8 L6.15 21.75 6.25 21.75 6.8 21.95 7.0 22.35 7.05 34.25 7.05 40.5 M160.5 40.5 L159.0 40.5 160.5 40.5 160.5 53.85 164.65 59.35 164.7 59.45 164.7 40.5 164.7 17.6 164.05 18.25 Q163.45 18.6 162.95 19.3 L160.6 21.75 160.5 21.85 160.5 21.95 160.5 40.5 M2.0 40.5 L2.0 24.6 3.5 24.6 3.5 40.5 2.0 40.5 3.5 40.5 3.5 52.35 2.0 52.35 2.0 40.5" fill="#065abf" fill-rule="evenodd" stroke="none"/>
    <path d="M7.05 40.5 L7.05 34.25 7.0 22.35 6.8 21.95 6.25 21.75 6.15 21.75 3.1 18.8 Q2.9 18.6 2.6 18.55 L2.5 18.55 2.5 7.0 9.55 1.25 154.95 1.25 163.25 6.3 163.25 16.95 159.4 21.0 Q159.2 21.15 159.25 21.45 L159.3 21.55 159.25 21.55 159.0 21.95 159.0 40.5 159.0 54.0 159.15 54.35 163.25 59.8 163.25 69.75 156.2 75.5 11.45 75.5 4.0 70.5 3.95 58.9 6.95 54.55 7.05 54.25 7.05 40.5 159.0 40.5 7.05 40.5" fill="#01123d" fill-rule="evenodd" stroke="none"/>
    <path d="M57.8 12.55 L61.6 16.5 61.6 22.4 59.7 26.1 59.7 52.55 61.6 56.25 61.6 62.3 57.7 65.9 14.8 65.9 10.7 61.45 10.7 56.3 12.6 52.5 12.6 26.1 10.7 22.35 10.7 17.2 14.7 12.55 57.8 12.55" fill="#021b54" fill-rule="evenodd" stroke="none"/>
    <path d="M57.8 12.55 L61.6 16.5 61.6 22.4 59.7 26.1 59.7 52.55 61.6 56.25 61.6 62.3 57.7 65.9 14.8 65.9 10.7 61.45 10.7 56.3 12.6 52.5 12.6 26.1 10.7 22.35 10.7 17.2 14.7 12.55 57.8 12.55 Z" fill="none" stroke="#4a7aff" stroke-linecap="butt" stroke-linejoin="miter-clip" stroke-miterlimit="4.0" stroke-width="1.0"/>
    <path d="M28.3 62.9 L15.9 62.9 13.8 60.7 13.8 58.2 16.5 61.05 56.35 61.05 59.05 58.2 59.05 60.7 57.0 62.9 44.55 62.9 43.65 61.65 29.2 61.65 28.3 62.9" fill="url(#gradient0)" fill-rule="evenodd" stroke="none"/>
    <path d="M56.35 17.55 L16.5 17.55 13.8 20.4 13.8 17.85 15.9 15.7 28.3 15.7 29.2 16.95 43.65 16.95 44.55 15.7 57.0 15.7 59.05 17.85 59.05 20.4 56.35 17.55" fill="url(#gradient1)" fill-rule="evenodd" stroke="none"/>
  </g>
  <defs>
    <linearGradient gradientTransform="matrix(0.0, -0.0029, -0.0027, 0.0, 36.4, 60.55)" gradientUnits="userSpaceOnUse" id="gradient0" spreadMethod="pad" x1="-819.2" x2="819.2">
      <stop offset="0.0" stop-color="#2fc5ed"/>
      <stop offset="1.0" stop-color="#009cff"/>
    </linearGradient>
    <linearGradient gradientTransform="matrix(0.0, -0.0029, -0.0027, 0.0, 36.4, 18.05)" gradientUnits="userSpaceOnUse" id="gradient1" spreadMethod="pad" x1="-819.2" x2="819.2">
      <stop offset="0.0" stop-color="#009cff"/>
      <stop offset="1.0" stop-color="#2fc5ed"/>
    </linearGradient>
  </defs>
</svg>
