<?xml version="1.0" encoding="UTF-8" standalone="no"?>
<svg xmlns:ffdec="https://www.free-decompiler.com/flash" xmlns:xlink="http://www.w3.org/1999/xlink" ffdec:objectType="shape" height="35.0px" width="336.6px" xmlns="http://www.w3.org/2000/svg">
  <g transform="matrix(1.0, 0.0, 0.0, 1.0, 185.05, -16.75)">
    <path d="M150.8 19.8 L150.8 48.3 Q150.8 49.3 150.05 50.05 149.3 50.8 148.25 50.8 L-182.05 50.8 Q-183.1 50.8 -183.8 50.05 -184.55 49.3 -184.55 48.3 L-184.55 19.8 Q-184.55 18.75 -183.8 18.05 -183.1 17.3 -182.05 17.3 L148.25 17.3 Q149.3 17.3 150.05 18.05 150.8 18.75 150.8 19.8" fill="#053d7a" fill-rule="evenodd" stroke="none"/>
    <path d="M127.25 16.75 L127.25 17.75 -182.05 17.75 Q-182.85 17.75 -183.45 18.35 -184.05 18.95 -184.05 19.7 L-184.05 48.75 Q-184.05 49.6 -183.45 50.15 -182.85 50.75 -182.05 50.75 L127.25 50.75 127.25 51.75 -182.05 51.75 Q-183.3 51.75 -184.15 50.85 -185.05 50.0 -185.05 48.75 L-185.05 19.7 Q-185.05 18.5 -184.15 17.65 -183.3 16.75 -182.05 16.75 L127.25 16.75" fill="#0072ff" fill-rule="evenodd" stroke="none"/>
    <path d="M148.5 16.75 Q149.8 16.75 150.65 17.65 151.55 18.5 151.55 19.7 L151.55 48.75 Q151.55 50.0 150.65 50.85 149.8 51.75 148.5 51.75 L126.0 51.75 126.0 50.75 148.5 50.75 Q149.35 50.75 149.95 50.15 150.55 49.55 150.55 48.75 L150.55 19.7 Q150.55 18.95 149.95 18.35 149.35 17.75 148.5 17.75 L126.0 17.75 126.0 16.75 148.5 16.75" fill="#0072ff" fill-rule="evenodd" stroke="none"/>
  </g>
</svg>
