<?xml version="1.0" encoding="UTF-8" standalone="no"?>
<svg xmlns:ffdec="https://www.free-decompiler.com/flash" xmlns:xlink="http://www.w3.org/1999/xlink" ffdec:objectType="shape" height="63.95px" width="63.6px" xmlns="http://www.w3.org/2000/svg">
  <g transform="matrix(1.0, 0.0, 0.0, 1.0, 7.0, 3.75)">
    <path d="M24.4 58.9 L21.0 56.9 Q11.6 51.7 -0.2 47.9 -4.55 45.4 -5.6 41.4 L-6.0 39.35 -6.0 2.2 -2.5 -0.05 10.4 -0.05 15.1 -2.75 34.2 -2.75 38.85 -0.05 51.85 -0.05 55.25 2.2 55.25 39.35 Q54.95 44.8 49.55 47.9 37.1 51.9 27.2 57.6 26.1 58.2 25.1 58.85 L24.4 58.9" fill="url(#gradient0)" fill-rule="evenodd" stroke="none"/>
    <path d="M24.4 58.9 L21.0 56.9 Q11.6 51.7 -0.2 47.9 -4.55 45.4 -5.6 41.4 L-6.0 39.35 -6.0 2.2 -2.5 -0.05 10.4 -0.05 15.1 -2.75 34.2 -2.75 38.85 -0.05 51.85 -0.05 55.25 2.2 55.25 39.35 Q54.95 44.8 49.55 47.9 37.1 51.9 27.2 57.6 26.1 58.2 25.1 58.85 L25.0 58.9 24.8 59.1 25.0 59.15 25.05 59.2 24.7 59.1 24.55 59.05 24.4 58.9 M25.1 58.85 Q24.8 58.9 24.55 59.05" fill="none" stroke="#29a6f8" stroke-linecap="butt" stroke-linejoin="miter-clip" stroke-miterlimit="4.0" stroke-width="2.0"/>
    <path d="M55.3 6.6 Q43.75 8.35 39.0 9.8 31.0 12.2 25.35 18.95 24.1 20.45 21.05 26.1 17.55 32.75 15.35 35.95 7.9 47.0 -1.05 47.5 -5.55 44.4 -6.0 39.35 L-6.0 2.25 -2.45 0.05 10.4 0.05 15.1 -2.7 34.2 -2.7 38.9 0.05 51.8 0.05 55.3 2.25 55.3 6.6" fill="url(#gradient1)" fill-rule="evenodd" stroke="none"/>
    <path d="M55.3 6.6 L55.6 6.55" fill="none" stroke="#92fefd" stroke-linecap="butt" stroke-linejoin="miter-clip" stroke-miterlimit="4.0" stroke-width="2.0"/>
  </g>
  <defs>
    <linearGradient gradientTransform="matrix(1.2209, 0.0, 0.0, 1.0922, -145.85, 103.9)" gradientUnits="userSpaceOnUse" id="gradient0" spreadMethod="pad" x1="-819.2" x2="819.2">
      <stop offset="0.0" stop-color="#075fb4"/>
      <stop offset="0.19607843137254902" stop-color="#07479e"/>
      <stop offset="0.4196078431372549" stop-color="#0752a8"/>
      <stop offset="0.803921568627451" stop-color="#076fc2"/>
      <stop offset="1.0" stop-color="#0780d1"/>
    </linearGradient>
    <linearGradient gradientTransform="matrix(0.006, 0.0211, 0.0518, -0.0399, 305.95, -216.4)" gradientUnits="userSpaceOnUse" id="gradient1" spreadMethod="pad" x1="-819.2" x2="819.2">
      <stop offset="0.0" stop-color="#abe6fe"/>
      <stop offset="1.0" stop-color="#1cbff5" stop-opacity="0.0"/>
    </linearGradient>
  </defs>
</svg>
