<?xml version="1.0" encoding="UTF-8" standalone="no"?>
<svg xmlns:ffdec="https://www.free-decompiler.com/flash" xmlns:xlink="http://www.w3.org/1999/xlink" ffdec:objectType="shape" height="57.8px" width="57.15px" xmlns="http://www.w3.org/2000/svg">
  <g transform="matrix(1.0, 0.0, 0.0, 1.0, 3.85, 0.65)">
    <path d="M47.2 45.95 Q36.0 49.55 27.05 54.7 26.05 55.2 25.15 55.8" fill="none" stroke="#00ffff" stroke-linecap="butt" stroke-linejoin="miter-clip" stroke-miterlimit="4.0" stroke-width="2.0"/>
    <path d="M25.15 55.8 L25.1 55.85 24.9 56.05 25.1 56.1 25.1 56.15 24.85 56.05 24.65 56.0 25.15 55.8" fill="none" stroke="#00ffff" stroke-linecap="round" stroke-linejoin="miter-clip" stroke-miterlimit="4.0" stroke-width="2.0"/>
    <path d="M24.65 56.0 L24.5 55.85 21.45 54.05 Q13.0 49.35 2.35 45.95 -1.55 43.7 -2.45 40.1 L-2.85 38.25 -2.85 4.8 0.35 2.85 11.95 2.85 16.15 0.35 33.35 0.35 37.55 2.85 49.2 2.85 52.3 4.8 52.3 38.25 Q52.0 43.2 47.2 45.95" fill="none" stroke="#00ffff" stroke-linecap="round" stroke-linejoin="miter-clip" stroke-miterlimit="4.0" stroke-width="2.0"/>
    <path d="M47.2 45.95 Q36.0 49.55 27.05 54.7 26.05 55.2 25.15 55.8 L24.5 55.85 21.45 54.05 Q13.0 49.35 2.35 45.95 -1.55 43.7 -2.45 40.1 L-2.85 38.25 -2.85 4.8 0.35 2.85 11.95 2.85 16.15 0.35 33.35 0.35 37.55 2.85 49.2 2.85 52.3 4.8 52.3 38.25 Q52.0 43.2 47.2 45.95" fill="#09dff7" fill-rule="evenodd" stroke="none"/>
    <path d="M52.3 8.75 Q41.95 10.3 37.65 11.6 30.45 13.75 25.4 19.8 24.25 21.25 21.55 26.3 L16.4 35.15 Q9.7 45.1 1.65 45.55 -2.45 42.75 -2.85 38.25 L-2.85 4.8 0.35 2.85 11.95 2.85 16.15 0.35 33.35 0.35 37.6 2.85 49.2 2.85 52.3 4.8 52.3 8.75" fill="url(#gradient0)" fill-rule="evenodd" stroke="none"/>
  </g>
  <defs>
    <linearGradient gradientTransform="matrix(0.0054, 0.019, 0.0466, -0.0359, 277.9, -192.0)" gradientUnits="userSpaceOnUse" id="gradient0" spreadMethod="pad" x1="-819.2" x2="819.2">
      <stop offset="0.0" stop-color="#ffffff"/>
      <stop offset="1.0" stop-color="#def9fe" stop-opacity="0.0"/>
    </linearGradient>
  </defs>
</svg>
