<?xml version="1.0" encoding="UTF-8" standalone="no"?>
<svg xmlns:ffdec="https://www.free-decompiler.com/flash" xmlns:xlink="http://www.w3.org/1999/xlink" ffdec:objectType="shape" height="10.85px" width="34.35px" xmlns="http://www.w3.org/2000/svg">
  <g transform="matrix(1.0, 0.0, 0.0, 1.0, 0.0, 0.0)">
    <path d="M32.85 2.95 L34.0 3.3 34.0 5.25 33.8 5.25 33.4 5.0 32.9 4.7 32.2 4.5 31.45 4.4 30.6 4.6 Q30.2 4.75 30.2 5.05 L30.4 5.45 31.15 5.75 31.9 5.9 32.65 6.1 33.9 6.9 Q34.35 7.4 34.35 8.25 L34.1 9.3 33.35 10.1 32.2 10.65 30.6 10.85 29.0 10.7 27.75 10.25 27.75 8.2 27.95 8.2 28.35 8.5 28.95 8.85 29.7 9.1 30.6 9.2 31.5 9.05 Q31.9 8.9 31.9 8.55 L31.7 8.15 31.05 7.9 30.35 7.75 29.6 7.55 Q28.7 7.3 28.25 6.75 27.8 6.2 27.8 5.3 27.8 4.8 28.05 4.35 L28.7 3.5 Q29.2 3.15 29.85 2.95 L31.35 2.75 32.85 2.95 M26.5 5.65 L26.5 10.65 24.1 10.65 24.1 6.85 24.05 5.9 23.9 5.25 23.55 4.85 22.95 4.75 22.35 4.85 Q22.05 4.95 21.7 5.2 L21.7 10.65 19.3 10.65 19.3 2.95 21.7 2.95 21.7 3.8 Q22.3 3.3 22.85 3.05 23.4 2.75 24.1 2.75 25.25 2.75 25.9 3.5 26.5 4.25 26.5 5.65 M17.6 1.9 L15.05 1.9 15.05 0.0 17.6 0.0 17.6 1.9 M14.0 0.45 L11.4 10.65 8.6 10.65 6.95 4.35 5.4 10.65 2.6 10.65 0.0 0.45 2.65 0.45 4.05 7.3 5.75 0.45 8.3 0.45 9.9 7.3 11.4 0.45 14.0 0.45 M17.5 2.95 L17.5 10.65 15.1 10.65 15.1 2.95 17.5 2.95" fill="url(#gradient0)" fill-rule="evenodd" stroke="none"/>
  </g>
  <defs>
    <linearGradient gradientTransform="matrix(0.0, -0.0062, 0.0062, 0.0, -75.6, 5.85)" gradientUnits="userSpaceOnUse" id="gradient0" spreadMethod="pad" x1="-819.2" x2="819.2">
      <stop offset="0.0" stop-color="#f99500"/>
      <stop offset="1.0" stop-color="#ffe759"/>
    </linearGradient>
  </defs>
</svg>
