<?xml version="1.0" encoding="UTF-8" standalone="no"?>
<svg xmlns:ffdec="https://www.free-decompiler.com/flash" xmlns:xlink="http://www.w3.org/1999/xlink" ffdec:objectType="shape" height="10.45px" width="45.3px" xmlns="http://www.w3.org/2000/svg">
  <g transform="matrix(1.0, 0.0, 0.0, 1.0, 0.0, 0.0)">
    <path d="M44.95 2.85 L44.95 4.8 44.75 4.8 44.35 4.55 43.85 4.25 43.15 4.05 42.4 3.95 41.55 4.15 Q41.15 4.3 41.15 4.6 L41.35 5.0 42.1 5.3 42.85 5.45 43.6 5.65 Q44.45 5.9 44.85 6.45 45.3 6.95 45.3 7.8 L45.05 8.85 44.3 9.65 43.15 10.2 41.55 10.4 39.95 10.25 38.7 9.8 38.7 7.75 38.9 7.75 39.3 8.05 39.9 8.4 40.65 8.65 41.55 8.75 42.45 8.6 Q42.85 8.45 42.85 8.1 L42.65 7.7 42.0 7.45 41.3 7.3 40.55 7.1 39.2 6.3 Q38.75 5.75 38.75 4.85 L39.0 3.9 39.65 3.05 Q40.15 2.7 40.8 2.5 L42.3 2.3 43.8 2.5 44.95 2.85 M38.0 5.95 L38.0 6.8 32.75 6.8 Q32.8 7.35 33.0 7.7 L33.5 8.3 34.2 8.6 35.1 8.7 35.9 8.6 36.65 8.35 37.2 8.05 37.6 7.8 37.85 7.8 37.85 9.75 37.35 10.0 36.65 10.2 35.85 10.35 34.85 10.4 Q32.65 10.4 31.5 9.35 30.35 8.35 30.35 6.4 30.35 4.55 31.45 3.4 32.5 2.3 34.45 2.3 36.2 2.3 37.1 3.25 38.0 4.2 38.0 5.95 M32.75 5.35 L35.65 5.35 35.3 4.2 Q34.95 3.8 34.25 3.8 33.6 3.8 33.2 4.25 32.8 4.65 32.75 5.35 M29.45 2.85 L29.45 4.8 29.25 4.8 28.85 4.55 28.35 4.25 27.65 4.05 26.9 3.95 26.05 4.15 Q25.65 4.3 25.65 4.6 L25.85 5.0 26.6 5.3 27.35 5.45 28.1 5.65 Q28.95 5.9 29.35 6.45 29.8 6.95 29.8 7.8 L29.55 8.85 28.8 9.65 Q28.3 10.0 27.65 10.2 L26.05 10.4 24.45 10.25 23.2 9.8 23.2 7.75 23.4 7.75 23.8 8.05 24.4 8.4 25.15 8.65 26.05 8.75 26.95 8.6 Q27.35 8.45 27.35 8.1 L27.15 7.7 26.5 7.45 25.8 7.3 25.05 7.1 Q24.15 6.85 23.7 6.3 23.25 5.75 23.25 4.85 23.25 4.35 23.5 3.9 L24.15 3.05 Q24.65 2.7 25.3 2.5 L26.8 2.3 28.3 2.5 29.45 2.85 M22.25 2.85 L22.25 4.8 22.05 4.8 21.65 4.55 21.15 4.25 20.45 4.05 19.7 3.95 18.85 4.15 Q18.45 4.3 18.45 4.6 L18.65 5.0 19.4 5.3 20.15 5.45 20.9 5.65 Q21.75 5.9 22.15 6.45 22.6 6.95 22.6 7.8 L22.35 8.85 21.6 9.65 20.45 10.2 18.85 10.4 17.25 10.25 16.0 9.8 16.0 7.75 16.2 7.75 16.6 8.05 17.2 8.4 17.95 8.65 18.85 8.75 19.75 8.6 20.15 8.1 19.95 7.7 Q19.8 7.6 19.3 7.45 L18.6 7.3 17.85 7.1 Q16.95 6.85 16.5 6.3 16.05 5.75 16.05 4.85 16.05 4.35 16.3 3.9 L16.95 3.05 Q17.45 2.7 18.1 2.5 L19.6 2.3 21.1 2.5 22.25 2.85 M10.2 4.5 L9.9 5.2 Q9.75 5.65 9.75 6.4 9.75 7.1 9.9 7.5 L10.2 8.2 10.65 8.6 11.3 8.7 11.9 8.6 12.35 8.25 12.65 7.55 12.8 6.4 12.65 5.25 12.35 4.5 11.9 4.1 11.25 4.0 10.7 4.1 10.2 4.5 M14.2 3.4 Q15.25 4.45 15.25 6.35 15.25 8.25 14.2 9.35 13.15 10.45 11.25 10.45 9.4 10.45 8.35 9.35 7.3 8.25 7.3 6.35 7.3 4.45 8.35 3.35 9.4 2.3 11.25 2.3 13.15 2.3 14.2 3.4 M2.55 0.0 L2.55 8.25 6.8 8.25 6.8 10.2 0.0 10.2 0.0 0.0 2.55 0.0" fill="url(#gradient0)" fill-rule="evenodd" stroke="none"/>
  </g>
  <defs>
    <linearGradient gradientTransform="matrix(0.0, -0.0057, 0.0064, 0.0, -14.0, 5.85)" gradientUnits="userSpaceOnUse" id="gradient0" spreadMethod="pad" x1="-819.2" x2="819.2">
      <stop offset="0.0" stop-color="#f99500"/>
      <stop offset="1.0" stop-color="#ffe759"/>
    </linearGradient>
  </defs>
</svg>
