<?xml version="1.0" encoding="UTF-8" standalone="no"?>
<svg xmlns:ffdec="https://www.free-decompiler.com/flash" xmlns:xlink="http://www.w3.org/1999/xlink" ffdec:objectType="shape" height="31.0px" width="112.0px" xmlns="http://www.w3.org/2000/svg">
  <g transform="matrix(1.0, 0.0, 0.0, 1.0, -1.2, 1.0)">
    <path d="M108.2 0.0 Q112.2 0.0 112.2 4.0 L112.2 25.0 Q112.2 29.0 108.2 29.0 L6.2 29.0 Q2.2 29.0 2.2 25.0 L2.2 4.0 Q2.2 0.0 6.2 0.0 L108.2 0.0" fill="#0c1a8d" fill-rule="evenodd" stroke="none"/>
    <path d="M35.05 0.2 L108.7 0.2 Q112.7 0.2 112.7 4.2 L112.7 14.8 35.05 14.8 35.05 0.2 35.05 14.8 2.7 14.8 2.7 4.2 Q2.7 0.2 6.7 0.2 L35.05 0.2" fill="#c7d1fc" fill-opacity="0.2" fill-rule="evenodd" stroke="none"/>
    <path d="M108.2 0.0 L6.2 0.0 Q2.2 0.0 2.2 4.0 L2.2 25.0 Q2.2 29.0 6.2 29.0 L108.2 29.0 Q112.2 29.0 112.2 25.0 L112.2 4.0 Q112.2 0.0 108.2 0.0 Z" fill="none" stroke="#55baff" stroke-linecap="butt" stroke-linejoin="miter-clip" stroke-miterlimit="4.0" stroke-width="2.0"/>
  </g>
</svg>
