<?xml version="1.0" encoding="UTF-8" standalone="no"?>
<svg xmlns:ffdec="https://www.free-decompiler.com/flash" xmlns:xlink="http://www.w3.org/1999/xlink" ffdec:objectType="shape" height="434.25px" width="392.6px" xmlns="http://www.w3.org/2000/svg">
  <g transform="matrix(1.0, 0.0, 0.0, 1.0, 293.3, 217.3)">
    <path d="M98.8 -213.8 L98.8 213.45 Q98.8 214.7 97.9 215.55 97.05 216.45 95.8 216.45 L-289.8 216.45 Q-291.05 216.45 -291.9 215.55 -292.8 214.7 -292.8 213.45 L-292.8 -213.8 Q-292.8 -215.05 -291.9 -215.9 -291.05 -216.8 -289.8 -216.8 L95.8 -216.8 Q97.05 -216.8 97.9 -215.9 98.8 -215.05 98.8 -213.8" fill="url(#gradient0)" fill-rule="evenodd" stroke="none"/>
    <path d="M98.8 -213.8 L98.8 213.45 Q98.8 214.7 97.9 215.55 97.05 216.45 95.8 216.45 L-289.8 216.45 Q-291.05 216.45 -291.9 215.55 -292.8 214.7 -292.8 213.45 L-292.8 -213.8 Q-292.8 -215.05 -291.9 -215.9 -291.05 -216.8 -289.8 -216.8 L95.8 -216.8 Q97.05 -216.8 97.9 -215.9 98.8 -215.05 98.8 -213.8 Z" fill="none" stroke="#0082fc" stroke-linecap="butt" stroke-linejoin="miter-clip" stroke-miterlimit="4.0" stroke-width="1.0"/>
    <path d="M95.8 -75.2 L95.8 179.9 Q95.8 181.15 94.9 182.0 94.05 182.9 92.8 182.9 L-286.2 182.9 Q-287.45 182.9 -288.3 182.0 -289.2 181.15 -289.2 179.9 L-289.2 -75.2 Q-289.2 -76.45 -288.3 -77.3 -287.45 -78.2 -286.2 -78.2 L92.8 -78.2 Q94.05 -78.2 94.9 -77.3 95.8 -76.45 95.8 -75.2" fill="url(#gradient1)" fill-rule="evenodd" stroke="none"/>
  </g>
  <defs>
    <linearGradient gradientTransform="matrix(0.0, -0.2644, -0.2644, 0.0, -97.0, -0.15)" gradientUnits="userSpaceOnUse" id="gradient0" spreadMethod="pad" x1="-819.2" x2="819.2">
      <stop offset="0.0" stop-color="#001f4d"/>
      <stop offset="0.45098039215686275" stop-color="#00204f"/>
      <stop offset="0.6313725490196078" stop-color="#012356"/>
      <stop offset="0.7647058823529411" stop-color="#012962"/>
      <stop offset="0.8745098039215686" stop-color="#033174"/>
      <stop offset="0.9686274509803922" stop-color="#043b8a"/>
      <stop offset="1.0" stop-color="#054094"/>
    </linearGradient>
    <linearGradient gradientTransform="matrix(0.0, -0.1593, -0.1593, 0.0, -96.7, 52.35)" gradientUnits="userSpaceOnUse" id="gradient1" spreadMethod="pad" x1="-819.2" x2="819.2">
      <stop offset="0.0" stop-color="#000f30"/>
      <stop offset="0.48627450980392156" stop-color="#001032"/>
      <stop offset="0.6784313725490196" stop-color="#011539"/>
      <stop offset="0.8235294117647058" stop-color="#021e45"/>
      <stop offset="0.9411764705882353" stop-color="#042a56"/>
      <stop offset="1.0" stop-color="#053363"/>
    </linearGradient>
  </defs>
</svg>
