<?xml version="1.0" encoding="UTF-8" standalone="no"?>
<svg xmlns:ffdec="https://www.free-decompiler.com/flash" xmlns:xlink="http://www.w3.org/1999/xlink" ffdec:objectType="shape" height="31.0px" width="202.65px" xmlns="http://www.w3.org/2000/svg">
  <g transform="matrix(1.0, 0.0, 0.0, 1.0, 0.0, 0.0)">
    <path d="M201.9 3.5 L201.9 27.5 Q201.9 28.65 201.1 29.45 200.3 30.25 199.15 30.25 L13.5 30.25 11.35 29.8 Q10.2 29.4 9.5 28.75 L2.45 22.4 1.25 20.65 Q0.75 19.5 0.75 18.5 L0.75 3.5 Q0.75 2.35 1.55 1.55 2.35 0.75 3.5 0.75 L199.15 0.75 Q200.3 0.75 201.1 1.55 201.9 2.4 201.9 3.5" fill="url(#gradient0)" fill-rule="evenodd" stroke="none"/>
    <path d="M199.15 0.0 Q200.6 0.0 201.6 1.05 202.65 2.1 202.65 3.5 L202.65 27.5 Q202.65 28.95 201.6 30.0 200.6 31.0 199.15 31.0 L13.5 31.0 11.1 30.55 9.0 29.3 1.95 23.0 Q1.1 22.2 0.55 20.95 0.0 19.65 0.0 18.5 L0.0 3.5 Q0.0 2.05 1.0 1.05 2.05 0.0 3.5 0.0 L199.15 0.0 M201.15 3.5 Q201.15 2.7 200.55 2.1 200.0 1.5 199.15 1.5 L3.5 1.5 Q2.7 1.5 2.1 2.1 1.5 2.7 1.5 3.5 L1.5 18.5 Q1.5 19.35 1.95 20.35 2.35 21.35 2.95 21.85 L10.0 28.2 Q10.6 28.75 11.6 29.1 L13.5 29.5 199.15 29.5 Q200.0 29.5 200.55 28.95 201.15 28.35 201.15 27.5 L201.15 3.5" fill="#21bfff" fill-rule="evenodd" stroke="none"/>
  </g>
  <defs>
    <linearGradient gradientTransform="matrix(0.1228, 0.0, 0.0, -0.1228, 101.3, 15.5)" gradientUnits="userSpaceOnUse" id="gradient0" spreadMethod="pad" x1="-819.2" x2="819.2">
      <stop offset="0.0" stop-color="#0061e0"/>
      <stop offset="0.08235294117647059" stop-color="#0670ea"/>
      <stop offset="0.21568627450980393" stop-color="#0d81f6"/>
      <stop offset="0.3607843137254902" stop-color="#118cfd"/>
      <stop offset="0.5294117647058824" stop-color="#128fff"/>
      <stop offset="0.6745098039215687" stop-color="#118bfc"/>
      <stop offset="0.807843137254902" stop-color="#0c80f5"/>
      <stop offset="0.9372549019607843" stop-color="#056de8"/>
      <stop offset="1.0" stop-color="#0061e0"/>
    </linearGradient>
  </defs>
</svg>
