<?xml version="1.0" encoding="UTF-8" standalone="no"?>
<svg xmlns:ffdec="https://www.free-decompiler.com/flash" xmlns:xlink="http://www.w3.org/1999/xlink" ffdec:objectType="shape" height="18.2px" width="192.0px" xmlns="http://www.w3.org/2000/svg">
  <g transform="matrix(1.0, 0.0, 0.0, 1.0, 0.0, 0.0)">
    <path d="M189.0 17.7 L3.0 17.7 Q1.95 17.7 1.25 16.95 0.5 16.2 0.5 15.2 L0.5 3.0 Q0.5 1.95 1.25 1.25 1.95 0.5 3.0 0.5 L189.0 0.5 Q190.0 0.5 190.75 1.25 191.5 1.95 191.5 3.0 L191.5 15.2 Q191.5 16.2 190.75 16.95 190.0 17.7 189.0 17.7" fill="url(#gradient0)" fill-rule="evenodd" stroke="none"/>
    <path d="M189.0 0.0 Q190.25 0.0 191.1 0.9 192.0 1.75 192.0 3.0 L192.0 15.2 Q192.0 16.45 191.1 17.3 190.25 18.2 189.0 18.2 L3.0 18.2 Q1.75 18.2 0.85 17.3 0.0 16.45 0.0 15.2 L0.0 3.0 Q0.0 1.75 0.85 0.9 1.75 0.0 3.0 0.0 L189.0 0.0 M191.0 3.0 Q191.0 2.2 190.4 1.6 189.85 1.0 189.0 1.0 L3.0 1.0 Q2.2 1.0 1.6 1.6 1.0 2.2 1.0 3.0 L1.0 15.2 Q1.0 16.05 1.6 16.6 2.2 17.2 3.0 17.2 L189.0 17.2 Q189.85 17.2 190.4 16.6 191.0 16.05 191.0 15.2 L191.0 3.0" fill="#21bfff" fill-rule="evenodd" stroke="none"/>
  </g>
  <defs>
    <linearGradient gradientTransform="matrix(0.1166, 0.0, 0.0, -0.1166, 96.0, 9.1)" gradientUnits="userSpaceOnUse" id="gradient0" spreadMethod="pad" x1="-819.2" x2="819.2">
      <stop offset="0.0" stop-color="#215ea8" stop-opacity="0.49803922"/>
      <stop offset="0.09411764705882353" stop-color="#1c70c7" stop-opacity="0.6784314"/>
      <stop offset="0.19215686274509805" stop-color="#177de0" stop-opacity="0.81960785"/>
      <stop offset="0.29411764705882354" stop-color="#1487f1" stop-opacity="0.91764706"/>
      <stop offset="0.403921568627451" stop-color="#138dfc" stop-opacity="0.98039216"/>
      <stop offset="0.5294117647058824" stop-color="#128fff"/>
      <stop offset="0.6352941176470588" stop-color="#138dfb" stop-opacity="0.9764706"/>
      <stop offset="0.7372549019607844" stop-color="#1586f0" stop-opacity="0.9098039"/>
      <stop offset="0.8313725490196079" stop-color="#187cdd" stop-opacity="0.8039216"/>
      <stop offset="0.9254901960784314" stop-color="#1c6dc2" stop-opacity="0.6509804"/>
      <stop offset="1.0" stop-color="#215ea8" stop-opacity="0.49803922"/>
    </linearGradient>
  </defs>
</svg>
