<?xml version="1.0" encoding="UTF-8" standalone="no"?>
<svg xmlns:ffdec="https://www.free-decompiler.com/flash" xmlns:xlink="http://www.w3.org/1999/xlink" ffdec:objectType="shape" height="22.95px" width="30.15px" xmlns="http://www.w3.org/2000/svg">
  <g transform="matrix(1.0, 0.0, 0.0, 1.0, 0.0, 0.0)">
    <path d="M29.65 3.0 L29.65 19.95 Q29.65 20.95 28.95 21.7 28.2 22.45 27.15 22.45 L3.0 22.45 Q1.95 22.45 1.25 21.7 0.5 20.95 0.5 19.95 L0.5 3.0 Q0.5 2.0 1.25 1.25 1.95 0.5 3.0 0.5 L27.15 0.5 Q28.2 0.5 28.95 1.25 29.65 2.0 29.65 3.0" fill="url(#gradient0)" fill-rule="evenodd" stroke="none"/>
    <path d="M0.9 0.9 Q1.75 0.0 3.0 0.0 L27.15 0.0 Q28.4 0.0 29.25 0.9 30.15 1.75 30.15 3.0 L30.15 19.95 Q30.15 21.2 29.25 22.05 28.4 22.95 27.15 22.95 L3.0 22.95 Q1.75 22.95 0.9 22.05 0.0 21.2 0.0 19.95 L0.0 3.0 Q0.0 1.75 0.9 0.9 M3.0 1.0 Q2.2 1.0 1.6 1.6 1.0 2.2 1.0 3.0 L1.0 19.95 Q1.0 20.8 1.6 21.35 2.2 21.95 3.0 21.95 L27.15 21.95 Q28.0 21.95 28.55 21.35 29.15 20.8 29.15 19.95 L29.15 3.0 Q29.15 2.2 28.55 1.6 28.0 1.0 27.15 1.0 L3.0 1.0" fill="#298aff" fill-rule="evenodd" stroke="none"/>
    <path d="M22.45 3.9 L22.45 7.1 16.7 11.5 22.45 15.7 22.45 19.15 7.2 11.5 22.45 3.9" fill="#00b3ff" fill-rule="evenodd" stroke="none"/>
  </g>
  <defs>
    <linearGradient gradientTransform="matrix(0.0178, 0.0, 0.0, -0.0178, 15.1, 11.45)" gradientUnits="userSpaceOnUse" id="gradient0" spreadMethod="pad" x1="-819.2" x2="819.2">
      <stop offset="0.0" stop-color="#113b8c"/>
      <stop offset="0.2823529411764706" stop-color="#164db1"/>
      <stop offset="0.5294117647058824" stop-color="#195acc"/>
      <stop offset="0.6470588235294118" stop-color="#1855c1"/>
      <stop offset="0.8509803921568627" stop-color="#1447a5"/>
      <stop offset="1.0" stop-color="#113b8c"/>
    </linearGradient>
  </defs>
</svg>
