<?xml version="1.0" encoding="UTF-8" standalone="no"?>
<svg xmlns:ffdec="https://www.free-decompiler.com/flash" xmlns:xlink="http://www.w3.org/1999/xlink" ffdec:objectType="shape" height="22.95px" width="30.2px" xmlns="http://www.w3.org/2000/svg">
  <g transform="matrix(1.0, 0.0, 0.0, 1.0, 0.0, 0.0)">
    <path d="M27.2 0.5 L3.0 0.5 Q2.0 0.5 1.25 1.25 0.5 2.0 0.5 3.0 L0.5 19.95 Q0.5 20.95 1.25 21.7 2.0 22.45 3.0 22.45 L27.2 22.45 Q28.2 22.45 28.95 21.7 29.7 20.95 29.7 19.95 L29.7 3.0 Q29.7 2.0 28.95 1.25 28.2 0.5 27.2 0.5" fill="url(#gradient0)" fill-rule="evenodd" stroke="none"/>
    <path d="M30.2 3.0 Q30.2 1.75 29.3 0.9 28.45 0.0 27.2 0.0 L3.0 0.0 Q1.75 0.0 0.9 0.9 0.0 1.75 0.0 3.0 L0.0 19.95 Q0.0 21.2 0.9 22.05 1.75 22.95 3.0 22.95 L27.2 22.95 Q28.45 22.95 29.3 22.05 30.2 21.2 30.2 19.95 L30.2 3.0 M27.2 1.0 Q28.0 1.0 28.6 1.6 29.2 2.2 29.2 3.0 L29.2 19.95 Q29.2 20.8 28.6 21.35 28.0 21.95 27.2 21.95 L3.0 21.95 Q2.15 21.95 1.6 21.35 1.0 20.8 1.0 19.95 L1.0 3.0 Q1.0 2.2 1.6 1.6 2.15 1.0 3.0 1.0 L27.2 1.0" fill="#29bfff" fill-rule="evenodd" stroke="none"/>
    <path d="M14.75 3.6 L14.8 3.8 Q7.1 7.4 10.7 13.45 L10.95 13.5 12.15 12.25 14.85 18.95 Q12.75 19.35 7.35 19.05 L8.3 17.5 Q1.7 6.9 14.75 3.6 M22.55 3.75 L21.6 5.35 Q28.2 15.9 15.2 19.2 L15.1 19.0 Q22.8 15.4 19.25 9.4 L18.95 9.35 17.75 10.55 15.05 3.85 Q17.15 3.45 22.55 3.75" fill="#30ffff" fill-rule="evenodd" stroke="none"/>
  </g>
  <defs>
    <linearGradient gradientTransform="matrix(-0.0178, 0.0, 0.0, -0.0178, 15.1, 11.45)" gradientUnits="userSpaceOnUse" id="gradient0" spreadMethod="pad" x1="-819.2" x2="819.2">
      <stop offset="0.0" stop-color="#113b8c"/>
      <stop offset="0.2823529411764706" stop-color="#164db1"/>
      <stop offset="0.5294117647058824" stop-color="#195acc"/>
      <stop offset="0.6470588235294118" stop-color="#1855c1"/>
      <stop offset="0.8509803921568627" stop-color="#1447a5"/>
      <stop offset="1.0" stop-color="#113b8c"/>
    </linearGradient>
  </defs>
</svg>
