<?xml version="1.0" encoding="UTF-8" standalone="no"?>
<svg xmlns:ffdec="https://www.free-decompiler.com/flash" xmlns:xlink="http://www.w3.org/1999/xlink" ffdec:objectType="shape" height="37.25px" width="298.1px" xmlns="http://www.w3.org/2000/svg">
  <g transform="matrix(1.0, 0.0, 0.0, 1.0, 149.45, 183.65)">
    <path d="M128.65 -179.7 L147.0 -151.5 Q148.0 -150.0 147.35 -148.7 146.6 -147.4 144.8 -147.4 L-145.55 -147.4 Q-147.35 -147.4 -148.1 -148.7 -148.8 -149.95 -147.9 -151.5 L-131.0 -179.6 Q-130.2 -180.9 -128.65 -181.8 -127.05 -182.65 -125.55 -182.65 L123.2 -182.65 Q124.65 -182.65 126.25 -181.8 127.85 -180.95 128.65 -179.7" fill="url(#gradient0)" fill-rule="evenodd" stroke="none"/>
    <path d="M127.8 -179.15 Q127.15 -180.2 125.8 -180.9 124.45 -181.65 123.2 -181.65 L-125.55 -181.65 Q-126.8 -181.65 -128.15 -180.9 -129.45 -180.15 -130.1 -179.1 L-147.05 -151.0 Q-147.7 -149.95 -147.25 -149.15 -146.8 -148.4 -145.55 -148.4 L144.8 -148.4 Q146.05 -148.4 146.45 -149.15 146.85 -149.9 146.2 -150.95 L127.8 -179.15 M123.2 -183.65 Q124.95 -183.65 126.75 -182.7 128.55 -181.7 129.5 -180.25 L147.85 -152.0 Q149.2 -150.0 148.2 -148.2 147.25 -146.4 144.8 -146.4 L-145.55 -146.4 Q-148.0 -146.4 -149.0 -148.2 -150.0 -150.0 -148.75 -152.0 L-131.85 -180.15 Q-130.9 -181.65 -129.15 -182.65 -127.35 -183.65 -125.55 -183.65 L123.2 -183.65" fill="#5ab4ff" fill-rule="evenodd" stroke="none"/>
  </g>
  <defs>
    <linearGradient gradientTransform="matrix(0.1806, 0.0, 0.0, -0.1806, -0.4, -165.05)" gradientUnits="userSpaceOnUse" id="gradient0" spreadMethod="pad" x1="-819.2" x2="819.2">
      <stop offset="0.0" stop-color="#112e6e"/>
      <stop offset="0.3568627450980392" stop-color="#1740b1"/>
      <stop offset="0.5294117647058824" stop-color="#1947cc"/>
      <stop offset="0.615686274509804" stop-color="#1844c1"/>
      <stop offset="0.7686274509803922" stop-color="#163da5"/>
      <stop offset="0.9647058823529412" stop-color="#123077"/>
      <stop offset="1.0" stop-color="#112e6e"/>
    </linearGradient>
  </defs>
</svg>
