<?xml version="1.0" encoding="UTF-8" standalone="no"?>
<svg xmlns:ffdec="https://www.free-decompiler.com/flash" xmlns:xlink="http://www.w3.org/1999/xlink" ffdec:objectType="shape" height="33.7px" width="610.75px" xmlns="http://www.w3.org/2000/svg">
  <g transform="matrix(1.0, 0.0, 0.0, 1.0, 305.8, 155.35)">
    <path d="M299.95 -122.65 L-300.8 -122.65 Q-302.45 -122.65 -303.6 -123.8 -304.8 -125.0 -304.8 -126.65 L-304.8 -150.35 Q-304.8 -152.0 -303.6 -153.15 -302.45 -154.35 -300.8 -154.35 L299.95 -154.35 Q301.6 -154.35 302.8 -153.15 303.95 -152.0 303.95 -150.35 L303.95 -126.65 Q303.95 -125.0 302.8 -123.8 301.6 -122.65 299.95 -122.65" fill="url(#gradient0)" fill-rule="evenodd" stroke="none"/>
    <path d="M302.95 -150.35 Q302.95 -151.6 302.05 -152.45 301.2 -153.35 299.95 -153.35 L-300.8 -153.35 Q-302.05 -153.35 -302.9 -152.45 -303.8 -151.6 -303.8 -150.35 L-303.8 -126.65 Q-303.8 -125.4 -302.9 -124.55 -302.05 -123.65 -300.8 -123.65 L299.95 -123.65 Q301.2 -123.65 302.05 -124.55 302.95 -125.4 302.95 -126.65 L302.95 -150.35 M303.5 -153.9 Q304.95 -152.4 304.95 -150.35 L304.95 -126.65 Q304.95 -124.6 303.5 -123.1 302.0 -121.65 299.95 -121.65 L-300.8 -121.65 Q-302.85 -121.65 -304.35 -123.1 -305.8 -124.6 -305.8 -126.65 L-305.8 -150.35 Q-305.8 -152.4 -304.35 -153.9 -302.85 -155.35 -300.8 -155.35 L299.95 -155.35 Q302.0 -155.35 303.5 -153.9" fill="#0084ff" fill-rule="evenodd" stroke="none"/>
  </g>
  <defs>
    <linearGradient gradientTransform="matrix(0.0, -0.0193, -0.0193, 0.0, -0.4, -138.5)" gradientUnits="userSpaceOnUse" id="gradient0" spreadMethod="pad" x1="-819.2" x2="819.2">
      <stop offset="0.0" stop-color="#055cab"/>
      <stop offset="0.0" stop-color="#055cab"/>
      <stop offset="0.1568627450980392" stop-color="#034d98"/>
      <stop offset="0.3411764705882353" stop-color="#01438a"/>
      <stop offset="0.5725490196078431" stop-color="#003d82"/>
      <stop offset="1.0" stop-color="#003b80"/>
    </linearGradient>
  </defs>
</svg>
