<?xml version="1.0" encoding="UTF-8" standalone="no"?>
<svg xmlns:ffdec="https://www.free-decompiler.com/flash" xmlns:xlink="http://www.w3.org/1999/xlink" ffdec:objectType="shape" height="22.55px" width="152.2px" xmlns="http://www.w3.org/2000/svg">
  <g transform="matrix(1.0, 0.0, 0.0, 1.0, 0.0, 0.0)">
    <path d="M148.2 22.05 L4.0 22.05 Q2.55 22.05 1.5 21.05 0.5 20.0 0.5 18.55 L0.5 4.0 Q0.5 2.55 1.5 1.55 2.55 0.5 4.0 0.5 L148.2 0.5 Q149.65 0.5 150.7 1.55 151.7 2.55 151.7 4.0 L151.7 18.55 Q151.7 20.0 150.7 21.05 149.65 22.05 148.2 22.05" fill="#032351" fill-rule="evenodd" stroke="none"/>
    <path d="M148.2 0.0 Q149.85 0.0 151.05 1.2 152.2 2.35 152.2 4.0 L152.2 18.55 Q152.2 20.2 151.05 21.4 149.85 22.55 148.2 22.55 L4.0 22.55 Q2.35 22.55 1.2 21.4 0.0 20.2 0.0 18.55 L0.0 4.0 Q0.0 2.35 1.2 1.2 2.35 0.0 4.0 0.0 L148.2 0.0 M151.2 4.0 Q151.2 2.8 150.3 1.9 149.45 1.0 148.2 1.0 L4.0 1.0 Q2.75 1.0 1.9 1.9 1.0 2.8 1.0 4.0 L1.0 18.55 Q1.0 19.8 1.9 20.65 2.75 21.55 4.0 21.55 L148.2 21.55 Q149.45 21.55 150.3 20.65 151.2 19.8 151.2 18.55 L151.2 4.0" fill="#228cff" fill-rule="evenodd" stroke="none"/>
  </g>
</svg>
