<?xml version="1.0" encoding="UTF-8" standalone="no"?>
<svg xmlns:ffdec="https://www.free-decompiler.com/flash" xmlns:xlink="http://www.w3.org/1999/xlink" ffdec:objectType="shape" height="23.0px" width="171.65px" xmlns="http://www.w3.org/2000/svg">
  <g transform="matrix(1.0, 0.0, 0.0, 1.0, 0.0, 0.0)">
    <path d="M3.0 0.5 L158.65 0.5 160.65 0.95 162.45 2.0 169.5 8.3 Q170.2 8.95 170.65 10.0 171.15 11.1 171.15 12.0 L171.15 20.0 Q171.15 21.05 170.4 21.8 169.65 22.5 168.65 22.5 L3.0 22.5 Q1.95 22.5 1.25 21.8 0.5 21.05 0.5 20.0 L0.5 3.0 Q0.5 2.0 1.25 1.25 1.95 0.5 3.0 0.5" fill="url(#gradient0)" fill-rule="evenodd" stroke="none"/>
    <path d="M1.55 1.6 Q1.0 2.2 1.0 3.0 L1.0 20.0 Q1.0 20.85 1.55 21.4 2.15 22.0 3.0 22.0 L168.65 22.0 Q169.5 22.0 170.05 21.4 170.65 20.85 170.65 20.0 L170.65 12.0 170.2 10.2 169.15 8.7 162.15 2.35 Q161.5 1.8 160.5 1.4 L158.65 1.0 3.0 1.0 Q2.15 1.0 1.55 1.6 M0.85 0.9 Q1.75 0.0 3.0 0.0 L158.65 0.0 Q159.65 0.0 160.85 0.5 162.05 0.95 162.8 1.6 L169.8 7.95 Q170.6 8.65 171.1 9.85 171.65 11.0 171.65 12.0 L171.65 20.0 Q171.65 21.25 170.75 22.15 169.9 23.0 168.65 23.0 L3.0 23.0 Q1.75 23.0 0.85 22.15 0.0 21.3 0.0 20.0 L0.0 3.0 Q0.0 1.75 0.85 0.9" fill="#00a1ff" fill-rule="evenodd" stroke="none"/>
    <path d="M2.4 1.9 L160.15 1.9 160.15 3.2 2.4 3.2 2.4 1.9" fill="url(#gradient1)" fill-rule="evenodd" stroke="none"/>
  </g>
  <defs>
    <linearGradient gradientTransform="matrix(0.1042, 0.0, 0.0, -0.1042, 85.8, 11.55)" gradientUnits="userSpaceOnUse" id="gradient0" spreadMethod="pad" x1="-819.2" x2="819.2">
      <stop offset="0.0" stop-color="#004587"/>
      <stop offset="0.09411764705882353" stop-color="#00529e"/>
      <stop offset="0.38823529411764707" stop-color="#0078e4"/>
      <stop offset="0.5294117647058824" stop-color="#0087ff"/>
      <stop offset="0.6" stop-color="#0081f4"/>
      <stop offset="0.7254901960784313" stop-color="#0071d8"/>
      <stop offset="0.8901960784313725" stop-color="#0058aa"/>
      <stop offset="1.0" stop-color="#004587"/>
    </linearGradient>
    <linearGradient gradientTransform="matrix(0.0963, 0.0, 0.0, -0.0963, 81.25, 2.55)" gradientUnits="userSpaceOnUse" id="gradient1" spreadMethod="pad" x1="-819.2" x2="819.2">
      <stop offset="0.0" stop-color="#5ca1b8" stop-opacity="0.0"/>
      <stop offset="0.13725490196078433" stop-color="#78c0b7" stop-opacity="0.42352942"/>
      <stop offset="0.27450980392156865" stop-color="#8dd7b6" stop-opacity="0.7411765"/>
      <stop offset="0.4" stop-color="#9ae5b5" stop-opacity="0.93333334"/>
      <stop offset="0.5137254901960784" stop-color="#9eeab5"/>
      <stop offset="0.6470588235294118" stop-color="#9be7b5" stop-opacity="0.9529412"/>
      <stop offset="0.7529411764705882" stop-color="#92ddb6" stop-opacity="0.8156863"/>
      <stop offset="0.8509803921568627" stop-color="#83ccb6" stop-opacity="0.58431375"/>
      <stop offset="0.9411764705882353" stop-color="#6db4b7" stop-opacity="0.2627451"/>
      <stop offset="1.0" stop-color="#5ca1b8" stop-opacity="0.0"/>
    </linearGradient>
  </defs>
</svg>
