<?xml version="1.0" encoding="UTF-8" standalone="no"?>
<svg xmlns:ffdec="https://www.free-decompiler.com/flash" xmlns:xlink="http://www.w3.org/1999/xlink" ffdec:objectType="shape" height="22.95px" width="30.2px" xmlns="http://www.w3.org/2000/svg">
  <g transform="matrix(1.0, 0.0, 0.0, 1.0, 0.0, 0.0)">
    <path d="M27.2 0.5 L3.0 0.5 Q2.0 0.5 1.25 1.25 0.5 2.0 0.5 3.0 L0.5 19.95 Q0.5 20.95 1.25 21.7 2.0 22.45 3.0 22.45 L27.2 22.45 Q28.25 22.45 28.95 21.7 29.7 20.95 29.7 19.95 L29.7 3.0 Q29.7 2.0 28.95 1.25 28.25 0.5 27.2 0.5" fill="url(#gradient0)" fill-rule="evenodd" stroke="none"/>
    <path d="M27.2 1.0 Q28.0 1.0 28.6 1.6 29.2 2.2 29.2 3.0 L29.2 19.95 Q29.2 20.8 28.6 21.35 28.0 21.95 27.2 21.95 L3.0 21.95 Q2.2 21.95 1.6 21.35 1.0 20.75 1.0 19.95 L1.0 3.0 Q1.0 2.2 1.6 1.6 2.2 1.0 3.0 1.0 L27.2 1.0 M30.2 3.0 Q30.2 1.75 29.3 0.9 28.45 0.0 27.2 0.0 L3.0 0.0 Q1.75 0.0 0.9 0.9 0.0 1.75 0.0 3.0 L0.0 19.95 Q0.0 21.2 0.9 22.05 1.75 22.95 3.0 22.95 L27.2 22.95 Q28.45 22.95 29.3 22.05 30.2 21.2 30.2 19.95 L30.2 3.0" fill="#298aff" fill-rule="evenodd" stroke="none"/>
    <path d="M24.5 3.9 L9.3 11.5 24.5 19.15 24.5 15.7 18.8 11.5 24.5 7.1 24.5 3.9" fill="#00b3ff" fill-rule="evenodd" stroke="none"/>
    <path d="M6.25 3.9 L6.25 19.15 8.4 19.15 8.4 3.9 6.25 3.9" fill="#00b3ff" fill-rule="evenodd" stroke="none"/>
  </g>
  <defs>
    <linearGradient gradientTransform="matrix(-0.0178, 0.0, 0.0, -0.0178, 15.1, 11.45)" gradientUnits="userSpaceOnUse" id="gradient0" spreadMethod="pad" x1="-819.2" x2="819.2">
      <stop offset="0.0" stop-color="#113b8c"/>
      <stop offset="0.2823529411764706" stop-color="#164db1"/>
      <stop offset="0.5294117647058824" stop-color="#195acc"/>
      <stop offset="0.6470588235294118" stop-color="#1855c1"/>
      <stop offset="0.8509803921568627" stop-color="#1447a5"/>
      <stop offset="1.0" stop-color="#113b8c"/>
    </linearGradient>
  </defs>
</svg>
