<?xml version="1.0" encoding="UTF-8" standalone="no"?>
<svg xmlns:ffdec="https://www.free-decompiler.com/flash" xmlns:xlink="http://www.w3.org/1999/xlink" ffdec:objectType="shape" height="55.55px" width="56.25px" xmlns="http://www.w3.org/2000/svg">
  <g transform="matrix(1.0, 0.0, 0.0, 1.0, 0.0, -0.05)">
    <path d="M49.35 27.8 Q49.35 19.6 43.85 13.6 38.35 7.65 30.25 6.9 L30.25 0.55 Q41.0 1.3 48.35 9.15 55.75 17.0 55.75 27.8 55.75 34.15 52.8 40.05 L47.3 36.85 Q49.35 32.5 49.35 27.8" fill="#3e62a5" fill-opacity="0.49803922" fill-rule="evenodd" stroke="none"/>
    <path d="M49.35 27.8 Q49.35 32.5 47.3 36.85 L52.8 40.05 Q55.75 34.15 55.75 27.8 55.75 17.0 48.35 9.15 41.0 1.3 30.25 0.55 L30.25 6.9 Q38.35 7.65 43.85 13.6 49.35 19.6 49.35 27.8 Z" fill="none" stroke="#57adff" stroke-linecap="butt" stroke-linejoin="miter-clip" stroke-miterlimit="4.0" stroke-width="1.0"/>
    <path d="M8.65 36.7 L3.0 39.65 Q0.25 33.75 0.55 27.3 0.95 16.55 8.65 8.95 16.3 1.4 27.0 1.05 L26.75 7.4 Q18.65 7.85 12.95 13.6 7.2 19.4 6.9 27.55 6.7 32.3 8.65 36.7" fill="#3e62a5" fill-opacity="0.49803922" fill-rule="evenodd" stroke="none"/>
    <path d="M8.65 36.7 Q6.7 32.3 6.9 27.55 7.2 19.4 12.95 13.6 18.65 7.85 26.75 7.4 L27.0 1.05 Q16.3 1.4 8.65 8.95 0.95 16.55 0.55 27.3 0.25 33.75 3.0 39.65 L8.65 36.7 Z" fill="none" stroke="#57adff" stroke-linecap="butt" stroke-linejoin="miter-clip" stroke-miterlimit="4.0" stroke-width="1.0"/>
    <path d="M45.2 40.3 L50.75 43.5 Q46.95 48.85 41.15 51.95 35.1 55.1 28.25 55.1 21.4 55.1 15.4 51.95 9.6 48.85 5.8 43.5 L11.35 40.3 Q14.3 44.25 18.65 46.5 23.15 48.8 28.25 48.8 33.35 48.8 37.9 46.5 42.25 44.25 45.2 40.3" fill="#3e62a5" fill-opacity="0.49803922" fill-rule="evenodd" stroke="none"/>
    <path d="M45.2 40.3 Q42.25 44.25 37.9 46.5 33.35 48.8 28.25 48.8 23.15 48.8 18.65 46.5 14.3 44.25 11.35 40.3 L5.8 43.5 Q9.6 48.85 15.4 51.95 21.4 55.1 28.25 55.1 35.1 55.1 41.15 51.95 46.95 48.85 50.75 43.5 L45.2 40.3 Z" fill="none" stroke="#57adff" stroke-linecap="butt" stroke-linejoin="miter-clip" stroke-miterlimit="4.0" stroke-width="1.0"/>
  </g>
</svg>
