<?xml version="1.0" encoding="UTF-8" standalone="no"?>
<svg xmlns:ffdec="https://www.free-decompiler.com/flash" xmlns:xlink="http://www.w3.org/1999/xlink" ffdec:objectType="shape" height="24.0px" width="32.0px" xmlns="http://www.w3.org/2000/svg">
  <g transform="matrix(1.0, 0.0, 0.0, 1.0, 1.0, 1.0)">
    <path d="M30.0 2.0 L30.0 20.0 Q30.0 20.85 29.4 21.4 28.85 22.0 28.0 22.0 L2.0 22.0 Q1.2 22.0 0.6 21.4 0.0 20.85 0.0 20.0 L0.0 2.0 Q0.0 1.2 0.6 0.6 1.2 0.0 2.0 0.0 L28.0 0.0 Q28.85 0.0 29.4 0.6 30.0 1.2 30.0 2.0" fill="url(#gradient0)" fill-rule="evenodd" stroke="none"/>
    <path d="M30.0 2.0 L30.0 20.0 Q30.0 20.85 29.4 21.4 28.85 22.0 28.0 22.0 L2.0 22.0 Q1.2 22.0 0.6 21.4 0.0 20.85 0.0 20.0 L0.0 2.0 Q0.0 1.2 0.6 0.6 1.2 0.0 2.0 0.0 L28.0 0.0 Q28.85 0.0 29.4 0.6 30.0 1.2 30.0 2.0 Z" fill="none" stroke="#57ebff" stroke-linecap="butt" stroke-linejoin="miter-clip" stroke-miterlimit="4.0" stroke-width="2.0"/>
    <path d="M17.2 11.05 L8.5 18.15 8.5 14.5 12.5 11.35 8.5 7.85 8.5 4.0 17.2 11.05" fill="#d1ffff" fill-rule="evenodd" stroke="none"/>
    <path d="M20.9 4.0 L20.9 18.15 18.6 18.15 18.6 4.0 20.9 4.0" fill="#d1ffff" fill-rule="evenodd" stroke="none"/>
  </g>
  <defs>
    <linearGradient gradientTransform="matrix(0.0, -0.0134, -0.0134, 0.0, 15.0, 11.0)" gradientUnits="userSpaceOnUse" id="gradient0" spreadMethod="pad" x1="-819.2" x2="819.2">
      <stop offset="0.0" stop-color="#51c7ee"/>
      <stop offset="1.0" stop-color="#0c7dd1"/>
    </linearGradient>
  </defs>
</svg>
