<?xml version="1.0" encoding="UTF-8" standalone="no"?>
<svg xmlns:ffdec="https://www.free-decompiler.com/flash" xmlns:xlink="http://www.w3.org/1999/xlink" ffdec:objectType="shape" height="21.8px" width="29.0px" xmlns="http://www.w3.org/2000/svg">
  <g transform="matrix(1.0, 0.0, 0.0, 1.0, -0.5, -0.1)">
    <path d="M28.5 2.9 L28.5 19.1 Q28.5 19.85 27.95 20.35 27.45 20.9 26.7 20.9 L3.3 20.9 Q2.6 20.9 2.05 20.35 1.5 19.85 1.5 19.1 L1.5 2.9 Q1.5 2.2 2.05 1.65 2.6 1.1 3.3 1.1 L26.7 1.1 Q27.45 1.1 27.95 1.65 28.5 2.2 28.5 2.9" fill="url(#gradient0)" fill-rule="evenodd" stroke="none"/>
    <path d="M28.5 2.9 L28.5 19.1 Q28.5 19.85 27.95 20.35 27.45 20.9 26.7 20.9 L3.3 20.9 Q2.6 20.9 2.05 20.35 1.5 19.85 1.5 19.1 L1.5 2.9 Q1.5 2.2 2.05 1.65 2.6 1.1 3.3 1.1 L26.7 1.1 Q27.45 1.1 27.95 1.65 28.5 2.2 28.5 2.9 Z" fill="none" stroke="#57ebff" stroke-linecap="butt" stroke-linejoin="miter-clip" stroke-miterlimit="4.0" stroke-width="2.0"/>
    <path d="M17.0 11.05 L9.15 17.45 9.15 14.15 12.75 11.3 9.15 8.15 9.15 4.7 17.0 11.05" fill="#d1ffff" fill-rule="evenodd" stroke="none"/>
    <path d="M20.3 4.7 L20.3 17.45 18.25 17.45 18.25 4.7 20.3 4.7" fill="#d1ffff" fill-rule="evenodd" stroke="none"/>
  </g>
  <defs>
    <linearGradient gradientTransform="matrix(0.0, -0.0121, -0.0121, 0.0, 15.0, 11.0)" gradientUnits="userSpaceOnUse" id="gradient0" spreadMethod="pad" x1="-819.2" x2="819.2">
      <stop offset="0.0" stop-color="#51c7ee"/>
      <stop offset="1.0" stop-color="#0c7dd1"/>
    </linearGradient>
  </defs>
</svg>
