<?xml version="1.0" encoding="UTF-8" standalone="no"?>
<svg xmlns:ffdec="https://www.free-decompiler.com/flash" xmlns:xlink="http://www.w3.org/1999/xlink" ffdec:objectType="shape" height="21.8px" width="29.0px" xmlns="http://www.w3.org/2000/svg">
  <g transform="matrix(1.0, 0.0, 0.0, 1.0, 1.0, 1.0)">
    <path d="M27.0 1.8 L27.0 18.0 Q27.0 18.75 26.45 19.25 25.95 19.8 25.2 19.8 L1.8 19.8 Q1.1 19.8 0.55 19.25 0.0 18.75 0.0 18.0 L0.0 1.8 Q0.0 1.1 0.55 0.55 1.1 0.0 1.8 0.0 L25.2 0.0 Q25.95 0.0 26.45 0.55 27.0 1.1 27.0 1.8" fill="url(#gradient0)" fill-rule="evenodd" stroke="none"/>
    <path d="M27.0 1.8 L27.0 18.0 Q27.0 18.75 26.45 19.25 25.95 19.8 25.2 19.8 L1.8 19.8 Q1.1 19.8 0.55 19.25 0.0 18.75 0.0 18.0 L0.0 1.8 Q0.0 1.1 0.55 0.55 1.1 0.0 1.8 0.0 L25.2 0.0 Q25.95 0.0 26.45 0.55 27.0 1.1 27.0 1.8 Z" fill="none" stroke="#57ebff" stroke-linecap="butt" stroke-linejoin="miter-clip" stroke-miterlimit="4.0" stroke-width="2.0"/>
  </g>
  <defs>
    <linearGradient gradientTransform="matrix(0.0, -0.0121, -0.0121, 0.0, 13.5, 9.9)" gradientUnits="userSpaceOnUse" id="gradient0" spreadMethod="pad" x1="-819.2" x2="819.2">
      <stop offset="0.0" stop-color="#51c7ee"/>
      <stop offset="1.0" stop-color="#0c7dd1"/>
    </linearGradient>
  </defs>
</svg>
