<?xml version="1.0" encoding="UTF-8" standalone="no"?>
<svg xmlns:ffdec="https://www.free-decompiler.com/flash" xmlns:xlink="http://www.w3.org/1999/xlink" ffdec:objectType="shape" height="118.7px" width="173.65px" xmlns="http://www.w3.org/2000/svg">
  <g transform="matrix(1.0, 0.0, 0.0, 1.0, 0.0, 0.0)">
    <path d="M166.85 82.45 Q160.25 93.1 148.25 101.3 122.8 118.7 86.85 118.7 50.9 118.7 25.45 101.3 13.4 93.1 6.85 82.45 0.0 71.4 0.0 59.35 0.0 47.25 6.85 36.25 13.4 25.6 25.45 17.4 50.9 0.0 86.85 0.0 122.8 0.0 148.25 17.4 160.25 25.6 166.85 36.25 173.65 47.25 173.65 59.35 173.65 71.4 166.85 82.45" fill="url(#gradient0)" fill-rule="evenodd" stroke="none"/>
  </g>
  <defs>
    <radialGradient cx="0" cy="0" gradientTransform="matrix(0.0972, 0.0, 0.0, -0.0674, 86.85, 59.35)" gradientUnits="userSpaceOnUse" id="gradient0" r="819.2" spreadMethod="pad">
      <stop offset="0.0" stop-color="#00ff00"/>
      <stop offset="1.0" stop-color="#00ff00" stop-opacity="0.0"/>
    </radialGradient>
  </defs>
</svg>
