<?xml version="1.0" encoding="UTF-8" standalone="no"?>
<svg xmlns:ffdec="https://www.free-decompiler.com/flash" xmlns:xlink="http://www.w3.org/1999/xlink" ffdec:objectType="shape" height="22.8px" width="23.35px" xmlns="http://www.w3.org/2000/svg">
  <g transform="matrix(1.0, 0.0, 0.0, 1.0, 0.0, 0.0)">
    <path d="M10.25 2.25 Q12.45 0.0 15.65 0.0 18.85 0.0 21.1 2.25 23.35 4.5 23.35 7.7 23.35 10.9 21.1 13.15 18.85 15.4 15.65 15.4 13.3 15.4 11.25 14.0 L7.05 18.95 Q3.95 22.55 3.15 22.75 2.1 23.0 1.05 21.75 0.15 20.6 0.0 19.4 -0.1 18.1 9.35 12.1 8.0 10.1 8.0 7.7 8.0 4.5 10.25 2.25 M19.1 4.3 Q17.65 2.9 15.65 2.9 13.65 2.9 12.25 4.3 10.85 5.7 10.85 7.7 10.85 9.7 12.25 11.1 13.65 12.55 15.65 12.55 17.65 12.55 19.1 11.1 20.5 9.7 20.5 7.7 20.5 5.7 19.1 4.3" fill="url(#gradient0)" fill-rule="evenodd" stroke="none"/>
  </g>
  <defs>
    <linearGradient gradientTransform="matrix(0.0152, -0.0049, -0.0049, -0.0152, 10.9, 10.7)" gradientUnits="userSpaceOnUse" id="gradient0" spreadMethod="pad" x1="-819.2" x2="819.2">
      <stop offset="0.0" stop-color="#8f9500"/>
      <stop offset="0.27058823529411763" stop-color="#8fb500"/>
      <stop offset="0.7607843137254902" stop-color="#8fea00"/>
      <stop offset="1.0" stop-color="#8fff00"/>
    </linearGradient>
  </defs>
</svg>
