<?xml version="1.0" encoding="UTF-8" standalone="no"?>
<svg xmlns:ffdec="https://www.free-decompiler.com/flash" xmlns:xlink="http://www.w3.org/1999/xlink" ffdec:objectType="shape" height="19.8px" width="26.8px" xmlns="http://www.w3.org/2000/svg">
  <g transform="matrix(1.0, 0.0, 0.0, 1.0, 0.5, 0.5)">
    <path d="M25.8 9.4 Q25.8 13.3 22.05 16.05 18.25 18.8 12.9 18.8 7.55 18.8 3.8 16.05 0.0 13.3 0.0 9.4 0.0 5.5 3.8 2.75 7.55 0.0 12.9 0.0 18.25 0.0 22.05 2.75 25.8 5.5 25.8 9.4" fill="#2d8906" fill-rule="evenodd" stroke="none"/>
    <path d="M25.8 9.4 Q25.8 13.3 22.05 16.05 18.25 18.8 12.9 18.8 7.55 18.8 3.8 16.05 0.0 13.3 0.0 9.4 0.0 5.5 3.8 2.75 7.55 0.0 12.9 0.0 18.25 0.0 22.05 2.75 25.8 5.5 25.8 9.4 Z" fill="none" stroke="#abff00" stroke-linecap="butt" stroke-linejoin="miter-clip" stroke-miterlimit="4.0" stroke-width="1.0"/>
    <path d="M22.75 9.45 Q22.75 12.4 19.85 14.5 17.0 16.6 12.9 16.6 8.85 16.6 6.0 14.5 3.1 12.4 3.1 9.45 3.1 6.5 6.0 4.35 8.85 2.25 12.9 2.25 17.0 2.25 19.85 4.35 22.75 6.5 22.75 9.45 Z" fill="none" stroke="#6bff00" stroke-linecap="butt" stroke-linejoin="miter-clip" stroke-miterlimit="4.0" stroke-width="1.0"/>
  </g>
</svg>
