<?xml version="1.0" encoding="UTF-8" standalone="no"?>
<svg xmlns:ffdec="https://www.free-decompiler.com/flash" xmlns:xlink="http://www.w3.org/1999/xlink" ffdec:objectType="shape" height="436.05px" width="722.95px" xmlns="http://www.w3.org/2000/svg">
  <g transform="matrix(1.0, 0.0, 0.0, 1.0, 0.0, 0.95)">
    <path d="M6.15 361.2 L15.2 347.2 69.2 395.25 58.2 405.85 6.15 405.85 6.15 361.2" fill="#022666" fill-rule="evenodd" stroke="none"/>
    <path d="M6.15 361.2 L6.15 405.85 58.2 405.85 69.2 395.25 15.2 347.2 6.15 361.2 Z" fill="none" stroke="#0556d6" stroke-linecap="butt" stroke-linejoin="miter-clip" stroke-miterlimit="4.0" stroke-width="1.0"/>
    <path d="M722.45 389.95 L722.45 434.6 678.4 434.6 663.4 424.0 713.4 375.95 722.45 389.95" fill="#022666" fill-rule="evenodd" stroke="none"/>
    <path d="M722.45 389.95 L722.45 434.6 678.4 434.6 663.4 424.0 713.4 375.95 722.45 389.95 Z" fill="none" stroke="#0556d6" stroke-linecap="butt" stroke-linejoin="miter-clip" stroke-miterlimit="4.0" stroke-width="1.0"/>
    <path d="M703.4 32.25 L703.4 73.7 Q703.4 74.8 704.1 76.0 704.8 77.25 705.75 77.8 L713.05 82.15 Q714.2 82.85 715.05 84.3 715.9 85.75 715.9 87.1 L715.9 421.7 Q715.9 423.15 714.85 424.15 713.85 425.2 712.4 425.2 L254.35 425.2 Q253.0 425.2 251.5 424.35 250.05 423.55 249.35 422.35 L241.45 409.0 Q240.9 408.05 239.65 407.35 238.45 406.65 237.35 406.65 L205.55 406.65 202.65 405.95 Q201.1 405.25 200.2 404.25 L195.2 398.6 193.1 397.1 190.55 396.5 17.2 396.5 Q15.75 396.5 14.75 395.5 13.7 394.45 13.7 393.0 L13.7 151.15 Q13.7 150.0 13.2 148.45 12.75 146.95 12.05 146.0 L3.35 133.85 Q2.6 132.8 2.05 131.15 1.5 129.45 1.5 128.15 L1.5 32.25 Q1.5 30.85 2.55 29.8 3.6 28.75 5.0 28.75 L699.9 28.75 Q701.35 28.75 702.4 29.8 703.4 30.8 703.4 32.25" fill="url(#gradient0)" fill-rule="evenodd" stroke="none"/>
    <path d="M699.9 28.25 Q701.55 28.25 702.75 29.45 703.9 30.6 703.9 32.25 L703.9 73.7 Q703.9 74.65 704.55 75.75 705.15 76.85 706.0 77.35 L713.3 81.7 Q714.6 82.5 715.5 84.05 716.4 85.6 716.4 87.1 L716.4 421.7 Q716.4 423.35 715.25 424.55 714.05 425.7 712.4 425.7 L254.35 425.7 Q252.85 425.7 251.3 424.8 249.7 423.9 248.95 422.6 L241.0 409.25 Q240.5 408.4 239.4 407.75 238.35 407.15 237.35 407.15 L205.55 407.15 Q204.1 407.15 202.45 406.4 200.8 405.65 199.85 404.55 L194.8 398.9 Q194.1 398.15 192.85 397.6 191.6 397.0 190.55 397.0 L17.2 397.0 Q15.55 397.0 14.4 395.85 13.2 394.65 13.2 393.0 L13.2 151.15 12.75 148.6 Q12.3 147.15 11.65 146.3 L2.95 134.15 Q2.15 133.05 1.55 131.3 1.0 129.55 1.0 128.15 L1.0 32.25 Q1.0 30.6 2.2 29.45 3.35 28.25 5.0 28.25 L699.9 28.25 M702.9 32.25 Q702.9 31.0 702.0 30.15 701.15 29.25 699.9 29.25 L5.0 29.25 Q3.75 29.25 2.9 30.15 2.0 31.0 2.0 32.25 L2.0 128.15 Q2.0 129.4 2.5 131.0 3.05 132.6 3.75 133.6 L12.45 145.7 Q13.15 146.7 13.7 148.3 14.2 149.9 14.2 151.15 L14.2 393.0 Q14.2 394.25 15.1 395.1 15.95 396.0 17.2 396.0 L190.55 396.0 Q191.75 396.0 193.25 396.7 194.7 397.35 195.55 398.25 L200.6 403.9 Q201.4 404.85 202.85 405.5 L205.55 406.15 237.35 406.15 Q238.6 406.15 239.9 406.9 241.2 407.65 241.85 408.7 L249.8 422.1 Q250.45 423.2 251.8 423.95 253.1 424.7 254.35 424.7 L712.4 424.7 Q713.65 424.7 714.5 423.8 715.4 422.95 715.4 421.7 L715.4 87.1 Q715.4 85.85 714.65 84.55 713.85 83.2 712.8 82.6 L705.5 78.25 Q704.45 77.6 703.7 76.3 702.9 74.95 702.9 73.7 L702.9 32.25" fill="#0068ff" fill-rule="evenodd" stroke="none"/>
    <path d="M665.6 29.65 Q665.85 30.25 664.95 31.1 L658.6 37.25 Q657.7 38.1 656.15 38.7 654.65 39.3 653.4 39.3 L382.5 39.3 379.75 39.8 Q378.25 40.25 377.35 40.9 376.5 41.55 375.0 42.05 L372.25 42.5 334.6 42.5 331.85 42.05 Q330.3 41.55 329.4 40.9 328.45 40.25 326.95 39.8 L324.15 39.3 52.8 39.3 50.05 38.7 47.6 37.3 40.8 31.05 Q39.9 30.25 40.15 29.65 40.35 29.05 41.6 29.05 L664.1 29.05 Q665.35 29.05 665.6 29.65" fill="#021a51" fill-rule="evenodd" stroke="none"/>
    <path d="M665.6 26.65 Q665.85 27.25 664.95 28.1 L658.6 34.25 Q657.7 35.1 656.15 35.7 654.65 36.3 653.4 36.3 L381.5 36.3 378.9 36.8 Q377.55 37.25 376.85 37.9 L374.85 39.05 372.25 39.5 334.6 39.5 331.95 39.05 Q330.55 38.55 329.9 37.9 329.2 37.25 327.8 36.8 326.4 36.3 325.15 36.3 L52.8 36.3 50.05 35.7 47.6 34.3 40.8 28.05 Q39.9 27.25 40.15 26.65 40.35 26.05 41.6 26.05 L664.1 26.05 Q665.35 26.05 665.6 26.65" fill="#474646" fill-rule="evenodd" stroke="none"/>
    <path d="M665.65 26.7 Q665.9 27.3 665.05 28.2 L662.65 30.65 Q661.8 31.5 660.35 32.15 L657.6 32.8 621.5 32.8 618.6 33.25 Q616.95 33.65 615.85 34.25 L614.7 34.85 Q613.6 35.45 611.95 35.9 L609.05 36.3 381.5 36.3 378.9 36.8 Q377.55 37.25 376.85 37.9 L374.85 39.05 372.25 39.5 334.6 39.5 331.95 39.05 Q330.55 38.55 329.9 37.9 329.2 37.25 327.8 36.8 326.4 36.3 325.15 36.3 L97.0 36.3 94.1 35.9 91.35 34.95 89.8 34.15 Q88.7 33.6 87.05 33.2 L84.15 32.8 49.65 32.8 Q48.4 32.8 46.85 32.2 45.3 31.65 44.35 30.85 L40.9 27.95 Q39.95 27.15 40.15 26.6 40.35 26.05 41.6 26.05 L664.1 26.05 Q665.35 26.05 665.65 26.7" fill="url(#gradient1)" fill-rule="evenodd" stroke="none"/>
    <path d="M0.0 39.1 Q0.0 37.85 0.6 37.6 1.25 37.35 2.05 38.25 L4.2 40.5 Q5.05 41.35 5.65 42.9 6.25 44.4 6.25 45.65 L6.25 62.6 Q6.25 63.85 5.65 65.35 5.1 66.9 4.25 67.8 L2.0 70.25 Q1.2 71.15 0.6 70.9 0.0 70.7 0.0 69.45 L0.0 39.1" fill="url(#gradient2)" fill-rule="evenodd" stroke="none"/>
    <path d="M704.1 38.25 Q704.95 37.35 705.6 37.6 706.2 37.85 706.2 39.1 L706.2 69.45 Q706.2 70.7 705.6 70.9 705.0 71.15 704.15 70.25 L701.9 67.8 Q701.1 66.9 700.5 65.35 699.9 63.85 699.9 62.6 L699.9 45.65 Q699.9 44.4 700.5 42.9 701.1 41.35 701.95 40.5 L704.1 38.25" fill="url(#gradient3)" fill-rule="evenodd" stroke="none"/>
    <path d="M379.55 31.3 L377.65 31.65 Q376.6 32.05 375.95 32.55 L374.9 33.3 Q373.35 34.5 371.3 34.5 L335.65 34.5 333.75 34.15 Q332.65 33.85 332.0 33.35 L330.85 32.5 Q330.15 32.0 329.1 31.65 L327.2 31.3 311.85 31.3 Q309.8 31.3 308.1 30.4 L301.45 26.95 300.75 26.3 Q300.8 26.05 301.65 26.05 L404.15 26.05 Q405.0 26.05 405.05 26.3 L404.4 27.0 398.25 30.35 Q396.5 31.3 394.45 31.3 L379.55 31.3" fill="#333333" fill-rule="evenodd" stroke="none"/>
    <path d="M376.05 -0.95 Q377.35 -0.95 378.95 -0.4 380.55 0.15 381.55 1.0 L382.85 2.0 Q383.85 2.8 384.1 4.1 384.4 5.45 383.75 6.6 L371.65 28.3 Q371.05 29.45 369.7 30.2 368.4 30.95 367.1 30.95 L337.65 30.95 Q336.35 30.95 335.0 30.15 333.65 29.35 333.1 28.25 L321.95 6.65 Q321.4 5.5 321.6 4.05 321.8 2.65 322.7 1.7 L323.2 1.25 Q324.1 0.3 325.65 -0.3 327.2 -0.95 328.45 -0.95 L376.05 -0.95" fill="url(#gradient4)" fill-rule="evenodd" stroke="none"/>
    <path d="M373.7 1.9 Q375.2 2.55 376.1 3.45 L376.65 3.95 Q377.55 4.85 377.75 6.3 377.95 7.65 377.35 8.8 L368.3 25.1 Q367.65 26.25 366.25 27.0 364.95 27.85 363.65 27.85 L363.2 27.85 Q360.1 27.85 359.2 27.25 358.15 26.7 355.1 26.7 L350.05 26.7 Q347.0 26.7 346.1 27.25 L344.6 27.7 342.2 27.85 341.3 27.85 Q340.0 27.85 338.65 27.0 337.3 26.2 336.75 25.05 L328.35 8.85 Q327.8 7.7 327.95 6.25 328.05 4.7 328.9 3.7 L328.95 3.65 Q329.7 2.7 331.2 2.0 332.65 1.3 333.95 1.3 L336.5 1.3 Q339.65 1.3 341.0 1.9 L345.5 2.55 360.85 2.55 365.25 1.9 Q366.5 1.3 369.65 1.3 L370.85 1.3 Q372.15 1.3 373.7 1.9" fill="#2b2b2a" fill-rule="evenodd" stroke="none"/>
    <path d="M339.65 23.0 L332.35 8.95 Q331.9 8.2 332.05 7.2 332.25 6.25 332.85 5.65 L333.1 5.4 Q333.7 4.8 334.75 4.4 335.85 3.9 336.65 3.9 L367.65 3.9 369.55 4.35 Q370.65 4.7 371.3 5.2 L372.1 5.8 Q372.75 6.35 372.95 7.25 373.1 8.2 372.7 8.9 L364.9 23.0 363.55 24.3 Q362.65 24.8 361.8 24.8 L342.6 24.8 340.9 24.3 339.65 23.0" fill="#113ebc" fill-rule="evenodd" stroke="none"/>
    <path d="M364.9 23.0 L372.75 8.9 Q373.15 8.2 372.95 7.25 372.8 6.35 372.1 5.85 L371.3 5.2 Q370.65 4.7 369.6 4.3 L367.7 3.9 336.7 3.9 334.75 4.35 333.1 5.4 332.9 5.7 Q332.25 6.25 332.05 7.2 331.95 8.2 332.35 8.95 L339.65 23.0 Q340.1 23.75 340.95 24.3 341.85 24.8 342.65 24.8 L361.8 24.8 Q362.7 24.8 363.6 24.3 L364.9 23.0 Z" fill="none" stroke="#03133f" stroke-linecap="butt" stroke-linejoin="miter-clip" stroke-miterlimit="4.0" stroke-width="1.0"/>
    <path d="M310.3 30.6 L313.4 30.8 Q315.65 29.55 322.3 27.3 324.15 26.75 323.05 24.8 322.05 22.85 319.65 23.6 311.4 26.4 308.05 29.25 307.75 30.0 310.3 30.6" fill="url(#gradient5)" fill-rule="evenodd" stroke="none"/>
    <path d="M395.5 30.6 L392.4 30.8 Q390.15 29.55 383.5 27.3 381.65 26.75 382.75 24.8 383.75 22.85 386.15 23.6 394.4 26.4 397.75 29.25 398.05 30.0 395.5 30.6" fill="url(#gradient6)" fill-rule="evenodd" stroke="none"/>
    <path d="M383.5 14.3 L385.9 15.65 387.1 20.55 382.15 28.9 377.25 30.2 374.9 28.75 383.5 14.3" fill="url(#gradient7)" fill-rule="evenodd" stroke="none"/>
    <path d="M388.6 23.35 L385.4 28.8 383.0 27.4 386.2 22.0 388.6 23.35" fill="#333333" fill-rule="evenodd" stroke="none"/>
    <path d="M321.45 14.3 L319.05 15.65 317.85 20.55 322.85 28.9 327.7 30.2 330.05 28.75 321.45 14.3" fill="url(#gradient8)" fill-rule="evenodd" stroke="none"/>
    <path d="M316.35 23.35 L319.55 28.8 321.95 27.4 318.75 22.0 316.35 23.35" fill="#333333" fill-rule="evenodd" stroke="none"/>
  </g>
  <defs>
    <linearGradient gradientTransform="matrix(0.0, -0.2419, -0.2419, 0.0, 358.7, 227.0)" gradientUnits="userSpaceOnUse" id="gradient0" spreadMethod="pad" x1="-819.2" x2="819.2">
      <stop offset="0.0" stop-color="#021749"/>
      <stop offset="1.0" stop-color="#05307a"/>
    </linearGradient>
    <linearGradient gradientTransform="matrix(0.0, -0.0082, -0.0082, 0.0, 352.9, 32.8)" gradientUnits="userSpaceOnUse" id="gradient1" spreadMethod="pad" x1="-819.2" x2="819.2">
      <stop offset="0.0" stop-color="#a4a4a4"/>
      <stop offset="1.0" stop-color="#505050"/>
    </linearGradient>
    <linearGradient gradientTransform="matrix(-0.0038, 0.0, 0.0, 0.0038, 3.15, 54.25)" gradientUnits="userSpaceOnUse" id="gradient2" spreadMethod="pad" x1="-819.2" x2="819.2">
      <stop offset="0.0" stop-color="#505050"/>
      <stop offset="1.0" stop-color="#a4a4a4"/>
    </linearGradient>
    <linearGradient gradientTransform="matrix(-0.0038, 0.0, 0.0, -0.0038, 703.05, 54.25)" gradientUnits="userSpaceOnUse" id="gradient3" spreadMethod="pad" x1="-819.2" x2="819.2">
      <stop offset="0.0" stop-color="#505050"/>
      <stop offset="1.0" stop-color="#a4a4a4"/>
    </linearGradient>
    <linearGradient gradientTransform="matrix(0.0, -0.0195, 0.0195, 0.0, 352.85, 15.05)" gradientUnits="userSpaceOnUse" id="gradient4" spreadMethod="pad" x1="-819.2" x2="819.2">
      <stop offset="0.0" stop-color="#373737"/>
      <stop offset="0.6549019607843137" stop-color="#a4a4a4"/>
      <stop offset="0.803921568627451" stop-color="#a4a4a4"/>
      <stop offset="1.0" stop-color="#6b6b6b"/>
    </linearGradient>
    <linearGradient gradientTransform="matrix(0.0016, 0.0038, 0.0089, -0.0037, 283.45, 41.0)" gradientUnits="userSpaceOnUse" id="gradient5" spreadMethod="pad" x1="-819.2" x2="819.2">
      <stop offset="0.0" stop-color="#505050"/>
      <stop offset="0.09803921568627451" stop-color="#373737"/>
      <stop offset="0.5254901960784314" stop-color="#6e6861"/>
      <stop offset="0.8862745098039215" stop-color="#3d3d3d"/>
      <stop offset="1.0" stop-color="#505050"/>
    </linearGradient>
    <linearGradient gradientTransform="matrix(-0.0016, 0.0038, -0.0089, -0.0037, 422.35, 41.0)" gradientUnits="userSpaceOnUse" id="gradient6" spreadMethod="pad" x1="-819.2" x2="819.2">
      <stop offset="0.0" stop-color="#505050"/>
      <stop offset="0.09803921568627451" stop-color="#373737"/>
      <stop offset="0.5254901960784314" stop-color="#6e6861"/>
      <stop offset="0.8862745098039215" stop-color="#3d3d3d"/>
      <stop offset="1.0" stop-color="#505050"/>
    </linearGradient>
    <linearGradient gradientTransform="matrix(-0.005, 0.009, 0.009, 0.005, 381.9, 23.05)" gradientUnits="userSpaceOnUse" id="gradient7" spreadMethod="pad" x1="-819.2" x2="819.2">
      <stop offset="0.0" stop-color="#505050"/>
      <stop offset="0.09803921568627451" stop-color="#373737"/>
      <stop offset="0.5254901960784314" stop-color="#6e6963"/>
      <stop offset="0.8862745098039215" stop-color="#3d3d3d"/>
      <stop offset="1.0" stop-color="#505050"/>
    </linearGradient>
    <linearGradient gradientTransform="matrix(0.005, 0.009, -0.009, 0.005, 323.05, 23.05)" gradientUnits="userSpaceOnUse" id="gradient8" spreadMethod="pad" x1="-819.2" x2="819.2">
      <stop offset="0.0" stop-color="#505050"/>
      <stop offset="0.09803921568627451" stop-color="#373737"/>
      <stop offset="0.5254901960784314" stop-color="#6e6963"/>
      <stop offset="0.8862745098039215" stop-color="#3d3d3d"/>
      <stop offset="1.0" stop-color="#505050"/>
    </linearGradient>
  </defs>
</svg>
