<?xml version="1.0" encoding="UTF-8" standalone="no"?>
<svg xmlns:ffdec="https://www.free-decompiler.com/flash" xmlns:xlink="http://www.w3.org/1999/xlink" ffdec:objectType="shape" height="31.05px" width="31.3px" xmlns="http://www.w3.org/2000/svg">
  <g transform="matrix(1.0, 0.0, 0.0, 1.0, 0.0, 0.0)">
    <path d="M5.15 4.95 Q9.25 0.85 14.9 0.0 L16.75 15.65 3.9 28.5 Q-0.3 23.25 0.0 16.55 0.35 9.75 5.15 4.95" fill="#0575d6" fill-rule="evenodd" stroke="none"/>
    <path d="M17.8 30.05 Q12.65 30.05 8.95 26.4 5.3 22.75 5.3 17.55 5.3 12.4 8.95 8.7 12.65 5.05 17.8 5.05 23.0 5.05 26.65 8.7 30.3 12.4 30.3 17.55 30.3 22.75 26.65 26.4 23.0 30.05 17.8 30.05" fill="#03337f" fill-rule="evenodd" stroke="none"/>
    <path d="M17.8 30.05 Q23.0 30.05 26.65 26.4 30.3 22.75 30.3 17.55 30.3 12.4 26.65 8.7 23.0 5.05 17.8 5.05 12.65 5.05 8.95 8.7 5.3 12.4 5.3 17.55 5.3 22.75 8.95 26.4 12.65 30.05 17.8 30.05 Z" fill="none" stroke="#22c1ff" stroke-linecap="butt" stroke-linejoin="miter-clip" stroke-miterlimit="4.0" stroke-width="2.0"/>
    <path d="M9.85 16.45 Q9.85 13.5 12.0 11.45 14.1 9.35 17.1 9.35 20.1 9.35 22.25 11.45 24.35 13.5 24.35 16.45 24.35 19.4 22.25 21.45 20.1 23.55 17.1 23.55 14.1 23.55 12.0 21.45 9.85 19.4 9.85 16.45" fill="url(#gradient0)" fill-rule="evenodd" stroke="none"/>
    <path d="M20.7 15.8 L21.95 19.75 26.15 19.75 22.75 22.2 24.05 26.2 20.7 23.75 17.3 26.2 18.6 22.2 15.25 19.75 19.4 19.75 20.7 15.8" fill="#ffffbd" fill-rule="evenodd" stroke="none"/>
  </g>
  <defs>
    <radialGradient cx="0" cy="0" gradientTransform="matrix(-0.0089, 0.0, 0.0, -0.0087, 17.1, 16.45)" gradientUnits="userSpaceOnUse" id="gradient0" r="819.2" spreadMethod="pad">
      <stop offset="0.0" stop-color="#0094ff"/>
      <stop offset="0.20784313725490197" stop-color="#0090ff"/>
      <stop offset="0.43137254901960786" stop-color="#0083ff"/>
      <stop offset="0.6666666666666666" stop-color="#006dff"/>
      <stop offset="0.9019607843137255" stop-color="#004fff"/>
      <stop offset="1.0" stop-color="#0040ff"/>
    </radialGradient>
  </defs>
</svg>
