<?xml version="1.0" encoding="UTF-8" standalone="no"?>
<svg xmlns:ffdec="https://www.free-decompiler.com/flash" xmlns:xlink="http://www.w3.org/1999/xlink" ffdec:objectType="shape" height="30.75px" width="31.0px" xmlns="http://www.w3.org/2000/svg">
  <g transform="matrix(1.0, 0.0, 0.0, 1.0, 1.0, 0.0)">
    <path d="M26.0 6.45 Q30.3 11.65 30.0 18.35 L12.0 15.7 4.2 2.0 Q9.4 -0.65 14.95 0.2 21.65 1.15 26.0 6.45" fill="#0575d6" fill-rule="evenodd" stroke="none"/>
    <path d="M3.65 26.1 Q0.0 22.45 0.0 17.25 0.0 12.1 3.65 8.4 7.35 4.75 12.5 4.75 17.7 4.75 21.35 8.4 25.0 12.05 25.0 17.25 25.0 22.45 21.35 26.1 17.7 29.75 12.5 29.75 7.35 29.75 3.65 26.1" fill="#03337f" fill-rule="evenodd" stroke="none"/>
    <path d="M3.65 26.1 Q7.35 29.75 12.5 29.75 17.7 29.75 21.35 26.1 25.0 22.45 25.0 17.25 25.0 12.05 21.35 8.4 17.7 4.75 12.5 4.75 7.35 4.75 3.65 8.4 0.0 12.1 0.0 17.25 0.0 22.45 3.65 26.1 Z" fill="none" stroke="#22c1ff" stroke-linecap="butt" stroke-linejoin="miter-clip" stroke-miterlimit="4.0" stroke-width="2.0"/>
    <path d="M8.15 24.15 Q7.9 22.35 9.55 19.35 11.2 16.35 12.55 16.4 11.75 15.85 8.85 17.3 5.95 18.75 5.05 20.1 4.45 18.75 4.45 17.15 4.45 14.85 5.75 12.75 7.6 12.5 10.65 14.05 13.8 15.7 13.75 17.1 14.2 16.25 12.4 13.35 10.65 10.55 9.3 9.65 10.85 9.0 12.45 9.0 14.9 9.0 16.85 10.4 17.15 12.1 15.9 15.15 14.65 18.3 13.45 18.45 14.25 18.7 16.75 16.9 19.15 15.15 19.9 13.95 20.6 15.45 20.6 17.15 20.6 19.65 19.2 21.65 17.55 21.95 14.75 20.55 11.8 19.15 11.75 17.9 11.4 18.7 12.75 21.4 14.15 24.05 15.35 24.9 14.0 25.5 12.45 25.5 10.15 25.5 8.15 24.15" fill="url(#gradient0)" fill-rule="evenodd" stroke="none"/>
  </g>
  <defs>
    <radialGradient cx="0" cy="0" gradientTransform="matrix(0.0098, 0.0, 0.0, -0.0081, 12.5, 17.25)" gradientUnits="userSpaceOnUse" id="gradient0" r="819.2" spreadMethod="pad">
      <stop offset="0.0" stop-color="#c9ffff"/>
      <stop offset="0.1607843137254902" stop-color="#c2f5ff" stop-opacity="0.9372549"/>
      <stop offset="0.43137254901960786" stop-color="#b1daff" stop-opacity="0.7764706"/>
      <stop offset="0.7843137254901961" stop-color="#94adff" stop-opacity="0.5176471"/>
      <stop offset="1.0" stop-color="#808fff" stop-opacity="0.3372549"/>
    </radialGradient>
  </defs>
</svg>
