<?xml version="1.0" encoding="UTF-8" standalone="no"?>
<svg xmlns:ffdec="https://www.free-decompiler.com/flash" xmlns:xlink="http://www.w3.org/1999/xlink" ffdec:objectType="shape" height="28.05px" width="27.55px" xmlns="http://www.w3.org/2000/svg">
  <g transform="matrix(1.0, 0.0, 0.0, 1.0, -0.5, -1.5)">
    <path d="M23.4 5.95 Q27.7 10.25 28.05 16.4 28.35 22.4 24.55 27.15 L12.95 15.55 14.65 1.5 Q19.7 2.25 23.4 5.95" fill="#0575d6" fill-rule="evenodd" stroke="none"/>
    <path d="M4.75 25.25 Q1.5 21.95 1.5 17.3 1.5 12.65 4.75 9.3 8.1 6.05 12.75 6.05 17.4 6.05 20.7 9.3 24.0 12.65 24.0 17.3 24.0 21.95 20.7 25.25 17.4 28.55 12.75 28.55 8.1 28.55 4.75 25.25" fill="#03337f" fill-rule="evenodd" stroke="none"/>
    <path d="M4.75 25.25 Q8.1 28.55 12.75 28.55 17.4 28.55 20.7 25.25 24.0 21.95 24.0 17.3 24.0 12.65 20.7 9.3 17.4 6.05 12.75 6.05 8.1 6.05 4.75 9.3 1.5 12.65 1.5 17.3 1.5 21.95 4.75 25.25 Z" fill="none" stroke="#22c1ff" stroke-linecap="butt" stroke-linejoin="miter-clip" stroke-miterlimit="4.0" stroke-width="2.0"/>
    <path d="M18.15 11.85 L10.55 19.45 9.8 18.7 17.4 11.1 18.15 11.85" fill="#ffffa8" fill-rule="evenodd" stroke="none"/>
    <path d="M7.45 22.75 L6.55 21.85 9.0 19.35 9.9 20.25 7.45 22.75" fill="#ff8300" fill-rule="evenodd" stroke="none"/>
    <path d="M8.6 19.1 L9.2 18.5 10.75 20.05 10.15 20.65 8.6 19.1" fill="#ffcf00" fill-rule="evenodd" stroke="none"/>
    <path d="M8.55 11.1 L16.1 18.7 15.35 19.45 7.8 11.9 8.55 11.1" fill="#ffffa8" fill-rule="evenodd" stroke="none"/>
    <path d="M16.0 20.25 L16.9 19.35 19.4 21.85 18.5 22.75 16.0 20.25" fill="#ff8300" fill-rule="evenodd" stroke="none"/>
    <path d="M15.15 20.05 L16.75 18.5 17.35 19.1 15.75 20.65 15.15 20.05" fill="#ffcf00" fill-rule="evenodd" stroke="none"/>
  </g>
</svg>
