<?xml version="1.0" encoding="UTF-8" standalone="no"?>
<svg xmlns:ffdec="https://www.free-decompiler.com/flash" xmlns:xlink="http://www.w3.org/1999/xlink" ffdec:objectType="shape" height="22.7px" width="56.45px" xmlns="http://www.w3.org/2000/svg">
  <g transform="matrix(1.0, 0.0, 0.0, 1.0, 0.0, -0.2)">
    <path d="M52.45 0.7 L16.4 0.7 Q15.0 0.7 13.55 1.5 12.05 2.3 11.3 3.45 L1.0 19.15 Q0.15 20.4 0.7 21.4 1.25 22.4 2.8 22.4 L52.45 22.4 Q53.9 22.4 54.95 21.4 55.95 20.35 55.95 18.9 L55.95 4.2 Q55.95 2.75 54.95 1.7 53.9 0.7 52.45 0.7" fill="url(#gradient0)" fill-rule="evenodd" stroke="none"/>
    <path d="M56.45 4.2 Q56.45 2.55 55.25 1.4 54.1 0.2 52.45 0.2 L16.4 0.2 Q14.9 0.2 13.3 1.05 11.75 1.9 10.9 3.15 L0.6 18.85 Q-0.4 20.35 0.25 21.65 0.95 22.9 2.8 22.9 L52.45 22.9 Q54.1 22.9 55.25 21.75 56.45 20.6 56.45 18.9 L56.45 4.2 M52.45 1.2 Q53.7 1.2 54.55 2.1 55.45 2.95 55.45 4.2 L55.45 18.9 Q55.45 20.15 54.55 21.0 53.7 21.9 52.45 21.9 L2.8 21.9 Q1.55 21.9 1.15 21.2 0.75 20.45 1.45 19.4 L11.75 3.7 Q12.4 2.65 13.8 1.95 15.15 1.2 16.4 1.2 L52.45 1.2" fill="#0068ff" fill-rule="evenodd" stroke="none"/>
  </g>
  <defs>
    <linearGradient gradientTransform="matrix(0.0, -0.0133, 0.0133, 0.0, 28.25, 11.55)" gradientUnits="userSpaceOnUse" id="gradient0" spreadMethod="pad" x1="-819.2" x2="819.2">
      <stop offset="0.0" stop-color="#05337a"/>
      <stop offset="0.17647058823529413" stop-color="#032970"/>
      <stop offset="0.4627450980392157" stop-color="#012168"/>
      <stop offset="1.0" stop-color="#001f66"/>
    </linearGradient>
  </defs>
</svg>
