<?xml version="1.0" encoding="UTF-8" standalone="no"?>
<svg xmlns:ffdec="https://www.free-decompiler.com/flash" xmlns:xlink="http://www.w3.org/1999/xlink" ffdec:objectType="shape" height="22.7px" width="56.45px" xmlns="http://www.w3.org/2000/svg">
  <g transform="matrix(1.0, 0.0, 0.0, 1.0, 0.0, 0.0)">
    <path d="M52.45 0.5 Q53.9 0.5 54.95 1.5 55.95 2.55 55.95 4.0 L55.95 18.7 Q55.95 20.15 54.95 21.2 53.9 22.2 52.45 22.2 L2.8 22.2 Q1.25 22.2 0.7 21.2 0.15 20.2 1.0 18.95 L11.3 3.25 Q12.05 2.1 13.55 1.3 15.0 0.5 16.4 0.5 L52.45 0.5" fill="url(#gradient0)" fill-rule="evenodd" stroke="none"/>
    <path d="M52.45 1.0 L16.4 1.0 Q15.15 1.0 13.8 1.75 12.4 2.45 11.75 3.5 L1.45 19.2 Q0.75 20.25 1.15 21.0 1.55 21.7 2.8 21.7 L52.45 21.7 Q53.7 21.7 54.55 20.8 55.45 19.95 55.45 18.7 L55.45 4.0 Q55.45 2.75 54.55 1.9 53.7 1.0 52.45 1.0 M56.45 4.0 L56.45 18.7 Q56.45 20.4 55.25 21.55 54.1 22.7 52.45 22.7 L2.8 22.7 Q0.95 22.7 0.25 21.45 -0.4 20.15 0.6 18.65 L10.9 2.95 Q11.75 1.7 13.3 0.85 14.9 0.0 16.4 0.0 L52.45 0.0 Q54.1 0.0 55.25 1.2 56.45 2.35 56.45 4.0" fill="#f19e24" fill-rule="evenodd" stroke="none"/>
    <path d="M23.6 15.6 Q24.4 10.75 32.7 9.95 26.1 13.3 32.25 17.15 35.3 19.1 39.7 20.35 L24.4 20.35 Q23.15 18.05 23.6 15.6" fill="url(#gradient1)" fill-rule="evenodd" stroke="none"/>
    <path d="M23.85 3.75 L39.15 3.75 39.7 5.2 Q40.25 6.95 39.95 8.5 39.15 13.4 30.85 14.2 37.45 10.85 31.3 6.95 29.4 5.75 26.45 4.6 L23.85 3.75" fill="url(#gradient2)" fill-rule="evenodd" stroke="none"/>
  </g>
  <defs>
    <linearGradient gradientTransform="matrix(0.0, 0.0175, 0.0085, 0.0, 78.25, 7.1)" gradientUnits="userSpaceOnUse" id="gradient0" spreadMethod="pad" x1="-819.2" x2="819.2">
      <stop offset="0.0" stop-color="#eb8242"/>
      <stop offset="0.00392156862745098" stop-color="#e87f40"/>
      <stop offset="0.043137254901960784" stop-color="#cb6129"/>
      <stop offset="0.08627450980392157" stop-color="#b34917"/>
      <stop offset="0.13333333333333333" stop-color="#a3380a"/>
      <stop offset="0.1803921568627451" stop-color="#992e02"/>
      <stop offset="0.24313725490196078" stop-color="#962b00"/>
      <stop offset="0.4392156862745098" stop-color="#982e00"/>
      <stop offset="0.592156862745098" stop-color="#9f3800"/>
      <stop offset="0.7333333333333333" stop-color="#ab4901"/>
      <stop offset="0.8666666666666667" stop-color="#bb6002"/>
      <stop offset="0.996078431372549" stop-color="#d07f03"/>
      <stop offset="1.0" stop-color="#d18003"/>
    </linearGradient>
    <linearGradient gradientTransform="matrix(0.0, -0.0063, -0.0063, 0.0, 31.6, 15.15)" gradientUnits="userSpaceOnUse" id="gradient1" spreadMethod="pad" x1="-819.2" x2="819.2">
      <stop offset="0.0" stop-color="#52f500"/>
      <stop offset="1.0" stop-color="#ffff00"/>
    </linearGradient>
    <linearGradient gradientTransform="matrix(0.0, -0.0063, -0.0063, 0.0, 31.95, 9.0)" gradientUnits="userSpaceOnUse" id="gradient2" spreadMethod="pad" x1="-819.2" x2="819.2">
      <stop offset="0.0" stop-color="#ffff00"/>
      <stop offset="1.0" stop-color="#52f500"/>
    </linearGradient>
  </defs>
</svg>
