<?xml version="1.0" encoding="UTF-8" standalone="no"?>
<svg xmlns:ffdec="https://www.free-decompiler.com/flash" xmlns:xlink="http://www.w3.org/1999/xlink" ffdec:objectType="shape" height="22.6px" width="46.3px" xmlns="http://www.w3.org/2000/svg">
  <g transform="matrix(1.0, 0.0, 0.0, 1.0, -0.05, 0.0)">
    <path d="M45.85 4.0 L45.85 18.65 Q45.85 20.1 44.85 21.15 43.8 22.1 42.35 22.1 L4.05 22.1 Q2.6 22.1 1.6 21.15 0.55 20.1 0.55 18.65 L0.55 4.0 Q0.55 2.55 1.6 1.5 2.6 0.5 4.05 0.5 L42.35 0.5 Q43.8 0.5 44.85 1.5 45.85 2.55 45.85 4.0" fill="url(#gradient0)" fill-rule="evenodd" stroke="none"/>
    <path d="M45.35 4.0 Q45.35 2.75 44.45 1.9 43.6 1.0 42.35 1.0 L4.05 1.0 Q2.8 1.0 1.95 1.9 1.05 2.75 1.05 4.0 L1.05 18.65 Q1.05 19.9 1.95 20.75 2.8 21.6 4.05 21.6 L42.35 21.6 Q43.6 21.6 44.45 20.75 45.35 19.9 45.35 18.65 L45.35 4.0 M42.35 0.0 Q44.05 0.0 45.2 1.2 46.35 2.35 46.35 4.0 L46.35 18.65 Q46.35 20.35 45.2 21.45 44.05 22.6 42.35 22.6 L4.05 22.6 Q2.4 22.6 1.25 21.45 0.05 20.35 0.05 18.65 L0.05 4.0 Q0.05 2.35 1.25 1.2 2.4 0.0 4.05 0.0 L42.35 0.0" fill="#0068ff" fill-rule="evenodd" stroke="none"/>
  </g>
  <defs>
    <linearGradient gradientTransform="matrix(0.0, -0.0132, -0.0133, 0.0, 23.2, 11.3)" gradientUnits="userSpaceOnUse" id="gradient0" spreadMethod="pad" x1="-819.2" x2="819.2">
      <stop offset="0.0" stop-color="#05337a"/>
      <stop offset="0.17647058823529413" stop-color="#032970"/>
      <stop offset="0.4627450980392157" stop-color="#012168"/>
      <stop offset="1.0" stop-color="#001f66"/>
    </linearGradient>
  </defs>
</svg>
