<?xml version="1.0" encoding="UTF-8" standalone="no"?>
<svg xmlns:ffdec="https://www.free-decompiler.com/flash" xmlns:xlink="http://www.w3.org/1999/xlink" ffdec:objectType="shape" height="13.5px" width="20.8px" xmlns="http://www.w3.org/2000/svg">
  <g transform="matrix(1.0, 0.0, 0.0, 1.0, -12.8, -4.55)">
    <path d="M14.9 12.05 Q14.7 13.0 14.4 12.9 14.1 12.8 14.25 11.95 14.4 11.1 14.75 11.1 15.1 11.2 14.9 12.05" fill="#ff7c29" fill-rule="evenodd" stroke="none"/>
    <path d="M31.55 12.05 Q31.35 11.2 31.65 11.1 32.0 11.1 32.15 11.95 32.35 12.8 32.0 12.9 31.75 13.0 31.55 12.05" fill="#ff7c29" fill-rule="evenodd" stroke="none"/>
    <path d="M27.75 4.8 L28.15 4.8 26.3 9.75 28.65 9.75 29.55 10.35 32.95 10.35 33.25 11.2 27.25 12.55 27.45 14.45 26.4 14.45 25.55 15.7 24.35 15.7 23.4 16.85 23.4 17.8 23.0 17.8 23.0 16.85 22.1 15.7 20.85 15.7 20.0 14.45 19.0 14.45 19.2 12.55 13.15 11.2 13.5 10.35 16.9 10.35 17.8 9.75 20.1 9.75 18.25 4.8 18.65 4.8 21.4 9.7 22.05 9.25 22.75 9.15 23.2 9.3 23.65 9.15 24.4 9.25 25.05 9.7 27.75 4.8" fill="url(#gradient0)" fill-rule="evenodd" stroke="none"/>
    <path d="M27.75 4.8 L25.05 9.7 24.4 9.25 23.65 9.15 23.2 9.3 22.75 9.15 22.05 9.25 21.4 9.7 18.65 4.8 18.25 4.8 20.1 9.75 17.8 9.75 16.9 10.35 13.5 10.35 13.15 11.2 19.2 12.55 19.0 14.45 20.0 14.45 20.85 15.7 22.1 15.7 23.0 16.85 23.0 17.8 23.4 17.8 23.4 16.85 24.35 15.7 25.55 15.7 26.4 14.45 27.45 14.45 27.25 12.55 33.25 11.2 32.95 10.35 29.55 10.35 28.65 9.75 26.3 9.75 28.15 4.8 27.75 4.8 Z" ffdec:has-small-stroke="true" ffdec:original-stroke-width="0.5" fill="none" stroke="#ff8b29" stroke-linecap="butt" stroke-linejoin="miter-clip" stroke-miterlimit="4.0" stroke-width="1.0"/>
    <path d="M33.25 11.2 L27.25 12.55 26.3 9.75 28.65 9.75 29.55 10.35 32.95 10.35 33.25 11.2" fill="url(#gradient1)" fill-rule="evenodd" stroke="none"/>
    <path d="M33.25 11.2 L32.95 10.35 29.55 10.35 28.65 9.75 26.3 9.75 27.25 12.55 33.25 11.2 Z" ffdec:has-small-stroke="true" ffdec:original-stroke-width="0.5" fill="none" stroke="#ff8b29" stroke-linecap="butt" stroke-linejoin="miter-clip" stroke-miterlimit="4.0" stroke-width="1.0"/>
    <path d="M20.1 9.75 L19.2 12.55 13.15 11.2 13.5 10.35 16.9 10.35 17.8 9.75 20.1 9.75" fill="url(#gradient2)" fill-rule="evenodd" stroke="none"/>
    <path d="M20.1 9.75 L17.8 9.75 16.9 10.35 13.5 10.35 13.15 11.2 19.2 12.55 20.1 9.75 Z" ffdec:has-small-stroke="true" ffdec:original-stroke-width="0.5" fill="none" stroke="#ff8b29" stroke-linecap="butt" stroke-linejoin="miter-clip" stroke-miterlimit="4.0" stroke-width="1.0"/>
    <path d="M24.4 15.45 L25.15 13.7 26.55 13.75 26.85 13.8 26.9 14.2 26.2 14.2 25.45 15.45 24.4 15.45" fill="#ce2c04" fill-rule="evenodd" stroke="none"/>
    <path d="M22.0 15.45 L20.95 15.45 20.2 14.2 19.5 14.2 19.55 13.8 19.9 13.75 21.25 13.7 22.0 15.45" fill="#ce2c04" fill-rule="evenodd" stroke="none"/>
    <path d="M24.35 12.8 Q24.35 13.35 24.05 13.35 L23.25 13.25 22.5 13.35 Q22.15 13.35 22.15 12.8 22.15 12.15 22.5 11.65 22.8 11.2 23.25 11.2 23.7 11.2 24.05 11.65 L24.35 12.8" fill="#ffc75c" fill-rule="evenodd" stroke="none"/>
    <path d="M22.8 11.9 L22.6 12.15 22.65 11.7 Q22.85 11.35 23.0 11.5 L22.8 11.9" fill="#ffe829" fill-rule="evenodd" stroke="none"/>
  </g>
  <defs>
    <linearGradient gradientTransform="matrix(0.0, -0.0079, -0.0079, 0.0, 23.2, 11.3)" gradientUnits="userSpaceOnUse" id="gradient0" spreadMethod="pad" x1="-819.2" x2="819.2">
      <stop offset="0.0" stop-color="#ffba29"/>
      <stop offset="0.19607843137254902" stop-color="#ffb027"/>
      <stop offset="0.5333333333333333" stop-color="#ff9320"/>
      <stop offset="0.9725490196078431" stop-color="#ff6616"/>
      <stop offset="1.0" stop-color="#ff6315"/>
    </linearGradient>
    <linearGradient gradientTransform="matrix(2.0E-4, -0.0018, -0.0018, -2.0E-4, 29.7, 11.3)" gradientUnits="userSpaceOnUse" id="gradient1" spreadMethod="pad" x1="-819.2" x2="819.2">
      <stop offset="0.0" stop-color="#ff9629"/>
      <stop offset="0.29411764705882354" stop-color="#ff8c25"/>
      <stop offset="0.803921568627451" stop-color="#ff701a"/>
      <stop offset="1.0" stop-color="#ff6315"/>
    </linearGradient>
    <linearGradient gradientTransform="matrix(2.0E-4, -0.0018, -0.0018, -2.0E-4, 16.6, 10.9)" gradientUnits="userSpaceOnUse" id="gradient2" spreadMethod="pad" x1="-819.2" x2="819.2">
      <stop offset="0.0" stop-color="#ff9629"/>
      <stop offset="0.29411764705882354" stop-color="#ff8c25"/>
      <stop offset="0.803921568627451" stop-color="#ff701a"/>
      <stop offset="1.0" stop-color="#ff6315"/>
    </linearGradient>
  </defs>
</svg>
