<?xml version="1.0" encoding="UTF-8" standalone="no"?>
<svg xmlns:ffdec="https://www.free-decompiler.com/flash" xmlns:xlink="http://www.w3.org/1999/xlink" ffdec:objectType="shape" height="22.7px" width="46.3px" xmlns="http://www.w3.org/2000/svg">
  <g transform="matrix(1.0, 0.0, 0.0, 1.0, 0.0, 0.0)">
    <path d="M44.8 1.5 Q45.8 2.55 45.8 4.0 L45.8 18.7 Q45.8 20.15 44.8 21.2 43.75 22.2 42.3 22.2 L4.0 22.2 Q2.55 22.2 1.55 21.2 0.5 20.15 0.5 18.7 L0.5 4.0 Q0.5 2.55 1.55 1.5 2.55 0.5 4.0 0.5 L42.3 0.5 Q43.75 0.5 44.8 1.5" fill="url(#gradient0)" fill-rule="evenodd" stroke="none"/>
    <path d="M42.3 0.0 Q44.0 0.0 45.15 1.2 46.3 2.35 46.3 4.0 L46.3 18.7 Q46.3 20.4 45.15 21.55 44.0 22.7 42.3 22.7 L4.0 22.7 Q2.35 22.7 1.2 21.55 0.0 20.4 0.0 18.7 L0.0 4.0 Q0.0 2.35 1.2 1.2 2.35 0.0 4.0 0.0 L42.3 0.0 M45.3 4.0 Q45.3 2.75 44.4 1.9 43.55 1.0 42.3 1.0 L4.0 1.0 Q2.75 1.0 1.9 1.9 1.0 2.75 1.0 4.0 L1.0 18.7 Q1.0 19.95 1.9 20.8 2.75 21.7 4.0 21.7 L42.3 21.7 Q43.55 21.7 44.4 20.8 45.3 19.95 45.3 18.7 L45.3 4.0" fill="#399cff" fill-rule="evenodd" stroke="none"/>
  </g>
  <defs>
    <linearGradient gradientTransform="matrix(0.0, -0.0133, 0.0133, 0.0, 28.25, 11.35)" gradientUnits="userSpaceOnUse" id="gradient0" spreadMethod="pad" x1="-819.2" x2="819.2">
      <stop offset="0.0" stop-color="#004bc2"/>
      <stop offset="0.7647058823529411" stop-color="#003498"/>
      <stop offset="1.0" stop-color="#0057d9"/>
    </linearGradient>
  </defs>
</svg>
