<?xml version="1.0" encoding="UTF-8" standalone="no"?>
<svg xmlns:ffdec="https://www.free-decompiler.com/flash" xmlns:xlink="http://www.w3.org/1999/xlink" ffdec:objectType="shape" height="20.45px" width="41.65px" xmlns="http://www.w3.org/2000/svg">
  <g transform="matrix(1.0, 0.0, 0.0, 1.0, -2.3, -1.15)">
    <path d="M42.6 2.5 Q43.5 3.45 43.5 4.75 L43.5 18.0 Q43.5 19.3 42.6 20.25 41.65 21.15 40.35 21.15 L5.9 21.15 Q4.6 21.15 3.7 20.25 2.75 19.3 2.75 18.0 L2.75 4.75 Q2.75 3.45 3.7 2.5 4.6 1.6 5.9 1.6 L40.35 1.6 Q41.65 1.6 42.6 2.5" fill="url(#gradient0)" fill-rule="evenodd" stroke="none"/>
    <path d="M43.05 4.75 Q43.05 3.6 42.25 2.85 41.5 2.05 40.35 2.05 L5.9 2.05 Q4.75 2.05 4.0 2.85 3.2 3.6 3.2 4.75 L3.2 18.0 Q3.2 19.1 4.0 19.85 4.75 20.7 5.9 20.7 L40.35 20.7 Q41.5 20.7 42.25 19.85 43.05 19.1 43.05 18.0 L43.05 4.75 M40.35 1.15 Q41.9 1.15 42.95 2.25 43.95 3.25 43.95 4.75 L43.95 18.0 Q43.95 19.5 42.95 20.55 41.9 21.6 40.35 21.6 L5.9 21.6 Q4.4 21.6 3.4 20.55 2.3 19.5 2.3 18.0 L2.3 4.75 Q2.3 3.25 3.4 2.25 4.4 1.15 5.9 1.15 L40.35 1.15" fill="#399cff" fill-rule="evenodd" stroke="none"/>
    <path d="M15.7 12.0 Q15.5 12.85 15.25 12.75 14.95 12.65 15.1 11.9 15.25 11.15 15.55 11.15 15.85 11.2 15.7 12.0" fill="#ff7c29" fill-rule="evenodd" stroke="none"/>
    <path d="M30.7 12.0 Q30.5 11.2 30.75 11.15 31.1 11.15 31.2 11.9 31.4 12.65 31.1 12.75 30.85 12.85 30.7 12.0" fill="#ff7c29" fill-rule="evenodd" stroke="none"/>
    <path d="M27.25 5.45 L27.6 5.45 25.95 9.9 28.05 9.9 28.9 10.45 31.95 10.45 32.2 11.2 26.8 12.45 27.0 14.15 26.05 14.15 25.3 15.25 24.2 15.25 23.35 16.3 23.35 17.15 23.0 17.15 23.0 16.3 22.15 15.25 21.05 15.25 20.3 14.15 19.4 14.15 19.55 12.45 14.1 11.2 14.45 10.45 17.5 10.45 18.3 9.9 20.35 9.9 18.7 5.45 19.05 5.45 21.55 9.85 22.15 9.45 22.75 9.4 23.15 9.5 23.55 9.4 24.25 9.45 24.85 9.85 27.25 5.45" fill="url(#gradient1)" fill-rule="evenodd" stroke="none"/>
    <path d="M27.25 5.45 L24.85 9.85 24.25 9.45 23.55 9.4 23.15 9.5 22.75 9.4 22.15 9.45 21.55 9.85 19.05 5.45 18.7 5.45 20.35 9.9 18.3 9.9 17.5 10.45 14.45 10.45 14.1 11.2 19.55 12.45 19.4 14.15 20.3 14.15 21.05 15.25 22.15 15.25 23.0 16.3 23.0 17.15 23.35 17.15 23.35 16.3 24.2 15.25 25.3 15.25 26.05 14.15 27.0 14.15 26.8 12.45 32.2 11.2 31.95 10.45 28.9 10.45 28.05 9.9 25.95 9.9 27.6 5.45 27.25 5.45 Z" ffdec:has-small-stroke="true" ffdec:original-stroke-width="0.5" fill="none" stroke="#ff8b29" stroke-linecap="butt" stroke-linejoin="miter-clip" stroke-miterlimit="4.0" stroke-width="1.0"/>
    <path d="M32.2 11.2 L26.8 12.45 25.95 9.9 28.05 9.9 28.9 10.45 31.95 10.45 32.2 11.2" fill="url(#gradient2)" fill-rule="evenodd" stroke="none"/>
    <path d="M32.2 11.2 L31.95 10.45 28.9 10.45 28.05 9.9 25.95 9.9 26.8 12.45 32.2 11.2 Z" ffdec:has-small-stroke="true" ffdec:original-stroke-width="0.5" fill="none" stroke="#ff8b29" stroke-linecap="butt" stroke-linejoin="miter-clip" stroke-miterlimit="4.0" stroke-width="1.0"/>
    <path d="M20.35 9.9 L19.55 12.45 14.1 11.2 14.45 10.45 17.5 10.45 18.3 9.9 20.35 9.9" fill="url(#gradient3)" fill-rule="evenodd" stroke="none"/>
    <path d="M20.35 9.9 L18.3 9.9 17.5 10.45 14.45 10.45 14.1 11.2 19.55 12.45 20.35 9.9 Z" ffdec:has-small-stroke="true" ffdec:original-stroke-width="0.5" fill="none" stroke="#ff8b29" stroke-linecap="butt" stroke-linejoin="miter-clip" stroke-miterlimit="4.0" stroke-width="1.0"/>
    <path d="M24.25 15.05 L24.9 13.45 26.2 13.5 26.45 13.55 26.5 13.9 25.85 13.9 25.2 15.05 24.25 15.05" fill="#ce2c04" fill-rule="evenodd" stroke="none"/>
    <path d="M22.1 15.05 L21.15 15.05 20.45 13.9 19.85 13.9 19.9 13.55 20.2 13.5 21.4 13.45 22.1 15.05" fill="#ce2c04" fill-rule="evenodd" stroke="none"/>
    <path d="M24.2 12.65 L23.95 13.15 23.2 13.05 22.55 13.15 Q22.2 13.15 22.2 12.65 22.2 12.1 22.55 11.65 22.8 11.2 23.2 11.2 23.6 11.2 23.95 11.65 L24.2 12.65" fill="#ffc75c" fill-rule="evenodd" stroke="none"/>
    <path d="M22.8 11.85 L22.6 12.1 22.65 11.65 Q22.85 11.35 23.0 11.5 L22.8 11.85" fill="#ffe829" fill-rule="evenodd" stroke="none"/>
  </g>
  <defs>
    <linearGradient gradientTransform="matrix(0.0, -0.0119, 0.0119, 0.0, 27.7, 11.35)" gradientUnits="userSpaceOnUse" id="gradient0" spreadMethod="pad" x1="-819.2" x2="819.2">
      <stop offset="0.0" stop-color="#004bc2"/>
      <stop offset="0.7647058823529411" stop-color="#003498"/>
      <stop offset="1.0" stop-color="#0057d9"/>
    </linearGradient>
    <linearGradient gradientTransform="matrix(0.0, -0.0071, -0.0071, 0.0, 23.15, 11.3)" gradientUnits="userSpaceOnUse" id="gradient1" spreadMethod="pad" x1="-819.2" x2="819.2">
      <stop offset="0.0" stop-color="#ffba29"/>
      <stop offset="0.19607843137254902" stop-color="#ffb027"/>
      <stop offset="0.5333333333333333" stop-color="#ff9320"/>
      <stop offset="0.9725490196078431" stop-color="#ff6616"/>
      <stop offset="1.0" stop-color="#ff6315"/>
    </linearGradient>
    <linearGradient gradientTransform="matrix(1.0E-4, -0.0016, -0.0016, -1.0E-4, 29.0, 11.3)" gradientUnits="userSpaceOnUse" id="gradient2" spreadMethod="pad" x1="-819.2" x2="819.2">
      <stop offset="0.0" stop-color="#ff9629"/>
      <stop offset="0.29411764705882354" stop-color="#ff8c25"/>
      <stop offset="0.803921568627451" stop-color="#ff701a"/>
      <stop offset="1.0" stop-color="#ff6315"/>
    </linearGradient>
    <linearGradient gradientTransform="matrix(1.0E-4, -0.0016, -0.0016, -1.0E-4, 17.2, 10.95)" gradientUnits="userSpaceOnUse" id="gradient3" spreadMethod="pad" x1="-819.2" x2="819.2">
      <stop offset="0.0" stop-color="#ff9629"/>
      <stop offset="0.29411764705882354" stop-color="#ff8c25"/>
      <stop offset="0.803921568627451" stop-color="#ff701a"/>
      <stop offset="1.0" stop-color="#ff6315"/>
    </linearGradient>
  </defs>
</svg>
