<?xml version="1.0" encoding="UTF-8" standalone="no"?>
<svg xmlns:ffdec="https://www.free-decompiler.com/flash" xmlns:xlink="http://www.w3.org/1999/xlink" ffdec:objectType="shape" height="17.3px" width="23.7px" xmlns="http://www.w3.org/2000/svg">
  <g transform="matrix(1.0, 0.0, 0.0, 1.0, 0.0, 0.0)">
    <path d="M2.0 0.0 L21.7 0.0 Q22.55 0.0 23.1 0.6 23.7 1.2 23.7 2.0 L23.7 15.3 Q23.7 16.15 23.1 16.7 22.55 17.3 21.7 17.3 L2.0 17.3 Q1.2 17.3 0.6 16.7 0.0 16.15 0.0 15.3 L0.0 2.0 Q0.0 1.2 0.6 0.6 1.2 0.0 2.0 0.0" fill="url(#gradient0)" fill-rule="evenodd" stroke="none"/>
    <path d="M13.75 2.2 Q15.4 2.2 16.55 3.4 17.7 4.55 17.7 6.2 17.7 7.85 16.55 9.0 15.4 10.15 13.75 10.15 12.45 10.15 11.45 9.45 L9.3 12.0 Q7.65 13.9 7.25 14.0 6.75 14.1 6.2 13.45 5.7 12.85 5.65 12.25 5.55 11.55 10.45 8.45 9.75 7.45 9.75 6.2 9.75 4.55 10.95 3.4 12.1 2.2 13.75 2.2 M16.25 6.2 Q16.25 5.15 15.5 4.45 14.75 3.7 13.75 3.7 12.7 3.7 12.0 4.45 11.25 5.15 11.25 6.2 11.25 7.2 12.0 7.95 12.7 8.65 13.75 8.65 14.75 8.65 15.5 7.95 16.25 7.2 16.25 6.2" fill="#cffff9" fill-rule="evenodd" stroke="none"/>
  </g>
  <defs>
    <linearGradient gradientTransform="matrix(0.0145, 0.0, 0.0, -0.0145, 11.85, 8.65)" gradientUnits="userSpaceOnUse" id="gradient0" spreadMethod="pad" x1="-819.2" x2="819.2">
      <stop offset="0.0" stop-color="#1170f5"/>
      <stop offset="0.33725490196078434" stop-color="#17b1fc"/>
      <stop offset="0.5058823529411764" stop-color="#19ccff"/>
      <stop offset="0.6" stop-color="#18c1fe"/>
      <stop offset="0.7607843137254902" stop-color="#16a5fb"/>
      <stop offset="0.9686274509803922" stop-color="#1277f6"/>
      <stop offset="1.0" stop-color="#1170f5"/>
    </linearGradient>
  </defs>
</svg>
