<?xml version="1.0" encoding="UTF-8" standalone="no"?>
<svg xmlns:ffdec="https://www.free-decompiler.com/flash" xmlns:xlink="http://www.w3.org/1999/xlink" ffdec:objectType="shape" height="17.5px" width="20.85px" xmlns="http://www.w3.org/2000/svg">
  <g transform="matrix(1.0, 0.0, 0.0, 1.0, -12.75, -2.7)">
    <path d="M20.45 5.1 L22.85 5.1 22.85 2.7 23.95 2.7 23.95 5.1 26.35 5.1 26.35 6.2 23.95 6.2 23.95 8.55 22.85 8.55 22.85 6.2 20.45 6.2 20.45 5.1" fill="#97ff1f" fill-rule="evenodd" stroke="none"/>
    <path d="M14.85 14.25 Q14.65 15.15 14.4 15.05 14.1 14.95 14.25 14.1 14.4 13.25 14.75 13.25 15.05 13.35 14.85 14.25" fill="#00e529" fill-rule="evenodd" stroke="none"/>
    <path d="M31.5 14.25 Q31.3 13.35 31.65 13.25 32.0 13.25 32.15 14.1 32.35 14.95 32.0 15.05 31.7 15.15 31.5 14.25" fill="#00e529" fill-rule="evenodd" stroke="none"/>
    <path d="M28.6 11.9 L29.5 12.5 32.9 12.5 33.25 13.35 27.2 14.75 27.4 16.6 26.4 16.6 25.55 17.85 24.3 17.85 23.4 19.0 23.4 19.95 23.0 19.95 23.0 19.0 22.05 17.85 20.85 17.85 20.0 16.6 18.95 16.6 19.15 14.75 13.15 13.35 13.45 12.5 16.85 12.5 17.75 11.9 20.1 11.9 18.25 6.95 18.65 6.95 21.35 11.85 22.0 11.4 22.75 11.35 23.2 11.45 23.65 11.35 24.35 11.4 25.0 11.85 27.75 6.95 28.15 6.95 26.3 11.9 28.6 11.9" fill="url(#gradient0)" fill-rule="evenodd" stroke="none"/>
    <path d="M28.6 11.9 L26.3 11.9 28.15 6.95 27.75 6.95 25.0 11.85 24.35 11.4 23.65 11.35 23.2 11.45 22.75 11.35 22.0 11.4 21.35 11.85 18.65 6.95 18.25 6.95 20.1 11.9 17.75 11.9 16.85 12.5 13.45 12.5 13.15 13.35 19.15 14.75 18.95 16.6 20.0 16.6 20.85 17.85 22.05 17.85 23.0 19.0 23.0 19.95 23.4 19.95 23.4 19.0 24.3 17.85 25.55 17.85 26.4 16.6 27.4 16.6 27.2 14.75 33.25 13.35 32.9 12.5 29.5 12.5 28.6 11.9 Z" ffdec:has-small-stroke="true" ffdec:original-stroke-width="0.5" fill="none" stroke="#00f429" stroke-linecap="butt" stroke-linejoin="miter-clip" stroke-miterlimit="4.0" stroke-width="1.0"/>
    <path d="M28.6 11.9 L29.5 12.5 32.9 12.5 33.25 13.35 27.2 14.75 26.3 11.9 28.6 11.9" fill="url(#gradient1)" fill-rule="evenodd" stroke="none"/>
    <path d="M28.6 11.9 L26.3 11.9 27.2 14.75 33.25 13.35 32.9 12.5 29.5 12.5 28.6 11.9 Z" ffdec:has-small-stroke="true" ffdec:original-stroke-width="0.5" fill="none" stroke="#00f429" stroke-linecap="butt" stroke-linejoin="miter-clip" stroke-miterlimit="4.0" stroke-width="1.0"/>
    <path d="M20.1 11.9 L19.15 14.75 13.15 13.35 13.45 12.5 16.85 12.5 17.75 11.9 20.1 11.9" fill="url(#gradient2)" fill-rule="evenodd" stroke="none"/>
    <path d="M20.1 11.9 L17.75 11.9 16.85 12.5 13.45 12.5 13.15 13.35 19.15 14.75 20.1 11.9 Z" ffdec:has-small-stroke="true" ffdec:original-stroke-width="0.5" fill="none" stroke="#00f429" stroke-linecap="butt" stroke-linejoin="miter-clip" stroke-miterlimit="4.0" stroke-width="1.0"/>
    <path d="M24.35 17.6 L25.15 15.85 26.5 15.9 26.85 16.0 26.9 16.35 26.15 16.35 25.4 17.6 24.35 17.6" fill="#057505" fill-rule="evenodd" stroke="none"/>
    <path d="M22.0 17.6 L20.95 17.6 20.2 16.35 19.5 16.35 19.5 16.0 19.85 15.9 21.25 15.85 22.0 17.6" fill="#057505" fill-rule="evenodd" stroke="none"/>
    <path d="M24.35 14.95 Q24.35 15.5 24.05 15.5 L23.25 15.4 22.5 15.5 Q22.15 15.5 22.15 14.95 22.15 14.3 22.5 13.85 22.8 13.35 23.25 13.35 23.7 13.35 24.05 13.85 L24.35 14.95" fill="#70ff5c" fill-rule="evenodd" stroke="none"/>
    <path d="M22.8 14.05 L22.6 14.3 Q22.4 14.2 22.65 13.85 22.85 13.55 23.0 13.65 L22.8 14.05" fill="#17ff29" fill-rule="evenodd" stroke="none"/>
  </g>
  <defs>
    <linearGradient gradientTransform="matrix(0.0, -0.0079, -0.0079, 0.0, 23.2, 13.45)" gradientUnits="userSpaceOnUse" id="gradient0" spreadMethod="pad" x1="-819.2" x2="819.2">
      <stop offset="0.0" stop-color="#54ff29"/>
      <stop offset="0.18823529411764706" stop-color="#4af527"/>
      <stop offset="0.5137254901960784" stop-color="#31d821"/>
      <stop offset="0.9333333333333333" stop-color="#07ab17"/>
      <stop offset="1.0" stop-color="#00a315"/>
    </linearGradient>
    <linearGradient gradientTransform="matrix(2.0E-4, -0.0018, -0.0018, -2.0E-4, 29.7, 13.45)" gradientUnits="userSpaceOnUse" id="gradient1" spreadMethod="pad" x1="-819.2" x2="819.2">
      <stop offset="0.0" stop-color="#8fff29"/>
      <stop offset="0.13333333333333333" stop-color="#85fb28"/>
      <stop offset="0.36470588235294116" stop-color="#68f124"/>
      <stop offset="0.6666666666666666" stop-color="#3be11d"/>
      <stop offset="1.0" stop-color="#00cc15"/>
    </linearGradient>
    <linearGradient gradientTransform="matrix(2.0E-4, -0.0018, -0.0018, -2.0E-4, 16.6, 13.05)" gradientUnits="userSpaceOnUse" id="gradient2" spreadMethod="pad" x1="-819.2" x2="819.2">
      <stop offset="0.0" stop-color="#8fff29"/>
      <stop offset="0.13333333333333333" stop-color="#85fb28"/>
      <stop offset="0.36470588235294116" stop-color="#68f124"/>
      <stop offset="0.6666666666666666" stop-color="#3be11d"/>
      <stop offset="1.0" stop-color="#00cc15"/>
    </linearGradient>
  </defs>
</svg>
