<?xml version="1.0" encoding="UTF-8" standalone="no"?>
<svg xmlns:ffdec="https://www.free-decompiler.com/flash" xmlns:xlink="http://www.w3.org/1999/xlink" ffdec:objectType="shape" height="20.45px" width="41.65px" xmlns="http://www.w3.org/2000/svg">
  <g transform="matrix(1.0, 0.0, 0.0, 1.0, -2.3, -1.15)">
    <path d="M42.6 2.5 Q43.5 3.45 43.5 4.75 L43.5 18.0 Q43.5 19.3 42.6 20.25 41.65 21.15 40.35 21.15 L5.9 21.15 Q4.6 21.15 3.7 20.25 2.75 19.3 2.75 18.0 L2.75 4.75 Q2.75 3.45 3.7 2.5 4.6 1.6 5.9 1.6 L40.35 1.6 Q41.65 1.6 42.6 2.5" fill="url(#gradient0)" fill-rule="evenodd" stroke="none"/>
    <path d="M43.05 4.75 Q43.05 3.6 42.25 2.85 41.5 2.05 40.35 2.05 L5.9 2.05 Q4.75 2.05 4.0 2.85 3.2 3.6 3.2 4.75 L3.2 18.0 Q3.2 19.1 4.0 19.85 4.75 20.7 5.9 20.7 L40.35 20.7 Q41.5 20.7 42.25 19.85 43.05 19.1 43.05 18.0 L43.05 4.75 M40.35 1.15 Q41.9 1.15 42.95 2.25 43.95 3.25 43.95 4.75 L43.95 18.0 Q43.95 19.5 42.95 20.55 41.9 21.6 40.35 21.6 L5.9 21.6 Q4.4 21.6 3.4 20.55 2.3 19.5 2.3 18.0 L2.3 4.75 Q2.3 3.25 3.4 2.25 4.4 1.15 5.9 1.15 L40.35 1.15" fill="#399cff" fill-rule="evenodd" stroke="none"/>
  </g>
  <defs>
    <linearGradient gradientTransform="matrix(0.0, -0.0119, 0.0119, 0.0, 27.7, 11.35)" gradientUnits="userSpaceOnUse" id="gradient0" spreadMethod="pad" x1="-819.2" x2="819.2">
      <stop offset="0.0" stop-color="#004bc2"/>
      <stop offset="0.7647058823529411" stop-color="#003498"/>
      <stop offset="1.0" stop-color="#0057d9"/>
    </linearGradient>
  </defs>
</svg>
