<?xml version="1.0" encoding="UTF-8" standalone="no"?>
<svg xmlns:ffdec="https://www.free-decompiler.com/flash" xmlns:xlink="http://www.w3.org/1999/xlink" ffdec:objectType="shape" height="22.7px" width="56.45px" xmlns="http://www.w3.org/2000/svg">
  <g transform="matrix(1.0, 0.0, 0.0, 1.0, 0.05, 0.0)">
    <path d="M3.95 0.5 Q2.5 0.5 1.45 1.5 0.45 2.55 0.45 4.0 L0.45 18.7 Q0.45 20.15 1.45 21.2 2.5 22.2 3.95 22.2 L53.6 22.2 Q55.15 22.2 55.7 21.2 56.25 20.2 55.4 18.95 L45.1 3.25 Q44.35 2.1 42.85 1.3 41.4 0.5 40.0 0.5 L3.95 0.5" fill="url(#gradient0)" fill-rule="evenodd" stroke="none"/>
    <path d="M3.95 1.0 L40.0 1.0 Q41.25 1.0 42.6 1.75 44.0 2.45 44.65 3.5 L54.95 19.2 Q55.65 20.25 55.25 21.0 54.85 21.7 53.6 21.7 L3.95 21.7 Q2.7 21.7 1.85 20.8 0.95 19.95 0.95 18.7 L0.95 4.0 Q0.95 2.75 1.85 1.9 2.7 1.0 3.95 1.0 M-0.05 4.0 L-0.05 18.7 Q-0.05 20.4 1.15 21.55 2.3 22.7 3.95 22.7 L53.6 22.7 Q55.45 22.7 56.15 21.45 56.8 20.15 55.8 18.65 L45.5 2.95 Q44.65 1.7 43.1 0.85 41.5 0.0 40.0 0.0 L3.95 0.0 Q2.3 0.0 1.15 1.2 -0.05 2.35 -0.05 4.0" fill="#399cff" fill-rule="evenodd" stroke="none"/>
  </g>
  <defs>
    <linearGradient gradientTransform="matrix(0.0, -0.0133, -0.0133, 0.0, 28.15, 11.35)" gradientUnits="userSpaceOnUse" id="gradient0" spreadMethod="pad" x1="-819.2" x2="819.2">
      <stop offset="0.0" stop-color="#004bc2"/>
      <stop offset="0.7647058823529411" stop-color="#003498"/>
      <stop offset="1.0" stop-color="#0057d9"/>
    </linearGradient>
  </defs>
</svg>
