<?xml version="1.0" encoding="UTF-8" standalone="no"?>
<svg xmlns:ffdec="https://www.free-decompiler.com/flash" xmlns:xlink="http://www.w3.org/1999/xlink" ffdec:objectType="shape" height="22.7px" width="56.45px" xmlns="http://www.w3.org/2000/svg">
  <g transform="matrix(1.0, 0.0, 0.0, 1.0, 0.05, 0.0)">
    <path d="M3.95 0.5 Q2.5 0.5 1.45 1.5 0.45 2.55 0.45 4.0 L0.45 18.7 Q0.45 20.15 1.45 21.2 2.5 22.2 3.95 22.2 L53.6 22.2 Q55.15 22.2 55.7 21.2 56.25 20.2 55.4 18.95 L45.1 3.25 Q44.35 2.1 42.85 1.3 41.4 0.5 40.0 0.5 L3.95 0.5" fill="url(#gradient0)" fill-rule="evenodd" stroke="none"/>
    <path d="M-0.05 4.0 L-0.05 18.7 Q-0.05 20.4 1.15 21.55 2.3 22.7 3.95 22.7 L53.6 22.7 Q55.45 22.7 56.15 21.45 56.8 20.15 55.8 18.65 L45.5 2.95 Q44.65 1.7 43.1 0.85 41.5 0.0 40.0 0.0 L3.95 0.0 Q2.3 0.0 1.15 1.2 -0.05 2.35 -0.05 4.0 M3.95 1.0 L40.0 1.0 Q41.25 1.0 42.6 1.75 44.0 2.45 44.65 3.5 L54.95 19.2 Q55.65 20.25 55.25 21.0 54.85 21.7 53.6 21.7 L3.95 21.7 Q2.7 21.7 1.85 20.8 0.95 19.95 0.95 18.7 L0.95 4.0 Q0.95 2.75 1.85 1.9 2.7 1.0 3.95 1.0" fill="#f19e24" fill-rule="evenodd" stroke="none"/>
    <path d="M26.45 5.2 L29.55 6.15 33.45 5.9 Q33.8 7.1 33.8 9.7 33.8 15.55 26.45 20.3 19.1 15.55 19.1 9.7 19.1 7.3 19.45 5.9 L23.35 6.15 26.45 5.2" fill="url(#gradient1)" fill-rule="evenodd" stroke="none"/>
    <path d="M21.45 10.35 Q21.45 8.55 21.6 7.7 L22.75 7.75 Q24.55 7.9 26.45 6.85 26.95 7.15 27.95 7.45 L30.15 7.75 31.25 7.7 31.45 10.35 Q31.45 14.95 26.45 18.65 21.45 14.95 21.45 10.35" fill="#0f51d6" fill-rule="evenodd" stroke="none"/>
    <path d="M22.5 8.65 L23.4 8.65 Q24.65 8.75 26.45 7.95 28.1 8.75 29.45 8.65 L30.4 8.65 30.5 10.8 Q30.5 14.55 26.45 17.55 22.35 14.55 22.35 10.8 22.35 9.3 22.5 8.65" fill="#4bdfff" fill-rule="evenodd" stroke="none"/>
    <path d="M23.0 9.15 L23.8 9.15 Q24.65 9.25 26.45 8.55 28.25 9.25 29.1 9.15 L29.95 9.15 30.05 11.05 Q30.05 13.55 26.45 13.55 22.85 13.55 22.85 11.05 22.85 9.75 23.0 9.15" fill="url(#gradient2)" fill-rule="evenodd" stroke="none"/>
  </g>
  <defs>
    <linearGradient gradientTransform="matrix(0.0, 0.0175, -0.0085, 0.0, -21.85, 7.1)" gradientUnits="userSpaceOnUse" id="gradient0" spreadMethod="pad" x1="-819.2" x2="819.2">
      <stop offset="0.0" stop-color="#eb8242"/>
      <stop offset="0.00392156862745098" stop-color="#e87f40"/>
      <stop offset="0.043137254901960784" stop-color="#cb6129"/>
      <stop offset="0.08627450980392157" stop-color="#b34917"/>
      <stop offset="0.13333333333333333" stop-color="#a3380a"/>
      <stop offset="0.1803921568627451" stop-color="#992e02"/>
      <stop offset="0.24313725490196078" stop-color="#962b00"/>
      <stop offset="0.4392156862745098" stop-color="#982e00"/>
      <stop offset="0.592156862745098" stop-color="#9f3800"/>
      <stop offset="0.7333333333333333" stop-color="#ab4901"/>
      <stop offset="0.8666666666666667" stop-color="#bb6002"/>
      <stop offset="0.996078431372549" stop-color="#d07f03"/>
      <stop offset="1.0" stop-color="#d18003"/>
    </linearGradient>
    <linearGradient gradientTransform="matrix(0.0, -0.0092, -0.0092, 0.0, 26.45, 12.75)" gradientUnits="userSpaceOnUse" id="gradient1" spreadMethod="pad" x1="-819.2" x2="819.2">
      <stop offset="0.0" stop-color="#1269ff"/>
      <stop offset="1.0" stop-color="#5cc4ff"/>
    </linearGradient>
    <linearGradient gradientTransform="matrix(0.0, -0.003, -0.003, 0.0, 26.45, 11.05)" gradientUnits="userSpaceOnUse" id="gradient2" spreadMethod="pad" x1="-819.2" x2="819.2">
      <stop offset="0.0" stop-color="#86ffff"/>
      <stop offset="1.0" stop-color="#86ffff"/>
    </linearGradient>
  </defs>
</svg>
