<?xml version="1.0" encoding="UTF-8" standalone="no"?>
<svg xmlns:ffdec="https://www.free-decompiler.com/flash" xmlns:xlink="http://www.w3.org/1999/xlink" ffdec:objectType="shape" height="47.95px" width="212.9px" xmlns="http://www.w3.org/2000/svg">
  <g transform="matrix(1.0, 0.0, 0.0, 1.0, 0.0, -16.45)">
    <path d="M212.4 20.45 L212.4 60.4 Q212.4 61.85 211.4 62.85 210.35 63.9 208.9 63.9 L5.45 63.9 Q4.0 63.9 2.95 62.85 1.95 61.85 1.95 60.4 L1.95 20.45 Q1.95 19.0 2.95 18.0 4.0 16.95 5.45 16.95 L208.9 16.95 Q210.35 16.95 211.4 18.0 212.4 19.0 212.4 20.45" fill="url(#gradient0)" fill-rule="evenodd" stroke="none"/>
    <path d="M211.9 20.45 Q211.9 19.2 211.0 18.35 210.15 17.45 208.9 17.45 L5.45 17.45 Q4.2 17.45 3.35 18.35 2.45 19.2 2.45 20.45 L2.45 60.4 Q2.45 61.65 3.35 62.5 4.2 63.4 5.45 63.4 L208.9 63.4 Q210.15 63.4 211.0 62.5 211.9 61.65 211.9 60.4 L211.9 20.45 M208.9 16.45 Q210.55 16.45 211.75 17.65 212.9 18.8 212.9 20.45 L212.9 60.4 Q212.9 62.05 211.75 63.25 210.55 64.4 208.9 64.4 L5.45 64.4 Q3.8 64.4 2.65 63.25 1.45 62.05 1.45 60.4 L1.45 20.45 Q1.45 18.8 2.65 17.65 3.8 16.45 5.45 16.45 L208.9 16.45" fill="#0068ff" fill-rule="evenodd" stroke="none"/>
    <path d="M3.8 19.0 Q2.5 20.25 2.5 22.05 L2.5 33.8 0.0 33.8 0.0 21.45 Q0.0 19.6 1.3 18.3 2.6 17.0 4.45 17.0 L8.2 17.0 8.2 17.75 6.85 17.75 Q5.05 17.75 3.8 19.0" fill="#1f85ff" fill-rule="evenodd" stroke="none"/>
    <path d="M2.5 47.15 L2.5 58.95 Q2.5 60.7 3.8 62.0 5.05 63.25 6.85 63.25 L8.2 63.25 8.2 64.0 4.45 64.0 Q2.6 64.0 1.3 62.65 0.0 61.35 0.0 59.5 L0.0 47.15 2.5 47.15" fill="#1f85ff" fill-rule="evenodd" stroke="none"/>
    <path d="M156.35 45.5 L38.4 45.5 38.4 37.1 156.35 37.1 156.35 45.5" fill="#021128" fill-rule="evenodd" stroke="none"/>
  </g>
  <defs>
    <linearGradient gradientTransform="matrix(0.0, -0.0286, -0.0286, 0.0, 107.2, 40.45)" gradientUnits="userSpaceOnUse" id="gradient0" spreadMethod="pad" x1="-819.2" x2="819.2">
      <stop offset="0.0" stop-color="#05337a"/>
      <stop offset="0.17647058823529413" stop-color="#032970"/>
      <stop offset="0.4627450980392157" stop-color="#012168"/>
      <stop offset="1.0" stop-color="#001f66"/>
    </linearGradient>
  </defs>
</svg>
