<?xml version="1.0" encoding="UTF-8" standalone="no"?>
<svg xmlns:ffdec="https://www.free-decompiler.com/flash" xmlns:xlink="http://www.w3.org/1999/xlink" ffdec:objectType="shape" height="17.85px" width="43.6px" xmlns="http://www.w3.org/2000/svg">
  <g transform="matrix(1.0, 0.0, 0.0, 1.0, 0.0, 0.0)">
    <path d="M4.45 0.5 L39.1 0.5 Q40.7 0.5 41.9 1.5 43.0 2.55 43.0 4.0 L43.0 13.85 Q43.0 15.3 41.9 16.3 40.7 17.35 39.1 17.35 L4.45 17.35 Q2.85 17.35 1.65 16.3 0.55 15.3 0.55 13.85 L0.55 4.0 Q0.55 2.55 1.65 1.5 2.85 0.5 4.45 0.5" fill="url(#gradient0)" fill-rule="evenodd" stroke="none"/>
    <path d="M2.1 1.9 Q1.1 2.75 1.1 4.0 L1.1 13.85 Q1.1 15.1 2.1 15.95 3.05 16.85 4.45 16.85 L39.1 16.85 Q40.5 16.85 41.45 15.95 42.45 15.1 42.45 13.85 L42.45 4.0 Q42.45 2.75 41.45 1.9 40.5 1.0 39.1 1.0 L4.45 1.0 Q3.05 1.0 2.1 1.9 M0.0 4.0 Q0.0 2.35 1.3 1.2 2.6 0.0 4.45 0.0 L39.1 0.0 Q40.95 0.0 42.3 1.2 43.6 2.35 43.6 4.0 L43.6 13.85 Q43.6 15.5 42.3 16.7 40.95 17.85 39.1 17.85 L4.45 17.85 Q2.6 17.85 1.3 16.7 0.0 15.5 0.0 13.85 L0.0 4.0" fill="#399cff" fill-rule="evenodd" stroke="none"/>
  </g>
  <defs>
    <linearGradient gradientTransform="matrix(0.0, -0.0103, -0.0115, 0.0, 21.75, 8.9)" gradientUnits="userSpaceOnUse" id="gradient0" spreadMethod="pad" x1="-819.2" x2="819.2">
      <stop offset="0.0" stop-color="#004bc2"/>
      <stop offset="0.7647058823529411" stop-color="#003498"/>
      <stop offset="1.0" stop-color="#0057d9"/>
    </linearGradient>
  </defs>
</svg>
