<?xml version="1.0" encoding="UTF-8" standalone="no"?>
<svg xmlns:ffdec="https://www.free-decompiler.com/flash" xmlns:xlink="http://www.w3.org/1999/xlink" ffdec:objectType="shape" height="17.85px" width="43.6px" xmlns="http://www.w3.org/2000/svg">
  <g transform="matrix(1.0, 0.0, 0.0, 1.0, 0.0, 0.0)">
    <path d="M1.65 1.5 Q2.85 0.5 4.45 0.5 L39.1 0.5 Q40.7 0.5 41.9 1.5 43.0 2.55 43.0 4.0 L43.0 13.85 Q43.0 15.3 41.9 16.3 40.7 17.35 39.1 17.35 L4.45 17.35 Q2.85 17.35 1.65 16.3 0.55 15.3 0.55 13.85 L0.55 4.0 Q0.55 2.55 1.65 1.5" fill="#233b5e" fill-rule="evenodd" stroke="none"/>
    <path d="M39.1 0.0 Q40.95 0.0 42.3 1.2 43.6 2.35 43.6 4.0 L43.6 13.85 Q43.6 15.5 42.3 16.7 40.95 17.85 39.1 17.85 L4.5 17.85 Q2.65 17.85 1.35 16.7 0.0 15.5 0.0 13.85 L0.0 4.0 Q0.0 2.35 1.35 1.2 2.65 0.0 4.5 0.0 L39.1 0.0 M42.5 4.0 Q42.5 2.75 41.45 1.9 40.5 1.0 39.1 1.0 L4.5 1.0 Q3.1 1.0 2.15 1.9 1.1 2.75 1.1 4.0 L1.1 13.85 Q1.1 15.1 2.15 15.95 3.1 16.85 4.5 16.85 L39.1 16.85 Q40.5 16.85 41.45 15.95 42.5 15.1 42.5 13.85 L42.5 4.0" fill="#5580bf" fill-rule="evenodd" stroke="none"/>
  </g>
</svg>
