<?xml version="1.0" encoding="UTF-8" standalone="no"?>
<svg xmlns:ffdec="https://www.free-decompiler.com/flash" xmlns:xlink="http://www.w3.org/1999/xlink" ffdec:objectType="shape" height="13.1px" width="21.25px" xmlns="http://www.w3.org/2000/svg">
  <g transform="matrix(1.0, 0.0, 0.0, 1.0, 19.75, 209.15)">
    <path d="M-15.1 -202.6 Q-15.1 -205.05 -13.35 -206.8 -11.6 -208.55 -9.1 -208.55 -6.65 -208.55 -4.9 -206.8 -3.15 -205.05 -3.15 -202.6 -3.15 -200.15 -4.9 -198.4 -6.65 -196.65 -9.1 -196.65 -11.6 -196.65 -13.35 -198.4 -15.1 -200.15 -15.1 -202.6" fill="url(#gradient0)" fill-rule="evenodd" stroke="none"/>
    <path d="M-15.1 -202.6 Q-15.1 -200.15 -13.35 -198.4 -11.6 -196.65 -9.1 -196.65 -6.65 -196.65 -4.9 -198.4 -3.15 -200.15 -3.15 -202.6 -3.15 -205.05 -4.9 -206.8 -6.65 -208.55 -9.1 -208.55 -11.6 -208.55 -13.35 -206.8 -15.1 -205.05 -15.1 -202.6 Z" ffdec:has-small-stroke="true" ffdec:original-stroke-width="0.5" fill="none" stroke="#008aff" stroke-linecap="butt" stroke-linejoin="miter-clip" stroke-miterlimit="4.0" stroke-width="1.0"/>
    <path d="M-3.0 -204.05 Q-0.5 -202.25 0.7 -200.4 1.9 -198.6 1.3 -197.4 0.5 -195.75 -3.15 -196.1 -6.8 -196.5 -11.1 -198.65 -15.4 -200.8 -17.9 -203.45 -20.35 -206.15 -19.55 -207.8 -18.95 -209.0 -16.75 -209.15 -14.65 -209.3 -11.6 -208.4 -12.8 -207.85 -13.7 -206.9 -15.5 -206.9 -15.95 -206.0 -16.5 -204.95 -14.85 -203.2 -13.25 -201.4 -10.4 -200.0 -7.6 -198.6 -5.2 -198.35 -2.8 -198.1 -2.3 -199.2 -1.85 -200.1 -2.95 -201.5 -2.8 -202.0 -2.8 -202.6 L-3.0 -204.05" fill="url(#gradient1)" fill-rule="evenodd" stroke="none"/>
  </g>
  <defs>
    <radialGradient cx="0" cy="0" gradientTransform="matrix(-0.0073, 0.0, 0.0, -0.0073, -9.1, -202.6)" gradientUnits="userSpaceOnUse" id="gradient0" r="819.2" spreadMethod="pad">
      <stop offset="0.0" stop-color="#2629ff"/>
      <stop offset="0.35294117647058826" stop-color="#242cff"/>
      <stop offset="0.5843137254901961" stop-color="#1e34ff"/>
      <stop offset="0.7803921568627451" stop-color="#1343ff"/>
      <stop offset="0.9529411764705882" stop-color="#0558ff"/>
      <stop offset="1.0" stop-color="#005fff"/>
    </radialGradient>
    <linearGradient gradientTransform="matrix(-0.0048, -0.0048, 0.0048, -0.0048, -9.1, -202.6)" gradientUnits="userSpaceOnUse" id="gradient1" spreadMethod="pad" x1="-819.2" x2="819.2">
      <stop offset="0.0" stop-color="#0048ff"/>
      <stop offset="0.5450980392156862" stop-color="#0066ff"/>
      <stop offset="1.0" stop-color="#007bff"/>
    </linearGradient>
  </defs>
</svg>
