<?xml version="1.0" encoding="UTF-8" standalone="no"?>
<svg xmlns:ffdec="https://www.free-decompiler.com/flash" xmlns:xlink="http://www.w3.org/1999/xlink" ffdec:objectType="shape" height="180.15px" width="248.0px" xmlns="http://www.w3.org/2000/svg">
  <g transform="matrix(1.0, 0.0, 0.0, 1.0, 124.0, 90.45)">
    <path d="M72.5 -72.9 Q80.35 -68.8 87.35 -63.7 104.45 -51.3 113.8 -35.25 123.5 -18.6 123.5 -0.35 123.5 17.85 113.8 34.5 104.45 50.6 87.35 62.95 70.25 75.35 48.1 82.15 25.15 89.2 0.0 89.2 -25.15 89.2 -48.05 82.15 -70.25 75.35 -87.3 62.95 -104.4 50.6 -113.8 34.5 -123.5 17.85 -123.5 -0.35 -123.5 -18.6 -113.8 -35.25 -104.4 -51.3 -87.3 -63.7 -70.25 -76.1 -48.05 -82.9 -25.1 -89.95 0.0 -89.95 25.15 -89.95 48.1 -82.9 61.15 -78.9 72.5 -72.9" fill="#000066" fill-rule="evenodd" stroke="none"/>
    <path d="M72.5 -72.9 Q80.35 -68.8 87.35 -63.7 104.45 -51.3 113.8 -35.25 123.5 -18.6 123.5 -0.35 123.5 17.85 113.8 34.5 104.45 50.6 87.35 62.95 70.25 75.35 48.1 82.15 25.15 89.2 0.0 89.2 -25.15 89.2 -48.05 82.15 -70.25 75.35 -87.3 62.95 -104.4 50.6 -113.8 34.5 -123.5 17.85 -123.5 -0.35 -123.5 -18.6 -113.8 -35.25 -104.4 -51.3 -87.3 -63.7 -70.25 -76.1 -48.05 -82.9 -25.1 -89.95 0.0 -89.95 25.15 -89.95 48.1 -82.9 61.15 -78.9 72.5 -72.9 Z" fill="none" stroke="#0049ff" stroke-linecap="butt" stroke-linejoin="miter-clip" stroke-miterlimit="4.0" stroke-width="1.0"/>
  </g>
</svg>
