<?xml version="1.0" encoding="UTF-8" standalone="no"?>
<svg xmlns:ffdec="https://www.free-decompiler.com/flash" xmlns:xlink="http://www.w3.org/1999/xlink" ffdec:objectType="shape" height="257.1px" width="294.65px" xmlns="http://www.w3.org/2000/svg">
  <g transform="matrix(1.0, 0.0, 0.0, 1.0, 147.3, 123.05)">
    <path d="M-22.25 -111.05 L142.35 -111.05 Q144.0 -111.05 145.2 -109.85 146.35 -108.7 146.35 -107.05 L146.35 13.45 Q146.35 15.1 145.2 16.3 144.0 17.45 142.35 17.45 L77.15 17.45 Q75.75 17.45 74.05 16.85 72.4 16.25 71.4 15.4 70.65 14.75 69.3 14.3 L66.9 13.85 -66.0 13.85 -68.4 14.3 -70.5 15.4 Q-71.5 16.25 -73.2 16.85 L-76.3 17.45 -142.3 17.45 Q-143.95 17.45 -145.1 16.3 -146.3 15.1 -146.3 13.45 L-146.3 -118.05 Q-146.3 -119.7 -145.1 -120.85 -143.95 -122.05 -142.3 -122.05 L-42.25 -122.05 Q-40.85 -122.05 -39.1 -121.45 -37.4 -120.8 -36.25 -119.95 L-27.0 -112.65 Q-26.15 -112.0 -24.7 -111.55 -23.3 -111.05 -22.25 -111.05" fill="url(#gradient0)" fill-rule="evenodd" stroke="none"/>
    <path d="M-24.4 -112.45 L-22.25 -112.05 142.35 -112.05 Q144.4 -112.05 145.9 -110.6 147.35 -109.1 147.35 -107.05 L147.35 13.45 Q147.35 15.5 145.9 17.0 144.4 18.45 142.35 18.45 L77.15 18.45 73.75 17.8 Q71.85 17.1 70.75 16.15 70.1 15.65 68.95 15.25 L66.9 14.85 -66.0 14.85 -68.05 15.25 Q-69.25 15.65 -69.85 16.15 -71.0 17.15 -72.85 17.8 L-76.3 18.45 -142.3 18.45 Q-144.35 18.45 -145.85 17.0 -147.3 15.5 -147.3 13.45 L-147.3 -118.05 Q-147.3 -120.1 -145.85 -121.6 -144.35 -123.05 -142.3 -123.05 L-42.25 -123.05 -38.8 -122.4 Q-36.9 -121.75 -35.65 -120.75 L-26.35 -113.45 -24.4 -112.45 M-22.25 -110.05 Q-23.5 -110.05 -25.05 -110.6 -26.65 -111.1 -27.6 -111.9 L-36.9 -119.2 -39.4 -120.5 -42.25 -121.05 -142.3 -121.05 Q-143.55 -121.05 -144.4 -120.15 -145.3 -119.3 -145.3 -118.05 L-145.3 13.45 Q-145.3 14.7 -144.4 15.55 -143.55 16.45 -142.3 16.45 L-76.3 16.45 -73.55 15.95 Q-72.0 15.4 -71.15 14.65 -70.25 13.9 -68.75 13.4 -67.25 12.85 -66.0 12.85 L66.9 12.85 Q68.15 12.85 69.65 13.4 71.15 13.9 72.0 14.65 72.9 15.4 74.4 15.95 L77.15 16.45 142.35 16.45 Q143.6 16.45 144.45 15.55 145.35 14.7 145.35 13.45 L145.35 -107.05 Q145.35 -108.3 144.45 -109.15 143.6 -110.05 142.35 -110.05 L-22.25 -110.05" fill="#0068ff" fill-rule="evenodd" stroke="none"/>
    <path d="M136.65 -88.5 L136.65 3.9 Q136.65 5.95 135.2 7.45 133.7 8.9 131.65 8.9 L-131.6 8.9 Q-133.65 8.9 -135.15 7.45 -136.6 5.95 -136.6 3.9 L-136.6 -88.5 Q-136.6 -90.55 -135.15 -92.05 -133.65 -93.5 -131.6 -93.5 L131.65 -93.5 Q133.7 -93.5 135.2 -92.05 136.65 -90.55 136.65 -88.5" fill="#000d38" fill-rule="evenodd" stroke="none"/>
    <path d="M72.35 20.3 Q73.2 21.05 74.6 21.6 76.05 22.15 77.15 22.15 L142.65 22.15 Q144.1 22.15 145.15 23.15 146.15 24.2 146.15 25.65 L146.15 130.05 Q146.15 131.5 145.15 132.55 144.1 133.55 142.65 133.55 L-142.6 133.55 Q-144.05 133.55 -145.1 132.55 -146.1 131.5 -146.1 130.05 L-146.1 25.65 Q-146.1 24.2 -145.1 23.15 -144.05 22.15 -142.6 22.15 L-76.3 22.15 Q-75.15 22.15 -73.7 21.6 -72.3 21.05 -71.5 20.3 -70.55 19.4 -68.95 18.8 -67.3 18.15 -66.0 18.15 L66.9 18.15 Q68.2 18.15 69.8 18.8 71.4 19.4 72.35 20.3" fill="url(#gradient1)" fill-rule="evenodd" stroke="none"/>
    <path d="M66.9 17.65 L70.0 18.3 Q71.7 18.95 72.7 19.9 73.45 20.6 74.8 21.15 L77.15 21.65 142.65 21.65 Q144.3 21.65 145.5 22.85 146.65 24.0 146.65 25.65 L146.65 130.05 Q146.65 131.75 145.5 132.9 144.3 134.05 142.65 134.05 L-142.6 134.05 Q-144.25 134.05 -145.4 132.9 -146.6 131.75 -146.6 130.05 L-146.6 25.65 Q-146.6 24.0 -145.4 22.85 -144.25 21.65 -142.6 21.65 L-76.3 21.65 -73.9 21.15 -71.85 19.9 Q-70.8 18.95 -69.1 18.3 -67.4 17.65 -66.0 17.65 L66.9 17.65 M72.0 20.65 Q71.15 19.85 69.65 19.25 L66.9 18.65 -66.0 18.65 Q-67.25 18.65 -68.75 19.25 -70.25 19.8 -71.15 20.65 -72.0 21.45 -73.55 22.05 -75.05 22.65 -76.3 22.65 L-142.6 22.65 Q-143.85 22.65 -144.7 23.55 -145.6 24.4 -145.6 25.65 L-145.6 130.05 Q-145.6 131.3 -144.7 132.15 -143.85 133.05 -142.6 133.05 L142.65 133.05 Q143.9 133.05 144.75 132.15 145.65 131.3 145.65 130.05 L145.65 25.65 Q145.65 24.4 144.75 23.55 143.9 22.65 142.65 22.65 L77.15 22.65 Q75.9 22.65 74.4 22.05 L72.0 20.65" fill="#0068ff" fill-rule="evenodd" stroke="none"/>
    <path d="M136.65 47.45 L136.65 93.45 Q136.65 95.5 135.2 97.0 133.7 98.45 131.65 98.45 L-131.6 98.45 Q-133.65 98.45 -135.15 97.0 -136.6 95.5 -136.6 93.45 L-136.6 47.45 Q-136.6 45.4 -135.15 43.9 -133.65 42.45 -131.6 42.45 L131.65 42.45 Q133.7 42.45 135.2 43.9 136.65 45.4 136.65 47.45" fill="#000d38" fill-rule="evenodd" stroke="none"/>
    <path d="M-78.9 -76.65 Q-78.05 -77.55 -76.8 -77.55 L54.2 -77.55 Q55.45 -77.55 56.3 -76.65 57.2 -75.8 57.2 -74.55 L57.2 -60.05 Q57.2 -58.8 56.3 -57.95 55.45 -57.05 54.2 -57.05 L-76.8 -57.05 Q-78.05 -57.05 -78.9 -57.95 -79.8 -58.8 -79.8 -60.05 L-79.8 -74.55 Q-79.8 -75.8 -78.9 -76.65" fill="#001556" fill-rule="evenodd" stroke="none"/>
    <path d="M-78.9 -76.65 Q-78.05 -77.55 -76.8 -77.55 L54.2 -77.55 Q55.45 -77.55 56.3 -76.65 57.2 -75.8 57.2 -74.55 L57.2 -60.05 Q57.2 -58.8 56.3 -57.95 55.45 -57.05 54.2 -57.05 L-76.8 -57.05 Q-78.05 -57.05 -78.9 -57.95 -79.8 -58.8 -79.8 -60.05 L-79.8 -74.55 Q-79.8 -75.8 -78.9 -76.65 Z" fill="none" stroke="#023ca3" stroke-linecap="butt" stroke-linejoin="miter-clip" stroke-miterlimit="4.0" stroke-width="1.0"/>
  </g>
  <defs>
    <linearGradient gradientTransform="matrix(0.0, -0.0851, -0.0851, 0.0, 0.0, -52.3)" gradientUnits="userSpaceOnUse" id="gradient0" spreadMethod="pad" x1="-819.2" x2="819.2">
      <stop offset="0.0" stop-color="#05337a"/>
      <stop offset="0.17647058823529413" stop-color="#032970"/>
      <stop offset="0.4627450980392157" stop-color="#012168"/>
      <stop offset="1.0" stop-color="#001f66"/>
    </linearGradient>
    <linearGradient gradientTransform="matrix(0.0, -0.0704, -0.0704, 0.0, 0.0, 75.85)" gradientUnits="userSpaceOnUse" id="gradient1" spreadMethod="pad" x1="-819.2" x2="819.2">
      <stop offset="0.0" stop-color="#05337a"/>
      <stop offset="0.17647058823529413" stop-color="#032970"/>
      <stop offset="0.4627450980392157" stop-color="#012168"/>
      <stop offset="1.0" stop-color="#001f66"/>
    </linearGradient>
  </defs>
</svg>
