<?xml version="1.0" encoding="UTF-8" standalone="no"?>
<svg xmlns:ffdec="https://www.free-decompiler.com/flash" xmlns:xlink="http://www.w3.org/1999/xlink" ffdec:objectType="shape" height="21.7px" width="29.65px" xmlns="http://www.w3.org/2000/svg">
  <g transform="matrix(1.0, 0.0, 0.0, 1.0, 1.55, 0.6)">
    <path d="M-0.2 10.3 L27.6 0.1 27.6 4.35 19.45 10.25 27.6 15.9 27.6 20.45 -0.2 10.3" fill="url(#gradient0)" fill-rule="evenodd" stroke="none"/>
    <path d="M-0.2 10.3 L27.6 20.45 27.6 15.9 19.45 10.25 27.6 4.35 27.6 0.1 -0.2 10.3 Z" fill="none" stroke="#02abf4" stroke-linecap="butt" stroke-linejoin="miter-clip" stroke-miterlimit="4.0" stroke-width="1.0"/>
    <path d="M27.6 0.05 L0.05 10.25 27.6 20.4 27.6 15.85 19.55 10.2 27.6 4.3 27.6 0.05" fill="url(#gradient1)" fill-rule="evenodd" stroke="none"/>
    <path d="M27.6 0.05 L0.05 10.25 27.6 20.4 27.6 15.85 19.55 10.2 27.6 4.3 27.6 0.05 Z" fill="none" stroke="#02d1ff" stroke-linecap="butt" stroke-linejoin="miter-clip" stroke-miterlimit="4.0" stroke-width="1.0"/>
  </g>
  <defs>
    <linearGradient gradientTransform="matrix(0.0169, 0.0, 0.0, -0.0169, 13.65, 10.3)" gradientUnits="userSpaceOnUse" id="gradient0" spreadMethod="pad" x1="-819.2" x2="819.2">
      <stop offset="0.0" stop-color="#00b7ff"/>
      <stop offset="0.0" stop-color="#00b6fe"/>
      <stop offset="0.0392156862745098" stop-color="#009be5"/>
      <stop offset="0.08627450980392157" stop-color="#0085d1"/>
      <stop offset="0.13725490196078433" stop-color="#0073c1"/>
      <stop offset="0.2" stop-color="#0067b6"/>
      <stop offset="0.28627450980392155" stop-color="#0060b0"/>
      <stop offset="0.5019607843137255" stop-color="#005eae"/>
    </linearGradient>
    <linearGradient gradientTransform="matrix(-0.0168, 0.0, 0.0, -0.016, 13.85, 10.25)" gradientUnits="userSpaceOnUse" id="gradient1" spreadMethod="pad" x1="-819.2" x2="819.2">
      <stop offset="0.0" stop-color="#00ddff"/>
      <stop offset="0.0" stop-color="#00dcff"/>
      <stop offset="0.0392156862745098" stop-color="#00c1f3"/>
      <stop offset="0.08627450980392157" stop-color="#00abe9"/>
      <stop offset="0.13725490196078433" stop-color="#0099e2"/>
      <stop offset="0.2" stop-color="#008ddd"/>
      <stop offset="0.28627450980392155" stop-color="#0086da"/>
      <stop offset="0.5019607843137255" stop-color="#0084d9"/>
    </linearGradient>
  </defs>
</svg>
