<?xml version="1.0" encoding="UTF-8" standalone="no"?>
<svg xmlns:ffdec="https://www.free-decompiler.com/flash" xmlns:xlink="http://www.w3.org/1999/xlink" ffdec:objectType="shape" height="24.9px" width="77.35px" xmlns="http://www.w3.org/2000/svg">
  <g transform="matrix(1.0, 0.0, 0.0, 1.0, 0.0, 0.0)">
    <path d="M72.35 23.9 L5.0 23.9 Q3.35 23.9 2.2 22.75 1.0 21.55 1.0 19.9 L1.0 5.0 Q1.0 3.35 2.2 2.2 3.35 1.0 5.0 1.0 L72.35 1.0 Q74.0 1.0 75.2 2.2 76.35 3.35 76.35 5.0 L76.35 19.9 Q76.35 21.55 75.2 22.75 74.0 23.9 72.35 23.9" fill="url(#gradient0)" fill-rule="evenodd" stroke="none"/>
    <path d="M75.9 1.45 Q77.35 2.95 77.35 5.0 L77.35 19.9 Q77.35 21.95 75.9 23.45 74.4 24.9 72.35 24.9 L5.0 24.9 Q2.95 24.9 1.45 23.45 0.0 21.95 0.0 19.9 L0.0 5.0 Q0.0 2.95 1.45 1.45 2.95 0.0 5.0 0.0 L72.35 0.0 Q74.4 0.0 75.9 1.45 M75.35 5.0 Q75.35 3.75 74.45 2.9 73.6 2.0 72.35 2.0 L5.0 2.0 Q3.75 2.0 2.9 2.9 2.0 3.75 2.0 5.0 L2.0 19.9 Q2.0 21.15 2.9 22.0 3.75 22.9 5.0 22.9 L72.35 22.9 Q73.6 22.9 74.45 22.0 75.35 21.15 75.35 19.9 L75.35 5.0" fill="#0068ff" fill-rule="evenodd" stroke="none"/>
  </g>
  <defs>
    <linearGradient gradientTransform="matrix(0.0, -0.0139, -0.0139, 0.0, 38.7, 12.45)" gradientUnits="userSpaceOnUse" id="gradient0" spreadMethod="pad" x1="-819.2" x2="819.2">
      <stop offset="0.0" stop-color="#05337a"/>
      <stop offset="0.17647058823529413" stop-color="#032970"/>
      <stop offset="0.4627450980392157" stop-color="#012168"/>
      <stop offset="1.0" stop-color="#001f66"/>
    </linearGradient>
  </defs>
</svg>
