<?xml version="1.0" encoding="UTF-8" standalone="no"?>
<svg xmlns:ffdec="https://www.free-decompiler.com/flash" xmlns:xlink="http://www.w3.org/1999/xlink" ffdec:objectType="shape" height="22.4px" width="69.6px" xmlns="http://www.w3.org/2000/svg">
  <g transform="matrix(1.0, 0.0, 0.0, 1.0, -3.85, -1.25)">
    <path d="M68.95 22.75 L8.35 22.75 Q6.85 22.75 5.85 21.7 4.75 20.65 4.75 19.15 L4.75 5.75 Q4.75 4.25 5.85 3.25 6.85 2.15 8.35 2.15 L68.95 2.15 Q70.45 2.15 71.55 3.25 72.55 4.25 72.55 5.75 L72.55 19.15 Q72.55 20.65 71.55 21.7 70.45 22.75 68.95 22.75" fill="url(#gradient0)" fill-rule="evenodd" stroke="none"/>
    <path d="M70.85 3.85 Q70.1 3.05 68.95 3.05 L8.35 3.05 Q7.2 3.05 6.45 3.85 5.65 4.6 5.65 5.75 L5.65 19.15 Q5.65 20.3 6.45 21.05 7.2 21.85 8.35 21.85 L68.95 21.85 Q70.1 21.85 70.85 21.05 71.65 20.3 71.65 19.15 L71.65 5.75 Q71.65 4.6 70.85 3.85 M72.15 2.55 Q73.45 3.9 73.45 5.75 L73.45 19.15 Q73.45 21.0 72.15 22.35 70.8 23.65 68.95 23.65 L8.35 23.65 Q6.5 23.65 5.15 22.35 3.85 21.0 3.85 19.15 L3.85 5.75 Q3.85 3.9 5.15 2.55 6.5 1.25 8.35 1.25 L68.95 1.25 Q70.8 1.25 72.15 2.55" fill="#399cff" fill-rule="evenodd" stroke="none"/>
  </g>
  <defs>
    <linearGradient gradientTransform="matrix(0.0, -0.0126, -0.0126, 0.0, -50.65, 8.45)" gradientUnits="userSpaceOnUse" id="gradient0" spreadMethod="pad" x1="-819.2" x2="819.2">
      <stop offset="0.0" stop-color="#004bc2"/>
      <stop offset="0.7647058823529411" stop-color="#003498"/>
      <stop offset="1.0" stop-color="#0057d9"/>
    </linearGradient>
  </defs>
</svg>
