<?xml version="1.0" encoding="UTF-8" standalone="no"?>
<svg xmlns:ffdec="https://www.free-decompiler.com/flash" xmlns:xlink="http://www.w3.org/1999/xlink" ffdec:objectType="shape" height="279.2px" width="574.45px" xmlns="http://www.w3.org/2000/svg">
  <g transform="matrix(1.0, 0.0, 0.0, 1.0, 284.7, 137.05)">
    <path d="M-272.65 96.0 L-272.65 -30.0 Q-272.65 -30.7 -273.05 -31.6 L-274.05 -33.0 -281.9 -40.55 Q-282.6 -41.2 -283.15 -42.3 -283.65 -43.4 -283.65 -44.25 L-283.65 -103.7 Q-283.65 -104.75 -282.6 -105.45 -281.55 -106.2 -280.05 -106.2 L284.1 -106.2 Q285.6 -106.2 286.65 -105.45 287.7 -104.75 287.7 -103.7 L287.7 139.65 Q287.7 140.7 286.65 141.4 285.6 142.15 284.1 142.15 L-269.05 142.15 Q-270.55 142.15 -271.6 141.4 -272.65 140.7 -272.65 139.65 L-272.65 96.25 -272.65 96.0 M286.8 67.0 L286.8 -103.7 Q286.8 -104.5 286.0 -105.0 285.25 -105.6 284.1 -105.6 L167.0 -105.6 -280.05 -105.6 Q-281.2 -105.6 -281.95 -105.0 -282.75 -104.5 -282.75 -103.7 L-282.75 -44.25 -282.3 -42.5 -281.2 -40.9 -273.35 -33.35 Q-272.7 -32.75 -272.2 -31.75 -271.75 -30.75 -271.75 -30.0 L-271.75 67.0 -271.75 139.65 Q-271.75 140.45 -270.95 140.95 -270.2 141.55 -269.05 141.55 L167.0 141.55 284.1 141.55 Q285.25 141.55 286.0 140.95 286.8 140.45 286.8 139.65 L286.8 67.0" fill="#0068ff" fill-rule="evenodd" stroke="none"/>
    <path d="M167.0 -105.6 L284.1 -105.6 Q285.25 -105.6 286.0 -105.0 286.8 -104.5 286.8 -103.7 L286.8 67.0 167.0 67.0 167.0 -105.6" fill="url(#gradient0)" fill-rule="evenodd" stroke="none"/>
    <path d="M-271.75 67.0 L-271.75 -30.0 Q-271.75 -30.75 -272.2 -31.75 -272.7 -32.75 -273.35 -33.35 L-281.2 -40.9 -282.3 -42.5 -282.75 -44.25 -282.75 -103.7 Q-282.75 -104.5 -281.95 -105.0 -281.2 -105.6 -280.05 -105.6 L167.0 -105.6 167.0 67.0 -271.75 67.0" fill="url(#gradient1)" fill-rule="evenodd" stroke="none"/>
    <path d="M-272.65 96.25 L-272.7 96.25 -272.7 96.0 -272.65 96.0 -272.65 96.25" fill="url(#gradient2)" fill-rule="evenodd" stroke="none"/>
    <path d="M167.0 141.55 L-269.05 141.55 Q-270.2 141.55 -270.95 140.95 -271.75 140.45 -271.75 139.65 L-271.75 67.0 167.0 67.0 167.0 141.55" fill="url(#gradient3)" fill-rule="evenodd" stroke="none"/>
    <path d="M286.8 67.0 L286.8 139.65 Q286.8 140.45 286.0 140.95 285.25 141.55 284.1 141.55 L167.0 141.55 167.0 67.0 286.8 67.0" fill="url(#gradient4)" fill-rule="evenodd" stroke="none"/>
    <path d="M283.35 -105.8 Q283.55 -105.2 282.75 -104.35 L277.05 -98.2 Q276.2 -97.35 274.85 -96.75 273.45 -96.15 272.35 -96.15 L28.3 -96.15 27.6 -96.1 -23.5 -96.1 -24.25 -96.15 -268.7 -96.15 Q-269.8 -96.15 -271.15 -96.75 -272.55 -97.3 -273.35 -98.15 L-279.5 -104.4 Q-280.3 -105.2 -280.1 -105.8 -279.9 -106.4 -278.75 -106.4 L282.0 -106.4 Q283.1 -106.4 283.35 -105.8" fill="#021a51" fill-rule="evenodd" stroke="none"/>
    <path d="M27.4 -99.15 L26.7 -99.1 -22.6 -99.1 -23.35 -99.15 -268.7 -99.15 Q-269.8 -99.15 -271.15 -99.75 -272.55 -100.3 -273.35 -101.15 L-279.5 -107.4 Q-280.3 -108.2 -280.1 -108.8 -279.9 -109.4 -278.75 -109.4 L282.0 -109.4 Q283.1 -109.4 283.35 -108.8 283.55 -108.2 282.75 -107.35 L277.05 -101.2 Q276.2 -100.35 274.85 -99.75 273.45 -99.15 272.35 -99.15 L27.4 -99.15" fill="#474646" fill-rule="evenodd" stroke="none"/>
    <path d="M69.0 -99.15 L69.0 -99.35 -38.55 -99.35 -38.55 -99.15 -228.85 -99.15 -231.5 -99.55 Q-232.95 -99.95 -233.95 -100.5 L-235.35 -101.3 Q-236.35 -101.85 -237.85 -102.25 L-240.45 -102.65 -271.5 -102.65 Q-272.65 -102.65 -274.05 -103.25 -275.45 -103.8 -276.3 -104.6 L-279.4 -107.5 Q-280.25 -108.3 -280.1 -108.85 -279.9 -109.4 -278.75 -109.4 L282.0 -109.4 Q283.1 -109.4 283.4 -108.75 283.6 -108.15 282.85 -107.25 L280.7 -104.8 278.6 -103.3 Q277.25 -102.65 276.15 -102.65 L243.6 -102.65 241.0 -102.2 Q239.5 -101.8 238.5 -101.2 L237.5 -100.6 Q236.5 -100.0 235.0 -99.55 L232.4 -99.15 69.0 -99.15" fill="url(#gradient5)" fill-rule="evenodd" stroke="none"/>
    <path d="M-284.7 -96.35 Q-284.7 -97.6 -284.1 -97.85 -283.45 -98.1 -282.65 -97.2 L-280.5 -94.95 Q-279.65 -94.1 -279.05 -92.55 -278.45 -91.05 -278.45 -89.8 L-278.45 -72.85 Q-278.45 -71.6 -279.05 -70.1 -279.6 -68.55 -280.45 -67.65 L-282.7 -65.2 Q-283.5 -64.3 -284.1 -64.55 -284.7 -64.75 -284.7 -66.0 L-284.7 -96.35" fill="url(#gradient6)" fill-rule="evenodd" stroke="none"/>
    <path d="M287.65 -101.25 Q288.5 -102.15 289.15 -101.9 289.75 -101.65 289.75 -100.4 L289.75 -70.05 Q289.75 -68.8 289.15 -68.6 288.55 -68.35 287.7 -69.25 L285.45 -71.7 Q284.65 -72.6 284.05 -74.15 283.45 -75.65 283.45 -76.9 L283.45 -93.85 Q283.45 -95.1 284.05 -96.6 284.65 -98.15 285.5 -99.0 L287.65 -101.25" fill="url(#gradient7)" fill-rule="evenodd" stroke="none"/>
    <path d="M28.3 -105.35 L26.4 -105.0 24.7 -104.1 23.65 -103.35 Q22.1 -102.15 20.05 -102.15 L-15.6 -102.15 Q-16.45 -102.15 -17.5 -102.5 -18.6 -102.8 -19.25 -103.3 L-20.4 -104.15 Q-21.1 -104.65 -22.15 -105.0 L-24.05 -105.35 -39.4 -105.35 Q-41.45 -105.35 -43.15 -106.25 L-49.8 -109.7 Q-50.55 -110.05 -50.5 -110.35 L-49.6 -110.6 52.9 -110.6 53.8 -110.35 Q53.9 -110.05 53.15 -109.65 L47.0 -106.3 Q45.25 -105.35 43.2 -105.35 L28.3 -105.35" fill="#333333" fill-rule="evenodd" stroke="none"/>
    <path d="M24.8 -137.05 L27.7 -136.5 Q29.3 -135.95 30.3 -135.1 L31.6 -134.1 Q32.6 -133.3 32.85 -132.0 33.15 -130.65 32.5 -129.5 L20.4 -107.8 Q19.8 -106.65 18.45 -105.9 17.15 -105.15 15.85 -105.15 L-13.6 -105.15 Q-14.9 -105.15 -16.25 -105.95 -17.6 -106.75 -18.15 -107.85 L-29.3 -129.45 Q-29.85 -130.6 -29.65 -132.05 -29.45 -133.45 -28.55 -134.4 L-28.05 -134.85 Q-27.15 -135.8 -25.6 -136.4 L-22.8 -137.05 24.8 -137.05" fill="url(#gradient8)" fill-rule="evenodd" stroke="none"/>
    <path d="M22.45 -134.2 Q23.95 -133.55 24.85 -132.65 L25.4 -132.15 Q26.3 -131.25 26.5 -129.8 26.7 -128.45 26.1 -127.3 L17.05 -111.0 Q16.4 -109.85 15.0 -109.1 13.7 -108.25 12.4 -108.25 L11.95 -108.25 Q8.85 -108.25 7.95 -108.85 6.9 -109.4 3.85 -109.4 L-1.2 -109.4 Q-4.25 -109.4 -5.15 -108.85 -5.45 -108.6 -6.65 -108.4 L-9.05 -108.25 -9.95 -108.25 Q-11.25 -108.25 -12.6 -109.1 -13.95 -109.9 -14.5 -111.05 L-22.9 -127.25 Q-23.45 -128.4 -23.3 -129.85 -23.2 -131.4 -22.35 -132.4 L-22.3 -132.45 Q-21.55 -133.4 -20.05 -134.1 -18.6 -134.8 -17.3 -134.8 L-14.75 -134.8 -10.25 -134.2 Q-8.7 -133.55 -5.75 -133.55 L9.6 -133.55 Q12.55 -133.55 14.0 -134.2 15.25 -134.8 18.4 -134.8 L19.6 -134.8 22.45 -134.2" fill="#2b2b2a" fill-rule="evenodd" stroke="none"/>
    <path d="M-11.6 -113.1 L-18.9 -127.15 Q-19.35 -127.9 -19.2 -128.9 -19.0 -129.85 -18.4 -130.45 L-18.15 -130.7 -16.5 -131.7 -14.6 -132.2 16.4 -132.2 18.3 -131.75 20.05 -130.9 20.85 -130.3 Q21.5 -129.75 21.7 -128.85 21.85 -127.9 21.45 -127.2 L13.65 -113.1 12.3 -111.8 Q11.4 -111.3 10.55 -111.3 L-8.65 -111.3 Q-9.45 -111.3 -10.35 -111.8 -11.2 -112.4 -11.6 -113.1" fill="#113ebc" fill-rule="evenodd" stroke="none"/>
    <path d="M18.35 -131.8 L16.45 -132.2 -14.55 -132.2 -16.5 -131.75 Q-17.55 -131.3 -18.15 -130.7 L-18.35 -130.4 Q-19.0 -129.85 -19.2 -128.9 -19.3 -127.9 -18.9 -127.15 L-11.6 -113.1 -10.3 -111.8 Q-9.4 -111.3 -8.6 -111.3 L10.55 -111.3 Q11.45 -111.3 12.35 -111.8 13.25 -112.3 13.65 -113.1 L21.5 -127.2 Q21.9 -127.9 21.7 -128.85 21.55 -129.75 20.85 -130.25 L20.05 -130.9 Q19.4 -131.4 18.35 -131.8 Z" fill="none" stroke="#03133f" stroke-linecap="butt" stroke-linejoin="miter-clip" stroke-miterlimit="4.0" stroke-width="1.0"/>
    <path d="M-40.95 -105.5 L-37.85 -105.3 Q-35.6 -106.55 -28.95 -108.8 -27.1 -109.35 -28.2 -111.3 -29.2 -113.25 -31.6 -112.5 -39.85 -109.7 -43.2 -106.85 -43.5 -106.1 -40.95 -105.5" fill="url(#gradient9)" fill-rule="evenodd" stroke="none"/>
    <path d="M44.25 -105.5 L41.15 -105.3 Q38.9 -106.55 32.25 -108.8 30.4 -109.35 31.5 -111.3 32.5 -113.25 34.9 -112.5 43.15 -109.7 46.5 -106.85 46.8 -106.1 44.25 -105.5" fill="url(#gradient10)" fill-rule="evenodd" stroke="none"/>
    <path d="M32.25 -121.8 L34.65 -120.45 35.85 -115.55 30.9 -107.2 26.0 -105.9 23.65 -107.35 32.25 -121.8" fill="url(#gradient11)" fill-rule="evenodd" stroke="none"/>
    <path d="M37.35 -112.75 L34.15 -107.3 31.75 -108.7 34.95 -114.1 37.35 -112.75" fill="#333333" fill-rule="evenodd" stroke="none"/>
    <path d="M-29.8 -121.8 L-32.2 -120.45 -33.4 -115.55 -28.4 -107.2 -23.55 -105.9 -21.2 -107.35 -29.8 -121.8" fill="url(#gradient12)" fill-rule="evenodd" stroke="none"/>
    <path d="M-34.9 -112.75 L-31.7 -107.3 -29.3 -108.7 -32.5 -114.1 Q-33.65 -113.35 -34.9 -112.75" fill="#333333" fill-rule="evenodd" stroke="none"/>
    <path d="M73.0 -74.5 L58.0 -74.5 53.95 -75.15 Q52.1 -75.7 51.0 -76.35 L50.55 -76.7 Q49.45 -77.65 47.15 -78.3 L42.8 -78.95 -44.15 -78.95 Q-46.2 -78.95 -47.7 -77.5 -49.15 -76.0 -49.15 -73.95 L-49.15 -53.05 -56.5 -53.05 -56.5 -81.4 -51.9 -86.05 73.0 -86.05 73.0 -74.5" fill="url(#gradient13)" fill-rule="evenodd" stroke="none"/>
    <path d="M-49.15 -53.05 L-49.15 -73.95 Q-49.15 -76.0 -47.7 -77.5 -46.2 -78.95 -44.15 -78.95 L42.8 -78.95 47.15 -78.3 Q49.45 -77.65 50.55 -76.7 L51.0 -76.35 Q52.1 -75.7 53.95 -75.15 L58.0 -74.5 73.0 -74.5 82.0 -74.5 93.0 -74.5 152.0 -74.5 242.6 -74.5 Q244.65 -74.5 247.25 -73.5 249.8 -72.55 251.35 -71.2 L255.8 -67.25 Q257.35 -65.85 259.9 -64.9 262.5 -63.9 264.55 -63.9 L270.65 -63.9 Q272.7 -63.9 274.2 -62.45 275.65 -60.95 275.65 -58.9 L275.65 -53.05 275.65 -19.05 275.65 46.95 275.65 73.0 275.65 104.3 Q275.65 106.35 274.2 107.85 272.7 109.3 270.65 109.3 L152.0 109.3 93.0 109.3 82.0 109.3 73.0 109.3 -31.75 109.3 Q-33.8 109.3 -35.3 107.85 -36.75 106.35 -36.75 104.3 L-36.75 96.25 Q-36.8 94.25 -37.75 91.8 -38.8 89.3 -40.25 87.8 L-45.65 82.2 Q-47.1 80.7 -48.1 78.2 L-48.75 76.25 -48.95 76.25 -49.05 75.75 -49.15 75.75 -49.15 73.0 -49.15 46.95 -49.15 -19.05 -49.15 -53.05" fill="#000d38" fill-rule="evenodd" stroke="none"/>
    <path d="M73.0 -74.5 L73.0 -86.05 82.0 -86.05 82.0 -74.5 73.0 -74.5" fill="url(#gradient14)" fill-rule="evenodd" stroke="none"/>
    <path d="M275.65 -53.05 L275.65 -58.9 Q275.65 -60.95 274.2 -62.45 272.7 -63.9 270.65 -63.9 L264.55 -63.9 Q262.5 -63.9 259.9 -64.9 257.35 -65.85 255.8 -67.25 L251.35 -71.2 Q249.8 -72.55 247.25 -73.5 244.65 -74.5 242.6 -74.5 L152.0 -74.5 152.0 -86.05 261.55 -86.05 282.05 -65.55 282.05 -53.05 275.65 -53.05" fill="url(#gradient15)" fill-rule="evenodd" stroke="none"/>
    <path d="M152.0 -74.5 L93.0 -74.5 93.0 -86.05 152.0 -86.05 152.0 -74.5" fill="url(#gradient16)" fill-rule="evenodd" stroke="none"/>
    <path d="M93.0 -74.5 L82.0 -74.5 82.0 -86.05 93.0 -86.05 93.0 -74.5" fill="url(#gradient17)" fill-rule="evenodd" stroke="none"/>
    <path d="M275.65 -19.05 L275.65 -53.05 282.05 -53.05 282.05 -19.05 275.65 -19.05" fill="url(#gradient18)" fill-rule="evenodd" stroke="none"/>
    <path d="M275.65 46.95 L275.65 -19.05 282.05 -19.05 282.05 46.95 275.65 46.95" fill="url(#gradient19)" fill-rule="evenodd" stroke="none"/>
    <path d="M-56.5 -53.05 L-49.15 -53.05 -49.15 -19.05 -56.5 -19.05 -56.5 -53.05" fill="url(#gradient20)" fill-rule="evenodd" stroke="none"/>
    <path d="M-49.15 -19.05 L-49.15 46.95 -56.5 46.95 -56.5 -19.05 -49.15 -19.05" fill="url(#gradient21)" fill-rule="evenodd" stroke="none"/>
    <path d="M-49.15 46.95 L-49.15 73.0 -56.5 73.0 -56.5 46.95 -49.15 46.95" fill="url(#gradient22)" fill-rule="evenodd" stroke="none"/>
    <path d="M-49.15 73.0 L-49.15 75.75 -49.05 75.75 -48.95 76.25 -48.75 76.25 -48.1 78.2 Q-47.1 80.7 -45.65 82.2 L-40.25 87.8 Q-38.8 89.3 -37.75 91.8 -36.8 94.25 -36.75 96.25 L-36.75 104.3 Q-36.75 106.35 -35.3 107.85 -33.8 109.3 -31.75 109.3 L73.0 109.3 73.0 115.45 -52.65 115.45 -56.5 111.6 -56.5 73.0 -49.15 73.0" fill="url(#gradient23)" fill-rule="evenodd" stroke="none"/>
    <path d="M275.65 73.0 L275.65 46.95 282.05 46.95 282.05 73.0 275.65 73.0" fill="url(#gradient24)" fill-rule="evenodd" stroke="none"/>
    <path d="M152.0 109.3 L270.65 109.3 Q272.7 109.3 274.2 107.85 275.65 106.35 275.65 104.3 L275.65 73.0 282.05 73.0 282.05 115.45 152.0 115.45 152.0 109.3" fill="url(#gradient25)" fill-rule="evenodd" stroke="none"/>
    <path d="M73.0 109.3 L82.0 109.3 82.0 115.45 73.0 115.45 73.0 109.3" fill="url(#gradient26)" fill-rule="evenodd" stroke="none"/>
    <path d="M93.0 109.3 L152.0 109.3 152.0 115.45 93.0 115.45 93.0 109.3" fill="url(#gradient27)" fill-rule="evenodd" stroke="none"/>
    <path d="M82.0 109.3 L93.0 109.3 93.0 115.45 82.0 115.45 82.0 109.3" fill="url(#gradient28)" fill-rule="evenodd" stroke="none"/>
    <path d="M73.0 -86.05 L-51.9 -86.05 -56.5 -81.4 -56.5 -53.05 -56.5 -19.05 -56.5 46.95 -56.5 73.0 -56.5 111.6 -52.65 115.45 73.0 115.45 82.0 115.45 93.0 115.45 152.0 115.45 282.05 115.45 282.05 73.0 282.05 46.95 282.05 -19.05 282.05 -53.05 282.05 -65.55 261.55 -86.05 152.0 -86.05 93.0 -86.05 82.0 -86.05 73.0 -86.05 Z" fill="none" stroke="#035eef" stroke-linecap="butt" stroke-linejoin="miter-clip" stroke-miterlimit="4.0" stroke-width="1.0"/>
    <path d="M98.8 57.5 L103.4 56.5 105.95 57.85 104.8 67.65 102.55 68.1 101.4 67.35 98.8 57.5" fill="url(#gradient29)" fill-rule="evenodd" stroke="none"/>
    <path d="M100.85 58.9 L98.8 57.5 103.4 56.5 105.95 57.85 100.85 58.9" fill="#4f4f4f" fill-rule="evenodd" stroke="none"/>
    <path d="M139.35 58.4 L135.7 68.35 134.6 69.1 132.35 68.65 131.3 58.1 134.25 56.85 139.35 58.4" fill="url(#gradient30)" fill-rule="evenodd" stroke="none"/>
    <path d="M136.15 59.75 L131.3 58.1 134.25 56.85 139.35 58.4 136.15 59.75" fill="#4f4f4f" fill-rule="evenodd" stroke="none"/>
    <path d="M147.6 72.8 Q147.6 78.55 138.75 82.6 129.95 86.65 117.45 86.65 104.95 86.65 96.15 82.6 87.3 78.55 87.3 72.8 87.3 67.1 96.15 63.05 104.95 59.0 117.45 59.0 129.95 59.0 138.75 63.05 147.6 67.1 147.6 72.8" fill="url(#gradient31)" fill-rule="evenodd" stroke="none"/>
    <path d="M147.6 70.6 Q147.6 76.3 138.75 80.4 129.95 84.45 117.45 84.45 104.95 84.45 96.15 80.4 87.3 76.3 87.3 70.6 87.3 64.85 96.15 60.8 104.95 56.75 117.45 56.75 129.95 56.75 138.75 60.8 147.6 64.85 147.6 70.6" fill="url(#gradient32)" fill-rule="evenodd" stroke="none"/>
    <path d="M135.8 61.4 Q143.4 64.7 143.4 69.4 143.4 74.1 135.8 77.45 128.2 80.75 117.45 80.75 106.7 80.75 99.1 77.45 91.5 74.1 91.5 69.4 91.5 64.7 99.1 61.4 106.7 58.05 117.45 58.05 128.2 58.05 135.8 61.4" fill="#131821" fill-rule="evenodd" stroke="none"/>
  </g>
  <defs>
    <linearGradient gradientTransform="matrix(0.0, -0.15, -0.2183, 0.0, -35.05, 17.05)" gradientUnits="userSpaceOnUse" id="gradient0" spreadMethod="pad" x1="-819.2" x2="819.2">
      <stop offset="0.0" stop-color="#021749"/>
      <stop offset="1.0" stop-color="#05307a"/>
    </linearGradient>
    <linearGradient gradientTransform="matrix(0.0, -0.15, -0.2183, 0.0, 39.0, 17.05)" gradientUnits="userSpaceOnUse" id="gradient1" spreadMethod="pad" x1="-819.2" x2="819.2">
      <stop offset="0.0" stop-color="#021749"/>
      <stop offset="1.0" stop-color="#05307a"/>
    </linearGradient>
    <linearGradient gradientTransform="matrix(0.0, 0.15, -0.2183, 0.0, 39.0, 18.9)" gradientUnits="userSpaceOnUse" id="gradient2" spreadMethod="pad" x1="-819.2" x2="819.2">
      <stop offset="0.0" stop-color="#021749"/>
      <stop offset="1.0" stop-color="#05307a"/>
    </linearGradient>
    <linearGradient gradientTransform="matrix(0.0, -0.15, -0.2183, 0.0, 39.0, -2.95)" gradientUnits="userSpaceOnUse" id="gradient3" spreadMethod="pad" x1="-819.2" x2="819.2">
      <stop offset="0.0" stop-color="#021749"/>
      <stop offset="1.0" stop-color="#05307a"/>
    </linearGradient>
    <linearGradient gradientTransform="matrix(0.0, -0.15, -0.2183, 0.0, -35.05, -2.95)" gradientUnits="userSpaceOnUse" id="gradient4" spreadMethod="pad" x1="-819.2" x2="819.2">
      <stop offset="0.0" stop-color="#021749"/>
      <stop offset="1.0" stop-color="#05307a"/>
    </linearGradient>
    <linearGradient gradientTransform="matrix(0.0, -0.0082, -0.0074, 0.0, 1.65, -102.65)" gradientUnits="userSpaceOnUse" id="gradient5" spreadMethod="pad" x1="-819.2" x2="819.2">
      <stop offset="0.0" stop-color="#a4a4a4"/>
      <stop offset="1.0" stop-color="#505050"/>
    </linearGradient>
    <linearGradient gradientTransform="matrix(-0.0038, 0.0, 0.0, 0.0038, -281.55, -81.2)" gradientUnits="userSpaceOnUse" id="gradient6" spreadMethod="pad" x1="-819.2" x2="819.2">
      <stop offset="0.0" stop-color="#505050"/>
      <stop offset="1.0" stop-color="#a4a4a4"/>
    </linearGradient>
    <linearGradient gradientTransform="matrix(-0.0038, 0.0, 0.0, -0.0038, 286.6, -85.25)" gradientUnits="userSpaceOnUse" id="gradient7" spreadMethod="pad" x1="-819.2" x2="819.2">
      <stop offset="0.0" stop-color="#505050"/>
      <stop offset="1.0" stop-color="#a4a4a4"/>
    </linearGradient>
    <linearGradient gradientTransform="matrix(0.0, -0.0195, 0.0195, 0.0, 1.6, -121.05)" gradientUnits="userSpaceOnUse" id="gradient8" spreadMethod="pad" x1="-819.2" x2="819.2">
      <stop offset="0.0" stop-color="#373737"/>
      <stop offset="0.6549019607843137" stop-color="#a4a4a4"/>
      <stop offset="0.803921568627451" stop-color="#a4a4a4"/>
      <stop offset="1.0" stop-color="#6b6b6b"/>
    </linearGradient>
    <linearGradient gradientTransform="matrix(0.0016, 0.0038, 0.0089, -0.0037, -67.8, -95.1)" gradientUnits="userSpaceOnUse" id="gradient9" spreadMethod="pad" x1="-819.2" x2="819.2">
      <stop offset="0.0" stop-color="#505050"/>
      <stop offset="0.09803921568627451" stop-color="#373737"/>
      <stop offset="0.5254901960784314" stop-color="#6e6861"/>
      <stop offset="0.8862745098039215" stop-color="#3d3d3d"/>
      <stop offset="1.0" stop-color="#505050"/>
    </linearGradient>
    <linearGradient gradientTransform="matrix(-0.0016, 0.0038, -0.0089, -0.0037, 71.1, -95.1)" gradientUnits="userSpaceOnUse" id="gradient10" spreadMethod="pad" x1="-819.2" x2="819.2">
      <stop offset="0.0" stop-color="#505050"/>
      <stop offset="0.09803921568627451" stop-color="#373737"/>
      <stop offset="0.5254901960784314" stop-color="#6e6861"/>
      <stop offset="0.8862745098039215" stop-color="#3d3d3d"/>
      <stop offset="1.0" stop-color="#505050"/>
    </linearGradient>
    <linearGradient gradientTransform="matrix(-0.005, 0.009, 0.009, 0.005, 30.65, -113.05)" gradientUnits="userSpaceOnUse" id="gradient11" spreadMethod="pad" x1="-819.2" x2="819.2">
      <stop offset="0.0" stop-color="#505050"/>
      <stop offset="0.09803921568627451" stop-color="#373737"/>
      <stop offset="0.5254901960784314" stop-color="#6e6963"/>
      <stop offset="0.8862745098039215" stop-color="#3d3d3d"/>
      <stop offset="1.0" stop-color="#505050"/>
    </linearGradient>
    <linearGradient gradientTransform="matrix(0.005, 0.009, -0.009, 0.005, -28.2, -113.05)" gradientUnits="userSpaceOnUse" id="gradient12" spreadMethod="pad" x1="-819.2" x2="819.2">
      <stop offset="0.0" stop-color="#505050"/>
      <stop offset="0.09803921568627451" stop-color="#373737"/>
      <stop offset="0.5254901960784314" stop-color="#6e6963"/>
      <stop offset="0.8862745098039215" stop-color="#3d3d3d"/>
      <stop offset="1.0" stop-color="#505050"/>
    </linearGradient>
    <linearGradient gradientTransform="matrix(0.0, -0.0759, -0.0759, 0.0, -37.1, -58.1)" gradientUnits="userSpaceOnUse" id="gradient13" spreadMethod="pad" x1="-819.2" x2="819.2">
      <stop offset="0.0" stop-color="#05337a"/>
      <stop offset="0.17647058823529413" stop-color="#032970"/>
      <stop offset="0.4627450980392157" stop-color="#012168"/>
      <stop offset="1.0" stop-color="#001f66"/>
    </linearGradient>
    <linearGradient gradientTransform="matrix(0.0, -0.0759, -0.8306, 0.0, -1131.25, -58.1)" gradientUnits="userSpaceOnUse" id="gradient14" spreadMethod="pad" x1="-819.2" x2="819.2">
      <stop offset="0.0" stop-color="#05337a"/>
      <stop offset="0.17647058823529413" stop-color="#032970"/>
      <stop offset="0.4627450980392157" stop-color="#012168"/>
      <stop offset="1.0" stop-color="#001f66"/>
    </linearGradient>
    <linearGradient gradientTransform="matrix(0.0, -0.0759, -0.0759, 0.0, 9.95, -58.1)" gradientUnits="userSpaceOnUse" id="gradient15" spreadMethod="pad" x1="-819.2" x2="819.2">
      <stop offset="0.0" stop-color="#05337a"/>
      <stop offset="0.17647058823529413" stop-color="#032970"/>
      <stop offset="0.4627450980392157" stop-color="#012168"/>
      <stop offset="1.0" stop-color="#001f66"/>
    </linearGradient>
    <linearGradient gradientTransform="matrix(0.0, -0.0759, -0.8306, 0.0, -1227.25, -58.1)" gradientUnits="userSpaceOnUse" id="gradient16" spreadMethod="pad" x1="-819.2" x2="819.2">
      <stop offset="0.0" stop-color="#05337a"/>
      <stop offset="0.17647058823529413" stop-color="#032970"/>
      <stop offset="0.4627450980392157" stop-color="#012168"/>
      <stop offset="1.0" stop-color="#001f66"/>
    </linearGradient>
    <linearGradient gradientTransform="matrix(0.0, -0.0759, -0.8306, 0.0, -1162.25, -58.1)" gradientUnits="userSpaceOnUse" id="gradient17" spreadMethod="pad" x1="-819.2" x2="819.2">
      <stop offset="0.0" stop-color="#05337a"/>
      <stop offset="0.17647058823529413" stop-color="#032970"/>
      <stop offset="0.4627450980392157" stop-color="#012168"/>
      <stop offset="1.0" stop-color="#001f66"/>
    </linearGradient>
    <linearGradient gradientTransform="matrix(0.0, -1.0927, -0.0759, 0.0, 9.95, -125.75)" gradientUnits="userSpaceOnUse" id="gradient18" spreadMethod="pad" x1="-819.2" x2="819.2">
      <stop offset="0.0" stop-color="#05337a"/>
      <stop offset="0.17647058823529413" stop-color="#032970"/>
      <stop offset="0.4627450980392157" stop-color="#012168"/>
      <stop offset="1.0" stop-color="#001f66"/>
    </linearGradient>
    <linearGradient gradientTransform="matrix(0.0, -3.5968, -0.0759, 0.0, 9.95, -370.25)" gradientUnits="userSpaceOnUse" id="gradient19" spreadMethod="pad" x1="-819.2" x2="819.2">
      <stop offset="0.0" stop-color="#05337a"/>
      <stop offset="0.17647058823529413" stop-color="#032970"/>
      <stop offset="0.4627450980392157" stop-color="#012168"/>
      <stop offset="1.0" stop-color="#001f66"/>
    </linearGradient>
    <linearGradient gradientTransform="matrix(0.0, -1.0927, -0.0759, 0.0, -37.1, -125.75)" gradientUnits="userSpaceOnUse" id="gradient20" spreadMethod="pad" x1="-819.2" x2="819.2">
      <stop offset="0.0" stop-color="#05337a"/>
      <stop offset="0.17647058823529413" stop-color="#032970"/>
      <stop offset="0.4627450980392157" stop-color="#012168"/>
      <stop offset="1.0" stop-color="#001f66"/>
    </linearGradient>
    <linearGradient gradientTransform="matrix(0.0, -3.5968, -0.0759, 0.0, -37.1, -370.25)" gradientUnits="userSpaceOnUse" id="gradient21" spreadMethod="pad" x1="-819.2" x2="819.2">
      <stop offset="0.0" stop-color="#05337a"/>
      <stop offset="0.17647058823529413" stop-color="#032970"/>
      <stop offset="0.4627450980392157" stop-color="#012168"/>
      <stop offset="1.0" stop-color="#001f66"/>
    </linearGradient>
    <linearGradient gradientTransform="matrix(0.0, -1.0927, -0.0759, 0.0, -37.1, -99.7)" gradientUnits="userSpaceOnUse" id="gradient22" spreadMethod="pad" x1="-819.2" x2="819.2">
      <stop offset="0.0" stop-color="#05337a"/>
      <stop offset="0.17647058823529413" stop-color="#032970"/>
      <stop offset="0.4627450980392157" stop-color="#012168"/>
      <stop offset="1.0" stop-color="#001f66"/>
    </linearGradient>
    <linearGradient gradientTransform="matrix(0.0, -0.0759, -0.0759, 0.0, -37.1, 61.0)" gradientUnits="userSpaceOnUse" id="gradient23" spreadMethod="pad" x1="-819.2" x2="819.2">
      <stop offset="0.0" stop-color="#05337a"/>
      <stop offset="0.17647058823529413" stop-color="#032970"/>
      <stop offset="0.4627450980392157" stop-color="#012168"/>
      <stop offset="1.0" stop-color="#001f66"/>
    </linearGradient>
    <linearGradient gradientTransform="matrix(0.0, -1.0927, -0.0759, 0.0, 9.95, -99.7)" gradientUnits="userSpaceOnUse" id="gradient24" spreadMethod="pad" x1="-819.2" x2="819.2">
      <stop offset="0.0" stop-color="#05337a"/>
      <stop offset="0.17647058823529413" stop-color="#032970"/>
      <stop offset="0.4627450980392157" stop-color="#012168"/>
      <stop offset="1.0" stop-color="#001f66"/>
    </linearGradient>
    <linearGradient gradientTransform="matrix(0.0, -0.0759, -0.0759, 0.0, 9.95, 61.0)" gradientUnits="userSpaceOnUse" id="gradient25" spreadMethod="pad" x1="-819.2" x2="819.2">
      <stop offset="0.0" stop-color="#05337a"/>
      <stop offset="0.17647058823529413" stop-color="#032970"/>
      <stop offset="0.4627450980392157" stop-color="#012168"/>
      <stop offset="1.0" stop-color="#001f66"/>
    </linearGradient>
    <linearGradient gradientTransform="matrix(0.0, -0.0759, -0.8306, 0.0, -1131.25, 61.0)" gradientUnits="userSpaceOnUse" id="gradient26" spreadMethod="pad" x1="-819.2" x2="819.2">
      <stop offset="0.0" stop-color="#05337a"/>
      <stop offset="0.17647058823529413" stop-color="#032970"/>
      <stop offset="0.4627450980392157" stop-color="#012168"/>
      <stop offset="1.0" stop-color="#001f66"/>
    </linearGradient>
    <linearGradient gradientTransform="matrix(0.0, -0.0759, -0.8306, 0.0, -1227.25, 61.0)" gradientUnits="userSpaceOnUse" id="gradient27" spreadMethod="pad" x1="-819.2" x2="819.2">
      <stop offset="0.0" stop-color="#05337a"/>
      <stop offset="0.17647058823529413" stop-color="#032970"/>
      <stop offset="0.4627450980392157" stop-color="#012168"/>
      <stop offset="1.0" stop-color="#001f66"/>
    </linearGradient>
    <linearGradient gradientTransform="matrix(0.0, -0.0759, -0.8306, 0.0, -1162.25, 61.0)" gradientUnits="userSpaceOnUse" id="gradient28" spreadMethod="pad" x1="-819.2" x2="819.2">
      <stop offset="0.0" stop-color="#05337a"/>
      <stop offset="0.17647058823529413" stop-color="#032970"/>
      <stop offset="0.4627450980392157" stop-color="#012168"/>
      <stop offset="1.0" stop-color="#001f66"/>
    </linearGradient>
    <linearGradient gradientTransform="matrix(6.0E-4, 0.007, -0.007, 6.0E-4, 102.75, 62.3)" gradientUnits="userSpaceOnUse" id="gradient29" spreadMethod="pad" x1="-819.2" x2="819.2">
      <stop offset="0.0" stop-color="#262626"/>
      <stop offset="0.7215686274509804" stop-color="#737375"/>
      <stop offset="1.0" stop-color="#262626"/>
    </linearGradient>
    <linearGradient gradientTransform="matrix(6.0E-4, -0.0074, -0.0074, -6.0E-4, 134.95, 63.05)" gradientUnits="userSpaceOnUse" id="gradient30" spreadMethod="pad" x1="-819.2" x2="819.2">
      <stop offset="0.0" stop-color="#262626"/>
      <stop offset="0.7215686274509804" stop-color="#737375"/>
      <stop offset="1.0" stop-color="#262626"/>
    </linearGradient>
    <linearGradient gradientTransform="matrix(0.0, -0.0169, -0.0169, 0.0, 117.45, 72.8)" gradientUnits="userSpaceOnUse" id="gradient31" spreadMethod="pad" x1="-819.2" x2="819.2">
      <stop offset="0.0" stop-color="#282828"/>
      <stop offset="0.9058823529411765" stop-color="#a4a4a4"/>
      <stop offset="1.0" stop-color="#373737"/>
    </linearGradient>
    <linearGradient gradientTransform="matrix(0.0, -0.0169, -0.0169, 0.0, 117.45, 70.6)" gradientUnits="userSpaceOnUse" id="gradient32" spreadMethod="pad" x1="-819.2" x2="819.2">
      <stop offset="0.0" stop-color="#a4a4a4"/>
      <stop offset="1.0" stop-color="#282828"/>
    </linearGradient>
  </defs>
</svg>
