<?xml version="1.0" encoding="UTF-8" standalone="no"?>
<svg xmlns:ffdec="https://www.free-decompiler.com/flash" xmlns:xlink="http://www.w3.org/1999/xlink" ffdec:objectType="shape" height="95.8px" width="60.3px" xmlns="http://www.w3.org/2000/svg">
  <g transform="matrix(1.0, 0.0, 0.0, 1.0, -87.3, -1.65)">
    <path d="M140.0 96.55 L138.1 97.45 137.35 91.4 140.7 91.4 140.0 96.55" fill="url(#gradient0)" fill-rule="evenodd" stroke="none"/>
    <path d="M134.25 82.1 L141.0 79.35 143.8 81.35 141.2 91.95 138.25 93.55 136.8 92.55 134.25 82.1" fill="url(#gradient1)" fill-rule="evenodd" stroke="none"/>
    <path d="M137.6 84.4 L134.25 82.1 141.0 79.35 143.8 81.35 137.6 84.4" fill="#8c8c8c" fill-rule="evenodd" stroke="none"/>
    <path d="M137.6 84.4 L138.25 93.55 136.8 92.55 134.25 82.1 137.6 84.4" fill="#4f4f4f" fill-rule="evenodd" stroke="none"/>
    <path d="M95.15 96.55 L94.45 91.4 97.8 91.4 97.05 97.45 95.15 96.55" fill="url(#gradient2)" fill-rule="evenodd" stroke="none"/>
    <path d="M100.75 82.1 L98.2 92.55 96.75 93.55 93.8 91.95 90.6 81.9 94.05 79.35 100.75 82.1" fill="url(#gradient3)" fill-rule="evenodd" stroke="none"/>
    <path d="M97.45 84.4 L90.6 81.9 94.05 79.35 100.75 82.1 97.45 84.4" fill="#8c8c8c" fill-rule="evenodd" stroke="none"/>
    <path d="M97.45 84.4 L100.75 82.1 98.2 92.55 96.75 93.55 97.45 84.4" fill="#4f4f4f" fill-rule="evenodd" stroke="none"/>
    <path d="M98.8 2.65 L103.4 1.65 105.95 3.0 104.8 12.8 102.55 13.25 101.4 12.5 98.8 2.65" fill="url(#gradient4)" fill-rule="evenodd" stroke="none"/>
    <path d="M100.85 4.05 L98.8 2.65 103.4 1.65 105.95 3.0 100.85 4.05" fill="#4f4f4f" fill-rule="evenodd" stroke="none"/>
    <path d="M139.35 3.55 L135.7 13.5 134.6 14.25 132.35 13.8 131.3 3.25 134.25 2.0 139.35 3.55" fill="url(#gradient5)" fill-rule="evenodd" stroke="none"/>
    <path d="M136.15 4.9 L131.3 3.25 134.25 2.0 139.35 3.55 136.15 4.9" fill="#4f4f4f" fill-rule="evenodd" stroke="none"/>
    <path d="M147.6 17.95 Q147.6 23.7 138.75 27.75 129.95 31.8 117.45 31.8 104.95 31.8 96.15 27.75 87.3 23.7 87.3 17.95 87.3 12.25 96.15 8.2 104.95 4.15 117.45 4.15 129.95 4.15 138.75 8.2 147.6 12.25 147.6 17.95" fill="url(#gradient6)" fill-rule="evenodd" stroke="none"/>
    <path d="M147.6 15.75 Q147.6 21.45 138.75 25.55 129.95 29.6 117.45 29.6 104.95 29.6 96.15 25.55 87.3 21.45 87.3 15.75 87.3 10.0 96.15 5.95 104.95 1.9 117.45 1.9 129.95 1.9 138.75 5.95 147.6 10.0 147.6 15.75" fill="url(#gradient7)" fill-rule="evenodd" stroke="none"/>
    <path d="M135.8 6.55 Q143.4 9.85 143.4 14.55 143.4 19.25 135.8 22.6 128.2 25.9 117.45 25.9 106.7 25.9 99.1 22.6 91.5 19.25 91.5 14.55 91.5 9.85 99.1 6.55 106.7 3.2 117.45 3.2 128.2 3.2 135.8 6.55" fill="#131821" fill-rule="evenodd" stroke="none"/>
  </g>
  <defs>
    <linearGradient gradientTransform="matrix(0.0, 0.0037, -0.0037, 0.0, 139.0, 94.4)" gradientUnits="userSpaceOnUse" id="gradient0" spreadMethod="pad" x1="-819.2" x2="819.2">
      <stop offset="0.0" stop-color="#00e0ff" stop-opacity="0.7490196"/>
      <stop offset="1.0" stop-color="#00e0ff" stop-opacity="0.02745098"/>
    </linearGradient>
    <linearGradient gradientTransform="matrix(7.0E-4, 0.0085, -0.0085, 7.0E-4, 139.4, 86.45)" gradientUnits="userSpaceOnUse" id="gradient1" spreadMethod="pad" x1="-819.2" x2="819.2">
      <stop offset="0.0" stop-color="#262626"/>
      <stop offset="0.7215686274509804" stop-color="#737375"/>
      <stop offset="1.0" stop-color="#262626"/>
    </linearGradient>
    <linearGradient gradientTransform="matrix(0.0, 0.0037, 0.0037, 0.0, 96.15, 94.4)" gradientUnits="userSpaceOnUse" id="gradient2" spreadMethod="pad" x1="-819.2" x2="819.2">
      <stop offset="0.0" stop-color="#00e0ff" stop-opacity="0.7490196"/>
      <stop offset="1.0" stop-color="#00e0ff" stop-opacity="0.02745098"/>
    </linearGradient>
    <linearGradient gradientTransform="matrix(7.0E-4, -0.0085, -0.0085, -7.0E-4, 95.3, 86.45)" gradientUnits="userSpaceOnUse" id="gradient3" spreadMethod="pad" x1="-819.2" x2="819.2">
      <stop offset="0.0" stop-color="#262626"/>
      <stop offset="0.7215686274509804" stop-color="#737375"/>
      <stop offset="1.0" stop-color="#262626"/>
    </linearGradient>
    <linearGradient gradientTransform="matrix(6.0E-4, 0.007, -0.007, 6.0E-4, 102.75, 7.45)" gradientUnits="userSpaceOnUse" id="gradient4" spreadMethod="pad" x1="-819.2" x2="819.2">
      <stop offset="0.0" stop-color="#262626"/>
      <stop offset="0.7215686274509804" stop-color="#737375"/>
      <stop offset="1.0" stop-color="#262626"/>
    </linearGradient>
    <linearGradient gradientTransform="matrix(6.0E-4, -0.0074, -0.0074, -6.0E-4, 134.95, 8.2)" gradientUnits="userSpaceOnUse" id="gradient5" spreadMethod="pad" x1="-819.2" x2="819.2">
      <stop offset="0.0" stop-color="#262626"/>
      <stop offset="0.7215686274509804" stop-color="#737375"/>
      <stop offset="1.0" stop-color="#262626"/>
    </linearGradient>
    <linearGradient gradientTransform="matrix(0.0, -0.0169, -0.0169, 0.0, 117.45, 17.95)" gradientUnits="userSpaceOnUse" id="gradient6" spreadMethod="pad" x1="-819.2" x2="819.2">
      <stop offset="0.0" stop-color="#282828"/>
      <stop offset="0.9058823529411765" stop-color="#a4a4a4"/>
      <stop offset="1.0" stop-color="#373737"/>
    </linearGradient>
    <linearGradient gradientTransform="matrix(0.0, -0.0169, -0.0169, 0.0, 117.45, 15.75)" gradientUnits="userSpaceOnUse" id="gradient7" spreadMethod="pad" x1="-819.2" x2="819.2">
      <stop offset="0.0" stop-color="#a4a4a4"/>
      <stop offset="1.0" stop-color="#282828"/>
    </linearGradient>
  </defs>
</svg>
