<?xml version="1.0" encoding="UTF-8" standalone="no"?>
<svg xmlns:ffdec="https://www.free-decompiler.com/flash" xmlns:xlink="http://www.w3.org/1999/xlink" ffdec:objectType="shape" height="87.05px" width="112.8px" xmlns="http://www.w3.org/2000/svg">
  <g transform="matrix(1.0, 0.0, 0.0, 1.0, -90.85, 26.65)">
    <path d="M140.25 -9.45 L138.35 -8.55 137.6 -14.6 140.95 -14.6 140.25 -9.45" fill="url(#gradient0)" fill-rule="evenodd" stroke="none"/>
    <path d="M134.5 -23.9 L141.25 -26.65 144.05 -24.65 141.45 -14.05 138.5 -12.45 137.05 -13.45 134.5 -23.9" fill="url(#gradient1)" fill-rule="evenodd" stroke="none"/>
    <path d="M137.85 -21.6 L134.5 -23.9 141.25 -26.65 144.05 -24.65 137.85 -21.6" fill="#8c8c8c" fill-rule="evenodd" stroke="none"/>
    <path d="M137.85 -21.6 L138.5 -12.45 137.05 -13.45 134.5 -23.9 137.85 -21.6" fill="#4f4f4f" fill-rule="evenodd" stroke="none"/>
    <path d="M95.4 -9.45 L94.7 -14.6 98.05 -14.6 97.3 -8.55 95.4 -9.45" fill="url(#gradient2)" fill-rule="evenodd" stroke="none"/>
    <path d="M101.0 -23.9 L98.45 -13.45 97.0 -12.45 94.05 -14.05 90.85 -24.1 94.3 -26.65 101.0 -23.9" fill="url(#gradient3)" fill-rule="evenodd" stroke="none"/>
    <path d="M97.7 -21.6 L90.85 -24.1 94.3 -26.65 101.0 -23.9 97.7 -21.6" fill="#8c8c8c" fill-rule="evenodd" stroke="none"/>
    <path d="M97.7 -21.6 L101.0 -23.9 98.45 -13.45 97.0 -12.45 97.7 -21.6" fill="#4f4f4f" fill-rule="evenodd" stroke="none"/>
    <path d="M154.85 31.25 L159.45 30.25 162.0 31.6 160.85 41.4 158.6 41.85 157.45 41.1 154.85 31.25" fill="url(#gradient4)" fill-rule="evenodd" stroke="none"/>
    <path d="M156.9 32.65 L154.85 31.25 159.45 30.25 162.0 31.6 156.9 32.65" fill="#4f4f4f" fill-rule="evenodd" stroke="none"/>
    <path d="M195.4 32.15 L191.75 42.1 190.65 42.85 188.4 42.4 187.35 31.85 190.3 30.6 195.4 32.15" fill="url(#gradient5)" fill-rule="evenodd" stroke="none"/>
    <path d="M192.2 33.5 L187.35 31.85 190.3 30.6 195.4 32.15 192.2 33.5" fill="#4f4f4f" fill-rule="evenodd" stroke="none"/>
    <path d="M203.65 46.55 Q203.65 52.3 194.8 56.35 186.0 60.4 173.5 60.4 161.0 60.4 152.2 56.35 143.35 52.3 143.35 46.55 143.35 40.85 152.2 36.8 161.0 32.75 173.5 32.75 186.0 32.75 194.8 36.8 203.65 40.85 203.65 46.55" fill="url(#gradient6)" fill-rule="evenodd" stroke="none"/>
    <path d="M203.65 44.35 Q203.65 50.05 194.8 54.15 186.0 58.2 173.5 58.2 161.0 58.2 152.2 54.15 143.35 50.05 143.35 44.35 143.35 38.6 152.2 34.55 161.0 30.5 173.5 30.5 186.0 30.5 194.8 34.55 203.65 38.6 203.65 44.35" fill="url(#gradient7)" fill-rule="evenodd" stroke="none"/>
    <path d="M191.85 35.15 Q199.45 38.45 199.45 43.15 199.45 47.85 191.85 51.2 184.25 54.5 173.5 54.5 162.75 54.5 155.15 51.2 147.55 47.85 147.55 43.15 147.55 38.45 155.15 35.15 162.75 31.8 173.5 31.8 184.25 31.8 191.85 35.15" fill="#131821" fill-rule="evenodd" stroke="none"/>
  </g>
  <defs>
    <linearGradient gradientTransform="matrix(0.0, 0.0037, -0.0037, 0.0, 139.25, -11.6)" gradientUnits="userSpaceOnUse" id="gradient0" spreadMethod="pad" x1="-819.2" x2="819.2">
      <stop offset="0.0" stop-color="#00e0ff" stop-opacity="0.7490196"/>
      <stop offset="1.0" stop-color="#00e0ff" stop-opacity="0.02745098"/>
    </linearGradient>
    <linearGradient gradientTransform="matrix(7.0E-4, 0.0085, -0.0085, 7.0E-4, 139.65, -19.55)" gradientUnits="userSpaceOnUse" id="gradient1" spreadMethod="pad" x1="-819.2" x2="819.2">
      <stop offset="0.0" stop-color="#262626"/>
      <stop offset="0.7215686274509804" stop-color="#737375"/>
      <stop offset="1.0" stop-color="#262626"/>
    </linearGradient>
    <linearGradient gradientTransform="matrix(0.0, 0.0037, 0.0037, 0.0, 96.4, -11.6)" gradientUnits="userSpaceOnUse" id="gradient2" spreadMethod="pad" x1="-819.2" x2="819.2">
      <stop offset="0.0" stop-color="#00e0ff" stop-opacity="0.7490196"/>
      <stop offset="1.0" stop-color="#00e0ff" stop-opacity="0.02745098"/>
    </linearGradient>
    <linearGradient gradientTransform="matrix(7.0E-4, -0.0085, -0.0085, -7.0E-4, 95.55, -19.55)" gradientUnits="userSpaceOnUse" id="gradient3" spreadMethod="pad" x1="-819.2" x2="819.2">
      <stop offset="0.0" stop-color="#262626"/>
      <stop offset="0.7215686274509804" stop-color="#737375"/>
      <stop offset="1.0" stop-color="#262626"/>
    </linearGradient>
    <linearGradient gradientTransform="matrix(6.0E-4, 0.007, -0.007, 6.0E-4, 158.8, 36.05)" gradientUnits="userSpaceOnUse" id="gradient4" spreadMethod="pad" x1="-819.2" x2="819.2">
      <stop offset="0.0" stop-color="#262626"/>
      <stop offset="0.7215686274509804" stop-color="#737375"/>
      <stop offset="1.0" stop-color="#262626"/>
    </linearGradient>
    <linearGradient gradientTransform="matrix(6.0E-4, -0.0074, -0.0074, -6.0E-4, 191.0, 36.8)" gradientUnits="userSpaceOnUse" id="gradient5" spreadMethod="pad" x1="-819.2" x2="819.2">
      <stop offset="0.0" stop-color="#262626"/>
      <stop offset="0.7215686274509804" stop-color="#737375"/>
      <stop offset="1.0" stop-color="#262626"/>
    </linearGradient>
    <linearGradient gradientTransform="matrix(0.0, -0.0169, -0.0169, 0.0, 173.5, 46.55)" gradientUnits="userSpaceOnUse" id="gradient6" spreadMethod="pad" x1="-819.2" x2="819.2">
      <stop offset="0.0" stop-color="#282828"/>
      <stop offset="0.9058823529411765" stop-color="#a4a4a4"/>
      <stop offset="1.0" stop-color="#373737"/>
    </linearGradient>
    <linearGradient gradientTransform="matrix(0.0, -0.0169, -0.0169, 0.0, 173.5, 44.35)" gradientUnits="userSpaceOnUse" id="gradient7" spreadMethod="pad" x1="-819.2" x2="819.2">
      <stop offset="0.0" stop-color="#a4a4a4"/>
      <stop offset="1.0" stop-color="#282828"/>
    </linearGradient>
  </defs>
</svg>
