<?xml version="1.0" encoding="UTF-8" standalone="no"?>
<svg xmlns:ffdec="https://www.free-decompiler.com/flash" xmlns:xlink="http://www.w3.org/1999/xlink" ffdec:objectType="shape" height="68.3px" width="114.8px" xmlns="http://www.w3.org/2000/svg">
  <g transform="matrix(1.0, 0.0, 0.0, 1.0, -146.65, -2.9)">
    <path d="M196.05 70.3 L194.15 71.2 193.4 65.15 196.75 65.15 196.05 70.3" fill="url(#gradient0)" fill-rule="evenodd" stroke="none"/>
    <path d="M190.3 55.85 L197.05 53.1 199.85 55.1 197.25 65.7 194.3 67.3 192.85 66.3 190.3 55.85" fill="url(#gradient1)" fill-rule="evenodd" stroke="none"/>
    <path d="M193.65 58.15 L190.3 55.85 197.05 53.1 199.85 55.1 193.65 58.15" fill="#8c8c8c" fill-rule="evenodd" stroke="none"/>
    <path d="M193.65 58.15 L194.3 67.3 192.85 66.3 190.3 55.85 193.65 58.15" fill="#4f4f4f" fill-rule="evenodd" stroke="none"/>
    <path d="M151.2 70.3 L150.5 65.15 153.85 65.15 153.1 71.2 151.2 70.3" fill="url(#gradient2)" fill-rule="evenodd" stroke="none"/>
    <path d="M156.8 55.85 L154.25 66.3 152.8 67.3 149.85 65.7 146.65 55.65 150.1 53.1 156.8 55.85" fill="url(#gradient3)" fill-rule="evenodd" stroke="none"/>
    <path d="M153.5 58.15 L146.65 55.65 150.1 53.1 156.8 55.85 153.5 58.15" fill="#8c8c8c" fill-rule="evenodd" stroke="none"/>
    <path d="M153.5 58.15 L156.8 55.85 154.25 66.3 152.8 67.3 153.5 58.15" fill="#4f4f4f" fill-rule="evenodd" stroke="none"/>
    <path d="M212.65 3.9 L217.25 2.9 219.8 4.25 218.65 14.05 216.4 14.5 215.25 13.75 212.65 3.9" fill="url(#gradient4)" fill-rule="evenodd" stroke="none"/>
    <path d="M214.7 5.3 L212.65 3.9 217.25 2.9 219.8 4.25 214.7 5.3" fill="#4f4f4f" fill-rule="evenodd" stroke="none"/>
    <path d="M253.2 4.8 L249.55 14.75 248.45 15.5 246.2 15.05 245.15 4.5 Q246.65 3.85 248.1 3.25 L253.2 4.8" fill="url(#gradient5)" fill-rule="evenodd" stroke="none"/>
    <path d="M250.0 6.15 L245.15 4.5 Q246.65 3.85 248.1 3.25 L253.2 4.8 250.0 6.15" fill="#4f4f4f" fill-rule="evenodd" stroke="none"/>
    <path d="M261.45 19.2 Q261.45 24.95 252.6 29.0 243.8 33.05 231.3 33.05 218.8 33.05 210.0 29.0 201.15 24.95 201.15 19.2 201.15 13.5 210.0 9.45 218.8 5.4 231.3 5.4 243.8 5.4 252.6 9.45 261.45 13.5 261.45 19.2" fill="url(#gradient6)" fill-rule="evenodd" stroke="none"/>
    <path d="M261.45 17.0 Q261.45 22.7 252.6 26.8 243.8 30.85 231.3 30.85 218.8 30.85 210.0 26.8 201.15 22.7 201.15 17.0 201.15 11.25 210.0 7.2 218.8 3.15 231.3 3.15 243.8 3.15 252.6 7.2 261.45 11.25 261.45 17.0" fill="url(#gradient7)" fill-rule="evenodd" stroke="none"/>
    <path d="M249.65 7.8 Q257.25 11.1 257.25 15.8 257.25 20.5 249.65 23.85 242.05 27.15 231.3 27.15 220.55 27.15 212.95 23.85 205.35 20.5 205.35 15.8 205.35 11.1 212.95 7.8 220.55 4.45 231.3 4.45 242.05 4.45 249.65 7.8" fill="#131821" fill-rule="evenodd" stroke="none"/>
  </g>
  <defs>
    <linearGradient gradientTransform="matrix(0.0, 0.0037, -0.0037, 0.0, 195.05, 68.15)" gradientUnits="userSpaceOnUse" id="gradient0" spreadMethod="pad" x1="-819.2" x2="819.2">
      <stop offset="0.0" stop-color="#00e0ff" stop-opacity="0.7490196"/>
      <stop offset="1.0" stop-color="#00e0ff" stop-opacity="0.02745098"/>
    </linearGradient>
    <linearGradient gradientTransform="matrix(7.0E-4, 0.0085, -0.0085, 7.0E-4, 195.45, 60.2)" gradientUnits="userSpaceOnUse" id="gradient1" spreadMethod="pad" x1="-819.2" x2="819.2">
      <stop offset="0.0" stop-color="#262626"/>
      <stop offset="0.7215686274509804" stop-color="#737375"/>
      <stop offset="1.0" stop-color="#262626"/>
    </linearGradient>
    <linearGradient gradientTransform="matrix(0.0, 0.0037, 0.0037, 0.0, 152.2, 68.15)" gradientUnits="userSpaceOnUse" id="gradient2" spreadMethod="pad" x1="-819.2" x2="819.2">
      <stop offset="0.0" stop-color="#00e0ff" stop-opacity="0.7490196"/>
      <stop offset="1.0" stop-color="#00e0ff" stop-opacity="0.02745098"/>
    </linearGradient>
    <linearGradient gradientTransform="matrix(7.0E-4, -0.0085, -0.0085, -7.0E-4, 151.35, 60.2)" gradientUnits="userSpaceOnUse" id="gradient3" spreadMethod="pad" x1="-819.2" x2="819.2">
      <stop offset="0.0" stop-color="#262626"/>
      <stop offset="0.7215686274509804" stop-color="#737375"/>
      <stop offset="1.0" stop-color="#262626"/>
    </linearGradient>
    <linearGradient gradientTransform="matrix(6.0E-4, 0.007, -0.007, 6.0E-4, 216.6, 8.7)" gradientUnits="userSpaceOnUse" id="gradient4" spreadMethod="pad" x1="-819.2" x2="819.2">
      <stop offset="0.0" stop-color="#262626"/>
      <stop offset="0.7215686274509804" stop-color="#737375"/>
      <stop offset="1.0" stop-color="#262626"/>
    </linearGradient>
    <linearGradient gradientTransform="matrix(6.0E-4, -0.0074, -0.0074, -6.0E-4, 248.8, 9.45)" gradientUnits="userSpaceOnUse" id="gradient5" spreadMethod="pad" x1="-819.2" x2="819.2">
      <stop offset="0.0" stop-color="#262626"/>
      <stop offset="0.7215686274509804" stop-color="#737375"/>
      <stop offset="1.0" stop-color="#262626"/>
    </linearGradient>
    <linearGradient gradientTransform="matrix(0.0, -0.0169, -0.0169, 0.0, 231.3, 19.2)" gradientUnits="userSpaceOnUse" id="gradient6" spreadMethod="pad" x1="-819.2" x2="819.2">
      <stop offset="0.0" stop-color="#282828"/>
      <stop offset="0.9058823529411765" stop-color="#a4a4a4"/>
      <stop offset="1.0" stop-color="#373737"/>
    </linearGradient>
    <linearGradient gradientTransform="matrix(0.0, -0.0169, -0.0169, 0.0, 231.3, 17.0)" gradientUnits="userSpaceOnUse" id="gradient7" spreadMethod="pad" x1="-819.2" x2="819.2">
      <stop offset="0.0" stop-color="#a4a4a4"/>
      <stop offset="1.0" stop-color="#282828"/>
    </linearGradient>
  </defs>
</svg>
