<?xml version="1.0" encoding="UTF-8" standalone="no"?>
<svg xmlns:ffdec="https://www.free-decompiler.com/flash" xmlns:xlink="http://www.w3.org/1999/xlink" ffdec:objectType="shape" height="69.55px" width="114.35px" xmlns="http://www.w3.org/2000/svg">
  <g transform="matrix(1.0, 0.0, 0.0, 1.0, -143.3, 25.7)">
    <path d="M253.85 42.95 L251.95 43.85 251.2 37.8 254.55 37.8 253.85 42.95" fill="url(#gradient0)" fill-rule="evenodd" stroke="none"/>
    <path d="M248.1 28.5 L254.85 25.75 257.65 27.75 255.05 38.35 252.1 39.95 250.65 38.95 248.1 28.5" fill="url(#gradient1)" fill-rule="evenodd" stroke="none"/>
    <path d="M251.45 30.8 L248.1 28.5 254.85 25.75 257.65 27.75 251.45 30.8" fill="#8c8c8c" fill-rule="evenodd" stroke="none"/>
    <path d="M251.45 30.8 L252.1 39.95 250.65 38.95 248.1 28.5 251.45 30.8" fill="#4f4f4f" fill-rule="evenodd" stroke="none"/>
    <path d="M209.0 42.95 L208.3 37.8 211.65 37.8 210.9 43.85 209.0 42.95" fill="url(#gradient2)" fill-rule="evenodd" stroke="none"/>
    <path d="M214.6 28.5 L212.05 38.95 210.6 39.95 207.65 38.35 204.45 28.3 207.9 25.75 214.6 28.5" fill="url(#gradient3)" fill-rule="evenodd" stroke="none"/>
    <path d="M211.3 30.8 L204.45 28.3 207.9 25.75 214.6 28.5 211.3 30.8" fill="#8c8c8c" fill-rule="evenodd" stroke="none"/>
    <path d="M211.3 30.8 L214.6 28.5 212.05 38.95 210.6 39.95 211.3 30.8" fill="#4f4f4f" fill-rule="evenodd" stroke="none"/>
    <path d="M154.8 -24.7 L159.4 -25.7 161.95 -24.35 160.8 -14.55 158.55 -14.1 157.4 -14.85 154.8 -24.7" fill="url(#gradient4)" fill-rule="evenodd" stroke="none"/>
    <path d="M156.85 -23.3 L154.8 -24.7 159.4 -25.7 161.95 -24.35 156.85 -23.3" fill="#4f4f4f" fill-rule="evenodd" stroke="none"/>
    <path d="M195.35 -23.8 L191.7 -13.85 190.6 -13.1 188.35 -13.55 187.3 -24.1 190.25 -25.35 195.35 -23.8" fill="url(#gradient5)" fill-rule="evenodd" stroke="none"/>
    <path d="M192.15 -22.45 L187.3 -24.1 190.25 -25.35 195.35 -23.8 192.15 -22.45" fill="#4f4f4f" fill-rule="evenodd" stroke="none"/>
    <path d="M203.6 -9.4 Q203.6 -3.65 194.75 0.4 185.95 4.45 173.45 4.45 160.95 4.45 152.15 0.4 143.3 -3.65 143.3 -9.4 143.3 -15.1 152.15 -19.15 160.95 -23.2 173.45 -23.2 185.95 -23.2 194.75 -19.15 203.6 -15.1 203.6 -9.4" fill="url(#gradient6)" fill-rule="evenodd" stroke="none"/>
    <path d="M203.6 -11.6 Q203.6 -5.9 194.75 -1.8 185.95 2.25 173.45 2.25 160.95 2.25 152.15 -1.8 143.3 -5.9 143.3 -11.6 143.3 -17.35 152.15 -21.4 160.95 -25.45 173.45 -25.45 185.95 -25.45 194.75 -21.4 203.6 -17.35 203.6 -11.6" fill="url(#gradient7)" fill-rule="evenodd" stroke="none"/>
    <path d="M191.8 -20.8 Q199.4 -17.5 199.4 -12.8 199.4 -8.1 191.8 -4.75 184.2 -1.45 173.45 -1.45 162.7 -1.45 155.1 -4.75 147.5 -8.1 147.5 -12.8 147.5 -17.5 155.1 -20.8 162.7 -24.15 173.45 -24.15 184.2 -24.15 191.8 -20.8" fill="#131821" fill-rule="evenodd" stroke="none"/>
  </g>
  <defs>
    <linearGradient gradientTransform="matrix(0.0, 0.0037, -0.0037, 0.0, 252.85, 40.8)" gradientUnits="userSpaceOnUse" id="gradient0" spreadMethod="pad" x1="-819.2" x2="819.2">
      <stop offset="0.0" stop-color="#00e0ff" stop-opacity="0.7490196"/>
      <stop offset="1.0" stop-color="#00e0ff" stop-opacity="0.02745098"/>
    </linearGradient>
    <linearGradient gradientTransform="matrix(7.0E-4, 0.0085, -0.0085, 7.0E-4, 253.25, 32.85)" gradientUnits="userSpaceOnUse" id="gradient1" spreadMethod="pad" x1="-819.2" x2="819.2">
      <stop offset="0.0" stop-color="#262626"/>
      <stop offset="0.7215686274509804" stop-color="#737375"/>
      <stop offset="1.0" stop-color="#262626"/>
    </linearGradient>
    <linearGradient gradientTransform="matrix(0.0, 0.0037, 0.0037, 0.0, 210.0, 40.8)" gradientUnits="userSpaceOnUse" id="gradient2" spreadMethod="pad" x1="-819.2" x2="819.2">
      <stop offset="0.0" stop-color="#00e0ff" stop-opacity="0.7490196"/>
      <stop offset="1.0" stop-color="#00e0ff" stop-opacity="0.02745098"/>
    </linearGradient>
    <linearGradient gradientTransform="matrix(7.0E-4, -0.0085, -0.0085, -7.0E-4, 209.15, 32.85)" gradientUnits="userSpaceOnUse" id="gradient3" spreadMethod="pad" x1="-819.2" x2="819.2">
      <stop offset="0.0" stop-color="#262626"/>
      <stop offset="0.7215686274509804" stop-color="#737375"/>
      <stop offset="1.0" stop-color="#262626"/>
    </linearGradient>
    <linearGradient gradientTransform="matrix(6.0E-4, 0.007, -0.007, 6.0E-4, 158.75, -19.9)" gradientUnits="userSpaceOnUse" id="gradient4" spreadMethod="pad" x1="-819.2" x2="819.2">
      <stop offset="0.0" stop-color="#262626"/>
      <stop offset="0.7215686274509804" stop-color="#737375"/>
      <stop offset="1.0" stop-color="#262626"/>
    </linearGradient>
    <linearGradient gradientTransform="matrix(6.0E-4, -0.0074, -0.0074, -6.0E-4, 190.95, -19.15)" gradientUnits="userSpaceOnUse" id="gradient5" spreadMethod="pad" x1="-819.2" x2="819.2">
      <stop offset="0.0" stop-color="#262626"/>
      <stop offset="0.7215686274509804" stop-color="#737375"/>
      <stop offset="1.0" stop-color="#262626"/>
    </linearGradient>
    <linearGradient gradientTransform="matrix(0.0, -0.0169, -0.0169, 0.0, 173.45, -9.4)" gradientUnits="userSpaceOnUse" id="gradient6" spreadMethod="pad" x1="-819.2" x2="819.2">
      <stop offset="0.0" stop-color="#282828"/>
      <stop offset="0.9058823529411765" stop-color="#a4a4a4"/>
      <stop offset="1.0" stop-color="#373737"/>
    </linearGradient>
    <linearGradient gradientTransform="matrix(0.0, -0.0169, -0.0169, 0.0, 173.45, -11.6)" gradientUnits="userSpaceOnUse" id="gradient7" spreadMethod="pad" x1="-819.2" x2="819.2">
      <stop offset="0.0" stop-color="#a4a4a4"/>
      <stop offset="1.0" stop-color="#282828"/>
    </linearGradient>
  </defs>
</svg>
