<?xml version="1.0" encoding="UTF-8" standalone="no"?>
<svg xmlns:ffdec="https://www.free-decompiler.com/flash" xmlns:xlink="http://www.w3.org/1999/xlink" ffdec:objectType="shape" height="69.6px" width="114.8px" xmlns="http://www.w3.org/2000/svg">
  <g transform="matrix(1.0, 0.0, 0.0, 1.0, 26.9, 25.7)">
    <path d="M-23.1 43.0 L-21.2 43.9 -20.45 37.85 -23.8 37.85 -23.1 43.0" fill="url(#gradient0)" fill-rule="evenodd" stroke="none"/>
    <path d="M-17.35 28.55 L-24.1 25.8 -26.9 27.8 -24.3 38.4 -21.35 40.0 -19.9 39.0 -17.35 28.55" fill="url(#gradient1)" fill-rule="evenodd" stroke="none"/>
    <path d="M-20.7 30.85 L-17.35 28.55 -24.1 25.8 -26.9 27.8 -20.7 30.85" fill="#8c8c8c" fill-rule="evenodd" stroke="none"/>
    <path d="M-20.7 30.85 L-21.35 40.0 -19.9 39.0 -17.35 28.55 -20.7 30.85" fill="#4f4f4f" fill-rule="evenodd" stroke="none"/>
    <path d="M21.75 43.0 L22.45 37.85 19.1 37.85 19.85 43.9 21.75 43.0" fill="url(#gradient2)" fill-rule="evenodd" stroke="none"/>
    <path d="M16.15 28.55 L18.7 39.0 20.15 40.0 23.1 38.4 26.3 28.35 22.85 25.8 16.15 28.55" fill="url(#gradient3)" fill-rule="evenodd" stroke="none"/>
    <path d="M19.45 30.85 L26.3 28.35 22.85 25.8 16.15 28.55 19.45 30.85" fill="#8c8c8c" fill-rule="evenodd" stroke="none"/>
    <path d="M19.45 30.85 L16.15 28.55 18.7 39.0 20.15 40.0 19.45 30.85" fill="#4f4f4f" fill-rule="evenodd" stroke="none"/>
    <path d="M76.4 -24.7 L71.8 -25.7 69.25 -24.35 70.4 -14.55 72.65 -14.1 73.8 -14.85 76.4 -24.7" fill="url(#gradient4)" fill-rule="evenodd" stroke="none"/>
    <path d="M74.35 -23.3 L76.4 -24.7 71.8 -25.7 69.25 -24.35 74.35 -23.3" fill="#4f4f4f" fill-rule="evenodd" stroke="none"/>
    <path d="M35.85 -23.8 L39.5 -13.85 40.6 -13.1 42.85 -13.55 43.9 -24.1 40.95 -25.35 35.85 -23.8" fill="url(#gradient5)" fill-rule="evenodd" stroke="none"/>
    <path d="M39.05 -22.45 L43.9 -24.1 40.95 -25.35 35.85 -23.8 39.05 -22.45" fill="#4f4f4f" fill-rule="evenodd" stroke="none"/>
    <path d="M27.6 -9.4 Q27.6 -3.65 36.45 0.4 45.25 4.45 57.75 4.45 70.25 4.45 79.05 0.4 87.9 -3.65 87.9 -9.4 87.9 -15.1 79.05 -19.15 70.25 -23.2 57.75 -23.2 45.25 -23.2 36.45 -19.15 27.6 -15.1 27.6 -9.4" fill="url(#gradient6)" fill-rule="evenodd" stroke="none"/>
    <path d="M27.6 -11.6 Q27.6 -5.9 36.45 -1.8 45.25 2.25 57.75 2.25 70.25 2.25 79.05 -1.8 87.9 -5.9 87.9 -11.6 87.9 -17.35 79.05 -21.4 70.25 -25.45 57.75 -25.45 45.25 -25.45 36.45 -21.4 27.6 -17.35 27.6 -11.6" fill="url(#gradient7)" fill-rule="evenodd" stroke="none"/>
    <path d="M39.4 -20.8 Q31.8 -17.5 31.8 -12.8 31.8 -8.1 39.4 -4.75 47.0 -1.45 57.75 -1.45 68.5 -1.45 76.1 -4.75 83.7 -8.1 83.7 -12.8 83.7 -17.5 76.1 -20.8 68.5 -24.15 57.75 -24.15 47.0 -24.15 39.4 -20.8" fill="#131821" fill-rule="evenodd" stroke="none"/>
  </g>
  <defs>
    <linearGradient gradientTransform="matrix(0.0, 0.0037, 0.0037, 0.0, -22.1, 40.85)" gradientUnits="userSpaceOnUse" id="gradient0" spreadMethod="pad" x1="-819.2" x2="819.2">
      <stop offset="0.0" stop-color="#00e0ff" stop-opacity="0.7490196"/>
      <stop offset="1.0" stop-color="#00e0ff" stop-opacity="0.02745098"/>
    </linearGradient>
    <linearGradient gradientTransform="matrix(-7.0E-4, 0.0085, 0.0085, 7.0E-4, -22.5, 32.9)" gradientUnits="userSpaceOnUse" id="gradient1" spreadMethod="pad" x1="-819.2" x2="819.2">
      <stop offset="0.0" stop-color="#262626"/>
      <stop offset="0.7215686274509804" stop-color="#737375"/>
      <stop offset="1.0" stop-color="#262626"/>
    </linearGradient>
    <linearGradient gradientTransform="matrix(0.0, 0.0037, -0.0037, 0.0, 20.75, 40.85)" gradientUnits="userSpaceOnUse" id="gradient2" spreadMethod="pad" x1="-819.2" x2="819.2">
      <stop offset="0.0" stop-color="#00e0ff" stop-opacity="0.7490196"/>
      <stop offset="1.0" stop-color="#00e0ff" stop-opacity="0.02745098"/>
    </linearGradient>
    <linearGradient gradientTransform="matrix(-7.0E-4, -0.0085, 0.0085, -7.0E-4, 21.6, 32.9)" gradientUnits="userSpaceOnUse" id="gradient3" spreadMethod="pad" x1="-819.2" x2="819.2">
      <stop offset="0.0" stop-color="#262626"/>
      <stop offset="0.7215686274509804" stop-color="#737375"/>
      <stop offset="1.0" stop-color="#262626"/>
    </linearGradient>
    <linearGradient gradientTransform="matrix(-6.0E-4, 0.007, 0.007, 6.0E-4, 72.45, -19.9)" gradientUnits="userSpaceOnUse" id="gradient4" spreadMethod="pad" x1="-819.2" x2="819.2">
      <stop offset="0.0" stop-color="#262626"/>
      <stop offset="0.7215686274509804" stop-color="#737375"/>
      <stop offset="1.0" stop-color="#262626"/>
    </linearGradient>
    <linearGradient gradientTransform="matrix(-6.0E-4, -0.0074, 0.0074, -6.0E-4, 40.25, -19.15)" gradientUnits="userSpaceOnUse" id="gradient5" spreadMethod="pad" x1="-819.2" x2="819.2">
      <stop offset="0.0" stop-color="#262626"/>
      <stop offset="0.7215686274509804" stop-color="#737375"/>
      <stop offset="1.0" stop-color="#262626"/>
    </linearGradient>
    <linearGradient gradientTransform="matrix(0.0, -0.0169, 0.0169, 0.0, 57.75, -9.4)" gradientUnits="userSpaceOnUse" id="gradient6" spreadMethod="pad" x1="-819.2" x2="819.2">
      <stop offset="0.0" stop-color="#282828"/>
      <stop offset="0.9058823529411765" stop-color="#a4a4a4"/>
      <stop offset="1.0" stop-color="#373737"/>
    </linearGradient>
    <linearGradient gradientTransform="matrix(0.0, -0.0169, 0.0169, 0.0, 57.75, -11.6)" gradientUnits="userSpaceOnUse" id="gradient7" spreadMethod="pad" x1="-819.2" x2="819.2">
      <stop offset="0.0" stop-color="#a4a4a4"/>
      <stop offset="1.0" stop-color="#282828"/>
    </linearGradient>
  </defs>
</svg>
