<?xml version="1.0" encoding="UTF-8" standalone="no"?>
<svg xmlns:ffdec="https://www.free-decompiler.com/flash" xmlns:xlink="http://www.w3.org/1999/xlink" ffdec:objectType="shape" height="118.3px" width="141.6px" xmlns="http://www.w3.org/2000/svg">
  <g transform="matrix(1.0, 0.0, 0.0, 1.0, 57.0, 2.85)">
    <path d="M35.2 14.35 L37.1 15.25 37.85 9.2 34.5 9.2 35.2 14.35" fill="url(#gradient0)" fill-rule="evenodd" stroke="none"/>
    <path d="M40.95 -0.1 L34.2 -2.85 31.4 -0.85 34.0 9.75 36.95 11.35 38.4 10.35 40.95 -0.1" fill="url(#gradient1)" fill-rule="evenodd" stroke="none"/>
    <path d="M37.6 2.2 L40.95 -0.1 34.2 -2.85 31.4 -0.85 37.6 2.2" fill="#8c8c8c" fill-rule="evenodd" stroke="none"/>
    <path d="M37.6 2.2 L36.95 11.35 38.4 10.35 40.95 -0.1 37.6 2.2" fill="#4f4f4f" fill-rule="evenodd" stroke="none"/>
    <path d="M80.05 14.35 L80.75 9.2 77.4 9.2 78.15 15.25 80.05 14.35" fill="url(#gradient2)" fill-rule="evenodd" stroke="none"/>
    <path d="M74.45 -0.1 L77.0 10.35 78.45 11.35 81.4 9.75 84.6 -0.3 81.15 -2.85 74.45 -0.1" fill="url(#gradient3)" fill-rule="evenodd" stroke="none"/>
    <path d="M77.75 2.2 L84.6 -0.3 81.15 -2.85 74.45 -0.1 77.75 2.2" fill="#8c8c8c" fill-rule="evenodd" stroke="none"/>
    <path d="M77.75 2.2 L74.45 -0.1 77.0 10.35 78.45 11.35 77.75 2.2" fill="#4f4f4f" fill-rule="evenodd" stroke="none"/>
    <path d="M-56.5 111.1 L-56.5 72.0 -43.15 85.35 -43.15 114.95 -52.65 114.95 -56.5 111.1" fill="#0062ff" fill-opacity="0.29803923" fill-rule="evenodd" stroke="none"/>
    <path d="M-56.5 111.1 L-52.65 114.95 -43.15 114.95 -43.15 85.35 -56.5 72.0 -56.5 111.1 Z" fill="none" stroke="#035eef" stroke-linecap="butt" stroke-linejoin="miter-clip" stroke-miterlimit="4.0" stroke-width="1.0"/>
  </g>
  <defs>
    <linearGradient gradientTransform="matrix(0.0, 0.0037, 0.0037, 0.0, 36.2, 12.2)" gradientUnits="userSpaceOnUse" id="gradient0" spreadMethod="pad" x1="-819.2" x2="819.2">
      <stop offset="0.0" stop-color="#00e0ff" stop-opacity="0.7490196"/>
      <stop offset="1.0" stop-color="#00e0ff" stop-opacity="0.02745098"/>
    </linearGradient>
    <linearGradient gradientTransform="matrix(-7.0E-4, 0.0085, 0.0085, 7.0E-4, 35.8, 4.25)" gradientUnits="userSpaceOnUse" id="gradient1" spreadMethod="pad" x1="-819.2" x2="819.2">
      <stop offset="0.0" stop-color="#262626"/>
      <stop offset="0.7215686274509804" stop-color="#737375"/>
      <stop offset="1.0" stop-color="#262626"/>
    </linearGradient>
    <linearGradient gradientTransform="matrix(0.0, 0.0037, -0.0037, 0.0, 79.05, 12.2)" gradientUnits="userSpaceOnUse" id="gradient2" spreadMethod="pad" x1="-819.2" x2="819.2">
      <stop offset="0.0" stop-color="#00e0ff" stop-opacity="0.7490196"/>
      <stop offset="1.0" stop-color="#00e0ff" stop-opacity="0.02745098"/>
    </linearGradient>
    <linearGradient gradientTransform="matrix(-7.0E-4, -0.0085, 0.0085, -7.0E-4, 79.9, 4.25)" gradientUnits="userSpaceOnUse" id="gradient3" spreadMethod="pad" x1="-819.2" x2="819.2">
      <stop offset="0.0" stop-color="#262626"/>
      <stop offset="0.7215686274509804" stop-color="#737375"/>
      <stop offset="1.0" stop-color="#262626"/>
    </linearGradient>
  </defs>
</svg>
