<?xml version="1.0" encoding="UTF-8" standalone="no"?>
<svg xmlns:ffdec="https://www.free-decompiler.com/flash" xmlns:xlink="http://www.w3.org/1999/xlink" ffdec:objectType="shape" height="150.85px" width="206.15px" xmlns="http://www.w3.org/2000/svg">
  <g transform="matrix(1.0, 0.0, 0.0, 1.0, 265.5, 87.05)">
    <path d="M-59.85 18.75 L-59.85 59.85 Q-59.85 61.3 -60.75 62.3 -61.6 63.3 -62.85 63.3 L-261.6 63.3 Q-262.85 63.3 -263.7 62.3 -264.6 61.3 -264.6 59.85 L-264.6 38.35 Q-264.6 36.95 -264.05 35.15 -263.45 33.35 -262.65 32.25 L-252.1 17.95 Q-251.3 16.85 -249.85 16.1 -248.4 15.3 -247.15 15.3 L-62.85 15.3 Q-61.6 15.3 -60.75 16.35 -59.85 17.35 -59.85 18.75" fill="#00225e" fill-rule="evenodd" stroke="none"/>
    <path d="M-59.85 18.75 L-59.85 59.85 Q-59.85 61.3 -60.75 62.3 -61.6 63.3 -62.85 63.3 L-261.6 63.3 Q-262.85 63.3 -263.7 62.3 -264.6 61.3 -264.6 59.85 L-264.6 38.35 Q-264.6 36.95 -264.05 35.15 -263.45 33.35 -262.65 32.25 L-252.1 17.95 Q-251.3 16.85 -249.85 16.1 -248.4 15.3 -247.15 15.3 L-62.85 15.3 Q-61.6 15.3 -60.75 16.35 -59.85 17.35 -59.85 18.75 Z" fill="none" stroke="#0569cc" stroke-linecap="butt" stroke-linejoin="miter-clip" stroke-miterlimit="4.0" stroke-width="1.0"/>
    <path d="M-60.25 -68.75 L-60.25 10.6 Q-60.25 11.45 -60.85 12.0 -61.4 12.6 -62.25 12.6 L-248.65 12.6 -250.5 12.2 Q-251.55 11.85 -252.2 11.3 L-263.45 1.75 -264.55 0.25 -265.0 -1.55 -265.0 -84.55 Q-265.0 -85.35 -264.4 -85.95 -263.8 -86.55 -263.0 -86.55 L-192.9 -86.55 -191.1 -86.1 Q-190.1 -85.65 -189.55 -85.05 L-178.3 -72.25 -176.75 -71.2 -174.95 -70.75 -62.25 -70.75 Q-61.4 -70.75 -60.85 -70.15 -60.25 -69.55 -60.25 -68.75" fill="#03265e" fill-rule="evenodd" stroke="none"/>
    <path d="M-60.25 -68.75 L-60.25 10.6 Q-60.25 11.45 -60.85 12.0 -61.4 12.6 -62.25 12.6 L-248.65 12.6 -250.5 12.2 Q-251.55 11.85 -252.2 11.3 L-263.45 1.75 -264.55 0.25 -265.0 -1.55 -265.0 -84.55 Q-265.0 -85.35 -264.4 -85.95 -263.8 -86.55 -263.0 -86.55 L-192.9 -86.55 -191.1 -86.1 Q-190.1 -85.65 -189.55 -85.05 L-178.3 -72.25 -176.75 -71.2 -174.95 -70.75 -62.25 -70.75 Q-61.4 -70.75 -60.85 -70.15 -60.25 -69.55 -60.25 -68.75 Z" fill="none" stroke="#065abf" stroke-linecap="butt" stroke-linejoin="miter-clip" stroke-miterlimit="4.0" stroke-width="1.0"/>
  </g>
</svg>
