<?xml version="1.0" encoding="UTF-8" standalone="no"?>
<svg xmlns:ffdec="https://www.free-decompiler.com/flash" xmlns:xlink="http://www.w3.org/1999/xlink" ffdec:objectType="shape" height="81.05px" width="177.55px" xmlns="http://www.w3.org/2000/svg">
  <g transform="matrix(1.0, 0.0, 0.0, 1.0, 0.0, 0.0)">
    <path d="M176.65 20.5 L176.65 77.55 Q176.65 78.8 175.75 79.65 174.9 80.55 173.65 80.55 L3.75 80.55 Q2.5 80.55 1.65 79.65 0.75 78.8 0.75 77.55 L0.75 20.5 Q0.75 19.25 1.65 18.4 2.5 17.5 3.75 17.5 L173.65 17.5 Q174.9 17.5 175.75 18.4 176.65 19.25 176.65 20.5" fill="#02184c" fill-rule="evenodd" stroke="none"/>
    <path d="M176.65 20.5 L176.65 77.55 Q176.65 78.8 175.75 79.65 174.9 80.55 173.65 80.55 L3.75 80.55 Q2.5 80.55 1.65 79.65 0.75 78.8 0.75 77.55 L0.75 20.5 Q0.75 19.25 1.65 18.4 2.5 17.5 3.75 17.5 L173.65 17.5 Q174.9 17.5 175.75 18.4 176.65 19.25 176.65 20.5 Z" fill="none" stroke="#0244ad" stroke-linecap="butt" stroke-linejoin="miter-clip" stroke-miterlimit="4.0" stroke-width="1.0"/>
    <path d="M163.5 2.7 L176.2 16.3 Q177.05 17.2 176.8 17.85 176.5 18.5 175.25 18.5 L3.5 18.5 Q2.25 18.5 1.4 17.6 0.5 16.75 0.5 15.5 L0.5 3.5 Q0.5 2.25 1.4 1.4 2.25 0.5 3.5 0.5 L158.45 0.5 Q159.7 0.5 161.15 1.15 162.65 1.8 163.5 2.7" fill="#0739a8" fill-rule="evenodd" stroke="none"/>
    <path d="M163.5 2.7 Q162.65 1.8 161.15 1.15 159.7 0.5 158.45 0.5 L3.5 0.5 Q2.25 0.5 1.4 1.4 0.5 2.25 0.5 3.5 L0.5 15.5 Q0.5 16.75 1.4 17.6 2.25 18.5 3.5 18.5 L175.25 18.5 Q176.5 18.5 176.8 17.85 177.05 17.2 176.2 16.3 L163.5 2.7 Z" fill="none" stroke="#025fce" stroke-linecap="butt" stroke-linejoin="miter-clip" stroke-miterlimit="4.0" stroke-width="1.0"/>
    <path d="M163.5 2.7 L176.2 16.3 Q177.05 17.2 176.8 17.85 176.5 18.5 175.25 18.5 L69.6 18.5 66.9 17.85 64.6 16.3 52.45 2.75 Q51.65 1.8 51.9 1.15 52.2 0.5 53.45 0.5 L158.45 0.5 Q159.7 0.5 161.15 1.15 162.65 1.8 163.5 2.7" fill="#021742" fill-rule="evenodd" stroke="none"/>
    <path d="M163.5 2.7 Q162.65 1.8 161.15 1.15 159.7 0.5 158.45 0.5 L53.45 0.5 Q52.2 0.5 51.9 1.15 51.65 1.8 52.45 2.75 L64.6 16.3 66.9 17.85 69.6 18.5 175.25 18.5 Q176.5 18.5 176.8 17.85 177.05 17.2 176.2 16.3 L163.5 2.7 Z" fill="none" stroke="#034089" stroke-linecap="butt" stroke-linejoin="miter-clip" stroke-miterlimit="4.0" stroke-width="1.0"/>
  </g>
</svg>
