<?xml version="1.0" encoding="UTF-8" standalone="no"?>
<svg xmlns:ffdec="https://www.free-decompiler.com/flash" xmlns:xlink="http://www.w3.org/1999/xlink" ffdec:objectType="shape" height="21.1px" width="34.15px" xmlns="http://www.w3.org/2000/svg">
  <g transform="matrix(1.0, 0.0, 0.0, 1.0, 0.0, 0.0)">
    <path d="M33.4 3.9 Q33.7 4.05 33.7 4.5 L33.3 5.05 Q30.7 6.35 24.6 6.7 L23.95 6.7 Q21.35 8.0 16.65 8.7 L16.55 8.7 16.4 8.65 14.4 8.2 Q11.0 10.9 10.7 15.55 L10.6 17.0 Q10.6 17.65 9.9 17.65 L2.25 17.65 Q1.3 17.65 0.65 17.0 0.0 16.35 0.0 15.4 0.0 14.5 0.65 13.85 1.3 13.2 2.25 13.2 L6.5 13.2 Q7.6 7.8 12.05 4.4 L12.45 4.05 12.6 4.0 13.3 3.5 12.5 0.95 Q12.4 0.55 12.6 0.3 12.85 0.05 13.15 0.05 L14.85 0.0 15.25 0.1 18.45 2.1 20.95 1.9 21.2 1.9 Q23.0 2.0 24.2 2.75 L31.5 3.3 Q33.1 3.6 33.4 3.9 M20.3 10.15 Q20.85 9.7 21.35 9.7 21.9 9.7 22.25 10.1 22.65 10.5 22.65 11.25 L22.65 13.2 31.9 13.2 Q32.85 13.2 33.5 13.85 34.15 14.5 34.15 15.4 34.15 16.35 33.5 17.0 32.85 17.65 31.9 17.65 L22.65 17.65 22.65 19.55 Q22.65 21.1 21.35 21.1 20.85 21.1 20.3 20.7 L15.6 16.9 Q14.85 16.3 14.85 15.4 14.85 14.55 15.6 13.9 L20.3 10.15" fill="#000000" fill-rule="evenodd" stroke="none"/>
  </g>
</svg>
