<?xml version="1.0" encoding="UTF-8" standalone="no"?>
<svg xmlns:ffdec="https://www.free-decompiler.com/flash" xmlns:xlink="http://www.w3.org/1999/xlink" ffdec:objectType="shape" height="11.05px" width="17.9px" xmlns="http://www.w3.org/2000/svg">
  <g transform="matrix(1.0, 0.0, 0.0, 1.0, -0.75, -5.35)">
    <path d="M17.5 12.25 Q18.0 12.25 18.35 12.6 L18.65 13.4 18.35 14.25 Q18.0 14.6 17.5 14.6 L12.65 14.6 12.65 15.6 Q12.65 16.4 11.95 16.4 L11.4 16.2 8.95 14.2 Q8.55 13.85 8.55 13.4 8.55 12.95 8.95 12.6 L11.4 10.65 Q11.7 10.4 11.95 10.4 L12.45 10.65 12.65 11.25 12.65 12.25 17.5 12.25 M18.2 8.0 Q16.85 8.65 13.65 8.85 L13.3 8.85 Q11.95 9.55 9.5 9.9 L9.45 9.9 9.35 9.85 8.3 9.65 Q6.55 11.05 6.4 13.5 L6.35 14.25 Q6.35 14.6 5.95 14.6 L1.95 14.6 Q1.45 14.6 1.1 14.25 0.75 13.9 0.75 13.4 0.75 12.95 1.1 12.6 1.45 12.25 1.95 12.25 L4.2 12.25 Q4.75 9.4 7.1 7.65 L7.3 7.45 7.35 7.45 7.75 7.15 7.3 5.85 Q7.25 5.6 7.35 5.5 L7.65 5.35 8.55 5.35 8.75 5.4 10.45 6.45 11.75 6.35 11.9 6.35 Q12.8 6.4 13.45 6.75 L17.3 7.05 Q18.1 7.2 18.25 7.4 L18.45 7.7 18.2 8.0" fill="#130e45" fill-rule="evenodd" stroke="none"/>
    <path d="M1.35 12.85 Q1.6 12.6 1.95 12.6 L4.5 12.6 Q4.8 10.55 6.1 9.05 7.15 7.8 8.65 7.1 L8.65 7.15 Q8.65 7.95 9.1 8.65 6.2 10.2 6.0 13.45 L5.95 14.2 1.95 14.2 1.35 14.0 1.15 13.4 1.35 12.85" fill="url(#gradient0)" fill-rule="evenodd" stroke="none"/>
    <path d="M1.6 13.05 L1.95 12.95 4.5 12.95 4.8 12.65 Q5.1 10.75 6.3 9.3 7.25 8.15 8.65 7.45 L8.95 8.4 Q5.9 10.0 5.7 13.45 L5.65 13.9 1.95 13.9 1.6 13.75 1.45 13.4 1.6 13.05" fill="url(#gradient1)" fill-rule="evenodd" stroke="none"/>
    <path d="M8.65 7.1 L8.65 7.15 Q8.65 7.95 9.1 8.65 L7.7 9.65 6.35 9.35 6.4 9.35 6.45 9.3 6.5 9.3 6.55 9.25 7.7 8.75 6.55 8.75 6.5 8.65 Q7.4 7.7 8.65 7.1" fill="#130e45" fill-rule="evenodd" stroke="none"/>
    <path d="M8.95 7.6 L8.7 7.0 9.9 6.9 11.9 6.7 Q12.85 6.7 13.55 7.2 L14.0 7.75 8.95 7.6" fill="#00215c" fill-rule="evenodd" stroke="none"/>
    <path d="M16.85 7.35 L18.05 7.65 Q16.5 8.4 12.55 8.55 L7.75 8.5 7.35 7.8 8.25 7.55 7.65 5.75 8.55 5.7 10.9 7.15 16.85 7.35" fill="url(#gradient2)" fill-rule="evenodd" stroke="none"/>
    <path d="M16.85 7.35 L18.05 7.65 17.5 7.85 10.4 7.4 8.05 5.95 7.75 5.95 7.65 5.75 8.55 5.7 10.9 7.15 16.85 7.35" fill="url(#gradient3)" fill-rule="evenodd" stroke="none"/>
    <path d="M10.4 8.55 L8.65 8.5 9.2 7.95 9.35 7.65 14.05 8.0 13.65 8.5 10.4 8.55" fill="#0542a4" fill-rule="evenodd" stroke="none"/>
    <path d="M9.85 7.85 L13.9 8.05 13.0 8.6 9.45 9.55 7.55 9.1 Q9.45 8.35 9.85 7.85" fill="url(#gradient4)" fill-rule="evenodd" stroke="none"/>
    <path d="M13.0 8.6 L9.45 9.55 7.55 9.1 7.9 8.9 9.35 9.25 Q11.95 8.85 13.45 8.05 L13.9 8.05 13.0 8.6" fill="url(#gradient5)" fill-rule="evenodd" stroke="none"/>
    <path d="M17.5 12.6 Q17.85 12.6 18.05 12.85 L18.3 13.4 18.05 14.0 17.5 14.2 12.25 14.2 12.25 15.6 12.1 16.0 11.65 15.9 9.2 13.9 8.9 13.4 Q8.9 13.1 9.2 12.9 L11.65 10.95 Q11.9 10.75 12.1 10.8 L12.25 11.25 12.25 12.6 17.5 12.6" fill="url(#gradient6)" fill-rule="evenodd" stroke="none"/>
    <path d="M17.5 13.9 L12.25 13.9 Q11.95 13.9 11.95 14.2 L11.95 15.7 9.4 13.65 9.25 13.4 9.4 13.15 11.85 11.2 11.95 11.1 11.95 12.6 Q11.95 12.95 12.25 12.95 L17.5 12.95 17.85 13.05 18.0 13.4 17.85 13.75 17.5 13.9" fill="url(#gradient7)" fill-rule="evenodd" stroke="none"/>
  </g>
  <defs>
    <linearGradient gradientTransform="matrix(0.0, -0.0041, -0.0041, 0.0, 5.1, 10.75)" gradientUnits="userSpaceOnUse" id="gradient0" spreadMethod="pad" x1="-819.2" x2="819.2">
      <stop offset="0.0" stop-color="#8c9099"/>
      <stop offset="0.00392156862745098" stop-color="#8f939c"/>
      <stop offset="0.023529411764705882" stop-color="#afb2b7"/>
      <stop offset="0.047058823529411764" stop-color="#c8cacd"/>
      <stop offset="0.06666666666666667" stop-color="#dadbdc"/>
      <stop offset="0.09411764705882353" stop-color="#e5e5e5"/>
      <stop offset="0.12156862745098039" stop-color="#e8e8e8"/>
      <stop offset="0.3568627450980392" stop-color="#ebebeb"/>
      <stop offset="0.8" stop-color="#777d8a"/>
      <stop offset="1.0" stop-color="#cdd1da"/>
    </linearGradient>
    <linearGradient gradientTransform="matrix(0.0, 0.0064, 0.0064, 0.0, 5.2, 12.75)" gradientUnits="userSpaceOnUse" id="gradient1" spreadMethod="pad" x1="-819.2" x2="819.2">
      <stop offset="0.0" stop-color="#8c9099"/>
      <stop offset="0.00392156862745098" stop-color="#8f939c"/>
      <stop offset="0.023529411764705882" stop-color="#afb2b7"/>
      <stop offset="0.047058823529411764" stop-color="#c8cacd"/>
      <stop offset="0.06666666666666667" stop-color="#dadbdc"/>
      <stop offset="0.09411764705882353" stop-color="#e5e5e5"/>
      <stop offset="0.12156862745098039" stop-color="#e8e8e8"/>
      <stop offset="0.3568627450980392" stop-color="#ebebeb"/>
      <stop offset="0.8" stop-color="#777d8a"/>
      <stop offset="1.0" stop-color="#cdd1da"/>
    </linearGradient>
    <linearGradient gradientTransform="matrix(-0.0058, 0.0, 0.0, 0.0058, 12.65, 7.1)" gradientUnits="userSpaceOnUse" id="gradient2" spreadMethod="pad" x1="-819.2" x2="819.2">
      <stop offset="0.0" stop-color="#70e9ff"/>
      <stop offset="1.0" stop-color="#1e96fd"/>
    </linearGradient>
    <linearGradient gradientTransform="matrix(0.0026, 9.0E-4, 9.0E-4, -0.0026, 10.6, 6.3)" gradientUnits="userSpaceOnUse" id="gradient3" spreadMethod="pad" x1="-819.2" x2="819.2">
      <stop offset="0.0" stop-color="#70e9ff"/>
      <stop offset="1.0" stop-color="#bdffff"/>
    </linearGradient>
    <linearGradient gradientTransform="matrix(0.0028, -3.0E-4, -3.0E-4, -0.0028, 10.95, 8.6)" gradientUnits="userSpaceOnUse" id="gradient4" spreadMethod="pad" x1="-819.2" x2="819.2">
      <stop offset="0.0" stop-color="#70e9ff"/>
      <stop offset="1.0" stop-color="#1e96fd"/>
    </linearGradient>
    <linearGradient gradientTransform="matrix(0.0023, -1.0E-4, -1.0E-4, -0.0023, 9.75, 8.85)" gradientUnits="userSpaceOnUse" id="gradient5" spreadMethod="pad" x1="-819.2" x2="819.2">
      <stop offset="0.0" stop-color="#70e9ff"/>
      <stop offset="1.0" stop-color="#bdffff"/>
    </linearGradient>
    <linearGradient gradientTransform="matrix(0.0, 0.003, 0.003, 0.0, 13.6, 13.4)" gradientUnits="userSpaceOnUse" id="gradient6" spreadMethod="pad" x1="-819.2" x2="819.2">
      <stop offset="0.0" stop-color="#e7ff4d"/>
      <stop offset="0.7098039215686275" stop-color="#e39700"/>
      <stop offset="1.0" stop-color="#cc4a12"/>
    </linearGradient>
    <linearGradient gradientTransform="matrix(0.0, -0.0025, -0.0025, 0.0, 13.6, 13.4)" gradientUnits="userSpaceOnUse" id="gradient7" spreadMethod="pad" x1="-819.2" x2="819.2">
      <stop offset="0.0" stop-color="#e7ff4d"/>
      <stop offset="0.5098039215686274" stop-color="#e39700"/>
      <stop offset="1.0" stop-color="#cc4a12"/>
    </linearGradient>
  </defs>
</svg>
