<?xml version="1.0" encoding="UTF-8" standalone="no"?>
<svg xmlns:ffdec="https://www.free-decompiler.com/flash" xmlns:xlink="http://www.w3.org/1999/xlink" ffdec:objectType="shape" height="16.45px" width="16.45px" xmlns="http://www.w3.org/2000/svg">
  <g transform="matrix(1.0, 0.0, 0.0, 1.0, -1.55, -1.55)">
    <path d="M5.5 5.45 Q6.75 4.2 8.55 3.85 L8.55 1.9 Q8.55 1.55 8.9 1.55 L10.65 1.55 Q11.05 1.55 11.05 1.9 L11.05 3.85 Q12.8 4.2 14.05 5.45 15.35 6.75 15.75 8.55 L17.65 8.55 Q18.0 8.55 18.0 8.9 L18.0 10.65 17.9 10.9 17.65 11.0 15.75 11.0 Q15.35 12.75 14.05 14.05 12.8 15.35 11.05 15.7 L11.05 17.6 Q11.05 18.0 10.65 18.0 L8.9 18.0 Q8.55 18.0 8.55 17.6 L8.55 15.7 Q6.75 15.35 5.5 14.05 4.2 12.75 3.85 11.0 L1.9 11.0 Q1.55 11.0 1.55 10.65 L1.55 8.9 Q1.55 8.55 1.9 8.55 L3.85 8.55 Q4.2 6.75 5.5 5.45" fill="#20283b" fill-rule="evenodd" stroke="none"/>
    <path d="M4.15 10.65 L1.9 10.65 1.9 8.9 4.15 8.9 Q4.45 7.05 5.75 5.75 7.05 4.45 8.9 4.15 L8.9 1.9 10.65 1.9 10.65 4.15 Q12.5 4.45 13.8 5.75 15.15 7.05 15.4 8.9 L17.65 8.9 17.65 10.65 15.4 10.65 Q15.15 12.45 13.8 13.8 12.5 15.1 10.65 15.4 L10.65 17.6 8.9 17.6 8.9 15.4 Q7.05 15.1 5.75 13.8 4.45 12.45 4.15 10.65" fill="url(#gradient0)" fill-rule="evenodd" stroke="none"/>
    <path d="M14.5 9.75 Q14.5 11.75 13.1 13.1 11.75 14.5 9.8 14.5 7.85 14.5 6.45 13.1 5.05 11.75 5.05 9.75 5.05 7.8 6.45 6.4 7.85 5.05 9.8 5.05 11.75 5.05 13.1 6.4 14.5 7.8 14.5 9.75" fill="#872828" fill-rule="evenodd" stroke="none"/>
    <path d="M12.3 9.75 Q12.3 10.8 11.55 11.5 10.8 12.25 9.8 12.25 8.75 12.25 8.0 11.5 7.3 10.8 7.3 9.75 7.3 8.75 8.0 8.0 8.75 7.3 9.8 7.3 10.8 7.3 11.55 8.0 12.3 8.75 12.3 9.75" fill="#a80000" fill-rule="evenodd" stroke="none"/>
    <path d="M10.6 9.75 L10.35 10.35 9.8 10.6 Q9.45 10.6 9.2 10.35 L8.95 9.75 9.2 9.15 9.8 8.95 10.35 9.15 10.6 9.75" fill="#ff0000" fill-rule="evenodd" stroke="none"/>
    <path d="M9.8 5.8 Q8.15 5.8 7.0 6.95 5.8 8.15 5.8 9.75 5.8 11.4 7.0 12.55 8.15 13.7 9.8 13.7 11.45 13.7 12.6 12.55 13.75 11.4 13.75 9.75 13.75 8.15 12.6 6.95 11.45 5.8 9.8 5.8 M4.15 10.65 L1.9 10.65 1.9 8.9 4.15 8.9 Q4.45 7.05 5.75 5.75 7.05 4.45 8.9 4.15 L8.9 1.9 10.65 1.9 10.65 4.15 Q12.5 4.45 13.8 5.75 15.15 7.05 15.4 8.9 L17.65 8.9 17.65 10.65 15.4 10.65 Q15.15 12.45 13.8 13.8 12.5 15.1 10.65 15.4 L10.65 17.6 8.9 17.6 8.9 15.4 Q7.05 15.1 5.75 13.8 4.45 12.45 4.15 10.65" fill="url(#gradient1)" fill-rule="evenodd" stroke="none"/>
    <path d="M9.8 6.75 Q11.05 6.75 11.9 7.65 12.8 8.5 12.8 9.75 12.8 11.0 11.9 11.9 11.05 12.75 9.8 12.75 8.55 12.75 7.65 11.9 6.8 11.0 6.8 9.75 6.8 8.5 7.65 7.65 8.55 6.75 9.8 6.75 M9.8 8.3 Q9.15 8.3 8.75 8.7 8.3 9.15 8.3 9.75 8.3 10.35 8.75 10.85 9.15 11.25 9.8 11.25 10.4 11.25 10.85 10.85 11.3 10.35 11.3 9.75 11.3 9.15 10.85 8.7 10.4 8.3 9.8 8.3" fill="url(#gradient2)" fill-rule="evenodd" stroke="none"/>
    <path d="M13.7 9.75 Q13.7 8.15 12.55 7.0 11.4 5.85 9.8 5.85 8.15 5.85 7.05 7.0 5.9 8.15 5.9 9.75 5.9 11.4 7.05 12.5 8.15 13.65 9.8 13.65 11.4 13.65 12.55 12.5 13.7 11.4 13.7 9.75 M6.4 6.35 Q7.8 4.9 9.8 4.9 11.75 4.9 13.15 6.35 14.6 7.75 14.6 9.75 14.6 11.8 13.15 13.2 11.75 14.6 9.8 14.6 7.8 14.6 6.4 13.2 5.0 11.8 5.0 9.75 5.0 7.75 6.4 6.35" fill="url(#gradient3)" fill-rule="evenodd" stroke="none"/>
    <path d="M8.85 10.7 Q9.25 11.1 9.8 11.1 10.35 11.1 10.7 10.7 11.1 10.3 11.1 9.75 11.1 9.2 10.7 8.85 10.35 8.45 9.8 8.45 9.25 8.45 8.85 8.85 8.5 9.2 8.5 9.75 8.5 10.3 8.85 10.7 M7.7 9.75 Q7.7 8.9 8.3 8.3 8.9 7.65 9.8 7.65 10.65 7.65 11.25 8.3 11.85 8.9 11.85 9.75 11.85 10.65 11.25 11.25 10.65 11.85 9.8 11.85 8.9 11.85 8.3 11.25 7.7 10.65 7.7 9.75" fill="url(#gradient4)" fill-rule="evenodd" stroke="none"/>
  </g>
  <defs>
    <linearGradient gradientTransform="matrix(0.0, 0.0094, 0.0094, 0.0, 9.8, 9.75)" gradientUnits="userSpaceOnUse" id="gradient0" spreadMethod="pad" x1="-819.2" x2="819.2">
      <stop offset="0.0" stop-color="#8c9099"/>
      <stop offset="0.00392156862745098" stop-color="#8f939c"/>
      <stop offset="0.023529411764705882" stop-color="#afb2b7"/>
      <stop offset="0.047058823529411764" stop-color="#c8cacd"/>
      <stop offset="0.06666666666666667" stop-color="#dadbdc"/>
      <stop offset="0.09411764705882353" stop-color="#e5e5e5"/>
      <stop offset="0.12156862745098039" stop-color="#e8e8e8"/>
      <stop offset="0.3568627450980392" stop-color="#ebebeb"/>
      <stop offset="0.8" stop-color="#777d8a"/>
      <stop offset="1.0" stop-color="#cdd1da"/>
    </linearGradient>
    <linearGradient gradientTransform="matrix(0.0, 0.0094, 0.0094, 0.0, 9.8, 9.75)" gradientUnits="userSpaceOnUse" id="gradient1" spreadMethod="pad" x1="-819.2" x2="819.2">
      <stop offset="0.0" stop-color="#8c9099"/>
      <stop offset="0.00392156862745098" stop-color="#8f939c"/>
      <stop offset="0.023529411764705882" stop-color="#afb2b7"/>
      <stop offset="0.047058823529411764" stop-color="#c8cacd"/>
      <stop offset="0.06666666666666667" stop-color="#dadbdc"/>
      <stop offset="0.09411764705882353" stop-color="#e5e5e5"/>
      <stop offset="0.12156862745098039" stop-color="#e8e8e8"/>
      <stop offset="0.3568627450980392" stop-color="#ebebeb"/>
      <stop offset="0.8" stop-color="#777d8a"/>
      <stop offset="1.0" stop-color="#cdd1da"/>
    </linearGradient>
    <linearGradient gradientTransform="matrix(0.0, 0.0036, 0.0036, 0.0, 9.8, 9.7)" gradientUnits="userSpaceOnUse" id="gradient2" spreadMethod="pad" x1="-819.2" x2="819.2">
      <stop offset="0.0" stop-color="#8c9099"/>
      <stop offset="0.00392156862745098" stop-color="#8f939c"/>
      <stop offset="0.023529411764705882" stop-color="#afb2b7"/>
      <stop offset="0.047058823529411764" stop-color="#c8cacd"/>
      <stop offset="0.06666666666666667" stop-color="#dadbdc"/>
      <stop offset="0.09411764705882353" stop-color="#e5e5e5"/>
      <stop offset="0.12156862745098039" stop-color="#e8e8e8"/>
      <stop offset="0.3568627450980392" stop-color="#ebebeb"/>
      <stop offset="0.8" stop-color="#777d8a"/>
      <stop offset="1.0" stop-color="#cdd1da"/>
    </linearGradient>
    <linearGradient gradientTransform="matrix(0.0, -0.0055, -0.0055, 0.0, 9.8, 9.8)" gradientUnits="userSpaceOnUse" id="gradient3" spreadMethod="pad" x1="-819.2" x2="819.2">
      <stop offset="0.0" stop-color="#ffffff"/>
      <stop offset="0.23529411764705882" stop-color="#e8e8e8"/>
      <stop offset="0.35294117647058826" stop-color="#d6d7d8"/>
      <stop offset="0.5882352941176471" stop-color="#a8abaf"/>
      <stop offset="0.9176470588235294" stop-color="#5e646e"/>
    </linearGradient>
    <linearGradient gradientTransform="matrix(0.0, -0.0024, -0.0024, 0.0, 9.8, 9.8)" gradientUnits="userSpaceOnUse" id="gradient4" spreadMethod="pad" x1="-819.2" x2="819.2">
      <stop offset="0.0" stop-color="#ffffff"/>
      <stop offset="0.23529411764705882" stop-color="#e8e8e8"/>
      <stop offset="0.35294117647058826" stop-color="#d6d7d8"/>
      <stop offset="0.5882352941176471" stop-color="#a8abaf"/>
      <stop offset="0.9176470588235294" stop-color="#5e646e"/>
    </linearGradient>
  </defs>
</svg>
