<?xml version="1.0" encoding="UTF-8" standalone="no"?>
<svg xmlns:ffdec="https://www.free-decompiler.com/flash" xmlns:xlink="http://www.w3.org/1999/xlink" ffdec:objectType="shape" height="28.3px" width="37.4px" xmlns="http://www.w3.org/2000/svg">
  <g transform="matrix(1.0, 0.0, 0.0, 1.0, 0.0, 0.0)">
    <path d="M34.25 18.8 Q35.35 21.0 37.15 26.15 L37.35 26.7 37.3 27.3 36.8 27.65 29.05 28.3 Q23.3 28.3 20.7 26.35 19.65 25.55 19.0 24.5 L17.3 24.8 15.7 24.45 15.6 24.45 15.2 24.35 12.85 23.75 Q11.6 23.3 10.55 22.45 L10.3 22.1 10.2 21.6 9.5 21.25 9.45 21.2 4.6 17.95 4.25 17.95 3.15 17.7 2.75 17.35 2.7 17.35 1.95 16.6 Q-0.1 15.35 0.0 12.15 0.0 9.15 1.9 5.8 3.0 3.95 4.15 2.8 L5.55 1.55 5.6 1.55 Q7.7 0.0 9.5 0.0 10.45 0.0 11.25 0.4 L12.3 0.65 12.9 0.9 Q13.5 1.2 13.8 2.0 16.7 3.0 19.3 4.7 L19.8 5.05 20.4 4.9 20.55 4.9 20.9 4.95 Q22.65 5.95 24.05 7.35 L24.6 7.6 Q26.05 8.45 26.5 10.4 L26.8 12.2 Q28.85 12.6 30.4 13.75 32.55 15.45 34.25 18.8" fill="#000000" fill-rule="evenodd" stroke="none"/>
  </g>
</svg>
