<?xml version="1.0" encoding="UTF-8" standalone="no"?>
<svg xmlns:ffdec="https://www.free-decompiler.com/flash" xmlns:xlink="http://www.w3.org/1999/xlink" ffdec:objectType="shape" height="55.2px" width="52.05px" xmlns="http://www.w3.org/2000/svg">
  <g transform="matrix(1.0, 0.0, 0.0, 1.0, 258.3, 67.6)">
    <path d="M-209.8 -14.9 L-254.8 -14.9 -257.8 -17.95 -257.8 -15.25 -255.45 -12.9 -241.5 -12.9 -240.4 -14.2 -224.15 -14.2 -223.1 -12.9 -209.15 -12.9 -206.75 -15.25 -206.75 -17.95 -209.8 -14.9 Z" fill="none" stroke="#3edbff" stroke-linecap="butt" stroke-linejoin="miter-clip" stroke-miterlimit="4.0" stroke-width="1.0"/>
    <path d="M-209.8 -14.9 L-206.75 -17.95 -206.75 -15.25 -209.15 -12.9 -223.1 -12.9 -224.15 -14.2 -240.4 -14.2 -241.5 -12.9 -255.45 -12.9 -257.8 -15.25 -257.8 -17.95 -254.8 -14.9 -209.8 -14.9" fill="#0472af" fill-rule="evenodd" stroke="none"/>
    <path d="M-240.4 -65.8 L-224.15 -65.8 -223.1 -67.1 -209.15 -67.1 -206.75 -64.75 -206.75 -62.1 -209.8 -65.1 -254.8 -65.1 -257.8 -62.1 -257.8 -64.75 -255.45 -67.1 -241.5 -67.1 -240.4 -65.8 Z" fill="none" stroke="#3edbff" stroke-linecap="butt" stroke-linejoin="miter-clip" stroke-miterlimit="4.0" stroke-width="1.0"/>
    <path d="M-240.4 -65.8 L-224.15 -65.8 -223.1 -67.1 -209.15 -67.1 -206.75 -64.75 -206.75 -62.1 -209.8 -65.1 -254.8 -65.1 -257.8 -62.1 -257.8 -64.75 -255.45 -67.1 -241.5 -67.1 -240.4 -65.8" fill="#0472af" fill-rule="evenodd" stroke="none"/>
  </g>
</svg>
