<?xml version="1.0" encoding="UTF-8" standalone="no"?>
<svg xmlns:ffdec="https://www.free-decompiler.com/flash" xmlns:xlink="http://www.w3.org/1999/xlink" ffdec:objectType="shape" height="14.45px" width="46.65px" xmlns="http://www.w3.org/2000/svg">
  <g transform="matrix(1.0, 0.0, 0.0, 1.0, 0.0, 0.1)">
    <path d="M7.55 -0.1 L9.85 4.65 15.05 5.4 11.3 9.05 12.2 14.25 7.55 11.8 2.9 14.25 3.75 9.05 0.0 5.4 5.2 4.65 7.55 -0.1" fill="url(#gradient0)" fill-rule="evenodd" stroke="none"/>
    <path d="M10.15 7.8 L7.55 9.05 4.9 7.8 4.9 7.05 7.55 7.9 10.15 7.05 10.15 7.8" fill="#ffff45" fill-rule="evenodd" stroke="none"/>
    <path d="M23.35 0.0 L25.65 4.75 30.85 5.5 27.1 9.15 28.0 14.35 23.35 11.9 18.7 14.35 19.55 9.15 15.8 5.5 21.0 4.75 23.35 0.0" fill="url(#gradient1)" fill-rule="evenodd" stroke="none"/>
    <path d="M25.95 7.9 L23.35 9.15 20.7 7.9 20.7 7.15 23.35 8.0 25.95 7.15 25.95 7.9" fill="#ffff45" fill-rule="evenodd" stroke="none"/>
    <path d="M39.15 0.0 L41.45 4.75 46.65 5.5 42.9 9.15 43.8 14.35 39.15 11.9 Q36.85 13.15 34.5 14.35 L35.35 9.15 31.6 5.5 36.8 4.75 39.15 0.0" fill="url(#gradient2)" fill-rule="evenodd" stroke="none"/>
    <path d="M41.75 7.9 L39.15 9.15 36.5 7.9 36.5 7.15 39.15 8.0 41.75 7.15 41.75 7.9" fill="#ffff45" fill-rule="evenodd" stroke="none"/>
  </g>
  <defs>
    <linearGradient gradientTransform="matrix(-0.0049, -0.0073, -0.0073, 0.0049, 8.0, 8.35)" gradientUnits="userSpaceOnUse" id="gradient0" spreadMethod="pad" x1="-819.2" x2="819.2">
      <stop offset="0.0" stop-color="#bf7000"/>
      <stop offset="0.3843137254901961" stop-color="#c07200"/>
      <stop offset="0.5411764705882353" stop-color="#c37900"/>
      <stop offset="0.6549019607843137" stop-color="#c88500"/>
      <stop offset="0.7450980392156863" stop-color="#d09700"/>
      <stop offset="0.8274509803921568" stop-color="#d9ad00"/>
      <stop offset="0.9019607843137255" stop-color="#e5c900"/>
      <stop offset="0.9647058823529412" stop-color="#f3ea00"/>
      <stop offset="1.0" stop-color="#fcff00"/>
    </linearGradient>
    <linearGradient gradientTransform="matrix(-0.0049, -0.0073, -0.0073, 0.0049, 23.8, 8.45)" gradientUnits="userSpaceOnUse" id="gradient1" spreadMethod="pad" x1="-819.2" x2="819.2">
      <stop offset="0.0" stop-color="#bf7000"/>
      <stop offset="0.3843137254901961" stop-color="#c07200"/>
      <stop offset="0.5411764705882353" stop-color="#c37900"/>
      <stop offset="0.6549019607843137" stop-color="#c88500"/>
      <stop offset="0.7450980392156863" stop-color="#d09700"/>
      <stop offset="0.8274509803921568" stop-color="#d9ad00"/>
      <stop offset="0.9019607843137255" stop-color="#e5c900"/>
      <stop offset="0.9647058823529412" stop-color="#f3ea00"/>
      <stop offset="1.0" stop-color="#fcff00"/>
    </linearGradient>
    <linearGradient gradientTransform="matrix(-0.0049, -0.0073, -0.0073, 0.0049, 39.6, 8.45)" gradientUnits="userSpaceOnUse" id="gradient2" spreadMethod="pad" x1="-819.2" x2="819.2">
      <stop offset="0.0" stop-color="#bf7000"/>
      <stop offset="0.3843137254901961" stop-color="#c07200"/>
      <stop offset="0.5411764705882353" stop-color="#c37900"/>
      <stop offset="0.6549019607843137" stop-color="#c88500"/>
      <stop offset="0.7450980392156863" stop-color="#d09700"/>
      <stop offset="0.8274509803921568" stop-color="#d9ad00"/>
      <stop offset="0.9019607843137255" stop-color="#e5c900"/>
      <stop offset="0.9647058823529412" stop-color="#f3ea00"/>
      <stop offset="1.0" stop-color="#fcff00"/>
    </linearGradient>
  </defs>
</svg>
