<?xml version="1.0" encoding="UTF-8" standalone="no"?>
<svg xmlns:ffdec="https://www.free-decompiler.com/flash" xmlns:xlink="http://www.w3.org/1999/xlink" ffdec:objectType="shape" height="14.45px" width="23.4px" xmlns="http://www.w3.org/2000/svg">
  <g transform="matrix(1.0, 0.0, 0.0, 1.0, -0.05, 0.0)">
    <path d="M18.7 7.2 Q18.7 10.1 16.65 12.15 14.65 14.2 11.75 14.2 8.85 14.2 6.85 12.15 4.8 10.1 4.8 7.2 4.8 4.35 6.85 2.3 8.85 0.25 11.75 0.25 14.65 0.25 16.65 2.3 18.7 4.35 18.7 7.2" fill="url(#gradient0)" fill-rule="evenodd" stroke="none"/>
    <path d="M18.7 7.2 Q18.7 10.1 16.65 12.15 14.65 14.2 11.75 14.2 8.85 14.2 6.85 12.15 4.8 10.1 4.8 7.2 4.8 4.35 6.85 2.3 8.85 0.25 11.75 0.25 14.65 0.25 16.65 2.3 18.7 4.35 18.7 7.2 Z" ffdec:has-small-stroke="true" ffdec:original-stroke-width="0.5" fill="none" stroke="#dbffff" stroke-linecap="butt" stroke-linejoin="miter-clip" stroke-miterlimit="4.0" stroke-opacity="0.5294118" stroke-width="1.0"/>
    <path d="M23.25 1.45 Q24.15 3.3 21.45 6.25 18.7 9.25 13.95 11.6 9.2 14.0 5.15 14.4 1.15 14.8 0.25 13.0 -0.4 11.7 0.9 9.65 2.2 7.65 4.95 5.6 L4.8 7.2 4.9 8.45 Q3.75 10.0 4.2 11.0 4.8 12.15 7.4 11.9 10.05 11.65 13.15 10.1 16.3 8.55 18.1 6.6 19.85 4.65 19.25 3.45 18.8 2.5 16.8 2.5 15.8 1.45 14.5 0.85 17.8 -0.15 20.15 0.0 22.6 0.15 23.25 1.45" fill="url(#gradient1)" fill-rule="evenodd" stroke="none"/>
  </g>
  <defs>
    <radialGradient cx="0" cy="0" gradientTransform="matrix(0.0085, 0.0, 0.0, -0.0085, 11.75, 7.2)" gradientUnits="userSpaceOnUse" id="gradient0" r="819.2" spreadMethod="pad">
      <stop offset="0.0" stop-color="#e1e8ff" stop-opacity="0.5176471"/>
      <stop offset="0.596078431372549" stop-color="#e0ebff" stop-opacity="0.62352943"/>
      <stop offset="0.984313725490196" stop-color="#dbf3ff" stop-opacity="0.972549"/>
      <stop offset="1.0" stop-color="#dbf4ff"/>
    </radialGradient>
    <linearGradient gradientTransform="matrix(0.0031, 0.0052, 0.0052, -0.0031, 11.75, 7.3)" gradientUnits="userSpaceOnUse" id="gradient1" spreadMethod="pad" x1="-819.2" x2="819.2">
      <stop offset="0.0" stop-color="#c6d1e6" stop-opacity="0.42745098"/>
      <stop offset="0.4117647058823529" stop-color="#d0e2f1" stop-opacity="0.6862745"/>
      <stop offset="1.0" stop-color="#dbf7ff"/>
    </linearGradient>
  </defs>
</svg>
