<?xml version="1.0" encoding="UTF-8" standalone="no"?>
<svg xmlns:ffdec="https://www.free-decompiler.com/flash" xmlns:xlink="http://www.w3.org/1999/xlink" ffdec:objectType="shape" height="125.5px" width="264.85px" xmlns="http://www.w3.org/2000/svg">
  <g transform="matrix(1.0, 0.0, 0.0, 1.0, 132.05, 57.15)">
    <path d="M-43.85 -48.25 Q-42.95 -47.6 -41.35 -47.1 L-38.65 -46.65 128.8 -46.65 Q130.25 -46.65 131.3 -45.6 132.3 -44.6 132.3 -43.15 L132.3 64.35 Q132.3 65.8 131.3 66.8 130.25 67.85 128.8 67.85 L-128.05 67.85 Q-129.5 67.85 -130.55 66.8 -131.55 65.8 -131.55 64.35 L-131.55 -53.15 Q-131.55 -54.6 -130.55 -55.6 -129.5 -56.65 -128.05 -56.65 L-59.3 -56.65 -56.35 -56.1 Q-54.65 -55.6 -53.55 -54.85 L-43.85 -48.25" fill="url(#gradient0)" fill-rule="evenodd" stroke="none"/>
    <path d="M-44.15 -47.85 L-53.85 -54.45 Q-54.85 -55.15 -56.45 -55.65 L-59.3 -56.15 -128.05 -56.15 Q-129.3 -56.15 -130.15 -55.25 -131.05 -54.4 -131.05 -53.15 L-131.05 64.35 Q-131.05 65.6 -130.15 66.45 -129.3 67.35 -128.05 67.35 L128.8 67.35 Q130.05 67.35 130.9 66.45 131.8 65.6 131.8 64.35 L131.8 -43.15 Q131.8 -44.4 130.9 -45.25 130.05 -46.15 128.8 -46.15 L-38.65 -46.15 -41.5 -46.65 Q-43.1 -47.15 -44.15 -47.85 M-59.3 -57.15 L-56.15 -56.6 Q-54.45 -56.05 -53.3 -55.25 L-43.55 -48.65 Q-42.65 -48.05 -41.2 -47.6 L-38.65 -47.15 128.8 -47.15 Q130.45 -47.15 131.65 -45.95 132.8 -44.8 132.8 -43.15 L132.8 64.35 Q132.8 66.0 131.65 67.2 130.45 68.35 128.8 68.35 L-128.05 68.35 Q-129.7 68.35 -130.85 67.2 -132.05 66.0 -132.05 64.35 L-132.05 -53.15 Q-132.05 -54.8 -130.85 -55.95 -129.7 -57.15 -128.05 -57.15 L-59.3 -57.15" fill="#0068ff" fill-rule="evenodd" stroke="none"/>
    <path d="M-129.2 64.95 L-126.0 64.95 -126.0 65.45 -129.7 65.45 -129.7 -54.5 -57.5 -54.5 -42.45 -44.55 130.25 -44.55 130.25 65.45 127.3 65.45 127.3 64.95 129.75 64.95 129.75 -44.05 -42.45 -44.05 -57.55 -54.0 -129.2 -54.0 -129.2 64.95" fill="#1456c1" fill-rule="evenodd" stroke="none"/>
    <path d="M-117.35 -30.6 L118.1 -30.6 Q120.15 -30.6 121.65 -29.15 123.1 -27.65 123.1 -25.6 L123.1 24.8 Q123.1 26.85 121.65 28.35 120.15 29.8 118.1 29.8 L-117.35 29.8 Q-119.4 29.8 -120.9 28.35 -122.35 26.85 -122.35 24.8 L-122.35 -25.6 Q-122.35 -27.65 -120.9 -29.15 -119.4 -30.6 -117.35 -30.6" fill="#000d38" fill-rule="evenodd" stroke="none"/>
  </g>
  <defs>
    <linearGradient gradientTransform="matrix(0.0, -0.076, -0.076, 0.0, 0.35, 5.6)" gradientUnits="userSpaceOnUse" id="gradient0" spreadMethod="pad" x1="-819.2" x2="819.2">
      <stop offset="0.0" stop-color="#05337a"/>
      <stop offset="0.17647058823529413" stop-color="#032970"/>
      <stop offset="0.4627450980392157" stop-color="#012168"/>
      <stop offset="1.0" stop-color="#001f66"/>
    </linearGradient>
  </defs>
</svg>
