<?xml version="1.0" encoding="UTF-8" standalone="no"?>
<svg xmlns:ffdec="https://www.free-decompiler.com/flash" xmlns:xlink="http://www.w3.org/1999/xlink" ffdec:objectType="shape" height="52.2px" width="52.05px" xmlns="http://www.w3.org/2000/svg">
  <g transform="matrix(1.0, 0.0, 0.0, 1.0, -14.2, -22.9)">
    <path d="M62.7 72.6 L17.7 72.6 14.7 69.55 14.7 72.25 17.05 74.6 31.0 74.6 32.1 73.3 48.35 73.3 49.4 74.6 63.35 74.6 65.75 72.25 65.75 69.55 62.7 72.6 Z" fill="none" stroke="#3edbff" stroke-linecap="butt" stroke-linejoin="miter-clip" stroke-miterlimit="4.0" stroke-width="1.0"/>
    <path d="M62.7 72.6 L65.75 69.55 65.75 72.25 63.35 74.6 49.4 74.6 48.35 73.3 32.1 73.3 31.0 74.6 17.05 74.6 14.7 72.25 14.7 69.55 17.7 72.6 62.7 72.6" fill="#0472af" fill-rule="evenodd" stroke="none"/>
    <path d="M32.1 24.7 L48.35 24.7 49.4 23.4 63.35 23.4 65.75 25.75 65.75 28.4 62.7 25.4 17.7 25.4 14.7 28.4 14.7 25.75 17.05 23.4 31.0 23.4 32.1 24.7 Z" fill="none" stroke="#3edbff" stroke-linecap="butt" stroke-linejoin="miter-clip" stroke-miterlimit="4.0" stroke-width="1.0"/>
    <path d="M32.1 24.7 L48.35 24.7 49.4 23.4 63.35 23.4 65.75 25.75 65.75 28.4 62.7 25.4 17.7 25.4 14.7 28.4 14.7 25.75 17.05 23.4 31.0 23.4 32.1 24.7" fill="#0472af" fill-rule="evenodd" stroke="none"/>
  </g>
</svg>
