<?xml version="1.0" encoding="UTF-8" standalone="no"?>
<svg xmlns:ffdec="https://www.free-decompiler.com/flash" xmlns:xlink="http://www.w3.org/1999/xlink" ffdec:objectType="shape" height="414.05px" width="224.9px" xmlns="http://www.w3.org/2000/svg">
  <g transform="matrix(1.0, 0.0, 0.0, 1.0, 0.0, 27.7)">
    <path d="M222.35 2.1 L222.75 2.5 Q223.65 3.4 224.3 4.9 224.9 6.4 224.9 7.65 L224.9 73.6 224.55 76.5 223.7 79.35 221.75 83.9 Q221.25 85.05 220.9 86.7 220.55 88.4 220.55 89.65 L220.55 292.2 Q220.55 295.1 221.5 298.05 L223.95 305.3 Q224.9 308.25 224.9 311.15 L224.9 341.95 224.85 371.55 Q224.85 372.8 224.25 374.3 223.6 375.8 222.75 376.65 L217.25 382.15 214.9 383.65 Q213.4 384.25 212.15 384.25 L12.65 384.25 Q11.4 384.25 9.9 383.65 L7.55 382.15 2.1 376.7 Q1.25 375.85 0.6 374.35 0.0 372.85 0.0 371.6 L0.0 311.15 Q0.0 308.25 0.95 305.3 L3.35 298.05 Q4.3 295.35 4.3 292.2 L4.3 89.65 3.95 86.7 3.15 83.9 1.2 79.35 Q0.0 76.5 0.0 73.6 L0.0 7.65 Q0.0 6.4 0.6 4.9 1.25 3.4 2.1 2.5 L2.55 2.1 Q3.4 1.25 4.9 0.6 L7.65 0.0 217.25 0.0 Q218.5 0.0 220.0 0.6 221.5 1.25 222.35 2.1" fill="url(#gradient0)" fill-rule="evenodd" stroke="none"/>
    <path d="M167.85 6.25 L129.15 6.25 126.85 6.5 Q125.75 6.8 125.5 7.15 125.25 7.55 124.2 7.8 L121.9 8.05 103.15 8.05 100.85 7.8 Q99.75 7.55 99.5 7.15 99.2 6.8 98.1 6.5 L95.8 6.25 56.85 6.25 Q55.65 6.25 54.1 5.65 52.6 5.05 51.65 4.2 L49.75 2.45 Q48.8 1.65 49.05 1.0 49.3 0.4 50.55 0.4 L173.9 0.4 Q175.15 0.4 175.4 1.0 175.65 1.65 174.75 2.5 L173.0 4.15 Q172.1 5.0 170.6 5.65 169.1 6.25 167.85 6.25" fill="#333333" fill-rule="evenodd" stroke="none"/>
    <path d="M199.35 382.45 L201.1 384.25 Q202.0 385.1 201.75 385.75 201.5 386.35 200.25 386.35 L26.2 386.35 Q24.95 386.35 24.7 385.75 24.45 385.15 25.35 384.3 L27.35 382.4 Q28.25 381.55 29.8 380.95 31.3 380.35 32.55 380.35 L194.25 380.35 Q195.5 380.35 197.0 380.95 L199.35 382.45" fill="#333333" fill-rule="evenodd" stroke="none"/>
    <path d="M179.0 380.2 L182.75 384.15 Q183.6 385.05 183.35 385.7 183.05 386.35 181.8 386.35 L46.75 386.35 Q45.5 386.35 45.25 385.7 44.95 385.05 45.8 384.15 L49.5 380.2 Q50.35 379.3 51.85 378.65 53.3 378.0 54.55 378.0 L173.9 378.0 Q175.15 378.0 176.65 378.65 178.15 379.3 179.0 380.2" fill="#1e1e1e" fill-rule="evenodd" stroke="none"/>
    <path d="M218.85 17.05 L218.85 363.0 Q218.85 365.05 217.4 366.55 215.9 368.0 213.85 368.0 L10.55 368.0 Q8.5 368.0 7.0 366.55 5.55 365.05 5.55 363.0 L5.55 17.05 Q5.55 15.0 7.0 13.5 8.5 12.05 10.55 12.05 L71.9 12.05 76.6 12.5 80.8 13.5 85.05 14.5 89.75 14.9 132.95 14.9 137.6 14.5 141.7 13.5 145.85 12.5 150.5 12.05 213.85 12.05 Q215.9 12.05 217.4 13.5 218.85 15.0 218.85 17.05" fill="#474646" fill-rule="evenodd" stroke="none"/>
    <path d="M216.5 20.5 L216.5 369.3 Q216.5 371.35 215.05 372.85 213.55 374.3 211.5 374.3 L199.7 374.3 195.8 374.65 Q193.95 375.0 193.45 375.5 192.95 376.0 191.05 376.3 L187.15 376.65 174.5 376.65 170.5 376.3 Q168.5 376.0 167.85 375.5 167.15 375.0 165.25 374.65 L161.25 374.3 65.45 374.3 61.55 374.6 Q59.7 374.9 59.2 375.35 58.7 375.8 56.8 376.15 L52.9 376.45 37.95 376.45 33.95 376.15 31.4 375.35 Q30.75 374.9 28.85 374.6 L24.85 374.3 12.95 374.3 Q10.9 374.3 9.4 372.85 7.95 371.35 7.95 369.3 L7.95 20.5 Q7.95 18.45 9.4 16.95 10.9 15.5 12.95 15.5 L211.5 15.5 Q213.55 15.5 215.05 16.95 216.5 18.45 216.5 20.5" fill="#0c0c0c" fill-rule="evenodd" stroke="none"/>
    <path d="M137.05 -27.7 L140.1 -27.1 Q141.85 -26.5 142.9 -25.65 L144.25 -24.55 Q145.35 -23.75 145.6 -22.3 145.9 -20.9 145.2 -19.7 L132.4 3.35 Q131.75 4.55 130.35 5.35 128.9 6.2 127.55 6.2 L96.25 6.2 Q94.9 6.2 93.5 5.3 92.05 4.5 91.45 3.3 L79.6 -19.65 Q79.0 -20.85 79.25 -22.35 79.45 -23.9 80.45 -24.85 L80.95 -25.35 Q81.9 -26.35 83.55 -27.0 85.2 -27.7 86.55 -27.7 L137.05 -27.7" fill="url(#gradient1)" fill-rule="evenodd" stroke="none"/>
    <path d="M134.55 -24.65 Q136.15 -24.0 137.1 -23.0 L137.7 -22.45 Q138.6 -21.55 138.85 -20.0 139.05 -18.55 138.4 -17.35 L128.8 -0.05 Q128.15 1.15 126.65 2.0 125.25 2.85 123.9 2.85 L123.4 2.85 Q120.1 2.85 119.15 2.25 L114.85 1.65 109.5 1.65 Q106.2 1.65 105.25 2.25 L103.7 2.7 101.15 2.85 100.15 2.85 Q98.8 2.85 97.35 2.0 95.95 1.1 95.35 -0.1 L86.45 -17.3 Q85.85 -18.5 86.0 -20.05 86.1 -21.7 87.0 -22.75 L87.05 -22.8 Q87.85 -23.85 89.45 -24.55 91.0 -25.3 92.35 -25.3 L95.05 -25.3 Q98.4 -25.3 99.85 -24.65 101.5 -24.0 104.6 -24.0 L120.95 -24.0 Q124.05 -24.0 125.6 -24.65 126.9 -25.3 130.25 -25.3 L131.55 -25.3 134.55 -24.65" fill="#2b2b2a" fill-rule="evenodd" stroke="none"/>
    <path d="M98.4 -2.3 L90.65 -17.2 Q90.2 -18.0 90.35 -19.05 90.55 -20.05 91.2 -20.65 L91.45 -20.95 93.2 -22.05 Q94.35 -22.55 95.25 -22.55 L128.15 -22.55 130.15 -22.1 132.0 -21.15 132.85 -20.5 Q133.55 -19.95 133.75 -19.0 133.95 -18.0 133.5 -17.25 L125.2 -2.3 Q124.75 -1.45 123.8 -0.9 122.85 -0.35 121.9 -0.35 L101.55 -0.35 Q100.7 -0.35 99.75 -0.9 98.85 -1.5 98.4 -2.3" fill="#113ebc" fill-rule="evenodd" stroke="none"/>
    <path d="M125.2 -2.3 L133.5 -17.25 Q133.95 -18.0 133.75 -19.0 133.55 -19.95 132.85 -20.5 L132.0 -21.15 130.15 -22.1 128.15 -22.55 95.25 -22.55 Q94.35 -22.55 93.2 -22.05 L91.45 -20.95 91.2 -20.65 Q90.55 -20.05 90.35 -19.05 90.2 -18.0 90.65 -17.2 L98.4 -2.3 Q98.85 -1.5 99.75 -0.9 100.7 -0.35 101.55 -0.35 L121.9 -0.35 Q122.85 -0.35 123.8 -0.9 124.75 -1.45 125.2 -2.3 Z" fill="none" stroke="#03133f" stroke-linecap="butt" stroke-linejoin="miter-clip" stroke-miterlimit="4.0" stroke-width="1.0"/>
    <path d="M67.3 5.8 L70.55 6.05 Q72.95 4.65 80.0 2.35 81.95 1.75 80.8 -0.35 79.7 -2.4 77.15 -1.6 68.4 1.35 64.85 4.35 64.55 5.15 67.3 5.8" fill="url(#gradient2)" fill-rule="evenodd" stroke="none"/>
    <path d="M157.65 5.8 L154.4 6.05 Q152.0 4.65 144.95 2.35 143.0 1.75 144.15 -0.35 145.25 -2.4 147.8 -1.6 156.55 1.35 160.1 4.35 160.4 5.15 157.65 5.8" fill="url(#gradient3)" fill-rule="evenodd" stroke="none"/>
    <path d="M144.95 -11.55 L147.45 -10.0 148.75 -4.85 143.45 4.0 138.3 5.35 135.8 3.85 144.95 -11.55" fill="url(#gradient4)" fill-rule="evenodd" stroke="none"/>
    <path d="M150.35 -1.9 L146.95 3.9 144.4 2.4 147.75 -3.35 Q149.1 -2.55 150.35 -1.9" fill="#333333" fill-rule="evenodd" stroke="none"/>
    <path d="M79.1 -11.55 L76.6 -10.0 75.3 -4.85 80.6 4.0 85.75 5.35 88.3 3.85 79.1 -11.55" fill="url(#gradient5)" fill-rule="evenodd" stroke="none"/>
    <path d="M73.7 -1.9 L77.1 3.9 79.65 2.4 76.3 -3.35 Q75.0 -2.55 73.7 -1.9" fill="#333333" fill-rule="evenodd" stroke="none"/>
    <path d="M108.6 -15.3 Q108.6 -14.3 107.9 -13.55 107.15 -12.8 106.1 -12.8 105.05 -12.8 104.35 -13.55 103.6 -14.3 103.6 -15.3 103.6 -16.35 104.35 -17.1 105.05 -17.85 106.1 -17.85 107.15 -17.85 107.9 -17.1 108.6 -16.35 108.6 -15.3" fill="#0676fc" fill-rule="evenodd" stroke="none"/>
    <path d="M106.1 -12.25 Q107.55 -12.25 108.6 -10.8 109.6 -9.4 109.6 -7.35 L109.55 -6.55 105.9 -6.25 102.65 -6.5 102.6 -7.35 Q102.6 -9.4 103.6 -10.8 104.65 -12.25 106.1 -12.25" fill="#0676fc" fill-rule="evenodd" stroke="none"/>
    <path d="M121.35 -15.3 Q121.35 -14.3 120.65 -13.55 119.9 -12.8 118.85 -12.8 117.8 -12.8 117.1 -13.55 116.35 -14.3 116.35 -15.3 116.35 -16.35 117.1 -17.1 117.8 -17.85 118.85 -17.85 119.9 -17.85 120.65 -17.1 121.35 -16.35 121.35 -15.3" fill="#0676fc" fill-rule="evenodd" stroke="none"/>
    <path d="M118.85 -12.25 Q120.3 -12.25 121.35 -10.8 122.35 -9.4 122.35 -7.35 L122.3 -6.55 118.7 -6.25 115.4 -6.5 115.35 -7.35 Q115.35 -9.4 116.35 -10.8 117.4 -12.25 118.85 -12.25" fill="#0676fc" fill-rule="evenodd" stroke="none"/>
    <path d="M116.0 -15.3 Q116.0 -13.85 114.95 -12.8 113.9 -11.75 112.45 -11.75 110.95 -11.75 109.9 -12.8 108.85 -13.85 108.85 -15.3 108.85 -16.8 109.9 -17.85 110.95 -18.9 112.45 -18.9 113.9 -18.9 114.95 -17.85 116.0 -16.8 116.0 -15.3" fill="#15a0ff" fill-rule="evenodd" stroke="none"/>
    <path d="M112.45 -10.95 Q114.5 -10.95 115.95 -8.9 117.4 -6.9 117.4 -4.0 L117.35 -2.9 112.2 -2.45 107.55 -2.8 107.45 -4.0 Q107.45 -6.9 108.9 -8.9 110.4 -10.95 112.45 -10.95" fill="#15a0ff" fill-rule="evenodd" stroke="none"/>
  </g>
  <defs>
    <linearGradient gradientTransform="matrix(0.0, -0.2312, -0.2312, 0.0, 112.45, 189.35)" gradientUnits="userSpaceOnUse" id="gradient0" spreadMethod="pad" x1="-819.2" x2="819.2">
      <stop offset="0.0" stop-color="#505050"/>
      <stop offset="0.10980392156862745" stop-color="#282828"/>
      <stop offset="0.19607843137254902" stop-color="#3a3a3a"/>
      <stop offset="0.43529411764705883" stop-color="#676767"/>
      <stop offset="0.6509803921568628" stop-color="#888888"/>
      <stop offset="0.8313725490196079" stop-color="#9d9d9d"/>
      <stop offset="0.9490196078431372" stop-color="#a4a4a4"/>
      <stop offset="0.9725490196078431" stop-color="#787878"/>
      <stop offset="0.9882352941176471" stop-color="#5c5c5c"/>
      <stop offset="1.0" stop-color="#525252"/>
    </linearGradient>
    <linearGradient gradientTransform="matrix(0.0, -0.0207, 0.0207, 0.0, 112.4, -10.75)" gradientUnits="userSpaceOnUse" id="gradient1" spreadMethod="pad" x1="-819.2" x2="819.2">
      <stop offset="0.0" stop-color="#373737"/>
      <stop offset="0.6549019607843137" stop-color="#a4a4a4"/>
      <stop offset="0.803921568627451" stop-color="#a4a4a4"/>
      <stop offset="1.0" stop-color="#6b6b6b"/>
    </linearGradient>
    <linearGradient gradientTransform="matrix(0.0016, 0.004, 0.0094, -0.0039, 38.8, 16.85)" gradientUnits="userSpaceOnUse" id="gradient2" spreadMethod="pad" x1="-819.2" x2="819.2">
      <stop offset="0.0" stop-color="#505050"/>
      <stop offset="0.09803921568627451" stop-color="#373737"/>
      <stop offset="0.5254901960784314" stop-color="#6e6861"/>
      <stop offset="0.8862745098039215" stop-color="#3d3d3d"/>
      <stop offset="1.0" stop-color="#505050"/>
    </linearGradient>
    <linearGradient gradientTransform="matrix(-0.0016, 0.004, -0.0094, -0.0039, 186.15, 16.85)" gradientUnits="userSpaceOnUse" id="gradient3" spreadMethod="pad" x1="-819.2" x2="819.2">
      <stop offset="0.0" stop-color="#505050"/>
      <stop offset="0.09803921568627451" stop-color="#373737"/>
      <stop offset="0.5254901960784314" stop-color="#6e6861"/>
      <stop offset="0.8862745098039215" stop-color="#3d3d3d"/>
      <stop offset="1.0" stop-color="#505050"/>
    </linearGradient>
    <linearGradient gradientTransform="matrix(-0.0053, 0.0096, 0.0096, 0.0053, 143.2, -2.2)" gradientUnits="userSpaceOnUse" id="gradient4" spreadMethod="pad" x1="-819.2" x2="819.2">
      <stop offset="0.0" stop-color="#505050"/>
      <stop offset="0.09803921568627451" stop-color="#373737"/>
      <stop offset="0.5254901960784314" stop-color="#6e6963"/>
      <stop offset="0.8862745098039215" stop-color="#3d3d3d"/>
      <stop offset="1.0" stop-color="#505050"/>
    </linearGradient>
    <linearGradient gradientTransform="matrix(0.0053, 0.0096, -0.0096, 0.0053, 80.85, -2.2)" gradientUnits="userSpaceOnUse" id="gradient5" spreadMethod="pad" x1="-819.2" x2="819.2">
      <stop offset="0.0" stop-color="#505050"/>
      <stop offset="0.09803921568627451" stop-color="#373737"/>
      <stop offset="0.5254901960784314" stop-color="#6e6963"/>
      <stop offset="0.8862745098039215" stop-color="#3d3d3d"/>
      <stop offset="1.0" stop-color="#505050"/>
    </linearGradient>
  </defs>
</svg>
