<?xml version="1.0" encoding="UTF-8" standalone="no"?>
<svg xmlns:ffdec="https://www.free-decompiler.com/flash" xmlns:xlink="http://www.w3.org/1999/xlink" ffdec:objectType="shape" height="26.3px" width="104.0px" xmlns="http://www.w3.org/2000/svg">
  <g transform="matrix(1.0, 0.0, 0.0, 1.0, 0.0, 0.0)">
    <path d="M103.45 3.55 L103.45 22.85 Q103.45 24.05 102.6 24.9 101.8 25.75 100.65 25.75 L3.45 25.75 Q2.3 25.75 1.5 24.9 0.65 24.05 0.65 22.85 L0.65 3.55 Q0.65 2.4 1.5 1.55 2.3 0.7 3.45 0.7 L100.65 0.7 Q101.8 0.7 102.6 1.55 103.45 2.4 103.45 3.55" fill="#020d26" fill-rule="evenodd" stroke="none"/>
    <path d="M103.1 3.55 Q103.1 2.55 102.35 1.8 101.65 1.05 100.65 1.05 L3.45 1.05 Q2.45 1.05 1.7 1.8 1.0 2.55 1.0 3.55 L1.0 22.85 Q1.0 23.9 1.7 24.65 2.45 25.35 3.45 25.35 L100.65 25.35 Q101.65 25.35 102.35 24.65 103.1 23.9 103.1 22.85 L103.1 3.55 M100.65 0.3 Q101.95 0.3 102.9 1.25 103.8 2.25 103.8 3.55 L103.8 22.85 Q103.8 24.2 102.9 25.15 101.95 26.1 100.65 26.1 L3.45 26.1 Q2.15 26.1 1.2 25.15 0.3 24.2 0.3 22.85 L0.3 3.55 Q0.3 2.25 1.2 1.25 2.15 0.3 3.45 0.3 L100.65 0.3" fill="#1c4b84" fill-rule="evenodd" stroke="none"/>
    <path d="M101.1 4.85 L101.1 21.4 Q101.1 22.25 100.55 22.85 99.95 23.4 99.15 23.4 L4.95 23.4 Q4.15 23.4 3.55 22.85 3.0 22.25 3.0 21.4 L3.0 4.85 Q3.0 4.05 3.55 3.45 4.15 2.85 4.95 2.85 L99.15 2.85 Q99.95 2.85 100.55 3.45 101.1 4.05 101.1 4.85" fill="url(#gradient0)" fill-rule="evenodd" stroke="none"/>
    <path d="M100.65 4.85 Q100.65 4.25 100.2 3.8 99.75 3.35 99.15 3.35 L4.95 3.35 Q4.3 3.35 3.9 3.8 3.45 4.25 3.45 4.85 L3.45 21.4 Q3.45 22.05 3.9 22.45 4.3 22.9 4.95 22.9 L99.15 22.9 100.2 22.45 Q100.65 22.05 100.65 21.4 L100.65 4.85 M99.15 2.35 Q100.15 2.35 100.9 3.05 101.6 3.8 101.6 4.85 L101.6 21.4 Q101.6 22.45 100.9 23.2 100.15 23.95 99.15 23.95 L4.95 23.95 Q3.95 23.95 3.2 23.2 2.5 22.45 2.5 21.4 L2.5 4.85 Q2.5 3.8 3.2 3.05 3.95 2.35 4.95 2.35 L99.15 2.35" fill="#2c8ff2" fill-rule="evenodd" stroke="none"/>
    <path d="M0.95 2.85 L0.95 5.95 0.0 5.95 0.0 2.25 2.4 0.0 5.8 0.0 5.8 0.95 2.8 0.95 0.95 2.85" fill="#69bfff" fill-rule="evenodd" stroke="none"/>
    <path d="M0.95 23.45 L2.8 25.35 5.8 25.35 5.8 26.3 2.4 26.3 0.0 24.05 0.0 20.35 0.95 20.35 0.95 23.45" fill="#69bfff" fill-rule="evenodd" stroke="none"/>
    <path d="M103.05 2.85 L101.2 0.95 98.2 0.95 98.2 0.0 101.6 0.0 104.0 2.25 104.0 5.95 103.05 5.95 103.05 2.85" fill="#69bfff" fill-rule="evenodd" stroke="none"/>
    <path d="M103.05 23.45 L103.05 20.35 104.0 20.35 104.0 24.05 101.6 26.3 98.2 26.3 98.2 25.35 101.2 25.35 103.05 23.45" fill="#69bfff" fill-rule="evenodd" stroke="none"/>
  </g>
  <defs>
    <linearGradient gradientTransform="matrix(0.0599, 0.0, 0.0, -0.0615, 52.05, 13.15)" gradientUnits="userSpaceOnUse" id="gradient0" spreadMethod="pad" x1="-819.2" x2="819.2">
      <stop offset="0.0" stop-color="#003eb5"/>
      <stop offset="0.5294117647058824" stop-color="#00278b"/>
      <stop offset="1.0" stop-color="#004acc"/>
    </linearGradient>
  </defs>
</svg>
