<?xml version="1.0" encoding="UTF-8" standalone="no"?>
<svg xmlns:ffdec="https://www.free-decompiler.com/flash" xmlns:xlink="http://www.w3.org/1999/xlink" ffdec:objectType="shape" height="26.3px" width="104.0px" xmlns="http://www.w3.org/2000/svg">
  <g transform="matrix(1.0, 0.0, 0.0, 1.0, 0.0, 0.0)">
    <path d="M103.35 3.55 L103.35 22.8 Q103.35 24.0 102.55 24.85 101.7 25.7 100.55 25.7 L3.4 25.7 Q2.25 25.7 1.4 24.85 0.55 24.0 0.55 22.8 L0.55 3.55 Q0.55 2.35 1.4 1.5 2.25 0.65 3.4 0.65 L100.55 0.65 Q101.7 0.65 102.55 1.5 103.35 2.35 103.35 3.55" fill="#020d26" fill-rule="evenodd" stroke="none"/>
    <path d="M103.0 3.55 Q103.0 2.5 102.3 1.75 101.55 1.0 100.55 1.0 L3.4 1.0 Q2.4 1.0 1.65 1.75 0.95 2.5 0.95 3.55 L0.95 22.8 Q0.95 23.85 1.65 24.6 2.4 25.35 3.4 25.35 L100.55 25.35 Q101.55 25.35 102.3 24.6 103.0 23.85 103.0 22.8 L103.0 3.55 M100.55 0.25 Q101.9 0.25 102.8 1.2 103.75 2.2 103.75 3.55 L103.75 22.8 Q103.75 24.15 102.8 25.15 101.9 26.1 100.55 26.1 L3.4 26.1 Q2.05 26.1 1.15 25.15 0.2 24.15 0.2 22.8 L0.2 3.55 Q0.2 2.2 1.15 1.2 2.05 0.25 3.4 0.25 L100.55 0.25" fill="#1c4b84" fill-rule="evenodd" stroke="none"/>
    <path d="M100.85 4.85 L100.85 21.4 Q100.85 22.15 100.35 22.7 99.8 23.3 99.05 23.3 L4.8 23.3 Q4.05 23.3 3.5 22.7 2.95 22.15 2.95 21.4 L2.95 4.85 Q2.95 4.05 3.5 3.5 4.05 2.95 4.8 2.95 L99.05 2.95 Q99.8 2.95 100.35 3.5 100.85 4.05 100.85 4.85" fill="url(#gradient0)" fill-rule="evenodd" stroke="none"/>
    <path d="M100.55 4.85 Q100.55 4.2 100.1 3.8 99.7 3.35 99.1 3.35 L4.85 3.35 Q4.25 3.35 3.85 3.8 3.4 4.2 3.4 4.85 L3.4 21.4 Q3.4 22.05 3.85 22.45 4.25 22.9 4.85 22.9 L99.1 22.9 Q99.7 22.9 100.1 22.45 L100.55 21.4 100.55 4.85 M99.1 2.6 Q100.0 2.6 100.6 3.25 101.3 3.9 101.3 4.85 L101.3 21.4 Q101.3 22.35 100.6 23.0 100.0 23.65 99.1 23.65 L4.85 23.65 Q3.95 23.65 3.3 23.0 2.65 22.35 2.65 21.4 L2.65 4.85 Q2.65 3.9 3.3 3.25 3.95 2.6 4.85 2.6 L99.1 2.6" fill="#7ecafc" fill-rule="evenodd" stroke="none"/>
    <path d="M0.95 2.85 L0.95 5.95 0.0 5.95 0.0 2.25 2.4 0.0 5.8 0.0 5.8 0.95 2.8 0.95 0.95 2.85" fill="#69bfff" fill-rule="evenodd" stroke="none"/>
    <path d="M0.95 23.45 L2.8 25.35 5.8 25.35 5.8 26.3 2.4 26.3 0.0 24.05 0.0 20.35 0.95 20.35 0.95 23.45" fill="#69bfff" fill-rule="evenodd" stroke="none"/>
    <path d="M103.1 2.85 L101.2 0.95 98.2 0.95 98.2 0.0 101.6 0.0 104.0 2.25 104.0 5.95 103.1 5.95 103.1 2.85" fill="#69bfff" fill-rule="evenodd" stroke="none"/>
    <path d="M103.1 23.45 L103.1 20.35 104.0 20.35 104.0 24.05 101.6 26.3 98.2 26.3 98.2 25.35 101.2 25.35 103.1 23.45" fill="#69bfff" fill-rule="evenodd" stroke="none"/>
  </g>
  <defs>
    <radialGradient cx="0" cy="0" gradientTransform="matrix(0.085, 0.0, 0.0, -0.0218, 53.05, 20.8)" gradientUnits="userSpaceOnUse" id="gradient0" r="819.2" spreadMethod="pad">
      <stop offset="0.0" stop-color="#3399cc"/>
      <stop offset="0.14901960784313725" stop-color="#3293d0"/>
      <stop offset="0.34901960784313724" stop-color="#3082db"/>
      <stop offset="0.5764705882352941" stop-color="#2c66ee"/>
      <stop offset="0.7411764705882353" stop-color="#294dff"/>
      <stop offset="0.7568627450980392" stop-color="#274bfb"/>
      <stop offset="0.9137254901960784" stop-color="#143ddb"/>
      <stop offset="1.0" stop-color="#0d38cf"/>
    </radialGradient>
  </defs>
</svg>
