<?xml version="1.0" encoding="UTF-8" standalone="no"?>
<svg xmlns:ffdec="https://www.free-decompiler.com/flash" xmlns:xlink="http://www.w3.org/1999/xlink" ffdec:objectType="shape" height="23.65px" width="93.55px" xmlns="http://www.w3.org/2000/svg">
  <g transform="matrix(1.0, 0.0, 0.0, 1.0, -5.1, -1.35)">
    <path d="M98.1 4.55 L98.1 21.9 Q98.1 23.0 97.35 23.75 96.6 24.5 95.55 24.5 L8.15 24.5 Q7.1 24.5 6.35 23.75 5.6 23.0 5.6 21.9 L5.6 4.55 Q5.6 3.5 6.35 2.7 7.1 1.95 8.15 1.95 L95.55 1.95 Q96.6 1.95 97.35 2.7 98.1 3.5 98.1 4.55" fill="#020d26" fill-rule="evenodd" stroke="none"/>
    <path d="M95.55 1.6 Q96.75 1.6 97.6 2.45 98.4 3.35 98.4 4.55 L98.4 21.9 Q98.4 23.1 97.6 24.0 96.75 24.85 95.55 24.85 L8.15 24.85 Q6.95 24.85 6.1 24.0 5.25 23.1 5.25 21.9 L5.25 4.55 Q5.25 3.35 6.1 2.45 6.95 1.6 8.15 1.6 L95.55 1.6 M97.75 4.55 Q97.75 3.6 97.1 2.95 96.45 2.3 95.55 2.3 L8.15 2.3 Q7.2 2.3 6.55 2.95 5.9 3.6 5.9 4.55 L5.9 21.9 Q5.9 22.8 6.55 23.5 7.2 24.15 8.15 24.15 L95.55 24.15 Q96.45 24.15 97.1 23.5 97.75 22.8 97.75 21.9 L97.75 4.55" fill="#1c4b84" fill-rule="evenodd" stroke="none"/>
    <path d="M95.95 5.65 L95.95 20.55 Q95.95 21.25 95.45 21.75 95.0 22.25 94.3 22.25 L9.5 22.25 Q8.85 22.25 8.35 21.75 7.85 21.25 7.85 20.55 L7.85 5.65 Q7.85 4.95 8.35 4.45 8.85 3.95 9.5 3.95 L94.3 3.95 Q95.0 3.95 95.45 4.45 95.95 4.95 95.95 5.65" fill="url(#gradient0)" fill-rule="evenodd" stroke="none"/>
    <path d="M94.25 3.7 Q95.05 3.7 95.6 4.3 96.2 4.9 96.2 5.75 L96.2 20.6 Q96.2 21.45 95.6 22.05 95.05 22.65 94.25 22.65 L9.45 22.65 Q8.65 22.65 8.05 22.05 7.45 21.45 7.45 20.6 L7.45 5.75 Q7.45 4.9 8.05 4.3 8.65 3.7 9.45 3.7 L94.25 3.7 M95.55 5.75 Q95.55 5.15 95.15 4.75 94.8 4.35 94.25 4.35 L9.45 4.35 Q8.9 4.35 8.55 4.75 8.15 5.15 8.15 5.75 L8.15 20.6 Q8.15 21.2 8.55 21.6 8.9 22.0 9.45 22.0 L94.25 22.0 Q94.8 22.0 95.15 21.6 95.55 21.2 95.55 20.6 L95.55 5.75" fill="#7ecafc" fill-rule="evenodd" stroke="none"/>
    <path d="M5.9 3.9 L5.9 6.7 5.1 6.7 5.1 3.35 7.25 1.35 10.3 1.35 10.3 2.25 7.6 2.25 5.9 3.9" fill="#69bfff" fill-rule="evenodd" stroke="none"/>
    <path d="M5.9 22.5 L7.6 24.15 10.3 24.15 10.3 25.0 7.25 25.0 5.1 23.05 5.1 19.65 5.9 19.65 5.9 22.5" fill="#69bfff" fill-rule="evenodd" stroke="none"/>
    <path d="M97.85 3.9 L96.15 2.25 93.45 2.25 93.45 1.35 96.5 1.35 98.65 3.35 98.65 6.7 97.85 6.7 97.85 3.9" fill="#69bfff" fill-rule="evenodd" stroke="none"/>
    <path d="M97.85 22.5 L97.85 19.65 98.65 19.65 98.65 23.05 96.5 25.0 93.45 25.0 93.45 24.15 96.15 24.15 97.85 22.5" fill="#69bfff" fill-rule="evenodd" stroke="none"/>
  </g>
  <defs>
    <radialGradient cx="0" cy="0" gradientTransform="matrix(0.0765, 0.0, 0.0, -0.0196, 52.95, 20.05)" gradientUnits="userSpaceOnUse" id="gradient0" r="819.2" spreadMethod="pad">
      <stop offset="0.0" stop-color="#3399cc"/>
      <stop offset="0.14901960784313725" stop-color="#3293d0"/>
      <stop offset="0.34901960784313724" stop-color="#3082db"/>
      <stop offset="0.5764705882352941" stop-color="#2c66ee"/>
      <stop offset="0.7411764705882353" stop-color="#294dff"/>
      <stop offset="0.7568627450980392" stop-color="#274bfb"/>
      <stop offset="0.9137254901960784" stop-color="#143ddb"/>
      <stop offset="1.0" stop-color="#0d38cf"/>
    </radialGradient>
  </defs>
</svg>
