<?xml version="1.0" encoding="UTF-8" standalone="no"?>
<svg xmlns:ffdec="https://www.free-decompiler.com/flash" xmlns:xlink="http://www.w3.org/1999/xlink" ffdec:objectType="shape" height="26.3px" width="104.0px" xmlns="http://www.w3.org/2000/svg">
  <g transform="matrix(1.0, 0.0, 0.0, 1.0, 0.0, 0.0)">
    <path d="M103.35 3.55 L103.35 22.8 Q103.35 24.0 102.55 24.85 101.75 25.7 100.55 25.7 L3.4 25.7 Q2.25 25.7 1.4 24.85 0.55 24.0 0.55 22.8 L0.55 3.55 Q0.55 2.35 1.4 1.5 2.25 0.65 3.4 0.65 L100.55 0.65 Q101.75 0.65 102.55 1.5 103.35 2.35 103.35 3.55" fill="#352502" fill-rule="evenodd" stroke="none"/>
    <path d="M103.0 3.55 Q103.0 2.5 102.3 1.75 101.55 1.05 100.55 1.05 L3.4 1.05 Q2.4 1.05 1.65 1.75 0.95 2.5 0.95 3.55 L0.95 22.8 Q0.95 23.85 1.65 24.6 2.4 25.3 3.4 25.3 L100.55 25.3 Q101.55 25.3 102.3 24.6 103.0 23.85 103.0 22.8 L103.0 3.55 M100.55 0.3 Q101.9 0.3 102.8 1.25 103.75 2.2 103.75 3.55 L103.75 22.8 Q103.75 24.15 102.8 25.1 101.9 26.05 100.55 26.05 L3.4 26.05 Q2.1 26.05 1.15 25.1 0.2 24.15 0.2 22.8 L0.2 3.55 Q0.2 2.2 1.15 1.25 2.1 0.3 3.4 0.3 L100.55 0.3" fill="#5b4002" fill-rule="evenodd" stroke="none"/>
    <path d="M100.9 4.85 L100.9 21.35 Q100.9 22.15 100.4 22.7 99.85 23.25 99.1 23.25 L4.85 23.25 Q4.1 23.25 3.55 22.7 3.0 22.15 3.0 21.35 L3.0 4.85 Q3.0 4.05 3.55 3.5 4.1 2.95 4.85 2.95 L99.1 2.95 Q99.85 2.95 100.4 3.5 100.9 4.05 100.9 4.85" fill="url(#gradient0)" fill-rule="evenodd" stroke="none"/>
    <path d="M100.55 4.85 Q100.55 4.2 100.1 3.8 99.7 3.3 99.1 3.3 L4.85 3.3 Q4.25 3.3 3.85 3.8 3.4 4.2 3.4 4.85 L3.4 21.35 Q3.4 22.0 3.85 22.45 4.25 22.9 4.85 22.9 L99.1 22.9 Q99.7 22.9 100.1 22.45 100.55 22.0 100.55 21.35 L100.55 4.85 M99.1 2.55 Q100.0 2.55 100.65 3.25 101.3 3.9 101.3 4.85 L101.3 21.35 Q101.3 22.35 100.65 23.0 100.0 23.65 99.1 23.65 L4.85 23.65 Q3.95 23.65 3.3 23.0 2.65 22.3 2.65 21.35 L2.65 4.85 Q2.65 3.9 3.3 3.25 3.95 2.55 4.85 2.55 L99.1 2.55" fill="#d3c292" fill-rule="evenodd" stroke="none"/>
    <path d="M0.9 2.8 L0.9 5.95 0.0 5.95 0.0 2.25 2.4 0.0 5.75 0.0 5.75 0.95 2.8 0.95 0.9 2.8" fill="#f7b141" fill-rule="evenodd" stroke="none"/>
    <path d="M0.9 23.45 L2.8 25.3 5.75 25.3 5.75 26.3 2.4 26.3 0.0 24.05 0.0 20.35 0.9 20.35 0.9 23.45" fill="#f7b141" fill-rule="evenodd" stroke="none"/>
    <path d="M103.05 2.8 L101.15 0.95 98.2 0.95 98.2 0.0 101.6 0.0 104.0 2.25 104.0 5.95 103.05 5.95 103.05 2.8" fill="#f7b141" fill-rule="evenodd" stroke="none"/>
    <path d="M103.05 23.45 L103.05 20.35 104.0 20.35 104.0 24.05 101.6 26.3 98.2 26.3 98.2 25.3 101.15 25.3 103.05 23.45" fill="#f7b141" fill-rule="evenodd" stroke="none"/>
  </g>
  <defs>
    <radialGradient cx="0" cy="0" gradientTransform="matrix(0.085, 0.0, 0.0, -0.0218, 53.1, 20.8)" gradientUnits="userSpaceOnUse" id="gradient0" r="819.2" spreadMethod="pad">
      <stop offset="0.0" stop-color="#e6b107"/>
      <stop offset="0.10588235294117647" stop-color="#e1ab07"/>
      <stop offset="0.24705882352941178" stop-color="#d29a06"/>
      <stop offset="0.40784313725490196" stop-color="#b97e04"/>
      <stop offset="0.5843137254901961" stop-color="#975702"/>
      <stop offset="0.7411764705882353" stop-color="#732e00"/>
      <stop offset="0.8196078431372549" stop-color="#592204"/>
      <stop offset="0.9372549019607843" stop-color="#39140a"/>
      <stop offset="1.0" stop-color="#2d0e0c"/>
    </radialGradient>
  </defs>
</svg>
