<?xml version="1.0" encoding="UTF-8" standalone="no"?>
<svg xmlns:ffdec="https://www.free-decompiler.com/flash" xmlns:xlink="http://www.w3.org/1999/xlink" ffdec:objectType="shape" height="26.3px" width="104.0px" xmlns="http://www.w3.org/2000/svg">
  <g transform="matrix(1.0, 0.0, 0.0, 1.0, 0.0, 0.0)">
    <path d="M103.4 3.55 L103.4 22.85 Q103.4 24.05 102.6 24.9 101.75 25.75 100.6 25.75 L3.4 25.75 Q2.25 25.75 1.45 24.9 0.6 24.05 0.6 22.85 L0.6 3.55 Q0.6 2.4 1.45 1.55 2.25 0.7 3.4 0.7 L100.6 0.7 Q101.75 0.7 102.6 1.55 103.4 2.4 103.4 3.55" fill="#020d26" fill-rule="evenodd" stroke="none"/>
    <path d="M100.6 0.3 Q101.9 0.3 102.85 1.25 103.8 2.25 103.8 3.55 L103.8 22.85 Q103.8 24.2 102.85 25.15 101.9 26.1 100.6 26.1 L3.4 26.1 Q2.1 26.1 1.15 25.15 0.25 24.2 0.25 22.85 L0.25 3.55 Q0.25 2.25 1.15 1.25 2.1 0.3 3.4 0.3 L100.6 0.3 M103.05 3.55 Q103.05 2.55 102.35 1.8 101.6 1.05 100.6 1.05 L3.4 1.05 Q2.4 1.05 1.7 1.8 0.95 2.55 0.95 3.55 L0.95 22.85 Q0.95 23.9 1.7 24.65 2.4 25.35 3.4 25.35 L100.6 25.35 Q101.6 25.35 102.35 24.65 103.05 23.9 103.05 22.85 L103.05 3.55" fill="#1c4b84" fill-rule="evenodd" stroke="none"/>
    <path d="M101.1 4.85 L101.1 21.4 Q101.1 22.25 100.5 22.85 99.95 23.4 99.1 23.4 L4.9 23.4 Q4.1 23.4 3.5 22.85 2.95 22.25 2.95 21.4 L2.95 4.85 Q2.95 4.05 3.5 3.45 4.1 2.85 4.9 2.85 L99.1 2.85 Q99.95 2.85 100.5 3.45 101.1 4.05 101.1 4.85" fill="url(#gradient0)" fill-rule="evenodd" stroke="none"/>
    <path d="M99.1 2.35 Q100.1 2.35 100.85 3.05 101.55 3.8 101.55 4.85 L101.55 21.4 Q101.55 22.45 100.85 23.2 100.1 23.95 99.1 23.95 L4.9 23.95 Q3.9 23.95 3.15 23.2 2.45 22.45 2.45 21.4 L2.45 4.85 Q2.45 3.8 3.15 3.05 3.9 2.35 4.9 2.35 L99.1 2.35 M100.6 4.85 Q100.6 4.25 100.15 3.8 99.75 3.35 99.1 3.35 L4.9 3.35 Q4.3 3.35 3.85 3.8 3.4 4.25 3.4 4.85 L3.4 21.4 Q3.4 22.05 3.85 22.45 4.3 22.9 4.9 22.9 L99.1 22.9 Q99.75 22.9 100.15 22.45 L100.6 21.4 100.6 4.85" fill="#2c8ff2" fill-rule="evenodd" stroke="none"/>
    <path d="M0.95 2.85 L0.95 5.95 0.0 5.95 0.0 2.25 2.4 0.0 5.8 0.0 5.8 0.95 2.8 0.95 0.95 2.85" fill="#69bfff" fill-rule="evenodd" stroke="none"/>
    <path d="M0.95 23.45 L2.8 25.35 5.8 25.35 5.8 26.3 2.4 26.3 0.0 24.05 0.0 20.35 0.95 20.35 0.95 23.45" fill="#69bfff" fill-rule="evenodd" stroke="none"/>
    <path d="M103.1 2.85 L101.2 0.95 98.2 0.95 98.2 0.0 101.6 0.0 104.0 2.25 104.0 5.95 103.1 5.95 103.1 2.85" fill="#69bfff" fill-rule="evenodd" stroke="none"/>
    <path d="M103.1 23.45 L103.1 20.35 104.0 20.35 104.0 24.05 101.6 26.3 98.2 26.3 98.2 25.35 101.2 25.35 103.1 23.45" fill="#69bfff" fill-rule="evenodd" stroke="none"/>
  </g>
  <defs>
    <linearGradient gradientTransform="matrix(0.0599, 0.0, 0.0, -0.0615, 52.0, 13.15)" gradientUnits="userSpaceOnUse" id="gradient0" spreadMethod="pad" x1="-819.2" x2="819.2">
      <stop offset="0.0" stop-color="#003eb5"/>
      <stop offset="0.5294117647058824" stop-color="#00278b"/>
      <stop offset="1.0" stop-color="#004acc"/>
    </linearGradient>
  </defs>
</svg>
