<?xml version="1.0" encoding="UTF-8" standalone="no"?>
<svg xmlns:ffdec="https://www.free-decompiler.com/flash" xmlns:xlink="http://www.w3.org/1999/xlink" ffdec:objectType="shape" height="27.0px" width="104.0px" xmlns="http://www.w3.org/2000/svg">
  <g transform="matrix(1.0, 0.0, 0.0, 1.0, 0.0, 0.0)">
    <path d="M103.4 3.65 L103.4 23.4 Q103.4 24.65 102.6 25.5 101.75 26.4 100.55 26.4 L3.4 26.4 Q2.25 26.4 1.4 25.5 0.6 24.65 0.6 23.4 L0.6 3.65 Q0.6 2.45 1.4 1.55 2.25 0.7 3.4 0.7 L100.55 0.7 Q101.75 0.7 102.6 1.55 103.4 2.45 103.4 3.65" fill="#352502" fill-rule="evenodd" stroke="none"/>
    <path d="M100.55 0.3 Q101.9 0.3 102.85 1.3 103.75 2.25 103.75 3.65 L103.75 23.4 Q103.75 24.8 102.85 25.8 101.9 26.8 100.55 26.8 L3.4 26.8 Q2.1 26.8 1.15 25.8 0.2 24.8 0.2 23.4 L0.2 3.65 Q0.2 2.25 1.15 1.3 2.1 0.3 3.4 0.3 L100.55 0.3 M103.05 3.65 Q103.05 2.6 102.3 1.8 101.6 1.05 100.55 1.05 L3.4 1.05 Q2.4 1.05 1.65 1.8 0.95 2.6 0.95 3.65 L0.95 23.4 Q0.95 24.5 1.65 25.25 2.4 26.0 3.4 26.0 L100.55 26.0 Q101.6 26.0 102.3 25.25 103.05 24.5 103.05 23.4 L103.05 3.65" fill="#5b4002" fill-rule="evenodd" stroke="none"/>
    <path d="M100.95 4.95 L100.95 21.95 Q100.95 22.75 100.4 23.3 99.85 23.9 99.1 23.9 L4.9 23.9 Q4.1 23.9 3.6 23.3 3.05 22.75 3.05 21.95 L3.05 4.95 Q3.05 4.15 3.6 3.6 4.1 3.05 4.9 3.05 L99.1 3.05 Q99.85 3.05 100.4 3.6 100.95 4.15 100.95 4.95" fill="url(#gradient0)" fill-rule="evenodd" stroke="none"/>
    <path d="M99.1 2.65 Q100.0 2.65 100.65 3.35 101.3 4.0 101.3 4.95 L101.3 21.95 Q101.3 22.95 100.65 23.6 100.05 24.25 99.1 24.25 L4.9 24.25 Q3.95 24.25 3.35 23.6 2.65 22.9 2.65 21.95 L2.65 4.95 Q2.65 4.0 3.35 3.35 3.95 2.65 4.9 2.65 L99.1 2.65 M100.55 4.95 Q100.55 4.35 100.15 3.9 99.7 3.4 99.1 3.4 L4.9 3.4 Q4.25 3.4 3.85 3.9 3.4 4.35 3.4 4.95 L3.4 21.95 Q3.4 22.6 3.85 23.05 4.25 23.5 4.9 23.5 L99.1 23.5 Q99.7 23.5 100.15 23.05 100.55 22.6 100.55 21.95 L100.55 4.95" fill="#d3c292" fill-rule="evenodd" stroke="none"/>
    <path d="M0.95 2.9 L0.95 6.1 0.0 6.1 0.0 2.3 2.4 0.0 5.8 0.0 5.8 1.0 2.8 1.0 0.95 2.9" fill="#f7b141" fill-rule="evenodd" stroke="none"/>
    <path d="M0.95 24.1 L2.8 26.0 5.8 26.0 5.8 27.0 2.4 27.0 0.0 24.7 0.0 20.9 0.95 20.9 0.95 24.1" fill="#f7b141" fill-rule="evenodd" stroke="none"/>
    <path d="M103.1 2.9 L101.2 1.0 98.2 1.0 98.2 0.0 101.6 0.0 104.0 2.3 104.0 6.1 103.1 6.1 103.1 2.9" fill="#f7b141" fill-rule="evenodd" stroke="none"/>
    <path d="M103.1 24.1 L103.1 20.9 104.0 20.9 104.0 24.7 101.6 27.0 98.2 27.0 98.2 26.0 101.2 26.0 103.1 24.1" fill="#f7b141" fill-rule="evenodd" stroke="none"/>
  </g>
  <defs>
    <radialGradient cx="0" cy="0" gradientTransform="matrix(0.085, 0.0, 0.0, -0.0224, 53.1, 21.4)" gradientUnits="userSpaceOnUse" id="gradient0" r="819.2" spreadMethod="pad">
      <stop offset="0.0" stop-color="#e6b107"/>
      <stop offset="0.10588235294117647" stop-color="#e1ab07"/>
      <stop offset="0.24705882352941178" stop-color="#d29a06"/>
      <stop offset="0.40784313725490196" stop-color="#b97e04"/>
      <stop offset="0.5843137254901961" stop-color="#975702"/>
      <stop offset="0.7411764705882353" stop-color="#732e00"/>
      <stop offset="0.8196078431372549" stop-color="#592204"/>
      <stop offset="0.9372549019607843" stop-color="#39140a"/>
      <stop offset="1.0" stop-color="#2d0e0c"/>
    </radialGradient>
  </defs>
</svg>
