<?xml version="1.0" encoding="UTF-8" standalone="no"?>
<svg xmlns:ffdec="https://www.free-decompiler.com/flash" xmlns:xlink="http://www.w3.org/1999/xlink" ffdec:objectType="shape" height="59.3px" width="202.35px" xmlns="http://www.w3.org/2000/svg">
  <g transform="matrix(1.0, 0.0, 0.0, 1.0, 0.5, 0.5)">
    <path d="M201.35 3.0 L201.35 55.3 Q201.35 56.55 200.45 57.4 199.6 58.3 198.35 58.3 L3.0 58.3 Q1.75 58.3 0.9 57.4 0.0 56.55 0.0 55.3 L0.0 3.0 Q0.0 1.75 0.9 0.9 1.75 0.0 3.0 0.0 L198.35 0.0 Q199.6 0.0 200.45 0.9 201.35 1.75 201.35 3.0" fill="url(#gradient0)" fill-rule="evenodd" stroke="none"/>
    <path d="M201.35 3.0 L201.35 55.3 Q201.35 56.55 200.45 57.4 199.6 58.3 198.35 58.3 L3.0 58.3 Q1.75 58.3 0.9 57.4 0.0 56.55 0.0 55.3 L0.0 3.0 Q0.0 1.75 0.9 0.9 1.75 0.0 3.0 0.0 L198.35 0.0 Q199.6 0.0 200.45 0.9 201.35 1.75 201.35 3.0 Z" fill="none" stroke="#0569e0" stroke-linecap="butt" stroke-linejoin="miter-clip" stroke-miterlimit="4.0" stroke-width="1.0"/>
    <path d="M5.9 4.85 L53.9 4.85 53.9 52.85 5.9 52.85 5.9 4.85" fill="#031854" fill-rule="evenodd" stroke="none"/>
    <path d="M5.9 4.85 L53.9 4.85 53.9 52.85 5.9 52.85 5.9 4.85 Z" fill="none" stroke="#035eef" stroke-linecap="butt" stroke-linejoin="miter-clip" stroke-miterlimit="4.0" stroke-width="1.0"/>
  </g>
  <defs>
    <linearGradient gradientTransform="matrix(0.0, -0.0356, -0.0356, 0.0, 100.65, 29.15)" gradientUnits="userSpaceOnUse" id="gradient0" spreadMethod="pad" x1="-819.2" x2="819.2">
      <stop offset="0.0" stop-color="#05337a"/>
      <stop offset="0.0784313725490196" stop-color="#032768"/>
      <stop offset="0.19215686274509805" stop-color="#021b57"/>
      <stop offset="0.3333333333333333" stop-color="#01134b"/>
      <stop offset="0.5254901960784314" stop-color="#000e44"/>
      <stop offset="1.0" stop-color="#000d42"/>
    </linearGradient>
  </defs>
</svg>
