<?xml version="1.0" encoding="UTF-8" standalone="no"?>
<svg xmlns:ffdec="https://www.free-decompiler.com/flash" xmlns:xlink="http://www.w3.org/1999/xlink" ffdec:objectType="shape" height="60.3px" width="203.35px" xmlns="http://www.w3.org/2000/svg">
  <g transform="matrix(1.0, 0.0, 0.0, 1.0, 1.0, 1.0)">
    <path d="M3.0 0.0 L198.35 0.0 Q199.6 0.0 200.45 0.9 201.35 1.75 201.35 3.0 L201.35 55.3 Q201.35 56.55 200.45 57.4 199.6 58.3 198.35 58.3 L3.0 58.3 Q1.75 58.3 0.9 57.4 0.0 56.55 0.0 55.3 L0.0 3.0 Q0.0 1.75 0.9 0.9 1.75 0.0 3.0 0.0" fill="#042d7f" fill-rule="evenodd" stroke="none"/>
    <path d="M3.0 0.0 L198.35 0.0 Q199.6 0.0 200.45 0.9 201.35 1.75 201.35 3.0 L201.35 55.3 Q201.35 56.55 200.45 57.4 199.6 58.3 198.35 58.3 L3.0 58.3 Q1.75 58.3 0.9 57.4 0.0 56.55 0.0 55.3 L0.0 3.0 Q0.0 1.75 0.9 0.9 1.75 0.0 3.0 0.0 Z" fill="none" stroke="#0376ff" stroke-linecap="butt" stroke-linejoin="miter-clip" stroke-miterlimit="4.0" stroke-width="2.0"/>
    <path d="M5.9 4.85 L53.9 4.85 53.9 52.85 5.9 52.85 5.9 4.85" fill="#031854" fill-rule="evenodd" stroke="none"/>
    <path d="M5.9 4.85 L53.9 4.85 53.9 52.85 5.9 52.85 5.9 4.85 Z" fill="none" stroke="#035eef" stroke-linecap="butt" stroke-linejoin="miter-clip" stroke-miterlimit="4.0" stroke-width="1.0"/>
  </g>
</svg>
