<?xml version="1.0" encoding="UTF-8" standalone="no"?>
<svg xmlns:ffdec="https://www.free-decompiler.com/flash" xmlns:xlink="http://www.w3.org/1999/xlink" ffdec:objectType="shape" height="20.0px" width="80.6px" xmlns="http://www.w3.org/2000/svg">
  <g transform="matrix(1.0, 0.0, 0.0, 1.0, 1.5, 0.0)">
    <path d="M78.35 3.05 L78.35 16.95 Q78.35 17.95 77.55 18.65 76.75 19.35 75.6 19.35 L2.0 19.35 Q0.85 19.35 0.05 18.65 -0.75 17.95 -0.75 16.95 L-0.75 3.05 Q-0.75 2.05 0.05 1.35 0.85 0.65 2.0 0.65 L75.6 0.65 Q76.75 0.65 77.55 1.35 78.35 2.1 78.35 3.05" fill="url(#gradient0)" fill-rule="evenodd" stroke="none"/>
    <path d="M77.6 3.05 Q77.6 2.35 77.0 1.8 76.45 1.3 75.6 1.3 L2.0 1.3 Q1.2 1.3 0.6 1.8 0.0 2.35 0.0 3.05 L0.0 16.95 Q0.0 17.7 0.6 18.15 1.2 18.7 2.0 18.7 L75.6 18.7 Q76.45 18.7 77.0 18.15 77.6 17.7 77.6 16.95 L77.6 3.05 M75.6 0.0 Q77.05 0.0 78.05 0.85 79.1 1.8 79.1 3.05 L79.1 16.95 Q79.1 18.2 78.05 19.15 77.05 20.0 75.6 20.0 L2.0 20.0 Q0.55 20.0 -0.5 19.15 -1.5 18.2 -1.5 16.95 L-1.5 3.05 Q-1.5 1.8 -0.5 0.85 0.55 0.0 2.0 0.0 L75.6 0.0" fill="#29abe2" fill-rule="evenodd" stroke="none"/>
  </g>
  <defs>
    <linearGradient gradientTransform="matrix(0.0, 0.0116, 0.0133, 0.0, 38.8, 9.55)" gradientUnits="userSpaceOnUse" id="gradient0" spreadMethod="pad" x1="-819.2" x2="819.2">
      <stop offset="0.0" stop-color="#0d63bf"/>
      <stop offset="0.09019607843137255" stop-color="#0d5ac3"/>
      <stop offset="0.24313725490196078" stop-color="#0d4fc7"/>
      <stop offset="1.0" stop-color="#005cff"/>
    </linearGradient>
  </defs>
</svg>
