<?xml version="1.0" encoding="UTF-8" standalone="no"?>
<svg xmlns:ffdec="https://www.free-decompiler.com/flash" xmlns:xlink="http://www.w3.org/1999/xlink" ffdec:objectType="shape" height="18.0px" width="72.55px" xmlns="http://www.w3.org/2000/svg">
  <g transform="matrix(1.0, 0.0, 0.0, 1.0, -2.55, -1.0)">
    <path d="M74.4 3.75 L74.4 16.25 Q74.4 17.15 73.7 17.8 73.0 18.4 71.95 18.4 L5.7 18.4 Q4.65 18.4 3.95 17.8 3.25 17.15 3.25 16.25 L3.25 3.75 Q3.25 2.85 3.95 2.2 4.65 1.6 5.7 1.6 L71.95 1.6 Q73.0 1.6 73.7 2.2 74.4 2.9 74.4 3.75" fill="url(#gradient0)" fill-rule="evenodd" stroke="none"/>
    <path d="M73.75 3.75 Q73.75 3.1 73.2 2.6 72.7 2.15 71.95 2.15 L5.7 2.15 Q5.0 2.15 4.45 2.6 3.9 3.1 3.9 3.75 L3.9 16.25 Q3.9 16.95 4.45 17.35 5.0 17.85 5.7 17.85 L71.95 17.85 Q72.7 17.85 73.2 17.35 73.75 16.95 73.75 16.25 L73.75 3.75 M71.95 1.0 Q73.25 1.0 74.15 1.75 75.1 2.6 75.1 3.75 L75.1 16.25 Q75.1 17.4 74.15 18.25 73.25 19.0 71.95 19.0 L5.7 19.0 Q4.4 19.0 3.45 18.25 2.55 17.4 2.55 16.25 L2.55 3.75 Q2.55 2.6 3.45 1.75 4.4 1.0 5.7 1.0 L71.95 1.0" fill="#f19e24" fill-rule="evenodd" stroke="none"/>
  </g>
  <defs>
    <linearGradient gradientTransform="matrix(0.0, -0.0082, -0.0076, 0.0, -121.8, 11.55)" gradientUnits="userSpaceOnUse" id="gradient0" spreadMethod="pad" x1="-819.2" x2="819.2">
      <stop offset="0.0" stop-color="#eb8242"/>
      <stop offset="0.00392156862745098" stop-color="#e87f40"/>
      <stop offset="0.043137254901960784" stop-color="#cb6129"/>
      <stop offset="0.08627450980392157" stop-color="#b34917"/>
      <stop offset="0.13333333333333333" stop-color="#a3380a"/>
      <stop offset="0.1803921568627451" stop-color="#992e02"/>
      <stop offset="0.24313725490196078" stop-color="#962b00"/>
      <stop offset="0.4392156862745098" stop-color="#982e00"/>
      <stop offset="0.592156862745098" stop-color="#9f3800"/>
      <stop offset="0.7333333333333333" stop-color="#ab4901"/>
      <stop offset="0.8666666666666667" stop-color="#bb6002"/>
      <stop offset="0.996078431372549" stop-color="#d07f03"/>
      <stop offset="1.0" stop-color="#d18003"/>
    </linearGradient>
  </defs>
</svg>
