<?xml version="1.0" encoding="UTF-8" standalone="no"?>
<svg xmlns:ffdec="https://www.free-decompiler.com/flash" xmlns:xlink="http://www.w3.org/1999/xlink" ffdec:objectType="shape" height="146.55px" width="182.35px" xmlns="http://www.w3.org/2000/svg">
  <g transform="matrix(1.0, 0.0, 0.0, 1.0, 0.0, 0.0)">
    <path d="M178.85 0.5 Q180.1 0.5 180.95 1.4 181.85 2.25 181.85 3.5 L181.85 143.05 Q181.85 144.3 180.95 145.2 180.1 146.05 178.85 146.05 L7.9 146.05 5.15 145.45 2.75 143.95 2.65 143.85 Q1.75 142.95 1.15 141.45 0.5 139.95 0.5 138.7 L0.5 3.5 Q0.5 2.25 1.4 1.4 2.25 0.5 3.5 0.5 L178.85 0.5" fill="url(#gradient0)" fill-rule="evenodd" stroke="none"/>
    <path d="M178.85 0.5 L3.5 0.5 Q2.25 0.5 1.4 1.4 0.5 2.25 0.5 3.5 L0.5 138.7 Q0.5 139.95 1.15 141.45 1.75 142.95 2.65 143.85 L2.75 143.95 5.15 145.45 7.9 146.05 178.85 146.05 Q180.1 146.05 180.95 145.2 181.85 144.3 181.85 143.05 L181.85 3.5 Q181.85 2.25 180.95 1.4 180.1 0.5 178.85 0.5 Z" fill="none" stroke="#508fff" stroke-linecap="butt" stroke-linejoin="miter-clip" stroke-miterlimit="4.0" stroke-width="1.0"/>
  </g>
  <defs>
    <linearGradient gradientTransform="matrix(0.0, -0.0888, -0.0888, 0.0, 91.15, 73.3)" gradientUnits="userSpaceOnUse" id="gradient0" spreadMethod="pad" x1="-819.2" x2="819.2">
      <stop offset="0.0" stop-color="#002e61"/>
      <stop offset="0.09019607843137255" stop-color="#002457"/>
      <stop offset="0.23137254901960785" stop-color="#001c4f"/>
      <stop offset="0.5176470588235295" stop-color="#001a4d"/>
      <stop offset="1.0" stop-color="#000437"/>
    </linearGradient>
  </defs>
</svg>
