<?xml version="1.0" encoding="UTF-8" standalone="no"?>
<svg xmlns:ffdec="https://www.free-decompiler.com/flash" xmlns:xlink="http://www.w3.org/1999/xlink" ffdec:objectType="shape" height="18.95px" width="182.55px" xmlns="http://www.w3.org/2000/svg">
  <g transform="matrix(1.0, 0.0, 0.0, 1.0, 0.0, 0.0)">
    <path d="M163.45 0.5 Q164.7 0.5 166.15 1.15 167.65 1.75 168.5 2.65 L181.2 16.3 Q182.05 17.2 181.8 17.85 181.5 18.45 180.25 18.45 L3.5 18.45 Q2.25 18.45 1.4 17.55 0.5 16.7 0.5 15.45 L0.5 3.5 Q0.5 2.25 1.4 1.4 2.25 0.5 3.5 0.5 L163.45 0.5" fill="#021c66" fill-rule="evenodd" stroke="none"/>
    <path d="M163.45 0.5 L3.5 0.5 Q2.25 0.5 1.4 1.4 0.5 2.25 0.5 3.5 L0.5 15.45 Q0.5 16.7 1.4 17.55 2.25 18.45 3.5 18.45 L180.25 18.45 Q181.5 18.45 181.8 17.85 182.05 17.2 181.2 16.3 L168.5 2.65 Q167.65 1.75 166.15 1.15 164.7 0.5 163.45 0.5 Z" fill="none" stroke="#3b94ff" stroke-linecap="butt" stroke-linejoin="miter-clip" stroke-miterlimit="4.0" stroke-width="1.0"/>
  </g>
</svg>
