<?xml version="1.0" encoding="UTF-8" standalone="no"?>
<svg xmlns:ffdec="https://www.free-decompiler.com/flash" xmlns:xlink="http://www.w3.org/1999/xlink" ffdec:objectType="shape" height="444.5px" width="640.45px" xmlns="http://www.w3.org/2000/svg">
  <g transform="matrix(1.0, 0.0, 0.0, 1.0, 319.65, 216.45)">
    <path d="M319.6 -212.25 L319.6 173.6 Q319.6 175.15 318.6 176.15 317.6 177.25 316.2 177.25 L-315.65 177.25 Q-317.1 177.25 -318.05 176.15 -319.1 175.15 -319.1 173.6 L-319.1 -212.25 Q-319.1 -213.8 -318.05 -214.85 -317.1 -215.95 -315.65 -215.95 L316.2 -215.95 Q317.6 -215.95 318.6 -214.85 319.6 -213.8 319.6 -212.25" fill="#010f33" fill-rule="evenodd" stroke="none"/>
    <path d="M319.6 -212.25 L319.6 173.6 Q319.6 175.15 318.6 176.15 317.6 177.25 316.2 177.25 L-315.65 177.25 Q-317.1 177.25 -318.05 176.15 -319.1 175.15 -319.1 173.6 L-319.1 -212.25 Q-319.1 -213.8 -318.05 -214.85 -317.1 -215.95 -315.65 -215.95 L316.2 -215.95 Q317.6 -215.95 318.6 -214.85 319.6 -213.8 319.6 -212.25 Z" fill="none" stroke="#0967d8" stroke-linecap="butt" stroke-linejoin="miter-clip" stroke-miterlimit="4.0" stroke-width="1.0"/>
    <path d="M-315.75 180.05 L316.65 180.05 Q318.1 180.05 319.05 180.95 320.1 181.8 320.1 183.05 L320.1 222.8 Q320.1 224.05 319.05 224.9 318.1 225.8 316.65 225.8 L-315.75 225.8 Q-317.15 225.8 -318.15 224.9 -319.15 224.05 -319.15 222.8 L-319.15 183.05 Q-319.15 181.8 -318.15 180.95 -317.15 180.05 -315.75 180.05" fill="#03236d" fill-rule="evenodd" stroke="none"/>
    <path d="M-315.75 180.05 L316.65 180.05 Q318.1 180.05 319.05 180.95 320.1 181.8 320.1 183.05 L320.1 222.8 Q320.1 224.05 319.05 224.9 318.1 225.8 316.65 225.8 L-315.75 225.8 Q-317.15 225.8 -318.15 224.9 -319.15 224.05 -319.15 222.8 L-319.15 183.05 Q-319.15 181.8 -318.15 180.95 -317.15 180.05 -315.75 180.05 Z" fill="none" stroke="#086dff" stroke-linecap="butt" stroke-linejoin="miter-clip" stroke-miterlimit="4.0" stroke-width="1.0"/>
    <path d="M320.8 181.3 L320.8 197.35 318.2 195.35 318.2 188.45 313.5 183.9 206.75 183.9 204.75 181.3 320.8 181.3" fill="#054be5" fill-rule="evenodd" stroke="none"/>
    <path d="M-205.35 225.45 L-203.3 228.05 -319.4 228.05 -319.4 212.0 -316.8 214.0 -316.8 220.9 -312.1 225.45 -205.35 225.45" fill="#054be5" fill-rule="evenodd" stroke="none"/>
  </g>
</svg>
