<?xml version="1.0" encoding="UTF-8" standalone="no"?>
<svg xmlns:ffdec="https://www.free-decompiler.com/flash" xmlns:xlink="http://www.w3.org/1999/xlink" ffdec:objectType="shape" height="326.05px" width="632.9px" xmlns="http://www.w3.org/2000/svg">
  <g transform="matrix(1.0, 0.0, 0.0, 1.0, 315.95, 150.35)">
    <path d="M316.05 -146.35 L316.05 172.2 Q316.05 173.45 315.15 174.3 314.3 175.2 313.05 175.2 L-312.1 175.2 Q-313.35 175.2 -314.2 174.3 -315.1 173.45 -315.1 172.2 L-315.1 -146.35 Q-315.1 -147.6 -314.2 -148.45 -313.35 -149.35 -312.1 -149.35 L313.05 -149.35 Q314.3 -149.35 315.15 -148.45 316.05 -147.6 316.05 -146.35" fill="url(#gradient0)" fill-rule="evenodd" stroke="none"/>
    <path d="M316.05 -146.35 L316.05 172.2 Q316.05 173.45 315.15 174.3 314.3 175.2 313.05 175.2 L-312.1 175.2 Q-313.35 175.2 -314.2 174.3 -315.1 173.45 -315.1 172.2 L-315.1 -146.35 Q-315.1 -147.6 -314.2 -148.45 -313.35 -149.35 -312.1 -149.35 L313.05 -149.35 Q314.3 -149.35 315.15 -148.45 316.05 -147.6 316.05 -146.35 Z" fill="none" stroke="#0068ff" stroke-linecap="butt" stroke-linejoin="miter-clip" stroke-miterlimit="4.0" stroke-width="1.0"/>
    <path d="M315.95 -146.35 L315.95 -122.55 Q315.95 -121.3 315.05 -120.45 314.2 -119.55 312.95 -119.55 L-311.95 -119.55 Q-313.2 -119.55 -314.05 -120.45 -314.95 -121.3 -314.95 -122.55 L-314.95 -146.35 Q-314.95 -147.6 -314.05 -148.45 -313.2 -149.35 -311.95 -149.35 L312.95 -149.35 Q314.2 -149.35 315.05 -148.45 315.95 -147.6 315.95 -146.35" fill="#002068" fill-rule="evenodd" stroke="none"/>
    <path d="M315.95 -146.35 L315.95 -122.55 Q315.95 -121.3 315.05 -120.45 314.2 -119.55 312.95 -119.55 L-311.95 -119.55 Q-313.2 -119.55 -314.05 -120.45 -314.95 -121.3 -314.95 -122.55 L-314.95 -146.35 Q-314.95 -147.6 -314.05 -148.45 -313.2 -149.35 -311.95 -149.35 L312.95 -149.35 Q314.2 -149.35 315.05 -148.45 315.95 -147.6 315.95 -146.35 Z" fill="none" stroke="#024ebc" stroke-linecap="butt" stroke-linejoin="miter-clip" stroke-miterlimit="4.0" stroke-width="2.0"/>
  </g>
  <defs>
    <linearGradient gradientTransform="matrix(0.0, -0.1981, -0.1981, 0.0, 0.5, 12.95)" gradientUnits="userSpaceOnUse" id="gradient0" spreadMethod="pad" x1="-819.2" x2="819.2">
      <stop offset="0.0" stop-color="#05337a"/>
      <stop offset="0.0784313725490196" stop-color="#032a68"/>
      <stop offset="0.19215686274509805" stop-color="#022257"/>
      <stop offset="0.3333333333333333" stop-color="#011c4b"/>
      <stop offset="0.5254901960784314" stop-color="#001844"/>
      <stop offset="1.0" stop-color="#001742"/>
    </linearGradient>
  </defs>
</svg>
