<?xml version="1.0" encoding="UTF-8" standalone="no"?>
<svg xmlns:ffdec="https://www.free-decompiler.com/flash" xmlns:xlink="http://www.w3.org/1999/xlink" ffdec:objectType="shape" height="358.5px" width="631.2px" xmlns="http://www.w3.org/2000/svg">
  <g transform="matrix(1.0, 0.0, 0.0, 1.0, 315.35, 213.0)">
    <path d="M309.2 -208.8 Q310.45 -208.8 311.3 -207.9 312.2 -207.05 312.2 -205.8 L312.2 -158.9 Q312.2 -157.65 311.3 -156.8 310.45 -155.9 309.2 -155.9 L-311.1 -155.9 Q-312.35 -155.9 -313.2 -156.8 -314.1 -157.65 -314.1 -158.9 L-314.1 -205.8 Q-314.1 -207.05 -313.2 -207.9 -312.35 -208.8 -311.1 -208.8 L-118.65 -208.8 Q-117.4 -208.8 -116.0 -208.1 -114.55 -207.4 -113.85 -206.4 L-98.95 -186.6 Q-98.2 -185.6 -96.8 -184.9 -95.4 -184.2 -94.15 -184.2 L91.15 -184.2 Q92.4 -184.2 93.8 -184.9 95.2 -185.6 96.0 -186.6 L111.3 -206.45 113.5 -208.1 Q114.9 -208.8 116.15 -208.8 L309.2 -208.8" fill="url(#gradient0)" fill-rule="evenodd" stroke="none"/>
    <path d="M309.2 -208.8 L116.15 -208.8 Q114.9 -208.8 113.5 -208.1 L111.3 -206.45 96.0 -186.6 Q95.2 -185.6 93.8 -184.9 92.4 -184.2 91.15 -184.2 L-94.15 -184.2 Q-95.4 -184.2 -96.8 -184.9 -98.2 -185.6 -98.95 -186.6 L-113.85 -206.4 Q-114.55 -207.4 -116.0 -208.1 -117.4 -208.8 -118.65 -208.8 L-311.1 -208.8 Q-312.35 -208.8 -313.2 -207.9 -314.1 -207.05 -314.1 -205.8 L-314.1 -158.9 Q-314.1 -157.65 -313.2 -156.8 -312.35 -155.9 -311.1 -155.9 L309.2 -155.9 Q310.45 -155.9 311.3 -156.8 312.2 -157.65 312.2 -158.9 L312.2 -205.8 Q312.2 -207.05 311.3 -207.9 310.45 -208.8 309.2 -208.8 Z" fill="none" stroke="#0068ff" stroke-linecap="butt" stroke-linejoin="miter-clip" stroke-miterlimit="4.0" stroke-width="1.0"/>
    <path d="M110.95 -212.25 L91.95 -188.9 -95.4 -188.9 -113.4 -212.25 110.95 -212.25" fill="#062f93" fill-rule="evenodd" stroke="none"/>
    <path d="M110.95 -212.25 L-113.4 -212.25 -95.4 -188.9 91.95 -188.9 110.95 -212.25 Z" fill="none" stroke="#0659ff" stroke-linecap="butt" stroke-linejoin="miter-clip" stroke-miterlimit="4.0" stroke-width="1.5"/>
    <path d="M315.85 -28.5 L-315.35 -28.5 -315.35 -29.5 315.85 -29.5 315.85 -28.5" fill="url(#gradient1)" fill-rule="evenodd" stroke="none"/>
    <path d="M315.85 -58.5 L-315.35 -58.5 -315.35 -59.5 315.85 -59.5 315.85 -58.5" fill="url(#gradient2)" fill-rule="evenodd" stroke="none"/>
    <path d="M315.85 -88.5 L-315.35 -88.5 -315.35 -89.5 315.85 -89.5 315.85 -88.5" fill="url(#gradient3)" fill-rule="evenodd" stroke="none"/>
    <path d="M315.85 0.5 L-315.35 0.5 -315.35 -0.5 315.85 -0.5 315.85 0.5" fill="url(#gradient4)" fill-rule="evenodd" stroke="none"/>
    <path d="M315.85 29.5 L-315.35 29.5 -315.35 28.5 315.85 28.5 315.85 29.5" fill="url(#gradient5)" fill-rule="evenodd" stroke="none"/>
    <path d="M315.85 58.5 L-315.35 58.5 -315.35 57.5 315.85 57.5 315.85 58.5" fill="url(#gradient6)" fill-rule="evenodd" stroke="none"/>
    <path d="M315.85 87.5 L-315.35 87.5 -315.35 86.5 315.85 86.5 315.85 87.5" fill="url(#gradient7)" fill-rule="evenodd" stroke="none"/>
    <path d="M315.85 116.5 L-315.35 116.5 -315.35 115.5 315.85 115.5 315.85 116.5" fill="url(#gradient8)" fill-rule="evenodd" stroke="none"/>
    <path d="M315.85 145.5 L-315.35 145.5 -315.35 144.5 315.85 144.5 315.85 145.5" fill="url(#gradient9)" fill-rule="evenodd" stroke="none"/>
  </g>
  <defs>
    <linearGradient gradientTransform="matrix(0.0, -0.0323, 0.0323, 0.0, -0.95, -182.35)" gradientUnits="userSpaceOnUse" id="gradient0" spreadMethod="pad" x1="-819.2" x2="819.2">
      <stop offset="0.0" stop-color="#000a40"/>
      <stop offset="0.47058823529411764" stop-color="#000b42"/>
      <stop offset="0.6627450980392157" stop-color="#011049"/>
      <stop offset="0.8" stop-color="#021955"/>
      <stop offset="0.9137254901960784" stop-color="#032566"/>
      <stop offset="1.0" stop-color="#05337a"/>
    </linearGradient>
    <linearGradient gradientTransform="matrix(0.3853, 0.0, 0.0, -0.386, 0.25, -29.0)" gradientUnits="userSpaceOnUse" id="gradient1" spreadMethod="pad" x1="-819.2" x2="819.2">
      <stop offset="0.0" stop-color="#0087ff"/>
      <stop offset="0.11764705882352941" stop-color="#0082ff"/>
      <stop offset="0.4980392156862745" stop-color="#0080ff"/>
      <stop offset="0.8705882352941177" stop-color="#0082ff"/>
      <stop offset="0.9882352941176471" stop-color="#0087ff"/>
    </linearGradient>
    <linearGradient gradientTransform="matrix(0.3853, 0.0, 0.0, -0.386, 0.25, -59.0)" gradientUnits="userSpaceOnUse" id="gradient2" spreadMethod="pad" x1="-819.2" x2="819.2">
      <stop offset="0.0" stop-color="#0087ff"/>
      <stop offset="0.11764705882352941" stop-color="#0082ff"/>
      <stop offset="0.4980392156862745" stop-color="#0080ff"/>
      <stop offset="0.8705882352941177" stop-color="#0082ff"/>
      <stop offset="0.9882352941176471" stop-color="#0087ff"/>
    </linearGradient>
    <linearGradient gradientTransform="matrix(0.3853, 0.0, 0.0, -0.386, 0.25, -89.0)" gradientUnits="userSpaceOnUse" id="gradient3" spreadMethod="pad" x1="-819.2" x2="819.2">
      <stop offset="0.0" stop-color="#0087ff"/>
      <stop offset="0.11764705882352941" stop-color="#0082ff"/>
      <stop offset="0.4980392156862745" stop-color="#0080ff"/>
      <stop offset="0.8705882352941177" stop-color="#0082ff"/>
      <stop offset="0.9882352941176471" stop-color="#0087ff"/>
    </linearGradient>
    <linearGradient gradientTransform="matrix(0.3853, 0.0, 0.0, -0.386, 0.25, 0.0)" gradientUnits="userSpaceOnUse" id="gradient4" spreadMethod="pad" x1="-819.2" x2="819.2">
      <stop offset="0.0" stop-color="#0087ff"/>
      <stop offset="0.11764705882352941" stop-color="#0082ff"/>
      <stop offset="0.4980392156862745" stop-color="#0080ff"/>
      <stop offset="0.8705882352941177" stop-color="#0082ff"/>
      <stop offset="0.9882352941176471" stop-color="#0087ff"/>
    </linearGradient>
    <linearGradient gradientTransform="matrix(0.3853, 0.0, 0.0, -0.386, 0.25, 29.0)" gradientUnits="userSpaceOnUse" id="gradient5" spreadMethod="pad" x1="-819.2" x2="819.2">
      <stop offset="0.0" stop-color="#0087ff"/>
      <stop offset="0.11764705882352941" stop-color="#0082ff"/>
      <stop offset="0.4980392156862745" stop-color="#0080ff"/>
      <stop offset="0.8705882352941177" stop-color="#0082ff"/>
      <stop offset="0.9882352941176471" stop-color="#0087ff"/>
    </linearGradient>
    <linearGradient gradientTransform="matrix(0.3853, 0.0, 0.0, -0.386, 0.25, 58.0)" gradientUnits="userSpaceOnUse" id="gradient6" spreadMethod="pad" x1="-819.2" x2="819.2">
      <stop offset="0.0" stop-color="#0087ff"/>
      <stop offset="0.11764705882352941" stop-color="#0082ff"/>
      <stop offset="0.4980392156862745" stop-color="#0080ff"/>
      <stop offset="0.8705882352941177" stop-color="#0082ff"/>
      <stop offset="0.9882352941176471" stop-color="#0087ff"/>
    </linearGradient>
    <linearGradient gradientTransform="matrix(0.3853, 0.0, 0.0, -0.386, 0.25, 87.0)" gradientUnits="userSpaceOnUse" id="gradient7" spreadMethod="pad" x1="-819.2" x2="819.2">
      <stop offset="0.0" stop-color="#0087ff"/>
      <stop offset="0.11764705882352941" stop-color="#0082ff"/>
      <stop offset="0.4980392156862745" stop-color="#0080ff"/>
      <stop offset="0.8705882352941177" stop-color="#0082ff"/>
      <stop offset="0.9882352941176471" stop-color="#0087ff"/>
    </linearGradient>
    <linearGradient gradientTransform="matrix(0.3853, 0.0, 0.0, -0.386, 0.25, 116.0)" gradientUnits="userSpaceOnUse" id="gradient8" spreadMethod="pad" x1="-819.2" x2="819.2">
      <stop offset="0.0" stop-color="#0087ff"/>
      <stop offset="0.11764705882352941" stop-color="#0082ff"/>
      <stop offset="0.4980392156862745" stop-color="#0080ff"/>
      <stop offset="0.8705882352941177" stop-color="#0082ff"/>
      <stop offset="0.9882352941176471" stop-color="#0087ff"/>
    </linearGradient>
    <linearGradient gradientTransform="matrix(0.3853, 0.0, 0.0, -0.386, 0.25, 145.0)" gradientUnits="userSpaceOnUse" id="gradient9" spreadMethod="pad" x1="-819.2" x2="819.2">
      <stop offset="0.0" stop-color="#0087ff"/>
      <stop offset="0.11764705882352941" stop-color="#0082ff"/>
      <stop offset="0.4980392156862745" stop-color="#0080ff"/>
      <stop offset="0.8705882352941177" stop-color="#0082ff"/>
      <stop offset="0.9882352941176471" stop-color="#0087ff"/>
    </linearGradient>
  </defs>
</svg>
