<?xml version="1.0" encoding="UTF-8" standalone="no"?>
<svg xmlns:ffdec="https://www.free-decompiler.com/flash" xmlns:xlink="http://www.w3.org/1999/xlink" ffdec:objectType="shape" height="29.85px" width="88.8px" xmlns="http://www.w3.org/2000/svg">
  <g transform="matrix(1.0, 0.0, 0.0, 1.0, -0.35, 0.0)">
    <path d="M88.4 25.35 Q88.4 26.9 87.3 28.0 86.2 29.1 84.65 29.1 L4.85 29.1 Q3.3 29.1 2.2 28.0 1.1 26.9 1.1 25.35 L1.1 4.5 Q1.1 2.95 2.2 1.85 3.3 0.75 4.85 0.75 L84.65 0.75 Q86.2 0.75 87.3 1.85 88.4 2.95 88.4 4.5 L88.4 25.35" fill="url(#gradient0)" fill-rule="evenodd" stroke="none"/>
    <path d="M84.65 0.0 Q86.5 0.0 87.8 1.3 89.15 2.65 89.15 4.5 L89.15 25.35 Q89.15 27.2 87.8 28.55 86.5 29.85 84.65 29.85 L4.85 29.85 Q3.0 29.85 1.65 28.55 0.35 27.25 0.35 25.35 L0.35 4.5 Q0.35 2.65 1.65 1.3 3.0 0.0 4.85 0.0 L84.65 0.0 M87.65 25.35 L87.65 4.5 Q87.65 3.25 86.75 2.4 85.9 1.5 84.65 1.5 L4.85 1.5 Q3.6 1.5 2.75 2.4 1.85 3.25 1.85 4.5 L1.85 25.35 Q1.85 26.6 2.75 27.45 3.6 28.35 4.85 28.35 L84.65 28.35 Q85.9 28.35 86.75 27.45 87.65 26.6 87.65 25.35" fill="#0659ff" fill-rule="evenodd" stroke="none"/>
  </g>
  <defs>
    <linearGradient gradientTransform="matrix(0.0, -0.0176, -0.0176, 0.0, 54.6, 15.45)" gradientUnits="userSpaceOnUse" id="gradient0" spreadMethod="pad" x1="-819.2" x2="819.2">
      <stop offset="0.0" stop-color="#05337a"/>
      <stop offset="0.17647058823529413" stop-color="#032970"/>
      <stop offset="0.4627450980392157" stop-color="#012168"/>
      <stop offset="1.0" stop-color="#001f66"/>
    </linearGradient>
  </defs>
</svg>
