<?xml version="1.0" encoding="UTF-8" standalone="no"?>
<svg xmlns:ffdec="https://www.free-decompiler.com/flash" xmlns:xlink="http://www.w3.org/1999/xlink" ffdec:objectType="shape" height="16.3px" width="25.2px" xmlns="http://www.w3.org/2000/svg">
  <g transform="matrix(1.0, 0.0, 0.0, 1.0, 1.0, 1.0)">
    <path d="M0.0 2.25 Q0.0 1.3 0.75 0.65 1.5 0.0 2.6 0.0 L20.6 0.0 Q21.7 0.0 22.45 0.65 23.2 1.3 23.2 2.25 L23.2 12.05 Q23.2 13.0 22.45 13.65 21.7 14.3 20.6 14.3 L2.6 14.3 Q1.5 14.3 0.75 13.65 0.0 13.0 0.0 12.05 L0.0 2.25" fill="#0442a5" fill-rule="evenodd" stroke="none"/>
    <path d="M23.2 2.25 L23.2 12.05 Q23.2 13.0 22.45 13.65 21.7 14.3 20.6 14.3 L2.6 14.3 Q1.5 14.3 0.75 13.65 0.0 13.0 0.0 12.05 L0.0 2.25 Q0.0 1.3 0.75 0.65 1.5 0.0 2.6 0.0 L20.6 0.0 Q21.7 0.0 22.45 0.65 23.2 1.3 23.2 2.25 Z" fill="none" stroke="#318fff" stroke-linecap="butt" stroke-linejoin="miter-clip" stroke-miterlimit="4.0" stroke-width="2.0"/>
    <path d="M8.3 7.15 L14.85 2.05 14.85 4.2 12.95 7.15 14.85 9.95 14.85 12.25 8.3 7.15" fill="#00a3ff" fill-rule="evenodd" stroke="none"/>
  </g>
</svg>
