<?xml version="1.0" encoding="UTF-8" standalone="no"?>
<svg xmlns:ffdec="https://www.free-decompiler.com/flash" xmlns:xlink="http://www.w3.org/1999/xlink" ffdec:objectType="shape" height="21.5px" width="44.4px" xmlns="http://www.w3.org/2000/svg">
  <g transform="matrix(1.0, 0.0, 0.0, 1.0, -2.45, -1.2)">
    <path d="M42.35 21.8 L6.95 21.8 Q5.45 21.8 4.45 20.75 3.35 19.7 3.35 18.2 L3.35 5.7 Q3.35 4.2 4.45 3.2 5.45 2.1 6.95 2.1 L42.35 2.1 Q43.85 2.1 44.95 3.2 45.95 4.2 45.95 5.7 L45.95 18.2 Q45.95 19.7 44.95 20.75 43.85 21.8 42.35 21.8" fill="#0442a5" fill-rule="evenodd" stroke="none"/>
    <path d="M44.25 3.8 Q43.5 3.0 42.35 3.0 L6.95 3.0 Q5.8 3.0 5.05 3.8 4.25 4.55 4.25 5.7 L4.25 18.2 Q4.25 19.35 5.05 20.1 5.8 20.9 6.95 20.9 L42.35 20.9 Q43.5 20.9 44.25 20.1 45.05 19.35 45.05 18.2 L45.05 5.7 Q45.05 4.55 44.25 3.8 M42.35 1.2 Q44.2 1.2 45.55 2.5 46.85 3.85 46.85 5.7 L46.85 18.2 Q46.85 20.05 45.55 21.4 44.2 22.7 42.35 22.7 L6.95 22.7 Q5.1 22.7 3.75 21.4 2.45 20.05 2.45 18.2 L2.45 5.7 Q2.45 3.85 3.75 2.5 5.1 1.2 6.95 1.2 L42.35 1.2" fill="#318fff" fill-rule="evenodd" stroke="none"/>
  </g>
</svg>
