<?xml version="1.0" encoding="UTF-8" standalone="no"?>
<svg xmlns:ffdec="https://www.free-decompiler.com/flash" xmlns:xlink="http://www.w3.org/1999/xlink" ffdec:objectType="shape" height="23.9px" width="49.35px" xmlns="http://www.w3.org/2000/svg">
  <g transform="matrix(1.0, 0.0, 0.0, 1.0, 0.0, 0.0)">
    <path d="M44.35 22.9 L5.0 22.9 Q3.35 22.9 2.2 21.75 1.0 20.55 1.0 18.9 L1.0 5.0 Q1.0 3.35 2.2 2.2 3.35 1.0 5.0 1.0 L44.35 1.0 Q46.0 1.0 47.2 2.2 48.35 3.35 48.35 5.0 L48.35 18.9 Q48.35 20.55 47.2 21.75 46.0 22.9 44.35 22.9" fill="#233b5e" fill-rule="evenodd" stroke="none"/>
    <path d="M44.35 22.9 L5.0 22.9 Q3.35 22.9 2.2 21.75 1.0 20.55 1.0 18.9 L1.0 5.0 Q1.0 3.35 2.2 2.2 3.35 1.0 5.0 1.0 L44.35 1.0 Q46.0 1.0 47.2 2.2 48.35 3.35 48.35 5.0 L48.35 18.9 Q48.35 20.55 47.2 21.75 46.0 22.9 44.35 22.9 Z" fill="none" stroke="#233b5e" stroke-linecap="round" stroke-linejoin="round" stroke-width="1.0"/>
    <path d="M44.35 0.0 Q46.4 0.0 47.9 1.45 49.35 2.95 49.35 5.0 L49.35 18.9 Q49.35 20.95 47.9 22.45 46.4 23.9 44.35 23.9 L5.0 23.9 Q2.95 23.9 1.45 22.45 0.0 20.95 0.0 18.9 L0.0 5.0 Q0.0 2.95 1.45 1.45 2.95 0.0 5.0 0.0 L44.35 0.0 M46.45 2.9 Q45.6 2.0 44.35 2.0 L5.0 2.0 Q3.75 2.0 2.9 2.9 2.0 3.75 2.0 5.0 L2.0 18.9 Q2.0 20.15 2.9 21.0 3.75 21.9 5.0 21.9 L44.35 21.9 Q45.6 21.9 46.45 21.0 47.35 20.15 47.35 18.9 L47.35 5.0 Q47.35 3.75 46.45 2.9" fill="#5580bf" fill-rule="evenodd" stroke="none"/>
  </g>
</svg>
