<?xml version="1.0" encoding="UTF-8" standalone="no"?>
<svg xmlns:ffdec="https://www.free-decompiler.com/flash" xmlns:xlink="http://www.w3.org/1999/xlink" ffdec:objectType="shape" height="409.75px" width="578.65px" xmlns="http://www.w3.org/2000/svg">
  <g transform="matrix(1.0, 0.0, 0.0, 1.0, -13.65, -17.8)">
    <path d="M591.3 386.6 L591.3 406.1 584.45 412.9 564.45 412.9 559.0 407.45 581.9 407.45 586.65 402.75 586.65 381.95 591.3 386.6 Z" fill="none" stroke="#181919" stroke-linecap="butt" stroke-linejoin="miter-clip" stroke-miterlimit="4.0" stroke-width="2.0"/>
    <path d="M591.3 386.6 L591.3 406.1 584.45 412.9 564.45 412.9 559.0 407.45 581.9 407.45 586.65 402.75 586.65 381.95 591.3 386.6" fill="#717272" fill-rule="evenodd" stroke="none"/>
    <path d="M19.3 402.75 L19.3 381.95 14.65 386.6 14.65 406.1 21.45 412.9 41.5 412.9 46.95 407.45 24.0 407.45 19.3 402.75 Z" fill="none" stroke="#181919" stroke-linecap="butt" stroke-linejoin="miter-clip" stroke-miterlimit="4.0" stroke-width="2.0"/>
    <path d="M19.3 402.75 L24.0 407.45 46.95 407.45 41.5 412.9 21.45 412.9 14.65 406.1 14.65 386.6 19.3 381.95 19.3 402.75" fill="#717272" fill-rule="evenodd" stroke="none"/>
    <path d="M176.0 426.55 L430.65 426.55 420.3 416.2 186.35 416.2 176.0 426.55 Z" fill="none" stroke="#181919" stroke-linecap="butt" stroke-linejoin="miter-clip" stroke-miterlimit="4.0" stroke-width="2.0"/>
    <path d="M176.0 426.55 L186.35 416.2 420.3 416.2 430.65 426.55 176.0 426.55" fill="#1e1e1e" fill-rule="evenodd" stroke="none"/>
    <path d="M405.5 18.3 L409.45 22.25 200.25 22.25 204.2 18.3 405.5 18.3" fill="#494949" fill-rule="evenodd" stroke="none"/>
    <path d="M405.5 18.3 L204.2 18.3 200.25 22.25 409.45 22.25 405.5 18.3 Z" fill="none" stroke="#494949" stroke-linecap="butt" stroke-linejoin="miter-clip" stroke-miterlimit="4.0" stroke-width="1.0"/>
  </g>
</svg>
