<?xml version="1.0" encoding="UTF-8" standalone="no"?>
<svg xmlns:ffdec="https://www.free-decompiler.com/flash" xmlns:xlink="http://www.w3.org/1999/xlink" ffdec:objectType="shape" height="372.3px" width="561.0px" xmlns="http://www.w3.org/2000/svg">
  <g transform="matrix(1.0, 0.0, 0.0, 1.0, 266.7, 173.6)">
    <path d="M293.8 -170.15 L293.8 139.0 Q293.8 140.2 292.9 141.05 292.05 141.95 290.8 141.95 L-263.0 141.95 Q-264.25 141.95 -265.1 141.05 -266.0 140.2 -266.0 139.0 L-266.0 -170.15 Q-266.0 -171.35 -265.1 -172.2 -264.25 -173.05 -263.0 -173.05 L290.8 -173.05 Q292.05 -173.05 292.9 -172.2 293.8 -171.35 293.8 -170.15" fill="#010f33" fill-rule="evenodd" stroke="none"/>
    <path d="M293.8 -170.15 L293.8 139.0 Q293.8 140.2 292.9 141.05 292.05 141.95 290.8 141.95 L-263.0 141.95 Q-264.25 141.95 -265.1 141.05 -266.0 140.2 -266.0 139.0 L-266.0 -170.15 Q-266.0 -171.35 -265.1 -172.2 -264.25 -173.05 -263.0 -173.05 L290.8 -173.05 Q292.05 -173.05 292.9 -172.2 293.8 -171.35 293.8 -170.15 Z" fill="none" stroke="#0967d8" stroke-linecap="butt" stroke-linejoin="miter-clip" stroke-miterlimit="4.0" stroke-width="1.0"/>
    <path d="M-263.2 144.55 L290.35 144.55 Q291.6 144.55 292.45 145.6 293.35 146.6 293.35 148.05 L293.35 194.7 Q293.35 196.15 292.45 197.15 291.6 198.2 290.35 198.2 L-263.2 198.2 Q-264.45 198.2 -265.3 197.15 -266.2 196.15 -266.2 194.7 L-266.2 148.05 Q-266.2 146.6 -265.3 145.6 -264.45 144.55 -263.2 144.55" fill="#03236d" fill-rule="evenodd" stroke="none"/>
    <path d="M-263.2 144.55 L290.35 144.55 Q291.6 144.55 292.45 145.6 293.35 146.6 293.35 148.05 L293.35 194.7 Q293.35 196.15 292.45 197.15 291.6 198.2 290.35 198.2 L-263.2 198.2 Q-264.45 198.2 -265.3 197.15 -266.2 196.15 -266.2 194.7 L-266.2 148.05 Q-266.2 146.6 -265.3 145.6 -264.45 144.55 -263.2 144.55 Z" fill="none" stroke="#086dff" stroke-linecap="butt" stroke-linejoin="miter-clip" stroke-miterlimit="4.0" stroke-width="1.0"/>
    <path d="M-166.5 195.45 L-164.7 198.5 -266.3 198.5 -266.3 179.65 -264.05 182.0 -264.05 190.1 -259.95 195.45 -166.5 195.45" fill="#054be5" fill-rule="evenodd" stroke="none"/>
    <path d="M294.3 144.3 L294.3 160.35 291.7 158.35 291.7 151.45 287.0 146.9 180.25 146.9 178.25 144.3 294.3 144.3" fill="#054be5" fill-rule="evenodd" stroke="none"/>
    <path d="M-137.95 161.15 L-156.95 184.5 -240.9 184.5 Q-244.85 187.65 -250.0 187.65 -256.1 187.65 -260.4 183.35 -264.7 179.05 -264.7 173.0 -264.7 166.9 -260.4 162.6 -256.1 158.3 -250.0 158.3 -245.15 158.3 -241.35 161.15 L-137.95 161.15" fill="#062f93" fill-rule="evenodd" stroke="none"/>
    <path d="M-137.95 161.15 L-241.35 161.15 Q-245.15 158.3 -250.0 158.3 -256.1 158.3 -260.4 162.6 -264.7 166.9 -264.7 173.0 -264.7 179.05 -260.4 183.35 -256.1 187.65 -250.0 187.65 -244.85 187.65 -240.9 184.5 L-156.95 184.5 -137.95 161.15 Z" fill="none" stroke="#0659ff" stroke-linecap="butt" stroke-linejoin="miter-clip" stroke-miterlimit="4.0" stroke-width="1.5"/>
    <path d="M-240.4 172.8 Q-240.4 176.95 -243.3 179.85 -246.2 182.75 -250.35 182.75 -254.45 182.75 -257.35 179.85 -260.25 176.9 -260.25 172.8 -260.25 168.7 -257.35 165.8 -254.45 162.9 -250.35 162.9 -246.25 162.9 -243.3 165.8 -240.4 168.7 -240.4 172.8" fill="#043a9b" fill-rule="evenodd" stroke="none"/>
    <path d="M-240.4 172.8 Q-240.4 176.95 -243.3 179.85 -246.2 182.75 -250.35 182.75 -254.45 182.75 -257.35 179.85 -260.25 176.9 -260.25 172.8 -260.25 168.7 -257.35 165.8 -254.45 162.9 -250.35 162.9 -246.25 162.9 -243.3 165.8 -240.4 168.7 -240.4 172.8 Z" fill="none" stroke="#4d8dff" stroke-linecap="butt" stroke-linejoin="miter-clip" stroke-miterlimit="4.0" stroke-width="2.0"/>
    <path d="M-242.75 174.0 L-251.4 174.0 -251.4 172.8 -242.75 172.8 -242.75 174.0" fill="#527bff" fill-rule="evenodd" stroke="none"/>
    <path d="M-248.2 168.95 L-250.3 174.25 -251.45 173.75 -249.3 168.45 -248.2 168.95" fill="#527bff" fill-rule="evenodd" stroke="none"/>
  </g>
</svg>
