<?xml version="1.0" encoding="UTF-8" standalone="no"?>
<svg xmlns:ffdec="https://www.free-decompiler.com/flash" xmlns:xlink="http://www.w3.org/1999/xlink" ffdec:objectType="shape" height="28.85px" width="63.25px" xmlns="http://www.w3.org/2000/svg">
  <g transform="matrix(1.0, 0.0, 0.0, 1.0, 0.0, 0.0)">
    <path d="M59.25 28.35 L2.65 28.35 Q1.05 28.35 0.65 27.4 0.1 26.45 1.15 25.2 L19.35 3.0 Q20.2 1.95 21.75 1.25 23.3 0.5 24.65 0.5 L59.25 0.5 Q60.7 0.5 61.7 1.5 62.75 2.55 62.75 4.0 L62.75 24.85 Q62.75 26.3 61.7 27.35 60.7 28.35 59.25 28.35" fill="url(#gradient0)" fill-rule="evenodd" stroke="none"/>
    <path d="M61.35 1.9 Q60.45 1.0 59.25 1.0 L24.65 1.0 Q23.4 1.0 22.0 1.7 20.55 2.35 19.75 3.3 L1.55 25.55 Q0.75 26.5 1.1 27.15 1.4 27.85 2.65 27.85 L59.25 27.85 Q60.45 27.85 61.35 26.95 62.25 26.1 62.25 24.85 L62.25 4.0 Q62.25 2.75 61.35 1.9 M59.25 0.0 Q60.9 0.0 62.1 1.2 63.25 2.35 63.25 4.0 L63.25 24.85 Q63.25 26.5 62.1 27.7 60.9 28.85 59.25 28.85 L2.65 28.85 Q0.75 28.85 0.2 27.6 -0.45 26.4 0.8 24.9 L19.0 2.7 Q19.9 1.6 21.55 0.8 23.2 0.0 24.65 0.0 L59.25 0.0" fill="#399cff" fill-rule="evenodd" stroke="none"/>
    <path d="M34.1 18.0 Q34.1 20.25 32.45 21.9 30.85 23.5 28.55 23.5 26.25 23.5 24.65 21.9 23.05 20.25 23.05 18.0 23.05 15.7 24.65 14.1 26.25 12.45 28.55 12.45 30.85 12.45 32.45 14.1 34.1 15.7 34.1 18.0" fill="#024dba" fill-rule="evenodd" stroke="none"/>
    <path d="M28.55 12.45 Q30.85 12.45 32.45 14.1 34.1 15.7 34.1 18.0 34.1 20.25 32.45 21.9 30.85 23.5 28.55 23.5 26.25 23.5 24.65 21.9 23.05 20.25 23.05 18.0 23.05 15.7 24.65 14.1 26.25 12.45 28.55 12.45 M31.75 14.8 Q30.45 13.45 28.55 13.45 26.7 13.45 25.4 14.8 24.05 16.15 24.05 18.0 24.05 19.85 25.4 21.15 26.7 22.5 28.55 22.5 30.4 22.5 31.75 21.15 33.1 19.85 33.1 18.0 33.1 16.15 31.75 14.8" fill="#32b7f9" fill-rule="evenodd" stroke="none"/>
    <path d="M32.8 18.65 L27.95 18.65 27.95 17.95 32.8 17.95 32.8 18.65" fill="#55baff" fill-rule="evenodd" stroke="none"/>
    <path d="M29.75 15.8 L28.55 18.75 27.95 18.5 29.15 15.55 29.75 15.8" fill="#55aaff" fill-rule="evenodd" stroke="none"/>
    <path d="M51.95 4.55 Q52.5 4.55 53.4 5.45 L54.6 6.9 54.25 7.2 55.95 9.35 57.65 11.5 58.25 11.6 58.55 12.0 58.4 12.25 Q58.3 12.5 58.6 12.8 L59.05 13.25 59.5 13.85 59.35 13.95 58.4 12.75 57.8 13.1 58.05 12.55 57.95 12.0 57.8 11.8 57.6 12.35 57.25 12.0 57.6 11.7 53.9 7.25 54.3 6.7 54.25 6.7 Q53.65 6.7 53.25 7.2 L53.8 8.1 53.45 8.6 54.05 9.35 Q53.75 9.65 54.0 10.1 L54.5 10.8 56.75 14.25 57.4 14.6 57.55 14.85 57.1 14.75 56.5 15.1 56.6 14.55 54.25 11.15 53.2 9.6 53.85 9.4 53.5 9.3 Q53.0 9.3 52.8 9.85 L52.55 9.4 53.3 8.45 53.1 8.45 52.3 9.3 51.8 8.45 47.1 8.4 46.35 8.75 44.45 9.35 44.55 10.2 Q44.3 10.95 43.4 11.05 L42.4 10.8 42.0 10.3 41.95 12.75 41.85 15.2 41.6 18.05 41.65 18.0 41.65 20.15 41.5 22.15 41.3 23.2 40.75 25.05 39.1 25.15 38.35 25.15 37.45 25.05 36.9 23.2 36.7 22.15 Q36.55 21.2 36.55 20.15 L36.55 18.0 36.6 18.05 36.35 15.2 36.25 12.75 36.2 10.3 35.8 10.8 34.8 11.05 Q33.9 10.95 33.65 10.2 L33.75 9.35 Q32.35 9.05 31.85 8.75 L31.1 8.4 26.4 8.45 25.9 9.3 25.1 8.45 24.9 8.45 25.65 9.4 25.4 9.85 Q25.2 9.3 24.7 9.3 L24.35 9.4 25.0 9.6 23.95 11.15 21.6 14.55 21.7 15.1 21.1 14.75 20.65 14.85 20.8 14.6 21.45 14.25 23.7 10.8 24.2 10.1 Q24.45 9.65 24.15 9.35 L24.75 8.6 24.4 8.1 24.95 7.2 Q24.55 6.7 23.95 6.7 L23.9 6.7 24.3 7.25 20.6 11.7 20.95 12.0 20.6 12.35 20.4 11.8 20.25 12.0 Q20.05 12.2 20.15 12.55 L20.4 13.1 19.8 12.75 18.85 13.95 18.7 13.85 19.15 13.25 19.6 12.8 Q19.9 12.5 19.8 12.25 L19.65 12.0 19.95 11.6 20.55 11.5 22.25 9.35 23.95 7.2 23.6 6.9 24.8 5.45 Q25.7 4.55 26.25 4.55 L26.35 4.55 25.0 6.25 25.2 7.45 Q26.3 7.1 26.3 6.05 L28.65 5.85 28.5 6.25 28.45 6.45 28.95 5.85 29.85 5.75 29.95 6.2 30.2 5.8 31.5 5.7 32.7 5.25 32.1 6.0 33.45 5.65 33.55 5.65 Q34.2 4.25 34.95 4.05 35.6 4.1 36.35 4.95 L36.7 5.05 36.85 6.05 37.25 5.0 37.45 3.85 38.0 4.05 38.7 4.05 39.0 4.05 39.1 4.05 39.2 4.05 39.5 4.05 40.2 4.05 40.75 3.85 40.95 5.0 41.35 6.05 41.5 5.05 41.85 4.95 Q42.6 4.1 43.25 4.05 44.0 4.25 44.65 5.65 L44.75 5.65 46.1 6.0 45.5 5.25 46.7 5.7 48.0 5.8 48.25 6.2 48.35 5.75 49.25 5.85 49.75 6.45 49.7 6.25 49.55 5.85 51.9 6.05 Q51.9 7.1 53.0 7.45 L53.2 6.25 51.85 4.55 51.95 4.55 M51.1 7.0 L49.45 6.85 49.5 6.8 49.05 7.05 48.9 7.5 51.4 7.45 51.1 7.0 M42.35 5.85 L42.35 6.15 42.1 8.55 40.55 6.7 Q40.05 6.0 39.95 5.05 L38.25 5.05 Q38.15 6.0 37.65 6.7 L36.1 8.55 35.85 6.15 35.85 5.85 35.75 5.85 35.55 5.55 35.05 5.1 34.5 6.0 34.2 6.65 33.5 6.65 32.5 6.9 32.45 6.95 32.2 6.55 31.0 6.7 30.8 6.7 30.35 7.45 31.0 7.4 31.2 7.4 31.35 7.45 32.25 7.85 33.95 8.4 34.9 8.6 34.65 9.95 34.85 10.05 35.2 9.95 37.05 7.55 37.25 12.25 37.35 15.1 37.55 20.1 37.7 22.05 37.95 23.45 38.15 24.15 39.1 24.15 40.05 24.15 40.25 23.45 40.5 22.05 40.65 20.1 40.85 15.1 40.95 12.25 41.15 7.55 43.0 9.95 43.35 10.05 43.55 9.95 43.3 8.6 44.25 8.4 45.95 7.85 46.85 7.45 47.0 7.4 47.2 7.4 47.85 7.45 47.4 6.7 47.2 6.7 46.0 6.55 45.75 6.95 45.7 6.9 44.7 6.65 44.0 6.65 43.7 6.0 43.15 5.1 Q43.05 5.15 42.65 5.55 L42.45 5.85 42.35 5.85 M29.15 7.05 L28.7 6.8 28.75 6.85 27.1 7.0 26.8 7.45 29.3 7.5 29.15 7.05" fill="#39afff" fill-rule="evenodd" stroke="none"/>
    <path d="M51.7 4.85 Q52.4 5.3 53.15 6.45 L52.65 6.35 52.05 5.65 51.7 4.85 M43.2 2.45 L43.6 3.4 42.7 3.4 42.45 3.45 42.3 3.45 Q42.15 3.55 41.95 3.6 L42.0 2.85 42.25 2.6 42.35 2.6 42.5 2.5 42.65 2.45 42.95 2.45 43.05 2.4 43.2 2.45 M42.7 3.8 L42.5 4.0 42.35 4.05 42.3 4.1 42.15 4.1 42.1 3.95 42.15 3.9 42.2 3.75 42.35 3.6 42.4 3.6 42.55 3.55 42.6 3.55 42.75 3.6 42.7 3.8 M57.0 15.55 L57.25 15.15 58.55 17.0 Q58.0 16.95 57.6 16.0 L57.05 15.95 Q56.85 15.8 57.0 15.55 M26.5 4.85 L26.15 5.65 25.55 6.35 25.05 6.45 Q25.8 5.3 26.5 4.85 M35.45 3.6 L35.6 3.55 35.65 3.55 35.8 3.6 35.85 3.6 36.0 3.75 36.05 3.9 36.1 3.95 36.05 4.1 35.9 4.1 35.85 4.05 35.7 4.0 35.5 3.8 35.45 3.6 M35.95 2.6 L36.2 2.85 36.25 3.6 35.9 3.45 35.75 3.45 35.5 3.4 34.6 3.4 35.0 2.45 35.15 2.4 35.25 2.45 35.55 2.45 35.7 2.5 35.85 2.6 35.95 2.6 M21.2 15.55 L21.15 15.95 20.6 16.0 Q20.2 16.95 19.65 17.0 L20.95 15.15 21.2 15.55" fill="#227cff" fill-rule="evenodd" stroke="none"/>
    <path d="M51.1 7.0 L51.4 7.45 48.9 7.5 49.05 7.05 49.5 6.8 49.45 6.85 51.1 7.0 M42.35 5.85 L42.45 5.85 42.65 5.55 Q43.05 5.15 43.15 5.1 L43.7 6.0 44.0 6.65 44.7 6.65 45.7 6.9 45.75 6.95 46.0 6.55 47.2 6.7 47.4 6.7 47.85 7.45 47.2 7.4 47.0 7.4 46.85 7.45 45.95 7.85 44.25 8.4 43.3 8.6 43.55 9.95 43.35 10.05 43.0 9.95 41.15 7.55 40.95 12.25 40.85 15.1 40.65 20.1 40.5 22.05 40.25 23.45 40.05 24.15 39.1 24.15 38.15 24.15 37.95 23.45 37.7 22.05 37.55 20.1 37.35 15.1 37.25 12.25 37.05 7.55 35.2 9.95 34.85 10.05 34.65 9.95 34.9 8.6 33.95 8.4 32.25 7.85 31.35 7.45 31.2 7.4 31.0 7.4 30.35 7.45 30.8 6.7 31.0 6.7 32.2 6.55 32.45 6.95 32.5 6.9 33.5 6.65 34.2 6.65 34.5 6.0 35.05 5.1 35.55 5.55 35.75 5.85 35.85 5.85 35.85 6.15 36.1 8.55 37.65 6.7 Q38.15 6.0 38.25 5.05 L39.95 5.05 Q40.05 6.0 40.55 6.7 L42.1 8.55 42.35 6.15 42.35 5.85 M29.15 7.05 L29.3 7.5 26.8 7.45 27.1 7.0 28.75 6.85 28.7 6.8 29.15 7.05" fill="#0080ff" fill-rule="evenodd" stroke="none"/>
  </g>
  <defs>
    <linearGradient gradientTransform="matrix(0.0, -0.017, -0.017, 0.0, 31.6, 14.45)" gradientUnits="userSpaceOnUse" id="gradient0" spreadMethod="pad" x1="-819.2" x2="819.2">
      <stop offset="0.0" stop-color="#004bc2"/>
      <stop offset="0.7647058823529411" stop-color="#003498"/>
      <stop offset="1.0" stop-color="#0057d9"/>
    </linearGradient>
  </defs>
</svg>
