<?xml version="1.0" encoding="UTF-8" standalone="no"?>
<svg xmlns:ffdec="https://www.free-decompiler.com/flash" xmlns:xlink="http://www.w3.org/1999/xlink" ffdec:objectType="shape" height="101.45px" width="178.5px" xmlns="http://www.w3.org/2000/svg">
  <g transform="matrix(1.0, 0.0, 0.0, 1.0, 0.75, 0.5)">
    <path d="M3.95 17.0 L173.85 17.0 Q175.1 17.0 175.95 17.9 176.85 18.75 176.85 20.0 L176.85 78.05 Q176.85 79.3 175.95 80.15 175.1 81.05 173.85 81.05 L3.95 81.05 Q2.7 81.05 1.85 80.15 0.95 79.3 0.95 78.05 L0.95 20.0 Q0.95 18.75 1.85 17.9 2.7 17.0 3.95 17.0" fill="#01123d" fill-rule="evenodd" stroke="none"/>
    <path d="M3.95 17.0 L173.85 17.0 Q175.1 17.0 175.95 17.9 176.85 18.75 176.85 20.0 L176.85 78.05 Q176.85 79.3 175.95 80.15 175.1 81.05 173.85 81.05 L3.95 81.05 Q2.7 81.05 1.85 80.15 0.95 79.3 0.95 78.05 L0.95 20.0 Q0.95 18.75 1.85 17.9 2.7 17.0 3.95 17.0 Z" fill="none" stroke="#043896" stroke-linecap="butt" stroke-linejoin="miter-clip" stroke-miterlimit="4.0" stroke-width="1.0"/>
    <path d="M1.55 0.9 Q2.4 0.0 3.65 0.0 L158.6 0.0 Q159.85 0.0 161.35 0.65 162.85 1.3 163.65 2.2 L176.4 15.8 Q177.25 16.7 176.95 17.35 176.7 18.0 175.45 18.0 L3.65 18.0 Q2.4 18.0 1.55 17.1 0.65 16.25 0.65 15.0 L0.65 3.0 Q0.65 1.75 1.55 0.9" fill="#03428e" fill-rule="evenodd" stroke="none"/>
    <path d="M1.55 0.9 Q0.65 1.75 0.65 3.0 L0.65 15.0 Q0.65 16.25 1.55 17.1 2.4 18.0 3.65 18.0 L175.45 18.0 Q176.7 18.0 176.95 17.35 177.25 16.7 176.4 15.8 L163.65 2.2 Q162.85 1.3 161.35 0.65 159.85 0.0 158.6 0.0 L3.65 0.0 Q2.4 0.0 1.55 0.9 Z" fill="none" stroke="#025fce" stroke-linecap="butt" stroke-linejoin="miter-clip" stroke-miterlimit="4.0" stroke-width="1.0"/>
    <path d="M52.6 2.2 Q51.8 1.3 52.05 0.65 52.35 0.0 53.6 0.0 L158.6 0.0 Q159.85 0.0 161.35 0.65 162.85 1.3 163.65 2.2 L176.4 15.8 Q177.25 16.7 176.95 17.35 176.7 18.0 175.45 18.0 L69.8 18.0 Q68.6 18.0 67.1 17.35 65.65 16.65 64.8 15.75 L52.6 2.2" fill="#021742" fill-rule="evenodd" stroke="none"/>
    <path d="M52.6 2.2 L64.8 15.75 Q65.65 16.65 67.1 17.35 68.6 18.0 69.8 18.0 L175.45 18.0 Q176.7 18.0 176.95 17.35 177.25 16.7 176.4 15.8 L163.65 2.2 Q162.85 1.3 161.35 0.65 159.85 0.0 158.6 0.0 L53.6 0.0 Q52.35 0.0 52.05 0.65 51.8 1.3 52.6 2.2 Z" fill="none" stroke="#034089" stroke-linecap="butt" stroke-linejoin="miter-clip" stroke-miterlimit="4.0" stroke-width="1.0"/>
    <path d="M16.8 98.0 Q13.95 100.2 10.35 100.2 6.05 100.2 3.05 97.2 0.0 94.15 0.0 89.85 0.0 85.6 3.05 82.55 6.1 79.5 10.35 79.5 13.75 79.5 16.45 81.5 L107.45 81.5 94.05 98.0 16.8 98.0" fill="#022260" fill-rule="evenodd" stroke="none"/>
    <path d="M16.8 98.0 L94.05 98.0 107.45 81.5 16.45 81.5 Q13.75 79.5 10.35 79.5 6.1 79.5 3.05 82.55 0.0 85.6 0.0 89.85 0.0 94.15 3.05 97.2 6.05 100.2 10.35 100.2 13.95 100.2 16.8 98.0 Z" fill="none" stroke="#024fc9" stroke-linecap="butt" stroke-linejoin="miter-clip" stroke-miterlimit="4.0" stroke-width="1.5"/>
    <path d="M17.1 89.75 Q17.1 92.65 15.05 94.7 13.05 96.75 10.15 96.75 7.25 96.75 5.2 94.7 3.15 92.65 3.15 89.75 3.15 86.85 5.2 84.8 7.25 82.75 10.15 82.75 13.05 82.75 15.05 84.8 17.1 86.85 17.1 89.75" fill="#043a9b" fill-rule="evenodd" stroke="none"/>
    <path d="M17.1 89.75 Q17.1 92.65 15.05 94.7 13.05 96.75 10.15 96.75 7.25 96.75 5.2 94.7 3.15 92.65 3.15 89.75 3.15 86.85 5.2 84.8 7.25 82.75 10.15 82.75 13.05 82.75 15.05 84.8 17.1 86.85 17.1 89.75 Z" fill="none" stroke="#4d8dff" stroke-linecap="butt" stroke-linejoin="miter-clip" stroke-miterlimit="4.0" stroke-width="2.0"/>
    <path d="M15.5 90.6 L9.35 90.6 9.35 89.7 15.5 89.7 15.5 90.6" fill="#527bff" fill-rule="evenodd" stroke="none"/>
    <path d="M11.65 87.0 L10.15 90.75 9.3 90.4 10.85 86.65 11.65 87.0" fill="#527bff" fill-rule="evenodd" stroke="none"/>
    <path d="M13.3 20.45 L61.9 20.45 66.15 24.65 66.15 31.05 64.05 35.0 64.05 63.45 66.15 67.45 66.15 73.95 61.8 77.85 13.45 77.85 8.8 73.0 8.8 67.5 10.9 63.4 10.9 35.0 8.8 30.95 8.8 25.45 13.3 20.45" fill="#022a56" fill-rule="evenodd" stroke="none"/>
    <path d="M13.3 20.45 L61.9 20.45 66.15 24.65 66.15 31.05 64.05 35.0 64.05 63.45 66.15 67.45 66.15 73.95 61.8 77.85 13.45 77.85 8.8 73.0 8.8 67.5 10.9 63.4 10.9 35.0 8.8 30.95 8.8 25.45 13.3 20.45 Z" fill="none" stroke="#035eef" stroke-linecap="butt" stroke-linejoin="miter-clip" stroke-miterlimit="4.0" stroke-width="1.0"/>
  </g>
</svg>
