<?xml version="1.0" encoding="UTF-8" standalone="no"?>
<svg xmlns:ffdec="https://www.free-decompiler.com/flash" xmlns:xlink="http://www.w3.org/1999/xlink" ffdec:objectType="shape" height="11.75px" width="17.9px" xmlns="http://www.w3.org/2000/svg">
  <g transform="matrix(1.0, 0.0, 0.0, 1.0, 0.0, 0.0)">
    <path d="M17.5 3.7 L17.9 4.35 12.8 6.6 13.3 8.1 12.35 8.3 11.85 9.55 10.75 9.75 10.1 10.9 10.3 11.65 9.9 11.75 9.75 10.95 8.75 10.2 7.65 10.4 6.65 9.5 5.75 9.7 5.6 8.1 0.0 8.1 0.15 7.35 3.15 6.7 3.3 6.15 5.95 5.6 3.4 1.85 3.8 1.75 7.05 5.35 7.55 4.85 8.2 4.65 8.6 4.65 9.0 4.45 9.65 4.4 10.3 4.65 11.9 0.05 12.25 0.0 11.45 4.45 14.1 3.9 14.45 4.35 17.5 3.7" fill="url(#gradient0)" fill-rule="evenodd" stroke="none"/>
    <path d="M10.75 9.55 L11.1 7.95 12.35 7.7 12.65 7.7 12.75 8.0 12.15 8.15 11.7 9.35 10.75 9.55" fill="#406cff" fill-rule="evenodd" stroke="none"/>
    <path d="M8.65 9.95 L7.7 10.15 6.8 9.25 6.15 9.4 6.15 9.1 6.4 8.95 7.65 8.65 8.65 9.95" fill="#406cff" fill-rule="evenodd" stroke="none"/>
    <path d="M10.25 7.35 Q10.35 7.8 10.05 7.85 L9.35 7.9 8.7 8.15 Q8.4 8.2 8.3 7.75 8.2 7.2 8.4 6.75 8.6 6.3 9.0 6.2 9.4 6.15 9.8 6.45 L10.25 7.35" fill="#4071ff" fill-rule="evenodd" stroke="none"/>
  </g>
  <defs>
    <linearGradient gradientTransform="matrix(0.0109, 0.0, 0.0, -0.0109, 8.95, 5.85)" gradientUnits="userSpaceOnUse" id="gradient0" spreadMethod="pad" x1="-819.2" x2="819.2">
      <stop offset="0.0" stop-color="#40c2ff"/>
      <stop offset="0.20392156862745098" stop-color="#40b8ff"/>
      <stop offset="0.5607843137254902" stop-color="#409bff"/>
      <stop offset="1.0" stop-color="#4070ff"/>
    </linearGradient>
  </defs>
</svg>
