<?xml version="1.0" encoding="UTF-8" standalone="no"?>
<svg xmlns:ffdec="https://www.free-decompiler.com/flash" xmlns:xlink="http://www.w3.org/1999/xlink" ffdec:objectType="shape" height="14.4px" width="12.85px" xmlns="http://www.w3.org/2000/svg">
  <g transform="matrix(1.0, 0.0, 0.0, 1.0, 0.0, 0.0)">
    <path d="M12.1 0.0 L12.85 0.25 10.25 5.2 11.6 6.05 11.0 6.8 11.35 8.1 10.65 8.95 10.9 10.2 11.5 10.7 11.25 11.0 10.65 10.5 9.35 10.55 8.65 11.4 7.35 11.3 6.75 12.05 5.65 10.9 1.25 14.4 0.9 13.75 2.85 11.35 2.6 10.8 4.3 8.75 0.0 7.4 0.25 7.1 5.0 7.8 5.1 7.1 5.45 6.55 5.8 6.3 5.95 5.95 6.45 5.45 7.1 5.25 5.45 0.7 5.7 0.4 7.85 4.35 9.6 2.3 10.15 2.4 12.1 0.0" fill="url(#gradient0)" fill-rule="evenodd" stroke="none"/>
    <path d="M9.15 10.45 L8.55 11.2 7.3 11.05 6.9 11.55 6.65 11.3 6.8 11.05 7.55 10.05 9.15 10.45" fill="#406cff" fill-rule="evenodd" stroke="none"/>
    <path d="M10.5 8.75 L9.8 7.3 10.65 6.35 10.9 6.15 11.15 6.3 10.75 6.8 11.15 8.0 10.5 8.75" fill="#406cff" fill-rule="evenodd" stroke="none"/>
    <path d="M7.45 9.0 Q7.0 8.65 6.85 8.2 6.75 7.7 7.0 7.35 7.25 7.05 7.8 7.05 8.3 7.1 8.7 7.45 9.1 7.75 8.9 7.95 L8.35 8.45 8.0 9.1 7.45 9.0" fill="#4071ff" fill-rule="evenodd" stroke="none"/>
  </g>
  <defs>
    <linearGradient gradientTransform="matrix(0.0078, 0.0, 0.0, -0.0078, 6.4, 7.2)" gradientUnits="userSpaceOnUse" id="gradient0" spreadMethod="pad" x1="-819.2" x2="819.2">
      <stop offset="0.0" stop-color="#40c2ff"/>
      <stop offset="0.20392156862745098" stop-color="#40b8ff"/>
      <stop offset="0.5607843137254902" stop-color="#409bff"/>
      <stop offset="1.0" stop-color="#4070ff"/>
    </linearGradient>
  </defs>
</svg>
