<?xml version="1.0" encoding="UTF-8" standalone="no"?>
<svg xmlns:ffdec="https://www.free-decompiler.com/flash" xmlns:xlink="http://www.w3.org/1999/xlink" ffdec:objectType="shape" height="71.5px" width="162.45px" xmlns="http://www.w3.org/2000/svg">
  <g transform="matrix(1.0, 0.0, 0.0, 1.0, -8.4, -13.85)">
    <path d="M10.3 15.8 L10.3 24.15 8.4 24.15 8.4 13.85 18.7 13.85 18.7 15.8 10.3 15.8" fill="#4fd1ff" fill-rule="evenodd" stroke="none"/>
    <path d="M168.9 15.8 L160.55 15.8 160.55 13.85 170.85 13.85 170.85 24.15 168.9 24.15 168.9 15.8" fill="#31a1ff" fill-rule="evenodd" stroke="none"/>
    <path d="M10.3 83.4 L18.7 83.4 18.7 85.35 8.4 85.35 8.4 75.05 10.3 75.05 10.3 83.4" fill="#31a1ff" fill-rule="evenodd" stroke="none"/>
    <path d="M168.9 83.4 L168.9 75.05 170.85 75.05 170.85 85.35 160.55 85.35 160.55 83.4 168.9 83.4" fill="#31a1ff" fill-rule="evenodd" stroke="none"/>
  </g>
</svg>
