<?xml version="1.0" encoding="UTF-8" standalone="no"?>
<svg xmlns:ffdec="https://www.free-decompiler.com/flash" xmlns:xlink="http://www.w3.org/1999/xlink" ffdec:objectType="shape" height="348.9px" width="640.25px" xmlns="http://www.w3.org/2000/svg">
  <g transform="matrix(1.0, 0.0, 0.0, 1.0, 319.65, 170.6)">
    <path d="M319.6 -167.3 L319.6 125.15 Q319.6 126.3 318.6 127.1 317.6 127.9 316.2 127.9 L-315.65 127.9 Q-317.1 127.9 -318.05 127.1 -319.1 126.3 -319.1 125.15 L-319.1 -167.3 Q-319.1 -168.45 -318.05 -169.25 -317.1 -170.1 -315.65 -170.1 L316.2 -170.1 Q317.6 -170.1 318.6 -169.25 319.6 -168.45 319.6 -167.3" fill="#010f33" fill-rule="evenodd" stroke="none"/>
    <path d="M319.6 -167.3 L319.6 125.15 Q319.6 126.3 318.6 127.1 317.6 127.9 316.2 127.9 L-315.65 127.9 Q-317.1 127.9 -318.05 127.1 -319.1 126.3 -319.1 125.15 L-319.1 -167.3 Q-319.1 -168.45 -318.05 -169.25 -317.1 -170.1 -315.65 -170.1 L316.2 -170.1 Q317.6 -170.1 318.6 -169.25 319.6 -168.45 319.6 -167.3 Z" fill="none" stroke="#0967d8" stroke-linecap="butt" stroke-linejoin="miter-clip" stroke-miterlimit="4.0" stroke-width="1.0"/>
    <path d="M-315.75 132.05 L316.65 132.05 Q318.1 132.05 319.05 132.95 320.1 133.8 320.1 135.05 L320.1 174.8 Q320.1 176.05 319.05 176.9 318.1 177.8 316.65 177.8 L-315.75 177.8 Q-317.15 177.8 -318.15 176.9 -319.15 176.05 -319.15 174.8 L-319.15 135.05 Q-319.15 133.8 -318.15 132.95 -317.15 132.05 -315.75 132.05" fill="#03236d" fill-rule="evenodd" stroke="none"/>
    <path d="M-315.75 132.05 L316.65 132.05 Q318.1 132.05 319.05 132.95 320.1 133.8 320.1 135.05 L320.1 174.8 Q320.1 176.05 319.05 176.9 318.1 177.8 316.65 177.8 L-315.75 177.8 Q-317.15 177.8 -318.15 176.9 -319.15 176.05 -319.15 174.8 L-319.15 135.05 Q-319.15 133.8 -318.15 132.95 -317.15 132.05 -315.75 132.05 Z" fill="none" stroke="#086dff" stroke-linecap="butt" stroke-linejoin="miter-clip" stroke-miterlimit="4.0" stroke-width="1.0"/>
  </g>
</svg>
