<?xml version="1.0" encoding="UTF-8" standalone="no"?>
<svg xmlns:ffdec="https://www.free-decompiler.com/flash" xmlns:xlink="http://www.w3.org/1999/xlink" ffdec:objectType="shape" height="20.8px" width="55.5px" xmlns="http://www.w3.org/2000/svg">
  <g transform="matrix(1.0, 0.0, 0.0, 1.0, 28.15, -192.8)">
    <path d="M7.1 195.65 L7.1 193.3 10.6 193.3 10.6 195.65 7.1 195.65 M10.6 210.65 L10.6 213.1 7.1 213.1 7.1 210.65 10.6 210.65" fill="url(#gradient0)" fill-rule="evenodd" stroke="none"/>
    <path d="M7.1 193.3 L7.1 195.65 -10.15 195.65 -10.15 193.3 7.1 193.3 M7.1 210.65 L7.1 213.1 -10.15 213.1 -10.15 210.65 7.1 210.65" fill="url(#gradient1)" fill-rule="evenodd" stroke="none"/>
    <path d="M-10.15 195.65 L7.1 195.65 10.6 195.65 13.15 195.65 21.85 207.45 18.65 210.65 10.6 210.65 7.1 210.65 -10.15 210.65 -13.65 210.65 -20.5 210.65 -23.2 208.05 -14.95 195.65 -13.65 195.65 -10.15 195.65" fill="#000102" fill-rule="evenodd" stroke="none"/>
    <path d="M10.6 195.65 L10.6 193.3 14.9 193.3 26.7 210.05 22.9 213.1 10.6 213.1 10.6 210.65 18.65 210.65 21.85 207.45 13.15 195.65 10.6 195.65" fill="url(#gradient2)" fill-rule="evenodd" stroke="none"/>
    <path d="M-13.65 195.65 L-14.95 195.65 -23.2 208.05 -20.5 210.65 -13.65 210.65 -13.65 213.1 -24.55 213.1 -27.55 210.05 -16.45 193.3 -13.65 193.3 -13.65 195.65" fill="url(#gradient3)" fill-rule="evenodd" stroke="none"/>
    <path d="M-10.15 193.3 L-10.15 195.65 -13.65 195.65 -13.65 193.3 -10.15 193.3 M-13.65 213.1 L-13.65 210.65 -10.15 210.65 -10.15 213.1 -13.65 213.1" fill="url(#gradient4)" fill-rule="evenodd" stroke="none"/>
    <path d="M7.1 193.3 L-10.15 193.3 -13.65 193.3 -16.45 193.3 -27.55 210.05 -24.55 213.1 -13.65 213.1 -10.15 213.1 7.1 213.1 10.6 213.1 22.9 213.1 26.7 210.05 14.9 193.3 10.6 193.3 7.1 193.3 Z" fill="none" stroke="#736357" stroke-linecap="butt" stroke-linejoin="miter-clip" stroke-miterlimit="4.0" stroke-width="1.0"/>
  </g>
  <defs>
    <linearGradient gradientTransform="matrix(0.0, -0.0121, 0.0363, 0.0, 5.65, 203.2)" gradientUnits="userSpaceOnUse" id="gradient0" spreadMethod="pad" x1="-819.2" x2="819.2">
      <stop offset="0.0" stop-color="#242424"/>
      <stop offset="1.0" stop-color="#505050"/>
    </linearGradient>
    <linearGradient gradientTransform="matrix(0.0, -0.0121, 0.0658, 0.0, 4.45, 203.2)" gradientUnits="userSpaceOnUse" id="gradient1" spreadMethod="pad" x1="-819.2" x2="819.2">
      <stop offset="0.0" stop-color="#242424"/>
      <stop offset="1.0" stop-color="#505050"/>
    </linearGradient>
    <linearGradient gradientTransform="matrix(0.0, -0.0121, 0.0121, 0.0, 8.95, 203.2)" gradientUnits="userSpaceOnUse" id="gradient2" spreadMethod="pad" x1="-819.2" x2="819.2">
      <stop offset="0.0" stop-color="#242424"/>
      <stop offset="1.0" stop-color="#505050"/>
    </linearGradient>
    <linearGradient gradientTransform="matrix(0.0, -0.0121, 0.0121, 0.0, -9.8, 203.2)" gradientUnits="userSpaceOnUse" id="gradient3" spreadMethod="pad" x1="-819.2" x2="819.2">
      <stop offset="0.0" stop-color="#242424"/>
      <stop offset="1.0" stop-color="#505050"/>
    </linearGradient>
    <linearGradient gradientTransform="matrix(0.0, -0.0121, 0.0363, 0.0, -2.1, 203.2)" gradientUnits="userSpaceOnUse" id="gradient4" spreadMethod="pad" x1="-819.2" x2="819.2">
      <stop offset="0.0" stop-color="#242424"/>
      <stop offset="1.0" stop-color="#505050"/>
    </linearGradient>
  </defs>
</svg>
