<?xml version="1.0" encoding="UTF-8" standalone="no"?>
<svg xmlns:ffdec="https://www.free-decompiler.com/flash" xmlns:xlink="http://www.w3.org/1999/xlink" ffdec:objectType="shape" height="91.6px" width="199.2px" xmlns="http://www.w3.org/2000/svg">
  <g transform="matrix(1.0, 0.0, 0.0, 1.0, -0.15, 0.5)">
    <path d="M198.85 21.9 L198.85 87.2 Q198.85 88.6 197.8 89.55 196.85 90.6 195.45 90.6 L4.35 90.6 Q2.9 90.6 1.95 89.55 0.95 88.6 0.95 87.2 L0.95 21.9 Q0.95 20.5 1.95 19.55 2.9 18.55 4.35 18.55 L195.45 18.55 Q196.85 18.55 197.8 19.55 198.85 20.5 198.85 21.9" fill="#01123d" fill-rule="evenodd" stroke="none"/>
    <path d="M198.85 21.9 L198.85 87.2 Q198.85 88.6 197.8 89.55 196.85 90.6 195.45 90.6 L4.35 90.6 Q2.9 90.6 1.95 89.55 0.95 88.6 0.95 87.2 L0.95 21.9 Q0.95 20.5 1.95 19.55 2.9 18.55 4.35 18.55 L195.45 18.55 Q196.85 18.55 197.8 19.55 198.85 20.5 198.85 21.9 Z" fill="none" stroke="#043896" stroke-linecap="butt" stroke-linejoin="miter-clip" stroke-miterlimit="4.0" stroke-width="1.0"/>
    <path d="M176.2 0.0 Q177.6 0.0 179.25 0.65 180.9 1.3 181.8 2.2 L195.95 15.8 Q196.9 16.7 196.6 17.35 196.3 18.0 194.9 18.0 L4.0 18.0 Q2.6 18.0 1.65 17.1 0.65 16.25 0.65 15.0 L0.65 3.0 Q0.65 1.75 1.65 0.9 2.6 0.0 4.0 0.0 L176.2 0.0" fill="#03428e" fill-rule="evenodd" stroke="none"/>
    <path d="M176.2 0.0 L4.0 0.0 Q2.6 0.0 1.65 0.9 0.65 1.75 0.65 3.0 L0.65 15.0 Q0.65 16.25 1.65 17.1 2.6 18.0 4.0 18.0 L194.9 18.0 Q196.3 18.0 196.6 17.35 196.9 16.7 195.95 15.8 L181.8 2.2 Q180.9 1.3 179.25 0.65 177.6 0.0 176.2 0.0 Z" fill="none" stroke="#025fce" stroke-linecap="butt" stroke-linejoin="miter-clip" stroke-miterlimit="4.0" stroke-width="1.0"/>
    <path d="M176.2 0.0 Q177.6 0.0 179.25 0.65 180.9 1.3 181.8 2.2 L195.95 15.8 Q196.9 16.7 196.6 17.35 196.3 18.0 194.9 18.0 L77.5 18.0 Q76.15 18.0 74.5 17.35 72.9 16.65 71.95 15.75 L58.4 2.2 Q57.5 1.3 57.75 0.65 58.1 0.0 59.5 0.0 L176.2 0.0" fill="#022260" fill-rule="evenodd" stroke="none"/>
    <path d="M176.2 0.0 L59.5 0.0 Q58.1 0.0 57.75 0.65 57.5 1.3 58.4 2.2 L71.95 15.75 Q72.9 16.65 74.5 17.35 76.15 18.0 77.5 18.0 L194.9 18.0 Q196.3 18.0 196.6 17.35 196.9 16.7 195.95 15.8 L181.8 2.2 Q180.9 1.3 179.25 0.65 177.6 0.0 176.2 0.0 Z" fill="none" stroke="#034089" stroke-linecap="butt" stroke-linejoin="miter-clip" stroke-miterlimit="4.0" stroke-width="1.0"/>
    <path d="M17.75 26.95 L66.35 26.95 70.6 31.15 70.6 37.55 68.5 41.5 68.5 69.95 70.6 73.95 70.6 80.45 66.25 84.35 17.9 84.35 13.25 79.5 13.25 74.0 15.35 69.9 15.35 41.5 13.25 37.45 13.25 31.95 17.75 26.95" fill="#022a56" fill-rule="evenodd" stroke="none"/>
    <path d="M17.75 26.95 L66.35 26.95 70.6 31.15 70.6 37.55 68.5 41.5 68.5 69.95 70.6 73.95 70.6 80.45 66.25 84.35 17.9 84.35 13.25 79.5 13.25 74.0 15.35 69.9 15.35 41.5 13.25 37.45 13.25 31.95 17.75 26.95 Z" fill="none" stroke="#035eef" stroke-linecap="butt" stroke-linejoin="miter-clip" stroke-miterlimit="4.0" stroke-width="1.0"/>
  </g>
</svg>
