<?xml version="1.0" encoding="UTF-8" standalone="no"?>
<svg xmlns:ffdec="https://www.free-decompiler.com/flash" xmlns:xlink="http://www.w3.org/1999/xlink" ffdec:objectType="shape" height="170.25px" width="760.0px" xmlns="http://www.w3.org/2000/svg">
  <g transform="matrix(1.0, 0.0, 0.0, 1.0, 0.0, 0.0)">
    <path d="M760.0 170.25 L0.0 170.25 0.0 0.0 760.0 0.0 760.0 170.25" fill="#f5f5f5" fill-rule="evenodd" stroke="none"/>
    <path d="M754.95 23.6 L754.95 157.25 Q754.95 158.5 754.05 159.4 753.2 160.25 751.95 160.25 L9.0 160.25 Q7.75 160.25 6.9 159.4 6.0 158.5 6.0 157.25 L6.0 23.6 Q6.0 22.35 6.9 21.5 7.75 20.6 9.0 20.6 L751.95 20.6 Q753.2 20.6 754.05 21.5 754.95 22.35 754.95 23.6" fill="#d3d3d3" fill-rule="evenodd" stroke="none"/>
    <path d="M686.95 160.75 L493.5 160.75 490.3 160.65 285.65 160.65 282.45 160.75 72.0 160.75 Q70.45 160.75 69.95 159.8 69.4 158.8 70.35 157.55 L70.5 157.3 Q71.3 156.2 72.8 155.45 74.3 154.7 75.65 154.7 L274.1 154.7 Q275.2 154.7 276.3 153.95 277.4 153.25 277.85 152.25 L285.3 135.0 Q285.85 133.75 287.25 132.85 288.6 131.95 289.95 131.95 L486.15 131.95 Q487.55 131.95 488.9 132.85 490.25 133.75 490.8 135.0 L498.3 152.25 Q498.7 153.25 499.85 153.95 500.95 154.7 502.05 154.7 L683.25 154.7 Q684.6 154.7 686.15 155.45 687.65 156.2 688.45 157.3 L688.6 157.55 Q689.55 158.8 689.0 159.8 688.55 160.75 686.95 160.75" fill="#ffffff" fill-rule="evenodd" stroke="none"/>
    <path d="M688.2 157.85 L688.05 157.6 Q687.3 156.6 685.9 155.9 684.5 155.2 683.25 155.2 L502.05 155.2 Q500.8 155.2 499.6 154.4 498.35 153.6 497.85 152.45 L490.35 135.2 Q489.85 134.1 488.65 133.25 487.4 132.45 486.15 132.45 L289.95 132.45 Q288.7 132.45 287.5 133.25 286.3 134.05 285.75 135.2 L278.3 152.45 Q277.8 153.6 276.6 154.4 275.35 155.2 274.1 155.2 L75.65 155.2 Q74.4 155.2 73.0 155.9 71.6 156.6 70.9 157.6 L70.75 157.85 Q70.0 158.85 70.4 159.55 70.75 160.25 72.0 160.25 L282.45 160.25 285.5 160.2 288.5 160.1 487.4 160.1 490.45 160.2 493.5 160.25 686.95 160.25 Q688.2 160.25 688.55 159.55 688.9 158.85 688.2 157.85 M683.25 154.2 Q684.75 154.2 686.35 155.0 688.0 155.85 688.85 157.0 L689.0 157.25 Q690.1 158.75 689.45 160.0 688.85 161.25 686.95 161.25 L493.5 161.25 490.15 161.15 285.75 161.15 282.45 161.25 72.0 161.25 Q70.15 161.25 69.5 160.0 68.9 158.75 69.9 157.25 L70.1 157.0 Q70.95 155.85 72.6 155.0 74.2 154.2 75.65 154.2 L274.1 154.2 Q275.05 154.2 276.05 153.55 277.0 152.9 277.4 152.05 L284.85 134.8 Q285.45 133.4 286.95 132.45 288.4 131.45 289.95 131.45 L486.15 131.45 Q487.7 131.45 489.2 132.45 490.65 133.4 491.3 134.8 L498.75 152.05 Q499.15 152.9 500.1 153.55 501.1 154.2 502.05 154.2 L683.25 154.2" fill="#adadad" fill-rule="evenodd" stroke="none"/>
    <path d="M302.5 134.1 L473.75 134.1 Q475.8 134.1 477.3 135.55 478.75 137.05 478.75 139.1 L478.75 148.25 Q478.75 150.3 477.3 151.8 475.8 153.25 473.75 153.25 L302.5 153.25 Q300.45 153.25 298.95 151.8 297.5 150.3 297.5 148.25 L297.5 139.1 Q297.5 137.05 298.95 135.55 300.45 134.1 302.5 134.1" fill="#666666" fill-rule="evenodd" stroke="none"/>
  </g>
</svg>
