<?xml version="1.0" encoding="UTF-8" standalone="no"?>
<svg xmlns:ffdec="https://www.free-decompiler.com/flash" xmlns:xlink="http://www.w3.org/1999/xlink" ffdec:objectType="shape" height="20.35px" width="20.85px" xmlns="http://www.w3.org/2000/svg">
  <g transform="matrix(1.0, 0.0, 0.0, 1.0, 0.95, 0.9)">
    <path d="M5.75 6.15 Q5.75 3.25 7.85 1.15 9.95 -0.9 12.85 -0.9 15.75 -0.9 17.8 1.15 19.9 3.25 19.9 6.15 19.9 9.05 17.8 11.1 15.75 13.2 12.85 13.2 10.9 13.2 9.15 12.15 L7.65 13.95 Q3.25 19.15 2.35 19.4 L1.95 19.45 Q0.9 19.45 -0.05 18.25 -0.85 17.15 -0.95 16.05 -1.05 14.65 6.75 9.65 5.75 8.0 5.75 6.15 M12.85 2.65 Q11.35 2.65 10.35 3.65 9.3 4.65 9.3 6.15 9.3 7.6 10.35 8.6 11.35 9.65 12.85 9.65 14.25 9.65 15.3 8.6 16.35 7.6 16.35 6.15 16.35 4.65 15.3 3.65 14.25 2.65 12.85 2.65" fill="url(#gradient0)" fill-rule="evenodd" stroke="none"/>
  </g>
  <defs>
    <linearGradient gradientTransform="matrix(0.0028, -0.0133, -0.0133, -0.0028, 9.8, 9.7)" gradientUnits="userSpaceOnUse" id="gradient0" spreadMethod="pad" x1="-819.2" x2="819.2">
      <stop offset="0.0" stop-color="#ff9e15"/>
      <stop offset="1.0" stop-color="#ffcf15"/>
    </linearGradient>
  </defs>
</svg>
