<?xml version="1.0" encoding="UTF-8" standalone="no"?>
<svg xmlns:ffdec="https://www.free-decompiler.com/flash" xmlns:xlink="http://www.w3.org/1999/xlink" ffdec:objectType="shape" height="16.65px" width="17.05px" xmlns="http://www.w3.org/2000/svg">
  <g transform="matrix(1.0, 0.0, 0.0, 1.0, -0.95, -0.95)">
    <path d="M6.45 6.7 Q6.45 4.3 8.15 2.6 9.85 0.95 12.25 0.95 14.65 0.95 16.3 2.6 18.0 4.3 18.0 6.7 18.0 9.1 16.3 10.75 14.65 12.45 12.25 12.45 10.65 12.45 9.25 11.6 L8.0 13.1 Q4.4 17.3 3.65 17.55 L3.35 17.6 Q2.5 17.6 1.7 16.6 1.05 15.7 0.95 14.8 0.85 13.65 7.25 9.55 6.45 8.2 6.45 6.7 M12.25 3.8 Q11.05 3.8 10.2 4.65 9.35 5.5 9.35 6.7 9.35 7.85 10.2 8.7 11.05 9.55 12.25 9.55 13.4 9.55 14.25 8.7 15.1 7.85 15.1 6.7 15.1 5.5 14.25 4.65 13.4 3.8 12.25 3.8" fill="url(#gradient0)" fill-rule="evenodd" stroke="none"/>
  </g>
  <defs>
    <linearGradient gradientTransform="matrix(0.0023, -0.0109, -0.0109, -0.0023, 9.75, 9.6)" gradientUnits="userSpaceOnUse" id="gradient0" spreadMethod="pad" x1="-819.2" x2="819.2">
      <stop offset="0.0" stop-color="#ff9e15"/>
      <stop offset="1.0" stop-color="#ffcf15"/>
    </linearGradient>
  </defs>
</svg>
