<?xml version="1.0" encoding="UTF-8" standalone="no"?>
<svg xmlns:ffdec="https://www.free-decompiler.com/flash" xmlns:xlink="http://www.w3.org/1999/xlink" ffdec:objectType="shape" height="113.9px" width="88.05px" xmlns="http://www.w3.org/2000/svg">
  <g transform="matrix(1.0, 0.0, 0.0, 1.0, 0.0, 0.0)">
    <path d="M4.0 3.1 L84.05 3.1 Q85.5 3.1 86.55 4.1 87.55 5.15 87.55 6.6 L87.55 100.4 Q87.55 101.7 86.95 103.35 86.3 105.0 85.45 106.0 L81.15 110.95 78.7 112.7 Q77.1 113.4 75.8 113.4 L4.0 113.4 Q2.55 113.4 1.5 112.35 0.5 111.35 0.5 109.9 L0.5 6.6 Q0.5 5.15 1.5 4.1 2.55 3.1 4.0 3.1" fill="#7d7e7f" fill-rule="evenodd" stroke="none"/>
    <path d="M4.0 3.6 Q2.75 3.6 1.9 4.5 1.0 5.35 1.0 6.6 L1.0 109.9 Q1.0 111.15 1.9 112.0 2.75 112.9 4.0 112.9 L75.8 112.9 Q77.05 112.9 78.5 112.25 79.95 111.6 80.75 110.65 L85.1 105.65 Q85.9 104.7 86.5 103.2 87.05 101.65 87.05 100.4 L87.05 6.6 Q87.05 5.35 86.15 4.5 85.3 3.6 84.05 3.6 L4.0 3.6 M0.0 6.6 Q0.0 4.9 1.2 3.75 2.35 2.6 4.0 2.6 L84.05 2.6 Q85.7 2.6 86.9 3.75 88.05 4.9 88.05 6.6 L88.05 100.4 Q88.05 101.85 87.4 103.55 86.8 105.25 85.85 106.3 L81.5 111.3 Q80.55 112.4 78.9 113.15 77.25 113.9 75.8 113.9 L4.0 113.9 Q2.35 113.9 1.2 112.75 0.0 111.55 0.0 109.9 L0.0 6.6" fill="#555656" fill-rule="evenodd" stroke="none"/>
    <path d="M4.0 3.1 L84.05 3.1 Q85.5 3.1 86.55 4.1 87.55 5.15 87.55 6.6 L87.55 82.25 Q87.55 83.7 86.55 84.7 85.5 85.75 84.05 85.75 L4.0 85.75 Q2.55 85.75 1.5 84.7 0.5 83.7 0.5 82.25 L0.5 6.6 Q0.5 5.15 1.5 4.1 2.55 3.1 4.0 3.1" fill="url(#gradient0)" fill-rule="evenodd" stroke="none"/>
    <path d="M4.0 3.6 Q2.75 3.6 1.9 4.5 1.0 5.35 1.0 6.6 L1.0 82.25 Q1.0 83.5 1.9 84.35 2.75 85.25 4.0 85.25 L84.05 85.25 Q85.3 85.25 86.15 84.35 87.05 83.5 87.05 82.25 L87.05 6.6 Q87.05 5.35 86.15 4.5 85.3 3.6 84.05 3.6 L4.0 3.6 M0.0 6.6 Q0.0 4.9 1.2 3.75 2.35 2.6 4.0 2.6 L84.05 2.6 Q85.7 2.6 86.9 3.75 88.05 4.9 88.05 6.6 L88.05 82.25 Q88.05 83.9 86.9 85.1 85.7 86.25 84.05 86.25 L4.0 86.25 Q2.35 86.25 1.2 85.1 0.0 83.9 0.0 82.25 L0.0 6.6" fill="#808080" fill-rule="evenodd" stroke="none"/>
    <path d="M24.2 0.5 L64.7 0.5 Q66.2 0.5 66.95 1.55 67.75 2.6 67.35 4.0 L65.0 12.45 Q64.6 13.8 63.35 14.75 62.1 15.7 60.7 15.7 L28.2 15.7 Q26.8 15.7 25.55 14.75 24.3 13.8 23.9 12.45 L21.5 4.0 Q21.1 2.6 21.9 1.55 22.65 0.5 24.2 0.5" fill="url(#gradient1)" fill-rule="evenodd" stroke="none"/>
    <path d="M21.05 4.15 Q20.6 2.5 21.5 1.25 22.45 0.0 24.2 0.0 L64.7 0.0 Q66.4 0.0 67.35 1.25 68.3 2.55 67.85 4.15 L65.45 12.6 Q65.05 14.15 63.65 15.15 62.3 16.2 60.7 16.2 L28.2 16.2 Q26.6 16.2 25.25 15.15 23.85 14.15 23.4 12.6 L21.05 4.15 M24.2 1.0 Q22.95 1.0 22.3 1.85 21.65 2.7 22.0 3.9 L24.35 12.35 Q24.7 13.5 25.85 14.35 26.95 15.2 28.2 15.2 L60.7 15.2 Q61.95 15.2 63.05 14.35 64.15 13.5 64.5 12.35 L66.85 3.9 Q67.2 2.7 66.55 1.85 65.95 1.0 64.7 1.0 L24.2 1.0" fill="#808080" fill-rule="evenodd" stroke="none"/>
  </g>
  <defs>
    <linearGradient gradientTransform="matrix(0.0, -0.0504, -0.0504, 0.0, 44.05, 44.4)" gradientUnits="userSpaceOnUse" id="gradient0" spreadMethod="pad" x1="-819.2" x2="819.2">
      <stop offset="0.0" stop-color="#b8b8ba"/>
      <stop offset="1.0" stop-color="#ffffff"/>
    </linearGradient>
    <linearGradient gradientTransform="matrix(0.0, -0.0093, -0.0093, 0.0, 44.45, 8.1)" gradientUnits="userSpaceOnUse" id="gradient1" spreadMethod="pad" x1="-819.2" x2="819.2">
      <stop offset="0.0" stop-color="#b8b8ba"/>
      <stop offset="1.0" stop-color="#ffffff"/>
    </linearGradient>
  </defs>
</svg>
