<?xml version="1.0" encoding="UTF-8" standalone="no"?>
<svg xmlns:ffdec="https://www.free-decompiler.com/flash" xmlns:xlink="http://www.w3.org/1999/xlink" ffdec:objectType="shape" height="115.35px" width="89.7px" xmlns="http://www.w3.org/2000/svg">
  <g transform="matrix(1.0, 0.0, 0.0, 1.0, 0.7, 1.8)">
    <path d="M89.0 16.55 L89.0 101.05 Q89.0 102.3 88.4 103.8 87.85 105.35 87.0 106.25 L82.4 111.35 Q81.55 112.25 80.1 112.9 L77.4 113.55 2.3 113.55 Q1.05 113.55 0.2 112.65 -0.7 111.8 -0.7 110.55 L-0.7 16.55 Q-0.7 15.3 0.2 14.45 1.05 13.55 2.3 13.55 L86.0 13.55 Q87.25 13.55 88.1 14.45 89.0 15.3 89.0 16.55" fill="url(#gradient0)" fill-rule="evenodd" stroke="none"/>
    <path d="M85.65 7.25 L85.65 82.8 Q85.65 84.25 84.65 85.25 83.6 86.3 82.15 86.3 L6.05 86.3 Q4.6 86.3 3.55 85.25 2.55 84.25 2.55 82.8 L2.55 7.25 Q2.55 5.8 3.55 4.75 4.6 3.75 6.05 3.75 L82.15 3.75 Q83.6 3.75 84.65 4.75 85.65 5.8 85.65 7.25" fill="url(#gradient1)" fill-rule="evenodd" stroke="none"/>
    <path d="M85.15 7.25 Q85.15 6.0 84.25 5.15 83.4 4.25 82.15 4.25 L6.05 4.25 Q4.8 4.25 3.95 5.15 3.05 6.0 3.05 7.25 L3.05 82.8 Q3.05 84.05 3.95 84.9 4.8 85.8 6.05 85.8 L82.15 85.8 Q83.4 85.8 84.25 84.9 85.15 84.05 85.15 82.8 L85.15 7.25 M82.15 3.25 Q83.8 3.25 85.0 4.45 86.15 5.6 86.15 7.25 L86.15 82.8 Q86.15 84.45 85.0 85.65 83.8 86.8 82.15 86.8 L6.05 86.8 Q4.4 86.8 3.25 85.65 2.05 84.45 2.05 82.8 L2.05 7.25 Q2.05 5.6 3.25 4.45 4.4 3.25 6.05 3.25 L82.15 3.25" fill="#808080" fill-rule="evenodd" stroke="none"/>
    <path d="M60.75 13.95 L28.25 13.95 Q26.85 13.95 25.6 13.0 24.35 12.05 23.95 10.7 L21.55 2.25 Q21.2 0.85 21.95 -0.25 22.75 -1.3 24.25 -1.3 L64.75 -1.3 Q66.2 -1.3 67.0 -0.25 67.75 0.85 67.4 2.25 L65.05 10.7 Q64.65 12.05 63.4 13.0 62.15 13.95 60.75 13.95" fill="url(#gradient2)" fill-rule="evenodd" stroke="none"/>
    <path d="M60.75 13.45 Q62.0 13.45 63.1 12.6 64.2 11.75 64.55 10.55 L66.9 2.1 Q67.25 0.9 66.6 0.05 66.0 -0.8 64.75 -0.8 L24.25 -0.8 Q23.0 -0.8 22.35 0.05 21.7 0.9 22.05 2.1 L24.4 10.55 Q24.75 11.75 25.9 12.6 27.0 13.45 28.25 13.45 L60.75 13.45 M64.75 -1.8 Q66.45 -1.8 67.4 -0.55 68.35 0.75 67.9 2.4 L65.5 10.8 Q65.1 12.35 63.7 13.4 62.35 14.45 60.75 14.45 L28.25 14.45 Q26.7 14.45 25.3 13.4 23.9 12.35 23.45 10.8 L21.1 2.4 Q20.65 0.7 21.55 -0.55 22.5 -1.8 24.25 -1.8 L64.75 -1.8" fill="#808080" fill-rule="evenodd" stroke="none"/>
  </g>
  <defs>
    <linearGradient gradientTransform="matrix(0.0, -0.061, -0.061, 0.0, 44.15, 63.55)" gradientUnits="userSpaceOnUse" id="gradient0" spreadMethod="pad" x1="-819.2" x2="819.2">
      <stop offset="0.0" stop-color="#056ba6"/>
      <stop offset="1.0" stop-color="#8c8f8f"/>
    </linearGradient>
    <linearGradient gradientTransform="matrix(0.0, -0.0504, -0.0504, 0.0, 44.1, 45.0)" gradientUnits="userSpaceOnUse" id="gradient1" spreadMethod="pad" x1="-819.2" x2="819.2">
      <stop offset="0.0" stop-color="#b8b8ba"/>
      <stop offset="1.0" stop-color="#ffffff"/>
    </linearGradient>
    <linearGradient gradientTransform="matrix(0.0, -0.0093, -0.0093, 0.0, 44.5, 6.35)" gradientUnits="userSpaceOnUse" id="gradient2" spreadMethod="pad" x1="-819.2" x2="819.2">
      <stop offset="0.0" stop-color="#b8b8ba"/>
      <stop offset="1.0" stop-color="#ffffff"/>
    </linearGradient>
  </defs>
</svg>
