<?xml version="1.0" encoding="UTF-8" standalone="no"?>
<svg xmlns:ffdec="https://www.free-decompiler.com/flash" xmlns:xlink="http://www.w3.org/1999/xlink" ffdec:objectType="shape" height="37.4px" width="20.2px" xmlns="http://www.w3.org/2000/svg">
  <g transform="matrix(1.0, 0.0, 0.0, 1.0, -0.55, -1.55)">
    <path d="M2.35 17.4 L16.65 3.05 Q17.95 1.75 18.9 2.1 19.8 2.5 19.8 4.35 L19.8 36.05 Q19.8 37.9 18.85 38.3 17.9 38.7 16.6 37.4 L2.4 23.7 Q1.1 22.4 1.05 20.55 1.05 18.7 2.35 17.4" fill="url(#gradient0)" fill-rule="evenodd" stroke="none"/>
    <path d="M16.65 3.05 L2.35 17.4 Q1.05 18.7 1.05 20.55 1.1 22.4 2.4 23.7 L16.65 37.45 Q17.95 38.75 18.9 38.35 19.8 37.95 19.8 36.1 L19.8 4.35 Q19.8 2.5 18.9 2.1 18.0 1.75 16.65 3.05 Z" fill="none" stroke="#915700" stroke-linecap="butt" stroke-linejoin="miter-clip" stroke-miterlimit="4.0" stroke-width="1.0"/>
  </g>
  <defs>
    <linearGradient gradientTransform="matrix(0.0168, 0.0, 0.0, -0.0112, 10.25, 24.65)" gradientUnits="userSpaceOnUse" id="gradient0" spreadMethod="pad" x1="-819.2" x2="819.2">
      <stop offset="0.0" stop-color="#ff9e15"/>
      <stop offset="1.0" stop-color="#ffcf15"/>
    </linearGradient>
  </defs>
</svg>
