<?xml version="1.0" encoding="UTF-8" standalone="no"?>
<svg xmlns:ffdec="https://www.free-decompiler.com/flash" xmlns:xlink="http://www.w3.org/1999/xlink" ffdec:objectType="shape" height="224.05px" width="533.5px" xmlns="http://www.w3.org/2000/svg">
  <g transform="matrix(1.0, 0.0, 0.0, 1.0, 266.75, 112.05)">
    <path d="M263.75 -112.05 Q265.0 -112.05 265.85 -111.15 266.75 -110.3 266.75 -109.05 L266.75 109.0 Q266.75 110.25 265.85 111.15 265.0 112.0 263.75 112.0 L-263.75 112.0 Q-265.0 112.0 -265.85 111.15 -266.75 110.25 -266.75 109.0 L-266.75 -109.05 Q-266.75 -110.3 -265.85 -111.15 -265.0 -112.05 -263.75 -112.05 L263.75 -112.05 M153.55 -110.05 L150.65 -109.65 Q148.95 -109.25 147.9 -108.65 L145.55 -107.45 Q144.45 -106.9 142.8 -106.45 L139.9 -106.05 -139.1 -106.05 -142.0 -106.45 Q-143.65 -106.9 -144.75 -107.5 L-146.8 -108.6 Q-147.9 -109.2 -149.55 -109.6 L-152.45 -110.05 -261.3 -110.05 Q-262.55 -110.05 -263.4 -109.15 -264.3 -108.3 -264.3 -107.05 L-264.3 102.4 Q-264.3 103.65 -263.4 104.5 -262.55 105.4 -261.3 105.4 L-142.75 105.4 -139.85 105.85 Q-138.25 106.25 -137.15 106.85 L-135.1 108.0 -132.35 109.0 -129.45 109.4 131.55 109.4 134.45 108.95 Q136.05 108.5 137.15 107.85 L138.65 106.95 Q139.7 106.3 141.35 105.85 L144.25 105.4 261.25 105.4 Q262.5 105.4 263.35 104.5 264.25 103.65 264.25 102.4 L264.25 -107.05 Q264.25 -108.3 263.35 -109.15 262.5 -110.05 261.25 -110.05 L153.55 -110.05" fill="url(#gradient0)" fill-rule="evenodd" stroke="none"/>
  </g>
  <defs>
    <linearGradient gradientTransform="matrix(-0.0052, -0.1478, -0.1478, 0.0052, 0.0, 0.0)" gradientUnits="userSpaceOnUse" id="gradient0" spreadMethod="pad" x1="-819.2" x2="819.2">
      <stop offset="0.0" stop-color="#0157a8"/>
      <stop offset="0.09803921568627451" stop-color="#015db2"/>
      <stop offset="0.7058823529411765" stop-color="#0083e9"/>
      <stop offset="1.0" stop-color="#0091ff"/>
    </linearGradient>
  </defs>
</svg>
