<?xml version="1.0" encoding="UTF-8" standalone="no"?>
<svg xmlns:ffdec="https://www.free-decompiler.com/flash" xmlns:xlink="http://www.w3.org/1999/xlink" ffdec:objectType="shape" height="185.25px" width="510.55px" xmlns="http://www.w3.org/2000/svg">
  <g transform="matrix(1.0, 0.0, 0.0, 1.0, 0.0, 0.0)">
    <path d="M510.55 3.0 L510.55 161.25 Q510.55 162.5 509.65 163.35 508.8 164.25 507.55 164.25 L324.55 164.25 Q323.3 164.25 322.0 165.0 320.7 165.75 320.05 166.85 L311.05 182.65 Q310.45 183.7 309.1 184.5 307.8 185.25 306.55 185.25 L203.55 185.25 Q202.3 185.25 201.0 184.5 199.65 183.75 199.0 182.7 L189.15 166.8 Q188.45 165.75 187.15 165.0 185.8 164.25 184.55 164.25 L3.0 164.25 Q1.75 164.25 0.9 163.35 0.0 162.5 0.0 161.25 L0.0 3.0 Q0.0 1.75 0.9 0.9 1.75 0.0 3.0 0.0 L507.55 0.0 Q508.8 0.0 509.65 0.9 510.55 1.75 510.55 3.0" fill="url(#gradient0)" fill-rule="evenodd" stroke="none"/>
  </g>
  <defs>
    <linearGradient gradientTransform="matrix(-0.0042, -0.1194, -0.1194, 0.0042, 255.5, 89.1)" gradientUnits="userSpaceOnUse" id="gradient0" spreadMethod="pad" x1="-819.2" x2="819.2">
      <stop offset="0.0" stop-color="#00082b"/>
      <stop offset="0.054901960784313725" stop-color="#00092c"/>
      <stop offset="1.0" stop-color="#001442"/>
    </linearGradient>
  </defs>
</svg>
