<?xml version="1.0" encoding="UTF-8" standalone="no"?>
<svg xmlns:ffdec="https://www.free-decompiler.com/flash" xmlns:xlink="http://www.w3.org/1999/xlink" ffdec:objectType="shape" height="17.8px" width="17.8px" xmlns="http://www.w3.org/2000/svg">
  <g transform="matrix(1.0, 0.0, 0.0, 1.0, 0.0, 0.0)">
    <path d="M15.05 8.9 Q15.05 6.35 13.25 4.55 11.45 2.75 8.9 2.75 6.35 2.75 4.55 4.55 2.75 6.35 2.75 8.9 2.75 11.45 4.55 13.25 6.35 15.05 8.9 15.05 11.45 15.05 13.25 13.25 15.05 11.45 15.05 8.9 M15.2 2.6 Q17.8 5.25 17.8 8.9 17.8 12.6 15.2 15.2 12.6 17.8 8.9 17.8 5.2 17.8 2.6 15.2 0.0 12.6 0.0 8.9 0.0 5.2 2.6 2.6 5.2 0.0 8.9 0.0 12.6 0.0 15.2 2.6" fill="url(#gradient0)" fill-rule="evenodd" stroke="none"/>
  </g>
  <defs>
    <linearGradient gradientTransform="matrix(0.0109, 0.0, 0.0, -0.0109, 8.9, 8.9)" gradientUnits="userSpaceOnUse" id="gradient0" spreadMethod="pad" x1="-819.2" x2="819.2">
      <stop offset="0.0" stop-color="#0069f2" stop-opacity="0.8"/>
      <stop offset="1.0" stop-color="#26a8ff" stop-opacity="0.8"/>
    </linearGradient>
  </defs>
</svg>
