<?xml version="1.0" encoding="UTF-8" standalone="no"?>
<svg xmlns:ffdec="https://www.free-decompiler.com/flash" xmlns:xlink="http://www.w3.org/1999/xlink" ffdec:objectType="shape" height="10.15px" width="34.5px" xmlns="http://www.w3.org/2000/svg">
  <g transform="matrix(1.0, 0.0, 0.0, 1.0, 0.0, 0.0)">
    <path d="M19.95 5.2 L16.1 0.1 19.75 0.0 23.7 5.25 20.1 10.15 16.1 10.15 19.95 5.2 M25.2 5.2 L21.35 0.1 25.0 0.0 28.95 5.25 25.35 10.15 21.35 10.15 25.2 5.2 M30.55 0.0 L34.5 5.25 30.9 10.15 26.9 10.15 30.75 5.2 26.9 0.1 30.55 0.0 M10.85 0.1 L14.5 0.0 18.45 5.25 14.85 10.15 10.85 10.15 14.7 5.2 10.85 0.1 M5.3 0.1 L8.95 0.0 12.9 5.25 9.3 10.15 5.3 10.15 9.15 5.2 5.3 0.1 M3.7 0.0 L7.65 5.25 4.05 10.15 0.0 10.15 3.9 5.2 0.0 0.1 3.7 0.0" fill="#fdce05" fill-opacity="0.972549" fill-rule="evenodd" stroke="none"/>
  </g>
</svg>
