<?xml version="1.0" encoding="UTF-8" standalone="no"?>
<svg xmlns:ffdec="https://www.free-decompiler.com/flash" xmlns:xlink="http://www.w3.org/1999/xlink" ffdec:objectType="shape" height="25.25px" width="41.8px" xmlns="http://www.w3.org/2000/svg">
  <g transform="matrix(1.0, 0.0, 0.0, 1.0, 0.0, 0.0)">
    <path d="M18.8 0.0 L41.8 0.0 0.0 25.25 0.0 10.8 18.8 0.0" fill="#b84700" fill-rule="evenodd" stroke="none"/>
    <path d="M2.9 11.3 L4.55 14.1 7.4 12.4 5.8 9.6 7.15 8.85 11.4 16.15 10.05 16.95 8.35 14.0 5.45 15.7 7.2 18.65 5.85 19.4 1.6 12.05 2.9 11.3" fill="#fff800" fill-rule="evenodd" stroke="none"/>
    <path d="M14.95 7.25 L16.6 10.1 Q17.25 11.2 17.0 12.15 16.7 13.1 15.95 13.55 L15.75 13.7 14.1 14.6 12.5 14.7 Q11.6 14.4 11.0 13.35 L9.35 10.5 Q8.8 9.6 8.95 8.6 9.2 7.65 9.75 7.3 L11.75 6.15 13.4 5.95 Q14.4 6.25 14.95 7.25 M13.15 7.8 L12.1 7.85 11.05 8.45 Q10.65 8.65 10.65 9.25 10.65 9.75 11.1 10.5 L11.9 11.9 12.75 12.9 Q13.2 13.15 13.65 12.9 L14.7 12.3 Q15.25 11.9 15.25 11.45 L14.85 10.2 14.05 8.85 13.15 7.8" fill="#fff800" fill-rule="evenodd" stroke="none"/>
    <path d="M20.0 0.95 L20.95 2.55 19.1 3.65 22.4 9.35 21.05 10.15 17.75 4.45 15.9 5.5 14.95 3.85 20.0 0.95" fill="#fff800" fill-rule="evenodd" stroke="none"/>
  </g>
</svg>
