<?xml version="1.0" encoding="UTF-8" standalone="no"?>
<svg xmlns:ffdec="https://www.free-decompiler.com/flash" xmlns:xlink="http://www.w3.org/1999/xlink" ffdec:objectType="shape" height="27.9px" width="246.7px" xmlns="http://www.w3.org/2000/svg">
  <g transform="matrix(1.0, 0.0, 0.0, 1.0, 0.0, 0.0)">
    <path d="M11.0 0.5 L243.7 0.5 Q244.75 0.5 245.5 1.25 246.2 2.0 246.2 3.0 L246.2 19.9 Q246.2 21.0 245.6 22.45 245.05 23.85 244.25 24.7 L243.5 25.4 Q242.7 26.25 241.3 26.8 L238.75 27.4 3.0 27.4 Q2.0 27.4 1.25 26.65 0.5 25.9 0.5 24.9 L0.5 10.6 Q0.5 9.5 1.1 8.1 1.7 6.7 2.55 5.9 L6.2 2.45 Q7.05 1.65 8.45 1.1 9.9 0.5 11.0 0.5" fill="url(#gradient0)" fill-rule="evenodd" stroke="none"/>
    <path d="M8.25 0.6 Q9.75 0.0 11.0 0.0 L243.7 0.0 Q244.95 0.0 245.8 0.9 246.7 1.75 246.7 3.0 L246.7 19.9 Q246.7 21.15 246.1 22.65 245.45 24.15 244.6 25.05 L243.9 25.75 Q243.0 26.65 241.5 27.3 L238.75 27.9 3.0 27.9 Q1.75 27.9 0.9 27.0 0.0 26.15 0.0 24.9 L0.0 10.6 Q0.0 9.35 0.65 7.85 1.3 6.4 2.2 5.55 L5.85 2.1 8.25 0.6 M11.0 1.0 Q10.0 1.0 8.65 1.55 7.3 2.1 6.55 2.8 L2.9 6.25 Q2.15 6.95 1.6 8.25 1.0 9.55 1.0 10.6 L1.0 24.9 Q1.0 25.75 1.6 26.3 2.2 26.9 3.0 26.9 L238.75 26.9 241.1 26.35 243.15 25.05 243.9 24.35 Q244.6 23.6 245.15 22.25 245.7 20.9 245.7 19.9 L245.7 3.0 Q245.7 2.2 245.1 1.6 244.55 1.0 243.7 1.0 L11.0 1.0" fill="#bf853a" fill-rule="evenodd" stroke="none"/>
  </g>
  <defs>
    <linearGradient gradientTransform="matrix(0.1221, 0.0622, 0.0622, -0.1221, 123.9, 14.25)" gradientUnits="userSpaceOnUse" id="gradient0" spreadMethod="pad" x1="-819.2" x2="819.2">
      <stop offset="0.0" stop-color="#451200"/>
      <stop offset="0.3607843137254902" stop-color="#5b2205"/>
      <stop offset="1.0" stop-color="#8a4510"/>
    </linearGradient>
  </defs>
</svg>
