<?xml version="1.0" encoding="UTF-8" standalone="no"?>
<svg xmlns:ffdec="https://www.free-decompiler.com/flash" xmlns:xlink="http://www.w3.org/1999/xlink" ffdec:objectType="shape" height="139.7px" width="265.95px" xmlns="http://www.w3.org/2000/svg">
  <g transform="matrix(1.0, 0.0, 0.0, 1.0, 0.0, 0.0)">
    <path d="M260.95 0.0 Q263.0 0.0 264.5 1.45 265.95 2.95 265.95 5.0 L265.95 134.7 Q265.95 136.75 264.5 138.25 263.0 139.7 260.95 139.7 L5.0 139.7 Q2.95 139.7 1.45 138.25 0.0 136.75 0.0 134.7 L0.0 5.0 Q0.0 2.95 1.45 1.45 2.95 0.0 5.0 0.0 L260.95 0.0 M264.6 6.75 Q264.6 4.7 263.15 3.2 261.65 1.75 259.6 1.75 L6.3 1.75 Q4.25 1.75 2.75 3.2 1.3 4.7 1.3 6.75 L1.3 130.15 Q1.3 132.2 2.75 133.7 4.25 135.15 6.3 135.15 L39.35 135.15 43.4 135.5 Q45.35 135.8 46.05 136.25 46.75 136.7 48.7 137.05 L52.7 137.4 205.65 137.4 209.7 137.05 212.35 136.25 Q213.05 135.8 215.05 135.5 L219.05 135.15 259.6 135.15 Q261.65 135.15 263.15 133.7 264.6 132.2 264.6 130.15 L264.6 6.75" fill="url(#gradient0)" fill-rule="evenodd" stroke="none"/>
  </g>
  <defs>
    <linearGradient gradientTransform="matrix(0.0, -0.0853, -0.0853, 0.0, 132.95, 69.85)" gradientUnits="userSpaceOnUse" id="gradient0" spreadMethod="pad" x1="-819.2" x2="819.2">
      <stop offset="0.0" stop-color="#0166d4"/>
      <stop offset="0.39215686274509803" stop-color="#0268d5"/>
      <stop offset="0.5764705882352941" stop-color="#0770d9"/>
      <stop offset="0.7215686274509804" stop-color="#0e7de0"/>
      <stop offset="0.8431372549019608" stop-color="#188fea"/>
      <stop offset="0.9490196078431372" stop-color="#26a7f7"/>
      <stop offset="1.0" stop-color="#2eb5ff"/>
    </linearGradient>
  </defs>
</svg>
