<?xml version="1.0" encoding="UTF-8" standalone="no"?>
<svg xmlns:ffdec="https://www.free-decompiler.com/flash" xmlns:xlink="http://www.w3.org/1999/xlink" ffdec:objectType="shape" height="16.35px" width="78.2px" xmlns="http://www.w3.org/2000/svg">
  <g transform="matrix(1.0, 0.0, 0.0, 1.0, -96.2, -40.95)">
    <path d="M155.95 48.9 Q155.5 49.75 155.2 49.55 154.95 49.45 155.4 48.6 155.85 47.75 156.15 47.95 156.4 48.1 155.95 48.9" fill="#76b7fa" fill-rule="evenodd" stroke="none"/>
    <path d="M172.45 54.4 Q172.55 53.5 172.9 53.5 173.2 53.55 173.1 54.5 173.0 55.4 172.65 55.4 172.35 55.3 172.45 54.4" fill="#76b7fa" fill-rule="evenodd" stroke="none"/>
    <path d="M161.65 42.95 L162.05 43.1 163.15 48.75 163.95 48.55 164.7 48.7 165.1 48.95 165.6 49.0 166.25 49.3 166.8 49.95 171.05 46.1 171.45 46.2 168.0 50.4 170.95 51.4 171.0 52.1 174.4 53.2 174.4 54.15 168.0 53.5 167.65 55.35 166.6 55.0 165.35 56.0 164.15 55.6 162.85 56.4 162.55 57.3 162.15 57.15 162.45 56.25 161.9 54.85 160.7 54.45 160.25 52.9 159.25 52.55 160.05 50.85 154.55 47.5 155.1 46.8 158.5 47.9 158.95 47.4 161.9 48.4 161.65 42.95" fill="url(#gradient0)" fill-rule="evenodd" stroke="none"/>
    <path d="M164.3 55.35 L165.6 53.9 166.95 54.4 167.25 54.6 167.2 54.95 166.45 54.7 165.3 55.7 164.3 55.35" fill="#3980c6" fill-rule="evenodd" stroke="none"/>
    <path d="M161.75 52.6 L161.95 54.55 160.9 54.2 160.55 52.75 159.85 52.5 160.0 52.15 160.35 52.2 161.75 52.6" fill="#3980c6" fill-rule="evenodd" stroke="none"/>
    <path d="M165.1 52.75 L164.6 53.2 Q164.2 52.95 163.85 52.85 L163.05 52.7 Q162.75 52.6 162.9 52.05 163.1 51.4 163.6 51.05 164.1 50.7 164.55 50.85 L165.15 51.55 165.1 52.75" fill="#a1ffff" fill-rule="evenodd" stroke="none"/>
    <path d="M110.9 45.75 Q110.55 45.05 110.75 44.95 L111.35 45.45 Q111.7 46.2 111.5 46.25 L110.9 45.75" fill="#5fb7ff" fill-rule="evenodd" stroke="none"/>
    <path d="M97.75 50.1 Q97.85 50.8 97.6 50.9 97.35 50.9 97.25 50.15 97.15 49.4 97.4 49.4 97.65 49.4 97.75 50.1" fill="#5fb7ff" fill-rule="evenodd" stroke="none"/>
    <path d="M96.2 49.15 L98.9 48.25 98.95 47.7 101.3 46.95 98.55 43.55 98.85 43.45 102.3 46.55 102.7 46.05 103.25 45.8 103.6 45.75 103.95 45.55 104.55 45.45 105.15 45.6 106.05 41.1 106.35 40.95 106.15 45.3 108.5 44.5 108.9 44.95 111.55 44.05 112.05 44.6 107.65 47.25 108.25 48.65 107.45 48.9 107.1 50.15 106.15 50.45 105.75 51.6 105.95 52.3 105.65 52.4 105.4 51.7 104.35 51.05 103.4 51.35 102.4 50.6 101.6 50.85 101.3 49.35 96.2 49.9 96.2 49.15" fill="url(#gradient1)" fill-rule="evenodd" stroke="none"/>
    <path d="M104.25 50.85 L103.45 51.15 102.5 50.35 101.95 50.55 101.9 50.25 102.15 50.1 103.2 49.7 104.25 50.85" fill="#3980c6" fill-rule="evenodd" stroke="none"/>
    <path d="M106.15 50.25 L106.3 48.65 107.4 48.35 107.7 48.3 107.8 48.6 107.25 48.8 106.95 49.95 106.15 50.25" fill="#3980c6" fill-rule="evenodd" stroke="none"/>
    <path d="M103.6 48.8 Q103.45 48.3 103.6 47.8 103.7 47.35 104.05 47.25 104.9 47.0 105.35 48.2 105.5 48.65 105.25 48.75 L104.6 48.85 104.0 49.15 Q103.75 49.25 103.6 48.8" fill="#a1ffff" fill-rule="evenodd" stroke="none"/>
  </g>
  <defs>
    <linearGradient gradientTransform="matrix(0.0026, -0.0077, -0.0077, -0.0026, 164.45, 50.9)" gradientUnits="userSpaceOnUse" id="gradient0" spreadMethod="pad" x1="-819.2" x2="819.2">
      <stop offset="0.0" stop-color="#70f0fa"/>
      <stop offset="0.20392156862745098" stop-color="#70e6fa"/>
      <stop offset="0.5607843137254902" stop-color="#70c9fa"/>
      <stop offset="1.0" stop-color="#709efa"/>
    </linearGradient>
    <linearGradient gradientTransform="matrix(0.002, 0.0061, -0.0061, 0.002, 104.15, 47.3)" gradientUnits="userSpaceOnUse" id="gradient1" spreadMethod="pad" x1="-819.2" x2="819.2">
      <stop offset="0.0" stop-color="#59f0ff"/>
      <stop offset="0.20392156862745098" stop-color="#59e6ff"/>
      <stop offset="0.5607843137254902" stop-color="#59c9ff"/>
      <stop offset="1.0" stop-color="#599eff"/>
    </linearGradient>
  </defs>
</svg>
