<?xml version="1.0" encoding="UTF-8" standalone="no"?>
<svg xmlns:ffdec="https://www.free-decompiler.com/flash" xmlns:xlink="http://www.w3.org/1999/xlink" ffdec:objectType="shape" height="28.15px" width="129.2px" xmlns="http://www.w3.org/2000/svg">
  <g transform="matrix(1.0, 0.0, 0.0, 1.0, -15.75, -15.55)">
    <path d="M132.85 43.2 L27.85 43.2 Q26.45 43.2 25.15 42.25 23.85 41.3 23.4 40.0 L16.4 19.55 Q15.9 18.1 16.7 17.1 17.4 16.05 18.95 16.05 L141.75 16.05 Q143.25 16.05 144.0 17.1 144.8 18.15 144.25 19.55 L137.3 40.0 Q136.85 41.3 135.55 42.25 134.25 43.2 132.85 43.2" fill="url(#gradient0)" fill-rule="evenodd" stroke="none"/>
    <path d="M143.8 19.4 Q144.2 18.2 143.6 17.4 143.0 16.55 141.75 16.55 L18.95 16.55 Q17.7 16.55 17.1 17.4 16.5 18.2 16.9 19.4 L23.9 39.85 Q24.3 41.0 25.45 41.85 26.6 42.7 27.85 42.7 L132.85 42.7 Q134.1 42.7 135.25 41.85 136.4 41.0 136.8 39.85 L143.8 19.4 M141.75 15.55 Q143.55 15.55 144.4 16.8 145.3 18.0 144.75 19.7 L137.75 40.2 Q137.25 41.65 135.85 42.7 134.4 43.7 132.85 43.7 L27.85 43.7 Q26.3 43.7 24.85 42.7 23.45 41.65 22.95 40.2 L15.95 19.7 Q15.4 18.0 16.3 16.8 17.15 15.55 18.95 15.55 L141.75 15.55" fill="#0593e2" fill-rule="evenodd" stroke="none"/>
  </g>
  <defs>
    <linearGradient gradientTransform="matrix(0.0, -0.0166, -0.0166, 0.0, 80.35, 29.6)" gradientUnits="userSpaceOnUse" id="gradient0" spreadMethod="pad" x1="-819.2" x2="819.2">
      <stop offset="0.00392156862745098" stop-color="#404964"/>
      <stop offset="0.07058823529411765" stop-color="#0e0f16"/>
      <stop offset="0.3137254901960784" stop-color="#1a1d29"/>
      <stop offset="0.807843137254902" stop-color="#3a425b"/>
      <stop offset="0.9372549019607843" stop-color="#434d69"/>
      <stop offset="0.9529411764705882" stop-color="#59707d"/>
      <stop offset="1.0" stop-color="#373838"/>
    </linearGradient>
  </defs>
</svg>
