<?xml version="1.0" encoding="UTF-8" standalone="no"?>
<svg xmlns:ffdec="https://www.free-decompiler.com/flash" xmlns:xlink="http://www.w3.org/1999/xlink" ffdec:objectType="shape" height="19.9px" width="114.4px" xmlns="http://www.w3.org/2000/svg">
  <g transform="matrix(1.0, 0.0, 0.0, 1.0, -7.4, -3.85)">
    <path d="M15.45 23.75 Q14.2 23.75 13.1 22.9 12.0 22.05 11.6 20.85 L7.5 6.7 Q7.15 5.55 7.8 4.7 8.4 3.85 9.65 3.85 L119.5 3.85 Q120.75 3.85 121.4 4.7 122.05 5.55 121.7 6.7 L117.55 20.85 Q117.2 22.05 116.1 22.9 115.0 23.75 113.75 23.75 L15.45 23.75" fill="url(#gradient0)" fill-rule="evenodd" stroke="none"/>
    <path d="M121.15 4.95 Q121.8 5.8 121.55 7.0 L120.7 10.5 Q120.45 11.7 119.35 12.55 118.25 13.4 117.0 13.4 L12.45 11.55 Q11.2 11.5 10.0 10.65 8.8 9.8 8.4 8.65 L7.8 6.9 Q7.4 5.75 8.0 4.9 8.55 4.1 9.8 4.1 L119.2 4.1 Q120.45 4.1 121.15 4.95" fill="url(#gradient1)" fill-rule="evenodd" stroke="none"/>
  </g>
  <defs>
    <radialGradient cx="0" cy="0" gradientTransform="matrix(0.0994, 0.0, 0.0, 0.0249, 65.9, 19.6)" gradientUnits="userSpaceOnUse" id="gradient0" r="819.2" spreadMethod="pad">
      <stop offset="0.0" stop-color="#33ccff"/>
      <stop offset="0.19215686274509805" stop-color="#30a4ff"/>
      <stop offset="0.5215686274509804" stop-color="#2b66ff"/>
      <stop offset="0.6745098039215687" stop-color="#294dff"/>
      <stop offset="0.6941176470588235" stop-color="#274bfb"/>
      <stop offset="0.8901960784313725" stop-color="#143ddb"/>
      <stop offset="1.0" stop-color="#0d38cf"/>
    </radialGradient>
    <linearGradient gradientTransform="matrix(0.0, 0.0068, -0.0068, 0.0, 63.05, 8.75)" gradientUnits="userSpaceOnUse" id="gradient1" spreadMethod="pad" x1="-819.2" x2="819.2">
      <stop offset="0.0" stop-color="#5ebdff" stop-opacity="0.9607843"/>
      <stop offset="0.2196078431372549" stop-color="#36c5ff" stop-opacity="0.7019608"/>
      <stop offset="0.44313725490196076" stop-color="#31acfa" stop-opacity="0.47058824"/>
      <stop offset="0.6666666666666666" stop-color="#65a6fd" stop-opacity="0.12941177"/>
      <stop offset="1.0" stop-color="#78a3ff" stop-opacity="0.0"/>
    </linearGradient>
  </defs>
</svg>
