<?xml version="1.0" encoding="UTF-8" standalone="no"?>
<svg xmlns:ffdec="https://www.free-decompiler.com/flash" xmlns:xlink="http://www.w3.org/1999/xlink" ffdec:objectType="shape" height="19.9px" width="114.45px" xmlns="http://www.w3.org/2000/svg">
  <g transform="matrix(1.0, 0.0, 0.0, 1.0, -7.4, -3.85)">
    <path d="M15.5 23.75 Q14.25 23.75 13.15 22.95 12.0 22.1 11.65 20.9 L7.55 6.75 Q7.2 5.55 7.8 4.7 8.45 3.85 9.7 3.85 L119.55 3.85 Q120.8 3.85 121.45 4.7 122.05 5.55 121.7 6.75 L117.6 20.9 Q117.25 22.1 116.15 22.95 115.0 23.75 113.75 23.75 L15.5 23.75" fill="url(#gradient0)" fill-rule="evenodd" stroke="none"/>
    <path d="M14.15 16.4 Q12.9 16.4 11.75 15.55 10.55 14.7 10.15 13.55 L7.9 7.3 Q7.5 6.15 8.1 5.3 8.65 4.45 9.9 4.45 L119.35 4.45 Q120.6 4.45 121.15 5.3 121.7 6.1 121.3 7.25 L118.4 15.05 Q118.0 16.2 116.8 17.05 115.6 17.85 114.35 17.8 L14.15 16.4" fill="url(#gradient1)" fill-rule="evenodd" stroke="none"/>
  </g>
  <defs>
    <radialGradient cx="0" cy="0" gradientTransform="matrix(0.0994, 0.0, 0.0, 0.0247, 65.95, 19.6)" gradientUnits="userSpaceOnUse" id="gradient0" r="819.2" spreadMethod="pad">
      <stop offset="0.0" stop-color="#5effff"/>
      <stop offset="0.10196078431372549" stop-color="#55efff"/>
      <stop offset="0.30196078431372547" stop-color="#3dc6ff"/>
      <stop offset="0.5764705882352941" stop-color="#1684ff"/>
      <stop offset="0.6745098039215687" stop-color="#086bff"/>
      <stop offset="0.7215686274509804" stop-color="#0a71ff"/>
      <stop offset="0.8352941176470589" stop-color="#0c7aff"/>
      <stop offset="1.0" stop-color="#0d7dff"/>
    </radialGradient>
    <linearGradient gradientTransform="matrix(0.0, -0.0095, 0.0095, 0.0, 64.75, 10.35)" gradientUnits="userSpaceOnUse" id="gradient1" spreadMethod="pad" x1="-819.2" x2="819.2">
      <stop offset="0.0" stop-color="#5ebdff" stop-opacity="0.0"/>
      <stop offset="0.7647058823529411" stop-color="#71aaff" stop-opacity="0.73333335"/>
      <stop offset="1.0" stop-color="#78a3ff"/>
    </linearGradient>
  </defs>
</svg>
