<?xml version="1.0" encoding="UTF-8" standalone="no"?>
<svg xmlns:ffdec="https://www.free-decompiler.com/flash" xmlns:xlink="http://www.w3.org/1999/xlink" ffdec:objectType="shape" height="17.9px" width="103.0px" xmlns="http://www.w3.org/2000/svg">
  <g transform="matrix(1.0, 0.0, 0.0, 1.0, -13.1, -4.9)">
    <path d="M20.4 22.8 Q19.25 22.8 18.25 22.1 17.25 21.3 16.9 20.25 L13.25 7.5 Q12.9 6.4 13.45 5.65 14.05 4.9 15.15 4.9 L114.05 4.9 Q115.15 4.9 115.75 5.65 116.3 6.4 115.95 7.5 L112.25 20.25 Q111.95 21.3 110.95 22.1 109.95 22.8 108.8 22.8 L20.4 22.8" fill="url(#gradient0)" fill-rule="evenodd" stroke="none"/>
    <path d="M113.9 5.45 Q115.05 5.45 115.55 6.2 116.0 6.9 115.65 7.95 L113.05 14.95 Q112.7 16.0 111.6 16.75 110.55 17.5 109.4 17.45 L19.25 16.2 Q18.1 16.2 17.05 15.4 16.0 14.65 15.65 13.6 L13.6 8.0 Q13.25 6.95 13.8 6.2 14.3 5.45 15.4 5.45 L113.9 5.45" fill="url(#gradient1)" fill-rule="evenodd" stroke="none"/>
  </g>
  <defs>
    <radialGradient cx="0" cy="0" gradientTransform="matrix(0.0895, 0.0, 0.0, 0.0222, 65.8, 19.05)" gradientUnits="userSpaceOnUse" id="gradient0" r="819.2" spreadMethod="pad">
      <stop offset="0.0" stop-color="#5effff"/>
      <stop offset="0.10196078431372549" stop-color="#55efff"/>
      <stop offset="0.30196078431372547" stop-color="#3dc6ff"/>
      <stop offset="0.5764705882352941" stop-color="#1684ff"/>
      <stop offset="0.6745098039215687" stop-color="#086bff"/>
      <stop offset="0.7215686274509804" stop-color="#0a71ff"/>
      <stop offset="0.8352941176470589" stop-color="#0c7aff"/>
      <stop offset="1.0" stop-color="#0d7dff"/>
    </radialGradient>
    <linearGradient gradientTransform="matrix(0.0, -0.0086, 0.0086, 0.0, 64.75, 10.75)" gradientUnits="userSpaceOnUse" id="gradient1" spreadMethod="pad" x1="-819.2" x2="819.2">
      <stop offset="0.0" stop-color="#5ebdff" stop-opacity="0.0"/>
      <stop offset="0.7647058823529411" stop-color="#71aaff" stop-opacity="0.73333335"/>
      <stop offset="1.0" stop-color="#78a3ff"/>
    </linearGradient>
  </defs>
</svg>
