<?xml version="1.0" encoding="UTF-8" standalone="no"?>
<svg xmlns:ffdec="https://www.free-decompiler.com/flash" xmlns:xlink="http://www.w3.org/1999/xlink" ffdec:objectType="shape" height="27.9px" width="200.65px" xmlns="http://www.w3.org/2000/svg">
  <g transform="matrix(1.0, 0.0, 0.0, 1.0, 0.0, 0.0)">
    <path d="M200.65 19.9 Q200.65 21.15 200.05 22.65 199.4 24.15 198.55 25.0 L197.85 25.75 195.5 27.25 192.75 27.9 3.0 27.9 Q1.75 27.9 0.9 27.0 0.0 26.15 0.0 24.9 L0.0 10.6 Q0.0 9.35 0.65 7.85 1.25 6.35 2.15 5.55 L5.8 2.1 8.25 0.6 Q9.75 0.0 11.0 0.0 L197.65 0.0 Q198.9 0.0 199.75 0.9 200.65 1.75 200.65 3.0 L200.65 19.9" fill="url(#gradient0)" fill-rule="evenodd" stroke="none"/>
  </g>
  <defs>
    <linearGradient gradientTransform="matrix(0.1225, 0.0, 0.0, -0.1225, 100.35, 13.95)" gradientUnits="userSpaceOnUse" id="gradient0" spreadMethod="pad" x1="-819.2" x2="819.2">
      <stop offset="0.0" stop-color="#01285c"/>
      <stop offset="0.023529411764705882" stop-color="#012a60"/>
      <stop offset="0.22745098039215686" stop-color="#003c7c"/>
      <stop offset="0.403921568627451" stop-color="#00468e"/>
      <stop offset="0.5333333333333333" stop-color="#004a94"/>
      <stop offset="0.6470588235294118" stop-color="#00468d"/>
      <stop offset="0.8196078431372549" stop-color="#003978"/>
      <stop offset="1.0" stop-color="#01285c"/>
    </linearGradient>
  </defs>
</svg>
