<?xml version="1.0" encoding="UTF-8" standalone="no"?>
<svg xmlns:ffdec="https://www.free-decompiler.com/flash" xmlns:xlink="http://www.w3.org/1999/xlink" ffdec:objectType="shape" height="112.8px" width="303.8px" xmlns="http://www.w3.org/2000/svg">
  <g transform="matrix(1.0, 0.0, 0.0, 1.0, 0.0, 0.0)">
    <path d="M302.8 4.0 Q302.8 2.75 301.9 1.9 301.05 1.0 299.8 1.0 L4.0 1.0 Q2.75 1.0 1.9 1.9 1.0 2.75 1.0 4.0 L1.0 108.8 Q1.0 110.05 1.9 110.9 2.75 111.8 4.0 111.8 L299.8 111.8 Q301.05 111.8 301.9 110.9 302.8 110.05 302.8 108.8 L302.8 4.0 M288.55 14.3 Q289.8 14.3 290.65 15.2 291.55 16.05 291.55 17.3 L291.55 98.2 Q291.55 99.45 290.65 100.3 289.8 101.2 288.55 101.2 L14.25 101.2 Q13.0 101.2 12.15 100.3 11.25 99.45 11.25 98.2 L11.25 17.3 Q11.25 16.05 12.15 15.2 13.0 14.3 14.25 14.3 L288.55 14.3 M299.8 0.0 Q301.45 0.0 302.65 1.2 303.8 2.35 303.8 4.0 L303.8 108.8 Q303.8 110.45 302.65 111.65 301.45 112.8 299.8 112.8 L4.0 112.8 Q2.35 112.8 1.2 111.65 0.0 110.45 0.0 108.8 L0.0 4.0 Q0.0 2.35 1.2 1.2 2.35 0.0 4.0 0.0 L299.8 0.0 M290.55 17.3 Q290.55 16.5 289.95 15.9 289.4 15.3 288.55 15.3 L14.25 15.3 Q13.45 15.3 12.85 15.9 12.25 16.5 12.25 17.3 L12.25 98.2 Q12.25 99.05 12.85 99.6 13.45 100.2 14.25 100.2 L288.55 100.2 Q289.4 100.2 289.95 99.6 290.55 99.05 290.55 98.2 L290.55 17.3" fill="#00b7ff" fill-rule="evenodd" stroke="none"/>
  </g>
</svg>
