<?xml version="1.0" encoding="UTF-8" standalone="no"?>
<svg xmlns:ffdec="https://www.free-decompiler.com/flash" xmlns:xlink="http://www.w3.org/1999/xlink" ffdec:objectType="shape" height="101.5px" width="336.65px" xmlns="http://www.w3.org/2000/svg">
  <g transform="matrix(1.0, 0.0, 0.0, 1.0, -211.85, -196.1)">
    <path d="M536.6 208.4 Q538.0 208.4 538.95 209.3 539.95 210.15 539.95 211.4 L539.95 294.6 Q539.95 295.85 538.95 296.7 538.0 297.6 536.6 297.6 L225.2 297.6 Q223.8 297.6 222.85 296.7 221.85 295.85 221.85 294.6 L221.85 211.4 Q221.85 210.15 222.85 209.3 223.8 208.4 225.2 208.4 L536.6 208.4 M535.1 214.95 Q535.1 213.7 534.1 212.85 533.15 211.95 531.75 211.95 L228.8 211.95 Q227.4 211.95 226.45 212.85 225.45 213.7 225.45 214.95 L225.45 289.95 Q225.45 291.2 226.45 292.05 227.4 292.95 228.8 292.95 L531.75 292.95 Q533.15 292.95 534.1 292.05 535.1 291.2 535.1 289.95 L535.1 214.95" fill="#1e1e1e" fill-rule="evenodd" stroke="none"/>
    <path d="M220.35 223.05 L220.35 225.0 211.85 218.8 211.85 216.85 220.35 223.05" fill="#000000" fill-rule="evenodd" stroke="none"/>
    <path d="M220.35 227.35 L220.35 229.3 211.85 223.1 211.85 221.1 220.35 227.35" fill="#000000" fill-rule="evenodd" stroke="none"/>
    <path d="M220.35 231.65 L220.35 233.55 211.85 227.4 211.85 225.4 220.35 231.65" fill="#000000" fill-rule="evenodd" stroke="none"/>
    <path d="M220.35 235.9 L220.35 237.85 211.85 231.65 211.85 229.7 220.35 235.9" fill="#000000" fill-rule="evenodd" stroke="none"/>
    <path d="M220.35 240.2 L220.35 242.15 211.85 235.95 211.85 234.0 220.35 240.2" fill="#000000" fill-rule="evenodd" stroke="none"/>
    <path d="M220.35 244.5 L220.35 246.45 211.85 240.25 211.85 238.25 220.35 244.5" fill="#000000" fill-rule="evenodd" stroke="none"/>
    <path d="M547.4 216.85 L547.4 218.8 538.85 225.0 538.85 223.05 547.4 216.85" fill="#000000" fill-rule="evenodd" stroke="none"/>
    <path d="M547.4 221.1 L547.4 223.1 538.85 229.3 538.85 227.35 547.4 221.1" fill="#000000" fill-rule="evenodd" stroke="none"/>
    <path d="M547.4 225.4 L547.4 227.4 538.85 233.55 538.85 231.65 547.4 225.4" fill="#000000" fill-rule="evenodd" stroke="none"/>
    <path d="M547.4 229.7 L547.4 231.65 538.85 237.85 538.85 235.9 547.4 229.7" fill="#000000" fill-rule="evenodd" stroke="none"/>
    <path d="M547.4 234.0 L547.4 235.95 538.85 242.15 538.85 240.2 547.4 234.0" fill="#000000" fill-rule="evenodd" stroke="none"/>
    <path d="M547.4 238.25 L547.4 240.25 538.85 246.45 538.85 244.5 547.4 238.25" fill="#000000" fill-rule="evenodd" stroke="none"/>
    <path d="M220.35 281.6 L211.85 287.85 211.85 285.85 220.35 279.7 220.35 281.6" fill="#000000" fill-rule="evenodd" stroke="none"/>
    <path d="M220.35 277.35 L211.85 283.55 211.85 281.55 220.35 275.4 220.35 277.35" fill="#000000" fill-rule="evenodd" stroke="none"/>
    <path d="M220.35 273.05 L211.85 279.25 211.85 277.3 220.35 271.1 220.35 273.05" fill="#000000" fill-rule="evenodd" stroke="none"/>
    <path d="M220.35 268.75 L211.85 275.0 211.85 273.0 220.35 266.8 220.35 268.75" fill="#000000" fill-rule="evenodd" stroke="none"/>
    <path d="M220.35 264.45 L211.85 270.7 211.85 268.7 220.35 262.55 220.35 264.45" fill="#000000" fill-rule="evenodd" stroke="none"/>
    <path d="M220.35 260.2 L211.85 266.4 211.85 264.4 220.35 258.25 220.35 260.2" fill="#000000" fill-rule="evenodd" stroke="none"/>
    <path d="M539.95 279.7 L548.5 285.85 548.5 287.85 539.95 281.6 539.95 279.7" fill="#000000" fill-rule="evenodd" stroke="none"/>
    <path d="M539.95 275.4 L548.5 281.55 548.5 283.55 539.95 277.35 539.95 275.4" fill="#000000" fill-rule="evenodd" stroke="none"/>
    <path d="M539.95 271.1 L548.5 277.3 548.5 279.25 539.95 273.05 539.95 271.1" fill="#000000" fill-rule="evenodd" stroke="none"/>
    <path d="M539.95 266.8 L548.5 273.0 548.5 275.0 539.95 268.75 539.95 266.8" fill="#000000" fill-rule="evenodd" stroke="none"/>
    <path d="M539.95 262.55 L548.5 268.7 548.5 270.7 539.95 264.45 539.95 262.55" fill="#000000" fill-rule="evenodd" stroke="none"/>
    <path d="M539.95 258.25 L548.5 264.4 548.5 266.4 539.95 260.2 539.95 258.25" fill="#000000" fill-rule="evenodd" stroke="none"/>
    <path d="M546.05 196.1 L548.25 198.0 212.6 198.0 214.8 196.1 546.05 196.1" fill="url(#gradient0)" fill-rule="evenodd" stroke="none"/>
  </g>
  <defs>
    <linearGradient gradientTransform="matrix(0.2048, 0.0, 0.0, 0.1834, 380.45, 197.05)" gradientUnits="userSpaceOnUse" id="gradient0" spreadMethod="pad" x1="-819.2" x2="819.2">
      <stop offset="0.0" stop-color="#69defc" stop-opacity="0.2"/>
      <stop offset="0.07058823529411765" stop-color="#7fcfe5" stop-opacity="0.2784314"/>
      <stop offset="0.17647058823529413" stop-color="#99beca" stop-opacity="0.3764706"/>
      <stop offset="0.2823529411764706" stop-color="#abb2b7" stop-opacity="0.44313726"/>
      <stop offset="0.38823529411764707" stop-color="#b6aaac" stop-opacity="0.4862745"/>
      <stop offset="0.5019607843137255" stop-color="#baa8a8" stop-opacity="0.49803922"/>
      <stop offset="0.6313725490196078" stop-color="#b7aaab" stop-opacity="0.4862745"/>
      <stop offset="0.7333333333333333" stop-color="#adb0b5" stop-opacity="0.4509804"/>
      <stop offset="0.8274509803921568" stop-color="#9dbbc6" stop-opacity="0.39215687"/>
      <stop offset="0.9176470588235294" stop-color="#86cbde" stop-opacity="0.30588236"/>
      <stop offset="1.0" stop-color="#69defc" stop-opacity="0.2"/>
    </linearGradient>
  </defs>
</svg>
