<?xml version="1.0" encoding="UTF-8" standalone="no"?>
<svg xmlns:ffdec="https://www.free-decompiler.com/flash" xmlns:xlink="http://www.w3.org/1999/xlink" ffdec:objectType="shape" height="43.25px" width="43.25px" xmlns="http://www.w3.org/2000/svg">
  <g transform="matrix(1.0, 0.0, 0.0, 1.0, 0.0, 0.0)">
    <path d="M21.6 0.5 Q30.4 0.5 36.55 6.7 42.75 12.9 42.75 21.65 42.75 30.4 36.55 36.55 30.35 42.75 21.6 42.75 12.85 42.75 6.7 36.55 0.5 30.4 0.5 21.65 0.5 12.9 6.7 6.7 12.85 0.5 21.6 0.5 M37.7 21.65 Q37.7 16.65 34.8 12.45 L12.45 34.85 Q16.55 37.7 21.6 37.7 28.25 37.7 33.0 33.0 37.7 28.3 37.7 21.65 M31.0 8.6 Q26.75 5.55 21.6 5.55 14.95 5.55 10.25 10.25 5.55 15.0 5.55 21.65 5.55 26.95 8.6 31.0 L31.0 8.6" fill="#ff8c00" fill-rule="evenodd" stroke="none"/>
    <path d="M31.0 8.6 L8.6 31.0 Q5.55 26.95 5.55 21.65 5.55 15.0 10.25 10.25 14.95 5.55 21.6 5.55 26.75 5.55 31.0 8.6 M37.7 21.65 Q37.7 28.3 33.0 33.0 28.25 37.7 21.6 37.7 16.55 37.7 12.45 34.85 L34.8 12.45 Q37.7 16.65 37.7 21.65 M21.6 0.5 Q12.85 0.5 6.7 6.7 0.5 12.9 0.5 21.65 0.5 30.4 6.7 36.55 12.85 42.75 21.6 42.75 30.35 42.75 36.55 36.55 42.75 30.4 42.75 21.65 42.75 12.9 36.55 6.7 30.4 0.5 21.6 0.5 Z" fill="none" stroke="#fff000" stroke-linecap="butt" stroke-linejoin="miter-clip" stroke-miterlimit="4.0" stroke-width="1.0"/>
  </g>
</svg>
