<?xml version="1.0" encoding="UTF-8" standalone="no"?>
<svg xmlns:ffdec="https://www.free-decompiler.com/flash" xmlns:xlink="http://www.w3.org/1999/xlink" ffdec:objectType="shape" height="124.15px" width="170.8px" xmlns="http://www.w3.org/2000/svg">
  <g transform="matrix(1.0, 0.0, 0.0, 1.0, -47.55, 0.0)">
    <path d="M69.55 3.6 L72.95 3.6 72.95 2.55 71.7 2.55 71.15 2.15 74.15 2.15 74.15 3.3 73.1 4.1 69.4 4.1 68.35 3.3 68.35 1.35 69.4 0.55 73.95 0.55 73.3 1.05 69.55 1.05 69.55 3.6" fill="#78e6ff" fill-rule="evenodd" stroke="none"/>
    <path d="M82.35 1.05 L78.7 1.05 78.7 2.5 82.35 2.5 82.35 1.05 M82.35 2.95 L78.7 2.95 78.7 4.15 77.45 4.65 77.45 1.35 78.55 0.55 82.5 0.55 83.55 1.35 83.55 4.1 82.35 4.1 82.35 2.95" fill="#78e6ff" fill-rule="evenodd" stroke="none"/>
    <path d="M86.9 4.1 L86.9 0.5 88.1 0.0 88.1 3.6 92.3 3.6 91.65 4.1 86.9 4.1" fill="#78e6ff" fill-rule="evenodd" stroke="none"/>
    <path d="M96.5 2.5 L100.2 2.5 100.2 1.05 96.5 1.05 96.5 2.5 M96.5 4.15 L95.3 4.65 95.3 1.35 96.4 0.55 100.35 0.55 101.4 1.35 101.4 4.1 100.2 4.1 100.2 2.95 96.5 2.95 96.5 4.15" fill="#78e6ff" fill-rule="evenodd" stroke="none"/>
    <path d="M110.0 0.55 L111.2 0.55 108.8 2.35 111.2 4.1 110.0 4.1 108.2 2.75 106.4 4.1 105.15 4.1 107.55 2.35 105.15 0.55 106.4 0.55 108.2 1.85 110.0 0.55" fill="#78e6ff" fill-rule="evenodd" stroke="none"/>
    <path d="M117.55 2.35 L115.1 0.55 116.35 0.55 118.15 1.9 119.95 0.55 121.15 0.55 118.75 2.35 118.75 4.15 117.55 4.65 117.55 2.35" fill="#78e6ff" fill-rule="evenodd" stroke="none"/>
    <path d="M150.1 3.6 L154.15 3.6 154.15 1.05 150.1 1.05 150.1 3.6 M149.95 0.55 L154.3 0.55 155.35 1.35 155.35 3.3 154.3 4.1 149.95 4.1 148.85 3.3 148.85 1.35 149.95 0.55" fill="#78e6ff" fill-rule="evenodd" stroke="none"/>
    <path d="M159.95 0.55 L160.85 0.55 165.0 3.05 165.0 0.55 166.2 0.55 166.2 4.1 165.25 4.1 161.15 1.65 161.15 4.15 159.95 4.65 159.95 0.55" fill="#78e6ff" fill-rule="evenodd" stroke="none"/>
    <path d="M170.15 4.1 L170.15 0.5 171.4 0.0 171.4 3.6 175.6 3.6 174.95 4.1 170.15 4.1" fill="#78e6ff" fill-rule="evenodd" stroke="none"/>
    <path d="M179.9 0.55 L181.1 0.55 181.1 4.15 179.9 4.65 179.9 0.55" fill="#78e6ff" fill-rule="evenodd" stroke="none"/>
    <path d="M185.75 0.55 L186.65 0.55 190.8 3.05 190.8 0.55 192.0 0.55 192.0 4.1 191.05 4.1 186.95 1.65 186.95 4.15 185.75 4.65 185.75 0.55" fill="#78e6ff" fill-rule="evenodd" stroke="none"/>
    <path d="M200.95 1.05 L197.2 1.05 197.2 2.15 200.8 2.15 200.25 2.55 197.2 2.55 197.2 3.6 201.4 3.6 200.75 4.1 195.95 4.1 195.95 0.55 201.55 0.55 200.95 1.05" fill="#78e6ff" fill-rule="evenodd" stroke="none"/>
    <path d="M217.85 120.65 Q217.85 121.9 216.95 122.75 216.1 123.65 214.85 123.65 L51.05 123.65 Q49.8 123.65 48.95 122.75 48.05 121.9 48.05 120.65 L48.05 106.75 Q48.05 105.5 48.95 104.65 49.8 103.75 51.05 103.75 L214.85 103.75 Q216.1 103.75 216.95 104.65 217.85 105.5 217.85 106.75 L217.85 120.65" fill="url(#gradient0)" fill-rule="evenodd" stroke="none"/>
    <path d="M217.85 120.65 Q217.85 121.9 216.95 122.75 216.1 123.65 214.85 123.65 L51.05 123.65 Q49.8 123.65 48.95 122.75 48.05 121.9 48.05 120.65 L48.05 106.75 Q48.05 105.5 48.95 104.65 49.8 103.75 51.05 103.75 L214.85 103.75 Q216.1 103.75 216.95 104.65 217.85 105.5 217.85 106.75 L217.85 120.65 Z" fill="none" stroke="#005eb5" stroke-linecap="butt" stroke-linejoin="miter-clip" stroke-miterlimit="4.0" stroke-width="1.0"/>
  </g>
  <defs>
    <linearGradient gradientTransform="matrix(0.0, -0.0121, -0.0121, 0.0, 132.95, 113.7)" gradientUnits="userSpaceOnUse" id="gradient0" spreadMethod="pad" x1="-819.2" x2="819.2">
      <stop offset="0.0" stop-color="#053363"/>
      <stop offset="0.058823529411764705" stop-color="#042a56"/>
      <stop offset="0.17647058823529413" stop-color="#021e45"/>
      <stop offset="0.3215686274509804" stop-color="#011539"/>
      <stop offset="0.5137254901960784" stop-color="#001032"/>
      <stop offset="1.0" stop-color="#000f30"/>
    </linearGradient>
  </defs>
</svg>
