<?xml version="1.0" encoding="UTF-8" standalone="no"?>
<svg xmlns:ffdec="https://www.free-decompiler.com/flash" xmlns:xlink="http://www.w3.org/1999/xlink" ffdec:objectType="shape" height="155.0px" width="338.3px" xmlns="http://www.w3.org/2000/svg">
  <g transform="matrix(1.0, 0.0, 0.0, 1.0, 0.0, 0.0)">
    <path d="M338.25 150.0 Q338.45 152.05 337.1 153.55 335.75 155.0 333.7 155.0 L4.65 155.0 Q2.6 155.0 1.2 153.55 -0.15 152.05 0.0 150.0 L10.2 5.0 Q10.35 2.95 11.9 1.45 13.5 0.0 15.55 0.0 L319.35 0.0 Q321.4 0.0 323.0 1.45 324.6 2.9 324.8 4.95 L338.25 150.0 M332.45 150.7 Q334.5 150.7 335.85 149.25 337.2 147.8 336.95 145.75 L323.6 6.6 Q323.4 4.55 321.8 3.05 320.15 1.6 318.1 1.6 L16.8 1.6 Q14.75 1.6 13.15 3.05 11.6 4.55 11.45 6.6 L1.25 145.75 Q1.1 147.8 2.45 149.25 3.8 150.7 5.85 150.7 L64.2 150.7 68.2 151.0 Q70.1 151.35 70.8 151.75 71.45 152.2 73.35 152.5 L77.35 152.8 262.35 152.8 266.35 152.5 Q268.25 152.2 268.9 151.75 L271.5 151.0 275.5 150.7 332.45 150.7" fill="url(#gradient0)" fill-rule="evenodd" stroke="none"/>
  </g>
  <defs>
    <linearGradient gradientTransform="matrix(0.0, -0.0946, -0.0946, 0.0, 169.1, 77.5)" gradientUnits="userSpaceOnUse" id="gradient0" spreadMethod="pad" x1="-819.2" x2="819.2">
      <stop offset="0.0" stop-color="#0166d4"/>
      <stop offset="0.39215686274509803" stop-color="#0268d5"/>
      <stop offset="0.5764705882352941" stop-color="#0770d9"/>
      <stop offset="0.7215686274509804" stop-color="#0e7de0"/>
      <stop offset="0.8431372549019608" stop-color="#188fea"/>
      <stop offset="0.9490196078431372" stop-color="#26a7f7"/>
      <stop offset="1.0" stop-color="#2eb5ff"/>
    </linearGradient>
  </defs>
</svg>
