<?xml version="1.0" encoding="UTF-8" standalone="no"?>
<svg xmlns:ffdec="https://www.free-decompiler.com/flash" xmlns:xlink="http://www.w3.org/1999/xlink" ffdec:objectType="shape" height="14.4px" width="14.45px" xmlns="http://www.w3.org/2000/svg">
  <g transform="matrix(1.0, 0.0, 0.0, 1.0, -3.95, -3.55)">
    <path d="M18.15 10.75 Q18.15 13.65 16.1 15.65 14.05 17.7 11.2 17.7 8.3 17.7 6.25 15.65 4.2 13.65 4.2 10.75 4.2 7.85 6.25 5.85 8.3 3.8 11.2 3.8 14.05 3.8 16.1 5.85 18.15 7.85 18.15 10.75" fill="url(#gradient0)" fill-rule="evenodd" stroke="none"/>
    <path d="M18.15 10.75 Q18.15 13.65 16.1 15.65 14.05 17.7 11.2 17.7 8.3 17.7 6.25 15.65 4.2 13.65 4.2 10.75 4.2 7.85 6.25 5.85 8.3 3.8 11.2 3.8 14.05 3.8 16.1 5.85 18.15 7.85 18.15 10.75 Z" ffdec:has-small-stroke="true" ffdec:original-stroke-width="0.5" fill="none" stroke="#00ffff" stroke-linecap="butt" stroke-linejoin="miter-clip" stroke-miterlimit="4.0" stroke-opacity="0.5294118" stroke-width="1.0"/>
  </g>
  <defs>
    <radialGradient cx="0" cy="0" gradientTransform="matrix(0.0085, 0.0, 0.0, -0.0085, 11.2, 10.75)" gradientUnits="userSpaceOnUse" id="gradient0" r="819.2" spreadMethod="pad">
      <stop offset="0.0" stop-color="#265cff"/>
      <stop offset="0.3058823529411765" stop-color="#255fff"/>
      <stop offset="0.5019607843137255" stop-color="#2167ff"/>
      <stop offset="0.6705882352941176" stop-color="#1a76ff"/>
      <stop offset="0.8196078431372549" stop-color="#118bff"/>
      <stop offset="0.9568627450980393" stop-color="#04a6ff"/>
      <stop offset="1.0" stop-color="#00b0ff"/>
    </radialGradient>
  </defs>
</svg>
