<?xml version="1.0" encoding="UTF-8" standalone="no"?>
<svg xmlns:ffdec="https://www.free-decompiler.com/flash" xmlns:xlink="http://www.w3.org/1999/xlink" ffdec:objectType="shape" height="21.7px" width="153.9px" xmlns="http://www.w3.org/2000/svg">
  <g transform="matrix(1.0, 0.0, 0.0, 1.0, 87.55, 210.65)">
    <path d="M47.3 -189.95 L64.5 -189.95 Q65.0 -189.95 65.35 -190.55 65.7 -191.1 65.7 -191.95 L65.7 -207.65 Q65.7 -208.45 65.35 -209.05 65.0 -209.65 64.5 -209.65 L47.3 -209.65 -34.3 -209.65 -85.7 -209.65 -86.55 -209.05 Q-86.95 -208.45 -86.95 -207.65 L-86.95 -191.95 Q-86.95 -191.1 -86.55 -190.55 L-85.7 -189.95 -34.3 -189.95 47.3 -189.95 M65.8 -209.75 Q66.35 -208.9 66.35 -207.65 L66.35 -191.95 Q66.35 -190.7 65.8 -189.85 65.25 -188.95 64.5 -188.95 L-85.7 -188.95 Q-86.45 -188.95 -87.0 -189.85 -87.55 -190.7 -87.55 -191.95 L-87.55 -207.65 Q-87.55 -208.9 -87.0 -209.75 -86.45 -210.65 -85.7 -210.65 L64.5 -210.65 Q65.25 -210.65 65.8 -209.75" fill="#0c75ba" fill-rule="evenodd" stroke="none"/>
    <path d="M-34.3 -189.95 L-85.7 -189.95 -86.55 -190.55 Q-86.95 -191.1 -86.95 -191.95 L-86.95 -207.65 Q-86.95 -208.45 -86.55 -209.05 L-85.7 -209.65 -34.3 -209.65 -34.3 -189.95" fill="url(#gradient0)" fill-rule="evenodd" stroke="none"/>
    <path d="M47.3 -209.65 L64.5 -209.65 Q65.0 -209.65 65.35 -209.05 65.7 -208.45 65.7 -207.65 L65.7 -191.95 Q65.7 -191.1 65.35 -190.55 65.0 -189.95 64.5 -189.95 L47.3 -189.95 47.3 -209.65" fill="url(#gradient1)" fill-rule="evenodd" stroke="none"/>
    <path d="M47.3 -189.95 L-34.3 -189.95 -34.3 -209.65 47.3 -209.65 47.3 -189.95" fill="url(#gradient2)" fill-rule="evenodd" stroke="none"/>
  </g>
  <defs>
    <linearGradient gradientTransform="matrix(0.0, -0.0126, -0.0078, 0.0, -45.65, -199.8)" gradientUnits="userSpaceOnUse" id="gradient0" spreadMethod="pad" x1="-819.2" x2="819.2">
      <stop offset="0.0" stop-color="#004a82"/>
      <stop offset="0.5803921568627451" stop-color="#00367d"/>
      <stop offset="1.0" stop-color="#002d7b"/>
    </linearGradient>
    <linearGradient gradientTransform="matrix(0.0, -0.0126, -0.0078, 0.0, 15.85, -199.8)" gradientUnits="userSpaceOnUse" id="gradient1" spreadMethod="pad" x1="-819.2" x2="819.2">
      <stop offset="0.0" stop-color="#004a82"/>
      <stop offset="0.5803921568627451" stop-color="#00367d"/>
      <stop offset="1.0" stop-color="#002d7b"/>
    </linearGradient>
    <linearGradient gradientTransform="matrix(0.0, -0.0126, -0.0458, 0.0, -100.9, -199.8)" gradientUnits="userSpaceOnUse" id="gradient2" spreadMethod="pad" x1="-819.2" x2="819.2">
      <stop offset="0.0" stop-color="#004a82"/>
      <stop offset="0.5803921568627451" stop-color="#00367d"/>
      <stop offset="1.0" stop-color="#002d7b"/>
    </linearGradient>
  </defs>
</svg>
