<?xml version="1.0" encoding="UTF-8" standalone="no"?>
<svg xmlns:ffdec="https://www.free-decompiler.com/flash" xmlns:xlink="http://www.w3.org/1999/xlink" ffdec:objectType="shape" height="17.5px" width="30.85px" xmlns="http://www.w3.org/2000/svg">
  <g transform="matrix(1.0, 0.0, 0.0, 1.0, 3.05, -0.4)">
    <path d="M24.0 17.4 L0.05 17.4 -2.45 14.95 6.8 0.9 17.35 0.9 27.15 14.95 24.0 17.4" fill="url(#gradient0)" fill-rule="evenodd" stroke="none"/>
    <path d="M24.0 17.4 L0.05 17.4 -2.45 14.95 6.8 0.9 17.35 0.9 27.15 14.95 24.0 17.4 Z" fill="none" stroke="#736357" stroke-linecap="butt" stroke-linejoin="miter-clip" stroke-miterlimit="4.0" stroke-width="1.0"/>
    <path d="M20.45 15.45 L3.4 15.45 1.2 13.25 8.1 2.9 15.85 2.9 23.1 12.8 20.45 15.45" fill="#000102" fill-rule="evenodd" stroke="none"/>
    <path d="M10.75 8.75 L15.25 8.75 15.25 6.55 10.5 6.55 9.3 8.05 6.05 8.05 8.7 4.55 14.15 4.6 Q15.5 4.6 16.35 5.2 17.25 5.85 17.25 7.1 L17.25 8.2 Q17.25 9.4 16.45 9.95 15.65 10.45 14.1 10.45 L12.35 10.45 12.35 11.3 9.85 9.95 10.75 8.75 M12.35 15.15 L9.9 13.85 9.9 11.35 12.35 12.65 12.35 15.15" fill="#129fff" fill-rule="evenodd" stroke="none"/>
  </g>
  <defs>
    <linearGradient gradientTransform="matrix(0.0, -0.0101, 0.0101, 0.0, 12.35, 9.15)" gradientUnits="userSpaceOnUse" id="gradient0" spreadMethod="pad" x1="-819.2" x2="819.2">
      <stop offset="0.0" stop-color="#242424"/>
      <stop offset="1.0" stop-color="#505050"/>
    </linearGradient>
  </defs>
</svg>
