<?xml version="1.0" encoding="UTF-8" standalone="no"?>
<svg xmlns:ffdec="https://www.free-decompiler.com/flash" xmlns:xlink="http://www.w3.org/1999/xlink" ffdec:objectType="shape" height="17.0px" width="70.1px" xmlns="http://www.w3.org/2000/svg">
  <g transform="matrix(1.0, 0.0, 0.0, 1.0, 1.35, 1.0)">
    <path d="M17.4 3.15 L14.65 11.8 Q13.65 14.85 10.6 14.85 L0.0 14.85 2.8 6.0 6.25 6.0 4.4 11.85 11.25 11.85 14.0 3.15 7.1 3.15 Q3.65 3.15 4.55 0.4 L4.7 0.0 15.3 0.0 Q18.4 0.0 17.4 3.15" fill="#00ff00" fill-rule="evenodd" stroke="none"/>
    <path d="M17.5 14.4 Q16.75 14.85 15.4 14.85 L15.05 14.85 19.75 0.0 30.35 0.0 Q33.45 0.0 32.45 3.15 L31.55 5.95 Q30.6 8.9 27.65 9.05 L29.05 14.9 24.95 14.9 22.9 5.9 28.2 5.9 29.05 3.15 22.15 3.15 19.55 11.35 Q18.85 13.6 17.5 14.4" fill="#00ff00" fill-rule="evenodd" stroke="none"/>
    <path d="M36.4 8.3 L43.35 8.3 44.95 3.15 38.05 3.15 36.4 8.3 M35.3 1.8 Q36.6 0.0 38.65 0.0 L46.25 0.0 Q49.35 0.0 48.35 3.1 L45.55 11.9 44.9 13.25 Q43.55 14.9 41.3 14.9 L42.8 10.0 35.85 10.0 34.4 14.9 Q33.1 14.9 32.35 14.3 31.4 13.5 31.9 11.85 L35.3 1.8" fill="#00ff00" fill-rule="evenodd" stroke="none"/>
    <path d="M58.9 5.95 L57.0 11.85 60.2 11.85 63.0 3.05 Q63.95 0.0 67.0 0.0 L67.4 0.0 63.6 11.85 Q62.7 14.85 59.6 14.85 L49.1 14.85 Q45.95 14.85 46.95 11.85 L50.7 0.0 51.1 0.0 52.25 0.1 Q54.0 0.45 53.2 3.1 L50.45 11.85 53.55 11.85 56.45 2.75 56.85 2.75 57.95 2.9 Q59.75 3.35 58.9 5.95" fill="url(#gradient0)" fill-rule="evenodd" stroke="none"/>
    <path d="M17.4 3.15 L14.65 11.8 Q13.65 14.85 10.6 14.85 L0.0 14.85 2.8 6.0 6.25 6.0 4.4 11.85 11.25 11.85 14.0 3.15 7.1 3.15 Q3.65 3.15 4.55 0.4 L4.7 0.0 15.3 0.0 Q18.4 0.0 17.4 3.15 Z" fill="none" stroke="#066d06" stroke-linecap="butt" stroke-linejoin="miter-clip" stroke-miterlimit="4.0" stroke-width="2.0"/>
    <path d="M17.5 14.4 Q16.75 14.85 15.4 14.85 L15.05 14.85 19.75 0.0 30.35 0.0 Q33.45 0.0 32.45 3.15 L31.55 5.95 Q30.6 8.9 27.65 9.05 L29.05 14.9 24.95 14.9 22.9 5.9 28.2 5.9 29.05 3.15 22.15 3.15 19.55 11.35 Q18.85 13.6 17.5 14.4 Z" fill="none" stroke="#066d06" stroke-linecap="butt" stroke-linejoin="miter-clip" stroke-miterlimit="4.0" stroke-width="2.0"/>
    <path d="M35.3 1.8 L31.9 11.85 Q31.4 13.5 32.35 14.3 33.1 14.9 34.4 14.9 L35.85 10.0 42.8 10.0 41.3 14.9 Q43.55 14.9 44.9 13.25 L45.55 11.9 48.35 3.1 Q49.35 0.0 46.25 0.0 L38.65 0.0 Q36.6 0.0 35.3 1.8 M36.4 8.3 L38.05 3.15 44.95 3.15 43.35 8.3 36.4 8.3 Z" fill="none" stroke="#066d06" stroke-linecap="butt" stroke-linejoin="miter-clip" stroke-miterlimit="4.0" stroke-width="2.0"/>
    <path d="M58.9 5.95 L57.0 11.85 60.2 11.85 63.0 3.05 Q63.95 0.0 67.0 0.0 L67.4 0.0 63.6 11.85 Q62.7 14.85 59.6 14.85 L49.1 14.85 Q45.95 14.85 46.95 11.85 L50.7 0.0 51.1 0.0 52.25 0.1 Q54.0 0.45 53.2 3.1 L50.45 11.85 53.55 11.85 56.45 2.75 56.85 2.75 57.95 2.9 Q59.75 3.35 58.9 5.95 Z" fill="none" stroke="#066d06" stroke-linecap="butt" stroke-linejoin="miter-clip" stroke-miterlimit="4.0" stroke-width="2.0"/>
    <path d="M17.4 3.15 L14.65 11.8 Q13.65 14.85 10.6 14.85 L0.0 14.85 2.8 6.0 6.25 6.0 4.4 11.85 11.25 11.85 14.0 3.15 7.1 3.15 Q3.65 3.15 4.55 0.4 L4.7 0.0 15.3 0.0 Q18.4 0.0 17.4 3.15" fill="url(#gradient1)" fill-rule="evenodd" stroke="none"/>
    <path d="M17.5 14.4 Q16.75 14.85 15.4 14.85 L15.05 14.85 19.75 0.0 30.35 0.0 Q33.45 0.0 32.45 3.15 L31.55 5.95 Q30.6 8.9 27.65 9.05 L29.05 14.9 24.95 14.9 22.9 5.9 28.2 5.9 29.05 3.15 22.15 3.15 19.55 11.35 Q18.85 13.6 17.5 14.4" fill="url(#gradient2)" fill-rule="evenodd" stroke="none"/>
    <path d="M36.4 8.3 L43.35 8.3 44.95 3.15 38.05 3.15 36.4 8.3 M35.3 1.8 Q36.6 0.0 38.65 0.0 L46.25 0.0 Q49.35 0.0 48.35 3.1 L45.55 11.9 44.9 13.25 Q43.55 14.9 41.3 14.9 L42.8 10.0 35.85 10.0 34.4 14.9 Q33.1 14.9 32.35 14.3 31.4 13.5 31.9 11.85 L35.3 1.8" fill="url(#gradient3)" fill-rule="evenodd" stroke="none"/>
    <path d="M58.9 5.95 L57.0 11.85 60.2 11.85 63.0 3.05 Q63.95 0.0 67.0 0.0 L67.4 0.0 63.6 11.85 Q62.7 14.85 59.6 14.85 L49.1 14.85 Q45.95 14.85 46.95 11.85 L50.7 0.0 51.1 0.0 52.25 0.1 Q54.0 0.45 53.2 3.1 L50.45 11.85 53.55 11.85 56.45 2.75 56.85 2.75 57.95 2.9 Q59.75 3.35 58.9 5.95" fill="url(#gradient4)" fill-rule="evenodd" stroke="none"/>
  </g>
  <defs>
    <linearGradient gradientTransform="matrix(0.0126, 0.0, 0.0, -0.0126, 57.05, 7.45)" gradientUnits="userSpaceOnUse" id="gradient0" spreadMethod="pad" x1="-819.2" x2="819.2">
      <stop offset="0.0" stop-color="#00ff00"/>
      <stop offset="0.09019607843137255" stop-color="#00ff00"/>
      <stop offset="0.7490196078431373" stop-color="#00ff00"/>
      <stop offset="1.0" stop-color="#00ff00"/>
    </linearGradient>
    <linearGradient gradientTransform="matrix(0.0, -0.0091, -0.0091, 0.0, 33.7, 7.45)" gradientUnits="userSpaceOnUse" id="gradient1" spreadMethod="pad" x1="-819.2" x2="819.2">
      <stop offset="0.0" stop-color="#1bb500"/>
      <stop offset="0.1843137254901961" stop-color="#20b900"/>
      <stop offset="0.4" stop-color="#2ec500"/>
      <stop offset="0.6235294117647059" stop-color="#45d900"/>
      <stop offset="0.8588235294117647" stop-color="#65f500"/>
      <stop offset="0.9333333333333333" stop-color="#70ff00"/>
      <stop offset="1.0" stop-color="#1bc500"/>
    </linearGradient>
    <linearGradient gradientTransform="matrix(0.0, -0.0091, -0.0091, 0.0, 33.7, 7.45)" gradientUnits="userSpaceOnUse" id="gradient2" spreadMethod="pad" x1="-819.2" x2="819.2">
      <stop offset="0.0" stop-color="#1bb500"/>
      <stop offset="0.1843137254901961" stop-color="#20b900"/>
      <stop offset="0.4" stop-color="#2ec500"/>
      <stop offset="0.6235294117647059" stop-color="#45d900"/>
      <stop offset="0.8588235294117647" stop-color="#65f500"/>
      <stop offset="0.9333333333333333" stop-color="#70ff00"/>
      <stop offset="1.0" stop-color="#1bc500"/>
    </linearGradient>
    <linearGradient gradientTransform="matrix(0.0, -0.0091, -0.0091, 0.0, 33.7, 7.45)" gradientUnits="userSpaceOnUse" id="gradient3" spreadMethod="pad" x1="-819.2" x2="819.2">
      <stop offset="0.0" stop-color="#1bb500"/>
      <stop offset="0.1843137254901961" stop-color="#20b900"/>
      <stop offset="0.4" stop-color="#2ec500"/>
      <stop offset="0.6235294117647059" stop-color="#45d900"/>
      <stop offset="0.8588235294117647" stop-color="#65f500"/>
      <stop offset="0.9333333333333333" stop-color="#70ff00"/>
      <stop offset="1.0" stop-color="#1bc500"/>
    </linearGradient>
    <linearGradient gradientTransform="matrix(0.0, -0.0091, -0.0091, 0.0, 33.7, 7.45)" gradientUnits="userSpaceOnUse" id="gradient4" spreadMethod="pad" x1="-819.2" x2="819.2">
      <stop offset="0.0" stop-color="#1bb500"/>
      <stop offset="0.1843137254901961" stop-color="#20b900"/>
      <stop offset="0.4" stop-color="#2ec500"/>
      <stop offset="0.6235294117647059" stop-color="#45d900"/>
      <stop offset="0.8588235294117647" stop-color="#65f500"/>
      <stop offset="0.9333333333333333" stop-color="#70ff00"/>
      <stop offset="1.0" stop-color="#1bc500"/>
    </linearGradient>
  </defs>
</svg>
