<?xml version="1.0" encoding="UTF-8" standalone="no"?>
<svg xmlns:ffdec="https://www.free-decompiler.com/flash" xmlns:xlink="http://www.w3.org/1999/xlink" ffdec:objectType="shape" height="41.5px" width="36.85px" xmlns="http://www.w3.org/2000/svg">
  <g transform="matrix(1.0, 0.0, 0.0, 1.0, 0.0, 0.0)">
    <path d="M10.35 2.75 Q14.9 0.1 20.15 0.0 L20.15 1.2 20.2 1.2 20.15 3.1 Q15.7 3.25 11.9 5.45 7.9 7.75 5.55 11.7 3.2 15.65 3.1 20.25 3.0 24.65 5.0 28.65 L2.25 30.15 Q-0.1 25.45 0.0 20.2 0.1 14.75 2.9 10.1 5.65 5.4 10.35 2.75" fill="#f44b00" fill-rule="evenodd" stroke="none"/>
    <path d="M6.1 30.6 Q8.3 33.9 11.7 35.9 16.3 38.65 21.65 38.35 26.85 38.05 31.05 35.0 L35.75 35.0 Q30.8 40.2 23.65 41.25 16.45 42.3 10.15 38.6 6.1 36.2 3.45 32.2 L4.55 31.55 4.5 31.5 6.1 30.6" fill="#f44b00" fill-rule="evenodd" stroke="none"/>
    <path d="M36.85 7.7 L32.65 7.7 29.7 5.5 Q26.35 3.55 22.4 3.15 L22.4 1.25 22.5 1.3 22.5 0.05 Q27.3 0.45 31.3 2.85 34.55 4.75 36.85 7.7" fill="#f44b00" fill-rule="evenodd" stroke="none"/>
  </g>
</svg>
