<?xml version="1.0" encoding="UTF-8" standalone="no"?>
<svg xmlns:ffdec="https://www.free-decompiler.com/flash" xmlns:xlink="http://www.w3.org/1999/xlink" ffdec:objectType="shape" height="21.35px" width="11.55px" xmlns="http://www.w3.org/2000/svg">
  <g transform="matrix(1.0, 0.0, 0.0, 1.0, 0.0, 0.0)">
    <path d="M0.3 5.45 Q0.3 3.2 1.9 1.6 3.5 0.0 5.75 0.0 8.05 0.0 9.6 1.6 11.2 3.2 11.2 5.45 11.2 7.7 9.6 9.3 8.05 10.9 5.75 10.9 3.5 10.9 1.9 9.3 0.3 7.7 0.3 5.45" fill="#61d2ff" fill-rule="evenodd" stroke="none"/>
    <path d="M0.0 21.35 Q0.05 17.65 1.7 15.1 3.4 12.5 5.75 12.5 8.1 12.5 9.8 15.1 11.5 17.7 11.55 21.35 L0.0 21.35" fill="#61d2ff" fill-rule="evenodd" stroke="none"/>
  </g>
</svg>
