<?xml version="1.0" encoding="UTF-8" standalone="no"?>
<svg xmlns:ffdec="https://www.free-decompiler.com/flash" xmlns:xlink="http://www.w3.org/1999/xlink" ffdec:objectType="shape" height="60.7px" width="60.7px" xmlns="http://www.w3.org/2000/svg">
  <g transform="matrix(1.0, 0.0, 0.0, 1.0, 0.0, 0.0)">
    <path d="M56.7 0.5 Q58.15 0.5 59.2 1.55 60.2 2.55 60.2 4.0 L60.2 20.2 Q60.2 23.45 59.3 24.1 L59.0 25.1 58.8 27.2 58.8 33.65 Q58.8 36.1 59.3 36.75 60.2 37.35 60.2 40.6 L60.2 56.7 Q60.2 58.15 59.2 59.2 58.15 60.2 56.7 60.2 L40.5 60.2 Q37.2 60.2 36.6 59.3 36.1 58.8 33.55 58.8 L27.1 58.8 24.95 59.0 24.0 59.3 Q23.3 60.2 20.05 60.2 L4.0 60.2 Q2.55 60.2 1.55 59.2 0.5 58.15 0.5 56.7 L0.5 40.55 Q0.5 39.65 0.65 38.8 0.85 37.1 1.4 36.7 1.85 36.25 1.85 33.65 L1.85 27.2 Q1.85 24.65 1.35 24.15 0.85 23.8 0.65 22.05 L0.5 20.3 0.5 4.0 Q0.5 2.6 1.55 1.55 2.6 0.5 4.0 0.5 L20.05 0.5 Q23.3 0.5 24.0 1.4 24.4 1.9 27.1 1.9 L33.55 1.9 Q36.1 1.9 36.6 1.4 37.0 0.85 38.7 0.6 L40.5 0.5 56.7 0.5" fill="#133256" fill-rule="evenodd" stroke="none"/>
    <path d="M40.5 0.0 L56.7 0.0 Q58.35 0.0 59.55 1.2 60.7 2.35 60.7 4.0 L60.7 20.2 Q60.7 23.55 59.7 24.45 59.3 25.25 59.3 27.2 L59.3 33.65 Q59.3 35.6 59.7 36.4 60.7 37.3 60.7 40.6 L60.7 56.7 Q60.7 58.35 59.55 59.55 58.35 60.7 56.7 60.7 L40.5 60.7 Q37.15 60.7 36.25 59.65 L33.55 59.3 27.1 59.3 24.3 59.7 Q23.4 60.7 20.05 60.7 L4.0 60.7 Q2.35 60.7 1.2 59.55 0.0 58.35 0.0 56.7 L0.0 40.55 Q0.0 37.3 1.0 36.4 1.35 35.35 1.35 33.65 L1.35 27.2 Q1.35 25.25 0.95 24.45 0.0 23.5 0.0 20.3 L0.0 4.0 Q0.0 2.35 1.2 1.2 2.35 0.0 4.0 0.0 L20.05 0.0 Q23.35 0.0 24.3 1.05 L27.1 1.4 33.55 1.4 36.25 1.05 Q37.2 0.0 40.5 0.0 M56.7 1.0 L40.5 1.0 38.25 1.2 Q37.25 1.4 37.0 1.7 36.8 2.0 35.8 2.2 L33.55 2.4 27.1 2.4 24.85 2.2 Q23.8 2.0 23.6 1.7 23.4 1.4 22.35 1.2 L20.05 1.0 4.0 1.0 Q2.75 1.0 1.9 1.9 1.0 2.75 1.0 4.0 L1.0 20.3 Q1.0 23.3 1.7 23.75 2.35 24.2 2.35 27.2 L2.35 33.65 Q2.35 36.65 1.7 37.1 1.0 37.55 1.0 40.55 L1.0 56.7 Q1.0 57.95 1.9 58.8 2.75 59.7 4.0 59.7 L20.05 59.7 Q23.1 59.7 23.6 59.0 23.8 58.7 24.85 58.5 L27.1 58.3 33.55 58.3 35.8 58.5 Q36.8 58.7 37.0 59.0 37.55 59.7 40.5 59.7 L56.7 59.7 Q57.95 59.7 58.8 58.8 59.7 57.95 59.7 56.7 L59.7 40.6 Q59.7 37.6 59.0 37.15 58.3 36.7 58.3 33.65 L58.3 27.2 Q58.3 24.25 59.0 23.7 59.7 23.25 59.7 20.2 L59.7 4.0 Q59.7 2.75 58.8 1.9 57.95 1.0 56.7 1.0" fill="#0071bc" fill-rule="evenodd" stroke="none"/>
  </g>
</svg>
