<?xml version="1.0" encoding="UTF-8" standalone="no"?>
<svg xmlns:ffdec="https://www.free-decompiler.com/flash" xmlns:xlink="http://www.w3.org/1999/xlink" ffdec:objectType="shape" height="568.85px" width="694.3px" xmlns="http://www.w3.org/2000/svg">
  <g transform="matrix(1.0, 0.0, 0.0, 1.0, 0.0, 0.0)">
    <path d="M692.6 18.4 Q693.3 19.45 693.8 21.0 694.3 22.65 694.3 23.85 L694.3 554.85 Q694.3 556.1 693.4 557.0 692.55 557.85 691.3 557.85 L193.25 557.85 190.5 558.45 Q188.95 559.0 188.0 559.8 L179.55 566.95 Q178.6 567.75 177.05 568.3 L174.25 568.85 22.3 568.85 19.5 568.3 Q17.95 567.7 17.05 566.9 L2.25 553.85 Q1.3 553.0 0.65 551.6 0.0 550.1 0.0 548.85 L0.0 23.85 Q0.0 22.6 0.5 21.0 1.0 19.4 1.7 18.4 L12.35 2.5 Q13.05 1.5 14.4 0.75 15.75 0.0 17.0 0.0 L677.3 0.0 Q678.55 0.0 679.9 0.75 681.25 1.5 681.95 2.5 L692.6 18.4" fill="url(#gradient0)" fill-rule="evenodd" stroke="none"/>
  </g>
  <defs>
    <linearGradient gradientTransform="matrix(0.0126, 0.3607, -0.3607, 0.0126, 347.3, 284.35)" gradientUnits="userSpaceOnUse" id="gradient0" spreadMethod="pad" x1="-819.2" x2="819.2">
      <stop offset="0.0" stop-color="#003db0"/>
      <stop offset="0.3215686274509804" stop-color="#004cc6"/>
      <stop offset="0.9803921568627451" stop-color="#0172fd"/>
      <stop offset="1.0" stop-color="#0173ff"/>
    </linearGradient>
  </defs>
</svg>
