<?xml version="1.0" encoding="UTF-8" standalone="no"?>
<svg xmlns:ffdec="https://www.free-decompiler.com/flash" xmlns:xlink="http://www.w3.org/1999/xlink" ffdec:objectType="shape" height="227.25px" width="448.6px" xmlns="http://www.w3.org/2000/svg">
  <g transform="matrix(1.0, 0.0, 0.0, 1.0, 0.0, 0.0)">
    <path d="M448.1 3.5 L448.1 223.35 Q448.1 224.6 447.2 225.45 446.35 226.35 445.1 226.35 L3.5 226.75 Q2.25 226.75 1.4 225.85 0.5 225.0 0.5 223.75 L0.5 3.5 Q0.5 2.25 1.4 1.4 2.25 0.5 3.5 0.5 L445.1 0.5 Q446.35 0.5 447.2 1.4 448.1 2.25 448.1 3.5" fill="url(#gradient0)" fill-rule="evenodd" stroke="none"/>
    <path d="M448.1 3.5 L448.1 223.35 Q448.1 224.6 447.2 225.45 446.35 226.35 445.1 226.35 L3.5 226.75 Q2.25 226.75 1.4 225.85 0.5 225.0 0.5 223.75 L0.5 3.5 Q0.5 2.25 1.4 1.4 2.25 0.5 3.5 0.5 L445.1 0.5 Q446.35 0.5 447.2 1.4 448.1 2.25 448.1 3.5 Z" fill="none" stroke="#009ff7" stroke-linecap="butt" stroke-linejoin="miter-clip" stroke-miterlimit="4.0" stroke-width="1.0"/>
  </g>
  <defs>
    <linearGradient gradientTransform="matrix(0.0, -0.1381, -0.1381, 0.0, 224.3, 113.65)" gradientUnits="userSpaceOnUse" id="gradient0" spreadMethod="pad" x1="-819.2" x2="819.2">
      <stop offset="0.0" stop-color="#021139"/>
      <stop offset="1.0" stop-color="#042b6e"/>
    </linearGradient>
  </defs>
</svg>
