<?xml version="1.0" encoding="UTF-8" standalone="no"?>
<svg xmlns:ffdec="https://www.free-decompiler.com/flash" xmlns:xlink="http://www.w3.org/1999/xlink" ffdec:objectType="shape" height="63.25px" width="448.6px" xmlns="http://www.w3.org/2000/svg">
  <g transform="matrix(1.0, 0.0, 0.0, 1.0, 0.0, 0.0)">
    <path d="M448.1 3.0 L448.1 60.15 Q448.1 61.15 447.4 61.9 446.65 62.65 445.6 62.65 L3.0 62.75 Q1.95 62.75 1.25 62.0 0.5 61.25 0.5 60.25 L0.5 3.0 Q0.5 2.0 1.25 1.25 1.95 0.5 3.0 0.5 L445.6 0.5 Q446.65 0.5 447.4 1.25 448.1 2.0 448.1 3.0" fill="url(#gradient0)" fill-rule="evenodd" stroke="none"/>
    <path d="M448.1 3.0 L448.1 60.15 Q448.1 61.15 447.4 61.9 446.65 62.65 445.6 62.65 L3.0 62.75 Q1.95 62.75 1.25 62.0 0.5 61.25 0.5 60.25 L0.5 3.0 Q0.5 2.0 1.25 1.25 1.95 0.5 3.0 0.5 L445.6 0.5 Q446.65 0.5 447.4 1.25 448.1 2.0 448.1 3.0" fill="url(#gradient1)" fill-rule="evenodd" stroke="none"/>
    <path d="M445.6 0.0 Q446.85 0.0 447.7 0.9 448.6 1.75 448.6 3.0 L448.6 60.15 Q448.6 61.4 447.7 62.25 446.85 63.15 445.6 63.15 L3.0 63.25 Q1.75 63.25 0.85 62.35 0.0 61.5 0.0 60.25 L0.0 3.0 Q0.0 1.75 0.85 0.9 1.75 0.0 3.0 0.0 L445.6 0.0 M447.6 3.0 Q447.6 2.2 447.0 1.6 446.4 1.0 445.6 1.0 L3.0 1.0 Q2.15 1.0 1.55 1.6 1.0 2.2 1.0 3.0 L1.0 60.25 Q1.0 61.1 1.55 61.65 2.15 62.25 3.0 62.25 L445.6 62.15 Q446.45 62.15 447.0 61.55 447.6 61.0 447.6 60.15 L447.6 3.0" fill="#00ffff" fill-rule="evenodd" stroke="none"/>
  </g>
  <defs>
    <linearGradient gradientTransform="matrix(0.2732, 0.0, 0.0, -0.2732, 224.3, 31.65)" gradientUnits="userSpaceOnUse" id="gradient0" spreadMethod="pad" x1="-819.2" x2="819.2">
      <stop offset="0.0" stop-color="#0017c7" stop-opacity="0.2"/>
      <stop offset="0.0" stop-color="#0018c6" stop-opacity="0.20392157"/>
      <stop offset="0.0784313725490196" stop-color="#053892" stop-opacity="0.4117647"/>
      <stop offset="0.15294117647058825" stop-color="#095365" stop-opacity="0.5921569"/>
      <stop offset="0.22745098039215686" stop-color="#0c6941" stop-opacity="0.7372549"/>
      <stop offset="0.3058823529411765" stop-color="#0f7b24" stop-opacity="0.8509804"/>
      <stop offset="0.3803921568627451" stop-color="#118710" stop-opacity="0.93333334"/>
      <stop offset="0.4549019607843137" stop-color="#128f04" stop-opacity="0.98039216"/>
      <stop offset="0.5294117647058824" stop-color="#129100"/>
      <stop offset="0.6039215686274509" stop-color="#128f04" stop-opacity="0.9843137"/>
      <stop offset="0.6705882352941176" stop-color="#11880f" stop-opacity="0.9372549"/>
      <stop offset="0.7333333333333333" stop-color="#0f7c22" stop-opacity="0.85882354"/>
      <stop offset="0.8" stop-color="#0c6c3d" stop-opacity="0.7529412"/>
      <stop offset="0.8" stop-color="#0c6c3d" stop-opacity="0.0"/>
      <stop offset="1.0" stop-color="#000000" stop-opacity="0.0"/>
    </linearGradient>
    <linearGradient gradientTransform="matrix(0.2732, 0.0, 0.0, -0.2732, 224.3, 31.65)" gradientUnits="userSpaceOnUse" id="gradient1" spreadMethod="pad" x1="-819.2" x2="819.2">
      <stop offset="0.0" stop-color="#000000" stop-opacity="0.0"/>
      <stop offset="0.8" stop-color="#0c6c3d" stop-opacity="0.0"/>
      <stop offset="0.8" stop-color="#0c6c3d" stop-opacity="0.7529412"/>
      <stop offset="0.8627450980392157" stop-color="#09575f" stop-opacity="0.6156863"/>
      <stop offset="0.9254901960784314" stop-color="#063d8a" stop-opacity="0.44313726"/>
      <stop offset="0.984313725490196" stop-color="#011fbb" stop-opacity="0.24705882"/>
      <stop offset="1.0" stop-color="#0017c7" stop-opacity="0.2"/>
    </linearGradient>
  </defs>
</svg>
