<?xml version="1.0" encoding="UTF-8" standalone="no"?>
<svg xmlns:ffdec="https://www.free-decompiler.com/flash" xmlns:xlink="http://www.w3.org/1999/xlink" ffdec:objectType="shape" height="282.4px" width="448.6px" xmlns="http://www.w3.org/2000/svg">
  <g transform="matrix(1.0, 0.0, 0.0, 1.0, 0.0, 0.0)">
    <path d="M448.1 3.5 L448.1 278.9 Q448.1 280.15 447.2 281.0 446.35 281.9 445.1 281.9 L3.5 281.9 Q2.25 281.9 1.4 281.0 0.5 280.15 0.5 278.9 L0.5 3.5 Q0.5 2.25 1.4 1.4 2.25 0.5 3.5 0.5 L445.1 0.5 Q446.35 0.5 447.2 1.4 448.1 2.25 448.1 3.5" fill="url(#gradient0)" fill-rule="evenodd" stroke="none"/>
    <path d="M448.1 3.5 L448.1 278.9 Q448.1 280.15 447.2 281.0 446.35 281.9 445.1 281.9 L3.5 281.9 Q2.25 281.9 1.4 281.0 0.5 280.15 0.5 278.9 L0.5 3.5 Q0.5 2.25 1.4 1.4 2.25 0.5 3.5 0.5 L445.1 0.5 Q446.35 0.5 447.2 1.4 448.1 2.25 448.1 3.5 Z" fill="none" stroke="#009ff7" stroke-linecap="butt" stroke-linejoin="miter-clip" stroke-miterlimit="4.0" stroke-width="1.0"/>
  </g>
  <defs>
    <linearGradient gradientTransform="matrix(0.0, -0.1717, -0.1717, 0.0, 224.3, 141.2)" gradientUnits="userSpaceOnUse" id="gradient0" spreadMethod="pad" x1="-819.2" x2="819.2">
      <stop offset="0.0" stop-color="#042b6e"/>
      <stop offset="1.0" stop-color="#021139"/>
    </linearGradient>
  </defs>
</svg>
