<?xml version="1.0" encoding="UTF-8" standalone="no"?>
<svg xmlns:ffdec="https://www.free-decompiler.com/flash" xmlns:xlink="http://www.w3.org/1999/xlink" ffdec:objectType="shape" height="18.25px" width="447.7px" xmlns="http://www.w3.org/2000/svg">
  <g transform="matrix(1.0, 0.0, 0.0, 1.0, 0.05, 0.0)">
    <path d="M446.45 17.0 Q445.7 17.75 444.65 17.75 L2.2 17.75 Q1.05 17.75 0.65 16.95 0.25 16.2 0.8 15.25 L8.7 2.45 Q9.25 1.65 10.25 1.1 11.25 0.5 12.2 0.5 L444.65 0.5 Q445.7 0.5 446.45 1.25 447.15 2.0 447.15 3.0 L447.15 15.25 Q447.15 16.25 446.45 17.0" fill="url(#gradient0)" fill-rule="evenodd" stroke="none"/>
    <path d="M446.75 0.9 Q447.65 1.75 447.65 3.0 L447.65 15.25 Q447.65 16.5 446.75 17.35 445.9 18.25 444.65 18.25 L2.2 18.25 Q0.75 18.25 0.2 17.2 -0.35 16.15 0.4 15.0 L8.3 2.2 Q8.85 1.25 10.0 0.65 11.1 0.0 12.2 0.0 L444.65 0.0 Q445.9 0.0 446.75 0.9 M446.05 16.65 Q446.65 16.1 446.65 15.25 L446.65 3.0 Q446.65 2.2 446.05 1.6 445.5 1.0 444.65 1.0 L12.2 1.0 Q11.4 1.0 10.45 1.5 9.55 2.05 9.15 2.75 L1.25 15.5 Q0.8 16.2 1.1 16.75 1.35 17.25 2.2 17.25 L444.65 17.25 Q445.5 17.25 446.05 16.65" fill="#21bfff" fill-rule="evenodd" stroke="none"/>
  </g>
  <defs>
    <linearGradient gradientTransform="matrix(0.2726, 0.0, 0.0, -0.2726, 223.8, 9.1)" gradientUnits="userSpaceOnUse" id="gradient0" spreadMethod="pad" x1="-819.2" x2="819.2">
      <stop offset="0.0" stop-color="#215ea8" stop-opacity="0.49803922"/>
      <stop offset="0.09411764705882353" stop-color="#1c70c7" stop-opacity="0.6784314"/>
      <stop offset="0.19215686274509805" stop-color="#177de0" stop-opacity="0.81960785"/>
      <stop offset="0.29411764705882354" stop-color="#1487f1" stop-opacity="0.91764706"/>
      <stop offset="0.403921568627451" stop-color="#138dfc" stop-opacity="0.98039216"/>
      <stop offset="0.5294117647058824" stop-color="#128fff"/>
      <stop offset="0.6352941176470588" stop-color="#138dfb" stop-opacity="0.9764706"/>
      <stop offset="0.7372549019607844" stop-color="#1586f0" stop-opacity="0.9098039"/>
      <stop offset="0.8313725490196079" stop-color="#187cdd" stop-opacity="0.8039216"/>
      <stop offset="0.9254901960784314" stop-color="#1c6dc2" stop-opacity="0.6509804"/>
      <stop offset="1.0" stop-color="#215ea8" stop-opacity="0.49803922"/>
    </linearGradient>
  </defs>
</svg>
