<?xml version="1.0" encoding="UTF-8" standalone="no"?>
<svg xmlns:ffdec="https://www.free-decompiler.com/flash" xmlns:xlink="http://www.w3.org/1999/xlink" ffdec:objectType="shape" height="18.25px" width="213.65px" xmlns="http://www.w3.org/2000/svg">
  <g transform="matrix(1.0, 0.0, 0.0, 1.0, 0.0, 0.0)">
    <path d="M211.4 17.75 L3.0 17.75 Q1.95 17.75 1.25 17.0 0.5 16.25 0.5 15.25 L0.5 3.0 Q0.5 2.0 1.25 1.25 1.95 0.5 3.0 0.5 L201.4 0.5 Q202.35 0.5 203.4 1.1 204.35 1.65 204.9 2.45 L212.8 15.25 Q213.35 16.2 212.95 16.95 212.55 17.75 211.4 17.75" fill="url(#gradient0)" fill-rule="evenodd" stroke="none"/>
    <path d="M203.6 0.65 Q204.75 1.25 205.3 2.2 L213.2 15.0 Q213.95 16.15 213.4 17.2 212.85 18.25 211.4 18.25 L3.0 18.25 Q1.75 18.25 0.9 17.35 0.0 16.5 0.0 15.25 L0.0 3.0 Q0.0 1.75 0.9 0.9 1.75 0.0 3.0 0.0 L201.4 0.0 Q202.5 0.0 203.6 0.65 M211.4 17.25 Q212.25 17.25 212.5 16.75 212.8 16.2 212.35 15.5 L204.45 2.75 Q204.05 2.05 203.15 1.5 202.25 1.0 201.4 1.0 L3.0 1.0 Q2.2 1.0 1.6 1.6 1.0 2.2 1.0 3.0 L1.0 15.25 Q1.0 16.1 1.6 16.65 2.2 17.25 3.0 17.25 L211.4 17.25" fill="#21bfff" fill-rule="evenodd" stroke="none"/>
  </g>
  <defs>
    <linearGradient gradientTransform="matrix(0.1298, 0.0, 0.0, -0.1298, 106.8, 9.1)" gradientUnits="userSpaceOnUse" id="gradient0" spreadMethod="pad" x1="-819.2" x2="819.2">
      <stop offset="0.0" stop-color="#215ea8" stop-opacity="0.49803922"/>
      <stop offset="0.09411764705882353" stop-color="#1c70c7" stop-opacity="0.6784314"/>
      <stop offset="0.19215686274509805" stop-color="#177de0" stop-opacity="0.81960785"/>
      <stop offset="0.29411764705882354" stop-color="#1487f1" stop-opacity="0.91764706"/>
      <stop offset="0.403921568627451" stop-color="#138dfc" stop-opacity="0.98039216"/>
      <stop offset="0.5294117647058824" stop-color="#128fff"/>
      <stop offset="0.6352941176470588" stop-color="#138dfb" stop-opacity="0.9764706"/>
      <stop offset="0.7372549019607844" stop-color="#1586f0" stop-opacity="0.9098039"/>
      <stop offset="0.8313725490196079" stop-color="#187cdd" stop-opacity="0.8039216"/>
      <stop offset="0.9254901960784314" stop-color="#1c6dc2" stop-opacity="0.6509804"/>
      <stop offset="1.0" stop-color="#215ea8" stop-opacity="0.49803922"/>
    </linearGradient>
  </defs>
</svg>
