<?xml version="1.0" encoding="UTF-8" standalone="no"?>
<svg xmlns:ffdec="https://www.free-decompiler.com/flash" xmlns:xlink="http://www.w3.org/1999/xlink" ffdec:objectType="shape" height="234.7px" width="23.65px" xmlns="http://www.w3.org/2000/svg">
  <g transform="matrix(1.0, 0.0, 0.0, 1.0, 320.1, 243.9)">
    <path d="M-308.25 -241.75 Q-312.3 -241.75 -315.15 -238.9 -318.0 -236.05 -318.0 -232.05 -318.0 -228.0 -315.15 -225.15 -312.3 -222.3 -308.25 -222.3 -304.25 -222.3 -301.4 -225.15 -298.55 -228.0 -298.55 -232.05 -298.55 -236.05 -301.4 -238.9 -304.25 -241.75 -308.25 -241.75 M-316.65 -240.45 Q-313.15 -243.9 -308.25 -243.9 -303.35 -243.9 -299.9 -240.45 -296.45 -236.95 -296.45 -232.05 -296.45 -227.15 -299.9 -223.65 -303.35 -220.2 -308.25 -220.2 -313.15 -220.2 -316.65 -223.65 -320.1 -227.15 -320.1 -232.05 -320.1 -236.95 -316.65 -240.45" fill="url(#gradient0)" fill-rule="evenodd" stroke="none"/>
    <path d="M-303.5 -236.8 Q-301.5 -234.8 -301.5 -232.05 -301.5 -229.25 -303.5 -227.25 -305.45 -225.25 -308.25 -225.25 -311.05 -225.25 -313.05 -227.25 -315.05 -229.25 -315.05 -232.05 -315.05 -234.85 -313.05 -236.8 -311.05 -238.8 -308.25 -238.8 -305.45 -238.8 -303.5 -236.8" fill="url(#gradient1)" fill-rule="evenodd" stroke="none"/>
    <path d="M-307.0 -237.2 L-307.0 -226.7 -309.55 -226.7 -309.55 -235.4 -307.0 -237.2" fill="#ffffff" fill-rule="evenodd" stroke="none"/>
    <path d="M-308.25 -171.25 Q-312.3 -171.25 -315.15 -168.4 -318.0 -165.55 -318.0 -161.55 -318.0 -157.5 -315.15 -154.65 -312.3 -151.8 -308.25 -151.8 -304.25 -151.8 -301.4 -154.65 -298.55 -157.5 -298.55 -161.55 -298.55 -165.55 -301.4 -168.4 -304.25 -171.25 -308.25 -171.25 M-308.25 -149.7 Q-313.15 -149.7 -316.65 -153.15 -320.1 -156.65 -320.1 -161.55 -320.1 -166.45 -316.65 -169.95 -313.15 -173.4 -308.25 -173.4 -303.35 -173.4 -299.9 -169.95 -296.45 -166.45 -296.45 -161.55 -296.45 -156.65 -299.9 -153.15 -303.35 -149.7 -308.25 -149.7" fill="url(#gradient2)" fill-rule="evenodd" stroke="none"/>
    <path d="M-303.5 -166.3 Q-301.5 -164.3 -301.5 -161.55 -301.5 -158.75 -303.5 -156.75 -305.45 -154.75 -308.25 -154.75 -311.05 -154.75 -313.05 -156.75 -315.05 -158.75 -315.05 -161.55 -315.05 -164.35 -313.05 -166.3 -311.05 -168.3 -308.25 -168.3 -305.45 -168.3 -303.5 -166.3" fill="url(#gradient3)" fill-rule="evenodd" stroke="none"/>
    <path d="M-304.6 -158.55 L-302.7 -156.2 -313.5 -156.2 -313.5 -159.45 -311.7 -162.55 -306.15 -162.55 -305.5 -163.5 -306.1 -164.35 -311.65 -164.35 -313.5 -166.7 -304.6 -166.7 -302.7 -163.5 -304.55 -160.4 -310.35 -160.4 -310.95 -159.45 -310.95 -158.55 -304.6 -158.55" fill="#ffffff" fill-rule="evenodd" stroke="none"/>
    <path d="M-301.4 -84.65 Q-298.55 -87.5 -298.55 -91.55 -298.55 -95.55 -301.4 -98.4 -304.25 -101.25 -308.25 -101.25 -312.3 -101.25 -315.15 -98.4 -318.0 -95.55 -318.0 -91.55 -318.0 -87.5 -315.15 -84.65 -312.3 -81.8 -308.25 -81.8 -304.25 -81.8 -301.4 -84.65 M-299.9 -99.95 Q-296.45 -96.45 -296.45 -91.55 -296.45 -86.65 -299.9 -83.15 -303.35 -79.7 -308.25 -79.7 -313.15 -79.7 -316.65 -83.15 -320.1 -86.65 -320.1 -91.55 -320.1 -96.45 -316.65 -99.95 -313.15 -103.4 -308.25 -103.4 -303.35 -103.4 -299.9 -99.95" fill="url(#gradient4)" fill-rule="evenodd" stroke="none"/>
    <path d="M-303.5 -96.3 Q-301.5 -94.3 -301.5 -91.55 -301.5 -88.75 -303.5 -86.75 -305.45 -84.75 -308.25 -84.75 -311.05 -84.75 -313.05 -86.75 -315.05 -88.75 -315.05 -91.55 -315.05 -94.35 -313.05 -96.3 -311.05 -98.3 -308.25 -98.3 -305.45 -98.3 -303.5 -96.3" fill="url(#gradient5)" fill-rule="evenodd" stroke="none"/>
    <path d="M-311.65 -94.35 L-313.55 -96.7 -304.65 -96.7 -302.7 -93.5 -303.9 -91.45 -302.7 -89.45 -304.65 -86.2 -311.65 -86.2 -313.55 -88.55 -306.1 -88.55 -305.5 -89.45 -306.1 -90.4 -311.8 -90.4 -313.55 -92.55 -306.1 -92.55 -305.5 -93.5 -306.1 -94.35 -311.65 -94.35" fill="#ffffff" fill-rule="evenodd" stroke="none"/>
    <path d="M-308.25 -30.75 Q-312.3 -30.75 -315.15 -27.9 -318.0 -25.05 -318.0 -21.05 -318.0 -17.0 -315.15 -14.15 -312.3 -11.3 -308.25 -11.3 -304.25 -11.3 -301.4 -14.15 -298.55 -17.0 -298.55 -21.05 -298.55 -25.05 -301.4 -27.9 -304.25 -30.75 -308.25 -30.75 M-308.25 -9.2 Q-313.15 -9.2 -316.65 -12.65 -320.1 -16.15 -320.1 -21.05 -320.1 -25.95 -316.65 -29.45 -313.15 -32.9 -308.25 -32.9 -303.35 -32.9 -299.9 -29.45 -296.45 -25.95 -296.45 -21.05 -296.45 -16.15 -299.9 -12.65 -303.35 -9.2 -308.25 -9.2" fill="url(#gradient6)" fill-rule="evenodd" stroke="none"/>
    <path d="M-303.5 -25.8 Q-301.5 -23.8 -301.5 -21.05 -301.5 -18.25 -303.5 -16.25 -305.45 -14.25 -308.25 -14.25 -311.05 -14.25 -313.05 -16.25 -315.05 -18.25 -315.05 -21.05 -315.05 -23.85 -313.05 -25.8 -311.05 -27.8 -308.25 -27.8 -305.45 -27.8 -303.5 -25.8" fill="url(#gradient7)" fill-rule="evenodd" stroke="none"/>
    <path d="M-305.4 -26.7 L-305.4 -19.5 -303.95 -19.5 -303.95 -17.4 -305.4 -17.4 -305.4 -16.2 -307.95 -16.2 -307.95 -17.4 -312.9 -17.4 -314.2 -19.5 -307.95 -26.7 -305.4 -26.7 M-307.95 -19.5 L-307.95 -23.5 -310.9 -19.5 -307.95 -19.5" fill="#ffffff" fill-rule="evenodd" stroke="none"/>
  </g>
  <defs>
    <linearGradient gradientTransform="matrix(0.0, -0.0145, -0.0145, 0.0, -308.25, -232.05)" gradientUnits="userSpaceOnUse" id="gradient0" spreadMethod="pad" x1="-819.2" x2="819.2">
      <stop offset="0.0" stop-color="#0066ff"/>
      <stop offset="0.058823529411764705" stop-color="#0073ff"/>
      <stop offset="0.20392156862745098" stop-color="#0090ff"/>
      <stop offset="0.3607843137254902" stop-color="#00a6ff"/>
      <stop offset="0.5333333333333333" stop-color="#00b6ff"/>
      <stop offset="0.7294117647058823" stop-color="#00bfff"/>
      <stop offset="1.0" stop-color="#00c2ff"/>
    </linearGradient>
    <linearGradient gradientTransform="matrix(0.0083, 0.0, 0.0, -0.0083, -308.25, -232.05)" gradientUnits="userSpaceOnUse" id="gradient1" spreadMethod="pad" x1="-819.2" x2="819.2">
      <stop offset="0.0" stop-color="#215ea8" stop-opacity="0.49803922"/>
      <stop offset="0.09411764705882353" stop-color="#1c70c7" stop-opacity="0.6784314"/>
      <stop offset="0.19215686274509805" stop-color="#177de0" stop-opacity="0.81960785"/>
      <stop offset="0.29411764705882354" stop-color="#1487f1" stop-opacity="0.91764706"/>
      <stop offset="0.403921568627451" stop-color="#138dfc" stop-opacity="0.98039216"/>
      <stop offset="0.5294117647058824" stop-color="#128fff"/>
      <stop offset="0.6352941176470588" stop-color="#138dfb" stop-opacity="0.9764706"/>
      <stop offset="0.7372549019607844" stop-color="#1586f0" stop-opacity="0.9098039"/>
      <stop offset="0.8313725490196079" stop-color="#187cdd" stop-opacity="0.8039216"/>
      <stop offset="0.9254901960784314" stop-color="#1c6dc2" stop-opacity="0.6509804"/>
      <stop offset="1.0" stop-color="#215ea8" stop-opacity="0.49803922"/>
    </linearGradient>
    <linearGradient gradientTransform="matrix(0.0, -0.0145, -0.0145, 0.0, -308.25, -161.55)" gradientUnits="userSpaceOnUse" id="gradient2" spreadMethod="pad" x1="-819.2" x2="819.2">
      <stop offset="0.0" stop-color="#0066ff"/>
      <stop offset="0.058823529411764705" stop-color="#0073ff"/>
      <stop offset="0.20392156862745098" stop-color="#0090ff"/>
      <stop offset="0.3607843137254902" stop-color="#00a6ff"/>
      <stop offset="0.5333333333333333" stop-color="#00b6ff"/>
      <stop offset="0.7294117647058823" stop-color="#00bfff"/>
      <stop offset="1.0" stop-color="#00c2ff"/>
    </linearGradient>
    <linearGradient gradientTransform="matrix(0.0083, 0.0, 0.0, -0.0083, -308.25, -161.55)" gradientUnits="userSpaceOnUse" id="gradient3" spreadMethod="pad" x1="-819.2" x2="819.2">
      <stop offset="0.0" stop-color="#215ea8" stop-opacity="0.49803922"/>
      <stop offset="0.09411764705882353" stop-color="#1c70c7" stop-opacity="0.6784314"/>
      <stop offset="0.19215686274509805" stop-color="#177de0" stop-opacity="0.81960785"/>
      <stop offset="0.29411764705882354" stop-color="#1487f1" stop-opacity="0.91764706"/>
      <stop offset="0.403921568627451" stop-color="#138dfc" stop-opacity="0.98039216"/>
      <stop offset="0.5294117647058824" stop-color="#128fff"/>
      <stop offset="0.6352941176470588" stop-color="#138dfb" stop-opacity="0.9764706"/>
      <stop offset="0.7372549019607844" stop-color="#1586f0" stop-opacity="0.9098039"/>
      <stop offset="0.8313725490196079" stop-color="#187cdd" stop-opacity="0.8039216"/>
      <stop offset="0.9254901960784314" stop-color="#1c6dc2" stop-opacity="0.6509804"/>
      <stop offset="1.0" stop-color="#215ea8" stop-opacity="0.49803922"/>
    </linearGradient>
    <linearGradient gradientTransform="matrix(0.0, -0.0145, -0.0145, 0.0, -308.25, -91.55)" gradientUnits="userSpaceOnUse" id="gradient4" spreadMethod="pad" x1="-819.2" x2="819.2">
      <stop offset="0.0" stop-color="#0066ff"/>
      <stop offset="0.058823529411764705" stop-color="#0073ff"/>
      <stop offset="0.20392156862745098" stop-color="#0090ff"/>
      <stop offset="0.3607843137254902" stop-color="#00a6ff"/>
      <stop offset="0.5333333333333333" stop-color="#00b6ff"/>
      <stop offset="0.7294117647058823" stop-color="#00bfff"/>
      <stop offset="1.0" stop-color="#00c2ff"/>
    </linearGradient>
    <linearGradient gradientTransform="matrix(0.0083, 0.0, 0.0, -0.0083, -308.25, -91.55)" gradientUnits="userSpaceOnUse" id="gradient5" spreadMethod="pad" x1="-819.2" x2="819.2">
      <stop offset="0.0" stop-color="#215ea8" stop-opacity="0.49803922"/>
      <stop offset="0.09411764705882353" stop-color="#1c70c7" stop-opacity="0.6784314"/>
      <stop offset="0.19215686274509805" stop-color="#177de0" stop-opacity="0.81960785"/>
      <stop offset="0.29411764705882354" stop-color="#1487f1" stop-opacity="0.91764706"/>
      <stop offset="0.403921568627451" stop-color="#138dfc" stop-opacity="0.98039216"/>
      <stop offset="0.5294117647058824" stop-color="#128fff"/>
      <stop offset="0.6352941176470588" stop-color="#138dfb" stop-opacity="0.9764706"/>
      <stop offset="0.7372549019607844" stop-color="#1586f0" stop-opacity="0.9098039"/>
      <stop offset="0.8313725490196079" stop-color="#187cdd" stop-opacity="0.8039216"/>
      <stop offset="0.9254901960784314" stop-color="#1c6dc2" stop-opacity="0.6509804"/>
      <stop offset="1.0" stop-color="#215ea8" stop-opacity="0.49803922"/>
    </linearGradient>
    <linearGradient gradientTransform="matrix(0.0, -0.0145, -0.0145, 0.0, -308.25, -21.05)" gradientUnits="userSpaceOnUse" id="gradient6" spreadMethod="pad" x1="-819.2" x2="819.2">
      <stop offset="0.0" stop-color="#0066ff"/>
      <stop offset="0.058823529411764705" stop-color="#0073ff"/>
      <stop offset="0.20392156862745098" stop-color="#0090ff"/>
      <stop offset="0.3607843137254902" stop-color="#00a6ff"/>
      <stop offset="0.5333333333333333" stop-color="#00b6ff"/>
      <stop offset="0.7294117647058823" stop-color="#00bfff"/>
      <stop offset="1.0" stop-color="#00c2ff"/>
    </linearGradient>
    <linearGradient gradientTransform="matrix(0.0083, 0.0, 0.0, -0.0083, -308.25, -21.05)" gradientUnits="userSpaceOnUse" id="gradient7" spreadMethod="pad" x1="-819.2" x2="819.2">
      <stop offset="0.0" stop-color="#215ea8" stop-opacity="0.49803922"/>
      <stop offset="0.09411764705882353" stop-color="#1c70c7" stop-opacity="0.6784314"/>
      <stop offset="0.19215686274509805" stop-color="#177de0" stop-opacity="0.81960785"/>
      <stop offset="0.29411764705882354" stop-color="#1487f1" stop-opacity="0.91764706"/>
      <stop offset="0.403921568627451" stop-color="#138dfc" stop-opacity="0.98039216"/>
      <stop offset="0.5294117647058824" stop-color="#128fff"/>
      <stop offset="0.6352941176470588" stop-color="#138dfb" stop-opacity="0.9764706"/>
      <stop offset="0.7372549019607844" stop-color="#1586f0" stop-opacity="0.9098039"/>
      <stop offset="0.8313725490196079" stop-color="#187cdd" stop-opacity="0.8039216"/>
      <stop offset="0.9254901960784314" stop-color="#1c6dc2" stop-opacity="0.6509804"/>
      <stop offset="1.0" stop-color="#215ea8" stop-opacity="0.49803922"/>
    </linearGradient>
  </defs>
</svg>
