<?xml version="1.0" encoding="UTF-8" standalone="no"?>
<svg xmlns:ffdec="https://www.free-decompiler.com/flash" xmlns:xlink="http://www.w3.org/1999/xlink" ffdec:objectType="shape" height="234.7px" width="23.65px" xmlns="http://www.w3.org/2000/svg">
  <g transform="matrix(1.0, 0.0, 0.0, 1.0, 101.6, 243.9)">
    <path d="M-82.9 -238.9 Q-85.75 -241.75 -89.75 -241.75 -93.8 -241.75 -96.65 -238.9 -99.5 -236.05 -99.5 -232.05 -99.5 -228.0 -96.65 -225.15 -93.8 -222.3 -89.75 -222.3 -85.75 -222.3 -82.9 -225.15 -80.05 -228.0 -80.05 -232.05 -80.05 -236.05 -82.9 -238.9 M-89.75 -243.9 Q-84.85 -243.9 -81.4 -240.45 -77.95 -236.95 -77.95 -232.05 -77.95 -227.15 -81.4 -223.65 -84.85 -220.2 -89.75 -220.2 -94.65 -220.2 -98.15 -223.65 -101.6 -227.15 -101.6 -232.05 -101.6 -236.95 -98.15 -240.45 -94.65 -243.9 -89.75 -243.9" fill="url(#gradient0)" fill-rule="evenodd" stroke="none"/>
    <path d="M-85.0 -236.8 Q-83.0 -234.8 -83.0 -232.05 -83.0 -229.25 -85.0 -227.25 -86.95 -225.25 -89.75 -225.25 -92.55 -225.25 -94.55 -227.25 -96.55 -229.25 -96.55 -232.05 -96.55 -234.85 -94.55 -236.8 -92.55 -238.8 -89.75 -238.8 -86.95 -238.8 -85.0 -236.8" fill="url(#gradient1)" fill-rule="evenodd" stroke="none"/>
    <path d="M-86.05 -233.05 L-84.2 -229.95 -86.15 -226.7 -95.05 -226.7 -93.15 -229.05 -87.6 -229.05 -87.0 -229.95 -87.6 -230.9 -94.45 -230.9 -94.45 -237.2 -84.2 -237.2 -86.1 -234.85 -91.9 -234.85 -91.9 -233.05 -86.05 -233.05" fill="#ffffff" fill-rule="evenodd" stroke="none"/>
    <path d="M-82.9 -168.4 Q-85.75 -171.25 -89.75 -171.25 -93.8 -171.25 -96.65 -168.4 -99.5 -165.55 -99.5 -161.55 -99.5 -157.5 -96.65 -154.65 -93.8 -151.8 -89.75 -151.8 -85.75 -151.8 -82.9 -154.65 -80.05 -157.5 -80.05 -161.55 -80.05 -165.55 -82.9 -168.4 M-89.75 -173.4 Q-84.85 -173.4 -81.4 -169.95 -77.95 -166.45 -77.95 -161.55 -77.95 -156.65 -81.4 -153.15 -84.85 -149.7 -89.75 -149.7 -94.65 -149.7 -98.15 -153.15 -101.6 -156.65 -101.6 -161.55 -101.6 -166.45 -98.15 -169.95 -94.65 -173.4 -89.75 -173.4" fill="url(#gradient2)" fill-rule="evenodd" stroke="none"/>
    <path d="M-83.0 -161.55 Q-83.0 -158.75 -85.0 -156.75 -86.95 -154.75 -89.75 -154.75 -92.55 -154.75 -94.55 -156.75 -96.55 -158.75 -96.55 -161.55 -96.55 -164.35 -94.55 -166.3 -92.55 -168.3 -89.75 -168.3 -86.95 -168.3 -85.0 -166.3 -83.0 -164.3 -83.0 -161.55" fill="url(#gradient3)" fill-rule="evenodd" stroke="none"/>
    <path d="M-92.25 -162.55 L-86.05 -162.55 -84.2 -159.45 -86.15 -156.2 -93.15 -156.2 -95.05 -159.45 -95.05 -163.5 -93.15 -166.7 -84.2 -166.7 -86.1 -164.35 -91.65 -164.35 -92.25 -163.5 -92.25 -162.55 M-91.65 -158.55 L-87.6 -158.55 -87.0 -159.45 -87.6 -160.4 -92.25 -160.4 -92.25 -159.45 -91.65 -158.55" fill="#ffffff" fill-rule="evenodd" stroke="none"/>
    <path d="M-98.15 -99.95 Q-94.65 -103.4 -89.75 -103.4 -84.85 -103.4 -81.4 -99.95 -77.95 -96.45 -77.95 -91.55 -77.95 -86.65 -81.4 -83.15 -84.85 -79.7 -89.75 -79.7 -94.65 -79.7 -98.15 -83.15 -101.6 -86.65 -101.6 -91.55 -101.6 -96.45 -98.15 -99.95 M-80.05 -91.55 Q-80.05 -95.55 -82.9 -98.4 -85.75 -101.25 -89.75 -101.25 -93.8 -101.25 -96.65 -98.4 -99.5 -95.55 -99.5 -91.55 -99.5 -87.5 -96.65 -84.65 -93.8 -81.8 -89.75 -81.8 -85.75 -81.8 -82.9 -84.65 -80.05 -87.5 -80.05 -91.55" fill="url(#gradient4)" fill-rule="evenodd" stroke="none"/>
    <path d="M-83.0 -91.55 Q-83.0 -88.75 -85.0 -86.75 -86.95 -84.75 -89.75 -84.75 -92.55 -84.75 -94.55 -86.75 -96.55 -88.75 -96.55 -91.55 -96.55 -94.35 -94.55 -96.3 -92.55 -98.3 -89.75 -98.3 -86.95 -98.3 -85.0 -96.3 -83.0 -94.3 -83.0 -91.55" fill="url(#gradient5)" fill-rule="evenodd" stroke="none"/>
    <path d="M-84.2 -96.7 L-91.15 -86.2 -94.2 -86.2 -88.8 -94.35 -93.15 -94.35 -95.05 -96.7 -84.2 -96.7" fill="#ffffff" fill-rule="evenodd" stroke="none"/>
    <path d="M-82.9 -27.9 Q-85.75 -30.75 -89.75 -30.75 -93.8 -30.75 -96.65 -27.9 -99.5 -25.05 -99.5 -21.05 -99.5 -17.0 -96.65 -14.15 -93.8 -11.3 -89.75 -11.3 -85.75 -11.3 -82.9 -14.15 -80.05 -17.0 -80.05 -21.05 -80.05 -25.05 -82.9 -27.9 M-89.75 -32.9 Q-84.85 -32.9 -81.4 -29.45 -77.95 -25.95 -77.95 -21.05 -77.95 -16.15 -81.4 -12.65 -84.85 -9.2 -89.75 -9.2 -94.65 -9.2 -98.15 -12.65 -101.6 -16.15 -101.6 -21.05 -101.6 -25.95 -98.15 -29.45 -94.65 -32.9 -89.75 -32.9" fill="url(#gradient6)" fill-rule="evenodd" stroke="none"/>
    <path d="M-83.0 -21.05 Q-83.0 -18.25 -85.0 -16.25 -86.95 -14.25 -89.75 -14.25 -92.55 -14.25 -94.55 -16.25 -96.55 -18.25 -96.55 -21.05 -96.55 -23.85 -94.55 -25.8 -92.55 -27.8 -89.75 -27.8 -86.95 -27.8 -85.0 -25.8 -83.0 -23.8 -83.0 -21.05" fill="url(#gradient7)" fill-rule="evenodd" stroke="none"/>
    <path d="M-84.2 -23.0 L-85.4 -20.95 -84.2 -18.95 -86.15 -15.7 -93.15 -15.7 -95.05 -18.95 -93.85 -20.95 -95.05 -23.0 -93.15 -26.2 -86.15 -26.2 -84.2 -23.0 M-87.0 -23.0 L-87.6 -23.85 -91.65 -23.85 -92.25 -23.0 -91.65 -22.05 -87.6 -22.05 -87.0 -23.0 M-91.65 -18.05 L-87.6 -18.05 -87.0 -18.95 -87.6 -19.9 -91.65 -19.9 -92.25 -18.95 -91.65 -18.05" fill="#ffffff" fill-rule="evenodd" stroke="none"/>
  </g>
  <defs>
    <linearGradient gradientTransform="matrix(0.0, -0.0145, -0.0145, 0.0, -89.75, -232.05)" gradientUnits="userSpaceOnUse" id="gradient0" spreadMethod="pad" x1="-819.2" x2="819.2">
      <stop offset="0.0" stop-color="#0066ff"/>
      <stop offset="0.058823529411764705" stop-color="#0073ff"/>
      <stop offset="0.20392156862745098" stop-color="#0090ff"/>
      <stop offset="0.3607843137254902" stop-color="#00a6ff"/>
      <stop offset="0.5333333333333333" stop-color="#00b6ff"/>
      <stop offset="0.7294117647058823" stop-color="#00bfff"/>
      <stop offset="1.0" stop-color="#00c2ff"/>
    </linearGradient>
    <linearGradient gradientTransform="matrix(0.0083, 0.0, 0.0, -0.0083, -89.75, -232.05)" gradientUnits="userSpaceOnUse" id="gradient1" spreadMethod="pad" x1="-819.2" x2="819.2">
      <stop offset="0.0" stop-color="#215ea8" stop-opacity="0.49803922"/>
      <stop offset="0.09411764705882353" stop-color="#1c70c7" stop-opacity="0.6784314"/>
      <stop offset="0.19215686274509805" stop-color="#177de0" stop-opacity="0.81960785"/>
      <stop offset="0.29411764705882354" stop-color="#1487f1" stop-opacity="0.91764706"/>
      <stop offset="0.403921568627451" stop-color="#138dfc" stop-opacity="0.98039216"/>
      <stop offset="0.5294117647058824" stop-color="#128fff"/>
      <stop offset="0.6352941176470588" stop-color="#138dfb" stop-opacity="0.9764706"/>
      <stop offset="0.7372549019607844" stop-color="#1586f0" stop-opacity="0.9098039"/>
      <stop offset="0.8313725490196079" stop-color="#187cdd" stop-opacity="0.8039216"/>
      <stop offset="0.9254901960784314" stop-color="#1c6dc2" stop-opacity="0.6509804"/>
      <stop offset="1.0" stop-color="#215ea8" stop-opacity="0.49803922"/>
    </linearGradient>
    <linearGradient gradientTransform="matrix(0.0, -0.0145, -0.0145, 0.0, -89.75, -161.55)" gradientUnits="userSpaceOnUse" id="gradient2" spreadMethod="pad" x1="-819.2" x2="819.2">
      <stop offset="0.0" stop-color="#0066ff"/>
      <stop offset="0.058823529411764705" stop-color="#0073ff"/>
      <stop offset="0.20392156862745098" stop-color="#0090ff"/>
      <stop offset="0.3607843137254902" stop-color="#00a6ff"/>
      <stop offset="0.5333333333333333" stop-color="#00b6ff"/>
      <stop offset="0.7294117647058823" stop-color="#00bfff"/>
      <stop offset="1.0" stop-color="#00c2ff"/>
    </linearGradient>
    <linearGradient gradientTransform="matrix(0.0083, 0.0, 0.0, -0.0083, -89.75, -161.55)" gradientUnits="userSpaceOnUse" id="gradient3" spreadMethod="pad" x1="-819.2" x2="819.2">
      <stop offset="0.0" stop-color="#215ea8" stop-opacity="0.49803922"/>
      <stop offset="0.09411764705882353" stop-color="#1c70c7" stop-opacity="0.6784314"/>
      <stop offset="0.19215686274509805" stop-color="#177de0" stop-opacity="0.81960785"/>
      <stop offset="0.29411764705882354" stop-color="#1487f1" stop-opacity="0.91764706"/>
      <stop offset="0.403921568627451" stop-color="#138dfc" stop-opacity="0.98039216"/>
      <stop offset="0.5294117647058824" stop-color="#128fff"/>
      <stop offset="0.6352941176470588" stop-color="#138dfb" stop-opacity="0.9764706"/>
      <stop offset="0.7372549019607844" stop-color="#1586f0" stop-opacity="0.9098039"/>
      <stop offset="0.8313725490196079" stop-color="#187cdd" stop-opacity="0.8039216"/>
      <stop offset="0.9254901960784314" stop-color="#1c6dc2" stop-opacity="0.6509804"/>
      <stop offset="1.0" stop-color="#215ea8" stop-opacity="0.49803922"/>
    </linearGradient>
    <linearGradient gradientTransform="matrix(0.0, -0.0145, -0.0145, 0.0, -89.75, -91.55)" gradientUnits="userSpaceOnUse" id="gradient4" spreadMethod="pad" x1="-819.2" x2="819.2">
      <stop offset="0.0" stop-color="#0066ff"/>
      <stop offset="0.058823529411764705" stop-color="#0073ff"/>
      <stop offset="0.20392156862745098" stop-color="#0090ff"/>
      <stop offset="0.3607843137254902" stop-color="#00a6ff"/>
      <stop offset="0.5333333333333333" stop-color="#00b6ff"/>
      <stop offset="0.7294117647058823" stop-color="#00bfff"/>
      <stop offset="1.0" stop-color="#00c2ff"/>
    </linearGradient>
    <linearGradient gradientTransform="matrix(0.0083, 0.0, 0.0, -0.0083, -89.75, -91.55)" gradientUnits="userSpaceOnUse" id="gradient5" spreadMethod="pad" x1="-819.2" x2="819.2">
      <stop offset="0.0" stop-color="#215ea8" stop-opacity="0.49803922"/>
      <stop offset="0.09411764705882353" stop-color="#1c70c7" stop-opacity="0.6784314"/>
      <stop offset="0.19215686274509805" stop-color="#177de0" stop-opacity="0.81960785"/>
      <stop offset="0.29411764705882354" stop-color="#1487f1" stop-opacity="0.91764706"/>
      <stop offset="0.403921568627451" stop-color="#138dfc" stop-opacity="0.98039216"/>
      <stop offset="0.5294117647058824" stop-color="#128fff"/>
      <stop offset="0.6352941176470588" stop-color="#138dfb" stop-opacity="0.9764706"/>
      <stop offset="0.7372549019607844" stop-color="#1586f0" stop-opacity="0.9098039"/>
      <stop offset="0.8313725490196079" stop-color="#187cdd" stop-opacity="0.8039216"/>
      <stop offset="0.9254901960784314" stop-color="#1c6dc2" stop-opacity="0.6509804"/>
      <stop offset="1.0" stop-color="#215ea8" stop-opacity="0.49803922"/>
    </linearGradient>
    <linearGradient gradientTransform="matrix(0.0, -0.0145, -0.0145, 0.0, -89.75, -21.05)" gradientUnits="userSpaceOnUse" id="gradient6" spreadMethod="pad" x1="-819.2" x2="819.2">
      <stop offset="0.0" stop-color="#0066ff"/>
      <stop offset="0.058823529411764705" stop-color="#0073ff"/>
      <stop offset="0.20392156862745098" stop-color="#0090ff"/>
      <stop offset="0.3607843137254902" stop-color="#00a6ff"/>
      <stop offset="0.5333333333333333" stop-color="#00b6ff"/>
      <stop offset="0.7294117647058823" stop-color="#00bfff"/>
      <stop offset="1.0" stop-color="#00c2ff"/>
    </linearGradient>
    <linearGradient gradientTransform="matrix(0.0083, 0.0, 0.0, -0.0083, -89.75, -21.05)" gradientUnits="userSpaceOnUse" id="gradient7" spreadMethod="pad" x1="-819.2" x2="819.2">
      <stop offset="0.0" stop-color="#215ea8" stop-opacity="0.49803922"/>
      <stop offset="0.09411764705882353" stop-color="#1c70c7" stop-opacity="0.6784314"/>
      <stop offset="0.19215686274509805" stop-color="#177de0" stop-opacity="0.81960785"/>
      <stop offset="0.29411764705882354" stop-color="#1487f1" stop-opacity="0.91764706"/>
      <stop offset="0.403921568627451" stop-color="#138dfc" stop-opacity="0.98039216"/>
      <stop offset="0.5294117647058824" stop-color="#128fff"/>
      <stop offset="0.6352941176470588" stop-color="#138dfb" stop-opacity="0.9764706"/>
      <stop offset="0.7372549019607844" stop-color="#1586f0" stop-opacity="0.9098039"/>
      <stop offset="0.8313725490196079" stop-color="#187cdd" stop-opacity="0.8039216"/>
      <stop offset="0.9254901960784314" stop-color="#1c6dc2" stop-opacity="0.6509804"/>
      <stop offset="1.0" stop-color="#215ea8" stop-opacity="0.49803922"/>
    </linearGradient>
  </defs>
</svg>
