<?xml version="1.0" encoding="UTF-8" standalone="no"?>
<svg xmlns:ffdec="https://www.free-decompiler.com/flash" xmlns:xlink="http://www.w3.org/1999/xlink" ffdec:objectType="shape" height="25.85px" width="144.25px" xmlns="http://www.w3.org/2000/svg">
  <g transform="matrix(1.0, 0.0, 0.0, 1.0, 0.0, 0.0)">
    <path d="M133.9 25.35 L3.0 25.35 Q2.0 25.35 1.25 24.65 0.5 23.9 0.5 22.85 L0.5 3.0 Q0.5 1.95 1.25 1.25 2.0 0.5 3.0 0.5 L133.9 0.5 Q134.85 0.5 135.9 1.05 136.9 1.6 137.4 2.4 L143.25 11.4 Q143.8 12.25 143.75 13.35 143.75 14.5 143.2 15.3 L137.45 23.5 135.9 24.8 Q134.9 25.35 133.9 25.35" fill="url(#gradient0)" fill-rule="evenodd" stroke="none"/>
    <path d="M143.65 11.15 Q144.3 12.1 144.25 13.4 144.25 14.65 143.6 15.6 L137.9 23.8 136.15 25.25 Q135.0 25.85 133.9 25.85 L3.0 25.85 Q1.75 25.85 0.9 24.95 0.0 24.1 0.0 22.85 L0.0 3.0 Q0.0 1.75 0.9 0.9 1.75 0.0 3.0 0.0 L133.9 0.0 Q135.0 0.0 136.1 0.6 137.25 1.2 137.85 2.15 L143.65 11.15 M143.25 13.35 Q143.3 12.4 142.85 11.7 L137.0 2.65 Q136.55 2.0 135.65 1.5 134.7 1.0 133.9 1.0 L3.0 1.0 Q2.2 1.0 1.6 1.6 1.0 2.2 1.0 3.0 L1.0 22.85 Q1.0 23.7 1.6 24.25 2.2 24.85 3.0 24.85 L133.9 24.85 Q134.75 24.85 135.65 24.35 L137.05 23.2 142.75 15.0 Q143.25 14.35 143.25 13.35" fill="#ffc200" fill-rule="evenodd" stroke="none"/>
  </g>
  <defs>
    <linearGradient gradientTransform="matrix(0.0874, 0.0, 0.0, -0.0874, 72.15, 12.9)" gradientUnits="userSpaceOnUse" id="gradient0" spreadMethod="pad" x1="-819.2" x2="819.2">
      <stop offset="0.0" stop-color="#a69400" stop-opacity="0.49803922"/>
      <stop offset="0.23529411764705882" stop-color="#b09200" stop-opacity="0.87058824"/>
      <stop offset="0.5294117647058824" stop-color="#b39100"/>
      <stop offset="0.792156862745098" stop-color="#af9200" stop-opacity="0.85490197"/>
      <stop offset="1.0" stop-color="#a69400" stop-opacity="0.49803922"/>
    </linearGradient>
  </defs>
</svg>
