<?xml version="1.0" encoding="UTF-8" standalone="no"?>
<svg xmlns:ffdec="https://www.free-decompiler.com/flash" xmlns:xlink="http://www.w3.org/1999/xlink" ffdec:objectType="shape" height="25.85px" width="144.25px" xmlns="http://www.w3.org/2000/svg">
  <g transform="matrix(1.0, 0.0, 0.0, 1.0, 0.0, -0.2)">
    <path d="M135.9 25.0 Q134.9 25.55 133.9 25.55 L3.0 25.55 Q2.0 25.55 1.25 24.85 0.5 24.1 0.5 23.05 L0.5 3.2 Q0.5 2.15 1.25 1.45 2.0 0.7 3.0 0.7 L133.9 0.7 Q134.85 0.7 135.9 1.25 136.9 1.8 137.4 2.6 L143.25 11.6 Q143.8 12.45 143.75 13.55 143.75 14.7 143.2 15.5 L137.45 23.7 135.9 25.0" fill="url(#gradient0)" fill-rule="evenodd" stroke="none"/>
    <path d="M135.65 1.7 Q134.7 1.2 133.9 1.2 L3.0 1.2 Q2.2 1.2 1.6 1.8 1.0 2.4 1.0 3.2 L1.0 23.05 Q1.0 23.9 1.6 24.45 2.2 25.05 3.0 25.05 L133.9 25.05 Q134.75 25.05 135.65 24.55 L137.05 23.4 142.75 15.2 Q143.25 14.55 143.25 13.55 143.3 12.6 142.85 11.9 L137.0 2.85 Q136.55 2.2 135.65 1.7 M137.9 24.0 L136.15 25.45 Q135.0 26.05 133.9 26.05 L3.0 26.05 Q1.75 26.05 0.9 25.15 0.0 24.3 0.0 23.05 L0.0 3.2 Q0.0 1.95 0.9 1.1 1.75 0.2 3.0 0.2 L133.9 0.2 Q135.0 0.2 136.1 0.8 137.25 1.4 137.85 2.35 L143.65 11.35 Q144.3 12.3 144.25 13.6 144.25 14.85 143.6 15.8 L137.9 24.0" fill="#ffc200" fill-rule="evenodd" stroke="none"/>
    <path d="M139.0 3.2 L2.45 3.2 2.45 1.9 139.0 1.9 139.0 3.2" fill="url(#gradient1)" fill-rule="evenodd" stroke="none"/>
  </g>
  <defs>
    <linearGradient gradientTransform="matrix(0.0874, 0.0, 0.0, -0.0874, 72.15, 13.1)" gradientUnits="userSpaceOnUse" id="gradient0" spreadMethod="pad" x1="-819.2" x2="819.2">
      <stop offset="0.0" stop-color="#a69400" stop-opacity="0.49803922"/>
      <stop offset="0.23529411764705882" stop-color="#b09200" stop-opacity="0.87058824"/>
      <stop offset="0.5294117647058824" stop-color="#b39100"/>
      <stop offset="0.792156862745098" stop-color="#af9200" stop-opacity="0.85490197"/>
      <stop offset="1.0" stop-color="#a69400" stop-opacity="0.49803922"/>
    </linearGradient>
    <linearGradient gradientTransform="matrix(0.0833, 0.0, 0.0, -0.0833, 70.7, 2.55)" gradientUnits="userSpaceOnUse" id="gradient1" spreadMethod="pad" x1="-819.2" x2="819.2">
      <stop offset="0.0" stop-color="#df8200" stop-opacity="0.0"/>
      <stop offset="0.01568627450980392" stop-color="#e18700" stop-opacity="0.05882353"/>
      <stop offset="0.15294117647058825" stop-color="#eea700" stop-opacity="0.46666667"/>
      <stop offset="0.2823529411764706" stop-color="#f7be00" stop-opacity="0.7607843"/>
      <stop offset="0.40784313725490196" stop-color="#fdcc00" stop-opacity="0.9372549"/>
      <stop offset="0.5137254901960784" stop-color="#ffd100"/>
      <stop offset="0.6392156862745098" stop-color="#fece00" stop-opacity="0.95686275"/>
      <stop offset="0.7450980392156863" stop-color="#fac400" stop-opacity="0.83137256"/>
      <stop offset="0.8392156862745098" stop-color="#f3b300" stop-opacity="0.6156863"/>
      <stop offset="0.9294117647058824" stop-color="#e99b00" stop-opacity="0.31764707"/>
      <stop offset="1.0" stop-color="#df8200" stop-opacity="0.0"/>
    </linearGradient>
  </defs>
</svg>
