<?xml version="1.0" encoding="UTF-8" standalone="no"?>
<svg xmlns:ffdec="https://www.free-decompiler.com/flash" xmlns:xlink="http://www.w3.org/1999/xlink" ffdec:objectType="shape" height="23.25px" width="129.85px" xmlns="http://www.w3.org/2000/svg">
  <g transform="matrix(1.0, 0.0, 0.0, 1.0, -7.2, -1.45)">
    <path d="M129.55 23.75 L127.75 24.25 9.9 24.25 Q9.0 24.25 8.35 23.6 7.65 22.95 7.65 22.0 L7.65 4.15 Q7.65 3.2 8.35 2.55 9.0 1.9 9.9 1.9 L127.75 1.9 129.55 2.35 Q130.45 2.85 130.9 3.6 L136.15 11.7 Q136.65 12.45 136.6 13.45 136.6 14.5 136.1 15.2 L130.9 22.6 129.55 23.75" fill="url(#gradient0)" fill-rule="evenodd" stroke="none"/>
    <path d="M129.7 1.95 Q130.75 2.5 131.3 3.35 L136.5 11.45 Q137.1 12.3 137.05 13.5 137.05 14.6 136.45 15.45 L131.35 22.85 Q130.75 23.6 129.75 24.15 L127.75 24.7 9.9 24.7 Q8.8 24.7 8.05 23.9 7.2 23.1 7.2 22.0 L7.2 4.15 Q7.2 3.0 8.05 2.25 8.8 1.45 9.9 1.45 L127.75 1.45 Q128.7 1.45 129.7 1.95 M129.3 2.8 L127.75 2.35 9.9 2.35 Q9.2 2.35 8.65 2.85 8.1 3.4 8.1 4.15 L8.1 22.0 Q8.1 22.75 8.65 23.25 9.2 23.8 9.9 23.8 L127.75 23.8 129.3 23.35 130.55 22.3 135.7 14.95 Q136.15 14.35 136.15 13.45 136.2 12.6 135.8 11.95 L130.5 3.8 129.3 2.8" fill="#ffc200" fill-rule="evenodd" stroke="none"/>
    <path d="M132.3 4.15 L9.4 4.15 9.4 2.95 132.3 2.95 132.3 4.15" fill="url(#gradient1)" fill-rule="evenodd" stroke="none"/>
  </g>
  <defs>
    <linearGradient gradientTransform="matrix(0.0787, 0.0, 0.0, -0.0787, 72.15, 13.05)" gradientUnits="userSpaceOnUse" id="gradient0" spreadMethod="pad" x1="-819.2" x2="819.2">
      <stop offset="0.0" stop-color="#a69400" stop-opacity="0.49803922"/>
      <stop offset="0.23529411764705882" stop-color="#b09200" stop-opacity="0.87058824"/>
      <stop offset="0.5294117647058824" stop-color="#b39100"/>
      <stop offset="0.792156862745098" stop-color="#af9200" stop-opacity="0.85490197"/>
      <stop offset="1.0" stop-color="#a69400" stop-opacity="0.49803922"/>
    </linearGradient>
    <linearGradient gradientTransform="matrix(0.075, 0.0, 0.0, -0.075, 70.85, 3.55)" gradientUnits="userSpaceOnUse" id="gradient1" spreadMethod="pad" x1="-819.2" x2="819.2">
      <stop offset="0.0" stop-color="#df8200" stop-opacity="0.0"/>
      <stop offset="0.01568627450980392" stop-color="#e18700" stop-opacity="0.05882353"/>
      <stop offset="0.15294117647058825" stop-color="#eea700" stop-opacity="0.46666667"/>
      <stop offset="0.2823529411764706" stop-color="#f7be00" stop-opacity="0.7607843"/>
      <stop offset="0.40784313725490196" stop-color="#fdcc00" stop-opacity="0.9372549"/>
      <stop offset="0.5137254901960784" stop-color="#ffd100"/>
      <stop offset="0.6392156862745098" stop-color="#fece00" stop-opacity="0.95686275"/>
      <stop offset="0.7450980392156863" stop-color="#fac400" stop-opacity="0.83137256"/>
      <stop offset="0.8392156862745098" stop-color="#f3b300" stop-opacity="0.6156863"/>
      <stop offset="0.9294117647058824" stop-color="#e99b00" stop-opacity="0.31764707"/>
      <stop offset="1.0" stop-color="#df8200" stop-opacity="0.0"/>
    </linearGradient>
  </defs>
</svg>
