<?xml version="1.0" encoding="UTF-8" standalone="no"?>
<svg xmlns:ffdec="https://www.free-decompiler.com/flash" xmlns:xlink="http://www.w3.org/1999/xlink" ffdec:objectType="shape" height="13.3px" width="72.6px" xmlns="http://www.w3.org/2000/svg">
  <g transform="matrix(1.0, 0.0, 0.0, 1.0, -29.85, -37.75)">
    <path d="M89.85 42.5 L88.8 42.65 88.0 43.25 87.5 44.1 Q87.3 44.55 87.25 45.15 L92.2 45.15 92.1 44.0 91.6 43.25 90.95 42.65 89.85 42.5 M90.0 41.2 L91.5 41.45 Q92.2 41.7 92.7 42.25 L93.5 43.5 93.7 45.45 93.7 46.3 87.25 46.3 Q87.25 47.95 88.05 48.75 88.85 49.65 90.35 49.65 L91.35 49.5 92.25 49.2 92.95 48.85 93.5 48.55 93.55 48.55 93.55 50.25 92.85 50.5 92.15 50.75 91.3 50.9 90.35 51.05 Q88.05 51.05 86.85 49.75 85.6 48.45 85.6 46.25 85.6 43.9 86.85 42.5 88.0 41.2 90.0 41.2 M85.05 42.8 L82.15 42.8 82.15 47.25 82.15 48.35 82.4 49.0 82.85 49.45 83.7 49.55 84.45 49.5 85.0 49.35 85.05 49.35 85.05 50.75 84.25 50.9 83.4 51.05 Q82.05 51.05 81.35 50.25 80.65 49.5 80.65 47.95 L80.65 42.8 79.55 42.8 79.55 41.45 80.65 41.45 80.65 38.75 82.15 38.75 82.15 41.45 85.05 41.45 85.05 42.8 M98.9 42.65 Q97.6 42.65 97.0 43.5 96.3 44.45 96.3 46.15 96.3 47.8 96.75 48.75 97.35 49.55 98.55 49.55 L99.7 49.25 100.9 48.55 100.9 43.2 99.9 42.7 98.9 42.65 M98.65 41.2 L99.9 41.4 100.9 41.8 100.9 37.75 102.45 37.75 102.45 50.85 100.9 50.85 100.9 49.8 100.3 50.35 99.65 50.75 98.95 51.05 98.15 51.05 96.7 50.75 Q96.1 50.45 95.6 49.8 L94.85 48.35 94.65 46.25 Q94.65 44.95 94.95 44.1 L95.85 42.5 97.1 41.6 98.65 41.2 M41.8 43.25 L41.2 44.1 Q41.0 44.55 40.95 45.15 L45.95 45.15 45.85 44.0 45.4 43.25 44.75 42.65 43.6 42.5 42.6 42.65 41.8 43.25 M45.3 41.45 Q45.95 41.7 46.5 42.25 L47.3 43.5 47.5 45.45 47.5 46.3 40.95 46.3 Q40.95 47.95 41.85 48.75 42.65 49.65 44.1 49.65 L45.1 49.5 46.0 49.2 46.75 48.85 Q46.95 48.65 47.3 48.55 L47.35 48.55 47.35 50.25 46.65 50.5 45.9 50.75 45.0 50.9 44.1 51.05 Q41.85 51.05 40.65 49.75 39.4 48.45 39.4 46.25 39.4 43.9 40.65 42.5 41.8 41.2 43.7 41.2 L45.3 41.45 M50.45 44.75 Q50.75 45.1 51.45 45.25 L52.25 45.45 53.2 45.65 Q54.25 45.9 54.7 46.45 55.3 47.05 55.3 48.15 L55.05 49.25 54.3 50.25 Q53.8 50.65 53.2 50.85 L51.6 51.05 49.85 50.85 48.5 50.25 48.5 48.45 48.6 48.45 49.0 48.85 49.7 49.2 50.65 49.55 51.65 49.7 52.5 49.65 53.05 49.4 53.5 48.95 53.6 48.35 53.35 47.55 Q53.0 47.25 52.25 47.05 L51.45 46.85 50.55 46.65 Q49.5 46.3 49.0 45.7 48.55 44.95 48.55 44.1 48.55 42.85 49.45 42.05 50.45 41.2 52.05 41.2 L53.55 41.45 54.85 41.9 54.85 43.6 54.8 43.6 Q54.25 43.05 53.5 42.85 L51.95 42.5 Q51.25 42.5 50.65 42.9 50.15 43.25 50.15 43.9 50.15 44.45 50.45 44.75 M58.4 38.75 L58.4 41.45 61.3 41.45 61.3 42.8 58.4 42.8 58.4 47.25 58.4 48.35 58.6 49.0 59.05 49.45 59.95 49.55 60.65 49.5 61.25 49.35 61.3 49.35 61.3 50.75 60.4 50.9 59.55 51.05 Q58.25 51.05 57.55 50.25 56.8 49.5 56.8 47.95 L56.8 42.8 55.7 42.8 55.7 41.45 56.8 41.45 56.8 38.75 58.4 38.75 M68.65 39.9 L68.65 38.25 70.4 38.25 70.4 39.9 68.65 39.9 M67.2 41.5 L67.45 41.5 67.45 43.2 67.35 43.2 67.0 43.05 66.5 43.05 65.3 43.3 Q64.6 43.6 64.05 44.2 L64.05 50.85 62.5 50.85 62.5 41.45 64.05 41.45 64.05 42.85 65.55 41.7 66.8 41.45 67.2 41.5 M70.25 41.45 L70.25 50.85 68.75 50.85 68.75 41.45 70.25 41.45 M76.25 42.6 Q75.05 42.6 74.3 43.5 73.6 44.45 73.6 46.15 73.6 47.8 74.25 48.75 75.0 49.65 76.25 49.65 L77.75 49.35 79.0 48.55 79.05 48.55 79.05 50.25 78.55 50.55 77.85 50.75 77.2 50.9 76.25 51.05 74.55 50.75 73.2 49.8 Q72.6 49.2 72.25 48.35 71.95 47.35 71.95 46.15 71.95 44.95 72.3 44.0 L73.2 42.5 Q73.7 41.9 74.55 41.6 75.35 41.2 76.25 41.2 L77.85 41.45 79.05 41.9 79.05 43.7 79.0 43.7 78.6 43.4 77.9 43.05 77.2 42.7 76.25 42.6 M37.25 40.1 Q37.6 40.8 37.6 41.7 37.6 43.05 36.9 44.0 36.2 44.95 35.0 45.35 L39.45 50.85 37.3 50.85 33.35 45.9 31.45 45.9 31.45 50.85 29.85 50.85 29.85 38.3 33.0 38.3 34.85 38.45 Q35.55 38.55 36.2 39.0 L37.25 40.1 M35.9 41.9 L35.7 40.9 35.1 40.2 34.25 39.8 33.15 39.8 31.45 39.8 31.45 44.55 32.95 44.55 34.15 44.35 35.15 43.8 35.7 43.0 35.9 41.9" fill="url(#gradient0)" fill-rule="evenodd" stroke="none"/>
  </g>
  <defs>
    <linearGradient gradientTransform="matrix(0.0, -0.0045, -0.0106, 0.0, -71.25, 45.15)" gradientUnits="userSpaceOnUse" id="gradient0" spreadMethod="pad" x1="-819.2" x2="819.2">
      <stop offset="0.0" stop-color="#e68c00"/>
      <stop offset="0.07058823529411765" stop-color="#e79800"/>
      <stop offset="0.36470588235294116" stop-color="#ecc400"/>
      <stop offset="0.6274509803921569" stop-color="#efe400"/>
      <stop offset="0.8509803921568627" stop-color="#f1f800"/>
      <stop offset="1.0" stop-color="#f2ff00"/>
    </linearGradient>
  </defs>
</svg>
