<?xml version="1.0" encoding="UTF-8" standalone="no"?>
<svg xmlns:ffdec="https://www.free-decompiler.com/flash" xmlns:xlink="http://www.w3.org/1999/xlink" ffdec:objectType="shape" height="21.85px" width="74.2px" xmlns="http://www.w3.org/2000/svg">
  <g transform="matrix(1.0, 0.0, 0.0, 1.0, -15.3, -15.7)">
    <path d="M81.2 36.55 L79.2 37.05 18.3 37.05 Q17.3 37.05 16.55 36.35 15.8 35.6 15.8 34.55 L15.8 18.7 Q15.8 17.65 16.55 16.95 17.3 16.2 18.3 16.2 L79.2 16.2 Q80.15 16.2 81.2 16.7 82.25 17.25 82.85 17.95 L88.4 25.2 Q89.0 26.0 88.95 27.05 88.95 28.15 88.3 28.9 L82.9 35.35 Q82.3 36.05 81.2 36.55" fill="url(#gradient0)" fill-rule="evenodd" stroke="none"/>
    <path d="M82.45 18.3 L81.0 17.15 Q80.05 16.7 79.2 16.7 L18.3 16.7 Q17.5 16.7 16.9 17.3 16.3 17.9 16.3 18.7 L16.3 34.55 Q16.3 35.4 16.9 35.95 17.5 36.55 18.3 36.55 L79.2 36.55 81.0 36.1 82.5 35.0 87.9 28.6 Q88.45 27.95 88.5 27.05 88.5 26.15 88.0 25.5 L82.45 18.3 M81.45 16.25 Q82.55 16.8 83.25 17.65 L88.8 24.9 Q89.5 25.8 89.5 27.1 89.45 28.35 88.7 29.25 L83.25 35.65 Q82.6 36.45 81.4 37.0 80.25 37.55 79.2 37.55 L18.3 37.55 Q17.05 37.55 16.2 36.65 15.3 35.8 15.3 34.55 L15.3 18.7 Q15.3 17.45 16.2 16.6 17.05 15.7 18.3 15.7 L79.2 15.7 Q80.3 15.7 81.45 16.25" fill="#29abe2" fill-rule="evenodd" stroke="none"/>
  </g>
  <defs>
    <linearGradient gradientTransform="matrix(0.0446, 0.0, 0.0, -0.0446, 52.4, 26.6)" gradientUnits="userSpaceOnUse" id="gradient0" spreadMethod="pad" x1="-819.2" x2="819.2">
      <stop offset="0.0" stop-color="#008cff"/>
      <stop offset="0.18823529411764706" stop-color="#0089fb" stop-opacity="0.96862745"/>
      <stop offset="0.36470588235294116" stop-color="#0081f0" stop-opacity="0.8784314"/>
      <stop offset="0.5372549019607843" stop-color="#0074dd" stop-opacity="0.7294118"/>
      <stop offset="0.7058823529411765" stop-color="#0061c2" stop-opacity="0.5176471"/>
      <stop offset="0.8705882352941177" stop-color="#004aa0" stop-opacity="0.2509804"/>
      <stop offset="1.0" stop-color="#003380" stop-opacity="0.0"/>
    </linearGradient>
  </defs>
</svg>
