<?xml version="1.0" encoding="UTF-8" standalone="no"?>
<svg xmlns:ffdec="https://www.free-decompiler.com/flash" xmlns:xlink="http://www.w3.org/1999/xlink" ffdec:objectType="shape" height="79.65px" width="108.85px" xmlns="http://www.w3.org/2000/svg">
  <g transform="matrix(1.0, 0.0, 0.0, 1.0, 0.0, 0.0)">
    <path d="M107.5 6.7 Q107.5 4.65 106.05 3.15 104.55 1.7 102.5 1.7 L6.3 1.7 Q4.25 1.7 2.75 3.15 1.3 4.65 1.3 6.7 L1.3 70.1 Q1.3 72.15 2.75 73.65 4.25 75.1 6.3 75.1 L19.35 75.1 23.4 75.45 Q25.35 75.75 26.05 76.25 L28.7 77.05 32.7 77.35 77.55 77.35 81.6 77.05 84.25 76.25 Q84.9 75.75 86.9 75.45 L90.95 75.1 102.5 75.1 Q104.55 75.1 106.05 73.65 107.5 72.15 107.5 70.1 L107.5 6.7 M103.85 0.0 Q105.9 0.0 107.4 1.45 108.85 2.95 108.85 5.0 L108.85 74.65 Q108.85 76.7 107.4 78.2 105.9 79.65 103.85 79.65 L5.0 79.65 Q2.95 79.65 1.45 78.2 0.0 76.7 0.0 74.65 L0.0 5.0 Q0.0 2.95 1.45 1.45 2.95 0.0 5.0 0.0 L103.85 0.0" fill="url(#gradient0)" fill-rule="evenodd" stroke="none"/>
  </g>
  <defs>
    <linearGradient gradientTransform="matrix(0.0, -0.0486, -0.0486, 0.0, 54.4, 39.8)" gradientUnits="userSpaceOnUse" id="gradient0" spreadMethod="pad" x1="-819.2" x2="819.2">
      <stop offset="0.0" stop-color="#017ad7"/>
      <stop offset="0.39215686274509803" stop-color="#027cd8"/>
      <stop offset="0.5764705882352941" stop-color="#0784dc"/>
      <stop offset="0.7215686274509804" stop-color="#0e91e2"/>
      <stop offset="0.8431372549019608" stop-color="#18a3ec"/>
      <stop offset="0.9490196078431372" stop-color="#26bbf8"/>
      <stop offset="1.0" stop-color="#2ec9ff"/>
    </linearGradient>
  </defs>
</svg>
