<?xml version="1.0" encoding="UTF-8" standalone="no"?>
<svg xmlns:ffdec="https://www.free-decompiler.com/flash" xmlns:xlink="http://www.w3.org/1999/xlink" ffdec:objectType="shape" height="17.7px" width="76.2px" xmlns="http://www.w3.org/2000/svg">
  <g transform="matrix(1.0, 0.0, 0.0, 1.0, -27.9, -34.5)">
    <path d="M83.6 36.1 L83.6 38.05 82.3 38.05 82.3 36.1 83.6 36.1 M87.7 39.55 L88.0 39.6 88.7 39.85 Q89.3 40.1 89.75 40.85 L89.85 41.05 Q90.55 42.4 90.65 44.6 L90.65 45.4 90.65 46.15 Q90.55 48.4 89.85 49.75 L89.75 49.9 89.75 49.95 Q88.95 51.2 87.7 51.2 86.3 51.2 85.5 49.7 84.9 48.55 84.75 46.85 L84.7 45.4 84.75 44.15 Q84.9 42.25 85.5 41.05 86.05 40.05 86.85 39.7 L87.7 39.55 M86.3 42.2 Q85.9 43.15 85.85 45.0 L85.85 45.4 Q85.85 47.5 86.3 48.55 86.8 49.6 87.7 49.6 88.25 49.6 88.7 49.1 L89.0 48.55 Q89.5 47.55 89.5 45.4 89.5 43.25 89.0 42.2 L88.7 41.7 Q88.3 41.2 87.7 41.2 L87.5 41.25 Q86.75 41.3 86.3 42.2 M83.5 39.9 L83.5 50.9 82.4 50.9 82.4 39.9 83.5 39.9 M81.55 41.4 L79.45 41.4 79.45 46.65 79.5 47.95 79.65 48.85 79.95 49.35 80.3 49.5 80.55 49.5 81.1 49.4 81.5 49.15 81.55 49.15 81.55 50.8 80.9 51.05 80.3 51.15 Q79.35 51.15 78.85 50.3 78.35 49.4 78.35 47.55 L78.35 41.4 77.6 41.4 77.6 39.9 78.35 39.9 78.35 36.7 79.45 36.7 79.45 39.9 81.55 39.9 81.55 41.4 M99.0 40.55 Q99.65 39.6 100.8 39.6 L101.9 39.85 102.85 40.4 102.85 42.35 102.8 42.35 101.85 41.5 100.75 41.2 Q100.2 41.2 99.85 41.55 99.45 41.95 99.45 42.7 L99.65 43.75 100.4 44.35 100.95 44.55 101.6 44.8 Q102.35 45.05 102.75 45.8 103.1 46.5 103.1 47.7 L102.95 49.05 102.45 50.2 101.6 50.9 100.5 51.2 99.2 50.85 98.25 50.25 98.25 48.15 98.35 48.15 98.7 48.6 99.2 49.05 99.8 49.45 100.5 49.6 101.1 49.5 101.55 49.25 101.85 48.8 101.95 48.0 101.75 46.95 100.95 46.4 100.4 46.25 99.75 45.95 Q99.0 45.55 98.65 44.85 98.3 44.05 98.3 43.0 98.3 41.45 99.0 40.55 M95.0 39.55 Q96.0 39.55 96.55 40.6 97.05 41.7 97.05 43.75 L97.05 50.9 95.95 50.9 95.95 44.6 95.9 43.2 95.75 42.15 95.35 41.5 94.7 41.35 Q94.25 41.35 93.85 41.7 L92.95 42.65 92.95 50.9 91.8 50.9 91.8 39.9 92.95 39.9 92.95 41.05 93.95 39.95 Q94.45 39.55 95.0 39.55 M56.85 36.7 L56.85 39.9 58.95 39.9 58.95 41.4 56.85 41.4 56.85 46.65 56.9 47.95 Q56.9 48.45 57.05 48.85 L57.35 49.35 57.95 49.5 58.15 49.5 58.5 49.4 58.9 49.15 58.95 49.15 58.95 50.8 58.3 51.05 57.7 51.15 Q56.75 51.15 56.25 50.3 55.9 49.75 55.8 48.8 L55.75 47.55 55.75 41.4 55.0 41.4 55.0 39.9 55.75 39.9 55.75 36.7 56.85 36.7 M46.7 39.55 Q47.35 39.65 47.8 40.2 L48.05 40.6 48.2 40.95 48.45 42.15 48.6 43.75 48.6 50.9 47.45 50.9 47.45 44.6 47.45 44.15 47.4 43.2 47.25 42.15 46.85 41.5 46.2 41.35 46.0 41.4 Q45.65 41.4 45.35 41.7 L44.45 42.65 44.45 50.9 43.3 50.9 43.3 39.9 44.45 39.9 44.45 41.05 45.45 39.95 Q45.95 39.55 46.5 39.55 L46.7 39.55 M50.5 40.55 L50.95 40.05 Q51.5 39.6 52.3 39.6 L53.4 39.85 Q53.95 40.05 54.4 40.4 L54.4 42.35 54.3 42.35 54.15 42.2 53.35 41.5 Q52.8 41.2 52.25 41.2 51.7 41.2 51.35 41.55 51.1 41.8 51.0 42.15 L50.95 42.3 50.95 42.7 50.95 43.2 51.15 43.75 51.7 44.2 51.9 44.35 52.45 44.55 Q52.75 44.6 53.1 44.8 53.65 45.0 54.0 45.4 L54.25 45.8 Q54.6 46.45 54.6 47.55 L54.6 47.7 54.55 48.7 54.45 49.05 53.95 50.2 53.1 50.9 52.0 51.2 50.75 50.85 49.75 50.25 49.75 48.15 49.85 48.15 50.2 48.6 50.3 48.7 50.7 49.05 51.3 49.45 52.0 49.6 52.6 49.5 53.05 49.25 53.35 48.8 53.4 48.7 53.45 48.0 53.4 47.55 53.25 46.95 Q53.0 46.65 52.45 46.4 L51.9 46.25 51.25 45.95 50.95 45.8 Q50.4 45.4 50.15 44.85 L49.95 44.2 Q49.8 43.65 49.8 43.0 L49.85 42.15 Q50.0 41.2 50.5 40.55 M41.0 45.4 Q41.0 43.25 40.5 42.2 40.1 41.2 39.2 41.2 38.3 41.2 37.85 42.2 37.35 43.25 37.35 45.4 37.35 47.5 37.85 48.55 38.3 49.6 39.2 49.6 40.05 49.6 40.5 48.55 41.0 47.55 41.0 45.4 M42.15 45.4 Q42.15 48.15 41.35 49.75 40.55 51.2 39.2 51.2 37.8 51.2 37.0 49.7 36.2 48.1 36.2 45.4 36.2 42.65 37.0 41.05 37.85 39.55 39.2 39.55 40.55 39.55 41.35 41.05 42.15 42.65 42.15 45.4 M60.2 41.2 Q60.75 40.1 61.55 39.7 L61.65 39.7 62.4 39.55 62.7 39.6 Q63.15 39.6 63.5 39.85 L63.75 40.0 64.35 40.8 64.7 41.7 64.9 42.35 65.1 43.95 65.1 44.55 65.1 45.55 60.45 45.55 Q60.45 46.9 60.75 47.8 L61.05 48.55 61.5 49.1 Q61.95 49.55 62.65 49.55 L63.4 49.4 63.95 49.1 64.05 49.05 64.55 48.6 64.9 48.2 64.95 48.2 64.95 50.25 64.5 50.6 63.95 50.85 63.35 51.1 62.65 51.2 Q61.05 51.2 60.2 49.7 L59.95 49.25 59.6 48.25 Q59.3 47.1 59.3 45.45 59.3 43.35 59.85 41.95 59.95 41.5 60.2 41.2 M60.45 44.15 L64.0 44.15 63.9 42.85 63.75 42.25 63.65 41.95 63.35 41.5 63.1 41.3 62.35 41.05 Q61.9 41.05 61.6 41.3 61.25 41.5 61.0 41.95 L60.6 42.9 60.45 44.15 M67.4 35.5 L67.4 50.9 66.25 50.9 66.25 35.5 67.4 35.5 M70.2 35.5 L70.2 50.9 69.05 50.9 69.05 35.5 70.2 35.5 M76.5 41.55 L76.65 43.35 76.65 50.9 75.55 50.9 75.55 49.75 75.2 50.25 74.75 50.7 74.15 51.1 73.4 51.2 72.6 50.95 71.95 50.25 71.5 49.1 Q71.35 48.45 71.35 47.7 71.35 46.6 71.65 45.75 L72.0 45.05 72.3 44.7 72.55 44.5 Q73.15 44.05 73.9 43.9 L75.55 43.65 75.55 43.25 75.45 42.25 75.1 41.65 74.9 41.45 74.6 41.3 73.95 41.25 73.0 41.45 72.0 41.95 71.9 41.95 71.9 40.1 72.75 39.75 73.95 39.6 75.1 39.75 75.75 40.15 75.95 40.4 76.5 41.55 M74.45 45.35 L73.55 45.55 73.5 45.6 Q73.1 45.8 72.8 46.3 L72.55 46.85 72.5 47.6 72.55 48.1 72.85 49.0 Q73.15 49.5 73.8 49.5 74.3 49.5 74.75 49.1 L75.55 48.2 75.55 45.1 74.55 45.3 74.45 45.35 M32.9 35.95 L33.75 36.0 Q34.15 36.1 34.45 36.3 L35.05 36.7 35.65 37.2 35.65 39.55 35.55 39.55 35.15 38.95 34.55 38.3 33.8 37.8 32.9 37.6 Q32.3 37.6 31.8 37.95 31.25 38.35 30.9 39.1 L30.3 41.0 30.1 43.55 30.3 46.2 Q30.55 47.25 30.95 48.0 31.3 48.8 31.8 49.1 L32.9 49.5 33.85 49.3 34.6 48.8 35.2 48.15 35.55 47.6 35.65 47.6 35.65 49.9 35.1 50.35 34.45 50.75 33.75 51.1 32.9 51.2 Q32.0 51.2 31.25 50.7 30.5 50.25 30.0 49.25 29.45 48.25 29.15 46.85 28.9 45.4 28.9 43.55 28.9 41.75 29.15 40.35 29.45 39.0 30.0 37.95 30.5 36.95 31.25 36.45 32.0 35.95 32.9 35.95" fill="url(#gradient0)" fill-rule="evenodd" stroke="none"/>
    <path d="M83.6 36.1 L83.6 38.05 82.3 38.05 82.3 36.1 83.6 36.1 M87.7 39.55 L88.0 39.6 88.7 39.85 Q89.3 40.1 89.75 40.85 L89.85 41.05 Q90.55 42.4 90.65 44.6 L90.65 45.4 90.65 46.15 Q90.55 48.4 89.85 49.75 L89.75 49.9 89.75 49.95 Q88.95 51.2 87.7 51.2 86.3 51.2 85.5 49.7 84.9 48.55 84.75 46.85 L84.7 45.4 84.75 44.15 Q84.9 42.25 85.5 41.05 86.05 40.05 86.85 39.7 L87.7 39.55 M86.3 42.2 Q85.9 43.15 85.85 45.0 L85.85 45.4 Q85.85 47.5 86.3 48.55 86.8 49.6 87.7 49.6 88.25 49.6 88.7 49.1 L89.0 48.55 Q89.5 47.55 89.5 45.4 89.5 43.25 89.0 42.2 L88.7 41.7 Q88.3 41.2 87.7 41.2 L87.5 41.25 Q86.75 41.3 86.3 42.2 M83.5 39.9 L83.5 50.9 82.4 50.9 82.4 39.9 83.5 39.9 M81.55 41.4 L79.45 41.4 79.45 46.65 79.5 47.95 79.65 48.85 79.95 49.35 80.3 49.5 80.55 49.5 81.1 49.4 81.5 49.15 81.55 49.15 81.55 50.8 80.9 51.05 80.3 51.15 Q79.35 51.15 78.85 50.3 78.35 49.4 78.35 47.55 L78.35 41.4 77.6 41.4 77.6 39.9 78.35 39.9 78.35 36.7 79.45 36.7 79.45 39.9 81.55 39.9 81.55 41.4 M99.0 40.55 Q99.65 39.6 100.8 39.6 L101.9 39.85 102.85 40.4 102.85 42.35 102.8 42.35 101.85 41.5 100.75 41.2 Q100.2 41.2 99.85 41.55 99.45 41.95 99.45 42.7 L99.65 43.75 100.4 44.35 100.95 44.55 101.6 44.8 Q102.35 45.05 102.75 45.8 103.1 46.5 103.1 47.7 L102.95 49.05 102.45 50.2 101.6 50.9 100.5 51.2 99.2 50.85 98.25 50.25 98.25 48.15 98.35 48.15 98.7 48.6 99.2 49.05 99.8 49.45 100.5 49.6 101.1 49.5 101.55 49.25 101.85 48.8 101.95 48.0 101.75 46.95 100.95 46.4 100.4 46.25 99.75 45.95 Q99.0 45.55 98.65 44.85 98.3 44.05 98.3 43.0 98.3 41.45 99.0 40.55 M95.0 39.55 Q96.0 39.55 96.55 40.6 97.05 41.7 97.05 43.75 L97.05 50.9 95.95 50.9 95.95 44.6 95.9 43.2 95.75 42.15 95.35 41.5 94.7 41.35 Q94.25 41.35 93.85 41.7 L92.95 42.65 92.95 50.9 91.8 50.9 91.8 39.9 92.95 39.9 92.95 41.05 93.95 39.95 Q94.45 39.55 95.0 39.55 M56.85 36.7 L56.85 39.9 58.95 39.9 58.95 41.4 56.85 41.4 56.85 46.65 56.9 47.95 Q56.9 48.45 57.05 48.85 L57.35 49.35 57.95 49.5 58.15 49.5 58.5 49.4 58.9 49.15 58.95 49.15 58.95 50.8 58.3 51.05 57.7 51.15 Q56.75 51.15 56.25 50.3 55.9 49.75 55.8 48.8 L55.75 47.55 55.75 41.4 55.0 41.4 55.0 39.9 55.75 39.9 55.75 36.7 56.85 36.7 M46.7 39.55 Q47.35 39.65 47.8 40.2 L48.05 40.6 48.2 40.95 48.45 42.15 48.6 43.75 48.6 50.9 47.45 50.9 47.45 44.6 47.45 44.15 47.4 43.2 47.25 42.15 46.85 41.5 46.2 41.35 46.0 41.4 Q45.65 41.4 45.35 41.7 L44.45 42.65 44.45 50.9 43.3 50.9 43.3 39.9 44.45 39.9 44.45 41.05 45.45 39.95 Q45.95 39.55 46.5 39.55 L46.7 39.55 M50.5 40.55 L50.95 40.05 Q51.5 39.6 52.3 39.6 L53.4 39.85 Q53.95 40.05 54.4 40.4 L54.4 42.35 54.3 42.35 54.15 42.2 53.35 41.5 Q52.8 41.2 52.25 41.2 51.7 41.2 51.35 41.55 51.1 41.8 51.0 42.15 L50.95 42.3 50.95 42.7 50.95 43.2 51.15 43.75 51.7 44.2 51.9 44.35 52.45 44.55 Q52.75 44.6 53.1 44.8 53.65 45.0 54.0 45.4 L54.25 45.8 Q54.6 46.45 54.6 47.55 L54.6 47.7 54.55 48.7 54.45 49.05 53.95 50.2 53.1 50.9 52.0 51.2 50.75 50.85 49.75 50.25 49.75 48.15 49.85 48.15 50.2 48.6 50.3 48.7 50.7 49.05 51.3 49.45 52.0 49.6 52.6 49.5 53.05 49.25 53.35 48.8 53.4 48.7 53.45 48.0 53.4 47.55 53.25 46.95 Q53.0 46.65 52.45 46.4 L51.9 46.25 51.25 45.95 50.95 45.8 Q50.4 45.4 50.15 44.85 L49.95 44.2 Q49.8 43.65 49.8 43.0 L49.85 42.15 Q50.0 41.2 50.5 40.55 M41.0 45.4 Q41.0 43.25 40.5 42.2 40.1 41.2 39.2 41.2 38.3 41.2 37.85 42.2 37.35 43.25 37.35 45.4 37.35 47.5 37.85 48.55 38.3 49.6 39.2 49.6 40.05 49.6 40.5 48.55 41.0 47.55 41.0 45.4 M42.15 45.4 Q42.15 48.15 41.35 49.75 40.55 51.2 39.2 51.2 37.8 51.2 37.0 49.7 36.2 48.1 36.2 45.4 36.2 42.65 37.0 41.05 37.85 39.55 39.2 39.55 40.55 39.55 41.35 41.05 42.15 42.65 42.15 45.4 M60.2 41.2 Q60.75 40.1 61.55 39.7 L61.65 39.7 62.4 39.55 62.7 39.6 Q63.15 39.6 63.5 39.85 L63.75 40.0 64.35 40.8 64.7 41.7 64.9 42.35 65.1 43.95 65.1 44.55 65.1 45.55 60.45 45.55 Q60.45 46.9 60.75 47.8 L61.05 48.55 61.5 49.1 Q61.95 49.55 62.65 49.55 L63.4 49.4 63.95 49.1 64.05 49.05 64.55 48.6 64.9 48.2 64.95 48.2 64.95 50.25 64.5 50.6 63.95 50.85 63.35 51.1 62.65 51.2 Q61.05 51.2 60.2 49.7 L59.95 49.25 59.6 48.25 Q59.3 47.1 59.3 45.45 59.3 43.35 59.85 41.95 59.95 41.5 60.2 41.2 M60.45 44.15 L64.0 44.15 63.9 42.85 63.75 42.25 63.65 41.95 63.35 41.5 63.1 41.3 62.35 41.05 Q61.9 41.05 61.6 41.3 61.25 41.5 61.0 41.95 L60.6 42.9 60.45 44.15 M67.4 35.5 L67.4 50.9 66.25 50.9 66.25 35.5 67.4 35.5 M70.2 35.5 L70.2 50.9 69.05 50.9 69.05 35.5 70.2 35.5 M76.5 41.55 L76.65 43.35 76.65 50.9 75.55 50.9 75.55 49.75 75.2 50.25 74.75 50.7 74.15 51.1 73.4 51.2 72.6 50.95 71.95 50.25 71.5 49.1 Q71.35 48.45 71.35 47.7 71.35 46.6 71.65 45.75 L72.0 45.05 72.3 44.7 72.55 44.5 Q73.15 44.05 73.9 43.9 L75.55 43.65 75.55 43.25 75.45 42.25 75.1 41.65 74.9 41.45 74.6 41.3 73.95 41.25 73.0 41.45 72.0 41.95 71.9 41.95 71.9 40.1 72.75 39.75 73.95 39.6 75.1 39.75 75.75 40.15 75.95 40.4 76.5 41.55 M74.45 45.35 L73.55 45.55 73.5 45.6 Q73.1 45.8 72.8 46.3 L72.55 46.85 72.5 47.6 72.55 48.1 72.85 49.0 Q73.15 49.5 73.8 49.5 74.3 49.5 74.75 49.1 L75.55 48.2 75.55 45.1 74.55 45.3 74.45 45.35 M32.9 35.95 L33.75 36.0 Q34.15 36.1 34.45 36.3 L35.05 36.7 35.65 37.2 35.65 39.55 35.55 39.55 35.15 38.95 34.55 38.3 33.8 37.8 32.9 37.6 Q32.3 37.6 31.8 37.95 31.25 38.35 30.9 39.1 L30.3 41.0 30.1 43.55 30.3 46.2 Q30.55 47.25 30.95 48.0 31.3 48.8 31.8 49.1 L32.9 49.5 33.85 49.3 34.6 48.8 35.2 48.15 35.55 47.6 35.65 47.6 35.65 49.9 35.1 50.35 34.45 50.75 33.75 51.1 32.9 51.2 Q32.0 51.2 31.25 50.7 30.5 50.25 30.0 49.25 29.45 48.25 29.15 46.85 28.9 45.4 28.9 43.55 28.9 41.75 29.15 40.35 29.45 39.0 30.0 37.95 30.5 36.95 31.25 36.45 32.0 35.95 32.9 35.95 Z" fill="none" stroke="#210e03" stroke-linecap="round" stroke-linejoin="round" stroke-width="2.0"/>
    <path d="M83.7 36.25 L83.7 38.2 82.4 38.2 82.4 36.25 83.7 36.25 M88.1 39.75 Q88.45 39.75 88.8 40.0 89.4 40.25 89.85 41.0 L89.95 41.2 Q90.65 42.55 90.75 44.75 L90.75 45.55 90.75 46.3 Q90.65 48.55 89.95 49.9 L89.85 50.05 89.85 50.1 Q89.05 51.35 87.8 51.35 86.4 51.35 85.6 49.85 85.0 48.7 84.85 47.0 L84.8 45.55 84.85 44.3 Q85.0 42.4 85.6 41.2 86.15 40.2 86.95 39.85 L87.8 39.7 88.1 39.75 M86.4 42.35 Q86.0 43.3 85.95 45.15 L85.95 45.55 Q85.95 47.65 86.4 48.7 86.9 49.75 87.8 49.75 88.35 49.75 88.8 49.25 L89.1 48.7 Q89.6 47.7 89.6 45.55 89.6 43.4 89.1 42.35 L88.8 41.85 Q88.4 41.35 87.8 41.35 L87.6 41.4 Q86.85 41.45 86.4 42.35 M83.6 40.05 L83.6 51.05 82.5 51.05 82.5 40.05 83.6 40.05 M81.65 41.55 L79.55 41.55 79.55 46.8 79.6 48.1 79.75 49.0 80.05 49.5 80.4 49.65 80.65 49.65 81.2 49.55 81.6 49.3 81.65 49.3 81.65 50.95 81.0 51.2 80.4 51.3 Q79.45 51.3 78.95 50.45 78.45 49.55 78.45 47.7 L78.45 41.55 77.7 41.55 77.7 40.05 78.45 40.05 78.45 36.85 79.55 36.85 79.55 40.05 81.65 40.05 81.65 41.55 M99.1 40.7 Q99.75 39.75 100.9 39.75 L102.0 40.0 Q102.55 40.2 102.95 40.55 L102.95 42.5 102.9 42.5 101.95 41.65 Q101.4 41.35 100.85 41.35 100.3 41.35 99.95 41.7 99.55 42.1 99.55 42.85 L99.75 43.9 100.5 44.5 101.05 44.7 Q101.35 44.75 101.7 44.95 102.45 45.2 102.85 45.95 103.2 46.65 103.2 47.85 L103.05 49.2 102.55 50.35 101.7 51.05 100.6 51.35 99.3 51.0 98.35 50.4 98.35 48.3 98.45 48.3 98.8 48.75 99.3 49.2 99.9 49.6 100.6 49.75 101.2 49.65 101.65 49.4 101.95 48.95 102.05 48.15 101.85 47.1 Q101.6 46.8 101.05 46.55 L100.5 46.4 99.85 46.1 Q99.1 45.7 98.75 45.0 98.4 44.2 98.4 43.15 98.4 41.6 99.1 40.7 M94.05 40.1 Q94.55 39.7 95.1 39.7 96.1 39.7 96.65 40.75 97.15 41.85 97.15 43.9 L97.15 51.05 96.05 51.05 96.05 44.75 96.0 43.35 95.85 42.3 95.45 41.65 94.8 41.5 Q94.35 41.5 93.95 41.85 L93.05 42.8 93.05 51.05 91.9 51.05 91.9 40.05 93.05 40.05 93.05 41.2 94.05 40.1 M56.95 36.85 L56.95 40.05 59.05 40.05 59.05 41.55 56.95 41.55 56.95 46.8 57.0 48.1 57.15 49.0 57.45 49.5 58.05 49.65 58.25 49.65 58.6 49.55 59.0 49.3 59.05 49.3 59.05 50.95 58.4 51.2 57.8 51.3 Q56.85 51.3 56.35 50.45 56.0 49.9 55.9 48.95 L55.85 47.7 55.85 41.55 55.1 41.55 55.1 40.05 55.85 40.05 55.85 36.85 56.95 36.85 M46.8 39.7 Q47.45 39.8 47.9 40.35 L48.15 40.75 48.3 41.1 48.55 42.3 48.7 43.9 48.7 51.05 47.55 51.05 47.55 44.75 47.55 44.3 47.5 43.35 47.35 42.3 46.95 41.65 46.3 41.5 46.1 41.55 Q45.75 41.55 45.45 41.85 44.95 42.25 44.55 42.8 L44.55 51.05 43.4 51.05 43.4 40.05 44.55 40.05 44.55 41.2 45.55 40.1 Q46.05 39.7 46.6 39.7 L46.8 39.7 M50.6 40.7 L51.05 40.2 Q51.6 39.75 52.4 39.75 L53.5 40.0 54.5 40.55 54.5 42.5 54.4 42.5 54.25 42.35 53.45 41.65 52.35 41.35 Q51.8 41.35 51.45 41.7 L51.1 42.3 51.05 42.45 51.05 42.85 51.05 43.35 51.25 43.9 51.8 44.35 52.0 44.5 52.55 44.7 Q52.85 44.75 53.2 44.95 53.75 45.15 54.1 45.55 L54.35 45.95 Q54.7 46.6 54.7 47.7 L54.7 47.85 54.65 48.85 54.55 49.2 54.05 50.35 53.2 51.05 52.1 51.35 50.85 51.0 49.85 50.4 49.85 48.3 49.95 48.3 50.3 48.75 50.4 48.85 50.8 49.2 51.4 49.6 52.1 49.75 52.7 49.65 53.15 49.4 53.45 48.95 53.5 48.85 53.55 48.15 53.5 47.7 53.35 47.1 52.55 46.55 52.0 46.4 51.35 46.1 51.05 45.95 50.25 45.0 50.05 44.35 Q49.9 43.8 49.9 43.15 L49.95 42.3 Q50.1 41.35 50.6 40.7 M41.1 45.55 Q41.1 43.4 40.6 42.35 40.2 41.35 39.3 41.35 38.4 41.35 37.95 42.35 37.45 43.4 37.45 45.55 37.45 47.65 37.95 48.7 38.4 49.75 39.3 49.75 40.15 49.75 40.6 48.7 41.1 47.7 41.1 45.55 M42.25 45.55 Q42.25 48.3 41.45 49.9 40.65 51.35 39.3 51.35 37.9 51.35 37.1 49.85 36.3 48.25 36.3 45.55 36.3 42.8 37.1 41.2 37.95 39.7 39.3 39.7 40.65 39.7 41.45 41.2 42.25 42.8 42.25 45.55 M60.3 41.35 Q60.85 40.25 61.65 39.85 L61.75 39.85 62.5 39.7 62.8 39.75 63.6 40.0 63.85 40.15 64.45 40.95 64.8 41.85 65.0 42.5 65.2 44.1 65.2 44.7 65.2 45.7 60.55 45.7 Q60.55 47.05 60.85 47.95 L61.15 48.7 61.6 49.25 Q62.05 49.7 62.75 49.7 L63.5 49.55 64.05 49.25 64.15 49.2 64.65 48.75 65.0 48.35 65.05 48.35 65.05 50.4 64.6 50.75 64.05 51.0 63.45 51.25 62.75 51.35 Q61.15 51.35 60.3 49.85 L60.05 49.4 59.7 48.4 Q59.4 47.25 59.4 45.6 59.4 43.5 59.95 42.1 60.05 41.65 60.3 41.35 M60.55 44.3 L64.1 44.3 64.0 43.0 63.85 42.4 63.75 42.1 63.45 41.65 63.2 41.45 Q62.9 41.2 62.45 41.2 62.0 41.2 61.7 41.45 61.35 41.65 61.1 42.1 L60.7 43.05 60.55 44.3 M70.3 35.65 L70.3 51.05 69.15 51.05 69.15 35.65 70.3 35.65 M67.5 35.65 L67.5 51.05 66.35 51.05 66.35 35.65 67.5 35.65 M76.6 41.7 L76.75 43.5 76.75 51.05 75.65 51.05 75.65 49.9 75.3 50.4 74.85 50.85 74.25 51.25 73.5 51.35 72.7 51.1 72.05 50.4 71.6 49.25 71.45 47.85 Q71.45 46.75 71.75 45.9 L72.1 45.2 72.4 44.85 72.65 44.65 Q73.25 44.2 74.0 44.05 L75.65 43.8 75.65 43.4 75.55 42.4 75.2 41.8 75.0 41.6 74.7 41.45 74.05 41.4 73.1 41.6 72.1 42.1 72.0 42.1 72.0 40.25 72.85 39.9 74.05 39.75 75.2 39.9 75.85 40.3 76.05 40.55 76.6 41.7 M73.6 45.75 Q73.2 45.95 72.9 46.45 L72.65 47.0 72.6 47.75 72.65 48.25 72.95 49.15 Q73.25 49.65 73.9 49.65 74.4 49.65 74.85 49.25 L75.65 48.35 75.65 45.25 74.65 45.45 74.55 45.5 73.65 45.7 73.6 45.75 M33.0 36.1 L33.85 36.15 34.55 36.45 35.15 36.85 35.75 37.35 35.75 39.7 35.65 39.7 35.25 39.1 34.65 38.45 33.9 37.95 33.0 37.75 Q32.4 37.75 31.9 38.1 L31.0 39.25 Q30.6 40.05 30.4 41.15 L30.2 43.7 30.4 46.35 Q30.65 47.4 31.05 48.15 31.4 48.95 31.9 49.25 32.45 49.65 33.0 49.65 L33.95 49.45 34.7 48.95 35.3 48.3 35.65 47.75 35.75 47.75 35.75 50.05 35.2 50.5 34.55 50.9 33.85 51.25 33.0 51.35 Q32.1 51.35 31.35 50.85 30.6 50.4 30.1 49.4 29.55 48.4 29.25 47.0 29.0 45.55 29.0 43.7 29.0 41.9 29.25 40.5 29.55 39.15 30.1 38.1 30.6 37.1 31.35 36.6 32.1 36.1 33.0 36.1" fill="url(#gradient1)" fill-rule="evenodd" stroke="none"/>
  </g>
  <defs>
    <linearGradient gradientTransform="matrix(0.0, -0.0086, -0.0059, 0.0, 74.05, 43.75)" gradientUnits="userSpaceOnUse" id="gradient0" spreadMethod="pad" x1="-819.2" x2="819.2">
      <stop offset="0.0" stop-color="#e68c00"/>
      <stop offset="0.07058823529411765" stop-color="#e79800"/>
      <stop offset="0.36470588235294116" stop-color="#ecc400"/>
      <stop offset="0.6274509803921569" stop-color="#efe400"/>
      <stop offset="0.8509803921568627" stop-color="#f1f800"/>
      <stop offset="1.0" stop-color="#f2ff00"/>
    </linearGradient>
    <linearGradient gradientTransform="matrix(0.0, -0.0086, -0.0059, 0.0, 74.15, 43.9)" gradientUnits="userSpaceOnUse" id="gradient1" spreadMethod="pad" x1="-819.2" x2="819.2">
      <stop offset="0.0" stop-color="#e68c00"/>
      <stop offset="0.07058823529411765" stop-color="#e79800"/>
      <stop offset="0.36470588235294116" stop-color="#ecc400"/>
      <stop offset="0.6274509803921569" stop-color="#efe400"/>
      <stop offset="0.8509803921568627" stop-color="#f1f800"/>
      <stop offset="1.0" stop-color="#f2ff00"/>
    </linearGradient>
  </defs>
</svg>
