<?xml version="1.0" encoding="UTF-8" standalone="no"?>
<svg xmlns:ffdec="https://www.free-decompiler.com/flash" xmlns:xlink="http://www.w3.org/1999/xlink" ffdec:objectType="shape" height="18.3px" width="27.05px" xmlns="http://www.w3.org/2000/svg">
  <g transform="matrix(1.0, 0.0, 0.0, 1.0, 13.5, 5.0)">
    <path d="M13.55 4.15 L12.95 4.15 12.95 2.9 13.55 2.9 13.55 4.15" fill="url(#gradient0)" fill-rule="evenodd" stroke="none"/>
    <path d="M12.95 4.8 L11.5 4.8 11.5 2.3 12.95 2.3 12.95 4.8" fill="url(#gradient1)" fill-rule="evenodd" stroke="none"/>
    <path d="M-12.85 4.15 L-13.5 4.15 -13.5 2.9 -12.85 2.9 -12.85 4.15" fill="url(#gradient2)" fill-rule="evenodd" stroke="none"/>
    <path d="M-11.45 4.8 L-12.85 4.8 -12.85 2.3 -11.45 2.3 -11.45 4.8" fill="url(#gradient3)" fill-rule="evenodd" stroke="none"/>
    <path d="M3.25 0.2 Q6.2 3.45 6.2 6.65 L5.95 9.9 Q4.9 9.3 2.55 11.1 L-0.1 13.3 -2.8 11.1 Q-5.05 9.3 -6.1 9.9 L-6.4 6.65 Q-6.4 3.4 -3.45 0.2 -1.0 -2.5 -0.1 -2.5 0.8 -2.5 3.25 0.2" fill="url(#gradient4)" fill-rule="evenodd" stroke="none"/>
    <path d="M-9.1 -1.35 L-7.25 -4.05 6.45 -4.05 8.35 -1.35 8.35 8.55 -9.1 8.55 -9.1 -1.35" fill="url(#gradient5)" fill-rule="evenodd" stroke="none"/>
    <path d="M-9.1 -1.35 L-9.1 8.55 8.35 8.55 8.35 -1.35 6.45 -4.05 -7.25 -4.05 -9.1 -1.35 Z" fill="none" stroke="#560606" stroke-linecap="butt" stroke-linejoin="miter-clip" stroke-miterlimit="4.0" stroke-width="1.0"/>
    <path d="M-7.35 -0.65 L-5.85 -2.75 5.1 -2.75 6.6 -0.65 6.6 7.3 -7.35 7.3 -7.35 -0.65" fill="#b5562e" fill-rule="evenodd" stroke="none"/>
    <path d="M-6.05 -0.1 L-4.85 -1.85 4.1 -1.85 5.35 -0.1 5.35 6.4 -6.05 6.4 -6.05 -0.1" fill="#660404" fill-rule="evenodd" stroke="none"/>
    <path d="M6.4 -5.0 Q6.85 -5.0 6.65 -4.5 6.5 -4.05 6.1 -4.05 1.7 -3.9 -7.05 -4.0 -7.5 -4.0 -7.3 -4.45 L-6.75 -4.95 Q2.0 -4.85 6.4 -5.0" fill="#7a381f" fill-rule="evenodd" stroke="none"/>
    <path d="M6.15 -4.75 L6.4 -4.6 Q6.25 -4.45 5.9 -4.45 L-6.7 -4.4 Q-7.1 -4.4 -6.9 -4.55 -6.75 -4.75 -6.4 -4.75 L6.15 -4.75" fill="#c79c61" fill-rule="evenodd" stroke="none"/>
  </g>
  <defs>
    <linearGradient gradientTransform="matrix(0.0, -8.0E-4, -8.0E-4, 0.0, 13.2, 3.5)" gradientUnits="userSpaceOnUse" id="gradient0" spreadMethod="pad" x1="-819.2" x2="819.2">
      <stop offset="0.00392156862745098" stop-color="#8f4f1a"/>
      <stop offset="0.23529411764705882" stop-color="#6b331a"/>
      <stop offset="0.27450980392156865" stop-color="#753b1a"/>
      <stop offset="0.592156862745098" stop-color="#c0771a"/>
      <stop offset="0.7411764705882353" stop-color="#de8f1a"/>
      <stop offset="1.0" stop-color="#6b331a"/>
    </linearGradient>
    <linearGradient gradientTransform="matrix(0.0, -0.0016, -0.0016, 0.0, 12.2, 3.5)" gradientUnits="userSpaceOnUse" id="gradient1" spreadMethod="pad" x1="-819.2" x2="819.2">
      <stop offset="0.0" stop-color="#eea91a"/>
      <stop offset="0.25098039215686274" stop-color="#9a5e1a"/>
      <stop offset="0.7411764705882353" stop-color="#ffb81a"/>
      <stop offset="1.0" stop-color="#b2731a"/>
    </linearGradient>
    <linearGradient gradientTransform="matrix(0.0, -8.0E-4, -8.0E-4, 0.0, -13.2, 3.5)" gradientUnits="userSpaceOnUse" id="gradient2" spreadMethod="pad" x1="-819.2" x2="819.2">
      <stop offset="0.00392156862745098" stop-color="#8f4f1a"/>
      <stop offset="0.23529411764705882" stop-color="#6b331a"/>
      <stop offset="0.27450980392156865" stop-color="#753b1a"/>
      <stop offset="0.592156862745098" stop-color="#c0771a"/>
      <stop offset="0.7411764705882353" stop-color="#de8f1a"/>
      <stop offset="1.0" stop-color="#6b331a"/>
    </linearGradient>
    <linearGradient gradientTransform="matrix(0.0, -0.0016, -0.0016, 0.0, -12.15, 3.5)" gradientUnits="userSpaceOnUse" id="gradient3" spreadMethod="pad" x1="-819.2" x2="819.2">
      <stop offset="0.0" stop-color="#eea91a"/>
      <stop offset="0.25098039215686274" stop-color="#9a5e1a"/>
      <stop offset="0.7411764705882353" stop-color="#ffb81a"/>
      <stop offset="1.0" stop-color="#b2731a"/>
    </linearGradient>
    <linearGradient gradientTransform="matrix(0.0, -0.0096, -0.0096, 0.0, -0.1, 5.4)" gradientUnits="userSpaceOnUse" id="gradient4" spreadMethod="pad" x1="-819.2" x2="819.2">
      <stop offset="0.0" stop-color="#9a361a"/>
      <stop offset="1.0" stop-color="#b2731a"/>
    </linearGradient>
    <linearGradient gradientTransform="matrix(0.0, 0.0077, 0.0077, 0.0, -0.4, 2.3)" gradientUnits="userSpaceOnUse" id="gradient5" spreadMethod="pad" x1="-819.2" x2="819.2">
      <stop offset="0.0" stop-color="#ffff00"/>
      <stop offset="0.1843137254901961" stop-color="#ffd307"/>
      <stop offset="0.7529411764705882" stop-color="#ff501d"/>
      <stop offset="1.0" stop-color="#ff1c26"/>
    </linearGradient>
  </defs>
</svg>
