<?xml version="1.0" encoding="UTF-8" standalone="no"?>
<svg xmlns:ffdec="https://www.free-decompiler.com/flash" xmlns:xlink="http://www.w3.org/1999/xlink" ffdec:objectType="shape" height="113.15px" width="206.6px" xmlns="http://www.w3.org/2000/svg">
  <g transform="matrix(1.0, 0.0, 0.0, 1.0, 0.0, 0.0)">
    <path d="M206.1 4.0 L206.1 109.15 Q206.1 110.6 205.1 111.65 204.05 112.65 202.6 112.65 L4.0 112.65 Q2.55 112.65 1.5 111.65 0.5 110.6 0.5 109.15 L0.5 4.0 Q0.5 2.55 1.5 1.55 2.55 0.5 4.0 0.5 L202.6 0.5 Q204.05 0.5 205.1 1.55 206.1 2.55 206.1 4.0" fill="url(#gradient0)" fill-rule="evenodd" stroke="none"/>
    <path d="M202.6 0.0 Q204.25 0.0 205.45 1.2 206.6 2.35 206.6 4.0 L206.6 109.15 Q206.6 110.85 205.45 112.0 204.25 113.15 202.6 113.15 L4.0 113.15 Q2.3 113.15 1.15 112.0 0.0 110.85 0.0 109.15 L0.0 4.0 Q0.0 2.35 1.15 1.2 2.3 0.0 4.0 0.0 L202.6 0.0 M205.6 4.0 Q205.6 2.75 204.7 1.9 203.85 1.0 202.6 1.0 L4.0 1.0 Q2.75 1.0 1.85 1.9 1.0 2.75 1.0 4.0 L1.0 109.15 Q1.0 110.45 1.85 111.3 2.75 112.15 4.0 112.15 L202.6 112.15 Q203.85 112.15 204.7 111.3 205.6 110.4 205.6 109.15 L205.6 4.0" fill="#0dd1f0" fill-rule="evenodd" stroke="none"/>
  </g>
  <defs>
    <linearGradient gradientTransform="matrix(-0.0868, -0.0998, -0.0998, 0.0868, 103.3, 56.6)" gradientUnits="userSpaceOnUse" id="gradient0" spreadMethod="pad" x1="-819.2" x2="819.2">
      <stop offset="0.4980392156862745" stop-color="#003671"/>
      <stop offset="0.6980392156862745" stop-color="#003773"/>
      <stop offset="0.7764705882352941" stop-color="#003c7a"/>
      <stop offset="0.8352941176470589" stop-color="#004586"/>
      <stop offset="0.8823529411764706" stop-color="#005198"/>
      <stop offset="0.9254901960784314" stop-color="#0061ae"/>
      <stop offset="0.9607843137254902" stop-color="#0074ca"/>
      <stop offset="0.996078431372549" stop-color="#008bea"/>
      <stop offset="1.0" stop-color="#008ff0"/>
    </linearGradient>
  </defs>
</svg>
