<?xml version="1.0" encoding="UTF-8" standalone="no"?>
<svg xmlns:ffdec="https://www.free-decompiler.com/flash" xmlns:xlink="http://www.w3.org/1999/xlink" ffdec:objectType="shape" height="519.4px" width="632.55px" xmlns="http://www.w3.org/2000/svg">
  <g transform="matrix(1.0, 0.0, 0.0, 1.0, 0.0, -27.0)">
    <path d="M599.25 507.4 L32.6 507.4 32.6 57.35 599.25 57.35 599.25 507.4" fill="#01061c" fill-rule="evenodd" stroke="none"/>
    <path d="M599.25 507.4 L32.6 507.4 32.6 57.35 599.25 57.35 599.25 507.4 Z" fill="none" stroke="#0459ad" stroke-linecap="butt" stroke-linejoin="miter-clip" stroke-miterlimit="4.0" stroke-width="1.0"/>
    <path d="M628.0 27.0 Q630.05 27.0 631.3 28.45 632.55 29.9 632.25 31.9 L627.75 61.0 626.85 64.9 Q626.2 66.75 625.65 67.25 625.1 67.8 624.75 69.7 624.35 71.55 624.35 73.6 L624.35 475.45 Q624.35 477.5 624.75 479.4 625.1 481.25 625.65 481.8 626.2 482.3 626.75 484.2 L627.45 488.1 632.5 541.4 Q632.75 543.45 631.4 544.95 630.05 546.4 628.0 546.4 L4.55 546.4 Q2.5 546.4 1.15 544.95 -0.15 543.45 0.05 541.4 L5.1 488.45 Q5.3 486.35 5.85 484.5 6.4 482.6 7.05 481.95 7.65 481.35 8.1 479.45 L8.55 475.45 8.55 73.6 Q8.55 71.55 8.1 69.6 7.65 67.7 7.05 67.1 6.4 66.45 5.75 64.55 5.1 62.7 4.8 60.65 L0.3 31.9 Q0.0 29.9 1.25 28.45 2.5 27.0 4.55 27.0 L628.0 27.0" fill="url(#gradient0)" fill-rule="evenodd" stroke="none"/>
    <path d="M618.1 53.2 L618.1 526.0 Q618.1 527.65 616.95 528.85 615.75 530.0 614.1 530.0 L19.95 530.0 Q18.3 530.0 17.15 528.85 15.95 527.65 15.95 526.0 L15.95 53.2 Q15.95 51.55 17.15 50.4 18.3 49.2 19.95 49.2 L614.1 49.2 Q615.75 49.2 616.95 50.4 618.1 51.55 618.1 53.2" fill="url(#gradient1)" fill-rule="evenodd" stroke="none"/>
    <path d="M614.1 58.2 L614.1 519.85 Q614.1 521.9 612.65 523.4 611.15 524.85 609.1 524.85 L24.95 524.85 Q22.9 524.85 21.4 523.4 19.95 521.9 19.95 519.85 L19.95 58.2 Q19.95 56.15 21.4 54.65 22.9 53.2 24.95 53.2 L609.1 53.2 Q611.15 53.2 612.65 54.65 614.1 56.15 614.1 58.2" fill="#0b0d11" fill-rule="evenodd" stroke="none"/>
  </g>
  <defs>
    <linearGradient gradientTransform="matrix(0.0, -0.317, -0.317, 0.0, 316.25, 286.7)" gradientUnits="userSpaceOnUse" id="gradient0" spreadMethod="pad" x1="-819.2" x2="819.2">
      <stop offset="0.0" stop-color="#505050"/>
      <stop offset="0.10980392156862745" stop-color="#282828"/>
      <stop offset="0.18823529411764706" stop-color="#3a3a3a"/>
      <stop offset="0.4196078431372549" stop-color="#676767"/>
      <stop offset="0.6235294117647059" stop-color="#888888"/>
      <stop offset="0.792156862745098" stop-color="#9d9d9d"/>
      <stop offset="0.9058823529411765" stop-color="#a4a4a4"/>
      <stop offset="1.0" stop-color="#373737"/>
    </linearGradient>
    <linearGradient gradientTransform="matrix(0.0, -0.2935, -0.2935, 0.0, 317.0, 289.6)" gradientUnits="userSpaceOnUse" id="gradient1" spreadMethod="pad" x1="-819.2" x2="819.2">
      <stop offset="0.0" stop-color="#505050"/>
      <stop offset="1.0" stop-color="#393939"/>
    </linearGradient>
  </defs>
</svg>
