<?xml version="1.0" encoding="UTF-8" standalone="no"?>
<svg xmlns:ffdec="https://www.free-decompiler.com/flash" xmlns:xlink="http://www.w3.org/1999/xlink" ffdec:objectType="shape" height="21.85px" width="47.35px" xmlns="http://www.w3.org/2000/svg">
  <g transform="matrix(1.0, 0.0, 0.0, 1.0, 0.0, 0.0)">
    <path d="M43.35 21.35 L4.0 21.35 Q2.55 21.35 1.55 20.35 0.5 19.3 0.5 17.85 L0.5 4.0 Q0.5 2.55 1.55 1.5 2.55 0.5 4.0 0.5 L43.35 0.5 Q44.8 0.5 45.85 1.5 46.85 2.55 46.85 4.0 L46.85 17.85 Q46.85 19.3 45.85 20.35 44.8 21.35 43.35 21.35" fill="url(#gradient0)" fill-rule="evenodd" stroke="none"/>
    <path d="M45.45 1.9 Q44.6 1.0 43.35 1.0 L4.0 1.0 Q2.75 1.0 1.9 1.9 1.0 2.75 1.0 4.0 L1.0 17.85 Q1.0 19.1 1.9 19.95 2.75 20.85 4.0 20.85 L43.35 20.85 Q44.6 20.85 45.45 19.95 46.35 19.1 46.35 17.85 L46.35 4.0 Q46.35 2.75 45.45 1.9 M43.35 0.0 Q45.0 0.0 46.2 1.2 47.35 2.35 47.35 4.0 L47.35 17.85 Q47.35 19.5 46.2 20.7 45.0 21.85 43.35 21.85 L4.0 21.85 Q2.35 21.85 1.2 20.7 0.0 19.5 0.0 17.85 L0.0 4.0 Q0.0 2.35 1.2 1.2 2.35 0.0 4.0 0.0 L43.35 0.0" fill="#5ebfff" fill-rule="evenodd" stroke="none"/>
  </g>
  <defs>
    <linearGradient gradientTransform="matrix(0.0, -0.0127, -0.0127, 0.0, 23.7, 10.95)" gradientUnits="userSpaceOnUse" id="gradient0" spreadMethod="pad" x1="-819.2" x2="819.2">
      <stop offset="0.0" stop-color="#0d7dc8"/>
      <stop offset="0.7647058823529411" stop-color="#04429d"/>
      <stop offset="1.0" stop-color="#1889f8"/>
    </linearGradient>
  </defs>
</svg>
