<?xml version="1.0" encoding="UTF-8" standalone="no"?>
<svg xmlns:ffdec="https://www.free-decompiler.com/flash" xmlns:xlink="http://www.w3.org/1999/xlink" ffdec:objectType="shape" height="19.65px" width="42.6px" xmlns="http://www.w3.org/2000/svg">
  <g transform="matrix(1.0, 0.0, 0.0, 1.0, -2.35, -1.1)">
    <path d="M41.35 20.3 L5.95 20.3 Q4.65 20.3 3.75 19.4 2.8 18.45 2.8 17.15 L2.8 4.7 Q2.8 3.4 3.75 2.45 4.65 1.55 5.95 1.55 L41.35 1.55 Q42.65 1.55 43.6 2.45 44.5 3.4 44.5 4.7 L44.5 17.15 Q44.5 18.45 43.6 19.4 42.65 20.3 41.35 20.3" fill="url(#gradient0)" fill-rule="evenodd" stroke="none"/>
    <path d="M41.35 1.1 Q42.85 1.1 43.95 2.2 44.95 3.2 44.95 4.7 L44.95 17.15 Q44.95 18.65 43.95 19.75 42.85 20.75 41.35 20.75 L5.95 20.75 Q4.45 20.75 3.45 19.75 2.35 18.65 2.35 17.15 L2.35 4.7 Q2.35 3.2 3.45 2.2 4.45 1.1 5.95 1.1 L41.35 1.1 M43.25 2.8 Q42.5 2.0 41.35 2.0 L5.95 2.0 Q4.8 2.0 4.05 2.8 3.25 3.55 3.25 4.7 L3.25 17.15 Q3.25 18.3 4.05 19.05 4.8 19.85 5.95 19.85 L41.35 19.85 Q42.5 19.85 43.25 19.05 44.05 18.3 44.05 17.15 L44.05 4.7 Q44.05 3.55 43.25 2.8" fill="#5ebfff" fill-rule="evenodd" stroke="none"/>
  </g>
  <defs>
    <linearGradient gradientTransform="matrix(0.0, -0.0115, -0.0115, 0.0, 23.7, 10.95)" gradientUnits="userSpaceOnUse" id="gradient0" spreadMethod="pad" x1="-819.2" x2="819.2">
      <stop offset="0.0" stop-color="#0d7dc8"/>
      <stop offset="0.7647058823529411" stop-color="#04429d"/>
      <stop offset="1.0" stop-color="#1889f8"/>
    </linearGradient>
  </defs>
</svg>
