<?xml version="1.0" encoding="UTF-8" standalone="no"?>
<svg xmlns:ffdec="https://www.free-decompiler.com/flash" xmlns:xlink="http://www.w3.org/1999/xlink" ffdec:objectType="shape" height="358.15px" width="191.4px" xmlns="http://www.w3.org/2000/svg">
  <g transform="matrix(1.0, 0.0, 0.0, 1.0, -102.05, 111.55)">
    <path d="M292.05 -110.05 Q292.95 -109.15 292.95 -107.85 L292.95 242.95 Q292.95 244.25 292.05 245.15 291.2 246.1 289.95 246.1 L105.55 246.1 Q104.3 246.1 103.45 245.15 102.55 244.25 102.55 242.95 L102.55 -107.85 Q102.55 -109.15 103.45 -110.05 104.3 -111.05 105.55 -111.05 L289.95 -111.05 Q291.2 -111.05 292.05 -110.05" fill="#010c30" fill-rule="evenodd" stroke="none"/>
    <path d="M292.05 -110.05 Q292.95 -109.15 292.95 -107.85 L292.95 242.95 Q292.95 244.25 292.05 245.15 291.2 246.1 289.95 246.1 L105.55 246.1 Q104.3 246.1 103.45 245.15 102.55 244.25 102.55 242.95 L102.55 -107.85 Q102.55 -109.15 103.45 -110.05 104.3 -111.05 105.55 -111.05 L289.95 -111.05 Q291.2 -111.05 292.05 -110.05 Z" fill="none" stroke="#043896" stroke-linecap="butt" stroke-linejoin="miter-clip" stroke-miterlimit="4.0" stroke-width="1.0"/>
  </g>
</svg>
