<?xml version="1.0" encoding="UTF-8" standalone="no"?>
<svg xmlns:ffdec="https://www.free-decompiler.com/flash" xmlns:xlink="http://www.w3.org/1999/xlink" ffdec:objectType="shape" height="15.0px" width="20.5px" xmlns="http://www.w3.org/2000/svg">
  <g transform="matrix(1.0, 0.0, 0.0, 1.0, -35.3, -32.9)">
    <path d="M45.45 33.85 Q48.25 33.85 49.7 35.55 50.7 35.3 51.45 34.45 L52.55 32.9 Q52.9 35.0 50.75 37.1 51.7 39.15 51.7 42.35 51.7 42.85 50.85 43.65 49.9 44.55 49.85 44.9 49.25 47.05 48.45 47.1 L45.45 46.65 42.6 47.05 Q42.0 47.05 41.45 44.9 41.4 44.55 40.45 43.65 39.6 42.85 39.6 42.35 39.6 39.0 40.5 37.0 38.4 35.05 38.75 32.9 L39.8 34.4 Q40.5 35.25 41.45 35.5 42.9 33.9 45.45 33.85" fill="#b7aeaa" fill-rule="evenodd" stroke="none"/>
    <path d="M44.4 47.5 Q44.4 47.9 44.0 47.9 L43.55 47.9 Q43.15 47.9 43.15 47.5 L43.15 46.95 Q43.15 46.55 43.55 46.55 L44.0 46.55 Q44.4 46.55 44.4 46.95 L44.4 47.5" fill="#ddd3cd" fill-rule="evenodd" stroke="none"/>
    <path d="M46.05 47.5 Q46.05 47.9 45.65 47.9 L45.2 47.9 Q44.8 47.9 44.8 47.5 L44.8 46.95 Q44.8 46.55 45.2 46.55 L45.65 46.55 Q46.05 46.55 46.05 46.95 L46.05 47.5" fill="#ddd3cd" fill-rule="evenodd" stroke="none"/>
    <path d="M47.85 47.5 Q47.85 47.9 47.45 47.9 L47.0 47.9 Q46.6 47.9 46.6 47.5 L46.6 46.95 Q46.6 46.55 47.0 46.55 L47.45 46.55 Q47.85 46.55 47.85 46.95 L47.85 47.5" fill="#ddd3cd" fill-rule="evenodd" stroke="none"/>
    <path d="M50.9 42.1 Q50.9 42.55 50.15 43.25 L49.25 44.35 Q48.8 46.25 48.1 46.25 L45.45 45.85 43.0 46.15 Q42.5 46.2 42.0 44.3 L41.15 43.25 Q40.4 42.5 40.4 42.1 40.4 34.85 45.45 34.75 48.3 34.7 49.7 36.9 50.9 38.8 50.9 42.1" fill="#ddd3cd" fill-rule="evenodd" stroke="none"/>
    <path d="M48.7 42.55 L47.55 43.0 Q47.05 43.0 46.7 41.9 46.6 41.25 47.05 40.75 47.4 40.4 48.25 39.95 49.2 39.45 49.85 39.5 50.7 39.5 50.8 40.25 L50.7 41.85 Q50.3 43.0 48.7 42.55" fill="#282423" fill-rule="evenodd" stroke="none"/>
    <path d="M42.7 42.55 Q40.6 43.1 40.6 40.25 40.65 39.5 41.55 39.5 42.2 39.45 43.15 39.95 44.0 40.4 44.35 40.75 44.85 41.25 44.7 41.9 44.35 43.0 43.85 43.0 L42.7 42.55" fill="#282423" fill-rule="evenodd" stroke="none"/>
    <path d="M45.5 42.85 L45.55 43.55 45.45 44.25 45.15 44.45 44.85 44.2 Q44.7 43.9 45.05 43.35 L45.5 42.85" fill="#282423" fill-rule="evenodd" stroke="none"/>
    <path d="M45.9 42.85 L46.35 43.35 Q46.7 43.9 46.55 44.2 L46.25 44.45 46.0 44.25 45.85 43.55 Q45.8 43.0 45.9 42.85" fill="#282423" fill-rule="evenodd" stroke="none"/>
    <path d="M55.8 45.6 L55.3 45.6 55.3 44.65 55.8 44.65 55.8 45.6" fill="url(#gradient0)" fill-rule="evenodd" stroke="none"/>
    <path d="M55.35 46.05 L54.25 46.05 54.25 44.15 55.35 44.15 55.35 46.05" fill="url(#gradient1)" fill-rule="evenodd" stroke="none"/>
    <path d="M35.8 45.6 L35.3 45.6 35.3 44.65 35.8 44.65 35.8 45.6" fill="url(#gradient2)" fill-rule="evenodd" stroke="none"/>
    <path d="M36.85 46.05 L35.8 46.05 35.8 44.15 36.85 44.15 36.85 46.05" fill="url(#gradient3)" fill-rule="evenodd" stroke="none"/>
    <path d="M47.25 36.25 Q47.35 36.65 46.65 36.65 L44.95 36.75 Q44.6 36.8 43.4 37.4 42.7 37.65 42.6 37.2 42.5 36.65 43.1 36.0 43.7 35.4 44.65 35.2 L46.4 35.35 Q47.15 35.65 47.25 36.25" fill="url(#gradient4)" fill-rule="evenodd" stroke="none"/>
  </g>
  <defs>
    <linearGradient gradientTransform="matrix(0.0, -6.0E-4, -6.0E-4, 0.0, 55.55, 45.1)" gradientUnits="userSpaceOnUse" id="gradient0" spreadMethod="pad" x1="-819.2" x2="819.2">
      <stop offset="0.00392156862745098" stop-color="#8f7c6c"/>
      <stop offset="0.23529411764705882" stop-color="#6b5a53"/>
      <stop offset="0.27450980392156865" stop-color="#75635a"/>
      <stop offset="0.592156862745098" stop-color="#c0aa8e"/>
      <stop offset="0.7411764705882353" stop-color="#dec6a3"/>
      <stop offset="1.0" stop-color="#6b5a53"/>
    </linearGradient>
    <linearGradient gradientTransform="matrix(0.0, -0.0012, -0.0012, 0.0, 54.8, 45.1)" gradientUnits="userSpaceOnUse" id="gradient1" spreadMethod="pad" x1="-819.2" x2="819.2">
      <stop offset="0.0" stop-color="#eed9ae"/>
      <stop offset="0.25098039215686274" stop-color="#9a8874"/>
      <stop offset="0.7411764705882353" stop-color="#ffeaba"/>
      <stop offset="1.0" stop-color="#b29f84"/>
    </linearGradient>
    <linearGradient gradientTransform="matrix(0.0, -6.0E-4, -6.0E-4, 0.0, 35.55, 45.1)" gradientUnits="userSpaceOnUse" id="gradient2" spreadMethod="pad" x1="-819.2" x2="819.2">
      <stop offset="0.00392156862745098" stop-color="#8f7c6c"/>
      <stop offset="0.23529411764705882" stop-color="#6b5a53"/>
      <stop offset="0.27450980392156865" stop-color="#75635a"/>
      <stop offset="0.592156862745098" stop-color="#c0aa8e"/>
      <stop offset="0.7411764705882353" stop-color="#dec6a3"/>
      <stop offset="1.0" stop-color="#6b5a53"/>
    </linearGradient>
    <linearGradient gradientTransform="matrix(0.0, -0.0012, -0.0012, 0.0, 36.3, 45.1)" gradientUnits="userSpaceOnUse" id="gradient3" spreadMethod="pad" x1="-819.2" x2="819.2">
      <stop offset="0.0" stop-color="#eed9ae"/>
      <stop offset="0.25098039215686274" stop-color="#9a8874"/>
      <stop offset="0.7411764705882353" stop-color="#ffeaba"/>
      <stop offset="1.0" stop-color="#b29f84"/>
    </linearGradient>
    <linearGradient gradientTransform="matrix(8.0E-4, 0.0014, 0.0014, -8.0E-4, 44.8, 36.45)" gradientUnits="userSpaceOnUse" id="gradient4" spreadMethod="pad" x1="-819.2" x2="819.2">
      <stop offset="0.0" stop-color="#e8e7dd"/>
      <stop offset="1.0" stop-color="#e8e7dd" stop-opacity="0.0"/>
    </linearGradient>
  </defs>
</svg>
