<?xml version="1.0" encoding="UTF-8" standalone="no"?>
<svg xmlns:ffdec="https://www.free-decompiler.com/flash" xmlns:xlink="http://www.w3.org/1999/xlink" ffdec:objectType="shape" height="63.85px" width="50.1px" xmlns="http://www.w3.org/2000/svg">
  <g transform="matrix(1.0, 0.0, 0.0, 1.0, -5.1, -3.7)">
    <path d="M49.0 51.85 L8.4 51.85 5.65 49.2 5.65 51.55 7.8 53.55 20.4 53.55 21.4 52.45 36.05 52.45 37.0 53.55 49.6 53.55 51.75 51.55 51.75 49.2 49.0 51.85 Z" fill="none" stroke="#3edbff" stroke-linecap="butt" stroke-linejoin="miter-clip" stroke-miterlimit="4.0" stroke-width="1.0"/>
    <path d="M21.65 51.9 L20.7 53.05 8.1 53.05 5.95 51.0 5.95 48.65 8.65 51.3 49.3 51.3 52.05 48.65 52.05 51.0 49.85 53.05 37.3 53.05 36.35 51.9 21.65 51.9" fill="#0472af" fill-rule="evenodd" stroke="none"/>
    <path d="M21.35 5.3 L36.0 5.3 36.95 4.2 49.55 4.2 51.7 6.2 51.7 8.5 48.95 5.9 8.35 5.9 5.6 8.5 5.6 6.2 7.75 4.2 20.35 4.2 21.35 5.3 Z" fill="none" stroke="#3edbff" stroke-linecap="butt" stroke-linejoin="miter-clip" stroke-miterlimit="4.0" stroke-width="1.0"/>
    <path d="M21.35 5.3 L36.0 5.3 36.95 4.2 49.55 4.2 51.7 6.2 51.7 8.5 48.95 5.9 8.35 5.9 5.6 8.5 5.6 6.2 7.75 4.2 20.35 4.2 21.35 5.3" fill="#0472af" fill-rule="evenodd" stroke="none"/>
    <path d="M53.85 44.75 Q54.45 44.85 54.4 45.8 L54.4 49.8 53.45 54.1 Q52.85 56.4 53.05 58.4 53.4 60.7 52.85 61.3 L51.8 62.55 Q51.7 62.15 51.4 62.2 51.05 62.2 50.75 61.8 50.3 61.5 50.2 62.35 50.05 63.85 49.3 64.75 49.5 64.2 49.0 63.9 48.2 63.4 47.9 62.9 47.35 62.35 47.3 63.3 L47.45 65.15 Q46.65 64.8 46.35 65.65 46.05 66.4 46.4 67.55 45.8 67.55 45.55 66.5 L45.1 65.15 Q44.9 65.0 44.7 65.4 44.5 65.75 44.3 65.65 43.2 60.65 42.5 62.55 L41.6 65.1 41.3 64.4 40.45 63.2 Q39.7 62.5 39.55 62.7 39.25 63.15 39.0 63.2 39.2 62.2 38.45 61.1 L37.25 59.3 Q37.0 58.55 37.25 57.5 L37.8 55.45 38.15 54.05 38.25 52.6 38.15 48.95 37.9 45.4 45.5 45.0 53.85 44.75" fill="url(#gradient0)" fill-rule="evenodd" stroke="none"/>
    <path d="M36.55 45.85 Q35.95 45.85 36.2 45.25 36.4 44.55 36.9 44.55 L54.8 44.45 Q55.4 44.45 55.15 45.1 54.95 45.75 54.45 45.8 L36.55 45.85" fill="#7a381f" fill-rule="evenodd" stroke="none"/>
    <path d="M37.05 45.25 L36.7 45.05 37.45 44.85 54.5 44.8 Q55.05 44.8 54.85 45.05 L54.1 45.25 37.05 45.25" fill="#c79c61" fill-rule="evenodd" stroke="none"/>
  </g>
  <defs>
    <linearGradient gradientTransform="matrix(0.0, -0.0139, -0.014, 0.0, 45.75, 56.15)" gradientUnits="userSpaceOnUse" id="gradient0" spreadMethod="pad" x1="-819.2" x2="819.2">
      <stop offset="0.0" stop-color="#006900"/>
      <stop offset="0.06666666666666667" stop-color="#45ad00"/>
      <stop offset="0.23529411764705882" stop-color="#549100"/>
      <stop offset="0.4470588235294118" stop-color="#398300"/>
      <stop offset="0.8117647058823529" stop-color="#106d00"/>
      <stop offset="1.0" stop-color="#006500"/>
    </linearGradient>
  </defs>
</svg>
