<?xml version="1.0" encoding="UTF-8" standalone="no"?>
<svg xmlns:ffdec="https://www.free-decompiler.com/flash" xmlns:xlink="http://www.w3.org/1999/xlink" ffdec:objectType="shape" height="15.0px" width="20.5px" xmlns="http://www.w3.org/2000/svg">
  <g transform="matrix(1.0, 0.0, 0.0, 1.0, -35.55, -32.95)">
    <path d="M51.75 34.5 L52.85 32.95 Q53.2 35.1 51.0 37.1 52.0 39.2 52.0 42.4 52.0 42.85 51.1 43.7 L50.1 44.95 Q49.5 47.1 48.75 47.15 L45.7 46.65 42.9 47.05 Q42.3 47.05 41.7 44.95 L40.7 43.7 Q39.85 42.85 39.85 42.4 39.85 39.05 40.75 37.05 38.65 35.1 39.0 32.95 L40.1 34.45 Q40.8 35.3 41.7 35.55 43.15 33.95 45.7 33.9 48.4 33.9 50.0 35.6 51.0 35.35 51.75 34.5" fill="#b79a8b" fill-rule="evenodd" stroke="none"/>
    <path d="M44.7 47.55 Q44.7 47.95 44.3 47.95 L43.8 47.95 Q43.4 47.95 43.4 47.55 L43.4 47.0 Q43.4 46.6 43.8 46.6 L44.3 46.6 Q44.7 46.6 44.7 47.0 L44.7 47.55" fill="#ddbba8" fill-rule="evenodd" stroke="none"/>
    <path d="M46.35 47.55 Q46.35 47.95 45.95 47.95 L45.45 47.95 Q45.05 47.95 45.05 47.55 L45.05 47.0 Q45.05 46.6 45.45 46.6 L45.95 46.6 Q46.35 46.6 46.35 47.0 L46.35 47.55" fill="#ddbba8" fill-rule="evenodd" stroke="none"/>
    <path d="M48.15 47.55 Q48.15 47.95 47.75 47.95 L47.25 47.95 Q46.85 47.95 46.85 47.55 L46.85 47.0 Q46.85 46.6 47.25 46.6 L47.75 46.6 Q48.15 46.6 48.15 47.0 L48.15 47.55" fill="#ddbba8" fill-rule="evenodd" stroke="none"/>
    <path d="M51.2 42.15 Q51.2 42.55 50.4 43.25 49.6 44.05 49.55 44.35 49.0 46.25 48.4 46.25 L45.75 45.85 43.3 46.2 Q42.75 46.25 42.3 44.35 L41.4 43.25 Q40.65 42.55 40.65 42.15 40.65 34.9 45.75 34.8 48.6 34.75 50.0 36.9 51.2 38.8 51.2 42.15" fill="#ddbba8" fill-rule="evenodd" stroke="none"/>
    <path d="M49.0 42.6 L47.8 43.05 Q47.3 43.05 46.95 41.95 46.75 40.85 48.5 40.0 49.4 39.5 50.15 39.55 51.0 39.55 51.0 40.3 L51.0 41.85 Q50.6 43.05 49.0 42.6" fill="#281a16" fill-rule="evenodd" stroke="none"/>
    <path d="M42.95 42.6 Q40.9 43.1 40.9 40.3 40.9 39.55 41.8 39.55 42.5 39.5 43.4 40.0 45.15 40.8 44.95 41.95 44.6 43.05 44.15 43.05 L42.95 42.6" fill="#281a16" fill-rule="evenodd" stroke="none"/>
    <path d="M45.75 42.85 L45.8 43.55 45.65 44.25 45.4 44.45 45.1 44.2 Q44.95 43.95 45.35 43.35 45.65 42.75 45.75 42.85" fill="#281a16" fill-rule="evenodd" stroke="none"/>
    <path d="M46.15 42.85 L46.6 43.35 Q46.95 43.95 46.8 44.2 L46.5 44.45 46.25 44.25 46.1 43.55 Q46.0 43.0 46.15 42.85" fill="#281a16" fill-rule="evenodd" stroke="none"/>
    <path d="M56.05 45.65 L55.6 45.65 55.6 44.65 56.05 44.65 56.05 45.65" fill="url(#gradient0)" fill-rule="evenodd" stroke="none"/>
    <path d="M55.6 44.15 L55.6 46.1 54.5 46.1 54.5 44.15 55.6 44.15" fill="url(#gradient1)" fill-rule="evenodd" stroke="none"/>
    <path d="M36.0 45.65 L35.55 45.65 35.55 44.65 36.0 44.65 36.0 45.65" fill="url(#gradient2)" fill-rule="evenodd" stroke="none"/>
    <path d="M37.1 44.15 L37.1 46.1 36.0 46.1 36.0 44.15 37.1 44.15" fill="url(#gradient3)" fill-rule="evenodd" stroke="none"/>
    <path d="M47.55 36.3 Q47.6 36.7 46.95 36.7 L45.2 36.8 43.65 37.4 Q42.95 37.65 42.9 37.25 42.75 36.7 43.35 36.1 43.95 35.45 44.9 35.25 L46.65 35.4 Q47.4 35.7 47.55 36.3" fill="url(#gradient4)" fill-rule="evenodd" stroke="none"/>
  </g>
  <defs>
    <linearGradient gradientTransform="matrix(0.0, -6.0E-4, -6.0E-4, 0.0, 55.85, 45.15)" gradientUnits="userSpaceOnUse" id="gradient0" spreadMethod="pad" x1="-819.2" x2="819.2">
      <stop offset="0.00392156862745098" stop-color="#8f4f1a"/>
      <stop offset="0.23529411764705882" stop-color="#6b331a"/>
      <stop offset="0.27450980392156865" stop-color="#753b1a"/>
      <stop offset="0.592156862745098" stop-color="#c0771a"/>
      <stop offset="0.7411764705882353" stop-color="#de8f1a"/>
      <stop offset="1.0" stop-color="#6b331a"/>
    </linearGradient>
    <linearGradient gradientTransform="matrix(0.0, -0.0012, -0.0012, 0.0, 55.05, 45.15)" gradientUnits="userSpaceOnUse" id="gradient1" spreadMethod="pad" x1="-819.2" x2="819.2">
      <stop offset="0.0" stop-color="#eea91a"/>
      <stop offset="0.25098039215686274" stop-color="#9a5e1a"/>
      <stop offset="0.7411764705882353" stop-color="#ffb81a"/>
      <stop offset="1.0" stop-color="#b2731a"/>
    </linearGradient>
    <linearGradient gradientTransform="matrix(0.0, -6.0E-4, -6.0E-4, 0.0, 35.8, 45.15)" gradientUnits="userSpaceOnUse" id="gradient2" spreadMethod="pad" x1="-819.2" x2="819.2">
      <stop offset="0.00392156862745098" stop-color="#8f4f1a"/>
      <stop offset="0.23529411764705882" stop-color="#6b331a"/>
      <stop offset="0.27450980392156865" stop-color="#753b1a"/>
      <stop offset="0.592156862745098" stop-color="#c0771a"/>
      <stop offset="0.7411764705882353" stop-color="#de8f1a"/>
      <stop offset="1.0" stop-color="#6b331a"/>
    </linearGradient>
    <linearGradient gradientTransform="matrix(0.0, -0.0012, -0.0012, 0.0, 36.55, 45.15)" gradientUnits="userSpaceOnUse" id="gradient3" spreadMethod="pad" x1="-819.2" x2="819.2">
      <stop offset="0.0" stop-color="#eea91a"/>
      <stop offset="0.25098039215686274" stop-color="#9a5e1a"/>
      <stop offset="0.7411764705882353" stop-color="#ffb81a"/>
      <stop offset="1.0" stop-color="#b2731a"/>
    </linearGradient>
    <linearGradient gradientTransform="matrix(8.0E-4, 0.0014, 0.0014, -8.0E-4, 45.05, 36.5)" gradientUnits="userSpaceOnUse" id="gradient4" spreadMethod="pad" x1="-819.2" x2="819.2">
      <stop offset="0.0" stop-color="#e8e6c2"/>
      <stop offset="1.0" stop-color="#e8e6c2" stop-opacity="0.0"/>
    </linearGradient>
  </defs>
</svg>
