<?xml version="1.0" encoding="UTF-8" standalone="no"?>
<svg xmlns:ffdec="https://www.free-decompiler.com/flash" xmlns:xlink="http://www.w3.org/1999/xlink" ffdec:objectType="shape" height="61.55px" width="60.75px" xmlns="http://www.w3.org/2000/svg">
  <g transform="matrix(1.0, 0.0, 0.0, 1.0, 0.0, 0.0)">
    <path d="M57.7 1.7 L59.1 3.65 Q59.95 4.75 60.25 5.75 60.65 6.1 60.65 6.9 L60.6 7.45 60.65 10.05 60.65 10.45 Q60.9 10.9 60.6 12.2 L60.65 12.5 60.65 12.9 60.65 13.4 60.2 14.6 59.1 16.4 Q58.55 17.2 58.55 18.15 L58.6 22.6 58.4 31.55 58.4 39.6 Q58.3 43.45 58.45 45.85 59.65 48.25 60.05 50.6 60.4 51.7 60.4 53.3 L60.4 55.25 Q60.25 56.15 59.75 56.5 L57.8 58.65 Q55.85 60.65 55.1 61.1 L54.15 61.45 13.35 61.45 9.25 61.55 6.25 61.35 5.25 60.4 2.7 57.45 Q0.7 55.15 0.65 54.7 L0.6 52.6 0.6 50.45 0.85 49.1 1.3 47.15 1.55 45.7 Q2.15 43.8 2.0 40.15 L2.0 31.9 Q1.7 26.45 2.0 23.65 1.9 20.5 2.05 19.0 2.15 17.45 1.85 16.7 L1.4 15.6 0.5 12.7 0.5 12.3 0.25 11.3 0.0 8.75 0.25 7.7 0.25 7.45 Q0.25 5.4 4.45 1.8 7.35 -0.75 8.25 0.3 L55.65 0.3 Q56.75 0.7 57.0 1.15 L57.7 1.7 M54.4 3.4 L7.9 3.4 7.8 3.4 7.1 4.0 4.7 5.9 Q4.45 6.2 3.75 7.9 L3.25 8.65 Q3.65 10.95 3.65 12.4 L3.65 12.65 Q4.9 14.4 4.9 16.65 L4.85 17.15 Q5.3 18.85 5.35 22.5 L5.15 31.9 5.15 40.15 4.95 44.0 4.95 46.05 4.6 47.55 3.85 50.25 3.65 53.3 3.65 54.45 4.2 55.0 7.0 58.1 10.2 58.05 14.6 58.3 53.65 58.3 Q54.55 57.05 56.75 55.0 L57.0 54.5 Q57.35 54.05 57.3 53.7 L57.1 50.9 56.5 48.55 Q56.2 47.5 56.2 46.3 L56.0 43.05 55.75 39.5 55.6 37.4 55.3 23.4 Q55.05 20.3 55.15 18.85 L55.35 17.05 55.6 16.15 57.2 12.35 57.3 11.25 57.45 9.8 57.45 7.85 Q57.05 7.0 57.15 6.7 L55.9 5.25 54.6 3.65 54.4 3.4" fill="#1357f4" fill-rule="evenodd" stroke="none"/>
  </g>
</svg>
