<?xml version="1.0" encoding="UTF-8" standalone="no"?>
<svg xmlns:ffdec="https://www.free-decompiler.com/flash" xmlns:xlink="http://www.w3.org/1999/xlink" ffdec:objectType="shape" height="58.4px" width="58.35px" xmlns="http://www.w3.org/2000/svg">
  <g transform="matrix(1.0, 0.0, 0.0, 1.0, 0.5, 0.5)">
    <path d="M4.5 0.0 L53.1 0.0 57.35 4.2 57.35 10.6 55.25 14.55 55.25 43.0 57.35 47.0 57.35 53.5 53.0 57.4 4.65 57.4 0.0 52.55 0.0 47.05 2.1 42.95 2.1 14.55 0.0 10.5 0.0 5.0 4.5 0.0" fill="#022a56" fill-rule="evenodd" stroke="none"/>
    <path d="M4.5 0.0 L53.1 0.0 57.35 4.2 57.35 10.6 55.25 14.55 55.25 43.0 57.35 47.0 57.35 53.5 53.0 57.4 4.65 57.4 0.0 52.55 0.0 47.05 2.1 42.95 2.1 14.55 0.0 10.5 0.0 5.0 4.5 0.0 Z" fill="none" stroke="#035eef" stroke-linecap="butt" stroke-linejoin="miter-clip" stroke-miterlimit="4.0" stroke-width="1.0"/>
    <path d="M3.65 36.95 L3.05 36.95 3.05 4.4 3.65 4.4 3.65 36.95" fill="url(#gradient0)" fill-rule="evenodd" stroke="none"/>
    <path d="M4.35 3.55 L4.35 2.95 36.9 2.95 36.9 3.55 4.35 3.55" fill="url(#gradient1)" fill-rule="evenodd" stroke="none"/>
  </g>
  <defs>
    <linearGradient gradientTransform="matrix(0.0, 0.0165, -4.0E-4, 0.0, 3.15, 17.95)" gradientUnits="userSpaceOnUse" id="gradient0" spreadMethod="pad" x1="-819.2" x2="819.2">
      <stop offset="0.0" stop-color="#aaaaaa" stop-opacity="0.4"/>
      <stop offset="0.4470588235294118" stop-color="#035eef" stop-opacity="0.28235295"/>
    </linearGradient>
    <linearGradient gradientTransform="matrix(0.0165, 0.0, 0.0, 4.0E-4, 17.9, 3.45)" gradientUnits="userSpaceOnUse" id="gradient1" spreadMethod="pad" x1="-819.2" x2="819.2">
      <stop offset="0.0" stop-color="#bfbfbf" stop-opacity="0.8235294"/>
      <stop offset="0.25098039215686274" stop-color="#035eef"/>
      <stop offset="0.7843137254901961" stop-color="#4761c4" stop-opacity="0.0627451"/>
    </linearGradient>
  </defs>
</svg>
