<?xml version="1.0" encoding="UTF-8" standalone="no"?>
<svg xmlns:ffdec="https://www.free-decompiler.com/flash" xmlns:xlink="http://www.w3.org/1999/xlink" ffdec:objectType="shape" height="469.65px" width="705.8px" xmlns="http://www.w3.org/2000/svg">
  <g transform="matrix(1.0, 0.0, 0.0, 1.0, -4.0, -3.55)">
    <path d="M541.55 34.3 Q540.6 35.15 539.1 35.7 537.55 36.3 536.3 36.3 L177.05 36.3 Q175.85 36.3 174.3 35.7 172.8 35.1 171.9 34.25 L167.4 30.0 Q166.5 29.15 166.75 28.5 167.0 27.9 168.25 27.9 L545.65 27.9 Q546.9 27.9 547.1 28.5 547.35 29.1 546.4 29.9 L541.55 34.3" fill="#333333" fill-rule="evenodd" stroke="none"/>
    <path d="M705.45 28.0 L707.65 30.25 Q708.55 31.1 709.2 32.6 709.8 34.1 709.8 35.35 L709.8 135.1 709.45 138.05 708.6 140.85 704.95 149.35 Q704.45 150.45 704.15 152.15 703.8 153.85 703.8 155.1 L703.8 376.1 Q703.8 379.25 704.75 381.95 L708.85 394.25 Q709.8 397.3 709.8 400.1 L709.75 456.65 Q709.75 457.9 709.15 459.4 708.5 460.9 707.65 461.75 L698.35 471.05 Q697.45 471.9 695.95 472.55 694.45 473.15 693.2 473.15 L20.45 473.2 17.7 472.55 Q16.2 471.9 15.35 471.05 L6.1 461.85 Q5.25 460.95 4.6 459.45 4.0 457.95 4.0 456.7 L4.0 400.1 Q4.0 397.0 4.95 394.25 L9.05 381.95 Q10.0 379.0 10.0 376.1 L10.0 155.1 9.65 152.15 8.8 149.35 5.2 140.85 Q4.7 139.7 4.35 138.05 4.0 136.35 4.0 135.1 L4.0 35.35 Q4.0 34.1 4.6 32.6 5.25 31.1 6.1 30.25 L8.35 28.0 Q9.2 27.15 10.7 26.5 12.2 25.9 13.45 25.9 L700.3 25.9 Q701.55 25.9 703.05 26.5 704.55 27.15 705.45 28.0" fill="url(#gradient0)" fill-rule="evenodd" stroke="none"/>
    <path d="M481.4 26.1 Q482.65 26.1 482.9 26.7 483.15 27.35 482.25 28.2 L474.45 35.65 Q473.55 36.5 472.05 37.15 470.55 37.75 469.3 37.75 L385.9 37.75 Q384.65 37.75 383.4 38.3 382.2 38.8 381.65 39.55 381.15 40.3 379.9 40.85 L377.4 41.35 333.95 41.35 331.45 40.85 Q330.15 40.3 329.6 39.55 329.05 38.8 327.75 38.3 326.45 37.75 325.2 37.75 L241.35 37.75 Q240.1 37.75 238.6 37.15 L236.15 35.7 227.9 28.15 Q226.95 27.3 227.2 26.7 227.4 26.1 228.65 26.1 L481.4 26.1" fill="#333333" fill-rule="evenodd" stroke="none"/>
    <path d="M379.65 3.55 L382.7 4.15 Q384.45 4.75 385.5 5.6 L386.85 6.7 Q387.95 7.5 388.2 8.95 388.5 10.35 387.8 11.55 L375.0 34.6 Q374.35 35.8 372.95 36.6 371.5 37.45 370.15 37.45 L338.85 37.45 Q337.5 37.45 336.1 36.55 334.65 35.75 334.05 34.55 L322.2 11.6 Q321.6 10.4 321.85 8.9 322.05 7.35 323.05 6.4 L323.55 5.9 Q324.5 4.9 326.15 4.25 327.8 3.55 329.15 3.55 L379.65 3.55" fill="url(#gradient1)" fill-rule="evenodd" stroke="none"/>
    <path d="M377.15 6.6 Q378.75 7.25 379.7 8.25 L380.3 8.8 Q381.2 9.7 381.45 11.25 381.65 12.7 381.0 13.9 L371.4 31.2 Q370.75 32.4 369.25 33.25 367.85 34.1 366.5 34.1 L366.0 34.1 Q362.7 34.1 361.75 33.5 360.65 32.9 357.45 32.9 L352.1 32.9 Q348.8 32.9 347.85 33.5 L346.3 33.95 343.75 34.1 342.75 34.1 Q341.4 34.1 339.95 33.25 338.55 32.35 337.95 31.15 L329.05 13.95 Q328.45 12.75 328.6 11.2 328.7 9.55 329.6 8.5 L329.65 8.45 Q330.45 7.4 332.05 6.7 333.6 5.95 334.95 5.95 L337.65 5.95 Q341.0 5.95 342.45 6.6 L347.2 7.25 363.55 7.25 Q366.65 7.25 368.2 6.6 369.5 5.95 372.85 5.95 L374.15 5.95 Q375.5 5.95 377.15 6.6" fill="#2b2b2a" fill-rule="evenodd" stroke="none"/>
    <path d="M341.0 28.95 L333.25 14.05 Q332.8 13.25 332.95 12.2 333.15 11.2 333.8 10.6 L334.05 10.3 335.8 9.2 Q336.95 8.7 337.85 8.7 L370.75 8.7 372.75 9.15 Q373.9 9.55 374.6 10.1 L375.45 10.75 Q376.15 11.3 376.35 12.25 376.55 13.25 376.1 14.0 L367.8 28.95 366.4 30.35 Q365.45 30.9 364.5 30.9 L344.15 30.9 Q343.3 30.9 342.35 30.35 341.45 29.75 341.0 28.95" fill="#113ebc" fill-rule="evenodd" stroke="none"/>
    <path d="M374.6 10.1 Q373.9 9.55 372.75 9.15 L370.75 8.7 337.85 8.7 Q336.95 8.7 335.8 9.2 L334.05 10.3 333.8 10.6 Q333.15 11.2 332.95 12.2 332.8 13.25 333.25 14.05 L341.0 28.95 Q341.45 29.75 342.35 30.35 343.3 30.9 344.15 30.9 L364.5 30.9 Q365.45 30.9 366.4 30.35 L367.8 28.95 376.1 14.0 Q376.55 13.25 376.35 12.25 376.15 11.3 375.45 10.75 L374.6 10.1 Z" fill="none" stroke="#03133f" stroke-linecap="butt" stroke-linejoin="miter-clip" stroke-miterlimit="4.0" stroke-width="1.0"/>
    <path d="M309.9 37.05 L313.15 37.3 Q315.55 35.9 322.6 33.6 324.55 33.0 323.4 30.9 322.3 28.85 319.75 29.65 311.0 32.6 307.45 35.6 307.15 36.4 309.9 37.05" fill="url(#gradient2)" fill-rule="evenodd" stroke="none"/>
    <path d="M400.25 37.05 L397.0 37.3 Q394.6 35.9 387.55 33.6 385.6 33.0 386.75 30.9 387.85 28.85 390.4 29.65 399.15 32.6 402.7 35.6 403.0 36.4 400.25 37.05" fill="url(#gradient3)" fill-rule="evenodd" stroke="none"/>
    <path d="M387.55 19.7 L390.05 21.25 391.35 26.4 386.05 35.25 380.9 36.6 378.4 35.1 387.55 19.7" fill="url(#gradient4)" fill-rule="evenodd" stroke="none"/>
    <path d="M392.95 29.35 L389.55 35.15 387.0 33.65 390.35 27.9 392.95 29.35" fill="#333333" fill-rule="evenodd" stroke="none"/>
    <path d="M321.7 19.7 L319.2 21.25 317.9 26.4 323.2 35.25 328.35 36.6 330.9 35.1 321.7 19.7" fill="url(#gradient5)" fill-rule="evenodd" stroke="none"/>
    <path d="M316.3 29.35 L319.7 35.15 322.25 33.65 318.9 27.9 316.3 29.35" fill="#333333" fill-rule="evenodd" stroke="none"/>
  </g>
  <defs>
    <linearGradient gradientTransform="matrix(0.0, -0.273, -0.273, 0.0, 356.9, 249.55)" gradientUnits="userSpaceOnUse" id="gradient0" spreadMethod="pad" x1="-819.2" x2="819.2">
      <stop offset="0.0" stop-color="#505050"/>
      <stop offset="0.10980392156862745" stop-color="#282828"/>
      <stop offset="0.19607843137254902" stop-color="#3a3a3a"/>
      <stop offset="0.43529411764705883" stop-color="#676767"/>
      <stop offset="0.6509803921568628" stop-color="#888888"/>
      <stop offset="0.8313725490196079" stop-color="#9d9d9d"/>
      <stop offset="0.9490196078431372" stop-color="#a4a4a4"/>
      <stop offset="0.9725490196078431" stop-color="#787878"/>
      <stop offset="0.9882352941176471" stop-color="#5c5c5c"/>
      <stop offset="1.0" stop-color="#525252"/>
    </linearGradient>
    <linearGradient gradientTransform="matrix(0.0, -0.0207, 0.0207, 0.0, 355.0, 20.5)" gradientUnits="userSpaceOnUse" id="gradient1" spreadMethod="pad" x1="-819.2" x2="819.2">
      <stop offset="0.0" stop-color="#373737"/>
      <stop offset="0.6549019607843137" stop-color="#a4a4a4"/>
      <stop offset="0.803921568627451" stop-color="#a4a4a4"/>
      <stop offset="1.0" stop-color="#6b6b6b"/>
    </linearGradient>
    <linearGradient gradientTransform="matrix(0.0016, 0.004, 0.0094, -0.0039, 281.4, 48.1)" gradientUnits="userSpaceOnUse" id="gradient2" spreadMethod="pad" x1="-819.2" x2="819.2">
      <stop offset="0.0" stop-color="#505050"/>
      <stop offset="0.09803921568627451" stop-color="#373737"/>
      <stop offset="0.5254901960784314" stop-color="#6e6861"/>
      <stop offset="0.8862745098039215" stop-color="#3d3d3d"/>
      <stop offset="1.0" stop-color="#505050"/>
    </linearGradient>
    <linearGradient gradientTransform="matrix(-0.0016, 0.004, -0.0094, -0.0039, 428.75, 48.1)" gradientUnits="userSpaceOnUse" id="gradient3" spreadMethod="pad" x1="-819.2" x2="819.2">
      <stop offset="0.0" stop-color="#505050"/>
      <stop offset="0.09803921568627451" stop-color="#373737"/>
      <stop offset="0.5254901960784314" stop-color="#6e6861"/>
      <stop offset="0.8862745098039215" stop-color="#3d3d3d"/>
      <stop offset="1.0" stop-color="#505050"/>
    </linearGradient>
    <linearGradient gradientTransform="matrix(-0.0053, 0.0096, 0.0096, 0.0053, 385.8, 29.05)" gradientUnits="userSpaceOnUse" id="gradient4" spreadMethod="pad" x1="-819.2" x2="819.2">
      <stop offset="0.0" stop-color="#505050"/>
      <stop offset="0.09803921568627451" stop-color="#373737"/>
      <stop offset="0.5254901960784314" stop-color="#6e6963"/>
      <stop offset="0.8862745098039215" stop-color="#3d3d3d"/>
      <stop offset="1.0" stop-color="#505050"/>
    </linearGradient>
    <linearGradient gradientTransform="matrix(0.0053, 0.0096, -0.0096, 0.0053, 323.45, 29.05)" gradientUnits="userSpaceOnUse" id="gradient5" spreadMethod="pad" x1="-819.2" x2="819.2">
      <stop offset="0.0" stop-color="#505050"/>
      <stop offset="0.09803921568627451" stop-color="#373737"/>
      <stop offset="0.5254901960784314" stop-color="#6e6963"/>
      <stop offset="0.8862745098039215" stop-color="#3d3d3d"/>
      <stop offset="1.0" stop-color="#505050"/>
    </linearGradient>
  </defs>
</svg>
