<?xml version="1.0" encoding="UTF-8" standalone="no"?>
<svg xmlns:ffdec="https://www.free-decompiler.com/flash" xmlns:xlink="http://www.w3.org/1999/xlink" ffdec:objectType="shape" height="438.6px" width="666.95px" xmlns="http://www.w3.org/2000/svg">
  <g transform="matrix(1.0, 0.0, 0.0, 1.0, -23.1, -34.5)">
    <path d="M689.75 58.05 L689.75 449.45 Q689.75 451.5 688.3 453.0 686.8 454.45 684.75 454.45 L664.4 454.45 660.35 454.9 Q658.35 455.4 657.65 456.1 656.95 456.8 654.95 457.25 L650.9 457.75 577.9 457.75 573.7 457.25 Q571.6 456.8 570.65 456.1 569.75 455.4 567.6 454.9 L563.4 454.45 151.9 454.45 147.85 454.9 Q145.85 455.3 145.15 455.9 144.45 456.55 142.45 456.95 L138.4 457.4 63.2 457.4 59.05 456.95 Q56.95 456.55 56.05 455.9 55.15 455.3 53.05 454.9 L48.9 454.45 28.4 454.45 Q26.35 454.45 24.85 453.0 23.4 451.5 23.4 449.45 L23.4 58.05 Q23.4 56.0 24.85 54.5 26.35 53.05 28.4 53.05 L684.75 53.05 Q686.8 53.05 688.3 54.5 689.75 56.0 689.75 58.05" fill="#0c0c0c" fill-rule="evenodd" stroke="none"/>
    <path d="M690.05 34.5 L690.05 35.7 537.45 35.7 531.05 42.1 527.6 42.1 535.15 34.5 690.05 34.5" fill="#30363d" fill-rule="evenodd" stroke="none"/>
    <path d="M529.3 34.5 L532.8 34.5 525.2 42.1 521.8 42.1 529.3 34.5" fill="#30363d" fill-rule="evenodd" stroke="none"/>
    <path d="M523.5 34.5 L527.0 34.5 519.4 42.1 515.95 42.1 523.5 34.5" fill="#30363d" fill-rule="evenodd" stroke="none"/>
    <path d="M517.65 34.5 L521.15 34.5 513.55 42.1 510.1 42.1 517.65 34.5" fill="#30363d" fill-rule="evenodd" stroke="none"/>
    <path d="M175.7 35.7 L23.1 35.7 23.1 34.5 178.0 34.5 185.55 42.1 182.1 42.1 175.7 35.7" fill="#30363d" fill-rule="evenodd" stroke="none"/>
    <path d="M183.85 34.5 L191.35 42.1 187.95 42.1 180.35 34.5 183.85 34.5" fill="#30363d" fill-rule="evenodd" stroke="none"/>
    <path d="M189.65 34.5 L197.2 42.1 193.75 42.1 186.15 34.5 189.65 34.5" fill="#30363d" fill-rule="evenodd" stroke="none"/>
    <path d="M195.5 34.5 L203.0 42.1 199.6 42.1 192.0 34.5 195.5 34.5" fill="#30363d" fill-rule="evenodd" stroke="none"/>
    <path d="M165.65 473.1 Q164.4 473.1 164.2 472.5 163.95 471.9 164.8 471.05 L169.3 466.8 Q170.2 465.95 171.7 465.35 L174.45 464.75 539.7 464.75 542.45 465.35 Q543.95 466.0 544.85 466.85 L548.95 471.0 Q549.8 471.85 549.55 472.5 549.3 473.1 548.05 473.1 L165.65 473.1" fill="#333333" fill-rule="evenodd" stroke="none"/>
  </g>
</svg>
