<?xml version="1.0" encoding="UTF-8" standalone="no"?>
<svg xmlns:ffdec="https://www.free-decompiler.com/flash" xmlns:xlink="http://www.w3.org/1999/xlink" ffdec:objectType="shape" height="397.75px" width="657.35px" xmlns="http://www.w3.org/2000/svg">
  <g transform="matrix(1.0, 0.0, 0.0, 1.0, 329.25, 183.1)">
    <path d="M-134.85 -179.6 L-134.85 211.1 Q-134.85 212.4 -135.75 213.25 -136.6 214.15 -137.85 214.15 L-325.75 214.15 Q-327.0 214.15 -327.85 213.25 -328.75 212.4 -328.75 211.1 L-328.75 -179.6 Q-328.75 -180.8 -327.85 -181.7 -327.0 -182.6 -325.75 -182.6 L-137.85 -182.6 Q-136.6 -182.6 -135.75 -181.7 -134.85 -180.8 -134.85 -179.6" fill="#01123d" fill-rule="evenodd" stroke="none"/>
    <path d="M-134.85 -179.6 L-134.85 211.1 Q-134.85 212.4 -135.75 213.25 -136.6 214.15 -137.85 214.15 L-325.75 214.15 Q-327.0 214.15 -327.85 213.25 -328.75 212.4 -328.75 211.1 L-328.75 -179.6 Q-328.75 -180.8 -327.85 -181.7 -327.0 -182.6 -325.75 -182.6 L-137.85 -182.6 Q-136.6 -182.6 -135.75 -181.7 -134.85 -180.8 -134.85 -179.6 Z" fill="none" stroke="#043896" stroke-linecap="butt" stroke-linejoin="miter-clip" stroke-miterlimit="4.0" stroke-width="1.0"/>
    <path d="M-134.85 -178.15 L-134.85 -117.7 Q-134.85 -116.45 -135.45 -115.0 -136.1 -113.5 -137.0 -112.65 L-149.05 -100.9 Q-149.9 -100.05 -151.45 -99.4 -152.95 -98.8 -154.2 -98.8 L-325.75 -98.8 Q-327.0 -98.8 -327.85 -99.7 -328.75 -100.55 -328.75 -101.8 L-328.75 -178.15 Q-328.75 -179.35 -327.85 -180.25 -327.0 -181.15 -325.75 -181.15 L-137.85 -181.15 Q-136.6 -181.15 -135.75 -180.25 -134.85 -179.35 -134.85 -178.15" fill="url(#gradient0)" fill-rule="evenodd" stroke="none"/>
    <path d="M-134.85 -178.15 L-134.85 -117.7 Q-134.85 -116.45 -135.45 -115.0 -136.1 -113.5 -137.0 -112.65 L-149.05 -100.9 Q-149.9 -100.05 -151.45 -99.4 -152.95 -98.8 -154.2 -98.8 L-325.75 -98.8 Q-327.0 -98.8 -327.85 -99.7 -328.75 -100.55 -328.75 -101.8 L-328.75 -178.15 Q-328.75 -179.35 -327.85 -180.25 -327.0 -181.15 -325.75 -181.15 L-137.85 -181.15 Q-136.6 -181.15 -135.75 -180.25 -134.85 -179.35 -134.85 -178.15 Z" fill="none" stroke="#0569e0" stroke-linecap="butt" stroke-linejoin="miter-clip" stroke-miterlimit="4.0" stroke-width="1.0"/>
    <path d="M327.1 -140.25 L327.1 207.85 Q327.1 209.1 326.2 209.95 325.35 210.85 324.1 210.85 L-128.15 210.85 Q-129.4 210.85 -130.25 209.95 -131.15 209.1 -131.15 207.85 L-131.15 -140.25 Q-131.15 -141.5 -130.25 -142.35 -129.4 -143.25 -128.15 -143.25 L324.1 -143.25 Q325.35 -143.25 326.2 -142.35 327.1 -141.5 327.1 -140.25" fill="url(#gradient1)" fill-rule="evenodd" stroke="none"/>
    <path d="M327.1 -140.25 L327.1 207.85 Q327.1 209.1 326.2 209.95 325.35 210.85 324.1 210.85 L-128.15 210.85 Q-129.4 210.85 -130.25 209.95 -131.15 209.1 -131.15 207.85 L-131.15 -140.25 Q-131.15 -141.5 -130.25 -142.35 -129.4 -143.25 -128.15 -143.25 L324.1 -143.25 Q325.35 -143.25 326.2 -142.35 327.1 -141.5 327.1 -140.25 Z" fill="none" stroke="#0068ff" stroke-linecap="butt" stroke-linejoin="miter-clip" stroke-miterlimit="4.0" stroke-width="1.0"/>
    <path d="M327.1 -145.25 L327.1 -126.45 Q327.1 -125.2 326.2 -124.35 325.35 -123.45 324.1 -123.45 L-128.15 -123.45 Q-129.4 -123.45 -130.25 -124.35 -131.15 -125.2 -131.15 -126.45 L-131.15 -145.25 Q-131.15 -146.5 -130.25 -147.35 -129.4 -148.25 -128.15 -148.25 L324.1 -148.25 Q325.35 -148.25 326.2 -147.35 327.1 -146.5 327.1 -145.25" fill="#002068" fill-rule="evenodd" stroke="none"/>
    <path d="M327.1 -145.25 L327.1 -126.45 Q327.1 -125.2 326.2 -124.35 325.35 -123.45 324.1 -123.45 L-128.15 -123.45 Q-129.4 -123.45 -130.25 -124.35 -131.15 -125.2 -131.15 -126.45 L-131.15 -145.25 Q-131.15 -146.5 -130.25 -147.35 -129.4 -148.25 -128.15 -148.25 L324.1 -148.25 Q325.35 -148.25 326.2 -147.35 327.1 -146.5 327.1 -145.25 Z" fill="none" stroke="#024ebc" stroke-linecap="butt" stroke-linejoin="miter-clip" stroke-miterlimit="4.0" stroke-width="2.0"/>
    <path d="M-128.1 178.85 L324.1 178.85 Q325.35 178.85 326.2 179.8 327.1 180.65 327.1 182.0 L327.1 208.65 Q327.1 210.0 326.2 210.9 325.35 211.85 324.1 211.85 L-128.1 211.85 Q-129.35 211.85 -130.2 210.9 -131.1 210.0 -131.1 208.65 L-131.1 182.0 Q-131.1 180.65 -130.2 179.8 -129.35 178.85 -128.1 178.85" fill="#043089" fill-rule="evenodd" stroke="none"/>
    <path d="M-128.1 178.85 L324.1 178.85 Q325.35 178.85 326.2 179.8 327.1 180.65 327.1 182.0 L327.1 208.65 Q327.1 210.0 326.2 210.9 325.35 211.85 324.1 211.85 L-128.1 211.85 Q-129.35 211.85 -130.2 210.9 -131.1 210.0 -131.1 208.65 L-131.1 182.0 Q-131.1 180.65 -130.2 179.8 -129.35 178.85 -128.1 178.85 Z" fill="none" stroke="#2e74ff" stroke-linecap="butt" stroke-linejoin="miter-clip" stroke-miterlimit="4.0" stroke-width="2.0"/>
  </g>
  <defs>
    <linearGradient gradientTransform="matrix(0.0, -0.0502, -0.0502, 0.0, -231.8, -139.95)" gradientUnits="userSpaceOnUse" id="gradient0" spreadMethod="pad" x1="-819.2" x2="819.2">
      <stop offset="0.0" stop-color="#021e6f"/>
      <stop offset="1.0" stop-color="#0440a6"/>
    </linearGradient>
    <linearGradient gradientTransform="matrix(0.0, -0.2161, -0.2161, 0.0, 98.0, 33.8)" gradientUnits="userSpaceOnUse" id="gradient1" spreadMethod="pad" x1="-819.2" x2="819.2">
      <stop offset="0.0" stop-color="#05337a"/>
      <stop offset="0.0784313725490196" stop-color="#032a68"/>
      <stop offset="0.19215686274509805" stop-color="#022257"/>
      <stop offset="0.3333333333333333" stop-color="#011c4b"/>
      <stop offset="0.5254901960784314" stop-color="#001844"/>
      <stop offset="1.0" stop-color="#001742"/>
    </linearGradient>
  </defs>
</svg>
