<?xml version="1.0" encoding="UTF-8" standalone="no"?>
<svg xmlns:ffdec="https://www.free-decompiler.com/flash" xmlns:xlink="http://www.w3.org/1999/xlink" ffdec:objectType="shape" height="43.9px" width="120.75px" xmlns="http://www.w3.org/2000/svg">
  <g transform="matrix(1.0, 0.0, 0.0, 1.0, -6.7, -2.45)">
    <path d="M126.55 42.15 Q126.55 43.55 125.5 44.55 124.4 45.5 122.95 45.5 L11.2 45.5 Q9.7 45.5 8.7 44.55 7.6 43.55 7.6 42.15 L7.6 6.6 Q7.6 5.25 8.7 4.3 9.7 3.3 11.2 3.3 L122.95 3.3 Q124.4 3.3 125.5 4.3 126.55 5.25 126.55 6.6 L126.55 42.15" fill="url(#gradient0)" fill-rule="evenodd" stroke="none"/>
    <path d="M126.55 42.15 Q126.55 43.55 125.5 44.55 124.4 45.5 122.95 45.5 L11.2 45.5 Q9.7 45.5 8.7 44.55 7.6 43.55 7.6 42.15 L7.6 6.6 Q7.6 5.25 8.7 4.3 9.7 3.3 11.2 3.3 L122.95 3.3 Q124.4 3.3 125.5 4.3 126.55 5.25 126.55 6.6 L126.55 42.15 Z" fill="none" stroke="#fa9938" stroke-linecap="round" stroke-linejoin="miter-clip" stroke-miterlimit="3.0" stroke-width="1.0"/>
    <path d="M126.1 3.7 Q127.45 4.95 127.45 6.65 L127.45 42.2 Q127.45 43.9 126.1 45.15 124.75 46.35 122.95 46.35 L11.2 46.35 Q9.35 46.35 8.0 45.15 6.7 43.9 6.7 42.2 L6.7 6.65 Q6.7 4.95 8.0 3.7 9.35 2.45 11.2 2.45 L122.95 2.45 Q124.75 2.45 126.1 3.7 M125.65 6.65 Q125.65 5.6 124.8 4.9 124.05 4.15 122.95 4.15 L11.2 4.15 Q10.05 4.15 9.3 4.9 8.5 5.6 8.5 6.65 L8.5 42.2 Q8.5 43.25 9.3 43.95 10.05 44.7 11.2 44.7 L122.95 44.7 Q124.05 44.7 124.8 43.95 125.65 43.25 125.65 42.2 L125.65 6.65" fill="#fa9938" fill-rule="evenodd" stroke="none"/>
    <path d="M97.55 41.35 L101.1 44.9 33.0 44.9 36.55 41.35 97.55 41.35" fill="#fb8815" fill-rule="evenodd" stroke="none"/>
    <path d="M97.55 41.35 L36.55 41.35 33.0 44.9 101.1 44.9 97.55 41.35 Z" fill="none" stroke="#fa9938" stroke-linecap="butt" stroke-linejoin="miter-clip" stroke-miterlimit="4.0" stroke-width="1.0"/>
    <path d="M97.55 7.65 L36.55 7.65 33.0 4.1 101.1 4.1 97.55 7.65" fill="#fb8815" fill-rule="evenodd" stroke="none"/>
    <path d="M97.55 7.65 L36.55 7.65 33.0 4.1 101.1 4.1 97.55 7.65 Z" fill="none" stroke="#fa9938" stroke-linecap="butt" stroke-linejoin="miter-clip" stroke-miterlimit="4.0" stroke-width="1.0"/>
  </g>
  <defs>
    <radialGradient cx="0" cy="0" fx="3.2" fy="0" gradientTransform="matrix(0.1581, 0.0, 0.0, 0.0784, 71.05, 62.35)" gradientUnits="userSpaceOnUse" id="gradient0" r="819.2" spreadMethod="pad">
      <stop offset="0.0" stop-color="#982e00"/>
      <stop offset="0.25882352941176473" stop-color="#9f3800"/>
      <stop offset="0.5843137254901961" stop-color="#ab4901"/>
      <stop offset="0.7607843137254902" stop-color="#bb6002"/>
      <stop offset="0.996078431372549" stop-color="#d07f03"/>
      <stop offset="1.0" stop-color="#d18003"/>
    </radialGradient>
  </defs>
</svg>
