<?xml version="1.0" encoding="UTF-8" standalone="no"?>
<svg xmlns:ffdec="https://www.free-decompiler.com/flash" xmlns:xlink="http://www.w3.org/1999/xlink" ffdec:objectType="shape" height="93.5px" width="184.15px" xmlns="http://www.w3.org/2000/svg">
  <g transform="matrix(1.0, 0.0, 0.0, 1.0, 323.95, -52.4)">
    <path d="M-145.05 53.0 Q-143.8 53.0 -142.95 54.0 -142.05 55.05 -142.05 56.5 L-142.05 141.95 Q-142.05 143.4 -142.95 144.35 -143.8 145.4 -145.05 145.4 L-318.5 145.4 Q-319.75 145.4 -320.6 144.35 -321.5 143.4 -321.5 141.95 L-321.5 56.5 Q-321.5 55.05 -320.6 54.0 -319.75 53.0 -318.5 53.0 L-145.05 53.0" fill="#02194c" fill-rule="evenodd" stroke="none"/>
    <path d="M-145.05 53.0 L-318.5 53.0 Q-319.75 53.0 -320.6 54.0 -321.5 55.05 -321.5 56.5 L-321.5 141.95 Q-321.5 143.4 -320.6 144.35 -319.75 145.4 -318.5 145.4 L-145.05 145.4 Q-143.8 145.4 -142.95 144.35 -142.05 143.4 -142.05 141.95 L-142.05 56.5 Q-142.05 55.05 -142.95 54.0 -143.8 53.0 -145.05 53.0 Z" fill="none" stroke="#023ca3" stroke-linecap="butt" stroke-linejoin="miter-clip" stroke-miterlimit="4.0" stroke-width="1.0"/>
    <path d="M-319.5 52.4 L-315.75 52.4 -315.75 53.3 -317.15 53.3 Q-318.9 53.3 -320.2 54.75 -321.45 56.2 -321.45 58.3 L-321.45 71.95 -323.95 71.95 -323.95 57.6 Q-323.95 55.45 -322.65 53.95 -321.35 52.4 -319.5 52.4" fill="#0b59d8" fill-rule="evenodd" stroke="none"/>
    <path d="M-139.8 60.35 L-142.35 60.35 -142.35 58.3 Q-142.35 56.2 -143.6 54.75 -144.9 53.3 -146.65 53.3 L-148.0 53.3 -148.0 52.4 -144.3 52.4 Q-142.45 52.4 -141.15 53.95 -139.8 55.45 -139.8 57.6 L-139.8 60.35" fill="#0b59d8" fill-rule="evenodd" stroke="none"/>
    <path d="M-319.5 145.25 Q-321.35 145.25 -322.65 143.75 -323.95 142.15 -323.95 140.0 L-323.95 125.7 -321.45 125.7 -321.45 139.4 Q-321.45 141.4 -320.2 142.9 -318.9 144.35 -317.15 144.35 L-315.75 144.35 -315.75 145.25 -319.5 145.25" fill="#0b59d8" fill-rule="evenodd" stroke="none"/>
    <path d="M-142.35 139.4 L-142.35 137.3 -139.8 137.3 -139.8 140.0 Q-139.8 142.15 -141.15 143.75 -142.45 145.25 -144.3 145.25 L-148.0 145.25 -148.0 144.35 -146.65 144.35 Q-144.9 144.35 -143.6 142.9 -142.35 141.4 -142.35 139.4" fill="#0b59d8" fill-rule="evenodd" stroke="none"/>
  </g>
</svg>
