<?xml version="1.0" encoding="UTF-8" standalone="no"?>
<svg xmlns:ffdec="https://www.free-decompiler.com/flash" xmlns:xlink="http://www.w3.org/1999/xlink" ffdec:objectType="shape" height="30.85px" width="62.75px" xmlns="http://www.w3.org/2000/svg">
  <g transform="matrix(1.0, 0.0, 0.0, 1.0, 0.0, 0.0)">
    <path d="M61.75 5.0 L61.75 25.85 Q61.75 27.5 60.6 28.7 59.45 29.85 57.75 29.85 L5.0 29.85 Q3.35 29.85 2.2 28.7 1.0 27.5 1.0 25.85 L1.0 5.0 Q1.0 3.35 2.2 2.2 3.35 1.0 5.0 1.0 L57.75 1.0 Q59.45 1.0 60.6 2.2 61.75 3.35 61.75 5.0" fill="url(#gradient0)" fill-rule="evenodd" stroke="none"/>
    <path d="M57.75 0.0 Q59.85 0.0 61.3 1.45 62.75 2.95 62.75 5.0 L62.75 25.85 Q62.75 27.9 61.3 29.4 59.85 30.85 57.75 30.85 L5.0 30.85 Q2.95 30.85 1.45 29.4 0.0 27.9 0.0 25.85 L0.0 5.0 Q0.0 2.95 1.45 1.45 2.95 0.0 5.0 0.0 L57.75 0.0 M60.75 5.0 Q60.75 3.75 59.85 2.9 59.0 2.0 57.75 2.0 L5.0 2.0 Q3.75 2.0 2.9 2.9 2.0 3.75 2.0 5.0 L2.0 25.85 Q2.0 27.1 2.9 27.95 3.75 28.85 5.0 28.85 L57.75 28.85 Q59.0 28.85 59.85 27.95 60.75 27.1 60.75 25.85 L60.75 5.0" fill="#399cff" fill-rule="evenodd" stroke="none"/>
  </g>
  <defs>
    <linearGradient gradientTransform="matrix(0.0, -0.0176, -0.0176, 0.0, 31.4, 15.45)" gradientUnits="userSpaceOnUse" id="gradient0" spreadMethod="pad" x1="-819.2" x2="819.2">
      <stop offset="0.0" stop-color="#004bc2"/>
      <stop offset="0.7647058823529411" stop-color="#003498"/>
      <stop offset="1.0" stop-color="#0057d9"/>
    </linearGradient>
  </defs>
</svg>
