<?xml version="1.0" encoding="UTF-8" standalone="no"?>
<svg xmlns:ffdec="https://www.free-decompiler.com/flash" xmlns:xlink="http://www.w3.org/1999/xlink" ffdec:objectType="shape" height="48.75px" width="134.15px" xmlns="http://www.w3.org/2000/svg">
  <g transform="matrix(1.0, 0.0, 0.0, 1.0, 0.0, 0.0)">
    <path d="M133.15 5.0 L133.15 43.75 Q133.15 45.4 132.0 46.6 130.8 47.75 129.15 47.75 L5.0 47.75 Q3.35 47.75 2.2 46.6 1.0 45.4 1.0 43.75 L1.0 5.0 Q1.0 3.35 2.2 2.2 3.35 1.0 5.0 1.0 L129.15 1.0 Q130.8 1.0 132.0 2.2 133.15 3.35 133.15 5.0" fill="#06308e" fill-rule="evenodd" stroke="none"/>
    <path d="M132.7 1.45 Q134.15 2.95 134.15 5.0 L134.15 43.75 Q134.15 45.8 132.7 47.3 131.2 48.75 129.15 48.75 L5.0 48.75 Q2.95 48.75 1.45 47.3 0.0 45.8 0.0 43.75 L0.0 5.0 Q0.0 2.95 1.45 1.45 2.95 0.0 5.0 0.0 L129.15 0.0 Q131.2 0.0 132.7 1.45 M131.25 2.9 Q130.4 2.0 129.15 2.0 L5.0 2.0 Q3.75 2.0 2.9 2.9 2.0 3.75 2.0 5.0 L2.0 43.75 Q2.0 45.0 2.9 45.85 3.75 46.75 5.0 46.75 L129.15 46.75 Q130.4 46.75 131.25 45.85 132.15 45.0 132.15 43.75 L132.15 5.0 Q132.15 3.75 131.25 2.9" fill="#0659ff" fill-rule="evenodd" stroke="none"/>
    <path d="M125.65 4.3 L6.2 32.95 Q5.0 33.2 4.15 32.55 3.3 31.9 3.3 30.65 L3.3 6.6 Q3.3 5.35 4.2 4.5 5.05 3.6 6.3 3.6 L125.55 3.6 126.8 3.8 125.65 4.3" fill="url(#gradient0)" fill-rule="evenodd" stroke="none"/>
  </g>
  <defs>
    <linearGradient gradientTransform="matrix(0.0105, 0.0259, 0.0214, -0.0087, 59.45, 6.05)" gradientUnits="userSpaceOnUse" id="gradient0" spreadMethod="pad" x1="-819.2" x2="819.2">
      <stop offset="0.0" stop-color="#c2c2b3"/>
      <stop offset="0.0196078431372549" stop-color="#b2beba" stop-opacity="0.90588236"/>
      <stop offset="0.07058823529411765" stop-color="#8eb6ca" stop-opacity="0.69411767"/>
      <stop offset="0.12941176470588237" stop-color="#6eafd9" stop-opacity="0.5058824"/>
      <stop offset="0.19215686274509805" stop-color="#52a9e5" stop-opacity="0.34509805"/>
      <stop offset="0.2627450980392157" stop-color="#3ca4ee" stop-opacity="0.21568628"/>
      <stop offset="0.34901960784313724" stop-color="#2ba1f6" stop-opacity="0.11764706"/>
      <stop offset="0.45098039215686275" stop-color="#209efb" stop-opacity="0.047058824"/>
      <stop offset="0.596078431372549" stop-color="#199cfe" stop-opacity="0.007843138"/>
      <stop offset="1.0" stop-color="#179cff" stop-opacity="0.0"/>
    </linearGradient>
  </defs>
</svg>
