<?xml version="1.0" encoding="UTF-8" standalone="no"?>
<svg xmlns:ffdec="https://www.free-decompiler.com/flash" xmlns:xlink="http://www.w3.org/1999/xlink" ffdec:objectType="shape" height="27.75px" width="56.45px" xmlns="http://www.w3.org/2000/svg">
  <g transform="matrix(1.0, 0.0, 0.0, 1.0, -3.15, -1.55)">
    <path d="M58.7 6.05 L58.7 24.8 Q58.7 26.3 57.65 27.4 56.65 28.4 55.1 28.4 L7.65 28.4 Q6.15 28.4 5.1 27.4 4.05 26.3 4.05 24.8 L4.05 6.05 Q4.05 4.55 5.1 3.55 6.15 2.45 7.65 2.45 L55.1 2.45 Q56.65 2.45 57.65 3.55 58.7 4.55 58.7 6.05" fill="url(#gradient0)" fill-rule="evenodd" stroke="none"/>
    <path d="M57.8 6.05 Q57.8 4.95 57.0 4.15 56.25 3.35 55.1 3.35 L7.65 3.35 Q6.5 3.35 5.75 4.15 4.95 4.95 4.95 6.05 L4.95 24.8 Q4.95 25.95 5.75 26.7 6.5 27.5 7.65 27.5 L55.1 27.5 Q56.25 27.5 57.0 26.7 57.8 25.95 57.8 24.8 L57.8 6.05 M55.1 1.55 Q57.0 1.55 58.3 2.85 59.6 4.2 59.6 6.05 L59.6 24.8 Q59.6 26.65 58.3 28.0 57.0 29.3 55.1 29.3 L7.65 29.3 Q5.8 29.3 4.45 28.0 3.15 26.65 3.15 24.8 L3.15 6.05 Q3.15 4.2 4.45 2.85 5.8 1.55 7.65 1.55 L55.1 1.55" fill="#3bc8ff" fill-rule="evenodd" stroke="none"/>
  </g>
  <defs>
    <linearGradient gradientTransform="matrix(0.0, -0.0159, -0.0159, 0.0, 31.4, 15.45)" gradientUnits="userSpaceOnUse" id="gradient0" spreadMethod="pad" x1="-819.2" x2="819.2">
      <stop offset="0.0" stop-color="#0070ff"/>
      <stop offset="0.7647058823529411" stop-color="#003498"/>
      <stop offset="1.0" stop-color="#0073ff"/>
    </linearGradient>
  </defs>
</svg>
