<?xml version="1.0" encoding="UTF-8" standalone="no"?>
<svg xmlns:ffdec="https://www.free-decompiler.com/flash" xmlns:xlink="http://www.w3.org/1999/xlink" ffdec:objectType="shape" height="30.85px" width="63.75px" xmlns="http://www.w3.org/2000/svg">
  <g transform="matrix(1.0, 0.0, 0.0, 1.0, 0.0, 0.0)">
    <path d="M62.75 5.0 L62.75 25.85 Q62.75 27.5 61.6 28.7 60.45 29.85 58.75 29.85 L5.0 29.85 Q3.35 29.85 2.2 28.7 1.0 27.5 1.0 25.85 L1.0 5.0 Q1.0 3.35 2.2 2.2 3.35 1.0 5.0 1.0 L58.75 1.0 Q60.45 1.0 61.6 2.2 62.75 3.35 62.75 5.0" fill="url(#gradient0)" fill-rule="evenodd" stroke="none"/>
    <path d="M58.75 0.0 Q60.85 0.0 62.3 1.45 63.75 2.95 63.75 5.0 L63.75 25.85 Q63.75 27.9 62.3 29.4 60.85 30.85 58.75 30.85 L5.0 30.85 Q2.95 30.85 1.45 29.4 0.0 27.9 0.0 25.85 L0.0 5.0 Q0.0 2.95 1.45 1.45 2.95 0.0 5.0 0.0 L58.75 0.0 M61.75 5.0 Q61.75 3.75 60.85 2.9 60.0 2.0 58.75 2.0 L5.0 2.0 Q3.75 2.0 2.9 2.9 2.0 3.75 2.0 5.0 L2.0 25.85 Q2.0 27.1 2.9 27.95 3.75 28.85 5.0 28.85 L58.75 28.85 Q60.0 28.85 60.85 27.95 61.75 27.1 61.75 25.85 L61.75 5.0" fill="#bbb300" fill-rule="evenodd" stroke="none"/>
  </g>
  <defs>
    <linearGradient gradientTransform="matrix(0.0377, 0.0, 0.0, -0.0377, 31.9, 15.45)" gradientUnits="userSpaceOnUse" id="gradient0" spreadMethod="pad" x1="-819.2" x2="819.2">
      <stop offset="0.0" stop-color="#854000"/>
      <stop offset="0.25098039215686274" stop-color="#a25d00"/>
      <stop offset="0.5294117647058824" stop-color="#bd7800"/>
      <stop offset="0.6588235294117647" stop-color="#b26d00"/>
      <stop offset="0.8823529411764706" stop-color="#965100"/>
      <stop offset="1.0" stop-color="#854000"/>
    </linearGradient>
  </defs>
</svg>
