<?xml version="1.0" encoding="UTF-8" standalone="no"?>
<svg xmlns:ffdec="https://www.free-decompiler.com/flash" xmlns:xlink="http://www.w3.org/1999/xlink" ffdec:objectType="shape" height="27.75px" width="56.45px" xmlns="http://www.w3.org/2000/svg">
  <g transform="matrix(1.0, 0.0, 0.0, 1.0, -3.45, -1.55)">
    <path d="M59.0 6.05 L59.0 24.8 Q59.0 26.3 57.95 27.4 56.95 28.4 55.4 28.4 L7.95 28.4 Q6.45 28.4 5.4 27.4 4.35 26.3 4.35 24.8 L4.35 6.05 Q4.35 4.55 5.4 3.55 6.45 2.45 7.95 2.45 L55.4 2.45 Q56.95 2.45 57.95 3.55 59.0 4.55 59.0 6.05" fill="url(#gradient0)" fill-rule="evenodd" stroke="none"/>
    <path d="M55.4 1.55 Q57.3 1.55 58.6 2.85 59.9 4.2 59.9 6.05 L59.9 24.8 Q59.9 26.65 58.6 28.0 57.3 29.3 55.4 29.3 L7.95 29.3 Q6.1 29.3 4.75 28.0 3.45 26.65 3.45 24.8 L3.45 6.05 Q3.45 4.2 4.75 2.85 6.1 1.55 7.95 1.55 L55.4 1.55 M58.1 6.05 Q58.1 4.95 57.3 4.15 56.55 3.35 55.4 3.35 L7.95 3.35 Q6.8 3.35 6.05 4.15 5.25 4.95 5.25 6.05 L5.25 24.8 Q5.25 25.95 6.05 26.7 6.8 27.5 7.95 27.5 L55.4 27.5 Q56.55 27.5 57.3 26.7 58.1 25.95 58.1 24.8 L58.1 6.05" fill="#3bc8ff" fill-rule="evenodd" stroke="none"/>
  </g>
  <defs>
    <linearGradient gradientTransform="matrix(0.0, -0.0159, -0.0159, 0.0, 31.7, 15.45)" gradientUnits="userSpaceOnUse" id="gradient0" spreadMethod="pad" x1="-819.2" x2="819.2">
      <stop offset="0.0" stop-color="#0070ff"/>
      <stop offset="0.7647058823529411" stop-color="#003498"/>
      <stop offset="1.0" stop-color="#0073ff"/>
    </linearGradient>
  </defs>
</svg>
