<?xml version="1.0" encoding="UTF-8" standalone="no"?>
<svg xmlns:ffdec="https://www.free-decompiler.com/flash" xmlns:xlink="http://www.w3.org/1999/xlink" ffdec:objectType="shape" height="61.35px" width="54.25px" xmlns="http://www.w3.org/2000/svg">
  <g transform="matrix(1.0, 0.0, 0.0, 1.0, 317.65, 170.95)">
    <path d="M-268.0 -109.6 L-284.15 -109.6 -284.15 -112.2 -268.55 -112.2 Q-266.75 -112.2 -265.5 -113.45 -264.15 -114.8 -264.15 -116.6 L-264.15 -117.95 -263.4 -117.95 -263.4 -114.15 Q-263.4 -112.25 -264.75 -110.95 -266.1 -109.6 -268.0 -109.6" fill="#0677ff" fill-rule="evenodd" stroke="none"/>
    <path d="M-284.15 -168.35 L-284.15 -170.95 -268.0 -170.95 Q-266.1 -170.95 -264.75 -169.6 -263.4 -168.3 -263.4 -166.4 L-263.4 -162.55 -264.15 -162.55 -264.15 -163.95 Q-264.15 -165.75 -265.5 -167.05 -266.75 -168.35 -268.55 -168.35 L-284.15 -168.35" fill="#0677ff" fill-rule="evenodd" stroke="none"/>
    <path d="M-315.6 -113.45 Q-314.25 -112.2 -312.45 -112.2 L-296.95 -112.2 -296.95 -109.6 -313.05 -109.6 Q-314.95 -109.6 -316.3 -110.95 -317.65 -112.25 -317.65 -114.15 L-317.65 -117.95 -316.85 -117.95 -316.85 -116.6 Q-316.85 -114.75 -315.6 -113.45" fill="#0677ff" fill-rule="evenodd" stroke="none"/>
    <path d="M-296.95 -168.35 L-312.45 -168.35 Q-314.25 -168.35 -315.6 -167.05 -316.85 -165.75 -316.85 -163.95 L-316.85 -162.55 -317.65 -162.55 -317.65 -166.4 Q-317.65 -168.3 -316.3 -169.6 -314.95 -170.95 -313.05 -170.95 L-296.95 -170.95 -296.95 -168.35" fill="#0677ff" fill-rule="evenodd" stroke="none"/>
  </g>
</svg>
