<?xml version="1.0" encoding="UTF-8" standalone="no"?>
<svg xmlns:ffdec="https://www.free-decompiler.com/flash" xmlns:xlink="http://www.w3.org/1999/xlink" ffdec:objectType="shape" height="21.95px" width="22.95px" xmlns="http://www.w3.org/2000/svg">
  <g transform="matrix(1.0, 0.0, 0.0, 1.0, 14.65, 230.4)">
    <path d="M-3.15 -229.2 L0.05 -222.65 7.25 -221.6 2.0 -216.5 3.3 -209.35 Q0.1 -211.0 -3.15 -212.75 L-9.6 -209.35 -8.4 -216.5 -13.6 -221.6 -6.4 -222.65 -3.15 -229.2" fill="#0544a0" fill-rule="evenodd" stroke="none"/>
    <path d="M-3.15 -229.2 L0.05 -222.65 7.25 -221.6 2.0 -216.5 3.3 -209.35 Q0.1 -211.0 -3.15 -212.75 L-9.6 -209.35 -8.4 -216.5 -13.6 -221.6 -6.4 -222.65 -3.15 -229.2 Z" fill="none" stroke="#0a75e0" stroke-linecap="butt" stroke-linejoin="miter-clip" stroke-miterlimit="4.0" stroke-width="1.0"/>
    <path d="M0.55 -218.4 L-3.15 -215.95 -6.9 -218.4 -6.9 -220.3 -3.15 -217.85 0.55 -220.3 0.55 -218.4" fill="#48b9ff" fill-rule="evenodd" stroke="none"/>
  </g>
</svg>
