<?xml version="1.0" encoding="UTF-8" standalone="no"?>
<svg xmlns:ffdec="https://www.free-decompiler.com/flash" xmlns:xlink="http://www.w3.org/1999/xlink" ffdec:objectType="shape" height="16.0px" width="44.2px" xmlns="http://www.w3.org/2000/svg">
  <g transform="matrix(1.0, 0.0, 0.0, 1.0, 3.55, -0.25)">
    <path d="M36.1 0.55 Q37.75 0.55 38.95 1.2 40.1 1.85 40.1 2.75 L40.1 13.8 Q40.1 14.7 38.95 15.3 37.75 15.95 36.1 15.95 L1.0 15.95 Q-0.65 15.95 -1.85 15.3 -3.0 14.7 -3.0 13.8 L-3.0 2.75 Q-3.0 1.85 -1.85 1.2 -0.65 0.55 1.0 0.55 L36.1 0.55" fill="#042d7f" fill-rule="evenodd" stroke="none"/>
    <path d="M36.1 0.25 Q38.0 0.25 39.35 1.0 40.65 1.7 40.65 2.75 L40.65 13.8 Q40.65 14.8 39.35 15.55 38.0 16.25 36.1 16.25 L1.0 16.25 Q-0.85 16.25 -2.2 15.55 -3.55 14.8 -3.55 13.8 L-3.55 2.75 Q-3.55 1.7 -2.2 1.0 -0.85 0.25 1.0 0.25 L36.1 0.25 M36.1 0.9 L1.0 0.9 Q-0.4 0.9 -1.4 1.45 -2.4 1.95 -2.4 2.75 L-2.4 13.8 Q-2.4 14.55 -1.4 15.1 -0.4 15.65 1.0 15.65 L36.1 15.65 Q37.55 15.65 38.5 15.1 39.5 14.55 39.5 13.8 L39.5 2.75 Q39.5 1.95 38.5 1.45 37.55 0.9 36.1 0.9" fill="#399cff" fill-rule="evenodd" stroke="none"/>
  </g>
</svg>
