<?xml version="1.0" encoding="UTF-8" standalone="no"?>
<svg xmlns:ffdec="https://www.free-decompiler.com/flash" xmlns:xlink="http://www.w3.org/1999/xlink" ffdec:objectType="shape" height="16.4px" width="44.2px" xmlns="http://www.w3.org/2000/svg">
  <g transform="matrix(1.0, 0.0, 0.0, 1.0, 3.55, -0.3)">
    <path d="M36.1 0.6 Q37.75 0.6 38.95 1.25 40.1 1.9 40.1 2.85 L40.1 14.15 Q40.1 15.1 38.95 15.7 37.75 16.4 36.1 16.4 L1.0 16.4 Q-0.65 16.4 -1.85 15.7 -3.0 15.1 -3.0 14.15 L-3.0 2.85 Q-3.0 1.9 -1.85 1.25 -0.65 0.6 1.0 0.6 L36.1 0.6" fill="url(#gradient0)" fill-rule="evenodd" stroke="none"/>
    <path d="M36.1 0.95 L1.0 0.95 Q-0.4 0.95 -1.4 1.5 -2.4 2.05 -2.4 2.85 L-2.4 14.15 Q-2.4 14.95 -1.4 15.5 -0.4 16.05 1.0 16.05 L36.1 16.05 Q37.5 16.05 38.5 15.5 39.5 14.95 39.5 14.15 L39.5 2.85 Q39.5 2.05 38.5 1.5 37.5 0.95 36.1 0.95 M36.1 0.3 Q37.95 0.3 39.35 1.05 40.65 1.8 40.65 2.85 L40.65 14.15 Q40.65 15.2 39.35 16.0 37.95 16.7 36.1 16.7 L1.0 16.7 Q-0.9 16.7 -2.2 16.0 -3.55 15.2 -3.55 14.15 L-3.55 2.85 Q-3.55 1.8 -2.2 1.05 -0.9 0.3 1.0 0.3 L36.1 0.3" fill="#399cff" fill-rule="evenodd" stroke="none"/>
  </g>
  <defs>
    <linearGradient gradientTransform="matrix(0.0, -0.0096, -0.0173, 0.0, 18.5, 8.5)" gradientUnits="userSpaceOnUse" id="gradient0" spreadMethod="pad" x1="-819.2" x2="819.2">
      <stop offset="0.0" stop-color="#004bc2"/>
      <stop offset="0.7647058823529411" stop-color="#003498"/>
      <stop offset="1.0" stop-color="#0057d9"/>
    </linearGradient>
  </defs>
</svg>
