<?xml version="1.0" encoding="UTF-8" standalone="no"?>
<svg xmlns:ffdec="https://www.free-decompiler.com/flash" xmlns:xlink="http://www.w3.org/1999/xlink" ffdec:objectType="shape" height="21.05px" width="113.1px" xmlns="http://www.w3.org/2000/svg">
  <g transform="matrix(1.0, 0.0, 0.0, 1.0, -6.3, -1.15)">
    <path d="M113.9 3.95 L118.7 19.8 Q118.9 20.6 118.55 21.05 118.15 21.5 117.35 21.5 L8.35 21.5 Q7.55 21.5 7.2 21.05 6.8 20.6 7.05 19.8 L11.8 3.95 Q12.05 3.05 12.9 2.45 13.75 1.8 14.65 1.8 L111.05 1.8 Q111.95 1.8 112.85 2.45 113.65 3.05 113.9 3.95" fill="url(#gradient0)" fill-rule="evenodd" stroke="none"/>
    <path d="M119.3 19.65 Q119.6 20.7 119.0 21.45 118.5 22.2 117.35 22.2 L8.3 22.2 Q7.2 22.2 6.65 21.45 6.1 20.7 6.4 19.65 L11.15 3.7 Q11.45 2.7 12.5 1.9 13.5 1.15 14.6 1.15 L111.05 1.15 Q112.2 1.15 113.2 1.9 114.2 2.7 114.5 3.7 L119.3 19.65 M117.35 20.85 L117.95 20.65 118.0 20.0 113.25 4.1 Q113.1 3.5 112.4 3.0 111.75 2.5 111.05 2.5 L14.6 2.5 Q13.95 2.5 13.25 3.0 12.65 3.5 12.4 4.1 L7.7 20.0 Q7.55 20.45 7.75 20.65 7.85 20.85 8.3 20.85 L117.35 20.85" fill="#fa9938" fill-rule="evenodd" stroke="none"/>
  </g>
  <defs>
    <linearGradient gradientTransform="matrix(0.0, -0.0115, 0.0134, 0.0, -200.65, 11.95)" gradientUnits="userSpaceOnUse" id="gradient0" spreadMethod="pad" x1="-819.2" x2="819.2">
      <stop offset="0.0" stop-color="#982e00"/>
      <stop offset="0.25882352941176473" stop-color="#9f3800"/>
      <stop offset="0.5843137254901961" stop-color="#ab4901"/>
      <stop offset="0.7607843137254902" stop-color="#bb6002"/>
      <stop offset="0.996078431372549" stop-color="#d07f03"/>
      <stop offset="1.0" stop-color="#d18003"/>
    </linearGradient>
  </defs>
</svg>
