<?xml version="1.0" encoding="UTF-8" standalone="no"?>
<svg xmlns:ffdec="https://www.free-decompiler.com/flash" xmlns:xlink="http://www.w3.org/1999/xlink" ffdec:objectType="shape" height="14.4px" width="40.85px" xmlns="http://www.w3.org/2000/svg">
  <g transform="matrix(1.0, 0.0, 0.0, 1.0, 2.4, -1.05)">
    <path d="M34.25 1.35 Q35.75 1.35 36.85 1.9 37.9 2.5 37.9 3.3 L37.9 13.25 Q37.9 14.05 36.85 14.6 35.75 15.2 34.25 15.2 L1.8 15.2 Q0.25 15.2 -0.85 14.6 -1.9 14.05 -1.9 13.25 L-1.9 3.3 Q-1.9 2.5 -0.85 1.9 0.25 1.35 1.8 1.35 L34.25 1.35" fill="url(#gradient0)" fill-rule="evenodd" stroke="none"/>
    <path d="M34.25 1.05 Q35.95 1.05 37.25 1.75 38.45 2.35 38.45 3.3 L38.45 13.25 Q38.45 14.15 37.25 14.85 35.95 15.45 34.25 15.45 L1.8 15.45 Q0.05 15.45 -1.15 14.85 -2.4 14.15 -2.4 13.25 L-2.4 3.3 Q-2.4 2.35 -1.15 1.75 0.05 1.05 1.8 1.05 L34.25 1.05 M34.25 1.6 L1.8 1.6 Q0.45 1.6 -0.4 2.1 -1.35 2.6 -1.35 3.3 L-1.35 13.25 Q-1.35 13.95 -0.4 14.4 L1.8 14.9 34.25 14.9 36.45 14.4 Q37.4 13.95 37.4 13.25 L37.4 3.3 Q37.4 2.6 36.45 2.1 35.55 1.6 34.25 1.6" fill="#399cff" fill-rule="evenodd" stroke="none"/>
  </g>
  <defs>
    <linearGradient gradientTransform="matrix(0.0, -0.0084, -0.016, 0.0, 18.0, 8.25)" gradientUnits="userSpaceOnUse" id="gradient0" spreadMethod="pad" x1="-819.2" x2="819.2">
      <stop offset="0.0" stop-color="#004bc2"/>
      <stop offset="0.7647058823529411" stop-color="#003498"/>
      <stop offset="1.0" stop-color="#0057d9"/>
    </linearGradient>
  </defs>
</svg>
