<?xml version="1.0" encoding="UTF-8" standalone="no"?>
<svg xmlns:ffdec="https://www.free-decompiler.com/flash" xmlns:xlink="http://www.w3.org/1999/xlink" ffdec:objectType="shape" height="19.9px" width="21.95px" xmlns="http://www.w3.org/2000/svg">
  <g transform="matrix(1.0, 0.0, 0.0, 1.0, -7.35, -3.0)">
    <path d="M28.8 8.8 L28.8 10.85 18.8 10.85 18.8 8.8 28.8 8.8 M28.8 11.95 L28.8 14.25 18.8 14.25 18.8 11.95 28.8 11.95 M29.3 19.05 L29.3 19.4 23.8 22.9 18.35 19.4 18.35 19.05 18.8 19.05 18.8 15.45 28.8 15.45 28.8 19.05 29.3 19.05 M18.3 6.5 L18.3 6.85 17.8 6.85 17.8 10.4 7.85 10.4 7.85 6.85 7.35 6.85 7.35 6.5 7.4 6.5 12.85 3.0 18.3 6.5 M7.85 15.05 L17.8 15.05 17.8 17.1 7.85 17.1 7.85 15.05 M7.85 13.95 L7.85 11.65 17.8 11.65 17.8 13.95 7.85 13.95" fill="#408eff" fill-rule="evenodd" stroke="none"/>
  </g>
</svg>
