<?xml version="1.0" encoding="UTF-8" standalone="no"?>
<svg xmlns:ffdec="https://www.free-decompiler.com/flash" xmlns:xlink="http://www.w3.org/1999/xlink" ffdec:objectType="shape" height="24.8px" width="35.15px" xmlns="http://www.w3.org/2000/svg">
  <g transform="matrix(1.0, 0.0, 0.0, 1.0, 0.0, 0.0)">
    <path d="M32.15 0.5 Q33.15 0.5 33.9 1.25 34.65 1.95 34.65 3.0 L34.65 21.8 Q34.65 22.85 33.9 23.6 33.15 24.3 32.15 24.3 L3.0 24.3 Q1.95 24.3 1.25 23.6 0.5 22.85 0.5 21.8 L0.5 3.0 Q0.5 1.95 1.25 1.25 1.95 0.5 3.0 0.5 L32.15 0.5" fill="#002068" fill-rule="evenodd" stroke="none"/>
    <path d="M32.15 1.0 L3.0 1.0 Q2.2 1.0 1.6 1.6 1.0 2.2 1.0 3.0 L1.0 21.8 Q1.0 22.65 1.6 23.2 2.2 23.8 3.0 23.8 L32.15 23.8 Q33.0 23.8 33.55 23.2 34.15 22.65 34.15 21.8 L34.15 3.0 Q34.15 2.2 33.55 1.6 33.0 1.0 32.15 1.0 M0.0 3.0 Q0.0 1.75 0.9 0.9 1.75 0.0 3.0 0.0 L32.15 0.0 Q33.35 0.0 34.25 0.9 35.15 1.75 35.15 3.0 L35.15 21.8 Q35.15 23.05 34.25 23.9 33.35 24.8 32.15 24.8 L3.0 24.8 Q1.75 24.8 0.9 23.9 0.0 23.05 0.0 21.8 L0.0 3.0" fill="#024ebc" fill-rule="evenodd" stroke="none"/>
    <path d="M14.3 14.1 L10.9 17.5 Q9.0 15.4 8.85 12.55 L13.7 12.55 Q13.8 13.35 14.3 14.1 M17.6 20.3 L17.6 15.45 Q18.5 15.3 19.1 14.8 L22.55 18.25 Q20.4 20.15 17.6 20.3 M11.6 18.25 L15.05 14.8 Q15.7 15.3 16.6 15.45 L16.6 20.3 Q13.75 20.15 11.6 18.25 M19.1 9.25 L17.6 8.65 17.6 3.8 Q20.45 4.0 22.55 5.85 L19.1 9.25 M14.3 10.0 Q13.8 10.7 13.7 11.55 L8.85 11.55 Q9.05 8.7 10.9 6.6 L14.3 10.0 M11.6 5.85 Q13.75 4.0 16.6 3.8 L16.6 8.65 Q15.75 8.75 15.05 9.25 L11.6 5.85 M20.45 12.55 L25.3 12.55 Q25.15 15.4 23.15 17.5 L19.8 14.1 20.45 12.55 M23.25 6.6 Q25.2 8.7 25.3 11.55 L20.45 11.55 19.85 10.0 23.25 6.6" fill="#044ebb" fill-rule="evenodd" stroke="none"/>
  </g>
</svg>
