<?xml version="1.0" encoding="UTF-8" standalone="no"?>
<svg xmlns:ffdec="https://www.free-decompiler.com/flash" xmlns:xlink="http://www.w3.org/1999/xlink" ffdec:objectType="shape" height="18.2px" width="18.25px" xmlns="http://www.w3.org/2000/svg">
  <g transform="matrix(1.0, 0.0, 0.0, 1.0, -8.65, -2.65)">
    <path d="M25.0 16.75 Q24.5 16.25 23.9 16.25 23.25 16.25 22.8 16.75 22.3 17.15 22.3 17.85 22.3 18.45 22.8 18.95 23.25 19.4 23.9 19.4 L25.0 18.95 25.45 17.85 Q25.45 17.15 25.0 16.75 M26.0 15.7 Q26.9 16.6 26.9 17.85 26.9 19.1 26.0 19.95 25.1 20.85 23.9 20.85 22.65 20.85 21.75 19.95 20.9 19.1 20.9 17.85 L20.9 17.65 15.25 11.95 Q14.6 11.4 14.85 10.55 L12.3 11.4 11.55 11.4 Q11.15 11.35 10.9 11.1 L9.05 9.2 8.7 8.6 Q8.6 8.2 8.75 7.85 L9.15 6.75 9.4 6.4 9.8 6.6 11.0 7.8 11.8 8.05 12.55 7.8 13.8 6.5 Q14.15 6.2 14.15 5.7 14.15 5.25 13.8 4.95 L12.6 3.8 12.5 3.4 12.8 3.1 13.9 2.7 14.65 2.7 Q15.05 2.8 15.3 3.0 L17.1 4.9 17.45 5.5 17.45 6.25 16.55 8.85 Q17.45 8.55 18.05 9.15 L23.75 14.8 23.9 14.8 Q25.1 14.8 26.0 15.7" fill="#408eff" fill-rule="evenodd" stroke="none"/>
  </g>
</svg>
