<?xml version="1.0" encoding="UTF-8" standalone="no"?>
<svg xmlns:ffdec="https://www.free-decompiler.com/flash" xmlns:xlink="http://www.w3.org/1999/xlink" ffdec:objectType="shape" height="22.35px" width="31.65px" xmlns="http://www.w3.org/2000/svg">
  <g transform="matrix(1.0, 0.0, 0.0, 1.0, -1.75, -1.25)">
    <path d="M30.7 1.7 Q31.6 1.7 32.3 2.4 32.95 3.0 32.95 3.95 L32.95 20.9 Q32.95 21.8 32.3 22.5 31.6 23.15 30.7 23.15 L4.45 23.15 Q3.55 23.15 2.9 22.5 2.2 21.8 2.2 20.9 L2.2 3.95 Q2.2 3.0 2.9 2.4 3.55 1.7 4.45 1.7 L30.7 1.7" fill="#002068" fill-rule="evenodd" stroke="none"/>
    <path d="M1.75 3.95 Q1.75 2.85 2.6 2.05 3.35 1.25 4.45 1.25 L30.7 1.25 Q31.8 1.25 32.6 2.05 33.4 2.85 33.4 3.95 L33.4 20.9 Q33.4 22.0 32.6 22.75 31.8 23.6 30.7 23.6 L4.45 23.6 Q3.35 23.6 2.6 22.75 1.75 22.0 1.75 20.9 L1.75 3.95 M30.7 2.15 L4.45 2.15 Q3.75 2.15 3.2 2.7 2.65 3.25 2.65 3.95 L2.65 20.9 Q2.65 21.65 3.2 22.15 3.75 22.7 4.45 22.7 L30.7 22.7 Q31.45 22.7 31.95 22.15 32.5 21.65 32.5 20.9 L32.5 3.95 Q32.5 3.25 31.95 2.7 31.45 2.15 30.7 2.15" fill="#024ebc" fill-rule="evenodd" stroke="none"/>
    <path d="M26.45 16.65 L19.05 12.25 18.55 18.55 20.55 20.9 20.65 21.6 17.75 20.9 14.75 21.6 14.8 20.9 17.05 18.55 16.35 12.25 8.9 16.2 9.25 14.8 16.35 8.75 Q16.3 7.35 16.4 5.95 16.75 3.15 17.7 3.15 18.7 3.15 19.05 6.0 L19.15 8.85 26.2 14.8 26.45 16.65" fill="#408eff" fill-rule="evenodd" stroke="none"/>
  </g>
</svg>
