<?xml version="1.0" encoding="UTF-8" standalone="no"?>
<svg xmlns:ffdec="https://www.free-decompiler.com/flash" xmlns:xlink="http://www.w3.org/1999/xlink" ffdec:objectType="shape" height="24.8px" width="35.15px" xmlns="http://www.w3.org/2000/svg">
  <g transform="matrix(1.0, 0.0, 0.0, 1.0, 0.0, 0.0)">
    <path d="M32.15 0.5 Q33.15 0.5 33.9 1.25 34.65 1.95 34.65 3.0 L34.65 21.8 Q34.65 22.85 33.9 23.6 33.15 24.3 32.15 24.3 L3.0 24.3 Q1.95 24.3 1.25 23.6 0.5 22.85 0.5 21.8 L0.5 3.0 Q0.5 1.95 1.25 1.25 1.95 0.5 3.0 0.5 L32.15 0.5" fill="#002068" fill-rule="evenodd" stroke="none"/>
    <path d="M32.15 1.0 L3.0 1.0 Q2.2 1.0 1.6 1.6 1.0 2.2 1.0 3.0 L1.0 21.8 Q1.0 22.65 1.6 23.2 2.2 23.8 3.0 23.8 L32.15 23.8 Q33.0 23.8 33.55 23.2 34.15 22.65 34.15 21.8 L34.15 3.0 Q34.15 2.2 33.55 1.6 33.0 1.0 32.15 1.0 M0.0 3.0 Q0.0 1.75 0.9 0.9 1.75 0.0 3.0 0.0 L32.15 0.0 Q33.35 0.0 34.25 0.9 35.15 1.75 35.15 3.0 L35.15 21.8 Q35.15 23.05 34.25 23.9 33.35 24.8 32.15 24.8 L3.0 24.8 Q1.75 24.8 0.9 23.9 0.0 23.05 0.0 21.8 L0.0 3.0" fill="#024ebc" fill-rule="evenodd" stroke="none"/>
    <path d="M27.45 17.1 L19.2 12.2 18.65 19.25 20.9 21.85 21.0 22.6 17.8 21.85 14.45 22.6 14.5 21.85 17.0 19.25 16.2 12.2 7.95 16.6 8.35 15.05 16.2 8.35 16.3 5.25 Q16.65 2.1 17.7 2.1 18.85 2.1 19.2 5.3 L19.35 8.45 27.15 15.05 27.45 17.1" fill="#044ebb" fill-rule="evenodd" stroke="none"/>
  </g>
</svg>
