<?xml version="1.0" encoding="UTF-8" standalone="no"?>
<svg xmlns:ffdec="https://www.free-decompiler.com/flash" xmlns:xlink="http://www.w3.org/1999/xlink" ffdec:objectType="shape" height="17.05px" width="13.8px" xmlns="http://www.w3.org/2000/svg">
  <g transform="matrix(1.0, 0.0, 0.0, 1.0, -10.65, -3.4)">
    <path d="M13.35 16.7 Q12.85 16.7 12.55 17.05 12.2 17.35 12.2 17.85 12.2 18.35 12.55 18.65 12.85 19.0 13.35 19.0 13.85 19.0 14.15 18.65 14.5 18.35 14.5 17.85 14.5 17.35 14.15 17.05 13.85 16.7 13.35 16.7 M22.4 17.05 Q22.1 16.7 21.6 16.7 21.1 16.7 20.8 17.05 20.45 17.35 20.45 17.85 20.45 18.35 20.8 18.65 21.1 19.0 21.6 19.0 22.1 19.0 22.4 18.65 22.75 18.35 22.75 17.85 22.75 17.35 22.4 17.05 M22.9 9.05 Q22.55 8.65 22.0 8.65 L13.1 8.65 Q12.55 8.65 12.15 9.05 11.8 9.4 11.8 9.95 L11.8 12.8 Q11.8 13.35 12.15 13.7 12.55 14.1 13.1 14.1 L22.0 14.1 Q22.55 14.1 22.9 13.7 23.3 13.35 23.3 12.8 L23.3 9.95 Q23.3 9.45 22.9 9.05 M21.85 5.85 Q22.95 5.85 23.7 6.6 24.45 7.35 24.45 8.45 L24.45 17.85 Q24.45 18.95 23.7 19.7 22.95 20.45 21.85 20.45 L13.2 20.45 Q12.15 20.45 11.4 19.7 10.65 18.95 10.65 17.85 L10.65 8.45 Q10.65 7.35 11.4 6.6 12.15 5.85 13.2 5.85 L21.85 5.85" fill="#408eff" fill-rule="evenodd" stroke="none"/>
    <path d="M18.0 4.2 Q18.0 3.85 18.25 3.65 18.45 3.4 18.75 3.4 19.55 3.4 19.55 4.2 19.55 4.95 18.75 4.95 18.45 4.95 18.25 4.75 L18.0 4.2" fill="#408eff" fill-rule="evenodd" stroke="none"/>
    <path d="M15.65 4.2 Q15.65 3.4 16.45 3.4 17.2 3.4 17.2 4.2 L17.0 4.75 16.45 4.95 Q15.65 4.95 15.65 4.2" fill="#408eff" fill-rule="evenodd" stroke="none"/>
  </g>
</svg>
