<?xml version="1.0" encoding="UTF-8" standalone="no"?>
<svg xmlns:ffdec="https://www.free-decompiler.com/flash" xmlns:xlink="http://www.w3.org/1999/xlink" ffdec:objectType="shape" height="22.35px" width="31.65px" xmlns="http://www.w3.org/2000/svg">
  <g transform="matrix(1.0, 0.0, 0.0, 1.0, -1.75, -1.25)">
    <path d="M30.7 1.7 Q31.6 1.7 32.3 2.4 32.95 3.0 32.95 3.95 L32.95 20.9 Q32.95 21.8 32.3 22.5 31.6 23.15 30.7 23.15 L4.45 23.15 Q3.55 23.15 2.9 22.5 2.2 21.8 2.2 20.9 L2.2 3.95 Q2.2 3.0 2.9 2.4 3.55 1.7 4.45 1.7 L30.7 1.7" fill="#002068" fill-rule="evenodd" stroke="none"/>
    <path d="M1.75 3.95 Q1.75 2.85 2.6 2.05 3.35 1.25 4.45 1.25 L30.7 1.25 Q31.8 1.25 32.6 2.05 33.4 2.85 33.4 3.95 L33.4 20.9 Q33.4 22.0 32.6 22.75 31.8 23.6 30.7 23.6 L4.45 23.6 Q3.35 23.6 2.6 22.75 1.75 22.0 1.75 20.9 L1.75 3.95 M30.7 2.15 L4.45 2.15 Q3.75 2.15 3.2 2.7 2.65 3.25 2.65 3.95 L2.65 20.9 Q2.65 21.65 3.2 22.15 3.75 22.7 4.45 22.7 L30.7 22.7 Q31.45 22.7 31.95 22.15 32.5 21.65 32.5 20.9 L32.5 3.95 Q32.5 3.25 31.95 2.7 31.45 2.15 30.7 2.15" fill="#024ebc" fill-rule="evenodd" stroke="none"/>
    <path d="M13.75 18.3 Q14.2 18.3 14.5 18.0 L14.8 17.25 14.5 16.55 Q14.2 16.25 13.75 16.25 13.3 16.25 13.05 16.55 12.75 16.8 12.75 17.25 12.75 17.7 13.05 18.0 13.3 18.3 13.75 18.3 M21.9 16.55 Q21.65 16.25 21.2 16.25 20.75 16.25 20.45 16.55 20.15 16.8 20.15 17.25 20.15 17.7 20.45 18.0 20.75 18.3 21.2 18.3 L21.9 18.0 22.25 17.25 21.9 16.55 M22.35 13.55 L22.7 12.75 22.7 10.15 22.35 9.35 Q22.05 9.0 21.55 9.0 L13.55 9.0 Q13.05 9.0 12.7 9.35 12.35 9.65 12.35 10.15 L12.35 12.75 Q12.35 13.2 12.7 13.55 13.05 13.9 13.55 13.9 L21.55 13.9 22.35 13.55 M21.4 6.45 Q22.4 6.45 23.1 7.15 23.75 7.8 23.75 8.8 L23.75 17.25 Q23.75 18.25 23.1 18.95 22.4 19.6 21.4 19.6 L13.65 19.6 Q12.7 19.6 12.0 18.95 11.35 18.25 11.35 17.25 L11.35 8.8 Q11.35 7.8 12.0 7.15 12.7 6.45 13.65 6.45 L21.4 6.45" fill="#408eff" fill-rule="evenodd" stroke="none"/>
    <path d="M19.35 5.0 Q19.35 5.65 18.65 5.65 L18.2 5.5 17.95 5.0 Q17.95 4.65 18.2 4.5 L18.65 4.25 Q19.35 4.25 19.35 5.0" fill="#408eff" fill-rule="evenodd" stroke="none"/>
    <path d="M17.25 5.0 L17.05 5.5 16.55 5.65 Q15.85 5.65 15.85 5.0 15.85 4.25 16.55 4.25 17.25 4.25 17.25 5.0" fill="#408eff" fill-rule="evenodd" stroke="none"/>
  </g>
</svg>
