<?xml version="1.0" encoding="UTF-8" standalone="no"?>
<svg xmlns:ffdec="https://www.free-decompiler.com/flash" xmlns:xlink="http://www.w3.org/1999/xlink" ffdec:objectType="shape" height="26.2px" width="195.8px" xmlns="http://www.w3.org/2000/svg">
  <g transform="matrix(1.0, 0.0, 0.0, 1.0, 0.0, 0.0)">
    <path d="M195.3 22.7 Q195.3 23.95 194.4 24.8 193.5 25.7 192.3 25.7 L3.5 25.7 Q2.25 25.7 1.4 24.8 0.5 23.95 0.5 22.7 L0.5 3.5 Q0.5 2.25 1.4 1.4 2.25 0.5 3.5 0.5 L192.3 0.5 Q193.5 0.5 194.4 1.4 195.3 2.25 195.3 3.5 L195.3 22.7" fill="url(#gradient0)" fill-rule="evenodd" stroke="none"/>
    <path d="M195.3 22.7 Q195.3 23.95 194.4 24.8 193.5 25.7 192.3 25.7 L3.5 25.7 Q2.25 25.7 1.4 24.8 0.5 23.95 0.5 22.7 L0.5 3.5 Q0.5 2.25 1.4 1.4 2.25 0.5 3.5 0.5 L192.3 0.5 Q193.5 0.5 194.4 1.4 195.3 2.25 195.3 3.5 L195.3 22.7 Z" fill="none" stroke="#29abe2" stroke-linecap="butt" stroke-linejoin="miter-clip" stroke-miterlimit="4.0" stroke-width="1.0"/>
  </g>
  <defs>
    <linearGradient gradientTransform="matrix(0.1189, 0.0, 0.0, -0.1189, 97.9, 13.1)" gradientUnits="userSpaceOnUse" id="gradient0" spreadMethod="pad" x1="-819.2" x2="819.2">
      <stop offset="0.00392156862745098" stop-color="#002f73"/>
      <stop offset="0.00784313725490196" stop-color="#002f73"/>
      <stop offset="0.1607843137254902" stop-color="#00429a"/>
      <stop offset="0.30196078431372547" stop-color="#004fb5"/>
      <stop offset="0.42745098039215684" stop-color="#0057c6"/>
      <stop offset="0.5215686274509804" stop-color="#005acc"/>
      <stop offset="0.6078431372549019" stop-color="#0057c6"/>
      <stop offset="0.7215686274509804" stop-color="#0050b7"/>
      <stop offset="0.8470588235294118" stop-color="#00439d"/>
      <stop offset="0.9803921568627451" stop-color="#003278"/>
      <stop offset="1.0" stop-color="#002f73"/>
    </linearGradient>
  </defs>
</svg>
