<?xml version="1.0" encoding="UTF-8" standalone="no"?>
<svg xmlns:ffdec="https://www.free-decompiler.com/flash" xmlns:xlink="http://www.w3.org/1999/xlink" ffdec:objectType="shape" height="27.85px" width="56.65px" xmlns="http://www.w3.org/2000/svg">
  <g transform="matrix(1.0, 0.0, 0.0, 1.0, -0.45, 0.0)">
    <path d="M56.2 4.5 L56.2 23.35 Q56.2 24.8 55.15 25.9 54.15 26.95 52.6 26.95 L5.0 26.95 Q3.5 26.95 2.45 25.9 1.35 24.8 1.35 23.35 L1.35 4.5 Q1.35 3.0 2.45 2.0 3.5 0.9 5.0 0.9 L52.6 0.9 Q54.15 0.9 55.15 2.0 56.2 3.0 56.2 4.5" fill="url(#gradient0)" fill-rule="evenodd" stroke="none"/>
    <path d="M55.3 4.5 Q55.3 3.4 54.5 2.6 53.75 1.8 52.6 1.8 L5.0 1.8 Q3.85 1.8 3.1 2.6 2.25 3.4 2.25 4.5 L2.25 23.35 Q2.25 24.45 3.1 25.25 3.85 26.05 5.0 26.05 L52.6 26.05 Q53.75 26.05 54.5 25.25 55.3 24.45 55.3 23.35 L55.3 4.5 M52.6 0.0 Q54.5 0.0 55.8 1.3 57.1 2.65 57.1 4.5 L57.1 23.35 Q57.1 25.2 55.8 26.55 54.5 27.85 52.6 27.85 L5.0 27.85 Q3.15 27.85 1.75 26.55 0.45 25.2 0.45 23.35 L0.45 4.5 Q0.45 2.65 1.75 1.3 3.15 0.0 5.0 0.0 L52.6 0.0" fill="#3bc8ff" fill-rule="evenodd" stroke="none"/>
  </g>
  <defs>
    <linearGradient gradientTransform="matrix(0.0, -0.0159, -0.0159, 0.0, 28.8, 13.95)" gradientUnits="userSpaceOnUse" id="gradient0" spreadMethod="pad" x1="-819.2" x2="819.2">
      <stop offset="0.0" stop-color="#0070ff"/>
      <stop offset="0.7647058823529411" stop-color="#003498"/>
      <stop offset="1.0" stop-color="#0073ff"/>
    </linearGradient>
  </defs>
</svg>
