<?xml version="1.0" encoding="UTF-8" standalone="no"?>
<svg xmlns:ffdec="https://www.free-decompiler.com/flash" xmlns:xlink="http://www.w3.org/1999/xlink" ffdec:objectType="shape" height="25.1px" width="50.95px" xmlns="http://www.w3.org/2000/svg">
  <g transform="matrix(1.0, 0.0, 0.0, 1.0, -3.5, -1.35)">
    <path d="M53.65 5.4 L53.65 22.35 Q53.65 23.7 52.7 24.7 51.8 25.6 50.4 25.6 L7.55 25.6 Q6.2 25.6 5.25 24.7 4.3 23.7 4.3 22.35 L4.3 5.4 Q4.3 4.1 5.25 3.15 6.2 2.15 7.55 2.15 L50.4 2.15 Q51.8 2.15 52.7 3.15 53.65 4.1 53.65 5.4" fill="url(#gradient0)" fill-rule="evenodd" stroke="none"/>
    <path d="M50.4 1.35 Q52.1 1.35 53.3 2.55 54.45 3.75 54.45 5.4 L54.45 22.35 Q54.45 24.05 53.3 25.25 52.1 26.45 50.4 26.45 L7.55 26.45 Q5.9 26.45 4.65 25.25 3.5 24.05 3.5 22.35 L3.5 5.4 Q3.5 3.75 4.65 2.55 5.9 1.35 7.55 1.35 L50.4 1.35 M52.85 5.4 Q52.85 4.4 52.1 3.7 51.4 3.0 50.4 3.0 L7.55 3.0 Q6.55 3.0 5.85 3.7 5.1 4.4 5.1 5.4 L5.1 22.35 Q5.1 23.4 5.85 24.05 6.55 24.8 7.55 24.8 L50.4 24.8 Q51.4 24.8 52.1 24.05 52.85 23.4 52.85 22.35 L52.85 5.4" fill="#3bc8ff" fill-rule="evenodd" stroke="none"/>
  </g>
  <defs>
    <linearGradient gradientTransform="matrix(0.0, -0.0143, -0.0143, 0.0, 29.0, 13.9)" gradientUnits="userSpaceOnUse" id="gradient0" spreadMethod="pad" x1="-819.2" x2="819.2">
      <stop offset="0.0" stop-color="#0070ff"/>
      <stop offset="0.7647058823529411" stop-color="#003498"/>
      <stop offset="1.0" stop-color="#0073ff"/>
    </linearGradient>
  </defs>
</svg>
