<?xml version="1.0" encoding="UTF-8" standalone="no"?>
<svg xmlns:ffdec="https://www.free-decompiler.com/flash" xmlns:xlink="http://www.w3.org/1999/xlink" ffdec:objectType="shape" height="21.15px" width="13.35px" xmlns="http://www.w3.org/2000/svg">
  <g transform="matrix(1.0, 0.0, 0.0, 1.0, 0.0, 0.0)">
    <path d="M13.35 0.0 L13.35 21.15 9.85 21.15 5.4 16.7 5.4 4.45 9.85 0.0 13.35 0.0" fill="url(#gradient0)" fill-rule="evenodd" stroke="none"/>
    <path d="M13.35 0.0 L13.35 21.05 9.85 21.05 9.85 0.0 13.35 0.0" fill="url(#gradient1)" fill-rule="evenodd" stroke="none"/>
    <path d="M3.05 13.5 Q1.8 13.5 0.9 12.6 0.0 11.7 0.0 10.45 0.0 9.2 0.9 8.25 1.8 7.35 3.05 7.35 L5.4 7.35 5.4 13.5 3.05 13.5" fill="url(#gradient2)" fill-rule="evenodd" stroke="none"/>
  </g>
  <defs>
    <linearGradient gradientTransform="matrix(0.0, -0.0129, -0.0129, 0.0, 9.35, 10.55)" gradientUnits="userSpaceOnUse" id="gradient0" spreadMethod="pad" x1="-819.2" x2="819.2">
      <stop offset="0.0" stop-color="#383335"/>
      <stop offset="0.40784313725490196" stop-color="#363130"/>
      <stop offset="0.7019607843137254" stop-color="#7d807d"/>
      <stop offset="1.0" stop-color="#7d7d7a"/>
    </linearGradient>
    <linearGradient gradientTransform="matrix(0.0, -0.0128, -0.0128, 0.0, 11.6, 10.55)" gradientUnits="userSpaceOnUse" id="gradient1" spreadMethod="pad" x1="-819.2" x2="819.2">
      <stop offset="0.0" stop-color="#676362"/>
      <stop offset="0.19215686274509805" stop-color="#383335"/>
      <stop offset="0.3568627450980392" stop-color="#575352"/>
      <stop offset="0.7372549019607844" stop-color="#b3abb0"/>
      <stop offset="1.0" stop-color="#9c9796"/>
    </linearGradient>
    <linearGradient gradientTransform="matrix(0.0, -0.0037, 0.0037, 0.0, 2.7, 10.45)" gradientUnits="userSpaceOnUse" id="gradient2" spreadMethod="pad" x1="-819.2" x2="819.2">
      <stop offset="0.0" stop-color="#7d7d7a"/>
      <stop offset="0.2980392156862745" stop-color="#7d807d"/>
      <stop offset="0.592156862745098" stop-color="#363130"/>
      <stop offset="1.0" stop-color="#383335"/>
    </linearGradient>
  </defs>
</svg>
