<?xml version="1.0" encoding="UTF-8" standalone="no"?>
<svg xmlns:ffdec="https://www.free-decompiler.com/flash" xmlns:xlink="http://www.w3.org/1999/xlink" ffdec:objectType="shape" height="41.0px" width="389.95px" xmlns="http://www.w3.org/2000/svg">
  <g transform="matrix(1.0, 0.0, 0.0, 1.0, 291.6, 188.05)">
    <path d="M97.85 -184.55 L97.85 -159.55 Q97.85 -158.3 96.95 -157.45 96.1 -156.55 94.85 -156.55 L-90.1 -156.55 Q-91.35 -156.55 -92.85 -155.95 -94.4 -155.35 -95.35 -154.55 L-100.9 -149.55 Q-101.8 -148.7 -103.35 -148.15 -104.85 -147.55 -106.1 -147.55 L-288.1 -147.55 Q-289.35 -147.55 -290.2 -148.45 -291.1 -149.3 -291.1 -150.55 L-291.1 -184.55 Q-291.1 -185.8 -290.2 -186.65 -289.35 -187.55 -288.1 -187.55 L94.85 -187.55 Q96.1 -187.55 96.95 -186.65 97.85 -185.8 97.85 -184.55" fill="url(#gradient0)" fill-rule="evenodd" stroke="none"/>
    <path d="M-90.1 -156.55 L94.85 -156.55 Q96.1 -156.55 96.95 -157.45 97.85 -158.3 97.85 -159.55 L97.85 -184.55 Q97.85 -185.8 96.95 -186.65 96.1 -187.55 94.85 -187.55 L-288.1 -187.55 Q-289.35 -187.55 -290.2 -186.65 -291.1 -185.8 -291.1 -184.55 L-291.1 -150.55 Q-291.1 -149.3 -290.2 -148.45 -289.35 -147.55 -288.1 -147.55 L-106.1 -147.55 Q-104.85 -147.55 -103.35 -148.15 -101.8 -148.7 -100.9 -149.55 L-95.35 -154.55 Q-94.4 -155.35 -92.85 -155.95 -91.35 -156.55 -90.1 -156.55 Z" fill="none" stroke="#0c75ba" stroke-linecap="butt" stroke-linejoin="miter-clip" stroke-miterlimit="4.0" stroke-width="1.0"/>
    <path d="M-76.05 -182.4 L53.4 -182.4 Q54.45 -182.4 55.2 -181.65 55.9 -180.95 55.9 -179.9 L55.9 -164.2 Q55.9 -163.2 55.2 -162.45 54.45 -161.7 53.4 -161.7 L-76.05 -161.7 Q-77.05 -161.7 -77.8 -162.45 -78.55 -163.2 -78.55 -164.2 L-78.55 -179.9 Q-78.55 -180.95 -77.8 -181.65 -77.05 -182.4 -76.05 -182.4" fill="url(#gradient1)" fill-rule="evenodd" stroke="none"/>
    <path d="M-79.05 -179.9 Q-79.05 -181.15 -78.15 -182.0 -77.3 -182.9 -76.05 -182.9 L53.4 -182.9 Q54.65 -182.9 55.55 -182.0 56.4 -181.15 56.4 -179.9 L56.4 -164.2 Q56.4 -162.95 55.55 -162.1 54.65 -161.2 53.4 -161.2 L-76.05 -161.2 Q-77.3 -161.2 -78.15 -162.1 -79.05 -162.95 -79.05 -164.2 L-79.05 -179.9 M-77.45 -181.3 Q-78.05 -180.7 -78.05 -179.9 L-78.05 -164.2 Q-78.05 -163.35 -77.45 -162.8 -76.85 -162.2 -76.05 -162.2 L53.4 -162.2 Q54.25 -162.2 54.8 -162.8 55.4 -163.35 55.4 -164.2 L55.4 -179.9 Q55.4 -180.7 54.8 -181.3 54.25 -181.9 53.4 -181.9 L-76.05 -181.9 Q-76.85 -181.9 -77.45 -181.3" fill="#0c75ba" fill-rule="evenodd" stroke="none"/>
  </g>
  <defs>
    <linearGradient gradientTransform="matrix(0.0243, -0.0846, -0.0846, -0.0243, -97.8, -167.9)" gradientUnits="userSpaceOnUse" id="gradient0" spreadMethod="pad" x1="-819.2" x2="819.2">
      <stop offset="0.0" stop-color="#004a82"/>
      <stop offset="0.5803921568627451" stop-color="#00367d"/>
      <stop offset="1.0" stop-color="#002d7b"/>
    </linearGradient>
    <linearGradient gradientTransform="matrix(0.0, -0.0126, -0.0126, 0.0, -11.3, -172.05)" gradientUnits="userSpaceOnUse" id="gradient1" spreadMethod="pad" x1="-819.2" x2="819.2">
      <stop offset="0.0" stop-color="#004a82"/>
      <stop offset="0.5803921568627451" stop-color="#00367d"/>
      <stop offset="1.0" stop-color="#002d7b"/>
    </linearGradient>
  </defs>
</svg>
