<?xml version="1.0" encoding="UTF-8" standalone="no"?>
<svg xmlns:ffdec="https://www.free-decompiler.com/flash" xmlns:xlink="http://www.w3.org/1999/xlink" ffdec:objectType="shape" height="25.55px" width="29.15px" xmlns="http://www.w3.org/2000/svg">
  <g transform="matrix(1.0, 0.0, 0.0, 1.0, 1.0, 1.0)">
    <path d="M27.15 20.55 Q27.15 21.8 26.25 22.7 25.4 23.55 24.15 23.55 L3.0 23.55 Q1.75 23.55 0.9 22.7 0.0 21.8 0.0 20.55 L0.0 3.0 Q0.0 1.75 0.9 0.9 1.75 0.0 3.0 0.0 L24.15 0.0 Q25.4 0.0 26.25 0.9 27.15 1.75 27.15 3.0 L27.15 20.55" fill="#0041aa" fill-rule="evenodd" stroke="none"/>
    <path d="M27.15 20.55 Q27.15 21.8 26.25 22.7 25.4 23.55 24.15 23.55 L3.0 23.55 Q1.75 23.55 0.9 22.7 0.0 21.8 0.0 20.55 L0.0 3.0 Q0.0 1.75 0.9 0.9 1.75 0.0 3.0 0.0 L24.15 0.0 Q25.4 0.0 26.25 0.9 27.15 1.75 27.15 3.0 L27.15 20.55 Z" fill="none" stroke="#0683ff" stroke-linecap="butt" stroke-linejoin="miter-clip" stroke-miterlimit="4.0" stroke-width="2.0"/>
    <path d="M9.7 7.15 Q9.7 8.15 9.0 8.9 8.25 9.65 7.2 9.65 6.15 9.65 5.45 8.9 4.7 8.15 4.7 7.15 4.7 6.1 5.45 5.35 6.15 4.6 7.2 4.6 8.25 4.6 9.0 5.35 9.7 6.1 9.7 7.15" fill="#0676fc" fill-rule="evenodd" stroke="none"/>
    <path d="M7.2 10.2 Q8.65 10.2 9.7 11.65 10.7 13.05 10.7 15.1 L10.65 15.9 7.0 16.2 3.75 15.95 3.7 15.1 Q3.7 13.05 4.7 11.65 5.75 10.2 7.2 10.2" fill="#0676fc" fill-rule="evenodd" stroke="none"/>
    <path d="M22.45 7.15 Q22.45 8.15 21.75 8.9 21.0 9.65 19.95 9.65 18.9 9.65 18.2 8.9 17.45 8.15 17.45 7.15 17.45 6.1 18.2 5.35 18.9 4.6 19.95 4.6 21.0 4.6 21.75 5.35 22.45 6.1 22.45 7.15" fill="#0676fc" fill-rule="evenodd" stroke="none"/>
    <path d="M19.95 10.2 Q21.4 10.2 22.45 11.65 23.45 13.05 23.45 15.1 L23.4 15.9 19.8 16.2 16.5 15.95 16.45 15.1 Q16.45 13.05 17.45 11.65 18.5 10.2 19.95 10.2" fill="#0676fc" fill-rule="evenodd" stroke="none"/>
    <path d="M17.1 7.15 Q17.1 8.6 16.05 9.65 15.0 10.7 13.55 10.7 12.05 10.7 11.0 9.65 9.95 8.6 9.95 7.15 9.95 5.65 11.0 4.6 12.05 3.55 13.55 3.55 15.0 3.55 16.05 4.6 17.1 5.65 17.1 7.15" fill="#15a0ff" fill-rule="evenodd" stroke="none"/>
    <path d="M13.55 11.5 Q15.6 11.5 17.05 13.55 18.5 15.55 18.5 18.45 L18.45 19.55 13.3 20.0 8.65 19.65 8.55 18.45 Q8.55 15.55 10.0 13.55 11.5 11.5 13.55 11.5" fill="#15a0ff" fill-rule="evenodd" stroke="none"/>
  </g>
</svg>
