<?xml version="1.0" encoding="UTF-8" standalone="no"?>
<svg xmlns:ffdec="https://www.free-decompiler.com/flash" xmlns:xlink="http://www.w3.org/1999/xlink" ffdec:objectType="shape" height="18.8px" width="19.85px" xmlns="http://www.w3.org/2000/svg">
  <g transform="matrix(1.0, 0.0, 0.0, 1.0, 2.9, 136.5)">
    <path d="M7.0 -135.5 L9.75 -129.95 15.9 -129.05 11.45 -124.7 12.5 -118.65 7.0 -121.5 1.55 -118.65 2.6 -124.7 -1.85 -129.05 4.25 -129.95 7.0 -135.5" fill="#0544a0" fill-rule="evenodd" stroke="none"/>
    <path d="M7.0 -135.5 L9.75 -129.95 15.9 -129.05 11.45 -124.7 12.5 -118.65 7.0 -121.5 1.55 -118.65 2.6 -124.7 -1.85 -129.05 4.25 -129.95 7.0 -135.5 Z" fill="none" stroke="#0a75e0" stroke-linecap="butt" stroke-linejoin="miter-clip" stroke-miterlimit="4.0" stroke-width="1.0"/>
    <path d="M10.2 -126.3 L7.0 -124.25 3.85 -126.3 3.85 -127.95 7.0 -125.85 10.2 -127.95 10.2 -126.3" fill="#48b9ff" fill-rule="evenodd" stroke="none"/>
  </g>
</svg>
