<?xml version="1.0" encoding="UTF-8" standalone="no"?>
<svg xmlns:ffdec="https://www.free-decompiler.com/flash" xmlns:xlink="http://www.w3.org/1999/xlink" ffdec:objectType="shape" height="23.2px" width="26.45px" xmlns="http://www.w3.org/2000/svg">
  <g transform="matrix(1.0, 0.0, 0.0, 1.0, -0.35, -0.2)">
    <path d="M25.8 19.7 Q25.8 20.8 24.95 21.65 24.2 22.4 23.1 22.4 L4.05 22.4 Q2.9 22.4 2.15 21.65 1.35 20.8 1.35 19.7 L1.35 3.9 Q1.35 2.8 2.15 2.0 2.9 1.2 4.05 1.2 L23.1 1.2 Q24.2 1.2 24.95 2.0 25.8 2.8 25.8 3.9 L25.8 19.7" fill="#0052db" fill-rule="evenodd" stroke="none"/>
    <path d="M25.8 19.7 Q25.8 20.8 24.95 21.65 24.2 22.4 23.1 22.4 L4.05 22.4 Q2.9 22.4 2.15 21.65 1.35 20.8 1.35 19.7 L1.35 3.9 Q1.35 2.8 2.15 2.0 2.9 1.2 4.05 1.2 L23.1 1.2 Q24.2 1.2 24.95 2.0 25.8 2.8 25.8 3.9 L25.8 19.7" fill="#005cf7" fill-rule="evenodd" stroke="none"/>
    <path d="M25.8 19.7 Q25.8 20.8 24.95 21.65 24.2 22.4 23.1 22.4 L4.05 22.4 Q2.9 22.4 2.15 21.65 1.35 20.8 1.35 19.7 L1.35 3.9 Q1.35 2.8 2.15 2.0 2.9 1.2 4.05 1.2 L23.1 1.2 Q24.2 1.2 24.95 2.0 25.8 2.8 25.8 3.9 L25.8 19.7 Z" fill="none" stroke="#0683ff" stroke-linecap="butt" stroke-linejoin="miter-clip" stroke-miterlimit="4.0" stroke-width="2.0"/>
    <path d="M10.05 7.65 Q10.05 8.55 9.45 9.2 8.75 9.9 7.8 9.9 6.9 9.9 6.25 9.2 5.55 8.55 5.55 7.65 5.55 6.7 6.25 6.0 6.9 5.35 7.8 5.35 8.75 5.35 9.45 6.0 10.05 6.7 10.05 7.65" fill="#0676fc" fill-rule="evenodd" stroke="none"/>
    <path d="M7.8 10.4 Q9.15 10.4 10.05 11.7 10.95 12.95 10.95 14.8 L10.95 15.5 7.65 15.8 4.7 15.55 4.65 14.8 Q4.65 12.95 5.55 11.7 6.5 10.4 7.8 10.4" fill="#0676fc" fill-rule="evenodd" stroke="none"/>
    <path d="M21.55 7.65 Q21.55 8.55 20.9 9.2 20.25 9.9 19.3 9.9 18.35 9.9 17.7 9.2 17.05 8.55 17.05 7.65 17.05 6.7 17.7 6.0 18.35 5.35 19.3 5.35 20.25 5.35 20.9 6.0 21.55 6.7 21.55 7.65" fill="#0676fc" fill-rule="evenodd" stroke="none"/>
    <path d="M19.3 10.4 Q20.6 10.4 21.55 11.7 22.45 12.95 22.45 14.8 L22.4 15.5 19.15 15.8 16.2 15.55 16.15 14.8 Q16.15 12.95 17.05 11.7 18.0 10.4 19.3 10.4" fill="#0676fc" fill-rule="evenodd" stroke="none"/>
    <path d="M16.75 7.65 Q16.75 8.95 15.8 9.9 14.85 10.85 13.55 10.85 12.2 10.85 11.25 9.9 10.3 8.95 10.3 7.65 10.3 6.3 11.25 5.35 12.2 4.4 13.55 4.4 14.85 4.4 15.8 5.35 16.75 6.3 16.75 7.65" fill="#15a0ff" fill-rule="evenodd" stroke="none"/>
    <path d="M13.55 11.55 Q15.4 11.55 16.7 13.4 18.0 15.2 18.0 17.8 L17.95 18.8 13.3 19.2 9.15 18.9 9.05 17.8 Q9.05 15.2 10.35 13.4 11.7 11.55 13.55 11.55" fill="#15a0ff" fill-rule="evenodd" stroke="none"/>
  </g>
</svg>
