<?xml version="1.0" encoding="UTF-8" standalone="no"?>
<svg xmlns:ffdec="https://www.free-decompiler.com/flash" xmlns:xlink="http://www.w3.org/1999/xlink" ffdec:objectType="shape" height="314.7px" width="327.6px" xmlns="http://www.w3.org/2000/svg">
  <g transform="matrix(1.0, 0.0, 0.0, 1.0, 162.85, 207.9)">
    <path d="M-157.4 -177.45 L159.25 -177.45 Q160.5 -177.45 161.35 -176.55 162.25 -175.7 162.25 -174.45 L162.25 103.3 Q162.25 104.55 161.35 105.4 160.5 106.3 159.25 106.3 L-157.4 106.3 Q-158.65 106.3 -159.5 105.4 -160.4 104.55 -160.4 103.3 L-160.4 -174.45 Q-160.4 -175.7 -159.5 -176.55 -158.65 -177.45 -157.4 -177.45" fill="url(#gradient0)" fill-rule="evenodd" stroke="none"/>
    <path d="M-157.4 -177.45 L159.25 -177.45 Q160.5 -177.45 161.35 -176.55 162.25 -175.7 162.25 -174.45 L162.25 103.3 Q162.25 104.55 161.35 105.4 160.5 106.3 159.25 106.3 L-157.4 106.3 Q-158.65 106.3 -159.5 105.4 -160.4 104.55 -160.4 103.3 L-160.4 -174.45 Q-160.4 -175.7 -159.5 -176.55 -158.65 -177.45 -157.4 -177.45 Z" fill="none" stroke="#217cff" stroke-linecap="butt" stroke-linejoin="miter-clip" stroke-miterlimit="4.0" stroke-width="1.0"/>
    <path d="M-114.65 -170.25 L-121.45 -176.45 Q-122.4 -177.25 -122.15 -177.9 -121.9 -178.5 -120.65 -178.5 L121.85 -178.5 Q123.1 -178.5 123.35 -177.9 123.55 -177.25 122.7 -176.4 L116.3 -170.3 Q115.4 -169.45 113.9 -168.8 112.4 -168.2 111.15 -168.2 L30.2 -168.2 27.45 -167.75 Q25.95 -167.25 25.1 -166.6 24.25 -165.95 22.75 -165.45 L20.0 -165.0 -17.7 -165.0 -20.45 -165.45 Q-22.0 -165.95 -22.9 -166.6 -23.8 -167.25 -25.35 -167.75 L-28.1 -168.2 -109.45 -168.2 -112.2 -168.8 -114.65 -170.25" fill="#001e60" fill-rule="evenodd" stroke="none"/>
    <path d="M-114.65 -173.25 L-121.45 -179.45 Q-122.4 -180.25 -122.15 -180.9 -121.9 -181.5 -120.65 -181.5 L121.85 -181.5 Q123.1 -181.5 123.35 -180.9 123.55 -180.25 122.7 -179.4 L116.3 -173.3 Q115.4 -172.45 113.9 -171.8 112.4 -171.2 111.15 -171.2 L29.2 -171.2 26.6 -170.75 Q25.25 -170.25 24.6 -169.6 23.95 -168.95 22.6 -168.45 L20.0 -168.0 -17.7 -168.0 -20.3 -168.45 Q-21.7 -168.95 -22.4 -169.6 -23.1 -170.25 -24.5 -170.75 L-27.1 -171.2 -109.45 -171.2 -112.2 -171.8 -114.65 -173.25" fill="#474646" fill-rule="evenodd" stroke="none"/>
    <path d="M-117.95 -176.65 L-121.4 -179.55 Q-122.35 -180.35 -122.1 -180.9 -121.9 -181.5 -120.65 -181.5 L121.85 -181.5 Q123.1 -181.5 123.35 -180.85 123.6 -180.2 122.75 -179.35 L120.4 -176.9 Q119.55 -176.0 118.05 -175.35 116.55 -174.75 115.3 -174.75 L69.2 -174.75 66.3 -174.3 Q64.65 -173.9 63.55 -173.3 L62.4 -172.65 Q61.3 -172.05 59.7 -171.6 L56.8 -171.2 29.2 -171.2 26.6 -170.75 Q25.25 -170.25 24.6 -169.6 23.95 -168.95 22.6 -168.45 L20.0 -168.0 -17.7 -168.0 -20.3 -168.45 Q-21.7 -168.95 -22.4 -169.6 -23.1 -170.25 -24.5 -170.75 L-27.1 -171.2 -55.3 -171.2 -58.2 -171.6 Q-59.9 -172.0 -60.95 -172.6 L-62.45 -173.35 -65.25 -174.35 -68.15 -174.75 -112.65 -174.75 Q-113.9 -174.75 -115.45 -175.3 -117.0 -175.85 -117.95 -176.65" fill="url(#gradient1)" fill-rule="evenodd" stroke="none"/>
    <path d="M-157.2 -164.65 Q-156.6 -163.15 -156.6 -161.9 L-156.6 -144.9 Q-156.6 -143.65 -157.2 -142.15 -157.75 -140.6 -158.6 -139.7 L-160.85 -137.25 Q-161.65 -136.35 -162.25 -136.6 -162.85 -136.8 -162.85 -138.05 L-162.85 -168.4 Q-162.85 -169.65 -162.25 -169.9 -161.65 -170.15 -160.8 -169.25 L-158.65 -167.05 Q-157.8 -166.15 -157.2 -164.65" fill="url(#gradient2)" fill-rule="evenodd" stroke="none"/>
    <path d="M159.05 -164.65 Q159.7 -166.15 160.55 -167.05 L162.7 -169.25 Q163.55 -170.15 164.15 -169.9 164.75 -169.65 164.75 -168.4 L164.75 -138.05 Q164.75 -136.8 164.15 -136.6 163.6 -136.35 162.75 -137.25 L160.5 -139.7 Q159.65 -140.6 159.05 -142.15 158.45 -143.65 158.45 -144.9 L158.45 -161.9 Q158.45 -163.15 159.05 -164.65" fill="url(#gradient3)" fill-rule="evenodd" stroke="none"/>
    <path d="M45.9 -177.15 Q44.1 -176.2 42.15 -176.2 L27.2 -176.2 25.35 -175.85 Q24.3 -175.5 23.6 -175.0 L22.55 -174.2 Q21.9 -173.7 20.85 -173.35 L19.0 -173.0 -16.7 -173.0 -18.55 -173.35 Q-19.65 -173.65 -20.3 -174.15 L-21.5 -175.05 Q-23.2 -176.2 -25.1 -176.2 L-40.45 -176.2 Q-42.45 -176.2 -44.25 -177.1 L-50.9 -180.55 Q-51.6 -180.9 -51.55 -181.2 L-50.65 -181.5 51.85 -181.5 52.75 -181.2 Q52.8 -180.9 52.1 -180.5 L45.9 -177.15" fill="#333333" fill-rule="evenodd" stroke="none"/>
    <path d="M23.7 -207.9 L26.6 -207.35 Q28.25 -206.8 29.2 -205.95 L30.5 -204.95 Q31.55 -204.15 31.8 -202.85 32.05 -201.5 31.45 -200.35 L19.35 -178.7 Q18.75 -177.55 17.4 -176.8 16.05 -176.05 14.8 -176.05 L-14.65 -176.05 Q-15.95 -176.05 -17.25 -176.85 -18.6 -177.6 -19.15 -178.75 L-30.3 -200.3 Q-30.85 -201.45 -30.65 -202.9 -30.45 -204.35 -29.55 -205.25 L-29.05 -205.7 Q-28.15 -206.65 -26.6 -207.25 L-23.8 -207.9 23.7 -207.9" fill="url(#gradient4)" fill-rule="evenodd" stroke="none"/>
    <path d="M21.35 -205.05 Q22.9 -204.45 23.75 -203.5 L24.35 -203.0 Q25.2 -202.1 25.4 -200.7 25.6 -199.3 25.0 -198.15 L15.95 -181.9 Q15.35 -180.75 13.95 -180.0 12.65 -179.15 11.35 -179.15 L10.9 -179.15 Q7.8 -179.15 6.9 -179.75 L2.8 -180.3 -2.2 -180.3 Q-5.3 -180.3 -6.15 -179.75 -6.5 -179.45 -7.65 -179.3 L-10.05 -179.15 -11.0 -179.15 Q-12.3 -179.15 -13.6 -180.0 -14.95 -180.8 -15.5 -181.95 L-23.9 -198.1 Q-24.45 -199.25 -24.3 -200.75 -24.2 -202.25 -23.35 -203.25 L-23.3 -203.3 Q-22.55 -204.3 -21.05 -204.95 -19.6 -205.65 -18.35 -205.65 L-15.75 -205.65 -11.25 -205.05 Q-9.7 -204.45 -6.8 -204.45 L8.55 -204.45 Q11.5 -204.45 12.95 -205.05 14.15 -205.65 17.35 -205.65 L18.55 -205.65 Q19.8 -205.65 21.35 -205.05" fill="#2b2b2a" fill-rule="evenodd" stroke="none"/>
    <path d="M-12.65 -184.0 L-19.95 -198.0 Q-20.35 -198.8 -20.2 -199.75 -20.05 -200.75 -19.4 -201.3 L-19.15 -201.55 -17.5 -202.6 -15.6 -203.05 15.35 -203.05 17.25 -202.65 19.0 -201.75 19.75 -201.15 Q20.45 -200.65 20.65 -199.7 20.8 -198.8 20.4 -198.05 L12.6 -184.0 Q12.15 -183.2 11.25 -182.7 10.35 -182.2 9.5 -182.2 L-9.65 -182.2 Q-10.5 -182.2 -11.35 -182.7 L-12.65 -184.0" fill="#113ebc" fill-rule="evenodd" stroke="none"/>
    <path d="M20.6 -199.7 Q20.4 -200.6 19.75 -201.15 L18.95 -201.75 17.2 -202.65 15.35 -203.05 -15.6 -203.05 -17.55 -202.6 Q-18.6 -202.15 -19.2 -201.55 L-19.45 -201.25 Q-20.05 -200.7 -20.25 -199.75 -20.35 -198.8 -19.95 -198.0 L-12.65 -184.0 -11.4 -182.7 Q-10.5 -182.15 -9.7 -182.15 L9.45 -182.15 Q10.35 -182.15 11.25 -182.7 12.15 -183.2 12.55 -184.0 L20.35 -198.05 Q20.8 -198.8 20.6 -199.7 Z" fill="none" stroke="#03133f" stroke-linecap="butt" stroke-linejoin="miter-clip" stroke-miterlimit="4.0" stroke-width="1.0"/>
    <path d="M-41.9 -176.4 L-38.85 -176.15 Q-36.6 -177.45 -29.95 -179.65 -28.1 -180.25 -29.2 -182.2 -30.2 -184.15 -32.6 -183.35 -40.85 -180.6 -44.2 -177.75 -44.5 -177.0 -41.9 -176.4" fill="url(#gradient5)" fill-rule="evenodd" stroke="none"/>
    <path d="M43.1 -176.4 L40.05 -176.15 Q37.8 -177.45 31.15 -179.65 29.3 -180.25 30.4 -182.2 31.4 -184.15 33.8 -183.35 42.05 -180.6 45.4 -177.75 45.7 -177.0 43.1 -176.4" fill="url(#gradient6)" fill-rule="evenodd" stroke="none"/>
    <path d="M31.15 -192.7 L33.55 -191.3 34.75 -186.4 29.75 -178.1 24.9 -176.85 22.55 -178.25 31.15 -192.7" fill="url(#gradient7)" fill-rule="evenodd" stroke="none"/>
    <path d="M36.25 -183.6 L33.05 -178.2 Q31.85 -178.85 30.6 -179.6 L33.85 -185.0 Q35.0 -184.25 36.25 -183.6" fill="#333333" fill-rule="evenodd" stroke="none"/>
    <path d="M-30.75 -192.7 L-33.15 -191.3 -34.4 -186.4 -29.4 -178.1 -24.55 -176.85 Q-23.4 -177.5 -22.2 -178.25 L-30.75 -192.7" fill="url(#gradient8)" fill-rule="evenodd" stroke="none"/>
    <path d="M-35.9 -183.6 L-32.65 -178.2 -30.25 -179.6 -33.45 -185.0 -35.9 -183.6" fill="#333333" fill-rule="evenodd" stroke="none"/>
    <path d="M-140.3 -98.9 L144.35 -98.9 Q145.2 -98.9 145.75 -98.3 146.35 -97.7 146.35 -96.9 L146.35 -41.35 Q146.35 -40.5 145.75 -39.95 145.2 -39.35 144.35 -39.35 L119.6 -39.35 Q117.65 -39.35 115.85 -40.35 L114.15 -41.3 Q112.4 -42.3 110.4 -42.3 L-106.45 -42.3 Q-108.4 -42.3 -110.2 -41.3 L-111.9 -40.35 Q-113.65 -39.35 -115.65 -39.35 L-140.3 -39.35 Q-141.1 -39.35 -141.7 -39.95 -142.3 -40.5 -142.3 -41.35 L-142.3 -96.9 Q-142.3 -97.7 -141.7 -98.3 -141.1 -98.9 -140.3 -98.9" fill="url(#gradient9)" fill-rule="evenodd" stroke="none"/>
    <path d="M-140.3 -98.9 L144.35 -98.9 Q145.2 -98.9 145.75 -98.3 146.35 -97.7 146.35 -96.9 L146.35 -41.35 Q146.35 -40.5 145.75 -39.95 145.2 -39.35 144.35 -39.35 L119.6 -39.35 Q117.65 -39.35 115.85 -40.35 L114.15 -41.3 Q112.4 -42.3 110.4 -42.3 L-106.45 -42.3 Q-108.4 -42.3 -110.2 -41.3 L-111.9 -40.35 Q-113.65 -39.35 -115.65 -39.35 L-140.3 -39.35 Q-141.1 -39.35 -141.7 -39.95 -142.3 -40.5 -142.3 -41.35 L-142.3 -96.9 Q-142.3 -97.7 -141.7 -98.3 -141.1 -98.9 -140.3 -98.9 Z" fill="none" stroke="#1a77ff" stroke-linecap="butt" stroke-linejoin="miter-clip" stroke-miterlimit="4.0" stroke-width="1.0"/>
    <path d="M-112.75 -39.5 Q-114.7 -38.85 -116.65 -38.85 L-140.9 -38.85 Q-141.7 -38.85 -142.3 -39.45 -142.9 -40.0 -142.9 -40.85 L-142.9 -41.6 Q-142.9 -42.4 -142.3 -43.0 -141.7 -43.6 -140.9 -43.6 L143.95 -43.6 Q144.8 -43.6 145.35 -43.0 145.95 -42.4 145.95 -41.6 L145.95 -40.85 Q145.95 -40.0 145.35 -39.45 144.8 -38.85 143.95 -38.85 L120.7 -38.85 Q118.75 -38.85 116.8 -39.5 L112.55 -41.0 108.7 -41.65 -104.65 -41.65 -108.55 -41.0 -112.75 -39.5" fill="#196bfc" fill-rule="evenodd" stroke="none"/>
    <path d="M-110.6 -100.05 L-107.1 -101.7 Q-105.3 -102.5 -103.3 -102.5 L106.9 -102.5 Q108.9 -102.5 110.7 -101.7 L114.2 -100.05 Q116.0 -99.25 118.0 -99.25 L144.35 -99.25 145.75 -99.05 146.35 -98.55 Q146.35 -98.3 145.75 -98.1 L144.35 -97.9 -140.3 -97.9 -141.7 -98.1 Q-142.3 -98.3 -142.3 -98.55 -142.3 -98.85 -141.7 -99.05 L-140.3 -99.25 -114.4 -99.25 Q-112.4 -99.25 -110.6 -100.05" fill="#196bfc" fill-rule="evenodd" stroke="none"/>
    <path d="M-109.75 -103.05 Q-110.9 -102.55 -112.65 -102.2 L-115.7 -101.85 -138.9 -101.85 Q-140.35 -101.85 -141.4 -102.85 -142.4 -103.9 -142.4 -105.35 L-142.4 -126.3 Q-142.4 -127.75 -141.4 -128.75 -140.35 -129.8 -138.9 -129.8 L142.75 -129.8 Q144.2 -129.8 145.25 -128.75 146.25 -127.75 146.25 -126.3 L146.25 -105.35 Q146.25 -103.9 145.25 -102.85 144.2 -101.85 142.75 -101.85 L119.3 -101.85 116.3 -102.25 Q114.6 -102.6 113.4 -103.15 L112.35 -103.65 109.65 -104.5 106.8 -104.85 -102.7 -104.85 -105.5 -104.5 -108.25 -103.7 -109.75 -103.05" fill="url(#gradient10)" fill-rule="evenodd" stroke="none"/>
    <path d="M-109.95 -103.5 L-108.45 -104.15 Q-107.3 -104.65 -105.65 -105.0 L-102.7 -105.35 106.8 -105.35 109.75 -105.0 112.55 -104.1 113.6 -103.6 116.4 -102.7 119.3 -102.35 142.75 -102.35 Q144.0 -102.35 144.85 -103.25 145.75 -104.1 145.75 -105.35 L145.75 -126.3 Q145.75 -127.55 144.85 -128.4 144.0 -129.3 142.75 -129.3 L-138.9 -129.3 Q-140.15 -129.3 -141.0 -128.4 -141.9 -127.55 -141.9 -126.3 L-141.9 -105.35 Q-141.9 -104.1 -141.0 -103.25 -140.15 -102.35 -138.9 -102.35 L-115.7 -102.35 -112.75 -102.7 -109.95 -103.5 M-102.7 -104.35 L-105.4 -104.0 -108.05 -103.25 -109.55 -102.6 Q-112.5 -101.35 -115.7 -101.35 L-138.9 -101.35 Q-140.55 -101.35 -141.7 -102.5 -142.9 -103.7 -142.9 -105.35 L-142.9 -126.3 Q-142.9 -127.95 -141.7 -129.1 -140.55 -130.3 -138.9 -130.3 L142.75 -130.3 Q144.45 -130.3 145.6 -129.1 146.75 -127.95 146.75 -126.3 L146.75 -105.35 Q146.75 -103.7 145.6 -102.5 144.45 -101.35 142.75 -101.35 L119.3 -101.35 116.15 -101.75 Q114.4 -102.15 113.15 -102.7 L112.1 -103.2 109.5 -104.0 106.8 -104.35 -102.7 -104.35" fill="#399cff" fill-rule="evenodd" stroke="none"/>
    <path d="M-78.85 -79.9 L35.05 -79.9 35.05 -59.3 -78.85 -59.3 -78.85 -79.9" fill="#041a66" fill-rule="evenodd" stroke="none"/>
    <path d="M35.5 -80.05 L35.5 -60.05 35.5 -59.05 -78.5 -59.05 -79.5 -59.05 -79.5 -79.05 -79.5 -80.05 34.5 -80.05 35.5 -80.05 M34.5 -79.05 L33.5 -79.05 -78.5 -79.05 -78.5 -78.05 -78.5 -60.05 -77.5 -60.05 34.5 -60.05 34.5 -61.05 34.5 -79.05" fill="#0a71ed" fill-rule="evenodd" stroke="none"/>
    <path d="M-140.3 -1.25 L144.35 -1.25 Q145.2 -1.25 145.75 -0.65 146.35 -0.05 146.35 0.75 L146.35 56.3 Q146.35 57.15 145.75 57.7 145.2 58.3 144.35 58.3 L119.6 58.3 Q117.65 58.3 115.85 57.3 L114.15 56.35 Q112.4 55.35 110.4 55.35 L-106.45 55.35 Q-108.4 55.35 -110.2 56.35 L-111.9 57.3 Q-113.65 58.3 -115.65 58.3 L-140.3 58.3 Q-141.1 58.3 -141.7 57.7 -142.3 57.15 -142.3 56.3 L-142.3 0.75 Q-142.3 -0.05 -141.7 -0.65 -141.1 -1.25 -140.3 -1.25" fill="url(#gradient11)" fill-rule="evenodd" stroke="none"/>
    <path d="M-140.3 -1.25 L144.35 -1.25 Q145.2 -1.25 145.75 -0.65 146.35 -0.05 146.35 0.75 L146.35 56.3 Q146.35 57.15 145.75 57.7 145.2 58.3 144.35 58.3 L119.6 58.3 Q117.65 58.3 115.85 57.3 L114.15 56.35 Q112.4 55.35 110.4 55.35 L-106.45 55.35 Q-108.4 55.35 -110.2 56.35 L-111.9 57.3 Q-113.65 58.3 -115.65 58.3 L-140.3 58.3 Q-141.1 58.3 -141.7 57.7 -142.3 57.15 -142.3 56.3 L-142.3 0.75 Q-142.3 -0.05 -141.7 -0.65 -141.1 -1.25 -140.3 -1.25 Z" fill="none" stroke="#1a77ff" stroke-linecap="butt" stroke-linejoin="miter-clip" stroke-miterlimit="4.0" stroke-width="1.0"/>
    <path d="M-112.75 58.15 L-116.65 58.8 -140.9 58.8 Q-141.7 58.8 -142.3 58.2 -142.9 57.65 -142.9 56.8 L-142.9 56.05 Q-142.9 55.25 -142.3 54.65 -141.7 54.05 -140.9 54.05 L143.95 54.05 Q144.8 54.05 145.35 54.65 145.95 55.25 145.95 56.05 L145.95 56.8 Q145.95 57.65 145.35 58.2 144.8 58.8 143.95 58.8 L120.7 58.8 116.8 58.15 112.55 56.65 Q110.7 56.0 108.7 56.0 L-104.65 56.0 Q-106.6 56.0 -108.55 56.65 L-112.75 58.15" fill="#196bfc" fill-rule="evenodd" stroke="none"/>
    <path d="M-110.6 -2.4 L-107.1 -4.05 Q-105.2 -4.9 -103.3 -4.9 L106.9 -4.9 Q108.8 -4.9 110.7 -4.05 L114.2 -2.4 Q116.0 -1.6 118.0 -1.6 L144.35 -1.6 145.75 -1.4 146.35 -0.9 Q146.35 -0.65 145.75 -0.45 L144.35 -0.25 -140.3 -0.25 -141.7 -0.45 Q-142.3 -0.65 -142.3 -0.9 -142.3 -1.2 -141.7 -1.4 L-140.3 -1.6 -114.4 -1.6 Q-112.4 -1.6 -110.6 -2.4" fill="#196bfc" fill-rule="evenodd" stroke="none"/>
    <path d="M-109.75 -5.4 Q-110.9 -4.9 -112.65 -4.55 L-115.7 -4.2 -138.9 -4.2 Q-140.35 -4.2 -141.4 -5.2 -142.4 -6.25 -142.4 -7.7 L-142.4 -28.65 Q-142.4 -30.1 -141.4 -31.1 -140.35 -32.15 -138.9 -32.15 L142.75 -32.15 Q144.2 -32.15 145.25 -31.1 146.25 -30.1 146.25 -28.65 L146.25 -7.7 Q146.25 -6.25 145.25 -5.2 144.2 -4.2 142.75 -4.2 L119.3 -4.2 116.3 -4.6 Q114.6 -4.95 113.4 -5.5 L112.35 -6.0 109.65 -6.85 106.8 -7.2 -102.7 -7.2 -105.5 -6.85 -108.25 -6.05 -109.75 -5.4" fill="url(#gradient12)" fill-rule="evenodd" stroke="none"/>
    <path d="M-109.95 -5.9 L-108.45 -6.5 Q-107.3 -7.0 -105.65 -7.35 L-102.7 -7.7 106.8 -7.7 109.75 -7.35 112.55 -6.45 113.6 -5.95 116.4 -5.05 119.3 -4.7 142.75 -4.7 Q144.0 -4.7 144.85 -5.6 145.75 -6.45 145.75 -7.7 L145.75 -28.65 Q145.75 -29.9 144.85 -30.75 144.0 -31.65 142.75 -31.65 L-138.9 -31.65 Q-140.15 -31.65 -141.0 -30.75 -141.9 -29.9 -141.9 -28.65 L-141.9 -7.7 Q-141.9 -6.45 -141.0 -5.6 -140.15 -4.7 -138.9 -4.7 L-115.7 -4.7 -112.75 -5.05 Q-111.1 -5.4 -109.95 -5.9 M-102.7 -6.7 L-105.4 -6.35 -108.05 -5.6 -109.55 -4.95 Q-112.5 -3.7 -115.7 -3.7 L-138.9 -3.7 Q-140.55 -3.7 -141.7 -4.85 -142.9 -6.05 -142.9 -7.7 L-142.9 -28.65 Q-142.9 -30.3 -141.7 -31.45 -140.55 -32.65 -138.9 -32.65 L142.75 -32.65 Q144.45 -32.65 145.6 -31.45 146.75 -30.3 146.75 -28.65 L146.75 -7.7 Q146.75 -6.05 145.6 -4.85 144.45 -3.7 142.75 -3.7 L119.3 -3.7 116.15 -4.1 Q114.4 -4.5 113.15 -5.05 L112.1 -5.55 109.5 -6.35 106.8 -6.7 -102.7 -6.7" fill="#399cff" fill-rule="evenodd" stroke="none"/>
    <path d="M-77.9 16.55 L36.0 16.55 36.0 37.15 -77.9 37.15 -77.9 16.55" fill="#041a66" fill-rule="evenodd" stroke="none"/>
    <path d="M35.45 17.4 L34.45 17.4 -77.55 17.4 -77.55 18.4 -77.55 36.4 -76.55 36.4 35.45 36.4 35.45 35.4 35.45 17.4 M36.45 16.4 L36.45 36.4 36.45 37.4 -77.55 37.4 -78.55 37.4 -78.55 17.4 -78.55 16.4 35.45 16.4 36.45 16.4" fill="#0a71ed" fill-rule="evenodd" stroke="none"/>
    <path d="M0.85 -202.55 L3.6 -197.0 9.75 -196.1 5.3 -191.75 6.35 -185.7 0.85 -188.55 -4.6 -185.7 -3.55 -191.75 -8.0 -196.1 -1.9 -197.0 0.85 -202.55" fill="#0544a0" fill-rule="evenodd" stroke="none"/>
    <path d="M0.85 -202.55 L3.6 -197.0 9.75 -196.1 5.3 -191.75 6.35 -185.7 0.85 -188.55 -4.6 -185.7 -3.55 -191.75 -8.0 -196.1 -1.9 -197.0 0.85 -202.55 Z" fill="none" stroke="#0a75e0" stroke-linecap="butt" stroke-linejoin="miter-clip" stroke-miterlimit="4.0" stroke-width="1.0"/>
    <path d="M4.05 -193.35 L0.85 -191.3 -2.3 -193.35 -2.3 -195.0 0.85 -192.9 4.05 -195.0 4.05 -193.35" fill="#48b9ff" fill-rule="evenodd" stroke="none"/>
    <path d="M-127.95 -150.45 Q-127.95 -146.35 -130.85 -143.5 -133.7 -140.6 -137.8 -140.6 -141.9 -140.6 -144.8 -143.5 -147.7 -146.35 -147.7 -150.45 -147.7 -154.55 -144.8 -157.45 -141.9 -160.35 -137.8 -160.35 -133.7 -160.35 -130.85 -157.45 -127.95 -154.55 -127.95 -150.45" fill="#0c56c1" fill-rule="evenodd" stroke="none"/>
    <path d="M-137.8 -161.35 Q-133.3 -161.35 -130.1 -158.15 -126.95 -154.95 -126.95 -150.45 -126.95 -145.95 -130.1 -142.75 -133.3 -139.6 -137.8 -139.6 -142.3 -139.6 -145.5 -142.75 -148.7 -145.95 -148.7 -150.45 -148.7 -154.95 -145.5 -158.15 -142.3 -161.35 -137.8 -161.35 M-130.85 -157.45 Q-133.7 -160.35 -137.8 -160.35 -141.9 -160.35 -144.8 -157.45 -147.7 -154.55 -147.7 -150.45 -147.7 -146.35 -144.8 -143.5 -141.9 -140.6 -137.8 -140.6 -133.7 -140.6 -130.85 -143.5 -127.95 -146.35 -127.95 -150.45 -127.95 -154.55 -130.85 -157.45" fill="#00cfff" fill-rule="evenodd" stroke="none"/>
  </g>
  <defs>
    <linearGradient gradientTransform="matrix(0.0, -0.1732, -0.1732, 0.0, 0.95, -35.6)" gradientUnits="userSpaceOnUse" id="gradient0" spreadMethod="pad" x1="-819.2" x2="819.2">
      <stop offset="0.0" stop-color="#000042"/>
      <stop offset="1.0" stop-color="#003093"/>
    </linearGradient>
    <linearGradient gradientTransform="matrix(0.0, -0.0082, -0.0082, 0.0, 0.65, -174.75)" gradientUnits="userSpaceOnUse" id="gradient1" spreadMethod="pad" x1="-819.2" x2="819.2">
      <stop offset="0.0" stop-color="#a4a4a4"/>
      <stop offset="1.0" stop-color="#505050"/>
    </linearGradient>
    <linearGradient gradientTransform="matrix(-0.0038, 0.0, 0.0, 0.0038, -159.75, -153.25)" gradientUnits="userSpaceOnUse" id="gradient2" spreadMethod="pad" x1="-819.2" x2="819.2">
      <stop offset="0.0" stop-color="#505050"/>
      <stop offset="1.0" stop-color="#a4a4a4"/>
    </linearGradient>
    <linearGradient gradientTransform="matrix(-0.0038, 0.0, 0.0, -0.0038, 161.6, -153.25)" gradientUnits="userSpaceOnUse" id="gradient3" spreadMethod="pad" x1="-819.2" x2="819.2">
      <stop offset="0.0" stop-color="#505050"/>
      <stop offset="1.0" stop-color="#a4a4a4"/>
    </linearGradient>
    <linearGradient gradientTransform="matrix(0.0, -0.0195, 0.0195, 0.0, 0.55, -191.95)" gradientUnits="userSpaceOnUse" id="gradient4" spreadMethod="pad" x1="-819.2" x2="819.2">
      <stop offset="0.0" stop-color="#373737"/>
      <stop offset="0.6549019607843137" stop-color="#a4a4a4"/>
      <stop offset="0.803921568627451" stop-color="#a4a4a4"/>
      <stop offset="1.0" stop-color="#6b6b6b"/>
    </linearGradient>
    <linearGradient gradientTransform="matrix(0.0016, 0.0038, 0.0089, -0.0036, -68.7, -166.0)" gradientUnits="userSpaceOnUse" id="gradient5" spreadMethod="pad" x1="-819.2" x2="819.2">
      <stop offset="0.0" stop-color="#505050"/>
      <stop offset="0.09803921568627451" stop-color="#373737"/>
      <stop offset="0.5254901960784314" stop-color="#6e6861"/>
      <stop offset="0.8862745098039215" stop-color="#3d3d3d"/>
      <stop offset="1.0" stop-color="#505050"/>
    </linearGradient>
    <linearGradient gradientTransform="matrix(-0.0016, 0.0038, -0.0089, -0.0036, 69.9, -166.0)" gradientUnits="userSpaceOnUse" id="gradient6" spreadMethod="pad" x1="-819.2" x2="819.2">
      <stop offset="0.0" stop-color="#505050"/>
      <stop offset="0.09803921568627451" stop-color="#373737"/>
      <stop offset="0.5254901960784314" stop-color="#6e6861"/>
      <stop offset="0.8862745098039215" stop-color="#3d3d3d"/>
      <stop offset="1.0" stop-color="#505050"/>
    </linearGradient>
    <linearGradient gradientTransform="matrix(-0.005, 0.009, 0.009, 0.005, 29.5, -183.9)" gradientUnits="userSpaceOnUse" id="gradient7" spreadMethod="pad" x1="-819.2" x2="819.2">
      <stop offset="0.0" stop-color="#505050"/>
      <stop offset="0.09803921568627451" stop-color="#373737"/>
      <stop offset="0.5254901960784314" stop-color="#6e6963"/>
      <stop offset="0.8862745098039215" stop-color="#3d3d3d"/>
      <stop offset="1.0" stop-color="#505050"/>
    </linearGradient>
    <linearGradient gradientTransform="matrix(0.005, 0.009, -0.009, 0.005, -29.15, -183.9)" gradientUnits="userSpaceOnUse" id="gradient8" spreadMethod="pad" x1="-819.2" x2="819.2">
      <stop offset="0.0" stop-color="#505050"/>
      <stop offset="0.09803921568627451" stop-color="#373737"/>
      <stop offset="0.5254901960784314" stop-color="#6e6963"/>
      <stop offset="0.8862745098039215" stop-color="#3d3d3d"/>
      <stop offset="1.0" stop-color="#505050"/>
    </linearGradient>
    <linearGradient gradientTransform="matrix(0.0, -0.0363, -0.0363, 0.0, 2.0, -69.15)" gradientUnits="userSpaceOnUse" id="gradient9" spreadMethod="pad" x1="-819.2" x2="819.2">
      <stop offset="0.0" stop-color="#112180"/>
      <stop offset="0.011764705882352941" stop-color="#0f207c"/>
      <stop offset="0.08235294117647059" stop-color="#081c6b"/>
      <stop offset="0.17254901960784313" stop-color="#041960"/>
      <stop offset="0.2980392156862745" stop-color="#011759"/>
      <stop offset="0.6470588235294118" stop-color="#001757"/>
      <stop offset="0.8352941176470589" stop-color="#011759"/>
      <stop offset="0.9058823529411765" stop-color="#041960"/>
      <stop offset="0.9529411764705882" stop-color="#081c6b"/>
      <stop offset="0.9921568627450981" stop-color="#0f207c"/>
      <stop offset="1.0" stop-color="#112180"/>
    </linearGradient>
    <linearGradient gradientTransform="matrix(0.0, -0.017, -0.017, 0.0, 1.95, -115.8)" gradientUnits="userSpaceOnUse" id="gradient10" spreadMethod="pad" x1="-819.2" x2="819.2">
      <stop offset="0.0" stop-color="#004bc2"/>
      <stop offset="0.7647058823529411" stop-color="#003498"/>
      <stop offset="1.0" stop-color="#0057d9"/>
    </linearGradient>
    <linearGradient gradientTransform="matrix(0.0, -0.0363, -0.0363, 0.0, 2.0, 28.5)" gradientUnits="userSpaceOnUse" id="gradient11" spreadMethod="pad" x1="-819.2" x2="819.2">
      <stop offset="0.0" stop-color="#112180"/>
      <stop offset="0.011764705882352941" stop-color="#0f207c"/>
      <stop offset="0.08235294117647059" stop-color="#081c6b"/>
      <stop offset="0.17254901960784313" stop-color="#041960"/>
      <stop offset="0.2980392156862745" stop-color="#011759"/>
      <stop offset="0.6470588235294118" stop-color="#001757"/>
      <stop offset="0.8352941176470589" stop-color="#011759"/>
      <stop offset="0.9058823529411765" stop-color="#041960"/>
      <stop offset="0.9529411764705882" stop-color="#081c6b"/>
      <stop offset="0.9921568627450981" stop-color="#0f207c"/>
      <stop offset="1.0" stop-color="#112180"/>
    </linearGradient>
    <linearGradient gradientTransform="matrix(0.0, -0.017, -0.017, 0.0, 1.95, -18.15)" gradientUnits="userSpaceOnUse" id="gradient12" spreadMethod="pad" x1="-819.2" x2="819.2">
      <stop offset="0.0" stop-color="#004bc2"/>
      <stop offset="0.7647058823529411" stop-color="#003498"/>
      <stop offset="1.0" stop-color="#0057d9"/>
    </linearGradient>
  </defs>
</svg>
