<?xml version="1.0" encoding="UTF-8" standalone="no"?>
<svg xmlns:ffdec="https://www.free-decompiler.com/flash" xmlns:xlink="http://www.w3.org/1999/xlink" ffdec:objectType="shape" height="24.85px" width="24.1px" xmlns="http://www.w3.org/2000/svg">
  <g transform="matrix(1.0, 0.0, 0.0, 1.0, 0.0, 0.0)">
    <path d="M8.9 1.75 Q3.0 2.85 1.75 8.8 L0.05 8.8 Q0.7 5.4 3.15 2.95 5.55 0.55 8.9 0.0 L8.9 1.75" fill="#31ffff" fill-rule="evenodd" stroke="none"/>
    <path d="M22.3 8.8 Q21.05 2.9 15.3 1.75 L15.3 0.05 Q18.6 0.6 21.0 3.0 23.4 5.45 24.0 8.8 L22.3 8.8" fill="#31ffff" fill-rule="evenodd" stroke="none"/>
    <path d="M15.3 23.05 Q18.25 22.5 20.1 20.55 21.9 18.6 22.4 15.5 L24.1 15.5 Q23.6 19.05 21.15 21.65 18.7 24.25 15.3 24.8 L15.3 23.05" fill="#31ffff" fill-rule="evenodd" stroke="none"/>
    <path d="M1.65 15.5 Q2.75 21.95 8.9 23.1 L8.9 24.85 Q5.45 24.3 2.95 21.7 0.5 19.1 0.0 15.5 L1.65 15.5" fill="#31ffff" fill-rule="evenodd" stroke="none"/>
  </g>
</svg>
