<?xml version="1.0" encoding="UTF-8" standalone="no"?>
<svg xmlns:ffdec="https://www.free-decompiler.com/flash" xmlns:xlink="http://www.w3.org/1999/xlink" ffdec:objectType="shape" height="25.9px" width="50.6px" xmlns="http://www.w3.org/2000/svg">
  <g transform="matrix(1.0, 0.0, 0.0, 1.0, 0.0, 0.0)">
    <path d="M48.15 1.9 Q47.0 1.0 45.4 1.0 L5.2 1.0 Q3.6 1.0 2.45 1.9 1.3 2.75 1.3 4.0 L1.3 21.9 Q1.3 23.15 2.45 24.0 3.6 24.9 5.2 24.9 L45.4 24.9 Q47.0 24.9 48.15 24.0 49.3 23.15 49.3 21.9 L49.3 4.0 Q49.3 2.75 48.15 1.9 M50.6 4.0 L50.6 21.9 Q50.6 23.55 49.15 24.75 47.55 25.9 45.4 25.9 L5.2 25.9 Q3.05 25.9 1.6 24.75 0.0 23.55 0.0 21.9 L0.0 4.0 Q0.0 2.35 1.6 1.2 3.05 0.0 5.2 0.0 L45.4 0.0 Q47.55 0.0 49.15 1.2 50.6 2.35 50.6 4.0" fill="#399cff" fill-rule="evenodd" stroke="none"/>
    <path d="M48.15 1.9 Q49.3 2.75 49.3 4.0 L49.3 21.9 Q49.3 23.15 48.15 24.0 47.0 24.9 45.4 24.9 L5.2 24.9 Q3.6 24.9 2.45 24.0 1.3 23.15 1.3 21.9 L1.3 4.0 Q1.3 2.75 2.45 1.9 3.6 1.0 5.2 1.0 L45.4 1.0 Q47.0 1.0 48.15 1.9" fill="#042d7f" fill-rule="evenodd" stroke="none"/>
  </g>
</svg>
