<?xml version="1.0" encoding="UTF-8" standalone="no"?>
<svg xmlns:ffdec="https://www.free-decompiler.com/flash" xmlns:xlink="http://www.w3.org/1999/xlink" ffdec:objectType="shape" height="7.85px" width="4.25px" xmlns="http://www.w3.org/2000/svg">
  <g transform="matrix(1.0, 0.0, 0.0, 1.0, -4.45, -9.25)">
    <path d="M8.0 9.8 Q8.6 10.45 8.6 11.25 8.6 12.1 8.0 12.7 7.4 13.25 6.55 13.25 5.7 13.25 5.15 12.7 4.55 12.1 4.55 11.25 4.55 10.45 5.15 9.8 5.7 9.25 6.55 9.25 7.4 9.25 8.0 9.8 M6.55 13.85 Q7.4 13.85 8.1 14.8 8.7 15.75 8.7 17.1 L4.45 17.1 Q4.45 15.75 5.1 14.8 5.7 13.85 6.55 13.85" fill="#399cff" fill-rule="evenodd" stroke="none"/>
  </g>
</svg>
