<?xml version="1.0" encoding="UTF-8" standalone="no"?>
<svg xmlns:ffdec="https://www.free-decompiler.com/flash" xmlns:xlink="http://www.w3.org/1999/xlink" ffdec:objectType="shape" height="25.9px" width="50.6px" xmlns="http://www.w3.org/2000/svg">
  <g transform="matrix(1.0, 0.0, 0.0, 1.0, 0.05, 0.0)">
    <path d="M49.9 4.0 L49.9 21.9 Q49.9 23.35 48.6 24.35 47.25 25.4 45.35 25.4 L5.15 25.4 Q3.3 25.4 1.9 24.35 0.6 23.35 0.6 21.9 L0.6 4.0 Q0.6 2.55 1.9 1.5 3.3 0.5 5.15 0.5 L45.35 0.5 Q47.25 0.5 48.6 1.5 49.9 2.55 49.9 4.0" fill="url(#gradient0)" fill-rule="evenodd" stroke="none"/>
    <path d="M-0.05 4.0 Q-0.05 2.35 1.5 1.2 3.0 0.0 5.15 0.0 L45.35 0.0 Q47.5 0.0 49.05 1.2 50.55 2.35 50.55 4.0 L50.55 21.9 Q50.55 23.55 49.05 24.75 47.5 25.9 45.35 25.9 L5.15 25.9 Q3.0 25.9 1.5 24.75 -0.05 23.55 -0.05 21.9 L-0.05 4.0 M2.45 1.9 Q1.25 2.75 1.25 4.0 L1.25 21.9 Q1.25 23.15 2.45 24.0 3.55 24.9 5.15 24.9 L45.35 24.9 Q47.0 24.9 48.1 24.0 49.25 23.15 49.25 21.9 L49.25 4.0 Q49.25 2.75 48.1 1.9 47.0 1.0 45.35 1.0 L5.15 1.0 Q3.55 1.0 2.45 1.9" fill="#399cff" fill-rule="evenodd" stroke="none"/>
  </g>
  <defs>
    <linearGradient gradientTransform="matrix(0.0, -0.0152, -0.0198, 0.0, 25.25, 12.95)" gradientUnits="userSpaceOnUse" id="gradient0" spreadMethod="pad" x1="-819.2" x2="819.2">
      <stop offset="0.0" stop-color="#004bc2"/>
      <stop offset="0.7647058823529411" stop-color="#003498"/>
      <stop offset="1.0" stop-color="#0057d9"/>
    </linearGradient>
  </defs>
</svg>
