<?xml version="1.0" encoding="UTF-8" standalone="no"?>
<svg xmlns:ffdec="https://www.free-decompiler.com/flash" xmlns:xlink="http://www.w3.org/1999/xlink" ffdec:objectType="shape" height="23.3px" width="45.5px" xmlns="http://www.w3.org/2000/svg">
  <g transform="matrix(1.0, 0.0, 0.0, 1.0, -2.55, -1.3)">
    <path d="M47.5 4.9 L47.5 21.0 Q47.5 22.3 46.3 23.2 45.1 24.15 43.4 24.15 L7.2 24.15 Q5.5 24.15 4.3 23.2 3.1 22.3 3.1 21.0 L3.1 4.9 Q3.1 3.55 4.3 2.65 5.5 1.75 7.2 1.75 L43.4 1.75 Q45.1 1.75 46.3 2.65 47.5 3.55 47.5 4.9" fill="url(#gradient0)" fill-rule="evenodd" stroke="none"/>
    <path d="M7.2 2.2 Q5.75 2.2 4.75 3.0 3.7 3.75 3.7 4.9 L3.7 21.0 Q3.7 22.1 4.75 22.9 5.75 23.7 7.2 23.7 L43.4 23.7 Q44.85 23.7 45.85 22.9 46.9 22.1 46.9 21.0 L46.9 4.9 Q46.9 3.75 45.85 3.0 44.85 2.2 43.4 2.2 L7.2 2.2 M2.55 4.9 Q2.55 3.4 3.95 2.35 5.3 1.3 7.2 1.3 L43.4 1.3 Q45.3 1.3 46.7 2.35 48.05 3.4 48.05 4.9 L48.05 21.0 Q48.05 22.45 46.7 23.55 45.3 24.6 43.4 24.6 L7.2 24.6 Q5.3 24.6 3.95 23.55 2.55 22.45 2.55 21.0 L2.55 4.9" fill="#399cff" fill-rule="evenodd" stroke="none"/>
  </g>
  <defs>
    <linearGradient gradientTransform="matrix(0.0, -0.0137, -0.0178, 0.0, 25.25, 12.95)" gradientUnits="userSpaceOnUse" id="gradient0" spreadMethod="pad" x1="-819.2" x2="819.2">
      <stop offset="0.0" stop-color="#004bc2"/>
      <stop offset="0.7647058823529411" stop-color="#003498"/>
      <stop offset="1.0" stop-color="#0057d9"/>
    </linearGradient>
  </defs>
</svg>
