<?xml version="1.0" encoding="UTF-8" standalone="no"?>
<svg xmlns:ffdec="https://www.free-decompiler.com/flash" xmlns:xlink="http://www.w3.org/1999/xlink" ffdec:objectType="shape" height="23.3px" width="34.95px" xmlns="http://www.w3.org/2000/svg">
  <g transform="matrix(1.0, 0.0, 0.0, 1.0, -1.95, -1.3)">
    <path d="M36.45 4.9 L36.45 21.0 Q36.45 22.3 35.55 23.2 34.6 24.15 33.3 24.15 L5.55 24.15 Q4.25 24.15 3.3 23.2 2.4 22.3 2.4 21.0 L2.4 4.9 Q2.4 3.55 3.3 2.65 4.25 1.75 5.55 1.75 L33.3 1.75 Q34.6 1.75 35.55 2.65 36.45 3.55 36.45 4.9" fill="url(#gradient0)" fill-rule="evenodd" stroke="none"/>
    <path d="M3.0 2.35 Q4.05 1.3 5.55 1.3 L33.3 1.3 Q34.8 1.3 35.85 2.35 36.9 3.4 36.9 4.9 L36.9 21.0 Q36.9 22.45 35.85 23.55 34.8 24.6 33.3 24.6 L5.55 24.6 Q4.05 24.6 3.0 23.55 1.95 22.45 1.95 21.0 L1.95 4.9 Q1.95 3.4 3.0 2.35 M5.55 2.2 Q4.4 2.2 3.65 3.0 2.85 3.75 2.85 4.9 L2.85 21.0 Q2.85 22.1 3.65 22.9 4.4 23.7 5.55 23.7 L33.3 23.7 Q34.45 23.7 35.2 22.9 36.0 22.1 36.0 21.0 L36.0 4.9 Q36.0 3.75 35.2 3.0 34.45 2.2 33.3 2.2 L5.55 2.2" fill="#399cff" fill-rule="evenodd" stroke="none"/>
  </g>
  <defs>
    <linearGradient gradientTransform="matrix(0.0, -0.0137, -0.0137, 0.0, 19.4, 12.95)" gradientUnits="userSpaceOnUse" id="gradient0" spreadMethod="pad" x1="-819.2" x2="819.2">
      <stop offset="0.0" stop-color="#004bc2"/>
      <stop offset="0.7647058823529411" stop-color="#003498"/>
      <stop offset="1.0" stop-color="#0057d9"/>
    </linearGradient>
  </defs>
</svg>
