<?xml version="1.0" encoding="UTF-8" standalone="no"?>
<svg xmlns:ffdec="https://www.free-decompiler.com/flash" xmlns:xlink="http://www.w3.org/1999/xlink" ffdec:objectType="shape" height="59.0px" width="242.4px" xmlns="http://www.w3.org/2000/svg">
  <g transform="matrix(1.0, 0.0, 0.0, 1.0, 0.0, 0.0)">
    <path d="M238.4 1.5 Q239.65 1.5 240.5 2.4 241.4 3.25 241.4 4.5 L241.4 40.4 Q241.4 41.65 240.5 42.5 239.65 43.4 238.4 43.4 L150.1 43.4 Q148.85 43.4 147.55 44.2 146.2 44.95 145.55 46.0 L140.35 54.65 Q139.7 55.7 138.4 56.45 137.05 57.2 135.8 57.2 L5.45 57.2 Q4.2 57.2 3.35 56.3 2.45 55.45 2.45 54.2 L2.45 4.5 Q2.45 3.25 3.35 2.4 4.2 1.5 5.45 1.5 L238.4 1.5" fill="#021147" fill-rule="evenodd" stroke="none"/>
    <path d="M238.4 1.5 L5.45 1.5 Q4.2 1.5 3.35 2.4 2.45 3.25 2.45 4.5 L2.45 54.2 Q2.45 55.45 3.35 56.3 4.2 57.2 5.45 57.2 L135.8 57.2 Q137.05 57.2 138.4 56.45 139.7 55.7 140.35 54.65 L145.55 46.0 Q146.2 44.95 147.55 44.2 148.85 43.4 150.1 43.4 L238.4 43.4 Q239.65 43.4 240.5 42.5 241.4 41.65 241.4 40.4 L241.4 4.5 Q241.4 3.25 240.5 2.4 239.65 1.5 238.4 1.5 Z" fill="none" stroke="#05429b" stroke-linecap="butt" stroke-linejoin="miter-clip" stroke-miterlimit="4.0" stroke-width="2.0"/>
    <path d="M4.45 0.0 L8.15 0.0 8.15 0.75 6.8 0.75 Q5.05 0.75 3.75 2.0 2.5 3.3 2.5 5.05 L2.5 16.85 0.0 16.85 0.0 4.5 Q0.0 2.65 1.3 1.3 2.6 0.0 4.45 0.0" fill="#4387ff" fill-rule="evenodd" stroke="none"/>
    <path d="M2.5 42.15 L2.5 53.95 Q2.5 55.75 3.75 57.0 5.05 58.25 6.8 58.25 L8.15 58.25 8.15 59.0 4.45 59.0 Q2.6 59.0 1.3 57.7 0.0 56.4 0.0 54.55 L0.0 42.15 2.5 42.15" fill="#4387ff" fill-rule="evenodd" stroke="none"/>
  </g>
</svg>
