<?xml version="1.0" encoding="UTF-8" standalone="no"?>
<svg xmlns:ffdec="https://www.free-decompiler.com/flash" xmlns:xlink="http://www.w3.org/1999/xlink" ffdec:objectType="shape" height="23.4px" width="117.5px" xmlns="http://www.w3.org/2000/svg">
  <g transform="matrix(1.0, 0.0, 0.0, 1.0, 0.5, 0.5)">
    <path d="M20.5 9.4 L0.0 9.4 0.0 0.0 20.5 0.0 20.5 9.4" fill="#043089" fill-rule="evenodd" stroke="none"/>
    <path d="M20.5 9.4 L0.0 9.4 0.0 0.0 20.5 0.0 20.5 9.4 Z" fill="none" stroke="#2e74ff" stroke-linecap="butt" stroke-linejoin="miter-clip" stroke-miterlimit="4.0" stroke-width="1.0"/>
    <path d="M18.75 5.6 Q18.75 6.45 18.15 7.0 17.6 7.6 16.75 7.6 L3.8 7.6 Q3.0 7.6 2.4 7.0 1.8 6.45 1.8 5.6 L1.8 3.75 Q1.8 2.95 2.4 2.35 3.0 1.75 3.8 1.75 L16.75 1.75 Q17.6 1.75 18.15 2.35 18.75 2.95 18.75 3.75 L18.75 5.6" fill="#00a4ff" fill-rule="evenodd" stroke="none"/>
    <path d="M44.5 9.4 L24.0 9.4 24.0 0.0 44.5 0.0 44.5 9.4" fill="#043089" fill-rule="evenodd" stroke="none"/>
    <path d="M44.5 9.4 L24.0 9.4 24.0 0.0 44.5 0.0 44.5 9.4 Z" fill="none" stroke="#2e74ff" stroke-linecap="butt" stroke-linejoin="miter-clip" stroke-miterlimit="4.0" stroke-width="1.0"/>
    <path d="M26.4 7.0 Q25.8 6.45 25.8 5.6 L25.8 3.75 Q25.8 2.95 26.4 2.35 27.0 1.75 27.8 1.75 L40.75 1.75 Q41.6 1.75 42.15 2.35 42.75 2.95 42.75 3.75 L42.75 5.6 Q42.75 6.45 42.15 7.0 41.6 7.6 40.75 7.6 L27.8 7.6 Q27.0 7.6 26.4 7.0" fill="#00a4ff" fill-rule="evenodd" stroke="none"/>
    <path d="M48.0 0.0 L68.5 0.0 68.5 9.4 48.0 9.4 48.0 0.0" fill="#043089" fill-rule="evenodd" stroke="none"/>
    <path d="M48.0 0.0 L68.5 0.0 68.5 9.4 48.0 9.4 48.0 0.0 Z" fill="none" stroke="#2e74ff" stroke-linecap="butt" stroke-linejoin="miter-clip" stroke-miterlimit="4.0" stroke-width="1.0"/>
    <path d="M92.5 9.4 L72.0 9.4 72.0 0.0 92.5 0.0 92.5 9.4" fill="#043089" fill-rule="evenodd" stroke="none"/>
    <path d="M92.5 9.4 L72.0 9.4 72.0 0.0 92.5 0.0 92.5 9.4 Z" fill="none" stroke="#2e74ff" stroke-linecap="butt" stroke-linejoin="miter-clip" stroke-miterlimit="4.0" stroke-width="1.0"/>
    <path d="M116.5 9.4 L96.0 9.4 96.0 0.0 116.5 0.0 116.5 9.4" fill="#043089" fill-rule="evenodd" stroke="none"/>
    <path d="M116.5 9.4 L96.0 9.4 96.0 0.0 116.5 0.0 116.5 9.4 Z" fill="none" stroke="#2e74ff" stroke-linecap="butt" stroke-linejoin="miter-clip" stroke-miterlimit="4.0" stroke-width="1.0"/>
    <path d="M44.5 22.4 L24.0 22.4 24.0 13.0 44.5 13.0 44.5 22.4" fill="#043089" fill-rule="evenodd" stroke="none"/>
    <path d="M44.5 22.4 L24.0 22.4 24.0 13.0 44.5 13.0 44.5 22.4 Z" fill="none" stroke="#2e74ff" stroke-linecap="butt" stroke-linejoin="miter-clip" stroke-miterlimit="4.0" stroke-width="1.0"/>
    <path d="M48.0 13.0 L68.5 13.0 68.5 22.4 48.0 22.4 48.0 13.0" fill="#043089" fill-rule="evenodd" stroke="none"/>
    <path d="M48.0 13.0 L68.5 13.0 68.5 22.4 48.0 22.4 48.0 13.0 Z" fill="none" stroke="#2e74ff" stroke-linecap="butt" stroke-linejoin="miter-clip" stroke-miterlimit="4.0" stroke-width="1.0"/>
    <path d="M92.5 22.4 L72.0 22.4 72.0 13.0 92.5 13.0 92.5 22.4" fill="#043089" fill-rule="evenodd" stroke="none"/>
    <path d="M92.5 22.4 L72.0 22.4 72.0 13.0 92.5 13.0 92.5 22.4 Z" fill="none" stroke="#2e74ff" stroke-linecap="butt" stroke-linejoin="miter-clip" stroke-miterlimit="4.0" stroke-width="1.0"/>
    <path d="M116.5 22.4 L96.0 22.4 96.0 13.0 116.5 13.0 116.5 22.4" fill="#043089" fill-rule="evenodd" stroke="none"/>
    <path d="M116.5 22.4 L96.0 22.4 96.0 13.0 116.5 13.0 116.5 22.4 Z" fill="none" stroke="#2e74ff" stroke-linecap="butt" stroke-linejoin="miter-clip" stroke-miterlimit="4.0" stroke-width="1.0"/>
    <path d="M20.5 22.4 L0.0 22.4 0.0 13.0 20.5 13.0 20.5 22.4" fill="#043089" fill-rule="evenodd" stroke="none"/>
    <path d="M20.5 22.4 L0.0 22.4 0.0 13.0 20.5 13.0 20.5 22.4 Z" fill="none" stroke="#2e74ff" stroke-linecap="butt" stroke-linejoin="miter-clip" stroke-miterlimit="4.0" stroke-width="1.0"/>
  </g>
</svg>
