<?xml version="1.0" encoding="UTF-8" standalone="no"?>
<svg xmlns:ffdec="https://www.free-decompiler.com/flash" xmlns:xlink="http://www.w3.org/1999/xlink" ffdec:objectType="shape" height="23.4px" width="117.5px" xmlns="http://www.w3.org/2000/svg">
  <g transform="matrix(1.0, 0.0, 0.0, 1.0, 0.5, 0.5)">
    <path d="M20.5 9.4 L0.0 9.4 0.0 0.0 20.5 0.0 20.5 9.4" fill="#043089" fill-rule="evenodd" stroke="none"/>
    <path d="M20.5 9.4 L0.0 9.4 0.0 0.0 20.5 0.0 20.5 9.4 Z" fill="none" stroke="#2e74ff" stroke-linecap="butt" stroke-linejoin="miter-clip" stroke-miterlimit="4.0" stroke-width="1.0"/>
    <path d="M18.75 5.6 Q18.75 6.45 18.15 7.0 17.6 7.6 16.75 7.6 L3.8 7.6 Q3.0 7.6 2.4 7.0 1.8 6.45 1.8 5.6 L1.8 3.75 Q1.8 2.95 2.4 2.35 3.0 1.75 3.8 1.75 L16.75 1.75 Q17.6 1.75 18.15 2.35 18.75 2.95 18.75 3.75 L18.75 5.6" fill="#00a4ff" fill-rule="evenodd" stroke="none"/>
    <path d="M44.5 9.4 L24.0 9.4 24.0 0.0 44.5 0.0 44.5 9.4" fill="#043089" fill-rule="evenodd" stroke="none"/>
    <path d="M44.5 9.4 L24.0 9.4 24.0 0.0 44.5 0.0 44.5 9.4 Z" fill="none" stroke="#2e74ff" stroke-linecap="butt" stroke-linejoin="miter-clip" stroke-miterlimit="4.0" stroke-width="1.0"/>
    <path d="M26.4 7.0 Q25.8 6.45 25.8 5.6 L25.8 3.75 Q25.8 2.95 26.4 2.35 27.0 1.75 27.8 1.75 L40.75 1.75 Q41.6 1.75 42.15 2.35 42.75 2.95 42.75 3.75 L42.75 5.6 Q42.75 6.45 42.15 7.0 41.6 7.6 40.75 7.6 L27.8 7.6 Q27.0 7.6 26.4 7.0" fill="#00a4ff" fill-rule="evenodd" stroke="none"/>
    <path d="M48.0 0.0 L68.5 0.0 68.5 9.4 48.0 9.4 48.0 0.0" fill="#043089" fill-rule="evenodd" stroke="none"/>
    <path d="M48.0 0.0 L68.5 0.0 68.5 9.4 48.0 9.4 48.0 0.0 Z" fill="none" stroke="#2e74ff" stroke-linecap="butt" stroke-linejoin="miter-clip" stroke-miterlimit="4.0" stroke-width="1.0"/>
    <path d="M50.4 2.35 Q51.0 1.75 51.8 1.75 L64.75 1.75 Q65.6 1.75 66.15 2.35 66.75 2.95 66.75 3.75 L66.75 5.6 Q66.75 6.45 66.15 7.0 65.6 7.6 64.75 7.6 L51.8 7.6 Q51.0 7.6 50.4 7.0 49.8 6.45 49.8 5.6 L49.8 3.75 Q49.8 2.95 50.4 2.35" fill="#00a4ff" fill-rule="evenodd" stroke="none"/>
    <path d="M92.5 9.4 L72.0 9.4 72.0 0.0 92.5 0.0 92.5 9.4" fill="#043089" fill-rule="evenodd" stroke="none"/>
    <path d="M92.5 9.4 L72.0 9.4 72.0 0.0 92.5 0.0 92.5 9.4 Z" fill="none" stroke="#2e74ff" stroke-linecap="butt" stroke-linejoin="miter-clip" stroke-miterlimit="4.0" stroke-width="1.0"/>
    <path d="M74.4 2.35 Q75.0 1.75 75.8 1.75 L88.75 1.75 Q89.6 1.75 90.15 2.35 90.75 2.95 90.75 3.75 L90.75 5.6 Q90.75 6.45 90.15 7.0 89.6 7.6 88.75 7.6 L75.8 7.6 Q75.0 7.6 74.4 7.0 73.8 6.45 73.8 5.6 L73.8 3.75 Q73.8 2.95 74.4 2.35" fill="#00a4ff" fill-rule="evenodd" stroke="none"/>
    <path d="M116.5 9.4 L96.0 9.4 96.0 0.0 116.5 0.0 116.5 9.4" fill="#043089" fill-rule="evenodd" stroke="none"/>
    <path d="M116.5 9.4 L96.0 9.4 96.0 0.0 116.5 0.0 116.5 9.4 Z" fill="none" stroke="#2e74ff" stroke-linecap="butt" stroke-linejoin="miter-clip" stroke-miterlimit="4.0" stroke-width="1.0"/>
    <path d="M98.4 7.0 Q97.8 6.45 97.8 5.6 L97.8 3.75 Q97.8 2.95 98.4 2.35 99.0 1.75 99.8 1.75 L112.75 1.75 Q113.6 1.75 114.15 2.35 114.75 2.95 114.75 3.75 L114.75 5.6 Q114.75 6.45 114.15 7.0 113.6 7.6 112.75 7.6 L99.8 7.6 Q99.0 7.6 98.4 7.0" fill="#00a4ff" fill-rule="evenodd" stroke="none"/>
    <path d="M44.5 22.4 L24.0 22.4 24.0 13.0 44.5 13.0 44.5 22.4" fill="#043089" fill-rule="evenodd" stroke="none"/>
    <path d="M44.5 22.4 L24.0 22.4 24.0 13.0 44.5 13.0 44.5 22.4 Z" fill="none" stroke="#2e74ff" stroke-linecap="butt" stroke-linejoin="miter-clip" stroke-miterlimit="4.0" stroke-width="1.0"/>
    <path d="M48.0 13.0 L68.5 13.0 68.5 22.4 48.0 22.4 48.0 13.0" fill="#043089" fill-rule="evenodd" stroke="none"/>
    <path d="M48.0 13.0 L68.5 13.0 68.5 22.4 48.0 22.4 48.0 13.0 Z" fill="none" stroke="#2e74ff" stroke-linecap="butt" stroke-linejoin="miter-clip" stroke-miterlimit="4.0" stroke-width="1.0"/>
    <path d="M92.5 22.4 L72.0 22.4 72.0 13.0 92.5 13.0 92.5 22.4" fill="#043089" fill-rule="evenodd" stroke="none"/>
    <path d="M92.5 22.4 L72.0 22.4 72.0 13.0 92.5 13.0 92.5 22.4 Z" fill="none" stroke="#2e74ff" stroke-linecap="butt" stroke-linejoin="miter-clip" stroke-miterlimit="4.0" stroke-width="1.0"/>
    <path d="M116.5 22.4 L96.0 22.4 96.0 13.0 116.5 13.0 116.5 22.4" fill="#043089" fill-rule="evenodd" stroke="none"/>
    <path d="M116.5 22.4 L96.0 22.4 96.0 13.0 116.5 13.0 116.5 22.4 Z" fill="none" stroke="#2e74ff" stroke-linecap="butt" stroke-linejoin="miter-clip" stroke-miterlimit="4.0" stroke-width="1.0"/>
    <path d="M20.5 22.4 L0.0 22.4 0.0 13.0 20.5 13.0 20.5 22.4" fill="#043089" fill-rule="evenodd" stroke="none"/>
    <path d="M20.5 22.4 L0.0 22.4 0.0 13.0 20.5 13.0 20.5 22.4 Z" fill="none" stroke="#2e74ff" stroke-linecap="butt" stroke-linejoin="miter-clip" stroke-miterlimit="4.0" stroke-width="1.0"/>
    <path d="M18.75 18.65 Q18.75 19.5 18.15 20.05 17.6 20.65 16.75 20.65 L3.8 20.65 Q3.0 20.65 2.4 20.05 1.8 19.5 1.8 18.65 L1.8 16.8 Q1.8 16.0 2.4 15.4 3.0 14.8 3.8 14.8 L16.75 14.8 Q17.6 14.8 18.15 15.4 18.75 16.0 18.75 16.8 L18.75 18.65" fill="#00a4ff" fill-rule="evenodd" stroke="none"/>
    <path d="M42.75 18.65 Q42.75 19.5 42.15 20.05 41.6 20.65 40.75 20.65 L27.8 20.65 Q27.0 20.65 26.4 20.05 25.8 19.5 25.8 18.65 L25.8 16.8 Q25.8 16.0 26.4 15.4 27.0 14.8 27.8 14.8 L40.75 14.8 Q41.6 14.8 42.15 15.4 42.75 16.0 42.75 16.8 L42.75 18.65" fill="#00a4ff" fill-rule="evenodd" stroke="none"/>
    <path d="M66.75 18.65 Q66.75 19.5 66.15 20.05 65.6 20.65 64.75 20.65 L51.8 20.65 Q51.0 20.65 50.4 20.05 49.8 19.5 49.8 18.65 L49.8 16.8 Q49.8 16.0 50.4 15.4 51.0 14.8 51.8 14.8 L64.75 14.8 Q65.6 14.8 66.15 15.4 66.75 16.0 66.75 16.8 L66.75 18.65" fill="#00a4ff" fill-rule="evenodd" stroke="none"/>
    <path d="M90.75 18.65 Q90.75 19.5 90.15 20.05 89.6 20.65 88.75 20.65 L75.8 20.65 Q75.0 20.65 74.4 20.05 73.8 19.5 73.8 18.65 L73.8 16.8 Q73.8 16.0 74.4 15.4 75.0 14.8 75.8 14.8 L88.75 14.8 Q89.6 14.8 90.15 15.4 90.75 16.0 90.75 16.8 L90.75 18.65" fill="#00a4ff" fill-rule="evenodd" stroke="none"/>
    <path d="M114.75 18.65 Q114.75 19.5 114.15 20.05 113.6 20.65 112.75 20.65 L99.8 20.65 Q99.0 20.65 98.4 20.05 97.8 19.5 97.8 18.65 L97.8 16.8 Q97.8 16.0 98.4 15.4 99.0 14.8 99.8 14.8 L112.75 14.8 Q113.6 14.8 114.15 15.4 114.75 16.0 114.75 16.8 L114.75 18.65" fill="#00a4ff" fill-rule="evenodd" stroke="none"/>
  </g>
</svg>
