<?xml version="1.0" encoding="UTF-8" standalone="no"?>
<svg xmlns:ffdec="https://www.free-decompiler.com/flash" xmlns:xlink="http://www.w3.org/1999/xlink" ffdec:objectType="shape" height="29.65px" width="43.6px" xmlns="http://www.w3.org/2000/svg">
  <g transform="matrix(1.0, 0.0, 0.0, 1.0, 0.0, 0.0)">
    <path d="M42.6 5.0 L42.6 24.65 Q42.6 26.3 41.45 27.5 40.25 28.65 38.6 28.65 L5.0 28.65 Q3.35 28.65 2.2 27.5 1.0 26.3 1.0 24.65 L1.0 5.0 Q1.0 3.3 2.2 2.15 3.35 1.0 5.0 1.0 L38.6 1.0 Q40.25 1.0 41.45 2.15 42.6 3.3 42.6 5.0" fill="url(#gradient0)" fill-rule="evenodd" stroke="none"/>
    <path d="M38.6 0.0 Q40.65 0.0 42.15 1.45 43.6 2.9 43.6 5.0 L43.6 24.65 Q43.6 26.7 42.15 28.2 40.65 29.65 38.6 29.65 L5.0 29.65 Q2.95 29.65 1.45 28.2 0.0 26.7 0.0 24.65 L0.0 5.0 Q0.0 2.9 1.45 1.45 2.95 0.0 5.0 0.0 L38.6 0.0 M38.6 2.0 L5.0 2.0 Q3.75 2.0 2.9 2.9 2.0 3.75 2.0 5.0 L2.0 24.65 Q2.0 25.9 2.9 26.75 3.75 27.65 5.0 27.65 L38.6 27.65 Q39.85 27.65 40.7 26.75 41.6 25.9 41.6 24.65 L41.6 5.0 Q41.6 3.75 40.7 2.9 39.85 2.0 38.6 2.0" fill="#3f2902" fill-rule="evenodd" stroke="none"/>
    <path d="M27.6 21.45 L15.95 21.45 15.95 20.1 27.6 20.1 27.6 21.45" fill="#e29a0a" fill-rule="evenodd" stroke="none"/>
    <path d="M27.6 23.9 L15.95 23.9 15.95 22.55 27.6 22.55 27.6 23.9" fill="#dd920e" fill-rule="evenodd" stroke="none"/>
    <path d="M31.95 13.7 L27.65 13.7 27.65 18.65 15.95 18.65 15.95 13.7 11.65 13.7 22.25 6.05 31.95 13.7" fill="#ffd400" fill-rule="evenodd" stroke="none"/>
    <path d="M31.95 13.7 L22.25 6.05 11.65 13.7 15.95 13.7 15.95 18.65 27.65 18.65 27.65 13.7 31.95 13.7 Z" fill="none" stroke="#fff24a" stroke-linecap="butt" stroke-linejoin="miter-clip" stroke-miterlimit="4.0" stroke-width="1.0"/>
  </g>
  <defs>
    <linearGradient gradientTransform="matrix(0.0, -0.0169, -0.0169, 0.0, 21.8, 14.8)" gradientUnits="userSpaceOnUse" id="gradient0" spreadMethod="pad" x1="-819.2" x2="819.2">
      <stop offset="0.0" stop-color="#a34f00"/>
      <stop offset="0.07058823529411765" stop-color="#8c3300"/>
      <stop offset="1.0" stop-color="#d48a00"/>
    </linearGradient>
  </defs>
</svg>
