<?xml version="1.0" encoding="UTF-8" standalone="no"?>
<svg xmlns:ffdec="https://www.free-decompiler.com/flash" xmlns:xlink="http://www.w3.org/1999/xlink" ffdec:objectType="shape" height="27.9px" width="40.85px" xmlns="http://www.w3.org/2000/svg">
  <g transform="matrix(1.0, 0.0, 0.0, 1.0, 0.0, 0.0)">
    <path d="M38.7 2.2 Q39.85 3.35 39.85 5.0 L39.85 22.9 Q39.85 24.55 38.7 25.75 37.5 26.9 35.85 26.9 L5.0 26.9 Q3.35 26.9 2.2 25.75 1.0 24.55 1.0 22.9 L1.0 5.0 Q1.0 3.35 2.2 2.2 3.35 1.0 5.0 1.0 L35.85 1.0 Q37.5 1.0 38.7 2.2" fill="#0442af" fill-rule="evenodd" stroke="none"/>
    <path d="M38.85 22.9 L38.85 5.0 Q38.85 3.75 37.95 2.9 37.1 2.0 35.85 2.0 L5.0 2.0 Q3.75 2.0 2.9 2.9 2.0 3.75 2.0 5.0 L2.0 22.9 Q2.0 24.15 2.9 25.0 3.75 25.9 5.0 25.9 L35.85 25.9 Q37.1 25.9 37.95 25.0 38.85 24.15 38.85 22.9 M40.85 5.0 L40.85 22.9 Q40.85 24.95 39.4 26.45 37.9 27.9 35.85 27.9 L5.0 27.9 Q2.9 27.9 1.45 26.45 0.0 24.95 0.0 22.9 L0.0 5.0 Q0.0 2.95 1.45 1.45 2.9 0.0 5.0 0.0 L35.85 0.0 Q37.9 0.0 39.4 1.45 40.85 2.95 40.85 5.0" fill="#0b77f9" fill-rule="evenodd" stroke="none"/>
    <path d="M26.95 21.05 L14.1 21.05 14.1 19.65 26.95 19.65 26.95 21.05" fill="#33a3ff" fill-rule="evenodd" stroke="none"/>
    <path d="M26.95 23.05 L14.1 23.05 14.1 21.65 26.95 21.65 26.95 23.05" fill="#0d86ff" fill-rule="evenodd" stroke="none"/>
    <path d="M30.55 12.85 L20.9 5.2 10.25 12.85 14.55 12.85 14.55 17.8 26.3 17.8 26.3 12.85 30.55 12.85 Z" fill="none" stroke="#00c9ff" stroke-linecap="butt" stroke-linejoin="miter-clip" stroke-miterlimit="4.0" stroke-width="2.0"/>
    <path d="M30.55 12.85 L26.3 12.85 26.3 17.8 14.55 17.8 14.55 12.85 10.25 12.85 20.9 5.2 30.55 12.85" fill="#0062ff" fill-rule="evenodd" stroke="none"/>
  </g>
</svg>
