<?xml version="1.0" encoding="UTF-8" standalone="no"?>
<svg xmlns:ffdec="https://www.free-decompiler.com/flash" xmlns:xlink="http://www.w3.org/1999/xlink" ffdec:objectType="shape" height="38.5px" width="114.25px" xmlns="http://www.w3.org/2000/svg">
  <g transform="matrix(1.0, 0.0, 0.0, 1.0, -5.95, -3.4)">
    <path d="M119.2 36.9 Q119.2 38.6 118.05 39.75 116.85 40.9 115.2 40.9 L10.95 40.9 Q9.3 40.9 8.15 39.75 6.95 38.6 6.95 36.9 L6.95 8.4 Q6.95 6.75 8.15 5.6 9.3 4.4 10.95 4.4 L115.2 4.4 Q116.85 4.4 118.05 5.6 119.2 6.75 119.2 8.4 L119.2 36.9" fill="#043daf" fill-rule="evenodd" stroke="none"/>
    <path d="M115.2 3.4 Q117.25 3.4 118.75 4.85 120.2 6.35 120.2 8.4 L120.2 36.9 Q120.2 39.0 118.75 40.45 117.25 41.9 115.2 41.9 L10.95 41.9 Q8.9 41.9 7.4 40.45 5.95 39.0 5.95 36.9 L5.95 8.4 Q5.95 6.35 7.4 4.85 8.9 3.4 10.95 3.4 L115.2 3.4 M118.2 36.9 L118.2 8.4 Q118.2 7.15 117.3 6.3 116.45 5.4 115.2 5.4 L10.95 5.4 Q9.7 5.4 8.85 6.3 7.95 7.15 7.95 8.4 L7.95 36.9 Q7.95 38.15 8.85 39.0 9.7 39.9 10.95 39.9 L115.2 39.9 Q116.45 39.9 117.3 39.0 118.2 38.15 118.2 36.9" fill="#399cff" fill-rule="evenodd" stroke="none"/>
  </g>
</svg>
