<?xml version="1.0" encoding="UTF-8" standalone="no"?>
<svg xmlns:ffdec="https://www.free-decompiler.com/flash" xmlns:xlink="http://www.w3.org/1999/xlink" ffdec:objectType="shape" height="40.75px" width="113.5px" xmlns="http://www.w3.org/2000/svg">
  <g transform="matrix(1.0, 0.0, 0.0, 1.0, -6.3, -2.25)">
    <path d="M113.6 9.8 L113.6 35.45 Q113.6 37.0 112.55 38.0 111.45 39.05 110.0 39.05 L16.15 39.05 Q14.65 39.05 13.65 38.0 12.55 37.0 12.55 35.45 L12.55 9.8 Q12.55 8.3 13.65 7.3 14.65 6.2 16.15 6.2 L110.0 6.2 Q111.45 6.2 112.55 7.3 113.6 8.3 113.6 9.8" fill="url(#gradient0)" fill-rule="evenodd" stroke="none"/>
    <path d="M110.0 5.3 Q111.8 5.3 113.15 6.6 114.5 7.95 114.5 9.8 L114.5 35.45 Q114.5 37.35 113.15 38.65 111.8 39.95 110.0 39.95 L16.15 39.95 Q14.3 39.95 12.95 38.65 11.65 37.35 11.65 35.45 L11.65 9.8 Q11.65 7.95 12.95 6.6 14.3 5.3 16.15 5.3 L110.0 5.3 M112.7 9.8 Q112.7 8.7 111.85 7.9 111.1 7.1 110.0 7.1 L16.15 7.1 Q15.05 7.1 14.25 7.9 13.45 8.7 13.45 9.8 L13.45 35.45 Q13.45 36.6 14.25 37.35 15.05 38.15 16.15 38.15 L110.0 38.15 Q111.1 38.15 111.85 37.35 112.7 36.6 112.7 35.45 L112.7 9.8" fill="#f19e24" fill-rule="evenodd" stroke="none"/>
    <path d="M9.7 4.05 Q8.6 5.15 8.6 6.8 L8.6 17.4 6.3 17.4 6.3 6.25 Q6.3 4.6 7.45 3.4 8.65 2.25 10.3 2.25 L13.65 2.25 13.65 2.9 12.45 2.9 Q10.85 2.9 9.7 4.05" fill="#f7b141" fill-rule="evenodd" stroke="none"/>
    <path d="M116.4 4.05 Q115.25 2.9 113.65 2.9 L112.45 2.9 112.45 2.25 115.75 2.25 Q117.45 2.25 118.65 3.4 119.8 4.6 119.8 6.25 L119.8 17.4 117.55 17.4 117.55 6.8 Q117.55 5.15 116.4 4.05" fill="#f7b141" fill-rule="evenodd" stroke="none"/>
    <path d="M8.6 27.9 L8.6 38.45 Q8.6 40.1 9.7 41.2 10.85 42.35 12.45 42.35 L13.65 42.35 13.65 43.0 10.3 43.0 Q8.65 43.0 7.45 41.85 6.3 40.65 6.3 39.0 L6.3 27.9 8.6 27.9" fill="#f7b141" fill-rule="evenodd" stroke="none"/>
    <path d="M117.55 27.9 L119.8 27.9 119.8 39.0 Q119.8 40.65 118.65 41.85 117.45 43.0 115.75 43.0 L112.45 43.0 112.45 42.35 113.65 42.35 Q115.25 42.35 116.4 41.2 117.55 40.1 117.55 38.45 L117.55 27.9" fill="#f7b141" fill-rule="evenodd" stroke="none"/>
    <path d="M88.2 34.95 L38.0 34.95 35.0 37.85 91.1 37.85 88.2 34.95 Z" fill="none" stroke="#f19e24" stroke-linecap="butt" stroke-linejoin="miter-clip" stroke-miterlimit="4.0" stroke-width="1.0"/>
    <path d="M88.2 34.95 L91.1 37.85 35.0 37.85 38.0 34.95 88.2 34.95" fill="#d68e05" fill-rule="evenodd" stroke="none"/>
    <path d="M88.2 10.35 L38.0 10.35 35.0 7.4 91.1 7.4 88.2 10.35 Z" fill="none" stroke="#f19e24" stroke-linecap="round" stroke-linejoin="miter-clip" stroke-miterlimit="3.0" stroke-width="1.0"/>
    <path d="M88.2 10.35 L38.0 10.35 35.0 7.4 91.1 7.4 88.2 10.35" fill="#d68e05" fill-rule="evenodd" stroke="none"/>
  </g>
  <defs>
    <linearGradient gradientTransform="matrix(0.0, -0.0208, 0.0208, 0.0, 232.65, 27.2)" gradientUnits="userSpaceOnUse" id="gradient0" spreadMethod="pad" x1="-819.2" x2="819.2">
      <stop offset="0.0" stop-color="#eb8242"/>
      <stop offset="0.00392156862745098" stop-color="#e87f40"/>
      <stop offset="0.043137254901960784" stop-color="#cb6129"/>
      <stop offset="0.08627450980392157" stop-color="#b34917"/>
      <stop offset="0.13333333333333333" stop-color="#a3380a"/>
      <stop offset="0.1803921568627451" stop-color="#992e02"/>
      <stop offset="0.24313725490196078" stop-color="#962b00"/>
      <stop offset="0.4392156862745098" stop-color="#982e00"/>
      <stop offset="0.592156862745098" stop-color="#9f3800"/>
      <stop offset="0.7333333333333333" stop-color="#ab4901"/>
      <stop offset="0.8666666666666667" stop-color="#bb6002"/>
      <stop offset="1.0" stop-color="#d18003"/>
      <stop offset="1.0" stop-color="#d07f03"/>
    </linearGradient>
  </defs>
</svg>
