<?xml version="1.0" encoding="UTF-8" standalone="no"?>
<svg xmlns:ffdec="https://www.free-decompiler.com/flash" xmlns:xlink="http://www.w3.org/1999/xlink" ffdec:objectType="shape" height="45.3px" width="126.15px" xmlns="http://www.w3.org/2000/svg">
  <g transform="matrix(1.0, 0.0, 0.0, 1.0, 0.0, 0.0)">
    <path d="M3.8 2.0 Q2.55 3.25 2.55 5.05 L2.55 16.85 0.0 16.85 0.0 4.45 Q0.0 2.6 1.3 1.3 2.6 0.0 4.45 0.0 L8.2 0.0 8.2 0.75 6.85 0.75 Q5.05 0.75 3.8 2.0" fill="#0b59d8" fill-rule="evenodd" stroke="none"/>
    <path d="M122.35 2.0 Q121.05 0.75 119.3 0.75 L117.95 0.75 117.95 0.0 121.65 0.0 Q123.5 0.0 124.85 1.3 126.15 2.6 126.15 4.45 L126.15 16.85 123.6 16.85 123.6 5.05 Q123.6 3.25 122.35 2.0" fill="#0b59d8" fill-rule="evenodd" stroke="none"/>
    <path d="M2.55 28.5 L2.55 40.25 Q2.55 42.05 3.8 43.3 5.05 44.55 6.85 44.55 L8.2 44.55 8.2 45.3 4.45 45.3 Q2.6 45.3 1.3 44.0 0.0 42.7 0.0 40.85 L0.0 28.5 2.55 28.5" fill="#0b59d8" fill-rule="evenodd" stroke="none"/>
    <path d="M123.6 28.5 L126.15 28.5 126.15 40.85 Q126.15 42.7 124.85 44.0 123.5 45.3 121.65 45.3 L117.95 45.3 117.95 44.55 119.3 44.55 Q121.05 44.55 122.35 43.3 123.6 42.05 123.6 40.25 L123.6 28.5" fill="#0b59d8" fill-rule="evenodd" stroke="none"/>
    <path d="M119.2 36.9 Q119.2 38.6 118.05 39.75 116.85 40.9 115.2 40.9 L10.95 40.9 Q9.3 40.9 8.15 39.75 6.95 38.6 6.95 36.9 L6.95 8.4 Q6.95 6.75 8.15 5.6 9.3 4.4 10.95 4.4 L115.2 4.4 Q116.85 4.4 118.05 5.6 119.2 6.75 119.2 8.4 L119.2 36.9" fill="#043daf" fill-rule="evenodd" stroke="none"/>
    <path d="M118.2 8.4 Q118.2 7.15 117.3 6.3 116.45 5.4 115.2 5.4 L10.95 5.4 Q9.7 5.4 8.85 6.3 7.95 7.15 7.95 8.4 L7.95 36.9 Q7.95 38.15 8.85 39.0 9.7 39.9 10.95 39.9 L115.2 39.9 Q116.45 39.9 117.3 39.0 118.2 38.15 118.2 36.9 L118.2 8.4 M118.75 4.85 Q120.2 6.35 120.2 8.4 L120.2 36.9 Q120.2 39.0 118.75 40.45 117.25 41.9 115.2 41.9 L10.95 41.9 Q8.9 41.9 7.4 40.45 5.95 39.0 5.95 36.9 L5.95 8.4 Q5.95 6.35 7.4 4.85 8.9 3.4 10.95 3.4 L115.2 3.4 Q117.25 3.4 118.75 4.85" fill="#2466eb" fill-rule="evenodd" stroke="none"/>
  </g>
</svg>
