<?xml version="1.0" encoding="UTF-8" standalone="no"?>
<svg xmlns:ffdec="https://www.free-decompiler.com/flash" xmlns:xlink="http://www.w3.org/1999/xlink" ffdec:objectType="shape" height="14.8px" width="15.15px" xmlns="http://www.w3.org/2000/svg">
  <g transform="matrix(1.0, 0.0, 0.0, 1.0, 194.6, 165.2)">
    <path d="M-179.45 -160.2 Q-179.45 -158.15 -180.9 -156.65 -182.4 -155.2 -184.45 -155.2 -186.05 -155.2 -187.3 -156.15 L-190.05 -152.9 Q-192.05 -150.5 -192.55 -150.4 -193.25 -150.25 -193.9 -151.1 -194.5 -151.85 -194.6 -152.6 -194.7 -153.55 -188.55 -157.35 -189.45 -158.65 -189.45 -160.2 -189.45 -162.25 -188.0 -163.75 -186.5 -165.2 -184.45 -165.2 -182.4 -165.2 -180.9 -163.75 -179.45 -162.25 -179.45 -160.2 M-184.45 -163.35 Q-185.75 -163.35 -186.65 -162.45 -187.55 -161.5 -187.55 -160.2 -187.55 -158.9 -186.65 -158.0 -185.7 -157.1 -184.45 -157.1 -183.15 -157.1 -182.2 -158.0 -181.3 -158.9 -181.3 -160.2 -181.3 -161.5 -182.2 -162.45 -183.15 -163.35 -184.45 -163.35" fill="#0071f9" fill-rule="evenodd" stroke="none"/>
  </g>
</svg>
