<?xml version="1.0" encoding="UTF-8" standalone="no"?>
<svg xmlns:ffdec="https://www.free-decompiler.com/flash" xmlns:xlink="http://www.w3.org/1999/xlink" ffdec:objectType="shape" height="28.0px" width="80.75px" xmlns="http://www.w3.org/2000/svg">
  <g transform="matrix(1.0, 0.0, 0.0, 1.0, -4.0, -1.05)">
    <path d="M83.85 24.3 Q83.85 25.8 82.85 26.9 81.8 27.9 80.25 27.9 L8.5 27.9 Q7.0 27.9 6.0 26.9 4.9 25.8 4.9 24.3 L4.9 5.55 Q4.9 4.05 6.0 3.05 7.0 1.95 8.5 1.95 L80.25 1.95 Q81.8 1.95 82.85 3.05 83.85 4.05 83.85 5.55 L83.85 24.3" fill="url(#gradient0)" fill-rule="evenodd" stroke="none"/>
    <path d="M82.15 3.65 Q81.4 2.85 80.25 2.85 L8.5 2.85 Q7.35 2.85 6.6 3.65 5.8 4.4 5.8 5.55 L5.8 24.3 Q5.8 25.45 6.6 26.2 7.35 27.0 8.5 27.0 L80.25 27.0 Q81.4 27.0 82.15 26.2 82.95 25.45 82.95 24.3 L82.95 5.55 Q82.95 4.4 82.15 3.65 M8.5 1.05 L80.25 1.05 Q82.15 1.05 83.45 2.35 84.75 3.7 84.75 5.55 L84.75 24.3 Q84.75 26.15 83.45 27.5 82.15 28.8 80.25 28.8 L8.5 28.8 Q6.65 28.8 5.3 27.5 4.0 26.15 4.0 24.3 L4.0 5.55 Q4.0 3.7 5.3 2.35 6.65 1.05 8.5 1.05" fill="#f19e24" fill-rule="evenodd" stroke="none"/>
    <path d="M64.5 24.75 L24.35 24.75 22.0 27.1 66.85 27.1 64.5 24.75 Z" fill="none" stroke="#f19e24" stroke-linecap="butt" stroke-linejoin="miter-clip" stroke-miterlimit="4.0" stroke-width="1.0"/>
    <path d="M64.5 24.75 L66.85 27.1 22.0 27.1 24.35 24.75 64.5 24.75" fill="#d68e05" fill-rule="evenodd" stroke="none"/>
    <path d="M64.5 24.75 L24.35 24.75 22.0 27.1 66.85 27.1 64.5 24.75 Z" fill="none" stroke="#f19e24" stroke-linecap="round" stroke-linejoin="miter-clip" stroke-miterlimit="3.0" stroke-width="1.0"/>
    <path d="M64.5 5.1 L24.35 5.1 22.0 2.75 66.85 2.75 64.5 5.1 Z" fill="none" stroke="#f19e24" stroke-linecap="butt" stroke-linejoin="miter-clip" stroke-miterlimit="4.0" stroke-width="1.0"/>
    <path d="M64.5 5.1 L24.35 5.1 22.0 2.75 66.85 2.75 64.5 5.1" fill="#d68e05" fill-rule="evenodd" stroke="none"/>
    <path d="M64.5 5.1 L24.35 5.1 22.0 2.75 66.85 2.75 64.5 5.1 Z" fill="none" stroke="#f19e24" stroke-linecap="round" stroke-linejoin="miter-clip" stroke-miterlimit="3.0" stroke-width="1.0"/>
    <path d="M6.5 3.75 Q7.25 2.95 8.4 2.95 L59.8 2.95 Q60.9 2.95 60.95 3.25 L60.05 4.05 8.1 28.8 6.4 28.85 Q5.7 28.4 5.7 27.25 L5.7 5.65 Q5.7 4.5 6.5 3.75" fill="url(#gradient1)" fill-rule="evenodd" stroke="none"/>
  </g>
  <defs>
    <linearGradient gradientTransform="matrix(0.0, -0.0208, 0.0208, 0.0, 228.3, 23.45)" gradientUnits="userSpaceOnUse" id="gradient0" spreadMethod="pad" x1="-819.2" x2="819.2">
      <stop offset="0.0" stop-color="#eb8242"/>
      <stop offset="0.00392156862745098" stop-color="#e87f40"/>
      <stop offset="0.043137254901960784" stop-color="#cb6129"/>
      <stop offset="0.08627450980392157" stop-color="#b34917"/>
      <stop offset="0.13333333333333333" stop-color="#a3380a"/>
      <stop offset="0.1803921568627451" stop-color="#992e02"/>
      <stop offset="0.24313725490196078" stop-color="#962b00"/>
      <stop offset="0.4392156862745098" stop-color="#982e00"/>
      <stop offset="0.592156862745098" stop-color="#9f3800"/>
      <stop offset="0.7333333333333333" stop-color="#ab4901"/>
      <stop offset="0.8666666666666667" stop-color="#bb6002"/>
      <stop offset="0.996078431372549" stop-color="#d07f03"/>
      <stop offset="1.0" stop-color="#d18003"/>
    </linearGradient>
    <linearGradient gradientTransform="matrix(0.0066, 0.0164, 0.0136, -0.0055, 29.9, 8.55)" gradientUnits="userSpaceOnUse" id="gradient1" spreadMethod="pad" x1="-819.2" x2="819.2">
      <stop offset="0.0" stop-color="#dddcd5"/>
      <stop offset="0.09411764705882353" stop-color="#d1c872" stop-opacity="0.6117647"/>
      <stop offset="0.14901960784313725" stop-color="#e0c252" stop-opacity="0.44313726"/>
      <stop offset="0.21176470588235294" stop-color="#e9c538" stop-opacity="0.3137255"/>
      <stop offset="0.2823529411764706" stop-color="#f8ca18" stop-opacity="0.19215687"/>
      <stop offset="0.36470588235294116" stop-color="#def413" stop-opacity="0.101960786"/>
      <stop offset="0.4627450980392157" stop-color="#ccff00" stop-opacity="0.043137256"/>
      <stop offset="0.6078431372549019" stop-color="#ccff00" stop-opacity="0.011764706"/>
      <stop offset="1.0" stop-color="#fefe4e" stop-opacity="0.0"/>
    </linearGradient>
  </defs>
</svg>
