<?xml version="1.0" encoding="UTF-8" standalone="no"?>
<svg xmlns:ffdec="https://www.free-decompiler.com/flash" xmlns:xlink="http://www.w3.org/1999/xlink" ffdec:objectType="shape" height="25.9px" width="38.85px" xmlns="http://www.w3.org/2000/svg">
  <g transform="matrix(1.0, 0.0, 0.0, 1.0, 0.0, 0.0)">
    <path d="M34.85 25.4 L4.0 25.4 Q2.55 25.4 1.5 24.35 0.5 23.35 0.5 21.9 L0.5 4.0 Q0.5 2.55 1.5 1.55 2.55 0.5 4.0 0.5 L34.85 0.5 Q36.3 0.5 37.35 1.55 38.35 2.55 38.35 4.0 L38.35 21.9 Q38.35 23.35 37.35 24.35 36.3 25.4 34.85 25.4" fill="url(#gradient0)" fill-rule="evenodd" stroke="none"/>
    <path d="M36.95 1.9 Q36.1 1.0 34.85 1.0 L4.0 1.0 Q2.75 1.0 1.9 1.9 1.0 2.75 1.0 4.0 L1.0 21.9 Q1.0 23.15 1.9 24.0 2.75 24.9 4.0 24.9 L34.85 24.9 Q36.1 24.9 36.95 24.0 37.85 23.15 37.85 21.9 L37.85 4.0 Q37.85 2.75 36.95 1.9 M34.85 0.0 Q36.5 0.0 37.7 1.2 38.85 2.35 38.85 4.0 L38.85 21.9 Q38.85 23.55 37.7 24.75 36.5 25.9 34.85 25.9 L4.0 25.9 Q2.3 25.9 1.15 24.75 0.0 23.55 0.0 21.9 L0.0 4.0 Q0.0 2.35 1.15 1.2 2.3 0.0 4.0 0.0 L34.85 0.0" fill="#399cff" fill-rule="evenodd" stroke="none"/>
    <path d="M23.7 11.75 Q26.3 11.75 28.1 12.85 29.95 14.0 29.95 15.55 L29.95 18.0 Q29.95 19.6 28.1 20.75 26.3 21.85 23.7 21.85 21.05 21.85 19.25 20.75 17.4 19.6 17.4 18.0 L17.4 15.55 Q17.4 13.95 19.25 12.85 21.1 11.75 23.7 11.75" fill="#007fff" fill-rule="evenodd" stroke="none"/>
    <path d="M29.95 15.55 Q29.95 17.15 28.1 18.25 26.3 19.35 23.7 19.35 21.1 19.35 19.25 18.25 17.4 17.15 17.4 15.55 17.4 13.95 19.25 12.85 21.1 11.75 23.7 11.75 26.3 11.75 28.1 12.85 29.95 14.0 29.95 15.55" fill="url(#gradient1)" fill-rule="evenodd" stroke="none"/>
    <path d="M28.2 15.1 Q28.2 16.25 26.9 17.05 25.6 17.85 23.7 17.85 21.8 17.85 20.5 17.05 19.15 16.25 19.15 15.1 19.15 13.95 20.5 13.15 21.85 12.35 23.7 12.35 25.55 12.35 26.9 13.15 28.2 13.95 28.2 15.1" fill="#00b0ff" fill-rule="evenodd" stroke="none"/>
    <path d="M21.45 13.0 L21.45 15.45 Q21.45 17.05 19.6 18.15 17.75 19.3 15.15 19.3 12.55 19.3 10.7 18.15 8.85 17.05 8.85 15.45 L8.85 13.0 Q8.85 11.4 10.7 10.3 12.55 9.15 15.15 9.15 17.75 9.15 19.6 10.3 21.45 11.45 21.45 13.0" fill="#007fff" fill-rule="evenodd" stroke="none"/>
    <path d="M21.45 13.0 Q21.45 14.55 19.6 15.7 17.75 16.8 15.15 16.8 12.55 16.8 10.7 15.7 8.85 14.6 8.85 13.0 8.85 11.4 10.7 10.3 12.55 9.15 15.15 9.15 17.75 9.15 19.6 10.3 21.45 11.45 21.45 13.0" fill="url(#gradient2)" fill-rule="evenodd" stroke="none"/>
    <path d="M19.7 12.55 Q19.7 13.7 18.35 14.5 17.05 15.3 15.15 15.3 13.25 15.3 11.95 14.5 10.6 13.7 10.6 12.55 10.6 11.4 11.95 10.6 13.3 9.8 15.15 9.8 17.0 9.8 18.35 10.6 19.7 11.4 19.7 12.55" fill="#00b0ff" fill-rule="evenodd" stroke="none"/>
    <path d="M26.55 7.85 L26.55 10.35 Q26.55 11.95 24.7 13.05 22.85 14.15 20.25 14.15 17.65 14.15 15.85 13.05 14.0 11.95 14.0 10.35 L14.0 7.85 Q14.0 6.3 15.85 5.15 17.65 4.05 20.25 4.05 22.85 4.05 24.7 5.15 26.55 6.25 26.55 7.85" fill="#007fff" fill-rule="evenodd" stroke="none"/>
    <path d="M26.55 7.85 Q26.55 9.45 24.7 10.55 22.85 11.7 20.25 11.7 17.65 11.7 15.85 10.55 14.0 9.45 14.0 7.85 14.0 6.3 15.85 5.15 17.65 4.05 20.25 4.05 22.85 4.05 24.7 5.15 26.55 6.25 26.55 7.85" fill="url(#gradient3)" fill-rule="evenodd" stroke="none"/>
    <path d="M24.8 7.45 Q24.8 8.6 23.45 9.4 22.1 10.2 20.25 10.2 18.4 10.2 17.05 9.4 15.75 8.6 15.75 7.45 15.75 6.3 17.05 5.5 18.35 4.7 20.25 4.7 22.15 4.7 23.45 5.5 24.8 6.3 24.8 7.45" fill="#00b0ff" fill-rule="evenodd" stroke="none"/>
  </g>
  <defs>
    <linearGradient gradientTransform="matrix(0.0, -0.0152, -0.0152, 0.0, 19.4, 12.95)" gradientUnits="userSpaceOnUse" id="gradient0" spreadMethod="pad" x1="-819.2" x2="819.2">
      <stop offset="0.0" stop-color="#004bc2"/>
      <stop offset="0.7647058823529411" stop-color="#003498"/>
      <stop offset="1.0" stop-color="#0057d9"/>
    </linearGradient>
    <linearGradient gradientTransform="matrix(0.0, -0.0047, -0.0047, 0.0, 23.7, 15.55)" gradientUnits="userSpaceOnUse" id="gradient1" spreadMethod="pad" x1="-819.2" x2="819.2">
      <stop offset="0.0" stop-color="#00ffff"/>
      <stop offset="1.0" stop-color="#00d8ff"/>
    </linearGradient>
    <linearGradient gradientTransform="matrix(0.0, -0.0047, -0.0047, 0.0, 15.15, 13.0)" gradientUnits="userSpaceOnUse" id="gradient2" spreadMethod="pad" x1="-819.2" x2="819.2">
      <stop offset="0.0" stop-color="#00ffff"/>
      <stop offset="1.0" stop-color="#00d8ff"/>
    </linearGradient>
    <linearGradient gradientTransform="matrix(0.0, -0.0047, -0.0047, 0.0, 20.25, 7.85)" gradientUnits="userSpaceOnUse" id="gradient3" spreadMethod="pad" x1="-819.2" x2="819.2">
      <stop offset="0.0" stop-color="#00ffff"/>
      <stop offset="1.0" stop-color="#00d8ff"/>
    </linearGradient>
  </defs>
</svg>
