<?xml version="1.0" encoding="UTF-8" standalone="no"?>
<svg xmlns:ffdec="https://www.free-decompiler.com/flash" xmlns:xlink="http://www.w3.org/1999/xlink" ffdec:objectType="shape" height="26.2px" width="195.45px" xmlns="http://www.w3.org/2000/svg">
  <g transform="matrix(1.0, 0.0, 0.0, 1.0, 0.5, 0.45)">
    <path d="M3.0 0.05 L191.45 0.05 Q192.7 0.05 193.55 0.95 194.45 1.8 194.45 3.05 L194.45 22.25 Q194.45 23.5 193.55 24.35 192.7 25.25 191.45 25.25 L3.0 25.25 Q1.75 25.25 0.9 24.35 0.0 23.5 0.0 22.25 L0.0 3.05 Q0.0 1.8 0.9 0.95 1.75 0.05 3.0 0.05" fill="#032975" fill-rule="evenodd" stroke="none"/>
    <path d="M3.0 0.05 L191.45 0.05 Q192.7 0.05 193.55 0.95 194.45 1.8 194.45 3.05 L194.45 22.25 Q194.45 23.5 193.55 24.35 192.7 25.25 191.45 25.25 L3.0 25.25 Q1.75 25.25 0.9 24.35 0.0 23.5 0.0 22.25 L0.0 3.05 Q0.0 1.8 0.9 0.95 1.75 0.05 3.0 0.05 Z" fill="none" stroke="#042d87" stroke-linecap="butt" stroke-linejoin="miter-clip" stroke-miterlimit="4.0" stroke-width="1.0"/>
    <path d="M0.9 0.95 Q1.75 0.05 3.0 0.05 L25.85 0.05 Q27.1 0.05 28.35 0.85 29.55 1.7 30.05 2.8 L37.65 20.2 Q38.15 21.35 39.4 22.15 40.6 22.95 41.85 22.95 L191.45 22.95 193.55 23.3 Q194.45 23.6 194.45 24.1 194.45 24.55 193.55 24.9 L191.45 25.25 3.0 25.25 Q1.75 25.25 0.9 24.35 0.0 23.5 0.0 22.25 L0.0 3.05 Q0.0 1.8 0.9 0.95" fill="#124ad6" fill-rule="evenodd" stroke="none"/>
    <path d="M0.9 0.95 Q0.0 1.8 0.0 3.05 L0.0 22.25 Q0.0 23.5 0.9 24.35 1.75 25.25 3.0 25.25 L191.45 25.25 193.55 24.9 Q194.45 24.55 194.45 24.1 194.45 23.6 193.55 23.3 L191.45 22.95 41.85 22.95 Q40.6 22.95 39.4 22.15 38.15 21.35 37.65 20.2 L30.05 2.8 Q29.55 1.7 28.35 0.85 27.1 0.05 25.85 0.05 L3.0 0.05 Q1.75 0.05 0.9 0.95 Z" fill="none" stroke="#0360e8" stroke-linecap="butt" stroke-linejoin="miter-clip" stroke-miterlimit="4.0" stroke-width="1.0"/>
  </g>
</svg>
