<?xml version="1.0" encoding="UTF-8" standalone="no"?>
<svg xmlns:ffdec="https://www.free-decompiler.com/flash" xmlns:xlink="http://www.w3.org/1999/xlink" ffdec:objectType="shape" height="414.9px" width="514.6px" xmlns="http://www.w3.org/2000/svg">
  <g transform="matrix(1.0, 0.0, 0.0, 1.0, 249.3, 216.5)">
    <path d="M260.3 -184.9 Q262.35 -184.9 263.85 -183.45 265.3 -181.95 265.3 -179.9 L265.3 -154.95 Q265.3 -152.9 264.45 -150.85 263.6 -148.85 262.45 -148.1 261.3 -147.35 260.45 -145.35 259.6 -143.35 259.6 -141.3 L259.6 127.45 Q259.6 129.5 260.45 131.55 261.3 133.6 262.45 134.45 263.6 135.3 264.45 137.35 265.3 139.4 265.3 141.45 L265.3 193.4 Q265.3 195.45 263.85 196.95 262.35 198.4 260.3 198.4 L-35.0 198.4 -38.8 198.15 Q-40.5 197.9 -40.9 197.5 -41.25 197.15 -42.95 196.9 L-46.75 196.65 -172.2 196.65 -176.05 196.9 Q-177.8 197.15 -178.25 197.5 -178.7 197.9 -180.45 198.15 L-184.3 198.4 -244.3 198.4 Q-246.35 198.4 -247.85 196.95 -249.3 195.45 -249.3 193.4 L-249.3 141.45 Q-249.3 139.4 -248.4 137.35 -247.55 135.3 -246.3 134.45 -245.05 133.65 -244.2 131.55 -243.3 129.5 -243.3 127.45 L-243.3 -141.3 Q-243.3 -143.35 -244.2 -145.25 -245.05 -147.15 -246.3 -147.8 -247.55 -148.4 -248.4 -150.3 -249.3 -152.25 -249.3 -154.3 L-249.3 -179.9 Q-249.3 -181.95 -247.85 -183.45 -246.35 -184.9 -244.3 -184.9 L260.3 -184.9" fill="url(#gradient0)" fill-rule="evenodd" stroke="none"/>
    <path d="M18.0 -161.7 L18.0 178.0 Q18.0 180.05 16.55 181.55 15.05 183.0 13.0 183.0 L-231.9 183.0 Q-233.95 183.0 -235.45 181.55 -236.9 180.05 -236.9 178.0 L-236.9 -161.7 Q-236.9 -163.75 -235.45 -165.25 -233.95 -166.7 -231.9 -166.7 L13.0 -166.7 Q15.05 -166.7 16.55 -165.25 18.0 -163.75 18.0 -161.7" fill="#333333" fill-rule="evenodd" stroke="none"/>
    <path d="M13.0 -157.7 L13.0 172.85 Q13.0 174.9 11.55 176.4 10.05 177.85 8.0 177.85 L-226.9 177.85 Q-228.95 177.85 -230.45 176.4 -231.9 174.9 -231.9 172.85 L-231.9 -157.7 Q-231.9 -159.75 -230.45 -161.25 -228.95 -162.7 -226.9 -162.7 L8.0 -162.7 Q10.05 -162.7 11.55 -161.25 13.0 -159.75 13.0 -157.7" fill="#0b0d11" fill-rule="evenodd" stroke="none"/>
    <path d="M-132.9 189.45 Q-131.7 188.95 -131.2 188.3 -130.75 187.65 -129.55 187.15 -128.35 186.65 -127.1 186.65 L-90.95 186.65 Q-89.7 186.65 -88.45 187.15 -87.25 187.65 -86.75 188.3 -86.25 188.95 -85.0 189.45 L-82.5 189.9 -8.3 189.9 Q-7.05 189.9 -5.5 190.5 -4.0 191.1 -3.05 191.9 L1.8 196.3 Q2.75 197.15 2.5 197.7 2.3 198.3 1.05 198.3 L-219.95 198.3 Q-221.2 198.3 -221.45 197.7 -221.7 197.1 -220.8 196.25 L-216.3 192.0 Q-215.4 191.15 -213.9 190.5 -212.4 189.9 -211.15 189.9 L-135.35 189.9 -132.9 189.45" fill="#2b2a2a" fill-rule="evenodd" stroke="none"/>
    <path d="M-165.55 186.3 L-175.9 196.65 -43.5 196.65 -53.9 186.3 -165.55 186.3 Z" fill="none" stroke="#181919" stroke-linecap="butt" stroke-linejoin="miter-clip" stroke-miterlimit="4.0" stroke-width="2.0"/>
    <path d="M-165.55 186.3 L-53.9 186.3 -43.5 196.65 -175.9 196.65 -165.55 186.3" fill="#1e1e1e" fill-rule="evenodd" stroke="none"/>
    <path d="M-145.6 -165.65 L-141.65 -169.6 -77.65 -169.6 -73.7 -165.65 -145.6 -165.65" fill="#161616" fill-rule="evenodd" stroke="none"/>
    <path d="M-145.6 -165.65 L-73.7 -165.65 -77.65 -169.6 -141.65 -169.6 -145.6 -165.65 Z" fill="none" stroke="#181919" stroke-linecap="butt" stroke-linejoin="miter-clip" stroke-miterlimit="4.0" stroke-width="2.0"/>
    <path d="M228.25 -166.7 Q231.05 -165.7 232.75 -164.25 L248.25 -151.45 Q250.0 -150.0 251.25 -147.4 252.45 -144.8 252.45 -142.5 L252.45 48.2 Q252.45 50.7 250.7 52.45 248.95 54.2 246.45 54.2 L170.2 54.2 Q167.9 54.2 165.45 53.25 163.05 52.3 161.75 50.9 160.8 49.8 158.75 49.0 156.7 48.2 154.85 48.2 L127.2 48.2 Q125.35 48.2 123.2 49.0 121.1 49.8 120.05 50.9 118.75 52.3 116.25 53.25 113.8 54.2 111.5 54.2 L35.35 54.2 Q33.1 54.2 30.8 53.5 28.5 52.75 27.45 51.75 26.45 50.7 25.7 48.4 25.0 46.1 25.0 43.85 L25.0 -156.45 Q25.0 -158.7 25.85 -161.1 26.7 -163.55 27.9 -164.75 29.15 -166.0 31.55 -166.85 33.95 -167.7 36.25 -167.7 L223.25 -167.7 Q225.5 -167.7 228.25 -166.7" fill="#181819" fill-rule="evenodd" stroke="none"/>
    <path d="M223.25 -168.7 Q225.7 -168.7 228.6 -167.65 231.5 -166.6 233.4 -165.05 L248.85 -152.25 Q250.8 -150.65 252.15 -147.8 253.45 -145.0 253.45 -142.5 L253.45 48.2 Q253.45 51.1 251.4 53.15 249.35 55.2 246.45 55.2 L170.2 55.2 Q167.65 55.2 165.05 54.15 162.45 53.15 161.0 51.55 160.25 50.7 158.45 49.95 156.55 49.2 154.85 49.2 L127.2 49.2 Q125.45 49.2 123.5 49.95 121.6 50.7 120.8 51.6 119.35 53.1 116.7 54.15 113.95 55.2 111.5 55.2 L35.35 55.2 30.7 54.5 Q28.0 53.7 26.75 52.45 25.5 51.2 24.7 48.55 24.0 46.15 24.0 43.85 L24.0 -156.45 Q24.0 -158.95 24.9 -161.5 25.8 -164.1 27.2 -165.45 28.6 -166.85 31.15 -167.75 33.75 -168.7 36.25 -168.7 L223.25 -168.7 M227.9 -165.75 Q225.3 -166.7 223.25 -166.7 L36.25 -166.7 Q34.2 -166.7 31.95 -165.9 29.7 -165.15 28.6 -164.05 27.5 -162.95 26.75 -160.75 26.0 -158.5 26.0 -156.45 L26.0 43.85 Q26.0 45.95 26.65 48.05 27.25 50.15 28.15 51.05 29.1 51.95 31.2 52.6 L35.35 53.2 111.5 53.2 Q113.55 53.2 115.9 52.3 118.2 51.45 119.35 50.2 120.5 48.95 122.85 48.1 125.15 47.2 127.2 47.2 L154.85 47.2 Q156.9 47.2 159.15 48.1 161.4 48.95 162.5 50.2 163.65 51.45 165.9 52.3 168.15 53.2 170.2 53.2 L246.45 53.2 Q248.5 53.2 250.0 51.75 251.45 50.25 251.45 48.2 L251.45 -142.5 Q251.45 -144.55 250.3 -146.95 249.2 -149.4 247.6 -150.7 L232.1 -163.5 Q230.55 -164.8 227.9 -165.75" fill="#6d6b69" fill-rule="evenodd" stroke="none"/>
    <path d="M186.65 -158.6 L189.45 -158.05 Q191.0 -157.5 191.95 -156.75 L193.45 -155.5 Q194.45 -154.7 196.0 -154.15 197.55 -153.6 198.8 -153.6 L229.5 -153.6 232.35 -153.1 235.0 -151.95 241.75 -147.3 243.5 -145.25 Q244.25 -143.85 244.25 -142.6 L244.25 -71.45 Q244.25 -68.65 243.25 -66.05 242.25 -63.6 242.25 -60.6 L242.25 -58.6 Q242.25 -57.35 241.35 -56.5 240.5 -55.6 239.25 -55.6 L39.35 -55.6 Q38.1 -55.6 37.25 -56.5 36.35 -57.35 36.35 -58.6 L36.35 -65.95 36.05 -68.65 35.35 -70.95 Q34.95 -71.75 34.65 -73.25 34.35 -74.7 34.35 -75.95 L34.35 -155.6 Q34.35 -156.85 35.25 -157.7 36.1 -158.6 37.35 -158.6 L186.65 -158.6" fill="#282828" fill-rule="evenodd" stroke="none"/>
    <path d="M186.65 -158.6 L37.35 -158.6 Q36.1 -158.6 35.25 -157.7 34.35 -156.85 34.35 -155.6 L34.35 -75.95 Q34.35 -74.7 34.65 -73.25 34.95 -71.75 35.35 -70.95 L36.05 -68.65 36.35 -65.95 36.35 -58.6 Q36.35 -57.35 37.25 -56.5 38.1 -55.6 39.35 -55.6 L239.25 -55.6 Q240.5 -55.6 241.35 -56.5 242.25 -57.35 242.25 -58.6 L242.25 -60.6 Q242.25 -63.6 243.25 -66.05 244.25 -68.65 244.25 -71.45 L244.25 -142.6 Q244.25 -143.85 243.5 -145.25 L241.75 -147.3 235.0 -151.95 232.35 -153.1 229.5 -153.6 198.8 -153.6 Q197.55 -153.6 196.0 -154.15 194.45 -154.7 193.45 -155.5 L191.95 -156.75 Q191.0 -157.5 189.45 -158.05 L186.65 -158.6 Z" fill="none" stroke="#0c0c0c" stroke-linecap="butt" stroke-linejoin="miter-clip" stroke-miterlimit="4.0" stroke-width="1.0"/>
    <path d="M34.35 -39.6 Q34.35 -40.85 34.65 -42.35 34.95 -43.9 35.35 -44.8 36.35 -47.0 36.35 -49.95 L36.35 -51.3 Q36.35 -52.55 37.25 -53.4 38.1 -54.3 39.35 -54.3 L239.25 -54.3 Q240.5 -54.3 241.35 -53.4 242.25 -52.55 242.25 -51.3 L242.25 -44.6 Q242.25 -43.35 242.55 -41.8 242.85 -40.25 243.25 -39.3 244.25 -36.7 244.25 -33.95 L244.25 42.1 Q244.25 43.35 243.35 44.2 242.5 45.1 241.25 45.1 L42.35 45.1 Q41.1 45.1 40.25 44.2 39.35 43.35 39.35 42.1 L39.35 16.55 38.9 13.7 37.85 11.0 35.9 7.65 Q35.25 6.6 34.8 4.95 34.35 3.3 34.35 2.05 L34.35 -39.6" fill="#282828" fill-rule="evenodd" stroke="none"/>
    <path d="M34.35 -39.6 L34.35 2.05 Q34.35 3.3 34.8 4.95 35.25 6.6 35.9 7.65 L37.85 11.0 38.9 13.7 39.35 16.55 39.35 42.1 Q39.35 43.35 40.25 44.2 41.1 45.1 42.35 45.1 L241.25 45.1 Q242.5 45.1 243.35 44.2 244.25 43.35 244.25 42.1 L244.25 -33.95 Q244.25 -36.7 243.25 -39.3 242.85 -40.25 242.55 -41.8 242.25 -43.35 242.25 -44.6 L242.25 -51.3 Q242.25 -52.55 241.35 -53.4 240.5 -54.3 239.25 -54.3 L39.35 -54.3 Q38.1 -54.3 37.25 -53.4 36.35 -52.55 36.35 -51.3 L36.35 -49.95 Q36.35 -47.0 35.35 -44.8 34.95 -43.9 34.65 -42.35 34.35 -40.85 34.35 -39.6 Z" fill="none" stroke="#0c0c0c" stroke-linecap="butt" stroke-linejoin="miter-clip" stroke-miterlimit="4.0" stroke-width="1.0"/>
    <path d="M222.95 -161.5 L229.6 -157.0 202.3 -157.0 196.3 -161.5 222.95 -161.5" fill="#020202" fill-rule="evenodd" stroke="none"/>
    <path d="M31.75 -21.45 L31.75 27.95 Q31.75 29.2 31.0 30.5 30.25 31.8 29.15 32.45 L26.35 34.05 24.55 34.25 Q23.75 33.85 23.75 32.6 L23.75 -26.35 Q23.75 -27.6 24.5 -28.0 25.25 -28.4 26.35 -27.75 L29.2 -26.0 Q30.25 -25.35 31.0 -24.0 31.75 -22.7 31.75 -21.45" fill="#191919" fill-rule="evenodd" stroke="none"/>
    <path d="M23.75 -29.35 L24.5 -28.95 24.5 35.15 23.75 35.6 23.75 -29.35" fill="#595657" fill-rule="evenodd" stroke="none"/>
    <path d="M24.0 -13.65 L26.8 -13.15 26.8 19.85 24.0 20.35 24.0 -13.65" fill="#484949" fill-rule="evenodd" stroke="none"/>
    <path d="M28.45 31.55 L25.1 33.7 25.1 21.25 28.45 20.65 28.45 31.55" fill="#000701" fill-rule="evenodd" stroke="none"/>
    <path d="M28.0 30.8 L25.6 32.3 25.6 22.2 28.0 21.8 28.0 30.8" fill="#2c0000" fill-rule="evenodd" stroke="none"/>
    <path d="M27.45 29.8 L26.1 30.65 26.1 23.15 27.45 22.9 27.45 29.8" fill="#2659ff" fill-rule="evenodd" stroke="none"/>
    <path d="M28.45 -25.15 L28.45 -14.25 25.1 -14.85 25.1 -27.3 28.45 -25.15" fill="#1e0701" fill-rule="evenodd" stroke="none"/>
    <path d="M28.0 -24.35 L28.0 -15.35 25.6 -15.75 25.6 -25.85 28.0 -24.35" fill="#2c0000" fill-rule="evenodd" stroke="none"/>
    <path d="M27.45 -23.35 L27.45 -16.45 26.1 -16.7 26.1 -24.25 27.45 -23.35" fill="#2659ff" fill-rule="evenodd" stroke="none"/>
    <path d="M26.35 -149.75 L29.2 -148.0 Q30.25 -147.35 31.0 -146.0 31.75 -144.7 31.75 -143.45 L31.75 -94.05 Q31.75 -92.8 31.0 -91.5 30.25 -90.2 29.15 -89.55 L26.35 -87.95 Q25.3 -87.3 24.55 -87.75 23.75 -88.15 23.75 -89.4 L23.75 -148.35 Q23.75 -149.6 24.5 -150.0 25.25 -150.4 26.35 -149.75" fill="#191919" fill-rule="evenodd" stroke="none"/>
    <path d="M23.75 -151.35 L24.5 -150.95 24.5 -86.85 23.75 -86.4 23.75 -151.35" fill="#595657" fill-rule="evenodd" stroke="none"/>
    <path d="M24.0 -135.65 L26.8 -135.15 26.8 -102.15 24.0 -101.65 24.0 -135.65" fill="#484949" fill-rule="evenodd" stroke="none"/>
    <path d="M28.45 -90.45 L25.1 -88.3 25.1 -100.75 28.45 -101.35 28.45 -90.45" fill="#000701" fill-rule="evenodd" stroke="none"/>
    <path d="M28.0 -91.2 L25.6 -89.7 25.6 -99.8 28.0 -100.2 28.0 -91.2" fill="#2c0000" fill-rule="evenodd" stroke="none"/>
    <path d="M27.45 -92.2 L26.1 -91.35 26.1 -98.85 27.45 -99.1 27.45 -92.2" fill="#2659ff" fill-rule="evenodd" stroke="none"/>
    <path d="M28.45 -147.15 L28.45 -136.25 25.1 -136.85 25.1 -149.3 28.45 -147.15" fill="#1e0701" fill-rule="evenodd" stroke="none"/>
    <path d="M28.0 -146.35 L28.0 -137.35 25.6 -137.75 25.6 -147.85 28.0 -146.35" fill="#2c0000" fill-rule="evenodd" stroke="none"/>
    <path d="M27.45 -145.35 L27.45 -138.45 26.1 -138.7 26.1 -146.25 27.45 -145.35" fill="#2659ff" fill-rule="evenodd" stroke="none"/>
    <path d="M248.1 -23.0 L250.95 -24.75 Q252.0 -25.4 252.75 -25.0 253.5 -24.6 253.5 -23.35 L253.5 35.6 Q253.5 36.85 252.75 37.25 252.0 37.7 250.9 37.05 L248.1 35.45 Q247.05 34.8 246.3 33.5 245.55 32.2 245.55 30.95 L245.55 -18.45 Q245.55 -19.7 246.3 -21.0 247.05 -22.35 248.1 -23.0" fill="#191919" fill-rule="evenodd" stroke="none"/>
    <path d="M253.5 -26.35 L253.5 38.6 252.8 38.15 252.8 -25.95 253.5 -26.35" fill="#595657" fill-rule="evenodd" stroke="none"/>
    <path d="M253.3 -10.65 L253.3 23.35 250.5 22.85 250.5 -10.15 253.3 -10.65" fill="#484949" fill-rule="evenodd" stroke="none"/>
    <path d="M248.8 34.55 L248.8 23.65 252.2 24.25 252.2 36.7 248.8 34.55" fill="#000701" fill-rule="evenodd" stroke="none"/>
    <path d="M249.3 33.8 L249.3 24.8 251.7 25.2 251.7 35.3 249.3 33.8" fill="#2c0000" fill-rule="evenodd" stroke="none"/>
    <path d="M249.8 32.8 L249.8 25.9 251.2 26.15 251.2 33.65 249.8 32.8" fill="#2659ff" fill-rule="evenodd" stroke="none"/>
    <path d="M248.8 -22.15 L252.2 -24.3 252.2 -11.85 248.8 -11.25 248.8 -22.15" fill="#1e0701" fill-rule="evenodd" stroke="none"/>
    <path d="M249.3 -21.35 L251.7 -22.85 251.7 -12.75 249.3 -12.35 249.3 -21.35" fill="#2c0000" fill-rule="evenodd" stroke="none"/>
    <path d="M249.8 -20.35 L251.2 -21.25 251.2 -13.7 249.8 -13.45 249.8 -20.35" fill="#2659ff" fill-rule="evenodd" stroke="none"/>
    <path d="M248.1 -138.65 L250.95 -140.4 Q252.0 -141.05 252.75 -140.6 253.5 -140.2 253.5 -138.95 L253.5 -80.05 Q253.5 -78.8 252.75 -78.35 252.0 -77.9 250.9 -78.55 L248.1 -80.2 Q247.05 -80.8 246.3 -82.15 245.55 -83.45 245.55 -84.7 L245.55 -134.05 Q245.55 -135.3 246.3 -136.65 247.05 -137.95 248.1 -138.65" fill="#191919" fill-rule="evenodd" stroke="none"/>
    <path d="M253.5 -141.95 L253.5 -77.05 252.8 -77.5 252.8 -141.55 253.5 -141.95" fill="#595657" fill-rule="evenodd" stroke="none"/>
    <path d="M253.3 -126.3 L253.3 -92.3 250.5 -92.8 250.5 -125.8 253.3 -126.3" fill="#484949" fill-rule="evenodd" stroke="none"/>
    <path d="M248.8 -81.05 L248.8 -91.95 252.2 -91.35 252.2 -78.9 248.8 -81.05" fill="#000701" fill-rule="evenodd" stroke="none"/>
    <path d="M249.3 -81.85 L249.3 -90.85 251.7 -90.4 251.7 -80.3 249.3 -81.85" fill="#2c0000" fill-rule="evenodd" stroke="none"/>
    <path d="M249.8 -82.8 L249.8 -89.75 251.2 -89.5 251.2 -81.95 249.8 -82.8" fill="#2659ff" fill-rule="evenodd" stroke="none"/>
    <path d="M248.8 -137.75 L252.2 -139.9 252.2 -127.45 248.8 -126.85 248.8 -137.75" fill="#1e0701" fill-rule="evenodd" stroke="none"/>
    <path d="M249.3 -136.95 L251.7 -138.5 251.7 -128.4 249.3 -127.95 249.3 -136.95" fill="#2c0000" fill-rule="evenodd" stroke="none"/>
    <path d="M249.8 -136.0 L251.2 -136.85 251.2 -129.3 249.8 -129.05 249.8 -136.0" fill="#2659ff" fill-rule="evenodd" stroke="none"/>
    <path d="M167.9 -169.6 L171.9 -165.65 99.95 -165.65 103.9 -169.6 167.9 -169.6" fill="#161616" fill-rule="evenodd" stroke="none"/>
    <path d="M167.9 -169.6 L103.9 -169.6 99.95 -165.65 171.9 -165.65 167.9 -169.6 Z" fill="none" stroke="#181919" stroke-linecap="butt" stroke-linejoin="miter-clip" stroke-miterlimit="4.0" stroke-width="2.0"/>
    <path d="M26.55 62.1 Q27.35 59.7 28.6 58.45 29.85 57.25 32.25 56.4 34.7 55.55 36.95 55.55 L223.95 55.55 Q226.2 55.55 228.95 56.55 231.75 57.55 233.45 58.95 L248.95 71.8 Q250.7 73.25 251.95 75.85 253.15 78.45 253.15 80.75 L253.15 185.45 Q253.15 187.95 251.4 189.7 249.65 191.45 247.15 191.45 L190.85 191.45 Q188.55 191.45 186.15 190.5 183.7 189.5 182.45 188.1 181.5 187.0 179.45 186.25 177.4 185.45 175.55 185.45 L107.85 185.45 Q106.0 185.45 103.9 186.25 101.8 187.05 100.75 188.15 99.45 189.55 96.95 190.5 94.5 191.45 92.2 191.45 L36.05 191.45 Q33.75 191.45 31.5 190.75 29.2 190.0 28.15 188.95 27.1 187.95 26.4 185.65 25.7 183.4 25.7 181.1 L25.7 66.8 Q25.7 64.5 26.55 62.1" fill="#181819" fill-rule="evenodd" stroke="none"/>
    <path d="M24.7 66.8 Q24.7 64.3 25.6 61.75 26.5 59.15 27.9 57.75 29.25 56.4 31.85 55.5 34.45 54.55 36.95 54.55 L223.95 54.55 Q226.35 54.55 229.3 55.6 232.25 56.65 234.1 58.2 L249.55 71.0 Q251.5 72.6 252.85 75.45 254.15 78.25 254.15 80.75 L254.15 185.45 Q254.15 188.35 252.1 190.4 250.05 192.45 247.15 192.45 L190.85 192.45 Q188.35 192.45 185.7 191.4 183.1 190.35 181.7 188.8 180.95 187.95 179.15 187.2 177.25 186.45 175.55 186.45 L107.85 186.45 Q106.15 186.45 104.2 187.2 102.35 187.95 101.5 188.8 100.05 190.35 97.35 191.4 94.65 192.45 92.2 192.45 L36.05 192.45 31.35 191.75 Q28.75 191.0 27.45 189.7 26.2 188.45 25.4 185.8 24.7 183.4 24.7 181.1 L24.7 66.8 M27.45 62.5 Q26.7 64.75 26.7 66.8 L26.7 181.1 Q26.7 183.15 27.35 185.25 27.95 187.35 28.85 188.25 29.75 189.15 31.85 189.8 L36.05 190.45 92.2 190.45 Q94.25 190.45 96.6 189.55 98.9 188.7 100.05 187.45 101.2 186.2 103.5 185.35 105.8 184.45 107.85 184.45 L175.55 184.45 Q177.6 184.45 179.85 185.35 182.1 186.2 183.2 187.45 184.3 188.7 186.55 189.55 188.8 190.45 190.85 190.45 L247.15 190.45 Q249.2 190.45 250.7 189.0 252.15 187.5 252.15 185.45 L252.15 80.75 Q252.15 78.7 251.0 76.3 249.9 73.85 248.3 72.55 L232.8 59.75 Q231.25 58.45 228.6 57.5 226.0 56.55 223.95 56.55 L36.95 56.55 Q34.9 56.55 32.65 57.35 30.4 58.1 29.3 59.2 28.2 60.3 27.45 62.5" fill="#6d6b69" fill-rule="evenodd" stroke="none"/>
    <path d="M38.05 65.1 L167.3 65.1 Q168.45 65.1 169.95 65.65 171.45 66.2 172.35 66.9 L173.85 68.1 Q174.85 68.95 176.55 69.5 L179.5 70.1 230.2 70.1 232.9 70.6 Q234.45 71.05 235.4 71.7 L242.15 76.35 Q243.05 76.95 243.75 78.25 244.4 79.5 244.4 80.6 L244.4 180.6 Q244.4 181.65 243.7 182.4 242.95 183.1 241.9 183.1 L38.05 183.1 Q37.0 183.1 36.3 182.4 35.55 181.65 35.55 180.6 L35.55 67.6 Q35.55 66.6 36.3 65.85 37.0 65.1 38.05 65.1" fill="url(#gradient1)" fill-rule="evenodd" stroke="none"/>
    <path d="M35.05 67.6 Q35.05 66.35 35.95 65.5 36.8 64.6 38.05 64.6 L167.3 64.6 Q168.55 64.6 170.1 65.15 171.7 65.7 172.65 66.5 L174.15 67.7 176.7 69.05 179.5 69.6 230.2 69.6 233.05 70.1 Q234.65 70.6 235.7 71.3 L242.45 75.9 Q243.45 76.6 244.2 78.0 244.9 79.35 244.9 80.6 L244.9 180.6 Q244.9 181.85 244.0 182.7 243.15 183.6 241.9 183.6 L38.05 183.6 Q36.8 183.6 35.95 182.7 35.05 181.85 35.05 180.6 L35.05 67.6 M38.05 65.6 Q37.25 65.6 36.65 66.2 36.05 66.8 36.05 67.6 L36.05 180.6 Q36.05 181.45 36.65 182.0 37.25 182.6 38.05 182.6 L241.9 182.6 Q242.75 182.6 243.3 182.0 243.9 181.45 243.9 180.6 L243.9 80.6 Q243.9 79.6 243.3 78.45 242.65 77.3 241.85 76.75 L235.1 72.15 Q234.2 71.5 232.75 71.05 L230.2 70.6 179.5 70.6 Q178.05 70.6 176.35 70.0 174.65 69.4 173.55 68.5 L172.0 67.3 Q171.2 66.65 169.8 66.1 168.4 65.6 167.3 65.6 L38.05 65.6" fill="#050300" fill-rule="evenodd" stroke="none"/>
    <path d="M182.0 66.25 L176.0 61.75 223.65 61.75 230.25 66.25 182.0 66.25" fill="#020202" fill-rule="evenodd" stroke="none"/>
    <path d="M119.15 -213.8 L109.45 -191.75 Q108.95 -190.6 107.75 -189.8 106.5 -189.0 105.25 -189.0 L-82.55 -189.0 Q-83.8 -189.0 -84.95 -189.8 -86.15 -190.65 -86.5 -191.85 L-93.45 -213.65 Q-93.8 -214.85 -93.25 -215.65 -92.65 -216.5 -91.4 -216.5 L117.35 -216.5 Q118.6 -216.5 119.1 -215.7 119.65 -214.9 119.15 -213.8" fill="url(#gradient2)" fill-rule="evenodd" stroke="none"/>
    <path d="M103.85 -209.65 L99.25 -193.85 Q98.85 -192.7 97.75 -191.85 96.65 -191.0 95.4 -191.0 L-73.7 -191.0 Q-74.95 -191.0 -76.05 -191.85 -77.15 -192.7 -77.5 -193.85 L-81.95 -209.65 Q-82.3 -210.8 -81.65 -211.65 -81.0 -212.5 -79.75 -212.5 L101.7 -212.5 Q102.95 -212.5 103.6 -211.65 104.25 -210.8 103.85 -209.65" fill="url(#gradient3)" fill-rule="evenodd" stroke="none"/>
    <path d="M66.2 -189.55 L71.6 -189.55 67.9 -178.05 59.05 -173.25 66.2 -189.55" fill="#29292b" fill-rule="evenodd" stroke="none"/>
    <path d="M-43.7 -178.05 L-47.45 -189.55 -42.05 -189.55 -34.9 -173.25 -43.7 -178.05" fill="#29292b" fill-rule="evenodd" stroke="none"/>
    <path d="M-41.15 -189.55 L64.55 -189.55 Q65.8 -189.55 66.35 -188.75 66.95 -187.9 66.5 -186.75 L62.5 -176.05 Q62.05 -174.9 60.85 -174.05 59.65 -173.25 58.4 -173.25 L-34.3 -173.25 Q-35.55 -173.25 -36.75 -174.05 -38.0 -174.9 -38.45 -176.0 L-42.95 -186.8 Q-43.45 -187.95 -42.9 -188.75 -42.4 -189.55 -41.15 -189.55" fill="url(#gradient4)" fill-rule="evenodd" stroke="none"/>
    <path d="M-43.5 -188.05 L-44.15 -189.55 67.55 -189.55 67.0 -188.05 -43.5 -188.05" fill="#595657" fill-rule="evenodd" stroke="none"/>
    <path d="M-39.0 -177.55 L-39.55 -178.6 63.1 -178.6 62.55 -177.55 -39.0 -177.55" fill="#474647" fill-rule="evenodd" stroke="none"/>
    <path d="M-39.45 -178.65 L-40.05 -179.7 63.65 -179.7 63.1 -178.65 -39.45 -178.65" fill="#1e1d1f" fill-rule="evenodd" stroke="none"/>
    <path d="M103.75 47.95 L110.15 45.55 104.35 53.55 100.65 53.55 103.75 47.95" fill="#29292b" fill-rule="evenodd" stroke="none"/>
    <path d="M168.05 47.95 L170.6 53.55 166.9 53.55 162.05 45.55 168.05 47.95" fill="#29292b" fill-rule="evenodd" stroke="none"/>
    <path d="M106.75 48.15 Q107.4 47.05 108.75 46.3 110.05 45.55 111.3 45.55 L160.7 45.55 Q161.95 45.55 163.25 46.35 164.55 47.1 165.2 48.15 L166.8 50.95 Q167.45 52.05 167.0 52.8 166.6 53.55 165.35 53.55 L106.4 53.55 Q105.15 53.55 104.75 52.8 104.35 52.05 105.0 51.0 L106.75 48.15" fill="#191919" fill-rule="evenodd" stroke="none"/>
    <path d="M103.4 53.55 L103.8 52.85 167.9 52.85 168.35 53.55 103.4 53.55" fill="#595657" fill-rule="evenodd" stroke="none"/>
    <path d="M106.7 48.2 L107.05 47.7 164.85 47.7 165.2 48.2 106.7 48.2" fill="#474647" fill-rule="evenodd" stroke="none"/>
    <path d="M106.35 48.75 L106.7 48.25 165.15 48.25 165.55 48.75 106.35 48.75" fill="#1e1d1f" fill-rule="evenodd" stroke="none"/>
    <path d="M119.1 53.35 L119.6 50.55 152.6 50.55 153.1 53.35 119.1 53.35" fill="#484949" fill-rule="evenodd" stroke="none"/>
    <path d="M164.3 48.85 L166.45 52.2 154.0 52.2 153.4 48.85 164.3 48.85" fill="#000030" fill-rule="evenodd" stroke="none"/>
    <path d="M163.55 49.35 L165.05 51.75 154.95 51.75 154.55 49.35 163.55 49.35" fill="#2c0000" fill-rule="evenodd" stroke="none"/>
    <path d="M162.55 49.85 L163.4 51.2 155.9 51.2 155.65 49.85 162.55 49.85" fill="#780000" fill-rule="evenodd" stroke="none"/>
    <path d="M107.6 48.85 L118.5 48.85 117.9 52.2 105.45 52.2 107.6 48.85" fill="#000030" fill-rule="evenodd" stroke="none"/>
    <path d="M108.4 49.35 L117.4 49.35 117.0 51.75 106.85 51.75 108.4 49.35" fill="#2c0000" fill-rule="evenodd" stroke="none"/>
    <path d="M109.4 49.85 L116.3 49.85 116.05 51.2 108.5 51.2 109.4 49.85" fill="#780000" fill-rule="evenodd" stroke="none"/>
    <path d="M103.75 -167.3 L110.15 -169.65 104.35 -161.65 100.65 -161.65 103.75 -167.3" fill="#29292b" fill-rule="evenodd" stroke="none"/>
    <path d="M168.05 -167.3 L170.6 -161.65 166.9 -161.65 162.05 -169.65 168.05 -167.3" fill="#29292b" fill-rule="evenodd" stroke="none"/>
    <path d="M165.35 -161.65 L106.4 -161.65 Q105.15 -161.65 104.75 -162.4 104.35 -163.15 105.0 -164.2 L106.75 -167.1 Q107.4 -168.15 108.75 -168.9 110.05 -169.65 111.3 -169.65 L160.7 -169.65 Q161.95 -169.65 163.25 -168.85 164.55 -168.1 165.2 -167.05 L166.8 -164.25 Q167.45 -163.15 167.0 -162.4 166.6 -161.65 165.35 -161.65" fill="#191919" fill-rule="evenodd" stroke="none"/>
    <path d="M167.9 -162.4 L168.35 -161.65 103.4 -161.65 103.8 -162.4 167.9 -162.4" fill="#595657" fill-rule="evenodd" stroke="none"/>
    <path d="M164.85 -167.55 L165.2 -167.0 106.7 -167.0 107.05 -167.55 164.85 -167.55" fill="#474647" fill-rule="evenodd" stroke="none"/>
    <path d="M165.15 -167.0 L165.55 -166.5 106.35 -166.5 106.7 -167.0 165.15 -167.0" fill="#1e1d1f" fill-rule="evenodd" stroke="none"/>
    <path d="M152.6 -164.65 L153.1 -161.85 119.1 -161.85 119.6 -164.65 152.6 -164.65" fill="#484949" fill-rule="evenodd" stroke="none"/>
    <path d="M164.3 -166.35 L166.45 -163.0 154.0 -163.0 153.4 -166.35 164.3 -166.35" fill="#000030" fill-rule="evenodd" stroke="none"/>
    <path d="M163.55 -165.85 L165.05 -163.5 154.95 -163.5 154.55 -165.85 163.55 -165.85" fill="#2c0000" fill-rule="evenodd" stroke="none"/>
    <path d="M162.55 -165.35 L163.4 -164.0 155.9 -164.0 155.65 -165.35 162.55 -165.35" fill="#780000" fill-rule="evenodd" stroke="none"/>
    <path d="M117.9 -163.0 L105.45 -163.0 107.6 -166.35 118.5 -166.35 117.9 -163.0" fill="#000030" fill-rule="evenodd" stroke="none"/>
    <path d="M117.0 -163.5 L106.85 -163.5 108.4 -165.85 117.4 -165.85 117.0 -163.5" fill="#2c0000" fill-rule="evenodd" stroke="none"/>
    <path d="M116.05 -164.0 L108.5 -164.0 109.4 -165.35 116.3 -165.35 116.05 -164.0" fill="#780000" fill-rule="evenodd" stroke="none"/>
    <path d="M-141.45 -166.4 L-135.1 -168.8 -140.9 -160.8 -144.55 -160.8 -141.45 -166.4" fill="#29292b" fill-rule="evenodd" stroke="none"/>
    <path d="M-77.15 -166.4 L-74.65 -160.8 -78.3 -160.8 -83.2 -168.8 -77.15 -166.4" fill="#29292b" fill-rule="evenodd" stroke="none"/>
    <path d="M-138.5 -166.2 Q-137.8 -167.3 -136.5 -168.05 -135.15 -168.8 -133.9 -168.8 L-84.55 -168.8 Q-83.3 -168.8 -82.0 -168.0 -80.65 -167.25 -80.05 -166.2 L-78.4 -163.4 Q-77.75 -162.3 -78.2 -161.55 -78.65 -160.8 -79.9 -160.8 L-138.8 -160.8 Q-140.05 -160.8 -140.45 -161.55 -140.9 -162.3 -140.25 -163.35 L-138.5 -166.2" fill="#191919" fill-rule="evenodd" stroke="none"/>
    <path d="M-141.8 -160.8 L-141.4 -161.5 -77.35 -161.5 -76.9 -160.8 -141.8 -160.8" fill="#595657" fill-rule="evenodd" stroke="none"/>
    <path d="M-138.55 -166.15 L-138.15 -166.65 -80.4 -166.65 -80.0 -166.15 -138.55 -166.15" fill="#474647" fill-rule="evenodd" stroke="none"/>
    <path d="M-138.9 -165.6 L-138.55 -166.1 -80.1 -166.1 -79.7 -165.6 -138.9 -165.6" fill="#1e1d1f" fill-rule="evenodd" stroke="none"/>
    <path d="M-92.65 -163.8 L-92.15 -161.0 -126.15 -161.0 -125.65 -163.8 -92.65 -163.8" fill="#484949" fill-rule="evenodd" stroke="none"/>
    <path d="M-80.9 -165.5 L-78.75 -162.15 -91.2 -162.15 -91.8 -165.5 -80.9 -165.5" fill="#000030" fill-rule="evenodd" stroke="none"/>
    <path d="M-81.7 -165.0 L-80.15 -162.6 -90.25 -162.6 -90.7 -165.0 -81.7 -165.0" fill="#2c0000" fill-rule="evenodd" stroke="none"/>
    <path d="M-82.65 -164.5 L-81.8 -163.15 -89.35 -163.15 -89.6 -164.5 -82.65 -164.5" fill="#780000" fill-rule="evenodd" stroke="none"/>
    <path d="M-137.6 -165.5 L-126.7 -165.5 -127.3 -162.15 -139.75 -162.15 -137.6 -165.5" fill="#000030" fill-rule="evenodd" stroke="none"/>
    <path d="M-136.8 -165.0 L-127.8 -165.0 -128.25 -162.6 -138.35 -162.6 -136.8 -165.0" fill="#2c0000" fill-rule="evenodd" stroke="none"/>
    <path d="M-135.85 -164.5 L-128.9 -164.5 -129.15 -163.15 -136.7 -163.15 -135.85 -164.5" fill="#780000" fill-rule="evenodd" stroke="none"/>
  </g>
  <defs>
    <linearGradient gradientTransform="matrix(0.0, -0.2339, -0.2339, 0.0, 8.0, 6.75)" gradientUnits="userSpaceOnUse" id="gradient0" spreadMethod="pad" x1="-819.2" x2="819.2">
      <stop offset="0.0" stop-color="#373737"/>
      <stop offset="0.17254901960784313" stop-color="#656565"/>
      <stop offset="0.35294117647058826" stop-color="#6c6c6c"/>
      <stop offset="0.615686274509804" stop-color="#808080"/>
      <stop offset="0.9333333333333333" stop-color="#a1a1a1"/>
      <stop offset="0.9607843137254902" stop-color="#a4a4a4"/>
      <stop offset="1.0" stop-color="#373737"/>
    </linearGradient>
    <linearGradient gradientTransform="matrix(0.0, -0.072, -0.072, 0.0, 140.0, 124.1)" gradientUnits="userSpaceOnUse" id="gradient1" spreadMethod="pad" x1="-819.2" x2="819.2">
      <stop offset="0.0" stop-color="#572e00"/>
      <stop offset="1.0" stop-color="#210000"/>
    </linearGradient>
    <linearGradient gradientTransform="matrix(0.0, -0.0168, -0.0168, 0.0, 12.9, -202.75)" gradientUnits="userSpaceOnUse" id="gradient2" spreadMethod="pad" x1="-819.2" x2="819.2">
      <stop offset="0.00392156862745098" stop-color="#292929"/>
      <stop offset="0.09411764705882353" stop-color="#404242"/>
      <stop offset="0.40784313725490196" stop-color="#626465"/>
      <stop offset="0.8627450980392157" stop-color="#9b9d9e"/>
      <stop offset="0.9176470588235294" stop-color="#737576"/>
      <stop offset="0.9725490196078431" stop-color="#525354"/>
      <stop offset="1.0" stop-color="#454647"/>
    </linearGradient>
    <linearGradient gradientTransform="matrix(0.1135, 0.0, 0.0, -0.1135, 10.95, -201.75)" gradientUnits="userSpaceOnUse" id="gradient3" spreadMethod="pad" x1="-819.2" x2="819.2">
      <stop offset="0.0" stop-color="#0b001c"/>
      <stop offset="0.11372549019607843" stop-color="#070733"/>
      <stop offset="0.24705882352941178" stop-color="#030d47"/>
      <stop offset="0.3843137254901961" stop-color="#011153"/>
      <stop offset="0.5176470588235295" stop-color="#001257"/>
      <stop offset="0.6627450980392157" stop-color="#011154"/>
      <stop offset="0.7764705882352941" stop-color="#020e4a"/>
      <stop offset="0.8823529411764706" stop-color="#060939"/>
      <stop offset="0.9803921568627451" stop-color="#0a0222"/>
      <stop offset="1.0" stop-color="#0b001c"/>
    </linearGradient>
    <linearGradient gradientTransform="matrix(0.0, -0.0099, -0.0099, 0.0, 11.75, -181.4)" gradientUnits="userSpaceOnUse" id="gradient4" spreadMethod="pad" x1="-819.2" x2="819.2">
      <stop offset="0.0" stop-color="#2c2e32"/>
      <stop offset="1.0" stop-color="#383b3c"/>
    </linearGradient>
  </defs>
</svg>
