<?xml version="1.0" encoding="UTF-8" standalone="no"?>
<svg xmlns:ffdec="https://www.free-decompiler.com/flash" xmlns:xlink="http://www.w3.org/1999/xlink" ffdec:objectType="shape" height="16.1px" width="16.1px" xmlns="http://www.w3.org/2000/svg">
  <g transform="matrix(1.0, 0.0, 0.0, 1.0, -0.9, -0.9)">
    <path d="M15.6 15.6 Q14.9 16.3 13.85 16.3 L4.05 16.3 Q3.0 16.3 2.3 15.6 1.6 14.9 1.6 13.85 L1.6 4.05 Q1.6 3.05 2.3 2.3 3.05 1.55 4.05 1.55 L13.85 1.55 Q14.9 1.55 15.6 2.3 16.35 3.05 16.35 4.05 L16.35 13.85 Q16.35 14.9 15.6 15.6" fill="#8d4701" fill-rule="evenodd" stroke="none"/>
    <path d="M16.1 1.85 Q17.0 2.75 17.0 4.05 L17.0 13.85 Q17.0 15.15 16.1 16.1 15.15 17.0 13.85 17.0 L4.05 17.0 Q2.75 17.0 1.8 16.1 0.9 15.15 0.9 13.85 L0.9 4.05 Q0.9 2.75 1.8 1.85 2.75 0.9 4.05 0.9 L13.85 0.9 Q15.15 0.9 16.1 1.85 M15.1 15.1 Q15.65 14.6 15.65 13.85 L15.65 4.05 Q15.65 3.3 15.1 2.8 14.65 2.25 13.85 2.25 L4.05 2.25 Q3.35 2.25 2.8 2.8 2.25 3.3 2.25 4.05 L2.25 13.85 Q2.25 14.6 2.8 15.1 3.35 15.65 4.05 15.65 L13.85 15.65 Q14.65 15.65 15.1 15.1" fill="#f7bb34" fill-rule="evenodd" stroke="none"/>
    <path d="M14.0 13.95 L12.5 13.95 12.5 3.65 14.0 3.65 14.0 13.95" fill="#ffff00" fill-rule="evenodd" stroke="none"/>
    <path d="M10.25 9.1 L4.6 14.95 5.85 9.0 4.6 2.8 10.25 9.1" fill="#ffff00" fill-rule="evenodd" stroke="none"/>
  </g>
</svg>
