<?xml version="1.0" encoding="UTF-8" standalone="no"?>
<svg xmlns:ffdec="https://www.free-decompiler.com/flash" xmlns:xlink="http://www.w3.org/1999/xlink" ffdec:objectType="shape" height="22.8px" width="98.65px" xmlns="http://www.w3.org/2000/svg">
  <g transform="matrix(1.0, 0.0, 0.0, 1.0, -5.5, -1.25)">
    <path d="M102.8 2.6 Q104.15 3.9 104.15 5.75 L104.15 19.55 Q104.15 21.45 102.8 22.75 101.45 24.05 99.65 24.05 L10.0 24.05 Q8.15 24.05 6.8 22.75 5.5 21.45 5.5 19.55 L5.5 5.75 Q5.5 3.9 6.8 2.6 8.15 1.25 10.0 1.25 L99.65 1.25 Q101.45 1.25 102.8 2.6" fill="url(#gradient0)" fill-rule="evenodd" stroke="none"/>
    <path d="M88.65 21.35 Q86.95 21.35 86.3 21.9 85.85 22.4 83.95 22.4 L27.5 22.4 Q25.7 22.4 25.15 21.9 24.6 21.35 22.85 21.35 L9.1 21.35 Q8.35 21.35 7.85 20.8 7.3 20.3 7.3 19.55 L7.3 5.75 Q7.3 5.05 7.85 4.5 8.35 3.95 9.1 3.95 L22.85 3.95 Q24.6 3.95 25.15 3.45 25.7 2.9 27.5 2.9 L83.95 2.9 Q85.85 2.9 86.3 3.45 86.95 3.95 88.65 3.95 L100.55 3.95 Q101.3 3.95 101.8 4.5 102.35 5.05 102.35 5.75 L102.35 19.55 Q102.35 20.3 101.8 20.8 101.3 21.35 100.55 21.35 L88.65 21.35" fill="url(#gradient1)" fill-rule="evenodd" stroke="none"/>
  </g>
  <defs>
    <linearGradient gradientTransform="matrix(0.0, -0.0139, -0.0139, 0.0, 54.8, 12.65)" gradientUnits="userSpaceOnUse" id="gradient0" spreadMethod="pad" x1="-819.2" x2="819.2">
      <stop offset="0.0" stop-color="#ffa600"/>
      <stop offset="0.4588235294117647" stop-color="#ffa800"/>
      <stop offset="0.6274509803921569" stop-color="#ffaf01"/>
      <stop offset="0.7450980392156863" stop-color="#ffba02"/>
      <stop offset="0.8392156862745098" stop-color="#ffcb04"/>
      <stop offset="0.9215686274509803" stop-color="#ffe107"/>
      <stop offset="0.9921568627450981" stop-color="#fffc0a"/>
      <stop offset="1.0" stop-color="#ffff0a"/>
    </linearGradient>
    <linearGradient gradientTransform="matrix(0.058, 0.0, 0.0, -0.058, 54.8, 12.65)" gradientUnits="userSpaceOnUse" id="gradient1" spreadMethod="pad" x1="-819.2" x2="819.2">
      <stop offset="0.0" stop-color="#854000"/>
      <stop offset="0.25098039215686274" stop-color="#a25d00"/>
      <stop offset="0.5294117647058824" stop-color="#bd7800"/>
      <stop offset="0.6588235294117647" stop-color="#b26d00"/>
      <stop offset="0.8823529411764706" stop-color="#965100"/>
      <stop offset="1.0" stop-color="#854000"/>
    </linearGradient>
  </defs>
</svg>
