<?xml version="1.0" encoding="UTF-8" standalone="no"?>
<svg xmlns:ffdec="https://www.free-decompiler.com/flash" xmlns:xlink="http://www.w3.org/1999/xlink" ffdec:objectType="shape" height="55.4px" width="240.0px" xmlns="http://www.w3.org/2000/svg">
  <g transform="matrix(1.0, 0.0, 0.0, 1.0, 1.0, 1.0)">
    <path d="M5.0 0.0 L233.0 0.0 Q235.05 0.0 236.55 1.45 238.0 2.95 238.0 5.0 L238.0 48.4 Q238.0 50.45 236.55 51.95 235.05 53.4 233.0 53.4 L5.0 53.4 Q2.95 53.4 1.45 51.95 0.0 50.45 0.0 48.4 L0.0 5.0 Q0.0 2.95 1.45 1.45 2.95 0.0 5.0 0.0" fill="url(#gradient0)" fill-rule="evenodd" stroke="none"/>
    <path d="M5.0 0.0 L233.0 0.0 Q235.05 0.0 236.55 1.45 238.0 2.95 238.0 5.0 L238.0 48.4 Q238.0 50.45 236.55 51.95 235.05 53.4 233.0 53.4 L5.0 53.4 Q2.95 53.4 1.45 51.95 0.0 50.45 0.0 48.4 L0.0 5.0 Q0.0 2.95 1.45 1.45 2.95 0.0 5.0 0.0 Z" fill="none" stroke="#0065d1" stroke-linecap="butt" stroke-linejoin="miter-clip" stroke-miterlimit="4.0" stroke-width="2.0"/>
  </g>
  <defs>
    <linearGradient gradientTransform="matrix(0.0795, 0.0883, 0.0883, -0.0795, 119.0, 26.7)" gradientUnits="userSpaceOnUse" id="gradient0" spreadMethod="pad" x1="-819.2" x2="819.2">
      <stop offset="0.0" stop-color="#000033"/>
      <stop offset="1.0" stop-color="#004599"/>
    </linearGradient>
  </defs>
</svg>
