<?xml version="1.0" encoding="UTF-8" standalone="no"?>
<svg xmlns:ffdec="https://www.free-decompiler.com/flash" xmlns:xlink="http://www.w3.org/1999/xlink" ffdec:objectType="shape" height="56.4px" width="241.0px" xmlns="http://www.w3.org/2000/svg">
  <g transform="matrix(1.0, 0.0, 0.0, 1.0, 1.5, 1.5)">
    <path d="M5.0 -1.0 L233.0 -1.0 Q235.45 -1.0 237.25 0.75 L237.3 0.75 Q239.0 2.55 239.0 5.0 L239.0 48.4 Q239.0 50.85 237.3 52.65 L237.25 52.65 237.25 52.7 Q235.45 54.4 233.0 54.4 L5.0 54.4 Q2.55 54.4 0.75 52.7 L0.75 52.65 Q-1.0 50.85 -1.0 48.4 L-1.0 5.0 Q-1.0 2.55 0.75 0.75 2.55 -1.0 5.0 -1.0 M237.0 48.4 L237.0 5.0 Q237.0 3.35 235.85 2.2 L235.85 2.15 Q234.65 1.0 233.0 1.0 L5.0 1.0 Q3.35 1.0 2.2 2.15 L2.15 2.2 Q1.0 3.35 1.0 5.0 L1.0 48.4 Q1.0 50.05 2.15 51.25 L2.2 51.25 Q3.35 52.4 5.0 52.4 L233.0 52.4 Q234.65 52.4 235.85 51.25 237.0 50.05 237.0 48.4" fill="#1289ff" fill-rule="evenodd" stroke="none"/>
    <path d="M237.0 48.4 Q237.0 50.05 235.85 51.25 234.65 52.4 233.0 52.4 L5.0 52.4 Q3.35 52.4 2.2 51.25 L2.15 51.25 Q1.0 50.05 1.0 48.4 L1.0 5.0 Q1.0 3.35 2.15 2.2 L2.2 2.15 Q3.35 1.0 5.0 1.0 L233.0 1.0 Q234.65 1.0 235.85 2.15 L235.85 2.2 Q237.0 3.35 237.0 5.0 L237.0 48.4" fill="url(#gradient0)" fill-rule="evenodd" stroke="none"/>
    <path d="M5.0 -1.0 Q2.55 -1.0 0.75 0.75 -1.0 2.55 -1.0 5.0 L-1.0 48.4 Q-1.0 50.85 0.75 52.65 L0.75 52.7 Q2.55 54.4 5.0 54.4 L233.0 54.4 Q235.45 54.4 237.25 52.7 L237.25 52.65 237.3 52.65 Q239.0 50.85 239.0 48.4 L239.0 5.0 Q239.0 2.55 237.3 0.75 L237.25 0.75 Q235.45 -1.0 233.0 -1.0 L5.0 -1.0 Z" fill="none" stroke="#61f6eb" stroke-linecap="butt" stroke-linejoin="miter-clip" stroke-miterlimit="4.0" stroke-width="1.0"/>
  </g>
  <defs>
    <linearGradient gradientTransform="matrix(0.0, -0.033, -0.0297, 0.0, 100.55, 26.5)" gradientUnits="userSpaceOnUse" id="gradient0" spreadMethod="pad" x1="-819.2" x2="819.2">
      <stop offset="0.0" stop-color="#006bc3"/>
      <stop offset="0.03137254901960784" stop-color="#0063b9"/>
      <stop offset="0.09803921568627451" stop-color="#0057a8"/>
      <stop offset="0.1843137254901961" stop-color="#004e9d"/>
      <stop offset="0.3058823529411765" stop-color="#004896"/>
      <stop offset="0.6431372549019608" stop-color="#004794"/>
    </linearGradient>
  </defs>
</svg>
