<?xml version="1.0" encoding="UTF-8" standalone="no"?>
<svg xmlns:ffdec="https://www.free-decompiler.com/flash" xmlns:xlink="http://www.w3.org/1999/xlink" ffdec:objectType="shape" height="59.15px" width="59.15px" xmlns="http://www.w3.org/2000/svg">
  <g transform="matrix(1.0, 0.0, 0.0, 1.0, 0.0, 0.0)">
    <path d="M1.25 1.25 Q1.95 0.5 3.0 0.5 L19.2 0.5 Q21.85 0.5 22.35 1.0 23.0 1.9 26.25 1.9 L32.8 1.9 Q36.05 1.9 36.7 0.95 37.15 0.5 39.75 0.5 L56.15 0.5 Q57.2 0.5 57.95 1.25 58.65 1.95 58.65 3.0 L58.65 19.35 58.45 21.5 58.15 22.45 Q57.2 23.15 57.2 26.4 L57.2 32.9 57.35 34.7 Q57.6 36.4 58.15 36.8 58.65 37.45 58.65 39.85 L58.65 56.15 Q58.65 57.15 57.95 57.9 57.2 58.65 56.15 58.65 L39.75 58.65 Q37.2 58.65 36.65 58.1 36.3 57.55 34.55 57.3 L32.8 57.2 26.25 57.2 Q23.0 57.2 22.35 58.15 L21.35 58.45 19.2 58.65 3.0 58.65 Q1.95 58.65 1.25 57.9 0.5 57.15 0.5 56.15 L0.5 39.8 Q0.5 37.35 0.95 36.75 1.8 36.2 1.8 32.9 L1.8 26.4 Q1.8 23.1 0.95 22.5 0.5 21.9 0.5 19.4 L0.5 3.0 Q0.5 1.95 1.25 1.25" fill="#191919" fill-rule="evenodd" stroke="none"/>
    <path d="M0.65 22.9 Q0.4 22.7 0.2 21.7 L0.0 19.4 0.0 3.0 Q0.0 1.75 0.9 0.9 1.75 0.0 3.0 0.0 L19.2 0.0 21.5 0.2 Q22.55 0.4 22.75 0.7 22.95 1.0 24.0 1.2 L26.25 1.4 32.8 1.4 35.05 1.2 Q36.05 1.0 36.25 0.7 36.5 0.4 37.5 0.2 L39.75 0.0 56.15 0.0 Q57.4 0.0 58.25 0.9 59.15 1.75 59.15 3.0 L59.15 19.35 Q59.15 22.4 58.45 22.85 58.15 23.1 57.95 24.1 57.7 25.15 57.7 26.4 L57.7 32.9 Q57.7 34.15 57.95 35.2 58.15 36.2 58.45 36.4 59.15 36.85 59.15 39.85 L59.15 56.15 Q59.15 57.4 58.25 58.25 57.4 59.15 56.15 59.15 L39.75 59.15 37.5 58.95 Q36.5 58.7 36.25 58.4 36.05 58.15 35.05 57.9 L32.8 57.7 26.25 57.7 24.0 57.9 22.75 58.4 21.5 58.95 19.2 59.15 3.0 59.15 Q1.75 59.15 0.9 58.25 0.0 57.4 0.0 56.15 L0.0 39.8 0.2 37.55 Q0.4 36.55 0.65 36.35 1.3 35.95 1.3 32.9 L1.3 26.4 Q1.3 23.3 0.65 22.9 M1.6 1.6 Q1.0 2.2 1.0 3.0 L1.0 19.4 Q1.0 21.15 1.35 22.2 2.3 23.1 2.3 26.4 L2.3 32.9 Q2.3 36.25 1.35 37.1 1.0 37.7 1.0 39.8 L1.0 56.15 Q1.0 57.0 1.6 57.55 2.2 58.15 3.0 58.15 L19.2 58.15 22.0 57.75 Q22.95 56.7 26.25 56.7 L32.8 56.7 Q36.05 56.7 37.0 57.75 L39.75 58.15 56.15 58.15 Q57.0 58.15 57.55 57.55 58.15 57.0 58.15 56.15 L58.15 39.85 Q58.15 37.8 57.75 37.15 56.7 36.2 56.7 32.9 L56.7 26.4 Q56.7 23.05 57.75 22.15 58.15 21.35 58.15 19.35 L58.15 3.0 Q58.15 2.2 57.55 1.6 57.0 1.0 56.15 1.0 L39.75 1.0 37.0 1.35 Q36.1 2.4 32.8 2.4 L26.25 2.4 Q22.95 2.4 22.0 1.4 L19.2 1.0 3.0 1.0 Q2.2 1.0 1.6 1.6" fill="#111010" fill-rule="evenodd" stroke="none"/>
    <path d="M52.05 7.05 L52.05 51.95 7.1 51.95 7.1 7.05 52.05 7.05" fill="#232323" fill-rule="evenodd" stroke="none"/>
    <path d="M51.55 7.55 L7.6 7.55 7.6 51.45 51.55 51.45 51.55 7.55 M6.6 6.55 L52.55 6.55 52.55 52.45 6.6 52.45 6.6 6.55" fill="#545453" fill-rule="evenodd" stroke="none"/>
    <path d="M4.8 6.45 L4.8 11.3 3.05 11.3 3.05 5.3 5.2 3.15 11.1 3.15 11.1 4.8 6.45 4.8 4.8 6.45" fill="#757782" fill-rule="evenodd" stroke="none"/>
    <path d="M54.35 6.45 L52.7 4.8 48.05 4.8 48.05 3.15 53.95 3.15 56.1 5.3 56.1 11.3 54.35 11.3 54.35 6.45" fill="#757782" fill-rule="evenodd" stroke="none"/>
    <path d="M4.8 52.8 L6.45 54.45 11.1 54.45 11.1 56.1 5.2 56.1 3.05 53.95 3.05 47.95 4.8 47.95 4.8 52.8" fill="#757782" fill-rule="evenodd" stroke="none"/>
    <path d="M54.35 52.8 L54.35 47.95 56.1 47.95 56.1 53.95 53.95 56.1 48.05 56.1 48.05 54.45 52.7 54.45 54.35 52.8" fill="#757782" fill-rule="evenodd" stroke="none"/>
    <path d="M51.4 50.3 L50.45 51.25 46.3 47.1 47.25 46.15 51.4 50.3" fill="#666668" fill-rule="evenodd" stroke="none"/>
    <path d="M12.0 46.15 L12.95 47.1 8.8 51.25 7.85 50.3 12.0 46.15" fill="#666668" fill-rule="evenodd" stroke="none"/>
    <path d="M51.4 8.6 L47.25 12.75 46.3 11.8 50.45 7.65 51.4 8.6" fill="#666668" fill-rule="evenodd" stroke="none"/>
    <path d="M12.0 12.75 L7.85 8.6 8.8 7.65 12.95 11.8 12.0 12.75" fill="#666668" fill-rule="evenodd" stroke="none"/>
    <path d="M34.55 10.3 L48.85 10.3 48.85 24.05 47.85 26.75 47.85 31.6 48.85 34.3 48.85 48.65 34.55 48.65 31.85 47.65 26.95 47.65 24.3 48.65 10.5 48.65 10.5 34.2 11.5 31.45 11.5 26.7 10.5 23.95 10.5 10.3 24.3 10.3 26.95 11.3 31.85 11.3 34.55 10.3" fill="#161616" fill-rule="evenodd" stroke="none"/>
    <path d="M34.55 10.3 L48.85 10.3 48.85 24.05 47.85 26.75 47.85 31.6 48.85 34.3 48.85 48.65 34.55 48.65 31.85 47.65 26.95 47.65 24.3 48.65 10.5 48.65 10.5 34.2 11.5 31.45 11.5 26.7 10.5 23.95 10.5 10.3 24.3 10.3 26.95 11.3 31.85 11.3 34.55 10.3 Z" fill="none" stroke="#0c0c0c" stroke-linecap="butt" stroke-linejoin="miter-clip" stroke-miterlimit="4.0" stroke-width="1.0"/>
  </g>
</svg>
