<?xml version="1.0" encoding="UTF-8" standalone="no"?>
<svg xmlns:ffdec="https://www.free-decompiler.com/flash" xmlns:xlink="http://www.w3.org/1999/xlink" ffdec:objectType="shape" height="44.1px" width="44.15px" xmlns="http://www.w3.org/2000/svg">
  <g transform="matrix(1.0, 0.0, 0.0, 1.0, -7.5, -7.5)">
    <path d="M8.0 8.0 L51.15 8.0 51.15 51.1 8.0 51.1 8.0 8.0" fill="#252426" fill-rule="evenodd" stroke="none"/>
    <path d="M8.5 8.5 L8.5 50.6 50.65 50.6 50.65 8.5 8.5 8.5 M7.5 51.6 L7.5 7.5 51.65 7.5 51.65 51.6 7.5 51.6" fill="#191919" fill-rule="evenodd" stroke="none"/>
    <path d="M9.9 49.5 L9.3 48.85 13.4 44.75 14.05 45.35 9.9 49.5" fill="#40383d" fill-rule="evenodd" stroke="none"/>
    <path d="M9.9 49.5 L9.3 48.85 13.4 44.75 14.05 45.35 9.9 49.5 Z" fill="none" stroke="#30272b" stroke-linecap="butt" stroke-linejoin="miter-clip" stroke-miterlimit="4.0" stroke-width="1.0"/>
    <path d="M13.75 45.35 L13.75 13.7 45.4 13.7 45.4 45.35 13.75 45.35" fill="#333233" fill-rule="evenodd" stroke="none"/>
    <path d="M10.4 38.7 L7.5 40.8 7.5 18.85 10.4 21.0 10.4 38.7" fill="#0f120f" fill-rule="evenodd" stroke="none"/>
    <path d="M48.75 38.7 L48.75 21.0 51.65 18.85 51.65 40.8 48.75 38.7" fill="#0f120f" fill-rule="evenodd" stroke="none"/>
    <path d="M49.55 49.5 L45.45 45.35 46.05 44.75 50.2 48.85 49.55 49.5" fill="#403b3d" fill-rule="evenodd" stroke="none"/>
    <path d="M49.55 49.5 L50.2 48.85 46.05 44.75 45.45 45.35 49.55 49.5 Z" fill="none" stroke="#302a2b" stroke-linecap="butt" stroke-linejoin="miter-clip" stroke-miterlimit="4.0" stroke-width="1.0"/>
    <path d="M9.9 9.6 L14.05 13.7 13.4 14.35 9.3 10.2 9.9 9.6" fill="#403b3d" fill-rule="evenodd" stroke="none"/>
    <path d="M9.9 9.6 L9.3 10.2 13.4 14.35 14.05 13.7 9.9 9.6 Z" fill="none" stroke="#302a2b" stroke-linecap="butt" stroke-linejoin="miter-clip" stroke-miterlimit="4.0" stroke-width="1.0"/>
    <path d="M49.55 9.6 L50.2 10.2 46.05 14.35 45.45 13.7 49.55 9.6" fill="#403b3d" fill-rule="evenodd" stroke="none"/>
    <path d="M49.55 9.6 L50.2 10.2 46.05 14.35 45.45 13.7 49.55 9.6 Z" fill="none" stroke="#302a2b" stroke-linecap="butt" stroke-linejoin="miter-clip" stroke-miterlimit="4.0" stroke-width="1.0"/>
    <path d="M35.85 22.95 L36.9 24.0 23.45 37.5 22.4 36.45 35.85 22.95" fill="#232323" fill-rule="evenodd" stroke="none"/>
    <path d="M20.0 29.8 L18.95 28.75 28.15 19.55 29.2 20.6 20.0 29.8" fill="#232323" fill-rule="evenodd" stroke="none"/>
    <path d="M30.5 40.3 L39.7 31.1 40.75 32.15 31.55 41.35 30.5 40.3" fill="#232323" fill-rule="evenodd" stroke="none"/>
  </g>
</svg>
