<?xml version="1.0" encoding="UTF-8" standalone="no"?>
<svg xmlns:ffdec="https://www.free-decompiler.com/flash" xmlns:xlink="http://www.w3.org/1999/xlink" ffdec:objectType="shape" height="28.85px" width="23.85px" xmlns="http://www.w3.org/2000/svg">
  <g transform="matrix(1.0, 0.0, 0.0, 1.0, 12.05, 7.25)">
    <path d="M-9.8 -6.1 L-0.35 -6.6 10.05 -6.9 Q10.8 -6.75 10.75 -5.6 L10.75 -0.6 9.55 4.8 Q8.8 7.65 9.05 10.15 9.5 13.05 8.85 13.8 L7.55 15.35 Q7.4 14.9 7.05 14.95 6.6 14.95 6.2 14.45 5.65 14.05 5.55 15.15 5.35 17.0 4.4 18.15 4.65 17.45 4.0 17.05 L2.65 15.8 Q1.95 15.1 1.9 16.3 L2.1 18.65 Q1.1 18.2 0.7 19.25 0.35 20.2 0.8 21.6 0.05 21.6 -0.3 20.3 -0.7 18.75 -0.85 18.65 -1.1 18.45 -1.35 18.95 -1.6 19.4 -1.85 19.25 -3.2 13.0 -4.1 15.35 L-5.2 18.55 -5.55 17.7 Q-5.7 17.15 -6.65 16.2 -7.55 15.3 -7.75 15.55 -8.1 16.15 -8.45 16.2 -8.2 14.95 -9.15 13.55 L-10.6 11.3 Q-10.95 10.35 -10.65 9.05 L-9.95 6.5 -9.5 4.75 -9.35 2.95 Q-9.25 1.9 -9.5 -1.65 L-9.8 -6.1" fill="url(#gradient0)" fill-rule="evenodd" stroke="none"/>
    <path d="M-11.5 -5.5 Q-12.25 -5.5 -11.95 -6.3 -11.7 -7.15 -11.05 -7.15 3.85 -7.05 11.25 -7.25 12.0 -7.25 11.7 -6.45 11.45 -5.65 10.8 -5.6 3.35 -5.4 -11.5 -5.5" fill="#7a381f" fill-rule="evenodd" stroke="none"/>
    <path d="M-10.9 -6.25 Q-11.6 -6.25 -11.3 -6.5 L-10.4 -6.8 10.9 -6.85 Q11.6 -6.85 11.3 -6.55 11.0 -6.25 10.4 -6.25 L-10.9 -6.25" fill="#c79c61" fill-rule="evenodd" stroke="none"/>
  </g>
  <defs>
    <linearGradient gradientTransform="matrix(0.0, -0.0174, -0.0174, 0.0, 0.0, 7.35)" gradientUnits="userSpaceOnUse" id="gradient0" spreadMethod="pad" x1="-819.2" x2="819.2">
      <stop offset="0.0" stop-color="#006900"/>
      <stop offset="0.06666666666666667" stop-color="#45ad00"/>
      <stop offset="0.23529411764705882" stop-color="#549100"/>
      <stop offset="0.4470588235294118" stop-color="#398300"/>
      <stop offset="0.8117647058823529" stop-color="#106d00"/>
      <stop offset="1.0" stop-color="#006500"/>
    </linearGradient>
  </defs>
</svg>
