<?xml version="1.0" encoding="UTF-8" standalone="no"?>
<svg xmlns:ffdec="https://www.free-decompiler.com/flash" xmlns:xlink="http://www.w3.org/1999/xlink" ffdec:objectType="shape" height="18.75px" width="25.55px" xmlns="http://www.w3.org/2000/svg">
  <g transform="matrix(1.0, 0.0, 0.0, 1.0, 12.75, 21.65)">
    <path d="M7.45 -19.75 L8.8 -21.65 Q9.25 -18.95 6.55 -16.45 7.75 -13.85 7.75 -9.85 7.75 -9.25 6.65 -8.2 5.5 -7.1 5.4 -6.65 4.65 -3.95 3.7 -3.9 L-0.1 -4.5 -3.6 -4.0 Q-4.35 -4.0 -5.05 -6.65 L-6.3 -8.2 Q-7.4 -9.25 -7.4 -9.85 -7.4 -14.05 -6.25 -16.5 -8.9 -18.95 -8.45 -21.65 L-7.1 -19.8 Q-6.2 -18.7 -5.05 -18.4 -3.25 -20.4 -0.1 -20.45 3.3 -20.5 5.25 -18.35 6.5 -18.65 7.45 -19.75" fill="#b79a8b" fill-rule="evenodd" stroke="none"/>
    <path d="M-1.35 -3.4 Q-1.35 -2.9 -1.85 -2.9 L-2.45 -2.9 Q-2.95 -2.9 -2.95 -3.4 L-2.95 -4.1 Q-2.95 -4.6 -2.45 -4.6 L-1.85 -4.6 Q-1.35 -4.6 -1.35 -4.1 L-1.35 -3.4" fill="#ddbba8" fill-rule="evenodd" stroke="none"/>
    <path d="M0.7 -3.4 Q0.7 -2.9 0.2 -2.9 L-0.4 -2.9 Q-0.9 -2.9 -0.9 -3.4 L-0.9 -4.1 Q-0.9 -4.6 -0.4 -4.6 L0.2 -4.6 Q0.7 -4.6 0.7 -4.1 L0.7 -3.4" fill="#ddbba8" fill-rule="evenodd" stroke="none"/>
    <path d="M2.95 -3.4 Q2.95 -2.9 2.45 -2.9 L1.85 -2.9 Q1.35 -2.9 1.35 -3.4 L1.35 -4.1 Q1.35 -4.6 1.85 -4.6 L2.45 -4.6 Q2.95 -4.6 2.95 -4.1 L2.95 -3.4" fill="#ddbba8" fill-rule="evenodd" stroke="none"/>
    <path d="M6.75 -10.15 Q6.75 -9.65 5.8 -8.75 L4.7 -7.4 Q4.05 -5.05 3.25 -5.0 L-0.05 -5.5 -3.1 -5.1 Q-3.75 -5.05 -4.35 -7.4 -4.45 -7.75 -5.45 -8.75 -6.4 -9.65 -6.4 -10.15 -6.4 -19.2 -0.05 -19.35 3.5 -19.4 5.25 -16.7 6.75 -14.35 6.75 -10.15" fill="#ddbba8" fill-rule="evenodd" stroke="none"/>
    <path d="M4.0 -9.6 L2.55 -9.05 Q1.9 -9.05 1.5 -10.4 1.2 -11.8 3.4 -12.85 4.55 -13.45 5.45 -13.4 6.5 -13.4 6.55 -12.45 6.7 -11.05 6.5 -10.5 6.05 -9.05 4.0 -9.6" fill="#281a16" fill-rule="evenodd" stroke="none"/>
    <path d="M-3.5 -9.6 Q-6.1 -8.95 -6.1 -12.45 -6.05 -13.4 -4.95 -13.4 -4.1 -13.45 -2.95 -12.85 -0.75 -11.85 -1.05 -10.4 -1.45 -9.05 -2.05 -9.05 L-3.5 -9.6" fill="#281a16" fill-rule="evenodd" stroke="none"/>
    <path d="M0.0 -9.25 L0.05 -8.4 -0.15 -7.5 -0.45 -7.25 -0.85 -7.6 Q-1.0 -7.9 -0.55 -8.65 L0.0 -9.25" fill="#281a16" fill-rule="evenodd" stroke="none"/>
    <path d="M0.45 -9.25 L1.05 -8.65 Q1.45 -7.9 1.3 -7.6 L0.9 -7.25 Q0.7 -7.2 0.6 -7.5 L0.4 -8.4 Q0.3 -9.1 0.45 -9.25" fill="#281a16" fill-rule="evenodd" stroke="none"/>
    <path d="M12.8 -5.8 L12.25 -5.8 12.25 -7.0 12.8 -7.0 12.8 -5.8" fill="url(#gradient0)" fill-rule="evenodd" stroke="none"/>
    <path d="M12.25 -7.65 L12.25 -5.2 10.9 -5.2 10.9 -7.65 12.25 -7.65" fill="url(#gradient1)" fill-rule="evenodd" stroke="none"/>
    <path d="M-12.2 -5.8 L-12.75 -5.8 -12.75 -7.0 -12.2 -7.0 -12.2 -5.8" fill="url(#gradient2)" fill-rule="evenodd" stroke="none"/>
    <path d="M-10.8 -7.65 L-10.8 -5.2 -12.2 -5.2 -12.2 -7.65 -10.8 -7.65" fill="url(#gradient3)" fill-rule="evenodd" stroke="none"/>
    <path d="M2.2 -17.5 Q2.3 -16.95 1.45 -16.95 L-0.7 -16.85 Q-1.25 -16.75 -2.65 -16.1 -3.5 -15.75 -3.6 -16.25 -3.75 -17.0 -3.0 -17.75 -2.25 -18.55 -1.1 -18.8 L1.1 -18.6 Q2.05 -18.2 2.2 -17.5" fill="url(#gradient4)" fill-rule="evenodd" stroke="none"/>
  </g>
  <defs>
    <linearGradient gradientTransform="matrix(0.0, -7.0E-4, -7.0E-4, 0.0, 12.55, -6.4)" gradientUnits="userSpaceOnUse" id="gradient0" spreadMethod="pad" x1="-819.2" x2="819.2">
      <stop offset="0.00392156862745098" stop-color="#8f4f1a"/>
      <stop offset="0.23529411764705882" stop-color="#6b331a"/>
      <stop offset="0.27450980392156865" stop-color="#753b1a"/>
      <stop offset="0.592156862745098" stop-color="#c0771a"/>
      <stop offset="0.7411764705882353" stop-color="#de8f1a"/>
      <stop offset="1.0" stop-color="#6b331a"/>
    </linearGradient>
    <linearGradient gradientTransform="matrix(0.0, -0.0015, -0.0015, 0.0, 11.6, -6.4)" gradientUnits="userSpaceOnUse" id="gradient1" spreadMethod="pad" x1="-819.2" x2="819.2">
      <stop offset="0.0" stop-color="#eea91a"/>
      <stop offset="0.25098039215686274" stop-color="#9a5e1a"/>
      <stop offset="0.7411764705882353" stop-color="#ffb81a"/>
      <stop offset="1.0" stop-color="#b2731a"/>
    </linearGradient>
    <linearGradient gradientTransform="matrix(0.0, -7.0E-4, -7.0E-4, 0.0, -12.45, -6.4)" gradientUnits="userSpaceOnUse" id="gradient2" spreadMethod="pad" x1="-819.2" x2="819.2">
      <stop offset="0.00392156862745098" stop-color="#8f4f1a"/>
      <stop offset="0.23529411764705882" stop-color="#6b331a"/>
      <stop offset="0.27450980392156865" stop-color="#753b1a"/>
      <stop offset="0.592156862745098" stop-color="#c0771a"/>
      <stop offset="0.7411764705882353" stop-color="#de8f1a"/>
      <stop offset="1.0" stop-color="#6b331a"/>
    </linearGradient>
    <linearGradient gradientTransform="matrix(0.0, -0.0015, -0.0015, 0.0, -11.5, -6.4)" gradientUnits="userSpaceOnUse" id="gradient3" spreadMethod="pad" x1="-819.2" x2="819.2">
      <stop offset="0.0" stop-color="#eea91a"/>
      <stop offset="0.25098039215686274" stop-color="#9a5e1a"/>
      <stop offset="0.7411764705882353" stop-color="#ffb81a"/>
      <stop offset="1.0" stop-color="#b2731a"/>
    </linearGradient>
    <linearGradient gradientTransform="matrix(0.001, 0.0017, 0.0017, -0.001, -0.9, -17.2)" gradientUnits="userSpaceOnUse" id="gradient4" spreadMethod="pad" x1="-819.2" x2="819.2">
      <stop offset="0.0" stop-color="#e8e6c2"/>
      <stop offset="1.0" stop-color="#e8e6c2" stop-opacity="0.0"/>
    </linearGradient>
  </defs>
</svg>
