<?xml version="1.0" encoding="UTF-8" standalone="no"?>
<svg xmlns:ffdec="https://www.free-decompiler.com/flash" xmlns:xlink="http://www.w3.org/1999/xlink" ffdec:objectType="shape" height="18.75px" width="25.6px" xmlns="http://www.w3.org/2000/svg">
  <g transform="matrix(1.0, 0.0, 0.0, 1.0, 0.0, 0.0)">
    <path d="M12.7 1.2 Q16.05 1.15 18.05 3.3 19.3 3.0 20.2 1.9 L21.55 0.0 Q22.0 2.8 19.3 5.2 20.55 7.9 20.55 11.8 20.55 12.45 19.45 13.45 L18.15 15.0 Q17.45 17.7 16.5 17.75 L12.7 17.2 9.15 17.65 Q8.4 17.65 7.7 15.0 L6.45 13.45 Q5.35 12.4 5.35 11.8 5.35 7.75 6.5 5.15 3.9 2.75 4.35 0.0 L5.65 1.85 Q6.55 2.95 7.7 3.25 9.5 1.25 12.7 1.2" fill="#b79a8b" fill-rule="evenodd" stroke="none"/>
    <path d="M11.4 18.25 Q11.4 18.75 10.9 18.75 L10.35 18.75 Q9.85 18.75 9.85 18.25 L9.85 17.55 Q9.85 17.05 10.35 17.05 L10.9 17.05 Q11.4 17.05 11.4 17.55 L11.4 18.25" fill="#ddbba8" fill-rule="evenodd" stroke="none"/>
    <path d="M13.45 18.25 Q13.45 18.75 12.95 18.75 L12.4 18.75 Q11.9 18.75 11.9 18.25 L11.9 17.55 Q11.9 17.05 12.4 17.05 L12.95 17.05 Q13.45 17.05 13.45 17.55 L13.45 18.25" fill="#ddbba8" fill-rule="evenodd" stroke="none"/>
    <path d="M15.7 18.25 Q15.7 18.75 15.2 18.75 L14.65 18.75 Q14.15 18.75 14.15 18.25 L14.15 17.55 Q14.15 17.05 14.65 17.05 L15.2 17.05 Q15.7 17.05 15.7 17.55 L15.7 18.25" fill="#ddbba8" fill-rule="evenodd" stroke="none"/>
    <path d="M19.55 11.5 Q19.55 12.0 18.6 12.9 17.55 13.9 17.45 14.3 16.85 16.65 16.0 16.65 L12.75 16.15 9.65 16.55 Q9.0 16.6 8.4 14.25 L7.3 12.9 Q6.35 12.0 6.35 11.5 6.35 2.45 12.75 2.3 16.3 2.25 18.05 4.95 19.55 7.3 19.55 11.5" fill="#ddbba8" fill-rule="evenodd" stroke="none"/>
    <path d="M16.75 12.05 L15.3 12.6 Q14.7 12.6 14.3 11.25 14.0 9.8 16.2 8.8 17.35 8.2 18.25 8.25 19.3 8.25 19.35 9.2 L19.25 11.15 Q18.75 12.6 16.75 12.05" fill="#281a16" fill-rule="evenodd" stroke="none"/>
    <path d="M9.25 12.05 Q6.65 12.75 6.65 9.2 6.75 8.25 7.8 8.25 8.7 8.2 9.85 8.8 12.05 9.85 11.75 11.25 11.35 12.6 10.75 12.6 L9.25 12.05" fill="#281a16" fill-rule="evenodd" stroke="none"/>
    <path d="M12.75 12.4 Q13.05 12.8 12.65 14.2 L12.35 14.45 11.9 14.05 Q11.75 13.75 12.2 13.0 12.6 12.3 12.75 12.4" fill="#281a16" fill-rule="evenodd" stroke="none"/>
    <path d="M13.25 12.4 L13.85 13.0 Q14.25 13.75 14.1 14.05 L13.65 14.45 13.35 14.2 Q12.95 12.8 13.25 12.4" fill="#281a16" fill-rule="evenodd" stroke="none"/>
    <path d="M25.6 15.85 L25.0 15.85 25.0 14.65 25.6 14.65 25.6 15.85" fill="url(#gradient0)" fill-rule="evenodd" stroke="none"/>
    <path d="M25.05 16.45 L23.7 16.45 23.7 14.05 25.05 14.05 25.05 16.45" fill="url(#gradient1)" fill-rule="evenodd" stroke="none"/>
    <path d="M0.6 15.85 L0.0 15.85 0.0 14.65 0.6 14.65 0.6 15.85" fill="url(#gradient2)" fill-rule="evenodd" stroke="none"/>
    <path d="M2.0 16.45 L0.6 16.45 0.6 14.05 2.0 14.05 2.0 16.45" fill="url(#gradient3)" fill-rule="evenodd" stroke="none"/>
    <path d="M14.95 4.2 Q15.05 4.7 14.2 4.7 L12.05 4.8 10.1 5.6 Q9.25 5.95 9.15 5.4 9.0 4.65 9.75 3.9 10.5 3.1 11.7 2.85 L13.85 3.05 Q14.8 3.45 14.95 4.2" fill="url(#gradient4)" fill-rule="evenodd" stroke="none"/>
  </g>
  <defs>
    <linearGradient gradientTransform="matrix(0.0, -7.0E-4, -7.0E-4, 0.0, 25.3, 15.25)" gradientUnits="userSpaceOnUse" id="gradient0" spreadMethod="pad" x1="-819.2" x2="819.2">
      <stop offset="0.00392156862745098" stop-color="#8f4f1a"/>
      <stop offset="0.23529411764705882" stop-color="#6b331a"/>
      <stop offset="0.27450980392156865" stop-color="#753b1a"/>
      <stop offset="0.592156862745098" stop-color="#c0771a"/>
      <stop offset="0.7411764705882353" stop-color="#de8f1a"/>
      <stop offset="1.0" stop-color="#6b331a"/>
    </linearGradient>
    <linearGradient gradientTransform="matrix(0.0, -0.0015, -0.0015, 0.0, 24.35, 15.25)" gradientUnits="userSpaceOnUse" id="gradient1" spreadMethod="pad" x1="-819.2" x2="819.2">
      <stop offset="0.0" stop-color="#eea91a"/>
      <stop offset="0.25098039215686274" stop-color="#9a5e1a"/>
      <stop offset="0.7411764705882353" stop-color="#ffb81a"/>
      <stop offset="1.0" stop-color="#b2731a"/>
    </linearGradient>
    <linearGradient gradientTransform="matrix(0.0, -7.0E-4, -7.0E-4, 0.0, 0.3, 15.25)" gradientUnits="userSpaceOnUse" id="gradient2" spreadMethod="pad" x1="-819.2" x2="819.2">
      <stop offset="0.00392156862745098" stop-color="#8f4f1a"/>
      <stop offset="0.23529411764705882" stop-color="#6b331a"/>
      <stop offset="0.27450980392156865" stop-color="#753b1a"/>
      <stop offset="0.592156862745098" stop-color="#c0771a"/>
      <stop offset="0.7411764705882353" stop-color="#de8f1a"/>
      <stop offset="1.0" stop-color="#6b331a"/>
    </linearGradient>
    <linearGradient gradientTransform="matrix(0.0, -0.0015, -0.0015, 0.0, 1.3, 15.25)" gradientUnits="userSpaceOnUse" id="gradient3" spreadMethod="pad" x1="-819.2" x2="819.2">
      <stop offset="0.0" stop-color="#eea91a"/>
      <stop offset="0.25098039215686274" stop-color="#9a5e1a"/>
      <stop offset="0.7411764705882353" stop-color="#ffb81a"/>
      <stop offset="1.0" stop-color="#b2731a"/>
    </linearGradient>
    <linearGradient gradientTransform="matrix(0.001, 0.0017, 0.0017, -0.001, 11.85, 4.45)" gradientUnits="userSpaceOnUse" id="gradient4" spreadMethod="pad" x1="-819.2" x2="819.2">
      <stop offset="0.0" stop-color="#e8e6c2"/>
      <stop offset="1.0" stop-color="#e8e6c2" stop-opacity="0.0"/>
    </linearGradient>
  </defs>
</svg>
