<?xml version="1.0" encoding="UTF-8" standalone="no"?>
<svg xmlns:ffdec="https://www.free-decompiler.com/flash" xmlns:xlink="http://www.w3.org/1999/xlink" ffdec:objectType="shape" height="49.75px" width="49.75px" xmlns="http://www.w3.org/2000/svg">
  <g transform="matrix(1.0, 0.0, 0.0, 1.0, 0.0, 0.0)">
    <path d="M42.45 7.25 Q49.75 14.55 49.75 24.85 49.75 35.15 42.45 42.45 35.2 49.75 24.9 49.75 14.6 49.75 7.3 42.45 0.0 35.15 0.0 24.85 0.0 14.55 7.3 7.25 14.6 0.0 24.9 0.0 35.2 0.0 42.45 7.25 M40.55 40.5 Q47.05 34.05 47.05 24.85 47.05 15.65 40.55 9.2 34.05 2.7 24.9 2.7 15.7 2.7 9.2 9.2 2.7 15.65 2.7 24.85 2.7 34.05 9.2 40.5 15.7 47.0 24.9 47.0 34.05 47.0 40.55 40.5" fill="#094b8c" fill-opacity="0.8" fill-rule="evenodd" stroke="none"/>
  </g>
</svg>
