<?xml version="1.0" encoding="UTF-8" standalone="no"?>
<svg xmlns:ffdec="https://www.free-decompiler.com/flash" xmlns:xlink="http://www.w3.org/1999/xlink" ffdec:objectType="shape" height="29.8px" width="24.1px" xmlns="http://www.w3.org/2000/svg">
  <g transform="matrix(1.0, 0.0, 0.0, 1.0, 0.0, 0.0)">
    <path d="M12.05 27.3 Q10.0 26.45 7.95 26.05 4.55 25.4 2.9 26.4 2.5 24.85 2.5 21.45 2.5 13.8 12.05 7.6 21.6 13.8 21.6 21.45 21.6 24.85 21.2 26.4 19.55 25.4 16.1 26.05 13.9 26.5 12.05 27.3" fill="url(#gradient0)" fill-rule="evenodd" stroke="none"/>
    <path d="M12.05 7.6 Q2.5 13.8 2.5 21.45 2.5 24.85 2.9 26.4 3.9 25.8 5.55 25.8 8.5 25.8 12.05 27.3 13.15 26.8 14.65 26.4 L18.55 25.8 Q20.2 25.8 21.2 26.4 21.6 24.85 21.6 21.45 21.6 13.8 12.05 7.6 M12.05 6.6 Q13.9 6.6 17.9 11.05 22.6 16.25 22.6 21.45 22.6 25.05 22.15 26.65 L21.8 27.9 20.7 27.25 Q19.9 26.8 18.55 26.8 15.6 26.8 12.45 28.2 L12.05 28.35 11.65 28.2 Q8.4 26.8 5.55 26.8 4.2 26.8 3.45 27.25 L2.3 27.9 1.95 26.65 Q1.5 25.05 1.5 21.45 1.5 16.15 6.2 10.95 10.15 6.6 12.05 6.6" fill="#564949" fill-rule="evenodd" stroke="none"/>
    <path d="M12.05 1.1 Q12.8 1.4 16.75 5.0 20.8 8.2 22.6 7.1 23.1 8.9 23.1 12.85 23.1 21.65 12.05 28.8 1.0 21.65 1.0 12.85 1.0 8.9 1.5 7.1 3.3 8.2 7.3 5.0 L12.05 1.1" fill="url(#gradient1)" fill-rule="evenodd" stroke="none"/>
    <path d="M23.1 12.85 Q23.1 8.9 22.6 7.1 L21.5 7.4 Q19.6 7.4 16.05 4.45 L12.05 1.1 8.0 4.45 Q4.5 7.4 2.6 7.4 L1.5 7.1 Q1.0 8.9 1.0 12.85 1.0 21.65 12.05 28.8 23.1 21.65 23.1 12.85 M21.5 6.4 L22.1 6.25 23.2 5.6 23.55 6.85 Q24.1 8.9 24.1 12.85 24.1 18.75 18.75 24.7 14.15 29.8 12.05 29.8 9.95 29.8 5.35 24.7 0.0 18.75 0.0 12.85 0.0 8.9 0.55 6.85 L0.9 5.6 2.0 6.25 2.6 6.4 Q3.75 6.4 5.8 4.9 L9.1 2.15 Q11.05 0.4 11.65 0.15 L12.05 0.0 12.45 0.15 Q13.15 0.5 14.85 2.05 19.75 6.4 21.5 6.4" fill="#564949" fill-rule="evenodd" stroke="none"/>
    <path d="M19.3 9.85 L19.55 13.85 Q19.55 20.75 12.05 26.3 4.5 20.75 4.5 13.85 4.5 11.1 4.75 9.85 L6.45 9.9 Q7.7 10.0 9.7 8.45 L12.05 6.6 14.3 8.45 Q16.3 10.0 17.6 9.9 L19.3 9.85" fill="#b5a69f" fill-rule="evenodd" stroke="none"/>
    <path d="M18.15 14.5 Q18.15 20.15 12.05 24.7 5.9 20.15 5.9 14.5 L6.1 11.25 7.45 11.3 Q9.15 11.45 12.05 10.2 14.5 11.4 16.6 11.3 L17.95 11.25 18.15 14.5" fill="#665656" fill-rule="evenodd" stroke="none"/>
  </g>
  <defs>
    <linearGradient gradientTransform="matrix(0.0, -0.012, 0.012, 0.0, 12.05, 17.45)" gradientUnits="userSpaceOnUse" id="gradient0" spreadMethod="pad" x1="-819.2" x2="819.2">
      <stop offset="0.0" stop-color="#ffdbf0"/>
      <stop offset="1.0" stop-color="#ffffd6"/>
    </linearGradient>
    <linearGradient gradientTransform="matrix(0.0, -0.0169, -0.0169, 0.0, 12.05, 14.95)" gradientUnits="userSpaceOnUse" id="gradient1" spreadMethod="pad" x1="-819.2" x2="819.2">
      <stop offset="0.0" stop-color="#ffdbf0"/>
      <stop offset="1.0" stop-color="#ffffd6"/>
    </linearGradient>
  </defs>
</svg>
