<?xml version="1.0" encoding="UTF-8" standalone="no"?>
<svg xmlns:ffdec="https://www.free-decompiler.com/flash" xmlns:xlink="http://www.w3.org/1999/xlink" ffdec:objectType="shape" height="29.8px" width="24.15px" xmlns="http://www.w3.org/2000/svg">
  <g transform="matrix(1.0, 0.0, 0.0, 1.0, 0.0, 0.0)">
    <path d="M23.15 12.85 Q23.15 9.1 22.6 7.1 L21.55 7.4 Q19.65 7.4 16.1 4.45 L12.05 1.1 8.0 4.45 Q4.5 7.4 2.6 7.4 L1.5 7.1 Q1.0 9.1 1.0 12.85 1.0 21.65 12.05 28.8 23.15 21.65 23.15 12.85 M21.55 6.4 L22.1 6.25 23.25 5.6 23.6 6.85 Q24.15 8.9 24.15 12.85 24.15 18.75 18.8 24.7 14.2 29.8 12.05 29.8 9.95 29.8 5.35 24.7 0.0 18.75 0.0 12.85 0.0 8.9 0.55 6.85 L0.9 5.6 2.05 6.25 2.6 6.4 Q4.4 6.4 9.15 2.15 11.0 0.45 11.7 0.15 L12.1 0.0 12.45 0.2 14.85 2.05 Q19.75 6.4 21.55 6.4" fill="#02071e" fill-rule="evenodd" stroke="none"/>
  </g>
</svg>
