<?xml version="1.0" encoding="UTF-8" standalone="no"?>
<svg xmlns:ffdec="https://www.free-decompiler.com/flash" xmlns:xlink="http://www.w3.org/1999/xlink" ffdec:objectType="shape" height="19.7px" width="15.05px" xmlns="http://www.w3.org/2000/svg">
  <g transform="matrix(1.0, 0.0, 0.0, 1.0, -4.5, -6.6)">
    <path d="M19.3 9.85 L19.55 13.85 Q19.55 20.75 12.05 26.3 4.5 20.75 4.5 13.85 4.5 11.4 4.75 9.85 L6.45 9.9 Q7.75 10.0 9.75 8.45 L12.05 6.6 14.3 8.45 Q16.3 10.0 17.6 9.9 L19.3 9.85" fill="#066f8c" fill-rule="evenodd" stroke="none"/>
    <path d="M12.05 10.2 L13.9 10.95 16.6 11.3 18.0 11.25 18.2 14.5 Q18.2 20.15 12.05 24.7 5.9 20.15 5.9 14.5 L6.1 11.25 7.5 11.3 Q9.65 11.5 12.05 10.2" fill="#044447" fill-rule="evenodd" stroke="none"/>
  </g>
</svg>
