<?xml version="1.0" encoding="UTF-8" standalone="no"?>
<svg xmlns:ffdec="https://www.free-decompiler.com/flash" xmlns:xlink="http://www.w3.org/1999/xlink" ffdec:objectType="shape" height="48.75px" width="134.15px" xmlns="http://www.w3.org/2000/svg">
  <g transform="matrix(1.0, 0.0, 0.0, 1.0, 0.0, 0.0)">
    <path d="M133.15 44.15 Q133.15 45.65 132.0 46.75 130.8 47.8 129.15 47.8 L5.0 47.8 Q3.35 47.8 2.2 46.75 1.0 45.65 1.0 44.15 L1.0 4.6 Q1.0 3.1 2.2 2.05 3.35 0.9 5.0 0.9 L129.15 0.9 Q130.8 0.9 132.0 2.05 133.15 3.1 133.15 4.6 L133.15 44.15" fill="url(#gradient0)" fill-rule="evenodd" stroke="none"/>
    <path d="M133.15 44.15 Q133.15 45.65 132.0 46.75 130.8 47.8 129.15 47.8 L5.0 47.8 Q3.35 47.8 2.2 46.75 1.0 45.65 1.0 44.15 L1.0 4.6 Q1.0 3.1 2.2 2.05 3.35 0.9 5.0 0.9 L129.15 0.9 Q130.8 0.9 132.0 2.05 133.15 3.1 133.15 4.6 L133.15 44.15 Z" fill="none" stroke="#fa9938" stroke-linecap="round" stroke-linejoin="miter-clip" stroke-miterlimit="3.0" stroke-width="1.0"/>
    <path d="M132.7 1.35 Q134.15 2.75 134.15 4.6 L134.15 44.15 Q134.15 46.0 132.7 47.4 131.2 48.75 129.15 48.75 L5.0 48.75 Q2.95 48.75 1.45 47.4 0.0 46.0 0.0 44.15 L0.0 4.6 Q0.0 2.75 1.45 1.35 2.95 0.0 5.0 0.0 L129.15 0.0 Q131.2 0.0 132.7 1.35 M132.15 4.6 Q132.15 3.45 131.25 2.7 130.4 1.85 129.15 1.85 L5.0 1.85 Q3.75 1.85 2.9 2.7 2.0 3.45 2.0 4.6 L2.0 44.15 Q2.0 45.3 2.9 46.05 3.75 46.9 5.0 46.9 L129.15 46.9 Q130.4 46.9 131.25 46.05 132.15 45.3 132.15 44.15 L132.15 4.6" fill="#fa9938" fill-rule="evenodd" stroke="none"/>
    <path d="M100.95 43.2 L104.9 47.15 29.25 47.15 33.2 43.2 100.95 43.2" fill="#fb8815" fill-rule="evenodd" stroke="none"/>
    <path d="M100.95 43.2 L33.2 43.2 29.25 47.15 104.9 47.15 100.95 43.2 Z" fill="none" stroke="#fa9938" stroke-linecap="butt" stroke-linejoin="miter-clip" stroke-miterlimit="4.0" stroke-width="1.0"/>
    <path d="M100.95 5.8 L33.2 5.8 29.25 1.85 104.9 1.85 100.95 5.8" fill="#fb8815" fill-rule="evenodd" stroke="none"/>
    <path d="M100.95 5.8 L33.2 5.8 29.25 1.85 104.9 1.85 100.95 5.8 Z" fill="none" stroke="#fa9938" stroke-linecap="butt" stroke-linejoin="miter-clip" stroke-miterlimit="4.0" stroke-width="1.0"/>
  </g>
  <defs>
    <radialGradient cx="0" cy="0" fx="3.2" fy="0" gradientTransform="matrix(0.1757, 0.0, 0.0, 0.0871, 71.5, 66.55)" gradientUnits="userSpaceOnUse" id="gradient0" r="819.2" spreadMethod="pad">
      <stop offset="0.0" stop-color="#982e00"/>
      <stop offset="0.25882352941176473" stop-color="#9f3800"/>
      <stop offset="0.5843137254901961" stop-color="#ab4901"/>
      <stop offset="0.7607843137254902" stop-color="#bb6002"/>
      <stop offset="0.996078431372549" stop-color="#d07f03"/>
      <stop offset="1.0" stop-color="#d18003"/>
    </radialGradient>
  </defs>
</svg>
