<?xml version="1.0" encoding="UTF-8" standalone="no"?>
<svg xmlns:ffdec="https://www.free-decompiler.com/flash" xmlns:xlink="http://www.w3.org/1999/xlink" ffdec:objectType="shape" height="23.2px" width="33.8px" xmlns="http://www.w3.org/2000/svg">
  <g transform="matrix(1.0, 0.0, 0.0, 1.0, 0.0, -10.6)">
    <path d="M33.8 22.35 L33.0 22.35 33.0 20.8 33.8 20.8 33.8 22.35" fill="url(#gradient0)" fill-rule="evenodd" stroke="none"/>
    <path d="M33.05 23.2 L31.25 23.2 31.25 20.0 33.05 20.0 33.05 23.2" fill="url(#gradient1)" fill-rule="evenodd" stroke="none"/>
    <path d="M0.75 22.35 L0.0 22.35 0.0 20.8 0.75 20.8 0.75 22.35" fill="url(#gradient2)" fill-rule="evenodd" stroke="none"/>
    <path d="M2.55 23.2 L0.75 23.2 0.75 20.0 2.55 20.0 2.55 23.2" fill="url(#gradient3)" fill-rule="evenodd" stroke="none"/>
    <path d="M20.95 17.4 Q24.65 21.45 24.65 25.45 24.65 28.05 24.25 29.5 22.95 28.75 20.05 31.0 L16.75 33.8 13.35 31.0 Q10.5 28.75 9.2 29.5 8.85 28.25 8.85 25.45 8.85 21.4 12.55 17.4 15.6 14.05 16.75 14.05 17.85 14.05 20.95 17.4" fill="#044447" fill-rule="evenodd" stroke="none"/>
    <path d="M5.5 15.45 L7.8 12.1 24.9 12.1 27.25 15.45 27.25 27.85 5.5 27.85 5.5 15.45" fill="url(#gradient4)" fill-rule="evenodd" stroke="none"/>
    <path d="M5.5 15.45 L5.5 27.85 27.25 27.85 27.25 15.45 24.9 12.1 7.8 12.1 5.5 15.45 Z" fill="none" stroke="#02071e" stroke-linecap="butt" stroke-linejoin="miter-clip" stroke-miterlimit="4.0" stroke-opacity="0.8" stroke-width="1.0"/>
    <path d="M7.65 16.35 L9.5 13.7 23.2 13.7 25.1 16.35 25.1 26.3 7.65 26.3 7.65 16.35" fill="#066f8c" fill-rule="evenodd" stroke="none"/>
    <path d="M9.25 17.0 L10.75 14.85 21.95 14.85 23.5 17.0 23.5 25.15 9.25 25.15 9.25 17.0" fill="#044447" fill-rule="evenodd" stroke="none"/>
    <path d="M24.9 10.6 Q25.45 10.6 25.25 11.2 25.0 11.8 24.55 11.8 L8.1 11.9 Q7.55 11.85 7.75 11.3 8.0 10.7 8.45 10.7 L24.9 10.6" fill="#7a381f" fill-rule="evenodd" stroke="none"/>
    <path d="M24.65 10.9 Q25.15 10.9 24.95 11.15 L24.3 11.35 8.55 11.35 Q8.05 11.35 8.25 11.15 L8.9 10.95 24.65 10.9" fill="#c79c61" fill-rule="evenodd" stroke="none"/>
  </g>
  <defs>
    <linearGradient gradientTransform="matrix(0.0, -0.001, -0.001, 0.0, 33.4, 21.6)" gradientUnits="userSpaceOnUse" id="gradient0" spreadMethod="pad" x1="-819.2" x2="819.2">
      <stop offset="0.00392156862745098" stop-color="#8f4f1a"/>
      <stop offset="0.23529411764705882" stop-color="#6b331a"/>
      <stop offset="0.27450980392156865" stop-color="#753b1a"/>
      <stop offset="0.592156862745098" stop-color="#c0771a"/>
      <stop offset="0.7411764705882353" stop-color="#de8f1a"/>
      <stop offset="1.0" stop-color="#6b331a"/>
    </linearGradient>
    <linearGradient gradientTransform="matrix(0.0, -0.0019, -0.0019, 0.0, 32.15, 21.6)" gradientUnits="userSpaceOnUse" id="gradient1" spreadMethod="pad" x1="-819.2" x2="819.2">
      <stop offset="0.0" stop-color="#eea91a"/>
      <stop offset="0.25098039215686274" stop-color="#9a5e1a"/>
      <stop offset="0.7411764705882353" stop-color="#ffb81a"/>
      <stop offset="1.0" stop-color="#b2731a"/>
    </linearGradient>
    <linearGradient gradientTransform="matrix(0.0, -0.001, -0.001, 0.0, 0.35, 21.6)" gradientUnits="userSpaceOnUse" id="gradient2" spreadMethod="pad" x1="-819.2" x2="819.2">
      <stop offset="0.00392156862745098" stop-color="#8f4f1a"/>
      <stop offset="0.23529411764705882" stop-color="#6b331a"/>
      <stop offset="0.27450980392156865" stop-color="#753b1a"/>
      <stop offset="0.592156862745098" stop-color="#c0771a"/>
      <stop offset="0.7411764705882353" stop-color="#de8f1a"/>
      <stop offset="1.0" stop-color="#6b331a"/>
    </linearGradient>
    <linearGradient gradientTransform="matrix(0.0, -0.0019, -0.0019, 0.0, 1.65, 21.6)" gradientUnits="userSpaceOnUse" id="gradient3" spreadMethod="pad" x1="-819.2" x2="819.2">
      <stop offset="0.0" stop-color="#eea91a"/>
      <stop offset="0.25098039215686274" stop-color="#9a5e1a"/>
      <stop offset="0.7411764705882353" stop-color="#ffb81a"/>
      <stop offset="1.0" stop-color="#b2731a"/>
    </linearGradient>
    <linearGradient gradientTransform="matrix(0.0, 0.0096, 0.0096, 0.0, 16.4, 20.0)" gradientUnits="userSpaceOnUse" id="gradient4" spreadMethod="pad" x1="-819.2" x2="819.2">
      <stop offset="0.0" stop-color="#0066ff"/>
      <stop offset="0.10588235294117647" stop-color="#008dff"/>
      <stop offset="0.2196078431372549" stop-color="#00b0ff"/>
      <stop offset="0.34509803921568627" stop-color="#00cdff"/>
      <stop offset="0.4745098039215686" stop-color="#00e3ff"/>
      <stop offset="0.615686274509804" stop-color="#00f3ff"/>
      <stop offset="0.7764705882352941" stop-color="#00fcff"/>
      <stop offset="1.0" stop-color="#00ffff"/>
    </linearGradient>
  </defs>
</svg>
