<?xml version="1.0" encoding="UTF-8" standalone="no"?>
<svg xmlns:ffdec="https://www.free-decompiler.com/flash" xmlns:xlink="http://www.w3.org/1999/xlink" ffdec:objectType="shape" height="13.8px" width="18.85px" xmlns="http://www.w3.org/2000/svg">
  <g transform="matrix(1.0, 0.0, 0.0, 1.0, -7.2, 0.0)">
    <path d="M23.05 0.0 Q23.45 2.0 21.4 3.85 22.3 5.65 22.3 8.7 22.3 9.15 21.5 9.9 20.65 10.7 20.55 11.05 20.05 13.05 19.35 13.05 L16.55 12.65 13.95 13.0 Q13.4 13.0 12.85 11.05 12.75 10.7 11.9 9.9 11.1 9.15 11.1 8.7 11.1 5.65 11.95 3.75 10.0 2.0 10.4 0.0 L11.35 1.35 Q12.0 2.15 12.85 2.4 14.15 0.9 16.55 0.85 18.95 0.85 20.5 2.4 21.45 2.2 22.1 1.4 L23.05 0.0" fill="#b79a8b" fill-rule="evenodd" stroke="none"/>
    <path d="M15.6 13.45 Q15.6 13.8 15.2 13.8 L14.8 13.8 Q14.4 13.8 14.4 13.45 L14.4 12.9 Q14.4 12.55 14.8 12.55 L15.2 12.55 Q15.6 12.55 15.6 12.9 L15.6 13.45" fill="#ddbba8" fill-rule="evenodd" stroke="none"/>
    <path d="M17.1 13.45 L16.75 13.8 16.3 13.8 Q15.95 13.8 15.95 13.45 L15.95 12.9 Q15.95 12.55 16.3 12.55 L16.75 12.55 Q17.1 12.55 17.1 12.9 L17.1 13.45" fill="#ddbba8" fill-rule="evenodd" stroke="none"/>
    <path d="M18.75 13.45 L18.4 13.8 17.95 13.8 Q17.6 13.8 17.6 13.45 L17.6 12.9 Q17.6 12.55 17.95 12.55 L18.4 12.55 Q18.75 12.55 18.75 12.9 L18.75 13.45" fill="#ddbba8" fill-rule="evenodd" stroke="none"/>
    <path d="M11.85 8.45 Q11.85 1.75 16.55 1.7 21.55 1.65 21.55 8.45 L20.9 9.5 20.05 10.5 Q19.6 12.25 19.0 12.25 L16.55 11.9 14.3 12.2 Q13.85 12.2 13.4 10.5 L12.55 9.5 Q11.85 8.85 11.85 8.45" fill="#ddbba8" fill-rule="evenodd" stroke="none"/>
    <path d="M19.55 8.85 L18.45 9.25 Q18.0 9.3 17.7 8.3 17.55 7.65 18.0 7.2 L19.1 6.45 20.6 6.05 Q21.4 6.05 21.45 6.75 L21.4 8.2 Q21.05 9.3 19.55 8.85" fill="#281a16" fill-rule="evenodd" stroke="none"/>
    <path d="M14.0 8.85 Q12.1 9.35 12.1 6.75 12.15 6.05 12.95 6.05 L14.45 6.45 Q16.0 7.3 15.85 8.3 15.55 9.3 15.1 9.25 L14.0 8.85" fill="#281a16" fill-rule="evenodd" stroke="none"/>
    <path d="M16.6 9.15 L16.65 9.75 16.5 10.45 Q16.25 10.9 15.95 10.35 15.8 10.1 16.15 9.6 16.45 9.05 16.6 9.15" fill="#281a16" fill-rule="evenodd" stroke="none"/>
    <path d="M16.95 9.15 L17.35 9.6 Q17.7 10.1 17.55 10.35 L17.25 10.6 17.05 10.45 16.9 9.75 Q16.85 9.25 16.95 9.15" fill="#281a16" fill-rule="evenodd" stroke="none"/>
    <path d="M26.05 11.65 L25.65 11.65 25.65 10.75 26.05 10.75 26.05 11.65" fill="url(#gradient0)" fill-rule="evenodd" stroke="none"/>
    <path d="M25.65 12.1 L24.65 12.1 24.65 10.3 25.65 10.3 25.65 12.1" fill="url(#gradient1)" fill-rule="evenodd" stroke="none"/>
    <path d="M7.6 11.65 L7.2 11.65 7.2 10.75 7.6 10.75 7.6 11.65" fill="url(#gradient2)" fill-rule="evenodd" stroke="none"/>
    <path d="M8.65 12.1 L7.6 12.1 7.6 10.3 8.65 10.3 8.65 12.1" fill="url(#gradient3)" fill-rule="evenodd" stroke="none"/>
  </g>
  <defs>
    <linearGradient gradientTransform="matrix(0.0, -5.0E-4, -5.0E-4, 0.0, 25.85, 11.2)" gradientUnits="userSpaceOnUse" id="gradient0" spreadMethod="pad" x1="-819.2" x2="819.2">
      <stop offset="0.00392156862745098" stop-color="#8f4f1a"/>
      <stop offset="0.23529411764705882" stop-color="#6b331a"/>
      <stop offset="0.27450980392156865" stop-color="#753b1a"/>
      <stop offset="0.592156862745098" stop-color="#c0771a"/>
      <stop offset="0.7411764705882353" stop-color="#de8f1a"/>
      <stop offset="1.0" stop-color="#6b331a"/>
    </linearGradient>
    <linearGradient gradientTransform="matrix(0.0, -0.0011, -0.0011, 0.0, 25.15, 11.2)" gradientUnits="userSpaceOnUse" id="gradient1" spreadMethod="pad" x1="-819.2" x2="819.2">
      <stop offset="0.0" stop-color="#eea91a"/>
      <stop offset="0.25098039215686274" stop-color="#9a5e1a"/>
      <stop offset="0.7411764705882353" stop-color="#ffb81a"/>
      <stop offset="1.0" stop-color="#b2731a"/>
    </linearGradient>
    <linearGradient gradientTransform="matrix(0.0, -5.0E-4, -5.0E-4, 0.0, 7.4, 11.2)" gradientUnits="userSpaceOnUse" id="gradient2" spreadMethod="pad" x1="-819.2" x2="819.2">
      <stop offset="0.00392156862745098" stop-color="#8f4f1a"/>
      <stop offset="0.23529411764705882" stop-color="#6b331a"/>
      <stop offset="0.27450980392156865" stop-color="#753b1a"/>
      <stop offset="0.592156862745098" stop-color="#c0771a"/>
      <stop offset="0.7411764705882353" stop-color="#de8f1a"/>
      <stop offset="1.0" stop-color="#6b331a"/>
    </linearGradient>
    <linearGradient gradientTransform="matrix(0.0, -0.0011, -0.0011, 0.0, 8.15, 11.2)" gradientUnits="userSpaceOnUse" id="gradient3" spreadMethod="pad" x1="-819.2" x2="819.2">
      <stop offset="0.0" stop-color="#eea91a"/>
      <stop offset="0.25098039215686274" stop-color="#9a5e1a"/>
      <stop offset="0.7411764705882353" stop-color="#ffb81a"/>
      <stop offset="1.0" stop-color="#b2731a"/>
    </linearGradient>
  </defs>
</svg>
