<?xml version="1.0" encoding="UTF-8" standalone="no"?>
<svg xmlns:ffdec="https://www.free-decompiler.com/flash" xmlns:xlink="http://www.w3.org/1999/xlink" ffdec:objectType="shape" height="557.35px" width="606.65px" xmlns="http://www.w3.org/2000/svg">
  <g transform="matrix(1.0, 0.0, 0.0, 1.0, -13.6, 0.0)">
    <path d="M619.25 549.2 L612.45 556.35 592.4 556.35 586.95 550.65 609.9 550.65 614.6 545.7 614.6 523.85 619.25 528.75 619.25 549.2 Z" fill="none" stroke="#181919" stroke-linecap="butt" stroke-linejoin="miter-clip" stroke-miterlimit="4.0" stroke-width="2.0"/>
    <path d="M619.25 549.2 L612.45 556.35 592.4 556.35 586.95 550.65 609.9 550.65 614.6 545.7 614.6 523.85 619.25 528.75 619.25 549.2" fill="#717272" fill-rule="evenodd" stroke="none"/>
    <path d="M19.25 523.85 L14.6 528.75 14.6 549.2 21.4 556.35 41.45 556.35 46.9 550.65 23.95 550.65 19.25 545.7 19.25 523.85 Z" fill="none" stroke="#181919" stroke-linecap="butt" stroke-linejoin="miter-clip" stroke-miterlimit="4.0" stroke-width="2.0"/>
    <path d="M19.25 523.85 L19.25 545.7 23.95 550.65 46.9 550.65 41.45 556.35 21.4 556.35 14.6 549.2 14.6 528.75 19.25 523.85" fill="#717272" fill-rule="evenodd" stroke="none"/>
    <path d="M611.35 62.1 L611.35 544.65 Q611.35 545.95 610.45 546.85 609.6 547.8 608.35 547.8 L420.95 547.8 Q419.7 547.8 418.85 546.85 417.95 545.95 417.95 544.65 L417.95 62.1 Q417.95 60.75 418.85 59.9 419.7 58.95 420.95 58.95 L608.35 58.95 Q609.6 58.95 610.45 59.9 611.35 60.75 611.35 62.1" fill="url(#gradient0)" fill-rule="evenodd" stroke="none"/>
    <path d="M611.35 62.1 L611.35 544.65 Q611.35 545.95 610.45 546.85 609.6 547.8 608.35 547.8 L420.95 547.8 Q419.7 547.8 418.85 546.85 417.95 545.95 417.95 544.65 L417.95 62.1 Q417.95 60.75 418.85 59.9 419.7 58.95 420.95 58.95 L608.35 58.95 Q609.6 58.95 610.45 59.9 611.35 60.75 611.35 62.1 Z" fill="none" stroke="#056bbf" stroke-linecap="butt" stroke-linejoin="miter-clip" stroke-miterlimit="4.0" stroke-width="2.0"/>
    <path d="M607.15 169.75 L607.15 520.9 Q607.15 522.25 606.25 523.15 605.4 524.05 604.15 524.05 L424.55 524.05 Q423.3 524.05 422.4 523.15 421.55 522.25 421.55 520.9 L421.55 169.75 Q421.55 168.45 422.4 167.55 423.3 166.6 424.55 166.6 L604.15 166.6 Q605.4 166.6 606.25 167.55 607.15 168.45 607.15 169.75" fill="#03173d" fill-rule="evenodd" stroke="none"/>
    <path d="M449.1 27.45 Q450.35 27.45 450.55 28.05 450.8 28.7 449.9 29.6 L442.15 37.45 439.7 39.05 436.95 39.65 353.6 39.65 Q352.35 39.65 351.1 40.25 349.8 40.75 349.3 41.55 348.8 42.35 347.55 42.9 346.3 43.45 345.05 43.45 L301.6 43.45 Q300.35 43.45 299.1 42.9 297.8 42.35 297.25 41.55 296.7 40.75 295.4 40.25 294.15 39.65 292.9 39.65 L209.05 39.65 Q207.85 39.65 206.3 39.05 L203.8 37.5 195.55 29.55 Q194.65 28.7 194.9 28.05 195.1 27.45 196.35 27.45 L449.1 27.45" fill="#333333" fill-rule="evenodd" stroke="none"/>
    <path d="M294.3 0.65 Q295.8 0.0 297.05 0.0 L350.25 0.0 Q351.5 0.0 353.05 0.6 354.65 1.1 355.6 1.95 L357.65 3.65 Q358.65 4.5 358.9 5.85 359.15 7.2 358.55 8.35 L344.9 34.15 Q344.25 35.3 342.95 36.1 341.65 36.95 340.4 36.95 L307.15 36.95 Q305.9 36.95 304.65 36.1 303.35 35.3 302.8 34.15 L290.1 8.4 Q289.55 7.25 289.75 5.8 289.95 4.35 290.85 3.4 L291.95 2.25 Q292.8 1.35 294.3 0.65" fill="url(#gradient1)" fill-rule="evenodd" stroke="none"/>
    <path d="M297.2 11.0 Q296.65 9.8 296.8 8.25 296.9 6.75 297.7 5.75 L298.2 5.0 Q299.0 4.0 300.45 3.3 301.9 2.55 303.1 2.55 L306.7 2.55 Q309.5 2.55 311.3 3.3 312.8 4.0 315.85 4.0 L333.55 4.0 Q336.65 4.0 337.95 3.3 339.55 2.55 342.4 2.55 L344.5 2.55 Q345.75 2.55 347.25 3.2 348.8 3.85 349.65 4.8 L350.8 5.95 Q351.65 6.85 351.85 8.3 352.05 9.8 351.45 10.95 L341.1 30.45 Q340.5 31.65 339.2 32.4 337.9 33.25 336.65 33.25 L335.3 33.25 Q332.45 33.25 331.25 32.65 330.25 31.95 327.2 31.95 L320.85 31.95 Q317.9 31.95 316.95 32.65 315.95 33.25 313.0 33.25 L311.2 33.25 Q309.95 33.25 308.65 32.4 307.35 31.65 306.8 30.45 L297.2 11.0" fill="#2b2b2a" fill-rule="evenodd" stroke="none"/>
    <path d="M309.85 27.9 L301.6 11.2 Q301.25 10.4 301.4 9.4 301.55 8.4 302.1 7.85 L302.8 7.15 Q303.35 6.55 304.35 6.1 305.35 5.65 306.2 5.65 L340.9 5.65 342.75 6.0 Q343.8 6.45 344.45 6.95 L345.75 8.0 Q346.4 8.6 346.55 9.45 346.7 10.4 346.3 11.15 L337.4 27.95 Q337.05 28.7 336.15 29.25 335.3 29.8 334.45 29.8 L312.8 29.8 Q312.0 29.8 311.1 29.25 310.25 28.7 309.85 27.9" fill="#03296d" fill-rule="evenodd" stroke="none"/>
    <path d="M309.85 27.9 Q310.25 28.7 311.1 29.25 312.0 29.8 312.8 29.8 L334.45 29.8 Q335.3 29.8 336.15 29.25 337.05 28.7 337.4 27.95 L346.3 11.15 Q346.7 10.4 346.55 9.45 346.4 8.6 345.75 8.0 L344.45 6.95 Q343.8 6.45 342.75 6.0 L340.9 5.65 306.2 5.65 Q305.35 5.65 304.35 6.1 303.35 6.55 302.8 7.15 L302.1 7.85 Q301.55 8.4 301.4 9.4 301.25 10.4 301.6 11.2 L309.85 27.9 Z" fill="none" stroke="#0763e8" stroke-linecap="butt" stroke-linejoin="miter-clip" stroke-miterlimit="4.0" stroke-width="1.0"/>
    <path d="M365.35 36.2 Q362.8 34.65 355.55 32.15 353.55 31.45 354.7 29.2 355.9 26.95 358.5 27.85 367.4 30.95 371.25 34.35 371.55 35.25 368.75 35.95 L365.35 36.2" fill="url(#gradient2)" fill-rule="evenodd" stroke="none"/>
    <path d="M293.55 29.2 Q294.7 31.45 292.7 32.15 286.65 34.25 282.95 36.45 L278.95 36.35 Q275.65 35.8 276.4 35.1 280.9 30.95 289.75 27.85 292.35 26.95 293.55 29.2" fill="url(#gradient3)" fill-rule="evenodd" stroke="none"/>
    <path d="M345.15 33.15 L353.55 17.4 356.0 18.85 357.4 24.0 352.55 33.15 347.6 34.6 345.15 33.15" fill="url(#gradient4)" fill-rule="evenodd" stroke="none"/>
    <path d="M355.85 33.0 L353.35 31.6 356.5 25.65 358.95 27.1 355.85 33.0" fill="#333333" fill-rule="evenodd" stroke="none"/>
    <path d="M302.7 33.15 L300.25 34.6 295.3 33.15 290.45 24.0 291.85 18.85 Q293.1 18.15 294.3 17.4 L302.7 33.15" fill="url(#gradient5)" fill-rule="evenodd" stroke="none"/>
    <path d="M294.5 31.6 L292.05 33.0 288.9 27.1 291.35 25.65 294.5 31.6" fill="#333333" fill-rule="evenodd" stroke="none"/>
    <path d="M606.95 66.3 L606.95 157.6 Q606.95 158.9 606.05 159.8 605.2 160.75 603.95 160.75 L586.85 160.75 Q585.6 160.75 584.45 159.85 583.35 158.95 582.95 157.75 L574.8 131.75 Q574.4 130.55 575.0 129.65 575.6 128.75 576.85 128.75 L581.05 128.75 Q582.3 128.75 583.15 127.8 584.05 126.9 584.05 125.6 L584.05 76.45 Q584.05 75.15 583.15 74.25 582.3 73.3 581.05 73.3 L447.15 73.3 Q445.9 73.3 445.05 74.25 444.15 75.15 444.15 76.45 L444.15 125.6 Q444.15 126.9 445.05 127.8 445.9 128.75 447.15 128.75 L451.35 128.75 Q452.6 128.75 453.2 129.65 453.8 130.55 453.4 131.75 L445.25 157.75 Q444.9 158.95 443.75 159.85 442.6 160.75 441.35 160.75 L426.25 160.75 Q425.0 160.75 424.15 159.8 423.25 158.9 423.25 157.6 L423.25 66.3 Q423.25 64.95 424.15 64.1 425.0 63.15 426.25 63.15 L461.0 63.15 Q462.25 63.15 463.7 63.8 465.15 64.5 465.95 65.5 L467.25 67.05 Q468.05 68.05 469.55 68.75 471.0 69.45 472.25 69.45 L556.25 69.45 Q557.5 69.45 558.95 68.7 560.35 68.0 561.15 67.0 L562.3 65.55 Q563.1 64.55 564.55 63.85 566.0 63.15 567.25 63.15 L603.95 63.15 Q605.2 63.15 606.05 64.1 606.95 64.95 606.95 66.3" fill="url(#gradient6)" fill-rule="evenodd" stroke="none"/>
    <path d="M439.35 76.7 Q439.35 74.35 440.9 72.75 442.45 71.1 444.65 71.1 L449.05 71.1 449.05 72.05 447.4 72.05 Q445.3 72.05 443.85 73.65 442.35 75.15 442.35 77.35 L442.35 92.0 439.35 92.0 439.35 76.7" fill="#0b59d8" fill-rule="evenodd" stroke="none"/>
    <path d="M588.2 76.7 L588.2 92.0 585.2 92.0 585.2 77.35 Q585.2 75.15 583.75 73.65 582.25 72.05 580.15 72.05 L578.55 72.05 578.55 71.1 582.95 71.1 Q585.15 71.1 586.65 72.75 588.2 74.35 588.2 76.7" fill="#0b59d8" fill-rule="evenodd" stroke="none"/>
    <path d="M442.35 111.7 L442.35 125.25 Q442.35 127.45 443.85 129.0 445.3 130.55 447.4 130.55 L449.05 130.55 449.05 131.5 444.65 131.5 Q442.45 131.5 440.9 129.85 439.35 128.25 439.35 125.95 L439.35 111.7 442.35 111.7" fill="#0b59d8" fill-rule="evenodd" stroke="none"/>
    <path d="M585.2 111.7 L588.2 111.7 588.2 125.95 Q588.2 128.25 586.65 129.85 585.15 131.5 582.95 131.5 L578.55 131.5 578.55 130.55 580.15 130.55 Q582.25 130.55 583.75 129.0 585.2 127.45 585.2 125.25 L585.2 111.7" fill="#0b59d8" fill-rule="evenodd" stroke="none"/>
    <path d="M415.05 62.15 L415.05 543.35 Q415.05 544.85 414.0 545.95 413.0 547.0 411.55 547.0 L25.95 547.0 Q24.5 547.0 23.45 545.95 22.45 544.85 22.45 543.35 L22.45 62.15 Q22.45 60.6 23.45 59.5 24.5 58.45 25.95 58.45 L411.55 58.45 Q413.0 58.45 414.0 59.5 415.05 60.6 415.05 62.15" fill="url(#gradient7)" fill-rule="evenodd" stroke="none"/>
    <path d="M414.55 62.15 Q414.55 60.8 413.65 59.95 412.8 59.0 411.55 59.0 L25.95 59.0 Q24.7 59.0 23.85 59.95 22.95 60.8 22.95 62.15 L22.95 543.35 Q22.95 544.65 23.85 545.55 24.7 546.5 25.95 546.5 L411.55 546.5 Q412.8 546.5 413.65 545.55 414.55 544.65 414.55 543.35 L414.55 62.15 M414.4 59.2 Q415.55 60.4 415.55 62.15 L415.55 543.35 Q415.55 545.05 414.4 546.35 413.2 547.55 411.55 547.55 L25.95 547.55 Q24.3 547.55 23.15 546.35 21.95 545.05 21.95 543.35 L21.95 62.15 Q21.95 60.4 23.15 59.2 24.3 57.95 25.95 57.95 L411.55 57.95 Q413.2 57.95 414.4 59.2" fill="#03386d" fill-rule="evenodd" stroke="none"/>
    <path d="M411.55 98.45 L411.55 539.1 Q411.55 540.4 410.65 541.3 409.8 542.25 408.55 542.25 L29.55 542.25 Q28.3 542.25 27.45 541.3 26.55 540.4 26.55 539.1 L26.55 98.45 Q26.55 97.15 27.45 96.25 28.3 95.3 29.55 95.3 L408.55 95.3 Q409.8 95.3 410.65 96.25 411.55 97.15 411.55 98.45 Z" fill="none" stroke="#006bfc" stroke-linecap="butt" stroke-linejoin="miter-clip" stroke-miterlimit="4.0" stroke-width="1.0"/>
  </g>
  <defs>
    <linearGradient gradientTransform="matrix(0.0, -0.2984, -0.2841, 0.0, 514.65, 303.4)" gradientUnits="userSpaceOnUse" id="gradient0" spreadMethod="pad" x1="-819.2" x2="819.2">
      <stop offset="0.0" stop-color="#021139"/>
      <stop offset="1.0" stop-color="#044094"/>
    </linearGradient>
    <linearGradient gradientTransform="matrix(0.0, -0.0225, 0.0215, 0.0, 324.35, 18.45)" gradientUnits="userSpaceOnUse" id="gradient1" spreadMethod="pad" x1="-819.2" x2="819.2">
      <stop offset="0.0" stop-color="#373737"/>
      <stop offset="0.6549019607843137" stop-color="#a4a4a4"/>
      <stop offset="0.803921568627451" stop-color="#a4a4a4"/>
      <stop offset="1.0" stop-color="#6b6b6b"/>
    </linearGradient>
    <linearGradient gradientTransform="matrix(0.0103, 0.0, 0.0, 0.0108, 362.85, 32.0)" gradientUnits="userSpaceOnUse" id="gradient2" spreadMethod="pad" x1="-819.2" x2="819.2">
      <stop offset="0.0" stop-color="#5e5e5e"/>
      <stop offset="0.43137254901960786" stop-color="#3b3b3b"/>
      <stop offset="1.0" stop-color="#080808"/>
    </linearGradient>
    <linearGradient gradientTransform="matrix(0.0107, 0.0, 0.0, 0.0112, 285.05, 32.1)" gradientUnits="userSpaceOnUse" id="gradient3" spreadMethod="pad" x1="-819.2" x2="819.2">
      <stop offset="0.0" stop-color="#080808"/>
      <stop offset="0.5686274509803921" stop-color="#3b3b3b"/>
      <stop offset="1.0" stop-color="#5e5e5e"/>
    </linearGradient>
    <linearGradient gradientTransform="matrix(0.0054, 0.0095, -0.009, 0.0057, 352.1, 26.95)" gradientUnits="userSpaceOnUse" id="gradient4" spreadMethod="pad" x1="-819.2" x2="819.2">
      <stop offset="0.0" stop-color="#505050"/>
      <stop offset="0.09803921568627451" stop-color="#373737"/>
      <stop offset="0.5254901960784314" stop-color="#6e6963"/>
      <stop offset="0.8862745098039215" stop-color="#3d3d3d"/>
      <stop offset="1.0" stop-color="#505050"/>
    </linearGradient>
    <linearGradient gradientTransform="matrix(0.0059, -0.0092, 0.0088, 0.0062, 295.9, 27.0)" gradientUnits="userSpaceOnUse" id="gradient5" spreadMethod="pad" x1="-819.2" x2="819.2">
      <stop offset="0.0" stop-color="#505050"/>
      <stop offset="0.09803921568627451" stop-color="#373737"/>
      <stop offset="0.5254901960784314" stop-color="#6e6963"/>
      <stop offset="0.8862745098039215" stop-color="#3d3d3d"/>
      <stop offset="1.0" stop-color="#505050"/>
    </linearGradient>
    <linearGradient gradientTransform="matrix(0.0, -0.0596, -0.0567, 0.0, 515.1, 111.9)" gradientUnits="userSpaceOnUse" id="gradient6" spreadMethod="pad" x1="-819.2" x2="819.2">
      <stop offset="0.0" stop-color="#042b6e"/>
      <stop offset="1.0" stop-color="#021139"/>
    </linearGradient>
    <linearGradient gradientTransform="matrix(0.0, -0.2982, -0.284, 0.0, 218.75, 302.75)" gradientUnits="userSpaceOnUse" id="gradient7" spreadMethod="pad" x1="-819.2" x2="819.2">
      <stop offset="0.0" stop-color="#001740"/>
      <stop offset="0.17254901960784313" stop-color="#001234"/>
      <stop offset="0.40784313725490196" stop-color="#00102d"/>
      <stop offset="1.0" stop-color="#000f2b"/>
    </linearGradient>
  </defs>
</svg>
