<?xml version="1.0" encoding="UTF-8" standalone="no"?>
<svg xmlns:ffdec="https://www.free-decompiler.com/flash" xmlns:xlink="http://www.w3.org/1999/xlink" ffdec:objectType="shape" height="358.15px" width="191.4px" xmlns="http://www.w3.org/2000/svg">
  <g transform="matrix(1.0, 0.0, 0.0, 1.0, -102.05, 127.55)">
    <path d="M292.05 -126.05 Q292.95 -125.15 292.95 -123.85 L292.95 226.95 Q292.95 228.25 292.05 229.15 291.2 230.1 289.95 230.1 L105.55 230.1 Q104.3 230.1 103.45 229.15 102.55 228.25 102.55 226.95 L102.55 -123.85 Q102.55 -125.15 103.45 -126.05 104.3 -127.05 105.55 -127.05 L289.95 -127.05 Q291.2 -127.05 292.05 -126.05" fill="#010c30" fill-rule="evenodd" stroke="none"/>
    <path d="M292.05 -126.05 Q292.95 -125.15 292.95 -123.85 L292.95 226.95 Q292.95 228.25 292.05 229.15 291.2 230.1 289.95 230.1 L105.55 230.1 Q104.3 230.1 103.45 229.15 102.55 228.25 102.55 226.95 L102.55 -123.85 Q102.55 -125.15 103.45 -126.05 104.3 -127.05 105.55 -127.05 L289.95 -127.05 Q291.2 -127.05 292.05 -126.05 Z" fill="none" stroke="#043896" stroke-linecap="butt" stroke-linejoin="miter-clip" stroke-miterlimit="4.0" stroke-width="1.0"/>
  </g>
</svg>
