<?xml version="1.0" encoding="UTF-8" standalone="no"?>
<svg xmlns:ffdec="https://www.free-decompiler.com/flash" xmlns:xlink="http://www.w3.org/1999/xlink" ffdec:objectType="shape" height="24.5px" width="84.05px" xmlns="http://www.w3.org/2000/svg">
  <g transform="matrix(1.0, 0.0, 0.0, 1.0, -4.55, -1.35)">
    <path d="M7.35 1.35 L85.9 1.35 Q87.0 1.35 87.75 2.15 88.6 2.9 88.6 4.05 L88.6 21.3 Q88.6 22.45 87.75 23.2 87.0 24.0 85.9 24.0 L7.35 24.0 Q6.25 24.0 5.45 23.2 4.65 22.45 4.65 21.3 L4.65 4.05 Q4.65 2.9 5.45 2.15 6.25 1.35 7.35 1.35" fill="#0055ba" fill-rule="evenodd" stroke="none"/>
    <path d="M85.3 12.7 L88.6 8.45 88.6 16.95 85.3 12.7" fill="#1b65e0" fill-rule="evenodd" stroke="none"/>
    <path d="M77.75 10.85 L43.3 19.1 Q2.65 32.6 4.65 19.1 L4.65 4.05 Q4.65 2.9 5.45 2.15 6.2 1.35 7.35 1.35 L77.75 1.35 77.75 10.85" fill="url(#gradient0)" fill-rule="evenodd" stroke="none"/>
    <path d="M77.75 10.85 L43.3 19.1 Q2.65 32.6 4.65 19.1 L4.65 4.05 Q4.65 2.9 5.45 2.15 6.2 1.35 7.35 1.35 L77.75 1.35 77.75 10.85" fill="url(#gradient1)" fill-rule="evenodd" stroke="none"/>
  </g>
  <defs>
    <linearGradient gradientTransform="matrix(0.0094, 0.0233, 0.0193, -0.0078, 55.2, 3.55)" gradientUnits="userSpaceOnUse" id="gradient0" spreadMethod="pad" x1="-819.2" x2="819.2">
      <stop offset="0.0" stop-color="#c2c2b3"/>
      <stop offset="0.0196078431372549" stop-color="#b2beba" stop-opacity="0.90588236"/>
      <stop offset="0.07058823529411765" stop-color="#8eb6ca" stop-opacity="0.69411767"/>
      <stop offset="0.12941176470588237" stop-color="#6eafd9" stop-opacity="0.5058824"/>
      <stop offset="0.19215686274509805" stop-color="#52a9e5" stop-opacity="0.34509805"/>
      <stop offset="0.2627450980392157" stop-color="#3ca4ee" stop-opacity="0.21568628"/>
      <stop offset="0.34901960784313724" stop-color="#2ba1f6" stop-opacity="0.11764706"/>
      <stop offset="0.45098039215686275" stop-color="#209efb" stop-opacity="0.047058824"/>
      <stop offset="0.596078431372549" stop-color="#199cfe" stop-opacity="0.007843138"/>
      <stop offset="1.0" stop-color="#179cff" stop-opacity="0.0"/>
    </linearGradient>
    <linearGradient gradientTransform="matrix(0.0094, 0.0233, 0.0193, -0.0078, 55.2, 3.55)" gradientUnits="userSpaceOnUse" id="gradient1" spreadMethod="pad" x1="-819.2" x2="819.2">
      <stop offset="0.0" stop-color="#c2c2b3"/>
      <stop offset="0.0196078431372549" stop-color="#b2beba" stop-opacity="0.90588236"/>
      <stop offset="0.07058823529411765" stop-color="#8eb6ca" stop-opacity="0.69411767"/>
      <stop offset="0.12941176470588237" stop-color="#6eafd9" stop-opacity="0.5058824"/>
      <stop offset="0.19215686274509805" stop-color="#52a9e5" stop-opacity="0.34509805"/>
      <stop offset="0.2627450980392157" stop-color="#3ca4ee" stop-opacity="0.21568628"/>
      <stop offset="0.34901960784313724" stop-color="#2ba1f6" stop-opacity="0.11764706"/>
      <stop offset="0.45098039215686275" stop-color="#209efb" stop-opacity="0.047058824"/>
      <stop offset="0.596078431372549" stop-color="#199cfe" stop-opacity="0.007843138"/>
      <stop offset="1.0" stop-color="#179cff" stop-opacity="0.0"/>
    </linearGradient>
  </defs>
</svg>
