<?xml version="1.0" encoding="UTF-8" standalone="no"?>
<svg xmlns:ffdec="https://www.free-decompiler.com/flash" xmlns:xlink="http://www.w3.org/1999/xlink" ffdec:objectType="shape" height="28.3px" width="93.35px" xmlns="http://www.w3.org/2000/svg">
  <g transform="matrix(1.0, 0.0, 0.0, 1.0, 0.1, 0.0)">
    <path d="M92.5 3.0 L92.5 22.15 Q92.5 23.1 91.85 23.75 91.2 24.4 90.25 24.4 L56.85 24.4 53.75 24.9 Q52.05 25.4 50.9 26.1 L49.5 26.95 Q48.45 27.55 47.2 27.55 46.0 27.55 45.1 27.05 L43.3 26.0 Q42.15 25.35 40.4 24.85 L37.35 24.4 3.0 24.4 Q2.05 24.4 1.4 23.75 0.75 23.1 0.75 22.15 L0.75 3.0 Q0.75 2.05 1.4 1.4 2.05 0.75 3.0 0.75 L90.25 0.75 Q91.2 0.75 91.85 1.4 92.5 2.05 92.5 3.0" fill="url(#gradient0)" fill-rule="evenodd" stroke="none"/>
    <path d="M91.75 3.0 Q91.75 2.35 91.3 1.95 90.9 1.5 90.25 1.5 L3.0 1.5 Q2.35 1.5 1.95 1.95 1.5 2.35 1.5 3.0 L1.5 22.15 Q1.5 22.8 1.95 23.2 2.35 23.65 3.0 23.65 L37.35 23.65 40.6 24.15 Q42.4 24.65 43.65 25.35 L45.45 26.4 Q46.15 26.8 47.2 26.8 48.35 26.8 49.1 26.3 L50.5 25.45 Q51.7 24.7 53.55 24.2 55.4 23.65 56.85 23.65 L90.25 23.65 Q90.9 23.65 91.3 23.2 L91.75 22.15 91.75 3.0 M90.25 0.0 Q91.5 0.0 92.35 0.9 93.25 1.75 93.25 3.0 L93.25 22.15 Q93.25 23.4 92.35 24.25 91.5 25.15 90.25 25.15 L56.85 25.15 54.0 25.65 Q52.35 26.1 51.25 26.75 L49.9 27.6 Q48.75 28.3 47.2 28.3 45.75 28.3 44.7 27.7 L42.95 26.65 Q41.85 26.05 40.25 25.6 L37.35 25.15 3.0 25.15 Q1.75 25.15 0.9 24.25 0.0 23.4 0.0 22.15 L0.0 3.0 Q0.0 1.75 0.9 0.9 1.75 0.0 3.0 0.0 L90.25 0.0" fill="#0b9cff" fill-rule="evenodd" stroke="none"/>
    <path d="M81.25 0.0 L81.25 10.55 42.95 19.75 Q-2.2 34.7 0.0 19.75 L0.0 3.0 Q0.0 1.75 0.9 0.9 1.75 0.0 3.0 0.0 L81.25 0.0" fill="url(#gradient1)" fill-rule="evenodd" stroke="none"/>
  </g>
  <defs>
    <linearGradient gradientTransform="matrix(0.056, 0.0, 0.0, -0.056, 46.6, 14.15)" gradientUnits="userSpaceOnUse" id="gradient0" spreadMethod="pad" x1="-819.2" x2="819.2">
      <stop offset="0.0" stop-color="#005acc"/>
      <stop offset="0.043137254901960784" stop-color="#004db2"/>
      <stop offset="0.09803921568627451" stop-color="#004197"/>
      <stop offset="0.1607843137254902" stop-color="#003681"/>
      <stop offset="0.23529411764705882" stop-color="#002e70"/>
      <stop offset="0.32941176470588235" stop-color="#002865"/>
      <stop offset="0.4588235294117647" stop-color="#00255e"/>
      <stop offset="0.8156862745098039" stop-color="#00245c"/>
    </linearGradient>
    <linearGradient gradientTransform="matrix(0.0105, 0.0259, 0.0214, -0.0087, 56.15, 2.45)" gradientUnits="userSpaceOnUse" id="gradient1" spreadMethod="pad" x1="-819.2" x2="819.2">
      <stop offset="0.0" stop-color="#c2c2b3"/>
      <stop offset="0.0196078431372549" stop-color="#b2beba" stop-opacity="0.90588236"/>
      <stop offset="0.07058823529411765" stop-color="#8eb6ca" stop-opacity="0.69411767"/>
      <stop offset="0.12941176470588237" stop-color="#6eafd9" stop-opacity="0.5058824"/>
      <stop offset="0.19215686274509805" stop-color="#52a9e5" stop-opacity="0.34509805"/>
      <stop offset="0.2627450980392157" stop-color="#3ca4ee" stop-opacity="0.21568628"/>
      <stop offset="0.34901960784313724" stop-color="#2ba1f6" stop-opacity="0.11764706"/>
      <stop offset="0.45098039215686275" stop-color="#209efb" stop-opacity="0.047058824"/>
      <stop offset="0.596078431372549" stop-color="#199cfe" stop-opacity="0.007843138"/>
      <stop offset="1.0" stop-color="#179cff" stop-opacity="0.0"/>
    </linearGradient>
  </defs>
</svg>
