<?xml version="1.0" encoding="UTF-8" standalone="no"?>
<svg xmlns:ffdec="https://www.free-decompiler.com/flash" xmlns:xlink="http://www.w3.org/1999/xlink" ffdec:objectType="shape" height="70.4px" width="385.95px" xmlns="http://www.w3.org/2000/svg">
  <g transform="matrix(1.0, 0.0, 0.0, 1.0, 0.0, 0.0)">
    <path d="M190.2 4.5 L190.2 65.9 Q190.2 67.45 189.1 68.55 188.0 69.65 186.45 69.65 L4.5 69.65 Q2.95 69.65 1.85 68.55 0.75 67.45 0.75 65.9 L0.75 4.5 Q0.75 2.95 1.85 1.85 2.95 0.75 4.5 0.75 L186.45 0.75 Q188.0 0.75 189.1 1.85 190.2 2.95 190.2 4.5" fill="url(#gradient0)" fill-rule="evenodd" stroke="none"/>
    <path d="M189.45 4.5 Q189.45 3.25 188.55 2.4 187.7 1.5 186.45 1.5 L4.5 1.5 Q3.25 1.5 2.4 2.4 1.5 3.25 1.5 4.5 L1.5 65.9 Q1.5 67.15 2.4 68.0 3.25 68.9 4.5 68.9 L186.45 68.9 Q187.7 68.9 188.55 68.0 189.45 67.15 189.45 65.9 L189.45 4.5 M186.45 0.0 Q188.3 0.0 189.6 1.3 190.95 2.65 190.95 4.5 L190.95 65.9 Q190.95 67.75 189.6 69.05 188.3 70.4 186.45 70.4 L4.5 70.4 Q2.65 70.4 1.35 69.05 0.0 67.75 0.0 65.9 L0.0 4.5 Q0.0 2.65 1.35 1.3 2.65 0.0 4.5 0.0 L186.45 0.0" fill="#00c9ff" fill-rule="evenodd" stroke="none"/>
    <path d="M385.2 4.5 L385.2 65.9 Q385.2 67.45 384.1 68.55 383.0 69.65 381.45 69.65 L199.5 69.65 Q197.95 69.65 196.85 68.55 195.75 67.45 195.75 65.9 L195.75 4.5 Q195.75 2.95 196.85 1.85 197.95 0.75 199.5 0.75 L381.45 0.75 Q383.0 0.75 384.1 1.85 385.2 2.95 385.2 4.5" fill="url(#gradient1)" fill-rule="evenodd" stroke="none"/>
    <path d="M381.45 0.0 Q383.3 0.0 384.6 1.3 385.95 2.65 385.95 4.5 L385.95 65.9 Q385.95 67.75 384.6 69.05 383.3 70.4 381.45 70.4 L199.5 70.4 Q197.65 70.4 196.35 69.05 195.0 67.75 195.0 65.9 L195.0 4.5 Q195.0 2.65 196.35 1.3 197.65 0.0 199.5 0.0 L381.45 0.0 M384.45 4.5 Q384.45 3.25 383.55 2.4 382.7 1.5 381.45 1.5 L199.5 1.5 Q198.25 1.5 197.4 2.4 196.5 3.25 196.5 4.5 L196.5 65.9 Q196.5 67.15 197.4 68.0 198.25 68.9 199.5 68.9 L381.45 68.9 Q382.7 68.9 383.55 68.0 384.45 67.15 384.45 65.9 L384.45 4.5" fill="#00c9ff" fill-rule="evenodd" stroke="none"/>
  </g>
  <defs>
    <linearGradient gradientTransform="matrix(0.0, -0.042, -0.042, 0.0, 95.5, 35.2)" gradientUnits="userSpaceOnUse" id="gradient0" spreadMethod="pad" x1="-819.2" x2="819.2">
      <stop offset="0.0" stop-color="#007afa"/>
      <stop offset="0.03137254901960784" stop-color="#006ce0"/>
      <stop offset="0.07450980392156863" stop-color="#005dc5"/>
      <stop offset="0.12156862745098039" stop-color="#0051af"/>
      <stop offset="0.17647058823529413" stop-color="#00489e"/>
      <stop offset="0.24313725490196078" stop-color="#004293"/>
      <stop offset="0.3411764705882353" stop-color="#003e8c"/>
      <stop offset="0.6078431372549019" stop-color="#003d8a"/>
    </linearGradient>
    <linearGradient gradientTransform="matrix(0.0, -0.042, -0.042, 0.0, 290.5, 35.2)" gradientUnits="userSpaceOnUse" id="gradient1" spreadMethod="pad" x1="-819.2" x2="819.2">
      <stop offset="0.0" stop-color="#007afa"/>
      <stop offset="0.03137254901960784" stop-color="#006ce0"/>
      <stop offset="0.07450980392156863" stop-color="#005dc5"/>
      <stop offset="0.12156862745098039" stop-color="#0051af"/>
      <stop offset="0.17647058823529413" stop-color="#00489e"/>
      <stop offset="0.24313725490196078" stop-color="#004293"/>
      <stop offset="0.3411764705882353" stop-color="#003e8c"/>
      <stop offset="0.6078431372549019" stop-color="#003d8a"/>
    </linearGradient>
  </defs>
</svg>
