<?xml version="1.0" encoding="UTF-8" standalone="no"?>
<svg xmlns:ffdec="https://www.free-decompiler.com/flash" xmlns:xlink="http://www.w3.org/1999/xlink" ffdec:objectType="shape" height="72.9px" width="213.85px" xmlns="http://www.w3.org/2000/svg">
  <g transform="matrix(1.0, 0.0, 0.0, 1.0, -123.0, 0.0)">
    <path d="M336.35 3.5 L336.35 69.4 Q336.35 70.65 335.45 71.5 334.6 72.4 333.35 72.4 L162.45 72.4 Q161.2 72.4 159.7 71.8 158.15 71.15 157.3 70.3 L125.65 39.35 124.55 37.8 124.15 37.0 Q123.55 35.6 123.5 34.4 L123.5 3.5 Q123.5 2.25 124.4 1.4 125.25 0.5 126.45 0.5 L333.35 0.5 Q334.6 0.5 335.45 1.4 336.35 2.25 336.35 3.5" fill="url(#gradient0)" fill-rule="evenodd" stroke="none"/>
    <path d="M336.35 3.5 L336.35 69.4 Q336.35 70.65 335.45 71.5 334.6 72.4 333.35 72.4 L162.45 72.4 Q161.2 72.4 159.7 71.8 158.15 71.15 157.3 70.3 L125.65 39.35 124.55 37.8 124.15 37.0 Q123.55 35.6 123.5 34.4 L123.5 3.5 Q123.5 2.25 124.4 1.4 125.25 0.5 126.45 0.5 L333.35 0.5 Q334.6 0.5 335.45 1.4 336.35 2.25 336.35 3.5 Z" fill="none" stroke="#0071bc" stroke-linecap="butt" stroke-linejoin="miter-clip" stroke-miterlimit="4.0" stroke-width="1.0"/>
  </g>
  <defs>
    <linearGradient gradientTransform="matrix(0.0, -0.097, -0.097, 0.0, 168.4, 79.95)" gradientUnits="userSpaceOnUse" id="gradient0" spreadMethod="pad" x1="-819.2" x2="819.2">
      <stop offset="0.0" stop-color="#001c42"/>
      <stop offset="0.4549019607843137" stop-color="#001d44"/>
      <stop offset="0.6392156862745098" stop-color="#00224b"/>
      <stop offset="0.7725490196078432" stop-color="#002a57"/>
      <stop offset="0.8862745098039215" stop-color="#003569"/>
      <stop offset="0.9803921568627451" stop-color="#00437f"/>
      <stop offset="1.0" stop-color="#004785"/>
    </linearGradient>
  </defs>
</svg>
