<?xml version="1.0" encoding="UTF-8" standalone="no"?>
<svg xmlns:ffdec="https://www.free-decompiler.com/flash" xmlns:xlink="http://www.w3.org/1999/xlink" ffdec:objectType="shape" height="21.85px" width="144.15px" xmlns="http://www.w3.org/2000/svg">
  <g transform="matrix(1.0, 0.0, 0.0, 1.0, 0.0, 0.0)">
    <path d="M141.15 21.35 L10.25 21.35 8.25 20.85 6.6 19.65 1.15 13.2 Q0.5 12.45 0.5 11.35 0.5 10.3 1.1 9.5 L6.65 2.25 Q7.2 1.55 8.25 1.0 9.3 0.5 10.25 0.5 L141.15 0.5 Q142.2 0.5 142.95 1.25 143.65 1.95 143.65 3.0 L143.65 18.85 Q143.65 19.9 142.95 20.65 142.2 21.35 141.15 21.35" fill="url(#gradient0)" fill-rule="evenodd" stroke="none"/>
    <path d="M143.15 3.0 Q143.15 2.2 142.55 1.6 142.0 1.0 141.15 1.0 L10.25 1.0 Q9.4 1.0 8.5 1.45 7.55 1.95 7.05 2.6 L1.5 9.8 Q1.0 10.45 1.0 11.35 1.0 12.25 1.55 12.9 L6.95 19.3 Q7.5 19.95 8.45 20.4 L10.25 20.85 141.15 20.85 Q142.0 20.85 142.55 20.25 143.15 19.7 143.15 18.85 L143.15 3.0 M144.15 18.85 Q144.15 20.1 143.25 20.95 142.4 21.85 141.15 21.85 L10.25 21.85 Q9.2 21.85 8.05 21.3 6.85 20.75 6.2 19.95 L0.8 13.55 Q0.0 12.65 0.0 11.4 0.0 10.1 0.7 9.2 L6.25 1.95 Q6.9 1.15 8.05 0.55 9.2 0.0 10.25 0.0 L141.15 0.0 Q142.4 0.0 143.25 0.9 144.15 1.75 144.15 3.0 L144.15 18.85" fill="#cfab0e" fill-rule="evenodd" stroke="none"/>
  </g>
  <defs>
    <linearGradient gradientTransform="matrix(0.0874, 0.0, 0.0, -0.0874, 72.1, 10.9)" gradientUnits="userSpaceOnUse" id="gradient0" spreadMethod="pad" x1="-819.2" x2="819.2">
      <stop offset="0.0" stop-color="#a63903" stop-opacity="0.07058824"/>
      <stop offset="0.08235294117647059" stop-color="#a65410" stop-opacity="0.37254903"/>
      <stop offset="0.1843137254901961" stop-color="#a66d1c" stop-opacity="0.64705884"/>
      <stop offset="0.28627450980392155" stop-color="#a67e24" stop-opacity="0.84313726"/>
      <stop offset="0.4" stop-color="#a68929" stop-opacity="0.9607843"/>
      <stop offset="0.5294117647058824" stop-color="#a68c2b"/>
      <stop offset="0.6352941176470588" stop-color="#a68829" stop-opacity="0.95686275"/>
      <stop offset="0.7333333333333333" stop-color="#a67d24" stop-opacity="0.827451"/>
      <stop offset="0.8274509803921568" stop-color="#a66a1b" stop-opacity="0.6156863"/>
      <stop offset="0.9215686274509803" stop-color="#a64f0e" stop-opacity="0.31764707"/>
      <stop offset="1.0" stop-color="#a63300" stop-opacity="0.0"/>
    </linearGradient>
  </defs>
</svg>
