<?xml version="1.0" encoding="UTF-8" standalone="no"?>
<svg xmlns:ffdec="https://www.free-decompiler.com/flash" xmlns:xlink="http://www.w3.org/1999/xlink" ffdec:objectType="shape" height="339.4px" width="338.0px" xmlns="http://www.w3.org/2000/svg">
  <g transform="matrix(1.0, 0.0, 0.0, 1.0, -21.15, -40.95)">
    <path d="M191.25 238.2 L191.25 380.35 190.85 380.35 190.85 238.2 191.25 238.2" fill="url(#gradient0)" fill-rule="evenodd" stroke="none"/>
    <path d="M191.25 40.95 L191.25 183.1 190.85 183.1 190.85 40.95 191.25 40.95" fill="url(#gradient1)" fill-rule="evenodd" stroke="none"/>
    <path d="M167.15 225.5 L44.75 296.15 44.3 295.35 166.65 224.7 167.15 225.5" fill="url(#gradient2)" fill-rule="evenodd" stroke="none"/>
    <path d="M213.5 225.5 L214.0 224.7 336.4 295.35 335.9 296.15 213.5 225.5" fill="url(#gradient3)" fill-rule="evenodd" stroke="none"/>
    <path d="M44.3 125.3 L44.75 124.5 167.15 195.15 166.65 195.95 44.3 125.3" fill="url(#gradient4)" fill-rule="evenodd" stroke="none"/>
    <path d="M336.4 125.3 L214.0 195.95 213.5 195.15 335.9 124.5 336.4 125.3" fill="url(#gradient5)" fill-rule="evenodd" stroke="none"/>
    <path d="M204.9 234.05 L276.0 357.15 275.65 357.35 204.55 234.25 204.9 234.05" fill="url(#gradient6)" fill-rule="evenodd" stroke="none"/>
    <path d="M106.3 63.2 L177.35 186.3 177.0 186.5 105.95 63.4 106.3 63.2" fill="url(#gradient7)" fill-rule="evenodd" stroke="none"/>
    <path d="M177.65 235.1 L107.0 357.5 106.2 357.0 176.85 234.65 177.65 235.1" fill="url(#gradient8)" fill-rule="evenodd" stroke="none"/>
    <path d="M359.15 210.95 L359.15 211.9 217.85 211.9 217.85 210.95 359.15 210.95" fill="url(#gradient9)" fill-rule="evenodd" stroke="none"/>
    <path d="M162.5 208.8 L162.5 209.75 21.15 209.75 21.15 208.8 162.5 208.8" fill="url(#gradient10)" fill-rule="evenodd" stroke="none"/>
    <path d="M274.15 63.7 L203.5 186.1 202.65 185.65 273.3 63.25 274.15 63.7" fill="url(#gradient11)" fill-rule="evenodd" stroke="none"/>
  </g>
  <defs>
    <linearGradient gradientTransform="matrix(0.0, 0.0867, 0.2601, 0.0, 191.05, 309.3)" gradientUnits="userSpaceOnUse" id="gradient0" spreadMethod="pad" x1="-819.2" x2="819.2">
      <stop offset="0.0" stop-color="#75ffff"/>
      <stop offset="1.0" stop-color="#00a1ee" stop-opacity="0.2"/>
    </linearGradient>
    <linearGradient gradientTransform="matrix(0.0, 0.0867, 0.2601, 0.0, 191.05, 112.0)" gradientUnits="userSpaceOnUse" id="gradient1" spreadMethod="pad" x1="-819.2" x2="819.2">
      <stop offset="0.0" stop-color="#00a1ee" stop-opacity="0.2"/>
      <stop offset="1.0" stop-color="#75ffff"/>
    </linearGradient>
    <linearGradient gradientTransform="matrix(0.0747, -0.0431, -0.3096, -0.5363, 105.7, 260.4)" gradientUnits="userSpaceOnUse" id="gradient2" spreadMethod="pad" x1="-819.2" x2="819.2">
      <stop offset="0.0" stop-color="#00a1ee" stop-opacity="0.2"/>
      <stop offset="1.0" stop-color="#75ffff"/>
    </linearGradient>
    <linearGradient gradientTransform="matrix(-0.0747, -0.0431, 0.3096, -0.5363, 274.95, 260.4)" gradientUnits="userSpaceOnUse" id="gradient3" spreadMethod="pad" x1="-819.2" x2="819.2">
      <stop offset="0.0" stop-color="#00a1ee" stop-opacity="0.2"/>
      <stop offset="1.0" stop-color="#75ffff"/>
    </linearGradient>
    <linearGradient gradientTransform="matrix(0.0747, 0.0431, -0.3096, 0.5363, 105.7, 160.25)" gradientUnits="userSpaceOnUse" id="gradient4" spreadMethod="pad" x1="-819.2" x2="819.2">
      <stop offset="0.0" stop-color="#00a1ee" stop-opacity="0.2"/>
      <stop offset="1.0" stop-color="#75ffff"/>
    </linearGradient>
    <linearGradient gradientTransform="matrix(-0.0747, 0.0431, 0.3096, 0.5363, 274.95, 160.25)" gradientUnits="userSpaceOnUse" id="gradient5" spreadMethod="pad" x1="-819.2" x2="819.2">
      <stop offset="0.0" stop-color="#00a1ee" stop-opacity="0.09803922"/>
      <stop offset="1.0" stop-color="#75ffff"/>
    </linearGradient>
    <linearGradient gradientTransform="matrix(0.0434, 0.0751, 0.2253, -0.1301, 240.25, 295.7)" gradientUnits="userSpaceOnUse" id="gradient6" spreadMethod="pad" x1="-819.2" x2="819.2">
      <stop offset="0.0" stop-color="#75ffff"/>
      <stop offset="1.0" stop-color="#00a1ee" stop-opacity="0.2"/>
    </linearGradient>
    <linearGradient gradientTransform="matrix(0.0434, 0.0751, 0.2253, -0.1301, 141.65, 124.85)" gradientUnits="userSpaceOnUse" id="gradient7" spreadMethod="pad" x1="-819.2" x2="819.2">
      <stop offset="0.0" stop-color="#00a1ee" stop-opacity="0.2"/>
      <stop offset="1.0" stop-color="#75ffff"/>
    </linearGradient>
    <linearGradient gradientTransform="matrix(0.0431, -0.0747, -0.5363, -0.3096, 141.95, 296.05)" gradientUnits="userSpaceOnUse" id="gradient8" spreadMethod="pad" x1="-819.2" x2="819.2">
      <stop offset="0.0" stop-color="#00a1ee" stop-opacity="0.2"/>
      <stop offset="1.0" stop-color="#75ffff"/>
    </linearGradient>
    <linearGradient gradientTransform="matrix(-0.0863, 0.0, 0.0, -0.6194, 288.5, 211.45)" gradientUnits="userSpaceOnUse" id="gradient9" spreadMethod="pad" x1="-819.2" x2="819.2">
      <stop offset="0.0" stop-color="#00a1ee" stop-opacity="0.2"/>
      <stop offset="1.0" stop-color="#75ffff"/>
    </linearGradient>
    <linearGradient gradientTransform="matrix(0.0863, 0.0, 0.0, 0.6194, 91.85, 209.3)" gradientUnits="userSpaceOnUse" id="gradient10" spreadMethod="pad" x1="-819.2" x2="819.2">
      <stop offset="0.0" stop-color="#00a1ee" stop-opacity="0.2"/>
      <stop offset="1.0" stop-color="#75ffff"/>
    </linearGradient>
    <linearGradient gradientTransform="matrix(-0.0431, 0.0747, 0.5363, 0.3096, 238.4, 124.65)" gradientUnits="userSpaceOnUse" id="gradient11" spreadMethod="pad" x1="-819.2" x2="819.2">
      <stop offset="0.0" stop-color="#00a1ee" stop-opacity="0.09803922"/>
      <stop offset="1.0" stop-color="#75ffff"/>
    </linearGradient>
  </defs>
</svg>
