<?xml version="1.0" encoding="UTF-8" standalone="no"?>
<svg xmlns:ffdec="https://www.free-decompiler.com/flash" xmlns:xlink="http://www.w3.org/1999/xlink" ffdec:objectType="shape" height="29.35px" width="33.2px" xmlns="http://www.w3.org/2000/svg">
  <g transform="matrix(1.0, 0.0, 0.0, 1.0, 0.5, 0.5)">
    <path d="M29.45 6.65 Q29.0 5.7 28.1 5.25 23.95 3.2 19.15 4.0 L19.15 16.15 Q23.0 16.75 26.7 15.6 L28.05 14.85 Q31.6 11.4 29.45 6.65 M30.2 19.6 L26.65 23.0 32.2 27.8 28.9 27.9 25.4 24.1 22.25 27.05 20.55 27.05 24.65 23.25 20.05 18.3 19.15 18.3 19.05 28.35 17.6 28.35 17.7 16.1 17.75 5.35 Q17.7 2.8 15.2 2.2 12.5 2.9 10.5 4.65 L10.6 28.2 9.15 28.2 Q9.0 21.4 9.3 14.55 9.45 10.45 9.25 6.55 9.1 3.95 6.95 2.85 6.35 2.65 5.75 2.85 3.4 3.4 1.45 5.15 L1.45 28.2 0.0 28.2 0.05 2.55 0.25 0.4 0.4 0.15 1.45 0.0 1.45 2.7 Q4.8 -1.3 8.75 1.1 9.4 1.5 9.7 2.3 L9.9 3.25 Q11.95 0.15 15.55 0.55 L16.25 0.75 Q19.3 3.5 23.6 2.75 29.25 1.5 31.25 6.85 32.95 11.5 29.7 15.3 26.3 19.1 21.15 18.25 L25.75 22.2 28.3 19.8 30.2 19.6" fill="#999999" fill-opacity="0.6" fill-rule="evenodd" stroke="none"/>
    <path d="M29.45 6.65 Q31.6 11.4 28.05 14.85 L26.7 15.6 Q23.0 16.75 19.15 16.15 L19.15 4.0 Q23.95 3.2 28.1 5.25 29.0 5.7 29.45 6.65 M30.2 19.6 L26.65 23.0 32.2 27.8 28.9 27.9 25.4 24.1 22.25 27.05 20.55 27.05 24.65 23.25 20.05 18.3 19.15 18.3 19.05 28.35 17.6 28.35 17.7 16.1 17.75 5.35 Q17.7 2.8 15.2 2.2 12.5 2.9 10.5 4.65 L10.6 28.2 9.15 28.2 Q9.0 21.4 9.3 14.55 9.45 10.45 9.25 6.55 9.1 3.95 6.95 2.85 6.35 2.65 5.75 2.85 3.4 3.4 1.45 5.15 L1.45 28.2 0.0 28.2 0.05 2.55 0.25 0.4 0.4 0.15 1.45 0.0 1.45 2.7 Q4.8 -1.3 8.75 1.1 9.4 1.5 9.7 2.3 L9.9 3.25 Q11.95 0.15 15.55 0.55 L16.25 0.75 Q19.3 3.5 23.6 2.75 29.25 1.5 31.25 6.85 32.95 11.5 29.7 15.3 26.3 19.1 21.15 18.25 L25.75 22.2 28.3 19.8 30.2 19.6 Z" fill="none" stroke="#333333" stroke-linecap="round" stroke-linejoin="round" stroke-opacity="0.6" stroke-width="1.0"/>
  </g>
</svg>
