<?xml version="1.0" encoding="UTF-8" standalone="no"?>
<svg xmlns:ffdec="https://www.free-decompiler.com/flash" xmlns:xlink="http://www.w3.org/1999/xlink" ffdec:objectType="shape" height="25.1px" width="28.35px" xmlns="http://www.w3.org/2000/svg">
  <g transform="matrix(1.0, 0.0, 0.0, 1.0, 0.5, 0.5)">
    <path d="M25.05 5.65 L23.9 4.45 Q20.35 2.7 16.3 3.4 L16.3 13.75 Q19.55 14.25 22.7 13.25 L23.85 12.6 Q26.85 9.7 25.05 5.65 M21.6 20.5 L18.9 23.0 17.45 23.0 20.95 19.75 17.05 15.55 16.3 15.55 16.2 24.1 14.95 24.1 15.05 13.7 15.1 4.55 Q15.05 2.4 12.9 1.85 10.6 2.45 8.9 3.95 L9.0 23.95 7.8 23.95 Q7.65 18.2 7.9 12.35 8.05 8.9 7.85 5.55 7.75 3.35 5.9 2.4 5.4 2.25 4.9 2.4 2.9 2.9 1.25 4.4 L1.25 23.95 0.0 23.95 0.05 2.15 0.2 0.35 0.35 0.15 1.25 0.0 1.25 2.3 Q4.1 -1.1 7.45 0.95 8.0 1.25 8.25 1.95 L8.4 2.75 Q10.15 0.15 13.2 0.45 L13.8 0.65 Q16.4 2.95 20.05 2.35 24.85 1.25 26.55 5.8 28.0 9.75 25.25 13.0 22.35 16.25 18.0 15.5 L21.9 18.85 24.05 16.85 25.65 16.65 22.65 19.55 27.35 23.65 24.55 23.7 21.6 20.5" fill="#00ffff" fill-rule="evenodd" stroke="none"/>
    <path d="M25.05 5.65 Q26.85 9.7 23.85 12.6 L22.7 13.25 Q19.55 14.25 16.3 13.75 L16.3 3.4 Q20.35 2.7 23.9 4.45 L25.05 5.65" fill="none" stroke="url(#gradient0)" stroke-linecap="round" stroke-linejoin="round" stroke-width="1.0"/>
    <path d="M21.6 20.5 L18.9 23.0 17.45 23.0 20.95 19.75 17.05 15.55 16.3 15.55 16.2 24.1 14.95 24.1 15.05 13.7 15.1 4.55 Q15.05 2.4 12.9 1.85 10.6 2.45 8.9 3.95 L9.0 23.95 7.8 23.95 Q7.65 18.2 7.9 12.35 8.05 8.9 7.85 5.55 7.75 3.35 5.9 2.4 5.4 2.25 4.9 2.4 2.9 2.9 1.25 4.4 L1.25 23.95 0.0 23.95 0.05 2.15 0.2 0.35 0.35 0.15 1.25 0.0 1.25 2.3 Q4.1 -1.1 7.45 0.95 8.0 1.25 8.25 1.95 L8.4 2.75 Q10.15 0.15 13.2 0.45 L13.8 0.65 Q16.4 2.95 20.05 2.35 24.85 1.25 26.55 5.8 28.0 9.75 25.25 13.0 22.35 16.25 18.0 15.5 L21.9 18.85 24.05 16.85 25.65 16.65 22.65 19.55 27.35 23.65 24.55 23.7 21.6 20.5 Z" fill="none" stroke="url(#gradient1)" stroke-linecap="round" stroke-linejoin="round" stroke-width="1.0"/>
  </g>
  <defs>
    <linearGradient gradientTransform="matrix(0.0063, 0.0, 0.0, 0.007, 21.0, 8.55)" gradientUnits="userSpaceOnUse" id="gradient0" spreadMethod="pad" x1="-819.2" x2="819.2">
      <stop offset="0.0" stop-color="#0d63bf"/>
      <stop offset="0.09019607843137255" stop-color="#0d5ac3"/>
      <stop offset="0.24313725490196078" stop-color="#0d4fc7"/>
      <stop offset="1.0" stop-color="#005cff"/>
    </linearGradient>
    <linearGradient gradientTransform="matrix(0.0172, 0.0, 0.0, 0.0152, 13.7, 12.05)" gradientUnits="userSpaceOnUse" id="gradient1" spreadMethod="pad" x1="-819.2" x2="819.2">
      <stop offset="0.0" stop-color="#0d63bf"/>
      <stop offset="0.09019607843137255" stop-color="#0d5ac3"/>
      <stop offset="0.24313725490196078" stop-color="#0d4fc7"/>
      <stop offset="1.0" stop-color="#005cff"/>
    </linearGradient>
  </defs>
</svg>
