<?xml version="1.0" encoding="UTF-8" standalone="no"?>
<svg xmlns:ffdec="https://www.free-decompiler.com/flash" xmlns:xlink="http://www.w3.org/1999/xlink" ffdec:objectType="shape" height="36.45px" width="33.0px" xmlns="http://www.w3.org/2000/svg">
  <g transform="matrix(1.0, 0.0, 0.0, 1.0, 0.5, 0.5)">
    <path d="M23.2 2.35 L22.95 4.65 Q22.95 8.0 24.35 11.1 25.2 12.85 27.5 16.15 L30.6 21.35 Q32.0 24.5 32.0 28.0 32.0 30.4 30.8 32.45 29.1 35.45 25.5 35.45 L23.45 35.25 22.85 35.0 Q20.05 33.7 19.2 31.9 L18.35 30.35 17.7 29.45 17.7 29.3 17.45 28.7 17.25 27.9 17.25 27.7 17.25 27.5 17.2 27.45 17.25 27.3 17.25 27.25 Q17.25 27.15 17.6 27.15 18.15 28.35 19.2 29.5 21.25 31.85 23.5 31.85 26.3 31.85 27.25 29.85 27.8 28.85 27.8 27.5 27.8 25.55 26.55 23.45 L23.95 19.55 Q20.7 15.15 20.15 11.35 L11.7 31.15 0.0 4.85 2.0 0.1 12.45 22.85 21.1 3.65 21.25 3.15 Q21.4 3.0 21.5 3.15 22.1 1.85 23.05 0.85 L23.35 0.0 23.2 2.35" fill="#00adee" fill-rule="evenodd" stroke="none"/>
    <path d="M23.2 2.35 L22.95 4.65 Q22.95 8.0 24.35 11.1 25.2 12.85 27.5 16.15 L30.6 21.35 Q32.0 24.5 32.0 28.0 32.0 30.4 30.8 32.45 29.1 35.45 25.5 35.45 L23.45 35.25 22.85 35.0 Q20.05 33.7 19.2 31.9 L18.35 30.35 17.7 29.45 17.7 29.3 17.45 28.7 17.25 27.9 17.25 27.7 17.25 27.5 17.2 27.45 17.25 27.3 17.25 27.25 Q17.25 27.15 17.6 27.15 18.15 28.35 19.2 29.5 21.25 31.85 23.5 31.85 26.3 31.85 27.25 29.85 27.8 28.85 27.8 27.5 27.8 25.55 26.55 23.45 L23.95 19.55 Q20.7 15.15 20.15 11.35 L11.7 31.15 0.0 4.85 2.0 0.1 12.45 22.85 21.1 3.65 21.25 3.15 Q21.4 3.0 21.5 3.15 22.1 1.85 23.05 0.85 L23.35 0.0 23.2 2.35 Z" fill="none" stroke="#25ffff" stroke-linecap="round" stroke-linejoin="round" stroke-width="1.0"/>
  </g>
</svg>
