<?xml version="1.0" encoding="UTF-8" standalone="no"?>
<svg xmlns:ffdec="https://www.free-decompiler.com/flash" xmlns:xlink="http://www.w3.org/1999/xlink" ffdec:objectType="shape" height="23.1px" width="33.0px" xmlns="http://www.w3.org/2000/svg">
  <g transform="matrix(1.0, 0.0, 0.0, 1.0, 0.5, 0.5)">
    <path d="M31.75 1.7 L32.0 1.9 31.7 2.25 21.95 2.25 Q22.2 3.3 22.2 12.8 L22.2 17.1 22.25 19.6 22.25 20.2 31.45 20.15 31.65 20.45 31.65 20.6 31.7 21.4 31.7 21.5 31.45 22.1 31.35 22.05 2.25 22.05 0.1 21.95 0.0 21.65 0.15 21.7 0.1 21.4 0.1 21.35 0.15 20.7 0.15 20.55 0.1 20.4 0.2 20.2 0.3 20.1 0.35 20.15 0.6 20.1 2.2 20.2 9.6 20.2 9.5 19.6 9.6 17.5 9.65 2.25 2.1 2.2 0.85 2.1 0.8 2.1 Q0.6 2.1 0.6 1.55 L0.4 1.45 0.6 1.45 0.6 1.2 0.6 1.0 0.6 0.95 0.6 0.85 0.6 0.8 0.65 0.6 0.6 0.55 Q0.5 0.35 0.65 0.3 L0.6 0.25 0.9 0.0 31.6 0.0 31.65 0.05 31.75 0.05 31.9 0.3 31.8 0.5 31.85 1.3 31.75 1.7 M19.65 2.25 L11.9 2.25 12.1 19.0 12.1 20.2 19.45 20.2 19.45 7.45 19.5 7.35 19.5 2.95 19.65 2.25 M1.1 1.35 L1.0 1.3 1.0 1.35 1.1 1.35" fill="#999999" fill-opacity="0.6" fill-rule="evenodd" stroke="none"/>
    <path d="M31.75 1.7 L32.0 1.9 31.7 2.25 21.95 2.25 Q22.2 3.3 22.2 12.8 L22.2 17.1 22.25 19.6 22.25 20.2 31.45 20.15 31.65 20.45 31.65 20.6 31.7 21.4 31.7 21.5 31.45 22.1 31.35 22.05 2.25 22.05 0.1 21.95 0.0 21.65 0.15 21.7 0.1 21.4 0.1 21.35 0.15 20.7 0.15 20.55 0.1 20.4 0.2 20.2 0.3 20.1 0.35 20.15 0.6 20.1 2.2 20.2 9.6 20.2 9.5 19.6 9.6 17.5 9.65 2.25 2.1 2.2 0.85 2.1 0.8 2.1 Q0.6 2.1 0.6 1.55 L0.4 1.45 0.6 1.45 0.6 1.2 0.6 1.0 0.6 0.95 0.6 0.85 0.6 0.8 0.65 0.6 0.6 0.55 Q0.5 0.35 0.65 0.3 L0.6 0.25 0.9 0.0 31.6 0.0 31.65 0.05 31.75 0.05 31.9 0.3 31.8 0.5 31.85 1.3 31.75 1.7 M19.65 2.25 L11.9 2.25 12.1 19.0 12.1 20.2 19.45 20.2 19.45 7.45 19.5 7.35 19.5 2.95 19.65 2.25 Z" fill="none" stroke="#333333" stroke-linecap="round" stroke-linejoin="round" stroke-opacity="0.6" stroke-width="1.0"/>
  </g>
</svg>
