<?xml version="1.0" encoding="UTF-8" standalone="no"?>
<svg xmlns:ffdec="https://www.free-decompiler.com/flash" xmlns:xlink="http://www.w3.org/1999/xlink" ffdec:objectType="shape" height="26.95px" width="37.55px" xmlns="http://www.w3.org/2000/svg">
  <g transform="matrix(1.0, 0.0, 0.0, 1.0, 0.5, 0.5)">
    <path d="M29.55 12.05 L29.45 13.05 28.25 17.8 27.15 19.75 35.35 19.75 36.1 20.95 35.7 21.55 22.9 21.55 22.8 21.45 Q23.15 19.65 24.7 18.25 L26.45 16.25 Q27.75 14.3 27.7 12.0 27.6 9.45 26.45 7.25 25.45 5.45 23.9 4.1 22.4 2.8 20.55 2.1 L19.25 1.85 Q16.3 1.4 13.65 2.7 12.6 3.2 11.75 4.15 10.3 5.7 9.3 7.5 7.85 10.05 7.7 12.85 7.65 14.45 8.6 15.7 L9.9 17.05 14.05 20.1 13.95 21.1 13.9 21.5 13.6 21.7 13.15 21.75 4.75 21.7 0.8 21.3 0.85 20.15 1.05 19.8 2.75 19.7 8.8 19.55 Q7.15 17.85 6.45 15.8 5.8 13.7 6.3 11.35 6.75 9.05 7.85 6.9 8.95 4.8 10.65 3.4 12.5 1.9 14.6 1.0 16.85 -0.1 19.3 0.0 21.7 0.3 23.75 1.5 25.9 2.7 27.25 4.65 28.45 6.5 29.05 8.65 29.5 10.25 29.55 12.05 M24.2 24.05 L25.65 24.0 31.7 23.95 32.2 23.95 35.15 23.95 Q35.8 23.8 36.2 24.25 L36.55 24.95 Q36.55 25.9 35.15 25.95 L4.15 25.85 0.6 25.6 Q0.0 25.45 0.0 25.0 0.0 24.5 0.45 24.3 L4.15 24.05 24.15 24.0 24.2 24.05" fill="#00adee" fill-rule="evenodd" stroke="none"/>
    <path d="M29.55 12.05 L29.45 13.05 28.25 17.8 27.15 19.75 35.35 19.75 36.1 20.95 35.7 21.55 22.9 21.55 22.8 21.45 Q23.15 19.65 24.7 18.25 L26.45 16.25 Q27.75 14.3 27.7 12.0 27.6 9.45 26.45 7.25 25.45 5.45 23.9 4.1 22.4 2.8 20.55 2.1 L19.25 1.85 Q16.3 1.4 13.65 2.7 12.6 3.2 11.75 4.15 10.3 5.7 9.3 7.5 7.85 10.05 7.7 12.85 7.65 14.45 8.6 15.7 L9.9 17.05 14.05 20.1 13.95 21.1 13.9 21.5 13.6 21.7 13.15 21.75 4.75 21.7 0.8 21.3 0.85 20.15 1.05 19.8 2.75 19.7 8.8 19.55 Q7.15 17.85 6.45 15.8 5.8 13.7 6.3 11.35 6.75 9.05 7.85 6.9 8.95 4.8 10.65 3.4 12.5 1.9 14.6 1.0 16.85 -0.1 19.3 0.0 21.7 0.3 23.75 1.5 25.9 2.7 27.25 4.65 28.45 6.5 29.05 8.65 29.5 10.25 29.55 12.05 M24.2 24.05 L24.15 24.0 4.15 24.05 0.45 24.3 Q0.0 24.5 0.0 25.0 0.0 25.45 0.6 25.6 L4.15 25.85 35.15 25.95 Q36.55 25.9 36.55 24.95 L36.2 24.25 Q35.8 23.8 35.15 23.95 L32.2 23.95 31.7 23.95 25.65 24.0 24.2 24.05 Z" fill="none" stroke="#25ffff" stroke-linecap="round" stroke-linejoin="round" stroke-width="1.0"/>
  </g>
</svg>
