<?xml version="1.0" encoding="UTF-8" standalone="no"?>
<svg xmlns:ffdec="https://www.free-decompiler.com/flash" xmlns:xlink="http://www.w3.org/1999/xlink" ffdec:objectType="shape" height="32.8px" width="34.4px" xmlns="http://www.w3.org/2000/svg">
  <g transform="matrix(1.0, 0.0, 0.0, 1.0, 0.5, 0.5)">
    <path d="M23.75 2.25 Q27.6 -0.55 32.9 1.3 24.15 3.0 20.75 7.8 18.75 10.6 18.55 14.8 L22.45 14.75 26.5 15.1 Q27.05 15.2 27.05 15.6 27.05 15.95 26.7 16.1 L25.65 16.45 18.5 16.4 Q18.65 20.7 21.05 23.65 L22.9 25.75 Q24.1 26.85 25.75 27.55 L31.05 29.05 Q33.4 29.65 33.4 30.7 33.5 31.8 32.25 31.8 27.0 31.8 22.2 27.75 17.25 23.55 16.7 17.4 15.95 23.15 11.2 27.2 6.4 31.25 1.15 31.25 -0.1 31.25 0.0 30.15 0.0 29.1 2.35 28.5 L7.65 27.0 Q9.3 26.3 10.5 25.2 L12.35 23.1 Q14.6 20.35 14.9 16.4 L11.85 16.35 7.5 16.15 Q7.35 16.15 6.55 15.6 L6.6 15.0 11.85 14.85 14.9 14.85 Q14.8 10.25 12.65 7.25 9.25 2.45 0.5 0.75 5.8 -1.1 9.65 1.7 L14.25 6.35 Q16.35 8.9 16.75 13.35 17.15 9.25 19.15 6.9 L23.75 2.25" fill="#999999" fill-opacity="0.6" fill-rule="evenodd" stroke="none"/>
    <path d="M23.75 2.25 L19.15 6.9 Q17.15 9.25 16.75 13.35 16.35 8.9 14.25 6.35 L9.65 1.7 Q5.8 -1.1 0.5 0.75 9.25 2.45 12.65 7.25 14.8 10.25 14.9 14.85 L11.85 14.85 6.6 15.0 6.55 15.6 Q7.35 16.15 7.5 16.15 L11.85 16.35 14.9 16.4 Q14.6 20.35 12.35 23.1 L10.5 25.2 Q9.3 26.3 7.65 27.0 L2.35 28.5 Q0.0 29.1 0.0 30.15 -0.1 31.25 1.15 31.25 6.4 31.25 11.2 27.2 15.95 23.15 16.7 17.4 17.25 23.55 22.2 27.75 27.0 31.8 32.25 31.8 33.5 31.8 33.4 30.7 33.4 29.65 31.05 29.05 L25.75 27.55 Q24.1 26.85 22.9 25.75 L21.05 23.65 Q18.65 20.7 18.5 16.4 L25.65 16.45 26.7 16.1 Q27.05 15.95 27.05 15.6 27.05 15.2 26.5 15.1 L22.45 14.75 18.55 14.8 Q18.75 10.6 20.75 7.8 24.15 3.0 32.9 1.3 27.6 -0.55 23.75 2.25 Z" fill="none" stroke="#333333" stroke-linecap="round" stroke-linejoin="round" stroke-opacity="0.6" stroke-width="1.0"/>
  </g>
</svg>
