<?xml version="1.0" encoding="UTF-8" standalone="no"?>
<svg xmlns:ffdec="https://www.free-decompiler.com/flash" xmlns:xlink="http://www.w3.org/1999/xlink" ffdec:objectType="shape" height="35.35px" width="33.0px" xmlns="http://www.w3.org/2000/svg">
  <g transform="matrix(1.0, 0.0, 0.0, 1.0, 0.5, 0.5)">
    <path d="M32.0 16.6 L26.95 20.25 26.95 7.6 17.75 19.05 26.2 27.2 19.55 27.2 14.9 22.6 5.5 34.35 0.0 34.35 11.9 19.6 2.8 10.45 9.05 10.45 14.75 16.1 24.35 4.1 12.5 4.1 15.2 0.0 32.0 0.0 32.0 16.6" fill="#999999" fill-opacity="0.6" fill-rule="evenodd" stroke="none"/>
    <path d="M32.0 16.6 L32.0 0.0 15.2 0.0 12.5 4.1 24.35 4.1 14.75 16.1 9.05 10.45 2.8 10.45 11.9 19.6 0.0 34.35 5.5 34.35 14.9 22.6 19.55 27.2 26.2 27.2 17.75 19.05 26.95 7.6 26.95 20.25 32.0 16.6 Z" fill="none" stroke="#333333" stroke-linecap="round" stroke-linejoin="round" stroke-opacity="0.6" stroke-width="1.0"/>
  </g>
</svg>
