<?xml version="1.0" encoding="UTF-8" standalone="no"?>
<svg xmlns:ffdec="https://www.free-decompiler.com/flash" xmlns:xlink="http://www.w3.org/1999/xlink" ffdec:objectType="shape" height="39.05px" width="38.95px" xmlns="http://www.w3.org/2000/svg">
  <g transform="matrix(1.0, 0.0, 0.0, 1.0, 0.5, 0.5)">
    <path d="M33.2 28.5 L34.75 29.45 Q30.55 35.75 23.2 37.5 15.8 39.25 9.25 35.35 5.5 33.05 3.15 29.45 L4.75 28.55 Q6.9 31.75 10.2 33.75 16.05 37.25 22.75 35.7 29.4 34.2 33.2 28.5" fill="#0073ff" fill-rule="evenodd" stroke="none"/>
    <path d="M33.2 28.5 L34.75 29.45 Q30.55 35.75 23.2 37.5 15.8 39.25 9.25 35.35 5.5 33.05 3.15 29.45 L4.75 28.55 Q6.9 31.75 10.2 33.75 16.05 37.25 22.75 35.7 29.4 34.2 33.2 28.5 Z" fill="none" stroke="#006dff" stroke-linecap="butt" stroke-linejoin="miter-clip" stroke-miterlimit="4.0" stroke-width="1.0"/>
    <path d="M10.35 4.1 Q6.5 6.35 4.2 10.2 1.9 14.05 1.8 18.5 1.7 22.85 3.65 26.7 L2.1 27.6 Q-0.1 23.25 0.0 18.5 0.1 13.5 2.65 9.25 5.2 4.95 9.5 2.5 13.65 0.1 18.45 0.0 L18.45 1.8 Q14.1 1.95 10.35 4.1" fill="#0073ff" fill-rule="evenodd" stroke="none"/>
    <path d="M10.35 4.1 Q6.5 6.35 4.2 10.2 1.9 14.05 1.8 18.5 1.7 22.85 3.65 26.7 L2.1 27.6 Q-0.1 23.25 0.0 18.5 0.1 13.5 2.65 9.25 5.2 4.95 9.5 2.5 13.65 0.1 18.45 0.0 L18.45 1.8 Q14.1 1.95 10.35 4.1 Z" fill="none" stroke="#006dff" stroke-linecap="butt" stroke-linejoin="miter-clip" stroke-miterlimit="4.0" stroke-width="1.0"/>
    <path d="M35.85 27.6 L34.3 26.65 Q37.3 20.6 35.4 14.15 33.55 7.65 27.75 4.2 24.5 2.25 20.6 1.85 L20.6 0.05 Q25.1 0.45 28.65 2.6 35.1 6.45 37.2 13.7 39.25 20.95 35.85 27.6" fill="#0073ff" fill-rule="evenodd" stroke="none"/>
    <path d="M35.85 27.6 L34.3 26.65 Q37.3 20.6 35.4 14.15 33.55 7.65 27.75 4.2 24.5 2.25 20.6 1.85 L20.6 0.05 Q25.1 0.45 28.65 2.6 35.1 6.45 37.2 13.7 39.25 20.95 35.85 27.6 Z" fill="none" stroke="#006dff" stroke-linecap="butt" stroke-linejoin="miter-clip" stroke-miterlimit="4.0" stroke-width="1.0"/>
  </g>
</svg>
