<?xml version="1.0" encoding="UTF-8" standalone="no"?>
<svg xmlns:ffdec="https://www.free-decompiler.com/flash" xmlns:xlink="http://www.w3.org/1999/xlink" ffdec:objectType="shape" height="34.6px" width="33.5px" xmlns="http://www.w3.org/2000/svg">
  <g transform="matrix(1.0, 0.0, 0.0, 1.0, -0.75, 0.8)">
    <path d="M33.4 9.05 Q33.15 9.95 29.4 14.8 25.35 19.95 24.3 19.65 22.8 19.25 21.95 12.4 L21.8 10.4 20.5 12.35 Q16.9 17.55 15.4 17.15 13.3 16.6 12.9 10.3 L12.7 10.55 Q9.55 15.25 8.3 15.75 7.05 16.25 4.55 7.7 L3.65 1.1 Q3.85 0.4 4.35 0.0 4.8 -0.4 5.4 -0.25 6.3 0.0 7.4 3.4 L9.2 11.3 Q10.0 9.7 10.8 7.15 L12.5 2.45 Q13.45 0.25 14.9 1.8 15.65 2.6 15.7 3.85 L15.8 6.35 16.65 13.05 18.85 8.2 Q19.6 6.1 20.8 4.4 22.0 2.7 23.35 3.7 24.45 4.5 24.1 6.2 L24.7 8.2 25.6 15.0 Q29.45 8.85 31.3 7.2 34.7 4.2 33.4 9.05 M22.3 21.85 Q22.75 23.5 23.2 28.65 27.0 22.5 28.85 20.85 32.3 17.9 31.0 22.75 30.75 23.65 27.0 28.4 23.0 33.6 21.9 33.3 20.4 32.9 19.55 26.0 L19.45 24.05 18.05 25.95 Q14.5 31.15 13.0 30.75 10.85 30.2 10.45 23.95 L10.35 24.2 Q7.15 28.9 5.95 29.4 4.65 29.85 2.15 21.35 L1.25 14.75 Q1.45 14.0 1.9 13.65 2.45 13.25 3.0 13.4 3.95 13.65 4.95 17.05 L6.75 24.95 8.35 20.8 Q9.15 18.25 10.1 16.05 11.0 13.9 12.45 15.4 13.2 16.25 13.25 17.5 L13.4 19.95 14.3 26.65 16.45 21.9 Q17.15 19.7 18.35 18.05 19.55 16.35 20.9 17.3 22.0 18.2 21.7 19.85 L22.3 21.85" fill="#00adee" fill-rule="evenodd" stroke="none"/>
    <path d="M33.4 9.05 Q33.15 9.95 29.4 14.8 25.35 19.95 24.3 19.65 22.8 19.25 21.95 12.4 L21.8 10.4 20.5 12.35 Q16.9 17.55 15.4 17.15 13.3 16.6 12.9 10.3 L12.7 10.55 Q9.55 15.25 8.3 15.75 7.05 16.25 4.55 7.7 L3.65 1.1 Q3.85 0.4 4.35 0.0 4.8 -0.4 5.4 -0.25 6.3 0.0 7.4 3.4 L9.2 11.3 Q10.0 9.7 10.8 7.15 L12.5 2.45 Q13.45 0.25 14.9 1.8 15.65 2.6 15.7 3.85 L15.8 6.35 16.65 13.05 18.85 8.2 Q19.6 6.1 20.8 4.4 22.0 2.7 23.35 3.7 24.45 4.5 24.1 6.2 L24.7 8.2 25.6 15.0 Q29.45 8.85 31.3 7.2 34.7 4.2 33.4 9.05 M22.3 21.85 Q22.75 23.5 23.2 28.65 27.0 22.5 28.85 20.85 32.3 17.9 31.0 22.75 30.75 23.65 27.0 28.4 23.0 33.6 21.9 33.3 20.4 32.9 19.55 26.0 L19.45 24.05 18.05 25.95 Q14.5 31.15 13.0 30.75 10.85 30.2 10.45 23.95 L10.35 24.2 Q7.15 28.9 5.95 29.4 4.65 29.85 2.15 21.35 L1.25 14.75 Q1.45 14.0 1.9 13.65 2.45 13.25 3.0 13.4 3.95 13.65 4.95 17.05 L6.75 24.95 8.35 20.8 Q9.15 18.25 10.1 16.05 11.0 13.9 12.45 15.4 13.2 16.25 13.25 17.5 L13.4 19.95 14.3 26.65 16.45 21.9 Q17.15 19.7 18.35 18.05 19.55 16.35 20.9 17.3 22.0 18.2 21.7 19.85 L22.3 21.85 Z" fill="none" stroke="#25ffff" stroke-linecap="round" stroke-linejoin="round" stroke-width="1.0"/>
  </g>
</svg>
