<?xml version="1.0" encoding="UTF-8" standalone="no"?>
<svg xmlns:ffdec="https://www.free-decompiler.com/flash" xmlns:xlink="http://www.w3.org/1999/xlink" ffdec:objectType="shape" height="385.2px" width="336.0px" xmlns="http://www.w3.org/2000/svg">
  <g transform="matrix(1.0, 0.0, 0.0, 1.0, 19.7, 2.95)">
    <path d="M70.6 38.55 L70.9 38.75 70.95 39.15 70.75 39.45 70.4 39.55 70.05 39.3 70.0 38.95 70.2 38.6 70.6 38.55 M73.5 36.5 L73.85 36.4 74.15 36.6 74.25 37.0 74.0 37.3 73.65 37.4 73.35 37.2 73.3 36.8 73.5 36.5 M77.1 35.35 L77.0 34.95 77.2 34.65 77.6 34.6 77.9 34.8 78.0 35.15 77.8 35.5 77.4 35.55 77.1 35.35 M85.3 31.65 L85.35 32.05 85.15 32.35 84.75 32.45 84.5 32.2 84.4 31.85 84.65 31.5 84.95 31.45 85.3 31.65 M88.0 30.75 Q87.9 30.55 87.95 30.35 L88.15 30.05 88.55 29.95 88.85 30.2 88.95 30.55 88.7 30.9 88.35 30.95 Q88.15 30.95 88.0 30.75 M81.0 33.0 L81.35 33.0 Q81.55 33.0 81.7 33.15 L81.75 33.55 81.55 33.85 81.15 33.95 80.85 33.7 80.75 33.35 81.0 33.0 M83.9 40.1 L84.3 40.05 84.6 40.25 84.7 40.65 84.5 40.95 84.1 41.0 83.8 40.8 83.7 40.45 83.9 40.1 M88.85 41.35 L89.05 41.0 89.45 40.95 89.75 41.15 89.85 41.55 89.6 41.85 89.25 41.95 88.9 41.7 88.85 41.35 M87.65 39.65 L87.6 39.25 87.8 39.0 88.15 38.9 Q88.35 38.95 88.45 39.1 L88.55 39.45 88.3 39.75 87.95 39.85 87.65 39.65 M95.4 28.0 L95.35 27.6 95.55 27.3 95.95 27.2 96.25 27.45 96.35 27.8 96.1 28.15 95.75 28.2 95.4 28.0 M91.7 29.35 L91.6 29.0 91.85 28.65 92.2 28.6 92.55 28.8 92.55 29.2 92.4 29.5 92.0 29.6 91.7 29.35 M99.0 26.65 L98.95 26.25 99.15 25.95 99.55 25.85 99.85 26.1 99.95 26.45 99.7 26.8 99.35 26.85 99.0 26.65 M102.7 23.9 L103.1 23.8 103.35 24.05 103.45 24.4 103.2 24.75 102.9 24.8 102.55 24.6 102.5 24.2 102.7 23.9 M112.7 11.2 L113.0 11.4 113.1 11.8 112.85 12.1 112.5 12.2 112.15 12.0 112.1 11.8 111.7 11.9 111.4 11.65 111.3 11.3 111.55 10.95 111.9 10.9 112.25 11.1 112.3 11.3 112.7 11.2 M110.15 14.6 L110.55 14.5 110.85 14.75 110.95 15.1 110.75 15.45 110.35 15.5 110.05 15.3 110.0 14.9 110.15 14.6 M115.75 13.85 L115.65 13.5 115.9 13.15 116.25 13.15 Q116.45 13.15 116.6 13.3 L116.65 13.7 116.45 14.0 116.05 14.1 115.75 13.85 M118.65 16.9 L118.6 16.5 118.8 16.2 119.2 16.15 119.5 16.35 119.55 16.7 119.35 17.05 119.0 17.1 Q118.8 17.1 118.65 16.9 M119.25 13.15 L119.5 12.85 119.85 12.75 120.2 13.0 120.2 13.35 120.05 13.7 119.65 13.75 119.35 13.55 119.25 13.15 M115.95 11.15 L116.3 11.05 Q116.5 11.1 116.65 11.3 L116.7 11.65 116.5 12.0 116.1 12.05 115.8 11.85 115.7 11.45 115.95 11.15 M108.3 18.1 L108.7 18.05 109.0 18.25 109.1 18.65 108.85 18.95 108.5 19.0 108.15 18.8 108.1 18.45 108.3 18.1 M105.65 21.95 L105.55 21.55 105.8 21.25 106.15 21.15 106.45 21.4 106.5 21.75 106.3 22.1 105.95 22.15 105.65 21.95 M116.8 24.05 L116.7 23.7 116.9 23.35 117.3 23.3 117.6 23.5 117.7 23.9 117.5 24.2 117.1 24.3 116.8 24.05 M118.0 20.55 L118.25 20.25 118.6 20.15 118.9 20.4 118.95 20.75 118.75 21.05 118.4 21.1 118.1 20.9 118.0 20.55 M120.3 21.95 L120.2 21.6 120.4 21.3 120.8 21.25 121.05 21.45 121.15 21.8 120.95 22.1 120.6 22.2 120.3 21.95 M122.2 15.9 L122.5 16.15 122.6 16.5 122.4 16.85 122.0 16.85 121.75 16.7 121.65 16.3 121.85 16.0 122.2 15.9 M121.85 17.55 L122.25 17.5 122.55 17.7 122.65 18.1 122.4 18.4 122.05 18.5 121.7 18.25 121.65 17.9 121.85 17.55 M125.65 17.75 L126.05 17.7 126.35 17.9 126.45 18.3 126.25 18.6 125.85 18.7 125.55 18.45 125.45 18.1 125.65 17.75 M129.4 19.2 L129.3 18.8 129.55 18.5 129.9 18.4 130.25 18.65 130.3 19.0 130.1 19.35 129.7 19.4 129.4 19.2 M121.3 45.1 L121.65 45.0 122.0 45.25 122.05 45.6 121.85 45.95 121.45 46.0 121.15 45.8 121.05 45.4 121.3 45.1 M120.7 48.7 L121.05 48.9 121.1 49.3 120.9 49.6 120.5 49.7 120.2 49.45 120.15 49.1 120.35 48.75 120.7 48.7 M122.4 41.3 L122.75 41.25 123.1 41.45 123.15 41.8 122.95 42.1 122.55 42.2 122.25 41.95 122.15 41.6 Q122.2 41.4 122.4 41.3 M123.7 38.2 L123.6 37.8 123.85 37.5 124.2 37.4 Q124.4 37.45 124.55 37.65 L124.6 38.0 124.4 38.35 124.0 38.4 123.7 38.2 M125.55 34.65 L125.5 34.3 125.7 33.95 126.05 33.9 126.35 34.1 126.45 34.5 126.2 34.8 125.85 34.85 125.55 34.65 M128.25 31.0 L128.6 30.9 128.9 31.15 128.95 31.5 128.75 31.85 128.4 31.9 128.1 31.7 128.0 31.3 128.25 31.0 M134.0 41.3 L134.35 41.25 134.7 41.45 134.75 41.8 134.55 42.15 134.15 42.2 133.85 42.0 133.8 41.6 134.0 41.3 M135.0 40.95 L134.9 40.6 135.15 40.25 135.5 40.2 135.85 40.4 135.9 40.8 135.7 41.1 135.3 41.2 135.0 40.95 M135.4 43.8 L135.75 44.05 135.8 44.35 135.6 44.7 135.2 44.75 134.9 44.55 134.8 44.15 Q134.85 43.95 135.05 43.9 L135.4 43.8 M135.25 44.9 Q135.45 44.95 135.55 45.15 L135.6 45.5 135.4 45.85 135.05 45.9 134.7 45.7 Q134.6 45.5 134.65 45.3 L134.85 45.0 135.25 44.9 M138.2 47.35 L138.6 47.3 138.9 47.5 139.0 47.9 138.8 48.2 138.4 48.3 138.1 48.05 138.0 47.7 138.2 47.35 M139.35 44.7 L139.65 44.9 139.75 45.25 139.5 45.6 139.15 45.65 138.8 45.45 Q138.7 45.25 138.75 45.05 L138.95 44.75 139.35 44.7 M142.1 48.05 L142.4 47.95 142.75 48.2 142.8 48.55 142.6 48.9 142.2 48.95 141.95 48.75 141.85 48.35 142.1 48.05 M145.8 48.05 L145.7 47.7 145.95 47.35 146.3 47.3 146.65 47.5 146.7 47.9 146.5 48.2 146.1 48.3 145.8 48.05 M148.85 45.55 L148.75 45.2 149.0 44.85 149.35 44.8 149.7 45.0 149.75 45.4 149.55 45.7 149.15 45.8 148.85 45.55 M144.05 35.9 L144.0 35.5 144.2 35.2 144.6 35.1 144.9 35.35 144.95 35.7 144.75 36.05 144.4 36.05 144.05 35.9 M143.2 43.25 L143.0 43.6 142.6 43.65 142.3 43.45 142.2 43.05 142.45 42.8 142.8 42.7 143.15 42.95 143.2 43.25 M143.95 39.8 L143.85 39.45 144.05 39.1 144.4 39.05 144.7 39.25 144.8 39.65 144.6 39.95 144.2 40.05 143.95 39.8 M150.95 42.05 L150.85 41.65 151.05 41.35 151.4 41.25 151.7 41.45 151.8 41.85 151.6 42.15 151.2 42.25 150.95 42.05 M152.05 37.95 L152.0 37.6 152.2 37.3 152.6 37.2 152.9 37.45 153.0 37.8 152.75 38.1 152.4 38.15 Q152.2 38.15 152.05 37.95 M133.5 19.85 Q133.4 19.65 133.45 19.45 L133.6 19.2 134.0 19.1 134.3 19.3 134.4 19.65 134.2 19.95 133.8 20.05 133.5 19.85 M138.35 20.5 L138.15 20.85 137.8 20.9 137.45 20.7 137.4 20.3 137.6 20.0 138.0 19.95 138.3 20.15 138.35 20.5 M141.2 22.35 L141.1 21.95 141.35 21.65 141.7 21.55 Q141.9 21.6 142.05 21.8 L142.1 22.15 141.9 22.5 141.5 22.55 141.2 22.35 M131.5 29.65 Q131.4 29.45 131.45 29.25 L131.6 28.95 132.0 28.85 132.3 29.05 132.4 29.45 132.2 29.75 131.8 29.85 131.5 29.65 M135.55 28.3 L135.95 28.25 136.25 28.45 136.35 28.85 136.1 29.15 135.75 29.25 135.4 29.0 135.35 28.65 135.55 28.3 M139.2 29.75 Q139.1 29.55 139.15 29.35 L139.35 29.05 139.75 28.95 Q139.95 29.0 140.05 29.2 L140.15 29.55 139.9 29.9 139.55 29.95 Q139.35 29.95 139.2 29.75 M144.55 24.45 L144.5 24.05 144.7 23.8 145.05 23.7 145.35 23.9 145.45 24.25 145.2 24.55 144.85 24.65 144.55 24.45 M147.7 27.1 L147.65 26.8 147.85 26.45 148.25 26.4 148.55 26.6 148.65 27.0 148.4 27.25 148.05 27.35 147.7 27.1 M142.4 32.25 L142.3 31.9 142.55 31.55 142.9 31.5 143.25 31.7 143.25 32.1 143.1 32.4 142.7 32.5 142.4 32.25 M150.1 29.9 L150.35 29.6 150.7 29.55 151.05 29.75 151.05 30.1 150.9 30.4 150.5 30.5 150.2 30.25 150.1 29.9 M151.75 33.9 L151.65 33.55 151.9 33.2 152.25 33.15 152.6 33.35 152.65 33.75 152.45 34.05 152.05 34.15 151.75 33.9 M36.4 66.15 L36.65 65.85 37.0 65.75 37.35 66.0 37.4 66.35 37.2 66.7 36.8 66.75 36.5 66.55 36.4 66.15 M38.05 67.75 L37.95 67.35 38.15 67.05 38.5 66.95 38.8 67.15 38.9 67.55 38.7 67.85 38.3 67.95 38.05 67.75 M36.9 71.55 L36.8 71.2 37.0 70.85 37.4 70.8 37.65 71.0 37.75 71.4 37.55 71.7 37.2 71.8 36.9 71.55 M36.3 70.55 L36.2 70.25 36.45 69.9 36.8 69.85 37.15 70.05 37.2 70.45 37.0 70.7 36.6 70.8 36.3 70.55 M43.6 74.65 L43.9 74.85 43.95 75.25 43.75 75.55 43.4 75.65 43.05 75.45 43.0 75.05 43.2 74.75 43.6 74.65 M40.3 64.45 L40.0 64.25 39.9 63.85 Q39.95 63.65 40.15 63.6 L40.5 63.5 40.85 63.7 40.9 64.05 40.7 64.35 40.3 64.45 M40.25 58.55 L40.6 58.8 40.65 59.1 40.45 59.45 40.05 59.5 39.8 59.3 39.7 58.9 Q39.75 58.7 39.95 58.65 L40.25 58.55 M38.55 62.15 L38.6 62.55 38.4 62.85 38.0 62.95 37.7 62.7 37.6 62.35 37.85 62.0 38.2 61.95 38.55 62.15 M42.8 61.35 L42.75 61.0 42.95 60.65 43.35 60.6 43.65 60.8 43.75 61.2 43.5 61.5 43.15 61.6 42.8 61.35 M42.6 55.75 L43.0 55.65 43.25 55.9 43.35 56.25 43.1 56.6 42.8 56.65 42.45 56.45 42.4 56.05 42.6 55.75 M46.25 59.2 L46.15 58.8 46.35 58.5 46.75 58.4 Q46.95 58.45 47.05 58.65 L47.15 59.0 46.95 59.35 46.55 59.4 46.25 59.2 M45.75 54.1 L45.75 53.75 45.9 53.4 46.3 53.35 46.6 53.55 46.7 53.95 46.45 54.25 46.1 54.35 Q45.9 54.3 45.75 54.1 M45.5 39.35 L45.4 39.0 45.6 38.65 46.0 38.6 46.3 38.8 46.35 39.2 46.2 39.5 45.8 39.6 45.5 39.35 M46.85 41.35 L46.75 41.0 47.0 40.65 47.35 40.65 47.7 40.8 47.75 41.2 47.55 41.5 47.15 41.6 46.85 41.35 M50.0 43.8 L49.9 43.5 50.1 43.15 50.45 43.1 50.75 43.3 50.85 43.7 50.65 43.95 50.25 44.05 50.0 43.8 M49.5 38.3 L49.4 37.95 49.65 37.6 50.0 37.55 Q50.2 37.55 50.35 37.75 L50.4 38.15 50.2 38.45 49.8 38.55 49.5 38.3 M40.65 90.4 L40.55 90.0 40.8 89.7 41.1 89.6 41.45 89.85 41.5 90.2 41.3 90.55 40.9 90.6 40.65 90.4 M39.65 86.45 L39.6 86.1 39.8 85.75 40.2 85.75 Q40.4 85.75 40.5 85.9 L40.6 86.3 40.35 86.6 40.0 86.7 39.65 86.45 M39.95 82.55 L39.9 82.2 40.1 81.85 40.45 81.8 40.8 82.0 40.85 82.4 40.65 82.7 40.25 82.8 39.95 82.55 M41.15 78.85 L41.1 78.5 41.3 78.2 41.7 78.1 42.0 78.35 42.1 78.7 41.85 79.0 41.5 79.05 41.15 78.85 M47.1 79.85 L47.5 79.8 47.8 80.0 47.85 80.35 47.65 80.7 47.3 80.75 46.95 80.55 46.9 80.15 47.1 79.85 M49.35 77.35 L49.25 76.95 Q49.3 76.75 49.5 76.65 L49.85 76.55 50.2 76.8 50.25 77.15 50.05 77.5 49.65 77.55 49.35 77.35 M45.15 83.45 L45.5 83.4 45.85 83.6 45.9 84.0 45.7 84.3 45.3 84.35 45.0 84.15 44.9 83.8 45.15 83.45 M43.8 88.05 L43.75 87.65 43.9 87.35 44.3 87.25 44.6 87.45 44.7 87.85 44.5 88.15 44.1 88.25 43.8 88.05 M43.5 91.75 L43.7 91.45 44.1 91.4 44.4 91.6 44.5 91.95 44.25 92.3 43.9 92.35 43.55 92.15 Q43.45 91.95 43.5 91.75 M43.15 93.1 L43.5 93.35 43.55 93.7 43.35 94.0 42.95 94.05 42.65 93.85 42.6 93.5 42.8 93.2 43.15 93.1 M45.5 95.45 Q45.7 95.5 45.8 95.7 L45.9 96.05 45.65 96.4 45.3 96.45 44.95 96.25 44.9 95.85 45.1 95.55 45.5 95.45 M63.25 94.55 L63.15 94.15 63.35 93.85 63.75 93.75 Q63.95 93.8 64.05 94.0 L64.15 94.35 63.95 94.7 63.55 94.75 63.25 94.55 M61.3 92.85 L61.2 92.45 61.4 92.2 61.8 92.1 62.1 92.35 62.2 92.65 62.0 93.0 61.6 93.05 61.3 92.85 M62.05 80.0 L62.4 79.95 62.7 80.15 62.75 80.55 62.55 80.8 62.2 80.9 61.9 80.65 61.8 80.35 62.05 80.0 M60.75 84.55 L60.65 84.15 Q60.7 83.95 60.9 83.85 L61.25 83.75 61.6 84.0 61.6 84.35 61.45 84.7 61.05 84.75 60.75 84.55 M60.6 88.6 L60.5 88.2 60.75 87.9 61.05 87.8 61.4 88.0 61.45 88.4 61.25 88.7 60.85 88.8 60.6 88.6 M74.1 82.2 L74.3 81.9 74.65 81.8 74.95 82.05 75.05 82.4 74.8 82.75 74.45 82.8 74.15 82.6 74.1 82.2 M73.5 85.65 L73.75 85.85 73.85 86.25 73.6 86.55 73.3 86.65 72.95 86.4 72.9 86.05 73.1 85.7 73.5 85.65 M70.7 89.75 L70.65 89.45 70.85 89.1 71.25 89.05 71.55 89.25 71.65 89.65 71.4 89.9 71.05 90.0 70.7 89.75 M77.1 83.75 L77.4 83.95 77.5 84.35 77.3 84.65 76.9 84.75 76.6 84.5 76.5 84.15 76.7 83.8 77.1 83.75 M79.4 86.95 L79.8 86.9 80.1 87.1 80.2 87.5 79.95 87.8 79.6 87.9 79.25 87.65 79.2 87.3 79.4 86.95 M67.4 91.75 L67.7 91.65 Q67.9 91.7 68.05 91.9 L68.1 92.25 67.9 92.6 67.5 92.65 67.25 92.45 67.15 92.05 Q67.2 91.85 67.4 91.75 M84.2 93.65 L84.5 93.6 84.85 93.8 84.9 94.2 84.7 94.5 84.3 94.6 84.05 94.35 83.95 94.0 84.2 93.65 M88.25 101.4 L88.15 101.05 88.35 100.7 88.75 100.65 Q88.95 100.7 89.05 100.85 L89.15 101.25 88.95 101.55 88.55 101.65 Q88.35 101.6 88.25 101.4 M86.1 97.7 Q86.0 97.55 86.05 97.4 L86.25 97.05 86.65 97.0 Q86.85 97.0 86.95 97.2 L87.05 97.6 86.8 97.85 86.45 97.95 86.1 97.7 M81.75 90.6 L81.95 90.3 82.35 90.2 82.6 90.45 82.7 90.8 82.45 91.15 82.15 91.2 81.8 91.0 81.75 90.6 M54.05 37.6 L54.4 37.8 54.45 38.2 54.25 38.5 53.85 38.6 53.6 38.35 53.5 38.0 53.75 37.65 54.05 37.6 M57.3 39.4 L57.5 39.05 57.9 39.0 58.2 39.2 58.3 39.6 58.1 39.9 57.7 40.0 57.4 39.75 57.3 39.4 M60.35 41.55 L60.55 41.25 60.9 41.15 61.2 41.4 61.3 41.75 61.05 42.1 60.7 42.15 60.4 41.95 Q60.3 41.75 60.35 41.55 M52.35 47.1 L52.25 46.75 52.5 46.45 52.85 46.4 53.2 46.6 53.25 46.95 53.05 47.25 52.65 47.35 52.35 47.1 M53.35 50.15 Q53.55 50.15 53.65 50.35 L53.75 50.75 53.5 51.05 53.15 51.15 52.8 50.9 52.75 50.55 52.95 50.2 53.35 50.15 M49.3 51.7 L49.7 51.65 50.0 51.85 50.1 52.25 49.9 52.55 49.5 52.65 49.2 52.4 49.1 52.05 49.3 51.7 M54.4 55.9 L54.7 56.15 54.8 56.5 54.6 56.85 54.2 56.85 53.9 56.7 53.8 56.3 54.0 56.0 54.4 55.9 M54.1 54.55 L53.9 54.9 53.5 54.95 53.2 54.75 53.1 54.35 53.3 54.1 53.7 54.0 54.0 54.25 54.1 54.55 M62.35 48.5 L62.25 48.1 62.45 47.8 62.85 47.7 63.15 47.9 63.25 48.3 63.05 48.6 62.65 48.7 62.35 48.5 M67.6 41.15 L67.95 41.4 67.95 41.75 67.8 42.1 67.4 42.15 67.1 41.95 67.0 41.55 67.25 41.25 67.6 41.15 M63.85 43.95 L64.2 44.15 64.25 44.5 64.05 44.8 63.65 44.9 63.35 44.7 63.25 44.3 Q63.3 44.1 63.5 44.05 L63.85 43.95 M64.4 44.6 L64.6 44.3 64.95 44.25 65.25 44.45 65.35 44.8 65.15 45.15 64.75 45.2 64.5 45.0 64.4 44.6 M50.05 56.95 L50.45 56.9 50.75 57.1 50.85 57.5 50.65 57.8 50.25 57.9 49.95 57.65 49.9 57.3 50.05 56.95 M51.8 66.1 L52.1 66.35 52.2 66.7 51.95 67.05 51.6 67.1 Q51.4 67.1 51.25 66.9 L51.2 66.5 51.4 66.2 51.8 66.1 M54.65 65.05 L54.6 64.65 54.8 64.35 55.2 64.3 55.5 64.5 55.6 64.85 55.35 65.2 55.0 65.25 54.65 65.05 M58.15 62.55 L58.5 62.55 58.8 62.7 58.85 62.9 59.15 63.1 59.2 63.45 59.0 63.8 58.6 63.85 58.35 63.65 58.25 63.5 58.0 63.25 57.9 62.9 58.15 62.55 M55.7 60.2 L55.65 59.8 55.85 59.55 56.25 59.45 Q56.45 59.5 56.55 59.7 L56.65 60.0 56.4 60.35 56.05 60.4 55.7 60.2 M48.1 69.35 L48.05 68.95 48.25 68.65 48.65 68.55 48.95 68.75 49.05 69.15 48.8 69.45 48.45 69.55 48.1 69.35 M45.35 72.15 L45.25 71.8 45.5 71.5 45.85 71.4 46.2 71.65 46.25 72.0 46.05 72.3 45.65 72.35 45.35 72.15 M52.05 74.45 L52.0 74.1 52.2 73.75 52.6 73.7 52.9 73.9 53.0 74.3 52.75 74.6 52.4 74.7 52.05 74.45 M55.0 71.8 L54.95 71.45 55.15 71.15 55.55 71.05 55.85 71.25 55.95 71.65 55.7 71.9 55.35 72.0 55.0 71.8 M59.05 68.9 L59.1 69.3 58.9 69.6 58.5 69.7 58.2 69.45 58.1 69.1 58.35 68.75 58.7 68.7 59.05 68.9 M60.15 68.6 L60.05 68.2 60.3 67.9 60.65 67.85 61.0 68.05 61.05 68.4 60.85 68.75 60.45 68.8 60.15 68.6 M61.5 72.35 L61.45 72.0 61.65 71.65 62.0 71.6 62.3 71.8 62.4 72.2 62.15 72.5 61.8 72.6 61.5 72.35 M64.4 74.35 L64.6 74.05 65.0 73.95 Q65.2 74.0 65.3 74.2 L65.4 74.55 65.15 74.9 64.8 74.95 64.45 74.75 64.4 74.35 M63.75 77.25 L63.65 76.85 Q63.7 76.65 63.9 76.55 L64.25 76.45 64.6 76.7 64.65 77.05 64.45 77.4 64.05 77.45 63.75 77.25 M60.0 66.8 L60.3 66.7 Q60.5 66.75 60.65 66.95 L60.7 67.3 60.5 67.65 60.1 67.7 59.85 67.5 59.75 67.1 Q59.8 66.9 60.0 66.8 M93.75 64.7 L93.7 64.3 93.9 64.0 94.3 63.9 94.6 64.1 94.7 64.5 94.45 64.8 94.1 64.9 93.75 64.7 M80.75 43.4 L80.65 43.0 Q80.7 42.8 80.9 42.7 L81.25 42.65 81.6 42.8 81.65 43.2 81.45 43.5 81.05 43.6 80.75 43.4 M77.7 50.05 L78.05 49.95 78.4 50.2 78.4 50.55 78.25 50.9 77.85 50.95 77.55 50.75 77.45 50.35 Q77.5 50.15 77.7 50.05 M78.75 46.85 L78.65 46.5 78.9 46.15 79.2 46.1 79.55 46.3 79.6 46.7 79.4 47.0 79.0 47.1 78.75 46.85 M81.0 50.05 L80.95 49.65 81.15 49.35 81.55 49.25 81.85 49.5 81.95 49.85 81.7 50.2 81.35 50.2 81.0 50.05 M84.85 47.35 L85.2 47.25 Q85.4 47.3 85.55 47.5 L85.6 47.85 85.4 48.2 85.0 48.25 84.7 48.05 84.6 47.65 84.85 47.35 M87.1 45.15 Q87.0 44.95 87.05 44.75 L87.25 44.45 87.65 44.35 87.95 44.6 88.05 44.95 87.8 45.3 87.45 45.35 87.1 45.15 M95.5 61.05 L95.25 61.4 94.9 61.45 94.55 61.25 94.5 60.85 94.7 60.55 95.1 60.45 95.4 60.7 95.5 61.05 M96.45 57.0 L96.8 56.9 97.1 57.15 97.2 57.5 97.0 57.85 96.6 57.9 96.35 57.7 96.25 57.3 96.45 57.0 M8.65 191.15 L9.0 191.4 9.05 191.75 8.85 192.05 8.45 192.1 8.15 191.9 8.05 191.55 8.3 191.25 8.65 191.15 M11.2 190.2 L11.6 190.1 11.9 190.3 12.0 190.7 11.75 191.0 11.4 191.1 11.05 190.9 11.0 190.5 11.2 190.2 M14.65 189.25 L14.6 188.9 14.8 188.55 15.2 188.5 15.5 188.7 15.6 189.1 15.35 189.4 15.0 189.5 14.65 189.25 M17.85 186.6 L18.1 186.3 18.45 186.25 18.75 186.45 18.8 186.8 18.6 187.1 18.25 187.2 17.95 186.95 17.85 186.6 M20.85 184.4 L20.75 184.0 20.95 183.7 21.35 183.6 21.65 183.8 21.7 184.2 21.55 184.5 21.15 184.6 20.85 184.4 M35.65 161.15 Q35.7 160.95 35.9 160.85 L36.2 160.75 Q36.4 160.8 36.55 161.0 L36.6 161.35 36.4 161.7 36.0 161.75 35.75 161.55 35.65 161.15 M34.05 165.15 L34.0 164.8 34.2 164.45 34.6 164.4 34.9 164.6 35.0 165.0 34.75 165.3 34.4 165.35 34.05 165.15 M37.15 157.95 Q37.05 157.75 37.1 157.55 L37.3 157.25 37.7 157.15 38.0 157.35 38.1 157.75 37.85 158.05 37.5 158.15 37.15 157.95 M28.6 174.55 L28.95 174.8 29.0 175.15 28.8 175.5 28.4 175.55 28.15 175.35 28.05 174.95 28.3 174.65 28.6 174.55 M30.2 172.05 L30.15 171.7 30.35 171.4 30.75 171.3 31.05 171.5 31.15 171.9 30.9 172.15 30.55 172.25 30.2 172.05 M32.35 167.95 L32.75 167.85 33.05 168.1 33.15 168.45 32.9 168.8 32.55 168.85 32.2 168.65 32.2 168.25 Q32.2 168.05 32.35 167.95 M25.9 178.4 L25.8 178.05 26.05 177.75 26.4 177.65 26.75 177.9 26.8 178.25 26.6 178.55 26.2 178.6 25.9 178.4 M23.45 181.5 L23.35 181.1 23.6 180.8 23.95 180.7 24.3 180.9 24.35 181.3 24.15 181.6 23.75 181.7 23.45 181.5 M23.75 194.0 L24.15 193.9 24.45 194.15 24.5 194.5 24.3 194.85 23.95 194.9 23.6 194.7 Q23.5 194.5 23.55 194.3 L23.75 194.0 M27.25 192.5 L27.55 192.45 27.9 192.65 27.95 193.05 27.75 193.3 27.35 193.4 27.1 193.15 27.0 192.85 27.25 192.5 M28.05 194.75 L28.35 195.0 28.45 195.35 28.2 195.7 27.85 195.75 27.5 195.55 Q27.4 195.35 27.45 195.15 L27.65 194.85 28.05 194.75 M38.9 192.55 L39.2 192.75 39.3 193.15 39.1 193.4 38.7 193.5 38.4 193.25 38.3 192.95 38.5 192.6 38.9 192.55 M35.45 195.75 L35.35 195.35 35.55 195.05 35.95 194.95 36.25 195.2 36.35 195.55 36.15 195.9 35.75 195.95 35.45 195.75 M41.55 196.35 L41.95 196.3 Q42.15 196.35 42.25 196.5 L42.35 196.9 42.1 197.2 41.75 197.3 41.4 197.05 41.35 196.7 41.55 196.35 M41.25 189.8 L41.6 189.7 41.95 189.95 42.0 190.3 41.8 190.65 41.4 190.7 41.1 190.5 41.0 190.1 41.25 189.8 M43.6 192.75 L43.9 193.0 44.0 193.35 43.75 193.7 43.4 193.75 Q43.2 193.75 43.05 193.55 L43.0 193.15 43.2 192.85 43.6 192.75 M44.65 189.95 L44.55 189.6 44.75 189.3 45.1 189.25 45.4 189.45 45.5 189.8 45.3 190.1 44.9 190.2 44.65 189.95 M43.25 186.85 L43.45 186.6 43.85 186.5 44.15 186.75 44.25 187.05 44.0 187.4 43.65 187.45 43.3 187.25 43.25 186.85 M45.35 188.2 L45.35 187.8 45.5 187.5 45.9 187.4 46.2 187.65 46.3 188.0 46.05 188.35 45.7 188.4 45.35 188.2 M45.0 183.55 L44.95 183.15 45.15 182.85 45.55 182.75 Q45.75 182.8 45.85 182.95 L45.95 183.35 45.7 183.65 45.35 183.75 45.0 183.55 M47.1 183.7 L47.5 183.6 47.8 183.85 47.9 184.2 47.65 184.55 47.3 184.6 46.95 184.4 46.9 184.0 47.1 183.7 M48.6 179.95 L49.0 179.85 49.3 180.1 49.35 180.45 49.15 180.75 48.8 180.8 48.45 180.6 48.4 180.25 48.6 179.95 M54.75 169.4 Q54.95 169.4 55.1 169.55 L55.15 169.95 54.95 170.25 54.55 170.35 54.25 170.1 54.15 169.75 54.4 169.4 54.75 169.4 M57.1 167.4 L57.0 167.05 57.25 166.7 57.6 166.65 Q57.8 166.65 57.95 166.85 L58.0 167.25 57.8 167.55 57.4 167.6 57.1 167.4 M60.7 164.5 L61.1 164.4 61.4 164.65 61.5 165.0 61.25 165.35 60.9 165.4 60.55 165.2 60.5 164.8 60.7 164.5 M51.9 173.3 L51.8 172.95 52.0 172.6 52.4 172.55 52.7 172.75 52.8 173.15 52.6 173.45 52.2 173.55 51.9 173.3 M50.0 176.85 Q49.9 176.65 49.95 176.45 L50.15 176.15 50.5 176.05 50.8 176.3 50.9 176.65 50.65 177.0 50.3 177.05 50.0 176.85 M65.05 163.4 L64.9 163.75 64.5 163.8 64.2 163.6 64.1 163.2 64.3 162.9 64.7 162.8 65.0 163.05 65.05 163.4 M54.6 138.1 L54.5 137.7 54.75 137.45 55.1 137.35 55.45 137.6 55.5 137.9 55.3 138.25 54.9 138.3 54.6 138.1 M41.8 146.75 L41.7 146.35 Q41.75 146.15 41.95 146.05 L42.3 145.95 42.65 146.2 42.7 146.55 42.5 146.9 42.1 146.95 41.8 146.75 M38.55 154.15 L38.45 153.8 Q38.5 153.6 38.7 153.5 L39.05 153.4 39.4 153.65 39.45 154.0 39.25 154.3 38.85 154.35 38.55 154.15 M40.1 149.5 L40.5 149.45 40.8 149.65 40.85 150.05 40.7 150.35 40.3 150.45 Q40.1 150.4 40.0 150.2 L39.9 149.85 40.1 149.5 M47.4 141.1 L47.35 140.75 47.55 140.45 47.9 140.35 48.2 140.6 48.3 140.95 48.05 141.25 47.7 141.3 47.4 141.1 M44.45 142.95 L44.75 142.9 45.1 143.1 45.15 143.45 44.95 143.8 44.55 143.85 44.3 143.65 44.2 143.25 44.45 142.95 M50.85 139.3 L50.75 139.0 51.0 138.65 51.35 138.6 51.7 138.8 51.75 139.2 51.55 139.45 51.15 139.55 50.85 139.3 M67.9 162.25 L67.8 161.9 68.05 161.55 68.4 161.5 68.75 161.7 68.8 162.1 68.6 162.4 68.2 162.45 67.9 162.25 M72.2 160.4 L72.5 160.6 72.6 160.95 72.35 161.25 72.0 161.35 71.65 161.1 71.6 160.75 71.8 160.45 72.2 160.4 M76.0 159.3 L76.35 159.2 76.7 159.45 76.75 159.8 76.55 160.15 76.15 160.2 75.85 160.0 75.75 159.6 76.0 159.3 M58.5 137.25 L58.45 136.85 58.65 136.55 59.05 136.45 Q59.25 136.5 59.35 136.65 L59.45 137.05 59.2 137.35 58.85 137.45 58.5 137.25 M62.75 135.85 L63.15 135.75 63.4 136.0 63.5 136.35 63.25 136.7 62.95 136.75 62.6 136.55 62.55 136.15 62.75 135.85 M66.6 135.2 L66.95 135.15 67.3 135.3 67.35 135.7 67.15 136.0 66.75 136.1 66.45 135.9 66.35 135.5 66.6 135.2 M70.95 134.5 L71.2 134.7 71.3 135.1 71.1 135.4 70.75 135.5 70.45 135.3 70.35 134.9 70.55 134.6 70.95 134.5 M74.65 134.95 L74.35 134.75 74.25 134.35 74.5 134.1 74.85 134.0 75.2 134.2 75.25 134.55 75.05 134.85 74.65 134.95 M78.3 133.85 L78.5 133.55 78.85 133.45 79.2 133.7 79.25 134.05 79.05 134.4 78.65 134.45 78.35 134.25 78.3 133.85 M82.4 133.35 L82.6 133.05 83.0 132.95 83.3 133.15 83.4 133.55 83.15 133.8 82.8 133.9 82.45 133.7 82.4 133.35 M86.4 131.95 L86.8 131.9 87.1 132.1 87.2 132.45 87.0 132.8 86.6 132.85 86.3 132.65 86.2 132.25 86.4 131.95 M92.15 127.8 L92.1 127.4 92.3 127.1 92.7 127.0 93.0 127.25 93.1 127.6 92.85 127.95 92.5 128.0 92.15 127.8 M90.3 130.0 L90.65 130.25 90.7 130.55 90.5 130.9 90.1 130.95 89.8 130.75 89.7 130.35 Q89.75 130.15 89.95 130.1 L90.3 130.0 M100.8 148.1 L100.7 147.7 100.9 147.4 101.3 147.3 101.6 147.55 101.7 147.9 101.5 148.25 101.1 148.3 100.8 148.1 M103.75 145.55 L103.65 145.2 103.9 144.9 104.25 144.8 104.6 145.0 104.65 145.4 104.45 145.65 104.05 145.75 103.75 145.55 M87.8 155.45 Q88.0 155.5 88.15 155.65 L88.2 156.05 88.0 156.35 87.6 156.45 87.3 156.25 87.2 155.85 87.45 155.55 87.8 155.45 M90.7 154.25 L90.95 153.95 91.3 153.85 91.6 154.1 91.65 154.45 91.45 154.8 91.1 154.85 90.8 154.65 90.7 154.25 M79.75 158.85 L79.65 158.45 79.85 158.15 80.25 158.05 Q80.45 158.1 80.55 158.3 L80.65 158.65 80.45 159.0 80.05 159.05 79.75 158.85 M84.0 156.85 Q84.2 156.9 84.3 157.1 L84.4 157.45 84.15 157.8 83.8 157.85 83.45 157.65 83.4 157.25 83.6 156.95 84.0 156.85 M94.8 151.95 L95.1 152.15 95.2 152.55 94.95 152.85 94.6 152.95 94.25 152.7 94.2 152.35 94.4 152.0 94.8 151.95 M97.6 150.5 L97.5 150.15 97.7 149.8 98.1 149.75 98.4 149.95 98.5 150.35 98.3 150.65 97.9 150.75 97.6 150.5 M106.55 142.75 L106.5 142.4 106.7 142.05 107.1 142.0 107.4 142.2 107.5 142.6 107.25 142.9 106.9 143.0 106.55 142.75 M92.15 208.35 L92.45 208.6 92.5 208.95 92.3 209.25 91.95 209.3 91.6 209.1 91.55 208.75 91.75 208.45 92.15 208.35 M102.15 198.9 L102.05 198.55 102.25 198.25 102.65 198.15 102.95 198.4 103.05 198.75 102.85 199.05 102.45 199.1 102.15 198.9 M102.2 194.15 L102.6 194.1 102.85 194.3 102.95 194.7 102.7 195.0 102.4 195.1 102.05 194.85 102.0 194.5 102.2 194.15 M95.7 207.8 L96.05 207.7 96.4 207.95 96.45 208.3 96.25 208.65 95.85 208.7 95.55 208.5 95.45 208.1 Q95.5 207.9 95.7 207.8 M99.35 205.55 L99.75 205.55 100.05 205.7 100.15 206.1 99.9 206.4 99.55 206.5 99.2 206.25 99.15 205.9 99.35 205.55 M101.35 202.2 L101.75 202.1 102.05 202.3 102.15 202.7 101.9 203.0 101.55 203.1 101.2 202.9 Q101.1 202.7 101.15 202.5 L101.35 202.2 M158.0 216.9 L157.9 216.55 158.15 216.2 158.5 216.15 158.85 216.35 158.9 216.75 158.7 217.05 158.3 217.15 158.0 216.9 M155.0 219.5 L154.95 219.15 155.15 218.85 155.55 218.75 155.85 219.0 155.95 219.35 155.7 219.65 155.35 219.7 155.0 219.5 M161.95 214.25 L161.75 214.55 161.35 214.65 161.05 214.4 160.95 214.05 161.2 213.7 161.55 213.65 161.9 213.85 161.95 214.25 M164.15 212.0 L164.05 211.65 164.3 211.35 164.65 211.3 165.0 211.5 165.05 211.85 164.85 212.15 164.45 212.25 164.15 212.0 M167.35 209.65 L167.25 209.3 167.45 209.0 167.85 208.9 168.15 209.15 168.2 209.5 168.05 209.8 167.65 209.85 167.35 209.65 M179.9 150.25 L180.1 149.9 180.45 149.85 180.75 150.05 180.85 150.45 180.6 150.75 180.25 150.85 179.95 150.6 179.9 150.25 M100.5 53.45 L100.85 53.7 100.9 54.05 100.7 54.35 100.35 54.4 100.0 54.2 99.9 53.85 Q99.95 53.65 100.15 53.55 L100.5 53.45 M99.25 54.1 L99.6 54.0 99.9 54.2 100.0 54.6 99.75 54.9 99.45 55.0 99.1 54.8 Q99.0 54.6 99.05 54.4 L99.25 54.1 M104.85 54.4 L104.8 54.0 105.0 53.7 105.4 53.6 105.7 53.85 105.8 54.2 105.55 54.55 105.2 54.6 104.85 54.4 M103.75 51.85 L104.15 51.75 104.45 51.95 104.55 52.35 104.35 52.6 103.95 52.7 103.65 52.5 103.55 52.15 103.75 51.85 M101.7 60.7 L101.8 61.05 101.55 61.4 101.2 61.45 100.85 61.25 100.8 60.85 101.0 60.55 101.4 60.45 101.7 60.7 M103.45 58.05 L103.35 57.7 103.6 57.35 103.9 57.3 104.25 57.5 104.3 57.9 104.1 58.2 103.7 58.3 103.45 58.05 M97.6 63.5 L97.5 63.15 97.75 62.85 Q97.85 62.7 98.05 62.75 L98.4 62.95 98.45 63.35 98.25 63.6 97.85 63.7 97.6 63.5 M116.6 60.25 L116.95 60.15 117.3 60.35 117.35 60.75 117.15 61.05 116.75 61.15 116.45 60.95 116.35 60.55 116.6 60.25 M112.3 67.75 L112.2 67.35 Q112.25 67.15 112.45 67.05 L112.8 66.95 Q113.0 67.0 113.15 67.2 L113.2 67.55 113.0 67.9 112.6 67.95 112.3 67.75 M114.65 63.8 L115.0 63.7 115.3 63.95 115.4 64.3 115.2 64.6 114.8 64.65 114.55 64.45 114.45 64.1 114.65 63.8 M118.75 56.65 L118.85 57.05 118.65 57.35 118.3 57.45 118.0 57.25 117.9 56.85 118.1 56.55 118.5 56.45 118.75 56.65 M121.95 56.3 L121.9 55.95 122.1 55.65 122.5 55.55 122.8 55.75 122.9 56.15 122.65 56.4 122.3 56.5 121.95 56.3 M119.15 52.4 L119.5 52.35 119.8 52.55 119.9 52.95 119.95 53.2 119.7 53.55 119.35 53.6 119.05 53.4 119.0 53.0 118.95 52.75 119.15 52.4 M103.6 75.95 L103.5 75.6 103.75 75.25 104.1 75.2 104.45 75.4 104.5 75.8 104.3 76.1 103.9 76.2 103.6 75.95 M106.75 73.65 Q106.65 73.45 106.7 73.25 L106.9 72.95 107.3 72.85 107.6 73.1 107.7 73.45 107.45 73.8 107.1 73.85 106.75 73.65 M100.05 77.8 L99.95 77.4 Q100.0 77.2 100.2 77.1 L100.55 77.0 Q100.75 77.05 100.9 77.25 L100.95 77.6 100.75 77.95 100.35 78.0 100.05 77.8 M109.8 70.2 L110.2 70.1 110.5 70.35 110.6 70.7 110.4 71.0 110.0 71.05 109.7 70.85 109.6 70.5 109.8 70.2 M136.55 84.55 L136.5 84.2 136.7 83.85 137.1 83.8 137.4 84.0 137.45 84.4 137.25 84.7 136.9 84.8 136.55 84.55 M140.9 85.0 L140.6 84.75 140.5 84.4 140.75 84.1 141.1 84.05 141.45 84.25 141.5 84.6 141.3 84.9 140.9 85.0 M139.75 74.45 L139.45 74.2 Q139.35 74.1 139.4 73.9 L139.6 73.55 139.95 73.5 140.25 73.7 140.35 74.1 140.1 74.35 139.75 74.45 M142.9 76.4 L142.8 76.0 143.0 75.7 143.4 75.6 143.7 75.8 143.8 76.2 143.6 76.5 143.2 76.6 142.9 76.4 M125.7 57.9 L126.1 57.8 126.4 58.0 126.5 58.4 126.25 58.7 125.9 58.8 125.55 58.6 125.55 58.2 125.7 57.9 M129.7 59.6 L130.05 59.55 130.35 59.75 130.4 60.15 130.2 60.4 129.85 60.5 129.55 60.25 129.45 59.95 129.7 59.6 M133.35 61.9 L133.25 61.5 Q133.3 61.3 133.5 61.2 L133.85 61.1 134.2 61.3 134.25 61.7 134.05 62.0 133.65 62.1 133.35 61.9 M131.95 70.9 L131.9 70.55 132.1 70.2 132.5 70.2 132.8 70.35 132.9 70.75 132.65 71.05 132.3 71.15 131.95 70.9 M140.85 64.55 L141.1 64.25 141.45 64.15 141.75 64.4 141.8 64.75 141.6 65.05 141.25 65.1 140.95 64.9 140.85 64.55 M137.15 63.45 L137.05 63.05 137.3 62.75 137.65 62.65 138.0 62.9 138.05 63.25 137.85 63.6 137.45 63.65 137.15 63.45 M135.95 71.8 L136.35 71.7 136.65 71.95 136.75 72.3 136.5 72.65 136.15 72.7 135.8 72.5 135.75 72.1 135.95 71.8 M138.3 72.75 Q138.2 72.55 138.25 72.35 L138.45 72.05 138.85 71.95 139.15 72.2 139.25 72.55 139.0 72.9 138.65 72.95 138.3 72.75 M142.75 71.75 Q142.95 71.8 143.05 72.0 L143.15 72.35 142.9 72.65 142.55 72.7 142.25 72.5 142.2 72.15 142.4 71.85 142.75 71.75 M146.0 70.75 L146.4 70.75 146.7 70.9 146.8 71.3 146.55 71.6 146.2 71.7 145.85 71.45 145.8 71.1 146.0 70.75 M144.65 66.6 L144.6 66.2 144.8 65.9 145.2 65.8 145.5 66.05 145.6 66.4 145.35 66.75 145.0 66.8 144.65 66.6 M90.2 104.3 L90.55 104.25 90.9 104.45 90.95 104.85 90.75 105.15 90.35 105.25 90.05 105.0 89.95 104.65 Q90.0 104.45 90.2 104.3 M91.5 108.6 L91.4 108.25 91.65 107.95 92.0 107.85 92.35 108.1 92.4 108.45 92.2 108.75 91.8 108.8 91.5 108.6 M92.65 112.4 L92.65 112.0 92.8 111.7 93.2 111.6 93.5 111.8 93.6 112.2 93.35 112.5 93.0 112.6 92.65 112.4 M93.9 115.4 L94.25 115.6 94.25 116.0 94.1 116.3 93.7 116.35 93.4 116.15 93.3 115.8 93.55 115.45 93.9 115.4 M93.55 124.0 L93.5 123.65 93.7 123.35 94.1 123.3 94.4 123.5 94.5 123.85 94.25 124.15 93.9 124.25 93.55 124.0 M93.8 120.15 L93.7 119.8 93.9 119.45 94.3 119.4 94.6 119.6 94.7 120.0 94.5 120.3 94.1 120.4 93.8 120.15 M154.7 98.0 L154.65 97.65 154.85 97.3 155.25 97.25 155.55 97.45 155.65 97.85 155.4 98.15 155.05 98.25 154.7 98.0 M163.3 104.65 L163.7 104.6 164.0 104.8 164.1 105.2 163.85 105.5 163.5 105.6 163.15 105.35 163.1 105.0 163.3 104.65 M167.75 104.7 L168.1 104.9 168.15 105.3 167.95 105.6 167.55 105.7 167.3 105.5 167.2 105.1 167.45 104.8 167.75 104.7 M171.5 104.3 L171.9 104.25 172.2 104.45 172.3 104.85 172.05 105.15 171.7 105.25 171.35 105.0 171.3 104.65 171.5 104.3 M174.8 103.6 L174.75 103.25 174.95 102.95 175.3 102.85 175.6 103.05 175.7 103.45 175.45 103.7 175.1 103.8 174.8 103.6 M149.05 67.85 L149.15 68.25 148.9 68.55 148.55 68.65 148.2 68.4 148.15 68.05 148.35 67.7 148.75 67.65 Q148.95 67.65 149.05 67.85 M151.7 70.45 L151.6 70.1 151.85 69.75 152.2 69.7 Q152.4 69.75 152.55 69.9 L152.55 70.3 152.4 70.6 152.0 70.7 151.7 70.45 M151.3 75.95 L151.65 75.9 151.95 76.1 152.05 76.5 151.8 76.75 151.45 76.85 151.15 76.6 Q151.05 76.5 151.1 76.3 L151.3 75.95 M155.0 72.2 L155.35 72.1 155.7 72.35 155.75 72.65 155.55 73.0 155.15 73.05 154.85 72.85 154.75 72.45 155.0 72.2 M154.9 76.95 L155.0 77.35 154.75 77.6 154.4 77.7 154.05 77.45 154.0 77.15 154.2 76.8 154.6 76.75 154.9 76.95 M155.95 77.0 L156.2 77.25 156.3 77.6 156.05 77.9 155.75 77.95 155.4 77.75 155.35 77.4 155.55 77.1 155.95 77.0 M158.45 74.95 L158.75 75.2 158.85 75.55 158.6 75.85 158.25 75.9 157.9 75.7 157.85 75.35 158.05 75.05 158.45 74.95 M159.9 77.5 L160.2 77.75 160.3 78.1 160.05 78.4 159.7 78.45 159.35 78.25 159.3 77.9 159.5 77.6 159.9 77.5 M147.15 76.2 L147.05 75.85 147.25 75.55 147.65 75.5 147.95 75.7 148.05 76.05 147.85 76.35 147.45 76.45 147.15 76.2 M145.7 78.5 L146.05 78.45 Q146.25 78.5 146.35 78.65 L146.45 79.05 146.25 79.35 145.85 79.45 145.6 79.2 145.5 78.85 145.7 78.5 M146.05 82.3 Q146.25 82.35 146.35 82.5 L146.45 82.9 146.25 83.15 145.85 83.25 145.55 83.0 145.45 82.7 145.65 82.35 146.05 82.3 M144.55 83.35 L144.9 83.25 145.2 83.45 145.25 83.85 145.05 84.15 144.7 84.25 144.4 84.05 144.3 83.65 144.55 83.35 M145.7 84.8 L145.6 84.45 145.85 84.1 146.2 84.05 146.55 84.25 146.6 84.65 146.4 84.95 146.0 85.05 145.7 84.8 M149.8 85.9 L150.1 86.15 150.2 86.45 149.95 86.8 149.6 86.85 Q149.4 86.85 149.25 86.65 L149.25 86.25 149.4 86.0 149.8 85.9 M151.4 86.95 L151.65 87.2 151.75 87.55 151.5 87.9 151.2 87.95 Q151.0 87.95 150.85 87.75 L150.8 87.35 151.0 87.05 151.4 86.95 M153.65 90.55 L153.55 90.2 153.75 89.85 154.15 89.8 Q154.35 89.8 154.45 90.0 L154.55 90.4 154.35 90.7 153.95 90.8 153.65 90.55 M153.25 88.25 L153.2 87.85 153.4 87.55 153.8 87.45 154.05 87.7 154.15 88.05 153.9 88.4 153.6 88.45 153.25 88.25 M157.25 89.35 L157.2 89.0 157.4 88.65 157.8 88.6 158.1 88.8 158.2 89.2 157.95 89.5 157.6 89.6 157.25 89.35 M158.25 90.45 L158.15 90.1 158.35 89.8 158.7 89.7 159.0 89.95 159.1 90.3 158.9 90.6 158.5 90.65 158.25 90.45 M160.4 88.85 L160.75 88.8 Q160.95 88.8 161.05 89.0 L161.1 89.4 160.9 89.7 160.55 89.8 Q160.35 89.75 160.25 89.55 L160.15 89.2 160.4 88.85 M155.1 94.1 L155.05 93.7 155.25 93.4 155.6 93.3 155.95 93.55 156.0 93.9 155.8 94.25 155.4 94.3 155.1 94.1 M164.35 95.45 L164.25 95.05 164.5 94.75 164.8 94.65 165.15 94.9 165.2 95.25 165.0 95.6 164.6 95.65 164.35 95.45 M161.0 93.2 L160.95 92.85 161.15 92.5 161.55 92.45 161.85 92.65 161.95 93.05 161.7 93.35 161.35 93.4 161.0 93.2 M158.55 78.8 L158.6 79.2 158.4 79.5 158.0 79.6 157.75 79.35 157.65 79.0 157.9 78.65 158.2 78.6 158.55 78.8 M160.8 81.95 L160.7 81.6 160.95 81.25 161.3 81.2 161.65 81.4 161.7 81.8 161.5 82.1 161.1 82.2 160.8 81.95 M163.45 84.45 L163.85 84.35 164.15 84.6 164.25 84.95 164.05 85.3 163.65 85.35 163.35 85.15 163.25 84.75 163.45 84.45 M163.85 88.15 L163.8 87.8 164.0 87.45 164.4 87.4 164.7 87.6 164.8 88.0 164.55 88.3 164.2 88.4 163.85 88.15 M164.75 82.6 L165.1 82.55 165.45 82.75 165.5 83.15 165.3 83.45 164.9 83.55 164.6 83.3 164.55 82.95 164.75 82.6 M168.25 84.55 L168.45 84.2 168.85 84.15 Q169.05 84.15 169.15 84.35 L169.2 84.75 169.05 85.05 168.65 85.1 168.35 84.9 168.25 84.55 M173.65 85.6 Q173.85 85.6 173.95 85.8 L174.0 86.15 173.8 86.45 173.45 86.55 173.15 86.3 173.05 85.95 173.3 85.65 173.65 85.6 M172.4 86.05 L172.75 86.3 172.8 86.65 172.6 87.0 172.2 87.05 171.9 86.85 171.8 86.45 172.05 86.15 172.4 86.05 M175.25 88.4 L175.65 88.35 175.9 88.55 176.0 88.95 175.8 89.2 175.45 89.3 175.15 89.05 175.05 88.75 175.25 88.4 M177.95 91.8 Q177.85 91.6 177.9 91.4 L178.1 91.1 178.5 91.0 178.8 91.2 178.9 91.6 178.65 91.9 178.3 91.95 177.95 91.8 M177.2 85.95 L177.1 85.55 177.3 85.25 177.7 85.15 178.0 85.4 178.1 85.75 177.9 86.1 177.5 86.15 177.2 85.95 M181.15 84.4 L181.5 84.3 Q181.65 84.35 181.8 84.55 L181.85 84.9 181.65 85.25 181.3 85.25 181.0 85.1 180.9 84.7 Q180.95 84.5 181.15 84.4 M167.95 96.95 L167.85 96.6 Q167.9 96.4 168.1 96.25 L168.45 96.2 168.8 96.4 168.85 96.8 168.65 97.1 168.25 97.2 167.95 96.95 M169.7 97.85 L169.6 97.45 169.85 97.2 170.2 97.1 Q170.4 97.15 170.55 97.35 L170.6 97.65 170.4 98.0 170.0 98.05 169.7 97.85 M171.8 97.4 L172.05 97.1 172.4 97.0 Q172.6 97.05 172.75 97.2 L172.8 97.6 172.6 97.9 172.2 98.0 171.9 97.8 171.8 97.4 M173.5 99.8 L173.9 99.7 174.2 99.9 174.3 100.3 174.1 100.6 173.7 100.7 173.4 100.5 173.35 100.1 173.5 99.8 M176.1 97.75 L176.05 97.35 176.25 97.05 176.6 96.95 176.9 97.2 177.0 97.55 176.75 97.9 176.4 97.95 176.1 97.75 M180.6 94.35 L180.95 94.55 181.0 94.9 180.8 95.2 180.4 95.3 180.1 95.1 180.0 94.7 180.25 94.45 180.6 94.35 M180.1 96.6 Q180.15 96.4 180.35 96.25 L180.7 96.2 180.8 96.2 181.15 96.45 181.2 96.45 181.35 96.65 181.4 97.0 181.2 97.35 180.85 97.35 180.5 97.2 180.2 96.95 180.1 96.6 M183.7 99.45 L183.6 99.05 183.85 98.75 184.2 98.65 Q184.4 98.7 184.55 98.9 L184.6 99.25 184.4 99.6 184.0 99.65 183.7 99.45 M187.35 101.25 L187.25 100.9 187.45 100.6 187.85 100.5 188.1 100.7 188.2 101.1 188.0 101.35 187.65 101.45 187.35 101.25 M188.4 101.0 L188.6 100.65 189.0 100.6 189.3 100.8 189.4 101.2 189.15 101.45 188.8 101.55 188.45 101.3 188.4 101.0 M184.65 83.8 L184.55 83.45 184.8 83.15 185.15 83.1 185.5 83.3 185.55 83.65 185.35 83.95 184.95 84.05 184.65 83.8 M188.2 82.35 L188.15 81.95 188.35 81.7 188.75 81.6 189.05 81.85 189.15 82.15 188.9 82.5 188.55 82.55 Q188.35 82.55 188.2 82.35 M191.9 80.1 L192.25 80.05 192.55 80.2 192.65 80.6 192.4 80.9 192.05 81.0 191.75 80.8 191.7 80.4 191.9 80.1 M8.0 232.75 L8.3 232.95 8.4 233.35 8.15 233.6 7.8 233.7 7.45 233.5 7.4 233.15 7.6 232.85 8.0 232.75 M11.35 231.5 L11.75 231.45 12.0 231.65 12.1 232.0 11.85 232.3 11.55 232.4 11.2 232.15 11.15 231.8 11.35 231.5 M11.8 194.15 L11.7 193.75 Q11.75 193.55 11.95 193.45 L12.3 193.35 12.6 193.6 12.65 193.95 12.45 194.3 12.1 194.35 11.8 194.15 M15.7 195.35 L15.65 195.0 15.85 194.65 16.25 194.6 16.55 194.8 16.65 195.2 16.4 195.5 16.05 195.6 15.7 195.35 M-0.25 234.75 L-0.35 234.4 -0.1 234.1 0.25 234.05 0.6 234.25 0.65 234.6 0.45 234.9 0.05 235.0 -0.25 234.75 M3.65 236.45 L3.6 236.05 3.75 235.75 4.15 235.65 4.45 235.9 4.55 236.25 4.35 236.6 3.95 236.65 3.65 236.45 M3.9 234.5 L3.6 234.3 3.5 233.9 3.75 233.6 4.1 233.5 4.4 233.75 4.45 234.1 4.25 234.45 3.9 234.5 M7.8 237.05 L8.15 236.95 8.45 237.15 8.5 237.55 8.3 237.85 7.95 237.95 7.65 237.75 7.55 237.35 7.8 237.05 M11.6 238.6 L11.5 238.2 11.7 237.9 12.1 237.8 12.4 238.05 12.5 238.4 12.3 238.75 11.9 238.8 11.6 238.6 M15.5 239.05 L15.4 238.65 15.65 238.35 16.0 238.25 16.35 238.45 16.4 238.85 16.2 239.15 15.8 239.25 15.5 239.05 M19.8 238.25 L20.2 238.2 Q20.4 238.25 20.45 238.4 L20.55 238.75 20.35 239.1 20.0 239.15 19.7 238.95 19.6 238.55 19.8 238.25 M23.05 238.7 L23.3 238.4 23.65 238.3 24.0 238.5 24.05 238.9 23.85 239.15 23.45 239.25 23.15 239.05 23.05 238.7 M22.55 246.45 L22.5 246.1 22.7 245.8 23.1 245.75 23.4 245.95 23.5 246.25 23.25 246.6 22.9 246.7 22.55 246.45 M23.2 242.15 L23.5 242.4 23.6 242.75 23.35 243.1 23.0 243.15 22.65 242.95 22.6 242.55 22.8 242.25 23.2 242.15 M26.6 246.05 L26.55 245.65 26.75 245.35 27.15 245.25 27.45 245.45 27.55 245.85 27.3 246.15 26.95 246.25 26.6 246.05 M30.85 244.5 L31.2 244.4 31.5 244.65 31.55 245.0 31.35 245.35 31.0 245.35 30.7 245.2 30.6 244.8 30.85 244.5 M34.45 244.0 L34.35 243.6 34.55 243.35 34.95 243.25 35.25 243.45 35.35 243.8 35.15 244.1 34.75 244.2 34.45 244.0 M45.9 281.05 L46.2 281.3 46.25 281.65 46.05 282.0 45.7 282.05 45.4 281.85 45.3 281.45 45.55 281.15 45.9 281.05 M46.6 278.0 L46.55 277.65 46.75 277.35 47.1 277.25 47.45 277.45 47.5 277.85 47.3 278.1 46.9 278.2 46.6 278.0 M48.3 273.55 L48.65 273.45 49.0 273.65 49.05 274.05 48.85 274.35 48.45 274.45 48.15 274.25 48.05 273.85 48.3 273.55 M49.8 270.65 L49.75 270.3 49.95 269.95 50.35 269.9 50.6 270.1 50.7 270.5 50.45 270.8 50.15 270.9 49.8 270.65 M51.75 267.1 L51.65 266.7 51.9 266.45 52.25 266.35 52.6 266.6 52.65 266.9 52.45 267.25 52.05 267.3 51.75 267.1 M54.0 263.1 L54.4 263.0 54.65 263.2 54.75 263.6 54.55 263.9 54.2 264.0 53.9 263.8 53.8 263.4 54.0 263.1 M38.05 241.95 L38.45 241.95 38.75 242.1 38.85 242.5 38.65 242.8 38.25 242.9 37.95 242.65 37.85 242.3 38.05 241.95 M41.55 240.85 L41.45 240.45 41.65 240.2 42.05 240.1 42.3 240.35 42.4 240.65 42.2 241.0 41.85 241.05 41.55 240.85 M56.15 260.55 L56.05 260.2 56.3 259.9 56.65 259.8 57.0 260.05 57.05 260.4 56.85 260.7 56.45 260.75 56.15 260.55 M20.65 195.35 L20.45 195.65 20.05 195.75 19.75 195.5 19.65 195.15 19.9 194.8 20.25 194.75 20.6 194.95 20.65 195.35 M28.0 198.95 L27.9 198.6 28.15 198.25 28.5 198.25 28.8 198.4 28.85 198.8 28.65 199.1 28.3 199.2 Q28.1 199.15 28.0 198.95 M34.0 210.4 L34.4 210.3 34.7 210.55 34.8 210.9 34.55 211.25 34.2 211.3 Q34.0 211.3 33.85 211.1 L33.8 210.7 34.0 210.4 M31.65 214.35 L31.55 213.95 Q31.6 213.75 31.75 213.7 L32.15 213.6 32.45 213.85 32.55 214.15 32.35 214.5 31.95 214.55 31.65 214.35 M32.8 197.7 L32.55 198.05 32.2 198.1 31.85 197.9 31.8 197.5 32.0 197.2 32.4 197.1 32.7 197.35 32.8 197.7 M36.0 207.1 L36.2 206.8 36.6 206.7 36.85 206.9 36.95 207.3 36.7 207.55 36.4 207.65 36.05 207.45 36.0 207.1 M38.1 203.3 L38.5 203.25 38.8 203.45 38.9 203.85 38.65 204.15 38.3 204.25 37.95 204.0 37.9 203.65 38.1 203.3 M39.7 200.55 L39.65 200.2 39.85 199.85 40.25 199.8 40.5 200.0 40.6 200.4 40.35 200.7 40.05 200.75 39.7 200.55 M21.7 225.25 L22.0 225.45 22.1 225.85 21.9 226.15 21.5 226.25 21.2 226.0 21.1 225.65 21.3 225.3 21.7 225.25 M24.45 223.6 L24.1 223.4 24.05 223.0 24.25 222.7 24.65 222.6 24.95 222.85 25.05 223.2 24.8 223.55 24.45 223.6 M26.7 220.1 L26.9 219.85 27.3 219.75 27.6 220.0 27.7 220.3 27.5 220.65 27.1 220.7 26.8 220.5 26.7 220.1 M18.05 228.35 L17.95 228.0 18.2 227.7 18.55 227.6 18.9 227.85 18.95 228.2 18.75 228.5 18.35 228.55 18.05 228.35 M14.7 230.45 L14.65 230.05 14.85 229.8 15.2 229.7 15.55 229.9 15.6 230.25 15.4 230.55 15.0 230.65 14.7 230.45 M29.45 216.8 L29.8 216.75 30.1 216.95 30.2 217.35 29.95 217.65 29.6 217.75 29.3 217.5 29.25 217.15 29.45 216.8 M43.8 238.65 L44.2 238.55 44.5 238.8 44.6 239.15 44.35 239.5 44.0 239.55 Q43.8 239.55 43.65 239.35 L43.6 238.95 43.8 238.65 M47.7 239.4 L47.65 239.0 47.85 238.75 48.25 238.65 Q48.45 238.7 48.55 238.9 L48.65 239.2 48.4 239.55 48.05 239.6 47.7 239.4 M46.55 236.55 L46.5 236.25 46.7 235.9 47.1 235.85 47.4 236.05 47.5 236.45 47.25 236.7 46.9 236.8 46.55 236.55 M48.55 233.05 L48.45 232.7 48.7 232.35 49.05 232.3 49.4 232.5 49.45 232.9 49.25 233.2 48.85 233.3 48.55 233.05 M51.85 238.1 L52.2 238.0 52.5 238.25 52.55 238.6 52.35 238.95 52.0 239.0 51.7 238.8 51.6 238.4 51.85 238.1 M55.3 237.5 L55.2 237.15 55.45 236.8 55.8 236.75 56.15 236.95 56.2 237.35 56.0 237.65 55.6 237.75 55.3 237.5 M58.95 234.7 L59.3 234.65 59.65 234.85 59.7 235.25 59.5 235.55 59.1 235.65 58.8 235.4 58.7 235.05 58.95 234.7 M60.45 233.85 L60.45 233.45 60.6 233.15 61.0 233.05 61.3 233.25 61.4 233.65 61.15 233.95 60.8 234.05 60.45 233.85 M62.6 230.15 L62.85 229.85 63.2 229.8 63.55 229.95 63.6 230.35 63.4 230.65 63.0 230.75 62.7 230.55 62.6 230.15 M46.55 305.1 L46.45 304.75 46.7 304.45 47.05 304.35 47.4 304.6 47.45 304.95 47.25 305.25 46.85 305.3 46.55 305.1 M43.95 292.85 L44.3 292.75 44.65 293.0 44.7 293.35 44.5 293.7 44.1 293.75 43.8 293.55 43.7 293.15 43.95 292.85 M44.15 297.1 L44.35 296.85 44.75 296.75 45.05 297.0 45.1 297.3 44.95 297.65 44.55 297.7 44.25 297.5 44.15 297.1 M45.3 300.8 L45.65 300.7 46.0 300.9 46.05 301.3 45.85 301.6 45.45 301.7 45.15 301.5 45.05 301.1 45.3 300.8 M44.55 285.0 L44.9 284.9 45.2 285.15 45.25 285.5 45.05 285.85 44.7 285.9 44.4 285.7 44.3 285.3 44.55 285.0 M43.9 289.55 L43.85 289.25 44.05 288.9 44.4 288.85 44.7 289.05 44.8 289.45 44.55 289.7 44.2 289.8 43.9 289.55 M48.55 307.9 L48.95 307.85 49.25 308.05 49.35 308.45 49.15 308.75 48.75 308.85 48.45 308.6 48.35 308.25 48.55 307.9 M50.55 311.75 L50.45 311.35 Q50.5 311.15 50.7 311.05 L51.05 310.95 51.4 311.2 51.45 311.55 51.25 311.9 50.85 311.95 50.55 311.75 M53.65 314.0 L53.9 314.2 54.0 314.6 53.75 314.9 53.45 315.0 53.1 314.75 53.05 314.4 53.25 314.05 53.65 314.0 M56.15 320.55 L56.05 320.15 56.3 319.85 56.65 319.75 57.0 320.0 57.05 320.35 56.85 320.7 56.45 320.75 56.15 320.55 M55.1 316.8 L55.0 316.4 55.25 316.15 55.6 316.05 55.9 316.3 55.95 316.6 55.75 316.95 55.4 317.0 55.1 316.8 M58.2 319.45 L58.1 319.15 58.35 318.8 58.7 318.75 59.05 318.95 59.1 319.35 58.9 319.6 58.5 319.7 58.2 319.45 M62.3 321.15 L62.55 321.3 62.8 321.5 62.85 321.85 62.65 322.2 62.25 322.25 62.0 322.1 61.8 321.9 61.75 321.55 61.95 321.2 62.3 321.15 M57.6 324.2 L57.5 323.85 57.75 323.55 58.1 323.45 58.45 323.65 58.5 324.05 58.3 324.3 57.9 324.4 57.6 324.2 M65.75 323.05 L66.15 322.95 66.45 323.15 66.55 323.55 66.3 323.8 65.95 323.9 65.6 323.7 65.55 323.35 65.75 323.05 M63.55 325.3 Q63.45 325.1 63.5 324.9 L63.7 324.6 64.05 324.5 64.35 324.75 64.45 325.1 64.2 325.45 63.85 325.45 63.55 325.3 M69.5 324.45 L69.9 324.35 70.2 324.55 70.3 324.95 70.1 325.25 69.7 325.35 69.4 325.15 69.3 324.75 69.5 324.45 M73.75 325.5 Q73.95 325.55 74.05 325.7 L74.15 326.1 73.9 326.4 73.55 326.5 73.25 326.3 73.2 325.9 73.4 325.6 73.75 325.5 M77.15 327.15 L77.05 326.75 77.3 326.45 77.65 326.35 78.0 326.55 78.05 326.95 77.85 327.25 77.45 327.35 77.15 327.15 M81.1 327.7 L81.0 327.3 81.25 327.0 81.6 326.9 81.95 327.1 82.0 327.5 81.8 327.8 81.4 327.9 81.1 327.7 M85.15 328.0 L85.05 327.6 Q85.1 327.4 85.3 327.35 85.4 327.2 85.6 327.25 85.8 327.3 85.95 327.45 L86.0 327.8 85.8 328.1 85.4 328.2 85.15 328.0 M89.15 328.0 L89.1 327.65 89.3 327.3 89.7 327.25 90.0 327.45 90.1 327.85 89.85 328.15 89.5 328.25 89.15 328.0 M93.65 326.95 L93.95 327.2 94.05 327.55 93.8 327.9 93.45 327.95 93.1 327.75 Q93.0 327.55 93.05 327.35 L93.25 327.05 93.65 326.95 M59.5 327.7 L59.4 327.3 59.6 327.05 60.0 326.95 Q60.2 327.0 60.3 327.2 L60.4 327.5 60.2 327.85 59.8 327.9 59.5 327.7 M64.85 333.15 L65.2 333.4 65.25 333.75 65.05 334.1 64.65 334.15 64.4 333.95 64.3 333.55 64.55 333.25 64.85 333.15 M65.45 332.8 Q65.5 332.6 65.7 332.5 L66.05 332.4 66.4 332.65 66.45 333.0 66.25 333.3 65.85 333.35 65.55 333.15 65.45 332.8 M64.45 329.35 L64.4 328.95 64.6 328.65 65.0 328.55 65.3 328.75 65.4 329.15 65.15 329.45 64.8 329.55 64.45 329.35 M61.75 330.95 L61.65 330.6 61.85 330.25 62.25 330.2 62.55 330.4 62.65 330.8 62.45 331.1 62.05 331.2 61.75 330.95 M67.35 335.5 L67.7 335.7 67.75 335.85 67.85 335.85 68.2 336.1 68.25 336.15 68.3 336.15 68.45 336.3 68.55 336.65 68.3 337.0 67.95 337.05 Q67.75 337.05 67.6 336.85 L67.6 336.8 67.45 336.65 67.4 336.65 67.35 336.6 67.25 336.45 67.3 336.4 67.15 336.45 66.85 336.25 66.75 335.85 67.0 335.6 67.35 335.5 M71.2 338.65 L71.55 338.85 71.6 339.25 71.4 339.5 71.0 339.6 70.7 339.35 70.65 339.05 70.85 338.7 71.2 338.65 M70.05 339.15 L70.35 339.4 70.45 339.75 70.25 340.1 69.85 340.15 69.55 339.95 69.45 339.55 69.65 339.25 70.05 339.15 M74.9 345.5 L74.85 345.1 75.05 344.85 75.45 344.75 75.75 344.95 75.85 345.3 75.6 345.6 75.25 345.7 74.9 345.5 M74.35 341.45 L74.25 341.05 74.45 340.75 74.85 340.65 75.15 340.9 75.2 341.25 75.05 341.6 74.65 341.65 74.35 341.45 M72.0 343.0 L71.9 342.6 72.1 342.3 72.5 342.2 72.75 342.45 72.85 342.8 72.65 343.15 72.3 343.2 72.0 343.0 M78.55 342.1 L78.9 342.35 78.95 342.7 78.75 343.05 78.35 343.1 78.05 342.9 77.95 342.5 78.2 342.2 78.55 342.1 M82.2 343.9 L81.95 343.7 81.85 343.3 82.1 343.0 82.4 342.9 82.75 343.1 82.8 343.5 82.6 343.8 82.2 343.9 M78.7 346.6 L79.0 346.55 79.35 346.75 79.4 347.15 79.2 347.45 78.8 347.55 78.55 347.3 78.45 346.95 78.7 346.6 M82.5 347.85 L82.4 347.5 82.65 347.15 83.0 347.1 83.35 347.3 83.4 347.7 83.2 348.0 82.8 348.1 82.5 347.85 M86.0 347.0 L85.95 346.65 86.15 346.3 86.5 346.25 86.8 346.45 86.9 346.85 86.65 347.15 86.3 347.2 86.0 347.0 M85.9 343.85 L85.85 343.5 86.05 343.15 86.45 343.1 86.75 343.3 86.85 343.7 86.6 344.0 86.25 344.1 85.9 343.85 M89.4 344.7 L89.3 344.3 89.55 344.0 89.9 343.9 90.25 344.15 90.3 344.5 90.1 344.85 89.7 344.9 89.4 344.7 M90.0 343.55 L89.9 343.2 89.95 343.1 90.15 342.8 90.3 342.75 90.55 342.75 90.6 342.75 90.85 342.95 90.95 343.3 90.9 343.4 90.9 343.55 90.7 343.7 90.3 343.8 90.1 343.7 90.0 343.55 M94.15 337.85 L94.05 337.45 94.25 337.15 94.65 337.05 94.95 337.3 95.05 337.65 94.85 338.0 94.45 338.05 94.15 337.85 M97.2 335.35 L97.1 334.95 Q97.15 334.75 97.35 334.7 L97.7 334.6 98.05 334.85 98.1 335.15 97.9 335.5 97.5 335.55 97.2 335.35 M91.65 340.9 L91.55 340.55 91.75 340.2 92.15 340.15 92.45 340.35 92.5 340.75 92.35 341.05 91.95 341.1 91.65 340.9 M90.05 346.4 L89.95 346.0 90.2 345.7 90.55 345.6 90.9 345.8 90.95 346.2 90.75 346.5 90.35 346.6 90.05 346.4 M94.2 346.65 L94.1 346.35 94.35 346.0 94.7 345.95 95.05 346.15 95.1 346.55 94.9 346.8 94.5 346.9 94.2 346.65 M98.95 346.8 L99.05 347.2 98.85 347.45 98.45 347.55 98.2 347.3 98.1 347.0 98.3 346.65 98.65 346.6 Q98.85 346.6 98.95 346.8 M102.1 346.95 L102.35 346.65 102.7 346.55 Q102.9 346.6 103.05 346.8 L103.1 347.15 102.9 347.5 102.5 347.55 102.2 347.35 102.1 346.95 M106.5 345.1 Q106.7 345.15 106.8 345.35 L106.9 345.7 106.7 346.05 106.3 346.1 106.05 345.9 105.95 345.5 106.15 345.2 106.5 345.1 M108.95 343.1 L108.85 342.7 109.1 342.4 109.4 342.3 109.75 342.55 109.8 342.9 109.6 343.25 109.2 343.3 108.95 343.1 M110.75 339.45 L110.65 339.1 110.85 338.75 111.25 338.7 Q111.45 338.7 111.55 338.9 L111.65 339.3 111.45 339.6 111.05 339.7 Q110.85 339.65 110.75 339.45 M119.65 317.15 L120.0 317.35 120.05 317.7 119.85 318.05 119.45 318.1 119.15 317.9 Q119.05 317.7 119.1 317.5 L119.3 317.2 119.65 317.15 M105.25 324.5 L105.5 324.7 105.6 325.1 105.35 325.4 105.05 325.5 104.7 325.25 104.65 324.9 104.85 324.55 105.25 324.5 M97.1 327.2 L97.0 326.8 97.25 326.5 97.6 326.4 97.9 326.65 97.95 327.0 97.75 327.35 97.4 327.4 97.1 327.2 M100.75 333.55 L100.65 333.2 100.85 332.9 101.25 332.85 101.5 333.05 101.6 333.4 101.4 333.7 101.05 333.8 100.75 333.55 M104.7 332.0 L105.1 331.9 105.4 332.1 105.5 332.5 105.25 332.8 104.9 332.9 104.55 332.7 104.5 332.3 104.7 332.0 M101.1 325.65 L101.5 325.6 101.8 325.8 101.9 326.15 101.65 326.45 101.3 326.55 100.95 326.3 100.9 325.95 101.1 325.65 M109.35 332.35 L109.15 332.7 108.75 332.75 108.5 332.55 108.4 332.15 108.65 331.9 108.95 331.8 Q109.15 331.85 109.3 332.05 L109.35 332.35 M112.35 333.1 L112.25 332.8 112.45 332.45 112.85 332.4 113.15 332.6 113.25 333.0 113.05 333.25 112.65 333.35 112.35 333.1 M111.7 335.55 L111.6 335.2 111.8 334.9 112.2 334.8 112.5 335.05 112.6 335.4 112.4 335.7 112.0 335.75 111.7 335.55 M109.15 323.0 Q109.35 323.05 109.45 323.2 L109.55 323.6 109.3 323.9 108.95 324.0 108.6 323.75 108.55 323.4 108.75 323.05 109.15 323.0 M112.25 322.1 L112.15 321.75 112.4 321.4 112.75 321.35 113.1 321.55 113.15 321.95 112.95 322.25 112.55 322.35 Q112.35 322.3 112.25 322.1 M116.6 319.6 L116.7 320.0 116.45 320.3 116.15 320.4 115.8 320.2 115.75 319.8 115.95 319.5 116.35 319.4 116.6 319.6 M131.75 306.9 L132.05 307.1 132.15 307.5 131.95 307.75 131.55 307.85 131.25 307.6 131.15 307.3 131.35 306.95 131.75 306.9 M134.5 305.3 L134.45 304.95 134.65 304.6 135.05 304.55 135.35 304.75 135.45 305.15 135.2 305.45 134.85 305.55 134.5 305.3 M125.95 312.75 L125.75 313.05 125.35 313.15 125.05 312.9 125.0 312.55 125.2 312.2 125.55 312.15 125.9 312.35 125.95 312.75 M128.1 310.2 L128.05 309.8 128.25 309.5 128.6 309.4 128.95 309.65 129.0 310.0 128.8 310.35 128.4 310.4 128.1 310.2 M122.25 315.4 L122.15 315.1 122.4 314.75 122.75 314.7 123.1 314.9 123.15 315.3 122.95 315.55 122.55 315.65 122.25 315.4 M137.95 303.05 L137.85 302.65 138.1 302.35 138.45 302.25 138.8 302.5 138.85 302.85 138.65 303.2 138.25 303.25 137.95 303.05 M76.55 226.05 L76.4 226.15 76.05 226.2 75.7 226.0 75.65 225.6 75.85 225.3 76.25 225.2 76.55 225.4 76.7 225.3 77.0 225.25 77.35 225.45 77.4 225.8 77.2 226.1 76.8 226.2 76.6 225.95 76.55 226.05 M76.5 221.9 L76.4 221.5 76.65 221.2 77.0 221.1 77.35 221.35 77.4 221.7 77.2 222.05 76.8 222.1 76.5 221.9 M76.75 217.7 L76.65 217.35 76.85 217.0 77.25 216.95 77.55 217.15 77.65 217.55 77.45 217.85 77.05 217.95 76.75 217.7 M80.6 224.7 L81.0 224.65 81.3 224.85 81.4 225.25 81.15 225.55 80.8 225.65 80.45 225.4 80.4 225.05 80.6 224.7 M84.2 224.25 L84.1 223.85 84.35 223.55 84.65 223.45 85.0 223.7 85.05 224.05 84.85 224.4 84.45 224.45 84.2 224.25 M87.65 222.15 L87.55 221.75 87.8 221.45 88.15 221.35 88.5 221.6 88.55 221.95 88.35 222.3 87.95 222.35 87.65 222.15 M90.15 219.05 L90.05 218.65 90.3 218.35 90.6 218.3 Q90.8 218.35 90.95 218.5 L91.0 218.85 90.8 219.2 90.4 219.25 90.15 219.05 M91.1 215.0 Q91.1 214.8 91.25 214.7 L91.65 214.6 91.95 214.85 92.05 215.2 91.8 215.55 91.45 215.6 91.1 215.4 91.1 215.0 M90.45 211.15 L90.4 210.8 90.6 210.5 91.0 210.4 91.3 210.65 91.4 211.0 91.15 211.3 90.8 211.35 Q90.6 211.35 90.45 211.15 M64.05 226.65 L64.0 226.25 64.2 225.95 64.55 225.85 64.85 226.1 64.95 226.45 64.7 226.8 64.35 226.85 64.05 226.65 M63.8 233.35 L64.1 233.6 64.2 233.95 63.95 234.3 63.6 234.35 63.25 234.15 63.25 234.1 63.1 234.2 62.75 234.3 62.45 234.05 62.35 233.7 62.6 233.35 62.95 233.3 Q63.1 233.35 63.25 233.5 L63.3 233.55 63.4 233.45 63.8 233.35 M67.3 233.65 L67.25 233.3 67.45 233.0 67.85 232.95 68.1 233.15 68.2 233.5 67.95 233.8 67.65 233.9 67.3 233.65 M70.95 232.15 L70.9 231.8 71.1 231.5 71.5 231.45 71.8 231.65 71.9 232.0 71.65 232.3 71.3 232.4 70.95 232.15 M73.9 229.55 L73.8 229.15 74.05 228.85 74.4 228.75 74.75 229.0 74.8 229.35 74.6 229.7 74.2 229.7 73.9 229.55 M63.1 237.95 L63.05 237.6 63.25 237.25 63.65 237.25 63.95 237.4 64.05 237.8 63.8 238.1 63.45 238.2 63.1 237.95 M63.3 241.9 L63.2 241.5 63.45 241.2 63.8 241.1 64.1 241.35 64.15 241.7 63.95 242.05 63.6 242.1 63.3 241.9 M62.85 245.5 L63.05 245.2 63.4 245.1 63.75 245.35 63.8 245.7 63.6 246.05 63.2 246.1 62.9 245.9 62.85 245.5 M62.85 249.25 L62.9 249.6 62.7 249.9 62.3 250.0 62.05 249.75 61.95 249.4 62.2 249.1 62.5 249.05 62.85 249.25 M60.55 253.55 L60.5 253.15 60.7 252.85 61.1 252.75 61.4 252.95 61.45 253.35 61.25 253.65 60.9 253.75 60.55 253.55 M58.7 256.4 L59.1 256.3 59.4 256.55 59.5 256.9 59.3 257.25 58.9 257.3 58.6 257.1 58.5 256.7 58.7 256.4 M141.65 300.25 L142.0 300.15 142.3 300.4 142.35 300.75 142.15 301.1 141.8 301.15 141.5 300.95 141.4 300.55 141.65 300.25 M145.15 299.05 Q145.05 298.85 145.1 298.65 L145.3 298.35 145.7 298.25 146.0 298.5 146.1 298.85 145.85 299.2 145.5 299.25 145.15 299.05 M149.05 297.65 L148.95 297.25 149.2 296.95 149.55 296.85 Q149.75 296.9 149.9 297.1 L149.95 297.45 149.75 297.8 149.35 297.85 149.05 297.65 M125.05 246.75 L125.0 246.4 125.2 246.05 125.6 246.0 125.9 246.2 126.0 246.6 125.75 246.9 125.4 247.0 125.05 246.75 M128.3 249.15 L128.2 248.75 128.4 248.45 128.75 248.35 129.05 248.55 129.15 248.95 128.95 249.25 128.55 249.35 128.3 249.15 M131.75 250.55 L132.1 250.5 132.45 250.7 132.5 251.1 132.3 251.35 131.9 251.45 131.6 251.2 131.5 250.9 131.75 250.55 M142.2 248.75 L142.15 248.4 142.35 248.1 142.75 248.0 Q142.95 248.05 143.05 248.25 L143.1 248.6 142.9 248.9 142.55 248.95 142.2 248.75 M143.25 240.65 L143.15 240.25 Q143.2 240.05 143.4 239.95 L143.75 239.85 144.1 240.05 144.15 240.45 143.95 240.75 143.55 240.85 143.25 240.65 M142.6 244.65 L142.5 244.3 142.7 243.95 143.1 243.9 143.4 244.1 143.5 244.5 143.3 244.8 142.9 244.9 142.6 244.65 M135.05 253.05 L134.95 252.7 135.15 252.35 135.55 252.3 Q135.75 252.35 135.85 252.5 L135.95 252.9 135.75 253.2 135.35 253.3 135.05 253.05 M138.8 254.1 L139.15 254.0 139.5 254.25 139.5 254.6 139.35 254.95 138.95 255.0 138.65 254.8 138.55 254.4 138.8 254.1 M142.4 255.6 L142.75 255.55 143.1 255.75 143.15 256.1 142.95 256.4 142.55 256.5 Q142.35 256.45 142.25 256.25 L142.15 255.9 142.4 255.6 M141.75 252.7 L141.7 252.35 141.9 252.0 142.3 251.95 142.55 252.15 142.65 252.55 142.4 252.85 142.1 252.95 141.75 252.7 M145.9 257.7 Q145.8 257.5 145.85 257.3 L146.05 257.0 146.4 256.9 146.7 257.1 146.8 257.5 146.55 257.8 146.2 257.9 145.9 257.7 M149.75 258.2 L150.15 258.1 150.45 258.35 150.55 258.7 150.3 259.05 149.95 259.1 Q149.75 259.1 149.6 258.9 149.5 258.7 149.55 258.5 L149.75 258.2 M153.95 259.3 Q154.15 259.35 154.3 259.55 L154.35 259.9 154.15 260.25 153.75 260.3 153.45 260.1 153.35 259.7 153.6 259.4 153.95 259.3 M157.25 261.25 L157.2 260.85 157.4 260.55 157.8 260.45 158.05 260.7 158.15 261.05 157.9 261.4 157.6 261.4 157.25 261.25 M147.55 229.25 L147.45 228.9 147.7 228.55 148.05 228.5 148.4 228.7 148.45 229.1 148.25 229.4 147.85 229.5 147.55 229.25 M150.35 226.1 L150.3 226.05 149.95 226.1 149.65 225.9 149.55 225.5 149.8 225.25 150.15 225.15 150.45 225.4 150.45 225.45 150.85 225.35 151.15 225.6 151.25 225.9 151.05 226.25 150.65 226.3 150.35 226.1 M152.2 222.5 L152.15 222.15 152.35 221.8 152.75 221.75 153.05 221.95 153.15 222.35 152.9 222.65 152.55 222.75 152.2 222.5 M144.5 236.0 L144.9 235.9 145.2 236.15 145.3 236.5 145.05 236.85 144.7 236.85 144.35 236.7 Q144.25 236.5 144.3 236.3 L144.5 236.0 M145.95 232.15 L146.35 232.15 146.6 232.3 146.7 232.7 146.45 233.0 146.15 233.1 145.8 232.85 145.75 232.5 145.95 232.15 M154.6 225.75 L154.95 226.0 154.95 226.35 154.8 226.65 154.4 226.7 154.1 226.5 154.0 226.15 154.25 225.85 154.6 225.75 M158.35 226.9 Q158.55 226.9 158.65 227.1 L158.75 227.45 158.55 227.75 158.15 227.85 157.85 227.6 157.75 227.25 157.95 226.95 158.35 226.9 M161.65 228.55 L162.0 228.45 Q162.2 228.5 162.3 228.7 L162.4 229.05 162.15 229.4 161.8 229.45 161.5 229.25 Q161.4 229.05 161.45 228.85 L161.65 228.55 M165.05 231.0 L165.0 230.65 165.2 230.3 165.6 230.25 165.9 230.45 166.0 230.85 165.75 231.15 165.4 231.2 165.05 231.0 M168.6 232.3 L168.8 232.0 169.2 231.95 169.5 232.15 169.6 232.5 169.35 232.85 169.0 232.9 168.65 232.7 168.6 232.3 M172.35 233.75 L172.75 233.65 173.0 233.9 173.1 234.25 172.85 234.6 172.55 234.65 172.2 234.45 172.15 234.05 172.35 233.75 M179.55 237.85 L179.5 237.45 179.7 237.15 180.05 237.05 180.4 237.25 180.45 237.65 180.25 237.95 179.85 238.05 179.55 237.85 M183.35 239.45 L183.25 239.05 183.5 238.75 183.85 238.65 184.2 238.85 184.2 239.25 184.05 239.55 183.65 239.65 183.35 239.45 M176.3 235.45 L176.6 235.65 176.7 236.0 176.45 236.3 176.1 236.4 175.75 236.15 175.7 235.8 175.9 235.5 176.3 235.45 M161.0 261.95 L161.2 261.65 161.6 261.55 161.9 261.75 162.0 262.15 161.75 262.4 161.4 262.5 161.05 262.3 161.0 261.95 M164.85 263.3 L164.8 262.95 165.0 262.65 165.4 262.6 165.7 262.8 165.8 263.15 165.55 263.45 165.2 263.55 164.85 263.3 M168.5 263.5 L168.15 263.25 168.1 262.9 168.3 262.55 168.7 262.5 169.0 262.7 169.1 263.1 168.85 263.4 168.5 263.5 M168.65 263.9 L168.85 263.6 169.25 263.55 169.5 263.75 169.6 264.1 169.4 264.4 169.05 264.5 168.75 264.25 168.65 263.9 M175.85 261.7 L175.8 261.35 176.0 261.0 176.4 260.95 176.7 261.15 176.8 261.55 176.55 261.85 176.2 261.95 175.85 261.7 M172.05 262.3 L171.95 261.9 172.2 261.65 172.5 261.55 172.85 261.75 172.9 262.1 172.7 262.4 172.3 262.5 172.05 262.3 M172.5 264.9 L172.75 264.55 173.1 264.55 173.45 264.7 173.5 265.1 173.3 265.4 172.9 265.5 172.6 265.25 172.5 264.9 M176.0 266.6 L176.35 266.5 Q176.55 266.55 176.65 266.7 L176.75 267.1 176.55 267.4 176.15 267.5 175.9 267.3 175.8 266.9 176.0 266.6 M179.9 260.6 L180.3 260.55 180.6 260.75 180.7 261.15 180.45 261.4 180.1 261.5 179.75 261.25 179.7 260.95 179.9 260.6 M195.45 260.45 L195.65 260.15 196.05 260.05 196.35 260.25 196.45 260.65 196.25 260.95 195.85 261.05 195.55 260.85 195.45 260.45 M184.2 260.25 L184.5 260.45 184.6 260.85 184.35 261.15 184.0 261.25 183.65 261.0 183.6 260.65 183.8 260.3 184.2 260.25 M188.5 260.65 L188.25 260.95 187.9 261.05 187.55 260.8 187.5 260.45 187.7 260.15 188.1 260.1 188.4 260.3 188.5 260.65 M191.65 260.15 L192.05 260.05 192.3 260.3 192.4 260.65 192.15 261.0 191.85 261.05 191.5 260.85 Q191.4 260.65 191.45 260.45 L191.65 260.15 M199.7 260.3 L200.1 260.25 200.4 260.4 200.5 260.8 200.25 261.1 199.9 261.2 199.55 261.0 Q199.45 260.8 199.5 260.6 L199.7 260.3 M203.6 261.15 L203.5 260.85 203.7 260.5 204.1 260.45 204.35 260.65 204.45 261.05 204.25 261.3 203.9 261.4 203.6 261.15 M207.45 261.1 L207.7 260.75 208.05 260.7 208.4 260.9 208.45 261.3 208.25 261.6 207.85 261.7 207.55 261.45 207.45 261.1 M187.1 240.95 L187.0 240.55 187.25 240.3 187.6 240.2 187.95 240.4 188.0 240.75 187.8 241.05 187.4 241.15 187.1 240.95 M190.85 242.0 L191.0 241.7 191.4 241.6 191.7 241.8 191.8 242.2 191.55 242.5 191.2 242.6 190.85 242.4 190.85 242.0 M194.7 243.7 Q194.6 243.5 194.65 243.3 L194.85 243.0 195.25 242.9 Q195.45 242.95 195.55 243.1 L195.6 243.5 195.4 243.8 195.05 243.9 194.7 243.7 M198.55 244.9 L198.45 244.5 198.65 244.2 199.05 244.1 199.35 244.3 199.45 244.7 199.25 245.0 198.85 245.1 198.55 244.9 M202.5 245.25 L202.9 245.15 203.2 245.35 203.3 245.75 203.1 246.05 202.7 246.15 202.4 245.95 Q202.3 245.75 202.35 245.55 L202.5 245.25 M206.35 246.75 L206.25 246.35 206.45 246.05 206.85 245.95 207.15 246.15 207.2 246.55 207.05 246.85 206.65 246.95 206.35 246.75 M210.4 246.35 L210.8 246.3 211.1 246.5 211.2 246.9 210.95 247.2 210.6 247.3 Q210.4 247.25 210.25 247.05 L210.2 246.7 210.4 246.35 M179.05 269.1 L179.45 269.0 179.75 269.2 179.85 269.6 179.6 269.9 179.25 270.0 178.9 269.8 178.85 269.4 179.05 269.1 M161.0 294.05 L160.9 293.7 161.1 293.4 161.5 293.3 161.8 293.55 161.9 293.9 161.7 294.2 161.3 294.25 161.0 294.05 M153.6 295.7 L153.95 295.95 154.0 296.3 153.8 296.65 153.4 296.7 153.1 296.5 153.0 296.1 153.25 295.8 153.6 295.7 M156.85 294.8 L157.1 294.5 157.45 294.4 Q157.65 294.45 157.8 294.65 L157.85 295.0 157.65 295.35 157.25 295.4 156.95 295.2 156.85 294.8 M165.55 292.85 L165.8 293.05 165.9 293.45 165.7 293.75 165.35 293.85 165.05 293.6 164.95 293.25 165.15 292.9 165.55 292.85 M169.2 294.0 Q169.1 293.8 169.15 293.6 L169.35 293.3 169.75 293.2 Q169.95 293.25 170.05 293.45 L170.15 293.8 169.9 294.15 169.55 294.2 Q169.35 294.2 169.2 294.0 M173.15 295.65 Q173.05 295.45 173.1 295.25 L173.3 294.95 173.7 294.85 174.0 295.1 174.1 295.45 173.85 295.8 173.5 295.85 173.15 295.65 M176.8 296.85 L177.2 296.75 177.45 297.0 177.55 297.3 177.35 297.65 177.0 297.7 176.7 297.5 176.6 297.1 176.8 296.85 M180.8 298.95 L181.15 299.2 181.2 299.55 181.0 299.9 180.6 299.95 180.3 299.75 180.2 299.35 180.45 299.05 180.8 298.95 M183.65 301.7 L183.6 301.3 183.8 301.0 184.15 300.95 184.5 301.15 184.55 301.5 184.35 301.85 183.95 301.9 183.65 301.7 M187.8 302.7 Q188.0 302.75 188.15 302.9 L188.15 303.3 188.0 303.6 187.6 303.7 187.3 303.45 187.2 303.1 187.45 302.75 187.8 302.7 M191.2 303.6 Q191.1 303.4 191.15 303.2 L191.35 302.9 191.75 302.8 192.05 303.05 192.15 303.4 191.9 303.75 191.55 303.8 191.2 303.6 M195.45 302.8 L195.35 302.4 195.6 302.1 195.9 302.0 196.25 302.25 196.3 302.6 196.1 302.95 195.7 303.0 195.45 302.8 M199.4 301.95 L199.35 301.6 199.55 301.3 199.95 301.2 200.25 301.45 200.35 301.8 200.1 302.1 199.75 302.15 199.4 301.95 M181.95 272.4 Q181.85 272.2 181.9 272.0 L182.1 271.7 182.45 271.6 182.75 271.8 182.85 272.2 182.6 272.5 182.25 272.6 181.95 272.4 M185.75 274.4 L185.8 274.75 185.6 275.05 185.2 275.15 184.9 274.9 184.8 274.55 185.05 274.25 185.4 274.2 185.75 274.4 M188.0 277.2 L187.95 276.85 188.15 276.5 188.55 276.45 188.8 276.65 188.9 277.05 188.65 277.35 188.35 277.45 188.0 277.2 M191.4 279.15 L191.35 278.8 191.55 278.45 191.95 278.4 Q192.15 278.4 192.25 278.6 L192.35 279.0 192.1 279.3 191.75 279.4 191.4 279.15 M195.25 280.1 Q195.35 279.95 195.55 280.0 L195.9 280.25 195.95 280.6 195.75 280.95 195.35 281.0 195.1 280.8 195.0 280.4 195.25 280.1 M198.85 282.1 L198.75 281.7 199.0 281.4 199.35 281.3 199.7 281.5 199.75 281.9 199.55 282.2 199.15 282.25 198.85 282.1 M202.85 282.15 L203.2 282.1 Q203.4 282.15 203.55 282.3 L203.6 282.7 203.4 283.0 203.0 283.05 202.7 282.85 202.6 282.5 202.85 282.15 M206.65 283.3 L206.6 282.95 206.8 282.6 207.15 282.55 207.45 282.75 207.55 283.15 207.3 283.45 206.95 283.55 206.65 283.3 M210.5 283.75 L210.4 283.35 210.65 283.05 211.0 282.95 Q211.2 283.0 211.35 283.15 L211.4 283.55 211.2 283.85 210.8 283.95 210.5 283.75 M214.4 284.15 L214.35 283.8 214.55 283.45 214.95 283.4 215.25 283.6 215.35 284.0 215.1 284.3 214.75 284.4 214.4 284.15 M218.4 284.65 L218.35 284.3 218.55 283.95 218.95 283.9 219.2 284.1 219.3 284.5 219.05 284.8 218.75 284.9 218.4 284.65 M222.3 285.25 L222.25 284.9 222.45 284.55 222.85 284.55 223.15 284.7 223.25 285.1 223.0 285.4 222.65 285.5 222.3 285.25 M226.1 285.45 Q226.15 285.25 226.35 285.2 L226.7 285.1 227.05 285.35 227.1 285.65 226.9 286.0 226.5 286.05 226.2 285.85 226.1 285.45 M203.7 300.35 L204.0 300.6 204.1 300.95 203.9 301.3 203.5 301.35 203.25 301.15 203.15 300.75 203.35 300.45 203.7 300.35 M207.25 300.45 L207.15 300.1 207.35 299.75 207.75 299.7 208.05 299.9 208.15 300.3 207.95 300.6 207.55 300.7 207.25 300.45 M211.2 299.95 L211.1 299.6 211.3 299.25 211.7 299.25 212.0 299.4 212.1 299.8 211.9 300.1 211.5 300.2 211.2 299.95 M215.65 299.05 L215.95 298.95 216.3 299.2 216.35 299.55 216.15 299.9 215.75 299.95 215.5 299.75 215.4 299.35 Q215.45 299.15 215.65 299.05 M220.55 299.2 L220.65 299.6 220.4 299.9 220.05 300.0 219.7 299.8 219.65 299.4 219.85 299.1 220.25 299.0 220.55 299.2 M223.8 300.3 L223.75 299.95 223.95 299.6 224.35 299.55 Q224.55 299.55 224.65 299.75 L224.75 300.15 224.5 300.45 224.15 300.55 223.8 300.3 M227.8 301.05 L227.75 300.7 227.9 300.35 228.3 300.3 228.6 300.5 228.7 300.9 228.5 301.2 228.1 301.3 227.8 301.05 M231.9 301.25 L232.3 301.15 232.6 301.35 232.65 301.75 232.45 302.05 232.1 302.15 231.75 301.95 231.7 301.55 231.9 301.25 M235.75 302.9 L235.65 302.5 235.9 302.2 236.25 302.1 236.6 302.35 236.65 302.7 236.45 303.05 236.05 303.1 235.75 302.9 M240.1 303.1 L240.45 303.35 240.5 303.7 240.3 304.05 239.9 304.1 239.6 303.9 239.5 303.5 239.75 303.2 240.1 303.1 M241.0 304.3 L240.9 303.9 241.1 303.6 241.5 303.5 241.8 303.7 241.85 304.1 241.7 304.4 241.3 304.5 241.0 304.3 M247.6 308.95 L247.5 308.6 247.7 308.25 248.1 308.2 248.35 308.4 248.45 308.8 248.25 309.1 247.9 309.2 247.6 308.95 M244.3 306.15 L244.2 305.85 244.45 305.5 244.8 305.45 245.15 305.65 245.2 306.05 245.0 306.3 244.6 306.4 244.3 306.15 M230.65 285.75 L230.9 286.0 231.0 286.3 230.8 286.65 230.45 286.7 230.15 286.5 230.05 286.1 230.25 285.85 230.65 285.75 M233.9 286.8 L234.15 286.55 234.5 286.45 234.85 286.65 234.9 287.0 234.7 287.3 234.3 287.4 234.0 287.2 233.9 286.8 M237.85 287.85 L237.85 287.55 238.0 287.2 238.4 287.15 238.7 287.35 238.8 287.75 238.55 288.0 238.2 288.1 237.85 287.85 M245.1 293.7 L245.05 293.35 245.25 293.0 245.65 292.95 Q245.85 293.0 245.95 293.15 L246.05 293.55 245.8 293.85 245.45 293.95 245.1 293.7 M243.35 301.5 L243.3 301.1 243.5 300.85 243.9 300.75 244.2 301.0 244.3 301.3 244.05 301.65 243.7 301.7 243.35 301.5 M245.1 297.7 L245.0 297.35 245.2 297.0 245.6 296.95 245.85 297.15 245.95 297.55 245.75 297.85 245.4 297.95 245.1 297.7 M250.05 296.4 L249.95 296.0 Q250.0 295.8 250.2 295.7 L250.55 295.6 250.9 295.85 250.9 296.2 250.75 296.55 250.35 296.6 250.05 296.4 M243.5 287.95 Q243.7 288.0 243.8 288.2 L243.9 288.55 243.65 288.85 243.3 288.9 242.95 288.7 242.9 288.35 243.1 288.05 243.5 287.95 M241.9 288.0 L242.3 287.95 242.6 288.15 242.65 288.55 242.45 288.8 242.1 288.9 Q241.9 288.85 241.75 288.65 241.65 288.5 241.7 288.35 L241.9 288.0 M243.65 289.75 L243.55 289.4 243.75 289.05 244.15 289.0 Q244.35 289.05 244.45 289.2 L244.55 289.6 244.35 289.9 243.95 290.0 243.65 289.75 M246.15 288.55 L246.1 288.2 246.3 287.85 246.7 287.8 247.0 288.0 247.1 288.4 246.85 288.7 246.5 288.8 246.15 288.55 M250.05 286.6 L250.4 286.5 250.7 286.75 250.8 287.1 250.55 287.45 250.2 287.5 249.9 287.3 Q249.8 287.1 249.85 286.9 L250.05 286.6 M253.3 287.05 L253.7 287.0 254.0 287.2 254.1 287.6 253.85 287.9 253.5 288.0 253.15 287.75 253.1 287.4 253.3 287.05 M214.25 247.35 L214.25 247.0 214.4 246.65 214.8 246.6 215.1 246.8 215.2 247.2 214.95 247.5 214.6 247.6 214.25 247.35 M218.8 246.95 Q219.0 246.95 219.1 247.1 L219.15 247.5 218.95 247.8 218.6 247.9 218.25 247.65 218.2 247.3 218.4 246.95 218.8 246.95 M222.25 247.95 Q222.15 247.8 222.2 247.65 L222.4 247.3 222.8 247.25 223.1 247.45 223.2 247.85 222.95 248.1 222.6 248.2 222.25 247.95 M226.3 248.3 L226.25 247.95 226.45 247.6 226.8 247.55 227.1 247.75 227.2 248.15 226.95 248.45 226.6 248.55 226.3 248.3 M230.3 248.6 L230.25 248.25 230.45 247.9 230.85 247.85 231.15 248.05 231.2 248.45 231.0 248.75 230.65 248.85 230.3 248.6 M234.45 248.2 L234.85 248.15 Q235.05 248.15 235.15 248.35 L235.25 248.75 235.0 249.05 234.65 249.15 234.3 248.9 234.25 248.55 234.45 248.2 M211.8 262.0 L211.5 261.8 211.4 261.4 211.6 261.1 212.0 261.0 Q212.2 261.05 212.3 261.25 L212.4 261.6 212.2 261.95 211.8 262.0 M215.45 262.2 L215.4 261.8 215.6 261.5 216.0 261.4 216.25 261.65 216.35 262.0 216.1 262.35 215.8 262.4 215.45 262.2 M219.2 262.65 Q219.1 262.45 219.15 262.25 L219.35 261.95 219.75 261.85 Q219.95 261.9 220.05 262.1 L220.15 262.45 219.9 262.8 219.55 262.85 219.2 262.65 M223.35 262.9 L223.25 262.6 223.45 262.25 223.8 262.2 224.1 262.4 224.2 262.8 224.0 263.05 223.6 263.15 223.35 262.9 M227.25 263.15 L227.15 262.75 Q227.2 262.55 227.4 262.45 L227.75 262.35 228.1 262.6 228.15 262.95 227.95 263.3 227.55 263.35 227.25 263.15 M231.5 263.5 L231.2 263.25 231.1 262.9 231.3 262.55 231.7 262.5 232.0 262.7 232.1 263.1 231.9 263.4 231.5 263.5 M235.3 263.3 L235.2 262.95 235.4 262.6 235.75 262.6 236.05 262.75 236.15 263.15 235.95 263.45 235.55 263.55 235.3 263.3 M239.35 262.7 L239.75 262.6 240.05 262.85 240.15 263.2 239.95 263.55 239.55 263.55 Q239.35 263.55 239.25 263.4 L239.15 263.0 239.35 262.7 M243.35 263.2 L243.25 262.8 243.45 262.5 243.85 262.4 244.15 262.65 244.25 263.0 244.05 263.35 243.65 263.4 243.35 263.2 M247.25 262.9 L247.15 262.55 Q247.2 262.35 247.4 262.25 L247.75 262.15 Q247.95 262.2 248.05 262.4 L248.1 262.75 247.9 263.05 247.55 263.1 247.25 262.9 M251.85 262.7 L251.5 262.8 251.15 262.55 251.1 262.2 251.3 261.85 251.7 261.8 Q251.9 261.8 252.0 261.95 L252.15 261.75 252.55 261.7 Q252.75 261.75 252.85 261.9 L252.9 262.3 252.7 262.6 252.35 262.7 252.05 262.5 251.85 262.7 M256.0 262.95 L255.9 262.6 256.1 262.25 256.5 262.2 256.8 262.4 256.9 262.8 256.7 263.1 256.3 263.2 Q256.1 263.15 256.0 262.95 M238.85 248.5 L239.15 248.7 239.25 249.05 239.0 249.35 238.65 249.45 238.35 249.2 238.3 248.85 238.5 248.55 238.85 248.5 M242.35 249.5 Q242.25 249.35 242.3 249.2 L242.5 248.85 242.9 248.8 243.2 249.0 243.25 249.4 243.05 249.65 242.7 249.75 242.35 249.5 M246.35 249.85 L246.3 249.5 246.5 249.15 246.9 249.1 247.2 249.3 247.3 249.7 247.05 250.0 246.7 250.1 246.35 249.85 M252.2 254.7 L252.1 254.3 252.35 254.0 252.7 253.9 253.05 254.15 253.1 254.5 252.9 254.85 252.5 254.9 252.2 254.7 M252.6 258.3 L252.85 258.0 253.2 257.9 253.55 258.15 253.6 258.5 253.4 258.85 253.0 258.85 252.7 258.7 252.6 258.3 M256.35 253.25 L256.25 252.85 Q256.3 252.65 256.5 252.55 L256.85 252.45 257.2 252.7 257.2 253.05 257.05 253.4 256.65 253.45 256.35 253.25 M254.5 244.2 L254.45 243.8 254.65 243.5 255.05 243.4 255.35 243.6 255.45 244.0 255.2 244.3 254.85 244.4 254.5 244.2 M250.45 251.15 Q250.35 251.0 250.4 250.85 L250.6 250.5 251.0 250.45 251.3 250.65 251.4 251.05 251.15 251.3 250.8 251.4 250.45 251.15 M250.55 249.45 L250.9 249.4 251.2 249.6 251.3 250.0 251.05 250.3 250.7 250.4 250.4 250.15 250.35 249.8 250.55 249.45 M252.4 247.6 L252.3 247.2 252.55 246.9 252.9 246.8 253.25 247.05 253.3 247.4 253.1 247.75 252.7 247.8 252.4 247.6 M257.15 251.8 L257.5 251.7 257.8 251.95 257.9 252.3 257.7 252.6 257.3 252.65 257.05 252.45 256.95 252.1 257.15 251.8 M260.1 251.25 L260.05 250.9 260.25 250.55 260.6 250.55 260.95 250.7 261.0 251.1 260.8 251.4 260.4 251.5 260.1 251.25 M257.25 243.8 L257.15 243.4 Q257.2 243.2 257.4 243.1 L257.75 243.0 258.1 243.25 258.15 243.6 257.95 243.95 257.55 244.0 257.25 243.8 M259.05 246.75 L259.4 246.7 259.75 246.9 259.8 247.3 259.6 247.6 259.2 247.7 258.9 247.45 258.8 247.1 259.05 246.75 M260.15 254.45 L260.1 254.05 260.3 253.75 260.7 253.65 261.0 253.9 261.1 254.25 260.85 254.6 260.5 254.65 260.15 254.45 M261.4 257.35 L261.8 257.3 262.1 257.5 262.2 257.9 261.95 258.2 261.6 258.25 261.25 258.05 261.2 257.7 261.4 257.35 M259.95 263.45 L259.9 263.1 260.1 262.75 260.45 262.75 260.8 262.9 260.85 263.3 260.65 263.6 260.25 263.7 259.95 263.45 M261.9 261.95 Q261.8 261.75 261.85 261.55 L262.05 261.25 262.45 261.15 262.75 261.4 262.8 261.75 262.6 262.1 262.25 262.15 261.9 261.95 M257.0 293.95 L257.3 294.15 257.4 294.5 257.2 294.85 256.8 294.9 256.5 294.7 256.4 294.3 256.6 294.0 257.0 293.95 M255.8 291.0 L255.7 290.6 255.9 290.3 256.3 290.2 256.6 290.45 256.7 290.8 256.5 291.15 256.1 291.2 255.8 291.0 M254.3 295.65 L254.7 295.55 255.0 295.8 255.1 296.1 254.85 296.45 254.5 296.5 254.15 296.3 254.1 295.9 254.3 295.65 M251.8 299.1 L251.7 298.7 251.9 298.4 252.3 298.3 252.6 298.55 252.7 298.9 252.5 299.25 252.1 299.3 251.8 299.1 M254.2 301.3 L254.55 301.2 254.85 301.45 254.9 301.8 254.7 302.15 254.35 302.2 254.05 302.0 253.95 301.6 254.2 301.3 M252.4 305.85 L252.3 305.45 252.5 305.2 252.9 305.1 253.2 305.3 253.3 305.65 253.1 305.95 252.7 306.05 252.4 305.85 M250.5 308.95 L250.85 308.85 251.15 309.05 251.25 309.45 251.0 309.75 250.65 309.8 250.35 309.65 Q250.25 309.45 250.3 309.25 L250.5 308.95 M202.35 75.5 L202.25 75.1 202.45 74.85 202.85 74.75 203.1 75.0 203.2 75.3 203.0 75.65 202.65 75.7 202.35 75.5 M205.95 73.8 L205.85 73.4 Q205.9 73.2 206.1 73.15 L206.45 73.05 Q206.65 73.1 206.8 73.3 L206.85 73.6 206.65 73.95 206.25 74.0 205.95 73.8 M195.2 79.1 L195.1 78.7 195.35 78.4 195.7 78.35 196.05 78.55 196.1 78.9 195.9 79.25 195.5 79.3 195.2 79.1 M198.8 77.25 L198.7 76.9 198.95 76.55 199.3 76.55 199.65 76.7 199.7 77.1 199.5 77.4 199.1 77.5 198.8 77.25 M207.25 87.2 L207.15 86.85 207.35 86.5 207.75 86.45 208.0 86.65 208.1 87.05 207.9 87.35 207.55 87.45 207.25 87.2 M211.2 86.65 L211.1 86.3 211.35 86.0 211.7 85.9 212.05 86.1 212.1 86.5 211.9 86.75 211.5 86.85 211.2 86.65 M214.9 88.15 L214.8 87.8 215.05 87.45 215.35 87.4 215.7 87.6 215.75 88.0 215.55 88.3 215.15 88.4 214.9 88.15 M209.75 72.35 L209.65 72.0 209.85 71.65 210.25 71.6 Q210.45 71.65 210.55 71.8 L210.65 72.2 210.45 72.5 210.05 72.6 Q209.85 72.55 209.75 72.35 M213.5 71.25 L213.7 70.95 214.1 70.85 214.4 71.1 214.5 71.45 214.3 71.8 213.9 71.85 213.6 71.65 213.5 71.25 M218.4 71.65 L218.5 72.05 218.3 72.35 217.95 72.45 217.65 72.2 217.55 71.85 217.75 71.5 218.15 71.45 Q218.35 71.45 218.4 71.65 M221.1 73.6 L221.5 73.5 221.8 73.75 221.9 74.05 221.65 74.4 221.3 74.45 220.95 74.25 220.9 73.85 221.1 73.6 M194.45 94.7 L194.75 94.95 194.85 95.25 194.65 95.6 194.25 95.65 193.95 95.45 Q193.85 95.25 193.9 95.05 L194.05 94.8 194.45 94.7 M196.9 92.9 L196.8 92.55 197.05 92.2 197.35 92.15 197.7 92.35 197.75 92.75 197.55 93.05 197.15 93.15 196.9 92.9 M200.05 89.8 L200.4 89.75 Q200.6 89.8 200.75 89.95 L200.8 90.35 200.6 90.65 200.2 90.75 199.9 90.5 199.85 90.15 200.05 89.8 M203.4 88.55 L203.35 88.15 203.55 87.85 203.95 87.75 Q204.15 87.8 204.25 87.95 L204.35 88.35 204.1 88.65 203.75 88.75 203.4 88.55 M191.25 97.65 L191.6 97.6 191.95 97.8 192.0 98.2 191.8 98.5 191.4 98.6 191.1 98.35 191.0 98.0 191.25 97.65 M191.65 101.9 L191.95 102.05 192.05 102.45 191.8 102.75 191.45 102.85 191.1 102.65 Q191.0 102.45 191.05 102.25 L191.25 101.95 191.65 101.9 M194.85 103.65 L194.8 103.3 195.0 102.95 195.4 102.9 195.7 103.1 195.8 103.5 195.55 103.8 195.2 103.9 194.85 103.65 M199.05 104.35 L198.95 103.95 Q199.0 103.75 199.2 103.65 L199.55 103.55 199.85 103.8 199.9 104.15 199.7 104.5 199.35 104.55 199.05 104.35 M203.1 104.75 L203.05 104.4 203.25 104.1 203.65 104.05 Q203.85 104.1 203.95 104.25 L204.05 104.6 203.8 104.9 203.45 105.0 203.1 104.75 M207.25 105.15 L207.2 104.8 207.4 104.5 207.8 104.4 208.1 104.65 208.2 105.0 207.95 105.3 207.6 105.35 Q207.4 105.35 207.25 105.15 M211.25 105.65 L211.15 105.25 211.35 104.95 211.7 104.85 212.0 105.1 212.1 105.45 211.9 105.8 211.5 105.85 211.25 105.65 M217.05 91.7 L216.95 91.3 Q217.0 91.1 217.2 91.0 L217.55 90.9 217.9 91.1 217.95 91.5 217.75 91.8 217.35 91.9 217.05 91.7 M219.3 95.05 L219.35 95.4 219.15 95.7 218.75 95.8 218.45 95.55 218.4 95.2 218.6 94.9 218.95 94.85 219.3 95.05 M219.45 99.5 L219.4 99.15 219.6 98.8 220.0 98.75 220.25 98.95 220.35 99.35 220.1 99.65 219.8 99.75 219.45 99.5 M220.2 103.3 L220.1 102.95 220.35 102.65 220.7 102.6 221.05 102.8 221.1 103.15 220.9 103.45 220.5 103.55 220.2 103.3 M215.35 105.45 L215.7 105.35 Q215.9 105.4 216.05 105.6 L216.1 105.95 215.9 106.3 215.5 106.35 215.2 106.15 215.1 105.75 215.35 105.45 M218.9 106.6 L218.8 106.2 219.05 105.9 219.4 105.8 219.5 105.85 219.85 106.05 219.9 106.1 219.95 106.1 219.95 106.05 220.0 106.0 220.05 105.95 220.45 105.85 220.75 106.1 220.85 106.1 220.95 106.1 221.05 106.15 221.1 106.15 221.15 106.15 221.5 106.4 221.55 106.75 221.35 107.1 220.95 107.15 220.9 107.15 220.85 107.15 220.75 107.1 220.65 107.1 220.35 106.9 220.25 106.85 220.0 106.65 219.95 106.6 219.75 106.8 219.4 106.9 219.3 106.9 219.15 106.8 219.1 106.75 218.9 106.6 M224.55 108.05 L224.45 107.65 Q224.5 107.45 224.7 107.35 L225.05 107.25 225.4 107.5 225.45 107.85 225.25 108.2 224.85 108.25 224.55 108.05 M232.35 103.3 L232.25 102.9 232.45 102.65 232.85 102.55 233.15 102.8 233.25 103.1 233.05 103.45 232.65 103.5 232.35 103.3 M228.5 108.45 L228.9 108.35 229.2 108.6 229.3 108.95 229.1 109.3 228.7 109.35 228.4 109.15 228.3 108.75 228.5 108.45 M232.25 110.25 L232.2 109.85 232.4 109.55 232.75 109.45 Q232.95 109.5 233.05 109.7 L233.15 110.05 232.9 110.4 232.55 110.4 232.25 110.25 M234.55 110.2 L234.95 110.1 235.2 110.35 235.3 110.7 235.1 111.0 234.75 111.05 234.45 110.85 234.35 110.5 234.55 110.2 M238.35 111.55 L238.25 111.2 Q238.3 111.0 238.5 110.9 L238.85 110.8 239.2 111.05 239.25 111.4 239.05 111.7 238.65 111.75 238.35 111.55 M233.4 107.1 L233.3 106.7 233.5 106.4 233.9 106.3 234.2 106.55 234.3 106.9 234.1 107.25 233.7 107.3 233.4 107.1 M230.1 95.8 L230.05 95.4 230.25 95.15 230.65 95.05 230.9 95.3 231.0 95.6 230.75 95.95 230.45 96.0 230.1 95.8 M231.2 99.55 L231.15 99.2 231.35 98.85 231.75 98.8 232.05 99.0 232.15 99.4 231.9 99.7 231.55 99.8 231.2 99.55 M225.8 80.2 L226.1 80.4 226.2 80.8 226.0 81.1 225.6 81.2 225.3 80.95 225.2 80.6 225.4 80.25 225.8 80.2 M223.65 77.35 L223.6 76.95 223.8 76.7 224.2 76.6 224.5 76.85 224.55 77.15 224.35 77.5 224.0 77.55 Q223.8 77.55 223.65 77.35 M229.1 91.35 L229.5 91.25 229.8 91.45 229.9 91.85 229.65 92.15 229.3 92.25 228.95 92.05 228.95 91.65 229.1 91.35 M227.8 88.25 L227.7 87.85 Q227.75 87.65 227.95 87.55 L228.3 87.45 Q228.5 87.5 228.65 87.7 L228.7 88.05 228.5 88.4 228.1 88.45 227.8 88.25 M226.55 84.65 L226.5 84.3 226.7 83.95 227.1 83.9 227.4 84.1 227.5 84.5 227.25 84.8 226.9 84.85 226.55 84.65 M201.55 126.85 L201.45 126.45 201.65 126.15 202.05 126.1 202.3 126.3 202.4 126.65 202.2 127.0 201.85 127.05 201.55 126.85 M205.05 125.0 L205.0 124.65 205.15 124.3 205.55 124.3 205.85 124.45 205.95 124.85 205.75 125.15 205.35 125.25 205.05 125.0 M208.7 123.4 L208.6 123.05 208.85 122.7 209.2 122.7 209.55 122.85 209.6 123.25 209.4 123.55 209.0 123.65 208.7 123.4 M191.15 133.25 L191.55 133.2 191.85 133.4 191.95 133.8 191.7 134.05 191.35 134.15 Q191.15 134.1 191.0 133.9 L191.0 133.6 191.15 133.25 M194.3 131.3 L194.25 130.95 194.45 130.6 194.85 130.55 195.15 130.75 195.25 131.15 195.0 131.45 194.65 131.55 194.3 131.3 M188.45 137.45 L188.35 137.05 188.55 136.75 188.95 136.65 189.25 136.9 189.35 137.25 189.15 137.6 188.75 137.65 188.45 137.45 M186.95 139.95 L187.25 140.15 187.3 140.5 187.1 140.8 186.75 140.9 186.4 140.7 Q186.3 140.5 186.35 140.3 L186.55 140.05 186.95 139.95 M184.35 143.35 L184.75 143.25 Q184.95 143.3 185.05 143.5 L185.15 143.85 184.9 144.2 184.55 144.25 184.2 144.05 184.15 143.65 184.35 143.35 M189.15 142.8 L189.15 142.45 189.3 142.1 189.7 142.05 190.0 142.25 190.1 142.65 189.85 142.95 189.5 143.05 189.15 142.8 M190.5 145.85 L190.85 146.05 190.85 146.45 190.7 146.75 190.3 146.85 Q190.1 146.8 190.0 146.6 L189.9 146.25 190.15 145.9 190.5 145.85 M197.85 129.0 L197.8 128.65 198.0 128.3 198.4 128.25 198.7 128.45 198.8 128.85 198.55 129.15 198.2 129.25 197.85 129.0 M222.6 132.85 L222.5 132.55 222.75 132.2 223.1 132.15 223.4 132.35 223.45 132.75 223.25 133.0 222.9 133.1 222.6 132.85 M226.2 133.25 L226.15 132.85 226.35 132.55 226.75 132.45 Q226.95 132.5 227.05 132.7 L227.15 133.05 226.9 133.4 226.55 133.45 226.2 133.25 M221.25 121.0 L221.6 121.2 221.65 121.6 221.45 121.9 221.05 122.0 220.75 121.75 220.65 121.4 220.9 121.05 221.25 121.0 M212.7 121.5 L213.05 121.45 213.35 121.65 213.45 122.05 213.25 122.35 212.85 122.45 212.6 122.2 212.5 121.85 212.7 121.5 M216.6 121.7 L216.5 121.3 216.75 121.0 217.1 120.9 217.45 121.15 217.5 121.5 217.3 121.85 216.9 121.85 216.6 121.7 M218.8 130.95 L219.05 130.65 219.4 130.55 Q219.6 130.6 219.75 130.75 L219.8 131.15 219.6 131.45 219.2 131.55 218.9 131.35 218.8 130.95 M221.25 127.45 L221.65 127.35 221.9 127.55 222.0 127.9 221.75 128.2 221.45 128.3 221.1 128.1 Q221.0 127.9 221.05 127.7 L221.25 127.45 M221.85 127.05 L221.8 126.65 222.0 126.35 222.4 126.25 222.5 126.3 222.4 126.2 222.3 125.85 222.55 125.5 222.9 125.5 223.25 125.65 223.3 126.05 223.1 126.35 222.7 126.45 222.65 126.4 222.7 126.5 222.8 126.85 222.55 127.2 222.2 127.25 221.85 127.05 M220.95 122.35 L221.3 122.3 221.65 122.5 221.7 122.85 221.5 123.15 221.1 123.25 220.8 123.0 220.7 122.65 220.95 122.35 M226.4 126.75 L226.3 126.4 226.55 126.1 226.85 126.05 227.2 126.25 227.25 126.6 227.05 126.9 226.65 127.0 226.4 126.75 M229.95 130.2 L230.3 130.4 230.35 130.8 230.15 131.1 229.75 131.2 229.45 131.0 229.35 130.6 229.6 130.3 229.95 130.2 M232.65 131.75 L233.0 131.65 Q233.2 131.7 233.3 131.9 L233.4 132.25 233.2 132.55 232.8 132.6 232.55 132.4 232.45 132.05 232.65 131.75 M230.6 126.95 L230.5 126.55 230.7 126.25 231.1 126.15 231.4 126.4 231.5 126.75 231.3 127.1 230.9 127.1 230.6 126.95 M234.55 126.65 L234.45 126.3 234.7 125.95 235.05 125.9 235.4 126.1 235.45 126.5 235.25 126.8 234.85 126.9 234.55 126.65 M234.75 124.95 L234.75 124.9 234.95 124.55 235.35 124.5 235.65 124.7 235.75 125.1 235.75 125.15 235.7 125.25 235.7 125.45 235.45 125.7 235.1 125.8 Q234.9 125.75 234.75 125.55 L234.7 125.25 234.75 125.05 234.75 124.95 M224.85 122.1 L224.75 121.75 225.0 121.4 225.3 121.35 225.65 121.55 225.7 121.95 225.5 122.25 225.1 122.35 224.85 122.1 M228.85 122.6 L228.8 122.2 229.0 121.9 229.4 121.85 229.7 122.0 229.8 122.4 229.55 122.7 229.2 122.8 228.85 122.6 M233.1 122.5 L233.5 122.45 233.8 122.65 233.9 123.0 233.65 123.3 233.3 123.4 232.95 123.15 232.9 122.8 233.1 122.5 M234.4 123.0 L234.6 122.7 234.95 122.65 235.25 122.85 235.35 123.2 235.15 123.5 234.75 123.6 234.5 123.35 234.4 123.0 M238.4 123.6 L238.3 123.2 238.55 122.9 238.9 122.8 239.25 123.05 239.3 123.4 239.1 123.75 238.7 123.8 238.4 123.6 M242.25 123.4 L242.45 123.05 242.85 123.0 243.15 123.2 243.25 123.6 243.0 123.9 242.65 124.0 242.3 123.75 242.25 123.4 M246.8 123.15 L247.1 123.4 247.15 123.75 246.95 124.1 246.6 124.15 246.3 123.95 246.2 123.55 246.45 123.25 246.8 123.15 M236.85 128.3 L237.25 128.2 Q237.45 128.25 237.55 128.4 L237.65 128.75 237.45 129.05 237.05 129.15 236.75 128.95 236.65 128.55 236.85 128.3 M237.45 131.9 L237.8 131.8 238.1 132.0 238.15 132.4 237.95 132.7 237.6 132.8 237.3 132.6 237.2 132.2 237.45 131.9 M235.95 134.3 L236.25 134.5 236.35 134.9 236.15 135.2 235.75 135.3 235.45 135.05 235.35 134.7 235.55 134.35 235.95 134.3 M250.2 124.2 L250.1 123.8 250.35 123.55 250.7 123.45 251.05 123.65 251.1 124.0 250.9 124.3 250.5 124.4 250.2 124.2 M254.05 125.3 L253.95 124.9 254.2 124.6 254.55 124.55 254.9 124.7 254.95 125.1 254.75 125.4 254.35 125.5 254.05 125.3 M257.95 126.35 L257.85 125.95 258.1 125.65 258.45 125.55 258.75 125.75 258.8 126.15 258.6 126.45 258.25 126.55 257.95 126.35 M261.9 126.75 L262.3 126.65 262.6 126.85 262.7 127.25 262.5 127.55 262.1 127.65 261.8 127.45 261.7 127.05 261.9 126.75 M265.65 128.45 L265.55 128.05 265.8 127.75 266.15 127.65 266.5 127.85 266.55 128.25 266.35 128.55 265.95 128.65 265.65 128.45 M269.55 129.55 L269.45 129.15 269.65 128.85 270.05 128.75 270.3 128.95 270.4 129.35 270.2 129.65 269.85 129.75 269.55 129.55 M273.4 130.55 L273.3 130.15 273.55 129.85 273.9 129.75 274.25 129.95 274.3 130.35 274.1 130.65 273.7 130.75 273.4 130.55 M277.25 131.65 L277.15 131.25 277.35 130.95 277.75 130.85 Q277.95 130.9 278.05 131.05 L278.15 131.45 277.95 131.75 277.55 131.8 277.25 131.65 M281.15 132.6 L281.05 132.25 281.3 131.95 281.65 131.85 Q281.85 131.9 281.95 132.05 L282.0 132.45 281.8 132.7 281.45 132.8 281.15 132.6 M242.3 112.1 Q242.2 111.9 242.25 111.7 L242.45 111.4 242.85 111.3 243.15 111.55 243.25 111.9 243.0 112.25 242.65 112.3 242.3 112.1 M246.4 111.85 L246.8 111.75 247.05 112.0 247.15 112.35 246.95 112.7 246.6 112.75 246.3 112.55 246.2 112.15 246.4 111.85 M250.25 112.8 L250.15 112.4 Q250.2 112.2 250.4 112.1 L250.75 112.0 251.1 112.2 251.15 112.6 250.95 112.9 250.55 113.0 250.25 112.8 M254.35 113.6 L254.25 113.25 254.5 112.9 254.85 112.85 255.2 113.05 255.25 113.45 255.05 113.75 254.65 113.85 254.35 113.6 M258.2 114.8 L258.15 114.45 258.35 114.1 258.7 114.05 259.0 114.25 259.1 114.65 258.85 114.95 258.5 115.05 258.2 114.8 M262.05 115.95 L261.95 115.6 Q262.0 115.4 262.2 115.25 L262.55 115.2 262.9 115.4 262.95 115.8 262.75 116.1 262.35 116.2 262.05 115.95 M266.0 116.55 L265.9 116.2 266.1 115.85 266.5 115.8 266.8 116.0 266.9 116.4 266.7 116.7 266.3 116.8 266.0 116.55 M270.0 116.95 L269.95 116.6 270.15 116.25 270.5 116.2 270.8 116.4 270.9 116.8 270.65 117.1 270.3 117.2 270.0 116.95 M274.0 117.25 L273.95 116.9 274.15 116.55 274.55 116.5 274.85 116.7 274.95 117.1 274.7 117.4 274.35 117.5 274.0 117.25 M278.5 116.95 L278.85 117.15 278.9 117.5 278.7 117.8 278.3 117.9 278.0 117.65 277.9 117.3 278.15 117.0 278.5 116.95 M282.05 117.95 L281.95 117.65 Q282.0 117.45 282.2 117.3 L282.5 117.25 282.85 117.45 282.9 117.85 282.7 118.1 282.3 118.2 282.05 117.95 M286.15 117.7 L286.55 117.65 286.85 117.85 286.95 118.25 286.7 118.55 286.35 118.65 286.0 118.4 285.95 118.05 286.15 117.7 M182.15 147.25 L182.05 146.9 182.3 146.55 182.65 146.55 183.0 146.7 183.05 147.1 182.85 147.4 182.45 147.5 182.15 147.25 M191.35 154.45 L191.3 154.05 191.5 153.75 191.85 153.65 192.15 153.9 192.25 154.25 192.0 154.6 191.65 154.65 191.35 154.45 M190.7 150.5 L190.65 150.15 190.85 149.8 191.25 149.75 191.55 149.95 191.65 150.35 191.4 150.65 191.05 150.75 190.7 150.5 M191.8 158.3 L191.75 157.95 191.95 157.65 192.35 157.55 192.65 157.8 192.75 158.15 192.5 158.45 192.15 158.5 191.8 158.3 M192.65 161.6 L193.0 161.8 193.05 162.2 192.85 162.5 192.45 162.6 192.2 162.4 192.1 162.0 192.35 161.7 192.65 161.6 M192.15 166.25 L192.05 165.85 192.25 165.6 192.65 165.5 192.95 165.7 193.05 166.05 192.85 166.35 192.45 166.45 192.15 166.25 M189.35 181.4 L189.55 181.05 189.95 181.0 190.25 181.2 190.35 181.6 190.15 181.9 189.75 182.0 189.45 181.75 189.35 181.4 M190.55 178.0 L190.5 177.6 190.7 177.35 191.1 177.25 191.4 177.5 191.5 177.8 191.25 178.15 190.9 178.2 190.55 178.0 M188.0 185.55 L187.9 185.15 188.1 184.85 188.5 184.75 188.8 185.0 188.9 185.35 188.7 185.7 188.3 185.75 188.0 185.55 M191.95 170.25 L191.85 169.85 192.1 169.55 192.45 169.45 Q192.65 169.5 192.8 169.7 L192.85 170.05 192.65 170.4 192.25 170.45 191.95 170.25 M191.45 174.15 L191.35 173.8 191.6 173.45 191.95 173.4 192.3 173.6 192.35 174.0 192.15 174.3 191.75 174.4 191.45 174.15 M182.3 195.85 L182.2 195.45 182.4 195.2 182.8 195.1 183.1 195.3 183.2 195.65 183.0 195.95 182.6 196.05 182.3 195.85 M173.7 204.65 L173.65 204.25 173.85 203.95 174.25 203.85 174.5 204.1 174.6 204.45 174.35 204.8 174.05 204.85 173.7 204.65 M176.7 201.95 L176.65 201.6 176.85 201.3 177.2 201.2 177.5 201.4 177.6 201.8 177.35 202.05 177.0 202.15 176.7 201.95 M179.75 198.4 L180.1 198.3 180.4 198.5 180.45 198.9 180.25 199.2 179.9 199.3 179.6 199.1 179.5 198.7 179.75 198.4 M186.5 188.55 L186.85 188.5 Q187.05 188.5 187.15 188.7 L187.2 189.1 187.0 189.35 186.65 189.45 186.35 189.2 186.25 188.9 186.5 188.55 M184.4 192.65 L184.3 192.3 184.55 191.95 184.9 191.9 185.25 192.1 185.3 192.5 185.1 192.8 184.7 192.9 184.4 192.65 M170.65 207.15 L170.6 206.75 170.8 206.45 171.2 206.35 171.45 206.6 171.55 206.95 171.3 207.3 171.0 207.35 170.65 207.15 M298.0 116.05 L298.35 116.25 298.4 116.6 298.2 116.9 297.8 117.0 297.5 116.75 297.4 116.4 297.65 116.1 298.0 116.05 M289.65 118.7 L290.05 118.6 290.35 118.85 290.45 119.2 290.2 119.55 289.85 119.55 289.5 119.4 Q289.4 119.2 289.45 119.0 L289.65 118.7 M293.65 117.65 L293.55 117.25 293.75 116.95 294.15 116.85 294.45 117.05 294.55 117.45 294.35 117.75 293.95 117.85 293.65 117.65 M290.85 122.35 L291.2 122.3 291.5 122.5 291.55 122.9 291.35 123.2 291.0 123.3 290.7 123.05 290.6 122.7 290.85 122.35 M300.1 118.4 L300.0 118.0 300.25 117.7 300.6 117.6 Q300.8 117.65 300.95 117.8 L301.0 118.2 300.8 118.5 300.4 118.6 300.1 118.4 M301.55 121.5 L301.85 121.7 301.95 122.05 301.7 122.35 301.35 122.45 301.0 122.2 301.0 121.85 301.15 121.55 301.55 121.5 M300.4 125.45 L300.8 125.35 301.1 125.55 301.2 125.95 301.0 126.25 300.6 126.35 300.3 126.15 Q300.2 125.95 300.25 125.75 L300.4 125.45 M289.95 130.3 L290.0 130.7 289.8 131.0 289.4 131.1 289.15 130.9 289.05 130.5 289.3 130.2 289.6 130.1 289.95 130.3 M290.5 127.05 L290.4 126.7 Q290.45 126.5 290.65 126.4 L291.0 126.3 291.35 126.55 291.4 126.9 291.2 127.2 290.8 127.25 290.5 127.05 M285.5 132.95 L285.8 133.15 285.9 133.5 285.7 133.8 285.3 133.9 285.0 133.7 284.9 133.3 285.1 133.05 285.5 132.95 M286.8 133.7 L287.0 133.4 287.4 133.35 287.7 133.55 287.8 133.9 287.6 134.2 287.2 134.3 286.9 134.05 286.8 133.7 M291.1 135.55 L291.45 135.8 291.5 136.15 291.3 136.5 290.9 136.55 290.65 136.35 290.55 135.95 290.8 135.65 291.1 135.55 M296.3 128.7 L296.55 128.4 296.9 128.35 297.25 128.5 297.25 128.9 297.1 129.2 296.7 129.3 296.4 129.1 296.3 128.7 M297.2 127.75 L297.1 127.35 297.35 127.05 297.65 126.95 298.0 127.15 298.05 127.55 297.85 127.85 297.45 127.95 297.2 127.75 M294.15 138.35 L294.05 138.0 294.25 137.65 294.65 137.65 294.95 137.8 295.05 138.2 294.85 138.5 294.45 138.6 294.15 138.35 M298.35 131.75 L298.65 132.0 298.75 132.35 298.5 132.7 298.15 132.75 297.8 132.55 297.75 132.15 297.95 131.85 298.35 131.75 M296.85 136.4 L296.8 136.05 297.0 135.7 297.4 135.7 297.7 135.85 297.8 136.25 297.55 136.55 297.2 136.65 296.85 136.4" fill="#1596ea" fill-opacity="0.5019608" fill-rule="evenodd" stroke="none"/>
    <path d="M136.95 162.95 L92.65 56.15 65.65 32.6 144.75 29.1 143.95 28.7 M226.0 211.75 Q225.55 212.05 225.15 212.5 L113.15 316.25 112.45 318.05 M125.8 217.8 L126.05 219.05 136.35 163.35 M126.05 219.05 L134.05 263.2 113.15 316.25 M244.3 86.95 L259.95 119.5 260.2 118.75 M225.15 212.5 L259.95 119.5 M245.25 87.15 L144.75 29.1" fill="none" stroke="#0a387e" stroke-linecap="round" stroke-linejoin="round" stroke-width="1.0"/>
  </g>
</svg>
