<?xml version="1.0" encoding="UTF-8" standalone="no"?>
<svg xmlns:ffdec="https://www.free-decompiler.com/flash" xmlns:xlink="http://www.w3.org/1999/xlink" ffdec:objectType="shape" height="46.75px" width="42.3px" xmlns="http://www.w3.org/2000/svg">
  <g transform="matrix(1.0, 0.0, 0.0, 1.0, 0.25, 0.25)">
    <path d="M0.05 24.7 Q-0.15 23.85 1.0 22.9 L12.1 17.1 12.4 15.35 Q12.9 15.9 13.55 15.9 16.2 15.9 17.4 13.0 18.2 11.0 18.2 8.2 L18.25 4.55 Q23.05 8.65 20.05 19.7 18.75 23.85 13.3 25.5 5.6 27.75 0.05 24.7 M33.4 9.7 L38.75 9.7 39.1 11.0 Q39.1 13.0 35.6 15.2 32.2 17.3 29.6 17.3 28.0 17.3 27.3 16.8 26.5 16.2 26.5 14.7 26.5 11.25 33.4 9.7" fill="#ffff99" fill-rule="evenodd" stroke="none"/>
    <path d="M38.75 9.7 L39.9 9.7 Q42.75 9.85 41.3 12.6 L36.25 22.95 41.0 34.4 Q43.35 40.1 36.85 39.0 L25.1 34.6 18.9 44.1 Q16.4 48.05 14.8 44.7 L13.1 30.8 1.3 26.0 Q0.2 25.4 0.05 24.7 5.6 27.75 13.3 25.5 18.75 23.85 20.05 19.7 23.05 8.65 18.25 4.55 17.8 4.2 17.35 3.95 14.75 2.5 14.0 6.45 L14.6 2.9 Q15.65 -2.15 18.9 1.6 L26.8 9.7 33.4 9.7 Q26.5 11.25 26.5 14.7 26.5 16.2 27.3 16.8 28.0 17.3 29.6 17.3 32.2 17.3 35.6 15.2 39.1 13.0 39.1 11.0 L38.75 9.7" fill="#fdd535" fill-rule="evenodd" stroke="none"/>
    <path d="M12.4 15.35 L14.0 6.45 Q14.75 2.5 17.35 3.95 17.8 4.2 18.25 4.55 L18.2 8.2 Q18.2 11.0 17.4 13.0 16.2 15.9 13.55 15.9 12.9 15.9 12.4 15.35" fill="#ffffff" fill-rule="evenodd" stroke="none"/>
    <path d="M38.75 9.7 L39.9 9.7 Q42.75 9.85 41.3 12.6 L36.25 22.95 41.0 34.4 Q43.35 40.1 36.85 39.0 L25.1 34.6 18.9 44.1 Q16.4 48.05 14.8 44.7 L13.1 30.8 1.3 26.0 Q0.2 25.4 0.05 24.7 -0.15 23.85 1.0 22.9 L12.1 17.1 12.4 15.35 14.0 6.45 14.6 2.9 Q15.65 -2.15 18.9 1.6 L26.8 9.7 33.4 9.7 38.75 9.7 Z" ffdec:has-small-stroke="true" ffdec:original-stroke-width="0.5" fill="none" stroke="#fdd535" stroke-linecap="round" stroke-linejoin="round" stroke-width="1.0"/>
  </g>
</svg>
