<?xml version="1.0" encoding="UTF-8" standalone="no"?>
<svg xmlns:ffdec="https://www.free-decompiler.com/flash" xmlns:xlink="http://www.w3.org/1999/xlink" ffdec:objectType="shape" height="430.15px" width="595.1px" xmlns="http://www.w3.org/2000/svg">
  <g transform="matrix(1.0, 0.0, 0.0, 1.0, 0.0, 0.0)">
    <path d="M595.1 30.4 L595.1 113.65 Q595.1 115.75 594.45 118.5 593.8 121.35 592.85 123.15 L592.15 124.5 Q591.25 126.35 590.6 129.15 589.95 131.95 589.95 134.0 L589.95 323.15 Q589.95 325.25 590.65 327.95 591.35 330.75 592.35 332.55 L592.65 333.05 Q593.65 334.85 594.4 337.6 595.1 340.4 595.1 342.45 L595.1 425.15 Q595.1 427.2 593.65 428.7 592.15 430.15 590.1 430.15 L5.05 430.15 Q3.0 430.15 1.5 428.7 0.05 427.2 0.05 425.15 L0.05 342.45 Q0.05 340.4 0.95 337.75 1.85 335.1 3.1 333.45 L4.1 332.1 Q5.35 330.5 6.25 327.85 7.15 325.25 7.15 323.15 L7.15 134.0 Q7.15 131.9 6.35 129.25 5.5 126.55 4.3 124.85 L2.85 122.8 Q1.7 121.1 0.85 118.4 0.05 115.7 0.05 113.65 L0.05 30.4 Q0.05 28.35 1.5 26.85 3.0 25.4 5.05 25.4 L143.3 25.4 Q145.35 25.4 147.9 26.3 150.45 27.15 151.95 28.4 153.5 29.65 156.05 30.5 158.6 31.4 160.65 31.4 L428.5 31.4 Q430.55 31.4 433.2 30.5 435.85 29.65 437.5 28.4 439.15 27.15 441.8 26.3 444.45 25.4 446.5 25.4 L590.1 25.4 Q592.15 25.4 593.65 26.85 595.1 28.35 595.1 30.4" fill="url(#gradient0)" fill-rule="evenodd" stroke="none"/>
    <path d="M580.85 408.15 Q580.85 410.2 579.4 411.7 577.9 413.15 575.85 413.15 L194.3 413.15 190.25 413.45 Q188.25 413.75 187.45 414.15 L184.65 414.85 180.6 415.15 125.1 415.15 120.9 414.85 117.85 414.15 Q115.6 413.15 110.6 413.15 L18.6 413.15 Q16.55 413.15 15.05 411.7 13.6 410.2 13.6 408.15 L13.6 45.8 Q13.6 43.75 15.05 42.25 16.55 40.8 18.6 40.8 L103.35 40.8 107.9 41.4 Q110.4 41.95 111.85 42.8 113.25 43.6 115.8 44.2 L120.35 44.8 474.85 44.8 479.35 44.2 Q481.75 43.65 483.1 42.8 484.4 42.0 486.85 41.4 L491.35 40.8 575.85 40.8 Q577.9 40.8 579.4 42.25 580.85 43.75 580.85 45.8 L580.85 408.15" fill="#292a2b" fill-rule="evenodd" stroke="none"/>
    <path d="M478.95 421.55 L481.4 421.05 483.1 419.9 Q483.55 419.25 484.75 418.8 486.0 418.3 487.2 418.3 L523.35 418.3 Q524.55 418.3 525.85 418.8 L527.6 419.9 Q528.1 420.6 529.35 421.05 530.55 421.55 531.8 421.55 L567.25 421.55 Q568.5 421.55 570.0 422.15 571.55 422.75 572.45 423.55 L577.35 427.95 Q578.25 428.8 578.05 429.35 577.85 429.95 576.6 429.95 L319.25 429.95 Q318.0 429.95 317.8 429.35 317.55 428.7 318.45 427.85 L322.9 423.6 Q323.8 422.75 325.3 422.15 326.8 421.55 328.1 421.55 L365.7 421.55 368.15 421.05 Q369.35 420.6 369.85 419.9 370.3 419.25 371.5 418.8 372.75 418.3 373.95 418.3 L410.1 418.3 Q411.3 418.3 412.6 418.8 413.8 419.25 414.35 419.9 414.85 420.6 416.1 421.05 L418.55 421.55 478.95 421.55" fill="#333333" fill-rule="evenodd" stroke="none"/>
    <path d="M454.35 429.95 Q453.1 429.95 452.85 429.35 452.6 428.7 453.5 427.85 L458.0 423.6 Q458.9 422.75 460.4 422.15 461.9 421.55 463.15 421.55 L478.95 421.55 481.4 421.05 483.1 419.9 Q483.55 419.25 484.75 418.8 486.0 418.3 487.2 418.3 L523.35 418.3 Q524.55 418.3 525.85 418.8 L527.6 419.9 Q528.1 420.6 529.35 421.05 530.55 421.55 531.8 421.55 L546.0 421.55 Q547.25 421.55 548.8 422.15 550.3 422.75 551.25 423.55 L556.1 427.95 Q557.05 428.8 556.8 429.35 556.6 429.95 555.35 429.95 L454.35 429.95" fill="#1e1e1e" fill-rule="evenodd" stroke="none"/>
    <path d="M438.0 423.55 L442.85 427.95 Q443.8 428.8 443.55 429.35 443.35 429.95 442.1 429.95 L341.1 429.95 Q339.85 429.95 339.6 429.35 339.35 428.7 340.25 427.85 L344.75 423.6 Q345.65 422.75 347.15 422.15 348.65 421.55 349.9 421.55 L365.7 421.55 368.15 421.05 Q369.35 420.6 369.85 419.9 370.3 419.25 371.5 418.8 372.75 418.3 373.95 418.3 L410.1 418.3 Q411.3 418.3 412.6 418.8 413.8 419.25 414.35 419.9 414.85 420.6 416.1 421.05 L418.55 421.55 432.75 421.55 Q434.0 421.55 435.55 422.15 437.05 422.75 438.0 423.55" fill="#1e1e1e" fill-rule="evenodd" stroke="none"/>
    <path d="M575.35 52.4 L575.35 403.65 Q575.35 405.7 573.9 407.2 572.4 408.65 570.35 408.65 L24.05 408.65 Q22.0 408.65 20.5 407.2 19.05 405.7 19.05 403.65 L19.05 52.4 Q19.05 50.35 20.5 48.85 22.0 47.4 24.05 47.4 L570.35 47.4 Q572.4 47.4 573.9 48.85 575.35 50.35 575.35 52.4" fill="#161719" fill-rule="evenodd" stroke="none"/>
    <path d="M2.2 46.9 L10.2 51.85 Q11.05 52.4 11.7 53.55 12.3 54.65 12.3 55.7 L12.3 389.95 Q12.3 391.0 11.7 392.1 L10.15 393.65 2.2 398.05 0.7 398.2 Q0.0 397.8 0.0 396.8 L0.0 48.1 Q0.0 47.05 0.65 46.7 L2.2 46.9" fill="#191919" fill-rule="evenodd" stroke="none"/>
    <path d="M279.0 36.7 L276.55 36.25 Q275.3 35.75 274.8 35.1 274.3 34.45 273.1 33.95 271.85 33.45 270.6 33.45 L216.35 33.45 Q215.1 33.45 213.6 32.85 212.05 32.3 211.15 31.45 L206.25 27.1 Q205.35 26.3 205.6 25.7 205.8 25.1 207.05 25.1 L388.05 25.1 Q389.3 25.1 389.5 25.7 389.75 26.3 388.85 27.15 L384.4 31.4 Q383.5 32.25 381.95 32.85 380.45 33.45 379.2 33.45 L323.4 33.45 Q322.15 33.45 320.95 33.95 319.75 34.45 319.3 35.1 L317.6 36.25 315.15 36.7 279.0 36.7" fill="#333333" fill-rule="evenodd" stroke="none"/>
    <path d="M326.5 0.0 L329.55 0.6 Q331.3 1.2 332.35 2.05 L333.7 3.15 Q334.8 3.95 335.05 5.4 335.35 6.8 334.65 8.0 L321.85 31.05 Q321.2 32.25 319.8 33.05 318.35 33.9 317.0 33.9 L285.7 33.9 Q284.35 33.9 282.95 33.0 281.5 32.2 280.9 31.0 L269.05 8.05 Q268.45 6.85 268.7 5.35 268.9 3.8 269.9 2.85 L270.4 2.35 Q271.35 1.35 273.0 0.7 274.65 0.0 276.0 0.0 L326.5 0.0" fill="url(#gradient1)" fill-rule="evenodd" stroke="none"/>
    <path d="M324.0 3.05 Q325.6 3.7 326.55 4.7 L327.15 5.25 Q328.05 6.15 328.3 7.7 328.5 9.15 327.85 10.35 L318.25 27.65 Q317.6 28.85 316.1 29.7 314.7 30.55 313.35 30.55 L312.85 30.55 Q309.55 30.55 308.6 29.95 307.5 29.35 304.3 29.35 L298.95 29.35 Q295.65 29.35 294.7 29.95 L293.15 30.4 290.6 30.55 289.6 30.55 Q288.25 30.55 286.8 29.7 285.4 28.8 284.8 27.6 L275.9 10.4 Q275.3 9.2 275.45 7.65 275.55 6.0 276.45 4.95 L276.5 4.9 Q277.3 3.85 278.9 3.15 280.45 2.4 281.8 2.4 L284.5 2.4 Q287.85 2.4 289.3 3.05 290.95 3.7 294.05 3.7 L310.4 3.7 Q313.5 3.7 315.05 3.05 316.35 2.4 319.7 2.4 L321.0 2.4 Q322.35 2.4 324.0 3.05" fill="#2b2b2a" fill-rule="evenodd" stroke="none"/>
    <path d="M287.85 25.4 L280.1 10.5 Q279.65 9.7 279.8 8.65 280.0 7.65 280.65 7.05 L280.9 6.75 282.65 5.65 Q283.8 5.15 284.7 5.15 L317.6 5.15 Q318.45 5.15 319.6 5.6 320.75 6.0 321.45 6.55 L322.3 7.2 Q323.0 7.75 323.2 8.7 323.4 9.7 322.95 10.45 L314.65 25.4 313.25 26.8 Q312.3 27.35 311.35 27.35 L291.0 27.35 Q290.15 27.35 289.2 26.8 288.3 26.2 287.85 25.4" fill="#113ebc" fill-rule="evenodd" stroke="none"/>
    <path d="M314.65 25.4 L322.95 10.45 Q323.4 9.7 323.2 8.7 323.0 7.75 322.3 7.2 L321.45 6.55 Q320.75 6.0 319.6 5.6 318.45 5.15 317.6 5.15 L284.7 5.15 Q283.8 5.15 282.65 5.65 L280.9 6.75 280.65 7.05 Q280.0 7.65 279.8 8.65 279.65 9.7 280.1 10.5 L287.85 25.4 Q288.3 26.2 289.2 26.8 290.15 27.35 291.0 27.35 L311.35 27.35 Q312.3 27.35 313.25 26.8 L314.65 25.4 Z" fill="none" stroke="#03133f" stroke-linecap="butt" stroke-linejoin="miter-clip" stroke-miterlimit="4.0" stroke-width="1.0"/>
    <path d="M256.75 33.5 L260.0 33.75 Q262.4 32.35 269.45 30.05 271.4 29.45 270.25 27.35 269.15 25.3 266.6 26.1 257.85 29.05 254.3 32.05 254.0 32.85 256.75 33.5" fill="url(#gradient2)" fill-rule="evenodd" stroke="none"/>
    <path d="M347.1 33.5 L343.85 33.75 Q341.45 32.35 334.4 30.05 332.45 29.45 333.6 27.35 334.7 25.3 337.25 26.1 346.0 29.05 349.55 32.05 349.85 32.85 347.1 33.5" fill="url(#gradient3)" fill-rule="evenodd" stroke="none"/>
    <path d="M334.4 16.15 L336.9 17.7 338.2 22.85 332.9 31.7 327.75 33.05 325.25 31.55 334.4 16.15" fill="url(#gradient4)" fill-rule="evenodd" stroke="none"/>
    <path d="M339.8 25.8 L336.4 31.6 333.85 30.1 337.2 24.35 339.8 25.8" fill="#333333" fill-rule="evenodd" stroke="none"/>
    <path d="M268.55 16.15 L266.05 17.7 264.75 22.85 270.05 31.7 275.2 33.05 277.75 31.55 268.55 16.15" fill="url(#gradient5)" fill-rule="evenodd" stroke="none"/>
    <path d="M263.15 25.8 L266.55 31.6 269.1 30.1 265.75 24.35 263.15 25.8" fill="#333333" fill-rule="evenodd" stroke="none"/>
    <path d="M313.75 20.9 L314.85 21.0 Q315.35 21.3 315.5 21.9 315.7 22.4 315.4 22.95 L314.55 23.65 313.5 23.5 Q313.0 23.25 312.8 22.65 312.65 22.1 312.95 21.55 313.2 21.05 313.75 20.9" fill="#00e1ff" fill-rule="evenodd" stroke="none"/>
    <path d="M314.15 22.25 L310.55 18.7" ffdec:has-small-stroke="true" ffdec:original-stroke-width="0.5" fill="none" stroke="#0687f4" stroke-linecap="butt" stroke-linejoin="miter-clip" stroke-miterlimit="4.0" stroke-width="1.0"/>
    <path d="M310.55 18.7 L302.95 19.2" ffdec:has-small-stroke="true" ffdec:original-stroke-width="0.5" fill="none" stroke="#0687f4" stroke-linecap="butt" stroke-linejoin="miter-clip" stroke-miterlimit="4.0" stroke-width="1.0"/>
    <path d="M287.85 21.9 Q288.0 21.3 288.5 21.0 L289.6 20.9 290.45 21.55 Q290.7 22.1 290.55 22.65 290.4 23.25 289.85 23.5 L288.8 23.65 287.95 22.95 Q287.65 22.4 287.85 21.9" fill="#00e1ff" fill-rule="evenodd" stroke="none"/>
    <path d="M289.2 22.25 L292.8 18.7" ffdec:has-small-stroke="true" ffdec:original-stroke-width="0.5" fill="none" stroke="#0687f4" stroke-linecap="butt" stroke-linejoin="miter-clip" stroke-miterlimit="4.0" stroke-width="1.0"/>
    <path d="M292.8 18.7 L300.4 19.2" ffdec:has-small-stroke="true" ffdec:original-stroke-width="0.5" fill="none" stroke="#0687f4" stroke-linecap="butt" stroke-linejoin="miter-clip" stroke-miterlimit="4.0" stroke-width="1.0"/>
    <path d="M293.7 10.55 Q293.7 11.1 293.3 11.55 292.85 11.95 292.3 11.95 291.7 11.95 291.3 11.55 290.85 11.1 290.85 10.55 290.85 9.95 291.3 9.55 291.7 9.1 292.3 9.1 292.85 9.1 293.3 9.55 293.7 9.95 293.7 10.55" fill="#00e1ff" fill-rule="evenodd" stroke="none"/>
    <path d="M292.3 10.55 L293.15 14.7" ffdec:has-small-stroke="true" ffdec:original-stroke-width="0.5" fill="none" stroke="#0687f4" stroke-linecap="butt" stroke-linejoin="miter-clip" stroke-miterlimit="4.0" stroke-width="1.0"/>
    <path d="M293.15 14.7 L299.4 16.65" ffdec:has-small-stroke="true" ffdec:original-stroke-width="0.5" fill="none" stroke="#0687f4" stroke-linecap="butt" stroke-linejoin="miter-clip" stroke-miterlimit="4.0" stroke-width="1.0"/>
    <path d="M310.0 10.55 Q310.0 9.95 310.45 9.55 310.85 9.1 311.45 9.1 312.05 9.1 312.45 9.55 L312.9 10.55 312.45 11.55 Q312.05 11.95 311.45 11.95 310.85 11.95 310.45 11.55 310.0 11.1 310.0 10.55" fill="#00e1ff" fill-rule="evenodd" stroke="none"/>
    <path d="M311.45 10.55 L310.6 14.7" ffdec:has-small-stroke="true" ffdec:original-stroke-width="0.5" fill="none" stroke="#0687f4" stroke-linecap="butt" stroke-linejoin="miter-clip" stroke-miterlimit="4.0" stroke-width="1.0"/>
    <path d="M310.6 14.7 L304.35 16.65" ffdec:has-small-stroke="true" ffdec:original-stroke-width="0.5" fill="none" stroke="#0687f4" stroke-linecap="butt" stroke-linejoin="miter-clip" stroke-miterlimit="4.0" stroke-width="1.0"/>
  </g>
  <defs>
    <linearGradient gradientTransform="matrix(0.0, -0.247, -0.247, 0.0, 297.55, 227.75)" gradientUnits="userSpaceOnUse" id="gradient0" spreadMethod="pad" x1="-819.2" x2="819.2">
      <stop offset="0.0" stop-color="#373737"/>
      <stop offset="0.17254901960784313" stop-color="#656565"/>
      <stop offset="0.35294117647058826" stop-color="#6c6c6c"/>
      <stop offset="0.615686274509804" stop-color="#808080"/>
      <stop offset="0.9333333333333333" stop-color="#a1a1a1"/>
      <stop offset="0.9607843137254902" stop-color="#a4a4a4"/>
      <stop offset="1.0" stop-color="#373737"/>
    </linearGradient>
    <linearGradient gradientTransform="matrix(0.0, -0.0207, 0.0207, 0.0, 301.85, 16.95)" gradientUnits="userSpaceOnUse" id="gradient1" spreadMethod="pad" x1="-819.2" x2="819.2">
      <stop offset="0.0" stop-color="#373737"/>
      <stop offset="0.6549019607843137" stop-color="#a4a4a4"/>
      <stop offset="0.803921568627451" stop-color="#a4a4a4"/>
      <stop offset="1.0" stop-color="#6b6b6b"/>
    </linearGradient>
    <linearGradient gradientTransform="matrix(0.0016, 0.004, 0.0094, -0.0039, 228.25, 44.55)" gradientUnits="userSpaceOnUse" id="gradient2" spreadMethod="pad" x1="-819.2" x2="819.2">
      <stop offset="0.0" stop-color="#505050"/>
      <stop offset="0.09803921568627451" stop-color="#373737"/>
      <stop offset="0.5254901960784314" stop-color="#6e6861"/>
      <stop offset="0.8862745098039215" stop-color="#3d3d3d"/>
      <stop offset="1.0" stop-color="#505050"/>
    </linearGradient>
    <linearGradient gradientTransform="matrix(-0.0016, 0.004, -0.0094, -0.0039, 375.6, 44.55)" gradientUnits="userSpaceOnUse" id="gradient3" spreadMethod="pad" x1="-819.2" x2="819.2">
      <stop offset="0.0" stop-color="#505050"/>
      <stop offset="0.09803921568627451" stop-color="#373737"/>
      <stop offset="0.5254901960784314" stop-color="#6e6861"/>
      <stop offset="0.8862745098039215" stop-color="#3d3d3d"/>
      <stop offset="1.0" stop-color="#505050"/>
    </linearGradient>
    <linearGradient gradientTransform="matrix(-0.0053, 0.0096, 0.0096, 0.0053, 332.65, 25.5)" gradientUnits="userSpaceOnUse" id="gradient4" spreadMethod="pad" x1="-819.2" x2="819.2">
      <stop offset="0.0" stop-color="#505050"/>
      <stop offset="0.09803921568627451" stop-color="#373737"/>
      <stop offset="0.5254901960784314" stop-color="#6e6963"/>
      <stop offset="0.8862745098039215" stop-color="#3d3d3d"/>
      <stop offset="1.0" stop-color="#505050"/>
    </linearGradient>
    <linearGradient gradientTransform="matrix(0.0053, 0.0096, -0.0096, 0.0053, 270.3, 25.5)" gradientUnits="userSpaceOnUse" id="gradient5" spreadMethod="pad" x1="-819.2" x2="819.2">
      <stop offset="0.0" stop-color="#505050"/>
      <stop offset="0.09803921568627451" stop-color="#373737"/>
      <stop offset="0.5254901960784314" stop-color="#6e6963"/>
      <stop offset="0.8862745098039215" stop-color="#3d3d3d"/>
      <stop offset="1.0" stop-color="#505050"/>
    </linearGradient>
  </defs>
</svg>
