<?xml version="1.0" encoding="UTF-8" standalone="no"?>
<svg xmlns:ffdec="https://www.free-decompiler.com/flash" xmlns:xlink="http://www.w3.org/1999/xlink" ffdec:objectType="shape" height="344.1px" width="15.5px" xmlns="http://www.w3.org/2000/svg">
  <g transform="matrix(1.0, 0.0, 0.0, 1.0, 291.8, 179.3)">
    <path d="M-291.8 -174.3 L-290.4 -176.65 -285.6 -177.8 -277.55 -173.0 -276.3 -168.25 -277.7 -165.95 -291.8 -174.3" fill="url(#gradient0)" fill-rule="evenodd" stroke="none"/>
    <path d="M-282.9 -179.3 L-277.65 -176.15 -279.0 -173.85 -284.25 -176.9 -282.9 -179.3" fill="#333333" fill-rule="evenodd" stroke="none"/>
    <path d="M-291.8 159.85 L-290.4 162.15 -285.6 163.3 -277.55 158.5 -276.3 153.75 -277.7 151.5 -291.8 159.85" fill="url(#gradient1)" fill-rule="evenodd" stroke="none"/>
    <path d="M-282.9 164.8 L-277.65 161.65 -279.0 159.4 -284.25 162.45 -282.9 164.8" fill="#333333" fill-rule="evenodd" stroke="none"/>
  </g>
  <defs>
    <linearGradient gradientTransform="matrix(0.0088, 0.0049, 0.0049, -0.0088, -283.2, -172.7)" gradientUnits="userSpaceOnUse" id="gradient0" spreadMethod="pad" x1="-819.2" x2="819.2">
      <stop offset="0.0" stop-color="#505050"/>
      <stop offset="0.09803921568627451" stop-color="#373737"/>
      <stop offset="0.5254901960784314" stop-color="#6e6963"/>
      <stop offset="0.8862745098039215" stop-color="#3d3d3d"/>
      <stop offset="1.0" stop-color="#505050"/>
    </linearGradient>
    <linearGradient gradientTransform="matrix(0.0088, -0.0049, 0.0049, 0.0088, -283.2, 158.25)" gradientUnits="userSpaceOnUse" id="gradient1" spreadMethod="pad" x1="-819.2" x2="819.2">
      <stop offset="0.0" stop-color="#505050"/>
      <stop offset="0.09803921568627451" stop-color="#373737"/>
      <stop offset="0.5254901960784314" stop-color="#6e6963"/>
      <stop offset="0.8862745098039215" stop-color="#3d3d3d"/>
      <stop offset="1.0" stop-color="#505050"/>
    </linearGradient>
  </defs>
</svg>
