<?xml version="1.0" encoding="UTF-8" standalone="no"?>
<svg xmlns:ffdec="https://www.free-decompiler.com/flash" xmlns:xlink="http://www.w3.org/1999/xlink" ffdec:objectType="shape" height="175.05px" width="281.5px" xmlns="http://www.w3.org/2000/svg">
  <g transform="matrix(1.0, 0.0, 0.0, 1.0, 0.0, 0.0)">
    <path d="M279.4 2.1 Q281.0 3.7 281.0 6.0 L281.0 169.05 Q281.0 171.35 279.4 172.95 277.75 174.55 275.5 174.55 L6.0 174.55 Q3.75 174.55 2.15 172.95 0.5 171.35 0.5 169.05 L0.5 6.0 Q0.5 3.7 2.15 2.1 3.75 0.5 6.0 0.5 L275.5 0.5 Q277.75 0.5 279.4 2.1" fill="#272d33" fill-rule="evenodd" stroke="none"/>
    <path d="M279.05 2.45 Q277.55 1.0 275.5 1.0 L6.0 1.0 Q3.95 1.0 2.45 2.45 1.0 3.95 1.0 6.0 L1.0 169.05 Q1.0 171.1 2.45 172.6 3.95 174.05 6.0 174.05 L275.5 174.05 Q277.55 174.05 279.05 172.6 280.5 171.1 280.5 169.05 L280.5 6.0 Q280.5 3.95 279.05 2.45 M275.5 0.0 Q278.0 0.0 279.75 1.75 281.5 3.5 281.5 6.0 L281.5 169.05 Q281.5 171.55 279.75 173.3 278.0 175.05 275.5 175.05 L6.0 175.05 Q3.55 175.05 1.75 173.3 0.0 171.55 0.0 169.05 L0.0 6.0 Q0.0 3.5 1.75 1.75 3.5 0.0 6.0 0.0 L275.5 0.0" fill="#0c0c0c" fill-rule="evenodd" stroke="none"/>
    <path d="M11.0 23.3 L240.5 23.3 Q242.55 23.3 244.05 24.75 245.5 26.25 245.5 28.3 L245.5 164.9 Q245.5 166.95 244.05 168.45 242.55 169.9 240.5 169.9 L11.0 169.9 Q8.95 169.9 7.45 168.45 6.0 166.95 6.0 164.9 L6.0 28.3 Q6.0 26.25 7.45 24.75 8.95 23.3 11.0 23.3" fill="#161719" fill-rule="evenodd" stroke="none"/>
  </g>
</svg>
