<?xml version="1.0" encoding="UTF-8" standalone="no"?>
<svg xmlns:ffdec="https://www.free-decompiler.com/flash" xmlns:xlink="http://www.w3.org/1999/xlink" ffdec:objectType="shape" height="44.95px" width="45.0px" xmlns="http://www.w3.org/2000/svg">
  <g transform="matrix(1.0, 0.0, 0.0, 1.0, 1.75, 1.5)">
    <path d="M-0.75 -0.55 L-0.75 5.95 -1.7 5.95 -1.7 -1.5 5.75 -1.5 5.75 -0.55 -0.75 -0.55" fill="#0958d6" fill-rule="evenodd" stroke="none"/>
    <path d="M42.1 -0.55 L35.6 -0.55 35.6 -1.5 43.05 -1.5 43.05 5.95 42.1 5.95 42.1 -0.55" fill="#0958d6" fill-rule="evenodd" stroke="none"/>
    <path d="M-0.8 42.5 L5.7 42.5 5.7 43.45 -1.75 43.45 -1.75 36.0 -0.8 36.0 -0.8 42.5" fill="#0958d6" fill-rule="evenodd" stroke="none"/>
    <path d="M42.35 42.5 L42.35 36.0 43.25 36.0 43.25 43.45 35.85 43.45 35.85 42.5 42.35 42.5" fill="#0958d6" fill-rule="evenodd" stroke="none"/>
  </g>
</svg>
