<?xml version="1.0" encoding="UTF-8" standalone="no"?>
<svg xmlns:ffdec="https://www.free-decompiler.com/flash" xmlns:xlink="http://www.w3.org/1999/xlink" ffdec:objectType="shape" height="35.05px" width="27.7px" xmlns="http://www.w3.org/2000/svg">
  <g transform="matrix(1.0, 0.0, 0.0, 1.0, 0.0, 0.0)">
    <path d="M16.3 0.65 L25.15 6.35 Q26.2 7.05 26.95 8.4 27.7 9.75 27.7 11.0 L27.7 33.25 Q27.7 34.5 26.95 34.9 26.2 35.3 25.15 34.65 L16.45 28.95 Q15.4 28.3 13.95 28.3 12.45 28.3 11.4 28.95 L2.55 34.65 Q1.5 35.3 0.75 34.9 0.0 34.5 0.0 33.25 L0.0 11.0 Q0.0 9.75 0.75 8.4 1.5 7.05 2.55 6.35 L11.25 0.7 Q12.3 0.05 13.8 0.0 15.25 0.0 16.3 0.65" fill="#161616" fill-rule="evenodd" stroke="none"/>
    <path d="M24.55 9.4 Q25.1 10.35 25.1 11.15 L25.1 31.5 17.4 26.5 Q15.9 25.55 13.9 25.55 11.95 25.55 10.45 26.5 L2.6 31.55 2.6 11.15 Q2.6 10.35 3.15 9.4 3.65 8.4 4.3 8.0 L12.2 2.85 Q12.85 2.45 13.8 2.45 L15.35 2.85 23.35 8.0 24.55 9.4" fill="url(#gradient0)" fill-rule="evenodd" stroke="none"/>
    <path d="M13.8 1.7 Q14.9 1.7 15.75 2.2 L23.8 7.35 Q24.65 7.9 25.25 9.05 25.85 10.2 25.85 11.15 L25.85 31.75 25.7 32.45 25.5 32.5 24.85 32.25 16.95 27.15 Q15.7 26.3 13.9 26.3 12.2 26.3 10.85 27.1 L2.85 32.25 2.2 32.5 Q1.85 32.5 1.85 31.75 L1.85 11.15 Q1.85 10.15 2.45 9.05 3.1 7.85 3.9 7.35 L11.8 2.25 Q12.6 1.7 13.8 1.7 M13.8 3.2 Q13.0 3.2 12.6 3.5 L4.7 8.6 Q4.2 8.95 3.8 9.75 3.35 10.55 3.35 11.15 L3.35 30.15 10.05 25.85 Q11.65 24.8 13.9 24.8 16.0 24.8 17.8 25.85 L24.35 30.15 24.35 11.15 23.9 9.75 Q23.45 8.95 22.95 8.65 L14.95 3.5 Q14.55 3.2 13.8 3.2" fill="#0958d6" fill-rule="evenodd" stroke="none"/>
    <path d="M14.3 10.25 L20.4 20.45 17.65 20.45 14.3 17.45 10.75 20.45 8.2 20.45 14.3 10.25" fill="#007dff" fill-rule="evenodd" stroke="none"/>
  </g>
  <defs>
    <linearGradient gradientTransform="matrix(0.0137, 0.0, 0.0, -0.0137, 13.85, 17.0)" gradientUnits="userSpaceOnUse" id="gradient0" spreadMethod="pad" x1="-819.2" x2="819.2">
      <stop offset="0.0" stop-color="#01255c"/>
      <stop offset="1.0" stop-color="#040a34"/>
    </linearGradient>
  </defs>
</svg>
