<?xml version="1.0" encoding="UTF-8" standalone="no"?>
<svg xmlns:ffdec="https://www.free-decompiler.com/flash" xmlns:xlink="http://www.w3.org/1999/xlink" ffdec:objectType="shape" height="35.05px" width="27.7px" xmlns="http://www.w3.org/2000/svg">
  <g transform="matrix(1.0, 0.0, 0.0, 1.0, 0.0, 0.0)">
    <path d="M27.7 11.0 Q27.7 9.75 26.95 8.4 26.2 7.05 25.15 6.4 L16.3 0.7 Q15.25 0.0 13.8 0.0 12.3 0.0 11.25 0.7 L2.55 6.35 Q1.5 7.0 0.75 8.4 0.0 9.75 0.0 11.0 L0.0 33.3 Q0.0 34.55 0.75 34.95 1.5 35.3 2.55 34.65 L11.4 28.95 Q12.45 28.3 13.95 28.3 15.4 28.35 16.45 29.0 L25.15 34.65 Q26.2 35.3 26.95 34.95 27.7 34.55 27.7 33.3 L27.7 11.0" fill="#161616" fill-rule="evenodd" stroke="none"/>
    <path d="M26.1 11.15 Q26.1 10.1 25.45 8.95 24.8 7.75 23.9 7.2 L15.9 2.0 Q15.0 1.5 13.8 1.5 12.5 1.5 11.65 2.05 L3.75 7.15 Q2.9 7.75 2.25 8.9 1.6 10.1 1.6 11.15 L1.6 31.75 Q1.6 32.8 2.2 32.8 L2.95 32.5 11.0 27.35 Q12.2 26.55 13.9 26.55 15.55 26.55 16.85 27.35 L24.75 32.5 25.5 32.8 Q26.1 32.8 26.1 31.75 L26.1 11.15" fill="#042d7f" fill-rule="evenodd" stroke="none"/>
    <path d="M24.35 33.1 Q24.95 33.55 25.5 33.55 26.85 33.55 26.85 31.75 L26.85 11.15 Q26.85 9.9 26.1 8.55 25.35 7.25 24.3 6.55 L16.3 1.4 Q15.3 0.75 13.8 0.75 12.25 0.75 11.25 1.4 L3.35 6.55 Q2.35 7.25 1.6 8.55 0.85 9.9 0.85 11.15 L0.85 31.75 Q0.85 33.55 2.2 33.55 2.7 33.55 3.35 33.15 L11.4 27.95 Q12.55 27.3 13.9 27.3 15.35 27.3 16.45 28.0 L24.35 33.1 M25.35 11.15 L25.35 31.95 25.15 31.85 17.25 26.75 Q15.85 25.8 13.9 25.8 12.05 25.8 10.6 26.7 L2.55 31.85 2.35 32.0 2.35 11.15 Q2.35 10.3 2.9 9.25 3.45 8.25 4.2 7.8 L12.05 2.65 Q12.75 2.25 13.8 2.25 L15.5 2.65 23.5 7.8 24.8 9.3 Q25.35 10.3 25.35 11.15" fill="#3e9fff" fill-rule="evenodd" stroke="none"/>
    <path d="M14.3 10.3 L8.2 20.45 10.75 20.45 14.3 17.5 17.65 20.45 20.4 20.45 14.3 10.3" fill="#45b4ff" fill-rule="evenodd" stroke="none"/>
  </g>
</svg>
