<?xml version="1.0" encoding="UTF-8" standalone="no"?>
<svg xmlns:ffdec="https://www.free-decompiler.com/flash" xmlns:xlink="http://www.w3.org/1999/xlink" ffdec:objectType="shape" height="31.55px" width="24.95px" xmlns="http://www.w3.org/2000/svg">
  <g transform="matrix(1.0, 0.0, 0.0, 1.0, -1.4, -1.75)">
    <path d="M26.35 11.65 Q26.35 10.55 25.65 9.3 25.0 8.1 24.05 7.5 L16.1 2.4 Q15.15 1.75 13.85 1.75 12.5 1.75 11.55 2.4 L3.7 7.45 Q2.75 8.05 2.1 9.3 1.4 10.55 1.4 11.65 L1.4 31.7 Q1.4 32.85 2.1 33.2 L3.7 32.95 11.7 27.8 Q12.6 27.2 13.95 27.2 15.3 27.25 16.2 27.85 L24.05 32.95 25.65 33.2 Q26.35 32.85 26.35 31.7 L26.35 11.65" fill="#161616" fill-rule="evenodd" stroke="none"/>
    <path d="M24.9 11.8 Q24.9 10.85 24.3 9.8 23.75 8.75 22.95 8.25 L15.75 3.55 Q14.9 3.1 13.85 3.1 12.65 3.1 11.9 3.6 L4.8 8.2 Q4.05 8.75 3.45 9.75 2.85 10.85 2.85 11.8 L2.85 30.35 Q2.85 31.25 3.4 31.25 L4.05 31.0 11.3 26.35 Q12.4 25.65 13.95 25.65 15.4 25.65 16.6 26.35 L23.7 31.0 24.35 31.25 Q24.9 31.25 24.9 30.35 L24.9 11.8" fill="#042d7f" fill-rule="evenodd" stroke="none"/>
    <path d="M24.25 11.8 L24.25 30.5 24.05 30.4 16.95 25.85 Q15.7 24.95 13.95 24.95 12.25 24.95 10.95 25.8 L3.7 30.4 3.55 30.55 3.55 11.8 Q3.55 11.0 4.05 10.1 4.5 9.2 5.2 8.75 L12.25 4.15 Q12.9 3.8 13.85 3.8 L15.35 4.15 22.55 8.75 23.75 10.1 Q24.25 11.0 24.25 11.8 M23.35 31.55 Q23.85 31.95 24.35 31.95 25.6 31.95 25.6 30.35 L25.6 11.8 Q25.6 10.65 24.9 9.45 24.25 8.3 23.3 7.65 L16.1 3.0 Q15.2 2.45 13.85 2.45 12.45 2.45 11.55 3.0 L4.45 7.65 Q3.55 8.3 2.85 9.45 2.2 10.65 2.2 11.8 L2.2 30.35 Q2.2 31.95 3.4 31.95 L4.45 31.6 11.7 26.9 Q12.7 26.3 13.95 26.3 15.25 26.3 16.2 26.95 L23.35 31.55" fill="#3e9fff" fill-rule="evenodd" stroke="none"/>
    <path d="M14.3 11.0 L8.8 20.15 11.1 20.15 14.3 17.5 17.3 20.15 19.8 20.15 14.3 11.0" fill="#45b4ff" fill-rule="evenodd" stroke="none"/>
  </g>
</svg>
