<?xml version="1.0" encoding="UTF-8" standalone="no"?>
<svg xmlns:ffdec="https://www.free-decompiler.com/flash" xmlns:xlink="http://www.w3.org/1999/xlink" ffdec:objectType="shape" height="175.05px" width="281.5px" xmlns="http://www.w3.org/2000/svg">
  <g transform="matrix(1.0, 0.0, 0.0, 1.0, 0.0, 0.0)">
    <path d="M2.15 2.1 Q3.75 0.5 6.0 0.5 L275.5 0.5 Q277.75 0.5 279.4 2.1 281.0 3.7 281.0 6.0 L281.0 169.05 Q281.0 171.3 279.4 172.95 277.75 174.55 275.5 174.55 L6.0 174.55 Q3.75 174.55 2.15 172.95 0.5 171.3 0.5 169.05 L0.5 6.0 Q0.5 3.7 2.15 2.1" fill="#2b2828" fill-rule="evenodd" stroke="none"/>
    <path d="M2.45 2.45 Q1.0 3.95 1.0 6.0 L1.0 169.05 Q1.0 171.1 2.45 172.6 3.95 174.05 6.0 174.05 L275.5 174.05 Q277.55 174.05 279.05 172.6 280.5 171.1 280.5 169.05 L280.5 6.0 Q280.5 3.95 279.05 2.45 277.55 1.0 275.5 1.0 L6.0 1.0 Q3.95 1.0 2.45 2.45 M0.0 6.0 Q0.0 3.5 1.75 1.75 3.5 0.0 6.0 0.0 L275.5 0.0 Q278.0 0.0 279.75 1.75 281.5 3.5 281.5 6.0 L281.5 169.05 Q281.5 171.55 279.75 173.3 278.0 175.05 275.5 175.05 L6.0 175.05 Q3.55 175.05 1.75 173.3 0.0 171.55 0.0 169.05 L0.0 6.0" fill="#0c0c0c" fill-rule="evenodd" stroke="none"/>
    <path d="M245.5 30.0 L245.5 164.9 Q245.5 166.95 244.05 168.45 242.55 169.9 240.5 169.9 L11.0 169.9 Q8.95 169.9 7.45 168.45 6.0 166.95 6.0 164.9 L6.0 30.0 Q6.0 27.95 7.45 26.45 8.95 25.0 11.0 25.0 L240.5 25.0 Q242.55 25.0 244.05 26.45 245.5 27.95 245.5 30.0" fill="#161719" fill-rule="evenodd" stroke="none"/>
    <path d="M11.9 71.9 L11.9 30.25 53.55 30.25 53.55 71.9 11.9 71.9" fill="#0f0f0f" fill-rule="evenodd" stroke="none"/>
    <path d="M11.9 71.9 L11.9 30.25 53.55 30.25 53.55 71.9 11.9 71.9 Z" fill="none" stroke="#272727" stroke-linecap="butt" stroke-linejoin="miter-clip" stroke-miterlimit="4.0" stroke-width="1.0"/>
    <path d="M99.75 71.9 L58.1 71.9 58.1 30.25 99.75 30.25 99.75 71.9" fill="#0f0f0f" fill-rule="evenodd" stroke="none"/>
    <path d="M99.75 71.9 L58.1 71.9 58.1 30.25 99.75 30.25 99.75 71.9 Z" fill="none" stroke="#272727" stroke-linecap="butt" stroke-linejoin="miter-clip" stroke-miterlimit="4.0" stroke-width="1.0"/>
    <path d="M104.3 71.9 L104.3 30.25 145.95 30.25 145.95 71.9 104.3 71.9" fill="#0f0f0f" fill-rule="evenodd" stroke="none"/>
    <path d="M104.3 71.9 L104.3 30.25 145.95 30.25 145.95 71.9 104.3 71.9 Z" fill="none" stroke="#272727" stroke-linecap="butt" stroke-linejoin="miter-clip" stroke-miterlimit="4.0" stroke-width="1.0"/>
    <path d="M191.9 71.9 L150.25 71.9 150.25 30.25 191.9 30.25 191.9 71.9" fill="#0f0f0f" fill-rule="evenodd" stroke="none"/>
    <path d="M191.9 71.9 L150.25 71.9 150.25 30.25 191.9 30.25 191.9 71.9 Z" fill="none" stroke="#272727" stroke-linecap="butt" stroke-linejoin="miter-clip" stroke-miterlimit="4.0" stroke-width="1.0"/>
    <path d="M195.95 71.9 L195.95 30.25 237.6 30.25 237.6 71.9 195.95 71.9" fill="#0f0f0f" fill-rule="evenodd" stroke="none"/>
    <path d="M195.95 71.9 L195.95 30.25 237.6 30.25 237.6 71.9 195.95 71.9 Z" fill="none" stroke="#272727" stroke-linecap="butt" stroke-linejoin="miter-clip" stroke-miterlimit="4.0" stroke-width="1.0"/>
    <path d="M53.55 76.45 L53.55 118.1 11.9 118.1 11.9 76.45 53.55 76.45" fill="#0f0f0f" fill-rule="evenodd" stroke="none"/>
    <path d="M53.55 76.45 L53.55 118.1 11.9 118.1 11.9 76.45 53.55 76.45 Z" fill="none" stroke="#272727" stroke-linecap="butt" stroke-linejoin="miter-clip" stroke-miterlimit="4.0" stroke-width="1.0"/>
    <path d="M58.1 118.1 L58.1 76.45 99.75 76.45 99.75 118.1 58.1 118.1" fill="#0f0f0f" fill-rule="evenodd" stroke="none"/>
    <path d="M58.1 118.1 L58.1 76.45 99.75 76.45 99.75 118.1 58.1 118.1 Z" fill="none" stroke="#272727" stroke-linecap="butt" stroke-linejoin="miter-clip" stroke-miterlimit="4.0" stroke-width="1.0"/>
    <path d="M145.95 76.45 L145.95 118.1 104.3 118.1 104.3 76.45 145.95 76.45" fill="#0f0f0f" fill-rule="evenodd" stroke="none"/>
    <path d="M145.95 76.45 L145.95 118.1 104.3 118.1 104.3 76.45 145.95 76.45 Z" fill="none" stroke="#272727" stroke-linecap="butt" stroke-linejoin="miter-clip" stroke-miterlimit="4.0" stroke-width="1.0"/>
    <path d="M191.9 118.1 L150.25 118.1 150.25 76.45 191.9 76.45 191.9 118.1" fill="#0f0f0f" fill-rule="evenodd" stroke="none"/>
    <path d="M191.9 118.1 L150.25 118.1 150.25 76.45 191.9 76.45 191.9 118.1 Z" fill="none" stroke="#272727" stroke-linecap="butt" stroke-linejoin="miter-clip" stroke-miterlimit="4.0" stroke-width="1.0"/>
    <path d="M237.6 76.45 L237.6 118.1 195.95 118.1 195.95 76.45 237.6 76.45" fill="#0f0f0f" fill-rule="evenodd" stroke="none"/>
    <path d="M237.6 76.45 L237.6 118.1 195.95 118.1 195.95 76.45 237.6 76.45 Z" fill="none" stroke="#272727" stroke-linecap="butt" stroke-linejoin="miter-clip" stroke-miterlimit="4.0" stroke-width="1.0"/>
    <path d="M11.9 164.35 L11.9 122.7 53.55 122.7 53.55 164.35 11.9 164.35" fill="#0f0f0f" fill-rule="evenodd" stroke="none"/>
    <path d="M11.9 164.35 L11.9 122.7 53.55 122.7 53.55 164.35 11.9 164.35 Z" fill="none" stroke="#272727" stroke-linecap="butt" stroke-linejoin="miter-clip" stroke-miterlimit="4.0" stroke-width="1.0"/>
    <path d="M58.1 122.7 L99.75 122.7 99.75 164.35 58.1 164.35 58.1 122.7" fill="#0f0f0f" fill-rule="evenodd" stroke="none"/>
    <path d="M58.1 122.7 L99.75 122.7 99.75 164.35 58.1 164.35 58.1 122.7 Z" fill="none" stroke="#272727" stroke-linecap="butt" stroke-linejoin="miter-clip" stroke-miterlimit="4.0" stroke-width="1.0"/>
    <path d="M104.3 164.35 L104.3 122.7 145.95 122.7 145.95 164.35 104.3 164.35" fill="#0f0f0f" fill-rule="evenodd" stroke="none"/>
    <path d="M104.3 164.35 L104.3 122.7 145.95 122.7 145.95 164.35 104.3 164.35 Z" fill="none" stroke="#272727" stroke-linecap="butt" stroke-linejoin="miter-clip" stroke-miterlimit="4.0" stroke-width="1.0"/>
    <path d="M191.9 164.35 L150.25 164.35 150.25 122.7 191.9 122.7 191.9 164.35" fill="#0f0f0f" fill-rule="evenodd" stroke="none"/>
    <path d="M191.9 164.35 L150.25 164.35 150.25 122.7 191.9 122.7 191.9 164.35 Z" fill="none" stroke="#272727" stroke-linecap="butt" stroke-linejoin="miter-clip" stroke-miterlimit="4.0" stroke-width="1.0"/>
    <path d="M195.95 164.35 L195.95 122.7 237.6 122.7 237.6 164.35 195.95 164.35" fill="#0f0f0f" fill-rule="evenodd" stroke="none"/>
    <path d="M195.95 164.35 L195.95 122.7 237.6 122.7 237.6 164.35 195.95 164.35 Z" fill="none" stroke="#272727" stroke-linecap="butt" stroke-linejoin="miter-clip" stroke-miterlimit="4.0" stroke-width="1.0"/>
    <path d="M266.0 48.05 L274.85 53.75 Q275.9 54.45 276.65 55.8 277.4 57.15 277.4 58.4 L277.4 80.65 Q277.4 81.9 276.65 82.3 275.9 82.7 274.85 82.05 L266.15 76.35 Q265.1 75.7 263.65 75.7 262.15 75.7 261.1 76.35 L252.25 82.05 Q251.2 82.7 250.45 82.3 249.7 81.9 249.7 80.65 L249.7 58.4 Q249.7 57.15 250.45 55.8 251.2 54.45 252.25 53.75 L260.95 48.1 Q262.0 47.45 263.5 47.4 264.95 47.4 266.0 48.05" fill="#161616" fill-rule="evenodd" stroke="none"/>
    <path d="M260.15 73.9 L252.3 78.9 252.3 58.55 Q252.3 57.75 252.85 56.8 253.35 55.8 254.0 55.4 L261.9 50.25 263.5 49.85 Q264.4 49.85 265.05 50.25 L273.05 55.4 Q273.7 55.8 274.25 56.8 274.8 57.75 274.8 58.55 L274.8 78.9 267.1 73.9 Q265.6 72.95 263.6 72.95 261.55 72.95 260.15 73.9" fill="url(#gradient0)" fill-rule="evenodd" stroke="none"/>
    <path d="M251.55 58.55 Q251.55 57.55 252.15 56.45 252.8 55.25 253.6 54.75 L261.5 49.6 Q262.35 49.1 263.5 49.1 264.6 49.1 265.45 49.6 L273.5 54.75 Q274.3 55.25 274.95 56.45 275.55 57.55 275.55 58.55 L275.55 79.15 275.4 79.85 275.2 79.9 274.55 79.65 266.65 74.55 Q265.4 73.7 263.6 73.7 261.9 73.7 260.55 74.5 L252.55 79.65 251.9 79.9 Q251.55 79.9 251.55 79.15 L251.55 58.55 M264.65 50.9 Q264.25 50.6 263.5 50.6 L262.3 50.9 254.4 56.0 Q253.9 56.35 253.5 57.15 253.05 57.95 253.05 58.55 L253.05 77.55 259.75 73.25 Q261.35 72.2 263.6 72.2 265.85 72.2 267.5 73.25 L274.05 77.5 274.05 58.55 273.6 57.15 272.65 56.05 264.65 50.9" fill="#0958d6" fill-rule="evenodd" stroke="none"/>
    <path d="M264.0 57.65 L270.1 67.85 267.35 67.85 264.0 64.85 260.45 67.85 257.9 67.85 264.0 57.65" fill="#007dff" fill-rule="evenodd" stroke="none"/>
    <path d="M277.4 106.9 L277.4 129.2 Q277.4 130.45 276.65 131.8 275.9 133.1 274.85 133.8 L266.0 139.5 Q264.95 140.2 263.5 140.2 262.0 140.2 260.95 139.5 L252.25 133.85 Q251.2 133.2 250.45 131.8 249.7 130.45 249.7 129.2 L249.7 106.9 Q249.7 105.65 250.45 105.25 251.2 104.9 252.25 105.55 L261.1 111.2 Q262.15 111.9 263.65 111.9 265.1 111.9 266.15 111.2 L274.85 105.55 Q275.9 104.9 276.65 105.25 277.4 105.65 277.4 106.9" fill="#161616" fill-rule="evenodd" stroke="none"/>
    <path d="M275.8 108.45 L275.8 129.05 Q275.8 130.1 275.15 131.25 L273.6 133.0 265.6 138.15 Q264.75 138.7 263.5 138.7 262.2 138.7 261.35 138.15 L253.45 133.05 Q252.6 132.45 251.95 131.3 251.3 130.1 251.3 129.05 L251.3 108.45 Q251.3 107.4 251.9 107.4 252.2 107.4 252.65 107.7 L260.7 112.85 Q261.9 113.65 263.6 113.65 265.25 113.65 266.55 112.85 L274.45 107.7 Q274.85 107.4 275.2 107.4 275.8 107.4 275.8 108.45" fill="url(#gradient1)" fill-rule="evenodd" stroke="none"/>
    <path d="M252.25 108.35 L252.05 108.2 252.05 129.05 Q252.05 129.9 252.6 130.9 253.15 131.95 253.9 132.4 L261.75 137.55 Q262.45 137.95 263.5 137.95 L265.2 137.55 273.2 132.4 274.5 130.9 Q275.05 129.85 275.05 129.05 L275.05 108.25 274.85 108.35 266.95 113.45 Q265.55 114.4 263.6 114.4 261.75 114.4 260.3 113.5 L252.25 108.35 M250.55 108.45 Q250.55 106.65 251.9 106.65 252.4 106.65 253.05 107.05 L261.1 112.2 Q262.2 112.9 263.6 112.9 265.05 112.9 266.15 112.2 L274.05 107.1 Q274.65 106.65 275.2 106.65 276.55 106.65 276.55 108.45 L276.55 129.05 Q276.55 130.3 275.8 131.65 275.05 132.95 274.0 133.65 L266.0 138.8 Q265.0 139.45 263.5 139.45 261.95 139.45 260.95 138.8 L253.05 133.65 Q252.05 132.95 251.3 131.65 250.55 130.3 250.55 129.05 L250.55 108.45" fill="#405274" fill-rule="evenodd" stroke="none"/>
    <path d="M257.9 119.7 L260.45 119.7 264.0 122.7 267.35 119.7 270.1 119.7 264.0 129.9 257.9 119.7" fill="#37475e" fill-rule="evenodd" stroke="none"/>
  </g>
  <defs>
    <linearGradient gradientTransform="matrix(0.0137, 0.0, 0.0, -0.0137, 263.55, 64.4)" gradientUnits="userSpaceOnUse" id="gradient0" spreadMethod="pad" x1="-819.2" x2="819.2">
      <stop offset="0.0" stop-color="#01255c"/>
      <stop offset="1.0" stop-color="#040a34"/>
    </linearGradient>
    <linearGradient gradientTransform="matrix(0.0149, 0.0, 0.0, -0.0149, 263.55, 123.05)" gradientUnits="userSpaceOnUse" id="gradient1" spreadMethod="pad" x1="-819.2" x2="819.2">
      <stop offset="0.0" stop-color="#283240"/>
      <stop offset="1.0" stop-color="#222532"/>
    </linearGradient>
  </defs>
</svg>
