<?xml version="1.0" encoding="UTF-8" standalone="no"?>
<svg xmlns:ffdec="https://www.free-decompiler.com/flash" xmlns:xlink="http://www.w3.org/1999/xlink" ffdec:objectType="shape" height="23.75px" width="12.5px" xmlns="http://www.w3.org/2000/svg">
  <g transform="matrix(1.0, 0.0, 0.0, 1.0, -5.2, -15.15)">
    <path d="M15.3 16.7 Q15.15 16.2 15.4 15.75 15.65 15.35 16.15 15.2 L17.05 15.25 Q17.5 15.5 17.65 16.0 L17.5 16.9 16.8 17.5 15.85 17.4 15.3 16.7" fill="#00e1ff" fill-rule="evenodd" stroke="none"/>
    <path d="M16.45 16.35 L13.4 19.4" ffdec:has-small-stroke="true" ffdec:original-stroke-width="0.5" fill="none" stroke="#0687f4" stroke-linecap="butt" stroke-linejoin="miter-clip" stroke-miterlimit="4.0" stroke-width="1.0"/>
    <path d="M13.4 19.4 L13.85 25.9" ffdec:has-small-stroke="true" ffdec:original-stroke-width="0.5" fill="none" stroke="#0687f4" stroke-linecap="butt" stroke-linejoin="miter-clip" stroke-miterlimit="4.0" stroke-width="1.0"/>
    <path d="M16.15 38.85 Q15.65 38.7 15.4 38.3 15.15 37.85 15.3 37.35 15.45 36.85 15.85 36.65 L16.8 36.55 Q17.3 36.65 17.5 37.15 17.8 37.55 17.65 38.05 L17.05 38.75 16.15 38.85" fill="#00e1ff" fill-rule="evenodd" stroke="none"/>
    <path d="M16.45 37.7 L13.4 34.65" ffdec:has-small-stroke="true" ffdec:original-stroke-width="0.5" fill="none" stroke="#0687f4" stroke-linecap="butt" stroke-linejoin="miter-clip" stroke-miterlimit="4.0" stroke-width="1.0"/>
    <path d="M13.4 34.65 L13.85 28.1" ffdec:has-small-stroke="true" ffdec:original-stroke-width="0.5" fill="none" stroke="#0687f4" stroke-linecap="butt" stroke-linejoin="miter-clip" stroke-miterlimit="4.0" stroke-width="1.0"/>
    <path d="M6.45 33.85 Q6.95 33.85 7.25 34.2 7.6 34.55 7.6 35.05 L7.25 35.9 Q6.95 36.3 6.45 36.3 5.95 36.3 5.6 35.9 5.2 35.55 5.2 35.05 5.2 34.55 5.6 34.2 5.95 33.85 6.45 33.85" fill="#00e1ff" fill-rule="evenodd" stroke="none"/>
    <path d="M6.45 35.05 L9.95 34.3" ffdec:has-small-stroke="true" ffdec:original-stroke-width="0.5" fill="none" stroke="#0687f4" stroke-linecap="butt" stroke-linejoin="miter-clip" stroke-miterlimit="4.0" stroke-width="1.0"/>
    <path d="M9.95 34.3 L11.65 28.95" ffdec:has-small-stroke="true" ffdec:original-stroke-width="0.5" fill="none" stroke="#0687f4" stroke-linecap="butt" stroke-linejoin="miter-clip" stroke-miterlimit="4.0" stroke-width="1.0"/>
    <path d="M6.45 19.9 Q5.95 19.9 5.6 19.5 5.2 19.15 5.2 18.65 5.2 18.15 5.6 17.8 5.95 17.4 6.45 17.4 6.95 17.4 7.25 17.8 7.6 18.15 7.6 18.65 L7.25 19.5 Q6.95 19.9 6.45 19.9" fill="#00e1ff" fill-rule="evenodd" stroke="none"/>
    <path d="M6.45 18.65 L9.95 19.4" ffdec:has-small-stroke="true" ffdec:original-stroke-width="0.5" fill="none" stroke="#0687f4" stroke-linecap="butt" stroke-linejoin="miter-clip" stroke-miterlimit="4.0" stroke-width="1.0"/>
    <path d="M9.95 19.4 L11.65 24.75" ffdec:has-small-stroke="true" ffdec:original-stroke-width="0.5" fill="none" stroke="#0687f4" stroke-linecap="butt" stroke-linejoin="miter-clip" stroke-miterlimit="4.0" stroke-width="1.0"/>
  </g>
</svg>
