<?xml version="1.0" encoding="UTF-8" standalone="no"?>
<svg xmlns:ffdec="https://www.free-decompiler.com/flash" xmlns:xlink="http://www.w3.org/1999/xlink" ffdec:objectType="shape" height="17.45px" width="16.8px" xmlns="http://www.w3.org/2000/svg">
  <g transform="matrix(1.0, 0.0, 0.0, 1.0, 0.0, 0.0)">
    <path d="M0.0 17.45 L4.65 15.25 5.55 13.35 11.7 13.35 12.7 15.25 16.8 17.45 0.0 17.45" fill="#eabf07" fill-rule="evenodd" stroke="none"/>
    <path d="M7.2 16.0 L5.05 12.5 3.7 8.5 13.1 8.4 12.3 12.5 9.8 16.0 7.2 16.0" fill="#e89e00" fill-rule="evenodd" stroke="none"/>
    <path d="M13.35 4.65 L15.0 6.3 15.0 7.5 13.85 7.8 13.3 9.35 12.1 10.3 Q10.6 11.25 8.95 11.25 6.3 11.25 3.85 9.35 L2.4 7.5 1.15 7.5 1.15 6.0 3.35 4.45 6.8 0.0 11.0 0.0 13.35 4.65" fill="#ffcf00" fill-rule="evenodd" stroke="none"/>
    <path d="M14.25 7.7 L13.85 7.8 13.3 9.35 12.1 10.3 Q10.6 11.25 8.95 11.25 6.3 11.25 3.85 9.35 L2.55 7.75 Q2.85 6.3 4.5 5.3 6.2 4.3 8.4 4.3 10.65 4.3 12.3 5.3 13.95 6.25 14.25 7.7" fill="#ff7900" fill-rule="evenodd" stroke="none"/>
    <path d="M8.5 7.8 Q11.5 7.8 13.6 8.5 L13.3 9.35 12.1 10.3 Q10.6 11.25 8.95 11.25 6.3 11.25 3.85 9.35 L3.25 8.6 Q5.1 7.8 8.5 7.8" fill="#ffed00" fill-rule="evenodd" stroke="none"/>
    <path d="M12.3 10.45 L12.7 9.9 13.4 10.05 13.6 11.25 13.0 11.9 12.55 12.15 11.8 12.45 12.3 10.45" fill="#ff7b00" fill-rule="evenodd" stroke="none"/>
    <path d="M4.6 10.45 L5.1 12.45 4.35 12.15 3.9 11.9 3.35 11.25 3.55 10.05 4.25 9.9 4.6 10.45" fill="#ff7b00" fill-rule="evenodd" stroke="none"/>
    <path d="M10.2 5.55 Q10.2 6.3 9.7 6.85 9.15 7.35 8.4 7.35 7.7 7.35 7.15 6.85 6.65 6.3 6.65 5.55 6.65 4.8 7.15 4.3 7.7 3.75 8.4 3.75 9.15 3.75 9.7 4.3 10.2 4.8 10.2 5.55" fill="#ffb300" fill-rule="evenodd" stroke="none"/>
  </g>
</svg>
