<?xml version="1.0" encoding="UTF-8" standalone="no"?>
<svg xmlns:ffdec="https://www.free-decompiler.com/flash" xmlns:xlink="http://www.w3.org/1999/xlink" ffdec:objectType="shape" height="46.45px" width="23.35px" xmlns="http://www.w3.org/2000/svg">
  <g transform="matrix(1.0, 0.0, 0.0, 1.0, -1.25, -2.6)">
    <path d="M20.45 2.6 Q21.8 2.6 22.65 3.6 L23.0 4.05 24.1 6.2 Q24.6 7.55 24.6 8.6 L24.55 43.95 Q24.55 45.0 24.05 46.25 23.55 47.5 22.85 48.2 22.1 49.05 20.6 49.05 L19.15 48.7 3.4 40.55 Q2.55 40.1 1.9 39.05 1.25 38.0 1.25 37.0 L1.25 15.35 Q1.25 14.35 1.9 13.25 2.5 12.25 3.35 11.75 L19.2 2.9 Q19.7 2.6 20.45 2.6" fill="url(#gradient0)" fill-rule="evenodd" stroke="none"/>
    <path d="M3.9 15.65 Q3.2 16.8 3.2 17.95 L3.2 34.2 Q3.2 35.35 3.95 36.5 4.6 37.7 5.6 38.2 L17.25 44.2 Q18.25 44.7 19.5 44.65 L21.5 44.0 Q22.25 43.4 22.8 42.15 23.35 40.9 23.35 39.8 L23.35 12.55 Q23.35 11.4 22.8 10.05 22.25 8.7 21.5 7.95 20.75 7.15 19.5 7.0 18.3 6.85 17.3 7.4 L5.55 13.9 Q4.55 14.45 3.9 15.65" fill="#2b2b2a" fill-rule="evenodd" stroke="none"/>
    <path d="M21.4 13.25 Q21.8 14.55 21.8 15.75 L21.8 37.0 21.35 39.45 Q21.0 40.65 20.45 41.25 19.8 41.85 18.6 41.85 L16.3 41.3 7.65 36.8 Q6.55 36.25 5.8 35.0 5.05 33.7 5.05 32.45 L5.05 20.15 Q5.05 18.95 5.8 17.65 6.5 16.35 7.6 15.75 L16.35 10.95 Q17.35 10.35 18.35 10.35 19.8 10.35 20.45 11.25 21.0 11.95 21.4 13.25" fill="url(#gradient1)" fill-rule="evenodd" stroke="none"/>
    <path d="M18.35 9.9 Q20.0 9.9 20.8 10.95 21.4 11.7 21.8 13.1 L22.25 15.75 22.25 37.0 21.8 39.5 Q21.4 40.85 20.75 41.55 20.0 42.3 18.6 42.3 17.3 42.3 16.1 41.7 L7.45 37.2 Q6.25 36.6 5.45 35.2 4.6 33.85 4.6 32.45 L4.6 20.15 Q4.6 18.8 5.4 17.45 6.2 16.05 7.4 15.4 L16.1 10.55 Q17.15 9.9 18.35 9.9 M20.1 11.55 Q19.55 10.8 18.35 10.8 17.45 10.8 16.55 11.3 L7.85 16.15 Q6.85 16.7 6.15 17.9 5.5 19.05 5.5 20.15 L5.5 32.45 Q5.5 33.6 6.2 34.75 6.9 35.9 7.85 36.4 L16.5 40.85 18.6 41.4 Q19.6 41.4 20.1 40.9 L20.95 39.25 Q21.35 38.15 21.35 37.0 L21.35 15.75 Q21.35 14.65 20.95 13.4 20.6 12.1 20.1 11.55" fill="#66ccff" fill-rule="evenodd" stroke="none"/>
    <path d="M16.2 17.05 Q16.05 16.6 16.3 16.2 L16.95 15.65 17.8 15.75 18.35 16.4 18.25 17.25 17.55 17.75 16.7 17.65 Q16.3 17.45 16.2 17.05" fill="#00e1ff" fill-rule="evenodd" stroke="none"/>
    <path d="M17.25 16.7 L14.45 19.55" ffdec:has-small-stroke="true" ffdec:original-stroke-width="0.5" fill="none" stroke="#0687f4" stroke-linecap="butt" stroke-linejoin="miter-clip" stroke-miterlimit="4.0" stroke-width="1.0"/>
    <path d="M14.45 19.55 L14.9 25.5" ffdec:has-small-stroke="true" ffdec:original-stroke-width="0.5" fill="none" stroke="#0687f4" stroke-linecap="butt" stroke-linejoin="miter-clip" stroke-miterlimit="4.0" stroke-width="1.0"/>
    <path d="M16.95 37.35 L16.3 36.8 Q16.05 36.45 16.2 35.95 16.3 35.5 16.7 35.3 L17.55 35.25 Q18.0 35.35 18.25 35.75 L18.35 36.6 17.8 37.25 16.95 37.35" fill="#00e1ff" fill-rule="evenodd" stroke="none"/>
    <path d="M17.25 36.3 L14.45 33.45" ffdec:has-small-stroke="true" ffdec:original-stroke-width="0.5" fill="none" stroke="#0687f4" stroke-linecap="butt" stroke-linejoin="miter-clip" stroke-miterlimit="4.0" stroke-width="1.0"/>
    <path d="M14.45 33.45 L14.9 27.5" ffdec:has-small-stroke="true" ffdec:original-stroke-width="0.5" fill="none" stroke="#0687f4" stroke-linecap="butt" stroke-linejoin="miter-clip" stroke-miterlimit="4.0" stroke-width="1.0"/>
    <path d="M8.05 32.75 Q8.55 32.75 8.85 33.1 L9.15 33.85 8.85 34.65 Q8.55 35.0 8.05 35.0 7.6 35.0 7.3 34.65 6.95 34.3 6.95 33.85 6.95 33.4 7.3 33.1 7.6 32.75 8.05 32.75" fill="#00e1ff" fill-rule="evenodd" stroke="none"/>
    <path d="M8.05 33.85 L11.3 33.2" ffdec:has-small-stroke="true" ffdec:original-stroke-width="0.5" fill="none" stroke="#0687f4" stroke-linecap="butt" stroke-linejoin="miter-clip" stroke-miterlimit="4.0" stroke-width="1.0"/>
    <path d="M11.3 33.2 L12.85 28.3" ffdec:has-small-stroke="true" ffdec:original-stroke-width="0.5" fill="none" stroke="#0687f4" stroke-linecap="butt" stroke-linejoin="miter-clip" stroke-miterlimit="4.0" stroke-width="1.0"/>
    <path d="M8.05 19.95 Q7.6 19.95 7.3 19.6 6.95 19.3 6.95 18.85 6.95 18.35 7.3 18.05 7.6 17.7 8.05 17.7 8.55 17.7 8.85 18.05 L9.15 18.85 8.85 19.6 Q8.55 19.95 8.05 19.95" fill="#00e1ff" fill-rule="evenodd" stroke="none"/>
    <path d="M8.05 18.85 L11.3 19.5" ffdec:has-small-stroke="true" ffdec:original-stroke-width="0.5" fill="none" stroke="#0687f4" stroke-linecap="butt" stroke-linejoin="miter-clip" stroke-miterlimit="4.0" stroke-width="1.0"/>
    <path d="M11.3 19.5 L12.85 24.4" ffdec:has-small-stroke="true" ffdec:original-stroke-width="0.5" fill="none" stroke="#0687f4" stroke-linecap="butt" stroke-linejoin="miter-clip" stroke-miterlimit="4.0" stroke-width="1.0"/>
    <path d="M17.2 25.3 Q16.75 24.55 14.8 23.8 13.05 23.1 12.5 23.1 L12.1 23.8 11.8 23.25 11.0 23.05 Q11.7 22.5 12.3 22.3 L14.1 22.15 17.15 22.95 18.2 23.95 18.55 24.85 Q18.15 24.85 17.2 25.3 M15.3 31.05 Q13.65 30.45 12.2 29.65 11.0 29.0 10.5 28.9 L12.3 28.5 14.1 28.0 15.35 30.05 Q15.65 30.5 16.75 30.7 L16.75 31.1 15.3 31.05 M10.15 27.45 Q11.35 25.85 13.15 24.8 13.9 25.1 14.6 25.75 L13.8 26.2 11.85 26.8 10.15 27.45" fill="#0b90ef" fill-rule="evenodd" stroke="none"/>
    <path d="M11.0 23.05 L11.8 23.25 12.1 23.8 11.45 25.3 10.75 25.65 10.65 24.55 Q10.65 23.55 10.85 23.2 L11.0 23.05" fill="#87edfa" fill-rule="evenodd" stroke="none"/>
    <path d="M12.1 23.8 L12.5 23.1 Q13.05 23.1 14.8 23.8 16.75 24.55 17.2 25.3 L15.9 25.5 14.6 25.75 Q13.9 25.1 13.15 24.8 11.35 25.85 10.15 27.45 L10.2 28.25 10.5 28.9 Q11.0 29.0 12.2 29.65 13.65 30.45 15.3 31.05 L13.85 31.25 12.3 31.55 10.8 30.15 Q9.5 29.0 9.2 28.0 9.8 27.15 10.75 26.2 L11.45 25.3 12.1 23.8 M15.35 30.05 L17.65 29.55 Q18.55 29.1 18.55 28.55 18.55 29.4 18.05 30.05 17.5 30.7 16.75 30.7 15.65 30.5 15.35 30.05" fill="#0273ee" fill-rule="evenodd" stroke="none"/>
    <path d="M11.45 25.3 L10.75 26.2 Q9.8 27.15 9.2 28.0 L8.25 28.1 Q7.65 28.25 7.4 28.45 7.5 26.65 8.75 25.15 L10.85 23.2 Q10.65 23.55 10.65 24.55 L10.75 25.65 11.45 25.3" fill="#39b9f6" fill-rule="evenodd" stroke="none"/>
    <path d="M17.2 25.3 Q18.15 24.85 18.55 24.85 19.5 25.6 19.5 26.65 L19.5 27.55 19.25 27.45 Q17.75 26.45 17.2 25.7 16.7 25.7 16.5 25.95 L16.4 26.2 15.45 26.2 14.6 26.4 13.65 26.65 13.8 26.2 14.6 25.75 15.9 25.5 17.2 25.3 M18.2 23.95 L17.15 22.95 14.1 22.15 14.8 21.9 15.45 21.7 Q18.3 23.1 18.55 23.05 L18.2 23.95 M14.6 27.55 L14.45 27.6 17.25 27.7 17.55 28.6 17.7 29.3 Q17.95 27.4 17.7 27.15 L16.75 26.65 Q17.5 26.65 18.05 27.15 18.55 27.7 18.55 28.45 L18.55 28.55 Q18.55 29.1 17.65 29.55 L15.35 30.05 14.1 28.0 Q14.1 27.75 14.25 27.65 L14.6 27.55" fill="#11b6f5" fill-rule="evenodd" stroke="none"/>
    <path d="M18.55 24.85 L18.2 23.95 18.55 23.05 Q18.3 23.1 15.45 21.7 L19.15 22.5 Q20.0 23.25 20.0 27.15 20.0 30.65 16.75 31.1 L16.75 30.7 Q17.5 30.7 18.05 30.05 18.55 29.4 18.55 28.55 L18.55 28.45 Q18.55 27.7 18.05 27.15 17.5 26.65 16.75 26.65 L17.7 27.15 Q17.95 27.4 17.7 29.3 L17.55 28.6 17.25 27.7 14.45 27.6 14.6 27.55 16.75 26.65 16.4 26.2 16.5 25.95 Q16.7 25.7 17.2 25.7 17.75 26.45 19.25 27.45 L19.5 27.55 19.5 26.65 Q19.5 25.6 18.55 24.85 M9.2 28.0 Q9.5 29.0 10.8 30.15 L12.3 31.55 9.9 31.6 Q7.5 31.6 7.4 28.45 7.65 28.25 8.25 28.1 L9.2 28.0" fill="#1de0f9" fill-rule="evenodd" stroke="none"/>
    <path d="M10.5 28.9 L10.2 28.25 10.15 27.45 11.85 26.8 13.8 26.2 13.65 26.65 Q13.0 26.65 12.05 27.15 11.95 27.2 10.7 28.0 L10.5 28.45 Q11.75 28.95 13.55 27.75 14.9 26.95 15.45 26.2 L16.4 26.2 16.75 26.65 14.6 27.55 14.25 27.65 Q14.1 27.75 14.1 28.0 L12.3 28.5 10.5 28.9" fill="#50dffb" fill-rule="evenodd" stroke="none"/>
    <path d="M15.45 26.2 Q14.9 26.95 13.55 27.75 11.75 28.95 10.5 28.45 L10.7 28.0 Q11.95 27.2 12.05 27.15 13.0 26.65 13.65 26.65 L14.6 26.4 15.45 26.2" fill="#d6fdfb" fill-rule="evenodd" stroke="none"/>
  </g>
  <defs>
    <linearGradient gradientTransform="matrix(-0.0142, 0.0, 0.0, 0.0142, 12.9, 25.8)" gradientUnits="userSpaceOnUse" id="gradient0" spreadMethod="pad" x1="-819.2" x2="819.2">
      <stop offset="0.0" stop-color="#373737"/>
      <stop offset="0.7647058823529411" stop-color="#828282"/>
      <stop offset="1.0" stop-color="#5f5f5f"/>
    </linearGradient>
    <linearGradient gradientTransform="matrix(0.0124, 0.0071, -0.0096, 0.0166, 13.4, 26.15)" gradientUnits="userSpaceOnUse" id="gradient1" spreadMethod="pad" x1="-819.2" x2="819.2">
      <stop offset="0.0" stop-color="#0099ff"/>
      <stop offset="1.0" stop-color="#0033ff"/>
    </linearGradient>
  </defs>
</svg>
