<?xml version="1.0" encoding="UTF-8" standalone="no"?>
<svg xmlns:ffdec="https://www.free-decompiler.com/flash" xmlns:xlink="http://www.w3.org/1999/xlink" ffdec:objectType="shape" height="51.6px" width="25.95px" xmlns="http://www.w3.org/2000/svg">
  <g transform="matrix(1.0, 0.0, 0.0, 1.0, 0.05, 0.0)">
    <path d="M25.9 6.65 L25.9 45.95 Q25.9 47.1 25.35 48.5 24.8 49.9 24.0 50.65 23.05 51.6 21.45 51.6 L19.85 51.25 2.35 42.15 Q1.4 41.65 0.65 40.5 -0.05 39.35 -0.05 38.25 L-0.05 14.15 Q-0.05 13.05 0.65 11.85 1.4 10.7 2.35 10.15 L19.9 0.35 Q20.55 0.0 21.35 0.0 22.9 0.0 23.75 1.1 L24.15 1.6 Q24.85 2.5 25.4 4.0 25.9 5.5 25.9 6.65" fill="url(#gradient0)" fill-rule="evenodd" stroke="none"/>
    <path d="M24.55 11.05 L24.55 41.35 Q24.55 42.6 23.95 43.95 23.35 45.3 22.5 46.0 21.65 46.65 20.25 46.75 18.9 46.8 17.8 46.25 L4.8 39.55 Q3.7 39.0 2.95 37.7 2.15 36.4 2.15 35.15 L2.15 17.05 Q2.15 15.8 2.95 14.5 3.7 13.2 4.75 12.6 L17.8 5.35 Q18.9 4.75 20.25 4.9 21.65 5.1 22.5 5.95 23.35 6.8 23.95 8.3 24.55 9.8 24.55 11.05" fill="#2b2b2a" fill-rule="evenodd" stroke="none"/>
    <path d="M22.8 14.6 L22.8 38.2 22.35 40.9 Q21.95 42.25 21.3 42.9 20.6 43.6 19.25 43.6 18.0 43.6 16.7 42.95 L7.1 38.0 Q5.9 37.35 5.05 35.95 4.2 34.55 4.2 33.15 L4.2 19.5 Q4.2 18.15 5.05 16.7 5.85 15.25 7.05 14.6 L16.75 9.25 Q17.9 8.6 19.0 8.6 20.6 8.6 21.35 9.6 21.95 10.35 22.4 11.8 22.8 13.25 22.8 14.6" fill="#aa6609" fill-rule="evenodd" stroke="none"/>
    <path d="M19.0 9.1 Q18.0 9.1 17.0 9.65 L7.3 15.05 Q6.2 15.65 5.45 16.95 4.7 18.25 4.7 19.5 L4.7 33.15 Q4.7 34.4 5.5 35.7 6.25 37.0 7.35 37.55 L16.95 42.5 Q18.1 43.1 19.25 43.1 20.4 43.1 20.95 42.55 21.5 42.0 21.9 40.7 22.3 39.45 22.3 38.2 L22.3 14.6 Q22.3 13.35 21.9 11.95 21.5 10.55 20.95 9.9 20.3 9.1 19.0 9.1 M19.0 8.1 Q20.8 8.1 21.7 9.25 22.4 10.1 22.85 11.65 L23.3 14.6 23.3 38.2 22.85 40.95 Q22.4 42.5 21.65 43.25 20.8 44.1 19.25 44.1 17.8 44.1 16.5 43.4 L6.9 38.4 Q5.55 37.75 4.65 36.2 3.7 34.7 3.7 33.15 L3.7 19.5 Q3.7 18.0 4.6 16.45 5.5 14.9 6.8 14.2 L16.5 8.8 Q17.65 8.1 19.0 8.1" fill="#894502" fill-rule="evenodd" stroke="none"/>
    <path d="M17.25 14.45 L18.15 14.55 Q18.6 14.75 18.75 15.3 18.9 15.8 18.65 16.2 L17.9 16.8 16.95 16.7 Q16.5 16.45 16.35 16.0 16.2 15.5 16.5 15.05 16.7 14.6 17.25 14.45" fill="#ffe100" fill-rule="evenodd" stroke="none"/>
    <path d="M17.6 15.65 L14.45 18.75" ffdec:has-small-stroke="true" ffdec:original-stroke-width="0.5" fill="none" stroke="#ff8700" stroke-linecap="butt" stroke-linejoin="miter-clip" stroke-miterlimit="4.0" stroke-width="1.0"/>
    <path d="M14.45 18.75 L14.95 25.4" ffdec:has-small-stroke="true" ffdec:original-stroke-width="0.5" fill="none" stroke="#ff8700" stroke-linecap="butt" stroke-linejoin="miter-clip" stroke-miterlimit="4.0" stroke-width="1.0"/>
    <path d="M17.25 38.6 Q16.7 38.45 16.5 38.0 16.2 37.55 16.35 37.05 16.5 36.55 16.95 36.3 L17.9 36.25 18.65 36.8 Q18.9 37.25 18.75 37.75 L18.15 38.45 17.25 38.6" fill="#ffe100" fill-rule="evenodd" stroke="none"/>
    <path d="M17.6 37.4 L14.45 34.25" ffdec:has-small-stroke="true" ffdec:original-stroke-width="0.5" fill="none" stroke="#ff8700" stroke-linecap="butt" stroke-linejoin="miter-clip" stroke-miterlimit="4.0" stroke-width="1.0"/>
    <path d="M14.45 34.25 L14.95 27.65" ffdec:has-small-stroke="true" ffdec:original-stroke-width="0.5" fill="none" stroke="#ff8700" stroke-linecap="butt" stroke-linejoin="miter-clip" stroke-miterlimit="4.0" stroke-width="1.0"/>
    <path d="M7.4 33.5 Q7.9 33.5 8.25 33.85 8.65 34.2 8.65 34.7 8.65 35.2 8.25 35.55 7.9 35.95 7.4 35.95 6.9 35.95 6.55 35.55 6.2 35.2 6.2 34.7 6.2 34.2 6.55 33.85 6.9 33.5 7.4 33.5" fill="#ffe100" fill-rule="evenodd" stroke="none"/>
    <path d="M7.4 34.7 L11.0 33.95" ffdec:has-small-stroke="true" ffdec:original-stroke-width="0.5" fill="none" stroke="#ff8700" stroke-linecap="butt" stroke-linejoin="miter-clip" stroke-miterlimit="4.0" stroke-width="1.0"/>
    <path d="M11.0 33.95 L12.7 28.5" ffdec:has-small-stroke="true" ffdec:original-stroke-width="0.5" fill="none" stroke="#ff8700" stroke-linecap="butt" stroke-linejoin="miter-clip" stroke-miterlimit="4.0" stroke-width="1.0"/>
    <path d="M7.4 19.25 Q6.9 19.25 6.55 18.85 6.2 18.5 6.2 18.0 6.2 17.5 6.55 17.1 6.9 16.75 7.4 16.75 7.9 16.75 8.25 17.1 8.65 17.5 8.65 18.0 8.65 18.5 8.25 18.85 7.9 19.25 7.4 19.25" fill="#ffe100" fill-rule="evenodd" stroke="none"/>
    <path d="M7.4 18.0 L11.0 18.75" ffdec:has-small-stroke="true" ffdec:original-stroke-width="0.5" fill="none" stroke="#ff8700" stroke-linecap="butt" stroke-linejoin="miter-clip" stroke-miterlimit="4.0" stroke-width="1.0"/>
    <path d="M11.0 18.75 L12.7 24.2" ffdec:has-small-stroke="true" ffdec:original-stroke-width="0.5" fill="none" stroke="#ff8700" stroke-linecap="butt" stroke-linejoin="miter-clip" stroke-miterlimit="4.0" stroke-width="1.0"/>
    <path d="M10.75 22.65 Q11.5 22.05 12.25 21.8 L14.2 21.65 14.95 21.4 Q15.45 21.15 15.7 21.15 18.85 22.75 19.15 22.65 L18.7 23.65 19.15 24.65 Q20.2 25.45 20.2 26.65 L20.15 27.65 19.85 27.55 Q18.25 26.45 17.6 25.6 17.05 25.6 16.85 25.85 L16.7 26.15 15.7 26.15 14.75 26.35 13.7 26.65 13.85 26.15 14.7 25.65 16.2 25.4 17.65 25.15 Q17.1 24.35 14.95 23.45 13.05 22.7 12.4 22.7 L12.0 23.5 Q12.0 23.15 11.65 22.9 L10.75 22.65 M17.15 26.65 Q17.95 26.65 18.55 27.25 19.15 27.85 19.15 28.65 L19.15 28.7 Q19.1 29.4 18.1 29.85 17.05 30.4 15.6 30.4 L14.2 28.15 14.25 28.1 14.7 27.65 14.75 27.65 18.2 27.25 17.15 26.65" fill="#ea6a00" fill-rule="evenodd" stroke="none"/>
    <path d="M6.75 28.65 Q6.9 26.65 8.3 25.0 L10.6 22.8 10.4 24.35 10.5 25.55 11.25 25.15 10.45 26.2 Q9.45 27.2 8.75 28.15 L7.7 28.3 Q7.1 28.4 6.75 28.65" fill="#ff6d00" fill-rule="evenodd" stroke="none"/>
    <path d="M12.25 32.1 L9.6 32.15 Q6.9 32.15 6.75 28.65 7.1 28.4 7.7 28.3 L8.75 28.15 Q9.1 29.3 10.55 30.55 L12.25 32.1 M10.6 22.8 L10.75 22.65 11.65 22.9 Q12.0 23.15 12.0 23.5 L11.25 25.15 10.5 25.55 10.4 24.35 10.6 22.8" fill="#ffa100" fill-rule="evenodd" stroke="none"/>
    <path d="M15.55 31.55 L13.9 31.8 12.25 32.1 10.55 30.55 Q9.1 29.3 8.75 28.15 9.45 27.2 10.45 26.2 L11.25 25.15 12.0 23.5 12.4 22.7 Q13.05 22.7 14.95 23.45 17.1 24.35 17.65 25.15 L16.2 25.4 14.7 25.65 Q14.0 24.9 13.15 24.6 11.15 25.8 9.85 27.55 L9.9 28.45 Q10.0 29.0 10.25 29.15 L12.1 30.0 Q13.7 30.9 15.55 31.55" fill="#db4200" fill-rule="evenodd" stroke="none"/>
    <path d="M15.7 21.15 L19.75 22.05 Q20.7 22.9 20.7 27.2 20.7 31.1 17.15 31.65 L18.55 30.4 Q19.15 29.7 19.15 28.7 L19.15 28.65 Q19.15 27.85 18.55 27.25 17.95 26.65 17.15 26.65 L18.2 27.25 14.75 27.65 17.15 26.65 16.7 26.15 16.85 25.85 Q17.05 25.6 17.6 25.6 18.25 26.45 19.85 27.55 L20.15 27.65 20.2 26.65 Q20.2 25.45 19.15 24.65 L18.7 23.65 19.15 22.65 Q18.85 22.75 15.7 21.15" fill="#f69400" fill-rule="evenodd" stroke="none"/>
    <path d="M13.85 26.15 L13.7 26.65 Q12.95 26.65 11.9 27.25 L10.45 28.15 10.25 28.65 Q11.6 29.2 13.6 27.9 L15.7 26.15 16.7 26.15 17.15 26.65 14.75 27.65 14.7 27.65 14.25 28.1 14.2 28.15 12.25 28.75 10.25 29.15 Q10.0 29.0 9.9 28.45 L9.85 27.55 Q10.1 27.4 11.7 26.8 L13.85 26.15" fill="#ff9300" fill-rule="evenodd" stroke="none"/>
    <path d="M17.15 31.65 L15.55 31.55 Q13.7 30.9 12.1 30.0 L10.25 29.15 12.25 28.75 14.2 28.15 15.6 30.4 Q17.05 30.4 18.1 29.85 19.1 29.4 19.15 28.7 19.15 29.7 18.55 30.4 L17.15 31.65 M14.7 25.65 L13.85 26.15 11.7 26.8 Q10.1 27.4 9.85 27.55 11.15 25.8 13.15 24.6 14.0 24.9 14.7 25.65" fill="#e44400" fill-rule="evenodd" stroke="none"/>
    <path d="M13.7 26.65 L14.75 26.35 15.7 26.15 13.6 27.9 Q11.6 29.2 10.25 28.65 L10.45 28.15 11.9 27.25 Q12.95 26.65 13.7 26.65" fill="#ffcc00" fill-rule="evenodd" stroke="none"/>
  </g>
  <defs>
    <linearGradient gradientTransform="matrix(0.0158, 0.0, 0.0, -0.0158, 12.95, 25.8)" gradientUnits="userSpaceOnUse" id="gradient0" spreadMethod="pad" x1="-819.2" x2="819.2">
      <stop offset="0.0" stop-color="#5f5f5f"/>
      <stop offset="0.23529411764705882" stop-color="#828282"/>
      <stop offset="1.0" stop-color="#373737"/>
    </linearGradient>
  </defs>
</svg>
