<?xml version="1.0" encoding="UTF-8" standalone="no"?>
<svg xmlns:ffdec="https://www.free-decompiler.com/flash" xmlns:xlink="http://www.w3.org/1999/xlink" ffdec:objectType="shape" height="23.75px" width="12.5px" xmlns="http://www.w3.org/2000/svg">
  <g transform="matrix(1.0, 0.0, 0.0, 1.0, -4.8, -15.0)">
    <path d="M14.9 16.55 Q14.75 16.05 15.0 15.6 15.25 15.2 15.75 15.05 L16.65 15.1 17.25 15.85 17.1 16.75 16.4 17.35 15.45 17.25 14.9 16.55" fill="#00e1ff" fill-rule="evenodd" stroke="none"/>
    <path d="M16.05 16.2 L13.0 19.25" ffdec:has-small-stroke="true" ffdec:original-stroke-width="0.5" fill="none" stroke="#0687f4" stroke-linecap="butt" stroke-linejoin="miter-clip" stroke-miterlimit="4.0" stroke-width="1.0"/>
    <path d="M13.0 19.25 L13.45 25.75" ffdec:has-small-stroke="true" ffdec:original-stroke-width="0.5" fill="none" stroke="#0687f4" stroke-linecap="butt" stroke-linejoin="miter-clip" stroke-miterlimit="4.0" stroke-width="1.0"/>
    <path d="M15.75 38.7 Q15.25 38.55 15.0 38.15 14.75 37.7 14.9 37.2 15.05 36.7 15.45 36.5 L16.4 36.4 17.1 37.0 Q17.4 37.4 17.25 37.9 L16.65 38.6 15.75 38.7" fill="#00e1ff" fill-rule="evenodd" stroke="none"/>
    <path d="M16.05 37.55 L13.0 34.5" ffdec:has-small-stroke="true" ffdec:original-stroke-width="0.5" fill="none" stroke="#0687f4" stroke-linecap="butt" stroke-linejoin="miter-clip" stroke-miterlimit="4.0" stroke-width="1.0"/>
    <path d="M13.0 34.5 L13.45 27.95" ffdec:has-small-stroke="true" ffdec:original-stroke-width="0.5" fill="none" stroke="#0687f4" stroke-linecap="butt" stroke-linejoin="miter-clip" stroke-miterlimit="4.0" stroke-width="1.0"/>
    <path d="M6.05 33.7 Q6.55 33.7 6.85 34.05 7.2 34.4 7.2 34.9 7.2 35.4 6.85 35.75 6.55 36.15 6.05 36.15 5.55 36.15 5.2 35.75 4.8 35.4 4.8 34.9 4.8 34.4 5.2 34.05 5.55 33.7 6.05 33.7" fill="#00e1ff" fill-rule="evenodd" stroke="none"/>
    <path d="M6.05 34.9 L9.55 34.15" ffdec:has-small-stroke="true" ffdec:original-stroke-width="0.5" fill="none" stroke="#0687f4" stroke-linecap="butt" stroke-linejoin="miter-clip" stroke-miterlimit="4.0" stroke-width="1.0"/>
    <path d="M9.55 34.15 L11.25 28.8" ffdec:has-small-stroke="true" ffdec:original-stroke-width="0.5" fill="none" stroke="#0687f4" stroke-linecap="butt" stroke-linejoin="miter-clip" stroke-miterlimit="4.0" stroke-width="1.0"/>
    <path d="M6.05 19.75 Q5.55 19.75 5.2 19.35 4.8 19.0 4.8 18.5 4.8 18.0 5.2 17.65 5.55 17.25 6.05 17.25 6.55 17.25 6.85 17.65 7.2 18.0 7.2 18.5 7.2 19.0 6.85 19.35 6.55 19.75 6.05 19.75" fill="#00e1ff" fill-rule="evenodd" stroke="none"/>
    <path d="M6.05 18.5 L9.55 19.25" ffdec:has-small-stroke="true" ffdec:original-stroke-width="0.5" fill="none" stroke="#0687f4" stroke-linecap="butt" stroke-linejoin="miter-clip" stroke-miterlimit="4.0" stroke-width="1.0"/>
    <path d="M9.55 19.25 L11.25 24.6" ffdec:has-small-stroke="true" ffdec:original-stroke-width="0.5" fill="none" stroke="#0687f4" stroke-linecap="butt" stroke-linejoin="miter-clip" stroke-miterlimit="4.0" stroke-width="1.0"/>
    <path d="M12.75 32.55 L6.3 30.5 9.7 21.9 16.3 21.45 12.75 32.55" fill="#0770ef" fill-rule="evenodd" stroke="none"/>
    <path d="M12.75 32.55 L6.3 30.5 9.7 21.9 16.3 21.45 12.75 32.55 Z" ffdec:has-small-stroke="true" ffdec:original-stroke-width="0.5" fill="none" stroke="#29abe2" stroke-linecap="butt" stroke-linejoin="miter-clip" stroke-miterlimit="4.0" stroke-width="1.0"/>
    <path d="M11.85 25.35 L13.1 25.95 11.85 27.05 11.65 28.95 10.7 27.8 9.3 28.45 9.95 26.6 9.3 25.0 10.7 25.1 11.7 23.55 11.85 25.35" fill="#4fd9ff" fill-rule="evenodd" stroke="none"/>
  </g>
</svg>
