<?xml version="1.0" encoding="UTF-8" standalone="no"?>
<svg xmlns:ffdec="https://www.free-decompiler.com/flash" xmlns:xlink="http://www.w3.org/1999/xlink" ffdec:objectType="shape" height="297.05px" width="204.95px" xmlns="http://www.w3.org/2000/svg">
  <g transform="matrix(1.0, 0.0, 0.0, 1.0, -25.75, -25.8)">
    <path d="M145.1 92.95 L145.45 93.45 145.55 93.45 126.15 26.3 M167.7 126.25 L145.45 93.45 144.15 93.7 145.1 93.75 M145.55 93.45 L230.2 78.15 M65.75 89.65 L65.25 89.95 87.7 171.4 87.75 171.65 87.95 171.05 M26.25 111.05 L65.25 89.95 65.0 89.25 42.7 33.7 M87.7 171.4 L87.75 171.75 87.75 171.65 87.8 171.9 152.05 256.55 160.3 305.1 M87.75 171.75 L87.8 171.9 M87.75 171.75 L68.3 236.8 134.8 322.35 M195.25 229.4 L225.7 269.7 M144.15 93.7 L65.0 89.25 M167.7 125.4 L194.85 229.4" fill="none" stroke="#0a387e" stroke-linecap="round" stroke-linejoin="round" stroke-width="1.0"/>
  </g>
</svg>
