<?xml version="1.0" encoding="UTF-8" standalone="no"?>
<svg xmlns:ffdec="https://www.free-decompiler.com/flash" xmlns:xlink="http://www.w3.org/1999/xlink" ffdec:objectType="shape" height="46.4px" width="23.35px" xmlns="http://www.w3.org/2000/svg">
  <g transform="matrix(1.0, 0.0, 0.0, 1.0, -1.25, -2.6)">
    <path d="M1.25 8.55 L1.25 43.95 Q1.25 44.95 1.75 46.25 2.25 47.5 2.95 48.15 3.8 49.0 5.25 49.0 L6.7 48.7 22.45 40.5 Q23.3 40.05 23.95 39.05 24.6 38.0 24.6 37.0 L24.6 15.3 Q24.6 14.35 23.95 13.25 23.3 12.2 22.45 11.7 L6.65 2.9 5.35 2.6 Q3.95 2.6 3.15 3.55 L2.8 4.0 Q2.2 4.85 1.7 6.2 1.25 7.55 1.25 8.55" fill="url(#gradient0)" fill-rule="evenodd" stroke="none"/>
    <path d="M2.45 12.55 L2.45 39.8 Q2.45 40.9 3.0 42.15 3.55 43.35 4.3 44.0 5.05 44.55 6.3 44.65 7.55 44.7 8.55 44.2 L20.25 38.2 Q21.2 37.7 21.9 36.5 22.6 35.35 22.6 34.2 L22.6 17.95 Q22.6 16.8 21.9 15.65 21.2 14.45 20.25 13.9 L8.55 7.4 Q7.55 6.85 6.3 7.0 5.05 7.15 4.3 7.95 3.55 8.7 3.0 10.05 2.45 11.4 2.45 12.55" fill="#2b2b2a" fill-rule="evenodd" stroke="none"/>
    <path d="M7.45 10.35 Q6.0 10.35 5.35 11.25 4.8 11.95 4.4 13.25 4.0 14.55 4.0 15.75 L4.0 37.0 Q4.0 38.2 4.45 39.45 4.8 40.65 5.35 41.25 6.0 41.85 7.2 41.85 8.35 41.85 9.5 41.3 L18.15 36.8 Q19.25 36.25 20.0 35.0 20.75 33.7 20.75 32.45 L20.75 20.15 Q20.75 18.95 20.0 17.65 19.3 16.35 18.2 15.75 L9.45 10.95 Q8.45 10.35 7.45 10.35" fill="url(#gradient1)" fill-rule="evenodd" stroke="none"/>
    <path d="M5.0 10.95 Q4.4 11.7 4.0 13.1 3.55 14.45 3.55 15.75 L3.55 37.0 Q3.55 38.2 4.0 39.5 4.4 40.85 5.05 41.55 5.8 42.3 7.2 42.3 8.5 42.3 9.7 41.7 L18.35 37.2 Q19.55 36.6 20.35 35.2 21.2 33.85 21.2 32.45 L21.2 20.15 Q21.2 18.8 20.4 17.45 19.6 16.05 18.4 15.4 L9.7 10.55 Q8.65 9.9 7.45 9.9 5.8 9.9 5.0 10.95 M7.45 10.8 Q8.35 10.8 9.25 11.3 L17.95 16.15 Q18.95 16.7 19.65 17.9 20.3 19.05 20.3 20.15 L20.3 32.45 Q20.3 33.6 19.6 34.75 L17.95 36.4 Q13.6 38.65 9.3 40.85 8.25 41.4 7.2 41.4 6.2 41.4 5.7 40.9 5.2 40.4 4.85 39.25 4.45 38.15 4.45 37.0 L4.45 15.75 Q4.45 14.65 4.85 13.4 5.2 12.1 5.7 11.55 6.25 10.8 7.45 10.8" fill="#66ccff" fill-rule="evenodd" stroke="none"/>
    <path d="M14.5 17.6 Q14.35 17.15 14.6 16.75 L15.25 16.25 16.1 16.3 16.6 16.95 Q16.75 17.4 16.5 17.8 L15.85 18.3 15.0 18.2 Q14.6 18.0 14.5 17.6" fill="#00e1ff" fill-rule="evenodd" stroke="none"/>
    <path d="M15.5 17.3 L12.8 20.05" ffdec:has-small-stroke="true" ffdec:original-stroke-width="0.5" fill="none" stroke="#0687f4" stroke-linecap="butt" stroke-linejoin="miter-clip" stroke-miterlimit="4.0" stroke-width="1.0"/>
    <path d="M12.8 20.05 L13.2 25.9" ffdec:has-small-stroke="true" ffdec:original-stroke-width="0.5" fill="none" stroke="#0687f4" stroke-linecap="butt" stroke-linejoin="miter-clip" stroke-miterlimit="4.0" stroke-width="1.0"/>
    <path d="M15.25 37.55 L14.6 37.05 Q14.35 36.65 14.5 36.2 14.6 35.75 15.0 35.55 L15.85 35.5 16.5 36.0 Q16.75 36.4 16.6 36.85 L16.1 37.45 15.25 37.55" fill="#00e1ff" fill-rule="evenodd" stroke="none"/>
    <path d="M15.5 36.5 L12.8 33.75" ffdec:has-small-stroke="true" ffdec:original-stroke-width="0.5" fill="none" stroke="#0687f4" stroke-linecap="butt" stroke-linejoin="miter-clip" stroke-miterlimit="4.0" stroke-width="1.0"/>
    <path d="M12.8 33.75 L13.2 27.9" ffdec:has-small-stroke="true" ffdec:original-stroke-width="0.5" fill="none" stroke="#0687f4" stroke-linecap="butt" stroke-linejoin="miter-clip" stroke-miterlimit="4.0" stroke-width="1.0"/>
    <path d="M6.5 33.05 Q6.95 33.05 7.3 33.35 L7.6 34.15 7.3 34.9 Q6.95 35.25 6.5 35.25 6.05 35.25 5.75 34.9 5.4 34.6 5.4 34.15 5.4 33.7 5.75 33.35 6.05 33.05 6.5 33.05" fill="#00e1ff" fill-rule="evenodd" stroke="none"/>
    <path d="M6.5 34.15 L9.7 33.45" ffdec:has-small-stroke="true" ffdec:original-stroke-width="0.5" fill="none" stroke="#0687f4" stroke-linecap="butt" stroke-linejoin="miter-clip" stroke-miterlimit="4.0" stroke-width="1.0"/>
    <path d="M9.7 33.45 L11.25 28.65" ffdec:has-small-stroke="true" ffdec:original-stroke-width="0.5" fill="none" stroke="#0687f4" stroke-linecap="butt" stroke-linejoin="miter-clip" stroke-miterlimit="4.0" stroke-width="1.0"/>
    <path d="M6.5 20.45 Q6.05 20.45 5.75 20.15 5.4 19.8 5.4 19.35 5.4 18.9 5.75 18.6 6.05 18.25 6.5 18.25 6.95 18.25 7.3 18.6 L7.6 19.35 7.3 20.15 6.5 20.45" fill="#00e1ff" fill-rule="evenodd" stroke="none"/>
    <path d="M6.5 19.35 L9.7 20.0" ffdec:has-small-stroke="true" ffdec:original-stroke-width="0.5" fill="none" stroke="#0687f4" stroke-linecap="butt" stroke-linejoin="miter-clip" stroke-miterlimit="4.0" stroke-width="1.0"/>
    <path d="M9.7 20.0 L11.25 24.85" ffdec:has-small-stroke="true" ffdec:original-stroke-width="0.5" fill="none" stroke="#0687f4" stroke-linecap="butt" stroke-linejoin="miter-clip" stroke-miterlimit="4.0" stroke-width="1.0"/>
    <path d="M12.6 32.0 L6.75 30.1 9.85 22.4 15.75 22.0 12.6 32.0" fill="#0770ef" fill-rule="evenodd" stroke="none"/>
    <path d="M12.6 32.0 L6.75 30.1 9.85 22.4 15.75 22.0 12.6 32.0 Z" ffdec:has-small-stroke="true" ffdec:original-stroke-width="0.5" fill="none" stroke="#29abe2" stroke-linecap="butt" stroke-linejoin="miter-clip" stroke-miterlimit="4.0" stroke-width="1.0"/>
    <path d="M11.75 25.5 L12.9 26.05 11.75 27.05 11.55 28.75 10.7 27.7 9.45 28.25 10.0 26.6 9.45 25.2 10.7 25.25 11.6 23.85 11.75 25.5" fill="#4fd9ff" fill-rule="evenodd" stroke="none"/>
  </g>
  <defs>
    <linearGradient gradientTransform="matrix(0.0142, 0.0, 0.0, 0.0142, 12.9, 25.8)" gradientUnits="userSpaceOnUse" id="gradient0" spreadMethod="pad" x1="-819.2" x2="819.2">
      <stop offset="0.0" stop-color="#5f5f5f"/>
      <stop offset="0.23529411764705882" stop-color="#828282"/>
      <stop offset="1.0" stop-color="#373737"/>
    </linearGradient>
    <linearGradient gradientTransform="matrix(-0.0124, 0.0071, 0.0096, 0.0166, 12.4, 26.15)" gradientUnits="userSpaceOnUse" id="gradient1" spreadMethod="pad" x1="-819.2" x2="819.2">
      <stop offset="0.0" stop-color="#0099ff"/>
      <stop offset="1.0" stop-color="#0033ff"/>
    </linearGradient>
  </defs>
</svg>
