<?xml version="1.0" encoding="UTF-8" standalone="no"?>
<svg xmlns:ffdec="https://www.free-decompiler.com/flash" xmlns:xlink="http://www.w3.org/1999/xlink" ffdec:objectType="shape" height="46.4px" width="23.35px" xmlns="http://www.w3.org/2000/svg">
  <g transform="matrix(1.0, 0.0, 0.0, 1.0, -1.25, -2.6)">
    <path d="M1.25 8.55 L1.25 43.95 Q1.25 44.95 1.75 46.25 2.25 47.5 2.95 48.15 3.8 49.0 5.25 49.0 L6.7 48.7 22.45 40.5 Q23.3 40.05 23.95 39.05 24.6 38.0 24.6 37.0 L24.6 15.3 Q24.6 14.35 23.95 13.25 23.3 12.2 22.45 11.7 L6.65 2.9 5.35 2.6 Q3.95 2.6 3.15 3.55 L2.8 4.0 Q2.2 4.85 1.7 6.2 1.25 7.55 1.25 8.55" fill="url(#gradient0)" fill-rule="evenodd" stroke="none"/>
    <path d="M2.45 12.55 L2.45 39.8 Q2.45 40.9 3.0 42.15 3.55 43.35 4.3 44.0 5.05 44.55 6.3 44.65 7.55 44.7 8.55 44.2 L20.25 38.2 Q21.2 37.7 21.9 36.5 22.6 35.35 22.6 34.2 L22.6 17.95 Q22.6 16.8 21.9 15.65 21.2 14.45 20.25 13.9 L8.55 7.4 Q7.55 6.85 6.3 7.0 5.05 7.15 4.3 7.95 3.55 8.7 3.0 10.05 2.45 11.4 2.45 12.55" fill="#2b2b2a" fill-rule="evenodd" stroke="none"/>
    <path d="M5.35 11.25 Q4.8 11.95 4.4 13.25 4.0 14.55 4.0 15.75 L4.0 37.0 Q4.0 38.2 4.45 39.45 4.8 40.65 5.35 41.25 6.0 41.85 7.2 41.85 8.35 41.85 9.5 41.3 L18.15 36.8 Q19.25 36.25 20.0 35.0 20.75 33.7 20.75 32.45 L20.75 20.15 Q20.75 18.95 20.0 17.65 19.3 16.35 18.2 15.75 L9.45 10.95 Q8.45 10.35 7.45 10.35 6.0 10.35 5.35 11.25" fill="url(#gradient1)" fill-rule="evenodd" stroke="none"/>
    <path d="M4.45 15.75 Q4.45 14.65 4.85 13.4 5.2 12.1 5.7 11.55 6.25 10.8 7.45 10.8 8.35 10.8 9.25 11.3 L17.95 16.15 Q18.95 16.7 19.65 17.9 20.3 19.05 20.3 20.15 L20.3 32.45 Q20.3 33.6 19.6 34.75 L17.95 36.4 Q13.6 38.65 9.3 40.85 8.25 41.4 7.2 41.4 6.2 41.4 5.7 40.9 5.2 40.4 4.85 39.25 4.45 38.15 4.45 37.0 L4.45 15.75 M5.0 10.95 Q4.4 11.7 4.0 13.1 3.55 14.45 3.55 15.75 L3.55 37.0 Q3.55 38.2 4.0 39.5 4.4 40.85 5.05 41.55 5.8 42.3 7.2 42.3 8.5 42.3 9.7 41.7 L18.35 37.2 Q19.55 36.6 20.35 35.2 21.2 33.85 21.2 32.45 L21.2 20.15 Q21.2 18.8 20.4 17.45 19.6 16.05 18.4 15.4 L9.7 10.55 Q8.65 9.9 7.45 9.9 5.8 9.9 5.0 10.95" fill="#66ccff" fill-rule="evenodd" stroke="none"/>
    <path d="M7.1 24.4 L7.8 24.05 7.85 24.05 7.9 24.15 7.25 24.55 7.1 24.4 M7.55 23.15 L7.35 22.8 7.55 22.75 7.6 22.75 7.65 23.15 7.55 23.15 M9.65 22.0 L9.4 21.7 9.6 21.55 9.7 21.75 9.7 22.0 9.65 22.0 M8.3 22.7 L8.2 22.75 8.05 22.5 8.2 22.35 8.3 22.7 M8.9 21.95 L9.0 22.35 8.85 22.4 8.65 22.1 8.9 21.95 M14.1 21.5 L13.95 21.7 13.6 21.9 13.45 21.75 Q13.7 21.5 14.1 21.35 L14.1 21.5 M13.55 20.75 L13.25 21.1 13.2 21.0 13.05 20.95 Q13.45 20.65 13.55 20.65 L13.55 20.75 M10.5 21.55 L10.25 21.15 10.45 21.0 10.6 21.5 10.5 21.55 M10.95 20.7 L11.15 20.65 11.35 21.1 11.25 21.1 10.95 20.7 M11.55 20.3 L11.9 20.1 12.05 20.7 11.9 20.7 11.55 20.3 M14.45 22.4 L14.1 22.75 14.0 22.7 13.9 22.6 14.15 22.4 14.4 22.3 14.45 22.4 M14.75 23.4 L14.5 23.55 14.35 23.4 Q14.6 23.15 14.8 23.15 L14.9 23.25 14.75 23.4 M14.9 24.45 Q15.0 24.2 15.35 24.2 L15.4 24.25 15.1 24.55 15.0 24.55 14.9 24.45 M15.35 25.45 L15.85 25.2 15.75 25.45 15.55 25.6 15.5 25.55 15.35 25.45 M16.4 26.2 L16.0 26.45 16.0 26.4 15.85 26.3 16.3 26.1 16.4 26.2 M16.25 27.1 L16.8 26.9 16.8 27.0 16.4 27.25 16.4 27.2 16.25 27.1 M15.7 28.9 L15.45 28.3 15.65 28.15 15.9 28.75 15.7 28.9 M10.25 28.95 L9.8 29.25 9.75 29.1 10.05 28.85 10.25 28.85 10.25 28.95 M10.2 30.1 L10.7 29.85 10.8 29.9 10.4 30.25 10.3 30.35 10.2 30.1 M12.3 30.75 L12.1 30.85 11.9 30.35 12.1 30.25 12.3 30.75 M14.45 28.85 L14.8 29.4 14.5 29.55 14.2 28.95 14.45 28.85 M13.3 29.55 L13.65 30.1 13.4 30.1 13.1 29.6 13.3 29.55 M8.5 26.0 L8.6 26.1 8.3 26.4 8.2 26.25 8.5 26.0 M7.75 25.15 L7.9 24.95 8.2 24.9 8.25 25.0 7.8 25.3 7.75 25.15 M8.8 27.3 Q8.8 27.15 9.35 27.0 L9.35 27.05 8.85 27.45 8.8 27.3 M9.85 28.0 L9.35 28.35 9.35 28.2 9.8 27.9 9.85 28.0" fill="#89e8fe" fill-rule="evenodd" stroke="none"/>
    <path d="M14.15 17.25 Q14.0 16.8 14.25 16.45 L14.9 15.9 15.7 16.0 Q16.05 16.2 16.2 16.65 16.35 17.05 16.1 17.45 L15.45 17.95 14.65 17.85 14.15 17.25" fill="#00e1ff" fill-rule="evenodd" stroke="none"/>
    <path d="M15.15 16.95 L12.5 19.65" ffdec:has-small-stroke="true" ffdec:original-stroke-width="0.5" fill="none" stroke="#0687f4" stroke-linecap="butt" stroke-linejoin="miter-clip" stroke-miterlimit="4.0" stroke-width="1.0"/>
    <path d="M12.5 19.65 L12.9 25.3" ffdec:has-small-stroke="true" ffdec:original-stroke-width="0.5" fill="none" stroke="#0687f4" stroke-linecap="butt" stroke-linejoin="miter-clip" stroke-miterlimit="4.0" stroke-width="1.0"/>
    <path d="M14.9 36.65 L14.25 36.15 Q14.0 35.75 14.15 35.3 L14.65 34.7 15.45 34.6 16.1 35.1 Q16.35 35.5 16.2 35.95 L15.7 36.55 14.9 36.65" fill="#00e1ff" fill-rule="evenodd" stroke="none"/>
    <path d="M15.15 35.65 L12.5 32.95" ffdec:has-small-stroke="true" ffdec:original-stroke-width="0.5" fill="none" stroke="#0687f4" stroke-linecap="butt" stroke-linejoin="miter-clip" stroke-miterlimit="4.0" stroke-width="1.0"/>
    <path d="M12.5 32.95 L12.9 27.25" ffdec:has-small-stroke="true" ffdec:original-stroke-width="0.5" fill="none" stroke="#0687f4" stroke-linecap="butt" stroke-linejoin="miter-clip" stroke-miterlimit="4.0" stroke-width="1.0"/>
    <path d="M6.4 32.25 Q6.85 32.25 7.15 32.55 L7.45 33.3 7.15 34.05 Q6.85 34.4 6.4 34.4 5.95 34.4 5.65 34.05 5.3 33.75 5.3 33.3 5.3 32.85 5.65 32.55 5.95 32.25 6.4 32.25" fill="#00e1ff" fill-rule="evenodd" stroke="none"/>
    <path d="M6.4 33.3 L9.5 32.65" ffdec:has-small-stroke="true" ffdec:original-stroke-width="0.5" fill="none" stroke="#0687f4" stroke-linecap="butt" stroke-linejoin="miter-clip" stroke-miterlimit="4.0" stroke-width="1.0"/>
    <path d="M9.5 32.65 L11.0 28.0" ffdec:has-small-stroke="true" ffdec:original-stroke-width="0.5" fill="none" stroke="#0687f4" stroke-linecap="butt" stroke-linejoin="miter-clip" stroke-miterlimit="4.0" stroke-width="1.0"/>
    <path d="M6.4 20.05 Q5.95 20.05 5.65 19.7 5.3 19.4 5.3 18.95 5.3 18.5 5.65 18.2 5.95 17.85 6.4 17.85 6.85 17.85 7.15 18.2 L7.45 18.95 7.15 19.7 Q6.85 20.05 6.4 20.05" fill="#00e1ff" fill-rule="evenodd" stroke="none"/>
    <path d="M6.4 18.95 L9.5 19.6" ffdec:has-small-stroke="true" ffdec:original-stroke-width="0.5" fill="none" stroke="#0687f4" stroke-linecap="butt" stroke-linejoin="miter-clip" stroke-miterlimit="4.0" stroke-width="1.0"/>
    <path d="M9.5 19.6 L11.0 24.3" ffdec:has-small-stroke="true" ffdec:original-stroke-width="0.5" fill="none" stroke="#0687f4" stroke-linecap="butt" stroke-linejoin="miter-clip" stroke-miterlimit="4.0" stroke-width="1.0"/>
    <path d="M16.55 27.95 L10.9 31.0 7.0 23.3 12.6 20.2 16.55 27.95" fill="#01a1ff" fill-rule="evenodd" stroke="none"/>
    <path d="M9.0 24.25 L11.85 22.6 14.0 26.6 11.1 28.25 9.0 24.25" fill="#4fd9ff" fill-rule="evenodd" stroke="none"/>
    <path d="M7.8 23.6 L11.25 30.1 15.6 27.6 12.45 21.15 7.8 23.6 M14.3 24.2 L15.05 25.65 16.0 27.7 Q14.1 29.2 11.95 30.1 L11.15 30.45 9.15 26.9 8.0 24.6 7.45 23.4 Q9.5 22.1 11.95 21.0 L12.65 20.8 14.3 24.2" fill="#0295d2" fill-rule="evenodd" stroke="none"/>
  </g>
  <defs>
    <linearGradient gradientTransform="matrix(0.0142, 0.0, 0.0, 0.0142, 12.9, 25.8)" gradientUnits="userSpaceOnUse" id="gradient0" spreadMethod="pad" x1="-819.2" x2="819.2">
      <stop offset="0.0" stop-color="#5f5f5f"/>
      <stop offset="0.23529411764705882" stop-color="#828282"/>
      <stop offset="1.0" stop-color="#373737"/>
    </linearGradient>
    <linearGradient gradientTransform="matrix(-0.0124, 0.0071, 0.0096, 0.0166, 12.4, 26.15)" gradientUnits="userSpaceOnUse" id="gradient1" spreadMethod="pad" x1="-819.2" x2="819.2">
      <stop offset="0.0" stop-color="#0099ff"/>
      <stop offset="1.0" stop-color="#0033ff"/>
    </linearGradient>
  </defs>
</svg>
