<?xml version="1.0" encoding="UTF-8" standalone="no"?>
<svg xmlns:ffdec="https://www.free-decompiler.com/flash" xmlns:xlink="http://www.w3.org/1999/xlink" ffdec:objectType="shape" height="51.6px" width="25.95px" xmlns="http://www.w3.org/2000/svg">
  <g transform="matrix(1.0, 0.0, 0.0, 1.0, 0.05, 0.0)">
    <path d="M-0.05 6.65 L-0.05 45.95 Q-0.05 47.1 0.5 48.5 1.05 49.9 1.85 50.65 2.8 51.6 4.4 51.6 L6.0 51.25 23.5 42.15 Q24.45 41.65 25.2 40.5 25.9 39.35 25.9 38.25 L25.9 14.15 Q25.9 13.05 25.2 11.85 24.45 10.7 23.5 10.15 L5.95 0.35 Q5.3 0.0 4.5 0.0 2.95 0.0 2.1 1.1 L1.7 1.6 Q1.0 2.5 0.45 4.0 -0.05 5.5 -0.05 6.65" fill="url(#gradient0)" fill-rule="evenodd" stroke="none"/>
    <path d="M1.3 11.05 L1.3 41.35 Q1.3 42.6 1.9 43.95 2.5 45.3 3.35 46.0 4.2 46.65 5.6 46.75 6.95 46.8 8.05 46.25 L21.05 39.55 Q22.15 39.0 22.9 37.7 23.7 36.4 23.7 35.15 L23.7 17.05 Q23.7 15.8 22.9 14.5 22.15 13.2 21.1 12.6 L8.05 5.35 Q6.95 4.75 5.6 4.9 4.2 5.1 3.35 5.95 2.5 6.8 1.9 8.3 1.3 9.8 1.3 11.05" fill="#2b2b2a" fill-rule="evenodd" stroke="none"/>
    <path d="M3.05 14.6 L3.05 38.2 Q3.05 39.55 3.5 40.9 3.9 42.25 4.55 42.9 5.25 43.6 6.6 43.6 L9.15 42.95 18.75 38.0 Q19.95 37.35 20.8 35.95 21.65 34.55 21.65 33.15 L21.65 19.5 Q21.65 18.15 20.8 16.7 20.0 15.25 18.8 14.6 L9.1 9.25 Q7.95 8.6 6.85 8.6 5.25 8.6 4.5 9.6 3.9 10.35 3.45 11.8 3.05 13.25 3.05 14.6" fill="#aa6609" fill-rule="evenodd" stroke="none"/>
    <path d="M6.85 9.1 Q7.85 9.1 8.85 9.65 L18.55 15.05 Q19.65 15.65 20.4 16.95 21.15 18.25 21.15 19.5 L21.15 33.15 Q21.15 34.4 20.35 35.7 19.6 37.0 18.5 37.55 L8.9 42.5 Q7.75 43.1 6.6 43.1 5.45 43.1 4.9 42.55 4.35 42.0 3.95 40.7 3.55 39.45 3.55 38.2 L3.55 14.6 Q3.55 13.35 3.95 11.95 4.35 10.55 4.9 9.9 5.55 9.1 6.85 9.1 M6.85 8.1 Q5.05 8.1 4.15 9.25 3.45 10.1 3.0 11.65 2.55 13.15 2.55 14.6 L2.55 38.2 Q2.55 39.55 3.0 40.95 3.45 42.5 4.2 43.25 5.05 44.1 6.6 44.1 8.05 44.1 9.35 43.4 L18.95 38.4 Q20.3 37.75 21.2 36.2 22.15 34.7 22.15 33.15 L22.15 19.5 Q22.15 18.0 21.25 16.45 20.35 14.9 19.05 14.2 L9.35 8.8 Q8.2 8.1 6.85 8.1" fill="#894502" fill-rule="evenodd" stroke="none"/>
    <path d="M16.0 14.75 L16.95 14.8 17.5 15.5 Q17.7 16.0 17.4 16.4 L16.65 16.95 15.75 16.85 15.15 16.2 Q15.0 15.7 15.25 15.3 L16.0 14.75" fill="#ffe100" fill-rule="evenodd" stroke="none"/>
    <path d="M16.35 15.85 L13.25 18.85" ffdec:has-small-stroke="true" ffdec:original-stroke-width="0.5" fill="none" stroke="#ff8700" stroke-linecap="butt" stroke-linejoin="miter-clip" stroke-miterlimit="4.0" stroke-width="1.0"/>
    <path d="M13.25 18.85 L13.7 25.15" ffdec:has-small-stroke="true" ffdec:original-stroke-width="0.5" fill="none" stroke="#ff8700" stroke-linecap="butt" stroke-linejoin="miter-clip" stroke-miterlimit="4.0" stroke-width="1.0"/>
    <path d="M16.0 37.75 L15.25 37.2 Q15.0 36.75 15.15 36.3 15.3 35.8 15.75 35.55 L16.65 35.5 17.4 36.05 Q17.7 36.45 17.5 36.95 L16.95 37.65 16.0 37.75" fill="#ffe100" fill-rule="evenodd" stroke="none"/>
    <path d="M16.35 36.6 L13.25 33.6" ffdec:has-small-stroke="true" ffdec:original-stroke-width="0.5" fill="none" stroke="#ff8700" stroke-linecap="butt" stroke-linejoin="miter-clip" stroke-miterlimit="4.0" stroke-width="1.0"/>
    <path d="M13.25 33.6 L13.7 27.3" ffdec:has-small-stroke="true" ffdec:original-stroke-width="0.5" fill="none" stroke="#ff8700" stroke-linecap="butt" stroke-linejoin="miter-clip" stroke-miterlimit="4.0" stroke-width="1.0"/>
    <path d="M6.15 32.85 Q6.7 32.85 7.05 33.2 7.4 33.55 7.4 34.05 L7.05 34.85 Q6.7 35.25 6.15 35.25 5.65 35.25 5.3 34.85 4.95 34.5 4.95 34.05 4.95 33.55 5.3 33.2 5.65 32.85 6.15 32.85" fill="#ffe100" fill-rule="evenodd" stroke="none"/>
    <path d="M6.15 34.05 L9.75 33.3" ffdec:has-small-stroke="true" ffdec:original-stroke-width="0.5" fill="none" stroke="#ff8700" stroke-linecap="butt" stroke-linejoin="miter-clip" stroke-miterlimit="4.0" stroke-width="1.0"/>
    <path d="M9.75 33.3 L11.45 28.1" ffdec:has-small-stroke="true" ffdec:original-stroke-width="0.5" fill="none" stroke="#ff8700" stroke-linecap="butt" stroke-linejoin="miter-clip" stroke-miterlimit="4.0" stroke-width="1.0"/>
    <path d="M6.15 19.3 Q5.65 19.3 5.3 18.9 4.95 18.6 4.95 18.1 4.95 17.6 5.3 17.25 5.65 16.9 6.15 16.9 6.7 16.9 7.05 17.25 7.4 17.6 7.4 18.1 7.4 18.6 7.05 18.9 6.7 19.3 6.15 19.3" fill="#ffe100" fill-rule="evenodd" stroke="none"/>
    <path d="M6.15 18.1 L9.75 18.8" ffdec:has-small-stroke="true" ffdec:original-stroke-width="0.5" fill="none" stroke="#ff8700" stroke-linecap="butt" stroke-linejoin="miter-clip" stroke-miterlimit="4.0" stroke-width="1.0"/>
    <path d="M9.75 18.8 L11.45 24.0" ffdec:has-small-stroke="true" ffdec:original-stroke-width="0.5" fill="none" stroke="#ff8700" stroke-linecap="butt" stroke-linejoin="miter-clip" stroke-miterlimit="4.0" stroke-width="1.0"/>
    <path d="M9.5 21.25 L9.6 21.45 9.6 21.7 9.55 21.7 9.25 21.4 9.5 21.25 M7.2 23.0 L6.95 22.6 7.2 22.5 7.25 22.55 7.35 22.95 7.2 23.0 M7.45 23.9 L7.55 23.9 7.55 24.05 6.85 24.5 6.7 24.3 7.45 23.9 M8.65 22.1 L8.4 21.85 8.7 21.65 8.8 22.1 8.65 22.1 M7.9 22.5 L7.75 22.25 7.95 22.1 8.0 22.5 7.9 22.5 M13.9 20.25 L13.95 20.35 13.6 20.75 13.5 20.65 13.4 20.55 13.9 20.25 M14.55 21.2 L14.35 21.4 14.0 21.6 13.8 21.5 14.5 21.05 14.55 21.2 M12.05 19.65 Q12.25 19.8 12.25 20.3 L12.1 20.35 11.7 19.9 12.05 19.65 M11.0 20.35 L11.2 20.25 11.45 20.75 11.35 20.75 11.0 20.35 M10.65 21.2 L10.5 21.25 10.2 20.8 10.45 20.65 10.65 21.2 M14.5 22.5 L14.4 22.5 14.3 22.35 14.65 22.15 14.9 22.05 15.0 22.15 14.5 22.5 M14.85 23.3 Q15.15 23.0 15.35 23.0 L15.45 23.1 15.25 23.3 15.05 23.4 14.85 23.3 M15.95 24.05 L16.05 24.15 15.65 24.5 15.6 24.45 15.45 24.35 15.95 24.05 M17.1 26.25 L16.7 26.55 16.65 26.5 Q16.65 26.4 16.5 26.4 16.65 26.3 17.05 26.15 L17.1 26.25 M16.2 25.6 L16.15 25.55 16.0 25.4 16.5 25.2 16.45 25.45 16.2 25.6 M17.6 27.1 L17.15 27.35 17.1 27.35 16.95 27.2 17.55 27.0 17.6 27.1 M16.3 28.4 L16.6 29.0 16.35 29.15 16.05 28.55 16.3 28.4 M10.2 29.2 L9.7 29.55 9.65 29.4 9.95 29.1 10.15 29.1 10.2 29.2 M10.75 30.2 L10.85 30.3 10.4 30.7 10.25 30.75 10.15 30.5 10.75 30.2 M12.3 30.7 L12.55 31.2 12.3 31.25 12.05 30.8 12.3 30.7 M13.65 29.9 L14.0 30.5 13.75 30.5 13.4 29.95 13.65 29.9 M15.0 29.1 L15.35 29.7 Q15.25 29.75 15.05 29.9 L14.7 29.2 15.0 29.1 M7.95 24.85 L7.95 25.0 7.5 25.25 7.4 25.15 7.6 24.95 7.95 24.85 M8.25 26.05 L8.35 26.15 8.0 26.5 7.9 26.3 8.25 26.05 M8.55 27.45 Q8.55 27.25 9.15 27.1 L9.2 27.15 8.65 27.6 8.55 27.45 M9.2 28.6 L9.15 28.45 9.7 28.15 9.75 28.2 9.2 28.6" fill="#ff7900" fill-rule="evenodd" stroke="none"/>
    <path d="M11.1 31.4 L6.7 23.1 12.95 19.7 17.45 28.1 11.1 31.4" fill="#eabf07" fill-rule="evenodd" stroke="none"/>
    <path d="M8.95 24.1 L12.15 22.3 14.5 26.7 11.3 28.45 8.95 24.1" fill="#ffed00" fill-rule="evenodd" stroke="none"/>
    <path d="M7.6 23.4 L11.45 30.45 16.35 27.7 12.8 20.75 7.6 23.4 M12.25 20.6 Q12.65 20.4 13.05 20.35 L14.9 24.05 15.75 25.6 16.8 27.85 Q14.7 29.45 12.25 30.45 L11.35 30.8 9.1 27.0 7.8 24.5 7.25 23.2 Q9.5 21.8 12.25 20.6" fill="#e89e00" fill-rule="evenodd" stroke="none"/>
  </g>
  <defs>
    <linearGradient gradientTransform="matrix(0.0158, 0.0, 0.0, 0.0158, 12.9, 25.8)" gradientUnits="userSpaceOnUse" id="gradient0" spreadMethod="pad" x1="-819.2" x2="819.2">
      <stop offset="0.0" stop-color="#5f5f5f"/>
      <stop offset="0.23529411764705882" stop-color="#828282"/>
      <stop offset="1.0" stop-color="#373737"/>
    </linearGradient>
  </defs>
</svg>
