<?xml version="1.0" encoding="UTF-8" standalone="no"?>
<svg xmlns:ffdec="https://www.free-decompiler.com/flash" xmlns:xlink="http://www.w3.org/1999/xlink" ffdec:objectType="shape" height="23.75px" width="13.3px" xmlns="http://www.w3.org/2000/svg">
  <g transform="matrix(1.0, 0.0, 0.0, 1.0, -4.8, -15.0)">
    <path d="M14.9 16.55 Q14.75 16.05 15.0 15.6 15.25 15.2 15.75 15.05 L16.65 15.1 17.25 15.85 17.1 16.75 16.4 17.35 15.45 17.25 14.9 16.55" fill="#00e1ff" fill-rule="evenodd" stroke="none"/>
    <path d="M16.05 16.2 L13.0 19.25" ffdec:has-small-stroke="true" ffdec:original-stroke-width="0.5" fill="none" stroke="#0687f4" stroke-linecap="butt" stroke-linejoin="miter-clip" stroke-miterlimit="4.0" stroke-width="1.0"/>
    <path d="M13.0 19.25 L13.45 25.75" ffdec:has-small-stroke="true" ffdec:original-stroke-width="0.5" fill="none" stroke="#0687f4" stroke-linecap="butt" stroke-linejoin="miter-clip" stroke-miterlimit="4.0" stroke-width="1.0"/>
    <path d="M15.75 38.7 Q15.25 38.55 15.0 38.15 14.75 37.7 14.9 37.2 15.05 36.7 15.45 36.5 L16.4 36.4 17.1 37.0 Q17.4 37.4 17.25 37.9 L16.65 38.6 15.75 38.7" fill="#00e1ff" fill-rule="evenodd" stroke="none"/>
    <path d="M16.05 37.55 L13.0 34.5" ffdec:has-small-stroke="true" ffdec:original-stroke-width="0.5" fill="none" stroke="#0687f4" stroke-linecap="butt" stroke-linejoin="miter-clip" stroke-miterlimit="4.0" stroke-width="1.0"/>
    <path d="M13.0 34.5 L13.45 27.95" ffdec:has-small-stroke="true" ffdec:original-stroke-width="0.5" fill="none" stroke="#0687f4" stroke-linecap="butt" stroke-linejoin="miter-clip" stroke-miterlimit="4.0" stroke-width="1.0"/>
    <path d="M6.05 33.7 Q6.55 33.7 6.85 34.05 7.2 34.4 7.2 34.9 7.2 35.4 6.85 35.75 6.55 36.15 6.05 36.15 5.55 36.15 5.2 35.75 4.8 35.4 4.8 34.9 4.8 34.4 5.2 34.05 5.55 33.7 6.05 33.7" fill="#00e1ff" fill-rule="evenodd" stroke="none"/>
    <path d="M6.05 34.9 L9.55 34.15" ffdec:has-small-stroke="true" ffdec:original-stroke-width="0.5" fill="none" stroke="#0687f4" stroke-linecap="butt" stroke-linejoin="miter-clip" stroke-miterlimit="4.0" stroke-width="1.0"/>
    <path d="M9.55 34.15 L11.25 28.8" ffdec:has-small-stroke="true" ffdec:original-stroke-width="0.5" fill="none" stroke="#0687f4" stroke-linecap="butt" stroke-linejoin="miter-clip" stroke-miterlimit="4.0" stroke-width="1.0"/>
    <path d="M6.05 19.75 Q5.55 19.75 5.2 19.35 4.8 19.0 4.8 18.5 4.8 18.0 5.2 17.65 5.55 17.25 6.05 17.25 6.55 17.25 6.85 17.65 7.2 18.0 7.2 18.5 7.2 19.0 6.85 19.35 6.55 19.75 6.05 19.75" fill="#00e1ff" fill-rule="evenodd" stroke="none"/>
    <path d="M6.05 18.5 L9.55 19.25" ffdec:has-small-stroke="true" ffdec:original-stroke-width="0.5" fill="none" stroke="#0687f4" stroke-linecap="butt" stroke-linejoin="miter-clip" stroke-miterlimit="4.0" stroke-width="1.0"/>
    <path d="M9.55 19.25 L11.25 24.6" ffdec:has-small-stroke="true" ffdec:original-stroke-width="0.5" fill="none" stroke="#0687f4" stroke-linecap="butt" stroke-linejoin="miter-clip" stroke-miterlimit="4.0" stroke-width="1.0"/>
    <path d="M15.6 29.7 Q14.3 31.0 12.45 31.0 10.6 31.0 9.3 29.7 8.0 28.4 8.0 26.55 8.0 24.7 9.3 23.4 10.6 22.1 12.45 22.1 14.3 22.1 15.6 23.4 16.9 24.7 16.9 26.55 16.9 28.4 15.6 29.7" fill="url(#gradient0)" fill-rule="evenodd" stroke="none"/>
    <path d="M15.6 29.7 Q14.3 31.0 12.45 31.0 10.6 31.0 9.3 29.7 8.0 28.4 8.0 26.55 8.0 24.7 9.3 23.4 10.6 22.1 12.45 22.1 14.3 22.1 15.6 23.4 16.9 24.7 16.9 26.55 16.9 28.4 15.6 29.7 Z" ffdec:has-small-stroke="true" ffdec:original-stroke-width="0.5" fill="none" stroke="#29abe2" stroke-linecap="butt" stroke-linejoin="miter-clip" stroke-miterlimit="4.0" stroke-width="1.0"/>
    <path d="M10.95 24.6 L10.8 25.7 12.1 27.7 11.55 27.5 Q10.05 27.0 9.75 25.55 10.45 23.9 11.8 23.25 12.35 22.95 13.0 22.85 11.1 23.55 10.95 24.6 M12.3 24.95 Q13.85 25.65 14.5 26.7 L14.8 27.25 Q14.2 28.8 12.9 29.55 13.9 28.1 13.4 26.85 12.9 25.55 11.65 24.95 L12.3 24.95" fill="#67e0fe" fill-rule="evenodd" stroke="none"/>
    <path d="M13.3 22.2 L12.35 22.25 Q13.25 21.8 14.15 21.65 L15.0 21.5 Q16.45 21.4 17.2 22.35 17.7 23.0 17.6 24.05 L17.25 25.55 Q16.45 27.6 14.6 29.3 12.6 31.0 10.6 31.5 L9.8 31.65 Q8.4 31.7 7.7 30.9 7.05 30.15 7.2 29.1 7.1 28.4 7.45 27.75 7.65 27.1 8.0 26.55 L8.0 27.55" ffdec:has-small-stroke="true" ffdec:original-stroke-width="0.5" fill="none" stroke="#29abe2" stroke-linecap="butt" stroke-linejoin="miter-clip" stroke-miterlimit="4.0" stroke-width="1.0"/>
    <path d="M16.85 27.7 L16.9 26.1 17.55 27.6 17.8 28.45 Q18.05 29.9 17.2 30.75 16.6 31.35 15.55 31.35 L14.0 31.15 Q11.9 30.6 10.0 28.95 8.05 27.15 7.35 25.25 L7.1 24.45 Q6.9 23.05 7.6 22.3 8.3 21.55 9.35 21.55 L10.75 21.65 12.55 22.25 10.95 22.3" ffdec:has-small-stroke="true" ffdec:original-stroke-width="0.5" fill="none" stroke="#29abe2" stroke-linecap="butt" stroke-linejoin="miter-clip" stroke-miterlimit="4.0" stroke-width="1.0"/>
  </g>
  <defs>
    <radialGradient cx="0" cy="0" gradientTransform="matrix(0.0046, 0.0, 0.0, 0.0046, 12.45, 26.55)" gradientUnits="userSpaceOnUse" id="gradient0" r="819.2" spreadMethod="pad">
      <stop offset="0.0" stop-color="#4fd9ff"/>
      <stop offset="1.0" stop-color="#0770ef"/>
    </radialGradient>
  </defs>
</svg>
