<?xml version="1.0" encoding="UTF-8" standalone="no"?>
<svg xmlns:ffdec="https://www.free-decompiler.com/flash" xmlns:xlink="http://www.w3.org/1999/xlink" ffdec:objectType="shape" height="51.6px" width="25.95px" xmlns="http://www.w3.org/2000/svg">
  <g transform="matrix(1.0, 0.0, 0.0, 1.0, 0.05, 0.0)">
    <path d="M23.5 10.15 Q24.45 10.7 25.2 11.85 25.9 13.05 25.9 14.15 L25.9 38.25 Q25.9 39.35 25.2 40.5 24.45 41.65 23.5 42.15 L6.0 51.25 4.4 51.6 Q2.8 51.6 1.85 50.65 1.05 49.9 0.5 48.5 -0.05 47.1 -0.05 45.95 L-0.05 6.65 Q-0.05 5.5 0.45 4.0 1.0 2.5 1.7 1.6 L2.1 1.1 Q2.95 0.0 4.5 0.0 5.3 0.0 5.95 0.35 L23.5 10.15" fill="url(#gradient0)" fill-rule="evenodd" stroke="none"/>
    <path d="M1.3 11.05 L1.3 41.35 Q1.3 42.6 1.9 43.95 2.5 45.3 3.35 46.0 4.2 46.65 5.6 46.75 6.95 46.8 8.05 46.25 L21.05 39.55 Q22.15 39.0 22.9 37.7 23.7 36.4 23.7 35.15 L23.7 17.05 Q23.7 15.8 22.9 14.5 22.15 13.2 21.1 12.6 L8.05 5.35 Q6.95 4.75 5.6 4.9 4.2 5.1 3.35 5.95 2.5 6.8 1.9 8.3 1.3 9.8 1.3 11.05" fill="#2b2b2a" fill-rule="evenodd" stroke="none"/>
    <path d="M3.05 14.6 L3.05 38.2 Q3.05 39.55 3.5 40.9 3.9 42.25 4.55 42.9 5.25 43.6 6.6 43.6 L9.15 42.95 18.75 38.0 Q19.95 37.35 20.8 35.95 21.65 34.55 21.65 33.15 L21.65 19.5 Q21.65 18.15 20.8 16.7 20.0 15.25 18.8 14.6 L9.1 9.25 Q7.95 8.6 6.85 8.6 5.25 8.6 4.5 9.6 3.9 10.35 3.45 11.8 3.05 13.25 3.05 14.6" fill="#aa6609" fill-rule="evenodd" stroke="none"/>
    <path d="M6.85 9.1 Q7.85 9.1 8.85 9.65 L18.55 15.05 Q19.65 15.65 20.4 16.95 21.15 18.25 21.15 19.5 L21.15 33.15 Q21.15 34.4 20.35 35.7 19.6 37.0 18.5 37.55 L8.9 42.5 Q7.75 43.1 6.6 43.1 5.45 43.1 4.9 42.55 4.35 42.0 3.95 40.7 3.55 39.45 3.55 38.2 L3.55 14.6 Q3.55 13.35 3.95 11.95 4.35 10.55 4.9 9.9 5.55 9.1 6.85 9.1 M6.85 8.1 Q5.05 8.1 4.15 9.25 3.45 10.1 3.0 11.65 2.55 13.15 2.55 14.6 L2.55 38.2 Q2.55 39.55 3.0 40.95 3.45 42.5 4.2 43.25 5.05 44.1 6.6 44.1 8.05 44.1 9.35 43.4 L18.95 38.4 Q20.3 37.75 21.2 36.2 22.15 34.7 22.15 33.15 L22.15 19.5 Q22.15 18.0 21.25 16.45 20.35 14.9 19.05 14.2 L9.35 8.8 Q8.2 8.1 6.85 8.1" fill="#894502" fill-rule="evenodd" stroke="none"/>
    <path d="M15.7 15.05 L16.65 15.1 17.25 15.85 17.1 16.75 16.4 17.35 15.45 17.25 14.9 16.55 Q14.7 16.05 15.0 15.6 15.2 15.2 15.7 15.05" fill="#ffe100" fill-rule="evenodd" stroke="none"/>
    <path d="M16.05 16.2 L13.0 19.25" ffdec:has-small-stroke="true" ffdec:original-stroke-width="0.5" fill="none" stroke="#ff8700" stroke-linecap="butt" stroke-linejoin="miter-clip" stroke-miterlimit="4.0" stroke-width="1.0"/>
    <path d="M13.0 19.25 L13.45 25.75" ffdec:has-small-stroke="true" ffdec:original-stroke-width="0.5" fill="none" stroke="#ff8700" stroke-linecap="butt" stroke-linejoin="miter-clip" stroke-miterlimit="4.0" stroke-width="1.0"/>
    <path d="M15.7 38.7 L15.0 38.1 Q14.7 37.7 14.9 37.2 L15.45 36.45 16.4 36.35 17.1 36.95 Q17.4 37.35 17.25 37.85 L16.65 38.55 15.7 38.7" fill="#ffe100" fill-rule="evenodd" stroke="none"/>
    <path d="M16.05 37.55 L13.0 34.45" ffdec:has-small-stroke="true" ffdec:original-stroke-width="0.5" fill="none" stroke="#ff8700" stroke-linecap="butt" stroke-linejoin="miter-clip" stroke-miterlimit="4.0" stroke-width="1.0"/>
    <path d="M13.0 34.45 L13.45 27.95" ffdec:has-small-stroke="true" ffdec:original-stroke-width="0.5" fill="none" stroke="#ff8700" stroke-linecap="butt" stroke-linejoin="miter-clip" stroke-miterlimit="4.0" stroke-width="1.0"/>
    <path d="M6.0 33.7 Q6.5 33.7 6.85 34.05 7.25 34.35 7.25 34.85 7.25 35.35 6.85 35.7 6.5 36.1 6.0 36.1 5.5 36.1 5.15 35.7 4.8 35.35 4.8 34.85 4.8 34.35 5.15 34.05 5.5 33.7 6.0 33.7" fill="#ffe100" fill-rule="evenodd" stroke="none"/>
    <path d="M6.0 34.85 L9.55 34.15" ffdec:has-small-stroke="true" ffdec:original-stroke-width="0.5" fill="none" stroke="#ff8700" stroke-linecap="butt" stroke-linejoin="miter-clip" stroke-miterlimit="4.0" stroke-width="1.0"/>
    <path d="M9.55 34.15 L11.25 28.8" ffdec:has-small-stroke="true" ffdec:original-stroke-width="0.5" fill="none" stroke="#ff8700" stroke-linecap="butt" stroke-linejoin="miter-clip" stroke-miterlimit="4.0" stroke-width="1.0"/>
    <path d="M6.0 19.75 Q5.5 19.75 5.15 19.35 4.8 19.0 4.8 18.5 4.8 18.0 5.15 17.65 5.5 17.25 6.0 17.25 6.5 17.25 6.85 17.65 7.25 18.0 7.25 18.5 7.25 19.0 6.85 19.35 6.5 19.75 6.0 19.75" fill="#ffe100" fill-rule="evenodd" stroke="none"/>
    <path d="M6.0 18.5 L9.55 19.25" ffdec:has-small-stroke="true" ffdec:original-stroke-width="0.5" fill="none" stroke="#ff8700" stroke-linecap="butt" stroke-linejoin="miter-clip" stroke-miterlimit="4.0" stroke-width="1.0"/>
    <path d="M9.55 19.25 L11.25 24.55" ffdec:has-small-stroke="true" ffdec:original-stroke-width="0.5" fill="none" stroke="#ff8700" stroke-linecap="butt" stroke-linejoin="miter-clip" stroke-miterlimit="4.0" stroke-width="1.0"/>
    <path d="M15.6 29.7 Q14.3 31.0 12.45 31.0 10.6 31.0 9.3 29.7 8.0 28.4 8.0 26.55 8.0 24.7 9.3 23.4 10.6 22.1 12.45 22.1 14.3 22.1 15.6 23.4 16.9 24.7 16.9 26.55 16.9 28.4 15.6 29.7" fill="url(#gradient1)" fill-rule="evenodd" stroke="none"/>
    <path d="M15.6 29.7 Q14.3 31.0 12.45 31.0 10.6 31.0 9.3 29.7 8.0 28.4 8.0 26.55 8.0 24.7 9.3 23.4 10.6 22.1 12.45 22.1 14.3 22.1 15.6 23.4 16.9 24.7 16.9 26.55 16.9 28.4 15.6 29.7 Z" ffdec:has-small-stroke="true" ffdec:original-stroke-width="0.5" fill="none" stroke="#ffcf00" stroke-linecap="butt" stroke-linejoin="miter-clip" stroke-miterlimit="4.0" stroke-width="1.0"/>
    <path d="M13.0 22.85 Q11.1 23.55 10.95 24.6 L10.8 25.7 12.1 27.7 11.55 27.5 Q10.05 27.0 9.75 25.55 10.45 23.9 11.8 23.25 12.35 22.95 13.0 22.85 M14.8 27.25 Q14.2 28.8 12.9 29.55 13.9 28.1 13.4 26.85 12.9 25.55 11.65 24.95 L12.3 24.95 Q13.85 25.65 14.5 26.7 L14.8 27.25" fill="#ffed00" fill-rule="evenodd" stroke="none"/>
    <path d="M13.3 22.2 L12.35 22.25 Q13.25 21.8 14.15 21.65 L15.0 21.5 Q16.45 21.4 17.2 22.35 17.7 23.0 17.6 24.05 L17.25 25.55 Q16.45 27.6 14.6 29.3 12.6 31.0 10.6 31.5 L9.8 31.65 Q8.4 31.7 7.7 30.9 7.05 30.15 7.2 29.1 7.1 28.4 7.45 27.75 7.65 27.1 8.0 26.55 L8.0 27.55" ffdec:has-small-stroke="true" ffdec:original-stroke-width="0.5" fill="none" stroke="#e89e00" stroke-linecap="butt" stroke-linejoin="miter-clip" stroke-miterlimit="4.0" stroke-width="1.0"/>
    <path d="M16.85 27.7 L16.9 26.1 17.55 27.6 17.8 28.45 Q18.05 29.9 17.2 30.75 16.6 31.35 15.55 31.35 L14.0 31.15 Q11.9 30.6 10.0 28.95 8.05 27.15 7.35 25.25 L7.1 24.45 Q6.9 23.05 7.6 22.3 8.3 21.55 9.35 21.55 L10.75 21.65 12.55 22.25 10.95 22.3" ffdec:has-small-stroke="true" ffdec:original-stroke-width="0.5" fill="none" stroke="#e89e00" stroke-linecap="butt" stroke-linejoin="miter-clip" stroke-miterlimit="4.0" stroke-width="1.0"/>
  </g>
  <defs>
    <linearGradient gradientTransform="matrix(-0.0158, 0.0, 0.0, -0.0158, 12.9, 25.8)" gradientUnits="userSpaceOnUse" id="gradient0" spreadMethod="pad" x1="-819.2" x2="819.2">
      <stop offset="0.0" stop-color="#5f5f5f"/>
      <stop offset="0.23529411764705882" stop-color="#828282"/>
      <stop offset="1.0" stop-color="#373737"/>
    </linearGradient>
    <radialGradient cx="0" cy="0" gradientTransform="matrix(0.0046, 0.0, 0.0, 0.0046, 12.45, 26.55)" gradientUnits="userSpaceOnUse" id="gradient1" r="819.2" spreadMethod="pad">
      <stop offset="0.0" stop-color="#ffed00"/>
      <stop offset="1.0" stop-color="#e89e00"/>
    </radialGradient>
  </defs>
</svg>
