<?xml version="1.0" encoding="UTF-8" standalone="no"?>
<svg xmlns:ffdec="https://www.free-decompiler.com/flash" xmlns:xlink="http://www.w3.org/1999/xlink" ffdec:objectType="shape" height="51.6px" width="25.95px" xmlns="http://www.w3.org/2000/svg">
  <g transform="matrix(1.0, 0.0, 0.0, 1.0, 0.05, 0.0)">
    <path d="M21.3 0.0 Q22.8 0.0 23.75 1.1 L24.1 1.6 Q24.8 2.5 25.35 4.0 25.9 5.5 25.9 6.65 L25.85 45.95 Q25.85 47.1 25.3 48.5 L23.95 50.65 Q23.1 51.6 21.45 51.6 L19.85 51.25 2.35 42.15 Q1.4 41.65 0.65 40.5 -0.05 39.35 -0.05 38.25 L-0.05 14.15 Q-0.05 13.05 0.65 11.85 1.35 10.7 2.3 10.15 L19.9 0.35 Q20.45 0.0 21.3 0.0" fill="url(#gradient0)" fill-rule="evenodd" stroke="none"/>
    <path d="M2.9 14.5 Q2.15 15.8 2.15 17.05 L2.15 35.15 Q2.15 36.4 2.95 37.7 3.7 39.0 4.8 39.55 L17.75 46.25 Q18.85 46.8 20.25 46.75 21.65 46.65 22.45 46.0 23.3 45.35 23.9 43.95 24.5 42.6 24.5 41.35 L24.5 11.05 Q24.5 9.8 23.9 8.3 23.3 6.8 22.45 5.95 21.65 5.1 20.25 4.9 18.9 4.75 17.8 5.35 L4.75 12.6 Q3.65 13.2 2.9 14.5" fill="#2b2b2a" fill-rule="evenodd" stroke="none"/>
    <path d="M4.15 19.5 L4.15 33.15 Q4.15 34.55 5.0 35.95 5.9 37.35 7.1 38.0 L16.7 42.95 Q18.0 43.6 19.25 43.6 20.65 43.6 21.25 42.9 L22.3 40.9 Q22.75 39.55 22.75 38.2 L22.75 14.6 22.3 11.8 Q21.9 10.35 21.3 9.6 20.55 8.6 19.0 8.6 17.85 8.6 16.7 9.25 L7.05 14.6 Q5.85 15.3 5.0 16.7 4.15 18.15 4.15 19.5" fill="#04429b" fill-rule="evenodd" stroke="none"/>
    <path d="M4.65 19.5 Q4.65 18.25 5.45 16.95 6.2 15.65 7.3 15.05 L16.95 9.65 Q17.95 9.1 19.0 9.1 20.25 9.1 20.9 9.9 21.45 10.55 21.85 11.95 22.25 13.35 22.25 14.6 L22.25 38.2 Q22.25 39.45 21.85 40.7 21.45 42.0 20.9 42.55 20.35 43.1 19.25 43.1 18.0 43.1 16.9 42.5 L7.3 37.55 Q6.2 37.0 5.45 35.7 4.65 34.4 4.65 33.15 L4.65 19.5 M6.8 14.2 Q5.5 14.9 4.55 16.45 3.65 18.0 3.65 19.5 L3.65 33.15 Q3.65 34.7 4.55 36.2 5.5 37.75 6.85 38.4 L16.45 43.4 Q17.75 44.1 19.25 44.1 20.85 44.1 21.6 43.25 22.35 42.5 22.85 40.95 23.25 39.55 23.25 38.2 L23.25 14.6 Q23.25 13.2 22.8 11.65 22.35 10.1 21.7 9.25 20.7 8.1 19.0 8.1 17.7 8.1 16.45 8.8 L6.8 14.2" fill="#1966d8" fill-rule="evenodd" stroke="none"/>
  </g>
  <defs>
    <linearGradient gradientTransform="matrix(-0.0158, 0.0, 0.0, 0.0158, 12.9, 25.8)" gradientUnits="userSpaceOnUse" id="gradient0" spreadMethod="pad" x1="-819.2" x2="819.2">
      <stop offset="0.0" stop-color="#373737"/>
      <stop offset="0.7647058823529411" stop-color="#828282"/>
      <stop offset="1.0" stop-color="#5f5f5f"/>
    </linearGradient>
  </defs>
</svg>
