<?xml version="1.0" encoding="UTF-8" standalone="no"?>
<svg xmlns:ffdec="https://www.free-decompiler.com/flash" xmlns:xlink="http://www.w3.org/1999/xlink" ffdec:objectType="shape" height="24.25px" width="17.75px" xmlns="http://www.w3.org/2000/svg">
  <g transform="matrix(1.0, 0.0, 0.0, 1.0, -4.35, -14.3)">
    <path d="M14.95 29.95 L15.0 28.9 15.0 29.9 15.05 30.1 14.95 29.95" fill="#0b90ef" fill-rule="evenodd" stroke="none"/>
    <path d="M8.75 17.9 L8.75 18.15 8.4 18.75 Q8.05 19.15 7.5 19.15 7.0 19.15 6.65 18.75 6.25 18.4 6.25 17.9 6.25 17.4 6.65 17.05 7.0 16.65 7.5 16.65 8.05 16.65 8.4 17.05 8.75 17.4 8.75 17.9 M16.85 16.4 L16.55 15.9 Q16.4 15.4 16.65 14.95 L17.4 14.35 18.35 14.45 18.9 15.2 Q19.1 15.7 18.8 16.15 L18.05 16.7 17.1 16.6 16.85 16.4 17.7 15.55 16.85 16.4 M19.6 26.05 Q19.6 25.55 20.0 25.2 20.35 24.8 20.85 24.8 21.4 24.8 21.75 25.2 22.1 25.55 22.1 26.05 L22.1 26.3 21.75 26.9 Q21.4 27.3 20.85 27.3 20.35 27.3 20.0 26.9 19.7 26.65 19.65 26.25 L19.6 26.05 20.55 26.25 19.6 26.05 M16.85 36.45 L17.1 36.2 18.05 36.1 18.8 36.7 Q19.1 37.15 18.9 37.65 L18.35 38.35 17.4 38.45 Q16.9 38.3 16.65 37.9 16.4 37.45 16.55 36.95 L16.85 36.45 17.7 37.3 16.85 36.45 M6.85 26.15 L6.85 26.35 6.85 26.4 6.5 27.0 Q6.15 27.4 5.6 27.4 5.1 27.4 4.75 27.0 4.35 26.65 4.35 26.15 4.35 25.65 4.75 25.3 5.1 24.9 5.6 24.9 6.15 24.9 6.5 25.3 6.85 25.65 6.85 26.15 M8.75 34.35 L8.75 34.6 Q8.75 35.1 8.4 35.45 8.05 35.85 7.5 35.85 7.0 35.85 6.65 35.45 6.25 35.1 6.25 34.6 6.25 34.1 6.65 33.75 7.0 33.4 7.5 33.4 8.05 33.4 8.4 33.75 L8.75 34.35 7.5 34.6 8.75 34.35" fill="#00e1ff" fill-rule="evenodd" stroke="none"/>
    <path d="M16.85 16.4 L14.6 18.7 14.95 23.45 M17.7 15.55 L16.85 16.4 M8.75 18.15 L11.15 18.65 12.85 24.1 M19.6 26.05 L18.35 25.8 M15.0 28.9 L15.0 27.8 15.0 27.55 M14.95 29.95 L15.0 28.9 M14.95 29.95 L14.6 34.15 16.85 36.45 17.7 37.3 M8.75 34.35 L11.15 33.85 12.85 28.4 M6.85 26.15 L9.05 26.6 M8.75 34.35 L7.5 34.6 M19.6 26.05 L20.55 26.25" ffdec:has-small-stroke="true" ffdec:original-stroke-width="0.5" fill="none" stroke="#0687f4" stroke-linecap="butt" stroke-linejoin="miter-clip" stroke-miterlimit="4.0" stroke-width="1.0"/>
  </g>
</svg>
