<?xml version="1.0" encoding="UTF-8" standalone="no"?>
<svg xmlns:ffdec="https://www.free-decompiler.com/flash" xmlns:xlink="http://www.w3.org/1999/xlink" ffdec:objectType="shape" height="46.45px" width="23.35px" xmlns="http://www.w3.org/2000/svg">
  <g transform="matrix(1.0, 0.0, 0.0, 1.0, -1.25, -2.6)">
    <path d="M20.45 2.6 Q21.8 2.6 22.65 3.6 L23.0 4.05 24.1 6.2 Q24.6 7.55 24.6 8.6 L24.55 43.95 Q24.55 45.0 24.05 46.25 23.55 47.5 22.85 48.2 22.1 49.05 20.6 49.05 L19.15 48.7 3.4 40.55 Q2.55 40.1 1.9 39.05 1.25 38.0 1.25 37.0 L1.25 15.35 Q1.25 14.35 1.9 13.25 2.5 12.25 3.35 11.75 L19.2 2.9 Q19.7 2.6 20.45 2.6" fill="url(#gradient0)" fill-rule="evenodd" stroke="none"/>
    <path d="M3.9 15.65 Q3.2 16.8 3.2 17.95 L3.2 34.2 Q3.2 35.35 3.95 36.5 4.6 37.7 5.6 38.2 L17.25 44.2 Q18.25 44.7 19.5 44.65 L21.5 44.0 Q22.25 43.4 22.8 42.15 23.35 40.9 23.35 39.8 L23.35 12.55 Q23.35 11.4 22.8 10.05 22.25 8.7 21.5 7.95 20.75 7.15 19.5 7.0 18.3 6.85 17.3 7.4 L5.55 13.9 Q4.55 14.45 3.9 15.65" fill="#2b2b2a" fill-rule="evenodd" stroke="none"/>
    <path d="M21.8 15.75 L21.8 37.0 21.35 39.45 Q21.0 40.65 20.45 41.25 19.8 41.85 18.6 41.85 L16.3 41.3 7.65 36.8 Q6.55 36.25 5.8 35.0 5.05 33.7 5.05 32.45 L5.05 20.15 Q5.05 18.95 5.8 17.65 6.5 16.35 7.6 15.75 L16.35 10.95 Q17.35 10.35 18.35 10.35 19.8 10.35 20.45 11.25 21.0 11.95 21.4 13.25 21.8 14.55 21.8 15.75" fill="url(#gradient1)" fill-rule="evenodd" stroke="none"/>
    <path d="M20.95 13.4 Q20.6 12.1 20.1 11.55 19.55 10.8 18.35 10.8 17.45 10.8 16.55 11.3 L7.85 16.15 Q6.85 16.7 6.15 17.9 5.5 19.05 5.5 20.15 L5.5 32.45 Q5.5 33.6 6.2 34.75 6.9 35.9 7.85 36.4 L16.5 40.85 18.6 41.4 Q19.6 41.4 20.1 40.9 L20.95 39.25 Q21.35 38.15 21.35 37.0 L21.35 15.75 Q21.35 14.65 20.95 13.4 M20.8 10.95 Q21.4 11.7 21.8 13.1 L22.25 15.75 22.25 37.0 21.8 39.5 Q21.4 40.85 20.75 41.55 20.0 42.3 18.6 42.3 17.3 42.3 16.1 41.7 L7.45 37.2 Q6.25 36.6 5.45 35.2 4.6 33.85 4.6 32.45 L4.6 20.15 Q4.6 18.8 5.4 17.45 6.2 16.05 7.4 15.4 L16.1 10.55 Q17.15 9.9 18.35 9.9 20.0 9.9 20.8 10.95" fill="#66ccff" fill-rule="evenodd" stroke="none"/>
    <path d="M8.8 17.4 Q9.15 17.75 9.15 18.2 L9.15 18.45 8.8 19.05 Q8.5 19.4 7.95 19.4 7.5 19.4 7.15 19.05 6.8 18.7 6.8 18.2 6.8 17.75 7.15 17.4 7.5 17.05 7.95 17.05 8.5 17.05 8.8 17.4 M16.85 16.8 L16.55 16.3 Q16.4 15.85 16.65 15.4 16.9 15.05 17.35 14.85 L18.3 14.95 18.8 15.65 Q19.0 16.15 18.7 16.55 L18.0 17.1 17.1 17.0 16.85 16.8 17.65 16.0 16.85 16.8 M19.45 25.95 Q19.45 25.5 19.85 25.15 20.2 24.8 20.65 24.8 21.15 24.8 21.5 25.15 21.85 25.5 21.85 25.95 L21.85 26.2 21.5 26.75 Q21.15 27.15 20.65 27.15 20.2 27.15 19.85 26.75 19.55 26.55 19.5 26.15 L19.45 25.95 20.35 26.15 19.45 25.95 M16.85 35.85 L17.1 35.6 18.0 35.5 18.7 36.1 Q19.0 36.5 18.8 37.0 L18.3 37.65 17.35 37.75 Q16.9 37.6 16.65 37.2 16.4 36.8 16.55 36.3 L16.85 35.85 17.65 36.65 16.85 35.85 M7.35 26.25 L7.35 26.3 7.0 26.85 Q6.7 27.25 6.15 27.25 5.7 27.25 5.35 26.85 5.0 26.55 5.0 26.05 5.0 25.6 5.35 25.25 5.7 24.85 6.15 24.85 6.7 24.85 7.0 25.25 7.35 25.6 7.35 26.05 L7.35 26.25 M9.15 33.85 L9.15 34.1 8.8 34.9 Q8.5 35.25 7.95 35.25 7.5 35.25 7.15 34.9 6.8 34.55 6.8 34.1 6.8 33.6 7.15 33.3 7.5 32.95 7.95 32.95 8.5 32.95 8.8 33.3 L9.15 33.85 7.95 34.1 9.15 33.85" fill="#00e1ff" fill-rule="evenodd" stroke="none"/>
    <path d="M15.05 29.65 L15.1 28.65 15.1 29.6 15.15 29.8 15.05 29.65" fill="#0b90ef" fill-rule="evenodd" stroke="none"/>
    <path d="M16.85 16.8 L14.7 19.0 15.05 23.5 M17.65 16.0 L16.85 16.8 M9.15 18.45 L11.45 18.95 13.05 24.1 M19.45 25.95 L20.35 26.15 M18.3 25.75 L19.45 25.95 M15.1 28.65 L15.1 27.65 15.1 27.4 M15.05 29.65 L15.1 28.65 M15.05 29.65 L14.7 33.65 16.85 35.85 17.65 36.65 M9.15 33.85 L11.45 33.35 13.05 28.2 M7.35 26.05 L9.45 26.5 M9.15 33.85 L7.95 34.1" ffdec:has-small-stroke="true" ffdec:original-stroke-width="0.5" fill="none" stroke="#0687f4" stroke-linecap="butt" stroke-linejoin="miter-clip" stroke-miterlimit="4.0" stroke-width="1.0"/>
  </g>
  <defs>
    <linearGradient gradientTransform="matrix(-0.0142, 0.0, 0.0, 0.0142, 12.9, 25.8)" gradientUnits="userSpaceOnUse" id="gradient0" spreadMethod="pad" x1="-819.2" x2="819.2">
      <stop offset="0.0" stop-color="#373737"/>
      <stop offset="0.7647058823529411" stop-color="#828282"/>
      <stop offset="1.0" stop-color="#5f5f5f"/>
    </linearGradient>
    <linearGradient gradientTransform="matrix(0.0124, 0.0071, -0.0096, 0.0166, 13.4, 26.15)" gradientUnits="userSpaceOnUse" id="gradient1" spreadMethod="pad" x1="-819.2" x2="819.2">
      <stop offset="0.0" stop-color="#0099ff"/>
      <stop offset="1.0" stop-color="#0033ff"/>
    </linearGradient>
  </defs>
</svg>
