<?xml version="1.0" encoding="UTF-8" standalone="no"?>
<svg xmlns:ffdec="https://www.free-decompiler.com/flash" xmlns:xlink="http://www.w3.org/1999/xlink" ffdec:objectType="shape" height="356.95px" width="275.15px" xmlns="http://www.w3.org/2000/svg">
  <g transform="matrix(1.0, 0.0, 0.0, 1.0, 15.15, 69.35)">
    <path d="M252.05 98.4 L252.05 217.75 Q252.05 220.05 250.45 221.65 248.8 223.25 246.55 223.25 L157.95 223.25 153.35 222.65 Q150.9 222.05 149.65 221.2 148.5 220.4 146.2 219.85 L141.95 219.25 101.95 219.25 97.75 219.85 Q95.5 220.4 94.4 221.2 93.15 222.05 90.8 222.65 L86.25 223.25 -0.75 223.25 Q-3.05 223.25 -4.65 221.65 -6.25 220.05 -6.25 217.75 L-6.25 98.4 Q-6.25 96.15 -4.65 94.55 -3.05 92.9 -0.75 92.9 L246.55 92.9 Q248.8 92.9 250.45 94.55 252.05 96.15 252.05 98.4" fill="#282828" fill-rule="evenodd" stroke="none"/>
    <path d="M246.55 92.4 Q249.05 92.4 250.8 94.15 252.55 95.95 252.55 98.4 L252.55 217.75 Q252.55 220.25 250.8 222.0 249.05 223.75 246.55 223.75 L157.95 223.75 153.2 223.15 Q150.75 222.5 149.35 221.6 148.25 220.85 146.05 220.3 L141.95 219.75 101.95 219.75 Q100.05 219.75 97.85 220.3 95.7 220.85 94.65 221.6 93.4 222.5 90.95 223.15 L86.25 223.75 -0.75 223.75 Q-3.25 223.75 -5.0 222.0 -6.75 220.25 -6.75 217.75 L-6.75 98.4 Q-6.75 95.9 -5.0 94.15 -3.25 92.4 -0.75 92.4 L246.55 92.4 M251.55 98.4 Q251.55 96.35 250.1 94.85 248.6 93.4 246.55 93.4 L-0.75 93.4 Q-2.8 93.4 -4.3 94.85 -5.75 96.35 -5.75 98.4 L-5.75 217.75 Q-5.75 219.8 -4.3 221.3 -2.8 222.75 -0.75 222.75 L86.25 222.75 90.65 222.15 Q92.95 221.6 94.1 220.75 95.25 219.95 97.6 219.35 L101.95 218.75 141.95 218.75 146.35 219.35 Q148.7 219.95 149.95 220.75 151.15 221.55 153.5 222.15 L157.95 222.75 246.55 222.75 Q248.6 222.75 250.1 221.3 251.55 219.8 251.55 217.75 L251.55 98.4" fill="#0c0c0c" fill-rule="evenodd" stroke="none"/>
    <path d="M250.45 -67.2 Q252.05 -65.6 252.05 -63.35 L252.05 82.9 Q252.05 85.2 250.45 86.8 248.8 88.4 246.55 88.4 L-0.75 88.4 Q-3.05 88.4 -4.65 86.8 -6.25 85.2 -6.25 82.9 L-6.25 -63.35 Q-6.25 -65.6 -4.65 -67.2 -3.05 -68.85 -0.75 -68.85 L246.55 -68.85 Q248.8 -68.85 250.45 -67.2" fill="#282828" fill-rule="evenodd" stroke="none"/>
    <path d="M246.55 -69.35 Q249.05 -69.35 250.8 -67.6 252.55 -65.8 252.55 -63.35 L252.55 82.9 Q252.55 85.4 250.8 87.15 249.05 88.9 246.55 88.9 L-0.75 88.9 Q-3.25 88.9 -5.0 87.15 -6.75 85.4 -6.75 82.9 L-6.75 -63.35 Q-6.75 -65.85 -5.0 -67.6 -3.25 -69.35 -0.75 -69.35 L246.55 -69.35 M250.1 -66.9 Q248.6 -68.35 246.55 -68.35 L-0.75 -68.35 Q-2.8 -68.35 -4.3 -66.9 -5.75 -65.4 -5.75 -63.35 L-5.75 82.9 Q-5.75 84.95 -4.3 86.45 -2.8 87.9 -0.75 87.9 L246.55 87.9 Q248.6 87.9 250.1 86.45 251.55 84.95 251.55 82.9 L251.55 -63.35 Q251.55 -65.4 250.1 -66.9" fill="#0c0c0c" fill-rule="evenodd" stroke="none"/>
    <path d="M72.65 169.15 Q74.45 170.15 75.75 172.4 77.0 174.6 77.0 176.65 L77.0 206.65 Q77.0 208.7 75.55 210.2 74.05 211.65 72.0 211.65 L34.0 211.65 Q31.95 211.65 30.45 210.2 29.0 208.7 29.0 206.65 L29.0 148.65 Q29.0 146.6 30.25 145.85 31.55 145.15 33.3 146.15 L72.65 169.15" fill="#1e1e1e" fill-rule="evenodd" stroke="none"/>
    <path d="M216.0 148.65 L216.0 206.65 Q216.0 208.7 214.55 210.2 213.05 211.65 211.0 211.65 L173.0 211.65 Q170.95 211.65 169.45 210.2 168.0 208.7 168.0 206.65 L168.0 176.65 Q168.0 174.6 169.25 172.4 170.55 170.15 172.3 169.15 L211.65 146.15 Q213.45 145.15 214.75 145.85 216.0 146.6 216.0 148.65" fill="#1e1e1e" fill-rule="evenodd" stroke="none"/>
    <path d="M9.35 211.8 L-3.2 217.5 -3.2 209.9 9.35 204.2 9.35 211.8" fill="#493c22" fill-rule="evenodd" stroke="none"/>
    <path d="M9.35 197.55 L-3.2 203.25 -3.2 195.65 9.35 189.95 9.35 197.55" fill="#493c22" fill-rule="evenodd" stroke="none"/>
    <path d="M9.35 183.3 L-3.2 189.0 -3.2 181.4 9.35 175.75 9.35 183.3" fill="#493c22" fill-rule="evenodd" stroke="none"/>
    <path d="M9.35 169.1 L-3.2 174.8 -3.2 167.2 9.35 161.5 9.35 169.1" fill="#493c22" fill-rule="evenodd" stroke="none"/>
    <path d="M9.35 154.85 L-3.2 160.55 -3.2 152.95 9.35 147.25 9.35 154.85" fill="#493c22" fill-rule="evenodd" stroke="none"/>
    <path d="M-3.2 138.75 L9.35 133.05 9.35 140.65 -3.2 146.3 -3.2 138.75" fill="#493c22" fill-rule="evenodd" stroke="none"/>
    <path d="M9.35 126.4 L-3.2 132.1 -3.2 124.5 9.35 118.8 9.35 126.4" fill="#493c22" fill-rule="evenodd" stroke="none"/>
    <path d="M237.65 211.8 L237.65 204.2 250.2 209.9 250.2 217.5 237.65 211.8" fill="#493c22" fill-rule="evenodd" stroke="none"/>
    <path d="M237.65 197.55 L237.65 189.95 250.2 195.65 250.2 203.25 237.65 197.55" fill="#493c22" fill-rule="evenodd" stroke="none"/>
    <path d="M237.65 183.3 L237.65 175.75 250.2 181.4 250.2 189.0 237.65 183.3" fill="#493c22" fill-rule="evenodd" stroke="none"/>
    <path d="M237.65 169.1 L237.65 161.5 250.2 167.2 250.2 174.8 237.65 169.1" fill="#493c22" fill-rule="evenodd" stroke="none"/>
    <path d="M237.65 154.85 L237.65 147.25 250.2 152.95 250.2 160.55 237.65 154.85" fill="#493c22" fill-rule="evenodd" stroke="none"/>
    <path d="M250.2 138.75 L250.2 146.3 237.65 140.65 237.65 133.05 250.2 138.75" fill="#493c22" fill-rule="evenodd" stroke="none"/>
    <path d="M237.65 126.4 L237.65 118.8 250.2 124.5 250.2 132.1 237.65 126.4" fill="#493c22" fill-rule="evenodd" stroke="none"/>
    <path d="M-8.7 58.1 L-6.35 64.5 -14.35 58.7 -14.35 55.0 -8.7 58.1" fill="#29292b" fill-rule="evenodd" stroke="none"/>
    <path d="M-8.7 122.4 L-14.35 124.95 -14.35 121.25 -6.35 116.4 -8.7 122.4" fill="#29292b" fill-rule="evenodd" stroke="none"/>
    <path d="M-8.9 61.1 Q-7.85 61.75 -7.1 63.1 -6.35 64.4 -6.35 65.65 L-6.35 115.05 Q-6.35 116.3 -7.1 117.6 -7.85 118.9 -8.95 119.55 L-11.75 121.15 Q-12.8 121.8 -13.55 121.35 -14.35 120.9 -14.35 119.65 L-14.35 60.75 Q-14.35 59.5 -13.6 59.1 -12.85 58.7 -11.8 59.35 L-8.9 61.1" fill="#191919" fill-rule="evenodd" stroke="none"/>
    <path d="M-14.35 57.75 L-13.6 58.15 -13.6 122.25 -14.35 122.65 -14.35 57.75" fill="#595657" fill-rule="evenodd" stroke="none"/>
    <path d="M-8.95 61.05 L-8.45 61.4 -8.45 119.15 -8.95 119.55 -8.95 61.05" fill="#474647" fill-rule="evenodd" stroke="none"/>
    <path d="M-9.5 60.7 L-9.0 61.05 -9.0 119.45 -9.5 119.9 -9.5 60.7" fill="#1e1d1f" fill-rule="evenodd" stroke="none"/>
    <path d="M-7.55 74.65 L0.0 84.25 0.0 96.6 -7.55 106.2 -14.15 107.4 -14.15 73.45 -7.55 74.65" fill="url(#gradient0)" fill-rule="evenodd" stroke="none"/>
    <path d="M-7.55 74.65 L-14.15 73.45 -14.15 107.4 -7.55 106.2 0.0 96.6 0.0 84.25 -7.55 74.65 M-15.15 72.25 L-7.05 73.7 0.75 83.65 1.0 83.9 1.0 96.95 0.75 97.2 -6.8 106.8 -7.0 107.1 -15.15 108.65 -15.15 72.25" fill="#1a1a1c" fill-rule="evenodd" stroke="none"/>
    <path d="M-14.15 73.45 L-11.3 73.95 -11.3 106.9 -14.15 107.4 -14.15 73.45" fill="#484949" fill-rule="evenodd" stroke="none"/>
    <path d="M-9.65 118.65 L-13.0 120.8 -13.0 108.35 -9.65 107.75 -9.65 118.65" fill="#000701" fill-rule="evenodd" stroke="none"/>
    <path d="M-10.15 117.9 L-12.5 119.4 -12.5 109.3 -10.15 108.9 -10.15 117.9" fill="#2c0000" fill-rule="evenodd" stroke="none"/>
    <path d="M-10.65 116.9 L-12.0 117.75 -12.0 110.2 -10.65 110.0 -10.65 116.9" fill="#780000" fill-rule="evenodd" stroke="none"/>
    <path d="M-9.65 61.95 L-9.65 72.85 -13.0 72.25 -13.0 59.8 -9.65 61.95" fill="#1e0701" fill-rule="evenodd" stroke="none"/>
    <path d="M-10.15 62.75 L-10.15 71.75 -12.5 71.3 -12.5 61.2 -10.15 62.75" fill="#2c0000" fill-rule="evenodd" stroke="none"/>
    <path d="M-10.65 63.75 L-10.65 70.65 -12.0 70.4 -12.0 62.85 -10.65 63.75" fill="#780000" fill-rule="evenodd" stroke="none"/>
    <path d="M253.6 58.1 L259.2 55.0 259.2 58.7 251.2 64.5 253.6 58.1" fill="#29292b" fill-rule="evenodd" stroke="none"/>
    <path d="M253.6 122.4 L251.2 116.4 259.2 121.25 259.2 124.95 253.6 122.4" fill="#29292b" fill-rule="evenodd" stroke="none"/>
    <path d="M253.75 61.1 L256.65 59.35 Q257.7 58.7 258.45 59.1 259.2 59.5 259.2 60.75 L259.2 119.65 Q259.2 120.9 258.45 121.35 257.7 121.8 256.6 121.15 L253.8 119.55 Q252.75 118.9 252.0 117.6 251.2 116.3 251.2 115.05 L251.2 65.65 Q251.2 64.4 251.95 63.1 252.7 61.75 253.75 61.1" fill="#191919" fill-rule="evenodd" stroke="none"/>
    <path d="M259.2 57.75 L259.2 122.65 258.45 122.25 258.45 58.15 259.2 57.75" fill="#595657" fill-rule="evenodd" stroke="none"/>
    <path d="M253.85 61.05 L253.85 119.55 253.3 119.15 253.3 61.4 253.85 61.05" fill="#474647" fill-rule="evenodd" stroke="none"/>
    <path d="M254.4 60.7 L254.4 119.9 253.85 119.45 253.85 61.05 254.4 60.7" fill="#1e1d1f" fill-rule="evenodd" stroke="none"/>
    <path d="M252.45 74.65 L259.0 73.45 259.0 107.4 252.45 106.2 244.9 96.6 244.9 84.25 252.45 74.65" fill="url(#gradient1)" fill-rule="evenodd" stroke="none"/>
    <path d="M259.0 73.45 L252.45 74.65 244.9 84.25 244.9 96.6 252.45 106.2 259.0 107.4 259.0 73.45 M250.65 75.15 L250.7 75.15 251.7 74.0 251.9 73.7 260.0 72.25 260.0 108.65 251.9 107.1 243.9 96.95 243.9 83.9 250.65 75.15" fill="#1a1a1c" fill-rule="evenodd" stroke="none"/>
    <path d="M259.0 73.45 L259.0 107.4 256.2 106.9 256.2 73.95 259.0 73.45" fill="#484949" fill-rule="evenodd" stroke="none"/>
    <path d="M254.5 118.65 L254.5 107.75 257.85 108.35 257.85 120.8 254.5 118.65" fill="#000701" fill-rule="evenodd" stroke="none"/>
    <path d="M255.0 117.9 L255.0 108.9 257.4 109.3 257.4 119.4 255.0 117.9" fill="#2c0000" fill-rule="evenodd" stroke="none"/>
    <path d="M255.5 116.9 L255.5 110.0 256.85 110.2 256.85 117.75 255.5 116.9" fill="#780000" fill-rule="evenodd" stroke="none"/>
    <path d="M254.5 61.95 L257.85 59.8 257.85 72.25 254.5 72.85 254.5 61.95" fill="#1e0701" fill-rule="evenodd" stroke="none"/>
    <path d="M255.0 62.75 L257.4 61.2 257.4 71.3 255.0 71.75 255.0 62.75" fill="#2c0000" fill-rule="evenodd" stroke="none"/>
    <path d="M255.5 63.75 L256.85 62.85 256.85 70.4 255.5 70.65 255.5 63.75" fill="#780000" fill-rule="evenodd" stroke="none"/>
    <path d="M87.35 284.05 L89.7 283.2 Q91.8 282.5 94.85 281.95 L100.1 281.5 143.5 281.5 148.8 282.1 Q151.8 282.75 153.9 283.65 L154.0 283.7 Q155.75 284.45 158.35 285.0 L162.85 285.55 248.05 285.55 Q249.3 285.55 250.15 284.6 251.05 283.7 251.05 282.4 L251.05 229.45 Q251.05 228.15 250.15 227.25 249.3 226.35 248.05 226.35 L-1.75 226.35 Q-3.0 226.35 -3.9 227.25 -4.75 228.15 -4.75 229.45 L-4.75 282.4 Q-4.75 283.7 -3.9 284.6 -3.0 285.55 -1.75 285.55 L78.2 285.55 82.85 285.1 87.35 284.05 M87.95 286.0 L83.15 287.15 78.2 287.6 -1.75 287.6 Q-3.8 287.6 -5.3 286.1 -6.75 284.55 -6.75 282.4 L-6.75 229.45 Q-6.75 227.3 -5.3 225.75 -3.8 224.25 -1.75 224.25 L248.05 224.25 Q250.1 224.25 251.6 225.75 253.05 227.3 253.05 229.45 L253.05 282.4 Q253.05 284.55 251.6 286.1 250.1 287.6 248.05 287.6 L162.85 287.6 157.95 287.05 Q155.1 286.45 153.25 285.65 L153.1 285.6 Q151.25 284.75 148.4 284.15 L143.5 283.55 100.1 283.55 95.15 284.05 Q92.3 284.5 90.35 285.15 L87.95 286.0" fill="#353434" fill-rule="evenodd" stroke="none"/>
    <path d="M87.35 284.05 L82.85 285.1 78.2 285.55 -1.75 285.55 Q-3.0 285.55 -3.9 284.6 -4.75 283.7 -4.75 282.4 L-4.75 229.45 Q-4.75 228.15 -3.9 227.25 -3.0 226.35 -1.75 226.35 L248.05 226.35 Q249.3 226.35 250.15 227.25 251.05 228.15 251.05 229.45 L251.05 282.4 Q251.05 283.7 250.15 284.6 249.3 285.55 248.05 285.55 L162.85 285.55 158.35 285.0 Q155.75 284.45 154.0 283.7 L153.9 283.65 Q151.8 282.75 148.8 282.1 L143.5 281.5 100.1 281.5 94.85 281.95 Q91.8 282.5 89.7 283.2 L87.35 284.05" fill="#0f0f0f" fill-rule="evenodd" stroke="none"/>
  </g>
  <defs>
    <linearGradient gradientTransform="matrix(-0.0086, 0.0, 0.0, 0.0086, -7.1, 90.4)" gradientUnits="userSpaceOnUse" id="gradient0" spreadMethod="pad" x1="-819.2" x2="819.2">
      <stop offset="0.0" stop-color="#1d1e1f"/>
      <stop offset="1.0" stop-color="#242424"/>
    </linearGradient>
    <linearGradient gradientTransform="matrix(-0.0086, 0.0, 0.0, -0.0086, 251.95, 90.4)" gradientUnits="userSpaceOnUse" id="gradient1" spreadMethod="pad" x1="-819.2" x2="819.2">
      <stop offset="0.0" stop-color="#1d1e1f"/>
      <stop offset="1.0" stop-color="#242424"/>
    </linearGradient>
  </defs>
</svg>
