<?xml version="1.0" encoding="UTF-8" standalone="no"?>
<svg xmlns:ffdec="https://www.free-decompiler.com/flash" xmlns:xlink="http://www.w3.org/1999/xlink" ffdec:objectType="shape" height="8.0px" width="69.95px" xmlns="http://www.w3.org/2000/svg">
  <g transform="matrix(1.0, 0.0, 0.0, 1.0, -386.9, -351.25)">
    <path d="M396.4 351.25 L390.6 359.25 386.9 359.25 390.0 353.6 396.4 351.25" fill="#29292b" fill-rule="evenodd" stroke="none"/>
    <path d="M448.3 351.25 L454.3 353.6 456.85 359.25 453.15 359.25 448.3 351.25" fill="#29292b" fill-rule="evenodd" stroke="none"/>
    <path d="M393.0 353.8 Q393.65 352.75 395.0 352.0 396.3 351.25 397.55 351.25 L446.95 351.25 Q448.2 351.25 449.5 352.0 450.8 352.75 451.45 353.85 L453.05 356.65 Q453.7 357.7 453.25 358.5 452.85 359.25 451.6 359.25 L392.65 359.25 Q391.4 359.25 391.0 358.5 390.6 357.75 391.25 356.65 L393.0 353.8" fill="#191919" fill-rule="evenodd" stroke="none"/>
    <path d="M389.65 359.25 L390.05 358.5 454.15 358.5 454.6 359.25 389.65 359.25" fill="#595657" fill-rule="evenodd" stroke="none"/>
    <path d="M392.95 353.85 L393.35 353.35 451.1 353.35 451.45 353.85 392.95 353.85" fill="#474647" fill-rule="evenodd" stroke="none"/>
    <path d="M392.6 354.4 L392.95 353.9 451.4 353.9 451.8 354.4 392.6 354.4" fill="#1e1d1f" fill-rule="evenodd" stroke="none"/>
    <path d="M405.85 356.2 L438.85 356.2 439.35 359.0 405.35 359.0 405.85 356.2" fill="#484949" fill-rule="evenodd" stroke="none"/>
    <path d="M440.25 357.9 L439.65 354.55 450.55 354.55 452.7 357.9 440.25 357.9" fill="#000030" fill-rule="evenodd" stroke="none"/>
    <path d="M441.2 357.4 L440.8 355.0 449.8 355.0 451.3 357.4 441.2 357.4" fill="#2c0000" fill-rule="evenodd" stroke="none"/>
    <path d="M442.15 356.9 L441.9 355.55 448.8 355.55 449.65 356.9 442.15 356.9" fill="#780000" fill-rule="evenodd" stroke="none"/>
    <path d="M393.85 354.55 L404.75 354.55 404.15 357.9 391.7 357.9 393.85 354.55" fill="#1e0701" fill-rule="evenodd" stroke="none"/>
    <path d="M393.15 357.4 L394.65 355.0 403.65 355.0 403.25 357.4 393.15 357.4" fill="#2c0000" fill-rule="evenodd" stroke="none"/>
    <path d="M395.65 355.55 L402.55 355.55 402.3 356.9 394.75 356.9 395.65 355.55" fill="#780000" fill-rule="evenodd" stroke="none"/>
  </g>
</svg>
