<?xml version="1.0" encoding="UTF-8" standalone="no"?>
<svg xmlns:ffdec="https://www.free-decompiler.com/flash" xmlns:xlink="http://www.w3.org/1999/xlink" ffdec:objectType="shape" height="42.05px" width="42.0px" xmlns="http://www.w3.org/2000/svg">
  <g transform="matrix(1.0, 0.0, 0.0, 1.0, -6.45, -7.4)">
    <path d="M6.95 48.95 L6.95 7.9 47.95 7.9 47.95 48.95 6.95 48.95" fill="#252426" fill-rule="evenodd" stroke="none"/>
    <path d="M48.45 7.4 L48.45 49.45 6.45 49.45 6.45 7.4 48.45 7.4 M47.45 8.4 L7.45 8.4 7.45 48.45 47.45 48.45 47.45 8.4" fill="#191919" fill-rule="evenodd" stroke="none"/>
    <path d="M8.7 47.45 L8.1 46.85 12.05 42.9 12.65 43.5 8.7 47.45" fill="#40383d" fill-rule="evenodd" stroke="none"/>
    <path d="M8.7 47.45 L8.1 46.85 12.05 42.9 12.65 43.5 8.7 47.45 Z" fill="none" stroke="#30272b" stroke-linecap="butt" stroke-linejoin="miter-clip" stroke-miterlimit="4.0" stroke-width="1.0"/>
    <path d="M12.35 43.5 L12.35 13.35 42.5 13.35 42.5 43.5 12.35 43.5" fill="#333233" fill-rule="evenodd" stroke="none"/>
    <path d="M9.15 37.15 L6.45 39.15 6.45 18.25 9.15 20.25 9.15 37.15" fill="#0f120f" fill-rule="evenodd" stroke="none"/>
    <path d="M45.7 37.15 L45.7 20.25 48.45 18.25 48.45 39.15 45.7 37.15" fill="#0f120f" fill-rule="evenodd" stroke="none"/>
    <path d="M46.5 47.45 L42.55 43.5 43.15 42.9 47.05 46.85 46.5 47.45" fill="#403b3d" fill-rule="evenodd" stroke="none"/>
    <path d="M46.5 47.45 L47.05 46.85 43.15 42.9 42.55 43.5 46.5 47.45 Z" fill="none" stroke="#302a2b" stroke-linecap="butt" stroke-linejoin="miter-clip" stroke-miterlimit="4.0" stroke-width="1.0"/>
    <path d="M8.7 9.45 L12.65 13.35 12.05 13.95 8.1 10.0 8.7 9.45" fill="#403b3d" fill-rule="evenodd" stroke="none"/>
    <path d="M8.7 9.45 L8.1 10.0 12.05 13.95 12.65 13.35 8.7 9.45 Z" fill="none" stroke="#302a2b" stroke-linecap="butt" stroke-linejoin="miter-clip" stroke-miterlimit="4.0" stroke-width="1.0"/>
    <path d="M46.5 9.45 L47.05 10.0 43.15 13.95 42.55 13.35 46.5 9.45" fill="#403b3d" fill-rule="evenodd" stroke="none"/>
    <path d="M46.5 9.45 L47.05 10.0 43.15 13.95 42.55 13.35 46.5 9.45 Z" fill="none" stroke="#302a2b" stroke-linecap="butt" stroke-linejoin="miter-clip" stroke-miterlimit="4.0" stroke-width="1.0"/>
    <path d="M20.6 35.0 L33.4 22.15 34.4 23.15 21.6 36.0 20.6 35.0" fill="#232323" fill-rule="evenodd" stroke="none"/>
    <path d="M18.35 28.65 L17.35 27.65 26.1 18.9 27.1 19.9 18.35 28.65" fill="#232323" fill-rule="evenodd" stroke="none"/>
    <path d="M29.35 39.65 L28.35 38.65 37.05 29.9 38.05 30.9 29.35 39.65" fill="#232323" fill-rule="evenodd" stroke="none"/>
  </g>
</svg>
