<?xml version="1.0" encoding="UTF-8" standalone="no"?>
<svg xmlns:ffdec="https://www.free-decompiler.com/flash" xmlns:xlink="http://www.w3.org/1999/xlink" ffdec:objectType="shape" height="53.0px" width="53.05px" xmlns="http://www.w3.org/2000/svg">
  <g transform="matrix(1.0, 0.0, 0.0, 1.0, -1.5, -2.1)">
    <path d="M3.25 5.45 L3.25 10.25 1.5 10.25 1.5 4.25 3.65 2.1 9.55 2.1 9.55 3.75 4.9 3.75 3.25 5.45" fill="#0091f4" fill-rule="evenodd" stroke="none"/>
    <path d="M46.5 2.1 L52.4 2.1 54.55 4.25 54.55 10.25 52.8 10.25 52.8 5.45 51.15 3.75 46.5 3.75 46.5 2.1" fill="#0091f4" fill-rule="evenodd" stroke="none"/>
    <path d="M3.25 51.75 L4.9 53.4 9.55 53.4 9.55 55.1 3.65 55.1 1.5 52.9 1.5 46.95 3.25 46.95 3.25 51.75" fill="#0091f4" fill-rule="evenodd" stroke="none"/>
    <path d="M52.8 51.75 L52.8 46.95 54.55 46.95 54.55 52.9 52.4 55.1 46.5 55.1 46.5 53.4 51.15 53.4 52.8 51.75" fill="#0091f4" fill-rule="evenodd" stroke="none"/>
  </g>
</svg>
