<?xml version="1.0" encoding="UTF-8" standalone="no"?>
<svg xmlns:ffdec="https://www.free-decompiler.com/flash" xmlns:xlink="http://www.w3.org/1999/xlink" ffdec:objectType="shape" height="22.0px" width="116.7px" xmlns="http://www.w3.org/2000/svg">
  <g transform="matrix(1.0, 0.0, 0.0, 1.0, 0.0, -0.2)">
    <path d="M113.6 15.0 L107.2 17.35 113.0 9.35 116.7 9.35 113.6 15.0" fill="#29292b" fill-rule="evenodd" stroke="none"/>
    <path d="M2.55 15.0 L0.0 9.35 3.7 9.35 8.55 17.35 2.55 15.0" fill="#29292b" fill-rule="evenodd" stroke="none"/>
    <path d="M110.6 14.8 Q109.95 15.85 108.6 16.6 107.25 17.35 106.0 17.35 L9.9 17.35 Q8.65 17.35 7.35 16.6 6.0 15.85 5.4 14.75 L3.75 11.95 Q3.15 10.85 3.6 10.1 4.0 9.35 5.25 9.35 L110.9 9.35 Q112.15 9.35 112.55 10.1 113.0 10.85 112.35 11.9 L110.6 14.8" fill="#191919" fill-rule="evenodd" stroke="none"/>
    <path d="M113.9 9.35 L113.55 10.1 2.7 10.1 2.25 9.35 113.9 9.35" fill="#595657" fill-rule="evenodd" stroke="none"/>
    <path d="M110.65 14.75 L110.25 15.25 5.75 15.25 5.4 14.75 110.65 14.75" fill="#474647" fill-rule="evenodd" stroke="none"/>
    <path d="M111.0 14.2 L110.65 14.7 5.45 14.7 5.05 14.2 111.0 14.2" fill="#1e1d1f" fill-rule="evenodd" stroke="none"/>
    <path d="M18.0 12.4 L17.5 9.55 98.25 9.55 97.75 12.4 18.0 12.4" fill="#484949" fill-rule="evenodd" stroke="none"/>
    <path d="M6.25 14.05 L4.1 10.7 16.55 10.7 17.15 14.05 6.25 14.05" fill="#000701" fill-rule="evenodd" stroke="none"/>
    <path d="M7.05 13.55 L5.55 11.2 15.65 11.2 16.05 13.55 7.05 13.55" fill="#2c0000" fill-rule="evenodd" stroke="none"/>
    <path d="M109.7 14.05 L98.8 14.05 99.4 10.7 111.85 10.7 109.7 14.05" fill="#000701" fill-rule="evenodd" stroke="none"/>
    <path d="M108.95 13.55 L99.95 13.55 100.35 11.2 110.45 11.2 108.95 13.55" fill="#2c0000" fill-rule="evenodd" stroke="none"/>
    <path d="M102.25 2.45 Q102.95 3.75 102.1 5.3 L95.0 18.05 Q94.3 19.35 92.75 20.3 91.2 21.2 89.65 21.2 L27.0 21.2 Q25.5 21.2 23.95 20.3 22.4 19.35 21.7 18.05 L14.6 5.3 Q13.75 3.75 14.45 2.45 15.25 1.2 17.0 1.2 L99.65 1.2 Q101.45 1.2 102.25 2.45" fill="url(#gradient0)" fill-rule="evenodd" stroke="none"/>
    <path d="M99.65 0.2 Q102.1 0.2 103.1 1.95 104.15 3.7 102.95 5.75 L95.9 18.5 Q95.0 20.1 93.25 21.15 91.45 22.2 89.65 22.2 L27.0 22.2 Q25.25 22.2 23.45 21.15 21.65 20.05 20.8 18.5 L13.7 5.75 Q12.6 3.65 13.6 1.95 14.6 0.2 17.0 0.2 L99.65 0.2 M101.2 4.8 Q101.8 3.7 101.35 2.95 100.9 2.2 99.65 2.2 L17.0 2.2 Q15.75 2.2 15.3 2.95 14.85 3.7 15.45 4.8 L22.55 17.55 Q23.15 18.65 24.45 19.4 25.75 20.2 27.0 20.2 L89.65 20.2 Q90.9 20.2 92.2 19.4 93.55 18.65 94.15 17.55 L101.2 4.8" fill="#3a3a3a" fill-rule="evenodd" stroke="none"/>
  </g>
  <defs>
    <linearGradient gradientTransform="matrix(0.054, 0.0, 0.0, -0.054, 58.35, 11.2)" gradientUnits="userSpaceOnUse" id="gradient0" spreadMethod="pad" x1="-819.2" x2="819.2">
      <stop offset="0.0" stop-color="#0b001c"/>
      <stop offset="0.11372549019607843" stop-color="#070733"/>
      <stop offset="0.24705882352941178" stop-color="#030d47"/>
      <stop offset="0.3843137254901961" stop-color="#011153"/>
      <stop offset="0.5176470588235295" stop-color="#001257"/>
      <stop offset="0.6627450980392157" stop-color="#011154"/>
      <stop offset="0.7764705882352941" stop-color="#020e4a"/>
      <stop offset="0.8823529411764706" stop-color="#060939"/>
      <stop offset="0.9803921568627451" stop-color="#0a0222"/>
      <stop offset="1.0" stop-color="#0b001c"/>
    </linearGradient>
  </defs>
</svg>
