<?xml version="1.0" encoding="UTF-8" standalone="no"?>
<svg xmlns:ffdec="https://www.free-decompiler.com/flash" xmlns:xlink="http://www.w3.org/1999/xlink" ffdec:objectType="shape" height="19.8px" width="116.7px" xmlns="http://www.w3.org/2000/svg">
  <g transform="matrix(1.0, 0.0, 0.0, 1.0, 0.0, -1.1)">
    <path d="M113.6 15.0 L107.2 17.35 113.0 9.35 116.7 9.35 113.6 15.0" fill="#29292b" fill-rule="evenodd" stroke="none"/>
    <path d="M2.55 15.0 L0.0 9.35 3.7 9.35 8.55 17.35 2.55 15.0" fill="#29292b" fill-rule="evenodd" stroke="none"/>
    <path d="M110.6 14.8 Q109.95 15.85 108.6 16.6 107.25 17.35 106.0 17.35 L9.9 17.35 Q8.65 17.35 7.35 16.6 6.0 15.85 5.4 14.75 L3.75 11.95 Q3.15 10.85 3.6 10.1 4.0 9.35 5.25 9.35 L110.9 9.35 Q112.15 9.35 112.55 10.1 113.0 10.85 112.35 11.9 L110.6 14.8" fill="#191919" fill-rule="evenodd" stroke="none"/>
    <path d="M113.9 9.35 L113.55 10.1 2.7 10.1 2.25 9.35 113.9 9.35" fill="#595657" fill-rule="evenodd" stroke="none"/>
    <path d="M110.65 14.75 L110.25 15.25 5.75 15.25 5.4 14.75 110.65 14.75" fill="#474647" fill-rule="evenodd" stroke="none"/>
    <path d="M111.0 14.2 L110.65 14.7 5.45 14.7 5.05 14.2 111.0 14.2" fill="#1e1d1f" fill-rule="evenodd" stroke="none"/>
    <path d="M18.0 12.4 L17.5 9.55 98.25 9.55 97.75 12.4 18.0 12.4" fill="#484949" fill-rule="evenodd" stroke="none"/>
    <path d="M6.25 14.05 L4.1 10.7 16.55 10.7 17.15 14.05 6.25 14.05" fill="#1d0802" fill-rule="evenodd" stroke="none"/>
    <path d="M7.05 13.55 L5.55 11.2 15.65 11.2 16.05 13.55 7.05 13.55" fill="#430101" fill-rule="evenodd" stroke="none"/>
    <path d="M109.7 14.05 L98.8 14.05 99.4 10.7 111.85 10.7 109.7 14.05" fill="#1e0701" fill-rule="evenodd" stroke="none"/>
    <path d="M108.95 13.55 L99.95 13.55 100.35 11.2 110.45 11.2 108.95 13.55" fill="#430101" fill-rule="evenodd" stroke="none"/>
    <path d="M97.8 3.1 Q98.4 4.3 97.65 5.7 L91.25 17.15 Q90.65 18.35 89.25 19.2 87.85 20.0 86.45 20.0 L30.05 20.0 Q28.7 20.0 27.3 19.2 25.95 18.35 25.3 17.15 L18.9 5.7 Q18.15 4.3 18.75 3.1 19.5 2.0 21.05 2.0 L95.45 2.0 Q97.05 2.0 97.8 3.1" fill="url(#gradient0)" fill-rule="evenodd" stroke="none"/>
    <path d="M96.85 5.25 Q97.4 4.25 97.0 3.55 96.6 2.9 95.45 2.9 L21.05 2.9 Q19.95 2.9 19.55 3.55 19.15 4.25 19.65 5.25 L26.05 16.7 Q26.6 17.7 27.75 18.35 28.95 19.1 30.05 19.1 L86.45 19.1 Q87.6 19.1 88.75 18.35 89.95 17.7 90.5 16.7 L96.85 5.25 M95.45 1.1 Q97.65 1.1 98.55 2.65 99.5 4.25 98.4 6.1 L92.1 17.55 Q91.25 19.0 89.7 19.95 88.05 20.9 86.45 20.9 L30.05 20.9 Q28.5 20.9 26.85 19.95 25.25 18.95 24.5 17.55 L18.1 6.1 Q17.1 4.2 18.0 2.65 18.9 1.1 21.05 1.1 L95.45 1.1" fill="#3c3c3c" fill-rule="evenodd" stroke="none"/>
  </g>
  <defs>
    <linearGradient gradientTransform="matrix(0.0486, 0.0, 0.0, -0.0486, 58.3, 11.0)" gradientUnits="userSpaceOnUse" id="gradient0" spreadMethod="pad" x1="-819.2" x2="819.2">
      <stop offset="0.0" stop-color="#1c015c"/>
      <stop offset="0.11372549019607843" stop-color="#121376"/>
      <stop offset="0.49019607843137253" stop-color="#0202d2"/>
      <stop offset="0.8823529411764706" stop-color="#0f1c8a"/>
      <stop offset="1.0" stop-color="#21016d"/>
    </linearGradient>
  </defs>
</svg>
