<?xml version="1.0" encoding="UTF-8" standalone="no"?>
<svg xmlns:ffdec="https://www.free-decompiler.com/flash" xmlns:xlink="http://www.w3.org/1999/xlink" ffdec:objectType="shape" height="22.0px" width="116.7px" xmlns="http://www.w3.org/2000/svg">
  <g transform="matrix(1.0, 0.0, 0.0, 1.0, 0.0, 0.0)">
    <path d="M113.6 15.0 L107.2 17.35 113.0 9.35 116.7 9.35 113.6 15.0" fill="#29292b" fill-rule="evenodd" stroke="none"/>
    <path d="M2.55 15.0 L0.0 9.35 3.7 9.35 8.55 17.35 2.55 15.0" fill="#29292b" fill-rule="evenodd" stroke="none"/>
    <path d="M5.25 9.35 L110.9 9.35 Q112.15 9.35 112.55 10.1 113.0 10.85 112.35 11.9 L110.6 14.8 Q109.95 15.85 108.6 16.6 107.25 17.35 106.0 17.35 L9.9 17.35 Q8.65 17.35 7.35 16.6 6.0 15.85 5.4 14.75 L3.75 11.95 Q3.15 10.85 3.6 10.1 4.0 9.35 5.25 9.35" fill="#191919" fill-rule="evenodd" stroke="none"/>
    <path d="M2.7 10.1 L2.25 9.35 113.9 9.35 113.55 10.1 2.7 10.1" fill="#595657" fill-rule="evenodd" stroke="none"/>
    <path d="M5.75 15.25 L5.4 14.75 110.65 14.75 110.25 15.25 5.75 15.25" fill="#474647" fill-rule="evenodd" stroke="none"/>
    <path d="M5.45 14.7 L5.05 14.2 111.0 14.2 110.65 14.7 5.45 14.7" fill="#1e1d1f" fill-rule="evenodd" stroke="none"/>
    <path d="M18.0 12.4 L17.5 9.55 98.25 9.55 97.75 12.4 18.0 12.4" fill="#484949" fill-rule="evenodd" stroke="none"/>
    <path d="M6.25 14.05 L4.1 10.7 16.55 10.7 17.15 14.05 6.25 14.05" fill="#000701" fill-rule="evenodd" stroke="none"/>
    <path d="M7.05 13.55 L5.55 11.2 15.65 11.2 16.05 13.55 7.05 13.55" fill="#660000" fill-rule="evenodd" stroke="none"/>
    <path d="M8.05 13.05 L7.15 11.7 14.7 11.7 14.95 13.05 8.05 13.05" fill="#ff7000" fill-rule="evenodd" stroke="none"/>
    <path d="M109.7 14.05 L98.8 14.05 99.4 10.7 111.85 10.7 109.7 14.05" fill="#1e0701" fill-rule="evenodd" stroke="none"/>
    <path d="M108.95 13.55 L99.95 13.55 100.35 11.2 110.45 11.2 108.95 13.55" fill="#660000" fill-rule="evenodd" stroke="none"/>
    <path d="M107.95 13.05 L101.05 13.05 101.3 11.7 108.8 11.7 107.95 13.05" fill="#ff7000" fill-rule="evenodd" stroke="none"/>
    <path d="M102.25 2.25 Q102.95 3.55 102.1 5.1 L95.0 17.85 Q94.3 19.15 92.75 20.1 91.2 21.0 89.65 21.0 L27.0 21.0 Q25.5 21.0 23.95 20.1 22.4 19.15 21.7 17.85 L14.6 5.1 Q13.75 3.55 14.45 2.25 15.25 1.0 17.0 1.0 L99.65 1.0 Q101.45 1.0 102.25 2.25" fill="url(#gradient0)" fill-rule="evenodd" stroke="none"/>
    <path d="M101.2 4.6 Q101.8 3.5 101.35 2.75 100.9 2.0 99.65 2.0 L17.0 2.0 Q15.75 2.0 15.3 2.75 14.85 3.5 15.45 4.6 L22.55 17.35 Q23.15 18.45 24.45 19.2 25.75 20.0 27.0 20.0 L89.65 20.0 Q90.9 20.0 92.2 19.2 93.55 18.45 94.15 17.35 L101.2 4.6 M99.65 0.0 Q102.1 0.0 103.1 1.75 104.15 3.5 102.95 5.55 L95.9 18.3 Q95.0 19.9 93.25 20.95 91.45 22.0 89.65 22.0 L27.0 22.0 Q25.25 22.0 23.45 20.95 21.65 19.85 20.8 18.3 L13.7 5.55 Q12.6 3.45 13.6 1.75 14.6 0.0 17.0 0.0 L99.65 0.0" fill="#585959" fill-rule="evenodd" stroke="none"/>
  </g>
  <defs>
    <linearGradient gradientTransform="matrix(0.054, 0.0, 0.0, -0.054, 58.35, 11.0)" gradientUnits="userSpaceOnUse" id="gradient0" spreadMethod="pad" x1="-819.2" x2="819.2">
      <stop offset="0.0" stop-color="#050d1f"/>
      <stop offset="0.01568627450980392" stop-color="#070d1e"/>
      <stop offset="0.5411764705882353" stop-color="#470300"/>
      <stop offset="0.9294117647058824" stop-color="#100b1a"/>
      <stop offset="1.0" stop-color="#050d1f"/>
    </linearGradient>
  </defs>
</svg>
