<?xml version="1.0" encoding="UTF-8" standalone="no"?>
<svg xmlns:ffdec="https://www.free-decompiler.com/flash" xmlns:xlink="http://www.w3.org/1999/xlink" ffdec:objectType="shape" height="57.55px" width="57.25px" xmlns="http://www.w3.org/2000/svg">
  <g transform="matrix(1.0, 0.0, 0.0, 1.0, 0.5, 0.5)">
    <path d="M56.25 16.0 L54.45 17.8 54.45 38.75 56.25 40.55 56.25 51.0 50.65 56.55 39.9 56.55 37.55 54.2 18.65 54.2 16.3 56.55 5.55 56.55 0.0 51.0 0.0 40.55 1.05 39.5 1.05 17.05 0.0 16.0 0.0 5.6 5.55 0.0 16.3 0.0 18.55 2.25 37.65 2.25 39.9 0.0 50.65 0.0 56.25 5.6 56.25 16.0" fill="#202121" fill-rule="evenodd" stroke="none"/>
    <path d="M56.25 16.0 L56.25 5.6 50.65 0.0 39.9 0.0 37.65 2.25 18.55 2.25 16.3 0.0 5.55 0.0 0.0 5.6 0.0 16.0 1.05 17.05 1.05 39.5 0.0 40.55 0.0 51.0 5.55 56.55 16.3 56.55 18.65 54.2 37.55 54.2 39.9 56.55 50.65 56.55 56.25 51.0 56.25 40.55 54.45 38.75 54.45 17.8 56.25 16.0 Z" fill="none" stroke="#111010" stroke-linecap="butt" stroke-linejoin="miter-clip" stroke-miterlimit="4.0" stroke-width="1.0"/>
    <path d="M50.35 51.0 L5.45 51.0 5.45 6.05 50.35 6.05 50.35 51.0" fill="#181819" fill-rule="evenodd" stroke="none"/>
    <path d="M50.85 5.55 L50.85 51.5 4.95 51.5 4.95 5.55 50.85 5.55 M49.85 50.5 L49.85 6.55 5.95 6.55 5.95 50.5 49.85 50.5" fill="#6d6b69" fill-rule="evenodd" stroke="none"/>
    <path d="M3.25 5.45 L3.25 10.25 1.5 10.25 1.5 4.25 3.65 2.1 9.55 2.1 9.55 3.75 4.9 3.75 3.25 5.45" fill="#757782" fill-rule="evenodd" stroke="none"/>
    <path d="M52.8 5.45 L51.15 3.75 46.5 3.75 46.5 2.1 52.4 2.1 54.55 4.25 54.55 10.25 52.8 10.25 52.8 5.45" fill="#757782" fill-rule="evenodd" stroke="none"/>
    <path d="M1.5 46.95 L3.25 46.95 3.25 51.75 4.9 53.4 9.55 53.4 9.55 55.1 3.65 55.1 1.5 52.9 1.5 46.95" fill="#757782" fill-rule="evenodd" stroke="none"/>
    <path d="M52.8 51.75 L52.8 46.95 54.55 46.95 54.55 52.9 52.4 55.1 46.5 55.1 46.5 53.4 51.15 53.4 52.8 51.75" fill="#757782" fill-rule="evenodd" stroke="none"/>
    <path d="M49.8 49.4 L48.8 50.4 44.65 46.25 45.65 45.25 49.8 49.4" fill="#666668" fill-rule="evenodd" stroke="none"/>
    <path d="M10.35 45.25 L11.35 46.25 7.15 50.4 6.2 49.4 10.35 45.25" fill="#666668" fill-rule="evenodd" stroke="none"/>
    <path d="M49.8 7.75 L45.65 11.9 44.65 10.9 48.8 6.75 49.8 7.75" fill="#666668" fill-rule="evenodd" stroke="none"/>
    <path d="M10.35 11.9 L6.2 7.75 7.15 6.75 11.35 10.9 10.35 11.9" fill="#666668" fill-rule="evenodd" stroke="none"/>
    <path d="M47.2 47.8 L32.9 47.8 30.25 46.8 25.35 46.8 22.65 47.8 8.9 47.8 8.9 33.35 9.9 30.6 9.9 25.85 8.9 23.1 8.9 9.45 22.65 9.45 25.35 10.45 30.25 10.45 32.9 9.45 47.2 9.45 47.2 23.2 46.2 25.9 46.2 30.7 47.2 33.45 47.2 47.8" fill="#161616" fill-rule="evenodd" stroke="none"/>
    <path d="M47.2 47.8 L32.9 47.8 30.25 46.8 25.35 46.8 22.65 47.8 8.9 47.8 8.9 33.35 9.9 30.6 9.9 25.85 8.9 23.1 8.9 9.45 22.65 9.45 25.35 10.45 30.25 10.45 32.9 9.45 47.2 9.45 47.2 23.2 46.2 25.9 46.2 30.7 47.2 33.45 47.2 47.8 Z" fill="none" stroke="#0c0c0c" stroke-linecap="butt" stroke-linejoin="miter-clip" stroke-miterlimit="4.0" stroke-width="1.0"/>
  </g>
</svg>
