<?xml version="1.0" encoding="UTF-8" standalone="no"?>
<svg xmlns:ffdec="https://www.free-decompiler.com/flash" xmlns:xlink="http://www.w3.org/1999/xlink" ffdec:objectType="shape" height="105.35px" width="105.35px" xmlns="http://www.w3.org/2000/svg">
  <g transform="matrix(1.0, 0.0, 0.0, 1.0, 0.0, 0.0)">
    <path d="M0.0 52.7 Q0.0 30.85 15.4 15.45 30.85 0.0 52.65 0.0 74.5 0.0 89.9 15.45 105.35 30.9 105.35 52.7 105.35 74.5 89.9 89.95 74.5 105.35 52.65 105.35 30.85 105.35 15.4 89.95 0.0 74.55 0.0 52.7" fill="#161719" fill-rule="evenodd" stroke="none"/>
    <path d="M35.4 11.4 Q43.45 8.05 52.25 7.95 L52.25 20.2 53.6 20.2 53.6 7.95 Q62.3 8.15 70.2 11.5 78.1 14.85 84.25 21.0 95.05 31.8 96.95 46.9 98.8 61.75 91.4 74.7 L80.95 68.4 80.25 69.6 90.7 75.9 Q87.85 80.5 84.25 84.1 77.9 90.45 69.75 93.8 61.65 97.2 52.7 97.2 43.75 97.2 35.6 93.8 27.45 90.4 21.1 84.1 17.55 80.55 14.7 75.95 L25.4 69.8 24.7 68.6 14.0 74.8 Q6.55 61.85 8.45 46.95 10.35 31.75 21.15 20.95 27.35 14.75 35.4 11.4" fill="url(#gradient0)" fill-rule="evenodd" stroke="none"/>
    <path d="M70.2 11.5 Q62.3 8.15 53.6 7.95 L53.6 20.2 52.25 20.2 52.25 7.95 Q43.45 8.05 35.4 11.4 27.35 14.75 21.15 20.95 10.35 31.75 8.45 46.95 6.55 61.85 14.0 74.8 L24.7 68.6 25.4 69.8 14.7 75.95 Q17.55 80.55 21.1 84.1 27.45 90.4 35.6 93.8 43.75 97.2 52.7 97.2 61.65 97.2 69.75 93.8 77.9 90.45 84.25 84.1 87.85 80.5 90.7 75.9 L80.25 69.6 80.95 68.4 91.4 74.7 Q98.8 61.75 96.95 46.9 95.05 31.8 84.25 21.0 78.1 14.85 70.2 11.5 M53.65 6.95 Q62.55 7.15 70.6 10.6 78.7 14.05 84.95 20.3 95.8 31.15 97.85 46.5 99.9 61.85 92.3 75.2 L91.8 76.1 91.75 76.1 91.55 76.4 Q88.95 80.8 84.95 84.85 78.45 91.3 70.15 94.75 61.8 98.2 52.7 98.2 43.55 98.2 35.2 94.75 26.9 91.25 20.4 84.8 16.75 81.05 13.85 76.5 L13.45 75.8 13.3 75.6 13.35 75.6 13.15 75.3 Q5.45 61.9 7.5 46.55 9.55 31.15 20.45 20.25 26.85 13.9 35.0 10.45 43.25 7.05 52.25 6.95 L52.6 6.95 52.6 6.9 53.25 6.9 53.25 6.95 53.65 6.95" fill="#1e1e1e" fill-rule="evenodd" stroke="none"/>
    <path d="M16.6 52.7 Q16.6 37.75 27.15 27.2 37.75 16.6 52.65 16.6 67.6 16.6 78.15 27.2 88.75 37.8 88.75 52.7 88.75 67.65 78.15 78.2 67.6 88.8 52.65 88.8 37.75 88.8 27.15 78.2 16.6 67.65 16.6 52.7" fill="#181819" fill-rule="evenodd" stroke="none"/>
    <path d="M17.1 52.7 Q17.1 67.4 27.55 77.85 37.95 88.3 52.65 88.3 67.4 88.3 77.8 77.85 88.25 67.4 88.25 52.7 88.25 37.95 77.8 27.55 67.4 17.1 52.65 17.1 37.95 17.1 27.55 27.55 17.1 37.95 17.1 52.7 M26.8 78.6 Q16.1 67.85 16.1 52.7 16.1 37.55 26.8 26.85 37.5 16.1 52.65 16.1 67.8 16.1 78.55 26.85 89.25 37.55 89.25 52.7 89.25 67.85 78.55 78.6 67.8 89.3 52.65 89.3 37.5 89.3 26.8 78.6" fill="#6d6b69" fill-rule="evenodd" stroke="none"/>
  </g>
  <defs>
    <linearGradient gradientTransform="matrix(0.0, -0.0545, -0.0545, 0.0, 52.7, 52.55)" gradientUnits="userSpaceOnUse" id="gradient0" spreadMethod="pad" x1="-819.2" x2="819.2">
      <stop offset="0.0" stop-color="#6a6a6a"/>
      <stop offset="0.403921568627451" stop-color="#242424"/>
      <stop offset="1.0" stop-color="#8c8c8c"/>
    </linearGradient>
  </defs>
</svg>
