<?xml version="1.0" encoding="UTF-8" standalone="no"?>
<svg xmlns:ffdec="https://www.free-decompiler.com/flash" xmlns:xlink="http://www.w3.org/1999/xlink" ffdec:objectType="shape" height="50.5px" width="50.45px" xmlns="http://www.w3.org/2000/svg">
  <g transform="matrix(1.0, 0.0, 0.0, 1.0, -167.35, -11.0)">
    <path d="M209.35 19.4 Q216.3 26.4 216.3 36.2 216.3 46.0 209.35 53.05 202.4 60.0 192.6 60.0 182.8 60.0 175.8 53.05 168.8 46.05 168.8 36.2 168.8 26.4 175.8 19.4 182.8 12.45 192.6 12.45 202.4 12.45 209.35 19.4" fill="#181819" fill-rule="evenodd" stroke="none"/>
    <path d="M192.6 11.0 Q203.05 11.0 210.4 18.4 217.8 25.8 217.8 36.2 217.8 46.65 210.4 54.05 203.05 61.5 192.6 61.5 182.15 61.5 174.75 54.05 167.35 46.65 167.35 36.2 167.35 25.75 174.75 18.4 182.15 11.0 192.6 11.0 M208.3 20.45 Q201.8 13.95 192.6 13.95 183.35 13.95 176.8 20.45 170.3 26.95 170.3 36.2 170.3 45.45 176.8 51.95 183.35 58.5 192.6 58.5 201.8 58.5 208.3 51.95 214.85 45.45 214.85 36.2 214.85 26.95 208.3 20.45" fill="#685e56" fill-rule="evenodd" stroke="none"/>
  </g>
</svg>
