<?xml version="1.0" encoding="UTF-8" standalone="no"?>
<svg xmlns:ffdec="https://www.free-decompiler.com/flash" xmlns:xlink="http://www.w3.org/1999/xlink" ffdec:objectType="shape" height="94.8px" width="94.8px" xmlns="http://www.w3.org/2000/svg">
  <g transform="matrix(1.0, 0.0, 0.0, 1.0, -5.25, -5.25)">
    <path d="M5.25 52.7 Q5.25 33.0 19.1 19.15 33.0 5.25 52.6 5.25 72.3 5.25 86.15 19.15 100.05 33.05 100.05 52.7 100.05 72.3 86.15 86.2 72.3 100.05 52.6 100.05 33.0 100.05 19.1 86.2 5.25 72.35 5.25 52.7" fill="#161719" fill-rule="evenodd" stroke="none"/>
    <path d="M37.1 15.5 Q44.35 12.5 52.25 12.4 L52.25 23.45 53.45 23.45 53.45 12.4 Q61.3 12.6 68.4 15.6 75.5 18.6 81.05 24.15 90.8 33.85 92.5 47.45 94.15 60.8 87.5 72.5 L78.1 66.8 77.45 67.9 86.85 73.55 Q84.3 77.7 81.05 80.95 75.35 86.65 68.0 89.65 60.7 92.75 52.65 92.75 44.6 92.75 37.25 89.65 29.95 86.6 24.2 80.95 21.05 77.75 18.45 73.6 L28.1 68.05 27.45 67.0 17.85 72.55 Q11.15 60.9 12.85 47.5 14.55 33.8 24.25 24.1 29.85 18.5 37.1 15.5" fill="url(#gradient0)" fill-rule="evenodd" stroke="none"/>
    <path d="M53.45 12.4 L53.45 23.45 52.25 23.45 52.25 12.4 Q44.35 12.5 37.1 15.5 29.85 18.5 24.25 24.1 14.55 33.8 12.85 47.5 11.15 60.9 17.85 72.55 L27.45 67.0 28.1 68.05 18.45 73.6 Q21.05 77.75 24.2 80.95 29.95 86.6 37.25 89.65 44.6 92.75 52.65 92.75 60.7 92.75 68.0 89.65 75.35 86.65 81.05 80.95 84.3 77.7 86.85 73.55 L77.45 67.9 78.1 66.8 87.5 72.5 Q94.15 60.8 92.5 47.45 90.8 33.85 81.05 24.15 75.5 18.6 68.4 15.6 61.3 12.6 53.45 12.4 M53.15 11.5 L53.5 11.5 Q61.55 11.7 68.75 14.8 76.05 17.9 81.7 23.5 91.45 33.3 93.3 47.1 95.15 60.9 88.3 72.95 L87.85 73.75 87.8 73.75 87.65 74.0 Q85.3 77.95 81.7 81.6 75.85 87.4 68.35 90.5 60.85 93.65 52.65 93.65 44.45 93.65 36.9 90.5 29.45 87.35 23.6 81.55 20.3 78.2 17.7 74.1 L17.35 73.45 17.2 73.3 17.25 73.3 17.05 73.0 Q10.15 60.95 12.0 47.15 13.85 33.3 23.65 23.45 29.4 17.75 36.75 14.65 44.15 11.6 52.25 11.5 L52.55 11.5 52.55 11.45 53.15 11.45 53.15 11.5" fill="#1e1e1e" fill-rule="evenodd" stroke="none"/>
    <path d="M20.15 52.7 Q20.15 39.2 29.65 29.75 39.2 20.2 52.6 20.2 66.05 20.2 75.55 29.75 85.1 39.25 85.1 52.7 85.1 66.15 75.55 75.65 66.05 85.15 52.6 85.15 39.2 85.15 29.65 75.65 20.15 66.15 20.15 52.7" fill="#181819" fill-rule="evenodd" stroke="none"/>
    <path d="M20.6 52.7 Q20.6 65.9 30.05 75.3 39.4 84.7 52.6 84.7 65.9 84.7 75.25 75.3 84.65 65.9 84.65 52.7 84.65 39.4 75.25 30.05 65.9 20.65 52.6 20.65 39.4 20.65 30.05 30.05 20.6 39.4 20.6 52.7 M29.35 76.0 Q19.7 66.3 19.7 52.7 19.7 39.05 29.35 29.4 39.0 19.75 52.6 19.75 66.25 19.75 75.95 29.4 85.55 39.05 85.55 52.7 85.55 66.3 75.95 76.0 66.25 85.6 52.6 85.6 39.0 85.6 29.35 76.0" fill="#6d6b69" fill-rule="evenodd" stroke="none"/>
    <path d="M82.5 52.7 Q82.5 65.0 73.75 73.8 65.0 82.5 52.65 82.5 40.3 82.5 31.55 73.8 22.8 65.05 22.8 52.7 22.8 40.3 31.55 31.55 40.3 22.8 52.65 22.8 65.0 22.8 73.75 31.55 82.5 40.35 82.5 52.7" fill="url(#gradient1)" fill-rule="evenodd" stroke="none"/>
    <path d="M82.05 52.7 Q82.05 40.55 73.4 31.9 64.8 23.25 52.65 23.25 40.5 23.25 31.9 31.9 23.25 40.55 23.25 52.7 23.25 64.85 31.9 73.45 40.5 82.05 52.65 82.05 64.8 82.05 73.4 73.45 82.05 64.85 82.05 52.7 M74.1 31.25 Q82.95 40.1 82.95 52.7 82.95 65.25 74.1 74.1 65.2 82.95 52.65 82.95 40.1 82.95 31.2 74.1 22.35 65.25 22.35 52.7 22.35 40.1 31.2 31.25 40.1 22.35 52.65 22.35 65.2 22.35 74.1 31.25" fill="#0677ff" fill-rule="evenodd" stroke="none"/>
  </g>
  <defs>
    <linearGradient gradientTransform="matrix(0.0, -0.049, -0.049, 0.0, 52.65, 52.55)" gradientUnits="userSpaceOnUse" id="gradient0" spreadMethod="pad" x1="-819.2" x2="819.2">
      <stop offset="0.0" stop-color="#6a6a6a"/>
      <stop offset="0.403921568627451" stop-color="#242424"/>
      <stop offset="1.0" stop-color="#8c8c8c"/>
    </linearGradient>
    <linearGradient gradientTransform="matrix(0.0, -0.0364, -0.0364, 0.0, 52.65, 52.7)" gradientUnits="userSpaceOnUse" id="gradient1" spreadMethod="pad" x1="-819.2" x2="819.2">
      <stop offset="0.0" stop-color="#1299f6"/>
      <stop offset="0.1803921568627451" stop-color="#297cf1"/>
      <stop offset="0.48627450980392156" stop-color="#0d69ee"/>
      <stop offset="0.7647058823529411" stop-color="#1254ef"/>
      <stop offset="1.0" stop-color="#0845b1"/>
    </linearGradient>
  </defs>
</svg>
