<?xml version="1.0" encoding="UTF-8" standalone="no"?>
<svg xmlns:ffdec="https://www.free-decompiler.com/flash" xmlns:xlink="http://www.w3.org/1999/xlink" ffdec:objectType="shape" height="19.8px" width="81.75px" xmlns="http://www.w3.org/2000/svg">
  <g transform="matrix(1.0, 0.0, 0.0, 1.0, -4.7, -1.05)">
    <path d="M74.65 19.2 Q73.2 19.95 71.9 19.95 L9.2 19.95 Q7.65 19.95 6.65 18.9 5.6 17.85 5.6 16.35 L5.6 5.55 Q5.6 4.05 6.65 3.05 7.65 1.95 9.2 1.95 L83.1 1.95 Q84.7 1.95 85.35 3.05 85.9 4.2 85.0 5.6 L76.85 17.35 Q76.05 18.4 74.65 19.2" fill="url(#gradient0)" fill-rule="evenodd" stroke="none"/>
    <path d="M74.2 18.4 L76.1 16.85 84.2 5.05 Q84.85 4.15 84.55 3.5 84.2 2.85 83.1 2.85 L9.2 2.85 Q8.05 2.85 7.3 3.65 6.5 4.4 6.5 5.55 L6.5 16.35 Q6.5 17.45 7.3 18.25 8.05 19.05 9.2 19.05 L71.9 19.05 Q73.0 19.05 74.2 18.4 M83.1 1.05 Q85.25 1.05 86.1 2.65 86.95 4.3 85.7 6.1 L77.6 17.85 Q76.7 19.15 75.1 20.0 73.4 20.85 71.9 20.85 L9.2 20.85 Q7.3 20.85 6.0 19.55 4.7 18.2 4.7 16.35 L4.7 5.55 Q4.7 3.7 6.0 2.35 7.3 1.05 9.2 1.05 L83.1 1.05" fill="#585959" fill-rule="evenodd" stroke="none"/>
  </g>
  <defs>
    <linearGradient gradientTransform="matrix(0.0488, 0.0, 0.0, -0.0488, 45.55, 10.95)" gradientUnits="userSpaceOnUse" id="gradient0" spreadMethod="pad" x1="-819.2" x2="819.2">
      <stop offset="0.0" stop-color="#050d1f"/>
      <stop offset="0.01568627450980392" stop-color="#070d1e"/>
      <stop offset="0.5411764705882353" stop-color="#470300"/>
      <stop offset="0.9294117647058824" stop-color="#100b1a"/>
      <stop offset="1.0" stop-color="#050d1f"/>
    </linearGradient>
  </defs>
</svg>
