<?xml version="1.0" encoding="UTF-8" standalone="no"?>
<svg xmlns:ffdec="https://www.free-decompiler.com/flash" xmlns:xlink="http://www.w3.org/1999/xlink" ffdec:objectType="shape" height="57.25px" width="53.05px" xmlns="http://www.w3.org/2000/svg">
  <g transform="matrix(1.0, 0.0, 0.0, 1.0, -136.15, -34.05)">
    <path d="M187.45 88.4 L137.1 88.4 137.1 37.0 187.45 37.0 187.45 88.4" fill="#090909" fill-rule="evenodd" stroke="none"/>
    <path d="M187.45 88.4 L137.1 88.4 137.1 37.0 187.45 37.0 187.45 88.4 Z" fill="none" stroke="#090909" stroke-linecap="round" stroke-linejoin="round" stroke-width="1.0"/>
    <path d="M171.8 89.95 L153.55 89.95 152.5 91.3 138.5 91.3 136.15 88.95 136.15 86.25 139.2 89.3 186.15 89.3 189.2 86.25 189.2 88.95 186.85 91.3 172.85 91.3 171.8 89.95" fill="url(#gradient0)" fill-rule="evenodd" stroke="none"/>
    <path d="M152.5 34.05 L153.55 35.35 171.8 35.35 172.85 34.05 186.85 34.05 189.2 36.4 189.2 39.1 186.15 36.05 139.2 36.05 136.15 39.1 136.15 36.4 138.5 34.05 152.5 34.05" fill="url(#gradient1)" fill-rule="evenodd" stroke="none"/>
  </g>
  <defs>
    <linearGradient gradientTransform="matrix(0.0, -0.0031, -0.0031, 0.0, 162.65, 88.75)" gradientUnits="userSpaceOnUse" id="gradient0" spreadMethod="pad" x1="-819.2" x2="819.2">
      <stop offset="0.00392156862745098" stop-color="#959595"/>
      <stop offset="1.0" stop-color="#000000"/>
    </linearGradient>
    <linearGradient gradientTransform="matrix(0.0, -0.0031, -0.0031, 0.0, 162.65, 36.55)" gradientUnits="userSpaceOnUse" id="gradient1" spreadMethod="pad" x1="-819.2" x2="819.2">
      <stop offset="0.0" stop-color="#000000"/>
      <stop offset="1.0" stop-color="#959595"/>
    </linearGradient>
  </defs>
</svg>
