<?xml version="1.0" encoding="UTF-8" standalone="no"?>
<svg xmlns:ffdec="https://www.free-decompiler.com/flash" xmlns:xlink="http://www.w3.org/1999/xlink" ffdec:objectType="shape" height="35.65px" width="38.65px" xmlns="http://www.w3.org/2000/svg">
  <g transform="matrix(1.0, 0.0, 0.0, 1.0, -173.15, -16.0)">
    <path d="M192.35 51.15 Q186.3 51.15 182.0 46.85 177.7 42.55 177.7 36.5 177.7 30.45 182.0 26.15 186.3 21.8 192.35 21.8 198.4 21.8 202.75 26.15 207.05 30.45 207.05 36.5 207.05 42.55 202.75 46.85 198.4 51.15 192.35 51.15" fill="url(#gradient0)" fill-rule="evenodd" stroke="none"/>
    <path d="M192.35 21.3 Q198.65 21.3 203.1 25.75 207.55 30.25 207.55 36.5 207.55 42.75 203.1 47.2 198.6 51.65 192.35 51.65 186.1 51.65 181.65 47.2 177.2 42.75 177.2 36.5 177.2 30.2 181.65 25.75 186.1 21.3 192.35 21.3 M192.35 50.65 Q198.2 50.65 202.4 46.5 206.55 42.35 206.55 36.5 206.55 30.6 202.4 26.45 198.2 22.3 192.35 22.3 186.5 22.3 182.35 26.45 178.2 30.6 178.2 36.5 178.2 42.35 182.35 46.5 186.55 50.65 192.35 50.65" fill="#aa6500" fill-rule="evenodd" stroke="none"/>
    <path d="M211.8 33.85 Q211.8 37.3 210.45 37.85 209.4 38.25 206.7 37.05 L200.95 34.35 Q197.0 32.8 193.6 32.8 190.25 32.8 185.9 34.35 L179.4 37.05 Q176.15 38.25 174.85 37.85 173.15 37.3 173.15 33.85 173.15 26.5 178.85 21.25 184.45 16.0 192.45 16.0 200.45 16.0 206.1 21.25 211.8 26.5 211.8 33.85" fill="url(#gradient1)" fill-rule="evenodd" stroke="none"/>
    <path d="M185.05 41.15 L178.65 31.25 181.6 31.25 186.1 38.35 190.4 31.25 193.0 31.25 186.85 41.15 185.05 41.15" fill="#fcde21" fill-rule="evenodd" stroke="none"/>
    <path d="M189.65 39.25 L199.8 39.25 201.25 37.0 194.3 37.0 Q192.7 37.0 192.4 36.55 192.15 36.1 193.0 34.65 L193.7 33.6 Q194.5 32.3 195.45 31.75 196.35 31.25 197.95 31.25 L204.25 31.25 Q205.8 31.25 206.1 31.75 206.4 32.1 205.95 33.0 L196.35 33.0 195.0 35.1 201.95 35.1 Q203.55 35.1 203.85 35.6 204.1 36.15 203.25 37.45 L202.4 38.8 Q201.55 40.15 200.65 40.65 L198.15 41.15 191.25 41.15 Q189.7 41.15 189.35 40.65 189.15 40.3 189.65 39.25" fill="#fcde21" fill-rule="evenodd" stroke="none"/>
  </g>
  <defs>
    <radialGradient cx="0" cy="0" gradientTransform="matrix(0.0179, 0.0, 0.0, -0.0179, 192.35, 36.5)" gradientUnits="userSpaceOnUse" id="gradient0" r="819.2" spreadMethod="pad">
      <stop offset="0.0" stop-color="#c54f00"/>
      <stop offset="0.14901960784313725" stop-color="#bf4c00"/>
      <stop offset="0.34509803921568627" stop-color="#ae4500"/>
      <stop offset="0.5725490196078431" stop-color="#923800"/>
      <stop offset="0.8156862745098039" stop-color="#6b2700"/>
      <stop offset="0.9529411764705882" stop-color="#521c00"/>
    </radialGradient>
    <linearGradient gradientTransform="matrix(0.0, -0.0134, -0.0134, 0.0, 192.45, 26.95)" gradientUnits="userSpaceOnUse" id="gradient1" spreadMethod="pad" x1="-819.2" x2="819.2">
      <stop offset="0.0" stop-color="#dbabd1" stop-opacity="0.28627452"/>
      <stop offset="0.12549019607843137" stop-color="#deadc4" stop-opacity="0.32941177"/>
      <stop offset="0.35294117647058826" stop-color="#e5b3a3" stop-opacity="0.44313726"/>
      <stop offset="0.6627450980392157" stop-color="#f1bc6e" stop-opacity="0.6313726"/>
      <stop offset="1.0" stop-color="#ffc72b" stop-opacity="0.85882354"/>
    </linearGradient>
  </defs>
</svg>
