<?xml version="1.0" encoding="UTF-8" standalone="no"?>
<svg xmlns:ffdec="https://www.free-decompiler.com/flash" xmlns:xlink="http://www.w3.org/1999/xlink" ffdec:objectType="shape" height="57.55px" width="57.25px" xmlns="http://www.w3.org/2000/svg">
  <g transform="matrix(1.0, 0.0, 0.0, 1.0, 0.5, 0.5)">
    <path d="M56.25 16.0 L54.45 17.8 54.45 38.8 56.25 40.55 56.25 51.0 50.65 56.55 39.9 56.55 37.55 54.25 18.65 54.25 16.3 56.55 5.55 56.55 0.0 51.0 0.0 40.55 1.05 39.55 1.05 17.05 0.0 16.0 0.0 5.6 5.55 0.0 16.3 0.0 18.55 2.25 37.65 2.25 39.9 0.0 50.65 0.0 56.25 5.6 56.25 16.0" fill="#191919" fill-rule="evenodd" stroke="none"/>
    <path d="M56.25 16.0 L56.25 5.6 50.65 0.0 39.9 0.0 37.65 2.25 18.55 2.25 16.3 0.0 5.55 0.0 0.0 5.6 0.0 16.0 1.05 17.05 1.05 39.55 0.0 40.55 0.0 51.0 5.55 56.55 16.3 56.55 18.65 54.25 37.55 54.25 39.9 56.55 50.65 56.55 56.25 51.0 56.25 40.55 54.45 38.8 54.45 17.8 56.25 16.0 Z" fill="none" stroke="#111010" stroke-linecap="butt" stroke-linejoin="miter-clip" stroke-miterlimit="4.0" stroke-width="1.0"/>
    <path d="M4.55 6.1 L4.55 10.9 2.8 10.9 2.8 4.95 5.0 2.8 10.9 2.8 10.9 4.45 6.25 4.45 4.55 6.1" fill="#414142" fill-rule="evenodd" stroke="none"/>
    <path d="M52.15 6.1 L50.5 4.45 45.8 4.45 45.8 2.8 51.75 2.8 53.9 4.95 53.9 10.9 52.15 10.9 52.15 6.1" fill="#414142" fill-rule="evenodd" stroke="none"/>
    <path d="M4.55 50.45 L6.25 52.1 10.9 52.1 10.9 53.75 5.0 53.75 2.8 51.6 2.8 45.6 4.55 45.6 4.55 50.45" fill="#414142" fill-rule="evenodd" stroke="none"/>
    <path d="M52.15 50.45 L52.15 45.6 53.9 45.6 53.9 51.6 51.75 53.75 45.8 53.75 45.8 52.1 50.5 52.1 52.15 50.45" fill="#414142" fill-rule="evenodd" stroke="none"/>
  </g>
</svg>
