<?xml version="1.0" encoding="UTF-8" standalone="no"?>
<svg xmlns:ffdec="https://www.free-decompiler.com/flash" xmlns:xlink="http://www.w3.org/1999/xlink" ffdec:objectType="shape" height="31.7px" width="25.15px" xmlns="http://www.w3.org/2000/svg">
  <g transform="matrix(1.0, 0.0, 0.0, 1.0, 0.0, 0.0)">
    <path d="M9.15 14.85 Q9.6 13.1 8.6 11.5 7.65 9.8 8.05 8.1 10.2 8.35 11.05 11.25 L12.55 15.95 Q12.4 17.05 13.05 18.25 13.7 19.5 13.65 20.45 11.95 20.5 11.4 17.65 10.9 14.85 9.15 14.85" fill="#ffffff" fill-rule="evenodd" stroke="none"/>
    <path d="M10.3 20.45 Q11.15 20.6 11.4 21.65 L11.4 23.85 10.95 25.05 Q10.4 25.7 10.3 26.1 L5.8 26.1 Q6.15 23.3 10.3 23.85 L10.3 20.45" fill="#ffffff" fill-rule="evenodd" stroke="none"/>
    <path d="M0.2 10.35 Q-0.45 4.7 1.05 2.25 2.9 -0.75 8.05 0.25 9.3 1.75 9.15 4.75 5.85 4.65 3.85 7.8 1.15 12.0 0.2 12.6 L0.2 10.35" fill="#ffffff" fill-rule="evenodd" stroke="none"/>
    <path d="M8.05 0.25 Q12.15 0.45 15.7 3.3 L21.55 8.1 21.55 9.25 Q20.6 7.85 16.95 8.0 13.35 8.15 15.9 10.35 14.45 9.8 12.55 7.55 10.65 5.35 9.15 4.75 9.3 1.75 8.05 0.25" fill="#e7e7e7" fill-rule="evenodd" stroke="none"/>
    <path d="M20.1 12.35 L21.55 12.6 Q19.5 20.9 15.9 24.95 16.35 23.25 15.35 21.6 14.4 19.95 14.8 18.2 18.65 15.9 15.85 11.95 14.0 9.3 10.3 7.0 L8.1 7.05 Q7.05 7.25 6.9 8.1 6.25 10.25 4.05 14.2 1.95 18.0 1.3 20.45 1.75 18.4 0.9 16.4 -0.05 14.25 0.2 12.6 1.15 12.0 3.85 7.8 5.85 4.65 9.15 4.75 10.65 5.35 12.55 7.55 14.45 9.8 15.9 10.35 17.65 11.5 19.3 11.5 19.3 12.15 20.1 12.35" fill="#a1a1a1" fill-rule="evenodd" stroke="none"/>
    <path d="M9.15 15.95 L9.15 20.45 3.55 20.45 Q2.75 20.6 2.55 21.7 L2.45 23.85 1.3 23.85 1.3 20.45 Q1.95 18.0 4.05 14.2 6.25 10.25 6.9 8.1 6.75 11.3 7.15 12.95 7.6 15.25 9.15 15.95" fill="#bebebe" fill-rule="evenodd" stroke="none"/>
    <path d="M12.6 10.85 Q13.7 13.2 13.65 15.95 L12.55 15.95 11.05 11.25 Q10.2 8.35 8.05 8.1 7.65 9.8 8.6 11.5 9.6 13.1 9.15 14.85 L9.15 15.95 Q7.6 15.25 7.15 12.95 6.75 11.3 6.9 8.1 7.05 7.25 8.1 7.05 L10.3 7.0 Q12.05 9.6 12.6 10.85" fill="#ffffff" fill-rule="evenodd" stroke="none"/>
    <path d="M13.65 15.95 Q13.7 13.2 12.6 10.85 12.05 9.6 10.3 7.0 14.0 9.3 15.85 11.95 18.65 15.9 14.8 18.2 L14.15 17.15 Q13.65 16.6 13.65 15.95" fill="#bebebe" fill-rule="evenodd" stroke="none"/>
    <path d="M9.15 14.85 Q10.9 14.85 11.4 17.65 11.95 20.5 13.65 20.45 L13.65 22.7 Q13.0 22.55 12.75 22.95 L12.55 23.85 11.4 23.85 11.4 21.65 Q11.15 20.6 10.3 20.45 L10.25 18.25 Q10.05 17.25 9.15 17.1 L9.15 14.85" fill="#ffffff" fill-rule="evenodd" stroke="none"/>
    <path d="M15.9 10.35 Q13.35 8.15 16.95 8.0 20.6 7.85 21.55 9.25 21.8 10.5 21.1 11.05 L19.3 11.5 Q17.65 11.5 15.9 10.35" fill="#ffffff" fill-rule="evenodd" stroke="none"/>
    <path d="M17.05 27.2 Q19.9 26.85 20.9 22.1 22.05 16.85 23.8 15.95 L23.8 17.1 22.1 22.7 Q21.15 26.2 19.3 27.2 18.95 27.3 18.25 27.85 17.65 28.35 17.05 28.35 L17.05 27.2" fill="#cccccc" fill-rule="evenodd" stroke="none"/>
    <path d="M15.35 21.6 Q16.35 23.25 15.9 24.95 15.7 26.8 17.05 27.2 L17.05 29.45 Q15.55 30.9 10.3 30.6 10.2 29.3 13.45 26.75 16.05 24.7 13.65 22.7 L13.65 20.45 Q13.7 19.5 13.05 18.25 12.4 17.05 12.55 15.95 L13.65 15.95 Q13.65 16.6 14.15 17.15 L14.8 18.2 Q14.4 19.95 15.35 21.6" fill="#e4e4e4" fill-rule="evenodd" stroke="none"/>
    <path d="M10.3 20.45 L10.3 23.85 Q6.15 23.3 5.8 26.1 L10.3 26.1 Q10.4 25.7 10.95 25.05 L11.4 23.85 12.55 23.85 Q14.5 25.75 12.2 26.75 L8.05 28.35 4.85 25.4 Q3.25 23.4 3.55 20.45 L9.15 20.45 9.15 17.1 Q10.05 17.25 10.25 18.25 L10.3 20.45" fill="#e4e4e4" fill-rule="evenodd" stroke="none"/>
    <path d="M2.45 23.85 Q2.75 28.8 8.05 28.35 L12.2 26.75 Q14.5 25.75 12.55 23.85 L12.75 22.95 Q13.0 22.55 13.65 22.7 16.05 24.7 13.45 26.75 10.2 29.3 10.3 30.6 15.55 30.9 17.05 29.45 L17.05 28.35 Q17.65 28.35 18.25 27.85 18.95 27.3 19.3 27.2 L20.35 27.85 Q20.9 28.35 21.55 28.35 22.85 23.25 24.9 20.45 25.65 25.1 23.95 27.95 22.6 30.2 19.3 31.7 L13.65 31.7 Q8.4 31.85 5.6 30.8 2.05 29.5 1.3 26.1 L1.3 23.85 2.45 23.85" fill="#ffffff" fill-rule="evenodd" stroke="none"/>
    <path d="M23.8 17.1 Q23.8 17.7 24.5 18.65 25.05 19.45 24.9 20.45 22.85 23.25 21.55 28.35 20.9 28.35 20.35 27.85 L19.3 27.2 Q21.15 26.2 22.1 22.7 L23.8 17.1" fill="#e4e4e4" fill-rule="evenodd" stroke="none"/>
    <path d="M3.55 20.45 Q3.25 23.4 4.85 25.4 L8.05 28.35 Q2.75 28.8 2.45 23.85 L2.55 21.7 Q2.75 20.6 3.55 20.45" fill="#a1a1a1" fill-rule="evenodd" stroke="none"/>
    <path d="M23.8 15.95 Q22.05 16.85 20.9 22.1 19.9 26.85 17.05 27.2 15.7 26.8 15.9 24.95 19.5 20.9 21.55 12.6 L20.1 12.35 Q19.3 12.15 19.3 11.5 L21.1 11.05 Q21.8 10.5 21.55 9.25 22.55 9.85 23.05 11.65 L23.8 14.85 23.8 15.95" fill="#bebebe" fill-rule="evenodd" stroke="none"/>
  </g>
</svg>
