<?xml version="1.0" encoding="UTF-8" standalone="no"?>
<svg xmlns:ffdec="https://www.free-decompiler.com/flash" xmlns:xlink="http://www.w3.org/1999/xlink" ffdec:objectType="shape" height="69.4px" width="189.95px" xmlns="http://www.w3.org/2000/svg">
  <g transform="matrix(1.0, 0.0, 0.0, 1.0, 0.0, 0.0)">
    <path d="M189.45 4.0 L189.45 65.4 Q189.45 66.85 188.4 67.9 187.4 68.9 185.95 68.9 L4.0 68.9 Q2.55 68.9 1.55 67.9 0.5 66.85 0.5 65.4 L0.5 4.0 Q0.5 2.6 1.55 1.55 2.6 0.5 4.0 0.5 L185.95 0.5 Q187.4 0.5 188.4 1.55 189.45 2.6 189.45 4.0" fill="url(#gradient0)" fill-rule="evenodd" stroke="none"/>
    <path d="M185.95 0.0 Q187.6 0.0 188.8 1.2 189.95 2.35 189.95 4.0 L189.95 65.4 Q189.95 67.05 188.8 68.25 187.6 69.4 185.95 69.4 L4.0 69.4 Q2.35 69.4 1.2 68.25 0.0 67.05 0.0 65.4 L0.0 4.0 Q0.0 2.35 1.2 1.2 2.35 0.0 4.0 0.0 L185.95 0.0 M188.95 4.0 Q188.95 2.75 188.05 1.9 187.2 1.0 185.95 1.0 L4.0 1.0 Q2.75 1.0 1.9 1.9 1.0 2.75 1.0 4.0 L1.0 65.4 Q1.0 66.65 1.9 67.5 2.75 68.4 4.0 68.4 L185.95 68.4 Q187.2 68.4 188.05 67.5 188.95 66.65 188.95 65.4 L188.95 4.0" fill="#6578c5" fill-rule="evenodd" stroke="none"/>
  </g>
  <defs>
    <linearGradient gradientTransform="matrix(0.0, -0.0417, -0.0417, 0.0, 95.0, 34.7)" gradientUnits="userSpaceOnUse" id="gradient0" spreadMethod="pad" x1="-819.2" x2="819.2">
      <stop offset="0.0" stop-color="#37567b"/>
      <stop offset="0.00784313725490196" stop-color="#36557a"/>
      <stop offset="0.23529411764705882" stop-color="#2a3f60"/>
      <stop offset="0.47058823529411764" stop-color="#222f4e"/>
      <stop offset="0.7215686274509804" stop-color="#1d2644"/>
      <stop offset="1.0" stop-color="#1b2340"/>
    </linearGradient>
  </defs>
</svg>
