<?xml version="1.0" encoding="UTF-8" standalone="no"?>
<svg xmlns:ffdec="https://www.free-decompiler.com/flash" xmlns:xlink="http://www.w3.org/1999/xlink" ffdec:objectType="shape" height="57.55px" width="57.2px" xmlns="http://www.w3.org/2000/svg">
  <g transform="matrix(1.0, 0.0, 0.0, 1.0, 0.5, 0.5)">
    <path d="M56.2 16.0 L54.4 17.8 54.4 38.75 56.2 40.55 56.2 51.0 50.65 56.55 39.9 56.55 37.55 54.2 18.65 54.2 16.3 56.55 5.55 56.55 0.0 51.0 0.0 40.55 1.05 39.5 1.05 17.05 0.0 16.0 0.0 5.6 5.55 0.0 16.3 0.0 18.55 2.25 37.65 2.25 39.9 0.0 50.65 0.0 56.2 5.6 56.2 16.0" fill="#202121" fill-rule="evenodd" stroke="none"/>
    <path d="M56.2 16.0 L56.2 5.6 50.65 0.0 39.9 0.0 37.65 2.25 18.55 2.25 16.3 0.0 5.55 0.0 0.0 5.6 0.0 16.0 1.05 17.05 1.05 39.5 0.0 40.55 0.0 51.0 5.55 56.55 16.3 56.55 18.65 54.2 37.55 54.2 39.9 56.55 50.65 56.55 56.2 51.0 56.2 40.55 54.4 38.75 54.4 17.8 56.2 16.0 Z" fill="none" stroke="#111010" stroke-linecap="butt" stroke-linejoin="miter-clip" stroke-miterlimit="4.0" stroke-width="1.0"/>
    <path d="M50.35 51.0 L5.4 51.0 5.4 6.05 50.35 6.05 50.35 51.0" fill="#232323" fill-rule="evenodd" stroke="none"/>
    <path d="M49.85 50.5 L49.85 6.55 5.9 6.55 5.9 50.5 49.85 50.5 M50.85 5.55 L50.85 51.5 4.9 51.5 4.9 5.55 50.85 5.55" fill="#545453" fill-rule="evenodd" stroke="none"/>
    <path d="M49.85 49.35 L48.9 50.35 44.75 46.2 45.7 45.2 49.85 49.35" fill="#666668" fill-rule="evenodd" stroke="none"/>
    <path d="M10.4 45.2 L11.4 46.2 7.25 50.35 6.25 49.35 10.4 45.2" fill="#666668" fill-rule="evenodd" stroke="none"/>
    <path d="M49.85 7.7 L45.7 11.85 44.75 10.85 48.9 6.7 49.85 7.7" fill="#666668" fill-rule="evenodd" stroke="none"/>
    <path d="M10.4 11.85 L6.25 7.7 7.25 6.7 11.4 10.85 10.4 11.85" fill="#666668" fill-rule="evenodd" stroke="none"/>
    <path d="M47.3 9.4 L47.3 23.15 46.3 25.85 46.3 30.7 47.3 33.4 47.3 47.75 33.0 47.75 30.3 46.75 25.4 46.75 22.75 47.75 8.95 47.75 8.95 33.3 9.95 30.55 9.95 25.8 8.95 23.05 8.95 9.4 22.75 9.4 25.4 10.4 30.3 10.4 33.0 9.4 47.3 9.4" fill="#161616" fill-rule="evenodd" stroke="none"/>
    <path d="M47.3 9.4 L47.3 23.15 46.3 25.85 46.3 30.7 47.3 33.4 47.3 47.75 33.0 47.75 30.3 46.75 25.4 46.75 22.75 47.75 8.95 47.75 8.95 33.3 9.95 30.55 9.95 25.8 8.95 23.05 8.95 9.4 22.75 9.4 25.4 10.4 30.3 10.4 33.0 9.4 47.3 9.4 Z" fill="none" stroke="#0c0c0c" stroke-linecap="butt" stroke-linejoin="miter-clip" stroke-miterlimit="4.0" stroke-width="1.0"/>
    <path d="M3.25 5.45 L3.25 10.25 1.5 10.25 1.5 4.25 3.65 2.1 9.55 2.1 9.55 3.75 4.9 3.75 3.25 5.45" fill="#757782" fill-rule="evenodd" stroke="none"/>
    <path d="M52.8 5.45 L51.15 3.75 46.5 3.75 46.5 2.1 52.4 2.1 54.55 4.25 54.55 10.25 52.8 10.25 52.8 5.45" fill="#757782" fill-rule="evenodd" stroke="none"/>
    <path d="M3.25 51.75 L4.9 53.4 9.55 53.4 9.55 55.1 3.65 55.1 1.5 52.9 1.5 46.95 3.25 46.95 3.25 51.75" fill="#757782" fill-rule="evenodd" stroke="none"/>
    <path d="M52.8 51.75 L52.8 46.95 54.55 46.95 54.55 52.9 52.4 55.1 46.5 55.1 46.5 53.4 51.15 53.4 52.8 51.75" fill="#757782" fill-rule="evenodd" stroke="none"/>
  </g>
</svg>
