<?xml version="1.0" encoding="UTF-8" standalone="no"?>
<svg xmlns:ffdec="https://www.free-decompiler.com/flash" xmlns:xlink="http://www.w3.org/1999/xlink" ffdec:objectType="shape" height="37.4px" width="36.95px" xmlns="http://www.w3.org/2000/svg">
  <g transform="matrix(1.0, 0.0, 0.0, 1.0, -9.65, -9.95)">
    <path d="M11.65 9.95 L42.35 9.95 Q43.15 9.95 43.25 10.3 43.35 10.6 42.65 11.05 L11.3 30.95 10.15 31.15 Q9.65 30.85 9.65 30.05 L9.65 11.95 Q9.65 11.15 10.25 10.55 10.85 9.95 11.65 9.95" fill="url(#gradient0)" fill-rule="evenodd" stroke="none"/>
    <path d="M44.6 47.35 L13.9 47.35 Q13.1 47.35 13.0 47.05 12.9 46.7 13.6 46.3 L44.9 26.35 Q45.6 25.9 46.1 26.15 46.6 26.45 46.6 27.25 L46.6 45.35 Q46.6 46.2 46.0 46.75 45.45 47.35 44.6 47.35" fill="url(#gradient1)" fill-rule="evenodd" stroke="none"/>
  </g>
  <defs>
    <linearGradient gradientTransform="matrix(0.0052, 0.0135, 0.0112, -0.0043, 24.55, 16.25)" gradientUnits="userSpaceOnUse" id="gradient0" spreadMethod="pad" x1="-819.2" x2="819.2">
      <stop offset="0.0" stop-color="#adbdc4"/>
      <stop offset="0.0196078431372549" stop-color="#9bb4ca" stop-opacity="0.89411765"/>
      <stop offset="0.07058823529411765" stop-color="#77a0d6" stop-opacity="0.6862745"/>
      <stop offset="0.12941176470588237" stop-color="#578fe1" stop-opacity="0.49803922"/>
      <stop offset="0.19215686274509805" stop-color="#3b81eb" stop-opacity="0.34117648"/>
      <stop offset="0.26666666666666666" stop-color="#2575f2" stop-opacity="0.21568628"/>
      <stop offset="0.34901960784313724" stop-color="#146cf8" stop-opacity="0.11764706"/>
      <stop offset="0.45098039215686275" stop-color="#0966fc" stop-opacity="0.047058824"/>
      <stop offset="0.596078431372549" stop-color="#0262fe" stop-opacity="0.007843138"/>
      <stop offset="1.0" stop-color="#0061ff" stop-opacity="0.0"/>
    </linearGradient>
    <linearGradient gradientTransform="matrix(-0.0052, -0.0135, -0.0112, 0.0043, 31.7, 41.05)" gradientUnits="userSpaceOnUse" id="gradient1" spreadMethod="pad" x1="-819.2" x2="819.2">
      <stop offset="0.0" stop-color="#ab6969"/>
      <stop offset="0.043137254901960784" stop-color="#a26769" stop-opacity="0.80784315"/>
      <stop offset="0.14901960784313725" stop-color="#916569" stop-opacity="0.44313726"/>
      <stop offset="0.28627450980392155" stop-color="#866369" stop-opacity="0.1882353"/>
      <stop offset="0.4745098039215686" stop-color="#7f6169" stop-opacity="0.039215688"/>
      <stop offset="1.0" stop-color="#7d6169" stop-opacity="0.0"/>
    </linearGradient>
  </defs>
</svg>
