<?xml version="1.0" encoding="UTF-8" standalone="no"?>
<svg xmlns:ffdec="https://www.free-decompiler.com/flash" xmlns:xlink="http://www.w3.org/1999/xlink" ffdec:objectType="shape" height="105.35px" width="105.35px" xmlns="http://www.w3.org/2000/svg">
  <g transform="matrix(1.0, 0.0, 0.0, 1.0, -70.9, -37.75)">
    <path d="M70.9 90.45 Q70.9 68.6 86.3 53.2 101.75 37.75 123.55 37.75 145.4 37.75 160.8 53.2 176.25 68.65 176.25 90.45 176.25 112.25 160.8 127.7 145.4 143.1 123.55 143.1 101.75 143.1 86.3 127.7 70.9 112.3 70.9 90.45" fill="#161719" fill-rule="evenodd" stroke="none"/>
    <path d="M105.6 47.4 Q113.95 43.95 123.15 43.85 L123.15 56.65 124.55 56.65 124.55 43.85 Q133.6 44.05 141.8 47.55 150.05 51.05 156.45 57.45 167.7 68.7 169.65 84.45 171.6 99.9 163.9 113.35 L153.0 106.8 152.3 108.05 163.2 114.6 Q160.2 119.45 156.4 123.15 149.85 129.75 141.35 133.25 132.9 136.75 123.6 136.75 114.3 136.75 105.8 133.25 97.3 129.7 90.7 123.15 86.95 119.4 84.05 114.7 L95.15 108.25 94.45 107.05 83.3 113.45 Q75.55 100.0 77.5 84.45 79.5 68.65 90.75 57.4 97.25 50.9 105.6 47.4" fill="url(#gradient0)" fill-rule="evenodd" stroke="none"/>
    <path d="M141.8 47.55 Q133.6 44.05 124.55 43.85 L124.55 56.65 123.15 56.65 123.15 43.85 Q113.95 43.95 105.6 47.4 97.25 50.9 90.75 57.4 79.5 68.65 77.5 84.45 75.55 100.0 83.3 113.45 L94.45 107.05 95.15 108.25 84.05 114.7 Q86.95 119.4 90.7 123.15 97.3 129.7 105.8 133.25 114.3 136.75 123.6 136.75 132.9 136.75 141.35 133.25 149.85 129.75 156.4 123.15 160.2 119.45 163.2 114.6 L152.3 108.05 153.0 106.8 163.9 113.35 Q171.6 99.9 169.65 84.45 167.7 68.7 156.45 57.45 150.05 51.05 141.8 47.55 M124.55 42.85 Q133.8 43.05 142.2 46.65 150.6 50.2 157.15 56.75 168.45 68.05 170.6 84.05 172.7 99.95 164.8 113.85 L164.05 115.1 Q161.0 119.95 157.15 123.9 150.4 130.6 141.75 134.2 133.1 137.75 123.6 137.75 114.1 137.75 105.4 134.15 96.75 130.55 90.0 123.85 86.1 119.85 83.2 115.2 L82.45 113.95 Q74.45 100.05 76.6 84.05 78.7 68.05 90.05 56.7 96.7 50.1 105.2 46.5 113.75 42.95 123.1 42.85 L124.55 42.85" fill="#1e1e1e" fill-rule="evenodd" stroke="none"/>
    <path d="M83.05 90.45 Q83.05 73.75 94.95 61.85 106.85 49.95 123.55 49.95 140.3 49.95 152.2 61.85 164.05 73.7 164.05 90.45 164.05 107.2 152.2 119.1 140.3 130.95 123.55 130.95 106.8 130.95 94.95 119.1 83.05 107.2 83.05 90.45" fill="#181819" fill-rule="evenodd" stroke="none"/>
    <path d="M83.55 90.45 Q83.55 107.0 95.3 118.7 107.0 130.45 123.55 130.45 140.1 130.45 151.8 118.7 163.55 107.0 163.55 90.45 163.55 73.9 151.8 62.2 140.1 50.45 123.55 50.45 107.0 50.45 95.3 62.2 83.55 73.9 83.55 90.45 M94.55 119.45 Q82.55 107.45 82.55 90.45 82.55 73.45 94.55 61.45 106.55 49.45 123.55 49.45 140.55 49.45 152.55 61.45 164.55 73.45 164.55 90.45 164.55 107.45 152.55 119.45 140.55 131.45 123.55 131.45 106.55 131.45 94.55 119.45" fill="#6d6b69" fill-rule="evenodd" stroke="none"/>
  </g>
  <defs>
    <linearGradient gradientTransform="matrix(0.0, -0.0567, -0.0567, 0.0, 123.6, 90.3)" gradientUnits="userSpaceOnUse" id="gradient0" spreadMethod="pad" x1="-819.2" x2="819.2">
      <stop offset="0.0" stop-color="#6a6a6a"/>
      <stop offset="0.403921568627451" stop-color="#242424"/>
      <stop offset="1.0" stop-color="#8c8c8c"/>
    </linearGradient>
  </defs>
</svg>
