<?xml version="1.0" encoding="UTF-8" standalone="no"?>
<svg xmlns:ffdec="https://www.free-decompiler.com/flash" xmlns:xlink="http://www.w3.org/1999/xlink" ffdec:objectType="shape" height="37.45px" width="75.0px" xmlns="http://www.w3.org/2000/svg">
  <g transform="matrix(1.0, 0.0, 0.0, 1.0, 0.0, 0.0)">
    <path d="M64.0 10.95 Q74.95 21.9 75.0 37.45 L0.0 37.45 Q0.05 21.9 11.0 10.95 22.0 0.0 37.5 0.0 53.0 0.0 64.0 10.95" fill="url(#gradient0)" fill-rule="evenodd" stroke="none"/>
    <path d="M73.45 35.95 Q72.85 21.6 62.4 11.55 51.95 1.5 37.5 1.5 23.05 1.5 12.6 11.55 2.15 21.6 1.55 35.95 L73.45 35.95 M64.0 10.95 Q74.95 21.9 75.0 37.45 L0.0 37.45 Q0.05 21.9 11.0 10.95 22.0 0.0 37.5 0.0 53.0 0.0 64.0 10.95" fill="#0677ff" fill-rule="evenodd" stroke="none"/>
  </g>
  <defs>
    <linearGradient gradientTransform="matrix(0.0, -0.0228, -0.0228, 0.0, 37.5, 18.75)" gradientUnits="userSpaceOnUse" id="gradient0" spreadMethod="pad" x1="-819.2" x2="819.2">
      <stop offset="0.0" stop-color="#003f9c"/>
      <stop offset="0.1803921568627451" stop-color="#00348a"/>
      <stop offset="0.48627450980392156" stop-color="#002572"/>
      <stop offset="0.7647058823529411" stop-color="#001c63"/>
      <stop offset="1.0" stop-color="#00195e"/>
    </linearGradient>
  </defs>
</svg>
