<?xml version="1.0" encoding="UTF-8" standalone="no"?>
<svg xmlns:ffdec="https://www.free-decompiler.com/flash" xmlns:xlink="http://www.w3.org/1999/xlink" ffdec:objectType="shape" height="37.45px" width="75.05px" xmlns="http://www.w3.org/2000/svg">
  <g transform="matrix(1.0, 0.0, 0.0, 1.0, 0.0, 0.0)">
    <path d="M64.0 10.95 Q74.95 21.9 75.0 37.45 L0.0 37.45 Q0.05 21.9 11.0 10.95 22.0 0.0 37.5 0.0 53.0 0.0 64.0 10.95" fill="url(#gradient0)" fill-rule="evenodd" stroke="none"/>
    <path d="M64.05 10.95 Q75.0 21.9 75.05 37.45 L0.05 37.45 Q0.1 21.9 11.05 10.95 22.05 0.0 37.55 0.0 53.05 0.0 64.05 10.95 M73.5 35.95 Q72.9 21.6 62.45 11.55 52.0 1.5 37.55 1.5 23.1 1.5 12.7 11.55 2.25 21.6 1.6 35.95 L73.5 35.95" fill="#5a5a5a" fill-rule="evenodd" stroke="none"/>
  </g>
  <defs>
    <linearGradient gradientTransform="matrix(0.0, -0.0405, -0.0405, 0.0, 51.05, 26.55)" gradientUnits="userSpaceOnUse" id="gradient0" spreadMethod="pad" x1="-819.2" x2="819.2">
      <stop offset="0.0" stop-color="#92a0ac"/>
      <stop offset="0.1803921568627451" stop-color="#8793a4"/>
      <stop offset="0.49019607843137253" stop-color="#767c93"/>
      <stop offset="1.0" stop-color="#5a5d6f"/>
    </linearGradient>
  </defs>
</svg>
