<?xml version="1.0" encoding="UTF-8" standalone="no"?>
<svg xmlns:ffdec="https://www.free-decompiler.com/flash" xmlns:xlink="http://www.w3.org/1999/xlink" ffdec:objectType="shape" height="70.0px" width="384.95px" xmlns="http://www.w3.org/2000/svg">
  <g transform="matrix(1.0, 0.0, 0.0, 1.0, 0.0, -0.05)">
    <path d="M186.0 0.05 Q190.0 0.05 190.0 4.05 L190.0 66.05 Q190.0 70.05 186.0 70.05 L4.0 70.05 Q0.0 70.05 0.0 66.05 L0.0 4.05 Q0.0 0.05 4.0 0.05 L186.0 0.05" fill="#6578c5" fill-opacity="0.2" fill-rule="evenodd" stroke="none"/>
    <path d="M380.95 0.05 Q384.95 0.05 384.95 4.05 L384.95 66.05 Q384.95 70.05 380.95 70.05 L198.95 70.05 Q194.95 70.05 194.95 66.05 L194.95 4.05 Q194.95 0.05 198.95 0.05 L380.95 0.05" fill="#6578c5" fill-opacity="0.2" fill-rule="evenodd" stroke="none"/>
  </g>
</svg>
