<?xml version="1.0" encoding="UTF-8" standalone="no"?>
<svg xmlns:ffdec="https://www.free-decompiler.com/flash" xmlns:xlink="http://www.w3.org/1999/xlink" ffdec:objectType="shape" height="163.2px" width="262.65px" xmlns="http://www.w3.org/2000/svg">
  <g transform="matrix(1.0, 0.0, 0.0, 1.0, 0.2, 0.1)">
    <path d="M245.7 20.1 L245.55 20.45 245.2 20.6 244.85 20.45 244.7 20.1 244.85 19.75 Q245.0 19.6 245.2 19.6 L245.55 19.75 245.7 20.1 M244.9 22.05 Q244.9 21.85 245.05 21.7 245.2 21.55 245.4 21.55 245.6 21.55 245.75 21.7 L245.9 22.05 245.75 22.4 245.4 22.55 245.05 22.4 244.9 22.05 M249.6 20.2 L249.75 20.55 249.6 20.9 249.25 21.05 248.9 20.9 248.75 20.55 248.9 20.2 249.25 20.05 249.6 20.2 M252.55 21.75 Q252.7 21.6 252.9 21.6 L253.25 21.75 253.4 22.1 253.25 22.45 252.9 22.6 252.55 22.45 252.4 22.1 252.55 21.75 M256.0 24.25 Q256.15 24.1 256.35 24.1 256.55 24.1 256.7 24.25 L256.85 24.6 256.7 24.95 256.35 25.1 256.0 24.95 255.85 24.6 Q255.85 24.4 256.0 24.25 M258.75 27.15 Q258.9 27.0 259.1 27.0 259.3 27.0 259.45 27.15 L259.6 27.5 259.45 27.85 259.1 28.0 258.75 27.85 258.6 27.5 Q258.6 27.3 258.75 27.15 M260.7 30.5 Q260.85 30.35 261.05 30.35 L261.4 30.5 261.55 30.85 261.4 31.2 261.05 31.35 260.7 31.2 260.55 30.85 260.7 30.5 M258.4 30.15 L258.05 30.3 257.7 30.15 257.55 29.8 Q257.55 29.6 257.7 29.45 257.85 29.3 258.05 29.3 258.25 29.3 258.4 29.45 L258.55 29.8 258.4 30.15 M253.85 29.8 Q254.0 29.65 254.2 29.65 L254.55 29.8 254.7 30.15 254.55 30.5 254.2 30.65 253.85 30.5 253.7 30.15 253.85 29.8 M261.75 31.5 L261.9 31.85 261.75 32.2 261.4 32.35 261.05 32.2 260.9 31.85 261.05 31.5 Q261.2 31.35 261.4 31.35 L261.75 31.5 M261.45 33.25 Q261.6 33.1 261.8 33.1 262.0 33.1 262.15 33.25 L262.3 33.6 262.15 33.95 261.8 34.1 261.45 33.95 261.3 33.6 Q261.3 33.4 261.45 33.25 M243.95 25.6 Q244.1 25.45 244.3 25.45 L244.65 25.6 244.8 25.95 244.65 26.3 244.3 26.45 243.95 26.3 243.8 25.95 243.95 25.6 M244.95 29.75 L245.1 30.1 244.95 30.45 244.6 30.6 244.25 30.45 244.1 30.1 244.25 29.75 Q244.4 29.6 244.6 29.6 L244.95 29.75 M246.5 33.4 L246.65 33.05 247.0 32.9 247.35 33.05 247.5 33.25 Q247.7 33.25 247.85 33.4 L248.0 33.75 247.85 34.1 247.5 34.25 247.15 34.1 247.05 33.9 247.0 33.9 246.65 33.75 246.5 33.4 M245.15 36.8 Q245.35 36.8 245.5 36.95 L245.65 37.3 245.5 37.65 245.15 37.8 244.8 37.65 244.65 37.3 244.8 36.95 Q244.95 36.8 245.15 36.8 M245.4 34.55 L245.75 34.4 Q245.95 34.4 246.1 34.55 L246.25 34.9 246.1 35.25 245.75 35.4 245.4 35.25 245.25 34.9 245.4 34.55 M251.25 31.7 L251.4 32.05 251.25 32.4 250.9 32.55 250.55 32.4 250.4 32.05 250.55 31.7 Q250.7 31.55 250.9 31.55 L251.25 31.7 M249.6 34.8 L249.95 34.65 Q250.15 34.65 250.3 34.8 L250.45 35.15 250.3 35.5 249.95 35.65 249.6 35.5 249.45 35.15 249.6 34.8 M252.35 37.4 L252.5 37.75 252.35 38.1 252.0 38.25 251.65 38.1 251.5 37.75 Q251.5 37.55 251.65 37.4 251.8 37.25 252.0 37.25 L252.35 37.4 M251.4 39.05 Q251.55 38.9 251.75 38.9 251.95 38.9 252.1 39.05 L252.25 39.4 252.1 39.75 251.75 39.9 251.4 39.75 251.25 39.4 Q251.25 39.2 251.4 39.05 M250.05 41.05 L249.9 41.4 249.55 41.55 249.2 41.4 249.1 41.2 248.8 41.05 248.65 40.7 248.8 40.35 Q248.95 40.2 249.15 40.2 L249.5 40.35 249.65 40.55 249.9 40.7 250.05 41.05 M245.9 39.8 Q246.05 39.65 246.25 39.65 L246.6 39.8 246.75 40.15 246.6 40.5 246.55 40.55 246.65 40.65 246.8 41.0 246.65 41.35 246.3 41.5 245.95 41.35 245.8 41.0 Q245.8 40.8 245.95 40.65 L246.05 40.6 245.9 40.5 245.75 40.15 245.9 39.8 M246.45 43.1 Q246.65 43.1 246.8 43.25 L246.95 43.6 246.8 43.95 246.45 44.1 246.1 43.95 245.95 43.6 Q245.95 43.4 246.1 43.25 246.25 43.1 246.45 43.1 M245.25 47.05 L245.4 47.4 245.25 47.75 244.9 47.9 244.55 47.75 244.4 47.4 244.55 47.05 244.9 46.9 245.25 47.05 M251.55 43.7 Q251.7 43.55 251.9 43.55 252.1 43.55 252.25 43.7 L252.4 44.05 252.25 44.4 251.9 44.55 251.55 44.4 251.4 44.05 Q251.4 43.85 251.55 43.7 M252.7 48.15 Q252.7 47.95 252.85 47.8 253.0 47.65 253.2 47.65 253.4 47.65 253.55 47.8 L253.7 48.15 253.55 48.5 253.2 48.65 252.85 48.5 252.7 48.15 M261.6 37.25 Q261.75 37.1 261.95 37.1 262.15 37.1 262.3 37.25 L262.45 37.6 262.3 37.95 261.95 38.1 261.6 37.95 261.45 37.6 261.6 37.25 M259.15 42.95 L259.3 43.3 259.15 43.65 258.8 43.8 258.45 43.65 258.3 43.3 258.45 42.95 Q258.6 42.8 258.8 42.8 259.0 42.8 259.15 42.95 M261.65 41.5 L261.5 41.85 261.15 42.0 260.8 41.85 260.65 41.5 Q260.65 41.3 260.8 41.15 260.95 41.0 261.15 41.0 261.35 41.0 261.5 41.15 L261.65 41.5 M256.2 39.75 L256.35 40.1 256.2 40.45 255.85 40.6 255.5 40.45 255.35 40.1 255.5 39.75 Q255.65 39.6 255.85 39.6 L256.2 39.75 M257.2 48.25 Q257.35 48.1 257.55 48.1 L257.9 48.25 258.05 48.6 257.9 48.95 257.55 49.1 Q257.35 49.1 257.2 48.95 L257.05 48.6 257.2 48.25 M259.3 44.95 Q259.45 44.8 259.65 44.8 L260.0 44.95 260.15 45.3 260.0 45.65 259.65 45.8 Q259.45 45.8 259.3 45.65 L259.15 45.3 259.3 44.95 M255.0 50.95 L255.15 51.3 255.0 51.65 254.65 51.8 254.3 51.65 254.15 51.3 254.3 50.95 Q254.45 50.8 254.65 50.8 L255.0 50.95 M255.9 58.45 L255.55 58.6 255.2 58.45 255.05 58.1 255.2 57.75 255.55 57.6 255.9 57.75 256.05 58.1 255.9 58.45 M254.3 60.0 Q254.45 59.85 254.65 59.85 L255.0 60.0 255.15 60.35 255.0 60.7 254.65 60.85 254.3 60.7 254.15 60.35 254.3 60.0 M252.4 51.55 Q252.55 51.4 252.75 51.4 252.95 51.4 253.1 51.55 L253.25 51.9 253.1 52.25 252.75 52.4 252.4 52.25 252.25 51.9 Q252.25 51.7 252.4 51.55 M251.55 53.0 L251.4 53.35 251.05 53.5 250.7 53.35 250.55 53.0 250.7 52.65 Q250.85 52.5 251.05 52.5 L251.4 52.65 251.55 53.0 M243.6 53.6 L243.45 53.95 243.1 54.1 242.75 53.95 242.6 53.6 242.75 53.25 Q242.9 53.1 243.1 53.1 L243.45 53.25 243.6 53.6 M247.4 53.35 L247.55 53.7 247.4 54.05 247.05 54.2 Q246.85 54.2 246.7 54.05 L246.55 53.7 246.7 53.35 Q246.85 53.2 247.05 53.2 L247.4 53.35 M247.75 57.1 L248.1 57.25 248.25 57.6 248.1 57.95 247.75 58.1 247.4 57.95 247.25 57.6 247.4 57.25 Q247.55 57.1 247.75 57.1 M243.55 56.45 Q243.7 56.3 243.9 56.3 L244.25 56.45 244.4 56.8 244.25 57.15 243.9 57.3 Q243.7 57.3 243.55 57.15 L243.4 56.8 243.55 56.45 M243.95 59.9 L243.8 60.25 243.45 60.4 243.1 60.25 242.95 59.9 243.1 59.55 Q243.25 59.4 243.45 59.4 L243.8 59.55 243.95 59.9 M247.05 59.85 Q247.2 59.7 247.4 59.7 L247.75 59.85 247.9 60.2 247.75 60.55 247.4 60.7 247.05 60.55 246.9 60.2 247.05 59.85 M252.0 57.6 L252.15 57.95 252.0 58.3 251.65 58.45 251.3 58.3 251.15 57.95 251.3 57.6 Q251.45 57.45 251.65 57.45 L252.0 57.6 M250.9 59.0 Q251.05 58.85 251.25 58.85 L251.6 59.0 251.75 59.35 251.6 59.7 251.25 59.85 Q251.05 59.85 250.9 59.7 L250.75 59.35 250.9 59.0 M250.9 62.5 Q251.05 62.35 251.25 62.35 L251.6 62.5 251.75 62.85 251.6 63.2 251.25 63.35 Q251.05 63.35 250.9 63.2 L250.75 62.85 250.9 62.5 M248.15 64.85 L247.8 65.0 247.45 64.85 247.3 64.5 Q247.3 64.3 247.45 64.15 247.6 64.0 247.8 64.0 L248.15 64.15 248.3 64.5 248.15 64.85 M243.55 65.2 Q243.7 65.05 243.9 65.05 L244.25 65.2 244.4 65.55 244.25 65.9 243.9 66.05 Q243.7 66.05 243.55 65.9 L243.4 65.55 243.55 65.2 M223.25 24.35 Q223.4 24.2 223.6 24.2 L223.95 24.35 224.1 24.7 223.95 25.05 223.6 25.2 223.25 25.05 223.1 24.7 223.25 24.35 M237.5 22.6 Q237.65 22.45 237.85 22.45 L238.2 22.6 238.35 22.95 238.2 23.3 237.85 23.45 237.5 23.3 237.35 22.95 237.5 22.6 M240.95 20.7 L241.3 20.55 241.65 20.7 241.8 21.05 241.65 21.4 241.3 21.55 240.95 21.4 240.8 21.05 240.95 20.7 M208.15 23.55 L208.3 23.9 208.15 24.25 207.8 24.4 207.45 24.25 207.3 23.9 Q207.3 23.7 207.45 23.55 207.6 23.4 207.8 23.4 208.0 23.4 208.15 23.55 M213.6 23.95 Q213.75 23.8 213.95 23.8 214.15 23.8 214.3 23.95 L214.45 24.3 214.3 24.65 213.95 24.8 213.6 24.65 213.45 24.3 Q213.45 24.1 213.6 23.95 M217.4 23.75 Q217.6 23.75 217.75 23.9 L217.9 24.25 217.75 24.6 217.4 24.75 217.05 24.6 216.9 24.25 217.05 23.9 217.4 23.75 M219.5 25.2 L219.85 25.05 220.2 25.2 220.35 25.55 220.2 25.9 219.85 26.05 219.5 25.9 219.35 25.55 219.5 25.2 M210.65 25.6 Q210.8 25.45 211.0 25.45 L211.35 25.6 211.5 25.95 211.35 26.3 211.0 26.45 210.65 26.3 210.5 25.95 210.65 25.6 M211.6 27.35 Q211.75 27.2 211.95 27.2 L212.3 27.35 212.45 27.7 212.3 28.05 211.95 28.2 211.6 28.05 211.45 27.7 211.6 27.35 M205.2 26.1 L205.05 26.45 204.7 26.6 204.35 26.45 204.2 26.1 204.35 25.75 Q204.5 25.6 204.7 25.6 L205.05 25.75 205.2 26.1 M204.15 29.55 L204.3 29.9 204.15 30.25 203.8 30.4 203.45 30.25 203.3 29.9 203.45 29.55 Q203.6 29.4 203.8 29.4 L204.15 29.55 M202.75 33.4 Q202.9 33.25 203.1 33.25 L203.45 33.4 203.6 33.75 203.45 34.1 203.1 34.25 202.75 34.1 202.6 33.75 Q202.6 33.55 202.75 33.4 M206.7 47.6 Q206.85 47.45 207.05 47.45 L207.4 47.6 207.55 47.95 207.4 48.3 207.05 48.45 206.7 48.3 206.55 47.95 206.7 47.6 M209.2 44.4 L209.1 44.65 209.2 44.75 209.35 45.1 209.2 45.45 208.85 45.6 208.5 45.45 208.35 45.1 208.5 44.8 208.35 44.7 208.2 44.35 Q208.2 44.15 208.35 44.0 208.5 43.85 208.7 43.85 208.9 43.85 209.05 44.0 L209.2 44.35 209.2 44.4 M210.85 48.35 Q211.0 48.2 211.2 48.2 211.4 48.2 211.55 48.35 L211.7 48.7 211.55 49.05 211.2 49.2 210.85 49.05 210.7 48.7 Q210.7 48.5 210.85 48.35 M222.05 45.25 L222.4 45.1 222.75 45.25 222.9 45.6 222.75 45.95 222.4 46.1 222.05 45.95 221.9 45.6 222.05 45.25 M235.2 25.1 L235.35 25.45 235.2 25.8 234.85 25.95 234.5 25.8 234.35 25.45 234.5 25.1 Q234.65 24.95 234.85 24.95 L235.2 25.1 M233.6 28.35 L233.95 28.2 234.3 28.35 234.45 28.7 234.3 29.05 233.95 29.2 233.6 29.05 233.45 28.7 233.6 28.35 M236.6 31.0 Q236.75 30.85 236.95 30.85 L237.3 31.0 237.45 31.35 237.3 31.7 236.95 31.85 236.6 31.7 236.45 31.35 236.6 31.0 M237.85 34.75 Q238.0 34.6 238.2 34.6 L238.55 34.75 238.7 35.1 238.55 35.45 238.2 35.6 237.85 35.45 237.7 35.1 237.85 34.75 M241.85 33.7 Q242.05 33.7 242.2 33.85 L242.35 34.2 242.2 34.55 241.85 34.7 241.5 34.55 241.35 34.2 Q241.35 34.0 241.5 33.85 241.65 33.7 241.85 33.7 M239.15 35.95 L239.3 36.3 239.15 36.65 238.8 36.8 238.45 36.65 238.3 36.3 Q238.3 36.1 238.45 35.95 238.6 35.8 238.8 35.8 L239.15 35.95 M231.35 27.65 Q231.55 27.65 231.7 27.8 L231.85 28.0 231.9 27.9 Q232.05 27.75 232.25 27.75 L232.6 27.9 232.75 28.25 232.6 28.6 232.25 28.75 231.9 28.6 231.8 28.4 231.7 28.5 231.35 28.65 231.0 28.5 230.85 28.15 Q230.85 27.95 231.0 27.8 231.15 27.65 231.35 27.65 M228.25 29.4 L228.1 29.75 227.75 29.9 227.4 29.75 227.25 29.4 Q227.25 29.2 227.4 29.05 227.55 28.9 227.75 28.9 227.95 28.9 228.1 29.05 L228.25 29.4 M226.75 26.4 Q226.9 26.25 227.1 26.25 L227.45 26.4 227.6 26.75 227.45 27.1 227.1 27.25 Q226.9 27.25 226.75 27.1 L226.6 26.75 226.75 26.4 M231.2 34.55 Q231.35 34.4 231.55 34.4 L231.9 34.55 232.05 34.9 231.9 35.25 231.55 35.4 231.2 35.25 231.05 34.9 231.2 34.55 M232.65 38.25 Q232.8 38.1 233.0 38.1 233.2 38.1 233.35 38.25 L233.5 38.6 233.35 38.95 233.0 39.1 232.65 38.95 232.5 38.6 Q232.5 38.4 232.65 38.25 M232.65 42.45 L232.8 42.8 232.65 43.15 232.3 43.3 231.95 43.15 231.8 42.8 231.95 42.45 232.3 42.3 232.65 42.45 M227.05 39.65 L227.2 40.0 227.05 40.35 226.7 40.5 226.35 40.35 226.2 40.0 Q226.2 39.8 226.35 39.65 226.5 39.5 226.7 39.5 226.9 39.5 227.05 39.65 M226.15 43.5 L226.3 43.85 226.15 44.2 225.8 44.35 225.45 44.2 225.3 43.85 225.45 43.5 225.8 43.35 Q226.0 43.35 226.15 43.5 M238.45 39.4 L238.5 39.65 238.35 40.0 238.0 40.15 237.7 40.05 237.65 40.0 237.5 39.65 237.6 39.4 237.35 39.25 237.3 39.2 237.2 38.9 237.35 38.55 237.7 38.4 238.05 38.55 Q238.25 38.55 238.4 38.7 L238.55 39.05 238.45 39.4 M240.25 41.5 Q240.4 41.35 240.6 41.35 240.8 41.35 240.95 41.5 L241.1 41.85 240.95 42.2 240.6 42.35 240.25 42.2 240.1 41.85 Q240.1 41.65 240.25 41.5 M234.9 42.8 L235.25 42.65 Q235.45 42.65 235.6 42.8 L235.75 43.15 235.6 43.5 235.25 43.65 234.9 43.5 234.75 43.15 234.9 42.8 M242.45 45.15 L242.6 45.5 242.45 45.85 242.1 46.0 241.75 45.85 241.6 45.5 Q241.6 45.3 241.75 45.15 241.9 45.0 242.1 45.0 242.3 45.0 242.45 45.15 M241.95 49.05 L242.3 49.2 242.45 49.55 242.35 49.85 242.2 50.2 241.85 50.35 241.5 50.2 241.35 49.85 241.45 49.55 Q241.45 49.35 241.6 49.2 241.75 49.05 241.95 49.05 M183.55 14.9 Q183.7 14.75 183.9 14.75 184.1 14.75 184.25 14.9 L184.4 15.25 184.25 15.6 183.9 15.75 183.55 15.6 183.4 15.25 Q183.4 15.05 183.55 14.9 M187.25 17.65 L187.4 18.0 187.25 18.35 186.9 18.5 186.55 18.35 186.4 18.0 Q186.4 17.8 186.55 17.65 186.7 17.5 186.9 17.5 L187.25 17.65 M184.2 24.35 Q184.35 24.2 184.55 24.2 184.75 24.2 184.9 24.35 L185.05 24.7 184.9 25.05 184.55 25.2 184.2 25.05 184.05 24.7 Q184.05 24.5 184.2 24.35 M190.1 20.95 L190.25 21.3 190.1 21.65 189.75 21.8 189.4 21.65 189.25 21.3 Q189.25 21.1 189.4 20.95 189.55 20.8 189.75 20.8 189.95 20.8 190.1 20.95 M194.4 23.2 L194.25 23.55 193.9 23.7 193.65 23.65 193.3 23.75 192.95 23.6 192.8 23.25 192.95 22.9 Q193.1 22.75 193.3 22.75 L193.45 22.75 193.5 22.8 193.6 22.85 Q193.7 22.7 193.9 22.7 L194.25 22.85 194.4 23.2 M174.45 6.9 Q174.6 6.75 174.8 6.75 175.0 6.75 175.15 6.9 L175.3 7.25 175.15 7.6 174.8 7.75 174.45 7.6 174.3 7.25 174.45 6.9 M177.9 8.8 Q178.05 8.65 178.25 8.65 178.45 8.65 178.6 8.8 L178.75 9.15 178.6 9.5 178.25 9.65 177.9 9.5 177.75 9.15 Q177.75 8.95 177.9 8.8 M181.5 11.8 L181.65 12.15 181.5 12.5 181.15 12.65 180.8 12.5 180.65 12.15 180.8 11.8 Q180.95 11.65 181.15 11.65 L181.5 11.8 M168.05 3.65 L167.9 4.0 167.55 4.15 167.2 4.0 167.05 3.65 Q167.05 3.45 167.2 3.3 167.35 3.15 167.55 3.15 167.75 3.15 167.9 3.3 L168.05 3.65 M170.6 5.75 L170.95 5.6 171.3 5.75 171.45 6.1 171.3 6.45 170.95 6.6 170.6 6.45 170.45 6.1 170.6 5.75 M163.65 4.8 Q163.8 4.65 164.0 4.65 L164.35 4.8 164.5 5.15 164.35 5.5 164.0 5.65 163.65 5.5 163.5 5.15 163.65 4.8 M169.15 24.55 L169.5 24.7 169.65 25.05 169.5 25.4 169.15 25.55 168.8 25.4 168.65 25.05 168.8 24.7 Q168.95 24.55 169.15 24.55 M172.4 23.25 Q172.55 23.1 172.75 23.1 L173.1 23.25 173.25 23.6 173.1 23.95 172.75 24.1 172.4 23.95 172.25 23.6 172.4 23.25 M173.25 24.4 L173.6 24.55 173.75 24.9 173.6 25.25 173.25 25.4 172.9 25.25 172.75 24.9 Q172.75 24.7 172.9 24.55 173.05 24.4 173.25 24.4 M176.4 22.75 Q176.55 22.6 176.75 22.6 176.95 22.6 177.1 22.75 L177.25 23.1 177.1 23.45 176.75 23.6 176.4 23.45 176.25 23.1 Q176.25 22.9 176.4 22.75 M180.4 23.1 Q180.55 22.95 180.75 22.95 180.95 22.95 181.1 23.1 L181.25 23.45 181.1 23.8 180.75 23.95 180.4 23.8 180.25 23.45 Q180.25 23.25 180.4 23.1 M178.65 30.45 Q178.8 30.3 179.0 30.3 179.2 30.3 179.35 30.45 L179.5 30.8 179.35 31.15 179.0 31.3 178.65 31.15 178.5 30.8 178.65 30.45 M176.15 27.1 Q176.3 26.95 176.5 26.95 L176.85 27.1 177.0 27.45 176.85 27.8 176.5 27.95 176.15 27.8 176.0 27.45 176.15 27.1 M175.95 33.25 L176.1 33.6 175.95 33.95 175.6 34.1 175.25 33.95 175.1 33.6 175.25 33.25 175.6 33.1 175.95 33.25 M172.45 35.0 Q172.6 34.85 172.8 34.85 173.0 34.85 173.15 35.0 L173.3 35.35 173.15 35.7 172.8 35.85 172.45 35.7 172.3 35.35 Q172.3 35.15 172.45 35.0 M180.35 32.95 L180.2 33.3 179.85 33.45 Q179.65 33.45 179.5 33.3 L179.35 32.95 179.5 32.6 Q179.65 32.45 179.85 32.45 L180.2 32.6 180.35 32.95 M179.4 36.05 Q179.55 35.9 179.75 35.9 L180.1 36.05 180.25 36.4 180.1 36.75 179.75 36.9 179.4 36.75 179.25 36.4 179.4 36.05 M165.6 27.05 L165.95 26.9 Q166.15 26.9 166.3 27.05 L166.45 27.4 166.3 27.75 165.95 27.9 165.6 27.75 165.45 27.4 165.6 27.05 M163.9 30.15 L164.05 30.5 163.9 30.85 163.55 31.0 163.2 30.85 163.05 30.5 Q163.05 30.3 163.2 30.15 163.35 30.0 163.55 30.0 163.75 30.0 163.9 30.15 M162.25 34.4 L161.9 34.55 161.55 34.4 161.4 34.05 161.55 33.7 Q161.7 33.55 161.9 33.55 L162.25 33.7 162.4 34.05 162.25 34.4 M162.45 36.85 L162.3 37.2 161.95 37.35 161.6 37.2 161.45 36.85 161.6 36.5 161.95 36.35 162.3 36.5 162.45 36.85 M165.2 35.0 L164.85 34.85 164.7 34.5 Q164.7 34.3 164.85 34.15 165.0 34.0 165.2 34.0 165.4 34.0 165.55 34.15 L165.7 34.5 165.55 34.85 165.2 35.0 M169.5 33.65 L169.65 34.0 169.5 34.35 169.15 34.5 168.8 34.35 168.65 34.0 168.8 33.65 Q168.95 33.5 169.15 33.5 L169.5 33.65 M168.4 42.65 Q168.55 42.5 168.75 42.5 168.95 42.5 169.1 42.65 L169.25 43.0 169.1 43.35 168.75 43.5 168.4 43.35 168.25 43.0 Q168.25 42.8 168.4 42.65 M162.8 49.0 Q163.0 49.0 163.15 49.15 L163.3 49.5 163.15 49.85 162.8 50.0 162.45 49.85 162.3 49.5 162.45 49.15 162.8 49.0 M166.85 45.95 Q167.05 45.95 167.2 46.1 L167.35 46.45 167.2 46.8 166.85 46.95 166.5 46.8 166.35 46.45 Q166.35 46.25 166.5 46.1 166.65 45.95 166.85 45.95 M177.35 39.5 L177.0 39.65 176.65 39.5 176.5 39.15 Q176.5 38.95 176.65 38.8 176.8 38.65 177.0 38.65 177.2 38.65 177.35 38.8 L177.5 39.15 177.35 39.5 M177.9 42.3 Q178.05 42.15 178.25 42.15 178.45 42.15 178.6 42.3 L178.75 42.65 178.6 43.0 178.25 43.15 177.9 43.0 177.75 42.65 Q177.75 42.45 177.9 42.3 M176.65 37.55 L176.5 37.9 176.15 38.05 175.8 37.9 175.65 37.55 Q175.65 37.35 175.8 37.2 175.95 37.05 176.15 37.05 176.35 37.05 176.5 37.2 L176.65 37.55 M174.5 40.65 L174.85 40.8 175.0 41.15 174.85 41.5 174.5 41.65 174.15 41.5 174.0 41.15 174.15 40.8 Q174.3 40.65 174.5 40.65 M173.0 41.15 L172.85 41.5 172.5 41.65 Q172.3 41.65 172.15 41.5 L172.0 41.15 172.15 40.8 Q172.3 40.65 172.5 40.65 L172.85 40.8 173.0 41.15 M174.5 42.15 L174.85 42.3 175.0 42.65 174.85 43.0 174.5 43.15 174.15 43.0 174.0 42.65 174.15 42.3 Q174.3 42.15 174.5 42.15 M175.75 45.65 Q175.9 45.5 176.1 45.5 176.3 45.5 176.45 45.65 L176.6 46.0 176.5 46.3 176.35 46.65 176.0 46.8 175.65 46.65 175.5 46.3 175.6 46.0 Q175.6 45.8 175.75 45.65 M175.05 48.6 L175.4 48.45 Q175.6 48.45 175.75 48.6 L175.9 48.95 175.75 49.3 175.4 49.45 175.05 49.3 174.9 48.95 175.05 48.6 M178.95 48.6 Q179.1 48.45 179.3 48.45 179.5 48.45 179.65 48.6 L179.8 48.95 179.65 49.3 179.3 49.45 178.95 49.3 178.8 48.95 Q178.8 48.75 178.95 48.6 M198.35 27.75 L198.2 28.1 197.85 28.25 197.5 28.1 197.35 27.75 Q197.35 27.55 197.5 27.4 197.65 27.25 197.85 27.25 L198.2 27.4 198.35 27.75 M198.55 27.9 Q198.7 27.75 198.9 27.75 L199.25 27.9 199.4 28.25 199.25 28.6 198.9 28.75 198.55 28.6 198.4 28.25 Q198.4 28.05 198.55 27.9 M201.85 30.65 L202.2 30.8 202.35 31.15 202.2 31.5 201.85 31.65 201.5 31.5 201.35 31.15 201.5 30.8 201.85 30.65 M196.25 26.0 L196.4 26.35 196.25 26.7 195.9 26.85 195.55 26.7 195.4 26.35 Q195.4 26.15 195.55 26.0 195.7 25.85 195.9 25.85 196.1 25.85 196.25 26.0 M193.75 26.85 Q193.9 26.7 194.1 26.7 L194.45 26.85 194.6 27.2 194.45 27.55 194.1 27.7 193.75 27.55 193.6 27.2 193.75 26.85 M193.5 32.75 L193.65 33.1 193.5 33.45 193.15 33.6 192.8 33.45 192.65 33.1 192.8 32.75 Q192.95 32.6 193.15 32.6 L193.5 32.75 M193.9 36.75 Q194.05 36.6 194.25 36.6 L194.6 36.75 194.75 37.1 194.6 37.45 194.25 37.6 193.9 37.45 193.75 37.1 Q193.75 36.9 193.9 36.75 M190.25 27.65 L190.6 27.8 190.75 28.15 190.6 28.5 190.25 28.65 189.9 28.5 189.75 28.15 189.9 27.8 Q190.05 27.65 190.25 27.65 M187.65 26.5 L188.0 26.35 Q188.2 26.35 188.35 26.5 L188.5 26.85 188.35 27.2 188.0 27.35 187.65 27.2 187.5 26.85 187.65 26.5 M188.25 29.9 L188.1 30.25 187.75 30.4 187.4 30.25 187.25 29.9 187.4 29.55 187.75 29.4 188.1 29.55 188.25 29.9 M190.5 29.4 Q190.65 29.25 190.85 29.25 191.05 29.25 191.2 29.4 L191.35 29.75 191.2 30.1 190.85 30.25 190.5 30.1 190.35 29.75 Q190.35 29.55 190.5 29.4 M183.9 33.65 L184.05 34.0 183.9 34.35 183.55 34.5 183.2 34.35 183.05 34.0 183.2 33.65 183.55 33.5 183.9 33.65 M186.0 35.95 Q186.15 35.8 186.35 35.8 186.55 35.8 186.7 35.95 L186.85 36.3 186.7 36.65 186.35 36.8 186.0 36.65 185.85 36.3 186.0 35.95 M188.15 33.5 Q188.3 33.35 188.5 33.35 L188.85 33.5 189.0 33.85 188.85 34.2 188.5 34.35 188.15 34.2 188.0 33.85 188.15 33.5 M187.7 37.3 L187.85 37.65 187.7 38.0 187.35 38.15 187.0 38.0 186.85 37.65 Q186.85 37.45 187.0 37.3 187.15 37.15 187.35 37.15 L187.7 37.3 M188.15 41.25 Q188.3 41.1 188.5 41.1 L188.85 41.25 189.0 41.6 188.85 41.95 188.5 42.1 188.15 41.95 188.0 41.6 188.15 41.25 M182.9 44.65 Q183.05 44.5 183.25 44.5 L183.6 44.65 183.75 45.0 183.6 45.35 183.25 45.5 182.9 45.35 182.75 45.0 182.9 44.65 M183.5 48.75 L183.7 48.8 183.7 48.75 Q183.85 48.6 184.05 48.6 L184.4 48.75 184.55 49.1 184.4 49.45 184.05 49.6 184.0 49.6 183.9 49.6 183.85 49.6 183.5 49.75 183.15 49.6 183.0 49.25 Q183.0 49.05 183.15 48.9 183.3 48.75 183.5 48.75 M185.25 48.05 Q185.4 47.9 185.6 47.9 185.8 47.9 185.95 48.05 L186.1 48.4 185.95 48.75 185.6 48.9 185.25 48.75 185.1 48.4 Q185.1 48.2 185.25 48.05 M191.0 44.05 L191.15 43.7 191.5 43.55 191.85 43.7 192.0 44.05 191.85 44.4 191.5 44.55 191.15 44.4 191.0 44.05 M187.55 45.15 Q187.7 45.0 187.9 45.0 L188.25 45.15 188.4 45.5 188.25 45.85 187.9 46.0 187.55 45.85 187.4 45.5 187.55 45.15 M193.4 40.6 Q193.55 40.45 193.75 40.45 L194.1 40.6 194.25 40.95 194.1 41.3 193.75 41.45 193.4 41.3 193.25 40.95 193.4 40.6 M198.6 48.9 Q198.75 48.75 198.95 48.75 199.15 48.75 199.3 48.9 L199.45 49.25 199.3 49.6 198.95 49.75 198.6 49.6 198.45 49.25 198.6 48.9 M200.75 52.2 Q200.9 52.05 201.1 52.05 L201.45 52.2 201.6 52.55 201.45 52.9 201.1 53.05 200.75 52.9 200.6 52.55 200.75 52.2 M199.5 53.5 L199.15 53.35 199.0 53.0 Q199.0 52.8 199.15 52.65 199.3 52.5 199.5 52.5 L199.85 52.65 200.0 53.0 199.85 53.35 199.5 53.5 M192.65 50.8 L193.0 50.65 193.35 50.8 193.5 51.15 193.35 51.5 193.0 51.65 192.65 51.5 192.5 51.15 192.65 50.8 M196.15 52.6 Q196.3 52.45 196.5 52.45 196.7 52.45 196.85 52.6 L197.0 52.95 196.85 53.3 196.5 53.45 196.15 53.3 196.0 52.95 Q196.0 52.75 196.15 52.6 M196.35 60.0 Q196.5 59.85 196.7 59.85 196.9 59.85 197.05 60.0 L197.2 60.35 197.05 60.7 196.7 60.85 196.35 60.7 196.2 60.35 Q196.2 60.15 196.35 60.0 M198.35 56.55 L198.7 56.4 199.05 56.55 199.2 56.9 199.05 57.25 198.7 57.4 198.35 57.25 198.2 56.9 198.35 56.55 M188.25 53.3 L188.1 53.65 187.75 53.8 187.4 53.65 187.25 53.3 187.4 52.95 187.75 52.8 188.1 52.95 188.25 53.3 M186.0 51.95 Q186.15 51.8 186.35 51.8 186.55 51.8 186.7 51.95 L186.85 52.3 186.7 52.65 186.35 52.8 186.0 52.65 185.85 52.3 186.0 51.95 M183.9 55.2 Q184.05 55.05 184.25 55.05 184.45 55.05 184.6 55.2 L184.75 55.55 184.6 55.9 184.25 56.05 183.9 55.9 183.75 55.55 183.9 55.2 M182.75 56.3 L182.6 56.65 182.25 56.8 181.9 56.65 181.75 56.3 Q181.75 56.1 181.9 55.95 182.05 55.8 182.25 55.8 182.45 55.8 182.6 55.95 L182.75 56.3 M182.85 58.05 L182.7 58.4 182.35 58.55 182.0 58.4 181.85 58.05 182.0 57.7 Q182.15 57.55 182.35 57.55 L182.7 57.7 182.85 58.05 M184.15 61.45 Q184.3 61.3 184.5 61.3 184.7 61.3 184.85 61.45 L185.0 61.8 184.9 62.15 184.85 62.15 184.5 62.3 Q184.7 62.3 184.85 62.45 L185.0 62.75 185.0 62.8 184.85 63.15 184.5 63.3 184.15 63.15 184.0 62.8 184.05 62.6 184.15 62.45 Q184.3 62.3 184.5 62.3 L184.2 62.2 184.15 62.15 184.0 61.8 Q184.0 61.6 184.15 61.45 M189.8 63.85 Q189.95 63.7 190.15 63.7 L190.5 63.85 190.65 64.2 190.5 64.55 190.15 64.7 189.8 64.55 189.65 64.2 189.8 63.85 M186.9 63.25 L186.75 63.6 186.4 63.75 186.05 63.6 185.9 63.25 186.05 62.9 Q186.2 62.75 186.4 62.75 L186.75 62.9 186.9 63.25 M184.9 64.35 L184.55 64.5 184.2 64.35 184.05 64.0 Q184.05 63.8 184.2 63.65 184.35 63.5 184.55 63.5 184.75 63.5 184.9 63.65 L185.05 64.0 184.9 64.35 M184.55 67.55 Q184.7 67.4 184.9 67.4 L185.25 67.55 185.4 67.9 185.35 68.15 185.45 68.4 185.45 68.45 185.4 68.7 185.5 69.0 185.35 69.35 185.0 69.5 184.7 69.4 184.65 69.45 184.3 69.6 183.95 69.45 183.8 69.1 183.95 68.75 Q184.1 68.6 184.3 68.6 L184.5 68.65 184.5 68.6 184.45 68.45 184.55 68.2 184.4 67.9 184.55 67.55 M184.85 72.3 L185.0 71.95 Q185.15 71.8 185.35 71.8 L185.7 71.95 185.85 72.3 185.8 72.6 185.9 72.9 185.75 73.25 185.4 73.4 185.05 73.25 184.9 72.9 185.0 72.65 184.85 72.3 M194.15 62.55 L194.3 62.9 194.15 63.25 193.8 63.4 193.45 63.25 193.3 62.9 Q193.3 62.7 193.45 62.55 193.6 62.4 193.8 62.4 194.0 62.4 194.15 62.55 M197.35 67.75 L197.7 67.9 197.85 68.25 197.7 68.6 197.35 68.75 197.0 68.6 196.85 68.25 197.0 67.9 Q197.15 67.75 197.35 67.75 M200.3 70.3 Q200.45 70.15 200.65 70.15 L201.0 70.3 201.15 70.65 201.0 71.0 200.65 71.15 200.3 71.0 200.15 70.65 200.3 70.3 M175.3 52.4 Q175.45 52.25 175.65 52.25 L176.0 52.4 176.15 52.75 176.0 53.1 175.65 53.25 Q175.45 53.25 175.3 53.1 L175.15 52.75 175.3 52.4 M173.9 56.8 Q174.05 56.65 174.25 56.65 L174.6 56.8 174.75 57.15 174.6 57.5 174.25 57.65 173.9 57.5 173.75 57.15 173.9 56.8 M176.05 60.35 L176.2 60.7 176.05 61.05 175.7 61.2 175.35 61.05 175.2 60.7 Q175.2 60.5 175.35 60.35 175.5 60.2 175.7 60.2 175.9 60.2 176.05 60.35 M178.25 56.4 L178.1 56.75 178.2 56.75 Q178.4 56.75 178.55 56.9 L178.7 57.25 178.55 57.6 178.2 57.75 177.85 57.6 177.7 57.25 Q177.7 57.05 177.85 56.9 L177.9 56.9 177.75 56.9 Q177.55 56.9 177.4 56.75 L177.25 56.4 177.4 56.05 Q177.55 55.9 177.75 55.9 L178.1 56.05 178.25 56.4 M179.35 58.25 L179.5 58.6 179.35 58.95 179.0 59.1 178.65 58.95 178.5 58.6 178.65 58.25 Q178.8 58.1 179.0 58.1 179.2 58.1 179.35 58.25 M170.45 55.45 Q170.65 55.45 170.8 55.6 L170.95 55.95 170.8 56.3 170.45 56.45 170.1 56.3 169.95 55.95 Q169.95 55.75 170.1 55.6 170.25 55.45 170.45 55.45 M167.85 53.85 L168.0 54.2 167.85 54.55 167.5 54.7 167.15 54.55 167.0 54.2 167.15 53.85 Q167.3 53.7 167.5 53.7 L167.85 53.85 M166.15 50.0 Q166.3 49.85 166.5 49.85 166.7 49.85 166.85 50.0 L167.0 50.35 166.85 50.7 166.5 50.85 166.15 50.7 166.0 50.35 Q166.0 50.15 166.15 50.0 M165.05 52.15 Q165.2 52.0 165.4 52.0 L165.75 52.15 165.9 52.5 165.75 52.85 165.4 53.0 165.05 52.85 164.9 52.5 165.05 52.15 M163.45 59.4 Q163.6 59.25 163.8 59.25 L164.15 59.4 164.3 59.75 164.15 60.1 163.8 60.25 163.45 60.1 163.3 59.75 Q163.3 59.55 163.45 59.4 M162.3 59.5 Q162.45 59.35 162.65 59.35 162.85 59.35 163.0 59.5 L163.15 59.85 163.0 60.2 162.65 60.35 162.3 60.2 162.15 59.85 Q162.15 59.65 162.3 59.5 M164.75 60.65 L165.1 60.5 165.45 60.65 165.6 61.0 165.45 61.35 165.1 61.5 164.75 61.35 164.6 61.0 164.75 60.65 M167.35 60.15 Q167.5 60.0 167.7 60.0 167.9 60.0 168.05 60.15 L168.2 60.5 168.05 60.85 167.7 61.0 167.35 60.85 167.2 60.5 Q167.2 60.3 167.35 60.15 M172.1 60.85 L172.25 61.2 172.1 61.55 171.75 61.7 171.4 61.55 171.25 61.2 Q171.25 61.0 171.4 60.85 171.55 60.7 171.75 60.7 171.95 60.7 172.1 60.85 M170.0 62.35 L169.85 62.7 169.5 62.85 169.15 62.7 169.0 62.35 Q169.0 62.15 169.15 62.0 169.3 61.85 169.5 61.85 L169.85 62.0 170.0 62.35 M168.9 64.45 L169.25 64.6 169.4 64.95 169.25 65.3 168.9 65.45 168.55 65.3 168.4 64.95 168.55 64.6 Q168.7 64.45 168.9 64.45 M172.0 66.7 Q172.15 66.55 172.35 66.55 172.55 66.55 172.7 66.7 L172.85 67.05 172.7 67.4 172.35 67.55 172.0 67.4 171.85 67.05 Q171.85 66.85 172.0 66.7 M165.75 62.85 L165.4 62.7 165.25 62.35 165.4 62.0 Q165.55 61.85 165.75 61.85 L166.1 62.0 166.25 62.35 166.1 62.7 165.75 62.85 M180.65 63.55 L181.0 63.4 181.35 63.55 181.5 63.9 181.35 64.25 181.0 64.4 180.65 64.25 180.5 63.9 180.65 63.55 M177.6 64.1 L177.75 64.45 177.6 64.8 177.25 64.95 176.9 64.8 176.75 64.45 176.9 64.1 177.25 63.95 177.6 64.1 M173.0 63.2 Q173.15 63.05 173.35 63.05 L173.7 63.2 173.85 63.55 173.7 63.9 173.35 64.05 173.0 63.9 172.85 63.55 173.0 63.2 M175.8 68.3 Q175.95 68.15 176.15 68.15 176.35 68.15 176.5 68.3 L176.65 68.65 176.5 69.0 176.15 69.15 175.8 69.0 175.65 68.65 Q175.65 68.45 175.8 68.3 M179.85 69.0 Q180.0 68.85 180.2 68.85 L180.55 69.0 180.7 69.35 180.55 69.7 180.2 69.85 179.85 69.7 179.7 69.35 179.85 69.0 M179.55 90.45 Q179.7 90.3 179.9 90.3 180.1 90.3 180.25 90.45 L180.4 90.8 180.25 91.15 179.9 91.3 179.55 91.15 179.4 90.8 Q179.4 90.6 179.55 90.45 M173.75 88.4 L174.1 88.25 174.45 88.4 174.6 88.75 174.45 89.1 174.1 89.25 173.75 89.1 173.6 88.75 173.75 88.4 M176.55 91.6 L176.7 91.95 176.55 92.3 176.2 92.45 175.85 92.3 175.7 91.95 175.85 91.6 176.2 91.45 176.55 91.6 M193.15 82.8 L193.0 83.15 192.65 83.3 192.3 83.15 192.15 82.8 192.3 82.45 Q192.45 82.3 192.65 82.3 192.85 82.3 193.0 82.45 L193.15 82.8 M195.8 86.0 L195.65 86.35 195.3 86.5 194.95 86.35 194.8 86.0 Q194.8 85.8 194.95 85.65 195.1 85.5 195.3 85.5 L195.65 85.65 195.8 86.0 M189.25 79.45 Q189.4 79.3 189.6 79.3 189.8 79.3 189.95 79.45 L190.1 79.8 189.95 80.15 189.6 80.3 189.25 80.15 189.1 79.8 Q189.1 79.6 189.25 79.45 M186.6 76.3 L186.95 76.15 Q187.15 76.15 187.3 76.3 L187.45 76.65 187.3 77.0 186.95 77.15 186.6 77.0 186.45 76.65 186.6 76.3 M197.55 89.85 L197.2 90.0 196.85 89.85 196.7 89.5 196.85 89.15 197.2 89.0 197.55 89.15 197.7 89.5 197.55 89.85 M198.75 93.1 L198.9 93.45 198.75 93.8 198.4 93.95 198.05 93.8 197.9 93.45 198.05 93.1 Q198.2 92.95 198.4 92.95 L198.75 93.1 M198.75 97.1 Q198.9 96.95 199.1 96.95 L199.45 97.1 199.6 97.45 199.45 97.8 199.1 97.95 198.75 97.8 198.6 97.45 198.75 97.1 M240.1 52.8 Q240.25 52.65 240.45 52.65 L240.8 52.8 240.95 53.15 240.8 53.5 240.45 53.65 240.1 53.5 239.95 53.15 Q239.95 52.95 240.1 52.8 M239.8 55.1 Q239.95 54.95 240.15 54.95 240.35 54.95 240.5 55.1 L240.65 55.45 240.5 55.8 240.15 55.95 239.8 55.8 239.65 55.45 Q239.65 55.25 239.8 55.1 M237.4 55.6 Q237.55 55.45 237.75 55.45 L238.1 55.6 238.25 55.95 238.1 56.3 237.95 56.45 237.85 56.5 237.5 56.65 237.15 56.5 237.0 56.15 237.15 55.8 237.35 55.7 237.4 55.6 M233.25 56.65 Q233.4 56.5 233.6 56.5 233.8 56.5 233.95 56.65 L234.1 57.0 233.95 57.35 233.6 57.5 233.25 57.35 233.1 57.0 233.25 56.65 M236.65 59.35 Q236.8 59.2 237.0 59.2 237.2 59.2 237.35 59.35 L237.5 59.7 237.35 60.05 237.0 60.2 236.65 60.05 236.5 59.7 Q236.5 59.5 236.65 59.35 M239.35 58.05 Q239.5 57.9 239.7 57.9 L240.05 58.05 240.2 58.4 240.05 58.75 239.7 58.9 Q239.5 58.9 239.35 58.75 L239.2 58.4 239.35 58.05 M230.15 55.6 L230.3 55.95 230.15 56.3 229.8 56.45 229.45 56.3 229.3 55.95 229.45 55.6 Q229.6 55.45 229.8 55.45 L230.15 55.6 M223.35 55.6 L223.5 55.95 223.35 56.3 223.0 56.45 222.65 56.3 222.5 55.95 222.65 55.6 223.0 55.45 223.35 55.6 M227.15 54.8 L227.3 55.15 227.15 55.5 226.8 55.65 226.45 55.5 226.3 55.15 Q226.3 54.95 226.45 54.8 226.6 54.65 226.8 54.65 L227.15 54.8 M227.15 68.3 Q227.3 68.15 227.5 68.15 L227.85 68.3 228.0 68.65 227.85 69.0 227.5 69.15 227.15 69.0 227.0 68.65 227.15 68.3 M223.55 69.7 L223.9 69.55 224.25 69.7 224.4 70.05 224.25 70.4 223.9 70.55 223.55 70.4 223.4 70.05 223.55 69.7 M239.55 65.65 Q239.7 65.5 239.9 65.5 240.1 65.5 240.25 65.65 L240.4 66.0 240.25 66.35 239.9 66.5 239.55 66.35 239.4 66.0 239.55 65.65 M236.1 63.3 Q236.25 63.15 236.45 63.15 L236.8 63.3 236.95 63.65 236.8 64.0 236.45 64.15 236.1 64.0 235.95 63.65 236.1 63.3 M236.4 65.8 L236.25 66.15 235.9 66.3 235.55 66.15 235.4 65.8 235.55 65.45 Q235.7 65.3 235.9 65.3 L236.25 65.45 236.4 65.8 M234.5 68.5 Q234.65 68.35 234.85 68.35 L235.2 68.5 235.35 68.85 235.2 69.2 234.85 69.35 234.5 69.2 234.35 68.85 234.5 68.5 M233.65 72.35 L233.8 72.7 233.65 73.05 233.3 73.2 232.95 73.05 232.8 72.7 232.95 72.35 Q233.1 72.2 233.3 72.2 L233.65 72.35 M218.4 50.3 L218.25 50.65 217.9 50.8 217.55 50.65 217.4 50.3 217.55 49.95 Q217.7 49.8 217.9 49.8 L218.25 49.95 218.4 50.3 M219.8 53.7 L219.95 54.05 219.8 54.4 219.45 54.55 219.1 54.4 218.95 54.05 Q218.95 53.85 219.1 53.7 219.25 53.55 219.45 53.55 L219.8 53.7 M214.4 49.95 Q214.55 49.8 214.75 49.8 L215.1 49.95 215.25 50.3 215.1 50.65 214.75 50.8 214.4 50.65 214.25 50.3 214.4 49.95 M204.1 50.2 Q204.25 50.05 204.45 50.05 204.65 50.05 204.8 50.2 L204.95 50.55 204.8 50.9 204.45 51.05 204.1 50.9 203.95 50.55 Q203.95 50.35 204.1 50.2 M203.4 73.85 L203.25 74.2 202.9 74.35 202.55 74.2 202.4 73.85 202.55 73.5 202.9 73.35 203.25 73.5 203.4 73.85 M221.0 72.45 L221.35 72.3 221.7 72.45 221.85 72.8 221.7 73.15 221.35 73.3 221.0 73.15 220.85 72.8 221.0 72.45 M219.35 75.95 L219.7 75.8 220.05 75.95 220.2 76.3 220.05 76.65 219.7 76.8 219.35 76.65 219.2 76.3 219.35 75.95 M204.85 77.35 L205.0 77.7 204.85 78.05 204.5 78.2 204.15 78.05 204.0 77.7 Q204.0 77.5 204.15 77.35 204.3 77.2 204.5 77.2 204.7 77.2 204.85 77.35 M203.85 96.5 Q204.0 96.35 204.2 96.35 204.4 96.35 204.55 96.5 L204.7 96.85 204.55 97.2 204.2 97.35 203.85 97.2 203.7 96.85 203.85 96.5 M207.35 98.35 L207.7 98.2 208.05 98.35 208.2 98.7 208.05 99.05 207.7 99.2 207.35 99.05 207.2 98.7 207.35 98.35 M215.45 98.7 L215.6 99.05 215.45 99.4 215.1 99.55 214.75 99.4 214.6 99.05 214.75 98.7 Q214.9 98.55 215.1 98.55 L215.45 98.7 M218.45 97.1 L218.8 96.95 219.15 97.1 219.3 97.45 219.15 97.8 218.8 97.95 218.45 97.8 218.3 97.45 218.45 97.1 M222.35 98.2 Q222.5 98.05 222.7 98.05 L223.05 98.2 223.2 98.55 223.05 98.9 222.7 99.05 222.35 98.9 222.2 98.55 222.35 98.2 M230.8 75.8 Q230.95 75.65 231.15 75.65 231.35 75.65 231.5 75.8 L231.65 76.15 231.5 76.5 231.15 76.65 230.8 76.5 230.65 76.15 Q230.65 75.95 230.8 75.8 M228.85 78.8 L229.0 79.15 228.85 79.5 228.5 79.65 228.15 79.5 228.0 79.15 228.15 78.8 Q228.3 78.65 228.5 78.65 L228.85 78.8 M225.7 82.4 Q225.85 82.25 226.05 82.25 L226.4 82.4 226.55 82.75 226.4 83.1 226.05 83.25 Q225.85 83.25 225.7 83.1 L225.55 82.75 225.7 82.4 M224.4 86.2 L224.75 86.05 Q224.95 86.05 225.1 86.2 L225.25 86.55 225.1 86.9 224.75 87.05 224.4 86.9 224.25 86.55 224.4 86.2 M224.3 90.2 L224.45 90.55 224.3 90.9 223.95 91.05 Q223.75 91.05 223.6 90.9 L223.45 90.55 223.6 90.2 Q223.75 90.05 223.95 90.05 L224.3 90.2 M223.0 94.2 Q223.15 94.05 223.35 94.05 223.55 94.05 223.7 94.2 L223.85 94.55 223.7 94.9 223.35 95.05 223.0 94.9 222.85 94.55 Q222.85 94.35 223.0 94.2 M217.85 100.35 L218.2 100.2 218.55 100.35 218.7 100.7 218.55 101.05 218.2 101.2 217.85 101.05 217.7 100.7 217.85 100.35 M222.35 102.25 L222.5 102.6 222.35 102.95 222.0 103.1 221.65 102.95 221.5 102.6 Q221.5 102.4 221.65 102.25 221.8 102.1 222.0 102.1 L222.35 102.25 M214.85 101.8 L215.2 101.95 215.35 102.3 215.2 102.65 214.85 102.8 214.5 102.65 214.35 102.3 214.5 101.95 Q214.65 101.8 214.85 101.8 M216.85 106.45 Q217.0 106.3 217.2 106.3 L217.55 106.45 217.7 106.8 217.55 107.15 217.2 107.3 216.85 107.15 216.7 106.8 216.85 106.45 M213.7 105.7 L213.85 106.05 213.7 106.4 213.35 106.55 213.0 106.4 212.85 106.05 213.0 105.7 Q213.15 105.55 213.35 105.55 L213.7 105.7 M213.3 109.9 L213.15 110.25 212.8 110.4 212.45 110.25 212.3 109.9 212.45 109.55 Q212.6 109.4 212.8 109.4 L213.15 109.55 213.3 109.9 M216.3 108.5 Q216.45 108.35 216.65 108.35 216.85 108.35 217.0 108.5 L217.15 108.85 217.0 109.2 216.65 109.35 216.3 109.2 216.15 108.85 Q216.15 108.65 216.3 108.5 M220.35 106.95 L220.0 107.1 219.65 106.95 219.5 106.6 219.65 106.25 219.85 106.15 219.95 105.9 220.3 105.75 220.65 105.9 220.8 106.25 220.65 106.6 220.5 106.75 220.35 106.95 M211.0 99.35 Q211.15 99.2 211.35 99.2 L211.7 99.35 211.85 99.7 211.7 100.05 211.35 100.2 Q211.15 100.2 211.0 100.05 L210.85 99.7 211.0 99.35 M209.55 104.9 Q209.75 104.9 209.9 105.05 L210.05 105.4 209.9 105.75 209.55 105.9 209.2 105.75 209.05 105.4 Q209.05 105.2 209.2 105.05 209.35 104.9 209.55 104.9 M211.8 102.35 L211.95 102.7 211.8 103.05 211.45 103.2 211.2 103.15 211.1 103.15 211.0 103.15 210.65 103.0 210.5 102.65 210.65 102.3 Q210.8 102.15 211.0 102.15 L211.15 102.15 211.2 102.2 211.3 102.25 211.45 102.2 211.8 102.35 M207.5 101.2 L207.65 101.55 207.5 101.9 207.15 102.05 Q206.95 102.05 206.8 101.9 L206.65 101.55 206.8 101.2 Q206.95 101.05 207.15 101.05 L207.5 101.2 M203.3 99.15 Q203.45 99.0 203.65 99.0 L204.0 99.15 204.15 99.5 204.0 99.85 203.65 100.0 203.3 99.85 203.15 99.5 203.3 99.15 M206.15 106.15 L206.3 106.5 206.15 106.85 205.8 107.0 205.45 106.85 205.3 106.5 Q205.3 106.3 205.45 106.15 205.6 106.0 205.8 106.0 L206.15 106.15 M205.45 107.95 L205.6 108.3 205.45 108.65 205.1 108.8 204.75 108.65 204.6 108.3 Q204.6 108.1 204.75 107.95 204.9 107.8 205.1 107.8 205.3 107.8 205.45 107.95 M209.2 109.3 L209.35 109.65 209.2 110.0 208.85 110.15 208.5 110.0 208.35 109.65 Q208.35 109.45 208.5 109.3 208.65 109.15 208.85 109.15 209.05 109.15 209.2 109.3 M203.9 111.6 Q204.05 111.45 204.25 111.45 L204.6 111.6 204.75 111.95 204.6 112.3 204.25 112.45 203.9 112.3 203.75 111.95 203.9 111.6 M204.3 115.65 L204.45 116.0 204.3 116.35 203.95 116.5 203.6 116.35 203.45 116.0 203.6 115.65 203.95 115.5 204.3 115.65 M203.55 119.7 L203.7 120.05 203.55 120.4 203.2 120.55 202.85 120.4 202.7 120.05 202.85 119.7 Q203.0 119.55 203.2 119.55 L203.55 119.7 M203.4 147.15 L203.25 147.5 202.9 147.65 202.55 147.5 202.4 147.15 202.55 146.8 202.9 146.65 203.25 146.8 203.4 147.15 M200.65 101.45 L200.5 101.8 200.15 101.95 199.8 101.8 199.65 101.45 199.8 101.1 Q199.95 100.95 200.15 100.95 L200.5 101.1 200.65 101.45 M187.8 104.65 L187.65 105.0 187.3 105.15 186.95 105.0 186.8 104.65 186.95 104.3 187.3 104.15 187.65 104.3 187.8 104.65 M190.8 103.6 L190.65 103.95 190.3 104.1 189.95 103.95 189.8 103.6 189.95 103.25 190.3 103.1 190.65 103.25 190.8 103.6 M185.65 101.5 L185.5 101.85 185.15 102.0 184.8 101.85 184.65 101.5 Q184.65 101.3 184.8 101.15 184.95 101.0 185.15 101.0 185.35 101.0 185.5 101.15 L185.65 101.5 M191.05 115.25 L191.2 115.6 191.05 115.95 190.7 116.1 190.35 115.95 190.2 115.6 190.35 115.25 Q190.5 115.1 190.7 115.1 L191.05 115.25 M185.35 112.95 L185.5 113.3 185.35 113.65 185.0 113.8 184.65 113.65 184.5 113.3 184.65 112.95 Q184.8 112.8 185.0 112.8 L185.35 112.95 M182.9 114.15 L183.25 114.3 183.4 114.65 183.25 115.0 182.9 115.15 182.55 115.0 182.4 114.65 182.55 114.3 Q182.7 114.15 182.9 114.15 M185.2 116.8 Q185.35 116.65 185.55 116.65 185.75 116.65 185.9 116.8 L186.05 117.15 185.9 117.5 185.55 117.65 185.2 117.5 185.05 117.15 Q185.05 116.95 185.2 116.8 M186.3 120.95 Q186.45 120.8 186.65 120.8 186.85 120.8 187.0 120.95 L187.15 121.3 187.0 121.65 186.65 121.8 186.3 121.65 186.15 121.3 Q186.15 121.1 186.3 120.95 M193.45 112.45 L193.6 112.8 193.45 113.15 193.1 113.3 192.75 113.15 192.6 112.8 Q192.6 112.6 192.75 112.45 192.9 112.3 193.1 112.3 193.3 112.3 193.45 112.45 M197.1 123.5 Q197.3 123.5 197.45 123.65 L197.6 124.0 197.45 124.35 197.1 124.5 196.75 124.35 196.6 124.0 Q196.6 123.8 196.75 123.65 196.9 123.5 197.1 123.5 M199.8 122.0 Q199.8 121.8 199.95 121.65 200.1 121.5 200.3 121.5 200.5 121.5 200.65 121.65 L200.8 122.0 200.65 122.35 200.3 122.5 199.95 122.35 199.8 122.0 M201.75 123.25 Q201.95 123.25 202.1 123.4 L202.25 123.75 202.1 124.1 201.75 124.25 201.4 124.1 201.25 123.75 Q201.25 123.55 201.4 123.4 201.55 123.25 201.75 123.25 M180.4 102.0 L180.25 102.35 179.9 102.5 179.55 102.35 179.4 102.0 Q179.4 101.8 179.55 101.65 179.7 101.5 179.9 101.5 180.1 101.5 180.25 101.65 L180.4 102.0 M177.9 105.15 L177.75 105.5 177.4 105.65 177.05 105.5 176.9 105.15 177.05 104.8 Q177.2 104.65 177.4 104.65 L177.75 104.8 177.9 105.15 M174.85 108.05 Q175.0 107.9 175.2 107.9 L175.55 108.05 175.7 108.4 175.55 108.75 175.2 108.9 174.85 108.75 174.7 108.4 174.85 108.05 M171.6 115.35 Q171.75 115.2 171.95 115.2 172.15 115.2 172.3 115.35 L172.45 115.7 172.3 116.05 171.95 116.2 171.6 116.05 171.45 115.7 Q171.45 115.5 171.6 115.35 M171.3 118.0 Q171.45 117.85 171.65 117.85 171.85 117.85 172.0 118.0 L172.15 118.35 172.0 118.7 171.65 118.85 171.3 118.7 171.15 118.35 171.3 118.0 M171.15 120.1 Q171.3 119.95 171.5 119.95 171.7 119.95 171.85 120.1 L172.0 120.45 171.85 120.8 171.5 120.95 171.15 120.8 171.0 120.45 Q171.0 120.25 171.15 120.1 M179.1 116.1 Q179.25 115.95 179.45 115.95 179.65 115.95 179.8 116.1 L179.95 116.45 179.8 116.8 179.45 116.95 179.1 116.8 178.95 116.45 Q178.95 116.25 179.1 116.1 M172.9 111.45 Q173.05 111.3 173.25 111.3 L173.6 111.45 173.75 111.8 173.6 112.15 173.25 112.3 172.9 112.15 172.75 111.8 Q172.75 111.6 172.9 111.45 M175.7 117.2 Q175.9 117.2 176.05 117.35 L176.2 117.7 176.05 118.05 175.7 118.2 175.35 118.05 175.2 117.7 Q175.2 117.5 175.35 117.35 175.5 117.2 175.7 117.2 M172.5 124.5 L172.35 124.85 172.0 125.0 171.65 124.85 171.5 124.5 171.65 124.15 172.0 124.0 172.35 124.15 172.5 124.5 M173.65 128.0 L173.8 128.35 173.65 128.7 173.3 128.85 172.95 128.7 172.8 128.35 172.95 128.0 173.3 127.85 Q173.5 127.85 173.65 128.0 M174.45 132.1 L174.6 132.45 174.45 132.8 174.1 132.95 173.75 132.8 173.6 132.45 173.75 132.1 174.1 131.95 174.45 132.1 M165.85 129.05 Q166.0 128.9 166.2 128.9 L166.55 129.05 166.7 129.4 166.55 129.75 166.2 129.9 Q166.0 129.9 165.85 129.75 L165.7 129.4 165.85 129.05 M171.0 132.0 Q171.0 131.8 171.15 131.65 171.3 131.5 171.5 131.5 171.7 131.5 171.85 131.65 L172.0 132.0 171.85 132.35 171.5 132.5 171.15 132.35 171.0 132.0 M168.0 132.35 Q168.15 132.2 168.35 132.2 168.55 132.2 168.7 132.35 L168.85 132.7 168.7 133.05 168.35 133.2 168.0 133.05 167.85 132.7 Q167.85 132.5 168.0 132.35 M167.75 145.1 Q167.95 145.1 168.1 145.25 L168.25 145.6 168.1 145.95 167.75 146.1 167.4 145.95 167.25 145.6 Q167.25 145.4 167.4 145.25 167.55 145.1 167.75 145.1 M170.55 147.5 Q170.7 147.35 170.9 147.35 171.1 147.35 171.25 147.5 L171.4 147.85 171.25 148.2 170.9 148.35 170.55 148.2 170.4 147.85 Q170.4 147.65 170.55 147.5 M174.9 136.65 L174.75 137.0 174.4 137.15 174.05 137.0 173.9 136.65 174.05 136.3 Q174.2 136.15 174.4 136.15 L174.75 136.3 174.9 136.65 M174.55 140.25 L174.9 140.4 175.05 140.75 174.9 141.1 174.55 141.25 174.2 141.1 174.05 140.75 174.2 140.4 174.55 140.25 M174.95 145.1 L174.6 145.25 Q174.4 145.25 174.25 145.1 L174.1 144.75 174.25 144.4 Q174.4 144.25 174.6 144.25 L174.95 144.4 175.1 144.75 174.95 145.1 M173.95 146.05 Q174.1 145.9 174.3 145.9 L174.65 146.05 174.8 146.4 174.65 146.75 174.3 146.9 173.95 146.75 173.8 146.4 Q173.8 146.2 173.95 146.05 M175.6 148.35 L175.75 148.7 175.6 149.05 175.25 149.2 174.9 149.05 174.75 148.7 Q174.75 148.5 174.9 148.35 175.05 148.2 175.25 148.2 175.45 148.2 175.6 148.35 M199.8 127.6 Q199.8 127.4 199.95 127.25 200.1 127.1 200.3 127.1 200.5 127.1 200.65 127.25 L200.8 127.6 200.65 127.95 200.3 128.1 199.95 127.95 199.8 127.6 M194.1 130.0 Q194.25 129.85 194.45 129.85 L194.8 130.0 194.95 130.35 194.8 130.7 194.45 130.85 194.1 130.7 193.95 130.35 194.1 130.0 M200.2 131.55 L200.05 131.9 199.7 132.05 199.35 131.9 199.2 131.55 199.35 131.2 Q199.5 131.05 199.7 131.05 L200.05 131.2 200.2 131.55 M198.25 130.75 L197.9 130.9 197.55 130.75 197.4 130.4 197.55 130.05 Q197.7 129.9 197.9 129.9 198.1 129.9 198.25 130.05 L198.4 130.4 198.25 130.75 M199.6 135.15 Q199.75 135.0 199.95 135.0 L200.3 135.15 200.45 135.5 200.3 135.85 199.95 136.0 199.6 135.85 199.45 135.5 Q199.45 135.3 199.6 135.15 M187.25 125.05 L187.4 125.4 187.25 125.75 186.9 125.9 186.55 125.75 186.4 125.4 Q186.4 125.2 186.55 125.05 186.7 124.9 186.9 124.9 L187.25 125.05 M186.35 129.05 L186.7 128.9 187.05 129.05 187.2 129.4 187.05 129.75 186.7 129.9 186.35 129.75 186.2 129.4 186.35 129.05 M186.85 133.0 L187.0 133.35 187.0 133.5 187.0 133.65 186.85 134.0 186.5 134.15 186.15 134.0 186.0 133.65 186.05 133.5 186.0 133.35 186.15 133.0 Q186.3 132.85 186.5 132.85 L186.85 133.0 M187.35 137.65 L187.4 137.7 187.55 137.9 187.55 138.05 187.4 138.4 187.05 138.55 186.7 138.4 186.55 138.05 186.6 137.9 186.5 137.85 186.35 137.5 186.5 137.15 Q186.65 137.0 186.85 137.0 L187.2 137.15 187.35 137.35 187.35 137.5 187.35 137.65 M188.1 141.6 Q188.25 141.45 188.45 141.45 188.65 141.45 188.8 141.6 L188.95 141.95 188.8 142.3 188.45 142.45 188.1 142.3 187.95 141.95 188.1 141.6 M189.2 145.4 Q189.35 145.25 189.55 145.25 L189.9 145.4 190.05 145.75 189.9 146.1 189.55 146.25 189.2 146.1 189.05 145.75 189.2 145.4 M201.3 139.0 L201.45 139.35 201.3 139.7 200.95 139.85 200.6 139.7 200.45 139.35 200.6 139.0 200.95 138.85 201.3 139.0 M198.35 139.65 L198.7 139.5 199.05 139.65 199.2 140.0 199.05 140.35 198.7 140.5 198.35 140.35 198.2 140.0 198.35 139.65 M195.0 140.85 L195.35 140.7 Q195.55 140.7 195.7 140.85 L195.85 141.2 195.7 141.55 195.35 141.7 195.0 141.55 194.85 141.2 195.0 140.85 M202.25 142.9 L202.4 143.25 202.25 143.6 201.9 143.75 Q201.7 143.75 201.55 143.6 L201.4 143.25 201.55 142.9 Q201.7 142.75 201.9 142.75 L202.25 142.9 M197.9 153.75 L198.25 153.6 198.6 153.75 198.75 154.1 198.6 154.45 198.25 154.6 197.9 154.45 197.75 154.1 197.9 153.75 M199.25 154.2 Q199.4 154.05 199.6 154.05 L199.95 154.2 200.1 154.55 199.95 154.9 199.6 155.05 199.25 154.9 199.1 154.55 199.25 154.2 M202.45 154.2 Q202.6 154.05 202.8 154.05 203.0 154.05 203.15 154.2 L203.3 154.55 203.15 154.9 202.8 155.05 202.45 154.9 202.3 154.55 Q202.3 154.35 202.45 154.2 M196.25 151.25 L196.4 151.6 196.25 151.95 195.9 152.1 195.55 151.95 195.4 151.6 Q195.4 151.4 195.55 151.25 195.7 151.1 195.9 151.1 196.1 151.1 196.25 151.25 M192.55 150.65 Q192.7 150.5 192.9 150.5 193.1 150.5 193.25 150.65 L193.4 151.0 193.25 151.35 192.9 151.5 192.55 151.35 192.4 151.0 Q192.4 150.8 192.55 150.65 M196.45 156.75 Q196.6 156.6 196.8 156.6 L197.15 156.75 197.3 157.1 197.15 157.45 196.8 157.6 196.45 157.45 196.3 157.1 Q196.3 156.9 196.45 156.75 M193.0 157.1 L192.85 157.45 192.5 157.6 192.15 157.45 192.0 157.1 Q192.0 156.9 192.15 156.75 192.3 156.6 192.5 156.6 192.7 156.6 192.85 156.75 L193.0 157.1 M190.85 149.5 L191.0 149.85 190.85 150.2 190.5 150.35 190.15 150.2 190.0 149.85 Q190.0 149.65 190.15 149.5 190.3 149.35 190.5 149.35 L190.85 149.5 M190.85 153.45 Q191.0 153.3 191.2 153.3 L191.55 153.45 191.7 153.8 191.55 154.15 191.2 154.3 190.85 154.15 190.7 153.8 190.85 153.45 M176.55 152.15 L176.7 152.5 176.55 152.85 176.2 153.0 175.85 152.85 175.7 152.5 175.85 152.15 176.2 152.0 176.55 152.15 M176.8 156.15 Q176.95 156.0 177.15 156.0 177.35 156.0 177.5 156.15 L177.65 156.5 177.5 156.85 177.15 157.0 176.8 156.85 176.65 156.5 Q176.65 156.3 176.8 156.15 M177.15 159.95 Q177.35 159.95 177.5 160.1 L177.65 160.45 177.5 160.8 177.15 160.95 176.8 160.8 176.65 160.45 Q176.65 160.25 176.8 160.1 176.95 159.95 177.15 159.95 M163.95 155.65 Q164.1 155.5 164.3 155.5 164.5 155.5 164.65 155.65 L164.8 156.0 164.65 156.35 164.3 156.5 163.95 156.35 163.8 156.0 163.95 155.65 M168.2 158.7 Q168.35 158.55 168.55 158.55 L168.9 158.7 169.05 159.05 168.9 159.4 168.55 159.55 168.2 159.4 168.05 159.05 168.2 158.7 M170.75 160.5 L171.1 160.65 171.25 161.0 171.1 161.35 170.75 161.5 170.4 161.35 170.25 161.0 170.4 160.65 Q170.55 160.5 170.75 160.5 M166.05 162.2 Q166.2 162.05 166.4 162.05 166.6 162.05 166.75 162.2 L166.9 162.55 166.75 162.9 166.4 163.05 166.05 162.9 165.9 162.55 166.05 162.2 M162.9 162.5 L162.75 162.85 162.4 163.0 162.05 162.85 161.9 162.5 162.05 162.15 Q162.2 162.0 162.4 162.0 L162.75 162.15 162.9 162.5 M173.15 161.95 L173.5 161.8 173.85 161.95 174.0 162.3 173.85 162.65 173.5 162.8 173.15 162.65 173.0 162.3 173.15 161.95 M203.55 150.7 Q203.7 150.55 203.9 150.55 L204.25 150.7 204.4 151.05 204.25 151.4 203.9 151.55 203.55 151.4 203.4 151.05 203.55 150.7 M160.75 3.25 L160.9 3.6 160.75 3.95 160.4 4.1 160.05 3.95 159.9 3.6 Q159.9 3.4 160.05 3.25 160.2 3.1 160.4 3.1 160.6 3.1 160.75 3.25 M156.6 2.25 L156.75 2.6 156.6 2.95 156.25 3.1 155.9 2.95 155.75 2.6 155.9 2.25 156.25 2.1 156.6 2.25 M152.1 1.3 Q152.25 1.15 152.45 1.15 L152.8 1.3 152.95 1.65 152.8 2.0 152.45 2.15 152.1 2.0 151.95 1.65 152.1 1.3 M148.85 0.95 L149.0 1.3 148.85 1.65 148.5 1.8 148.15 1.65 148.0 1.3 Q148.0 1.1 148.15 0.95 148.3 0.8 148.5 0.8 L148.85 0.95 M144.5 2.25 Q144.65 2.1 144.85 2.1 L145.2 2.25 145.35 2.6 145.2 2.95 144.85 3.1 144.5 2.95 144.35 2.6 144.5 2.25 M141.65 3.0 L141.8 3.35 141.65 3.7 141.3 3.85 140.95 3.7 140.8 3.35 Q140.8 3.15 140.95 3.0 141.1 2.85 141.3 2.85 141.5 2.85 141.65 3.0 M137.3 0.55 Q137.45 0.4 137.65 0.4 L138.0 0.55 138.15 0.9 138.0 1.25 137.65 1.4 137.3 1.25 137.15 0.9 137.3 0.55 M133.7 0.05 L134.05 -0.1 134.4 0.05 134.55 0.4 134.4 0.75 134.05 0.9 133.7 0.75 133.55 0.4 133.7 0.05 M129.75 1.15 Q129.9 1.0 130.1 1.0 130.3 1.0 130.45 1.15 L130.6 1.5 130.45 1.85 130.1 2.0 129.75 1.85 129.6 1.5 Q129.6 1.3 129.75 1.15 M126.85 2.65 L126.7 3.0 126.35 3.15 126.0 3.0 125.85 2.65 Q125.85 2.45 126.0 2.3 126.15 2.15 126.35 2.15 126.55 2.15 126.7 2.3 L126.85 2.65 M121.8 1.9 Q121.95 1.75 122.15 1.75 122.35 1.75 122.5 1.9 L122.65 2.25 122.5 2.6 122.15 2.75 121.8 2.6 121.65 2.25 Q121.65 2.05 121.8 1.9 M125.25 12.1 L125.6 12.25 125.75 12.6 125.6 12.95 125.25 13.1 Q125.05 13.1 124.9 12.95 L124.75 12.6 124.9 12.25 Q125.05 12.1 125.25 12.1 M127.35 9.5 Q127.5 9.35 127.7 9.35 L128.05 9.5 128.2 9.85 128.05 10.2 127.7 10.35 127.35 10.2 127.2 9.85 127.35 9.5 M127.4 15.25 Q127.6 15.25 127.75 15.4 L127.9 15.75 127.75 16.1 127.4 16.25 127.05 16.1 126.9 15.75 Q126.9 15.55 127.05 15.4 127.2 15.25 127.4 15.25 M130.85 16.45 Q131.0 16.3 131.2 16.3 L131.55 16.45 131.7 16.8 131.55 17.15 131.2 17.3 130.85 17.15 130.7 16.8 130.85 16.45 M128.0 26.1 L128.35 25.95 128.7 26.1 128.85 26.45 128.7 26.8 128.35 26.95 128.0 26.8 127.85 26.45 128.0 26.1 M127.95 30.05 L128.1 30.4 127.95 30.75 127.6 30.9 127.25 30.75 127.1 30.4 127.25 30.05 Q127.4 29.9 127.6 29.9 L127.95 30.05 M128.85 33.65 L129.2 33.5 Q129.4 33.5 129.55 33.65 L129.7 34.0 129.55 34.35 129.2 34.5 128.85 34.35 128.7 34.0 128.85 33.65 M161.25 38.25 L160.9 38.4 160.55 38.25 160.4 37.9 160.55 37.55 160.9 37.4 161.25 37.55 161.4 37.9 161.25 38.25 M160.15 41.45 Q160.3 41.3 160.5 41.3 L160.85 41.45 161.0 41.8 160.85 42.15 160.5 42.3 160.15 42.15 160.0 41.8 160.15 41.45 M160.75 45.45 Q160.9 45.3 161.1 45.3 L161.45 45.45 161.6 45.8 161.45 46.15 161.1 46.3 160.75 46.15 160.6 45.8 Q160.6 45.6 160.75 45.45 M118.55 0.85 L118.7 1.2 118.55 1.55 118.2 1.7 117.85 1.55 117.7 1.2 Q117.7 1.0 117.85 0.85 118.0 0.7 118.2 0.7 118.4 0.7 118.55 0.85 M113.8 2.45 Q113.95 2.3 114.15 2.3 114.35 2.3 114.5 2.45 L114.65 2.8 114.5 3.15 114.15 3.3 113.8 3.15 113.65 2.8 Q113.65 2.6 113.8 2.45 M111.8 11.0 L112.15 10.85 112.5 11.0 112.65 11.35 112.5 11.7 112.15 11.85 111.8 11.7 111.65 11.35 111.8 11.0 M107.15 3.75 L107.0 4.1 106.65 4.25 106.3 4.1 106.15 3.75 Q106.15 3.55 106.3 3.4 106.45 3.25 106.65 3.25 106.85 3.25 107.0 3.4 L107.15 3.75 M110.4 4.05 Q110.55 3.9 110.75 3.9 110.95 3.9 111.1 4.05 L111.25 4.4 111.1 4.75 110.75 4.9 110.4 4.75 110.25 4.4 110.4 4.05 M102.4 2.3 Q102.55 2.15 102.75 2.15 L103.1 2.3 103.25 2.65 103.1 3.0 102.75 3.15 102.4 3.0 102.25 2.65 102.4 2.3 M109.65 14.35 L109.5 14.7 109.15 14.85 108.8 14.7 108.65 14.35 108.8 14.0 Q108.95 13.85 109.15 13.85 L109.5 14.0 109.65 14.35 M110.65 16.8 Q110.8 16.65 111.0 16.65 111.2 16.65 111.35 16.8 L111.5 17.15 111.35 17.5 111.0 17.65 110.65 17.5 110.5 17.15 Q110.5 16.95 110.65 16.8 M114.85 18.05 Q115.0 17.9 115.2 17.9 115.4 17.9 115.55 18.05 L115.7 18.4 115.55 18.75 115.2 18.9 114.85 18.75 114.7 18.4 Q114.7 18.2 114.85 18.05 M98.6 2.65 L98.95 2.5 99.3 2.65 99.45 3.0 99.3 3.35 98.95 3.5 98.6 3.35 98.45 3.0 98.6 2.65 M95.2 4.1 Q95.35 3.95 95.55 3.95 L95.9 4.1 96.05 4.45 95.9 4.8 95.55 4.95 95.2 4.8 95.05 4.45 Q95.05 4.25 95.2 4.1 M93.85 4.25 Q94.0 4.1 94.2 4.1 94.4 4.1 94.55 4.25 L94.7 4.6 94.55 4.95 94.2 5.1 93.85 4.95 93.7 4.6 Q93.7 4.4 93.85 4.25 M98.35 11.2 Q98.5 11.05 98.7 11.05 L99.05 11.2 99.2 11.55 99.05 11.9 98.7 12.05 98.35 11.9 98.2 11.55 Q98.2 11.35 98.35 11.2 M90.45 2.65 Q90.65 2.65 90.8 2.8 L90.95 3.15 90.8 3.5 90.45 3.65 90.1 3.5 89.95 3.15 Q89.95 2.95 90.1 2.8 90.25 2.65 90.45 2.65 M87.0 2.8 L86.85 3.15 86.5 3.3 86.15 3.15 86.0 2.8 86.15 2.45 86.5 2.3 86.85 2.45 87.0 2.8 M81.7 5.8 L82.05 5.95 82.2 6.3 82.05 6.65 81.7 6.8 81.35 6.65 81.2 6.3 81.35 5.95 81.7 5.8 M83.3 4.0 Q83.5 4.0 83.65 4.15 L83.8 4.5 83.65 4.85 83.3 5.0 82.95 4.85 82.8 4.5 Q82.8 4.3 82.95 4.15 83.1 4.0 83.3 4.0 M81.45 7.0 L81.3 7.35 80.95 7.5 80.6 7.35 80.45 7.0 80.5 6.9 80.15 7.0 79.8 6.85 79.65 6.5 Q79.65 6.3 79.8 6.15 79.95 6.0 80.15 6.0 80.35 6.0 80.5 6.15 L80.65 6.5 80.65 6.65 Q80.75 6.5 80.95 6.5 L81.3 6.65 81.45 7.0 M83.85 13.75 Q84.0 13.6 84.2 13.6 L84.55 13.75 84.7 14.1 84.55 14.45 84.2 14.6 83.85 14.45 83.7 14.1 83.85 13.75 M81.2 17.0 L80.85 17.15 80.5 17.0 80.35 16.65 Q80.35 16.45 80.5 16.3 80.65 16.15 80.85 16.15 L81.2 16.3 81.35 16.65 81.2 17.0 M85.55 24.05 L85.7 24.4 85.55 24.75 85.2 24.9 84.85 24.75 84.7 24.4 Q84.7 24.2 84.85 24.05 85.0 23.9 85.2 23.9 85.4 23.9 85.55 24.05 M81.55 23.5 L81.7 23.85 81.55 24.2 81.2 24.35 80.85 24.2 80.7 23.85 Q80.7 23.65 80.85 23.5 81.0 23.35 81.2 23.35 81.4 23.35 81.55 23.5 M94.9 13.3 Q95.05 13.15 95.25 13.15 95.45 13.15 95.6 13.3 L95.75 13.65 95.6 14.0 95.25 14.15 94.9 14.0 94.75 13.65 Q94.75 13.45 94.9 13.3 M93.0 16.45 L93.15 16.8 93.0 17.15 92.65 17.3 92.3 17.15 92.15 16.8 92.3 16.45 92.65 16.3 93.0 16.45 M93.75 19.4 Q93.9 19.25 94.1 19.25 L94.45 19.4 94.6 19.75 94.45 20.1 94.1 20.25 93.75 20.1 93.6 19.75 93.75 19.4 M98.35 20.05 L98.5 20.4 98.35 20.75 98.0 20.9 97.65 20.75 97.5 20.4 Q97.5 20.2 97.65 20.05 97.8 19.9 98.0 19.9 98.2 19.9 98.35 20.05 M99.9 34.85 Q100.05 34.7 100.25 34.7 100.45 34.7 100.6 34.85 L100.75 35.2 100.6 35.55 100.25 35.7 99.9 35.55 99.75 35.2 99.9 34.85 M82.05 36.45 Q82.2 36.3 82.4 36.3 82.6 36.3 82.75 36.45 L82.9 36.8 82.75 37.15 82.4 37.3 82.05 37.15 81.9 36.8 82.05 36.45 M89.95 35.75 Q90.1 35.6 90.3 35.6 L90.65 35.75 90.8 36.1 90.65 36.45 90.3 36.6 89.95 36.45 89.8 36.1 Q89.8 35.9 89.95 35.75 M87.2 39.05 L87.55 38.9 87.9 39.05 88.05 39.4 87.9 39.75 87.55 39.9 87.2 39.75 87.05 39.4 87.2 39.05 M87.65 43.25 L87.8 43.6 87.65 43.95 87.3 44.1 86.95 43.95 86.8 43.6 Q86.8 43.4 86.95 43.25 87.1 43.1 87.3 43.1 87.5 43.1 87.65 43.25 M89.65 45.25 Q89.8 45.1 90.0 45.1 90.2 45.1 90.35 45.25 L90.5 45.6 90.35 45.95 90.0 46.1 89.65 45.95 89.5 45.6 Q89.5 45.4 89.65 45.25 M100.65 38.35 Q100.8 38.2 101.0 38.2 L101.35 38.35 101.5 38.7 101.35 39.05 101.0 39.2 100.65 39.05 100.5 38.7 100.65 38.35 M114.55 27.25 Q114.7 27.1 114.9 27.1 L115.25 27.25 115.4 27.6 115.25 27.95 114.9 28.1 114.55 27.95 114.4 27.6 Q114.4 27.4 114.55 27.25 M115.15 30.8 L115.3 31.15 115.15 31.5 114.8 31.65 114.45 31.5 114.3 31.15 Q114.3 30.95 114.45 30.8 114.6 30.65 114.8 30.65 115.0 30.65 115.15 30.8 M118.75 32.45 L118.9 32.8 118.75 33.15 118.4 33.3 118.05 33.15 117.9 32.8 Q117.9 32.6 118.05 32.45 118.2 32.3 118.4 32.3 118.6 32.3 118.75 32.45 M102.05 31.7 Q102.2 31.55 102.4 31.55 L102.75 31.7 102.9 32.05 102.75 32.4 102.4 32.55 102.05 32.4 101.9 32.05 102.05 31.7 M104.75 38.85 L104.9 39.2 104.75 39.55 104.4 39.7 104.05 39.55 103.9 39.2 Q103.9 39.0 104.05 38.85 104.2 38.7 104.4 38.7 L104.75 38.85 M105.4 49.35 L105.55 49.7 105.4 50.05 105.05 50.2 104.7 50.05 104.55 49.7 104.7 49.35 105.05 49.2 Q105.25 49.2 105.4 49.35 M106.55 45.5 L106.9 45.35 107.25 45.5 107.4 45.85 107.25 46.2 106.9 46.35 106.55 46.2 106.4 45.85 106.55 45.5 M115.45 48.8 Q115.6 48.65 115.8 48.65 L116.15 48.8 116.3 49.15 116.15 49.5 115.8 49.65 Q115.6 49.65 115.45 49.5 L115.3 49.15 115.45 48.8 M117.6 45.45 Q117.75 45.3 117.95 45.3 118.15 45.3 118.3 45.45 L118.45 45.8 118.3 46.15 117.95 46.3 117.6 46.15 117.45 45.8 Q117.45 45.6 117.6 45.45 M117.55 52.05 L117.7 52.4 117.55 52.75 117.2 52.9 116.85 52.75 116.7 52.4 116.85 52.05 Q117.0 51.9 117.2 51.9 L117.55 52.05 M106.75 53.25 L106.9 53.6 106.75 53.95 106.4 54.1 106.05 53.95 105.9 53.6 Q105.9 53.4 106.05 53.25 106.2 53.1 106.4 53.1 106.6 53.1 106.75 53.25 M104.4 70.95 Q104.55 70.8 104.75 70.8 104.95 70.8 105.1 70.95 L105.25 71.3 105.1 71.65 104.75 71.8 104.4 71.65 104.25 71.3 Q104.25 71.1 104.4 70.95 M109.05 71.25 L109.2 71.6 109.05 71.95 108.7 72.1 108.35 71.95 108.2 71.6 108.35 71.25 Q108.5 71.1 108.7 71.1 L109.05 71.25 M94.3 51.75 Q94.45 51.6 94.65 51.6 94.85 51.6 95.0 51.75 L95.15 52.1 95.0 52.45 94.65 52.6 94.3 52.45 94.15 52.1 Q94.15 51.9 94.3 51.75 M94.5 56.05 L94.35 56.4 94.0 56.55 93.65 56.4 93.5 56.05 93.65 55.7 Q93.8 55.55 94.0 55.55 L94.35 55.7 94.5 56.05 M96.0 59.1 L96.15 59.45 96.0 59.8 95.65 59.95 95.3 59.8 95.15 59.45 95.3 59.1 Q95.45 58.95 95.65 58.95 L96.0 59.1 M99.25 59.65 Q99.4 59.5 99.6 59.5 L99.95 59.65 100.1 60.0 99.95 60.35 99.6 60.5 99.25 60.35 99.1 60.0 99.25 59.65 M81.55 72.8 Q81.7 72.65 81.9 72.65 L82.25 72.8 82.4 73.15 82.25 73.5 81.9 73.65 81.55 73.5 81.4 73.15 Q81.4 72.95 81.55 72.8 M98.45 85.35 Q98.6 85.2 98.8 85.2 L99.15 85.35 99.3 85.7 99.15 86.05 98.8 86.2 98.45 86.05 98.3 85.7 98.45 85.35 M86.35 76.45 Q86.5 76.3 86.7 76.3 86.9 76.3 87.05 76.45 L87.2 76.8 87.05 77.15 86.7 77.3 86.35 77.15 86.2 76.8 Q86.2 76.6 86.35 76.45 M82.35 76.45 Q82.5 76.3 82.7 76.3 82.9 76.3 83.05 76.45 L83.2 76.8 83.05 77.15 82.7 77.3 82.35 77.15 82.2 76.8 Q82.2 76.6 82.35 76.45 M81.95 90.85 L82.3 90.7 82.65 90.85 82.8 91.2 82.65 91.55 82.3 91.7 81.95 91.55 81.8 91.2 81.95 90.85 M81.15 94.9 Q81.3 94.75 81.5 94.75 L81.85 94.9 82.0 95.25 81.85 95.6 81.5 95.75 81.15 95.6 81.0 95.25 81.15 94.9 M84.35 96.45 Q84.5 96.3 84.7 96.3 L85.05 96.45 85.2 96.8 85.05 97.15 84.7 97.3 84.35 97.15 84.2 96.8 84.35 96.45 M99.8 88.85 L100.15 88.7 100.5 88.85 100.65 89.2 100.5 89.55 100.15 89.7 99.8 89.55 99.65 89.2 99.8 88.85 M103.45 88.85 L103.6 89.2 103.45 89.55 103.1 89.7 102.75 89.55 102.6 89.2 102.75 88.85 Q102.9 88.7 103.1 88.7 L103.45 88.85 M113.1 95.0 L113.45 94.85 Q113.65 94.85 113.8 95.0 L113.95 95.35 113.8 95.7 113.45 95.85 113.1 95.7 112.95 95.35 113.1 95.0 M112.75 98.7 L113.1 98.85 113.25 99.2 113.1 99.55 112.75 99.7 112.4 99.55 112.25 99.2 112.4 98.85 112.75 98.7 M137.85 77.25 L138.0 77.6 137.85 77.95 137.5 78.1 137.15 77.95 137.0 77.6 137.15 77.25 Q137.3 77.1 137.5 77.1 L137.85 77.25 M133.25 77.05 L133.6 76.9 133.95 77.05 134.1 77.4 133.95 77.75 133.6 77.9 133.25 77.75 133.1 77.4 133.25 77.05 M130.2 74.8 Q130.35 74.65 130.55 74.65 130.75 74.65 130.9 74.8 L131.05 75.15 130.9 75.5 130.55 75.65 130.2 75.5 130.05 75.15 Q130.05 74.95 130.2 74.8 M153.2 87.7 L153.55 87.55 153.9 87.7 154.05 88.05 153.9 88.4 153.55 88.55 153.2 88.4 153.05 88.05 153.2 87.7 M155.95 91.35 L156.1 91.7 155.95 92.05 155.6 92.2 155.25 92.05 155.1 91.7 155.25 91.35 Q155.4 91.2 155.6 91.2 L155.95 91.35 M158.75 93.25 Q158.9 93.1 159.1 93.1 L159.45 93.25 159.6 93.6 159.45 93.95 159.1 94.1 158.75 93.95 158.6 93.6 158.75 93.25 M76.6 5.25 L76.45 5.6 76.1 5.75 75.75 5.6 75.6 5.25 75.75 4.9 Q75.9 4.75 76.1 4.75 76.3 4.75 76.45 4.9 L76.6 5.25 M72.05 5.95 L72.4 6.1 72.55 6.45 72.4 6.8 72.05 6.95 71.7 6.8 71.55 6.45 71.7 6.1 Q71.85 5.95 72.05 5.95 M65.5 9.0 L65.85 9.15 66.0 9.5 65.85 9.85 65.5 10.0 65.15 9.85 65.0 9.5 65.15 9.15 65.5 9.0 M61.25 10.25 Q61.4 10.1 61.6 10.1 L61.95 10.25 62.1 10.6 61.95 10.95 61.6 11.1 61.25 10.95 61.1 10.6 61.25 10.25 M68.7 8.65 Q68.85 8.5 69.05 8.5 69.25 8.5 69.4 8.65 L69.55 9.0 69.4 9.35 69.05 9.5 68.7 9.35 68.55 9.0 Q68.55 8.8 68.7 8.65 M69.3 15.4 Q69.45 15.25 69.65 15.25 69.85 15.25 70.0 15.4 L70.15 15.75 70.0 16.1 69.65 16.25 69.3 16.1 69.15 15.75 Q69.15 15.55 69.3 15.4 M70.7 18.8 L70.85 18.45 71.2 18.3 71.55 18.45 71.7 18.8 71.55 19.15 71.2 19.3 70.85 19.15 70.7 18.8 M68.25 23.75 L68.4 24.1 68.25 24.45 67.9 24.6 67.55 24.45 67.4 24.1 67.55 23.75 Q67.7 23.6 67.9 23.6 L68.25 23.75 M73.15 23.65 Q73.3 23.5 73.5 23.5 L73.85 23.65 74.0 24.0 73.85 24.35 73.5 24.5 73.15 24.35 73.0 24.0 Q73.0 23.8 73.15 23.65 M79.25 20.0 L79.6 19.85 79.95 20.0 80.1 20.35 79.95 20.7 79.6 20.85 79.25 20.7 79.1 20.35 79.25 20.0 M47.95 15.45 L48.1 15.8 47.95 16.15 47.6 16.3 47.25 16.15 47.1 15.8 Q47.1 15.6 47.25 15.45 47.4 15.3 47.6 15.3 47.8 15.3 47.95 15.45 M44.3 18.2 Q44.45 18.05 44.65 18.05 L45.0 18.2 45.15 18.55 45.0 18.9 44.65 19.05 44.3 18.9 44.15 18.55 44.3 18.2 M41.15 20.45 Q41.3 20.3 41.5 20.3 L41.85 20.45 42.0 20.8 41.85 21.15 41.5 21.3 41.15 21.15 41.0 20.8 41.15 20.45 M57.8 12.45 L58.15 12.3 58.5 12.45 58.65 12.8 58.5 13.15 58.15 13.3 57.8 13.15 57.65 12.8 57.8 12.45 M55.1 14.75 Q55.3 14.75 55.45 14.9 L55.6 15.25 55.45 15.6 55.1 15.75 54.75 15.6 54.6 15.25 54.75 14.9 Q54.9 14.75 55.1 14.75 M51.35 15.1 Q51.55 15.1 51.7 15.25 L51.85 15.6 51.7 15.95 51.35 16.1 51.0 15.95 50.85 15.6 Q50.85 15.4 51.0 15.25 51.15 15.1 51.35 15.1 M55.6 21.15 Q55.75 21.0 55.95 21.0 L56.3 21.15 56.45 21.5 56.3 21.85 55.95 22.0 Q55.75 22.0 55.6 21.85 L55.45 21.5 55.6 21.15 M53.25 24.25 L53.6 24.1 Q53.8 24.1 53.95 24.25 L54.1 24.6 53.95 24.95 53.6 25.1 53.25 24.95 53.1 24.6 53.25 24.25 M56.85 25.65 Q57.0 25.5 57.2 25.5 57.4 25.5 57.55 25.65 L57.7 26.0 57.55 26.35 57.2 26.5 56.85 26.35 56.7 26.0 56.85 25.65 M60.5 35.05 Q60.65 34.9 60.85 34.9 L61.2 35.05 61.35 35.4 61.2 35.75 60.85 35.9 60.5 35.75 60.35 35.4 60.5 35.05 M40.75 30.2 L40.6 30.55 40.25 30.7 39.9 30.55 39.75 30.2 Q39.75 30.0 39.9 29.85 40.05 29.7 40.25 29.7 40.45 29.7 40.6 29.85 L40.75 30.2 M41.3 35.2 L41.15 35.55 40.8 35.7 40.45 35.55 40.3 35.2 40.45 34.85 Q40.6 34.7 40.8 34.7 L41.15 34.85 41.3 35.2 M49.45 33.8 L49.6 34.15 49.45 34.5 49.1 34.65 48.75 34.5 48.6 34.15 Q48.6 33.95 48.75 33.8 48.9 33.65 49.1 33.65 49.3 33.65 49.45 33.8 M49.05 37.6 L49.2 37.95 49.05 38.3 48.7 38.45 48.35 38.3 48.2 37.95 48.35 37.6 48.7 37.45 49.05 37.6 M40.75 46.85 Q40.9 46.7 41.1 46.7 41.3 46.7 41.45 46.85 L41.6 47.2 41.45 47.55 41.1 47.7 40.75 47.55 40.6 47.2 Q40.6 47.0 40.75 46.85 M52.25 38.45 L52.4 38.8 52.25 39.15 51.9 39.3 51.55 39.15 51.4 38.8 Q51.4 38.6 51.55 38.45 51.7 38.3 51.9 38.3 L52.25 38.45 M52.45 47.65 Q52.6 47.5 52.8 47.5 L53.15 47.65 53.3 48.0 53.15 48.35 52.8 48.5 Q52.6 48.5 52.45 48.35 L52.3 48.0 52.45 47.65 M71.3 26.4 L71.15 26.75 70.8 26.9 70.45 26.75 70.3 26.4 Q70.3 26.2 70.45 26.05 70.6 25.9 70.8 25.9 L71.15 26.05 71.3 26.4 M75.5 34.7 L75.85 34.55 76.2 34.7 76.35 35.05 76.2 35.4 75.85 35.55 75.5 35.4 75.35 35.05 75.5 34.7 M79.1 32.55 L78.95 32.9 78.6 33.05 78.25 32.9 78.1 32.55 78.25 32.2 Q78.4 32.05 78.6 32.05 L78.95 32.2 79.1 32.55 M78.1 36.5 Q78.25 36.35 78.45 36.35 78.65 36.35 78.8 36.5 L78.95 36.85 78.8 37.2 78.45 37.35 78.1 37.2 77.95 36.85 Q77.95 36.65 78.1 36.5 M61.1 31.05 Q61.25 30.9 61.45 30.9 L61.8 31.05 61.95 31.4 61.8 31.75 61.45 31.9 61.1 31.75 60.95 31.4 61.1 31.05 M63.5 36.4 L63.65 36.05 Q63.8 35.9 64.0 35.9 L64.35 36.05 64.5 36.4 64.35 36.75 64.0 36.9 63.65 36.75 63.5 36.4 M65.75 43.5 Q65.9 43.35 66.1 43.35 L66.45 43.5 66.6 43.85 66.45 44.2 66.1 44.35 65.75 44.2 65.6 43.85 65.75 43.5 M61.15 49.25 L61.3 49.6 61.15 49.95 60.8 50.1 60.45 49.95 60.3 49.6 Q60.3 49.4 60.45 49.25 60.6 49.1 60.8 49.1 61.0 49.1 61.15 49.25 M68.55 45.65 Q68.7 45.5 68.9 45.5 L69.25 45.65 69.4 46.0 69.25 46.35 68.9 46.5 68.55 46.35 68.4 46.0 68.55 45.65 M75.95 42.75 L75.6 42.9 75.25 42.75 75.1 42.4 Q75.1 42.2 75.25 42.05 75.4 41.9 75.6 41.9 L75.95 42.05 76.1 42.4 75.95 42.75 M72.3 44.6 Q72.45 44.45 72.65 44.45 L73.0 44.6 73.15 44.95 73.0 45.3 72.65 45.45 72.3 45.3 72.15 44.95 72.3 44.6 M38.35 22.1 L38.5 22.45 38.35 22.8 38.0 22.95 37.65 22.8 37.5 22.45 37.65 22.1 Q37.8 21.95 38.0 21.95 L38.35 22.1 M5.5 42.35 L5.35 42.7 5.0 42.85 4.65 42.7 4.5 42.35 Q4.5 42.15 4.65 42.0 4.8 41.85 5.0 41.85 5.2 41.85 5.35 42.0 L5.5 42.35 M8.8 41.65 Q8.95 41.5 9.15 41.5 9.35 41.5 9.5 41.65 L9.65 42.0 9.5 42.35 9.15 42.5 8.8 42.35 8.65 42.0 Q8.65 41.8 8.8 41.65 M0.8 42.55 Q0.95 42.4 1.15 42.4 L1.5 42.55 1.65 42.9 1.5 43.25 1.15 43.4 0.8 43.25 0.65 42.9 0.8 42.55 M0.8 46.1 L0.65 46.45 0.3 46.6 Q0.1 46.6 -0.05 46.45 L-0.2 46.1 -0.05 45.75 Q0.1 45.6 0.3 45.6 L0.65 45.75 0.8 46.1 M19.2 38.45 L19.35 38.8 19.2 39.15 18.85 39.3 18.5 39.15 18.35 38.8 18.5 38.45 Q18.65 38.3 18.85 38.3 L19.2 38.45 M17.3 42.25 L17.65 42.1 18.0 42.25 18.15 42.6 18.0 42.95 17.65 43.1 17.3 42.95 17.15 42.6 17.3 42.25 M12.65 43.05 Q12.85 43.05 13.0 43.2 L13.15 43.55 13.0 43.9 12.65 44.05 12.3 43.9 12.15 43.55 12.3 43.2 12.65 43.05 M16.0 45.05 Q16.15 44.9 16.35 44.9 16.55 44.9 16.7 45.05 L16.85 45.4 16.7 45.75 16.35 45.9 16.0 45.75 15.85 45.4 Q15.85 45.2 16.0 45.05 M36.65 25.95 L36.8 26.3 36.65 26.65 36.3 26.8 35.95 26.65 35.8 26.3 Q35.8 26.1 35.95 25.95 36.1 25.8 36.3 25.8 36.5 25.8 36.65 25.95 M30.7 30.45 Q30.85 30.3 31.05 30.3 31.25 30.3 31.4 30.45 L31.55 30.8 31.4 31.15 31.05 31.3 30.7 31.15 30.55 30.8 Q30.55 30.6 30.7 30.45 M34.95 29.45 L35.1 29.8 34.95 30.15 34.6 30.3 34.25 30.15 34.1 29.8 34.25 29.45 Q34.4 29.3 34.6 29.3 L34.95 29.45 M38.75 33.25 L38.9 33.6 38.75 33.95 38.4 34.1 38.05 33.95 37.9 33.6 Q37.9 33.4 38.05 33.25 38.2 33.1 38.4 33.1 38.6 33.1 38.75 33.25 M23.8 32.4 L23.95 32.75 23.8 33.1 23.45 33.25 23.1 33.1 22.95 32.75 Q22.95 32.55 23.1 32.4 23.25 32.25 23.45 32.25 23.65 32.25 23.8 32.4 M21.15 35.05 L21.0 35.4 20.65 35.55 20.3 35.4 20.15 35.05 20.3 34.7 Q20.45 34.55 20.65 34.55 L21.0 34.7 21.15 35.05 M27.65 31.25 L27.8 31.6 27.65 31.95 27.3 32.1 26.95 31.95 26.8 31.6 Q26.8 31.4 26.95 31.25 27.1 31.1 27.3 31.1 L27.65 31.25 M27.15 39.75 Q27.3 39.6 27.5 39.6 L27.85 39.75 28.0 40.1 27.85 40.45 27.5 40.6 27.15 40.45 27.0 40.1 27.15 39.75 M28.85 45.25 L29.2 45.1 29.55 45.25 29.7 45.6 29.55 45.95 29.2 46.1 28.85 45.95 28.7 45.6 28.85 45.25 M25.65 43.7 Q25.8 43.55 26.0 43.55 26.2 43.55 26.35 43.7 L26.5 44.05 26.35 44.4 26.0 44.55 25.65 44.4 25.5 44.05 Q25.5 43.85 25.65 43.7 M36.4 44.0 L36.25 44.35 35.9 44.5 35.55 44.35 35.4 44.0 35.55 43.65 Q35.7 43.5 35.9 43.5 L36.25 43.65 36.4 44.0 M36.7 47.5 Q36.85 47.35 37.05 47.35 L37.4 47.5 37.55 47.85 37.4 48.2 37.05 48.35 Q36.85 48.35 36.7 48.2 L36.55 47.85 36.7 47.5 M24.05 50.7 L24.4 50.55 24.75 50.7 24.9 51.05 24.75 51.4 24.4 51.55 24.05 51.4 23.9 51.05 24.05 50.7 M22.5 53.0 L22.85 53.15 23.0 53.5 22.85 53.85 22.5 54.0 22.15 53.85 22.0 53.5 Q22.0 53.3 22.15 53.15 22.3 53.0 22.5 53.0 M24.55 55.0 Q24.7 54.85 24.9 54.85 25.1 54.85 25.25 55.0 L25.4 55.35 25.25 55.7 24.9 55.85 24.55 55.7 24.4 55.35 Q24.4 55.15 24.55 55.0 M20.7 56.65 L20.55 57.0 20.2 57.15 19.85 57.0 19.7 56.65 19.85 56.3 20.2 56.15 20.55 56.3 20.7 56.65 M26.2 58.65 Q26.35 58.5 26.55 58.5 L26.9 58.65 27.05 59.0 26.9 59.35 26.55 59.5 Q26.35 59.5 26.2 59.35 L26.05 59.0 26.2 58.65 M26.6 62.75 Q26.75 62.6 26.95 62.6 L27.3 62.75 27.45 63.1 27.3 63.45 26.95 63.6 26.6 63.45 26.45 63.1 26.6 62.75 M25.7 66.95 L26.05 66.8 26.4 66.95 26.55 67.3 26.4 67.65 26.05 67.8 25.7 67.65 25.55 67.3 25.7 66.95 M25.55 71.05 Q25.7 70.9 25.9 70.9 L26.25 71.05 26.4 71.4 26.25 71.75 25.9 71.9 25.55 71.75 25.4 71.4 25.55 71.05 M38.25 66.85 L38.4 67.2 38.25 67.55 37.9 67.7 37.55 67.55 37.4 67.2 37.55 66.85 Q37.7 66.7 37.9 66.7 L38.25 66.85 M32.75 65.65 Q32.9 65.5 33.1 65.5 L33.45 65.65 33.6 66.0 33.45 66.35 33.1 66.5 32.75 66.35 32.6 66.0 32.75 65.65 M34.45 68.8 Q34.6 68.65 34.8 68.65 35.0 68.65 35.15 68.8 L35.3 69.15 35.15 69.5 34.8 69.65 34.45 69.5 34.3 69.15 Q34.3 68.95 34.45 68.8 M13.65 59.35 L13.8 59.7 13.65 60.05 13.3 60.2 12.95 60.05 12.8 59.7 12.95 59.35 Q13.1 59.2 13.3 59.2 L13.65 59.35 M17.55 58.75 L17.7 59.1 17.55 59.45 17.2 59.6 16.85 59.45 16.7 59.1 16.85 58.75 17.2 58.6 17.55 58.75 M1.0 49.55 Q1.15 49.4 1.35 49.4 L1.7 49.55 1.85 49.9 1.7 50.25 1.35 50.4 Q1.15 50.4 1.0 50.25 L0.85 49.9 1.0 49.55 M2.95 53.05 Q3.1 52.9 3.3 52.9 3.5 52.9 3.65 53.05 L3.8 53.4 3.65 53.75 3.3 53.9 2.95 53.75 2.8 53.4 Q2.8 53.2 2.95 53.05 M9.15 58.3 L9.5 58.15 Q9.7 58.15 9.85 58.3 L10.0 58.65 9.85 59.0 9.5 59.15 9.15 59.0 9.0 58.65 9.15 58.3 M6.45 56.0 L6.6 56.35 6.45 56.7 6.1 56.85 5.75 56.7 5.6 56.35 5.75 56.0 6.1 55.85 6.45 56.0 M38.8 75.95 L38.65 76.3 38.3 76.45 37.95 76.3 37.8 75.95 37.95 75.6 Q38.1 75.45 38.3 75.45 38.5 75.45 38.65 75.6 L38.8 75.95 M39.55 79.5 L39.7 79.85 39.55 80.2 39.2 80.35 38.85 80.2 38.7 79.85 Q38.7 79.65 38.85 79.5 39.0 79.35 39.2 79.35 39.4 79.35 39.55 79.5 M31.8 82.9 Q31.95 82.75 32.15 82.75 L32.5 82.9 32.65 83.25 32.5 83.6 32.15 83.75 31.8 83.6 31.65 83.25 31.8 82.9 M33.95 86.05 L34.1 86.4 33.95 86.75 33.6 86.9 33.25 86.75 33.1 86.4 Q33.1 86.2 33.25 86.05 33.4 85.9 33.6 85.9 L33.95 86.05 M40.2 83.1 Q40.35 82.95 40.55 82.95 L40.9 83.1 41.05 83.45 40.9 83.8 40.55 83.95 40.2 83.8 40.05 83.45 40.2 83.1 M36.35 84.45 Q36.5 84.3 36.7 84.3 L37.05 84.45 37.2 84.8 37.05 85.15 36.7 85.3 36.35 85.15 36.2 84.8 36.35 84.45 M26.85 75.05 L27.0 75.4 26.85 75.75 26.5 75.9 26.15 75.75 26.0 75.4 26.15 75.05 26.5 74.9 26.85 75.05 M26.85 79.05 Q27.0 78.9 27.2 78.9 27.4 78.9 27.55 79.05 L27.7 79.4 27.55 79.75 27.2 79.9 26.85 79.75 26.7 79.4 Q26.7 79.2 26.85 79.05 M27.45 83.05 Q27.6 82.9 27.8 82.9 28.0 82.9 28.15 83.05 L28.3 83.4 28.15 83.75 27.8 83.9 27.45 83.75 27.3 83.4 27.45 83.05 M28.4 87.3 L28.25 87.65 27.9 87.8 27.55 87.65 27.4 87.3 Q27.4 87.1 27.55 86.95 27.7 86.8 27.9 86.8 28.1 86.8 28.25 86.95 L28.4 87.3 M26.95 90.75 Q27.1 90.6 27.3 90.6 L27.65 90.75 27.8 91.1 27.65 91.45 27.3 91.6 26.95 91.45 26.8 91.1 Q26.8 90.9 26.95 90.75 M24.3 98.5 Q24.5 98.5 24.65 98.65 L24.8 99.0 24.65 99.35 24.3 99.5 23.95 99.35 23.8 99.0 Q23.8 98.8 23.95 98.65 24.1 98.5 24.3 98.5 M25.1 94.8 L25.45 94.65 25.8 94.8 25.95 95.15 25.8 95.5 25.45 95.65 25.1 95.5 24.95 95.15 25.1 94.8 M29.55 96.35 Q29.7 96.2 29.9 96.2 30.1 96.2 30.25 96.35 L30.4 96.7 30.25 97.05 29.9 97.2 29.55 97.05 29.4 96.7 29.55 96.35 M33.15 94.35 L33.0 94.7 32.65 94.85 32.3 94.7 32.15 94.35 32.3 94.0 Q32.45 93.85 32.65 93.85 L33.0 94.0 33.15 94.35 M34.8 97.45 L34.95 97.1 Q35.1 96.95 35.3 96.95 L35.65 97.1 35.8 97.45 35.65 97.8 35.3 97.95 34.95 97.8 34.8 97.45 M40.15 98.1 Q40.15 97.9 40.3 97.75 40.45 97.6 40.65 97.6 40.85 97.6 41.0 97.75 L41.15 98.1 41.0 98.45 40.65 98.6 40.3 98.45 40.15 98.1 M76.5 51.1 L76.35 51.45 76.0 51.6 75.65 51.45 75.5 51.1 75.65 50.75 76.0 50.6 76.35 50.75 76.5 51.1 M74.65 53.95 L74.8 54.3 74.65 54.65 74.3 54.8 73.95 54.65 73.8 54.3 Q73.8 54.1 73.95 53.95 74.1 53.8 74.3 53.8 74.5 53.8 74.65 53.95 M73.7 57.85 Q73.85 57.7 74.05 57.7 L74.4 57.85 74.55 58.2 74.4 58.55 74.05 58.7 73.7 58.55 73.55 58.2 73.7 57.85 M77.3 60.0 L77.15 60.35 76.8 60.5 76.45 60.35 76.3 60.0 Q76.3 59.8 76.45 59.65 76.6 59.5 76.8 59.5 77.0 59.5 77.15 59.65 L77.3 60.0 M65.45 60.6 Q65.6 60.45 65.8 60.45 L66.15 60.6 66.3 60.95 66.15 61.3 65.8 61.45 65.45 61.3 65.3 60.95 65.45 60.6 M69.95 62.05 L70.1 62.4 69.95 62.75 69.6 62.9 Q69.4 62.9 69.25 62.75 L69.1 62.4 69.25 62.05 Q69.4 61.9 69.6 61.9 L69.95 62.05 M62.75 68.85 Q62.9 68.7 63.1 68.7 L63.45 68.85 63.6 69.2 63.45 69.55 63.1 69.7 62.75 69.55 62.6 69.2 62.75 68.85 M58.0 51.9 L58.15 52.25 58.0 52.6 57.65 52.75 57.3 52.6 57.15 52.25 Q57.15 52.05 57.3 51.9 57.45 51.75 57.65 51.75 57.85 51.75 58.0 51.9 M53.75 51.35 Q53.9 51.2 54.1 51.2 L54.45 51.35 54.6 51.7 54.45 52.05 54.1 52.2 53.75 52.05 53.6 51.7 53.75 51.35 M40.8 54.25 Q40.95 54.1 41.15 54.1 L41.5 54.25 41.65 54.6 41.5 54.95 41.15 55.1 40.8 54.95 40.65 54.6 40.8 54.25 M40.65 58.2 L41.0 58.05 Q41.2 58.05 41.35 58.2 L41.5 58.55 41.35 58.9 41.0 59.05 40.65 58.9 40.5 58.55 40.65 58.2 M44.65 59.6 L44.8 59.95 44.65 60.3 44.3 60.45 43.95 60.3 43.8 59.95 43.95 59.6 Q44.1 59.45 44.3 59.45 L44.65 59.6 M48.75 58.05 L48.9 58.4 48.75 58.75 48.4 58.9 48.05 58.75 47.9 58.4 48.05 58.05 Q48.2 57.9 48.4 57.9 L48.75 58.05 M49.1 67.9 Q49.3 67.9 49.45 68.05 L49.6 68.4 49.45 68.75 49.1 68.9 48.75 68.75 48.6 68.4 Q48.6 68.2 48.75 68.05 48.9 67.9 49.1 67.9 M43.9 67.7 L43.95 67.7 43.95 67.6 Q43.95 67.4 44.1 67.25 44.25 67.1 44.45 67.1 44.65 67.1 44.8 67.25 L44.95 67.6 44.8 67.95 44.45 68.1 44.4 68.1 44.4 68.2 44.25 68.55 43.9 68.7 43.55 68.55 43.4 68.2 43.55 67.85 43.9 67.7 M45.2 68.7 L45.35 68.35 Q45.5 68.2 45.7 68.2 L46.05 68.35 46.2 68.7 46.05 69.05 45.7 69.2 45.35 69.05 45.2 68.7 M43.55 71.85 L43.9 71.7 44.25 71.85 44.4 72.2 44.25 72.55 43.9 72.7 43.55 72.55 43.4 72.2 43.55 71.85 M59.15 67.35 Q59.3 67.2 59.5 67.2 L59.85 67.35 60.0 67.7 59.85 68.05 59.5 68.2 59.15 68.05 59.0 67.7 59.15 67.35 M57.85 73.65 L58.0 74.0 57.85 74.35 57.5 74.5 57.15 74.35 57.0 74.0 Q57.0 73.8 57.15 73.65 57.3 73.5 57.5 73.5 57.7 73.5 57.85 73.65 M55.15 76.65 L55.0 77.0 54.65 77.15 54.3 77.0 54.15 76.65 54.3 76.3 54.65 76.15 Q54.85 76.15 55.0 76.3 L55.15 76.65 M51.55 78.55 L51.9 78.7 52.05 79.05 51.9 79.4 51.55 79.55 51.2 79.4 51.05 79.05 51.2 78.7 Q51.35 78.55 51.55 78.55 M52.35 80.05 Q52.5 79.9 52.7 79.9 L53.05 80.05 53.2 80.4 53.05 80.75 52.7 80.9 52.35 80.75 52.2 80.4 52.35 80.05 M51.4 84.35 L51.25 84.7 50.9 84.85 50.55 84.7 50.4 84.35 50.55 84.0 Q50.7 83.85 50.9 83.85 51.1 83.85 51.25 84.0 L51.4 84.35 M48.05 78.6 L48.2 78.95 48.05 79.3 47.7 79.45 47.35 79.3 47.2 78.95 Q47.2 78.75 47.35 78.6 47.5 78.45 47.7 78.45 L48.05 78.6 M44.2 75.9 Q44.35 75.75 44.55 75.75 L44.9 75.9 45.05 76.25 44.9 76.6 44.55 76.75 44.2 76.6 44.05 76.25 Q44.05 76.05 44.2 75.9 M49.15 87.55 L49.3 87.9 49.15 88.25 48.8 88.4 48.45 88.25 48.3 87.9 48.45 87.55 Q48.6 87.4 48.8 87.4 49.0 87.4 49.15 87.55 M45.65 90.35 L45.3 90.5 44.95 90.35 44.8 90.0 Q44.8 89.8 44.95 89.65 45.1 89.5 45.3 89.5 45.5 89.5 45.65 89.65 L45.8 90.0 45.65 90.35 M42.0 87.0 Q42.15 86.85 42.35 86.85 42.55 86.85 42.7 87.0 L42.85 87.35 42.7 87.7 42.35 87.85 42.0 87.7 41.85 87.35 Q41.85 87.15 42.0 87.0 M43.45 94.45 L43.6 94.8 43.45 95.15 43.1 95.3 42.75 95.15 42.6 94.8 42.75 94.45 43.1 94.3 Q43.3 94.3 43.45 94.45 M59.5 91.4 Q59.65 91.25 59.85 91.25 L60.2 91.4 60.35 91.75 60.2 92.1 59.85 92.25 59.5 92.1 59.35 91.75 Q59.35 91.55 59.5 91.4 M55.35 98.35 L55.7 98.2 Q55.9 98.2 56.05 98.35 L56.2 98.7 56.05 99.05 55.7 99.2 55.35 99.05 55.2 98.7 55.35 98.35 M57.35 94.9 Q57.5 94.75 57.7 94.75 L58.05 94.9 58.2 95.25 58.05 95.6 57.7 95.75 57.35 95.6 57.2 95.25 57.35 94.9 M73.15 82.05 Q73.3 81.9 73.5 81.9 L73.85 82.05 74.0 82.4 73.85 82.75 73.5 82.9 73.15 82.75 73.0 82.4 Q73.0 82.2 73.15 82.05 M63.35 85.85 Q63.5 85.7 63.7 85.7 L64.05 85.85 64.2 86.2 64.05 86.55 63.7 86.7 63.35 86.55 63.2 86.2 63.35 85.85 M69.65 83.05 Q69.85 83.05 70.0 83.2 L70.15 83.55 70.0 83.9 69.65 84.05 69.3 83.9 69.15 83.55 Q69.15 83.35 69.3 83.2 69.45 83.05 69.65 83.05 M66.85 80.65 L67.0 81.0 66.85 81.35 66.5 81.5 66.15 81.35 66.0 81.0 Q66.0 80.8 66.15 80.65 66.3 80.5 66.5 80.5 66.7 80.5 66.85 80.65 M66.8 83.0 L66.65 83.35 66.3 83.5 65.95 83.35 65.8 83.0 Q65.8 82.8 65.95 82.65 66.1 82.5 66.3 82.5 66.5 82.5 66.65 82.65 L66.8 83.0 M61.25 88.8 Q61.4 88.65 61.6 88.65 L61.95 88.8 62.1 89.15 61.95 89.5 61.6 89.65 61.25 89.5 61.1 89.15 61.25 88.8 M63.9 92.05 Q64.05 91.9 64.25 91.9 L64.6 92.05 64.75 92.4 64.6 92.75 64.25 92.9 63.9 92.75 63.75 92.4 63.9 92.05 M67.15 95.25 L67.3 95.6 67.15 95.95 66.8 96.1 66.45 95.95 66.3 95.6 66.45 95.25 Q66.6 95.1 66.8 95.1 L67.15 95.25 M69.35 98.35 L69.7 98.2 70.05 98.35 70.2 98.7 70.05 99.05 69.7 99.2 69.35 99.05 69.2 98.7 69.35 98.35 M76.55 102.55 L76.7 102.9 76.55 103.25 76.2 103.4 75.85 103.25 75.7 102.9 Q75.7 102.7 75.85 102.55 76.0 102.4 76.2 102.4 76.4 102.4 76.55 102.55 M79.85 102.45 L80.2 102.3 80.55 102.45 80.7 102.8 80.55 103.15 80.2 103.3 79.85 103.15 79.7 102.8 79.85 102.45 M72.35 100.85 L72.7 100.7 73.05 100.85 73.2 101.2 73.05 101.55 72.7 101.7 72.35 101.55 72.2 101.2 72.35 100.85 M78.0 106.65 Q78.15 106.5 78.35 106.5 L78.7 106.65 78.85 107.0 78.7 107.35 78.35 107.5 78.0 107.35 77.85 107.0 78.0 106.65 M62.35 104.5 Q62.5 104.35 62.7 104.35 62.9 104.35 63.05 104.5 L63.2 104.85 63.05 105.2 62.7 105.35 62.35 105.2 62.2 104.85 Q62.2 104.65 62.35 104.5 M66.65 106.45 L66.8 106.8 66.65 107.15 66.3 107.3 65.95 107.15 65.8 106.8 Q65.8 106.6 65.95 106.45 66.1 106.3 66.3 106.3 66.5 106.3 66.65 106.45 M68.65 112.45 L68.8 112.8 68.65 113.15 68.3 113.3 67.95 113.15 67.8 112.8 67.95 112.45 68.3 112.3 Q68.5 112.3 68.65 112.45 M65.45 114.4 L65.6 114.75 65.45 115.1 65.1 115.25 64.75 115.1 64.6 114.75 Q64.6 114.55 64.75 114.4 64.9 114.25 65.1 114.25 L65.45 114.4 M61.5 112.35 Q61.65 112.2 61.85 112.2 62.05 112.2 62.2 112.35 L62.35 112.7 62.2 113.05 61.85 113.2 61.5 113.05 61.35 112.7 Q61.35 112.5 61.5 112.35 M61.65 121.9 L61.5 122.25 61.15 122.4 60.8 122.25 60.65 121.9 60.8 121.55 61.15 121.4 61.5 121.55 61.65 121.9 M67.9 123.5 L68.25 123.65 68.4 124.0 68.25 124.35 67.9 124.5 67.55 124.35 67.4 124.0 67.55 123.65 Q67.7 123.5 67.9 123.5 M79.55 112.45 Q79.7 112.3 79.9 112.3 L80.25 112.45 80.4 112.8 80.25 113.15 79.9 113.3 79.55 113.15 79.4 112.8 79.55 112.45 M76.15 113.2 L76.0 113.55 75.65 113.7 75.3 113.55 75.15 113.2 75.3 112.85 75.65 112.7 Q75.85 112.7 76.0 112.85 L76.15 113.2 M71.95 119.25 Q72.1 119.1 72.3 119.1 L72.65 119.25 72.8 119.6 72.65 119.95 72.3 120.1 71.95 119.95 71.8 119.6 71.95 119.25 M74.0 123.4 L74.15 123.75 74.0 124.1 73.65 124.25 73.3 124.1 73.15 123.75 Q73.15 123.55 73.3 123.4 73.45 123.25 73.65 123.25 73.85 123.25 74.0 123.4 M77.45 123.25 L77.6 123.6 77.45 123.95 77.1 124.1 76.75 123.95 76.6 123.6 Q76.6 123.4 76.75 123.25 76.9 123.1 77.1 123.1 L77.45 123.25 M79.7 121.6 L80.05 121.45 80.4 121.6 80.55 121.95 80.4 122.3 80.05 122.45 79.7 122.3 79.55 121.95 79.7 121.6 M60.45 101.85 L60.6 102.2 60.45 102.55 60.1 102.7 59.75 102.55 59.6 102.2 59.75 101.85 60.1 101.7 60.45 101.85 M54.1 101.8 L54.25 102.15 54.1 102.5 53.75 102.65 53.4 102.5 53.25 102.15 53.4 101.8 Q53.55 101.65 53.75 101.65 L54.1 101.8 M54.4 103.9 Q54.55 103.75 54.75 103.75 54.95 103.75 55.1 103.9 L55.25 104.25 55.1 104.6 54.75 104.75 54.4 104.6 54.25 104.25 Q54.25 104.05 54.4 103.9 M54.9 107.8 Q55.05 107.65 55.25 107.65 L55.6 107.8 55.75 108.15 55.6 108.5 55.25 108.65 54.9 108.5 54.75 108.15 54.9 107.8 M51.9 106.15 L51.55 106.0 51.4 105.65 Q51.4 105.45 51.55 105.3 51.7 105.15 51.9 105.15 L52.25 105.3 52.4 105.65 52.25 106.0 51.9 106.15 M41.2 105.35 Q41.35 105.2 41.55 105.2 41.75 105.2 41.9 105.35 L42.05 105.7 41.9 106.05 41.55 106.2 41.2 106.05 41.05 105.7 Q41.05 105.5 41.2 105.35 M50.55 108.65 L50.7 109.0 50.55 109.35 50.2 109.5 49.85 109.35 49.7 109.0 49.85 108.65 50.2 108.5 50.55 108.65 M48.35 112.3 L48.7 112.15 49.05 112.3 49.2 112.65 49.05 113.0 48.7 113.15 48.35 113.0 48.2 112.65 48.35 112.3 M47.7 116.0 L47.85 116.35 47.7 116.7 47.35 116.85 47.0 116.7 46.85 116.35 47.0 116.0 Q47.15 115.85 47.35 115.85 L47.7 116.0 M45.15 119.5 Q45.3 119.35 45.5 119.35 45.7 119.35 45.85 119.5 L46.0 119.85 45.85 120.2 45.5 120.35 45.15 120.2 45.0 119.85 Q45.0 119.65 45.15 119.5 M43.8 123.0 L44.15 122.85 Q44.35 122.85 44.5 123.0 L44.65 123.35 44.5 123.7 44.15 123.85 43.8 123.7 43.65 123.35 43.8 123.0 M56.4 112.05 L56.25 112.4 55.9 112.55 55.55 112.4 55.4 112.05 55.55 111.7 55.9 111.55 56.25 111.7 56.4 112.05 M56.95 115.65 L57.1 116.0 56.95 116.35 56.6 116.5 56.25 116.35 56.1 116.0 Q56.1 115.8 56.25 115.65 56.4 115.5 56.6 115.5 56.8 115.5 56.95 115.65 M57.55 119.7 L57.7 120.05 57.55 120.4 57.2 120.55 56.85 120.4 56.7 120.05 56.85 119.7 Q57.0 119.55 57.2 119.55 57.4 119.55 57.55 119.7 M57.45 123.8 L57.8 123.65 Q58.0 123.65 58.15 123.8 L58.3 124.15 58.15 124.5 57.8 124.65 57.45 124.5 57.3 124.15 57.45 123.8 M58.15 127.8 L58.5 127.95 58.65 128.3 58.5 128.65 58.15 128.8 57.8 128.65 57.65 128.3 57.8 127.95 58.15 127.8 M58.9 131.8 Q59.05 131.65 59.25 131.65 L59.6 131.8 59.75 132.15 59.6 132.5 59.25 132.65 58.9 132.5 58.75 132.15 Q58.75 131.95 58.9 131.8 M60.15 135.45 Q60.3 135.3 60.5 135.3 L60.85 135.45 61.0 135.8 60.85 136.15 60.5 136.3 60.15 136.15 60.0 135.8 60.15 135.45 M44.4 126.85 Q44.55 126.7 44.75 126.7 L45.1 126.85 45.25 127.2 45.1 127.55 44.75 127.7 44.4 127.55 44.25 127.2 44.4 126.85 M45.0 130.7 Q45.15 130.55 45.35 130.55 L45.7 130.7 45.85 131.05 45.7 131.4 45.35 131.55 45.0 131.4 44.85 131.05 45.0 130.7 M45.35 135.05 L45.5 134.7 Q45.65 134.55 45.85 134.55 L46.2 134.7 46.35 135.05 46.2 135.4 45.85 135.55 45.5 135.4 45.35 135.05 M46.45 139.05 L46.3 139.4 45.95 139.55 45.6 139.4 45.45 139.05 Q45.45 138.85 45.6 138.7 45.75 138.55 45.95 138.55 46.15 138.55 46.3 138.7 L46.45 139.05 M45.4 142.65 Q45.55 142.5 45.75 142.5 45.95 142.5 46.1 142.65 L46.25 143.0 46.1 143.35 45.75 143.5 45.4 143.35 45.25 143.0 Q45.25 142.8 45.4 142.65 M44.85 146.6 L45.2 146.45 Q45.4 146.45 45.55 146.6 L45.7 146.95 45.55 147.3 45.2 147.45 44.85 147.3 44.7 146.95 44.85 146.6 M78.1 125.25 L77.95 125.6 77.6 125.75 77.25 125.6 77.1 125.25 Q77.1 125.05 77.25 124.9 77.4 124.75 77.6 124.75 77.8 124.75 77.95 124.9 L78.1 125.25 M76.4 128.9 L76.25 129.25 75.9 129.4 Q75.7 129.4 75.55 129.25 L75.4 128.9 75.55 128.55 Q75.7 128.4 75.9 128.4 L76.25 128.55 76.4 128.9 M74.5 132.7 Q74.65 132.55 74.85 132.55 L75.2 132.7 75.35 133.05 75.2 133.4 74.85 133.55 Q74.65 133.55 74.5 133.4 L74.35 133.05 74.5 132.7 M63.7 124.35 Q63.85 124.2 64.05 124.2 L64.4 124.35 64.55 124.7 64.4 125.05 64.05 125.2 63.7 125.05 63.55 124.7 Q63.55 124.5 63.7 124.35 M61.55 139.0 Q61.7 138.85 61.9 138.85 L62.25 139.0 62.4 139.35 62.25 139.7 61.9 139.85 61.55 139.7 61.4 139.35 61.55 139.0 M63.8 143.05 L63.65 143.4 63.3 143.55 Q63.1 143.55 62.95 143.4 L62.8 143.05 62.95 142.7 Q63.1 142.55 63.3 142.55 L63.65 142.7 63.8 143.05 M63.55 146.7 Q63.7 146.55 63.9 146.55 L64.25 146.7 64.4 147.05 64.25 147.4 63.9 147.55 63.55 147.4 63.4 147.05 63.55 146.7 M74.1 136.75 Q74.25 136.6 74.45 136.6 74.65 136.6 74.8 136.75 L74.95 137.1 74.8 137.45 74.45 137.6 74.1 137.45 73.95 137.1 Q73.95 136.9 74.1 136.75 M74.65 140.75 Q74.8 140.6 75.0 140.6 L75.35 140.75 75.5 141.1 75.35 141.45 75.0 141.6 74.65 141.45 74.5 141.1 Q74.5 140.9 74.65 140.75 M77.95 148.25 L78.3 148.4 78.45 148.75 78.3 149.1 77.95 149.25 77.6 149.1 77.45 148.75 77.6 148.4 77.95 148.25 M76.85 144.9 L76.7 145.25 76.35 145.4 76.0 145.25 75.85 144.9 Q75.85 144.7 76.0 144.55 76.15 144.4 76.35 144.4 76.55 144.4 76.7 144.55 L76.85 144.9 M38.0 99.45 Q38.15 99.3 38.35 99.3 L38.7 99.45 38.85 99.8 38.7 100.15 38.35 100.3 38.0 100.15 37.85 99.8 38.0 99.45 M33.85 101.25 L34.0 101.6 33.85 101.95 33.5 102.1 33.15 101.95 33.0 101.6 Q33.0 101.4 33.15 101.25 33.3 101.1 33.5 101.1 33.7 101.1 33.85 101.25 M32.7 109.55 Q32.85 109.4 33.05 109.4 33.25 109.4 33.4 109.55 L33.55 109.9 33.4 110.25 33.05 110.4 32.7 110.25 32.55 109.9 32.7 109.55 M36.2 111.05 Q36.4 111.05 36.55 111.2 L36.7 111.55 36.55 111.9 36.2 112.05 35.85 111.9 35.7 111.55 35.85 111.2 Q36.0 111.05 36.2 111.05 M39.85 108.95 L40.0 109.3 39.85 109.65 39.5 109.8 39.15 109.65 39.0 109.3 39.15 108.95 Q39.3 108.8 39.5 108.8 L39.85 108.95 M29.55 100.35 Q29.7 100.2 29.9 100.2 30.1 100.2 30.25 100.35 L30.4 100.7 30.25 101.05 29.9 101.2 29.55 101.05 29.4 100.7 29.55 100.35 M24.05 102.55 L24.4 102.4 24.75 102.55 24.9 102.9 24.75 103.25 24.4 103.4 24.05 103.25 23.9 102.9 24.05 102.55 M24.25 106.6 L24.4 106.95 24.25 107.3 23.9 107.45 23.55 107.3 23.4 106.95 Q23.4 106.75 23.55 106.6 23.7 106.45 23.9 106.45 24.1 106.45 24.25 106.6 M22.2 110.75 Q22.35 110.6 22.55 110.6 22.75 110.6 22.9 110.75 L23.05 111.1 22.9 111.45 22.55 111.6 22.2 111.45 22.05 111.1 22.2 110.75 M25.6 112.25 Q25.75 112.1 25.95 112.1 26.15 112.1 26.3 112.25 L26.45 112.6 26.3 112.95 25.95 113.1 25.6 112.95 25.45 112.6 Q25.45 112.4 25.6 112.25 M26.0 116.3 Q26.15 116.15 26.35 116.15 L26.7 116.3 26.85 116.65 26.7 117.0 26.35 117.15 26.0 117.0 25.85 116.65 26.0 116.3 M29.45 117.25 L29.6 117.6 29.45 117.95 29.1 118.1 28.75 117.95 28.6 117.6 Q28.6 117.4 28.75 117.25 28.9 117.1 29.1 117.1 29.3 117.1 29.45 117.25 M20.75 114.5 Q20.9 114.35 21.1 114.35 L21.45 114.5 21.6 114.85 21.45 115.2 21.1 115.35 20.75 115.2 20.6 114.85 20.75 114.5 M20.65 118.6 L20.8 118.95 20.65 119.3 20.3 119.45 19.95 119.3 19.8 118.95 Q19.8 118.75 19.95 118.6 20.1 118.45 20.3 118.45 20.5 118.45 20.65 118.6 M21.25 121.8 Q21.4 121.65 21.6 121.65 21.8 121.65 21.95 121.8 L22.1 122.15 21.95 122.5 21.6 122.65 21.25 122.5 21.1 122.15 Q21.1 121.95 21.25 121.8 M33.95 121.65 Q34.1 121.5 34.3 121.5 L34.65 121.65 34.8 122.0 34.65 122.35 34.3 122.5 33.95 122.35 33.8 122.0 33.95 121.65 M20.15 125.65 Q20.3 125.5 20.5 125.5 L20.85 125.65 21.0 125.85 21.0 126.0 20.95 126.25 20.95 126.3 20.95 126.4 20.8 126.65 20.45 126.8 20.1 126.65 19.95 126.3 20.0 126.1 20.0 126.0 20.15 125.65 M31.45 124.65 Q31.6 124.5 31.8 124.5 L32.15 124.65 32.3 125.0 32.15 125.35 31.8 125.5 Q31.6 125.5 31.45 125.35 L31.3 125.0 31.45 124.65 M27.35 123.95 L27.7 123.8 28.05 123.95 28.2 124.3 28.05 124.65 27.7 124.8 27.35 124.65 27.2 124.3 27.35 123.95 M21.4 129.9 L21.55 130.25 21.4 130.6 21.05 130.75 20.7 130.6 20.55 130.25 20.7 129.9 21.05 129.75 Q21.25 129.75 21.4 129.9 M23.35 129.1 Q23.5 128.95 23.7 128.95 23.9 128.95 24.05 129.1 L24.2 129.45 24.05 129.8 23.7 129.95 23.35 129.8 23.2 129.45 Q23.2 129.25 23.35 129.1 M22.3 133.4 Q22.45 133.25 22.65 133.25 22.85 133.25 23.0 133.4 L23.15 133.75 23.0 134.1 22.65 134.25 22.3 134.1 22.15 133.75 Q22.15 133.55 22.3 133.4 M29.5 130.9 L29.15 130.75 29.0 130.4 29.15 130.05 Q29.3 129.9 29.5 129.9 L29.85 130.05 30.0 130.4 29.85 130.75 29.5 130.9 M26.55 131.9 Q26.7 131.75 26.9 131.75 L27.25 131.9 27.4 132.25 27.25 132.6 26.9 132.75 26.55 132.6 26.4 132.25 26.55 131.9 M27.2 139.85 L27.55 139.7 27.9 139.85 28.05 140.2 27.9 140.55 27.55 140.7 27.2 140.55 27.05 140.2 27.2 139.85 M25.25 136.75 L25.4 137.1 25.25 137.45 24.9 137.6 24.55 137.45 24.4 137.1 Q24.4 136.9 24.55 136.75 24.7 136.6 24.9 136.6 25.1 136.6 25.25 136.75 M29.15 143.45 Q29.3 143.3 29.5 143.3 L29.85 143.45 30.0 143.8 29.85 144.15 29.5 144.3 29.15 144.15 29.0 143.8 29.15 143.45 M30.7 147.35 Q30.85 147.2 31.05 147.2 31.25 147.2 31.4 147.35 L31.55 147.7 31.4 148.05 31.05 148.2 30.7 148.05 30.55 147.7 Q30.55 147.5 30.7 147.35 M32.3 151.45 L32.45 151.8 32.3 152.15 31.95 152.3 31.6 152.15 31.45 151.8 Q31.45 151.6 31.6 151.45 31.75 151.3 31.95 151.3 L32.3 151.45 M32.85 155.45 L33.0 155.8 32.85 156.15 32.5 156.3 32.15 156.15 32.0 155.8 32.15 155.45 Q32.3 155.3 32.5 155.3 L32.85 155.45 M32.85 159.6 Q33.0 159.45 33.2 159.45 L33.55 159.6 33.7 159.95 33.55 160.3 33.2 160.45 32.85 160.3 32.7 159.95 32.85 159.6 M38.05 160.3 Q38.2 160.15 38.4 160.15 38.6 160.15 38.75 160.3 L38.9 160.65 38.75 161.0 38.4 161.15 38.05 161.0 37.9 160.65 Q37.9 160.45 38.05 160.3 M40.4 161.65 L40.75 161.5 41.1 161.65 41.25 162.0 41.1 162.35 40.75 162.5 40.4 162.35 40.25 162.0 40.4 161.65 M35.65 162.25 Q35.8 162.1 36.0 162.1 L36.35 162.25 36.5 162.6 36.35 162.95 36.0 163.1 Q35.8 163.1 35.65 162.95 L35.5 162.6 35.65 162.25 M79.45 153.0 L79.3 153.35 78.95 153.5 78.6 153.35 78.45 153.0 78.6 152.65 Q78.75 152.5 78.95 152.5 L79.3 152.65 79.45 153.0 M74.55 155.3 L74.7 155.65 74.55 156.0 74.2 156.15 73.85 156.0 73.7 155.65 73.85 155.3 Q74.0 155.15 74.2 155.15 L74.55 155.3 M71.15 155.05 Q71.3 154.9 71.5 154.9 L71.85 155.05 72.0 155.4 71.85 155.75 71.5 155.9 71.15 155.75 71.0 155.4 71.15 155.05 M77.55 155.35 Q77.7 155.2 77.9 155.2 L78.25 155.35 78.4 155.7 78.25 156.05 77.9 156.2 77.55 156.05 77.4 155.7 77.55 155.35 M64.25 150.7 Q64.4 150.55 64.6 150.55 L64.95 150.7 65.1 151.05 64.95 151.4 64.6 151.55 64.25 151.4 64.1 151.05 64.25 150.7 M65.3 154.75 Q65.45 154.6 65.65 154.6 L66.0 154.75 66.15 155.1 66.0 155.45 65.65 155.6 65.3 155.45 65.15 155.1 65.3 154.75 M68.85 157.1 L68.7 157.45 68.35 157.6 68.0 157.45 67.85 157.1 68.0 156.75 Q68.15 156.6 68.35 156.6 L68.7 156.75 68.85 157.1 M45.95 154.15 Q46.1 154.0 46.3 154.0 L46.65 154.15 46.8 154.5 46.65 154.85 46.3 155.0 45.95 154.85 45.8 154.5 45.95 154.15 M44.1 150.55 Q44.25 150.4 44.45 150.4 44.65 150.4 44.8 150.55 L44.95 150.9 44.8 151.25 44.45 151.4 44.1 151.25 43.95 150.9 Q43.95 150.7 44.1 150.55 M44.7 160.25 L44.85 160.6 44.7 160.95 44.35 161.1 44.0 160.95 43.85 160.6 44.0 160.25 44.35 160.1 44.7 160.25 M47.25 157.6 L47.6 157.75 47.75 158.1 47.6 158.45 47.25 158.6 46.9 158.45 46.75 158.1 Q46.75 157.9 46.9 157.75 47.05 157.6 47.25 157.6 M159.15 110.45 Q159.3 110.3 159.5 110.3 159.7 110.3 159.85 110.45 L160.0 110.8 159.85 111.15 159.5 111.3 159.15 111.15 159.0 110.8 Q159.0 110.6 159.15 110.45 M147.4 115.45 L147.25 115.8 146.9 115.95 146.55 115.8 146.4 115.45 Q146.4 115.25 146.55 115.1 146.7 114.95 146.9 114.95 147.1 114.95 147.25 115.1 L147.4 115.45 M144.6 112.95 L144.25 113.1 143.9 112.95 143.75 112.6 143.9 112.25 144.25 112.1 144.6 112.25 144.75 112.6 144.6 112.95 M149.65 118.75 L149.3 118.9 148.95 118.75 148.8 118.4 148.95 118.05 Q149.1 117.9 149.3 117.9 L149.65 118.05 149.8 118.4 149.65 118.75 M150.65 121.75 L151.0 121.6 151.35 121.75 151.5 122.1 151.35 122.45 151.0 122.6 150.65 122.45 150.5 122.1 150.65 121.75 M157.5 113.2 L157.65 113.55 157.5 113.9 157.15 114.05 156.8 113.9 156.65 113.55 156.8 113.2 Q156.95 113.05 157.15 113.05 L157.5 113.2 M153.1 111.5 Q153.25 111.35 153.45 111.35 153.65 111.35 153.8 111.5 L153.95 111.85 153.8 112.2 153.45 112.35 153.1 112.2 152.95 111.85 Q152.95 111.65 153.1 111.5 M132.1 99.35 L131.95 99.7 131.6 99.85 131.25 99.7 131.1 99.35 Q131.1 99.15 131.25 99.0 131.4 98.85 131.6 98.85 131.8 98.85 131.95 99.0 L132.1 99.35 M131.8 103.4 L131.65 103.75 131.3 103.9 130.95 103.75 130.8 103.4 130.95 103.05 131.3 102.9 Q131.5 102.9 131.65 103.05 L131.8 103.4 M135.6 104.4 L135.45 104.75 135.1 104.9 134.75 104.75 134.6 104.4 134.75 104.05 Q134.9 103.9 135.1 103.9 L135.45 104.05 135.6 104.4 M133.05 111.05 L133.2 111.4 133.05 111.75 132.7 111.9 132.35 111.75 132.2 111.4 132.35 111.05 132.7 110.9 133.05 111.05 M125.2 106.5 Q125.35 106.35 125.55 106.35 125.75 106.35 125.9 106.5 L126.05 106.85 125.9 107.2 125.55 107.35 125.2 107.2 125.05 106.85 Q125.05 106.65 125.2 106.5 M122.15 107.05 L122.0 107.4 121.65 107.55 121.3 107.4 121.15 107.05 121.3 106.7 Q121.45 106.55 121.65 106.55 L122.0 106.7 122.15 107.05 M128.75 108.7 Q128.9 108.55 129.1 108.55 L129.45 108.7 129.6 109.05 129.45 109.4 129.1 109.55 128.75 109.4 128.6 109.05 128.75 108.7 M140.2 112.55 Q140.35 112.4 140.55 112.4 L140.9 112.55 141.05 112.9 140.9 113.25 140.55 113.4 140.2 113.25 140.05 112.9 140.2 112.55 M136.85 113.1 L136.5 113.25 136.15 113.1 136.0 112.75 Q136.0 112.55 136.15 112.4 136.3 112.25 136.5 112.25 L136.85 112.4 137.0 112.75 136.85 113.1 M161.85 124.05 L162.0 124.4 161.85 124.75 161.5 124.9 161.15 124.75 161.0 124.4 161.15 124.05 161.5 123.9 161.85 124.05 M157.65 125.05 Q157.8 124.9 158.0 124.9 158.2 124.9 158.35 125.05 L158.5 125.4 158.35 125.75 158.0 125.9 157.65 125.75 157.5 125.4 157.65 125.05 M153.25 125.35 L153.4 125.7 153.25 126.05 152.9 126.2 152.55 126.05 152.4 125.7 152.55 125.35 Q152.7 125.2 152.9 125.2 L153.25 125.35 M154.15 129.05 Q154.3 128.9 154.5 128.9 154.7 128.9 154.85 129.05 L155.0 129.4 154.85 129.75 154.5 129.9 154.15 129.75 154.0 129.4 Q154.0 129.2 154.15 129.05 M155.3 132.75 L155.65 132.6 156.0 132.75 156.15 133.1 156.0 133.45 155.65 133.6 155.3 133.45 155.15 133.1 155.3 132.75 M157.6 141.15 L157.45 141.5 157.1 141.65 156.75 141.5 156.6 141.15 156.75 140.8 Q156.9 140.65 157.1 140.65 L157.45 140.8 157.6 141.15 M156.8 136.8 L156.95 137.15 156.8 137.5 156.45 137.65 156.1 137.5 155.95 137.15 Q155.95 136.95 156.1 136.8 156.25 136.65 156.45 136.65 L156.8 136.8 M157.3 144.9 Q157.45 144.75 157.65 144.75 157.85 144.75 158.0 144.9 L158.15 145.25 158.0 145.6 157.65 145.75 157.3 145.6 157.15 145.25 Q157.15 145.05 157.3 144.9 M117.2 99.6 L117.05 99.95 116.7 100.1 116.35 99.95 116.2 99.6 Q116.2 99.4 116.35 99.25 116.5 99.1 116.7 99.1 116.9 99.1 117.05 99.25 L117.2 99.6 M113.95 107.4 L114.1 107.75 113.95 108.1 113.6 108.25 113.25 108.1 113.1 107.75 113.25 107.4 Q113.4 107.25 113.6 107.25 L113.95 107.4 M117.95 107.9 L118.1 108.25 117.95 108.6 117.6 108.75 117.25 108.6 117.1 108.25 Q117.1 108.05 117.25 107.9 117.4 107.75 117.6 107.75 L117.95 107.9 M106.95 104.2 L106.8 104.55 106.45 104.7 106.1 104.55 105.95 104.2 106.1 103.85 106.45 103.7 106.8 103.85 106.95 104.2 M102.8 103.05 L102.95 103.4 102.8 103.75 102.45 103.9 102.1 103.75 101.95 103.4 Q101.95 103.2 102.1 103.05 102.25 102.9 102.45 102.9 102.65 102.9 102.8 103.05 M109.65 105.75 Q109.8 105.6 110.0 105.6 110.2 105.6 110.35 105.75 L110.5 106.1 110.35 106.45 110.0 106.6 109.65 106.45 109.5 106.1 Q109.5 105.9 109.65 105.75 M98.2 103.85 Q98.35 103.7 98.55 103.7 L98.9 103.85 99.05 104.2 98.9 104.55 98.55 104.7 98.2 104.55 98.05 104.2 98.2 103.85 M94.85 104.6 L95.0 104.95 94.85 105.3 94.5 105.45 94.15 105.3 94.0 104.95 Q94.0 104.75 94.15 104.6 94.3 104.45 94.5 104.45 L94.85 104.6 M87.95 102.55 L88.1 102.9 87.95 103.25 87.6 103.4 87.25 103.25 87.1 102.9 Q87.1 102.7 87.25 102.55 87.4 102.4 87.6 102.4 L87.95 102.55 M90.1 104.65 Q90.25 104.5 90.45 104.5 90.65 104.5 90.8 104.65 L90.95 105.0 90.8 105.35 90.45 105.5 90.1 105.35 89.95 105.0 Q89.95 104.8 90.1 104.65 M83.8 101.3 Q83.95 101.15 84.15 101.15 84.35 101.15 84.5 101.3 L84.65 101.65 84.5 102.0 84.15 102.15 83.8 102.0 83.65 101.65 Q83.65 101.45 83.8 101.3 M82.3 101.9 L82.65 102.05 82.8 102.4 82.65 102.75 82.3 102.9 81.95 102.75 81.8 102.4 81.95 102.05 82.3 101.9 M83.75 106.55 L83.6 106.9 83.25 107.05 Q83.05 107.05 82.9 106.9 L82.75 106.55 82.9 106.2 Q83.05 106.05 83.25 106.05 L83.6 106.2 83.75 106.55 M81.55 106.85 Q81.7 106.7 81.9 106.7 L82.25 106.85 82.4 107.2 82.25 107.55 81.9 107.7 81.55 107.55 81.4 107.2 Q81.4 107.0 81.55 106.85 M84.4 110.4 L84.25 110.75 83.9 110.9 83.55 110.75 83.4 110.4 Q83.4 110.2 83.55 110.05 83.7 109.9 83.9 109.9 84.1 109.9 84.25 110.05 L84.4 110.4 M83.7 114.15 L83.85 114.5 83.7 114.85 83.35 115.0 83.0 114.85 82.85 114.5 83.0 114.15 83.35 114.0 83.7 114.15 M81.7 118.1 Q81.85 117.95 82.05 117.95 82.25 117.95 82.4 118.1 L82.55 118.45 82.4 118.8 82.05 118.95 81.7 118.8 81.55 118.45 Q81.55 118.25 81.7 118.1 M157.65 148.85 Q157.8 148.7 158.0 148.7 158.2 148.7 158.35 148.85 L158.5 149.2 158.35 149.55 158.0 149.7 157.65 149.55 157.5 149.2 157.65 148.85 M157.95 152.75 Q158.1 152.6 158.3 152.6 158.5 152.6 158.65 152.75 L158.8 153.1 158.65 153.45 158.3 153.6 157.95 153.45 157.8 153.1 Q157.8 152.9 157.95 152.75 M160.8 155.6 Q160.95 155.45 161.15 155.45 161.35 155.45 161.5 155.6 L161.65 155.95 161.5 156.3 161.15 156.45 160.8 156.3 160.65 155.95 160.8 155.6 M158.7 156.75 L158.85 157.1 158.7 157.45 158.35 157.6 158.0 157.45 157.85 157.1 158.0 156.75 158.35 156.6 158.7 156.75 M158.65 160.65 L159.0 160.8 159.15 161.15 159.0 161.5 158.65 161.65 158.3 161.5 158.15 161.15 158.3 160.8 Q158.45 160.65 158.65 160.65" fill="#1596ea" fill-opacity="0.5019608" fill-rule="evenodd" stroke="none"/>
  </g>
</svg>
