<?xml version="1.0" encoding="UTF-8" standalone="no"?>
<svg xmlns:ffdec="https://www.free-decompiler.com/flash" xmlns:xlink="http://www.w3.org/1999/xlink" ffdec:objectType="shape" height="164.55px" width="294.65px" xmlns="http://www.w3.org/2000/svg">
  <g transform="matrix(1.0, 0.0, 0.0, 1.0, 0.0, 0.0)">
    <path d="M293.65 155.05 L293.65 15.75 Q293.65 14.1 292.5 12.95 291.3 11.75 289.65 11.75 L125.05 11.75 122.6 11.25 Q121.15 10.8 120.3 10.15 L111.05 2.85 108.2 1.35 105.05 0.75 5.0 0.75 Q3.35 0.75 2.2 1.95 1.0 3.1 1.0 4.75 L1.0 155.55 1.0 159.75 Q1.0 161.4 2.2 162.6 3.35 163.75 5.0 163.75 L71.0 163.75 72.0 163.7 72.5 163.75 137.15 163.75 137.6 163.7 138.1 163.75 138.1 163.8 138.05 163.9 138.15 163.9 138.2 163.8 138.4 163.9 138.35 163.9 158.7 163.9 158.85 164.05 161.0 164.0 180.5 163.85 222.25 163.5 222.45 163.5 224.45 163.75 289.65 163.75 Q291.3 163.75 292.5 162.6 293.65 161.4 293.65 159.75 L293.65 155.05 M289.65 11.0 Q291.7 11.0 293.2 12.45 294.65 13.95 294.65 16.0 L294.65 159.5 Q294.65 161.55 293.2 163.05 291.7 164.5 289.65 164.5 L158.8 164.5 158.7 164.55 136.1 164.55 136.0 164.5 5.0 164.5 Q2.95 164.5 1.45 163.05 0.0 161.55 0.0 159.5 L0.0 5.0 Q0.0 2.95 1.45 1.45 2.95 0.0 5.0 0.0 L105.05 0.0 Q106.6 0.0 108.5 0.65 110.4 1.3 111.65 2.3 L120.95 9.6 Q121.65 10.15 122.9 10.6 L125.05 11.0 289.65 11.0" fill="#0068ff" fill-rule="evenodd" stroke="none"/>
    <path d="M3.0 155.55 L3.25 23.75 290.8 23.25 291.05 155.05 263.6 155.8 263.6 155.75 262.95 155.75 262.85 155.8 262.9 155.75 172.45 155.7 3.0 155.55" fill="url(#gradient0)" fill-rule="evenodd" stroke="none"/>
    <path d="M1.0 155.55 L1.0 4.75 Q1.0 3.1 2.2 1.95 3.35 0.75 5.0 0.75 L105.05 0.75 108.2 1.35 111.05 2.85 120.3 10.15 Q121.15 10.8 122.6 11.25 L125.05 11.75 289.65 11.75 Q291.3 11.75 292.5 12.95 293.65 14.1 293.65 15.75 L293.65 155.05 291.05 155.05 290.8 23.25 3.25 23.75 3.0 155.55 1.0 155.55" fill="url(#gradient1)" fill-rule="evenodd" stroke="none"/>
    <path d="M180.5 163.85 L161.0 164.0 158.85 164.05 158.7 163.9 138.35 163.9 138.4 163.9 138.2 163.8 138.15 163.9 138.05 163.9 138.1 163.8 138.1 163.75 137.6 163.7 137.15 163.75 72.5 163.75 72.0 163.7 71.0 163.75 5.0 163.75 Q3.35 163.75 2.2 162.6 1.0 161.4 1.0 159.75 L1.0 155.55 3.0 155.55 172.45 155.7 180.5 163.85" fill="url(#gradient2)" fill-rule="evenodd" stroke="none"/>
    <path d="M293.65 155.05 L293.65 159.75 Q293.65 161.4 292.5 162.6 291.3 163.75 289.65 163.75 L224.45 163.75 222.45 163.5 222.25 163.5 180.5 163.85 172.45 155.7 262.9 155.75 262.85 155.8 262.95 155.75 263.6 155.75 263.6 155.8 291.05 155.05 293.65 155.05" fill="url(#gradient3)" fill-rule="evenodd" stroke="none"/>
    <path d="M3.25 23.75 L290.8 23.25" fill="none" stroke="#0d90fc" stroke-linecap="round" stroke-linejoin="round" stroke-width="1.0"/>
  </g>
  <defs>
    <linearGradient gradientTransform="matrix(0.0, -0.0851, -0.0851, 0.0, 147.3, 70.5)" gradientUnits="userSpaceOnUse" id="gradient0" spreadMethod="pad" x1="-819.2" x2="819.2">
      <stop offset="0.0" stop-color="#05337a"/>
      <stop offset="0.17647058823529413" stop-color="#032970"/>
      <stop offset="0.4627450980392157" stop-color="#012168"/>
      <stop offset="1.0" stop-color="#001f66"/>
    </linearGradient>
    <linearGradient gradientTransform="matrix(0.0, -0.0851, -0.0851, 0.0, 147.3, 70.5)" gradientUnits="userSpaceOnUse" id="gradient1" spreadMethod="pad" x1="-819.2" x2="819.2">
      <stop offset="0.0" stop-color="#05337a"/>
      <stop offset="0.17647058823529413" stop-color="#032970"/>
      <stop offset="0.4627450980392157" stop-color="#012168"/>
      <stop offset="1.0" stop-color="#008aec"/>
    </linearGradient>
    <linearGradient gradientTransform="matrix(0.0165, 0.048, 0.0801, -0.0275, -90.3, 229.8)" gradientUnits="userSpaceOnUse" id="gradient2" spreadMethod="pad" x1="-819.2" x2="819.2">
      <stop offset="0.0" stop-color="#05337a"/>
      <stop offset="0.17647058823529413" stop-color="#032970"/>
      <stop offset="0.4627450980392157" stop-color="#000748"/>
      <stop offset="1.0" stop-color="#000e46"/>
    </linearGradient>
    <linearGradient gradientTransform="matrix(-0.0675, 0.0501, -0.0032, -0.0043, 227.55, 187.9)" gradientUnits="userSpaceOnUse" id="gradient3" spreadMethod="pad" x1="-819.2" x2="819.2">
      <stop offset="0.0" stop-color="#05337a"/>
      <stop offset="0.17647058823529413" stop-color="#032970"/>
      <stop offset="0.4627450980392157" stop-color="#000748"/>
      <stop offset="1.0" stop-color="#000e46"/>
    </linearGradient>
  </defs>
</svg>
