<?xml version="1.0" encoding="UTF-8" standalone="no"?>
<svg xmlns:ffdec="https://www.free-decompiler.com/flash" xmlns:xlink="http://www.w3.org/1999/xlink" ffdec:objectType="shape" height="45.95px" width="45.9px" xmlns="http://www.w3.org/2000/svg">
  <g transform="matrix(1.0, 0.0, 0.0, 1.0, -4.95, -5.55)">
    <path d="M5.45 6.05 L50.35 6.05 50.35 51.0 5.45 51.0 5.45 6.05" fill="#262423" fill-rule="evenodd" stroke="none"/>
    <path d="M4.95 51.5 L4.95 5.55 50.85 5.55 50.85 51.5 4.95 51.5 M5.95 6.55 L5.95 50.5 49.85 50.5 49.85 6.55 5.95 6.55" fill="#383838" fill-rule="evenodd" stroke="none"/>
    <path d="M7.6 8.15 L48.65 8.15 48.65 49.15 7.6 49.15 7.6 8.15" fill="#252426" fill-rule="evenodd" stroke="none"/>
    <path d="M8.1 8.65 L8.1 48.65 48.15 48.65 48.15 8.65 8.1 8.65 M7.1 49.65 L7.1 7.65 49.15 7.65 49.15 49.65 7.1 49.65" fill="#191919" fill-rule="evenodd" stroke="none"/>
    <path d="M9.4 47.65 L8.8 47.05 12.7 43.15 13.3 43.75 9.4 47.65" fill="#40383d" fill-rule="evenodd" stroke="none"/>
    <path d="M9.4 47.65 L8.8 47.05 12.7 43.15 13.3 43.75 9.4 47.65 Z" fill="none" stroke="#30272b" stroke-linecap="butt" stroke-linejoin="miter-clip" stroke-miterlimit="4.0" stroke-width="1.0"/>
    <path d="M13.05 43.75 L13.05 13.6 43.2 13.6 43.2 43.75 13.05 43.75" fill="#333233" fill-rule="evenodd" stroke="none"/>
    <path d="M9.85 37.4 L7.1 39.4 7.1 18.5 9.85 20.5 9.85 37.4" fill="#0f120f" fill-rule="evenodd" stroke="none"/>
    <path d="M46.4 37.4 L46.4 20.5 49.15 18.5 49.15 39.4 46.4 37.4" fill="#0f120f" fill-rule="evenodd" stroke="none"/>
    <path d="M47.15 47.65 L43.25 43.75 43.8 43.15 47.75 47.05 47.15 47.65" fill="#403b3d" fill-rule="evenodd" stroke="none"/>
    <path d="M47.15 47.65 L47.75 47.05 43.8 43.15 43.25 43.75 47.15 47.65 Z" fill="none" stroke="#302a2b" stroke-linecap="butt" stroke-linejoin="miter-clip" stroke-miterlimit="4.0" stroke-width="1.0"/>
    <path d="M9.4 9.65 L13.3 13.6 12.7 14.2 8.8 10.25 9.4 9.65" fill="#403b3d" fill-rule="evenodd" stroke="none"/>
    <path d="M9.4 9.65 L8.8 10.25 12.7 14.2 13.3 13.6 9.4 9.65 Z" fill="none" stroke="#302a2b" stroke-linecap="butt" stroke-linejoin="miter-clip" stroke-miterlimit="4.0" stroke-width="1.0"/>
    <path d="M47.15 9.65 L47.75 10.25 43.8 14.2 43.25 13.6 47.15 9.65" fill="#403b3d" fill-rule="evenodd" stroke="none"/>
    <path d="M47.15 9.65 L47.75 10.25 43.8 14.2 43.25 13.6 47.15 9.65 Z" fill="none" stroke="#302a2b" stroke-linecap="butt" stroke-linejoin="miter-clip" stroke-miterlimit="4.0" stroke-width="1.0"/>
    <path d="M22.25 36.2 L21.25 35.2 34.1 22.4 35.1 23.4 22.25 36.2" fill="#232323" fill-rule="evenodd" stroke="none"/>
    <path d="M18.0 27.9 L26.75 19.15 27.75 20.15 19.0 28.9 18.0 27.9" fill="#232323" fill-rule="evenodd" stroke="none"/>
    <path d="M30.0 39.9 L29.0 38.9 37.75 30.15 38.75 31.15 30.0 39.9" fill="#232323" fill-rule="evenodd" stroke="none"/>
  </g>
</svg>
