<?xml version="1.0" encoding="UTF-8" standalone="no"?>
<svg xmlns:ffdec="https://www.free-decompiler.com/flash" xmlns:xlink="http://www.w3.org/1999/xlink" ffdec:objectType="shape" height="57.55px" width="57.25px" xmlns="http://www.w3.org/2000/svg">
  <g transform="matrix(1.0, 0.0, 0.0, 1.0, 0.5, 0.5)">
    <path d="M37.65 2.25 L39.9 0.0 50.65 0.0 56.25 5.6 56.25 16.0 54.45 17.8 54.45 38.75 56.25 40.55 56.25 51.0 50.65 56.55 39.9 56.55 37.55 54.2 18.65 54.2 16.3 56.55 5.55 56.55 0.0 51.0 0.0 40.55 1.05 39.5 1.05 17.05 0.0 16.0 0.0 5.6 5.55 0.0 16.3 0.0 18.55 2.25 37.65 2.25" fill="#191919" fill-rule="evenodd" stroke="none"/>
    <path d="M37.65 2.25 L18.55 2.25 16.3 0.0 5.55 0.0 0.0 5.6 0.0 16.0 1.05 17.05 1.05 39.5 0.0 40.55 0.0 51.0 5.55 56.55 16.3 56.55 18.65 54.2 37.55 54.2 39.9 56.55 50.65 56.55 56.25 51.0 56.25 40.55 54.45 38.75 54.45 17.8 56.25 16.0 56.25 5.6 50.65 0.0 39.9 0.0 37.65 2.25 Z" fill="none" stroke="#111010" stroke-linecap="butt" stroke-linejoin="miter-clip" stroke-miterlimit="4.0" stroke-width="1.0"/>
    <path d="M3.65 2.1 L9.55 2.1 9.55 3.75 4.9 3.75 3.25 5.45 3.25 10.25 1.5 10.25 1.5 4.25 3.65 2.1" fill="#044a96" fill-rule="evenodd" stroke="none"/>
    <path d="M52.4 2.1 L54.55 4.25 54.55 10.25 52.8 10.25 52.8 5.45 51.15 3.75 46.5 3.75 46.5 2.1 52.4 2.1" fill="#044a96" fill-rule="evenodd" stroke="none"/>
    <path d="M3.25 51.75 L4.9 53.4 9.55 53.4 9.55 55.1 3.65 55.1 1.5 52.9 1.5 46.95 3.25 46.95 3.25 51.75" fill="#044a96" fill-rule="evenodd" stroke="none"/>
    <path d="M52.8 51.75 L52.8 46.95 54.55 46.95 54.55 52.9 52.4 55.1 46.5 55.1 46.5 53.4 51.15 53.4 52.8 51.75" fill="#044a96" fill-rule="evenodd" stroke="none"/>
  </g>
</svg>
