<?xml version="1.0" encoding="UTF-8" standalone="no"?>
<svg xmlns:ffdec="https://www.free-decompiler.com/flash" xmlns:xlink="http://www.w3.org/1999/xlink" ffdec:objectType="shape" height="19.35px" width="55.1px" xmlns="http://www.w3.org/2000/svg">
  <g transform="matrix(1.0, 0.0, 0.0, 1.0, 0.0, 0.0)">
    <path d="M54.6 3.0 L54.6 16.35 Q54.6 17.4 53.9 18.15 53.15 18.85 52.1 18.85 L3.0 18.85 Q1.95 18.85 1.25 18.15 0.5 17.4 0.5 16.35 L0.5 3.0 Q0.5 1.95 1.25 1.25 1.95 0.5 3.0 0.5 L52.1 0.5 Q53.15 0.5 53.9 1.25 54.6 1.95 54.6 3.0" fill="url(#gradient0)" fill-rule="evenodd" stroke="none"/>
    <path d="M54.1 3.0 Q54.1 2.2 53.5 1.6 52.95 1.0 52.1 1.0 L3.0 1.0 Q2.2 1.0 1.6 1.6 1.0 2.2 1.0 3.0 L1.0 16.35 Q1.0 17.2 1.6 17.75 2.2 18.35 3.0 18.35 L52.1 18.35 Q52.95 18.35 53.5 17.75 54.1 17.2 54.1 16.35 L54.1 3.0 M52.1 0.0 Q53.35 0.0 54.2 0.9 55.1 1.75 55.1 3.0 L55.1 16.35 Q55.1 17.6 54.2 18.45 53.35 19.35 52.1 19.35 L3.0 19.35 Q1.75 19.35 0.9 18.45 0.0 17.6 0.0 16.35 L0.0 3.0 Q0.0 1.75 0.9 0.9 1.75 0.0 3.0 0.0 L52.1 0.0" fill="#231602" fill-rule="evenodd" stroke="none"/>
  </g>
  <defs>
    <linearGradient gradientTransform="matrix(0.0, -0.0112, -0.0112, 0.0, 27.6, 9.65)" gradientUnits="userSpaceOnUse" id="gradient0" spreadMethod="pad" x1="-819.2" x2="819.2">
      <stop offset="0.0" stop-color="#8c3300"/>
      <stop offset="1.0" stop-color="#d48a00"/>
    </linearGradient>
  </defs>
</svg>
