<?xml version="1.0" encoding="UTF-8" standalone="no"?>
<svg xmlns:ffdec="https://www.free-decompiler.com/flash" xmlns:xlink="http://www.w3.org/1999/xlink" ffdec:objectType="shape" height="23.85px" width="91.25px" xmlns="http://www.w3.org/2000/svg">
  <g transform="matrix(1.0, 0.0, 0.0, 1.0, 0.0, 0.0)">
    <path d="M5.75 0.5 L85.55 0.5 Q86.55 0.5 87.35 1.2 88.2 1.95 88.35 2.9 L90.7 17.8 Q90.85 18.8 90.35 19.75 89.85 20.75 88.95 21.15 L86.2 22.45 Q84.3 23.35 82.2 23.35 L8.5 23.35 Q6.4 23.35 4.5 22.35 L2.3 21.2 Q1.4 20.75 0.9 19.75 0.4 18.8 0.55 17.8 L2.95 2.9 Q3.1 1.9 3.9 1.2 4.75 0.5 5.75 0.5" fill="url(#gradient0)" fill-rule="evenodd" stroke="none"/>
    <path d="M87.85 3.0 Q87.75 2.2 87.05 1.6 86.4 1.0 85.55 1.0 L5.75 1.0 Q4.95 1.0 4.25 1.6 3.55 2.2 3.4 3.0 L1.05 17.9 Q0.95 18.7 1.35 19.55 L2.5 20.75 4.75 21.95 Q6.45 22.85 8.5 22.85 L82.2 22.85 Q84.1 22.85 86.0 22.0 L88.7 20.7 89.9 19.55 Q90.35 18.7 90.2 17.9 L87.85 3.0 M85.55 0.0 Q86.75 0.0 87.7 0.8 88.65 1.65 88.85 2.8 L91.2 17.7 Q91.4 18.85 90.8 20.0 90.2 21.1 89.15 21.6 L86.4 22.9 84.35 23.6 82.2 23.85 8.5 23.85 Q6.25 23.85 4.25 22.8 L2.05 21.65 Q1.05 21.1 0.45 20.0 -0.15 18.85 0.05 17.7 L2.45 2.8 Q2.65 1.65 3.6 0.8 4.55 0.0 5.75 0.0 L85.55 0.0" fill="#231602" fill-rule="evenodd" stroke="none"/>
  </g>
  <defs>
    <linearGradient gradientTransform="matrix(0.0, -0.0139, -0.0139, 0.0, 45.65, 11.95)" gradientUnits="userSpaceOnUse" id="gradient0" spreadMethod="pad" x1="-819.2" x2="819.2">
      <stop offset="0.0" stop-color="#fd9b0b"/>
      <stop offset="1.0" stop-color="#a24d00"/>
    </linearGradient>
  </defs>
</svg>
