<?xml version="1.0" encoding="UTF-8" standalone="no"?>
<svg xmlns:ffdec="https://www.free-decompiler.com/flash" xmlns:xlink="http://www.w3.org/1999/xlink" ffdec:objectType="shape" height="21.45px" width="82.15px" xmlns="http://www.w3.org/2000/svg">
  <g transform="matrix(1.0, 0.0, 0.0, 1.0, -4.55, -1.2)">
    <path d="M9.7 1.65 L81.5 1.65 Q82.4 1.65 83.15 2.25 83.9 2.95 84.05 3.8 L86.15 17.2 Q86.3 18.1 85.85 18.95 85.4 19.85 84.55 20.25 L82.1 21.4 Q80.4 22.2 78.5 22.2 L12.15 22.2 Q10.3 22.2 8.55 21.3 L6.6 20.25 Q5.8 19.85 5.35 18.95 4.9 18.1 5.0 17.2 L7.15 3.8 Q7.3 2.9 8.05 2.25 8.8 1.65 9.7 1.65" fill="url(#gradient0)" fill-rule="evenodd" stroke="none"/>
    <path d="M81.55 1.2 Q82.6 1.2 83.5 1.9 84.35 2.7 84.5 3.7 L86.65 17.15 Q86.8 18.15 86.25 19.2 85.75 20.2 84.8 20.65 L82.3 21.8 80.45 22.45 78.55 22.65 12.2 22.65 Q10.15 22.65 8.35 21.7 L6.4 20.7 Q5.5 20.2 4.95 19.2 4.4 18.15 4.6 17.15 L6.75 3.7 Q6.95 2.7 7.8 1.9 8.65 1.2 9.7 1.2 L81.55 1.2 M83.6 3.9 Q83.5 3.2 82.9 2.65 82.3 2.1 81.55 2.1 L9.7 2.1 Q9.0 2.1 8.35 2.65 7.75 3.2 7.6 3.9 L5.5 17.3 Q5.4 18.05 5.75 18.8 6.15 19.55 6.8 19.85 L8.8 20.95 Q10.35 21.75 12.2 21.75 L78.55 21.75 Q80.25 21.75 81.95 21.0 L84.4 19.85 85.45 18.8 Q85.85 18.05 85.75 17.3 L83.6 3.9" fill="#231602" fill-rule="evenodd" stroke="none"/>
  </g>
  <defs>
    <linearGradient gradientTransform="matrix(0.0, -0.0126, -0.0126, 0.0, 45.6, 11.95)" gradientUnits="userSpaceOnUse" id="gradient0" spreadMethod="pad" x1="-819.2" x2="819.2">
      <stop offset="0.0" stop-color="#fd9b0b"/>
      <stop offset="1.0" stop-color="#a24d00"/>
    </linearGradient>
  </defs>
</svg>
