<?xml version="1.0" encoding="UTF-8" standalone="no"?>
<svg xmlns:ffdec="https://www.free-decompiler.com/flash" xmlns:xlink="http://www.w3.org/1999/xlink" ffdec:objectType="shape" height="18.7px" width="138.05px" xmlns="http://www.w3.org/2000/svg">
  <g transform="matrix(1.0, 0.0, 0.0, 1.0, -4.4, -335.45)">
    <path d="M121.45 337.55 L122.2 336.15 122.6 335.75 123.7 335.45 140.0 335.45 140.6 335.5 Q141.0 335.6 141.4 335.85 L142.05 336.5 142.4 337.65 142.4 339.25 142.25 340.85 142.15 341.5 141.95 342.85 141.75 344.35 141.5 346.25 141.3 347.4 141.05 348.7 140.9 349.6 140.7 350.55 140.25 352.1 139.85 353.25 139.75 353.45 139.5 353.75 139.2 353.9 139.05 354.05 126.25 354.15 125.9 354.05 125.55 353.9 125.1 353.7 Q124.25 353.1 123.9 352.2 L123.65 351.55 123.15 350.2 121.25 338.7 121.45 337.55" fill="url(#gradient0)" fill-rule="evenodd" stroke="none"/>
    <path d="M7.35 335.7 L15.4 335.6 16.75 335.6 26.15 335.45 26.85 335.45 Q27.45 336.1 27.5 337.45 L24.75 354.0 6.55 354.15 5.4 353.3 Q4.75 352.55 4.5 351.45 L4.45 350.8 4.4 348.7 5.15 338.35 5.4 337.15 5.65 336.35 Q5.7 335.95 5.9 335.7 L7.35 335.7" fill="url(#gradient1)" fill-rule="evenodd" stroke="none"/>
  </g>
  <defs>
    <linearGradient gradientTransform="matrix(0.0, -0.0127, -0.0114, 0.0, 100.9, 342.05)" gradientUnits="userSpaceOnUse" id="gradient0" spreadMethod="pad" x1="-819.2" x2="819.2">
      <stop offset="0.0" stop-color="#505250"/>
      <stop offset="1.0" stop-color="#2b2e30"/>
    </linearGradient>
    <linearGradient gradientTransform="matrix(0.0, 0.0114, -0.0032, 0.0, 16.55, 344.8)" gradientUnits="userSpaceOnUse" id="gradient1" spreadMethod="pad" x1="-819.2" x2="819.2">
      <stop offset="0.0" stop-color="#505250"/>
      <stop offset="1.0" stop-color="#2b2e30"/>
    </linearGradient>
  </defs>
</svg>
