<?xml version="1.0" encoding="UTF-8" standalone="no"?>
<svg xmlns:ffdec="https://www.free-decompiler.com/flash" xmlns:xlink="http://www.w3.org/1999/xlink" ffdec:objectType="shape" height="117.35px" width="279.35px" xmlns="http://www.w3.org/2000/svg">
  <g transform="matrix(1.0, 0.0, 0.0, 1.0, 1.0, -234.8)">
    <path d="M272.35 235.8 Q274.4 235.8 275.9 237.25 277.35 238.75 277.35 240.8 L277.35 346.15 Q277.35 348.2 275.9 349.7 274.4 351.15 272.35 351.15 L176.65 351.15 171.75 350.55 Q168.95 350.0 167.05 349.2 L166.9 349.15 Q165.05 348.35 162.2 347.75 L157.3 347.2 113.9 347.2 108.95 347.65 104.15 348.75 101.75 349.55 96.95 350.65 92.0 351.15 5.0 351.15 Q2.95 351.15 1.45 349.7 0.0 348.2 0.0 346.15 L0.0 240.8 Q0.0 238.75 1.45 237.25 2.95 235.8 5.0 235.8 L272.35 235.8" fill="#0f0f0f" fill-rule="evenodd" stroke="none"/>
    <path d="M272.35 235.8 L5.0 235.8 Q2.95 235.8 1.45 237.25 0.0 238.75 0.0 240.8 L0.0 346.15 Q0.0 348.2 1.45 349.7 2.95 351.15 5.0 351.15 L92.0 351.15 96.95 350.65 101.75 349.55 104.15 348.75 108.95 347.65 113.9 347.2 157.3 347.2 162.2 347.75 Q165.05 348.35 166.9 349.15 L167.05 349.2 Q168.95 350.0 171.75 350.55 L176.65 351.15 272.35 351.15 Q274.4 351.15 275.9 349.7 277.35 348.2 277.35 346.15 L277.35 240.8 Q277.35 238.75 275.9 237.25 274.4 235.8 272.35 235.8 Z" fill="none" stroke="#333333" stroke-linecap="butt" stroke-linejoin="miter-clip" stroke-miterlimit="4.0" stroke-width="2.0"/>
    <path d="M272.35 243.8 L272.35 343.15 Q272.35 344.4 271.45 345.25 270.6 346.15 269.35 346.15 L177.65 346.15 173.2 345.95 Q171.75 345.75 168.9 344.55 L164.35 342.95 160.4 342.45 156.3 342.2 114.9 342.2 109.2 342.45 105.45 343.25 101.6 344.35 101.15 344.5 96.7 345.8 94.15 346.05 91.0 346.15 8.0 346.15 Q6.75 346.15 5.9 345.25 5.0 344.4 5.0 343.15 L5.0 243.8 Q5.0 242.55 5.9 241.7 6.75 240.8 8.0 240.8 L269.35 240.8 Q270.6 240.8 271.45 241.7 272.35 242.55 272.35 243.8" fill="url(#gradient0)" fill-rule="evenodd" stroke="none"/>
    <path d="M272.35 243.8 L272.35 343.15 Q272.35 344.4 271.45 345.25 270.6 346.15 269.35 346.15 L177.65 346.15 173.2 345.95 Q171.75 345.75 168.9 344.55 L164.35 342.95 160.4 342.45 156.3 342.2 114.9 342.2 109.2 342.45 105.45 343.25 101.6 344.35 101.15 344.5 96.7 345.8 94.15 346.05 91.0 346.15 8.0 346.15 Q6.75 346.15 5.9 345.25 5.0 344.4 5.0 343.15 L5.0 243.8 Q5.0 242.55 5.9 241.7 6.75 240.8 8.0 240.8 L269.35 240.8 Q270.6 240.8 271.45 241.7 272.35 242.55 272.35 243.8 Z" fill="none" stroke="#075aa5" stroke-linecap="butt" stroke-linejoin="miter-clip" stroke-miterlimit="4.0" stroke-width="1.0"/>
  </g>
  <defs>
    <linearGradient gradientTransform="matrix(0.0, -0.0643, -0.0643, 0.0, 138.7, 293.45)" gradientUnits="userSpaceOnUse" id="gradient0" spreadMethod="pad" x1="-819.2" x2="819.2">
      <stop offset="0.0" stop-color="#053363"/>
      <stop offset="0.058823529411764705" stop-color="#042a56"/>
      <stop offset="0.17647058823529413" stop-color="#021e45"/>
      <stop offset="0.3215686274509804" stop-color="#011539"/>
      <stop offset="0.5137254901960784" stop-color="#001032"/>
      <stop offset="1.0" stop-color="#000f30"/>
    </linearGradient>
  </defs>
</svg>
