<?xml version="1.0" encoding="UTF-8" standalone="no"?>
<svg xmlns:ffdec="https://www.free-decompiler.com/flash" xmlns:xlink="http://www.w3.org/1999/xlink" ffdec:objectType="shape" height="29.75px" width="29.1px" xmlns="http://www.w3.org/2000/svg">
  <g transform="matrix(1.0, 0.0, 0.0, 1.0, 0.0, 0.0)">
    <path d="M21.75 0.55 L28.15 5.7 Q29.1 6.5 29.1 7.55 29.1 8.7 28.15 9.4 L21.75 14.55 21.3 14.85 21.75 15.15 28.15 20.35 Q29.1 21.05 29.1 22.2 29.1 23.25 28.15 24.05 L21.75 29.2 Q21.05 29.75 20.45 29.75 19.85 29.75 19.45 29.3 19.0 28.8 19.0 27.9 L19.0 25.65 3.35 25.65 Q1.95 25.65 1.0 24.65 0.0 23.65 0.0 22.2 0.0 20.8 1.0 19.75 1.95 18.75 3.35 18.75 L19.0 18.75 19.0 16.5 Q19.0 15.4 19.7 14.85 19.0 14.4 19.0 13.25 L19.0 11.0 3.35 11.0 Q1.95 11.0 1.0 10.0 0.0 9.0 0.0 7.55 0.0 6.15 1.0 5.1 1.95 4.1 3.35 4.1 L19.0 4.1 19.0 1.85 Q19.0 0.0 20.45 0.0 21.05 0.0 21.75 0.55" fill="#000000" fill-rule="evenodd" stroke="none"/>
  </g>
</svg>
