<?xml version="1.0" encoding="UTF-8" standalone="no"?>
<svg xmlns:ffdec="https://www.free-decompiler.com/flash" xmlns:xlink="http://www.w3.org/1999/xlink" ffdec:objectType="shape" height="28.15px" width="102.7px" xmlns="http://www.w3.org/2000/svg">
  <g transform="matrix(1.0, 0.0, 0.0, 1.0, -15.75, -15.55)">
    <path d="M117.0 17.1 Q117.8 18.15 117.25 19.55 L110.3 40.0 Q109.85 41.3 108.55 42.25 107.25 43.2 105.85 43.2 L27.85 43.2 Q26.45 43.2 25.15 42.25 23.85 41.3 23.4 40.0 L16.4 19.55 Q15.9 18.1 16.7 17.1 17.4 16.05 18.95 16.05 L114.75 16.05 Q116.25 16.05 117.0 17.1" fill="url(#gradient0)" fill-rule="evenodd" stroke="none"/>
    <path d="M115.25 15.55 Q117.05 15.55 117.9 16.8 118.8 18.0 118.25 19.7 L111.25 40.2 Q110.75 41.65 109.35 42.7 107.9 43.7 106.35 43.7 L27.85 43.7 Q26.3 43.7 24.85 42.7 23.45 41.65 22.95 40.2 L15.95 19.7 Q15.4 18.0 16.3 16.8 17.15 15.55 18.95 15.55 L115.25 15.55 M117.3 19.4 Q117.7 18.2 117.1 17.4 116.5 16.55 115.25 16.55 L18.95 16.55 Q17.7 16.55 17.1 17.4 16.5 18.2 16.9 19.4 L23.9 39.85 Q24.3 41.0 25.45 41.85 26.6 42.7 27.85 42.7 L106.35 42.7 Q107.6 42.7 108.75 41.85 109.9 41.0 110.3 39.85 L117.3 19.4" fill="#04c2e0" fill-rule="evenodd" stroke="none"/>
  </g>
  <defs>
    <linearGradient gradientTransform="matrix(0.0, -0.0166, -0.0166, 0.0, 80.35, 29.6)" gradientUnits="userSpaceOnUse" id="gradient0" spreadMethod="pad" x1="-819.2" x2="819.2">
      <stop offset="0.00392156862745098" stop-color="#00234a"/>
      <stop offset="0.18823529411764706" stop-color="#002066"/>
      <stop offset="0.5529411764705883" stop-color="#00225d"/>
      <stop offset="1.0" stop-color="#00385f"/>
    </linearGradient>
  </defs>
</svg>
