<?xml version="1.0" encoding="UTF-8" standalone="no"?>
<svg xmlns:ffdec="https://www.free-decompiler.com/flash" xmlns:xlink="http://www.w3.org/1999/xlink" ffdec:objectType="shape" height="16.7px" width="16.75px" xmlns="http://www.w3.org/2000/svg">
  <g transform="matrix(1.0, 0.0, 0.0, 1.0, -1.75, -1.5)">
    <path d="M10.05 1.95 L10.05 3.4 10.25 3.4 10.25 1.95 Q10.25 1.5 10.65 1.5 L12.3 1.5 Q12.7 1.5 12.7 1.95 L12.7 3.4 12.9 3.4 12.9 1.95 Q12.9 1.5 13.35 1.5 L14.95 1.5 Q15.4 1.5 15.4 1.95 L15.4 3.4 15.45 3.4 Q15.95 3.4 16.3 3.7 16.65 4.05 16.65 4.6 L18.05 4.6 Q18.5 4.6 18.5 5.05 L18.5 6.65 18.05 7.1 16.65 7.1 16.65 7.3 18.05 7.3 Q18.5 7.3 18.5 7.75 L18.5 9.35 18.05 9.8 16.65 9.8 16.65 9.95 18.05 9.95 Q18.5 9.95 18.5 10.4 L18.5 12.0 18.05 12.45 16.65 12.45 16.65 12.65 18.05 12.65 Q18.5 12.65 18.5 13.1 L18.5 14.7 18.05 15.15 16.65 15.15 16.3 16.0 Q15.95 16.35 15.45 16.35 L15.4 16.35 15.4 17.8 Q15.4 18.2 14.95 18.2 L13.35 18.2 Q12.9 18.2 12.9 17.8 L12.9 16.35 12.7 16.35 12.7 17.8 Q12.7 18.2 12.3 18.2 L10.65 18.2 Q10.25 18.2 10.25 17.8 L10.25 16.35 10.05 16.35 10.05 17.8 Q10.05 18.2 9.55 18.2 L8.0 18.2 Q7.5 18.2 7.5 17.8 L7.5 16.35 7.35 16.35 7.35 17.8 6.9 18.2 5.3 18.2 Q4.85 18.2 4.85 17.8 L4.85 16.35 Q4.35 16.35 4.0 16.0 3.65 15.65 3.65 15.15 L2.2 15.15 Q1.75 15.15 1.75 14.7 L1.75 13.1 Q1.75 12.65 2.2 12.65 L3.65 12.65 3.65 12.45 2.2 12.45 Q1.75 12.45 1.75 12.0 L1.75 10.4 Q1.75 9.95 2.2 9.95 L3.65 9.95 3.65 9.8 2.2 9.8 Q1.75 9.8 1.75 9.35 L1.75 7.75 Q1.75 7.6 1.9 7.4 2.0 7.3 2.2 7.3 L3.65 7.3 3.65 7.1 2.2 7.1 Q1.75 7.1 1.75 6.65 L1.75 5.05 Q1.75 4.6 2.2 4.6 L3.65 4.6 Q3.65 4.05 4.0 3.7 4.35 3.4 4.85 3.4 L4.85 1.95 4.95 1.65 5.3 1.5 6.9 1.5 Q7.1 1.5 7.25 1.65 L7.35 1.95 7.35 3.4 7.5 3.4 7.5 1.95 7.7 1.65 Q7.8 1.5 8.0 1.5 L9.55 1.5 9.9 1.65 10.05 1.95" fill="#130e45" fill-rule="evenodd" stroke="none"/>
    <path d="M6.9 4.4 L5.3 4.4 5.3 1.95 6.9 1.95 6.9 4.4" fill="#ffffff" fill-rule="evenodd" stroke="none"/>
    <path d="M6.65 3.95 L5.55 3.95 5.55 2.2 6.65 2.2 6.65 3.95" fill="url(#gradient0)" fill-rule="evenodd" stroke="none"/>
    <path d="M6.9 4.4 L5.3 4.4 5.3 3.4 6.9 3.4 6.9 4.4" fill="#9c9fa6" fill-rule="evenodd" stroke="none"/>
    <path d="M9.55 4.4 L8.0 4.4 8.0 1.95 9.55 1.95 9.55 4.4" fill="#ffffff" fill-rule="evenodd" stroke="none"/>
    <path d="M9.35 3.95 L8.2 3.95 8.2 2.2 9.35 2.2 9.35 3.95" fill="url(#gradient1)" fill-rule="evenodd" stroke="none"/>
    <path d="M9.55 4.4 L8.0 4.4 8.0 3.4 9.55 3.4 9.55 4.4" fill="#9c9fa6" fill-rule="evenodd" stroke="none"/>
    <path d="M12.3 4.4 L10.65 4.4 10.65 1.95 12.3 1.95 12.3 4.4" fill="#ffffff" fill-rule="evenodd" stroke="none"/>
    <path d="M12.05 3.95 L10.9 3.95 10.9 2.2 12.05 2.2 12.05 3.95" fill="url(#gradient2)" fill-rule="evenodd" stroke="none"/>
    <path d="M12.3 4.4 L10.65 4.4 10.65 3.4 12.3 3.4 12.3 4.4" fill="#9c9fa6" fill-rule="evenodd" stroke="none"/>
    <path d="M14.95 4.4 L13.35 4.4 13.35 1.95 14.95 1.95 14.95 4.4" fill="#ffffff" fill-rule="evenodd" stroke="none"/>
    <path d="M14.75 3.95 L13.55 3.95 13.55 2.2 14.75 2.2 14.75 3.95" fill="url(#gradient3)" fill-rule="evenodd" stroke="none"/>
    <path d="M14.95 4.4 L13.35 4.4 13.35 3.4 14.95 3.4 14.95 4.4" fill="#9c9fa6" fill-rule="evenodd" stroke="none"/>
    <path d="M6.9 15.3 L6.9 17.8 5.3 17.8 5.3 15.3 6.9 15.3" fill="#ffffff" fill-rule="evenodd" stroke="none"/>
    <path d="M6.65 15.8 L6.65 17.55 5.55 17.55 5.55 15.8 6.65 15.8" fill="url(#gradient4)" fill-rule="evenodd" stroke="none"/>
    <path d="M6.9 15.3 L6.9 16.35 5.3 16.35 5.3 15.3 6.9 15.3" fill="#9c9fa6" fill-rule="evenodd" stroke="none"/>
    <path d="M9.55 15.3 L9.55 17.8 8.0 17.8 8.0 15.3 9.55 15.3" fill="#ffffff" fill-rule="evenodd" stroke="none"/>
    <path d="M9.35 15.8 L9.35 17.55 8.2 17.55 8.2 15.8 9.35 15.8" fill="url(#gradient5)" fill-rule="evenodd" stroke="none"/>
    <path d="M9.55 15.3 L9.55 16.35 8.0 16.35 8.0 15.3 9.55 15.3" fill="#9c9fa6" fill-rule="evenodd" stroke="none"/>
    <path d="M12.3 15.3 L12.3 17.8 10.65 17.8 10.65 15.3 12.3 15.3" fill="#ffffff" fill-rule="evenodd" stroke="none"/>
    <path d="M12.05 15.8 L12.05 17.55 10.9 17.55 10.9 15.8 12.05 15.8" fill="url(#gradient6)" fill-rule="evenodd" stroke="none"/>
    <path d="M12.3 15.3 L12.3 16.35 10.65 16.35 10.65 15.3 12.3 15.3" fill="#9c9fa6" fill-rule="evenodd" stroke="none"/>
    <path d="M14.95 15.3 L14.95 17.8 13.35 17.8 13.35 15.3 14.95 15.3" fill="#ffffff" fill-rule="evenodd" stroke="none"/>
    <path d="M14.75 15.8 L14.75 17.55 13.55 17.55 13.55 15.8 14.75 15.8" fill="url(#gradient7)" fill-rule="evenodd" stroke="none"/>
    <path d="M14.95 15.3 L14.95 16.35 13.35 16.35 13.35 15.3 14.95 15.3" fill="#9c9fa6" fill-rule="evenodd" stroke="none"/>
    <path d="M15.6 6.65 L15.6 5.05 18.05 5.05 18.05 6.65 15.6 6.65" fill="#ffffff" fill-rule="evenodd" stroke="none"/>
    <path d="M16.05 6.45 L16.05 5.25 17.85 5.25 17.85 6.45 16.05 6.45" fill="url(#gradient8)" fill-rule="evenodd" stroke="none"/>
    <path d="M15.6 6.65 L15.6 5.05 16.65 5.05 16.65 6.65 15.6 6.65" fill="#9c9fa6" fill-rule="evenodd" stroke="none"/>
    <path d="M15.6 9.35 L15.6 7.75 18.05 7.75 18.05 9.35 15.6 9.35" fill="#ffffff" fill-rule="evenodd" stroke="none"/>
    <path d="M16.05 9.1 L16.05 7.95 17.85 7.95 17.85 9.1 16.05 9.1" fill="url(#gradient9)" fill-rule="evenodd" stroke="none"/>
    <path d="M15.6 9.35 L15.6 7.75 16.65 7.75 16.65 9.35 15.6 9.35" fill="#9c9fa6" fill-rule="evenodd" stroke="none"/>
    <path d="M15.6 12.0 L15.6 10.4 18.05 10.4 18.05 12.0 15.6 12.0" fill="#ffffff" fill-rule="evenodd" stroke="none"/>
    <path d="M16.05 11.8 L16.05 10.65 17.85 10.65 17.85 11.8 16.05 11.8" fill="url(#gradient10)" fill-rule="evenodd" stroke="none"/>
    <path d="M15.6 12.0 L15.6 10.4 16.65 10.4 16.65 12.0 15.6 12.0" fill="#9c9fa6" fill-rule="evenodd" stroke="none"/>
    <path d="M15.6 14.7 L15.6 13.1 18.05 13.1 18.05 14.7 15.6 14.7" fill="#ffffff" fill-rule="evenodd" stroke="none"/>
    <path d="M16.05 14.45 L16.05 13.3 17.85 13.3 17.85 14.45 16.05 14.45" fill="url(#gradient11)" fill-rule="evenodd" stroke="none"/>
    <path d="M15.6 14.7 L15.6 13.1 16.65 13.1 16.65 14.7 15.6 14.7" fill="#9c9fa6" fill-rule="evenodd" stroke="none"/>
    <path d="M4.65 6.65 L2.2 6.65 2.2 5.05 4.65 5.05 4.65 6.65" fill="#ffffff" fill-rule="evenodd" stroke="none"/>
    <path d="M4.2 6.45 L2.4 6.45 2.4 5.25 4.2 5.25 4.2 6.45" fill="url(#gradient12)" fill-rule="evenodd" stroke="none"/>
    <path d="M4.65 6.65 L3.65 6.65 3.65 5.05 4.65 5.05 4.65 6.65" fill="#9c9fa6" fill-rule="evenodd" stroke="none"/>
    <path d="M4.65 9.35 L2.2 9.35 2.2 7.75 4.65 7.75 4.65 9.35" fill="#ffffff" fill-rule="evenodd" stroke="none"/>
    <path d="M4.2 9.1 L2.4 9.1 2.4 7.95 4.2 7.95 4.2 9.1" fill="url(#gradient13)" fill-rule="evenodd" stroke="none"/>
    <path d="M4.65 9.35 L3.65 9.35 3.65 7.75 4.65 7.75 4.65 9.35" fill="#9c9fa6" fill-rule="evenodd" stroke="none"/>
    <path d="M4.65 12.0 L2.2 12.0 2.2 10.4 4.65 10.4 4.65 12.0" fill="#ffffff" fill-rule="evenodd" stroke="none"/>
    <path d="M4.2 11.8 L2.4 11.8 2.4 10.65 4.2 10.65 4.2 11.8" fill="url(#gradient14)" fill-rule="evenodd" stroke="none"/>
    <path d="M4.65 12.0 L3.65 12.0 3.65 10.4 4.65 10.4 4.65 12.0" fill="#9c9fa6" fill-rule="evenodd" stroke="none"/>
    <path d="M4.65 14.7 L2.2 14.7 2.2 13.1 4.65 13.1 4.65 14.7" fill="#ffffff" fill-rule="evenodd" stroke="none"/>
    <path d="M4.2 14.45 L2.4 14.45 2.4 13.3 4.2 13.3 4.2 14.45" fill="url(#gradient15)" fill-rule="evenodd" stroke="none"/>
    <path d="M4.65 14.7 L3.65 14.7 3.65 13.1 4.65 13.1 4.65 14.7" fill="#9c9fa6" fill-rule="evenodd" stroke="none"/>
    <path d="M4.85 3.8 L15.45 3.8 4.85 15.9 4.3 15.7 4.1 15.15 4.1 4.6 4.3 4.05 Q4.55 3.8 4.85 3.8" fill="url(#gradient16)" fill-rule="evenodd" stroke="none"/>
    <path d="M16.2 4.6 L16.2 15.15 15.95 15.7 15.45 15.9 4.85 15.9 15.45 3.8 15.95 4.05 16.2 4.6" fill="url(#gradient17)" fill-rule="evenodd" stroke="none"/>
    <path d="M15.45 4.6 L15.65 5.1 15.65 14.65 15.45 15.15 14.95 15.35 5.35 15.35 Q5.05 15.35 4.85 15.15 4.65 15.0 4.65 14.65 L4.65 5.1 4.85 4.6 Q5.05 4.35 5.35 4.35 L14.95 4.35 15.45 4.6" fill="url(#gradient18)" fill-rule="evenodd" stroke="none"/>
    <path d="M15.4 14.45 L15.2 14.95 14.75 15.15 5.55 15.15 5.05 14.95 4.85 14.45 4.85 5.25 5.05 4.8 5.55 4.6 14.75 4.6 15.2 4.8 15.4 5.25 15.4 14.45" fill="url(#gradient19)" fill-rule="evenodd" stroke="none"/>
    <path d="M13.65 13.6 L6.65 13.6 6.65 6.6 13.65 6.6 13.65 13.6" fill="#333333" fill-rule="evenodd" stroke="none"/>
    <path d="M13.2 12.95 L7.05 12.95 7.05 6.8 13.2 6.8 13.2 12.95" fill="#ffffff" fill-rule="evenodd" stroke="none"/>
    <path d="M12.75 12.9 L7.5 12.9 7.5 7.25 12.75 7.25 12.75 12.9" fill="url(#gradient20)" fill-rule="evenodd" stroke="none"/>
  </g>
  <defs>
    <linearGradient gradientTransform="matrix(0.0, -0.001, -0.001, 0.0, 6.1, 3.05)" gradientUnits="userSpaceOnUse" id="gradient0" spreadMethod="pad" x1="-819.2" x2="819.2">
      <stop offset="0.0" stop-color="#ebebeb"/>
      <stop offset="1.0" stop-color="#9c9fa6"/>
    </linearGradient>
    <linearGradient gradientTransform="matrix(0.0, -0.001, -0.001, 0.0, 8.8, 3.05)" gradientUnits="userSpaceOnUse" id="gradient1" spreadMethod="pad" x1="-819.2" x2="819.2">
      <stop offset="0.0" stop-color="#ebebeb"/>
      <stop offset="1.0" stop-color="#9c9fa6"/>
    </linearGradient>
    <linearGradient gradientTransform="matrix(0.0, -0.001, -0.001, 0.0, 11.45, 3.05)" gradientUnits="userSpaceOnUse" id="gradient2" spreadMethod="pad" x1="-819.2" x2="819.2">
      <stop offset="0.0" stop-color="#ebebeb"/>
      <stop offset="1.0" stop-color="#9c9fa6"/>
    </linearGradient>
    <linearGradient gradientTransform="matrix(0.0, -0.001, -0.001, 0.0, 14.15, 3.05)" gradientUnits="userSpaceOnUse" id="gradient3" spreadMethod="pad" x1="-819.2" x2="819.2">
      <stop offset="0.0" stop-color="#ebebeb"/>
      <stop offset="1.0" stop-color="#9c9fa6"/>
    </linearGradient>
    <linearGradient gradientTransform="matrix(0.0, -0.001, 0.001, 0.0, 6.1, 16.7)" gradientUnits="userSpaceOnUse" id="gradient4" spreadMethod="pad" x1="-819.2" x2="819.2">
      <stop offset="0.0" stop-color="#ebebeb"/>
      <stop offset="1.0" stop-color="#9c9fa6"/>
    </linearGradient>
    <linearGradient gradientTransform="matrix(0.0, -0.001, 0.001, 0.0, 8.8, 16.7)" gradientUnits="userSpaceOnUse" id="gradient5" spreadMethod="pad" x1="-819.2" x2="819.2">
      <stop offset="0.0" stop-color="#ebebeb"/>
      <stop offset="1.0" stop-color="#9c9fa6"/>
    </linearGradient>
    <linearGradient gradientTransform="matrix(0.0, -0.001, 0.001, 0.0, 11.45, 16.7)" gradientUnits="userSpaceOnUse" id="gradient6" spreadMethod="pad" x1="-819.2" x2="819.2">
      <stop offset="0.0" stop-color="#ebebeb"/>
      <stop offset="1.0" stop-color="#9c9fa6"/>
    </linearGradient>
    <linearGradient gradientTransform="matrix(0.0, -0.001, 0.001, 0.0, 14.15, 16.7)" gradientUnits="userSpaceOnUse" id="gradient7" spreadMethod="pad" x1="-819.2" x2="819.2">
      <stop offset="0.0" stop-color="#ebebeb"/>
      <stop offset="1.0" stop-color="#9c9fa6"/>
    </linearGradient>
    <linearGradient gradientTransform="matrix(0.001, 0.0, 0.0, -0.001, 17.0, 5.85)" gradientUnits="userSpaceOnUse" id="gradient8" spreadMethod="pad" x1="-819.2" x2="819.2">
      <stop offset="0.0" stop-color="#ebebeb"/>
      <stop offset="1.0" stop-color="#9c9fa6"/>
    </linearGradient>
    <linearGradient gradientTransform="matrix(0.001, 0.0, 0.0, -0.001, 17.0, 8.5)" gradientUnits="userSpaceOnUse" id="gradient9" spreadMethod="pad" x1="-819.2" x2="819.2">
      <stop offset="0.0" stop-color="#ebebeb"/>
      <stop offset="1.0" stop-color="#9c9fa6"/>
    </linearGradient>
    <linearGradient gradientTransform="matrix(0.001, 0.0, 0.0, -0.001, 17.0, 11.25)" gradientUnits="userSpaceOnUse" id="gradient10" spreadMethod="pad" x1="-819.2" x2="819.2">
      <stop offset="0.0" stop-color="#ebebeb"/>
      <stop offset="1.0" stop-color="#9c9fa6"/>
    </linearGradient>
    <linearGradient gradientTransform="matrix(0.001, 0.0, 0.0, -0.001, 17.0, 13.9)" gradientUnits="userSpaceOnUse" id="gradient11" spreadMethod="pad" x1="-819.2" x2="819.2">
      <stop offset="0.0" stop-color="#ebebeb"/>
      <stop offset="1.0" stop-color="#9c9fa6"/>
    </linearGradient>
    <linearGradient gradientTransform="matrix(0.001, 0.0, 0.0, 0.001, 3.25, 5.85)" gradientUnits="userSpaceOnUse" id="gradient12" spreadMethod="pad" x1="-819.2" x2="819.2">
      <stop offset="0.0" stop-color="#ebebeb"/>
      <stop offset="1.0" stop-color="#9c9fa6"/>
    </linearGradient>
    <linearGradient gradientTransform="matrix(0.001, 0.0, 0.0, 0.001, 3.25, 8.5)" gradientUnits="userSpaceOnUse" id="gradient13" spreadMethod="pad" x1="-819.2" x2="819.2">
      <stop offset="0.0" stop-color="#ebebeb"/>
      <stop offset="1.0" stop-color="#9c9fa6"/>
    </linearGradient>
    <linearGradient gradientTransform="matrix(0.001, 0.0, 0.0, 0.001, 3.25, 11.25)" gradientUnits="userSpaceOnUse" id="gradient14" spreadMethod="pad" x1="-819.2" x2="819.2">
      <stop offset="0.0" stop-color="#ebebeb"/>
      <stop offset="1.0" stop-color="#9c9fa6"/>
    </linearGradient>
    <linearGradient gradientTransform="matrix(0.001, 0.0, 0.0, 0.001, 3.25, 13.9)" gradientUnits="userSpaceOnUse" id="gradient15" spreadMethod="pad" x1="-819.2" x2="819.2">
      <stop offset="0.0" stop-color="#ebebeb"/>
      <stop offset="1.0" stop-color="#9c9fa6"/>
    </linearGradient>
    <linearGradient gradientTransform="matrix(0.0033, 0.0034, 0.0034, -0.0033, 7.3, 7.2)" gradientUnits="userSpaceOnUse" id="gradient16" spreadMethod="pad" x1="-819.2" x2="819.2">
      <stop offset="0.0" stop-color="#808080"/>
      <stop offset="1.0" stop-color="#4d4d4d"/>
    </linearGradient>
    <linearGradient gradientTransform="matrix(0.0034, 0.0034, 0.0034, -0.0034, 13.1, 12.7)" gradientUnits="userSpaceOnUse" id="gradient17" spreadMethod="pad" x1="-819.2" x2="819.2">
      <stop offset="0.0" stop-color="#1a1a1a"/>
      <stop offset="1.0" stop-color="#666666"/>
    </linearGradient>
    <linearGradient gradientTransform="matrix(0.0, -0.0066, -0.0066, 0.0, 10.15, 9.9)" gradientUnits="userSpaceOnUse" id="gradient18" spreadMethod="pad" x1="-819.2" x2="819.2">
      <stop offset="0.0" stop-color="#999999"/>
      <stop offset="0.5411764705882353" stop-color="#b3b3b3"/>
      <stop offset="1.0" stop-color="#dedede"/>
    </linearGradient>
    <linearGradient gradientTransform="matrix(0.0053, 0.0053, 0.0053, -0.0053, 10.6, 10.3)" gradientUnits="userSpaceOnUse" id="gradient19" spreadMethod="pad" x1="-819.2" x2="819.2">
      <stop offset="0.0" stop-color="#1a1a1a"/>
      <stop offset="0.9294117647058824" stop-color="#909090"/>
      <stop offset="1.0" stop-color="#999999"/>
    </linearGradient>
    <linearGradient gradientTransform="matrix(-4.0E-4, -0.003, -0.003, 4.0E-4, 10.15, 10.0)" gradientUnits="userSpaceOnUse" id="gradient20" spreadMethod="pad" x1="-819.2" x2="819.2">
      <stop offset="0.0" stop-color="#ebebeb"/>
      <stop offset="1.0" stop-color="#9c9fa6"/>
    </linearGradient>
  </defs>
</svg>
