<?xml version="1.0" encoding="UTF-8" standalone="no"?>
<svg xmlns:ffdec="https://www.free-decompiler.com/flash" xmlns:xlink="http://www.w3.org/1999/xlink" ffdec:objectType="shape" height="20.0px" width="20.0px" xmlns="http://www.w3.org/2000/svg">
  <g transform="matrix(1.0, 0.0, 0.0, 1.0, 0.0, 0.0)">
    <path d="M3.6 0.45 L16.35 0.45 Q17.65 0.45 18.6 1.35 19.5 2.35 19.5 3.65 L19.5 16.35 Q19.5 17.7 18.6 18.65 17.65 19.55 16.35 19.55 L3.6 19.55 Q2.3 19.55 1.35 18.65 0.45 17.7 0.45 16.35 L0.45 3.65 Q0.45 2.35 1.35 1.35 2.3 0.45 3.6 0.45" fill="#021c63" fill-rule="evenodd" stroke="none"/>
    <path d="M1.05 1.1 Q2.1 0.0 3.6 0.0 L16.35 0.0 Q17.85 0.0 18.95 1.1 20.0 2.15 20.0 3.65 L20.0 16.35 Q20.0 17.85 18.95 18.95 17.85 20.0 16.35 20.0 L3.6 20.0 Q2.1 20.0 1.05 18.95 0.0 17.85 0.0 16.35 L0.0 3.65 Q0.0 2.15 1.05 1.1 M3.6 0.9 Q2.5 0.9 1.7 1.75 0.9 2.5 0.9 3.65 L0.9 16.35 Q0.9 17.5 1.7 18.25 2.5 19.1 3.6 19.1 L16.35 19.1 Q17.45 19.1 18.25 18.25 19.05 17.5 19.05 16.35 L19.05 3.65 Q19.05 2.5 18.25 1.75 17.45 0.9 16.35 0.9 L3.6 0.9" fill="#0074ff" fill-rule="evenodd" stroke="none"/>
    <path d="M14.95 13.45 Q11.55 15.1 6.75 15.1 L6.75 3.95 Q11.55 3.95 14.95 5.6 18.35 7.2 18.35 9.5 18.35 11.85 14.95 13.45" fill="url(#gradient0)" fill-rule="evenodd" stroke="none"/>
    <path d="M14.95 5.6 Q18.35 7.2 18.35 9.5 18.35 10.8 17.25 11.9 16.2 12.95 14.3 13.75 17.3 12.2 17.3 10.1 17.3 7.95 14.25 6.4 11.2 4.85 6.75 4.7 L6.75 3.95 Q11.55 3.95 14.95 5.6" fill="#deffef" fill-rule="evenodd" stroke="none"/>
    <path d="M18.6 9.65 Q18.6 12.05 15.0 13.8 11.4 15.55 6.35 15.55 L6.7 15.2 Q11.5 15.2 14.85 13.6 18.25 11.95 18.25 9.65 18.25 7.35 14.85 5.7 11.5 4.05 6.7 4.05 L6.35 3.75 Q11.4 3.75 15.0 5.45 18.6 7.2 18.6 9.65" fill="url(#gradient1)" fill-rule="evenodd" stroke="none"/>
  </g>
  <defs>
    <linearGradient gradientTransform="matrix(0.0071, 0.0, 0.0, -0.0071, 12.55, 9.5)" gradientUnits="userSpaceOnUse" id="gradient0" spreadMethod="pad" x1="-819.2" x2="819.2">
      <stop offset="0.0" stop-color="#00ff00" stop-opacity="0.0"/>
      <stop offset="0.6980392156862745" stop-color="#00ff00"/>
      <stop offset="1.0" stop-color="#99ffff"/>
    </linearGradient>
    <linearGradient gradientTransform="matrix(0.0075, 0.0, 0.0, -0.0075, 12.45, 9.65)" gradientUnits="userSpaceOnUse" id="gradient1" spreadMethod="pad" x1="-819.2" x2="819.2">
      <stop offset="0.0" stop-color="#2e3192"/>
      <stop offset="1.0" stop-color="#2e3192"/>
    </linearGradient>
  </defs>
</svg>
