<?xml version="1.0" encoding="UTF-8" standalone="no"?>
<svg xmlns:ffdec="https://www.free-decompiler.com/flash" xmlns:xlink="http://www.w3.org/1999/xlink" ffdec:objectType="shape" height="26.45px" width="32.0px" xmlns="http://www.w3.org/2000/svg">
  <g transform="matrix(1.0, 0.0, 0.0, 1.0, 0.05, 0.0)">
    <path d="M23.4 3.95 Q25.2 4.3 25.65 4.65 26.05 4.95 25.95 5.3 L25.55 5.85 23.65 6.55 Q24.65 6.8 25.25 7.6 25.9 8.4 25.9 9.4 L25.9 12.5 29.0 12.5 Q30.2 12.5 31.1 13.35 31.95 14.2 31.95 15.45 L31.95 17.45 Q31.95 18.7 31.1 19.55 30.2 20.4 29.0 20.4 L25.9 20.4 25.9 23.45 Q25.9 24.7 25.05 25.55 24.2 26.45 22.95 26.45 L20.95 26.45 Q19.75 26.45 18.9 25.55 18.0 24.7 18.0 23.45 L18.0 20.4 14.95 20.4 Q13.7 20.4 12.85 19.55 12.0 18.7 12.0 17.45 L12.0 15.45 Q12.0 14.2 12.85 13.35 13.7 12.5 14.95 12.5 L18.0 12.5 18.0 9.4 Q18.0 8.35 18.75 7.45 L14.3 7.8 Q11.0 9.4 5.55 10.2 L5.3 10.2 0.9 9.15 Q0.45 9.1 0.35 8.5 0.35 7.95 0.8 7.8 L1.1 7.7 0.85 7.4 0.05 5.85 0.05 5.25 Q0.2 4.9 0.5 4.85 L1.8 4.5 0.7 0.95 Q0.55 0.6 0.8 0.35 L1.35 0.05 3.4 0.0 3.75 0.1 7.7 2.55 10.75 2.3 11.0 2.3 Q13.1 2.4 14.6 3.3 L23.4 3.95" fill="#000000" fill-rule="evenodd" stroke="none"/>
  </g>
</svg>
