<?xml version="1.0" encoding="UTF-8" standalone="no"?>
<svg xmlns:ffdec="https://www.free-decompiler.com/flash" xmlns:xlink="http://www.w3.org/1999/xlink" ffdec:objectType="shape" height="32.75px" width="32.3px" xmlns="http://www.w3.org/2000/svg">
  <g transform="matrix(1.0, 0.0, 0.0, 1.0, 0.0, 0.0)">
    <path d="M30.4 9.05 L31.05 9.5 Q31.2 10.0 30.8 10.35 L27.8 12.25 Q29.35 13.9 31.25 13.9 L31.6 13.9 Q32.2 13.9 32.3 14.55 32.3 15.2 31.65 15.3 29.55 15.45 28.15 17.45 L31.2 19.85 Q31.65 20.2 31.4 20.7 31.25 21.1 30.75 21.1 L30.65 21.1 26.95 20.55 Q26.55 23.25 28.25 24.95 L27.25 25.95 Q26.15 24.85 24.35 24.85 L24.05 24.85 25.15 29.55 Q25.25 30.1 24.75 30.35 L24.45 30.4 23.9 30.15 20.6 26.1 Q18.2 27.8 18.2 30.1 18.2 30.8 17.5 30.8 16.8 30.8 16.8 30.1 16.8 27.9 14.4 26.45 L12.35 29.2 11.8 29.45 11.5 29.4 Q11.0 29.25 11.1 28.65 L11.25 27.55 10.85 28.0 10.5 28.2 10.55 28.55 10.2 29.05 9.6 29.45 8.35 32.3 Q8.2 32.6 7.8 32.7 L7.7 32.75 7.2 32.5 6.8 32.15 6.45 32.25 Q6.15 32.25 5.95 32.05 L3.6 29.7 3.4 29.35 3.0 29.15 0.7 26.8 Q0.3 26.4 0.6 25.9 L0.2 25.55 Q-0.05 25.3 0.05 24.95 0.05 24.55 0.45 24.4 L3.3 23.1 3.55 22.7 3.35 22.5 Q3.1 22.0 3.5 21.6 L6.3 19.15 Q4.8 17.25 2.95 17.25 L2.75 17.25 2.65 15.85 Q4.2 15.8 5.45 14.2 L1.65 11.7 Q1.25 11.4 1.4 10.9 1.55 10.4 2.05 10.4 L6.85 10.7 Q7.1 8.1 5.55 6.95 L6.4 5.85 Q7.4 6.6 8.9 6.6 L10.1 6.5 8.85 0.85 Q8.65 0.3 9.2 0.05 L9.5 0.0 Q9.8 0.0 10.05 0.25 L13.7 4.55 Q15.1 2.95 14.85 1.3 L15.0 0.8 Q15.15 0.55 15.45 0.5 L15.55 0.5 Q16.15 0.5 16.25 1.1 16.45 2.35 17.4 3.45 18.4 4.5 19.9 5.05 L21.25 3.0 Q21.5 2.7 21.85 2.7 L22.1 2.75 Q22.55 2.9 22.55 3.45 L22.35 5.5 Q24.55 5.5 25.75 3.95 L26.85 4.8 Q25.25 6.9 26.35 9.85 L30.25 9.1 30.4 9.05" fill="#000000" fill-rule="evenodd" stroke="none"/>
  </g>
</svg>
