<?xml version="1.0" encoding="UTF-8" standalone="no"?>
<svg xmlns:ffdec="https://www.free-decompiler.com/flash" xmlns:xlink="http://www.w3.org/1999/xlink" ffdec:objectType="shape" height="18.45px" width="18.45px" xmlns="http://www.w3.org/2000/svg">
  <g transform="matrix(1.0, 0.0, 0.0, 1.0, -0.5, -0.75)">
    <path d="M18.1 6.6 L16.4 7.65 Q17.25 8.6 18.35 8.6 L18.55 8.6 18.95 8.95 18.6 9.35 Q17.4 9.45 16.6 10.6 L18.35 11.95 Q18.6 12.1 18.45 12.4 L18.05 12.65 18.0 12.65 15.9 12.3 Q15.65 13.85 16.65 14.8 L16.05 15.35 Q15.45 14.75 14.4 14.75 L14.25 14.75 14.85 17.4 Q14.95 17.7 14.65 17.85 L14.45 17.85 Q14.25 17.85 14.15 17.7 L12.25 15.45 Q10.9 16.4 10.9 17.7 10.9 18.1 10.5 18.1 10.1 18.1 10.1 17.7 10.1 16.45 8.7 15.65 L7.55 17.2 7.25 17.35 7.05 17.3 Q6.75 17.2 6.85 16.9 L7.1 15.15 6.75 15.15 Q5.6 15.15 4.95 15.8 L4.35 15.25 Q5.15 14.45 4.8 13.0 L2.75 13.6 2.4 13.4 Q2.25 13.15 2.5 12.9 L4.1 11.55 Q3.25 10.45 2.15 10.45 L2.05 10.45 2.0 9.65 Q2.9 9.65 3.6 8.75 L1.45 7.35 Q1.2 7.15 1.3 6.9 1.35 6.6 1.65 6.6 L4.4 6.8 Q4.55 5.3 3.65 4.65 L4.15 4.05 Q4.7 4.45 5.55 4.45 L6.25 4.4 5.55 1.25 Q5.45 0.9 5.75 0.8 L5.9 0.75 6.25 0.9 8.3 3.3 Q9.1 2.4 9.0 1.5 L9.05 1.2 Q9.15 1.05 9.3 1.05 L9.4 1.05 9.8 1.35 Q9.9 2.05 10.45 2.7 L11.85 3.6 12.65 2.45 Q12.8 2.25 13.0 2.25 L13.1 2.3 13.4 2.7 13.25 3.85 Q14.55 3.85 15.2 3.0 L15.85 3.45 Q14.95 4.65 15.55 6.3 L17.8 5.85 17.85 5.85 18.25 6.1 18.1 6.6" fill="#42210b" fill-rule="evenodd" stroke="none"/>
    <path d="M15.55 3.25 Q14.3 4.85 15.4 6.95 16.55 9.1 18.55 8.95 16.55 9.15 15.7 11.4 14.9 13.65 16.35 15.05 14.9 13.7 12.7 14.75 10.55 15.75 10.5 17.65 10.5 15.8 8.25 15.0 6.0 14.2 4.7 15.55 5.95 14.2 4.9 12.1 3.85 10.0 2.05 10.05 3.85 9.95 4.6 7.75 5.35 5.5 3.9 4.4 5.4 5.5 7.5 4.4 9.65 3.3 9.4 1.5 9.7 3.35 12.0 4.05 14.3 4.75 15.55 3.25" fill="#f78b0c" fill-rule="evenodd" stroke="none"/>
    <path d="M4.8 6.45 L6.45 6.6 6.05 4.85 Q7.75 4.65 8.8 3.35 L10.4 5.15 11.3 3.8 Q12.45 4.35 13.55 4.2 L13.3 6.4 15.05 6.05 Q15.4 7.3 16.25 8.1 L15.0 8.9 16.45 10.05 Q15.55 11.1 15.45 12.55 L14.0 12.4 14.5 14.35 Q13.0 14.3 11.75 15.35 L10.5 13.85 9.25 15.5 Q8.15 14.75 6.85 14.75 L7.2 12.6 5.25 13.2 Q5.05 11.95 4.15 11.05 L5.15 10.1 3.75 9.2 Q4.8 8.05 4.8 6.45" fill="#bd461c" fill-rule="evenodd" stroke="none"/>
    <path d="M10.45 6.35 L13.0 2.65 12.5 7.3 17.85 6.25 13.75 8.85 18.05 12.25 13.1 11.5 14.45 17.45 10.45 12.7 7.25 16.95 8.1 11.6 2.75 13.2 6.35 10.05 1.65 7.0 7.35 7.35 5.9 1.15 10.45 6.35" fill="url(#gradient0)" fill-rule="evenodd" stroke="none"/>
    <path d="M10.25 12.95 L6.7 16.5 6.5 16.65 6.5 16.8 6.3 17.1 5.95 17.35 5.25 18.95 4.95 19.15 4.9 19.2 4.6 19.05 4.35 18.85 4.15 18.9 3.9 18.8 2.55 17.45 2.45 17.25 2.2 17.15 0.9 15.85 Q0.65 15.6 0.85 15.35 L0.6 15.15 0.5 14.8 0.75 14.5 2.35 13.75 2.6 13.4 2.9 13.25 2.95 13.25 3.1 13.3 3.2 13.1 6.75 9.55 Q7.65 8.7 9.1 8.7 L10.65 8.95 10.9 9.2 11.15 10.6 Q11.2 12.1 10.25 12.95" fill="#42210b" fill-rule="evenodd" stroke="none"/>
    <path d="M5.3 16.8 L2.9 14.45 4.45 12.9 6.85 15.3 5.3 16.8 M2.1 14.65 L3.45 15.95 2.5 16.9 1.15 15.55 2.1 14.65 M3.75 16.3 L5.1 17.6 4.15 18.5 2.85 17.2 3.75 16.3" fill="#272633" fill-rule="evenodd" stroke="none"/>
    <path d="M10.5 9.3 L10.7 10.55 Q10.8 11.95 10.0 12.7 L6.4 16.25 6.05 15.85 6.2 15.2 5.55 15.4 5.15 15.05 5.35 14.4 4.7 14.55 4.35 14.2 4.5 13.55 3.85 13.75 3.5 13.35 7.05 9.85 Q7.85 9.05 9.25 9.1 L10.5 9.3 M5.65 17.1 L4.9 18.8 3.7 17.6 4.25 17.1 3.9 16.75 3.35 17.25 2.45 16.35 2.95 15.85 2.65 15.5 2.1 16.05 0.9 14.85 2.65 14.1 2.95 13.65 6.1 16.75 5.65 17.1" fill="url(#gradient1)" fill-rule="evenodd" stroke="none"/>
    <path d="M10.5 9.3 L10.6 9.7 10.6 9.6 9.35 9.35 Q7.95 9.3 7.15 10.1 L3.65 13.55 3.5 13.35 7.05 9.85 Q7.85 9.05 9.25 9.1 L10.5 9.3 M4.55 13.85 L4.45 14.3 4.35 14.2 4.45 13.85 4.55 13.85 M2.45 16.35 L2.85 15.9 3.05 16.1 2.6 16.55 2.45 16.35 M4.1 17.15 L4.3 17.35 3.85 17.8 3.7 17.6 4.1 17.15 M6.1 16.75 L5.95 16.85 3.0 13.9 2.7 14.35 1.1 15.1 0.9 14.85 2.65 14.1 2.95 13.65 6.1 16.75 M5.45 14.65 L5.3 15.15 5.15 15.05 5.25 14.7 5.45 14.65 M6.1 15.55 L6.25 15.5 6.15 16.0 6.05 15.85 6.1 15.55" fill="url(#gradient2)" fill-rule="evenodd" stroke="none"/>
    <path d="M9.65 9.15 L10.5 9.3 5.35 14.4 4.7 14.55 4.45 14.3 9.65 9.15 M4.0 14.7 L4.5 15.2 2.9 16.8 2.45 16.35 2.95 15.85 2.9 15.8 4.0 14.7" fill="#ffffff" fill-rule="evenodd" stroke="none"/>
  </g>
  <defs>
    <radialGradient cx="0" cy="0" gradientTransform="matrix(0.0101, 0.0, 0.0, -0.0099, 9.85, 9.3)" gradientUnits="userSpaceOnUse" id="gradient0" r="819.2" spreadMethod="pad">
      <stop offset="0.0" stop-color="#ffffff"/>
      <stop offset="1.0" stop-color="#ffff00"/>
    </radialGradient>
    <linearGradient gradientTransform="matrix(0.0019, 0.0019, 0.0019, -0.0019, 6.85, 13.2)" gradientUnits="userSpaceOnUse" id="gradient1" spreadMethod="pad" x1="-819.2" x2="819.2">
      <stop offset="0.0" stop-color="#8c9099"/>
      <stop offset="0.12156862745098039" stop-color="#cdd1da"/>
      <stop offset="0.3568627450980392" stop-color="#cdd1da"/>
      <stop offset="0.8" stop-color="#565a63"/>
      <stop offset="1.0" stop-color="#cdd1da"/>
    </linearGradient>
    <linearGradient gradientTransform="matrix(0.0017, 0.0017, 0.0017, -0.0017, 6.6, 12.95)" gradientUnits="userSpaceOnUse" id="gradient2" spreadMethod="pad" x1="-819.2" x2="819.2">
      <stop offset="0.0" stop-color="#ffffff"/>
      <stop offset="1.0" stop-color="#cdd1da"/>
    </linearGradient>
  </defs>
</svg>
