<?xml version="1.0" encoding="UTF-8" standalone="no"?>
<svg xmlns:ffdec="https://www.free-decompiler.com/flash" xmlns:xlink="http://www.w3.org/1999/xlink" ffdec:objectType="shape" height="33.0px" width="34.55px" xmlns="http://www.w3.org/2000/svg">
  <g transform="matrix(1.0, 0.0, 0.0, 1.0, 0.0, 0.0)">
    <path d="M28.05 22.7 L21.9 27.2 Q22.45 28.15 22.45 29.15 22.45 30.75 21.3 31.9 20.2 33.0 18.6 33.0 17.0 33.0 15.85 31.9 14.7 30.75 14.7 29.15 14.7 28.4 15.0 27.8 L6.65 23.6 Q5.45 24.8 3.85 24.8 2.25 24.8 1.1 23.65 0.0 22.55 0.0 20.95 0.0 19.35 1.1 18.2 2.25 17.1 3.85 17.1 L5.45 17.45 13.95 6.2 Q13.15 5.2 13.15 3.85 13.15 2.25 14.25 1.15 15.4 0.0 17.0 0.0 18.6 0.0 19.7 1.15 20.85 2.3 20.85 3.85 20.85 4.95 20.2 6.0 L28.8 16.5 Q29.8 16.0 30.7 16.0 32.3 16.0 33.4 17.15 34.55 18.3 34.55 19.85 34.55 21.45 33.4 22.6 32.3 23.7 30.7 23.7 29.15 23.7 28.05 22.7" fill="#000000" fill-rule="evenodd" stroke="none"/>
  </g>
</svg>
