<?xml version="1.0" encoding="UTF-8" standalone="no"?>
<svg xmlns:ffdec="https://www.free-decompiler.com/flash" xmlns:xlink="http://www.w3.org/1999/xlink" ffdec:objectType="shape" height="14.75px" width="14.65px" xmlns="http://www.w3.org/2000/svg">
  <g transform="matrix(1.0, 0.0, 0.0, 1.0, -2.45, -2.55)">
    <path d="M6.55 9.7 L8.65 6.05 8.45 6.05 8.2 5.9 8.15 5.55 8.8 4.4 9.0 4.25 9.75 4.0 Q11.05 2.6 12.45 2.55 L12.75 2.7 Q13.4 3.9 12.9 5.75 L13.05 6.55 13.0 6.8 12.35 7.95 12.1 8.1 11.85 7.95 11.7 7.8 9.65 11.45 10.9 13.75 10.9 14.05 10.8 14.2 11.2 14.15 11.6 13.5 Q11.7 13.35 11.85 13.35 L11.9 13.3 10.75 13.05 10.55 12.9 10.55 12.65 10.8 12.15 11.1 11.95 12.7 11.9 13.9 9.75 13.7 9.6 13.7 9.3 14.1 8.55 14.3 8.4 14.75 8.25 Q15.6 7.3 16.55 7.3 L16.85 7.45 Q17.3 8.3 16.9 9.5 L17.05 9.95 17.0 10.2 16.55 10.9 16.3 11.1 16.1 11.0 14.85 13.15 15.65 14.55 15.65 14.85 15.35 15.35 15.15 15.5 15.1 15.5 14.85 15.4 14.1 14.55 14.05 14.55 14.1 14.9 13.7 15.55 14.0 16.1 14.0 16.45 13.8 16.85 Q13.7 16.95 13.55 17.0 L13.3 16.9 13.05 16.65 12.95 16.85 12.7 17.0 12.55 16.95 10.6 15.85 10.45 15.7 10.5 15.45 10.6 15.25 10.3 15.2 10.1 15.0 10.05 14.9 8.55 13.35 8.35 13.75 8.45 13.9 8.45 14.15 7.85 15.25 8.4 16.2 8.4 16.5 8.0 17.15 7.8 17.3 7.75 17.3 7.55 17.2 7.0 16.65 6.75 17.15 6.55 17.3 6.45 17.3 6.3 17.3 3.25 15.6 Q3.05 15.4 3.15 15.15 L3.45 14.65 2.7 14.5 2.5 14.35 2.5 14.05 2.9 13.4 Q3.0 13.25 3.15 13.25 L4.25 13.2 4.9 12.15 5.05 11.95 5.15 11.95 5.25 12.0 5.45 11.6 3.45 11.2 3.25 11.0 3.25 10.75 3.7 9.95 3.95 9.8 6.55 9.7" fill="#20283b" fill-rule="evenodd" stroke="none"/>
    <path d="M14.4 12.95 L15.35 14.7 15.1 15.2 13.9 13.9 14.4 12.95" fill="url(#gradient0)" fill-rule="evenodd" stroke="none"/>
    <path d="M15.2 14.7 L14.3 13.1 14.4 12.95 15.35 14.7 15.1 15.2 15.0 15.05 15.2 14.7" fill="url(#gradient1)" fill-rule="evenodd" stroke="none"/>
    <path d="M13.25 15.4 L13.75 16.3 13.55 16.7 12.9 16.0 13.25 15.4" fill="url(#gradient2)" fill-rule="evenodd" stroke="none"/>
    <path d="M13.75 16.3 L13.55 16.7 13.45 16.6 13.6 16.3 13.2 15.5 13.25 15.4 13.75 16.3" fill="url(#gradient3)" fill-rule="evenodd" stroke="none"/>
    <path d="M16.45 8.75 L16.7 10.05 16.3 10.75 15.8 9.9 16.45 8.75" fill="url(#gradient4)" fill-rule="evenodd" stroke="none"/>
    <path d="M13.1 12.2 L12.55 13.15 10.8 12.75 11.1 12.3 13.1 12.2" fill="url(#gradient5)" fill-rule="evenodd" stroke="none"/>
    <path d="M11.15 12.4 L11.0 12.8 10.8 12.75 11.1 12.3 13.1 12.2 13.05 12.35 11.15 12.4" fill="url(#gradient6)" fill-rule="evenodd" stroke="none"/>
    <path d="M11.6 14.45 L11.25 15.05 10.35 14.9 10.6 14.5 11.6 14.45" fill="url(#gradient7)" fill-rule="evenodd" stroke="none"/>
    <path d="M10.65 14.6 L10.45 14.9 10.35 14.9 10.6 14.5 11.6 14.45 11.5 14.55 10.65 14.6" fill="url(#gradient8)" fill-rule="evenodd" stroke="none"/>
    <path d="M15.65 8.3 L14.95 9.45 13.95 9.45 14.4 8.7 15.65 8.3" fill="url(#gradient9)" fill-rule="evenodd" stroke="none"/>
    <path d="M13.6 14.75 L11.95 13.85 14.65 9.0 15.15 8.4 Q15.8 7.75 16.5 7.75 16.8 8.35 16.6 9.2 L16.3 9.95 13.6 14.75" fill="url(#gradient10)" fill-rule="evenodd" stroke="none"/>
    <path d="M12.2 13.6 L12.1 13.55 14.65 9.0 14.7 9.0 14.8 9.0 12.2 13.6" fill="#ffffff" fill-rule="evenodd" stroke="none"/>
    <path d="M12.6 13.95 L12.35 13.85 14.95 9.25 15.2 9.35 12.6 13.95" fill="#ffffff" fill-rule="evenodd" stroke="none"/>
    <path d="M14.65 9.0 L15.15 8.4 16.6 9.2 16.3 9.95 15.95 10.6 14.3 9.7 14.65 9.0" fill="#565a63" fill-rule="evenodd" stroke="none"/>
    <path d="M16.55 7.6 Q16.9 8.25 16.7 9.25 L16.35 10.1 16.15 10.45 14.3 9.45 14.55 9.05 15.1 8.35 Q15.8 7.65 16.55 7.6" fill="url(#gradient11)" fill-rule="evenodd" stroke="none"/>
    <path d="M12.1 13.55 L13.75 14.5 13.6 14.75 11.95 13.85 12.1 13.55" fill="#565a63" fill-rule="evenodd" stroke="none"/>
    <path d="M13.8 14.75 L12.7 16.7 10.75 15.6 11.85 13.65 13.8 14.75" fill="url(#gradient12)" fill-rule="evenodd" stroke="none"/>
    <path d="M11.4 15.95 L11.05 15.75 12.15 13.85 12.5 14.05 11.4 15.95" fill="#ffffff" fill-rule="evenodd" stroke="none"/>
    <path d="M11.85 13.85 L10.85 15.65 10.75 15.6 11.85 13.65 13.8 14.75 13.75 14.9 11.85 13.85" fill="url(#gradient13)" fill-rule="evenodd" stroke="none"/>
    <path d="M16.2 7.85 Q15.4 9.0 15.15 9.9 L14.65 9.6 Q15.1 8.8 15.7 8.25 L16.2 7.85" fill="#ff997a" fill-rule="evenodd" stroke="none"/>
    <path d="M9.1 11.15 L10.65 13.9 10.2 14.65 8.3 12.65 9.1 11.15" fill="url(#gradient14)" fill-rule="evenodd" stroke="none"/>
    <path d="M10.35 13.9 L9.0 11.4 9.1 11.15 10.65 13.9 10.2 14.65 10.05 14.5 10.35 13.9" fill="url(#gradient15)" fill-rule="evenodd" stroke="none"/>
    <path d="M8.1 16.35 L7.75 17.0 6.75 15.95 7.35 14.95 8.1 16.35" fill="url(#gradient16)" fill-rule="evenodd" stroke="none"/>
    <path d="M8.1 16.35 L7.75 17.0 7.65 16.9 7.9 16.4 7.2 15.15 7.35 14.95 8.1 16.35" fill="url(#gradient17)" fill-rule="evenodd" stroke="none"/>
    <path d="M12.3 4.65 L12.75 6.6 12.1 7.8 11.3 6.45 12.3 4.65" fill="url(#gradient18)" fill-rule="evenodd" stroke="none"/>
    <path d="M7.1 10.0 L6.2 11.45 3.55 10.9 3.95 10.1 7.1 10.0" fill="url(#gradient19)" fill-rule="evenodd" stroke="none"/>
    <path d="M4.1 10.35 L3.75 10.95 3.55 10.9 3.95 10.1 7.1 10.0 6.95 10.25 4.1 10.35" fill="url(#gradient20)" fill-rule="evenodd" stroke="none"/>
    <path d="M4.75 13.5 L4.2 14.5 2.8 14.2 3.15 13.55 4.75 13.5" fill="url(#gradient21)" fill-rule="evenodd" stroke="none"/>
    <path d="M3.2 13.75 L2.95 14.2 2.8 14.2 3.15 13.55 4.75 13.5 4.65 13.7 3.2 13.75" fill="url(#gradient22)" fill-rule="evenodd" stroke="none"/>
    <path d="M11.0 3.9 L10.0 5.7 8.45 5.75 9.1 4.55 11.0 3.9" fill="url(#gradient23)" fill-rule="evenodd" stroke="none"/>
    <path d="M9.55 5.05 L10.3 4.05 Q11.35 3.05 12.35 3.05 12.9 3.95 12.55 5.35 L12.1 6.5 7.9 14.0 5.3 12.55 9.55 5.05" fill="url(#gradient24)" fill-rule="evenodd" stroke="none"/>
    <path d="M5.7 12.2 L5.55 12.15 9.55 5.05 9.6 5.0 9.7 5.05 5.7 12.2" fill="#ffffff" fill-rule="evenodd" stroke="none"/>
    <path d="M5.95 12.55 L9.95 5.4 10.35 5.6 6.3 12.75 5.95 12.55" fill="#ffffff" fill-rule="evenodd" stroke="none"/>
    <path d="M9.55 5.05 L10.3 4.1 12.55 5.35 12.1 6.5 11.5 7.5 8.95 6.1 9.55 5.05" fill="#565a63" fill-rule="evenodd" stroke="none"/>
    <path d="M12.45 2.85 Q13.05 3.85 12.65 5.4 L12.15 6.7 11.85 7.3 8.95 5.7 9.3 5.1 10.2 4.0 Q11.3 2.9 12.45 2.85" fill="url(#gradient25)" fill-rule="evenodd" stroke="none"/>
    <path d="M5.3 12.55 L5.55 12.1 8.1 13.55 7.9 14.0 5.3 12.55" fill="#565a63" fill-rule="evenodd" stroke="none"/>
    <path d="M5.15 12.3 L8.2 14.0 6.45 17.0 3.4 15.3 5.15 12.3" fill="url(#gradient26)" fill-rule="evenodd" stroke="none"/>
    <path d="M4.45 15.9 L3.9 15.6 5.6 12.55 6.15 12.85 4.45 15.9" fill="#ffffff" fill-rule="evenodd" stroke="none"/>
    <path d="M5.15 12.55 L3.55 15.4 3.4 15.3 5.15 12.3 8.2 14.0 8.05 14.2 5.15 12.55" fill="url(#gradient27)" fill-rule="evenodd" stroke="none"/>
    <path d="M11.95 3.25 Q10.8 4.9 10.25 6.4 L9.45 6.0 Q10.2 4.7 11.15 3.85 L11.95 3.25" fill="#ff997a" fill-rule="evenodd" stroke="none"/>
  </g>
  <defs>
    <linearGradient gradientTransform="matrix(-9.0E-4, -5.0E-4, 5.0E-4, -9.0E-4, 14.75, 14.05)" gradientUnits="userSpaceOnUse" id="gradient0" spreadMethod="pad" x1="-819.2" x2="819.2">
      <stop offset="0.0" stop-color="#ffffff"/>
      <stop offset="0.23529411764705882" stop-color="#e8e8e8"/>
      <stop offset="0.35294117647058826" stop-color="#d6d7d8"/>
      <stop offset="0.5882352941176471" stop-color="#a8abaf"/>
      <stop offset="0.9176470588235294" stop-color="#5e646e"/>
    </linearGradient>
    <linearGradient gradientTransform="matrix(-9.0E-4, -5.0E-4, 5.0E-4, -9.0E-4, 14.75, 14.05)" gradientUnits="userSpaceOnUse" id="gradient1" spreadMethod="pad" x1="-819.2" x2="819.2">
      <stop offset="0.0" stop-color="#ffffff"/>
      <stop offset="1.0" stop-color="#cdd1da"/>
    </linearGradient>
    <linearGradient gradientTransform="matrix(-4.0E-4, -2.0E-4, 2.0E-4, -4.0E-4, 13.45, 16.1)" gradientUnits="userSpaceOnUse" id="gradient2" spreadMethod="pad" x1="-819.2" x2="819.2">
      <stop offset="0.0" stop-color="#ffffff"/>
      <stop offset="0.23529411764705882" stop-color="#e8e8e8"/>
      <stop offset="0.35294117647058826" stop-color="#d6d7d8"/>
      <stop offset="0.5882352941176471" stop-color="#a8abaf"/>
      <stop offset="0.9176470588235294" stop-color="#5e646e"/>
    </linearGradient>
    <linearGradient gradientTransform="matrix(-4.0E-4, -2.0E-4, 2.0E-4, -4.0E-4, 13.45, 16.1)" gradientUnits="userSpaceOnUse" id="gradient3" spreadMethod="pad" x1="-819.2" x2="819.2">
      <stop offset="0.0" stop-color="#ffffff"/>
      <stop offset="1.0" stop-color="#cdd1da"/>
    </linearGradient>
    <linearGradient gradientTransform="matrix(-2.0E-4, -1.0E-4, 1.0E-4, -2.0E-4, 16.55, 9.9)" gradientUnits="userSpaceOnUse" id="gradient4" spreadMethod="pad" x1="-819.2" x2="819.2">
      <stop offset="0.0" stop-color="#e05b3c"/>
      <stop offset="0.5137254901960784" stop-color="#a11717"/>
    </linearGradient>
    <linearGradient gradientTransform="matrix(9.0E-4, 5.0E-4, 5.0E-4, -9.0E-4, 11.95, 12.5)" gradientUnits="userSpaceOnUse" id="gradient5" spreadMethod="pad" x1="-819.2" x2="819.2">
      <stop offset="0.0" stop-color="#ffffff"/>
      <stop offset="0.23529411764705882" stop-color="#e8e8e8"/>
      <stop offset="0.35294117647058826" stop-color="#d6d7d8"/>
      <stop offset="0.5882352941176471" stop-color="#a8abaf"/>
      <stop offset="0.9176470588235294" stop-color="#5e646e"/>
    </linearGradient>
    <linearGradient gradientTransform="matrix(9.0E-4, 5.0E-4, 5.0E-4, -9.0E-4, 11.95, 12.5)" gradientUnits="userSpaceOnUse" id="gradient6" spreadMethod="pad" x1="-819.2" x2="819.2">
      <stop offset="0.0" stop-color="#ffffff"/>
      <stop offset="1.0" stop-color="#cdd1da"/>
    </linearGradient>
    <linearGradient gradientTransform="matrix(4.0E-4, 2.0E-4, 2.0E-4, -4.0E-4, 10.9, 14.6)" gradientUnits="userSpaceOnUse" id="gradient7" spreadMethod="pad" x1="-819.2" x2="819.2">
      <stop offset="0.0" stop-color="#ffffff"/>
      <stop offset="0.23529411764705882" stop-color="#e8e8e8"/>
      <stop offset="0.35294117647058826" stop-color="#d6d7d8"/>
      <stop offset="0.5882352941176471" stop-color="#a8abaf"/>
      <stop offset="0.9176470588235294" stop-color="#5e646e"/>
    </linearGradient>
    <linearGradient gradientTransform="matrix(4.0E-4, 2.0E-4, 2.0E-4, -4.0E-4, 10.9, 14.6)" gradientUnits="userSpaceOnUse" id="gradient8" spreadMethod="pad" x1="-819.2" x2="819.2">
      <stop offset="0.0" stop-color="#ffffff"/>
      <stop offset="1.0" stop-color="#cdd1da"/>
    </linearGradient>
    <linearGradient gradientTransform="matrix(2.0E-4, 1.0E-4, 1.0E-4, -2.0E-4, 14.6, 8.75)" gradientUnits="userSpaceOnUse" id="gradient9" spreadMethod="pad" x1="-819.2" x2="819.2">
      <stop offset="0.0" stop-color="#e05b3c"/>
      <stop offset="0.5137254901960784" stop-color="#a11717"/>
    </linearGradient>
    <linearGradient gradientTransform="matrix(0.001, 6.0E-4, 6.0E-4, -0.001, 14.65, 11.0)" gradientUnits="userSpaceOnUse" id="gradient10" spreadMethod="pad" x1="-819.2" x2="819.2">
      <stop offset="0.0" stop-color="#8c9099"/>
      <stop offset="0.12156862745098039" stop-color="#cdd1da"/>
      <stop offset="0.3568627450980392" stop-color="#cdd1da"/>
      <stop offset="0.8" stop-color="#565a63"/>
      <stop offset="1.0" stop-color="#cdd1da"/>
    </linearGradient>
    <linearGradient gradientTransform="matrix(0.001, 6.0E-4, 6.0E-4, -0.001, 16.0, 8.85)" gradientUnits="userSpaceOnUse" id="gradient11" spreadMethod="pad" x1="-819.2" x2="819.2">
      <stop offset="0.0" stop-color="#bd1717"/>
      <stop offset="0.12156862745098039" stop-color="#e05b3c"/>
      <stop offset="0.3568627450980392" stop-color="#cf321d"/>
      <stop offset="0.8" stop-color="#630000"/>
      <stop offset="1.0" stop-color="#da9b9b"/>
    </linearGradient>
    <linearGradient gradientTransform="matrix(0.0012, 7.0E-4, 7.0E-4, -0.0012, 12.3, 15.2)" gradientUnits="userSpaceOnUse" id="gradient12" spreadMethod="pad" x1="-819.2" x2="819.2">
      <stop offset="0.0" stop-color="#8c9099"/>
      <stop offset="0.12156862745098039" stop-color="#cdd1da"/>
      <stop offset="0.3568627450980392" stop-color="#cdd1da"/>
      <stop offset="0.8" stop-color="#565a63"/>
      <stop offset="1.0" stop-color="#cdd1da"/>
    </linearGradient>
    <linearGradient gradientTransform="matrix(0.0012, 7.0E-4, 7.0E-4, -0.0012, 12.3, 15.2)" gradientUnits="userSpaceOnUse" id="gradient13" spreadMethod="pad" x1="-819.2" x2="819.2">
      <stop offset="0.0" stop-color="#ffffff"/>
      <stop offset="1.0" stop-color="#cdd1da"/>
    </linearGradient>
    <linearGradient gradientTransform="matrix(-0.0014, -8.0E-4, 8.0E-4, -0.0014, 9.65, 12.9)" gradientUnits="userSpaceOnUse" id="gradient14" spreadMethod="pad" x1="-819.2" x2="819.2">
      <stop offset="0.0" stop-color="#ffffff"/>
      <stop offset="0.23529411764705882" stop-color="#e8e8e8"/>
      <stop offset="0.35294117647058826" stop-color="#d6d7d8"/>
      <stop offset="0.5882352941176471" stop-color="#a8abaf"/>
      <stop offset="0.9176470588235294" stop-color="#5e646e"/>
    </linearGradient>
    <linearGradient gradientTransform="matrix(-0.0014, -8.0E-4, 8.0E-4, -0.0014, 9.65, 12.9)" gradientUnits="userSpaceOnUse" id="gradient15" spreadMethod="pad" x1="-819.2" x2="819.2">
      <stop offset="0.0" stop-color="#ffffff"/>
      <stop offset="1.0" stop-color="#cdd1da"/>
    </linearGradient>
    <linearGradient gradientTransform="matrix(-6.0E-4, -3.0E-4, 3.0E-4, -6.0E-4, 7.7, 16.05)" gradientUnits="userSpaceOnUse" id="gradient16" spreadMethod="pad" x1="-819.2" x2="819.2">
      <stop offset="0.0" stop-color="#ffffff"/>
      <stop offset="0.23529411764705882" stop-color="#e8e8e8"/>
      <stop offset="0.35294117647058826" stop-color="#d6d7d8"/>
      <stop offset="0.5882352941176471" stop-color="#a8abaf"/>
      <stop offset="0.9176470588235294" stop-color="#5e646e"/>
    </linearGradient>
    <linearGradient gradientTransform="matrix(-6.0E-4, -3.0E-4, 3.0E-4, -6.0E-4, 7.7, 16.05)" gradientUnits="userSpaceOnUse" id="gradient17" spreadMethod="pad" x1="-819.2" x2="819.2">
      <stop offset="0.0" stop-color="#ffffff"/>
      <stop offset="1.0" stop-color="#cdd1da"/>
    </linearGradient>
    <linearGradient gradientTransform="matrix(-3.0E-4, -2.0E-4, 2.0E-4, -3.0E-4, 12.5, 6.4)" gradientUnits="userSpaceOnUse" id="gradient18" spreadMethod="pad" x1="-819.2" x2="819.2">
      <stop offset="0.0" stop-color="#e05b3c"/>
      <stop offset="0.5137254901960784" stop-color="#a11717"/>
    </linearGradient>
    <linearGradient gradientTransform="matrix(0.0014, 8.0E-4, 8.0E-4, -0.0014, 5.3, 10.45)" gradientUnits="userSpaceOnUse" id="gradient19" spreadMethod="pad" x1="-819.2" x2="819.2">
      <stop offset="0.0" stop-color="#ffffff"/>
      <stop offset="0.23529411764705882" stop-color="#e8e8e8"/>
      <stop offset="0.35294117647058826" stop-color="#d6d7d8"/>
      <stop offset="0.5882352941176471" stop-color="#a8abaf"/>
      <stop offset="0.9176470588235294" stop-color="#5e646e"/>
    </linearGradient>
    <linearGradient gradientTransform="matrix(0.0014, 8.0E-4, 8.0E-4, -0.0014, 5.3, 10.45)" gradientUnits="userSpaceOnUse" id="gradient20" spreadMethod="pad" x1="-819.2" x2="819.2">
      <stop offset="0.0" stop-color="#ffffff"/>
      <stop offset="1.0" stop-color="#cdd1da"/>
    </linearGradient>
    <linearGradient gradientTransform="matrix(6.0E-4, 3.0E-4, 3.0E-4, -6.0E-4, 3.65, 13.8)" gradientUnits="userSpaceOnUse" id="gradient21" spreadMethod="pad" x1="-819.2" x2="819.2">
      <stop offset="0.0" stop-color="#ffffff"/>
      <stop offset="0.23529411764705882" stop-color="#e8e8e8"/>
      <stop offset="0.35294117647058826" stop-color="#d6d7d8"/>
      <stop offset="0.5882352941176471" stop-color="#a8abaf"/>
      <stop offset="0.9176470588235294" stop-color="#5e646e"/>
    </linearGradient>
    <linearGradient gradientTransform="matrix(6.0E-4, 3.0E-4, 3.0E-4, -6.0E-4, 3.65, 13.8)" gradientUnits="userSpaceOnUse" id="gradient22" spreadMethod="pad" x1="-819.2" x2="819.2">
      <stop offset="0.0" stop-color="#ffffff"/>
      <stop offset="1.0" stop-color="#cdd1da"/>
    </linearGradient>
    <linearGradient gradientTransform="matrix(3.0E-4, 2.0E-4, 2.0E-4, -3.0E-4, 9.45, 4.65)" gradientUnits="userSpaceOnUse" id="gradient23" spreadMethod="pad" x1="-819.2" x2="819.2">
      <stop offset="0.0" stop-color="#e05b3c"/>
      <stop offset="0.5137254901960784" stop-color="#a11717"/>
    </linearGradient>
    <linearGradient gradientTransform="matrix(0.0016, 9.0E-4, 9.0E-4, -0.0016, 9.45, 8.15)" gradientUnits="userSpaceOnUse" id="gradient24" spreadMethod="pad" x1="-819.2" x2="819.2">
      <stop offset="0.0" stop-color="#8c9099"/>
      <stop offset="0.12156862745098039" stop-color="#cdd1da"/>
      <stop offset="0.3568627450980392" stop-color="#cdd1da"/>
      <stop offset="0.8" stop-color="#565a63"/>
      <stop offset="1.0" stop-color="#cdd1da"/>
    </linearGradient>
    <linearGradient gradientTransform="matrix(0.0016, 9.0E-4, 9.0E-4, -0.0016, 11.55, 4.75)" gradientUnits="userSpaceOnUse" id="gradient25" spreadMethod="pad" x1="-819.2" x2="819.2">
      <stop offset="0.0" stop-color="#bd1717"/>
      <stop offset="0.12156862745098039" stop-color="#e05b3c"/>
      <stop offset="0.3568627450980392" stop-color="#cf321d"/>
      <stop offset="0.8" stop-color="#630000"/>
      <stop offset="1.0" stop-color="#da9b9b"/>
    </linearGradient>
    <linearGradient gradientTransform="matrix(0.0018, 0.0011, 0.0011, -0.0018, 5.8, 14.65)" gradientUnits="userSpaceOnUse" id="gradient26" spreadMethod="pad" x1="-819.2" x2="819.2">
      <stop offset="0.0" stop-color="#8c9099"/>
      <stop offset="0.12156862745098039" stop-color="#cdd1da"/>
      <stop offset="0.3568627450980392" stop-color="#cdd1da"/>
      <stop offset="0.8" stop-color="#565a63"/>
      <stop offset="1.0" stop-color="#cdd1da"/>
    </linearGradient>
    <linearGradient gradientTransform="matrix(0.0018, 0.0011, 0.0011, -0.0018, 5.8, 14.65)" gradientUnits="userSpaceOnUse" id="gradient27" spreadMethod="pad" x1="-819.2" x2="819.2">
      <stop offset="0.0" stop-color="#ffffff"/>
      <stop offset="1.0" stop-color="#cdd1da"/>
    </linearGradient>
  </defs>
</svg>
