<?xml version="1.0" encoding="UTF-8" standalone="no"?>
<svg xmlns:ffdec="https://www.free-decompiler.com/flash" xmlns:xlink="http://www.w3.org/1999/xlink" ffdec:objectType="shape" height="30.7px" width="30.8px" xmlns="http://www.w3.org/2000/svg">
  <g transform="matrix(1.0, 0.0, 0.0, 1.0, 0.0, 0.0)">
    <path d="M26.85 22.95 Q22.9 26.9 17.35 26.9 14.2 26.9 11.3 25.45 L10.8 26.0 10.45 26.15 10.5 26.5 10.2 27.0 9.6 27.45 8.3 30.3 7.8 30.7 7.65 30.7 Q7.35 30.7 7.15 30.5 L6.8 30.15 6.4 30.25 5.9 30.05 3.6 27.7 3.4 27.3 3.0 27.1 0.65 24.8 0.45 24.3 0.55 23.9 0.2 23.55 Q-0.05 23.2 0.0 22.9 L0.4 22.4 3.25 21.1 3.65 20.5 Q3.95 20.2 4.2 20.2 L4.25 20.2 4.5 20.25 4.7 19.9 5.25 19.35 Q3.9 16.4 3.9 13.45 3.9 7.9 7.85 3.95 11.8 0.0 17.35 0.0 22.9 0.0 26.85 3.95 30.8 7.9 30.8 13.45 30.8 19.0 26.85 22.95 M22.95 13.45 Q22.95 11.15 21.3 9.5 19.7 7.85 17.35 7.85 15.15 7.85 13.55 9.35 11.95 10.8 11.75 13.0 13.1 12.1 15.0 12.1 L16.9 12.3 17.75 12.55 18.15 12.95 18.6 15.1 Q18.75 17.45 17.65 19.05 19.85 18.95 21.4 17.3 22.95 15.7 22.95 13.45" fill="#000000" fill-rule="evenodd" stroke="none"/>
  </g>
</svg>
