<?xml version="1.0" encoding="UTF-8" standalone="no"?>
<svg xmlns:ffdec="https://www.free-decompiler.com/flash" xmlns:xlink="http://www.w3.org/1999/xlink" ffdec:objectType="shape" height="106.75px" width="257.35px" xmlns="http://www.w3.org/2000/svg">
  <g transform="matrix(1.0, 0.0, 0.0, 1.0, -292.1, -3.75)">
    <path d="M548.95 6.75 L548.95 107.5 Q548.95 108.5 548.2 109.25 547.45 110.0 546.45 110.0 L496.0 110.0 493.3 109.5 Q491.8 109.05 490.8 108.4 L486.8 105.75 Q485.75 105.0 484.0 104.5 L481.0 104.0 366.8 104.0 Q365.5 104.0 363.85 104.55 362.15 105.05 361.05 105.8 L357.35 108.35 354.85 109.5 352.15 110.0 295.1 110.0 Q294.1 110.0 293.35 109.25 292.6 108.5 292.6 107.5 L292.6 21.75 Q292.6 20.7 293.35 20.0 294.1 19.25 295.1 19.25 L353.3 19.25 Q354.65 19.25 356.15 18.5 L358.5 16.65 365.95 6.45 Q366.6 5.55 367.9 4.9 369.15 4.25 370.3 4.25 L546.45 4.25 Q547.45 4.25 548.2 5.0 548.95 5.7 548.95 6.75" fill="url(#gradient0)" fill-rule="evenodd" stroke="none"/>
    <path d="M548.45 6.75 Q548.45 5.95 547.85 5.35 547.3 4.75 546.45 4.75 L370.3 4.75 Q369.3 4.75 368.1 5.35 366.9 5.95 366.35 6.75 L358.9 16.9 Q358.0 18.1 356.4 18.95 354.75 19.75 353.3 19.75 L295.1 19.75 Q294.3 19.75 293.7 20.35 293.1 20.95 293.1 21.75 L293.1 107.5 Q293.1 108.35 293.7 108.9 294.3 109.5 295.1 109.5 L352.15 109.5 354.7 109.05 Q356.15 108.6 357.05 107.95 L360.8 105.35 Q361.9 104.55 363.65 104.05 365.4 103.5 366.8 103.5 L481.0 103.5 484.15 104.05 Q485.9 104.55 487.05 105.3 L491.05 108.0 Q492.0 108.6 493.45 109.05 L496.0 109.5 546.45 109.5 Q547.3 109.5 547.85 108.9 548.45 108.35 548.45 107.5 L548.45 6.75 M546.45 3.75 Q547.7 3.75 548.55 4.65 549.45 5.5 549.45 6.75 L549.45 107.5 Q549.45 108.75 548.55 109.6 547.7 110.5 546.45 110.5 L496.0 110.5 493.15 110.0 Q491.55 109.5 490.5 108.8 L486.5 106.15 Q485.5 105.5 483.85 105.0 L481.0 104.5 366.8 104.5 363.95 105.0 Q362.35 105.5 361.35 106.2 L357.6 108.8 Q356.55 109.5 355.0 110.0 L352.15 110.5 295.1 110.5 Q293.85 110.5 293.0 109.6 292.1 108.75 292.1 107.5 L292.1 21.75 Q292.1 20.5 293.0 19.65 293.85 18.75 295.1 18.75 L353.3 18.75 Q354.55 18.75 355.95 18.05 357.35 17.35 358.05 16.35 L365.5 6.15 Q366.25 5.15 367.65 4.45 369.05 3.75 370.3 3.75 L546.45 3.75" fill="#0775a5" fill-rule="evenodd" stroke="none"/>
    <path d="M544.45 105.5 L494.55 105.5 485.55 99.5 362.25 99.5 353.6 105.5 297.1 105.5 297.1 23.75 358.85 23.75 369.85 8.75 544.45 8.75 544.45 105.5" fill="url(#gradient1)" fill-rule="evenodd" stroke="none"/>
  </g>
  <defs>
    <linearGradient gradientTransform="matrix(0.0, -0.0645, -0.0645, 0.0, 420.8, 57.1)" gradientUnits="userSpaceOnUse" id="gradient0" spreadMethod="pad" x1="-819.2" x2="819.2">
      <stop offset="0.0" stop-color="#005fc7"/>
      <stop offset="0.043137254901960784" stop-color="#0052ad"/>
      <stop offset="0.09803921568627451" stop-color="#004692"/>
      <stop offset="0.1607843137254902" stop-color="#003b7c"/>
      <stop offset="0.23529411764705882" stop-color="#00336b"/>
      <stop offset="0.32941176470588235" stop-color="#002d60"/>
      <stop offset="0.4588235294117647" stop-color="#002a59"/>
      <stop offset="0.8156862745098039" stop-color="#002957"/>
    </linearGradient>
    <linearGradient gradientTransform="matrix(0.0, -0.059, -0.059, 0.0, 420.8, 57.1)" gradientUnits="userSpaceOnUse" id="gradient1" spreadMethod="pad" x1="-819.2" x2="819.2">
      <stop offset="0.0" stop-color="#053363"/>
      <stop offset="0.058823529411764705" stop-color="#042a56"/>
      <stop offset="0.17647058823529413" stop-color="#021e45"/>
      <stop offset="0.3215686274509804" stop-color="#011539"/>
      <stop offset="0.5137254901960784" stop-color="#001032"/>
      <stop offset="1.0" stop-color="#000f30"/>
    </linearGradient>
  </defs>
</svg>
