<?xml version="1.0" encoding="UTF-8" standalone="no"?>
<svg xmlns:ffdec="https://www.free-decompiler.com/flash" xmlns:xlink="http://www.w3.org/1999/xlink" ffdec:objectType="shape" height="13.5px" width="16.75px" xmlns="http://www.w3.org/2000/svg">
  <g transform="matrix(1.0, 0.0, 0.0, 1.0, 0.0, 0.0)">
    <path d="M10.8 10.0 L6.55 12.75 Q5.75 13.65 4.4 13.5 3.05 13.3 1.85 12.15 0.55 10.85 0.15 9.1 -0.25 7.35 0.5 6.2 0.95 5.55 1.65 5.3 L6.3 2.15 10.8 10.0" fill="#00a2ff" fill-rule="evenodd" stroke="none"/>
    <path d="M5.0 3.15 Q5.8 2.0 7.25 2.05 8.75 2.15 10.05 3.45 11.4 4.7 11.8 6.5 12.15 8.25 11.4 9.4 10.6 10.6 9.15 10.5 7.65 10.4 6.35 9.1 5.05 7.85 4.65 6.05 4.25 4.3 5.0 3.15" fill="#0be2ff" fill-rule="evenodd" stroke="none"/>
    <path d="M6.6 4.1 Q7.05 3.4 7.95 3.45 8.9 3.5 9.7 4.3 10.5 5.1 10.75 6.15 11.0 7.25 10.5 7.95 10.05 8.65 9.15 8.6 8.2 8.55 7.4 7.75 6.6 6.95 6.35 5.9 6.1 4.8 6.6 4.1" fill="#0290db" fill-rule="evenodd" stroke="none"/>
    <path d="M16.75 2.4 Q16.75 3.4 16.05 4.15 15.3 4.85 14.3 4.85 13.3 4.85 12.6 4.15 11.9 3.4 11.9 2.4 11.9 1.4 12.6 0.7 13.3 0.0 14.3 0.0 15.3 0.0 16.05 0.7 16.75 1.4 16.75 2.4" fill="#0be2ff" fill-rule="evenodd" stroke="none"/>
  </g>
</svg>
