<?xml version="1.0" encoding="UTF-8" standalone="no"?>
<svg xmlns:ffdec="https://www.free-decompiler.com/flash" xmlns:xlink="http://www.w3.org/1999/xlink" ffdec:objectType="shape" height="19.7px" width="19.9px" xmlns="http://www.w3.org/2000/svg">
  <g transform="matrix(1.0, 0.0, 0.0, 1.0, 0.0, 0.0)">
    <path d="M12.8 5.25 L11.6 5.9 10.4 5.05 10.55 4.55 12.8 5.25" fill="#0be2ff" fill-rule="evenodd" stroke="none"/>
    <path d="M7.35 8.8 L7.6 6.45 8.15 6.5 8.45 7.9 7.35 8.8" fill="#0be2ff" fill-rule="evenodd" stroke="none"/>
    <path d="M13.85 19.5 L13.65 16.1 14.7 17.7 13.85 19.5" fill="#0be2ff" fill-rule="evenodd" stroke="none"/>
    <path d="M19.9 15.6 L17.9 15.65 16.85 14.0 19.9 15.6" fill="#0be2ff" fill-rule="evenodd" stroke="none"/>
    <path d="M10.25 5.5 L11.4 6.3 15.0 11.85 16.35 12.5 17.2 13.85 16.35 13.6 17.85 15.9 14.95 17.7 13.5 15.4 13.4 16.4 12.5 15.0 12.35 13.55 8.8 7.95 8.55 6.6 8.3 6.2 7.3 6.1 5.6 3.45 5.55 2.45 Q5.1 1.8 5.15 1.1 5.15 0.4 5.6 0.15 L6.7 0.1 Q7.3 0.4 7.75 1.05 L8.6 1.5 10.3 4.15 10.0 5.1 10.25 5.5" fill="#00a2ff" fill-rule="evenodd" stroke="none"/>
    <path d="M17.2 16.0 L15.25 17.25 12.8 13.4 14.7 12.15 17.2 16.0" fill="#08c3ff" fill-rule="evenodd" stroke="none"/>
    <path d="M17.2 17.75 L16.9 17.95 15.1 15.15 15.4 14.95 17.2 17.75" fill="#0be2ff" fill-rule="evenodd" stroke="none"/>
    <path d="M15.5 15.1 L15.2 15.3 13.6 12.85 13.95 12.65 15.5 15.1" fill="#0be2ff" fill-rule="evenodd" stroke="none"/>
    <path d="M15.5 15.1 L15.2 15.3 13.6 12.85 13.95 12.65 15.5 15.1 Z" ffdec:has-small-stroke="true" ffdec:original-stroke-width="0.5" fill="none" stroke="#00ffff" stroke-linecap="butt" stroke-linejoin="miter-clip" stroke-miterlimit="4.0" stroke-width="1.0"/>
    <path d="M10.45 7.25 L10.15 7.5 9.05 5.8 9.4 5.6 10.45 7.25" fill="#29f1ff" fill-rule="evenodd" stroke="none"/>
    <path d="M9.5 4.7 L8.15 5.55 6.55 3.0 7.85 2.15 9.5 4.7" fill="#0be2ff" fill-rule="evenodd" stroke="none"/>
    <path d="M14.2 12.0 L12.85 12.85 9.9 8.2 11.2 7.35 14.2 12.0" fill="#0be2ff" fill-rule="evenodd" stroke="none"/>
    <path d="M6.4 0.3 Q6.6 0.55 6.3 0.75 6.05 0.95 5.85 0.65 5.65 0.4 5.95 0.2 6.2 0.0 6.4 0.3" fill="#00d8ff" fill-rule="evenodd" stroke="none"/>
    <path d="M5.45 9.55 L4.6 10.0 3.75 9.4 3.85 9.05 5.45 9.55" fill="#0be2ff" fill-rule="evenodd" stroke="none"/>
    <path d="M1.55 12.05 L1.75 10.4 2.15 10.45 2.35 11.45 1.55 12.05" fill="#0be2ff" fill-rule="evenodd" stroke="none"/>
    <path d="M6.2 19.7 L6.05 17.25 6.8 18.4 6.2 19.7" fill="#0be2ff" fill-rule="evenodd" stroke="none"/>
    <path d="M10.5 16.9 L9.1 16.95 8.35 15.8 10.5 16.9" fill="#0be2ff" fill-rule="evenodd" stroke="none"/>
    <path d="M0.3 5.9 L1.1 5.85 1.85 6.55 2.45 6.9 3.7 8.75 3.45 9.45 3.65 9.75 4.45 10.3 7.0 14.25 7.95 14.75 8.6 15.7 8.0 15.5 9.05 17.15 7.0 18.45 5.95 16.8 5.85 17.5 5.2 16.5 5.15 15.45 2.6 11.5 2.45 10.5 2.25 10.2 1.5 10.15 0.3 8.3 0.3 7.55 Q-0.05 7.1 0.0 6.6 0.0 6.1 0.3 5.9" fill="#0597fc" fill-rule="evenodd" stroke="none"/>
    <path d="M8.6 17.25 L7.2 18.1 5.45 15.35 6.8 14.5 8.6 17.25" fill="#0be2ff" fill-rule="evenodd" stroke="none"/>
    <path d="M8.6 18.45 L8.35 18.65 7.1 16.6 7.3 16.45 8.6 18.45" fill="#0dc0ff" fill-rule="evenodd" stroke="none"/>
    <path d="M7.4 16.6 L7.15 16.75 6.05 15.0 6.25 14.85 7.4 16.6" fill="#29f1ff" fill-rule="evenodd" stroke="none"/>
    <path d="M3.8 11.0 L3.55 11.15 2.8 9.95 3.0 9.8 3.8 11.0" fill="#29f1ff" fill-rule="evenodd" stroke="none"/>
    <path d="M3.1 9.15 L2.15 9.75 1.0 7.95 1.95 7.35 3.1 9.15" fill="#0be2ff" fill-rule="evenodd" stroke="none"/>
    <path d="M6.45 14.35 L5.5 14.95 3.35 11.65 4.3 11.05 6.45 14.35" fill="#0be2ff" fill-rule="evenodd" stroke="none"/>
    <path d="M0.9 6.05 L0.8 6.35 0.5 6.3 Q0.4 6.1 0.55 5.95 0.75 5.85 0.9 6.05" fill="#0be2ff" fill-rule="evenodd" stroke="none"/>
  </g>
</svg>
