<?xml version="1.0" encoding="UTF-8" standalone="no"?>
<svg xmlns:ffdec="https://www.free-decompiler.com/flash" xmlns:xlink="http://www.w3.org/1999/xlink" ffdec:objectType="shape" height="16.95px" width="15.85px" xmlns="http://www.w3.org/2000/svg">
  <g transform="matrix(1.0, 0.0, 0.0, 1.0, 0.25, 0.25)">
    <path d="M14.75 8.2 Q14.75 5.6 13.35 5.5 L11.9 5.95 11.65 5.8 11.45 5.85 9.95 7.35 Q10.55 8.3 8.8 9.45 7.7 10.2 5.7 12.75 3.8 15.15 2.45 15.85 1.2 15.35 0.7 14.1 1.45 12.7 3.8 10.85 6.35 8.8 7.05 7.75 8.25 6.0 9.15 6.55 L10.65 5.1 10.65 4.95 10.7 4.9 10.5 4.6 11.05 3.65 Q11.35 2.45 11.1 2.25 L10.2 2.15 9.85 1.9 Q9.4 1.45 9.85 0.9 L10.5 0.25 Q10.95 -0.2 11.5 0.25 L11.75 0.6 11.9 1.4 Q12.05 1.7 12.85 1.65 L13.2 1.6 Q15.45 3.4 15.35 6.0 15.25 7.3 14.75 8.2" fill="#066dea" fill-rule="evenodd" stroke="none"/>
    <path d="M14.75 8.2 Q14.75 5.6 13.35 5.5 L11.9 5.95 11.65 5.8 11.45 5.85 9.95 7.35 Q10.55 8.3 8.8 9.45 7.7 10.2 5.7 12.75 3.8 15.15 2.45 15.85 1.2 15.35 0.7 14.1 1.45 12.7 3.8 10.85 6.35 8.8 7.05 7.75 8.25 6.0 9.15 6.55 L10.65 5.1 10.65 4.95 10.7 4.9 10.5 4.6 11.05 3.65 Q11.35 2.45 11.1 2.25 L10.2 2.15 9.85 1.9 Q9.4 1.45 9.85 0.9 L10.5 0.25 Q10.95 -0.2 11.5 0.25 L11.75 0.6 11.9 1.4 Q12.05 1.7 12.85 1.65 L13.2 1.6 Q15.45 3.4 15.35 6.0 15.25 7.3 14.75 8.2" fill="#066dea" fill-rule="evenodd" stroke="none"/>
    <path d="M14.75 8.2 Q14.75 5.6 13.35 5.5 L11.9 5.95 11.65 5.8 11.45 5.85 9.95 7.35 Q10.55 8.3 8.8 9.45 7.7 10.2 5.7 12.75 3.8 15.15 2.45 15.85 1.2 15.35 0.7 14.1 1.45 12.7 3.8 10.85 6.35 8.8 7.05 7.75 8.25 6.0 9.15 6.55 L10.65 5.1 10.65 4.95 10.7 4.9 10.5 4.6 11.05 3.65 Q11.35 2.45 11.1 2.25 L10.2 2.15 9.85 1.9 Q9.4 1.45 9.85 0.9 L10.5 0.25 Q10.95 -0.2 11.5 0.25 L11.75 0.6 11.9 1.4 Q12.05 1.7 12.85 1.65 L13.2 1.6 Q15.45 3.4 15.35 6.0 15.25 7.3 14.75 8.2" fill="#009eff" fill-rule="evenodd" stroke="none"/>
    <path d="M14.75 8.2 Q14.75 5.6 13.35 5.5 L11.9 5.95 11.65 5.8 11.45 5.85 10.65 5.1 10.65 4.95 10.7 4.9 10.5 4.6 11.05 3.65 Q11.35 2.45 11.1 2.25 L10.2 2.15 9.85 1.9 Q9.4 1.45 9.85 0.9 L10.5 0.25 Q10.95 -0.2 11.5 0.25 L11.75 0.6 11.9 1.4 Q12.05 1.7 12.85 1.65 L13.2 1.6 Q15.45 3.4 15.35 6.0 15.25 7.3 14.75 8.2" fill="#00bdff" fill-rule="evenodd" stroke="none"/>
    <path d="M14.75 8.2 Q14.75 5.6 13.35 5.5 L11.9 5.95 11.65 5.8 11.45 5.85 10.65 5.1 10.65 4.95 10.7 4.9 10.5 4.6 11.05 3.65 Q11.35 2.45 11.1 2.25 L10.2 2.15 9.85 1.9 Q9.4 1.45 9.85 0.9 L10.5 0.25 Q10.95 -0.2 11.5 0.25 L11.75 0.6 11.9 1.4 Q12.05 1.7 12.85 1.65 L13.2 1.6 Q15.45 3.4 15.35 6.0 15.25 7.3 14.75 8.2 Z" ffdec:has-small-stroke="true" ffdec:original-stroke-width="0.5" fill="none" stroke="#00e1ff" stroke-linecap="butt" stroke-linejoin="miter-clip" stroke-miterlimit="4.0" stroke-width="1.0"/>
    <path d="M9.95 7.35 Q10.55 8.3 8.8 9.45 7.7 10.2 5.7 12.75 3.8 15.15 2.45 15.85 1.2 15.35 0.7 14.1 1.45 12.7 3.8 10.85 6.35 8.8 7.05 7.75 8.25 6.0 9.15 6.55 L9.95 7.35" fill="#05b0e5" fill-rule="evenodd" stroke="none"/>
    <path d="M9.95 7.35 Q10.55 8.3 8.8 9.45 7.7 10.2 5.7 12.75 3.8 15.15 2.45 15.85 1.2 15.35 0.7 14.1 1.45 12.7 3.8 10.85 6.35 8.8 7.05 7.75 8.25 6.0 9.15 6.55 L9.95 7.35 Z" ffdec:has-small-stroke="true" ffdec:original-stroke-width="0.5" fill="none" stroke="#00e1ff" stroke-linecap="butt" stroke-linejoin="miter-clip" stroke-miterlimit="4.0" stroke-width="1.0"/>
    <path d="M0.15 2.95 L1.3 4.15 Q1.75 4.5 2.45 3.8 3.2 3.0 2.85 2.65 L1.65 1.45 1.75 1.35 Q3.2 0.85 4.3 1.95 5.4 3.1 4.9 4.6 L11.65 11.4 Q13.25 10.8 14.45 12.0 15.6 13.15 15.1 14.6 L13.85 13.4 Q13.5 13.0 12.6 13.8 L12.7 13.75 12.25 14.45 Q12.15 14.8 12.3 14.95 L13.55 16.15 13.4 16.3 Q11.95 16.8 10.75 15.65 9.65 14.55 10.15 12.95 L3.35 6.1 Q1.85 6.6 0.75 5.5 -0.35 4.45 0.15 2.95" fill="#00dbff" fill-rule="evenodd" stroke="none"/>
    <path d="M0.15 2.95 L1.3 4.15 Q1.75 4.5 2.45 3.8 3.2 3.0 2.85 2.65 L1.65 1.45 1.75 1.35 Q3.2 0.85 4.3 1.95 5.4 3.1 4.9 4.6 L11.65 11.4 Q13.25 10.8 14.45 12.0 15.6 13.15 15.1 14.6 L13.85 13.4 Q13.5 13.0 12.6 13.8 L12.7 13.75 12.25 14.45 Q12.15 14.8 12.3 14.95 L13.55 16.15 13.4 16.3 Q11.95 16.8 10.75 15.65 9.65 14.55 10.15 12.95 L3.35 6.1 Q1.85 6.6 0.75 5.5 -0.35 4.45 0.15 2.95 Z" ffdec:has-small-stroke="true" ffdec:original-stroke-width="0.5" fill="none" stroke="#00e1ff" stroke-linecap="butt" stroke-linejoin="miter-clip" stroke-miterlimit="4.0" stroke-width="1.0"/>
  </g>
</svg>
