<?xml version="1.0" encoding="UTF-8" standalone="no"?>
<svg xmlns:ffdec="https://www.free-decompiler.com/flash" xmlns:xlink="http://www.w3.org/1999/xlink" ffdec:objectType="shape" height="54.75px" width="255.8px" xmlns="http://www.w3.org/2000/svg">
  <g transform="matrix(1.0, 0.0, 0.0, 1.0, 0.0, 0.0)">
    <path d="M254.8 4.35 L254.8 50.4 Q254.8 51.8 253.7 52.75 252.6 53.75 251.05 53.75 L4.8 53.75 Q3.25 53.75 2.15 52.75 1.0 51.75 1.0 50.4 L1.0 4.35 Q1.0 3.05 1.95 2.1 3.05 1.0 4.75 1.0 L251.05 1.0 Q252.6 1.0 253.7 2.0 254.8 2.95 254.8 4.35" fill="url(#gradient0)" fill-rule="evenodd" stroke="none"/>
    <path d="M251.05 0.0 Q253.0 0.0 254.4 1.3 255.8 2.55 255.8 4.35 L255.8 50.4 Q255.8 52.2 254.4 53.5 253.0 54.75 251.05 54.75 L4.8 54.75 Q2.85 54.75 1.45 53.5 0.0 52.2 0.0 50.4 L0.0 4.35 Q0.0 2.55 1.4 1.3 2.8 0.0 4.75 0.0 L251.05 0.0 M253.8 4.35 Q253.8 3.4 253.0 2.7 252.2 2.0 251.05 2.0 L4.75 2.0 Q3.55 2.0 2.65 2.8 2.0 3.45 2.0 4.35 L2.0 50.4 Q2.0 51.35 2.85 52.05 3.65 52.75 4.8 52.75 L251.05 52.75 Q252.2 52.75 253.0 52.05 253.8 51.35 253.8 50.4 L253.8 4.35" fill="#0971d3" fill-rule="evenodd" stroke="none"/>
    <path d="M4.95 49.25 L4.95 5.35 48.85 5.35 48.85 49.25 4.95 49.25" fill="#094cad" fill-rule="evenodd" stroke="none"/>
    <path d="M48.75 48.1 L47.75 49.1 43.6 44.9 44.6 43.95 48.75 48.1" fill="#66ccff" fill-rule="evenodd" stroke="none"/>
    <path d="M9.3 43.95 L10.3 44.9 6.1 49.1 5.15 48.1 9.3 43.95" fill="#66ccff" fill-rule="evenodd" stroke="none"/>
    <path d="M48.75 6.4 L44.6 10.6 43.6 9.6 47.75 5.45 48.75 6.4" fill="#66ccff" fill-rule="evenodd" stroke="none"/>
    <path d="M9.3 10.6 L5.15 6.4 6.1 5.45 10.3 9.6 9.3 10.6" fill="#66ccff" fill-rule="evenodd" stroke="none"/>
    <path d="M46.15 46.45 L31.85 46.45 29.2 45.45 24.3 45.45 21.6 46.45 7.85 46.45 7.85 32.05 8.85 29.3 8.85 24.55 7.85 21.8 7.85 8.15 21.6 8.15 24.3 9.15 29.2 9.15 31.85 8.15 46.15 8.15 46.15 21.85 45.15 24.55 45.15 29.4 46.15 32.1 46.15 46.45" fill="#161616" fill-rule="evenodd" stroke="none"/>
    <path d="M46.15 46.45 L31.85 46.45 29.2 45.45 24.3 45.45 21.6 46.45 7.85 46.45 7.85 32.05 8.85 29.3 8.85 24.55 7.85 21.8 7.85 8.15 21.6 8.15 24.3 9.15 29.2 9.15 31.85 8.15 46.15 8.15 46.15 21.85 45.15 24.55 45.15 29.4 46.15 32.1 46.15 46.45 Z" fill="none" stroke="#0c0c0c" stroke-linecap="butt" stroke-linejoin="miter-clip" stroke-miterlimit="4.0" stroke-width="1.0"/>
  </g>
  <defs>
    <linearGradient gradientTransform="matrix(0.1549, 0.0, 0.0, -0.1549, 127.9, 27.35)" gradientUnits="userSpaceOnUse" id="gradient0" spreadMethod="pad" x1="-819.2" x2="819.2">
      <stop offset="0.0" stop-color="#00406e"/>
      <stop offset="0.00784313725490196" stop-color="#003f6d"/>
      <stop offset="0.23529411764705882" stop-color="#002c53"/>
      <stop offset="0.47058823529411764" stop-color="#001f41"/>
      <stop offset="0.7215686274509804" stop-color="#001737"/>
      <stop offset="1.0" stop-color="#001433"/>
    </linearGradient>
  </defs>
</svg>
