<?xml version="1.0" encoding="UTF-8" standalone="no"?>
<svg xmlns:ffdec="https://www.free-decompiler.com/flash" xmlns:xlink="http://www.w3.org/1999/xlink" ffdec:objectType="shape" height="43.9px" width="43.9px" xmlns="http://www.w3.org/2000/svg">
  <g transform="matrix(1.0, 0.0, 0.0, 1.0, -4.95, -5.35)">
    <path d="M48.85 5.35 L48.85 49.25 4.95 49.25 4.95 5.35 48.85 5.35" fill="#353434" fill-rule="evenodd" stroke="none"/>
    <path d="M48.75 48.1 L47.75 49.1 43.6 44.9 44.6 43.95 48.75 48.1" fill="#999999" fill-rule="evenodd" stroke="none"/>
    <path d="M9.3 43.95 L10.3 44.9 6.1 49.1 5.15 48.1 9.3 43.95" fill="#999999" fill-rule="evenodd" stroke="none"/>
    <path d="M48.75 6.4 L44.6 10.6 43.6 9.6 47.75 5.45 48.75 6.4" fill="#999999" fill-rule="evenodd" stroke="none"/>
    <path d="M9.3 10.6 L5.15 6.4 6.1 5.45 10.3 9.6 9.3 10.6" fill="#999999" fill-rule="evenodd" stroke="none"/>
    <path d="M31.85 8.15 L46.15 8.15 46.15 21.85 45.15 24.55 45.15 29.4 46.15 32.1 46.15 46.45 31.85 46.45 29.2 45.45 24.3 45.45 21.6 46.45 7.85 46.45 7.85 32.05 8.85 29.3 8.85 24.55 7.85 21.8 7.85 8.15 21.6 8.15 24.3 9.15 29.2 9.15 31.85 8.15" fill="#161616" fill-rule="evenodd" stroke="none"/>
    <path d="M31.85 8.15 L46.15 8.15 46.15 21.85 45.15 24.55 45.15 29.4 46.15 32.1 46.15 46.45 31.85 46.45 29.2 45.45 24.3 45.45 21.6 46.45 7.85 46.45 7.85 32.05 8.85 29.3 8.85 24.55 7.85 21.8 7.85 8.15 21.6 8.15 24.3 9.15 29.2 9.15 31.85 8.15 Z" fill="none" stroke="#0c0c0c" stroke-linecap="butt" stroke-linejoin="miter-clip" stroke-miterlimit="4.0" stroke-width="1.0"/>
  </g>
</svg>
