<?xml version="1.0" encoding="UTF-8" standalone="no"?>
<svg xmlns:ffdec="https://www.free-decompiler.com/flash" xmlns:xlink="http://www.w3.org/1999/xlink" ffdec:objectType="shape" height="86.75px" width="10.2px" xmlns="http://www.w3.org/2000/svg">
  <g transform="matrix(1.0, 0.0, 0.0, 1.0, 0.5, 0.5)">
    <path d="M9.2 1.0 L9.2 84.75 8.9 85.45 8.2 85.75 1.0 85.75 Q0.6 85.75 0.3 85.45 0.0 85.15 0.0 84.75 L0.0 1.0 Q0.0 0.6 0.3 0.3 0.6 0.0 1.0 0.0 L8.2 0.0 Q8.6 0.0 8.9 0.3 L9.2 1.0" fill="#022b7f" fill-rule="evenodd" stroke="none"/>
    <path d="M9.2 1.0 L9.2 84.75 8.9 85.45 8.2 85.75 1.0 85.75 Q0.6 85.75 0.3 85.45 0.0 85.15 0.0 84.75 L0.0 1.0 Q0.0 0.6 0.3 0.3 0.6 0.0 1.0 0.0 L8.2 0.0 Q8.6 0.0 8.9 0.3 L9.2 1.0 Z" fill="none" stroke="#0948b7" stroke-linecap="butt" stroke-linejoin="miter-clip" stroke-miterlimit="4.0" stroke-width="1.0"/>
  </g>
</svg>
