<?xml version="1.0" encoding="UTF-8" standalone="no"?>
<svg xmlns:ffdec="https://www.free-decompiler.com/flash" xmlns:xlink="http://www.w3.org/1999/xlink" ffdec:objectType="shape" height="94.8px" width="94.8px" xmlns="http://www.w3.org/2000/svg">
  <g transform="matrix(1.0, 0.0, 0.0, 1.0, -5.25, -5.25)">
    <path d="M5.25 52.7 Q5.25 33.0 19.1 19.15 33.0 5.25 52.6 5.25 72.3 5.25 86.15 19.15 100.05 33.05 100.05 52.7 100.05 72.3 86.15 86.2 72.3 100.05 52.6 100.05 33.0 100.05 19.1 86.2 5.25 72.35 5.25 52.7" fill="#161719" fill-rule="evenodd" stroke="none"/>
    <path d="M81.05 24.15 Q90.8 33.85 92.5 47.45 94.15 60.8 87.5 72.5 L78.1 66.8 77.45 67.9 86.9 73.55 Q84.3 77.7 81.05 80.95 75.35 86.65 68.0 89.65 60.75 92.75 52.7 92.75 44.6 92.75 37.3 89.65 29.95 86.6 24.25 80.95 21.05 77.75 18.5 73.6 L28.1 68.05 27.5 67.0 17.85 72.55 Q11.15 60.9 12.85 47.5 14.55 33.8 24.3 24.1 29.85 18.5 37.1 15.5 44.35 12.5 52.25 12.4 L52.25 23.45 53.5 23.45 53.5 12.4 Q61.3 12.6 68.45 15.6 75.55 18.6 81.05 24.15" fill="url(#gradient0)" fill-rule="evenodd" stroke="none"/>
    <path d="M53.65 12.2 L53.65 23.25 52.45 23.25 52.45 12.2 Q44.55 12.3 37.3 15.3 30.05 18.3 24.45 23.9 14.75 33.6 13.05 47.3 11.35 60.7 18.05 72.35 L27.65 66.8 28.3 67.85 18.65 73.4 Q21.25 77.55 24.4 80.75 30.15 86.4 37.45 89.45 44.8 92.55 52.85 92.55 60.9 92.55 68.2 89.45 75.55 86.45 81.25 80.75 84.5 77.5 87.05 73.35 L77.65 67.7 78.3 66.6 87.7 72.3 Q94.35 60.6 92.7 47.25 91.0 33.65 81.25 23.95 75.7 18.4 68.6 15.4 61.5 12.4 53.65 12.2 M53.7 11.3 Q61.75 11.5 68.95 14.6 76.25 17.7 81.9 23.3 91.65 33.1 93.5 46.9 95.35 60.7 88.5 72.75 L88.05 73.55 88.0 73.55 87.85 73.8 Q85.5 77.75 81.9 81.4 76.05 87.2 68.55 90.3 61.05 93.45 52.85 93.45 44.65 93.45 37.1 90.3 29.65 87.15 23.8 81.35 20.5 78.0 17.9 73.9 L17.55 73.25 17.4 73.1 17.45 73.1 17.25 72.8 Q10.35 60.75 12.2 46.95 14.05 33.1 23.85 23.25 29.6 17.55 36.95 14.45 44.35 11.4 52.45 11.3 L52.75 11.3 52.75 11.25 53.35 11.25 53.35 11.3 53.7 11.3" fill="#1e1e1e" fill-rule="evenodd" stroke="none"/>
    <path d="M20.15 52.7 Q20.15 39.2 29.65 29.75 39.2 20.2 52.6 20.2 66.05 20.2 75.55 29.75 85.1 39.25 85.1 52.7 85.1 66.15 75.55 75.65 66.05 85.15 52.6 85.15 39.2 85.15 29.65 75.65 20.15 66.15 20.15 52.7" fill="#181819" fill-rule="evenodd" stroke="none"/>
    <path d="M20.6 52.7 Q20.6 65.9 30.05 75.3 39.4 84.7 52.6 84.7 65.9 84.7 75.25 75.3 84.65 65.9 84.65 52.7 84.65 39.4 75.25 30.05 65.9 20.65 52.6 20.65 39.4 20.65 30.05 30.05 20.6 39.4 20.6 52.7 M29.35 76.0 Q19.7 66.3 19.7 52.7 19.7 39.05 29.35 29.4 39.0 19.75 52.6 19.75 66.25 19.75 75.95 29.4 85.55 39.05 85.55 52.7 85.55 66.3 75.95 76.0 66.25 85.6 52.6 85.6 39.0 85.6 29.35 76.0" fill="#6d6b69" fill-rule="evenodd" stroke="none"/>
    <path d="M82.35 52.55 Q82.35 64.85 73.6 73.65 64.85 82.35 52.5 82.35 40.15 82.35 31.4 73.65 22.65 64.9 22.65 52.55 22.65 40.15 31.4 31.4 40.15 22.65 52.5 22.65 64.85 22.65 73.6 31.4 82.35 40.2 82.35 52.55" fill="url(#gradient1)" fill-rule="evenodd" stroke="none"/>
    <path d="M81.9 52.55 Q81.9 40.4 73.25 31.75 64.65 23.1 52.5 23.1 40.35 23.1 31.75 31.75 23.1 40.4 23.1 52.55 23.1 64.7 31.75 73.3 40.35 81.9 52.5 81.9 64.65 81.9 73.25 73.3 81.9 64.7 81.9 52.55 M73.95 31.1 Q82.8 39.95 82.8 52.55 82.8 65.1 73.95 73.95 65.05 82.8 52.5 82.8 39.95 82.8 31.05 73.95 22.2 65.1 22.2 52.55 22.2 39.95 31.05 31.1 39.95 22.2 52.5 22.2 65.05 22.2 73.95 31.1" fill="#0677ff" fill-rule="evenodd" stroke="none"/>
  </g>
  <defs>
    <linearGradient gradientTransform="matrix(0.0, -0.049, -0.049, 0.0, 52.7, 52.55)" gradientUnits="userSpaceOnUse" id="gradient0" spreadMethod="pad" x1="-819.2" x2="819.2">
      <stop offset="0.0" stop-color="#c4c4c4"/>
      <stop offset="0.19215686274509805" stop-color="#6a6a6a"/>
      <stop offset="0.403921568627451" stop-color="#242424"/>
      <stop offset="0.7137254901960784" stop-color="#8c8c8c"/>
      <stop offset="1.0" stop-color="#e1e1e1"/>
    </linearGradient>
    <linearGradient gradientTransform="matrix(0.0, -0.0364, -0.0364, 0.0, 52.5, 52.55)" gradientUnits="userSpaceOnUse" id="gradient1" spreadMethod="pad" x1="-819.2" x2="819.2">
      <stop offset="0.0" stop-color="#1299f6"/>
      <stop offset="0.1803921568627451" stop-color="#297cf1"/>
      <stop offset="0.48627450980392156" stop-color="#0d69ee"/>
      <stop offset="0.7647058823529411" stop-color="#1254ef"/>
      <stop offset="1.0" stop-color="#0845b1"/>
    </linearGradient>
  </defs>
</svg>
