<?xml version="1.0" encoding="UTF-8" standalone="no"?>
<svg xmlns:ffdec="https://www.free-decompiler.com/flash" xmlns:xlink="http://www.w3.org/1999/xlink" ffdec:objectType="shape" height="264.25px" width="259.5px" xmlns="http://www.w3.org/2000/svg">
  <g transform="matrix(1.0, 0.0, 0.0, 1.0, 0.1, -21.45)">
    <path d="M256.95 23.65 Q255.45 22.35 253.4 22.35 L5.9 22.35 Q3.85 22.35 2.35 23.65 0.9 25.05 0.9 27.0 L0.9 273.7 Q0.9 275.6 2.35 277.0 3.85 278.3 5.9 278.3 L253.4 278.3 Q255.45 278.3 256.95 277.0 258.4 275.6 258.4 273.7 L258.4 27.0 Q258.4 25.05 256.95 23.65 M257.65 23.0 Q259.4 24.65 259.4 27.0 L259.4 273.7 Q259.4 276.0 257.65 277.65 255.9 279.3 253.4 279.3 L5.9 279.3 Q3.45 279.3 1.65 277.65 -0.1 276.0 -0.1 273.7 L-0.1 27.0 Q-0.1 24.65 1.65 23.0 3.4 21.45 5.9 21.45 L253.4 21.45 Q255.9 21.45 257.65 23.0" fill="#0c0c0c" fill-rule="evenodd" stroke="none"/>
    <path d="M256.95 23.65 Q258.4 25.05 258.4 27.0 L258.4 273.7 Q258.4 275.6 256.95 277.0 255.45 278.3 253.4 278.3 L5.9 278.3 Q3.85 278.3 2.35 277.0 0.9 275.6 0.9 273.7 L0.9 27.0 Q0.9 25.05 2.35 23.65 3.85 22.35 5.9 22.35 L253.4 22.35 Q255.45 22.35 256.95 23.65" fill="#2b2828" fill-rule="evenodd" stroke="none"/>
    <path d="M254.55 27.3 Q256.2 28.95 256.2 31.15 L256.2 280.25 Q256.2 282.4 254.55 284.1 252.85 285.7 250.5 285.7 L8.8 285.7 Q6.5 285.7 4.75 284.1 3.1 282.4 3.1 280.25 L3.1 31.15 Q3.1 28.95 4.75 27.3 6.5 25.7 8.8 25.7 L250.5 25.7 Q252.85 25.7 254.55 27.3" fill="#161719" fill-rule="evenodd" stroke="none"/>
  </g>
</svg>
