<?xml version="1.0" encoding="UTF-8" standalone="no"?>
<svg xmlns:ffdec="https://www.free-decompiler.com/flash" xmlns:xlink="http://www.w3.org/1999/xlink" ffdec:objectType="shape" height="165.05px" width="294.65px" xmlns="http://www.w3.org/2000/svg">
  <g transform="matrix(1.0, 0.0, 0.0, 1.0, 0.0, 0.0)">
    <path d="M293.65 155.05 L293.65 15.75 Q293.65 14.1 292.5 12.95 291.3 11.75 289.65 11.75 L125.05 11.75 122.6 11.25 Q121.15 10.8 120.3 10.15 L111.05 2.85 108.2 1.35 105.05 0.75 5.0 0.75 Q3.35 0.75 2.2 1.95 1.0 3.1 1.0 4.75 L1.0 155.55 1.0 159.75 Q1.0 161.4 2.2 162.6 3.35 163.75 5.0 163.75 L36.35 163.75 71.0 163.75 72.0 163.7 72.5 163.75 137.15 163.75 Q137.9 163.65 138.3 163.3 L138.35 163.25 138.05 164.0 137.85 164.4 138.1 164.0 138.65 163.0 138.3 164.0 138.1 164.5 5.0 164.5 Q2.95 164.5 1.45 163.05 0.0 161.55 0.0 159.5 L0.0 5.0 Q0.0 2.95 1.45 1.45 2.95 0.0 5.0 0.0 L105.05 0.0 Q106.6 0.0 108.5 0.65 110.4 1.3 111.65 2.3 L120.95 9.6 Q121.65 10.15 122.9 10.6 L125.05 11.0 289.65 11.0 Q291.7 11.0 293.2 12.45 294.65 13.95 294.65 16.0 L294.65 159.5 Q294.65 161.55 293.2 163.05 291.7 164.5 289.65 164.5 L260.6 164.5 165.65 164.45 158.45 164.35 165.65 164.45 158.5 164.5 158.45 164.35 158.4 164.3 158.5 164.0 161.0 164.0 222.25 163.5 222.45 163.5 224.45 163.75 260.5 163.75 289.65 163.75 Q291.3 163.75 292.5 162.6 293.65 161.4 293.65 159.75 L293.65 155.05 M36.3 164.0 L138.0 164.0 138.3 163.3 138.0 164.0 36.3 164.0 M157.55 162.55 L157.9 163.55 157.85 163.45 Q157.35 162.95 157.55 162.55" fill="#0068ff" fill-rule="evenodd" stroke="none"/>
    <path d="M263.85 155.05 L263.55 155.05 259.7 149.55 158.7 149.95 156.05 153.1 Q155.85 151.8 154.5 151.85 L142.75 151.85 Q141.7 151.95 141.4 152.65 L138.15 149.55 36.6 149.3 33.0 155.55 3.0 155.55 3.25 23.75 290.8 23.25 291.05 155.05 263.85 155.05" fill="url(#gradient0)" fill-rule="evenodd" stroke="none"/>
    <path d="M1.0 155.55 L1.0 4.75 Q1.0 3.1 2.2 1.95 3.35 0.75 5.0 0.75 L105.05 0.75 108.2 1.35 111.05 2.85 120.3 10.15 Q121.15 10.8 122.6 11.25 L125.05 11.75 289.65 11.75 Q291.3 11.75 292.5 12.95 293.65 14.1 293.65 15.75 L293.65 155.05 291.05 155.05 290.8 23.25 3.25 23.75 3.0 155.55 1.0 155.55" fill="url(#gradient1)" fill-rule="evenodd" stroke="none"/>
    <path d="M260.5 163.75 L224.45 163.75 222.45 163.5 222.25 163.5 161.0 164.0 158.5 164.0 158.4 164.3 158.35 164.55 155.0 154.85 155.1 154.85 155.15 154.8 155.15 154.7 155.05 154.7 155.05 154.6 Q154.85 154.4 142.5 154.35 L142.4 154.45 142.3 154.55 142.2 154.55 142.05 154.7 142.05 154.8 142.05 154.85 142.3 154.85 142.3 154.9 147.15 155.0 142.75 155.0 141.95 154.85 138.3 163.3 Q137.9 163.65 137.15 163.75 L72.5 163.75 72.0 163.7 71.0 163.75 36.35 163.75 33.0 155.55 36.6 149.3 138.15 149.55 141.4 152.65 Q141.7 151.95 142.75 151.85 L154.5 151.85 Q155.85 151.8 156.05 153.1 L158.7 149.95 259.7 149.55 263.55 155.05 263.85 155.05 260.5 163.75" fill="url(#gradient2)" fill-rule="evenodd" stroke="none"/>
    <path d="M293.65 155.05 L293.65 159.75 Q293.65 161.4 292.5 162.6 291.3 163.75 289.65 163.75 L260.5 163.75 263.85 155.05 291.05 155.05 293.65 155.05" fill="url(#gradient3)" fill-rule="evenodd" stroke="none"/>
    <path d="M33.0 155.55 L36.35 163.75 5.0 163.75 Q3.35 163.75 2.2 162.6 1.0 161.4 1.0 159.75 L1.0 155.55 3.0 155.55 33.0 155.55" fill="url(#gradient4)" fill-rule="evenodd" stroke="none"/>
    <path d="M158.45 164.35 L165.65 164.45 260.6 164.5 M138.3 163.3 L138.0 164.0 36.3 164.0 M260.5 163.75 L263.85 155.05 263.55 155.05 M33.0 155.55 L36.35 163.75 M138.3 163.3 L141.95 154.85 M155.0 154.85 L158.35 164.55 M291.05 155.05 L263.85 155.05 M291.05 155.05 L290.8 23.25 3.25 23.75 3.0 155.55 33.0 155.55 M142.05 154.8 L155.15 154.8 M138.1 164.0 L138.05 164.0" fill="none" stroke="#0d90fc" stroke-linecap="round" stroke-linejoin="round" stroke-width="1.0"/>
  </g>
  <defs>
    <linearGradient gradientTransform="matrix(0.0, -0.0851, -0.0851, 0.0, 147.3, 70.5)" gradientUnits="userSpaceOnUse" id="gradient0" spreadMethod="pad" x1="-819.2" x2="819.2">
      <stop offset="0.0" stop-color="#05337a"/>
      <stop offset="0.17647058823529413" stop-color="#032970"/>
      <stop offset="0.4627450980392157" stop-color="#012168"/>
      <stop offset="1.0" stop-color="#001f66"/>
    </linearGradient>
    <linearGradient gradientTransform="matrix(0.0, -0.0851, -0.0851, 0.0, 147.3, 70.5)" gradientUnits="userSpaceOnUse" id="gradient1" spreadMethod="pad" x1="-819.2" x2="819.2">
      <stop offset="0.0" stop-color="#05337a"/>
      <stop offset="0.17647058823529413" stop-color="#032970"/>
      <stop offset="0.4627450980392157" stop-color="#012168"/>
      <stop offset="1.0" stop-color="#008aec"/>
    </linearGradient>
    <linearGradient gradientTransform="matrix(0.0, 0.0119, -0.0088, 0.0, 87.75, 159.8)" gradientUnits="userSpaceOnUse" id="gradient2" spreadMethod="pad" x1="-819.2" x2="819.2">
      <stop offset="0.0" stop-color="#05337a"/>
      <stop offset="0.17647058823529413" stop-color="#032970"/>
      <stop offset="0.4627450980392157" stop-color="#000748"/>
      <stop offset="1.0" stop-color="#000e46"/>
    </linearGradient>
    <linearGradient gradientTransform="matrix(-0.0509, 0.0378, -0.0032, -0.0043, 253.55, 176.4)" gradientUnits="userSpaceOnUse" id="gradient3" spreadMethod="pad" x1="-819.2" x2="819.2">
      <stop offset="0.0" stop-color="#05337a"/>
      <stop offset="0.17647058823529413" stop-color="#032970"/>
      <stop offset="0.4627450980392157" stop-color="#000748"/>
      <stop offset="1.0" stop-color="#000e46"/>
    </linearGradient>
    <linearGradient gradientTransform="matrix(0.0135, 0.049, 0.0816, -0.0226, -94.7, 216.15)" gradientUnits="userSpaceOnUse" id="gradient4" spreadMethod="pad" x1="-819.2" x2="819.2">
      <stop offset="0.0" stop-color="#05337a"/>
      <stop offset="0.17647058823529413" stop-color="#032970"/>
      <stop offset="0.4627450980392157" stop-color="#000748"/>
      <stop offset="1.0" stop-color="#000e46"/>
    </linearGradient>
  </defs>
</svg>
