<?xml version="1.0" encoding="UTF-8" standalone="no"?>
<svg xmlns:ffdec="https://www.free-decompiler.com/flash" xmlns:xlink="http://www.w3.org/1999/xlink" ffdec:objectType="shape" height="270.6px" width="279.15px" xmlns="http://www.w3.org/2000/svg">
  <g transform="matrix(1.0, 0.0, 0.0, 1.0, 0.0, 0.0)">
    <path d="M268.3 6.0 Q268.3 3.95 266.85 2.45 265.35 1.0 263.3 1.0 L16.0 1.0 Q13.95 1.0 12.45 2.45 11.0 3.95 11.0 6.0 L11.0 264.6 Q11.0 266.65 12.45 268.15 13.95 269.6 16.0 269.6 L103.0 269.6 107.4 269.0 Q109.7 268.45 110.85 267.6 112.0 266.8 114.35 266.2 L118.7 265.6 158.7 265.6 163.1 266.2 Q165.45 266.8 166.7 267.6 167.9 268.4 170.25 269.0 L174.7 269.6 263.3 269.6 Q265.35 269.6 266.85 268.15 268.3 266.65 268.3 264.6 L268.3 6.0 M263.3 0.0 Q265.8 0.0 267.55 1.75 269.3 3.55 269.3 6.0 L269.3 264.6 Q269.3 267.1 267.55 268.85 265.8 270.6 263.3 270.6 L174.7 270.6 169.95 270.0 Q167.5 269.35 166.1 268.45 165.0 267.7 162.8 267.15 L158.7 266.6 118.7 266.6 114.6 267.15 Q112.45 267.7 111.4 268.45 110.15 269.35 107.7 270.0 L103.0 270.6 16.0 270.6 Q13.5 270.6 11.75 268.85 10.0 267.1 10.0 264.6 L10.0 6.0 Q10.0 3.5 11.75 1.75 13.5 0.0 16.0 0.0 L263.3 0.0" fill="#0c0c0c" fill-rule="evenodd" stroke="none"/>
    <path d="M268.3 6.0 L268.3 264.6 Q268.3 266.65 266.85 268.15 265.35 269.6 263.3 269.6 L174.7 269.6 170.25 269.0 Q167.9 268.4 166.7 267.6 165.45 266.8 163.1 266.2 L158.7 265.6 118.7 265.6 114.35 266.2 Q112.0 266.8 110.85 267.6 109.7 268.45 107.4 269.0 L103.0 269.6 16.0 269.6 Q13.95 269.6 12.45 268.15 11.0 266.65 11.0 264.6 L11.0 6.0 Q11.0 3.95 12.45 2.45 13.95 1.0 16.0 1.0 L263.3 1.0 Q265.35 1.0 266.85 2.45 268.3 3.95 268.3 6.0" fill="#282828" fill-rule="evenodd" stroke="none"/>
    <path d="M6.45 114.65 L8.8 121.05 0.8 115.25 0.8 111.55 6.45 114.65" fill="#29292b" fill-rule="evenodd" stroke="none"/>
    <path d="M6.45 178.95 L0.8 181.5 0.8 177.8 8.8 172.95 6.45 178.95" fill="#29292b" fill-rule="evenodd" stroke="none"/>
    <path d="M6.25 117.65 Q7.3 118.3 8.05 119.65 8.8 120.95 8.8 122.2 L8.8 171.6 Q8.8 172.85 8.05 174.15 7.3 175.45 6.2 176.1 L3.4 177.7 1.6 177.9 Q0.8 177.45 0.8 176.2 L0.8 117.3 Q0.8 116.05 1.55 115.65 2.3 115.25 3.35 115.9 L6.25 117.65" fill="#191919" fill-rule="evenodd" stroke="none"/>
    <path d="M0.8 114.3 L1.55 114.7 1.55 178.8 0.8 179.2 0.8 114.3" fill="#595657" fill-rule="evenodd" stroke="none"/>
    <path d="M6.2 117.6 L6.7 117.95 6.7 175.7 6.2 176.1 6.2 117.6" fill="#474647" fill-rule="evenodd" stroke="none"/>
    <path d="M5.65 117.25 L6.15 117.6 6.15 176.0 5.65 176.45 5.65 117.25" fill="#1e1d1f" fill-rule="evenodd" stroke="none"/>
    <path d="M7.6 131.2 L15.15 140.8 15.15 153.15 7.6 162.75 1.0 163.95 1.0 130.0 7.6 131.2" fill="url(#gradient0)" fill-rule="evenodd" stroke="none"/>
    <path d="M0.0 128.8 L8.1 130.25 15.9 140.2 16.15 140.45 16.15 153.5 15.9 153.75 8.35 163.35 8.15 163.65 0.0 165.2 0.0 128.8 M7.6 131.2 L1.0 130.0 1.0 163.95 7.6 162.75 15.15 153.15 15.15 140.8 7.6 131.2" fill="#1a1a1c" fill-rule="evenodd" stroke="none"/>
    <path d="M1.0 130.0 L3.85 130.5 3.85 163.45 1.0 163.95 1.0 130.0" fill="#484949" fill-rule="evenodd" stroke="none"/>
    <path d="M5.5 175.2 L2.15 177.35 2.15 164.9 5.5 164.3 5.5 175.2" fill="#000701" fill-rule="evenodd" stroke="none"/>
    <path d="M5.0 174.45 L2.65 175.95 2.65 165.85 5.0 165.45 5.0 174.45" fill="#2c0000" fill-rule="evenodd" stroke="none"/>
    <path d="M4.5 173.45 L3.15 174.3 3.15 166.75 4.5 166.55 4.5 173.45" fill="#780000" fill-rule="evenodd" stroke="none"/>
    <path d="M5.5 118.5 L5.5 129.4 2.15 128.8 2.15 116.35 5.5 118.5" fill="#1e0701" fill-rule="evenodd" stroke="none"/>
    <path d="M5.0 119.3 L5.0 128.3 2.65 127.85 2.65 117.75 5.0 119.3" fill="#2c0000" fill-rule="evenodd" stroke="none"/>
    <path d="M4.5 120.3 L4.5 127.2 3.15 126.95 3.15 119.4 4.5 120.3" fill="#780000" fill-rule="evenodd" stroke="none"/>
    <path d="M272.75 114.65 L278.35 111.55 278.35 115.25 270.35 121.05 272.75 114.65" fill="#29292b" fill-rule="evenodd" stroke="none"/>
    <path d="M272.75 178.95 L270.35 172.95 278.35 177.8 278.35 181.5 272.75 178.95" fill="#29292b" fill-rule="evenodd" stroke="none"/>
    <path d="M272.9 117.65 L275.8 115.9 Q276.85 115.25 277.6 115.65 278.35 116.05 278.35 117.3 L278.35 176.2 Q278.35 177.45 277.6 177.9 276.85 178.35 275.75 177.7 L272.95 176.1 Q271.9 175.45 271.15 174.15 270.35 172.85 270.35 171.6 L270.35 122.2 Q270.35 120.95 271.1 119.65 271.85 118.3 272.9 117.65" fill="#191919" fill-rule="evenodd" stroke="none"/>
    <path d="M278.35 114.3 L278.35 179.2 277.6 178.8 277.6 114.7 278.35 114.3" fill="#595657" fill-rule="evenodd" stroke="none"/>
    <path d="M273.0 117.6 L273.0 176.1 272.45 175.7 272.45 117.95 273.0 117.6" fill="#474647" fill-rule="evenodd" stroke="none"/>
    <path d="M273.55 117.25 L273.55 176.45 273.0 176.0 273.0 117.6 273.55 117.25" fill="#1e1d1f" fill-rule="evenodd" stroke="none"/>
    <path d="M271.6 131.2 L278.15 130.0 278.15 163.95 271.6 162.75 264.05 153.15 264.05 140.8 271.6 131.2" fill="url(#gradient1)" fill-rule="evenodd" stroke="none"/>
    <path d="M269.8 131.7 L269.85 131.7 270.85 130.55 271.05 130.25 279.15 128.8 279.15 165.2 271.05 163.65 263.05 153.5 263.05 140.45 269.8 131.7 M278.15 130.0 L271.6 131.2 264.05 140.8 264.05 153.15 271.6 162.75 278.15 163.95 278.15 130.0" fill="#1a1a1c" fill-rule="evenodd" stroke="none"/>
    <path d="M278.15 130.0 L278.15 163.95 275.35 163.45 275.35 130.5 278.15 130.0" fill="#484949" fill-rule="evenodd" stroke="none"/>
    <path d="M273.65 175.2 L273.65 164.3 277.0 164.9 277.0 177.35 273.65 175.2" fill="#000701" fill-rule="evenodd" stroke="none"/>
    <path d="M274.15 174.45 L274.15 165.45 276.55 165.85 276.55 175.95 274.15 174.45" fill="#2c0000" fill-rule="evenodd" stroke="none"/>
    <path d="M274.65 173.45 L274.65 166.55 276.0 166.75 276.0 174.3 274.65 173.45" fill="#780000" fill-rule="evenodd" stroke="none"/>
    <path d="M273.65 118.5 L277.0 116.35 277.0 128.8 273.65 129.4 273.65 118.5" fill="#1e0701" fill-rule="evenodd" stroke="none"/>
    <path d="M274.15 119.3 L276.55 117.75 276.55 127.85 274.15 128.3 274.15 119.3" fill="#2c0000" fill-rule="evenodd" stroke="none"/>
    <path d="M274.65 120.3 L276.0 119.4 276.0 126.95 274.65 127.2 274.65 120.3" fill="#780000" fill-rule="evenodd" stroke="none"/>
    <path d="M263.65 7.0 L263.65 11.7 Q263.65 12.95 263.25 14.6 262.85 16.3 262.25 17.35 L261.8 18.25 Q261.25 19.35 260.85 21.05 260.45 22.7 260.45 23.95 L260.45 73.5 Q260.45 74.75 259.55 75.6 258.7 76.5 257.45 76.5 L23.9 76.5 Q22.65 76.5 21.8 75.6 20.9 74.75 20.9 73.5 L20.9 23.95 Q20.9 22.7 20.5 21.05 20.1 19.35 19.55 18.25 L19.05 17.35 Q18.5 16.25 18.1 14.6 17.7 12.95 17.7 11.7 L17.7 7.0 Q17.7 5.75 18.6 4.9 19.45 4.0 20.7 4.0 L260.65 4.0 Q261.9 4.0 262.75 4.9 263.65 5.75 263.65 7.0" fill="url(#gradient2)" fill-rule="evenodd" stroke="none"/>
    <path d="M256.25 13.0 L256.25 68.5 Q256.25 70.55 254.8 72.05 253.3 73.5 251.25 73.5 L29.7 73.5 Q27.65 73.5 26.15 72.05 24.7 70.55 24.7 68.5 L24.7 13.0 Q24.7 10.95 26.15 9.45 27.65 8.0 29.7 8.0 L251.25 8.0 Q253.3 8.0 254.8 9.45 256.25 10.95 256.25 13.0" fill="#0f0f0f" fill-rule="evenodd" stroke="none"/>
    <path d="M256.25 13.0 L256.25 68.5 Q256.25 70.55 254.8 72.05 253.3 73.5 251.25 73.5 L29.7 73.5 Q27.65 73.5 26.15 72.05 24.7 70.55 24.7 68.5 L24.7 13.0 Q24.7 10.95 26.15 9.45 27.65 8.0 29.7 8.0 L251.25 8.0 Q253.3 8.0 254.8 9.45 256.25 10.95 256.25 13.0 Z" fill="none" stroke="#4d4d52" stroke-linecap="butt" stroke-linejoin="miter-clip" stroke-miterlimit="4.0" stroke-width="2.0"/>
  </g>
  <defs>
    <linearGradient gradientTransform="matrix(-0.0086, 0.0, 0.0, 0.0086, 8.05, 146.95)" gradientUnits="userSpaceOnUse" id="gradient0" spreadMethod="pad" x1="-819.2" x2="819.2">
      <stop offset="0.0" stop-color="#1d1e1f"/>
      <stop offset="1.0" stop-color="#242424"/>
    </linearGradient>
    <linearGradient gradientTransform="matrix(-0.0086, 0.0, 0.0, -0.0086, 271.1, 146.95)" gradientUnits="userSpaceOnUse" id="gradient1" spreadMethod="pad" x1="-819.2" x2="819.2">
      <stop offset="0.0" stop-color="#1d1e1f"/>
      <stop offset="1.0" stop-color="#242424"/>
    </linearGradient>
    <linearGradient gradientTransform="matrix(0.0, -0.0443, -0.0443, 0.0, 140.65, 40.25)" gradientUnits="userSpaceOnUse" id="gradient2" spreadMethod="pad" x1="-819.2" x2="819.2">
      <stop offset="0.00392156862745098" stop-color="#282828"/>
      <stop offset="1.0" stop-color="#646464"/>
    </linearGradient>
  </defs>
</svg>
