<?xml version="1.0" encoding="UTF-8" standalone="no"?>
<svg xmlns:ffdec="https://www.free-decompiler.com/flash" xmlns:xlink="http://www.w3.org/1999/xlink" ffdec:objectType="shape" height="102.25px" width="128.25px" xmlns="http://www.w3.org/2000/svg">
  <g transform="matrix(1.0, 0.0, 0.0, 1.0, -70.55, -106.9)">
    <path d="M180.0 155.5 Q180.0 174.4 166.65 187.7 153.35 201.0 134.45 201.0 115.6 201.0 102.35 187.7 88.95 174.4 88.95 155.5 88.95 136.65 102.35 123.35 115.6 110.0 134.45 110.0 153.35 110.0 166.65 123.35 180.0 136.65 180.0 155.5" fill="#0f0f0f" fill-rule="evenodd" stroke="none"/>
    <path d="M180.0 155.5 Q180.0 174.4 166.65 187.7 153.35 201.0 134.45 201.0 115.6 201.0 102.35 187.7 88.95 174.4 88.95 155.5 88.95 136.65 102.35 123.35 115.6 110.0 134.45 110.0 153.35 110.0 166.65 123.35 180.0 136.65 180.0 155.5 Z" fill="none" stroke="#0f0f0f" stroke-linecap="round" stroke-linejoin="round" stroke-width="1.0"/>
    <path d="M132.55 168.85 L136.5 168.8 136.5 209.15 132.55 209.15 132.55 168.85" fill="#161719" fill-rule="evenodd" stroke="none"/>
    <path d="M92.3 155.55 Q92.3 138.1 104.65 125.75 117.0 113.4 134.45 113.4 151.9 113.4 164.25 125.75 176.6 138.1 176.6 155.55 176.6 173.0 164.25 185.35 151.9 197.7 134.45 197.7 117.0 197.7 104.65 185.35 92.3 173.05 92.3 155.55" fill="#161719" fill-rule="evenodd" stroke="none"/>
    <path d="M73.3 110.65 L72.55 106.9 85.2 106.9 125.6 147.25 122.8 150.1 83.45 110.65 73.3 110.65" fill="#161719" fill-rule="evenodd" stroke="none"/>
    <path d="M198.05 110.65 L198.8 106.9 186.15 106.9 145.75 147.25 148.55 150.1 187.9 110.65 198.05 110.65" fill="#161719" fill-rule="evenodd" stroke="none"/>
    <path d="M71.3 192.95 L70.55 196.7 83.2 196.7 123.6 156.35 120.8 153.5 81.45 192.95 71.3 192.95" fill="#161719" fill-rule="evenodd" stroke="none"/>
    <path d="M198.05 192.95 L198.8 196.7 186.15 196.7 145.75 156.35 148.55 153.5 187.9 192.95 198.05 192.95" fill="#161719" fill-rule="evenodd" stroke="none"/>
  </g>
</svg>
