<?xml version="1.0" encoding="UTF-8" standalone="no"?>
<svg xmlns:ffdec="https://www.free-decompiler.com/flash" xmlns:xlink="http://www.w3.org/1999/xlink" ffdec:objectType="shape" height="52.0px" width="52.0px" xmlns="http://www.w3.org/2000/svg">
  <g transform="matrix(1.0, 0.0, 0.0, 1.0, -19.7, -20.2)">
    <path d="M70.7 46.2 Q70.7 56.6 63.35 63.85 56.0 71.2 45.7 71.2 35.35 71.2 28.0 63.85 20.7 56.6 20.7 46.2 20.7 35.85 28.0 28.55 35.35 21.2 45.7 21.2 56.0 21.2 63.35 28.55 70.7 35.85 70.7 46.2" fill="#333333" fill-rule="evenodd" stroke="none"/>
    <path d="M70.7 46.2 Q70.7 56.6 63.35 63.85 56.0 71.2 45.7 71.2 35.35 71.2 28.0 63.85 20.7 56.6 20.7 46.2 20.7 35.85 28.0 28.55 35.35 21.2 45.7 21.2 56.0 21.2 63.35 28.55 70.7 35.85 70.7 46.2 Z" fill="none" stroke="#210e03" stroke-linecap="round" stroke-linejoin="round" stroke-width="2.0"/>
  </g>
</svg>
