<?xml version="1.0" encoding="UTF-8" standalone="no"?>
<svg xmlns:ffdec="https://www.free-decompiler.com/flash" xmlns:xlink="http://www.w3.org/1999/xlink" ffdec:objectType="shape" height="353.05px" width="281.5px" xmlns="http://www.w3.org/2000/svg">
  <g transform="matrix(1.0, 0.0, 0.0, 1.0, 0.0, 0.0)">
    <path d="M279.4 4.25 Q281.0 7.5 281.0 12.1 L281.0 340.95 Q281.0 345.6 279.4 348.85 277.75 352.05 275.5 352.05 L6.0 352.05 Q3.75 352.05 2.15 348.85 0.5 345.6 0.5 340.95 L0.5 12.1 Q0.5 7.5 2.15 4.25 3.75 1.05 6.0 1.05 L275.5 1.05 Q277.75 1.05 279.4 4.25" fill="#272d33" fill-rule="evenodd" stroke="none"/>
    <path d="M279.05 4.95 Q277.55 2.05 275.5 2.05 L6.0 2.05 Q3.95 2.05 2.45 4.95 1.0 8.0 1.0 12.1 L1.0 340.95 Q1.0 345.1 2.45 348.15 3.95 351.05 6.0 351.05 L275.5 351.05 Q277.55 351.05 279.05 348.15 280.5 345.1 280.5 340.95 L280.5 12.1 Q280.5 8.0 279.05 4.95 M275.5 0.0 Q278.0 0.0 279.75 3.55 281.5 7.1 281.5 12.1 L281.5 340.95 Q281.5 346.0 279.75 349.55 278.0 353.05 275.5 353.05 L6.0 353.05 Q3.55 353.05 1.75 349.55 0.0 346.0 0.0 340.95 L0.0 12.1 Q0.0 7.1 1.75 3.55 3.5 0.0 6.0 0.0 L275.5 0.0" fill="#0c0c0c" fill-rule="evenodd" stroke="none"/>
    <path d="M267.25 33.0 L267.25 311.05 266.7 311.05 265.7 313.55 Q264.1 316.35 261.95 316.35 L19.5 316.35 Q17.35 316.35 15.75 313.55 15.15 312.4 14.8 311.05 L14.25 311.05 14.25 33.0 Q14.25 29.0 15.75 26.1 17.35 23.25 19.5 23.25 L261.95 23.25 Q264.1 23.25 265.7 26.1 267.25 29.0 267.25 33.0" fill="#161719" fill-rule="evenodd" stroke="none"/>
  </g>
</svg>
