<?xml version="1.0" encoding="UTF-8" standalone="no"?>
<svg xmlns:ffdec="https://www.free-decompiler.com/flash" xmlns:xlink="http://www.w3.org/1999/xlink" ffdec:objectType="shape" height="23.85px" width="69.75px" xmlns="http://www.w3.org/2000/svg">
  <g transform="matrix(1.0, 0.0, 0.0, 1.0, 0.0, 0.0)">
    <path d="M31.15 23.35 L8.5 23.35 Q6.4 23.35 4.5 22.35 L2.3 21.2 Q1.4 20.75 0.9 19.75 0.4 18.8 0.55 17.8 L2.95 2.9 Q3.1 1.9 3.9 1.2 4.75 0.5 5.75 0.5 L31.15 0.5 31.15 23.35" fill="url(#gradient0)" fill-rule="evenodd" stroke="none"/>
    <path d="M31.15 0.5 L63.55 0.5 Q64.55 0.5 65.35 1.2 66.2 1.95 66.35 2.9 L68.7 17.8 Q68.85 18.8 68.35 19.75 67.85 20.75 66.95 21.15 L64.2 22.45 Q62.3 23.35 60.2 23.35 L31.15 23.35 31.15 0.5" fill="url(#gradient1)" fill-rule="evenodd" stroke="none"/>
    <path d="M66.35 3.0 Q66.25 2.2 65.55 1.6 64.9 1.0 64.05 1.0 L5.75 1.0 Q4.95 1.0 4.25 1.6 3.55 2.2 3.4 3.0 L1.05 17.9 Q0.95 18.7 1.35 19.55 L2.5 20.75 4.75 21.95 Q6.45 22.85 8.5 22.85 L60.7 22.85 Q62.6 22.85 64.5 22.0 L67.2 20.7 68.4 19.55 Q68.85 18.7 68.7 17.9 L66.35 3.0 M64.05 0.0 Q65.25 0.0 66.2 0.8 67.15 1.65 67.35 2.8 L69.7 17.7 Q69.9 18.85 69.3 20.0 68.7 21.1 67.65 21.6 L64.9 22.9 62.85 23.6 60.7 23.85 8.5 23.85 Q6.25 23.85 4.25 22.8 L2.05 21.65 Q1.05 21.1 0.45 20.0 -0.15 18.85 0.05 17.7 L2.45 2.8 Q2.65 1.65 3.6 0.8 4.55 0.0 5.75 0.0 L64.05 0.0" fill="#231602" fill-rule="evenodd" stroke="none"/>
  </g>
  <defs>
    <linearGradient gradientTransform="matrix(0.0, -0.0139, -0.0139, 0.0, 45.65, 11.95)" gradientUnits="userSpaceOnUse" id="gradient0" spreadMethod="pad" x1="-819.2" x2="819.2">
      <stop offset="0.0" stop-color="#ce8300"/>
      <stop offset="1.0" stop-color="#903800"/>
    </linearGradient>
    <linearGradient gradientTransform="matrix(0.0, -0.0139, -0.0139, 0.0, 23.65, 11.95)" gradientUnits="userSpaceOnUse" id="gradient1" spreadMethod="pad" x1="-819.2" x2="819.2">
      <stop offset="0.0" stop-color="#ce8300"/>
      <stop offset="1.0" stop-color="#903800"/>
    </linearGradient>
  </defs>
</svg>
