<?xml version="1.0" encoding="UTF-8" standalone="no"?>
<svg xmlns:ffdec="https://www.free-decompiler.com/flash" xmlns:xlink="http://www.w3.org/1999/xlink" ffdec:objectType="shape" height="23.85px" width="69.75px" xmlns="http://www.w3.org/2000/svg">
  <g transform="matrix(1.0, 0.0, 0.0, 1.0, 0.0, 0.05)">
    <path d="M60.2 0.45 Q62.3 0.45 64.2 1.35 L66.95 2.65 Q67.85 3.05 68.35 4.05 68.85 5.0 68.7 6.0 L66.35 20.9 Q66.2 21.85 65.35 22.6 64.55 23.3 63.55 23.3 L5.75 23.3 Q4.75 23.3 3.9 22.6 3.1 21.9 2.95 20.9 L0.55 6.0 Q0.4 5.0 0.9 4.05 1.4 3.05 2.3 2.6 L4.5 1.45 Q6.4 0.45 8.5 0.45 L60.2 0.45" fill="url(#gradient0)" fill-rule="evenodd" stroke="none"/>
    <path d="M66.35 20.8 Q66.25 21.6 65.55 22.2 64.9 22.8 64.05 22.8 L5.75 22.8 Q4.95 22.8 4.25 22.2 3.55 21.6 3.4 20.8 L1.05 5.9 Q0.95 5.1 1.35 4.25 1.8 3.4 2.5 3.05 L4.75 1.85 Q6.45 0.95 8.5 0.95 L60.7 0.95 Q62.6 0.95 64.5 1.8 L67.2 3.1 Q67.95 3.45 68.4 4.25 68.85 5.1 68.7 5.9 L66.35 20.8 M64.05 23.8 Q65.25 23.8 66.2 23.0 67.15 22.15 67.35 21.0 L69.7 6.1 Q69.9 4.95 69.3 3.8 68.7 2.7 67.65 2.2 L64.9 0.9 62.85 0.2 60.7 -0.05 8.5 -0.05 Q6.25 -0.05 4.25 1.0 L2.05 2.15 Q1.05 2.7 0.45 3.8 -0.15 4.95 0.05 6.1 L2.45 21.0 Q2.65 22.15 3.6 23.0 4.55 23.8 5.75 23.8 L64.05 23.8" fill="#231602" fill-rule="evenodd" stroke="none"/>
  </g>
  <defs>
    <linearGradient gradientTransform="matrix(0.0, -0.0139, 0.0139, 0.0, 45.65, 11.85)" gradientUnits="userSpaceOnUse" id="gradient0" spreadMethod="pad" x1="-819.2" x2="819.2">
      <stop offset="0.0" stop-color="#ce8300"/>
      <stop offset="1.0" stop-color="#903800"/>
    </linearGradient>
  </defs>
</svg>
