<?xml version="1.0" encoding="UTF-8" standalone="no"?>
<svg xmlns:ffdec="https://www.free-decompiler.com/flash" xmlns:xlink="http://www.w3.org/1999/xlink" ffdec:objectType="shape" height="21.45px" width="62.8px" xmlns="http://www.w3.org/2000/svg">
  <g transform="matrix(1.0, 0.0, 0.0, 1.0, -3.5, -1.15)">
    <path d="M63.2 20.0 Q63.1 20.85 62.3 21.5 61.6 22.15 60.7 22.15 L8.65 22.15 Q7.75 22.15 7.0 21.5 6.3 20.9 6.15 20.0 L4.0 6.6 Q3.85 5.7 4.3 4.85 4.75 3.95 5.55 3.5 L7.55 2.5 Q9.25 1.6 11.15 1.6 L57.7 1.6 Q59.55 1.6 61.3 2.4 L63.75 3.55 Q64.55 3.95 65.0 4.85 65.45 5.7 65.35 6.6 L63.2 20.0" fill="url(#gradient0)" fill-rule="evenodd" stroke="none"/>
    <path d="M63.1 21.9 Q63.95 21.1 64.1 20.1 L66.25 6.65 Q66.4 5.65 65.85 4.6 65.35 3.6 64.4 3.15 L61.9 2.0 60.05 1.35 58.15 1.15 11.15 1.15 Q9.1 1.15 7.3 2.1 L5.35 3.1 Q4.45 3.6 3.9 4.6 3.35 5.65 3.55 6.65 L5.7 20.1 Q5.9 21.1 6.75 21.9 7.6 22.6 8.65 22.6 L61.15 22.6 Q62.2 22.6 63.1 21.9 M62.5 21.15 Q61.9 21.7 61.15 21.7 L8.65 21.7 Q7.95 21.7 7.3 21.15 6.7 20.6 6.55 19.9 L4.45 6.5 Q4.35 5.75 4.7 5.0 5.1 4.25 5.75 3.95 L7.75 2.85 Q9.3 2.05 11.15 2.05 L58.15 2.05 Q59.85 2.05 61.55 2.8 L64.0 3.95 65.05 5.0 Q65.45 5.75 65.35 6.5 L63.2 19.9 Q63.1 20.6 62.5 21.15" fill="#231602" fill-rule="evenodd" stroke="none"/>
  </g>
  <defs>
    <linearGradient gradientTransform="matrix(0.0, -0.0126, 0.0126, 0.0, 25.6, 11.85)" gradientUnits="userSpaceOnUse" id="gradient0" spreadMethod="pad" x1="-819.2" x2="819.2">
      <stop offset="0.0" stop-color="#fd9b0b"/>
      <stop offset="1.0" stop-color="#a24d00"/>
    </linearGradient>
  </defs>
</svg>
