<?xml version="1.0" encoding="UTF-8" standalone="no"?>
<svg xmlns:ffdec="https://www.free-decompiler.com/flash" xmlns:xlink="http://www.w3.org/1999/xlink" ffdec:objectType="shape" height="205.35px" width="270.6px" xmlns="http://www.w3.org/2000/svg">
  <g transform="matrix(1.0, 0.0, 0.0, 1.0, 2.6, 3.4)">
    <path d="M0.05 200.85 L-0.05 8.0 0.0 6.75 0.0 4.05 -1.6 0.9 1.65 -2.35 14.7 -2.4 18.65 -0.1 259.35 0.0 Q267.0 0.0 267.0 8.0 L267.0 192.85 Q267.0 200.85 259.35 200.85 L0.45 200.95 0.05 200.85" fill="#060b13" fill-rule="evenodd" stroke="none"/>
    <path d="M0.05 200.85 L-0.05 8.0 0.0 6.75 0.0 4.05 -1.6 0.9 1.65 -2.35 14.7 -2.4 18.65 -0.1 259.35 0.0 Q267.0 0.0 267.0 8.0 L267.0 192.85 Q267.0 200.85 259.35 200.85 L0.45 200.95" fill="none" stroke="#015287" stroke-linecap="round" stroke-linejoin="round" stroke-width="2.0"/>
  </g>
</svg>
