<?xml version="1.0" encoding="UTF-8" standalone="no"?>
<svg xmlns:ffdec="https://www.free-decompiler.com/flash" xmlns:xlink="http://www.w3.org/1999/xlink" ffdec:objectType="shape" height="152.6px" width="268.3px" xmlns="http://www.w3.org/2000/svg">
  <g transform="matrix(1.0, 0.0, 0.0, 1.0, 0.55, -202.9)">
    <path d="M4.45 205.0 Q3.2 205.0 2.3 205.9 1.6 206.6 1.5 207.6 L1.45 208.0 1.45 350.3 Q1.45 351.6 2.3 352.5 3.2 353.45 4.45 353.45 L84.4 353.45 89.05 353.0 93.55 351.95 95.9 351.1 Q98.0 350.4 101.05 349.85 L106.3 349.4 160.7 349.4 166.0 350.0 Q169.0 350.65 171.1 351.55 L171.2 351.6 Q172.95 352.35 175.55 352.9 L180.05 353.45 262.75 353.45 Q264.0 353.45 264.85 352.5 265.75 351.6 265.75 350.3 L265.75 208.0 265.75 207.6 Q265.55 206.6 264.85 205.9 264.0 205.0 262.75 205.0 L4.45 205.0 M0.9 204.4 Q2.4 202.9 4.45 202.9 L262.75 202.9 Q264.8 202.9 266.3 204.4 267.6 205.75 267.75 207.6 L267.75 208.0 267.75 350.3 Q267.75 352.45 266.3 354.0 264.8 355.5 262.75 355.5 L180.05 355.5 175.15 354.95 Q172.3 354.35 170.45 353.55 L170.3 353.5 Q168.45 352.65 165.6 352.05 L160.7 351.45 106.3 351.45 101.35 351.95 Q98.5 352.4 96.55 353.05 L94.15 353.9 89.35 355.05 84.4 355.5 4.45 355.5 Q2.4 355.5 0.9 354.0 -0.55 352.45 -0.55 350.3 L-0.55 208.0 -0.5 207.6 Q-0.4 205.75 0.9 204.4" fill="#353434" fill-rule="evenodd" stroke="none"/>
    <path d="M4.45 205.0 L262.75 205.0 Q264.0 205.0 264.85 205.9 265.55 206.6 265.75 207.6 L265.75 208.0 265.75 350.3 Q265.75 351.6 264.85 352.5 264.0 353.45 262.75 353.45 L180.05 353.45 175.55 352.9 Q172.95 352.35 171.2 351.6 L171.1 351.55 Q169.0 350.65 166.0 350.0 L160.7 349.4 106.3 349.4 101.05 349.85 Q98.0 350.4 95.9 351.1 L93.55 351.95 89.05 353.0 84.4 353.45 4.45 353.45 Q3.2 353.45 2.3 352.5 1.45 351.6 1.45 350.3 L1.45 208.0 1.5 207.6 Q1.6 206.6 2.3 205.9 3.2 205.0 4.45 205.0" fill="#161719" fill-rule="evenodd" stroke="none"/>
  </g>
</svg>
