<?xml version="1.0" encoding="UTF-8" standalone="no"?>
<svg xmlns:ffdec="https://www.free-decompiler.com/flash" xmlns:xlink="http://www.w3.org/1999/xlink" ffdec:objectType="shape" height="27.0px" width="100.0px" xmlns="http://www.w3.org/2000/svg">
  <g transform="matrix(1.0, 0.0, 0.0, 1.0, 0.0, 0.0)">
    <path d="M99.1 4.2 L99.1 22.8 Q99.1 24.3 97.8 25.35 96.45 26.3 94.55 26.3 L5.45 26.3 Q3.55 26.3 2.25 25.35 0.9 24.3 0.9 22.8 L0.9 4.2 Q0.9 2.7 2.25 1.75 3.55 0.7 5.45 0.7 L94.55 0.7 Q96.45 0.7 97.8 1.75 99.1 2.7 99.1 4.2" fill="url(#gradient0)" fill-rule="evenodd" stroke="none"/>
    <path d="M94.55 0.0 Q96.85 0.0 98.4 1.25 100.0 2.45 100.0 4.2 L100.0 22.8 Q100.0 24.55 98.4 25.75 96.85 27.0 94.55 27.0 L5.45 27.0 Q3.2 27.0 1.65 25.75 0.0 24.55 0.0 22.8 L0.0 4.2 Q0.0 2.45 1.65 1.25 3.2 0.0 5.45 0.0 L94.55 0.0 M98.2 4.2 Q98.2 3.1 97.1 2.25 96.1 1.4 94.55 1.4 L5.45 1.4 Q4.0 1.4 2.95 2.25 1.85 3.1 1.85 4.2 L1.85 22.8 Q1.85 24.0 2.95 24.75 4.0 25.6 5.45 25.6 L94.55 25.6 Q96.1 25.6 97.1 24.75 98.2 24.0 98.2 22.8 L98.2 4.2" fill="#231602" fill-rule="evenodd" stroke="none"/>
  </g>
  <defs>
    <linearGradient gradientTransform="matrix(0.0, -0.0156, -0.0203, 0.0, 50.05, 13.45)" gradientUnits="userSpaceOnUse" id="gradient0" spreadMethod="pad" x1="-819.2" x2="819.2">
      <stop offset="0.0" stop-color="#8c3300" stop-opacity="0.8"/>
      <stop offset="1.0" stop-color="#d48a00" stop-opacity="0.8"/>
    </linearGradient>
  </defs>
</svg>
