<?xml version="1.0" encoding="UTF-8" standalone="no"?>
<svg xmlns:ffdec="https://www.free-decompiler.com/flash" xmlns:xlink="http://www.w3.org/1999/xlink" ffdec:objectType="shape" height="27.3px" width="11.8px" xmlns="http://www.w3.org/2000/svg">
  <g transform="matrix(1.0, 0.0, 0.0, 1.0, 0.5, 0.5)">
    <path d="M10.8 1.4 L10.8 24.9 Q10.8 26.3 9.4 26.3 L1.4 26.3 Q0.0 26.3 0.0 24.9 L0.0 1.4 Q0.0 0.0 1.4 0.0 L9.4 0.0 Q10.8 0.0 10.8 1.4" fill="#0c77e2" fill-rule="evenodd" stroke="none"/>
    <path d="M10.8 1.4 Q10.8 0.0 9.4 0.0 L1.4 0.0 Q0.0 0.0 0.0 1.4 L0.0 24.9 Q0.0 26.3 1.4 26.3 L9.4 26.3 Q10.8 26.3 10.8 24.9 L10.8 1.4 Z" fill="none" stroke="#0159b1" stroke-linecap="round" stroke-linejoin="round" stroke-width="1.0"/>
  </g>
</svg>
