<?xml version="1.0" encoding="UTF-8" standalone="no"?>
<svg xmlns:ffdec="https://www.free-decompiler.com/flash" xmlns:xlink="http://www.w3.org/1999/xlink" ffdec:objectType="shape" height="63.25px" width="62.95px" xmlns="http://www.w3.org/2000/svg">
  <g transform="matrix(1.0, 0.0, 0.0, 1.0, 3.35, 3.05)">
    <path d="M14.95 -3.05 L17.45 -0.6 38.85 -0.6 41.35 -3.05 53.4 -3.05 59.6 3.2 59.6 14.8 57.55 16.8 57.55 40.3 59.6 42.35 59.6 53.95 53.4 60.2 41.35 60.2 38.7 57.6 17.6 57.6 14.95 60.2 2.95 60.2 -3.35 53.95 -3.35 42.35 -2.2 41.15 -2.2 15.95 -3.35 14.8 -3.35 3.2 2.95 -3.05 14.95 -3.05" fill="#1e1e1e" fill-rule="evenodd" stroke="none"/>
    <path d="M4.9 -0.55 L-0.85 5.15 -0.85 15.85 0.25 16.95 0.25 40.1 -0.85 41.2 -0.85 51.9 4.9 57.65 16.0 57.65 18.4 55.25 37.85 55.25 40.3 57.65 51.35 57.65 57.05 51.9 57.05 41.2 55.2 39.35 55.2 17.7 57.05 15.85 57.05 5.15 51.35 -0.55 40.3 -0.55 37.95 1.7 18.3 1.7 16.0 -0.55 4.9 -0.55 Z" fill="none" stroke="#fef0bc" stroke-linecap="butt" stroke-linejoin="miter-clip" stroke-miterlimit="4.0" stroke-width="1.0"/>
    <path d="M5.45 50.95 L5.45 6.0 50.4 6.0 50.4 50.95 5.45 50.95" fill="#232323" fill-rule="evenodd" stroke="none"/>
    <path d="M5.95 50.45 L49.9 50.45 49.9 6.5 5.95 6.5 5.95 50.45 M50.9 51.45 L4.95 51.45 4.95 5.5 50.9 5.5 50.9 51.45" fill="#545453" fill-rule="evenodd" stroke="none"/>
    <path d="M44.75 46.15 L45.75 45.2 49.9 49.35 48.9 50.3 44.75 46.15" fill="#666668" fill-rule="evenodd" stroke="none"/>
    <path d="M10.45 45.2 L11.45 46.15 7.3 50.3 6.3 49.35 10.45 45.2" fill="#666668" fill-rule="evenodd" stroke="none"/>
    <path d="M49.9 7.65 L45.75 11.8 44.75 10.85 48.9 6.7 49.9 7.65" fill="#666668" fill-rule="evenodd" stroke="none"/>
    <path d="M10.45 11.8 L6.3 7.65 7.3 6.7 11.45 10.85 10.45 11.8" fill="#666668" fill-rule="evenodd" stroke="none"/>
    <path d="M47.35 23.1 L46.35 25.8 46.35 30.65 47.35 33.35 47.35 47.7 33.0 47.7 30.35 46.7 25.45 46.7 22.75 47.7 9.0 47.7 9.0 33.25 10.0 30.5 10.0 25.75 9.0 23.0 9.0 9.35 22.75 9.35 25.45 10.35 30.35 10.35 33.0 9.35 47.35 9.35 47.35 23.1" fill="#161616" fill-rule="evenodd" stroke="none"/>
    <path d="M47.35 23.1 L46.35 25.8 46.35 30.65 47.35 33.35 47.35 47.7 33.0 47.7 30.35 46.7 25.45 46.7 22.75 47.7 9.0 47.7 9.0 33.25 10.0 30.5 10.0 25.75 9.0 23.0 9.0 9.35 22.75 9.35 25.45 10.35 30.35 10.35 33.0 9.35 47.35 9.35 47.35 23.1 Z" fill="none" stroke="#0c0c0c" stroke-linecap="butt" stroke-linejoin="miter-clip" stroke-miterlimit="4.0" stroke-width="1.0"/>
    <path d="M46.5 2.1 L52.45 2.1 54.6 4.25 54.6 10.2 52.85 10.2 52.85 5.4 51.2 3.75 46.5 3.75 46.5 2.1 M9.6 2.1 L9.6 3.75 4.95 3.75 3.25 5.4 3.25 10.2 1.5 10.2 1.5 4.25 3.65 2.1 9.6 2.1 M52.85 46.9 L54.6 46.9 54.6 52.9 52.45 55.05 46.5 55.05 46.5 53.4 51.2 53.4 52.85 51.75 52.85 46.9 M3.25 46.9 L3.25 51.75 4.95 53.4 9.6 53.4 9.6 55.05 3.65 55.05 1.5 52.9 1.5 46.9 3.25 46.9" fill="#fedf67" fill-rule="evenodd" stroke="none"/>
  </g>
</svg>
