<?xml version="1.0" encoding="UTF-8" standalone="no"?>
<svg xmlns:ffdec="https://www.free-decompiler.com/flash" xmlns:xlink="http://www.w3.org/1999/xlink" ffdec:objectType="shape" height="97.75px" width="257.35px" xmlns="http://www.w3.org/2000/svg">
  <g transform="matrix(1.0, 0.0, 0.0, 1.0, -293.1, -3.75)">
    <path d="M548.85 5.2 Q548.3 4.65 547.45 4.65 L371.3 4.65 Q370.3 4.65 369.1 5.2 367.9 5.75 367.35 6.5 L359.9 15.8 357.4 17.65 Q355.75 18.4 354.3 18.4 L296.1 18.4 Q295.3 18.4 294.7 18.95 294.1 19.5 294.1 20.2 L294.1 98.75 Q294.1 99.5 294.7 100.0 295.3 100.55 296.1 100.55 L353.15 100.55 355.7 100.15 Q357.15 99.75 358.05 99.15 L361.8 96.75 Q362.9 96.05 364.65 95.6 L367.8 95.05 482.0 95.05 Q483.4 95.05 485.15 95.6 486.9 96.05 488.05 96.7 L492.05 99.2 Q493.0 99.75 494.45 100.15 L497.0 100.55 547.45 100.55 Q548.3 100.55 548.85 100.0 549.45 99.5 549.45 98.75 L549.45 6.5 Q549.45 5.75 548.85 5.2 M549.55 4.55 Q550.45 5.35 550.45 6.5 L550.45 98.75 Q550.45 99.9 549.55 100.65 548.7 101.5 547.45 101.5 L497.0 101.5 494.15 101.05 491.5 99.95 487.5 97.5 Q486.5 96.9 484.85 96.45 L482.0 96.0 367.8 96.0 364.95 96.45 Q363.35 96.9 362.35 97.55 L358.6 99.95 Q357.55 100.55 356.0 101.05 L353.15 101.5 296.1 101.5 Q294.85 101.5 294.0 100.65 293.1 99.9 293.1 98.75 L293.1 20.2 Q293.1 19.05 294.0 18.3 294.85 17.45 296.1 17.45 L354.3 17.45 Q355.55 17.45 356.95 16.85 358.35 16.2 359.05 15.25 L366.5 5.95 Q367.25 5.0 368.65 4.35 L371.3 3.75 547.45 3.75 Q548.7 3.75 549.55 4.55" fill="#0775a5" fill-rule="evenodd" stroke="none"/>
    <path d="M549.95 6.5 L549.95 98.75 Q549.95 99.65 549.2 100.35 548.45 101.05 547.45 101.05 L497.0 101.05 494.3 100.6 491.8 99.55 487.8 97.15 Q486.75 96.45 485.0 96.0 L482.0 95.55 367.8 95.55 364.85 96.05 Q363.15 96.5 362.05 97.2 L358.35 99.55 355.85 100.6 353.15 101.05 296.1 101.05 Q295.1 101.05 294.35 100.35 293.6 99.65 293.6 98.75 L293.6 20.25 Q293.6 19.25 294.35 18.65 295.1 17.95 296.1 17.95 L354.3 17.95 Q355.65 17.95 357.15 17.25 358.65 16.5 359.5 15.55 L366.95 6.2 Q367.6 5.4 368.9 4.8 370.15 4.2 371.3 4.2 L547.45 4.2 Q548.45 4.2 549.2 4.9 549.95 5.55 549.95 6.5" fill="url(#gradient0)" fill-rule="evenodd" stroke="none"/>
    <path d="M545.45 96.9 L495.55 96.9 486.55 91.4 363.25 91.4 354.6 96.9 298.1 96.9 298.1 22.05 359.85 22.05 370.85 8.35 545.45 8.35 545.45 96.9" fill="url(#gradient1)" fill-rule="evenodd" stroke="none"/>
  </g>
  <defs>
    <linearGradient gradientTransform="matrix(0.0, -0.0591, -0.0645, 0.0, 421.8, 52.6)" gradientUnits="userSpaceOnUse" id="gradient0" spreadMethod="pad" x1="-819.2" x2="819.2">
      <stop offset="0.0" stop-color="#005fc7"/>
      <stop offset="0.043137254901960784" stop-color="#0052ad"/>
      <stop offset="0.09803921568627451" stop-color="#004692"/>
      <stop offset="0.1607843137254902" stop-color="#003b7c"/>
      <stop offset="0.23529411764705882" stop-color="#00336b"/>
      <stop offset="0.32941176470588235" stop-color="#002d60"/>
      <stop offset="0.4588235294117647" stop-color="#002a59"/>
      <stop offset="0.8156862745098039" stop-color="#002957"/>
    </linearGradient>
    <linearGradient gradientTransform="matrix(0.0, -0.0541, -0.059, 0.0, 421.8, 52.6)" gradientUnits="userSpaceOnUse" id="gradient1" spreadMethod="pad" x1="-819.2" x2="819.2">
      <stop offset="0.0" stop-color="#053363"/>
      <stop offset="0.058823529411764705" stop-color="#042a56"/>
      <stop offset="0.17647058823529413" stop-color="#021e45"/>
      <stop offset="0.3215686274509804" stop-color="#011539"/>
      <stop offset="0.5137254901960784" stop-color="#001032"/>
      <stop offset="1.0" stop-color="#000f30"/>
    </linearGradient>
  </defs>
</svg>
