<?xml version="1.0" encoding="UTF-8" standalone="no"?>
<svg xmlns:ffdec="https://www.free-decompiler.com/flash" xmlns:xlink="http://www.w3.org/1999/xlink" ffdec:objectType="shape" height="517.3px" width="675.05px" xmlns="http://www.w3.org/2000/svg">
  <g transform="matrix(1.0, 0.0, 0.0, 1.0, 338.0, 271.6)">
    <path d="M335.6 -245.65 Q337.05 -244.15 337.05 -242.1 L337.05 -158.8 Q337.05 -156.75 336.4 -153.95 335.75 -151.2 334.8 -149.35 L334.1 -148.0 Q333.2 -146.1 332.55 -143.35 331.9 -140.55 331.9 -138.5 L331.9 138.7 Q331.9 140.8 332.6 143.55 333.3 146.3 334.3 148.1 L334.6 148.6 Q335.6 150.45 336.35 153.2 337.05 155.95 337.05 158.0 L337.05 240.7 Q337.05 242.75 335.6 244.25 334.1 245.7 332.05 245.7 L-333.0 245.7 Q-335.05 245.7 -336.55 244.25 -338.0 242.75 -338.0 240.7 L-338.0 158.0 Q-338.0 155.9 -337.1 153.3 -336.2 150.65 -334.95 149.05 L-333.95 147.7 Q-332.7 146.05 -331.8 143.4 -330.9 140.8 -330.9 138.7 L-330.9 -138.5 Q-330.9 -140.6 -331.7 -143.25 -332.55 -145.95 -333.75 -147.6 L-335.15 -149.7 Q-336.35 -151.35 -337.15 -154.05 -338.0 -156.7 -338.0 -158.8 L-338.0 -242.1 Q-338.0 -244.15 -336.55 -245.65 -335.05 -247.1 -333.0 -247.1 L332.05 -247.1 Q334.1 -247.1 335.6 -245.65" fill="url(#gradient0)" fill-rule="evenodd" stroke="none"/>
    <path d="M145.9 -249.0 Q147.15 -249.0 147.35 -248.4 147.6 -247.75 146.7 -246.9 L138.9 -239.45 Q138.05 -238.6 136.5 -237.95 L133.75 -237.35 30.35 -237.35 Q29.1 -237.35 27.85 -236.8 26.65 -236.3 26.1 -235.55 25.6 -234.8 24.35 -234.25 23.1 -233.75 21.85 -233.75 L-21.6 -233.75 Q-22.85 -233.75 -24.1 -234.25 -25.4 -234.8 -25.95 -235.55 -26.5 -236.3 -27.8 -236.8 -29.1 -237.35 -30.35 -237.35 L-134.2 -237.35 -136.95 -237.95 Q-138.45 -238.55 -139.4 -239.4 L-147.65 -246.95 Q-148.6 -247.8 -148.35 -248.4 -148.1 -249.0 -146.85 -249.0 L145.9 -249.0" fill="#333333" fill-rule="evenodd" stroke="none"/>
    <path d="M24.1 -271.6 Q25.45 -271.6 27.15 -271.0 28.9 -270.4 29.95 -269.55 L31.3 -268.45 Q32.4 -267.65 32.65 -266.2 32.95 -264.8 32.25 -263.6 L19.45 -240.55 Q18.8 -239.35 17.4 -238.55 15.95 -237.7 14.6 -237.7 L-16.7 -237.7 Q-18.05 -237.7 -19.45 -238.6 -20.9 -239.4 -21.5 -240.6 L-33.35 -263.55 Q-33.95 -264.75 -33.7 -266.25 -33.5 -267.8 -32.5 -268.75 L-32.0 -269.25 Q-31.05 -270.25 -29.4 -270.9 -27.75 -271.6 -26.4 -271.6 L24.1 -271.6" fill="url(#gradient1)" fill-rule="evenodd" stroke="none"/>
    <path d="M21.6 -268.55 Q23.2 -267.9 24.15 -266.9 L24.75 -266.35 Q25.65 -265.45 25.9 -263.9 26.1 -262.45 25.45 -261.25 L15.85 -243.95 Q15.2 -242.75 13.7 -241.9 12.3 -241.05 10.95 -241.05 L10.45 -241.05 Q7.15 -241.05 6.2 -241.65 5.1 -242.25 1.9 -242.25 L-3.45 -242.25 Q-6.75 -242.25 -7.7 -241.65 -8.0 -241.4 -9.25 -241.2 L-11.8 -241.05 -12.8 -241.05 Q-14.15 -241.05 -15.6 -241.9 -17.0 -242.8 -17.6 -244.0 L-26.5 -261.2 Q-27.1 -262.4 -26.95 -263.95 -26.85 -265.6 -25.95 -266.65 L-25.9 -266.7 Q-25.1 -267.75 -23.5 -268.45 -21.95 -269.2 -20.6 -269.2 L-17.9 -269.2 -13.1 -268.55 Q-11.45 -267.9 -8.35 -267.9 L8.0 -267.9 Q11.1 -267.9 12.65 -268.55 L17.3 -269.2 18.6 -269.2 21.6 -268.55" fill="#2b2b2a" fill-rule="evenodd" stroke="none"/>
    <path d="M-14.55 -246.2 L-22.3 -261.1 Q-22.75 -261.9 -22.6 -262.95 -22.4 -263.95 -21.75 -264.55 L-21.5 -264.85 Q-20.85 -265.5 -19.75 -265.95 -18.6 -266.45 -17.7 -266.45 L15.2 -266.45 17.2 -266.0 19.05 -265.05 19.9 -264.4 Q20.6 -263.85 20.8 -262.9 21.0 -261.9 20.55 -261.15 L12.25 -246.2 Q11.8 -245.35 10.85 -244.8 9.9 -244.25 8.95 -244.25 L-11.4 -244.25 Q-12.25 -244.25 -13.2 -244.8 L-14.55 -246.2" fill="#113ebc" fill-rule="evenodd" stroke="none"/>
    <path d="M19.05 -265.05 L17.2 -266.0 15.2 -266.45 -17.7 -266.45 Q-18.6 -266.45 -19.75 -265.95 -20.85 -265.5 -21.5 -264.85 L-21.75 -264.55 Q-22.4 -263.95 -22.6 -262.95 -22.75 -261.9 -22.3 -261.1 L-14.55 -246.2 -13.2 -244.8 Q-12.25 -244.25 -11.4 -244.25 L8.95 -244.25 Q9.9 -244.25 10.85 -244.8 11.8 -245.35 12.25 -246.2 L20.55 -261.15 Q21.0 -261.9 20.8 -262.9 20.6 -263.85 19.9 -264.4 L19.05 -265.05 Z" fill="none" stroke="#03133f" stroke-linecap="butt" stroke-linejoin="miter-clip" stroke-miterlimit="4.0" stroke-width="1.0"/>
    <path d="M-45.65 -238.1 L-42.4 -237.85 Q-40.0 -239.25 -32.95 -241.55 -31.0 -242.15 -32.15 -244.25 -33.25 -246.3 -35.8 -245.5 -44.55 -242.55 -48.1 -239.55 -48.4 -238.75 -45.65 -238.1" fill="url(#gradient2)" fill-rule="evenodd" stroke="none"/>
    <path d="M44.7 -238.1 L41.45 -237.85 Q39.05 -239.25 32.0 -241.55 30.05 -242.15 31.2 -244.25 32.3 -246.3 34.85 -245.5 43.6 -242.55 47.15 -239.55 47.45 -238.75 44.7 -238.1" fill="url(#gradient3)" fill-rule="evenodd" stroke="none"/>
    <path d="M32.0 -255.45 L34.5 -253.9 35.8 -248.75 30.5 -239.9 25.35 -238.55 22.85 -240.05 32.0 -255.45" fill="url(#gradient4)" fill-rule="evenodd" stroke="none"/>
    <path d="M37.4 -245.8 L34.0 -240.0 31.45 -241.5 34.8 -247.25 37.4 -245.8" fill="#333333" fill-rule="evenodd" stroke="none"/>
    <path d="M-33.85 -255.45 L-36.35 -253.9 -37.65 -248.75 -32.35 -239.9 -27.2 -238.55 -24.65 -240.05 -33.85 -255.45" fill="url(#gradient5)" fill-rule="evenodd" stroke="none"/>
    <path d="M-39.25 -245.8 L-35.85 -240.0 -33.3 -241.5 -36.65 -247.25 Q-37.95 -246.45 -39.25 -245.8" fill="#333333" fill-rule="evenodd" stroke="none"/>
    <path d="M-154.95 -230.55 L-307.55 -230.55 -307.55 -231.75 -152.65 -231.75 -145.1 -224.15 -148.55 -224.15 -154.95 -230.55" fill="#30363d" fill-rule="evenodd" stroke="none"/>
    <path d="M-146.8 -231.75 L-139.3 -224.15 -142.7 -224.15 -150.3 -231.75 -146.8 -231.75" fill="#30363d" fill-rule="evenodd" stroke="none"/>
    <path d="M-141.0 -231.75 L-133.45 -224.15 -136.9 -224.15 -144.5 -231.75 -141.0 -231.75" fill="#30363d" fill-rule="evenodd" stroke="none"/>
    <path d="M-135.15 -231.75 L-127.65 -224.15 -131.05 -224.15 -138.65 -231.75 -135.15 -231.75" fill="#30363d" fill-rule="evenodd" stroke="none"/>
    <path d="M153.15 -230.55 L305.75 -230.55 305.75 -231.75 150.85 -231.75 143.3 -224.15 146.75 -224.15 153.15 -230.55" fill="#30363d" fill-rule="evenodd" stroke="none"/>
    <path d="M145.0 -231.75 L137.5 -224.15 140.9 -224.15 148.5 -231.75 145.0 -231.75" fill="#30363d" fill-rule="evenodd" stroke="none"/>
    <path d="M139.2 -231.75 L131.65 -224.15 135.1 -224.15 142.7 -231.75 139.2 -231.75" fill="#30363d" fill-rule="evenodd" stroke="none"/>
    <path d="M133.35 -231.75 L125.85 -224.15 129.25 -224.15 136.85 -231.75 133.35 -231.75" fill="#30363d" fill-rule="evenodd" stroke="none"/>
    <path d="M323.15 -219.15 L323.15 231.3 Q323.15 233.35 321.7 234.85 320.2 236.3 318.15 236.3 L-319.1 236.3 Q-321.15 236.3 -322.65 234.85 -324.1 233.35 -324.1 231.3 L-324.1 -219.15 Q-324.1 -221.2 -322.65 -222.7 -321.15 -224.15 -319.1 -224.15 L-234.35 -224.15 -229.8 -223.55 Q-227.25 -222.95 -225.85 -222.15 -224.4 -221.3 -221.9 -220.75 L-217.35 -220.15 217.15 -220.15 221.65 -220.75 Q224.05 -221.3 225.4 -222.15 226.75 -222.95 229.15 -223.55 L233.65 -224.15 318.15 -224.15 Q320.2 -224.15 321.7 -222.7 323.15 -221.2 323.15 -219.15" fill="#292a2b" fill-rule="evenodd" stroke="none"/>
    <path d="M317.65 -213.1 L317.65 226.25 Q317.65 228.3 316.2 229.8 314.7 231.25 312.65 231.25 L-313.6 231.25 Q-315.65 231.25 -317.15 229.8 -318.6 228.3 -318.6 226.25 L-318.6 -213.1 Q-318.6 -215.15 -317.15 -216.65 -315.65 -218.1 -313.6 -218.1 L312.65 -218.1 Q314.7 -218.1 316.2 -216.65 317.65 -215.15 317.65 -213.1" fill="#161719" fill-rule="evenodd" stroke="none"/>
    <path d="M316.75 -216.7 Q317.65 -215.85 317.65 -214.6 L317.65 228.25 Q317.65 229.5 316.75 230.35 315.9 231.25 314.65 231.25 L-315.65 231.25 Q-316.9 231.25 -317.75 230.35 -318.65 229.5 -318.65 228.25 L-318.65 -214.6 Q-318.65 -215.85 -317.75 -216.7 -316.9 -217.6 -315.65 -217.6 L314.65 -217.6 Q315.9 -217.6 316.75 -216.7 Z" fill="none" stroke="#555555" stroke-linecap="butt" stroke-linejoin="miter-clip" stroke-miterlimit="4.0" stroke-width="1.0"/>
    <path d="M202.25 245.7 Q201.0 245.7 200.75 245.1 200.5 244.45 201.4 243.6 L205.9 239.35 Q206.8 238.5 208.3 237.9 209.8 237.3 211.05 237.3 L226.85 237.3 229.3 236.8 Q230.5 236.35 231.0 235.65 231.45 235.0 232.65 234.55 233.9 234.05 235.1 234.05 L271.25 234.05 Q272.45 234.05 273.75 234.55 274.95 235.0 275.5 235.65 276.0 236.35 277.25 236.8 L279.7 237.3 293.9 237.3 296.7 237.9 Q298.2 238.5 299.15 239.3 L304.0 243.7 Q304.95 244.55 304.7 245.1 304.5 245.7 303.25 245.7 L202.25 245.7" fill="#1e1e1e" fill-rule="evenodd" stroke="none"/>
    <path d="M185.9 239.3 L190.75 243.7 Q191.7 244.55 191.45 245.1 191.25 245.7 190.0 245.7 L89.0 245.7 Q87.75 245.7 87.5 245.1 87.25 244.45 88.15 243.6 L92.65 239.35 Q93.55 238.5 95.05 237.9 96.55 237.3 97.8 237.3 L113.6 237.3 116.05 236.8 Q117.25 236.35 117.75 235.65 118.2 235.0 119.4 234.55 120.65 234.05 121.85 234.05 L158.0 234.05 Q159.2 234.05 160.5 234.55 161.7 235.0 162.25 235.65 L164.0 236.8 166.45 237.3 180.65 237.3 Q181.9 237.3 183.45 237.9 184.95 238.5 185.9 239.3" fill="#1e1e1e" fill-rule="evenodd" stroke="none"/>
    <path d="M3.55 -263.4 L3.65 -262.95 3.55 -262.3 3.25 -262.35 Q3.0 -262.5 3.05 -263.35 L3.55 -263.4 M0.2 -263.1 L0.2 -263.15 0.75 -263.25 0.75 -263.15 0.85 -262.35 0.35 -262.2 Q0.1 -262.3 0.2 -263.1 M5.7 -263.55 L5.8 -262.45 5.75 -262.3 5.45 -262.3 5.25 -263.5 5.7 -263.55 M8.6 -261.6 L7.8 -261.8 7.8 -262.05 8.6 -262.15 8.65 -261.6 8.6 -261.6 M8.2 -260.35 L8.8 -260.45 8.85 -259.9 8.1 -260.1 8.2 -260.35 M8.25 -258.2 L8.3 -258.55 8.95 -258.75 9.05 -258.0 8.25 -258.2 M8.3 -256.35 L8.35 -256.55 9.2 -256.8 9.35 -256.15 9.25 -256.15 8.85 -256.1 8.3 -256.35 M9.45 -254.4 L9.55 -253.8 8.45 -253.95 8.55 -254.35 9.45 -254.4 M2.75 -248.05 L3.1 -248.2 3.25 -247.45 3.2 -247.0 2.75 -246.95 Q2.55 -247.3 2.6 -247.9 L2.75 -248.05 M0.45 -247.8 L0.9 -247.95 1.05 -246.9 0.6 -246.85 0.55 -247.2 0.45 -247.8 M8.7 -252.05 L8.75 -252.3 9.7 -252.5 9.75 -252.1 8.7 -252.05 M7.15 -248.25 L7.4 -248.35 7.45 -247.2 6.9 -247.15 6.9 -248.1 7.15 -248.25 M8.85 -250.15 L8.95 -250.45 Q9.1 -250.7 9.85 -250.85 L9.95 -249.9 Q9.5 -249.85 8.85 -250.15 M5.25 -247.95 L5.55 -247.1 5.0 -247.05 4.95 -247.25 4.8 -248.15 Q5.2 -248.25 5.25 -247.95 M-9.3 -261.65 Q-9.4 -261.45 -9.55 -261.5 L-9.85 -262.25 -9.35 -262.3 -9.3 -261.65 M-6.75 -262.5 L-6.65 -262.1 -6.8 -261.7 -7.0 -261.75 Q-7.2 -261.8 -7.2 -262.45 L-6.75 -262.5 M-4.4 -261.8 L-4.6 -261.75 -4.8 -262.7 -4.45 -262.7 -4.4 -261.8 M-2.15 -261.9 L-2.45 -262.9 -1.9 -262.95 -1.95 -261.9 -2.15 -261.9 M-11.45 -259.65 L-11.45 -259.1 -12.35 -259.05 -12.45 -259.65 -11.45 -259.65 M-11.0 -256.35 L-11.05 -255.75 -11.9 -255.7 -12.0 -256.25 -11.0 -256.35 M-11.6 -253.25 L-10.6 -253.3 -10.7 -252.65 -11.5 -252.5 -11.6 -253.25 M-10.35 -249.55 L-11.05 -249.4 -11.15 -250.15 -10.35 -250.1 -10.35 -249.55 M-7.0 -246.5 L-7.1 -247.25 -7.0 -247.3 -6.65 -247.35 -6.65 -246.5 -7.0 -246.5 M-4.3 -246.65 L-4.65 -246.6 -4.8 -246.9 -4.8 -247.45 -4.75 -247.5 Q-4.45 -247.45 -4.35 -247.7 L-4.3 -246.65 M-2.1 -247.6 Q-1.8 -247.6 -1.75 -247.75 L-1.7 -246.75 -2.1 -246.75 -2.25 -247.5 -2.1 -247.6 M-9.1 -246.4 L-9.2 -247.2 -9.05 -247.2 -8.7 -247.2 -8.65 -246.4 -9.1 -246.4" fill="#3b90ed" fill-rule="evenodd" stroke="none"/>
    <path d="M9.5 -248.2 L-10.75 -247.0 -12.0 -261.9 8.1 -263.05 9.5 -248.2" fill="#024aa0" fill-rule="evenodd" stroke="none"/>
    <path d="M4.15 -259.7 L5.05 -252.05 -5.55 -251.25 -6.25 -258.9 4.15 -259.7" fill="#4fd9ff" fill-rule="evenodd" stroke="none"/>
    <path d="M7.45 -262.1 L8.1 -252.95 Q8.45 -249.4 8.2 -248.65 L-0.6 -248.35 -4.15 -248.3 -9.75 -248.05 -10.65 -256.6 -10.9 -260.95 -1.5 -261.65 4.6 -262.0 7.45 -262.1 M6.7 -261.65 L-10.3 -260.45 -9.05 -248.75 7.6 -249.4 6.7 -261.65" fill="#0295d2" fill-rule="evenodd" stroke="none"/>
  </g>
  <defs>
    <linearGradient gradientTransform="matrix(0.0, -0.3008, -0.3008, 0.0, -0.5, -0.7)" gradientUnits="userSpaceOnUse" id="gradient0" spreadMethod="pad" x1="-819.2" x2="819.2">
      <stop offset="0.0" stop-color="#373737"/>
      <stop offset="0.17254901960784313" stop-color="#656565"/>
      <stop offset="0.35294117647058826" stop-color="#6c6c6c"/>
      <stop offset="0.615686274509804" stop-color="#808080"/>
      <stop offset="0.9333333333333333" stop-color="#a1a1a1"/>
      <stop offset="0.9607843137254902" stop-color="#a4a4a4"/>
      <stop offset="1.0" stop-color="#373737"/>
    </linearGradient>
    <linearGradient gradientTransform="matrix(0.0, -0.0207, 0.0207, 0.0, -0.55, -254.65)" gradientUnits="userSpaceOnUse" id="gradient1" spreadMethod="pad" x1="-819.2" x2="819.2">
      <stop offset="0.0" stop-color="#373737"/>
      <stop offset="0.6549019607843137" stop-color="#a4a4a4"/>
      <stop offset="0.803921568627451" stop-color="#a4a4a4"/>
      <stop offset="1.0" stop-color="#6b6b6b"/>
    </linearGradient>
    <linearGradient gradientTransform="matrix(0.0016, 0.004, 0.0094, -0.0039, -74.15, -227.05)" gradientUnits="userSpaceOnUse" id="gradient2" spreadMethod="pad" x1="-819.2" x2="819.2">
      <stop offset="0.0" stop-color="#505050"/>
      <stop offset="0.09803921568627451" stop-color="#373737"/>
      <stop offset="0.5254901960784314" stop-color="#6e6861"/>
      <stop offset="0.8862745098039215" stop-color="#3d3d3d"/>
      <stop offset="1.0" stop-color="#505050"/>
    </linearGradient>
    <linearGradient gradientTransform="matrix(-0.0016, 0.004, -0.0094, -0.0039, 73.2, -227.05)" gradientUnits="userSpaceOnUse" id="gradient3" spreadMethod="pad" x1="-819.2" x2="819.2">
      <stop offset="0.0" stop-color="#505050"/>
      <stop offset="0.09803921568627451" stop-color="#373737"/>
      <stop offset="0.5254901960784314" stop-color="#6e6861"/>
      <stop offset="0.8862745098039215" stop-color="#3d3d3d"/>
      <stop offset="1.0" stop-color="#505050"/>
    </linearGradient>
    <linearGradient gradientTransform="matrix(-0.0053, 0.0096, 0.0096, 0.0053, 30.25, -246.1)" gradientUnits="userSpaceOnUse" id="gradient4" spreadMethod="pad" x1="-819.2" x2="819.2">
      <stop offset="0.0" stop-color="#505050"/>
      <stop offset="0.09803921568627451" stop-color="#373737"/>
      <stop offset="0.5254901960784314" stop-color="#6e6963"/>
      <stop offset="0.8862745098039215" stop-color="#3d3d3d"/>
      <stop offset="1.0" stop-color="#505050"/>
    </linearGradient>
    <linearGradient gradientTransform="matrix(0.0053, 0.0096, -0.0096, 0.0053, -32.1, -246.1)" gradientUnits="userSpaceOnUse" id="gradient5" spreadMethod="pad" x1="-819.2" x2="819.2">
      <stop offset="0.0" stop-color="#505050"/>
      <stop offset="0.09803921568627451" stop-color="#373737"/>
      <stop offset="0.5254901960784314" stop-color="#6e6963"/>
      <stop offset="0.8862745098039215" stop-color="#3d3d3d"/>
      <stop offset="1.0" stop-color="#505050"/>
    </linearGradient>
  </defs>
</svg>
