<?xml version="1.0" encoding="UTF-8" standalone="no"?>
<svg xmlns:ffdec="https://www.free-decompiler.com/flash" xmlns:xlink="http://www.w3.org/1999/xlink" ffdec:objectType="shape" height="106.35px" width="598.45px" xmlns="http://www.w3.org/2000/svg">
  <g transform="matrix(1.0, 0.0, 0.0, 1.0, 315.75, -120.6)">
    <path d="M282.7 226.95 L191.25 226.95 195.25 221.7 279.05 221.7 282.7 226.95" fill="#1e1e1e" fill-rule="evenodd" stroke="none"/>
    <path d="M281.45 120.6 L192.5 120.6 196.4 125.85 277.9 125.85 281.45 120.6" fill="#1e1e1e" fill-rule="evenodd" stroke="none"/>
    <path d="M-307.25 193.7 L-315.25 198.3 -315.25 148.4 -307.25 153.3 -307.25 193.7" fill="#0f0f0f" fill-rule="evenodd" stroke="none"/>
    <path d="M-307.25 193.7 L-315.25 198.3 -315.25 148.4 -307.25 153.3 -307.25 193.7 Z" fill="none" stroke="#262421" stroke-linecap="butt" stroke-linejoin="miter-clip" stroke-miterlimit="4.0" stroke-width="1.0"/>
    <path d="M-310.55 171.15 L-311.9 171.15 -311.9 155.5 -310.55 156.4 -310.55 171.15" fill="#267dff" fill-rule="evenodd" stroke="none"/>
    <path d="M-310.55 190.55 L-311.9 191.4 -311.9 175.2 -310.55 175.2 -310.55 190.55" fill="#267dff" fill-rule="evenodd" stroke="none"/>
  </g>
</svg>
