<?xml version="1.0" encoding="UTF-8" standalone="no"?>
<svg xmlns:ffdec="https://www.free-decompiler.com/flash" xmlns:xlink="http://www.w3.org/1999/xlink" ffdec:objectType="shape" height="94.55px" width="504.7px" xmlns="http://www.w3.org/2000/svg">
  <g transform="matrix(1.0, 0.0, 0.0, 1.0, 0.0, 0.0)">
    <path d="M0.0 3.0 Q0.0 1.75 0.9 0.9 1.75 0.0 3.0 0.0 L464.35 0.0 Q465.6 0.0 466.45 0.9 467.35 1.75 467.35 3.0 L467.35 41.85 Q467.35 43.1 468.25 43.95 469.1 44.85 470.35 44.85 L501.7 44.85 Q502.95 44.85 503.8 45.5 504.7 46.15 504.7 47.1 504.7 48.05 503.8 48.7 502.95 49.35 501.7 49.35 L470.35 49.35 Q469.1 49.35 468.25 50.25 467.35 51.1 467.35 52.35 L467.35 91.55 Q467.35 92.8 466.45 93.65 465.6 94.55 464.35 94.55 L3.0 94.55 Q1.75 94.55 0.9 93.65 0.0 92.8 0.0 91.55 L0.0 3.0" fill="url(#gradient0)" fill-rule="evenodd" stroke="none"/>
  </g>
  <defs>
    <linearGradient gradientTransform="matrix(0.308, 0.0, 0.0, -0.308, 252.35, 47.25)" gradientUnits="userSpaceOnUse" id="gradient0" spreadMethod="pad" x1="-819.2" x2="819.2">
      <stop offset="0.0" stop-color="#050d1f"/>
      <stop offset="0.5411764705882353" stop-color="#001c4a"/>
      <stop offset="1.0" stop-color="#050d1f"/>
    </linearGradient>
  </defs>
</svg>
