<?xml version="1.0" encoding="UTF-8" standalone="no"?>
<svg xmlns:ffdec="https://www.free-decompiler.com/flash" xmlns:xlink="http://www.w3.org/1999/xlink" ffdec:objectType="shape" height="50.5px" width="59.85px" xmlns="http://www.w3.org/2000/svg">
  <g transform="matrix(1.0, 0.0, 0.0, 1.0, 0.0, 0.0)">
    <path d="M53.45 22.5 Q45.65 28.6 30.0 31.3 19.05 33.2 9.15 41.6 4.2 45.85 1.4 49.65 0.7 50.65 0.3 50.5 -0.15 50.35 0.05 49.1 L5.35 7.65 Q5.5 6.45 6.3 5.0 7.05 3.55 8.0 2.75 L8.95 1.95 Q9.9 1.15 11.45 0.55 12.95 0.0 14.2 0.0 L52.0 0.0 Q53.25 0.0 54.75 0.6 56.3 1.2 57.2 2.05 L58.0 2.8 Q58.9 3.65 59.45 5.15 59.95 6.6 59.8 7.85 L59.35 11.15 Q58.95 14.3 58.1 17.0 57.35 19.5 53.45 22.5" fill="url(#gradient0)" fill-rule="evenodd" stroke="none"/>
  </g>
  <defs>
    <linearGradient gradientTransform="matrix(0.0102, 0.0252, 0.0266, -0.007, 26.95, 17.45)" gradientUnits="userSpaceOnUse" id="gradient0" spreadMethod="pad" x1="-819.2" x2="819.2">
      <stop offset="0.0" stop-color="#91ffff"/>
      <stop offset="0.20784313725490197" stop-color="#73eefc" stop-opacity="0.8039216"/>
      <stop offset="0.5647058823529412" stop-color="#44d5f8" stop-opacity="0.5058824"/>
      <stop offset="0.8431372549019608" stop-color="#27c5f6" stop-opacity="0.31764707"/>
      <stop offset="1.0" stop-color="#1cbff5" stop-opacity="0.24705882"/>
    </linearGradient>
  </defs>
</svg>
