<?xml version="1.0" encoding="UTF-8" standalone="no"?>
<svg xmlns:ffdec="https://www.free-decompiler.com/flash" xmlns:xlink="http://www.w3.org/1999/xlink" ffdec:objectType="shape" height="58.6px" width="53.4px" xmlns="http://www.w3.org/2000/svg">
  <g transform="matrix(1.0, 0.0, 0.0, 1.0, -7.1, -6.45)">
    <path d="M48.95 57.15 Q41.75 63.55 32.7 63.55 L28.0 63.05 Q23.15 62.0 19.1 59.0 15.1 56.05 12.45 51.45 9.8 46.8 9.0 41.4 8.2 36.0 9.4 30.55 11.45 20.75 18.7 14.35 25.9 7.95 34.95 7.95 L39.65 8.45 Q49.75 10.6 55.2 20.15 60.65 29.65 58.25 40.95 56.15 50.8 48.95 57.15" fill="#00187c" fill-rule="evenodd" stroke="none"/>
    <path d="M56.45 19.3 Q62.25 29.3 59.75 41.25 57.5 51.7 49.8 58.4 42.15 65.05 32.7 65.05 L27.7 64.5 Q16.95 62.2 11.15 52.15 5.35 42.1 7.9 30.2 10.15 19.8 17.85 13.1 25.45 6.45 34.95 6.45 L39.95 6.95 Q50.65 9.25 56.45 19.3 M48.0 56.0 Q54.8 49.95 56.8 40.65 59.1 29.95 53.95 20.95 48.85 11.95 39.3 9.9 L34.95 9.45 Q26.45 9.45 19.65 15.5 12.85 21.55 10.85 30.85 9.75 36.05 10.5 41.2 11.25 46.3 13.75 50.7 16.25 55.0 20.0 57.8 23.75 60.6 28.3 61.55 L32.7 62.05 Q41.2 62.05 48.0 56.0" fill="#03467c" fill-rule="evenodd" stroke="none"/>
  </g>
</svg>
