<?xml version="1.0" encoding="UTF-8" standalone="no"?>
<svg xmlns:ffdec="https://www.free-decompiler.com/flash" xmlns:xlink="http://www.w3.org/1999/xlink" ffdec:objectType="shape" height="44.1px" width="40.05px" xmlns="http://www.w3.org/2000/svg">
  <g transform="matrix(1.0, 0.0, 0.0, 1.0, 0.05, 0.0)">
    <path d="M32.3 36.05 L33.65 37.45 Q27.85 43.75 19.85 44.1 11.8 44.4 6.05 38.55 2.85 35.3 1.2 30.55 L3.1 29.9 Q4.55 34.05 7.4 37.0 12.6 42.25 19.85 41.95 27.05 41.65 32.3 36.05" fill="url(#gradient0)" fill-rule="evenodd" stroke="none"/>
    <path d="M23.6 2.35 Q19.1 1.6 14.8 3.2 10.25 4.9 7.0 8.8 3.7 12.7 2.55 17.75 1.35 22.65 2.4 27.5 L0.55 28.15 Q-0.65 22.8 0.65 17.35 1.95 11.7 5.6 7.4 9.25 3.05 14.25 1.2 19.15 -0.6 24.1 0.3 L23.6 2.35" fill="url(#gradient1)" fill-rule="evenodd" stroke="none"/>
    <path d="M35.25 35.55 L33.85 34.15 Q38.4 27.95 38.05 20.15 37.7 12.35 32.6 7.1 29.65 4.15 25.8 2.9 L26.3 0.8 Q30.7 2.25 33.9 5.5 39.6 11.3 40.0 20.0 40.35 28.7 35.25 35.55" fill="url(#gradient2)" fill-rule="evenodd" stroke="none"/>
  </g>
  <defs>
    <linearGradient gradientTransform="matrix(0.0198, 0.0042, 0.0044, -0.0209, 16.55, 38.3)" gradientUnits="userSpaceOnUse" id="gradient0" spreadMethod="pad" x1="-819.2" x2="819.2">
      <stop offset="0.0" stop-color="#2ea3ff"/>
      <stop offset="1.0" stop-color="#5cc740" stop-opacity="0.1764706"/>
    </linearGradient>
    <linearGradient gradientTransform="matrix(0.0116, 0.0025, 0.0026, -0.0122, 11.25, 14.0)" gradientUnits="userSpaceOnUse" id="gradient1" spreadMethod="pad" x1="-819.2" x2="819.2">
      <stop offset="0.0" stop-color="#5cc740" stop-opacity="0.1764706"/>
      <stop offset="1.0" stop-color="#2ee6ff"/>
    </linearGradient>
    <linearGradient gradientTransform="matrix(0.0108, 0.0023, 0.0024, -0.0114, 31.8, 18.4)" gradientUnits="userSpaceOnUse" id="gradient2" spreadMethod="pad" x1="-819.2" x2="819.2">
      <stop offset="0.0" stop-color="#5cc740" stop-opacity="0.1764706"/>
      <stop offset="1.0" stop-color="#2ea3ff"/>
    </linearGradient>
  </defs>
</svg>
