<?xml version="1.0" encoding="UTF-8" standalone="no"?>
<svg xmlns:ffdec="https://www.free-decompiler.com/flash" xmlns:xlink="http://www.w3.org/1999/xlink" ffdec:objectType="shape" height="341.8px" width="383.25px" xmlns="http://www.w3.org/2000/svg">
  <g transform="matrix(1.0, 0.0, 0.0, 1.0, 33.25, 34.9)">
    <path d="M86.4 298.0 L85.85 298.05 85.4 297.65 85.3 297.1 85.65 296.65 86.25 296.55 Q86.6 296.65 86.75 296.9 L86.8 297.5 86.4 298.0 M69.45 290.75 L68.9 290.8 68.4 290.4 68.35 289.85 Q68.45 289.55 68.7 289.4 L69.3 289.3 69.75 289.65 69.85 290.25 69.45 290.75 M73.95 292.65 Q74.05 292.3 74.3 292.15 L74.9 292.1 75.35 292.5 75.4 293.05 75.05 293.5 74.45 293.6 74.0 293.25 73.95 292.65 M80.55 295.6 L79.95 295.7 79.5 295.3 79.45 294.75 Q79.55 294.4 79.8 294.25 L80.4 294.2 80.85 294.55 80.9 295.15 80.55 295.6 M89.1 291.85 L88.75 292.3 88.15 292.4 87.7 292.0 Q87.5 291.75 87.6 291.45 L88.0 290.95 88.55 290.9 89.05 291.25 89.1 291.85 M87.35 286.55 L86.8 286.6 86.3 286.2 86.25 285.65 Q86.35 285.35 86.6 285.2 L87.2 285.1 Q87.5 285.2 87.65 285.45 L87.75 286.05 87.35 286.55 M83.75 280.9 L83.7 280.3 Q83.8 280.0 84.05 279.85 L84.6 279.75 85.1 280.15 85.15 280.7 84.8 281.2 84.25 281.25 83.75 280.9 M80.7 275.65 L80.65 275.1 81.05 274.65 81.6 274.55 Q81.9 274.65 82.05 274.9 L82.15 275.5 81.8 276.0 81.2 276.05 80.7 275.65 M77.6 270.05 Q77.4 269.8 77.5 269.5 L77.9 269.05 78.45 268.95 Q78.75 269.05 78.95 269.3 L79.0 269.9 78.65 270.4 78.05 270.45 77.6 270.05 M58.8 282.4 L58.7 281.85 Q58.8 281.55 59.05 281.4 L59.65 281.3 Q60.0 281.4 60.15 281.65 L60.2 282.25 59.8 282.75 59.25 282.8 58.8 282.4 M64.7 286.55 L64.4 287.0 63.75 287.1 63.3 286.7 63.25 286.15 63.65 285.65 64.2 285.6 64.65 285.95 64.7 286.55 M56.1 277.45 L55.8 277.9 55.15 277.95 Q54.85 277.9 54.7 277.6 L54.65 277.0 Q54.7 276.7 55.0 276.55 L55.6 276.5 Q55.9 276.55 56.05 276.8 L56.1 277.45 M97.3 249.2 L96.95 249.7 96.35 249.75 95.9 249.35 95.8 248.8 96.2 248.35 96.75 248.25 Q97.1 248.35 97.25 248.6 L97.3 249.2 M83.1 260.25 L82.6 259.85 Q82.4 259.6 82.55 259.3 82.65 259.0 82.9 258.85 L83.45 258.75 84.0 259.1 84.0 259.7 83.65 260.2 83.1 260.25 M80.35 264.6 L80.0 265.05 79.4 265.15 78.95 264.8 78.9 264.2 79.25 263.7 79.85 263.65 80.3 264.05 80.35 264.6 M82.7 253.9 L82.6 253.25 83.0 252.8 83.55 252.75 84.05 253.15 84.1 253.7 83.75 254.15 83.15 254.2 82.7 253.9 M81.4 247.75 L81.5 248.35 81.1 248.8 80.55 248.85 Q80.2 248.8 80.05 248.55 L80.0 247.95 80.35 247.45 Q80.6 247.3 80.95 247.45 81.25 247.5 81.4 247.75 M81.15 243.45 L80.7 243.1 80.65 242.55 Q80.7 242.15 81.0 242.0 81.25 241.85 81.6 242.0 81.9 242.1 82.05 242.35 L82.1 242.9 81.8 243.35 81.15 243.45 M93.0 244.75 L92.45 244.8 91.95 244.4 91.9 243.85 Q92.0 243.55 92.25 243.4 L92.85 243.3 93.3 243.65 93.4 244.25 93.0 244.75 M98.65 245.25 L98.3 245.7 97.7 245.8 97.2 245.45 Q97.05 245.15 97.15 244.85 L97.55 244.35 98.1 244.3 98.55 244.7 98.65 245.25 M96.1 239.2 Q96.2 238.85 96.45 238.7 L97.0 238.65 Q97.4 238.75 97.55 239.0 L97.55 239.55 97.2 240.05 96.65 240.1 96.2 239.75 96.1 239.2 M91.5 228.95 L91.05 228.6 90.95 228.0 91.35 227.5 91.9 227.45 92.4 227.85 92.45 228.4 92.1 228.85 91.5 228.95 M94.55 234.35 L94.05 234.0 Q93.9 233.7 94.0 233.4 L94.4 232.9 94.95 232.85 95.4 233.25 95.5 233.8 95.15 234.25 94.55 234.35 M87.05 241.75 L86.6 241.35 86.5 240.8 86.9 240.35 87.45 240.25 87.95 240.6 88.0 241.2 87.65 241.7 87.05 241.75 M87.35 224.35 Q87.0 224.3 86.85 224.0 86.7 223.75 86.8 223.4 86.9 223.1 87.15 222.95 L87.75 222.9 Q88.05 222.95 88.2 223.2 L88.3 223.85 87.9 224.3 87.35 224.35 M83.7 219.5 L83.35 219.95 82.75 220.05 82.25 219.65 82.2 219.1 82.6 218.6 83.15 218.55 Q83.45 218.65 83.6 218.9 L83.7 219.5 M78.1 215.85 L77.55 215.95 77.05 215.55 76.7 215.2 76.6 214.65 77.0 214.2 77.55 214.1 78.05 214.45 78.4 214.8 78.5 215.4 78.1 215.85 M99.7 186.7 L99.4 187.15 98.75 187.2 98.3 186.8 98.25 186.25 Q98.3 185.95 98.6 185.8 L99.2 185.75 99.65 186.05 99.7 186.7 M92.9 185.6 L92.45 185.25 92.4 184.7 Q92.5 184.3 92.75 184.15 93.05 184.0 93.35 184.15 L93.8 184.5 93.85 185.05 93.5 185.5 92.9 185.6 M87.65 182.55 L87.2 182.15 87.1 181.6 Q87.2 181.3 87.45 181.15 L88.05 181.05 88.55 181.4 88.6 182.0 88.2 182.5 87.65 182.55 M83.4 178.35 L82.9 177.95 82.85 177.4 83.25 176.95 83.8 176.85 84.25 177.2 84.35 177.8 84.0 178.3 83.4 178.35 M80.85 172.9 L80.55 173.4 79.9 173.45 79.45 173.05 79.4 172.5 Q79.5 172.2 79.75 172.05 L80.35 171.95 Q80.65 172.05 80.8 172.3 L80.85 172.9 M68.9 186.25 L68.55 186.7 67.95 186.75 67.5 186.35 67.45 185.8 Q67.55 185.5 67.8 185.35 L68.4 185.3 68.85 185.6 68.9 186.25 M69.35 178.9 L69.9 178.85 70.35 179.15 70.45 179.8 70.1 180.25 69.5 180.3 69.0 179.9 68.95 179.35 69.35 178.9 M57.4 212.15 L57.05 212.5 56.45 212.55 56.45 212.65 56.05 213.15 55.5 213.2 55.0 212.85 54.95 212.25 Q55.05 211.95 55.3 211.8 L55.9 211.7 55.9 211.6 56.3 211.15 56.6 211.05 56.9 210.75 57.55 210.65 58.0 211.0 58.05 211.6 57.65 212.1 57.4 212.15 M60.45 210.25 L60.1 210.7 59.5 210.8 59.05 210.4 59.0 209.85 59.35 209.35 59.95 209.3 60.4 209.65 60.45 210.25 M52.0 215.55 L52.6 215.5 Q52.9 215.55 53.05 215.8 L53.15 216.45 52.75 216.9 52.2 216.95 51.7 216.55 51.65 216.0 Q51.75 215.7 52.0 215.55 M48.45 215.0 L48.15 215.45 47.55 215.55 47.1 215.15 47.05 214.6 47.4 214.1 47.95 214.05 Q48.3 214.15 48.45 214.4 L48.45 215.0 M72.3 211.5 L71.95 211.95 71.35 212.05 70.85 211.65 70.8 211.1 71.2 210.6 71.75 210.55 72.2 210.9 72.3 211.5 M78.0 213.1 L77.6 213.55 77.05 213.65 76.55 213.25 76.5 212.7 76.85 212.2 77.45 212.15 77.9 212.5 78.0 213.1 M75.75 207.4 L75.4 207.85 74.8 207.9 74.35 207.6 Q74.2 207.35 74.3 207.0 74.4 206.65 74.65 206.5 74.95 206.35 75.25 206.5 L75.7 206.85 75.75 207.4 M73.05 202.0 L72.75 202.45 72.1 202.5 71.65 202.2 71.6 201.55 71.95 201.1 72.55 201.05 73.0 201.4 73.05 202.0 M65.65 209.5 L65.2 209.15 65.1 208.55 65.5 208.1 66.05 208.05 Q66.4 208.15 66.55 208.4 L66.6 209.0 66.25 209.45 65.65 209.5 M62.45 193.2 Q62.55 192.9 62.8 192.75 L63.4 192.7 63.65 192.8 63.65 192.85 63.9 193.0 63.95 193.65 63.55 194.1 63.0 194.15 62.75 194.1 62.55 193.8 62.45 193.2 M57.05 193.75 L56.6 193.4 56.5 192.8 56.9 192.35 57.45 192.25 Q57.8 192.35 57.95 192.65 L58.0 193.2 57.65 193.7 57.05 193.75 M69.25 196.95 L68.9 197.4 68.3 197.5 67.8 197.1 67.75 196.55 68.15 196.05 68.7 196.0 69.15 196.35 69.25 196.95 M66.1 191.65 L65.7 192.1 65.15 192.15 64.7 191.8 64.6 191.2 64.95 190.75 65.55 190.7 Q65.9 190.75 66.05 191.0 L66.1 191.65 M53.3 189.4 L52.95 189.9 52.35 189.95 51.85 189.55 51.8 189.0 52.2 188.55 52.75 188.45 53.2 188.8 53.3 189.4 M48.65 208.45 L48.25 208.9 47.7 208.95 47.25 208.6 47.15 208.0 47.5 207.55 48.1 207.5 Q48.45 207.6 48.6 207.85 L48.65 208.45 M49.6 202.4 L49.2 202.9 48.65 202.95 48.2 202.55 48.1 202.0 Q48.2 201.7 48.45 201.55 L49.05 201.45 49.55 201.8 49.6 202.4 M53.7 196.0 L53.35 196.5 52.75 196.55 52.65 196.5 52.7 197.0 52.3 197.45 51.75 197.55 51.3 197.2 51.2 196.6 51.55 196.1 52.15 196.05 52.25 196.1 52.2 195.6 52.6 195.15 53.15 195.05 53.65 195.4 53.7 196.0 M52.6 272.25 L52.2 272.7 51.65 272.8 51.2 272.4 Q51.0 272.15 51.1 271.85 51.2 271.5 51.45 271.35 L52.05 271.3 52.55 271.65 52.6 272.25 M50.1 267.75 L49.7 268.2 49.15 268.3 48.65 267.95 48.6 267.4 Q48.7 267.0 48.95 266.85 49.25 266.7 49.55 266.85 49.85 266.95 50.0 267.2 L50.1 267.75 M54.75 266.65 L55.05 266.2 55.65 266.15 56.1 266.5 56.15 267.1 55.85 267.55 55.25 267.6 54.75 267.25 Q54.6 266.95 54.75 266.65 M51.15 263.0 L51.1 262.4 Q51.2 262.1 51.45 261.9 L52.05 261.85 52.5 262.25 52.55 262.8 52.2 263.25 51.6 263.35 51.15 263.0 M45.2 255.6 L44.85 256.1 44.25 256.15 43.8 255.75 43.75 255.2 44.05 254.75 44.7 254.65 45.15 255.0 45.2 255.6 M47.5 262.3 L47.1 262.75 46.55 262.85 Q46.2 262.75 46.05 262.5 L45.9 261.95 45.8 261.75 45.7 261.15 46.1 260.7 46.65 260.65 Q47.0 260.7 47.15 260.95 L47.15 261.5 47.4 261.75 47.5 262.3 M61.9 264.85 L61.5 265.35 60.95 265.4 60.45 265.05 Q60.3 264.75 60.4 264.45 60.5 264.15 60.75 264.0 L61.35 263.9 61.8 264.3 61.9 264.85 M64.35 260.45 L64.3 259.9 Q64.35 259.55 64.65 259.4 L65.25 259.35 65.7 259.7 65.75 260.3 65.4 260.75 64.8 260.85 64.35 260.45 M58.1 260.6 L57.75 261.05 57.2 261.1 56.75 260.75 56.65 260.15 Q56.75 259.85 57.0 259.7 L57.55 259.65 Q57.95 259.7 58.1 259.95 L58.1 260.6 M66.8 254.4 L66.45 254.85 65.9 254.9 Q65.5 254.85 65.35 254.55 65.2 254.3 65.35 253.95 L65.7 253.5 66.25 253.45 66.7 253.8 66.8 254.4 M63.9 249.0 L63.5 249.45 62.95 249.55 62.45 249.2 62.4 248.6 Q62.5 248.25 62.75 248.1 L63.35 248.05 63.8 248.45 63.9 249.0 M59.3 249.45 L58.95 249.9 58.35 250.0 57.9 249.6 57.85 249.05 58.2 248.55 58.8 248.5 59.25 248.85 59.3 249.45 M60.9 255.25 L60.55 255.75 59.95 255.8 59.5 255.45 59.4 254.85 59.8 254.4 60.35 254.3 60.85 254.7 60.9 255.25 M54.7 245.2 L54.35 245.65 53.75 245.75 Q53.45 245.65 53.3 245.35 L53.2 244.8 53.6 244.3 54.15 244.25 Q54.5 244.35 54.65 244.6 L54.7 245.2 M57.65 246.1 L57.2 245.75 57.1 245.15 Q57.2 244.85 57.45 244.7 L58.0 244.65 58.55 245.0 58.55 245.6 58.2 246.05 57.65 246.1 M44.0 237.15 L43.6 237.6 43.05 237.7 Q42.75 237.6 42.6 237.35 42.45 237.05 42.55 236.75 L42.85 236.25 43.5 236.2 43.95 236.6 44.0 237.15 M42.5 249.55 L42.4 248.95 42.8 248.5 43.35 248.4 43.85 248.8 43.9 249.35 43.55 249.85 42.95 249.9 42.5 249.55 M42.6 243.7 L42.15 243.4 42.1 242.75 Q42.2 242.45 42.45 242.3 L43.05 242.25 43.5 242.6 43.55 243.2 43.2 243.65 42.6 243.7 M45.3 231.1 L44.95 231.55 44.35 231.65 43.85 231.3 43.8 230.7 44.2 230.2 44.75 230.15 45.2 230.55 45.3 231.1 M48.45 220.6 L49.05 220.55 49.5 220.95 49.55 221.5 49.2 221.95 48.6 222.05 48.15 221.7 48.1 221.1 48.45 220.6 M47.5 225.35 L47.1 225.85 46.55 225.85 Q46.25 225.75 46.1 225.5 L46.0 224.95 Q46.1 224.65 46.35 224.5 L46.95 224.45 Q47.3 224.5 47.45 224.75 L47.5 225.35 M4.15 157.5 L3.6 157.55 3.15 157.2 3.05 156.6 3.4 156.15 4.0 156.05 Q4.35 156.15 4.5 156.45 L4.55 157.0 4.15 157.5 M8.55 159.8 L8.1 159.45 8.05 158.85 Q8.15 158.55 8.4 158.4 L9.0 158.3 9.45 158.7 9.5 159.25 9.2 159.75 8.55 159.8 M15.65 159.9 L15.3 160.35 14.7 160.45 Q14.4 160.35 14.25 160.1 14.1 159.8 14.2 159.5 14.25 159.15 14.55 159.0 L15.15 158.95 Q15.45 159.05 15.6 159.35 L15.65 159.9 M12.45 153.55 L12.1 154.0 11.5 154.1 11.05 153.7 11.0 153.15 11.3 152.65 11.95 152.6 Q12.25 152.7 12.4 152.95 L12.45 153.55 M6.3 153.65 L5.95 154.1 5.35 154.2 4.85 153.8 4.8 153.25 5.2 152.75 5.75 152.7 6.2 153.05 6.3 153.65 M4.65 153.15 L4.05 153.2 3.6 152.8 3.5 152.25 3.9 151.8 4.45 151.7 Q4.8 151.8 4.95 152.05 L5.0 152.65 4.65 153.15 M1.9 151.4 L1.55 151.85 0.95 151.9 0.5 151.6 0.45 150.95 0.75 150.5 1.4 150.45 1.85 150.8 1.9 151.4 M54.0 183.05 L53.6 183.5 53.05 183.55 52.6 183.25 Q52.4 182.95 52.5 182.6 52.6 182.3 52.85 182.15 L53.45 182.1 53.95 182.5 54.0 183.05 M58.1 171.3 L57.8 171.75 57.15 171.85 56.7 171.5 56.65 170.9 57.0 170.4 57.6 170.35 Q57.9 170.45 58.05 170.75 L58.1 171.3 M54.55 177.6 L54.1 177.2 Q53.9 176.95 54.0 176.65 L54.4 176.15 54.95 176.1 55.45 176.45 55.5 177.05 55.15 177.5 54.55 177.6 M39.15 162.35 L38.65 161.95 38.6 161.4 39.0 160.95 39.55 160.9 Q39.85 160.95 40.0 161.2 L40.1 161.85 39.75 162.3 39.15 162.35 M37.75 161.9 L37.35 162.35 36.8 162.45 36.35 162.05 36.25 161.5 Q36.35 161.15 36.6 161.0 L37.2 160.95 37.7 161.3 37.75 161.9 M49.45 155.85 L49.35 155.25 49.75 154.75 50.3 154.7 50.8 155.1 50.85 155.65 50.5 156.1 49.9 156.2 49.45 155.85 M44.55 159.35 L44.1 159.05 44.05 158.4 44.45 157.95 45.0 157.9 45.45 158.3 45.5 158.85 45.2 159.3 44.55 159.35 M44.3 149.15 L43.8 148.8 Q43.65 148.5 43.75 148.2 43.85 147.9 44.1 147.75 L44.7 147.7 45.15 148.05 45.25 148.65 44.85 149.1 44.3 149.15 M39.9 151.8 L39.5 152.3 38.95 152.35 38.5 151.95 38.45 151.4 38.75 150.95 39.4 150.85 Q39.7 150.95 39.85 151.2 L39.9 151.8 M35.95 155.85 L35.9 155.3 36.3 154.85 36.85 154.75 37.3 155.1 37.35 155.7 37.05 156.2 36.4 156.25 35.95 155.85 M36.75 153.55 L36.2 153.6 35.75 153.25 35.65 152.65 Q35.75 152.35 36.0 152.2 L36.6 152.15 37.1 152.5 37.15 153.1 36.75 153.55 M33.8 162.6 L33.2 162.7 32.75 162.3 32.65 161.75 33.05 161.25 33.6 161.2 Q33.95 161.3 34.1 161.55 L34.15 162.15 33.8 162.6 M27.65 161.8 L27.05 161.85 26.6 161.5 26.55 160.9 Q26.65 160.6 26.9 160.45 L27.5 160.35 27.95 160.75 28.0 161.3 27.65 161.8 M30.6 153.6 L30.05 153.7 29.55 153.35 29.5 152.8 Q29.6 152.4 29.85 152.25 30.1 152.1 30.4 152.25 L30.9 152.6 30.95 153.15 30.6 153.6 M21.85 160.75 L21.45 161.2 20.9 161.25 20.4 160.85 20.35 160.3 20.7 159.85 21.3 159.8 21.75 160.1 21.85 160.75 M69.45 174.35 L69.4 173.8 Q69.45 173.5 69.75 173.3 L70.35 173.25 70.8 173.6 70.85 174.2 70.5 174.65 69.9 174.75 69.45 174.35 M75.2 167.95 Q75.0 167.65 75.1 167.35 75.2 167.05 75.45 166.9 L76.05 166.85 76.55 167.2 76.6 167.8 76.2 168.25 75.65 168.3 75.2 167.95 M69.5 168.45 L69.0 168.15 68.95 167.5 69.05 167.3 69.0 166.75 69.4 166.3 69.95 166.25 70.4 166.65 70.5 167.2 70.35 167.35 70.45 167.95 70.1 168.4 69.5 168.45 M64.9 164.0 Q64.6 163.95 64.4 163.7 64.25 163.45 64.35 163.05 64.45 162.75 64.7 162.6 L65.3 162.55 65.75 162.95 65.85 163.5 65.45 163.95 64.9 164.0 M64.6 157.2 L64.25 157.65 63.65 157.75 63.2 157.35 63.1 156.8 63.5 156.3 64.05 156.25 Q64.4 156.35 64.55 156.6 L64.6 157.2 M61.95 166.55 L61.55 167.0 61.0 167.05 60.5 166.7 Q60.35 166.45 60.45 166.1 60.55 165.8 60.8 165.65 L61.4 165.6 61.85 165.9 61.95 166.55 M77.25 168.15 L76.75 167.75 76.7 167.2 77.05 166.7 77.6 166.65 78.15 167.0 78.15 167.6 77.8 168.05 77.25 168.15 M75.9 161.6 L75.5 162.05 74.95 162.15 74.45 161.8 74.4 161.2 Q74.5 160.85 74.75 160.7 L75.35 160.65 75.8 161.05 75.9 161.6 M74.1 155.5 L73.75 155.95 73.15 156.0 Q72.85 155.9 72.7 155.65 L72.6 155.05 73.0 154.6 73.55 154.55 74.05 154.9 74.1 155.5 M67.35 151.35 L67.4 151.9 67.0 152.35 66.45 152.4 66.0 152.1 65.9 151.45 Q66.0 151.15 66.25 151.0 L66.85 150.95 Q67.2 151.05 67.35 151.35 M72.9 149.25 L72.55 149.7 72.0 149.75 71.45 149.4 Q71.3 149.15 71.45 148.8 71.55 148.5 71.8 148.35 L72.35 148.3 72.8 148.65 72.9 149.25 M66.15 145.0 L65.85 145.45 65.2 145.55 64.75 145.2 Q64.6 144.9 64.7 144.6 L65.1 144.1 65.65 144.05 66.1 144.45 66.15 145.0 M71.9 143.7 L71.3 143.75 Q71.0 143.65 70.85 143.35 L70.8 142.8 Q70.85 142.5 71.15 142.35 L71.75 142.25 72.2 142.6 72.25 143.2 71.9 143.7 M71.5 141.15 L71.35 141.1 71.2 141.15 71.25 141.2 70.95 141.6 70.85 141.65 70.3 141.7 69.85 141.35 69.8 140.8 70.1 140.3 70.5 140.2 70.55 140.15 70.95 139.7 71.5 139.65 Q71.8 139.7 71.95 139.95 L72.05 140.6 71.7 141.05 71.5 141.15 M71.15 134.7 L70.7 134.3 70.6 133.75 70.75 133.5 70.7 133.45 70.6 132.9 70.6 132.5 Q70.65 132.2 70.95 132.05 L71.55 132.0 Q71.85 132.05 72.0 132.3 L72.15 132.8 72.1 133.25 72.0 133.5 72.05 133.55 72.1 134.2 71.7 134.65 71.15 134.7 M66.7 136.3 L66.35 136.75 65.75 136.8 65.3 136.5 65.25 135.85 65.55 135.4 66.2 135.35 Q66.5 135.4 66.65 135.7 L66.7 136.3 M61.35 139.35 L60.95 139.85 60.4 139.9 Q60.1 139.8 59.95 139.55 59.8 139.3 59.9 138.95 L60.2 138.5 60.85 138.4 61.3 138.8 61.35 139.35 M55.1 152.85 L54.65 152.45 54.6 151.9 Q54.65 151.6 54.95 151.45 L55.55 151.35 56.0 151.7 56.05 152.3 55.7 152.8 55.1 152.85 M60.8 149.2 L60.2 149.25 59.75 148.9 59.65 148.3 60.05 147.85 60.6 147.8 Q60.95 147.85 61.1 148.1 L61.15 148.75 60.8 149.2 M55.95 142.4 L55.55 142.85 55.0 142.95 54.55 142.6 Q54.4 142.35 54.5 142.0 L54.8 141.5 55.45 141.45 55.9 141.85 55.95 142.4 M50.65 145.6 L50.25 146.05 49.7 146.1 49.2 145.8 49.15 145.15 Q49.25 144.85 49.5 144.7 L50.1 144.65 50.55 145.05 50.65 145.6 M45.35 134.35 L45.0 134.8 44.4 134.85 43.95 134.55 43.9 133.9 Q43.95 133.6 44.2 133.45 L44.85 133.4 Q45.15 133.45 45.3 133.75 L45.35 134.35 M50.9 131.55 L50.55 132.05 49.95 132.1 49.5 131.75 49.45 131.2 49.75 130.7 50.4 130.65 50.85 131.0 50.9 131.55 M50.55 123.55 L50.5 123.0 50.9 122.55 51.45 122.45 51.9 122.8 52.0 123.4 51.65 123.9 51.05 123.95 50.55 123.55 M45.25 125.95 L44.8 125.6 44.75 125.0 45.05 124.55 45.7 124.5 Q46.0 124.55 46.15 124.8 L46.2 125.45 45.8 125.9 45.25 125.95 M40.45 127.45 L40.05 127.9 39.5 127.95 39.0 127.6 Q38.85 127.35 38.95 127.0 39.05 126.7 39.3 126.55 L39.9 126.5 40.35 126.85 40.45 127.45 M60.65 125.8 Q60.75 125.5 61.0 125.35 L61.6 125.3 62.05 125.65 62.15 126.25 61.75 126.7 61.2 126.75 Q60.85 126.7 60.7 126.45 L60.65 125.8 M56.55 128.95 L56.15 129.45 55.6 129.5 55.15 129.1 55.05 128.55 Q55.15 128.25 55.4 128.1 L56.0 128.0 Q56.35 128.1 56.5 128.35 L56.55 128.95 M66.8 124.15 L66.35 123.8 66.3 123.25 66.6 122.7 Q66.9 122.55 67.25 122.7 67.55 122.8 67.7 123.05 L67.75 123.6 67.35 124.05 66.8 124.15 M63.55 119.3 L63.2 119.75 62.6 119.85 62.15 119.5 62.1 118.9 62.4 118.4 63.05 118.35 63.5 118.75 63.55 119.3 M57.45 121.9 L56.85 121.95 56.4 121.55 56.35 121.0 Q56.45 120.7 56.7 120.55 L57.3 120.45 57.75 120.8 57.8 121.4 57.45 121.9 M51.4 110.2 L51.35 109.65 51.75 109.15 52.3 109.1 52.75 109.45 52.85 110.05 52.5 110.5 51.9 110.6 51.4 110.2 M45.9 112.2 L45.4 111.8 45.35 111.25 Q45.45 110.95 45.7 110.8 L46.3 110.7 46.75 111.05 46.85 111.65 46.45 112.15 45.9 112.2 M58.9 108.6 L58.6 109.05 58.0 109.15 57.5 108.75 Q57.35 108.5 57.5 108.2 L57.85 107.7 58.4 107.65 58.85 108.0 58.9 108.6 M49.65 105.2 L49.1 105.25 48.6 104.9 Q48.45 104.65 48.55 104.3 48.65 104.0 48.9 103.85 L49.5 103.8 49.95 104.1 50.05 104.75 49.65 105.2 M56.1 103.6 L55.8 104.05 55.2 104.15 54.7 103.75 Q54.55 103.5 54.7 103.2 L55.0 102.7 55.6 102.65 56.05 103.0 56.1 103.6 M43.9 105.85 L43.55 106.35 42.95 106.4 42.5 106.0 42.4 105.45 42.8 105.0 43.35 104.9 43.85 105.25 43.9 105.85 M39.8 113.65 L39.35 113.3 39.25 112.7 39.6 112.25 40.15 112.2 40.7 112.55 40.7 113.15 40.35 113.6 39.8 113.65 M37.8 106.95 L37.4 107.4 36.85 107.5 36.4 107.15 36.35 106.6 Q36.4 106.2 36.65 106.05 36.95 105.9 37.3 106.05 37.6 106.15 37.75 106.4 L37.8 106.95 M34.65 114.7 L34.3 115.15 33.7 115.2 33.25 114.85 33.15 114.25 33.55 113.8 34.1 113.75 Q34.45 113.8 34.6 114.05 L34.65 114.7 M31.9 112.5 L31.95 113.1 31.65 113.55 31.0 113.6 30.55 113.25 Q30.4 113.0 30.5 112.65 L30.9 112.2 31.45 112.15 31.9 112.5 M28.55 114.3 L28.25 114.75 27.6 114.8 27.15 114.45 27.1 113.85 Q27.15 113.55 27.45 113.4 L28.05 113.35 Q28.35 113.45 28.5 113.7 L28.55 114.3 M18.6 153.35 L18.3 153.85 17.65 153.9 17.2 153.5 17.15 152.95 Q17.3 152.65 17.55 152.5 L18.1 152.4 18.55 152.75 18.6 153.35 M24.8 153.25 L24.45 153.7 23.85 153.8 23.4 153.45 Q23.25 153.15 23.35 152.85 L23.65 152.35 24.3 152.3 24.75 152.7 24.8 153.25 M21.7 138.25 L21.3 138.7 20.75 138.75 20.3 138.35 Q20.1 138.1 20.2 137.8 20.3 137.5 20.55 137.35 L21.15 137.3 21.65 137.6 21.7 138.25 M39.35 137.45 L38.8 137.5 38.3 137.15 Q38.15 136.85 38.25 136.55 38.35 136.25 38.6 136.1 L39.2 136.0 39.65 136.4 39.75 136.95 39.35 137.45 M33.95 138.45 L33.55 138.95 33.0 139.0 32.5 138.65 32.45 138.05 32.8 137.6 33.4 137.5 33.85 137.9 33.95 138.45 M35.8 138.55 L35.35 138.2 Q35.2 137.95 35.3 137.6 35.4 137.3 35.65 137.15 L36.25 137.1 Q36.55 137.2 36.7 137.45 L36.75 138.05 36.4 138.5 35.8 138.55 M34.25 132.0 L33.8 131.65 33.75 131.1 34.15 130.6 Q34.4 130.45 34.7 130.6 L35.15 130.9 35.2 131.5 34.9 131.95 34.25 132.0 M34.25 129.75 L33.65 129.8 33.2 129.45 33.15 128.85 33.5 128.4 34.1 128.3 34.55 128.7 34.6 129.25 34.25 129.75 M27.8 138.35 L27.4 138.8 26.85 138.9 26.4 138.5 26.35 137.95 26.65 137.45 27.3 137.4 27.75 137.75 27.8 138.35 M26.05 130.75 L25.65 131.2 25.1 131.25 24.6 130.95 24.55 130.3 24.9 129.85 25.5 129.8 25.95 130.15 26.05 130.75 M19.75 131.15 L19.8 131.7 19.45 132.2 18.85 132.25 18.4 131.9 18.35 131.3 18.65 130.85 19.3 130.75 19.75 131.15 M31.15 130.15 Q30.85 130.05 30.7 129.8 L30.65 129.2 31.0 128.7 31.6 128.65 32.05 129.05 32.1 129.6 31.8 130.05 31.15 130.15 M9.15 136.3 L9.1 135.7 Q9.2 135.4 9.45 135.25 L10.05 135.2 10.5 135.55 10.6 136.15 10.2 136.6 9.65 136.65 9.15 136.3 M10.9 133.45 L10.6 133.9 9.95 133.95 9.5 133.6 Q9.35 133.3 9.45 133.0 9.5 132.7 9.8 132.55 L10.4 132.5 10.85 132.85 10.9 133.45 M15.55 138.1 L15.25 138.55 14.6 138.65 Q14.3 138.55 14.15 138.25 L14.1 137.7 14.5 137.2 15.05 137.15 15.5 137.5 15.55 138.1 M13.7 132.85 L13.35 133.3 12.75 133.4 12.25 133.05 12.2 132.45 12.6 131.95 13.15 131.9 13.6 132.3 13.7 132.85 M8.1 131.1 L7.75 131.6 7.15 131.65 6.7 131.25 6.6 130.7 7.0 130.25 7.55 130.15 8.05 130.5 8.1 131.1 M16.6 111.35 L16.55 111.45 16.25 111.9 15.6 111.95 Q15.3 111.85 15.15 111.6 L15.1 111.0 15.45 110.55 15.75 110.45 15.75 110.35 16.15 109.9 16.7 109.8 17.2 110.2 17.25 110.75 16.9 111.25 16.6 111.35 M21.2 113.0 L21.15 112.4 21.45 111.95 22.1 111.9 Q22.4 112.0 22.55 112.25 L22.6 112.85 22.25 113.3 21.65 113.35 21.2 113.0 M22.35 107.4 L22.25 106.8 Q22.35 106.5 22.6 106.35 L23.2 106.25 Q23.55 106.35 23.7 106.65 L23.75 107.2 23.35 107.7 22.8 107.75 22.35 107.4 M17.2 107.05 L16.65 107.1 16.2 106.85 16.2 106.8 16.1 106.15 Q16.2 105.85 16.45 105.7 L17.05 105.65 17.15 105.7 17.55 106.0 17.6 106.6 17.2 107.05 M14.05 106.0 L13.6 105.65 13.5 105.05 Q13.6 104.75 13.9 104.6 L14.45 104.5 14.9 104.8 15.3 104.35 15.85 104.25 16.3 104.65 16.4 105.2 16.25 105.4 16.05 105.7 15.8 105.75 15.45 105.75 15.0 105.45 14.65 105.95 14.05 106.0 M30.25 108.3 L30.2 107.65 30.6 107.2 31.15 107.15 31.6 107.5 31.65 108.1 31.35 108.55 30.7 108.6 30.25 108.3 M29.95 107.8 L29.55 108.3 29.0 108.35 28.5 108.0 28.45 107.45 Q28.55 107.1 28.8 106.95 L29.4 106.9 29.85 107.25 29.95 107.8 M48.2 89.3 L48.15 88.7 Q48.25 88.4 48.5 88.25 L49.1 88.15 49.55 88.55 49.65 89.1 49.25 89.6 48.7 89.65 48.2 89.3 M43.05 87.2 L42.95 86.65 43.35 86.2 43.9 86.1 Q44.25 86.2 44.4 86.45 L44.45 87.05 44.1 87.55 43.5 87.6 43.05 87.2 M45.3 84.8 L44.75 84.9 44.25 84.5 44.2 83.95 44.55 83.45 45.15 83.4 45.6 83.75 45.7 84.35 45.3 84.8 M42.6 81.1 L42.2 81.55 41.65 81.6 Q41.35 81.5 41.2 81.25 L41.1 80.65 Q41.2 80.35 41.45 80.2 L42.05 80.15 42.55 80.5 42.6 81.1 M286.8 145.75 L286.45 146.2 285.85 146.3 285.4 145.9 Q285.2 145.65 285.3 145.35 L285.7 144.85 286.25 144.8 Q286.55 144.9 286.75 145.15 L286.8 145.75 M337.85 148.65 L337.45 149.15 336.9 149.2 Q336.6 149.1 336.45 148.85 L336.35 148.3 Q336.45 147.9 336.7 147.75 337.0 147.6 337.3 147.75 337.65 147.85 337.8 148.1 L337.85 148.65 M338.0 135.85 L337.65 136.3 337.05 136.4 Q336.75 136.3 336.6 136.05 336.45 135.8 336.55 135.45 336.65 135.1 336.9 134.95 L337.5 134.9 337.95 135.3 338.0 135.85 M338.35 142.0 L338.0 142.45 337.4 142.5 336.95 142.2 336.9 141.55 337.2 141.1 337.85 141.05 338.3 141.4 338.35 142.0 M335.8 130.35 L335.3 130.0 Q335.15 129.75 335.25 129.4 L335.65 128.95 336.2 128.9 Q336.5 129.0 336.65 129.25 L336.75 129.85 336.4 130.3 335.8 130.35 M333.75 124.25 L333.25 123.9 333.2 123.3 Q333.3 123.0 333.55 122.85 L334.15 122.75 334.6 123.15 334.7 123.7 334.3 124.2 333.75 124.25 M332.0 118.2 L331.65 118.65 331.05 118.7 Q330.7 118.65 330.55 118.4 330.4 118.15 330.5 117.8 L330.9 117.3 Q331.15 117.15 331.45 117.3 331.75 117.35 331.9 117.6 L332.0 118.2 M327.9 154.0 L327.5 154.45 326.95 154.5 326.45 154.2 Q326.3 153.95 326.4 153.55 326.5 153.25 326.75 153.1 L327.35 153.05 327.8 153.45 327.9 154.0 M332.05 157.55 L331.55 157.15 331.5 156.6 331.9 156.15 332.45 156.05 332.9 156.4 333.0 157.0 332.65 157.5 332.05 157.55 M337.45 155.1 L337.1 155.6 336.5 155.65 336.05 155.3 335.95 154.7 336.35 154.25 336.9 154.15 337.4 154.55 337.45 155.1 M323.75 149.55 L323.4 150.05 322.8 150.1 322.35 149.7 322.25 149.15 Q322.4 148.85 322.65 148.7 L323.2 148.6 Q323.55 148.7 323.7 148.95 L323.75 149.55 M319.85 144.95 L319.25 145.0 318.8 144.6 318.75 144.05 319.05 143.6 319.7 143.55 320.15 143.85 320.2 144.5 319.85 144.95 M316.6 138.85 L316.65 139.45 316.3 139.9 315.7 139.95 315.25 139.65 315.2 139.0 315.5 138.55 316.15 138.5 316.6 138.85 M311.0 135.7 L310.55 135.3 310.5 134.75 310.8 134.3 311.45 134.2 311.9 134.55 311.95 135.15 311.55 135.65 311.0 135.7 M305.6 136.3 L305.25 136.8 304.65 136.85 304.15 136.5 Q304.0 136.25 304.1 135.9 L304.5 135.45 305.05 135.35 305.5 135.75 305.6 136.3 M298.55 136.6 Q298.25 136.5 298.1 136.2 297.9 135.95 298.0 135.65 L298.35 135.15 298.95 135.1 Q299.25 135.2 299.45 135.45 L299.5 136.05 299.1 136.5 298.55 136.6 M295.1 131.55 L294.75 132.0 294.15 132.1 293.65 131.75 293.6 131.15 294.0 130.65 294.55 130.6 295.0 131.0 295.1 131.55 M290.2 127.45 L289.75 127.1 Q289.6 126.85 289.7 126.5 L290.05 126.05 290.65 125.95 291.1 126.35 291.15 126.9 290.85 127.4 290.2 127.45 M316.95 117.7 L317.35 117.2 317.9 117.15 318.35 117.55 318.45 118.1 318.1 118.55 317.5 118.65 317.0 118.3 316.95 117.7 M312.35 120.0 L311.95 120.5 311.4 120.55 310.9 120.2 310.85 119.6 Q310.95 119.3 311.2 119.15 L311.8 119.05 312.25 119.45 312.35 120.0 M306.95 113.0 Q306.65 112.9 306.5 112.65 L306.4 112.1 306.8 111.55 Q307.05 111.4 307.35 111.55 L307.85 111.9 307.9 112.45 307.55 112.9 306.95 113.0 M314.2 113.4 L313.8 113.85 313.25 113.9 Q312.95 113.85 312.8 113.55 L312.7 112.95 Q312.8 112.65 313.05 112.5 L313.65 112.45 Q314.0 112.5 314.15 112.75 L314.2 113.4 M305.25 117.7 L305.8 117.6 306.25 118.0 306.35 118.55 306.0 119.05 305.4 119.1 Q305.05 119.0 304.9 118.75 L304.85 118.15 305.25 117.7 M302.35 113.95 L301.95 114.4 301.4 114.45 300.9 114.1 300.85 113.5 301.2 113.05 301.8 113.0 302.25 113.3 302.35 113.95 M302.35 107.95 L302.25 107.4 302.65 106.9 303.2 106.85 303.7 107.2 303.75 107.8 303.4 108.25 302.8 108.35 302.35 107.95 M301.2 107.95 L300.8 108.4 300.25 108.45 299.75 108.1 299.7 107.5 Q299.8 107.2 300.05 107.05 L300.65 107.0 301.1 107.3 301.2 107.95 M301.8 101.95 L301.25 102.0 300.75 101.65 300.7 101.1 300.7 100.95 301.05 100.6 301.65 100.55 302.1 100.9 302.2 101.45 302.05 101.7 301.95 101.85 301.8 101.95 M300.5 89.9 L299.85 90.0 299.4 89.65 Q299.25 89.35 299.35 89.05 L299.7 88.55 300.3 88.5 300.75 88.9 300.8 89.45 300.5 89.9 M321.85 114.35 L321.35 113.95 321.3 113.4 Q321.4 113.1 321.65 112.95 L322.25 112.85 322.7 113.2 322.8 113.8 322.4 114.3 321.85 114.35 M327.5 113.0 L327.4 112.45 327.75 111.95 328.35 111.9 328.85 112.25 328.9 112.8 328.5 113.3 327.95 113.35 327.5 113.0 M326.05 108.7 L325.65 109.15 325.1 109.25 324.6 108.85 324.55 108.3 324.9 107.8 325.5 107.75 325.95 108.1 326.05 108.7 M320.0 103.35 L319.95 102.8 320.3 102.3 320.9 102.25 321.35 102.6 321.45 102.8 321.9 103.2 321.95 103.75 321.75 104.05 321.7 104.35 321.35 104.8 320.8 104.9 320.35 104.55 320.25 103.95 320.4 103.65 320.0 103.35 M319.2 109.85 L318.85 110.3 318.25 110.35 317.8 110.05 Q317.6 109.75 317.7 109.4 L318.1 108.95 318.65 108.9 319.15 109.25 319.2 109.85 M312.2 94.95 L311.8 95.45 311.25 95.5 310.8 95.1 310.7 94.55 Q310.8 94.25 311.05 94.1 L311.65 94.0 Q312.0 94.1 312.15 94.35 L312.2 94.95 M316.1 99.2 L315.65 98.9 315.6 98.3 315.9 97.85 316.55 97.8 317.0 98.15 317.05 98.7 316.7 99.2 316.1 99.2 M306.95 91.95 L306.55 92.45 306.0 92.45 305.55 92.15 305.5 91.55 Q305.55 91.25 305.8 91.1 L306.45 91.05 Q306.75 91.1 306.9 91.35 L306.95 91.95 M277.1 87.85 L276.75 88.3 276.15 88.4 Q275.85 88.3 275.7 88.05 275.5 87.75 275.6 87.45 L276.0 86.95 276.55 86.9 277.05 87.3 277.1 87.85 M281.05 87.2 L281.0 86.6 281.4 86.15 281.95 86.1 Q282.25 86.2 282.4 86.45 L282.5 87.05 282.15 87.5 281.55 87.55 281.05 87.2 M277.1 83.3 L276.75 83.75 276.15 83.85 Q275.85 83.75 275.7 83.5 L275.6 82.9 276.0 82.4 276.55 82.35 277.05 82.75 277.1 83.3 M271.05 89.4 L270.65 89.85 270.1 89.95 Q269.8 89.85 269.65 89.55 L269.55 89.0 269.9 88.5 270.5 88.45 271.0 88.8 271.05 89.4 M288.75 87.0 L288.45 87.45 287.8 87.55 287.35 87.15 287.3 86.6 Q287.35 86.25 287.65 86.1 L288.25 86.05 Q288.55 86.15 288.7 86.4 L288.75 87.0 M294.9 87.75 L294.55 88.25 294.0 88.3 293.5 87.95 293.45 87.4 293.8 86.9 294.35 86.85 Q294.7 86.95 294.85 87.2 295.05 87.45 294.9 87.75 M265.4 78.55 L265.0 79.05 264.45 79.1 264.0 78.7 263.9 78.15 Q264.0 77.85 264.25 77.7 L264.85 77.6 Q265.2 77.7 265.35 77.95 L265.4 78.55 M270.5 81.15 L270.05 80.8 269.95 80.2 Q270.05 79.9 270.3 79.75 L270.9 79.7 Q271.25 79.75 271.4 80.05 L271.45 80.65 271.05 81.1 270.5 81.15 M275.15 139.15 L275.05 138.6 Q275.15 138.3 275.4 138.15 L276.0 138.05 276.5 138.4 276.55 138.95 276.15 139.5 275.6 139.5 275.15 139.15 M272.25 134.4 L271.85 134.85 271.3 134.9 270.85 134.55 270.75 133.95 271.1 133.5 271.7 133.45 Q272.05 133.5 272.2 133.75 L272.25 134.4 M268.55 129.6 L268.0 129.65 267.55 129.3 Q267.4 129.05 267.5 128.7 L267.8 128.25 268.45 128.2 268.9 128.55 268.95 129.15 268.55 129.6 M281.35 142.95 L280.95 143.45 280.4 143.5 279.9 143.1 279.85 142.55 Q279.95 142.25 280.2 142.1 L280.8 142.0 281.25 142.35 281.35 142.95 M284.6 140.1 L284.25 140.55 283.65 140.6 283.15 140.2 283.1 139.65 Q283.2 139.35 283.5 139.2 L284.05 139.15 Q284.35 139.2 284.5 139.45 L284.6 140.1 M283.3 134.0 L282.95 134.5 282.35 134.55 281.9 134.15 281.8 133.6 282.2 133.15 282.75 133.05 283.25 133.4 283.3 134.0 M285.65 128.35 L285.3 128.85 284.7 128.9 284.2 128.5 284.15 127.95 284.55 127.5 285.1 127.4 Q285.4 127.5 285.55 127.75 L285.65 128.35 M266.8 123.65 Q266.75 124.0 266.5 124.15 L265.85 124.2 265.4 123.8 265.35 123.25 265.7 122.8 266.3 122.7 266.75 123.05 266.8 123.65 M264.9 117.55 L264.55 118.0 263.95 118.05 263.5 117.7 Q263.3 117.4 263.4 117.1 L263.8 116.65 264.35 116.6 264.85 116.95 264.9 117.55 M262.55 111.75 L262.1 111.4 Q261.95 111.1 262.05 110.8 L262.15 110.45 261.95 110.25 261.9 109.6 Q262.0 109.3 262.25 109.15 L262.85 109.1 263.3 109.45 263.4 110.05 263.15 110.35 263.45 110.65 263.5 111.2 263.1 111.7 262.55 111.75 M255.55 104.8 L255.45 104.2 Q255.55 103.9 255.8 103.75 L256.4 103.7 256.9 104.0 256.95 104.65 256.55 105.1 256.0 105.15 255.55 104.8 M251.85 99.95 L251.75 99.35 Q251.85 99.0 252.1 98.85 L252.7 98.8 253.2 99.2 253.25 99.75 252.85 100.2 252.3 100.3 251.85 99.95 M259.65 109.4 Q259.5 109.15 259.6 108.8 259.65 108.5 259.9 108.35 L260.5 108.3 261.0 108.6 261.0 109.25 260.7 109.7 260.1 109.75 259.65 109.4 M261.65 103.75 L261.2 103.35 261.15 102.8 Q261.2 102.5 261.5 102.35 L262.1 102.25 262.55 102.6 262.6 103.2 262.3 103.7 261.65 103.75 M262.95 96.85 L262.6 97.3 262.05 97.35 261.6 97.05 261.5 96.4 261.85 95.95 262.4 95.9 262.95 96.3 262.95 96.85 M266.6 92.35 L266.2 92.85 265.65 92.9 265.15 92.5 265.1 91.95 Q265.2 91.65 265.45 91.5 L266.05 91.4 Q266.35 91.5 266.5 91.75 L266.6 92.35 M250.25 94.15 L249.9 94.65 249.3 94.7 248.8 94.3 248.75 93.75 249.15 93.3 249.7 93.2 250.15 93.55 250.25 94.15 M249.65 87.95 L249.25 88.4 248.7 88.5 248.2 88.1 248.15 87.55 248.15 87.4 248.15 87.3 248.55 86.85 249.1 86.8 249.6 87.1 249.65 87.75 249.65 87.8 249.65 87.95 M255.1 79.4 L255.05 78.85 Q255.15 78.55 255.45 78.4 L256.0 78.3 256.45 78.65 256.55 79.25 256.2 79.75 255.6 79.8 255.1 79.4 M259.1 78.55 L258.7 79.05 258.15 79.1 257.65 78.7 257.6 78.15 Q257.7 77.85 257.95 77.7 L258.55 77.6 259.0 77.95 259.1 78.55 M251.2 76.2 L250.8 76.7 250.25 76.75 249.8 76.35 249.7 75.8 Q249.8 75.5 250.05 75.35 L250.65 75.25 251.15 75.6 251.2 76.2 M251.3 82.9 L250.95 83.4 250.4 83.45 249.85 83.05 Q249.7 82.8 249.85 82.5 249.95 82.2 250.2 82.05 L250.75 81.95 251.2 82.3 251.3 82.9 M242.6 89.65 L242.1 89.3 242.05 88.7 242.45 88.25 243.0 88.2 243.45 88.55 243.55 89.15 243.2 89.6 242.6 89.65 M236.55 89.0 L236.05 88.6 236.0 88.05 Q236.1 87.75 236.35 87.6 L236.95 87.5 237.4 87.85 237.5 88.45 237.1 88.95 236.55 89.0 M231.15 86.7 L230.75 87.15 230.2 87.25 229.75 86.85 229.7 86.3 230.0 85.8 230.65 85.75 231.1 86.1 231.15 86.7 M213.75 122.75 L213.25 122.4 213.2 121.8 213.6 121.3 214.15 121.25 214.6 121.65 214.7 122.2 214.35 122.65 213.75 122.75 M216.6 117.45 L216.55 116.8 216.9 116.35 217.5 116.3 217.95 116.65 218.0 117.25 217.65 117.7 217.05 117.75 216.6 117.45 M221.3 106.5 L220.85 106.15 220.8 105.55 221.1 105.1 221.75 105.0 222.2 105.4 222.25 105.95 221.9 106.45 221.3 106.5 M221.15 98.95 L221.75 98.9 222.25 99.25 222.3 99.85 221.9 100.3 221.35 100.35 220.9 100.05 220.8 99.4 Q220.9 99.1 221.15 98.95 M220.75 93.8 L220.35 94.25 219.8 94.3 219.3 93.95 219.25 93.35 Q219.35 93.05 219.6 92.9 L220.2 92.85 Q220.5 92.95 220.65 93.2 L220.75 93.8 M220.65 111.95 L220.3 112.4 219.7 112.45 219.2 112.15 219.15 111.5 Q219.25 111.2 219.55 111.05 L220.1 111.0 220.55 111.4 220.65 111.95 M189.3 154.95 L188.95 155.4 188.4 155.5 Q188.0 155.4 187.85 155.15 187.7 154.85 187.85 154.55 L188.2 154.05 188.75 154.0 189.2 154.4 189.3 154.95 M186.2 155.6 L186.25 156.15 185.85 156.6 185.3 156.7 184.85 156.35 184.75 155.75 Q184.85 155.4 185.1 155.25 L185.7 155.2 186.2 155.6 M202.45 159.0 L202.15 159.45 201.55 159.5 201.1 159.2 Q200.95 158.95 201.05 158.55 201.15 158.25 201.4 158.1 L201.95 158.05 202.45 158.45 202.45 159.0 M203.3 156.35 Q203.15 156.05 203.25 155.75 L203.6 155.25 204.2 155.2 204.65 155.6 204.75 156.15 204.35 156.6 203.8 156.7 203.3 156.35 M205.05 150.65 Q204.9 150.4 205.0 150.05 L205.4 149.6 205.95 149.55 Q206.25 149.6 206.4 149.85 L206.5 150.5 206.15 150.95 205.55 151.0 Q205.2 150.9 205.05 150.65 M202.45 152.05 L202.45 152.6 202.1 153.1 201.55 153.15 201.1 152.8 Q200.9 152.5 201.0 152.2 201.1 151.9 201.35 151.75 L201.9 151.65 202.45 152.05 M206.15 144.35 L205.8 144.8 205.25 144.9 204.7 144.5 Q204.55 144.25 204.7 143.95 204.8 143.6 205.05 143.45 L205.6 143.4 206.05 143.75 206.15 144.35 M199.45 147.4 L198.85 147.5 198.4 147.1 198.35 146.55 198.65 146.05 199.3 146.0 199.75 146.35 199.8 146.95 199.45 147.4 M195.1 142.35 L194.75 142.85 194.15 142.9 193.7 142.55 193.6 142.0 194.0 141.5 194.55 141.45 195.05 141.8 195.1 142.35 M188.4 141.45 L187.9 141.05 187.85 140.5 Q187.95 140.2 188.2 140.05 L188.35 139.95 188.3 139.9 Q188.15 139.6 188.25 139.3 L188.55 138.85 189.2 138.75 189.3 138.7 189.9 138.65 Q190.2 138.7 190.35 139.0 L190.45 139.6 190.05 140.05 189.5 140.1 189.35 140.2 189.25 140.25 189.25 140.3 189.35 140.95 188.95 141.4 188.4 141.45 M202.35 138.75 L202.25 138.2 Q202.35 137.9 202.6 137.75 L203.2 137.65 203.7 138.0 203.75 138.6 203.35 139.1 202.8 139.15 202.35 138.75 M194.9 136.8 L194.55 137.25 193.95 137.35 193.5 137.0 193.45 136.4 193.75 135.9 194.4 135.85 Q194.7 135.95 194.85 136.25 L194.9 136.8 M199.15 134.4 L198.7 134.1 198.65 133.45 198.95 133.0 199.6 132.95 200.05 133.3 200.1 133.9 199.75 134.35 199.15 134.4 M188.95 138.55 L188.45 138.2 188.4 137.6 188.8 137.15 189.35 137.1 189.8 137.4 189.9 138.05 189.55 138.5 188.95 138.55 M189.0 133.45 L188.7 133.95 188.05 134.0 187.6 133.6 187.55 133.05 187.95 132.6 188.5 132.5 Q188.8 132.6 188.95 132.85 L189.0 133.45 M210.55 126.7 L210.15 127.15 209.6 127.25 209.15 126.85 209.05 126.3 209.4 125.8 210.0 125.75 Q210.35 125.85 210.5 126.1 L210.55 126.7 M205.7 130.55 L205.35 131.0 204.75 131.1 Q204.45 131.0 204.3 130.75 204.1 130.45 204.2 130.15 L204.6 129.65 205.15 129.6 205.65 130.0 205.7 130.55 M190.55 107.75 L190.2 108.2 189.6 108.25 189.15 107.9 189.05 107.3 Q189.15 107.0 189.45 106.85 L190.0 106.8 190.5 107.1 190.55 107.75 M185.65 128.05 L185.25 128.55 184.7 128.6 184.25 128.25 184.2 127.65 184.5 127.2 185.15 127.1 185.6 127.5 185.65 128.05 M182.5 124.2 L182.1 124.65 181.6 124.7 181.35 125.15 180.75 125.2 180.3 124.9 180.25 124.25 180.6 123.8 180.75 123.7 180.8 123.7 180.95 123.65 Q181.1 123.45 181.35 123.3 L181.95 123.25 Q182.25 123.3 182.4 123.55 L182.5 124.2 M186.25 119.55 L185.9 120.0 185.3 120.1 184.85 119.7 184.8 119.15 185.1 118.65 185.75 118.6 186.2 118.95 186.25 119.55 M187.95 114.65 Q187.65 114.55 187.5 114.3 L187.4 113.75 187.8 113.3 188.35 113.2 188.85 113.55 188.9 114.1 188.55 114.65 187.95 114.65 M176.65 121.2 L176.3 121.7 175.7 121.75 175.2 121.4 Q175.05 121.1 175.15 120.8 L175.55 120.35 176.1 120.25 176.55 120.65 176.65 121.2 M162.85 161.75 L162.5 162.2 161.9 162.25 161.4 161.95 Q161.25 161.7 161.35 161.3 L161.75 160.85 162.3 160.8 162.75 161.2 162.85 161.75 M168.25 158.8 L167.95 159.25 167.3 159.35 166.85 158.95 166.8 158.4 Q166.85 158.1 167.15 157.9 L167.75 157.85 168.2 158.2 168.25 158.8 M173.45 155.4 L173.15 155.9 172.5 155.95 172.05 155.6 Q171.9 155.3 172.0 155.0 L172.4 154.55 172.95 154.45 173.4 154.85 173.45 155.4 M180.95 152.3 L180.45 151.95 Q180.3 151.65 180.4 151.35 L180.8 150.85 181.35 150.8 181.8 151.2 181.9 151.75 181.55 152.2 180.95 152.3 M178.45 151.65 L178.1 152.1 177.5 152.15 177.05 151.85 177.0 151.2 Q177.05 150.9 177.35 150.75 L177.95 150.7 178.4 151.05 178.45 151.65 M190.25 149.3 L189.85 149.8 189.3 149.85 188.8 149.45 188.75 148.9 Q188.85 148.6 189.1 148.45 L189.7 148.35 190.15 148.7 190.25 149.3 M186.25 143.0 L186.15 142.45 186.5 141.95 187.1 141.9 187.6 142.25 187.65 142.85 187.25 143.3 186.7 143.4 186.25 143.0 M182.85 147.85 L182.2 147.95 181.75 147.55 181.7 147.0 182.1 146.5 182.65 146.45 183.1 146.8 183.4 146.55 184.0 146.5 184.45 146.85 184.5 147.45 184.2 147.9 183.55 147.95 183.1 147.65 183.05 147.55 182.85 147.85 M175.1 128.15 L174.65 127.8 174.6 127.2 174.9 126.7 175.55 126.65 176.0 127.05 176.05 127.6 175.65 128.05 175.1 128.15 M170.85 118.55 L170.25 118.6 169.8 118.2 169.75 117.65 Q169.85 117.35 170.1 117.2 L170.7 117.1 171.15 117.45 171.2 118.05 170.85 118.55 M163.45 130.4 L163.05 130.9 162.5 130.95 162.0 130.6 Q161.85 130.3 161.95 130.0 162.05 129.7 162.3 129.55 L162.9 129.45 163.35 129.85 163.45 130.4 M168.85 129.65 L168.4 129.35 168.35 128.7 Q168.45 128.4 168.7 128.25 L169.3 128.2 169.75 128.55 169.8 129.15 169.45 129.6 168.85 129.65 M157.5 132.1 L157.15 132.55 157.1 132.6 157.1 133.1 156.75 133.55 156.15 133.65 155.7 133.25 155.6 132.7 156.0 132.2 156.05 132.2 156.05 131.65 156.35 131.2 157.0 131.15 Q157.3 131.2 157.45 131.45 L157.5 132.1 M156.85 126.45 L156.25 126.55 155.8 126.2 155.75 125.6 Q155.8 125.3 156.1 125.1 L156.7 125.05 157.15 125.45 157.2 126.0 156.85 126.45 M150.9 134.85 Q150.6 134.75 150.45 134.45 L150.35 133.9 150.7 133.4 151.3 133.35 151.8 133.7 151.85 134.3 151.45 134.75 150.9 134.85 M148.15 135.95 L147.8 136.45 147.75 136.45 147.65 136.5 147.9 136.75 147.95 137.35 147.6 137.8 147.05 137.85 146.55 137.55 146.5 136.9 146.85 136.45 147.0 136.4 146.75 136.2 146.75 136.15 146.65 135.55 Q146.75 135.25 147.05 135.1 L147.6 135.0 148.1 135.4 148.15 135.95 M148.85 132.75 L148.5 133.2 147.9 133.3 Q147.55 133.2 147.4 132.95 L147.35 132.35 147.75 131.85 148.3 131.8 148.75 132.2 148.85 132.75 M138.65 189.55 L138.2 189.2 138.1 188.6 138.5 188.15 139.05 188.05 Q139.4 188.2 139.55 188.45 L139.6 189.0 139.25 189.5 138.65 189.55 M134.1 186.1 L133.8 186.55 133.15 186.6 132.7 186.25 132.65 185.65 Q132.7 185.35 133.0 185.2 L133.6 185.15 134.05 185.5 134.1 186.1 M145.3 190.5 L144.75 190.6 144.3 190.2 144.2 189.65 144.55 189.15 145.15 189.1 Q145.5 189.2 145.65 189.45 L145.7 190.05 145.3 190.5 M144.95 188.25 L144.35 188.3 143.85 187.95 Q143.7 187.65 143.8 187.35 L144.2 186.9 144.75 186.85 Q145.05 186.9 145.2 187.2 L145.3 187.8 144.95 188.25 M150.25 175.1 L150.2 174.55 Q150.3 174.25 150.55 174.1 L151.15 174.0 151.6 174.35 151.7 174.95 151.3 175.45 150.75 175.5 150.25 175.1 M140.05 183.85 L139.6 183.55 139.55 182.9 139.9 182.45 140.5 182.4 140.95 182.75 141.0 183.35 140.65 183.8 140.05 183.85 M138.3 177.75 L138.0 178.2 137.35 178.3 136.9 177.95 136.85 177.35 137.25 176.85 137.8 176.8 138.25 177.2 138.3 177.75 M138.9 169.6 L138.8 169.05 139.2 168.55 139.75 168.5 140.25 168.85 140.3 169.45 139.95 169.9 139.35 170.0 138.9 169.6 M138.3 169.95 L137.95 170.4 137.35 170.45 136.85 170.15 136.8 169.5 137.2 169.05 137.75 169.0 Q138.05 169.05 138.2 169.35 L138.3 169.95 M137.75 171.45 L137.35 171.9 136.8 172.0 136.3 171.6 136.25 171.05 Q136.35 170.7 136.6 170.55 L137.2 170.5 137.65 170.85 137.75 171.45 M134.15 174.05 L133.75 174.5 133.2 174.6 Q132.9 174.5 132.75 174.25 L132.65 173.65 133.0 173.15 133.6 173.1 134.1 173.5 134.15 174.05 M146.05 174.9 L145.7 175.4 145.1 175.45 Q144.8 175.35 144.65 175.1 L144.6 174.5 144.9 174.05 145.55 173.95 146.0 174.35 146.05 174.9 M145.0 169.3 L144.7 169.75 144.05 169.85 143.6 169.45 143.55 168.9 143.9 168.4 Q143.75 168.1 143.85 167.8 143.95 167.5 144.2 167.35 L144.8 167.25 Q145.1 167.35 145.25 167.65 L145.35 168.2 144.95 168.7 145.0 169.3 M147.35 168.4 L147.0 168.85 146.45 168.9 145.95 168.6 145.9 167.95 Q146.0 167.65 146.25 167.5 L146.8 167.45 Q147.15 167.5 147.3 167.8 L147.35 168.4 M138.15 167.85 L137.8 168.3 137.25 168.35 136.7 168.0 Q136.55 167.75 136.7 167.4 136.8 167.1 137.05 166.95 L137.6 166.9 138.05 167.2 138.15 167.85 M133.65 163.15 L133.35 163.6 132.7 163.65 132.25 163.3 132.2 162.7 132.55 162.25 133.15 162.2 133.6 162.55 133.65 163.15 M152.35 169.45 L151.95 169.9 151.4 169.95 Q151.05 169.85 150.9 169.6 L150.85 169.0 Q150.95 168.7 151.2 168.55 L151.8 168.5 152.25 168.85 152.35 169.45 M150.0 166.6 Q149.85 166.35 149.95 165.95 L150.25 165.5 150.9 165.45 Q151.2 165.55 151.35 165.8 L151.4 166.4 151.05 166.85 150.45 166.9 150.0 166.6 M156.2 164.85 L155.75 164.45 155.7 163.9 Q155.75 163.6 156.05 163.45 L156.65 163.4 157.1 163.7 157.15 164.35 156.8 164.8 156.2 164.85 M143.05 139.55 L142.5 139.6 142.05 139.35 141.55 139.35 141.1 139.0 141.0 138.4 Q141.1 138.1 141.35 137.95 L141.95 137.9 Q142.3 137.95 142.4 138.15 L142.9 138.15 143.35 138.55 143.45 139.1 143.05 139.55 M138.6 143.0 L138.25 143.45 137.65 143.5 137.15 143.15 137.1 142.55 137.5 142.1 138.05 142.05 138.5 142.35 138.6 143.0 M130.05 158.0 L129.6 157.6 Q129.4 157.35 129.5 157.05 L129.9 156.55 130.45 156.5 130.95 156.85 131.0 157.45 130.65 157.9 130.05 158.0 M125.35 155.75 L124.95 156.25 124.4 156.3 123.95 155.9 123.85 155.35 Q123.95 155.05 124.2 154.9 L124.8 154.8 125.3 155.15 125.35 155.75 M129.75 149.55 L129.35 150.0 128.8 150.05 Q128.5 150.0 128.35 149.7 128.2 149.45 128.3 149.1 L128.6 148.65 129.25 148.6 Q129.55 148.65 129.7 148.9 L129.75 149.55 M130.05 151.5 L129.7 151.95 129.1 152.0 128.65 151.65 128.6 151.05 Q128.7 150.75 128.95 150.6 L129.55 150.55 Q129.85 150.6 130.0 150.9 L130.05 151.5 M133.85 147.2 L133.5 147.7 132.9 147.75 Q132.6 147.65 132.45 147.35 L132.4 146.8 Q132.45 146.5 132.75 146.35 L133.35 146.25 133.8 146.6 133.85 147.2 M127.8 143.6 Q127.65 143.35 127.75 143.0 L128.15 142.55 128.7 142.5 129.15 142.8 129.25 143.45 128.9 143.9 128.3 143.95 127.8 143.6 M112.45 185.6 L112.05 186.05 111.5 186.1 111.05 185.75 Q110.85 185.5 110.95 185.15 L111.3 184.7 111.9 184.65 112.4 184.95 112.45 185.6 M118.25 183.65 L117.9 184.1 117.3 184.15 116.85 183.75 116.8 183.2 117.15 182.75 117.75 182.7 Q118.05 182.75 118.2 183.0 L118.25 183.65 M105.1 187.25 L104.65 186.95 104.6 186.3 Q104.65 186.0 104.95 185.85 L105.55 185.8 Q105.85 185.85 106.0 186.15 L106.05 186.75 105.75 187.2 105.1 187.25 M123.9 181.0 L123.55 181.45 122.95 181.5 122.45 181.15 122.4 180.55 122.8 180.1 123.35 180.05 123.8 180.4 123.9 181.0 M129.3 181.75 L128.85 181.4 Q128.7 181.15 128.8 180.8 128.85 180.5 129.1 180.35 L129.7 180.3 130.2 180.6 130.2 181.25 129.9 181.7 129.3 181.75 M129.2 177.8 L128.9 178.25 128.25 178.35 127.8 178.0 Q127.65 177.7 127.75 177.4 127.8 177.05 128.1 176.9 L128.7 176.85 129.15 177.25 129.2 177.8 M119.15 159.6 L118.7 159.25 Q118.55 158.95 118.65 158.65 L118.95 158.15 119.6 158.1 Q119.9 158.2 120.05 158.5 L120.1 159.05 119.7 159.5 119.15 159.6 M107.8 159.15 L107.2 159.25 106.75 158.9 Q106.6 158.6 106.7 158.3 106.8 157.95 107.05 157.8 L107.65 157.75 108.1 158.15 108.15 158.7 107.8 159.15 M113.15 160.95 L112.7 160.65 112.65 160.0 113.05 159.55 113.6 159.5 Q113.9 159.55 114.05 159.85 L114.1 160.45 113.8 160.9 113.15 160.95 M102.35 156.25 L101.9 155.85 101.8 155.3 Q101.9 155.0 102.15 154.85 L102.75 154.75 103.25 155.1 103.3 155.7 Q103.2 156.05 102.9 156.2 L102.35 156.25 M99.1 150.6 L98.7 151.05 98.15 151.1 97.7 150.8 97.6 150.15 Q97.7 149.85 97.95 149.7 L98.55 149.65 99.05 150.05 99.1 150.6 M95.55 145.25 L95.2 145.75 94.65 145.8 94.15 145.45 94.1 144.9 Q94.2 144.55 94.45 144.4 L95.0 144.35 Q95.35 144.45 95.5 144.7 L95.55 145.25 M90.0 127.35 L89.65 127.85 89.05 127.85 88.6 127.55 88.5 126.95 88.9 126.5 89.45 126.45 Q89.8 126.5 89.95 126.75 L90.0 127.35 M88.55 121.25 L88.5 120.7 88.8 120.2 89.45 120.15 Q89.75 120.25 89.9 120.5 L89.95 121.1 89.55 121.55 89.0 121.65 88.55 121.25 M92.65 139.65 L92.3 140.1 91.75 140.2 91.25 139.8 91.2 139.25 Q91.3 138.9 91.55 138.75 L92.1 138.7 92.6 139.05 92.65 139.65 M90.8 133.45 L90.4 133.95 89.85 134.0 89.4 133.65 Q89.25 133.4 89.35 133.05 L89.65 132.6 90.3 132.5 90.75 132.9 90.8 133.45 M129.0 137.3 L128.65 137.8 128.05 137.85 127.6 137.5 127.55 136.9 Q127.65 136.6 127.9 136.45 L128.5 136.35 128.95 136.75 129.0 137.3 M136.65 135.05 L136.6 134.5 Q136.65 134.2 136.9 134.05 L137.55 134.0 Q137.85 134.05 138.0 134.3 L138.05 134.95 137.7 135.4 137.1 135.45 136.65 135.05 M134.5 130.15 L134.0 129.8 133.95 129.2 134.35 128.75 134.9 128.7 135.35 129.05 135.45 129.65 135.1 130.1 134.5 130.15 M128.7 131.2 L128.1 131.25 Q127.8 131.15 127.65 130.9 127.5 130.6 127.6 130.3 127.65 130.0 127.9 129.85 L128.55 129.75 129.0 130.15 129.05 130.7 128.7 131.2 M132.35 124.35 L131.7 124.4 131.25 124.1 131.2 123.45 Q131.25 123.15 131.55 123.0 L132.15 122.95 Q132.45 123.0 132.6 123.3 L132.65 123.9 132.35 124.35 M129.2 124.6 L128.8 125.05 128.25 125.15 127.75 124.8 127.7 124.25 Q127.8 123.85 128.05 123.7 128.35 123.55 128.65 123.7 128.95 123.8 129.1 124.05 L129.2 124.6 M127.75 118.3 L127.7 117.75 Q127.75 117.4 128.05 117.25 L128.65 117.2 128.8 117.15 129.35 117.05 Q129.65 117.15 129.8 117.4 L129.9 118.0 129.55 118.5 128.95 118.55 128.85 118.6 128.2 118.7 127.75 118.3 M125.6 111.9 L125.6 111.8 125.5 111.8 125.05 111.4 125.0 110.85 125.3 110.35 125.95 110.3 126.4 110.65 126.45 111.25 126.4 111.35 126.55 111.35 127.0 111.75 127.05 112.3 126.7 112.75 126.1 112.85 125.65 112.5 125.6 111.9 M123.25 105.85 L122.85 106.3 122.3 106.35 121.8 106.05 121.75 105.4 Q121.85 105.1 122.1 104.95 L122.7 104.9 Q123.0 104.95 123.15 105.25 L123.25 105.85 M93.8 102.75 L93.85 103.35 93.5 103.8 92.9 103.85 92.45 103.55 92.4 102.9 92.7 102.45 93.35 102.4 93.8 102.75 M96.95 97.95 L96.6 98.45 96.0 98.5 95.55 98.15 95.5 97.55 Q95.55 97.25 95.8 97.1 L96.45 97.0 96.9 97.4 96.95 97.95 M118.25 101.0 Q118.05 100.75 118.15 100.45 L118.5 100.0 119.1 99.95 119.6 100.25 119.65 100.9 119.25 101.35 118.7 101.4 118.25 101.0 M114.75 96.7 L114.2 96.35 Q114.05 96.05 114.2 95.75 L114.55 95.25 115.1 95.2 115.55 95.6 115.65 96.15 115.3 96.6 114.75 96.7 M110.5 92.35 L110.0 91.95 109.95 91.4 110.3 90.9 110.85 90.85 Q111.2 90.95 111.35 91.2 L111.4 91.8 111.05 92.25 110.5 92.35 M106.25 87.9 L105.6 87.95 105.15 87.55 105.1 87.0 Q105.15 86.7 105.45 86.55 L106.05 86.5 Q106.35 86.55 106.5 86.8 L106.55 87.45 106.25 87.9 M104.9 86.75 L104.25 86.8 103.8 86.5 103.75 85.85 Q103.8 85.55 104.1 85.4 L104.7 85.35 Q105.0 85.4 105.15 85.7 L105.2 86.3 104.9 86.75 M108.65 84.7 L108.6 84.1 109.0 83.65 109.55 83.6 110.0 83.95 110.1 84.55 109.75 85.0 109.15 85.05 108.65 84.7 M100.2 82.75 L99.9 83.3 99.25 83.3 Q98.95 83.2 98.8 82.95 L98.75 82.4 99.15 81.95 99.7 81.85 100.15 82.2 100.2 82.75 M114.4 81.8 L113.95 81.5 113.9 80.85 Q114.0 80.55 114.3 80.4 L114.85 80.35 115.3 80.75 115.35 81.3 115.05 81.75 114.4 81.8 M109.15 68.9 L108.8 69.4 108.2 69.4 107.7 69.1 107.65 68.5 108.05 68.05 108.6 68.0 109.05 68.3 109.15 68.9 M103.55 72.7 L102.95 72.75 102.45 72.35 102.4 71.8 102.8 71.35 103.35 71.25 103.8 71.6 103.9 72.2 103.55 72.7 M97.95 76.55 L97.5 76.15 97.4 75.6 97.8 75.1 98.35 75.05 Q98.7 75.15 98.85 75.4 L98.9 76.0 98.55 76.45 97.95 76.55 M93.8 81.0 L93.2 81.05 92.75 80.7 92.65 80.1 93.0 79.65 93.25 79.45 93.9 79.35 94.35 79.7 94.4 80.3 94.0 80.8 93.8 81.0 M90.6 81.25 Q90.4 80.95 90.5 80.6 L90.85 80.15 91.45 80.1 91.95 80.45 92.0 81.05 91.6 81.5 91.05 81.55 90.6 81.25 M87.3 86.4 L87.95 86.35 88.4 86.7 88.45 87.3 88.1 87.75 87.5 87.8 Q87.2 87.7 87.05 87.45 L87.0 86.85 87.3 86.4 M85.25 86.05 L84.95 86.5 84.3 86.55 83.85 86.25 83.8 85.6 84.2 85.15 84.75 85.1 85.2 85.5 85.25 86.05 M90.15 84.55 Q89.8 84.5 89.65 84.25 L89.6 83.6 Q89.7 83.3 89.95 83.15 L90.5 83.1 91.0 83.45 91.05 84.05 90.7 84.5 90.15 84.55 M84.5 82.45 L84.45 81.9 84.85 81.45 85.4 81.35 85.85 81.7 85.95 82.3 85.6 82.8 85.0 82.85 84.5 82.45 M72.75 126.95 L72.4 127.45 71.8 127.5 71.3 127.1 71.25 126.55 71.65 126.1 72.2 126.0 72.65 126.35 72.75 126.95 M73.45 121.4 L72.95 121.5 72.45 121.55 71.95 121.15 71.9 120.6 Q72.0 120.3 72.25 120.15 72.45 120.0 72.7 120.0 L73.3 119.95 73.75 120.35 73.8 120.9 73.45 121.4 M74.25 115.6 L73.8 115.25 73.7 114.65 74.1 114.2 74.65 114.1 Q75.0 114.2 75.15 114.5 L75.2 115.05 74.85 115.55 74.25 115.6 M77.0 108.9 L76.6 109.4 76.05 109.45 75.6 109.05 75.5 108.5 75.85 108.05 76.45 107.95 Q76.8 108.05 76.95 108.3 L77.0 108.9 M68.3 117.7 L67.85 117.35 67.8 116.75 Q67.85 116.4 68.15 116.25 L68.75 116.2 Q69.05 116.3 69.2 116.6 L69.25 117.15 68.95 117.6 68.3 117.7 M89.65 115.7 L89.2 115.3 89.15 114.75 89.45 114.25 90.1 114.2 90.55 114.55 90.6 115.15 90.25 115.6 89.65 115.7 M91.85 109.1 L91.45 109.6 90.9 109.65 90.45 109.25 90.35 108.7 Q90.45 108.4 90.7 108.25 L91.3 108.15 91.8 108.5 91.85 109.1 M76.2 104.55 L75.75 104.2 75.65 103.6 76.05 103.15 76.6 103.05 77.1 103.45 77.15 104.0 76.8 104.5 76.2 104.55 M79.1 102.9 L78.75 103.4 78.2 103.45 77.75 103.1 77.65 102.5 Q77.75 102.2 78.0 102.05 L78.55 101.95 79.1 102.35 79.1 102.9 M80.5 97.6 L80.45 97.05 Q80.55 96.75 80.8 96.6 L81.4 96.5 Q81.7 96.6 81.85 96.85 L81.95 97.45 81.55 97.95 81.0 98.0 80.5 97.6 M74.5 100.25 L74.2 100.7 73.55 100.8 73.1 100.45 Q72.95 100.2 73.05 99.85 L73.4 99.35 74.0 99.3 74.45 99.7 74.5 100.25 M85.0 92.25 L84.65 92.7 84.1 92.75 83.6 92.45 83.55 91.8 83.9 91.35 84.45 91.3 84.95 91.65 85.0 92.25 M78.5 88.6 L78.0 88.3 Q77.8 88.0 77.95 87.65 L78.3 87.2 78.85 87.15 79.4 87.55 79.4 88.1 79.05 88.55 78.5 88.6 M79.95 83.7 L79.6 84.15 79.0 84.25 78.55 83.9 78.45 83.3 78.85 82.8 79.4 82.75 Q79.75 82.85 79.9 83.15 L79.95 83.7 M73.65 85.6 L73.05 85.6 72.6 85.3 Q72.45 85.05 72.55 84.7 L72.85 84.25 73.5 84.2 73.95 84.5 74.0 85.1 73.65 85.6 M73.55 89.55 L73.6 90.1 73.25 90.55 72.65 90.65 Q72.35 90.55 72.2 90.3 L72.15 89.7 72.5 89.2 73.1 89.15 73.55 89.55 M63.55 107.15 Q63.4 106.9 63.5 106.55 63.6 106.25 63.85 106.1 L64.45 106.05 Q64.75 106.1 64.9 106.35 L65.0 107.0 64.6 107.45 64.05 107.5 Q63.7 107.45 63.55 107.15 M61.9 102.95 L61.3 103.0 Q61.0 102.9 60.85 102.6 L60.75 102.05 Q60.85 101.75 61.15 101.6 L61.7 101.5 62.2 101.85 62.25 102.45 61.9 102.95 M70.1 106.0 L69.65 105.65 69.6 105.05 Q69.65 104.75 69.95 104.6 L70.55 104.55 Q70.85 104.6 71.0 104.9 L71.05 105.5 70.75 105.95 70.1 106.0 M68.4 101.35 L68.0 101.8 67.45 101.85 66.95 101.5 66.9 100.9 67.25 100.45 67.85 100.4 68.3 100.7 68.4 101.35 M67.9 92.25 L67.5 92.7 66.95 92.8 66.5 92.45 66.4 91.85 66.75 91.35 67.35 91.3 67.85 91.7 67.9 92.25 M154.95 119.75 L154.6 120.2 154.0 120.25 153.5 119.9 Q153.35 119.6 153.45 119.3 153.55 119.0 153.85 118.85 L154.4 118.8 Q154.7 118.85 154.85 119.15 L154.95 119.75 M151.25 114.45 L150.75 114.1 150.7 113.5 151.1 113.0 151.65 112.95 152.1 113.35 152.2 113.9 151.85 114.35 151.25 114.45 M149.0 108.85 L148.4 108.9 147.95 108.6 147.85 107.95 148.25 107.5 148.8 107.45 149.3 107.8 149.35 108.4 149.0 108.85 M165.7 115.15 L165.3 115.6 164.75 115.65 164.3 115.3 Q164.1 115.05 164.2 114.7 164.3 114.4 164.55 114.25 L165.15 114.2 165.65 114.5 165.7 115.15 M158.85 112.85 L158.4 112.45 158.35 111.9 158.7 111.4 159.3 111.35 Q159.6 111.45 159.75 111.7 L159.8 112.3 159.45 112.75 158.85 112.85 M153.3 109.65 L152.8 109.3 152.75 108.7 Q152.85 108.4 153.1 108.25 L153.7 108.2 Q154.0 108.3 154.15 108.55 L154.25 109.15 153.85 109.6 153.3 109.65 M152.35 107.9 L152.0 108.35 151.4 108.4 Q151.1 108.35 150.95 108.05 L150.85 107.45 151.25 107.0 151.8 106.95 Q152.15 107.0 152.3 107.25 L152.35 107.9 M146.05 103.6 L145.95 103.15 145.35 103.2 144.9 102.8 144.85 102.25 145.15 101.8 145.8 101.7 Q146.1 101.8 146.25 102.05 L146.3 102.5 146.95 102.45 147.4 102.85 147.45 103.4 147.1 103.85 146.5 103.95 Q146.2 103.85 146.05 103.6 M143.35 99.5 L142.9 99.1 142.85 98.55 Q142.9 98.25 143.2 98.1 L143.8 98.0 144.25 98.35 144.3 98.95 144.0 99.45 143.35 99.5 M141.5 93.5 L141.2 93.95 140.55 94.05 140.1 93.7 140.05 93.1 140.4 92.6 141.0 92.55 141.45 92.95 141.5 93.5 M189.7 102.1 L189.2 101.7 189.15 101.15 189.55 100.7 190.1 100.6 Q190.4 100.7 190.55 100.95 L190.65 101.55 190.3 102.05 189.7 102.1 M188.6 96.1 L188.15 96.1 187.7 95.7 187.65 95.15 Q187.75 94.85 188.0 94.7 L188.6 94.6 188.7 94.65 189.15 94.65 Q189.5 94.7 189.65 95.0 L189.65 95.6 189.3 96.05 188.75 96.1 188.6 96.1 M187.55 92.05 L187.15 92.6 186.6 92.6 186.15 92.25 186.05 91.7 Q186.15 91.4 186.4 91.25 L187.0 91.15 187.5 91.5 187.55 92.05 M182.45 87.0 L182.4 86.45 182.8 86.0 183.35 85.9 183.8 86.25 183.9 86.85 183.55 87.35 182.95 87.4 182.45 87.0 M178.4 83.3 L177.95 82.9 177.85 82.35 178.25 81.9 178.8 81.8 179.3 82.15 179.35 82.75 179.0 83.25 178.4 83.3 M173.35 80.25 L172.85 79.9 172.8 79.35 Q172.9 79.0 173.15 78.8 173.45 78.65 173.75 78.8 L174.2 79.15 174.3 79.7 173.9 80.15 173.35 80.25 M167.4 77.6 L167.35 76.95 Q167.45 76.65 167.7 76.5 L168.25 76.45 Q168.6 76.55 168.75 76.85 L168.75 77.4 168.45 77.85 167.85 77.9 167.4 77.6 M157.2 74.7 L156.8 75.2 156.25 75.25 155.75 74.85 155.7 74.3 Q155.8 74.0 156.05 73.85 L156.65 73.75 Q156.95 73.85 157.1 74.1 L157.2 74.7 M162.85 75.65 L162.5 76.15 161.9 76.2 161.45 75.85 161.4 75.25 161.7 74.8 162.35 74.7 Q162.65 74.8 162.8 75.1 L162.85 75.65 M151.3 73.95 L150.95 74.4 150.35 74.45 Q150.0 74.4 149.85 74.1 149.7 73.85 149.8 73.5 L150.2 73.05 150.75 73.0 Q151.05 73.05 151.2 73.3 L151.3 73.95 M177.5 62.05 Q177.35 61.75 177.45 61.45 L177.75 60.95 177.9 60.9 178.5 60.8 178.95 61.2 179.0 61.75 178.7 62.25 178.55 62.3 177.95 62.4 177.5 62.05 M171.45 60.15 L171.4 59.6 171.8 59.15 172.35 59.05 172.8 59.4 172.9 60.0 172.55 60.5 171.95 60.55 171.45 60.15 M168.6 55.65 L168.15 55.3 Q167.95 55.05 168.05 54.7 168.15 54.4 168.4 54.25 L169.0 54.2 169.5 54.5 169.55 55.15 169.15 55.6 168.6 55.65 M166.75 58.75 L166.4 59.2 165.8 59.25 165.35 58.95 165.3 58.3 165.6 57.85 166.25 57.8 166.7 58.15 166.75 58.75 M163.45 58.75 L162.85 58.8 162.4 58.4 162.3 57.85 162.7 57.4 163.25 57.35 Q163.6 57.4 163.75 57.65 L163.8 58.3 163.45 58.75 M157.6 56.85 L157.4 57.25 157.35 57.7 157.05 58.15 156.4 58.2 156.15 58.1 155.65 58.15 155.2 57.8 155.1 57.2 155.5 56.7 156.05 56.65 156.15 56.4 156.45 55.95 157.1 55.9 157.55 56.3 157.6 56.85 M161.75 53.85 L161.3 53.45 161.25 52.9 161.55 52.4 162.2 52.35 162.65 52.7 162.7 53.3 162.35 53.75 161.75 53.85 M167.75 49.55 L167.35 50.05 166.8 50.1 166.3 49.75 166.25 49.15 Q166.35 48.85 166.6 48.7 L167.2 48.6 Q167.5 48.7 167.65 49.0 L167.75 49.55 M154.9 42.1 L154.55 42.55 153.95 42.65 153.5 42.3 Q153.35 42.0 153.45 41.7 L153.8 41.2 154.4 41.15 154.85 41.55 154.9 42.1 M153.15 43.55 L152.8 44.0 152.2 44.1 151.75 43.75 Q151.6 43.45 151.7 43.15 L152.0 42.65 152.65 42.6 153.1 43.0 153.15 43.55 M144.55 57.5 Q144.5 57.85 144.25 58.0 L143.6 58.05 143.15 57.7 143.1 57.1 Q143.2 56.8 143.5 56.65 L144.05 56.55 144.5 56.95 144.55 57.5 M150.6 57.35 L150.25 57.8 149.65 57.9 149.15 57.5 149.1 56.95 149.5 56.45 150.05 56.4 150.5 56.75 150.6 57.35 M145.15 51.15 L144.7 50.8 Q144.5 50.5 144.6 50.2 L145.0 49.7 145.55 49.65 146.05 50.05 146.1 50.6 145.75 51.05 145.15 51.15 M150.9 46.65 L150.55 47.1 149.95 47.2 149.5 46.85 149.45 46.25 Q149.5 45.9 149.8 45.75 L150.4 45.7 150.85 46.1 150.9 46.65 M143.15 46.15 L142.55 46.2 142.1 45.85 Q141.95 45.55 142.05 45.25 142.1 44.95 142.4 44.8 L143.0 44.75 Q143.3 44.8 143.45 45.1 L143.5 45.7 143.15 46.15 M140.45 55.15 L140.0 54.75 139.95 54.2 Q140.0 53.9 140.3 53.75 L140.9 53.65 Q141.2 53.75 141.35 54.0 L141.4 54.6 141.05 55.1 140.45 55.15 M139.25 50.15 L138.95 50.7 138.35 50.7 137.85 50.35 Q137.7 50.1 137.85 49.8 137.95 49.5 138.2 49.35 L138.75 49.25 139.2 49.6 139.25 50.15 M137.85 88.6 L137.4 88.2 137.35 87.65 137.65 87.15 138.3 87.1 Q138.6 87.2 138.75 87.45 L138.8 88.05 138.45 88.5 137.85 88.6 M134.8 82.6 L134.75 82.05 Q134.85 81.75 135.1 81.6 L135.7 81.55 Q136.0 81.6 136.15 81.85 L136.2 82.5 135.85 82.95 135.25 83.0 134.8 82.6 M145.2 73.35 L144.85 73.8 144.3 73.9 143.75 73.5 Q143.6 73.25 143.75 72.95 L144.1 72.45 144.65 72.4 145.1 72.75 145.2 73.35 M139.2 73.45 L138.85 73.9 138.25 73.95 137.8 73.55 137.75 73.0 138.1 72.55 138.7 72.5 Q139.0 72.55 139.15 72.8 L139.2 73.45 M134.0 76.95 L133.65 77.4 133.05 77.5 132.55 77.15 Q132.4 76.85 132.5 76.55 L132.9 76.05 133.45 76.0 133.9 76.4 134.0 76.95 M131.75 74.55 L131.7 73.9 132.0 73.45 132.65 73.4 133.1 73.75 133.15 74.35 132.75 74.8 132.2 74.85 131.75 74.55 M131.65 72.8 L131.15 72.4 131.1 71.85 131.5 71.4 132.05 71.3 132.5 71.65 132.6 72.25 132.25 72.75 131.65 72.8 M131.4 65.85 L131.0 66.3 130.45 66.4 130.0 66.0 129.9 65.45 130.25 64.95 130.85 64.9 131.35 65.25 131.4 65.85 M135.3 58.65 Q135.1 58.4 135.2 58.1 L135.55 57.6 136.15 57.55 136.65 57.9 136.7 58.45 136.3 58.95 135.75 59.0 135.3 58.65 M137.4 58.8 L136.95 58.45 136.85 57.85 Q136.95 57.55 137.2 57.4 L137.8 57.3 Q138.15 57.4 138.3 57.7 L138.35 58.25 137.95 58.75 137.4 58.8 M135.1 54.7 L134.7 55.15 134.15 55.25 133.65 54.85 133.6 54.3 Q133.7 53.95 133.95 53.8 L134.55 53.75 135.0 54.1 135.1 54.7 M127.15 61.2 L126.7 60.8 126.6 60.25 127.0 59.75 127.55 59.7 Q127.9 59.8 128.05 60.05 L128.1 60.65 127.75 61.1 127.15 61.2 M130.25 59.7 L129.9 59.7 129.45 59.35 Q129.25 59.05 129.35 58.75 L129.75 58.3 130.3 58.25 130.8 58.6 131.2 58.65 131.65 59.0 131.7 59.6 131.35 60.1 130.75 60.15 130.3 59.75 130.25 59.7 M121.1 78.55 L120.75 79.0 120.15 79.05 119.7 78.7 119.65 78.1 Q119.7 77.8 120.0 77.65 L120.6 77.6 121.05 77.9 121.1 78.55 M126.05 76.75 L125.55 76.35 125.5 75.8 125.9 75.3 126.45 75.25 126.9 75.6 127.0 76.2 126.65 76.65 126.05 76.75 M122.25 62.65 L121.85 63.1 121.3 63.15 120.8 62.8 120.75 62.2 Q120.85 61.9 121.1 61.75 L121.7 61.7 122.15 62.05 122.25 62.65 M116.6 65.1 L116.2 65.55 115.65 65.6 115.15 65.25 Q115.0 65.0 115.1 64.65 115.2 64.35 115.45 64.2 L116.05 64.15 Q116.35 64.25 116.5 64.5 L116.6 65.1 M110.1 68.35 L109.6 68.0 109.55 67.45 Q109.65 67.15 109.9 67.0 L110.5 66.95 Q110.8 67.0 110.95 67.25 L111.05 67.85 110.65 68.35 110.1 68.35 M147.8 41.25 L147.4 41.7 146.85 41.8 Q146.5 41.7 146.35 41.45 146.2 41.15 146.3 40.85 146.4 40.5 146.65 40.35 L146.85 40.25 146.95 40.1 Q147.05 39.8 147.3 39.65 L147.9 39.6 Q148.2 39.7 148.35 39.95 L148.45 40.55 148.05 41.0 147.75 41.05 147.8 41.25 M152.3 35.7 L151.9 36.15 151.35 36.2 150.9 35.9 150.8 35.25 Q150.9 34.95 151.15 34.8 L151.75 34.75 152.25 35.1 152.3 35.7 M157.65 36.5 L157.3 36.95 156.7 37.05 156.2 36.7 156.15 36.1 156.55 35.6 157.1 35.55 157.55 35.95 157.65 36.5 M160.05 31.4 L159.4 31.45 158.95 31.15 Q158.8 30.9 158.9 30.55 L159.3 30.05 Q159.55 29.9 159.85 30.05 L160.3 30.4 160.35 30.95 160.05 31.4 M154.7 30.95 Q154.55 30.65 154.65 30.35 154.75 30.05 155.0 29.9 L155.6 29.8 Q155.9 29.9 156.05 30.2 L156.1 30.75 155.75 31.25 155.15 31.3 154.7 30.95 M54.35 90.45 L54.3 89.9 54.65 89.45 55.2 89.35 Q55.55 89.45 55.7 89.7 L55.75 90.3 55.4 90.8 54.85 90.85 54.35 90.45 M56.3 85.2 Q56.4 84.9 56.65 84.75 L57.25 84.7 57.7 85.05 57.8 85.65 57.4 86.1 56.85 86.15 56.35 85.8 Q56.2 85.55 56.3 85.2 M61.85 91.3 L61.5 91.8 60.9 91.85 Q60.6 91.75 60.45 91.5 L60.35 90.9 Q60.45 90.6 60.75 90.45 L61.3 90.35 61.8 90.75 61.85 91.3 M63.9 86.1 L63.5 86.55 62.95 86.6 62.5 86.25 62.4 85.65 Q62.5 85.35 62.75 85.2 L63.35 85.15 Q63.7 85.2 63.85 85.45 L63.9 86.1 M50.7 85.65 L50.25 85.35 50.2 84.7 Q50.25 84.4 50.5 84.25 L51.15 84.2 Q51.45 84.3 51.6 84.6 L51.65 85.15 51.3 85.6 50.7 85.65 M67.95 86.45 L67.55 86.9 67.0 87.0 66.5 86.65 66.45 86.1 Q66.55 85.7 66.8 85.55 67.1 85.4 67.4 85.55 67.7 85.65 67.85 85.9 L67.95 86.45 M217.45 89.65 L217.0 89.3 216.9 88.7 Q217.0 88.4 217.25 88.25 L217.85 88.2 Q218.2 88.25 218.35 88.55 L218.4 89.15 218.0 89.6 217.45 89.65 M214.15 84.3 L213.85 84.8 213.2 84.85 212.75 84.45 212.7 83.9 213.1 83.45 213.65 83.35 214.1 83.7 214.15 84.3 M225.15 83.95 L224.8 84.4 224.2 84.45 Q223.9 84.4 223.7 84.1 223.55 83.85 223.65 83.5 L224.05 83.05 224.6 83.0 225.05 83.35 225.15 83.95 M221.1 84.0 L220.75 84.45 220.15 84.5 Q219.85 84.45 219.7 84.15 219.5 83.9 219.6 83.55 L220.0 83.1 220.55 83.05 221.05 83.35 221.1 84.0 M219.85 77.1 L219.4 76.75 219.35 76.15 Q219.45 75.85 219.7 75.7 L220.3 75.6 220.75 76.0 220.8 76.55 220.8 76.65 Q221.1 76.75 221.25 77.05 L221.35 77.6 221.0 78.05 220.4 78.15 219.9 77.8 219.85 77.2 219.85 77.1 M216.1 72.3 L215.75 72.75 215.15 72.85 214.7 72.45 214.65 71.9 215.0 71.4 215.6 71.35 216.05 71.7 216.1 72.3 M209.3 80.15 L209.0 80.6 208.35 80.65 207.9 80.3 207.85 79.7 Q207.9 79.4 208.2 79.25 L208.8 79.2 209.25 79.5 209.3 80.15 M204.35 76.35 L203.95 76.8 203.4 76.9 202.95 76.5 202.85 75.95 203.2 75.45 203.8 75.4 204.3 75.75 204.35 76.35 M204.25 74.45 L203.9 74.9 203.3 74.95 202.85 74.6 202.8 74.0 Q202.9 73.7 203.15 73.55 L203.75 73.5 204.2 73.8 204.25 74.45 M210.0 72.3 L209.7 72.85 209.05 72.85 208.6 72.5 208.55 71.95 Q208.6 71.65 208.9 71.5 L209.5 71.4 Q209.8 71.5 209.95 71.75 L210.0 72.3 M203.75 69.4 L203.35 69.85 202.8 69.95 202.35 69.55 202.25 69.0 Q202.35 68.65 202.6 68.5 L203.2 68.45 203.7 68.8 203.75 69.4 M214.9 63.85 L214.55 64.3 213.95 64.35 213.5 64.0 213.4 63.4 213.8 62.95 214.35 62.9 Q214.7 62.95 214.85 63.2 L214.9 63.85 M208.4 67.25 L207.9 66.85 207.85 66.3 Q207.95 66.0 208.2 65.85 L208.8 65.75 Q209.1 65.85 209.25 66.1 L209.35 66.7 208.95 67.2 208.4 67.25 M206.0 61.9 L205.65 62.35 205.1 62.4 204.6 62.05 204.55 61.5 204.9 61.0 Q205.15 60.85 205.45 61.0 L205.95 61.3 Q206.15 61.55 206.0 61.9 M210.25 58.95 L209.8 58.65 209.75 58.0 210.05 57.55 210.65 57.5 Q211.0 57.6 211.15 57.9 L211.15 58.45 210.85 58.9 210.25 58.95 M200.8 65.35 Q200.75 65.7 200.5 65.85 L199.9 65.9 199.4 65.5 Q199.25 65.25 199.4 64.95 L199.7 64.5 200.3 64.4 200.75 64.75 200.8 65.35 M201.6 75.5 L201.35 75.4 201.1 75.15 201.05 74.55 201.4 74.05 202.0 74.0 202.2 74.15 202.25 74.25 202.45 74.4 202.55 74.95 202.15 75.4 201.6 75.5 M198.05 71.9 L197.65 72.35 197.1 72.4 196.65 72.1 Q196.45 71.8 196.55 71.45 196.65 71.15 196.9 71.0 L197.5 70.95 198.0 71.3 198.05 71.9 M192.95 69.85 Q192.8 69.55 192.95 69.25 193.05 68.9 193.3 68.75 L193.85 68.7 194.3 69.1 194.35 69.65 194.05 70.1 193.45 70.2 192.95 69.85 M194.75 69.35 L194.25 68.95 194.2 68.4 Q194.3 68.05 194.55 67.9 L195.1 67.85 Q195.45 67.95 195.6 68.2 L195.65 68.8 195.3 69.25 194.75 69.35 M188.8 66.6 L188.5 67.05 187.85 67.1 187.4 66.75 187.35 66.15 Q187.45 65.85 187.7 65.7 L188.3 65.65 188.75 65.95 188.8 66.6 M237.8 72.15 Q237.9 71.85 238.15 71.7 L238.75 71.65 239.25 72.0 239.3 72.6 238.9 73.05 238.35 73.1 Q238.05 73.0 237.9 72.75 L237.8 72.15 M231.7 73.4 L231.25 73.0 231.2 72.45 Q231.25 72.15 231.55 72.0 L232.15 71.9 232.6 72.25 232.65 72.85 232.35 73.35 231.7 73.4 M226.6 74.25 L226.25 74.7 225.65 74.75 225.2 74.4 225.1 73.8 225.5 73.35 226.05 73.3 Q226.4 73.35 226.55 73.6 L226.6 74.25 M244.6 74.4 L244.15 74.05 244.05 73.45 Q244.15 73.15 244.4 73.0 L245.0 72.95 Q245.35 73.0 245.5 73.3 L245.55 73.9 245.15 74.35 244.6 74.4 M232.55 39.75 L232.0 39.85 231.55 39.5 231.45 38.9 Q231.55 38.55 231.8 38.4 L232.4 38.35 Q232.75 38.45 232.9 38.75 L232.95 39.3 232.55 39.75 M229.7 51.3 L229.4 51.75 228.75 51.85 228.3 51.5 228.25 50.9 228.6 50.4 229.2 50.35 229.65 50.75 229.7 51.3 M231.2 45.85 L230.65 45.95 230.15 45.6 230.1 45.0 230.45 44.5 231.05 44.45 231.5 44.85 231.6 45.4 231.2 45.85 M224.5 44.25 L223.9 44.3 223.45 43.9 223.4 43.35 223.7 42.9 224.35 42.8 224.8 43.15 224.85 43.75 224.5 44.25 M220.45 60.8 L220.05 61.3 219.5 61.35 219.0 61.0 Q218.85 60.7 218.95 60.4 L219.3 59.95 219.9 59.85 220.35 60.25 220.45 60.8 M225.9 57.4 L225.9 57.75 225.55 58.2 224.95 58.25 224.45 57.95 224.4 57.3 224.8 56.85 225.35 56.8 225.65 57.0 225.7 56.6 Q225.8 56.3 226.05 56.15 L226.65 56.05 227.1 56.45 227.2 57.0 226.8 57.5 226.25 57.55 225.9 57.4 M225.5 56.1 L225.15 56.6 224.55 56.65 224.05 56.25 224.0 55.7 224.4 55.25 224.95 55.15 225.4 55.5 225.5 56.1 M221.05 51.9 L220.45 52.0 219.95 51.65 219.9 51.1 220.3 50.55 Q220.55 50.4 220.85 50.55 L221.3 50.9 221.4 51.45 221.05 51.9 M222.15 49.7 L221.85 50.15 221.2 50.25 Q220.9 50.15 220.75 49.9 220.6 49.6 220.7 49.3 220.75 48.95 221.05 48.8 L221.65 48.75 222.1 49.15 222.15 49.7 M216.35 55.0 L216.0 55.45 215.45 55.55 214.95 55.2 214.9 54.6 215.25 54.1 215.8 54.05 Q216.15 54.15 216.3 54.45 L216.35 55.0 M208.1 47.65 L208.05 47.2 207.95 47.05 207.9 46.45 Q208.0 46.15 208.3 46.0 L208.85 45.95 Q209.05 45.95 209.25 46.1 L209.3 46.2 209.8 46.5 209.85 47.15 209.5 47.6 209.2 47.9 208.6 48.0 208.1 47.65 M211.45 41.7 L211.4 41.1 Q211.5 40.8 211.75 40.65 L212.35 40.55 Q212.65 40.65 212.8 40.95 L212.9 41.5 212.5 42.0 211.95 42.05 211.45 41.7 M214.65 36.45 L214.15 36.1 Q214.0 35.8 214.1 35.5 214.2 35.15 214.45 35.0 L215.05 34.95 215.5 35.35 215.6 35.9 215.2 36.35 214.65 36.45 M211.95 31.65 L211.55 32.1 211.0 32.15 210.55 31.85 210.45 31.2 Q210.55 30.9 210.8 30.75 L211.4 30.7 Q211.75 30.75 211.9 31.05 L211.95 31.65 M204.2 43.5 L203.85 43.95 203.25 44.0 202.75 43.65 Q202.6 43.4 202.7 43.05 L203.1 42.6 203.65 42.55 Q203.95 42.6 204.1 42.85 L204.2 43.5 M204.2 42.55 L203.75 42.2 203.65 41.6 204.05 41.15 204.6 41.1 205.1 41.45 205.15 42.05 204.8 42.5 204.2 42.55 M207.5 37.35 L207.05 36.95 207.0 36.4 207.3 35.95 207.95 35.85 Q208.25 35.95 208.4 36.2 L208.45 36.8 208.05 37.3 207.5 37.35 M226.6 38.5 L226.15 38.1 226.05 37.55 226.45 37.1 227.0 37.05 Q227.35 37.1 227.5 37.35 L227.55 38.0 227.2 38.45 226.6 38.5 M232.4 33.3 L232.35 32.75 Q232.45 32.4 232.7 32.25 L233.3 32.2 Q233.6 32.3 233.75 32.55 L233.8 33.15 233.45 33.6 232.85 33.7 232.4 33.3 M230.3 32.25 L229.9 32.7 229.35 32.75 228.9 32.45 228.85 31.85 229.15 31.35 Q229.45 31.2 229.8 31.35 L230.25 31.65 230.3 32.25 M230.2 27.35 L230.1 26.75 230.3 26.4 229.95 26.45 229.45 26.05 229.4 25.5 229.8 25.0 230.35 24.95 Q230.65 25.05 230.8 25.3 L230.9 25.9 230.7 26.15 231.05 26.2 Q231.4 26.3 231.55 26.6 L231.6 27.15 231.25 27.6 230.65 27.7 Q230.35 27.6 230.2 27.35 M219.45 24.95 L218.95 24.6 Q218.8 24.35 218.9 24.0 L219.3 23.55 219.4 23.5 219.3 22.85 219.7 22.4 220.25 22.35 220.75 22.7 220.8 23.3 220.45 23.75 220.4 23.8 220.3 23.8 220.4 24.45 220.05 24.9 219.45 24.95 M218.1 30.2 L217.8 30.65 217.2 30.7 Q216.85 30.65 216.7 30.4 216.55 30.15 216.7 29.75 216.75 29.45 217.0 29.3 L217.6 29.25 Q217.9 29.4 218.05 29.65 L218.1 30.2 M215.4 26.55 L215.0 27.0 214.45 27.1 213.95 26.7 213.9 26.15 214.25 25.65 214.85 25.6 215.3 25.95 215.4 26.55 M217.5 21.05 L217.15 21.5 216.55 21.6 216.1 21.2 216.05 20.65 216.4 20.15 217.0 20.1 217.45 20.45 217.5 21.05 M218.15 18.1 L217.8 18.6 217.2 18.65 216.75 18.25 216.65 17.7 217.05 17.25 217.6 17.15 Q217.95 17.25 218.1 17.5 L218.15 18.1 M195.55 25.4 L196.1 25.3 196.6 25.7 196.65 26.25 196.3 26.75 195.75 26.8 195.25 26.45 195.2 25.85 195.55 25.4 M193.4 24.65 L192.85 24.75 192.4 24.35 192.3 23.8 Q192.4 23.45 192.65 23.3 L193.25 23.25 193.75 23.6 193.8 24.2 193.4 24.65 M199.35 20.8 L199.0 21.25 198.4 21.35 197.9 20.95 197.85 20.4 198.25 19.9 198.8 19.85 199.25 20.2 199.35 20.8 M195.35 19.25 L194.9 18.85 194.8 18.3 Q194.9 17.95 195.15 17.8 L195.75 17.75 196.25 18.1 196.3 18.7 195.9 19.15 195.35 19.25 M196.4 16.2 L195.8 16.25 195.35 15.95 195.3 15.3 Q195.35 15.0 195.65 14.85 L196.25 14.8 196.7 15.2 196.75 15.75 196.4 16.2 M182.55 64.1 L182.5 63.55 182.9 63.1 183.45 63.05 Q183.75 63.1 183.9 63.35 L184.0 64.0 183.65 64.45 183.05 64.5 182.55 64.1 M184.0 58.1 L183.65 58.6 183.05 58.65 182.55 58.25 182.5 57.7 182.9 57.25 183.45 57.15 Q183.75 57.25 183.9 57.5 L184.0 58.1 M188.05 61.15 L187.6 60.75 187.55 60.2 Q187.65 59.9 187.9 59.75 L188.5 59.65 Q188.8 59.75 188.95 60.0 L189.0 60.6 188.65 61.1 188.05 61.15 M193.05 57.45 L192.95 56.9 193.35 56.4 193.9 56.35 Q194.25 56.45 194.4 56.7 L194.45 57.3 194.1 57.75 193.5 57.85 193.05 57.45 M189.1 54.55 L188.75 55.0 188.15 55.05 187.65 54.7 Q187.5 54.45 187.6 54.1 L188.0 53.65 188.55 53.6 189.0 53.95 189.1 54.55 M184.75 45.0 L184.4 45.45 183.8 45.5 183.35 45.15 183.3 44.55 Q183.35 44.25 183.65 44.1 L184.25 44.05 184.7 44.35 184.75 45.0 M179.75 48.4 L179.4 48.85 178.8 48.9 178.35 48.6 178.3 47.95 Q178.4 47.65 178.65 47.5 L179.25 47.45 179.7 47.85 179.75 48.4 M173.7 52.3 L173.25 52.0 173.15 51.35 173.55 50.9 174.1 50.85 174.6 51.25 174.65 51.8 174.3 52.25 173.7 52.3 M199.65 54.0 L199.25 54.5 198.7 54.55 198.25 54.2 198.15 53.6 Q198.25 53.3 198.5 53.15 L199.1 53.05 199.6 53.45 199.65 54.0 M194.1 50.8 L193.75 51.25 193.15 51.35 192.7 51.0 192.6 50.45 193.0 49.9 Q193.25 49.75 193.55 49.9 193.9 50.0 194.05 50.25 L194.1 50.8 M204.95 50.8 L204.55 51.25 204.0 51.3 203.5 50.95 203.45 50.35 Q203.55 50.05 203.8 49.9 L204.4 49.85 204.85 50.2 204.95 50.8 M199.1 47.1 L198.8 47.6 198.15 47.65 Q197.85 47.55 197.7 47.25 L197.65 46.7 198.05 46.25 198.6 46.15 199.05 46.5 199.1 47.1 M187.55 43.25 L186.9 43.3 Q186.6 43.2 186.45 42.9 L186.4 42.35 Q186.5 42.05 186.75 41.9 L187.35 41.85 Q187.65 41.9 187.8 42.15 L187.85 42.8 187.55 43.25 M189.75 37.65 L189.7 37.0 190.1 36.55 190.65 36.5 191.1 36.85 191.2 37.45 190.85 37.9 190.25 37.95 189.75 37.65 M185.9 34.55 L185.25 34.65 184.8 34.3 Q184.65 34.0 184.75 33.7 L185.15 33.2 185.7 33.15 186.15 33.55 186.2 34.1 185.9 34.55 M183.15 38.25 L183.2 38.85 182.85 39.3 182.25 39.35 181.85 39.15 181.8 39.05 181.75 38.4 182.05 37.95 182.7 37.9 182.75 37.9 183.15 38.25 M193.9 31.9 L193.55 32.45 192.95 32.45 192.45 32.1 192.4 31.55 192.8 31.1 193.35 31.0 193.8 31.35 193.9 31.9 M190.0 29.15 L189.6 29.6 189.05 29.7 188.6 29.3 188.55 28.75 188.85 28.25 189.5 28.2 189.95 28.55 190.0 29.15 M172.75 45.9 L172.35 46.35 171.8 46.4 171.35 46.05 171.25 45.45 Q171.35 45.15 171.6 45.0 L172.2 44.95 Q172.55 45.0 172.7 45.25 L172.75 45.9 M177.85 42.3 L177.45 42.75 176.9 42.85 176.45 42.45 176.35 41.9 Q176.45 41.55 176.7 41.4 L177.3 41.35 177.8 41.7 177.85 42.3 M233.25 30.8 L232.75 30.45 Q232.6 30.15 232.7 29.85 232.8 29.55 233.05 29.4 L233.6 29.3 234.1 29.7 234.15 30.25 233.8 30.75 233.25 30.8 M231.85 24.45 L231.5 24.9 230.9 24.95 230.45 24.65 230.35 24.0 230.75 23.55 231.3 23.5 231.8 23.9 231.85 24.45 M163.1 25.35 L162.75 25.8 162.15 25.85 Q161.8 25.8 161.65 25.55 L161.6 24.9 Q161.7 24.6 162.0 24.45 L162.55 24.4 163.0 24.75 163.1 25.35 M158.9 26.1 L158.35 26.2 157.85 25.85 157.8 25.25 Q157.9 24.9 158.15 24.75 L158.7 24.7 159.2 25.1 159.25 25.65 158.9 26.1 M158.85 21.0 L158.4 20.6 158.3 20.05 158.7 19.6 159.25 19.5 Q159.6 19.6 159.75 19.85 L159.8 20.45 159.45 20.95 158.85 21.0 M157.1 20.1 L156.65 19.75 156.55 19.15 156.95 18.65 157.5 18.6 158.0 19.0 158.05 19.55 157.7 20.0 157.1 20.1" fill="#1596ea" fill-opacity="0.5019608" fill-rule="evenodd" stroke="none"/>
  </g>
</svg>
