<?xml version="1.0" encoding="UTF-8" standalone="no"?>
<svg xmlns:ffdec="https://www.free-decompiler.com/flash" xmlns:xlink="http://www.w3.org/1999/xlink" ffdec:objectType="shape" height="66.35px" width="62.2px" xmlns="http://www.w3.org/2000/svg">
  <g transform="matrix(1.0, 0.0, 0.0, 1.0, -2.0, -3.6)">
    <path d="M11.35 59.3 L2.0 58.35 2.35 56.3 12.3 58.05 11.35 59.3" fill="#03224f" fill-rule="evenodd" stroke="none"/>
    <path d="M59.45 69.95 L47.75 66.7 47.05 65.1 59.7 67.8 59.45 69.95" fill="#03224f" fill-rule="evenodd" stroke="none"/>
    <path d="M60.05 65.75 L48.35 62.5 47.65 60.9 60.3 63.6 60.05 65.75" fill="#03224f" fill-rule="evenodd" stroke="none"/>
    <path d="M60.5 61.25 L48.75 58.0 48.05 56.4 60.7 59.1 60.5 61.25" fill="#03224f" fill-rule="evenodd" stroke="none"/>
    <path d="M11.8 55.3 L2.4 54.3 2.75 52.25 12.7 54.0 11.8 55.3" fill="#03224f" fill-rule="evenodd" stroke="none"/>
    <path d="M2.95 50.05 L3.3 48.0 13.25 49.75 12.3 51.0 2.95 50.05" fill="#03224f" fill-rule="evenodd" stroke="none"/>
    <path d="M64.15 11.45 L63.7 14.75 Q63.3 17.9 62.45 20.6 L61.6 22.2 Q60.2 24.25 57.8 26.1 50.0 32.2 34.35 34.9 23.4 36.8 13.45 45.2 8.5 49.45 5.75 53.25 5.0 54.25 4.6 54.1 4.2 53.95 4.35 52.7 L9.65 11.25 Q9.8 10.05 10.6 8.6 11.35 7.15 12.3 6.35 L13.25 5.55 15.75 4.15 Q17.3 3.6 18.55 3.6 L56.35 3.6 59.1 4.2 Q60.65 4.8 61.55 5.65 L62.35 6.4 Q63.25 7.25 63.8 8.75 64.3 10.2 64.15 11.45" fill="url(#gradient0)" fill-rule="evenodd" stroke="none"/>
    <path d="M59.2 41.2 Q57.05 51.35 49.55 58.0 42.1 64.6 32.7 64.6 L27.8 64.05 Q22.7 62.95 18.5 59.85 14.35 56.75 11.6 52.0 8.8 47.2 8.0 41.65 7.15 36.05 8.4 30.35 10.55 20.2 18.05 13.6 25.5 7.0 34.9 7.0 L39.85 7.5 Q44.9 8.6 49.1 11.7 53.25 14.85 56.0 19.6 58.8 24.35 59.6 29.95 60.45 35.55 59.2 41.2" fill="url(#gradient1)" fill-rule="evenodd" stroke="none"/>
    <path d="M56.45 19.35 Q62.25 29.4 59.7 41.3 57.45 51.75 49.75 58.45 42.15 65.1 32.7 65.1 L27.65 64.55 Q16.9 62.25 11.15 52.2 5.35 42.15 7.9 30.25 10.15 19.85 17.85 13.15 25.45 6.5 34.9 6.5 L39.95 7.0 Q50.7 9.3 56.45 19.35 M58.75 41.1 Q59.9 35.5 59.1 30.05 58.3 24.55 55.6 19.85 52.9 15.15 48.8 12.1 44.7 9.05 39.7 8.0 L34.9 7.5 Q25.7 7.5 18.35 14.0 11.0 20.5 8.85 30.5 7.7 36.05 8.5 41.55 9.3 47.05 12.0 51.75 14.7 56.4 18.8 59.45 22.9 62.5 27.9 63.6 L32.7 64.1 Q41.9 64.1 49.25 57.6 56.6 51.1 58.75 41.1" fill="#00d4ff" fill-rule="evenodd" stroke="none"/>
  </g>
  <defs>
    <linearGradient gradientTransform="matrix(0.0102, 0.0252, 0.0266, -0.007, 31.25, 21.05)" gradientUnits="userSpaceOnUse" id="gradient0" spreadMethod="pad" x1="-819.2" x2="819.2">
      <stop offset="0.0" stop-color="#91ffff"/>
      <stop offset="0.20784313725490197" stop-color="#73eefc" stop-opacity="0.8039216"/>
      <stop offset="0.5647058823529412" stop-color="#44d5f8" stop-opacity="0.5058824"/>
      <stop offset="0.8431372549019608" stop-color="#27c5f6" stop-opacity="0.31764707"/>
      <stop offset="1.0" stop-color="#1cbff5" stop-opacity="0.24705882"/>
    </linearGradient>
    <linearGradient gradientTransform="matrix(0.0319, 0.0, 0.0, -0.0319, 33.8, 35.8)" gradientUnits="userSpaceOnUse" id="gradient1" spreadMethod="pad" x1="-819.2" x2="819.2">
      <stop offset="0.0" stop-color="#005cb5"/>
      <stop offset="0.19215686274509805" stop-color="#004da3"/>
      <stop offset="0.32941176470588235" stop-color="#00479c"/>
      <stop offset="1.0" stop-color="#008cff"/>
    </linearGradient>
  </defs>
</svg>
