<?xml version="1.0" encoding="UTF-8" standalone="no"?>
<svg xmlns:ffdec="https://www.free-decompiler.com/flash" xmlns:xlink="http://www.w3.org/1999/xlink" ffdec:objectType="shape" height="63.3px" width="43.25px" xmlns="http://www.w3.org/2000/svg">
  <g transform="matrix(1.0, 0.0, 0.0, 1.0, -11.3, -12.3)">
    <path d="M37.1 19.25 Q43.3 20.55 46.7 26.45 50.05 32.3 48.6 39.25 47.35 45.3 42.85 49.2 38.4 53.15 32.85 53.15 L29.95 52.85 Q23.7 51.55 20.35 45.65 16.95 39.85 18.45 32.85 19.75 26.8 24.2 22.9 28.65 18.95 34.2 18.95 L37.1 19.25" fill="url(#gradient0)" fill-rule="evenodd" stroke="none"/>
    <path d="M34.2 18.45 L37.2 18.75 Q43.65 20.15 47.15 26.15 50.6 32.2 49.1 39.35 47.75 45.65 43.1 49.65 38.55 53.65 32.85 53.65 L29.85 53.3 Q23.4 51.95 19.9 45.9 16.4 39.85 17.95 32.7 19.3 26.45 23.9 22.45 28.5 18.45 34.2 18.45 M46.3 26.7 Q43.05 21.05 37.0 19.75 L34.2 19.45 Q28.8 19.45 24.5 23.25 20.2 27.05 18.95 32.95 17.5 39.7 20.75 45.4 24.0 51.05 30.05 52.35 L32.85 52.65 Q38.2 52.65 42.55 48.85 46.85 45.0 48.1 39.15 49.55 32.4 46.3 26.7" fill="#386562" fill-rule="evenodd" stroke="none"/>
    <path d="M35.65 32.1 Q32.2 31.35 27.4 32.2 L20.05 33.85 Q16.45 34.6 15.2 33.8 13.6 32.75 14.45 28.85 16.25 20.4 23.3 15.7 30.4 11.0 38.6 12.75 46.8 14.5 51.35 21.7 55.85 28.85 54.05 37.3 53.25 41.2 51.7 41.55 50.55 41.8 48.1 39.8 L42.8 35.5 Q39.15 32.85 35.65 32.1" fill="url(#gradient1)" fill-rule="evenodd" stroke="none"/>
    <path d="M43.85 75.6 L11.3 68.8 14.65 64.25 42.2 69.65 43.85 75.6" fill="#03224f" fill-rule="evenodd" stroke="none"/>
    <path d="M33.6 24.3 Q31.05 26.0 27.45 27.45 L28.0 24.35 Q32.6 22.25 35.85 18.95 L37.8 19.3 32.9 47.35 29.65 46.8 33.6 24.3" fill="#ffff00" fill-rule="evenodd" stroke="none"/>
  </g>
  <defs>
    <radialGradient cx="0" cy="0" gradientTransform="matrix(0.0199, 0.0, 0.0, -0.0199, 33.5, 36.05)" gradientUnits="userSpaceOnUse" id="gradient0" r="819.2" spreadMethod="pad">
      <stop offset="0.0" stop-color="#bf6b00"/>
      <stop offset="0.10588235294117647" stop-color="#b96903"/>
      <stop offset="0.25098039215686274" stop-color="#a8610c"/>
      <stop offset="0.41568627450980394" stop-color="#8c561b"/>
      <stop offset="0.592156862745098" stop-color="#65462f"/>
      <stop offset="0.7843137254901961" stop-color="#333149"/>
      <stop offset="0.9529411764705882" stop-color="#001c63"/>
    </radialGradient>
    <linearGradient gradientTransform="matrix(0.0031, -0.0145, -0.0153, -0.0033, 35.9, 25.25)" gradientUnits="userSpaceOnUse" id="gradient1" spreadMethod="pad" x1="-819.2" x2="819.2">
      <stop offset="0.0" stop-color="#458eff" stop-opacity="0.28627452"/>
      <stop offset="0.14901960784313725" stop-color="#4b93f2" stop-opacity="0.34117648"/>
      <stop offset="0.4235294117647059" stop-color="#5ca2d1" stop-opacity="0.48235294"/>
      <stop offset="0.788235294117647" stop-color="#78b89c" stop-opacity="0.7137255"/>
      <stop offset="1.0" stop-color="#89c77a" stop-opacity="0.85882354"/>
    </linearGradient>
  </defs>
</svg>
