<?xml version="1.0" encoding="UTF-8" standalone="no"?>
<svg xmlns:ffdec="https://www.free-decompiler.com/flash" xmlns:xlink="http://www.w3.org/1999/xlink" ffdec:objectType="shape" height="100.55px" width="504.7px" xmlns="http://www.w3.org/2000/svg">
  <g transform="matrix(1.0, 0.0, 0.0, 1.0, 0.0, 0.0)">
    <path d="M501.7 47.85 Q502.95 47.85 503.8 48.5 504.7 49.15 504.7 50.1 504.7 51.05 503.8 51.7 502.95 52.35 501.7 52.35 L470.4 52.35 Q469.15 52.35 468.3 53.25 467.4 54.1 467.4 55.35 L467.4 74.05 Q467.4 75.35 467.95 76.9 468.45 78.5 469.2 79.45 L470.55 81.2 Q471.3 82.2 471.85 83.75 472.4 85.3 472.4 86.55 L472.4 94.55 Q472.4 95.8 471.5 96.65 470.65 97.55 469.4 97.55 L344.65 97.55 Q341.5 97.55 338.8 98.5 L335.45 99.6 Q332.5 100.55 329.65 100.55 L137.65 100.55 Q134.75 100.55 131.8 99.5 L129.45 98.6 Q126.75 97.55 123.6 97.55 L3.0 97.55 Q1.75 97.55 0.9 96.65 0.0 95.8 0.0 94.55 L0.0 82.8 Q0.0 81.55 0.5 79.95 1.05 78.35 1.75 77.35 L2.3 76.55 Q3.0 75.55 3.5 73.95 4.0 72.35 4.0 71.05 L4.0 29.55 Q4.0 28.3 3.5 26.7 3.05 25.1 2.35 24.1 L1.7 23.05 Q1.0 22.05 0.5 20.45 0.0 18.85 0.0 17.55 L0.0 6.0 Q0.0 4.75 0.9 3.9 1.75 3.0 3.0 3.0 L123.6 3.0 Q126.75 3.0 129.45 1.95 L131.8 1.05 Q134.75 0.0 137.65 0.0 L329.65 0.0 Q332.5 0.0 335.45 0.95 L338.8 2.05 Q341.75 3.0 344.65 3.0 L469.4 3.0 Q470.65 3.0 471.5 3.9 472.4 4.75 472.4 6.0 L472.4 13.05 Q472.4 14.3 471.8 15.9 L470.45 18.4 469.3 19.75 Q468.5 20.75 467.95 22.25 467.4 23.8 467.4 25.05 L467.4 44.85 Q467.4 46.1 468.3 46.95 469.15 47.85 470.4 47.85 L501.7 47.85" fill="url(#gradient0)" fill-rule="evenodd" stroke="none"/>
  </g>
  <defs>
    <linearGradient gradientTransform="matrix(0.308, 0.0, 0.0, -0.308, 252.35, 50.25)" gradientUnits="userSpaceOnUse" id="gradient0" spreadMethod="pad" x1="-819.2" x2="819.2">
      <stop offset="0.0" stop-color="#050d1f"/>
      <stop offset="0.5411764705882353" stop-color="#002b00"/>
      <stop offset="1.0" stop-color="#050d1f"/>
    </linearGradient>
  </defs>
</svg>
