<?xml version="1.0" encoding="UTF-8" standalone="no"?>
<svg xmlns:ffdec="https://www.free-decompiler.com/flash" xmlns:xlink="http://www.w3.org/1999/xlink" ffdec:objectType="shape" height="77.6px" width="65.55px" xmlns="http://www.w3.org/2000/svg">
  <g transform="matrix(1.0, 0.0, 0.0, 1.0, -1.0, -1.0)">
    <path d="M7.6 8.35 Q7.7 7.5 8.2 6.55 8.75 5.55 9.35 5.05 L12.4 2.3 Q13.0 1.75 14.05 1.4 L15.9 1.0 59.2 1.0 61.05 1.4 62.65 2.4 65.35 5.0 Q65.95 5.55 66.3 6.55 L66.55 8.35 58.3 76.95 Q58.25 77.75 57.6 78.25 56.95 78.7 56.1 78.55 L2.75 67.4 Q1.95 67.25 1.4 66.55 0.9 65.85 1.0 65.0 L7.6 8.35" fill="url(#gradient0)" fill-rule="evenodd" stroke="none"/>
    <path d="M11.35 59.3 L1.95 58.3 2.35 56.25 12.25 58.0 11.35 59.3" fill="#0f3033" fill-rule="evenodd" stroke="none"/>
    <path d="M59.45 69.9 L47.7 66.65 47.05 65.05 59.7 67.75 59.45 69.9" fill="#0f3033" fill-rule="evenodd" stroke="none"/>
    <path d="M60.05 65.7 L48.3 62.45 47.65 60.85 60.3 63.55 60.05 65.7" fill="#0f3033" fill-rule="evenodd" stroke="none"/>
    <path d="M60.45 61.2 L48.75 58.0 48.05 56.35 60.7 59.1 60.45 61.2" fill="#0f3033" fill-rule="evenodd" stroke="none"/>
    <path d="M11.8 55.25 L2.4 54.25 2.75 52.25 12.7 54.0 11.8 55.25" fill="#0f3033" fill-rule="evenodd" stroke="none"/>
    <path d="M12.3 51.0 L2.9 50.0 3.3 47.95 13.2 49.7 12.3 51.0" fill="#0f3033" fill-rule="evenodd" stroke="none"/>
  </g>
  <defs>
    <linearGradient gradientTransform="matrix(0.0, -0.0474, -0.0474, -0.0061, 33.3, 39.75)" gradientUnits="userSpaceOnUse" id="gradient0" spreadMethod="pad" x1="-819.2" x2="819.2">
      <stop offset="0.0" stop-color="#084d40"/>
      <stop offset="0.07058823529411765" stop-color="#0e4c3d"/>
      <stop offset="0.3568627450980392" stop-color="#204833"/>
      <stop offset="0.6588235294117647" stop-color="#2a462d"/>
      <stop offset="1.0" stop-color="#2e452b"/>
    </linearGradient>
  </defs>
</svg>
