<?xml version="1.0" encoding="UTF-8" standalone="no"?>
<svg xmlns:ffdec="https://www.free-decompiler.com/flash" xmlns:xlink="http://www.w3.org/1999/xlink" ffdec:objectType="shape" height="66.3px" width="62.2px" xmlns="http://www.w3.org/2000/svg">
  <g transform="matrix(1.0, 0.0, 0.0, 1.0, -2.0, -3.6)">
    <path d="M11.4 59.3 L2.0 58.3 2.35 56.25 12.3 58.0 11.4 59.3" fill="#0f3033" fill-rule="evenodd" stroke="none"/>
    <path d="M47.75 66.65 L47.05 65.05 59.7 67.75 59.45 69.9 47.75 66.65" fill="#0f3033" fill-rule="evenodd" stroke="none"/>
    <path d="M48.35 62.45 L47.65 60.85 60.3 63.55 60.05 65.7 48.35 62.45" fill="#0f3033" fill-rule="evenodd" stroke="none"/>
    <path d="M48.75 58.0 L48.1 56.35 60.75 59.1 60.5 61.2 48.75 58.0" fill="#0f3033" fill-rule="evenodd" stroke="none"/>
    <path d="M11.8 55.25 L2.4 54.25 2.8 52.25 12.7 54.0 11.8 55.25" fill="#0f3033" fill-rule="evenodd" stroke="none"/>
    <path d="M12.35 51.0 L2.95 50.0 3.3 47.95 13.25 49.7 12.35 51.0" fill="#0f3033" fill-rule="evenodd" stroke="none"/>
    <path d="M34.35 34.85 Q23.4 36.75 13.5 45.15 10.4 47.8 7.75 50.75 L5.75 53.2 Q5.05 54.2 4.65 54.05 4.2 53.9 4.4 52.65 L9.7 11.3 Q9.85 10.05 10.65 8.6 11.4 7.15 12.35 6.35 L13.3 5.55 Q14.25 4.75 15.8 4.15 17.3 3.6 18.55 3.6 L56.35 3.6 59.1 4.2 Q60.65 4.8 61.55 5.65 L62.35 6.4 Q63.25 7.25 63.8 8.75 64.3 10.2 64.15 11.45 L63.7 14.75 Q63.3 17.9 62.45 20.6 61.7 23.1 57.8 26.1 50.0 32.15 34.35 34.85" fill="url(#gradient0)" fill-rule="evenodd" stroke="none"/>
    <path d="M59.25 41.15 Q57.1 51.3 49.6 57.95 42.05 64.55 32.7 64.55 L27.8 64.05 Q22.7 62.95 18.5 59.85 14.35 56.7 11.6 51.95 8.85 47.15 8.0 41.6 7.2 36.05 8.4 30.35 10.6 20.2 18.1 13.6 25.6 7.0 34.95 7.0 L39.85 7.5 Q44.95 8.6 49.15 11.7 53.3 14.85 56.05 19.6 58.8 24.4 59.6 29.95 60.45 35.5 59.25 41.15" fill="url(#gradient1)" fill-rule="evenodd" stroke="none"/>
    <path d="M34.95 6.5 L39.95 7.05 Q50.65 9.35 56.45 19.35 62.25 29.4 59.75 41.25 57.5 51.7 49.8 58.4 42.15 65.05 32.7 65.05 L27.7 64.5 Q16.95 62.2 11.15 52.2 5.35 42.15 7.9 30.25 10.15 19.85 17.85 13.15 25.45 6.5 34.95 6.5 M39.75 8.0 L34.95 7.5 Q25.75 7.5 18.4 14.0 11.05 20.5 8.9 30.45 7.7 36.05 8.5 41.55 9.3 47.0 12.05 51.7 14.7 56.35 18.8 59.4 22.9 62.45 27.9 63.55 L32.7 64.05 Q41.9 64.05 49.25 57.55 56.6 51.05 58.75 41.05 59.95 35.5 59.15 30.0 58.3 24.55 55.6 19.85 52.9 15.2 48.8 12.15 44.75 9.1 39.75 8.0" fill="#57e187" fill-rule="evenodd" stroke="none"/>
  </g>
  <defs>
    <linearGradient gradientTransform="matrix(0.0102, 0.0252, 0.0266, -0.007, 31.3, 21.05)" gradientUnits="userSpaceOnUse" id="gradient0" spreadMethod="pad" x1="-819.2" x2="819.2">
      <stop offset="0.0" stop-color="#e8ff87"/>
      <stop offset="0.20784313725490197" stop-color="#caf284" stop-opacity="0.8039216"/>
      <stop offset="0.5647058823529412" stop-color="#9bdd80" stop-opacity="0.5058824"/>
      <stop offset="0.8431372549019608" stop-color="#7ed17e" stop-opacity="0.31764707"/>
      <stop offset="1.0" stop-color="#73cc7d" stop-opacity="0.24705882"/>
    </linearGradient>
    <linearGradient gradientTransform="matrix(0.0319, 0.0, 0.0, -0.0319, 33.8, 35.75)" gradientUnits="userSpaceOnUse" id="gradient1" spreadMethod="pad" x1="-819.2" x2="819.2">
      <stop offset="0.0" stop-color="#57693d"/>
      <stop offset="0.19215686274509805" stop-color="#575a2b"/>
      <stop offset="0.32941176470588235" stop-color="#575424"/>
      <stop offset="1.0" stop-color="#579987"/>
    </linearGradient>
  </defs>
</svg>
