<?xml version="1.0" encoding="UTF-8" standalone="no"?>
<svg xmlns:ffdec="https://www.free-decompiler.com/flash" xmlns:xlink="http://www.w3.org/1999/xlink" ffdec:objectType="shape" height="63.25px" width="43.25px" xmlns="http://www.w3.org/2000/svg">
  <g transform="matrix(1.0, 0.0, 0.0, 1.0, -11.3, -12.3)">
    <path d="M49.05 39.3 Q47.55 46.45 41.9 50.55 36.25 54.65 29.8 53.3 23.35 51.9 19.9 45.9 16.4 39.85 17.95 32.7 19.45 25.6 25.1 21.5 30.75 17.4 37.2 18.75 43.65 20.15 47.1 26.15 50.6 32.15 49.05 39.3" fill="url(#gradient0)" fill-rule="evenodd" stroke="none"/>
    <path d="M20.05 33.8 Q16.45 34.55 15.2 33.75 13.6 32.75 14.4 28.85 16.2 20.45 23.25 15.7 30.35 11.0 38.55 12.75 46.75 14.5 51.3 21.7 55.85 28.9 54.05 37.25 53.2 41.15 51.7 41.5 50.55 41.8 48.05 39.75 L42.8 35.45 Q39.15 32.85 35.65 32.1 32.2 31.35 27.4 32.2 L20.05 33.8" fill="url(#gradient1)" fill-rule="evenodd" stroke="none"/>
    <path d="M43.85 75.55 L11.3 68.8 14.65 64.25 42.15 69.65 43.85 75.55" fill="#0f3033" fill-rule="evenodd" stroke="none"/>
    <path d="M43.15 28.6 Q42.45 31.05 39.55 34.15 36.65 37.3 28.85 43.65 L40.6 45.7 40.05 48.6 23.55 45.75 23.7 45.1 Q24.25 42.65 26.75 41.1 29.2 39.5 33.2 35.9 37.2 32.35 38.55 30.2 39.95 28.1 39.95 26.45 40.0 24.75 38.9 23.45 37.75 22.2 36.05 22.05 34.25 21.9 32.5 22.8 30.75 23.65 29.55 25.75 L26.55 24.8 Q28.5 21.25 30.85 19.85 33.2 18.5 35.95 18.85 L38.9 19.4 Q40.15 19.9 41.4 21.0 42.65 22.15 43.25 24.1 43.85 26.05 43.15 28.6" fill="#6e995e" fill-rule="evenodd" stroke="none"/>
  </g>
  <defs>
    <radialGradient cx="0" cy="0" gradientTransform="matrix(0.019, 0.004, 0.0045, -0.0211, 33.5, 36.0)" gradientUnits="userSpaceOnUse" id="gradient0" r="819.2" spreadMethod="pad">
      <stop offset="0.0" stop-color="#384717"/>
      <stop offset="0.25098039215686274" stop-color="#344114"/>
      <stop offset="0.5882352941176471" stop-color="#28300d"/>
      <stop offset="0.9764705882352941" stop-color="#151401"/>
      <stop offset="1.0" stop-color="#141200"/>
    </radialGradient>
    <linearGradient gradientTransform="matrix(0.0031, -0.0145, -0.0153, -0.0033, 35.9, 25.25)" gradientUnits="userSpaceOnUse" id="gradient1" spreadMethod="pad" x1="-819.2" x2="819.2">
      <stop offset="0.0" stop-color="#599b96" stop-opacity="0.28627452"/>
      <stop offset="0.5725490196078431" stop-color="#4d9c97" stop-opacity="0.57254905"/>
      <stop offset="1.0" stop-color="#409e99" stop-opacity="0.85882354"/>
    </linearGradient>
  </defs>
</svg>
