<?xml version="1.0" encoding="UTF-8" standalone="no"?>
<svg xmlns:ffdec="https://www.free-decompiler.com/flash" xmlns:xlink="http://www.w3.org/1999/xlink" ffdec:objectType="shape" height="63.25px" width="43.3px" xmlns="http://www.w3.org/2000/svg">
  <g transform="matrix(1.0, 0.0, 0.0, 1.0, -11.3, -12.3)">
    <path d="M48.6 39.2 Q47.35 45.25 42.9 49.15 38.45 53.1 32.85 53.1 L29.95 52.8 Q23.8 51.5 20.35 45.65 17.0 39.7 18.45 32.8 19.75 26.8 24.2 22.9 28.65 18.95 34.2 18.95 L37.1 19.25 Q43.35 20.6 46.75 26.45 50.1 32.25 48.6 39.2" fill="url(#gradient0)" fill-rule="evenodd" stroke="none"/>
    <path d="M23.95 22.45 Q28.55 18.45 34.2 18.45 L37.2 18.75 Q43.65 20.15 47.15 26.15 50.65 32.15 49.1 39.3 47.75 45.6 43.15 49.6 38.55 53.6 32.85 53.6 L29.85 53.3 Q23.4 51.9 19.95 45.9 16.45 39.85 17.95 32.7 19.3 26.45 23.95 22.45 M37.0 19.75 L34.2 19.45 Q28.85 19.45 24.5 23.25 20.2 27.1 18.95 32.9 17.45 39.65 20.8 45.4 22.4 48.1 24.75 49.9 27.2 51.7 30.05 52.3 L32.85 52.6 Q38.25 52.6 42.55 48.8 46.85 45.0 48.1 39.1 49.55 32.35 46.3 26.7 43.05 21.05 37.0 19.75" fill="#8f7200" fill-rule="evenodd" stroke="none"/>
    <path d="M54.1 37.25 Q53.25 41.15 51.75 41.5 50.55 41.8 48.1 39.75 L42.8 35.45 Q39.15 32.85 35.65 32.1 32.2 31.35 27.4 32.2 L20.05 33.8 Q16.45 34.55 15.2 33.75 13.6 32.75 14.45 28.85 16.25 20.45 23.3 15.7 30.4 11.0 38.6 12.75 46.8 14.5 51.35 21.7 55.9 28.9 54.1 37.25" fill="url(#gradient1)" fill-rule="evenodd" stroke="none"/>
    <path d="M14.7 64.25 L42.2 69.65 43.9 75.55 11.3 68.8 14.7 64.25" fill="#0f3033" fill-rule="evenodd" stroke="none"/>
    <path d="M40.25 20.7 L36.95 39.8 40.85 40.5 40.35 43.25 36.45 42.55 35.35 48.75 32.25 48.2 33.35 42.0 20.8 39.85 21.3 37.1 37.8 20.3 40.25 20.7 M33.85 39.25 L36.05 26.35 24.7 37.7 33.85 39.25" fill="#ffff00" fill-rule="evenodd" stroke="none"/>
  </g>
  <defs>
    <radialGradient cx="0" cy="0" gradientTransform="matrix(0.0199, 0.0, 0.0, -0.0199, 33.55, 36.0)" gradientUnits="userSpaceOnUse" id="gradient0" r="819.2" spreadMethod="pad">
      <stop offset="0.0" stop-color="#ff7800"/>
      <stop offset="0.11764705882352941" stop-color="#f97500"/>
      <stop offset="0.27058823529411763" stop-color="#e86d00"/>
      <stop offset="0.45098039215686275" stop-color="#cc6000"/>
      <stop offset="0.6431372549019608" stop-color="#a54e00"/>
      <stop offset="0.8509803921568627" stop-color="#733600"/>
      <stop offset="0.9529411764705882" stop-color="#572900"/>
    </radialGradient>
    <linearGradient gradientTransform="matrix(0.0031, -0.0145, -0.0153, -0.0033, 35.95, 25.25)" gradientUnits="userSpaceOnUse" id="gradient1" spreadMethod="pad" x1="-819.2" x2="819.2">
      <stop offset="0.0" stop-color="#59e0a3" stop-opacity="0.28627452"/>
      <stop offset="0.2" stop-color="#5ee3af" stop-opacity="0.3647059"/>
      <stop offset="0.5686274509803921" stop-color="#6cead1" stop-opacity="0.57254905"/>
      <stop offset="1.0" stop-color="#80f5ff" stop-opacity="0.85882354"/>
    </linearGradient>
  </defs>
</svg>
