<?xml version="1.0" encoding="UTF-8" standalone="no"?>
<svg xmlns:ffdec="https://www.free-decompiler.com/flash" xmlns:xlink="http://www.w3.org/1999/xlink" ffdec:objectType="shape" height="63.25px" width="43.25px" xmlns="http://www.w3.org/2000/svg">
  <g transform="matrix(1.0, 0.0, 0.0, 1.0, -11.3, -12.3)">
    <path d="M49.05 39.3 Q47.55 46.45 41.9 50.55 36.25 54.65 29.8 53.3 23.35 51.9 19.9 45.9 16.4 39.85 17.95 32.7 19.45 25.6 25.1 21.5 30.75 17.4 37.2 18.75 43.65 20.15 47.1 26.15 50.6 32.15 49.05 39.3" fill="url(#gradient0)" fill-rule="evenodd" stroke="none"/>
    <path d="M20.05 33.8 Q16.45 34.55 15.2 33.75 13.6 32.75 14.4 28.85 16.2 20.45 23.25 15.7 30.35 11.0 38.55 12.75 46.75 14.5 51.3 21.7 55.85 28.9 54.05 37.25 53.2 41.15 51.7 41.5 50.55 41.8 48.05 39.75 L42.8 35.45 Q39.15 32.85 35.65 32.1 32.2 31.35 27.4 32.2 L20.05 33.8" fill="url(#gradient1)" fill-rule="evenodd" stroke="none"/>
    <path d="M43.85 75.55 L11.3 68.8 14.65 64.25 42.15 69.65 43.85 75.55" fill="#0f3033" fill-rule="evenodd" stroke="none"/>
    <path d="M41.35 41.4 Q41.0 43.2 40.0 45.0 39.05 46.7 37.5 47.75 35.95 48.7 34.0 49.15 L29.55 48.95 Q27.1 48.35 25.2 46.35 23.3 44.35 23.15 40.25 L26.25 39.95 Q26.65 44.55 29.3 45.55 L33.9 45.8 Q35.8 45.0 36.85 43.4 37.9 41.85 38.15 39.65 38.4 37.55 37.6 35.9 36.85 34.25 35.25 33.45 33.75 32.7 31.6 32.8 29.5 32.95 27.85 34.55 L25.1 33.75 30.65 20.25 43.55 22.5 43.05 25.45 32.6 23.6 29.8 30.35 34.5 30.1 Q36.65 30.5 38.45 31.75 40.25 33.0 40.85 34.7 41.5 36.4 41.65 38.0 41.75 39.65 41.35 41.4" fill="#6e995e" fill-rule="evenodd" stroke="none"/>
  </g>
  <defs>
    <radialGradient cx="0" cy="0" gradientTransform="matrix(0.019, 0.004, 0.0045, -0.0211, 33.5, 36.0)" gradientUnits="userSpaceOnUse" id="gradient0" r="819.2" spreadMethod="pad">
      <stop offset="0.0" stop-color="#384717"/>
      <stop offset="0.25098039215686274" stop-color="#344114"/>
      <stop offset="0.5882352941176471" stop-color="#28300d"/>
      <stop offset="0.9764705882352941" stop-color="#151401"/>
      <stop offset="1.0" stop-color="#141200"/>
    </radialGradient>
    <linearGradient gradientTransform="matrix(0.0031, -0.0145, -0.0153, -0.0033, 35.9, 25.25)" gradientUnits="userSpaceOnUse" id="gradient1" spreadMethod="pad" x1="-819.2" x2="819.2">
      <stop offset="0.0" stop-color="#599b96" stop-opacity="0.28627452"/>
      <stop offset="0.5725490196078431" stop-color="#4d9c97" stop-opacity="0.57254905"/>
      <stop offset="1.0" stop-color="#409e99" stop-opacity="0.85882354"/>
    </linearGradient>
  </defs>
</svg>
