<?xml version="1.0" encoding="UTF-8" standalone="no"?>
<svg xmlns:ffdec="https://www.free-decompiler.com/flash" xmlns:xlink="http://www.w3.org/1999/xlink" ffdec:objectType="shape" height="53.0px" width="53.1px" xmlns="http://www.w3.org/2000/svg">
  <g transform="matrix(1.0, 0.0, 0.0, 1.0, -2.0, -2.6)">
    <path d="M5.95 51.5 L5.95 6.55 50.85 6.55 50.85 51.5 5.95 51.5" fill="#03296d" fill-rule="evenodd" stroke="none"/>
    <path d="M51.35 52.0 L5.45 52.0 5.45 6.05 51.35 6.05 51.35 52.0 M50.35 7.05 L6.45 7.05 6.45 51.0 50.35 51.0 50.35 7.05" fill="#0763e8" fill-rule="evenodd" stroke="none"/>
    <path d="M3.75 5.95 L3.75 10.75 2.0 10.75 2.0 4.8 4.15 2.6 10.1 2.6 10.1 4.3 5.4 4.3 3.75 5.95" fill="#0c8dc6" fill-rule="evenodd" stroke="none"/>
    <path d="M53.35 5.95 L51.65 4.3 47.0 4.3 47.0 2.6 52.95 2.6 55.1 4.8 55.1 10.75 53.35 10.75 53.35 5.95" fill="#0c8dc6" fill-rule="evenodd" stroke="none"/>
    <path d="M3.75 47.45 L3.75 52.25 5.4 53.95 10.1 53.95 10.1 55.6 4.15 55.6 2.0 53.45 2.0 47.45 3.75 47.45" fill="#0c8dc6" fill-rule="evenodd" stroke="none"/>
    <path d="M53.35 47.45 L55.1 47.45 55.1 53.45 52.95 55.6 47.0 55.6 47.0 53.95 51.65 53.95 53.35 52.25 53.35 47.45" fill="#0c8dc6" fill-rule="evenodd" stroke="none"/>
  </g>
</svg>
