<?xml version="1.0" encoding="UTF-8" standalone="no"?>
<svg xmlns:ffdec="https://www.free-decompiler.com/flash" xmlns:xlink="http://www.w3.org/1999/xlink" ffdec:objectType="shape" height="39.35px" width="39.35px" xmlns="http://www.w3.org/2000/svg">
  <g transform="matrix(1.0, 0.0, 0.0, 1.0, 0.5, 0.5)">
    <path d="M38.35 13.75 L37.35 16.45 37.35 21.3 38.35 24.0 38.35 38.35 24.0 38.35 21.35 37.35 16.45 37.35 13.75 38.35 0.0 38.35 0.0 23.9 1.0 21.15 1.0 16.4 0.0 13.65 0.0 0.0 13.75 0.0 16.45 1.0 21.35 1.0 24.0 0.0 38.35 0.0 38.35 13.75" fill="#02121e" fill-rule="evenodd" stroke="none"/>
    <path d="M38.35 13.75 L37.35 16.45 37.35 21.3 38.35 24.0 38.35 38.35 24.0 38.35 21.35 37.35 16.45 37.35 13.75 38.35 0.0 38.35 0.0 23.9 1.0 21.15 1.0 16.4 0.0 13.65 0.0 0.0 13.75 0.0 16.45 1.0 21.35 1.0 24.0 0.0 38.35 0.0 38.35 13.75 Z" fill="none" stroke="#0082fc" stroke-linecap="butt" stroke-linejoin="miter-clip" stroke-miterlimit="4.0" stroke-width="1.0"/>
  </g>
</svg>
