<?xml version="1.0" encoding="UTF-8" standalone="no"?>
<svg xmlns:ffdec="https://www.free-decompiler.com/flash" xmlns:xlink="http://www.w3.org/1999/xlink" ffdec:objectType="shape" height="19.35px" width="53.7px" xmlns="http://www.w3.org/2000/svg">
  <g transform="matrix(1.0, 0.0, 0.0, 1.0, 0.0, 0.0)">
    <path d="M53.2 16.35 Q53.2 17.35 52.45 18.1 51.7 18.85 50.7 18.85 L3.0 18.85 Q2.0 18.85 1.25 18.1 0.5 17.35 0.5 16.35 L0.5 3.0 Q0.5 1.95 1.25 1.25 2.0 0.5 3.0 0.5 L50.7 0.5 Q51.7 0.5 52.45 1.25 53.2 1.95 53.2 3.0 L53.2 16.35" fill="url(#gradient0)" fill-rule="evenodd" stroke="none"/>
    <path d="M0.0 16.35 L0.0 3.0 Q0.0 1.75 0.9 0.9 1.75 0.0 3.0 0.0 L50.7 0.0 Q51.95 0.0 52.8 0.9 53.7 1.75 53.7 3.0 L53.7 16.35 Q53.7 17.6 52.8 18.45 51.95 19.35 50.7 19.35 L3.0 19.35 Q1.75 19.35 0.9 18.45 0.0 17.6 0.0 16.35 M3.0 1.0 Q2.2 1.0 1.6 1.6 1.0 2.2 1.0 3.0 L1.0 16.35 Q1.0 17.2 1.6 17.75 2.2 18.35 3.0 18.35 L50.7 18.35 Q51.55 18.35 52.1 17.75 52.7 17.2 52.7 16.35 L52.7 3.0 Q52.7 2.2 52.1 1.6 51.55 1.0 50.7 1.0 L3.0 1.0" fill="#3f1e18" fill-rule="evenodd" stroke="none"/>
    <path d="M25.05 17.3 L27.25 2.6 28.7 2.75 26.5 17.45 25.05 17.3" fill="#ffd878" fill-rule="evenodd" stroke="none"/>
    <path d="M25.05 17.3 L26.5 17.45 28.7 2.75 27.25 2.6 25.05 17.3 Z" ffdec:has-small-stroke="true" ffdec:original-stroke-width="0.5" fill="none" stroke="#fff800" stroke-linecap="butt" stroke-linejoin="miter-clip" stroke-miterlimit="4.0" stroke-width="1.0"/>
    <path d="M26.85 3.7 Q25.6 3.7 24.8 4.25 24.0 4.85 24.0 5.75 24.0 6.85 24.9 7.45 L26.75 8.45 28.05 9.0 Q30.1 9.75 30.8 10.6 31.55 11.5 31.55 12.9 31.55 14.8 30.2 15.8 28.9 16.8 26.95 16.8 L25.5 16.7 24.3 16.35 23.2 15.75 22.2 14.85 23.35 13.8 24.85 15.0 Q25.8 15.55 26.95 15.55 28.3 15.55 29.15 14.9 29.95 14.3 29.95 13.1 29.95 11.95 29.2 11.35 L26.95 10.25 26.2 9.95 Q24.6 9.35 23.55 8.4 22.5 7.45 22.5 5.9 22.5 4.3 23.7 3.35 24.95 2.45 26.8 2.45 L29.2 2.85 Q30.15 3.3 30.95 4.1 L30.05 5.1 Q29.5 4.55 28.7 4.15 27.95 3.7 26.85 3.7" fill="#ffd878" fill-rule="evenodd" stroke="none"/>
  </g>
  <defs>
    <linearGradient gradientTransform="matrix(0.0, -0.0112, -0.0112, 0.0, 26.85, 9.65)" gradientUnits="userSpaceOnUse" id="gradient0" spreadMethod="pad" x1="-819.2" x2="819.2">
      <stop offset="0.0" stop-color="#7f2c00"/>
      <stop offset="1.0" stop-color="#c78300"/>
    </linearGradient>
  </defs>
</svg>
