<?xml version="1.0" encoding="UTF-8" standalone="no"?>
<svg xmlns:ffdec="https://www.free-decompiler.com/flash" xmlns:xlink="http://www.w3.org/1999/xlink" ffdec:objectType="shape" height="17.4px" width="48.35px" xmlns="http://www.w3.org/2000/svg">
  <g transform="matrix(1.0, 0.0, 0.0, 1.0, -2.7, -0.95)">
    <path d="M50.6 15.65 Q50.6 16.55 49.9 17.25 49.25 17.9 48.35 17.9 L5.4 17.9 Q4.5 17.9 3.8 17.25 3.15 16.55 3.15 15.65 L3.15 3.65 Q3.15 2.7 3.8 2.05 4.5 1.4 5.4 1.4 L48.35 1.4 Q49.25 1.4 49.9 2.05 50.6 2.7 50.6 3.65 L50.6 15.65" fill="url(#gradient0)" fill-rule="evenodd" stroke="none"/>
    <path d="M48.35 0.95 Q49.45 0.95 50.2 1.75 51.05 2.5 51.05 3.65 L51.05 15.65 Q51.05 16.8 50.2 17.55 49.45 18.35 48.35 18.35 L5.4 18.35 Q4.25 18.35 3.5 17.55 2.7 16.8 2.7 15.65 L2.7 3.65 Q2.7 2.5 3.5 1.75 4.25 0.95 5.4 0.95 L48.35 0.95 M50.15 3.65 Q50.15 2.95 49.6 2.4 49.1 1.85 48.35 1.85 L5.4 1.85 Q4.7 1.85 4.15 2.4 3.6 2.95 3.6 3.65 L3.6 15.65 Q3.6 16.45 4.15 16.9 4.7 17.45 5.4 17.45 L48.35 17.45 Q49.1 17.45 49.6 16.9 50.15 16.45 50.15 15.65 L50.15 3.65" fill="#803a33" fill-rule="evenodd" stroke="none"/>
    <path d="M25.25 16.5 L27.2 3.3 28.55 3.4 26.55 16.65 25.25 16.5" fill="#fee7b4" fill-rule="evenodd" stroke="none"/>
    <path d="M25.25 16.5 L26.55 16.65 28.55 3.4 27.2 3.3 25.25 16.5 Z" ffdec:has-small-stroke="true" ffdec:original-stroke-width="0.5" fill="none" stroke="#feef67" stroke-linecap="butt" stroke-linejoin="miter-clip" stroke-miterlimit="4.0" stroke-width="1.0"/>
    <path d="M26.85 4.3 Q25.75 4.3 25.0 4.75 24.3 5.3 24.3 6.1 24.3 7.1 25.1 7.65 L26.75 8.55 27.95 9.05 Q29.8 9.7 30.4 10.5 31.1 11.3 31.1 12.55 31.1 14.25 29.9 15.15 28.7 16.05 26.95 16.05 L25.65 16.0 24.55 15.65 23.6 15.1 22.7 14.3 23.7 13.35 Q24.25 14.0 25.05 14.45 25.9 14.95 26.95 14.95 28.15 14.95 28.95 14.35 29.65 13.8 29.65 12.75 29.65 11.7 29.0 11.15 L26.95 10.15 26.3 9.9 Q24.85 9.35 23.9 8.5 22.95 7.65 22.95 6.25 22.95 4.8 24.05 3.95 25.15 3.15 26.8 3.15 L29.0 3.5 Q29.85 3.9 30.55 4.65 L29.75 5.55 28.55 4.7 Q27.85 4.3 26.85 4.3" fill="#fedd92" fill-rule="evenodd" stroke="none"/>
  </g>
  <defs>
    <linearGradient gradientTransform="matrix(0.0, -0.0101, -0.0101, 0.0, 26.85, 9.65)" gradientUnits="userSpaceOnUse" id="gradient0" spreadMethod="pad" x1="-819.2" x2="819.2">
      <stop offset="0.0" stop-color="#e34502"/>
      <stop offset="1.0" stop-color="#feb445"/>
    </linearGradient>
  </defs>
</svg>
