<?xml version="1.0" encoding="UTF-8" standalone="no"?>
<svg xmlns:ffdec="https://www.free-decompiler.com/flash" xmlns:xlink="http://www.w3.org/1999/xlink" ffdec:objectType="shape" height="19.25px" width="15.7px" xmlns="http://www.w3.org/2000/svg">
  <g transform="matrix(1.0, 0.0, 0.0, 1.0, -3.35, -4.15)">
    <path d="M18.55 12.6 Q18.55 11.9 17.9 11.9 L17.1 11.9 16.95 11.9 5.05 11.9 4.9 11.9 4.55 11.9 Q3.85 11.9 3.85 12.6 L3.85 22.2 Q3.85 22.95 4.55 22.95 L17.9 22.95 Q18.55 22.95 18.55 22.2 L18.55 12.6 M17.9 11.5 Q19.05 11.5 19.05 12.6 L19.05 22.2 Q19.05 23.4 17.9 23.4 L4.55 23.4 Q3.35 23.4 3.35 22.2 L3.35 12.6 Q3.35 11.5 4.55 11.5 L4.9 11.5 Q4.65 6.05 8.75 4.55 L8.8 4.5 9.0 4.45 Q14.7 3.2 16.95 7.6 17.6 8.7 17.4 11.5 L17.9 11.5 M11.1 6.75 Q13.55 6.65 14.7 9.1 L14.7 11.5 16.95 11.5 Q17.05 8.85 16.55 7.7 14.45 3.8 9.05 4.8 L9.0 4.8 8.9 4.9 Q5.15 6.3 5.35 11.5 L7.7 11.5 7.7 9.2 Q8.5 6.9 11.1 6.75 M14.3 9.25 Q13.3 7.1 11.1 7.15 8.8 7.35 8.1 9.25 L8.1 11.5 14.3 11.5 14.3 9.25" fill="#1a2e55" fill-rule="evenodd" stroke="none"/>
    <path d="M18.55 12.6 L18.55 22.2 Q18.55 22.95 17.9 22.95 L4.55 22.95 Q3.85 22.95 3.85 22.2 L3.85 12.6 Q3.85 11.9 4.55 11.9 L4.9 11.9 5.05 11.9 16.95 11.9 17.1 11.9 17.9 11.9 Q18.55 11.9 18.55 12.6 M5.15 13.6 L5.15 21.35 Q5.15 22.05 5.85 22.05 L16.55 22.05 Q17.35 22.05 17.35 21.35 L17.35 13.6 Q17.35 12.85 16.55 12.85 L5.85 12.85 Q5.15 12.85 5.15 13.6" fill="url(#gradient0)" fill-rule="evenodd" stroke="none"/>
    <path d="M11.1 6.75 Q8.5 6.9 7.7 9.2 L7.7 11.5 5.35 11.5 Q5.15 6.3 8.9 4.9 L9.0 4.8 9.05 4.8 Q14.45 3.8 16.55 7.7 17.05 8.85 16.95 11.5 L14.7 11.5 14.7 9.1 Q13.55 6.65 11.1 6.75" fill="url(#gradient1)" fill-rule="evenodd" stroke="none"/>
    <path d="M5.15 13.6 Q5.15 12.85 5.85 12.85 L16.55 12.85 Q17.35 12.85 17.35 13.6 L17.35 21.35 Q17.35 22.05 16.55 22.05 L5.85 22.05 Q5.15 22.05 5.15 21.35 L5.15 13.6" fill="url(#gradient2)" fill-rule="evenodd" stroke="none"/>
    <path d="M10.05 15.5 Q10.5 15.1 11.1 15.1 11.7 15.1 12.1 15.5 12.5 15.85 12.5 16.45 12.5 17.0 12.1 17.4 L11.75 17.6 11.75 19.95 10.4 19.95 10.4 17.6 10.05 17.4 Q9.65 17.0 9.65 16.45 9.65 15.85 10.05 15.5 M10.3 15.75 Q10.0 16.0 10.0 16.45 10.0 16.85 10.3 17.15 L10.55 17.35 10.55 19.6 11.6 19.6 11.6 17.35 11.85 17.15 12.15 16.45 11.85 15.75 Q11.55 15.45 11.1 15.45 10.65 15.45 10.3 15.75" fill="url(#gradient3)" fill-rule="evenodd" stroke="none"/>
    <path d="M10.3 15.75 Q10.65 15.45 11.1 15.45 11.55 15.45 11.85 15.75 L12.15 16.45 11.85 17.15 11.6 17.35 11.6 19.6 10.55 19.6 10.55 17.35 10.3 17.15 Q10.0 16.85 10.0 16.45 10.0 16.0 10.3 15.75" fill="#223344" fill-rule="evenodd" stroke="none"/>
  </g>
  <defs>
    <linearGradient gradientTransform="matrix(8.0E-4, 0.0078, -0.0069, 7.0E-4, 11.15, 17.45)" gradientUnits="userSpaceOnUse" id="gradient0" spreadMethod="pad" x1="-819.2" x2="819.2">
      <stop offset="0.0" stop-color="#597fae"/>
      <stop offset="1.0" stop-color="#3f5e7c"/>
    </linearGradient>
    <linearGradient gradientTransform="matrix(0.0071, 0.0, 0.0, 0.7, 11.1, -1.85)" gradientUnits="userSpaceOnUse" id="gradient1" spreadMethod="pad" x1="-819.2" x2="819.2">
      <stop offset="0.0" stop-color="#597fae"/>
      <stop offset="0.32941176470588235" stop-color="#8daadc"/>
      <stop offset="0.5215686274509804" stop-color="#adc4f8"/>
      <stop offset="1.0" stop-color="#597fae"/>
    </linearGradient>
    <linearGradient gradientTransform="matrix(0.0075, 0.0, 0.0, 0.0056, 11.25, 17.5)" gradientUnits="userSpaceOnUse" id="gradient2" spreadMethod="pad" x1="-819.2" x2="819.2">
      <stop offset="0.0" stop-color="#597fae"/>
      <stop offset="0.32941176470588235" stop-color="#8daadc"/>
      <stop offset="0.5215686274509804" stop-color="#adc4f8"/>
      <stop offset="1.0" stop-color="#597fae"/>
    </linearGradient>
    <linearGradient gradientTransform="matrix(0.0, -0.0019, 0.0025, 0.0, 21.7, 18.25)" gradientUnits="userSpaceOnUse" id="gradient3" spreadMethod="pad" x1="-819.2" x2="819.2">
      <stop offset="0.0" stop-color="#c7d6e2"/>
      <stop offset="1.0" stop-color="#597fae"/>
    </linearGradient>
  </defs>
</svg>
