<?xml version="1.0" encoding="UTF-8" standalone="no"?>
<svg xmlns:ffdec="https://www.free-decompiler.com/flash" xmlns:xlink="http://www.w3.org/1999/xlink" ffdec:objectType="shape" height="25.2px" width="133.25px" xmlns="http://www.w3.org/2000/svg">
  <g transform="matrix(1.0, 0.0, 0.0, 1.0, 0.0, 0.0)">
    <path d="M133.25 3.0 L133.25 22.2 Q133.25 23.45 132.35 24.3 131.5 25.2 130.25 25.2 L3.0 25.2 Q1.75 25.2 0.9 24.3 0.0 23.45 0.0 22.2 L0.0 3.0 Q0.0 1.75 0.9 0.9 1.75 0.0 3.0 0.0 L130.25 0.0 Q131.5 0.0 132.35 0.9 133.25 1.75 133.25 3.0" fill="url(#gradient0)" fill-rule="evenodd" stroke="none"/>
    <path d="M129.55 12.05 L133.25 7.3 133.25 16.75 129.55 12.05" fill="#2b88f7" fill-rule="evenodd" stroke="none"/>
    <path d="M3.9 12.05 L0.2 16.75 0.2 7.3 3.9 12.05" fill="#2b88f7" fill-rule="evenodd" stroke="none"/>
  </g>
  <defs>
    <linearGradient gradientTransform="matrix(0.0813, 0.0, 0.0, -0.0813, 66.6, 12.6)" gradientUnits="userSpaceOnUse" id="gradient0" spreadMethod="pad" x1="-819.2" x2="819.2">
      <stop offset="0.00392156862745098" stop-color="#002f73"/>
      <stop offset="0.00784313725490196" stop-color="#002f73"/>
      <stop offset="0.1607843137254902" stop-color="#00429a"/>
      <stop offset="0.30196078431372547" stop-color="#004fb5"/>
      <stop offset="0.42745098039215684" stop-color="#0057c6"/>
      <stop offset="0.5215686274509804" stop-color="#005acc"/>
      <stop offset="0.6078431372549019" stop-color="#0057c6"/>
      <stop offset="0.7215686274509804" stop-color="#0050b7"/>
      <stop offset="0.8470588235294118" stop-color="#00439d"/>
      <stop offset="0.9803921568627451" stop-color="#003278"/>
      <stop offset="1.0" stop-color="#002f73"/>
    </linearGradient>
  </defs>
</svg>
