<?xml version="1.0" encoding="UTF-8" standalone="no"?>
<svg xmlns:ffdec="https://www.free-decompiler.com/flash" xmlns:xlink="http://www.w3.org/1999/xlink" ffdec:objectType="shape" height="67.15px" width="122.1px" xmlns="http://www.w3.org/2000/svg">
  <g transform="matrix(1.0, 0.0, 0.0, 1.0, 0.0, 0.0)">
    <path d="M120.5 1.6 Q121.1 2.2 121.1 3.0 L121.1 19.4 Q121.1 21.5 120.7 22.15 119.7 23.05 119.7 26.4 L119.7 40.95 Q119.7 44.3 120.75 45.15 121.1 46.2 121.1 47.9 L121.1 64.15 Q121.1 65.0 120.5 65.55 119.95 66.15 119.1 66.15 L102.7 66.15 100.0 65.8 Q99.1 64.75 95.75 64.75 L26.25 64.75 Q22.95 64.75 22.0 65.75 L19.2 66.15 3.0 66.15 Q2.2 66.15 1.6 65.55 1.0 65.0 1.0 64.15 L1.0 47.85 Q1.0 45.8 1.35 45.1 2.3 44.2 2.3 40.95 L2.3 26.4 Q2.3 23.1 1.35 22.2 1.0 21.6 1.0 19.45 L1.0 3.0 Q1.0 2.2 1.6 1.6 2.2 1.0 3.0 1.0 L19.2 1.0 22.0 1.4 Q22.95 2.45 26.25 2.45 L95.75 2.45 Q99.05 2.45 100.0 1.4 L102.7 1.0 119.1 1.0 Q119.95 1.0 120.5 1.6" fill="url(#gradient0)" fill-rule="evenodd" stroke="none"/>
    <path d="M119.1 2.0 L102.7 2.0 100.55 2.25 Q99.15 3.45 95.75 3.45 L26.25 3.45 Q22.75 3.45 21.45 2.25 L19.2 2.0 3.0 2.0 Q2.6 2.0 2.3 2.3 2.0 2.6 2.0 3.0 L2.0 19.45 Q2.0 20.85 2.25 21.7 3.3 23.0 3.3 26.4 L3.3 40.95 Q3.3 44.4 2.2 45.65 L2.0 47.85 2.0 64.15 Q2.0 64.55 2.3 64.85 2.6 65.15 3.0 65.15 L19.2 65.15 21.45 64.9 Q22.8 63.75 26.25 63.75 L95.75 63.75 Q99.2 63.75 100.55 64.9 L102.7 65.15 119.1 65.15 119.8 64.85 120.1 64.15 120.1 47.9 119.85 45.7 Q118.7 44.45 118.7 40.95 L118.7 26.4 Q118.7 22.95 119.85 21.6 L120.1 19.4 120.1 3.0 119.8 2.3 Q119.5 2.0 119.1 2.0 M121.2 0.9 Q122.1 1.75 122.1 3.0 L122.1 19.4 Q122.1 22.4 121.4 22.9 120.7 23.45 120.7 26.4 L120.7 40.95 Q120.7 43.95 121.4 44.45 122.1 44.9 122.1 47.9 L122.1 64.15 Q122.1 65.4 121.2 66.25 120.35 67.15 119.1 67.15 L102.7 67.15 100.45 66.95 99.25 66.45 Q98.75 65.75 95.75 65.75 L26.25 65.75 Q23.2 65.75 22.75 66.45 L21.5 66.95 19.2 67.15 3.0 67.15 Q1.75 67.15 0.9 66.25 0.0 65.4 0.0 64.15 L0.0 47.85 0.2 45.6 Q0.4 44.6 0.65 44.4 1.3 43.95 1.3 40.95 L1.3 26.4 Q1.3 23.4 0.65 22.95 0.0 22.4 0.0 19.45 L0.0 3.0 Q0.0 1.75 0.9 0.9 1.75 0.0 3.0 0.0 L19.2 0.0 21.5 0.25 Q22.5 0.45 22.75 0.75 22.95 1.0 24.0 1.25 L26.25 1.45 95.75 1.45 98.0 1.25 99.25 0.75 Q99.45 0.45 100.45 0.25 L102.7 0.0 119.1 0.0 Q120.35 0.0 121.2 0.9" fill="#585959" fill-rule="evenodd" stroke="none"/>
    <path d="M103.8 51.95 L18.95 51.95 18.95 16.0 103.7 16.0 103.8 51.95" fill="#000c00" fill-rule="evenodd" stroke="none"/>
    <path d="M103.8 51.95 L18.95 51.95 18.95 16.0 103.7 16.0 103.8 51.95 Z" fill="none" stroke="#001600" stroke-linecap="butt" stroke-linejoin="miter-clip" stroke-miterlimit="4.0" stroke-width="1.0"/>
    <path d="M2.75 5.2 L5.0 2.95 11.25 2.95 11.25 4.7 6.35 4.7 4.6 6.45 4.6 11.5 2.75 11.5 2.75 5.2" fill="#006a17" fill-rule="evenodd" stroke="none"/>
    <path d="M119.35 5.2 L119.35 11.5 117.55 11.5 117.55 6.45 115.8 4.7 110.9 4.7 110.9 2.95 117.1 2.95 119.35 5.2" fill="#006a17" fill-rule="evenodd" stroke="none"/>
    <path d="M4.6 55.9 L4.6 61.0 6.35 62.75 11.25 62.75 11.25 64.5 5.0 64.5 2.75 62.2 2.75 55.9 4.6 55.9" fill="#006a17" fill-rule="evenodd" stroke="none"/>
    <path d="M117.55 55.9 L119.35 55.9 119.35 62.2 117.1 64.5 110.9 64.5 110.9 62.75 115.8 62.75 117.55 61.0 117.55 55.9" fill="#006a17" fill-rule="evenodd" stroke="none"/>
    <path d="M114.15 59.45 L8.05 59.45 8.05 8.3 114.15 8.3 114.15 59.45" fill="#001700" fill-rule="evenodd" stroke="none"/>
    <path d="M114.65 7.8 L114.65 59.95 7.55 59.95 7.55 7.8 114.65 7.8 M113.65 58.95 L113.65 8.8 8.55 8.8 8.55 58.95 113.65 58.95" fill="#000c00" fill-rule="evenodd" stroke="none"/>
    <path d="M14.05 53.7 L9.95 57.85 9.3 57.2 13.45 53.1 14.05 53.7" fill="#002b00" fill-rule="evenodd" stroke="none"/>
    <path d="M14.05 53.7 L9.95 57.85 9.3 57.2 13.45 53.1 14.05 53.7 Z" fill="none" stroke="#001a00" stroke-linecap="butt" stroke-linejoin="miter-clip" stroke-miterlimit="4.0" stroke-width="1.0"/>
    <path d="M108.4 14.05 L108.4 53.7 13.8 53.7 13.8 14.05 108.4 14.05" fill="#002500" fill-rule="evenodd" stroke="none"/>
    <path d="M10.45 47.05 L7.55 49.15 7.55 19.2 10.45 21.3 10.45 47.05" fill="#000500" fill-rule="evenodd" stroke="none"/>
    <path d="M111.75 47.05 L111.75 21.3 114.65 19.2 114.65 49.15 111.75 47.05" fill="#000500" fill-rule="evenodd" stroke="none"/>
    <path d="M108.45 53.7 L109.1 53.1 113.2 57.2 112.6 57.85 108.45 53.7" fill="#002e00" fill-rule="evenodd" stroke="none"/>
    <path d="M108.45 53.7 L112.6 57.85 113.2 57.2 109.1 53.1 108.45 53.7 Z" fill="none" stroke="#001d00" stroke-linecap="butt" stroke-linejoin="miter-clip" stroke-miterlimit="4.0" stroke-width="1.0"/>
    <path d="M9.95 9.95 L14.05 14.05 13.45 14.7 9.3 10.55 9.95 9.95" fill="#002e00" fill-rule="evenodd" stroke="none"/>
    <path d="M9.95 9.95 L9.3 10.55 13.45 14.7 14.05 14.05 9.95 9.95 Z" fill="none" stroke="#001d00" stroke-linecap="butt" stroke-linejoin="miter-clip" stroke-miterlimit="4.0" stroke-width="1.0"/>
    <path d="M112.6 9.95 L113.2 10.55 109.1 14.7 108.45 14.05 112.6 9.95" fill="#002e00" fill-rule="evenodd" stroke="none"/>
    <path d="M112.6 9.95 L113.2 10.55 109.1 14.7 108.45 14.05 112.6 9.95 Z" fill="none" stroke="#001d00" stroke-linecap="butt" stroke-linejoin="miter-clip" stroke-miterlimit="4.0" stroke-width="1.0"/>
    <path d="M111.25 56.0 Q109.5 57.75 107.0 57.75 L14.85 57.75 Q12.4 57.75 10.6 56.0 8.85 54.25 8.85 51.75 L8.85 14.95 Q8.85 12.5 10.6 10.7 12.4 8.95 14.85 8.95 L107.0 8.95 Q109.5 8.95 111.25 10.7 113.0 12.5 113.0 14.95 L113.0 51.75 Q113.0 54.25 111.25 56.0" fill="url(#gradient1)" fill-rule="evenodd" stroke="none"/>
    <path d="M111.95 10.0 Q114.0 12.05 114.0 14.95 L114.0 51.75 Q114.0 54.65 111.95 56.7 109.9 58.75 107.0 58.75 L14.85 58.75 Q11.95 58.75 9.9 56.7 7.85 54.65 7.85 51.75 L7.85 14.95 Q7.85 12.05 9.9 10.0 11.95 7.95 14.85 7.95 L107.0 7.95 Q109.9 7.95 111.95 10.0 M107.0 56.75 Q109.05 56.75 110.55 55.3 112.0 53.8 112.0 51.75 L112.0 14.95 Q112.0 12.9 110.55 11.4 109.05 9.95 107.0 9.95 L14.85 9.95 Q12.8 9.95 11.3 11.4 9.85 12.9 9.85 14.95 L9.85 51.75 Q9.85 53.8 11.3 55.3 12.8 56.75 14.85 56.75 L107.0 56.75" fill="#00afd9" fill-rule="evenodd" stroke="none"/>
  </g>
  <defs>
    <linearGradient gradientTransform="matrix(0.0733, 0.0, 0.0, -0.0733, 61.05, 33.6)" gradientUnits="userSpaceOnUse" id="gradient0" spreadMethod="pad" x1="-819.2" x2="819.2">
      <stop offset="0.0" stop-color="#050d1f"/>
      <stop offset="0.5411764705882353" stop-color="#001c4a"/>
      <stop offset="1.0" stop-color="#050d1f"/>
    </linearGradient>
    <linearGradient gradientTransform="matrix(0.0636, 0.0, 0.0, -0.0636, 60.95, 33.35)" gradientUnits="userSpaceOnUse" id="gradient1" spreadMethod="pad" x1="-819.2" x2="819.2">
      <stop offset="0.0" stop-color="#004ed9"/>
      <stop offset="0.22745098039215686" stop-color="#0066d9"/>
      <stop offset="0.5294117647058824" stop-color="#0081d9"/>
      <stop offset="0.6666666666666666" stop-color="#0076d9"/>
      <stop offset="0.9098039215686274" stop-color="#005ad9"/>
      <stop offset="1.0" stop-color="#004ed9"/>
    </linearGradient>
  </defs>
</svg>
