<?xml version="1.0" encoding="UTF-8" standalone="no"?>
<svg xmlns:ffdec="https://www.free-decompiler.com/flash" xmlns:xlink="http://www.w3.org/1999/xlink" ffdec:objectType="shape" height="43.0px" width="99.45px" xmlns="http://www.w3.org/2000/svg">
  <g transform="matrix(1.0, 0.0, 0.0, 1.0, -11.45, -11.5)">
    <path d="M45.55 12.95 L14.05 30.15 12.2 30.25 Q11.45 29.8 11.45 28.55 L11.45 14.5 Q11.45 13.25 12.35 12.4 13.2 11.5 14.45 11.5 L45.2 11.5 Q46.45 11.5 46.55 11.95 46.65 12.35 45.55 12.95" fill="url(#gradient0)" fill-rule="evenodd" stroke="none"/>
    <path d="M76.8 12.95 Q75.7 12.35 75.8 11.95 75.9 11.5 77.15 11.5 L107.9 11.5 Q109.15 11.5 110.0 12.4 110.9 13.25 110.9 14.5 L110.9 28.55 Q110.9 29.8 110.1 30.25 L108.25 30.15 76.8 12.95" fill="url(#gradient1)" fill-rule="evenodd" stroke="none"/>
    <path d="M11.45 37.45 Q11.45 36.2 12.2 35.75 L14.05 35.9 45.55 53.1 Q46.65 53.65 46.55 54.1 46.45 54.5 45.2 54.5 L14.45 54.5 Q13.2 54.5 12.35 53.6 11.45 52.75 11.45 51.5 L11.45 37.45" fill="url(#gradient2)" fill-rule="evenodd" stroke="none"/>
    <path d="M110.9 37.45 L110.9 51.5 Q110.9 52.75 110.0 53.6 109.15 54.5 107.9 54.5 L77.15 54.5 Q75.9 54.5 75.8 54.1 75.7 53.65 76.8 53.1 L108.25 35.9 110.1 35.75 Q110.9 36.2 110.9 37.45" fill="url(#gradient3)" fill-rule="evenodd" stroke="none"/>
  </g>
  <defs>
    <linearGradient gradientTransform="matrix(0.0046, 0.012, 0.0099, -0.0038, 27.15, 16.65)" gradientUnits="userSpaceOnUse" id="gradient0" spreadMethod="pad" x1="-819.2" x2="819.2">
      <stop offset="0.0" stop-color="#ffbd00"/>
      <stop offset="0.011764705882352941" stop-color="#ffb700" stop-opacity="0.93333334"/>
      <stop offset="0.08235294117647059" stop-color="#ff9c00" stop-opacity="0.6431373"/>
      <stop offset="0.16470588235294117" stop-color="#ff8600" stop-opacity="0.40392157"/>
      <stop offset="0.25882352941176473" stop-color="#ff7500" stop-opacity="0.21960784"/>
      <stop offset="0.3764705882352941" stop-color="#ff6a00" stop-opacity="0.09411765"/>
      <stop offset="0.5411764705882353" stop-color="#ff6300" stop-opacity="0.019607844"/>
      <stop offset="1.0" stop-color="#ff6100" stop-opacity="0.0"/>
    </linearGradient>
    <linearGradient gradientTransform="matrix(-0.0046, -0.012, 0.0099, -0.0038, 95.15, 16.65)" gradientUnits="userSpaceOnUse" id="gradient1" spreadMethod="pad" x1="-819.2" x2="819.2">
      <stop offset="0.0" stop-color="#ffbd00"/>
      <stop offset="0.011764705882352941" stop-color="#ffb700" stop-opacity="0.93333334"/>
      <stop offset="0.08235294117647059" stop-color="#ff9c00" stop-opacity="0.6431373"/>
      <stop offset="0.16470588235294117" stop-color="#ff8600" stop-opacity="0.40392157"/>
      <stop offset="0.25882352941176473" stop-color="#ff7500" stop-opacity="0.21960784"/>
      <stop offset="0.3764705882352941" stop-color="#ff6a00" stop-opacity="0.09411765"/>
      <stop offset="0.5411764705882353" stop-color="#ff6300" stop-opacity="0.019607844"/>
      <stop offset="1.0" stop-color="#ff6100" stop-opacity="0.0"/>
    </linearGradient>
    <linearGradient gradientTransform="matrix(0.0046, 0.012, -0.0099, 0.0038, 27.15, 49.4)" gradientUnits="userSpaceOnUse" id="gradient2" spreadMethod="pad" x1="-819.2" x2="819.2">
      <stop offset="0.0" stop-color="#ffbd00"/>
      <stop offset="0.011764705882352941" stop-color="#ffb700" stop-opacity="0.93333334"/>
      <stop offset="0.08235294117647059" stop-color="#ff9c00" stop-opacity="0.6431373"/>
      <stop offset="0.16470588235294117" stop-color="#ff8600" stop-opacity="0.40392157"/>
      <stop offset="0.25882352941176473" stop-color="#ff7500" stop-opacity="0.21960784"/>
      <stop offset="0.3764705882352941" stop-color="#ff6a00" stop-opacity="0.09411765"/>
      <stop offset="0.5411764705882353" stop-color="#ff6300" stop-opacity="0.019607844"/>
      <stop offset="1.0" stop-color="#ff6100" stop-opacity="0.0"/>
    </linearGradient>
    <linearGradient gradientTransform="matrix(-0.0046, -0.012, -0.0099, 0.0038, 95.15, 49.4)" gradientUnits="userSpaceOnUse" id="gradient3" spreadMethod="pad" x1="-819.2" x2="819.2">
      <stop offset="0.0" stop-color="#ffbd00"/>
      <stop offset="0.011764705882352941" stop-color="#ffb700" stop-opacity="0.93333334"/>
      <stop offset="0.08235294117647059" stop-color="#ff9c00" stop-opacity="0.6431373"/>
      <stop offset="0.16470588235294117" stop-color="#ff8600" stop-opacity="0.40392157"/>
      <stop offset="0.25882352941176473" stop-color="#ff7500" stop-opacity="0.21960784"/>
      <stop offset="0.3764705882352941" stop-color="#ff6a00" stop-opacity="0.09411765"/>
      <stop offset="0.5411764705882353" stop-color="#ff6300" stop-opacity="0.019607844"/>
      <stop offset="1.0" stop-color="#ff6100" stop-opacity="0.0"/>
    </linearGradient>
  </defs>
</svg>
