<?xml version="1.0" encoding="UTF-8" standalone="no"?>
<svg xmlns:ffdec="https://www.free-decompiler.com/flash" xmlns:xlink="http://www.w3.org/1999/xlink" ffdec:objectType="shape" height="30.0px" width="201.65px" xmlns="http://www.w3.org/2000/svg">
  <g transform="matrix(1.0, 0.0, 0.0, 1.0, 0.0, 0.0)">
    <path d="M188.65 29.5 L3.0 29.5 Q2.0 29.5 1.25 28.8 0.5 28.05 0.5 27.0 L0.5 3.0 Q0.5 1.95 1.25 1.25 2.0 0.5 3.0 0.5 L198.65 0.5 Q199.7 0.5 200.45 1.25 201.15 1.95 201.15 3.0 L201.15 18.0 200.7 20.0 199.5 21.7 192.5 28.05 190.7 29.1 188.65 29.5" fill="url(#gradient0)" fill-rule="evenodd" stroke="none"/>
    <path d="M198.65 0.0 Q199.9 0.0 200.8 0.9 201.65 1.75 201.65 3.0 L201.65 18.0 Q201.65 19.05 201.15 20.2 200.65 21.4 199.85 22.1 L192.85 28.4 190.9 29.55 188.65 30.0 3.0 30.0 Q1.75 30.0 0.9 29.1 0.0 28.25 0.0 27.0 L0.0 3.0 Q0.0 1.75 0.9 0.9 1.75 0.0 3.0 0.0 L198.65 0.0 M200.05 1.6 Q199.5 1.0 198.65 1.0 L3.0 1.0 Q2.2 1.0 1.6 1.6 1.0 2.2 1.0 3.0 L1.0 27.0 Q1.0 27.85 1.6 28.4 2.2 29.0 3.0 29.0 L188.65 29.0 190.5 28.6 192.15 27.65 199.2 21.35 200.25 19.8 Q200.65 18.85 200.65 18.0 L200.65 3.0 Q200.65 2.2 200.05 1.6" fill="#0071bc" fill-rule="evenodd" stroke="none"/>
  </g>
  <defs>
    <linearGradient gradientTransform="matrix(0.1225, 0.0, 0.0, -0.1225, 100.85, 15.0)" gradientUnits="userSpaceOnUse" id="gradient0" spreadMethod="pad" x1="-819.2" x2="819.2">
      <stop offset="0.0" stop-color="#050d1f"/>
      <stop offset="0.2235294117647059" stop-color="#03254f"/>
      <stop offset="0.5411764705882353" stop-color="#00458f"/>
      <stop offset="0.7764705882352941" stop-color="#022958"/>
      <stop offset="1.0" stop-color="#050d1f"/>
    </linearGradient>
  </defs>
</svg>
