<?xml version="1.0" encoding="UTF-8" standalone="no"?>
<svg xmlns:ffdec="https://www.free-decompiler.com/flash" xmlns:xlink="http://www.w3.org/1999/xlink" ffdec:objectType="shape" height="29.2px" width="200.85px" xmlns="http://www.w3.org/2000/svg">
  <g transform="matrix(1.0, 0.0, 0.0, 1.0, -21.4, -21.35)">
    <path d="M221.65 24.95 L221.65 37.95 Q221.65 39.2 221.0 40.65 220.35 42.15 219.4 42.95 L213.85 47.95 211.4 49.35 Q209.9 49.95 208.65 49.95 L25.0 49.95 Q23.75 49.95 22.9 49.05 22.0 48.2 22.0 46.95 L22.0 24.95 Q22.0 23.7 22.9 22.85 23.75 21.95 25.0 21.95 L218.65 21.95 Q219.9 21.95 220.75 22.85 221.65 23.7 221.65 24.95" fill="url(#gradient0)" fill-rule="evenodd" stroke="none"/>
    <path d="M221.65 24.95 Q221.65 23.7 220.75 22.85 219.9 21.95 218.65 21.95 L25.0 21.95 Q23.75 21.95 22.9 22.85 22.0 23.7 22.0 24.95 L22.0 46.95 Q22.0 48.2 22.9 49.05 23.75 49.95 25.0 49.95 L208.65 49.95 Q209.9 49.95 211.4 49.35 L213.85 47.95 219.4 42.95 Q220.35 42.15 221.0 40.65 221.65 39.2 221.65 37.95 L221.65 24.95 Z" fill="none" stroke="#29abe2" stroke-linecap="butt" stroke-linejoin="miter-clip" stroke-miterlimit="4.0" stroke-width="1.2000000000000002"/>
  </g>
  <defs>
    <linearGradient gradientTransform="matrix(0.1219, 0.0, 0.0, -0.1219, 121.8, 35.95)" gradientUnits="userSpaceOnUse" id="gradient0" spreadMethod="pad" x1="-819.2" x2="819.2">
      <stop offset="0.00392156862745098" stop-color="#002f73"/>
      <stop offset="0.00784313725490196" stop-color="#002f73"/>
      <stop offset="0.1607843137254902" stop-color="#00429a"/>
      <stop offset="0.30196078431372547" stop-color="#004fb5"/>
      <stop offset="0.42745098039215684" stop-color="#0057c6"/>
      <stop offset="0.5215686274509804" stop-color="#005acc"/>
      <stop offset="0.6078431372549019" stop-color="#0057c6"/>
      <stop offset="0.7215686274509804" stop-color="#0050b7"/>
      <stop offset="0.8470588235294118" stop-color="#00439d"/>
      <stop offset="0.9803921568627451" stop-color="#003278"/>
      <stop offset="1.0" stop-color="#002f73"/>
    </linearGradient>
  </defs>
</svg>
