<?xml version="1.0" encoding="UTF-8" standalone="no"?>
<svg xmlns:ffdec="https://www.free-decompiler.com/flash" xmlns:xlink="http://www.w3.org/1999/xlink" ffdec:objectType="shape" height="31.2px" width="202.85px" xmlns="http://www.w3.org/2000/svg">
  <g transform="matrix(1.0, 0.0, 0.0, 1.0, 0.6, 0.6)">
    <path d="M200.75 0.9 Q201.65 1.75 201.65 3.0 L201.65 27.0 Q201.65 28.25 200.75 29.1 199.9 30.0 198.65 30.0 L13.0 30.0 10.8 29.55 Q9.6 29.1 8.85 28.4 L1.8 22.1 Q1.0 21.4 0.5 20.2 0.0 19.05 0.0 18.0 L0.0 3.0 Q0.0 1.75 0.9 0.9 1.75 0.0 3.0 0.0 L198.65 0.0 Q199.9 0.0 200.75 0.9 M200.65 3.0 Q200.65 2.2 200.05 1.6 199.5 1.0 198.65 1.0 L3.0 1.0 Q2.2 1.0 1.6 1.6 1.0 2.2 1.0 3.0 L1.0 18.0 Q1.0 18.85 1.45 19.8 1.85 20.8 2.5 21.35 L9.5 27.65 Q10.1 28.2 11.15 28.6 L13.0 29.0 198.65 29.0 Q199.5 29.0 200.05 28.4 200.65 27.85 200.65 27.0 L200.65 3.0" fill="#29ab1c" fill-rule="evenodd" stroke="none"/>
    <path d="M200.65 3.0 L200.65 27.0 Q200.65 27.85 200.05 28.4 199.5 29.0 198.65 29.0 L13.0 29.0 11.15 28.6 Q10.1 28.2 9.5 27.65 L2.5 21.35 Q1.85 20.8 1.45 19.8 1.0 18.85 1.0 18.0 L1.0 3.0 Q1.0 2.2 1.6 1.6 2.2 1.0 3.0 1.0 L198.65 1.0 Q199.5 1.0 200.05 1.6 200.65 2.2 200.65 3.0 M200.75 0.9 Q199.9 0.0 198.65 0.0 L3.0 0.0 Q1.75 0.0 0.9 0.9 0.0 1.75 0.0 3.0 L0.0 18.0 Q0.0 19.05 0.5 20.2 1.0 21.4 1.8 22.1 L8.85 28.4 Q9.6 29.1 10.8 29.55 L13.0 30.0 198.65 30.0 Q199.9 30.0 200.75 29.1 201.65 28.25 201.65 27.0 L201.65 3.0 Q201.65 1.75 200.75 0.9 Z" fill="none" stroke="#29cf1c" stroke-linecap="round" stroke-linejoin="round" stroke-width="1.2000000000000002"/>
    <path d="M198.65 29.5 L13.0 29.5 10.95 29.1 Q9.85 28.65 9.15 28.05 L2.15 21.7 Q1.45 21.05 0.95 20.0 0.5 18.95 0.5 18.0 L0.5 3.0 Q0.5 1.95 1.25 1.25 1.95 0.5 3.0 0.5 L198.65 0.5 Q199.7 0.5 200.45 1.25 201.15 1.95 201.15 3.0 L201.15 27.0 Q201.15 28.05 200.45 28.8 199.7 29.5 198.65 29.5" fill="url(#gradient0)" fill-rule="evenodd" stroke="none"/>
  </g>
  <defs>
    <linearGradient gradientTransform="matrix(0.1225, 0.0, 0.0, -0.1225, 100.8, 15.0)" gradientUnits="userSpaceOnUse" id="gradient0" spreadMethod="pad" x1="-819.2" x2="819.2">
      <stop offset="0.00392156862745098" stop-color="#002f00"/>
      <stop offset="0.058823529411764705" stop-color="#003906"/>
      <stop offset="0.23921568627450981" stop-color="#005418"/>
      <stop offset="0.4" stop-color="#006522"/>
      <stop offset="0.5215686274509804" stop-color="#006b26"/>
      <stop offset="0.6313725490196078" stop-color="#006522"/>
      <stop offset="0.7764705882352941" stop-color="#005618"/>
      <stop offset="0.9372549019607843" stop-color="#003c08"/>
      <stop offset="1.0" stop-color="#002f00"/>
    </linearGradient>
  </defs>
</svg>
