<?xml version="1.0" encoding="UTF-8" standalone="no"?>
<svg xmlns:ffdec="https://www.free-decompiler.com/flash" xmlns:xlink="http://www.w3.org/1999/xlink" ffdec:objectType="shape" height="22.0px" width="90.85px" xmlns="http://www.w3.org/2000/svg">
  <g transform="matrix(1.0, 0.0, 0.0, 1.0, 0.05, 0.0)">
    <path d="M16.15 21.0 L85.8 21.0 Q87.5 21.0 88.65 19.85 89.8 18.65 89.8 17.0 L89.8 5.0 Q89.8 3.35 88.65 2.2 87.5 1.0 85.8 1.0 L3.7 1.0 Q1.9 1.0 1.2 2.25 0.55 3.55 1.6 5.05 L10.65 18.1 Q11.45 19.35 13.1 20.15 14.65 21.0 16.15 21.0" fill="url(#gradient0)" fill-rule="evenodd" stroke="none"/>
    <path d="M2.1 2.7 Q2.45 2.0 3.7 2.0 L85.8 2.0 Q87.05 2.0 87.9 2.9 88.8 3.75 88.8 5.0 L88.8 17.0 Q88.8 18.25 87.9 19.1 87.05 20.0 85.8 20.0 L16.15 20.0 Q14.9 20.0 13.55 19.3 12.15 18.55 11.45 17.55 L2.45 4.45 Q1.75 3.45 2.1 2.7 M0.35 1.8 Q-0.6 3.65 0.8 5.6 L9.8 18.7 Q10.8 20.1 12.6 21.05 14.45 22.0 16.15 22.0 L85.8 22.0 Q87.9 22.0 89.35 20.55 90.8 19.05 90.8 17.0 L90.8 5.0 Q90.8 2.95 89.35 1.45 87.9 0.0 85.8 0.0 L3.7 0.0 Q1.3 0.0 0.35 1.8" fill="#585959" fill-rule="evenodd" stroke="none"/>
  </g>
  <defs>
    <linearGradient gradientTransform="matrix(-0.0542, 0.0, 0.0, -0.0542, 45.4, 11.0)" gradientUnits="userSpaceOnUse" id="gradient0" spreadMethod="pad" x1="-819.2" x2="819.2">
      <stop offset="0.0" stop-color="#050d1f"/>
      <stop offset="0.01568627450980392" stop-color="#070d1e"/>
      <stop offset="0.5411764705882353" stop-color="#470300"/>
      <stop offset="0.9294117647058824" stop-color="#100b1a"/>
      <stop offset="1.0" stop-color="#050d1f"/>
    </linearGradient>
  </defs>
</svg>
