<?xml version="1.0" encoding="UTF-8" standalone="no"?>
<svg xmlns:ffdec="https://www.free-decompiler.com/flash" xmlns:xlink="http://www.w3.org/1999/xlink" ffdec:objectType="shape" height="19.8px" width="81.75px" xmlns="http://www.w3.org/2000/svg">
  <g transform="matrix(1.0, 0.0, 0.0, 1.0, -4.3, -1.3)">
    <path d="M81.75 2.0 Q83.3 2.0 84.35 3.1 85.35 4.1 85.35 5.6 L85.35 16.4 Q85.35 17.9 84.35 18.95 83.3 20.0 81.75 20.0 L19.1 20.0 Q17.75 20.0 16.35 19.25 14.85 18.5 14.15 17.4 L6.0 5.65 Q5.05 4.3 5.65 3.1 6.25 2.0 7.9 2.0 L81.75 2.0" fill="url(#gradient0)" fill-rule="evenodd" stroke="none"/>
    <path d="M4.65 2.95 Q3.8 4.6 5.05 6.35 L13.15 18.15 Q14.05 19.4 15.7 20.25 17.35 21.1 18.85 21.1 L81.55 21.1 Q83.45 21.1 84.75 19.8 86.05 18.45 86.05 16.6 L86.05 5.8 Q86.05 3.95 84.75 2.6 83.45 1.3 81.55 1.3 L7.65 1.3 Q5.5 1.3 4.65 2.95 M6.55 5.3 Q5.9 4.4 6.25 3.75 6.55 3.1 7.65 3.1 L81.55 3.1 Q82.7 3.1 83.45 3.95 84.25 4.7 84.25 5.8 L84.25 16.6 Q84.25 17.75 83.45 18.5 82.7 19.3 81.55 19.3 L18.85 19.3 Q17.75 19.3 16.55 18.7 15.25 18.0 14.65 17.1 L6.55 5.3" fill="#585959" fill-rule="evenodd" stroke="none"/>
  </g>
  <defs>
    <linearGradient gradientTransform="matrix(-0.0488, 0.0, 0.0, -0.0488, 45.4, 11.0)" gradientUnits="userSpaceOnUse" id="gradient0" spreadMethod="pad" x1="-819.2" x2="819.2">
      <stop offset="0.01568627450980392" stop-color="#070d1e"/>
      <stop offset="0.18823529411764706" stop-color="#6b3903"/>
      <stop offset="0.4" stop-color="#fb6806"/>
      <stop offset="0.7411764705882353" stop-color="#6b3903"/>
      <stop offset="1.0" stop-color="#050d1f"/>
    </linearGradient>
  </defs>
</svg>
