<?xml version="1.0" encoding="UTF-8" standalone="no"?>
<svg xmlns:ffdec="https://www.free-decompiler.com/flash" xmlns:xlink="http://www.w3.org/1999/xlink" ffdec:objectType="shape" height="163.25px" width="204.5px" xmlns="http://www.w3.org/2000/svg">
  <g transform="matrix(1.0, 0.0, 0.0, 1.0, -6.85, -131.8)">
    <path d="M211.35 134.8 L211.35 182.85 Q211.35 184.1 210.45 184.95 209.6 185.85 208.35 185.85 L9.85 185.85 Q8.6 185.85 7.75 184.95 6.85 184.1 6.85 182.85 L6.85 134.8 Q6.85 133.55 7.75 132.7 8.6 131.8 9.85 131.8 L208.35 131.8 Q209.6 131.8 210.45 132.7 211.35 133.55 211.35 134.8" fill="url(#gradient0)" fill-rule="evenodd" stroke="none"/>
    <path d="M211.35 191.55 L211.35 292.05 Q211.35 293.3 210.45 294.15 209.6 295.05 208.35 295.05 L9.85 295.05 Q8.6 295.05 7.75 294.15 6.85 293.3 6.85 292.05 L6.85 191.55 Q6.85 190.3 7.75 189.45 8.6 188.55 9.85 188.55 L208.35 188.55 Q209.6 188.55 210.45 189.45 211.35 190.3 211.35 191.55" fill="url(#gradient1)" fill-rule="evenodd" stroke="none"/>
  </g>
  <defs>
    <linearGradient gradientTransform="matrix(0.0, -0.033, -0.033, 0.0, 109.1, 158.8)" gradientUnits="userSpaceOnUse" id="gradient0" spreadMethod="pad" x1="-819.2" x2="819.2">
      <stop offset="0.0" stop-color="#001c40"/>
      <stop offset="0.4196078431372549" stop-color="#001e43"/>
      <stop offset="0.7725490196078432" stop-color="#00264e"/>
      <stop offset="1.0" stop-color="#002e59"/>
    </linearGradient>
    <linearGradient gradientTransform="matrix(0.0, -0.078, -0.0647, 0.0, 109.1, 239.35)" gradientUnits="userSpaceOnUse" id="gradient1" spreadMethod="pad" x1="-819.2" x2="819.2">
      <stop offset="0.0" stop-color="#001c40"/>
      <stop offset="0.6235294117647059" stop-color="#001f43"/>
      <stop offset="1.0" stop-color="#00264a"/>
    </linearGradient>
  </defs>
</svg>
