<?xml version="1.0" encoding="UTF-8" standalone="no"?>
<svg xmlns:ffdec="https://www.free-decompiler.com/flash" xmlns:xlink="http://www.w3.org/1999/xlink" ffdec:objectType="shape" height="37.5px" width="171.45px" xmlns="http://www.w3.org/2000/svg">
  <g transform="matrix(1.0, 0.0, 0.0, 1.0, 135.8, 10.45)">
    <path d="M-71.85 1.05 Q-71.85 2.3 -72.75 3.15 -73.6 4.05 -74.85 4.05 L-132.8 4.05 Q-134.05 4.05 -134.9 3.15 -135.8 2.3 -135.8 1.05 L-135.8 -6.95 Q-135.8 -8.2 -134.9 -9.05 -134.05 -9.95 -132.8 -9.95 L-74.85 -9.95 Q-73.6 -9.95 -72.75 -9.05 -71.85 -8.2 -71.85 -6.95 L-71.85 1.05" fill="url(#gradient0)" fill-rule="evenodd" stroke="none"/>
    <path d="M-71.85 24.05 Q-71.85 25.3 -72.75 26.15 -73.6 27.05 -74.85 27.05 L-132.8 27.05 Q-134.05 27.05 -134.9 26.15 -135.8 25.3 -135.8 24.05 L-135.8 16.05 Q-135.8 14.8 -134.9 13.95 -134.05 13.05 -132.8 13.05 L-74.85 13.05 Q-73.6 13.05 -72.75 13.95 -71.85 14.8 -71.85 16.05 L-71.85 24.05" fill="url(#gradient1)" fill-rule="evenodd" stroke="none"/>
    <path d="M35.65 24.05 Q35.65 25.3 34.75 26.15 33.9 27.05 32.65 27.05 L-25.3 27.05 Q-26.55 27.05 -27.4 26.15 -28.3 25.3 -28.3 24.05 L-28.3 16.05 Q-28.3 14.8 -27.4 13.95 -26.55 13.05 -25.3 13.05 L32.65 13.05 Q33.9 13.05 34.75 13.95 35.65 14.8 35.65 16.05 L35.65 24.05" fill="url(#gradient2)" fill-rule="evenodd" stroke="none"/>
    <path d="M35.65 0.55 Q35.65 1.8 34.75 2.65 33.9 3.55 32.65 3.55 L-25.3 3.55 Q-26.55 3.55 -27.4 2.65 -28.3 1.8 -28.3 0.55 L-28.3 -7.45 Q-28.3 -8.7 -27.4 -9.55 -26.55 -10.45 -25.3 -10.45 L32.65 -10.45 Q33.9 -10.45 34.75 -9.55 35.65 -8.7 35.65 -7.45 L35.65 0.55" fill="url(#gradient3)" fill-rule="evenodd" stroke="none"/>
  </g>
  <defs>
    <linearGradient gradientTransform="matrix(0.039, 0.0, 0.0, -0.039, -103.8, -2.95)" gradientUnits="userSpaceOnUse" id="gradient0" spreadMethod="pad" x1="-819.2" x2="819.2">
      <stop offset="0.0" stop-color="#005acc"/>
      <stop offset="0.023529411764705882" stop-color="#0050b7"/>
      <stop offset="0.06274509803921569" stop-color="#00449c"/>
      <stop offset="0.10588235294117647" stop-color="#003a86"/>
      <stop offset="0.1568627450980392" stop-color="#003275"/>
      <stop offset="0.21568627450980393" stop-color="#002d6a"/>
      <stop offset="0.3058823529411765" stop-color="#002a63"/>
      <stop offset="0.5490196078431373" stop-color="#002961"/>
    </linearGradient>
    <linearGradient gradientTransform="matrix(0.039, 0.0, 0.0, -0.039, -103.8, 20.05)" gradientUnits="userSpaceOnUse" id="gradient1" spreadMethod="pad" x1="-819.2" x2="819.2">
      <stop offset="0.0" stop-color="#005acc"/>
      <stop offset="0.023529411764705882" stop-color="#0050b7"/>
      <stop offset="0.06274509803921569" stop-color="#00449c"/>
      <stop offset="0.10588235294117647" stop-color="#003a86"/>
      <stop offset="0.1568627450980392" stop-color="#003275"/>
      <stop offset="0.21568627450980393" stop-color="#002d6a"/>
      <stop offset="0.3058823529411765" stop-color="#002a63"/>
      <stop offset="0.5490196078431373" stop-color="#002961"/>
    </linearGradient>
    <linearGradient gradientTransform="matrix(0.039, 0.0, 0.0, -0.039, 3.7, 20.05)" gradientUnits="userSpaceOnUse" id="gradient2" spreadMethod="pad" x1="-819.2" x2="819.2">
      <stop offset="0.0" stop-color="#005acc"/>
      <stop offset="0.023529411764705882" stop-color="#0050b7"/>
      <stop offset="0.06274509803921569" stop-color="#00449c"/>
      <stop offset="0.10588235294117647" stop-color="#003a86"/>
      <stop offset="0.1568627450980392" stop-color="#003275"/>
      <stop offset="0.21568627450980393" stop-color="#002d6a"/>
      <stop offset="0.3058823529411765" stop-color="#002a63"/>
      <stop offset="0.5490196078431373" stop-color="#002961"/>
    </linearGradient>
    <linearGradient gradientTransform="matrix(0.039, 0.0, 0.0, -0.039, 3.7, -3.45)" gradientUnits="userSpaceOnUse" id="gradient3" spreadMethod="pad" x1="-819.2" x2="819.2">
      <stop offset="0.0" stop-color="#005acc"/>
      <stop offset="0.023529411764705882" stop-color="#0050b7"/>
      <stop offset="0.06274509803921569" stop-color="#00449c"/>
      <stop offset="0.10588235294117647" stop-color="#003a86"/>
      <stop offset="0.1568627450980392" stop-color="#003275"/>
      <stop offset="0.21568627450980393" stop-color="#002d6a"/>
      <stop offset="0.3058823529411765" stop-color="#002a63"/>
      <stop offset="0.5490196078431373" stop-color="#002961"/>
    </linearGradient>
  </defs>
</svg>
