<?xml version="1.0" encoding="UTF-8" standalone="no"?>
<svg xmlns:ffdec="https://www.free-decompiler.com/flash" xmlns:xlink="http://www.w3.org/1999/xlink" ffdec:objectType="shape" height="13.85px" width="16.45px" xmlns="http://www.w3.org/2000/svg">
  <g transform="matrix(1.0, 0.0, 0.0, 1.0, -0.35, -0.2)">
    <path d="M16.3 2.9 L16.3 11.35 Q16.3 12.25 15.7 12.95 15.0 13.55 14.1 13.55 L3.05 13.55 Q2.15 13.55 1.45 12.95 0.85 12.25 0.85 11.35 L0.85 2.9 Q0.85 2.0 1.45 1.35 2.15 0.7 3.05 0.7 L14.1 0.7 Q15.0 0.7 15.7 1.35 16.3 2.0 16.3 2.9" fill="url(#gradient0)" fill-rule="evenodd" stroke="none"/>
    <path d="M16.3 2.9 L16.3 11.35 Q16.3 12.25 15.7 12.95 15.0 13.55 14.1 13.55 L3.05 13.55 Q2.15 13.55 1.45 12.95 0.85 12.25 0.85 11.35 L0.85 2.9 Q0.85 2.0 1.45 1.35 2.15 0.7 3.05 0.7 L14.1 0.7 Q15.0 0.7 15.7 1.35 16.3 2.0 16.3 2.9 Z" fill="none" stroke="#29abe2" stroke-linecap="butt" stroke-linejoin="miter-clip" stroke-miterlimit="4.0" stroke-width="1.0"/>
    <path d="M4.15 7.95 L4.15 6.3 8.05 6.3 8.05 3.25 10.0 3.25 10.0 6.3 13.9 6.3 13.9 7.95 10.0 7.95 10.0 11.0 8.05 11.0 8.05 7.95 4.15 7.95" fill="#26c3ff" fill-rule="evenodd" stroke="none"/>
  </g>
  <defs>
    <linearGradient gradientTransform="matrix(0.0095, 0.0, 0.0, -0.0095, 8.6, 7.15)" gradientUnits="userSpaceOnUse" id="gradient0" spreadMethod="pad" x1="-819.2" x2="819.2">
      <stop offset="0.0" stop-color="#005cff"/>
      <stop offset="0.7568627450980392" stop-color="#0d4f94"/>
      <stop offset="0.8313725490196079" stop-color="#0d5a9d"/>
      <stop offset="0.9568627450980393" stop-color="#0d77b6"/>
      <stop offset="1.0" stop-color="#0d82bf"/>
    </linearGradient>
  </defs>
</svg>
