<?xml version="1.0" encoding="UTF-8" standalone="no"?>
<svg xmlns:ffdec="https://www.free-decompiler.com/flash" xmlns:xlink="http://www.w3.org/1999/xlink" ffdec:objectType="shape" height="45.55px" width="45.65px" xmlns="http://www.w3.org/2000/svg">
  <g transform="matrix(1.0, 0.0, 0.0, 1.0, 155.65, -91.95)">
    <path d="M-154.65 92.9 L-154.65 99.5 -155.6 99.5 -155.6 91.95 -148.05 91.95 -148.05 92.9 -154.65 92.9" fill="#0074ff" fill-rule="evenodd" stroke="none"/>
    <path d="M-111.15 92.9 L-117.75 92.9 -117.75 91.95 -110.25 91.95 -110.25 99.5 -111.15 99.5 -111.15 92.9" fill="#0074ff" fill-rule="evenodd" stroke="none"/>
    <path d="M-154.7 136.55 L-148.1 136.55 -148.1 137.5 -155.65 137.5 -155.65 129.95 -154.7 129.95 -154.7 136.55" fill="#0074ff" fill-rule="evenodd" stroke="none"/>
    <path d="M-110.95 136.55 L-110.95 129.95 -110.0 129.95 -110.0 137.5 -117.55 137.5 -117.55 136.55 -110.95 136.55" fill="#0074ff" fill-rule="evenodd" stroke="none"/>
  </g>
</svg>
