<?xml version="1.0" encoding="UTF-8" standalone="no"?>
<svg xmlns:ffdec="https://www.free-decompiler.com/flash" xmlns:xlink="http://www.w3.org/1999/xlink" ffdec:objectType="shape" height="14.3px" width="12.15px" xmlns="http://www.w3.org/2000/svg">
  <g transform="matrix(1.0, 0.0, 0.0, 1.0, -3.85, -3.1)">
    <path d="M16.0 7.35 Q16.0 12.9 9.9 17.4 3.85 12.9 3.85 7.35 L4.05 4.15 5.4 4.15 Q7.25 4.3 9.9 3.1 12.55 4.3 14.4 4.15 L15.8 4.15 16.0 7.35" fill="#075672" fill-rule="evenodd" stroke="none"/>
    <path d="M14.85 7.9 Q14.85 12.45 9.9 16.1 4.95 12.45 4.95 7.9 4.95 6.1 5.1 5.25 L6.25 5.3 Q7.95 5.45 9.9 4.45 11.85 5.45 13.6 5.3 L14.7 5.25 14.85 7.9" fill="#044447" fill-rule="evenodd" stroke="none"/>
  </g>
</svg>
