<?xml version="1.0" encoding="UTF-8" standalone="no"?>
<svg xmlns:ffdec="https://www.free-decompiler.com/flash" xmlns:xlink="http://www.w3.org/1999/xlink" ffdec:objectType="shape" height="20.45px" width="19.85px" xmlns="http://www.w3.org/2000/svg">
  <g transform="matrix(1.0, 0.0, 0.0, 1.0, 0.0, 0.0)">
    <path d="M10.35 0.2 Q13.3 1.5 16.0 1.5 L17.95 1.05 19.05 0.4 19.4 1.65 Q19.85 3.4 19.85 6.55 19.85 11.4 15.45 16.3 11.7 20.45 9.95 20.45 8.15 20.45 4.4 16.35 0.0 11.5 0.0 6.55 0.0 3.4 0.45 1.65 L0.8 0.4 1.95 1.05 3.9 1.5 Q6.3 1.5 9.55 0.2 L9.95 0.0 10.35 0.2 M18.85 6.55 Q18.85 3.35 18.45 1.95 17.55 2.5 16.0 2.5 13.35 2.5 9.95 1.1 6.35 2.5 3.9 2.5 2.35 2.5 1.45 1.95 1.0 3.55 1.0 6.55 1.0 13.65 9.95 19.45 18.85 13.65 18.85 6.55" fill="#021902" fill-rule="evenodd" stroke="none"/>
  </g>
</svg>
