<?xml version="1.0" encoding="UTF-8" standalone="no"?>
<svg xmlns:ffdec="https://www.free-decompiler.com/flash" xmlns:xlink="http://www.w3.org/1999/xlink" ffdec:objectType="shape" height="8.55px" width="8.9px" xmlns="http://www.w3.org/2000/svg">
  <g transform="matrix(1.0, 0.0, 0.0, 1.0, -5.75, -4.75)">
    <path d="M11.2 4.75 L12.9 4.9 Q13.6 5.05 14.0 5.5 L14.5 6.5 14.6 7.75 12.45 7.75 12.35 7.15 12.1 6.8 11.5 6.65 10.45 6.6 10.1 6.6 9.0 6.65 Q8.6 6.65 8.35 6.9 L8.05 7.45 7.95 9.6 Q7.95 10.85 8.25 11.15 8.55 11.45 9.5 11.45 L11.25 11.45 12.2 11.3 Q12.55 11.15 12.55 10.7 L12.55 10.05 14.65 10.05 14.65 10.85 Q14.65 12.25 13.7 12.75 12.75 13.3 11.0 13.3 L9.45 13.3 Q7.3 13.3 6.55 12.5 5.75 11.65 5.75 9.85 L5.75 8.05 Q5.75 6.15 6.75 5.45 7.75 4.75 9.35 4.75 L11.2 4.75" fill="#ffffff" fill-rule="evenodd" stroke="none"/>
  </g>
</svg>
