<?xml version="1.0" encoding="UTF-8" standalone="no"?>
<svg xmlns:ffdec="https://www.free-decompiler.com/flash" xmlns:xlink="http://www.w3.org/1999/xlink" ffdec:objectType="shape" height="10.55px" width="10.9px" xmlns="http://www.w3.org/2000/svg">
  <g transform="matrix(1.0, 0.0, 0.0, 1.0, 0.0, 0.0)">
    <path d="M9.75 2.75 L9.25 1.75 Q8.85 1.3 8.15 1.15 L6.45 1.0 4.6 1.0 Q3.0 1.0 2.0 1.7 1.0 2.4 1.0 4.3 L1.0 6.1 Q1.0 7.9 1.8 8.75 2.55 9.55 4.7 9.55 L6.25 9.55 Q8.0 9.55 8.95 9.0 9.9 8.5 9.9 7.1 L9.9 6.3 7.8 6.3 7.8 6.95 Q7.8 7.4 7.45 7.55 L6.5 7.7 4.75 7.7 3.5 7.4 Q3.2 7.1 3.2 5.85 L3.3 3.7 3.6 3.15 Q3.85 2.9 4.25 2.9 L5.35 2.85 5.7 2.85 6.75 2.9 7.35 3.05 7.6 3.4 7.7 4.0 9.85 4.0 9.75 2.75 M10.9 5.3 L10.9 7.1 Q10.9 9.05 9.4 9.9 8.25 10.55 6.25 10.55 L4.7 10.55 Q2.15 10.55 1.05 9.4 0.0 8.3 0.0 6.1 L0.0 4.3 Q0.0 1.9 1.45 0.9 2.65 0.0 4.6 0.0 L6.45 0.0 8.4 0.2 Q9.5 0.45 10.05 1.15 10.6 1.75 10.75 2.55 L10.85 5.0 6.9 5.0 6.7 3.9 6.65 3.9 5.7 3.85 5.35 3.85 4.35 3.9 4.3 3.9 4.25 3.95 4.2 5.85 4.3 6.7 6.8 6.7 6.8 5.3 10.9 5.3" fill="#002e2b" fill-rule="evenodd" stroke="none"/>
  </g>
</svg>
