<?xml version="1.0" encoding="UTF-8" standalone="no"?>
<svg xmlns:ffdec="https://www.free-decompiler.com/flash" xmlns:xlink="http://www.w3.org/1999/xlink" ffdec:objectType="shape" height="8.45px" width="8.7px" xmlns="http://www.w3.org/2000/svg">
  <g transform="matrix(1.0, 0.0, 0.0, 1.0, -5.55, -4.8)">
    <path d="M13.3 5.3 Q14.0 5.7 14.0 6.95 L13.75 8.2 Q13.4 8.65 12.55 8.85 13.45 8.85 13.9 9.35 14.25 9.85 14.25 10.8 14.25 12.1 13.6 12.7 12.9 13.25 11.2 13.25 L5.55 13.25 5.55 4.8 11.0 4.8 Q12.6 4.8 13.3 5.3 M10.65 6.6 L7.7 6.6 7.7 8.15 10.95 8.15 11.65 8.0 11.85 7.35 11.6 6.7 10.65 6.6 M10.55 9.8 L7.7 9.8 7.7 11.6 10.7 11.6 11.8 11.45 Q12.1 11.3 12.1 10.65 12.1 9.95 11.7 9.85 L10.55 9.8" fill="#ffffff" fill-rule="evenodd" stroke="none"/>
  </g>
</svg>
