<?xml version="1.0" encoding="UTF-8" standalone="no"?>
<svg xmlns:ffdec="https://www.free-decompiler.com/flash" xmlns:xlink="http://www.w3.org/1999/xlink" ffdec:objectType="shape" height="169.8px" width="33.55px" xmlns="http://www.w3.org/2000/svg">
  <g transform="matrix(1.0, 0.0, 0.0, 1.0, 0.0, -81.45)">
    <path d="M30.0 95.75 L24.4 90.1 9.0 90.1 3.35 95.75 3.35 240.85 9.0 246.5 24.4 246.5 30.0 240.85 30.0 95.75" fill="url(#gradient0)" fill-rule="evenodd" stroke="none"/>
    <path d="M30.0 95.75 L30.0 240.85 24.4 246.5 9.0 246.5 3.35 240.85 3.35 95.75 9.0 90.1 24.4 90.1 30.0 95.75 Z" fill="none" stroke="#00a1ff" stroke-linecap="butt" stroke-linejoin="miter-clip" stroke-miterlimit="4.0" stroke-width="2.0"/>
    <path d="M10.65 108.0 L8.45 91.7 2.95 99.95 2.95 240.4 8.45 248.65 Q9.55 244.5 10.65 232.55 12.9 208.75 12.9 169.95 12.9 131.9 10.65 108.0" fill="url(#gradient1)" fill-rule="evenodd" stroke="none"/>
    <path d="M33.55 94.0 L26.45 86.9 7.05 86.9 0.0 94.0 0.0 99.5 33.55 99.5 33.55 94.0" fill="url(#gradient2)" fill-rule="evenodd" stroke="none"/>
    <path d="M22.95 81.45 L10.45 81.45 10.45 87.0 22.95 87.0 22.95 81.45" fill="url(#gradient3)" fill-rule="evenodd" stroke="none"/>
    <path d="M33.35 99.55 L33.35 94.0 0.05 94.0 0.05 99.55 33.35 99.55" fill="url(#gradient4)" fill-rule="evenodd" stroke="none"/>
    <path d="M0.0 238.65 L0.0 244.15 7.05 251.25 26.45 251.25 33.55 244.15 33.55 238.65 0.0 238.65" fill="url(#gradient5)" fill-rule="evenodd" stroke="none"/>
    <path d="M0.05 238.6 L0.05 244.15 33.35 244.15 33.35 238.6 0.05 238.6" fill="url(#gradient6)" fill-rule="evenodd" stroke="none"/>
  </g>
  <defs>
    <linearGradient gradientTransform="matrix(0.0165, 0.0, 0.0, 0.0165, 16.05, 168.3)" gradientUnits="userSpaceOnUse" id="gradient0" spreadMethod="pad" x1="-819.2" x2="819.2">
      <stop offset="0.0" stop-color="#0f47ba"/>
      <stop offset="0.24313725490196078" stop-color="#000f63"/>
      <stop offset="0.37254901960784315" stop-color="#001566"/>
      <stop offset="0.5450980392156862" stop-color="#002670"/>
      <stop offset="0.7450980392156863" stop-color="#004180"/>
      <stop offset="0.9568627450980393" stop-color="#006797"/>
      <stop offset="1.0" stop-color="#00709c"/>
    </linearGradient>
    <linearGradient gradientTransform="matrix(-0.0061, 0.0, 0.0, -0.0061, 7.95, 170.15)" gradientUnits="userSpaceOnUse" id="gradient1" spreadMethod="pad" x1="-819.2" x2="819.2">
      <stop offset="0.0" stop-color="#33ffff" stop-opacity="0.05882353"/>
      <stop offset="0.23137254901960785" stop-color="#36ffff" stop-opacity="0.07058824"/>
      <stop offset="0.4235294117647059" stop-color="#41ffff" stop-opacity="0.105882354"/>
      <stop offset="0.6078431372549019" stop-color="#52ffff" stop-opacity="0.16862746"/>
      <stop offset="0.7803921568627451" stop-color="#6bffff" stop-opacity="0.25490198"/>
      <stop offset="0.9490196078431372" stop-color="#8affff" stop-opacity="0.36862746"/>
      <stop offset="1.0" stop-color="#96ffff" stop-opacity="0.40784314"/>
    </linearGradient>
    <linearGradient gradientTransform="matrix(-0.0205, 0.0, 0.0, -0.0205, 16.75, 93.2)" gradientUnits="userSpaceOnUse" id="gradient2" spreadMethod="pad" x1="-819.2" x2="819.2">
      <stop offset="0.0" stop-color="#6d6e70"/>
      <stop offset="0.10980392156862745" stop-color="#454647"/>
      <stop offset="0.9058823529411765" stop-color="#c2c4c7"/>
      <stop offset="1.0" stop-color="#555555"/>
    </linearGradient>
    <linearGradient gradientTransform="matrix(0.0076, 0.0, 0.0, -0.0076, 16.7, 84.2)" gradientUnits="userSpaceOnUse" id="gradient3" spreadMethod="pad" x1="-819.2" x2="819.2">
      <stop offset="0.0" stop-color="#75757a"/>
      <stop offset="0.40784313725490196" stop-color="#737375"/>
      <stop offset="0.7019607843137254" stop-color="#bac2c2"/>
      <stop offset="1.0" stop-color="#babfbf"/>
    </linearGradient>
    <linearGradient gradientTransform="matrix(-0.0203, 0.0, 0.0, -0.0203, 16.7, 96.75)" gradientUnits="userSpaceOnUse" id="gradient4" spreadMethod="pad" x1="-819.2" x2="819.2">
      <stop offset="0.0" stop-color="#a4a5a7"/>
      <stop offset="0.19215686274509805" stop-color="#75757a"/>
      <stop offset="0.3568627450980392" stop-color="#949597"/>
      <stop offset="0.7372549019607844" stop-color="#f0edf5"/>
      <stop offset="1.0" stop-color="#d9d9db"/>
    </linearGradient>
    <linearGradient gradientTransform="matrix(0.0205, 0.0, 0.0, -0.0205, 16.75, 244.95)" gradientUnits="userSpaceOnUse" id="gradient5" spreadMethod="pad" x1="-819.2" x2="819.2">
      <stop offset="0.0" stop-color="#6d6e70"/>
      <stop offset="0.10980392156862745" stop-color="#454647"/>
      <stop offset="0.9058823529411765" stop-color="#c2c4c7"/>
      <stop offset="1.0" stop-color="#555555"/>
    </linearGradient>
    <linearGradient gradientTransform="matrix(0.0203, 0.0, 0.0, -0.0203, 16.7, 241.35)" gradientUnits="userSpaceOnUse" id="gradient6" spreadMethod="pad" x1="-819.2" x2="819.2">
      <stop offset="0.0" stop-color="#a4a5a7"/>
      <stop offset="0.19215686274509805" stop-color="#75757a"/>
      <stop offset="0.3568627450980392" stop-color="#949597"/>
      <stop offset="0.7372549019607844" stop-color="#f0edf5"/>
      <stop offset="1.0" stop-color="#d9d9db"/>
    </linearGradient>
  </defs>
</svg>
