<?xml version="1.0" encoding="UTF-8" standalone="no"?>
<svg xmlns:ffdec="https://www.free-decompiler.com/flash" xmlns:xlink="http://www.w3.org/1999/xlink" ffdec:objectType="shape" height="14.3px" width="12.15px" xmlns="http://www.w3.org/2000/svg">
  <g transform="matrix(1.0, 0.0, 0.0, 1.0, -3.8, -3.1)">
    <path d="M15.95 7.35 Q15.95 12.9 9.9 17.4 3.8 12.9 3.8 7.35 L4.0 4.15 5.35 4.15 Q7.1 4.3 9.9 3.1 12.35 4.35 14.35 4.15 L15.75 4.15 15.95 7.35" fill="#85750d" fill-rule="evenodd" stroke="none"/>
    <path d="M14.85 7.9 Q14.85 12.45 9.9 16.1 4.9 12.45 4.9 7.9 L5.1 5.25 6.2 5.3 Q7.8 5.4 9.9 4.45 11.85 5.4 13.55 5.3 L14.65 5.25 14.85 7.9" fill="#684508" fill-rule="evenodd" stroke="none"/>
  </g>
</svg>
