<?xml version="1.0" encoding="UTF-8" standalone="no"?>
<svg xmlns:ffdec="https://www.free-decompiler.com/flash" xmlns:xlink="http://www.w3.org/1999/xlink" ffdec:objectType="shape" height="9.65px" width="8.15px" xmlns="http://www.w3.org/2000/svg">
  <g transform="matrix(1.0, 0.0, 0.0, 1.0, -5.8, -4.2)">
    <path d="M13.95 10.75 Q13.95 11.6 13.45 12.45 13.0 13.1 12.05 13.5 L9.75 13.85 7.55 13.45 Q6.6 13.05 6.2 12.5 5.8 11.95 5.8 11.3 5.8 11.1 6.5 10.8 L7.35 10.55 7.7 11.05 8.6 12.0 10.0 12.3 11.15 12.0 11.6 11.3 Q11.6 10.65 11.15 10.35 L9.55 9.8 7.55 9.2 6.35 8.3 Q5.9 7.8 5.9 6.95 5.9 6.15 6.3 5.6 6.7 5.0 7.55 4.6 L9.55 4.2 11.25 4.4 12.45 4.9 13.2 5.6 13.45 6.4 12.7 6.9 11.8 7.1 11.2 6.5 10.55 5.9 9.55 5.7 Q8.95 5.7 8.5 6.0 8.1 6.2 8.1 6.65 8.1 7.1 8.4 7.3 L9.25 7.7 10.7 8.05 Q11.9 8.35 12.5 8.7 L13.55 9.6 Q13.95 10.15 13.95 10.75" fill="#ffffff" fill-rule="evenodd" stroke="none"/>
  </g>
</svg>
