<?xml version="1.0" encoding="UTF-8" standalone="no"?>
<svg xmlns:ffdec="https://www.free-decompiler.com/flash" xmlns:xlink="http://www.w3.org/1999/xlink" ffdec:objectType="shape" height="12.15px" width="25.9px" xmlns="http://www.w3.org/2000/svg">
  <g transform="matrix(1.0, 0.0, 0.0, 1.0, 0.0, 0.0)">
    <path d="M9.35 0.5 L23.9 0.5 Q24.5 0.5 24.95 0.95 25.4 1.4 25.4 2.0 L25.2 10.15 24.75 11.2 Q24.3 11.65 23.7 11.65 L1.6 11.65 Q0.9 11.65 0.6 11.1 0.4 10.65 0.8 10.05 L7.35 1.5 Q8.15 0.5 9.35 0.5" fill="#662602" fill-rule="evenodd" stroke="none"/>
    <path d="M1.6 12.15 Q0.55 12.15 0.15 11.35 -0.25 10.55 0.4 9.75 L6.95 1.2 Q7.9 0.0 9.35 0.0 L23.9 0.0 Q24.8 0.0 25.3 0.6 25.9 1.2 25.9 2.05 L25.7 10.15 Q25.7 11.0 25.1 11.55 24.55 12.15 23.7 12.15 L1.6 12.15 M9.35 1.0 Q8.35 1.0 7.75 1.8 L1.2 10.35 Q0.95 10.65 1.05 10.9 1.2 11.15 1.6 11.15 L23.7 11.15 Q24.1 11.15 24.4 10.85 L24.7 10.15 24.9 2.0 24.6 1.3 Q24.3 1.0 23.9 1.0 L9.35 1.0" fill="#a57305" fill-rule="evenodd" stroke="none"/>
    <path d="M23.75 6.2 L21.15 9.75 18.2 9.75 21.05 6.15 18.2 2.45 20.85 2.4 23.75 6.2" fill="#f78508" fill-rule="evenodd" stroke="none"/>
    <path d="M19.7 6.2 L17.1 9.75 14.2 9.75 17.0 6.15 14.2 2.45 16.85 2.4 19.7 6.2" fill="#bc6106" fill-rule="evenodd" stroke="none"/>
    <path d="M15.9 6.2 L13.3 9.75 10.4 9.75 13.2 6.15 10.4 2.45 13.05 2.4 15.9 6.2" fill="#9b4a07" fill-rule="evenodd" stroke="none"/>
  </g>
</svg>
