<?xml version="1.0" encoding="UTF-8" standalone="no"?>
<svg xmlns:ffdec="https://www.free-decompiler.com/flash" xmlns:xlink="http://www.w3.org/1999/xlink" ffdec:objectType="shape" height="13.35px" width="28.5px" xmlns="http://www.w3.org/2000/svg">
  <g transform="matrix(1.0, 0.0, 0.0, 1.0, 1.3, 0.6)">
    <path d="M9.0 -0.05 L25.0 -0.05 Q25.65 -0.05 26.15 0.45 26.65 0.9 26.65 1.6 L26.45 10.55 Q26.45 11.2 25.95 11.7 25.45 12.2 24.8 12.2 L0.5 12.2 Q-0.3 12.2 -0.6 11.6 -0.85 11.1 -0.4 10.45 L6.8 1.05 Q7.7 -0.05 9.0 -0.05" fill="#662602" fill-rule="evenodd" stroke="none"/>
    <path d="M9.0 0.5 Q7.9 0.5 7.25 1.35 L0.05 10.75 Q-0.25 11.1 -0.15 11.35 0.05 11.65 0.5 11.65 L24.8 11.65 Q25.25 11.65 25.55 11.3 L25.9 10.55 26.1 1.6 25.8 0.8 25.0 0.5 9.0 0.5 M0.5 12.75 Q-0.7 12.75 -1.1 11.85 -1.55 11.0 -0.85 10.1 L6.35 0.7 Q7.4 -0.6 9.0 -0.6 L25.0 -0.6 Q26.0 -0.6 26.55 0.05 27.2 0.7 27.2 1.65 L27.0 10.55 Q27.0 11.5 26.35 12.1 25.7 12.75 24.8 12.75 L0.5 12.75" fill="#a57305" fill-rule="evenodd" stroke="none"/>
    <path d="M24.85 6.2 L22.0 10.1 18.75 10.1 21.85 6.15 18.75 2.1 21.65 2.0 24.85 6.2" fill="#f78508" fill-rule="evenodd" stroke="none"/>
    <path d="M20.4 6.2 L17.55 10.1 14.35 10.1 17.4 6.15 14.35 2.1 17.25 2.0 20.4 6.2" fill="#bc6106" fill-rule="evenodd" stroke="none"/>
    <path d="M16.2 6.2 L13.35 10.1 10.15 10.1 13.25 6.15 10.15 2.1 13.05 2.0 16.2 6.2" fill="#9b4a07" fill-rule="evenodd" stroke="none"/>
  </g>
</svg>
