<?xml version="1.0" encoding="UTF-8" standalone="no"?>
<svg xmlns:ffdec="https://www.free-decompiler.com/flash" xmlns:xlink="http://www.w3.org/1999/xlink" ffdec:objectType="shape" height="106.35px" width="101.95px" xmlns="http://www.w3.org/2000/svg">
  <g transform="matrix(1.0, 0.0, 0.0, 1.0, 0.0, 0.0)">
    <path d="M89.25 47.8 Q89.85 51.35 89.85 54.7 L89.6 58.95 89.5 59.8 101.95 69.3 86.6 70.3 86.2 71.1 Q83.65 76.7 79.05 81.55 L78.45 82.2 82.5 97.0 70.2 88.5 69.35 88.95 Q63.25 92.2 56.85 93.15 L55.95 93.25 51.0 106.35 46.0 93.25 45.1 93.15 Q38.7 92.2 32.6 88.95 L31.8 88.5 19.45 97.0 23.5 82.2 22.9 81.55 Q18.3 76.7 15.75 71.1 L15.35 70.3 0.0 69.3 12.45 59.8 12.35 58.95 12.1 54.7 Q12.1 51.25 12.7 47.8 L12.9 46.95 0.0 37.05 16.9 36.0 17.3 35.3 Q19.95 30.75 23.55 27.15 L24.15 26.55 19.45 9.35 34.25 19.6 35.05 19.25 Q39.4 17.3 43.95 16.5 L44.75 16.35 51.0 0.0 57.2 16.35 58.0 16.5 Q62.55 17.3 66.9 19.25 L67.7 19.6 82.5 9.35 77.8 26.55 78.4 27.15 Q81.9 30.55 84.65 35.3 L85.05 36.0 101.95 37.05 89.05 46.95 89.25 47.8 M86.25 49.1 L72.3 59.75 77.5 78.7 79.35 76.25 Q86.6 66.7 86.6 54.7 L86.25 49.1 M40.55 20.65 Q29.6 24.0 22.65 33.1 L20.65 35.75 37.8 34.65 43.45 19.75 40.55 20.65 M61.45 20.65 L58.5 19.75 64.15 34.65 81.3 35.75 79.3 33.1 Q72.35 24.05 61.45 20.65 M24.45 78.7 L29.65 59.75 15.7 49.1 15.35 54.7 Q15.35 66.7 22.6 76.25 L24.45 78.7 M37.2 87.55 Q43.65 90.3 51.0 90.3 58.3 90.3 64.75 87.55 L67.3 86.5 51.0 75.25 34.65 86.5 37.2 87.55" fill="#fcee21" fill-rule="evenodd" stroke="none"/>
  </g>
</svg>
