<?xml version="1.0" encoding="UTF-8" standalone="no"?>
<svg xmlns:ffdec="https://www.free-decompiler.com/flash" xmlns:xlink="http://www.w3.org/1999/xlink" ffdec:objectType="shape" height="179.45px" width="33.55px" xmlns="http://www.w3.org/2000/svg">
  <g transform="matrix(1.0, 0.0, 0.0, 1.0, 0.0, 0.0)">
    <path d="M20.35 0.0 L20.35 1.1 23.1 1.1 23.1 6.55 26.5 6.55 33.55 13.65 33.55 19.15 33.5 19.15 33.5 19.2 30.3 19.2 30.6 19.6 30.6 158.25 33.5 158.25 33.5 158.3 33.55 158.3 33.55 163.8 26.5 170.9 21.9 170.9 21.9 174.55 Q21.9 176.6 20.45 178.0 19.05 179.45 17.0 179.45 15.0 179.45 13.6 178.0 12.15 176.55 12.15 174.55 L12.15 170.9 7.1 170.9 0.0 163.8 0.0 158.3 0.2 158.3 0.2 158.25 3.55 158.25 3.55 19.2 0.2 19.2 0.2 19.15 0.0 19.15 0.0 13.65 7.1 6.55 10.6 6.55 10.6 1.1 13.35 1.1 13.35 0.0 20.35 0.0" fill="#000000" fill-rule="evenodd" stroke="none"/>
  </g>
</svg>
