<?xml version="1.0" encoding="UTF-8" standalone="no"?>
<svg xmlns:ffdec="https://www.free-decompiler.com/flash" xmlns:xlink="http://www.w3.org/1999/xlink" ffdec:objectType="shape" height="114.2px" width="114.25px" xmlns="http://www.w3.org/2000/svg">
  <g transform="matrix(1.0, 0.0, 0.0, 1.0, 0.0, 0.0)">
    <path d="M90.4 10.7 Q101.6 18.7 107.95 31.05 114.25 43.35 114.25 57.1 114.25 80.75 97.5 97.45 80.8 114.2 57.15 114.2 33.5 114.2 16.75 97.45 0.0 80.7 0.0 57.1 0.0 43.35 6.3 31.05 12.65 18.7 23.85 10.7 L24.25 10.4 Q31.5 5.3 39.9 2.65 48.25 0.0 57.15 0.0 66.0 0.0 74.4 2.65 82.75 5.3 90.0 10.4 L90.4 10.7 M89.0 13.35 L84.5 29.8 84.9 30.2 Q88.7 34.0 91.25 38.45 L91.5 38.9 108.5 40.0 108.0 38.55 Q102.65 23.85 90.2 14.25 L89.0 13.35 M86.75 11.8 Q74.1 3.55 59.0 3.0 L57.5 2.95 63.7 19.3 64.25 19.4 Q68.9 20.2 73.25 22.2 L73.8 22.4 88.0 12.6 86.75 11.8 M85.05 36.8 Q78.1 27.75 67.45 24.5 L65.45 23.9 70.65 37.55 86.4 38.55 85.05 36.8 M108.7 40.65 L95.75 50.55 95.85 51.15 Q96.5 54.45 96.5 58.1 L96.25 62.4 96.2 62.95 108.95 72.75 109.35 71.3 Q111.25 64.25 111.25 57.1 111.25 49.3 109.1 42.05 L108.7 40.65 M92.0 53.45 L79.05 63.35 83.85 80.95 85.1 79.35 Q92.25 69.9 92.25 58.1 L92.0 53.45 M85.15 85.7 L89.25 100.7 90.4 99.75 Q103.15 89.85 108.35 74.6 L108.85 73.15 93.1 74.2 92.85 74.7 Q90.1 80.55 85.55 85.3 L85.15 85.7 M46.8 24.5 Q36.15 27.8 29.2 36.8 L27.85 38.55 43.6 37.55 48.8 23.9 46.8 24.5 M55.25 3.0 Q40.15 3.55 27.5 11.8 L26.25 12.6 40.45 22.4 41.0 22.2 Q45.35 20.2 50.0 19.4 L50.55 19.3 56.75 2.95 55.25 3.0 M45.0 39.45 L10.25 41.7 37.5 62.55 28.15 96.85 57.15 76.8 86.1 96.85 76.75 62.55 104.05 41.7 69.25 39.45 57.15 7.65 45.0 39.45 M57.15 24.5 L65.05 45.2 87.65 46.65 69.9 60.25 76.0 82.55 57.15 69.55 38.25 82.55 44.35 60.25 26.6 46.65 49.2 45.2 57.15 24.5 M24.05 14.25 Q11.6 23.85 6.25 38.55 L5.75 40.0 22.75 38.9 23.0 38.45 Q25.55 34.0 29.35 30.2 L29.75 29.8 25.25 13.35 24.05 14.25 M5.15 42.05 Q3.0 49.3 3.0 57.1 3.0 64.25 4.9 71.3 L5.3 72.75 18.05 62.95 18.0 62.4 17.75 58.1 Q17.75 54.45 18.4 51.15 L18.5 50.55 5.55 40.65 5.15 42.05 M22.0 58.1 Q22.0 69.9 29.15 79.35 L30.4 80.95 35.2 63.35 22.25 53.45 22.0 58.1 M37.95 92.5 L25.55 101.05 26.75 101.9 Q39.8 110.75 55.65 111.2 L58.6 111.2 Q74.55 110.75 87.5 101.9 L88.75 101.05 76.3 92.5 75.75 92.75 Q69.9 96.0 63.05 97.05 L62.5 97.1 57.15 111.15 51.75 97.1 51.2 97.05 Q44.35 96.0 38.5 92.75 L37.95 92.5 M21.45 74.7 L21.2 74.2 5.4 73.15 5.9 74.6 Q11.1 89.85 23.85 99.75 L25.0 100.7 29.1 85.7 28.7 85.3 Q24.15 80.5 21.45 74.7 M64.2 58.3 L74.0 50.8 61.5 50.0 57.15 38.5 52.75 50.0 40.25 50.8 50.05 58.3 46.7 70.65 57.15 63.45 67.55 70.65 64.2 58.3 M41.85 89.8 L43.55 90.5 Q50.0 93.2 57.15 93.2 64.25 93.2 70.7 90.5 L72.4 89.8 57.15 79.25 41.85 89.8" fill="#fcee21" fill-rule="evenodd" stroke="none"/>
  </g>
</svg>
