<?xml version="1.0" encoding="UTF-8" standalone="no"?>
<svg xmlns:ffdec="https://www.free-decompiler.com/flash" xmlns:xlink="http://www.w3.org/1999/xlink" ffdec:objectType="shape" height="208.8px" width="180.1px" xmlns="http://www.w3.org/2000/svg">
  <g transform="matrix(1.0, 0.0, 0.0, 1.0, -4.1, -4.35)">
    <path d="M12.15 12.45 Q18.2 6.4 26.8 6.35 35.35 6.35 41.45 12.4 47.55 18.5 47.55 27.1 47.55 35.7 41.45 41.75 35.4 47.85 26.8 47.85 18.25 47.85 12.15 41.75 6.1 35.7 6.1 27.1 6.1 18.55 12.15 12.45" fill="#1c7703" fill-rule="evenodd" stroke="none"/>
    <path d="M12.15 12.45 Q6.1 18.55 6.1 27.1 6.1 35.7 12.15 41.75 18.25 47.85 26.8 47.85 35.4 47.85 41.45 41.75 47.55 35.7 47.55 27.1 47.55 18.5 41.45 12.4 35.35 6.35 26.8 6.35 18.2 6.4 12.15 12.45 Z" fill="none" stroke="#43a305" stroke-linecap="butt" stroke-linejoin="miter-clip" stroke-miterlimit="4.0" stroke-width="4.0"/>
    <path d="M12.4 12.7 Q18.35 6.75 26.8 6.75 35.25 6.75 41.2 12.7 47.15 18.65 47.15 27.1 47.15 35.5 41.2 41.45 35.25 47.4 26.85 47.4 18.4 47.45 12.45 41.5 6.5 35.55 6.5 27.1 6.45 18.65 12.4 12.7" fill="#337c04" fill-rule="evenodd" stroke="none"/>
    <path d="M26.8 8.05 Q34.7 8.05 40.3 13.6 45.85 19.2 45.85 27.1 45.85 35.0 40.3 40.55 34.7 46.15 26.8 46.15 18.95 46.15 13.35 40.55 7.75 35.0 7.75 27.1 7.75 19.2 13.35 13.6 18.9 8.05 26.8 8.05" fill="#016b06" fill-rule="evenodd" stroke="none"/>
    <path d="M30.65 10.05 Q37.3 11.6 41.05 17.25 L39.65 18.1 Q36.25 13.0 30.25 11.6 24.2 10.25 18.9 13.4 15.95 15.2 14.0 18.05 L12.55 17.25 Q14.8 13.9 18.1 11.95 23.95 8.45 30.65 10.05" fill="#31f708" fill-rule="evenodd" stroke="none"/>
    <path d="M13.5 34.6 Q15.55 38.05 19.05 40.05 22.45 42.0 26.35 42.1 L26.35 43.75 Q22.0 43.65 18.25 41.5 14.4 39.25 12.1 35.4 9.8 31.6 9.75 27.1 9.65 22.8 11.6 18.9 L13.0 19.75 Q11.25 23.25 11.35 27.1 11.45 31.1 13.5 34.6" fill="#31f708" fill-rule="evenodd" stroke="none"/>
    <path d="M28.3 42.05 Q31.8 41.75 34.7 40.0 39.95 36.85 41.65 31.0 43.35 25.2 40.65 19.75 L42.05 18.95 Q45.1 24.95 43.25 31.4 41.4 37.95 35.55 41.4 32.15 43.4 28.3 43.7 L28.3 42.05" fill="#31f708" fill-rule="evenodd" stroke="none"/>
    <path d="M184.2 210.15 Q184.2 211.4 183.3 212.25 182.45 213.15 181.2 213.15 L32.2 213.15 Q30.95 213.15 30.1 212.25 29.2 211.4 29.2 210.15 L29.2 198.9 Q29.2 197.65 30.1 196.8 30.95 195.9 32.2 195.9 L181.2 195.9 Q182.45 195.9 183.3 196.8 184.2 197.65 184.2 198.9 L184.2 210.15" fill="#011601" fill-rule="evenodd" stroke="none"/>
  </g>
</svg>
