<?xml version="1.0" encoding="UTF-8" standalone="no"?>
<svg xmlns:ffdec="https://www.free-decompiler.com/flash" xmlns:xlink="http://www.w3.org/1999/xlink" ffdec:objectType="shape" height="12.15px" width="25.85px" xmlns="http://www.w3.org/2000/svg">
  <g transform="matrix(1.0, 0.0, 0.0, 1.0, 0.0, 0.0)">
    <path d="M23.65 11.65 L1.55 11.65 Q0.85 11.65 0.6 11.1 0.3 10.65 0.75 10.05 L7.3 1.5 Q8.1 0.5 9.35 0.5 L23.85 0.5 Q24.55 0.5 24.9 0.95 25.35 1.4 25.35 2.0 L25.2 10.15 24.75 11.2 Q24.3 11.65 23.65 11.65" fill="url(#gradient0)" fill-rule="evenodd" stroke="none"/>
    <path d="M24.55 1.3 Q24.25 1.0 23.85 1.0 L9.35 1.0 Q8.3 1.0 7.7 1.8 L1.15 10.35 Q0.9 10.65 1.05 10.9 1.15 11.15 1.55 11.15 L23.65 11.15 24.35 10.85 24.7 10.15 24.85 2.0 24.55 1.3 M23.85 0.0 Q24.75 0.0 25.25 0.6 25.85 1.2 25.85 2.05 L25.7 10.15 Q25.65 11.0 25.05 11.55 24.45 12.15 23.65 12.15 L1.55 12.15 Q0.55 12.15 0.15 11.35 -0.25 10.6 0.4 9.7 L6.9 1.2 Q7.85 0.0 9.35 0.0 L23.85 0.0" fill="#00aa51" fill-rule="evenodd" stroke="none"/>
    <path d="M23.05 6.2 L20.45 9.75 17.55 9.75 20.35 6.15 17.55 2.45 20.2 2.4 23.05 6.2" fill="#31f708" fill-rule="evenodd" stroke="none"/>
    <path d="M19.05 6.2 L16.45 9.75 13.5 9.75 16.35 6.15 13.5 2.45 16.15 2.4 19.05 6.2" fill="#2abf06" fill-rule="evenodd" stroke="none"/>
    <path d="M15.25 6.2 L12.65 9.75 9.7 9.75 12.5 6.15 9.7 2.45 12.35 2.4 15.25 6.2" fill="#227f04" fill-rule="evenodd" stroke="none"/>
  </g>
  <defs>
    <linearGradient gradientTransform="matrix(0.0152, 0.0, 0.0, -0.0152, 12.9, 6.05)" gradientUnits="userSpaceOnUse" id="gradient0" spreadMethod="pad" x1="-819.2" x2="819.2">
      <stop offset="0.0" stop-color="#003814"/>
      <stop offset="1.0" stop-color="#004d28"/>
    </linearGradient>
  </defs>
</svg>
