<?xml version="1.0" encoding="UTF-8" standalone="no"?>
<svg xmlns:ffdec="https://www.free-decompiler.com/flash" xmlns:xlink="http://www.w3.org/1999/xlink" ffdec:objectType="shape" height="13.35px" width="28.45px" xmlns="http://www.w3.org/2000/svg">
  <g transform="matrix(1.0, 0.0, 0.0, 1.0, 1.3, 0.6)">
    <path d="M24.7 12.2 L0.4 12.2 Q-0.35 12.2 -0.65 11.6 -0.95 11.1 -0.45 10.45 L6.75 1.05 Q7.6 -0.05 9.0 -0.05 L24.95 -0.05 Q25.7 -0.05 26.1 0.45 26.6 0.9 26.6 1.6 L26.45 10.55 25.95 11.7 Q25.45 12.2 24.7 12.2" fill="url(#gradient0)" fill-rule="evenodd" stroke="none"/>
    <path d="M24.95 -0.6 Q25.95 -0.6 26.5 0.05 27.15 0.7 27.15 1.65 L27.0 10.55 Q26.9 11.5 26.25 12.1 25.6 12.75 24.7 12.75 L0.4 12.75 Q-0.7 12.75 -1.15 11.85 -1.55 11.05 -0.85 10.05 L6.3 0.7 Q7.35 -0.6 9.0 -0.6 L24.95 -0.6 M25.7 0.8 L24.95 0.5 9.0 0.5 Q7.85 0.5 7.2 1.35 L-0.05 10.75 Q-0.3 11.1 -0.15 11.35 -0.05 11.65 0.4 11.65 L24.7 11.65 Q25.15 11.65 25.5 11.3 L25.9 10.55 26.05 1.6 Q26.05 1.15 25.7 0.8" fill="#00aa51" fill-rule="evenodd" stroke="none"/>
    <path d="M24.05 6.2 L21.2 10.1 18.0 10.1 21.1 6.15 18.0 2.1 20.95 2.0 24.05 6.2" fill="#31f708" fill-rule="evenodd" stroke="none"/>
    <path d="M19.65 6.2 L16.8 10.1 13.55 10.1 16.7 6.15 13.55 2.1 16.45 2.0 19.65 6.2" fill="#2abf06" fill-rule="evenodd" stroke="none"/>
    <path d="M15.5 6.2 L12.6 10.1 9.4 10.1 12.45 6.15 9.4 2.1 12.3 2.0 15.5 6.2" fill="#227f04" fill-rule="evenodd" stroke="none"/>
  </g>
  <defs>
    <linearGradient gradientTransform="matrix(0.0167, 0.0, 0.0, -0.0167, 12.9, 6.05)" gradientUnits="userSpaceOnUse" id="gradient0" spreadMethod="pad" x1="-819.2" x2="819.2">
      <stop offset="0.0" stop-color="#003814"/>
      <stop offset="1.0" stop-color="#004d28"/>
    </linearGradient>
  </defs>
</svg>
