<?xml version="1.0" encoding="UTF-8" standalone="no"?>
<svg xmlns:ffdec="https://www.free-decompiler.com/flash" xmlns:xlink="http://www.w3.org/1999/xlink" ffdec:objectType="shape" height="350.5px" width="260.95px" xmlns="http://www.w3.org/2000/svg">
  <g transform="matrix(1.0, 0.0, 0.0, 1.0, -16.35, -9.8)">
    <path d="M272.5 334.05 Q265.65 339.35 250.15 340.5 246.55 340.8 245.75 337.65 244.95 334.55 247.75 334.35 264.65 333.15 269.95 328.2 274.5 323.95 270.1 317.55 266.25 311.95 256.95 306.3 248.05 301.0 239.1 298.45 238.1 298.15 239.15 296.2 240.15 294.25 242.0 294.9 256.25 300.15 265.7 307.6 274.8 314.8 276.8 321.9 278.85 329.2 272.5 334.05" fill="url(#gradient0)" fill-rule="evenodd" stroke="none"/>
    <path d="M24.95 46.0 Q24.6 57.9 29.4 72.3 33.75 85.45 41.05 97.1 41.8 98.3 43.35 99.5 38.0 98.3 35.75 94.75 28.45 83.2 24.25 70.2 19.7 56.05 20.15 44.1 21.2 14.9 50.25 10.1 54.25 9.45 58.4 10.2 62.9 10.95 66.3 13.1 L60.9 13.25 55.8 14.35 Q40.1 15.5 32.25 24.55 25.35 32.55 24.95 46.0" fill="url(#gradient1)" fill-rule="evenodd" stroke="none"/>
    <path d="M37.35 337.35 L65.15 337.35 77.15 359.8 25.35 359.8 37.35 337.35" fill="#010e35" fill-rule="evenodd" stroke="none"/>
    <path d="M36.45 339.1 L26.3 358.0 Q25.95 358.75 26.25 359.3 26.55 359.8 27.35 359.8 L75.15 359.8 Q76.0 359.8 76.3 359.3 76.6 358.75 76.2 358.0 L66.1 339.1 Q65.75 338.4 64.85 337.85 64.0 337.35 63.15 337.35 L39.35 337.35 Q38.55 337.35 37.7 337.85 36.85 338.4 36.45 339.1 Z" fill="none" stroke="#044f99" stroke-linecap="butt" stroke-linejoin="miter-clip" stroke-miterlimit="4.0" stroke-width="1.0"/>
    <path d="M83.7 334.45 L86.2 336.95 86.2 345.3 80.35 351.15 73.4 351.15 71.75 348.2 79.0 348.2 83.7 343.5 83.7 334.45" fill="#606566" fill-rule="evenodd" stroke="none"/>
    <path d="M85.6 334.7 L84.85 334.0 84.85 317.9 85.6 318.65 85.6 334.7" fill="#748387" fill-opacity="0.8" fill-rule="evenodd" stroke="none"/>
    <path d="M75.3 350.35 L74.25 349.05 76.35 349.05 77.4 350.35 75.3 350.35" fill="#00ffff" fill-rule="evenodd" stroke="none"/>
    <path d="M18.8 334.45 L18.8 343.5 23.55 348.2 30.75 348.2 29.25 351.15 22.15 351.15 16.35 345.3 16.35 336.95 18.8 334.45" fill="#606566" fill-rule="evenodd" stroke="none"/>
    <path d="M16.9 334.7 L16.9 318.65 17.65 317.9 17.65 334.0 16.9 334.7" fill="#748387" fill-opacity="0.8" fill-rule="evenodd" stroke="none"/>
    <path d="M27.2 350.35 L25.1 350.35 26.15 349.05 28.25 349.05 27.2 350.35" fill="#00ffff" fill-rule="evenodd" stroke="none"/>
    <path d="M239.6 95.75 L245.2 90.1 260.6 90.1 266.25 95.75 266.25 240.85 260.6 246.5 245.2 246.5 239.6 240.85 239.6 95.75" fill="url(#gradient2)" fill-rule="evenodd" stroke="none"/>
    <path d="M239.6 95.75 L239.6 240.85 245.2 246.5 260.6 246.5 266.25 240.85 266.25 95.75 260.6 90.1 245.2 90.1 239.6 95.75 Z" fill="none" stroke="#00a1ff" stroke-linecap="butt" stroke-linejoin="miter-clip" stroke-miterlimit="4.0" stroke-width="2.0"/>
    <path d="M258.95 108.0 L261.15 91.7 266.65 99.95 266.65 240.4 261.15 248.65 Q260.05 244.5 258.95 232.55 256.7 208.75 256.7 169.95 256.7 131.9 258.95 108.0" fill="url(#gradient3)" fill-rule="evenodd" stroke="none"/>
    <path d="M236.05 94.0 L243.15 86.9 262.55 86.9 269.6 94.0 269.6 99.5 236.05 99.5 236.05 94.0" fill="url(#gradient4)" fill-rule="evenodd" stroke="none"/>
    <path d="M246.65 81.45 L259.15 81.45 259.15 87.0 246.65 87.0 246.65 81.45" fill="url(#gradient5)" fill-rule="evenodd" stroke="none"/>
    <path d="M236.25 99.55 L236.25 94.0 269.55 94.0 269.55 99.55 236.25 99.55" fill="url(#gradient6)" fill-rule="evenodd" stroke="none"/>
    <path d="M269.6 238.65 L269.6 244.15 262.55 251.25 243.15 251.25 236.05 244.15 236.05 238.65 269.6 238.65" fill="url(#gradient7)" fill-rule="evenodd" stroke="none"/>
    <path d="M269.55 238.6 L269.55 244.15 236.25 244.15 236.25 238.6 269.55 238.6" fill="url(#gradient8)" fill-rule="evenodd" stroke="none"/>
  </g>
  <defs>
    <linearGradient gradientTransform="matrix(0.0192, -0.0094, 0.0094, 0.0192, 254.8, 315.5)" gradientUnits="userSpaceOnUse" id="gradient0" spreadMethod="pad" x1="-819.2" x2="819.2">
      <stop offset="0.0" stop-color="#a1b317"/>
      <stop offset="0.023529411764705882" stop-color="#9dae16"/>
      <stop offset="0.20392156862745098" stop-color="#818d0e"/>
      <stop offset="0.39215686274509803" stop-color="#6b7308"/>
      <stop offset="0.5803921568627451" stop-color="#5b6103"/>
      <stop offset="0.7803921568627451" stop-color="#525601"/>
      <stop offset="1.0" stop-color="#4f5200"/>
    </linearGradient>
    <linearGradient gradientTransform="matrix(-0.0351, 0.0211, -0.0211, -0.0351, 49.6, 51.55)" gradientUnits="userSpaceOnUse" id="gradient1" spreadMethod="pad" x1="-819.2" x2="819.2">
      <stop offset="0.0" stop-color="#00a2ff"/>
      <stop offset="0.023529411764705882" stop-color="#009cf7"/>
      <stop offset="0.17647058823529413" stop-color="#007ecf"/>
      <stop offset="0.32941176470588235" stop-color="#0064ae"/>
      <stop offset="0.48627450980392156" stop-color="#005194"/>
      <stop offset="0.6470588235294118" stop-color="#004382"/>
      <stop offset="0.8117647058823529" stop-color="#003b77"/>
      <stop offset="1.0" stop-color="#003873"/>
    </linearGradient>
    <linearGradient gradientTransform="matrix(-0.0165, 0.0, 0.0, 0.0165, 253.55, 168.3)" gradientUnits="userSpaceOnUse" id="gradient2" spreadMethod="pad" x1="-819.2" x2="819.2">
      <stop offset="0.0" stop-color="#0f47ba"/>
      <stop offset="0.24313725490196078" stop-color="#000f63"/>
      <stop offset="0.37254901960784315" stop-color="#001566"/>
      <stop offset="0.5450980392156862" stop-color="#002670"/>
      <stop offset="0.7450980392156863" stop-color="#004180"/>
      <stop offset="0.9568627450980393" stop-color="#006797"/>
      <stop offset="1.0" stop-color="#00709c"/>
    </linearGradient>
    <linearGradient gradientTransform="matrix(0.0061, 0.0, 0.0, -0.0061, 261.65, 170.15)" gradientUnits="userSpaceOnUse" id="gradient3" spreadMethod="pad" x1="-819.2" x2="819.2">
      <stop offset="0.0" stop-color="#33ffff" stop-opacity="0.05882353"/>
      <stop offset="0.23137254901960785" stop-color="#36ffff" stop-opacity="0.07058824"/>
      <stop offset="0.4235294117647059" stop-color="#41ffff" stop-opacity="0.105882354"/>
      <stop offset="0.6078431372549019" stop-color="#52ffff" stop-opacity="0.16862746"/>
      <stop offset="0.7803921568627451" stop-color="#6bffff" stop-opacity="0.25490198"/>
      <stop offset="0.9490196078431372" stop-color="#8affff" stop-opacity="0.36862746"/>
      <stop offset="1.0" stop-color="#96ffff" stop-opacity="0.40784314"/>
    </linearGradient>
    <linearGradient gradientTransform="matrix(0.0205, 0.0, 0.0, -0.0205, 252.85, 93.2)" gradientUnits="userSpaceOnUse" id="gradient4" spreadMethod="pad" x1="-819.2" x2="819.2">
      <stop offset="0.0" stop-color="#6d6e70"/>
      <stop offset="0.10980392156862745" stop-color="#454647"/>
      <stop offset="0.9058823529411765" stop-color="#c2c4c7"/>
      <stop offset="1.0" stop-color="#555555"/>
    </linearGradient>
    <linearGradient gradientTransform="matrix(-0.0076, 0.0, 0.0, -0.0076, 252.9, 84.2)" gradientUnits="userSpaceOnUse" id="gradient5" spreadMethod="pad" x1="-819.2" x2="819.2">
      <stop offset="0.0" stop-color="#75757a"/>
      <stop offset="0.40784313725490196" stop-color="#737375"/>
      <stop offset="0.7019607843137254" stop-color="#bac2c2"/>
      <stop offset="1.0" stop-color="#babfbf"/>
    </linearGradient>
    <linearGradient gradientTransform="matrix(0.0203, 0.0, 0.0, -0.0203, 252.9, 96.75)" gradientUnits="userSpaceOnUse" id="gradient6" spreadMethod="pad" x1="-819.2" x2="819.2">
      <stop offset="0.0" stop-color="#a4a5a7"/>
      <stop offset="0.19215686274509805" stop-color="#75757a"/>
      <stop offset="0.3568627450980392" stop-color="#949597"/>
      <stop offset="0.7372549019607844" stop-color="#f0edf5"/>
      <stop offset="1.0" stop-color="#d9d9db"/>
    </linearGradient>
    <linearGradient gradientTransform="matrix(-0.0205, 0.0, 0.0, -0.0205, 252.85, 244.95)" gradientUnits="userSpaceOnUse" id="gradient7" spreadMethod="pad" x1="-819.2" x2="819.2">
      <stop offset="0.0" stop-color="#6d6e70"/>
      <stop offset="0.10980392156862745" stop-color="#454647"/>
      <stop offset="0.9058823529411765" stop-color="#c2c4c7"/>
      <stop offset="1.0" stop-color="#555555"/>
    </linearGradient>
    <linearGradient gradientTransform="matrix(-0.0203, 0.0, 0.0, -0.0203, 252.9, 241.35)" gradientUnits="userSpaceOnUse" id="gradient8" spreadMethod="pad" x1="-819.2" x2="819.2">
      <stop offset="0.0" stop-color="#a4a5a7"/>
      <stop offset="0.19215686274509805" stop-color="#75757a"/>
      <stop offset="0.3568627450980392" stop-color="#949597"/>
      <stop offset="0.7372549019607844" stop-color="#f0edf5"/>
      <stop offset="1.0" stop-color="#d9d9db"/>
    </linearGradient>
  </defs>
</svg>
