<?xml version="1.0" encoding="UTF-8" standalone="no"?>
<svg xmlns:ffdec="https://www.free-decompiler.com/flash" xmlns:xlink="http://www.w3.org/1999/xlink" ffdec:objectType="shape" height="10.9px" width="23.3px" xmlns="http://www.w3.org/2000/svg">
  <g transform="matrix(1.0, 0.0, 0.0, 1.0, -1.25, -0.6)">
    <path d="M22.6 11.05 L2.75 11.05 Q2.05 11.05 1.85 10.6 1.6 10.05 2.0 9.6 L7.9 1.9 8.7 1.25 9.7 1.05 22.8 1.05 Q23.3 1.05 23.75 1.4 24.1 1.85 24.1 2.4 L23.95 9.7 Q23.95 10.25 23.55 10.65 23.15 11.05 22.6 11.05" fill="#664c02" fill-rule="evenodd" stroke="none"/>
    <path d="M7.55 1.65 Q8.25 0.6 9.7 0.6 L22.8 0.6 Q23.45 0.6 24.05 1.1 24.55 1.65 24.55 2.4 L24.4 9.7 Q24.4 10.4 23.9 10.95 23.35 11.5 22.6 11.5 L2.75 11.5 Q1.8 11.5 1.4 10.75 1.05 10.05 1.65 9.3 L7.55 1.65 M9.7 1.5 Q8.75 1.5 8.25 2.15 L2.35 9.85 Q2.15 10.2 2.25 10.35 2.35 10.6 2.75 10.6 L22.6 10.6 23.25 10.3 23.5 9.7 23.65 2.4 23.45 1.75 Q23.15 1.5 22.8 1.5 L9.7 1.5" fill="#a59905" fill-rule="evenodd" stroke="none"/>
    <path d="M22.6 6.15 L20.3 9.3 17.65 9.3 20.2 6.15 17.65 2.75 20.05 2.7 22.6 6.15" fill="#f7ab08" fill-rule="evenodd" stroke="none"/>
    <path d="M19.0 6.15 L16.7 9.3 14.0 9.3 16.55 6.15 14.0 2.75 16.4 2.7 19.0 6.15" fill="#bc8706" fill-rule="evenodd" stroke="none"/>
    <path d="M15.55 6.15 L13.25 9.3 10.6 9.3 13.1 6.15 10.6 2.75 13.0 2.7 15.55 6.15" fill="#9b7007" fill-rule="evenodd" stroke="none"/>
  </g>
</svg>
