<?xml version="1.0" encoding="UTF-8" standalone="no"?>
<svg xmlns:ffdec="https://www.free-decompiler.com/flash" xmlns:xlink="http://www.w3.org/1999/xlink" ffdec:objectType="shape" height="392.3px" width="604.65px" xmlns="http://www.w3.org/2000/svg">
  <g transform="matrix(1.0, 0.0, 0.0, 1.0, 302.55, 197.2)">
    <path d="M297.15 -195.2 Q299.2 -195.2 300.45 -193.75 301.7 -192.3 301.35 -190.25 L297.0 -163.2 296.05 -159.3 Q295.4 -157.45 294.85 -156.9 294.3 -156.4 293.9 -154.5 293.5 -152.65 293.5 -150.6 L293.5 35.0 293.85 35.0 293.85 124.15 Q293.85 126.2 294.25 128.1 294.65 129.95 295.2 130.5 295.75 131.0 296.3 132.9 L297.0 136.8 302.05 190.1 Q302.25 192.15 300.9 193.65 299.55 195.1 297.5 195.1 L136.65 195.1 132.85 194.85 Q131.15 194.6 130.75 194.2 130.4 193.85 128.7 193.6 L124.9 193.35 -122.8 193.35 -126.65 193.6 Q-128.45 193.85 -128.9 194.2 L-131.1 194.85 -134.95 195.1 -297.9 195.1 Q-299.95 195.1 -301.3 193.65 -302.65 192.15 -302.45 190.1 L-297.4 137.15 Q-297.2 135.1 -296.6 133.15 -296.05 131.25 -295.4 130.65 -294.8 130.05 -294.35 128.15 -293.9 126.2 -293.9 124.15 L-293.9 71.0 -294.25 71.0 -294.25 -150.6 Q-294.25 -152.65 -294.7 -154.55 -295.15 -156.45 -295.75 -157.1 -296.4 -157.7 -297.05 -159.6 L-298.05 -163.5 -302.5 -192.25 Q-302.8 -194.3 -301.55 -195.75 -300.3 -197.2 -298.25 -197.2 L297.15 -195.2" fill="url(#gradient0)" fill-rule="evenodd" stroke="none"/>
    <path d="M287.3 -171.25 L287.3 182.0 Q287.3 183.5 286.15 184.65 284.95 185.7 283.3 185.7 L-282.9 185.7 Q-284.55 185.7 -285.7 184.65 -286.9 183.5 -286.9 182.0 L-286.9 -171.25 Q-286.9 -172.85 -285.7 -173.85 -284.55 -175.0 -282.9 -175.0 L283.3 -175.0 Q284.95 -175.0 286.15 -173.85 287.3 -172.85 287.3 -171.25" fill="url(#gradient1)" fill-rule="evenodd" stroke="none"/>
    <path d="M283.3 -166.4 L283.3 176.9 Q283.3 178.8 281.85 180.2 280.35 181.55 278.3 181.55 L-277.9 181.55 Q-279.95 181.55 -281.45 180.2 -282.9 178.8 -282.9 176.9 L-282.9 -166.4 Q-282.9 -168.3 -281.45 -169.7 -279.95 -171.0 -277.9 -171.0 L278.3 -171.0 Q280.35 -171.0 281.85 -169.7 283.3 -168.3 283.3 -166.4" fill="#0b0d11" fill-rule="evenodd" stroke="none"/>
  </g>
  <defs>
    <linearGradient gradientTransform="matrix(0.0, -0.2368, -0.2614, 0.0, -1.2, -1.05)" gradientUnits="userSpaceOnUse" id="gradient0" spreadMethod="pad" x1="-819.2" x2="819.2">
      <stop offset="0.0" stop-color="#505050"/>
      <stop offset="0.10980392156862745" stop-color="#282828"/>
      <stop offset="0.9058823529411765" stop-color="#a4a4a4"/>
      <stop offset="1.0" stop-color="#373737"/>
    </linearGradient>
    <linearGradient gradientTransform="matrix(0.0, -0.2201, -0.2378, 0.0, 0.2, 5.35)" gradientUnits="userSpaceOnUse" id="gradient1" spreadMethod="pad" x1="-819.2" x2="819.2">
      <stop offset="0.0" stop-color="#505050"/>
      <stop offset="1.0" stop-color="#393939"/>
    </linearGradient>
  </defs>
</svg>
