<?xml version="1.0" encoding="UTF-8" standalone="no"?>
<svg xmlns:ffdec="https://www.free-decompiler.com/flash" xmlns:xlink="http://www.w3.org/1999/xlink" ffdec:objectType="shape" height="331.5px" width="249.8px" xmlns="http://www.w3.org/2000/svg">
  <g transform="matrix(1.0, 0.0, 0.0, 1.0, -10.15, 0.0)">
    <path d="M255.4 15.9 Q257.45 15.9 258.7 17.35 259.95 18.8 259.65 20.85 L255.15 49.95 254.25 53.8 Q253.6 55.65 253.05 56.2 252.5 56.75 252.15 58.65 251.75 60.5 251.75 62.55 L251.75 260.25 Q251.75 262.3 252.15 264.2 252.5 266.05 253.05 266.6 253.6 267.15 254.15 269.0 L254.85 272.9 259.9 326.2 Q260.15 328.25 258.8 329.75 257.45 331.2 255.4 331.2 L14.7 331.2 Q12.65 331.2 11.3 329.75 10.0 328.25 10.2 326.2 L15.25 273.25 Q15.45 271.2 16.0 269.3 16.6 267.4 17.2 266.75 17.85 266.15 18.25 264.25 18.7 262.35 18.7 260.25 L18.7 62.55 Q18.7 60.45 18.25 58.55 17.85 56.65 17.2 56.05 16.6 55.4 15.95 53.5 15.25 51.6 14.95 49.6 L10.45 20.85 Q10.15 18.8 11.4 17.35 12.65 15.9 14.7 15.9 L44.85 15.9 Q46.9 15.9 49.4 16.95 51.85 18.05 53.3 19.5 L57.0 23.35 Q58.45 24.8 60.95 25.85 63.45 26.9 65.5 26.9 L171.8 26.9 Q173.85 26.9 176.35 25.85 178.85 24.8 180.3 23.35 L184.0 19.5 Q185.45 18.05 187.9 16.95 190.4 15.9 192.45 15.9 L255.4 15.9" fill="url(#gradient0)" fill-rule="evenodd" stroke="none"/>
    <path d="M242.5 42.15 L242.5 310.8 Q242.5 312.5 241.35 313.65 240.15 314.8 238.5 314.8 L33.1 314.8 Q31.45 314.8 30.3 313.65 29.1 312.5 29.1 310.8 L29.1 42.15 Q29.1 40.5 30.3 39.35 31.45 38.15 33.1 38.15 L238.5 38.15 Q240.15 38.15 241.35 39.35 242.5 40.5 242.5 42.15" fill="url(#gradient1)" fill-rule="evenodd" stroke="none"/>
    <path d="M238.15 46.75 L238.15 305.75 Q238.15 307.8 236.7 309.3 235.2 310.75 233.15 310.75 L37.8 310.75 Q35.75 310.75 34.25 309.3 32.8 307.8 32.8 305.75 L32.8 46.75 Q32.8 44.7 34.25 43.2 35.75 41.75 37.8 41.75 L233.15 41.75 Q235.2 41.75 236.7 43.2 238.15 44.7 238.15 46.75" fill="#0b0d11" fill-rule="evenodd" stroke="none"/>
    <path d="M243.65 289.5 L243.65 309.0 236.85 315.8 216.8 315.8 211.35 310.4 234.3 310.4 239.0 305.65 239.0 284.9 243.65 289.5 Z" fill="none" stroke="#181919" stroke-linecap="butt" stroke-linejoin="miter-clip" stroke-miterlimit="4.0" stroke-width="2.0"/>
    <path d="M243.65 289.5 L243.65 309.0 236.85 315.8 216.8 315.8 211.35 310.4 234.3 310.4 239.0 305.65 239.0 284.9 243.65 289.5" fill="#717272" fill-rule="evenodd" stroke="none"/>
    <path d="M27.75 289.5 L27.75 309.0 34.55 315.8 54.6 315.8 60.05 310.4 37.1 310.4 32.4 305.65 32.4 284.9 27.75 289.5 Z" fill="none" stroke="#181919" stroke-linecap="butt" stroke-linejoin="miter-clip" stroke-miterlimit="4.0" stroke-width="2.0"/>
    <path d="M27.75 289.5 L32.4 284.9 32.4 305.65 37.1 310.4 60.05 310.4 54.6 315.8 34.55 315.8 27.75 309.0 27.75 289.5" fill="#717272" fill-rule="evenodd" stroke="none"/>
    <path d="M239.6 320.15 L100.45 320.15 90.1 330.5 249.95 330.5 239.6 320.15 Z" fill="none" stroke="#181919" stroke-linecap="butt" stroke-linejoin="miter-clip" stroke-miterlimit="4.0" stroke-width="2.0"/>
    <path d="M239.6 320.15 L249.95 330.5 90.1 330.5 100.45 320.15 239.6 320.15" fill="#1e1e1e" fill-rule="evenodd" stroke="none"/>
    <path d="M115.85 38.15 L119.8 34.2 150.3 34.2 154.3 38.15 115.85 38.15" fill="#494949" fill-rule="evenodd" stroke="none"/>
    <path d="M213.5 47.25 L230.65 64.4 230.65 305.55 43.7 305.55 39.35 301.15 39.35 52.5 44.6 47.25 213.5 47.25" fill="#010d21" fill-rule="evenodd" stroke="none"/>
    <path d="M213.5 47.25 L44.6 47.25 39.35 52.5 39.35 301.15 43.7 305.55 230.65 305.55 230.65 64.4 213.5 47.25 Z" fill="none" stroke="#033072" stroke-linecap="butt" stroke-linejoin="miter-clip" stroke-miterlimit="4.0" stroke-width="1.0"/>
    <path d="M174.85 6.5 L174.85 17.6 170.8 21.65 66.0 21.65 61.9 17.6 61.95 6.5 66.0 2.4 170.8 2.4 174.85 6.5" fill="url(#gradient2)" fill-rule="evenodd" stroke="none"/>
    <path d="M174.85 6.5 L170.8 2.4 66.0 2.4 61.95 6.5 61.9 17.6 66.0 21.65 170.8 21.65 174.85 17.6 174.85 6.5 Z" fill="none" stroke="#00a1ff" stroke-linecap="butt" stroke-linejoin="miter-clip" stroke-miterlimit="4.0" stroke-width="2.0"/>
    <path d="M164.8 7.7 L119.6 9.3 74.85 7.7 63.05 6.1 69.05 2.15 170.45 2.15 176.4 6.1 164.8 7.7" fill="url(#gradient3)" fill-rule="evenodd" stroke="none"/>
    <path d="M68.7 0.0 L68.7 24.2 64.7 24.2 59.6 19.1 59.6 5.1 64.7 0.0 68.7 0.0" fill="url(#gradient4)" fill-rule="evenodd" stroke="none"/>
    <path d="M55.65 7.5 L59.65 7.5 59.65 16.55 55.65 16.55 55.65 7.5" fill="url(#gradient5)" fill-rule="evenodd" stroke="none"/>
    <path d="M68.75 0.0 L68.75 24.1 64.75 24.1 64.75 0.0 68.75 0.0" fill="url(#gradient6)" fill-rule="evenodd" stroke="none"/>
    <path d="M169.2 0.0 L173.15 0.0 178.3 5.1 178.3 19.1 173.15 24.2 169.2 24.2 169.2 0.0" fill="url(#gradient7)" fill-rule="evenodd" stroke="none"/>
    <path d="M169.15 0.0 L173.15 0.0 173.15 24.1 169.15 24.1 169.15 0.0" fill="url(#gradient8)" fill-rule="evenodd" stroke="none"/>
  </g>
  <defs>
    <linearGradient gradientTransform="matrix(0.0, -0.1924, -0.1924, 0.0, 135.05, 173.55)" gradientUnits="userSpaceOnUse" id="gradient0" spreadMethod="pad" x1="-819.2" x2="819.2">
      <stop offset="0.0" stop-color="#505050"/>
      <stop offset="0.10980392156862745" stop-color="#282828"/>
      <stop offset="0.9058823529411765" stop-color="#a4a4a4"/>
      <stop offset="1.0" stop-color="#373737"/>
    </linearGradient>
    <linearGradient gradientTransform="matrix(0.0, -0.1689, -0.1689, 0.0, 135.8, 176.5)" gradientUnits="userSpaceOnUse" id="gradient1" spreadMethod="pad" x1="-819.2" x2="819.2">
      <stop offset="0.0" stop-color="#505050"/>
      <stop offset="1.0" stop-color="#393939"/>
    </linearGradient>
    <linearGradient gradientTransform="matrix(0.0, 0.0119, 0.0119, 0.0, 118.4, 11.6)" gradientUnits="userSpaceOnUse" id="gradient2" spreadMethod="pad" x1="-819.2" x2="819.2">
      <stop offset="0.0" stop-color="#0f47ba"/>
      <stop offset="0.24313725490196078" stop-color="#000f63"/>
      <stop offset="0.37254901960784315" stop-color="#001566"/>
      <stop offset="0.5450980392156862" stop-color="#002670"/>
      <stop offset="0.7450980392156863" stop-color="#004180"/>
      <stop offset="0.9568627450980393" stop-color="#006797"/>
      <stop offset="1.0" stop-color="#00709c"/>
    </linearGradient>
    <linearGradient gradientTransform="matrix(0.0, -0.0044, -0.0044, 0.0, 119.75, 5.7)" gradientUnits="userSpaceOnUse" id="gradient3" spreadMethod="pad" x1="-819.2" x2="819.2">
      <stop offset="0.0" stop-color="#33ffff" stop-opacity="0.05882353"/>
      <stop offset="0.23137254901960785" stop-color="#36ffff" stop-opacity="0.07058824"/>
      <stop offset="0.4235294117647059" stop-color="#41ffff" stop-opacity="0.105882354"/>
      <stop offset="0.6078431372549019" stop-color="#52ffff" stop-opacity="0.16862746"/>
      <stop offset="0.7803921568627451" stop-color="#6bffff" stop-opacity="0.25490198"/>
      <stop offset="0.9490196078431372" stop-color="#8affff" stop-opacity="0.36862746"/>
      <stop offset="1.0" stop-color="#96ffff" stop-opacity="0.40784314"/>
    </linearGradient>
    <linearGradient gradientTransform="matrix(0.0, -0.0148, -0.0148, 0.0, 64.15, 12.1)" gradientUnits="userSpaceOnUse" id="gradient4" spreadMethod="pad" x1="-819.2" x2="819.2">
      <stop offset="0.0" stop-color="#6d6e70"/>
      <stop offset="0.10980392156862745" stop-color="#454647"/>
      <stop offset="0.9058823529411765" stop-color="#c2c4c7"/>
      <stop offset="1.0" stop-color="#555555"/>
    </linearGradient>
    <linearGradient gradientTransform="matrix(0.0, 0.0055, -0.0055, 0.0, 57.65, 12.05)" gradientUnits="userSpaceOnUse" id="gradient5" spreadMethod="pad" x1="-819.2" x2="819.2">
      <stop offset="0.0" stop-color="#75757a"/>
      <stop offset="0.40784313725490196" stop-color="#737375"/>
      <stop offset="0.7019607843137254" stop-color="#bac2c2"/>
      <stop offset="1.0" stop-color="#babfbf"/>
    </linearGradient>
    <linearGradient gradientTransform="matrix(0.0, -0.0147, -0.0147, 0.0, 66.75, 12.05)" gradientUnits="userSpaceOnUse" id="gradient6" spreadMethod="pad" x1="-819.2" x2="819.2">
      <stop offset="0.0" stop-color="#a4a5a7"/>
      <stop offset="0.19215686274509805" stop-color="#75757a"/>
      <stop offset="0.3568627450980392" stop-color="#949597"/>
      <stop offset="0.7372549019607844" stop-color="#f0edf5"/>
      <stop offset="1.0" stop-color="#d9d9db"/>
    </linearGradient>
    <linearGradient gradientTransform="matrix(0.0, 0.0148, -0.0148, 0.0, 173.75, 12.1)" gradientUnits="userSpaceOnUse" id="gradient7" spreadMethod="pad" x1="-819.2" x2="819.2">
      <stop offset="0.0" stop-color="#6d6e70"/>
      <stop offset="0.10980392156862745" stop-color="#454647"/>
      <stop offset="0.9058823529411765" stop-color="#c2c4c7"/>
      <stop offset="1.0" stop-color="#555555"/>
    </linearGradient>
    <linearGradient gradientTransform="matrix(0.0, 0.0147, -0.0147, 0.0, 171.15, 12.05)" gradientUnits="userSpaceOnUse" id="gradient8" spreadMethod="pad" x1="-819.2" x2="819.2">
      <stop offset="0.0" stop-color="#a4a5a7"/>
      <stop offset="0.19215686274509805" stop-color="#75757a"/>
      <stop offset="0.3568627450980392" stop-color="#949597"/>
      <stop offset="0.7372549019607844" stop-color="#f0edf5"/>
      <stop offset="1.0" stop-color="#d9d9db"/>
    </linearGradient>
  </defs>
</svg>
