<?xml version="1.0" encoding="UTF-8" standalone="no"?>
<svg xmlns:ffdec="https://www.free-decompiler.com/flash" xmlns:xlink="http://www.w3.org/1999/xlink" ffdec:objectType="shape" height="318.2px" width="300.5px" xmlns="http://www.w3.org/2000/svg">
  <g transform="matrix(1.0, 0.0, 0.0, 1.0, 0.0, 0.0)">
    <path d="M2.9 222.1 Q2.0 222.95 2.0 224.2 L2.0 313.2 Q2.0 314.45 2.9 315.3 3.75 316.2 5.0 316.2 L108.3 316.2 112.25 315.65 Q114.45 315.1 115.55 314.35 117.1 313.3 119.85 312.6 122.6 311.85 124.95 311.85 L173.35 311.85 Q175.65 311.85 178.45 312.55 181.2 313.3 182.9 314.3 184.1 315.05 186.35 315.65 L190.35 316.2 295.5 316.2 Q296.75 316.2 297.6 315.3 298.5 314.45 298.5 313.2 L298.5 224.2 Q298.5 222.95 297.6 222.1 296.75 221.2 295.5 221.2 L5.0 221.2 Q3.75 221.2 2.9 222.1 M0.0 224.2 Q0.0 222.15 1.45 220.65 2.95 219.2 5.0 219.2 L295.5 219.2 Q297.55 219.2 299.05 220.65 300.5 222.15 300.5 224.2 L300.5 313.2 Q300.5 315.25 299.05 316.75 297.55 318.2 295.5 318.2 L190.35 318.2 185.8 317.55 Q183.3 316.9 181.85 316.0 180.35 315.15 177.9 314.5 L173.35 313.85 124.95 313.85 120.45 314.5 Q118.0 315.15 116.6 316.0 115.25 316.9 112.8 317.55 L108.3 318.2 5.0 318.2 Q2.95 318.2 1.45 316.75 0.0 315.25 0.0 313.2 L0.0 224.2" fill="#333333" fill-rule="evenodd" stroke="none"/>
    <path d="M2.9 222.1 Q3.75 221.2 5.0 221.2 L295.5 221.2 Q296.75 221.2 297.6 222.1 298.5 222.95 298.5 224.2 L298.5 313.2 Q298.5 314.45 297.6 315.3 296.75 316.2 295.5 316.2 L190.35 316.2 186.35 315.65 Q184.1 315.05 182.9 314.3 181.2 313.3 178.45 312.55 175.65 311.85 173.35 311.85 L124.95 311.85 Q122.6 311.85 119.85 312.6 117.1 313.3 115.55 314.35 114.45 315.1 112.25 315.65 L108.3 316.2 5.0 316.2 Q3.75 316.2 2.9 315.3 2.0 314.45 2.0 313.2 L2.0 224.2 Q2.0 222.95 2.9 222.1" fill="#0f0f0f" fill-rule="evenodd" stroke="none"/>
    <path d="M3.7 226.3 Q3.7 224.65 4.9 223.5 6.05 222.3 7.7 222.3 L292.8 222.3 Q294.45 222.3 295.65 223.5 296.8 224.65 296.8 226.3 L296.8 310.6 Q296.8 312.25 295.65 313.45 294.45 314.6 292.8 314.6 L194.25 314.6 188.15 314.1 186.3 313.45 Q184.4 312.25 180.4 311.3 L176.7 310.6 170.85 310.15 127.35 310.15 121.6 310.5 110.35 314.1 107.5 314.5 104.35 314.6 7.7 314.6 Q6.05 314.6 4.9 313.45 3.7 312.25 3.7 310.6 L3.7 226.3 M7.7 223.3 Q6.45 223.3 5.6 224.2 4.7 225.05 4.7 226.3 L4.7 310.6 Q4.7 311.85 5.6 312.7 6.45 313.6 7.7 313.6 L104.35 313.6 107.55 313.45 110.05 313.15 121.35 309.5 127.35 309.15 170.85 309.15 176.85 309.6 180.65 310.35 Q184.8 311.3 186.85 312.6 187.55 313.0 188.3 313.1 L194.25 313.6 292.8 313.6 Q294.05 313.6 294.9 312.7 295.8 311.85 295.8 310.6 L295.8 226.3 Q295.8 225.05 294.9 224.2 294.05 223.3 292.8 223.3 L7.7 223.3" fill="#045c99" fill-rule="evenodd" stroke="none"/>
    <path d="M7.7 223.3 L292.8 223.3 Q294.05 223.3 294.9 224.2 295.8 225.05 295.8 226.3 L295.8 310.6 Q295.8 311.85 294.9 312.7 294.05 313.6 292.8 313.6 L194.25 313.6 188.3 313.1 Q187.55 313.0 186.85 312.6 184.8 311.3 180.65 310.35 L176.85 309.6 170.85 309.15 127.35 309.15 121.35 309.5 110.05 313.15 107.55 313.45 104.35 313.6 7.7 313.6 Q6.45 313.6 5.6 312.7 4.7 311.85 4.7 310.6 L4.7 226.3 Q4.7 225.05 5.6 224.2 6.45 223.3 7.7 223.3" fill="url(#gradient0)" fill-rule="evenodd" stroke="none"/>
    <path d="M297.5 0.0 Q298.75 0.0 299.6 0.9 300.5 1.75 300.5 3.0 L300.5 55.4 300.0 58.25 Q299.5 59.85 298.75 60.85 L297.25 63.0 Q296.55 64.0 296.0 65.6 295.5 67.2 295.5 68.4 L295.5 149.95 Q295.5 151.2 296.0 152.8 296.55 154.4 297.25 155.4 L298.75 157.5 Q299.5 158.5 300.0 160.1 300.5 161.7 300.5 162.95 L300.5 215.4 Q300.5 216.65 299.6 217.5 298.75 218.4 297.5 218.4 L3.0 218.4 Q1.75 218.4 0.9 217.5 0.0 216.65 0.0 215.4 L0.0 162.95 Q0.0 161.7 0.5 160.1 1.0 158.5 1.75 157.5 L3.25 155.4 4.5 152.8 Q5.0 151.2 5.0 149.95 L5.0 68.4 Q5.0 67.2 4.5 65.6 L3.25 63.0 1.75 60.85 Q1.0 59.85 0.5 58.25 0.0 56.65 0.0 55.4 L0.0 3.0 Q0.0 1.75 0.9 0.9 1.75 0.0 3.0 0.0 L297.5 0.0" fill="#0c0c0c" fill-rule="evenodd" stroke="none"/>
    <path d="M295.3 7.4 L295.3 211.1 Q295.3 212.35 294.4 213.2 293.55 214.1 292.3 214.1 L7.6 214.1 Q6.35 214.1 5.5 213.2 4.6 212.35 4.6 211.1 L4.6 7.4 Q4.6 6.2 5.5 5.3 6.35 4.4 7.6 4.4 L292.3 4.4 Q293.55 4.4 294.4 5.3 295.3 6.2 295.3 7.4" fill="#161616" fill-rule="evenodd" stroke="none"/>
    <path d="M289.55 12.85 L289.55 205.65 Q289.55 206.9 288.65 207.75 287.8 208.65 286.55 208.65 L13.35 208.65 Q12.1 208.65 11.25 207.75 10.35 206.9 10.35 205.65 L10.35 12.85 Q10.35 11.6 11.25 10.75 12.1 9.85 13.35 9.85 L286.55 9.85 Q287.8 9.85 288.65 10.75 289.55 11.6 289.55 12.85" fill="url(#gradient1)" fill-rule="evenodd" stroke="none"/>
  </g>
  <defs>
    <linearGradient gradientTransform="matrix(0.0, -0.0524, -0.0524, 0.0, 150.25, 271.2)" gradientUnits="userSpaceOnUse" id="gradient0" spreadMethod="pad" x1="-819.2" x2="819.2">
      <stop offset="0.0" stop-color="#003b73"/>
      <stop offset="0.3411764705882353" stop-color="#00285a"/>
      <stop offset="0.7490196078431373" stop-color="#001641"/>
      <stop offset="1.0" stop-color="#000f38"/>
    </linearGradient>
    <linearGradient gradientTransform="matrix(0.0, -0.1213, -0.1213, 0.0, 149.95, 109.25)" gradientUnits="userSpaceOnUse" id="gradient1" spreadMethod="pad" x1="-819.2" x2="819.2">
      <stop offset="0.0" stop-color="#1e1e1e"/>
      <stop offset="0.047058823529411764" stop-color="#2b2e30"/>
      <stop offset="0.9529411764705882" stop-color="#2b2e30"/>
      <stop offset="1.0" stop-color="#1e1e1e"/>
    </linearGradient>
  </defs>
</svg>
