<?xml version="1.0" encoding="UTF-8" standalone="no"?>
<svg xmlns:ffdec="https://www.free-decompiler.com/flash" xmlns:xlink="http://www.w3.org/1999/xlink" ffdec:objectType="shape" height="400.55px" width="710.65px" xmlns="http://www.w3.org/2000/svg">
  <g transform="matrix(1.0, 0.0, 0.0, 1.0, 0.0, 0.0)">
    <path d="M356.9 15.15 Q358.95 15.15 360.45 16.6 361.9 18.1 361.9 20.15 L361.9 138.45 Q361.9 140.5 362.35 142.75 362.8 145.0 363.4 146.1 364.05 147.2 364.45 149.45 364.9 151.65 364.9 153.75 L364.9 245.7 Q364.9 247.8 364.45 249.6 364.05 251.45 363.4 251.95 362.8 252.5 362.35 254.3 361.9 256.15 361.9 258.2 L361.9 388.15 Q361.9 390.2 360.45 391.7 358.95 393.15 356.9 393.15 L145.75 393.15 Q143.7 393.15 141.7 394.25 139.7 395.3 138.9 396.85 138.1 398.4 136.1 399.45 134.05 400.55 132.0 400.55 L6.05 400.55 Q4.0 400.55 2.6 399.1 1.2 397.65 1.3 395.6 L5.05 329.45 Q5.15 327.45 5.7 325.5 6.2 323.6 6.8 323.0 7.45 322.35 7.85 320.45 8.3 318.6 8.3 316.5 L8.3 61.75 Q8.3 59.65 7.85 57.8 7.45 55.9 6.8 55.25 6.2 54.65 5.55 52.75 4.85 50.85 4.55 48.8 L0.1 20.1 Q-0.25 18.05 1.0 16.6 2.25 15.15 4.3 15.15 L356.9 15.15" fill="url(#gradient0)" fill-rule="evenodd" stroke="none"/>
    <path d="M282.85 15.6 Q284.1 15.6 284.35 16.2 284.6 16.85 283.7 17.7 L279.2 21.95 Q278.3 22.8 276.8 23.4 275.3 24.0 274.05 24.0 L111.2 24.0 Q109.95 24.0 108.45 23.4 106.9 22.85 105.95 22.0 L101.1 17.6 Q100.15 16.8 100.4 16.2 100.6 15.6 101.85 15.6 L282.85 15.6" fill="#333333" fill-rule="evenodd" stroke="none"/>
    <path d="M355.0 41.35 L355.0 367.05 Q355.0 368.7 353.85 369.9 352.7 371.05 351.0 371.05 L22.7 371.05 Q21.05 371.05 19.9 369.9 18.7 368.7 18.7 367.05 L18.7 41.35 Q18.7 39.7 19.9 38.55 21.05 37.35 22.7 37.35 L351.0 37.35 Q352.7 37.35 353.85 38.55 355.0 39.7 355.0 41.35" fill="url(#gradient1)" fill-rule="evenodd" stroke="none"/>
    <path d="M350.7 45.95 L350.7 361.95 Q350.7 364.0 349.25 365.5 347.75 366.95 345.7 366.95 L27.4 366.95 Q25.35 366.95 23.85 365.5 22.4 364.0 22.4 361.95 L22.4 45.95 Q22.4 43.9 23.85 42.4 25.35 40.95 27.4 40.95 L345.7 40.95 Q347.75 40.95 349.25 42.4 350.7 43.9 350.7 45.95" fill="#0b0d11" fill-rule="evenodd" stroke="none"/>
    <path d="M356.15 345.75 L356.15 365.25 349.35 372.05 329.3 372.05 323.85 366.6 346.8 366.6 351.55 361.9 351.55 341.1 356.15 345.75 Z" fill="none" stroke="#181919" stroke-linecap="butt" stroke-linejoin="miter-clip" stroke-miterlimit="4.0" stroke-width="2.0"/>
    <path d="M356.15 345.75 L356.15 365.25 349.35 372.05 329.3 372.05 323.85 366.6 346.8 366.6 351.55 361.9 351.55 341.1 356.15 345.75" fill="#303030" fill-rule="evenodd" stroke="none"/>
    <path d="M17.4 345.75 L17.4 365.25 24.2 372.05 44.25 372.05 49.7 366.6 26.75 366.6 22.0 361.9 22.0 341.1 17.4 345.75 Z" fill="none" stroke="#181919" stroke-linecap="butt" stroke-linejoin="miter-clip" stroke-miterlimit="4.0" stroke-width="2.0"/>
    <path d="M17.4 345.75 L22.0 341.1 22.0 361.9 26.75 366.6 49.7 366.6 44.25 372.05 24.2 372.05 17.4 365.25 17.4 345.75" fill="#303030" fill-rule="evenodd" stroke="none"/>
    <path d="M151.05 393.65 Q149.8 393.65 149.35 392.85 148.9 392.1 149.5 391.0 L154.8 381.45 Q155.4 380.35 156.7 379.6 158.0 378.85 159.25 378.85 L335.85 378.85 Q337.1 378.85 338.45 379.6 339.8 380.35 340.45 381.4 L346.4 391.05 Q347.05 392.15 346.65 392.9 346.25 393.65 345.0 393.65 L151.05 393.65" fill="#191919" fill-rule="evenodd" stroke="none"/>
    <path d="M69.85 32.45 L92.85 32.45 96.85 37.4 65.85 37.4 69.85 32.45" fill="#494949" fill-rule="evenodd" stroke="none"/>
    <path d="M706.05 15.15 Q708.1 15.15 709.35 16.6 710.6 18.05 710.3 20.1 L705.8 49.15 704.9 53.05 Q704.25 54.9 703.7 55.4 703.15 55.95 702.8 57.85 702.4 59.7 702.4 61.75 L702.4 316.5 Q702.4 318.55 702.8 320.4 703.15 322.25 703.7 322.8 704.25 323.35 704.8 325.25 705.3 327.1 705.45 329.15 L710.6 390.45 Q710.8 392.5 709.45 393.95 708.1 395.4 706.05 395.4 L375.45 395.4 Q373.4 395.4 371.9 393.95 370.45 392.45 370.45 390.4 L370.45 262.2 370.0 257.7 Q369.6 255.3 368.95 253.95 368.35 252.65 367.9 250.2 367.45 247.75 367.45 245.7 L367.45 153.75 Q367.45 151.7 367.9 149.45 368.35 147.2 368.95 146.1 369.6 145.05 370.0 142.75 L370.45 138.45 370.45 20.15 Q370.45 18.1 371.9 16.6 373.4 15.15 375.45 15.15 L706.05 15.15" fill="url(#gradient2)" fill-rule="evenodd" stroke="none"/>
    <path d="M680.0 386.65 Q681.25 386.65 682.8 387.25 684.3 387.85 685.25 388.65 L690.1 393.05 Q691.05 393.9 690.8 394.45 690.6 395.05 689.35 395.05 L396.85 395.05 Q395.6 395.05 395.35 394.45 395.1 393.8 396.0 392.95 L400.5 388.7 402.9 387.25 Q404.4 386.65 405.65 386.65 L680.0 386.65" fill="#333333" fill-rule="evenodd" stroke="none"/>
    <path d="M645.55 15.6 Q646.8 15.6 647.0 16.2 647.25 16.85 646.35 17.7 L641.9 21.95 Q641.0 22.8 639.45 23.4 637.95 24.0 636.7 24.0 L560.9 24.0 Q559.7 24.0 558.45 24.5 557.25 24.95 556.8 25.6 L555.15 26.75 552.7 27.25 516.55 27.25 514.05 26.75 Q512.85 26.3 512.3 25.6 L510.6 24.5 Q509.35 24.0 508.1 24.0 L433.9 24.0 Q432.65 24.0 431.1 23.4 429.55 22.8 428.65 22.0 L423.75 17.6 Q422.85 16.8 423.1 16.2 423.3 15.6 424.55 15.6 L645.55 15.6" fill="#333333" fill-rule="evenodd" stroke="none"/>
    <path d="M439.65 387.15 L442.1 386.65 443.8 385.5 Q444.25 384.85 445.45 384.4 446.7 383.9 447.9 383.9 L484.05 383.9 Q485.25 383.9 486.55 384.4 487.75 384.85 488.3 385.5 488.8 386.2 490.05 386.65 L492.5 387.15 506.7 387.15 Q507.95 387.15 509.5 387.75 511.0 388.35 511.95 389.15 L516.8 393.55 Q517.75 394.4 517.5 394.95 517.3 395.55 516.05 395.55 L415.05 395.55 Q413.8 395.55 413.55 394.95 413.3 394.3 414.2 393.45 L418.7 389.2 Q419.6 388.35 421.1 387.75 422.6 387.15 423.85 387.15 L439.65 387.15" fill="#1e1e1e" fill-rule="evenodd" stroke="none"/>
    <path d="M693.15 41.35 L693.15 367.05 Q693.15 368.7 692.0 369.9 690.8 371.05 689.15 371.05 L380.85 371.05 Q379.2 371.05 378.05 369.9 376.85 368.7 376.85 367.05 L376.85 41.35 Q376.85 39.7 378.05 38.55 379.2 37.35 380.85 37.35 L689.15 37.35 Q690.8 37.35 692.0 38.55 693.15 39.7 693.15 41.35" fill="url(#gradient3)" fill-rule="evenodd" stroke="none"/>
    <path d="M688.8 45.95 L688.8 361.95 Q688.8 364.0 687.35 365.5 685.85 366.95 683.8 366.95 L385.55 366.95 Q383.5 366.95 382.0 365.5 380.55 364.0 380.55 361.95 L380.55 45.95 Q380.55 43.9 382.0 42.4 383.5 40.95 385.55 40.95 L683.8 40.95 Q685.85 40.95 687.35 42.4 688.8 43.9 688.8 45.95" fill="#0b0d11" fill-rule="evenodd" stroke="none"/>
    <path d="M640.0 33.45 L643.95 37.4 424.95 37.4 428.9 33.45 640.0 33.45" fill="#494949" fill-rule="evenodd" stroke="none"/>
    <path d="M596.4 387.15 L598.85 386.65 Q600.05 386.2 600.55 385.5 601.0 384.85 602.2 384.4 603.45 383.9 604.65 383.9 L640.8 383.9 Q642.0 383.9 643.3 384.4 L645.05 385.5 Q645.55 386.2 646.8 386.65 L649.25 387.15 663.45 387.15 Q664.7 387.15 666.25 387.75 667.75 388.35 668.7 389.15 L673.55 393.55 Q674.5 394.4 674.25 394.95 674.05 395.55 672.8 395.55 L571.8 395.55 Q570.55 395.55 570.3 394.95 570.05 394.3 570.95 393.45 L575.45 389.2 Q576.35 388.35 577.85 387.75 579.35 387.15 580.6 387.15 L596.4 387.15" fill="#1e1e1e" fill-rule="evenodd" stroke="none"/>
    <path d="M35.4 7.75 Q34.45 6.0 35.2 4.7 35.95 3.45 38.25 2.85 L48.9 1.45 81.55 0.0 114.3 1.45 124.95 2.85 Q127.2 3.5 127.95 4.75 128.75 6.05 127.8 7.75 L120.15 21.55 Q119.15 23.3 116.95 24.6 114.7 25.85 112.55 25.85 L50.65 25.85 Q48.5 25.85 46.25 24.6 44.05 23.3 43.05 21.55 L35.4 7.75" fill="url(#gradient4)" fill-rule="evenodd" stroke="none"/>
    <path d="M42.6 8.1 L42.45 7.25 Q42.5 6.3 43.65 6.0 54.95 2.65 83.25 2.7 111.15 2.75 120.3 5.85 121.6 6.25 121.65 7.25 L121.4 8.2 116.3 17.6 Q115.2 19.45 113.4 19.45 L51.7 19.45 Q50.2 19.45 48.9 18.5 L47.9 17.5 42.6 8.1" fill="#021844" fill-rule="evenodd" stroke="none"/>
    <path d="M52.6 17.25 L46.45 7.25 Q55.05 3.75 83.95 3.85 112.65 4.0 117.55 7.3 L111.6 17.25 52.6 17.25" fill="#023789" fill-rule="evenodd" stroke="none"/>
    <path d="M372.05 256.5 L372.05 305.2 Q372.05 306.45 371.15 307.3 370.3 308.2 369.05 308.2 L362.8 308.2 Q361.55 308.2 360.7 307.3 359.8 306.45 359.8 305.2 L359.8 256.5 Q359.8 255.25 360.7 254.4 361.55 253.5 362.8 253.5 L369.05 253.5 Q370.3 253.5 371.15 254.4 372.05 255.25 372.05 256.5" fill="#010814" fill-rule="evenodd" stroke="none"/>
    <path d="M369.9 257.2 L369.9 304.45 Q369.9 305.3 369.3 305.85 368.75 306.45 367.9 306.45 L363.65 306.45 Q362.85 306.45 362.25 305.85 361.65 305.3 361.65 304.45 L361.65 257.2 Q361.65 256.4 362.25 255.8 362.85 255.2 363.65 255.2 L367.9 255.2 Q368.75 255.2 369.3 255.8 369.9 256.4 369.9 257.2" fill="url(#gradient5)" fill-rule="evenodd" stroke="none"/>
    <path d="M369.9 256.2 L369.9 261.1 369.6 261.8 368.9 262.1 362.65 262.1 361.95 261.8 Q361.65 261.5 361.65 261.1 L361.65 256.2 Q361.65 255.8 361.95 255.5 362.25 255.2 362.65 255.2 L368.9 255.2 Q369.3 255.2 369.6 255.5 L369.9 256.2" fill="url(#gradient6)" fill-rule="evenodd" stroke="none"/>
    <path d="M369.9 256.25 L369.9 261.0 361.65 261.0 361.65 256.25 369.9 256.25" fill="#363738" fill-rule="evenodd" stroke="none"/>
    <path d="M363.65 256.8 L363.65 260.4 362.65 260.4 362.65 256.8 363.65 256.8" fill="#0c0c0c" fill-rule="evenodd" stroke="none"/>
    <path d="M369.05 256.8 L369.05 260.4 368.05 260.4 368.05 256.8 369.05 256.8" fill="#0c0c0c" fill-rule="evenodd" stroke="none"/>
    <path d="M369.9 265.6 L369.9 266.65 361.65 266.65 361.65 265.6 369.9 265.6" fill="#191919" fill-rule="evenodd" stroke="none"/>
    <path d="M369.9 269.6 L369.9 270.65 361.65 270.65 361.65 269.6 369.9 269.6" fill="#191919" fill-rule="evenodd" stroke="none"/>
    <path d="M369.9 290.55 L369.9 291.6 361.65 291.6 361.65 290.55 369.9 290.55" fill="#191919" fill-rule="evenodd" stroke="none"/>
    <path d="M369.9 294.8 L369.9 295.8 361.65 295.8 361.65 294.8 369.9 294.8" fill="#191919" fill-rule="evenodd" stroke="none"/>
    <path d="M362.65 299.85 L368.9 299.85 Q369.3 299.85 369.6 300.15 L369.9 300.85 369.9 305.7 369.6 306.4 368.9 306.7 362.65 306.7 361.95 306.4 Q361.65 306.1 361.65 305.7 L361.65 300.85 Q361.65 300.45 361.95 300.15 362.25 299.85 362.65 299.85" fill="url(#gradient7)" fill-rule="evenodd" stroke="none"/>
    <path d="M369.9 305.65 L361.65 305.65 361.65 300.9 369.9 300.9 369.9 305.65" fill="#363738" fill-rule="evenodd" stroke="none"/>
    <path d="M363.65 305.05 L362.65 305.05 362.65 301.5 363.65 301.5 363.65 305.05" fill="#0c0c0c" fill-rule="evenodd" stroke="none"/>
    <path d="M369.05 305.05 L368.05 305.05 368.05 301.5 369.05 301.5 369.05 305.05" fill="#0c0c0c" fill-rule="evenodd" stroke="none"/>
    <path d="M372.05 94.3 L372.05 143.0 Q372.05 144.25 371.15 145.1 370.3 146.0 369.05 146.0 L362.8 146.0 Q361.55 146.0 360.7 145.1 359.8 144.25 359.8 143.0 L359.8 94.3 Q359.8 93.05 360.7 92.2 361.55 91.3 362.8 91.3 L369.05 91.3 Q370.3 91.3 371.15 92.2 372.05 93.05 372.05 94.3" fill="#010814" fill-rule="evenodd" stroke="none"/>
    <path d="M369.9 95.0 L369.9 142.25 Q369.9 143.1 369.3 143.65 368.75 144.25 367.9 144.25 L363.65 144.25 Q362.85 144.25 362.25 143.65 361.65 143.1 361.65 142.25 L361.65 95.0 Q361.65 94.2 362.25 93.6 362.85 93.0 363.65 93.0 L367.9 93.0 Q368.75 93.0 369.3 93.6 369.9 94.2 369.9 95.0" fill="url(#gradient8)" fill-rule="evenodd" stroke="none"/>
    <path d="M369.9 94.0 L369.9 98.85 369.6 99.55 368.9 99.85 362.65 99.85 361.95 99.55 Q361.65 99.25 361.65 98.85 L361.65 94.0 Q361.65 93.6 361.95 93.3 362.25 93.0 362.65 93.0 L368.9 93.0 Q369.3 93.0 369.6 93.3 L369.9 94.0" fill="url(#gradient9)" fill-rule="evenodd" stroke="none"/>
    <path d="M369.9 98.75 L361.65 98.75 361.65 94.0 369.9 94.0 369.9 98.75" fill="#363738" fill-rule="evenodd" stroke="none"/>
    <path d="M363.65 98.2 L362.65 98.2 362.65 94.6 363.65 94.6 363.65 98.2" fill="#0c0c0c" fill-rule="evenodd" stroke="none"/>
    <path d="M369.05 98.2 L368.05 98.2 368.05 94.6 369.05 94.6 369.05 98.2" fill="#0c0c0c" fill-rule="evenodd" stroke="none"/>
    <path d="M369.9 103.4 L369.9 104.4 361.65 104.4 361.65 103.4 369.9 103.4" fill="#191919" fill-rule="evenodd" stroke="none"/>
    <path d="M369.9 107.4 L369.9 108.4 361.65 108.4 361.65 107.4 369.9 107.4" fill="#191919" fill-rule="evenodd" stroke="none"/>
    <path d="M369.9 128.35 L369.9 129.4 361.65 129.4 361.65 128.35 369.9 128.35" fill="#191919" fill-rule="evenodd" stroke="none"/>
    <path d="M369.9 132.6 L369.9 133.6 361.65 133.6 361.65 132.6 369.9 132.6" fill="#191919" fill-rule="evenodd" stroke="none"/>
    <path d="M369.9 143.5 L369.6 144.2 368.9 144.5 362.65 144.5 361.95 144.2 Q361.65 143.9 361.65 143.5 L361.65 138.65 Q361.65 138.25 361.95 137.95 362.25 137.65 362.65 137.65 L368.9 137.65 Q369.3 137.65 369.6 137.95 L369.9 138.65 369.9 143.5" fill="url(#gradient10)" fill-rule="evenodd" stroke="none"/>
    <path d="M369.9 143.45 L361.65 143.45 361.65 138.7 369.9 138.7 369.9 143.45" fill="#363738" fill-rule="evenodd" stroke="none"/>
    <path d="M363.65 142.85 L362.65 142.85 362.65 139.25 363.65 139.25 363.65 142.85" fill="#0c0c0c" fill-rule="evenodd" stroke="none"/>
    <path d="M369.05 142.85 L368.05 142.85 368.05 139.25 369.05 139.25 369.05 142.85" fill="#0c0c0c" fill-rule="evenodd" stroke="none"/>
    <path d="M70.9 373.7 L65.35 366.75 100.45 366.75 94.9 373.7 70.9 373.7" fill="#181919" fill-rule="evenodd" stroke="none"/>
    <path d="M204.35 385.7 L206.7 384.4 211.4 385.75 216.0 394.0 214.7 398.7 212.35 400.0 204.35 385.7" fill="url(#gradient11)" fill-rule="evenodd" stroke="none"/>
    <path d="M214.5 385.85 L217.5 391.2 215.15 392.5 212.15 387.2 214.5 385.85" fill="#333333" fill-rule="evenodd" stroke="none"/>
    <path d="M164.3 385.2 L156.3 399.5 153.95 398.2 152.65 393.5 157.25 385.25 161.95 383.9 164.3 385.2" fill="url(#gradient12)" fill-rule="evenodd" stroke="none"/>
    <path d="M154.1 385.35 L156.5 386.7 153.5 392.0 151.15 390.7 154.1 385.35" fill="#333333" fill-rule="evenodd" stroke="none"/>
    <path d="M331.6 385.7 L333.95 384.4 338.65 385.75 343.25 394.0 341.95 398.7 339.6 400.0 331.6 385.7" fill="url(#gradient13)" fill-rule="evenodd" stroke="none"/>
    <path d="M341.75 385.85 L344.75 391.2 342.4 392.5 339.4 387.2 341.75 385.85" fill="#333333" fill-rule="evenodd" stroke="none"/>
    <path d="M291.55 385.2 L283.55 399.5 281.2 398.2 279.9 393.5 284.5 385.25 289.2 383.9 291.55 385.2" fill="url(#gradient14)" fill-rule="evenodd" stroke="none"/>
    <path d="M281.35 385.35 L283.75 386.7 280.75 392.0 278.4 390.7 281.35 385.35" fill="#333333" fill-rule="evenodd" stroke="none"/>
  </g>
  <defs>
    <linearGradient gradientTransform="matrix(0.0, -0.2352, -0.2352, 0.0, 182.45, 207.85)" gradientUnits="userSpaceOnUse" id="gradient0" spreadMethod="pad" x1="-819.2" x2="819.2">
      <stop offset="0.0" stop-color="#373737"/>
      <stop offset="0.17254901960784313" stop-color="#656565"/>
      <stop offset="0.33725490196078434" stop-color="#6c6c6c"/>
      <stop offset="0.5843137254901961" stop-color="#808080"/>
      <stop offset="0.8784313725490196" stop-color="#a1a1a1"/>
      <stop offset="0.9019607843137255" stop-color="#a4a4a4"/>
      <stop offset="1.0" stop-color="#373737"/>
    </linearGradient>
    <linearGradient gradientTransform="matrix(0.0, -0.2037, -0.2037, 0.0, 186.85, 204.2)" gradientUnits="userSpaceOnUse" id="gradient1" spreadMethod="pad" x1="-819.2" x2="819.2">
      <stop offset="0.0" stop-color="#505050"/>
      <stop offset="1.0" stop-color="#393939"/>
    </linearGradient>
    <linearGradient gradientTransform="matrix(0.0, -0.2321, -0.2321, 0.0, 539.05, 205.3)" gradientUnits="userSpaceOnUse" id="gradient2" spreadMethod="pad" x1="-819.2" x2="819.2">
      <stop offset="0.0" stop-color="#373737"/>
      <stop offset="0.10980392156862745" stop-color="#a4a4a4"/>
      <stop offset="0.9058823529411765" stop-color="#a4a4a4"/>
      <stop offset="1.0" stop-color="#373737"/>
    </linearGradient>
    <linearGradient gradientTransform="matrix(0.0, -0.2037, -0.2037, 0.0, 535.0, 204.2)" gradientUnits="userSpaceOnUse" id="gradient3" spreadMethod="pad" x1="-819.2" x2="819.2">
      <stop offset="0.0" stop-color="#505050"/>
      <stop offset="1.0" stop-color="#393939"/>
    </linearGradient>
    <linearGradient gradientTransform="matrix(0.0, -0.0158, -0.0158, 0.0, 81.6, 12.9)" gradientUnits="userSpaceOnUse" id="gradient4" spreadMethod="pad" x1="-819.2" x2="819.2">
      <stop offset="0.0" stop-color="#373737"/>
      <stop offset="0.12549019607843137" stop-color="#aaaaaa"/>
      <stop offset="1.0" stop-color="#282828"/>
    </linearGradient>
    <linearGradient gradientTransform="matrix(0.005, 0.0, 0.0, -0.005, 365.8, 280.85)" gradientUnits="userSpaceOnUse" id="gradient5" spreadMethod="pad" x1="-819.2" x2="819.2">
      <stop offset="0.0" stop-color="#000000"/>
      <stop offset="0.5137254901960784" stop-color="#333336"/>
      <stop offset="1.0" stop-color="#000000"/>
    </linearGradient>
    <linearGradient gradientTransform="matrix(0.005, 0.0, 0.0, -0.005, 365.8, 258.65)" gradientUnits="userSpaceOnUse" id="gradient6" spreadMethod="pad" x1="-819.2" x2="819.2">
      <stop offset="0.0" stop-color="#505050"/>
      <stop offset="0.09803921568627451" stop-color="#373737"/>
      <stop offset="0.5254901960784314" stop-color="#6e6963"/>
      <stop offset="0.8862745098039215" stop-color="#3d3d3d"/>
      <stop offset="1.0" stop-color="#505050"/>
    </linearGradient>
    <linearGradient gradientTransform="matrix(0.005, 0.0, 0.0, -0.005, 365.8, 303.3)" gradientUnits="userSpaceOnUse" id="gradient7" spreadMethod="pad" x1="-819.2" x2="819.2">
      <stop offset="0.0" stop-color="#505050"/>
      <stop offset="0.09803921568627451" stop-color="#373737"/>
      <stop offset="0.5254901960784314" stop-color="#6e6963"/>
      <stop offset="0.8862745098039215" stop-color="#3d3d3d"/>
      <stop offset="1.0" stop-color="#505050"/>
    </linearGradient>
    <linearGradient gradientTransform="matrix(0.005, 0.0, 0.0, -0.005, 365.8, 118.6)" gradientUnits="userSpaceOnUse" id="gradient8" spreadMethod="pad" x1="-819.2" x2="819.2">
      <stop offset="0.0" stop-color="#000000"/>
      <stop offset="0.5137254901960784" stop-color="#333336"/>
      <stop offset="1.0" stop-color="#000000"/>
    </linearGradient>
    <linearGradient gradientTransform="matrix(0.005, 0.0, 0.0, -0.005, 365.8, 96.45)" gradientUnits="userSpaceOnUse" id="gradient9" spreadMethod="pad" x1="-819.2" x2="819.2">
      <stop offset="0.0" stop-color="#505050"/>
      <stop offset="0.09803921568627451" stop-color="#373737"/>
      <stop offset="0.5254901960784314" stop-color="#6e6963"/>
      <stop offset="0.8862745098039215" stop-color="#3d3d3d"/>
      <stop offset="1.0" stop-color="#505050"/>
    </linearGradient>
    <linearGradient gradientTransform="matrix(0.005, 0.0, 0.0, -0.005, 365.8, 141.05)" gradientUnits="userSpaceOnUse" id="gradient10" spreadMethod="pad" x1="-819.2" x2="819.2">
      <stop offset="0.0" stop-color="#505050"/>
      <stop offset="0.09803921568627451" stop-color="#373737"/>
      <stop offset="0.5254901960784314" stop-color="#6e6963"/>
      <stop offset="0.8862745098039215" stop-color="#3d3d3d"/>
      <stop offset="1.0" stop-color="#505050"/>
    </linearGradient>
    <linearGradient gradientTransform="matrix(0.0052, 0.0086, 0.0086, -0.0052, 210.95, 391.35)" gradientUnits="userSpaceOnUse" id="gradient11" spreadMethod="pad" x1="-819.2" x2="819.2">
      <stop offset="0.0" stop-color="#505050"/>
      <stop offset="0.09803921568627451" stop-color="#373737"/>
      <stop offset="0.5254901960784314" stop-color="#6e6963"/>
      <stop offset="0.8862745098039215" stop-color="#3d3d3d"/>
      <stop offset="1.0" stop-color="#505050"/>
    </linearGradient>
    <linearGradient gradientTransform="matrix(0.0056, -0.0084, -0.0084, -0.0056, 157.8, 390.8)" gradientUnits="userSpaceOnUse" id="gradient12" spreadMethod="pad" x1="-819.2" x2="819.2">
      <stop offset="0.0" stop-color="#505050"/>
      <stop offset="0.09803921568627451" stop-color="#373737"/>
      <stop offset="0.5254901960784314" stop-color="#6e6963"/>
      <stop offset="0.8862745098039215" stop-color="#3d3d3d"/>
      <stop offset="1.0" stop-color="#505050"/>
    </linearGradient>
    <linearGradient gradientTransform="matrix(0.0052, 0.0086, 0.0086, -0.0052, 338.2, 391.35)" gradientUnits="userSpaceOnUse" id="gradient13" spreadMethod="pad" x1="-819.2" x2="819.2">
      <stop offset="0.0" stop-color="#505050"/>
      <stop offset="0.09803921568627451" stop-color="#373737"/>
      <stop offset="0.5254901960784314" stop-color="#6e6963"/>
      <stop offset="0.8862745098039215" stop-color="#3d3d3d"/>
      <stop offset="1.0" stop-color="#505050"/>
    </linearGradient>
    <linearGradient gradientTransform="matrix(0.0056, -0.0084, -0.0084, -0.0056, 285.05, 390.8)" gradientUnits="userSpaceOnUse" id="gradient14" spreadMethod="pad" x1="-819.2" x2="819.2">
      <stop offset="0.0" stop-color="#505050"/>
      <stop offset="0.09803921568627451" stop-color="#373737"/>
      <stop offset="0.5254901960784314" stop-color="#6e6963"/>
      <stop offset="0.8862745098039215" stop-color="#3d3d3d"/>
      <stop offset="1.0" stop-color="#505050"/>
    </linearGradient>
  </defs>
</svg>
