<?xml version="1.0" encoding="UTF-8" standalone="no"?>
<svg xmlns:ffdec="https://www.free-decompiler.com/flash" xmlns:xlink="http://www.w3.org/1999/xlink" ffdec:objectType="shape" height="344.15px" width="149.55px" xmlns="http://www.w3.org/2000/svg">
  <g transform="matrix(1.0, 0.0, 0.0, 1.0, -98.8, -8.4)">
    <path d="M178.3 8.4 L180.95 8.4 Q182.4 8.4 183.45 9.45 184.45 10.5 184.45 11.95 184.45 13.4 183.45 14.4 182.4 15.45 180.95 15.45 L178.3 15.45 178.3 8.4" fill="url(#gradient0)" fill-rule="evenodd" stroke="none"/>
    <path d="M179.4 8.4 L179.4 15.45 178.3 15.45 178.3 8.4 179.4 8.4" fill="url(#gradient1)" fill-rule="evenodd" stroke="none"/>
    <path d="M103.0 330.9 L103.0 344.45 107.95 349.4 235.75 349.4 240.75 344.45 240.7 330.9 235.75 325.9 107.95 325.9 103.0 330.9" fill="url(#gradient2)" fill-rule="evenodd" stroke="none"/>
    <path d="M103.0 330.9 L107.95 325.9 235.75 325.9 240.7 330.9 240.75 344.45 235.75 349.4 107.95 349.4 103.0 344.45 103.0 330.9 Z" fill="none" stroke="#00a1ff" stroke-linecap="butt" stroke-linejoin="miter-clip" stroke-miterlimit="4.0" stroke-width="2.0"/>
    <path d="M115.25 332.4 L170.4 334.35 224.95 332.4 239.35 330.45 232.05 325.6 108.35 325.6 101.1 330.45 Q104.75 331.4 115.25 332.4" fill="url(#gradient3)" fill-rule="evenodd" stroke="none"/>
    <path d="M232.45 323.0 L232.45 352.55 237.35 352.55 243.55 346.3 243.55 329.2 237.35 323.0 232.45 323.0" fill="url(#gradient4)" fill-rule="evenodd" stroke="none"/>
    <path d="M248.35 332.15 L243.5 332.15 243.5 343.2 248.35 343.2 248.35 332.15" fill="url(#gradient5)" fill-rule="evenodd" stroke="none"/>
    <path d="M232.4 323.0 L232.4 352.4 237.25 352.4 237.25 323.0 232.4 323.0" fill="url(#gradient6)" fill-rule="evenodd" stroke="none"/>
    <path d="M109.9 323.0 L105.05 323.0 98.8 329.2 98.8 346.3 105.05 352.55 109.9 352.55 109.9 323.0" fill="url(#gradient7)" fill-rule="evenodd" stroke="none"/>
    <path d="M109.95 323.0 L105.05 323.0 105.05 352.4 109.95 352.4 109.95 323.0" fill="url(#gradient8)" fill-rule="evenodd" stroke="none"/>
  </g>
  <defs>
    <linearGradient gradientTransform="matrix(0.0, 0.0043, 0.0043, 0.0, 181.35, 11.95)" gradientUnits="userSpaceOnUse" id="gradient0" spreadMethod="pad" x1="-819.2" x2="819.2">
      <stop offset="0.0" stop-color="#babfbf"/>
      <stop offset="0.2980392156862745" stop-color="#bac2c2"/>
      <stop offset="0.592156862745098" stop-color="#737375"/>
      <stop offset="1.0" stop-color="#75757a"/>
    </linearGradient>
    <linearGradient gradientTransform="matrix(7.0E-4, 0.0, 0.0, -7.0E-4, 178.85, 11.95)" gradientUnits="userSpaceOnUse" id="gradient1" spreadMethod="pad" x1="-819.2" x2="819.2">
      <stop offset="0.0" stop-color="#6d6e70"/>
      <stop offset="0.10980392156862745" stop-color="#454647"/>
      <stop offset="0.9058823529411765" stop-color="#c2c4c7"/>
      <stop offset="1.0" stop-color="#555555"/>
    </linearGradient>
    <linearGradient gradientTransform="matrix(0.0, 0.0146, -0.0146, 0.0, 171.85, 337.15)" gradientUnits="userSpaceOnUse" id="gradient2" spreadMethod="pad" x1="-819.2" x2="819.2">
      <stop offset="0.0" stop-color="#0f47ba"/>
      <stop offset="0.24313725490196078" stop-color="#000f63"/>
      <stop offset="0.37254901960784315" stop-color="#001566"/>
      <stop offset="0.5450980392156862" stop-color="#002670"/>
      <stop offset="0.7450980392156863" stop-color="#004180"/>
      <stop offset="0.9568627450980393" stop-color="#006797"/>
      <stop offset="1.0" stop-color="#00709c"/>
    </linearGradient>
    <linearGradient gradientTransform="matrix(0.0, -0.0053, 0.0053, 0.0, 170.2, 329.95)" gradientUnits="userSpaceOnUse" id="gradient3" spreadMethod="pad" x1="-819.2" x2="819.2">
      <stop offset="0.0" stop-color="#33ffff" stop-opacity="0.05882353"/>
      <stop offset="0.23137254901960785" stop-color="#36ffff" stop-opacity="0.07058824"/>
      <stop offset="0.4235294117647059" stop-color="#41ffff" stop-opacity="0.105882354"/>
      <stop offset="0.6078431372549019" stop-color="#52ffff" stop-opacity="0.16862746"/>
      <stop offset="0.7803921568627451" stop-color="#6bffff" stop-opacity="0.25490198"/>
      <stop offset="0.9490196078431372" stop-color="#8affff" stop-opacity="0.36862746"/>
      <stop offset="1.0" stop-color="#96ffff" stop-opacity="0.40784314"/>
    </linearGradient>
    <linearGradient gradientTransform="matrix(0.0, -0.0181, 0.018, 0.0, 238.0, 337.75)" gradientUnits="userSpaceOnUse" id="gradient4" spreadMethod="pad" x1="-819.2" x2="819.2">
      <stop offset="0.0" stop-color="#6d6e70"/>
      <stop offset="0.10980392156862745" stop-color="#454647"/>
      <stop offset="0.9058823529411765" stop-color="#c2c4c7"/>
      <stop offset="1.0" stop-color="#555555"/>
    </linearGradient>
    <linearGradient gradientTransform="matrix(0.0, 0.0067, 0.0067, 0.0, 245.95, 337.7)" gradientUnits="userSpaceOnUse" id="gradient5" spreadMethod="pad" x1="-819.2" x2="819.2">
      <stop offset="0.0" stop-color="#75757a"/>
      <stop offset="0.40784313725490196" stop-color="#737375"/>
      <stop offset="0.7019607843137254" stop-color="#bac2c2"/>
      <stop offset="1.0" stop-color="#babfbf"/>
    </linearGradient>
    <linearGradient gradientTransform="matrix(0.0, -0.0179, 0.0179, 0.0, 234.85, 337.7)" gradientUnits="userSpaceOnUse" id="gradient6" spreadMethod="pad" x1="-819.2" x2="819.2">
      <stop offset="0.0" stop-color="#a4a5a7"/>
      <stop offset="0.19215686274509805" stop-color="#75757a"/>
      <stop offset="0.3568627450980392" stop-color="#949597"/>
      <stop offset="0.7372549019607844" stop-color="#f0edf5"/>
      <stop offset="1.0" stop-color="#d9d9db"/>
    </linearGradient>
    <linearGradient gradientTransform="matrix(0.0, 0.0181, 0.018, 0.0, 104.35, 337.75)" gradientUnits="userSpaceOnUse" id="gradient7" spreadMethod="pad" x1="-819.2" x2="819.2">
      <stop offset="0.0" stop-color="#6d6e70"/>
      <stop offset="0.10980392156862745" stop-color="#454647"/>
      <stop offset="0.9058823529411765" stop-color="#c2c4c7"/>
      <stop offset="1.0" stop-color="#555555"/>
    </linearGradient>
    <linearGradient gradientTransform="matrix(0.0, 0.0179, 0.0179, 0.0, 107.5, 337.7)" gradientUnits="userSpaceOnUse" id="gradient8" spreadMethod="pad" x1="-819.2" x2="819.2">
      <stop offset="0.0" stop-color="#a4a5a7"/>
      <stop offset="0.19215686274509805" stop-color="#75757a"/>
      <stop offset="0.3568627450980392" stop-color="#949597"/>
      <stop offset="0.7372549019607844" stop-color="#f0edf5"/>
      <stop offset="1.0" stop-color="#d9d9db"/>
    </linearGradient>
  </defs>
</svg>
