<?xml version="1.0" encoding="UTF-8" standalone="no"?>
<svg xmlns:ffdec="https://www.free-decompiler.com/flash" xmlns:xlink="http://www.w3.org/1999/xlink" ffdec:objectType="shape" height="318.85px" width="321.1px" xmlns="http://www.w3.org/2000/svg">
  <g transform="matrix(1.0, 0.0, 0.0, 1.0, 328.2, 165.9)">
    <path d="M-221.9 -158.05 Q-221.3 -156.55 -221.3 -155.3 L-221.3 149.45 Q-221.3 150.7 -222.2 151.55 -223.05 152.45 -224.3 152.45 L-320.35 152.45 -323.1 151.85 Q-324.6 151.2 -325.45 150.3 L-325.6 150.2 Q-326.45 149.35 -327.1 147.8 -327.7 146.3 -327.7 145.05 L-327.7 -155.25 Q-327.7 -156.5 -327.1 -158.0 -326.45 -159.5 -325.6 -160.35 L-324.6 -161.4 Q-323.7 -162.25 -322.2 -162.9 -320.7 -163.5 -319.45 -163.5 L-229.45 -163.5 Q-228.2 -163.5 -226.7 -162.9 -225.2 -162.25 -224.35 -161.4 L-223.4 -160.45 Q-222.55 -159.6 -221.9 -158.05" fill="url(#gradient0)" fill-rule="evenodd" stroke="none"/>
    <path d="M-221.9 -158.05 Q-222.55 -159.6 -223.4 -160.45 L-224.35 -161.4 Q-225.2 -162.25 -226.7 -162.9 -228.2 -163.5 -229.45 -163.5 L-319.45 -163.5 Q-320.7 -163.5 -322.2 -162.9 -323.7 -162.25 -324.6 -161.4 L-325.6 -160.35 Q-326.45 -159.5 -327.1 -158.0 -327.7 -156.5 -327.7 -155.25 L-327.7 145.05 Q-327.7 146.3 -327.1 147.8 -326.45 149.35 -325.6 150.2 L-325.45 150.3 Q-324.6 151.2 -323.1 151.85 L-320.35 152.45 -224.3 152.45 Q-223.05 152.45 -222.2 151.55 -221.3 150.7 -221.3 149.45 L-221.3 -155.3 Q-221.3 -156.55 -221.9 -158.05 Z" fill="none" stroke="#053772" stroke-linecap="butt" stroke-linejoin="miter-clip" stroke-miterlimit="4.0" stroke-width="1.0"/>
    <path d="M-7.6 -144.1 L-7.6 140.7 Q-7.6 141.95 -8.1 143.55 -8.65 145.15 -9.4 146.15 L-11.85 149.6 Q-12.65 150.6 -14.05 151.3 -15.4 152.0 -16.65 152.0 L-211.3 152.0 Q-212.55 152.0 -213.4 151.1 -214.35 150.25 -214.35 149.0 L-214.35 -159.9 Q-214.35 -161.15 -213.4 -162.0 -212.55 -162.9 -211.3 -162.9 L-142.55 -162.9 Q-141.3 -162.9 -139.8 -162.2 -138.35 -161.55 -137.5 -160.65 L-127.45 -149.35 -125.1 -147.75 Q-123.6 -147.1 -122.4 -147.1 L-10.6 -147.1 Q-9.35 -147.1 -8.5 -146.2 -7.6 -145.35 -7.6 -144.1" fill="url(#gradient1)" fill-rule="evenodd" stroke="none"/>
    <path d="M-7.6 -144.1 L-7.6 140.7 Q-7.6 141.95 -8.1 143.55 -8.65 145.15 -9.4 146.15 L-11.85 149.6 Q-12.65 150.6 -14.05 151.3 -15.4 152.0 -16.65 152.0 L-211.3 152.0 Q-212.55 152.0 -213.4 151.1 -214.35 150.25 -214.35 149.0 L-214.35 -159.9 Q-214.35 -161.15 -213.4 -162.0 -212.55 -162.9 -211.3 -162.9 L-142.55 -162.9 Q-141.3 -162.9 -139.8 -162.2 -138.35 -161.55 -137.5 -160.65 L-127.45 -149.35 -125.1 -147.75 Q-123.6 -147.1 -122.4 -147.1 L-10.6 -147.1 Q-9.35 -147.1 -8.5 -146.2 -7.6 -145.35 -7.6 -144.1 Z" fill="none" stroke="#0073f2" stroke-linecap="butt" stroke-linejoin="miter-clip" stroke-miterlimit="4.0" stroke-width="1.0"/>
    <path d="M-213.65 -40.25 L-7.9 -40.25 -7.9 8.45 -213.65 8.45 -213.65 -40.25" fill="url(#gradient2)" fill-rule="evenodd" stroke="none"/>
    <path d="M-213.65 -40.25 L-7.9 -40.25 M-7.9 8.45 L-213.65 8.45" fill="none" stroke="#0073f2" stroke-linecap="round" stroke-linejoin="round" stroke-width="1.0"/>
    <path d="M-8.1 -142.8 L-8.1 -42.0 Q-8.1 -41.45 -8.25 -40.95 L-213.7 -40.95 -213.85 -42.0 -213.85 -158.85 Q-213.85 -160.3 -212.85 -161.35 -211.8 -162.4 -210.35 -162.4 L-142.25 -162.4 Q-140.9 -162.4 -139.35 -161.7 -137.75 -160.9 -136.9 -159.9 L-126.95 -148.5 Q-126.2 -147.65 -124.8 -146.95 -123.45 -146.35 -122.3 -146.35 L-11.6 -146.35 Q-10.15 -146.35 -9.15 -145.35 -8.1 -144.3 -8.1 -142.8" fill="url(#gradient3)" fill-rule="evenodd" stroke="none"/>
    <path d="M-12.5 -165.4 Q-11.25 -165.4 -10.4 -164.5 -9.5 -163.65 -9.5 -162.4 L-9.5 -153.3 Q-9.5 -152.05 -10.4 -151.2 -11.25 -150.3 -12.5 -150.3 L-121.45 -150.3 Q-122.7 -150.3 -124.15 -150.95 -125.65 -151.6 -126.45 -152.55 L-136.05 -163.2 Q-136.85 -164.1 -136.6 -164.75 -136.3 -165.4 -135.05 -165.4 L-12.5 -165.4" fill="url(#gradient4)" fill-rule="evenodd" stroke="none"/>
    <path d="M-12.5 -165.4 L-135.05 -165.4 Q-136.3 -165.4 -136.6 -164.75 -136.85 -164.1 -136.05 -163.2 L-126.45 -152.55 Q-125.65 -151.6 -124.15 -150.95 -122.7 -150.3 -121.45 -150.3 L-12.5 -150.3 Q-11.25 -150.3 -10.4 -151.2 -9.5 -152.05 -9.5 -153.3 L-9.5 -162.4 Q-9.5 -163.65 -10.4 -164.5 -11.25 -165.4 -12.5 -165.4 Z" fill="none" stroke="#0071bc" stroke-linecap="butt" stroke-linejoin="miter-clip" stroke-miterlimit="4.0" stroke-width="1.0"/>
    <path d="M-194.45 -31.55 Q-193.6 -32.45 -192.35 -32.45 L-114.45 -32.45 Q-113.0 -32.45 -112.05 -31.55 -111.0 -30.7 -111.0 -29.45 L-111.0 -21.45 Q-111.0 -20.2 -112.05 -19.35 -113.0 -18.45 -114.45 -18.45 L-192.35 -18.45 Q-193.6 -18.45 -194.45 -19.35 -195.35 -20.2 -195.35 -21.45 L-195.35 -29.45 Q-195.35 -30.7 -194.45 -31.55" fill="url(#gradient5)" fill-rule="evenodd" stroke="none"/>
    <path d="M-194.45 -10.55 Q-193.6 -11.45 -192.35 -11.45 L-114.45 -11.45 Q-113.0 -11.45 -112.05 -10.55 -111.0 -9.7 -111.0 -8.45 L-111.0 -0.45 Q-111.0 0.8 -112.05 1.65 -113.0 2.55 -114.45 2.55 L-192.35 2.55 Q-193.6 2.55 -194.45 1.65 -195.35 0.8 -195.35 -0.45 L-195.35 -8.45 Q-195.35 -9.7 -194.45 -10.55" fill="url(#gradient6)" fill-rule="evenodd" stroke="none"/>
    <path d="M-94.25 -31.55 Q-93.4 -32.45 -92.15 -32.45 L-14.25 -32.45 Q-12.8 -32.45 -11.85 -31.55 -10.8 -30.7 -10.8 -29.45 L-10.8 -21.45 Q-10.8 -20.2 -11.85 -19.35 -12.8 -18.45 -14.25 -18.45 L-92.15 -18.45 Q-93.4 -18.45 -94.25 -19.35 -95.15 -20.2 -95.15 -21.45 L-95.15 -29.45 Q-95.15 -30.7 -94.25 -31.55" fill="url(#gradient7)" fill-rule="evenodd" stroke="none"/>
    <path d="M-94.25 -10.55 Q-93.4 -11.45 -92.15 -11.45 L-14.25 -11.45 Q-12.8 -11.45 -11.85 -10.55 -10.8 -9.7 -10.8 -8.45 L-10.8 -0.45 Q-10.8 0.8 -11.85 1.65 -12.8 2.55 -14.25 2.55 L-92.15 2.55 Q-93.4 2.55 -94.25 1.65 -95.15 0.8 -95.15 -0.45 L-95.15 -8.45 Q-95.15 -9.7 -94.25 -10.55" fill="url(#gradient8)" fill-rule="evenodd" stroke="none"/>
  </g>
  <defs>
    <linearGradient gradientTransform="matrix(0.065, 0.0, 0.0, -0.065, -274.5, -5.55)" gradientUnits="userSpaceOnUse" id="gradient0" spreadMethod="pad" x1="-819.2" x2="819.2">
      <stop offset="0.0" stop-color="#001035"/>
      <stop offset="0.023529411764705882" stop-color="#001034"/>
      <stop offset="0.30196078431372547" stop-color="#000f2d"/>
      <stop offset="1.0" stop-color="#000f2b"/>
    </linearGradient>
    <linearGradient gradientTransform="matrix(0.0, -0.1922, -0.1941, 0.0, -111.0, -5.45)" gradientUnits="userSpaceOnUse" id="gradient1" spreadMethod="pad" x1="-819.2" x2="819.2">
      <stop offset="0.0" stop-color="#053b72"/>
      <stop offset="0.047058823529411764" stop-color="#043568"/>
      <stop offset="0.16470588235294117" stop-color="#022a57"/>
      <stop offset="0.30980392156862746" stop-color="#01224b"/>
      <stop offset="0.5098039215686274" stop-color="#001d44"/>
      <stop offset="1.0" stop-color="#001c42"/>
    </linearGradient>
    <linearGradient gradientTransform="matrix(0.0, -0.0297, -0.0299, 0.0, -333.5, -16.2)" gradientUnits="userSpaceOnUse" id="gradient2" spreadMethod="pad" x1="-819.2" x2="819.2">
      <stop offset="0.0" stop-color="#053363"/>
      <stop offset="0.058823529411764705" stop-color="#042a56"/>
      <stop offset="0.17647058823529413" stop-color="#021e45"/>
      <stop offset="0.3215686274509804" stop-color="#011539"/>
      <stop offset="0.5137254901960784" stop-color="#001032"/>
      <stop offset="1.0" stop-color="#000f30"/>
    </linearGradient>
    <linearGradient gradientTransform="matrix(0.0, -0.0756, -0.0745, 0.0, -111.0, -100.4)" gradientUnits="userSpaceOnUse" id="gradient3" spreadMethod="pad" x1="-819.2" x2="819.2">
      <stop offset="0.0" stop-color="#021941"/>
      <stop offset="1.0" stop-color="#044885"/>
    </linearGradient>
    <linearGradient gradientTransform="matrix(0.0776, 0.0, 0.0, -0.0776, -73.05, -157.85)" gradientUnits="userSpaceOnUse" id="gradient4" spreadMethod="pad" x1="-819.2" x2="819.2">
      <stop offset="0.4" stop-color="#00245c"/>
      <stop offset="0.6627450980392157" stop-color="#00255e"/>
      <stop offset="0.7607843137254902" stop-color="#002865"/>
      <stop offset="0.8274509803921568" stop-color="#002e70"/>
      <stop offset="0.8823529411764706" stop-color="#003681"/>
      <stop offset="0.9294117647058824" stop-color="#004197"/>
      <stop offset="0.9686274509803922" stop-color="#004db2"/>
      <stop offset="1.0" stop-color="#005acc"/>
    </linearGradient>
    <linearGradient gradientTransform="matrix(0.0516, 0.0, 0.0, -0.039, -153.3, -24.45)" gradientUnits="userSpaceOnUse" id="gradient5" spreadMethod="pad" x1="-819.2" x2="819.2">
      <stop offset="0.0" stop-color="#005acc"/>
      <stop offset="0.023529411764705882" stop-color="#0050b7"/>
      <stop offset="0.06274509803921569" stop-color="#00449c"/>
      <stop offset="0.10588235294117647" stop-color="#003a86"/>
      <stop offset="0.1568627450980392" stop-color="#003275"/>
      <stop offset="0.21568627450980393" stop-color="#002d6a"/>
      <stop offset="0.3058823529411765" stop-color="#002a63"/>
      <stop offset="0.5490196078431373" stop-color="#002961"/>
    </linearGradient>
    <linearGradient gradientTransform="matrix(0.0516, 0.0, 0.0, -0.039, -153.3, -3.45)" gradientUnits="userSpaceOnUse" id="gradient6" spreadMethod="pad" x1="-819.2" x2="819.2">
      <stop offset="0.0" stop-color="#005acc"/>
      <stop offset="0.023529411764705882" stop-color="#0050b7"/>
      <stop offset="0.06274509803921569" stop-color="#00449c"/>
      <stop offset="0.10588235294117647" stop-color="#003a86"/>
      <stop offset="0.1568627450980392" stop-color="#003275"/>
      <stop offset="0.21568627450980393" stop-color="#002d6a"/>
      <stop offset="0.3058823529411765" stop-color="#002a63"/>
      <stop offset="0.5490196078431373" stop-color="#002961"/>
    </linearGradient>
    <linearGradient gradientTransform="matrix(0.0516, 0.0, 0.0, -0.039, -53.1, -24.45)" gradientUnits="userSpaceOnUse" id="gradient7" spreadMethod="pad" x1="-819.2" x2="819.2">
      <stop offset="0.0" stop-color="#005acc"/>
      <stop offset="0.023529411764705882" stop-color="#0050b7"/>
      <stop offset="0.06274509803921569" stop-color="#00449c"/>
      <stop offset="0.10588235294117647" stop-color="#003a86"/>
      <stop offset="0.1568627450980392" stop-color="#003275"/>
      <stop offset="0.21568627450980393" stop-color="#002d6a"/>
      <stop offset="0.3058823529411765" stop-color="#002a63"/>
      <stop offset="0.5490196078431373" stop-color="#002961"/>
    </linearGradient>
    <linearGradient gradientTransform="matrix(0.0516, 0.0, 0.0, -0.039, -53.1, -3.45)" gradientUnits="userSpaceOnUse" id="gradient8" spreadMethod="pad" x1="-819.2" x2="819.2">
      <stop offset="0.0" stop-color="#005acc"/>
      <stop offset="0.023529411764705882" stop-color="#0050b7"/>
      <stop offset="0.06274509803921569" stop-color="#00449c"/>
      <stop offset="0.10588235294117647" stop-color="#003a86"/>
      <stop offset="0.1568627450980392" stop-color="#003275"/>
      <stop offset="0.21568627450980393" stop-color="#002d6a"/>
      <stop offset="0.3058823529411765" stop-color="#002a63"/>
      <stop offset="0.5490196078431373" stop-color="#002961"/>
    </linearGradient>
  </defs>
</svg>
