<?xml version="1.0" encoding="UTF-8" standalone="no"?>
<svg xmlns:ffdec="https://www.free-decompiler.com/flash" xmlns:xlink="http://www.w3.org/1999/xlink" ffdec:objectType="shape" height="21.0px" width="96.4px" xmlns="http://www.w3.org/2000/svg">
  <g transform="matrix(1.0, 0.0, 0.0, 1.0, 0.5, 0.5)">
    <path d="M95.4 3.0 L95.4 17.0 Q95.4 18.25 94.5 19.1 93.65 20.0 92.4 20.0 L3.0 20.0 Q1.75 20.0 0.9 19.1 0.0 18.25 0.0 17.0 L0.0 3.0 Q0.0 1.75 0.9 0.9 1.75 0.0 3.0 0.0 L92.4 0.0 Q93.65 0.0 94.5 0.9 95.4 1.75 95.4 3.0" fill="url(#gradient0)" fill-rule="evenodd" stroke="none"/>
    <path d="M95.4 3.0 L95.4 17.0 Q95.4 18.25 94.5 19.1 93.65 20.0 92.4 20.0 L3.0 20.0 Q1.75 20.0 0.9 19.1 0.0 18.25 0.0 17.0 L0.0 3.0 Q0.0 1.75 0.9 0.9 1.75 0.0 3.0 0.0 L92.4 0.0 Q93.65 0.0 94.5 0.9 95.4 1.75 95.4 3.0 Z" fill="none" stroke="#10c1ff" stroke-linecap="butt" stroke-linejoin="miter-clip" stroke-miterlimit="4.0" stroke-width="1.0"/>
    <path d="M92.4 20.0 L3.0 20.0 Q1.75 20.0 0.9 19.1 0.0 18.25 0.0 17.0 L0.0 3.0 Q0.0 1.75 0.9 0.9 1.75 0.0 3.0 0.0 L92.4 0.0 Q93.65 0.0 94.5 0.9 95.4 1.75 95.4 3.0 L95.4 17.0 Q95.4 18.25 94.5 19.1 93.65 20.0 92.4 20.0 Z" fill="none" stroke="#ff3300" stroke-linecap="butt" stroke-linejoin="miter-clip" stroke-miterlimit="4.0" stroke-width="1.0"/>
  </g>
  <defs>
    <linearGradient gradientTransform="matrix(0.0, -0.0122, -0.0122, 0.0, 47.7, 10.0)" gradientUnits="userSpaceOnUse" id="gradient0" spreadMethod="pad" x1="-819.2" x2="819.2">
      <stop offset="0.0" stop-color="#005cff"/>
      <stop offset="0.7568627450980392" stop-color="#0d4f94"/>
      <stop offset="0.8313725490196079" stop-color="#0d5a9d"/>
      <stop offset="0.9568627450980393" stop-color="#0d77b6"/>
      <stop offset="1.0" stop-color="#0d82bf"/>
    </linearGradient>
  </defs>
</svg>
