<?xml version="1.0" encoding="UTF-8" standalone="no"?>
<svg xmlns:ffdec="https://www.free-decompiler.com/flash" xmlns:xlink="http://www.w3.org/1999/xlink" ffdec:objectType="shape" height="15.4px" width="36.15px" xmlns="http://www.w3.org/2000/svg">
  <g transform="matrix(1.0, 0.0, 0.0, 1.0, -1.25, -0.3)">
    <path d="M1.95 3.0 L5.05 0.8 33.95 0.8 36.75 3.0 28.15 15.2 10.05 15.2 1.95 3.0" fill="#043a95" fill-rule="evenodd" stroke="none"/>
    <path d="M1.95 3.0 L10.05 15.2 28.15 15.2 36.75 3.0 33.95 0.8 5.05 0.8 1.95 3.0 Z" fill="none" stroke="#065abf" stroke-linecap="butt" stroke-linejoin="miter-clip" stroke-miterlimit="4.0" stroke-width="1.0"/>
    <path d="M5.6 3.7 L5.9 3.5 33.05 3.5 26.75 12.5 11.45 12.5 5.6 3.7" fill="#032b61" fill-rule="evenodd" stroke="none"/>
    <path d="M16.3 4.55 L21.7 4.55 19.0 6.4 16.3 4.55" fill="#0760cb" fill-rule="evenodd" stroke="none"/>
    <path d="M18.95 8.05 L23.35 5.1 27.0 5.1 18.95 11.45 11.0 5.1 14.6 5.1 18.95 8.05" fill="#1587f9" fill-rule="evenodd" stroke="none"/>
  </g>
</svg>
