<?xml version="1.0" encoding="UTF-8" standalone="no"?>
<svg xmlns:ffdec="https://www.free-decompiler.com/flash" xmlns:xlink="http://www.w3.org/1999/xlink" ffdec:objectType="shape" height="32.55px" width="64.2px" xmlns="http://www.w3.org/2000/svg">
  <g transform="matrix(1.0, 0.0, 0.0, 1.0, -3.55, -1.8)">
    <path d="M3.6 6.9 Q3.8 5.65 4.6 4.9 L5.7 3.7 Q6.5 2.95 7.85 2.35 9.2 1.8 10.35 1.8 L59.7 1.8 62.25 2.3 Q63.65 2.8 64.55 3.5 L66.55 5.1 Q67.45 5.8 67.7 7.0 67.9 8.15 67.3 9.1 L54.65 32.0 Q54.05 32.95 52.85 33.7 51.7 34.35 50.6 34.35 L19.65 34.35 Q18.55 34.35 17.4 33.65 16.25 32.95 15.75 31.95 L3.9 9.15 Q3.4 8.15 3.6 6.9" fill="url(#gradient0)" fill-rule="evenodd" stroke="none"/>
    <path d="M8.75 8.05 L11.65 5.05 Q12.3 4.45 13.2 4.45 L20.65 4.45 Q21.65 4.45 22.35 4.8 L23.75 5.4 25.45 5.75 46.5 5.75 48.2 5.35 49.35 4.8 Q50.1 4.45 51.05 4.45 L57.05 4.45 Q58.0 4.45 58.7 4.95 L62.45 8.1 62.85 8.7 62.75 9.45 50.8 30.85 50.2 31.45 49.45 31.65 44.25 31.65 42.55 31.2 42.05 30.95 Q41.4 30.5 40.4 30.5 L30.3 30.5 Q29.45 30.5 28.65 31.0 L28.4 31.15 Q27.6 31.65 26.75 31.65 L20.95 31.65 Q20.05 31.65 19.65 30.85 L8.6 9.45 Q8.4 9.15 8.5 8.7 8.55 8.25 8.75 8.05" fill="#2b2b2a" fill-rule="evenodd" stroke="none"/>
    <path d="M16.5 7.65 L18.95 7.15 52.1 7.15 54.65 7.65 Q56.05 8.1 56.9 8.8 L57.1 8.95 Q57.95 9.6 58.2 10.8 58.4 11.95 57.8 12.95 L49.75 26.55 48.0 28.15 Q46.85 28.8 45.7 28.8 L25.5 28.8 Q24.4 28.8 23.2 28.15 L21.5 26.5 14.1 13.0 Q13.55 12.0 13.7 10.8 13.75 9.6 14.5 8.85 15.25 8.1 16.5 7.65" fill="url(#gradient1)" fill-rule="evenodd" stroke="none"/>
    <path d="M23.7 27.4 Q24.65 27.9 25.5 27.9 L45.7 27.9 47.55 27.4 49.0 26.1 57.05 12.45 Q57.45 11.8 57.35 10.95 57.15 10.1 56.5 9.6 L56.4 9.5 Q55.65 8.95 54.35 8.5 L52.1 8.05 18.95 8.05 16.85 8.5 Q15.75 8.9 15.15 9.45 14.65 9.95 14.6 10.9 14.5 11.8 14.85 12.55 L22.3 26.05 Q22.7 26.8 23.7 27.4 M16.5 7.65 L18.95 7.15 52.1 7.15 54.65 7.65 Q56.05 8.1 56.9 8.8 L57.1 8.95 Q57.95 9.6 58.2 10.8 58.4 11.95 57.8 12.95 L49.75 26.55 48.0 28.15 Q46.85 28.8 45.7 28.8 L25.5 28.8 Q24.4 28.8 23.2 28.15 L21.5 26.5 14.1 13.0 Q13.55 12.0 13.7 10.8 13.75 9.6 14.5 8.85 15.25 8.1 16.5 7.65" fill="#f7931e" fill-rule="evenodd" stroke="none"/>
    <path d="M16.35 7.6 L18.0 7.2 53.1 7.2 54.8 7.55 Q55.75 7.9 56.35 8.35 L57.8 9.45 Q58.35 9.95 58.5 10.75 58.65 11.55 58.25 12.15 L16.4 17.8 13.7 12.15 Q13.3 11.55 13.4 10.7 13.55 9.85 14.1 9.3 L14.9 8.5 Q15.45 7.95 16.35 7.6" fill="url(#gradient2)" fill-rule="evenodd" stroke="none"/>
    <path d="M41.15 26.3 L33.6 20.55 42.2 10.8 51.05 13.3 41.15 26.3" fill="url(#gradient3)" fill-rule="evenodd" stroke="none"/>
    <path d="M28.7 23.85 L21.8 20.55 26.95 11.35 34.35 11.85 28.7 23.85" fill="url(#gradient4)" fill-rule="evenodd" stroke="none"/>
    <path d="M42.85 18.7 L41.6 21.15 40.9 19.15 38.8 19.3 40.55 17.2 40.45 14.85 42.25 15.55 44.3 13.95 43.65 16.5 45.05 17.85 42.85 18.7" fill="#d98500" fill-rule="evenodd" stroke="none"/>
    <path d="M29.0 15.75 L30.3 16.6 Q29.5 17.15 28.75 17.75 L28.2 19.95 27.3 18.5 25.75 19.05 26.75 17.0 26.3 15.1 27.8 15.3 29.1 13.55 29.0 15.75" fill="#e87d00" fill-rule="evenodd" stroke="none"/>
  </g>
  <defs>
    <linearGradient gradientTransform="matrix(0.0, -0.0198, 0.0198, 0.0, 35.65, 18.1)" gradientUnits="userSpaceOnUse" id="gradient0" spreadMethod="pad" x1="-819.2" x2="819.2">
      <stop offset="0.0" stop-color="#6b6b6b"/>
      <stop offset="0.19607843137254902" stop-color="#a4a4a4"/>
      <stop offset="0.34509803921568627" stop-color="#a4a4a4"/>
      <stop offset="1.0" stop-color="#373737"/>
    </linearGradient>
    <linearGradient gradientTransform="matrix(0.0, -0.0132, -0.0132, 0.0, 35.95, 18.0)" gradientUnits="userSpaceOnUse" id="gradient1" spreadMethod="pad" x1="-819.2" x2="819.2">
      <stop offset="0.0" stop-color="#bf7d00"/>
      <stop offset="0.2784313725490196" stop-color="#b66e00"/>
      <stop offset="0.6627450980392157" stop-color="#ae6100"/>
      <stop offset="1.0" stop-color="#ab5c00"/>
    </linearGradient>
    <linearGradient gradientTransform="matrix(0.003, 0.0097, 0.0097, -0.003, 35.75, 10.35)" gradientUnits="userSpaceOnUse" id="gradient2" spreadMethod="pad" x1="-819.2" x2="819.2">
      <stop offset="0.0" stop-color="#ccd6f0" stop-opacity="0.827451"/>
      <stop offset="0.1568627450980392" stop-color="#c1c8dc" stop-opacity="0.65882355"/>
      <stop offset="0.5294117647058824" stop-color="#a8a9b2" stop-opacity="0.3019608"/>
      <stop offset="0.8235294117647058" stop-color="#9a9699" stop-opacity="0.078431375"/>
      <stop offset="1.0" stop-color="#948f8f" stop-opacity="0.0"/>
    </linearGradient>
    <linearGradient gradientTransform="matrix(0.0085, 0.0026, 0.0026, -0.0085, 41.85, 18.5)" gradientUnits="userSpaceOnUse" id="gradient3" spreadMethod="pad" x1="-819.2" x2="819.2">
      <stop offset="0.0" stop-color="#f29600"/>
      <stop offset="0.050980392156862744" stop-color="#f4a100"/>
      <stop offset="0.19607843137254902" stop-color="#f8be00"/>
      <stop offset="0.3568627450980392" stop-color="#fbd400"/>
      <stop offset="0.5294117647058824" stop-color="#fde400"/>
      <stop offset="0.7254901960784313" stop-color="#ffed00"/>
      <stop offset="1.0" stop-color="#fff000"/>
    </linearGradient>
    <linearGradient gradientTransform="matrix(0.0055, 0.0017, 0.0017, -0.0055, 27.9, 16.7)" gradientUnits="userSpaceOnUse" id="gradient4" spreadMethod="pad" x1="-819.2" x2="819.2">
      <stop offset="0.0" stop-color="#f29600"/>
      <stop offset="0.050980392156862744" stop-color="#f4a100"/>
      <stop offset="0.19607843137254902" stop-color="#f8be00"/>
      <stop offset="0.3568627450980392" stop-color="#fbd400"/>
      <stop offset="0.5294117647058824" stop-color="#fde400"/>
      <stop offset="0.7254901960784313" stop-color="#ffed00"/>
      <stop offset="1.0" stop-color="#fff000"/>
    </linearGradient>
  </defs>
</svg>
