<?xml version="1.0" encoding="UTF-8" standalone="no"?>
<svg xmlns:ffdec="https://www.free-decompiler.com/flash" xmlns:xlink="http://www.w3.org/1999/xlink" ffdec:objectType="shape" height="11.85px" width="8.15px" xmlns="http://www.w3.org/2000/svg">
  <g transform="matrix(1.0, 0.0, 0.0, 1.0, 0.0, -1.7)">
    <path d="M4.5 1.7 L4.55 2.4 Q6.0 2.5 6.8 3.05 7.6 3.7 7.8 4.7 L5.35 5.1 5.05 4.45 4.55 4.1 4.55 6.0 Q6.5 6.5 7.25 7.1 8.15 7.95 8.15 9.15 L7.85 10.45 7.0 11.45 5.95 12.05 4.6 12.3 4.6 13.5 3.65 13.55 3.65 12.3 2.05 12.0 1.0 11.35 0.35 10.5 0.0 9.4 2.65 9.05 2.95 10.0 3.65 10.5 3.6 8.15 1.7 7.55 0.75 6.7 Q0.35 6.15 0.35 5.25 0.3 4.1 1.15 3.25 1.9 2.5 3.55 2.4 L3.55 1.75 4.5 1.7 M2.85 4.9 Q2.85 5.25 3.0 5.4 L3.6 5.75 3.6 4.1 3.0 4.45 Q2.85 4.6 2.85 4.9 M4.6 10.55 L5.4 10.15 5.65 9.5 5.45 8.9 4.55 8.45 4.6 10.55" fill="#5caeff" fill-rule="evenodd" stroke="none"/>
  </g>
</svg>
