<?xml version="1.0" encoding="UTF-8" standalone="no"?>
<svg xmlns:ffdec="https://www.free-decompiler.com/flash" xmlns:xlink="http://www.w3.org/1999/xlink" ffdec:objectType="shape" height="29.75px" width="58.25px" xmlns="http://www.w3.org/2000/svg">
  <g transform="matrix(1.0, 0.0, 0.0, 1.0, 0.0, 0.0)">
    <path d="M15.1 0.0 L42.25 0.0 Q43.5 0.0 44.8 0.8 46.15 1.55 46.75 2.65 L57.85 22.6 Q58.45 23.7 58.2 25.0 57.95 26.3 56.95 27.1 L55.95 27.9 Q54.95 28.65 53.4 29.2 L50.6 29.75 6.55 29.75 Q5.3 29.75 3.8 29.15 2.3 28.5 1.45 27.6 L1.15 27.35 Q0.3 26.45 0.05 25.05 -0.15 23.65 0.4 22.55 L10.7 2.7 Q11.25 1.6 12.55 0.8 13.85 0.0 15.1 0.0" fill="url(#gradient0)" fill-rule="evenodd" stroke="none"/>
    <path d="M15.95 3.75 Q17.25 2.95 18.5 2.95 L19.1 2.95 Q22.1 2.95 22.9 3.5 L26.65 4.0 31.1 4.0 35.0 3.5 Q35.9 2.95 38.9 2.95 L39.05 2.95 Q40.3 2.95 41.6 3.75 42.95 4.5 43.55 5.6 L51.85 20.55 Q52.45 21.65 52.25 23.0 52.05 24.4 51.2 25.25 L50.85 25.55 48.5 27.05 45.75 27.65 44.9 27.65 40.65 27.1 Q39.35 26.5 36.45 26.5 L22.45 26.5 18.1 27.1 13.8 27.65 11.65 27.65 Q10.4 27.65 9.0 27.0 7.6 26.35 6.85 25.4 6.1 24.45 5.95 23.05 5.85 21.6 6.4 20.5 L14.1 5.65 Q14.65 4.55 15.95 3.75" fill="#2b2b2a" fill-rule="evenodd" stroke="none"/>
    <path d="M36.4 4.75 Q37.9 4.75 39.45 5.65 41.0 6.55 41.75 7.85 L47.9 18.15 Q48.75 19.55 48.55 21.1 48.4 22.65 47.3 23.5 46.4 24.2 44.8 24.7 L41.8 25.2 15.1 25.2 12.2 24.7 Q10.7 24.2 9.95 23.4 9.1 22.6 9.05 21.05 9.0 19.5 9.75 18.1 L15.35 7.9 Q16.1 6.6 17.65 5.65 19.2 4.75 20.7 4.75 L36.4 4.75 M36.4 5.75 L20.7 5.75 Q19.45 5.75 18.15 6.55 16.85 7.3 16.25 8.4 L10.6 18.6 Q10.0 19.7 10.05 20.9 10.05 22.1 10.65 22.7 L12.55 23.75 15.1 24.2 41.8 24.2 44.5 23.75 Q45.9 23.35 46.7 22.7 47.45 22.1 47.55 20.9 47.65 19.7 47.0 18.65 L40.9 8.35 Q40.25 7.3 38.95 6.55 37.65 5.75 36.4 5.75" fill="#894502" fill-rule="evenodd" stroke="none"/>
    <path d="M36.4 5.75 Q37.65 5.75 38.95 6.55 40.25 7.3 40.9 8.35 L47.0 18.65 Q47.65 19.7 47.55 20.9 47.45 22.1 46.7 22.7 45.9 23.35 44.5 23.75 L41.8 24.2 15.1 24.2 12.55 23.75 10.65 22.7 Q10.05 22.1 10.05 20.9 10.0 19.7 10.6 18.6 L16.25 8.4 Q16.85 7.3 18.15 6.55 19.45 5.75 20.7 5.75 L36.4 5.75" fill="url(#gradient1)" fill-rule="evenodd" stroke="none"/>
  </g>
  <defs>
    <linearGradient gradientTransform="matrix(0.0, -0.0181, -0.0181, 0.0, 29.15, 14.9)" gradientUnits="userSpaceOnUse" id="gradient0" spreadMethod="pad" x1="-819.2" x2="819.2">
      <stop offset="0.0" stop-color="#373737"/>
      <stop offset="0.6549019607843137" stop-color="#a4a4a4"/>
      <stop offset="0.803921568627451" stop-color="#a4a4a4"/>
      <stop offset="1.0" stop-color="#6b6b6b"/>
    </linearGradient>
    <linearGradient gradientTransform="matrix(0.0229, 0.0, 0.0, -0.0229, 28.8, 15.0)" gradientUnits="userSpaceOnUse" id="gradient1" spreadMethod="pad" x1="-819.2" x2="819.2">
      <stop offset="0.0" stop-color="#aa6609"/>
      <stop offset="1.0" stop-color="#aa6e09"/>
    </linearGradient>
  </defs>
</svg>
