<?xml version="1.0" encoding="UTF-8" standalone="no"?>
<svg xmlns:ffdec="https://www.free-decompiler.com/flash" xmlns:xlink="http://www.w3.org/1999/xlink" ffdec:objectType="shape" height="14.3px" width="13.7px" xmlns="http://www.w3.org/2000/svg">
  <g transform="matrix(1.0, 0.0, 0.0, 1.0, 0.0, 0.0)">
    <path d="M0.0 14.3 L3.8 12.5 4.55 10.95 9.55 10.95 10.35 12.5 13.7 14.3 0.0 14.3" fill="#ffcf00" fill-rule="evenodd" stroke="none"/>
    <path d="M5.9 13.1 L4.1 10.25 3.05 6.95 10.7 6.9 10.05 10.25 8.0 13.1 5.9 13.1" fill="#e89e00" fill-rule="evenodd" stroke="none"/>
    <path d="M10.85 7.65 Q9.5 9.25 7.35 9.25 5.15 9.25 3.1 7.65 L1.95 6.15 0.95 6.15 0.95 4.9 2.75 3.65 4.55 1.5 5.55 0.0 9.0 0.0 10.95 3.85 12.25 5.15 12.25 6.15 11.3 6.4 10.85 7.65" fill="#ffcf00" fill-rule="evenodd" stroke="none"/>
    <path d="M11.65 6.3 L11.3 6.4 10.85 7.65 Q9.5 9.25 7.35 9.25 5.15 9.25 3.1 7.65 L2.1 6.35 Q2.35 5.15 3.7 4.35 5.05 3.55 6.85 3.55 8.65 3.55 10.05 4.35 11.4 5.15 11.65 6.3" fill="#ffa700" fill-rule="evenodd" stroke="none"/>
    <path d="M6.95 6.4 L11.1 7.0 10.85 7.65 Q9.5 9.25 7.35 9.25 5.15 9.25 3.1 7.65 L2.65 7.05 Q4.2 6.4 6.95 6.4" fill="#ffed00" fill-rule="evenodd" stroke="none"/>
    <path d="M10.05 8.55 L10.4 8.1 10.95 8.25 11.1 9.2 10.65 9.75 10.25 10.0 9.65 10.2 10.05 8.55" fill="#ffa900" fill-rule="evenodd" stroke="none"/>
    <path d="M3.75 8.55 L4.2 10.2 3.55 10.0 3.2 9.75 2.7 9.2 2.85 8.25 3.45 8.1 3.75 8.55" fill="#ffa900" fill-rule="evenodd" stroke="none"/>
    <path d="M8.35 4.55 L7.9 5.6 Q7.5 6.0 6.85 6.0 6.25 6.0 5.85 5.6 5.4 5.15 5.4 4.55 5.4 3.95 5.85 3.55 6.25 3.1 6.85 3.1 7.5 3.1 7.9 3.55 8.35 3.95 8.35 4.55" fill="#ffe100" fill-rule="evenodd" stroke="none"/>
  </g>
</svg>
