<?xml version="1.0" encoding="UTF-8" standalone="no"?>
<svg xmlns:ffdec="https://www.free-decompiler.com/flash" xmlns:xlink="http://www.w3.org/1999/xlink" ffdec:objectType="shape" height="184.75px" width="169.75px" xmlns="http://www.w3.org/2000/svg">
  <g transform="matrix(1.0, 0.0, 0.0, 1.0, 88.85, 127.15)">
    <path d="M16.2 -113.4 L74.9 -113.4 Q76.95 -113.4 78.45 -111.95 79.9 -110.45 79.9 -108.4 L79.9 -58.35 Q79.9 -56.3 78.45 -54.8 76.95 -53.35 74.9 -53.35 L-82.85 -53.35 Q-84.9 -53.35 -86.4 -54.8 -87.85 -56.3 -87.85 -58.35 L-87.85 -121.15 Q-87.85 -123.2 -86.4 -124.7 -84.9 -126.15 -82.85 -126.15 L-7.75 -126.15 Q-5.7 -126.15 -3.15 -125.15 -0.6 -124.2 0.95 -122.8 L7.5 -116.8 Q9.0 -115.4 11.55 -114.4 14.1 -113.4 16.2 -113.4" fill="#021b3f" fill-rule="evenodd" stroke="none"/>
    <path d="M79.9 -108.4 L79.9 -58.35 Q79.9 -56.3 78.45 -54.8 76.95 -53.35 74.9 -53.35 L-82.85 -53.35 Q-84.9 -53.35 -86.4 -54.8 -87.85 -56.3 -87.85 -58.35 L-87.85 -121.15 Q-87.85 -123.2 -86.4 -124.7 -84.9 -126.15 -82.85 -126.15 L-7.75 -126.15 Q-5.7 -126.15 -3.15 -125.15 -0.6 -124.2 0.95 -122.8 L7.5 -116.8 Q9.0 -115.4 11.55 -114.4 14.1 -113.4 16.2 -113.4 L74.9 -113.4 Q76.95 -113.4 78.45 -111.95 79.9 -110.45 79.9 -108.4 Z" fill="none" stroke="#033f87" stroke-linecap="butt" stroke-linejoin="miter-clip" stroke-miterlimit="4.0" stroke-width="2.0"/>
    <path d="M-74.6 -39.65 L-81.35 -34.45 -84.85 -34.45 -77.95 -39.8 -58.0 -39.8 -58.25 -39.65 -74.6 -39.65" fill="#0b73db" fill-rule="evenodd" stroke="none"/>
    <path d="M70.9 -39.8 L77.8 -34.45 74.3 -34.45 67.55 -39.65 51.15 -39.65 50.95 -39.8 70.9 -39.8" fill="#0b73db" fill-rule="evenodd" stroke="none"/>
    <path d="M-40.5 57.6 L-77.95 57.6 -84.85 52.3 -81.35 52.3 -74.6 57.5 -40.7 57.5 -40.5 57.6" fill="#0b73db" fill-rule="evenodd" stroke="none"/>
    <path d="M33.4 57.6 L33.65 57.5 67.55 57.5 74.3 52.3 77.8 52.3 70.9 57.6 33.4 57.6" fill="#0b73db" fill-rule="evenodd" stroke="none"/>
    <path d="M76.35 -33.6 L78.0 -33.6 78.0 51.3 76.35 51.3 76.35 -33.6" fill="#022b4c" fill-rule="evenodd" stroke="none"/>
    <path d="M75.1 -33.2 L75.1 -33.6 77.85 -33.6 77.85 -33.2 75.1 -33.2" fill="#0b47db" fill-rule="evenodd" stroke="none"/>
    <path d="M75.1 -13.35 L75.1 -13.75 77.85 -13.75 77.85 -13.35 75.1 -13.35" fill="#0b47db" fill-rule="evenodd" stroke="none"/>
    <path d="M74.35 7.25 L74.35 6.85 77.85 6.85 77.85 7.25 74.35 7.25" fill="#0b47db" fill-rule="evenodd" stroke="none"/>
    <path d="M75.1 29.45 L75.1 29.05 77.85 29.05 77.85 29.45 75.1 29.45" fill="#0b47db" fill-rule="evenodd" stroke="none"/>
    <path d="M75.1 51.3 L75.1 50.85 77.85 50.85 77.85 51.3 75.1 51.3" fill="#0b47db" fill-rule="evenodd" stroke="none"/>
    <path d="M-83.0 -33.6 L-83.0 51.3 -84.65 51.3 -84.65 -33.6 -83.0 -33.6" fill="#022b4c" fill-rule="evenodd" stroke="none"/>
    <path d="M-81.75 -33.2 L-84.55 -33.2 -84.55 -33.6 -81.75 -33.6 -81.75 -33.2" fill="#0b47db" fill-rule="evenodd" stroke="none"/>
    <path d="M-81.75 -13.35 L-84.55 -13.35 -84.55 -13.75 -81.75 -13.75 -81.75 -13.35" fill="#0b47db" fill-rule="evenodd" stroke="none"/>
    <path d="M-81.0 7.25 L-84.55 7.25 -84.55 6.85 -81.0 6.85 -81.0 7.25" fill="#0b47db" fill-rule="evenodd" stroke="none"/>
    <path d="M-81.75 29.45 L-84.55 29.45 -84.55 29.05 -81.75 29.05 -81.75 29.45" fill="#0b47db" fill-rule="evenodd" stroke="none"/>
    <path d="M-81.75 51.3 L-84.55 51.3 -84.55 50.85 -81.75 50.85 -81.75 51.3" fill="#0b47db" fill-rule="evenodd" stroke="none"/>
    <path d="M51.75 -48.8 L54.5 -48.15 56.8 -46.6 69.55 -33.0 Q70.4 -32.05 70.1 -31.45 69.85 -30.8 68.6 -30.8 L-68.2 -30.8 Q-69.45 -30.8 -70.3 -31.7 -71.2 -32.55 -71.2 -33.8 L-71.2 -45.8 Q-71.2 -47.05 -70.3 -47.9 -69.45 -48.8 -68.2 -48.8 L51.75 -48.8" fill="#03428e" fill-rule="evenodd" stroke="none"/>
    <path d="M51.75 -48.8 L-68.2 -48.8 Q-69.45 -48.8 -70.3 -47.9 -71.2 -47.05 -71.2 -45.8 L-71.2 -33.8 Q-71.2 -32.55 -70.3 -31.7 -69.45 -30.8 -68.2 -30.8 L68.6 -30.8 Q69.85 -30.8 70.1 -31.45 70.4 -32.05 69.55 -33.0 L56.8 -46.6 54.5 -48.15 51.75 -48.8 Z" fill="none" stroke="#025fce" stroke-linecap="butt" stroke-linejoin="miter-clip" stroke-miterlimit="4.0" stroke-width="1.0"/>
    <path d="M42.75 -48.8 Q44.0 -48.8 45.5 -48.15 47.0 -47.5 47.8 -46.6 L60.55 -33.0 Q61.4 -32.05 61.1 -31.45 60.85 -30.8 59.6 -30.8 L-60.25 -30.8 Q-61.5 -30.8 -62.35 -31.7 -63.25 -32.55 -63.25 -33.8 L-63.25 -45.8 Q-63.25 -47.05 -62.35 -47.9 -61.5 -48.8 -60.25 -48.8 L42.75 -48.8" fill="#02274c" fill-rule="evenodd" stroke="none"/>
    <path d="M42.75 -48.8 L-60.25 -48.8 Q-61.5 -48.8 -62.35 -47.9 -63.25 -47.05 -63.25 -45.8 L-63.25 -33.8 Q-63.25 -32.55 -62.35 -31.7 -61.5 -30.8 -60.25 -30.8 L59.6 -30.8 Q60.85 -30.8 61.1 -31.45 61.4 -32.05 60.55 -33.0 L47.8 -46.6 Q47.0 -47.5 45.5 -48.15 44.0 -48.8 42.75 -48.8 Z" fill="none" stroke="#025fce" stroke-linecap="butt" stroke-linejoin="miter-clip" stroke-miterlimit="4.0" stroke-width="1.0"/>
  </g>
</svg>
