<?xml version="1.0" encoding="UTF-8" standalone="no"?>
<svg xmlns:ffdec="https://www.free-decompiler.com/flash" xmlns:xlink="http://www.w3.org/1999/xlink" ffdec:objectType="shape" height="10.35px" width="9.95px" xmlns="http://www.w3.org/2000/svg">
  <g transform="matrix(1.0, 0.0, 0.0, 1.0, 0.0, 0.0)">
    <path d="M0.0 10.35 L2.75 9.05 3.3 7.95 6.95 7.95 7.55 9.05 9.95 10.35 0.0 10.35" fill="#0180ff" fill-rule="evenodd" stroke="none"/>
    <path d="M4.3 9.5 L3.0 7.45 2.2 5.05 7.8 5.0 7.3 7.45 5.85 9.5 4.3 9.5" fill="#006aff" fill-rule="evenodd" stroke="none"/>
    <path d="M7.95 2.8 L8.9 3.75 8.9 4.5 8.25 4.65 7.9 5.55 Q6.9 6.7 5.35 6.7 3.75 6.7 2.3 5.55 L1.45 4.5 0.7 4.5 0.7 3.55 2.0 2.65 4.05 0.0 6.55 0.0 7.95 2.8" fill="#0180ff" fill-rule="evenodd" stroke="none"/>
    <path d="M7.3 3.15 Q8.3 3.75 8.5 4.6 L8.25 4.65 7.9 5.55 Q6.9 6.7 5.35 6.7 3.75 6.7 2.3 5.55 L1.55 4.6 Q1.75 3.75 2.7 3.15 3.7 2.55 5.0 2.55 6.3 2.55 7.3 3.15" fill="#0058ff" fill-rule="evenodd" stroke="none"/>
    <path d="M5.05 4.65 L8.1 5.05 7.9 5.55 Q6.9 6.7 5.35 6.7 3.75 6.7 2.3 5.55 L1.95 5.1 Q3.2 4.65 5.05 4.65" fill="#2e9eff" fill-rule="evenodd" stroke="none"/>
    <path d="M7.3 6.2 L7.55 5.9 7.95 5.95 8.1 6.7 7.75 7.05 7.45 7.25 7.0 7.4 7.3 6.2" fill="#005aff" fill-rule="evenodd" stroke="none"/>
    <path d="M2.75 6.2 L3.05 7.4 2.6 7.25 2.35 7.05 2.0 6.7 2.1 5.95 2.5 5.9 2.75 6.2" fill="#005aff" fill-rule="evenodd" stroke="none"/>
    <path d="M6.05 3.3 L5.75 4.05 5.0 4.35 Q4.55 4.35 4.25 4.05 3.95 3.75 3.95 3.3 3.95 2.85 4.25 2.55 4.55 2.25 5.0 2.25 5.45 2.25 5.75 2.55 L6.05 3.3" fill="#1392ff" fill-rule="evenodd" stroke="none"/>
  </g>
</svg>
