<?xml version="1.0" encoding="UTF-8" standalone="no"?>
<svg xmlns:ffdec="https://www.free-decompiler.com/flash" xmlns:xlink="http://www.w3.org/1999/xlink" ffdec:objectType="shape" height="11.95px" width="11.55px" xmlns="http://www.w3.org/2000/svg">
  <g transform="matrix(1.0, 0.0, 0.0, 1.0, 0.0, 0.0)">
    <path d="M0.0 11.95 L3.2 10.45 3.85 9.2 8.05 9.2 8.75 10.45 11.55 11.95 0.0 11.95" fill="#0180ff" fill-rule="evenodd" stroke="none"/>
    <path d="M4.95 11.0 L3.5 8.6 2.55 5.85 9.0 5.8 8.45 8.6 6.75 11.0 4.95 11.0" fill="#006aff" fill-rule="evenodd" stroke="none"/>
    <path d="M10.3 5.15 L9.55 5.35 9.15 6.4 Q8.0 7.75 6.2 7.75 4.35 7.75 2.65 6.4 L1.65 5.15 0.8 5.15 0.8 4.1 2.3 3.05 3.85 1.25 4.7 0.0 7.55 0.0 9.2 3.2 10.3 4.3 10.3 5.15" fill="#0180ff" fill-rule="evenodd" stroke="none"/>
    <path d="M9.8 5.3 L9.55 5.35 9.15 6.4 Q8.0 7.75 6.2 7.75 4.35 7.75 2.65 6.4 L1.8 5.3 Q2.0 4.3 3.15 3.65 4.3 2.95 5.8 2.95 7.35 2.95 8.45 3.6 9.6 4.3 9.8 5.3" fill="#0058ff" fill-rule="evenodd" stroke="none"/>
    <path d="M5.85 5.35 L9.35 5.85 9.15 6.4 Q8.0 7.75 6.2 7.75 4.35 7.75 2.65 6.4 L2.25 5.9 Q3.7 5.35 5.85 5.35" fill="#2e9eff" fill-rule="evenodd" stroke="none"/>
    <path d="M8.45 7.2 L8.75 6.8 9.2 6.9 9.35 7.7 8.95 8.15 8.65 8.35 8.1 8.55 8.45 7.2" fill="#005aff" fill-rule="evenodd" stroke="none"/>
    <path d="M3.2 7.2 L3.55 8.55 3.0 8.35 2.7 8.15 2.3 7.7 2.45 6.9 2.9 6.8 3.2 7.2" fill="#005aff" fill-rule="evenodd" stroke="none"/>
    <path d="M7.0 3.8 Q7.0 4.35 6.65 4.7 L5.8 5.05 Q5.3 5.05 4.9 4.7 4.55 4.35 4.55 3.8 4.55 3.3 4.9 2.95 5.3 2.6 5.8 2.6 6.3 2.6 6.65 2.95 7.0 3.3 7.0 3.8" fill="#1392ff" fill-rule="evenodd" stroke="none"/>
  </g>
</svg>
