<?xml version="1.0" encoding="UTF-8" standalone="no"?>
<svg xmlns:ffdec="https://www.free-decompiler.com/flash" xmlns:xlink="http://www.w3.org/1999/xlink" ffdec:objectType="shape" height="29.75px" width="58.25px" xmlns="http://www.w3.org/2000/svg">
  <g transform="matrix(1.0, 0.0, 0.0, 1.0, 0.0, 0.0)">
    <path d="M15.1 0.0 L42.25 0.0 Q43.5 0.0 44.8 0.8 46.1 1.55 46.75 2.65 L57.85 22.6 Q58.45 23.7 58.2 25.0 57.95 26.3 56.95 27.1 L55.95 27.9 Q54.95 28.65 53.4 29.2 L50.6 29.75 6.55 29.75 Q5.3 29.75 3.8 29.15 2.3 28.5 1.45 27.6 L1.15 27.35 Q0.3 26.45 0.05 25.05 -0.15 23.65 0.4 22.55 L10.7 2.7 Q11.25 1.6 12.55 0.8 13.85 0.0 15.1 0.0" fill="url(#gradient0)" fill-rule="evenodd" stroke="none"/>
    <path d="M31.1 4.0 L35.0 3.5 Q35.9 2.95 38.9 2.95 L39.05 2.95 Q40.3 2.95 41.6 3.75 42.9 4.5 43.55 5.6 L51.85 20.55 Q52.45 21.65 52.25 23.0 52.05 24.4 51.15 25.25 L50.85 25.55 48.5 27.05 45.75 27.65 44.9 27.65 40.65 27.1 Q39.35 26.5 36.45 26.5 L22.45 26.5 18.1 27.1 13.75 27.65 11.65 27.65 Q10.4 27.65 9.0 27.0 7.6 26.35 6.85 25.4 6.1 24.45 5.95 23.05 5.85 21.6 6.4 20.5 L14.1 5.65 Q14.65 4.55 15.95 3.75 17.25 2.95 18.5 2.95 L19.1 2.95 Q22.1 2.95 22.9 3.5 L24.3 3.85 26.65 4.0 31.1 4.0" fill="#2b2b2a" fill-rule="evenodd" stroke="none"/>
    <path d="M19.3 4.95 L37.75 4.95 Q38.75 4.95 39.7 5.5 L41.2 6.9 48.65 19.5 Q49.2 20.35 49.0 21.4 48.8 22.45 48.0 23.1 L47.25 23.65 Q46.55 24.25 45.4 24.65 L43.4 25.0 13.5 25.0 11.5 24.55 Q10.4 24.1 9.75 23.45 L9.5 23.25 Q8.8 22.55 8.65 21.45 8.5 20.35 9.0 19.45 L15.9 6.95 Q16.35 6.1 17.35 5.5 18.3 4.95 19.3 4.95" fill="url(#gradient1)" fill-rule="evenodd" stroke="none"/>
    <path d="M19.3 5.45 Q18.45 5.45 17.6 5.95 16.7 6.45 16.3 7.2 L9.4 19.7 Q9.05 20.4 9.15 21.35 9.3 22.3 9.85 22.85 L10.1 23.1 11.7 24.1 13.5 24.5 43.4 24.5 45.25 24.15 Q46.3 23.8 46.95 23.3 L47.7 22.7 Q48.35 22.2 48.5 21.3 48.65 20.45 48.25 19.75 L40.8 7.15 Q40.35 6.45 39.45 5.95 38.6 5.45 37.75 5.45 L19.3 5.45 M17.1 5.1 Q18.2 4.45 19.3 4.45 L37.75 4.45 Q38.85 4.45 39.95 5.1 41.1 5.7 41.65 6.65 L49.1 19.25 Q49.7 20.3 49.5 21.5 49.25 22.75 48.3 23.5 L47.6 24.05 Q46.85 24.7 45.6 25.1 L43.4 25.5 13.5 25.5 11.3 25.05 Q10.1 24.55 9.4 23.8 L9.15 23.6 Q8.35 22.8 8.15 21.5 8.0 20.25 8.55 19.25 L15.45 6.7 Q16.0 5.75 17.1 5.1" fill="#894502" fill-rule="evenodd" stroke="none"/>
  </g>
  <defs>
    <linearGradient gradientTransform="matrix(0.0, -0.0181, -0.0181, 0.0, 29.15, 14.9)" gradientUnits="userSpaceOnUse" id="gradient0" spreadMethod="pad" x1="-819.2" x2="819.2">
      <stop offset="0.0" stop-color="#373737"/>
      <stop offset="0.6549019607843137" stop-color="#a4a4a4"/>
      <stop offset="0.803921568627451" stop-color="#a4a4a4"/>
      <stop offset="1.0" stop-color="#6b6b6b"/>
    </linearGradient>
    <linearGradient gradientTransform="matrix(0.0247, 0.0, 0.0, -0.0247, 28.85, 15.0)" gradientUnits="userSpaceOnUse" id="gradient1" spreadMethod="pad" x1="-819.2" x2="819.2">
      <stop offset="0.0" stop-color="#aa6609"/>
      <stop offset="1.0" stop-color="#aa6e09"/>
    </linearGradient>
  </defs>
</svg>
