<?xml version="1.0" encoding="UTF-8" standalone="no"?>
<svg xmlns:ffdec="https://www.free-decompiler.com/flash" xmlns:xlink="http://www.w3.org/1999/xlink" ffdec:objectType="shape" height="10.5px" width="10.15px" xmlns="http://www.w3.org/2000/svg">
  <g transform="matrix(1.0, 0.0, 0.0, 1.0, 0.0, 0.0)">
    <path d="M0.0 10.5 L2.8 9.2 3.4 8.05 7.05 8.05 7.65 9.2 10.15 10.5 0.0 10.5" fill="#ffcf00" fill-rule="evenodd" stroke="none"/>
    <path d="M4.35 9.65 L3.05 7.55 2.25 5.15 7.9 5.1 7.45 7.55 5.95 9.65 4.35 9.65" fill="#ffb900" fill-rule="evenodd" stroke="none"/>
    <path d="M8.1 2.8 L9.05 3.8 9.05 4.55 8.35 4.7 8.0 5.65 Q7.0 6.8 5.4 6.8 3.8 6.8 2.35 5.65 L1.45 4.55 0.7 4.55 0.7 3.6 2.05 2.7 4.1 0.0 6.65 0.0 8.1 2.8" fill="#ffcf00" fill-rule="evenodd" stroke="none"/>
    <path d="M7.45 3.2 Q8.4 3.8 8.6 4.65 L8.35 4.7 8.0 5.65 Q7.0 6.8 5.4 6.8 3.8 6.8 2.35 5.65 L1.55 4.65 Q1.75 3.8 2.75 3.2 3.75 2.6 5.1 2.6 6.45 2.6 7.45 3.2" fill="#ffa700" fill-rule="evenodd" stroke="none"/>
    <path d="M5.15 4.7 L8.2 5.15 8.0 5.65 Q7.0 6.8 5.4 6.8 3.8 6.8 2.35 5.65 L1.95 5.2 Q3.2 4.7 5.15 4.7" fill="#ffed00" fill-rule="evenodd" stroke="none"/>
    <path d="M7.45 6.3 L7.7 5.95 8.1 6.05 8.2 6.8 7.85 7.2 7.6 7.35 7.15 7.5 7.45 6.3" fill="#ffa900" fill-rule="evenodd" stroke="none"/>
    <path d="M2.8 6.3 L3.1 7.5 2.65 7.35 2.4 7.2 2.05 6.8 2.15 6.05 2.55 5.95 2.8 6.3" fill="#ffa900" fill-rule="evenodd" stroke="none"/>
    <path d="M6.15 3.35 L5.85 4.15 5.1 4.45 Q4.65 4.45 4.35 4.15 4.0 3.8 4.0 3.35 4.0 2.9 4.35 2.6 4.65 2.25 5.1 2.25 5.55 2.25 5.85 2.6 L6.15 3.35" fill="#ffe100" fill-rule="evenodd" stroke="none"/>
  </g>
</svg>
