<?xml version="1.0" encoding="UTF-8" standalone="no"?>
<svg xmlns:ffdec="https://www.free-decompiler.com/flash" xmlns:xlink="http://www.w3.org/1999/xlink" ffdec:objectType="shape" height="12.15px" width="11.7px" xmlns="http://www.w3.org/2000/svg">
  <g transform="matrix(1.0, 0.0, 0.0, 1.0, 0.0, 0.0)">
    <path d="M0.0 12.15 L3.25 10.6 3.9 9.3 8.15 9.3 8.85 10.6 11.7 12.15 0.0 12.15" fill="#ffcf00" fill-rule="evenodd" stroke="none"/>
    <path d="M5.05 11.15 L3.5 8.7 2.6 5.9 9.15 5.85 8.6 8.7 6.85 11.15 5.05 11.15" fill="#e89e00" fill-rule="evenodd" stroke="none"/>
    <path d="M10.45 5.25 L9.65 5.45 9.25 6.5 Q8.1 7.85 6.25 7.85 4.4 7.85 2.7 6.5 L1.7 5.25 0.8 5.25 0.8 4.2 2.35 3.1 4.75 0.0 7.65 0.0 9.35 3.25 10.45 4.4 10.45 5.25" fill="#ffcf00" fill-rule="evenodd" stroke="none"/>
    <path d="M5.9 3.0 Q7.4 3.0 8.6 3.7 9.7 4.35 9.95 5.35 L9.65 5.45 9.25 6.5 Q8.1 7.85 6.25 7.85 4.4 7.85 2.7 6.5 L1.8 5.4 Q2.05 4.4 3.2 3.7 4.35 3.0 5.9 3.0" fill="#ffa700" fill-rule="evenodd" stroke="none"/>
    <path d="M5.95 5.45 L9.5 5.95 9.25 6.5 Q8.1 7.85 6.25 7.85 4.4 7.85 2.7 6.5 L2.25 6.0 Q3.6 5.45 5.95 5.45" fill="#ffed00" fill-rule="evenodd" stroke="none"/>
    <path d="M8.6 7.3 L8.85 6.9 9.35 7.0 9.5 7.85 9.1 8.3 8.75 8.5 8.25 8.7 8.6 7.3" fill="#ffa900" fill-rule="evenodd" stroke="none"/>
    <path d="M3.25 7.3 L3.6 8.7 3.05 8.5 2.75 8.3 2.35 7.85 2.45 7.0 2.95 6.9 3.25 7.3" fill="#ffa900" fill-rule="evenodd" stroke="none"/>
    <path d="M7.1 3.85 Q7.1 4.35 6.75 4.75 6.4 5.1 5.9 5.1 5.4 5.1 5.0 4.75 4.65 4.4 4.65 3.85 4.65 3.35 5.0 2.95 5.4 2.6 5.9 2.6 6.4 2.6 6.75 2.95 7.1 3.35 7.1 3.85" fill="#ffe100" fill-rule="evenodd" stroke="none"/>
  </g>
</svg>
