<?xml version="1.0" encoding="UTF-8" standalone="no"?>
<svg xmlns:ffdec="https://www.free-decompiler.com/flash" xmlns:xlink="http://www.w3.org/1999/xlink" ffdec:objectType="shape" height="26.75px" width="52.45px" xmlns="http://www.w3.org/2000/svg">
  <g transform="matrix(1.0, 0.0, 0.0, 1.0, -2.9, -1.5)">
    <path d="M16.45 1.5 L40.9 1.5 Q42.05 1.5 43.2 2.2 44.35 2.85 44.95 3.85 L54.95 21.8 Q55.5 22.8 55.25 24.0 55.05 25.15 54.15 25.85 L53.25 26.6 Q52.35 27.25 50.95 27.75 L48.4 28.25 8.8 28.25 Q7.65 28.25 6.3 27.7 L4.2 26.3 3.9 26.1 Q3.15 25.3 2.95 24.0 2.75 22.75 3.25 21.75 L12.5 3.9 Q13.0 2.9 14.2 2.2 15.35 1.5 16.45 1.5" fill="url(#gradient0)" fill-rule="evenodd" stroke="none"/>
    <path d="M30.85 5.1 L34.4 4.65 Q35.2 4.15 37.9 4.15 L38.05 4.15 Q39.15 4.15 40.3 4.85 41.5 5.55 42.1 6.5 L49.55 19.95 Q50.1 20.95 49.9 22.2 49.75 23.45 48.9 24.2 L48.65 24.45 Q47.9 25.25 46.55 25.8 L44.05 26.35 43.3 26.35 39.45 25.85 Q38.3 25.35 35.7 25.35 L23.1 25.35 19.15 25.85 15.25 26.35 13.35 26.35 Q12.25 26.35 11.0 25.8 9.7 25.2 9.05 24.35 8.35 23.5 8.25 22.2 8.15 20.9 8.65 19.95 L15.55 6.55 Q16.05 5.55 17.25 4.85 18.4 4.15 19.55 4.15 L20.05 4.15 Q22.75 4.15 23.5 4.65 L24.75 4.95 26.85 5.1 30.85 5.1" fill="#2b2b2a" fill-rule="evenodd" stroke="none"/>
    <path d="M20.25 5.95 L36.85 5.95 Q37.75 5.95 38.6 6.45 L39.95 7.7 46.65 19.05 Q47.15 19.8 47.0 20.75 46.8 21.7 46.1 22.25 L45.4 22.75 Q44.8 23.3 43.75 23.65 L41.95 24.0 15.05 24.0 13.25 23.55 Q12.25 23.15 11.65 22.6 L11.45 22.4 Q10.8 21.75 10.65 20.8 10.55 19.8 11.0 19.0 L17.2 7.75 Q17.6 6.95 18.5 6.45 19.35 5.95 20.25 5.95" fill="url(#gradient1)" fill-rule="evenodd" stroke="none"/>
    <path d="M18.25 6.05 Q19.25 5.5 20.25 5.5 L36.85 5.5 Q37.85 5.5 38.85 6.05 39.85 6.6 40.35 7.45 L47.05 18.8 Q47.6 19.75 47.45 20.85 47.2 21.95 46.35 22.65 L45.7 23.1 43.9 24.05 41.95 24.45 15.05 24.45 13.05 24.0 Q11.95 23.55 11.35 22.9 L11.1 22.7 Q10.4 22.0 10.2 20.85 10.1 19.7 10.6 18.8 L16.8 7.5 Q17.3 6.65 18.25 6.05 M20.25 6.4 Q19.5 6.4 18.7 6.85 17.9 7.3 17.55 7.95 L11.35 19.2 Q11.05 19.85 11.1 20.7 11.25 21.55 11.75 22.05 L11.95 22.25 Q12.5 22.8 13.4 23.15 14.25 23.55 15.05 23.55 L41.95 23.55 43.6 23.2 Q44.55 22.9 45.15 22.45 L45.8 21.9 Q46.4 21.45 46.55 20.65 46.65 19.9 46.3 19.25 L39.6 7.9 38.4 6.85 Q37.6 6.4 36.85 6.4 L20.25 6.4" fill="#894502" fill-rule="evenodd" stroke="none"/>
  </g>
  <defs>
    <linearGradient gradientTransform="matrix(0.0, -0.0163, -0.0163, 0.0, 29.1, 14.9)" gradientUnits="userSpaceOnUse" id="gradient0" spreadMethod="pad" x1="-819.2" x2="819.2">
      <stop offset="0.0" stop-color="#373737"/>
      <stop offset="0.6549019607843137" stop-color="#a4a4a4"/>
      <stop offset="0.803921568627451" stop-color="#a4a4a4"/>
      <stop offset="1.0" stop-color="#6b6b6b"/>
    </linearGradient>
    <linearGradient gradientTransform="matrix(0.0222, 0.0, 0.0, -0.0222, 28.85, 15.0)" gradientUnits="userSpaceOnUse" id="gradient1" spreadMethod="pad" x1="-819.2" x2="819.2">
      <stop offset="0.0" stop-color="#aa6609"/>
      <stop offset="1.0" stop-color="#aa6e09"/>
    </linearGradient>
  </defs>
</svg>
