<?xml version="1.0" encoding="UTF-8" standalone="no"?>
<svg xmlns:ffdec="https://www.free-decompiler.com/flash" xmlns:xlink="http://www.w3.org/1999/xlink" ffdec:objectType="shape" height="29.3px" width="115.85px" xmlns="http://www.w3.org/2000/svg">
  <g transform="matrix(1.0, 0.0, 0.0, 1.0, 0.0, 0.0)">
    <path d="M13.25 16.05 Q8.8 13.8 4.35 11.5 L0.0 0.6 5.15 0.6 13.25 16.05" fill="#29292b" fill-rule="evenodd" stroke="none"/>
    <path d="M115.85 0.6 L112.35 11.5 104.0 16.05 110.75 0.6 115.85 0.6" fill="#29292b" fill-rule="evenodd" stroke="none"/>
    <path d="M5.1 3.35 Q4.6 2.25 5.1 1.4 5.65 0.6 6.9 0.6 L109.7 0.6 Q110.95 0.6 111.5 1.4 112.05 2.25 111.55 3.35 L107.45 13.3 Q106.95 14.45 105.75 15.25 104.5 16.05 103.25 16.05 L13.7 16.05 Q12.45 16.05 11.25 15.25 10.0 14.45 9.5 13.3 L5.1 3.35" fill="#191919" fill-rule="evenodd" stroke="none"/>
    <path d="M3.9 0.6 L112.7 0.6 112.1 2.0 4.4 2.0 3.9 0.6" fill="#595657" fill-rule="evenodd" stroke="none"/>
    <path d="M8.45 11.0 L108.4 11.0 107.85 12.0 8.95 12.0 8.45 11.0" fill="#474647" fill-rule="evenodd" stroke="none"/>
    <path d="M7.95 9.95 L108.85 9.95 108.25 10.9 8.45 10.9 7.95 9.95" fill="#1e1d1f" fill-rule="evenodd" stroke="none"/>
    <path d="M40.75 28.3 L27.35 13.7 25.7 1.0 91.5 1.0 89.75 13.7 76.45 28.3 40.75 28.3" fill="url(#gradient0)" fill-rule="evenodd" stroke="none"/>
    <path d="M27.35 13.7 L40.75 28.3 76.45 28.3 89.75 13.7 91.5 1.0 25.7 1.0 27.35 13.7 M28.2 16.25 L26.4 14.1 24.55 0.0 92.65 0.0 90.7 14.15 76.9 29.3 40.3 29.3 28.25 16.3 28.2 16.3 28.2 16.25" fill="#1a1a1c" fill-rule="evenodd" stroke="none"/>
    <path d="M25.7 1.0 L91.5 1.0 90.8 6.45 26.4 6.45 25.7 1.0" fill="#484949" fill-rule="evenodd" stroke="none"/>
    <path d="M110.15 3.2 L107.15 9.7 92.0 9.7 92.8 3.2 110.15 3.2" fill="#3c1e00" fill-rule="evenodd" stroke="none"/>
    <path d="M108.2 4.15 L106.05 8.75 93.55 8.75 94.1 4.15 108.2 4.15" fill="#874301" fill-rule="evenodd" stroke="none"/>
    <path d="M104.7 7.75 L95.05 7.75 95.4 5.15 105.9 5.15 104.7 7.75" fill="#f47b02" fill-rule="evenodd" stroke="none"/>
    <path d="M6.75 3.2 L24.05 3.2 24.9 9.7 9.75 9.7 6.75 3.2" fill="#3c1e00" fill-rule="evenodd" stroke="none"/>
    <path d="M8.7 4.15 L22.75 4.15 23.35 8.75 10.8 8.75 8.7 4.15" fill="#874301" fill-rule="evenodd" stroke="none"/>
    <path d="M12.2 7.75 L10.95 5.15 21.45 5.15 21.8 7.75 12.2 7.75" fill="#f47b02" fill-rule="evenodd" stroke="none"/>
  </g>
  <defs>
    <linearGradient gradientTransform="matrix(0.0, 0.0167, -0.0167, 0.0, 58.6, 14.65)" gradientUnits="userSpaceOnUse" id="gradient0" spreadMethod="pad" x1="-819.2" x2="819.2">
      <stop offset="0.0" stop-color="#1d1e1f"/>
      <stop offset="1.0" stop-color="#242424"/>
    </linearGradient>
  </defs>
</svg>
