<?xml version="1.0" encoding="UTF-8" standalone="no"?>
<svg xmlns:ffdec="https://www.free-decompiler.com/flash" xmlns:xlink="http://www.w3.org/1999/xlink" ffdec:objectType="shape" height="61.35px" width="115.85px" xmlns="http://www.w3.org/2000/svg">
  <g transform="matrix(1.0, 0.0, 0.0, 1.0, 0.0, 0.0)">
    <path d="M13.25 41.0 Q8.8 38.75 4.35 36.45 L0.0 25.55 5.15 25.55 13.25 41.0" fill="#29292b" fill-rule="evenodd" stroke="none"/>
    <path d="M115.85 25.55 L112.35 36.45 104.0 41.0 110.75 25.55 115.85 25.55" fill="#29292b" fill-rule="evenodd" stroke="none"/>
    <path d="M5.1 28.3 Q4.6 27.2 5.1 26.35 5.65 25.55 6.9 25.55 L109.7 25.55 Q110.95 25.55 111.5 26.35 112.05 27.2 111.55 28.3 L107.45 38.25 Q106.95 39.4 105.75 40.2 104.5 41.0 103.25 41.0 L13.7 41.0 Q12.45 41.0 11.25 40.2 10.0 39.4 9.5 38.25 L5.1 28.3" fill="#191919" fill-rule="evenodd" stroke="none"/>
    <path d="M3.9 25.55 L112.7 25.55 112.1 26.95 4.4 26.95 3.9 25.55" fill="#595657" fill-rule="evenodd" stroke="none"/>
    <path d="M8.45 35.95 L108.4 35.95 107.85 36.95 8.95 36.95 8.45 35.95" fill="#474647" fill-rule="evenodd" stroke="none"/>
    <path d="M7.95 34.9 L108.85 34.9 108.25 35.85 8.45 35.85 7.95 34.9" fill="#1e1d1f" fill-rule="evenodd" stroke="none"/>
    <path d="M40.75 53.25 L27.35 38.65 25.7 25.95 91.5 25.95 89.75 38.65 76.45 53.25 40.75 53.25" fill="url(#gradient0)" fill-rule="evenodd" stroke="none"/>
    <path d="M27.35 38.65 L40.75 53.25 76.45 53.25 89.75 38.65 91.5 25.95 25.7 25.95 27.35 38.65 M28.2 41.2 L26.4 39.05 24.55 24.95 92.65 24.95 90.7 39.1 76.9 54.25 40.3 54.25 28.25 41.25 28.2 41.25 28.2 41.2" fill="#1a1a1c" fill-rule="evenodd" stroke="none"/>
    <path d="M25.7 25.95 L91.5 25.95 90.8 31.4 26.4 31.4 25.7 25.95" fill="#484949" fill-rule="evenodd" stroke="none"/>
    <path d="M110.15 28.15 L107.15 34.65 92.0 34.65 92.8 28.15 110.15 28.15" fill="#3c1e00" fill-rule="evenodd" stroke="none"/>
    <path d="M108.2 29.1 L106.05 33.7 93.55 33.7 94.1 29.1 108.2 29.1" fill="#874301" fill-rule="evenodd" stroke="none"/>
    <path d="M104.7 32.7 L95.05 32.7 95.4 30.1 105.9 30.1 104.7 32.7" fill="#f47b02" fill-rule="evenodd" stroke="none"/>
    <path d="M6.75 28.15 L24.05 28.15 24.9 34.65 9.75 34.65 6.75 28.15" fill="#3c1e00" fill-rule="evenodd" stroke="none"/>
    <path d="M8.7 29.1 L22.75 29.1 23.35 33.7 10.8 33.7 8.7 29.1" fill="#874301" fill-rule="evenodd" stroke="none"/>
    <path d="M12.2 32.7 L10.95 30.1 21.45 30.1 21.8 32.7 12.2 32.7" fill="#f47b02" fill-rule="evenodd" stroke="none"/>
    <path d="M27.65 25.65 Q29.55 16.3 36.4 9.4 40.95 4.85 46.8 2.45 52.65 0.0 59.05 0.0 65.45 0.0 71.3 2.45 77.15 4.85 81.7 9.4 88.5 16.2 90.4 25.65 L27.65 25.65" fill="#202121" fill-rule="evenodd" stroke="none"/>
    <path d="M70.3 4.95 Q75.65 7.2 79.8 11.35 88.35 19.95 88.35 32.1 88.35 44.2 79.75 52.8 75.6 56.95 70.25 59.15 64.9 61.35 59.05 61.35 53.15 61.35 47.8 59.15 42.45 56.9 38.3 52.75 29.75 44.2 29.75 32.05 29.75 19.9 38.35 11.3 42.5 7.15 47.8 4.95 53.15 2.75 59.05 2.75 64.95 2.75 70.3 4.95" fill="url(#gradient1)" fill-rule="evenodd" stroke="none"/>
    <path d="M35.5 32.1 Q35.5 22.3 42.4 15.45 45.75 12.1 50.05 10.35 54.35 8.55 59.05 8.55 63.75 8.55 68.05 10.35 72.35 12.1 75.7 15.45 82.6 22.35 82.6 32.1 82.55 41.9 75.7 48.75 72.35 52.1 68.05 53.85 63.75 55.65 59.05 55.65 54.35 55.65 50.05 53.85 45.75 52.1 42.4 48.75 35.5 41.85 35.5 32.1 M59.05 12.25 Q55.05 12.25 51.45 13.75 47.8 15.25 45.0 18.05 39.2 23.85 39.2 32.1 39.2 40.35 45.0 46.15 47.8 48.95 51.45 50.45 55.05 51.95 59.05 51.95 67.25 51.95 73.05 46.15 78.85 40.35 78.85 32.1 78.9 23.85 73.1 18.05 70.3 15.25 66.65 13.75 63.05 12.25 59.05 12.25" fill="#39302d" fill-rule="evenodd" stroke="none"/>
    <path d="M34.05 47.45 L33.6 46.7 40.65 42.6 41.1 43.4 34.05 47.45" fill="#39302d" fill-rule="evenodd" stroke="none"/>
    <path d="M77.15 43.25 L77.6 42.45 84.5 46.6 84.05 47.4 77.15 43.25" fill="#39302d" fill-rule="evenodd" stroke="none"/>
    <path d="M59.65 10.85 L58.75 10.85 58.75 2.6 59.65 2.6 59.65 10.85" fill="#39302d" fill-rule="evenodd" stroke="none"/>
    <path d="M31.5 25.1 L86.15 25.1 84.05 40.25 33.6 40.25 31.5 25.1" fill="#39302d" fill-rule="evenodd" stroke="none"/>
    <path d="M82.1 38.3 L83.8 26.95 78.5 26.95 78.3 26.25 Q76.35 19.85 71.05 15.9 65.75 11.95 59.05 11.95 52.35 11.95 47.05 15.9 41.7 19.85 39.8 26.25 L39.55 26.95 34.05 26.95 35.75 38.3 39.9 38.3 40.15 38.95 Q42.35 44.9 47.5 48.6 52.7 52.25 59.05 52.25 65.35 52.25 70.55 48.6 75.8 44.9 77.95 38.95 L78.2 38.3 82.1 38.3 M85.0 25.95 L83.0 39.3 78.9 39.3 Q76.65 45.45 71.3 49.3 65.8 53.25 59.05 53.25 52.3 53.25 46.8 49.3 41.45 45.45 39.2 39.3 L34.9 39.3 32.9 25.95 38.8 25.95 Q40.8 19.35 46.35 15.2 52.0 10.95 59.05 10.95 66.15 10.95 71.75 15.2 77.3 19.4 79.25 25.95 L85.0 25.95" fill="#973e02" fill-rule="evenodd" stroke="none"/>
    <path d="M82.1 38.3 L78.2 38.3 77.95 38.95 Q75.8 44.9 70.55 48.6 65.35 52.25 59.05 52.25 52.7 52.25 47.5 48.6 42.35 44.9 40.15 38.95 L39.9 38.3 35.75 38.3 34.05 26.95 39.55 26.95 39.8 26.25 Q41.7 19.85 47.05 15.9 52.35 11.95 59.05 11.95 65.75 11.95 71.05 15.9 76.35 19.85 78.3 26.25 L78.5 26.95 83.8 26.95 82.1 38.3" fill="url(#gradient2)" fill-rule="evenodd" stroke="none"/>
  </g>
  <defs>
    <linearGradient gradientTransform="matrix(0.0, 0.0167, -0.0167, 0.0, 58.6, 39.6)" gradientUnits="userSpaceOnUse" id="gradient0" spreadMethod="pad" x1="-819.2" x2="819.2">
      <stop offset="0.0" stop-color="#1d1e1f"/>
      <stop offset="1.0" stop-color="#242424"/>
    </linearGradient>
    <linearGradient gradientTransform="matrix(0.0, -0.0358, -0.0358, 0.0, 59.05, 32.05)" gradientUnits="userSpaceOnUse" id="gradient1" spreadMethod="pad" x1="-819.2" x2="819.2">
      <stop offset="0.01568627450980392" stop-color="#777777"/>
      <stop offset="0.403921568627451" stop-color="#404040"/>
      <stop offset="1.0" stop-color="#a6a6a6"/>
    </linearGradient>
    <radialGradient cx="0" cy="0" gradientTransform="matrix(0.0289, 0.0, 0.0, -0.0289, 58.95, 32.1)" gradientUnits="userSpaceOnUse" id="gradient2" r="819.2" spreadMethod="pad">
      <stop offset="0.0" stop-color="#ca6502"/>
      <stop offset="0.14901960784313725" stop-color="#bb5e00"/>
      <stop offset="0.35294117647058826" stop-color="#9e5003"/>
      <stop offset="0.5764705882352941" stop-color="#864302"/>
      <stop offset="0.8235294117647058" stop-color="#6d2101"/>
      <stop offset="1.0" stop-color="#521b03"/>
    </radialGradient>
  </defs>
</svg>
