<?xml version="1.0" encoding="UTF-8" standalone="no"?>
<svg xmlns:ffdec="https://www.free-decompiler.com/flash" xmlns:xlink="http://www.w3.org/1999/xlink" ffdec:objectType="shape" height="23.55px" width="22.65px" xmlns="http://www.w3.org/2000/svg">
  <g transform="matrix(1.0, 0.0, 0.0, 1.0, 0.0, 0.0)">
    <path d="M0.0 23.55 L6.25 20.55 7.55 18.05 15.8 18.05 17.15 20.55 22.65 23.55 0.0 23.55" fill="#fd9935" fill-rule="evenodd" stroke="none"/>
    <path d="M6.8 16.85 L5.05 11.45 17.7 11.35 16.65 16.85 13.25 21.6 9.75 21.6 6.8 16.85" fill="#f47b02" fill-rule="evenodd" stroke="none"/>
    <path d="M20.25 10.15 L18.7 10.55 17.95 12.6 16.4 13.9 Q14.35 15.2 12.1 15.2 9.9 15.2 7.3 13.9 L5.2 12.6 3.25 10.15 1.6 10.15 1.6 8.1 4.55 6.05 9.2 0.0 14.85 0.0 18.05 6.3 20.25 8.5 20.25 10.15" fill="#fd9124" fill-rule="evenodd" stroke="none"/>
    <path d="M11.35 5.8 Q14.35 5.8 16.6 7.15 18.85 8.45 19.25 10.4 L18.7 10.55 17.95 12.6 16.4 13.9 Q14.35 15.2 12.1 15.2 9.9 15.2 7.3 13.9 L5.2 12.6 3.5 10.45 Q3.9 8.45 6.15 7.15 8.35 5.8 11.35 5.8" fill="#e67300" fill-rule="evenodd" stroke="none"/>
    <path d="M11.5 10.55 Q15.8 10.55 18.35 11.5 L17.95 12.6 16.4 13.9 Q14.35 15.2 12.1 15.2 9.9 15.2 7.3 13.9 L5.2 12.6 4.4 11.6 Q7.0 10.55 11.5 10.55" fill="#fdca02" fill-rule="evenodd" stroke="none"/>
    <path d="M16.6 14.1 L17.15 13.35 18.1 13.55 18.35 15.2 17.55 16.05 17.0 16.45 15.95 16.8 16.6 14.1" fill="#ec6002" fill-rule="evenodd" stroke="none"/>
    <path d="M6.25 14.1 L6.95 16.8 5.9 16.45 5.3 16.05 4.55 15.2 4.8 13.55 5.7 13.35 6.25 14.1" fill="#ec6002" fill-rule="evenodd" stroke="none"/>
    <path d="M13.8 7.5 Q13.8 8.5 13.1 9.2 12.35 9.9 11.35 9.9 10.4 9.9 9.65 9.2 8.95 8.5 8.95 7.5 8.95 6.5 9.65 5.75 10.35 5.05 11.35 5.05 12.35 5.05 13.1 5.75 13.8 6.5 13.8 7.5" fill="#fdb40b" fill-rule="evenodd" stroke="none"/>
  </g>
</svg>
