<?xml version="1.0" encoding="UTF-8" standalone="no"?>
<svg xmlns:ffdec="https://www.free-decompiler.com/flash" xmlns:xlink="http://www.w3.org/1999/xlink" ffdec:objectType="shape" height="44.85px" width="167.15px" xmlns="http://www.w3.org/2000/svg">
  <g transform="matrix(1.0, 0.0, 0.0, 1.0, 87.6, -49.65)">
    <path d="M-44.75 50.15 L40.25 50.15 Q41.2 50.15 41.85 50.85 42.5 51.5 42.5 52.4 L42.5 60.95 Q42.5 61.9 41.85 62.55 41.2 63.2 40.25 63.2 L-44.75 63.2 Q-45.7 63.2 -46.35 62.55 -47.0 61.9 -47.0 60.95 L-47.0 52.4 Q-47.0 51.5 -46.35 50.85 -45.7 50.15 -44.75 50.15" fill="#011838" fill-rule="evenodd" stroke="none"/>
    <path d="M-44.75 50.15 L40.25 50.15 Q41.2 50.15 41.85 50.85 42.5 51.5 42.5 52.4 L42.5 60.95 Q42.5 61.9 41.85 62.55 41.2 63.2 40.25 63.2 L-44.75 63.2 Q-45.7 63.2 -46.35 62.55 -47.0 61.9 -47.0 60.95 L-47.0 52.4 Q-47.0 51.5 -46.35 50.85 -45.7 50.15 -44.75 50.15 Z" fill="none" stroke="#0563aa" stroke-linecap="butt" stroke-linejoin="miter-clip" stroke-miterlimit="4.0" stroke-width="1.0"/>
    <path d="M-85.1 71.85 L77.05 71.85 Q77.9 71.85 78.45 72.45 79.05 73.05 79.05 73.85 L79.05 91.7 Q79.05 92.55 78.45 93.1 77.9 93.7 77.05 93.7 L-85.1 93.7 Q-85.9 93.7 -86.5 93.1 -87.1 92.55 -87.1 91.7 L-87.1 73.85 Q-87.1 73.05 -86.5 72.45 -85.9 71.85 -85.1 71.85" fill="#022960" fill-rule="evenodd" stroke="none"/>
    <path d="M-85.1 71.85 L77.05 71.85 Q77.9 71.85 78.45 72.45 79.05 73.05 79.05 73.85 L79.05 91.7 Q79.05 92.55 78.45 93.1 77.9 93.7 77.05 93.7 L-85.1 93.7 Q-85.9 93.7 -86.5 93.1 -87.1 92.55 -87.1 91.7 L-87.1 73.85 Q-87.1 73.05 -86.5 72.45 -85.9 71.85 -85.1 71.85 Z" fill="none" stroke="#0563aa" stroke-linecap="butt" stroke-linejoin="miter-clip" stroke-miterlimit="4.0" stroke-width="1.0"/>
    <path d="M-65.65 82.4 L48.25 82.35 48.25 82.8 -65.65 82.8 -65.65 82.4" fill="#0562d1" fill-rule="evenodd" stroke="none"/>
  </g>
</svg>
