<?xml version="1.0" encoding="UTF-8" standalone="no"?>
<svg xmlns:ffdec="https://www.free-decompiler.com/flash" xmlns:xlink="http://www.w3.org/1999/xlink" ffdec:objectType="shape" height="31.55px" width="92.25px" xmlns="http://www.w3.org/2000/svg">
  <g transform="matrix(1.0, 0.0, 0.0, 1.0, 0.0, -1.65)">
    <path d="M16.05 6.5 Q16.3 5.25 17.15 4.6 L18.7 3.35 Q19.55 2.65 21.0 2.15 22.4 1.65 23.5 1.65 L68.75 1.65 Q69.85 1.65 71.25 2.25 72.6 2.85 73.35 3.6 L74.15 4.35 Q74.9 5.15 75.1 6.4 75.3 7.65 74.8 8.65 L64.05 29.4 62.4 31.05 Q61.25 31.75 60.15 31.75 L31.9 31.75 Q30.8 31.75 29.6 31.05 28.45 30.35 27.9 29.45 L16.35 8.65 Q15.8 7.65 16.05 6.5" fill="url(#gradient0)" fill-rule="evenodd" stroke="none"/>
    <path d="M23.0 6.45 L23.8 5.65 Q24.6 4.9 25.95 4.3 27.3 3.8 28.4 3.8 L29.95 3.8 Q32.65 3.8 33.9 4.35 35.15 4.95 37.8 4.95 L52.65 4.95 54.95 4.75 56.7 4.35 Q58.15 3.8 60.75 3.8 L63.6 3.8 Q64.7 3.8 66.0 4.4 67.3 5.0 68.0 5.9 L68.3 6.25 Q69.0 7.1 69.1 8.4 69.2 9.7 68.75 10.75 L60.65 26.35 Q60.15 27.35 58.95 28.05 57.8 28.75 56.65 28.75 L55.35 28.75 51.9 28.25 Q51.15 27.7 48.4 27.7 L43.2 27.7 Q40.45 27.7 39.6 28.25 L36.0 28.75 35.15 28.75 Q34.05 28.75 32.85 28.1 31.7 27.4 31.15 26.4 L22.4 10.7 Q21.9 9.7 22.05 8.45 22.25 7.2 23.0 6.45" fill="#2b2b2a" fill-rule="evenodd" stroke="none"/>
    <path d="M29.95 6.75 Q28.6 7.15 27.8 7.8 27.05 8.35 26.9 9.55 26.7 10.65 27.25 11.65 L33.9 23.6 Q34.45 24.55 35.6 25.25 36.8 25.95 37.9 25.95 L54.45 25.95 Q55.6 25.95 56.7 25.25 57.9 24.5 58.4 23.55 L64.55 11.65 Q65.05 10.65 65.0 9.55 64.9 8.35 64.25 7.8 63.65 7.15 62.45 6.75 L60.1 6.3 32.4 6.3 29.95 6.75 M26.45 12.05 Q25.7 10.8 25.95 9.35 26.2 7.9 27.25 7.05 28.15 6.35 29.6 5.9 31.1 5.4 32.4 5.4 L60.1 5.4 62.8 5.9 64.9 7.15 Q65.75 7.95 65.85 9.4 66.0 10.85 65.35 12.1 L59.2 23.95 Q58.55 25.15 57.15 26.0 55.8 26.85 54.45 26.85 L37.9 26.85 Q36.55 26.85 35.15 26.05 33.75 25.2 33.1 24.05 L26.45 12.05" fill="#894502" fill-rule="evenodd" stroke="none"/>
    <path d="M29.95 6.75 L32.4 6.3 60.1 6.3 62.45 6.75 Q63.65 7.15 64.25 7.8 64.9 8.35 65.0 9.55 65.05 10.65 64.55 11.65 L58.4 23.55 Q57.9 24.5 56.7 25.25 55.6 25.95 54.45 25.95 L37.9 25.95 Q36.8 25.95 35.6 25.25 34.45 24.55 33.9 23.6 L27.25 11.65 Q26.7 10.65 26.9 9.55 27.05 8.35 27.8 7.8 28.6 7.15 29.95 6.75" fill="url(#gradient1)" fill-rule="evenodd" stroke="none"/>
    <path d="M89.75 32.8 L86.5 33.05 Q84.1 31.65 77.05 29.35 75.1 28.75 76.25 26.65 77.35 24.6 79.9 25.4 88.65 28.35 92.2 31.35 92.5 32.15 89.75 32.8" fill="url(#gradient2)" fill-rule="evenodd" stroke="none"/>
    <path d="M2.5 32.8 L5.75 33.05 Q8.15 31.65 15.2 29.35 17.15 28.75 16.0 26.65 14.9 24.6 12.35 25.4 3.6 28.35 0.05 31.35 -0.25 32.15 2.5 32.8" fill="url(#gradient3)" fill-rule="evenodd" stroke="none"/>
    <path d="M25.8 30.05 L23.45 31.35 18.75 30.05 14.15 21.8 15.45 17.1 Q16.6 16.4 17.8 15.75 L25.8 30.05" fill="url(#gradient4)" fill-rule="evenodd" stroke="none"/>
    <path d="M15.6 29.9 L12.65 24.55 15.0 23.25 18.0 28.6 15.6 29.9" fill="#333333" fill-rule="evenodd" stroke="none"/>
    <path d="M68.45 31.35 L66.1 30.05 74.1 15.75 76.45 17.1 77.75 21.8 73.15 30.05 68.45 31.35" fill="url(#gradient5)" fill-rule="evenodd" stroke="none"/>
    <path d="M76.3 29.9 L73.9 28.6 76.9 23.25 79.25 24.55 76.3 29.9" fill="#333333" fill-rule="evenodd" stroke="none"/>
    <path d="M60.0 20.3 Q60.2 20.85 59.9 21.4 L59.05 22.05 58.0 21.9 Q57.5 21.65 57.3 21.05 57.15 20.5 57.45 20.0 57.7 19.5 58.25 19.3 L59.35 19.45 Q59.85 19.7 60.0 20.3" fill="#ffe100" fill-rule="evenodd" stroke="none"/>
    <path d="M58.65 20.7 L55.05 17.1" ffdec:has-small-stroke="true" ffdec:original-stroke-width="0.5" fill="none" stroke="#ff8700" stroke-linecap="butt" stroke-linejoin="miter-clip" stroke-miterlimit="4.0" stroke-width="1.0"/>
    <path d="M55.05 17.1 L47.45 17.65" ffdec:has-small-stroke="true" ffdec:original-stroke-width="0.5" fill="none" stroke="#ff8700" stroke-linecap="butt" stroke-linejoin="miter-clip" stroke-miterlimit="4.0" stroke-width="1.0"/>
    <path d="M32.35 20.3 Q32.5 19.7 33.0 19.45 L34.1 19.3 Q34.7 19.5 34.95 20.0 35.2 20.5 35.05 21.05 34.9 21.65 34.35 21.9 L33.3 22.05 32.45 21.4 Q32.15 20.85 32.35 20.3" fill="#ffe100" fill-rule="evenodd" stroke="none"/>
    <path d="M33.7 20.7 L37.3 17.1" ffdec:has-small-stroke="true" ffdec:original-stroke-width="0.5" fill="none" stroke="#ff8700" stroke-linecap="butt" stroke-linejoin="miter-clip" stroke-miterlimit="4.0" stroke-width="1.0"/>
    <path d="M37.3 17.1 L44.9 17.65" ffdec:has-small-stroke="true" ffdec:original-stroke-width="0.5" fill="none" stroke="#ff8700" stroke-linecap="butt" stroke-linejoin="miter-clip" stroke-miterlimit="4.0" stroke-width="1.0"/>
    <path d="M38.2 8.95 Q38.2 9.55 37.8 9.95 37.4 10.4 36.8 10.4 36.2 10.4 35.8 9.95 35.35 9.55 35.35 8.95 35.35 8.35 35.8 7.95 36.2 7.55 36.8 7.55 37.4 7.55 37.8 7.95 38.2 8.35 38.2 8.95" fill="#ffe100" fill-rule="evenodd" stroke="none"/>
    <path d="M36.8 8.95 L37.65 13.1" ffdec:has-small-stroke="true" ffdec:original-stroke-width="0.5" fill="none" stroke="#ff8700" stroke-linecap="butt" stroke-linejoin="miter-clip" stroke-miterlimit="4.0" stroke-width="1.0"/>
    <path d="M37.65 13.1 L43.9 15.1" ffdec:has-small-stroke="true" ffdec:original-stroke-width="0.5" fill="none" stroke="#ff8700" stroke-linecap="butt" stroke-linejoin="miter-clip" stroke-miterlimit="4.0" stroke-width="1.0"/>
    <path d="M54.5 8.95 Q54.5 8.35 54.95 7.95 55.4 7.55 55.95 7.55 56.55 7.55 56.95 7.95 57.4 8.35 57.4 8.95 57.4 9.55 56.95 9.95 56.55 10.4 55.95 10.4 55.4 10.4 54.95 9.95 54.5 9.55 54.5 8.95" fill="#ffe100" fill-rule="evenodd" stroke="none"/>
    <path d="M55.95 8.95 L55.1 13.1" ffdec:has-small-stroke="true" ffdec:original-stroke-width="0.5" fill="none" stroke="#ff8700" stroke-linecap="butt" stroke-linejoin="miter-clip" stroke-miterlimit="4.0" stroke-width="1.0"/>
    <path d="M55.1 13.1 L48.85 15.1" ffdec:has-small-stroke="true" ffdec:original-stroke-width="0.5" fill="none" stroke="#ff8700" stroke-linecap="butt" stroke-linejoin="miter-clip" stroke-miterlimit="4.0" stroke-width="1.0"/>
    <path d="M43.7 8.25 L44.1 9.35 44.3 10.55 Q43.0 10.95 41.5 12.6 L39.75 14.55 39.7 11.5 Q39.7 8.4 43.7 8.25 M47.7 13.45 L47.25 12.6 48.65 12.45 50.4 12.65 50.6 12.85 50.3 13.9 49.6 14.3 47.7 13.45" fill="#ffa100" fill-rule="evenodd" stroke="none"/>
    <path d="M44.3 10.55 L44.1 9.35 43.7 8.25 Q46.0 8.4 47.9 10.0 L50.4 12.65 48.65 12.45 47.25 12.6 47.7 13.45 46.55 12.55 44.3 10.55" fill="#ff6d00" fill-rule="evenodd" stroke="none"/>
    <path d="M44.3 10.55 L46.55 12.55 47.7 13.45 49.6 14.3 50.55 14.8 49.65 17.7 Q48.65 20.2 47.7 20.8 L47.45 19.15 47.1 17.45 Q48.0 16.6 48.35 15.65 47.0 13.3 44.95 11.8 L43.95 11.85 Q43.3 12.0 43.1 12.25 L42.15 14.4 Q41.15 16.25 40.35 18.4 L40.1 16.5 39.75 14.55 41.5 12.6 Q43.0 10.95 44.3 10.55" fill="#db4200" fill-rule="evenodd" stroke="none"/>
    <path d="M43.1 12.25 Q43.3 12.0 43.95 11.85 L44.95 11.8 45.8 13.95 46.6 16.45 46.0 16.25 Q46.0 15.4 45.3 14.2 L44.3 12.5 43.7 12.25 Q43.05 13.85 44.55 16.15 45.6 17.85 46.6 18.55 L46.6 19.75 46.0 20.25 44.85 17.5 44.85 17.45 44.35 16.9 44.3 16.85 43.6 14.55 43.1 12.25" fill="#ff9300" fill-rule="evenodd" stroke="none"/>
    <path d="M47.1 17.45 L47.45 19.15 47.7 20.8 Q48.65 20.2 49.65 17.7 L50.55 14.8 49.6 14.3 50.3 13.9 50.6 12.85 51.55 14.55 51.7 16.85 52.05 17.7 52.3 18.55 Q50.5 22.2 50.6 22.5 L49.4 22.05 48.3 22.5 Q47.35 23.75 46.0 23.75 L44.85 23.7 44.95 23.4 Q46.2 21.5 47.2 20.75 L46.9 19.85 46.6 19.75 46.6 18.55 46.3 17.5 46.0 16.25 46.6 16.45 47.1 17.45 M44.3 16.85 L44.35 16.9 44.85 17.45 44.85 17.5 Q45.65 19.95 45.3 21.45 L46.0 20.25 Q46.0 21.15 45.3 21.85 44.65 22.5 43.7 22.5 L43.6 22.5 Q42.85 22.45 42.3 21.35 41.7 20.15 41.7 18.45 L44.3 16.85" fill="#ea6a00" fill-rule="evenodd" stroke="none"/>
    <path d="M44.95 11.8 Q47.0 13.3 48.35 15.65 48.0 16.6 47.1 17.45 L46.6 16.45 45.8 13.95 44.95 11.8 M40.3 20.25 L40.35 18.4 Q41.15 16.25 42.15 14.4 L43.1 12.25 43.6 14.55 44.3 16.85 41.7 18.45 Q41.7 20.15 42.3 21.35 42.85 22.45 43.6 22.5 42.5 22.5 41.7 21.85 40.8 21.15 40.3 20.25" fill="#e44400" fill-rule="evenodd" stroke="none"/>
    <path d="M46.0 16.25 L46.3 17.5 46.6 18.55 Q45.6 17.85 44.55 16.15 43.05 13.85 43.7 12.25 L44.3 12.5 45.3 14.2 Q46.0 15.4 46.0 16.25" fill="#ffcc00" fill-rule="evenodd" stroke="none"/>
    <path d="M52.3 18.55 Q51.65 22.85 51.25 23.25 50.3 24.3 45.35 24.3 40.85 24.3 40.3 20.25 40.8 21.15 41.7 21.85 42.5 22.5 43.6 22.5 L43.7 22.5 Q44.65 22.5 45.3 21.85 46.0 21.15 46.0 20.25 L45.3 21.45 Q45.65 19.95 44.85 17.5 L46.0 20.25 46.6 19.75 46.9 19.85 47.2 20.75 Q46.2 21.5 44.95 23.4 L44.85 23.7 46.0 23.75 Q47.35 23.75 48.3 22.5 L49.4 22.05 50.6 22.5 Q50.5 22.2 52.3 18.55" fill="#f69400" fill-rule="evenodd" stroke="none"/>
  </g>
  <defs>
    <linearGradient gradientTransform="matrix(0.0, 0.0184, 0.0184, 0.0, 45.55, 16.75)" gradientUnits="userSpaceOnUse" id="gradient0" spreadMethod="pad" x1="-819.2" x2="819.2">
      <stop offset="0.0" stop-color="#373737"/>
      <stop offset="0.6549019607843137" stop-color="#a4a4a4"/>
      <stop offset="0.803921568627451" stop-color="#a4a4a4"/>
      <stop offset="1.0" stop-color="#6b6b6b"/>
    </linearGradient>
    <linearGradient gradientTransform="matrix(0.0, 0.012, 0.012, 0.0, 45.9, 16.1)" gradientUnits="userSpaceOnUse" id="gradient1" spreadMethod="pad" x1="-819.2" x2="819.2">
      <stop offset="0.0" stop-color="#aa6609"/>
      <stop offset="1.0" stop-color="#aa6e09"/>
    </linearGradient>
    <linearGradient gradientTransform="matrix(-0.0016, 0.004, -0.0094, -0.0039, 118.25, 43.85)" gradientUnits="userSpaceOnUse" id="gradient2" spreadMethod="pad" x1="-819.2" x2="819.2">
      <stop offset="0.0" stop-color="#505050"/>
      <stop offset="0.09803921568627451" stop-color="#373737"/>
      <stop offset="0.5254901960784314" stop-color="#6e6861"/>
      <stop offset="0.8862745098039215" stop-color="#3d3d3d"/>
      <stop offset="1.0" stop-color="#505050"/>
    </linearGradient>
    <linearGradient gradientTransform="matrix(0.0016, 0.004, 0.0094, -0.0039, -26.0, 43.85)" gradientUnits="userSpaceOnUse" id="gradient3" spreadMethod="pad" x1="-819.2" x2="819.2">
      <stop offset="0.0" stop-color="#505050"/>
      <stop offset="0.09803921568627451" stop-color="#373737"/>
      <stop offset="0.5254901960784314" stop-color="#6e6861"/>
      <stop offset="0.8862745098039215" stop-color="#3d3d3d"/>
      <stop offset="1.0" stop-color="#505050"/>
    </linearGradient>
    <linearGradient gradientTransform="matrix(-0.0052, -0.0086, -0.0086, 0.0052, 19.2, 24.45)" gradientUnits="userSpaceOnUse" id="gradient4" spreadMethod="pad" x1="-819.2" x2="819.2">
      <stop offset="0.0" stop-color="#505050"/>
      <stop offset="0.09803921568627451" stop-color="#373737"/>
      <stop offset="0.5254901960784314" stop-color="#6e6963"/>
      <stop offset="0.8862745098039215" stop-color="#3d3d3d"/>
      <stop offset="1.0" stop-color="#505050"/>
    </linearGradient>
    <linearGradient gradientTransform="matrix(-0.0056, 0.0084, 0.0084, 0.0056, 72.6, 24.45)" gradientUnits="userSpaceOnUse" id="gradient5" spreadMethod="pad" x1="-819.2" x2="819.2">
      <stop offset="0.0" stop-color="#505050"/>
      <stop offset="0.09803921568627451" stop-color="#373737"/>
      <stop offset="0.5254901960784314" stop-color="#6e6963"/>
      <stop offset="0.8862745098039215" stop-color="#3d3d3d"/>
      <stop offset="1.0" stop-color="#505050"/>
    </linearGradient>
  </defs>
</svg>
