<?xml version="1.0" encoding="UTF-8" standalone="no"?>
<svg xmlns:ffdec="https://www.free-decompiler.com/flash" xmlns:xlink="http://www.w3.org/1999/xlink" ffdec:objectType="shape" height="33.45px" width="92.25px" xmlns="http://www.w3.org/2000/svg">
  <g transform="matrix(1.0, 0.0, 0.0, 1.0, 0.0, 0.0)">
    <path d="M12.75 5.35 Q13.05 4.0 14.0 3.25 L15.7 1.9 Q16.65 1.1 18.25 0.55 19.8 0.0 21.05 0.0 L71.35 0.0 Q72.55 0.0 74.1 0.65 75.6 1.3 76.45 2.15 L77.3 3.0 Q78.15 3.85 78.4 5.25 78.6 6.65 78.05 7.75 L66.1 30.8 Q65.55 31.9 64.25 32.65 63.0 33.45 61.75 33.45 L30.4 33.45 Q29.15 33.45 27.85 32.65 26.55 31.9 25.95 30.85 L13.1 7.75 Q12.5 6.65 12.75 5.35" fill="url(#gradient0)" fill-rule="evenodd" stroke="none"/>
    <path d="M20.5 5.3 L21.4 4.45 23.75 2.95 Q25.25 2.35 26.5 2.35 L28.2 2.35 Q31.2 2.35 32.6 3.0 34.0 3.65 36.95 3.65 L53.45 3.65 56.0 3.45 57.95 3.0 Q59.55 2.35 62.45 2.35 L65.6 2.35 Q66.85 2.35 68.25 3.05 69.7 3.7 70.5 4.7 L70.8 5.1 Q71.6 6.05 71.7 7.5 71.85 8.95 71.3 10.1 L62.3 27.45 Q61.75 28.55 60.45 29.3 59.15 30.1 57.9 30.1 L56.45 30.1 Q53.5 30.1 52.6 29.55 51.75 28.95 48.7 28.95 L42.95 28.95 Q39.9 28.95 38.95 29.55 37.95 30.1 34.95 30.1 L34.0 30.1 Q32.75 30.1 31.45 29.35 30.15 28.6 29.55 27.5 L19.85 10.05 Q19.25 8.95 19.45 7.55 19.65 6.15 20.5 5.3" fill="#2b2b2a" fill-rule="evenodd" stroke="none"/>
    <path d="M24.3 11.55 Q23.5 10.15 23.75 8.55 24.05 6.95 25.2 6.0 26.2 5.2 27.85 4.7 29.5 4.15 30.95 4.15 L61.7 4.15 Q63.15 4.15 64.7 4.7 L67.05 6.1 Q68.0 7.0 68.1 8.6 68.25 10.2 67.55 11.6 L60.7 24.75 Q60.0 26.1 58.45 27.05 56.95 28.0 55.45 28.0 L37.05 28.0 Q35.55 28.0 34.0 27.1 32.45 26.15 31.7 24.85 L24.3 11.55 M28.2 5.65 Q26.7 6.1 25.85 6.8 25.0 7.45 24.8 8.75 24.6 10.0 25.2 11.1 L32.6 24.35 Q33.2 25.45 34.5 26.2 35.8 27.0 37.05 27.0 L55.45 27.0 Q56.7 27.0 57.95 26.2 59.25 25.4 59.8 24.3 L66.65 11.1 Q67.2 10.0 67.15 8.75 67.05 7.45 66.35 6.8 65.65 6.1 64.3 5.65 62.95 5.15 61.7 5.15 L30.95 5.15 Q29.7 5.15 28.2 5.65" fill="#894502" fill-rule="evenodd" stroke="none"/>
    <path d="M28.2 5.65 Q29.7 5.15 30.95 5.15 L61.7 5.15 Q62.95 5.15 64.3 5.65 65.65 6.1 66.35 6.8 67.05 7.45 67.15 8.75 67.2 10.0 66.65 11.1 L59.8 24.3 Q59.25 25.4 57.95 26.2 56.7 27.0 55.45 27.0 L37.05 27.0 Q35.8 27.0 34.5 26.2 33.2 25.45 32.6 24.35 L25.2 11.1 Q24.6 10.0 24.8 8.75 25.0 7.45 25.85 6.8 26.7 6.1 28.2 5.65" fill="url(#gradient1)" fill-rule="evenodd" stroke="none"/>
    <path d="M89.75 32.8 L86.5 33.05 Q84.1 31.65 77.05 29.35 75.1 28.75 76.25 26.65 77.35 24.6 79.9 25.4 88.65 28.35 92.2 31.35 92.5 32.15 89.75 32.8" fill="url(#gradient2)" fill-rule="evenodd" stroke="none"/>
    <path d="M2.5 32.8 L5.75 33.05 Q8.15 31.65 15.2 29.35 17.15 28.75 16.0 26.65 14.9 24.6 12.35 25.4 3.6 28.35 0.05 31.35 -0.25 32.15 2.5 32.8" fill="url(#gradient3)" fill-rule="evenodd" stroke="none"/>
    <path d="M25.8 30.05 L23.45 31.35 18.75 30.05 14.15 21.8 15.45 17.1 Q16.6 16.4 17.8 15.75 L25.8 30.05" fill="url(#gradient4)" fill-rule="evenodd" stroke="none"/>
    <path d="M15.6 29.9 L12.65 24.55 15.0 23.25 18.0 28.6 15.6 29.9" fill="#333333" fill-rule="evenodd" stroke="none"/>
    <path d="M68.45 31.35 L66.1 30.05 74.1 15.75 76.45 17.1 77.75 21.8 73.15 30.05 68.45 31.35" fill="url(#gradient5)" fill-rule="evenodd" stroke="none"/>
    <path d="M76.3 29.9 L73.9 28.6 76.9 23.25 79.25 24.55 76.3 29.9" fill="#333333" fill-rule="evenodd" stroke="none"/>
    <path d="M42.55 14.95 Q42.95 14.55 43.1 14.5 43.5 14.35 44.0 14.95 L44.5 15.9 44.6 16.9 Q43.0 16.9 42.65 15.8 42.45 15.4 42.55 15.0 L42.55 14.95" fill="#e44400" fill-rule="evenodd" stroke="none"/>
    <path d="M36.4 12.4 L42.65 12.35 41.95 13.9 36.4 12.4" fill="#ea6a00" fill-rule="evenodd" stroke="none"/>
    <path d="M41.0 7.4 L43.5 11.0 43.0 10.95 41.0 7.4" fill="#ea6a00" fill-rule="evenodd" stroke="none"/>
    <path d="M44.55 10.75 L46.45 10.75 49.15 6.85 49.65 6.75 49.95 7.4 47.5 11.0 50.15 10.95 50.2 11.55 54.6 12.4 48.35 12.35 49.05 13.9 49.05 15.5 Q48.95 17.25 46.4 17.15 L46.4 16.9 Q47.95 16.9 48.35 15.8 L48.45 15.0 Q48.75 15.2 48.45 14.55 48.25 14.05 47.55 14.15 L46.55 15.1 45.5 11.4 44.4 15.1 43.4 14.15 Q42.75 14.05 42.5 14.55 42.2 15.2 42.55 15.0 42.45 15.4 42.65 15.8 43.0 16.9 44.6 16.9 L44.6 17.15 Q42.0 17.25 41.95 15.5 L41.95 13.9 42.65 12.35 36.4 12.4 40.75 11.55 40.85 10.95 43.5 11.0 41.0 7.4 41.3 6.75 41.85 6.85 44.55 10.75" fill="#f69400" fill-rule="evenodd" stroke="none"/>
    <path d="M45.5 12.85 L44.6 14.35 45.5 11.4 46.35 14.35 45.5 12.85" fill="#ff6d00" fill-rule="evenodd" stroke="none"/>
    <path d="M47.0 14.95 Q47.5 14.35 47.9 14.5 L48.4 14.95 48.45 15.0 48.35 15.8 Q47.95 16.9 46.4 16.9 L46.5 15.9 Q46.6 15.45 47.0 14.95" fill="#e44400" fill-rule="evenodd" stroke="none"/>
    <path d="M49.05 13.9 L48.35 12.35 54.6 12.4 49.05 13.9" fill="#ea6a00" fill-rule="evenodd" stroke="none"/>
    <path d="M48.0 10.95 L47.5 11.0 49.95 7.4 48.0 10.95" fill="#ea6a00" fill-rule="evenodd" stroke="none"/>
    <path d="M47.9 14.5 Q47.5 14.35 47.0 14.95 46.6 15.45 46.5 15.9 L46.4 16.9 46.35 17.6 Q46.2 18.7 45.5 18.95 44.8 18.7 44.6 17.6 L44.6 16.9 44.5 15.9 44.0 14.95 Q43.5 14.35 43.1 14.5 42.95 14.55 42.55 14.95 L42.55 15.0 Q42.2 15.2 42.5 14.55 42.75 14.05 43.4 14.15 L44.4 15.1 44.6 14.35 45.5 12.85 46.35 14.35 46.55 15.1 47.55 14.15 Q48.25 14.05 48.45 14.55 48.75 15.2 48.45 15.0 L48.4 14.95 47.9 14.5" fill="#ffcc00" fill-rule="evenodd" stroke="none"/>
    <path d="M37.5 23.8 L37.8 23.55 Q38.05 23.45 38.35 23.8 L38.65 24.4 38.7 24.95 Q37.75 24.95 37.55 24.35 L37.5 23.85 37.5 23.8" fill="#e44400" fill-rule="evenodd" stroke="none"/>
    <path d="M33.85 22.3 L37.55 22.3 37.1 23.2 33.85 22.3" fill="#ea6a00" fill-rule="evenodd" stroke="none"/>
    <path d="M36.55 19.35 L38.05 21.5 37.75 21.45 36.55 19.35" fill="#ea6a00" fill-rule="evenodd" stroke="none"/>
    <path d="M38.7 21.35 L39.8 21.35 41.4 19.05 41.7 19.0 41.9 19.35 40.45 21.5 42.0 21.45 42.05 21.8 44.65 22.3 40.95 22.3 41.35 23.2 41.35 24.15 Q41.3 25.2 39.75 25.1 L39.8 24.95 Q40.7 24.95 40.95 24.35 L41.0 23.85 Q41.2 23.95 41.0 23.6 40.85 23.3 40.45 23.35 L39.85 23.9 39.25 21.75 38.6 23.9 38.0 23.35 Q37.6 23.3 37.45 23.6 37.3 23.95 37.5 23.85 L37.55 24.35 Q37.75 24.95 38.7 24.95 L38.7 25.1 Q37.15 25.2 37.1 24.15 L37.1 23.2 37.55 22.3 33.85 22.3 36.45 21.8 36.45 21.45 38.05 21.5 36.55 19.35 36.75 19.0 37.05 19.05 38.7 21.35" fill="#f69400" fill-rule="evenodd" stroke="none"/>
    <path d="M39.25 22.6 L38.7 23.45 39.25 21.75 39.75 23.45 39.25 22.6" fill="#ff6d00" fill-rule="evenodd" stroke="none"/>
    <path d="M40.15 23.8 Q40.45 23.45 40.65 23.55 L40.95 23.8 41.0 23.85 40.95 24.35 Q40.7 24.95 39.8 24.95 L39.8 24.4 40.15 23.8" fill="#e44400" fill-rule="evenodd" stroke="none"/>
    <path d="M41.35 23.2 L40.95 22.3 44.65 22.3 41.35 23.2" fill="#ea6a00" fill-rule="evenodd" stroke="none"/>
    <path d="M40.75 21.45 L40.45 21.5 41.9 19.35 40.75 21.45" fill="#ea6a00" fill-rule="evenodd" stroke="none"/>
    <path d="M40.65 23.55 Q40.45 23.45 40.15 23.8 L39.8 24.4 39.8 24.95 39.75 25.35 Q39.65 26.05 39.25 26.2 38.85 26.05 38.7 25.35 L38.7 24.95 38.65 24.4 38.35 23.8 Q38.05 23.45 37.8 23.55 L37.5 23.8 37.5 23.85 Q37.3 23.95 37.45 23.6 37.6 23.3 38.0 23.35 L38.6 23.9 38.7 23.45 39.25 22.6 39.75 23.45 39.85 23.9 40.45 23.35 Q40.85 23.3 41.0 23.6 41.2 23.95 41.0 23.85 L40.95 23.8 40.65 23.55" fill="#ffcc00" fill-rule="evenodd" stroke="none"/>
    <path d="M50.75 23.8 L51.05 23.55 Q51.3 23.45 51.6 23.8 L51.9 24.4 51.95 24.95 Q51.0 24.95 50.8 24.35 L50.75 23.85 50.75 23.8" fill="#e44400" fill-rule="evenodd" stroke="none"/>
    <path d="M47.1 22.3 L50.8 22.3 50.35 23.2 47.1 22.3" fill="#ea6a00" fill-rule="evenodd" stroke="none"/>
    <path d="M49.8 19.35 L51.3 21.5 51.0 21.45 49.8 19.35" fill="#ea6a00" fill-rule="evenodd" stroke="none"/>
    <path d="M51.95 21.35 L53.05 21.35 54.65 19.05 54.95 19.0 55.15 19.35 53.7 21.5 55.25 21.45 55.3 21.8 57.9 22.3 54.2 22.3 54.6 23.2 54.6 24.15 Q54.55 25.2 53.0 25.1 L53.05 24.95 Q53.95 24.95 54.2 24.35 L54.25 23.85 Q54.45 23.95 54.25 23.6 54.1 23.3 53.7 23.35 L53.1 23.9 52.5 21.75 51.85 23.9 51.25 23.35 Q50.85 23.3 50.7 23.6 50.55 23.95 50.75 23.85 L50.8 24.35 Q51.0 24.95 51.95 24.95 L51.95 25.1 Q50.4 25.2 50.35 24.15 L50.35 23.2 50.8 22.3 47.1 22.3 49.7 21.8 49.7 21.45 51.3 21.5 49.8 19.35 50.0 19.0 50.3 19.05 51.95 21.35" fill="#f69400" fill-rule="evenodd" stroke="none"/>
    <path d="M52.5 22.6 L51.95 23.45 52.5 21.75 53.0 23.45 52.5 22.6" fill="#ff6d00" fill-rule="evenodd" stroke="none"/>
    <path d="M53.4 23.8 Q53.7 23.45 53.9 23.55 L54.2 23.8 54.25 23.85 54.2 24.35 Q53.95 24.95 53.05 24.95 L53.05 24.4 53.4 23.8" fill="#e44400" fill-rule="evenodd" stroke="none"/>
    <path d="M54.6 23.2 L54.2 22.3 57.9 22.3 54.6 23.2" fill="#ea6a00" fill-rule="evenodd" stroke="none"/>
    <path d="M54.0 21.45 L53.7 21.5 55.15 19.35 54.0 21.45" fill="#ea6a00" fill-rule="evenodd" stroke="none"/>
    <path d="M53.9 23.55 Q53.7 23.45 53.4 23.8 L53.05 24.4 53.05 24.95 53.0 25.35 Q52.9 26.05 52.5 26.2 52.1 26.05 51.95 25.35 L51.95 24.95 51.9 24.4 51.6 23.8 Q51.3 23.45 51.05 23.55 L50.75 23.8 50.75 23.85 Q50.55 23.95 50.7 23.6 50.85 23.3 51.25 23.35 L51.85 23.9 51.95 23.45 52.5 22.6 53.0 23.45 53.1 23.9 53.7 23.35 Q54.1 23.3 54.25 23.6 54.45 23.95 54.25 23.85 L54.2 23.8 53.9 23.55" fill="#ffcc00" fill-rule="evenodd" stroke="none"/>
  </g>
  <defs>
    <linearGradient gradientTransform="matrix(0.0, 0.0204, 0.0204, 0.0, 45.55, 16.75)" gradientUnits="userSpaceOnUse" id="gradient0" spreadMethod="pad" x1="-819.2" x2="819.2">
      <stop offset="0.0" stop-color="#373737"/>
      <stop offset="0.6549019607843137" stop-color="#a4a4a4"/>
      <stop offset="0.803921568627451" stop-color="#a4a4a4"/>
      <stop offset="1.0" stop-color="#6b6b6b"/>
    </linearGradient>
    <linearGradient gradientTransform="matrix(0.0, 0.0133, 0.0133, 0.0, 45.95, 16.05)" gradientUnits="userSpaceOnUse" id="gradient1" spreadMethod="pad" x1="-819.2" x2="819.2">
      <stop offset="0.0" stop-color="#aa6609"/>
      <stop offset="1.0" stop-color="#aa6e09"/>
    </linearGradient>
    <linearGradient gradientTransform="matrix(-0.0016, 0.004, -0.0094, -0.0039, 118.25, 43.85)" gradientUnits="userSpaceOnUse" id="gradient2" spreadMethod="pad" x1="-819.2" x2="819.2">
      <stop offset="0.0" stop-color="#505050"/>
      <stop offset="0.09803921568627451" stop-color="#373737"/>
      <stop offset="0.5254901960784314" stop-color="#6e6861"/>
      <stop offset="0.8862745098039215" stop-color="#3d3d3d"/>
      <stop offset="1.0" stop-color="#505050"/>
    </linearGradient>
    <linearGradient gradientTransform="matrix(0.0016, 0.004, 0.0094, -0.0039, -26.0, 43.85)" gradientUnits="userSpaceOnUse" id="gradient3" spreadMethod="pad" x1="-819.2" x2="819.2">
      <stop offset="0.0" stop-color="#505050"/>
      <stop offset="0.09803921568627451" stop-color="#373737"/>
      <stop offset="0.5254901960784314" stop-color="#6e6861"/>
      <stop offset="0.8862745098039215" stop-color="#3d3d3d"/>
      <stop offset="1.0" stop-color="#505050"/>
    </linearGradient>
    <linearGradient gradientTransform="matrix(-0.0052, -0.0086, -0.0086, 0.0052, 19.2, 24.45)" gradientUnits="userSpaceOnUse" id="gradient4" spreadMethod="pad" x1="-819.2" x2="819.2">
      <stop offset="0.0" stop-color="#505050"/>
      <stop offset="0.09803921568627451" stop-color="#373737"/>
      <stop offset="0.5254901960784314" stop-color="#6e6963"/>
      <stop offset="0.8862745098039215" stop-color="#3d3d3d"/>
      <stop offset="1.0" stop-color="#505050"/>
    </linearGradient>
    <linearGradient gradientTransform="matrix(-0.0056, 0.0084, 0.0084, 0.0056, 72.6, 24.45)" gradientUnits="userSpaceOnUse" id="gradient5" spreadMethod="pad" x1="-819.2" x2="819.2">
      <stop offset="0.0" stop-color="#505050"/>
      <stop offset="0.09803921568627451" stop-color="#373737"/>
      <stop offset="0.5254901960784314" stop-color="#6e6963"/>
      <stop offset="0.8862745098039215" stop-color="#3d3d3d"/>
      <stop offset="1.0" stop-color="#505050"/>
    </linearGradient>
  </defs>
</svg>
