<?xml version="1.0" encoding="UTF-8" standalone="no"?>
<svg xmlns:ffdec="https://www.free-decompiler.com/flash" xmlns:xlink="http://www.w3.org/1999/xlink" ffdec:objectType="shape" height="31.55px" width="92.25px" xmlns="http://www.w3.org/2000/svg">
  <g transform="matrix(1.0, 0.0, 0.0, 1.0, 0.0, -1.65)">
    <path d="M16.05 6.5 Q16.3 5.25 17.15 4.6 L18.7 3.35 Q19.55 2.65 21.0 2.15 22.4 1.65 23.5 1.65 L68.75 1.65 Q69.85 1.65 71.25 2.25 72.6 2.85 73.35 3.6 L74.15 4.35 Q74.9 5.15 75.1 6.4 75.3 7.65 74.8 8.65 L64.05 29.4 62.4 31.05 Q61.25 31.75 60.15 31.75 L31.9 31.75 Q30.8 31.75 29.6 31.05 28.45 30.35 27.9 29.45 L16.35 8.65 Q15.8 7.65 16.05 6.5" fill="url(#gradient0)" fill-rule="evenodd" stroke="none"/>
    <path d="M23.0 6.45 L23.8 5.65 Q24.6 4.9 25.95 4.3 27.3 3.8 28.4 3.8 L29.95 3.8 Q32.65 3.8 33.9 4.35 35.15 4.95 37.8 4.95 L52.65 4.95 54.95 4.75 56.7 4.35 Q58.15 3.8 60.75 3.8 L63.6 3.8 Q64.7 3.8 66.0 4.4 67.3 5.0 68.0 5.9 L68.3 6.25 Q69.0 7.1 69.1 8.4 69.2 9.7 68.75 10.75 L60.65 26.35 Q60.15 27.35 58.95 28.05 57.8 28.75 56.65 28.75 L55.35 28.75 51.9 28.25 Q51.15 27.7 48.4 27.7 L43.2 27.7 Q40.45 27.7 39.6 28.25 L36.0 28.75 35.15 28.75 Q34.05 28.75 32.85 28.1 31.7 27.4 31.15 26.4 L22.4 10.7 Q21.9 9.7 22.05 8.45 22.25 7.2 23.0 6.45" fill="#2b2b2a" fill-rule="evenodd" stroke="none"/>
    <path d="M29.95 6.75 Q28.6 7.15 27.8 7.8 27.05 8.35 26.9 9.55 26.7 10.65 27.25 11.65 L33.9 23.6 Q34.45 24.55 35.6 25.25 36.8 25.95 37.9 25.95 L54.45 25.95 Q55.6 25.95 56.7 25.25 57.9 24.5 58.4 23.55 L64.55 11.65 Q65.05 10.65 65.0 9.55 64.9 8.35 64.25 7.8 63.65 7.15 62.45 6.75 L60.1 6.3 32.4 6.3 29.95 6.75 M26.45 12.05 Q25.7 10.8 25.95 9.35 26.2 7.9 27.25 7.05 28.15 6.35 29.6 5.9 31.1 5.4 32.4 5.4 L60.1 5.4 62.8 5.9 64.9 7.15 Q65.75 7.95 65.85 9.4 66.0 10.85 65.35 12.1 L59.2 23.95 Q58.55 25.15 57.15 26.0 55.8 26.85 54.45 26.85 L37.9 26.85 Q36.55 26.85 35.15 26.05 33.75 25.2 33.1 24.05 L26.45 12.05" fill="#894502" fill-rule="evenodd" stroke="none"/>
    <path d="M29.95 6.75 L32.4 6.3 60.1 6.3 62.45 6.75 Q63.65 7.15 64.25 7.8 64.9 8.35 65.0 9.55 65.05 10.65 64.55 11.65 L58.4 23.55 Q57.9 24.5 56.7 25.25 55.6 25.95 54.45 25.95 L37.9 25.95 Q36.8 25.95 35.6 25.25 34.45 24.55 33.9 23.6 L27.25 11.65 Q26.7 10.65 26.9 9.55 27.05 8.35 27.8 7.8 28.6 7.15 29.95 6.75" fill="url(#gradient1)" fill-rule="evenodd" stroke="none"/>
    <path d="M89.75 32.8 L86.5 33.05 Q84.1 31.65 77.05 29.35 75.1 28.75 76.25 26.65 77.35 24.6 79.9 25.4 88.65 28.35 92.2 31.35 92.5 32.15 89.75 32.8" fill="url(#gradient2)" fill-rule="evenodd" stroke="none"/>
    <path d="M2.5 32.8 L5.75 33.05 Q8.15 31.65 15.2 29.35 17.15 28.75 16.0 26.65 14.9 24.6 12.35 25.4 3.6 28.35 0.05 31.35 -0.25 32.15 2.5 32.8" fill="url(#gradient3)" fill-rule="evenodd" stroke="none"/>
    <path d="M25.8 30.05 L23.45 31.35 18.75 30.05 14.15 21.8 15.45 17.1 Q16.6 16.4 17.8 15.75 L25.8 30.05" fill="url(#gradient4)" fill-rule="evenodd" stroke="none"/>
    <path d="M15.6 29.9 L12.65 24.55 15.0 23.25 18.0 28.6 15.6 29.9" fill="#333333" fill-rule="evenodd" stroke="none"/>
    <path d="M68.45 31.35 L66.1 30.05 74.1 15.75 76.45 17.1 77.75 21.8 73.15 30.05 68.45 31.35" fill="url(#gradient5)" fill-rule="evenodd" stroke="none"/>
    <path d="M76.3 29.9 L73.9 28.6 76.9 23.25 79.25 24.55 76.3 29.9" fill="#333333" fill-rule="evenodd" stroke="none"/>
    <path d="M42.9 15.1 L43.4 14.7 Q43.75 14.55 44.2 15.1 L44.65 15.95 44.75 16.85 Q43.35 16.85 42.95 15.9 L42.9 15.15 42.9 15.1" fill="#e44400" fill-rule="evenodd" stroke="none"/>
    <path d="M37.35 12.8 L42.95 12.75 42.35 14.15 37.35 12.8" fill="#ea6a00" fill-rule="evenodd" stroke="none"/>
    <path d="M41.5 8.3 L43.75 11.55 43.3 11.5 41.5 8.3" fill="#ea6a00" fill-rule="evenodd" stroke="none"/>
    <path d="M44.7 11.3 L46.4 11.3 48.85 7.8 49.3 7.7 49.6 8.3 47.35 11.55 49.75 11.5 49.8 12.0 53.75 12.8 48.1 12.75 48.75 14.15 48.75 15.6 Q48.7 17.15 46.35 17.05 L46.4 16.85 Q47.8 16.85 48.1 15.9 L48.2 15.15 Q48.5 15.3 48.25 14.75 48.05 14.3 47.4 14.4 L46.5 15.2 45.55 11.9 44.6 15.2 43.7 14.4 Q43.1 14.3 42.85 14.75 42.6 15.3 42.9 15.15 L42.95 15.9 Q43.35 16.85 44.75 16.85 L44.75 17.05 Q42.4 17.15 42.35 15.6 L42.35 14.15 42.95 12.75 37.35 12.8 41.3 12.0 41.35 11.5 43.75 11.55 41.5 8.3 41.8 7.7 42.25 7.8 44.7 11.3" fill="#f69400" fill-rule="evenodd" stroke="none"/>
    <path d="M45.55 13.2 L44.75 14.55 45.55 11.9 46.3 14.55 45.55 13.2" fill="#ff6d00" fill-rule="evenodd" stroke="none"/>
    <path d="M46.9 15.1 Q47.35 14.55 47.75 14.7 L48.2 15.1 48.2 15.15 48.1 15.9 Q47.8 16.85 46.4 16.85 L46.45 15.95 46.9 15.1" fill="#e44400" fill-rule="evenodd" stroke="none"/>
    <path d="M48.75 14.15 L48.1 12.75 53.75 12.8 48.75 14.15" fill="#ea6a00" fill-rule="evenodd" stroke="none"/>
    <path d="M47.8 11.5 L47.35 11.55 49.6 8.3 47.8 11.5" fill="#ea6a00" fill-rule="evenodd" stroke="none"/>
    <path d="M47.75 14.7 Q47.35 14.55 46.9 15.1 L46.45 15.95 46.4 16.85 46.3 17.45 Q46.15 18.5 45.55 18.7 44.95 18.5 44.75 17.45 L44.75 16.85 44.65 15.95 44.2 15.1 Q43.75 14.55 43.4 14.7 L42.9 15.1 42.9 15.15 Q42.6 15.3 42.85 14.75 43.1 14.3 43.7 14.4 L44.6 15.2 44.75 14.55 45.55 13.2 46.3 14.55 46.5 15.2 47.4 14.4 Q48.05 14.3 48.25 14.75 48.5 15.3 48.2 15.15 L48.2 15.1 47.75 14.7" fill="#ffcc00" fill-rule="evenodd" stroke="none"/>
    <path d="M38.35 23.05 L38.6 22.85 39.1 23.05 39.35 23.6 39.4 24.1 Q38.6 24.1 38.35 23.55 L38.3 23.1 38.35 23.05" fill="#e44400" fill-rule="evenodd" stroke="none"/>
    <path d="M35.05 21.7 L38.35 21.7 38.0 22.5 35.05 21.7" fill="#ea6a00" fill-rule="evenodd" stroke="none"/>
    <path d="M37.5 19.05 L38.85 20.95 38.55 20.95 37.5 19.05" fill="#ea6a00" fill-rule="evenodd" stroke="none"/>
    <path d="M39.4 20.85 L40.4 20.85 41.85 18.75 42.15 18.7 42.3 19.05 41.0 20.95 42.4 20.95 42.4 21.25 44.8 21.7 41.4 21.7 41.8 22.5 41.8 23.35 Q41.75 24.3 40.4 24.25 L40.4 24.1 Q41.25 24.1 41.4 23.55 L41.5 23.1 41.5 22.85 Q41.35 22.6 41.0 22.65 L40.45 23.15 39.9 21.2 39.35 23.15 38.8 22.65 Q38.45 22.6 38.3 22.85 38.15 23.2 38.3 23.1 L38.35 23.55 Q38.6 24.1 39.4 24.1 L39.4 24.25 Q38.05 24.3 38.0 23.35 L38.0 22.5 38.35 21.7 35.05 21.7 37.4 21.25 37.4 20.95 38.85 20.95 37.5 19.05 37.65 18.7 37.95 18.75 39.4 20.85" fill="#f69400" fill-rule="evenodd" stroke="none"/>
    <path d="M39.9 21.95 L39.45 22.75 39.9 21.2 40.35 22.75 39.9 21.95" fill="#ff6d00" fill-rule="evenodd" stroke="none"/>
    <path d="M40.7 23.05 Q41.0 22.75 41.2 22.85 L41.45 23.05 41.5 23.1 41.4 23.55 Q41.25 24.1 40.4 24.1 L40.45 23.6 40.7 23.05" fill="#e44400" fill-rule="evenodd" stroke="none"/>
    <path d="M41.8 22.5 L41.4 21.7 44.8 21.7 41.8 22.5" fill="#ea6a00" fill-rule="evenodd" stroke="none"/>
    <path d="M41.25 20.95 L41.0 20.95 42.3 19.05 41.25 20.95" fill="#ea6a00" fill-rule="evenodd" stroke="none"/>
    <path d="M41.2 22.85 Q41.0 22.75 40.7 23.05 L40.45 23.6 40.4 24.1 40.35 24.45 39.9 25.2 Q39.55 25.05 39.45 24.45 L39.4 24.1 39.35 23.6 39.1 23.05 38.6 22.85 38.35 23.05 38.3 23.1 Q38.15 23.2 38.3 22.85 38.45 22.6 38.8 22.65 L39.35 23.15 39.45 22.75 39.9 21.95 40.35 22.75 40.45 23.15 41.0 22.65 Q41.35 22.6 41.5 22.85 L41.5 23.1 41.45 23.05 41.2 22.85" fill="#ffcc00" fill-rule="evenodd" stroke="none"/>
    <path d="M50.3 23.05 L50.55 22.85 Q50.8 22.75 51.05 23.05 L51.3 23.6 51.35 24.1 Q50.55 24.1 50.3 23.55 L50.25 23.1 50.3 23.05" fill="#e44400" fill-rule="evenodd" stroke="none"/>
    <path d="M47.0 21.7 L50.3 21.7 49.95 22.5 47.0 21.7" fill="#ea6a00" fill-rule="evenodd" stroke="none"/>
    <path d="M49.45 19.05 L50.8 20.95 50.5 20.95 49.45 19.05" fill="#ea6a00" fill-rule="evenodd" stroke="none"/>
    <path d="M51.35 20.85 L52.35 20.85 53.8 18.75 54.1 18.7 54.25 19.05 52.95 20.95 54.35 20.95 54.35 21.25 56.75 21.7 53.35 21.7 53.75 22.5 53.75 23.35 Q53.7 24.3 52.35 24.25 L52.35 24.1 Q53.2 24.1 53.35 23.55 L53.45 23.1 53.45 22.85 Q53.3 22.6 52.95 22.65 L52.4 23.15 51.85 21.2 51.3 23.15 50.75 22.65 Q50.4 22.6 50.25 22.85 50.1 23.2 50.25 23.1 L50.3 23.55 Q50.55 24.1 51.35 24.1 L51.35 24.25 Q50.0 24.3 49.95 23.35 L49.95 22.5 50.3 21.7 47.0 21.7 49.35 21.25 49.35 20.95 50.8 20.95 49.45 19.05 49.6 18.7 49.9 18.75 51.35 20.85" fill="#f69400" fill-rule="evenodd" stroke="none"/>
    <path d="M51.85 21.95 L51.4 22.75 51.85 21.2 52.3 22.75 51.85 21.95" fill="#ff6d00" fill-rule="evenodd" stroke="none"/>
    <path d="M52.65 23.05 Q52.95 22.75 53.15 22.85 L53.4 23.05 53.45 23.1 53.35 23.55 Q53.2 24.1 52.35 24.1 L52.4 23.6 Q52.45 23.35 52.65 23.05" fill="#e44400" fill-rule="evenodd" stroke="none"/>
    <path d="M53.75 22.5 L53.35 21.7 56.75 21.7 53.75 22.5" fill="#ea6a00" fill-rule="evenodd" stroke="none"/>
    <path d="M53.2 20.95 L52.95 20.95 54.25 19.05 53.2 20.95" fill="#ea6a00" fill-rule="evenodd" stroke="none"/>
    <path d="M53.15 22.85 Q52.95 22.75 52.65 23.05 52.45 23.35 52.4 23.6 L52.35 24.1 52.3 24.45 51.85 25.2 Q51.5 25.05 51.4 24.45 L51.35 24.1 51.3 23.6 51.05 23.05 Q50.8 22.75 50.55 22.85 L50.3 23.05 50.25 23.1 Q50.1 23.2 50.25 22.85 50.4 22.6 50.75 22.65 L51.3 23.15 51.4 22.75 51.85 21.95 52.3 22.75 52.4 23.15 52.95 22.65 Q53.3 22.6 53.45 22.85 L53.45 23.1 53.4 23.05 53.15 22.85" fill="#ffcc00" fill-rule="evenodd" stroke="none"/>
  </g>
  <defs>
    <linearGradient gradientTransform="matrix(0.0, 0.0184, 0.0184, 0.0, 45.55, 16.75)" gradientUnits="userSpaceOnUse" id="gradient0" spreadMethod="pad" x1="-819.2" x2="819.2">
      <stop offset="0.0" stop-color="#373737"/>
      <stop offset="0.6549019607843137" stop-color="#a4a4a4"/>
      <stop offset="0.803921568627451" stop-color="#a4a4a4"/>
      <stop offset="1.0" stop-color="#6b6b6b"/>
    </linearGradient>
    <linearGradient gradientTransform="matrix(0.0, 0.012, 0.012, 0.0, 45.9, 16.1)" gradientUnits="userSpaceOnUse" id="gradient1" spreadMethod="pad" x1="-819.2" x2="819.2">
      <stop offset="0.0" stop-color="#aa6609"/>
      <stop offset="1.0" stop-color="#aa6e09"/>
    </linearGradient>
    <linearGradient gradientTransform="matrix(-0.0016, 0.004, -0.0094, -0.0039, 118.25, 43.85)" gradientUnits="userSpaceOnUse" id="gradient2" spreadMethod="pad" x1="-819.2" x2="819.2">
      <stop offset="0.0" stop-color="#505050"/>
      <stop offset="0.09803921568627451" stop-color="#373737"/>
      <stop offset="0.5254901960784314" stop-color="#6e6861"/>
      <stop offset="0.8862745098039215" stop-color="#3d3d3d"/>
      <stop offset="1.0" stop-color="#505050"/>
    </linearGradient>
    <linearGradient gradientTransform="matrix(0.0016, 0.004, 0.0094, -0.0039, -26.0, 43.85)" gradientUnits="userSpaceOnUse" id="gradient3" spreadMethod="pad" x1="-819.2" x2="819.2">
      <stop offset="0.0" stop-color="#505050"/>
      <stop offset="0.09803921568627451" stop-color="#373737"/>
      <stop offset="0.5254901960784314" stop-color="#6e6861"/>
      <stop offset="0.8862745098039215" stop-color="#3d3d3d"/>
      <stop offset="1.0" stop-color="#505050"/>
    </linearGradient>
    <linearGradient gradientTransform="matrix(-0.0052, -0.0086, -0.0086, 0.0052, 19.2, 24.45)" gradientUnits="userSpaceOnUse" id="gradient4" spreadMethod="pad" x1="-819.2" x2="819.2">
      <stop offset="0.0" stop-color="#505050"/>
      <stop offset="0.09803921568627451" stop-color="#373737"/>
      <stop offset="0.5254901960784314" stop-color="#6e6963"/>
      <stop offset="0.8862745098039215" stop-color="#3d3d3d"/>
      <stop offset="1.0" stop-color="#505050"/>
    </linearGradient>
    <linearGradient gradientTransform="matrix(-0.0056, 0.0084, 0.0084, 0.0056, 72.6, 24.45)" gradientUnits="userSpaceOnUse" id="gradient5" spreadMethod="pad" x1="-819.2" x2="819.2">
      <stop offset="0.0" stop-color="#505050"/>
      <stop offset="0.09803921568627451" stop-color="#373737"/>
      <stop offset="0.5254901960784314" stop-color="#6e6963"/>
      <stop offset="0.8862745098039215" stop-color="#3d3d3d"/>
      <stop offset="1.0" stop-color="#505050"/>
    </linearGradient>
  </defs>
</svg>
