<?xml version="1.0" encoding="UTF-8" standalone="no"?>
<svg xmlns:ffdec="https://www.free-decompiler.com/flash" xmlns:xlink="http://www.w3.org/1999/xlink" ffdec:objectType="shape" height="16.1px" width="61.05px" xmlns="http://www.w3.org/2000/svg">
  <g transform="matrix(1.0, 0.0, 0.0, 1.0, 102.55, 112.5)">
    <path d="M-45.0 -112.0 Q-43.75 -112.0 -42.9 -111.1 -42.0 -110.25 -42.0 -109.0 L-42.0 -99.9 Q-42.0 -98.65 -42.9 -97.8 -43.75 -96.9 -45.0 -96.9 L-99.05 -96.9 Q-100.3 -96.9 -101.15 -97.8 -102.05 -98.65 -102.05 -99.9 L-102.05 -109.0 Q-102.05 -110.25 -101.15 -111.1 -100.3 -112.0 -99.05 -112.0 L-45.0 -112.0" fill="#021e7f" fill-rule="evenodd" stroke="none"/>
    <path d="M-45.0 -112.0 L-99.05 -112.0 Q-100.3 -112.0 -101.15 -111.1 -102.05 -110.25 -102.05 -109.0 L-102.05 -99.9 Q-102.05 -98.65 -101.15 -97.8 -100.3 -96.9 -99.05 -96.9 L-45.0 -96.9 Q-43.75 -96.9 -42.9 -97.8 -42.0 -98.65 -42.0 -99.9 L-42.0 -109.0 Q-42.0 -110.25 -42.9 -111.1 -43.75 -112.0 -45.0 -112.0 Z" fill="none" stroke="#0842b7" stroke-linecap="butt" stroke-linejoin="miter-clip" stroke-miterlimit="4.0" stroke-width="1.0"/>
  </g>
</svg>
