<?xml version="1.0" encoding="UTF-8" standalone="no"?>
<svg xmlns:ffdec="https://www.free-decompiler.com/flash" xmlns:xlink="http://www.w3.org/1999/xlink" ffdec:objectType="shape" height="76.55px" width="162.7px" xmlns="http://www.w3.org/2000/svg">
  <g transform="matrix(1.0, 0.0, 0.0, 1.0, 205.5, 150.35)">
    <path d="M-43.3 -75.25 L-150.3 -75.25 -150.3 -85.25 -43.3 -85.25 -43.3 -75.25" fill="#021149" fill-rule="evenodd" stroke="none"/>
    <path d="M-43.3 -75.25 L-150.3 -75.25 -150.3 -85.25 -43.3 -85.25 -43.3 -75.25 Z" fill="none" stroke="#065abf" stroke-linecap="butt" stroke-linejoin="miter-clip" stroke-miterlimit="4.0" stroke-width="1.0"/>
    <path d="M-151.85 -149.85 L-147.6 -145.65 -147.6 -139.3 -149.75 -135.3 -149.75 -106.9 -147.6 -102.9 -147.6 -96.4 -152.0 -92.5 -200.35 -92.5 -205.0 -97.3 -205.0 -102.85 -202.85 -106.95 -202.85 -135.3 -205.0 -139.35 -205.0 -144.85 -200.5 -149.85 -151.85 -149.85" fill="#021b54" fill-rule="evenodd" stroke="none"/>
    <path d="M-151.85 -149.85 L-147.6 -145.65 -147.6 -139.3 -149.75 -135.3 -149.75 -106.9 -147.6 -102.9 -147.6 -96.4 -152.0 -92.5 -200.35 -92.5 -205.0 -97.3 -205.0 -102.85 -202.85 -106.95 -202.85 -135.3 -205.0 -139.35 -205.0 -144.85 -200.5 -149.85 -151.85 -149.85 Z" fill="none" stroke="#4a7aff" stroke-linecap="butt" stroke-linejoin="miter-clip" stroke-miterlimit="4.0" stroke-width="1.0"/>
    <path d="M-185.15 -95.75 L-199.15 -95.75 -201.5 -98.1 -201.5 -100.8 -198.45 -97.75 -153.5 -97.75 -150.45 -100.8 -150.45 -98.1 -152.8 -95.75 -166.8 -95.75 -167.85 -97.1 -184.1 -97.1 -185.15 -95.75" fill="url(#gradient0)" fill-rule="evenodd" stroke="none"/>
    <path d="M-153.5 -144.5 L-198.45 -144.5 -201.5 -141.45 -201.5 -144.15 -199.15 -146.5 -185.15 -146.5 -184.1 -145.15 -167.85 -145.15 -166.8 -146.5 -152.8 -146.5 -150.45 -144.15 -150.45 -141.45 -153.5 -144.5" fill="url(#gradient1)" fill-rule="evenodd" stroke="none"/>
    <path d="M-175.55 -86.95 Q-174.9 -87.6 -173.95 -87.6 L-155.95 -87.6 Q-155.0 -87.6 -154.35 -86.95 -153.7 -86.3 -153.7 -85.35 L-153.7 -76.8 Q-153.7 -75.85 -154.35 -75.2 -155.0 -74.55 -155.95 -74.55 L-173.95 -74.55 Q-174.9 -74.55 -175.55 -75.2 -176.2 -75.85 -176.2 -76.8 L-176.2 -85.35 Q-176.2 -86.3 -175.55 -86.95" fill="#0f5cf4" fill-rule="evenodd" stroke="none"/>
    <path d="M-175.55 -86.95 Q-174.9 -87.6 -173.95 -87.6 L-155.95 -87.6 Q-155.0 -87.6 -154.35 -86.95 -153.7 -86.3 -153.7 -85.35 L-153.7 -76.8 Q-153.7 -75.85 -154.35 -75.2 -155.0 -74.55 -155.95 -74.55 L-173.95 -74.55 Q-174.9 -74.55 -175.55 -75.2 -176.2 -75.85 -176.2 -76.8 L-176.2 -85.35 Q-176.2 -86.3 -175.55 -86.95 Z" fill="none" stroke="#29abe2" stroke-linecap="butt" stroke-linejoin="miter-clip" stroke-miterlimit="4.0" stroke-width="1.5"/>
  </g>
  <defs>
    <linearGradient gradientTransform="matrix(0.0, -0.0031, -0.0031, 0.0, -176.0, -98.3)" gradientUnits="userSpaceOnUse" id="gradient0" spreadMethod="pad" x1="-819.2" x2="819.2">
      <stop offset="0.0" stop-color="#2fc5ed"/>
      <stop offset="1.0" stop-color="#009cff"/>
    </linearGradient>
    <linearGradient gradientTransform="matrix(0.0, -0.0031, -0.0031, 0.0, -176.0, -143.95)" gradientUnits="userSpaceOnUse" id="gradient1" spreadMethod="pad" x1="-819.2" x2="819.2">
      <stop offset="0.0" stop-color="#009cff"/>
      <stop offset="1.0" stop-color="#2fc5ed"/>
    </linearGradient>
  </defs>
</svg>
