<?xml version="1.0" encoding="UTF-8" standalone="no"?>
<svg xmlns:ffdec="https://www.free-decompiler.com/flash" xmlns:xlink="http://www.w3.org/1999/xlink" ffdec:objectType="shape" height="18.95px" width="95.4px" xmlns="http://www.w3.org/2000/svg">
  <g transform="matrix(1.0, 0.0, 0.0, 1.0, 0.0, 0.0)">
    <path d="M2.45 4.55 L2.45 17.3 0.0 17.3 0.0 4.55 4.55 0.0 7.0 0.0 2.45 4.55" fill="url(#gradient0)" fill-rule="evenodd" stroke="none"/>
    <path d="M92.95 13.3 L92.95 1.65 95.4 1.65 95.4 13.3 89.75 18.95 87.3 18.95 92.95 13.3" fill="url(#gradient1)" fill-rule="evenodd" stroke="none"/>
    <path d="M90.7 1.25 L9.0 1.25 4.7 5.55 4.7 17.7 85.3 17.7 90.7 12.35 90.7 1.25 Z" fill="none" stroke="#b16a01" stroke-linecap="butt" stroke-linejoin="miter-clip" stroke-miterlimit="4.0" stroke-width="2.0"/>
    <path d="M90.7 1.25 L90.7 12.35 85.3 17.7 4.7 17.7 4.7 5.55 9.0 1.25 90.7 1.25" fill="url(#gradient2)" fill-rule="evenodd" stroke="none"/>
    <path d="M90.7 12.35 L85.3 17.7 4.7 17.7 4.7 5.55 9.0 1.25 20.65 1.95 Q34.8 2.6 47.45 2.6 60.15 2.6 76.65 1.95 L90.7 1.25 90.7 12.35" fill="url(#gradient3)" fill-rule="evenodd" stroke="none"/>
    <path d="M90.7 12.35 L90.7 1.25 76.65 1.95 Q60.15 2.6 47.45 2.6 34.8 2.6 20.65 1.95 L9.0 1.25 4.7 5.55 4.7 17.7 85.3 17.7 90.7 12.35 Z" fill="none" stroke="url(#gradient4)" stroke-linecap="butt" stroke-linejoin="miter-clip" stroke-miterlimit="4.0" stroke-width="1.0"/>
  </g>
  <defs>
    <linearGradient gradientTransform="matrix(0.0, 0.0095, 0.0524, 0.0, 47.7, 9.5)" gradientUnits="userSpaceOnUse" id="gradient0" spreadMethod="pad" x1="-819.2" x2="819.2">
      <stop offset="0.0" stop-color="#996100"/>
      <stop offset="0.03137254901960784" stop-color="#975f00"/>
      <stop offset="0.3764705882352941" stop-color="#804800"/>
      <stop offset="0.7058823529411765" stop-color="#733b00"/>
      <stop offset="1.0" stop-color="#6e3600"/>
    </linearGradient>
    <linearGradient gradientTransform="matrix(0.0, 0.0095, 0.0524, 0.0, 135.0, 11.15)" gradientUnits="userSpaceOnUse" id="gradient1" spreadMethod="pad" x1="-819.2" x2="819.2">
      <stop offset="0.0" stop-color="#996100"/>
      <stop offset="0.03137254901960784" stop-color="#975f00"/>
      <stop offset="0.3764705882352941" stop-color="#804800"/>
      <stop offset="0.7058823529411765" stop-color="#733b00"/>
      <stop offset="1.0" stop-color="#6e3600"/>
    </linearGradient>
    <linearGradient gradientTransform="matrix(0.0, 0.0114, -1.0, 0.0, 9.45, 9.45)" gradientUnits="userSpaceOnUse" id="gradient2" spreadMethod="pad" x1="-819.2" x2="819.2">
      <stop offset="0.0" stop-color="#996100"/>
      <stop offset="0.03137254901960784" stop-color="#975f00"/>
      <stop offset="0.3764705882352941" stop-color="#804800"/>
      <stop offset="0.7058823529411765" stop-color="#733b00"/>
      <stop offset="1.0" stop-color="#6e3600"/>
    </linearGradient>
    <linearGradient gradientTransform="matrix(0.0, 0.0095, 0.0524, 0.0, 47.7, 9.5)" gradientUnits="userSpaceOnUse" id="gradient3" spreadMethod="pad" x1="-819.2" x2="819.2">
      <stop offset="0.0" stop-color="#f49302"/>
      <stop offset="0.03137254901960784" stop-color="#db8402"/>
      <stop offset="0.3764705882352941" stop-color="#a05001"/>
      <stop offset="0.7058823529411765" stop-color="#874301"/>
      <stop offset="1.0" stop-color="#6e3600"/>
    </linearGradient>
    <linearGradient gradientTransform="matrix(0.0531, 0.0, 0.0, 0.0107, 47.7, 9.45)" gradientUnits="userSpaceOnUse" id="gradient4" spreadMethod="pad" x1="-819.2" x2="819.2">
      <stop offset="0.0" stop-color="#996100"/>
      <stop offset="0.03137254901960784" stop-color="#975f00"/>
      <stop offset="0.3764705882352941" stop-color="#804800"/>
      <stop offset="0.7058823529411765" stop-color="#733b00"/>
      <stop offset="1.0" stop-color="#6e3600"/>
    </linearGradient>
  </defs>
</svg>
