<?xml version="1.0" encoding="UTF-8" standalone="no"?>
<svg xmlns:ffdec="https://www.free-decompiler.com/flash" xmlns:xlink="http://www.w3.org/1999/xlink" ffdec:objectType="shape" height="17.05px" width="85.85px" xmlns="http://www.w3.org/2000/svg">
  <g transform="matrix(1.0, 0.0, 0.0, 1.0, -4.75, -0.95)">
    <path d="M6.95 5.05 L6.95 16.5 4.75 16.5 4.75 5.05 8.85 0.95 11.05 0.95 6.95 5.05" fill="url(#gradient0)" fill-rule="evenodd" stroke="none"/>
    <path d="M88.4 12.95 L88.4 2.45 90.6 2.45 90.6 12.95 85.5 18.0 83.3 18.0 88.4 12.95" fill="url(#gradient1)" fill-rule="evenodd" stroke="none"/>
    <path d="M86.4 2.05 L12.85 2.05 9.0 5.95 9.0 16.9 81.5 16.9 86.4 12.05 86.4 2.05 Z" fill="none" stroke="#b16a01" stroke-linecap="butt" stroke-linejoin="miter-clip" stroke-miterlimit="4.0" stroke-width="2.0"/>
    <path d="M86.4 2.05 L86.4 12.05 81.5 16.9 9.0 16.9 9.0 5.95 12.85 2.05 86.4 2.05" fill="url(#gradient2)" fill-rule="evenodd" stroke="none"/>
    <path d="M86.4 12.05 L81.5 16.9 9.0 16.9 9.0 5.95 12.85 2.05 23.35 2.7 Q36.05 3.3 47.45 3.3 58.9 3.3 73.75 2.7 L86.4 2.05 86.4 12.05" fill="url(#gradient3)" fill-rule="evenodd" stroke="none"/>
    <path d="M86.4 12.05 L86.4 2.05 73.75 2.7 Q58.9 3.3 47.45 3.3 36.05 3.3 23.35 2.7 L12.85 2.05 9.0 5.95 9.0 16.9 81.5 16.9 86.4 12.05 Z" fill="none" stroke="url(#gradient4)" stroke-linecap="butt" stroke-linejoin="miter-clip" stroke-miterlimit="4.0" stroke-width="1.0"/>
  </g>
  <defs>
    <linearGradient gradientTransform="matrix(0.0, 0.0086, 0.0471, 0.0, 47.7, 9.5)" gradientUnits="userSpaceOnUse" id="gradient0" spreadMethod="pad" x1="-819.2" x2="819.2">
      <stop offset="0.0" stop-color="#996100"/>
      <stop offset="0.03137254901960784" stop-color="#975f00"/>
      <stop offset="0.3764705882352941" stop-color="#804800"/>
      <stop offset="0.7058823529411765" stop-color="#733b00"/>
      <stop offset="1.0" stop-color="#6e3600"/>
    </linearGradient>
    <linearGradient gradientTransform="matrix(0.0, 0.0086, 0.0471, 0.0, 126.25, 11.0)" gradientUnits="userSpaceOnUse" id="gradient1" spreadMethod="pad" x1="-819.2" x2="819.2">
      <stop offset="0.0" stop-color="#996100"/>
      <stop offset="0.03137254901960784" stop-color="#975f00"/>
      <stop offset="0.3764705882352941" stop-color="#804800"/>
      <stop offset="0.7058823529411765" stop-color="#733b00"/>
      <stop offset="1.0" stop-color="#6e3600"/>
    </linearGradient>
    <linearGradient gradientTransform="matrix(0.0, 0.0102, -0.9, 0.0, 13.25, 9.45)" gradientUnits="userSpaceOnUse" id="gradient2" spreadMethod="pad" x1="-819.2" x2="819.2">
      <stop offset="0.0" stop-color="#996100"/>
      <stop offset="0.03137254901960784" stop-color="#975f00"/>
      <stop offset="0.3764705882352941" stop-color="#804800"/>
      <stop offset="0.7058823529411765" stop-color="#733b00"/>
      <stop offset="1.0" stop-color="#6e3600"/>
    </linearGradient>
    <linearGradient gradientTransform="matrix(0.0, 0.0086, 0.0471, 0.0, 47.7, 9.5)" gradientUnits="userSpaceOnUse" id="gradient3" spreadMethod="pad" x1="-819.2" x2="819.2">
      <stop offset="0.0" stop-color="#f49302"/>
      <stop offset="0.03137254901960784" stop-color="#db8402"/>
      <stop offset="0.3764705882352941" stop-color="#a05001"/>
      <stop offset="0.7058823529411765" stop-color="#874301"/>
      <stop offset="1.0" stop-color="#6e3600"/>
    </linearGradient>
    <linearGradient gradientTransform="matrix(0.0478, 0.0, 0.0, 0.0096, 47.7, 9.45)" gradientUnits="userSpaceOnUse" id="gradient4" spreadMethod="pad" x1="-819.2" x2="819.2">
      <stop offset="0.0" stop-color="#996100"/>
      <stop offset="0.03137254901960784" stop-color="#975f00"/>
      <stop offset="0.3764705882352941" stop-color="#804800"/>
      <stop offset="0.7058823529411765" stop-color="#733b00"/>
      <stop offset="1.0" stop-color="#6e3600"/>
    </linearGradient>
  </defs>
</svg>
