<?xml version="1.0" encoding="UTF-8" standalone="no"?>
<svg xmlns:ffdec="https://www.free-decompiler.com/flash" xmlns:xlink="http://www.w3.org/1999/xlink" ffdec:objectType="shape" height="15.3px" width="18.2px" xmlns="http://www.w3.org/2000/svg">
  <g transform="matrix(1.0, 0.0, 0.0, 1.0, 0.5, 0.5)">
    <path d="M16.5 0.7 Q17.2 1.45 17.2 2.45 L17.2 11.85 Q17.2 12.85 16.5 13.6 15.75 14.3 14.75 14.3 L2.45 14.3 Q1.45 14.3 0.7 13.6 0.0 12.85 0.0 11.85 L0.0 2.45 Q0.0 1.45 0.7 0.7 1.45 0.0 2.45 0.0 L14.75 0.0 Q15.75 0.0 16.5 0.7" fill="#03296d" fill-rule="evenodd" stroke="none"/>
    <path d="M16.5 0.7 Q17.2 1.45 17.2 2.45 L17.2 11.85 Q17.2 12.85 16.5 13.6 15.75 14.3 14.75 14.3 L2.45 14.3 Q1.45 14.3 0.7 13.6 0.0 12.85 0.0 11.85 L0.0 2.45 Q0.0 1.45 0.7 0.7 1.45 0.0 2.45 0.0 L14.75 0.0 Q15.75 0.0 16.5 0.7 Z" fill="none" stroke="#157fff" stroke-linecap="butt" stroke-linejoin="miter-clip" stroke-miterlimit="4.0" stroke-width="1.0"/>
    <path d="M10.65 9.2 L10.65 13.2 6.55 13.2 6.55 9.2 2.55 9.2 2.55 5.1 6.55 5.1 6.55 1.1 10.65 1.1 10.65 5.1 14.65 5.1 14.65 9.2 10.65 9.2" fill="#0080ff" fill-rule="evenodd" stroke="none"/>
  </g>
</svg>
