<?xml version="1.0" encoding="UTF-8" standalone="no"?>
<svg xmlns:ffdec="https://www.free-decompiler.com/flash" xmlns:xlink="http://www.w3.org/1999/xlink" ffdec:objectType="shape" height="15.3px" width="18.2px" xmlns="http://www.w3.org/2000/svg">
  <g transform="matrix(1.0, 0.0, 0.0, 1.0, 0.5, 0.5)">
    <path d="M17.2 2.45 L17.2 11.85 Q17.2 12.85 16.5 13.6 15.75 14.3 14.75 14.3 L2.45 14.3 Q1.45 14.3 0.7 13.6 0.0 12.85 0.0 11.85 L0.0 2.45 Q0.0 1.45 0.7 0.7 1.45 0.0 2.45 0.0 L14.75 0.0 Q15.75 0.0 16.5 0.7 17.2 1.45 17.2 2.45" fill="url(#gradient0)" fill-rule="evenodd" stroke="none"/>
    <path d="M17.2 2.45 L17.2 11.85 Q17.2 12.85 16.5 13.6 15.75 14.3 14.75 14.3 L2.45 14.3 Q1.45 14.3 0.7 13.6 0.0 12.85 0.0 11.85 L0.0 2.45 Q0.0 1.45 0.7 0.7 1.45 0.0 2.45 0.0 L14.75 0.0 Q15.75 0.0 16.5 0.7 17.2 1.45 17.2 2.45 Z" fill="none" stroke="#29abe2" stroke-linecap="butt" stroke-linejoin="miter-clip" stroke-miterlimit="4.0" stroke-width="1.0"/>
    <path d="M12.75 9.0 Q13.5 10.15 13.5 11.75 L8.4 11.75 Q8.4 10.15 9.15 9.0 9.9 7.85 10.95 7.85 12.0 7.85 12.75 9.0 M5.65 3.85 Q6.35 3.85 6.85 4.35 7.35 4.85 7.35 5.55 7.35 6.2 6.85 6.7 6.35 7.2 5.65 7.2 4.95 7.2 4.45 6.7 3.95 6.2 3.95 5.55 3.95 4.85 4.45 4.35 4.95 3.85 5.65 3.85 M12.7 6.45 Q11.95 7.15 10.95 7.15 9.95 7.15 9.25 6.45 8.5 5.75 8.5 4.75 8.5 3.75 9.25 3.05 9.95 2.35 10.95 2.35 11.95 2.35 12.7 3.05 13.4 3.75 13.4 4.75 13.4 5.75 12.7 6.45 M4.4 8.55 Q4.95 7.7 5.65 7.7 6.4 7.7 6.9 8.55 7.4 9.3 7.45 10.45 L3.85 10.45 Q3.85 9.3 4.4 8.55" fill="#26c3ff" fill-rule="evenodd" stroke="none"/>
  </g>
  <defs>
    <linearGradient gradientTransform="matrix(0.0105, 0.0, 0.0, -0.0105, 8.6, 7.15)" gradientUnits="userSpaceOnUse" id="gradient0" spreadMethod="pad" x1="-819.2" x2="819.2">
      <stop offset="0.0" stop-color="#005cff"/>
      <stop offset="0.7568627450980392" stop-color="#0d4f94"/>
      <stop offset="0.8313725490196079" stop-color="#0d5a9d"/>
      <stop offset="0.9568627450980393" stop-color="#0d77b6"/>
      <stop offset="1.0" stop-color="#0d82bf"/>
    </linearGradient>
  </defs>
</svg>
