<?xml version="1.0" encoding="UTF-8" standalone="no"?>
<svg xmlns:ffdec="https://www.free-decompiler.com/flash" xmlns:xlink="http://www.w3.org/1999/xlink" ffdec:objectType="shape" height="280.7px" width="189.75px" xmlns="http://www.w3.org/2000/svg">
  <g transform="matrix(1.0, 0.0, 0.0, 1.0, -10.5, -6.5)">
    <path d="M14.4 261.3 L16.95 258.15 18.9 258.15 18.9 282.3 16.95 282.3 14.4 279.15 14.4 261.3" fill="url(#gradient0)" fill-rule="evenodd" stroke="none"/>
    <path d="M16.95 258.15 L18.9 258.15 18.9 282.25 16.95 282.25 16.95 258.15" fill="url(#gradient1)" fill-rule="evenodd" stroke="none"/>
    <path d="M14.45 263.8 L14.45 276.6 12.45 276.6 12.45 263.8 14.45 263.8" fill="url(#gradient2)" fill-rule="evenodd" stroke="none"/>
    <path d="M26.45 66.35 Q27.0 67.9 27.0 69.15 L27.0 156.55 Q27.0 157.8 26.4 158.0 25.8 158.25 24.95 157.35 L16.45 148.25 Q15.6 147.35 15.0 145.85 14.4 144.35 14.4 143.1 L14.4 53.3 Q14.4 52.05 14.95 51.85 15.5 51.7 16.25 52.65 L25.15 63.8 Q25.9 64.8 26.45 66.35" fill="#535354" fill-rule="evenodd" stroke="none"/>
    <path d="M198.35 261.3 L198.35 279.15 195.8 282.3 193.85 282.3 193.85 258.15 195.8 258.15 198.35 261.3" fill="url(#gradient3)" fill-rule="evenodd" stroke="none"/>
    <path d="M195.8 258.15 L195.8 282.25 193.85 282.25 193.85 258.15 195.8 258.15" fill="url(#gradient4)" fill-rule="evenodd" stroke="none"/>
    <path d="M198.3 263.8 L200.25 263.8 200.25 276.6 198.3 276.6 198.3 263.8" fill="url(#gradient5)" fill-rule="evenodd" stroke="none"/>
    <path d="M192.9 36.4 L192.9 283.2 Q192.9 284.65 191.9 285.7 190.85 286.7 189.4 286.7 L23.5 286.7 Q22.05 286.7 21.05 285.7 20.0 284.65 20.0 283.2 L20.0 81.15 19.55 78.45 Q19.1 76.85 18.45 75.9 L12.7 66.95 Q12.0 65.85 11.5 64.15 11.0 62.45 11.0 61.15 L11.0 36.4 Q11.0 34.95 12.05 33.9 13.05 32.9 14.5 32.9 L189.4 32.9 Q190.85 32.9 191.9 33.9 192.9 34.95 192.9 36.4" fill="url(#gradient6)" fill-rule="evenodd" stroke="none"/>
    <path d="M192.4 36.4 Q192.4 35.15 191.5 34.3 190.65 33.4 189.4 33.4 L14.5 33.4 Q13.25 33.4 12.4 34.3 11.5 35.15 11.5 36.4 L11.5 61.15 Q11.5 62.4 12.0 64.0 12.45 65.65 13.15 66.7 L18.9 75.65 Q19.55 76.7 20.0 78.3 20.5 79.95 20.5 81.15 L20.5 283.2 Q20.5 284.45 21.4 285.3 22.25 286.2 23.5 286.2 L189.4 286.2 Q190.65 286.2 191.5 285.3 192.4 284.45 192.4 283.2 L192.4 36.4 M189.4 32.4 Q191.05 32.4 192.25 33.55 193.4 34.7 193.4 36.4 L193.4 283.2 Q193.4 284.85 192.25 286.05 191.05 287.2 189.4 287.2 L23.5 287.2 Q21.85 287.2 20.7 286.05 19.5 284.85 19.5 283.2 L19.5 81.15 Q19.5 80.05 19.1 78.6 L18.05 76.2 12.3 67.25 Q11.55 66.1 11.05 64.3 10.5 62.55 10.5 61.15 L10.5 36.4 Q10.5 34.7 11.7 33.55 12.85 32.4 14.5 32.4 L189.4 32.4" fill="#5d6566" fill-rule="evenodd" stroke="none"/>
    <path d="M175.2 9.35 L191.15 26.4 Q192.2 27.55 191.8 28.5 191.4 29.45 189.85 29.45 L52.75 29.45 Q51.4 29.45 49.85 28.75 48.3 28.05 47.4 27.05 L32.1 10.05 Q31.1 8.9 31.5 7.95 31.85 7.0 33.45 7.0 L169.75 7.0 Q171.1 7.0 172.7 7.7 174.3 8.4 175.2 9.35" fill="#2e406b" fill-rule="evenodd" stroke="none"/>
    <path d="M174.8 9.65 Q174.0 8.75 172.5 8.15 171.0 7.5 169.75 7.5 L33.45 7.5 Q32.2 7.5 31.95 8.15 31.65 8.8 32.5 9.7 L47.75 26.7 Q48.55 27.65 50.05 28.3 L52.75 28.95 189.85 28.95 Q191.1 28.95 191.35 28.3 191.65 27.65 190.8 26.75 L174.8 9.65 M169.75 6.5 Q171.2 6.5 172.9 7.25 174.6 7.95 175.55 9.0 L191.5 26.05 Q192.8 27.4 192.25 28.7 191.7 29.95 189.85 29.95 L52.75 29.95 Q51.35 29.95 49.65 29.2 48.0 28.45 47.0 27.35 L31.75 10.4 Q30.4 8.9 31.05 7.75 31.55 6.5 33.45 6.5 L169.75 6.5" fill="#5b7eb5" fill-rule="evenodd" stroke="none"/>
    <path d="M49.3 33.05 L117.7 33.05 Q118.95 33.05 119.25 33.7 119.5 34.3 118.65 35.25 L107.3 47.45 Q106.45 48.35 104.95 49.0 L102.25 49.65 31.45 49.65 Q30.2 49.65 30.0 49.05 29.75 48.45 30.65 47.6 L44.1 35.1 Q45.0 34.25 46.55 33.65 L49.3 33.05" fill="#535354" fill-rule="evenodd" stroke="none"/>
  </g>
  <defs>
    <linearGradient gradientTransform="matrix(0.0, -0.0148, -0.0148, 0.0, 16.65, 270.25)" gradientUnits="userSpaceOnUse" id="gradient0" spreadMethod="pad" x1="-819.2" x2="819.2">
      <stop offset="0.0" stop-color="#75757a"/>
      <stop offset="0.40784313725490196" stop-color="#737375"/>
      <stop offset="0.7019607843137254" stop-color="#bac2c2"/>
      <stop offset="1.0" stop-color="#babfbf"/>
    </linearGradient>
    <linearGradient gradientTransform="matrix(0.0, -0.0147, -0.0147, 0.0, 17.95, 270.2)" gradientUnits="userSpaceOnUse" id="gradient1" spreadMethod="pad" x1="-819.2" x2="819.2">
      <stop offset="0.0" stop-color="#505050"/>
      <stop offset="1.0" stop-color="#a4a4a4"/>
    </linearGradient>
    <linearGradient gradientTransform="matrix(0.0, 0.0078, -0.0078, 0.0, 13.45, 270.2)" gradientUnits="userSpaceOnUse" id="gradient2" spreadMethod="pad" x1="-819.2" x2="819.2">
      <stop offset="0.0" stop-color="#505050"/>
      <stop offset="1.0" stop-color="#a4a4a4"/>
    </linearGradient>
    <linearGradient gradientTransform="matrix(0.0, 0.0148, -0.0148, 0.0, 196.1, 270.25)" gradientUnits="userSpaceOnUse" id="gradient3" spreadMethod="pad" x1="-819.2" x2="819.2">
      <stop offset="0.0" stop-color="#75757a"/>
      <stop offset="0.40784313725490196" stop-color="#737375"/>
      <stop offset="0.7019607843137254" stop-color="#bac2c2"/>
      <stop offset="1.0" stop-color="#babfbf"/>
    </linearGradient>
    <linearGradient gradientTransform="matrix(0.0, 0.0147, -0.0147, 0.0, 194.8, 270.2)" gradientUnits="userSpaceOnUse" id="gradient4" spreadMethod="pad" x1="-819.2" x2="819.2">
      <stop offset="0.0" stop-color="#505050"/>
      <stop offset="1.0" stop-color="#a4a4a4"/>
    </linearGradient>
    <linearGradient gradientTransform="matrix(0.0, -0.0078, -0.0078, 0.0, 199.3, 270.2)" gradientUnits="userSpaceOnUse" id="gradient5" spreadMethod="pad" x1="-819.2" x2="819.2">
      <stop offset="0.0" stop-color="#505050"/>
      <stop offset="1.0" stop-color="#a4a4a4"/>
    </linearGradient>
    <linearGradient gradientTransform="matrix(0.0, -0.1543, -0.1543, 0.0, 362.9, 163.15)" gradientUnits="userSpaceOnUse" id="gradient6" spreadMethod="pad" x1="-819.2" x2="819.2">
      <stop offset="0.0" stop-color="#6a6a6a"/>
      <stop offset="0.09803921568627451" stop-color="#535353"/>
      <stop offset="0.21176470588235294" stop-color="#414141"/>
      <stop offset="0.32941176470588235" stop-color="#373737"/>
      <stop offset="0.4627450980392157" stop-color="#333333"/>
      <stop offset="0.5607843137254902" stop-color="#393939"/>
      <stop offset="0.6901960784313725" stop-color="#494949"/>
      <stop offset="0.8352941176470589" stop-color="#646464"/>
      <stop offset="0.9921568627450981" stop-color="#8a8a8a"/>
      <stop offset="1.0" stop-color="#8c8c8c"/>
    </linearGradient>
  </defs>
</svg>
