<?xml version="1.0" encoding="UTF-8" standalone="no"?>
<svg xmlns:ffdec="https://www.free-decompiler.com/flash" xmlns:xlink="http://www.w3.org/1999/xlink" ffdec:objectType="shape" height="43.6px" width="43.6px" xmlns="http://www.w3.org/2000/svg">
  <g transform="matrix(1.0, 0.0, 0.0, 1.0, -3.9, -4.2)">
    <path d="M10.25 10.55 Q16.65 4.2 25.7 4.2 34.75 4.2 41.1 10.55 47.5 16.9 47.5 25.95 47.55 35.0 41.15 41.4 34.75 47.8 25.7 47.8 16.7 47.8 10.3 41.4 3.9 35.05 3.9 26.0 3.85 16.95 10.25 10.55" fill="#59617c" fill-rule="evenodd" stroke="none"/>
    <path d="M25.7 6.75 Q33.6 6.75 39.15 12.35 44.75 17.95 44.75 25.8 44.75 33.7 39.15 39.3 33.6 44.85 25.7 44.85 17.8 44.85 12.25 39.3 6.65 33.7 6.65 25.8 6.65 17.95 12.25 12.35 17.85 6.75 25.7 6.75" fill="#3e4868" fill-rule="evenodd" stroke="none"/>
  </g>
</svg>
