<?xml version="1.0" encoding="UTF-8" standalone="no"?>
<svg xmlns:ffdec="https://www.free-decompiler.com/flash" xmlns:xlink="http://www.w3.org/1999/xlink" ffdec:objectType="shape" height="21.5px" width="25.8px" xmlns="http://www.w3.org/2000/svg">
  <g transform="matrix(1.0, 0.0, 0.0, 1.0, -0.8, -0.75)">
    <path d="M24.8 6.05 Q26.6 8.6 26.6 11.45 L26.6 11.55 Q26.6 14.35 24.95 16.75 23.3 19.3 20.3 20.75 17.35 22.25 13.75 22.25 L13.7 22.25 Q10.35 22.25 7.4 20.9 4.35 19.5 2.6 17.0 0.8 14.45 0.8 11.55 0.8 8.75 2.45 6.3 4.15 3.8 7.15 2.3 10.0 0.85 13.65 0.75 L13.7 0.75 Q17.1 0.8 20.0 2.15 23.05 3.55 24.8 6.05" fill="#ff0000" fill-rule="evenodd" stroke="none"/>
  </g>
</svg>
