<?xml version="1.0" encoding="UTF-8" standalone="no"?>
<svg xmlns:ffdec="https://www.free-decompiler.com/flash" xmlns:xlink="http://www.w3.org/1999/xlink" ffdec:objectType="shape" height="269.85px" width="34.25px" xmlns="http://www.w3.org/2000/svg">
  <g transform="matrix(1.0, 0.0, 0.0, 1.0, -8.6, -8.75)">
    <path d="M16.95 11.2 Q22.85 7.7 29.55 9.25 36.2 10.75 39.95 16.45 L38.55 17.3 Q35.15 12.2 29.15 10.85 23.1 9.45 17.8 12.6 14.9 14.3 12.9 17.25 L11.45 16.45 Q13.6 13.2 16.95 11.2" fill="#82c7e0" fill-rule="evenodd" stroke="none"/>
    <path d="M10.5 18.15 L11.9 18.95 Q10.15 22.45 10.25 26.3 10.35 30.35 12.4 33.8 14.45 37.25 17.95 39.25 21.3 41.2 25.2 41.35 L25.25 43.0 Q20.9 42.85 17.15 40.7 13.3 38.5 11.0 34.65 8.7 30.75 8.6 26.35 8.5 22.0 10.5 18.15" fill="#82c7e0" fill-rule="evenodd" stroke="none"/>
    <path d="M39.5 19.0 L40.95 18.15 Q44.0 24.15 42.15 30.65 40.3 37.15 34.45 40.6 31.05 42.6 27.2 42.9 L27.2 41.3 Q30.8 40.9 33.6 39.2 38.85 36.1 40.55 30.25 42.2 24.4 39.5 19.0" fill="#82c7e0" fill-rule="evenodd" stroke="none"/>
    <path d="M35.1 269.5 Q36.5 270.9 36.5 272.85 36.5 274.85 35.1 276.2 33.75 277.6 31.75 277.6 29.8 277.6 28.4 276.2 27.0 274.85 27.0 272.85 27.0 270.9 28.4 269.5 29.8 268.1 31.75 268.1 33.75 268.1 35.1 269.5" fill="#2b2b2b" fill-rule="evenodd" stroke="none"/>
    <path d="M27.7 268.8 Q29.4 267.1 31.75 267.1 34.15 267.1 35.85 268.8 37.5 270.5 37.5 272.85 37.5 275.25 35.85 276.95 34.15 278.6 31.75 278.6 29.4 278.6 27.7 276.95 26.0 275.25 26.0 272.85 26.0 270.5 27.7 268.8 M31.75 268.1 Q29.8 268.1 28.4 269.5 27.0 270.9 27.0 272.85 27.0 274.85 28.4 276.2 29.8 277.6 31.75 277.6 33.75 277.6 35.1 276.2 36.5 274.85 36.5 272.85 36.5 270.9 35.1 269.5 33.75 268.1 31.75 268.1" fill="#515050" fill-rule="evenodd" stroke="none"/>
    <path d="M34.25 270.4 Q35.25 271.4 35.25 272.85 35.25 274.3 34.25 275.35 33.2 276.35 31.75 276.35 30.3 276.35 29.3 275.35 28.25 274.3 28.25 272.85 28.25 271.45 29.3 270.4 30.35 269.35 31.75 269.35 33.2 269.35 34.25 270.4" fill="#ebc76d" fill-rule="evenodd" stroke="none"/>
    <path d="M22.95 111.8 L22.95 108.4 30.6 115.9 30.6 119.4 22.95 111.8" fill="#282835" fill-rule="evenodd" stroke="none"/>
    <path d="M22.95 106.0 L22.95 102.55 30.6 110.1 30.6 113.6 22.95 106.0" fill="#282835" fill-rule="evenodd" stroke="none"/>
    <path d="M22.95 100.15 L22.95 96.75 30.6 104.25 30.6 107.75 22.95 100.15" fill="#282835" fill-rule="evenodd" stroke="none"/>
    <path d="M22.95 94.35 L22.95 90.9 30.6 98.4 30.6 101.95 22.95 94.35" fill="#282835" fill-rule="evenodd" stroke="none"/>
    <path d="M22.95 88.5 L22.95 85.05 30.6 92.6 30.6 96.1 22.95 88.5" fill="#282835" fill-rule="evenodd" stroke="none"/>
    <path d="M22.95 82.65 L22.95 79.25 30.6 86.75 30.6 90.25 22.95 82.65" fill="#282835" fill-rule="evenodd" stroke="none"/>
  </g>
</svg>
