<?xml version="1.0" encoding="UTF-8" standalone="no"?>
<svg xmlns:ffdec="https://www.free-decompiler.com/flash" xmlns:xlink="http://www.w3.org/1999/xlink" ffdec:objectType="shape" height="114.6px" width="114.1px" xmlns="http://www.w3.org/2000/svg">
  <g transform="matrix(1.0, 0.0, 0.0, 1.0, 0.0, 0.0)">
    <path d="M98.65 29.85 L100.4 29.85 104.25 34.65 104.25 35.55 106.2 35.55 106.2 36.85 111.15 36.85 111.7 37.15 Q114.1 38.5 114.1 43.55 114.1 46.25 113.4 48.25 L112.4 50.1 111.65 51.0 106.2 51.0 106.2 53.3 104.25 53.3 104.25 54.25 100.4 59.05 98.05 59.05 Q94.75 67.9 88.15 74.4 L94.75 74.4 102.05 90.85 92.0 90.85 90.25 96.15 86.95 97.95 86.25 99.65 75.85 99.65 69.25 106.9 64.75 106.9 64.75 111.6 64.45 112.2 Q63.1 114.6 58.0 114.6 53.6 114.6 51.45 112.9 L50.55 112.15 50.55 106.9 46.0 106.9 39.25 99.65 27.6 99.65 26.95 98.0 23.65 96.15 21.9 90.85 13.45 90.85 19.55 74.4 26.4 74.4 Q23.7 71.75 21.3 68.25 L21.2 68.3 18.05 62.95 18.15 62.9 16.5 59.05 14.15 59.05 10.3 54.25 10.3 53.3 8.4 53.3 8.4 51.0 2.45 51.0 1.7 50.1 Q1.15 49.45 0.7 48.25 0.0 46.25 0.0 43.55 0.0 38.45 2.45 37.15 L3.0 36.85 8.4 36.85 8.4 35.55 10.3 35.55 10.3 34.65 14.15 29.85 15.9 29.85 Q19.2 20.05 26.45 12.8 32.1 7.2 39.2 3.95 46.35 0.7 54.2 0.15 L54.2 0.05 60.45 0.0 60.45 0.15 Q68.3 0.7 75.4 3.95 82.55 7.2 88.15 12.8 95.35 20.0 98.65 29.85" fill="#0a0a0a" fill-rule="evenodd" stroke="none"/>
  </g>
</svg>
