<?xml version="1.0" encoding="UTF-8" standalone="no"?>
<svg xmlns:ffdec="https://www.free-decompiler.com/flash" xmlns:xlink="http://www.w3.org/1999/xlink" ffdec:objectType="shape" height="106.5px" width="109.1px" xmlns="http://www.w3.org/2000/svg">
  <g transform="matrix(1.0, 0.0, 0.0, 1.0, -52.85, -108.55)">
    <path d="M112.1 187.9 L112.1 211.35 Q112.1 212.2 111.5 212.75 110.95 213.35 110.1 213.35 L105.85 213.35 Q105.05 213.35 104.45 212.75 103.85 212.2 103.85 211.35 L103.85 187.9 Q103.85 187.1 104.45 186.5 105.05 185.9 105.85 185.9 L110.1 185.9 Q110.95 185.9 111.5 186.5 112.1 187.1 112.1 187.9" fill="url(#gradient0)" fill-rule="evenodd" stroke="none"/>
    <path d="M104.85 185.9 L111.1 185.9 Q111.5 185.9 111.8 186.2 L112.1 186.9 112.1 191.8 111.8 192.5 111.1 192.8 104.85 192.8 Q104.45 192.8 104.15 192.5 103.85 192.2 103.85 191.8 L103.85 186.9 Q103.85 186.5 104.15 186.2 104.45 185.9 104.85 185.9" fill="url(#gradient1)" fill-rule="evenodd" stroke="none"/>
    <path d="M112.1 191.7 L103.85 191.7 103.85 186.95 112.1 186.95 112.1 191.7" fill="#363738" fill-rule="evenodd" stroke="none"/>
    <path d="M105.85 191.1 L104.85 191.1 104.85 187.55 105.85 187.55 105.85 191.1" fill="#0c0c0c" fill-rule="evenodd" stroke="none"/>
    <path d="M111.25 191.1 L110.25 191.1 110.25 187.55 111.25 187.55 111.25 191.1" fill="#0c0c0c" fill-rule="evenodd" stroke="none"/>
    <path d="M112.6 206.3 L112.6 213.95 111.85 214.5 108.35 215.05 Q106.1 215.05 104.55 214.5 L103.4 213.95 103.4 206.3 104.75 206.85 108.35 207.4 Q111.4 207.4 112.6 206.3" fill="url(#gradient2)" fill-rule="evenodd" stroke="none"/>
    <path d="M105.6 213.15 L104.5 212.6 104.5 208.65 105.6 209.2 105.6 213.15" fill="#0c0c0c" fill-rule="evenodd" stroke="none"/>
    <path d="M108.7 213.6 L107.6 213.6 107.6 209.8 108.7 209.8 108.7 213.6" fill="#0c0c0c" fill-rule="evenodd" stroke="none"/>
    <path d="M111.6 212.6 L110.5 213.15 110.5 209.2 111.6 208.65 111.6 212.6" fill="#0c0c0c" fill-rule="evenodd" stroke="none"/>
    <path d="M158.25 151.0 L149.8 151.0 Q149.0 151.0 148.4 150.4 147.8 149.85 147.8 149.0 L147.8 144.75 Q147.8 143.95 148.4 143.35 149.0 142.75 149.8 142.75 L158.25 142.75 Q159.1 142.75 159.65 143.35 160.25 143.95 160.25 144.75 L160.25 149.0 Q160.25 149.85 159.65 150.4 159.1 151.0 158.25 151.0" fill="url(#gradient3)" fill-rule="evenodd" stroke="none"/>
    <path d="M153.7 142.75 Q154.1 142.75 154.4 143.05 L154.7 143.75 154.7 150.0 154.4 150.7 Q154.1 151.0 153.7 151.0 L148.8 151.0 148.1 150.7 147.8 150.0 147.8 143.75 Q147.8 143.35 148.1 143.05 148.4 142.75 148.8 142.75 L153.7 142.75" fill="url(#gradient4)" fill-rule="evenodd" stroke="none"/>
    <path d="M153.6 142.75 L153.6 151.0 148.85 151.0 148.85 142.75 153.6 142.75" fill="#363738" fill-rule="evenodd" stroke="none"/>
    <path d="M153.0 149.05 L153.0 150.0 149.4 150.0 149.4 149.05 153.0 149.05" fill="#0c0c0c" fill-rule="evenodd" stroke="none"/>
    <path d="M153.0 143.65 L153.0 144.6 149.4 144.6 149.4 143.65 153.0 143.65" fill="#0c0c0c" fill-rule="evenodd" stroke="none"/>
    <path d="M160.85 151.45 L153.2 151.45 Q154.3 149.55 154.3 146.5 154.3 144.6 153.75 143.25 L153.2 142.3 160.85 142.3 161.4 143.05 Q161.95 144.25 161.95 146.5 161.95 150.1 160.85 151.45" fill="url(#gradient5)" fill-rule="evenodd" stroke="none"/>
    <path d="M159.5 150.35 L155.55 150.35 156.05 149.3 160.05 149.3 159.5 150.35" fill="#0c0c0c" fill-rule="evenodd" stroke="none"/>
    <path d="M160.5 147.3 L156.7 147.3 156.7 146.2 160.5 146.2 160.5 147.3" fill="#0c0c0c" fill-rule="evenodd" stroke="none"/>
    <path d="M160.05 144.35 L156.05 144.35 155.55 143.3 159.5 143.3 160.05 144.35" fill="#0c0c0c" fill-rule="evenodd" stroke="none"/>
    <path d="M56.55 142.75 L64.95 142.75 Q65.8 142.75 66.35 143.35 66.95 143.95 66.95 144.75 L66.95 149.0 Q66.95 149.85 66.35 150.4 65.8 151.0 64.95 151.0 L56.55 151.0 Q55.75 151.0 55.15 150.4 54.55 149.85 54.55 149.0 L54.55 144.75 Q54.55 143.95 55.15 143.35 55.75 142.75 56.55 142.75" fill="url(#gradient6)" fill-rule="evenodd" stroke="none"/>
    <path d="M61.1 142.75 L65.95 142.75 Q66.35 142.75 66.65 143.05 L66.95 143.75 66.95 150.0 66.65 150.7 65.95 151.0 61.1 151.0 Q60.7 151.0 60.4 150.7 60.1 150.4 60.1 150.0 L60.1 143.75 Q60.1 143.35 60.4 143.05 60.7 142.75 61.1 142.75" fill="url(#gradient7)" fill-rule="evenodd" stroke="none"/>
    <path d="M61.2 142.75 L65.95 142.75 65.95 151.0 61.2 151.0 61.2 142.75" fill="#363738" fill-rule="evenodd" stroke="none"/>
    <path d="M61.8 149.05 L65.35 149.05 65.35 150.0 61.8 150.0 61.8 149.05" fill="#0c0c0c" fill-rule="evenodd" stroke="none"/>
    <path d="M61.8 143.65 L65.35 143.65 65.35 144.6 61.8 144.6 61.8 143.65" fill="#0c0c0c" fill-rule="evenodd" stroke="none"/>
    <path d="M61.05 143.25 Q60.5 144.6 60.5 146.5 60.5 149.55 61.6 151.45 L53.95 151.45 53.4 150.35 Q52.85 148.75 52.85 146.5 52.85 144.25 53.4 143.05 L53.95 142.3 61.6 142.3 61.05 143.25" fill="url(#gradient8)" fill-rule="evenodd" stroke="none"/>
    <path d="M54.75 149.3 L58.7 149.3 59.25 150.35 55.3 150.35 54.75 149.3" fill="#0c0c0c" fill-rule="evenodd" stroke="none"/>
    <path d="M54.3 146.2 L58.1 146.2 58.1 147.3 54.3 147.3 54.3 146.2" fill="#0c0c0c" fill-rule="evenodd" stroke="none"/>
    <path d="M55.3 143.3 L59.25 143.3 58.7 144.35 54.75 144.35 55.3 143.3" fill="#0c0c0c" fill-rule="evenodd" stroke="none"/>
    <path d="M111.9 108.55 L125.2 123.75 125.2 194.25 111.9 194.15 111.9 108.55" fill="url(#gradient9)" fill-rule="evenodd" stroke="none"/>
    <path d="M103.2 108.55 L103.2 194.15 89.9 194.25 89.9 123.75 103.2 108.55" fill="url(#gradient10)" fill-rule="evenodd" stroke="none"/>
    <path d="M81.15 179.85 L84.0 180.35 Q85.6 180.85 86.65 181.55 L87.8 182.35 Q88.8 183.05 90.4 183.55 L93.25 184.05 122.3 184.05 125.15 183.55 Q126.75 183.05 127.75 182.3 L128.75 181.6 Q129.75 180.9 131.35 180.35 132.95 179.85 134.2 179.85 L140.5 179.85 Q141.75 179.85 143.0 180.65 144.2 181.5 144.7 182.6 L147.35 188.55 Q147.85 189.7 147.3 190.5 146.8 191.3 145.55 191.3 L70.4 191.3 Q69.15 191.3 68.6 190.5 68.05 189.65 68.45 188.5 L70.6 182.7 Q71.0 181.55 72.2 180.7 73.4 179.85 74.65 179.85 L81.15 179.85" fill="url(#gradient11)" fill-rule="evenodd" stroke="none"/>
    <path d="M77.0 190.95 L81.0 200.1 76.05 197.4 73.95 190.95 77.0 190.95" fill="#29292b" fill-rule="evenodd" stroke="none"/>
    <path d="M138.5 197.4 L133.6 200.1 137.55 190.95 140.6 190.95 138.5 197.4" fill="#29292b" fill-rule="evenodd" stroke="none"/>
    <path d="M78.6 197.3 L77.3 193.8 Q76.85 192.65 77.45 191.8 78.0 190.95 79.25 190.95 L135.75 190.95 Q137.0 190.95 137.55 191.75 138.1 192.6 137.6 193.75 L136.1 197.35 Q135.6 198.5 134.4 199.3 133.2 200.1 131.95 200.1 L82.65 200.1 Q81.4 200.1 80.25 199.3 79.05 198.45 78.6 197.3" fill="url(#gradient12)" fill-rule="evenodd" stroke="none"/>
    <path d="M76.25 190.95 L138.75 190.95 138.4 191.8 76.55 191.8 76.25 190.95" fill="#595657" fill-rule="evenodd" stroke="none"/>
    <path d="M78.7 197.1 L136.2 197.1 135.85 197.7 79.0 197.7 78.7 197.1" fill="#474647" fill-rule="evenodd" stroke="none"/>
    <path d="M78.4 196.5 L136.45 196.5 136.1 197.05 78.7 197.05 78.4 196.5" fill="#1e1d1f" fill-rule="evenodd" stroke="none"/>
    <path d="M97.4 207.35 L89.5 198.7 88.5 191.2 127.4 191.2 126.35 198.7 118.5 207.35 97.4 207.35" fill="url(#gradient13)" fill-rule="evenodd" stroke="none"/>
    <path d="M89.5 198.7 L97.4 207.35 118.5 207.35 126.35 198.7 127.4 191.2 88.5 191.2 89.5 198.7 M89.7 200.45 L88.55 199.1 88.5 198.85 87.35 190.2 128.55 190.2 127.3 199.15 127.1 199.4 118.95 208.35 96.95 208.35 96.7 208.0 89.7 200.5 89.7 200.45" fill="#1a1a1c" fill-rule="evenodd" stroke="none"/>
    <path d="M88.5 191.2 L127.4 191.2 127.0 194.4 88.95 194.4 88.5 191.2" fill="#484949" fill-rule="evenodd" stroke="none"/>
    <path d="M114.5 195.05 L115.3 194.55 123.25 194.55 124.15 195.9 123.7 198.7 122.8 199.7 116.15 205.65 99.75 205.65 93.1 199.7 92.2 198.7 91.9 195.9 92.75 194.55 100.8 194.55 101.45 195.05 114.5 195.05" fill="#491f02" fill-rule="evenodd" stroke="none"/>
    <path d="M114.5 195.05 L101.45 195.05 100.8 194.55 92.75 194.55 91.9 195.9 92.2 198.7 93.1 199.7 99.75 205.65 116.15 205.65 122.8 199.7 123.7 198.7 124.15 195.9 123.25 194.55 115.3 194.55 114.5 195.05 Z" fill="none" stroke="#bc5406" stroke-linecap="butt" stroke-linejoin="miter-clip" stroke-miterlimit="4.0" stroke-width="1.0"/>
    <path d="M115.65 195.1 L115.65 191.1 123.65 191.1 122.8 195.1 115.65 195.1" fill="#626363" fill-rule="evenodd" stroke="none"/>
    <path d="M115.65 191.8 L115.65 191.1 123.65 191.1 123.55 191.8 115.65 191.8" fill="#c1bda1" fill-rule="evenodd" stroke="none"/>
    <path d="M100.5 195.1 L93.35 195.1 92.45 191.1 100.5 191.1 100.5 195.1" fill="#626363" fill-rule="evenodd" stroke="none"/>
    <path d="M100.5 191.8 L92.6 191.8 92.45 191.1 100.5 191.1 100.5 191.8" fill="#c1bda1" fill-rule="evenodd" stroke="none"/>
    <path d="M101.35 191.95 L101.35 191.2 114.6 191.2 114.6 191.95 101.35 191.95" fill="#7e7f75" fill-rule="evenodd" stroke="none"/>
  </g>
  <defs>
    <linearGradient gradientTransform="matrix(0.005, 0.0, 0.0, -0.005, 108.0, 199.65)" gradientUnits="userSpaceOnUse" id="gradient0" spreadMethod="pad" x1="-819.2" x2="819.2">
      <stop offset="0.0" stop-color="#0f4291"/>
      <stop offset="0.5137254901960784" stop-color="#000a3a"/>
      <stop offset="0.6039215686274509" stop-color="#010e40"/>
      <stop offset="0.7215686274509804" stop-color="#041951"/>
      <stop offset="0.8588235294117647" stop-color="#092a6c"/>
      <stop offset="1.0" stop-color="#0f4291"/>
    </linearGradient>
    <linearGradient gradientTransform="matrix(0.005, 0.0, 0.0, -0.005, 108.0, 189.35)" gradientUnits="userSpaceOnUse" id="gradient1" spreadMethod="pad" x1="-819.2" x2="819.2">
      <stop offset="0.0" stop-color="#505050"/>
      <stop offset="0.09803921568627451" stop-color="#373737"/>
      <stop offset="0.5254901960784314" stop-color="#6e6963"/>
      <stop offset="0.8862745098039215" stop-color="#3d3d3d"/>
      <stop offset="1.0" stop-color="#505050"/>
    </linearGradient>
    <linearGradient gradientTransform="matrix(0.0056, 0.0, 0.0, -0.0056, 108.0, 210.7)" gradientUnits="userSpaceOnUse" id="gradient2" spreadMethod="pad" x1="-819.2" x2="819.2">
      <stop offset="0.0" stop-color="#505050"/>
      <stop offset="0.09803921568627451" stop-color="#373737"/>
      <stop offset="0.5254901960784314" stop-color="#6e6963"/>
      <stop offset="0.8862745098039215" stop-color="#3d3d3d"/>
      <stop offset="1.0" stop-color="#505050"/>
    </linearGradient>
    <linearGradient gradientTransform="matrix(0.0, -0.005, -0.005, 0.0, 154.05, 146.9)" gradientUnits="userSpaceOnUse" id="gradient3" spreadMethod="pad" x1="-819.2" x2="819.2">
      <stop offset="0.0" stop-color="#0f4291"/>
      <stop offset="0.5137254901960784" stop-color="#000a3a"/>
      <stop offset="0.6039215686274509" stop-color="#010e40"/>
      <stop offset="0.7215686274509804" stop-color="#041951"/>
      <stop offset="0.8588235294117647" stop-color="#092a6c"/>
      <stop offset="1.0" stop-color="#0f4291"/>
    </linearGradient>
    <linearGradient gradientTransform="matrix(0.0, -0.005, -0.005, 0.0, 151.25, 146.9)" gradientUnits="userSpaceOnUse" id="gradient4" spreadMethod="pad" x1="-819.2" x2="819.2">
      <stop offset="0.0" stop-color="#505050"/>
      <stop offset="0.09803921568627451" stop-color="#373737"/>
      <stop offset="0.5254901960784314" stop-color="#6e6963"/>
      <stop offset="0.8862745098039215" stop-color="#3d3d3d"/>
      <stop offset="1.0" stop-color="#505050"/>
    </linearGradient>
    <linearGradient gradientTransform="matrix(0.0, -0.0056, -0.0056, 0.0, 157.55, 146.9)" gradientUnits="userSpaceOnUse" id="gradient5" spreadMethod="pad" x1="-819.2" x2="819.2">
      <stop offset="0.0" stop-color="#505050"/>
      <stop offset="0.09803921568627451" stop-color="#373737"/>
      <stop offset="0.5254901960784314" stop-color="#6e6963"/>
      <stop offset="0.8862745098039215" stop-color="#3d3d3d"/>
      <stop offset="1.0" stop-color="#505050"/>
    </linearGradient>
    <linearGradient gradientTransform="matrix(0.0, -0.005, 0.005, 0.0, 60.75, 146.9)" gradientUnits="userSpaceOnUse" id="gradient6" spreadMethod="pad" x1="-819.2" x2="819.2">
      <stop offset="0.0" stop-color="#712708"/>
      <stop offset="0.2627450980392157" stop-color="#3e180b"/>
      <stop offset="0.48627450980392156" stop-color="#000000"/>
      <stop offset="0.8235294117647058" stop-color="#3d170a"/>
      <stop offset="1.0" stop-color="#662308"/>
    </linearGradient>
    <linearGradient gradientTransform="matrix(0.0, -0.005, 0.005, 0.0, 63.55, 146.9)" gradientUnits="userSpaceOnUse" id="gradient7" spreadMethod="pad" x1="-819.2" x2="819.2">
      <stop offset="0.0" stop-color="#505050"/>
      <stop offset="0.09803921568627451" stop-color="#373737"/>
      <stop offset="0.5254901960784314" stop-color="#6e6963"/>
      <stop offset="0.8862745098039215" stop-color="#3d3d3d"/>
      <stop offset="1.0" stop-color="#505050"/>
    </linearGradient>
    <linearGradient gradientTransform="matrix(0.0, -0.0056, 0.0056, 0.0, 57.2, 146.9)" gradientUnits="userSpaceOnUse" id="gradient8" spreadMethod="pad" x1="-819.2" x2="819.2">
      <stop offset="0.0" stop-color="#505050"/>
      <stop offset="0.09803921568627451" stop-color="#373737"/>
      <stop offset="0.5254901960784314" stop-color="#6e6963"/>
      <stop offset="0.8862745098039215" stop-color="#3d3d3d"/>
      <stop offset="1.0" stop-color="#505050"/>
    </linearGradient>
    <linearGradient gradientTransform="matrix(0.0, 0.0523, -0.0523, 0.0, 118.55, 151.4)" gradientUnits="userSpaceOnUse" id="gradient9" spreadMethod="pad" x1="-819.2" x2="819.2">
      <stop offset="0.0" stop-color="#252e51" stop-opacity="0.8"/>
      <stop offset="0.7333333333333333" stop-color="#252e51"/>
      <stop offset="0.8588235294117647" stop-color="#252e51" stop-opacity="0.8"/>
      <stop offset="1.0" stop-color="#2e406b" stop-opacity="0.8"/>
    </linearGradient>
    <linearGradient gradientTransform="matrix(0.0, -0.0523, -0.0523, 0.0, 96.55, 151.4)" gradientUnits="userSpaceOnUse" id="gradient10" spreadMethod="pad" x1="-819.2" x2="819.2">
      <stop offset="0.0" stop-color="#252e51" stop-opacity="0.8"/>
      <stop offset="0.7333333333333333" stop-color="#252e51"/>
      <stop offset="0.8588235294117647" stop-color="#252e51" stop-opacity="0.8"/>
      <stop offset="1.0" stop-color="#2e406b" stop-opacity="0.8"/>
    </linearGradient>
    <linearGradient gradientTransform="matrix(0.0, -0.007, -0.007, 0.0, 107.9, 185.6)" gradientUnits="userSpaceOnUse" id="gradient11" spreadMethod="pad" x1="-819.2" x2="819.2">
      <stop offset="0.00392156862745098" stop-color="#292929"/>
      <stop offset="0.09411764705882353" stop-color="#404242"/>
      <stop offset="0.3803921568627451" stop-color="#606165"/>
      <stop offset="0.9411764705882353" stop-color="#a8a8b3"/>
      <stop offset="1.0" stop-color="#454647"/>
    </linearGradient>
    <linearGradient gradientTransform="matrix(0.0, 0.0056, -0.0056, 0.0, 107.45, 195.55)" gradientUnits="userSpaceOnUse" id="gradient12" spreadMethod="pad" x1="-819.2" x2="819.2">
      <stop offset="0.0" stop-color="#2c2e32"/>
      <stop offset="1.0" stop-color="#383b3c"/>
    </linearGradient>
    <linearGradient gradientTransform="matrix(0.0, 0.0098, -0.0098, 0.0, 107.95, 199.25)" gradientUnits="userSpaceOnUse" id="gradient13" spreadMethod="pad" x1="-819.2" x2="819.2">
      <stop offset="0.0" stop-color="#1d1e1f"/>
      <stop offset="1.0" stop-color="#2b2e2f"/>
    </linearGradient>
  </defs>
</svg>
