<?xml version="1.0" encoding="UTF-8" standalone="no"?>
<svg xmlns:ffdec="https://www.free-decompiler.com/flash" xmlns:xlink="http://www.w3.org/1999/xlink" ffdec:objectType="shape" height="26.8px" width="25.8px" xmlns="http://www.w3.org/2000/svg">
  <g transform="matrix(1.0, 0.0, 0.0, 1.0, 0.0, 0.0)">
    <path d="M0.0 26.8 L7.15 23.4 8.6 20.55 17.95 20.55 19.5 23.4 25.8 26.8 0.0 26.8" fill="#f98400" fill-rule="evenodd" stroke="none"/>
    <path d="M11.1 24.6 L7.75 19.2 5.75 13.05 20.15 12.95 18.9 19.2 15.05 24.6 11.1 24.6" fill="#e36e00" fill-rule="evenodd" stroke="none"/>
    <path d="M20.4 14.4 L18.6 15.85 Q16.35 17.3 13.8 17.3 11.25 17.3 8.3 15.85 L5.9 14.4 3.7 11.6 1.8 11.6 1.8 9.25 5.2 6.9 10.45 0.0 16.9 0.0 20.55 7.2 23.05 9.7 23.05 11.6 21.3 12.0 20.4 14.4" fill="#f98400" fill-rule="evenodd" stroke="none"/>
    <path d="M21.9 11.85 L21.3 12.0 20.4 14.4 18.6 15.85 Q16.35 17.3 13.8 17.3 11.25 17.3 8.3 15.85 L5.9 14.4 3.95 11.9 Q4.45 9.65 6.95 8.15 9.5 6.65 12.95 6.65 16.35 6.65 18.9 8.15 21.4 9.6 21.9 11.85" fill="#d15c00" fill-rule="evenodd" stroke="none"/>
    <path d="M13.1 12.0 Q17.75 12.0 20.9 13.1 L20.4 14.4 18.6 15.85 Q16.35 17.3 13.8 17.3 11.25 17.3 8.3 15.85 L5.9 14.4 5.0 13.25 Q8.0 12.0 13.1 12.0" fill="#ffa200" fill-rule="evenodd" stroke="none"/>
    <path d="M18.9 16.1 L19.5 15.2 20.6 15.45 20.9 17.3 20.0 18.3 19.3 18.7 18.15 19.15 18.9 16.1" fill="#d35e00" fill-rule="evenodd" stroke="none"/>
    <path d="M7.1 16.1 L7.9 19.15 6.7 18.7 6.05 18.3 5.15 17.3 5.45 15.45 6.5 15.2 7.1 16.1" fill="#d35e00" fill-rule="evenodd" stroke="none"/>
    <path d="M15.7 8.55 Q15.7 9.7 14.9 10.5 14.1 11.3 12.95 11.3 11.85 11.3 11.0 10.5 10.2 9.7 10.2 8.55 10.2 7.45 11.0 6.6 11.85 5.8 12.95 5.8 14.1 5.8 14.9 6.6 15.7 7.45 15.7 8.55" fill="#ff9600" fill-rule="evenodd" stroke="none"/>
  </g>
</svg>
