<?xml version="1.0" encoding="UTF-8" standalone="no"?>
<svg xmlns:ffdec="https://www.free-decompiler.com/flash" xmlns:xlink="http://www.w3.org/1999/xlink" ffdec:objectType="shape" height="243.75px" width="129.4px" xmlns="http://www.w3.org/2000/svg">
  <g transform="matrix(1.0, 0.0, 0.0, 1.0, -61.0, -34.85)">
    <path d="M82.25 161.9 L72.45 167.55 71.8 166.45 81.6 160.8 82.25 161.9" fill="#211c18" fill-rule="evenodd" stroke="none"/>
    <path d="M132.95 161.9 L133.6 160.8 143.2 166.6 142.55 167.65 132.95 161.9" fill="#211c18" fill-rule="evenodd" stroke="none"/>
    <path d="M108.2 105.15 L108.2 116.55 106.95 116.55 106.95 105.15 108.2 105.15" fill="#211c18" fill-rule="evenodd" stroke="none"/>
    <path d="M67.45 135.1 L67.45 159.25 65.5 159.25 62.95 156.1 62.95 138.25 65.5 135.1 67.45 135.1" fill="url(#gradient0)" fill-rule="evenodd" stroke="none"/>
    <path d="M67.45 135.1 L67.45 159.15 65.5 159.15 65.5 135.1 67.45 135.1" fill="url(#gradient1)" fill-rule="evenodd" stroke="none"/>
    <path d="M61.0 140.75 L63.0 140.75 63.0 153.55 61.0 153.55 61.0 140.75" fill="url(#gradient2)" fill-rule="evenodd" stroke="none"/>
    <path d="M147.4 135.1 L149.35 135.1 151.9 138.25 151.9 156.1 149.35 159.25 147.4 159.25 147.4 135.1" fill="url(#gradient3)" fill-rule="evenodd" stroke="none"/>
    <path d="M147.4 135.1 L149.35 135.1 149.35 159.15 147.4 159.15 147.4 135.1" fill="url(#gradient4)" fill-rule="evenodd" stroke="none"/>
    <path d="M153.8 140.75 L153.8 153.55 151.85 153.55 151.85 140.75 153.8 140.75" fill="url(#gradient5)" fill-rule="evenodd" stroke="none"/>
    <path d="M187.5 40.6 Q187.5 42.6 186.1 43.95 184.75 45.35 182.75 45.35 180.8 45.35 179.4 43.95 178.0 42.6 178.0 40.6 178.0 38.65 179.4 37.25 180.8 35.85 182.75 35.85 184.75 35.85 186.1 37.25 187.5 38.65 187.5 40.6" fill="#2b2b2b" fill-rule="evenodd" stroke="none"/>
    <path d="M179.4 37.25 Q178.0 38.65 178.0 40.6 178.0 42.6 179.4 43.95 180.8 45.35 182.75 45.35 184.75 45.35 186.1 43.95 187.5 42.6 187.5 40.6 187.5 38.65 186.1 37.25 184.75 35.85 182.75 35.85 180.8 35.85 179.4 37.25 M182.75 34.85 Q185.15 34.85 186.85 36.55 188.5 38.25 188.5 40.6 188.5 43.0 186.85 44.7 185.15 46.35 182.75 46.35 180.4 46.35 178.7 44.7 177.0 43.0 177.0 40.6 177.0 38.25 178.7 36.55 180.4 34.85 182.75 34.85" fill="#515050" fill-rule="evenodd" stroke="none"/>
    <path d="M186.25 40.6 Q186.25 42.05 185.25 43.1 184.2 44.1 182.75 44.1 181.3 44.1 180.3 43.1 179.25 42.05 179.25 40.6 179.25 39.2 180.3 38.15 181.35 37.1 182.75 37.1 184.2 37.1 185.25 38.15 186.25 39.15 186.25 40.6" fill="#ebc76d" fill-rule="evenodd" stroke="none"/>
    <path d="M186.1 269.5 Q187.5 270.9 187.5 272.85 187.5 274.85 186.1 276.2 184.75 277.6 182.75 277.6 180.8 277.6 179.4 276.2 178.0 274.85 178.0 272.85 178.0 270.9 179.4 269.5 180.8 268.1 182.75 268.1 184.75 268.1 186.1 269.5" fill="#2b2b2b" fill-rule="evenodd" stroke="none"/>
    <path d="M182.75 267.1 Q185.15 267.1 186.85 268.8 188.5 270.5 188.5 272.85 188.5 275.25 186.85 276.95 185.15 278.6 182.75 278.6 180.4 278.6 178.7 276.95 177.0 275.25 177.0 272.85 177.0 270.5 178.7 268.8 180.4 267.1 182.75 267.1 M182.75 268.1 Q180.8 268.1 179.4 269.5 178.0 270.9 178.0 272.85 178.0 274.85 179.4 276.2 180.8 277.6 182.75 277.6 184.75 277.6 186.1 276.2 187.5 274.85 187.5 272.85 187.5 270.9 186.1 269.5 184.75 268.1 182.75 268.1" fill="#515050" fill-rule="evenodd" stroke="none"/>
    <path d="M185.25 270.4 Q186.25 271.4 186.25 272.85 186.25 274.3 185.25 275.35 184.2 276.35 182.75 276.35 181.3 276.35 180.3 275.35 179.25 274.3 179.25 272.85 179.25 271.45 180.3 270.4 181.35 269.35 182.75 269.35 184.2 269.35 185.25 270.4" fill="#ebc76d" fill-rule="evenodd" stroke="none"/>
    <path d="M190.4 111.8 L182.8 119.4 182.8 115.9 190.4 108.4 190.4 111.8" fill="#282835" fill-rule="evenodd" stroke="none"/>
    <path d="M190.4 106.0 L182.8 113.6 182.8 110.1 190.4 102.55 190.4 106.0" fill="#282835" fill-rule="evenodd" stroke="none"/>
    <path d="M190.4 100.15 L182.8 107.75 182.8 104.25 190.4 96.75 190.4 100.15" fill="#282835" fill-rule="evenodd" stroke="none"/>
    <path d="M190.4 94.35 L182.8 101.95 182.8 98.4 190.4 90.9 190.4 94.35" fill="#282835" fill-rule="evenodd" stroke="none"/>
    <path d="M190.4 88.5 L182.8 96.1 182.8 92.6 190.4 85.05 190.4 88.5" fill="#282835" fill-rule="evenodd" stroke="none"/>
    <path d="M190.4 82.65 L182.8 90.25 182.8 86.75 190.4 79.25 190.4 82.65" fill="#282835" fill-rule="evenodd" stroke="none"/>
  </g>
  <defs>
    <linearGradient gradientTransform="matrix(0.0, -0.0148, -0.0148, 0.0, 65.2, 147.15)" gradientUnits="userSpaceOnUse" id="gradient0" spreadMethod="pad" x1="-819.2" x2="819.2">
      <stop offset="0.0" stop-color="#75757a"/>
      <stop offset="0.40784313725490196" stop-color="#737375"/>
      <stop offset="0.7019607843137254" stop-color="#bac2c2"/>
      <stop offset="1.0" stop-color="#babfbf"/>
    </linearGradient>
    <linearGradient gradientTransform="matrix(0.0, -0.0147, -0.0147, 0.0, 66.5, 147.15)" gradientUnits="userSpaceOnUse" id="gradient1" spreadMethod="pad" x1="-819.2" x2="819.2">
      <stop offset="0.0" stop-color="#505050"/>
      <stop offset="1.0" stop-color="#a4a4a4"/>
    </linearGradient>
    <linearGradient gradientTransform="matrix(0.0, 0.0078, -0.0078, 0.0, 62.0, 147.15)" gradientUnits="userSpaceOnUse" id="gradient2" spreadMethod="pad" x1="-819.2" x2="819.2">
      <stop offset="0.0" stop-color="#505050"/>
      <stop offset="1.0" stop-color="#a4a4a4"/>
    </linearGradient>
    <linearGradient gradientTransform="matrix(0.0, 0.0148, -0.0148, 0.0, 149.65, 147.15)" gradientUnits="userSpaceOnUse" id="gradient3" spreadMethod="pad" x1="-819.2" x2="819.2">
      <stop offset="0.0" stop-color="#75757a"/>
      <stop offset="0.40784313725490196" stop-color="#737375"/>
      <stop offset="0.7019607843137254" stop-color="#bac2c2"/>
      <stop offset="1.0" stop-color="#babfbf"/>
    </linearGradient>
    <linearGradient gradientTransform="matrix(0.0, 0.0147, -0.0147, 0.0, 148.35, 147.15)" gradientUnits="userSpaceOnUse" id="gradient4" spreadMethod="pad" x1="-819.2" x2="819.2">
      <stop offset="0.0" stop-color="#505050"/>
      <stop offset="1.0" stop-color="#a4a4a4"/>
    </linearGradient>
    <linearGradient gradientTransform="matrix(0.0, -0.0078, -0.0078, 0.0, 152.85, 147.15)" gradientUnits="userSpaceOnUse" id="gradient5" spreadMethod="pad" x1="-819.2" x2="819.2">
      <stop offset="0.0" stop-color="#505050"/>
      <stop offset="1.0" stop-color="#a4a4a4"/>
    </linearGradient>
  </defs>
</svg>
