<?xml version="1.0" encoding="UTF-8" standalone="no"?>
<svg xmlns:ffdec="https://www.free-decompiler.com/flash" xmlns:xlink="http://www.w3.org/1999/xlink" ffdec:objectType="shape" height="24.05px" width="100.35px" xmlns="http://www.w3.org/2000/svg">
  <g transform="matrix(1.0, 0.0, 0.0, 1.0, -0.35, -0.5)">
    <path d="M5.6 1.45 L95.45 1.45 Q97.15 1.45 98.45 2.6 99.65 3.65 99.65 5.25 L99.65 19.8 Q99.65 21.4 98.45 22.55 97.15 23.6 95.45 23.6 L5.6 23.6 Q3.9 23.6 2.7 22.55 1.4 21.4 1.4 19.8 L1.4 5.25 Q1.4 3.65 2.7 2.6 3.9 1.45 5.6 1.45" fill="url(#gradient0)" fill-rule="evenodd" stroke="none"/>
    <path d="M5.6 2.4 Q4.3 2.4 3.4 3.25 2.45 4.05 2.45 5.25 L2.45 19.8 Q2.45 21.0 3.4 21.8 4.3 22.65 5.6 22.65 L95.45 22.65 Q96.75 22.65 97.65 21.8 98.6 21.0 98.6 19.8 L98.6 5.25 Q98.6 4.05 97.65 3.25 96.75 2.4 95.45 2.4 L5.6 2.4 M0.35 5.25 Q0.35 3.3 1.9 1.85 3.45 0.5 5.6 0.5 L95.45 0.5 Q97.6 0.5 99.15 1.85 100.7 3.3 100.7 5.25 L100.7 19.8 Q100.7 21.75 99.15 23.2 97.6 24.55 95.45 24.55 L5.6 24.55 Q3.45 24.55 1.9 23.2 0.35 21.75 0.35 19.8 L0.35 5.25" fill="#e4a100" fill-rule="evenodd" stroke="none"/>
  </g>
  <defs>
    <linearGradient gradientTransform="matrix(0.0599, 0.0, 0.0, -0.0543, 50.55, 12.5)" gradientUnits="userSpaceOnUse" id="gradient0" spreadMethod="pad" x1="-819.2" x2="819.2">
      <stop offset="0.0" stop-color="#ab5000"/>
      <stop offset="0.5294117647058824" stop-color="#8f3800"/>
      <stop offset="1.0" stop-color="#ab5c00"/>
    </linearGradient>
  </defs>
</svg>
