<?xml version="1.0" encoding="UTF-8" standalone="no"?>
<svg xmlns:ffdec="https://www.free-decompiler.com/flash" xmlns:xlink="http://www.w3.org/1999/xlink" ffdec:objectType="shape" height="25.35px" width="105.6px" xmlns="http://www.w3.org/2000/svg">
  <g transform="matrix(1.0, 0.0, 0.0, 1.0, 2.3, 0.15)">
    <path d="M3.6 0.85 L98.15 0.85 Q99.95 0.85 101.3 2.05 102.55 3.2 102.55 4.85 L102.55 20.2 Q102.55 21.85 101.3 23.05 99.95 24.2 98.15 24.2 L3.6 24.2 Q1.75 24.2 0.5 23.05 -0.85 21.85 -0.85 20.2 L-0.85 4.85 Q-0.85 3.2 0.5 2.05 1.75 0.85 3.6 0.85" fill="#06308e" fill-rule="evenodd" stroke="none"/>
    <path d="M97.8 23.2 Q99.15 23.2 100.1 22.3 101.1 21.45 101.1 20.2 L101.1 4.85 Q101.1 3.6 100.1 2.75 99.15 1.85 97.8 1.85 L3.2 1.85 Q1.85 1.85 0.9 2.75 -0.1 3.6 -0.1 4.85 L-0.1 20.2 Q-0.1 21.45 0.9 22.3 1.85 23.2 3.2 23.2 L97.8 23.2 M3.2 -0.15 L97.8 -0.15 Q100.05 -0.15 101.7 1.3 103.3 2.8 103.3 4.85 L103.3 20.2 Q103.3 22.25 101.7 23.75 100.05 25.2 97.8 25.2 L3.2 25.2 Q0.95 25.2 -0.7 23.75 -2.3 22.25 -2.3 20.2 L-2.3 4.85 Q-2.3 2.8 -0.7 1.3 0.95 -0.15 3.2 -0.15" fill="#0659ff" fill-rule="evenodd" stroke="none"/>
    <path d="M86.0 3.6 L12.25 3.6 9.7 1.4 88.6 1.4 86.0 3.6 Z" ffdec:has-small-stroke="true" ffdec:original-stroke-width="0.5" fill="none" stroke="#0388e8" stroke-linecap="butt" stroke-linejoin="miter-clip" stroke-miterlimit="4.0" stroke-width="1.0"/>
    <path d="M86.0 3.6 L12.25 3.6 9.7 1.4 88.6 1.4 86.0 3.6" fill="#0557c4" fill-rule="evenodd" stroke="none"/>
    <path d="M86.0 3.6 L12.25 3.6 9.7 1.4 88.6 1.4 86.0 3.6 Z" ffdec:has-small-stroke="true" ffdec:original-stroke-width="0.5" fill="none" stroke="#0388e8" stroke-linecap="round" stroke-linejoin="round" stroke-width="1.0"/>
    <path d="M86.0 20.75 L12.25 20.75 9.7 22.95 88.6 22.95 86.0 20.75 Z" ffdec:has-small-stroke="true" ffdec:original-stroke-width="0.5" fill="none" stroke="#0388e8" stroke-linecap="butt" stroke-linejoin="miter-clip" stroke-miterlimit="4.0" stroke-width="1.0"/>
    <path d="M86.0 20.75 L12.25 20.75 9.7 22.95 88.6 22.95 86.0 20.75" fill="#0557c4" fill-rule="evenodd" stroke="none"/>
    <path d="M86.0 20.75 L12.25 20.75 9.7 22.95 88.6 22.95 86.0 20.75 Z" ffdec:has-small-stroke="true" ffdec:original-stroke-width="0.5" fill="none" stroke="#0388e8" stroke-linecap="round" stroke-linejoin="round" stroke-width="1.0"/>
  </g>
</svg>
