<?xml version="1.0" encoding="UTF-8" standalone="no"?>
<svg xmlns:ffdec="https://www.free-decompiler.com/flash" xmlns:xlink="http://www.w3.org/1999/xlink" ffdec:objectType="shape" height="25.35px" width="95.6px" xmlns="http://www.w3.org/2000/svg">
  <g transform="matrix(1.0, 0.0, 0.0, 1.0, 0.0, 0.0)">
    <path d="M90.6 24.35 L5.0 24.35 Q3.35 24.35 2.2 23.2 1.0 22.0 1.0 20.35 L1.0 5.0 Q1.0 3.35 2.2 2.2 3.35 1.0 5.0 1.0 L90.6 1.0 Q92.25 1.0 93.45 2.2 94.6 3.35 94.6 5.0 L94.6 20.35 Q94.6 22.0 93.45 23.2 92.25 24.35 90.6 24.35" fill="#0c1d59" fill-rule="evenodd" stroke="none"/>
    <path d="M93.6 5.0 Q93.6 3.75 92.7 2.9 91.85 2.0 90.6 2.0 L5.0 2.0 Q3.75 2.0 2.9 2.9 2.0 3.75 2.0 5.0 L2.0 20.35 Q2.0 21.6 2.9 22.45 3.75 23.35 5.0 23.35 L90.6 23.35 Q91.85 23.35 92.7 22.45 93.6 21.6 93.6 20.35 L93.6 5.0 M94.15 1.45 Q95.6 2.95 95.6 5.0 L95.6 20.35 Q95.6 22.4 94.15 23.9 92.65 25.35 90.6 25.35 L5.0 25.35 Q2.95 25.35 1.45 23.9 0.0 22.4 0.0 20.35 L0.0 5.0 Q0.0 2.95 1.45 1.45 2.95 0.0 5.0 0.0 L90.6 0.0 Q92.65 0.0 94.15 1.45" fill="#1041af" fill-rule="evenodd" stroke="none"/>
  </g>
</svg>
