<?xml version="1.0" encoding="UTF-8" standalone="no"?>
<svg xmlns:ffdec="https://www.free-decompiler.com/flash" xmlns:xlink="http://www.w3.org/1999/xlink" ffdec:objectType="shape" height="45.45px" width="45.45px" xmlns="http://www.w3.org/2000/svg">
  <g transform="matrix(1.0, 0.0, 0.0, 1.0, -4.1, -4.4)">
    <path d="M47.55 27.1 Q47.55 35.7 41.5 41.75 35.45 47.85 26.85 47.85 18.3 47.85 12.2 41.75 6.1 35.65 6.1 27.1 6.1 18.5 12.15 12.45 18.25 6.4 26.8 6.4 35.4 6.4 41.45 12.45 47.55 18.5 47.55 27.1" fill="url(#gradient0)" fill-rule="evenodd" stroke="none"/>
    <path d="M47.55 27.1 Q47.55 18.5 41.45 12.45 35.4 6.4 26.8 6.4 18.25 6.4 12.15 12.45 6.1 18.5 6.1 27.1 6.1 35.65 12.2 41.75 18.3 47.85 26.85 47.85 35.45 47.85 41.5 41.75 47.55 35.7 47.55 27.1 Z" fill="none" stroke="#0b50b5" stroke-linecap="butt" stroke-linejoin="miter-clip" stroke-miterlimit="4.0" stroke-width="4.0"/>
    <path d="M47.15 27.1 Q47.15 35.5 41.2 41.45 35.3 47.4 26.85 47.4 18.4 47.45 12.45 41.5 6.5 35.55 6.5 27.1 6.5 18.65 12.45 12.7 18.4 6.75 26.85 6.75 35.25 6.75 41.2 12.7 47.15 18.65 47.15 27.1" fill="#08399b" fill-rule="evenodd" stroke="none"/>
    <path d="M40.3 40.55 Q34.7 46.15 26.85 46.15 18.95 46.15 13.35 40.55 7.8 35.0 7.8 27.1 7.8 19.2 13.35 13.6 18.95 8.05 26.85 8.05 34.75 8.05 40.3 13.6 45.85 19.2 45.85 27.1 45.85 35.0 40.3 40.55" fill="#0440b0" fill-rule="evenodd" stroke="none"/>
    <path d="M41.1 17.25 L39.65 18.1 Q36.25 13.0 30.3 11.6 24.25 10.2 18.95 13.4 15.95 15.15 14.0 18.05 L12.6 17.25 Q14.65 14.05 18.1 11.95 24.0 8.45 30.65 10.05 37.35 11.6 41.1 17.25" fill="#06b3ff" fill-rule="evenodd" stroke="none"/>
    <path d="M19.05 40.05 Q22.45 42.0 26.35 42.1 L26.35 43.75 Q22.0 43.65 18.25 41.5 14.4 39.25 12.1 35.4 9.8 31.6 9.75 27.1 9.65 22.8 11.6 18.95 L13.05 19.75 Q11.3 23.25 11.4 27.1 11.5 31.15 13.55 34.6 15.55 38.05 19.05 40.05" fill="#06b3ff" fill-rule="evenodd" stroke="none"/>
    <path d="M41.7 31.0 Q43.35 25.2 40.65 19.8 L42.05 18.95 Q45.1 24.95 43.25 31.45 41.4 37.95 35.55 41.4 32.25 43.4 28.3 43.7 L28.3 42.05 Q31.8 41.75 34.75 40.0 40.0 36.85 41.7 31.0" fill="#06b3ff" fill-rule="evenodd" stroke="none"/>
  </g>
  <defs>
    <linearGradient gradientTransform="matrix(0.0, -0.0253, -0.0253, 0.0, 26.85, 27.1)" gradientUnits="userSpaceOnUse" id="gradient0" spreadMethod="pad" x1="-819.2" x2="819.2">
      <stop offset="0.0" stop-color="#0d2b54"/>
      <stop offset="1.0" stop-color="#21638f"/>
    </linearGradient>
  </defs>
</svg>
