<?xml version="1.0" encoding="UTF-8" standalone="no"?>
<svg xmlns:ffdec="https://www.free-decompiler.com/flash" xmlns:xlink="http://www.w3.org/1999/xlink" ffdec:objectType="shape" height="13.35px" width="28.45px" xmlns="http://www.w3.org/2000/svg">
  <g transform="matrix(1.0, 0.0, 0.0, 1.0, 1.35, 0.6)">
    <path d="M24.75 12.2 L0.45 12.2 Q-0.4 12.2 -0.65 11.6 -0.95 11.05 -0.45 10.45 L6.75 1.05 7.75 0.25 Q8.4 -0.05 8.95 -0.05 L24.95 -0.05 Q25.65 -0.05 26.15 0.45 26.55 1.0 26.55 1.6 L26.4 10.55 Q26.4 11.2 25.9 11.7 25.4 12.2 24.75 12.2" fill="url(#gradient0)" fill-rule="evenodd" stroke="none"/>
    <path d="M25.75 0.8 Q25.4 0.5 24.95 0.5 L8.95 0.5 Q7.8 0.5 7.2 1.35 L0.0 10.75 -0.15 11.35 Q0.0 11.65 0.45 11.65 L24.75 11.65 Q25.2 11.65 25.5 11.3 L25.85 10.55 26.0 1.6 25.75 0.8 M24.95 -0.6 Q25.85 -0.6 26.5 0.05 27.1 0.75 27.1 1.65 L26.95 10.55 Q26.95 11.45 26.3 12.1 25.65 12.75 24.75 12.75 L0.45 12.75 Q-0.7 12.75 -1.15 11.85 -1.6 11.05 -0.9 10.05 L6.35 0.7 Q7.25 -0.6 8.95 -0.6 L24.95 -0.6" fill="#0068ff" fill-rule="evenodd" stroke="none"/>
    <path d="M24.15 6.2 L21.3 10.1 18.1 10.1 21.2 6.15 18.1 2.1 21.0 2.0 24.15 6.2" fill="#1691f9" fill-rule="evenodd" stroke="none"/>
    <path d="M19.7 6.2 L16.85 10.1 13.65 10.1 16.7 6.15 13.65 2.1 16.55 2.0 19.7 6.2" fill="#1673f9" fill-rule="evenodd" stroke="none"/>
    <path d="M15.5 6.2 L12.65 10.1 9.45 10.1 12.55 6.15 9.45 2.1 12.4 2.0 15.5 6.2" fill="#053f93" fill-rule="evenodd" stroke="none"/>
  </g>
  <defs>
    <linearGradient gradientTransform="matrix(0.0167, 0.0, 0.0, -0.0167, 12.95, 6.05)" gradientUnits="userSpaceOnUse" id="gradient0" spreadMethod="pad" x1="-819.2" x2="819.2">
      <stop offset="0.0" stop-color="#05337a"/>
      <stop offset="0.17647058823529413" stop-color="#032970"/>
      <stop offset="0.4627450980392157" stop-color="#012168"/>
      <stop offset="1.0" stop-color="#001f66"/>
    </linearGradient>
  </defs>
</svg>
