<?xml version="1.0" encoding="UTF-8" standalone="no"?>
<svg xmlns:ffdec="https://www.free-decompiler.com/flash" xmlns:xlink="http://www.w3.org/1999/xlink" ffdec:objectType="shape" height="88.05px" width="299.65px" xmlns="http://www.w3.org/2000/svg">
  <g transform="matrix(1.0, 0.0, 0.0, 1.0, -0.5, -230.05)">
    <path d="M285.2 236.2 Q286.7 236.65 287.55 237.35 L296.9 244.85 Q297.75 245.5 298.35 246.7 298.95 247.85 298.95 248.85 L299.15 314.1 Q299.15 315.1 298.25 315.75 297.4 316.45 296.15 316.45 L20.9 316.45 Q19.65 316.45 18.8 315.75 17.9 315.1 17.9 314.1 L17.9 294.35 Q17.9 293.4 17.3 292.25 16.65 291.1 15.8 290.4 L5.95 282.5 Q5.1 281.85 4.5 280.65 3.9 279.5 3.9 278.55 L3.9 234.15 Q3.9 233.2 4.8 232.5 5.65 231.85 6.9 231.85 L110.6 231.85 113.4 232.25 Q114.95 232.7 115.9 233.3 L117.4 234.2 Q118.4 234.85 119.95 235.25 L122.75 235.7 282.45 235.7 285.2 236.2" fill="url(#gradient0)" fill-rule="evenodd" stroke="none"/>
    <path d="M285.2 236.2 Q286.7 236.65 287.55 237.35 L296.9 244.85 Q297.75 245.5 298.35 246.7 298.95 247.85 298.95 248.85 L299.15 314.1 Q299.15 315.1 298.25 315.75 297.4 316.45 296.15 316.45 L20.9 316.45 Q19.65 316.45 18.8 315.75 17.9 315.1 17.9 314.1 L17.9 294.35 Q17.9 293.4 17.3 292.25 16.65 291.1 15.8 290.4 L5.95 282.5 Q5.1 281.85 4.5 280.65 3.9 279.5 3.9 278.55 L3.9 234.15 Q3.9 233.2 4.8 232.5 5.65 231.85 6.9 231.85 L110.6 231.85 113.4 232.25 Q114.95 232.7 115.9 233.3 L117.4 234.2 Q118.4 234.85 119.95 235.25 L122.75 235.7 282.45 235.7 285.2 236.2 Z" fill="none" stroke="#0046b7" stroke-linecap="butt" stroke-linejoin="miter-clip" stroke-miterlimit="4.0" stroke-width="2.0"/>
    <path d="M1.0 283.25 L14.35 293.55 14.35 316.45 4.9 316.45 1.0 313.4 1.0 283.25" fill="#042d87" fill-rule="evenodd" stroke="none"/>
    <path d="M1.0 283.25 L1.0 313.4 4.9 316.45 14.35 316.45 14.35 293.55 1.0 283.25 Z" fill="none" stroke="#227cff" stroke-linecap="butt" stroke-linejoin="miter-clip" stroke-miterlimit="4.0" stroke-width="1.0"/>
    <path d="M154.05 307.55 Q154.05 308.8 153.15 309.65 152.3 310.55 151.05 310.55 L40.4 310.55 Q39.15 310.55 38.3 309.65 37.4 308.8 37.4 307.55 L37.4 297.55 Q37.4 296.3 38.3 295.45 39.15 294.55 40.4 294.55 L151.05 294.55 Q152.3 294.55 153.15 295.45 154.05 296.3 154.05 297.55 L154.05 307.55" fill="#021e7f" fill-rule="evenodd" stroke="none"/>
    <path d="M154.05 307.55 Q154.05 308.8 153.15 309.65 152.3 310.55 151.05 310.55 L40.4 310.55 Q39.15 310.55 38.3 309.65 37.4 308.8 37.4 307.55 L37.4 297.55 Q37.4 296.3 38.3 295.45 39.15 294.55 40.4 294.55 L151.05 294.55 Q152.3 294.55 153.15 295.45 154.05 296.3 154.05 297.55 L154.05 307.55 Z" fill="none" stroke="#04258e" stroke-linecap="butt" stroke-linejoin="miter-clip" stroke-miterlimit="4.0" stroke-width="1.0"/>
  </g>
  <defs>
    <linearGradient gradientTransform="matrix(0.0, -0.0516, -0.0668, 0.0, 151.5, 274.15)" gradientUnits="userSpaceOnUse" id="gradient0" spreadMethod="pad" x1="-819.2" x2="819.2">
      <stop offset="0.00392156862745098" stop-color="#011880"/>
      <stop offset="1.0" stop-color="#020042"/>
    </linearGradient>
  </defs>
</svg>
