<?xml version="1.0" encoding="UTF-8" standalone="no"?>
<svg xmlns:ffdec="https://www.free-decompiler.com/flash" xmlns:xlink="http://www.w3.org/1999/xlink" ffdec:objectType="shape" height="22.0px" width="21.95px" xmlns="http://www.w3.org/2000/svg">
  <g transform="matrix(1.0, 0.0, 0.0, 1.0, 0.0, 0.0)">
    <path d="M1.5 20.5 Q0.5 19.45 0.5 18.0 L0.5 4.0 Q0.5 2.55 1.5 1.55 2.55 0.5 4.0 0.5 L17.95 0.5 Q19.4 0.5 20.45 1.55 21.45 2.55 21.45 4.0 L21.45 18.0 Q21.45 19.45 20.45 20.5 19.4 21.5 17.95 21.5 L4.0 21.5 Q2.55 21.5 1.5 20.5" fill="#021c63" fill-rule="evenodd" stroke="none"/>
    <path d="M4.0 1.0 Q2.75 1.0 1.9 1.9 1.0 2.75 1.0 4.0 L1.0 18.0 Q1.0 19.25 1.9 20.1 2.75 21.0 4.0 21.0 L17.95 21.0 Q19.2 21.0 20.05 20.1 20.95 19.25 20.95 18.0 L20.95 4.0 Q20.95 2.75 20.05 1.9 19.2 1.0 17.95 1.0 L4.0 1.0 M1.2 1.2 Q2.35 0.0 4.0 0.0 L17.95 0.0 Q19.65 0.0 20.8 1.2 21.95 2.35 21.95 4.0 L21.95 18.0 Q21.95 19.65 20.8 20.85 19.65 22.0 17.95 22.0 L4.0 22.0 Q2.35 22.0 1.2 20.85 0.0 19.65 0.0 18.0 L0.0 4.0 Q0.0 2.35 1.2 1.2" fill="#0074ff" fill-rule="evenodd" stroke="none"/>
  </g>
</svg>
