<?xml version="1.0" encoding="UTF-8" standalone="no"?>
<svg xmlns:ffdec="https://www.free-decompiler.com/flash" xmlns:xlink="http://www.w3.org/1999/xlink" ffdec:objectType="shape" height="15.15px" width="18.8px" xmlns="http://www.w3.org/2000/svg">
  <g transform="matrix(1.0, 0.0, 0.0, 1.0, -1.45, -4.1)">
    <path d="M19.0 7.0 L18.8 7.3 Q17.0 8.1 13.05 8.35 L12.6 8.35 Q10.75 9.25 7.75 9.7 L7.7 9.7 7.65 9.65 5.25 9.1 Q4.95 9.05 4.95 8.8 4.9 8.55 5.2 8.45 L5.2 8.4 5.45 8.35 5.25 8.15 4.8 7.3 4.8 7.0 5.0 6.8 5.75 6.6 5.15 4.6 5.2 4.3 Q5.25 4.15 5.45 4.15 L6.6 4.1 6.8 4.2 8.95 5.55 10.65 5.4 10.8 5.4 Q11.9 5.45 12.75 5.95 L17.6 6.3 18.85 6.7 19.0 7.0 M17.05 11.7 L17.15 12.05 16.95 12.3 Q14.95 13.3 10.1 13.5 8.0 14.5 4.75 14.95 L4.7 15.0 4.65 14.95 1.95 14.35 1.7 14.0 1.9 13.65 2.35 13.5 2.3 13.5 2.0 13.3 1.5 12.35 1.5 12.05 1.7 11.85 2.6 11.6 1.9 9.35 1.95 9.05 2.2 8.9 3.45 8.9 3.65 8.95 6.1 10.45 7.95 10.3 8.1 10.3 Q9.4 10.35 10.3 10.9 L15.7 11.35 17.05 11.7 M10.25 19.25 L10.1 19.25 7.95 18.75 7.7 18.45 7.9 18.1 8.05 18.05 7.95 17.9 7.55 17.15 7.55 16.85 7.75 16.65 8.4 16.45 7.85 14.75 Q7.8 14.55 7.9 14.45 L8.15 14.3 9.2 14.25 9.35 14.3 11.3 15.5 12.8 15.4 12.9 15.4 14.7 15.85 19.0 16.2 20.1 16.55 20.25 16.85 20.05 17.15 Q18.4 17.9 14.55 18.1 L10.25 19.25" fill="#20283b" fill-rule="evenodd" stroke="none"/>
    <path d="M10.45 11.4 L11.1 12.1 4.0 11.9 3.65 11.05 5.35 10.95 8.1 10.65 Q9.5 10.7 10.45 11.4" fill="#00215c" fill-rule="evenodd" stroke="none"/>
    <path d="M16.8 12.0 Q14.65 13.05 9.1 13.2 L2.3 13.15 1.8 12.2 3.05 11.85 2.2 9.25 3.45 9.25 6.75 11.25 15.1 11.55 16.8 12.0" fill="url(#gradient0)" fill-rule="evenodd" stroke="none"/>
    <path d="M15.1 11.55 L16.8 12.0 16.05 12.3 13.75 11.85 6.05 11.6 2.75 9.6 2.3 9.6 2.2 9.25 3.45 9.25 6.75 11.25 15.1 11.55" fill="url(#gradient1)" fill-rule="evenodd" stroke="none"/>
    <path d="M11.15 12.5 L10.65 13.15 6.05 13.25 3.6 13.15 4.3 12.4 4.55 11.95 11.15 12.5" fill="#0542a4" fill-rule="evenodd" stroke="none"/>
    <path d="M9.7 13.35 Q7.75 14.2 4.7 14.65 L2.05 14.0 Q4.7 12.95 5.3 12.3 L11.0 12.55 9.7 13.35" fill="url(#gradient2)" fill-rule="evenodd" stroke="none"/>
    <path d="M10.35 12.55 L11.0 12.55 9.7 13.35 Q7.75 14.2 4.7 14.65 L2.05 14.0 2.55 13.8 4.55 14.25 Q8.35 13.7 10.35 12.55" fill="url(#gradient3)" fill-rule="evenodd" stroke="none"/>
    <path d="M8.3 6.0 L10.8 5.75 Q12.0 5.8 12.85 6.45 L13.45 7.1 7.1 6.9 6.75 6.1 8.3 6.0" fill="#005c47" fill-rule="evenodd" stroke="none"/>
    <path d="M18.65 7.0 Q16.65 7.9 11.65 8.05 L5.55 8.0 5.1 7.15 6.2 6.85 5.45 4.5 6.6 4.45 9.55 6.3 17.05 6.6 18.65 7.0" fill="url(#gradient4)" fill-rule="evenodd" stroke="none"/>
    <path d="M9.55 6.3 L17.05 6.6 18.65 7.0 17.9 7.25 15.85 6.85 8.9 6.65 5.95 4.8 5.55 4.8 5.45 4.5 6.6 4.45 9.55 6.3" fill="url(#gradient5)" fill-rule="evenodd" stroke="none"/>
    <path d="M13.5 7.45 L13.05 8.0 8.9 8.1 6.7 8.0 7.35 7.35 7.6 6.95 13.5 7.45" fill="#05a457" fill-rule="evenodd" stroke="none"/>
    <path d="M12.2 8.15 Q10.45 8.95 7.7 9.35 L5.3 8.75 Q7.7 7.85 8.25 7.25 L13.4 7.5 12.2 8.15" fill="url(#gradient6)" fill-rule="evenodd" stroke="none"/>
    <path d="M12.75 7.45 L13.4 7.5 12.2 8.15 Q10.45 8.95 7.7 9.35 L5.3 8.75 5.8 8.55 7.6 9.0 Q11.0 8.5 12.75 7.45" fill="url(#gradient7)" fill-rule="evenodd" stroke="none"/>
    <path d="M15.3 16.9 L9.6 16.75 9.35 16.05 10.7 15.95 12.9 15.75 Q14.0 15.75 14.75 16.35 L15.3 16.9" fill="#005c47" fill-rule="evenodd" stroke="none"/>
    <path d="M19.9 16.8 Q18.15 17.65 13.7 17.8 L8.25 17.75 7.85 16.95 8.85 16.7 8.2 14.65 9.2 14.6 11.8 16.2 18.5 16.45 19.9 16.8" fill="url(#gradient8)" fill-rule="evenodd" stroke="none"/>
    <path d="M8.6 14.9 L8.25 14.9 8.2 14.65 9.2 14.6 11.8 16.2 18.5 16.45 19.9 16.8 19.25 17.05 17.45 16.7 11.25 16.5 8.6 14.9" fill="url(#gradient9)" fill-rule="evenodd" stroke="none"/>
    <path d="M11.25 17.8 L9.3 17.75 9.85 17.15 10.1 16.8 15.35 17.2 14.95 17.75 11.25 17.8" fill="#05a457" fill-rule="evenodd" stroke="none"/>
    <path d="M10.2 18.9 L8.05 18.4 Q10.15 17.6 10.65 17.05 L15.25 17.25 14.15 17.9 10.2 18.9" fill="url(#gradient10)" fill-rule="evenodd" stroke="none"/>
    <path d="M14.7 17.25 L15.25 17.25 14.15 17.9 10.2 18.9 8.05 18.4 8.45 18.25 10.05 18.6 Q13.2 18.15 14.7 17.25" fill="url(#gradient11)" fill-rule="evenodd" stroke="none"/>
  </g>
  <defs>
    <linearGradient gradientTransform="matrix(-0.0081, 0.0, 0.0, 0.0081, 9.2, 11.25)" gradientUnits="userSpaceOnUse" id="gradient0" spreadMethod="pad" x1="-819.2" x2="819.2">
      <stop offset="0.0" stop-color="#70e9ff"/>
      <stop offset="1.0" stop-color="#1e96fd"/>
    </linearGradient>
    <linearGradient gradientTransform="matrix(0.0037, 0.0012, 0.0012, -0.0037, 6.3, 10.05)" gradientUnits="userSpaceOnUse" id="gradient1" spreadMethod="pad" x1="-819.2" x2="819.2">
      <stop offset="0.0" stop-color="#70e9ff"/>
      <stop offset="1.0" stop-color="#bdffff"/>
    </linearGradient>
    <linearGradient gradientTransform="matrix(0.0039, -4.0E-4, -4.0E-4, -0.0039, 6.8, 13.3)" gradientUnits="userSpaceOnUse" id="gradient2" spreadMethod="pad" x1="-819.2" x2="819.2">
      <stop offset="0.0" stop-color="#70e9ff"/>
      <stop offset="1.0" stop-color="#1e96fd"/>
    </linearGradient>
    <linearGradient gradientTransform="matrix(0.0032, -2.0E-4, -2.0E-4, -0.0032, 5.1, 13.7)" gradientUnits="userSpaceOnUse" id="gradient3" spreadMethod="pad" x1="-819.2" x2="819.2">
      <stop offset="0.0" stop-color="#70e9ff"/>
      <stop offset="1.0" stop-color="#bdffff"/>
    </linearGradient>
    <linearGradient gradientTransform="matrix(-0.0073, 0.0, 0.0, 0.0073, 11.75, 6.3)" gradientUnits="userSpaceOnUse" id="gradient4" spreadMethod="pad" x1="-819.2" x2="819.2">
      <stop offset="0.0" stop-color="#a3ff47"/>
      <stop offset="1.0" stop-color="#4dba43"/>
    </linearGradient>
    <linearGradient gradientTransform="matrix(0.0033, 0.0011, 0.0011, -0.0033, 9.15, 5.25)" gradientUnits="userSpaceOnUse" id="gradient5" spreadMethod="pad" x1="-819.2" x2="819.2">
      <stop offset="0.0" stop-color="#a3ff47"/>
      <stop offset="1.0" stop-color="#e6ffd6"/>
    </linearGradient>
    <linearGradient gradientTransform="matrix(0.0035, -3.0E-4, -3.0E-4, -0.0035, 9.6, 8.1)" gradientUnits="userSpaceOnUse" id="gradient6" spreadMethod="pad" x1="-819.2" x2="819.2">
      <stop offset="0.0" stop-color="#a3ff47"/>
      <stop offset="1.0" stop-color="#4dba43"/>
    </linearGradient>
    <linearGradient gradientTransform="matrix(0.0029, -1.0E-4, -1.0E-4, -0.0029, 8.05, 8.5)" gradientUnits="userSpaceOnUse" id="gradient7" spreadMethod="pad" x1="-819.2" x2="819.2">
      <stop offset="0.0" stop-color="#a3ff47"/>
      <stop offset="1.0" stop-color="#e6ffd6"/>
    </linearGradient>
    <linearGradient gradientTransform="matrix(-0.0065, 0.0, 0.0, 0.0065, 13.8, 16.2)" gradientUnits="userSpaceOnUse" id="gradient8" spreadMethod="pad" x1="-819.2" x2="819.2">
      <stop offset="0.0" stop-color="#a3ff47"/>
      <stop offset="1.0" stop-color="#4dba43"/>
    </linearGradient>
    <linearGradient gradientTransform="matrix(0.0029, 0.001, 0.001, -0.0029, 11.5, 15.3)" gradientUnits="userSpaceOnUse" id="gradient9" spreadMethod="pad" x1="-819.2" x2="819.2">
      <stop offset="0.0" stop-color="#a3ff47"/>
      <stop offset="1.0" stop-color="#e6ffd6"/>
    </linearGradient>
    <linearGradient gradientTransform="matrix(0.0031, -3.0E-4, -3.0E-4, -0.0031, 11.85, 17.85)" gradientUnits="userSpaceOnUse" id="gradient10" spreadMethod="pad" x1="-819.2" x2="819.2">
      <stop offset="0.0" stop-color="#a3ff47"/>
      <stop offset="1.0" stop-color="#4dba43"/>
    </linearGradient>
    <linearGradient gradientTransform="matrix(0.0026, -1.0E-4, -1.0E-4, -0.0026, 10.5, 18.2)" gradientUnits="userSpaceOnUse" id="gradient11" spreadMethod="pad" x1="-819.2" x2="819.2">
      <stop offset="0.0" stop-color="#a3ff47"/>
      <stop offset="1.0" stop-color="#e6ffd6"/>
    </linearGradient>
  </defs>
</svg>
