<?xml version="1.0" encoding="UTF-8" standalone="no"?>
<svg xmlns:ffdec="https://www.free-decompiler.com/flash" xmlns:xlink="http://www.w3.org/1999/xlink" ffdec:objectType="shape" height="21.0px" width="20.95px" xmlns="http://www.w3.org/2000/svg">
  <g transform="matrix(1.0, 0.0, 0.0, 1.0, 0.5, 0.5)">
    <path d="M19.95 17.0 Q19.95 18.25 19.05 19.1 18.2 20.0 16.95 20.0 L3.0 20.0 Q1.75 20.0 0.9 19.1 0.0 18.25 0.0 17.0 L0.0 3.0 Q0.0 1.75 0.9 0.9 1.75 0.0 3.0 0.0 L16.95 0.0 Q18.2 0.0 19.05 0.9 19.95 1.75 19.95 3.0 L19.95 17.0" fill="#021c63" fill-rule="evenodd" stroke="none"/>
    <path d="M19.95 17.0 Q19.95 18.25 19.05 19.1 18.2 20.0 16.95 20.0 L3.0 20.0 Q1.75 20.0 0.9 19.1 0.0 18.25 0.0 17.0 L0.0 3.0 Q0.0 1.75 0.9 0.9 1.75 0.0 3.0 0.0 L16.95 0.0 Q18.2 0.0 19.05 0.9 19.95 1.75 19.95 3.0 L19.95 17.0 Z" fill="none" stroke="#0074ff" stroke-linecap="butt" stroke-linejoin="miter-clip" stroke-miterlimit="4.0" stroke-width="1.0"/>
  </g>
</svg>
