<?xml version="1.0" encoding="UTF-8" standalone="no"?>
<svg xmlns:ffdec="https://www.free-decompiler.com/flash" xmlns:xlink="http://www.w3.org/1999/xlink" ffdec:objectType="shape" height="20.0px" width="20.0px" xmlns="http://www.w3.org/2000/svg">
  <g transform="matrix(1.0, 0.0, 0.0, 1.0, 0.0, 0.0)">
    <path d="M3.6 0.45 L16.35 0.45 Q17.65 0.45 18.6 1.4 19.5 2.35 19.5 3.65 L19.5 16.35 Q19.5 17.7 18.6 18.6 17.65 19.55 16.35 19.55 L3.6 19.55 Q2.3 19.55 1.35 18.6 0.45 17.7 0.45 16.35 L0.45 3.65 Q0.45 2.35 1.35 1.4 2.3 0.45 3.6 0.45" fill="#05196d" fill-rule="evenodd" stroke="none"/>
    <path d="M0.0 16.35 L0.0 3.65 Q0.0 2.15 1.05 1.1 2.1 0.0 3.6 0.0 L16.35 0.0 Q17.85 0.0 18.95 1.1 20.0 2.15 20.0 3.65 L20.0 16.35 Q20.0 17.85 18.95 18.95 17.85 20.0 16.35 20.0 L3.6 20.0 Q2.1 20.0 1.05 18.95 0.0 17.85 0.0 16.35 M3.6 0.9 Q2.5 0.9 1.7 1.75 0.9 2.5 0.9 3.65 L0.9 16.35 Q0.9 17.5 1.7 18.3 2.5 19.1 3.6 19.1 L16.35 19.1 Q17.45 19.1 18.25 18.3 19.05 17.5 19.05 16.35 L19.05 3.65 Q19.05 2.5 18.25 1.75 17.45 0.9 16.35 0.9 L3.6 0.9" fill="#0074ff" fill-rule="evenodd" stroke="none"/>
  </g>
</svg>
