<?xml version="1.0" encoding="UTF-8" standalone="no"?>
<svg xmlns:ffdec="https://www.free-decompiler.com/flash" xmlns:xlink="http://www.w3.org/1999/xlink" ffdec:objectType="shape" height="17.4px" width="16.4px" xmlns="http://www.w3.org/2000/svg">
  <g transform="matrix(1.0, 0.0, 0.0, 1.0, -2.05, -1.35)">
    <path d="M18.45 12.95 L10.1 18.75 8.8 16.9 9.35 16.5 4.15 8.95 3.55 9.35 2.05 7.15 4.65 5.35 4.05 4.45 7.25 2.25 7.85 3.1 10.45 1.35 11.95 3.55 11.4 3.95 16.6 11.45 17.15 11.1 18.45 12.95" fill="#20283b" fill-rule="evenodd" stroke="none"/>
    <path d="M16.7 12.2 L10.0 16.8 4.1 8.3 10.8 3.65 16.7 12.2" fill="url(#gradient0)" fill-rule="evenodd" stroke="none"/>
    <path d="M15.9 12.7 L10.75 16.3 4.85 7.75 10.05 4.15 15.9 12.7" fill="#263d61" fill-rule="evenodd" stroke="none"/>
    <path d="M15.5 12.15 L10.35 15.7 6.95 10.85 Q8.6 9.7 10.0 9.65 11.55 9.55 13.1 8.6 L15.5 12.15" fill="url(#gradient1)" fill-rule="evenodd" stroke="none"/>
    <path d="M15.9 12.7 L10.75 16.3 7.35 11.45 Q8.95 10.25 10.4 10.25 11.9 10.2 13.5 9.15 L15.9 12.7" fill="url(#gradient2)" fill-rule="evenodd" stroke="none"/>
    <path d="M10.55 15.05 L15.2 13.0 10.75 16.3 7.35 11.45 7.85 11.1 10.55 15.05" fill="#f78316" fill-rule="evenodd" stroke="none"/>
    <path d="M11.2 12.75 L10.2 13.45 6.25 7.75 7.25 7.1 11.2 12.75" fill="url(#gradient3)" fill-rule="evenodd" stroke="none"/>
    <path d="M18.0 12.85 L10.15 18.3 9.25 16.95 17.1 11.5 18.0 12.85 M7.75 3.6 L10.35 1.8 11.5 3.45 3.65 8.85 2.5 7.2 5.1 5.45 4.5 4.55 7.15 2.7 7.75 3.6" fill="url(#gradient4)" fill-rule="evenodd" stroke="none"/>
    <path d="M4.5 5.85 L5.65 7.5 4.9 8.0 3.75 6.4 4.5 5.85 M12.15 16.9 L11.4 17.45 10.45 16.1 11.25 15.55 12.15 16.9" fill="#ffffff" fill-rule="evenodd" stroke="none"/>
    <path d="M7.35 2.95 L4.95 4.65 5.55 5.5 2.95 7.3 3.9 8.7 3.65 8.85 2.5 7.2 5.1 5.45 4.5 4.55 7.15 2.7 7.35 2.95 M17.1 11.5 L17.25 11.8 9.7 17.05 10.45 18.1 10.15 18.3 9.25 16.95 17.1 11.5 M8.2 3.7 L7.75 3.6 10.35 1.8 10.55 2.05 8.2 3.7" fill="url(#gradient5)" fill-rule="evenodd" stroke="none"/>
    <path d="M10.15 13.15 L9.85 12.6 Q9.8 12.25 10.0 11.95 10.2 11.7 10.55 11.65 10.9 11.6 11.2 11.85 L11.5 12.4 11.35 13.0 10.8 13.3 10.15 13.15" fill="#ffff7a" fill-rule="evenodd" stroke="none"/>
    <path d="M12.0 13.55 L11.8 13.2 11.9 12.85 Q12.0 12.65 12.25 12.65 L12.6 12.75 12.8 13.05 12.7 13.45 12.0 13.55" fill="#ffff7a" fill-rule="evenodd" stroke="none"/>
  </g>
  <defs>
    <linearGradient gradientTransform="matrix(-0.0032, -0.0047, -0.0047, 0.0032, 10.4, 10.2)" gradientUnits="userSpaceOnUse" id="gradient0" spreadMethod="pad" x1="-819.2" x2="819.2">
      <stop offset="0.0" stop-color="#ffffff"/>
      <stop offset="0.10196078431372549" stop-color="#92d1d1"/>
      <stop offset="0.8588235294117647" stop-color="#ffffff"/>
      <stop offset="1.0" stop-color="#bdffff"/>
    </linearGradient>
    <linearGradient gradientTransform="matrix(-0.0022, 0.0027, -0.0027, -0.0022, 10.7, 12.4)" gradientUnits="userSpaceOnUse" id="gradient1" spreadMethod="pad" x1="-819.2" x2="819.2">
      <stop offset="0.0" stop-color="#e7ff4d"/>
      <stop offset="0.7098039215686275" stop-color="#e39700"/>
      <stop offset="1.0" stop-color="#cc4a12"/>
    </linearGradient>
    <linearGradient gradientTransform="matrix(0.003, 0.0013, -0.0013, 0.003, 11.65, 12.75)" gradientUnits="userSpaceOnUse" id="gradient2" spreadMethod="pad" x1="-819.2" x2="819.2">
      <stop offset="0.0" stop-color="#e7ff4d"/>
      <stop offset="0.7098039215686275" stop-color="#e39700"/>
      <stop offset="1.0" stop-color="#cc4a12"/>
    </linearGradient>
    <linearGradient gradientTransform="matrix(0.0017, 0.0025, 0.0025, -0.0017, 9.25, 11.0)" gradientUnits="userSpaceOnUse" id="gradient3" spreadMethod="pad" x1="-819.2" x2="819.2">
      <stop offset="0.0" stop-color="#ffffff"/>
      <stop offset="1.0" stop-color="#ffffff"/>
    </linearGradient>
    <linearGradient gradientTransform="matrix(0.0048, -0.0033, -0.0033, -0.0048, 9.95, 9.6)" gradientUnits="userSpaceOnUse" id="gradient4" spreadMethod="pad" x1="-819.2" x2="819.2">
      <stop offset="0.0" stop-color="#8c9099"/>
      <stop offset="0.12156862745098039" stop-color="#cdd1da"/>
      <stop offset="0.3568627450980392" stop-color="#cdd1da"/>
      <stop offset="0.8" stop-color="#777d8a"/>
      <stop offset="1.0" stop-color="#cdd1da"/>
    </linearGradient>
    <linearGradient gradientTransform="matrix(-0.0022, 0.0015, 0.0015, 0.0022, 7.85, 11.05)" gradientUnits="userSpaceOnUse" id="gradient5" spreadMethod="pad" x1="-819.2" x2="819.2">
      <stop offset="0.0" stop-color="#ffffff"/>
      <stop offset="1.0" stop-color="#cdd1da"/>
    </linearGradient>
  </defs>
</svg>
