<?xml version="1.0" encoding="UTF-8" standalone="no"?>
<svg xmlns:ffdec="https://www.free-decompiler.com/flash" xmlns:xlink="http://www.w3.org/1999/xlink" ffdec:objectType="shape" height="13.3px" width="17.6px" xmlns="http://www.w3.org/2000/svg">
  <g transform="matrix(1.0, 0.0, 0.0, 1.0, -0.55, -2.85)">
    <path d="M7.05 3.75 Q8.4 4.25 9.65 5.05 L9.85 5.2 10.15 5.15 10.2 5.15 10.4 5.15 11.85 6.3 12.1 6.4 Q12.8 6.8 13.0 7.7 L13.15 8.55 Q14.1 8.75 14.85 9.3 15.85 10.1 16.65 11.65 L18.05 15.15 18.1 15.4 18.1 15.65 17.85 15.85 14.2 16.15 Q11.5 16.15 10.3 15.2 L9.5 14.35 8.7 14.5 7.95 14.35 7.9 14.35 7.7 14.3 6.6 14.0 Q6.0 13.8 5.5 13.4 L5.4 13.2 5.35 13.0 5.0 12.8 2.7 11.25 2.55 11.25 2.05 11.15 1.85 11.0 1.8 11.0 1.45 10.65 Q0.5 10.05 0.55 8.55 0.55 7.15 1.45 5.55 L2.5 4.15 3.15 3.55 3.2 3.55 Q4.15 2.85 5.0 2.85 L5.85 3.0 6.35 3.15 6.6 3.25 7.05 3.75" fill="#20283b" fill-rule="evenodd" stroke="none"/>
    <path d="M6.45 3.55 Q7.0 3.85 6.8 5.15 6.55 6.45 5.7 8.0 4.8 9.55 3.8 10.35 2.8 11.2 2.2 10.85 1.65 10.55 1.85 9.2 2.1 7.9 2.95 6.4 3.85 4.85 4.85 4.05 5.85 3.2 6.45 3.55" fill="#24282e" fill-rule="evenodd" stroke="none"/>
    <path d="M9.9 5.6 L5.7 12.8 Q3.8 11.9 2.4 10.55 2.1 8.75 3.35 6.65 4.55 4.5 6.25 3.9 8.15 4.35 9.9 5.6" fill="url(#gradient0)" fill-rule="evenodd" stroke="none"/>
    <path d="M6.3 3.45 Q5.45 3.8 4.6 4.55 L3.1 6.5 Q1.75 8.8 2.05 10.75 L1.7 10.35 Q0.85 9.9 0.85 8.55 0.9 7.2 1.75 5.7 2.55 4.25 3.75 3.55 4.95 2.85 5.75 3.35 L6.3 3.45" fill="url(#gradient1)" fill-rule="evenodd" stroke="none"/>
    <path d="M8.5 7.45 L8.15 8.0 4.05 5.6 4.5 5.15 8.5 7.45" fill="#e8ecf2" fill-rule="evenodd" stroke="none"/>
    <path d="M6.15 8.35 Q6.85 7.2 7.7 6.4 8.55 5.6 9.45 5.3 L9.9 5.6 5.7 12.8 5.2 12.55 Q4.85 10.65 6.15 8.35" fill="url(#gradient2)" fill-rule="evenodd" stroke="none"/>
    <path d="M12.05 6.95 L7.95 14.0 6.8 13.7 Q6.2 13.5 5.75 13.15 5.45 12.25 5.7 11.05 5.9 9.8 6.6 8.55 7.35 7.25 8.35 6.45 9.3 5.65 10.2 5.45 11.4 6.1 12.05 6.95" fill="url(#gradient3)" fill-rule="evenodd" stroke="none"/>
    <path d="M7.6 7.2 L8.15 6.6 10.55 7.95 10.15 8.65 7.6 7.2" fill="#ffffff" fill-rule="evenodd" stroke="none"/>
    <path d="M4.05 5.15 L2.75 4.4 3.35 3.8 4.65 4.55 4.05 5.15" fill="#ffffff" fill-rule="evenodd" stroke="none"/>
    <path d="M12.05 6.95 Q12.85 7.45 12.85 8.8 12.85 10.15 12.0 11.6 11.15 13.05 10.0 13.75 8.8 14.45 8.0 14.0 7.2 13.55 7.2 12.15 7.2 10.8 8.05 9.35 8.9 7.9 10.05 7.2 11.25 6.5 12.05 6.95" fill="url(#gradient4)" fill-rule="evenodd" stroke="none"/>
    <path d="M9.95 6.9 Q11.15 6.2 11.95 6.7 12.5 7.05 12.7 7.8 L12.05 6.95 Q11.25 6.5 10.05 7.2 8.9 7.9 8.05 9.35 7.35 10.5 7.25 11.65 7.1 12.8 7.5 13.5 6.95 12.85 7.05 11.6 7.2 10.35 7.9 9.1 8.75 7.6 9.95 6.9" fill="#ffffff" fill-rule="evenodd" stroke="none"/>
    <path d="M11.3 8.25 Q11.75 8.5 11.7 9.35 L11.05 11.1 9.85 12.5 Q9.2 12.95 8.75 12.7 8.3 12.45 8.35 11.6 8.45 10.75 8.95 9.85 9.5 8.95 10.15 8.45 10.85 8.0 11.3 8.25" fill="#24282e" fill-rule="evenodd" stroke="none"/>
    <path d="M6.2 3.5 L4.3 4.9 Q2.3 6.9 2.05 9.9 L2.25 8.35 Q2.65 6.55 3.8 5.2 4.75 4.1 5.55 3.7 L6.2 3.5" fill="#ffffff" fill-rule="evenodd" stroke="none"/>
    <path d="M14.65 9.55 Q15.65 10.35 16.45 11.95 L17.8 15.5 Q12.25 16.3 10.5 14.95 9.35 14.05 9.2 12.7 9.0 11.3 9.9 10.15 10.75 9.05 12.15 8.9 13.55 8.7 14.65 9.55" fill="url(#gradient5)" fill-rule="evenodd" stroke="none"/>
    <path d="M13.3 10.1 Q14.05 10.65 14.6 11.8 L15.65 14.2 Q11.9 14.6 10.6 13.6 9.8 13.0 9.7 12.05 9.5 11.1 10.05 10.35 10.6 9.65 11.6 9.6 12.5 9.55 13.3 10.1" fill="url(#gradient6)" fill-rule="evenodd" stroke="none"/>
    <path d="M13.55 11.6 Q13.55 12.35 13.0 12.9 12.45 13.45 11.7 13.45 10.95 13.45 10.45 12.9 9.9 12.35 9.9 11.6 9.9 10.85 10.45 10.35 10.95 9.8 11.7 9.8 12.45 9.8 13.0 10.35 13.55 10.85 13.55 11.6" fill="#fcf8bd" fill-rule="evenodd" stroke="none"/>
  </g>
  <defs>
    <linearGradient gradientTransform="matrix(-0.0022, 0.0039, 0.0042, 0.0025, 5.6, 7.9)" gradientUnits="userSpaceOnUse" id="gradient0" spreadMethod="pad" x1="-819.2" x2="819.2">
      <stop offset="0.0" stop-color="#8c9099"/>
      <stop offset="0.12156862745098039" stop-color="#cdd1da"/>
      <stop offset="0.3137254901960784" stop-color="#cdd1da"/>
      <stop offset="0.6862745098039216" stop-color="#262633"/>
      <stop offset="0.8666666666666667" stop-color="#444c57"/>
      <stop offset="1.0" stop-color="#999ca1"/>
    </linearGradient>
    <linearGradient gradientTransform="matrix(-0.0023, 0.0041, 0.0045, 0.0026, 2.95, 6.4)" gradientUnits="userSpaceOnUse" id="gradient1" spreadMethod="pad" x1="-819.2" x2="819.2">
      <stop offset="0.0" stop-color="#8c9099"/>
      <stop offset="0.12156862745098039" stop-color="#cdd1da"/>
      <stop offset="0.3568627450980392" stop-color="#cdd1da"/>
      <stop offset="0.8" stop-color="#3b3e45"/>
      <stop offset="1.0" stop-color="#cdd1da"/>
    </linearGradient>
    <linearGradient gradientTransform="matrix(-0.002, 0.0035, 0.0038, 0.0022, 7.15, 8.55)" gradientUnits="userSpaceOnUse" id="gradient2" spreadMethod="pad" x1="-819.2" x2="819.2">
      <stop offset="0.0" stop-color="#8c9099"/>
      <stop offset="0.6862745098039216" stop-color="#262633"/>
      <stop offset="1.0" stop-color="#444c57"/>
    </linearGradient>
    <linearGradient gradientTransform="matrix(-0.0023, 0.0041, 0.0045, 0.0026, 8.3, 9.5)" gradientUnits="userSpaceOnUse" id="gradient3" spreadMethod="pad" x1="-819.2" x2="819.2">
      <stop offset="0.0" stop-color="#8c9099"/>
      <stop offset="0.12156862745098039" stop-color="#cdd1da"/>
      <stop offset="0.3568627450980392" stop-color="#cdd1da"/>
      <stop offset="0.8" stop-color="#3b3e45"/>
      <stop offset="1.0" stop-color="#cdd1da"/>
    </linearGradient>
    <linearGradient gradientTransform="matrix(-6.0E-4, -0.0031, -0.0034, 7.0E-4, 10.0, 10.35)" gradientUnits="userSpaceOnUse" id="gradient4" spreadMethod="pad" x1="-819.2" x2="819.2">
      <stop offset="0.0" stop-color="#8c9099"/>
      <stop offset="1.0" stop-color="#262633"/>
    </linearGradient>
    <linearGradient gradientTransform="matrix(-0.0052, -0.0034, -0.0034, 0.0052, 14.05, 13.2)" gradientUnits="userSpaceOnUse" id="gradient5" spreadMethod="pad" x1="-819.2" x2="819.2">
      <stop offset="0.0" stop-color="#1a2138"/>
      <stop offset="0.08627450980392157" stop-color="#1f2237"/>
      <stop offset="0.1843137254901961" stop-color="#2d2633"/>
      <stop offset="0.29411764705882354" stop-color="#452c2e"/>
      <stop offset="0.40784313725490196" stop-color="#663525"/>
      <stop offset="0.5254901960784314" stop-color="#90401b"/>
      <stop offset="0.6431372549019608" stop-color="#c44e0f"/>
      <stop offset="0.7647058823529411" stop-color="#ff5e00"/>
      <stop offset="1.0" stop-color="#ffcf99"/>
    </linearGradient>
    <linearGradient gradientTransform="matrix(-0.0035, -0.0025, -0.0022, 0.0036, 13.0, 12.55)" gradientUnits="userSpaceOnUse" id="gradient6" spreadMethod="pad" x1="-819.2" x2="819.2">
      <stop offset="0.0" stop-color="#f7931e"/>
      <stop offset="1.0" stop-color="#ffff00"/>
    </linearGradient>
  </defs>
</svg>
