<?xml version="1.0" encoding="UTF-8" standalone="no"?>
<svg xmlns:ffdec="https://www.free-decompiler.com/flash" xmlns:xlink="http://www.w3.org/1999/xlink" ffdec:objectType="shape" height="30.15px" width="60.3px" xmlns="http://www.w3.org/2000/svg">
  <g transform="matrix(1.0, 0.0, 0.0, 1.0, -122.55, -162.3)">
    <path d="M134.05 163.3 L138.65 162.3 141.2 163.65 140.05 173.45 137.8 173.9 136.65 173.15 134.05 163.3" fill="url(#gradient0)" fill-rule="evenodd" stroke="none"/>
    <path d="M136.1 164.7 L134.05 163.3 138.65 162.3 141.2 163.65 136.1 164.7" fill="#4f4f4f" fill-rule="evenodd" stroke="none"/>
    <path d="M174.6 164.2 L170.95 174.15 169.85 174.9 167.6 174.45 166.55 163.9 169.5 162.65 174.6 164.2" fill="url(#gradient1)" fill-rule="evenodd" stroke="none"/>
    <path d="M171.4 165.55 L166.55 163.9 169.5 162.65 174.6 164.2 171.4 165.55" fill="#4f4f4f" fill-rule="evenodd" stroke="none"/>
    <path d="M182.85 178.6 Q182.85 184.35 174.0 188.4 165.2 192.45 152.7 192.45 140.2 192.45 131.4 188.4 122.55 184.35 122.55 178.6 122.55 172.9 131.4 168.85 140.2 164.8 152.7 164.8 165.2 164.8 174.0 168.85 182.85 172.9 182.85 178.6" fill="url(#gradient2)" fill-rule="evenodd" stroke="none"/>
    <path d="M182.85 176.4 Q182.85 182.1 174.0 186.2 165.2 190.25 152.7 190.25 140.2 190.25 131.4 186.2 122.55 182.1 122.55 176.4 122.55 170.65 131.4 166.6 140.2 162.55 152.7 162.55 165.2 162.55 174.0 166.6 182.85 170.65 182.85 176.4" fill="url(#gradient3)" fill-rule="evenodd" stroke="none"/>
    <path d="M171.05 167.2 Q178.65 170.5 178.65 175.2 178.65 179.9 171.05 183.25 163.45 186.55 152.7 186.55 141.95 186.55 134.35 183.25 126.75 179.9 126.75 175.2 126.75 170.5 134.35 167.2 141.95 163.85 152.7 163.85 163.45 163.85 171.05 167.2" fill="#131821" fill-rule="evenodd" stroke="none"/>
  </g>
  <defs>
    <linearGradient gradientTransform="matrix(6.0E-4, 0.007, -0.007, 6.0E-4, 138.0, 168.1)" gradientUnits="userSpaceOnUse" id="gradient0" spreadMethod="pad" x1="-819.2" x2="819.2">
      <stop offset="0.0" stop-color="#262626"/>
      <stop offset="0.7215686274509804" stop-color="#737375"/>
      <stop offset="1.0" stop-color="#262626"/>
    </linearGradient>
    <linearGradient gradientTransform="matrix(6.0E-4, -0.0074, -0.0074, -6.0E-4, 170.2, 168.85)" gradientUnits="userSpaceOnUse" id="gradient1" spreadMethod="pad" x1="-819.2" x2="819.2">
      <stop offset="0.0" stop-color="#262626"/>
      <stop offset="0.7215686274509804" stop-color="#737375"/>
      <stop offset="1.0" stop-color="#262626"/>
    </linearGradient>
    <linearGradient gradientTransform="matrix(0.0, -0.0169, -0.0169, 0.0, 152.7, 178.6)" gradientUnits="userSpaceOnUse" id="gradient2" spreadMethod="pad" x1="-819.2" x2="819.2">
      <stop offset="0.0" stop-color="#282828"/>
      <stop offset="0.9058823529411765" stop-color="#a4a4a4"/>
      <stop offset="1.0" stop-color="#373737"/>
    </linearGradient>
    <linearGradient gradientTransform="matrix(0.0, -0.0169, -0.0169, 0.0, 152.7, 176.4)" gradientUnits="userSpaceOnUse" id="gradient3" spreadMethod="pad" x1="-819.2" x2="819.2">
      <stop offset="0.0" stop-color="#a4a4a4"/>
      <stop offset="1.0" stop-color="#282828"/>
    </linearGradient>
  </defs>
</svg>
