<?xml version="1.0" encoding="UTF-8" standalone="no"?>
<svg xmlns:ffdec="https://www.free-decompiler.com/flash" xmlns:xlink="http://www.w3.org/1999/xlink" ffdec:objectType="shape" height="92.1px" width="60.3px" xmlns="http://www.w3.org/2000/svg">
  <g transform="matrix(1.0, 0.0, 0.0, 1.0, -123.55, -56.05)">
    <path d="M175.75 147.25 L173.85 148.15 173.1 142.1 176.45 142.1 175.75 147.25" fill="url(#gradient0)" fill-rule="evenodd" stroke="none"/>
    <path d="M170.0 132.8 L176.75 130.05 179.55 132.05 176.95 142.65 174.0 144.25 172.55 143.25 170.0 132.8" fill="url(#gradient1)" fill-rule="evenodd" stroke="none"/>
    <path d="M173.35 135.1 L170.0 132.8 176.75 130.05 179.55 132.05 Q176.45 133.6 173.35 135.1" fill="#8c8c8c" fill-rule="evenodd" stroke="none"/>
    <path d="M173.35 135.1 L174.0 144.25 172.55 143.25 170.0 132.8 173.35 135.1" fill="#4f4f4f" fill-rule="evenodd" stroke="none"/>
    <path d="M130.9 147.25 L130.2 142.1 133.55 142.1 132.8 148.15 130.9 147.25" fill="url(#gradient2)" fill-rule="evenodd" stroke="none"/>
    <path d="M136.5 132.8 L133.95 143.25 132.5 144.25 129.55 142.65 126.35 132.6 129.8 130.05 136.5 132.8" fill="url(#gradient3)" fill-rule="evenodd" stroke="none"/>
    <path d="M133.2 135.1 L126.35 132.6 129.8 130.05 136.5 132.8 133.2 135.1" fill="#8c8c8c" fill-rule="evenodd" stroke="none"/>
    <path d="M133.2 135.1 L136.5 132.8 133.95 143.25 132.5 144.25 133.2 135.1" fill="#4f4f4f" fill-rule="evenodd" stroke="none"/>
    <path d="M135.05 57.05 L139.65 56.05 142.2 57.4 141.05 67.2 138.8 67.65 137.65 66.9 135.05 57.05" fill="url(#gradient4)" fill-rule="evenodd" stroke="none"/>
    <path d="M137.1 58.45 L135.05 57.05 139.65 56.05 142.2 57.4 137.1 58.45" fill="#4f4f4f" fill-rule="evenodd" stroke="none"/>
    <path d="M175.6 57.95 L171.95 67.9 170.85 68.65 168.6 68.2 167.55 57.65 170.5 56.4 175.6 57.95" fill="url(#gradient5)" fill-rule="evenodd" stroke="none"/>
    <path d="M172.4 59.3 L167.55 57.65 170.5 56.4 175.6 57.95 172.4 59.3" fill="#4f4f4f" fill-rule="evenodd" stroke="none"/>
    <path d="M183.85 72.35 Q183.85 78.1 175.0 82.15 166.2 86.2 153.7 86.2 141.2 86.2 132.4 82.15 123.55 78.1 123.55 72.35 123.55 66.65 132.4 62.6 141.2 58.55 153.7 58.55 166.2 58.55 175.0 62.6 183.85 66.65 183.85 72.35" fill="url(#gradient6)" fill-rule="evenodd" stroke="none"/>
    <path d="M183.85 70.15 Q183.85 75.85 175.0 79.95 166.2 84.0 153.7 84.0 141.2 84.0 132.4 79.95 123.55 75.85 123.55 70.15 123.55 64.4 132.4 60.35 141.2 56.3 153.7 56.3 166.2 56.3 175.0 60.35 183.85 64.4 183.85 70.15" fill="url(#gradient7)" fill-rule="evenodd" stroke="none"/>
    <path d="M172.05 60.95 Q179.65 64.25 179.65 68.95 179.65 73.65 172.05 77.0 164.45 80.3 153.7 80.3 142.95 80.3 135.35 77.0 127.75 73.65 127.75 68.95 127.75 64.25 135.35 60.95 142.95 57.6 153.7 57.6 164.45 57.6 172.05 60.95" fill="#131821" fill-rule="evenodd" stroke="none"/>
  </g>
  <defs>
    <linearGradient gradientTransform="matrix(0.0, 0.0037, -0.0037, 0.0, 174.75, 145.1)" gradientUnits="userSpaceOnUse" id="gradient0" spreadMethod="pad" x1="-819.2" x2="819.2">
      <stop offset="0.0" stop-color="#00e0ff" stop-opacity="0.7490196"/>
      <stop offset="1.0" stop-color="#00e0ff" stop-opacity="0.02745098"/>
    </linearGradient>
    <linearGradient gradientTransform="matrix(7.0E-4, 0.0085, -0.0085, 7.0E-4, 175.15, 137.15)" gradientUnits="userSpaceOnUse" id="gradient1" spreadMethod="pad" x1="-819.2" x2="819.2">
      <stop offset="0.0" stop-color="#262626"/>
      <stop offset="0.7215686274509804" stop-color="#737375"/>
      <stop offset="1.0" stop-color="#262626"/>
    </linearGradient>
    <linearGradient gradientTransform="matrix(0.0, 0.0037, 0.0037, 0.0, 131.9, 145.1)" gradientUnits="userSpaceOnUse" id="gradient2" spreadMethod="pad" x1="-819.2" x2="819.2">
      <stop offset="0.0" stop-color="#00e0ff" stop-opacity="0.7490196"/>
      <stop offset="1.0" stop-color="#00e0ff" stop-opacity="0.02745098"/>
    </linearGradient>
    <linearGradient gradientTransform="matrix(7.0E-4, -0.0085, -0.0085, -7.0E-4, 131.05, 137.15)" gradientUnits="userSpaceOnUse" id="gradient3" spreadMethod="pad" x1="-819.2" x2="819.2">
      <stop offset="0.0" stop-color="#262626"/>
      <stop offset="0.7215686274509804" stop-color="#737375"/>
      <stop offset="1.0" stop-color="#262626"/>
    </linearGradient>
    <linearGradient gradientTransform="matrix(6.0E-4, 0.007, -0.007, 6.0E-4, 139.0, 61.85)" gradientUnits="userSpaceOnUse" id="gradient4" spreadMethod="pad" x1="-819.2" x2="819.2">
      <stop offset="0.0" stop-color="#262626"/>
      <stop offset="0.7215686274509804" stop-color="#737375"/>
      <stop offset="1.0" stop-color="#262626"/>
    </linearGradient>
    <linearGradient gradientTransform="matrix(6.0E-4, -0.0074, -0.0074, -6.0E-4, 171.2, 62.6)" gradientUnits="userSpaceOnUse" id="gradient5" spreadMethod="pad" x1="-819.2" x2="819.2">
      <stop offset="0.0" stop-color="#262626"/>
      <stop offset="0.7215686274509804" stop-color="#737375"/>
      <stop offset="1.0" stop-color="#262626"/>
    </linearGradient>
    <linearGradient gradientTransform="matrix(0.0, -0.0169, -0.0169, 0.0, 153.7, 72.35)" gradientUnits="userSpaceOnUse" id="gradient6" spreadMethod="pad" x1="-819.2" x2="819.2">
      <stop offset="0.0" stop-color="#282828"/>
      <stop offset="0.9058823529411765" stop-color="#a4a4a4"/>
      <stop offset="1.0" stop-color="#373737"/>
    </linearGradient>
    <linearGradient gradientTransform="matrix(0.0, -0.0169, -0.0169, 0.0, 153.7, 70.15)" gradientUnits="userSpaceOnUse" id="gradient7" spreadMethod="pad" x1="-819.2" x2="819.2">
      <stop offset="0.0" stop-color="#a4a4a4"/>
      <stop offset="1.0" stop-color="#282828"/>
    </linearGradient>
  </defs>
</svg>
