<?xml version="1.0" encoding="UTF-8" standalone="no"?>
<svg xmlns:ffdec="https://www.free-decompiler.com/flash" xmlns:xlink="http://www.w3.org/1999/xlink" ffdec:objectType="shape" height="68.3px" width="114.55px" xmlns="http://www.w3.org/2000/svg">
  <g transform="matrix(1.0, 0.0, 0.0, 1.0, -183.4, -108.2)">
    <path d="M232.8 175.6 L230.9 176.5 230.15 170.45 233.5 170.45 232.8 175.6" fill="url(#gradient0)" fill-rule="evenodd" stroke="none"/>
    <path d="M227.05 161.15 L233.8 158.4 236.6 160.4 234.0 171.0 231.05 172.6 229.6 171.6 227.05 161.15" fill="url(#gradient1)" fill-rule="evenodd" stroke="none"/>
    <path d="M230.4 163.45 L227.05 161.15 233.8 158.4 236.6 160.4 230.4 163.45" fill="#8c8c8c" fill-rule="evenodd" stroke="none"/>
    <path d="M230.4 163.45 L231.05 172.6 229.6 171.6 227.05 161.15 230.4 163.45" fill="#4f4f4f" fill-rule="evenodd" stroke="none"/>
    <path d="M187.95 175.6 L187.25 170.45 190.6 170.45 189.85 176.5 187.95 175.6" fill="url(#gradient2)" fill-rule="evenodd" stroke="none"/>
    <path d="M193.55 161.15 L191.0 171.6 189.55 172.6 186.6 171.0 183.4 160.95 186.85 158.4 193.55 161.15" fill="url(#gradient3)" fill-rule="evenodd" stroke="none"/>
    <path d="M190.25 163.45 L183.4 160.95 186.85 158.4 193.55 161.15 190.25 163.45" fill="#8c8c8c" fill-rule="evenodd" stroke="none"/>
    <path d="M190.25 163.45 L193.55 161.15 191.0 171.6 189.55 172.6 190.25 163.45" fill="#4f4f4f" fill-rule="evenodd" stroke="none"/>
    <path d="M249.15 109.2 L253.75 108.2 256.3 109.55 255.15 119.35 252.9 119.8 251.75 119.05 249.15 109.2" fill="url(#gradient4)" fill-rule="evenodd" stroke="none"/>
    <path d="M251.2 110.6 L249.15 109.2 253.75 108.2 256.3 109.55 251.2 110.6" fill="#4f4f4f" fill-rule="evenodd" stroke="none"/>
    <path d="M289.7 110.1 L286.05 120.05 284.95 120.8 282.7 120.35 281.65 109.8 284.6 108.55 289.7 110.1" fill="url(#gradient5)" fill-rule="evenodd" stroke="none"/>
    <path d="M286.5 111.45 L281.65 109.8 284.6 108.55 289.7 110.1 286.5 111.45" fill="#4f4f4f" fill-rule="evenodd" stroke="none"/>
    <path d="M297.95 124.5 Q297.95 130.25 289.1 134.3 280.3 138.35 267.8 138.35 255.3 138.35 246.5 134.3 237.65 130.25 237.65 124.5 237.65 118.8 246.5 114.75 255.3 110.7 267.8 110.7 280.3 110.7 289.1 114.75 297.95 118.8 297.95 124.5" fill="url(#gradient6)" fill-rule="evenodd" stroke="none"/>
    <path d="M297.95 122.3 Q297.95 128.0 289.1 132.1 280.3 136.15 267.8 136.15 255.3 136.15 246.5 132.1 237.65 128.0 237.65 122.3 237.65 116.55 246.5 112.5 255.3 108.45 267.8 108.45 280.3 108.45 289.1 112.5 297.95 116.55 297.95 122.3" fill="url(#gradient7)" fill-rule="evenodd" stroke="none"/>
    <path d="M286.15 113.1 Q293.75 116.4 293.75 121.1 293.75 125.8 286.15 129.15 278.55 132.45 267.8 132.45 257.05 132.45 249.45 129.15 241.85 125.8 241.85 121.1 241.85 116.4 249.45 113.1 257.05 109.75 267.8 109.75 278.55 109.75 286.15 113.1" fill="#131821" fill-rule="evenodd" stroke="none"/>
  </g>
  <defs>
    <linearGradient gradientTransform="matrix(0.0, 0.0037, -0.0037, 0.0, 231.8, 173.45)" gradientUnits="userSpaceOnUse" id="gradient0" spreadMethod="pad" x1="-819.2" x2="819.2">
      <stop offset="0.0" stop-color="#00e0ff" stop-opacity="0.7490196"/>
      <stop offset="1.0" stop-color="#00e0ff" stop-opacity="0.02745098"/>
    </linearGradient>
    <linearGradient gradientTransform="matrix(7.0E-4, 0.0085, -0.0085, 7.0E-4, 232.2, 165.5)" gradientUnits="userSpaceOnUse" id="gradient1" spreadMethod="pad" x1="-819.2" x2="819.2">
      <stop offset="0.0" stop-color="#262626"/>
      <stop offset="0.7215686274509804" stop-color="#737375"/>
      <stop offset="1.0" stop-color="#262626"/>
    </linearGradient>
    <linearGradient gradientTransform="matrix(0.0, 0.0037, 0.0037, 0.0, 188.95, 173.45)" gradientUnits="userSpaceOnUse" id="gradient2" spreadMethod="pad" x1="-819.2" x2="819.2">
      <stop offset="0.0" stop-color="#00e0ff" stop-opacity="0.7490196"/>
      <stop offset="1.0" stop-color="#00e0ff" stop-opacity="0.02745098"/>
    </linearGradient>
    <linearGradient gradientTransform="matrix(7.0E-4, -0.0085, -0.0085, -7.0E-4, 188.1, 165.5)" gradientUnits="userSpaceOnUse" id="gradient3" spreadMethod="pad" x1="-819.2" x2="819.2">
      <stop offset="0.0" stop-color="#262626"/>
      <stop offset="0.7215686274509804" stop-color="#737375"/>
      <stop offset="1.0" stop-color="#262626"/>
    </linearGradient>
    <linearGradient gradientTransform="matrix(6.0E-4, 0.007, -0.007, 6.0E-4, 253.1, 114.0)" gradientUnits="userSpaceOnUse" id="gradient4" spreadMethod="pad" x1="-819.2" x2="819.2">
      <stop offset="0.0" stop-color="#262626"/>
      <stop offset="0.7215686274509804" stop-color="#737375"/>
      <stop offset="1.0" stop-color="#262626"/>
    </linearGradient>
    <linearGradient gradientTransform="matrix(6.0E-4, -0.0074, -0.0074, -6.0E-4, 285.3, 114.75)" gradientUnits="userSpaceOnUse" id="gradient5" spreadMethod="pad" x1="-819.2" x2="819.2">
      <stop offset="0.0" stop-color="#262626"/>
      <stop offset="0.7215686274509804" stop-color="#737375"/>
      <stop offset="1.0" stop-color="#262626"/>
    </linearGradient>
    <linearGradient gradientTransform="matrix(0.0, -0.0169, -0.0169, 0.0, 267.8, 124.5)" gradientUnits="userSpaceOnUse" id="gradient6" spreadMethod="pad" x1="-819.2" x2="819.2">
      <stop offset="0.0" stop-color="#282828"/>
      <stop offset="0.9058823529411765" stop-color="#a4a4a4"/>
      <stop offset="1.0" stop-color="#373737"/>
    </linearGradient>
    <linearGradient gradientTransform="matrix(0.0, -0.0169, -0.0169, 0.0, 267.8, 122.3)" gradientUnits="userSpaceOnUse" id="gradient7" spreadMethod="pad" x1="-819.2" x2="819.2">
      <stop offset="0.0" stop-color="#a4a4a4"/>
      <stop offset="1.0" stop-color="#282828"/>
    </linearGradient>
  </defs>
</svg>
