<?xml version="1.0" encoding="UTF-8" standalone="no"?>
<svg xmlns:ffdec="https://www.free-decompiler.com/flash" xmlns:xlink="http://www.w3.org/1999/xlink" ffdec:objectType="shape" height="70.3px" width="115.55px" xmlns="http://www.w3.org/2000/svg">
  <g transform="matrix(1.0, 0.0, 0.0, 1.0, -5.05, -108.2)">
    <path d="M71.2 177.6 L73.1 178.5 73.85 172.45 70.5 172.45 71.2 177.6" fill="url(#gradient0)" fill-rule="evenodd" stroke="none"/>
    <path d="M76.95 163.15 L70.2 160.4 67.4 162.4 70.0 173.0 72.95 174.6 74.4 173.6 76.95 163.15" fill="url(#gradient1)" fill-rule="evenodd" stroke="none"/>
    <path d="M73.6 165.45 L76.95 163.15 70.2 160.4 67.4 162.4 73.6 165.45" fill="#8c8c8c" fill-rule="evenodd" stroke="none"/>
    <path d="M73.6 165.45 L72.95 174.6 74.4 173.6 76.95 163.15 73.6 165.45" fill="#4f4f4f" fill-rule="evenodd" stroke="none"/>
    <path d="M116.05 177.6 L116.75 172.45 113.4 172.45 114.15 178.5 116.05 177.6" fill="url(#gradient2)" fill-rule="evenodd" stroke="none"/>
    <path d="M110.45 163.15 L113.0 173.6 114.45 174.6 117.4 173.0 120.6 162.95 117.15 160.4 110.45 163.15" fill="url(#gradient3)" fill-rule="evenodd" stroke="none"/>
    <path d="M113.75 165.45 L120.6 162.95 117.15 160.4 110.45 163.15 113.75 165.45" fill="#8c8c8c" fill-rule="evenodd" stroke="none"/>
    <path d="M113.75 165.45 L110.45 163.15 113.0 173.6 114.45 174.6 113.75 165.45" fill="#4f4f4f" fill-rule="evenodd" stroke="none"/>
    <path d="M53.85 109.2 L49.25 108.2 46.7 109.55 47.85 119.35 50.1 119.8 51.25 119.05 53.85 109.2" fill="url(#gradient4)" fill-rule="evenodd" stroke="none"/>
    <path d="M51.8 110.6 L53.85 109.2 49.25 108.2 46.7 109.55 51.8 110.6" fill="#4f4f4f" fill-rule="evenodd" stroke="none"/>
    <path d="M13.3 110.1 L16.95 120.05 18.05 120.8 20.3 120.35 21.35 109.8 18.4 108.55 13.3 110.1" fill="url(#gradient5)" fill-rule="evenodd" stroke="none"/>
    <path d="M16.5 111.45 L21.35 109.8 18.4 108.55 13.3 110.1 16.5 111.45" fill="#4f4f4f" fill-rule="evenodd" stroke="none"/>
    <path d="M5.05 124.5 Q5.05 130.25 13.9 134.3 22.7 138.35 35.2 138.35 47.7 138.35 56.5 134.3 65.35 130.25 65.35 124.5 65.35 118.8 56.5 114.75 47.7 110.7 35.2 110.7 22.7 110.7 13.9 114.75 5.05 118.8 5.05 124.5" fill="url(#gradient6)" fill-rule="evenodd" stroke="none"/>
    <path d="M5.05 122.3 Q5.05 128.0 13.9 132.1 22.7 136.15 35.2 136.15 47.7 136.15 56.5 132.1 65.35 128.0 65.35 122.3 65.35 116.55 56.5 112.5 47.7 108.45 35.2 108.45 22.7 108.45 13.9 112.5 5.05 116.55 5.05 122.3" fill="url(#gradient7)" fill-rule="evenodd" stroke="none"/>
    <path d="M16.85 113.1 Q9.25 116.4 9.25 121.1 9.25 125.8 16.85 129.15 24.45 132.45 35.2 132.45 45.95 132.45 53.55 129.15 61.15 125.8 61.15 121.1 61.15 116.4 53.55 113.1 45.95 109.75 35.2 109.75 24.45 109.75 16.85 113.1" fill="#131821" fill-rule="evenodd" stroke="none"/>
  </g>
  <defs>
    <linearGradient gradientTransform="matrix(0.0, 0.0037, 0.0037, 0.0, 72.2, 175.45)" gradientUnits="userSpaceOnUse" id="gradient0" spreadMethod="pad" x1="-819.2" x2="819.2">
      <stop offset="0.0" stop-color="#00e0ff" stop-opacity="0.7490196"/>
      <stop offset="1.0" stop-color="#00e0ff" stop-opacity="0.02745098"/>
    </linearGradient>
    <linearGradient gradientTransform="matrix(-7.0E-4, 0.0085, 0.0085, 7.0E-4, 71.8, 167.5)" gradientUnits="userSpaceOnUse" id="gradient1" spreadMethod="pad" x1="-819.2" x2="819.2">
      <stop offset="0.0" stop-color="#262626"/>
      <stop offset="0.7215686274509804" stop-color="#737375"/>
      <stop offset="1.0" stop-color="#262626"/>
    </linearGradient>
    <linearGradient gradientTransform="matrix(0.0, 0.0037, -0.0037, 0.0, 115.05, 175.45)" gradientUnits="userSpaceOnUse" id="gradient2" spreadMethod="pad" x1="-819.2" x2="819.2">
      <stop offset="0.0" stop-color="#00e0ff" stop-opacity="0.7490196"/>
      <stop offset="1.0" stop-color="#00e0ff" stop-opacity="0.02745098"/>
    </linearGradient>
    <linearGradient gradientTransform="matrix(-7.0E-4, -0.0085, 0.0085, -7.0E-4, 115.9, 167.5)" gradientUnits="userSpaceOnUse" id="gradient3" spreadMethod="pad" x1="-819.2" x2="819.2">
      <stop offset="0.0" stop-color="#262626"/>
      <stop offset="0.7215686274509804" stop-color="#737375"/>
      <stop offset="1.0" stop-color="#262626"/>
    </linearGradient>
    <linearGradient gradientTransform="matrix(-6.0E-4, 0.007, 0.007, 6.0E-4, 49.9, 114.0)" gradientUnits="userSpaceOnUse" id="gradient4" spreadMethod="pad" x1="-819.2" x2="819.2">
      <stop offset="0.0" stop-color="#262626"/>
      <stop offset="0.7215686274509804" stop-color="#737375"/>
      <stop offset="1.0" stop-color="#262626"/>
    </linearGradient>
    <linearGradient gradientTransform="matrix(-6.0E-4, -0.0074, 0.0074, -6.0E-4, 17.7, 114.75)" gradientUnits="userSpaceOnUse" id="gradient5" spreadMethod="pad" x1="-819.2" x2="819.2">
      <stop offset="0.0" stop-color="#262626"/>
      <stop offset="0.7215686274509804" stop-color="#737375"/>
      <stop offset="1.0" stop-color="#262626"/>
    </linearGradient>
    <linearGradient gradientTransform="matrix(0.0, -0.0169, 0.0169, 0.0, 35.2, 124.5)" gradientUnits="userSpaceOnUse" id="gradient6" spreadMethod="pad" x1="-819.2" x2="819.2">
      <stop offset="0.0" stop-color="#282828"/>
      <stop offset="0.9058823529411765" stop-color="#a4a4a4"/>
      <stop offset="1.0" stop-color="#373737"/>
    </linearGradient>
    <linearGradient gradientTransform="matrix(0.0, -0.0169, 0.0169, 0.0, 35.2, 122.3)" gradientUnits="userSpaceOnUse" id="gradient7" spreadMethod="pad" x1="-819.2" x2="819.2">
      <stop offset="0.0" stop-color="#a4a4a4"/>
      <stop offset="1.0" stop-color="#282828"/>
    </linearGradient>
  </defs>
</svg>
