<?xml version="1.0" encoding="UTF-8" standalone="no"?>
<svg xmlns:ffdec="https://www.free-decompiler.com/flash" xmlns:xlink="http://www.w3.org/1999/xlink" ffdec:objectType="shape" height="68.55px" width="115.55px" xmlns="http://www.w3.org/2000/svg">
  <g transform="matrix(1.0, 0.0, 0.0, 1.0, -8.85, -80.6)">
    <path d="M12.65 148.25 L14.55 149.15 15.3 143.1 11.95 143.1 12.65 148.25" fill="url(#gradient0)" fill-rule="evenodd" stroke="none"/>
    <path d="M18.4 133.8 L11.65 131.05 8.85 133.05 11.45 143.65 14.4 145.25 15.85 144.25 18.4 133.8" fill="url(#gradient1)" fill-rule="evenodd" stroke="none"/>
    <path d="M15.05 136.1 L18.4 133.8 11.65 131.05 8.85 133.05 15.05 136.1" fill="#8c8c8c" fill-rule="evenodd" stroke="none"/>
    <path d="M15.05 136.1 L14.4 145.25 15.85 144.25 18.4 133.8 15.05 136.1" fill="#4f4f4f" fill-rule="evenodd" stroke="none"/>
    <path d="M57.5 148.25 L58.2 143.1 54.85 143.1 55.6 149.15 57.5 148.25" fill="url(#gradient2)" fill-rule="evenodd" stroke="none"/>
    <path d="M51.9 133.8 L54.45 144.25 55.9 145.25 58.85 143.65 62.05 133.6 58.6 131.05 51.9 133.8" fill="url(#gradient3)" fill-rule="evenodd" stroke="none"/>
    <path d="M55.2 136.1 L62.05 133.6 58.6 131.05 51.9 133.8 55.2 136.1" fill="#8c8c8c" fill-rule="evenodd" stroke="none"/>
    <path d="M55.2 136.1 L51.9 133.8 54.45 144.25 55.9 145.25 55.2 136.1" fill="#4f4f4f" fill-rule="evenodd" stroke="none"/>
    <path d="M112.9 81.6 L108.3 80.6 105.75 81.95 106.9 91.75 109.15 92.2 110.3 91.45 112.9 81.6" fill="url(#gradient4)" fill-rule="evenodd" stroke="none"/>
    <path d="M110.85 83.0 L112.9 81.6 108.3 80.6 105.75 81.95 110.85 83.0" fill="#4f4f4f" fill-rule="evenodd" stroke="none"/>
    <path d="M72.35 82.5 L76.0 92.45 77.1 93.2 79.35 92.75 80.4 82.2 77.45 80.95 72.35 82.5" fill="url(#gradient5)" fill-rule="evenodd" stroke="none"/>
    <path d="M75.55 83.85 L80.4 82.2 77.45 80.95 72.35 82.5 75.55 83.85" fill="#4f4f4f" fill-rule="evenodd" stroke="none"/>
    <path d="M64.1 96.9 Q64.1 102.65 72.95 106.7 81.75 110.75 94.25 110.75 106.75 110.75 115.55 106.7 124.4 102.65 124.4 96.9 124.4 91.2 115.55 87.15 106.75 83.1 94.25 83.1 81.75 83.1 72.95 87.15 64.1 91.2 64.1 96.9" fill="url(#gradient6)" fill-rule="evenodd" stroke="none"/>
    <path d="M64.1 94.7 Q64.1 100.4 72.95 104.5 81.75 108.55 94.25 108.55 106.75 108.55 115.55 104.5 124.4 100.4 124.4 94.7 124.4 88.95 115.55 84.9 106.75 80.85 94.25 80.85 81.75 80.85 72.95 84.9 64.1 88.95 64.1 94.7" fill="url(#gradient7)" fill-rule="evenodd" stroke="none"/>
    <path d="M75.9 85.5 Q68.3 88.8 68.3 93.5 68.3 98.2 75.9 101.55 83.5 104.85 94.25 104.85 105.0 104.85 112.6 101.55 120.2 98.2 120.2 93.5 120.2 88.8 112.6 85.5 105.0 82.15 94.25 82.15 83.5 82.15 75.9 85.5" fill="#131821" fill-rule="evenodd" stroke="none"/>
  </g>
  <defs>
    <linearGradient gradientTransform="matrix(0.0, 0.0037, 0.0037, 0.0, 13.65, 146.1)" gradientUnits="userSpaceOnUse" id="gradient0" spreadMethod="pad" x1="-819.2" x2="819.2">
      <stop offset="0.0" stop-color="#00e0ff" stop-opacity="0.7490196"/>
      <stop offset="1.0" stop-color="#00e0ff" stop-opacity="0.02745098"/>
    </linearGradient>
    <linearGradient gradientTransform="matrix(-7.0E-4, 0.0085, 0.0085, 7.0E-4, 13.25, 138.15)" gradientUnits="userSpaceOnUse" id="gradient1" spreadMethod="pad" x1="-819.2" x2="819.2">
      <stop offset="0.0" stop-color="#262626"/>
      <stop offset="0.7215686274509804" stop-color="#737375"/>
      <stop offset="1.0" stop-color="#262626"/>
    </linearGradient>
    <linearGradient gradientTransform="matrix(0.0, 0.0037, -0.0037, 0.0, 56.5, 146.1)" gradientUnits="userSpaceOnUse" id="gradient2" spreadMethod="pad" x1="-819.2" x2="819.2">
      <stop offset="0.0" stop-color="#00e0ff" stop-opacity="0.7490196"/>
      <stop offset="1.0" stop-color="#00e0ff" stop-opacity="0.02745098"/>
    </linearGradient>
    <linearGradient gradientTransform="matrix(-7.0E-4, -0.0085, 0.0085, -7.0E-4, 57.35, 138.15)" gradientUnits="userSpaceOnUse" id="gradient3" spreadMethod="pad" x1="-819.2" x2="819.2">
      <stop offset="0.0" stop-color="#262626"/>
      <stop offset="0.7215686274509804" stop-color="#737375"/>
      <stop offset="1.0" stop-color="#262626"/>
    </linearGradient>
    <linearGradient gradientTransform="matrix(-6.0E-4, 0.007, 0.007, 6.0E-4, 108.95, 86.4)" gradientUnits="userSpaceOnUse" id="gradient4" spreadMethod="pad" x1="-819.2" x2="819.2">
      <stop offset="0.0" stop-color="#262626"/>
      <stop offset="0.7215686274509804" stop-color="#737375"/>
      <stop offset="1.0" stop-color="#262626"/>
    </linearGradient>
    <linearGradient gradientTransform="matrix(-6.0E-4, -0.0074, 0.0074, -6.0E-4, 76.75, 87.15)" gradientUnits="userSpaceOnUse" id="gradient5" spreadMethod="pad" x1="-819.2" x2="819.2">
      <stop offset="0.0" stop-color="#262626"/>
      <stop offset="0.7215686274509804" stop-color="#737375"/>
      <stop offset="1.0" stop-color="#262626"/>
    </linearGradient>
    <linearGradient gradientTransform="matrix(0.0, -0.0169, 0.0169, 0.0, 94.25, 96.9)" gradientUnits="userSpaceOnUse" id="gradient6" spreadMethod="pad" x1="-819.2" x2="819.2">
      <stop offset="0.0" stop-color="#282828"/>
      <stop offset="0.9058823529411765" stop-color="#a4a4a4"/>
      <stop offset="1.0" stop-color="#373737"/>
    </linearGradient>
    <linearGradient gradientTransform="matrix(0.0, -0.0169, 0.0169, 0.0, 94.25, 94.7)" gradientUnits="userSpaceOnUse" id="gradient7" spreadMethod="pad" x1="-819.2" x2="819.2">
      <stop offset="0.0" stop-color="#a4a4a4"/>
      <stop offset="1.0" stop-color="#282828"/>
    </linearGradient>
  </defs>
</svg>
