<?xml version="1.0" encoding="UTF-8" standalone="no"?>
<svg xmlns:ffdec="https://www.free-decompiler.com/flash" xmlns:xlink="http://www.w3.org/1999/xlink" ffdec:objectType="shape" height="18.1px" width="53.2px" xmlns="http://www.w3.org/2000/svg">
  <g transform="matrix(1.0, 0.0, 0.0, 1.0, -67.9, -103.45)">
    <path d="M71.7 120.65 L73.6 121.55 74.35 115.5 71.0 115.5 71.7 120.65" fill="url(#gradient0)" fill-rule="evenodd" stroke="none"/>
    <path d="M77.45 106.2 L70.7 103.45 67.9 105.45 70.5 116.05 73.45 117.65 74.9 116.65 77.45 106.2" fill="url(#gradient1)" fill-rule="evenodd" stroke="none"/>
    <path d="M74.1 108.5 L77.45 106.2 70.7 103.45 67.9 105.45 74.1 108.5" fill="#8c8c8c" fill-rule="evenodd" stroke="none"/>
    <path d="M74.1 108.5 L73.45 117.65 74.9 116.65 77.45 106.2 74.1 108.5" fill="#4f4f4f" fill-rule="evenodd" stroke="none"/>
    <path d="M116.55 120.65 L117.25 115.5 113.9 115.5 114.65 121.55 116.55 120.65" fill="url(#gradient2)" fill-rule="evenodd" stroke="none"/>
    <path d="M110.95 106.2 L113.5 116.65 114.95 117.65 117.9 116.05 121.1 106.0 117.65 103.45 110.95 106.2" fill="url(#gradient3)" fill-rule="evenodd" stroke="none"/>
    <path d="M114.25 108.5 L121.1 106.0 117.65 103.45 110.95 106.2 114.25 108.5" fill="#8c8c8c" fill-rule="evenodd" stroke="none"/>
    <path d="M114.25 108.5 L110.95 106.2 113.5 116.65 114.95 117.65 114.25 108.5" fill="#4f4f4f" fill-rule="evenodd" stroke="none"/>
  </g>
  <defs>
    <linearGradient gradientTransform="matrix(0.0, 0.0037, 0.0037, 0.0, 72.7, 118.5)" gradientUnits="userSpaceOnUse" id="gradient0" spreadMethod="pad" x1="-819.2" x2="819.2">
      <stop offset="0.0" stop-color="#00e0ff" stop-opacity="0.7490196"/>
      <stop offset="1.0" stop-color="#00e0ff" stop-opacity="0.02745098"/>
    </linearGradient>
    <linearGradient gradientTransform="matrix(-7.0E-4, 0.0085, 0.0085, 7.0E-4, 72.3, 110.55)" gradientUnits="userSpaceOnUse" id="gradient1" spreadMethod="pad" x1="-819.2" x2="819.2">
      <stop offset="0.0" stop-color="#262626"/>
      <stop offset="0.7215686274509804" stop-color="#737375"/>
      <stop offset="1.0" stop-color="#262626"/>
    </linearGradient>
    <linearGradient gradientTransform="matrix(0.0, 0.0037, -0.0037, 0.0, 115.55, 118.5)" gradientUnits="userSpaceOnUse" id="gradient2" spreadMethod="pad" x1="-819.2" x2="819.2">
      <stop offset="0.0" stop-color="#00e0ff" stop-opacity="0.7490196"/>
      <stop offset="1.0" stop-color="#00e0ff" stop-opacity="0.02745098"/>
    </linearGradient>
    <linearGradient gradientTransform="matrix(-7.0E-4, -0.0085, 0.0085, -7.0E-4, 116.4, 110.55)" gradientUnits="userSpaceOnUse" id="gradient3" spreadMethod="pad" x1="-819.2" x2="819.2">
      <stop offset="0.0" stop-color="#262626"/>
      <stop offset="0.7215686274509804" stop-color="#737375"/>
      <stop offset="1.0" stop-color="#262626"/>
    </linearGradient>
  </defs>
</svg>
