<?xml version="1.0" encoding="UTF-8" standalone="no"?>
<svg xmlns:ffdec="https://www.free-decompiler.com/flash" xmlns:xlink="http://www.w3.org/1999/xlink" ffdec:objectType="shape" height="69.0px" width="141.0px" xmlns="http://www.w3.org/2000/svg">
  <g transform="matrix(1.0, 0.0, 0.0, 1.0, 0.0, 0.0)">
    <path d="M120.35 29.4 L120.35 65.65 Q120.35 66.8 119.45 67.6 118.65 68.45 117.45 68.45 L34.4 68.45 Q33.2 68.45 32.35 67.6 31.5 66.8 31.5 65.65 L31.5 29.4 Q31.5 28.2 32.35 27.4 33.2 26.55 34.4 26.55 L117.45 26.55 Q118.65 26.55 119.45 27.4 120.35 28.2 120.35 29.4" fill="#04217f" fill-rule="evenodd" stroke="none"/>
    <path d="M120.35 29.4 L120.35 65.65 Q120.35 66.8 119.45 67.6 118.65 68.45 117.45 68.45 L34.4 68.45 Q33.2 68.45 32.35 67.6 31.5 66.8 31.5 65.65 L31.5 29.4 Q31.5 28.2 32.35 27.4 33.2 26.55 34.4 26.55 L117.45 26.55 Q118.65 26.55 119.45 27.4 120.35 28.2 120.35 29.4 Z" fill="none" stroke="#0f69ed" stroke-linecap="butt" stroke-linejoin="miter-clip" stroke-miterlimit="4.0" stroke-width="1.0"/>
    <path d="M121.4 2.2 L140.35 22.45 Q141.2 23.4 140.9 24.0 140.6 24.65 139.35 24.65 L116.9 24.65 114.4 24.25 Q113.15 23.85 112.65 23.25 112.15 22.7 112.65 22.25 113.15 21.85 114.4 21.85 L129.95 21.85 Q131.2 21.85 131.45 21.2 131.75 20.55 130.9 19.65 L117.2 5.0 Q116.4 4.1 114.9 3.45 113.4 2.8 112.15 2.8 L97.3 2.8 94.8 2.4 Q93.5 2.0 93.0 1.4 92.5 0.85 93.0 0.4 93.5 0.0 94.75 0.0 L116.35 0.0 Q117.6 0.0 119.05 0.65 120.55 1.3 121.4 2.2" fill="#031d4f" fill-rule="evenodd" stroke="none"/>
    <path d="M27.7 2.55 Q27.2 2.95 25.95 2.95 L12.55 2.95 Q11.3 2.95 11.0 3.6 10.75 4.25 11.55 5.2 L24.4 19.5 26.7 21.05 Q28.15 21.7 29.4 21.7 L43.5 21.7 46.0 22.15 Q47.3 22.6 47.85 23.2 48.4 23.8 47.95 24.25 47.5 24.65 46.25 24.65 L23.8 24.65 Q22.55 24.65 21.1 24.0 L18.8 22.45 0.65 2.25 Q-0.2 1.3 0.1 0.65 0.35 0.0 1.6 0.0 L23.2 0.0 25.75 0.45 Q27.05 0.85 27.6 1.5 28.15 2.1 27.7 2.55" fill="#031d4f" fill-rule="evenodd" stroke="none"/>
    <path d="M127.5 19.7 Q127.2 20.35 125.95 20.35 L30.8 20.35 Q29.55 20.35 28.1 19.7 26.6 19.05 25.75 18.15 L16.25 7.55 Q15.45 6.6 15.7 5.95 16.0 5.3 17.25 5.3 L111.9 5.3 Q113.15 5.3 114.65 5.95 116.15 6.6 116.95 7.5 L126.9 18.15 Q127.75 19.05 127.5 19.7" fill="#066dea" fill-rule="evenodd" stroke="none"/>
    <path d="M127.5 19.7 Q127.75 19.05 126.9 18.15 L116.95 7.5 Q116.15 6.6 114.65 5.95 113.15 5.3 111.9 5.3 L17.25 5.3 Q16.0 5.3 15.7 5.95 15.45 6.6 16.25 7.55 L25.75 18.15 Q26.6 19.05 28.1 19.7 29.55 20.35 30.8 20.35 L125.95 20.35 Q127.2 20.35 127.5 19.7 Z" fill="none" stroke="#00cfff" stroke-linecap="butt" stroke-linejoin="miter-clip" stroke-miterlimit="4.0" stroke-width="1.0"/>
    <path d="M32.0 15.85 L23.65 8.8 27.4 8.8 32.0 10.85 36.8 8.8 40.3 8.8 32.0 15.85" fill="#03d0ff" fill-rule="evenodd" stroke="none"/>
    <path d="M32.0 15.85 L23.65 8.8 27.4 8.8 32.0 10.85 36.8 8.8 40.3 8.8 32.0 15.85 Z" fill="none" stroke="#06bfff" stroke-linecap="butt" stroke-linejoin="miter-clip" stroke-miterlimit="4.0" stroke-width="1.0"/>
  </g>
</svg>
