<?xml version="1.0" encoding="UTF-8" standalone="no"?>
<svg xmlns:ffdec="https://www.free-decompiler.com/flash" xmlns:xlink="http://www.w3.org/1999/xlink" ffdec:objectType="shape" height="24.65px" width="160.05px" xmlns="http://www.w3.org/2000/svg">
  <g transform="matrix(1.0, 0.0, 0.0, 1.0, 0.0, 0.0)">
    <path d="M19.6 2.2 L0.65 22.45 Q-0.2 23.4 0.1 24.0 0.4 24.65 1.65 24.65 L24.1 24.65 26.6 24.25 Q27.85 23.85 28.35 23.25 28.85 22.7 28.35 22.25 27.85 21.85 26.6 21.85 L11.05 21.85 Q9.8 21.85 9.55 21.2 9.25 20.55 10.1 19.65 L23.8 5.0 Q24.6 4.1 26.1 3.45 27.6 2.8 28.85 2.8 L43.7 2.8 46.2 2.4 Q47.5 2.0 48.0 1.4 48.5 0.85 48.0 0.4 47.5 0.0 46.25 0.0 L24.65 0.0 Q23.4 0.0 21.95 0.65 20.45 1.3 19.6 2.2" fill="#031d4f" fill-rule="evenodd" stroke="none"/>
    <path d="M132.35 2.55 Q132.85 2.95 134.1 2.95 L147.5 2.95 Q148.75 2.95 149.05 3.6 149.3 4.25 148.5 5.2 L135.65 19.5 133.35 21.05 Q131.9 21.7 130.65 21.7 L116.55 21.7 114.05 22.15 Q112.75 22.6 112.2 23.2 111.65 23.8 112.1 24.25 112.55 24.65 113.8 24.65 L136.25 24.65 Q137.5 24.65 138.95 24.0 L141.25 22.45 159.4 2.25 Q160.25 1.3 159.95 0.65 159.7 0.0 158.45 0.0 L136.85 0.0 134.3 0.45 Q133.0 0.85 132.45 1.5 131.9 2.1 132.35 2.55" fill="#031d4f" fill-rule="evenodd" stroke="none"/>
    <path d="M131.55 19.7 Q130.1 20.35 128.85 20.35 L15.05 20.35 Q13.8 20.35 13.5 19.7 13.25 19.05 14.1 18.15 L24.05 7.5 Q24.85 6.6 26.35 5.95 27.85 5.3 29.1 5.3 L142.4 5.3 Q143.65 5.3 143.95 5.95 144.2 6.6 143.4 7.55 L133.9 18.15 131.55 19.7" fill="#003cc2" fill-rule="evenodd" stroke="none"/>
    <path d="M131.55 19.7 Q130.1 20.35 128.85 20.35 L15.05 20.35 Q13.8 20.35 13.5 19.7 13.25 19.05 14.1 18.15 L24.05 7.5 Q24.85 6.6 26.35 5.95 27.85 5.3 29.1 5.3 L142.4 5.3 Q143.65 5.3 143.95 5.95 144.2 6.6 143.4 7.55 L133.9 18.15 131.55 19.7 Z" fill="none" stroke="#0666ff" stroke-linecap="butt" stroke-linejoin="miter-clip" stroke-miterlimit="4.0" stroke-width="1.0"/>
    <path d="M129.0 15.85 L137.35 8.8 133.6 8.8 129.0 10.85 124.2 8.8 120.7 8.8 129.0 15.85" fill="#0658bc" fill-rule="evenodd" stroke="none"/>
    <path d="M129.0 15.85 L137.35 8.8 133.6 8.8 129.0 10.85 124.2 8.8 120.7 8.8 129.0 15.85 Z" fill="none" stroke="#0890ff" stroke-linecap="butt" stroke-linejoin="miter-clip" stroke-miterlimit="4.0" stroke-width="1.0"/>
  </g>
</svg>
