<?xml version="1.0" encoding="UTF-8" standalone="no"?>
<svg xmlns:ffdec="https://www.free-decompiler.com/flash" xmlns:xlink="http://www.w3.org/1999/xlink" ffdec:objectType="shape" height="58.4px" width="58.35px" xmlns="http://www.w3.org/2000/svg">
  <g transform="matrix(1.0, 0.0, 0.0, 1.0, 74.9, 116.45)">
    <path d="M-69.9 -115.95 L-21.3 -115.95 -17.05 -111.75 -17.05 -105.35 -19.15 -101.4 -19.15 -72.95 -17.05 -68.95 -17.05 -62.45 -21.4 -58.55 -69.75 -58.55 -74.4 -63.4 -74.4 -68.9 -72.3 -73.0 -72.3 -101.4 -74.4 -105.45 -74.4 -110.95 -69.9 -115.95" fill="#022a56" fill-rule="evenodd" stroke="none"/>
    <path d="M-69.9 -115.95 L-21.3 -115.95 -17.05 -111.75 -17.05 -105.35 -19.15 -101.4 -19.15 -72.95 -17.05 -68.95 -17.05 -62.45 -21.4 -58.55 -69.75 -58.55 -74.4 -63.4 -74.4 -68.9 -72.3 -73.0 -72.3 -101.4 -74.4 -105.45 -74.4 -110.95 -69.9 -115.95 Z" fill="none" stroke="#035eef" stroke-linecap="butt" stroke-linejoin="miter-clip" stroke-miterlimit="4.0" stroke-width="1.0"/>
  </g>
</svg>
