<?xml version="1.0" encoding="UTF-8" standalone="no"?>
<svg xmlns:ffdec="https://www.free-decompiler.com/flash" xmlns:xlink="http://www.w3.org/1999/xlink" ffdec:objectType="shape" height="35.6px" width="35.6px" xmlns="http://www.w3.org/2000/svg">
  <g transform="matrix(1.0, 0.0, 0.0, 1.0, -83.8, -7.4)">
    <path d="M117.4 25.2 Q117.4 31.75 112.75 36.4 108.15 41.0 101.6 41.0 95.05 41.0 90.4 36.4 85.8 31.75 85.8 25.2 85.8 18.65 90.4 14.05 95.05 9.4 101.6 9.4 108.15 9.4 112.75 14.05 117.4 18.7 117.4 25.2" fill="#022960" fill-rule="evenodd" stroke="none"/>
    <path d="M101.6 7.4 Q108.95 7.4 114.2 12.65 119.4 17.85 119.4 25.2 119.4 32.55 114.2 37.8 108.95 43.0 101.6 43.0 94.25 43.0 89.05 37.8 83.8 32.55 83.8 25.2 83.8 17.85 89.05 12.65 94.25 7.4 101.6 7.4 M101.6 9.4 Q95.05 9.4 90.4 14.05 85.8 18.65 85.8 25.2 85.8 31.75 90.4 36.4 95.05 41.0 101.6 41.0 108.15 41.0 112.75 36.4 117.4 31.75 117.4 25.2 117.4 18.7 112.75 14.05 108.15 9.4 101.6 9.4" fill="#36a4ff" fill-rule="evenodd" stroke="none"/>
    <path d="M91.75 25.0 L100.75 27.75 112.6 17.55 101.25 32.9 90.55 26.8 91.75 25.0" fill="#76caf4" fill-rule="evenodd" stroke="none"/>
  </g>
</svg>
