<?xml version="1.0" encoding="UTF-8" standalone="no"?>
<svg xmlns:ffdec="https://www.free-decompiler.com/flash" xmlns:xlink="http://www.w3.org/1999/xlink" ffdec:objectType="shape" height="419.55px" width="577.65px" xmlns="http://www.w3.org/2000/svg">
  <g transform="matrix(1.0, 0.0, 0.0, 1.0, 289.35, 220.5)">
    <path d="M287.3 161.4 L287.3 180.9 280.45 187.7 260.45 187.7 255.0 182.25 277.9 182.25 282.65 177.55 282.65 156.75 287.3 161.4 Z" fill="none" stroke="#181919" stroke-linecap="butt" stroke-linejoin="miter-clip" stroke-miterlimit="4.0" stroke-width="2.0"/>
    <path d="M287.3 161.4 L287.3 180.9 280.45 187.7 260.45 187.7 255.0 182.25 277.9 182.25 282.65 177.55 282.65 156.75 287.3 161.4" fill="#717272" fill-rule="evenodd" stroke="none"/>
    <path d="M-283.7 177.55 L-283.7 156.75 -288.35 161.4 -288.35 180.9 -281.55 187.7 -261.5 187.7 -256.05 182.25 -279.0 182.25 -283.7 177.55 Z" fill="none" stroke="#181919" stroke-linecap="butt" stroke-linejoin="miter-clip" stroke-miterlimit="4.0" stroke-width="2.0"/>
    <path d="M-283.7 177.55 L-279.0 182.25 -256.05 182.25 -261.5 187.7 -281.55 187.7 -288.35 180.9 -288.35 161.4 -283.7 156.75 -283.7 177.55" fill="#717272" fill-rule="evenodd" stroke="none"/>
    <path d="M141.45 187.7 L151.8 198.05 -168.85 198.05 -158.5 187.7 141.45 187.7" fill="#1e1e1e" fill-rule="evenodd" stroke="none"/>
    <path d="M141.45 187.7 L-158.5 187.7 -168.85 198.05 151.8 198.05 141.45 187.7 Z" fill="none" stroke="#181919" stroke-linecap="butt" stroke-linejoin="miter-clip" stroke-miterlimit="4.0" stroke-width="2.0"/>
    <path d="M102.65 -178.9 L106.6 -174.95 -102.6 -174.95 -98.65 -178.9 102.65 -178.9" fill="#494949" fill-rule="evenodd" stroke="none"/>
    <path d="M102.65 -178.9 L-98.65 -178.9 -102.6 -174.95 106.6 -174.95 102.65 -178.9 Z" fill="none" stroke="#494949" stroke-linecap="butt" stroke-linejoin="miter-clip" stroke-miterlimit="4.0" stroke-width="1.0"/>
    <path d="M64.65 -184.55 L29.55 -184.55 29.4 -184.5 Q28.2 -184.0 27.65 -183.25 L25.9 -181.95 Q24.65 -181.4 23.4 -181.4 L-24.5 -181.4 Q-25.75 -181.4 -27.0 -181.95 L-28.75 -183.25 Q-29.3 -184.0 -30.5 -184.5 L-30.65 -184.55 -65.75 -184.55 -68.5 -185.15 -70.9 -186.6 -78.7 -194.1 Q-79.6 -194.95 -79.35 -195.6 -79.1 -196.2 -77.85 -196.2 L76.75 -196.2 Q78.0 -196.2 78.25 -195.6 78.5 -194.95 77.6 -194.1 L69.8 -186.6 Q68.9 -185.75 67.4 -185.15 L64.65 -184.55" fill="#333333" fill-rule="evenodd" stroke="none"/>
    <path d="M23.4 -220.5 Q24.75 -220.5 26.45 -219.9 28.2 -219.3 29.25 -218.45 L30.6 -217.35 Q31.7 -216.55 31.95 -215.1 32.25 -213.7 31.55 -212.5 L18.75 -189.45 Q18.1 -188.25 16.7 -187.45 15.25 -186.6 13.9 -186.6 L-17.4 -186.6 Q-18.75 -186.6 -20.15 -187.5 -21.6 -188.3 -22.2 -189.5 L-34.05 -212.45 Q-34.65 -213.65 -34.4 -215.15 -34.2 -216.7 -33.2 -217.65 L-32.7 -218.15 Q-31.75 -219.15 -30.1 -219.8 -28.45 -220.5 -27.1 -220.5 L23.4 -220.5" fill="url(#gradient0)" fill-rule="evenodd" stroke="none"/>
    <path d="M20.9 -217.45 Q22.5 -216.8 23.45 -215.8 L24.05 -215.25 Q24.95 -214.35 25.2 -212.8 25.4 -211.35 24.75 -210.15 L15.15 -192.85 Q14.5 -191.65 13.0 -190.8 11.6 -189.95 10.25 -189.95 L9.75 -189.95 Q6.45 -189.95 5.5 -190.55 4.4 -191.15 1.2 -191.15 L-4.15 -191.15 Q-7.45 -191.15 -8.4 -190.55 -8.7 -190.3 -9.95 -190.1 L-12.5 -189.95 -13.5 -189.95 Q-14.85 -189.95 -16.3 -190.8 -17.7 -191.7 -18.3 -192.9 L-27.2 -210.1 Q-27.8 -211.3 -27.65 -212.85 -27.55 -214.5 -26.65 -215.55 L-26.6 -215.6 Q-25.8 -216.65 -24.2 -217.35 -22.65 -218.1 -21.3 -218.1 L-18.6 -218.1 -13.8 -217.45 Q-12.15 -216.8 -9.05 -216.8 L7.3 -216.8 Q10.4 -216.8 11.95 -217.45 L16.6 -218.1 17.9 -218.1 20.9 -217.45" fill="#2b2b2a" fill-rule="evenodd" stroke="none"/>
    <path d="M-15.25 -195.1 L-23.0 -210.0 Q-23.45 -210.8 -23.3 -211.85 -23.1 -212.85 -22.45 -213.45 L-22.2 -213.75 Q-21.55 -214.4 -20.45 -214.85 L-18.4 -215.35 14.5 -215.35 16.5 -214.9 Q17.65 -214.5 18.35 -213.95 L19.2 -213.3 Q19.9 -212.75 20.1 -211.8 20.3 -210.8 19.85 -210.05 L11.55 -195.1 Q11.1 -194.25 10.15 -193.7 9.2 -193.15 8.25 -193.15 L-12.1 -193.15 Q-12.95 -193.15 -13.9 -193.7 L-15.25 -195.1" fill="#113ebc" fill-rule="evenodd" stroke="none"/>
    <path d="M16.5 -214.9 L14.5 -215.35 -18.4 -215.35 -20.45 -214.85 Q-21.55 -214.4 -22.2 -213.75 L-22.45 -213.45 Q-23.1 -212.85 -23.3 -211.85 -23.45 -210.8 -23.0 -210.0 L-15.25 -195.1 -13.9 -193.7 Q-12.95 -193.15 -12.1 -193.15 L8.25 -193.15 Q9.2 -193.15 10.15 -193.7 11.1 -194.25 11.55 -195.1 L19.85 -210.05 Q20.3 -210.8 20.1 -211.8 19.9 -212.75 19.2 -213.3 L18.35 -213.95 Q17.65 -214.5 16.5 -214.9 Z" fill="none" stroke="#03133f" stroke-linecap="butt" stroke-linejoin="miter-clip" stroke-miterlimit="4.0" stroke-width="1.0"/>
    <path d="M-46.35 -187.0 L-43.1 -186.75 Q-40.7 -188.15 -33.65 -190.45 -31.7 -191.05 -32.85 -193.15 -33.95 -195.2 -36.5 -194.4 -45.25 -191.45 -48.8 -188.45 -49.1 -187.65 -46.35 -187.0" fill="url(#gradient1)" fill-rule="evenodd" stroke="none"/>
    <path d="M44.0 -187.0 L40.75 -186.75 Q38.35 -188.15 31.3 -190.45 29.35 -191.05 30.5 -193.15 31.6 -195.2 34.15 -194.4 42.9 -191.45 46.45 -188.45 46.75 -187.65 44.0 -187.0" fill="url(#gradient2)" fill-rule="evenodd" stroke="none"/>
    <path d="M31.3 -204.35 L33.8 -202.8 35.1 -197.65 29.8 -188.8 24.65 -187.45 22.15 -188.95 31.3 -204.35" fill="url(#gradient3)" fill-rule="evenodd" stroke="none"/>
    <path d="M36.7 -194.7 L33.3 -188.9 30.75 -190.4 34.1 -196.15 36.7 -194.7" fill="#333333" fill-rule="evenodd" stroke="none"/>
    <path d="M-34.55 -204.35 L-37.05 -202.8 -38.35 -197.65 -33.05 -188.8 -27.9 -187.45 -25.35 -188.95 -34.55 -204.35" fill="url(#gradient4)" fill-rule="evenodd" stroke="none"/>
    <path d="M-39.95 -194.7 L-36.55 -188.9 -34.0 -190.4 -37.35 -196.15 Q-38.65 -195.35 -39.95 -194.7" fill="#333333" fill-rule="evenodd" stroke="none"/>
    <path d="M4.85 -197.05 L-7.55 -197.05 -7.55 -213.1 4.85 -213.1 4.85 -197.05" fill="#0457ba" fill-rule="evenodd" stroke="none"/>
    <path d="M6.3 -212.05 L-9.05 -212.05 -9.05 -214.1 6.3 -214.1 6.3 -212.05" fill="#0080ff" fill-rule="evenodd" stroke="none"/>
    <path d="M6.3 -195.05 L-9.05 -195.05 -9.05 -197.1 6.3 -197.1 6.3 -195.05" fill="#0080ff" fill-rule="evenodd" stroke="none"/>
    <path d="M-1.4 -209.95 L0.2 -206.75 3.75 -206.2 1.2 -203.7 1.8 -200.2 -1.4 -201.85 Q-2.95 -201.0 -4.55 -200.2 L-3.95 -203.7 -6.5 -206.2 -2.95 -206.75 -1.4 -209.95" fill="#03337f" fill-rule="evenodd" stroke="none"/>
    <path d="M0.2 -204.7 L-1.4 -203.65 -2.95 -204.7 -2.95 -205.5 -1.4 -204.45 0.2 -205.5 0.2 -204.7" fill="#48b9ff" fill-rule="evenodd" stroke="none"/>
    <path d="M-238.95 -166.8 L-238.95 -154.95 -279.15 -154.95 -279.15 -163.85 Q-279.15 -165.05 -278.25 -165.9 -277.4 -166.8 -276.15 -166.8 L-238.95 -166.8" fill="url(#gradient5)" fill-rule="evenodd" stroke="none"/>
    <path d="M-238.95 -154.95 L-238.95 -166.8 -159.0 -166.8 -159.0 -154.95 -238.95 -154.95" fill="url(#gradient6)" fill-rule="evenodd" stroke="none"/>
    <path d="M160.4 -166.8 L160.4 -154.95 146.0 -154.95 146.0 -166.8 160.4 -166.8" fill="url(#gradient7)" fill-rule="evenodd" stroke="none"/>
    <path d="M160.4 -154.95 L160.4 -166.8 210.5 -166.8 210.5 -154.95 160.4 -154.95" fill="url(#gradient8)" fill-rule="evenodd" stroke="none"/>
    <path d="M146.0 -166.8 L146.0 -154.95 113.0 -154.95 113.0 -166.8 146.0 -166.8" fill="url(#gradient9)" fill-rule="evenodd" stroke="none"/>
    <path d="M-159.0 -154.95 L-159.0 -166.8 -119.1 -166.8 -119.1 -154.95 -159.0 -154.95" fill="url(#gradient10)" fill-rule="evenodd" stroke="none"/>
    <path d="M146.0 -154.95 L160.4 -154.95 160.4 -79.95 146.0 -79.95 146.0 -154.95" fill="url(#gradient11)" fill-rule="evenodd" stroke="none"/>
    <path d="M146.0 -79.95 L13.0 -79.95 13.0 -135.8 113.0 -135.8 113.0 -154.95 146.0 -154.95 146.0 -79.95" fill="url(#gradient12)" fill-rule="evenodd" stroke="none"/>
    <path d="M13.0 -79.95 L-69.0 -79.95 -69.0 -135.8 13.0 -135.8 13.0 -79.95" fill="url(#gradient13)" fill-rule="evenodd" stroke="none"/>
    <path d="M-238.95 -79.95 L-279.15 -79.95 -279.15 -154.95 -238.95 -154.95 -238.95 -79.95" fill="url(#gradient14)" fill-rule="evenodd" stroke="none"/>
    <path d="M-159.0 -79.95 L-238.95 -79.95 -238.95 -154.95 -159.0 -154.95 -159.0 -79.95" fill="url(#gradient15)" fill-rule="evenodd" stroke="none"/>
    <path d="M-69.0 -79.95 L-159.0 -79.95 -159.0 -154.95 -119.1 -154.95 -119.1 -135.8 -69.0 -135.8 -69.0 -79.95" fill="url(#gradient16)" fill-rule="evenodd" stroke="none"/>
    <path d="M160.4 -154.95 L210.5 -154.95 210.5 177.2 -276.15 177.2 Q-277.4 177.2 -278.25 176.3 -279.15 175.45 -279.15 174.25 L-279.15 -79.95 -238.95 -79.95 -159.0 -79.95 -69.0 -79.95 13.0 -79.95 146.0 -79.95 160.4 -79.95 160.4 -154.95" fill="url(#gradient17)" fill-rule="evenodd" stroke="none"/>
    <path d="M229.5 -166.8 L278.65 -166.8 Q279.95 -166.8 280.8 -165.9 281.7 -165.05 281.7 -163.85 L281.7 -154.95 229.5 -154.95 229.5 -166.8" fill="url(#gradient18)" fill-rule="evenodd" stroke="none"/>
    <path d="M217.5 -154.95 L217.5 -166.8 229.5 -166.8 229.5 -154.95 217.5 -154.95" fill="url(#gradient19)" fill-rule="evenodd" stroke="none"/>
    <path d="M210.5 -154.95 L210.5 -166.8 217.5 -166.8 217.5 -154.95 210.5 -154.95" fill="url(#gradient20)" fill-rule="evenodd" stroke="none"/>
    <path d="M217.5 -154.95 L229.5 -154.95 229.5 -79.95 217.5 -79.95 217.5 -154.95" fill="url(#gradient21)" fill-rule="evenodd" stroke="none"/>
    <path d="M210.5 177.2 L210.5 -154.95 217.5 -154.95 217.5 -79.95 229.5 -79.95 229.5 -154.95 281.7 -154.95 281.7 174.25 Q281.7 175.45 280.8 176.3 279.95 177.2 278.65 177.2 L210.5 177.2" fill="url(#gradient22)" fill-rule="evenodd" stroke="none"/>
    <path d="M210.5 -166.8 L160.4 -166.8 146.0 -166.8 113.0 -166.8 113.0 -154.95 113.0 -135.8 13.0 -135.8 -69.0 -135.8 -119.1 -135.8 -119.1 -154.95 -119.1 -166.8 -159.0 -166.8 -238.95 -166.8 -276.15 -166.8 Q-277.4 -166.8 -278.25 -165.9 -279.15 -165.05 -279.15 -163.85 L-279.15 -154.95 -279.15 -79.95 -279.15 174.25 Q-279.15 175.45 -278.25 176.3 -277.4 177.2 -276.15 177.2 L210.5 177.2 278.65 177.2 Q279.95 177.2 280.8 176.3 281.7 175.45 281.7 174.25 L281.7 -154.95 281.7 -163.85 Q281.7 -165.05 280.8 -165.9 279.95 -166.8 278.65 -166.8 L229.5 -166.8 217.5 -166.8 210.5 -166.8 Z" fill="none" stroke="#0068ff" stroke-linecap="butt" stroke-linejoin="miter-clip" stroke-miterlimit="4.0" stroke-width="1.0"/>
  </g>
  <defs>
    <linearGradient gradientTransform="matrix(0.0, -0.0207, 0.0207, 0.0, -1.25, -203.55)" gradientUnits="userSpaceOnUse" id="gradient0" spreadMethod="pad" x1="-819.2" x2="819.2">
      <stop offset="0.0" stop-color="#373737"/>
      <stop offset="0.6549019607843137" stop-color="#a4a4a4"/>
      <stop offset="0.803921568627451" stop-color="#a4a4a4"/>
      <stop offset="1.0" stop-color="#6b6b6b"/>
    </linearGradient>
    <linearGradient gradientTransform="matrix(0.0016, 0.004, 0.0094, -0.0039, -74.85, -175.95)" gradientUnits="userSpaceOnUse" id="gradient1" spreadMethod="pad" x1="-819.2" x2="819.2">
      <stop offset="0.0" stop-color="#505050"/>
      <stop offset="0.09803921568627451" stop-color="#373737"/>
      <stop offset="0.5254901960784314" stop-color="#6e6861"/>
      <stop offset="0.8862745098039215" stop-color="#3d3d3d"/>
      <stop offset="1.0" stop-color="#505050"/>
    </linearGradient>
    <linearGradient gradientTransform="matrix(-0.0016, 0.004, -0.0094, -0.0039, 72.5, -175.95)" gradientUnits="userSpaceOnUse" id="gradient2" spreadMethod="pad" x1="-819.2" x2="819.2">
      <stop offset="0.0" stop-color="#505050"/>
      <stop offset="0.09803921568627451" stop-color="#373737"/>
      <stop offset="0.5254901960784314" stop-color="#6e6861"/>
      <stop offset="0.8862745098039215" stop-color="#3d3d3d"/>
      <stop offset="1.0" stop-color="#505050"/>
    </linearGradient>
    <linearGradient gradientTransform="matrix(-0.0053, 0.0096, 0.0096, 0.0053, 29.55, -195.0)" gradientUnits="userSpaceOnUse" id="gradient3" spreadMethod="pad" x1="-819.2" x2="819.2">
      <stop offset="0.0" stop-color="#505050"/>
      <stop offset="0.09803921568627451" stop-color="#373737"/>
      <stop offset="0.5254901960784314" stop-color="#6e6963"/>
      <stop offset="0.8862745098039215" stop-color="#3d3d3d"/>
      <stop offset="1.0" stop-color="#505050"/>
    </linearGradient>
    <linearGradient gradientTransform="matrix(0.0053, 0.0096, -0.0096, 0.0053, -32.8, -195.0)" gradientUnits="userSpaceOnUse" id="gradient4" spreadMethod="pad" x1="-819.2" x2="819.2">
      <stop offset="0.0" stop-color="#505050"/>
      <stop offset="0.09803921568627451" stop-color="#373737"/>
      <stop offset="0.5254901960784314" stop-color="#6e6963"/>
      <stop offset="0.8862745098039215" stop-color="#3d3d3d"/>
      <stop offset="1.0" stop-color="#505050"/>
    </linearGradient>
    <linearGradient gradientTransform="matrix(0.0, -0.2093, -0.228, 0.0, 24.5, 5.2)" gradientUnits="userSpaceOnUse" id="gradient5" spreadMethod="pad" x1="-819.2" x2="819.2">
      <stop offset="0.0" stop-color="#05307a"/>
      <stop offset="0.023529411764705882" stop-color="#042c73"/>
      <stop offset="0.11764705882352941" stop-color="#03215d"/>
      <stop offset="0.22745098039215686" stop-color="#02184b"/>
      <stop offset="0.3607843137254902" stop-color="#01123f"/>
      <stop offset="0.5450980392156862" stop-color="#000e38"/>
      <stop offset="1.0" stop-color="#000d36"/>
    </linearGradient>
    <linearGradient gradientTransform="matrix(0.0, -0.2093, -0.7448, 0.0, 621.55, 5.2)" gradientUnits="userSpaceOnUse" id="gradient6" spreadMethod="pad" x1="-819.2" x2="819.2">
      <stop offset="0.0" stop-color="#05307a"/>
      <stop offset="0.023529411764705882" stop-color="#042c73"/>
      <stop offset="0.11764705882352941" stop-color="#03215d"/>
      <stop offset="0.22745098039215686" stop-color="#02184b"/>
      <stop offset="0.3607843137254902" stop-color="#01123f"/>
      <stop offset="0.5450980392156862" stop-color="#000e38"/>
      <stop offset="1.0" stop-color="#000d36"/>
    </linearGradient>
    <linearGradient gradientTransform="matrix(0.0, -0.2093, -0.7575, 0.0, -435.75, 5.2)" gradientUnits="userSpaceOnUse" id="gradient7" spreadMethod="pad" x1="-819.2" x2="819.2">
      <stop offset="0.0" stop-color="#05307a"/>
      <stop offset="0.023529411764705882" stop-color="#042c73"/>
      <stop offset="0.11764705882352941" stop-color="#03215d"/>
      <stop offset="0.22745098039215686" stop-color="#02184b"/>
      <stop offset="0.3607843137254902" stop-color="#01123f"/>
      <stop offset="0.5450980392156862" stop-color="#000e38"/>
      <stop offset="1.0" stop-color="#000d36"/>
    </linearGradient>
    <linearGradient gradientTransform="matrix(0.0, -0.2093, -0.7575, 0.0, -598.55, 5.2)" gradientUnits="userSpaceOnUse" id="gradient8" spreadMethod="pad" x1="-819.2" x2="819.2">
      <stop offset="0.0" stop-color="#05307a"/>
      <stop offset="0.023529411764705882" stop-color="#042c73"/>
      <stop offset="0.11764705882352941" stop-color="#03215d"/>
      <stop offset="0.22745098039215686" stop-color="#02184b"/>
      <stop offset="0.3607843137254902" stop-color="#01123f"/>
      <stop offset="0.5450980392156862" stop-color="#000e38"/>
      <stop offset="1.0" stop-color="#000d36"/>
    </linearGradient>
    <linearGradient gradientTransform="matrix(0.0, -0.2093, -0.228, 0.0, -0.5, 5.2)" gradientUnits="userSpaceOnUse" id="gradient9" spreadMethod="pad" x1="-819.2" x2="819.2">
      <stop offset="0.0" stop-color="#05307a"/>
      <stop offset="0.023529411764705882" stop-color="#042c73"/>
      <stop offset="0.11764705882352941" stop-color="#03215d"/>
      <stop offset="0.22745098039215686" stop-color="#02184b"/>
      <stop offset="0.3607843137254902" stop-color="#01123f"/>
      <stop offset="0.5450980392156862" stop-color="#000e38"/>
      <stop offset="1.0" stop-color="#000d36"/>
    </linearGradient>
    <linearGradient gradientTransform="matrix(0.0, -0.2093, -0.228, 0.0, 0.5, 5.2)" gradientUnits="userSpaceOnUse" id="gradient10" spreadMethod="pad" x1="-819.2" x2="819.2">
      <stop offset="0.0" stop-color="#05307a"/>
      <stop offset="0.023529411764705882" stop-color="#042c73"/>
      <stop offset="0.11764705882352941" stop-color="#03215d"/>
      <stop offset="0.22745098039215686" stop-color="#02184b"/>
      <stop offset="0.3607843137254902" stop-color="#01123f"/>
      <stop offset="0.5450980392156862" stop-color="#000e38"/>
      <stop offset="1.0" stop-color="#000d36"/>
    </linearGradient>
    <linearGradient gradientTransform="matrix(0.0, -0.2093, -0.7575, 0.0, -435.75, -13.8)" gradientUnits="userSpaceOnUse" id="gradient11" spreadMethod="pad" x1="-819.2" x2="819.2">
      <stop offset="0.0" stop-color="#05307a"/>
      <stop offset="0.023529411764705882" stop-color="#042c73"/>
      <stop offset="0.11764705882352941" stop-color="#03215d"/>
      <stop offset="0.22745098039215686" stop-color="#02184b"/>
      <stop offset="0.3607843137254902" stop-color="#01123f"/>
      <stop offset="0.5450980392156862" stop-color="#000e38"/>
      <stop offset="1.0" stop-color="#000d36"/>
    </linearGradient>
    <linearGradient gradientTransform="matrix(0.0, -0.2093, -0.228, 0.0, -0.5, -13.8)" gradientUnits="userSpaceOnUse" id="gradient12" spreadMethod="pad" x1="-819.2" x2="819.2">
      <stop offset="0.0" stop-color="#05307a"/>
      <stop offset="0.023529411764705882" stop-color="#042c73"/>
      <stop offset="0.11764705882352941" stop-color="#03215d"/>
      <stop offset="0.22745098039215686" stop-color="#02184b"/>
      <stop offset="0.3607843137254902" stop-color="#01123f"/>
      <stop offset="0.5450980392156862" stop-color="#000e38"/>
      <stop offset="1.0" stop-color="#000d36"/>
    </linearGradient>
    <linearGradient gradientTransform="matrix(0.0, -0.2093, -0.6925, 0.0, 142.05, -13.8)" gradientUnits="userSpaceOnUse" id="gradient13" spreadMethod="pad" x1="-819.2" x2="819.2">
      <stop offset="0.0" stop-color="#05307a"/>
      <stop offset="0.023529411764705882" stop-color="#042c73"/>
      <stop offset="0.11764705882352941" stop-color="#03215d"/>
      <stop offset="0.22745098039215686" stop-color="#02184b"/>
      <stop offset="0.3607843137254902" stop-color="#01123f"/>
      <stop offset="0.5450980392156862" stop-color="#000e38"/>
      <stop offset="1.0" stop-color="#000d36"/>
    </linearGradient>
    <linearGradient gradientTransform="matrix(0.0, -0.2093, -0.228, 0.0, 24.5, -13.8)" gradientUnits="userSpaceOnUse" id="gradient14" spreadMethod="pad" x1="-819.2" x2="819.2">
      <stop offset="0.0" stop-color="#05307a"/>
      <stop offset="0.023529411764705882" stop-color="#042c73"/>
      <stop offset="0.11764705882352941" stop-color="#03215d"/>
      <stop offset="0.22745098039215686" stop-color="#02184b"/>
      <stop offset="0.3607843137254902" stop-color="#01123f"/>
      <stop offset="0.5450980392156862" stop-color="#000e38"/>
      <stop offset="1.0" stop-color="#000d36"/>
    </linearGradient>
    <linearGradient gradientTransform="matrix(0.0, -0.2093, -0.7448, 0.0, 621.55, -13.8)" gradientUnits="userSpaceOnUse" id="gradient15" spreadMethod="pad" x1="-819.2" x2="819.2">
      <stop offset="0.0" stop-color="#05307a"/>
      <stop offset="0.023529411764705882" stop-color="#042c73"/>
      <stop offset="0.11764705882352941" stop-color="#03215d"/>
      <stop offset="0.22745098039215686" stop-color="#02184b"/>
      <stop offset="0.3607843137254902" stop-color="#01123f"/>
      <stop offset="0.5450980392156862" stop-color="#000e38"/>
      <stop offset="1.0" stop-color="#000d36"/>
    </linearGradient>
    <linearGradient gradientTransform="matrix(0.0, -0.2093, -0.228, 0.0, 0.5, -13.8)" gradientUnits="userSpaceOnUse" id="gradient16" spreadMethod="pad" x1="-819.2" x2="819.2">
      <stop offset="0.0" stop-color="#05307a"/>
      <stop offset="0.023529411764705882" stop-color="#042c73"/>
      <stop offset="0.11764705882352941" stop-color="#03215d"/>
      <stop offset="0.22745098039215686" stop-color="#02184b"/>
      <stop offset="0.3607843137254902" stop-color="#01123f"/>
      <stop offset="0.5450980392156862" stop-color="#000e38"/>
      <stop offset="1.0" stop-color="#000d36"/>
    </linearGradient>
    <linearGradient gradientTransform="matrix(0.0, -0.2093, -0.7575, 0.0, -599.55, 8.15)" gradientUnits="userSpaceOnUse" id="gradient17" spreadMethod="pad" x1="-819.2" x2="819.2">
      <stop offset="0.0" stop-color="#05307a"/>
      <stop offset="0.023529411764705882" stop-color="#042c73"/>
      <stop offset="0.11764705882352941" stop-color="#03215d"/>
      <stop offset="0.22745098039215686" stop-color="#02184b"/>
      <stop offset="0.3607843137254902" stop-color="#01123f"/>
      <stop offset="0.5450980392156862" stop-color="#000e38"/>
      <stop offset="1.0" stop-color="#000d36"/>
    </linearGradient>
    <linearGradient gradientTransform="matrix(0.0, -0.2093, -0.228, 0.0, -22.0, 5.2)" gradientUnits="userSpaceOnUse" id="gradient18" spreadMethod="pad" x1="-819.2" x2="819.2">
      <stop offset="0.0" stop-color="#05307a"/>
      <stop offset="0.023529411764705882" stop-color="#042c73"/>
      <stop offset="0.11764705882352941" stop-color="#03215d"/>
      <stop offset="0.22745098039215686" stop-color="#02184b"/>
      <stop offset="0.3607843137254902" stop-color="#01123f"/>
      <stop offset="0.5450980392156862" stop-color="#000e38"/>
      <stop offset="1.0" stop-color="#000d36"/>
    </linearGradient>
    <linearGradient gradientTransform="matrix(0.0, -0.2093, -0.5701, 0.0, -399.25, 5.2)" gradientUnits="userSpaceOnUse" id="gradient19" spreadMethod="pad" x1="-819.2" x2="819.2">
      <stop offset="0.0" stop-color="#05307a"/>
      <stop offset="0.023529411764705882" stop-color="#042c73"/>
      <stop offset="0.11764705882352941" stop-color="#03215d"/>
      <stop offset="0.22745098039215686" stop-color="#02184b"/>
      <stop offset="0.3607843137254902" stop-color="#01123f"/>
      <stop offset="0.5450980392156862" stop-color="#000e38"/>
      <stop offset="1.0" stop-color="#000d36"/>
    </linearGradient>
    <linearGradient gradientTransform="matrix(0.0, -0.2093, -0.7575, 0.0, -602.05, 5.2)" gradientUnits="userSpaceOnUse" id="gradient20" spreadMethod="pad" x1="-819.2" x2="819.2">
      <stop offset="0.0" stop-color="#05307a"/>
      <stop offset="0.023529411764705882" stop-color="#042c73"/>
      <stop offset="0.11764705882352941" stop-color="#03215d"/>
      <stop offset="0.22745098039215686" stop-color="#02184b"/>
      <stop offset="0.3607843137254902" stop-color="#01123f"/>
      <stop offset="0.5450980392156862" stop-color="#000e38"/>
      <stop offset="1.0" stop-color="#000d36"/>
    </linearGradient>
    <linearGradient gradientTransform="matrix(0.0, -0.2093, -0.5701, 0.0, -399.25, -13.8)" gradientUnits="userSpaceOnUse" id="gradient21" spreadMethod="pad" x1="-819.2" x2="819.2">
      <stop offset="0.0" stop-color="#05307a"/>
      <stop offset="0.023529411764705882" stop-color="#042c73"/>
      <stop offset="0.11764705882352941" stop-color="#03215d"/>
      <stop offset="0.22745098039215686" stop-color="#02184b"/>
      <stop offset="0.3607843137254902" stop-color="#01123f"/>
      <stop offset="0.5450980392156862" stop-color="#000e38"/>
      <stop offset="1.0" stop-color="#000d36"/>
    </linearGradient>
    <linearGradient gradientTransform="matrix(0.0, -0.2093, -0.7575, 0.0, -603.05, 8.15)" gradientUnits="userSpaceOnUse" id="gradient22" spreadMethod="pad" x1="-819.2" x2="819.2">
      <stop offset="0.0" stop-color="#05307a"/>
      <stop offset="0.023529411764705882" stop-color="#042c73"/>
      <stop offset="0.11764705882352941" stop-color="#03215d"/>
      <stop offset="0.22745098039215686" stop-color="#02184b"/>
      <stop offset="0.3607843137254902" stop-color="#01123f"/>
      <stop offset="0.5450980392156862" stop-color="#000e38"/>
      <stop offset="1.0" stop-color="#000d36"/>
    </linearGradient>
  </defs>
</svg>
