<?xml version="1.0" encoding="UTF-8" standalone="no"?>
<svg xmlns:ffdec="https://www.free-decompiler.com/flash" xmlns:xlink="http://www.w3.org/1999/xlink" ffdec:objectType="shape" height="51.75px" width="52.05px" xmlns="http://www.w3.org/2000/svg">
  <g transform="matrix(1.0, 0.0, 0.0, 1.0, 71.75, 113.15)">
    <path d="M-23.25 -63.9 L-68.25 -63.9 -71.25 -66.95 -71.25 -64.25 -68.9 -61.9 -54.95 -61.9 -53.9 -63.25 -37.6 -63.25 -36.55 -61.9 -22.6 -61.9 -20.2 -64.25 -20.2 -66.95 -23.25 -63.9 Z" fill="none" stroke="#69ffff" stroke-linecap="butt" stroke-linejoin="miter-clip" stroke-miterlimit="4.0" stroke-width="1.0"/>
    <path d="M-23.25 -63.9 L-20.2 -66.95 -20.2 -64.25 -22.6 -61.9 -36.55 -61.9 -37.6 -63.25 -53.9 -63.25 -54.95 -61.9 -68.9 -61.9 -71.25 -64.25 -71.25 -66.95 -68.25 -63.9 -23.25 -63.9" fill="#0574c6" fill-rule="evenodd" stroke="none"/>
    <path d="M-71.25 -107.6 L-71.25 -110.3 -68.9 -112.65 -54.95 -112.65 -53.9 -111.3 -37.6 -111.3 -36.55 -112.65 -22.6 -112.65 -20.2 -110.3 -20.2 -107.6 -23.25 -110.65 -68.25 -110.65 -71.25 -107.6 Z" fill="none" stroke="#69ffff" stroke-linecap="butt" stroke-linejoin="miter-clip" stroke-miterlimit="4.0" stroke-width="1.0"/>
    <path d="M-71.25 -107.6 L-71.25 -110.3 -68.9 -112.65 -54.95 -112.65 -53.9 -111.3 -37.6 -111.3 -36.55 -112.65 -22.6 -112.65 -20.2 -110.3 -20.2 -107.6 -23.25 -110.65 -68.25 -110.65 -71.25 -107.6" fill="#0574c6" fill-rule="evenodd" stroke="none"/>
  </g>
</svg>
