<?xml version="1.0" encoding="UTF-8" standalone="no"?>
<svg xmlns:ffdec="https://www.free-decompiler.com/flash" xmlns:xlink="http://www.w3.org/1999/xlink" ffdec:objectType="shape" height="521.8px" width="521.7px" xmlns="http://www.w3.org/2000/svg">
  <g transform="matrix(1.0, 0.0, 0.0, 1.0, 0.0, 0.0)">
    <path d="M520.35 6.75 Q520.35 4.7 518.9 3.2 517.4 1.75 515.35 1.75 L6.35 1.75 Q4.3 1.75 2.8 3.2 1.35 4.7 1.35 6.75 L1.35 512.25 Q1.35 514.3 2.8 515.8 4.3 517.25 6.35 517.25 L47.4 517.25 51.4 517.6 Q53.4 517.9 54.05 518.35 54.75 518.8 56.75 519.15 L60.75 519.45 464.4 519.45 468.45 519.15 Q470.45 518.8 471.1 518.35 471.8 517.9 473.8 517.6 L477.8 517.25 515.35 517.25 Q517.4 517.25 518.9 515.8 520.35 514.3 520.35 512.25 L520.35 6.75 M516.7 0.0 Q518.75 0.0 520.25 1.45 521.7 2.95 521.7 5.0 L521.7 516.8 Q521.7 518.85 520.25 520.35 518.75 521.8 516.7 521.8 L5.0 521.8 Q2.95 521.8 1.45 520.35 0.0 518.85 0.0 516.8 L0.0 5.0 Q0.0 2.95 1.45 1.45 2.95 0.0 5.0 0.0 L516.7 0.0" fill="url(#gradient0)" fill-rule="evenodd" stroke="none"/>
  </g>
  <defs>
    <linearGradient gradientTransform="matrix(0.0, -0.3185, -0.3185, 0.0, 260.85, 260.9)" gradientUnits="userSpaceOnUse" id="gradient0" spreadMethod="pad" x1="-819.2" x2="819.2">
      <stop offset="0.0" stop-color="#0166d4"/>
      <stop offset="0.39215686274509803" stop-color="#0268d5"/>
      <stop offset="0.5764705882352941" stop-color="#0770d9"/>
      <stop offset="0.7215686274509804" stop-color="#0e7de0"/>
      <stop offset="0.8431372549019608" stop-color="#188fea"/>
      <stop offset="0.9490196078431372" stop-color="#26a7f7"/>
      <stop offset="1.0" stop-color="#2eb5ff"/>
    </linearGradient>
  </defs>
</svg>
