<?xml version="1.0" encoding="UTF-8" standalone="no"?>
<svg xmlns:ffdec="https://www.free-decompiler.com/flash" xmlns:xlink="http://www.w3.org/1999/xlink" ffdec:objectType="shape" height="15.25px" width="35.6px" xmlns="http://www.w3.org/2000/svg">
  <g transform="matrix(1.0, 0.0, 0.0, 1.0, 0.5, -0.8)">
    <path d="M34.6 3.55 L34.6 13.3 Q34.6 14.25 33.8 14.9 33.05 15.55 31.95 15.55 L2.65 15.55 Q1.55 15.55 0.8 14.9 0.0 14.25 0.0 13.3 L0.0 3.55 Q0.0 2.6 0.8 1.95 1.55 1.3 2.65 1.3 L31.95 1.3 Q33.05 1.3 33.8 1.95 34.6 2.6 34.6 3.55" fill="#03428e" fill-rule="evenodd" stroke="none"/>
    <path d="M34.6 3.55 Q34.6 2.6 33.8 1.95 33.05 1.3 31.95 1.3 L2.65 1.3 Q1.55 1.3 0.8 1.95 0.0 2.6 0.0 3.55 L0.0 13.3 Q0.0 14.25 0.8 14.9 1.55 15.55 2.65 15.55 L31.95 15.55 Q33.05 15.55 33.8 14.9 34.6 14.25 34.6 13.3 L34.6 3.55 Z" fill="none" stroke="#0080ff" stroke-linecap="butt" stroke-linejoin="miter-clip" stroke-miterlimit="4.0" stroke-width="1.0"/>
  </g>
</svg>
