<?xml version="1.0" encoding="UTF-8" standalone="no"?>
<svg xmlns:ffdec="https://www.free-decompiler.com/flash" xmlns:xlink="http://www.w3.org/1999/xlink" ffdec:objectType="shape" height="27.85px" width="149.05px" xmlns="http://www.w3.org/2000/svg">
  <g transform="matrix(1.0, 0.0, 0.0, 1.0, -15.3, -15.9)">
    <path d="M163.05 32.95 L153.05 41.8 Q152.35 42.4 151.25 42.85 L149.2 43.25 18.3 43.25 Q17.25 43.25 16.55 42.5 15.8 41.75 15.8 40.75 L15.8 18.9 Q15.8 17.85 16.55 17.15 17.25 16.4 18.3 16.4 L149.2 16.4 Q150.15 16.4 151.2 16.85 L152.9 18.05 163.25 29.45 Q163.9 30.3 163.85 31.25 163.75 32.3 163.05 32.95" fill="url(#gradient0)" fill-rule="evenodd" stroke="none"/>
    <path d="M162.7 32.6 Q163.3 32.05 163.35 31.2 163.4 30.4 162.85 29.8 L152.55 18.35 151.0 17.35 Q150.05 16.9 149.2 16.9 L18.3 16.9 Q17.5 16.9 16.9 17.5 16.3 18.1 16.3 18.9 L16.3 40.75 Q16.3 41.6 16.9 42.15 17.5 42.75 18.3 42.75 L149.2 42.75 151.05 42.35 152.7 41.4 162.7 32.6 M163.6 29.1 Q164.45 30.0 164.35 31.25 164.25 32.5 163.35 33.35 L153.35 42.15 151.4 43.3 149.2 43.75 18.3 43.75 Q17.05 43.75 16.2 42.85 15.3 42.0 15.3 40.75 L15.3 18.9 Q15.3 17.65 16.2 16.8 17.05 15.9 18.3 15.9 L149.2 15.9 Q150.25 15.9 151.4 16.4 152.6 16.9 153.3 17.7 L163.6 29.1" fill="#29abe2" fill-rule="evenodd" stroke="none"/>
  </g>
  <defs>
    <linearGradient gradientTransform="matrix(0.0904, 0.0, 0.0, -0.0904, 89.85, 29.8)" gradientUnits="userSpaceOnUse" id="gradient0" spreadMethod="pad" x1="-819.2" x2="819.2">
      <stop offset="0.0" stop-color="#008cff"/>
      <stop offset="0.18823529411764706" stop-color="#0089fb" stop-opacity="0.96862745"/>
      <stop offset="0.36470588235294116" stop-color="#0081f0" stop-opacity="0.8784314"/>
      <stop offset="0.5372549019607843" stop-color="#0074dd" stop-opacity="0.7294118"/>
      <stop offset="0.7058823529411765" stop-color="#0061c2" stop-opacity="0.5176471"/>
      <stop offset="0.8705882352941177" stop-color="#004aa0" stop-opacity="0.2509804"/>
      <stop offset="1.0" stop-color="#003380" stop-opacity="0.0"/>
    </linearGradient>
  </defs>
</svg>
