<?xml version="1.0" encoding="UTF-8" standalone="no"?>
<svg xmlns:ffdec="https://www.free-decompiler.com/flash" xmlns:xlink="http://www.w3.org/1999/xlink" ffdec:objectType="shape" height="27.85px" width="149.05px" xmlns="http://www.w3.org/2000/svg">
  <g transform="matrix(1.0, 0.0, 0.0, 1.0, -15.65, -15.55)">
    <path d="M163.4 32.6 L153.4 41.45 Q152.7 42.05 151.6 42.5 L149.55 42.9 18.65 42.9 Q17.6 42.9 16.9 42.2 16.15 41.45 16.15 40.4 L16.15 18.55 Q16.15 17.5 16.9 16.8 17.6 16.05 18.65 16.05 L149.55 16.05 151.55 16.5 Q152.65 17.0 153.25 17.7 L163.6 29.1 Q164.3 29.85 164.2 30.9 164.2 31.95 163.4 32.6" fill="url(#gradient0)" fill-rule="evenodd" stroke="none"/>
    <path d="M163.05 32.25 Q163.7 31.7 163.75 30.85 163.75 30.05 163.2 29.45 L152.9 18.05 Q152.35 17.4 151.35 17.0 L149.55 16.55 18.65 16.55 Q17.85 16.55 17.25 17.15 16.65 17.75 16.65 18.55 L16.65 40.4 Q16.65 41.25 17.25 41.8 17.85 42.4 18.65 42.4 L149.55 42.4 151.4 42.0 Q152.45 41.65 153.05 41.1 L163.05 32.25 M163.95 28.75 Q164.8 29.65 164.7 30.95 164.65 32.15 163.7 33.0 L153.7 41.85 151.75 42.95 149.55 43.4 18.65 43.4 Q17.4 43.4 16.55 42.5 15.65 41.65 15.65 40.4 L15.65 18.55 Q15.65 17.3 16.55 16.45 17.4 15.55 18.65 15.55 L149.55 15.55 Q150.6 15.55 151.75 16.05 152.95 16.55 153.65 17.35 L163.95 28.75" fill="#29abe2" fill-rule="evenodd" stroke="none"/>
  </g>
  <defs>
    <linearGradient gradientTransform="matrix(0.0904, 0.0, 0.0, -0.0904, 90.2, 29.45)" gradientUnits="userSpaceOnUse" id="gradient0" spreadMethod="pad" x1="-819.2" x2="819.2">
      <stop offset="0.01568627450980392" stop-color="#004d9e" stop-opacity="0.3882353"/>
      <stop offset="0.3215686274509804" stop-color="#008cff"/>
      <stop offset="0.4666666666666667" stop-color="#0089fb" stop-opacity="0.9607843"/>
      <stop offset="0.6039215686274509" stop-color="#007ff0" stop-opacity="0.84313726"/>
      <stop offset="0.7333333333333333" stop-color="#006edd" stop-opacity="0.64705884"/>
      <stop offset="0.8666666666666667" stop-color="#0056c2" stop-opacity="0.37254903"/>
      <stop offset="0.9921568627450981" stop-color="#0038a0" stop-opacity="0.019607844"/>
      <stop offset="1.0" stop-color="#00369e" stop-opacity="0.0"/>
    </linearGradient>
  </defs>
</svg>
