<?xml version="1.0" encoding="UTF-8" standalone="no"?>
<svg xmlns:ffdec="https://www.free-decompiler.com/flash" xmlns:xlink="http://www.w3.org/1999/xlink" ffdec:objectType="shape" height="37.6px" width="199.55px" xmlns="http://www.w3.org/2000/svg">
  <g transform="matrix(1.0, 0.0, 0.0, 1.0, -4.5, -4.3)">
    <path d="M134.25 41.9 L7.5 41.9 Q6.25 41.9 5.4 41.0 4.5 40.15 4.5 38.9 L4.5 28.0 Q4.5 26.75 5.15 25.3 5.8 23.9 6.75 23.05 L26.0 6.25 Q26.95 5.45 28.5 4.85 30.0 4.3 31.25 4.3 L134.25 4.3 134.25 41.9" fill="url(#gradient0)" fill-rule="evenodd" stroke="none"/>
    <path d="M171.5 4.3 L201.05 4.3 Q202.3 4.3 203.15 5.2 204.05 6.05 204.05 7.3 L204.05 38.9 Q204.05 40.15 203.15 41.0 202.3 41.9 201.05 41.9 L171.5 41.9 171.5 4.3" fill="url(#gradient1)" fill-rule="evenodd" stroke="none"/>
    <path d="M171.5 41.9 L134.25 41.9 134.25 4.3 171.5 4.3 171.5 41.9" fill="url(#gradient2)" fill-rule="evenodd" stroke="none"/>
  </g>
  <defs>
    <linearGradient gradientTransform="matrix(0.0, -0.0229, -0.0229, 0.0, 95.15, 23.1)" gradientUnits="userSpaceOnUse" id="gradient0" spreadMethod="pad" x1="-819.2" x2="819.2">
      <stop offset="0.0" stop-color="#0059e8"/>
      <stop offset="0.4980392156862745" stop-color="#004ccd"/>
      <stop offset="1.0" stop-color="#003dad"/>
    </linearGradient>
    <linearGradient gradientTransform="matrix(0.0, -0.0229, -0.0229, 0.0, 113.4, 23.1)" gradientUnits="userSpaceOnUse" id="gradient1" spreadMethod="pad" x1="-819.2" x2="819.2">
      <stop offset="0.0" stop-color="#0059e8"/>
      <stop offset="0.4980392156862745" stop-color="#004ccd"/>
      <stop offset="1.0" stop-color="#003dad"/>
    </linearGradient>
    <linearGradient gradientTransform="matrix(0.0, -0.0229, -0.0728, 0.0, 10.3, 23.1)" gradientUnits="userSpaceOnUse" id="gradient2" spreadMethod="pad" x1="-819.2" x2="819.2">
      <stop offset="0.0" stop-color="#0059e8"/>
      <stop offset="0.4980392156862745" stop-color="#004ccd"/>
      <stop offset="1.0" stop-color="#003dad"/>
    </linearGradient>
  </defs>
</svg>
