<?xml version="1.0" encoding="UTF-8" standalone="no"?>
<svg xmlns:ffdec="https://www.free-decompiler.com/flash" xmlns:xlink="http://www.w3.org/1999/xlink" ffdec:objectType="shape" height="10.2px" width="67.15px" xmlns="http://www.w3.org/2000/svg">
  <g transform="matrix(1.0, 0.0, 0.0, 1.0, 0.0, 0.0)">
    <path d="M30.55 0.0 L34.5 5.3 30.9 10.2 26.9 10.2 30.75 5.25 26.9 0.1 30.55 0.0" fill="#0580db" fill-rule="evenodd" stroke="none"/>
    <path d="M24.95 0.0 L28.9 5.3 25.35 10.2 21.3 10.2 25.2 5.25 21.3 0.1 24.95 0.0" fill="#0580db" fill-rule="evenodd" stroke="none"/>
    <path d="M19.7 0.0 L23.65 5.3 20.1 10.2 16.05 10.2 19.95 5.25 16.05 0.1 19.7 0.0" fill="#0580db" fill-rule="evenodd" stroke="none"/>
    <path d="M46.7 0.0 L50.65 5.3 47.1 10.2 43.05 10.2 46.95 5.25 43.05 0.1 46.7 0.0" fill="#0580db" fill-rule="evenodd" stroke="none"/>
    <path d="M41.15 0.0 L45.1 5.3 41.5 10.2 37.5 10.2 41.35 5.25 37.5 0.1 41.15 0.0" fill="#0580db" fill-rule="evenodd" stroke="none"/>
    <path d="M36.25 10.2 L32.25 10.2 36.1 5.25 32.25 0.1 35.9 0.0 39.85 5.3 36.25 10.2" fill="#0580db" fill-rule="evenodd" stroke="none"/>
    <path d="M63.2 0.0 L67.15 5.3 63.55 10.2 59.55 10.2 63.4 5.25 59.55 0.1 63.2 0.0" fill="#0580db" fill-rule="evenodd" stroke="none"/>
    <path d="M57.6 0.0 L61.55 5.3 58.0 10.2 53.95 10.2 57.85 5.25 53.95 0.1 57.6 0.0" fill="#0580db" fill-rule="evenodd" stroke="none"/>
    <path d="M52.35 0.0 L56.3 5.3 52.75 10.2 48.7 10.2 52.6 5.25 48.7 0.1 52.35 0.0" fill="#0580db" fill-rule="evenodd" stroke="none"/>
    <path d="M18.45 5.3 L14.85 10.2 10.85 10.2 14.7 5.25 10.85 0.1 14.5 0.0 18.45 5.3" fill="#0580db" fill-rule="evenodd" stroke="none"/>
    <path d="M12.85 5.3 L9.3 10.2 5.25 10.2 9.15 5.25 5.25 0.1 8.9 0.0 12.85 5.3" fill="#0580db" fill-rule="evenodd" stroke="none"/>
    <path d="M7.6 5.3 L4.05 10.2 0.0 10.2 3.9 5.25 0.0 0.1 3.65 0.0 7.6 5.3" fill="#0580db" fill-rule="evenodd" stroke="none"/>
  </g>
</svg>
