<?xml version="1.0" encoding="UTF-8" standalone="no"?>
<svg xmlns:ffdec="https://www.free-decompiler.com/flash" xmlns:xlink="http://www.w3.org/1999/xlink" ffdec:objectType="shape" height="10.15px" width="67.15px" xmlns="http://www.w3.org/2000/svg">
  <g transform="matrix(1.0, 0.0, 0.0, 1.0, 0.0, 0.0)">
    <path d="M30.5 0.0 L34.5 5.25 30.9 10.15 26.85 10.15 30.75 5.2 26.85 0.1 30.5 0.0" fill="#ff4d00" fill-rule="evenodd" stroke="none"/>
    <path d="M24.95 0.0 L28.9 5.25 25.3 10.15 21.3 10.15 25.15 5.2 21.3 0.1 24.95 0.0" fill="#ff4d00" fill-rule="evenodd" stroke="none"/>
    <path d="M19.7 0.0 L23.65 5.25 20.05 10.15 16.05 10.15 19.9 5.2 16.05 0.1 19.7 0.0" fill="#ff4d00" fill-rule="evenodd" stroke="none"/>
    <path d="M46.7 0.0 L50.65 5.25 47.05 10.15 43.05 10.15 46.9 5.2 43.05 0.1 46.7 0.0" fill="#ff4d00" fill-rule="evenodd" stroke="none"/>
    <path d="M41.15 0.0 L45.1 5.25 41.5 10.15 37.45 10.15 41.35 5.2 37.45 0.1 41.15 0.0" fill="#ff4d00" fill-rule="evenodd" stroke="none"/>
    <path d="M36.25 10.15 L32.2 10.15 36.1 5.2 32.2 0.1 35.85 0.0 39.8 5.25 36.25 10.15" fill="#ff4d00" fill-rule="evenodd" stroke="none"/>
    <path d="M63.15 0.0 L67.15 5.25 63.55 10.15 59.5 10.15 63.4 5.2 59.5 0.1 63.15 0.0" fill="#ff4d00" fill-rule="evenodd" stroke="none"/>
    <path d="M57.6 0.0 L61.55 5.25 57.95 10.15 53.95 10.15 57.8 5.2 53.95 0.1 57.6 0.0" fill="#ff4d00" fill-rule="evenodd" stroke="none"/>
    <path d="M52.35 0.0 L56.3 5.25 52.7 10.15 48.7 10.15 52.55 5.2 48.7 0.1 52.35 0.0" fill="#ff4d00" fill-rule="evenodd" stroke="none"/>
    <path d="M18.45 5.25 L14.85 10.15 10.8 10.15 14.7 5.2 10.8 0.1 14.45 0.0 18.45 5.25" fill="#ff4d00" fill-rule="evenodd" stroke="none"/>
    <path d="M12.85 5.25 L9.25 10.15 5.25 10.15 9.1 5.2 5.25 0.1 8.9 0.0 12.85 5.25" fill="#ff4d00" fill-rule="evenodd" stroke="none"/>
    <path d="M7.6 5.25 L4.0 10.15 0.0 10.15 3.85 5.2 0.0 0.1 3.65 0.0 7.6 5.25" fill="#ff4d00" fill-rule="evenodd" stroke="none"/>
  </g>
</svg>
