<?xml version="1.0" encoding="UTF-8" standalone="no"?>
<svg xmlns:ffdec="https://www.free-decompiler.com/flash" xmlns:xlink="http://www.w3.org/1999/xlink" ffdec:objectType="shape" height="87.6px" width="663.15px" xmlns="http://www.w3.org/2000/svg">
  <g transform="matrix(1.0, 0.0, 0.0, 1.0, 0.0, 0.0)">
    <path d="M290.9 70.8 L282.05 66.2 273.7 55.35 278.85 55.35 290.9 70.8" fill="#29292b" fill-rule="evenodd" stroke="none"/>
    <path d="M382.05 66.2 L373.65 70.8 384.4 55.35 389.55 55.35 382.05 66.2" fill="#29292b" fill-rule="evenodd" stroke="none"/>
    <path d="M383.4 55.35 Q384.65 55.35 385.05 56.05 385.45 56.8 384.75 57.8 L377.65 68.3 Q376.95 69.3 375.55 70.05 374.2 70.8 372.95 70.8 L291.35 70.8 Q290.15 70.8 288.75 70.1 287.35 69.35 286.65 68.35 L279.3 57.8 Q278.6 56.8 278.95 56.05 279.3 55.35 280.55 55.35 L383.4 55.35" fill="#191919" fill-rule="evenodd" stroke="none"/>
    <path d="M385.8 56.75 L278.1 56.75 277.55 55.35 386.4 55.35 385.8 56.75" fill="#595657" fill-rule="evenodd" stroke="none"/>
    <path d="M377.55 66.7 L286.65 66.7 286.1 65.75 378.1 65.75 377.55 66.7" fill="#474647" fill-rule="evenodd" stroke="none"/>
    <path d="M377.95 65.65 L286.1 65.65 285.65 64.65 378.55 64.65 377.95 65.65" fill="#1e1d1f" fill-rule="evenodd" stroke="none"/>
    <path d="M365.2 55.75 L363.45 68.4 350.1 83.05 314.45 83.05 301.05 68.4 299.35 55.75 365.2 55.75" fill="url(#gradient0)" fill-rule="evenodd" stroke="none"/>
    <path d="M363.45 68.4 L365.2 55.75 299.35 55.75 301.05 68.4 314.45 83.05 350.1 83.05 363.45 68.4 M366.35 54.75 L364.4 68.85 350.55 84.05 314.0 84.05 301.9 71.05 301.9 71.0 301.85 71.0 300.3 69.05 300.1 68.85 298.25 54.75 366.35 54.75" fill="#1a1a1c" fill-rule="evenodd" stroke="none"/>
    <path d="M364.5 61.2 L300.05 61.2 299.35 55.75 365.2 55.75 364.5 61.2" fill="#484949" fill-rule="evenodd" stroke="none"/>
    <path d="M376.85 64.4 L365.65 64.4 366.5 57.9 381.85 57.9 376.85 64.4" fill="#1e0701" fill-rule="evenodd" stroke="none"/>
    <path d="M375.75 63.5 L367.2 63.5 367.8 58.85 379.85 58.85 375.75 63.5" fill="#2c0000" fill-rule="evenodd" stroke="none"/>
    <path d="M374.35 62.5 L368.75 62.5 369.1 59.85 376.6 59.85 374.35 62.5" fill="#780000" fill-rule="evenodd" stroke="none"/>
    <path d="M287.4 64.4 L283.4 57.9 297.75 57.9 298.6 64.4 287.4 64.4" fill="#1e0701" fill-rule="evenodd" stroke="none"/>
    <path d="M288.5 63.5 L285.35 58.85 296.45 58.85 297.05 63.5 288.5 63.5" fill="#2c0000" fill-rule="evenodd" stroke="none"/>
    <path d="M289.85 62.5 L287.65 59.85 295.15 59.85 295.5 62.5 289.85 62.5" fill="#780000" fill-rule="evenodd" stroke="none"/>
    <path d="M427.95 83.8 L421.6 83.8 419.05 63.7 430.25 63.7 427.95 83.8" fill="url(#gradient1)" fill-rule="evenodd" stroke="none"/>
    <path d="M433.05 65.25 L431.6 66.3 Q429.35 67.35 425.05 67.35 420.75 67.35 417.75 66.3 L415.6 65.25 415.6 50.75 418.15 51.8 Q421.4 52.85 425.05 52.85 428.7 52.85 431.25 51.8 L433.05 50.75 433.05 65.25" fill="url(#gradient2)" fill-rule="evenodd" stroke="none"/>
    <path d="M419.75 63.75 L417.7 62.75 417.7 55.15 419.75 56.2 419.75 63.75" fill="#000000" fill-rule="evenodd" stroke="none"/>
    <path d="M425.65 64.6 L423.55 64.6 423.55 57.4 425.65 57.4 425.65 64.6" fill="#000000" fill-rule="evenodd" stroke="none"/>
    <path d="M431.15 62.75 L429.1 63.75 429.1 56.2 431.15 55.15 431.15 62.75" fill="#000000" fill-rule="evenodd" stroke="none"/>
    <path d="M237.55 83.8 L235.0 63.7 246.25 63.7 243.9 83.8 237.55 83.8" fill="url(#gradient3)" fill-rule="evenodd" stroke="none"/>
    <path d="M234.45 51.8 Q237.7 52.85 241.3 52.85 244.95 52.85 247.5 51.8 248.8 51.3 249.35 50.75 L249.35 65.25 Q249.05 65.8 247.9 66.3 245.6 67.35 241.3 67.35 237.0 67.35 234.05 66.3 L231.9 65.25 231.9 50.75 234.45 51.8" fill="url(#gradient4)" fill-rule="evenodd" stroke="none"/>
    <path d="M236.05 63.75 L234.0 62.75 234.0 55.15 236.05 56.2 236.05 63.75" fill="#0c0c0c" fill-rule="evenodd" stroke="none"/>
    <path d="M239.85 57.4 L241.9 57.4 241.9 64.6 239.85 64.6 239.85 57.4" fill="#0c0c0c" fill-rule="evenodd" stroke="none"/>
    <path d="M247.45 62.75 L245.4 63.75 245.4 56.2 247.45 55.15 247.45 62.75" fill="#0c0c0c" fill-rule="evenodd" stroke="none"/>
    <path d="M445.65 0.9 L441.65 6.85 213.5 6.85 209.5 0.9 445.65 0.9" fill="url(#gradient5)" fill-rule="evenodd" stroke="none"/>
    <path d="M646.6 1.0 L645.85 13.65 615.55 52.95 49.15 52.95 15.75 13.65 14.05 1.0 646.6 1.0" fill="url(#gradient6)" fill-rule="evenodd" stroke="none"/>
    <path d="M645.85 13.65 L646.6 1.0 14.05 1.0 15.75 13.65 49.15 52.95 615.55 52.95 645.85 13.65 M647.65 0.0 L646.85 14.05 616.05 53.95 48.65 53.95 15.0 14.3 14.8 14.1 12.95 0.0 647.65 0.0" fill="#0c0c0c" fill-rule="evenodd" stroke="none"/>
    <path d="M645.9 6.45 L468.9 6.45 464.25 3.45 200.55 3.45 194.55 6.45 14.75 6.45 14.05 1.0 646.6 1.0 645.9 6.45" fill="#676868" fill-rule="evenodd" stroke="none"/>
    <path d="M661.05 9.9 Q661.05 10.75 660.45 11.3 659.9 11.9 659.05 11.9 L647.75 11.9 Q646.95 11.9 646.35 11.3 645.75 10.75 645.75 9.9 L645.75 3.75 Q645.75 2.95 646.35 2.35 646.95 1.75 647.75 1.75 L659.05 1.75 Q659.9 1.75 660.45 2.35 661.05 2.95 661.05 3.75 L661.05 9.9" fill="url(#gradient7)" fill-rule="evenodd" stroke="none"/>
    <path d="M653.2 1.75 Q653.6 1.75 653.9 2.05 L654.2 2.75 654.2 10.9 653.9 11.6 653.2 11.9 646.75 11.9 Q646.35 11.9 646.05 11.6 645.75 11.3 645.75 10.9 L645.75 2.75 Q645.75 2.35 646.05 2.05 646.35 1.75 646.75 1.75 L653.2 1.75" fill="url(#gradient8)" fill-rule="evenodd" stroke="none"/>
    <path d="M652.85 1.75 L652.85 11.9 647.0 11.9 647.0 1.75 652.85 1.75" fill="#363738" fill-rule="evenodd" stroke="none"/>
    <path d="M652.15 9.5 L652.15 10.7 647.7 10.7 647.7 9.5 652.15 9.5" fill="#0c0c0c" fill-rule="evenodd" stroke="none"/>
    <path d="M652.15 2.85 L652.15 4.05 647.7 4.05 647.7 2.85 652.15 2.85" fill="#0c0c0c" fill-rule="evenodd" stroke="none"/>
    <path d="M663.15 6.4 Q663.15 9.2 662.5 11.1 L661.8 12.5 652.4 12.5 Q653.75 10.15 653.75 6.4 653.75 4.05 653.1 2.4 L652.4 1.2 661.8 1.2 662.5 2.15 Q663.15 3.6 663.15 6.4" fill="url(#gradient9)" fill-rule="evenodd" stroke="none"/>
    <path d="M660.8 9.8 L660.15 11.15 655.25 11.15 655.9 9.8 660.8 9.8" fill="#0c0c0c" fill-rule="evenodd" stroke="none"/>
    <path d="M661.35 6.0 L661.35 7.35 656.7 7.35 656.7 6.0 661.35 6.0" fill="#0c0c0c" fill-rule="evenodd" stroke="none"/>
    <path d="M660.15 2.4 L660.8 3.75 655.9 3.75 655.25 2.4 660.15 2.4" fill="#0c0c0c" fill-rule="evenodd" stroke="none"/>
    <path d="M15.4 1.75 Q16.25 1.75 16.8 2.35 17.4 2.95 17.4 3.75 L17.4 9.9 Q17.4 10.75 16.8 11.3 16.25 11.9 15.4 11.9 L4.1 11.9 Q3.3 11.9 2.7 11.3 2.1 10.75 2.1 9.9 L2.1 3.75 Q2.1 2.95 2.7 2.35 3.3 1.75 4.1 1.75 L15.4 1.75" fill="url(#gradient10)" fill-rule="evenodd" stroke="none"/>
    <path d="M9.95 1.75 L16.4 1.75 17.1 2.05 17.4 2.75 17.4 10.9 17.1 11.6 16.4 11.9 9.95 11.9 Q9.55 11.9 9.25 11.6 8.95 11.3 8.95 10.9 L8.95 2.75 Q8.95 2.35 9.25 2.05 9.55 1.75 9.95 1.75" fill="url(#gradient11)" fill-rule="evenodd" stroke="none"/>
    <path d="M10.3 1.75 L16.15 1.75 16.15 11.9 10.3 11.9 10.3 1.75" fill="#363738" fill-rule="evenodd" stroke="none"/>
    <path d="M11.0 9.5 L15.45 9.5 15.45 10.7 11.0 10.7 11.0 9.5" fill="#0c0c0c" fill-rule="evenodd" stroke="none"/>
    <path d="M11.0 2.85 L15.45 2.85 15.45 4.05 11.0 4.05 11.0 2.85" fill="#0c0c0c" fill-rule="evenodd" stroke="none"/>
    <path d="M10.8 1.2 L10.1 2.4 Q9.4 4.05 9.4 6.4 9.4 8.75 10.1 10.85 L10.8 12.5 1.4 12.5 0.7 11.1 Q0.0 9.2 0.0 6.4 0.0 3.6 0.7 2.15 L1.4 1.2 10.8 1.2" fill="url(#gradient12)" fill-rule="evenodd" stroke="none"/>
    <path d="M2.35 9.8 L7.25 9.8 7.9 11.15 3.0 11.15 2.35 9.8" fill="#0c0c0c" fill-rule="evenodd" stroke="none"/>
    <path d="M1.8 6.0 L6.45 6.0 6.45 7.35 1.8 7.35 1.8 6.0" fill="#0c0c0c" fill-rule="evenodd" stroke="none"/>
    <path d="M3.0 2.4 L7.9 2.4 7.25 3.75 2.35 3.75 3.0 2.4" fill="#0c0c0c" fill-rule="evenodd" stroke="none"/>
    <path d="M397.1 50.25 L396.45 51.3 274.35 51.3 273.65 50.25 397.1 50.25" fill="#474647" fill-rule="evenodd" stroke="none"/>
    <path d="M241.6 43.85 Q242.85 43.85 244.4 44.45 245.9 45.05 246.85 45.85 L248.95 47.75 Q249.9 48.6 249.65 49.15 249.45 49.75 248.2 49.75 L63.1 49.75 Q61.85 49.75 60.45 49.05 59.05 48.35 58.3 47.35 L57.5 46.25 Q56.8 45.25 57.15 44.55 57.5 43.85 58.75 43.85 L94.2 43.85 96.55 43.5 Q97.65 43.15 97.95 42.7 98.3 42.2 99.4 41.9 L101.75 41.55 125.55 41.55 127.95 41.9 Q129.1 42.2 129.45 42.7 129.8 43.15 130.95 43.5 L133.3 43.85 174.25 43.85 176.6 43.5 178.05 42.7 Q178.35 42.2 179.5 41.9 L181.85 41.55 205.65 41.55 208.0 41.9 Q209.15 42.2 209.5 42.7 209.85 43.15 211.0 43.5 L213.35 43.85 241.6 43.85" fill="#333333" fill-rule="evenodd" stroke="none"/>
    <path d="M205.65 41.55 L208.0 41.9 Q209.15 42.2 209.5 42.7 209.85 43.15 211.0 43.5 L213.35 43.85 221.65 43.85 Q222.9 43.85 224.4 44.45 225.95 45.05 226.85 45.85 L229.0 47.75 Q229.95 48.6 229.7 49.15 229.5 49.75 228.25 49.75 L158.6 49.75 Q157.35 49.75 157.1 49.15 156.85 48.55 157.75 47.7 L159.65 45.9 Q160.55 45.05 162.1 44.45 L164.85 43.85 174.25 43.85 176.6 43.5 178.05 42.7 Q178.35 42.2 179.5 41.9 L181.85 41.55 205.65 41.55" fill="#1e1e1e" fill-rule="evenodd" stroke="none"/>
    <path d="M205.85 46.5 Q207.15 47.25 207.75 48.35 L216.0 63.15 Q216.6 64.25 216.35 65.55 216.15 66.85 215.2 67.55 214.25 68.3 212.7 68.85 L209.9 69.35 176.15 69.35 173.5 68.85 Q172.1 68.3 171.35 67.55 170.6 66.85 170.5 65.5 170.35 64.2 170.95 63.1 L178.55 48.4 Q179.1 47.3 180.4 46.55 181.65 45.75 182.9 45.75 L203.3 45.75 Q204.55 45.75 205.85 46.5" fill="url(#gradient13)" fill-rule="evenodd" stroke="none"/>
    <path d="M202.65 67.25 L198.65 66.8 188.75 66.8 184.7 67.25 180.65 67.7 180.2 67.7 177.65 67.2 Q176.35 66.65 175.75 65.95 175.15 65.2 175.15 63.9 175.15 62.6 175.7 61.45 L181.25 50.75 Q181.8 49.65 183.0 48.9 184.15 48.1 185.25 48.1 L188.5 48.5 192.15 48.9 194.45 48.9 198.15 48.5 201.3 48.1 Q202.3 48.1 203.45 48.85 204.6 49.6 205.2 50.7 L211.25 61.5 Q211.85 62.6 211.75 63.9 211.65 65.2 210.9 65.95 210.15 66.65 208.8 67.2 L206.35 67.7 202.65 67.25" fill="#2b2b2a" fill-rule="evenodd" stroke="none"/>
    <path d="M202.95 66.25 L182.95 66.25 180.4 65.9 Q179.0 65.55 178.4 64.95 177.75 64.3 177.85 62.95 177.9 61.65 178.55 60.5 L182.55 52.75 Q183.2 51.5 184.6 50.65 186.0 49.8 187.4 49.8 L198.6 49.8 Q200.0 49.8 201.45 50.65 202.85 51.5 203.5 52.7 L207.9 60.55 Q208.6 61.8 208.55 63.05 208.5 64.35 207.75 64.95 207.1 65.5 205.7 65.9 L202.95 66.25" fill="#3f3e49" fill-rule="evenodd" stroke="none"/>
    <path d="M201.7 50.2 Q203.25 51.15 203.95 52.45 L208.35 60.3 Q209.15 61.75 209.05 63.2 209.0 64.65 208.05 65.35 207.25 66.0 205.65 66.4 L202.95 66.75 182.95 66.75 180.25 66.4 Q178.7 65.95 178.05 65.3 177.25 64.5 177.35 62.95 177.4 61.6 178.1 60.25 L182.1 52.5 Q182.8 51.15 184.35 50.25 185.85 49.3 187.4 49.3 L198.6 49.3 Q200.15 49.3 201.7 50.2 M203.1 52.95 Q202.5 51.85 201.15 51.1 199.85 50.3 198.6 50.3 L187.4 50.3 Q186.15 50.3 184.85 51.1 183.55 51.85 183.0 52.95 L179.0 60.75 Q178.4 61.8 178.35 62.95 178.3 64.1 178.75 64.55 179.25 65.05 180.5 65.4 L182.95 65.75 202.95 65.75 205.5 65.4 Q206.8 65.05 207.45 64.55 208.05 64.1 208.05 63.0 208.05 61.85 207.45 60.8 L203.1 52.95" fill="#1c1d23" fill-rule="evenodd" stroke="none"/>
    <path d="M221.05 46.2 L223.35 46.35 Q225.2 46.8 225.0 47.4 222.4 49.5 216.45 51.55 214.7 52.1 213.9 50.65 213.1 49.2 214.45 48.8 219.4 47.15 221.05 46.2" fill="url(#gradient14)" fill-rule="evenodd" stroke="none"/>
    <path d="M165.65 46.05 Q168.45 47.55 172.2 48.8 173.55 49.2 172.8 50.65 172.0 52.1 170.25 51.55 164.1 49.5 161.3 46.9 160.75 46.5 162.95 46.1 L165.65 46.05" fill="url(#gradient15)" fill-rule="evenodd" stroke="none"/>
    <path d="M207.45 48.15 L209.1 47.2 212.45 48.15 215.7 54.0 214.75 57.3 213.1 58.25 207.45 48.15" fill="url(#gradient16)" fill-rule="evenodd" stroke="none"/>
    <path d="M214.65 48.25 L216.75 52.0 215.1 52.95 213.0 49.15 214.65 48.25" fill="#333333" fill-rule="evenodd" stroke="none"/>
    <path d="M178.95 48.15 L173.3 58.25 171.65 57.3 170.7 54.0 174.0 48.15 177.3 47.2 178.95 48.15" fill="url(#gradient17)" fill-rule="evenodd" stroke="none"/>
    <path d="M171.75 48.25 L173.45 49.15 171.35 52.95 169.65 52.0 171.75 48.25" fill="#333333" fill-rule="evenodd" stroke="none"/>
    <path d="M125.55 41.55 L127.95 41.9 Q129.1 42.2 129.45 42.7 129.8 43.15 130.95 43.5 L133.3 43.85 141.6 43.85 Q142.85 43.85 144.35 44.45 145.9 45.05 146.8 45.85 L148.95 47.75 Q149.85 48.6 149.65 49.15 149.45 49.75 148.2 49.75 L78.55 49.75 Q77.3 49.75 77.05 49.15 76.8 48.55 77.7 47.7 L79.6 45.9 Q80.5 45.05 82.0 44.45 83.5 43.85 84.75 43.85 L94.2 43.85 96.55 43.5 Q97.65 43.15 97.95 42.7 98.3 42.2 99.4 41.9 L101.75 41.55 125.55 41.55" fill="#1e1e1e" fill-rule="evenodd" stroke="none"/>
    <path d="M125.8 46.5 Q127.1 47.25 127.7 48.35 L135.95 63.15 Q136.55 64.25 136.3 65.55 136.1 66.85 135.15 67.55 134.2 68.3 132.65 68.85 L129.85 69.35 96.1 69.35 93.45 68.85 Q92.0 68.3 91.3 67.55 90.55 66.85 90.4 65.5 90.3 64.2 90.85 63.1 L98.5 48.4 Q99.05 47.3 100.35 46.55 101.6 45.75 102.85 45.75 L123.25 45.75 Q124.5 45.75 125.8 46.5" fill="url(#gradient18)" fill-rule="evenodd" stroke="none"/>
    <path d="M122.6 67.25 L118.6 66.8 108.7 66.8 104.65 67.25 100.6 67.7 100.15 67.7 97.6 67.2 Q96.3 66.65 95.7 65.95 95.1 65.2 95.1 63.9 95.05 62.55 95.65 61.45 L101.2 50.75 Q101.75 49.65 102.95 48.9 104.1 48.1 105.2 48.1 L108.45 48.5 112.05 48.9 114.35 48.9 118.1 48.5 121.25 48.1 Q122.25 48.1 123.4 48.85 124.55 49.6 125.15 50.7 L131.2 61.5 Q131.8 62.6 131.7 63.9 131.55 65.2 130.8 65.95 130.05 66.65 128.7 67.2 L126.3 67.7 122.6 67.25" fill="#2b2b2a" fill-rule="evenodd" stroke="none"/>
    <path d="M122.9 66.25 L102.9 66.25 100.35 65.9 Q98.95 65.55 98.35 64.95 97.7 64.3 97.8 62.95 97.85 61.65 98.45 60.5 L102.5 52.75 Q103.15 51.5 104.55 50.65 105.95 49.8 107.3 49.8 L118.55 49.8 Q119.9 49.8 121.35 50.65 122.8 51.5 123.45 52.7 L127.85 60.55 Q128.55 61.8 128.5 63.05 128.45 64.35 127.7 64.95 127.0 65.5 125.6 65.9 L122.9 66.25" fill="#3f3e49" fill-rule="evenodd" stroke="none"/>
    <path d="M121.6 50.2 Q123.15 51.15 123.9 52.45 L128.25 60.3 Q129.05 61.7 129.0 63.2 128.9 64.65 128.0 65.35 127.2 66.0 125.6 66.4 L122.9 66.75 102.9 66.75 100.2 66.4 Q98.65 65.95 98.0 65.3 97.2 64.5 97.3 62.95 97.35 61.6 98.05 60.25 L102.05 52.5 Q102.75 51.15 104.3 50.25 105.8 49.3 107.3 49.3 L118.55 49.3 Q120.05 49.3 121.6 50.2 M123.0 52.95 Q122.4 51.85 121.1 51.1 119.8 50.3 118.55 50.3 L107.3 50.3 Q106.05 50.3 104.8 51.1 103.5 51.85 102.95 52.95 L98.9 60.75 Q98.35 61.85 98.3 62.95 98.2 64.1 98.7 64.55 99.2 65.05 100.45 65.4 L102.9 65.75 122.9 65.75 125.45 65.4 Q126.75 65.05 127.35 64.55 128.0 64.1 128.0 63.0 128.0 61.85 127.4 60.8 L123.0 52.95" fill="#1c1d23" fill-rule="evenodd" stroke="none"/>
    <path d="M141.0 46.2 L143.3 46.35 Q145.15 46.8 144.95 47.4 142.4 49.5 136.35 51.55 134.6 52.1 133.85 50.65 133.05 49.2 134.4 48.8 139.25 47.2 141.0 46.2" fill="url(#gradient19)" fill-rule="evenodd" stroke="none"/>
    <path d="M85.6 46.05 Q88.4 47.55 92.15 48.8 93.5 49.2 92.7 50.65 91.95 52.1 90.2 51.55 84.1 49.5 81.2 46.9 80.7 46.5 82.9 46.1 L85.6 46.05" fill="url(#gradient20)" fill-rule="evenodd" stroke="none"/>
    <path d="M127.4 48.15 L129.05 47.2 132.4 48.15 135.65 54.0 134.7 57.3 133.05 58.25 127.4 48.15" fill="url(#gradient21)" fill-rule="evenodd" stroke="none"/>
    <path d="M134.6 48.25 L136.7 52.0 135.05 52.95 132.9 49.15 134.6 48.25" fill="#333333" fill-rule="evenodd" stroke="none"/>
    <path d="M98.9 48.15 L93.25 58.25 91.6 57.3 90.65 54.0 93.9 48.15 97.25 47.2 98.9 48.15" fill="url(#gradient22)" fill-rule="evenodd" stroke="none"/>
    <path d="M91.7 48.25 L93.35 49.15 91.25 52.95 89.6 52.0 91.7 48.25" fill="#333333" fill-rule="evenodd" stroke="none"/>
    <path d="M603.9 46.2 L602.9 47.4 Q602.15 48.35 600.7 49.05 599.3 49.75 598.05 49.75 L413.65 49.75 Q412.4 49.75 412.15 49.15 411.9 48.55 412.8 47.7 L414.7 45.9 Q415.6 45.05 417.15 44.45 418.65 43.85 419.9 43.85 L449.0 43.85 451.35 43.5 Q452.45 43.15 452.75 42.7 453.1 42.2 454.2 41.9 L456.55 41.55 480.35 41.55 482.75 41.9 Q483.85 42.2 484.2 42.7 484.6 43.15 485.7 43.5 L488.1 43.85 529.05 43.85 531.4 43.5 Q532.5 43.15 532.85 42.7 533.15 42.2 534.3 41.9 535.4 41.55 536.65 41.55 L560.4 41.55 562.8 41.9 Q563.95 42.2 564.3 42.7 564.65 43.15 565.8 43.5 L568.15 43.85 602.75 43.85 Q604.0 43.85 604.3 44.55 604.65 45.2 603.9 46.2" fill="#333333" fill-rule="evenodd" stroke="none"/>
    <path d="M565.8 43.5 L568.15 43.85 576.45 43.85 Q577.7 43.85 579.2 44.45 580.75 45.05 581.65 45.85 L583.8 47.75 Q584.75 48.6 584.5 49.15 584.3 49.75 583.05 49.75 L513.4 49.75 Q512.15 49.75 511.9 49.15 511.65 48.55 512.55 47.7 L514.45 45.9 Q515.35 45.05 516.9 44.45 518.4 43.85 519.65 43.85 L529.05 43.85 531.4 43.5 Q532.5 43.15 532.85 42.7 533.15 42.2 534.3 41.9 535.4 41.55 536.65 41.55 L560.4 41.55 562.8 41.9 Q563.95 42.2 564.3 42.7 564.65 43.15 565.8 43.5" fill="#1e1e1e" fill-rule="evenodd" stroke="none"/>
    <path d="M560.65 46.5 Q561.95 47.25 562.55 48.35 L570.8 63.15 Q571.4 64.25 571.15 65.55 570.95 66.85 570.0 67.55 569.05 68.3 567.5 68.85 L564.7 69.35 530.95 69.35 528.3 68.85 Q526.9 68.3 526.15 67.55 525.4 66.85 525.25 65.5 525.15 64.2 525.7 63.1 L533.35 48.4 Q533.9 47.3 535.2 46.55 536.45 45.75 537.7 45.75 L558.1 45.75 Q559.35 45.75 560.65 46.5" fill="url(#gradient23)" fill-rule="evenodd" stroke="none"/>
    <path d="M553.45 66.8 L543.55 66.8 539.5 67.25 535.45 67.7 535.0 67.7 532.45 67.2 Q531.15 66.65 530.55 65.95 529.95 65.2 529.95 63.9 529.95 62.6 530.5 61.45 L536.05 50.75 Q536.6 49.65 537.8 48.9 538.95 48.1 540.05 48.1 L543.3 48.5 546.9 48.9 549.25 48.9 552.95 48.5 556.1 48.1 Q557.1 48.1 558.25 48.85 559.4 49.6 560.0 50.7 L566.05 61.5 Q566.65 62.6 566.55 63.9 566.45 65.2 565.65 65.95 564.9 66.65 563.6 67.2 L561.15 67.7 557.45 67.25 553.45 66.8" fill="#2b2b2a" fill-rule="evenodd" stroke="none"/>
    <path d="M557.75 66.25 L537.75 66.25 535.2 65.9 Q533.8 65.55 533.2 64.95 532.55 64.3 532.65 62.95 532.7 61.65 533.35 60.5 L537.35 52.75 Q538.0 51.5 539.4 50.65 540.8 49.8 542.2 49.8 L553.4 49.8 Q554.8 49.8 556.25 50.65 557.65 51.5 558.3 52.7 L562.7 60.55 Q563.4 61.8 563.35 63.05 563.3 64.35 562.55 64.95 561.9 65.5 560.45 65.9 L557.75 66.25" fill="#3f3e49" fill-rule="evenodd" stroke="none"/>
    <path d="M557.9 52.95 Q557.25 51.85 555.95 51.1 554.65 50.3 553.4 50.3 L542.2 50.3 Q540.95 50.3 539.65 51.1 538.35 51.85 537.8 52.95 L533.75 60.75 Q533.2 61.85 533.15 62.95 533.05 64.1 533.55 64.55 534.05 65.05 535.3 65.4 L537.75 65.75 557.75 65.75 560.3 65.4 Q561.6 65.05 562.25 64.55 562.85 64.1 562.85 63.0 562.85 61.85 562.25 60.8 L557.9 52.95 M556.45 50.2 Q558.0 51.15 558.75 52.45 L563.1 60.3 Q563.9 61.7 563.85 63.2 563.75 64.65 562.85 65.35 562.05 66.0 560.45 66.4 L557.75 66.75 537.75 66.75 535.05 66.4 Q533.5 65.95 532.85 65.3 532.05 64.5 532.15 62.95 532.2 61.6 532.9 60.25 L536.9 52.5 Q537.6 51.15 539.15 50.25 540.65 49.3 542.2 49.3 L553.4 49.3 Q554.95 49.3 556.45 50.2" fill="#1c1d23" fill-rule="evenodd" stroke="none"/>
    <path d="M575.85 46.2 L578.15 46.35 Q580.0 46.8 579.8 47.4 577.2 49.5 571.25 51.55 569.5 52.1 568.7 50.65 567.9 49.2 569.25 48.8 574.2 47.15 575.85 46.2" fill="url(#gradient24)" fill-rule="evenodd" stroke="none"/>
    <path d="M525.05 51.55 Q518.95 49.5 516.05 46.9 515.55 46.5 517.75 46.1 L520.45 46.05 Q523.25 47.55 527.0 48.8 528.35 49.2 527.55 50.65 526.8 52.1 525.05 51.55" fill="url(#gradient25)" fill-rule="evenodd" stroke="none"/>
    <path d="M567.9 58.25 L562.25 48.15 563.9 47.2 567.25 48.15 570.5 54.0 569.55 57.3 567.9 58.25" fill="url(#gradient26)" fill-rule="evenodd" stroke="none"/>
    <path d="M569.45 48.25 L571.55 52.0 569.9 52.95 567.8 49.15 569.45 48.25" fill="#333333" fill-rule="evenodd" stroke="none"/>
    <path d="M533.75 48.15 L528.1 58.25 526.45 57.3 525.5 54.0 528.75 48.15 532.1 47.2 533.75 48.15" fill="url(#gradient27)" fill-rule="evenodd" stroke="none"/>
    <path d="M526.55 48.25 L528.25 49.15 526.1 52.95 524.45 52.0 526.55 48.25" fill="#333333" fill-rule="evenodd" stroke="none"/>
    <path d="M484.2 42.7 Q484.6 43.15 485.7 43.5 L488.1 43.85 496.35 43.85 Q497.6 43.85 499.15 44.45 500.7 45.05 501.6 45.85 L503.75 47.75 Q504.65 48.6 504.4 49.15 504.2 49.75 502.95 49.75 L433.35 49.75 Q432.1 49.75 431.85 49.15 431.6 48.55 432.5 47.7 L434.4 45.9 Q435.3 45.05 436.8 44.45 438.3 43.85 439.55 43.85 L449.0 43.85 451.35 43.5 Q452.45 43.15 452.75 42.7 453.1 42.2 454.2 41.9 L456.55 41.55 480.35 41.55 482.75 41.9 Q483.85 42.2 484.2 42.7" fill="#1e1e1e" fill-rule="evenodd" stroke="none"/>
    <path d="M480.6 46.5 Q481.9 47.25 482.5 48.35 L490.75 63.15 Q491.35 64.25 491.1 65.55 490.85 66.85 489.95 67.55 489.0 68.3 487.45 68.85 L484.65 69.35 450.85 69.35 448.2 68.85 Q446.8 68.3 446.05 67.55 445.35 66.85 445.2 65.5 445.1 64.2 445.65 63.1 L453.25 48.4 Q453.85 47.3 455.15 46.55 456.4 45.75 457.65 45.75 L478.05 45.75 Q479.3 45.75 480.6 46.5" fill="url(#gradient28)" fill-rule="evenodd" stroke="none"/>
    <path d="M479.95 50.7 L485.95 61.5 Q486.55 62.6 486.45 63.9 486.35 65.2 485.6 65.95 484.85 66.65 483.5 67.2 L481.05 67.7 477.4 67.25 473.4 66.8 463.5 66.8 459.45 67.25 455.4 67.7 454.9 67.7 452.35 67.2 Q451.05 66.65 450.5 65.95 449.9 65.2 449.85 63.9 449.85 62.55 450.4 61.45 L456.0 50.75 Q456.55 49.65 457.75 48.9 458.9 48.1 460.0 48.1 L463.25 48.5 466.85 48.9 469.15 48.9 472.85 48.5 476.05 48.1 Q477.05 48.1 478.2 48.85 479.35 49.6 479.95 50.7" fill="#2b2b2a" fill-rule="evenodd" stroke="none"/>
    <path d="M477.7 66.25 L457.7 66.25 455.15 65.9 Q453.75 65.55 453.15 64.95 452.5 64.3 452.6 62.95 452.65 61.65 453.25 60.5 L457.3 52.75 Q457.95 51.5 459.35 50.65 460.75 49.8 462.1 49.8 L473.35 49.8 Q474.7 49.8 476.15 50.65 477.6 51.5 478.25 52.7 L482.6 60.55 Q483.3 61.8 483.3 63.05 483.25 64.35 482.45 64.95 481.8 65.5 480.4 65.9 L477.7 66.25" fill="#3f3e49" fill-rule="evenodd" stroke="none"/>
    <path d="M477.8 52.95 Q477.2 51.85 475.9 51.1 474.6 50.3 473.35 50.3 L462.1 50.3 Q460.85 50.3 459.6 51.1 458.3 51.85 457.75 52.95 L453.7 60.75 Q453.15 61.85 453.1 62.95 453.0 64.1 453.5 64.55 454.0 65.05 455.25 65.4 L457.7 65.75 477.7 65.75 480.25 65.4 Q481.55 65.05 482.15 64.55 482.8 64.1 482.8 63.0 482.8 61.85 482.2 60.8 L477.8 52.95 M476.4 50.2 Q477.95 51.15 478.7 52.45 L483.05 60.3 Q483.85 61.7 483.8 63.2 483.7 64.65 482.8 65.35 482.0 66.0 480.4 66.4 L477.7 66.75 457.7 66.75 455.0 66.4 Q453.45 65.95 452.8 65.3 452.0 64.5 452.05 62.95 452.1 61.6 452.8 60.25 L456.85 52.5 Q457.5 51.15 459.05 50.25 460.6 49.3 462.1 49.3 L473.35 49.3 Q474.85 49.3 476.4 50.2" fill="#1c1d23" fill-rule="evenodd" stroke="none"/>
    <path d="M495.75 46.2 L498.1 46.35 Q499.95 46.8 499.75 47.4 497.2 49.5 491.15 51.55 489.4 52.1 488.65 50.65 487.85 49.2 489.2 48.8 494.05 47.2 495.75 46.2" fill="url(#gradient29)" fill-rule="evenodd" stroke="none"/>
    <path d="M444.95 51.55 Q438.9 49.5 436.0 46.9 435.5 46.5 437.7 46.1 L440.4 46.05 Q443.2 47.55 446.95 48.8 448.3 49.2 447.5 50.65 446.7 52.1 444.95 51.55" fill="url(#gradient30)" fill-rule="evenodd" stroke="none"/>
    <path d="M487.85 58.25 L482.2 48.15 Q483.05 47.7 483.85 47.2 L487.15 48.15 490.45 54.0 489.5 57.3 487.85 58.25" fill="url(#gradient31)" fill-rule="evenodd" stroke="none"/>
    <path d="M489.4 48.25 L491.5 52.0 489.8 52.95 487.7 49.15 489.4 48.25" fill="#333333" fill-rule="evenodd" stroke="none"/>
    <path d="M453.7 48.15 L448.05 58.25 446.4 57.3 445.45 54.0 448.7 48.15 452.05 47.2 453.7 48.15" fill="url(#gradient32)" fill-rule="evenodd" stroke="none"/>
    <path d="M446.5 48.25 L448.15 49.15 446.05 52.95 444.4 52.0 446.5 48.25" fill="#333333" fill-rule="evenodd" stroke="none"/>
    <path d="M284.9 40.7 L290.7 48.65 284.3 46.3 281.2 40.7 284.9 40.7" fill="#29292b" fill-rule="evenodd" stroke="none"/>
    <path d="M387.6 46.3 L381.6 48.65 386.45 40.7 390.15 40.7 387.6 46.3" fill="#29292b" fill-rule="evenodd" stroke="none"/>
    <path d="M384.85 40.7 Q386.1 40.7 386.55 41.45 387.0 42.2 386.35 43.3 L384.75 46.1 Q384.1 47.15 382.8 47.9 381.5 48.65 380.25 48.65 L291.85 48.65 Q290.6 48.65 289.3 47.9 287.95 47.15 287.3 46.1 L285.55 43.25 Q284.9 42.2 285.3 41.45 285.7 40.7 286.95 40.7 L384.85 40.7" fill="#191919" fill-rule="evenodd" stroke="none"/>
    <path d="M387.45 41.4 L284.35 41.4 283.95 40.7 387.85 40.7 387.45 41.4" fill="#595657" fill-rule="evenodd" stroke="none"/>
    <path d="M372.1 43.7 L300.15 43.7 299.6 40.9 372.6 40.9 372.1 43.7" fill="#484949" fill-rule="evenodd" stroke="none"/>
    <path d="M383.85 45.4 L372.95 45.4 373.55 42.0 386.0 42.0 383.85 45.4" fill="#1e0701" fill-rule="evenodd" stroke="none"/>
    <path d="M383.05 44.9 L374.1 44.9 374.5 42.5 384.6 42.5 383.05 44.9" fill="#2c0000" fill-rule="evenodd" stroke="none"/>
    <path d="M382.1 44.4 L375.2 44.4 375.4 43.0 382.95 43.0 382.1 44.4" fill="#780000" fill-rule="evenodd" stroke="none"/>
    <path d="M288.15 45.4 L286.0 42.0 298.45 42.0 299.05 45.4 288.15 45.4" fill="#1e0701" fill-rule="evenodd" stroke="none"/>
    <path d="M288.95 44.9 L287.4 42.5 297.5 42.5 297.95 44.9 288.95 44.9" fill="#2c0000" fill-rule="evenodd" stroke="none"/>
    <path d="M289.95 44.4 L289.05 43.0 296.6 43.0 296.85 44.4 289.95 44.4" fill="#780000" fill-rule="evenodd" stroke="none"/>
    <path d="M454.1 8.55 Q456.0 8.55 457.3 9.25 457.8 9.55 457.75 10.2 457.7 10.85 457.15 11.45 L441.5 29.25 439.95 30.3 438.15 30.75 425.1 30.75 423.3 31.2 Q422.35 31.65 421.85 32.3 L404.7 53.55 403.25 54.7 401.45 55.15 263.4 55.15 Q262.6 55.15 261.65 54.65 260.7 54.2 260.15 53.55 L243.35 32.3 241.9 31.2 240.1 30.75 226.8 30.75 225.0 30.3 Q224.05 29.85 223.5 29.25 L208.0 11.5 Q207.45 10.85 207.4 10.2 207.35 9.55 207.85 9.25 209.15 8.55 211.0 8.55 L454.1 8.55" fill="url(#gradient33)" fill-rule="evenodd" stroke="none"/>
    <path d="M418.95 30.05 L401.15 51.05 263.4 51.05 246.15 29.4 Q245.25 28.15 243.7 27.4 242.2 26.6 240.65 26.6 L226.6 26.6 214.4 12.65 450.7 12.65 438.35 26.65 424.55 26.6 Q422.85 26.6 421.3 27.55 419.75 28.5 418.95 30.05" fill="url(#gradient34)" fill-rule="evenodd" stroke="none"/>
    <path d="M418.95 30.05 L401.15 51.05 263.4 51.05 246.15 29.4 Q245.25 28.15 243.7 27.4 242.2 26.6 240.65 26.6 L226.6 26.6 214.4 12.65 450.7 12.65 438.35 26.65 424.55 26.6 Q422.85 26.6 421.3 27.55 419.75 28.5 418.95 30.05 Z" fill="none" stroke="#00bdf4" stroke-linecap="butt" stroke-linejoin="miter-clip" stroke-miterlimit="4.0" stroke-width="1.0"/>
    <path d="M309.7 59.6 Q318.9 54.9 331.95 54.9 345.0 54.9 354.25 59.6 363.45 64.35 363.45 71.0 363.45 77.7 354.25 82.4 345.0 87.1 331.95 87.1 318.9 87.1 309.7 82.4 300.45 77.65 300.45 71.0 300.45 64.35 309.7 59.6" fill="url(#gradient35)" fill-rule="evenodd" stroke="none"/>
    <path d="M309.7 59.6 Q318.9 54.9 331.95 54.9 345.0 54.9 354.25 59.6 363.45 64.35 363.45 71.0 363.45 77.7 354.25 82.4 345.0 87.1 331.95 87.1 318.9 87.1 309.7 82.4 300.45 77.65 300.45 71.0 300.45 64.35 309.7 59.6 Z" fill="none" stroke="#0c0c0c" stroke-linecap="butt" stroke-linejoin="miter-clip" stroke-miterlimit="4.0" stroke-width="1.0"/>
    <path d="M314.15 64.9 Q321.55 61.15 331.95 61.15 342.4 61.15 349.75 64.9 357.1 68.7 357.1 74.0 357.1 79.35 349.75 83.1 342.4 86.85 331.95 86.85 321.55 86.85 314.15 83.1 306.8 79.35 306.8 74.0 306.8 68.7 314.15 64.9" fill="url(#gradient36)" fill-rule="evenodd" stroke="none"/>
    <path d="M315.5 64.95 Q322.3 61.45 331.95 61.45 341.55 61.45 348.35 64.95 355.15 68.45 355.15 73.35 355.15 78.25 348.35 81.75 341.55 85.25 331.95 85.25 322.3 85.25 315.5 81.75 308.7 78.25 308.7 73.35 308.7 68.45 315.5 64.95" fill="#020d35" fill-rule="evenodd" stroke="none"/>
    <path d="M341.1 74.0 Q341.1 75.95 338.4 77.35 335.75 78.7 331.95 78.7 328.15 78.7 325.45 77.35 322.75 75.95 322.75 74.0 322.75 72.05 325.45 70.7 328.15 69.3 331.95 69.3 335.75 69.3 338.4 70.7 341.1 72.05 341.1 74.0" fill="#0742d6" fill-rule="evenodd" stroke="none"/>
    <path d="M338.85 74.0 Q338.85 75.45 336.85 76.5 334.8 77.55 331.95 77.55 329.05 77.55 327.05 76.5 325.0 75.45 325.0 74.0 325.0 72.55 327.05 71.5 329.05 70.45 331.95 70.45 334.8 70.45 336.85 71.5 338.85 72.55 338.85 74.0" fill="#102d87" fill-rule="evenodd" stroke="none"/>
  </g>
  <defs>
    <linearGradient gradientTransform="matrix(0.0, 0.0167, -0.0167, 0.0, 332.3, 69.4)" gradientUnits="userSpaceOnUse" id="gradient0" spreadMethod="pad" x1="-819.2" x2="819.2">
      <stop offset="0.0" stop-color="#1d1e1f"/>
      <stop offset="1.0" stop-color="#242424"/>
    </linearGradient>
    <linearGradient gradientTransform="matrix(-1.0E-4, 0.0146, -0.0123, -1.0E-4, 426.1, 68.5)" gradientUnits="userSpaceOnUse" id="gradient1" spreadMethod="pad" x1="-819.2" x2="819.2">
      <stop offset="0.0" stop-color="#00e0ff" stop-opacity="0.7490196"/>
      <stop offset="1.0" stop-color="#00e0ff" stop-opacity="0.02745098"/>
    </linearGradient>
    <linearGradient gradientTransform="matrix(0.0106, 0.0, 0.0, -0.0106, 424.35, 59.05)" gradientUnits="userSpaceOnUse" id="gradient2" spreadMethod="pad" x1="-819.2" x2="819.2">
      <stop offset="0.0" stop-color="#27252c"/>
      <stop offset="0.09803921568627451" stop-color="#0e0c13"/>
      <stop offset="0.5254901960784314" stop-color="#453e3f"/>
      <stop offset="0.8862745098039215" stop-color="#141219"/>
      <stop offset="1.0" stop-color="#27252c"/>
    </linearGradient>
    <linearGradient gradientTransform="matrix(-1.0E-4, 0.0151, -0.0123, -1.0E-4, 240.4, 67.8)" gradientUnits="userSpaceOnUse" id="gradient3" spreadMethod="pad" x1="-819.2" x2="819.2">
      <stop offset="0.0" stop-color="#00e0ff" stop-opacity="0.7490196"/>
      <stop offset="1.0" stop-color="#00e0ff" stop-opacity="0.02745098"/>
    </linearGradient>
    <linearGradient gradientTransform="matrix(0.0106, 0.0, 0.0, -0.0106, 240.6, 59.05)" gradientUnits="userSpaceOnUse" id="gradient4" spreadMethod="pad" x1="-819.2" x2="819.2">
      <stop offset="0.0" stop-color="#27252c"/>
      <stop offset="0.09803921568627451" stop-color="#0e0c13"/>
      <stop offset="0.5254901960784314" stop-color="#453e3f"/>
      <stop offset="0.8862745098039215" stop-color="#141219"/>
      <stop offset="1.0" stop-color="#27252c"/>
    </linearGradient>
    <linearGradient gradientTransform="matrix(0.1441, 0.0, 0.0, -0.1441, 327.6, 3.85)" gradientUnits="userSpaceOnUse" id="gradient5" spreadMethod="pad" x1="-819.2" x2="819.2">
      <stop offset="0.0" stop-color="#050d1f"/>
      <stop offset="0.01568627450980392" stop-color="#070d1e"/>
      <stop offset="0.5411764705882353" stop-color="#470300"/>
      <stop offset="0.9294117647058824" stop-color="#100b1a"/>
      <stop offset="1.0" stop-color="#050d1f"/>
    </linearGradient>
    <linearGradient gradientTransform="matrix(0.0, 0.0317, -0.0317, 0.0, 330.35, 27.0)" gradientUnits="userSpaceOnUse" id="gradient6" spreadMethod="pad" x1="-819.2" x2="819.2">
      <stop offset="0.0" stop-color="#0d0d0f"/>
      <stop offset="1.0" stop-color="#282828"/>
    </linearGradient>
    <linearGradient gradientTransform="matrix(0.0, -0.0062, -0.0062, 0.0, 653.4, 6.85)" gradientUnits="userSpaceOnUse" id="gradient7" spreadMethod="pad" x1="-819.2" x2="819.2">
      <stop offset="0.0" stop-color="#0f4291"/>
      <stop offset="0.5137254901960784" stop-color="#000a3a"/>
      <stop offset="0.6039215686274509" stop-color="#010e40"/>
      <stop offset="0.7215686274509804" stop-color="#041951"/>
      <stop offset="0.8588235294117647" stop-color="#092a6c"/>
      <stop offset="1.0" stop-color="#0f4291"/>
    </linearGradient>
    <linearGradient gradientTransform="matrix(0.0, -0.0062, -0.0062, 0.0, 649.95, 6.85)" gradientUnits="userSpaceOnUse" id="gradient8" spreadMethod="pad" x1="-819.2" x2="819.2">
      <stop offset="0.0" stop-color="#505050"/>
      <stop offset="0.09803921568627451" stop-color="#373737"/>
      <stop offset="0.5254901960784314" stop-color="#6e6963"/>
      <stop offset="0.8862745098039215" stop-color="#3d3d3d"/>
      <stop offset="1.0" stop-color="#505050"/>
    </linearGradient>
    <linearGradient gradientTransform="matrix(0.0, -0.0069, -0.0069, 0.0, 657.75, 6.85)" gradientUnits="userSpaceOnUse" id="gradient9" spreadMethod="pad" x1="-819.2" x2="819.2">
      <stop offset="0.0" stop-color="#505050"/>
      <stop offset="0.09803921568627451" stop-color="#373737"/>
      <stop offset="0.5254901960784314" stop-color="#6e6963"/>
      <stop offset="0.8862745098039215" stop-color="#3d3d3d"/>
      <stop offset="1.0" stop-color="#505050"/>
    </linearGradient>
    <linearGradient gradientTransform="matrix(0.0, -0.0062, 0.0062, 0.0, 9.75, 6.85)" gradientUnits="userSpaceOnUse" id="gradient10" spreadMethod="pad" x1="-819.2" x2="819.2">
      <stop offset="0.0" stop-color="#712708"/>
      <stop offset="0.2627450980392157" stop-color="#3e180b"/>
      <stop offset="0.48627450980392156" stop-color="#000000"/>
      <stop offset="0.8235294117647058" stop-color="#3d170a"/>
      <stop offset="1.0" stop-color="#662308"/>
    </linearGradient>
    <linearGradient gradientTransform="matrix(0.0, -0.0062, 0.0062, 0.0, 13.2, 6.85)" gradientUnits="userSpaceOnUse" id="gradient11" spreadMethod="pad" x1="-819.2" x2="819.2">
      <stop offset="0.0" stop-color="#505050"/>
      <stop offset="0.09803921568627451" stop-color="#373737"/>
      <stop offset="0.5254901960784314" stop-color="#6e6963"/>
      <stop offset="0.8862745098039215" stop-color="#3d3d3d"/>
      <stop offset="1.0" stop-color="#505050"/>
    </linearGradient>
    <linearGradient gradientTransform="matrix(0.0, -0.0069, 0.0069, 0.0, 5.4, 6.85)" gradientUnits="userSpaceOnUse" id="gradient12" spreadMethod="pad" x1="-819.2" x2="819.2">
      <stop offset="0.0" stop-color="#505050"/>
      <stop offset="0.09803921568627451" stop-color="#373737"/>
      <stop offset="0.5254901960784314" stop-color="#6e6963"/>
      <stop offset="0.8862745098039215" stop-color="#3d3d3d"/>
      <stop offset="1.0" stop-color="#505050"/>
    </linearGradient>
    <linearGradient gradientTransform="matrix(0.0, -0.0144, -0.0144, 0.0, 193.45, 57.55)" gradientUnits="userSpaceOnUse" id="gradient13" spreadMethod="pad" x1="-819.2" x2="819.2">
      <stop offset="0.0" stop-color="#373737"/>
      <stop offset="0.6549019607843137" stop-color="#a4a4a4"/>
      <stop offset="0.803921568627451" stop-color="#a4a4a4"/>
      <stop offset="1.0" stop-color="#6b6b6b"/>
    </linearGradient>
    <linearGradient gradientTransform="matrix(0.0069, 0.0, 0.0, -0.0069, 219.35, 48.9)" gradientUnits="userSpaceOnUse" id="gradient14" spreadMethod="pad" x1="-819.2" x2="819.2">
      <stop offset="0.0" stop-color="#5e5e5e"/>
      <stop offset="0.43137254901960786" stop-color="#3b3b3b"/>
      <stop offset="1.0" stop-color="#080808"/>
    </linearGradient>
    <linearGradient gradientTransform="matrix(0.0072, 0.0, 0.0, -0.0072, 167.1, 48.8)" gradientUnits="userSpaceOnUse" id="gradient15" spreadMethod="pad" x1="-819.2" x2="819.2">
      <stop offset="0.0" stop-color="#080808"/>
      <stop offset="0.5686274509803921" stop-color="#3b3b3b"/>
      <stop offset="1.0" stop-color="#5e5e5e"/>
    </linearGradient>
    <linearGradient gradientTransform="matrix(0.0036, 0.0061, 0.0061, -0.0036, 212.15, 52.1)" gradientUnits="userSpaceOnUse" id="gradient16" spreadMethod="pad" x1="-819.2" x2="819.2">
      <stop offset="0.0" stop-color="#505050"/>
      <stop offset="0.09803921568627451" stop-color="#373737"/>
      <stop offset="0.5254901960784314" stop-color="#6e6963"/>
      <stop offset="0.8862745098039215" stop-color="#3d3d3d"/>
      <stop offset="1.0" stop-color="#505050"/>
    </linearGradient>
    <linearGradient gradientTransform="matrix(0.004, -0.0059, -0.0059, -0.004, 174.4, 52.1)" gradientUnits="userSpaceOnUse" id="gradient17" spreadMethod="pad" x1="-819.2" x2="819.2">
      <stop offset="0.0" stop-color="#505050"/>
      <stop offset="0.09803921568627451" stop-color="#373737"/>
      <stop offset="0.5254901960784314" stop-color="#6e6963"/>
      <stop offset="0.8862745098039215" stop-color="#3d3d3d"/>
      <stop offset="1.0" stop-color="#505050"/>
    </linearGradient>
    <linearGradient gradientTransform="matrix(0.0, -0.0144, -0.0144, 0.0, 113.4, 57.55)" gradientUnits="userSpaceOnUse" id="gradient18" spreadMethod="pad" x1="-819.2" x2="819.2">
      <stop offset="0.0" stop-color="#373737"/>
      <stop offset="0.6549019607843137" stop-color="#a4a4a4"/>
      <stop offset="0.803921568627451" stop-color="#a4a4a4"/>
      <stop offset="1.0" stop-color="#6b6b6b"/>
    </linearGradient>
    <linearGradient gradientTransform="matrix(0.0069, 0.0, 0.0, -0.0069, 139.3, 48.9)" gradientUnits="userSpaceOnUse" id="gradient19" spreadMethod="pad" x1="-819.2" x2="819.2">
      <stop offset="0.0" stop-color="#5e5e5e"/>
      <stop offset="0.43137254901960786" stop-color="#3b3b3b"/>
      <stop offset="1.0" stop-color="#080808"/>
    </linearGradient>
    <linearGradient gradientTransform="matrix(0.0072, 0.0, 0.0, -0.0072, 87.05, 48.8)" gradientUnits="userSpaceOnUse" id="gradient20" spreadMethod="pad" x1="-819.2" x2="819.2">
      <stop offset="0.0" stop-color="#080808"/>
      <stop offset="0.5686274509803921" stop-color="#3b3b3b"/>
      <stop offset="1.0" stop-color="#5e5e5e"/>
    </linearGradient>
    <linearGradient gradientTransform="matrix(0.0036, 0.0061, 0.0061, -0.0036, 132.05, 52.1)" gradientUnits="userSpaceOnUse" id="gradient21" spreadMethod="pad" x1="-819.2" x2="819.2">
      <stop offset="0.0" stop-color="#505050"/>
      <stop offset="0.09803921568627451" stop-color="#373737"/>
      <stop offset="0.5254901960784314" stop-color="#6e6963"/>
      <stop offset="0.8862745098039215" stop-color="#3d3d3d"/>
      <stop offset="1.0" stop-color="#505050"/>
    </linearGradient>
    <linearGradient gradientTransform="matrix(0.004, -0.0059, -0.0059, -0.004, 94.3, 52.1)" gradientUnits="userSpaceOnUse" id="gradient22" spreadMethod="pad" x1="-819.2" x2="819.2">
      <stop offset="0.0" stop-color="#505050"/>
      <stop offset="0.09803921568627451" stop-color="#373737"/>
      <stop offset="0.5254901960784314" stop-color="#6e6963"/>
      <stop offset="0.8862745098039215" stop-color="#3d3d3d"/>
      <stop offset="1.0" stop-color="#505050"/>
    </linearGradient>
    <linearGradient gradientTransform="matrix(0.0, -0.0144, -0.0144, 0.0, 548.25, 57.55)" gradientUnits="userSpaceOnUse" id="gradient23" spreadMethod="pad" x1="-819.2" x2="819.2">
      <stop offset="0.0" stop-color="#373737"/>
      <stop offset="0.6549019607843137" stop-color="#a4a4a4"/>
      <stop offset="0.803921568627451" stop-color="#a4a4a4"/>
      <stop offset="1.0" stop-color="#6b6b6b"/>
    </linearGradient>
    <linearGradient gradientTransform="matrix(0.0069, 0.0, 0.0, -0.0069, 574.15, 48.9)" gradientUnits="userSpaceOnUse" id="gradient24" spreadMethod="pad" x1="-819.2" x2="819.2">
      <stop offset="0.0" stop-color="#5e5e5e"/>
      <stop offset="0.43137254901960786" stop-color="#3b3b3b"/>
      <stop offset="1.0" stop-color="#080808"/>
    </linearGradient>
    <linearGradient gradientTransform="matrix(0.0072, 0.0, 0.0, -0.0072, 521.9, 48.8)" gradientUnits="userSpaceOnUse" id="gradient25" spreadMethod="pad" x1="-819.2" x2="819.2">
      <stop offset="0.0" stop-color="#080808"/>
      <stop offset="0.5686274509803921" stop-color="#3b3b3b"/>
      <stop offset="1.0" stop-color="#5e5e5e"/>
    </linearGradient>
    <linearGradient gradientTransform="matrix(0.0036, 0.0061, 0.0061, -0.0036, 566.9, 52.1)" gradientUnits="userSpaceOnUse" id="gradient26" spreadMethod="pad" x1="-819.2" x2="819.2">
      <stop offset="0.0" stop-color="#505050"/>
      <stop offset="0.09803921568627451" stop-color="#373737"/>
      <stop offset="0.5254901960784314" stop-color="#6e6963"/>
      <stop offset="0.8862745098039215" stop-color="#3d3d3d"/>
      <stop offset="1.0" stop-color="#505050"/>
    </linearGradient>
    <linearGradient gradientTransform="matrix(0.004, -0.0059, -0.0059, -0.004, 529.15, 52.1)" gradientUnits="userSpaceOnUse" id="gradient27" spreadMethod="pad" x1="-819.2" x2="819.2">
      <stop offset="0.0" stop-color="#505050"/>
      <stop offset="0.09803921568627451" stop-color="#373737"/>
      <stop offset="0.5254901960784314" stop-color="#6e6963"/>
      <stop offset="0.8862745098039215" stop-color="#3d3d3d"/>
      <stop offset="1.0" stop-color="#505050"/>
    </linearGradient>
    <linearGradient gradientTransform="matrix(0.0, -0.0144, -0.0144, 0.0, 468.2, 57.55)" gradientUnits="userSpaceOnUse" id="gradient28" spreadMethod="pad" x1="-819.2" x2="819.2">
      <stop offset="0.0" stop-color="#373737"/>
      <stop offset="0.6549019607843137" stop-color="#a4a4a4"/>
      <stop offset="0.803921568627451" stop-color="#a4a4a4"/>
      <stop offset="1.0" stop-color="#6b6b6b"/>
    </linearGradient>
    <linearGradient gradientTransform="matrix(0.0069, 0.0, 0.0, -0.0069, 494.1, 48.9)" gradientUnits="userSpaceOnUse" id="gradient29" spreadMethod="pad" x1="-819.2" x2="819.2">
      <stop offset="0.0" stop-color="#5e5e5e"/>
      <stop offset="0.43137254901960786" stop-color="#3b3b3b"/>
      <stop offset="1.0" stop-color="#080808"/>
    </linearGradient>
    <linearGradient gradientTransform="matrix(0.0072, 0.0, 0.0, -0.0072, 441.85, 48.8)" gradientUnits="userSpaceOnUse" id="gradient30" spreadMethod="pad" x1="-819.2" x2="819.2">
      <stop offset="0.0" stop-color="#080808"/>
      <stop offset="0.5686274509803921" stop-color="#3b3b3b"/>
      <stop offset="1.0" stop-color="#5e5e5e"/>
    </linearGradient>
    <linearGradient gradientTransform="matrix(0.0036, 0.0061, 0.0061, -0.0036, 486.85, 52.1)" gradientUnits="userSpaceOnUse" id="gradient31" spreadMethod="pad" x1="-819.2" x2="819.2">
      <stop offset="0.0" stop-color="#505050"/>
      <stop offset="0.09803921568627451" stop-color="#373737"/>
      <stop offset="0.5254901960784314" stop-color="#6e6963"/>
      <stop offset="0.8862745098039215" stop-color="#3d3d3d"/>
      <stop offset="1.0" stop-color="#505050"/>
    </linearGradient>
    <linearGradient gradientTransform="matrix(0.004, -0.0059, -0.0059, -0.004, 449.1, 52.1)" gradientUnits="userSpaceOnUse" id="gradient32" spreadMethod="pad" x1="-819.2" x2="819.2">
      <stop offset="0.0" stop-color="#505050"/>
      <stop offset="0.09803921568627451" stop-color="#373737"/>
      <stop offset="0.5254901960784314" stop-color="#6e6963"/>
      <stop offset="0.8862745098039215" stop-color="#3d3d3d"/>
      <stop offset="1.0" stop-color="#505050"/>
    </linearGradient>
    <linearGradient gradientTransform="matrix(0.0, -0.0284, -0.0284, 0.0, 332.6, 31.85)" gradientUnits="userSpaceOnUse" id="gradient33" spreadMethod="pad" x1="-819.2" x2="819.2">
      <stop offset="0.0" stop-color="#292929"/>
      <stop offset="0.023529411764705882" stop-color="#5a5b5c"/>
      <stop offset="0.8705882352941177" stop-color="#9b9d9e"/>
      <stop offset="0.9294117647058824" stop-color="#999b9c"/>
      <stop offset="0.9529411764705882" stop-color="#929495"/>
      <stop offset="0.9686274509803922" stop-color="#87898a"/>
      <stop offset="0.9803921568627451" stop-color="#767879"/>
      <stop offset="0.9921568627450981" stop-color="#616263"/>
      <stop offset="1.0" stop-color="#464748"/>
      <stop offset="1.0" stop-color="#454647"/>
    </linearGradient>
    <linearGradient gradientTransform="matrix(0.1442, 0.0, 0.0, -0.1442, 332.55, 31.85)" gradientUnits="userSpaceOnUse" id="gradient34" spreadMethod="pad" x1="-819.2" x2="819.2">
      <stop offset="0.0" stop-color="#0b244f"/>
      <stop offset="0.19215686274509805" stop-color="#06326a"/>
      <stop offset="0.38823529411764707" stop-color="#013c7e"/>
      <stop offset="0.5176470588235295" stop-color="#004085"/>
      <stop offset="0.6392156862745098" stop-color="#013e80"/>
      <stop offset="0.7843137254901961" stop-color="#043672"/>
      <stop offset="0.9372549019607843" stop-color="#092a5b"/>
      <stop offset="1.0" stop-color="#0b244f"/>
    </linearGradient>
    <linearGradient gradientTransform="matrix(0.0, -0.0197, -0.0197, 0.0, 331.95, 71.0)" gradientUnits="userSpaceOnUse" id="gradient35" spreadMethod="pad" x1="-819.2" x2="819.2">
      <stop offset="0.0" stop-color="#6a6a6a"/>
      <stop offset="0.45098039215686275" stop-color="#242424"/>
      <stop offset="0.5411764705882353" stop-color="#252628"/>
      <stop offset="0.6235294117647059" stop-color="#2a2d33"/>
      <stop offset="0.7019607843137254" stop-color="#313845"/>
      <stop offset="0.7764705882352941" stop-color="#3b485f"/>
      <stop offset="0.8509803921568627" stop-color="#485d80"/>
      <stop offset="0.9254901960784314" stop-color="#5876a9"/>
      <stop offset="0.996078431372549" stop-color="#6a93d9"/>
      <stop offset="1.0" stop-color="#6b94db"/>
    </linearGradient>
    <linearGradient gradientTransform="matrix(0.0, -0.0157, -0.0157, 0.0, 331.95, 74.0)" gradientUnits="userSpaceOnUse" id="gradient36" spreadMethod="pad" x1="-819.2" x2="819.2">
      <stop offset="0.0" stop-color="#282828"/>
      <stop offset="1.0" stop-color="#0d0d0f"/>
    </linearGradient>
  </defs>
</svg>
