<?xml version="1.0" encoding="UTF-8" standalone="no"?>
<svg xmlns:ffdec="https://www.free-decompiler.com/flash" xmlns:xlink="http://www.w3.org/1999/xlink" ffdec:objectType="shape" height="19.5px" width="38.15px" xmlns="http://www.w3.org/2000/svg">
  <g transform="matrix(1.0, 0.0, 0.0, 1.0, 0.0, 0.0)">
    <path d="M38.15 9.75 Q38.15 13.8 32.6 16.65 27.0 19.5 19.1 19.5 11.2 19.5 5.6 16.65 0.0 13.8 0.0 9.75 0.0 5.7 5.6 2.85 11.2 0.0 19.1 0.0 27.0 0.0 32.6 2.85 38.15 5.7 38.15 9.75 M36.5 9.75 Q36.5 6.05 31.4 3.45 26.3 0.85 19.1 0.85 11.85 0.85 6.75 3.45 1.65 6.05 1.65 9.75 1.65 13.45 6.75 16.05 11.85 18.65 19.1 18.65 26.3 18.65 31.4 16.05 36.5 13.45 36.5 9.75" fill="#0f217d" fill-rule="evenodd" stroke="none"/>
  </g>
</svg>
