<?xml version="1.0" encoding="UTF-8" standalone="no"?>
<svg xmlns:ffdec="https://www.free-decompiler.com/flash" xmlns:xlink="http://www.w3.org/1999/xlink" ffdec:objectType="shape" height="12.3px" width="24.1px" xmlns="http://www.w3.org/2000/svg">
  <g transform="matrix(1.0, 0.0, 0.0, 1.0, 0.0, 0.0)">
    <path d="M12.05 11.8 Q16.6 11.8 19.85 10.15 23.05 8.5 23.05 6.15 23.05 3.8 19.85 2.15 16.6 0.5 12.05 0.5 7.5 0.5 4.25 2.15 1.05 3.8 1.05 6.15 1.05 8.5 4.25 10.15 7.5 11.8 12.05 11.8 M24.1 6.15 Q24.1 8.7 20.55 10.5 17.05 12.3 12.05 12.3 7.05 12.3 3.55 10.5 0.0 8.7 0.0 6.15 0.0 3.6 3.55 1.8 7.05 0.0 12.05 0.0 17.05 0.0 20.55 1.8 24.1 3.6 24.1 6.15" fill="#0a62e0" fill-rule="evenodd" stroke="none"/>
  </g>
</svg>
