<?xml version="1.0" encoding="UTF-8" standalone="no"?>
<svg xmlns:ffdec="https://www.free-decompiler.com/flash" xmlns:xlink="http://www.w3.org/1999/xlink" ffdec:objectType="shape" height="15.25px" width="36.25px" xmlns="http://www.w3.org/2000/svg">
  <g transform="matrix(1.0, 0.0, 0.0, 1.0, 0.5, -0.8)">
    <path d="M0.0 3.55 Q0.0 2.6 0.75 1.95 1.5 1.3 2.6 1.3 L32.6 1.3 Q33.7 1.3 34.45 1.95 35.25 2.6 35.25 3.55 L35.25 13.3 Q35.25 14.25 34.45 14.9 33.7 15.55 32.6 15.55 L2.6 15.55 Q1.5 15.55 0.75 14.9 0.0 14.25 0.0 13.3 L0.0 3.55" fill="#03428e" fill-rule="evenodd" stroke="none"/>
    <path d="M0.0 3.55 Q0.0 2.6 0.75 1.95 1.5 1.3 2.6 1.3 L32.6 1.3 Q33.7 1.3 34.45 1.95 35.25 2.6 35.25 3.55 L35.25 13.3 Q35.25 14.25 34.45 14.9 33.7 15.55 32.6 15.55 L2.6 15.55 Q1.5 15.55 0.75 14.9 0.0 14.25 0.0 13.3 L0.0 3.55 Z" fill="none" stroke="#0080ff" stroke-linecap="butt" stroke-linejoin="miter-clip" stroke-miterlimit="4.0" stroke-width="1.0"/>
  </g>
</svg>
