<?xml version="1.0" encoding="UTF-8" standalone="no"?>
<svg xmlns:ffdec="https://www.free-decompiler.com/flash" xmlns:xlink="http://www.w3.org/1999/xlink" ffdec:objectType="shape" height="49.9px" width="449.2px" xmlns="http://www.w3.org/2000/svg">
  <g transform="matrix(1.0, 0.0, 0.0, 1.0, -106.1, -15.55)">
    <path d="M118.15 53.45 Q120.1 55.45 120.1 58.25 120.1 61.05 118.15 63.0 116.15 64.95 113.35 64.95 110.55 64.95 108.6 63.0 106.6 61.0 106.6 58.25 106.6 55.45 108.6 53.45 110.55 51.5 113.35 51.5 116.15 51.5 118.15 53.45" fill="#777782" fill-rule="evenodd" stroke="none"/>
    <path d="M118.15 53.45 Q120.1 55.45 120.1 58.25 120.1 61.05 118.15 63.0 116.15 64.95 113.35 64.95 110.55 64.95 108.6 63.0 106.6 61.0 106.6 58.25 106.6 55.45 108.6 53.45 110.55 51.5 113.35 51.5 116.15 51.5 118.15 53.45 Z" fill="none" stroke="#2e2f35" stroke-linecap="butt" stroke-linejoin="miter-clip" stroke-miterlimit="4.0" stroke-width="1.0"/>
    <path d="M109.45 63.45 L107.95 61.95 117.1 52.8 118.6 54.3 109.45 63.45" fill="#bebec6" fill-rule="evenodd" stroke="none"/>
    <path d="M200.15 58.25 Q200.15 61.05 198.2 63.0 196.2 64.95 193.4 64.95 190.6 64.95 188.65 63.0 186.65 61.0 186.65 58.25 186.65 55.45 188.65 53.45 190.6 51.5 193.4 51.5 196.2 51.5 198.2 53.45 200.15 55.45 200.15 58.25" fill="#777782" fill-rule="evenodd" stroke="none"/>
    <path d="M200.15 58.25 Q200.15 61.05 198.2 63.0 196.2 64.95 193.4 64.95 190.6 64.95 188.65 63.0 186.65 61.0 186.65 58.25 186.65 55.45 188.65 53.45 190.6 51.5 193.4 51.5 196.2 51.5 198.2 53.45 200.15 55.45 200.15 58.25 Z" fill="none" stroke="#2e2f35" stroke-linecap="butt" stroke-linejoin="miter-clip" stroke-miterlimit="4.0" stroke-width="1.0"/>
    <path d="M194.4 64.6 L192.3 64.6 192.3 51.65 194.4 51.65 194.4 64.6" fill="#bebec6" fill-rule="evenodd" stroke="none"/>
    <path d="M474.75 58.25 Q474.75 61.0 472.75 63.0 470.8 64.95 468.0 64.95 465.2 64.95 463.2 63.0 461.25 61.05 461.25 58.25 461.25 55.45 463.2 53.45 465.2 51.5 468.0 51.5 470.8 51.5 472.75 53.45 474.75 55.45 474.75 58.25" fill="#777782" fill-rule="evenodd" stroke="none"/>
    <path d="M474.75 58.25 Q474.75 61.0 472.75 63.0 470.8 64.95 468.0 64.95 465.2 64.95 463.2 63.0 461.25 61.05 461.25 58.25 461.25 55.45 463.2 53.45 465.2 51.5 468.0 51.5 470.8 51.5 472.75 53.45 474.75 55.45 474.75 58.25 Z" fill="none" stroke="#2e2f35" stroke-linecap="butt" stroke-linejoin="miter-clip" stroke-miterlimit="4.0" stroke-width="1.0"/>
    <path d="M473.25 61.95 L471.75 63.45 462.6 54.3 464.1 52.8 473.25 61.95" fill="#bebec6" fill-rule="evenodd" stroke="none"/>
    <path d="M554.8 58.25 Q554.8 61.05 552.85 63.0 550.85 64.95 548.05 64.95 545.25 64.95 543.3 63.0 541.3 61.0 541.3 58.25 541.3 55.45 543.3 53.45 545.25 51.5 548.05 51.5 550.85 51.5 552.85 53.45 554.8 55.45 554.8 58.25" fill="#777782" fill-rule="evenodd" stroke="none"/>
    <path d="M554.8 58.25 Q554.8 61.05 552.85 63.0 550.85 64.95 548.05 64.95 545.25 64.95 543.3 63.0 541.3 61.0 541.3 58.25 541.3 55.45 543.3 53.45 545.25 51.5 548.05 51.5 550.85 51.5 552.85 53.45 554.8 55.45 554.8 58.25 Z" fill="none" stroke="#2e2f35" stroke-linecap="butt" stroke-linejoin="miter-clip" stroke-miterlimit="4.0" stroke-width="1.0"/>
    <path d="M541.5 59.2 L541.5 57.05 554.45 57.05 554.45 59.2 541.5 59.2" fill="#bebec6" fill-rule="evenodd" stroke="none"/>
    <path d="M228.95 17.65 L230.6 16.45 237.7 16.45 236.05 17.65 231.15 17.65 231.15 20.6 235.25 20.6 235.25 19.65 233.7 19.65 232.25 18.6 237.45 18.6 237.45 20.6 235.8 21.75 230.6 21.75 228.95 20.6 228.95 17.65" fill="#78e6ff" fill-rule="evenodd" stroke="none"/>
    <path d="M247.35 19.05 L251.75 19.05 251.75 17.65 247.35 17.65 247.35 19.05 M246.8 16.45 L252.3 16.45 254.0 17.65 254.0 21.75 251.75 21.75 251.75 20.25 247.35 20.25 247.35 21.75 245.1 22.7 245.1 17.65 246.8 16.45" fill="#78e6ff" fill-rule="evenodd" stroke="none"/>
    <path d="M270.15 20.6 L268.55 21.75 261.7 21.75 261.7 16.45 263.9 15.55 263.9 20.6 270.15 20.6" fill="#78e6ff" fill-rule="evenodd" stroke="none"/>
    <path d="M283.5 17.65 L279.05 17.65 279.05 19.05 283.5 19.05 283.5 17.65 M285.7 21.75 L283.5 21.75 283.5 20.25 279.05 20.25 279.05 21.75 276.85 22.7 276.85 17.65 278.55 16.45 284.05 16.45 285.7 17.65 285.7 21.75" fill="#78e6ff" fill-rule="evenodd" stroke="none"/>
    <path d="M298.4 20.05 L296.1 21.75 293.45 21.75 297.1 19.1 293.45 16.45 296.05 16.45 298.4 18.15 300.75 16.45 303.35 16.45 299.7 19.1 303.35 21.75 300.75 21.75 298.4 20.05" fill="#78e6ff" fill-rule="evenodd" stroke="none"/>
    <path d="M320.65 16.45 L316.8 19.25 316.8 21.75 314.6 22.7 314.6 19.25 310.75 16.45 313.35 16.45 315.7 18.15 318.05 16.45 320.65 16.45" fill="#78e6ff" fill-rule="evenodd" stroke="none"/>
    <path d="M348.15 20.6 L353.15 20.6 353.15 17.65 348.15 17.65 348.15 20.6 M347.6 16.45 L353.7 16.45 355.35 17.65 355.35 20.55 353.7 21.75 347.6 21.75 345.95 20.55 345.95 17.65 347.6 16.45" fill="#78e6ff" fill-rule="evenodd" stroke="none"/>
    <path d="M372.05 21.75 L370.35 21.75 365.2 18.65 365.2 21.75 363.0 22.7 363.0 16.45 364.55 16.45 369.8 19.6 369.8 16.45 372.05 16.45 372.05 21.75" fill="#78e6ff" fill-rule="evenodd" stroke="none"/>
    <path d="M388.2 20.6 L386.55 21.75 379.7 21.75 379.7 16.45 381.9 15.55 381.9 20.6 388.2 20.6" fill="#78e6ff" fill-rule="evenodd" stroke="none"/>
    <path d="M397.1 21.75 L394.9 22.7 394.9 16.45 397.1 16.45 397.1 21.75" fill="#78e6ff" fill-rule="evenodd" stroke="none"/>
    <path d="M413.85 21.75 L412.15 21.75 407.0 18.65 407.0 21.75 404.8 22.7 404.8 16.45 406.35 16.45 411.65 19.6 411.65 16.45 413.85 16.45 413.85 21.75" fill="#78e6ff" fill-rule="evenodd" stroke="none"/>
    <path d="M423.75 18.6 L429.2 18.6 427.7 19.65 423.75 19.65 423.75 20.6 430.0 20.6 428.35 21.75 421.55 21.75 421.55 16.45 430.25 16.45 428.65 17.65 423.75 17.65 423.75 18.6" fill="#78e6ff" fill-rule="evenodd" stroke="none"/>
    <path d="M261.15 42.2 L261.15 39.2 264.8 38.65 264.8 41.0 275.3 41.0 275.3 37.35 278.9 36.9 278.9 42.2 Q278.9 44.75 276.35 44.95 L263.3 44.95 Q261.35 44.95 261.15 42.2" fill="#78e6ff" fill-rule="evenodd" stroke="none"/>
    <path d="M269.85 36.9 L269.85 33.5 278.9 33.5 278.9 35.7 269.85 36.9" fill="#78e6ff" fill-rule="evenodd" stroke="none"/>
    <path d="M264.8 30.1 L264.8 37.75 261.15 38.4 261.15 28.3 Q261.15 26.25 263.95 26.1 L275.7 26.1 278.9 30.1 264.8 30.1" fill="#78e6ff" fill-rule="evenodd" stroke="none"/>
    <path d="M286.95 36.15 L291.75 35.75 289.45 41.0 293.75 42.9 293.75 44.85 282.8 44.95 286.95 36.15" fill="#78e6ff" fill-rule="evenodd" stroke="none"/>
    <path d="M295.6 35.45 L299.85 35.2 304.2 44.95 299.8 44.95 295.6 35.45" fill="#78e6ff" fill-rule="evenodd" stroke="none"/>
    <path d="M293.75 31.25 L292.4 34.3 287.6 34.7 291.7 26.05 295.75 26.05 299.2 33.7 295.0 34.05 293.75 31.25" fill="#78e6ff" fill-rule="evenodd" stroke="none"/>
    <path d="M311.55 27.05 L311.55 32.95 307.7 33.15 307.7 26.05 311.55 27.05" fill="#78e6ff" fill-rule="evenodd" stroke="none"/>
    <path d="M307.7 34.75 L311.55 34.55 311.55 40.8 320.3 40.8 323.45 44.95 307.7 44.95 307.7 34.75" fill="#78e6ff" fill-rule="evenodd" stroke="none"/>
    <path d="M354.0 34.55 L358.45 34.75 363.05 44.95 358.6 44.95 354.0 34.55" fill="#78e6ff" fill-rule="evenodd" stroke="none"/>
    <path d="M352.55 31.25 L351.85 32.85 347.35 32.7 350.5 26.05 354.55 26.05 357.7 33.15 353.25 32.9 352.55 31.25" fill="#78e6ff" fill-rule="evenodd" stroke="none"/>
    <path d="M346.6 34.3 L351.15 34.45 348.25 41.0 352.55 42.9 352.55 44.85 341.6 44.95 346.6 34.3" fill="#78e6ff" fill-rule="evenodd" stroke="none"/>
    <path d="M387.55 26.05 L380.6 34.9 372.9 34.2 366.5 26.05 372.65 26.1 377.05 31.6 381.4 26.1 387.55 26.05" fill="#78e6ff" fill-rule="evenodd" stroke="none"/>
    <path d="M373.85 35.7 L380.7 36.25 387.55 44.95 381.4 44.95 377.05 39.4 372.65 44.95 366.5 44.95 373.85 35.7" fill="#78e6ff" fill-rule="evenodd" stroke="none"/>
    <path d="M403.9 36.65 L403.9 38.1 399.55 37.4 399.55 36.65 391.15 26.05 397.35 26.05 401.7 31.6 406.05 26.05 412.25 26.05 403.9 36.65" fill="#78e6ff" fill-rule="evenodd" stroke="none"/>
    <path d="M399.55 38.4 L403.9 39.0 403.9 44.95 399.55 44.95 399.55 38.4" fill="#78e6ff" fill-rule="evenodd" stroke="none"/>
  </g>
</svg>
