<?xml version="1.0" encoding="UTF-8" standalone="no"?>
<svg xmlns:ffdec="https://www.free-decompiler.com/flash" xmlns:xlink="http://www.w3.org/1999/xlink" ffdec:objectType="shape" height="22.7px" width="22.7px" xmlns="http://www.w3.org/2000/svg">
  <g transform="matrix(1.0, 0.0, 0.0, 1.0, 0.0, 0.0)">
    <path d="M11.35 0.0 Q16.05 0.0 19.35 3.3 22.7 6.65 22.7 11.35 22.7 16.05 19.35 19.35 16.05 22.7 11.35 22.7 6.65 22.7 3.35 19.35 0.0 16.05 0.0 11.35 0.0 6.65 3.35 3.3 6.65 0.0 11.35 0.0 M18.2 4.45 Q15.35 1.6 11.35 1.6 7.35 1.6 4.45 4.45 1.6 7.3 1.6 11.35 1.6 15.35 4.45 18.2 7.35 21.05 11.35 21.05 15.35 21.05 18.2 18.2 21.05 15.35 21.05 11.35 21.05 7.3 18.2 4.45" fill="#0378ff" fill-opacity="0.8" fill-rule="evenodd" stroke="none"/>
  </g>
</svg>
