<?xml version="1.0" encoding="UTF-8" standalone="no"?>
<svg xmlns:ffdec="https://www.free-decompiler.com/flash" xmlns:xlink="http://www.w3.org/1999/xlink" ffdec:objectType="shape" height="22.7px" width="22.65px" xmlns="http://www.w3.org/2000/svg">
  <g transform="matrix(1.0, 0.0, 0.0, 1.0, 0.0, 0.0)">
    <path d="M11.35 0.0 Q16.05 0.0 19.35 3.35 22.65 6.65 22.65 11.35 22.65 16.05 19.35 19.35 16.05 22.7 11.35 22.7 6.65 22.7 3.3 19.35 0.0 16.05 0.0 11.35 0.0 6.65 3.3 3.35 6.65 0.0 11.35 0.0 M18.2 4.5 Q15.35 1.65 11.35 1.65 7.3 1.65 4.45 4.5 1.6 7.35 1.6 11.35 1.6 15.4 4.45 18.25 7.3 21.1 11.35 21.1 15.35 21.1 18.2 18.25 21.05 15.4 21.05 11.35 21.05 7.35 18.2 4.5" fill="#6b8cb5" fill-opacity="0.8" fill-rule="evenodd" stroke="none"/>
    <path d="M15.85 11.35 Q15.85 13.25 14.55 14.55 13.2 15.9 11.35 15.9 9.5 15.9 8.15 14.55 6.8 13.25 6.8 11.35 6.8 9.5 8.15 8.15 9.45 6.85 11.35 6.85 13.25 6.85 14.55 8.15 15.85 9.5 15.85 11.35" fill="#9ecfff" fill-rule="evenodd" stroke="none"/>
  </g>
</svg>
