<?xml version="1.0" encoding="UTF-8" standalone="no"?>
<svg xmlns:ffdec="https://www.free-decompiler.com/flash" xmlns:xlink="http://www.w3.org/1999/xlink" ffdec:objectType="shape" height="21.65px" width="21.65px" xmlns="http://www.w3.org/2000/svg">
  <g transform="matrix(1.0, 0.0, 0.0, 1.0, -15.4, -15.15)">
    <path d="M26.25 15.15 Q30.7 15.15 33.9 18.35 37.05 21.5 37.05 26.0 37.05 30.45 33.9 33.65 30.7 36.8 26.25 36.8 21.75 36.8 18.6 33.65 15.4 30.45 15.4 26.0 15.4 21.5 18.6 18.35 21.75 15.15 26.25 15.15 M32.8 19.4 Q30.1 16.7 26.25 16.7 22.4 16.7 19.65 19.4 16.95 22.15 16.95 26.0 16.95 29.85 19.65 32.55 22.4 35.25 26.25 35.25 30.1 35.25 32.8 32.55 35.5 29.85 35.5 26.0 35.5 22.15 32.8 19.4" fill="#03ff00" fill-opacity="0.8" fill-rule="evenodd" stroke="none"/>
  </g>
</svg>
