<?xml version="1.0" encoding="UTF-8" standalone="no"?>
<svg xmlns:ffdec="https://www.free-decompiler.com/flash" xmlns:xlink="http://www.w3.org/1999/xlink" ffdec:objectType="shape" height="38.15px" width="38.15px" xmlns="http://www.w3.org/2000/svg">
  <g transform="matrix(1.0, 0.0, 0.0, 1.0, 0.0, 0.0)">
    <path d="M32.55 5.6 Q38.15 11.2 38.15 19.1 38.15 27.0 32.55 32.55 27.0 38.15 19.1 38.15 11.2 38.15 5.6 32.55 0.0 27.0 0.0 19.1 0.0 11.2 5.6 5.6 11.2 0.0 19.1 0.0 27.0 0.0 32.55 5.6 M36.1 19.1 Q36.1 12.05 31.1 7.1 26.1 2.1 19.1 2.1 12.05 2.1 7.05 7.1 2.05 12.05 2.05 19.1 2.05 26.1 7.05 31.1 12.05 36.1 19.1 36.1 26.1 36.1 31.1 31.1 36.1 26.1 36.1 19.1" fill="url(#gradient0)" fill-rule="evenodd" stroke="none"/>
  </g>
  <defs>
    <linearGradient gradientTransform="matrix(0.0233, 0.0, 0.0, -0.0233, 19.1, 19.1)" gradientUnits="userSpaceOnUse" id="gradient0" spreadMethod="pad" x1="-819.2" x2="819.2">
      <stop offset="0.0" stop-color="#0069f2" stop-opacity="0.8"/>
      <stop offset="0.42745098039215684" stop-color="#026bf2"/>
      <stop offset="0.5803921568627451" stop-color="#0872f3"/>
      <stop offset="0.6901960784313725" stop-color="#147df4"/>
      <stop offset="0.7803921568627451" stop-color="#248ef6"/>
      <stop offset="0.8549019607843137" stop-color="#39a4f8"/>
      <stop offset="0.9215686274509803" stop-color="#53c0fb"/>
      <stop offset="0.9803921568627451" stop-color="#72dffe"/>
      <stop offset="1.0" stop-color="#7debff" stop-opacity="0.8"/>
    </linearGradient>
  </defs>
</svg>
