<?xml version="1.0" encoding="UTF-8" standalone="no"?>
<svg xmlns:ffdec="https://www.free-decompiler.com/flash" xmlns:xlink="http://www.w3.org/1999/xlink" ffdec:objectType="shape" height="22.7px" width="22.7px" xmlns="http://www.w3.org/2000/svg">
  <g transform="matrix(1.0, 0.0, 0.0, 1.0, 0.0, 0.0)">
    <path d="M18.25 4.5 Q15.4 1.65 11.35 1.65 7.35 1.65 4.5 4.5 1.65 7.35 1.65 11.35 1.65 15.4 4.5 18.25 7.35 21.1 11.35 21.1 15.4 21.1 18.25 18.25 21.1 15.4 21.1 11.35 21.1 7.35 18.25 4.5 M11.35 0.0 Q16.05 0.0 19.4 3.35 22.7 6.65 22.7 11.35 22.7 16.05 19.4 19.35 16.05 22.7 11.35 22.7 6.65 22.7 3.35 19.35 0.0 16.05 0.0 11.35 0.0 6.65 3.35 3.35 6.65 0.0 11.35 0.0" fill="#ff4d00" fill-opacity="0.8" fill-rule="evenodd" stroke="none"/>
  </g>
</svg>
