<?xml version="1.0" encoding="UTF-8" standalone="no"?>
<svg xmlns:ffdec="https://www.free-decompiler.com/flash" xmlns:xlink="http://www.w3.org/1999/xlink" ffdec:objectType="shape" height="29.4px" width="192.85px" xmlns="http://www.w3.org/2000/svg">
  <g transform="matrix(1.0, 0.0, 0.0, 1.0, 1.5, 1.5)">
    <path d="M188.9 22.55 Q190.2 24.15 189.7 25.25 189.15 26.4 187.1 26.4 L23.75 26.4 Q21.7 26.4 19.3 25.25 16.9 24.1 15.65 22.5 L0.85 3.9 Q-0.4 2.3 0.15 1.15 0.7 0.0 2.75 0.0 L165.3 0.0 Q167.4 0.0 169.8 1.1 172.2 2.25 173.5 3.85 L188.9 22.55" fill="#141516" fill-rule="evenodd" stroke="none"/>
    <path d="M188.9 22.55 L173.5 3.85 Q172.2 2.25 169.8 1.1 167.4 0.0 165.3 0.0 L2.75 0.0 Q0.7 0.0 0.15 1.15 -0.4 2.3 0.85 3.9 L15.65 22.5 Q16.9 24.1 19.3 25.25 21.7 26.4 23.75 26.4 L187.1 26.4 Q189.15 26.4 189.7 25.25 190.2 24.15 188.9 22.55 Z" fill="none" stroke="#45454c" stroke-linecap="butt" stroke-linejoin="miter-clip" stroke-miterlimit="4.0" stroke-width="3.0"/>
    <path d="M175.65 13.75 L183.4 22.6 103.1 22.75 Q22.7 22.85 22.5 22.6 L7.5 4.85 167.55 4.85 Q167.85 4.85 175.65 13.75" fill="url(#gradient0)" fill-rule="evenodd" stroke="none"/>
  </g>
  <defs>
    <linearGradient gradientTransform="matrix(0.1073, 0.0, 0.0, 0.1073, 95.45, 13.8)" gradientUnits="userSpaceOnUse" id="gradient0" spreadMethod="pad" x1="-819.2" x2="819.2">
      <stop offset="0.0" stop-color="#0b001c"/>
      <stop offset="0.11372549019607843" stop-color="#070733"/>
      <stop offset="0.24705882352941178" stop-color="#030d47"/>
      <stop offset="0.3843137254901961" stop-color="#011153"/>
      <stop offset="0.5176470588235295" stop-color="#001257"/>
      <stop offset="0.6627450980392157" stop-color="#011154"/>
      <stop offset="0.7764705882352941" stop-color="#020e4a"/>
      <stop offset="0.8823529411764706" stop-color="#060939"/>
      <stop offset="0.9803921568627451" stop-color="#0a0222"/>
      <stop offset="1.0" stop-color="#0b001c"/>
    </linearGradient>
  </defs>
</svg>
