<?xml version="1.0" encoding="UTF-8" standalone="no"?>
<svg xmlns:ffdec="https://www.free-decompiler.com/flash" xmlns:xlink="http://www.w3.org/1999/xlink" ffdec:objectType="shape" height="13.85px" width="32.75px" xmlns="http://www.w3.org/2000/svg">
  <g transform="matrix(1.0, 0.0, 0.0, 1.0, -1.25, -1.45)">
    <path d="M1.75 4.0 Q1.75 3.15 2.45 2.55 3.1 1.95 4.1 1.95 L31.1 1.95 Q32.1 1.95 32.75 2.55 33.5 3.15 33.5 4.0 L33.5 12.75 Q33.5 13.6 32.75 14.2 32.1 14.8 31.1 14.8 L4.1 14.8 Q3.1 14.8 2.45 14.2 1.75 13.6 1.75 12.75 L1.75 4.0" fill="#0099ff" fill-rule="evenodd" stroke="none"/>
    <path d="M1.75 4.0 Q1.75 3.15 2.45 2.55 3.1 1.95 4.1 1.95 L31.1 1.95 Q32.1 1.95 32.75 2.55 33.5 3.15 33.5 4.0 L33.5 12.75 Q33.5 13.6 32.75 14.2 32.1 14.8 31.1 14.8 L4.1 14.8 Q3.1 14.8 2.45 14.2 1.75 13.6 1.75 12.75 L1.75 4.0" fill="#0066ff" fill-rule="evenodd" stroke="none"/>
    <path d="M1.75 4.0 Q1.75 3.15 2.45 2.55 3.1 1.95 4.1 1.95 L31.1 1.95 Q32.1 1.95 32.75 2.55 33.5 3.15 33.5 4.0 L33.5 12.75 Q33.5 13.6 32.75 14.2 32.1 14.8 31.1 14.8 L4.1 14.8 Q3.1 14.8 2.45 14.2 1.75 13.6 1.75 12.75 L1.75 4.0 Z" fill="none" stroke="#0080ff" stroke-linecap="butt" stroke-linejoin="miter-clip" stroke-miterlimit="4.0" stroke-width="1.0"/>
    <path d="M5.9 5.35 L5.95 5.45 7.05 10.6 8.3 5.45 8.35 5.35 8.4 5.35 9.75 5.35 9.85 5.35 9.9 5.45 9.9 5.7 9.85 5.8 9.75 5.85 9.6 5.85 9.45 5.9 9.4 6.05 9.4 12.1 9.45 12.25 9.6 12.35 9.75 12.35 9.85 12.35 9.9 12.45 9.9 12.7 9.85 12.8 9.75 12.85 7.95 12.85 7.85 12.8 7.85 12.7 7.85 12.45 7.85 12.35 7.95 12.35 8.15 12.35 8.35 12.3 8.35 12.25 8.45 12.1 8.45 7.25 7.2 12.75 7.15 12.8 7.05 12.85 6.8 12.85 6.75 12.8 6.7 12.75 5.55 7.65 5.55 12.1 5.6 12.25 5.75 12.35 5.9 12.35 6.0 12.35 6.05 12.45 6.05 12.7 6.0 12.8 5.9 12.85 4.65 12.85 4.55 12.8 4.55 12.7 4.55 12.45 4.55 12.35 4.65 12.35 4.75 12.35 4.95 12.25 5.05 12.1 5.05 6.05 4.95 5.9 4.8 5.85 4.65 5.85 4.55 5.8 4.55 5.7 4.55 5.45 4.55 5.35 4.65 5.35 5.8 5.35 5.9 5.35 M10.8 5.35 L10.9 5.35 14.3 5.35 14.4 5.35 14.45 5.45 14.45 5.7 14.4 5.8 14.3 5.85 13.3 5.85 13.15 5.9 13.1 6.05 13.1 12.1 13.15 12.25 13.3 12.35 14.3 12.35 14.4 12.35 14.45 12.45 14.45 12.7 14.4 12.8 14.3 12.85 10.9 12.85 10.8 12.8 10.8 12.7 10.8 12.45 10.8 12.35 10.9 12.35 11.9 12.35 12.1 12.25 12.1 12.3 12.15 12.1 12.15 6.05 12.1 5.85 12.1 5.9 11.9 5.85 10.9 5.85 10.8 5.8 10.8 5.7 10.8 5.45 10.8 5.35 M20.6 5.35 L20.7 5.35 20.75 5.45 20.75 5.7 20.7 5.8 20.6 5.85 20.3 5.85 20.1 5.9 20.05 6.05 20.05 12.7 20.0 12.8 19.9 12.85 19.65 12.85 19.6 12.8 19.55 12.75 16.5 6.7 16.5 12.1 16.55 12.25 16.75 12.35 17.05 12.35 17.15 12.35 17.2 12.45 17.2 12.7 17.15 12.8 17.05 12.85 15.4 12.85 15.3 12.8 15.3 12.7 15.3 12.45 15.3 12.35 15.4 12.35 15.7 12.35 15.9 12.3 15.9 12.25 16.0 12.1 16.0 6.05 15.9 5.9 15.65 5.85 15.4 5.85 15.3 5.8 15.3 5.7 15.3 5.45 15.3 5.35 15.4 5.35 16.7 5.35 16.8 5.35 16.8 5.4 19.55 10.75 19.55 6.05 19.45 5.9 19.45 5.85 19.25 5.85 18.95 5.85 18.85 5.8 18.85 5.7 18.85 5.45 18.85 5.35 18.95 5.35 20.6 5.35 M28.45 3.85 L28.45 5.8 26.7 8.45 28.45 11.0 28.45 13.1 22.55 8.5 28.45 3.85" fill="#ffffff" fill-rule="evenodd" stroke="none"/>
  </g>
</svg>
