<?xml version="1.0" encoding="UTF-8" standalone="no"?>
<svg xmlns:ffdec="https://www.free-decompiler.com/flash" xmlns:xlink="http://www.w3.org/1999/xlink" ffdec:objectType="shape" height="19.1px" width="175.0px" xmlns="http://www.w3.org/2000/svg">
  <g transform="matrix(1.0, 0.0, 0.0, 1.0, 0.0, 0.0)">
    <path d="M163.9 3.85 L173.7 15.75 Q175.0 17.35 175.0 18.3 175.0 19.3 173.65 19.05 172.3 18.85 170.4 17.55 168.55 16.3 167.2 14.7 L161.1 7.25 Q159.8 5.65 157.4 4.55 154.95 3.4 152.9 3.4 L7.5 3.4 Q5.7 3.4 2.9 2.2 0.45 1.2 0.05 0.7 -0.25 0.4 1.05 0.2 L4.4 0.0 155.75 0.0 Q157.8 0.0 160.2 1.15 162.6 2.25 163.9 3.85" fill="url(#gradient0)" fill-rule="evenodd" stroke="none"/>
  </g>
  <defs>
    <linearGradient gradientTransform="matrix(-8.0E-4, 0.0108, 0.0108, 8.0E-4, 87.85, 4.15)" gradientUnits="userSpaceOnUse" id="gradient0" spreadMethod="pad" x1="-819.2" x2="819.2">
      <stop offset="0.0" stop-color="#3d9eff" stop-opacity="0.7490196"/>
      <stop offset="0.043137254901960784" stop-color="#4499ff" stop-opacity="0.654902"/>
      <stop offset="0.20784313725490197" stop-color="#5889ff" stop-opacity="0.3647059"/>
      <stop offset="0.396078431372549" stop-color="#667eff" stop-opacity="0.15686275"/>
      <stop offset="0.6235294117647059" stop-color="#6e77ff" stop-opacity="0.03529412"/>
      <stop offset="1.0" stop-color="#7175ff" stop-opacity="0.0"/>
    </linearGradient>
  </defs>
</svg>
