<?xml version="1.0" encoding="UTF-8" standalone="no"?>
<svg xmlns:ffdec="https://www.free-decompiler.com/flash" xmlns:xlink="http://www.w3.org/1999/xlink" ffdec:objectType="shape" height="29.45px" width="194.25px" xmlns="http://www.w3.org/2000/svg">
  <g transform="matrix(1.0, 0.0, 0.0, 1.0, 2.85, 1.5)">
    <path d="M165.35 0.0 Q167.4 0.0 169.85 1.15 172.25 2.3 173.55 3.9 L188.95 22.6 Q190.25 24.2 189.75 25.3 189.2 26.45 187.15 26.45 L23.8 26.45 Q21.75 26.45 19.35 25.3 16.95 24.15 15.7 22.55 L0.9 3.95 Q-0.4 2.35 0.2 1.15 0.75 0.0 2.8 0.0 L165.35 0.0" fill="#141516" fill-rule="evenodd" stroke="none"/>
    <path d="M165.35 0.0 L2.8 0.0 Q0.75 0.0 0.2 1.15 -0.4 2.35 0.9 3.95 L15.7 22.55 Q16.95 24.15 19.35 25.3 21.75 26.45 23.8 26.45 L187.15 26.45 Q189.2 26.45 189.75 25.3 190.25 24.2 188.95 22.6 L173.55 3.9 Q172.25 2.3 169.85 1.15 167.4 0.0 165.35 0.0 Z" fill="none" stroke="#45454c" stroke-linecap="butt" stroke-linejoin="miter-clip" stroke-miterlimit="4.0" stroke-width="3.0"/>
    <path d="M175.7 13.8 L183.45 22.65 103.15 22.8 22.55 22.65 7.55 4.9 167.6 4.9 Q167.9 4.9 175.7 13.8" fill="url(#gradient0)" fill-rule="evenodd" stroke="none"/>
    <path d="M162.15 3.45 Q164.2 3.45 166.6 4.55 169.0 5.7 170.3 7.3 L180.1 19.15 Q181.4 20.75 181.4 21.75 181.4 22.75 180.05 22.5 178.7 22.3 176.8 21.0 L173.6 18.15 167.5 10.7 Q166.2 9.1 163.8 8.0 161.35 6.85 159.3 6.85 L13.9 6.85 Q12.1 6.85 9.3 5.65 6.85 4.65 6.45 4.15 6.15 3.85 7.45 3.65 L10.8 3.45 162.15 3.45" fill="url(#gradient1)" fill-rule="evenodd" stroke="none"/>
    <path d="M154.5 5.95 L159.95 13.2 155.0 20.0 149.45 20.0 154.8 13.15 149.45 6.05 154.5 5.95" fill="#16b0f9" fill-rule="evenodd" stroke="none"/>
    <path d="M146.8 5.95 L152.25 13.2 147.3 20.0 141.75 20.0 147.1 13.15 141.75 6.05 146.8 5.95" fill="#1691f9" fill-rule="evenodd" stroke="none"/>
    <path d="M139.55 5.95 L145.0 13.2 140.05 20.0 134.5 20.0 139.85 13.15 134.5 6.05 139.55 5.95" fill="#1673f9" fill-rule="evenodd" stroke="none"/>
  </g>
  <defs>
    <linearGradient gradientTransform="matrix(0.1073, 0.0, 0.0, 0.1073, 95.5, 13.85)" gradientUnits="userSpaceOnUse" id="gradient0" spreadMethod="pad" x1="-819.2" x2="819.2">
      <stop offset="0.0" stop-color="#0b001c"/>
      <stop offset="0.043137254901960784" stop-color="#09072f"/>
      <stop offset="0.13725490196078433" stop-color="#061453"/>
      <stop offset="0.23529411764705882" stop-color="#031e70"/>
      <stop offset="0.32941176470588235" stop-color="#012584"/>
      <stop offset="0.4235294117647059" stop-color="#002a90"/>
      <stop offset="0.5176470588235295" stop-color="#002b94"/>
      <stop offset="0.6274509803921569" stop-color="#002a91"/>
      <stop offset="0.7137254901960784" stop-color="#012687"/>
      <stop offset="0.788235294117647" stop-color="#032076"/>
      <stop offset="0.8627450980392157" stop-color="#05185f"/>
      <stop offset="0.9333333333333333" stop-color="#080d40"/>
      <stop offset="1.0" stop-color="#0b001c"/>
    </linearGradient>
    <linearGradient gradientTransform="matrix(-8.0E-4, 0.0108, 0.0108, 8.0E-4, 94.25, 7.6)" gradientUnits="userSpaceOnUse" id="gradient1" spreadMethod="pad" x1="-819.2" x2="819.2">
      <stop offset="0.0" stop-color="#3d9eff" stop-opacity="0.7490196"/>
      <stop offset="0.043137254901960784" stop-color="#4499ff" stop-opacity="0.654902"/>
      <stop offset="0.20784313725490197" stop-color="#5889ff" stop-opacity="0.3647059"/>
      <stop offset="0.396078431372549" stop-color="#667eff" stop-opacity="0.15686275"/>
      <stop offset="0.6235294117647059" stop-color="#6e77ff" stop-opacity="0.03529412"/>
      <stop offset="1.0" stop-color="#7175ff" stop-opacity="0.0"/>
    </linearGradient>
  </defs>
</svg>
