<?xml version="1.0" encoding="UTF-8" standalone="no"?>
<svg xmlns:ffdec="https://www.free-decompiler.com/flash" xmlns:xlink="http://www.w3.org/1999/xlink" ffdec:objectType="shape" height="26.8px" width="175.7px" xmlns="http://www.w3.org/2000/svg">
  <g transform="matrix(1.0, 0.0, 0.0, 1.0, -6.2, 0.2)">
    <path d="M158.3 1.3 Q160.15 1.3 162.35 2.3 164.55 3.35 165.7 4.8 L179.55 21.65 Q180.75 23.05 180.3 24.05 179.8 25.1 177.95 25.1 L30.9 25.1 Q29.1 25.1 26.9 24.05 24.75 23.0 23.65 21.6 L10.3 4.85 Q9.15 3.4 9.7 2.3 10.2 1.3 12.0 1.3 L158.3 1.3" fill="#141516" fill-rule="evenodd" stroke="none"/>
    <path d="M158.3 1.3 L12.0 1.3 Q10.2 1.3 9.7 2.3 9.15 3.4 10.3 4.85 L23.65 21.6 Q24.75 23.0 26.9 24.05 29.1 25.1 30.9 25.1 L177.95 25.1 Q179.8 25.1 180.3 24.05 180.75 23.05 179.55 21.65 L165.7 4.8 Q164.55 3.35 162.35 2.3 160.15 1.3 158.3 1.3 Z" fill="none" stroke="#45454c" stroke-linecap="butt" stroke-linejoin="miter-clip" stroke-miterlimit="4.0" stroke-width="3.0"/>
    <path d="M167.65 13.7 L174.6 21.65 102.35 21.8 29.8 21.65 16.3 5.7 160.35 5.7 167.65 13.7" fill="url(#gradient0)" fill-rule="evenodd" stroke="none"/>
    <path d="M155.45 4.4 Q157.3 4.4 159.45 5.4 161.6 6.4 162.75 7.85 L171.6 18.5 Q172.75 19.95 172.75 20.85 172.75 21.75 171.55 21.55 170.35 21.35 168.6 20.2 166.9 19.0 165.75 17.6 L160.25 10.9 Q159.1 9.5 156.9 8.5 154.7 7.45 152.85 7.45 L22.0 7.45 Q20.4 7.45 17.85 6.35 15.65 5.45 15.3 5.0 15.05 4.75 16.2 4.55 L19.2 4.4 155.45 4.4" fill="url(#gradient1)" fill-rule="evenodd" stroke="none"/>
    <path d="M148.55 6.65 L153.45 13.15 149.0 19.3 144.0 19.3 148.8 13.1 144.0 6.75 148.55 6.65" fill="#16b0f9" fill-rule="evenodd" stroke="none"/>
    <path d="M141.6 6.65 L146.55 13.15 142.05 19.3 137.1 19.3 141.9 13.1 137.1 6.75 141.6 6.65" fill="#1691f9" fill-rule="evenodd" stroke="none"/>
    <path d="M135.1 6.65 L140.0 13.15 135.55 19.3 130.55 19.3 135.35 13.1 130.55 6.75 135.1 6.65" fill="#1673f9" fill-rule="evenodd" stroke="none"/>
  </g>
  <defs>
    <linearGradient gradientTransform="matrix(0.0966, 0.0, 0.0, 0.0966, 95.45, 13.75)" gradientUnits="userSpaceOnUse" id="gradient0" spreadMethod="pad" x1="-819.2" x2="819.2">
      <stop offset="0.0" stop-color="#0b001c"/>
      <stop offset="0.043137254901960784" stop-color="#09072f"/>
      <stop offset="0.13725490196078433" stop-color="#061453"/>
      <stop offset="0.23529411764705882" stop-color="#031e70"/>
      <stop offset="0.32941176470588235" stop-color="#012584"/>
      <stop offset="0.4235294117647059" stop-color="#002a90"/>
      <stop offset="0.5176470588235295" stop-color="#002b94"/>
      <stop offset="0.6274509803921569" stop-color="#002a91"/>
      <stop offset="0.7137254901960784" stop-color="#012687"/>
      <stop offset="0.788235294117647" stop-color="#032076"/>
      <stop offset="0.8627450980392157" stop-color="#05185f"/>
      <stop offset="0.9333333333333333" stop-color="#080d40"/>
      <stop offset="1.0" stop-color="#0b001c"/>
    </linearGradient>
    <linearGradient gradientTransform="matrix(-7.0E-4, 0.0098, 0.0098, 7.0E-4, 94.35, 8.15)" gradientUnits="userSpaceOnUse" id="gradient1" spreadMethod="pad" x1="-819.2" x2="819.2">
      <stop offset="0.0" stop-color="#3d9eff" stop-opacity="0.7490196"/>
      <stop offset="0.043137254901960784" stop-color="#4499ff" stop-opacity="0.654902"/>
      <stop offset="0.20784313725490197" stop-color="#5889ff" stop-opacity="0.3647059"/>
      <stop offset="0.396078431372549" stop-color="#667eff" stop-opacity="0.15686275"/>
      <stop offset="0.6235294117647059" stop-color="#6e77ff" stop-opacity="0.03529412"/>
      <stop offset="1.0" stop-color="#7175ff" stop-opacity="0.0"/>
    </linearGradient>
  </defs>
</svg>
