<?xml version="1.0" encoding="UTF-8" standalone="no"?>
<svg xmlns:ffdec="https://www.free-decompiler.com/flash" xmlns:xlink="http://www.w3.org/1999/xlink" ffdec:objectType="shape" height="29.4px" width="192.85px" xmlns="http://www.w3.org/2000/svg">
  <g transform="matrix(1.0, 0.0, 0.0, 1.0, 1.5, 1.5)">
    <path d="M188.95 3.9 L174.2 22.5 Q172.95 24.1 170.55 25.25 168.15 26.4 166.1 26.4 L2.75 26.4 Q0.7 26.4 0.15 25.3 -0.35 24.15 1.0 22.6 L17.25 3.75 Q18.6 2.2 21.0 1.1 23.45 0.0 25.5 0.0 L187.1 0.0 Q189.15 0.0 189.7 1.15 190.25 2.3 188.95 3.9" fill="#141516" fill-rule="evenodd" stroke="none"/>
    <path d="M188.95 3.9 L174.2 22.5 Q172.95 24.1 170.55 25.25 168.15 26.4 166.1 26.4 L2.75 26.4 Q0.7 26.4 0.15 25.3 -0.35 24.15 1.0 22.6 L17.25 3.75 Q18.6 2.2 21.0 1.1 23.45 0.0 25.5 0.0 L187.1 0.0 Q189.15 0.0 189.7 1.15 190.25 2.3 188.95 3.9 Z" fill="none" stroke="#45454c" stroke-linecap="butt" stroke-linejoin="miter-clip" stroke-miterlimit="4.0" stroke-width="3.0"/>
    <path d="M167.3 22.6 Q167.0 23.0 6.45 22.6 20.75 4.85 21.25 4.85 L183.3 4.85 167.3 22.6" fill="url(#gradient0)" fill-rule="evenodd" stroke="none"/>
  </g>
  <defs>
    <linearGradient gradientTransform="matrix(-0.108, 0.0, 0.0, 0.108, 94.85, 13.8)" gradientUnits="userSpaceOnUse" id="gradient0" spreadMethod="pad" x1="-819.2" x2="819.2">
      <stop offset="0.0" stop-color="#050d1f"/>
      <stop offset="0.01568627450980392" stop-color="#070d1e"/>
      <stop offset="0.5411764705882353" stop-color="#470300"/>
      <stop offset="0.9294117647058824" stop-color="#100b1a"/>
      <stop offset="1.0" stop-color="#050d1f"/>
    </linearGradient>
  </defs>
</svg>
