<?xml version="1.0" encoding="UTF-8" standalone="no"?>
<svg xmlns:ffdec="https://www.free-decompiler.com/flash" xmlns:xlink="http://www.w3.org/1999/xlink" ffdec:objectType="shape" height="19.1px" width="175.0px" xmlns="http://www.w3.org/2000/svg">
  <g transform="matrix(1.0, 0.0, 0.0, 1.0, 0.0, 0.0)">
    <path d="M173.95 0.2 Q175.2 0.4 174.95 0.7 174.55 1.2 172.15 2.2 169.3 3.4 167.5 3.4 L22.05 3.4 Q20.0 3.4 17.6 4.55 15.2 5.65 13.9 7.25 L7.8 14.7 Q6.45 16.3 4.6 17.55 2.7 18.85 1.35 19.05 0.0 19.3 0.0 18.3 0.0 17.35 1.3 15.75 L11.05 3.85 Q12.35 2.25 14.8 1.15 17.2 0.0 19.25 0.0 L170.6 0.0 173.95 0.2" fill="url(#gradient0)" fill-rule="evenodd" stroke="none"/>
  </g>
  <defs>
    <linearGradient gradientTransform="matrix(0.0023, -0.0194, 0.0108, 0.0013, 78.8, 5.75)" gradientUnits="userSpaceOnUse" id="gradient0" spreadMethod="pad" x1="-819.2" x2="819.2">
      <stop offset="0.0" stop-color="#087fed" stop-opacity="0.0"/>
      <stop offset="0.17254901960784313" stop-color="#088cd3" stop-opacity="0.23137255"/>
      <stop offset="0.4392156862745098" stop-color="#089cb7" stop-opacity="0.5411765"/>
      <stop offset="0.5803921568627451" stop-color="#088ed1" stop-opacity="0.44705883"/>
      <stop offset="0.7764705882352941" stop-color="#0883e6" stop-opacity="0.24705882"/>
      <stop offset="0.9019607843137255" stop-color="#087bf4" stop-opacity="0.105882354"/>
      <stop offset="1.0" stop-color="#0876fc" stop-opacity="0.0"/>
    </linearGradient>
  </defs>
</svg>
