<?xml version="1.0" encoding="UTF-8" standalone="no"?>
<svg xmlns:ffdec="https://www.free-decompiler.com/flash" xmlns:xlink="http://www.w3.org/1999/xlink" ffdec:objectType="shape" height="29.45px" width="192.85px" xmlns="http://www.w3.org/2000/svg">
  <g transform="matrix(1.0, 0.0, 0.0, 1.0, 1.5, 1.5)">
    <path d="M188.95 3.95 L174.2 22.55 Q172.95 24.15 170.55 25.3 168.15 26.45 166.1 26.45 L2.75 26.45 Q0.7 26.45 0.15 25.35 -0.35 24.2 1.0 22.65 L17.25 3.8 Q18.6 2.25 21.0 1.15 23.45 0.0 25.5 0.0 L187.1 0.0 Q189.15 0.0 189.7 1.15 190.25 2.35 188.95 3.95" fill="#141516" fill-rule="evenodd" stroke="none"/>
    <path d="M188.95 3.95 L174.2 22.55 Q172.95 24.15 170.55 25.3 168.15 26.45 166.1 26.45 L2.75 26.45 Q0.7 26.45 0.15 25.35 -0.35 24.2 1.0 22.65 L17.25 3.8 Q18.6 2.25 21.0 1.15 23.45 0.0 25.5 0.0 L187.1 0.0 Q189.15 0.0 189.7 1.15 190.25 2.35 188.95 3.95 Z" fill="none" stroke="#45454c" stroke-linecap="butt" stroke-linejoin="miter-clip" stroke-miterlimit="4.0" stroke-width="3.0"/>
    <path d="M167.3 22.65 Q167.0 23.0 6.45 22.65 20.75 4.9 21.25 4.9 L183.3 4.9 167.3 22.65" fill="url(#gradient0)" fill-rule="evenodd" stroke="none"/>
    <path d="M157.6 11.65 L165.35 9.1 164.45 18.1 157.45 20.7 157.6 11.65" fill="#b26706" fill-rule="evenodd" stroke="none"/>
    <path d="M149.5 17.85 L148.5 8.8 156.6 11.65 156.45 20.65 149.5 17.85" fill="#c49205" fill-rule="evenodd" stroke="none"/>
    <path d="M164.4 8.35 L157.1 10.75 149.5 8.1 157.2 5.65 164.4 8.35" fill="#c4a806" fill-rule="evenodd" stroke="none"/>
  </g>
  <defs>
    <linearGradient gradientTransform="matrix(-0.108, 0.0, 0.0, 0.108, 94.85, 13.85)" gradientUnits="userSpaceOnUse" id="gradient0" spreadMethod="pad" x1="-819.2" x2="819.2">
      <stop offset="0.0" stop-color="#050d1f"/>
      <stop offset="0.09803921568627451" stop-color="#250916"/>
      <stop offset="0.2196078431372549" stop-color="#45050c"/>
      <stop offset="0.33725490196078434" stop-color="#5b0205"/>
      <stop offset="0.4470588235294118" stop-color="#690101"/>
      <stop offset="0.5411764705882353" stop-color="#6e0000"/>
      <stop offset="0.6352941176470588" stop-color="#6a0001"/>
      <stop offset="0.7215686274509804" stop-color="#5f0205"/>
      <stop offset="0.8117647058823529" stop-color="#4b040a"/>
      <stop offset="0.8980392156862745" stop-color="#300812"/>
      <stop offset="0.984313725490196" stop-color="#0d0c1d"/>
      <stop offset="1.0" stop-color="#050d1f"/>
    </linearGradient>
  </defs>
</svg>
