<?xml version="1.0" encoding="UTF-8" standalone="no"?>
<svg xmlns:ffdec="https://www.free-decompiler.com/flash" xmlns:xlink="http://www.w3.org/1999/xlink" ffdec:objectType="shape" height="26.8px" width="173.85px" xmlns="http://www.w3.org/2000/svg">
  <g transform="matrix(1.0, 0.0, 0.0, 1.0, -8.05, 0.2)">
    <path d="M179.55 4.85 L166.3 21.6 Q165.15 23.0 163.0 24.05 160.85 25.1 159.0 25.1 L12.0 25.1 Q10.15 25.1 9.65 24.1 9.2 23.05 10.4 21.65 L25.05 4.7 Q26.25 3.3 28.4 2.3 30.6 1.3 32.45 1.3 L177.9 1.3 Q179.75 1.3 180.25 2.3 180.75 3.4 179.55 4.85" fill="#141516" fill-rule="evenodd" stroke="none"/>
    <path d="M179.55 4.85 L166.3 21.6 Q165.15 23.0 163.0 24.05 160.85 25.1 159.0 25.1 L12.0 25.1 Q10.15 25.1 9.65 24.1 9.2 23.05 10.4 21.65 L25.05 4.7 Q26.25 3.3 28.4 2.3 30.6 1.3 32.45 1.3 L177.9 1.3 Q179.75 1.3 180.25 2.3 180.75 3.4 179.55 4.85 Z" fill="none" stroke="#45454c" stroke-linecap="butt" stroke-linejoin="miter-clip" stroke-miterlimit="4.0" stroke-width="3.0"/>
    <path d="M160.1 21.65 Q159.8 22.0 15.3 21.65 28.2 5.7 28.65 5.7 L174.5 5.7 160.1 21.65" fill="url(#gradient0)" fill-rule="evenodd" stroke="none"/>
    <path d="M151.35 11.75 L158.35 9.5 157.5 17.6 151.2 19.9 151.35 11.75" fill="#b26706" fill-rule="evenodd" stroke="none"/>
    <path d="M144.05 17.35 L143.15 9.2 150.45 11.75 150.3 19.85 144.05 17.35" fill="#c49205" fill-rule="evenodd" stroke="none"/>
    <path d="M157.5 8.8 L150.9 10.95 144.05 8.6 151.0 6.35 157.5 8.8" fill="#c4a806" fill-rule="evenodd" stroke="none"/>
  </g>
  <defs>
    <linearGradient gradientTransform="matrix(-0.0972, 0.0, 0.0, 0.0972, 94.9, 13.75)" gradientUnits="userSpaceOnUse" id="gradient0" spreadMethod="pad" x1="-819.2" x2="819.2">
      <stop offset="0.0" stop-color="#050d1f"/>
      <stop offset="0.09803921568627451" stop-color="#250916"/>
      <stop offset="0.2196078431372549" stop-color="#45050c"/>
      <stop offset="0.33725490196078434" stop-color="#5b0205"/>
      <stop offset="0.4470588235294118" stop-color="#690101"/>
      <stop offset="0.5411764705882353" stop-color="#6e0000"/>
      <stop offset="0.6352941176470588" stop-color="#6a0001"/>
      <stop offset="0.7215686274509804" stop-color="#5f0205"/>
      <stop offset="0.8117647058823529" stop-color="#4b040a"/>
      <stop offset="0.8980392156862745" stop-color="#300812"/>
      <stop offset="0.984313725490196" stop-color="#0d0c1d"/>
      <stop offset="1.0" stop-color="#050d1f"/>
    </linearGradient>
  </defs>
</svg>
