<?xml version="1.0" encoding="UTF-8" standalone="no"?>
<svg xmlns:ffdec="https://www.free-decompiler.com/flash" xmlns:xlink="http://www.w3.org/1999/xlink" ffdec:objectType="shape" height="19.1px" width="70.85px" xmlns="http://www.w3.org/2000/svg">
  <g transform="matrix(1.0, 0.0, 0.0, 1.0, -3.4, -0.5)">
    <path d="M6.6 1.0 L71.05 1.0 Q72.15 1.0 72.9 1.8 73.75 2.55 73.75 3.7 L73.75 16.3 Q73.75 17.4 72.9 18.2 72.15 19.0 71.05 19.0 L6.6 19.0 Q5.45 19.0 4.7 18.2 3.9 17.4 3.9 16.3 L3.9 3.7 Q3.9 2.55 4.7 1.8 5.45 1.0 6.6 1.0" fill="url(#gradient0)" fill-rule="evenodd" stroke="none"/>
    <path d="M6.6 1.0 L71.05 1.0 Q72.15 1.0 72.95 1.8 73.75 2.6 73.75 3.7 L73.75 16.3 Q73.75 17.45 72.95 18.2 72.15 19.0 71.05 19.0 L6.6 19.0 Q5.5 19.0 4.7 18.2 3.9 17.45 3.9 16.3 L3.9 3.7 Q3.9 2.6 4.7 1.8 5.5 1.0 6.6 1.0 Z" fill="none" stroke="#399cff" stroke-linecap="butt" stroke-linejoin="miter-clip" stroke-miterlimit="4.0" stroke-width="1.0"/>
  </g>
  <defs>
    <linearGradient gradientTransform="matrix(0.0, -0.0115, -0.0115, 0.0, -138.55, 10.45)" gradientUnits="userSpaceOnUse" id="gradient0" spreadMethod="pad" x1="-819.2" x2="819.2">
      <stop offset="0.0" stop-color="#004bc2"/>
      <stop offset="0.7647058823529411" stop-color="#003498"/>
      <stop offset="1.0" stop-color="#0057d9"/>
    </linearGradient>
  </defs>
</svg>
