<?xml version="1.0" encoding="UTF-8" standalone="no"?>
<svg xmlns:ffdec="https://www.free-decompiler.com/flash" xmlns:xlink="http://www.w3.org/1999/xlink" ffdec:objectType="shape" height="20.0px" width="80.6px" xmlns="http://www.w3.org/2000/svg">
  <g transform="matrix(1.0, 0.0, 0.0, 1.0, 1.5, -0.05)">
    <path d="M78.35 3.1 L78.35 17.0 Q78.35 18.0 77.55 18.7 76.75 19.4 75.6 19.4 L2.0 19.4 Q0.85 19.4 0.05 18.7 -0.75 18.0 -0.75 17.0 L-0.75 3.1 Q-0.75 2.1 0.05 1.4 0.85 0.7 2.0 0.7 L75.6 0.7 Q76.75 0.7 77.55 1.4 78.35 2.15 78.35 3.1" fill="url(#gradient0)" fill-rule="evenodd" stroke="none"/>
    <path d="M77.6 3.1 Q77.6 2.4 77.0 1.85 76.45 1.35 75.6 1.35 L2.0 1.35 Q1.2 1.35 0.6 1.85 0.0 2.4 0.0 3.1 L0.0 17.0 Q0.0 17.75 0.6 18.2 1.2 18.75 2.0 18.75 L75.6 18.75 Q76.45 18.75 77.0 18.2 77.6 17.75 77.6 17.0 L77.6 3.1 M75.6 0.05 Q77.05 0.05 78.05 0.9 79.1 1.85 79.1 3.1 L79.1 17.0 Q79.1 18.25 78.05 19.2 77.05 20.05 75.6 20.05 L2.0 20.05 Q0.55 20.05 -0.5 19.2 -1.5 18.25 -1.5 17.0 L-1.5 3.1 Q-1.5 1.85 -0.5 0.9 0.55 0.05 2.0 0.05 L75.6 0.05" fill="#29abe2" fill-rule="evenodd" stroke="none"/>
  </g>
  <defs>
    <linearGradient gradientTransform="matrix(0.0, 0.0116, 0.0133, 0.0, 38.8, 9.6)" gradientUnits="userSpaceOnUse" id="gradient0" spreadMethod="pad" x1="-819.2" x2="819.2">
      <stop offset="0.0" stop-color="#0d63bf"/>
      <stop offset="0.09019607843137255" stop-color="#0d5ac3"/>
      <stop offset="0.24313725490196078" stop-color="#0d4fc7"/>
      <stop offset="1.0" stop-color="#005cff"/>
    </linearGradient>
  </defs>
</svg>
