<?xml version="1.0" encoding="UTF-8" standalone="no"?>
<svg xmlns:ffdec="https://www.free-decompiler.com/flash" xmlns:xlink="http://www.w3.org/1999/xlink" ffdec:objectType="shape" height="19.1px" width="70.85px" xmlns="http://www.w3.org/2000/svg">
  <g transform="matrix(1.0, 0.0, 0.0, 1.0, -3.4, -1.4)">
    <path d="M6.6 1.9 L71.05 1.9 Q72.15 1.9 72.9 2.7 73.75 3.45 73.75 4.6 L73.75 17.2 Q73.75 18.3 72.9 19.1 72.15 19.9 71.05 19.9 L6.6 19.9 Q5.45 19.9 4.7 19.1 3.9 18.3 3.9 17.2 L3.9 4.6 Q3.9 3.45 4.7 2.7 5.45 1.9 6.6 1.9" fill="url(#gradient0)" fill-rule="evenodd" stroke="none"/>
    <path d="M6.6 1.9 L71.05 1.9 Q72.15 1.9 72.95 2.7 73.75 3.5 73.75 4.6 L73.75 17.2 Q73.75 18.35 72.95 19.1 72.15 19.9 71.05 19.9 L6.6 19.9 Q5.5 19.9 4.7 19.1 3.9 18.35 3.9 17.2 L3.9 4.6 Q3.9 3.5 4.7 2.7 5.5 1.9 6.6 1.9 Z" fill="none" stroke="#399cff" stroke-linecap="butt" stroke-linejoin="miter-clip" stroke-miterlimit="4.0" stroke-width="1.0"/>
  </g>
  <defs>
    <linearGradient gradientTransform="matrix(0.0, -0.0115, -0.0115, 0.0, -138.55, 11.35)" gradientUnits="userSpaceOnUse" id="gradient0" spreadMethod="pad" x1="-819.2" x2="819.2">
      <stop offset="0.0" stop-color="#004bc2"/>
      <stop offset="0.7647058823529411" stop-color="#003498"/>
      <stop offset="1.0" stop-color="#0057d9"/>
    </linearGradient>
  </defs>
</svg>
