<?xml version="1.0" encoding="UTF-8" standalone="no"?>
<svg xmlns:ffdec="https://www.free-decompiler.com/flash" xmlns:xlink="http://www.w3.org/1999/xlink" ffdec:objectType="shape" height="15.4px" width="15.4px" xmlns="http://www.w3.org/2000/svg">
  <g transform="matrix(1.0, 0.0, 0.0, 1.0, 0.0, 0.0)">
    <path d="M10.75 7.7 Q10.75 9.0 9.85 9.85 9.0 10.75 7.7 10.75 6.4 10.75 5.5 9.85 4.6 8.95 4.6 7.7 4.6 6.45 5.5 5.55 6.4 4.65 7.7 4.65 9.0 4.65 9.85 5.55 10.75 6.45 10.75 7.7" fill="#ffff00" fill-rule="evenodd" stroke="none"/>
    <path d="M13.15 2.25 Q15.4 4.5 15.4 7.7 15.4 10.9 13.15 13.15 10.9 15.4 7.7 15.4 4.5 15.4 2.25 13.15 0.0 10.9 0.0 7.7 0.0 4.5 2.25 2.25 4.5 0.0 7.7 0.0 10.9 0.0 13.15 2.25 M14.3 7.7 Q14.3 4.95 12.35 3.05 10.45 1.1 7.7 1.1 4.95 1.1 3.05 3.05 1.1 4.95 1.1 7.7 1.1 10.45 3.05 12.35 4.95 14.3 7.7 14.3 10.45 14.3 12.35 12.35 14.3 10.45 14.3 7.7" fill="#03ff00" fill-opacity="0.8" fill-rule="evenodd" stroke="none"/>
    <path d="M14.3 7.7 Q14.3 10.45 12.35 12.35 10.45 14.3 7.7 14.3 4.95 14.3 3.05 12.35 1.1 10.45 1.1 7.7 1.1 4.95 3.05 3.05 4.95 1.1 7.7 1.1 10.45 1.1 12.35 3.05 14.3 4.95 14.3 7.7" fill="#010101" fill-opacity="0.0" fill-rule="evenodd" stroke="none"/>
  </g>
</svg>
