<?xml version="1.0" encoding="UTF-8" standalone="no"?>
<svg xmlns:ffdec="https://www.free-decompiler.com/flash" xmlns:xlink="http://www.w3.org/1999/xlink" ffdec:objectType="shape" height="217.15px" width="321.8px" xmlns="http://www.w3.org/2000/svg">
  <g transform="matrix(1.0, 0.0, 0.0, 1.0, 160.85, 100.65)">
    <path d="M159.95 -86.65 L159.95 112.5 Q159.95 113.75 159.05 114.6 158.2 115.5 156.95 115.5 L-156.85 115.5 Q-158.1 115.5 -158.95 114.6 -159.85 113.75 -159.85 112.5 L-159.85 -96.65 Q-159.85 -97.9 -158.95 -98.75 -158.1 -99.65 -156.85 -99.65 L-107.1 -99.65 -104.25 -99.15 Q-102.65 -98.65 -101.65 -97.95 L-91.95 -91.35 Q-90.9 -90.65 -89.3 -90.15 -87.7 -89.65 -86.45 -89.65 L156.95 -89.65 Q158.2 -89.65 159.05 -88.75 159.95 -87.9 159.95 -86.65" fill="#042d7f" fill-rule="evenodd" stroke="none"/>
    <path d="M159.95 -86.65 L159.95 112.5 Q159.95 113.75 159.05 114.6 158.2 115.5 156.95 115.5 L-156.85 115.5 Q-158.1 115.5 -158.95 114.6 -159.85 113.75 -159.85 112.5 L-159.85 -96.65 Q-159.85 -97.9 -158.95 -98.75 -158.1 -99.65 -156.85 -99.65 L-107.1 -99.65 -104.25 -99.15 Q-102.65 -98.65 -101.65 -97.95 L-91.95 -91.35 Q-90.9 -90.65 -89.3 -90.15 -87.7 -89.65 -86.45 -89.65 L156.95 -89.65 Q158.2 -89.65 159.05 -88.75 159.95 -87.9 159.95 -86.65 Z" fill="none" stroke="#0376ff" stroke-linecap="butt" stroke-linejoin="miter-clip" stroke-miterlimit="4.0" stroke-width="2.0"/>
    <path d="M158.35 113.6 L155.4 113.6 155.4 113.1 157.85 113.1 157.85 -87.55 -90.25 -87.55 -105.35 -97.5 -158.0 -97.5 -158.0 113.1 -154.8 113.1 -154.8 113.6 -158.5 113.6 -158.5 -98.0 -105.3 -98.0 -90.25 -88.05 158.35 -88.05 158.35 113.6" fill="#1456c1" fill-rule="evenodd" stroke="none"/>
    <path d="M151.2 -57.15 L151.2 75.9 Q151.2 77.95 149.75 79.45 148.25 80.9 146.2 80.9 L-146.15 80.9 Q-148.2 80.9 -149.7 79.45 -151.15 77.95 -151.15 75.9 L-151.15 -57.15 Q-151.15 -59.2 -149.7 -60.7 -148.2 -62.15 -146.15 -62.15 L146.2 -62.15 Q148.25 -62.15 149.75 -60.7 151.2 -59.2 151.2 -57.15" fill="#000d38" fill-rule="evenodd" stroke="none"/>
    <path d="M139.1 -97.4 L141.6 -92.65 -88.45 -92.65 -95.25 -97.4 139.1 -97.4" fill="url(#gradient0)" fill-rule="evenodd" stroke="none"/>
    <path d="M139.1 -97.4 L-95.25 -97.4 -88.45 -92.65 141.6 -92.65 139.1 -97.4 Z" fill="none" stroke="#0842b7" stroke-linecap="butt" stroke-linejoin="miter-clip" stroke-miterlimit="4.0" stroke-width="1.0"/>
    <path d="M-150.1 -98.0 L-152.8 -95.35 -158.5 -95.35 -158.5 -98.0 -150.1 -98.0" fill="#0068ff" fill-rule="evenodd" stroke="none"/>
    <path d="M-136.8 -88.8 Q-133.45 -92.15 -128.7 -92.15 -123.95 -92.15 -120.65 -88.8 -117.3 -85.45 -117.3 -80.75 -117.3 -76.0 -120.65 -72.7 -123.95 -69.35 -128.7 -69.35 -133.45 -69.35 -136.8 -72.7 -140.15 -76.05 -140.15 -80.75 -140.15 -85.45 -136.8 -88.8" fill="#043a9b" fill-rule="evenodd" stroke="none"/>
    <path d="M-136.8 -88.8 Q-133.45 -92.15 -128.7 -92.15 -123.95 -92.15 -120.65 -88.8 -117.3 -85.45 -117.3 -80.75 -117.3 -76.0 -120.65 -72.7 -123.95 -69.35 -128.7 -69.35 -133.45 -69.35 -136.8 -72.7 -140.15 -76.05 -140.15 -80.75 -140.15 -85.45 -136.8 -88.8 Z" fill="none" stroke="#4d8dff" stroke-linecap="butt" stroke-linejoin="miter-clip" stroke-miterlimit="4.0" stroke-width="2.0"/>
    <path d="M-129.95 -80.8 L-120.0 -80.8 -120.0 -79.4 -129.95 -79.4 -129.95 -80.8" fill="#527bff" fill-rule="evenodd" stroke="none"/>
    <path d="M-126.25 -85.25 L-128.7 -79.15 -130.05 -79.65 -127.55 -85.75 -126.25 -85.25" fill="#527bff" fill-rule="evenodd" stroke="none"/>
  </g>
  <defs>
    <linearGradient gradientTransform="matrix(0.1446, 0.0, 0.0, -0.1446, 23.2, -95.05)" gradientUnits="userSpaceOnUse" id="gradient0" spreadMethod="pad" x1="-819.2" x2="819.2">
      <stop offset="0.0" stop-color="#1cadff"/>
      <stop offset="1.0" stop-color="#0233b5"/>
    </linearGradient>
  </defs>
</svg>
