<?xml version="1.0" encoding="UTF-8" standalone="no"?>
<svg xmlns:ffdec="https://www.free-decompiler.com/flash" xmlns:xlink="http://www.w3.org/1999/xlink" ffdec:objectType="shape" height="24.0px" width="296.25px" xmlns="http://www.w3.org/2000/svg">
  <g transform="matrix(1.0, 0.0, 0.0, 1.0, 148.3, 57.15)">
    <path d="M147.45 -53.65 L147.45 -36.65 Q147.45 -35.4 146.55 -34.55 145.7 -33.65 144.45 -33.65 L-144.8 -33.65 Q-146.05 -33.65 -146.9 -34.55 -147.8 -35.4 -147.8 -36.65 L-147.8 -53.65 Q-147.8 -54.9 -146.9 -55.75 -146.05 -56.65 -144.8 -56.65 L144.45 -56.65 Q145.7 -56.65 146.55 -55.75 147.45 -54.9 147.45 -53.65" fill="url(#gradient0)" fill-rule="evenodd" stroke="none"/>
    <path d="M147.45 -53.65 L147.45 -36.65 Q147.45 -35.4 146.55 -34.55 145.7 -33.65 144.45 -33.65 L-144.8 -33.65 Q-146.05 -33.65 -146.9 -34.55 -147.8 -35.4 -147.8 -36.65 L-147.8 -53.65 Q-147.8 -54.9 -146.9 -55.75 -146.05 -56.65 -144.8 -56.65 L144.45 -56.65 Q145.7 -56.65 146.55 -55.75 147.45 -54.9 147.45 -53.65 Z" fill="none" stroke="#0569e0" stroke-linecap="butt" stroke-linejoin="miter-clip" stroke-miterlimit="4.0" stroke-width="1.0"/>
  </g>
  <defs>
    <linearGradient gradientTransform="matrix(0.0, -0.014, -0.014, 0.0, -0.2, -45.15)" gradientUnits="userSpaceOnUse" id="gradient0" spreadMethod="pad" x1="-819.2" x2="819.2">
      <stop offset="0.0" stop-color="#05337a"/>
      <stop offset="0.0784313725490196" stop-color="#032768"/>
      <stop offset="0.19215686274509805" stop-color="#021b57"/>
      <stop offset="0.3333333333333333" stop-color="#01134b"/>
      <stop offset="0.5254901960784314" stop-color="#000e44"/>
      <stop offset="1.0" stop-color="#000d42"/>
    </linearGradient>
  </defs>
</svg>
