<?xml version="1.0" encoding="UTF-8" standalone="no"?>
<svg xmlns:ffdec="https://www.free-decompiler.com/flash" xmlns:xlink="http://www.w3.org/1999/xlink" ffdec:objectType="shape" height="105.95px" width="296.25px" xmlns="http://www.w3.org/2000/svg">
  <g transform="matrix(1.0, 0.0, 0.0, 1.0, 148.3, 29.8)">
    <path d="M147.45 -26.3 L147.45 -9.3 Q147.45 -8.05 146.55 -7.2 145.7 -6.3 144.45 -6.3 L-144.8 -6.3 Q-146.05 -6.3 -146.9 -7.2 -147.8 -8.05 -147.8 -9.3 L-147.8 -26.3 Q-147.8 -27.55 -146.9 -28.4 -146.05 -29.3 -144.8 -29.3 L144.45 -29.3 Q145.7 -29.3 146.55 -28.4 147.45 -27.55 147.45 -26.3" fill="url(#gradient0)" fill-rule="evenodd" stroke="none"/>
    <path d="M147.45 -26.3 L147.45 -9.3 Q147.45 -8.05 146.55 -7.2 145.7 -6.3 144.45 -6.3 L-144.8 -6.3 Q-146.05 -6.3 -146.9 -7.2 -147.8 -8.05 -147.8 -9.3 L-147.8 -26.3 Q-147.8 -27.55 -146.9 -28.4 -146.05 -29.3 -144.8 -29.3 L144.45 -29.3 Q145.7 -29.3 146.55 -28.4 147.45 -27.55 147.45 -26.3 Z" fill="none" stroke="#0569e0" stroke-linecap="butt" stroke-linejoin="miter-clip" stroke-miterlimit="4.0" stroke-width="1.0"/>
    <path d="M147.45 1.05 L147.45 18.05 Q147.45 19.3 146.55 20.15 145.7 21.05 144.45 21.05 L-144.8 21.05 Q-146.05 21.05 -146.9 20.15 -147.8 19.3 -147.8 18.05 L-147.8 1.05 Q-147.8 -0.2 -146.9 -1.05 -146.05 -1.95 -144.8 -1.95 L144.45 -1.95 Q145.7 -1.95 146.55 -1.05 147.45 -0.2 147.45 1.05" fill="url(#gradient1)" fill-rule="evenodd" stroke="none"/>
    <path d="M147.45 1.05 L147.45 18.05 Q147.45 19.3 146.55 20.15 145.7 21.05 144.45 21.05 L-144.8 21.05 Q-146.05 21.05 -146.9 20.15 -147.8 19.3 -147.8 18.05 L-147.8 1.05 Q-147.8 -0.2 -146.9 -1.05 -146.05 -1.95 -144.8 -1.95 L144.45 -1.95 Q145.7 -1.95 146.55 -1.05 147.45 -0.2 147.45 1.05 Z" fill="none" stroke="#0569e0" stroke-linecap="butt" stroke-linejoin="miter-clip" stroke-miterlimit="4.0" stroke-width="1.0"/>
    <path d="M147.45 28.4 L147.45 45.4 Q147.45 46.65 146.55 47.5 145.7 48.4 144.45 48.4 L-144.8 48.4 Q-146.05 48.4 -146.9 47.5 -147.8 46.65 -147.8 45.4 L-147.8 28.4 Q-147.8 27.15 -146.9 26.3 -146.05 25.4 -144.8 25.4 L144.45 25.4 Q145.7 25.4 146.55 26.3 147.45 27.15 147.45 28.4" fill="url(#gradient2)" fill-rule="evenodd" stroke="none"/>
    <path d="M147.45 28.4 L147.45 45.4 Q147.45 46.65 146.55 47.5 145.7 48.4 144.45 48.4 L-144.8 48.4 Q-146.05 48.4 -146.9 47.5 -147.8 46.65 -147.8 45.4 L-147.8 28.4 Q-147.8 27.15 -146.9 26.3 -146.05 25.4 -144.8 25.4 L144.45 25.4 Q145.7 25.4 146.55 26.3 147.45 27.15 147.45 28.4 Z" fill="none" stroke="#0569e0" stroke-linecap="butt" stroke-linejoin="miter-clip" stroke-miterlimit="4.0" stroke-width="1.0"/>
    <path d="M147.45 55.65 L147.45 72.65 Q147.45 73.9 146.55 74.75 145.7 75.65 144.45 75.65 L-144.8 75.65 Q-146.05 75.65 -146.9 74.75 -147.8 73.9 -147.8 72.65 L-147.8 55.65 Q-147.8 54.4 -146.9 53.55 -146.05 52.65 -144.8 52.65 L144.45 52.65 Q145.7 52.65 146.55 53.55 147.45 54.4 147.45 55.65" fill="url(#gradient3)" fill-rule="evenodd" stroke="none"/>
    <path d="M147.45 55.65 L147.45 72.65 Q147.45 73.9 146.55 74.75 145.7 75.65 144.45 75.65 L-144.8 75.65 Q-146.05 75.65 -146.9 74.75 -147.8 73.9 -147.8 72.65 L-147.8 55.65 Q-147.8 54.4 -146.9 53.55 -146.05 52.65 -144.8 52.65 L144.45 52.65 Q145.7 52.65 146.55 53.55 147.45 54.4 147.45 55.65 Z" fill="none" stroke="#0569e0" stroke-linecap="butt" stroke-linejoin="miter-clip" stroke-miterlimit="4.0" stroke-width="1.0"/>
  </g>
  <defs>
    <linearGradient gradientTransform="matrix(0.0, -0.014, -0.014, 0.0, -0.2, -17.8)" gradientUnits="userSpaceOnUse" id="gradient0" spreadMethod="pad" x1="-819.2" x2="819.2">
      <stop offset="0.0" stop-color="#05337a"/>
      <stop offset="0.0784313725490196" stop-color="#032768"/>
      <stop offset="0.19215686274509805" stop-color="#021b57"/>
      <stop offset="0.3333333333333333" stop-color="#01134b"/>
      <stop offset="0.5254901960784314" stop-color="#000e44"/>
      <stop offset="1.0" stop-color="#000d42"/>
    </linearGradient>
    <linearGradient gradientTransform="matrix(0.0, -0.014, -0.014, 0.0, -0.2, 9.55)" gradientUnits="userSpaceOnUse" id="gradient1" spreadMethod="pad" x1="-819.2" x2="819.2">
      <stop offset="0.0" stop-color="#05337a"/>
      <stop offset="0.0784313725490196" stop-color="#032768"/>
      <stop offset="0.19215686274509805" stop-color="#021b57"/>
      <stop offset="0.3333333333333333" stop-color="#01134b"/>
      <stop offset="0.5254901960784314" stop-color="#000e44"/>
      <stop offset="1.0" stop-color="#000d42"/>
    </linearGradient>
    <linearGradient gradientTransform="matrix(0.0, -0.014, -0.014, 0.0, -0.2, 36.9)" gradientUnits="userSpaceOnUse" id="gradient2" spreadMethod="pad" x1="-819.2" x2="819.2">
      <stop offset="0.0" stop-color="#05337a"/>
      <stop offset="0.0784313725490196" stop-color="#032768"/>
      <stop offset="0.19215686274509805" stop-color="#021b57"/>
      <stop offset="0.3333333333333333" stop-color="#01134b"/>
      <stop offset="0.5254901960784314" stop-color="#000e44"/>
      <stop offset="1.0" stop-color="#000d42"/>
    </linearGradient>
    <linearGradient gradientTransform="matrix(0.0, -0.014, -0.014, 0.0, -0.2, 64.15)" gradientUnits="userSpaceOnUse" id="gradient3" spreadMethod="pad" x1="-819.2" x2="819.2">
      <stop offset="0.0" stop-color="#05337a"/>
      <stop offset="0.0784313725490196" stop-color="#032768"/>
      <stop offset="0.19215686274509805" stop-color="#021b57"/>
      <stop offset="0.3333333333333333" stop-color="#01134b"/>
      <stop offset="0.5254901960784314" stop-color="#000e44"/>
      <stop offset="1.0" stop-color="#000d42"/>
    </linearGradient>
  </defs>
</svg>
