<?xml version="1.0" encoding="UTF-8" standalone="no"?>
<svg xmlns:ffdec="https://www.free-decompiler.com/flash" xmlns:xlink="http://www.w3.org/1999/xlink" ffdec:objectType="shape" height="40.0px" width="6.25px" xmlns="http://www.w3.org/2000/svg">
  <g transform="matrix(1.0, 0.0, 0.0, 1.0, 0.0, 0.0)">
    <path d="M4.15 1.15 Q3.2 2.7 2.55 7.9 1.9 13.25 1.9 20.0 1.9 26.75 2.55 32.1 3.2 37.3 4.15 38.85 L4.25 38.95 Q4.85 39.95 6.25 40.0 L4.45 40.0 Q3.05 40.0 2.3 38.95 L2.25 38.9 2.25 38.85 Q1.25 37.35 0.65 32.1 0.0 26.8 0.0 20.0 0.0 13.2 0.65 7.9 1.25 2.65 2.25 1.15 L2.3 1.05 Q3.05 0.0 4.45 0.0 L6.25 0.0 Q4.85 0.05 4.25 1.05 L4.2 1.15 4.15 1.15" fill="url(#gradient0)" fill-rule="evenodd" stroke="none"/>
  </g>
  <defs>
    <linearGradient gradientTransform="matrix(0.0, 0.0244, -0.0244, 0.0, 3.2, 20.0)" gradientUnits="userSpaceOnUse" id="gradient0" spreadMethod="pad" x1="-819.2" x2="819.2">
      <stop offset="0.0" stop-color="#ffffff" stop-opacity="0.047058824"/>
      <stop offset="0.9176470588235294" stop-color="#ffffff" stop-opacity="0.5176471"/>
      <stop offset="0.9882352941176471" stop-color="#ffffff" stop-opacity="0.60784316"/>
    </linearGradient>
  </defs>
</svg>
