<?xml version="1.0" encoding="UTF-8" standalone="no"?>
<svg xmlns:ffdec="https://www.free-decompiler.com/flash" xmlns:xlink="http://www.w3.org/1999/xlink" ffdec:objectType="shape" height="41.3px" width="53.05px" xmlns="http://www.w3.org/2000/svg">
  <g transform="matrix(1.0, 0.0, 0.0, 1.0, -444.7, -14.6)">
    <path d="M454.25 15.0 L464.85 15.45 477.6 15.45 488.2 15.0 Q488.7 14.6 490.5 14.6 L494.35 15.0 494.85 15.7 494.9 15.75 494.95 15.75 Q496.15 17.35 496.95 22.75 497.75 28.25 497.75 35.25 497.75 42.25 496.95 47.75 496.15 53.15 494.95 54.75 L494.9 54.75 494.85 54.8 494.3 55.5 491.05 55.9 Q489.85 55.9 489.2 55.45 L478.6 55.05 465.8 55.05 455.2 55.45 452.4 55.9 448.1 55.5 447.6 54.8 447.5 54.75 Q446.3 53.15 445.5 47.75 444.7 42.25 444.7 35.25 444.7 28.25 445.5 22.75 446.3 17.35 447.5 15.75 L447.6 15.7 448.1 15.0 451.95 14.6 Q453.75 14.6 454.25 15.0" fill="url(#gradient0)" fill-rule="evenodd" stroke="none"/>
  </g>
  <defs>
    <linearGradient gradientTransform="matrix(0.0, -0.0252, -0.0252, 0.0, 471.2, 35.25)" gradientUnits="userSpaceOnUse" id="gradient0" spreadMethod="pad" x1="-819.2" x2="819.2">
      <stop offset="0.0" stop-color="#505050"/>
      <stop offset="0.12549019607843137" stop-color="#282828"/>
      <stop offset="0.49411764705882355" stop-color="#7f7f7f"/>
      <stop offset="0.7803921568627451" stop-color="#a4a4a4"/>
      <stop offset="1.0" stop-color="#373737"/>
    </linearGradient>
  </defs>
</svg>
