<?xml version="1.0" encoding="UTF-8" standalone="no"?>
<svg xmlns:ffdec="https://www.free-decompiler.com/flash" xmlns:xlink="http://www.w3.org/1999/xlink" ffdec:objectType="shape" height="40.0px" width="6.2px" xmlns="http://www.w3.org/2000/svg">
  <g transform="matrix(1.0, 0.0, 0.0, 1.0, -0.15, 0.0)">
    <path d="M4.1 1.15 Q5.1 2.65 5.7 7.9 6.35 13.2 6.35 20.0 6.35 26.8 5.7 32.1 5.1 37.35 4.1 38.85 L4.1 38.9 4.05 38.95 Q3.3 40.0 1.9 40.0 L0.15 40.0 Q1.5 39.95 2.1 38.95 L2.15 38.9 2.15 38.85 Q3.15 37.35 3.75 32.1 4.4 26.8 4.4 20.0 4.4 13.2 3.75 7.9 3.15 2.65 2.15 1.15 L2.1 1.05 Q1.5 0.05 0.15 0.0 L1.9 0.0 Q3.35 0.0 4.0 1.05 L4.1 1.15" fill="url(#gradient0)" fill-rule="evenodd" stroke="none"/>
  </g>
  <defs>
    <linearGradient gradientTransform="matrix(0.0, -0.0244, -0.0244, 0.0, 3.15, 20.0)" gradientUnits="userSpaceOnUse" id="gradient0" spreadMethod="pad" x1="-819.2" x2="819.2">
      <stop offset="0.0" stop-color="#ffffff" stop-opacity="0.047058824"/>
      <stop offset="0.9176470588235294" stop-color="#ffffff" stop-opacity="0.5176471"/>
      <stop offset="0.9882352941176471" stop-color="#ffffff" stop-opacity="0.60784316"/>
    </linearGradient>
  </defs>
</svg>
