<?xml version="1.0" encoding="UTF-8" standalone="no"?>
<svg xmlns:ffdec="https://www.free-decompiler.com/flash" xmlns:xlink="http://www.w3.org/1999/xlink" ffdec:objectType="shape" height="65.1px" width="440.25px" xmlns="http://www.w3.org/2000/svg">
  <g transform="matrix(1.0, 0.0, 0.0, 1.0, -46.15, -1.5)">
    <path d="M352.95 66.6 L260.5 66.6 260.5 3.2 335.05 3.2 338.65 1.5 352.95 1.5 352.95 66.6" fill="url(#gradient0)" fill-rule="evenodd" stroke="none"/>
    <path d="M205.0 66.6 L61.5 66.6 56.85 66.0 Q54.4 65.4 53.1 64.2 46.15 58.05 46.15 34.05 46.15 17.9 48.6 10.6 49.85 6.9 52.55 4.6 53.9 3.5 56.5 2.55 59.3 1.5 61.5 1.5 L179.95 1.5 183.3 3.2 205.0 3.2 205.0 66.6" fill="url(#gradient1)" fill-rule="evenodd" stroke="none"/>
    <path d="M260.5 66.6 L205.0 66.6 205.0 3.2 260.5 3.2 260.5 66.6" fill="url(#gradient2)" fill-rule="evenodd" stroke="none"/>
    <path d="M417.95 1.5 L471.1 1.5 475.7 2.1 Q478.0 2.75 479.5 3.9 481.9 5.65 483.5 10.25 486.4 18.4 486.4 34.05 486.4 48.95 484.1 57.15 482.4 63.15 479.75 64.9 477.95 66.05 475.2 66.4 L471.1 66.6 417.95 66.6 417.95 1.5" fill="url(#gradient3)" fill-rule="evenodd" stroke="none"/>
    <path d="M417.95 1.5 L417.95 66.6 352.95 66.6 352.95 1.5 417.95 1.5" fill="url(#gradient4)" fill-rule="evenodd" stroke="none"/>
    <path d="M473.95 10.5 Q475.4 12.0 475.4 14.05 L475.4 56.05 Q475.4 58.1 473.95 59.6 472.45 61.05 470.4 61.05 L61.45 61.05 Q59.4 61.05 57.9 59.6 56.45 58.1 56.45 56.05 L56.45 14.05 Q56.45 12.0 57.9 10.5 59.4 9.05 61.45 9.05 L470.4 9.05 Q472.45 9.05 473.95 10.5" fill="#333333" fill-rule="evenodd" stroke="none"/>
    <path d="M470.0 12.9 Q471.5 14.0 471.5 15.55 L471.5 54.5 Q471.5 56.05 470.0 57.2 468.55 58.3 466.45 58.3 L64.95 58.3 Q62.8 58.3 61.35 57.2 59.85 56.05 59.85 54.5 L59.85 15.55 Q59.85 14.0 61.35 12.9 62.85 11.8 64.95 11.8 L466.45 11.8 Q468.5 11.8 470.0 12.9" fill="#010121" fill-rule="evenodd" stroke="none"/>
    <path d="M470.0 12.9 Q471.5 14.0 471.5 15.55 L471.5 54.5 Q471.5 56.05 470.0 57.2 468.55 58.3 466.45 58.3 L64.95 58.3 Q62.8 58.3 61.35 57.2 59.85 56.05 59.85 54.5 L59.85 15.55 Q59.85 14.0 61.35 12.9 62.85 11.8 64.95 11.8 L466.45 11.8 Q468.5 11.8 470.0 12.9 Z" fill="none" stroke="#3d3d3d" stroke-linecap="butt" stroke-linejoin="miter-clip" stroke-miterlimit="4.0" stroke-width="1.0"/>
  </g>
  <defs>
    <linearGradient gradientTransform="matrix(0.0, -0.0397, -0.0397, 0.0, 274.55, 34.05)" gradientUnits="userSpaceOnUse" id="gradient0" spreadMethod="pad" x1="-819.2" x2="819.2">
      <stop offset="0.0" stop-color="#505050"/>
      <stop offset="0.10980392156862745" stop-color="#282828"/>
      <stop offset="0.9058823529411765" stop-color="#a4a4a4"/>
      <stop offset="1.0" stop-color="#373737"/>
    </linearGradient>
    <linearGradient gradientTransform="matrix(0.0, -0.0397, -0.0397, 0.0, 241.55, 34.05)" gradientUnits="userSpaceOnUse" id="gradient1" spreadMethod="pad" x1="-819.2" x2="819.2">
      <stop offset="0.0" stop-color="#505050"/>
      <stop offset="0.10980392156862745" stop-color="#282828"/>
      <stop offset="0.9058823529411765" stop-color="#a4a4a4"/>
      <stop offset="1.0" stop-color="#373737"/>
    </linearGradient>
    <linearGradient gradientTransform="matrix(0.0, -0.0397, -0.1335, 0.0, 327.95, 34.05)" gradientUnits="userSpaceOnUse" id="gradient2" spreadMethod="pad" x1="-819.2" x2="819.2">
      <stop offset="0.0" stop-color="#505050"/>
      <stop offset="0.10980392156862745" stop-color="#282828"/>
      <stop offset="0.9058823529411765" stop-color="#a4a4a4"/>
      <stop offset="1.0" stop-color="#373737"/>
    </linearGradient>
    <linearGradient gradientTransform="matrix(0.0, -0.0397, -0.0397, 0.0, 291.05, 34.05)" gradientUnits="userSpaceOnUse" id="gradient3" spreadMethod="pad" x1="-819.2" x2="819.2">
      <stop offset="0.0" stop-color="#505050"/>
      <stop offset="0.10980392156862745" stop-color="#282828"/>
      <stop offset="0.9058823529411765" stop-color="#a4a4a4"/>
      <stop offset="1.0" stop-color="#373737"/>
    </linearGradient>
    <linearGradient gradientTransform="matrix(0.0, -0.0397, -0.0697, 0.0, 215.25, 34.05)" gradientUnits="userSpaceOnUse" id="gradient4" spreadMethod="pad" x1="-819.2" x2="819.2">
      <stop offset="0.0" stop-color="#505050"/>
      <stop offset="0.10980392156862745" stop-color="#282828"/>
      <stop offset="0.9058823529411765" stop-color="#a4a4a4"/>
      <stop offset="1.0" stop-color="#373737"/>
    </linearGradient>
  </defs>
</svg>
