<?xml version="1.0" encoding="UTF-8" standalone="no"?>
<svg xmlns:ffdec="https://www.free-decompiler.com/flash" xmlns:xlink="http://www.w3.org/1999/xlink" ffdec:objectType="shape" height="40.4px" width="79.3px" xmlns="http://www.w3.org/2000/svg">
  <g transform="matrix(1.0, 0.0, 0.0, 1.0, 0.0, 0.0)">
    <path d="M78.75 5.3 L78.75 35.1 Q78.75 37.1 77.1 38.55 75.4 39.95 73.1 39.95 L6.2 39.95 Q3.9 39.95 2.2 38.55 0.6 37.1 0.6 35.1 L0.6 5.3 Q0.6 3.35 2.2 1.9 3.9 0.5 6.2 0.5 L73.1 0.5 Q75.4 0.5 77.1 1.9 78.75 3.35 78.75 5.3" fill="url(#gradient0)" fill-rule="evenodd" stroke="none"/>
    <path d="M73.1 0.0 Q75.6 0.0 77.5 1.55 79.3 3.15 79.3 5.3 L79.3 35.1 Q79.3 37.25 77.5 38.85 75.6 40.4 73.1 40.4 L6.2 40.4 Q3.65 40.4 1.8 38.85 0.0 37.25 0.0 35.1 L0.0 5.3 Q0.0 3.15 1.8 1.55 3.65 0.0 6.2 0.0 L73.1 0.0 M78.15 5.3 Q78.15 3.5 76.7 2.2 75.15 0.95 73.1 0.95 L6.2 0.95 Q4.1 0.95 2.6 2.2 1.15 3.5 1.15 5.3 L1.15 35.1 Q1.15 36.9 2.6 38.2 4.1 39.45 6.2 39.45 L73.1 39.45 Q75.15 39.45 76.7 38.2 78.15 36.9 78.15 35.1 L78.15 5.3" fill="#7ecafc" fill-rule="evenodd" stroke="none"/>
  </g>
  <defs>
    <radialGradient cx="0" cy="0" gradientTransform="matrix(0.0698, 0.0, 0.0, -0.0287, 39.65, 34.3)" gradientUnits="userSpaceOnUse" id="gradient0" r="819.2" spreadMethod="pad">
      <stop offset="0.0" stop-color="#3399cc"/>
      <stop offset="0.14901960784313725" stop-color="#3293d0"/>
      <stop offset="0.34901960784313724" stop-color="#3082db"/>
      <stop offset="0.5764705882352941" stop-color="#2c66ee"/>
      <stop offset="0.7411764705882353" stop-color="#294dff"/>
      <stop offset="0.7568627450980392" stop-color="#274bfb"/>
      <stop offset="0.9137254901960784" stop-color="#143ddb"/>
      <stop offset="1.0" stop-color="#0d38cf"/>
    </radialGradient>
  </defs>
</svg>
