<?xml version="1.0" encoding="UTF-8" standalone="no"?>
<svg xmlns:ffdec="https://www.free-decompiler.com/flash" xmlns:xlink="http://www.w3.org/1999/xlink" ffdec:objectType="shape" height="41.9px" width="80.3px" xmlns="http://www.w3.org/2000/svg">
  <g transform="matrix(1.0, 0.0, 0.0, 1.0, 0.5, 0.5)">
    <path d="M79.3 5.0 L79.3 35.9 Q79.3 37.95 77.6 39.45 75.9 40.9 73.55 40.9 L5.7 40.9 Q3.35 40.9 1.65 39.45 0.0 37.95 0.0 35.9 L0.0 5.0 Q0.0 2.95 1.65 1.45 3.35 0.0 5.7 0.0 L73.55 0.0 Q75.9 0.0 77.6 1.45 79.3 2.95 79.3 5.0" fill="#02184c" fill-rule="evenodd" stroke="none"/>
    <path d="M5.7 0.0 L73.55 0.0 Q75.9 0.0 77.6 1.45 79.3 2.95 79.3 5.0 L79.3 35.9 Q79.3 37.95 77.6 39.45 75.9 40.9 73.55 40.9 L5.7 40.9 Q3.35 40.9 1.65 39.45 0.0 37.95 0.0 35.9 L0.0 5.0 Q0.0 2.95 1.65 1.45 3.35 0.0 5.7 0.0 Z" fill="none" stroke="#088aff" stroke-linecap="butt" stroke-linejoin="miter-clip" stroke-miterlimit="4.0" stroke-width="1.0"/>
  </g>
</svg>
