<?xml version="1.0" encoding="UTF-8" standalone="no"?>
<svg xmlns:ffdec="https://www.free-decompiler.com/flash" xmlns:xlink="http://www.w3.org/1999/xlink" ffdec:objectType="shape" height="23.15px" width="285.0px" xmlns="http://www.w3.org/2000/svg">
  <g transform="matrix(1.0, 0.0, 0.0, 1.0, 0.0, 0.0)">
    <path d="M127.25 16.05 Q127.25 16.9 126.85 17.85 126.45 18.85 125.85 19.45 L123.65 21.75 122.1 22.75 120.25 23.15 2.0 23.15 Q1.2 23.15 0.6 22.55 0.0 22.0 0.0 21.15 L0.0 6.05 Q0.0 5.25 0.4 4.2 0.85 3.2 1.4 2.6 L2.6 1.4 4.2 0.4 6.0 0.0 125.25 0.0 Q126.1 0.0 126.65 0.6 127.25 1.2 127.25 2.0 L127.25 16.05" fill="url(#gradient0)" fill-rule="evenodd" stroke="none"/>
    <path d="M123.25 15.05 Q123.25 16.05 122.55 16.75 L118.95 20.45 Q118.35 21.15 117.25 21.15 L25.0 21.15 24.3 20.85 Q24.0 20.55 24.0 20.15 L24.0 7.05 Q24.0 6.1 24.7 5.3 L27.3 2.7 Q28.0 2.0 29.0 2.0 L122.25 2.0 Q122.65 2.0 122.95 2.3 L123.25 3.0 123.25 15.05" fill="url(#gradient1)" fill-rule="evenodd" stroke="none"/>
    <path d="M284.3 15.05 Q284.3 16.05 283.6 16.75 L280.0 20.45 Q279.3 21.15 278.3 21.15 L186.05 21.15 Q185.65 21.15 185.35 20.85 185.05 20.55 185.05 20.15 L185.05 7.05 Q185.05 6.1 185.75 5.3 L188.35 2.7 Q189.05 2.0 190.05 2.0 L283.3 2.0 Q283.7 2.0 284.0 2.3 L284.3 3.0 284.3 15.05" fill="url(#gradient2)" fill-rule="evenodd" stroke="none"/>
    <path d="M284.3 15.05 Q284.3 16.05 283.6 16.75 L280.0 20.45 Q279.3 21.15 278.3 21.15 L186.05 21.15 Q185.65 21.15 185.35 20.85 185.05 20.55 185.05 20.15 L185.05 7.05 Q185.05 6.1 185.75 5.3 L188.35 2.7 Q189.05 2.0 190.05 2.0 L283.3 2.0 Q283.7 2.0 284.0 2.3 L284.3 3.0 284.3 15.05 Z" fill="none" stroke="#1a75bb" stroke-linecap="butt" stroke-linejoin="miter-clip" stroke-miterlimit="4.0" stroke-width="1.0"/>
    <path d="M155.4 11.75 L151.8 16.65 147.75 16.65 151.65 11.7 147.75 6.6 151.45 6.5 155.4 11.75" fill="#3bdbff" fill-rule="evenodd" stroke="none"/>
    <path d="M149.8 11.75 L146.2 16.65 142.2 16.65 146.1 11.7 142.2 6.6 145.85 6.5 149.8 11.75" fill="#00bdff" fill-rule="evenodd" stroke="none"/>
    <path d="M144.55 11.75 L140.95 16.65 136.95 16.65 140.8 11.7 136.95 6.6 140.6 6.5 144.55 11.75" fill="#00a6ff" fill-rule="evenodd" stroke="none"/>
  </g>
  <defs>
    <linearGradient gradientTransform="matrix(0.0, -0.0141, -0.0141, 0.0, 63.65, 11.6)" gradientUnits="userSpaceOnUse" id="gradient0" spreadMethod="pad" x1="-819.2" x2="819.2">
      <stop offset="0.0" stop-color="#003680"/>
      <stop offset="0.3137254901960784" stop-color="#004290"/>
      <stop offset="0.9176470588235294" stop-color="#0062b8"/>
      <stop offset="1.0" stop-color="#00c4ff"/>
    </linearGradient>
    <linearGradient gradientTransform="matrix(0.0606, 0.0, 0.0, -0.0606, 73.65, 11.6)" gradientUnits="userSpaceOnUse" id="gradient1" spreadMethod="pad" x1="-819.2" x2="819.2">
      <stop offset="0.0" stop-color="#001440"/>
      <stop offset="0.1607843137254902" stop-color="#002051"/>
      <stop offset="0.3764705882352941" stop-color="#002c63"/>
      <stop offset="0.5333333333333333" stop-color="#003069"/>
      <stop offset="0.6745098039215687" stop-color="#002b62"/>
      <stop offset="0.8901960784313725" stop-color="#001d4d"/>
      <stop offset="1.0" stop-color="#001440"/>
    </linearGradient>
    <linearGradient gradientTransform="matrix(0.0606, 0.0, 0.0, -0.0606, 234.7, 11.6)" gradientUnits="userSpaceOnUse" id="gradient2" spreadMethod="pad" x1="-819.2" x2="819.2">
      <stop offset="0.0" stop-color="#001440"/>
      <stop offset="0.1607843137254902" stop-color="#002051"/>
      <stop offset="0.3764705882352941" stop-color="#002c63"/>
      <stop offset="0.5333333333333333" stop-color="#003069"/>
      <stop offset="0.6745098039215687" stop-color="#002b62"/>
      <stop offset="0.8901960784313725" stop-color="#001d4d"/>
      <stop offset="1.0" stop-color="#001440"/>
    </linearGradient>
  </defs>
</svg>
