<?xml version="1.0" encoding="UTF-8" standalone="no"?>
<svg xmlns:ffdec="https://www.free-decompiler.com/flash" xmlns:xlink="http://www.w3.org/1999/xlink" ffdec:objectType="shape" height="107.55px" width="157.55px" xmlns="http://www.w3.org/2000/svg">
  <g transform="matrix(1.0, 0.0, 0.0, 1.0, 0.5, 0.5)">
    <path d="M156.2 107.05 L0.0 107.05 0.0 18.0 156.2 18.0 156.2 107.05" fill="#01071d" fill-rule="evenodd" stroke="none"/>
    <path d="M3.0 18.0 Q1.75 18.0 0.9 17.1 0.0 16.25 0.0 15.0 L0.0 3.0 Q0.0 1.75 0.9 0.9 1.75 0.0 3.0 0.0 L137.95 0.0 Q139.2 0.0 140.65 0.65 142.15 1.3 143.0 2.2 L155.7 15.8 Q156.55 16.7 156.3 17.35 156.0 18.0 154.75 18.0 L3.0 18.0" fill="#03428e" fill-rule="evenodd" stroke="none"/>
    <path d="M3.0 18.0 L154.75 18.0 Q156.0 18.0 156.3 17.35 156.55 16.7 155.7 15.8 L143.0 2.2 Q142.15 1.3 140.65 0.65 139.2 0.0 137.95 0.0 L3.0 0.0 Q1.75 0.0 0.9 0.9 0.0 1.75 0.0 3.0 L0.0 15.0 Q0.0 16.25 0.9 17.1 1.75 18.0 3.0 18.0 Z" fill="none" stroke="#025fce" stroke-linecap="butt" stroke-linejoin="miter-clip" stroke-miterlimit="4.0" stroke-width="1.0"/>
  </g>
</svg>
