<?xml version="1.0" encoding="UTF-8" standalone="no"?>
<svg xmlns:ffdec="https://www.free-decompiler.com/flash" xmlns:xlink="http://www.w3.org/1999/xlink" ffdec:objectType="shape" height="51.4px" width="193.8px" xmlns="http://www.w3.org/2000/svg">
  <g transform="matrix(1.0, 0.0, 0.0, 1.0, -11.8, 159.35)">
    <path d="M48.1 -156.65 Q49.5 -157.35 50.75 -157.35 L200.6 -157.35 Q201.85 -157.35 202.7 -156.45 203.6 -155.6 203.6 -154.35 L203.6 -112.95 Q203.6 -111.7 202.7 -110.85 201.85 -109.95 200.6 -109.95 L15.5 -109.95 Q14.25 -109.95 13.9 -110.65 13.55 -111.35 14.25 -112.35 L45.95 -154.95 Q46.7 -155.95 48.1 -156.65" fill="#042775" fill-rule="evenodd" stroke="none"/>
    <path d="M47.25 -158.4 Q49.05 -159.35 50.75 -159.35 L200.6 -159.35 Q202.65 -159.35 204.15 -157.9 205.6 -156.4 205.6 -154.35 L205.6 -112.95 Q205.6 -110.9 204.15 -109.4 202.65 -107.95 200.6 -107.95 L15.5 -107.95 Q13.05 -107.95 12.1 -109.8 11.25 -111.6 12.65 -113.55 L44.35 -156.15 Q45.4 -157.5 47.25 -158.4 M48.1 -156.65 Q46.7 -155.95 45.95 -154.95 L14.25 -112.35 Q13.55 -111.35 13.9 -110.65 14.25 -109.95 15.5 -109.95 L200.6 -109.95 Q201.85 -109.95 202.7 -110.85 203.6 -111.7 203.6 -112.95 L203.6 -154.35 Q203.6 -155.6 202.7 -156.45 201.85 -157.35 200.6 -157.35 L50.75 -157.35 Q49.5 -157.35 48.1 -156.65" fill="#075aed" fill-rule="evenodd" stroke="none"/>
  </g>
</svg>
