<?xml version="1.0" encoding="UTF-8" standalone="no"?>
<svg xmlns:ffdec="https://www.free-decompiler.com/flash" xmlns:xlink="http://www.w3.org/1999/xlink" ffdec:objectType="shape" height="51.4px" width="193.8px" xmlns="http://www.w3.org/2000/svg">
  <g transform="matrix(1.0, 0.0, 0.0, 1.0, 207.2, 159.35)">
    <path d="M-204.3 -156.45 Q-205.2 -155.6 -205.2 -154.35 L-205.2 -112.95 Q-205.2 -111.7 -204.3 -110.85 -203.45 -109.95 -202.2 -109.95 L-17.1 -109.95 Q-15.85 -109.95 -15.5 -110.65 -15.15 -111.35 -15.85 -112.35 L-47.55 -154.95 Q-48.3 -155.95 -49.7 -156.65 -51.1 -157.35 -52.35 -157.35 L-202.2 -157.35 Q-203.45 -157.35 -204.3 -156.45 M-207.2 -154.35 Q-207.2 -156.4 -205.75 -157.9 -204.25 -159.35 -202.2 -159.35 L-52.35 -159.35 Q-50.65 -159.35 -48.85 -158.4 -47.0 -157.5 -45.95 -156.15 L-14.25 -113.55 Q-12.85 -111.6 -13.7 -109.8 -14.65 -107.95 -17.1 -107.95 L-202.2 -107.95 Q-204.25 -107.95 -205.75 -109.4 -207.2 -110.9 -207.2 -112.95 L-207.2 -154.35" fill="#075aed" fill-rule="evenodd" stroke="none"/>
    <path d="M-204.3 -156.45 Q-203.45 -157.35 -202.2 -157.35 L-52.35 -157.35 Q-51.1 -157.35 -49.7 -156.65 -48.3 -155.95 -47.55 -154.95 L-15.85 -112.35 Q-15.15 -111.35 -15.5 -110.65 -15.85 -109.95 -17.1 -109.95 L-202.2 -109.95 Q-203.45 -109.95 -204.3 -110.85 -205.2 -111.7 -205.2 -112.95 L-205.2 -154.35 Q-205.2 -155.6 -204.3 -156.45" fill="#042775" fill-rule="evenodd" stroke="none"/>
  </g>
</svg>
