<?xml version="1.0" encoding="UTF-8" standalone="no"?>
<svg xmlns:ffdec="https://www.free-decompiler.com/flash" xmlns:xlink="http://www.w3.org/1999/xlink" ffdec:objectType="shape" height="86.0px" width="76.3px" xmlns="http://www.w3.org/2000/svg">
  <g transform="matrix(1.0, 0.0, 0.0, 1.0, 267.85, 176.8)">
    <path d="M-226.15 -176.8 L-226.15 -174.25 -226.05 -174.25 -226.1 -170.35 Q-235.3 -170.05 -243.25 -165.45 -251.5 -160.75 -256.35 -152.55 -261.2 -144.35 -261.4 -134.85 -261.65 -125.65 -257.5 -117.4 L-260.9 -115.5 -260.95 -115.6 -263.15 -114.35 Q-268.1 -124.05 -267.85 -134.9 -267.65 -146.15 -261.9 -155.8 -256.15 -165.5 -246.4 -171.1 -237.0 -176.5 -226.15 -176.8" fill="#056be5" fill-rule="evenodd" stroke="none"/>
    <path d="M-246.9 -96.85 Q-255.3 -101.9 -260.7 -110.1 L-258.5 -111.35 -258.6 -111.5 -255.2 -113.45 Q-250.7 -106.6 -243.6 -102.4 -234.1 -96.7 -223.05 -97.35 -212.3 -97.95 -203.55 -104.3 L-193.9 -104.3 Q-204.1 -93.5 -218.85 -91.3 -233.85 -89.1 -246.9 -96.85" fill="#0559d3" fill-rule="evenodd" stroke="none"/>
    <path d="M-206.35 -165.3 Q-213.45 -169.5 -221.5 -170.2 L-221.45 -174.1 -221.25 -174.1 -221.25 -176.65 Q-211.55 -175.85 -203.05 -170.85 -196.4 -166.9 -191.55 -160.8 L-200.3 -160.8 Q-203.1 -163.4 -206.35 -165.3" fill="#0559d3" fill-rule="evenodd" stroke="none"/>
  </g>
</svg>
