<?xml version="1.0" encoding="UTF-8" standalone="no"?>
<svg xmlns:ffdec="https://www.free-decompiler.com/flash" xmlns:xlink="http://www.w3.org/1999/xlink" ffdec:objectType="shape" height="20.45px" width="101.35px" xmlns="http://www.w3.org/2000/svg">
  <g transform="matrix(1.0, 0.0, 0.0, 1.0, 0.0, 0.5)">
    <path d="M12.95 4.45 L14.75 5.95 14.4 6.4 13.05 5.8 12.95 4.45" fill="#ffd705" fill-rule="evenodd" stroke="none"/>
    <path d="M12.85 10.95 L13.0 9.55 14.35 9.05 14.7 9.45 12.85 10.95" fill="#ffd905" fill-rule="evenodd" stroke="none"/>
    <path d="M0.35 11.1 L1.4 9.4 3.35 9.4 0.35 11.1" fill="#ffd705" fill-rule="evenodd" stroke="none"/>
    <path d="M0.45 3.85 L3.4 5.6 1.45 5.6 0.45 3.85" fill="#ffd705" fill-rule="evenodd" stroke="none"/>
    <path d="M19.2 6.5 Q20.0 6.55 20.6 6.95 21.15 7.3 21.15 7.85 21.1 8.4 20.55 8.75 L19.15 9.1 18.3 9.6 15.15 9.55 14.55 8.75 14.05 8.75 12.8 9.25 6.15 9.15 4.85 9.85 3.2 9.85 3.95 9.2 1.25 9.2 1.3 5.8 4.0 5.8 3.35 5.25 4.95 5.25 6.2 6.05 12.8 6.15 14.1 6.7 14.55 6.75 15.2 5.95 18.35 6.0 19.2 6.5" fill="#d88603" fill-rule="evenodd" stroke="none"/>
    <path d="M1.5 6.4 L6.1 6.45 6.05 8.75 1.5 8.7 1.5 6.4" fill="#ffd705" fill-rule="evenodd" stroke="none"/>
    <path d="M0.0 7.3 L3.35 7.35 3.35 7.75 0.0 7.7 0.0 7.3" fill="#ffff05" fill-rule="evenodd" stroke="none"/>
    <path d="M3.15 7.35 L6.1 7.4 6.1 7.75 3.15 7.75 3.15 7.35" fill="#ffd705" fill-rule="evenodd" stroke="none"/>
    <path d="M12.5 7.5 L14.5 7.5 14.5 7.9 12.5 7.85 12.5 7.5" fill="#ffd905" fill-rule="evenodd" stroke="none"/>
    <path d="M15.2 6.95 L18.2 7.0 18.2 8.55 15.2 8.5 15.2 6.95" fill="#ffd705" fill-rule="evenodd" stroke="none"/>
    <path d="M6.5 6.85 L12.05 6.9 12.0 8.5 6.5 8.4 6.5 6.85" fill="#ffd705" fill-rule="evenodd" stroke="none"/>
    <path d="M20.55 7.25 Q20.9 7.25 20.9 7.6 20.9 8.0 20.55 7.9 20.2 7.9 20.2 7.6 20.3 7.25 20.55 7.25" fill="#ffd705" fill-rule="evenodd" stroke="none"/>
    <path d="M13.2 12.95 L14.5 14.05 14.25 14.35 13.3 13.95 13.2 12.95" fill="#ffd705" fill-rule="evenodd" stroke="none"/>
    <path d="M13.1 17.6 L13.25 16.6 14.2 16.2 14.45 16.55 13.1 17.6" fill="#ffd705" fill-rule="evenodd" stroke="none"/>
    <path d="M4.2 17.7 L4.95 16.5 6.35 16.5 4.2 17.7" fill="#ffd705" fill-rule="evenodd" stroke="none"/>
    <path d="M4.3 12.55 L6.35 13.8 5.0 13.75 4.3 12.55" fill="#ffd705" fill-rule="evenodd" stroke="none"/>
    <path d="M6.35 13.55 L7.5 13.55 8.4 14.1 13.1 14.2 14.0 14.6 14.35 14.6 14.8 14.05 17.05 14.05 17.65 14.45 18.65 14.7 Q19.05 15.0 19.05 15.4 18.95 16.3 17.6 16.3 L17.0 16.65 14.8 16.6 14.35 16.0 14.0 16.0 13.05 16.4 8.35 16.3 7.45 16.8 6.25 16.8 6.8 16.35 4.85 16.35 4.9 13.9 6.8 13.95 6.35 13.55" fill="#d88603" fill-rule="evenodd" stroke="none"/>
    <path d="M5.05 14.35 L8.3 14.4 8.3 16.0 5.0 15.95 5.05 14.35" fill="#ffd705" fill-rule="evenodd" stroke="none"/>
    <path d="M3.95 15.0 L6.35 15.0 6.35 15.3 3.95 15.25 3.95 15.0" fill="#ffff05" fill-rule="evenodd" stroke="none"/>
    <path d="M6.2 15.0 L8.3 15.05 8.3 15.35 6.2 15.3 6.2 15.0" fill="#ffd705" fill-rule="evenodd" stroke="none"/>
    <path d="M12.85 15.1 L14.3 15.15 14.3 15.4 12.85 15.4 12.85 15.1" fill="#ffd705" fill-rule="evenodd" stroke="none"/>
    <path d="M14.8 14.75 L16.95 14.75 16.9 15.9 14.8 15.85 14.8 14.75" fill="#ffd705" fill-rule="evenodd" stroke="none"/>
    <path d="M8.6 14.65 L12.55 14.7 12.5 15.85 8.6 15.75 8.6 14.65" fill="#ffd705" fill-rule="evenodd" stroke="none"/>
    <path d="M18.6 14.95 L18.85 15.2 18.6 15.45 18.4 15.2 18.6 14.95" fill="#ffd705" fill-rule="evenodd" stroke="none"/>
    <path d="M29.35 5.7 L35.7 5.7 35.7 12.55 43.9 5.7 49.3 5.7 49.3 12.45 57.25 5.7 65.3 5.75 63.55 10.1 59.75 10.1 50.15 19.35 43.55 19.4 43.55 12.2 36.85 19.4 29.35 19.35 29.35 5.7" fill="#efb300" fill-rule="evenodd" stroke="none"/>
    <path d="M65.3 5.75 L73.3 5.75 68.0 19.4 60.1 19.4 65.3 5.75" fill="#efb300" fill-rule="evenodd" stroke="none"/>
    <path d="M92.8 5.7 L100.65 5.7 96.6 16.1 90.55 11.25 92.8 5.7 M80.8 12.2 L77.95 19.35 69.95 19.4 75.25 5.7 83.05 5.7 96.45 16.6 95.4 19.4 89.6 19.35 80.8 12.2" fill="#efb300" fill-rule="evenodd" stroke="none"/>
    <path d="M29.35 5.7 L35.7 5.7 35.7 12.55 43.9 5.7 49.3 5.7 49.3 12.45 57.25 5.7 65.3 5.75 63.55 10.1 59.75 10.1 50.15 19.35 43.55 19.4 43.55 12.2 36.85 19.4 29.35 19.35 29.35 5.7" fill="url(#gradient0)" fill-rule="evenodd" stroke="none"/>
    <path d="M65.3 5.75 L73.3 5.75 68.0 19.4 60.1 19.4 65.3 5.75" fill="url(#gradient1)" fill-rule="evenodd" stroke="none"/>
    <path d="M92.8 5.7 L100.65 5.7 96.6 16.1 90.55 11.25 92.8 5.7 M80.8 12.2 L77.95 19.35 69.95 19.4 75.25 5.7 83.05 5.7 96.45 16.6 95.4 19.4 89.6 19.35 80.8 12.2" fill="url(#gradient2)" fill-rule="evenodd" stroke="none"/>
    <path d="M29.35 5.7 L35.7 5.7 35.7 12.55 43.9 5.7 49.3 5.7 49.3 12.45 57.25 5.7 65.3 5.75 63.55 10.1 59.75 10.1 50.15 19.35 43.55 19.4 43.55 12.2 36.85 19.4 29.35 19.35 29.35 5.7 Z" fill="none" stroke="#aa450c" stroke-linecap="butt" stroke-linejoin="miter-clip" stroke-miterlimit="4.0" stroke-width="1.0"/>
    <path d="M65.3 5.75 L73.3 5.75 68.0 19.4 60.1 19.4 65.3 5.75 Z" fill="none" stroke="#aa450c" stroke-linecap="butt" stroke-linejoin="miter-clip" stroke-miterlimit="4.0" stroke-width="1.0"/>
    <path d="M92.8 5.7 L100.65 5.7 96.6 16.1 90.55 11.25 92.8 5.7 M80.8 12.2 L77.95 19.35 69.95 19.4 75.25 5.7 83.05 5.7 96.45 16.6 95.4 19.4 89.6 19.35 80.8 12.2 Z" fill="none" stroke="#aa450c" stroke-linecap="butt" stroke-linejoin="miter-clip" stroke-miterlimit="4.0" stroke-width="1.0"/>
    <path d="M68.85 0.0 L75.2 0.0 73.1 4.35 66.55 4.35 68.85 0.0" fill="url(#gradient3)" fill-rule="evenodd" stroke="none"/>
    <path d="M68.85 0.0 L66.55 4.35 73.1 4.35 75.2 0.0 68.85 0.0 Z" fill="none" stroke="#aa450c" stroke-linecap="butt" stroke-linejoin="miter-clip" stroke-miterlimit="4.0" stroke-width="1.0"/>
  </g>
  <defs>
    <linearGradient gradientTransform="matrix(0.0, -0.0083, -0.0083, 0.0, 65.0, 12.55)" gradientUnits="userSpaceOnUse" id="gradient0" spreadMethod="pad" x1="-819.2" x2="819.2">
      <stop offset="0.0" stop-color="#f46608"/>
      <stop offset="0.01568627450980392" stop-color="#f46a08"/>
      <stop offset="0.1411764705882353" stop-color="#f48608"/>
      <stop offset="0.2784313725490196" stop-color="#f49c08"/>
      <stop offset="0.42745098039215684" stop-color="#f4ac08"/>
      <stop offset="0.596078431372549" stop-color="#f4b508"/>
      <stop offset="0.8392156862745098" stop-color="#f4b808"/>
      <stop offset="1.0" stop-color="#ffff5e"/>
    </linearGradient>
    <linearGradient gradientTransform="matrix(0.0, -0.0083, -0.0083, 0.0, 65.0, 12.55)" gradientUnits="userSpaceOnUse" id="gradient1" spreadMethod="pad" x1="-819.2" x2="819.2">
      <stop offset="0.0" stop-color="#f46608"/>
      <stop offset="0.01568627450980392" stop-color="#f46a08"/>
      <stop offset="0.1411764705882353" stop-color="#f48608"/>
      <stop offset="0.2784313725490196" stop-color="#f49c08"/>
      <stop offset="0.42745098039215684" stop-color="#f4ac08"/>
      <stop offset="0.596078431372549" stop-color="#f4b508"/>
      <stop offset="0.8392156862745098" stop-color="#f4b808"/>
      <stop offset="1.0" stop-color="#ffff5e"/>
    </linearGradient>
    <linearGradient gradientTransform="matrix(0.0, -0.0083, -0.0083, 0.0, 65.0, 12.55)" gradientUnits="userSpaceOnUse" id="gradient2" spreadMethod="pad" x1="-819.2" x2="819.2">
      <stop offset="0.0" stop-color="#f46608"/>
      <stop offset="0.01568627450980392" stop-color="#f46a08"/>
      <stop offset="0.1411764705882353" stop-color="#f48608"/>
      <stop offset="0.2784313725490196" stop-color="#f49c08"/>
      <stop offset="0.42745098039215684" stop-color="#f4ac08"/>
      <stop offset="0.596078431372549" stop-color="#f4b508"/>
      <stop offset="0.8392156862745098" stop-color="#f4b808"/>
      <stop offset="1.0" stop-color="#ffff5e"/>
    </linearGradient>
    <linearGradient gradientTransform="matrix(0.0, -0.0026, -0.0026, 0.0, 70.9, 2.15)" gradientUnits="userSpaceOnUse" id="gradient3" spreadMethod="pad" x1="-819.2" x2="819.2">
      <stop offset="0.0" stop-color="#f46608"/>
      <stop offset="0.050980392156862744" stop-color="#f47808"/>
      <stop offset="0.17254901960784313" stop-color="#f49a08"/>
      <stop offset="0.30196078431372547" stop-color="#f4b608"/>
      <stop offset="0.43529411764705883" stop-color="#f4cc08"/>
      <stop offset="0.5843137254901961" stop-color="#f4dc08"/>
      <stop offset="0.7568627450980392" stop-color="#f4e508"/>
      <stop offset="1.0" stop-color="#f4e808"/>
    </linearGradient>
  </defs>
</svg>
