<?xml version="1.0" encoding="UTF-8" standalone="no"?>
<svg xmlns:ffdec="https://www.free-decompiler.com/flash" xmlns:xlink="http://www.w3.org/1999/xlink" ffdec:objectType="shape" height="13.85px" width="109.85px" xmlns="http://www.w3.org/2000/svg">
  <g transform="matrix(1.0, 0.0, 0.0, 1.0, 0.0, -3.85)">
    <path d="M12.95 4.45 L14.75 5.95 14.4 6.4 13.05 5.8 12.95 4.45" fill="#ffd705" fill-rule="evenodd" stroke="none"/>
    <path d="M12.85 10.95 L13.0 9.55 14.35 9.05 14.7 9.45 12.85 10.95" fill="#ffd905" fill-rule="evenodd" stroke="none"/>
    <path d="M0.35 11.1 L1.4 9.4 3.35 9.4 0.35 11.1" fill="#ffd705" fill-rule="evenodd" stroke="none"/>
    <path d="M0.45 3.85 L3.4 5.6 1.45 5.6 0.45 3.85" fill="#ffd705" fill-rule="evenodd" stroke="none"/>
    <path d="M19.2 6.5 Q20.0 6.55 20.6 6.95 21.15 7.3 21.15 7.85 21.1 8.4 20.55 8.75 L19.15 9.1 18.3 9.6 15.15 9.55 14.55 8.75 14.05 8.75 12.8 9.25 6.15 9.15 4.85 9.85 3.2 9.85 3.95 9.2 1.25 9.2 1.3 5.8 4.0 5.8 3.35 5.25 4.95 5.25 6.2 6.05 12.8 6.15 14.1 6.7 14.55 6.75 15.2 5.95 18.35 6.0 19.2 6.5" fill="#d88603" fill-rule="evenodd" stroke="none"/>
    <path d="M1.5 6.4 L6.1 6.45 6.05 8.75 1.5 8.7 1.5 6.4" fill="#ffd705" fill-rule="evenodd" stroke="none"/>
    <path d="M0.0 7.3 L3.35 7.35 3.35 7.75 0.0 7.7 0.0 7.3" fill="#ffff05" fill-rule="evenodd" stroke="none"/>
    <path d="M3.15 7.35 L6.1 7.4 6.1 7.75 3.15 7.75 3.15 7.35" fill="#ffd705" fill-rule="evenodd" stroke="none"/>
    <path d="M12.5 7.5 L14.5 7.5 14.5 7.9 12.5 7.85 12.5 7.5" fill="#ffd905" fill-rule="evenodd" stroke="none"/>
    <path d="M15.2 6.95 L18.2 7.0 18.2 8.55 15.2 8.5 15.2 6.95" fill="#ffd705" fill-rule="evenodd" stroke="none"/>
    <path d="M6.5 6.85 L12.05 6.9 12.0 8.5 6.5 8.4 6.5 6.85" fill="#ffd705" fill-rule="evenodd" stroke="none"/>
    <path d="M20.55 7.25 Q20.9 7.25 20.9 7.6 20.9 8.0 20.55 7.9 20.2 7.9 20.2 7.6 20.3 7.25 20.55 7.25" fill="#ffd705" fill-rule="evenodd" stroke="none"/>
    <path d="M13.2 12.95 L14.5 14.05 14.25 14.35 13.3 13.95 13.2 12.95" fill="#ffd705" fill-rule="evenodd" stroke="none"/>
    <path d="M13.1 17.6 L13.25 16.6 14.2 16.2 14.45 16.55 13.1 17.6" fill="#ffd705" fill-rule="evenodd" stroke="none"/>
    <path d="M4.2 17.7 L4.95 16.5 6.35 16.5 4.2 17.7" fill="#ffd705" fill-rule="evenodd" stroke="none"/>
    <path d="M4.3 12.55 L6.35 13.8 5.0 13.75 4.3 12.55" fill="#ffd705" fill-rule="evenodd" stroke="none"/>
    <path d="M7.5 13.55 L8.4 14.1 13.1 14.2 14.0 14.6 14.35 14.6 14.8 14.05 17.05 14.05 17.65 14.45 18.65 14.7 Q19.05 15.0 19.05 15.4 18.95 16.3 17.6 16.3 L17.0 16.65 14.8 16.6 14.35 16.0 14.0 16.0 13.05 16.4 8.35 16.3 7.45 16.8 6.25 16.8 6.8 16.35 4.85 16.35 4.9 13.9 6.8 13.95 6.35 13.55 7.5 13.55" fill="#d88603" fill-rule="evenodd" stroke="none"/>
    <path d="M5.05 14.35 L8.3 14.4 8.3 16.0 5.0 15.95 5.05 14.35" fill="#ffd705" fill-rule="evenodd" stroke="none"/>
    <path d="M3.95 15.0 L6.35 15.0 6.35 15.3 3.95 15.25 3.95 15.0" fill="#ffff05" fill-rule="evenodd" stroke="none"/>
    <path d="M6.2 15.0 L8.3 15.05 8.3 15.35 6.2 15.3 6.2 15.0" fill="#ffd705" fill-rule="evenodd" stroke="none"/>
    <path d="M12.85 15.1 L14.3 15.15 14.3 15.4 12.85 15.4 12.85 15.1" fill="#ffd705" fill-rule="evenodd" stroke="none"/>
    <path d="M14.8 14.75 L16.95 14.75 16.9 15.9 14.8 15.85 14.8 14.75" fill="#ffd705" fill-rule="evenodd" stroke="none"/>
    <path d="M8.6 14.65 L12.55 14.7 12.5 15.85 8.6 15.75 8.6 14.65" fill="#ffd705" fill-rule="evenodd" stroke="none"/>
    <path d="M18.6 14.95 L18.85 15.2 18.6 15.45 18.4 15.2 18.6 14.95" fill="#ffd705" fill-rule="evenodd" stroke="none"/>
    <path d="M41.55 16.05 L21.65 16.05 25.75 5.45 32.0 5.45 29.35 12.2 42.9 12.2 41.55 16.05" fill="#ef7300" fill-rule="evenodd" stroke="none"/>
    <path d="M66.7 5.8 L67.25 6.3 67.45 6.65 67.55 7.15 67.45 7.6 64.9 14.05 64.7 14.4 64.35 14.85 63.85 15.3 62.95 15.75 61.95 16.0 46.1 16.0 45.2 15.85 44.5 15.5 44.25 15.2 44.05 14.8 44.0 14.35 44.05 13.9 46.65 7.45 46.85 7.1 47.35 6.55 48.0 6.1 48.7 5.75 50.0 5.45 65.45 5.45 66.7 5.8 M51.45 12.15 L51.55 12.45 51.8 12.6 58.05 12.6 58.5 12.5 58.95 12.25 60.0 9.8 60.15 9.2 60.0 8.95 59.7 8.85 53.5 8.85 53.05 8.9 52.75 9.05 52.45 9.4 51.55 11.65 51.45 12.15" fill="#ef7300" fill-rule="evenodd" stroke="none"/>
    <path d="M72.7 5.45 L89.45 5.45 87.8 8.7 73.3 8.7 73.0 8.8 72.8 9.0 72.9 9.25 73.15 9.4 85.5 9.4 85.9 9.45 86.55 9.8 86.95 10.4 87.1 10.75 87.2 11.7 87.05 12.85 86.55 14.15 85.25 15.3 84.65 15.65 83.95 15.9 83.4 16.0 65.8 16.0 67.25 12.85 82.15 12.85 82.5 12.75 82.6 12.5 82.4 12.35 69.9 12.35 69.55 12.25 68.95 11.85 68.55 11.25 68.45 10.9 68.4 9.4 68.6 8.7 69.15 7.75 69.85 6.95 71.0 6.1 Q71.5 5.9 71.95 5.65 L72.7 5.45" fill="#ef7300" fill-rule="evenodd" stroke="none"/>
    <path d="M105.25 16.0 L85.7 16.0 89.75 5.45 95.9 5.45 93.25 12.25 106.75 12.25 105.25 16.0 M107.9 9.05 L94.85 9.05 96.2 5.45 109.35 5.45 107.9 9.05 M94.7 9.45 L103.15 9.45 102.2 11.85 93.75 11.85 94.7 9.45" fill="#ef7300" fill-rule="evenodd" stroke="none"/>
    <path d="M107.9 9.05 L94.85 9.05 96.2 5.45 109.35 5.45 107.9 9.05 M102.2 11.85 L93.75 11.85 94.7 9.45 103.15 9.45 102.2 11.85 M105.25 16.0 L85.7 16.0 86.35 14.35 85.25 15.3 84.65 15.65 83.95 15.9 83.4 16.0 65.8 16.0 67.25 12.85 82.15 12.85 82.5 12.75 82.6 12.5 82.4 12.35 69.9 12.35 69.55 12.25 68.95 11.85 68.55 11.25 68.45 10.9 68.4 9.4 68.6 8.7 69.15 7.75 69.85 6.95 71.0 6.1 Q71.5 5.9 71.95 5.65 L72.7 5.45 89.45 5.45 87.8 8.7 73.3 8.7 73.0 8.8 72.8 9.0 72.9 9.25 73.15 9.4 85.5 9.4 85.9 9.45 86.55 9.8 86.95 10.4 87.1 10.75 87.2 11.7 87.15 12.35 89.75 5.45 95.9 5.45 93.25 12.25 106.75 12.25 105.25 16.0 M67.55 7.15 L67.45 7.6 64.9 14.05 64.7 14.4 64.35 14.85 63.85 15.3 62.95 15.75 61.95 16.0 46.1 16.0 45.2 15.85 44.5 15.5 44.25 15.2 44.05 14.8 44.0 14.35 44.05 13.9 46.65 7.45 46.85 7.1 47.35 6.55 48.0 6.1 48.7 5.75 50.0 5.45 65.45 5.45 66.7 5.8 67.25 6.3 67.45 6.65 67.55 7.15 M52.45 9.4 L51.55 11.65 51.45 12.15 51.55 12.45 51.8 12.6 58.05 12.6 58.5 12.5 58.95 12.25 60.0 9.8 60.15 9.2 60.0 8.95 59.7 8.85 53.5 8.85 53.05 8.9 52.75 9.05 52.45 9.4 M41.55 16.05 L21.65 16.05 25.75 5.45 32.0 5.45 29.35 12.2 42.9 12.2 41.55 16.05" fill="url(#gradient0)" fill-rule="evenodd" stroke="none"/>
    <path d="M41.55 16.05 L21.65 16.05 25.75 5.45 32.0 5.45 29.35 12.2 42.9 12.2 41.55 16.05 Z" fill="none" stroke="#aa450c" stroke-linecap="round" stroke-linejoin="round" stroke-width="1.0"/>
    <path d="M66.7 5.8 L67.25 6.3 67.45 6.65 67.55 7.15 67.45 7.6 64.9 14.05 64.7 14.4 64.35 14.85 63.85 15.3 62.95 15.75 61.95 16.0 46.1 16.0 45.2 15.85 44.5 15.5 44.25 15.2 44.05 14.8 44.0 14.35 44.05 13.9 46.65 7.45 46.85 7.1 47.35 6.55 48.0 6.1 48.7 5.75 50.0 5.45 65.45 5.45 66.7 5.8 M51.45 12.15 L51.55 12.45 51.8 12.6 58.05 12.6 58.5 12.5 58.95 12.25 60.0 9.8 60.15 9.2 60.0 8.95 59.7 8.85 53.5 8.85 53.05 8.9 52.75 9.05 52.45 9.4 51.55 11.65 51.45 12.15 Z" fill="none" stroke="#aa450c" stroke-linecap="round" stroke-linejoin="round" stroke-width="1.0"/>
    <path d="M72.7 5.45 L89.45 5.45 87.8 8.7 73.3 8.7 73.0 8.8 72.8 9.0 72.9 9.25 73.15 9.4 85.5 9.4 85.9 9.45 86.55 9.8 86.95 10.4 87.1 10.75 87.2 11.7 87.05 12.85 86.55 14.15 85.25 15.3 84.65 15.65 83.95 15.9 83.4 16.0 65.8 16.0 67.25 12.85 82.15 12.85 82.5 12.75 82.6 12.5 82.4 12.35 69.9 12.35 69.55 12.25 68.95 11.85 68.55 11.25 68.45 10.9 68.4 9.4 68.6 8.7 69.15 7.75 69.85 6.95 71.0 6.1 Q71.5 5.9 71.95 5.65 L72.7 5.45 Z" fill="none" stroke="#aa450c" stroke-linecap="round" stroke-linejoin="round" stroke-width="1.0"/>
    <path d="M105.25 16.0 L85.7 16.0 89.75 5.45 95.9 5.45 93.25 12.25 106.75 12.25 105.25 16.0 M107.9 9.05 L94.85 9.05 96.2 5.45 109.35 5.45 107.9 9.05 M94.7 9.45 L103.15 9.45 102.2 11.85 93.75 11.85 94.7 9.45 Z" fill="none" stroke="#aa450c" stroke-linecap="round" stroke-linejoin="round" stroke-width="1.0"/>
  </g>
  <defs>
    <linearGradient gradientTransform="matrix(0.0, -0.0065, -0.0065, 0.0, 65.5, 10.75)" gradientUnits="userSpaceOnUse" id="gradient0" spreadMethod="pad" x1="-819.2" x2="819.2">
      <stop offset="0.0" stop-color="#f46608"/>
      <stop offset="0.01568627450980392" stop-color="#f46a08"/>
      <stop offset="0.1411764705882353" stop-color="#f48608"/>
      <stop offset="0.2784313725490196" stop-color="#f49c08"/>
      <stop offset="0.42745098039215684" stop-color="#f4ac08"/>
      <stop offset="0.596078431372549" stop-color="#f4b508"/>
      <stop offset="0.8392156862745098" stop-color="#f4b808"/>
      <stop offset="1.0" stop-color="#ffff5e"/>
    </linearGradient>
  </defs>
</svg>
