<?xml version="1.0" encoding="UTF-8" standalone="no"?>
<svg xmlns:ffdec="https://www.free-decompiler.com/flash" xmlns:xlink="http://www.w3.org/1999/xlink" ffdec:objectType="shape" height="20.4px" width="98.45px" xmlns="http://www.w3.org/2000/svg">
  <g transform="matrix(1.0, 0.0, 0.0, 1.0, -11.35, 2.25)">
    <path d="M101.5 0.0 L105.05 1.05 Q108.0 1.6 109.45 0.75 109.8 2.1 109.8 5.05 109.8 11.7 101.5 17.05 93.2 11.7 93.2 5.05 93.2 2.1 93.6 0.75 96.0 2.15 101.5 0.0" fill="url(#gradient0)" fill-rule="evenodd" stroke="none"/>
    <path d="M101.5 15.2 Q95.85 11.0 95.85 5.8 95.85 3.75 96.0 2.8 L97.3 2.85 Q99.25 3.0 101.5 1.85 L103.2 2.5 105.7 2.85 106.95 2.8 107.15 5.8 Q107.15 11.0 101.5 15.2" fill="#0f51d6" fill-rule="evenodd" stroke="none"/>
    <path d="M106.1 6.3 Q106.1 10.55 101.5 13.95 96.85 10.55 96.85 6.3 L97.05 3.85 98.05 3.9 Q99.55 4.0 101.5 3.05 103.25 4.05 104.9 3.9 L105.95 3.85 106.1 6.3" fill="#4bdfff" fill-rule="evenodd" stroke="none"/>
    <path d="M105.6 6.6 Q105.6 9.4 101.55 9.4 97.45 9.4 97.45 6.6 97.45 5.1 97.6 4.4 L98.5 4.45 Q99.7 4.55 101.5 3.75 103.15 4.55 104.55 4.45 L105.45 4.4 105.6 6.6" fill="url(#gradient1)" fill-rule="evenodd" stroke="none"/>
    <path d="M56.9 -1.25 L51.65 -1.25 49.9 2.1 55.3 2.1 56.9 -1.25 M51.05 -2.25 L58.5 -2.25 55.95 3.1 48.25 3.1 51.05 -2.25 M75.65 4.45 L73.65 9.35 78.9 13.55 82.4 4.45 75.65 4.45 M72.7 9.1 L75.0 3.45 83.9 3.45 79.55 14.7 78.25 18.15 71.95 18.1 71.8 18.0 63.5 11.3 60.8 18.1 51.75 18.15 57.4 3.45 65.75 3.45 65.9 3.55 72.7 9.1 M42.05 7.85 L45.7 7.85 47.05 4.5 39.95 4.45 31.3 11.8 31.3 4.45 26.6 4.45 17.7 11.9 17.7 4.45 12.35 4.45 12.35 17.1 19.15 17.15 26.55 9.2 26.55 17.15 32.45 17.1 42.05 7.85 M72.3 17.1 L77.55 17.15 78.35 15.05 65.35 4.45 58.1 4.45 53.2 17.15 60.1 17.1 63.1 9.65 72.3 17.1 M45.45 8.85 L42.45 8.85 32.85 18.1 25.55 18.15 25.55 11.75 19.6 18.15 11.35 18.1 11.35 3.45 18.7 3.45 18.7 9.75 26.25 3.45 32.3 3.45 32.3 9.65 39.6 3.45 56.55 3.5 50.85 18.15 41.9 18.15 45.45 8.85 M43.35 17.15 L50.15 17.15 55.1 4.5 48.15 4.5 43.35 17.15" fill="#0d56d6" fill-rule="evenodd" stroke="none"/>
    <path d="M56.9 -1.25 L55.3 2.1 49.9 2.1 51.65 -1.25 56.9 -1.25 M75.65 4.45 L82.4 4.45 78.9 13.55 73.65 9.35 75.65 4.45 M72.3 17.1 L63.1 9.65 60.1 17.1 53.2 17.15 58.1 4.45 65.35 4.45 78.35 15.05 77.55 17.15 72.3 17.1 M42.05 7.85 L32.45 17.1 26.55 17.15 26.55 9.2 19.15 17.15 12.35 17.1 12.35 4.45 17.7 4.45 17.7 11.9 26.6 4.45 31.3 4.45 31.3 11.8 39.95 4.45 47.05 4.5 45.7 7.85 42.05 7.85 M43.35 17.15 L48.15 4.5 55.1 4.5 50.15 17.15 43.35 17.15" fill="url(#gradient2)" fill-rule="evenodd" stroke="none"/>
  </g>
  <defs>
    <linearGradient gradientTransform="matrix(0.0, -0.0104, -0.0104, 0.0, 101.5, 8.5)" gradientUnits="userSpaceOnUse" id="gradient0" spreadMethod="pad" x1="-819.2" x2="819.2">
      <stop offset="0.0" stop-color="#1269ff"/>
      <stop offset="1.0" stop-color="#5cc4ff"/>
    </linearGradient>
    <linearGradient gradientTransform="matrix(0.0, -0.0034, -0.0034, 0.0, 101.5, 6.55)" gradientUnits="userSpaceOnUse" id="gradient1" spreadMethod="pad" x1="-819.2" x2="819.2">
      <stop offset="0.0" stop-color="#86ffff"/>
      <stop offset="1.0" stop-color="#86ffff"/>
    </linearGradient>
    <linearGradient gradientTransform="matrix(0.0, -0.0065, -0.0065, 0.0, 48.0, 10.75)" gradientUnits="userSpaceOnUse" id="gradient2" spreadMethod="pad" x1="-819.2" x2="819.2">
      <stop offset="0.0" stop-color="#3bb0ff"/>
      <stop offset="0.09019607843137255" stop-color="#3bb0ff"/>
      <stop offset="0.7490196078431373" stop-color="#3bb0ff"/>
      <stop offset="1.0" stop-color="#8ae3ff"/>
    </linearGradient>
  </defs>
</svg>
