<?xml version="1.0" encoding="UTF-8" standalone="no"?>
<svg xmlns:ffdec="https://www.free-decompiler.com/flash" xmlns:xlink="http://www.w3.org/1999/xlink" ffdec:objectType="shape" height="17.25px" width="90.3px" xmlns="http://www.w3.org/2000/svg">
  <g transform="matrix(1.0, 0.0, 0.0, 1.0, -6.25, -2.4)">
    <path d="M45.2 6.8 L42.45 15.45 Q41.45 18.5 38.4 18.5 L27.8 18.5 30.6 9.65 34.05 9.65 32.2 15.5 39.05 15.5 41.8 6.8 34.9 6.8 Q31.45 6.8 32.35 4.05 L32.5 3.65 43.1 3.65 Q46.2 3.65 45.2 6.8" fill="#00ff00" fill-rule="evenodd" stroke="none"/>
    <path d="M45.3 18.05 L43.2 18.5 42.85 18.5 47.55 3.65 58.15 3.65 Q61.25 3.65 60.25 6.8 L59.35 9.6 Q58.4 12.55 55.45 12.7 L56.85 18.55 52.75 18.55 50.7 9.55 56.0 9.55 56.85 6.8 49.95 6.8 47.35 15.0 Q46.65 17.25 45.3 18.05" fill="#00ff00" fill-rule="evenodd" stroke="none"/>
    <path d="M64.2 11.95 L71.15 11.95 72.75 6.8 65.85 6.8 64.2 11.95 M63.1 5.45 Q64.4 3.65 66.45 3.65 L74.05 3.65 Q77.15 3.65 76.15 6.75 L73.35 15.55 72.7 16.9 Q71.35 18.55 69.1 18.55 L70.6 13.65 63.65 13.65 62.2 18.55 Q60.9 18.55 60.15 17.95 59.2 17.15 59.7 15.5 L63.1 5.45" fill="#00ff00" fill-rule="evenodd" stroke="none"/>
    <path d="M86.7 9.6 L84.8 15.5 88.0 15.5 90.8 6.7 Q91.75 3.65 94.8 3.65 L95.2 3.65 91.4 15.5 Q90.5 18.5 87.4 18.5 L76.9 18.5 Q73.75 18.5 74.75 15.5 L78.5 3.65 78.9 3.65 80.05 3.75 Q81.8 4.1 81.0 6.75 L78.25 15.5 81.35 15.5 84.25 6.4 84.65 6.4 85.75 6.55 Q87.55 7.0 86.7 9.6" fill="url(#gradient0)" fill-rule="evenodd" stroke="none"/>
    <path d="M45.2 6.8 L42.45 15.45 Q41.45 18.5 38.4 18.5 L27.8 18.5 30.6 9.65 34.05 9.65 32.2 15.5 39.05 15.5 41.8 6.8 34.9 6.8 Q31.45 6.8 32.35 4.05 L32.5 3.65 43.1 3.65 Q46.2 3.65 45.2 6.8 Z" fill="none" stroke="#066d06" stroke-linecap="butt" stroke-linejoin="miter-clip" stroke-miterlimit="4.0" stroke-width="2.0"/>
    <path d="M45.3 18.05 L43.2 18.5 42.85 18.5 47.55 3.65 58.15 3.65 Q61.25 3.65 60.25 6.8 L59.35 9.6 Q58.4 12.55 55.45 12.7 L56.85 18.55 52.75 18.55 50.7 9.55 56.0 9.55 56.85 6.8 49.95 6.8 47.35 15.0 Q46.65 17.25 45.3 18.05 Z" fill="none" stroke="#066d06" stroke-linecap="butt" stroke-linejoin="miter-clip" stroke-miterlimit="4.0" stroke-width="2.0"/>
    <path d="M63.1 5.45 L59.7 15.5 Q59.2 17.15 60.15 17.95 60.9 18.55 62.2 18.55 L63.65 13.65 70.6 13.65 69.1 18.55 Q71.35 18.55 72.7 16.9 L73.35 15.55 76.15 6.75 Q77.15 3.65 74.05 3.65 L66.45 3.65 Q64.4 3.65 63.1 5.45 M64.2 11.95 L65.85 6.8 72.75 6.8 71.15 11.95 64.2 11.95 Z" fill="none" stroke="#066d06" stroke-linecap="butt" stroke-linejoin="miter-clip" stroke-miterlimit="4.0" stroke-width="2.0"/>
    <path d="M86.7 9.6 L84.8 15.5 88.0 15.5 90.8 6.7 Q91.75 3.65 94.8 3.65 L95.2 3.65 91.4 15.5 Q90.5 18.5 87.4 18.5 L76.9 18.5 Q73.75 18.5 74.75 15.5 L78.5 3.65 78.9 3.65 80.05 3.75 Q81.8 4.1 81.0 6.75 L78.25 15.5 81.35 15.5 84.25 6.4 84.65 6.4 85.75 6.55 Q87.55 7.0 86.7 9.6 Z" fill="none" stroke="#066d06" stroke-linecap="butt" stroke-linejoin="miter-clip" stroke-miterlimit="4.0" stroke-width="2.0"/>
    <path d="M45.2 6.8 L42.45 15.45 Q41.45 18.5 38.4 18.5 L27.8 18.5 30.6 9.65 34.05 9.65 32.2 15.5 39.05 15.5 41.8 6.8 34.9 6.8 Q31.45 6.8 32.35 4.05 L32.5 3.65 43.1 3.65 Q46.2 3.65 45.2 6.8" fill="url(#gradient1)" fill-rule="evenodd" stroke="none"/>
    <path d="M45.3 18.05 L43.2 18.5 42.85 18.5 47.55 3.65 58.15 3.65 Q61.25 3.65 60.25 6.8 L59.35 9.6 Q58.4 12.55 55.45 12.7 L56.85 18.55 52.75 18.55 50.7 9.55 56.0 9.55 56.85 6.8 49.95 6.8 47.35 15.0 Q46.65 17.25 45.3 18.05" fill="url(#gradient2)" fill-rule="evenodd" stroke="none"/>
    <path d="M64.2 11.95 L71.15 11.95 72.75 6.8 65.85 6.8 64.2 11.95 M63.1 5.45 Q64.4 3.65 66.45 3.65 L74.05 3.65 Q77.15 3.65 76.15 6.75 L73.35 15.55 72.7 16.9 Q71.35 18.55 69.1 18.55 L70.6 13.65 63.65 13.65 62.2 18.55 Q60.9 18.55 60.15 17.95 59.2 17.15 59.7 15.5 L63.1 5.45" fill="url(#gradient3)" fill-rule="evenodd" stroke="none"/>
    <path d="M86.7 9.6 L84.8 15.5 88.0 15.5 90.8 6.7 Q91.75 3.65 94.8 3.65 L95.2 3.65 91.4 15.5 Q90.5 18.5 87.4 18.5 L76.9 18.5 Q73.75 18.5 74.75 15.5 L78.5 3.65 78.9 3.65 80.05 3.75 Q81.8 4.1 81.0 6.75 L78.25 15.5 81.35 15.5 84.25 6.4 84.65 6.4 85.75 6.55 Q87.55 7.0 86.7 9.6" fill="url(#gradient4)" fill-rule="evenodd" stroke="none"/>
    <path d="M23.2 3.5 L12.15 14.55 11.1 13.5 22.15 2.45 23.2 3.5" fill="#a1ffff" fill-rule="evenodd" stroke="none"/>
    <path d="M11.2 15.75 L7.6 19.4 6.25 18.05 9.9 14.45 11.2 15.75" fill="#1effff" fill-rule="evenodd" stroke="none"/>
    <path d="M12.5 15.45 L11.6 16.35 9.35 14.05 10.2 13.2 12.5 15.45" fill="#4affff" fill-rule="evenodd" stroke="none"/>
    <path d="M8.15 3.55 L9.25 2.4 20.3 13.5 19.2 14.6 8.15 3.55" fill="#a1ffff" fill-rule="evenodd" stroke="none"/>
    <path d="M20.15 15.75 L21.5 14.45 25.1 18.05 23.8 19.4 20.15 15.75" fill="#1effff" fill-rule="evenodd" stroke="none"/>
    <path d="M18.9 15.45 L21.2 13.2 22.05 14.05 19.75 16.35 18.9 15.45" fill="#4affff" fill-rule="evenodd" stroke="none"/>
  </g>
  <defs>
    <linearGradient gradientTransform="matrix(0.0126, 0.0, 0.0, -0.0126, 84.85, 11.1)" gradientUnits="userSpaceOnUse" id="gradient0" spreadMethod="pad" x1="-819.2" x2="819.2">
      <stop offset="0.0" stop-color="#00ff00"/>
      <stop offset="0.09019607843137255" stop-color="#00ff00"/>
      <stop offset="0.7490196078431373" stop-color="#00ff00"/>
      <stop offset="1.0" stop-color="#00ff00"/>
    </linearGradient>
    <linearGradient gradientTransform="matrix(0.0, -0.0091, -0.0091, 0.0, 61.5, 11.1)" gradientUnits="userSpaceOnUse" id="gradient1" spreadMethod="pad" x1="-819.2" x2="819.2">
      <stop offset="0.0" stop-color="#1bb500"/>
      <stop offset="0.1843137254901961" stop-color="#20b900"/>
      <stop offset="0.4" stop-color="#2ec500"/>
      <stop offset="0.6235294117647059" stop-color="#45d900"/>
      <stop offset="0.8588235294117647" stop-color="#65f500"/>
      <stop offset="0.9333333333333333" stop-color="#70ff00"/>
      <stop offset="1.0" stop-color="#1bc500"/>
    </linearGradient>
    <linearGradient gradientTransform="matrix(0.0, -0.0091, -0.0091, 0.0, 61.5, 11.1)" gradientUnits="userSpaceOnUse" id="gradient2" spreadMethod="pad" x1="-819.2" x2="819.2">
      <stop offset="0.0" stop-color="#1bb500"/>
      <stop offset="0.1843137254901961" stop-color="#20b900"/>
      <stop offset="0.4" stop-color="#2ec500"/>
      <stop offset="0.6235294117647059" stop-color="#45d900"/>
      <stop offset="0.8588235294117647" stop-color="#65f500"/>
      <stop offset="0.9333333333333333" stop-color="#70ff00"/>
      <stop offset="1.0" stop-color="#1bc500"/>
    </linearGradient>
    <linearGradient gradientTransform="matrix(0.0, -0.0091, -0.0091, 0.0, 61.5, 11.1)" gradientUnits="userSpaceOnUse" id="gradient3" spreadMethod="pad" x1="-819.2" x2="819.2">
      <stop offset="0.0" stop-color="#1bb500"/>
      <stop offset="0.1843137254901961" stop-color="#20b900"/>
      <stop offset="0.4" stop-color="#2ec500"/>
      <stop offset="0.6235294117647059" stop-color="#45d900"/>
      <stop offset="0.8588235294117647" stop-color="#65f500"/>
      <stop offset="0.9333333333333333" stop-color="#70ff00"/>
      <stop offset="1.0" stop-color="#1bc500"/>
    </linearGradient>
    <linearGradient gradientTransform="matrix(0.0, -0.0091, -0.0091, 0.0, 61.5, 11.1)" gradientUnits="userSpaceOnUse" id="gradient4" spreadMethod="pad" x1="-819.2" x2="819.2">
      <stop offset="0.0" stop-color="#1bb500"/>
      <stop offset="0.1843137254901961" stop-color="#20b900"/>
      <stop offset="0.4" stop-color="#2ec500"/>
      <stop offset="0.6235294117647059" stop-color="#45d900"/>
      <stop offset="0.8588235294117647" stop-color="#65f500"/>
      <stop offset="0.9333333333333333" stop-color="#70ff00"/>
      <stop offset="1.0" stop-color="#1bc500"/>
    </linearGradient>
  </defs>
</svg>
