<?xml version="1.0" encoding="UTF-8" standalone="no"?>
<svg xmlns:ffdec="https://www.free-decompiler.com/flash" xmlns:xlink="http://www.w3.org/1999/xlink" ffdec:objectType="shape" height="86.05px" width="77.95px" xmlns="http://www.w3.org/2000/svg">
  <g transform="matrix(1.0, 0.0, 0.0, 1.0, -189.95, 176.8)">
    <path d="M228.4 -170.2 L228.45 -174.1 228.65 -174.1 228.65 -176.65 Q238.6 -175.75 246.85 -170.85 261.45 -162.15 266.15 -145.75 270.8 -129.45 263.15 -114.4 L260.95 -115.7 260.85 -115.55 257.5 -117.5 Q263.9 -130.3 259.95 -144.1 255.95 -157.95 243.6 -165.3 236.55 -169.5 228.4 -170.2" fill="#056be5" fill-rule="evenodd" stroke="none"/>
    <path d="M255.2 -113.55 L258.55 -111.55 258.5 -111.45 260.65 -110.15 Q251.25 -95.85 234.55 -91.95 217.8 -88.05 203.05 -96.85 199.55 -98.9 195.9 -102.2 L206.6 -102.2 Q219.1 -94.95 233.2 -98.25 247.25 -101.55 255.2 -113.55" fill="#0559d3" fill-rule="evenodd" stroke="none"/>
    <path d="M198.2 -158.75 L189.95 -158.75 Q195.85 -167.1 204.95 -171.85 213.8 -176.5 223.8 -176.8 L223.75 -174.25 223.85 -174.25 223.8 -170.35 Q216.55 -170.1 209.9 -167.15 203.2 -164.1 198.2 -158.75" fill="#0559d3" fill-rule="evenodd" stroke="none"/>
  </g>
</svg>
