<?xml version="1.0" encoding="UTF-8" standalone="no"?>
<svg xmlns:ffdec="https://www.free-decompiler.com/flash" xmlns:xlink="http://www.w3.org/1999/xlink" ffdec:objectType="shape" height="22.25px" width="94.6px" xmlns="http://www.w3.org/2000/svg">
  <g transform="matrix(1.0, 0.0, 0.0, 1.0, -5.2, -1.25)">
    <path d="M96.2 23.05 L7.5 23.05 Q6.15 23.05 5.75 22.25 5.5 21.35 6.5 20.45 L25.75 3.6 Q26.65 2.85 28.1 2.25 L30.8 1.7 96.2 1.7 Q97.5 1.7 98.4 2.65 99.35 3.6 99.35 4.85 L99.35 19.9 Q99.35 21.2 98.4 22.1 97.5 23.05 96.2 23.05" fill="url(#gradient0)" fill-rule="evenodd" stroke="none"/>
    <path d="M98.05 2.95 Q97.3 2.15 96.2 2.15 L30.8 2.15 Q29.65 2.15 28.25 2.7 26.9 3.25 26.05 3.95 L6.8 20.8 Q5.95 21.55 6.2 22.05 6.35 22.6 7.5 22.6 L96.2 22.6 Q97.3 22.6 98.05 21.8 98.9 21.0 98.9 19.9 L98.9 4.85 Q98.9 3.75 98.05 2.95 M98.75 2.35 Q99.8 3.35 99.8 4.85 L99.8 19.9 Q99.8 21.35 98.75 22.45 97.65 23.5 96.2 23.5 L7.5 23.5 Q5.8 23.5 5.3 22.35 4.95 21.25 6.2 20.1 L25.45 3.3 Q26.45 2.45 27.95 1.85 29.55 1.25 30.8 1.25 L96.2 1.25 Q97.65 1.25 98.75 2.35" fill="#399cff" fill-rule="evenodd" stroke="none"/>
  </g>
  <defs>
    <linearGradient gradientTransform="matrix(0.0, -0.013, -0.013, 0.0, 52.5, 12.35)" gradientUnits="userSpaceOnUse" id="gradient0" spreadMethod="pad" x1="-819.2" x2="819.2">
      <stop offset="0.0" stop-color="#004bc2"/>
      <stop offset="0.7647058823529411" stop-color="#003498"/>
      <stop offset="1.0" stop-color="#0057d9"/>
    </linearGradient>
  </defs>
</svg>
