<?xml version="1.0" encoding="UTF-8" standalone="no"?>
<svg xmlns:ffdec="https://www.free-decompiler.com/flash" xmlns:xlink="http://www.w3.org/1999/xlink" ffdec:objectType="shape" height="24.7px" width="92.0px" xmlns="http://www.w3.org/2000/svg">
  <g transform="matrix(1.0, 0.0, 0.0, 1.0, 0.0, 0.0)">
    <path d="M90.3 1.55 Q91.45 2.55 91.45 4.0 L91.45 20.7 Q91.45 22.15 90.3 23.15 89.1 24.2 87.45 24.2 L4.55 24.2 Q2.9 24.2 1.7 23.15 0.55 22.15 0.55 20.7 L0.55 4.0 Q0.55 2.55 1.7 1.55 2.9 0.5 4.55 0.5 L87.45 0.5 Q89.1 0.5 90.3 1.55" fill="url(#gradient0)" fill-rule="evenodd" stroke="none"/>
    <path d="M87.45 0.0 Q89.35 0.0 90.7 1.2 92.0 2.35 92.0 4.0 L92.0 20.7 Q92.0 22.35 90.7 23.55 89.35 24.7 87.45 24.7 L4.6 24.7 Q2.7 24.7 1.4 23.55 0.0 22.35 0.0 20.7 L0.0 4.0 Q0.0 2.35 1.4 1.2 2.7 0.0 4.6 0.0 L87.45 0.0 M89.85 1.9 Q88.9 1.0 87.45 1.0 L4.6 1.0 Q3.15 1.0 2.2 1.9 1.15 2.75 1.15 4.0 L1.15 20.7 Q1.15 21.95 2.2 22.8 3.15 23.7 4.6 23.7 L87.45 23.7 Q88.9 23.7 89.85 22.8 90.9 21.95 90.9 20.7 L90.9 4.0 Q90.9 2.75 89.85 1.9" fill="#0068ff" fill-rule="evenodd" stroke="none"/>
  </g>
  <defs>
    <linearGradient gradientTransform="matrix(0.0, -0.0144, -0.0165, 0.0, 279.3, 12.0)" gradientUnits="userSpaceOnUse" id="gradient0" spreadMethod="pad" x1="-819.2" x2="819.2">
      <stop offset="0.0" stop-color="#004bc2"/>
      <stop offset="0.7647058823529411" stop-color="#003498"/>
      <stop offset="1.0" stop-color="#0057d9"/>
    </linearGradient>
  </defs>
</svg>
