<?xml version="1.0" encoding="UTF-8" standalone="no"?>
<svg xmlns:ffdec="https://www.free-decompiler.com/flash" xmlns:xlink="http://www.w3.org/1999/xlink" ffdec:objectType="shape" height="24.7px" width="92.0px" xmlns="http://www.w3.org/2000/svg">
  <g transform="matrix(1.0, 0.0, 0.0, 1.0, 1.75, 0.0)">
    <path d="M85.7 24.2 L2.85 24.2 Q1.15 24.2 0.0 23.15 -1.15 22.15 -1.15 20.7 L-1.15 4.0 Q-1.15 2.55 0.0 1.55 1.15 0.5 2.85 0.5 L85.7 0.5 Q87.35 0.5 88.55 1.55 89.7 2.55 89.7 4.0 L89.7 20.7 Q89.7 22.15 88.55 23.15 87.35 24.2 85.7 24.2" fill="url(#gradient0)" fill-rule="evenodd" stroke="none"/>
    <path d="M89.15 4.0 Q89.15 2.75 88.1 1.9 87.15 1.0 85.7 1.0 L2.85 1.0 Q1.4 1.0 0.45 1.9 -0.6 2.75 -0.6 4.0 L-0.6 20.7 Q-0.6 21.95 0.45 22.8 1.4 23.7 2.85 23.7 L85.7 23.7 Q87.15 23.7 88.1 22.8 89.15 21.95 89.15 20.7 L89.15 4.0 M85.7 0.0 Q87.6 0.0 88.95 1.2 90.25 2.35 90.25 4.0 L90.25 20.7 Q90.25 22.35 88.95 23.55 87.6 24.7 85.7 24.7 L2.85 24.7 Q0.95 24.7 -0.35 23.55 -1.75 22.35 -1.75 20.7 L-1.75 4.0 Q-1.75 2.35 -0.35 1.2 0.95 0.0 2.85 0.0 L85.7 0.0" fill="#0068ff" fill-rule="evenodd" stroke="none"/>
  </g>
  <defs>
    <linearGradient gradientTransform="matrix(0.0, -0.0144, -0.0165, 0.0, 44.3, 12.35)" gradientUnits="userSpaceOnUse" id="gradient0" spreadMethod="pad" x1="-819.2" x2="819.2">
      <stop offset="0.0" stop-color="#05337a"/>
      <stop offset="0.17647058823529413" stop-color="#032970"/>
      <stop offset="0.4627450980392157" stop-color="#012168"/>
      <stop offset="1.0" stop-color="#001f66"/>
    </linearGradient>
  </defs>
</svg>
