<?xml version="1.0" encoding="UTF-8" standalone="no"?>
<svg xmlns:ffdec="https://www.free-decompiler.com/flash" xmlns:xlink="http://www.w3.org/1999/xlink" ffdec:objectType="shape" height="19.35px" width="34.15px" xmlns="http://www.w3.org/2000/svg">
  <g transform="matrix(1.0, 0.0, 0.0, 1.0, 4.75, 0.5)">
    <path d="M25.25 18.35 L-1.35 18.35 -4.15 15.6 6.2 0.0 17.85 0.0 28.75 15.6 25.25 18.35" fill="url(#gradient0)" fill-rule="evenodd" stroke="none"/>
    <path d="M25.25 18.35 L-1.35 18.35 -4.15 15.6 6.2 0.0 17.85 0.0 28.75 15.6 25.25 18.35 Z" fill="none" stroke="#736357" stroke-linecap="butt" stroke-linejoin="miter-clip" stroke-miterlimit="4.0" stroke-width="1.0"/>
    <path d="M21.3 16.15 L2.4 16.15 -0.05 13.7 7.6 2.2 16.2 2.2 24.3 13.2 21.3 16.15" fill="#000102" fill-rule="evenodd" stroke="none"/>
    <path d="M14.25 9.0 L17.5 13.9 14.2 13.9 12.35 10.85 10.45 13.9 7.2 13.9 10.45 8.95 7.45 4.4 10.7 4.4 12.4 7.35 14.0 4.4 17.2 4.4 14.25 9.0" fill="#fea015" fill-rule="evenodd" stroke="none"/>
  </g>
  <defs>
    <linearGradient gradientTransform="matrix(0.0, -0.0112, 0.0112, 0.0, 12.3, 9.15)" gradientUnits="userSpaceOnUse" id="gradient0" spreadMethod="pad" x1="-819.2" x2="819.2">
      <stop offset="0.0" stop-color="#242424"/>
      <stop offset="1.0" stop-color="#505050"/>
    </linearGradient>
  </defs>
</svg>
