<?xml version="1.0" encoding="UTF-8" standalone="no"?>
<svg xmlns:ffdec="https://www.free-decompiler.com/flash" xmlns:xlink="http://www.w3.org/1999/xlink" ffdec:objectType="shape" height="22.25px" width="82.8px" xmlns="http://www.w3.org/2000/svg">
  <g transform="matrix(1.0, 0.0, 0.0, 1.0, -4.6, -1.25)">
    <path d="M85.9 2.65 Q86.95 3.55 86.95 4.85 L86.95 19.9 Q86.95 21.2 85.9 22.1 84.85 23.05 83.35 23.05 L8.75 23.05 Q7.25 23.05 6.2 22.1 5.15 21.2 5.15 19.9 L5.15 4.85 Q5.15 3.55 6.2 2.65 7.25 1.7 8.75 1.7 L83.35 1.7 Q84.85 1.7 85.9 2.65" fill="url(#gradient0)" fill-rule="evenodd" stroke="none"/>
    <path d="M85.45 2.95 Q84.6 2.15 83.3 2.15 L8.75 2.15 Q7.45 2.15 6.55 2.95 5.65 3.75 5.65 4.85 L5.65 19.9 Q5.65 21.0 6.55 21.8 7.45 22.6 8.75 22.6 L83.3 22.6 Q84.6 22.6 85.45 21.8 86.4 21.0 86.4 19.9 L86.4 4.85 Q86.4 3.75 85.45 2.95 M86.25 2.35 Q87.4 3.35 87.4 4.85 L87.4 19.9 Q87.4 21.35 86.25 22.45 85.0 23.5 83.3 23.5 L8.75 23.5 Q7.05 23.5 5.85 22.45 4.6 21.35 4.6 19.9 L4.6 4.85 Q4.6 3.35 5.85 2.35 7.05 1.25 8.75 1.25 L83.3 1.25 Q85.0 1.25 86.25 2.35" fill="#0068ff" fill-rule="evenodd" stroke="none"/>
  </g>
  <defs>
    <linearGradient gradientTransform="matrix(0.0, -0.013, -0.0148, 0.0, 256.0, 12.05)" gradientUnits="userSpaceOnUse" id="gradient0" spreadMethod="pad" x1="-819.2" x2="819.2">
      <stop offset="0.0" stop-color="#004bc2"/>
      <stop offset="0.7647058823529411" stop-color="#003498"/>
      <stop offset="1.0" stop-color="#0057d9"/>
    </linearGradient>
  </defs>
</svg>
