<?xml version="1.0" encoding="UTF-8" standalone="no"?>
<svg xmlns:ffdec="https://www.free-decompiler.com/flash" xmlns:xlink="http://www.w3.org/1999/xlink" ffdec:objectType="shape" height="24.7px" width="105.05px" xmlns="http://www.w3.org/2000/svg">
  <g transform="matrix(1.0, 0.0, 0.0, 1.0, 0.05, 0.0)">
    <path d="M3.95 24.2 L102.5 24.2 Q104.0 24.2 104.45 23.3 104.7 22.35 103.6 21.35 L82.2 2.6 Q81.2 1.75 79.6 1.1 77.95 0.5 76.6 0.5 L3.95 0.5 Q2.5 0.5 1.5 1.55 0.45 2.6 0.45 4.0 L0.45 20.7 Q0.45 22.15 1.5 23.15 2.5 24.2 3.95 24.2" fill="#012269" fill-rule="evenodd" stroke="none"/>
    <path d="M3.95 0.0 Q2.3 0.0 1.1 1.2 -0.05 2.35 -0.05 4.0 L-0.05 20.7 Q-0.05 22.35 1.1 23.55 2.3 24.7 3.95 24.7 L102.5 24.7 Q104.35 24.7 104.9 23.45 105.3 22.2 103.9 20.95 L82.55 2.25 Q81.45 1.3 79.75 0.65 78.0 0.0 76.6 0.0 L3.95 0.0 M1.85 1.9 Q2.7 1.0 3.95 1.0 L76.6 1.0 Q77.85 1.0 79.4 1.6 80.95 2.2 81.85 3.0 L103.25 21.7 Q104.2 22.55 103.95 23.1 103.75 23.7 102.5 23.7 L3.95 23.7 Q2.7 23.7 1.85 22.8 0.95 21.95 0.95 20.7 L0.95 4.0 Q0.95 2.75 1.85 1.9" fill="#399cff" fill-rule="evenodd" stroke="none"/>
  </g>
</svg>
