<?xml version="1.0" encoding="UTF-8" standalone="no"?>
<svg xmlns:ffdec="https://www.free-decompiler.com/flash" xmlns:xlink="http://www.w3.org/1999/xlink" ffdec:objectType="shape" height="24.95px" width="70.0px" xmlns="http://www.w3.org/2000/svg">
  <g transform="matrix(1.0, 0.0, 0.0, 1.0, 0.0, 0.05)">
    <path d="M66.55 24.4 L3.5 24.4 Q2.2 24.4 1.3 23.35 0.45 22.35 0.45 20.85 L0.45 4.0 Q0.45 2.5 1.3 1.5 2.2 0.45 3.5 0.45 L66.55 0.45 Q67.8 0.45 68.7 1.5 69.6 2.5 69.6 4.0 L69.6 20.85 Q69.6 22.35 68.7 23.35 67.8 24.4 66.55 24.4" fill="url(#gradient0)" fill-rule="evenodd" stroke="none"/>
    <path d="M68.35 1.85 Q67.6 0.95 66.55 0.95 L3.5 0.95 Q2.4 0.95 1.65 1.85 0.9 2.7 0.9 4.0 L0.9 20.85 Q0.9 22.15 1.65 23.0 2.4 23.9 3.5 23.9 L66.55 23.9 Q67.6 23.9 68.35 23.0 69.15 22.15 69.15 20.85 L69.15 4.0 Q69.15 2.7 68.35 1.85 M69.0 1.15 Q70.0 2.3 70.0 4.0 L70.0 20.85 Q70.0 22.55 69.0 23.75 67.95 24.9 66.55 24.9 L3.5 24.9 Q2.05 24.9 1.05 23.75 0.0 22.55 0.0 20.85 L0.0 4.0 Q0.0 2.3 1.05 1.15 2.05 -0.05 3.5 -0.05 L66.55 -0.05 Q67.95 -0.05 69.0 1.15" fill="#0068ff" fill-rule="evenodd" stroke="none"/>
  </g>
  <defs>
    <linearGradient gradientTransform="matrix(0.0, -0.0146, -0.0125, 0.0, 35.05, 12.4)" gradientUnits="userSpaceOnUse" id="gradient0" spreadMethod="pad" x1="-819.2" x2="819.2">
      <stop offset="0.0" stop-color="#05337a"/>
      <stop offset="0.17647058823529413" stop-color="#032970"/>
      <stop offset="0.4627450980392157" stop-color="#012168"/>
      <stop offset="1.0" stop-color="#001f66"/>
    </linearGradient>
  </defs>
</svg>
