<?xml version="1.0" encoding="UTF-8" standalone="no"?>
<svg xmlns:ffdec="https://www.free-decompiler.com/flash" xmlns:xlink="http://www.w3.org/1999/xlink" ffdec:objectType="shape" height="25.0px" width="70.0px" xmlns="http://www.w3.org/2000/svg">
  <g transform="matrix(1.0, 0.0, 0.0, 1.0, 0.0, 0.0)">
    <path d="M68.7 1.55 Q69.55 2.6 69.55 4.05 L69.55 20.95 Q69.55 22.45 68.7 23.45 67.8 24.5 66.55 24.5 L3.45 24.5 Q2.2 24.5 1.3 23.45 0.45 22.45 0.45 20.95 L0.45 4.05 Q0.45 2.6 1.3 1.55 2.2 0.5 3.45 0.5 L66.55 0.5 Q67.8 0.5 68.7 1.55" fill="url(#gradient0)" fill-rule="evenodd" stroke="none"/>
    <path d="M68.35 1.95 Q67.6 1.0 66.55 1.0 L3.5 1.0 Q2.4 1.0 1.65 1.95 0.9 2.8 0.9 4.05 L0.9 20.95 Q0.9 22.25 1.65 23.1 2.4 24.0 3.5 24.0 L66.55 24.0 Q67.6 24.0 68.35 23.1 69.15 22.25 69.15 20.95 L69.15 4.05 Q69.15 2.8 68.35 1.95 M69.0 1.2 Q70.0 2.4 70.0 4.05 L70.0 20.95 Q70.0 22.65 69.0 23.85 67.95 25.0 66.55 25.0 L3.5 25.0 Q2.05 25.0 1.05 23.85 0.0 22.65 0.0 20.95 L0.0 4.05 Q0.0 2.4 1.05 1.2 2.05 0.0 3.5 0.0 L66.55 0.0 Q67.95 0.0 69.0 1.2" fill="#0068ff" fill-rule="evenodd" stroke="none"/>
  </g>
  <defs>
    <linearGradient gradientTransform="matrix(0.0, -0.0146, -0.0125, 0.0, 212.5, 12.15)" gradientUnits="userSpaceOnUse" id="gradient0" spreadMethod="pad" x1="-819.2" x2="819.2">
      <stop offset="0.0" stop-color="#004bc2"/>
      <stop offset="0.7647058823529411" stop-color="#003498"/>
      <stop offset="1.0" stop-color="#0057d9"/>
    </linearGradient>
  </defs>
</svg>
