<?xml version="1.0" encoding="UTF-8" standalone="no"?>
<svg xmlns:ffdec="https://www.free-decompiler.com/flash" xmlns:xlink="http://www.w3.org/1999/xlink" ffdec:objectType="shape" height="25.0px" width="65.05px" xmlns="http://www.w3.org/2000/svg">
  <g transform="matrix(1.0, 0.0, 0.0, 1.0, -4.45, -1.7)">
    <path d="M68.3 3.2 Q69.1 4.25 69.1 5.7 L69.1 22.6 Q69.1 24.05 68.3 25.1 67.45 26.15 66.3 26.15 L7.7 26.15 Q6.55 26.15 5.7 25.1 4.9 24.05 4.9 22.6 L4.9 5.7 Q4.9 4.25 5.7 3.2 6.55 2.15 7.7 2.15 L66.3 2.15 Q67.45 2.15 68.3 3.2" fill="url(#gradient0)" fill-rule="evenodd" stroke="none"/>
    <path d="M68.55 2.95 Q69.5 4.1 69.5 5.75 L69.5 22.65 Q69.5 24.35 68.55 25.55 67.6 26.7 66.25 26.7 L7.7 26.7 Q6.35 26.7 5.45 25.55 4.45 24.35 4.45 22.65 L4.45 5.75 Q4.45 4.1 5.45 2.95 6.35 1.7 7.7 1.7 L66.25 1.7 Q67.6 1.7 68.55 2.95 M68.65 5.75 Q68.65 4.5 67.95 3.65 67.25 2.7 66.25 2.7 L7.7 2.7 Q6.7 2.7 6.0 3.65 5.3 4.5 5.3 5.75 L5.3 22.65 Q5.3 23.95 6.0 24.8 6.7 25.7 7.7 25.7 L66.25 25.7 Q67.25 25.7 67.95 24.8 68.65 23.95 68.65 22.65 L68.65 5.75" fill="#0068ff" fill-rule="evenodd" stroke="none"/>
  </g>
  <defs>
    <linearGradient gradientTransform="matrix(0.0, -0.0146, -0.0116, 0.0, 201.85, 13.8)" gradientUnits="userSpaceOnUse" id="gradient0" spreadMethod="pad" x1="-819.2" x2="819.2">
      <stop offset="0.0" stop-color="#004bc2"/>
      <stop offset="0.7647058823529411" stop-color="#003498"/>
      <stop offset="1.0" stop-color="#0057d9"/>
    </linearGradient>
  </defs>
</svg>
