<?xml version="1.0" encoding="UTF-8" standalone="no"?>
<svg xmlns:ffdec="https://www.free-decompiler.com/flash" xmlns:xlink="http://www.w3.org/1999/xlink" ffdec:objectType="shape" height="65.05px" width="514.8px" xmlns="http://www.w3.org/2000/svg">
  <g transform="matrix(1.0, 0.0, 0.0, 1.0, 257.5, 166.2)">
    <path d="M-192.65 -133.75 Q-192.65 -120.35 -202.15 -110.85 -211.65 -101.35 -225.1 -101.35 -238.5 -101.35 -248.0 -110.85 -257.5 -120.3 -257.5 -133.75 -257.5 -147.2 -248.0 -156.7 -238.5 -166.2 -225.1 -166.2 -211.65 -166.2 -202.15 -156.7 -192.65 -147.15 -192.65 -133.75" fill="url(#gradient0)" fill-rule="evenodd" stroke="none"/>
    <path d="M-225.1 -162.1 Q-213.3 -162.1 -204.95 -153.75 -196.6 -145.4 -196.6 -133.6 -196.6 -121.8 -204.95 -113.45 -213.3 -105.1 -225.1 -105.1 -236.9 -105.1 -245.25 -113.45 -253.6 -121.8 -253.6 -133.6 -253.6 -145.4 -245.25 -153.75 -236.9 -162.1 -225.1 -162.1" fill="#562602" fill-rule="evenodd" stroke="none"/>
    <path d="M257.3 -133.6 Q257.3 -120.15 247.8 -110.65 238.3 -101.15 224.85 -101.15 211.45 -101.15 201.95 -110.65 192.45 -120.15 192.45 -133.6 192.45 -147.0 201.95 -156.5 211.45 -166.0 224.85 -166.0 238.3 -166.0 247.8 -156.5 257.3 -147.05 257.3 -133.6" fill="url(#gradient1)" fill-rule="evenodd" stroke="none"/>
    <path d="M253.35 -133.6 Q253.35 -121.8 245.0 -113.45 236.65 -105.1 224.85 -105.1 213.05 -105.1 204.75 -113.45 196.4 -121.8 196.4 -133.6 196.4 -145.4 204.75 -153.75 213.1 -162.1 224.85 -162.1 236.65 -162.1 245.0 -153.75 253.35 -145.4 253.35 -133.6" fill="#042189" fill-rule="evenodd" stroke="none"/>
    <path d="M253.35 -133.6 Q253.35 -121.8 245.0 -113.45 236.65 -105.1 224.85 -105.1 213.05 -105.1 204.75 -113.45 196.4 -121.8 196.4 -133.6 196.4 -145.4 204.75 -153.75 213.1 -162.1 224.85 -162.1 236.65 -162.1 245.0 -153.75 253.35 -145.4 253.35 -133.6 M224.85 -159.1 Q214.3 -159.1 206.85 -151.6 199.4 -144.15 199.4 -133.6 199.4 -123.05 206.85 -115.6 214.3 -108.1 224.85 -108.1 235.4 -108.1 242.9 -115.6 250.35 -123.05 250.35 -133.6 250.35 -144.15 242.9 -151.6 235.4 -159.1 224.85 -159.1" fill="#075aed" fill-rule="evenodd" stroke="none"/>
    <path d="M-225.1 -159.1 Q-235.65 -159.1 -243.1 -151.6 -250.6 -144.15 -250.6 -133.6 -250.6 -123.05 -243.1 -115.6 -235.65 -108.1 -225.1 -108.1 -214.55 -108.1 -207.1 -115.6 -199.6 -123.05 -199.6 -133.6 -199.6 -144.15 -207.1 -151.6 -214.55 -159.1 -225.1 -159.1 M-245.25 -153.75 Q-236.9 -162.1 -225.1 -162.1 -213.3 -162.1 -204.95 -153.75 -196.6 -145.4 -196.6 -133.6 -196.6 -121.8 -204.95 -113.45 -213.3 -105.1 -225.1 -105.1 -236.9 -105.1 -245.25 -113.45 -253.6 -121.8 -253.6 -133.6 -253.6 -145.4 -245.25 -153.75" fill="#a57302" fill-rule="evenodd" stroke="none"/>
  </g>
  <defs>
    <linearGradient gradientTransform="matrix(0.0, -0.0396, -0.0396, 0.0, -225.1, -133.75)" gradientUnits="userSpaceOnUse" id="gradient0" spreadMethod="pad" x1="-819.2" x2="819.2">
      <stop offset="0.0" stop-color="#6a6a6a"/>
      <stop offset="0.403921568627451" stop-color="#242424"/>
      <stop offset="1.0" stop-color="#8c8c8c"/>
    </linearGradient>
    <linearGradient gradientTransform="matrix(0.0, -0.0396, -0.0396, 0.0, 224.85, -133.6)" gradientUnits="userSpaceOnUse" id="gradient1" spreadMethod="pad" x1="-819.2" x2="819.2">
      <stop offset="0.0" stop-color="#6a6a6a"/>
      <stop offset="0.403921568627451" stop-color="#242424"/>
      <stop offset="1.0" stop-color="#8c8c8c"/>
    </linearGradient>
  </defs>
</svg>
