<?xml version="1.0" encoding="UTF-8" standalone="no"?>
<svg xmlns:ffdec="https://www.free-decompiler.com/flash" xmlns:xlink="http://www.w3.org/1999/xlink" ffdec:objectType="shape" height="11.75px" width="14.3px" xmlns="http://www.w3.org/2000/svg">
  <g transform="matrix(1.0, 0.0, 0.0, 1.0, 21.15, 19.8)">
    <path d="M-21.15 -19.8 L-8.05 -19.8 Q-7.5 -19.8 -7.2 -19.35 -6.85 -18.85 -6.85 -18.3 L-6.85 -15.75 -7.05 -14.7 -7.5 -14.25 -7.75 -14.05 -7.05 -13.1 -6.85 -12.25 -6.85 -9.7 Q-6.85 -8.8 -7.2 -8.4 -7.45 -8.05 -8.05 -8.05 L-21.15 -8.05 -21.15 -10.0 -9.15 -10.0 -9.15 -13.0 -21.15 -13.0 -21.15 -15.0 -9.15 -15.0 -9.15 -17.8 -21.15 -17.8 -21.15 -19.8" fill="#fffff0" fill-rule="evenodd" stroke="none"/>
  </g>
</svg>
