<?xml version="1.0" encoding="UTF-8" standalone="no"?>
<svg xmlns:ffdec="https://www.free-decompiler.com/flash" xmlns:xlink="http://www.w3.org/1999/xlink" ffdec:objectType="shape" height="11.75px" width="14.25px" xmlns="http://www.w3.org/2000/svg">
  <g transform="matrix(1.0, 0.0, 0.0, 1.0, 21.3, 19.95)">
    <path d="M-8.25 -8.2 L-20.35 -8.2 -20.95 -8.6 Q-21.3 -8.95 -21.3 -9.85 L-21.3 -18.3 Q-21.3 -19.2 -20.95 -19.55 -20.55 -19.95 -20.35 -19.95 L-7.05 -19.95 -7.05 -17.95 -19.05 -17.95 -19.05 -15.15 -8.0 -15.15 Q-7.8 -15.15 -7.4 -14.75 -7.05 -14.4 -7.05 -13.5 L-7.05 -9.85 Q-7.05 -9.0 -7.35 -8.55 -7.7 -8.2 -8.25 -8.2 M-9.3 -13.15 L-19.05 -13.15 -19.05 -10.15 -9.3 -10.15 -9.3 -13.15" fill="#fffff0" fill-rule="evenodd" stroke="none"/>
  </g>
</svg>
