<?xml version="1.0" encoding="UTF-8" standalone="no"?>
<svg xmlns:ffdec="https://www.free-decompiler.com/flash" xmlns:xlink="http://www.w3.org/1999/xlink" ffdec:objectType="shape" height="11.75px" width="14.25px" xmlns="http://www.w3.org/2000/svg">
  <g transform="matrix(1.0, 0.0, 0.0, 1.0, 21.65, 19.7)">
    <path d="M-7.4 -18.2 L-7.4 -15.65 -7.6 -14.6 -8.0 -14.15 -8.25 -13.95 -8.05 -13.7 -7.6 -13.0 -7.4 -12.15 -7.4 -9.6 Q-7.4 -8.75 -7.7 -8.3 -8.05 -7.95 -8.6 -7.95 L-20.45 -7.95 Q-21.05 -7.95 -21.35 -8.35 -21.65 -8.7 -21.65 -9.6 L-21.65 -12.15 -21.5 -13.05 -21.0 -13.65 -20.65 -13.95 -21.1 -14.15 -21.5 -14.6 -21.65 -15.65 -21.65 -18.2 -21.35 -19.25 Q-21.05 -19.7 -20.45 -19.7 L-8.6 -19.7 Q-8.0 -19.7 -7.7 -19.25 -7.4 -18.7 -7.4 -18.2 M-9.65 -12.9 L-19.25 -12.9 -19.25 -9.9 -9.65 -9.9 -9.65 -12.9 M-9.65 -17.7 L-19.25 -17.7 -19.25 -14.9 -9.65 -14.9 -9.65 -17.7" fill="#fffff0" fill-rule="evenodd" stroke="none"/>
  </g>
</svg>
