<?xml version="1.0" encoding="UTF-8" standalone="no"?>
<svg xmlns:ffdec="https://www.free-decompiler.com/flash" xmlns:xlink="http://www.w3.org/1999/xlink" ffdec:objectType="shape" height="11.75px" width="14.3px" xmlns="http://www.w3.org/2000/svg">
  <g transform="matrix(1.0, 0.0, 0.0, 1.0, 21.1, 19.95)">
    <path d="M-18.7 -14.95 L-9.1 -14.95 -9.1 -17.95 -18.7 -17.95 -18.7 -14.95 M-19.9 -19.95 L-7.75 -19.95 Q-7.6 -19.95 -7.2 -19.55 -6.8 -19.15 -6.8 -18.3 L-6.8 -9.85 Q-6.8 -9.05 -7.15 -8.6 L-7.75 -8.2 -21.1 -8.2 -21.1 -10.15 -9.1 -10.15 -9.1 -13.0 -20.15 -13.0 -20.75 -13.4 Q-21.1 -13.85 -21.1 -14.8 L-21.1 -18.45 -20.75 -19.5 Q-20.45 -19.95 -19.9 -19.95" fill="#fffff0" fill-rule="evenodd" stroke="none"/>
  </g>
</svg>
