<?xml version="1.0" encoding="UTF-8" standalone="no"?>
<svg xmlns:ffdec="https://www.free-decompiler.com/flash" xmlns:xlink="http://www.w3.org/1999/xlink" ffdec:objectType="shape" height="13.3px" width="70.9px" xmlns="http://www.w3.org/2000/svg">
  <g transform="matrix(1.0, 0.0, 0.0, 1.0, 63.95, 0.4)">
    <path d="M-57.3 -0.2 L-54.45 0.15 Q-53.5 0.45 -52.9 1.3 -52.3 2.15 -52.3 3.4 -52.3 4.45 -52.75 5.25 -53.2 6.0 -54.0 6.5 L-55.4 7.0 -54.4 7.5 -53.75 8.15 Q-53.3 8.7 -53.2 8.95 L-51.25 12.7 -55.75 12.7 -57.9 8.75 -58.6 7.75 Q-59.05 7.45 -59.6 7.45 L-59.95 7.45 -59.95 12.7 -63.95 12.7 -63.95 -0.2 -57.3 -0.2 M-31.0 -0.2 L-31.0 7.65 Q-31.0 8.75 -30.4 9.35 -29.85 9.9 -28.8 9.9 -27.75 9.9 -27.2 9.35 -26.6 8.75 -26.6 7.65 L-26.6 -0.2 -22.6 -0.2 -22.6 7.5 Q-22.6 8.65 -23.0 9.65 -23.35 10.65 -24.1 11.45 -24.85 12.2 -25.7 12.5 L-28.5 12.9 -30.55 12.8 -32.4 12.25 -33.75 11.15 -34.6 9.65 -34.95 7.5 -34.95 -0.2 -31.0 -0.2 M-16.25 -0.2 L-11.4 6.95 -11.4 -0.2 -7.65 -0.2 -7.65 12.7 -11.4 12.7 -16.2 5.6 -16.2 12.7 -19.95 12.7 -19.95 -0.2 -16.25 -0.2 M-0.95 9.75 L0.05 9.75 1.8 9.5 2.65 8.55 2.95 6.3 Q2.95 4.25 2.25 3.5 1.6 2.75 0.05 2.75 L-0.95 2.75 -0.95 9.75 M-40.1 12.1 Q-41.55 12.9 -43.65 12.9 L-47.25 12.25 Q-48.7 11.55 -49.6 10.05 -50.5 8.55 -50.5 6.25 -50.5 3.1 -48.7 1.35 -46.95 -0.4 -43.85 -0.4 -40.6 -0.4 -38.85 1.35 -37.15 3.05 -37.15 6.15 -37.15 8.4 -37.9 9.85 -38.65 11.3 -40.1 12.1 M-41.85 3.45 Q-42.6 2.6 -43.85 2.6 -45.05 2.6 -45.75 3.45 -46.5 4.3 -46.5 6.3 -46.5 8.25 -45.75 9.1 -45.05 9.95 -43.8 9.95 -42.5 9.95 -41.8 9.1 -41.1 8.25 -41.1 6.1 -41.1 4.3 -41.85 3.45 M-58.25 5.05 L-57.2 4.85 Q-56.8 4.8 -56.55 4.45 -56.3 4.15 -56.3 3.7 -56.3 3.1 -56.7 2.75 -57.1 2.4 -58.2 2.4 L-59.95 2.4 -59.95 5.05 -58.25 5.05 M6.6 3.7 Q6.95 4.9 6.95 6.2 6.95 8.3 6.45 9.4 6.0 10.55 5.15 11.35 4.3 12.1 3.35 12.35 L1.0 12.7 -4.95 12.7 -4.95 -0.2 1.0 -0.2 3.8 0.3 Q4.9 0.75 5.6 1.65 6.3 2.55 6.6 3.7" fill="#ffffff" fill-rule="evenodd" stroke="none"/>
  </g>
</svg>
