<?xml version="1.0" encoding="UTF-8" standalone="no"?>
<svg xmlns:ffdec="https://www.free-decompiler.com/flash" xmlns:xlink="http://www.w3.org/1999/xlink" ffdec:objectType="shape" height="25.5px" width="156.0px" xmlns="http://www.w3.org/2000/svg">
  <g transform="matrix(1.0, 0.0, 0.0, 1.0, 0.0, 0.8)">
    <path d="M154.7 2.45 L131.0 22.25 128.5 23.65 125.7 24.2 3.5 24.2 Q2.25 24.2 1.4 23.3 0.5 22.45 0.5 21.2 L0.5 15.35 Q0.5 14.1 1.4 13.25 2.25 12.35 3.5 12.35 L21.7 12.35 24.5 11.8 Q26.05 11.25 27.0 10.5 L37.15 2.4 Q38.15 1.6 39.7 1.05 41.25 0.5 42.5 0.5 L154.0 0.5 Q155.25 0.5 155.45 1.1 155.65 1.65 154.7 2.45" fill="#471102" fill-rule="evenodd" stroke="none"/>
    <path d="M154.7 2.45 Q155.65 1.65 155.45 1.1 155.25 0.5 154.0 0.5 L42.5 0.5 Q41.25 0.5 39.7 1.05 38.15 1.6 37.15 2.4 L27.0 10.5 Q26.05 11.25 24.5 11.8 L21.7 12.35 3.5 12.35 Q2.25 12.35 1.4 13.25 0.5 14.1 0.5 15.35 L0.5 21.2 Q0.5 22.45 1.4 23.3 2.25 24.2 3.5 24.2 L125.7 24.2 128.5 23.65 131.0 22.25 154.7 2.45 Z" fill="none" stroke="#ea6d69" stroke-linecap="butt" stroke-linejoin="miter-clip" stroke-miterlimit="4.0" stroke-width="1.0"/>
  </g>
</svg>
