<?xml version="1.0" encoding="UTF-8" standalone="no"?>
<svg xmlns:ffdec="https://www.free-decompiler.com/flash" xmlns:xlink="http://www.w3.org/1999/xlink" ffdec:objectType="shape" height="23.2px" width="284.8px" xmlns="http://www.w3.org/2000/svg">
  <g transform="matrix(1.0, 0.0, 0.0, 1.0, 0.0, 0.0)">
    <path d="M6.0 0.0 L125.25 0.0 Q126.1 0.0 126.65 0.6 127.25 1.2 127.25 2.0 L127.25 16.05 126.85 17.9 Q126.45 18.9 125.85 19.5 L123.65 21.75 Q123.1 22.35 122.1 22.8 L120.25 23.2 2.0 23.2 Q1.2 23.2 0.6 22.6 0.0 22.05 0.0 21.2 L0.0 6.05 Q0.0 5.25 0.4 4.2 0.85 3.2 1.4 2.65 L2.6 1.45 4.2 0.45 Q5.2 0.0 6.0 0.0" fill="url(#gradient0)" fill-rule="evenodd" stroke="none"/>
    <path d="M29.0 2.0 L122.25 2.0 Q122.65 2.0 122.95 2.3 L123.25 3.0 123.25 15.05 Q123.25 16.15 122.55 16.75 L118.95 20.5 Q118.25 21.2 117.25 21.2 L25.0 21.2 24.3 20.9 Q24.0 20.6 24.0 20.2 L24.0 7.05 Q24.0 6.15 24.7 5.35 L27.3 2.7 Q28.1 2.0 29.0 2.0" fill="url(#gradient1)" fill-rule="evenodd" stroke="none"/>
    <path d="M190.05 2.0 L283.3 2.0 Q283.7 2.0 284.0 2.3 L284.3 3.0 284.3 15.05 Q284.3 16.15 283.6 16.75 L280.0 20.5 Q279.2 21.2 278.3 21.2 L186.05 21.2 Q185.65 21.2 185.35 20.9 185.05 20.6 185.05 20.2 L185.05 7.05 Q185.05 6.15 185.75 5.35 L188.35 2.7 Q189.15 2.0 190.05 2.0" fill="url(#gradient2)" fill-rule="evenodd" stroke="none"/>
    <path d="M190.05 2.0 L283.3 2.0 Q283.7 2.0 284.0 2.3 L284.3 3.0 284.3 15.05 Q284.3 16.15 283.6 16.75 L280.0 20.5 Q279.2 21.2 278.3 21.2 L186.05 21.2 Q185.65 21.2 185.35 20.9 185.05 20.6 185.05 20.2 L185.05 7.05 Q185.05 6.15 185.75 5.35 L188.35 2.7 Q189.15 2.0 190.05 2.0 Z" fill="none" stroke="#1a75bb" stroke-linecap="butt" stroke-linejoin="miter-clip" stroke-miterlimit="4.0" stroke-width="1.0"/>
    <path d="M18.4 19.1 L3.4 19.1 3.4 4.1 18.4 4.1 18.4 19.1" fill="#1b1d1e" fill-rule="evenodd" stroke="none"/>
    <path d="M18.4 19.1 L3.4 19.1 3.4 4.1 18.4 4.1 18.4 19.1 Z" fill="none" stroke="#0099ff" stroke-linecap="butt" stroke-linejoin="miter-clip" stroke-miterlimit="4.0" stroke-width="1.0"/>
    <path d="M179.9 19.1 L164.9 19.1 164.9 4.1 179.9 4.1 179.9 19.1" fill="#1b1d1e" fill-rule="evenodd" stroke="none"/>
    <path d="M179.9 19.1 L164.9 19.1 164.9 4.1 179.9 4.1 179.9 19.1 Z" fill="none" stroke="#0099ff" stroke-linecap="butt" stroke-linejoin="miter-clip" stroke-miterlimit="4.0" stroke-width="1.0"/>
  </g>
  <defs>
    <linearGradient gradientTransform="matrix(0.0, -0.0141, -0.0141, 0.0, 63.65, 11.6)" gradientUnits="userSpaceOnUse" id="gradient0" spreadMethod="pad" x1="-819.2" x2="819.2">
      <stop offset="0.0" stop-color="#003680"/>
      <stop offset="0.3137254901960784" stop-color="#004290"/>
      <stop offset="0.9176470588235294" stop-color="#0062b8"/>
      <stop offset="1.0" stop-color="#00c4ff"/>
    </linearGradient>
    <linearGradient gradientTransform="matrix(0.0606, 0.0, 0.0, -0.0606, 73.65, 11.6)" gradientUnits="userSpaceOnUse" id="gradient1" spreadMethod="pad" x1="-819.2" x2="819.2">
      <stop offset="0.0" stop-color="#001440"/>
      <stop offset="0.1607843137254902" stop-color="#002051"/>
      <stop offset="0.3764705882352941" stop-color="#002c63"/>
      <stop offset="0.5333333333333333" stop-color="#003069"/>
      <stop offset="0.6745098039215687" stop-color="#002b62"/>
      <stop offset="0.8901960784313725" stop-color="#001d4d"/>
      <stop offset="1.0" stop-color="#001440"/>
    </linearGradient>
    <linearGradient gradientTransform="matrix(0.0606, 0.0, 0.0, -0.0606, 234.7, 11.6)" gradientUnits="userSpaceOnUse" id="gradient2" spreadMethod="pad" x1="-819.2" x2="819.2">
      <stop offset="0.0" stop-color="#001440"/>
      <stop offset="0.1607843137254902" stop-color="#002051"/>
      <stop offset="0.3764705882352941" stop-color="#002c63"/>
      <stop offset="0.5333333333333333" stop-color="#003069"/>
      <stop offset="0.6745098039215687" stop-color="#002b62"/>
      <stop offset="0.8901960784313725" stop-color="#001d4d"/>
      <stop offset="1.0" stop-color="#001440"/>
    </linearGradient>
  </defs>
</svg>
