<?xml version="1.0" encoding="UTF-8" standalone="no"?>
<svg xmlns:ffdec="https://www.free-decompiler.com/flash" xmlns:xlink="http://www.w3.org/1999/xlink" ffdec:objectType="shape" height="21.55px" width="61.25px" xmlns="http://www.w3.org/2000/svg">
  <g transform="matrix(1.0, 0.0, 0.0, 1.0, 0.0, 0.0)">
    <path d="M57.75 0.5 Q59.0 0.5 59.85 1.4 60.75 2.25 60.75 3.5 L60.75 18.05 Q60.75 19.3 59.85 20.15 59.0 21.05 57.75 21.05 L11.05 21.05 Q9.8 21.05 8.3 20.45 6.8 19.8 5.9 18.95 L2.65 15.7 Q1.75 14.85 1.15 13.35 0.5 11.85 0.5 10.6 L0.5 3.5 Q0.5 2.25 1.4 1.4 2.25 0.5 3.5 0.5 L57.75 0.5" fill="#c6a105" fill-rule="evenodd" stroke="none"/>
    <path d="M57.75 0.5 L3.5 0.5 Q2.25 0.5 1.4 1.4 0.5 2.25 0.5 3.5 L0.5 10.6 Q0.5 11.85 1.15 13.35 1.75 14.85 2.65 15.7 L5.9 18.95 Q6.8 19.8 8.3 20.45 9.8 21.05 11.05 21.05 L57.75 21.05 Q59.0 21.05 59.85 20.15 60.75 19.3 60.75 18.05 L60.75 3.5 Q60.75 2.25 59.85 1.4 59.0 0.5 57.75 0.5 Z" fill="none" stroke="#ffe600" stroke-linecap="butt" stroke-linejoin="miter-clip" stroke-miterlimit="4.0" stroke-width="1.0"/>
  </g>
</svg>
