<?xml version="1.0" encoding="UTF-8" standalone="no"?>
<svg xmlns:ffdec="https://www.free-decompiler.com/flash" xmlns:xlink="http://www.w3.org/1999/xlink" ffdec:objectType="shape" height="24.7px" width="155.95px" xmlns="http://www.w3.org/2000/svg">
  <g transform="matrix(1.0, 0.0, 0.0, 1.0, 0.0, 0.0)">
    <path d="M152.45 24.2 L30.3 24.2 27.5 23.65 Q25.95 23.05 25.0 22.25 L1.3 2.45 Q0.35 1.65 0.55 1.1 0.75 0.5 2.0 0.5 L113.5 0.5 Q114.75 0.5 116.3 1.05 117.85 1.6 118.8 2.4 L128.95 10.5 Q129.95 11.25 131.5 11.8 133.05 12.35 134.3 12.35 L152.45 12.35 Q153.7 12.35 154.55 13.25 155.45 14.1 155.45 15.35 L155.45 21.2 Q155.45 22.45 154.55 23.3 153.7 24.2 152.45 24.2" fill="#12067f" fill-rule="evenodd" stroke="none"/>
    <path d="M152.45 24.2 L30.3 24.2 27.5 23.65 Q25.95 23.05 25.0 22.25 L1.3 2.45 Q0.35 1.65 0.55 1.1 0.75 0.5 2.0 0.5 L113.5 0.5 Q114.75 0.5 116.3 1.05 117.85 1.6 118.8 2.4 L128.95 10.5 Q129.95 11.25 131.5 11.8 133.05 12.35 134.3 12.35 L152.45 12.35 Q153.7 12.35 154.55 13.25 155.45 14.1 155.45 15.35 L155.45 21.2 Q155.45 22.45 154.55 23.3 153.7 24.2 152.45 24.2 Z" fill="none" stroke="#2453ff" stroke-linecap="butt" stroke-linejoin="miter-clip" stroke-miterlimit="4.0" stroke-width="1.0"/>
  </g>
</svg>
