<?xml version="1.0" encoding="UTF-8" standalone="no"?>
<svg xmlns:ffdec="https://www.free-decompiler.com/flash" xmlns:xlink="http://www.w3.org/1999/xlink" ffdec:objectType="shape" height="14.25px" width="596.9px" xmlns="http://www.w3.org/2000/svg">
  <g transform="matrix(1.0, 0.0, 0.0, 1.0, -96.5, -8.85)">
    <path d="M119.5 20.1 Q119.5 21.05 118.85 21.7 118.2 22.35 117.25 22.35 L99.25 22.35 Q98.35 22.35 97.7 21.7 97.0 21.05 97.0 20.1 L97.0 11.6 Q97.0 10.65 97.7 10.0 98.35 9.35 99.25 9.35 L117.25 9.35 Q118.2 9.35 118.85 10.0 119.5 10.65 119.5 11.6 L119.5 20.1" fill="#00a4ff" fill-opacity="0.3372549" fill-rule="evenodd" stroke="none"/>
    <path d="M119.5 20.1 Q119.5 21.05 118.85 21.7 118.2 22.35 117.25 22.35 L99.25 22.35 Q98.35 22.35 97.7 21.7 97.0 21.05 97.0 20.1 L97.0 11.6 Q97.0 10.65 97.7 10.0 98.35 9.35 99.25 9.35 L117.25 9.35 Q118.2 9.35 118.85 10.0 119.5 10.65 119.5 11.6 L119.5 20.1 Z" fill="none" stroke="#50f7ff" stroke-linecap="butt" stroke-linejoin="miter-clip" stroke-miterlimit="4.0" stroke-opacity="0.6" stroke-width="1.0"/>
    <path d="M692.9 20.1 Q692.9 21.05 692.25 21.7 691.6 22.35 690.65 22.35 L672.65 22.35 Q671.7 22.35 671.05 21.7 670.4 21.05 670.4 20.1 L670.4 11.6 Q670.4 10.65 671.05 10.0 671.7 9.35 672.65 9.35 L690.65 9.35 Q691.6 9.35 692.25 10.0 692.9 10.65 692.9 11.6 L692.9 20.1" fill="#d16b05" fill-opacity="0.29803923" fill-rule="evenodd" stroke="none"/>
    <path d="M692.9 20.1 Q692.9 21.05 692.25 21.7 691.6 22.35 690.65 22.35 L672.65 22.35 Q671.7 22.35 671.05 21.7 670.4 21.05 670.4 20.1 L670.4 11.6 Q670.4 10.65 671.05 10.0 671.7 9.35 672.65 9.35 L690.65 9.35 Q691.6 9.35 692.25 10.0 692.9 10.65 692.9 11.6 L692.9 20.1 Z" fill="none" stroke="#ed8a06" stroke-linecap="butt" stroke-linejoin="miter-clip" stroke-miterlimit="4.0" stroke-width="1.0"/>
  </g>
</svg>
