<?xml version="1.0" encoding="UTF-8" standalone="no"?>
<svg xmlns:ffdec="https://www.free-decompiler.com/flash" xmlns:xlink="http://www.w3.org/1999/xlink" ffdec:objectType="shape" height="51.75px" width="745.75px" xmlns="http://www.w3.org/2000/svg">
  <g transform="matrix(1.0, 0.0, 0.0, 1.0, -9.6, -6.15)">
    <path d="M738.95 55.15 L723.65 55.15 722.65 56.4 709.5 56.4 707.3 54.2 707.3 51.65 710.15 54.5 752.5 54.5 755.35 51.65 755.35 54.2 753.1 56.4 739.95 56.4 738.95 55.15" fill="url(#gradient0)" fill-rule="evenodd" stroke="none"/>
    <path d="M738.95 7.4 L739.95 6.15 753.1 6.15 755.35 8.4 755.35 10.9 752.5 8.05 710.15 8.05 707.3 10.9 707.3 8.4 709.5 6.15 722.65 6.15 723.65 7.4 738.95 7.4" fill="url(#gradient1)" fill-rule="evenodd" stroke="none"/>
    <path d="M42.25 57.9 L41.3 56.65 26.0 56.65 25.0 57.9 11.85 57.9 9.6 55.7 9.6 53.15 12.45 56.0 54.8 56.0 57.65 53.15 57.65 55.7 55.45 57.9 42.25 57.9" fill="url(#gradient2)" fill-rule="evenodd" stroke="none"/>
    <path d="M54.8 8.05 L12.45 8.05 9.6 10.9 9.6 8.4 11.85 6.15 25.0 6.15 26.0 7.4 41.3 7.4 42.25 6.15 55.45 6.15 57.65 8.4 57.65 10.9 54.8 8.05" fill="url(#gradient3)" fill-rule="evenodd" stroke="none"/>
  </g>
  <defs>
    <linearGradient gradientTransform="matrix(0.0, 0.0029, -0.0029, 0.0, 731.3, 54.05)" gradientUnits="userSpaceOnUse" id="gradient0" spreadMethod="pad" x1="-819.2" x2="819.2">
      <stop offset="0.0" stop-color="#75757a"/>
      <stop offset="1.0" stop-color="#bac2c2"/>
    </linearGradient>
    <linearGradient gradientTransform="matrix(0.0, 0.0029, -0.0029, 0.0, 731.3, 8.55)" gradientUnits="userSpaceOnUse" id="gradient1" spreadMethod="pad" x1="-819.2" x2="819.2">
      <stop offset="0.0" stop-color="#75757a"/>
      <stop offset="1.0" stop-color="#bac2c2"/>
    </linearGradient>
    <linearGradient gradientTransform="matrix(0.0, -0.0029, -0.0029, 0.0, 33.65, 55.55)" gradientUnits="userSpaceOnUse" id="gradient2" spreadMethod="pad" x1="-819.2" x2="819.2">
      <stop offset="0.0" stop-color="#75757a"/>
      <stop offset="1.0" stop-color="#bac2c2"/>
    </linearGradient>
    <linearGradient gradientTransform="matrix(0.0, -0.0029, -0.0029, 0.0, 33.65, 8.55)" gradientUnits="userSpaceOnUse" id="gradient3" spreadMethod="pad" x1="-819.2" x2="819.2">
      <stop offset="0.0" stop-color="#75757a"/>
      <stop offset="1.0" stop-color="#bac2c2"/>
    </linearGradient>
  </defs>
</svg>
