<?xml version="1.0" encoding="UTF-8" standalone="no"?>
<svg xmlns:ffdec="https://www.free-decompiler.com/flash" xmlns:xlink="http://www.w3.org/1999/xlink" ffdec:objectType="shape" height="72.3px" width="350.5px" xmlns="http://www.w3.org/2000/svg">
  <g transform="matrix(1.0, 0.0, 0.0, 1.0, 177.1, 103.45)">
    <path d="M168.05 -102.3 Q169.5 -101.65 170.3 -100.7 L171.4 -99.5 Q172.2 -98.55 172.65 -97.05 173.05 -95.5 172.85 -94.3 L163.9 -42.2 Q163.7 -41.0 162.65 -40.1 161.6 -39.25 160.35 -39.25 L-164.05 -39.25 Q-165.3 -39.25 -166.3 -40.1 -167.35 -41.0 -167.55 -42.2 L-176.55 -94.3 Q-176.75 -95.5 -176.4 -97.1 -176.05 -98.7 -175.35 -99.7 L-174.75 -100.5 Q-174.05 -101.5 -172.65 -102.25 -171.3 -102.95 -170.05 -102.95 L165.35 -102.95 168.05 -102.3 Z" fill="none" stroke="#29abe2" stroke-linecap="butt" stroke-linejoin="miter-clip" stroke-miterlimit="4.0" stroke-width="1.0"/>
    <path d="M168.05 -102.3 Q169.5 -101.65 170.3 -100.7 L171.4 -99.5 Q172.2 -98.55 172.65 -97.05 173.05 -95.5 172.85 -94.3 L163.9 -42.2 Q163.7 -41.0 162.65 -40.1 161.6 -39.25 160.35 -39.25 L-164.05 -39.25 Q-165.3 -39.25 -166.3 -40.1 -167.35 -41.0 -167.55 -42.2 L-176.55 -94.3 Q-176.75 -95.5 -176.4 -97.1 -176.05 -98.7 -175.35 -99.7 L-174.75 -100.5 Q-174.05 -101.5 -172.65 -102.25 -171.3 -102.95 -170.05 -102.95 L165.35 -102.95 168.05 -102.3" fill="url(#gradient0)" fill-rule="evenodd" stroke="none"/>
    <path d="M102.4 -39.85 L103.95 -34.55 Q104.35 -33.35 103.7 -32.5 103.1 -31.65 101.85 -31.65 L-97.65 -31.65 Q-98.9 -31.65 -99.55 -32.5 -100.2 -33.35 -99.95 -34.55 L-98.7 -39.8 Q-98.4 -41.0 -97.3 -41.85 -96.25 -42.7 -95.0 -42.7 L98.55 -42.7 Q99.8 -42.7 100.9 -41.85 102.0 -41.0 102.4 -39.85" fill="url(#gradient1)" fill-rule="evenodd" stroke="none"/>
    <path d="M102.4 -39.85 L103.95 -34.55 Q104.35 -33.35 103.7 -32.5 103.1 -31.65 101.85 -31.65 L-97.65 -31.65 Q-98.9 -31.65 -99.55 -32.5 -100.2 -33.35 -99.95 -34.55 L-98.7 -39.8 Q-98.4 -41.0 -97.3 -41.85 -96.25 -42.7 -95.0 -42.7 L98.55 -42.7 Q99.8 -42.7 100.9 -41.85 102.0 -41.0 102.4 -39.85 Z" fill="none" stroke="#29abe2" stroke-linecap="butt" stroke-linejoin="miter-clip" stroke-miterlimit="4.0" stroke-width="1.0"/>
  </g>
  <defs>
    <linearGradient gradientTransform="matrix(0.0, -0.0389, -0.0389, 0.0, -1.85, -71.1)" gradientUnits="userSpaceOnUse" id="gradient0" spreadMethod="pad" x1="-819.2" x2="819.2">
      <stop offset="0.0" stop-color="#3bbdf0"/>
      <stop offset="0.050980392156862744" stop-color="#0040b0"/>
      <stop offset="0.09019607843137255" stop-color="#003ea7"/>
      <stop offset="0.2196078431372549" stop-color="#00378c"/>
      <stop offset="0.36470588235294116" stop-color="#003277"/>
      <stop offset="0.5254901960784314" stop-color="#002e68"/>
      <stop offset="0.7137254901960784" stop-color="#002c5f"/>
      <stop offset="1.0" stop-color="#002b5c"/>
    </linearGradient>
    <linearGradient gradientTransform="matrix(0.0, -0.0067, -0.0067, 0.0, 2.05, -37.2)" gradientUnits="userSpaceOnUse" id="gradient1" spreadMethod="pad" x1="-819.2" x2="819.2">
      <stop offset="0.0" stop-color="#3bbdf0"/>
      <stop offset="0.050980392156862744" stop-color="#0040b0"/>
      <stop offset="0.09019607843137255" stop-color="#003ea7"/>
      <stop offset="0.2196078431372549" stop-color="#00378c"/>
      <stop offset="0.36470588235294116" stop-color="#003277"/>
      <stop offset="0.5254901960784314" stop-color="#002e68"/>
      <stop offset="0.7137254901960784" stop-color="#002c5f"/>
      <stop offset="1.0" stop-color="#002b5c"/>
    </linearGradient>
  </defs>
</svg>
