<?xml version="1.0" encoding="UTF-8" standalone="no"?>
<svg xmlns:ffdec="https://www.free-decompiler.com/flash" xmlns:xlink="http://www.w3.org/1999/xlink" ffdec:objectType="shape" height="42.35px" width="32.25px" xmlns="http://www.w3.org/2000/svg">
  <g transform="matrix(1.0, 0.0, 0.0, 1.0, 0.0, 0.0)">
    <path d="M5.35 0.0 L5.35 0.7 0.65 0.7 0.65 5.35 0.0 5.35 0.0 0.0 5.35 0.0" fill="#ffb206" fill-rule="evenodd" stroke="none"/>
    <path d="M31.4 0.7 L26.75 0.7 26.75 0.0 32.1 0.0 32.1 5.35 31.4 5.35 31.4 0.7" fill="#ffb206" fill-rule="evenodd" stroke="none"/>
    <path d="M5.3 32.2 L0.0 32.2 0.0 26.9 0.65 26.9 0.65 31.55 5.3 31.55 5.3 32.2" fill="#ffb206" fill-rule="evenodd" stroke="none"/>
    <path d="M31.6 31.55 L31.6 26.9 32.25 26.9 32.25 32.2 26.9 32.2 26.9 31.55 31.6 31.55" fill="#ffb206" fill-rule="evenodd" stroke="none"/>
    <path d="M5.8 32.1 L5.8 40.2 7.2 41.85 24.9 41.85 26.4 40.2 26.4 32.1 5.8 32.1 Z" fill="none" stroke="#ed8a06" stroke-linecap="butt" stroke-linejoin="miter-clip" stroke-miterlimit="4.0" stroke-width="1.0"/>
    <path d="M5.8 32.1 L26.4 32.1 26.4 40.2 24.9 41.85 7.2 41.85 5.8 40.2 5.8 32.1" fill="#682304" fill-opacity="0.29803923" fill-rule="evenodd" stroke="none"/>
  </g>
</svg>
