<?xml version="1.0" encoding="UTF-8" standalone="no"?>
<svg xmlns:ffdec="https://www.free-decompiler.com/flash" xmlns:xlink="http://www.w3.org/1999/xlink" ffdec:objectType="shape" height="37.55px" width="83.45px" xmlns="http://www.w3.org/2000/svg">
  <g transform="matrix(1.0, 0.0, 0.0, 1.0, 0.0, 0.0)">
    <path d="M41.7 37.05 Q24.7 37.05 12.6 31.7 0.5 26.35 0.5 18.8 0.5 11.25 12.6 5.85 24.65 0.5 41.7 0.5 58.75 0.5 70.85 5.85 82.95 11.25 82.95 18.8 82.95 26.35 70.85 31.7 58.75 37.05 41.7 37.05 M41.7 1.15 Q27.35 1.15 17.15 5.85 7.0 10.5 7.0 17.15 7.0 23.8 17.15 28.5 27.35 33.2 41.7 33.2 56.05 33.2 66.25 28.5 76.45 23.8 76.45 17.15 76.45 10.5 66.25 5.85 56.1 1.15 41.7 1.15" fill="#086ec1" fill-opacity="0.29803923" fill-rule="evenodd" stroke="none"/>
    <path d="M41.7 37.05 Q24.7 37.05 12.6 31.7 0.5 26.35 0.5 18.8 0.5 11.25 12.6 5.85 24.65 0.5 41.7 0.5 58.75 0.5 70.85 5.85 82.95 11.25 82.95 18.8 82.95 26.35 70.85 31.7 58.75 37.05 41.7 37.05 M41.7 1.15 Q27.35 1.15 17.15 5.85 7.0 10.5 7.0 17.15 7.0 23.8 17.15 28.5 27.35 33.2 41.7 33.2 56.05 33.2 66.25 28.5 76.45 23.8 76.45 17.15 76.45 10.5 66.25 5.85 56.1 1.15 41.7 1.15 Z" fill="none" stroke="#0092ff" stroke-linecap="butt" stroke-linejoin="miter-clip" stroke-miterlimit="4.0" stroke-width="1.0"/>
  </g>
</svg>
