<?xml version="1.0" encoding="UTF-8" standalone="no"?>
<svg xmlns:ffdec="https://www.free-decompiler.com/flash" xmlns:xlink="http://www.w3.org/1999/xlink" ffdec:objectType="shape" height="14.9px" width="36.4px" xmlns="http://www.w3.org/2000/svg">
  <g transform="matrix(1.0, 0.0, 0.0, 1.0, -170.75, -7.95)">
    <path d="M193.4 10.25 L188.05 13.2 194.5 15.1 199.9 12.15 205.8 13.9 190.45 22.3 184.5 20.55 190.7 17.15 184.25 15.25 178.05 18.65 172.1 16.9 187.5 8.5 193.4 10.25" fill="#086ec1" fill-rule="evenodd" stroke="none"/>
    <path d="M193.4 10.25 L188.05 13.2 194.5 15.1 199.9 12.15 205.8 13.9 190.45 22.3 184.5 20.55 190.7 17.15 184.25 15.25 178.05 18.65 172.1 16.9 187.5 8.5 193.4 10.25 Z" fill="none" stroke="#0092ff" stroke-linecap="butt" stroke-linejoin="miter-clip" stroke-miterlimit="4.0" stroke-width="1.0"/>
  </g>
</svg>
