<?xml version="1.0" encoding="UTF-8" standalone="no"?>
<svg xmlns:ffdec="https://www.free-decompiler.com/flash" xmlns:xlink="http://www.w3.org/1999/xlink" ffdec:objectType="shape" height="20.3px" width="35.45px" xmlns="http://www.w3.org/2000/svg">
  <g transform="matrix(1.0, 0.0, 0.0, 1.0, 1.25, -0.55)">
    <path d="M10.3 1.55 L21.9 1.55 32.85 17.1 29.3 19.85 2.75 19.85 0.0 17.1 10.3 1.55" fill="#05457f" fill-rule="evenodd" stroke="none"/>
    <path d="M10.3 1.55 L21.9 1.55 32.85 17.1 29.3 19.85 2.75 19.85 0.0 17.1 10.3 1.55 Z" fill="none" stroke="#19cbf4" stroke-linecap="butt" stroke-linejoin="miter-clip" stroke-miterlimit="4.0" stroke-width="2.0"/>
    <path d="M12.1 4.05 L20.35 4.05 28.1 14.55 25.3 17.35 7.15 17.35 4.8 15.05 12.1 4.05" fill="#020526" fill-rule="evenodd" stroke="none"/>
    <path d="M12.1 4.05 L20.35 4.05 28.1 14.55 25.3 17.35 7.15 17.35 4.8 15.05 12.1 4.05" fill="#020526" fill-rule="evenodd" stroke="none"/>
  </g>
</svg>
