<?xml version="1.0" encoding="UTF-8" standalone="no"?>
<svg xmlns:ffdec="https://www.free-decompiler.com/flash" xmlns:xlink="http://www.w3.org/1999/xlink" ffdec:objectType="shape" height="38.65px" width="37.05px" xmlns="http://www.w3.org/2000/svg">
  <g transform="matrix(1.0, 0.0, 0.0, 1.0, -26.05, -4.05)">
    <path d="M51.35 9.75 Q53.4 4.25 56.3 4.45 59.15 4.6 61.2 10.3 63.2 16.1 63.1 23.9 63.05 31.8 61.0 37.35 58.9 42.85 56.0 42.7 53.1 42.55 51.15 36.85 49.15 31.2 49.2 23.15 49.2 15.35 51.35 9.75" fill="#333c49" fill-rule="evenodd" stroke="none"/>
    <path d="M49.4 9.4 Q51.45 3.95 54.4 4.05 57.25 4.25 59.25 9.95 61.25 15.7 61.2 23.6 61.1 31.45 59.05 37.05 56.95 42.55 54.1 42.35 51.2 42.25 49.2 36.5 47.2 30.9 47.3 22.85 47.3 15.0 49.4 9.4" fill="url(#gradient0)" fill-rule="evenodd" stroke="none"/>
    <path d="M52.55 7.9 Q54.7 8.0 56.25 12.55 57.75 17.05 57.7 23.4 57.65 29.7 56.05 34.1 54.45 38.45 52.3 38.35 50.1 38.25 48.6 33.7 47.1 29.15 47.15 22.85 47.2 16.55 48.75 12.15 50.35 7.75 52.55 7.9" fill="#1a94e5" fill-rule="evenodd" stroke="none"/>
    <path d="M50.2 22.85 Q50.25 17.5 51.55 13.85 52.9 10.15 54.75 10.2 L55.3 10.4 Q56.45 12.5 57.1 15.9 57.75 19.4 57.7 23.4 57.65 31.25 55.3 35.75 L54.55 35.95 Q52.7 35.85 51.45 32.0 50.15 28.2 50.2 22.85" fill="#45e5ff" fill-rule="evenodd" stroke="none"/>
    <path d="M26.05 40.95 L26.05 5.4 54.4 11.6 54.4 35.5 26.05 40.95" fill="url(#gradient1)" fill-rule="evenodd" stroke="none"/>
  </g>
  <defs>
    <linearGradient gradientTransform="matrix(0.013, 4.0E-4, -2.0E-4, 0.0085, 54.2, 23.2)" gradientUnits="userSpaceOnUse" id="gradient0" spreadMethod="pad" x1="-819.2" x2="819.2">
      <stop offset="0.10980392156862745" stop-color="#aaaaaa"/>
      <stop offset="1.0" stop-color="#282828"/>
    </linearGradient>
    <linearGradient gradientTransform="matrix(0.0173, 0.0, 0.0, -0.0173, 40.25, 23.15)" gradientUnits="userSpaceOnUse" id="gradient1" spreadMethod="pad" x1="-819.2" x2="819.2">
      <stop offset="0.0" stop-color="#1a68ff" stop-opacity="0.0"/>
      <stop offset="0.19607843137254902" stop-color="#1b6bff" stop-opacity="0.019607844"/>
      <stop offset="0.3568627450980392" stop-color="#1e76ff" stop-opacity="0.08627451"/>
      <stop offset="0.5058823529411764" stop-color="#2387ff" stop-opacity="0.20392157"/>
      <stop offset="0.6509803921568628" stop-color="#2a9fff" stop-opacity="0.3647059"/>
      <stop offset="0.788235294117647" stop-color="#33bfff" stop-opacity="0.57254905"/>
      <stop offset="0.9215686274509803" stop-color="#3de5ff" stop-opacity="0.8235294"/>
      <stop offset="1.0" stop-color="#45ffff"/>
    </linearGradient>
  </defs>
</svg>
