<?xml version="1.0" encoding="UTF-8" standalone="no"?>
<svg xmlns:ffdec="https://www.free-decompiler.com/flash" xmlns:xlink="http://www.w3.org/1999/xlink" ffdec:objectType="shape" height="17.4px" width="54.85px" xmlns="http://www.w3.org/2000/svg">
  <g transform="matrix(1.0, 0.0, 0.0, 1.0, 9.35, -14.85)">
    <path d="M41.35 24.15 L45.5 24.15 45.5 24.65 41.35 24.65 38.15 25.5 23.85 25.85 22.45 27.3 20.0 27.45 16.55 30.3 9.5 30.3 5.35 32.25 0.4 32.05 0.5 29.95 -2.3 32.05 -6.35 31.5 -5.7 28.45 -9.35 28.7 -9.35 27.4 -3.5 26.1 -3.65 18.3 -1.65 18.3 -1.7 14.85 0.85 14.85 4.3 18.75 8.65 18.75 Q12.35 21.5 12.3 21.75 L17.2 21.8 22.35 21.75 Q22.8 21.85 26.65 20.35 L34.0 20.95 41.35 24.15" fill="url(#gradient0)" fill-rule="evenodd" stroke="none"/>
    <path d="M26.35 20.5 Q26.4 20.0 27.5 19.7 L30.0 19.5 32.55 20.0 Q33.6 20.45 33.55 20.95 33.5 21.4 32.45 21.45 L29.95 21.4 27.45 21.1 Q26.3 20.95 26.35 20.5" fill="#43ffff" fill-rule="evenodd" stroke="none"/>
    <path d="M-0.7 18.3 L6.05 26.85 -3.5 26.1 -3.65 18.3 -0.7 18.3" fill="#08f7ff" fill-rule="evenodd" stroke="none"/>
    <path d="M-1.7 14.85 L0.85 15.0 7.75 22.5 0.6 15.25 -1.7 14.85" fill="#50ffff" fill-rule="evenodd" stroke="none"/>
    <path d="M23.85 25.85 L22.35 27.55 20.0 27.45 16.4 30.3 9.1 30.3 16.9 25.95 23.85 25.85" fill="#0786e5" fill-rule="evenodd" stroke="none"/>
  </g>
  <defs>
    <linearGradient gradientTransform="matrix(-0.0335, 0.0, 0.0, -0.0335, 18.1, 23.6)" gradientUnits="userSpaceOnUse" id="gradient0" spreadMethod="pad" x1="-819.2" x2="819.2">
      <stop offset="0.0" stop-color="#26eaff"/>
      <stop offset="0.23137254901960785" stop-color="#25e6ff"/>
      <stop offset="0.4588235294117647" stop-color="#20daff"/>
      <stop offset="0.6823529411764706" stop-color="#19c7ff"/>
      <stop offset="0.9058823529411765" stop-color="#0eabff"/>
      <stop offset="1.0" stop-color="#099dff"/>
    </linearGradient>
  </defs>
</svg>
