<?xml version="1.0" encoding="UTF-8" standalone="no"?>
<svg xmlns:ffdec="https://www.free-decompiler.com/flash" xmlns:xlink="http://www.w3.org/1999/xlink" ffdec:objectType="shape" height="15.65px" width="49.35px" xmlns="http://www.w3.org/2000/svg">
  <g transform="matrix(1.0, 0.0, 0.0, 1.0, 6.7, -15.75)">
    <path d="M38.95 24.1 L42.65 24.1 42.65 24.55 38.95 24.55 36.0 25.3 23.15 25.6 21.9 26.9 19.7 27.05 16.6 29.65 10.25 29.65 6.55 31.4 2.05 31.2 2.15 29.35 -0.35 31.2 -4.0 30.7 -3.45 28.0 -6.7 28.2 -6.7 27.0 -1.45 25.85 -1.6 18.85 0.25 18.85 0.2 15.75 2.45 15.75 5.6 19.25 9.5 19.25 Q12.85 21.75 12.8 21.95 L17.15 22.0 21.8 21.95 Q22.2 22.05 25.7 20.65 L32.3 21.2 38.95 24.1" fill="url(#gradient0)" fill-rule="evenodd" stroke="none"/>
    <path d="M25.45 20.8 Q25.5 20.35 26.45 20.1 L28.7 19.9 31.0 20.35 Q31.95 20.75 31.9 21.2 31.85 21.65 30.95 21.7 L28.65 21.65 26.4 21.4 Q25.4 21.2 25.45 20.8" fill="#43ffff" fill-rule="evenodd" stroke="none"/>
    <path d="M1.1 18.85 L7.15 26.5 -1.45 25.85 -1.6 18.85 1.1 18.85" fill="#08f7ff" fill-rule="evenodd" stroke="none"/>
    <path d="M0.2 15.75 L2.45 15.9 8.7 22.65 2.25 16.1 0.2 15.75" fill="#50ffff" fill-rule="evenodd" stroke="none"/>
    <path d="M23.15 25.6 L21.8 27.15 19.7 27.05 16.45 29.65 9.9 29.65 16.9 25.7 23.15 25.6" fill="#0786e5" fill-rule="evenodd" stroke="none"/>
  </g>
  <defs>
    <linearGradient gradientTransform="matrix(-0.0302, 0.0, 0.0, -0.0302, 18.0, 23.6)" gradientUnits="userSpaceOnUse" id="gradient0" spreadMethod="pad" x1="-819.2" x2="819.2">
      <stop offset="0.0" stop-color="#26eaff"/>
      <stop offset="0.23137254901960785" stop-color="#25e6ff"/>
      <stop offset="0.4588235294117647" stop-color="#20daff"/>
      <stop offset="0.6823529411764706" stop-color="#19c7ff"/>
      <stop offset="0.9058823529411765" stop-color="#0eabff"/>
      <stop offset="1.0" stop-color="#099dff"/>
    </linearGradient>
  </defs>
</svg>
