<?xml version="1.0" encoding="UTF-8" standalone="no"?>
<svg xmlns:ffdec="https://www.free-decompiler.com/flash" xmlns:xlink="http://www.w3.org/1999/xlink" ffdec:objectType="shape" height="29.3px" width="56.85px" xmlns="http://www.w3.org/2000/svg">
  <g transform="matrix(1.0, 0.0, 0.0, 1.0, 9.55, -8.85)">
    <path d="M-6.95 9.4 L-6.95 13.2 -7.5 13.2 -7.5 8.85 -3.15 8.85 -3.15 9.4 -6.95 9.4" fill="#03e8ff" fill-rule="evenodd" stroke="none"/>
    <path d="M46.65 9.4 L42.85 9.4 42.85 8.85 47.2 8.85 47.2 13.2 46.65 13.2 46.65 9.4" fill="#03e8ff" fill-rule="evenodd" stroke="none"/>
    <path d="M-7.0 37.6 L-3.15 37.6 -3.15 38.15 -7.55 38.15 -7.55 33.8 -7.0 33.8 -7.0 37.6" fill="#03e8ff" fill-rule="evenodd" stroke="none"/>
    <path d="M46.8 37.6 L46.8 33.8 47.3 33.8 47.3 38.15 42.95 38.15 42.95 37.6 46.8 37.6" fill="#03e8ff" fill-rule="evenodd" stroke="none"/>
    <path d="M41.2 24.2 L45.35 24.2 45.35 24.7 41.2 24.7 37.95 25.55 23.7 25.9 22.25 27.35 19.8 27.5 16.4 30.35 9.3 30.35 5.25 32.3 0.2 32.1 0.3 30.0 -2.5 32.1 -6.55 31.55 -5.85 28.5 -9.55 28.75 -9.55 27.45 -3.65 26.15 -3.85 18.35 -1.8 18.35 -1.9 14.9 0.65 14.9 4.1 18.8 8.5 18.8 Q12.2 21.55 12.2 21.8 L17.0 21.85 22.15 21.8 Q22.6 21.9 26.45 20.4 L33.8 21.0 41.2 24.2" fill="url(#gradient0)" fill-rule="evenodd" stroke="none"/>
    <path d="M26.2 20.55 Q26.25 20.05 27.3 19.75 L29.8 19.55 Q31.35 19.65 32.35 20.05 33.4 20.5 33.35 21.0 33.3 21.45 32.3 21.5 L29.75 21.45 27.25 21.15 Q26.1 21.0 26.2 20.55" fill="#43eaff" fill-rule="evenodd" stroke="none"/>
    <path d="M-3.85 18.35 L-0.85 18.35 5.85 26.9 -3.65 26.15 -3.85 18.35" fill="url(#gradient1)" fill-rule="evenodd" stroke="none"/>
    <path d="M-1.9 14.9 L0.65 15.05 7.6 22.55 0.4 15.3 -1.9 14.9" fill="#50c3fd" fill-rule="evenodd" stroke="none"/>
    <path d="M23.7 25.9 L22.15 27.6 19.8 27.5 16.2 30.35 8.95 30.35 16.7 26.0 23.7 25.9" fill="#075bd6" fill-rule="evenodd" stroke="none"/>
  </g>
  <defs>
    <linearGradient gradientTransform="matrix(-0.0335, 0.0, 0.0, -0.0335, 17.9, 23.65)" gradientUnits="userSpaceOnUse" id="gradient0" spreadMethod="pad" x1="-819.2" x2="819.2">
      <stop offset="0.0" stop-color="#00b8ff"/>
      <stop offset="0.21568627450980393" stop-color="#00b4fd"/>
      <stop offset="0.4235294117647059" stop-color="#02a8f8"/>
      <stop offset="0.6313725490196078" stop-color="#0495ee"/>
      <stop offset="0.8392156862745098" stop-color="#0679e1"/>
      <stop offset="1.0" stop-color="#095ed4"/>
    </linearGradient>
    <linearGradient gradientTransform="matrix(0.0, -0.0052, -0.0052, 0.0, 1.05, 22.65)" gradientUnits="userSpaceOnUse" id="gradient1" spreadMethod="pad" x1="-819.2" x2="819.2">
      <stop offset="0.0" stop-color="#2392ff"/>
      <stop offset="1.0" stop-color="#1ae8ff"/>
    </linearGradient>
  </defs>
</svg>
