<?xml version="1.0" encoding="UTF-8" standalone="no"?>
<svg xmlns:ffdec="https://www.free-decompiler.com/flash" xmlns:xlink="http://www.w3.org/1999/xlink" ffdec:objectType="shape" height="38.85px" width="70.6px" xmlns="http://www.w3.org/2000/svg">
  <g transform="matrix(1.0, 0.0, 0.0, 1.0, 7.5, -4.25)">
    <path d="M51.35 10.15 Q53.4 4.65 56.3 4.85 59.15 5.05 61.2 10.75 63.2 16.45 63.1 24.35 63.05 32.2 61.0 37.8 58.9 43.3 56.0 43.1 53.1 43.0 51.15 37.25 49.15 31.65 49.2 23.6 49.2 15.75 51.35 10.15" fill="#333c49" fill-rule="evenodd" stroke="none"/>
    <path d="M59.25 10.1 Q61.25 15.9 61.2 23.75 61.15 31.6 59.05 37.2 56.95 42.7 54.1 42.55 51.2 42.4 49.2 36.7 47.2 31.05 47.3 23.05 47.3 15.2 49.4 9.6 51.45 4.15 54.4 4.25 57.25 4.4 59.25 10.1" fill="url(#gradient0)" fill-rule="evenodd" stroke="none"/>
    <path d="M52.55 7.85 Q54.7 8.0 56.25 12.55 57.75 17.05 57.7 23.35 57.65 29.65 56.05 34.05 54.45 38.45 52.3 38.3 50.1 38.2 48.6 33.65 47.1 29.15 47.15 22.8 47.2 16.5 48.75 12.1 50.35 7.75 52.55 7.85" fill="#0045e5" fill-rule="evenodd" stroke="none"/>
    <path d="M57.1 15.9 Q57.75 19.4 57.7 23.35 57.65 31.25 55.3 35.75 L54.55 35.9 Q52.7 35.8 51.45 31.95 50.15 28.15 50.2 22.8 50.25 17.5 51.55 13.8 52.9 10.1 54.75 10.2 L55.3 10.35 Q56.45 12.5 57.1 15.9" fill="#32abfc" fill-rule="evenodd" stroke="none"/>
    <path d="M42.65 26.4 L23.5 28.05 21.4 29.3 13.25 29.3 8.05 31.1 -4.0 31.1 -1.4 30.1 -4.0 30.1 -4.0 19.25 -1.65 19.25 -3.3 16.55 2.0 16.55 4.4 19.25 10.45 19.25 14.0 20.9 23.85 20.9 26.1 19.95 31.0 20.0 33.0 21.2 46.4 23.8 42.65 26.4" fill="url(#gradient1)" fill-rule="evenodd" stroke="none"/>
    <path d="M8.05 32.2 L-4.0 33.3 -4.0 31.1 8.05 31.1 8.05 32.2" fill="#55beff" fill-rule="evenodd" stroke="none"/>
    <path d="M-4.45 22.15 L-6.95 22.15 -6.95 18.45 -4.45 19.25 -4.45 22.15" fill="url(#gradient2)" fill-rule="evenodd" stroke="none"/>
    <path d="M-6.95 27.6 L-4.45 27.6 -4.45 30.1 -6.95 30.9 -6.95 27.6" fill="url(#gradient3)" fill-rule="evenodd" stroke="none"/>
    <path d="M-4.45 26.9 L-6.95 26.9 -6.95 22.8 -4.45 22.8 -4.45 26.9" fill="url(#gradient4)" fill-rule="evenodd" stroke="none"/>
    <path d="M7.0 16.55 L-6.95 16.55 -6.95 13.8 4.6 14.8 7.0 16.55" fill="url(#gradient5)" fill-rule="evenodd" stroke="none"/>
    <path d="M31.0 20.0 L33.0 21.2 23.85 20.9 26.25 19.55 31.0 20.0" fill="#36c9ff" fill-rule="evenodd" stroke="none"/>
    <path d="M8.35 25.1 L-4.0 25.1 -4.0 20.65 8.35 22.65 8.35 25.1" fill="#39b4ff" fill-rule="evenodd" stroke="none"/>
    <path d="M8.05 31.1 L-4.0 31.15 -1.4 30.1 13.25 29.3 8.05 31.1" fill="#058bff" fill-rule="evenodd" stroke="none"/>
    <path d="M22.8 26.35 L13.7 26.35 13.7 24.35 22.8 24.35 22.8 26.35" fill="#0451bf" fill-rule="evenodd" stroke="none"/>
    <path d="M34.05 26.7 L24.65 27.1 24.65 25.0 33.7 25.45 34.05 26.7" fill="#5fd6ff" fill-rule="evenodd" stroke="none"/>
    <path d="M-6.95 22.15 L-7.5 22.15 -7.5 18.45 -6.95 18.45 -6.95 22.15" fill="#94ffff" fill-rule="evenodd" stroke="none"/>
    <path d="M-6.95 26.9 L-7.5 26.9 -7.5 22.8 -6.95 22.8 -6.95 26.9" fill="#94ffff" fill-rule="evenodd" stroke="none"/>
    <path d="M-6.95 30.9 L-7.5 30.9 -7.5 27.6 -6.95 27.6 -6.95 30.9" fill="#94ffff" fill-rule="evenodd" stroke="none"/>
  </g>
  <defs>
    <linearGradient gradientTransform="matrix(0.013, 4.0E-4, -2.0E-4, 0.0085, 54.2, 23.4)" gradientUnits="userSpaceOnUse" id="gradient0" spreadMethod="pad" x1="-819.2" x2="819.2">
      <stop offset="0.10980392156862745" stop-color="#aaaaaa"/>
      <stop offset="1.0" stop-color="#282828"/>
    </linearGradient>
    <linearGradient gradientTransform="matrix(0.0307, 0.0, 0.0, -0.0307, 21.2, 23.8)" gradientUnits="userSpaceOnUse" id="gradient1" spreadMethod="pad" x1="-819.2" x2="819.2">
      <stop offset="0.0" stop-color="#095ed4"/>
      <stop offset="0.09411764705882353" stop-color="#0e6cdc"/>
      <stop offset="0.3176470588235294" stop-color="#1988eb"/>
      <stop offset="0.5411764705882353" stop-color="#209bf6"/>
      <stop offset="0.7686274509803922" stop-color="#25a7fd"/>
      <stop offset="1.0" stop-color="#26abff"/>
    </linearGradient>
    <linearGradient gradientTransform="matrix(0.0015, 0.0, 0.0, -0.0015, -5.7, 20.3)" gradientUnits="userSpaceOnUse" id="gradient2" spreadMethod="pad" x1="-819.2" x2="819.2">
      <stop offset="0.0" stop-color="#0797ff"/>
      <stop offset="1.0" stop-color="#0062d0"/>
    </linearGradient>
    <linearGradient gradientTransform="matrix(0.0015, 0.0, 0.0, -0.0015, -5.7, 29.25)" gradientUnits="userSpaceOnUse" id="gradient3" spreadMethod="pad" x1="-819.2" x2="819.2">
      <stop offset="0.0" stop-color="#0797ff"/>
      <stop offset="1.0" stop-color="#0062d0"/>
    </linearGradient>
    <linearGradient gradientTransform="matrix(0.0015, 0.0, 0.0, -0.0015, -5.7, 24.85)" gradientUnits="userSpaceOnUse" id="gradient4" spreadMethod="pad" x1="-819.2" x2="819.2">
      <stop offset="0.0" stop-color="#0797ff"/>
      <stop offset="1.0" stop-color="#0062d0"/>
    </linearGradient>
    <linearGradient gradientTransform="matrix(0.0085, 0.0, 0.0, -0.0085, 0.05, 15.15)" gradientUnits="userSpaceOnUse" id="gradient5" spreadMethod="pad" x1="-819.2" x2="819.2">
      <stop offset="0.0" stop-color="#4dc4ff"/>
      <stop offset="1.0" stop-color="#1880de"/>
    </linearGradient>
  </defs>
</svg>
