<?xml version="1.0" encoding="UTF-8" standalone="no"?>
<svg xmlns:ffdec="https://www.free-decompiler.com/flash" xmlns:xlink="http://www.w3.org/1999/xlink" ffdec:objectType="shape" height="17.55px" width="48.55px" xmlns="http://www.w3.org/2000/svg">
  <g transform="matrix(1.0, 0.0, 0.0, 1.0, 4.8, -14.8)">
    <path d="M40.4 26.15 L23.15 27.6 21.25 28.75 13.95 28.75 9.25 30.35 -1.6 30.35 0.75 29.45 -1.6 29.45 -1.6 19.7 0.5 19.7 -0.95 17.25 3.8 17.25 5.9 19.7 11.4 19.7 14.6 21.2 23.45 21.2 25.5 20.35 29.9 20.35 31.7 21.45 43.75 23.8 40.4 26.15" fill="url(#gradient0)" fill-rule="evenodd" stroke="none"/>
    <path d="M-1.6 30.35 L9.25 30.35 9.25 31.35 -1.6 32.35 -1.6 30.35" fill="#39ecff" fill-rule="evenodd" stroke="none"/>
    <path d="M-2.0 22.3 L-4.25 22.3 -4.25 19.0 -2.0 19.7 -2.0 22.3" fill="url(#gradient1)" fill-rule="evenodd" stroke="none"/>
    <path d="M-4.25 27.2 L-2.0 27.2 -2.0 29.45 -4.25 30.2 -4.25 27.2" fill="url(#gradient2)" fill-rule="evenodd" stroke="none"/>
    <path d="M-2.0 26.6 L-4.25 26.6 -4.25 22.9 -2.0 22.9 -2.0 26.6" fill="url(#gradient3)" fill-rule="evenodd" stroke="none"/>
    <path d="M8.3 17.25 L-4.25 17.25 -4.25 14.8 6.1 15.7 8.3 17.25" fill="url(#gradient4)" fill-rule="evenodd" stroke="none"/>
    <path d="M31.7 21.45 L23.45 21.2 25.65 19.95 29.9 20.35 31.7 21.45" fill="#36ffff" fill-rule="evenodd" stroke="none"/>
    <path d="M9.5 24.95 L-1.6 24.95 -1.6 20.95 9.5 22.75 9.5 24.95" fill="#40ffff" fill-rule="evenodd" stroke="none"/>
    <path d="M13.95 28.75 L9.25 30.35 -1.6 30.4 0.75 29.45 13.95 28.75" fill="#05caff" fill-rule="evenodd" stroke="none"/>
    <path d="M22.55 26.1 L14.35 26.1 14.35 24.3 22.55 24.3 22.55 26.1" fill="#0782d6" fill-rule="evenodd" stroke="none"/>
    <path d="M32.65 26.4 L24.2 26.75 24.2 24.85 32.35 25.3 32.65 26.4" fill="#36ffff" fill-rule="evenodd" stroke="none"/>
    <path d="M-4.25 22.3 L-4.8 22.3 -4.8 19.0 -4.25 19.0 -4.25 22.3" fill="#94ffff" fill-rule="evenodd" stroke="none"/>
    <path d="M-4.25 26.6 L-4.8 26.6 -4.8 22.9 -4.25 22.9 -4.25 26.6" fill="#94ffff" fill-rule="evenodd" stroke="none"/>
    <path d="M-4.25 27.2 L-4.25 30.2 -4.8 30.2 -4.8 27.2 -4.25 27.2" fill="#94ffff" fill-rule="evenodd" stroke="none"/>
  </g>
  <defs>
    <linearGradient gradientTransform="matrix(0.0277, 0.0, 0.0, -0.0277, 21.1, 23.8)" gradientUnits="userSpaceOnUse" id="gradient0" spreadMethod="pad" x1="-819.2" x2="819.2">
      <stop offset="0.0" stop-color="#099dff"/>
      <stop offset="0.09411764705882353" stop-color="#0eabff"/>
      <stop offset="0.3176470588235294" stop-color="#19c7ff"/>
      <stop offset="0.5411764705882353" stop-color="#20daff"/>
      <stop offset="0.7686274509803922" stop-color="#25e6ff"/>
      <stop offset="1.0" stop-color="#26eaff"/>
    </linearGradient>
    <linearGradient gradientTransform="matrix(0.0013, 0.0, 0.0, -0.0013, -3.1, 20.65)" gradientUnits="userSpaceOnUse" id="gradient1" spreadMethod="pad" x1="-819.2" x2="819.2">
      <stop offset="0.0" stop-color="#07d6ff"/>
      <stop offset="1.0" stop-color="#00a1ff"/>
    </linearGradient>
    <linearGradient gradientTransform="matrix(0.0013, 0.0, 0.0, -0.0013, -3.1, 28.7)" gradientUnits="userSpaceOnUse" id="gradient2" spreadMethod="pad" x1="-819.2" x2="819.2">
      <stop offset="0.0" stop-color="#07d6ff"/>
      <stop offset="1.0" stop-color="#00a1ff"/>
    </linearGradient>
    <linearGradient gradientTransform="matrix(0.0013, 0.0, 0.0, -0.0013, -3.1, 24.75)" gradientUnits="userSpaceOnUse" id="gradient3" spreadMethod="pad" x1="-819.2" x2="819.2">
      <stop offset="0.0" stop-color="#07d6ff"/>
      <stop offset="1.0" stop-color="#00a1ff"/>
    </linearGradient>
    <linearGradient gradientTransform="matrix(0.0076, 0.0, 0.0, -0.0076, 2.05, 16.0)" gradientUnits="userSpaceOnUse" id="gradient4" spreadMethod="pad" x1="-819.2" x2="819.2">
      <stop offset="0.0" stop-color="#52ffff"/>
      <stop offset="1.0" stop-color="#00a1ff"/>
    </linearGradient>
  </defs>
</svg>
