<?xml version="1.0" encoding="UTF-8" standalone="no"?>
<svg xmlns:ffdec="https://www.free-decompiler.com/flash" xmlns:xlink="http://www.w3.org/1999/xlink" ffdec:objectType="shape" height="38.85px" width="69.05px" xmlns="http://www.w3.org/2000/svg">
  <g transform="matrix(1.0, 0.0, 0.0, 1.0, 5.95, -4.25)">
    <path d="M51.35 10.15 Q53.4 4.65 56.3 4.85 59.15 5.05 61.2 10.75 63.2 16.45 63.1 24.35 63.05 32.2 61.0 37.8 58.9 43.3 56.0 43.1 53.1 43.0 51.15 37.25 49.15 31.65 49.2 23.6 49.2 15.75 51.35 10.15" fill="#333c49" fill-rule="evenodd" stroke="none"/>
    <path d="M59.25 10.1 Q61.25 15.9 61.2 23.75 61.15 31.6 59.05 37.2 56.95 42.7 54.1 42.55 51.2 42.4 49.2 36.7 47.2 31.05 47.3 23.05 47.3 15.2 49.4 9.6 51.45 4.15 54.4 4.25 57.25 4.4 59.25 10.1" fill="url(#gradient0)" fill-rule="evenodd" stroke="none"/>
    <path d="M52.55 7.85 Q54.7 8.0 56.25 12.55 57.75 17.05 57.7 23.35 57.65 29.65 56.05 34.05 54.45 38.45 52.3 38.3 50.1 38.2 48.6 33.65 47.1 29.15 47.15 22.8 47.2 16.5 48.75 12.1 50.35 7.75 52.55 7.85" fill="#0045e5" fill-rule="evenodd" stroke="none"/>
    <path d="M57.1 15.9 Q57.75 19.4 57.7 23.35 57.65 31.25 55.3 35.75 L54.55 35.9 Q52.7 35.8 51.45 31.95 50.15 28.15 50.2 22.8 50.25 17.5 51.55 13.8 52.9 10.1 54.75 10.2 L55.3 10.35 Q56.45 12.5 57.1 15.9" fill="#32abfc" fill-rule="evenodd" stroke="none"/>
    <path d="M35.75 21.1 L45.25 22.05 43.15 25.55 37.1 27.0 34.35 28.8 33.3 28.75 33.0 29.1 31.65 29.6 28.1 29.65 24.8 28.4 20.8 28.65 19.0 33.2 25.75 33.2 25.75 33.95 17.25 34.85 17.25 33.2 18.0 33.1 19.45 28.65 15.55 28.95 14.5 30.65 11.6 31.65 7.15 30.2 5.3 30.95 3.95 31.0 1.35 30.35 -0.15 29.4 -0.8 29.2 -2.2 28.65 -3.25 27.35 -3.55 26.1 -5.95 26.1 -5.95 24.3 -3.65 24.3 -3.5 22.6 -2.25 20.95 -0.4 20.5 0.7 19.75 2.8 18.9 4.85 18.6 5.1 18.4 6.55 17.15 13.9 17.5 14.35 17.1 12.7 13.95 10.9 13.95 10.9 12.35 19.35 13.25 19.35 13.95 13.9 13.95 16.65 16.9 18.95 18.4 21.85 18.75 22.8 18.25 23.45 18.55 23.75 17.35 24.85 17.0 25.0 17.15 25.5 17.05 26.1 17.4 Q26.9 17.05 27.65 16.65 L28.0 17.05 26.7 17.9 26.95 18.25 26.4 18.55 26.5 18.75 27.05 18.75 27.55 19.3 36.0 19.75 35.75 21.1" fill="url(#gradient1)" fill-rule="evenodd" stroke="none"/>
    <path d="M4.65 19.65 L5.05 19.7 Q3.7 19.9 2.8 21.35 1.85 22.85 1.85 24.85 1.85 26.9 2.8 28.35 3.7 29.8 5.05 30.05 L4.65 30.1 Q3.2 30.1 2.1 28.55 1.0 27.0 1.0 24.85 1.0 22.7 2.1 21.15 3.2 19.65 4.65 19.65" fill="#27baff" fill-rule="evenodd" stroke="none"/>
    <path d="M5.35 24.75 Q5.35 25.2 4.45 25.2 L2.85 25.2 Q1.95 25.2 1.95 24.75 1.95 24.25 2.85 24.25 L4.45 24.25 Q5.35 24.25 5.35 24.75" fill="#94fdff" fill-rule="evenodd" stroke="none"/>
    <path d="M5.55 22.55 Q5.5 23.05 4.6 22.75 L3.1 22.25 2.5 21.95 2.35 21.55 Q2.5 21.1 3.35 21.35 L4.9 21.85 Q5.7 22.15 5.55 22.55" fill="#94fdff" fill-rule="evenodd" stroke="none"/>
    <path d="M6.2 20.65 Q5.95 21.05 5.15 20.65 L4.55 20.25 Q3.75 19.8 3.95 19.4 4.15 19.0 5.0 19.4 L5.65 19.8 Q6.45 20.25 6.2 20.65" fill="#94fdff" fill-rule="evenodd" stroke="none"/>
    <path d="M5.3 26.7 Q5.4 27.2 4.55 27.35 L2.95 27.65 Q2.1 27.85 2.0 27.4 1.9 26.9 2.8 26.75 L4.35 26.4 Q5.2 26.2 5.3 26.7" fill="#94fdff" fill-rule="evenodd" stroke="none"/>
    <path d="M6.2 28.6 Q6.4 29.0 5.65 29.4 L5.05 29.7 4.05 29.75 Q3.85 29.25 4.6 28.9 L5.2 28.6 Q5.95 28.15 6.2 28.6" fill="#94fdff" fill-rule="evenodd" stroke="none"/>
    <path d="M33.3 28.75 L33.0 29.1 32.5 29.35 31.65 29.6 28.1 29.65 24.8 28.4 20.8 28.65 19.0 33.2 25.75 33.2 25.75 33.95 17.25 33.95 17.25 33.2 17.7 33.2 18.0 33.1 19.45 28.65 15.55 28.95 14.5 30.65 11.6 31.65 7.15 30.2 7.15 30.25 6.95 30.1 5.4 24.5 6.4 24.75 13.35 24.85 15.1 26.2 19.8 26.2 22.45 24.85 29.85 25.2 29.8 29.2 33.3 28.75" fill="#0a6cd3" fill-rule="evenodd" stroke="none"/>
    <path d="M11.6 31.1 L12.45 29.2 15.1 28.7 14.15 30.15 11.6 31.1" fill="#04357c" fill-rule="evenodd" stroke="none"/>
    <path d="M40.15 25.8 L41.45 23.9 44.35 22.9 42.85 25.0 40.15 25.8" fill="#0669d1" fill-rule="evenodd" stroke="none"/>
    <path d="M35.4 20.05 L35.4 20.35 29.85 25.2 22.45 24.85 19.8 26.2 15.1 26.2 13.35 24.85 5.75 24.7 5.75 23.8 13.35 24.25 15.1 25.15 19.8 25.15 22.35 24.25 29.85 24.85 35.4 20.05" fill="#0466cc" fill-rule="evenodd" stroke="none"/>
  </g>
  <defs>
    <linearGradient gradientTransform="matrix(0.013, 4.0E-4, -2.0E-4, 0.0085, 54.2, 23.4)" gradientUnits="userSpaceOnUse" id="gradient0" spreadMethod="pad" x1="-819.2" x2="819.2">
      <stop offset="0.10980392156862745" stop-color="#aaaaaa"/>
      <stop offset="1.0" stop-color="#282828"/>
    </linearGradient>
    <linearGradient gradientTransform="matrix(0.0312, 0.0, 0.0, -0.0312, 19.65, 23.6)" gradientUnits="userSpaceOnUse" id="gradient1" spreadMethod="pad" x1="-819.2" x2="819.2">
      <stop offset="0.0" stop-color="#095cfa"/>
      <stop offset="0.17254901960784313" stop-color="#1775fb"/>
      <stop offset="0.6470588235294118" stop-color="#40c7ff"/>
      <stop offset="1.0" stop-color="#4dd6ff"/>
    </linearGradient>
  </defs>
</svg>
