<?xml version="1.0" encoding="UTF-8" standalone="no"?>
<svg xmlns:ffdec="https://www.free-decompiler.com/flash" xmlns:xlink="http://www.w3.org/1999/xlink" ffdec:objectType="shape" height="22.5px" width="51.2px" xmlns="http://www.w3.org/2000/svg">
  <g transform="matrix(1.0, 0.0, 0.0, 1.0, 5.95, -12.3)">
    <path d="M45.25 22.0 L43.15 25.45 37.1 26.95 34.35 28.75 33.3 28.65 33.0 29.0 31.65 29.5 28.1 29.6 24.8 28.35 20.75 28.55 18.95 33.1 25.7 33.1 25.7 33.9 17.25 34.8 17.25 33.1 18.0 33.05 19.45 28.55 15.55 28.9 14.45 30.6 11.6 31.6 7.15 30.15 5.3 30.85 3.9 30.9 1.35 30.3 -0.15 29.35 -0.85 29.15 -2.2 28.55 -3.25 27.25 -3.55 26.05 -5.95 26.05 -5.95 24.25 -3.65 24.25 -3.5 22.55 -2.25 20.9 -0.4 20.45 0.7 19.7 2.8 18.85 4.85 18.55 5.1 18.35 6.55 17.1 13.85 17.45 14.35 17.05 12.65 13.9 10.9 13.9 10.9 12.3 19.35 13.2 19.35 13.9 13.9 13.9 16.65 16.85 18.95 18.3 21.85 18.65 22.8 18.2 23.45 18.5 23.75 17.3 24.8 16.9 25.0 17.1 25.5 17.0 26.1 17.3 27.65 16.6 27.95 16.95 26.7 17.8 26.95 18.2 26.4 18.5 26.45 18.65 27.0 18.65 27.5 19.25 36.0 19.7 35.75 21.05 45.25 22.0" fill="url(#gradient0)" fill-rule="evenodd" stroke="none"/>
    <path d="M1.0 24.8 Q1.0 22.65 2.1 21.1 3.15 19.55 4.65 19.55 L5.05 19.6 Q3.65 19.85 2.75 21.3 1.85 22.75 1.85 24.8 1.85 26.8 2.75 28.3 3.65 29.8 5.05 29.95 L4.65 30.0 Q3.15 30.0 2.1 28.5 1.0 26.95 1.0 24.8" fill="#27f9ff" fill-rule="evenodd" stroke="none"/>
    <path d="M5.35 24.7 Q5.35 25.15 4.45 25.15 L2.85 25.15 Q1.95 25.15 1.95 24.7 1.95 24.2 2.85 24.2 L4.45 24.2 Q5.35 24.2 5.35 24.7" fill="#94ffff" fill-rule="evenodd" stroke="none"/>
    <path d="M2.35 21.45 Q2.5 21.0 3.35 21.3 L4.9 21.8 Q5.7 22.1 5.55 22.5 L5.2 22.75 4.55 22.7 3.1 22.2 2.5 21.85 2.35 21.45" fill="#94ffff" fill-rule="evenodd" stroke="none"/>
    <path d="M6.2 20.6 L5.15 20.55 4.55 20.2 Q3.7 19.7 3.95 19.35 4.15 18.95 5.0 19.35 L5.65 19.75 Q6.45 20.2 6.2 20.6" fill="#94ffff" fill-rule="evenodd" stroke="none"/>
    <path d="M5.3 26.65 Q5.4 27.15 4.55 27.25 L2.95 27.6 Q2.1 27.75 2.0 27.3 1.85 26.85 2.75 26.7 L4.35 26.3 Q5.2 26.15 5.3 26.65" fill="#94ffff" fill-rule="evenodd" stroke="none"/>
    <path d="M6.2 28.55 Q6.4 28.95 5.65 29.35 L5.05 29.65 4.05 29.7 Q3.85 29.2 4.6 28.85 L5.2 28.55 Q5.95 28.1 6.2 28.55" fill="#94ffff" fill-rule="evenodd" stroke="none"/>
    <path d="M6.4 24.7 L13.3 24.8 15.05 26.15 19.8 26.15 22.45 24.8 29.8 25.15 29.8 29.1 33.3 28.65 33.0 29.0 32.45 29.3 31.65 29.5 28.1 29.6 24.8 28.35 20.75 28.55 18.95 33.1 25.7 33.1 25.7 33.9 Q21.45 34.2 17.25 33.9 L17.25 33.1 17.7 33.1 18.0 33.05 19.45 28.55 15.55 28.9 14.45 30.6 11.6 31.6 7.15 30.15 7.15 30.2 6.95 30.0 5.4 24.45 6.4 24.7" fill="#0aabff" fill-rule="evenodd" stroke="none"/>
    <path d="M11.55 31.05 L12.45 29.1 15.05 28.6 14.15 30.1 11.55 31.05" fill="#05499b" fill-rule="evenodd" stroke="none"/>
    <path d="M40.1 25.75 L41.45 23.85 44.35 22.8 42.85 24.95 40.1 25.75" fill="#0980d1" fill-rule="evenodd" stroke="none"/>
    <path d="M15.05 25.05 L19.8 25.05 22.35 24.2 29.8 24.8 35.4 20.0 35.4 20.3 29.8 25.15 22.45 24.8 19.8 26.15 15.05 26.15 13.3 24.8 5.75 24.65 5.75 23.75 13.3 24.2 15.05 25.05" fill="#04a5ff" fill-rule="evenodd" stroke="none"/>
  </g>
  <defs>
    <linearGradient gradientTransform="matrix(0.0312, 0.0, 0.0, -0.0312, 19.65, 23.55)" gradientUnits="userSpaceOnUse" id="gradient0" spreadMethod="pad" x1="-819.2" x2="819.2">
      <stop offset="0.0" stop-color="#099bff"/>
      <stop offset="0.17254901960784313" stop-color="#17b4ff"/>
      <stop offset="0.6588235294117647" stop-color="#78f8ff"/>
      <stop offset="1.0" stop-color="#4dffff"/>
    </linearGradient>
  </defs>
</svg>
