<?xml version="1.0" encoding="UTF-8" standalone="no"?>
<svg xmlns:ffdec="https://www.free-decompiler.com/flash" xmlns:xlink="http://www.w3.org/1999/xlink" ffdec:objectType="shape" height="20.25px" width="46.1px" xmlns="http://www.w3.org/2000/svg">
  <g transform="matrix(1.0, 0.0, 0.0, 1.0, 3.45, -13.45)">
    <path d="M42.65 22.2 L40.75 25.35 35.3 26.7 32.85 28.3 31.9 28.2 31.65 28.55 30.4 29.0 27.2 29.05 24.2 27.95 20.6 28.15 19.0 32.2 25.05 32.2 25.05 32.9 17.45 33.7 17.45 32.2 18.1 32.15 19.45 28.15 15.9 28.4 14.95 29.95 12.35 30.85 8.35 29.55 6.7 30.2 5.45 30.25 3.1 29.65 1.8 28.8 1.2 28.65 -0.1 28.15 -1.0 26.95 -1.3 25.85 -3.45 25.85 -3.45 24.25 -1.35 24.25 -1.2 22.7 -0.1 21.2 1.55 20.8 2.55 20.15 4.45 19.4 6.3 19.1 6.5 18.95 7.8 17.8 14.4 18.15 14.85 17.75 13.35 14.95 11.75 14.95 11.75 13.45 19.3 14.3 19.3 14.95 14.4 14.95 16.9 17.55 18.95 18.9 21.6 19.2 22.45 18.8 23.0 19.05 23.3 17.95 24.25 17.65 24.4 17.8 24.85 17.75 25.4 18.0 26.8 17.35 27.1 17.7 25.95 18.45 26.15 18.8 25.7 19.05 25.7 19.2 26.2 19.2 26.7 19.75 34.3 20.15 34.1 21.35 42.65 22.2" fill="url(#gradient0)" fill-rule="evenodd" stroke="none"/>
    <path d="M2.85 24.75 Q2.85 22.8 3.8 21.4 4.75 20.05 6.1 20.05 L6.5 20.05 Q5.25 20.3 4.4 21.55 3.55 22.9 3.55 24.75 3.55 26.55 4.4 27.9 5.25 29.25 6.5 29.4 L6.1 29.45 Q4.75 29.45 3.8 28.05 2.85 26.7 2.85 24.75" fill="#27f9ff" fill-rule="evenodd" stroke="none"/>
    <path d="M6.75 24.65 Q6.75 25.05 5.9 25.05 L4.5 25.05 Q3.7 25.05 3.7 24.65 3.7 24.2 4.5 24.2 L5.9 24.2 Q6.75 24.2 6.75 24.65" fill="#94ffff" fill-rule="evenodd" stroke="none"/>
    <path d="M4.05 21.75 Q4.15 21.35 4.95 21.55 L6.3 22.0 Q7.05 22.3 6.95 22.65 L6.6 22.9 6.05 22.85 4.7 22.4 4.15 22.1 Q3.95 21.9 4.05 21.75" fill="#94ffff" fill-rule="evenodd" stroke="none"/>
    <path d="M7.5 20.95 Q7.3 21.3 6.55 20.95 L6.0 20.6 Q5.25 20.15 5.45 19.85 5.65 19.45 6.4 19.85 L7.0 20.2 Q7.75 20.6 7.5 20.95" fill="#94ffff" fill-rule="evenodd" stroke="none"/>
    <path d="M6.7 26.4 Q6.75 26.85 6.0 26.95 L4.6 27.25 Q3.8 27.4 3.75 27.0 3.6 26.6 4.4 26.45 L5.85 26.1 Q6.6 25.95 6.7 26.4" fill="#94ffff" fill-rule="evenodd" stroke="none"/>
    <path d="M7.5 28.1 Q7.7 28.45 7.0 28.8 L6.5 29.1 5.55 29.15 Q5.4 28.7 6.1 28.4 L6.6 28.1 Q7.3 27.7 7.5 28.1" fill="#94ffff" fill-rule="evenodd" stroke="none"/>
    <path d="M7.7 24.65 L13.9 24.75 15.45 25.95 19.75 25.95 22.1 24.75 28.75 25.05 28.75 28.6 31.9 28.2 31.65 28.55 31.15 28.8 30.4 29.0 27.2 29.05 24.2 27.95 20.6 28.15 19.0 32.2 25.05 32.2 25.05 32.9 Q21.2 33.2 17.45 32.9 L17.45 32.2 17.85 32.2 18.1 32.15 19.45 28.15 15.9 28.4 14.95 29.95 12.35 30.85 8.35 29.55 8.35 29.6 8.2 29.45 6.75 24.4 7.7 24.65" fill="#0aabff" fill-rule="evenodd" stroke="none"/>
    <path d="M12.3 30.35 L13.1 28.6 15.45 28.15 14.65 29.5 12.3 30.35" fill="#05499b" fill-rule="evenodd" stroke="none"/>
    <path d="M38.05 25.6 L39.2 23.9 41.85 22.95 40.5 24.85 38.05 25.6" fill="#0980d1" fill-rule="evenodd" stroke="none"/>
    <path d="M15.45 25.0 L19.75 25.0 22.05 24.2 28.75 24.75 33.8 20.4 33.8 20.7 28.75 25.05 22.1 24.75 19.75 25.95 15.45 25.95 13.9 24.75 7.1 24.6 7.1 23.8 13.9 24.2 15.45 25.0" fill="#04a5ff" fill-rule="evenodd" stroke="none"/>
  </g>
  <defs>
    <linearGradient gradientTransform="matrix(0.0281, 0.0, 0.0, -0.0281, 19.6, 23.6)" gradientUnits="userSpaceOnUse" id="gradient0" spreadMethod="pad" x1="-819.2" x2="819.2">
      <stop offset="0.0" stop-color="#099bff"/>
      <stop offset="0.17254901960784313" stop-color="#17b4ff"/>
      <stop offset="0.6588235294117647" stop-color="#78f8ff"/>
      <stop offset="1.0" stop-color="#4dffff"/>
    </linearGradient>
  </defs>
</svg>
