<?xml version="1.0" encoding="UTF-8" standalone="no"?>
<svg xmlns:ffdec="https://www.free-decompiler.com/flash" xmlns:xlink="http://www.w3.org/1999/xlink" ffdec:objectType="shape" height="29.3px" width="54.85px" xmlns="http://www.w3.org/2000/svg">
  <g transform="matrix(1.0, 0.0, 0.0, 1.0, 7.55, -8.85)">
    <path d="M-6.95 9.4 L-6.95 13.2 -7.5 13.2 -7.5 8.85 -3.15 8.85 -3.15 9.4 -6.95 9.4" fill="#03e8ff" fill-rule="evenodd" stroke="none"/>
    <path d="M46.65 9.4 L42.85 9.4 42.85 8.85 47.2 8.85 47.2 13.2 46.65 13.2 46.65 9.4" fill="#03e8ff" fill-rule="evenodd" stroke="none"/>
    <path d="M-7.0 37.6 L-3.15 37.6 -3.15 38.15 -7.55 38.15 -7.55 33.8 -7.0 33.8 -7.0 37.6" fill="#03e8ff" fill-rule="evenodd" stroke="none"/>
    <path d="M46.8 37.6 L46.8 33.8 47.3 33.8 47.3 38.15 42.95 38.15 42.95 37.6 46.8 37.6" fill="#03e8ff" fill-rule="evenodd" stroke="none"/>
    <path d="M45.9 22.85 L42.6 25.45 22.6 27.1 20.75 28.35 15.05 29.0 5.05 34.25 -0.7 33.35 1.85 29.3 0.6 29.15 -1.8 27.6 -1.8 23.45 0.15 21.85 -1.1 15.6 -4.35 15.6 -4.35 12.85 6.7 13.95 8.0 15.6 3.6 15.6 5.7 18.3 11.05 18.3 14.2 19.95 31.0 20.3 45.9 22.85" fill="url(#gradient0)" fill-rule="evenodd" stroke="none"/>
    <path d="M25.3 25.45 L7.05 25.45 7.05 22.65 28.8 22.65 25.3 25.45" fill="url(#gradient1)" fill-rule="evenodd" stroke="none"/>
  </g>
  <defs>
    <linearGradient gradientTransform="matrix(0.0307, 0.0, 0.0, -0.0307, 20.8, 23.55)" gradientUnits="userSpaceOnUse" id="gradient0" spreadMethod="pad" x1="-819.2" x2="819.2">
      <stop offset="0.0" stop-color="#095ed4"/>
      <stop offset="0.7019607843137254" stop-color="#1d93f2"/>
      <stop offset="1.0" stop-color="#26abff"/>
    </linearGradient>
    <linearGradient gradientTransform="matrix(0.0133, 0.0, 0.0, -0.0133, 17.95, 24.05)" gradientUnits="userSpaceOnUse" id="gradient1" spreadMethod="pad" x1="-819.2" x2="819.2">
      <stop offset="0.0" stop-color="#1782f1"/>
      <stop offset="1.0" stop-color="#5ef5ff"/>
    </linearGradient>
  </defs>
</svg>
