<?xml version="1.0" encoding="UTF-8" standalone="no"?>
<svg xmlns:ffdec="https://www.free-decompiler.com/flash" xmlns:xlink="http://www.w3.org/1999/xlink" ffdec:objectType="shape" height="47.1px" width="68.15px" xmlns="http://www.w3.org/2000/svg">
  <g transform="matrix(1.0, 0.0, 0.0, 1.0, -2.95, 0.0)">
    <path d="M56.75 6.9 Q59.25 0.2 62.8 0.45 66.3 0.65 68.75 7.6 71.2 14.55 71.1 24.2 71.0 33.8 68.5 40.6 65.95 47.3 62.45 47.1 58.9 46.95 56.5 39.95 54.05 33.1 54.15 23.3 54.15 13.75 56.75 6.9" fill="#333c49" fill-rule="evenodd" stroke="none"/>
    <path d="M66.4 7.15 Q68.85 14.2 68.75 23.8 68.7 33.35 66.15 40.2 63.6 46.9 60.1 46.7 56.55 46.55 54.15 39.55 51.7 32.7 51.8 22.9 51.8 13.35 54.4 6.5 56.9 -0.15 60.45 0.0 63.95 0.2 66.4 7.15" fill="url(#gradient0)" fill-rule="evenodd" stroke="none"/>
    <path d="M58.2 4.4 Q60.85 4.55 62.7 10.1 64.55 15.6 64.5 23.3 64.45 31.0 62.5 36.35 60.55 41.7 57.9 41.55 55.25 41.4 53.4 35.85 51.6 30.35 51.65 22.65 51.7 14.95 53.6 9.6 55.55 4.25 58.2 4.4" fill="#0045e5" fill-rule="evenodd" stroke="none"/>
    <path d="M57.0 11.65 Q58.65 7.15 60.9 7.25 L61.6 7.45 Q62.95 10.05 63.75 14.2 64.55 18.45 64.5 23.3 64.45 32.9 61.6 38.4 L60.65 38.6 Q58.4 38.5 56.85 33.8 55.3 29.15 55.35 22.65 55.4 16.15 57.0 11.65" fill="#32abfc" fill-rule="evenodd" stroke="none"/>
    <path d="M25.5 14.05 L17.4 21.9 16.4 20.8 24.45 12.95 25.5 14.05" fill="#0973ef" fill-rule="evenodd" stroke="none"/>
    <path d="M22.3 18.7 L22.4 22.25 15.0 29.35 9.85 24.0 17.25 16.9 22.3 18.7" fill="#0f90ff" fill-rule="evenodd" stroke="none"/>
    <path d="M27.5 11.65 L27.5 13.0 24.65 16.4 22.3 13.95 25.7 11.1 27.5 11.65" fill="#22cfff" fill-rule="evenodd" stroke="none"/>
    <path d="M20.15 20.9 L20.25 25.05 11.2 33.85 5.2 27.6 14.25 18.8 20.15 20.9" fill="#0db9ff" fill-rule="evenodd" stroke="none"/>
    <path d="M12.65 26.5 Q14.25 28.2 14.2 30.5 14.15 32.85 12.45 34.45 10.75 36.05 8.45 36.05 6.1 36.0 4.5 34.3 2.9 32.6 2.95 30.25 3.0 27.9 4.65 26.3 6.35 24.7 8.7 24.75 11.05 24.8 12.65 26.5" fill="url(#gradient1)" fill-rule="evenodd" stroke="none"/>
    <path d="M11.5 27.55 Q12.7 28.8 12.65 30.5 12.65 32.2 11.4 33.35 10.15 34.5 8.45 34.5 6.75 34.45 5.6 33.2 4.45 32.0 4.5 30.3 4.5 28.6 5.75 27.45 6.95 26.25 8.65 26.3 10.35 26.3 11.5 27.55" fill="#07a0ff" fill-rule="evenodd" stroke="none"/>
    <path d="M10.45 28.55 Q11.25 29.35 11.2 30.45 11.2 31.55 10.4 32.3 9.6 33.05 8.5 33.0 7.4 33.0 6.65 32.2 5.9 31.4 5.95 30.35 5.95 29.25 6.75 28.5 7.55 27.7 8.6 27.75 9.7 27.75 10.45 28.55" fill="#24efff" fill-rule="evenodd" stroke="none"/>
    <path d="M31.7 19.3 L25.7 25.1 24.9 24.3 30.9 18.5 31.7 19.3" fill="#0973ef" fill-rule="evenodd" stroke="none"/>
    <path d="M29.3 22.75 L29.35 25.35 23.9 30.6 20.1 26.65 25.55 21.4 29.3 22.75" fill="#0f90ff" fill-rule="evenodd" stroke="none"/>
    <path d="M33.15 17.55 L33.15 18.5 31.05 21.0 29.3 19.2 31.85 17.1 33.15 17.55" fill="#22cfff" fill-rule="evenodd" stroke="none"/>
    <path d="M27.75 24.35 L27.8 27.45 21.1 33.95 16.65 29.3 23.35 22.8 27.75 24.35" fill="#0db9ff" fill-rule="evenodd" stroke="none"/>
    <path d="M22.15 28.5 Q23.35 29.75 23.3 31.45 23.3 33.2 22.05 34.4 20.8 35.6 19.05 35.55 17.35 35.5 16.15 34.25 14.95 33.0 15.0 31.3 15.0 29.55 16.25 28.35 17.5 27.2 19.2 27.25 20.95 27.25 22.15 28.5" fill="url(#gradient2)" fill-rule="evenodd" stroke="none"/>
    <path d="M21.35 29.3 Q22.2 30.2 22.2 31.45 22.15 32.7 21.25 33.55 20.35 34.45 19.1 34.45 17.8 34.4 16.95 33.5 16.1 32.55 16.1 31.3 16.15 30.05 17.05 29.2 17.95 28.35 19.2 28.35 20.45 28.35 21.35 29.3" fill="#07a0ff" fill-rule="evenodd" stroke="none"/>
    <path d="M20.55 30.0 Q21.1 30.6 21.1 31.4 21.1 32.25 20.5 32.8 19.9 33.35 19.1 33.35 18.3 33.3 17.75 32.75 17.2 32.15 17.2 31.35 17.2 30.5 17.8 29.95 18.35 29.4 19.2 29.4 20.0 29.45 20.55 30.0" fill="#24efff" fill-rule="evenodd" stroke="none"/>
  </g>
  <defs>
    <linearGradient gradientTransform="matrix(0.0159, 5.0E-4, -3.0E-4, 0.0104, 60.25, 23.35)" gradientUnits="userSpaceOnUse" id="gradient0" spreadMethod="pad" x1="-819.2" x2="819.2">
      <stop offset="0.10980392156862745" stop-color="#aaaaaa"/>
      <stop offset="1.0" stop-color="#282828"/>
    </linearGradient>
    <linearGradient gradientTransform="matrix(0.0, -0.0069, -0.0069, 0.0, 8.55, 30.4)" gradientUnits="userSpaceOnUse" id="gradient1" spreadMethod="pad" x1="-819.2" x2="819.2">
      <stop offset="0.0" stop-color="#22a6ff"/>
      <stop offset="1.0" stop-color="#24efff"/>
    </linearGradient>
    <linearGradient gradientTransform="matrix(0.0, -0.0051, -0.0051, 0.0, 19.15, 31.4)" gradientUnits="userSpaceOnUse" id="gradient2" spreadMethod="pad" x1="-819.2" x2="819.2">
      <stop offset="0.0" stop-color="#22a6ff"/>
      <stop offset="1.0" stop-color="#24efff"/>
    </linearGradient>
  </defs>
</svg>
