<?xml version="1.0" encoding="UTF-8" standalone="no"?>
<svg xmlns:ffdec="https://www.free-decompiler.com/flash" xmlns:xlink="http://www.w3.org/1999/xlink" ffdec:objectType="shape" height="47.1px" width="45.2px" xmlns="http://www.w3.org/2000/svg">
  <g transform="matrix(1.0, 0.0, 0.0, 1.0, -25.9, 0.0)">
    <path d="M56.75 6.95 Q59.25 0.25 62.8 0.45 66.3 0.65 68.75 7.6 71.2 14.65 71.1 24.2 71.0 33.8 68.5 40.6 65.95 47.3 62.45 47.1 58.9 46.95 56.5 39.95 54.05 33.1 54.15 23.3 54.15 13.75 56.75 6.95" fill="#333c49" fill-rule="evenodd" stroke="none"/>
    <path d="M54.4 6.5 Q56.9 -0.15 60.45 0.0 63.95 0.2 66.4 7.15 68.85 14.2 68.75 23.8 68.65 33.4 66.15 40.2 63.6 46.9 60.1 46.7 56.55 46.55 54.15 39.55 51.7 32.7 51.8 22.9 51.8 13.35 54.4 6.5" fill="url(#gradient0)" fill-rule="evenodd" stroke="none"/>
    <path d="M58.2 4.4 Q60.85 4.55 62.7 10.1 64.55 15.6 64.5 23.3 64.45 31.0 62.5 36.35 60.55 41.7 57.9 41.55 55.25 41.45 53.4 35.9 51.6 30.35 51.65 22.65 51.7 14.95 53.6 9.6 55.55 4.25 58.2 4.4" fill="#1a94e5" fill-rule="evenodd" stroke="none"/>
    <path d="M55.35 22.65 Q55.4 16.15 57.0 11.65 58.65 7.15 60.9 7.25 L61.6 7.45 Q62.95 10.05 63.75 14.2 64.55 18.45 64.5 23.3 64.45 32.9 61.6 38.4 L60.65 38.6 Q58.4 38.5 56.85 33.8 55.3 29.15 55.35 22.65" fill="#45e5ff" fill-rule="evenodd" stroke="none"/>
    <path d="M25.9 44.7 L25.9 1.4 60.5 8.95 60.5 38.1 25.9 44.7" fill="url(#gradient1)" fill-rule="evenodd" stroke="none"/>
  </g>
  <defs>
    <linearGradient gradientTransform="matrix(0.0159, 5.0E-4, -3.0E-4, 0.0104, 60.25, 23.35)" gradientUnits="userSpaceOnUse" id="gradient0" spreadMethod="pad" x1="-819.2" x2="819.2">
      <stop offset="0.10980392156862745" stop-color="#aaaaaa"/>
      <stop offset="1.0" stop-color="#282828"/>
    </linearGradient>
    <linearGradient gradientTransform="matrix(0.0211, 0.0, 0.0, -0.0211, 43.2, 23.05)" gradientUnits="userSpaceOnUse" id="gradient1" spreadMethod="pad" x1="-819.2" x2="819.2">
      <stop offset="0.0" stop-color="#1a68ff" stop-opacity="0.0"/>
      <stop offset="0.19607843137254902" stop-color="#1b6bff" stop-opacity="0.019607844"/>
      <stop offset="0.3568627450980392" stop-color="#1e76ff" stop-opacity="0.08627451"/>
      <stop offset="0.5058823529411764" stop-color="#2387ff" stop-opacity="0.20392157"/>
      <stop offset="0.6509803921568628" stop-color="#2a9fff" stop-opacity="0.3647059"/>
      <stop offset="0.788235294117647" stop-color="#33bfff" stop-opacity="0.57254905"/>
      <stop offset="0.9215686274509803" stop-color="#3de5ff" stop-opacity="0.8235294"/>
      <stop offset="1.0" stop-color="#45ffff"/>
    </linearGradient>
  </defs>
</svg>
