<?xml version="1.0" encoding="UTF-8" standalone="no"?>
<svg xmlns:ffdec="https://www.free-decompiler.com/flash" xmlns:xlink="http://www.w3.org/1999/xlink" ffdec:objectType="shape" height="47.1px" width="64.55px" xmlns="http://www.w3.org/2000/svg">
  <g transform="matrix(1.0, 0.0, 0.0, 1.0, -6.55, 0.0)">
    <path d="M56.75 6.9 Q59.25 0.2 62.8 0.45 66.3 0.65 68.75 7.6 71.2 14.55 71.1 24.2 71.0 33.8 68.5 40.6 65.95 47.3 62.45 47.1 58.9 46.95 56.5 39.95 54.05 33.1 54.15 23.3 54.15 13.75 56.75 6.9" fill="#333c49" fill-rule="evenodd" stroke="none"/>
    <path d="M66.4 7.15 Q68.85 14.2 68.75 23.8 68.7 33.35 66.15 40.2 63.6 46.9 60.1 46.7 56.55 46.55 54.15 39.55 51.7 32.7 51.8 22.9 51.8 13.35 54.4 6.5 56.9 -0.15 60.45 0.0 63.95 0.2 66.4 7.15" fill="url(#gradient0)" fill-rule="evenodd" stroke="none"/>
    <path d="M58.2 4.4 Q60.85 4.55 62.7 10.1 64.55 15.6 64.5 23.3 64.45 31.0 62.5 36.35 60.55 41.7 57.9 41.55 55.25 41.4 53.4 35.85 51.6 30.35 51.65 22.65 51.7 14.95 53.6 9.6 55.55 4.25 58.2 4.4" fill="#0045e5" fill-rule="evenodd" stroke="none"/>
    <path d="M63.75 14.2 Q64.55 18.45 64.5 23.3 64.45 32.9 61.6 38.4 L60.65 38.6 Q58.4 38.5 56.85 33.8 55.3 29.15 55.35 22.65 55.4 16.15 57.0 11.65 58.65 7.15 60.9 7.25 L61.6 7.45 Q62.95 10.05 63.75 14.2" fill="#32abfc" fill-rule="evenodd" stroke="none"/>
    <path d="M24.45 13.25 Q24.55 13.7 25.9 13.6 L26.4 13.55 Q29.8 16.3 29.6 20.2 29.55 22.1 28.75 23.5 28.75 19.6 26.6 19.5 L24.4 20.15 24.05 19.9 23.8 20.0 21.55 22.25 Q22.4 23.65 19.75 25.4 18.15 26.5 15.1 30.35 12.3 33.9 10.2 35.0 8.35 34.3 7.6 32.4 8.65 30.3 12.25 27.5 16.05 24.45 17.15 22.8 18.95 20.2 20.35 21.05 L22.55 18.8 22.6 18.6 22.6 18.55 22.35 18.1 23.15 16.65 Q23.6 14.9 23.25 14.55 22.5 15.1 21.9 14.4 L21.35 14.05 Q21.05 13.7 21.05 13.3 21.05 12.85 21.35 12.55 L22.3 11.55 23.05 11.25 Q23.5 11.25 23.8 11.55 L24.2 12.1 Q24.7 12.6 24.45 13.25" fill="#0656ea" fill-rule="evenodd" stroke="none"/>
    <path d="M24.45 13.25 Q24.55 13.7 25.9 13.6 L26.4 13.55 Q29.8 16.3 29.6 20.2 29.55 22.1 28.75 23.5 28.75 19.6 26.6 19.5 L24.4 20.15 24.05 19.9 23.8 20.0 21.55 22.25 Q22.4 23.65 19.75 25.4 18.15 26.5 15.1 30.35 12.3 33.9 10.2 35.0 8.35 34.3 7.6 32.4 8.65 30.3 12.25 27.5 16.05 24.45 17.15 22.8 18.95 20.2 20.35 21.05 L22.55 18.8 22.6 18.6 22.6 18.55 22.35 18.1 23.15 16.65 Q23.6 14.9 23.25 14.55 22.5 15.1 21.9 14.4 L21.35 14.05 Q21.05 13.7 21.05 13.3 21.05 12.85 21.35 12.55 L22.3 11.55 23.05 11.25 Q23.5 11.25 23.8 11.55 L24.2 12.1 Q24.7 12.6 24.45 13.25" fill="#0656ea" fill-rule="evenodd" stroke="none"/>
    <path d="M24.45 13.25 Q24.55 13.7 25.9 13.6 L26.4 13.55 Q29.8 16.3 29.6 20.2 29.55 22.1 28.75 23.5 28.75 19.6 26.6 19.5 L24.4 20.15 24.05 19.9 23.8 20.0 21.55 22.25 Q22.4 23.65 19.75 25.4 18.15 26.5 15.1 30.35 12.3 33.9 10.2 35.0 8.35 34.3 7.6 32.4 8.65 30.3 12.25 27.5 16.05 24.45 17.15 22.8 18.95 20.2 20.35 21.05 L22.55 18.8 22.6 18.6 22.6 18.55 22.35 18.1 23.15 16.65 Q23.6 14.9 23.25 14.55 22.5 15.1 21.9 14.4 L21.35 14.05 Q21.05 13.7 21.05 13.3 21.05 12.85 21.35 12.55 L22.3 11.55 23.05 11.25 Q23.5 11.25 23.8 11.55 L24.2 12.1 Q24.7 12.6 24.45 13.25" fill="#0f50f4" fill-rule="evenodd" stroke="none"/>
    <path d="M24.45 13.25 Q24.55 13.7 25.9 13.6 L26.4 13.55 Q29.8 16.3 29.6 20.2 29.55 22.1 28.75 23.5 28.75 19.6 26.6 19.5 L24.4 20.15 24.05 19.9 23.8 20.0 22.55 18.8 22.6 18.6 22.6 18.55 22.35 18.1 23.15 16.65 Q23.6 14.9 23.25 14.55 22.5 15.1 21.9 14.4 L21.35 14.05 Q21.05 13.7 21.05 13.3 21.05 12.85 21.35 12.55 L22.3 11.55 23.05 11.25 Q23.5 11.25 23.8 11.55 L24.2 12.1 Q24.7 12.6 24.45 13.25" fill="#0d79fc" fill-rule="evenodd" stroke="none"/>
    <path d="M21.55 22.25 Q22.4 23.65 19.75 25.4 18.15 26.5 15.1 30.35 12.3 33.9 10.2 35.0 8.35 34.3 7.6 32.4 8.65 30.3 12.25 27.5 16.05 24.45 17.15 22.8 18.95 20.2 20.35 21.05 L21.55 22.25" fill="#0d79fc" fill-rule="evenodd" stroke="none"/>
    <path d="M13.9 18.1 L24.1 28.3 26.3 28.1 Q27.45 28.35 28.3 29.2 29.95 30.85 29.25 33.15 L27.4 31.3 26.6 31.25 Q26.1 31.4 25.6 31.85 24.5 33.1 25.05 33.65 L26.9 35.5 26.7 35.7 24.6 35.75 Q23.5 35.5 22.75 34.75 21.95 33.95 21.7 32.8 21.45 31.75 21.8 30.65 L11.55 20.4 Q9.3 21.1 7.65 19.45 6.9 18.7 6.65 17.65 6.4 16.65 6.75 15.65 L8.5 17.4 9.25 17.5 Q9.75 17.35 10.25 16.85 L10.85 15.85 Q11.05 15.4 10.8 15.15 L9.0 13.4 9.2 13.2 Q11.3 12.5 13.0 14.1 14.7 15.8 13.9 18.1" fill="#1aa3ff" fill-rule="evenodd" stroke="none"/>
  </g>
  <defs>
    <linearGradient gradientTransform="matrix(0.0159, 5.0E-4, -3.0E-4, 0.0104, 60.25, 23.35)" gradientUnits="userSpaceOnUse" id="gradient0" spreadMethod="pad" x1="-819.2" x2="819.2">
      <stop offset="0.10980392156862745" stop-color="#aaaaaa"/>
      <stop offset="1.0" stop-color="#282828"/>
    </linearGradient>
  </defs>
</svg>
