<?xml version="1.0" encoding="UTF-8" standalone="no"?>
<svg xmlns:ffdec="https://www.free-decompiler.com/flash" xmlns:xlink="http://www.w3.org/1999/xlink" ffdec:objectType="shape" height="47.1px" width="66.05px" xmlns="http://www.w3.org/2000/svg">
  <g transform="matrix(1.0, 0.0, 0.0, 1.0, -5.05, 0.0)">
    <path d="M56.75 6.9 Q59.25 0.2 62.8 0.45 66.3 0.65 68.75 7.6 71.2 14.55 71.1 24.2 71.0 33.8 68.5 40.6 65.95 47.3 62.45 47.1 58.9 46.95 56.5 39.95 54.05 33.1 54.15 23.3 54.15 13.75 56.75 6.9" fill="#333c49" fill-rule="evenodd" stroke="none"/>
    <path d="M66.4 7.15 Q68.85 14.2 68.75 23.8 68.7 33.35 66.15 40.2 63.6 46.9 60.1 46.7 56.55 46.55 54.15 39.55 51.7 32.7 51.8 22.9 51.8 13.35 54.4 6.5 56.9 -0.15 60.45 0.0 63.95 0.2 66.4 7.15" fill="url(#gradient0)" fill-rule="evenodd" stroke="none"/>
    <path d="M58.2 4.4 Q60.85 4.55 62.7 10.1 64.55 15.6 64.5 23.3 64.45 31.0 62.5 36.35 60.55 41.7 57.9 41.55 55.25 41.4 53.4 35.85 51.6 30.35 51.65 22.65 51.7 14.95 53.6 9.6 55.55 4.25 58.2 4.4" fill="#0045e5" fill-rule="evenodd" stroke="none"/>
    <path d="M63.75 14.2 Q64.55 18.45 64.5 23.3 64.45 32.9 61.6 38.4 L60.65 38.6 Q58.4 38.5 56.85 33.8 55.3 29.15 55.35 22.65 55.4 16.15 57.0 11.65 58.65 7.15 60.9 7.25 L61.6 7.45 Q62.95 10.05 63.75 14.2" fill="#32abfc" fill-rule="evenodd" stroke="none"/>
    <path d="M18.05 10.2 Q20.45 11.25 23.6 11.85 28.2 12.7 30.5 11.4 31.05 13.5 31.05 18.15 31.05 28.5 18.05 36.9 5.05 28.5 5.05 18.15 5.05 13.7 5.65 11.4 7.95 12.7 12.5 11.85 15.4 11.3 18.05 10.2" fill="url(#gradient1)" fill-rule="evenodd" stroke="none"/>
    <path d="M21.05 12.95 L25.45 13.55 27.7 13.45 Q28.0 15.15 28.0 18.8 28.0 27.9 18.05 35.3 8.05 27.9 8.05 18.8 8.05 15.15 8.4 13.45 L10.6 13.55 Q13.7 13.75 18.05 11.8 L21.05 12.95" fill="#0933ce" fill-rule="evenodd" stroke="none"/>
    <path d="M26.55 19.5 Q26.55 27.25 18.05 33.6 9.55 27.25 9.55 19.5 9.55 16.35 9.8 14.95 L11.7 15.0 Q14.15 15.2 18.05 13.55 21.6 15.25 24.35 15.0 L26.25 14.95 Q26.55 16.35 26.55 19.5" fill="#0d79fc" fill-rule="evenodd" stroke="none"/>
    <path d="M25.25 20.1 Q25.25 26.7 18.05 32.05 10.8 26.7 10.8 20.1 10.8 17.45 11.05 16.25 L12.65 16.3 Q14.85 16.45 18.05 15.05 20.9 16.5 23.4 16.3 L25.0 16.25 25.25 20.1" fill="#24afff" fill-rule="evenodd" stroke="none"/>
    <path d="M24.4 20.45 Q24.4 22.5 22.4 23.7 20.6 24.8 18.05 24.8 15.45 24.8 13.65 23.7 11.65 22.5 11.65 20.45 11.65 18.35 11.9 17.05 L13.3 17.1 Q15.15 17.25 18.05 16.0 20.8 17.25 22.75 17.1 L24.2 17.05 24.4 20.45" fill="url(#gradient2)" fill-rule="evenodd" stroke="none"/>
  </g>
  <defs>
    <linearGradient gradientTransform="matrix(0.0159, 5.0E-4, -3.0E-4, 0.0104, 60.25, 23.35)" gradientUnits="userSpaceOnUse" id="gradient0" spreadMethod="pad" x1="-819.2" x2="819.2">
      <stop offset="0.10980392156862745" stop-color="#aaaaaa"/>
      <stop offset="1.0" stop-color="#282828"/>
    </linearGradient>
    <linearGradient gradientTransform="matrix(0.0, -0.0163, -0.0163, 0.0, 18.05, 23.55)" gradientUnits="userSpaceOnUse" id="gradient1" spreadMethod="pad" x1="-819.2" x2="819.2">
      <stop offset="0.0" stop-color="#0042ff"/>
      <stop offset="1.0" stop-color="#227dff"/>
    </linearGradient>
    <linearGradient gradientTransform="matrix(0.0, -0.0054, -0.0054, 0.0, 18.05, 20.4)" gradientUnits="userSpaceOnUse" id="gradient2" spreadMethod="pad" x1="-819.2" x2="819.2">
      <stop offset="0.0" stop-color="#6cdcff" stop-opacity="0.1764706"/>
      <stop offset="1.0" stop-color="#6cdcff"/>
    </linearGradient>
  </defs>
</svg>
