<?xml version="1.0" encoding="UTF-8" standalone="no"?>
<svg xmlns:ffdec="https://www.free-decompiler.com/flash" xmlns:xlink="http://www.w3.org/1999/xlink" ffdec:objectType="shape" height="47.1px" width="66.05px" xmlns="http://www.w3.org/2000/svg">
  <g transform="matrix(1.0, 0.0, 0.0, 1.0, -5.05, 0.0)">
    <path d="M56.75 6.9 Q59.25 0.2 62.8 0.45 66.3 0.65 68.75 7.6 71.2 14.55 71.1 24.2 71.0 33.8 68.5 40.6 65.95 47.3 62.45 47.1 58.9 46.95 56.5 39.95 54.05 33.1 54.15 23.3 54.15 13.75 56.75 6.9" fill="#333c49" fill-rule="evenodd" stroke="none"/>
    <path d="M66.4 7.15 Q68.85 14.2 68.75 23.8 68.7 33.35 66.15 40.2 63.6 46.9 60.1 46.7 56.55 46.55 54.15 39.55 51.7 32.7 51.8 22.9 51.8 13.35 54.4 6.5 56.9 -0.15 60.45 0.0 63.95 0.2 66.4 7.15" fill="url(#gradient0)" fill-rule="evenodd" stroke="none"/>
    <path d="M58.2 4.4 Q60.85 4.55 62.7 10.1 64.55 15.6 64.5 23.3 64.45 31.0 62.5 36.35 60.55 41.7 57.9 41.55 55.25 41.4 53.4 35.85 51.6 30.35 51.65 22.65 51.7 14.95 53.6 9.6 55.55 4.25 58.2 4.4" fill="#0045e5" fill-rule="evenodd" stroke="none"/>
    <path d="M61.6 7.45 Q62.95 10.05 63.75 14.2 64.55 18.45 64.5 23.3 64.45 32.9 61.6 38.4 L60.65 38.6 Q58.4 38.5 56.85 33.8 55.3 29.15 55.35 22.65 55.4 16.15 57.0 11.65 58.65 7.15 60.9 7.25 L61.6 7.45" fill="#32abfc" fill-rule="evenodd" stroke="none"/>
    <path d="M18.05 10.2 Q20.5 11.3 23.6 11.85 28.2 12.75 30.5 11.4 31.1 13.7 31.1 18.15 31.1 28.5 18.05 36.95 5.05 28.5 5.05 18.15 5.05 13.7 5.65 11.4 7.95 12.75 12.5 11.85 15.35 11.3 18.05 10.2" fill="url(#gradient1)" fill-rule="evenodd" stroke="none"/>
    <path d="M28.0 18.8 Q28.0 27.9 18.05 35.35 8.05 27.9 8.05 18.8 8.05 15.45 8.4 13.45 L10.65 13.55 Q13.6 13.8 18.05 11.8 19.35 12.45 21.1 12.95 L25.45 13.55 27.7 13.45 Q28.0 15.15 28.0 18.8" fill="#0f90ff" fill-rule="evenodd" stroke="none"/>
    <path d="M26.55 19.5 Q26.55 27.3 18.05 33.6 9.55 27.3 9.55 19.5 9.55 16.4 9.8 14.95 L11.7 15.0 Q14.05 15.25 18.05 13.55 21.6 15.25 24.35 15.0 L26.25 14.95 Q26.55 16.4 26.55 19.5" fill="#0db9ff" fill-rule="evenodd" stroke="none"/>
    <path d="M25.25 20.1 Q25.25 26.7 18.05 32.1 10.8 26.7 10.8 20.1 10.8 17.75 11.05 16.25 L12.65 16.3 Q14.75 16.5 18.05 15.05 21.2 16.5 23.4 16.3 L25.05 16.25 25.25 20.1" fill="#24d8ff" fill-rule="evenodd" stroke="none"/>
    <path d="M24.45 20.55 Q24.45 22.6 22.45 23.8 20.65 24.9 18.1 24.9 15.5 24.9 13.7 23.8 11.7 22.6 11.7 20.55 L11.9 17.15 13.35 17.2 Q15.3 17.35 18.05 16.1 20.8 17.35 22.8 17.2 L24.25 17.15 24.45 20.55" fill="url(#gradient2)" fill-rule="evenodd" stroke="none"/>
  </g>
  <defs>
    <linearGradient gradientTransform="matrix(0.0159, 5.0E-4, -3.0E-4, 0.0104, 60.25, 23.35)" gradientUnits="userSpaceOnUse" id="gradient0" spreadMethod="pad" x1="-819.2" x2="819.2">
      <stop offset="0.10980392156862745" stop-color="#aaaaaa"/>
      <stop offset="1.0" stop-color="#282828"/>
    </linearGradient>
    <linearGradient gradientTransform="matrix(0.0, -0.0163, -0.0163, 0.0, 18.05, 23.55)" gradientUnits="userSpaceOnUse" id="gradient1" spreadMethod="pad" x1="-819.2" x2="819.2">
      <stop offset="0.0" stop-color="#22a6ff"/>
      <stop offset="1.0" stop-color="#24efff"/>
    </linearGradient>
    <linearGradient gradientTransform="matrix(0.0, -0.0054, -0.0054, 0.0, 18.05, 20.5)" gradientUnits="userSpaceOnUse" id="gradient2" spreadMethod="pad" x1="-819.2" x2="819.2">
      <stop offset="0.0" stop-color="#6cffff" stop-opacity="0.1764706"/>
      <stop offset="1.0" stop-color="#6cffff"/>
    </linearGradient>
  </defs>
</svg>
