<?xml version="1.0" encoding="UTF-8" standalone="no"?>
<svg xmlns:ffdec="https://www.free-decompiler.com/flash" xmlns:xlink="http://www.w3.org/1999/xlink" ffdec:objectType="shape" height="69.3px" width="69.3px" xmlns="http://www.w3.org/2000/svg">
  <g transform="matrix(1.0, 0.0, 0.0, 1.0, 0.5, 0.5)">
    <path d="M53.55 2.3 L53.55 7.9 14.05 7.9 14.05 2.3 53.55 2.3 M52.55 6.9 L52.55 3.3 15.05 3.3 15.05 6.9 52.55 6.9" fill="#a0d64c" fill-rule="evenodd" stroke="none"/>
    <path d="M52.55 3.3 L52.55 6.9 15.05 6.9 15.05 3.3 52.55 3.3" fill="#2b0101" fill-rule="evenodd" stroke="none"/>
    <path d="M68.3 9.1 L59.2 0.0 10.45 0.0 0.0 10.45 0.0 59.55 8.75 68.3 68.3 68.3 68.3 44.15 64.85 40.7 64.85 23.65 68.3 20.2 68.3 9.1 Z" fill="none" stroke="#d1b500" stroke-linecap="butt" stroke-linejoin="miter-clip" stroke-miterlimit="4.0" stroke-width="1.0"/>
  </g>
</svg>
