<?xml version="1.0" encoding="UTF-8" standalone="no"?>
<svg xmlns:ffdec="https://www.free-decompiler.com/flash" xmlns:xlink="http://www.w3.org/1999/xlink" ffdec:objectType="shape" height="63.45px" width="126.7px" xmlns="http://www.w3.org/2000/svg">
  <g transform="matrix(1.0, 0.0, 0.0, 1.0, -197.85, -321.3)">
    <path d="M221.95 323.4 L231.7 321.3 237.05 324.2 234.6 344.8 229.9 345.75 227.5 344.1 221.95 323.4" fill="url(#gradient0)" fill-rule="evenodd" stroke="none"/>
    <path d="M226.3 326.4 L221.95 323.4 231.7 321.3 237.05 324.2 226.3 326.4" fill="#4f4f4f" fill-rule="evenodd" stroke="none"/>
    <path d="M307.25 325.35 L299.6 346.2 297.2 347.85 292.5 346.85 290.35 324.65 296.5 322.05 307.25 325.35" fill="url(#gradient1)" fill-rule="evenodd" stroke="none"/>
    <path d="M300.55 328.15 L290.35 324.65 296.5 322.05 307.25 325.35 300.55 328.15" fill="#4f4f4f" fill-rule="evenodd" stroke="none"/>
    <path d="M324.55 355.65 Q324.55 367.7 306.0 376.2 287.45 384.75 261.2 384.75 234.95 384.75 216.4 376.2 197.85 367.7 197.85 355.65 197.85 343.6 216.4 335.05 234.95 326.55 261.2 326.55 287.45 326.55 306.0 335.05 324.55 343.6 324.55 355.65" fill="url(#gradient2)" fill-rule="evenodd" stroke="none"/>
    <path d="M324.55 350.95 Q324.55 363.0 306.0 371.55 287.45 380.05 261.2 380.05 234.95 380.05 216.4 371.55 197.85 363.0 197.85 350.95 197.85 338.9 216.4 330.4 234.95 321.85 261.2 321.85 287.45 321.85 306.0 330.4 324.55 338.9 324.55 350.95" fill="url(#gradient3)" fill-rule="evenodd" stroke="none"/>
    <path d="M299.8 331.6 Q315.75 338.6 315.75 348.45 315.75 358.35 299.8 365.35 283.8 372.3 261.2 372.3 238.6 372.3 222.6 365.35 206.65 358.35 206.65 348.45 206.65 338.6 222.6 331.6 238.6 324.6 261.2 324.6 283.8 324.6 299.8 331.6" fill="#131821" fill-rule="evenodd" stroke="none"/>
  </g>
  <defs>
    <linearGradient gradientTransform="matrix(0.0012, 0.0148, -0.0148, 0.0012, 230.3, 333.55)" gradientUnits="userSpaceOnUse" id="gradient0" spreadMethod="pad" x1="-819.2" x2="819.2">
      <stop offset="0.0" stop-color="#262626"/>
      <stop offset="0.7215686274509804" stop-color="#737375"/>
      <stop offset="1.0" stop-color="#262626"/>
    </linearGradient>
    <linearGradient gradientTransform="matrix(0.0013, -0.0156, -0.0156, -0.0013, 297.95, 335.05)" gradientUnits="userSpaceOnUse" id="gradient1" spreadMethod="pad" x1="-819.2" x2="819.2">
      <stop offset="0.0" stop-color="#262626"/>
      <stop offset="0.7215686274509804" stop-color="#737375"/>
      <stop offset="1.0" stop-color="#262626"/>
    </linearGradient>
    <linearGradient gradientTransform="matrix(0.0, -0.0355, -0.0355, 0.0, 261.2, 355.65)" gradientUnits="userSpaceOnUse" id="gradient2" spreadMethod="pad" x1="-819.2" x2="819.2">
      <stop offset="0.0" stop-color="#282828"/>
      <stop offset="0.9058823529411765" stop-color="#a4a4a4"/>
      <stop offset="1.0" stop-color="#373737"/>
    </linearGradient>
    <linearGradient gradientTransform="matrix(0.0, -0.0355, -0.0355, 0.0, 261.2, 350.95)" gradientUnits="userSpaceOnUse" id="gradient3" spreadMethod="pad" x1="-819.2" x2="819.2">
      <stop offset="0.0" stop-color="#a4a4a4"/>
      <stop offset="1.0" stop-color="#282828"/>
    </linearGradient>
  </defs>
</svg>
