<?xml version="1.0" encoding="UTF-8" standalone="no"?>
<svg xmlns:ffdec="https://www.free-decompiler.com/flash" xmlns:xlink="http://www.w3.org/1999/xlink" ffdec:objectType="shape" height="441.7px" width="658.25px" xmlns="http://www.w3.org/2000/svg">
  <g transform="matrix(1.0, 0.0, 0.0, 1.0, -1.0, 0.0)">
    <path d="M538.75 405.5 L534.8 407.45 533.2 394.7 540.3 394.7 538.75 405.5" fill="url(#gradient0)" fill-rule="evenodd" stroke="none"/>
    <path d="M526.7 375.15 L540.85 369.35 546.8 373.6 541.35 395.85 535.15 399.25 532.1 397.15 526.7 375.15" fill="url(#gradient1)" fill-rule="evenodd" stroke="none"/>
    <path d="M533.7 380.0 L526.7 375.15 540.85 369.35 546.8 373.6 533.7 380.0" fill="#8c8c8c" fill-rule="evenodd" stroke="none"/>
    <path d="M533.7 380.0 L535.15 399.25 532.1 397.15 526.7 375.15 533.7 380.0" fill="#4f4f4f" fill-rule="evenodd" stroke="none"/>
    <path d="M444.55 405.5 L443.0 394.7 450.1 394.7 448.5 407.45 444.55 405.5" fill="url(#gradient2)" fill-rule="evenodd" stroke="none"/>
    <path d="M456.3 375.15 L450.9 397.15 447.85 399.25 441.65 395.85 434.95 374.7 442.15 369.35 456.3 375.15" fill="url(#gradient3)" fill-rule="evenodd" stroke="none"/>
    <path d="M449.3 380.0 L434.95 374.7 442.15 369.35 456.3 375.15 449.3 380.0" fill="#8c8c8c" fill-rule="evenodd" stroke="none"/>
    <path d="M449.3 380.0 L456.3 375.15 450.9 397.15 447.85 399.25 449.3 380.0" fill="#4f4f4f" fill-rule="evenodd" stroke="none"/>
    <path d="M412.0 290.65 Q413.45 291.35 414.7 291.35 L572.45 291.35 Q573.7 291.35 574.0 290.65 574.35 290.0 573.55 289.05 L562.45 275.45 Q561.65 274.5 560.25 273.85 558.8 273.15 557.55 273.15 L399.7 273.15 Q398.45 273.15 398.15 273.85 397.8 274.5 398.6 275.45 L409.75 289.05 Q410.55 290.0 412.0 290.65 M411.35 292.05 Q409.6 291.25 408.6 290.0 L397.4 276.4 Q396.05 274.8 396.75 273.2 397.6 271.65 399.7 271.65 L557.55 271.65 Q559.15 271.65 560.9 272.5 562.65 273.3 563.6 274.5 L574.7 288.1 Q576.1 289.8 575.35 291.35 574.7 292.85 572.45 292.85 L414.7 292.85 Q413.1 292.85 411.35 292.05" fill="#0f69ed" fill-rule="evenodd" stroke="none"/>
    <path d="M412.0 290.65 Q410.55 290.0 409.75 289.05 L398.6 275.45 Q397.8 274.5 398.15 273.85 398.45 273.15 399.7 273.15 L557.55 273.15 Q558.8 273.15 560.25 273.85 561.65 274.5 562.45 275.45 L573.55 289.05 Q574.35 290.0 574.0 290.65 573.7 291.35 572.45 291.35 L414.7 291.35 Q413.45 291.35 412.0 290.65" fill="#042366" fill-rule="evenodd" stroke="none"/>
    <path d="M184.95 373.25 Q185.7 374.25 185.35 374.95 185.05 375.65 183.8 375.65 L102.95 375.65 Q101.7 375.65 100.85 374.75 99.95 373.9 99.95 372.65 L99.95 361.55 Q99.95 360.3 100.85 359.45 101.7 358.55 102.95 358.55 L170.8 358.55 Q172.05 358.55 173.45 359.25 174.85 359.95 175.6 360.9 L184.95 373.25" fill="url(#gradient4)" fill-rule="evenodd" stroke="none"/>
    <path d="M203.5 389.45 Q204.15 390.1 204.15 391.2 L204.15 440.7 203.85 441.4 203.15 441.7 107.55 441.7 Q106.5 441.7 105.9 440.95 L100.55 434.9 Q99.85 434.2 99.85 433.15 L99.85 379.2 Q99.85 378.8 100.15 378.5 100.45 378.2 100.85 378.2 L193.2 378.2 Q194.25 378.2 194.85 379.0 L203.5 389.45" fill="url(#gradient5)" fill-rule="evenodd" stroke="none"/>
    <path d="M106.05 380.15 L188.65 380.15 Q189.9 380.15 191.35 380.85 192.75 381.5 193.55 382.45 L199.05 389.1 Q199.85 390.1 200.4 391.6 201.0 393.2 201.0 394.4 L201.0 436.8 Q201.0 438.05 200.1 438.9 199.25 439.8 198.0 439.8 L112.3 439.8 Q111.1 439.8 109.6 439.15 108.2 438.45 107.35 437.55 L105.05 434.9 Q104.25 434.0 103.65 432.45 103.05 430.9 103.05 429.65 L103.05 383.15 Q103.05 381.9 103.95 381.05 104.8 380.15 106.05 380.15" fill="url(#gradient6)" fill-rule="evenodd" stroke="none"/>
    <path d="M181.3 358.7 L193.9 374.45 189.55 374.45 177.5 358.7 181.3 358.7" fill="url(#gradient7)" fill-rule="evenodd" stroke="none"/>
    <path d="M181.3 358.7 L177.5 358.7 189.55 374.45 193.9 374.45 181.3 358.7 Z" fill="none" stroke="#3f2902" stroke-linecap="butt" stroke-linejoin="miter-clip" stroke-miterlimit="4.0" stroke-width="1.0"/>
    <path d="M640.05 373.25 Q640.8 374.25 640.45 374.95 640.15 375.65 638.9 375.65 L558.05 375.65 Q556.8 375.65 555.95 374.75 555.05 373.9 555.05 372.65 L555.05 361.55 Q555.05 360.3 555.95 359.45 556.8 358.55 558.05 358.55 L625.9 358.55 Q627.15 358.55 628.55 359.25 629.95 359.95 630.7 360.9 L640.05 373.25" fill="url(#gradient8)" fill-rule="evenodd" stroke="none"/>
    <path d="M658.65 389.45 Q659.25 390.15 659.25 391.2 L659.25 440.7 658.95 441.4 658.25 441.7 562.65 441.7 Q561.6 441.7 561.0 440.95 L555.65 434.9 Q554.95 434.2 554.95 433.15 L554.95 379.2 Q554.95 378.8 555.25 378.5 555.55 378.2 555.95 378.2 L648.3 378.2 Q649.35 378.2 649.95 379.0 L658.65 389.45" fill="url(#gradient9)" fill-rule="evenodd" stroke="none"/>
    <path d="M654.2 389.1 L655.55 391.6 Q656.1 393.15 656.1 394.4 L656.1 436.8 Q656.1 438.05 655.2 438.9 654.35 439.8 653.1 439.8 L567.45 439.8 Q566.25 439.8 564.75 439.15 563.3 438.45 562.45 437.55 L560.15 434.9 Q559.35 434.0 558.75 432.45 558.15 430.9 558.15 429.65 L558.15 383.15 Q558.15 381.9 559.05 381.05 559.9 380.15 561.15 380.15 L643.75 380.15 Q645.0 380.15 646.45 380.85 647.85 381.5 648.65 382.45 L654.2 389.1" fill="url(#gradient10)" fill-rule="evenodd" stroke="none"/>
    <path d="M644.7 374.45 L632.6 358.7 636.4 358.7 649.0 374.45 644.7 374.45" fill="url(#gradient11)" fill-rule="evenodd" stroke="none"/>
    <path d="M644.7 374.45 L649.0 374.45 636.4 358.7 632.6 358.7 644.7 374.45 Z" fill="none" stroke="#3f2902" stroke-linecap="butt" stroke-linejoin="miter-clip" stroke-miterlimit="4.0" stroke-width="1.0"/>
    <path d="M338.9 289.05 L336.65 290.65 Q335.2 291.35 333.95 291.35 L176.2 291.35 Q174.95 291.35 174.65 290.65 174.3 290.0 175.1 289.05 L186.2 275.45 Q187.0 274.5 188.4 273.85 189.85 273.15 191.1 273.15 L348.95 273.15 Q350.2 273.15 350.5 273.85 350.85 274.5 350.05 275.45 L338.9 289.05" fill="#042366" fill-rule="evenodd" stroke="none"/>
    <path d="M338.9 289.05 L350.05 275.45 Q350.85 274.5 350.5 273.85 350.2 273.15 348.95 273.15 L191.1 273.15 Q189.85 273.15 188.4 273.85 187.0 274.5 186.2 275.45 L175.1 289.05 Q174.3 290.0 174.65 290.65 174.95 291.35 176.2 291.35 L333.95 291.35 Q335.2 291.35 336.65 290.65 L338.9 289.05 M337.3 292.05 Q335.55 292.85 333.95 292.85 L176.2 292.85 Q173.95 292.85 173.3 291.35 172.55 289.8 173.95 288.1 L185.05 274.5 Q186.0 273.3 187.75 272.5 189.5 271.65 191.1 271.65 L348.95 271.65 Q351.05 271.65 351.9 273.2 352.6 274.8 351.25 276.4 L340.05 290.0 Q339.05 291.25 337.3 292.05" fill="#0f69ed" fill-rule="evenodd" stroke="none"/>
    <path d="M94.55 7.25 Q101.9 8.95 104.7 12.5 106.4 14.6 106.9 17.95 L107.15 22.9 107.15 287.05 Q107.15 290.05 106.3 292.65 105.35 295.55 103.65 297.15 100.45 300.25 94.4 301.95 81.45 305.55 54.05 305.55 26.3 305.55 14.55 302.6 8.85 301.15 5.45 297.85 3.85 296.25 2.5 293.1 1.0 289.7 1.0 287.05 L1.0 263.85 5.05 259.8 5.05 65.05 1.0 61.0 1.0 22.9 Q1.0 20.0 1.85 17.35 2.75 14.6 4.4 12.75 7.2 9.7 13.7 7.95 26.55 4.45 54.05 4.45 82.45 4.45 94.55 7.25" fill="url(#gradient12)" fill-rule="evenodd" stroke="none"/>
    <path d="M96.2 22.75 L96.2 287.5 Q96.2 291.65 93.25 294.55 90.35 297.5 86.2 297.5 L21.9 297.5 Q17.8 297.5 14.85 294.55 11.9 291.65 11.9 287.5 L11.9 22.75 Q11.9 18.65 14.85 15.7 17.8 12.75 21.9 12.75 L86.2 12.75 Q90.35 12.75 93.25 15.7 96.2 18.65 96.2 22.75" fill="url(#gradient13)" fill-rule="evenodd" stroke="none"/>
    <path d="M92.25 23.0 L92.25 287.25 Q92.25 289.5 90.65 291.1 89.05 292.7 86.8 292.7 L21.3 292.7 Q19.05 292.7 17.45 291.1 15.85 289.5 15.85 287.25 L15.85 23.0 Q15.85 20.75 17.45 19.15 19.05 17.55 21.3 17.55 L86.8 17.55 Q89.05 17.55 90.65 19.15 92.25 20.75 92.25 23.0" fill="url(#gradient14)" fill-rule="evenodd" stroke="none"/>
    <path d="M88.9 3.6 Q89.5 4.55 88.8 5.85 L83.05 16.25 Q82.3 17.6 80.65 18.55 78.95 19.5 77.3 19.5 L30.65 19.5 Q29.05 19.5 27.35 18.55 25.65 17.55 24.95 16.25 L19.2 5.85 Q18.45 4.55 19.05 3.55 19.6 2.6 21.3 2.15 L29.35 1.1 53.95 0.0 78.6 1.1 86.65 2.15 Q88.3 2.65 88.9 3.6" fill="url(#gradient15)" fill-rule="evenodd" stroke="none"/>
    <path d="M54.4 6.5 L46.25 10.95 62.6 10.95 54.4 6.5 Z" fill="none" stroke="#424344" stroke-linecap="butt" stroke-linejoin="miter-clip" stroke-miterlimit="4.0" stroke-width="1.0"/>
    <path d="M19.8 299.3 L89.75 299.3 93.15 302.7 Q80.05 305.75 54.95 305.75 27.85 305.75 16.15 303.0 L19.8 299.3" fill="#181919" fill-rule="evenodd" stroke="none"/>
  </g>
  <defs>
    <linearGradient gradientTransform="matrix(0.0, 0.0078, -0.0078, 0.0, 536.7, 401.05)" gradientUnits="userSpaceOnUse" id="gradient0" spreadMethod="pad" x1="-819.2" x2="819.2">
      <stop offset="0.0" stop-color="#00e0ff" stop-opacity="0.7490196"/>
      <stop offset="1.0" stop-color="#00e0ff" stop-opacity="0.02745098"/>
    </linearGradient>
    <linearGradient gradientTransform="matrix(0.0015, 0.0178, -0.0178, 0.0015, 537.55, 384.35)" gradientUnits="userSpaceOnUse" id="gradient1" spreadMethod="pad" x1="-819.2" x2="819.2">
      <stop offset="0.0" stop-color="#262626"/>
      <stop offset="0.7215686274509804" stop-color="#737375"/>
      <stop offset="1.0" stop-color="#262626"/>
    </linearGradient>
    <linearGradient gradientTransform="matrix(0.0, 0.0078, 0.0078, 0.0, 446.6, 401.05)" gradientUnits="userSpaceOnUse" id="gradient2" spreadMethod="pad" x1="-819.2" x2="819.2">
      <stop offset="0.0" stop-color="#00e0ff" stop-opacity="0.7490196"/>
      <stop offset="1.0" stop-color="#00e0ff" stop-opacity="0.02745098"/>
    </linearGradient>
    <linearGradient gradientTransform="matrix(0.0015, -0.0178, -0.0178, -0.0015, 444.85, 384.3)" gradientUnits="userSpaceOnUse" id="gradient3" spreadMethod="pad" x1="-819.2" x2="819.2">
      <stop offset="0.0" stop-color="#262626"/>
      <stop offset="0.7215686274509804" stop-color="#737375"/>
      <stop offset="1.0" stop-color="#262626"/>
    </linearGradient>
    <linearGradient gradientTransform="matrix(0.0522, 0.0, 0.0, -0.0522, 142.7, 367.1)" gradientUnits="userSpaceOnUse" id="gradient4" spreadMethod="pad" x1="-819.2" x2="819.2">
      <stop offset="0.0" stop-color="#282828"/>
      <stop offset="0.9058823529411765" stop-color="#a4a4a4"/>
      <stop offset="1.0" stop-color="#373737"/>
    </linearGradient>
    <linearGradient gradientTransform="matrix(0.0, 0.0394, 0.0394, 0.0, 152.0, 408.45)" gradientUnits="userSpaceOnUse" id="gradient5" spreadMethod="pad" x1="-819.2" x2="819.2">
      <stop offset="0.07058823529411765" stop-color="#636676"/>
      <stop offset="0.09411764705882353" stop-color="#5f6271"/>
      <stop offset="0.23137254901960785" stop-color="#4f515c"/>
      <stop offset="0.3803921568627451" stop-color="#44454d"/>
      <stop offset="0.5607843137254902" stop-color="#3d3e45"/>
      <stop offset="0.8352941176470589" stop-color="#3b3c42"/>
      <stop offset="0.9098039215686274" stop-color="#303139"/>
      <stop offset="1.0" stop-color="#1e1e2b"/>
    </linearGradient>
    <linearGradient gradientTransform="matrix(0.0, -0.0364, -0.0364, 0.0, 152.0, 409.95)" gradientUnits="userSpaceOnUse" id="gradient6" spreadMethod="pad" x1="-819.2" x2="819.2">
      <stop offset="0.0" stop-color="#00406e"/>
      <stop offset="0.00784313725490196" stop-color="#003f6d"/>
      <stop offset="0.23529411764705882" stop-color="#002c53"/>
      <stop offset="0.47058823529411764" stop-color="#001f41"/>
      <stop offset="0.7215686274509804" stop-color="#001737"/>
      <stop offset="1.0" stop-color="#001433"/>
    </linearGradient>
    <linearGradient gradientTransform="matrix(0.01, 0.0, 0.0, -0.01, 185.7, 366.6)" gradientUnits="userSpaceOnUse" id="gradient7" spreadMethod="pad" x1="-819.2" x2="819.2">
      <stop offset="0.0" stop-color="#d48a00"/>
      <stop offset="0.9294117647058824" stop-color="#8c3300"/>
      <stop offset="1.0" stop-color="#a34f00"/>
    </linearGradient>
    <linearGradient gradientTransform="matrix(0.0522, 0.0, 0.0, -0.0522, 597.8, 367.1)" gradientUnits="userSpaceOnUse" id="gradient8" spreadMethod="pad" x1="-819.2" x2="819.2">
      <stop offset="0.0" stop-color="#282828"/>
      <stop offset="0.9058823529411765" stop-color="#a4a4a4"/>
      <stop offset="1.0" stop-color="#373737"/>
    </linearGradient>
    <linearGradient gradientTransform="matrix(0.0, 0.0394, 0.0394, 0.0, 607.1, 408.45)" gradientUnits="userSpaceOnUse" id="gradient9" spreadMethod="pad" x1="-819.2" x2="819.2">
      <stop offset="0.07058823529411765" stop-color="#636676"/>
      <stop offset="0.09411764705882353" stop-color="#5f6271"/>
      <stop offset="0.23137254901960785" stop-color="#4f515c"/>
      <stop offset="0.3803921568627451" stop-color="#44454d"/>
      <stop offset="0.5607843137254902" stop-color="#3d3e45"/>
      <stop offset="0.8352941176470589" stop-color="#3b3c42"/>
      <stop offset="0.9098039215686274" stop-color="#303139"/>
      <stop offset="1.0" stop-color="#1e1e2b"/>
    </linearGradient>
    <linearGradient gradientTransform="matrix(0.0, -0.0364, -0.0364, 0.0, 607.1, 409.95)" gradientUnits="userSpaceOnUse" id="gradient10" spreadMethod="pad" x1="-819.2" x2="819.2">
      <stop offset="0.0" stop-color="#00406e"/>
      <stop offset="0.00784313725490196" stop-color="#003f6d"/>
      <stop offset="0.23529411764705882" stop-color="#002c53"/>
      <stop offset="0.47058823529411764" stop-color="#001f41"/>
      <stop offset="0.7215686274509804" stop-color="#001737"/>
      <stop offset="1.0" stop-color="#001433"/>
    </linearGradient>
    <linearGradient gradientTransform="matrix(0.01, 0.0, 0.0, -0.01, 640.8, 366.6)" gradientUnits="userSpaceOnUse" id="gradient11" spreadMethod="pad" x1="-819.2" x2="819.2">
      <stop offset="0.0" stop-color="#d48a00"/>
      <stop offset="0.9294117647058824" stop-color="#8c3300"/>
      <stop offset="1.0" stop-color="#a34f00"/>
    </linearGradient>
    <linearGradient gradientTransform="matrix(0.0, -0.1838, -0.1838, 0.0, 54.05, 155.0)" gradientUnits="userSpaceOnUse" id="gradient12" spreadMethod="pad" x1="-819.2" x2="819.2">
      <stop offset="0.0" stop-color="#505050"/>
      <stop offset="0.10980392156862745" stop-color="#282828"/>
      <stop offset="0.9058823529411765" stop-color="#a4a4a4"/>
      <stop offset="1.0" stop-color="#373737"/>
    </linearGradient>
    <linearGradient gradientTransform="matrix(0.0, -0.1738, -0.1738, 0.0, 54.05, 155.1)" gradientUnits="userSpaceOnUse" id="gradient13" spreadMethod="pad" x1="-819.2" x2="819.2">
      <stop offset="0.0" stop-color="#3d668c"/>
      <stop offset="1.0" stop-color="#3d668c"/>
    </linearGradient>
    <linearGradient gradientTransform="matrix(0.0, -0.1679, -0.1679, 0.0, 54.05, 155.1)" gradientUnits="userSpaceOnUse" id="gradient14" spreadMethod="pad" x1="-819.2" x2="819.2">
      <stop offset="0.1450980392156863" stop-color="#01376b"/>
      <stop offset="0.5333333333333333" stop-color="#034787"/>
      <stop offset="1.0" stop-color="#002b57"/>
    </linearGradient>
    <linearGradient gradientTransform="matrix(0.0, -0.0119, -0.0119, 0.0, 54.0, 9.75)" gradientUnits="userSpaceOnUse" id="gradient15" spreadMethod="pad" x1="-819.2" x2="819.2">
      <stop offset="0.0" stop-color="#373737"/>
      <stop offset="0.12549019607843137" stop-color="#aaaaaa"/>
      <stop offset="1.0" stop-color="#282828"/>
    </linearGradient>
  </defs>
</svg>
