<?xml version="1.0" encoding="UTF-8" standalone="no"?>
<svg xmlns:ffdec="https://www.free-decompiler.com/flash" xmlns:xlink="http://www.w3.org/1999/xlink" ffdec:objectType="shape" height="203.85px" width="479.3px" xmlns="http://www.w3.org/2000/svg">
  <g transform="matrix(1.0, 0.0, 0.0, 1.0, -130.85, -49.1)">
    <path d="M347.75 61.65 Q347.75 64.7 345.6 66.8 343.45 68.95 340.45 68.95 337.4 68.95 335.3 66.8 333.15 64.7 333.15 61.65 333.15 58.65 335.3 56.55 337.4 54.4 340.45 54.4 343.45 54.4 345.6 56.55 347.75 58.65 347.75 61.65" fill="#022966" fill-rule="evenodd" stroke="none"/>
    <path d="M347.75 61.65 Q347.75 64.7 345.6 66.8 343.45 68.95 340.45 68.95 337.4 68.95 335.3 66.8 333.15 64.7 333.15 61.65 333.15 58.65 335.3 56.55 337.4 54.4 340.45 54.4 343.45 54.4 345.6 56.55 347.75 58.65 347.75 61.65 Z" fill="none" stroke="#0ca5f2" stroke-linecap="butt" stroke-linejoin="miter-clip" stroke-miterlimit="4.0" stroke-width="1.5"/>
    <path d="M346.05 62.55 L339.65 62.55 339.65 61.65 346.05 61.65 346.05 62.55" fill="#0c90ea" fill-rule="evenodd" stroke="none"/>
    <path d="M342.0 58.8 L340.45 62.7 339.6 62.35 341.15 58.45 342.0 58.8" fill="#0c90ea" fill-rule="evenodd" stroke="none"/>
    <path d="M609.65 63.25 L609.65 244.25 Q609.65 245.5 609.05 247.0 608.4 248.55 607.55 249.4 L607.4 249.5 605.05 251.05 Q603.55 251.65 602.3 251.65 L442.8 251.65 Q441.55 251.65 440.7 250.75 439.8 249.9 439.8 248.65 L439.8 81.15 Q439.8 79.9 440.4 78.4 441.05 76.9 441.9 76.05 L460.85 57.1 Q461.7 56.25 463.2 55.6 L465.95 55.0 601.4 55.0 Q602.65 55.0 604.15 55.6 605.65 56.25 606.55 57.1 L607.55 58.1 Q608.4 59.0 609.05 60.5 609.65 62.0 609.65 63.25" fill="#04217f" fill-rule="evenodd" stroke="none"/>
    <path d="M609.65 63.25 L609.65 244.25 Q609.65 245.5 609.05 247.0 608.4 248.55 607.55 249.4 L607.4 249.5 605.05 251.05 Q603.55 251.65 602.3 251.65 L442.8 251.65 Q441.55 251.65 440.7 250.75 439.8 249.9 439.8 248.65 L439.8 81.15 Q439.8 79.9 440.4 78.4 441.05 76.9 441.9 76.05 L460.85 57.1 Q461.7 56.25 463.2 55.6 L465.95 55.0 601.4 55.0 Q602.65 55.0 604.15 55.6 605.65 56.25 606.55 57.1 L607.55 58.1 Q608.4 59.0 609.05 60.5 609.65 62.0 609.65 63.25 Z" fill="none" stroke="#0f69ed" stroke-linecap="butt" stroke-linejoin="miter-clip" stroke-miterlimit="4.0" stroke-width="1.0"/>
    <path d="M600.8 83.05 L600.8 191.5 Q600.8 193.45 599.85 196.0 598.95 198.5 597.65 200.0 L595.2 202.9 Q593.8 204.5 592.8 207.2 591.8 209.85 591.8 212.0 L591.8 241.55 Q591.8 243.4 590.5 244.7 589.15 246.05 587.3 246.05 L452.0 246.05 Q450.15 246.05 448.8 244.7 447.5 243.4 447.5 241.55 L447.5 83.05 Q447.5 81.2 448.8 79.85 450.15 78.55 452.0 78.55 L596.3 78.55 Q598.2 78.55 599.5 79.85 600.8 81.2 600.8 83.05" fill="url(#gradient0)" fill-rule="evenodd" stroke="none"/>
    <path d="M596.3 78.05 Q598.35 78.05 599.85 79.5 601.3 81.0 601.3 83.05 L601.3 191.5 Q601.3 193.55 600.35 196.15 599.4 198.75 598.05 200.3 L595.55 203.2 Q594.2 204.75 593.25 207.35 592.3 209.95 592.3 212.0 L592.3 241.55 Q592.3 243.6 590.85 245.1 589.35 246.55 587.3 246.55 L452.0 246.55 Q449.95 246.55 448.45 245.1 447.0 243.6 447.0 241.55 L447.0 83.05 Q447.0 81.0 448.45 79.5 449.95 78.05 452.0 78.05 L596.3 78.05 M600.3 83.05 Q600.3 81.4 599.15 80.25 597.95 79.05 596.3 79.05 L452.0 79.05 Q450.35 79.05 449.2 80.25 448.0 81.4 448.0 83.05 L448.0 241.55 Q448.0 243.2 449.2 244.4 450.35 245.55 452.0 245.55 L587.3 245.55 Q588.95 245.55 590.15 244.4 591.3 243.2 591.3 241.55 L591.3 212.0 Q591.3 209.75 592.3 207.0 593.35 204.3 594.8 202.55 L597.3 199.65 Q598.5 198.2 599.4 195.8 600.3 193.35 600.3 191.5 L600.3 83.05" fill="#172f91" fill-rule="evenodd" stroke="none"/>
    <path d="M595.75 82.0 L595.75 194.2 591.35 199.6 591.35 82.0 595.75 82.0" fill="#082caf" fill-opacity="0.29803923" fill-rule="evenodd" stroke="none"/>
    <path d="M595.75 82.0 L595.75 194.2 591.35 199.6 591.35 82.0 595.75 82.0 Z" fill="none" stroke="#035eef" stroke-linecap="butt" stroke-linejoin="miter-clip" stroke-miterlimit="4.0" stroke-width="1.0"/>
    <path d="M595.55 211.15 L604.65 199.05 604.65 242.25 600.3 246.65 595.55 246.65 595.55 211.15 Z" fill="none" stroke="#035eef" stroke-linecap="butt" stroke-linejoin="miter-clip" stroke-miterlimit="4.0" stroke-width="1.0"/>
    <path d="M595.55 211.15 L604.65 199.05 604.65 242.25 600.3 246.65 595.55 246.65 595.55 211.15" fill="#0554c6" fill-opacity="0.49803922" fill-rule="evenodd" stroke="none"/>
    <path d="M596.3 75.55 L452.45 75.55 Q451.2 75.55 450.95 74.9 450.7 74.25 451.55 73.4 L463.65 61.3 Q464.5 60.45 466.0 59.8 467.5 59.2 468.75 59.2 L596.3 59.2 Q597.55 59.2 598.4 60.1 599.3 60.95 599.3 62.2 L599.3 72.55 Q599.3 73.8 598.4 74.65 597.55 75.55 596.3 75.55" fill="#0e6dd6" fill-rule="evenodd" stroke="none"/>
    <path d="M596.3 75.55 L452.45 75.55 Q451.2 75.55 450.95 74.9 450.7 74.25 451.55 73.4 L463.65 61.3 Q464.5 60.45 466.0 59.8 467.5 59.2 468.75 59.2 L596.3 59.2 Q597.55 59.2 598.4 60.1 599.3 60.95 599.3 62.2 L599.3 72.55 Q599.3 73.8 598.4 74.65 597.55 75.55 596.3 75.55 Z" fill="none" stroke="#2eb7e3" stroke-linecap="butt" stroke-linejoin="miter-clip" stroke-miterlimit="4.0" stroke-width="1.0"/>
    <path d="M275.05 55.0 Q276.3 55.0 277.8 55.6 279.3 56.25 280.2 57.1 L299.1 76.05 Q300.0 76.9 300.65 78.4 301.25 79.9 301.25 81.15 L301.25 248.65 Q301.25 249.9 300.35 250.75 299.5 251.65 298.25 251.65 L138.75 251.65 Q137.5 251.65 136.0 251.05 134.45 250.4 133.6 249.5 L133.5 249.4 Q132.6 248.55 132.0 247.0 131.35 245.5 131.35 244.25 L131.35 63.25 Q131.35 62.0 132.0 60.5 132.6 59.0 133.5 58.1 L134.5 57.1 Q135.35 56.25 136.85 55.6 138.35 55.0 139.6 55.0 L275.05 55.0" fill="#04217f" fill-rule="evenodd" stroke="none"/>
    <path d="M275.05 55.0 L139.6 55.0 Q138.35 55.0 136.85 55.6 135.35 56.25 134.5 57.1 L133.5 58.1 Q132.6 59.0 132.0 60.5 131.35 62.0 131.35 63.25 L131.35 244.25 Q131.35 245.5 132.0 247.0 132.6 248.55 133.5 249.4 L133.6 249.5 Q134.45 250.4 136.0 251.05 137.5 251.65 138.75 251.65 L298.25 251.65 Q299.5 251.65 300.35 250.75 301.25 249.9 301.25 248.65 L301.25 81.15 Q301.25 79.9 300.65 78.4 300.0 76.9 299.1 76.05 L280.2 57.1 Q279.3 56.25 277.8 55.6 276.3 55.0 275.05 55.0 Z" fill="none" stroke="#0f69ed" stroke-linecap="butt" stroke-linejoin="miter-clip" stroke-miterlimit="4.0" stroke-width="1.0"/>
    <path d="M293.5 83.05 L293.5 241.55 Q293.5 243.4 292.2 244.7 290.85 246.05 289.0 246.05 L153.7 246.05 Q151.85 246.05 150.55 244.7 149.2 243.4 149.2 241.55 L149.2 212.0 Q149.2 209.85 148.2 207.2 147.25 204.5 145.85 202.9 L143.35 200.0 Q142.1 198.5 141.15 196.0 140.2 193.45 140.2 191.5 L140.2 83.05 Q140.2 81.2 141.55 79.85 142.85 78.55 144.7 78.55 L289.0 78.55 Q290.9 78.55 292.2 79.85 293.5 81.2 293.5 83.05" fill="url(#gradient1)" fill-rule="evenodd" stroke="none"/>
    <path d="M289.0 78.05 Q291.05 78.05 292.55 79.5 294.0 81.0 294.0 83.05 L294.0 241.55 Q294.0 243.6 292.55 245.1 291.05 246.55 289.0 246.55 L153.7 246.55 Q151.65 246.55 150.15 245.1 148.7 243.6 148.7 241.55 L148.7 212.0 Q148.7 209.95 147.75 207.35 146.8 204.75 145.45 203.2 L143.0 200.3 Q141.65 198.7 140.7 196.15 139.7 193.55 139.7 191.5 L139.7 83.05 Q139.7 81.0 141.15 79.5 142.65 78.05 144.7 78.05 L289.0 78.05 M293.0 83.05 Q293.0 81.4 291.85 80.25 290.65 79.05 289.0 79.05 L144.7 79.05 Q143.05 79.05 141.9 80.25 140.7 81.4 140.7 83.05 L140.7 191.5 Q140.7 193.4 141.6 195.8 142.5 198.25 143.75 199.65 L146.25 202.55 Q147.7 204.25 148.7 207.0 149.7 209.75 149.7 212.0 L149.7 241.55 Q149.7 243.2 150.9 244.4 152.05 245.55 153.7 245.55 L289.0 245.55 Q290.65 245.55 291.85 244.4 293.0 243.2 293.0 241.55 L293.0 83.05" fill="#172f91" fill-rule="evenodd" stroke="none"/>
    <path d="M150.45 211.15 L150.45 246.65 145.75 246.65 141.35 242.25 141.35 199.05 150.45 211.15" fill="#0062ff" fill-opacity="0.29803923" fill-rule="evenodd" stroke="none"/>
    <path d="M150.45 211.15 L141.35 199.05 141.35 242.25 145.75 246.65 150.45 246.65 150.45 211.15 Z" fill="none" stroke="#035eef" stroke-linecap="butt" stroke-linejoin="miter-clip" stroke-miterlimit="4.0" stroke-width="1.0"/>
    <path d="M150.1 82.0 L154.5 82.0 154.5 199.6 150.1 194.2 150.1 82.0" fill="#082caf" fill-opacity="0.29803923" fill-rule="evenodd" stroke="none"/>
    <path d="M150.1 82.0 L150.1 194.2 154.5 199.6 154.5 82.0 150.1 82.0 Z" fill="none" stroke="#035eef" stroke-linecap="butt" stroke-linejoin="miter-clip" stroke-miterlimit="4.0" stroke-width="1.0"/>
    <path d="M434.75 81.5 L434.75 247.95 Q434.75 249.6 433.6 250.8 432.4 251.95 430.75 251.95 L314.55 251.95 Q312.9 251.95 311.75 250.8 310.55 249.6 310.55 247.95 L310.55 81.5 Q310.55 79.85 311.75 78.7 312.9 77.5 314.55 77.5 L430.75 77.5 Q432.4 77.5 433.6 78.7 434.75 79.85 434.75 81.5" fill="url(#gradient2)" fill-rule="evenodd" stroke="none"/>
    <path d="M430.75 76.5 Q432.8 76.5 434.3 77.95 435.75 79.4 435.75 81.5 L435.75 247.95 Q435.75 250.0 434.3 251.5 432.8 252.95 430.75 252.95 L314.55 252.95 Q312.5 252.95 311.0 251.5 309.55 250.0 309.55 247.95 L309.55 81.5 Q309.55 79.4 311.0 77.95 312.5 76.5 314.55 76.5 L430.75 76.5 M433.75 81.5 Q433.75 80.25 432.85 79.4 432.0 78.5 430.75 78.5 L314.55 78.5 Q313.3 78.5 312.45 79.4 311.55 80.25 311.55 81.5 L311.55 247.95 Q311.55 249.2 312.45 250.05 313.3 250.95 314.55 250.95 L430.75 250.95 Q432.0 250.95 432.85 250.05 433.75 249.2 433.75 247.95 L433.75 81.5" fill="#0850b7" fill-rule="evenodd" stroke="none"/>
    <path d="M272.35 59.2 Q273.6 59.2 275.1 59.8 276.6 60.45 277.45 61.3 L289.55 73.4 Q290.4 74.25 290.2 74.9 289.95 75.55 288.7 75.55 L144.8 75.55 Q143.55 75.55 142.7 74.65 141.8 73.8 141.8 72.55 L141.8 62.2 Q141.8 60.95 142.7 60.1 143.55 59.2 144.8 59.2 L272.35 59.2" fill="#0e6dd6" fill-rule="evenodd" stroke="none"/>
    <path d="M272.35 59.2 L144.8 59.2 Q143.55 59.2 142.7 60.1 141.8 60.95 141.8 62.2 L141.8 72.55 Q141.8 73.8 142.7 74.65 143.55 75.55 144.8 75.55 L288.7 75.55 Q289.95 75.55 290.2 74.9 290.4 74.25 289.55 73.4 L277.45 61.3 Q276.6 60.45 275.1 59.8 273.6 59.2 272.35 59.2 Z" fill="none" stroke="#2eb7e3" stroke-linecap="butt" stroke-linejoin="miter-clip" stroke-miterlimit="4.0" stroke-width="1.0"/>
    <path d="M436.2 72.75 Q435.5 73.45 434.5 73.45 L310.15 73.45 Q309.05 73.45 308.45 72.75 L290.1 53.5 Q289.85 53.25 289.85 52.8 289.85 52.4 290.15 52.1 L292.45 49.8 Q293.05 49.1 294.15 49.1 L450.3 49.1 Q451.4 49.1 452.0 49.8 L455.3 53.05 455.55 53.75 455.25 54.45 436.2 72.75" fill="url(#gradient3)" fill-rule="evenodd" stroke="none"/>
    <path d="M432.75 69.3 L311.55 69.3 296.55 55.35 298.6 53.25 445.6 53.25 448.35 56.0 432.75 69.3" fill="#000102" fill-rule="evenodd" stroke="none"/>
  </g>
  <defs>
    <linearGradient gradientTransform="matrix(0.0, -0.1022, -0.1022, 0.0, 524.15, 162.3)" gradientUnits="userSpaceOnUse" id="gradient0" spreadMethod="pad" x1="-819.2" x2="819.2">
      <stop offset="0.0" stop-color="#053370"/>
      <stop offset="0.011764705882352941" stop-color="#05316d"/>
      <stop offset="0.10588235294117647" stop-color="#032556"/>
      <stop offset="0.21568627450980393" stop-color="#021b45"/>
      <stop offset="0.35294117647058826" stop-color="#011439"/>
      <stop offset="0.5372549019607843" stop-color="#001032"/>
      <stop offset="1.0" stop-color="#000f30"/>
    </linearGradient>
    <linearGradient gradientTransform="matrix(0.0, -0.1022, -0.1022, 0.0, 216.85, 162.3)" gradientUnits="userSpaceOnUse" id="gradient1" spreadMethod="pad" x1="-819.2" x2="819.2">
      <stop offset="0.0" stop-color="#053370"/>
      <stop offset="0.011764705882352941" stop-color="#05316d"/>
      <stop offset="0.10588235294117647" stop-color="#032556"/>
      <stop offset="0.21568627450980393" stop-color="#021b45"/>
      <stop offset="0.35294117647058826" stop-color="#011439"/>
      <stop offset="0.5372549019607843" stop-color="#001032"/>
      <stop offset="1.0" stop-color="#000f30"/>
    </linearGradient>
    <linearGradient gradientTransform="matrix(0.0, -0.1065, -0.1065, 0.0, 372.65, 164.7)" gradientUnits="userSpaceOnUse" id="gradient2" spreadMethod="pad" x1="-819.2" x2="819.2">
      <stop offset="0.0" stop-color="#003b80"/>
      <stop offset="0.43137254901960786" stop-color="#00245a"/>
      <stop offset="0.7843137254901961" stop-color="#001541"/>
      <stop offset="1.0" stop-color="#000f38"/>
    </linearGradient>
    <linearGradient gradientTransform="matrix(0.0, -0.0149, -0.0149, 0.0, 372.7, 61.25)" gradientUnits="userSpaceOnUse" id="gradient3" spreadMethod="pad" x1="-819.2" x2="819.2">
      <stop offset="0.0" stop-color="#5f5f60"/>
      <stop offset="1.0" stop-color="#737375"/>
    </linearGradient>
  </defs>
</svg>
