<?xml version="1.0" encoding="UTF-8" standalone="no"?>
<svg xmlns:ffdec="https://www.free-decompiler.com/flash" xmlns:xlink="http://www.w3.org/1999/xlink" ffdec:objectType="shape" height="69.25px" width="69.25px" xmlns="http://www.w3.org/2000/svg">
  <g transform="matrix(1.0, 0.0, 0.0, 1.0, 0.5, 0.5)">
    <path d="M68.25 9.05 L68.25 20.15 64.8 23.6 64.8 40.65 68.25 44.1 68.25 68.25 8.75 68.25 0.0 59.5 0.0 10.45 10.45 0.0 59.2 0.0 68.25 9.05" fill="#000000" fill-opacity="0.4" fill-rule="evenodd" stroke="none"/>
    <path d="M68.25 9.05 L59.2 0.0 10.45 0.0 0.0 10.45 0.0 59.5 8.75 68.25 68.25 68.25 68.25 44.1 64.8 40.65 64.8 23.6 68.25 20.15 68.25 9.05 Z" fill="none" stroke="#383838" stroke-linecap="butt" stroke-linejoin="miter-clip" stroke-miterlimit="4.0" stroke-width="1.0"/>
    <path d="M34.3 61.85 L42.4 53.65 67.25 53.65 67.25 67.25 34.3 67.25 34.3 61.85" fill="url(#gradient0)" fill-rule="evenodd" stroke="none"/>
    <path d="M34.3 61.85 L34.3 67.25 67.25 67.25 67.25 53.65 42.4 53.65 34.3 61.85 Z" fill="none" stroke="#999999" stroke-linecap="butt" stroke-linejoin="miter-clip" stroke-miterlimit="4.0" stroke-width="1.0"/>
  </g>
  <defs>
    <linearGradient gradientTransform="matrix(0.0, 0.0085, 0.0085, 0.0, 50.8, 60.15)" gradientUnits="userSpaceOnUse" id="gradient0" spreadMethod="pad" x1="-819.2" x2="819.2">
      <stop offset="0.0" stop-color="#959595"/>
      <stop offset="0.1803921568627451" stop-color="#4d4d4d"/>
      <stop offset="0.592156862745098" stop-color="#4d4d4d"/>
      <stop offset="0.7333333333333333" stop-color="#6a6a6a"/>
      <stop offset="0.8666666666666667" stop-color="#5e5e5e"/>
      <stop offset="1.0" stop-color="#6a6a6a"/>
    </linearGradient>
  </defs>
</svg>
