<?xml version="1.0" encoding="UTF-8" standalone="no"?>
<svg xmlns:ffdec="https://www.free-decompiler.com/flash" xmlns:xlink="http://www.w3.org/1999/xlink" ffdec:objectType="shape" height="31.05px" width="60.9px" xmlns="http://www.w3.org/2000/svg">
  <g transform="matrix(1.0, 0.0, 0.0, 1.0, -10.65, -0.05)">
    <path d="M59.45 28.45 Q58.8 29.55 57.5 30.3 56.2 31.1 54.95 31.1 L26.3 31.1 Q25.05 31.1 23.75 30.3 22.45 29.5 21.9 28.4 L11.05 7.4 Q10.5 6.3 10.7 4.9 10.9 3.5 11.8 2.65 L12.25 2.15 14.65 0.65 Q16.15 0.05 17.4 0.05 L63.65 0.05 Q64.9 0.05 66.45 0.6 68.05 1.1 69.0 1.9 L70.3 2.9 Q71.25 3.65 71.5 5.0 71.75 6.3 71.15 7.35 L59.45 28.45" fill="url(#gradient0)" fill-rule="evenodd" stroke="none"/>
    <path d="M48.9 3.4 L53.15 2.8 Q54.35 2.2 57.45 2.2 L58.6 2.2 61.35 2.8 Q62.85 3.45 63.7 4.3 L64.25 4.8 Q65.1 5.65 65.3 7.05 65.5 8.45 64.9 9.5 L56.1 25.35 Q55.5 26.45 54.15 27.2 52.85 28.0 51.6 28.0 L51.15 28.0 47.25 27.45 Q46.25 26.9 43.3 26.9 L38.4 26.9 Q35.35 26.9 34.6 27.45 33.8 28.0 30.75 28.0 L29.85 28.0 Q28.6 28.0 27.35 27.2 26.05 26.45 25.45 25.35 L17.3 9.55 Q16.75 8.45 16.9 7.0 17.0 5.5 17.8 4.55 L17.85 4.5 Q18.6 3.55 20.05 2.9 21.45 2.2 22.7 2.2 L25.2 2.2 Q28.25 2.2 29.6 2.8 31.1 3.4 34.0 3.4 L48.9 3.4" fill="#2b2b2a" fill-rule="evenodd" stroke="none"/>
    <path d="M55.5 4.8 L57.35 5.15 Q58.4 5.5 59.05 6.0 L59.85 6.65 Q60.5 7.15 60.65 8.0 60.8 8.9 60.4 9.6 L52.8 23.35 51.5 24.55 Q50.65 25.05 49.8 25.05 L31.15 25.05 Q30.35 25.05 29.5 24.55 28.65 24.0 28.25 23.3 L21.15 9.65 Q20.8 8.9 20.95 8.0 21.1 7.05 21.65 6.45 L21.9 6.2 Q22.5 5.6 23.5 5.2 24.5 4.8 25.35 4.8 L55.5 4.8" fill="#03287a" fill-rule="evenodd" stroke="none"/>
    <path d="M55.5 4.8 L25.35 4.8 Q24.5 4.8 23.5 5.2 22.5 5.6 21.9 6.2 L21.65 6.45 Q21.1 7.05 20.95 8.0 20.8 8.9 21.15 9.65 L28.25 23.3 Q28.65 24.0 29.5 24.55 30.35 25.05 31.15 25.05 L49.8 25.05 Q50.65 25.05 51.5 24.55 L52.8 23.35 60.4 9.6 Q60.8 8.9 60.65 8.0 60.5 7.15 59.85 6.65 L59.05 6.0 Q58.4 5.5 57.35 5.15 L55.5 4.8 Z" fill="none" stroke="#069aff" stroke-linecap="butt" stroke-linejoin="miter-clip" stroke-miterlimit="4.0" stroke-width="1.0"/>
    <path d="M39.05 11.7 L40.9 11.1 41.0 11.55 40.05 12.2 39.05 11.7" fill="#71ccff" fill-rule="evenodd" stroke="none"/>
    <path d="M43.5 14.6 L42.6 13.85 42.85 12.7 43.3 12.65 43.5 14.6" fill="#71ccff" fill-rule="evenodd" stroke="none"/>
    <path d="M38.2 23.3 L37.5 21.85 38.35 20.55 38.2 23.3" fill="#71ccff" fill-rule="evenodd" stroke="none"/>
    <path d="M33.25 20.15 L35.75 18.85 34.9 20.15 33.25 20.15" fill="#71ccff" fill-rule="evenodd" stroke="none"/>
    <path d="M45.35 8.3 Q45.35 8.85 44.95 9.4 L44.95 10.2 43.55 12.35 42.7 12.45 42.5 12.8 42.3 13.9 39.4 18.45 39.3 19.65 38.55 20.8 38.5 20.0 37.25 21.85 34.95 20.35 36.15 18.5 35.45 18.7 36.15 17.6 37.25 17.1 40.2 12.55 41.1 11.9 41.35 11.55 41.1 10.8 42.45 8.65 43.2 8.25 Q43.55 7.7 44.05 7.5 44.6 7.3 44.95 7.5 45.35 7.75 45.35 8.3" fill="url(#gradient1)" fill-rule="evenodd" stroke="none"/>
    <path d="M35.45 20.5 L37.5 17.35 39.05 18.35 37.05 21.5 35.45 20.5" fill="#69dcff" fill-rule="evenodd" stroke="none"/>
    <path d="M35.45 21.9 L36.9 19.6 37.2 19.8 35.7 22.1 35.45 21.9" fill="#9cf8ff" fill-rule="evenodd" stroke="none"/>
    <path d="M36.85 19.75 L38.1 17.75 38.4 17.9 37.1 19.9 36.85 19.75" fill="#71ccff" fill-rule="evenodd" stroke="none"/>
    <path d="M40.95 13.35 L41.85 11.95 42.1 12.15 41.2 13.5 40.95 13.35" fill="#71ccff" fill-rule="evenodd" stroke="none"/>
    <path d="M41.75 11.2 L43.1 9.15 44.15 9.85 42.85 11.9 41.75 11.2" fill="#71ccff" fill-rule="evenodd" stroke="none"/>
    <path d="M37.9 17.2 L40.35 13.4 41.45 14.1 39.0 17.9 37.9 17.2" fill="#71ccff" fill-rule="evenodd" stroke="none"/>
    <path d="M44.3 7.65 L44.65 7.55 Q44.9 7.7 44.75 7.95 L44.4 8.0 44.25 7.85 44.3 7.65" fill="#71ccff" fill-rule="evenodd" stroke="none"/>
    <path d="M45.05 15.2 L46.35 14.8 46.45 15.1 45.75 15.55 45.05 15.2" fill="#71ccff" fill-rule="evenodd" stroke="none"/>
    <path d="M48.25 17.25 L47.6 16.75 47.75 15.9 48.1 15.9 48.25 17.25" fill="#71ccff" fill-rule="evenodd" stroke="none"/>
    <path d="M44.45 23.5 L43.95 22.45 44.55 21.5 44.45 23.5" fill="#71ccff" fill-rule="evenodd" stroke="none"/>
    <path d="M40.9 21.2 L42.7 20.3 42.1 21.25 40.9 21.2" fill="#71ccff" fill-rule="evenodd" stroke="none"/>
    <path d="M48.0 12.75 Q48.65 11.85 49.25 12.2 49.85 12.6 49.3 13.6 L49.25 14.15 48.25 15.7 47.65 15.75 47.5 16.0 47.4 16.8 45.3 20.05 45.25 20.9 44.7 21.7 44.65 21.15 43.8 22.45 42.15 21.4 43.0 20.05 42.5 20.2 43.0 19.45 43.8 19.05 45.85 15.8 46.55 15.35 46.7 15.1 46.5 14.55 47.5 13.0 48.0 12.75" fill="#0f67f4" fill-rule="evenodd" stroke="none"/>
    <path d="M42.5 21.45 L43.95 19.25 45.05 19.95 43.6 22.2 42.5 21.45" fill="#3194ff" fill-rule="evenodd" stroke="none"/>
    <path d="M42.5 22.5 L43.55 20.85 43.75 21.0 42.65 22.6 42.5 22.5" fill="#71ccff" fill-rule="evenodd" stroke="none"/>
    <path d="M43.5 20.95 L44.4 19.5 44.6 19.65 43.65 21.05 43.5 20.95" fill="#71ccff" fill-rule="evenodd" stroke="none"/>
    <path d="M46.4 16.4 L47.05 15.4 47.25 15.5 46.6 16.5 46.4 16.4" fill="#71ccff" fill-rule="evenodd" stroke="none"/>
    <path d="M47.0 14.85 L47.95 13.4 48.7 13.9 47.75 15.35 47.0 14.85" fill="#71ccff" fill-rule="evenodd" stroke="none"/>
    <path d="M44.25 19.15 L46.0 16.4 46.75 16.9 45.0 19.65 44.25 19.15" fill="#71ccff" fill-rule="evenodd" stroke="none"/>
    <path d="M48.8 12.3 L49.05 12.25 Q49.3 12.35 49.1 12.55 L48.85 12.6 Q48.7 12.5 48.8 12.3" fill="#71ccff" fill-rule="evenodd" stroke="none"/>
  </g>
  <defs>
    <linearGradient gradientTransform="matrix(0.0, -0.019, 0.019, 0.0, 41.1, 15.55)" gradientUnits="userSpaceOnUse" id="gradient0" spreadMethod="pad" x1="-819.2" x2="819.2">
      <stop offset="0.0" stop-color="#373737"/>
      <stop offset="0.6549019607843137" stop-color="#a4a4a4"/>
      <stop offset="0.803921568627451" stop-color="#a4a4a4"/>
      <stop offset="1.0" stop-color="#6b6b6b"/>
    </linearGradient>
    <radialGradient cx="0" cy="0" gradientTransform="matrix(0.0077, 0.0, 0.0, -0.0077, 40.15, 14.65)" gradientUnits="userSpaceOnUse" id="gradient1" r="819.2" spreadMethod="pad">
      <stop offset="0.0" stop-color="#2b9eff"/>
      <stop offset="0.3843137254901961" stop-color="#28a0ff"/>
      <stop offset="0.6313725490196078" stop-color="#20a5ff"/>
      <stop offset="0.8431372549019608" stop-color="#11afff"/>
      <stop offset="1.0" stop-color="#00baff"/>
    </radialGradient>
  </defs>
</svg>
