<?xml version="1.0" encoding="UTF-8" standalone="no"?>
<svg xmlns:ffdec="https://www.free-decompiler.com/flash" xmlns:xlink="http://www.w3.org/1999/xlink" ffdec:objectType="shape" height="31.05px" width="60.9px" xmlns="http://www.w3.org/2000/svg">
  <g transform="matrix(1.0, 0.0, 0.0, 1.0, -10.65, 0.0)">
    <path d="M66.45 0.55 Q68.05 1.05 69.0 1.85 L70.3 2.85 Q71.25 3.6 71.5 4.95 71.75 6.25 71.15 7.3 L59.45 28.4 Q58.8 29.5 57.5 30.25 56.2 31.05 54.95 31.05 L26.3 31.05 Q25.05 31.05 23.75 30.25 22.45 29.45 21.9 28.35 L11.05 7.35 Q10.5 6.25 10.7 4.85 10.9 3.45 11.8 2.6 L12.25 2.1 14.65 0.6 Q16.15 0.0 17.4 0.0 L63.65 0.0 Q64.9 0.0 66.45 0.55" fill="url(#gradient0)" fill-rule="evenodd" stroke="none"/>
    <path d="M48.9 3.35 L53.15 2.75 Q54.35 2.15 57.45 2.15 L58.6 2.15 61.35 2.75 Q62.85 3.4 63.7 4.25 L64.25 4.75 Q65.1 5.6 65.3 7.0 65.5 8.4 64.9 9.45 L56.1 25.3 Q55.5 26.4 54.15 27.15 52.85 27.95 51.6 27.95 L51.15 27.95 47.25 27.4 Q46.25 26.85 43.3 26.85 L38.4 26.85 Q35.35 26.85 34.6 27.4 33.8 27.95 30.75 27.95 L29.85 27.95 Q28.6 27.95 27.35 27.15 26.05 26.4 25.45 25.3 L17.3 9.5 Q16.75 8.4 16.9 6.95 17.0 5.45 17.8 4.5 L17.85 4.45 Q18.6 3.5 20.05 2.85 21.45 2.15 22.7 2.15 L25.2 2.15 Q28.25 2.15 29.6 2.75 31.1 3.35 34.0 3.35 L48.9 3.35" fill="#2b2b2a" fill-rule="evenodd" stroke="none"/>
    <path d="M51.5 24.5 Q50.65 25.0 49.8 25.0 L31.15 25.0 Q30.35 25.0 29.5 24.5 28.65 23.95 28.25 23.25 L21.15 9.6 Q20.8 8.85 20.95 7.95 21.1 7.0 21.65 6.4 L21.9 6.15 Q22.5 5.55 23.5 5.15 24.5 4.75 25.35 4.75 L55.5 4.75 57.35 5.1 Q58.4 5.45 59.05 5.95 L59.85 6.6 Q60.5 7.1 60.65 7.95 60.8 8.85 60.4 9.55 L52.8 23.3 51.5 24.5" fill="url(#gradient1)" fill-rule="evenodd" stroke="none"/>
    <path d="M51.5 24.5 L52.8 23.3 60.4 9.55 Q60.8 8.85 60.65 7.95 60.5 7.1 59.85 6.6 L59.05 5.95 Q58.4 5.45 57.35 5.1 L55.5 4.75 25.35 4.75 Q24.5 4.75 23.5 5.15 22.5 5.55 21.9 6.15 L21.65 6.4 Q21.1 7.0 20.95 7.95 20.8 8.85 21.15 9.6 L28.25 23.25 Q28.65 23.95 29.5 24.5 30.35 25.0 31.15 25.0 L49.8 25.0 Q50.65 25.0 51.5 24.5 Z" fill="none" stroke="#f19e24" stroke-linecap="butt" stroke-linejoin="miter-clip" stroke-miterlimit="4.0" stroke-width="1.0"/>
    <path d="M51.5 24.5 L52.8 23.3 60.4 9.55 Q60.8 8.85 60.65 7.95 60.5 7.1 59.85 6.6 L59.05 5.95 Q58.4 5.45 57.35 5.1 L55.5 4.75 25.35 4.75 Q24.5 4.75 23.5 5.15 22.5 5.55 21.9 6.15 L21.65 6.4 Q21.1 7.0 20.95 7.95 20.8 8.85 21.15 9.6 L28.25 23.25 Q28.65 23.95 29.5 24.5 30.35 25.0 31.15 25.0 L49.8 25.0 Q50.65 25.0 51.5 24.5 Z" fill="none" stroke="#f19e24" stroke-linecap="butt" stroke-linejoin="miter-clip" stroke-miterlimit="4.0" stroke-width="1.0"/>
    <path d="M39.05 11.7 L40.9 11.1 41.0 11.55 40.05 12.2 39.05 11.7" fill="#feae38" fill-rule="evenodd" stroke="none"/>
    <path d="M43.5 14.6 L42.6 13.85 42.85 12.7 43.3 12.65 43.5 14.6" fill="#feae38" fill-rule="evenodd" stroke="none"/>
    <path d="M38.2 23.3 L37.5 21.85 38.35 20.55 38.2 23.3" fill="#feae38" fill-rule="evenodd" stroke="none"/>
    <path d="M33.25 20.15 L35.75 18.85 34.9 20.15 33.25 20.15" fill="#feae38" fill-rule="evenodd" stroke="none"/>
    <path d="M45.35 8.3 Q45.35 8.85 44.95 9.4 L44.95 10.2 43.55 12.35 42.7 12.45 42.5 12.8 42.3 13.9 39.4 18.45 39.3 19.65 38.55 20.8 38.5 20.0 37.25 21.85 34.95 20.35 36.15 18.5 35.45 18.7 36.15 17.6 37.25 17.1 40.2 12.55 41.1 11.9 41.35 11.55 41.1 10.8 42.45 8.65 43.2 8.25 Q43.55 7.7 44.05 7.5 44.6 7.3 44.95 7.5 45.35 7.75 45.35 8.3" fill="#e87f40" fill-rule="evenodd" stroke="none"/>
    <path d="M45.35 8.3 Q45.35 8.85 44.95 9.4 L44.95 10.2 43.55 12.35 42.7 12.45 42.5 12.8 42.3 13.9 39.4 18.45 39.3 19.65 38.55 20.8 38.5 20.0 37.25 21.85 34.95 20.35 36.15 18.5 35.45 18.7 36.15 17.6 37.25 17.1 40.2 12.55 41.1 11.9 41.35 11.55 41.1 10.8 42.45 8.65 43.2 8.25 Q43.55 7.7 44.05 7.5 44.6 7.3 44.95 7.5 45.35 7.75 45.35 8.3 Z" ffdec:has-small-stroke="true" ffdec:original-stroke-width="0.5" fill="none" stroke="#f19e24" stroke-linecap="butt" stroke-linejoin="miter-clip" stroke-miterlimit="4.0" stroke-opacity="0.0" stroke-width="1.0"/>
    <path d="M35.45 20.5 L37.5 17.35 39.05 18.35 37.05 21.5 35.45 20.5" fill="#feae38" fill-rule="evenodd" stroke="none"/>
    <path d="M35.45 21.9 L36.9 19.6 37.2 19.8 35.7 22.1 35.45 21.9" fill="#ffc94d" fill-rule="evenodd" stroke="none"/>
    <path d="M36.85 19.75 L38.1 17.75 38.4 17.9 37.1 19.9 36.85 19.75" fill="#d26a02" fill-rule="evenodd" stroke="none"/>
    <path d="M40.95 13.35 L41.85 11.95 42.1 12.15 41.2 13.5 40.95 13.35" fill="#feae38" fill-rule="evenodd" stroke="none"/>
    <path d="M41.75 11.2 L43.1 9.15 44.15 9.85 42.85 11.9 41.75 11.2" fill="#feae38" fill-rule="evenodd" stroke="none"/>
    <path d="M37.9 17.2 L40.35 13.4 41.45 14.1 39.0 17.9 37.9 17.2" fill="#feae38" fill-rule="evenodd" stroke="none"/>
    <path d="M44.3 7.65 L44.65 7.55 Q44.9 7.7 44.75 7.95 L44.4 8.0 44.25 7.85 44.3 7.65" fill="#feae38" fill-rule="evenodd" stroke="none"/>
    <path d="M45.05 15.2 L46.35 14.8 46.45 15.1 45.75 15.55 45.05 15.2" fill="#e87f40" fill-rule="evenodd" stroke="none"/>
    <path d="M48.25 17.25 L47.6 16.75 47.75 15.9 48.1 15.9 48.25 17.25" fill="#e87f40" fill-rule="evenodd" stroke="none"/>
    <path d="M44.45 23.5 L43.95 22.45 44.55 21.5 44.45 23.5" fill="#e87f40" fill-rule="evenodd" stroke="none"/>
    <path d="M40.9 21.2 L42.7 20.3 42.1 21.25 40.9 21.2" fill="#e87f40" fill-rule="evenodd" stroke="none"/>
    <path d="M48.0 12.75 Q48.65 11.85 49.25 12.2 49.85 12.6 49.3 13.6 L49.25 14.15 48.25 15.7 47.65 15.75 47.5 16.0 47.4 16.8 45.3 20.05 45.25 20.9 44.7 21.7 44.65 21.15 43.8 22.45 42.15 21.4 43.0 20.05 42.5 20.2 43.0 19.45 43.8 19.05 45.85 15.8 46.55 15.35 46.7 15.1 46.5 14.55 47.5 13.0 48.0 12.75" fill="#bd540f" fill-rule="evenodd" stroke="none"/>
    <path d="M42.5 21.45 L43.95 19.25 45.05 19.95 43.6 22.2 42.5 21.45" fill="#c46200" fill-rule="evenodd" stroke="none"/>
    <path d="M42.5 22.5 L43.55 20.85 43.75 21.0 42.65 22.6 42.5 22.5" fill="#fe802b" fill-rule="evenodd" stroke="none"/>
    <path d="M43.5 20.95 L44.4 19.5 44.6 19.65 43.65 21.05 43.5 20.95" fill="#fd6602" fill-rule="evenodd" stroke="none"/>
    <path d="M46.4 16.4 L47.05 15.4 47.25 15.5 46.6 16.5 46.4 16.4" fill="#e87f40" fill-rule="evenodd" stroke="none"/>
    <path d="M47.0 14.85 L47.95 13.4 48.7 13.9 47.75 15.35 47.0 14.85" fill="#e87f40" fill-rule="evenodd" stroke="none"/>
    <path d="M44.25 19.15 L46.0 16.4 46.75 16.9 45.0 19.65 44.25 19.15" fill="#e87f40" fill-rule="evenodd" stroke="none"/>
    <path d="M48.8 12.3 L49.05 12.25 Q49.3 12.35 49.1 12.55 L48.85 12.6 Q48.7 12.5 48.8 12.3" fill="#e87f40" fill-rule="evenodd" stroke="none"/>
  </g>
  <defs>
    <linearGradient gradientTransform="matrix(0.0, -0.019, 0.019, 0.0, 41.1, 15.5)" gradientUnits="userSpaceOnUse" id="gradient0" spreadMethod="pad" x1="-819.2" x2="819.2">
      <stop offset="0.0" stop-color="#373737"/>
      <stop offset="0.6549019607843137" stop-color="#a4a4a4"/>
      <stop offset="0.803921568627451" stop-color="#a4a4a4"/>
      <stop offset="1.0" stop-color="#6b6b6b"/>
    </linearGradient>
    <linearGradient gradientTransform="matrix(0.0, 0.0118, 0.0085, 0.0, 76.4, 15.45)" gradientUnits="userSpaceOnUse" id="gradient1" spreadMethod="pad" x1="-819.2" x2="819.2">
      <stop offset="0.0" stop-color="#eb8242"/>
      <stop offset="0.00392156862745098" stop-color="#e87f40"/>
      <stop offset="0.043137254901960784" stop-color="#cb6129"/>
      <stop offset="0.08627450980392157" stop-color="#b34917"/>
      <stop offset="0.13333333333333333" stop-color="#a3380a"/>
      <stop offset="0.1803921568627451" stop-color="#992e02"/>
      <stop offset="0.24313725490196078" stop-color="#962b00"/>
      <stop offset="0.4392156862745098" stop-color="#982e00"/>
      <stop offset="0.592156862745098" stop-color="#9f3800"/>
      <stop offset="0.7333333333333333" stop-color="#ab4901"/>
      <stop offset="0.8666666666666667" stop-color="#bb6002"/>
      <stop offset="0.996078431372549" stop-color="#d07f03"/>
      <stop offset="1.0" stop-color="#d18003"/>
    </linearGradient>
  </defs>
</svg>
