<?xml version="1.0" encoding="UTF-8" standalone="no"?>
<svg xmlns:ffdec="https://www.free-decompiler.com/flash" xmlns:xlink="http://www.w3.org/1999/xlink" ffdec:objectType="shape" height="49.1px" width="65.45px" xmlns="http://www.w3.org/2000/svg">
  <g transform="matrix(1.0, 0.0, 0.0, 1.0, -0.05, -2.0)">
    <path d="M63.5 18.05 L63.5 35.05 Q63.5 36.2 62.65 37.0 61.9 37.85 60.7 37.85 L54.75 37.85 Q53.55 37.85 52.8 37.0 51.95 36.2 51.95 35.05 L51.95 18.05 Q51.95 16.9 52.8 16.1 53.55 15.25 54.75 15.25 L60.7 15.25 Q61.9 15.25 62.65 16.1 63.5 16.9 63.5 18.05" fill="#0759aa" fill-rule="evenodd" stroke="none"/>
    <path d="M65.5 26.95 L64.3 30.0 60.7 30.0 60.7 23.6 64.3 23.6 65.5 26.95" fill="#2f8bf7" fill-rule="evenodd" stroke="none"/>
    <path d="M13.7 18.05 L13.7 35.05 Q13.7 36.2 12.85 37.0 12.1 37.85 10.9 37.85 L4.8 37.85 Q3.65 37.85 2.85 37.0 2.0 36.2 2.0 35.05 L2.0 18.05 Q2.0 16.9 2.85 16.1 3.65 15.25 4.8 15.25 L10.9 15.25 Q12.1 15.25 12.85 16.1 13.7 16.9 13.7 18.05" fill="#0759aa" fill-rule="evenodd" stroke="none"/>
    <path d="M0.05 26.95 L1.25 23.6 4.8 23.6 4.8 30.0 1.25 30.0 0.05 26.95" fill="#2f8bf7" fill-rule="evenodd" stroke="none"/>
    <path d="M51.95 20.6 L55.05 16.8 55.05 36.3 51.95 32.45 51.95 20.6" fill="#1c74f4" fill-rule="evenodd" stroke="none"/>
    <path d="M13.7 20.6 L13.7 32.45 10.55 36.3 10.55 16.8 13.7 20.6" fill="#1c74f4" fill-rule="evenodd" stroke="none"/>
    <path d="M10.3 29.1 L9.55 29.1 8.35 27.0 9.55 24.55 10.3 24.55 10.3 29.1" fill="#8d9eb2" fill-rule="evenodd" stroke="none"/>
    <path d="M13.55 2.95 L52.45 2.95 Q54.0 2.95 55.1 4.05 56.2 5.1 56.2 6.65 L56.2 46.45 Q56.2 47.95 55.1 49.1 54.0 50.15 52.45 50.15 L13.55 50.15 Q12.0 50.15 10.9 49.1 9.8 47.95 9.8 46.45 L9.8 6.65 Q9.8 5.1 10.9 4.05 12.0 2.95 13.55 2.95" fill="#053170" fill-rule="evenodd" stroke="none"/>
    <path d="M13.55 3.85 Q12.35 3.85 11.55 4.7 10.75 5.5 10.75 6.65 L10.75 46.45 Q10.75 47.6 11.55 48.4 12.35 49.25 13.55 49.25 L52.45 49.25 Q53.6 49.25 54.4 48.4 55.25 47.6 55.25 46.45 L55.25 6.65 Q55.25 5.5 54.4 4.7 53.6 3.85 52.45 3.85 L13.55 3.85 M10.2 3.35 Q11.6 2.0 13.55 2.0 L52.45 2.0 Q54.35 2.0 55.75 3.35 57.1 4.75 57.1 6.65 L57.1 46.45 Q57.1 48.35 55.75 49.75 54.35 51.1 52.45 51.1 L13.55 51.1 Q11.6 51.1 10.2 49.75 8.85 48.35 8.85 46.45 L8.85 6.65 Q8.85 4.75 10.2 3.35" fill="#0a8ce5" fill-rule="evenodd" stroke="none"/>
    <path d="M10.65 16.8 L10.65 36.3 7.5 32.45 7.5 20.6 10.65 16.8" fill="#45afff" fill-rule="evenodd" stroke="none"/>
    <path d="M58.4 20.6 L58.4 32.45 55.25 36.3 55.25 16.8 58.4 20.6" fill="#45afff" fill-rule="evenodd" stroke="none"/>
  </g>
</svg>
