<?xml version="1.0" encoding="UTF-8" standalone="no"?>
<svg xmlns:ffdec="https://www.free-decompiler.com/flash" xmlns:xlink="http://www.w3.org/1999/xlink" ffdec:objectType="shape" height="49.05px" width="65.5px" xmlns="http://www.w3.org/2000/svg">
  <g transform="matrix(1.0, 0.0, 0.0, 1.0, 0.0, -2.05)">
    <path d="M63.5 18.1 L63.5 35.05 Q63.5 36.25 62.65 37.05 61.85 37.85 60.7 37.85 L54.7 37.85 Q53.55 37.85 52.75 37.05 51.9 36.25 51.9 35.05 L51.9 18.1 Q51.9 16.9 52.75 16.1 53.55 15.3 54.7 15.3 L60.7 15.3 Q61.85 15.3 62.65 16.1 63.5 16.9 63.5 18.1" fill="#116cef" fill-rule="evenodd" stroke="none"/>
    <path d="M60.7 23.65 L64.25 23.65 65.5 27.0 64.25 30.05 60.7 30.05 60.7 23.65" fill="#69c2ff" fill-rule="evenodd" stroke="none"/>
    <path d="M13.7 18.1 L13.7 35.05 Q13.7 36.25 12.85 37.05 12.05 37.85 10.9 37.85 L4.75 37.85 Q3.6 37.85 2.8 37.05 1.95 36.25 1.95 35.05 L1.95 18.1 Q1.95 16.9 2.8 16.1 3.6 15.3 4.75 15.3 L10.9 15.3 Q12.05 15.3 12.85 16.1 13.7 16.9 13.7 18.1" fill="#116cef" fill-rule="evenodd" stroke="none"/>
    <path d="M4.75 23.65 L4.75 30.05 1.2 30.05 0.0 27.0 1.2 23.65 4.75 23.65" fill="#69c2ff" fill-rule="evenodd" stroke="none"/>
    <path d="M51.9 20.65 L55.05 16.8 55.05 36.3 51.9 32.5 51.9 20.65" fill="#1c74f4" fill-rule="evenodd" stroke="none"/>
    <path d="M13.7 32.5 L10.5 36.3 10.5 16.8 13.7 20.65 13.7 32.5" fill="#1c74f4" fill-rule="evenodd" stroke="none"/>
    <path d="M10.3 24.55 L10.3 29.15 9.55 29.15 8.3 27.05 9.55 24.55 10.3 24.55" fill="#8d9eb2" fill-rule="evenodd" stroke="none"/>
    <path d="M56.15 6.7 L56.15 46.4 Q56.15 48.0 55.1 49.1 53.95 50.15 52.4 50.15 L13.5 50.15 Q11.95 50.15 10.9 49.1 9.75 48.0 9.75 46.4 L9.75 6.7 Q9.75 5.15 10.9 4.1 11.95 2.95 13.5 2.95 L52.4 2.95 Q53.95 2.95 55.1 4.1 56.15 5.15 56.15 6.7" fill="#094fb5" fill-rule="evenodd" stroke="none"/>
    <path d="M55.2 6.7 Q55.2 5.55 54.4 4.75 53.6 3.9 52.4 3.9 L13.5 3.9 Q12.35 3.9 11.55 4.75 10.7 5.55 10.7 6.7 L10.7 46.4 Q10.7 47.6 11.55 48.4 12.35 49.2 13.5 49.2 L52.4 49.2 Q53.6 49.2 54.4 48.4 55.2 47.6 55.2 46.4 L55.2 6.7 M52.4 2.05 Q54.35 2.05 55.75 3.4 57.1 4.8 57.1 6.7 L57.1 46.4 Q57.1 48.4 55.75 49.75 54.35 51.1 52.4 51.1 L13.5 51.1 Q11.6 51.1 10.2 49.75 8.85 48.4 8.85 46.4 L8.85 6.7 Q8.85 4.8 10.2 3.4 11.6 2.05 13.5 2.05 L52.4 2.05" fill="#3ef1ff" fill-rule="evenodd" stroke="none"/>
    <path d="M7.45 20.65 L10.6 16.8 10.6 36.35 7.45 32.5 7.45 20.65" fill="#7befff" fill-rule="evenodd" stroke="none"/>
    <path d="M58.4 20.65 L58.4 32.5 55.2 36.35 55.2 16.8 58.4 20.65" fill="#7befff" fill-rule="evenodd" stroke="none"/>
  </g>
</svg>
