<?xml version="1.0" encoding="UTF-8" standalone="no"?>
<svg xmlns:ffdec="https://www.free-decompiler.com/flash" xmlns:xlink="http://www.w3.org/1999/xlink" ffdec:objectType="shape" height="45.25px" width="45.15px" xmlns="http://www.w3.org/2000/svg">
  <g transform="matrix(1.0, 0.0, 0.0, 1.0, 0.0, 0.0)">
    <path d="M39.45 33.95 L41.35 35.05 Q36.4 42.55 27.6 44.6 18.8 46.65 11.0 42.05 6.5 39.35 3.75 35.05 L5.65 34.0 Q8.15 37.85 12.1 40.15 19.1 44.35 27.05 42.5 34.95 40.7 39.45 33.95" fill="url(#gradient0)" fill-rule="evenodd" stroke="none"/>
    <path d="M21.9 2.15 Q16.75 2.35 12.3 4.9 7.7 7.55 5.0 12.15 2.25 16.7 2.15 22.05 2.0 27.15 4.35 31.75 L2.45 32.85 Q-0.15 27.75 0.0 22.0 0.1 16.15 3.1 11.0 6.1 5.9 11.25 3.0 16.2 0.15 21.95 0.0 L21.9 2.15" fill="url(#gradient1)" fill-rule="evenodd" stroke="none"/>
    <path d="M42.65 32.8 L40.75 31.7 Q44.35 24.55 42.1 16.85 39.85 9.1 32.95 5.0 29.05 2.65 24.5 2.25 L24.5 0.05 Q29.75 0.55 34.05 3.1 41.75 7.7 44.2 16.3 46.7 24.9 42.65 32.8" fill="url(#gradient2)" fill-rule="evenodd" stroke="none"/>
  </g>
  <defs>
    <linearGradient gradientTransform="matrix(0.0229, 0.0, 0.0, -0.0229, 22.55, 39.55)" gradientUnits="userSpaceOnUse" id="gradient0" spreadMethod="pad" x1="-819.2" x2="819.2">
      <stop offset="0.0" stop-color="#dec700"/>
      <stop offset="1.0" stop-color="#dec700" stop-opacity="0.1764706"/>
    </linearGradient>
    <linearGradient gradientTransform="matrix(0.0134, 0.0, 0.0, -0.0134, 10.95, 16.4)" gradientUnits="userSpaceOnUse" id="gradient1" spreadMethod="pad" x1="-819.2" x2="819.2">
      <stop offset="0.0" stop-color="#dec700" stop-opacity="0.1764706"/>
      <stop offset="1.0" stop-color="#dec700"/>
    </linearGradient>
    <linearGradient gradientTransform="matrix(0.0126, 0.0, 0.0, -0.0126, 34.8, 16.45)" gradientUnits="userSpaceOnUse" id="gradient2" spreadMethod="pad" x1="-819.2" x2="819.2">
      <stop offset="0.0" stop-color="#dec700" stop-opacity="0.1764706"/>
      <stop offset="1.0" stop-color="#dec700"/>
    </linearGradient>
  </defs>
</svg>
