<?xml version="1.0" encoding="UTF-8" standalone="no"?>
<svg xmlns:ffdec="https://www.free-decompiler.com/flash" xmlns:xlink="http://www.w3.org/1999/xlink" ffdec:objectType="shape" height="42.35px" width="45.9px" xmlns="http://www.w3.org/2000/svg">
  <g transform="matrix(1.0, 0.0, 0.0, 1.0, -14.5, -13.7)">
    <path d="M49.75 25.65 Q54.9 30.8 54.9 38.05 54.9 45.3 49.75 50.4 44.6 55.55 37.35 55.55 30.1 55.55 24.95 50.4 19.8 45.3 19.8 38.05 19.8 30.8 24.95 25.65 30.1 20.5 37.35 20.5 44.6 20.5 49.75 25.65" fill="url(#gradient0)" fill-rule="evenodd" stroke="none"/>
    <path d="M37.35 21.0 Q30.3 21.0 25.3 26.0 20.3 31.0 20.3 38.05 20.3 45.1 25.3 50.1 30.3 55.05 37.35 55.05 44.4 55.05 49.4 50.1 54.4 45.1 54.4 38.05 54.4 31.0 49.4 26.0 44.4 21.0 37.35 21.0 M37.35 20.0 Q44.8 20.0 50.1 25.3 55.4 30.55 55.4 38.05 55.4 45.5 50.1 50.8 44.8 56.05 37.35 56.05 29.9 56.05 24.6 50.8 19.3 45.5 19.3 38.05 19.3 30.55 24.6 25.3 29.9 20.0 37.35 20.0" fill="#aa6500" fill-rule="evenodd" stroke="none"/>
    <path d="M41.1 37.35 L46.9 46.15 41.0 46.15 37.6 40.65 34.2 46.15 28.3 46.15 34.2 37.25 28.9 29.1 34.7 29.1 37.7 34.35 40.65 29.1 46.45 29.1 41.1 37.35" fill="#f79e00" fill-rule="evenodd" stroke="none"/>
    <path d="M60.4 34.9 Q60.4 39.0 58.8 39.65 57.55 40.2 54.35 38.7 L47.5 35.5 Q42.85 33.65 38.8 33.65 34.8 33.65 29.65 35.5 L21.9 38.7 Q18.1 40.2 16.5 39.65 14.5 39.0 14.5 34.9 14.5 26.1 21.2 19.9 27.95 13.7 37.45 13.7 46.95 13.7 53.7 19.9 60.4 26.1 60.4 34.9" fill="url(#gradient1)" fill-rule="evenodd" stroke="none"/>
  </g>
  <defs>
    <radialGradient cx="0" cy="0" gradientTransform="matrix(0.0214, 0.0, 0.0, -0.0214, 37.35, 38.05)" gradientUnits="userSpaceOnUse" id="gradient0" r="819.2" spreadMethod="pad">
      <stop offset="0.0" stop-color="#c54f00"/>
      <stop offset="0.14901960784313725" stop-color="#bf4c00"/>
      <stop offset="0.34509803921568627" stop-color="#ae4500"/>
      <stop offset="0.5725490196078431" stop-color="#923800"/>
      <stop offset="0.8156862745098039" stop-color="#6b2700"/>
      <stop offset="0.9529411764705882" stop-color="#521c00"/>
    </radialGradient>
    <linearGradient gradientTransform="matrix(0.0, -0.0159, -0.0159, 0.0, 37.45, 26.75)" gradientUnits="userSpaceOnUse" id="gradient1" spreadMethod="pad" x1="-819.2" x2="819.2">
      <stop offset="0.0" stop-color="#dbabd1" stop-opacity="0.28627452"/>
      <stop offset="0.12549019607843137" stop-color="#deadc4" stop-opacity="0.32941177"/>
      <stop offset="0.35294117647058826" stop-color="#e5b3a3" stop-opacity="0.44313726"/>
      <stop offset="0.6627450980392157" stop-color="#f1bc6e" stop-opacity="0.6313726"/>
      <stop offset="1.0" stop-color="#ffc72b" stop-opacity="0.85882354"/>
    </linearGradient>
  </defs>
</svg>
