<?xml version="1.0" encoding="UTF-8" standalone="no"?>
<svg xmlns:ffdec="https://www.free-decompiler.com/flash" xmlns:xlink="http://www.w3.org/1999/xlink" ffdec:objectType="shape" height="75.25px" width="75.25px" xmlns="http://www.w3.org/2000/svg">
  <g transform="matrix(1.0, 0.0, 0.0, 1.0, 0.0, 0.0)">
    <path d="M11.7 63.5 Q8.7 60.5 6.45 56.85 L15.2 51.75 14.65 50.8 5.9 55.85 Q-0.2 45.25 1.35 33.0 2.9 20.55 11.75 11.7 16.85 6.6 23.45 3.8 30.0 1.1 37.25 1.0 L37.25 11.1 38.4 11.1 38.4 1.0 Q45.55 1.15 52.0 3.9 58.5 6.7 63.55 11.75 72.4 20.6 73.95 33.0 75.45 45.2 69.4 55.8 L60.8 50.6 60.25 51.6 68.85 56.75 Q66.4 60.65 63.5 63.5 58.35 68.7 51.65 71.5 44.95 74.25 37.6 74.25 30.3 74.25 23.6 71.45 16.9 68.7 11.7 63.5" fill="url(#gradient0)" fill-rule="evenodd" stroke="none"/>
    <path d="M5.5 57.25 L5.05 56.45 5.1 56.45 5.0 56.35 Q-1.35 45.35 0.35 32.65 2.05 20.0 11.05 11.0 16.3 5.75 23.05 2.9 29.8 0.1 37.25 0.0 L38.4 0.0 Q45.7 0.15 52.4 3.0 59.1 5.85 64.25 11.0 73.2 20.0 74.9 32.65 76.55 45.25 70.25 56.3 L69.75 57.2 69.75 57.15 69.7 57.3 Q67.35 61.1 64.2 64.25 58.85 69.55 52.0 72.4 45.1 75.25 37.6 75.25 30.05 75.25 23.2 72.4 16.35 69.55 11.0 64.2 7.95 61.15 5.6 57.35 L5.55 57.2 5.5 57.25 M14.65 50.8 L15.2 51.75 6.45 56.85 Q8.7 60.5 11.7 63.5 16.9 68.7 23.6 71.45 30.3 74.25 37.6 74.25 44.95 74.25 51.65 71.5 58.35 68.7 63.5 63.5 66.4 60.65 68.85 56.75 L60.25 51.6 60.8 50.6 69.4 55.8 Q75.45 45.2 73.95 33.0 72.4 20.6 63.55 11.75 58.5 6.7 52.0 3.9 45.55 1.15 38.4 1.0 L38.4 11.1 37.25 11.1 37.25 1.0 Q30.0 1.1 23.45 3.8 16.85 6.6 11.75 11.7 2.9 20.55 1.35 33.0 -0.2 45.25 5.9 55.85 L14.65 50.8" fill="#1e1e1e" fill-rule="evenodd" stroke="none"/>
    <path d="M37.6 9.2 Q49.4 9.2 57.75 17.55 66.1 25.95 66.1 37.75 66.1 49.55 57.75 57.9 49.4 66.25 37.6 66.25 25.8 66.25 17.45 57.9 9.1 49.55 9.1 37.75 9.1 25.95 17.45 17.55 25.8 9.2 37.6 9.2" fill="#181819" fill-rule="evenodd" stroke="none"/>
    <path d="M37.6 10.7 Q26.45 10.7 18.5 18.65 10.6 26.55 10.6 37.75 10.6 48.95 18.5 56.85 26.45 64.75 37.6 64.75 48.8 64.75 56.7 56.85 64.6 48.95 64.6 37.75 64.6 26.55 56.7 18.65 48.75 10.7 37.6 10.7 M16.4 16.5 Q25.15 7.7 37.6 7.7 50.05 7.7 58.85 16.5 67.6 25.3 67.6 37.75 67.6 50.15 58.85 58.95 50.05 67.75 37.6 67.75 25.15 67.75 16.4 58.95 7.6 50.15 7.6 37.75 7.6 25.3 16.4 16.5" fill="#685e56" fill-rule="evenodd" stroke="none"/>
  </g>
  <defs>
    <linearGradient gradientTransform="matrix(0.0, -0.0447, -0.0447, 0.0, 37.6, 37.6)" gradientUnits="userSpaceOnUse" id="gradient0" spreadMethod="pad" x1="-819.2" x2="819.2">
      <stop offset="0.0" stop-color="#6a6a6a"/>
      <stop offset="0.403921568627451" stop-color="#242424"/>
      <stop offset="1.0" stop-color="#8c8c8c"/>
    </linearGradient>
  </defs>
</svg>
