<?xml version="1.0" encoding="UTF-8" standalone="no"?>
<svg xmlns:ffdec="https://www.free-decompiler.com/flash" xmlns:xlink="http://www.w3.org/1999/xlink" ffdec:objectType="shape" height="31.05px" width="60.9px" xmlns="http://www.w3.org/2000/svg">
  <g transform="matrix(1.0, 0.0, 0.0, 1.0, -10.9, 0.0)">
    <path d="M66.7 0.55 Q68.3 1.05 69.25 1.85 L70.55 2.85 Q71.5 3.6 71.75 4.95 72.0 6.25 71.4 7.3 L59.7 28.4 Q59.05 29.5 57.75 30.25 56.45 31.05 55.2 31.05 L26.55 31.05 Q25.3 31.05 24.0 30.25 22.7 29.45 22.15 28.35 L11.3 7.35 Q10.75 6.25 10.95 4.85 11.15 3.45 12.05 2.6 L12.5 2.1 14.9 0.6 Q16.4 0.0 17.65 0.0 L63.9 0.0 Q65.15 0.0 66.7 0.55" fill="url(#gradient0)" fill-rule="evenodd" stroke="none"/>
    <path d="M49.15 3.35 Q52.0 3.35 53.4 2.75 54.6 2.15 57.7 2.15 L58.85 2.15 61.6 2.75 Q63.1 3.4 63.95 4.25 L64.5 4.75 Q65.35 5.6 65.55 7.0 65.75 8.4 65.15 9.45 L56.35 25.3 Q55.75 26.4 54.4 27.15 53.1 27.95 51.85 27.95 L51.4 27.95 Q48.4 27.95 47.5 27.4 46.5 26.85 43.55 26.85 L38.65 26.85 Q35.6 26.85 34.85 27.4 L31.0 27.95 30.1 27.95 Q28.85 27.95 27.6 27.15 26.3 26.4 25.7 25.3 L17.55 9.5 Q17.0 8.4 17.15 6.95 17.25 5.45 18.05 4.5 L18.1 4.45 Q18.85 3.5 20.3 2.85 21.7 2.15 22.95 2.15 L25.45 2.15 Q28.5 2.15 29.85 2.75 L34.25 3.35 49.15 3.35" fill="#2b2b2a" fill-rule="evenodd" stroke="none"/>
    <path d="M60.1 6.6 Q60.75 7.1 60.9 7.95 61.05 8.85 60.65 9.55 L53.05 23.3 Q52.65 24.0 51.75 24.5 50.9 25.0 50.05 25.0 L31.4 25.0 29.75 24.5 Q28.9 23.95 28.5 23.25 L21.4 9.6 Q21.05 8.85 21.2 7.95 21.35 7.0 21.9 6.4 L22.15 6.15 Q22.75 5.55 23.75 5.15 24.75 4.75 25.6 4.75 L55.75 4.75 57.6 5.1 Q58.65 5.45 59.3 5.95 L60.1 6.6" fill="url(#gradient1)" fill-rule="evenodd" stroke="none"/>
    <path d="M60.1 6.6 L59.3 5.95 Q58.65 5.45 57.6 5.1 L55.75 4.75 25.6 4.75 Q24.75 4.75 23.75 5.15 22.75 5.55 22.15 6.15 L21.9 6.4 Q21.35 7.0 21.2 7.95 21.05 8.85 21.4 9.6 L28.5 23.25 Q28.9 23.95 29.75 24.5 L31.4 25.0 50.05 25.0 Q50.9 25.0 51.75 24.5 52.65 24.0 53.05 23.3 L60.65 9.55 Q61.05 8.85 60.9 7.95 60.75 7.1 60.1 6.6 Z" fill="none" stroke="#f19e24" stroke-linecap="butt" stroke-linejoin="miter-clip" stroke-miterlimit="4.0" stroke-width="1.0"/>
    <path d="M51.75 24.5 Q52.65 24.0 53.05 23.3 L60.65 9.55 Q61.05 8.85 60.9 7.95 60.75 7.1 60.1 6.6 L59.3 5.95 Q58.65 5.45 57.6 5.1 L55.75 4.75 25.6 4.75 Q24.75 4.75 23.75 5.15 22.75 5.55 22.15 6.15 L21.9 6.4 Q21.35 7.0 21.2 7.95 21.05 8.85 21.4 9.6 L28.5 23.25 Q28.9 23.95 29.75 24.5 L31.4 25.0 50.05 25.0 Q50.9 25.0 51.75 24.5 Z" fill="none" stroke="#f19e24" stroke-linecap="butt" stroke-linejoin="miter-clip" stroke-miterlimit="4.0" stroke-width="1.0"/>
    <path d="M39.05 10.95 L40.9 10.35 41.0 10.8 40.05 11.45 39.05 10.95" fill="#feae38" fill-rule="evenodd" stroke="none"/>
    <path d="M43.5 13.85 L42.6 13.1 42.85 11.95 43.3 11.9 43.5 13.85" fill="#feae38" fill-rule="evenodd" stroke="none"/>
    <path d="M38.2 22.55 L37.5 21.1 38.35 19.8 38.2 22.55" fill="#feae38" fill-rule="evenodd" stroke="none"/>
    <path d="M33.25 19.4 L35.75 18.1 34.9 19.4 33.25 19.4" fill="#feae38" fill-rule="evenodd" stroke="none"/>
    <path d="M45.35 7.55 Q45.35 8.1 44.95 8.65 L44.95 9.45 43.55 11.6 42.7 11.7 42.5 12.05 42.3 13.15 39.4 17.7 39.3 18.9 38.55 20.05 38.5 19.25 37.25 21.1 34.95 19.6 36.15 17.75 35.45 17.95 36.15 16.85 37.25 16.35 40.2 11.8 41.1 11.15 41.35 10.8 41.1 10.05 42.45 7.9 43.2 7.5 Q43.55 6.95 44.05 6.75 44.6 6.55 44.95 6.75 45.35 7.0 45.35 7.55" fill="#e87f40" fill-rule="evenodd" stroke="none"/>
    <path d="M45.35 7.55 Q45.35 8.1 44.95 8.65 L44.95 9.45 43.55 11.6 42.7 11.7 42.5 12.05 42.3 13.15 39.4 17.7 39.3 18.9 38.55 20.05 38.5 19.25 37.25 21.1 34.95 19.6 36.15 17.75 35.45 17.95 36.15 16.85 37.25 16.35 40.2 11.8 41.1 11.15 41.35 10.8 41.1 10.05 42.45 7.9 43.2 7.5 Q43.55 6.95 44.05 6.75 44.6 6.55 44.95 6.75 45.35 7.0 45.35 7.55 Z" ffdec:has-small-stroke="true" ffdec:original-stroke-width="0.5" fill="none" stroke="#f19e24" stroke-linecap="butt" stroke-linejoin="miter-clip" stroke-miterlimit="4.0" stroke-opacity="0.0" stroke-width="1.0"/>
    <path d="M35.45 19.75 L37.5 16.6 39.05 17.6 37.05 20.75 35.45 19.75" fill="#feae38" fill-rule="evenodd" stroke="none"/>
    <path d="M35.45 21.15 L36.9 18.85 37.2 19.05 35.7 21.35 35.45 21.15" fill="#ffc94d" fill-rule="evenodd" stroke="none"/>
    <path d="M36.85 19.0 L38.1 17.0 38.4 17.15 37.1 19.15 36.85 19.0" fill="#d26a02" fill-rule="evenodd" stroke="none"/>
    <path d="M40.95 12.6 L41.85 11.2 42.1 11.4 41.2 12.75 40.95 12.6" fill="#feae38" fill-rule="evenodd" stroke="none"/>
    <path d="M41.75 10.45 L43.1 8.4 44.15 9.1 42.85 11.15 41.75 10.45" fill="#feae38" fill-rule="evenodd" stroke="none"/>
    <path d="M37.9 16.45 L40.35 12.65 41.45 13.35 39.0 17.15 37.9 16.45" fill="#feae38" fill-rule="evenodd" stroke="none"/>
    <path d="M44.3 6.9 L44.65 6.8 Q44.9 6.95 44.75 7.2 L44.4 7.25 44.25 7.1 44.3 6.9" fill="#feae38" fill-rule="evenodd" stroke="none"/>
    <path d="M45.05 14.45 L46.35 14.05 46.45 14.35 45.75 14.8 45.05 14.45" fill="#e87f40" fill-rule="evenodd" stroke="none"/>
    <path d="M48.25 16.5 L47.6 16.0 47.75 15.15 48.1 15.15 48.25 16.5" fill="#e87f40" fill-rule="evenodd" stroke="none"/>
    <path d="M44.45 22.75 L43.95 21.7 44.55 20.75 44.45 22.75" fill="#e87f40" fill-rule="evenodd" stroke="none"/>
    <path d="M40.9 20.45 L42.7 19.55 42.1 20.5 40.9 20.45" fill="#e87f40" fill-rule="evenodd" stroke="none"/>
    <path d="M48.0 12.0 Q48.65 11.1 49.25 11.45 49.85 11.85 49.3 12.85 L49.25 13.4 48.25 14.95 47.65 15.0 47.5 15.25 47.4 16.05 45.3 19.3 45.25 20.15 44.7 20.95 44.65 20.4 43.8 21.7 42.15 20.65 43.0 19.3 42.5 19.45 43.0 18.7 43.8 18.3 45.85 15.05 46.55 14.6 46.7 14.35 46.5 13.8 47.5 12.25 48.0 12.0" fill="#bd540f" fill-rule="evenodd" stroke="none"/>
    <path d="M42.5 20.7 L43.95 18.5 45.05 19.2 43.6 21.45 42.5 20.7" fill="#c46200" fill-rule="evenodd" stroke="none"/>
    <path d="M42.5 21.75 L43.55 20.1 43.75 20.25 42.65 21.85 42.5 21.75" fill="#fe802b" fill-rule="evenodd" stroke="none"/>
    <path d="M43.5 20.2 L44.4 18.75 44.6 18.9 43.65 20.3 43.5 20.2" fill="#fd6602" fill-rule="evenodd" stroke="none"/>
    <path d="M46.4 15.65 L47.05 14.65 47.25 14.75 46.6 15.75 46.4 15.65" fill="#e87f40" fill-rule="evenodd" stroke="none"/>
    <path d="M47.0 14.1 L47.95 12.65 48.7 13.15 47.75 14.6 47.0 14.1" fill="#e87f40" fill-rule="evenodd" stroke="none"/>
    <path d="M44.25 18.4 L46.0 15.65 46.75 16.15 45.0 18.9 44.25 18.4" fill="#e87f40" fill-rule="evenodd" stroke="none"/>
    <path d="M48.8 11.55 L49.05 11.5 Q49.3 11.6 49.1 11.8 L48.85 11.85 Q48.7 11.75 48.8 11.55" fill="#e87f40" fill-rule="evenodd" stroke="none"/>
  </g>
  <defs>
    <linearGradient gradientTransform="matrix(0.0, -0.019, 0.019, 0.0, 41.35, 15.5)" gradientUnits="userSpaceOnUse" id="gradient0" spreadMethod="pad" x1="-819.2" x2="819.2">
      <stop offset="0.0" stop-color="#373737"/>
      <stop offset="0.6549019607843137" stop-color="#a4a4a4"/>
      <stop offset="0.803921568627451" stop-color="#a4a4a4"/>
      <stop offset="1.0" stop-color="#6b6b6b"/>
    </linearGradient>
    <linearGradient gradientTransform="matrix(0.0, 0.0118, 0.0085, 0.0, 76.65, 15.45)" gradientUnits="userSpaceOnUse" id="gradient1" spreadMethod="pad" x1="-819.2" x2="819.2">
      <stop offset="0.0" stop-color="#eb8242"/>
      <stop offset="0.00392156862745098" stop-color="#e87f40"/>
      <stop offset="0.043137254901960784" stop-color="#cb6129"/>
      <stop offset="0.08627450980392157" stop-color="#b34917"/>
      <stop offset="0.13333333333333333" stop-color="#a3380a"/>
      <stop offset="0.1803921568627451" stop-color="#992e02"/>
      <stop offset="0.24313725490196078" stop-color="#962b00"/>
      <stop offset="0.4392156862745098" stop-color="#982e00"/>
      <stop offset="0.592156862745098" stop-color="#9f3800"/>
      <stop offset="0.7333333333333333" stop-color="#ab4901"/>
      <stop offset="0.8666666666666667" stop-color="#bb6002"/>
      <stop offset="0.996078431372549" stop-color="#d07f03"/>
      <stop offset="1.0" stop-color="#d18003"/>
    </linearGradient>
  </defs>
</svg>
