<?xml version="1.0" encoding="UTF-8" standalone="no"?>
<svg xmlns:ffdec="https://www.free-decompiler.com/flash" xmlns:xlink="http://www.w3.org/1999/xlink" ffdec:objectType="shape" height="59.8px" width="59.7px" xmlns="http://www.w3.org/2000/svg">
  <g transform="matrix(1.0, 0.0, 0.0, 1.0, 0.0, 0.0)">
    <path d="M54.65 46.35 Q48.1 56.3 36.5 59.0 24.85 61.7 14.6 55.55 8.8 52.15 5.0 46.35 L7.5 44.95 Q10.85 50.05 16.05 53.1 25.3 58.6 35.8 56.2 46.25 53.8 52.2 44.9 L54.65 46.35" fill="url(#gradient0)" fill-rule="evenodd" stroke="none"/>
    <path d="M28.95 2.9 Q22.15 3.15 16.3 6.5 10.2 10.0 6.6 16.05 3.0 22.15 2.85 29.15 2.7 35.95 5.75 42.0 L3.25 43.4 Q-0.15 36.65 0.0 29.1 0.2 21.3 4.15 14.6 8.15 7.85 14.9 4.0 21.4 0.25 29.0 0.0 L28.95 2.9" fill="url(#gradient1)" fill-rule="evenodd" stroke="none"/>
    <path d="M56.35 43.4 L53.9 41.95 Q58.6 32.5 55.65 22.3 52.7 12.05 43.6 6.6 38.45 3.55 32.4 3.0 L32.4 0.1 Q39.2 0.65 45.05 4.15 55.2 10.15 58.45 21.6 61.7 32.95 56.35 43.4" fill="url(#gradient2)" fill-rule="evenodd" stroke="none"/>
  </g>
  <defs>
    <linearGradient gradientTransform="matrix(0.0303, 0.0, 0.0, -0.0303, 29.8, 52.3)" gradientUnits="userSpaceOnUse" id="gradient0" spreadMethod="pad" x1="-819.2" x2="819.2">
      <stop offset="0.0" stop-color="#ffff00"/>
      <stop offset="1.0" stop-color="#ffff00" stop-opacity="0.1764706"/>
    </linearGradient>
    <linearGradient gradientTransform="matrix(0.0177, 0.0, 0.0, -0.0177, 14.5, 21.7)" gradientUnits="userSpaceOnUse" id="gradient1" spreadMethod="pad" x1="-819.2" x2="819.2">
      <stop offset="0.0" stop-color="#ffff00" stop-opacity="0.1764706"/>
      <stop offset="1.0" stop-color="#ffff00"/>
    </linearGradient>
    <linearGradient gradientTransform="matrix(0.0166, 0.0, 0.0, -0.0166, 46.0, 21.75)" gradientUnits="userSpaceOnUse" id="gradient2" spreadMethod="pad" x1="-819.2" x2="819.2">
      <stop offset="0.0" stop-color="#ffff00" stop-opacity="0.1764706"/>
      <stop offset="1.0" stop-color="#ffff00"/>
    </linearGradient>
  </defs>
</svg>
