<?xml version="1.0" encoding="UTF-8" standalone="no"?>
<svg xmlns:ffdec="https://www.free-decompiler.com/flash" xmlns:xlink="http://www.w3.org/1999/xlink" ffdec:objectType="shape" height="29.2px" width="41.3px" xmlns="http://www.w3.org/2000/svg">
  <g transform="matrix(1.0, 0.0, 0.0, 1.0, -16.8, -16.1)">
    <path d="M40.75 37.4 L45.95 45.3 40.65 45.3 37.6 40.35 34.55 45.3 29.25 45.3 34.55 37.3 29.75 29.95 35.0 29.95 37.7 34.7 40.35 29.95 45.55 29.95 40.75 37.4" fill="#ffff91" fill-rule="evenodd" stroke="none"/>
    <path d="M52.05 21.65 Q58.1 27.25 58.1 35.15 58.1 38.85 56.65 39.45 55.55 39.95 52.65 38.6 L46.5 35.7 Q42.3 34.05 38.65 34.05 35.05 34.05 30.4 35.7 L23.45 38.6 Q20.05 39.95 18.6 39.45 16.8 38.85 16.8 35.15 16.8 27.25 22.8 21.65 28.9 16.1 37.45 16.1 46.0 16.1 52.05 21.65" fill="url(#gradient0)" fill-rule="evenodd" stroke="none"/>
  </g>
  <defs>
    <linearGradient gradientTransform="matrix(0.0, -0.0143, -0.0143, 0.0, 37.45, 27.85)" gradientUnits="userSpaceOnUse" id="gradient0" spreadMethod="pad" x1="-819.2" x2="819.2">
      <stop offset="0.0" stop-color="#dbabd1" stop-opacity="0.28627452"/>
      <stop offset="0.12549019607843137" stop-color="#deadc4" stop-opacity="0.32941177"/>
      <stop offset="0.35294117647058826" stop-color="#e5b3a3" stop-opacity="0.44313726"/>
      <stop offset="0.6627450980392157" stop-color="#f1bc6e" stop-opacity="0.6313726"/>
      <stop offset="1.0" stop-color="#ffc72b" stop-opacity="0.85882354"/>
    </linearGradient>
  </defs>
</svg>
