<?xml version="1.0" encoding="UTF-8" standalone="no"?>
<svg xmlns:ffdec="https://www.free-decompiler.com/flash" xmlns:xlink="http://www.w3.org/1999/xlink" ffdec:objectType="shape" height="31.05px" width="60.9px" xmlns="http://www.w3.org/2000/svg">
  <g transform="matrix(1.0, 0.0, 0.0, 1.0, -10.9, 0.0)">
    <path d="M66.7 0.55 Q68.3 1.05 69.25 1.85 L70.55 2.85 Q71.5 3.6 71.75 4.95 72.0 6.25 71.4 7.3 L59.7 28.4 Q59.05 29.5 57.75 30.25 56.45 31.05 55.2 31.05 L26.55 31.05 Q25.3 31.05 24.0 30.25 22.7 29.45 22.15 28.35 L11.3 7.35 Q10.75 6.25 10.95 4.85 11.15 3.45 12.05 2.6 L12.5 2.1 14.9 0.6 Q16.4 0.0 17.65 0.0 L63.9 0.0 Q65.15 0.0 66.7 0.55" fill="url(#gradient0)" fill-rule="evenodd" stroke="none"/>
    <path d="M49.15 3.35 Q52.0 3.35 53.4 2.75 54.6 2.15 57.7 2.15 L58.85 2.15 61.6 2.75 Q63.1 3.4 63.95 4.25 L64.5 4.75 Q65.35 5.6 65.55 7.0 65.75 8.4 65.15 9.45 L56.35 25.3 Q55.75 26.4 54.4 27.15 53.1 27.95 51.85 27.95 L51.4 27.95 Q48.4 27.95 47.5 27.4 46.5 26.85 43.55 26.85 L38.65 26.85 Q35.6 26.85 34.85 27.4 L31.0 27.95 30.1 27.95 Q28.85 27.95 27.6 27.15 26.3 26.4 25.7 25.3 L17.55 9.5 Q17.0 8.4 17.15 6.95 17.25 5.45 18.05 4.5 L18.1 4.45 Q18.85 3.5 20.3 2.85 21.7 2.15 22.95 2.15 L25.45 2.15 Q28.5 2.15 29.85 2.75 L34.25 3.35 49.15 3.35" fill="#2b2b2a" fill-rule="evenodd" stroke="none"/>
    <path d="M60.1 6.6 Q60.75 7.1 60.9 7.95 61.05 8.85 60.65 9.55 L53.05 23.3 Q52.65 24.0 51.75 24.5 50.9 25.0 50.05 25.0 L31.4 25.0 29.75 24.5 Q28.9 23.95 28.5 23.25 L21.4 9.6 Q21.05 8.85 21.2 7.95 21.35 7.0 21.9 6.4 L22.15 6.15 Q22.75 5.55 23.75 5.15 24.75 4.75 25.6 4.75 L55.75 4.75 57.6 5.1 Q58.65 5.45 59.3 5.95 L60.1 6.6" fill="url(#gradient1)" fill-rule="evenodd" stroke="none"/>
    <path d="M60.1 6.6 L59.3 5.95 Q58.65 5.45 57.6 5.1 L55.75 4.75 25.6 4.75 Q24.75 4.75 23.75 5.15 22.75 5.55 22.15 6.15 L21.9 6.4 Q21.35 7.0 21.2 7.95 21.05 8.85 21.4 9.6 L28.5 23.25 Q28.9 23.95 29.75 24.5 L31.4 25.0 50.05 25.0 Q50.9 25.0 51.75 24.5 52.65 24.0 53.05 23.3 L60.65 9.55 Q61.05 8.85 60.9 7.95 60.75 7.1 60.1 6.6 Z" fill="none" stroke="#f19e24" stroke-linecap="butt" stroke-linejoin="miter-clip" stroke-miterlimit="4.0" stroke-width="1.0"/>
    <path d="M51.75 24.5 Q52.65 24.0 53.05 23.3 L60.65 9.55 Q61.05 8.85 60.9 7.95 60.75 7.1 60.1 6.6 L59.3 5.95 Q58.65 5.45 57.6 5.1 L55.75 4.75 25.6 4.75 Q24.75 4.75 23.75 5.15 22.75 5.55 22.15 6.15 L21.9 6.4 Q21.35 7.0 21.2 7.95 21.05 8.85 21.4 9.6 L28.5 23.25 Q28.9 23.95 29.75 24.5 L31.4 25.0 50.05 25.0 Q50.9 25.0 51.75 24.5 Z" fill="none" stroke="#f19e24" stroke-linecap="butt" stroke-linejoin="miter-clip" stroke-miterlimit="4.0" stroke-width="1.0"/>
    <path d="M46.75 16.4 L50.25 16.7 53.75 18.25 55.75 18.25 55.75 18.5 53.75 18.5 52.2 18.9 45.45 19.05 44.75 19.75 43.55 19.85 41.95 21.2 38.6 21.2 36.6 22.1 34.25 22.0 34.3 21.05 32.95 22.0 31.0 21.75 31.35 20.3 29.55 20.4 29.55 19.8 32.4 19.2 32.3 15.45 33.25 15.45 33.25 13.8 34.45 13.8 36.1 15.7 38.2 15.7 39.95 17.1 44.7 17.1 Q44.9 17.15 46.75 16.4" fill="url(#gradient2)" fill-rule="evenodd" stroke="none"/>
    <path d="M46.6 16.5 Q46.65 16.25 47.15 16.15 L48.35 16.05 49.55 16.3 Q50.05 16.45 50.05 16.7 50.0 17.1 48.3 16.9 46.6 16.8 46.6 16.5" fill="#fdd32d" fill-rule="evenodd" stroke="none"/>
    <path d="M32.3 15.45 L33.7 15.45 36.95 19.55 32.4 19.2 32.3 15.45" fill="url(#gradient3)" fill-rule="evenodd" stroke="none"/>
    <path d="M45.45 19.05 L44.7 19.85 43.55 19.85 41.85 21.2 38.4 21.2 42.1 19.1 45.45 19.05" fill="#c46200" fill-rule="evenodd" stroke="none"/>
    <path d="M43.35 13.95 L40.15 14.95 43.3 12.4 46.55 14.95 43.35 13.95" fill="#fd852c" fill-rule="evenodd" stroke="none"/>
    <path d="M43.35 11.2 L40.15 12.2 43.3 9.65 46.55 12.2 43.35 11.2" fill="#fd852c" fill-rule="evenodd" stroke="none"/>
  </g>
  <defs>
    <linearGradient gradientTransform="matrix(0.0, -0.019, 0.019, 0.0, 41.35, 15.5)" gradientUnits="userSpaceOnUse" id="gradient0" spreadMethod="pad" x1="-819.2" x2="819.2">
      <stop offset="0.0" stop-color="#373737"/>
      <stop offset="0.6549019607843137" stop-color="#a4a4a4"/>
      <stop offset="0.803921568627451" stop-color="#a4a4a4"/>
      <stop offset="1.0" stop-color="#6b6b6b"/>
    </linearGradient>
    <linearGradient gradientTransform="matrix(0.0, 0.0118, 0.0085, 0.0, 76.65, 15.45)" gradientUnits="userSpaceOnUse" id="gradient1" spreadMethod="pad" x1="-819.2" x2="819.2">
      <stop offset="0.0" stop-color="#eb8242"/>
      <stop offset="0.00392156862745098" stop-color="#e87f40"/>
      <stop offset="0.043137254901960784" stop-color="#cb6129"/>
      <stop offset="0.08627450980392157" stop-color="#b34917"/>
      <stop offset="0.13333333333333333" stop-color="#a3380a"/>
      <stop offset="0.1803921568627451" stop-color="#992e02"/>
      <stop offset="0.24313725490196078" stop-color="#962b00"/>
      <stop offset="0.4392156862745098" stop-color="#982e00"/>
      <stop offset="0.592156862745098" stop-color="#9f3800"/>
      <stop offset="0.7333333333333333" stop-color="#ab4901"/>
      <stop offset="0.8666666666666667" stop-color="#bb6002"/>
      <stop offset="0.996078431372549" stop-color="#d07f03"/>
      <stop offset="1.0" stop-color="#d18003"/>
    </linearGradient>
    <linearGradient gradientTransform="matrix(-0.016, 0.0, 0.0, -0.016, 42.65, 17.95)" gradientUnits="userSpaceOnUse" id="gradient2" spreadMethod="pad" x1="-819.2" x2="819.2">
      <stop offset="0.0" stop-color="#ffd83c"/>
      <stop offset="0.14901960784313725" stop-color="#ffbf2b"/>
      <stop offset="0.3411764705882353" stop-color="#ffa430"/>
      <stop offset="0.5607843137254902" stop-color="#fe8a2c"/>
      <stop offset="0.792156862745098" stop-color="#fd802c"/>
      <stop offset="1.0" stop-color="#fe802b"/>
    </linearGradient>
    <linearGradient gradientTransform="matrix(0.0028, 0.0, 0.0, 0.0025, 34.6, 17.5)" gradientUnits="userSpaceOnUse" id="gradient3" spreadMethod="pad" x1="-819.2" x2="819.2">
      <stop offset="0.0" stop-color="#e87f40"/>
      <stop offset="0.08627450980392157" stop-color="#e87f40"/>
      <stop offset="0.7058823529411765" stop-color="#eda334"/>
      <stop offset="1.0" stop-color="#e9b438"/>
    </linearGradient>
  </defs>
</svg>
