<?xml version="1.0" encoding="UTF-8" standalone="no"?>
<svg xmlns:ffdec="https://www.free-decompiler.com/flash" xmlns:xlink="http://www.w3.org/1999/xlink" ffdec:objectType="shape" height="31.05px" width="60.9px" xmlns="http://www.w3.org/2000/svg">
  <g transform="matrix(1.0, 0.0, 0.0, 1.0, -10.65, -0.05)">
    <path d="M59.45 28.45 Q58.8 29.55 57.5 30.3 56.2 31.1 54.95 31.1 L26.3 31.1 Q25.05 31.1 23.75 30.3 22.45 29.5 21.9 28.4 L11.05 7.4 Q10.5 6.3 10.7 4.9 10.9 3.5 11.8 2.65 L12.25 2.15 14.65 0.65 Q16.15 0.05 17.4 0.05 L63.65 0.05 Q64.9 0.05 66.45 0.6 68.05 1.1 69.0 1.9 L70.3 2.9 Q71.25 3.65 71.5 5.0 71.75 6.3 71.15 7.35 L59.45 28.45" fill="url(#gradient0)" fill-rule="evenodd" stroke="none"/>
    <path d="M48.9 3.4 L53.15 2.8 Q54.35 2.2 57.45 2.2 L58.6 2.2 61.35 2.8 Q62.85 3.45 63.7 4.3 L64.25 4.8 Q65.1 5.65 65.3 7.05 65.5 8.45 64.9 9.5 L56.1 25.35 Q55.5 26.45 54.15 27.2 52.85 28.0 51.6 28.0 L51.15 28.0 47.25 27.45 Q46.25 26.9 43.3 26.9 L38.4 26.9 Q35.35 26.9 34.6 27.45 33.8 28.0 30.75 28.0 L29.85 28.0 Q28.6 28.0 27.35 27.2 26.05 26.45 25.45 25.35 L17.3 9.55 Q16.75 8.45 16.9 7.0 17.0 5.5 17.8 4.55 L17.85 4.5 Q18.6 3.55 20.05 2.9 21.45 2.2 22.7 2.2 L25.2 2.2 Q28.25 2.2 29.6 2.8 31.1 3.4 34.0 3.4 L48.9 3.4" fill="#2b2b2a" fill-rule="evenodd" stroke="none"/>
    <path d="M55.5 4.8 L57.35 5.15 Q58.4 5.5 59.05 6.0 L59.85 6.65 Q60.5 7.15 60.65 8.0 60.8 8.9 60.4 9.6 L52.8 23.35 51.5 24.55 Q50.65 25.05 49.8 25.05 L31.15 25.05 Q30.35 25.05 29.5 24.55 28.65 24.0 28.25 23.3 L21.15 9.65 Q20.8 8.9 20.95 8.0 21.1 7.05 21.65 6.45 L21.9 6.2 Q22.5 5.6 23.5 5.2 24.5 4.8 25.35 4.8 L55.5 4.8" fill="#03287a" fill-rule="evenodd" stroke="none"/>
    <path d="M55.5 4.8 L25.35 4.8 Q24.5 4.8 23.5 5.2 22.5 5.6 21.9 6.2 L21.65 6.45 Q21.1 7.05 20.95 8.0 20.8 8.9 21.15 9.65 L28.25 23.3 Q28.65 24.0 29.5 24.55 30.35 25.05 31.15 25.05 L49.8 25.05 Q50.65 25.05 51.5 24.55 L52.8 23.35 60.4 9.6 Q60.8 8.9 60.65 8.0 60.5 7.15 59.85 6.65 L59.05 6.0 Q58.4 5.5 57.35 5.15 L55.5 4.8 Z" fill="none" stroke="#069aff" stroke-linecap="butt" stroke-linejoin="miter-clip" stroke-miterlimit="4.0" stroke-width="1.0"/>
    <path d="M43.3 20.55 L43.3 23.4 39.25 23.4 39.25 18.85 41.25 18.85 43.3 20.55" fill="#094ace" fill-rule="evenodd" stroke="none"/>
    <path d="M41.25 23.4 L35.4 23.4 35.4 17.45 41.25 17.45 41.25 23.4" fill="#0f67f4" fill-rule="evenodd" stroke="none"/>
    <path d="M46.0 10.3 L40.1 14.8 39.5 14.0 45.4 9.5 46.0 10.3" fill="#094ace" fill-rule="evenodd" stroke="none"/>
    <path d="M43.55 13.1 L43.3 15.45 37.9 19.5 35.0 15.6 40.4 11.5 43.55 13.1" fill="#0f67f4" fill-rule="evenodd" stroke="none"/>
    <path d="M47.5 8.9 L47.4 9.8 45.25 11.75 43.95 10.0 46.4 8.4 47.5 8.9" fill="#22a6ff" fill-rule="evenodd" stroke="none"/>
    <path d="M41.95 14.4 L41.7 17.1 35.05 22.15 31.65 17.6 38.25 12.55 41.95 14.4" fill="#0d90fc" fill-rule="evenodd" stroke="none"/>
    <path d="M36.6 17.45 Q37.5 18.7 37.3 20.2 37.1 21.7 35.85 22.65 34.6 23.55 33.1 23.35 31.6 23.15 30.65 21.9 29.7 20.65 29.95 19.15 30.15 17.65 31.4 16.7 32.65 15.75 34.15 16.0 35.65 16.2 36.6 17.45" fill="#24c6ff" fill-rule="evenodd" stroke="none"/>
    <path d="M35.8 18.05 Q36.5 18.95 36.3 20.05 36.15 21.2 35.25 21.85 34.35 22.55 33.25 22.35 32.15 22.2 31.45 21.3 30.8 20.4 30.95 19.3 31.1 18.2 32.0 17.5 32.9 16.85 34.0 17.0 35.15 17.15 35.8 18.05" fill="#0f67f4" fill-rule="evenodd" stroke="none"/>
    <path d="M35.0 18.6 Q35.45 19.2 35.35 19.9 35.25 20.65 34.65 21.05 34.1 21.5 33.35 21.4 32.65 21.3 32.2 20.7 31.8 20.15 31.9 19.4 32.0 18.7 32.55 18.25 33.15 17.85 33.85 17.95 34.6 18.05 35.0 18.6" fill="#24c6ff" fill-rule="evenodd" stroke="none"/>
    <path d="M49.1 16.0 L45.85 17.0 49.05 14.4 52.3 17.0 49.1 16.0" fill="#50ceff" fill-rule="evenodd" stroke="none"/>
    <path d="M49.1 18.35 L45.85 19.35 49.05 16.75 52.3 19.35 49.1 18.35" fill="#50ceff" fill-rule="evenodd" stroke="none"/>
  </g>
  <defs>
    <linearGradient gradientTransform="matrix(0.0, -0.019, 0.019, 0.0, 41.1, 15.55)" gradientUnits="userSpaceOnUse" id="gradient0" spreadMethod="pad" x1="-819.2" x2="819.2">
      <stop offset="0.0" stop-color="#373737"/>
      <stop offset="0.6549019607843137" stop-color="#a4a4a4"/>
      <stop offset="0.803921568627451" stop-color="#a4a4a4"/>
      <stop offset="1.0" stop-color="#6b6b6b"/>
    </linearGradient>
  </defs>
</svg>
