<?xml version="1.0" encoding="UTF-8" standalone="no"?>
<svg xmlns:ffdec="https://www.free-decompiler.com/flash" xmlns:xlink="http://www.w3.org/1999/xlink" ffdec:objectType="shape" height="16.45px" width="79.35px" xmlns="http://www.w3.org/2000/svg">
  <g transform="matrix(1.0, 0.0, 0.0, 1.0, -1.45, -18.0)">
    <path d="M3.7 34.1 L6.7 34.3 Q8.9 33.05 15.35 30.9 17.15 30.35 16.1 28.45 15.1 26.55 12.75 27.3 4.75 30.0 1.5 32.75 1.2 33.5 3.7 34.1" fill="url(#gradient0)" fill-rule="evenodd" stroke="none"/>
    <path d="M78.55 34.1 L75.55 34.3 Q73.35 33.05 66.9 30.9 65.1 30.35 66.15 28.45 67.15 26.55 69.5 27.3 77.5 30.0 80.75 32.75 81.05 33.5 78.55 34.1" fill="url(#gradient1)" fill-rule="evenodd" stroke="none"/>
    <path d="M14.85 18.0 L12.5 19.4 11.35 24.2 16.15 32.25 20.9 33.5 23.2 32.1 14.85 18.0" fill="url(#gradient2)" fill-rule="evenodd" stroke="none"/>
    <path d="M9.85 26.9 L13.0 32.15 15.3 30.8 12.25 25.55 9.85 26.9" fill="#333333" fill-rule="evenodd" stroke="none"/>
    <path d="M67.15 18.0 L69.45 19.4 70.6 24.2 65.8 32.25 61.05 33.5 58.8 32.1 67.15 18.0" fill="url(#gradient3)" fill-rule="evenodd" stroke="none"/>
    <path d="M72.1 26.9 L68.95 32.15 66.7 30.8 69.75 25.55 72.1 26.9" fill="#333333" fill-rule="evenodd" stroke="none"/>
  </g>
  <defs>
    <linearGradient gradientTransform="matrix(0.0015, 0.0037, 0.0086, -0.0036, -22.4, 44.2)" gradientUnits="userSpaceOnUse" id="gradient0" spreadMethod="pad" x1="-819.2" x2="819.2">
      <stop offset="0.0" stop-color="#505050"/>
      <stop offset="0.09803921568627451" stop-color="#373737"/>
      <stop offset="0.5254901960784314" stop-color="#6e6861"/>
      <stop offset="0.8862745098039215" stop-color="#3d3d3d"/>
      <stop offset="1.0" stop-color="#505050"/>
    </linearGradient>
    <linearGradient gradientTransform="matrix(-0.0015, 0.0037, -0.0086, -0.0036, 104.65, 44.2)" gradientUnits="userSpaceOnUse" id="gradient1" spreadMethod="pad" x1="-819.2" x2="819.2">
      <stop offset="0.0" stop-color="#505050"/>
      <stop offset="0.09803921568627451" stop-color="#373737"/>
      <stop offset="0.5254901960784314" stop-color="#6e6861"/>
      <stop offset="0.8862745098039215" stop-color="#3d3d3d"/>
      <stop offset="1.0" stop-color="#505050"/>
    </linearGradient>
    <linearGradient gradientTransform="matrix(0.0049, 0.0088, -0.0088, 0.0049, 16.45, 26.6)" gradientUnits="userSpaceOnUse" id="gradient2" spreadMethod="pad" x1="-819.2" x2="819.2">
      <stop offset="0.0" stop-color="#505050"/>
      <stop offset="0.09803921568627451" stop-color="#373737"/>
      <stop offset="0.5254901960784314" stop-color="#6e6963"/>
      <stop offset="0.8862745098039215" stop-color="#3d3d3d"/>
      <stop offset="1.0" stop-color="#505050"/>
    </linearGradient>
    <linearGradient gradientTransform="matrix(-0.0049, 0.0088, 0.0088, 0.0049, 65.55, 26.6)" gradientUnits="userSpaceOnUse" id="gradient3" spreadMethod="pad" x1="-819.2" x2="819.2">
      <stop offset="0.0" stop-color="#505050"/>
      <stop offset="0.09803921568627451" stop-color="#373737"/>
      <stop offset="0.5254901960784314" stop-color="#6e6963"/>
      <stop offset="0.8862745098039215" stop-color="#3d3d3d"/>
      <stop offset="1.0" stop-color="#505050"/>
    </linearGradient>
  </defs>
</svg>
