<?xml version="1.0" encoding="UTF-8" standalone="no"?>
<svg xmlns:ffdec="https://www.free-decompiler.com/flash" xmlns:xlink="http://www.w3.org/1999/xlink" ffdec:objectType="shape" height="36.1px" width="36.1px" xmlns="http://www.w3.org/2000/svg">
  <g transform="matrix(1.0, 0.0, 0.0, 1.0, -19.3, -20.0)">
    <path d="M49.75 25.65 Q54.9 30.8 54.9 38.05 54.9 45.3 49.75 50.45 44.6 55.6 37.35 55.6 30.1 55.6 24.95 50.45 19.8 45.3 19.8 38.05 19.8 30.8 24.95 25.65 30.1 20.5 37.35 20.5 44.6 20.5 49.75 25.65" fill="url(#gradient0)" fill-rule="evenodd" stroke="none"/>
    <path d="M37.35 21.0 Q30.3 21.0 25.3 26.0 20.3 31.0 20.3 38.05 20.3 45.1 25.3 50.1 30.3 55.1 37.35 55.1 44.4 55.1 49.4 50.1 54.4 45.1 54.4 38.05 54.4 31.0 49.4 26.0 44.4 21.0 37.35 21.0 M37.35 20.0 Q44.8 20.0 50.1 25.3 55.4 30.6 55.4 38.05 55.4 45.5 50.1 50.8 44.8 56.1 37.35 56.1 29.9 56.1 24.6 50.8 19.3 45.5 19.3 38.05 19.3 30.6 24.6 25.3 29.9 20.0 37.35 20.0" fill="#ce7b20" fill-rule="evenodd" stroke="none"/>
    <path d="M49.2 37.75 L32.2 47.55 32.2 27.75 49.2 37.75" fill="#ffff91" fill-rule="evenodd" stroke="none"/>
  </g>
  <defs>
    <radialGradient cx="0" cy="0" gradientTransform="matrix(0.0214, 0.0, 0.0, -0.0214, 37.35, 38.05)" gradientUnits="userSpaceOnUse" id="gradient0" r="819.2" spreadMethod="pad">
      <stop offset="0.0" stop-color="#e68707"/>
      <stop offset="0.13333333333333333" stop-color="#e08207"/>
      <stop offset="0.30980392156862746" stop-color="#cf7506"/>
      <stop offset="0.5137254901960784" stop-color="#b35f04"/>
      <stop offset="0.7372549019607844" stop-color="#8c4102"/>
      <stop offset="0.8588235294117647" stop-color="#732e00"/>
      <stop offset="1.0" stop-color="#783800"/>
    </radialGradient>
  </defs>
</svg>
