<?xml version="1.0" encoding="UTF-8" standalone="no"?>
<svg xmlns:ffdec="https://www.free-decompiler.com/flash" xmlns:xlink="http://www.w3.org/1999/xlink" ffdec:objectType="shape" height="67.75px" width="67.75px" xmlns="http://www.w3.org/2000/svg">
  <g transform="matrix(1.0, 0.0, 0.0, 1.0, -3.7, -3.75)">
    <path d="M14.25 60.9 Q11.55 58.2 9.55 54.95 L17.4 50.35 16.9 49.5 9.05 54.05 Q3.55 44.5 4.95 33.45 6.35 22.25 14.3 14.3 18.9 9.7 24.85 7.2 30.75 4.75 37.25 4.65 L37.25 13.75 38.3 13.75 38.3 4.65 Q44.75 4.8 50.55 7.25 56.4 9.8 60.95 14.35 68.9 22.3 70.3 33.45 71.65 44.45 66.2 54.0 L58.45 49.3 57.95 50.2 65.7 54.85 Q63.5 58.35 60.9 60.9 56.25 65.6 50.2 68.1 44.2 70.6 37.6 70.6 31.0 70.6 25.0 68.05 18.95 65.6 14.25 60.9" fill="url(#gradient0)" fill-rule="evenodd" stroke="none"/>
    <path d="M8.7 55.3 L8.3 54.55 8.35 54.55 8.25 54.5 Q2.5 44.6 4.05 33.15 5.6 21.75 13.7 13.65 18.4 8.95 24.5 6.35 30.55 3.85 37.25 3.75 L38.3 3.75 Q44.85 3.9 50.9 6.45 56.95 9.05 61.55 13.65 69.6 21.75 71.15 33.15 72.65 44.5 66.95 54.45 L66.5 55.25 66.5 55.2 66.45 55.35 Q64.35 58.75 61.5 61.6 56.7 66.35 50.55 68.9 44.35 71.5 37.6 71.5 30.8 71.5 24.6 68.9 18.45 66.35 13.65 61.55 10.9 58.8 8.8 55.4 L8.75 55.25 8.7 55.3 M16.9 49.5 L17.4 50.35 9.55 54.95 Q11.55 58.2 14.25 60.9 18.95 65.6 25.0 68.05 31.0 70.6 37.6 70.6 44.2 70.6 50.2 68.1 56.25 65.6 60.9 60.9 63.5 58.35 65.7 54.85 L57.95 50.2 58.45 49.3 66.2 54.0 Q71.65 44.45 70.3 33.45 68.9 22.3 60.95 14.35 56.4 9.8 50.55 7.25 44.75 4.8 38.3 4.65 L38.3 13.75 37.25 13.75 37.25 4.65 Q30.75 4.75 24.85 7.2 18.9 9.7 14.3 14.3 6.35 22.25 4.95 33.45 3.55 44.5 9.05 54.05 L16.9 49.5" fill="#1e1e1e" fill-rule="evenodd" stroke="none"/>
    <path d="M37.6 12.05 Q48.2 12.05 55.7 19.55 63.25 27.1 63.25 37.75 63.25 48.35 55.7 55.85 48.2 63.4 37.6 63.4 26.95 63.4 19.45 55.85 11.95 48.35 11.95 37.75 11.95 27.1 19.45 19.55 26.95 12.05 37.6 12.05" fill="#181819" fill-rule="evenodd" stroke="none"/>
    <path d="M18.5 18.6 Q26.35 10.7 37.6 10.7 48.8 10.7 56.7 18.6 64.6 26.55 64.6 37.75 64.6 48.9 56.7 56.8 48.8 64.75 37.6 64.75 26.35 64.75 18.5 56.8 10.6 48.9 10.6 37.75 10.6 26.55 18.5 18.6 M37.6 13.4 Q27.55 13.4 20.4 20.55 13.3 27.65 13.3 37.75 13.3 47.8 20.4 54.95 27.55 62.05 37.6 62.05 47.65 62.05 54.75 54.95 61.9 47.8 61.9 37.75 61.9 27.65 54.75 20.55 47.6 13.4 37.6 13.4" fill="#685e56" fill-rule="evenodd" stroke="none"/>
  </g>
  <defs>
    <linearGradient gradientTransform="matrix(0.0, -0.0402, -0.0402, 0.0, 37.6, 37.6)" gradientUnits="userSpaceOnUse" id="gradient0" spreadMethod="pad" x1="-819.2" x2="819.2">
      <stop offset="0.0" stop-color="#6a6a6a"/>
      <stop offset="0.403921568627451" stop-color="#242424"/>
      <stop offset="1.0" stop-color="#8c8c8c"/>
    </linearGradient>
  </defs>
</svg>
