<?xml version="1.0" encoding="UTF-8" standalone="no"?>
<svg xmlns:ffdec="https://www.free-decompiler.com/flash" xmlns:xlink="http://www.w3.org/1999/xlink" ffdec:objectType="shape" height="109.45px" width="109.25px" xmlns="http://www.w3.org/2000/svg">
  <g transform="matrix(1.0, 0.0, 0.0, 1.0, 0.5, 0.5)">
    <path d="M68.45 67.35 L42.8 67.35 42.8 42.2 68.45 42.2 68.45 67.35" fill="#0099ff" fill-opacity="0.0" fill-rule="evenodd" stroke="none"/>
    <path d="M54.15 0.0 Q75.7 0.0 91.35 14.8 106.95 29.55 108.25 50.9 L93.4 50.9 Q92.1 35.7 80.85 25.3 69.55 14.85 54.15 14.85 38.75 14.85 27.4 25.3 16.2 35.7 14.9 50.9 L0.0 50.9 Q1.3 29.55 16.9 14.8 32.6 0.0 54.15 0.0" fill="#03218e" fill-rule="evenodd" stroke="none"/>
    <path d="M54.15 0.0 Q32.6 0.0 16.9 14.8 1.3 29.55 0.0 50.9 L14.9 50.9 Q16.2 35.7 27.4 25.3 38.75 14.85 54.15 14.85 69.55 14.85 80.85 25.3 92.1 35.7 93.4 50.9 L108.25 50.9 Q106.95 29.55 91.35 14.8 75.7 0.0 54.15 0.0 Z" fill="none" stroke="#0743d8" stroke-linecap="butt" stroke-linejoin="miter-clip" stroke-miterlimit="4.0" stroke-width="1.0"/>
    <path d="M90.95 94.05 Q75.35 108.45 54.15 108.45 32.9 108.45 17.35 94.05 1.85 79.75 0.1 58.8 L15.0 58.8 Q16.7 73.6 27.85 83.55 39.05 93.6 54.15 93.6 69.25 93.6 80.45 83.55 91.55 73.6 93.25 58.8 L108.15 58.8 Q106.4 79.75 90.95 94.05" fill="#03218e" fill-rule="evenodd" stroke="none"/>
    <path d="M90.95 94.05 Q106.4 79.75 108.15 58.8 L93.25 58.8 Q91.55 73.6 80.45 83.55 69.25 93.6 54.15 93.6 39.05 93.6 27.85 83.55 16.7 73.6 15.0 58.8 L0.1 58.8 Q1.85 79.75 17.35 94.05 32.9 108.45 54.15 108.45 75.35 108.45 90.95 94.05 Z" fill="none" stroke="#0743d8" stroke-linecap="butt" stroke-linejoin="miter-clip" stroke-miterlimit="4.0" stroke-width="1.0"/>
    <path d="M101.8 58.25 L101.7 59.35 Q101.0 68.15 97.1 76.1 93.25 84.05 86.7 90.1 80.1 96.2 71.8 99.4 63.5 102.65 54.55 102.65 45.6 102.65 37.3 99.4 29.0 96.15 22.45 90.05 15.9 84.0 12.05 76.05 8.15 68.1 7.45 59.25 L7.35 58.2 22.05 58.2 22.15 59.1 Q23.6 71.45 32.85 79.7 42.15 87.95 54.6 87.95 67.0 87.95 76.3 79.7 85.6 71.5 87.0 59.15 L87.1 58.25 101.8 58.25 M100.7 59.25 L88.0 59.25 Q86.55 71.9 77.05 80.4 67.5 88.95 54.6 88.95 L54.55 88.95 Q41.7 88.95 32.1 80.35 22.6 71.85 21.15 59.2 L8.45 59.2 Q9.9 77.1 23.15 89.35 36.45 101.65 54.55 101.65 L54.6 101.65 Q72.7 101.65 86.0 89.35 99.25 77.15 100.7 59.25" fill="#2a51e0" fill-rule="evenodd" stroke="none"/>
    <path d="M100.7 59.25 Q99.25 77.15 86.0 89.35 72.7 101.65 54.6 101.65 L54.55 101.65 Q36.45 101.65 23.15 89.35 9.9 77.1 8.45 59.2 L21.15 59.2 Q22.6 71.85 32.1 80.35 41.7 88.95 54.55 88.95 L54.6 88.95 Q67.5 88.95 77.05 80.4 86.55 71.9 88.0 59.25 L100.7 59.25" fill="#011065" fill-rule="evenodd" stroke="none"/>
    <path d="M101.5 51.85 L88.6 51.85 Q87.5 38.65 77.75 29.65 67.95 20.55 54.6 20.55 41.25 20.55 31.45 29.6 21.7 38.6 20.55 51.8 L7.65 51.75 Q8.8 33.25 22.3 20.5 35.9 7.65 54.6 7.7 73.3 7.7 86.9 20.55 100.4 33.3 101.5 51.85" fill="#011065" fill-rule="evenodd" stroke="none"/>
    <path d="M102.6 52.85 L87.7 52.85 87.6 51.9 Q86.55 39.15 77.0 30.35 67.4 21.55 54.6 21.55 41.8 21.55 32.2 30.35 22.65 39.1 21.55 51.85 L21.45 52.8 6.6 52.75 6.65 51.7 Q7.8 32.75 21.7 19.75 35.6 6.7 54.6 6.7 73.6 6.7 87.5 19.75 101.4 32.85 102.5 51.8 L102.6 52.85 M101.5 51.85 Q100.4 33.3 86.9 20.55 73.3 7.7 54.6 7.7 35.9 7.65 22.3 20.5 8.8 33.25 7.65 51.75 L20.55 51.8 Q21.7 38.6 31.45 29.6 41.25 20.55 54.6 20.55 67.95 20.55 77.75 29.65 87.5 38.65 88.6 51.85 L101.5 51.85" fill="#2a51e0" fill-rule="evenodd" stroke="none"/>
    <path d="M31.65 31.75 Q41.2 22.2 54.7 22.2 68.2 22.2 77.8 31.75 87.35 41.3 87.35 54.85 87.35 68.35 77.8 77.9 68.2 87.45 54.7 87.45 41.2 87.45 31.65 77.9 22.05 68.35 22.05 54.85 22.05 41.3 31.65 31.75" fill="#663004" fill-rule="evenodd" stroke="none"/>
    <path d="M31.65 31.75 Q41.2 22.2 54.7 22.2 68.2 22.2 77.8 31.75 87.35 41.3 87.35 54.85 87.35 68.35 77.8 77.9 68.2 87.45 54.7 87.45 41.2 87.45 31.65 77.9 22.05 68.35 22.05 54.85 22.05 41.3 31.65 31.75 Z" fill="none" stroke="#0f69ed" stroke-linecap="butt" stroke-linejoin="miter-clip" stroke-miterlimit="4.0" stroke-width="1.5"/>
    <path d="M37.9 38.35 Q44.7 31.5 54.35 31.5 64.05 31.5 70.85 38.35 77.7 45.2 77.7 54.85 77.7 64.5 70.85 71.3 64.0 78.15 54.35 78.15 44.7 78.15 37.9 71.3 31.05 64.5 31.05 54.85 31.05 45.2 37.9 38.35" fill="url(#gradient0)" fill-rule="evenodd" stroke="none"/>
    <path d="M30.55 54.85 Q30.55 44.95 37.5 38.0 44.5 31.0 54.35 31.0 64.25 31.0 71.25 38.0 78.2 44.95 78.2 54.85 78.2 64.7 71.25 71.7 64.25 78.65 54.35 78.65 44.5 78.65 37.5 71.7 30.55 64.7 30.55 54.85 M38.25 38.7 Q31.55 45.4 31.55 54.85 31.55 64.25 38.25 70.95 44.95 77.65 54.35 77.65 63.8 77.65 70.5 70.95 77.2 64.25 77.2 54.85 77.2 45.4 70.5 38.7 63.8 32.0 54.35 32.0 44.95 32.0 38.25 38.7" fill="#ce7b20" fill-rule="evenodd" stroke="none"/>
  </g>
  <defs>
    <radialGradient cx="0" cy="0" gradientTransform="matrix(0.0285, 0.0, 0.0, -0.0285, 54.35, 54.85)" gradientUnits="userSpaceOnUse" id="gradient0" r="819.2" spreadMethod="pad">
      <stop offset="0.0" stop-color="#e68707"/>
      <stop offset="0.13333333333333333" stop-color="#e08207"/>
      <stop offset="0.30980392156862746" stop-color="#cf7506"/>
      <stop offset="0.5137254901960784" stop-color="#b35f04"/>
      <stop offset="0.7372549019607844" stop-color="#8c4102"/>
      <stop offset="0.8588235294117647" stop-color="#732e00"/>
      <stop offset="1.0" stop-color="#783800"/>
    </radialGradient>
  </defs>
</svg>
