<?xml version="1.0" encoding="UTF-8" standalone="no"?>
<svg xmlns:ffdec="https://www.free-decompiler.com/flash" xmlns:xlink="http://www.w3.org/1999/xlink" ffdec:objectType="shape" height="59.8px" width="59.7px" xmlns="http://www.w3.org/2000/svg">
  <g transform="matrix(1.0, 0.0, 0.0, 1.0, -24.85, -24.9)">
    <path d="M79.5 71.25 Q72.95 81.2 61.35 83.9 49.7 86.6 39.45 80.45 33.65 77.05 29.85 71.25 L32.35 69.85 Q35.7 74.95 40.9 78.0 50.15 83.5 60.65 81.1 71.1 78.7 77.05 69.8 L79.5 71.25" fill="url(#gradient0)" fill-rule="evenodd" stroke="none"/>
    <path d="M53.8 27.8 Q47.0 28.05 41.15 31.4 35.05 34.9 31.45 40.95 27.85 47.05 27.7 54.05 27.55 60.85 30.6 66.9 L28.1 68.3 Q24.7 61.55 24.85 54.0 25.05 46.2 29.0 39.5 33.0 32.75 39.75 28.9 46.25 25.15 53.85 24.9 L53.8 27.8" fill="url(#gradient1)" fill-rule="evenodd" stroke="none"/>
    <path d="M81.2 68.3 L78.75 66.85 Q83.45 57.4 80.5 47.2 77.55 36.95 68.45 31.5 63.3 28.45 57.25 27.9 L57.25 25.0 Q64.05 25.55 69.9 29.05 80.05 35.05 83.3 46.5 86.55 57.85 81.2 68.3" fill="url(#gradient2)" fill-rule="evenodd" stroke="none"/>
  </g>
  <defs>
    <linearGradient gradientTransform="matrix(0.0303, 0.0, 0.0, -0.0303, 54.65, 77.2)" gradientUnits="userSpaceOnUse" id="gradient0" spreadMethod="pad" x1="-819.2" x2="819.2">
      <stop offset="0.0" stop-color="#ffff00"/>
      <stop offset="1.0" stop-color="#ffff00" stop-opacity="0.1764706"/>
    </linearGradient>
    <linearGradient gradientTransform="matrix(0.0177, 0.0, 0.0, -0.0177, 39.35, 46.6)" gradientUnits="userSpaceOnUse" id="gradient1" spreadMethod="pad" x1="-819.2" x2="819.2">
      <stop offset="0.0" stop-color="#ffff00" stop-opacity="0.1764706"/>
      <stop offset="1.0" stop-color="#ffff00"/>
    </linearGradient>
    <linearGradient gradientTransform="matrix(0.0166, 0.0, 0.0, -0.0166, 70.85, 46.65)" gradientUnits="userSpaceOnUse" id="gradient2" spreadMethod="pad" x1="-819.2" x2="819.2">
      <stop offset="0.0" stop-color="#ffff00" stop-opacity="0.1764706"/>
      <stop offset="1.0" stop-color="#ffff00"/>
    </linearGradient>
  </defs>
</svg>
