<?xml version="1.0" encoding="UTF-8" standalone="no"?>
<svg xmlns:ffdec="https://www.free-decompiler.com/flash" xmlns:xlink="http://www.w3.org/1999/xlink" ffdec:objectType="shape" height="43.65px" width="43.6px" xmlns="http://www.w3.org/2000/svg">
  <g transform="matrix(1.0, 0.0, 0.0, 1.0, -6.35, -6.4)">
    <path d="M44.85 45.9 L45.8 44.9 49.95 49.05 49.0 50.05 44.85 45.9" fill="#66ccff" fill-rule="evenodd" stroke="none"/>
    <path d="M10.55 44.9 L11.5 45.9 7.35 50.05 6.35 49.05 10.55 44.9" fill="#66ccff" fill-rule="evenodd" stroke="none"/>
    <path d="M49.95 7.4 L45.8 11.55 44.85 10.55 49.0 6.4 49.95 7.4" fill="#66ccff" fill-rule="evenodd" stroke="none"/>
    <path d="M10.55 11.55 L6.35 7.4 7.35 6.4 11.5 10.55 10.55 11.55" fill="#66ccff" fill-rule="evenodd" stroke="none"/>
    <path d="M47.4 9.1 L47.4 22.8 46.4 25.55 46.4 30.35 47.4 33.05 47.4 47.45 33.1 47.45 30.4 46.45 25.5 46.45 22.85 47.45 9.05 47.45 9.05 33.0 10.05 30.25 10.05 25.5 9.05 22.75 9.05 9.1 22.85 9.1 25.5 10.1 30.4 10.1 33.1 9.1 47.4 9.1" fill="#161616" fill-rule="evenodd" stroke="none"/>
    <path d="M47.4 9.1 L47.4 22.8 46.4 25.55 46.4 30.35 47.4 33.05 47.4 47.45 33.1 47.45 30.4 46.45 25.5 46.45 22.85 47.45 9.05 47.45 9.05 33.0 10.05 30.25 10.05 25.5 9.05 22.75 9.05 9.1 22.85 9.1 25.5 10.1 30.4 10.1 33.1 9.1 47.4 9.1 Z" fill="none" stroke="#0c0c0c" stroke-linecap="butt" stroke-linejoin="miter-clip" stroke-miterlimit="4.0" stroke-width="1.0"/>
  </g>
</svg>
