<?xml version="1.0" encoding="UTF-8" standalone="no"?>
<svg xmlns:ffdec="https://www.free-decompiler.com/flash" xmlns:xlink="http://www.w3.org/1999/xlink" ffdec:objectType="shape" height="28.55px" width="37.55px" xmlns="http://www.w3.org/2000/svg">
  <g transform="matrix(1.0, 0.0, 0.0, 1.0, 0.0, 0.0)">
    <path d="M28.0 0.65 L28.0 4.95 Q28.0 5.6 27.35 5.6 L25.5 5.6 25.5 8.05 27.35 8.05 Q28.0 8.05 28.0 8.7 L28.0 13.05 Q28.0 13.7 27.35 13.7 L10.25 13.7 Q9.55 13.7 9.55 13.05 L9.55 8.7 Q9.55 8.05 10.25 8.05 L12.05 8.05 12.05 5.6 10.25 5.6 Q9.55 5.6 9.55 4.95 L9.55 0.65 Q9.55 0.0 10.25 0.0 L27.35 0.0 Q28.0 0.0 28.0 0.65 M21.6 20.45 L19.8 20.45 Q19.15 20.45 19.15 19.8 L19.15 15.5 Q19.15 14.85 19.8 14.85 L36.9 14.85 Q37.55 14.85 37.55 15.5 L37.55 19.8 Q37.55 20.45 36.9 20.45 L35.1 20.45 35.1 22.9 36.9 22.9 Q37.55 22.9 37.55 23.55 L37.55 27.9 Q37.55 28.55 36.9 28.55 L19.8 28.55 Q19.15 28.55 19.15 27.9 L19.15 23.55 Q19.15 22.9 19.8 22.9 L21.6 22.9 21.6 20.45 M0.65 14.85 L17.75 14.85 Q18.4 14.85 18.4 15.5 L18.4 19.8 Q18.4 20.45 17.75 20.45 L15.95 20.45 15.95 22.9 17.75 22.9 Q18.4 22.9 18.4 23.55 L18.4 27.9 Q18.4 28.55 17.75 28.55 L0.65 28.55 Q0.0 28.55 0.0 27.9 L0.0 23.55 Q0.0 22.9 0.65 22.9 L2.45 22.9 2.45 20.45 0.65 20.45 Q0.0 20.45 0.0 19.8 L0.0 15.5 Q0.0 14.85 0.65 14.85" fill="#000000" fill-rule="evenodd" stroke="none"/>
  </g>
</svg>
