<?xml version="1.0" encoding="UTF-8" standalone="no"?>
<svg xmlns:ffdec="https://www.free-decompiler.com/flash" xmlns:xlink="http://www.w3.org/1999/xlink" ffdec:objectType="shape" height="12.45px" width="16.4px" xmlns="http://www.w3.org/2000/svg">
  <g transform="matrix(1.0, 0.0, 0.0, 1.0, -2.05, -3.8)">
    <path d="M14.25 7.6 L14.25 9.5 Q14.25 9.75 13.95 9.75 L6.5 9.75 6.2 9.5 6.2 7.6 6.5 7.35 7.3 7.35 7.3 6.25 6.5 6.25 6.2 6.0 6.2 4.1 Q6.2 3.8 6.5 3.8 L13.95 3.8 14.25 4.1 14.25 6.0 Q14.25 6.25 13.95 6.25 L13.2 6.25 13.2 7.35 13.95 7.35 Q14.25 7.35 14.25 7.6 M9.0 12.75 L9.0 13.8 9.8 13.8 10.05 14.1 10.05 15.95 9.8 16.25 2.3 16.25 2.05 15.95 2.05 14.1 Q2.05 13.8 2.3 13.8 L3.15 13.8 3.15 12.75 2.3 12.75 2.05 12.45 2.05 10.6 Q2.05 10.3 2.3 10.3 L9.8 10.3 10.05 10.6 10.05 12.45 9.8 12.75 9.0 12.75 M10.7 10.3 L18.15 10.3 18.45 10.6 18.45 12.45 18.15 12.75 17.35 12.75 17.35 13.8 18.15 13.8 18.45 14.1 18.45 15.95 18.15 16.25 10.7 16.25 Q10.4 16.25 10.4 15.95 L10.4 14.1 Q10.4 13.8 10.7 13.8 L11.5 13.8 11.5 12.75 10.7 12.75 Q10.4 12.75 10.4 12.45 L10.4 10.6 Q10.4 10.3 10.7 10.3" fill="#130e45" fill-rule="evenodd" stroke="none"/>
    <path d="M12.9 8.6 L7.55 8.6 7.55 5.0 12.9 5.0 12.9 8.6" fill="#253d52" fill-rule="evenodd" stroke="none"/>
    <path d="M12.65 6.0 L12.65 5.3 11.35 5.3 10.25 5.95 9.1 5.3 7.8 5.3 7.8 6.0 6.5 6.0 6.5 4.1 13.95 4.1 13.95 6.0 12.65 6.0" fill="url(#gradient0)" fill-rule="evenodd" stroke="none"/>
    <path d="M13.8 4.25 L13.8 5.8 12.85 5.8 12.85 5.15 7.6 5.15 7.6 5.8 6.7 5.8 6.7 4.25 13.8 4.25" fill="url(#gradient1)" fill-rule="evenodd" stroke="none"/>
    <path d="M9.2 5.15 L10.25 4.35 10.25 5.75 9.2 5.15" fill="#000000" fill-rule="evenodd" stroke="none"/>
    <path d="M8.95 5.15 L10.1 4.25 10.35 4.25 11.55 5.15 8.95 5.15" fill="#777d8a" fill-rule="evenodd" stroke="none"/>
    <path d="M11.3 5.15 L10.25 5.75 10.25 4.35 11.3 5.15" fill="url(#gradient2)" fill-rule="evenodd" stroke="none"/>
    <path d="M10.25 5.75 L9.2 5.15 10.25 4.35 10.25 5.75" fill="url(#gradient3)" fill-rule="evenodd" stroke="none"/>
    <path d="M12.65 7.6 L13.95 7.6 13.95 9.5 6.5 9.5 6.5 7.6 7.8 7.6 7.8 8.3 9.1 8.3 10.25 7.65 11.35 8.3 12.65 8.3 12.65 7.6" fill="url(#gradient4)" fill-rule="evenodd" stroke="none"/>
    <path d="M13.8 9.3 L6.7 9.3 6.7 7.75 7.6 7.75 7.6 8.45 12.85 8.45 12.85 7.75 13.8 7.75 13.8 9.3" fill="url(#gradient5)" fill-rule="evenodd" stroke="none"/>
    <path d="M9.2 8.45 L10.25 7.85 10.25 9.2 9.2 8.45" fill="#000000" fill-rule="evenodd" stroke="none"/>
    <path d="M8.95 8.45 L11.55 8.45 10.35 9.3 10.1 9.3 8.95 8.45" fill="#777d8a" fill-rule="evenodd" stroke="none"/>
    <path d="M11.3 8.45 L10.25 9.2 10.25 7.85 11.3 8.45" fill="url(#gradient6)" fill-rule="evenodd" stroke="none"/>
    <path d="M10.25 7.85 L10.25 9.2 9.2 8.45 10.25 7.85" fill="url(#gradient7)" fill-rule="evenodd" stroke="none"/>
    <path d="M8.7 15.05 L3.4 15.05 3.4 11.45 8.7 11.45 8.7 15.05" fill="#253d52" fill-rule="evenodd" stroke="none"/>
    <path d="M8.5 12.45 L8.5 11.8 7.15 11.8 6.05 12.4 4.95 11.8 3.6 11.8 3.6 12.45 2.3 12.45 2.3 10.6 9.8 10.6 9.8 12.45 8.5 12.45" fill="url(#gradient8)" fill-rule="evenodd" stroke="none"/>
    <path d="M9.6 10.75 L9.6 12.3 8.65 12.3 8.65 11.6 3.45 11.6 3.45 12.3 2.5 12.3 2.5 10.75 9.6 10.75" fill="url(#gradient9)" fill-rule="evenodd" stroke="none"/>
    <path d="M5.0 11.6 L6.05 10.85 6.05 12.2 5.0 11.6" fill="#000000" fill-rule="evenodd" stroke="none"/>
    <path d="M4.75 11.6 L5.9 10.75 6.2 10.75 7.4 11.6 4.75 11.6" fill="#777d8a" fill-rule="evenodd" stroke="none"/>
    <path d="M7.1 11.6 L6.05 12.2 6.05 10.85 7.1 11.6" fill="url(#gradient10)" fill-rule="evenodd" stroke="none"/>
    <path d="M6.05 12.2 L5.0 11.6 6.05 10.85 6.05 12.2" fill="url(#gradient11)" fill-rule="evenodd" stroke="none"/>
    <path d="M8.5 14.1 L9.8 14.1 9.8 15.95 2.3 15.95 2.3 14.1 3.6 14.1 3.6 14.75 4.95 14.75 6.05 14.15 7.15 14.75 8.5 14.75 8.5 14.1" fill="url(#gradient12)" fill-rule="evenodd" stroke="none"/>
    <path d="M9.6 15.8 L2.5 15.8 2.5 14.25 3.45 14.25 3.45 14.9 8.65 14.9 8.65 14.25 9.6 14.25 9.6 15.8" fill="url(#gradient13)" fill-rule="evenodd" stroke="none"/>
    <path d="M5.0 14.9 L6.05 14.35 6.05 15.7 5.0 14.9" fill="#000000" fill-rule="evenodd" stroke="none"/>
    <path d="M4.75 14.9 L7.4 14.9 6.2 15.8 5.9 15.8 4.75 14.9" fill="#777d8a" fill-rule="evenodd" stroke="none"/>
    <path d="M7.1 14.9 L6.05 15.7 6.05 14.35 7.1 14.9" fill="url(#gradient14)" fill-rule="evenodd" stroke="none"/>
    <path d="M6.05 14.35 L6.05 15.7 5.0 14.9 6.05 14.35" fill="url(#gradient15)" fill-rule="evenodd" stroke="none"/>
    <path d="M17.05 11.65 L17.05 14.85 11.75 14.85 11.75 11.65 17.05 11.65" fill="#253d52" fill-rule="evenodd" stroke="none"/>
    <path d="M16.5 12.15 L16.5 14.35 12.3 14.35 12.3 12.15 16.5 12.15" fill="url(#gradient16)" fill-rule="evenodd" stroke="none"/>
    <path d="M12.3 12.15 L16.5 12.15 16.5 12.4 12.55 12.4 12.55 14.35 12.3 14.35 12.3 12.15" fill="url(#gradient17)" fill-rule="evenodd" stroke="none"/>
    <path d="M14.4 12.4 L13.3 11.8 12.0 11.8 12.0 12.45 10.7 12.45 10.7 10.6 18.15 10.6 18.15 12.45 16.85 12.45 16.85 11.8 15.55 11.8 14.4 12.4" fill="url(#gradient18)" fill-rule="evenodd" stroke="none"/>
    <path d="M10.85 10.75 L17.95 10.75 17.95 12.3 17.0 12.3 17.0 11.6 11.8 11.6 11.8 12.3 10.85 12.3 10.85 10.75" fill="url(#gradient19)" fill-rule="evenodd" stroke="none"/>
    <path d="M13.35 11.6 L14.4 10.85 14.4 12.2 13.35 11.6" fill="#000000" fill-rule="evenodd" stroke="none"/>
    <path d="M13.1 11.6 L14.25 10.75 14.55 10.75 15.75 11.6 13.1 11.6" fill="#777d8a" fill-rule="evenodd" stroke="none"/>
    <path d="M15.45 11.6 L14.4 12.2 14.4 10.85 15.45 11.6" fill="url(#gradient20)" fill-rule="evenodd" stroke="none"/>
    <path d="M14.4 12.2 L13.35 11.6 14.4 10.85 14.4 12.2" fill="url(#gradient21)" fill-rule="evenodd" stroke="none"/>
    <path d="M16.85 14.1 L18.15 14.1 18.15 15.95 10.7 15.95 10.7 14.1 12.0 14.1 12.0 14.75 13.3 14.75 14.4 14.15 15.55 14.75 16.85 14.75 16.85 14.1" fill="url(#gradient22)" fill-rule="evenodd" stroke="none"/>
    <path d="M10.85 15.8 L10.85 14.25 11.8 14.25 11.8 14.9 17.0 14.9 17.0 14.25 17.95 14.25 17.95 15.8 10.85 15.8" fill="url(#gradient23)" fill-rule="evenodd" stroke="none"/>
    <path d="M13.35 14.9 L14.4 14.35 14.4 15.7 13.35 14.9" fill="#000000" fill-rule="evenodd" stroke="none"/>
    <path d="M13.1 14.9 L15.75 14.9 14.55 15.8 14.25 15.8 13.1 14.9" fill="#777d8a" fill-rule="evenodd" stroke="none"/>
    <path d="M15.45 14.9 L14.4 15.7 14.4 14.35 15.45 14.9" fill="url(#gradient24)" fill-rule="evenodd" stroke="none"/>
    <path d="M14.4 14.35 L14.4 15.7 13.35 14.9 14.4 14.35" fill="url(#gradient25)" fill-rule="evenodd" stroke="none"/>
  </g>
  <defs>
    <linearGradient gradientTransform="matrix(0.0, -6.0E-4, -6.0E-4, 0.0, 10.25, 4.65)" gradientUnits="userSpaceOnUse" id="gradient0" spreadMethod="pad" x1="-819.2" x2="819.2">
      <stop offset="0.0" stop-color="#777d8a"/>
      <stop offset="1.0" stop-color="#ebebeb"/>
    </linearGradient>
    <linearGradient gradientTransform="matrix(0.0, 9.0E-4, 9.0E-4, 0.0, 10.25, 5.05)" gradientUnits="userSpaceOnUse" id="gradient1" spreadMethod="pad" x1="-819.2" x2="819.2">
      <stop offset="0.0" stop-color="#b5bcc9"/>
      <stop offset="1.0" stop-color="#ffffff"/>
    </linearGradient>
    <linearGradient gradientTransform="matrix(6.0E-4, 0.0, 0.0, -6.0E-4, 10.75, 5.05)" gradientUnits="userSpaceOnUse" id="gradient2" spreadMethod="pad" x1="-819.2" x2="819.2">
      <stop offset="0.0" stop-color="#777d8a"/>
      <stop offset="1.0" stop-color="#ebebeb"/>
    </linearGradient>
    <linearGradient gradientTransform="matrix(6.0E-4, 0.0, 0.0, -6.0E-4, 9.7, 5.05)" gradientUnits="userSpaceOnUse" id="gradient3" spreadMethod="pad" x1="-819.2" x2="819.2">
      <stop offset="0.0" stop-color="#777d8a"/>
      <stop offset="1.0" stop-color="#ebebeb"/>
    </linearGradient>
    <linearGradient gradientTransform="matrix(0.0, 6.0E-4, -6.0E-4, 0.0, 10.25, 8.15)" gradientUnits="userSpaceOnUse" id="gradient4" spreadMethod="pad" x1="-819.2" x2="819.2">
      <stop offset="0.0" stop-color="#777d8a"/>
      <stop offset="1.0" stop-color="#ebebeb"/>
    </linearGradient>
    <linearGradient gradientTransform="matrix(0.0, -9.0E-4, 9.0E-4, 0.0, 10.25, 8.55)" gradientUnits="userSpaceOnUse" id="gradient5" spreadMethod="pad" x1="-819.2" x2="819.2">
      <stop offset="0.0" stop-color="#b5bcc9"/>
      <stop offset="1.0" stop-color="#ffffff"/>
    </linearGradient>
    <linearGradient gradientTransform="matrix(6.0E-4, 0.0, 0.0, 6.0E-4, 10.75, 8.55)" gradientUnits="userSpaceOnUse" id="gradient6" spreadMethod="pad" x1="-819.2" x2="819.2">
      <stop offset="0.0" stop-color="#777d8a"/>
      <stop offset="1.0" stop-color="#ebebeb"/>
    </linearGradient>
    <linearGradient gradientTransform="matrix(6.0E-4, 0.0, 0.0, 6.0E-4, 9.7, 8.55)" gradientUnits="userSpaceOnUse" id="gradient7" spreadMethod="pad" x1="-819.2" x2="819.2">
      <stop offset="0.0" stop-color="#777d8a"/>
      <stop offset="1.0" stop-color="#ebebeb"/>
    </linearGradient>
    <linearGradient gradientTransform="matrix(0.0, -6.0E-4, -6.0E-4, 0.0, 6.05, 11.1)" gradientUnits="userSpaceOnUse" id="gradient8" spreadMethod="pad" x1="-819.2" x2="819.2">
      <stop offset="0.0" stop-color="#777d8a"/>
      <stop offset="1.0" stop-color="#ebebeb"/>
    </linearGradient>
    <linearGradient gradientTransform="matrix(0.0, 9.0E-4, 9.0E-4, 0.0, 6.05, 11.5)" gradientUnits="userSpaceOnUse" id="gradient9" spreadMethod="pad" x1="-819.2" x2="819.2">
      <stop offset="0.0" stop-color="#b5bcc9"/>
      <stop offset="1.0" stop-color="#ffffff"/>
    </linearGradient>
    <linearGradient gradientTransform="matrix(6.0E-4, 0.0, 0.0, -6.0E-4, 6.55, 11.55)" gradientUnits="userSpaceOnUse" id="gradient10" spreadMethod="pad" x1="-819.2" x2="819.2">
      <stop offset="0.0" stop-color="#777d8a"/>
      <stop offset="1.0" stop-color="#ebebeb"/>
    </linearGradient>
    <linearGradient gradientTransform="matrix(6.0E-4, 0.0, 0.0, -6.0E-4, 5.55, 11.55)" gradientUnits="userSpaceOnUse" id="gradient11" spreadMethod="pad" x1="-819.2" x2="819.2">
      <stop offset="0.0" stop-color="#777d8a"/>
      <stop offset="1.0" stop-color="#ebebeb"/>
    </linearGradient>
    <linearGradient gradientTransform="matrix(0.0, 6.0E-4, -6.0E-4, 0.0, 6.05, 14.6)" gradientUnits="userSpaceOnUse" id="gradient12" spreadMethod="pad" x1="-819.2" x2="819.2">
      <stop offset="0.0" stop-color="#777d8a"/>
      <stop offset="1.0" stop-color="#ebebeb"/>
    </linearGradient>
    <linearGradient gradientTransform="matrix(0.0, -9.0E-4, 9.0E-4, 0.0, 6.05, 15.0)" gradientUnits="userSpaceOnUse" id="gradient13" spreadMethod="pad" x1="-819.2" x2="819.2">
      <stop offset="0.0" stop-color="#b5bcc9"/>
      <stop offset="1.0" stop-color="#ffffff"/>
    </linearGradient>
    <linearGradient gradientTransform="matrix(6.0E-4, 0.0, 0.0, 6.0E-4, 6.55, 15.0)" gradientUnits="userSpaceOnUse" id="gradient14" spreadMethod="pad" x1="-819.2" x2="819.2">
      <stop offset="0.0" stop-color="#777d8a"/>
      <stop offset="1.0" stop-color="#ebebeb"/>
    </linearGradient>
    <linearGradient gradientTransform="matrix(6.0E-4, 0.0, 0.0, 6.0E-4, 5.55, 15.0)" gradientUnits="userSpaceOnUse" id="gradient15" spreadMethod="pad" x1="-819.2" x2="819.2">
      <stop offset="0.0" stop-color="#777d8a"/>
      <stop offset="1.0" stop-color="#ebebeb"/>
    </linearGradient>
    <linearGradient gradientTransform="matrix(0.0, -0.0013, -0.0013, 0.0, 14.4, 13.25)" gradientUnits="userSpaceOnUse" id="gradient16" spreadMethod="pad" x1="-819.2" x2="819.2">
      <stop offset="0.0" stop-color="#70e9ff"/>
      <stop offset="1.0" stop-color="#1e96fd"/>
    </linearGradient>
    <linearGradient gradientTransform="matrix(-0.0021, 2.0E-4, 2.0E-4, 0.0021, 14.5, 13.0)" gradientUnits="userSpaceOnUse" id="gradient17" spreadMethod="pad" x1="-819.2" x2="819.2">
      <stop offset="0.0" stop-color="#bff5ff"/>
      <stop offset="1.0" stop-color="#e0ffff"/>
    </linearGradient>
    <linearGradient gradientTransform="matrix(0.0, -6.0E-4, -6.0E-4, 0.0, 14.4, 11.1)" gradientUnits="userSpaceOnUse" id="gradient18" spreadMethod="pad" x1="-819.2" x2="819.2">
      <stop offset="0.0" stop-color="#777d8a"/>
      <stop offset="1.0" stop-color="#ebebeb"/>
    </linearGradient>
    <linearGradient gradientTransform="matrix(0.0, 9.0E-4, 9.0E-4, 0.0, 14.4, 11.5)" gradientUnits="userSpaceOnUse" id="gradient19" spreadMethod="pad" x1="-819.2" x2="819.2">
      <stop offset="0.0" stop-color="#b5bcc9"/>
      <stop offset="1.0" stop-color="#ffffff"/>
    </linearGradient>
    <linearGradient gradientTransform="matrix(6.0E-4, 0.0, 0.0, -6.0E-4, 14.95, 11.55)" gradientUnits="userSpaceOnUse" id="gradient20" spreadMethod="pad" x1="-819.2" x2="819.2">
      <stop offset="0.0" stop-color="#777d8a"/>
      <stop offset="1.0" stop-color="#ebebeb"/>
    </linearGradient>
    <linearGradient gradientTransform="matrix(6.0E-4, 0.0, 0.0, -6.0E-4, 13.9, 11.55)" gradientUnits="userSpaceOnUse" id="gradient21" spreadMethod="pad" x1="-819.2" x2="819.2">
      <stop offset="0.0" stop-color="#777d8a"/>
      <stop offset="1.0" stop-color="#ebebeb"/>
    </linearGradient>
    <linearGradient gradientTransform="matrix(0.0, 6.0E-4, -6.0E-4, 0.0, 14.4, 14.6)" gradientUnits="userSpaceOnUse" id="gradient22" spreadMethod="pad" x1="-819.2" x2="819.2">
      <stop offset="0.0" stop-color="#777d8a"/>
      <stop offset="1.0" stop-color="#ebebeb"/>
    </linearGradient>
    <linearGradient gradientTransform="matrix(0.0, -9.0E-4, 9.0E-4, 0.0, 14.4, 15.0)" gradientUnits="userSpaceOnUse" id="gradient23" spreadMethod="pad" x1="-819.2" x2="819.2">
      <stop offset="0.0" stop-color="#b5bcc9"/>
      <stop offset="1.0" stop-color="#ffffff"/>
    </linearGradient>
    <linearGradient gradientTransform="matrix(6.0E-4, 0.0, 0.0, 6.0E-4, 14.95, 15.0)" gradientUnits="userSpaceOnUse" id="gradient24" spreadMethod="pad" x1="-819.2" x2="819.2">
      <stop offset="0.0" stop-color="#777d8a"/>
      <stop offset="1.0" stop-color="#ebebeb"/>
    </linearGradient>
    <linearGradient gradientTransform="matrix(6.0E-4, 0.0, 0.0, 6.0E-4, 13.9, 15.0)" gradientUnits="userSpaceOnUse" id="gradient25" spreadMethod="pad" x1="-819.2" x2="819.2">
      <stop offset="0.0" stop-color="#777d8a"/>
      <stop offset="1.0" stop-color="#ebebeb"/>
    </linearGradient>
  </defs>
</svg>
