<?xml version="1.0" encoding="UTF-8" standalone="no"?>
<svg xmlns:ffdec="https://www.free-decompiler.com/flash" xmlns:xlink="http://www.w3.org/1999/xlink" ffdec:objectType="shape" height="32.15px" width="32.15px" xmlns="http://www.w3.org/2000/svg">
  <g transform="matrix(1.0, 0.0, 0.0, 1.0, 0.0, 0.0)">
    <path d="M19.95 19.1 L17.7 19.25 Q14.65 20.7 10.15 21.6 10.9 23.5 12.1 24.65 13.3 25.8 14.65 25.8 16.45 25.8 17.95 23.9 19.4 22.05 19.95 19.1 M14.65 6.35 Q12.9 6.35 11.4 8.25 9.95 10.1 9.4 13.0 L9.45 13.05 13.3 12.75 13.65 12.75 Q16.25 12.85 18.1 13.95 L20.1 14.0 Q19.7 10.75 18.15 8.55 16.6 6.35 14.65 6.35 M31.9 15.65 Q32.25 15.8 32.15 16.25 L31.8 16.8 Q28.75 18.2 23.1 18.8 22.5 24.5 19.75 28.3 17.0 32.15 13.35 32.15 10.2 32.15 7.6 29.2 5.1 26.3 4.05 21.6 L1.0 20.9 Q0.5 20.8 0.5 20.3 0.45 19.9 0.9 19.6 L1.95 19.2 1.7 19.2 Q1.3 19.2 1.1 18.85 L0.1 16.9 Q-0.05 16.6 0.1 16.3 0.15 16.05 0.5 15.95 L2.3 15.45 0.9 10.75 0.95 10.15 Q1.2 9.9 1.5 9.9 L4.05 9.8 4.2 9.85 Q5.35 5.45 7.8 2.75 10.3 0.0 13.35 0.0 17.1 0.0 19.95 4.1 22.75 8.15 23.2 14.15 30.55 14.6 31.9 15.65" fill="#000000" fill-rule="evenodd" stroke="none"/>
  </g>
</svg>
