<?xml version="1.0" encoding="UTF-8" standalone="no"?>
<svg xmlns:ffdec="https://www.free-decompiler.com/flash" xmlns:xlink="http://www.w3.org/1999/xlink" ffdec:objectType="shape" height="17.1px" width="17.05px" xmlns="http://www.w3.org/2000/svg">
  <g transform="matrix(1.0, 0.0, 0.0, 1.0, -1.4, -1.55)">
    <path d="M7.1 6.45 Q6.2 8.0 6.2 10.1 6.2 12.2 7.1 13.75 7.95 15.25 9.2 15.25 10.4 15.25 11.25 13.75 12.15 12.2 12.15 10.1 12.15 8.0 11.25 6.45 10.4 4.95 9.2 4.95 7.95 4.95 7.1 6.45 M12.2 4.1 Q13.75 6.55 13.75 10.1 13.75 13.65 12.2 16.15 10.65 18.65 8.5 18.65 6.3 18.65 4.75 16.15 3.2 13.65 3.2 10.1 3.2 6.55 4.75 4.1 6.3 1.55 8.5 1.55 10.65 1.55 12.2 4.1" fill="#130e45" fill-rule="evenodd" stroke="none"/>
    <path d="M11.95 4.3 Q13.4 6.75 13.4 10.1 13.4 13.5 11.95 15.9 10.5 18.3 8.5 18.3 6.45 18.3 4.95 15.9 3.55 13.5 3.55 10.1 3.55 6.7 4.95 4.3 6.45 1.9 8.5 1.9 10.5 1.9 11.95 4.3 M6.85 6.2 Q5.85 7.8 5.85 10.1 5.85 12.4 6.85 14.0 7.8 15.6 9.2 15.6 10.6 15.6 11.55 14.0 12.5 12.4 12.5 10.1 12.5 7.8 11.55 6.2 10.6 4.6 9.2 4.6 7.8 4.6 6.85 6.2" fill="url(#gradient0)" fill-rule="evenodd" stroke="none"/>
    <path d="M8.45 8.35 L8.65 8.35 Q10.0 8.4 11.0 9.0 L16.9 9.45 18.35 9.85 18.45 10.2 18.3 10.5 Q16.15 11.5 11.35 11.75 L10.8 11.8 Q8.55 12.85 4.95 13.35 L4.9 13.4 4.85 13.35 1.9 12.65 1.65 12.35 1.9 12.0 2.4 11.75 2.3 11.75 1.95 11.55 1.45 10.55 1.45 10.2 1.65 10.05 2.65 9.75 1.85 7.25 1.9 6.95 2.15 6.8 3.55 6.8 3.75 6.85 6.4 8.5 8.45 8.35" fill="#130e45" fill-rule="evenodd" stroke="none"/>
    <path d="M5.65 8.95 L8.65 8.7 Q10.1 8.75 11.15 9.5 L11.9 10.3 4.15 10.05 3.75 9.15 5.65 8.95" fill="#00215c" fill-rule="evenodd" stroke="none"/>
    <path d="M18.15 10.15 Q15.75 11.3 9.7 11.45 L2.3 11.4 1.75 10.4 3.1 10.0 2.2 7.15 3.55 7.15 7.1 9.35 16.25 9.7 18.15 10.15" fill="url(#gradient1)" fill-rule="evenodd" stroke="none"/>
    <path d="M7.1 9.35 L16.25 9.7 18.15 10.15 17.3 10.5 14.8 10.0 6.35 9.75 2.8 7.5 2.3 7.55 2.2 7.15 3.55 7.15 7.1 9.35" fill="url(#gradient2)" fill-rule="evenodd" stroke="none"/>
    <path d="M11.95 10.7 L11.35 11.4 6.4 11.5 3.7 11.45 4.5 10.6 4.8 10.15 11.95 10.7" fill="#0542a4" fill-rule="evenodd" stroke="none"/>
    <path d="M10.35 11.6 Q8.2 12.55 4.9 13.0 L2.0 12.3 Q4.9 11.25 5.6 10.5 L11.75 10.8 10.35 11.6" fill="url(#gradient3)" fill-rule="evenodd" stroke="none"/>
    <path d="M11.05 10.75 L11.75 10.8 10.35 11.6 Q8.2 12.55 4.9 13.0 L2.0 12.3 2.55 12.1 4.75 12.6 Q8.85 12.0 11.05 10.75" fill="url(#gradient4)" fill-rule="evenodd" stroke="none"/>
    <path d="M8.35 15.45 Q8.05 16.85 8.45 18.3 6.4 18.25 4.95 15.9 3.55 13.5 3.55 10.1 3.55 6.95 4.85 4.6 6.1 2.25 7.95 1.95 L7.9 2.6 Q7.9 3.75 8.2 4.85 7.15 5.4 6.5 6.8 5.85 8.3 5.85 10.1 5.85 12.0 6.55 13.5 7.25 14.95 8.35 15.45" fill="url(#gradient5)" fill-rule="evenodd" stroke="none"/>
  </g>
  <defs>
    <linearGradient gradientTransform="matrix(0.0023, 0.0, 0.0, -0.0023, 11.2, 10.1)" gradientUnits="userSpaceOnUse" id="gradient0" spreadMethod="pad" x1="-819.2" x2="819.2">
      <stop offset="0.0" stop-color="#f0ff47"/>
      <stop offset="1.0" stop-color="#f0c52b"/>
    </linearGradient>
    <linearGradient gradientTransform="matrix(-0.0089, 0.0, 0.0, 0.0089, 9.8, 9.3)" gradientUnits="userSpaceOnUse" id="gradient1" spreadMethod="pad" x1="-819.2" x2="819.2">
      <stop offset="0.0" stop-color="#70e9ff"/>
      <stop offset="1.0" stop-color="#1e96fd"/>
    </linearGradient>
    <linearGradient gradientTransform="matrix(0.004, 0.0014, 0.0014, -0.004, 6.65, 8.05)" gradientUnits="userSpaceOnUse" id="gradient2" spreadMethod="pad" x1="-819.2" x2="819.2">
      <stop offset="0.0" stop-color="#70e9ff"/>
      <stop offset="1.0" stop-color="#bdffff"/>
    </linearGradient>
    <linearGradient gradientTransform="matrix(0.0042, -4.0E-4, -4.0E-4, -0.0042, 7.2, 11.55)" gradientUnits="userSpaceOnUse" id="gradient3" spreadMethod="pad" x1="-819.2" x2="819.2">
      <stop offset="0.0" stop-color="#70e9ff"/>
      <stop offset="1.0" stop-color="#1e96fd"/>
    </linearGradient>
    <linearGradient gradientTransform="matrix(0.0035, -2.0E-4, -2.0E-4, -0.0035, 5.35, 12.0)" gradientUnits="userSpaceOnUse" id="gradient4" spreadMethod="pad" x1="-819.2" x2="819.2">
      <stop offset="0.0" stop-color="#70e9ff"/>
      <stop offset="1.0" stop-color="#bdffff"/>
    </linearGradient>
    <linearGradient gradientTransform="matrix(-0.0023, 0.0, 0.0, 0.0023, 5.45, 10.1)" gradientUnits="userSpaceOnUse" id="gradient5" spreadMethod="pad" x1="-819.2" x2="819.2">
      <stop offset="0.0" stop-color="#f0ff47"/>
      <stop offset="1.0" stop-color="#f0c52b"/>
    </linearGradient>
  </defs>
</svg>
