<?xml version="1.0" encoding="UTF-8" standalone="no"?>
<svg xmlns:ffdec="https://www.free-decompiler.com/flash" xmlns:xlink="http://www.w3.org/1999/xlink" ffdec:objectType="shape" height="20.0px" width="20.0px" xmlns="http://www.w3.org/2000/svg">
  <g transform="matrix(1.0, 0.0, 0.0, 1.0, 0.0, 0.0)">
    <path d="M19.55 16.35 Q19.55 17.7 18.6 18.6 17.65 19.55 16.35 19.55 L3.6 19.55 Q2.3 19.55 1.35 18.6 0.45 17.7 0.45 16.35 L0.45 3.65 Q0.45 2.35 1.35 1.4 2.3 0.45 3.6 0.45 L16.35 0.45 Q17.65 0.45 18.6 1.4 19.55 2.35 19.55 3.65 L19.55 16.35" fill="#021c63" fill-rule="evenodd" stroke="none"/>
    <path d="M3.6 0.9 Q2.5 0.9 1.7 1.75 0.9 2.5 0.9 3.65 L0.9 16.35 Q0.9 17.5 1.7 18.3 2.5 19.1 3.6 19.1 L16.35 19.1 Q17.5 19.1 18.25 18.3 19.1 17.5 19.1 16.35 L19.1 3.65 Q19.1 2.5 18.25 1.75 17.5 0.9 16.35 0.9 L3.6 0.9 M0.0 16.35 L0.0 3.65 Q0.0 2.15 1.1 1.1 2.1 0.0 3.6 0.0 L16.35 0.0 Q17.85 0.0 18.95 1.1 20.0 2.15 20.0 3.65 L20.0 16.35 Q20.0 17.85 18.95 18.95 17.85 20.0 16.35 20.0 L3.6 20.0 Q2.1 20.0 1.1 18.95 0.0 17.85 0.0 16.35" fill="#0074ff" fill-rule="evenodd" stroke="none"/>
    <path d="M4.2 3.6 Q6.75 1.05 10.25 1.05 13.75 1.05 16.3 3.6 18.8 6.1 18.8 9.6 18.8 13.15 16.3 15.65 13.8 18.15 10.25 18.15 6.7 18.15 4.2 15.65 1.7 13.15 1.7 9.6 1.7 6.1 4.2 3.6" fill="#20283b" fill-rule="evenodd" stroke="none"/>
    <path d="M5.45 4.85 Q7.45 2.85 10.25 2.85 13.05 2.85 15.05 4.85 17.0 6.8 17.0 9.6 17.0 12.45 15.05 14.4 13.05 16.4 10.25 16.4 7.45 16.4 5.45 14.4 3.45 12.45 3.45 9.6 3.45 6.8 5.45 4.85" fill="#2f5069" fill-rule="evenodd" stroke="none"/>
    <path d="M15.6 9.1 Q15.3 7.15 13.8 5.8 12.25 4.5 10.25 4.5 8.0 4.5 6.4 6.1 4.8 7.7 4.8 9.95 4.8 12.2 6.4 13.8 8.0 15.4 10.25 15.4 12.4 15.4 14.0 13.9 15.55 12.4 15.65 10.25 L11.5 10.25 Q11.15 11.1 10.25 11.1 9.7 11.1 9.3 10.7 8.9 10.3 8.9 9.75 8.9 8.9 9.7 8.5 L10.15 6.15 11.85 6.45 11.4 9.05 11.45 9.1 15.6 9.1 M5.2 15.0 Q3.15 12.9 3.15 9.95 3.15 7.0 5.2 4.9 7.3 2.8 10.25 2.8 13.2 2.8 15.25 4.9 17.35 7.0 17.35 9.95 17.35 12.9 15.25 15.0 13.2 17.1 10.25 17.1 7.3 17.1 5.2 15.0" fill="#162530" fill-rule="evenodd" stroke="none"/>
    <path d="M4.75 4.1 Q7.0 1.8 10.25 1.8 13.45 1.8 15.75 4.1 18.0 6.4 18.0 9.6 18.0 12.85 15.75 15.15 13.45 17.4 10.25 17.4 7.0 17.4 4.75 15.15 2.45 12.85 2.45 9.6 2.45 6.4 4.75 4.1 M14.45 13.85 Q16.2 12.1 16.2 9.6 16.2 7.15 14.45 5.4 12.7 3.65 10.25 3.65 7.8 3.65 6.05 5.4 4.3 7.15 4.3 9.6 4.3 12.1 6.05 13.85 7.8 15.6 10.25 15.6 12.7 15.6 14.45 13.85" fill="url(#gradient0)" fill-rule="evenodd" stroke="none"/>
    <path d="M4.45 3.85 Q6.85 1.45 10.25 1.45 13.6 1.45 16.0 3.85 18.4 6.25 18.4 9.6 18.4 13.0 16.0 15.4 13.6 17.75 10.25 17.75 6.85 17.75 4.45 15.4 2.1 13.0 2.1 9.6 2.1 6.25 4.45 3.85 M5.55 14.35 Q7.5 16.3 10.25 16.3 13.05 16.3 14.95 14.35 16.9 12.4 16.9 9.6 16.9 6.85 14.95 4.9 13.05 2.95 10.25 2.95 7.5 2.95 5.55 4.9 3.6 6.85 3.6 9.6 3.6 12.4 5.55 14.35" fill="url(#gradient1)" fill-rule="evenodd" stroke="none"/>
    <path d="M11.05 9.6 L9.7 9.35 10.25 6.25 11.65 6.5 11.05 9.6" fill="url(#gradient2)" fill-rule="evenodd" stroke="none"/>
    <path d="M15.6 9.95 L10.2 9.95 10.2 9.15 15.6 9.15 15.6 9.95" fill="url(#gradient3)" fill-rule="evenodd" stroke="none"/>
    <path d="M11.4 9.6 L11.05 10.45 Q10.75 10.8 10.25 10.8 9.75 10.8 9.4 10.45 9.1 10.1 9.1 9.6 9.1 9.15 9.4 8.8 9.75 8.45 10.25 8.45 10.75 8.45 11.05 8.8 11.4 9.15 11.4 9.6" fill="url(#gradient4)" fill-rule="evenodd" stroke="none"/>
  </g>
  <defs>
    <linearGradient gradientTransform="matrix(0.0, -0.009, -0.009, 0.0, 10.25, 9.4)" gradientUnits="userSpaceOnUse" id="gradient0" spreadMethod="pad" x1="-819.2" x2="819.2">
      <stop offset="0.0" stop-color="#ffffff"/>
      <stop offset="0.23529411764705882" stop-color="#e8e8e8"/>
      <stop offset="0.35294117647058826" stop-color="#d6d7d8"/>
      <stop offset="0.5882352941176471" stop-color="#a8abaf"/>
      <stop offset="0.9176470588235294" stop-color="#5e646e"/>
    </linearGradient>
    <linearGradient gradientTransform="matrix(0.0, 0.0096, 0.0096, 0.0, 10.25, 9.55)" gradientUnits="userSpaceOnUse" id="gradient1" spreadMethod="pad" x1="-819.2" x2="819.2">
      <stop offset="0.0" stop-color="#8c9099"/>
      <stop offset="0.00392156862745098" stop-color="#8f939c"/>
      <stop offset="0.023529411764705882" stop-color="#afb2b7"/>
      <stop offset="0.047058823529411764" stop-color="#c8cacd"/>
      <stop offset="0.06666666666666667" stop-color="#dadbdc"/>
      <stop offset="0.09411764705882353" stop-color="#e5e5e5"/>
      <stop offset="0.12156862745098039" stop-color="#e8e8e8"/>
      <stop offset="0.3568627450980392" stop-color="#ebebeb"/>
      <stop offset="0.8" stop-color="#777d8a"/>
      <stop offset="1.0" stop-color="#cdd1da"/>
    </linearGradient>
    <linearGradient gradientTransform="matrix(3.0E-4, -0.0018, -0.0018, -3.0E-4, 10.8, 7.05)" gradientUnits="userSpaceOnUse" id="gradient2" spreadMethod="pad" x1="-819.2" x2="819.2">
      <stop offset="0.0" stop-color="#ffffff"/>
      <stop offset="0.23529411764705882" stop-color="#e8e8e8"/>
      <stop offset="0.35294117647058826" stop-color="#d6d7d8"/>
      <stop offset="0.5882352941176471" stop-color="#a8abaf"/>
      <stop offset="0.9176470588235294" stop-color="#5e646e"/>
    </linearGradient>
    <linearGradient gradientTransform="matrix(0.0023, 0.0, 0.0, -0.0023, 13.75, 9.55)" gradientUnits="userSpaceOnUse" id="gradient3" spreadMethod="pad" x1="-819.2" x2="819.2">
      <stop offset="0.0" stop-color="#ffffff"/>
      <stop offset="0.23529411764705882" stop-color="#e8e8e8"/>
      <stop offset="0.35294117647058826" stop-color="#d6d7d8"/>
      <stop offset="0.5882352941176471" stop-color="#a8abaf"/>
      <stop offset="0.9176470588235294" stop-color="#5e646e"/>
    </linearGradient>
    <radialGradient cx="0" cy="0" gradientTransform="matrix(0.0019, 0.0, 0.0, -0.0019, 10.25, 9.1)" gradientUnits="userSpaceOnUse" id="gradient4" r="819.2" spreadMethod="pad">
      <stop offset="0.0" stop-color="#ffffff"/>
      <stop offset="0.23529411764705882" stop-color="#e8e8e8"/>
      <stop offset="0.3333333333333333" stop-color="#d6d7d8"/>
      <stop offset="0.5294117647058824" stop-color="#a8abaf"/>
      <stop offset="0.8" stop-color="#5e646e"/>
      <stop offset="1.0" stop-color="#afbacc"/>
    </radialGradient>
  </defs>
</svg>
