<?xml version="1.0" encoding="UTF-8" standalone="no"?>
<svg xmlns:ffdec="https://www.free-decompiler.com/flash" xmlns:xlink="http://www.w3.org/1999/xlink" ffdec:objectType="shape" height="16.5px" width="15.75px" xmlns="http://www.w3.org/2000/svg">
  <g transform="matrix(1.0, 0.0, 0.0, 1.0, -2.0, -2.1)">
    <path d="M9.9 2.7 L10.0 2.7 11.65 3.35 Q11.9 2.75 12.4 2.45 13.0 2.1 13.65 2.1 14.55 2.1 15.2 2.65 15.8 3.25 15.8 4.05 L15.8 4.85 17.55 5.45 Q17.8 5.55 17.75 5.8 L17.1 14.8 16.9 15.1 10.05 18.6 9.9 18.6 9.75 18.6 2.85 15.1 2.7 14.8 2.0 5.8 Q2.0 5.55 2.25 5.45 L9.75 2.7 9.9 2.7" fill="#130e45" fill-rule="evenodd" stroke="none"/>
    <path d="M9.9 3.0 L17.4 5.8 16.75 14.8 9.9 18.3 3.0 14.8 2.35 5.8 9.9 3.0" fill="url(#gradient0)" fill-rule="evenodd" stroke="none"/>
    <path d="M9.9 18.3 L3.0 14.8 9.9 11.7 16.75 14.8 9.9 18.3" fill="url(#gradient1)" fill-rule="evenodd" stroke="none"/>
    <path d="M17.4 5.8 L16.75 14.8 9.9 11.7 9.9 3.0 17.4 5.8" fill="url(#gradient2)" fill-rule="evenodd" stroke="none"/>
    <path d="M9.9 11.7 L3.0 14.8 2.35 5.8 9.9 3.0 9.9 11.7" fill="url(#gradient3)" fill-rule="evenodd" stroke="none"/>
    <path d="M9.9 9.15 L16.6 6.35 10.3 9.9 9.9 17.9 9.5 9.95 3.2 6.35 9.9 9.15" fill="url(#gradient4)" fill-rule="evenodd" stroke="none"/>
    <path d="M15.5 4.05 L15.5 12.5 Q15.5 13.15 14.95 13.65 14.4 14.15 13.65 14.15 12.9 14.15 12.35 13.65 11.8 13.15 11.8 12.5 L11.8 4.05 Q11.8 3.35 12.35 2.9 12.9 2.4 13.65 2.4 14.4 2.4 14.95 2.9 15.5 3.4 15.5 4.05" fill="url(#gradient5)" fill-rule="evenodd" stroke="none"/>
    <path d="M15.05 4.05 L15.05 12.5 Q15.05 12.95 14.65 13.3 L13.65 13.65 Q13.05 13.65 12.7 13.3 12.3 12.95 12.3 12.5 L12.3 4.05 Q12.3 3.6 12.7 3.25 13.05 2.9 13.65 2.9 14.2 2.9 14.65 3.25 15.05 3.6 15.05 4.05" fill="#691518" fill-rule="evenodd" stroke="none"/>
    <path d="M14.55 4.05 L14.55 12.5 14.3 13.0 13.65 13.2 13.0 13.0 12.75 12.5 12.75 4.05 Q12.75 3.75 13.0 3.55 L13.65 3.35 14.3 3.55 14.55 4.05" fill="#ffffff" fill-rule="evenodd" stroke="none"/>
    <path d="M12.75 6.8 L14.55 6.8 14.55 12.5 14.3 13.0 13.65 13.2 13.0 13.0 12.75 12.5 12.75 6.8" fill="url(#gradient6)" fill-rule="evenodd" stroke="none"/>
  </g>
  <defs>
    <linearGradient gradientTransform="matrix(0.0071, 0.0054, 0.0054, -0.0071, 10.5, 10.5)" gradientUnits="userSpaceOnUse" id="gradient0" spreadMethod="pad" x1="-819.2" x2="819.2">
      <stop offset="0.0" stop-color="#4884db"/>
      <stop offset="1.0" stop-color="#324485"/>
    </linearGradient>
    <linearGradient gradientTransform="matrix(0.0054, 0.0015, 0.0015, -0.0054, 9.75, 14.95)" gradientUnits="userSpaceOnUse" id="gradient1" spreadMethod="pad" x1="-819.2" x2="819.2">
      <stop offset="0.0" stop-color="#599dff"/>
      <stop offset="1.0" stop-color="#dfeafa"/>
    </linearGradient>
    <linearGradient gradientTransform="matrix(6.0E-4, -0.0042, -0.0042, -6.0E-4, 13.4, 8.2)" gradientUnits="userSpaceOnUse" id="gradient2" spreadMethod="pad" x1="-819.2" x2="819.2">
      <stop offset="0.0" stop-color="#3277db"/>
      <stop offset="1.0" stop-color="#8cb9fa"/>
    </linearGradient>
    <linearGradient gradientTransform="matrix(-0.0011, 0.0042, -0.0042, -0.0011, 6.25, 8.05)" gradientUnits="userSpaceOnUse" id="gradient3" spreadMethod="pad" x1="-819.2" x2="819.2">
      <stop offset="0.0" stop-color="#14468f"/>
      <stop offset="1.0" stop-color="#5589d4"/>
    </linearGradient>
    <radialGradient cx="0" cy="0" gradientTransform="matrix(0.0076, 0.0, 0.0, -0.0076, 10.0, 9.6)" gradientUnits="userSpaceOnUse" id="gradient4" r="819.2" spreadMethod="pad">
      <stop offset="0.0" stop-color="#dbffff"/>
      <stop offset="1.0" stop-color="#8dffff"/>
    </radialGradient>
    <linearGradient gradientTransform="matrix(0.0, 0.0067, 0.0067, 0.0, 13.65, 8.3)" gradientUnits="userSpaceOnUse" id="gradient5" spreadMethod="pad" x1="-819.2" x2="819.2">
      <stop offset="0.0" stop-color="#8c9099"/>
      <stop offset="0.12156862745098039" stop-color="#cdd1da"/>
      <stop offset="0.3568627450980392" stop-color="#cdd1da"/>
      <stop offset="0.8" stop-color="#777d8a"/>
      <stop offset="1.0" stop-color="#cdd1da"/>
    </linearGradient>
    <linearGradient gradientTransform="matrix(0.0, -0.0039, -0.0039, 0.0, 13.65, 10.0)" gradientUnits="userSpaceOnUse" id="gradient6" spreadMethod="pad" x1="-819.2" x2="819.2">
      <stop offset="0.0" stop-color="#ed1c24"/>
      <stop offset="1.0" stop-color="#fbb03b"/>
    </linearGradient>
  </defs>
</svg>
