<?xml version="1.0" encoding="UTF-8" standalone="no"?>
<svg xmlns:ffdec="https://www.free-decompiler.com/flash" xmlns:xlink="http://www.w3.org/1999/xlink" ffdec:objectType="shape" height="14.5px" width="16.85px" xmlns="http://www.w3.org/2000/svg">
  <g transform="matrix(1.0, 0.0, 0.0, 1.0, -1.55, -2.45)">
    <path d="M4.4 2.45 L15.5 2.45 Q16.7 2.45 17.5 3.3 18.4 4.15 18.4 5.35 L18.4 14.05 Q18.4 15.25 17.5 16.1 16.7 16.95 15.5 16.95 L4.4 16.95 Q3.2 16.95 2.4 16.1 1.55 15.25 1.55 14.05 L1.55 5.35 Q1.55 4.15 2.4 3.3 3.2 2.45 4.4 2.45" fill="#20283b" fill-rule="evenodd" stroke="none"/>
    <path d="M4.4 2.8 L15.5 2.8 Q16.5 2.8 17.25 3.55 18.0 4.3 18.0 5.35 L18.0 14.05 Q18.0 15.1 17.25 15.85 16.5 16.6 15.5 16.6 L4.4 16.6 Q3.35 16.6 2.6 15.85 1.9 15.1 1.9 14.05 L1.9 5.35 Q1.9 4.3 2.6 3.55 3.35 2.8 4.4 2.8" fill="url(#gradient0)" fill-rule="evenodd" stroke="none"/>
    <path d="M4.4 3.35 L15.5 3.35 Q16.3 3.35 16.9 3.9 17.5 4.5 17.5 5.35 L17.5 14.05 Q17.5 14.9 16.9 15.5 16.3 16.1 15.5 16.1 L4.4 16.1 Q3.6 16.1 3.0 15.5 2.4 14.9 2.4 14.05 L2.4 5.35 Q2.4 4.5 3.0 3.9 3.55 3.35 4.4 3.35" fill="url(#gradient1)" fill-rule="evenodd" stroke="none"/>
    <path d="M5.95 3.8 Q6.3 3.8 6.3 4.15 L6.3 10.4 Q6.9 8.3 8.0 6.95 9.45 5.05 11.6 5.05 14.45 5.05 15.8 8.3 16.5 10.05 16.65 12.2 L16.95 12.2 Q17.3 12.2 17.3 12.55 L17.3 13.55 16.95 13.9 6.3 13.9 6.3 15.65 5.95 16.0 4.95 16.0 Q4.6 16.0 4.6 15.65 L4.6 13.9 3.1 13.9 Q2.75 13.9 2.75 13.55 L2.75 12.55 Q2.75 12.2 3.1 12.2 L4.6 12.2 4.6 4.15 Q4.6 3.8 4.95 3.8 L5.95 3.8 M11.65 6.7 L11.6 6.7 Q10.55 6.7 9.55 7.5 L10.2 7.4 Q12.15 7.4 13.05 9.6 13.5 10.8 13.6 12.2 L15.9 12.2 Q15.5 10.5 14.75 9.1 13.45 6.7 11.65 6.7 M8.0 10.3 Q7.4 11.2 7.1 12.2 L12.85 12.2 12.15 10.25 Q11.35 8.75 10.25 8.75 9.05 8.75 8.0 10.3" fill="#2e3192" fill-rule="evenodd" stroke="none"/>
    <path d="M5.9 4.0 L5.9 12.4 16.85 12.4 16.85 13.4 5.9 13.4 5.9 15.5 4.85 15.5 4.85 13.4 3.0 13.4 3.0 12.4 4.85 12.4 4.85 4.0 5.9 4.0 M7.35 9.8 Q8.3 7.6 10.1 7.6 11.95 7.55 12.7 9.85 13.15 10.95 13.15 12.1 L12.5 10.15 Q11.55 8.2 10.1 8.2 8.65 8.25 7.5 10.15 L6.65 12.0 Q6.85 10.9 7.35 9.8 M11.5 6.2 Q9.25 6.25 7.5 9.15 L6.2 12.0 7.2 8.65 Q8.75 5.25 11.55 5.2 14.3 5.2 15.5 8.65 16.15 10.4 16.2 12.15 15.9 10.6 15.15 9.15 13.75 6.15 11.5 6.2" fill="#00ffff" fill-rule="evenodd" stroke="none"/>
    <path d="M11.8 9.1 Q12.5 9.65 13.0 10.85 L13.15 12.1 Q12.8 10.2 11.8 9.1" fill="#d6ffff" fill-rule="evenodd" stroke="none"/>
    <path d="M14.0 7.35 Q15.25 8.5 16.05 10.8 L16.2 12.15 15.7 10.4 Q15.0 8.45 14.0 7.35" fill="#d6ffff" fill-rule="evenodd" stroke="none"/>
    <path d="M6.2 12.7 L6.2 12.4 16.85 12.4 16.85 12.7 6.2 12.7" fill="#d6ffff" fill-rule="evenodd" stroke="none"/>
    <path d="M5.2 13.7 L5.2 15.5 4.85 15.5 4.85 13.7 5.2 13.7" fill="#d6ffff" fill-rule="evenodd" stroke="none"/>
    <path d="M4.85 4.0 L5.9 4.0 5.9 4.3 5.2 4.3 5.2 12.7 3.35 12.7 3.35 13.4 3.0 13.4 3.0 12.4 4.85 12.4 4.85 4.0" fill="#d6ffff" fill-rule="evenodd" stroke="none"/>
    <path d="M11.85 5.55 Q8.85 5.55 7.25 9.5 L6.45 11.25 6.2 12.0 7.2 8.65 Q8.75 5.25 11.55 5.2 13.2 5.2 14.3 6.45 13.25 5.55 11.85 5.55" fill="#d6ffff" fill-rule="evenodd" stroke="none"/>
    <path d="M8.05 9.4 Q7.45 10.05 7.0 11.1 L6.65 12.0 6.7 11.75 Q7.65 9.3 9.0 7.9 L10.1 7.6 Q11.2 7.6 12.0 8.45 11.25 7.9 10.45 7.9 9.05 7.95 8.05 9.4" fill="#d6ffff" fill-rule="evenodd" stroke="none"/>
  </g>
  <defs>
    <linearGradient gradientTransform="matrix(0.0, -0.0084, -0.0084, 0.0, 9.95, 9.7)" gradientUnits="userSpaceOnUse" id="gradient0" spreadMethod="pad" x1="-819.2" x2="819.2">
      <stop offset="0.0" stop-color="#29abe2"/>
      <stop offset="1.0" stop-color="#00ffff"/>
    </linearGradient>
    <linearGradient gradientTransform="matrix(0.0, 0.0061, 0.0061, 0.0, 9.95, 11.1)" gradientUnits="userSpaceOnUse" id="gradient1" spreadMethod="pad" x1="-819.2" x2="819.2">
      <stop offset="0.0" stop-color="#29abe2"/>
      <stop offset="1.0" stop-color="#1b1464"/>
    </linearGradient>
  </defs>
</svg>
