<?xml version="1.0" encoding="UTF-8" standalone="no"?>
<svg xmlns:ffdec="https://www.free-decompiler.com/flash" xmlns:xlink="http://www.w3.org/1999/xlink" ffdec:objectType="shape" height="28.7px" width="33.6px" xmlns="http://www.w3.org/2000/svg">
  <g transform="matrix(1.0, 0.0, 0.0, 1.0, 0.0, 0.0)">
    <path d="M30.9 5.65 Q29.75 7.6 26.65 8.35 L25.7 9.15 Q25.5 9.35 25.25 9.35 L23.1 9.35 Q22.7 9.35 22.5 9.0 22.3 8.7 22.45 8.35 L11.95 8.35 Q11.75 8.8 11.3 8.8 L9.4 8.8 8.6 10.1 9.4 11.45 11.3 11.45 Q11.75 11.45 11.95 11.9 L22.45 11.9 Q22.3 11.55 22.5 11.25 22.65 10.9 23.1 10.9 L25.25 10.9 25.7 11.05 26.6 11.9 Q29.7 12.65 30.9 14.6 31.15 14.95 30.9 15.35 29.7 17.3 26.65 18.05 L25.7 18.85 25.25 19.05 23.1 19.05 Q22.7 19.05 22.5 18.7 22.3 18.4 22.45 18.05 L11.95 18.05 11.3 18.45 9.4 18.45 8.5 19.9 Q8.35 20.25 7.9 20.25 L6.95 20.25 6.95 22.1 26.65 22.1 26.65 19.9 Q26.65 19.2 27.35 19.2 L32.9 19.2 Q33.6 19.2 33.6 19.9 L33.6 28.0 Q33.6 28.7 32.9 28.7 L0.7 28.7 Q0.0 28.7 0.0 28.0 L0.0 19.9 Q0.0 19.2 0.7 19.2 L6.1 19.2 6.35 18.45 5.7 18.45 Q5.0 18.45 5.0 17.75 L5.0 12.15 Q5.0 11.45 5.7 11.45 L6.35 11.45 6.05 10.6 6.1 10.1 6.1 9.65 6.35 8.8 5.7 8.8 Q5.0 8.8 5.0 8.1 L5.0 2.45 5.2 1.95 Q5.4 1.75 5.7 1.75 L6.35 1.75 6.05 0.9 Q5.95 0.55 6.2 0.3 L6.75 0.0 7.9 0.0 Q8.35 0.0 8.5 0.35 L9.4 1.75 11.3 1.75 Q11.75 1.75 11.95 2.2 L22.45 2.2 Q22.3 1.85 22.5 1.55 22.7 1.2 23.1 1.2 L25.25 1.2 Q25.5 1.2 25.7 1.4 L26.6 2.2 Q29.7 2.95 30.9 4.9 31.15 5.3 30.9 5.65" fill="#000000" fill-rule="evenodd" stroke="none"/>
  </g>
</svg>
