<?xml version="1.0" encoding="UTF-8" standalone="no"?>
<svg xmlns:ffdec="https://www.free-decompiler.com/flash" xmlns:xlink="http://www.w3.org/1999/xlink" ffdec:objectType="shape" height="14.1px" width="16.5px" xmlns="http://www.w3.org/2000/svg">
  <g transform="matrix(1.0, 0.0, 0.0, 1.0, -1.25, -2.95)">
    <path d="M13.9 3.65 L14.3 4.05 Q15.85 4.4 16.45 5.4 L16.45 5.75 Q15.85 6.7 14.35 7.05 L13.9 7.45 13.65 7.55 12.6 7.55 12.3 7.4 12.3 7.05 7.1 7.05 6.8 7.3 5.85 7.3 5.5 7.95 5.85 8.6 6.8 8.6 Q7.05 8.6 7.1 8.8 L12.3 8.8 12.3 8.5 Q12.4 8.35 12.6 8.35 L13.65 8.35 13.9 8.4 14.3 8.8 Q15.85 9.2 16.45 10.15 L16.45 10.5 Q15.85 11.45 14.35 11.85 L13.9 12.25 13.65 12.35 12.6 12.35 12.3 12.15 12.3 11.85 7.1 11.85 6.8 12.05 5.85 12.05 5.45 12.75 5.15 12.9 4.65 12.9 4.65 13.85 14.35 13.85 14.35 12.75 Q14.35 12.4 14.7 12.4 L17.4 12.4 Q17.75 12.4 17.75 12.75 L17.75 16.75 17.4 17.05 1.6 17.05 Q1.25 17.05 1.25 16.75 L1.25 12.75 1.35 12.5 1.6 12.4 4.25 12.4 4.35 12.05 4.05 12.05 Q3.7 12.05 3.7 11.7 L3.7 8.95 Q3.7 8.6 4.05 8.6 L4.35 8.6 4.25 8.2 4.25 7.95 4.25 7.7 4.35 7.3 4.05 7.3 3.8 7.2 3.7 6.95 3.7 4.15 3.8 3.95 4.05 3.85 4.35 3.85 4.25 3.4 4.3 3.1 Q4.35 2.95 4.55 2.95 L5.15 2.95 5.45 3.15 5.85 3.85 6.8 3.85 Q7.05 3.85 7.1 4.05 L12.3 4.05 12.3 3.75 Q12.4 3.55 12.6 3.55 L13.65 3.55 13.9 3.65" fill="#130e45" fill-rule="evenodd" stroke="none"/>
    <path d="M5.8 11.5 L5.15 12.6 4.55 12.6 4.9 11.5 5.8 11.5" fill="url(#gradient0)" fill-rule="evenodd" stroke="none"/>
    <path d="M5.05 12.45 L5.65 11.5 5.8 11.5 5.15 12.6 4.55 12.6 4.6 12.45 5.05 12.45" fill="url(#gradient1)" fill-rule="evenodd" stroke="none"/>
    <path d="M14.85 10.9 L13.65 12.0 12.6 12.0 13.2 10.9 14.85 10.9" fill="url(#gradient2)" fill-rule="evenodd" stroke="none"/>
    <path d="M5.8 9.15 L4.9 9.15 4.55 8.1 5.15 8.1 5.8 9.15" fill="url(#gradient3)" fill-rule="evenodd" stroke="none"/>
    <path d="M5.05 8.2 L4.6 8.2 4.55 8.1 5.15 8.1 5.8 9.15 5.65 9.15 5.05 8.2" fill="url(#gradient4)" fill-rule="evenodd" stroke="none"/>
    <path d="M14.85 9.75 L13.2 9.75 12.6 8.65 13.65 8.65 14.85 9.75" fill="url(#gradient5)" fill-rule="evenodd" stroke="none"/>
    <path d="M6.7 11.5 L6.7 9.15 13.5 9.15 14.45 9.3 Q15.55 9.6 15.95 10.3 15.55 11.05 14.45 11.3 L13.5 11.5 6.7 11.5" fill="url(#gradient6)" fill-rule="evenodd" stroke="none"/>
    <path d="M7.1 9.15 L13.55 9.15 13.55 9.3 7.1 9.3 7.1 9.15" fill="#ffffff" fill-rule="evenodd" stroke="none"/>
    <path d="M6.95 9.9 L6.95 9.6 13.4 9.6 13.4 9.9 6.95 9.9" fill="#ffffff" fill-rule="evenodd" stroke="none"/>
    <path d="M13.5 9.15 L14.45 9.3 14.45 11.3 13.5 11.5 12.55 11.5 12.55 9.15 13.5 9.15" fill="#565a63" fill-rule="evenodd" stroke="none"/>
    <path d="M16.15 10.3 Q15.65 11.1 14.45 11.45 L13.35 11.6 12.8 11.6 12.8 9.0 13.35 9.0 14.45 9.2 Q15.65 9.55 16.15 10.3" fill="url(#gradient7)" fill-rule="evenodd" stroke="none"/>
    <path d="M7.1 9.15 L7.1 11.5 6.7 11.5 6.7 9.15 7.1 9.15" fill="#565a63" fill-rule="evenodd" stroke="none"/>
    <path d="M6.8 11.7 L4.05 11.7 4.05 8.95 6.8 8.95 6.8 11.7" fill="url(#gradient8)" fill-rule="evenodd" stroke="none"/>
    <path d="M6.8 9.85 L4.05 9.85 4.05 9.35 6.8 9.35 6.8 9.85" fill="#ffffff" fill-rule="evenodd" stroke="none"/>
    <path d="M6.8 8.95 L6.8 11.7 6.6 11.7 6.6 9.05 4.05 9.05 4.05 8.95 6.8 8.95" fill="url(#gradient9)" fill-rule="evenodd" stroke="none"/>
    <path d="M15.65 10.1 L12.8 10.15 12.8 9.5 14.95 9.8 15.65 10.1" fill="#ff997a" fill-rule="evenodd" stroke="none"/>
    <path d="M5.8 6.75 L5.15 7.8 4.55 7.8 4.9 6.75 5.8 6.75" fill="url(#gradient10)" fill-rule="evenodd" stroke="none"/>
    <path d="M5.05 7.7 L5.65 6.75 5.8 6.75 5.15 7.8 4.55 7.8 4.6 7.7 5.05 7.7" fill="url(#gradient11)" fill-rule="evenodd" stroke="none"/>
    <path d="M14.85 6.15 L13.65 7.2 12.6 7.2 13.2 6.15 14.85 6.15" fill="url(#gradient12)" fill-rule="evenodd" stroke="none"/>
    <path d="M5.8 4.4 L4.9 4.4 4.55 3.3 5.15 3.3 5.8 4.4" fill="url(#gradient13)" fill-rule="evenodd" stroke="none"/>
    <path d="M5.05 3.45 L4.6 3.45 4.55 3.3 5.15 3.3 5.8 4.4 5.65 4.4 5.05 3.45" fill="url(#gradient14)" fill-rule="evenodd" stroke="none"/>
    <path d="M14.85 5.0 L13.2 5.0 12.6 3.9 13.65 3.9 14.85 5.0" fill="url(#gradient15)" fill-rule="evenodd" stroke="none"/>
    <path d="M6.7 6.75 L6.7 4.4 13.5 4.4 14.45 4.55 Q15.55 4.85 15.95 5.55 15.55 6.25 14.45 6.55 L13.5 6.75 6.7 6.75" fill="url(#gradient16)" fill-rule="evenodd" stroke="none"/>
    <path d="M7.1 4.4 L13.55 4.4 13.55 4.55 7.1 4.55 7.1 4.4" fill="#ffffff" fill-rule="evenodd" stroke="none"/>
    <path d="M6.95 5.2 L6.95 4.85 13.4 4.85 13.4 5.2 6.95 5.2" fill="#ffffff" fill-rule="evenodd" stroke="none"/>
    <path d="M13.5 4.4 L14.45 4.55 14.45 6.6 13.5 6.75 12.55 6.75 12.55 4.4 13.5 4.4" fill="#565a63" fill-rule="evenodd" stroke="none"/>
    <path d="M16.15 5.55 Q15.65 6.35 14.45 6.7 L13.35 6.85 12.8 6.85 12.8 4.25 13.35 4.25 14.45 4.45 Q15.65 4.8 16.15 5.55" fill="url(#gradient17)" fill-rule="evenodd" stroke="none"/>
    <path d="M7.1 4.4 L7.1 6.75 6.7 6.75 6.7 4.4 7.1 4.4" fill="#565a63" fill-rule="evenodd" stroke="none"/>
    <path d="M6.8 6.95 L4.05 6.95 4.05 4.15 6.8 4.15 6.8 6.95" fill="url(#gradient18)" fill-rule="evenodd" stroke="none"/>
    <path d="M6.8 5.1 L4.05 5.1 4.05 4.6 6.8 4.6 6.8 5.1" fill="#ffffff" fill-rule="evenodd" stroke="none"/>
    <path d="M6.8 4.15 L6.8 6.95 6.6 6.95 6.6 4.3 4.05 4.3 4.05 4.15 6.8 4.15" fill="url(#gradient19)" fill-rule="evenodd" stroke="none"/>
    <path d="M15.65 5.35 L12.8 5.4 12.8 4.7 14.95 5.05 15.65 5.35" fill="#ff997a" fill-rule="evenodd" stroke="none"/>
    <path d="M14.7 12.75 L17.4 12.75 17.4 16.75 1.6 16.75 1.6 12.75 4.3 12.75 4.3 14.15 14.7 14.15 14.7 12.75" fill="url(#gradient20)" fill-rule="evenodd" stroke="none"/>
    <path d="M17.05 13.1 L17.05 16.4 1.95 16.4 1.95 13.1 4.0 13.1 4.0 14.55 15.05 14.55 15.05 13.1 17.05 13.1" fill="url(#gradient21)" fill-rule="evenodd" stroke="none"/>
  </g>
  <defs>
    <linearGradient gradientTransform="matrix(0.0, -5.0E-4, 5.0E-4, 0.0, 5.2, 12.15)" gradientUnits="userSpaceOnUse" id="gradient0" spreadMethod="pad" x1="-819.2" x2="819.2">
      <stop offset="0.0" stop-color="#ffffff"/>
      <stop offset="0.23529411764705882" stop-color="#e8e8e8"/>
      <stop offset="0.35294117647058826" stop-color="#d6d7d8"/>
      <stop offset="0.5882352941176471" stop-color="#a8abaf"/>
      <stop offset="0.9176470588235294" stop-color="#5e646e"/>
    </linearGradient>
    <linearGradient gradientTransform="matrix(0.0, -5.0E-4, 5.0E-4, 0.0, 5.2, 12.15)" gradientUnits="userSpaceOnUse" id="gradient1" spreadMethod="pad" x1="-819.2" x2="819.2">
      <stop offset="0.0" stop-color="#ffffff"/>
      <stop offset="1.0" stop-color="#cdd1da"/>
    </linearGradient>
    <linearGradient gradientTransform="matrix(0.0, -3.0E-4, 3.0E-4, 0.0, 13.75, 11.7)" gradientUnits="userSpaceOnUse" id="gradient2" spreadMethod="pad" x1="-819.2" x2="819.2">
      <stop offset="0.0" stop-color="#e05b3c"/>
      <stop offset="0.5137254901960784" stop-color="#a11717"/>
    </linearGradient>
    <linearGradient gradientTransform="matrix(0.0, 5.0E-4, 5.0E-4, 0.0, 5.2, 8.5)" gradientUnits="userSpaceOnUse" id="gradient3" spreadMethod="pad" x1="-819.2" x2="819.2">
      <stop offset="0.0" stop-color="#ffffff"/>
      <stop offset="0.23529411764705882" stop-color="#e8e8e8"/>
      <stop offset="0.35294117647058826" stop-color="#d6d7d8"/>
      <stop offset="0.5882352941176471" stop-color="#a8abaf"/>
      <stop offset="0.9176470588235294" stop-color="#5e646e"/>
    </linearGradient>
    <linearGradient gradientTransform="matrix(0.0, 5.0E-4, 5.0E-4, 0.0, 5.2, 8.5)" gradientUnits="userSpaceOnUse" id="gradient4" spreadMethod="pad" x1="-819.2" x2="819.2">
      <stop offset="0.0" stop-color="#ffffff"/>
      <stop offset="1.0" stop-color="#cdd1da"/>
    </linearGradient>
    <linearGradient gradientTransform="matrix(0.0, 3.0E-4, 3.0E-4, 0.0, 13.75, 8.9)" gradientUnits="userSpaceOnUse" id="gradient5" spreadMethod="pad" x1="-819.2" x2="819.2">
      <stop offset="0.0" stop-color="#e05b3c"/>
      <stop offset="0.5137254901960784" stop-color="#a11717"/>
    </linearGradient>
    <linearGradient gradientTransform="matrix(0.0, 0.0014, 0.0014, 0.0, 11.35, 10.3)" gradientUnits="userSpaceOnUse" id="gradient6" spreadMethod="pad" x1="-819.2" x2="819.2">
      <stop offset="0.0" stop-color="#8c9099"/>
      <stop offset="0.12156862745098039" stop-color="#cdd1da"/>
      <stop offset="0.3568627450980392" stop-color="#cdd1da"/>
      <stop offset="0.8" stop-color="#565a63"/>
      <stop offset="1.0" stop-color="#cdd1da"/>
    </linearGradient>
    <linearGradient gradientTransform="matrix(0.0, 0.0014, 0.0014, 0.0, 14.5, 10.45)" gradientUnits="userSpaceOnUse" id="gradient7" spreadMethod="pad" x1="-819.2" x2="819.2">
      <stop offset="0.0" stop-color="#bd1717"/>
      <stop offset="0.12156862745098039" stop-color="#e05b3c"/>
      <stop offset="0.3568627450980392" stop-color="#cf321d"/>
      <stop offset="0.8" stop-color="#630000"/>
      <stop offset="1.0" stop-color="#da9b9b"/>
    </linearGradient>
    <linearGradient gradientTransform="matrix(0.0, 0.0017, 0.0017, 0.0, 5.45, 10.3)" gradientUnits="userSpaceOnUse" id="gradient8" spreadMethod="pad" x1="-819.2" x2="819.2">
      <stop offset="0.0" stop-color="#8c9099"/>
      <stop offset="0.12156862745098039" stop-color="#cdd1da"/>
      <stop offset="0.3568627450980392" stop-color="#cdd1da"/>
      <stop offset="0.8" stop-color="#565a63"/>
      <stop offset="1.0" stop-color="#cdd1da"/>
    </linearGradient>
    <linearGradient gradientTransform="matrix(0.0, 0.0017, 0.0017, 0.0, 5.45, 10.3)" gradientUnits="userSpaceOnUse" id="gradient9" spreadMethod="pad" x1="-819.2" x2="819.2">
      <stop offset="0.0" stop-color="#ffffff"/>
      <stop offset="1.0" stop-color="#cdd1da"/>
    </linearGradient>
    <linearGradient gradientTransform="matrix(0.0, -5.0E-4, 5.0E-4, 0.0, 5.2, 7.4)" gradientUnits="userSpaceOnUse" id="gradient10" spreadMethod="pad" x1="-819.2" x2="819.2">
      <stop offset="0.0" stop-color="#ffffff"/>
      <stop offset="0.23529411764705882" stop-color="#e8e8e8"/>
      <stop offset="0.35294117647058826" stop-color="#d6d7d8"/>
      <stop offset="0.5882352941176471" stop-color="#a8abaf"/>
      <stop offset="0.9176470588235294" stop-color="#5e646e"/>
    </linearGradient>
    <linearGradient gradientTransform="matrix(0.0, -5.0E-4, 5.0E-4, 0.0, 5.2, 7.4)" gradientUnits="userSpaceOnUse" id="gradient11" spreadMethod="pad" x1="-819.2" x2="819.2">
      <stop offset="0.0" stop-color="#ffffff"/>
      <stop offset="1.0" stop-color="#cdd1da"/>
    </linearGradient>
    <linearGradient gradientTransform="matrix(0.0, -3.0E-4, 3.0E-4, 0.0, 13.75, 6.95)" gradientUnits="userSpaceOnUse" id="gradient12" spreadMethod="pad" x1="-819.2" x2="819.2">
      <stop offset="0.0" stop-color="#e05b3c"/>
      <stop offset="0.5137254901960784" stop-color="#a11717"/>
    </linearGradient>
    <linearGradient gradientTransform="matrix(0.0, 5.0E-4, 5.0E-4, 0.0, 5.2, 3.75)" gradientUnits="userSpaceOnUse" id="gradient13" spreadMethod="pad" x1="-819.2" x2="819.2">
      <stop offset="0.0" stop-color="#ffffff"/>
      <stop offset="0.23529411764705882" stop-color="#e8e8e8"/>
      <stop offset="0.35294117647058826" stop-color="#d6d7d8"/>
      <stop offset="0.5882352941176471" stop-color="#a8abaf"/>
      <stop offset="0.9176470588235294" stop-color="#5e646e"/>
    </linearGradient>
    <linearGradient gradientTransform="matrix(0.0, 5.0E-4, 5.0E-4, 0.0, 5.2, 3.75)" gradientUnits="userSpaceOnUse" id="gradient14" spreadMethod="pad" x1="-819.2" x2="819.2">
      <stop offset="0.0" stop-color="#ffffff"/>
      <stop offset="1.0" stop-color="#cdd1da"/>
    </linearGradient>
    <linearGradient gradientTransform="matrix(0.0, 3.0E-4, 3.0E-4, 0.0, 13.75, 4.15)" gradientUnits="userSpaceOnUse" id="gradient15" spreadMethod="pad" x1="-819.2" x2="819.2">
      <stop offset="0.0" stop-color="#e05b3c"/>
      <stop offset="0.5137254901960784" stop-color="#a11717"/>
    </linearGradient>
    <linearGradient gradientTransform="matrix(0.0, 0.0014, 0.0014, 0.0, 11.35, 5.55)" gradientUnits="userSpaceOnUse" id="gradient16" spreadMethod="pad" x1="-819.2" x2="819.2">
      <stop offset="0.0" stop-color="#8c9099"/>
      <stop offset="0.12156862745098039" stop-color="#cdd1da"/>
      <stop offset="0.3568627450980392" stop-color="#cdd1da"/>
      <stop offset="0.8" stop-color="#565a63"/>
      <stop offset="1.0" stop-color="#cdd1da"/>
    </linearGradient>
    <linearGradient gradientTransform="matrix(0.0, 0.0014, 0.0014, 0.0, 14.5, 5.65)" gradientUnits="userSpaceOnUse" id="gradient17" spreadMethod="pad" x1="-819.2" x2="819.2">
      <stop offset="0.0" stop-color="#bd1717"/>
      <stop offset="0.12156862745098039" stop-color="#e05b3c"/>
      <stop offset="0.3568627450980392" stop-color="#cf321d"/>
      <stop offset="0.8" stop-color="#630000"/>
      <stop offset="1.0" stop-color="#da9b9b"/>
    </linearGradient>
    <linearGradient gradientTransform="matrix(0.0, 0.0017, 0.0017, 0.0, 5.45, 5.55)" gradientUnits="userSpaceOnUse" id="gradient18" spreadMethod="pad" x1="-819.2" x2="819.2">
      <stop offset="0.0" stop-color="#8c9099"/>
      <stop offset="0.12156862745098039" stop-color="#cdd1da"/>
      <stop offset="0.3568627450980392" stop-color="#cdd1da"/>
      <stop offset="0.8" stop-color="#565a63"/>
      <stop offset="1.0" stop-color="#cdd1da"/>
    </linearGradient>
    <linearGradient gradientTransform="matrix(0.0, 0.0017, 0.0017, 0.0, 5.45, 5.55)" gradientUnits="userSpaceOnUse" id="gradient19" spreadMethod="pad" x1="-819.2" x2="819.2">
      <stop offset="0.0" stop-color="#ffffff"/>
      <stop offset="1.0" stop-color="#cdd1da"/>
    </linearGradient>
    <linearGradient gradientTransform="matrix(0.0, 0.0011, -0.0011, 0.0, 9.5, 15.7)" gradientUnits="userSpaceOnUse" id="gradient20" spreadMethod="pad" x1="-819.2" x2="819.2">
      <stop offset="0.0" stop-color="#777d8a"/>
      <stop offset="1.0" stop-color="#ebebeb"/>
    </linearGradient>
    <linearGradient gradientTransform="matrix(0.0, -0.002, 0.002, 0.0, 9.5, 14.75)" gradientUnits="userSpaceOnUse" id="gradient21" spreadMethod="pad" x1="-819.2" x2="819.2">
      <stop offset="0.0" stop-color="#b5bcc9"/>
      <stop offset="1.0" stop-color="#ffffff"/>
    </linearGradient>
  </defs>
</svg>
