<?xml version="1.0" encoding="UTF-8" standalone="no"?>
<svg xmlns:ffdec="https://www.free-decompiler.com/flash" xmlns:xlink="http://www.w3.org/1999/xlink" ffdec:objectType="shape" height="49.6px" width="50.85px" xmlns="http://www.w3.org/2000/svg">
  <g transform="matrix(1.0, 0.0, 0.0, 1.0, -131.65, -219.55)">
    <path d="M180.95 245.3 L179.75 247.35 178.95 247.35 178.95 242.8 179.75 242.8 180.95 245.3" fill="#8d9eb2" fill-rule="evenodd" stroke="none"/>
    <path d="M132.45 245.3 L133.7 242.8 134.4 242.8 134.4 247.35 133.7 247.35 132.45 245.3" fill="#8d9eb2" fill-rule="evenodd" stroke="none"/>
    <path d="M179.9 223.25 L179.9 262.7 Q179.9 264.2 178.85 265.3 177.75 266.4 176.2 266.4 L137.65 266.4 Q136.1 266.4 135.05 265.3 133.95 264.2 133.95 262.7 L133.95 223.25 Q133.95 221.75 135.05 220.7 136.1 219.55 137.65 219.55 L176.2 219.55 Q177.75 219.55 178.85 220.7 179.9 221.75 179.9 223.25" fill="#1c1923" fill-rule="evenodd" stroke="none"/>
    <path d="M137.6 222.35 Q136.45 222.35 135.65 223.15 134.85 223.95 134.85 225.1 L134.85 264.5 Q134.85 265.7 135.65 266.45 136.45 267.3 137.6 267.3 L176.2 267.3 Q177.35 267.3 178.15 266.45 178.95 265.7 178.95 264.5 L178.95 225.1 Q178.95 223.95 178.15 223.15 177.35 222.35 176.2 222.35 L137.6 222.35 M133.0 225.1 Q133.0 223.2 134.3 221.8 135.7 220.5 137.6 220.5 L176.2 220.5 Q178.1 220.5 179.5 221.8 180.8 223.2 180.8 225.1 L180.8 264.5 Q180.8 266.4 179.5 267.8 178.1 269.15 176.2 269.15 L137.6 269.15 Q135.7 269.15 134.3 267.8 133.0 266.4 133.0 264.5 L133.0 225.1" fill="#8a8891" fill-rule="evenodd" stroke="none"/>
    <path d="M134.75 235.2 L134.75 254.5 131.65 250.7 131.65 238.95 134.75 235.2" fill="#a2aebc" fill-rule="evenodd" stroke="none"/>
    <path d="M179.4 235.2 L182.5 238.95 182.5 250.7 179.4 254.5 179.4 235.2" fill="#a2aebc" fill-rule="evenodd" stroke="none"/>
  </g>
</svg>
