<?xml version="1.0" encoding="UTF-8" standalone="no"?>
<svg xmlns:ffdec="https://www.free-decompiler.com/flash" xmlns:xlink="http://www.w3.org/1999/xlink" ffdec:objectType="shape" height="31.05px" width="60.9px" xmlns="http://www.w3.org/2000/svg">
  <g transform="matrix(1.0, 0.0, 0.0, 1.0, -10.65, -0.05)">
    <path d="M59.45 28.45 Q58.8 29.55 57.5 30.3 56.2 31.1 54.95 31.1 L26.3 31.1 Q25.05 31.1 23.75 30.3 22.45 29.5 21.9 28.4 L11.05 7.4 Q10.5 6.3 10.7 4.9 10.9 3.5 11.8 2.65 L12.25 2.15 14.65 0.65 Q16.15 0.05 17.4 0.05 L63.65 0.05 Q64.9 0.05 66.45 0.6 68.05 1.1 69.0 1.9 L70.3 2.9 Q71.25 3.65 71.5 5.0 71.75 6.3 71.15 7.35 L59.45 28.45" fill="url(#gradient0)" fill-rule="evenodd" stroke="none"/>
    <path d="M48.9 3.4 L53.15 2.8 Q54.35 2.2 57.45 2.2 L58.6 2.2 61.35 2.8 Q62.85 3.45 63.7 4.3 L64.25 4.8 Q65.1 5.65 65.3 7.05 65.5 8.45 64.9 9.5 L56.1 25.35 Q55.5 26.45 54.15 27.2 52.85 28.0 51.6 28.0 L51.15 28.0 47.25 27.45 Q46.25 26.9 43.3 26.9 L38.4 26.9 Q35.35 26.9 34.6 27.45 33.8 28.0 30.75 28.0 L29.85 28.0 Q28.6 28.0 27.35 27.2 26.05 26.45 25.45 25.35 L17.3 9.55 Q16.75 8.45 16.9 7.0 17.0 5.5 17.8 4.55 L17.85 4.5 Q18.6 3.55 20.05 2.9 21.45 2.2 22.7 2.2 L25.2 2.2 Q28.25 2.2 29.6 2.8 31.1 3.4 34.0 3.4 L48.9 3.4" fill="#2b2b2a" fill-rule="evenodd" stroke="none"/>
    <path d="M55.5 4.8 L57.35 5.15 Q58.4 5.5 59.05 6.0 L59.85 6.65 Q60.5 7.15 60.65 8.0 60.8 8.9 60.4 9.6 L52.8 23.35 51.5 24.55 Q50.65 25.05 49.8 25.05 L31.15 25.05 Q30.35 25.05 29.5 24.55 28.65 24.0 28.25 23.3 L21.15 9.65 Q20.8 8.9 20.95 8.0 21.1 7.05 21.65 6.45 L21.9 6.2 Q22.5 5.6 23.5 5.2 24.5 4.8 25.35 4.8 L55.5 4.8" fill="#03287a" fill-rule="evenodd" stroke="none"/>
    <path d="M55.5 4.8 L25.35 4.8 Q24.5 4.8 23.5 5.2 22.5 5.6 21.9 6.2 L21.65 6.45 Q21.1 7.05 20.95 8.0 20.8 8.9 21.15 9.65 L28.25 23.3 Q28.65 24.0 29.5 24.55 30.35 25.05 31.15 25.05 L49.8 25.05 Q50.65 25.05 51.5 24.55 L52.8 23.35 60.4 9.6 Q60.8 8.9 60.65 8.0 60.5 7.15 59.85 6.65 L59.05 6.0 Q58.4 5.5 57.35 5.15 L55.5 4.8 Z" fill="none" stroke="#069aff" stroke-linecap="butt" stroke-linejoin="miter-clip" stroke-miterlimit="4.0" stroke-width="1.0"/>
    <path d="M42.05 25.05 Q37.05 25.05 33.5 22.3 29.95 19.55 29.95 15.7 29.95 11.85 33.5 9.1 37.05 6.4 42.05 6.4 47.1 6.4 50.6 9.1 54.15 11.85 54.15 15.7 54.15 19.55 50.6 22.3 47.05 25.05 42.05 25.05" fill="url(#gradient1)" fill-rule="evenodd" stroke="none"/>
    <path d="M32.6 16.2 Q32.3 17.25 32.0 17.15 31.7 17.05 31.85 16.05 32.0 15.1 32.4 15.1 32.8 15.2 32.6 16.2" fill="#0677ff" fill-rule="evenodd" stroke="none"/>
    <path d="M51.8 16.2 Q51.6 15.2 51.95 15.1 52.35 15.1 52.5 16.05 52.75 17.05 52.35 17.15 52.0 17.25 51.8 16.2" fill="#0677ff" fill-rule="evenodd" stroke="none"/>
    <path d="M36.45 7.95 L36.95 7.95 40.1 13.5 40.85 13.0 41.65 12.9 42.2 13.05 42.7 12.9 43.55 13.0 44.3 13.5 47.4 7.95 47.9 7.95 45.75 13.55 48.45 13.55 49.5 14.25 53.4 14.25 53.75 15.25 46.85 16.8 47.05 18.9 45.85 18.9 44.9 20.35 43.5 20.35 42.4 21.65 42.4 22.7 41.95 22.7 41.95 21.65 40.85 20.35 39.5 20.35 38.5 18.9 37.3 18.9 37.55 16.8 30.6 15.25 30.95 14.25 34.9 14.25 35.9 13.55 38.6 13.55 36.45 7.95" fill="url(#gradient2)" fill-rule="evenodd" stroke="none"/>
    <path d="M53.75 15.25 L46.85 16.8 45.75 13.55 48.45 13.55 49.5 14.25 53.4 14.25 53.75 15.25" fill="url(#gradient3)" fill-rule="evenodd" stroke="none"/>
    <path d="M38.6 13.55 L37.55 16.8 30.6 15.25 30.95 14.25 34.9 14.25 35.9 13.55 38.6 13.55" fill="url(#gradient4)" fill-rule="evenodd" stroke="none"/>
    <path d="M43.55 20.05 L44.4 18.05 46.0 18.1 46.4 18.2 46.45 18.6 45.6 18.6 44.75 20.05 43.55 20.05" fill="#0546ad" fill-rule="evenodd" stroke="none"/>
    <path d="M40.8 20.05 L39.6 20.05 38.75 18.6 37.9 18.6 37.95 18.2 38.35 18.1 39.95 18.05 40.8 20.05" fill="#0546ad" fill-rule="evenodd" stroke="none"/>
    <path d="M43.5 17.05 Q43.5 17.7 43.15 17.7 L42.25 17.55 41.35 17.7 Q40.95 17.7 40.95 17.05 40.95 16.3 41.35 15.75 41.75 15.2 42.25 15.2 42.75 15.2 43.15 15.75 43.5 16.3 43.5 17.05" fill="#17e9ff" fill-rule="evenodd" stroke="none"/>
    <path d="M41.75 16.05 L41.5 16.3 Q41.3 16.1 41.55 15.8 41.75 15.4 41.95 15.6 L41.95 15.75 41.75 16.05" fill="#2eceff" fill-rule="evenodd" stroke="none"/>
  </g>
  <defs>
    <linearGradient gradientTransform="matrix(0.0, -0.019, 0.019, 0.0, 41.1, 15.55)" gradientUnits="userSpaceOnUse" id="gradient0" spreadMethod="pad" x1="-819.2" x2="819.2">
      <stop offset="0.0" stop-color="#373737"/>
      <stop offset="0.6549019607843137" stop-color="#a4a4a4"/>
      <stop offset="0.803921568627451" stop-color="#a4a4a4"/>
      <stop offset="1.0" stop-color="#6b6b6b"/>
    </linearGradient>
    <linearGradient gradientTransform="matrix(0.0, -0.0114, -0.0114, 0.0, 42.05, 15.7)" gradientUnits="userSpaceOnUse" id="gradient1" spreadMethod="pad" x1="-819.2" x2="819.2">
      <stop offset="0.0" stop-color="#065abf" stop-opacity="0.0"/>
      <stop offset="0.24313725490196078" stop-color="#065dc0" stop-opacity="0.023529412"/>
      <stop offset="0.4196078431372549" stop-color="#0666c3" stop-opacity="0.101960786"/>
      <stop offset="0.5764705882352941" stop-color="#0676c9" stop-opacity="0.23529412"/>
      <stop offset="0.7215686274509804" stop-color="#068dd1" stop-opacity="0.42352942"/>
      <stop offset="0.8588235294117647" stop-color="#05aadb" stop-opacity="0.67058825"/>
      <stop offset="0.9882352941176471" stop-color="#05cde7" stop-opacity="0.9647059"/>
      <stop offset="1.0" stop-color="#05d1e8"/>
    </linearGradient>
    <radialGradient cx="0" cy="0" gradientTransform="matrix(0.0119, 0.0, 0.0, -0.0119, 42.2, 15.35)" gradientUnits="userSpaceOnUse" id="gradient2" r="819.2" spreadMethod="pad">
      <stop offset="0.0" stop-color="#2b9eff"/>
      <stop offset="0.08627450980392157" stop-color="#30a7ff"/>
      <stop offset="0.7058823529411765" stop-color="#50e6ff"/>
      <stop offset="1.0" stop-color="#5cffff"/>
    </radialGradient>
    <linearGradient gradientTransform="matrix(2.0E-4, -0.002, -0.002, -2.0E-4, 49.7, 15.35)" gradientUnits="userSpaceOnUse" id="gradient3" spreadMethod="pad" x1="-819.2" x2="819.2">
      <stop offset="0.0" stop-color="#00b0ff"/>
      <stop offset="0.20392156862745098" stop-color="#00a6fc"/>
      <stop offset="0.5607843137254902" stop-color="#0089f6"/>
      <stop offset="1.0" stop-color="#005eeb"/>
    </linearGradient>
    <linearGradient gradientTransform="matrix(2.0E-4, -0.002, -0.002, -2.0E-4, 34.55, 14.85)" gradientUnits="userSpaceOnUse" id="gradient4" spreadMethod="pad" x1="-819.2" x2="819.2">
      <stop offset="0.0" stop-color="#00b0ff"/>
      <stop offset="0.20392156862745098" stop-color="#00a6fc"/>
      <stop offset="0.5607843137254902" stop-color="#0089f6"/>
      <stop offset="1.0" stop-color="#005eeb"/>
    </linearGradient>
  </defs>
</svg>
