<?xml version="1.0" encoding="UTF-8" standalone="no"?>
<svg xmlns:ffdec="https://www.free-decompiler.com/flash" xmlns:xlink="http://www.w3.org/1999/xlink" ffdec:objectType="shape" height="31.05px" width="60.9px" xmlns="http://www.w3.org/2000/svg">
  <g transform="matrix(1.0, 0.0, 0.0, 1.0, -10.65, 0.0)">
    <path d="M66.45 0.55 Q68.05 1.05 69.0 1.85 L70.3 2.85 Q71.25 3.6 71.5 4.95 71.75 6.25 71.15 7.3 L59.45 28.4 Q58.8 29.5 57.5 30.25 56.2 31.05 54.95 31.05 L26.3 31.05 Q25.05 31.05 23.75 30.25 22.45 29.45 21.9 28.35 L11.05 7.35 Q10.5 6.25 10.7 4.85 10.9 3.45 11.8 2.6 L12.25 2.1 14.65 0.6 Q16.15 0.0 17.4 0.0 L63.65 0.0 Q64.9 0.0 66.45 0.55" fill="url(#gradient0)" fill-rule="evenodd" stroke="none"/>
    <path d="M48.9 3.35 L53.15 2.75 Q54.35 2.15 57.45 2.15 L58.6 2.15 61.35 2.75 Q62.85 3.4 63.7 4.25 L64.25 4.75 Q65.1 5.6 65.3 7.0 65.5 8.4 64.9 9.45 L56.1 25.3 Q55.5 26.4 54.15 27.15 52.85 27.95 51.6 27.95 L51.15 27.95 47.25 27.4 Q46.25 26.85 43.3 26.85 L38.4 26.85 Q35.35 26.85 34.6 27.4 33.8 27.95 30.75 27.95 L29.85 27.95 Q28.6 27.95 27.35 27.15 26.05 26.4 25.45 25.3 L17.3 9.5 Q16.75 8.4 16.9 6.95 17.0 5.45 17.8 4.5 L17.85 4.45 Q18.6 3.5 20.05 2.85 21.45 2.15 22.7 2.15 L25.2 2.15 Q28.25 2.15 29.6 2.75 31.1 3.35 34.0 3.35 L48.9 3.35" fill="#2b2b2a" fill-rule="evenodd" stroke="none"/>
    <path d="M51.5 24.5 Q50.65 25.0 49.8 25.0 L31.15 25.0 Q30.35 25.0 29.5 24.5 28.65 23.95 28.25 23.25 L21.15 9.6 Q20.8 8.85 20.95 7.95 21.1 7.0 21.65 6.4 L21.9 6.15 Q22.5 5.55 23.5 5.15 24.5 4.75 25.35 4.75 L55.5 4.75 57.35 5.1 Q58.4 5.45 59.05 5.95 L59.85 6.6 Q60.5 7.1 60.65 7.95 60.8 8.85 60.4 9.55 L52.8 23.3 51.5 24.5" fill="url(#gradient1)" fill-rule="evenodd" stroke="none"/>
    <path d="M51.5 24.5 L52.8 23.3 60.4 9.55 Q60.8 8.85 60.65 7.95 60.5 7.1 59.85 6.6 L59.05 5.95 Q58.4 5.45 57.35 5.1 L55.5 4.75 25.35 4.75 Q24.5 4.75 23.5 5.15 22.5 5.55 21.9 6.15 L21.65 6.4 Q21.1 7.0 20.95 7.95 20.8 8.85 21.15 9.6 L28.25 23.25 Q28.65 23.95 29.5 24.5 30.35 25.0 31.15 25.0 L49.8 25.0 Q50.65 25.0 51.5 24.5 Z" fill="none" stroke="#f19e24" stroke-linecap="butt" stroke-linejoin="miter-clip" stroke-miterlimit="4.0" stroke-width="1.0"/>
    <path d="M51.5 24.5 L52.8 23.3 60.4 9.55 Q60.8 8.85 60.65 7.95 60.5 7.1 59.85 6.6 L59.05 5.95 Q58.4 5.45 57.35 5.1 L55.5 4.75 25.35 4.75 Q24.5 4.75 23.5 5.15 22.5 5.55 21.9 6.15 L21.65 6.4 Q21.1 7.0 20.95 7.95 20.8 8.85 21.15 9.6 L28.25 23.25 Q28.65 23.95 29.5 24.5 30.35 25.0 31.15 25.0 L49.8 25.0 Q50.65 25.0 51.5 24.5 Z" fill="none" stroke="#f19e24" stroke-linecap="butt" stroke-linejoin="miter-clip" stroke-miterlimit="4.0" stroke-width="1.0"/>
    <path d="M42.05 25.05 Q37.05 25.05 33.5 22.3 29.95 19.55 29.95 15.7 29.95 11.85 33.5 9.1 37.05 6.4 42.05 6.4 47.1 6.4 50.6 9.1 54.15 11.85 54.15 15.7 54.15 19.55 50.6 22.3 47.05 25.05 42.05 25.05" fill="url(#gradient2)" fill-rule="evenodd" stroke="none"/>
    <path d="M41.75 16.0 Q41.95 15.6 42.15 15.8 L42.15 15.95 41.95 16.25 41.7 16.5 Q41.5 16.3 41.75 16.0" fill="#2eceff" fill-rule="evenodd" stroke="none"/>
    <path d="M52.7 16.25 Q52.95 17.25 52.55 17.35 52.2 17.45 52.0 16.4 51.8 15.4 52.15 15.3 52.55 15.3 52.7 16.25 M32.05 16.25 Q32.2 15.3 32.6 15.3 33.0 15.4 32.8 16.4 32.5 17.45 32.2 17.35 31.9 17.25 32.05 16.25" fill="#c46200" fill-rule="evenodd" stroke="none"/>
    <path d="M43.75 13.2 L44.5 13.7 47.6 8.15 48.1 8.15 45.95 13.75 48.65 13.75 49.7 14.45 53.6 14.45 53.95 15.45 47.05 17.0 47.25 19.1 46.05 19.1 45.1 20.55 43.7 20.55 42.6 21.85 42.6 22.9 42.15 22.9 42.15 21.85 41.05 20.55 39.7 20.55 38.7 19.1 37.5 19.1 37.75 17.0 30.8 15.45 31.15 14.45 35.1 14.45 36.1 13.75 38.8 13.75 36.65 8.15 37.15 8.15 40.3 13.7 41.05 13.2 41.85 13.1 42.4 13.25 42.9 13.1 43.75 13.2" fill="url(#gradient3)" fill-rule="evenodd" stroke="none"/>
    <path d="M43.75 13.2 L42.9 13.1 42.4 13.25 41.85 13.1 41.05 13.2 40.3 13.7 37.15 8.15 36.65 8.15 38.8 13.75 36.1 13.75 35.1 14.45 31.15 14.45 30.8 15.45 37.75 17.0 37.5 19.1 38.7 19.1 39.7 20.55 41.05 20.55 42.15 21.85 42.15 22.9 42.6 22.9 42.6 21.85 43.7 20.55 45.1 20.55 46.05 19.1 47.25 19.1 47.05 17.0 53.95 15.45 53.6 14.45 49.7 14.45 48.65 13.75 45.95 13.75 48.1 8.15 47.6 8.15 44.5 13.7 43.75 13.2 Z" ffdec:has-small-stroke="true" ffdec:original-stroke-width="0.5" fill="none" stroke="#f19e24" stroke-linecap="butt" stroke-linejoin="miter-clip" stroke-miterlimit="4.0" stroke-opacity="0.0" stroke-width="1.0"/>
    <path d="M47.05 17.0 L45.95 13.75 48.65 13.75 49.7 14.45 53.6 14.45 53.95 15.45 47.05 17.0" fill="url(#gradient4)" fill-rule="evenodd" stroke="none"/>
    <path d="M36.15 13.75 L38.85 13.75 37.75 17.0 30.85 15.45 31.2 14.45 35.1 14.45 36.15 13.75" fill="url(#gradient5)" fill-rule="evenodd" stroke="none"/>
    <path d="M43.75 20.25 L44.6 18.25 46.2 18.3 46.6 18.4 46.65 18.8 45.8 18.8 44.95 20.25 43.75 20.25" fill="#8e2c02" fill-rule="evenodd" stroke="none"/>
    <path d="M39.8 20.25 L38.95 18.8 38.1 18.8 38.15 18.4 38.55 18.3 40.15 18.25 41.0 20.25 39.8 20.25" fill="#8e2c02" fill-rule="evenodd" stroke="none"/>
    <path d="M43.7 17.25 Q43.7 17.9 43.35 17.9 L42.45 17.75 41.55 17.9 Q41.15 17.9 41.15 17.25 41.15 16.5 41.55 15.95 41.95 15.4 42.45 15.4 42.95 15.4 43.35 15.95 43.7 16.5 43.7 17.25" fill="#feaf39" fill-rule="evenodd" stroke="none"/>
  </g>
  <defs>
    <linearGradient gradientTransform="matrix(0.0, -0.019, 0.019, 0.0, 41.1, 15.5)" gradientUnits="userSpaceOnUse" id="gradient0" spreadMethod="pad" x1="-819.2" x2="819.2">
      <stop offset="0.0" stop-color="#373737"/>
      <stop offset="0.6549019607843137" stop-color="#a4a4a4"/>
      <stop offset="0.803921568627451" stop-color="#a4a4a4"/>
      <stop offset="1.0" stop-color="#6b6b6b"/>
    </linearGradient>
    <linearGradient gradientTransform="matrix(0.0, 0.0118, 0.0085, 0.0, 76.4, 15.45)" gradientUnits="userSpaceOnUse" id="gradient1" spreadMethod="pad" x1="-819.2" x2="819.2">
      <stop offset="0.0" stop-color="#eb8242"/>
      <stop offset="0.00392156862745098" stop-color="#e87f40"/>
      <stop offset="0.043137254901960784" stop-color="#cb6129"/>
      <stop offset="0.08627450980392157" stop-color="#b34917"/>
      <stop offset="0.13333333333333333" stop-color="#a3380a"/>
      <stop offset="0.1803921568627451" stop-color="#992e02"/>
      <stop offset="0.24313725490196078" stop-color="#962b00"/>
      <stop offset="0.4392156862745098" stop-color="#982e00"/>
      <stop offset="0.592156862745098" stop-color="#9f3800"/>
      <stop offset="0.7333333333333333" stop-color="#ab4901"/>
      <stop offset="0.8666666666666667" stop-color="#bb6002"/>
      <stop offset="0.996078431372549" stop-color="#d07f03"/>
      <stop offset="1.0" stop-color="#d18003"/>
    </linearGradient>
    <linearGradient gradientTransform="matrix(0.0, -0.0114, -0.0114, 0.0, 42.05, 15.7)" gradientUnits="userSpaceOnUse" id="gradient2" spreadMethod="pad" x1="-819.2" x2="819.2">
      <stop offset="0.0" stop-color="#c4af00" stop-opacity="0.0"/>
      <stop offset="0.24313725490196078" stop-color="#c4c400" stop-opacity="0.023529412"/>
      <stop offset="0.4196078431372549" stop-color="#f9d342" stop-opacity="0.101960786"/>
      <stop offset="0.5764705882352941" stop-color="#e4ce0a" stop-opacity="0.24313726"/>
      <stop offset="0.7215686274509804" stop-color="#feaf39" stop-opacity="0.42352942"/>
      <stop offset="0.8588235294117647" stop-color="#feb445" stop-opacity="0.67058825"/>
      <stop offset="1.0" stop-color="#ffea2b"/>
    </linearGradient>
    <radialGradient cx="0" cy="0" gradientTransform="matrix(0.0, -0.0119, -0.0119, 0.0, 42.4, 15.55)" gradientUnits="userSpaceOnUse" id="gradient3" r="819.2" spreadMethod="pad">
      <stop offset="0.0" stop-color="#e87f40"/>
      <stop offset="0.08627450980392157" stop-color="#e87f40"/>
      <stop offset="0.7058823529411765" stop-color="#eda334"/>
      <stop offset="1.0" stop-color="#e9b438"/>
    </radialGradient>
    <linearGradient gradientTransform="matrix(2.0E-4, -0.002, -0.002, -2.0E-4, 49.9, 15.55)" gradientUnits="userSpaceOnUse" id="gradient4" spreadMethod="pad" x1="-819.2" x2="819.2">
      <stop offset="0.0" stop-color="#dddd00"/>
      <stop offset="0.20392156862745098" stop-color="#f4c402"/>
      <stop offset="0.5607843137254902" stop-color="#d19303"/>
      <stop offset="1.0" stop-color="#ba5e01"/>
    </linearGradient>
    <linearGradient gradientTransform="matrix(-2.0E-4, -0.002, 0.002, -2.0E-4, 34.9, 15.55)" gradientUnits="userSpaceOnUse" id="gradient5" spreadMethod="pad" x1="-819.2" x2="819.2">
      <stop offset="0.0" stop-color="#dddd00"/>
      <stop offset="0.20392156862745098" stop-color="#f4c402"/>
      <stop offset="0.5607843137254902" stop-color="#d19303"/>
      <stop offset="1.0" stop-color="#ba5e01"/>
    </linearGradient>
  </defs>
</svg>
