<?xml version="1.0" encoding="UTF-8" standalone="no"?>
<svg xmlns:ffdec="https://www.free-decompiler.com/flash" xmlns:xlink="http://www.w3.org/1999/xlink" ffdec:objectType="shape" height="27.95px" width="54.85px" xmlns="http://www.w3.org/2000/svg">
  <g transform="matrix(1.0, 0.0, 0.0, 1.0, -13.7, -1.55)">
    <path d="M63.9 2.05 Q65.35 2.5 66.2 3.2 L67.4 4.1 Q68.25 4.75 68.45 6.0 68.7 7.15 68.15 8.1 L57.6 27.1 Q57.05 28.1 55.85 28.75 54.7 29.5 53.55 29.5 L27.8 29.5 Q26.65 29.5 25.5 28.75 24.3 28.05 23.85 27.05 L14.05 8.15 Q13.55 7.15 13.75 5.9 13.95 4.65 14.75 3.85 L15.15 3.4 Q15.95 2.65 17.3 2.1 18.65 1.55 19.8 1.55 L61.4 1.55 63.9 2.05" fill="url(#gradient0)" fill-rule="evenodd" stroke="none"/>
    <path d="M48.15 4.6 Q50.7 4.6 51.95 4.05 53.05 3.5 55.85 3.5 L56.85 3.5 Q58.0 3.5 59.35 4.05 60.7 4.6 61.45 5.4 L61.95 5.85 Q62.7 6.6 62.9 7.85 63.05 9.1 62.55 10.05 L54.6 24.35 52.85 26.0 Q51.7 26.7 50.55 26.7 L50.15 26.7 46.65 26.2 Q45.75 25.75 43.1 25.75 L38.7 25.75 Q35.95 25.75 35.25 26.2 34.55 26.7 31.8 26.7 L31.0 26.7 Q29.85 26.7 28.75 26.0 27.55 25.3 27.05 24.35 L19.7 10.1 Q19.2 9.1 19.35 7.8 19.4 6.45 20.15 5.6 L20.2 5.55 Q20.85 4.7 22.15 4.15 23.45 3.5 24.55 3.5 L26.8 3.5 Q29.55 3.5 30.75 4.05 32.1 4.6 34.7 4.6 L48.15 4.6" fill="#2b2b2a" fill-rule="evenodd" stroke="none"/>
    <path d="M50.45 23.6 L48.95 24.05 32.15 24.05 30.65 23.6 29.55 22.45 23.15 10.15 Q22.85 9.5 22.95 8.7 23.1 7.85 23.6 7.3 L23.85 7.05 25.25 6.15 26.95 5.8 54.05 5.8 55.75 6.1 Q56.7 6.45 57.25 6.9 L58.0 7.45 Q58.55 7.9 58.7 8.7 58.85 9.5 58.5 10.15 L51.65 22.5 50.45 23.6" fill="#043095" fill-rule="evenodd" stroke="none"/>
    <path d="M58.0 7.45 Q58.55 7.9 58.7 8.7 58.85 9.5 58.5 10.15 L51.65 22.5 50.45 23.6 48.95 24.05 32.15 24.05 30.65 23.6 29.55 22.45 23.15 10.15 Q22.85 9.5 22.95 8.7 23.1 7.85 23.6 7.3 L23.85 7.05 25.25 6.15 26.95 5.8 54.05 5.8 55.75 6.1 Q56.7 6.45 57.25 6.9 L58.0 7.45" fill="url(#gradient1)" fill-rule="evenodd" stroke="none"/>
    <path d="M50.45 23.6 L51.65 22.5 58.5 10.15 Q58.85 9.5 58.7 8.7 58.55 7.9 58.0 7.45 L57.25 6.9 Q56.7 6.45 55.75 6.1 L54.05 5.8 26.95 5.8 25.25 6.15 23.85 7.05 23.6 7.3 Q23.1 7.85 22.95 8.7 22.85 9.5 23.15 10.15 L29.55 22.45 30.65 23.6 32.15 24.05 48.95 24.05 50.45 23.6 Z" fill="none" stroke="#069aff" stroke-linecap="butt" stroke-linejoin="miter-clip" stroke-miterlimit="4.0" stroke-width="1.0"/>
    <path d="M34.35 9.75 Q37.55 7.3 42.05 7.3 46.6 7.3 49.75 9.75 52.95 12.2 52.95 15.7 52.95 19.15 49.75 21.6 46.55 24.1 42.05 24.1 37.55 24.1 34.35 21.6 31.15 19.15 31.15 15.7 31.15 12.2 34.35 9.75" fill="url(#gradient2)" fill-rule="evenodd" stroke="none"/>
    <path d="M33.55 16.1 Q33.25 17.05 33.0 16.95 32.75 16.9 32.85 16.0 33.0 15.1 33.35 15.1 33.7 15.2 33.55 16.1" fill="#0677ff" fill-rule="evenodd" stroke="none"/>
    <path d="M50.8 16.1 Q50.65 15.2 50.95 15.1 51.3 15.1 51.45 16.0 51.65 16.9 51.3 16.95 51.0 17.05 50.8 16.1" fill="#0677ff" fill-rule="evenodd" stroke="none"/>
    <path d="M37.0 8.7 L37.45 8.7 40.3 13.7 40.95 13.25 41.7 13.15 42.2 13.3 42.65 13.15 43.4 13.25 44.05 13.7 46.85 8.7 47.3 8.7 45.35 13.75 47.8 13.75 48.75 14.35 52.25 14.35 52.55 15.25 46.35 16.65 46.55 18.55 45.45 18.55 44.6 19.85 43.35 19.85 42.35 21.0 42.35 21.95 41.95 21.95 41.95 21.0 40.95 19.85 39.75 19.85 38.85 18.55 37.75 18.55 38.0 16.65 31.75 15.25 32.05 14.35 35.6 14.35 36.5 13.75 38.95 13.75 37.0 8.7" fill="url(#gradient3)" fill-rule="evenodd" stroke="none"/>
    <path d="M52.55 15.25 L46.35 16.65 45.35 13.75 47.8 13.75 48.75 14.35 52.25 14.35 52.55 15.25" fill="url(#gradient4)" fill-rule="evenodd" stroke="none"/>
    <path d="M38.95 13.75 L38.0 16.65 31.75 15.25 32.05 14.35 35.6 14.35 36.5 13.75 38.95 13.75" fill="url(#gradient5)" fill-rule="evenodd" stroke="none"/>
    <path d="M43.4 19.6 L44.15 17.8 45.6 17.8 45.95 17.9 46.0 18.25 45.25 18.25 44.45 19.6 43.4 19.6" fill="#0546ad" fill-rule="evenodd" stroke="none"/>
    <path d="M40.9 19.6 L39.85 19.6 39.05 18.25 38.3 18.25 38.35 17.9 38.7 17.8 40.15 17.8 40.9 19.6" fill="#0546ad" fill-rule="evenodd" stroke="none"/>
    <path d="M43.35 16.9 Q43.35 17.45 43.05 17.45 L42.2 17.35 41.4 17.45 Q41.05 17.45 41.05 16.9 41.05 16.2 41.4 15.7 41.75 15.2 42.2 15.2 42.65 15.2 43.05 15.7 L43.35 16.9" fill="#17e9ff" fill-rule="evenodd" stroke="none"/>
    <path d="M41.75 16.0 L41.55 16.2 Q41.35 16.0 41.6 15.75 41.75 15.4 41.95 15.55 L41.95 15.7 41.75 16.0" fill="#2eceff" fill-rule="evenodd" stroke="none"/>
  </g>
  <defs>
    <linearGradient gradientTransform="matrix(0.0, -0.0171, 0.0171, 0.0, 41.1, 15.5)" gradientUnits="userSpaceOnUse" id="gradient0" spreadMethod="pad" x1="-819.2" x2="819.2">
      <stop offset="0.0" stop-color="#373737"/>
      <stop offset="0.6549019607843137" stop-color="#a4a4a4"/>
      <stop offset="0.803921568627451" stop-color="#a4a4a4"/>
      <stop offset="1.0" stop-color="#6b6b6b"/>
    </linearGradient>
    <linearGradient gradientTransform="matrix(0.0, 0.0188, 0.0156, 0.0, 10.85, 20.45)" gradientUnits="userSpaceOnUse" id="gradient1" spreadMethod="pad" x1="-819.2" x2="819.2">
      <stop offset="0.0" stop-color="#0078ff"/>
      <stop offset="0.0196078431372549" stop-color="#0074ff" stop-opacity="0.90588236"/>
      <stop offset="0.12941176470588237" stop-color="#0063ff" stop-opacity="0.49803922"/>
      <stop offset="0.26666666666666666" stop-color="#0058ff" stop-opacity="0.20784314"/>
      <stop offset="0.4627450980392157" stop-color="#0051ff" stop-opacity="0.043137256"/>
      <stop offset="1.0" stop-color="#004fff" stop-opacity="0.0"/>
    </linearGradient>
    <linearGradient gradientTransform="matrix(0.0, -0.0102, -0.0102, 0.0, 42.05, 15.7)" gradientUnits="userSpaceOnUse" id="gradient2" spreadMethod="pad" x1="-819.2" x2="819.2">
      <stop offset="0.0" stop-color="#065abf" stop-opacity="0.0"/>
      <stop offset="0.24313725490196078" stop-color="#065dc0" stop-opacity="0.023529412"/>
      <stop offset="0.4196078431372549" stop-color="#0666c3" stop-opacity="0.101960786"/>
      <stop offset="0.5764705882352941" stop-color="#0676c9" stop-opacity="0.23529412"/>
      <stop offset="0.7215686274509804" stop-color="#068dd1" stop-opacity="0.42352942"/>
      <stop offset="0.8588235294117647" stop-color="#05aadb" stop-opacity="0.67058825"/>
      <stop offset="0.9882352941176471" stop-color="#05cde7" stop-opacity="0.9647059"/>
      <stop offset="1.0" stop-color="#05d1e8"/>
    </linearGradient>
    <radialGradient cx="0" cy="0" gradientTransform="matrix(0.0107, 0.0, 0.0, -0.0107, 42.2, 15.35)" gradientUnits="userSpaceOnUse" id="gradient3" r="819.2" spreadMethod="pad">
      <stop offset="0.0" stop-color="#2b9eff"/>
      <stop offset="0.08627450980392157" stop-color="#30a7ff"/>
      <stop offset="0.7058823529411765" stop-color="#50e6ff"/>
      <stop offset="1.0" stop-color="#5cffff"/>
    </radialGradient>
    <linearGradient gradientTransform="matrix(2.0E-4, -0.0018, -0.0018, -2.0E-4, 48.95, 15.35)" gradientUnits="userSpaceOnUse" id="gradient4" spreadMethod="pad" x1="-819.2" x2="819.2">
      <stop offset="0.0" stop-color="#00b0ff"/>
      <stop offset="0.20392156862745098" stop-color="#00a6fc"/>
      <stop offset="0.5607843137254902" stop-color="#0089f6"/>
      <stop offset="1.0" stop-color="#005eeb"/>
    </linearGradient>
    <linearGradient gradientTransform="matrix(2.0E-4, -0.0018, -0.0018, -2.0E-4, 35.3, 14.9)" gradientUnits="userSpaceOnUse" id="gradient5" spreadMethod="pad" x1="-819.2" x2="819.2">
      <stop offset="0.0" stop-color="#00b0ff"/>
      <stop offset="0.20392156862745098" stop-color="#00a6fc"/>
      <stop offset="0.5607843137254902" stop-color="#0089f6"/>
      <stop offset="1.0" stop-color="#005eeb"/>
    </linearGradient>
  </defs>
</svg>
