<?xml version="1.0" encoding="UTF-8" standalone="no"?>
<svg xmlns:ffdec="https://www.free-decompiler.com/flash" xmlns:xlink="http://www.w3.org/1999/xlink" ffdec:objectType="shape" height="95.95px" width="96.0px" xmlns="http://www.w3.org/2000/svg">
  <g transform="matrix(1.0, 0.0, 0.0, 1.0, 0.0, 0.0)">
    <path d="M95.1 52.65 Q94.4 61.45 90.5 69.4 86.65 77.35 80.1 83.4 73.5 89.5 65.2 92.7 56.9 95.95 47.95 95.95 39.0 95.95 30.7 92.7 22.4 89.45 15.85 83.35 9.3 77.3 5.45 69.35 1.55 61.4 0.85 52.55 L0.75 51.5 15.45 51.5 15.55 52.4 Q17.0 64.75 26.25 73.0 35.55 81.25 48.0 81.25 60.4 81.25 69.7 73.0 79.0 64.8 80.4 52.45 L80.5 51.55 95.2 51.55 95.1 52.65 M81.1 46.15 L81.0 45.2 Q79.95 32.45 70.4 23.65 60.8 14.85 48.0 14.85 35.2 14.85 25.6 23.65 16.05 32.4 14.95 45.15 L14.85 46.1 0.0 46.05 0.05 45.0 Q1.2 26.05 15.1 13.05 29.0 0.0 48.0 0.0 67.0 0.0 80.9 13.05 94.8 26.15 95.9 45.1 L96.0 46.15 81.1 46.15" fill="#989898" fill-rule="evenodd" stroke="none"/>
  </g>
</svg>
