<?xml version="1.0" encoding="UTF-8" standalone="no"?>
<svg xmlns:ffdec="https://www.free-decompiler.com/flash" xmlns:xlink="http://www.w3.org/1999/xlink" ffdec:objectType="shape" height="31.05px" width="60.9px" xmlns="http://www.w3.org/2000/svg">
  <g transform="matrix(1.0, 0.0, 0.0, 1.0, -10.65, -0.05)">
    <path d="M59.45 28.45 Q58.8 29.55 57.5 30.3 56.2 31.1 54.95 31.1 L26.3 31.1 Q25.05 31.1 23.75 30.3 22.45 29.5 21.9 28.4 L11.05 7.4 Q10.5 6.3 10.7 4.9 10.9 3.5 11.8 2.65 L12.25 2.15 14.65 0.65 Q16.15 0.05 17.4 0.05 L63.65 0.05 Q64.9 0.05 66.45 0.6 68.05 1.1 69.0 1.9 L70.3 2.9 Q71.25 3.65 71.5 5.0 71.75 6.3 71.15 7.35 L59.45 28.45" fill="url(#gradient0)" fill-rule="evenodd" stroke="none"/>
    <path d="M48.9 3.4 L53.15 2.8 Q54.35 2.2 57.45 2.2 L58.6 2.2 61.35 2.8 Q62.85 3.45 63.7 4.3 L64.25 4.8 Q65.1 5.65 65.3 7.05 65.5 8.45 64.9 9.5 L56.1 25.35 Q55.5 26.45 54.15 27.2 52.85 28.0 51.6 28.0 L51.15 28.0 47.25 27.45 Q46.25 26.9 43.3 26.9 L38.4 26.9 Q35.35 26.9 34.6 27.45 33.8 28.0 30.75 28.0 L29.85 28.0 Q28.6 28.0 27.35 27.2 26.05 26.45 25.45 25.35 L17.3 9.55 Q16.75 8.45 16.9 7.0 17.0 5.5 17.8 4.55 L17.85 4.5 Q18.6 3.55 20.05 2.9 21.45 2.2 22.7 2.2 L25.2 2.2 Q28.25 2.2 29.6 2.8 31.1 3.4 34.0 3.4 L48.9 3.4" fill="#2b2b2a" fill-rule="evenodd" stroke="none"/>
    <path d="M55.5 4.8 L57.35 5.15 Q58.4 5.5 59.05 6.0 L59.85 6.65 Q60.5 7.15 60.65 8.0 60.8 8.9 60.4 9.6 L52.8 23.35 51.5 24.55 Q50.65 25.05 49.8 25.05 L31.15 25.05 Q30.35 25.05 29.5 24.55 28.65 24.0 28.25 23.3 L21.15 9.65 Q20.8 8.9 20.95 8.0 21.1 7.05 21.65 6.45 L21.9 6.2 Q22.5 5.6 23.5 5.2 24.5 4.8 25.35 4.8 L55.5 4.8" fill="#03287a" fill-rule="evenodd" stroke="none"/>
    <path d="M55.5 4.8 L25.35 4.8 Q24.5 4.8 23.5 5.2 22.5 5.6 21.9 6.2 L21.65 6.45 Q21.1 7.05 20.95 8.0 20.8 8.9 21.15 9.65 L28.25 23.3 Q28.65 24.0 29.5 24.55 30.35 25.05 31.15 25.05 L49.8 25.05 Q50.65 25.05 51.5 24.55 L52.8 23.35 60.4 9.6 Q60.8 8.9 60.65 8.0 60.5 7.15 59.85 6.65 L59.05 6.0 Q58.4 5.5 57.35 5.15 L55.5 4.8 Z" fill="none" stroke="#069aff" stroke-linecap="butt" stroke-linejoin="miter-clip" stroke-miterlimit="4.0" stroke-width="1.0"/>
    <path d="M43.05 9.15 L39.8 10.15 43.0 7.55 46.25 10.15 43.05 9.15" fill="#50ceff" fill-rule="evenodd" stroke="none"/>
    <path d="M55.5 15.1 L54.3 17.05 50.9 17.9 49.35 18.9 48.75 18.85 48.6 19.05 47.85 19.35 45.85 19.4 43.95 18.7 41.7 18.8 40.7 21.35 44.5 21.35 44.5 21.8 39.7 22.3 39.7 21.35 40.15 21.3 40.95 18.8 38.75 19.0 38.15 19.95 36.5 20.5 34.0 19.7 32.95 20.1 32.2 20.15 30.75 19.75 29.9 19.25 29.5 19.15 28.75 18.8 28.15 18.05 27.95 17.4 26.6 17.4 26.6 16.35 27.9 16.35 28.0 15.4 28.7 14.45 29.75 14.2 30.4 13.8 31.55 13.3 32.7 13.15 32.85 13.05 33.7 12.35 37.8 12.55 38.05 12.3 37.15 10.55 36.15 10.55 36.15 9.6 40.9 10.1 40.9 10.55 37.8 10.55 39.35 12.2 40.65 13.0 42.3 13.2 42.85 12.95 43.2 13.1 43.4 12.45 44.0 12.25 44.1 12.35 44.35 12.3 44.7 12.45 45.6 12.05 45.8 12.25 45.05 12.75 45.2 12.95 44.9 13.1 44.95 13.2 45.25 13.2 45.55 13.55 50.3 13.8 50.15 14.55 55.5 15.1" fill="url(#gradient1)" fill-rule="evenodd" stroke="none"/>
    <path d="M32.65 13.75 L32.85 13.8 Q32.1 13.9 31.6 14.75 31.05 15.55 31.05 16.7 31.05 17.85 31.6 18.7 32.1 19.5 32.85 19.65 L32.65 19.65 Q31.8 19.65 31.2 18.8 30.6 17.95 30.6 16.7 30.6 15.5 31.2 14.65 31.8 13.75 32.65 13.75" fill="#27baff" fill-rule="evenodd" stroke="none"/>
    <path d="M33.0 16.65 Q33.0 16.9 32.5 16.9 L31.65 16.9 Q31.1 16.9 31.1 16.65 31.1 16.4 31.65 16.4 L32.5 16.4 Q33.0 16.4 33.0 16.65" fill="#94fdff" fill-rule="evenodd" stroke="none"/>
    <path d="M33.15 15.4 L32.6 15.5 31.75 15.25 31.4 15.05 Q31.3 14.95 31.35 14.85 L31.9 14.75 32.75 15.0 33.15 15.4" fill="#94fdff" fill-rule="evenodd" stroke="none"/>
    <path d="M33.5 14.35 L32.9 14.3 32.55 14.1 Q32.15 13.85 32.25 13.65 32.35 13.4 32.8 13.65 L33.2 13.85 Q33.65 14.1 33.5 14.35" fill="#94fdff" fill-rule="evenodd" stroke="none"/>
    <path d="M33.0 17.75 L32.55 18.1 31.7 18.3 31.15 18.15 Q31.1 17.85 31.6 17.8 L32.45 17.55 Q32.95 17.45 33.0 17.75" fill="#94fdff" fill-rule="evenodd" stroke="none"/>
    <path d="M33.5 18.8 Q33.65 19.05 33.2 19.25 L32.85 19.45 32.3 19.5 Q32.2 19.2 32.6 19.0 L32.95 18.8 Q33.4 18.55 33.5 18.8" fill="#94fdff" fill-rule="evenodd" stroke="none"/>
    <path d="M48.8 18.9 L48.65 19.1 48.35 19.25 47.9 19.4 45.85 19.45 44.0 18.7 41.75 18.85 40.7 21.4 44.55 21.4 44.55 21.85 39.75 21.85 39.75 21.4 40.0 21.4 40.15 21.35 41.0 18.85 38.8 19.0 38.2 20.0 36.55 20.55 34.05 19.75 33.95 19.65 33.05 16.5 33.65 16.65 37.55 16.7 38.55 17.45 41.2 17.45 42.65 16.7 46.85 16.9 46.85 19.15 48.8 18.9" fill="#0a6cd3" fill-rule="evenodd" stroke="none"/>
    <path d="M36.55 20.25 L37.05 19.15 38.55 18.85 38.0 19.7 36.55 20.25" fill="#04357c" fill-rule="evenodd" stroke="none"/>
    <path d="M52.65 17.25 L53.4 16.2 55.05 15.6 54.2 16.8 52.65 17.25" fill="#0669d1" fill-rule="evenodd" stroke="none"/>
    <path d="M50.0 14.0 L50.0 14.15 46.85 16.9 42.65 16.7 41.2 17.45 38.55 17.45 37.55 16.7 33.25 16.65 33.25 16.15 37.55 16.4 38.55 16.85 41.2 16.85 42.6 16.4 46.85 16.7 50.0 14.0" fill="#0466cc" fill-rule="evenodd" stroke="none"/>
    <path d="M43.05 11.4 L39.8 12.4 43.0 9.8 46.25 12.4 43.05 11.4" fill="#50ceff" fill-rule="evenodd" stroke="none"/>
  </g>
  <defs>
    <linearGradient gradientTransform="matrix(0.0, -0.019, 0.019, 0.0, 41.1, 15.55)" gradientUnits="userSpaceOnUse" id="gradient0" spreadMethod="pad" x1="-819.2" x2="819.2">
      <stop offset="0.0" stop-color="#373737"/>
      <stop offset="0.6549019607843137" stop-color="#a4a4a4"/>
      <stop offset="0.803921568627451" stop-color="#a4a4a4"/>
      <stop offset="1.0" stop-color="#6b6b6b"/>
    </linearGradient>
    <linearGradient gradientTransform="matrix(0.0176, 0.0, 0.0, -0.0176, 41.05, 15.95)" gradientUnits="userSpaceOnUse" id="gradient1" spreadMethod="pad" x1="-819.2" x2="819.2">
      <stop offset="0.0" stop-color="#095cfa"/>
      <stop offset="0.17254901960784313" stop-color="#1775fb"/>
      <stop offset="0.6470588235294118" stop-color="#40c7ff"/>
      <stop offset="1.0" stop-color="#4dd6ff"/>
    </linearGradient>
  </defs>
</svg>
