<?xml version="1.0" encoding="UTF-8" standalone="no"?>
<svg xmlns:ffdec="https://www.free-decompiler.com/flash" xmlns:xlink="http://www.w3.org/1999/xlink" ffdec:objectType="shape" height="31.05px" width="60.9px" xmlns="http://www.w3.org/2000/svg">
  <g transform="matrix(1.0, 0.0, 0.0, 1.0, -10.65, 0.0)">
    <path d="M63.65 0.0 Q64.9 0.0 66.45 0.55 68.05 1.05 69.0 1.85 L70.3 2.85 Q71.25 3.6 71.5 4.95 71.75 6.25 71.15 7.3 L59.45 28.4 Q58.8 29.5 57.5 30.25 56.2 31.05 54.95 31.05 L26.3 31.05 Q25.05 31.05 23.75 30.25 22.45 29.45 21.9 28.35 L11.05 7.35 Q10.5 6.25 10.7 4.85 10.9 3.45 11.8 2.6 L12.25 2.1 14.65 0.6 Q16.15 0.0 17.4 0.0 L63.65 0.0" fill="url(#gradient0)" fill-rule="evenodd" stroke="none"/>
    <path d="M48.9 3.35 L53.15 2.75 Q54.35 2.15 57.45 2.15 L58.6 2.15 61.35 2.75 Q62.85 3.4 63.7 4.25 L64.25 4.75 Q65.1 5.6 65.3 7.0 65.5 8.4 64.9 9.45 L56.1 25.3 Q55.5 26.4 54.15 27.15 52.85 27.95 51.6 27.95 L51.15 27.95 47.25 27.4 Q46.25 26.85 43.3 26.85 L38.4 26.85 Q35.35 26.85 34.6 27.4 33.8 27.95 30.75 27.95 L29.85 27.95 Q28.6 27.95 27.35 27.15 26.05 26.4 25.45 25.3 L17.3 9.5 Q16.75 8.4 16.9 6.95 17.0 5.45 17.8 4.5 L17.85 4.45 Q18.6 3.5 20.05 2.85 21.45 2.15 22.7 2.15 L25.2 2.15 Q28.25 2.15 29.6 2.75 31.1 3.35 34.0 3.35 L48.9 3.35" fill="#2b2b2a" fill-rule="evenodd" stroke="none"/>
    <path d="M52.8 23.3 L51.5 24.5 Q50.65 25.0 49.8 25.0 L31.15 25.0 Q30.35 25.0 29.5 24.5 28.65 23.95 28.25 23.25 L21.15 9.6 Q20.8 8.85 20.95 7.95 21.1 7.0 21.65 6.4 L21.9 6.15 Q22.5 5.55 23.5 5.15 24.5 4.75 25.35 4.75 L55.5 4.75 57.35 5.1 Q58.4 5.45 59.05 5.95 L59.85 6.6 Q60.5 7.1 60.65 7.95 60.8 8.85 60.4 9.55 L52.8 23.3" fill="url(#gradient1)" fill-rule="evenodd" stroke="none"/>
    <path d="M52.8 23.3 L60.4 9.55 Q60.8 8.85 60.65 7.95 60.5 7.1 59.85 6.6 L59.05 5.95 Q58.4 5.45 57.35 5.1 L55.5 4.75 25.35 4.75 Q24.5 4.75 23.5 5.15 22.5 5.55 21.9 6.15 L21.65 6.4 Q21.1 7.0 20.95 7.95 20.8 8.85 21.15 9.6 L28.25 23.25 Q28.65 23.95 29.5 24.5 30.35 25.0 31.15 25.0 L49.8 25.0 Q50.65 25.0 51.5 24.5 L52.8 23.3 Z" fill="none" stroke="#f19e24" stroke-linecap="butt" stroke-linejoin="miter-clip" stroke-miterlimit="4.0" stroke-width="1.0"/>
    <path d="M52.8 23.3 L60.4 9.55 Q60.8 8.85 60.65 7.95 60.5 7.1 59.85 6.6 L59.05 5.95 Q58.4 5.45 57.35 5.1 L55.5 4.75 25.35 4.75 Q24.5 4.75 23.5 5.15 22.5 5.55 21.9 6.15 L21.65 6.4 Q21.1 7.0 20.95 7.95 20.8 8.85 21.15 9.6 L28.25 23.25 Q28.65 23.95 29.5 24.5 30.35 25.0 31.15 25.0 L49.8 25.0 Q50.65 25.0 51.5 24.5 L52.8 23.3 Z" fill="none" stroke="#f19e24" stroke-linecap="butt" stroke-linejoin="miter-clip" stroke-miterlimit="4.0" stroke-width="1.0"/>
    <path d="M43.05 9.1 L39.8 10.1 43.0 7.5 46.25 10.1 43.05 9.1" fill="#fdd32d" fill-rule="evenodd" stroke="none"/>
    <path d="M32.7 13.1 L32.85 13.0 33.7 12.3 37.8 12.5 38.05 12.25 37.15 10.5 36.15 10.5 36.15 9.55 40.9 10.05 40.9 10.5 37.8 10.5 39.35 12.15 40.65 12.95 42.3 13.15 42.85 12.9 43.2 13.05 43.4 12.4 44.0 12.2 44.1 12.3 44.35 12.25 44.7 12.4 45.6 12.0 45.8 12.2 45.05 12.7 45.2 12.9 44.9 13.05 44.95 13.15 45.25 13.15 45.55 13.5 50.3 13.75 50.15 14.5 55.5 15.05 54.3 17.0 50.9 17.85 49.35 18.85 48.75 18.8 48.6 19.0 47.85 19.3 45.85 19.35 43.95 18.65 41.7 18.75 40.7 21.3 44.5 21.3 44.5 21.75 39.7 22.25 39.7 21.3 40.15 21.25 40.95 18.75 38.75 18.95 38.15 19.9 36.5 20.45 34.0 19.65 32.95 20.05 32.2 20.1 30.75 19.7 29.9 19.2 29.5 19.1 28.75 18.75 28.15 18.0 27.95 17.35 26.6 17.35 26.6 16.3 27.9 16.3 28.0 15.35 28.7 14.4 29.75 14.15 30.4 13.75 31.55 13.25 32.7 13.1" fill="url(#gradient2)" fill-rule="evenodd" stroke="none"/>
    <path d="M32.65 13.7 L32.85 13.75 Q32.1 13.85 31.6 14.7 31.05 15.5 31.05 16.65 31.05 17.8 31.6 18.65 32.1 19.45 32.85 19.6 L32.65 19.6 Q31.8 19.6 31.2 18.75 30.6 17.9 30.6 16.65 30.6 15.45 31.2 14.6 31.8 13.7 32.65 13.7" fill="#f46302" fill-rule="evenodd" stroke="none"/>
    <path d="M33.0 16.6 Q33.0 16.85 32.5 16.85 L31.65 16.85 Q31.1 16.85 31.1 16.6 31.1 16.35 31.65 16.35 L32.5 16.35 Q33.0 16.35 33.0 16.6" fill="#fee892" fill-rule="evenodd" stroke="none"/>
    <path d="M33.15 15.35 L32.6 15.45 31.75 15.2 31.4 15.0 Q31.3 14.9 31.35 14.8 L31.9 14.7 32.75 14.95 33.15 15.35" fill="#fee892" fill-rule="evenodd" stroke="none"/>
    <path d="M33.5 14.3 L32.9 14.25 32.55 14.05 Q32.15 13.8 32.25 13.6 32.35 13.35 32.8 13.6 L33.2 13.8 Q33.65 14.05 33.5 14.3" fill="#fee892" fill-rule="evenodd" stroke="none"/>
    <path d="M33.0 17.7 L32.55 18.05 31.7 18.25 31.15 18.1 Q31.1 17.8 31.6 17.75 L32.45 17.5 Q32.95 17.4 33.0 17.7" fill="#fee892" fill-rule="evenodd" stroke="none"/>
    <path d="M33.5 18.75 Q33.65 19.0 33.2 19.2 L32.85 19.4 32.3 19.45 Q32.2 19.15 32.6 18.95 L32.95 18.75 Q33.4 18.5 33.5 18.75" fill="#fee892" fill-rule="evenodd" stroke="none"/>
    <path d="M37.55 16.65 L38.55 17.4 41.2 17.4 42.65 16.65 46.85 16.85 46.85 19.1 48.8 18.85 48.65 19.05 48.35 19.2 47.9 19.35 45.85 19.4 44.0 18.65 41.75 18.8 40.7 21.35 44.55 21.35 44.55 21.8 39.75 21.8 39.75 21.35 40.0 21.35 40.15 21.3 41.0 18.8 38.8 18.95 38.2 19.95 36.55 20.5 34.05 19.7 33.95 19.6 33.05 16.45 33.65 16.6 37.55 16.65" fill="#d36001" fill-rule="evenodd" stroke="none"/>
    <path d="M36.55 20.2 L37.05 19.1 38.55 18.8 38.0 19.65 36.55 20.2" fill="#934900" fill-rule="evenodd" stroke="none"/>
    <path d="M52.65 17.2 L53.4 16.15 55.05 15.55 54.2 16.75 52.65 17.2" fill="#fd882c" fill-rule="evenodd" stroke="none"/>
    <path d="M37.55 16.35 L38.55 16.8 41.2 16.8 42.6 16.35 46.85 16.65 50.0 13.95 50.0 14.1 46.85 16.85 42.65 16.65 41.2 17.4 38.55 17.4 37.55 16.65 33.25 16.6 33.25 16.1 37.55 16.35" fill="#a05001" fill-rule="evenodd" stroke="none"/>
    <path d="M43.05 11.35 L39.8 12.35 43.0 9.75 46.25 12.35 43.05 11.35" fill="#fdd32d" fill-rule="evenodd" stroke="none"/>
  </g>
  <defs>
    <linearGradient gradientTransform="matrix(0.0, -0.019, 0.019, 0.0, 41.1, 15.5)" gradientUnits="userSpaceOnUse" id="gradient0" spreadMethod="pad" x1="-819.2" x2="819.2">
      <stop offset="0.0" stop-color="#373737"/>
      <stop offset="0.6549019607843137" stop-color="#a4a4a4"/>
      <stop offset="0.803921568627451" stop-color="#a4a4a4"/>
      <stop offset="1.0" stop-color="#6b6b6b"/>
    </linearGradient>
    <linearGradient gradientTransform="matrix(0.0, 0.0118, 0.0085, 0.0, 76.4, 15.45)" gradientUnits="userSpaceOnUse" id="gradient1" spreadMethod="pad" x1="-819.2" x2="819.2">
      <stop offset="0.0" stop-color="#eb8242"/>
      <stop offset="0.00392156862745098" stop-color="#e87f40"/>
      <stop offset="0.043137254901960784" stop-color="#cb6129"/>
      <stop offset="0.08627450980392157" stop-color="#b34917"/>
      <stop offset="0.13333333333333333" stop-color="#a3380a"/>
      <stop offset="0.1803921568627451" stop-color="#992e02"/>
      <stop offset="0.24313725490196078" stop-color="#962b00"/>
      <stop offset="0.4392156862745098" stop-color="#982e00"/>
      <stop offset="0.592156862745098" stop-color="#9f3800"/>
      <stop offset="0.7333333333333333" stop-color="#ab4901"/>
      <stop offset="0.8666666666666667" stop-color="#bb6002"/>
      <stop offset="0.996078431372549" stop-color="#d07f03"/>
      <stop offset="1.0" stop-color="#d18003"/>
    </linearGradient>
    <linearGradient gradientTransform="matrix(0.0176, 0.0, 0.0, -0.0176, 41.05, 15.9)" gradientUnits="userSpaceOnUse" id="gradient2" spreadMethod="pad" x1="-819.2" x2="819.2">
      <stop offset="0.0" stop-color="#c47500"/>
      <stop offset="0.3215686274509804" stop-color="#f4ab02"/>
      <stop offset="0.6470588235294118" stop-color="#fdbe2d"/>
      <stop offset="1.0" stop-color="#ffcc33"/>
    </linearGradient>
  </defs>
</svg>
