<?xml version="1.0" encoding="UTF-8" standalone="no"?>
<svg xmlns:ffdec="https://www.free-decompiler.com/flash" xmlns:xlink="http://www.w3.org/1999/xlink" ffdec:objectType="shape" height="31.05px" width="60.9px" xmlns="http://www.w3.org/2000/svg">
  <g transform="matrix(1.0, 0.0, 0.0, 1.0, -10.65, -0.05)">
    <path d="M59.45 28.45 Q58.8 29.55 57.5 30.3 56.2 31.1 54.95 31.1 L26.3 31.1 Q25.05 31.1 23.75 30.3 22.45 29.5 21.9 28.4 L11.05 7.4 Q10.5 6.3 10.7 4.9 10.9 3.5 11.8 2.65 L12.25 2.15 14.65 0.65 Q16.15 0.05 17.4 0.05 L63.65 0.05 Q64.9 0.05 66.45 0.6 68.05 1.1 69.0 1.9 L70.3 2.9 Q71.25 3.65 71.5 5.0 71.75 6.3 71.15 7.35 L59.45 28.45" fill="url(#gradient0)" fill-rule="evenodd" stroke="none"/>
    <path d="M48.9 3.4 L53.15 2.8 Q54.35 2.2 57.45 2.2 L58.6 2.2 61.35 2.8 Q62.85 3.45 63.7 4.3 L64.25 4.8 Q65.1 5.65 65.3 7.05 65.5 8.45 64.9 9.5 L56.1 25.35 Q55.5 26.45 54.15 27.2 52.85 28.0 51.6 28.0 L51.15 28.0 47.25 27.45 Q46.25 26.9 43.3 26.9 L38.4 26.9 Q35.35 26.9 34.6 27.45 33.8 28.0 30.75 28.0 L29.85 28.0 Q28.6 28.0 27.35 27.2 26.05 26.45 25.45 25.35 L17.3 9.55 Q16.75 8.45 16.9 7.0 17.0 5.5 17.8 4.55 L17.85 4.5 Q18.6 3.55 20.05 2.9 21.45 2.2 22.7 2.2 L25.2 2.2 Q28.25 2.2 29.6 2.8 31.1 3.4 34.0 3.4 L48.9 3.4" fill="#2b2b2a" fill-rule="evenodd" stroke="none"/>
    <path d="M55.5 4.8 L57.35 5.15 Q58.4 5.5 59.05 6.0 L59.85 6.65 Q60.5 7.15 60.65 8.0 60.8 8.9 60.4 9.6 L52.8 23.35 51.5 24.55 Q50.65 25.05 49.8 25.05 L31.15 25.05 Q30.35 25.05 29.5 24.55 28.65 24.0 28.25 23.3 L21.15 9.65 Q20.8 8.9 20.95 8.0 21.1 7.05 21.65 6.45 L21.9 6.2 Q22.5 5.6 23.5 5.2 24.5 4.8 25.35 4.8 L55.5 4.8" fill="#03287a" fill-rule="evenodd" stroke="none"/>
    <path d="M55.5 4.8 L25.35 4.8 Q24.5 4.8 23.5 5.2 22.5 5.6 21.9 6.2 L21.65 6.45 Q21.1 7.05 20.95 8.0 20.8 8.9 21.15 9.65 L28.25 23.3 Q28.65 24.0 29.5 24.55 30.35 25.05 31.15 25.05 L49.8 25.05 Q50.65 25.05 51.5 24.55 L52.8 23.35 60.4 9.6 Q60.8 8.9 60.65 8.0 60.5 7.15 59.85 6.65 L59.05 6.0 Q58.4 5.5 57.35 5.15 L55.5 4.8 Z" fill="none" stroke="#069aff" stroke-linecap="butt" stroke-linejoin="miter-clip" stroke-miterlimit="4.0" stroke-width="1.0"/>
    <path d="M48.45 18.3 L48.4 18.05 Q48.2 16.6 48.95 14.7 L49.0 14.65 Q51.1 16.1 51.65 17.75 L51.6 17.75 Q49.75 17.0 48.55 18.75 L48.45 18.55 48.45 18.45 48.45 18.3 M30.55 17.25 Q31.0 16.05 32.3 14.95 L32.25 14.95 33.0 14.35 33.15 14.35 33.25 14.35 33.4 14.9 33.5 15.4 33.75 17.7 33.7 18.05 33.6 18.15 Q32.65 16.65 30.55 17.25" fill="#1f5ff1" fill-rule="evenodd" stroke="none"/>
    <path d="M48.45 18.3 L48.45 18.45 48.45 18.55 48.55 18.75 49.15 20.1 49.15 20.15 48.45 20.4 47.9 20.6 Q45.3 21.75 42.65 22.85 43.7 21.4 42.9 19.95 L42.65 19.45 48.45 18.3" fill="url(#gradient1)" fill-rule="evenodd" stroke="none"/>
    <path d="M48.4 18.05 L48.45 18.3 42.65 19.45 42.55 19.35 44.2 18.6 44.2 18.75 48.4 18.05 M37.5 18.45 L39.85 19.3 39.65 19.45 35.25 18.4 34.1 18.2 33.75 18.1 33.7 18.05 33.75 17.7 37.5 18.55 37.5 18.45" fill="#044db7" fill-rule="evenodd" stroke="none"/>
    <path d="M41.8 15.3 L42.05 14.4 42.0 13.95 41.8 13.5 Q41.5 13.15 41.15 13.15 40.75 13.15 40.55 13.5 L40.3 13.95 40.25 14.4 Q40.25 14.95 40.55 15.3 L41.15 15.7 41.8 15.3 M41.35 9.6 L42.3 12.3 42.35 12.35 Q43.35 13.95 43.9 16.45 L43.95 16.85 37.9 16.85 37.85 16.85 38.0 16.45 Q38.8 13.75 40.05 12.3 L41.35 9.6" fill="url(#gradient2)" fill-rule="evenodd" stroke="none"/>
    <path d="M41.8 15.3 L41.15 15.7 40.55 15.3 Q40.25 14.95 40.25 14.4 L40.3 13.95 40.55 13.5 Q40.75 13.15 41.15 13.15 41.5 13.15 41.8 13.5 L42.0 13.95 42.05 14.4 41.8 15.3" fill="#94fdff" fill-rule="evenodd" stroke="none"/>
    <path d="M44.2 18.6 L42.55 19.35 Q41.3 18.35 39.9 19.2 L39.85 19.3 37.5 18.45 37.85 16.95 37.9 16.85 43.95 16.85 43.9 16.45 43.95 16.45 44.2 18.6" fill="url(#gradient3)" fill-rule="evenodd" stroke="none"/>
    <path d="M42.25 19.9 Q43.15 21.15 42.45 22.45 L41.5 22.9 Q40.2 23.25 39.75 22.1 38.9 20.05 41.05 19.25 L41.45 19.35 Q41.95 19.55 42.25 19.9" fill="url(#gradient4)" fill-rule="evenodd" stroke="none"/>
    <path d="M42.55 19.35 L42.65 19.45 42.9 19.95 Q43.7 21.4 42.65 22.85 L42.3 22.95 39.5 22.8 39.3 22.55 Q38.3 20.8 39.65 19.45 L39.85 19.3 39.9 19.2 Q41.3 18.35 42.55 19.35 M42.25 19.9 Q41.95 19.55 41.45 19.35 L41.05 19.25 Q38.9 20.05 39.75 22.1 40.2 23.25 41.5 22.9 L42.45 22.45 Q43.15 21.15 42.25 19.9 M49.15 19.15 L49.9 19.95 50.7 20.7 50.55 20.95 49.65 20.2 49.05 19.4 49.05 19.15 49.15 19.15 M33.1 18.95 L33.2 19.05 32.65 19.9 31.7 20.65 31.6 20.45 32.5 19.75 32.7 19.25 33.1 18.95" fill="#48eafb" fill-rule="evenodd" stroke="none"/>
    <path d="M48.55 18.75 Q49.75 17.0 51.6 17.75 L51.65 17.75 Q52.35 19.6 51.2 21.5 L51.05 21.5 Q49.85 21.0 49.2 20.05 L49.15 20.1 48.55 18.75 M34.25 20.4 L33.95 20.25 34.25 20.35 34.25 20.4 M33.05 19.85 L33.0 19.8 Q32.4 20.65 31.1 21.2 29.65 19.15 30.55 17.25 32.65 16.65 33.6 18.15 L33.7 18.25 33.7 18.05 33.75 18.1 33.7 18.25 33.05 19.85 M49.15 19.15 L49.05 19.15 49.05 19.4 49.65 20.2 50.55 20.95 50.7 20.7 49.9 19.95 49.15 19.15 M33.1 18.95 L32.7 19.25 32.5 19.75 31.6 20.45 31.7 20.65 32.65 19.9 33.2 19.05 33.1 18.95" fill="#06bcea" fill-rule="evenodd" stroke="none"/>
    <path d="M39.5 22.8 L39.5 22.85 34.25 20.4 34.25 20.35 33.95 20.25 33.7 20.15 33.0 19.9 33.05 19.85 33.7 18.25 33.75 18.1 34.1 18.2 35.25 18.4 39.65 19.45 Q38.3 20.8 39.3 22.55 L39.5 22.8" fill="url(#gradient5)" fill-rule="evenodd" stroke="none"/>
    <path d="M33.6 18.15 L33.7 18.05 33.7 18.25 33.6 18.15" fill="#1182cc" fill-rule="evenodd" stroke="none"/>
    <path d="M41.35 9.6 L41.35 8.8 M49.0 14.65 L48.5 13.3 M33.15 14.35 L33.65 12.9" ffdec:has-small-stroke="true" ffdec:original-stroke-width="0.3" fill="none" stroke="#74e0fc" stroke-linecap="round" stroke-linejoin="round" stroke-width="1.0"/>
    <path d="M30.75 16.9 Q32.85 16.45 33.75 17.9 L33.75 17.85 33.8 17.9 33.7 18.1 33.7 18.35 Q32.7 16.7 30.55 17.3 L30.75 16.9" fill="#00ffff" fill-rule="evenodd" stroke="none"/>
    <path d="M48.45 18.4 Q48.95 17.65 49.75 17.45 50.5 17.2 51.45 17.45 L51.65 17.85 49.85 17.8 Q49.05 18.05 48.5 18.9 L48.5 18.65 48.4 18.4 48.45 18.35 48.45 18.4" fill="#00ffff" fill-rule="evenodd" stroke="none"/>
    <path d="M41.7 13.8 Q43.05 16.6 42.75 18.3 41.0 17.25 38.75 18.25 38.6 15.8 40.2 13.75 L41.7 13.8" fill="url(#gradient6)" fill-rule="evenodd" stroke="none"/>
    <path d="M49.3 8.9 L45.9 9.95 49.25 7.25 52.65 9.95 49.3 8.9" fill="#50ceff" fill-rule="evenodd" stroke="none"/>
    <path d="M49.3 11.2 L45.9 12.25 49.25 9.55 52.65 12.25 49.3 11.2" fill="#50ceff" fill-rule="evenodd" stroke="none"/>
  </g>
  <defs>
    <linearGradient gradientTransform="matrix(0.0, -0.019, 0.019, 0.0, 41.1, 15.55)" gradientUnits="userSpaceOnUse" id="gradient0" spreadMethod="pad" x1="-819.2" x2="819.2">
      <stop offset="0.0" stop-color="#373737"/>
      <stop offset="0.6549019607843137" stop-color="#a4a4a4"/>
      <stop offset="0.803921568627451" stop-color="#a4a4a4"/>
      <stop offset="1.0" stop-color="#6b6b6b"/>
    </linearGradient>
    <linearGradient gradientTransform="matrix(7.0E-4, 0.0017, -0.0026, 0.001, 45.9, 19.95)" gradientUnits="userSpaceOnUse" id="gradient1" spreadMethod="pad" x1="-819.2" x2="819.2">
      <stop offset="0.0" stop-color="#095cfa"/>
      <stop offset="1.0" stop-color="#4dd6ff"/>
    </linearGradient>
    <linearGradient gradientTransform="matrix(0.0, -0.0046, -0.0029, 0.0, 54.0, 15.15)" gradientUnits="userSpaceOnUse" id="gradient2" spreadMethod="pad" x1="-819.2" x2="819.2">
      <stop offset="0.0" stop-color="#095cfa"/>
      <stop offset="0.17254901960784313" stop-color="#1775fb"/>
      <stop offset="0.6470588235294118" stop-color="#40c7ff"/>
      <stop offset="1.0" stop-color="#4dd6ff"/>
    </linearGradient>
    <linearGradient gradientTransform="matrix(0.0, -0.0065, -0.0029, 0.0, 54.5, 14.1)" gradientUnits="userSpaceOnUse" id="gradient3" spreadMethod="pad" x1="-819.2" x2="819.2">
      <stop offset="0.0" stop-color="#095cfa"/>
      <stop offset="0.17254901960784313" stop-color="#1775fb"/>
      <stop offset="0.6470588235294118" stop-color="#40c7ff"/>
      <stop offset="1.0" stop-color="#4dd6ff"/>
    </linearGradient>
    <linearGradient gradientTransform="matrix(-1.0E-4, 0.002, -0.0023, -2.0E-4, 41.05, 22.15)" gradientUnits="userSpaceOnUse" id="gradient4" spreadMethod="pad" x1="-819.2" x2="819.2">
      <stop offset="0.0" stop-color="#095cfa"/>
      <stop offset="1.0" stop-color="#4dd6ff"/>
    </linearGradient>
    <linearGradient gradientTransform="matrix(-4.0E-4, 0.0016, -0.0025, -7.0E-4, 37.2, 20.15)" gradientUnits="userSpaceOnUse" id="gradient5" spreadMethod="pad" x1="-819.2" x2="819.2">
      <stop offset="0.0" stop-color="#095cfa"/>
      <stop offset="1.0" stop-color="#4dd6ff"/>
    </linearGradient>
    <linearGradient gradientTransform="matrix(0.0, 0.0021, -0.0041, 0.0, 40.65, 16.85)" gradientUnits="userSpaceOnUse" id="gradient6" spreadMethod="pad" x1="-819.2" x2="819.2">
      <stop offset="0.0" stop-color="#ffffff" stop-opacity="0.0"/>
      <stop offset="1.0" stop-color="#ffffff" stop-opacity="0.5019608"/>
    </linearGradient>
  </defs>
</svg>
