<?xml version="1.0" encoding="UTF-8" standalone="no"?>
<svg xmlns:ffdec="https://www.free-decompiler.com/flash" xmlns:xlink="http://www.w3.org/1999/xlink" ffdec:objectType="shape" height="31.05px" width="60.9px" xmlns="http://www.w3.org/2000/svg">
  <g transform="matrix(1.0, 0.0, 0.0, 1.0, -10.9, 0.0)">
    <path d="M66.7 0.55 Q68.3 1.05 69.25 1.85 L70.55 2.85 Q71.5 3.6 71.75 4.95 72.0 6.25 71.4 7.3 L59.7 28.4 Q59.05 29.5 57.75 30.25 56.45 31.05 55.2 31.05 L26.55 31.05 Q25.3 31.05 24.0 30.25 22.7 29.45 22.15 28.35 L11.3 7.35 Q10.75 6.25 10.95 4.85 11.15 3.45 12.05 2.6 L12.5 2.1 14.9 0.6 Q16.4 0.0 17.65 0.0 L63.9 0.0 Q65.15 0.0 66.7 0.55" fill="url(#gradient0)" fill-rule="evenodd" stroke="none"/>
    <path d="M49.15 3.35 Q52.0 3.35 53.4 2.75 54.6 2.15 57.7 2.15 L58.85 2.15 61.6 2.75 Q63.1 3.4 63.95 4.25 L64.5 4.75 Q65.35 5.6 65.55 7.0 65.75 8.4 65.15 9.45 L56.35 25.3 Q55.75 26.4 54.4 27.15 53.1 27.95 51.85 27.95 L51.4 27.95 Q48.4 27.95 47.5 27.4 46.5 26.85 43.55 26.85 L38.65 26.85 Q35.6 26.85 34.85 27.4 L31.0 27.95 30.1 27.95 Q28.85 27.95 27.6 27.15 26.3 26.4 25.7 25.3 L17.55 9.5 Q17.0 8.4 17.15 6.95 17.25 5.45 18.05 4.5 L18.1 4.45 Q18.85 3.5 20.3 2.85 21.7 2.15 22.95 2.15 L25.45 2.15 Q28.5 2.15 29.85 2.75 L34.25 3.35 49.15 3.35" fill="#2b2b2a" fill-rule="evenodd" stroke="none"/>
    <path d="M60.1 6.6 Q60.75 7.1 60.9 7.95 61.05 8.85 60.65 9.55 L53.05 23.3 Q52.65 24.0 51.75 24.5 50.9 25.0 50.05 25.0 L31.4 25.0 29.75 24.5 Q28.9 23.95 28.5 23.25 L21.4 9.6 Q21.05 8.85 21.2 7.95 21.35 7.0 21.9 6.4 L22.15 6.15 Q22.75 5.55 23.75 5.15 24.75 4.75 25.6 4.75 L55.75 4.75 57.6 5.1 Q58.65 5.45 59.3 5.95 L60.1 6.6" fill="url(#gradient1)" fill-rule="evenodd" stroke="none"/>
    <path d="M60.1 6.6 L59.3 5.95 Q58.65 5.45 57.6 5.1 L55.75 4.75 25.6 4.75 Q24.75 4.75 23.75 5.15 22.75 5.55 22.15 6.15 L21.9 6.4 Q21.35 7.0 21.2 7.95 21.05 8.85 21.4 9.6 L28.5 23.25 Q28.9 23.95 29.75 24.5 L31.4 25.0 50.05 25.0 Q50.9 25.0 51.75 24.5 52.65 24.0 53.05 23.3 L60.65 9.55 Q61.05 8.85 60.9 7.95 60.75 7.1 60.1 6.6 Z" fill="none" stroke="#f19e24" stroke-linecap="butt" stroke-linejoin="miter-clip" stroke-miterlimit="4.0" stroke-width="1.0"/>
    <path d="M51.75 24.5 Q52.65 24.0 53.05 23.3 L60.65 9.55 Q61.05 8.85 60.9 7.95 60.75 7.1 60.1 6.6 L59.3 5.95 Q58.65 5.45 57.6 5.1 L55.75 4.75 25.6 4.75 Q24.75 4.75 23.75 5.15 22.75 5.55 22.15 6.15 L21.9 6.4 Q21.35 7.0 21.2 7.95 21.05 8.85 21.4 9.6 L28.5 23.25 Q28.9 23.95 29.75 24.5 L31.4 25.0 50.05 25.0 Q50.9 25.0 51.75 24.5 Z" fill="none" stroke="#f19e24" stroke-linecap="butt" stroke-linejoin="miter-clip" stroke-miterlimit="4.0" stroke-width="1.0"/>
    <path d="M48.45 18.1 Q48.25 16.65 49.0 14.75 L49.05 14.7 Q51.15 16.15 51.75 17.8 L51.7 17.8 Q49.85 17.05 48.65 18.8 L48.55 18.6 48.55 18.55 48.55 18.4 48.45 18.1 M30.5 17.35 Q31.0 16.1 32.3 15.0 L32.25 15.0 33.0 14.4 33.15 14.4 33.25 14.4 33.4 14.95 33.5 15.45 33.7 17.75 33.65 18.1 33.55 18.2 Q32.6 16.7 30.5 17.35" fill="#d36001" fill-rule="evenodd" stroke="none"/>
    <path d="M51.75 17.8 Q52.4 19.7 51.25 21.6 L51.1 21.6 50.4 21.2 49.25 20.1 49.2 20.15 48.65 18.8 Q49.85 17.05 51.7 17.8 L51.75 17.8 M42.7 22.95 L42.35 23.05 41.55 23.25 39.5 22.9 39.35 22.65 Q38.3 20.95 39.6 19.6 L40.2 19.1 40.15 19.1 37.5 18.55 Q37.65 17.5 37.9 16.9 L37.9 16.85 38.05 16.5 Q38.8 13.8 40.05 12.35 L41.4 9.6 42.35 12.35 42.4 12.4 42.95 13.5 Q43.55 14.75 43.95 16.5 L44.05 17.0 44.2 18.75 41.7 19.0 42.75 19.45 42.7 19.55 42.8 19.7 42.9 20.0 Q43.75 21.5 42.7 22.95 M33.05 19.9 L33.0 19.85 31.9 20.9 31.1 21.25 Q29.65 19.2 30.5 17.35 32.6 16.7 33.55 18.2 L33.65 18.35 33.05 19.9 M40.35 13.95 L40.3 14.45 Q40.3 15.0 40.55 15.35 40.75 15.75 41.2 15.75 L41.8 15.35 42.05 14.45 42.0 13.95 41.8 13.55 Q41.55 13.2 41.2 13.2 40.75 13.2 40.55 13.55 L40.35 13.95 M41.5 19.45 L41.05 19.3 Q38.9 20.1 39.75 22.15 40.25 23.3 41.55 23.0 L42.5 22.55 Q43.15 21.2 42.3 19.95 L41.5 19.45 M49.2 19.2 L49.1 19.2 49.1 19.5 49.75 20.25 50.65 21.0 50.8 20.8 49.95 20.0 49.2 19.2 M33.2 19.1 L33.1 19.0 Q32.85 19.0 32.65 19.3 L32.45 19.8 31.55 20.55 31.65 20.75 32.6 19.95 33.2 19.1" fill="url(#gradient2)" fill-rule="evenodd" stroke="none"/>
    <path d="M40.35 13.95 L40.55 13.55 Q40.75 13.2 41.2 13.2 41.55 13.2 41.8 13.55 L42.0 13.95 42.05 14.45 41.8 15.35 41.2 15.75 Q40.75 15.75 40.55 15.35 40.3 15.0 40.3 14.45 L40.35 13.95" fill="#fee892" fill-rule="evenodd" stroke="none"/>
    <path d="M49.2 20.15 L49.2 20.2 48.55 20.5 47.95 20.7 42.7 22.95 Q43.75 21.5 42.9 20.0 L42.8 19.7 42.7 19.55 48.55 18.4 48.55 18.55 48.55 18.6 48.65 18.8 49.2 20.15" fill="url(#gradient3)" fill-rule="evenodd" stroke="none"/>
    <path d="M44.2 18.75 L44.2 18.8 48.45 18.1 48.55 18.4 42.7 19.55 42.75 19.45 41.7 19.0 44.2 18.75 M37.5 18.55 L40.15 19.1 40.2 19.1 39.6 19.6 39.65 19.55 35.6 18.6 34.1 18.25 33.7 18.15 33.65 18.1 33.7 17.75 37.5 18.6 37.5 18.55" fill="#a05001" fill-rule="evenodd" stroke="none"/>
    <path d="M41.5 19.45 L42.3 19.95 Q43.15 21.2 42.5 22.55 L41.55 23.0 Q40.25 23.3 39.75 22.15 38.9 20.1 41.05 19.3 L41.5 19.45" fill="#fd882c" fill-rule="evenodd" stroke="none"/>
    <path d="M49.2 19.2 L49.95 20.0 50.8 20.8 50.65 21.0 49.75 20.25 49.1 19.5 49.1 19.2 49.2 19.2 M33.2 19.1 L32.6 19.95 31.65 20.75 31.55 20.55 32.45 19.8 32.65 19.3 Q32.85 19.0 33.1 19.0 L33.2 19.1" fill="#f46302" fill-rule="evenodd" stroke="none"/>
    <path d="M33.65 18.35 L33.55 18.2 33.65 18.1 33.65 18.35" fill="#1182cc" fill-rule="evenodd" stroke="none"/>
    <path d="M34.25 20.5 L33.95 20.3 34.25 20.45 34.25 20.5 M33.7 18.15 L33.65 18.35 33.65 18.1 33.7 18.15" fill="#06bcea" fill-rule="evenodd" stroke="none"/>
    <path d="M39.5 22.9 L39.5 22.95 34.25 20.5 34.25 20.45 33.95 20.3 33.65 20.2 33.0 19.95 33.05 19.9 33.65 18.35 33.7 18.15 34.1 18.25 35.6 18.6 39.65 19.55 39.6 19.6 Q38.3 20.95 39.35 22.65 L39.5 22.9" fill="url(#gradient4)" fill-rule="evenodd" stroke="none"/>
    <path d="M41.4 9.6 L41.4 8.8 M49.05 14.7 L48.6 13.35 M33.15 14.4 L33.6 12.9" ffdec:has-small-stroke="true" ffdec:original-stroke-width="0.3" fill="none" stroke="#fee892" stroke-linecap="round" stroke-linejoin="round" stroke-width="1.0"/>
    <path d="M30.75 16.35 Q32.85 15.85 33.7 17.35 L33.7 17.3 33.75 17.35 33.65 17.55 33.65 17.8 Q32.65 16.1 30.5 16.75 L30.75 16.35" fill="#fee892" fill-rule="evenodd" stroke="none"/>
    <path d="M51.5 16.85 L51.75 17.3 Q49.6 16.65 48.6 18.35 L48.6 18.05 48.45 17.85 48.55 17.8 48.55 17.85 Q49.4 16.4 51.5 16.85" fill="#fee892" fill-rule="evenodd" stroke="none"/>
    <path d="M41.9 12.85 Q43.3 15.7 42.95 17.45 41.2 16.35 38.9 17.4 38.8 14.9 40.4 12.85 41.2 11.9 41.9 12.85" fill="url(#gradient5)" fill-rule="evenodd" stroke="none"/>
    <path d="M49.35 8.3 L45.95 9.35 49.3 6.6 52.75 9.35 49.35 8.3" fill="#fdd32d" fill-rule="evenodd" stroke="none"/>
    <path d="M49.35 10.65 L45.95 11.7 49.3 9.0 52.75 11.7 49.35 10.65" fill="#fdd32d" fill-rule="evenodd" stroke="none"/>
  </g>
  <defs>
    <linearGradient gradientTransform="matrix(0.0, -0.019, 0.019, 0.0, 41.35, 15.5)" gradientUnits="userSpaceOnUse" id="gradient0" spreadMethod="pad" x1="-819.2" x2="819.2">
      <stop offset="0.0" stop-color="#373737"/>
      <stop offset="0.6549019607843137" stop-color="#a4a4a4"/>
      <stop offset="0.803921568627451" stop-color="#a4a4a4"/>
      <stop offset="1.0" stop-color="#6b6b6b"/>
    </linearGradient>
    <linearGradient gradientTransform="matrix(0.0, 0.0118, 0.0085, 0.0, 76.65, 15.45)" gradientUnits="userSpaceOnUse" id="gradient1" spreadMethod="pad" x1="-819.2" x2="819.2">
      <stop offset="0.0" stop-color="#eb8242"/>
      <stop offset="0.00392156862745098" stop-color="#e87f40"/>
      <stop offset="0.043137254901960784" stop-color="#cb6129"/>
      <stop offset="0.08627450980392157" stop-color="#b34917"/>
      <stop offset="0.13333333333333333" stop-color="#a3380a"/>
      <stop offset="0.1803921568627451" stop-color="#992e02"/>
      <stop offset="0.24313725490196078" stop-color="#962b00"/>
      <stop offset="0.4392156862745098" stop-color="#982e00"/>
      <stop offset="0.592156862745098" stop-color="#9f3800"/>
      <stop offset="0.7333333333333333" stop-color="#ab4901"/>
      <stop offset="0.8666666666666667" stop-color="#bb6002"/>
      <stop offset="0.996078431372549" stop-color="#d07f03"/>
      <stop offset="1.0" stop-color="#d18003"/>
    </linearGradient>
    <linearGradient gradientTransform="matrix(0.0185, 0.0, 0.0, -0.0185, 1.8, -3.9)" gradientUnits="userSpaceOnUse" id="gradient2" spreadMethod="pad" x1="-819.2" x2="819.2">
      <stop offset="0.0" stop-color="#c47500"/>
      <stop offset="0.3215686274509804" stop-color="#f4ab02"/>
      <stop offset="0.6470588235294118" stop-color="#fdbe2d"/>
      <stop offset="1.0" stop-color="#ffcc33"/>
    </linearGradient>
    <linearGradient gradientTransform="matrix(0.004, 0.0, 0.0, 0.0028, 45.95, 20.65)" gradientUnits="userSpaceOnUse" id="gradient3" spreadMethod="pad" x1="-819.2" x2="819.2">
      <stop offset="0.0" stop-color="#c47500"/>
      <stop offset="0.3215686274509804" stop-color="#f4ab02"/>
      <stop offset="0.6470588235294118" stop-color="#fdbe2d"/>
      <stop offset="1.0" stop-color="#ffcc33"/>
    </linearGradient>
    <linearGradient gradientTransform="matrix(-0.0033, -5.0E-4, 4.0E-4, -0.0026, 36.85, 20.75)" gradientUnits="userSpaceOnUse" id="gradient4" spreadMethod="pad" x1="-819.2" x2="819.2">
      <stop offset="0.0" stop-color="#c47500"/>
      <stop offset="0.3215686274509804" stop-color="#f4ab02"/>
      <stop offset="0.6470588235294118" stop-color="#fdbe2d"/>
      <stop offset="1.0" stop-color="#ffcc33"/>
    </linearGradient>
    <linearGradient gradientTransform="matrix(0.0, 0.0021, -0.0042, 0.0, 40.8, 15.95)" gradientUnits="userSpaceOnUse" id="gradient5" spreadMethod="pad" x1="-819.2" x2="819.2">
      <stop offset="0.0" stop-color="#ffffff" stop-opacity="0.0"/>
      <stop offset="1.0" stop-color="#ffffff" stop-opacity="0.5019608"/>
    </linearGradient>
  </defs>
</svg>
