<?xml version="1.0" encoding="UTF-8" standalone="no"?>
<svg xmlns:ffdec="https://www.free-decompiler.com/flash" xmlns:xlink="http://www.w3.org/1999/xlink" ffdec:objectType="shape" height="21.0px" width="78.6px" xmlns="http://www.w3.org/2000/svg">
  <g transform="matrix(1.0, 0.0, 0.0, 1.0, 0.5, -0.25)">
    <path d="M77.6 3.75 L77.6 17.75 Q77.6 19.0 76.7 19.85 75.85 20.75 74.6 20.75 L3.0 20.75 Q1.75 20.75 0.9 19.85 0.0 19.0 0.0 17.75 L0.0 3.75 Q0.0 2.5 0.9 1.65 1.75 0.75 3.0 0.75 L74.6 0.75 Q75.85 0.75 76.7 1.65 77.6 2.5 77.6 3.75" fill="url(#gradient0)" fill-rule="evenodd" stroke="none"/>
    <path d="M76.7 1.65 Q77.6 2.5 77.6 3.75 L77.6 17.75 Q77.6 19.0 76.7 19.85 75.85 20.75 74.6 20.75 L3.0 20.75 Q1.75 20.75 0.9 19.85 0.0 19.0 0.0 17.75 L0.0 3.75 Q0.0 2.5 0.9 1.65 1.75 0.75 3.0 0.75 L74.6 0.75 Q75.85 0.75 76.7 1.65 Z" fill="none" stroke="#2e74ff" stroke-linecap="butt" stroke-linejoin="miter-clip" stroke-miterlimit="4.0" stroke-width="1.0"/>
  </g>
  <defs>
    <linearGradient gradientTransform="matrix(0.0, -0.011, 1.0, 0.0, -10.0, 10.75)" gradientUnits="userSpaceOnUse" id="gradient0" spreadMethod="pad" x1="-819.2" x2="819.2">
      <stop offset="0.0" stop-color="#004bc2"/>
      <stop offset="0.7647058823529411" stop-color="#003498"/>
      <stop offset="1.0" stop-color="#0057d9"/>
    </linearGradient>
  </defs>
</svg>
