<?xml version="1.0" encoding="UTF-8" standalone="no"?>
<svg xmlns:ffdec="https://www.free-decompiler.com/flash" xmlns:xlink="http://www.w3.org/1999/xlink" ffdec:objectType="shape" height="31.05px" width="60.9px" xmlns="http://www.w3.org/2000/svg">
  <g transform="matrix(1.0, 0.0, 0.0, 1.0, -10.65, 0.0)">
    <path d="M66.45 0.55 Q68.05 1.05 69.0 1.85 L70.3 2.85 Q71.25 3.6 71.5 4.95 71.75 6.25 71.15 7.3 L59.45 28.4 Q58.8 29.5 57.5 30.25 56.2 31.05 54.95 31.05 L26.3 31.05 Q25.05 31.05 23.75 30.25 22.45 29.45 21.9 28.35 L11.05 7.35 Q10.5 6.25 10.7 4.85 10.9 3.45 11.8 2.6 L12.25 2.1 14.65 0.6 Q16.15 0.0 17.4 0.0 L63.65 0.0 Q64.9 0.0 66.45 0.55" fill="url(#gradient0)" fill-rule="evenodd" stroke="none"/>
    <path d="M48.9 3.35 L53.15 2.75 Q54.35 2.15 57.45 2.15 L58.6 2.15 61.35 2.75 Q62.85 3.4 63.7 4.25 L64.25 4.75 Q65.1 5.6 65.3 7.0 65.5 8.4 64.9 9.45 L56.1 25.3 Q55.5 26.4 54.15 27.15 52.85 27.95 51.6 27.95 L51.15 27.95 47.25 27.4 Q46.25 26.85 43.3 26.85 L38.4 26.85 Q35.35 26.85 34.6 27.4 33.8 27.95 30.75 27.95 L29.85 27.95 Q28.6 27.95 27.35 27.15 26.05 26.4 25.45 25.3 L17.3 9.5 Q16.75 8.4 16.9 6.95 17.0 5.45 17.8 4.5 L17.85 4.45 Q18.6 3.5 20.05 2.85 21.45 2.15 22.7 2.15 L25.2 2.15 Q28.25 2.15 29.6 2.75 31.1 3.35 34.0 3.35 L48.9 3.35" fill="#2b2b2a" fill-rule="evenodd" stroke="none"/>
    <path d="M51.5 24.5 Q50.65 25.0 49.8 25.0 L31.15 25.0 Q30.35 25.0 29.5 24.5 28.65 23.95 28.25 23.25 L21.15 9.6 Q20.8 8.85 20.95 7.95 21.1 7.0 21.65 6.4 L21.9 6.15 Q22.5 5.55 23.5 5.15 24.5 4.75 25.35 4.75 L55.5 4.75 57.35 5.1 Q58.4 5.45 59.05 5.95 L59.85 6.6 Q60.5 7.1 60.65 7.95 60.8 8.85 60.4 9.55 L52.8 23.3 51.5 24.5" fill="url(#gradient1)" fill-rule="evenodd" stroke="none"/>
    <path d="M51.5 24.5 L52.8 23.3 60.4 9.55 Q60.8 8.85 60.65 7.95 60.5 7.1 59.85 6.6 L59.05 5.95 Q58.4 5.45 57.35 5.1 L55.5 4.75 25.35 4.75 Q24.5 4.75 23.5 5.15 22.5 5.55 21.9 6.15 L21.65 6.4 Q21.1 7.0 20.95 7.95 20.8 8.85 21.15 9.6 L28.25 23.25 Q28.65 23.95 29.5 24.5 30.35 25.0 31.15 25.0 L49.8 25.0 Q50.65 25.0 51.5 24.5 Z" fill="none" stroke="#f19e24" stroke-linecap="butt" stroke-linejoin="miter-clip" stroke-miterlimit="4.0" stroke-width="1.0"/>
    <path d="M51.5 24.5 L52.8 23.3 60.4 9.55 Q60.8 8.85 60.65 7.95 60.5 7.1 59.85 6.6 L59.05 5.95 Q58.4 5.45 57.35 5.1 L55.5 4.75 25.35 4.75 Q24.5 4.75 23.5 5.15 22.5 5.55 21.9 6.15 L21.65 6.4 Q21.1 7.0 20.95 7.95 20.8 8.85 21.15 9.6 L28.25 23.25 Q28.65 23.95 29.5 24.5 30.35 25.0 31.15 25.0 L49.8 25.0 Q50.65 25.0 51.5 24.5 Z" fill="none" stroke="#f19e24" stroke-linecap="butt" stroke-linejoin="miter-clip" stroke-miterlimit="4.0" stroke-width="1.0"/>
    <path d="M40.95 16.55 L51.6 19.5 40.95 22.45 32.55 18.45 40.95 16.55" fill="url(#gradient2)" fill-rule="evenodd" stroke="none"/>
    <path d="M40.95 16.55 L32.55 18.45 40.95 22.45 51.6 19.5 40.95 16.55 Z" ffdec:has-small-stroke="true" ffdec:original-stroke-width="0.5" fill="none" stroke="#fdb91c" stroke-linecap="butt" stroke-linejoin="miter-clip" stroke-miterlimit="4.0" stroke-width="1.0"/>
    <path d="M41.05 18.75 L38.95 19.3 37.6 18.75 37.6 13.85 39.35 13.5 41.05 13.85 41.05 18.75" fill="url(#gradient3)" fill-rule="evenodd" stroke="none"/>
    <path d="M41.05 18.75 L38.95 19.3 37.6 18.75 37.6 13.85 39.35 13.5 41.05 13.85 41.05 18.75 Z" ffdec:has-small-stroke="true" ffdec:original-stroke-width="0.5" fill="none" stroke="#fdb91c" stroke-linecap="butt" stroke-linejoin="miter-clip" stroke-miterlimit="4.0" stroke-width="1.0"/>
    <path d="M44.3 7.85 L45.15 7.85 45.15 9.15 47.25 9.5 47.25 18.75 44.4 19.4 42.75 18.75 42.75 9.5 44.3 9.15 44.3 7.85" fill="url(#gradient4)" fill-rule="evenodd" stroke="none"/>
    <path d="M44.3 7.85 L44.3 9.15 42.75 9.5 42.75 18.75 44.4 19.4 47.25 18.75 47.25 9.5 45.15 9.15 45.15 7.85 44.3 7.85 Z" ffdec:has-small-stroke="true" ffdec:original-stroke-width="0.5" fill="none" stroke="#fdb91c" stroke-linecap="butt" stroke-linejoin="miter-clip" stroke-miterlimit="4.0" stroke-width="1.0"/>
    <path d="M41.1 25.1 Q36.1 25.1 32.55 22.35 29.0 19.6 29.0 15.75 29.0 11.9 32.55 9.15 36.1 6.45 41.1 6.45 46.15 6.45 49.65 9.15 53.2 11.9 53.2 15.75 53.2 19.6 49.65 22.35 46.1 25.1 41.1 25.1" fill="url(#gradient5)" fill-rule="evenodd" stroke="none"/>
  </g>
  <defs>
    <linearGradient gradientTransform="matrix(0.0, -0.019, 0.019, 0.0, 41.1, 15.5)" gradientUnits="userSpaceOnUse" id="gradient0" spreadMethod="pad" x1="-819.2" x2="819.2">
      <stop offset="0.0" stop-color="#373737"/>
      <stop offset="0.6549019607843137" stop-color="#a4a4a4"/>
      <stop offset="0.803921568627451" stop-color="#a4a4a4"/>
      <stop offset="1.0" stop-color="#6b6b6b"/>
    </linearGradient>
    <linearGradient gradientTransform="matrix(0.0, 0.0118, 0.0085, 0.0, 76.4, 15.45)" gradientUnits="userSpaceOnUse" id="gradient1" spreadMethod="pad" x1="-819.2" x2="819.2">
      <stop offset="0.0" stop-color="#eb8242"/>
      <stop offset="0.00392156862745098" stop-color="#e87f40"/>
      <stop offset="0.043137254901960784" stop-color="#cb6129"/>
      <stop offset="0.08627450980392157" stop-color="#b34917"/>
      <stop offset="0.13333333333333333" stop-color="#a3380a"/>
      <stop offset="0.1803921568627451" stop-color="#992e02"/>
      <stop offset="0.24313725490196078" stop-color="#962b00"/>
      <stop offset="0.4392156862745098" stop-color="#982e00"/>
      <stop offset="0.592156862745098" stop-color="#9f3800"/>
      <stop offset="0.7333333333333333" stop-color="#ab4901"/>
      <stop offset="0.8666666666666667" stop-color="#bb6002"/>
      <stop offset="0.996078431372549" stop-color="#d07f03"/>
      <stop offset="1.0" stop-color="#d18003"/>
    </linearGradient>
    <radialGradient cx="0" cy="0" gradientTransform="matrix(0.0084, 0.0, 0.0, 0.0084, 41.6, 16.95)" gradientUnits="userSpaceOnUse" id="gradient2" r="819.2" spreadMethod="pad">
      <stop offset="0.0" stop-color="#fe802b"/>
      <stop offset="0.2901960784313726" stop-color="#fd802c"/>
      <stop offset="0.47843137254901963" stop-color="#fe912b"/>
      <stop offset="0.6392156862745098" stop-color="#ffa32f"/>
      <stop offset="0.7803921568627451" stop-color="#fead34"/>
      <stop offset="0.9137254901960784" stop-color="#ffc43c"/>
      <stop offset="1.0" stop-color="#ffc744"/>
    </radialGradient>
    <radialGradient cx="0" cy="0" gradientTransform="matrix(0.0033, 0.0, 0.0, -0.0033, 39.45, 16.15)" gradientUnits="userSpaceOnUse" id="gradient3" r="819.2" spreadMethod="pad">
      <stop offset="0.0" stop-color="#fe802b"/>
      <stop offset="0.2901960784313726" stop-color="#fd802c"/>
      <stop offset="0.47843137254901963" stop-color="#fe912b"/>
      <stop offset="0.6392156862745098" stop-color="#ffa32f"/>
      <stop offset="0.7803921568627451" stop-color="#fead34"/>
      <stop offset="0.9137254901960784" stop-color="#ffc43c"/>
      <stop offset="1.0" stop-color="#ffc744"/>
    </radialGradient>
    <radialGradient cx="0" cy="0" gradientTransform="matrix(0.0053, 0.0, 0.0, -0.0053, 45.0, 13.65)" gradientUnits="userSpaceOnUse" id="gradient4" r="819.2" spreadMethod="pad">
      <stop offset="0.0" stop-color="#fe802b"/>
      <stop offset="0.2901960784313726" stop-color="#fd802c"/>
      <stop offset="0.47843137254901963" stop-color="#fe912b"/>
      <stop offset="0.6392156862745098" stop-color="#ffa32f"/>
      <stop offset="0.7803921568627451" stop-color="#fead34"/>
      <stop offset="0.9137254901960784" stop-color="#ffc43c"/>
      <stop offset="1.0" stop-color="#ffc744"/>
    </radialGradient>
    <linearGradient gradientTransform="matrix(0.0, -0.0114, -0.0114, 0.0, 41.1, 15.75)" gradientUnits="userSpaceOnUse" id="gradient5" spreadMethod="pad" x1="-819.2" x2="819.2">
      <stop offset="0.0" stop-color="#c4af00" stop-opacity="0.0"/>
      <stop offset="0.24313725490196078" stop-color="#c4c400" stop-opacity="0.023529412"/>
      <stop offset="0.4196078431372549" stop-color="#f9d342" stop-opacity="0.101960786"/>
      <stop offset="0.5764705882352941" stop-color="#e4ce0a" stop-opacity="0.24313726"/>
      <stop offset="0.7215686274509804" stop-color="#feaf39" stop-opacity="0.42352942"/>
      <stop offset="0.8588235294117647" stop-color="#feb445" stop-opacity="0.67058825"/>
      <stop offset="1.0" stop-color="#ffea2b"/>
    </linearGradient>
  </defs>
</svg>
