<?xml version="1.0" encoding="UTF-8" standalone="no"?>
<svg xmlns:ffdec="https://www.free-decompiler.com/flash" xmlns:xlink="http://www.w3.org/1999/xlink" ffdec:objectType="shape" height="25.65px" width="55.95px" xmlns="http://www.w3.org/2000/svg">
  <g transform="matrix(1.0, 0.0, 0.0, 1.0, 0.0, 0.0)">
    <path d="M55.95 12.85 Q55.95 18.15 47.75 21.9 39.6 25.65 28.0 25.65 16.4 25.65 8.2 21.9 0.0 18.15 0.0 12.85 0.0 7.55 8.2 3.75 16.4 0.0 28.0 0.0 39.6 0.0 47.75 3.75 55.95 7.55 55.95 12.85" fill="#14faff" fill-rule="evenodd" stroke="none"/>
    <path d="M54.45 12.35 Q54.45 17.3 46.7 20.8 38.95 24.3 28.0 24.3 17.05 24.3 9.3 20.8 1.55 17.3 1.55 12.35 1.55 7.4 9.3 3.9 17.05 0.4 28.0 0.4 38.95 0.4 46.7 3.9 54.45 7.4 54.45 12.35" fill="#016666" fill-rule="evenodd" stroke="none"/>
  </g>
</svg>
