<?xml version="1.0" encoding="UTF-8" standalone="no"?>
<svg xmlns:ffdec="https://www.free-decompiler.com/flash" xmlns:xlink="http://www.w3.org/1999/xlink" ffdec:objectType="shape" height="51.25px" width="72.2px" xmlns="http://www.w3.org/2000/svg">
  <g transform="matrix(1.0, 0.0, 0.0, 1.0, 0.0, 0.0)">
    <path d="M71.45 44.7 Q71.45 47.1 69.95 48.8 68.45 50.5 66.35 50.5 L5.9 50.5 Q3.8 50.5 2.3 48.8 0.8 47.1 0.8 44.7 L0.75 6.5 Q0.75 4.15 2.25 2.45 3.7 0.75 5.8 0.75 L66.35 0.75 Q68.45 0.75 69.95 2.45 71.45 4.15 71.45 6.5 L71.45 44.7" fill="#0346b7" fill-rule="evenodd" stroke="none"/>
    <path d="M71.45 44.7 L71.45 6.5 Q71.45 4.15 69.95 2.45 68.45 0.75 66.35 0.75 L5.8 0.75 Q3.7 0.75 2.25 2.45 0.75 4.15 0.75 6.5 L0.8 44.7 Q0.8 47.1 2.3 48.8 3.8 50.5 5.9 50.5 L66.35 50.5 Q68.45 50.5 69.95 48.8 71.45 47.1 71.45 44.7 Z" fill="none" stroke="#319ae1" stroke-linecap="butt" stroke-linejoin="miter-clip" stroke-miterlimit="4.0" stroke-width="1.5"/>
    <path d="M66.35 46.45 L5.9 46.45 Q5.15 46.45 4.6 45.95 4.05 45.4 4.05 44.7 L4.0 6.5 Q4.0 5.9 4.4 5.5 4.95 4.8 5.8 4.8 L66.35 4.8 Q67.1 4.8 67.65 5.3 68.15 5.8 68.15 6.5 L68.15 44.7 Q68.15 45.4 67.65 45.95 67.1 46.45 66.35 46.45" fill="#0029c1" fill-rule="evenodd" stroke="none"/>
    <path d="M66.35 46.45 L5.9 46.45 Q5.15 46.45 4.6 45.95 4.05 45.4 4.05 44.7 L4.0 6.5 Q4.0 5.9 4.4 5.5 4.95 4.8 5.8 4.8 L66.35 4.8 Q67.1 4.8 67.65 5.3 68.15 5.8 68.15 6.5 L68.15 44.7 Q68.15 45.4 67.65 45.95 67.1 46.45 66.35 46.45 Z" fill="none" stroke="#2052e1" stroke-linecap="butt" stroke-linejoin="miter-clip" stroke-miterlimit="4.0" stroke-width="1.0"/>
    <path d="M67.25 18.05 L70.65 13.9 70.65 35.15 67.25 31.0 67.25 18.05" fill="#015fbc" fill-rule="evenodd" stroke="none"/>
    <path d="M67.25 18.05 L67.25 31.0 70.65 35.15 70.65 13.9 67.25 18.05 Z" fill="none" stroke="#319ae1" stroke-linecap="butt" stroke-linejoin="miter-clip" stroke-miterlimit="4.0" stroke-width="1.0"/>
    <path d="M5.0 18.05 L5.0 31.0 1.65 35.15 1.65 13.9 5.0 18.05" fill="#015fbc" fill-rule="evenodd" stroke="none"/>
    <path d="M5.0 18.05 L5.0 31.0 1.65 35.15 1.65 13.9 5.0 18.05 Z" fill="none" stroke="#319ae1" stroke-linecap="butt" stroke-linejoin="miter-clip" stroke-miterlimit="4.0" stroke-width="1.0"/>
  </g>
</svg>
