<?xml version="1.0" encoding="UTF-8" standalone="no"?>
<svg xmlns:ffdec="https://www.free-decompiler.com/flash" xmlns:xlink="http://www.w3.org/1999/xlink" ffdec:objectType="shape" height="52.45px" width="17.55px" xmlns="http://www.w3.org/2000/svg">
  <g transform="matrix(1.0, 0.0, 0.0, 1.0, -1.0, -2.9)">
    <path d="M13.3 3.2 L15.35 3.1 Q16.2 3.55 16.6 4.8 L17.6 10.8 Q18.55 18.8 18.55 29.1 18.55 39.4 17.6 47.45 17.1 51.5 16.6 53.45 16.2 54.7 15.35 55.15 L13.3 55.05 3.95 50.8 Q2.75 50.2 1.9 49.0 1.0 47.75 1.0 46.5 L1.0 11.75 Q1.0 10.55 1.9 9.3 2.75 8.05 3.95 7.5 L13.3 3.2" fill="url(#gradient0)" fill-rule="evenodd" stroke="none"/>
    <path d="M9.1 29.4 L6.05 34.2 6.05 24.75 9.1 29.4" fill="#0068ff" fill-rule="evenodd" stroke="none"/>
    <path d="M9.1 29.4 L6.05 24.75 6.05 34.2 9.1 29.4 Z" fill="none" stroke="#00ffff" stroke-linecap="butt" stroke-linejoin="miter-clip" stroke-miterlimit="4.0" stroke-width="1.0"/>
    <path d="M6.05 21.7 L6.05 15.35 16.8 29.4 6.05 43.55 6.05 37.15 11.1 29.4 6.05 21.7" fill="#0068ff" fill-rule="evenodd" stroke="none"/>
    <path d="M6.05 21.7 L11.1 29.4 6.05 37.15 6.05 43.55 16.8 29.4 6.05 15.35 6.05 21.7 Z" fill="none" stroke="#00ffff" stroke-linecap="butt" stroke-linejoin="miter-clip" stroke-miterlimit="4.0" stroke-width="1.0"/>
  </g>
  <defs>
    <linearGradient gradientTransform="matrix(0.0107, 0.0, 0.0, -0.0107, 9.8, 29.15)" gradientUnits="userSpaceOnUse" id="gradient0" spreadMethod="pad" x1="-819.2" x2="819.2">
      <stop offset="0.0" stop-color="#373737"/>
      <stop offset="0.12549019607843137" stop-color="#aaaaaa"/>
      <stop offset="1.0" stop-color="#282828"/>
    </linearGradient>
  </defs>
</svg>
