<?xml version="1.0" encoding="UTF-8" standalone="no"?>
<svg xmlns:ffdec="https://www.free-decompiler.com/flash" xmlns:xlink="http://www.w3.org/1999/xlink" ffdec:objectType="shape" height="31.05px" width="60.9px" xmlns="http://www.w3.org/2000/svg">
  <g transform="matrix(1.0, 0.0, 0.0, 1.0, -10.9, 0.0)">
    <path d="M66.7 0.55 Q68.3 1.05 69.25 1.85 L70.55 2.85 Q71.5 3.6 71.75 4.95 72.0 6.25 71.4 7.3 L59.7 28.4 Q59.05 29.5 57.75 30.25 56.45 31.05 55.2 31.05 L26.55 31.05 Q25.3 31.05 24.0 30.25 22.7 29.45 22.15 28.35 L11.3 7.35 Q10.75 6.25 10.95 4.85 11.15 3.45 12.05 2.6 L12.5 2.1 14.9 0.6 Q16.4 0.0 17.65 0.0 L63.9 0.0 Q65.15 0.0 66.7 0.55" fill="url(#gradient0)" fill-rule="evenodd" stroke="none"/>
    <path d="M49.15 3.35 Q52.0 3.35 53.4 2.75 54.6 2.15 57.7 2.15 L58.85 2.15 61.6 2.75 Q63.1 3.4 63.95 4.25 L64.5 4.75 Q65.35 5.6 65.55 7.0 65.75 8.4 65.15 9.45 L56.35 25.3 Q55.75 26.4 54.4 27.15 53.1 27.95 51.85 27.95 L51.4 27.95 Q48.4 27.95 47.5 27.4 46.5 26.85 43.55 26.85 L38.65 26.85 Q35.6 26.85 34.85 27.4 L31.0 27.95 30.1 27.95 Q28.85 27.95 27.6 27.15 26.3 26.4 25.7 25.3 L17.55 9.5 Q17.0 8.4 17.15 6.95 17.25 5.45 18.05 4.5 L18.1 4.45 Q18.85 3.5 20.3 2.85 21.7 2.15 22.95 2.15 L25.45 2.15 Q28.5 2.15 29.85 2.75 L34.25 3.35 49.15 3.35" fill="#2b2b2a" fill-rule="evenodd" stroke="none"/>
    <path d="M60.1 6.6 Q60.75 7.1 60.9 7.95 61.05 8.85 60.65 9.55 L53.05 23.3 Q52.65 24.0 51.75 24.5 50.9 25.0 50.05 25.0 L31.4 25.0 29.75 24.5 Q28.9 23.95 28.5 23.25 L21.4 9.6 Q21.05 8.85 21.2 7.95 21.35 7.0 21.9 6.4 L22.15 6.15 Q22.75 5.55 23.75 5.15 24.75 4.75 25.6 4.75 L55.75 4.75 57.6 5.1 Q58.65 5.45 59.3 5.95 L60.1 6.6" fill="url(#gradient1)" fill-rule="evenodd" stroke="none"/>
    <path d="M60.1 6.6 L59.3 5.95 Q58.65 5.45 57.6 5.1 L55.75 4.75 25.6 4.75 Q24.75 4.75 23.75 5.15 22.75 5.55 22.15 6.15 L21.9 6.4 Q21.35 7.0 21.2 7.95 21.05 8.85 21.4 9.6 L28.5 23.25 Q28.9 23.95 29.75 24.5 L31.4 25.0 50.05 25.0 Q50.9 25.0 51.75 24.5 52.65 24.0 53.05 23.3 L60.65 9.55 Q61.05 8.85 60.9 7.95 60.75 7.1 60.1 6.6 Z" fill="none" stroke="#f19e24" stroke-linecap="butt" stroke-linejoin="miter-clip" stroke-miterlimit="4.0" stroke-width="1.0"/>
    <path d="M51.75 24.5 Q52.65 24.0 53.05 23.3 L60.65 9.55 Q61.05 8.85 60.9 7.95 60.75 7.1 60.1 6.6 L59.3 5.95 Q58.65 5.45 57.6 5.1 L55.75 4.75 25.6 4.75 Q24.75 4.75 23.75 5.15 22.75 5.55 22.15 6.15 L21.9 6.4 Q21.35 7.0 21.2 7.95 21.05 8.85 21.4 9.6 L28.5 23.25 Q28.9 23.95 29.75 24.5 L31.4 25.0 50.05 25.0 Q50.9 25.0 51.75 24.5 Z" fill="none" stroke="#f19e24" stroke-linecap="butt" stroke-linejoin="miter-clip" stroke-miterlimit="4.0" stroke-width="1.0"/>
    <path d="M40.95 16.55 L51.6 19.5 40.95 22.45 32.55 18.45 40.95 16.55" fill="url(#gradient2)" fill-rule="evenodd" stroke="none"/>
    <path d="M40.95 16.55 L32.55 18.45 40.95 22.45 51.6 19.5 40.95 16.55 Z" ffdec:has-small-stroke="true" ffdec:original-stroke-width="0.5" fill="none" stroke="#fdb91c" stroke-linecap="butt" stroke-linejoin="miter-clip" stroke-miterlimit="4.0" stroke-width="1.0"/>
    <path d="M41.05 18.75 L38.95 19.3 37.6 18.75 37.6 13.85 39.35 13.5 41.05 13.85 41.05 18.75" fill="url(#gradient3)" fill-rule="evenodd" stroke="none"/>
    <path d="M41.05 18.75 L38.95 19.3 37.6 18.75 37.6 13.85 39.35 13.5 41.05 13.85 41.05 18.75 Z" ffdec:has-small-stroke="true" ffdec:original-stroke-width="0.5" fill="none" stroke="#fdb91c" stroke-linecap="butt" stroke-linejoin="miter-clip" stroke-miterlimit="4.0" stroke-width="1.0"/>
    <path d="M44.3 7.85 L45.15 7.85 45.15 9.15 47.25 9.5 47.25 18.75 44.4 19.4 42.75 18.75 42.75 9.5 44.3 9.15 44.3 7.85" fill="url(#gradient4)" fill-rule="evenodd" stroke="none"/>
    <path d="M44.3 7.85 L44.3 9.15 42.75 9.5 42.75 18.75 44.4 19.4 47.25 18.75 47.25 9.5 45.15 9.15 45.15 7.85 44.3 7.85 Z" ffdec:has-small-stroke="true" ffdec:original-stroke-width="0.5" fill="none" stroke="#fdb91c" stroke-linecap="butt" stroke-linejoin="miter-clip" stroke-miterlimit="4.0" stroke-width="1.0"/>
    <path d="M42.05 25.1 Q37.05 25.1 33.5 22.35 29.95 19.6 29.95 15.75 29.95 11.9 33.5 9.15 37.05 6.45 42.05 6.45 47.1 6.45 50.6 9.15 54.15 11.9 54.15 15.75 54.15 19.6 50.6 22.35 47.05 25.1 42.05 25.1" fill="url(#gradient5)" fill-rule="evenodd" stroke="none"/>
  </g>
  <defs>
    <linearGradient gradientTransform="matrix(0.0, -0.019, 0.019, 0.0, 41.35, 15.5)" gradientUnits="userSpaceOnUse" id="gradient0" spreadMethod="pad" x1="-819.2" x2="819.2">
      <stop offset="0.0" stop-color="#373737"/>
      <stop offset="0.6549019607843137" stop-color="#a4a4a4"/>
      <stop offset="0.803921568627451" stop-color="#a4a4a4"/>
      <stop offset="1.0" stop-color="#6b6b6b"/>
    </linearGradient>
    <linearGradient gradientTransform="matrix(0.0, 0.0118, 0.0085, 0.0, 76.65, 15.45)" gradientUnits="userSpaceOnUse" id="gradient1" spreadMethod="pad" x1="-819.2" x2="819.2">
      <stop offset="0.0" stop-color="#eb8242"/>
      <stop offset="0.00392156862745098" stop-color="#e87f40"/>
      <stop offset="0.043137254901960784" stop-color="#cb6129"/>
      <stop offset="0.08627450980392157" stop-color="#b34917"/>
      <stop offset="0.13333333333333333" stop-color="#a3380a"/>
      <stop offset="0.1803921568627451" stop-color="#992e02"/>
      <stop offset="0.24313725490196078" stop-color="#962b00"/>
      <stop offset="0.4392156862745098" stop-color="#982e00"/>
      <stop offset="0.592156862745098" stop-color="#9f3800"/>
      <stop offset="0.7333333333333333" stop-color="#ab4901"/>
      <stop offset="0.8666666666666667" stop-color="#bb6002"/>
      <stop offset="0.996078431372549" stop-color="#d07f03"/>
      <stop offset="1.0" stop-color="#d18003"/>
    </linearGradient>
    <radialGradient cx="0" cy="0" gradientTransform="matrix(0.0084, 0.0, 0.0, 0.0084, 41.6, 16.95)" gradientUnits="userSpaceOnUse" id="gradient2" r="819.2" spreadMethod="pad">
      <stop offset="0.0" stop-color="#fe802b"/>
      <stop offset="0.2901960784313726" stop-color="#fd802c"/>
      <stop offset="0.47843137254901963" stop-color="#fe912b"/>
      <stop offset="0.6392156862745098" stop-color="#ffa32f"/>
      <stop offset="0.7803921568627451" stop-color="#fead34"/>
      <stop offset="0.9137254901960784" stop-color="#ffc43c"/>
      <stop offset="1.0" stop-color="#ffc744"/>
    </radialGradient>
    <radialGradient cx="0" cy="0" gradientTransform="matrix(0.0033, 0.0, 0.0, -0.0033, 39.45, 16.15)" gradientUnits="userSpaceOnUse" id="gradient3" r="819.2" spreadMethod="pad">
      <stop offset="0.0" stop-color="#fe802b"/>
      <stop offset="0.2901960784313726" stop-color="#fd802c"/>
      <stop offset="0.47843137254901963" stop-color="#fe912b"/>
      <stop offset="0.6392156862745098" stop-color="#ffa32f"/>
      <stop offset="0.7803921568627451" stop-color="#fead34"/>
      <stop offset="0.9137254901960784" stop-color="#ffc43c"/>
      <stop offset="1.0" stop-color="#ffc744"/>
    </radialGradient>
    <radialGradient cx="0" cy="0" gradientTransform="matrix(0.0053, 0.0, 0.0, -0.0053, 45.0, 13.65)" gradientUnits="userSpaceOnUse" id="gradient4" r="819.2" spreadMethod="pad">
      <stop offset="0.0" stop-color="#fe802b"/>
      <stop offset="0.2901960784313726" stop-color="#fd802c"/>
      <stop offset="0.47843137254901963" stop-color="#fe912b"/>
      <stop offset="0.6392156862745098" stop-color="#ffa32f"/>
      <stop offset="0.7803921568627451" stop-color="#fead34"/>
      <stop offset="0.9137254901960784" stop-color="#ffc43c"/>
      <stop offset="1.0" stop-color="#ffc744"/>
    </radialGradient>
    <linearGradient gradientTransform="matrix(0.0, -0.0114, -0.0114, 0.0, 42.05, 15.75)" gradientUnits="userSpaceOnUse" id="gradient5" spreadMethod="pad" x1="-819.2" x2="819.2">
      <stop offset="0.0" stop-color="#c4af00" stop-opacity="0.0"/>
      <stop offset="0.24313725490196078" stop-color="#c4c400" stop-opacity="0.023529412"/>
      <stop offset="0.4196078431372549" stop-color="#f9d342" stop-opacity="0.101960786"/>
      <stop offset="0.5764705882352941" stop-color="#e4ce0a" stop-opacity="0.24313726"/>
      <stop offset="0.7215686274509804" stop-color="#feaf39" stop-opacity="0.42352942"/>
      <stop offset="0.8588235294117647" stop-color="#feb445" stop-opacity="0.67058825"/>
      <stop offset="1.0" stop-color="#ffea2b"/>
    </linearGradient>
  </defs>
</svg>
