<?xml version="1.0" encoding="UTF-8" standalone="no"?>
<svg xmlns:ffdec="https://www.free-decompiler.com/flash" xmlns:xlink="http://www.w3.org/1999/xlink" ffdec:objectType="shape" height="51.7px" width="52.05px" xmlns="http://www.w3.org/2000/svg">
  <g transform="matrix(1.0, 0.0, 0.0, 1.0, -3.0, -2.9)">
    <path d="M54.55 51.75 L54.55 49.1 51.55 52.1 6.55 52.1 3.5 49.1 3.5 51.75 5.9 54.1 19.85 54.1 20.9 52.8 37.15 52.8 38.25 54.1 52.2 54.1 54.55 51.75 Z" fill="none" stroke="#69ffff" stroke-linecap="butt" stroke-linejoin="miter-clip" stroke-miterlimit="4.0" stroke-width="1.0"/>
    <path d="M54.55 51.75 L52.2 54.1 38.25 54.1 37.15 52.8 20.9 52.8 19.85 54.1 5.9 54.1 3.5 51.75 3.5 49.1 6.55 52.1 51.55 52.1 54.55 49.1 54.55 51.75" fill="#efc707" fill-rule="evenodd" stroke="none"/>
    <path d="M20.9 4.7 L37.15 4.7 38.25 3.4 52.2 3.4 54.55 5.75 54.55 8.45 51.55 5.4 6.55 5.4 3.5 8.45 3.5 5.75 5.9 3.4 19.85 3.4 20.9 4.7 Z" fill="none" stroke="#69ffff" stroke-linecap="butt" stroke-linejoin="miter-clip" stroke-miterlimit="4.0" stroke-width="1.0"/>
    <path d="M20.9 4.7 L37.15 4.7 38.25 3.4 52.2 3.4 54.55 5.75 54.55 8.45 51.55 5.4 6.55 5.4 3.5 8.45 3.5 5.75 5.9 3.4 19.85 3.4 20.9 4.7" fill="#efc707" fill-rule="evenodd" stroke="none"/>
  </g>
</svg>
