<?xml version="1.0" encoding="UTF-8" standalone="no"?>
<svg xmlns:ffdec="https://www.free-decompiler.com/flash" xmlns:xlink="http://www.w3.org/1999/xlink" ffdec:objectType="shape" height="35.6px" width="19.8px" xmlns="http://www.w3.org/2000/svg">
  <g transform="matrix(1.0, 0.0, 0.0, 1.0, 0.55, 0.5)">
    <path d="M18.75 1.3 L18.75 33.1 Q18.75 33.95 18.25 34.25 L17.0 34.15 1.75 26.0 Q1.05 25.65 0.5 24.75 0.0 23.9 0.0 23.05 L0.0 11.35 Q0.0 10.55 0.5 9.65 1.05 8.8 1.75 8.4 L17.0 0.25 18.25 0.15 Q18.75 0.45 18.75 1.3" fill="#032a77" fill-rule="evenodd" stroke="none"/>
    <path d="M18.75 1.3 L18.75 33.1 Q18.75 33.95 18.25 34.25 L17.0 34.15 1.75 26.0 Q1.05 25.65 0.5 24.75 0.0 23.9 0.0 23.05 L0.0 11.35 Q0.0 10.55 0.5 9.65 1.05 8.8 1.75 8.4 L17.0 0.25 18.25 0.15 Q18.75 0.45 18.75 1.3 Z" fill="none" stroke="#025fce" stroke-linecap="butt" stroke-linejoin="miter-clip" stroke-miterlimit="4.0" stroke-width="1.0"/>
  </g>
</svg>
