<?xml version="1.0" encoding="UTF-8" standalone="no"?>
<svg xmlns:ffdec="https://www.free-decompiler.com/flash" xmlns:xlink="http://www.w3.org/1999/xlink" ffdec:objectType="shape" height="31.9px" width="18.35px" xmlns="http://www.w3.org/2000/svg">
  <g transform="matrix(1.0, 0.0, 0.0, 1.0, 0.0, -1.2)">
    <path d="M17.85 2.85 L17.85 31.45 Q17.85 32.25 17.4 32.5 L16.25 32.4 2.55 25.1 Q1.9 24.75 1.4 23.95 0.95 23.2 0.95 22.4 L0.95 11.9 Q0.95 11.15 1.4 10.35 1.9 9.6 2.55 9.25 L16.25 1.9 17.4 1.8 Q17.85 2.1 17.85 2.85" fill="#0446af" fill-rule="evenodd" stroke="none"/>
    <path d="M17.85 2.85 L17.85 31.45 Q17.85 32.25 17.4 32.5 L16.25 32.4 2.55 25.1 Q1.9 24.75 1.4 23.95 0.95 23.2 0.95 22.4 L0.95 11.9 Q0.95 11.15 1.4 10.35 1.9 9.6 2.55 9.25 L16.25 1.9 17.4 1.8 Q17.85 2.1 17.85 2.85 Z" fill="none" stroke="#025fce" stroke-linecap="butt" stroke-linejoin="miter-clip" stroke-miterlimit="4.0" stroke-width="1.0"/>
    <path d="M13.95 22.25 L6.05 22.25 6.05 14.35 13.95 14.35 13.95 22.25" fill="#002972" fill-rule="evenodd" stroke="none"/>
    <path d="M13.95 22.25 L6.05 22.25 6.05 14.35 13.95 14.35 13.95 22.25 Z" fill="none" stroke="#2f5681" stroke-linecap="butt" stroke-linejoin="miter-clip" stroke-miterlimit="4.0" stroke-width="1.0"/>
    <path d="M11.7 16.9 L7.45 16.9 7.45 12.65 11.7 12.65 11.7 16.9" fill="#044f99" fill-rule="evenodd" stroke="none"/>
    <path d="M11.7 16.9 L7.45 16.9 7.45 12.65 11.7 12.65 11.7 16.9 Z" fill="none" stroke="#025fce" stroke-linecap="butt" stroke-linejoin="miter-clip" stroke-miterlimit="4.0" stroke-width="1.0"/>
  </g>
</svg>
