<?xml version="1.0" encoding="UTF-8" standalone="no"?>
<svg xmlns:ffdec="https://www.free-decompiler.com/flash" xmlns:xlink="http://www.w3.org/1999/xlink" ffdec:objectType="shape" height="37.6px" width="75.1px" xmlns="http://www.w3.org/2000/svg">
  <g transform="matrix(1.0, 0.0, 0.0, 1.0, -53.3, -55.45)">
    <path d="M67.55 56.7 L73.35 55.45 76.5 57.15 75.05 69.4 72.25 69.95 70.85 68.95 67.55 56.7" fill="url(#gradient0)" fill-rule="evenodd" stroke="none"/>
    <path d="M70.15 58.45 L67.55 56.7 73.35 55.45 76.5 57.15 70.15 58.45" fill="#4f4f4f" fill-rule="evenodd" stroke="none"/>
    <path d="M118.1 57.85 L113.6 70.2 112.15 71.2 109.4 70.6 108.1 57.45 111.75 55.9 118.1 57.85" fill="url(#gradient1)" fill-rule="evenodd" stroke="none"/>
    <path d="M114.15 59.5 L108.1 57.45 111.75 55.9 118.1 57.85 114.15 59.5" fill="#4f4f4f" fill-rule="evenodd" stroke="none"/>
    <path d="M128.4 75.8 Q128.4 82.95 117.4 88.0 106.4 93.05 90.85 93.05 75.25 93.05 64.25 88.0 53.3 82.95 53.3 75.8 53.3 68.65 64.25 63.6 75.25 58.55 90.85 58.55 106.4 58.55 117.4 63.6 128.4 68.65 128.4 75.8" fill="url(#gradient2)" fill-rule="evenodd" stroke="none"/>
    <path d="M128.4 73.0 Q128.4 80.15 117.4 85.25 106.4 90.25 90.85 90.25 75.25 90.25 64.25 85.25 53.3 80.15 53.3 73.0 53.3 65.9 64.25 60.85 75.25 55.8 90.85 55.8 106.4 55.8 117.4 60.85 128.4 65.9 128.4 73.0" fill="url(#gradient3)" fill-rule="evenodd" stroke="none"/>
    <path d="M113.7 61.55 Q123.15 65.7 123.15 71.55 123.15 77.4 113.7 81.55 104.2 85.65 90.85 85.65 77.45 85.65 67.95 81.55 58.5 77.4 58.5 71.55 58.5 65.7 67.95 61.55 77.45 57.4 90.85 57.4 104.2 57.4 113.7 61.55" fill="#131821" fill-rule="evenodd" stroke="none"/>
  </g>
  <defs>
    <linearGradient gradientTransform="matrix(7.0E-4, 0.0087, -0.0087, 7.0E-4, 72.5, 62.7)" gradientUnits="userSpaceOnUse" id="gradient0" spreadMethod="pad" x1="-819.2" x2="819.2">
      <stop offset="0.0" stop-color="#262626"/>
      <stop offset="0.7215686274509804" stop-color="#737375"/>
      <stop offset="1.0" stop-color="#262626"/>
    </linearGradient>
    <linearGradient gradientTransform="matrix(8.0E-4, -0.0092, -0.0092, -8.0E-4, 112.6, 63.6)" gradientUnits="userSpaceOnUse" id="gradient1" spreadMethod="pad" x1="-819.2" x2="819.2">
      <stop offset="0.0" stop-color="#262626"/>
      <stop offset="0.7215686274509804" stop-color="#737375"/>
      <stop offset="1.0" stop-color="#262626"/>
    </linearGradient>
    <linearGradient gradientTransform="matrix(0.0, -0.0211, -0.0211, 0.0, 90.85, 75.8)" gradientUnits="userSpaceOnUse" id="gradient2" spreadMethod="pad" x1="-819.2" x2="819.2">
      <stop offset="0.0" stop-color="#282828"/>
      <stop offset="0.9058823529411765" stop-color="#a4a4a4"/>
      <stop offset="1.0" stop-color="#373737"/>
    </linearGradient>
    <linearGradient gradientTransform="matrix(0.0, -0.0211, -0.0211, 0.0, 90.85, 73.0)" gradientUnits="userSpaceOnUse" id="gradient3" spreadMethod="pad" x1="-819.2" x2="819.2">
      <stop offset="0.0" stop-color="#a4a4a4"/>
      <stop offset="1.0" stop-color="#282828"/>
    </linearGradient>
  </defs>
</svg>
