<?xml version="1.0" encoding="UTF-8" standalone="no"?>
<svg xmlns:ffdec="https://www.free-decompiler.com/flash" xmlns:xlink="http://www.w3.org/1999/xlink" ffdec:objectType="shape" height="115.1px" width="75.1px" xmlns="http://www.w3.org/2000/svg">
  <g transform="matrix(1.0, 0.0, 0.0, 1.0, -53.3, 77.6)">
    <path d="M118.9 36.35 L116.55 37.5 115.6 29.95 119.8 29.95 118.9 36.35" fill="url(#gradient0)" fill-rule="evenodd" stroke="none"/>
    <path d="M111.75 18.35 L120.15 14.95 123.65 17.45 120.45 30.65 116.75 32.65 114.95 31.4 111.75 18.35" fill="url(#gradient1)" fill-rule="evenodd" stroke="none"/>
    <path d="M115.9 21.25 L111.75 18.35 120.15 14.95 123.65 17.45 115.9 21.25" fill="#8c8c8c" fill-rule="evenodd" stroke="none"/>
    <path d="M115.9 21.25 L116.75 32.65 114.95 31.4 111.75 18.35 115.9 21.25" fill="#4f4f4f" fill-rule="evenodd" stroke="none"/>
    <path d="M63.05 36.35 L62.15 29.95 66.35 29.95 65.4 37.5 63.05 36.35" fill="url(#gradient2)" fill-rule="evenodd" stroke="none"/>
    <path d="M70.0 18.35 L66.8 31.4 65.0 32.65 61.35 30.65 57.35 18.1 61.65 14.95 70.0 18.35" fill="url(#gradient3)" fill-rule="evenodd" stroke="none"/>
    <path d="M65.85 21.25 L57.35 18.1 61.65 14.95 70.0 18.35 65.85 21.25" fill="#8c8c8c" fill-rule="evenodd" stroke="none"/>
    <path d="M65.85 21.25 L70.0 18.35 66.8 31.4 65.0 32.65 65.85 21.25" fill="#4f4f4f" fill-rule="evenodd" stroke="none"/>
    <path d="M67.55 -76.35 L73.35 -77.6 76.5 -75.9 75.05 -63.65 72.25 -63.1 70.85 -64.1 67.55 -76.35" fill="url(#gradient4)" fill-rule="evenodd" stroke="none"/>
    <path d="M70.15 -74.6 L67.55 -76.35 73.35 -77.6 76.5 -75.9 70.15 -74.6" fill="#4f4f4f" fill-rule="evenodd" stroke="none"/>
    <path d="M118.1 -75.2 L113.6 -62.85 112.15 -61.85 109.4 -62.45 108.1 -75.6 111.75 -77.15 118.1 -75.2" fill="url(#gradient5)" fill-rule="evenodd" stroke="none"/>
    <path d="M114.15 -73.55 L108.1 -75.6 111.75 -77.15 118.1 -75.2 114.15 -73.55" fill="#4f4f4f" fill-rule="evenodd" stroke="none"/>
    <path d="M128.4 -57.25 Q128.4 -50.1 117.4 -45.05 106.4 -40.0 90.85 -40.0 75.25 -40.0 64.25 -45.05 53.3 -50.1 53.3 -57.25 53.3 -64.4 64.25 -69.45 75.25 -74.5 90.85 -74.5 106.4 -74.5 117.4 -69.45 128.4 -64.4 128.4 -57.25" fill="url(#gradient6)" fill-rule="evenodd" stroke="none"/>
    <path d="M128.4 -60.05 Q128.4 -52.9 117.4 -47.8 106.4 -42.8 90.85 -42.8 75.25 -42.8 64.25 -47.8 53.3 -52.9 53.3 -60.05 53.3 -67.15 64.25 -72.2 75.25 -77.25 90.85 -77.25 106.4 -77.25 117.4 -72.2 128.4 -67.15 128.4 -60.05" fill="url(#gradient7)" fill-rule="evenodd" stroke="none"/>
    <path d="M113.7 -71.5 Q123.15 -67.35 123.15 -61.5 123.15 -55.65 113.7 -51.5 104.2 -47.4 90.85 -47.4 77.45 -47.4 67.95 -51.5 58.5 -55.65 58.5 -61.5 58.5 -67.35 67.95 -71.5 77.45 -75.65 90.85 -75.65 104.2 -75.65 113.7 -71.5" fill="#131821" fill-rule="evenodd" stroke="none"/>
  </g>
  <defs>
    <linearGradient gradientTransform="matrix(0.0, 0.0046, -0.0046, 0.0, 117.7, 33.7)" gradientUnits="userSpaceOnUse" id="gradient0" spreadMethod="pad" x1="-819.2" x2="819.2">
      <stop offset="0.0" stop-color="#00e0ff" stop-opacity="0.7490196"/>
      <stop offset="1.0" stop-color="#00e0ff" stop-opacity="0.02745098"/>
    </linearGradient>
    <linearGradient gradientTransform="matrix(9.0E-4, 0.0106, -0.0106, 9.0E-4, 118.2, 23.8)" gradientUnits="userSpaceOnUse" id="gradient1" spreadMethod="pad" x1="-819.2" x2="819.2">
      <stop offset="0.0" stop-color="#262626"/>
      <stop offset="0.7215686274509804" stop-color="#737375"/>
      <stop offset="1.0" stop-color="#262626"/>
    </linearGradient>
    <linearGradient gradientTransform="matrix(0.0, 0.0046, 0.0046, 0.0, 64.25, 33.7)" gradientUnits="userSpaceOnUse" id="gradient2" spreadMethod="pad" x1="-819.2" x2="819.2">
      <stop offset="0.0" stop-color="#00e0ff" stop-opacity="0.7490196"/>
      <stop offset="1.0" stop-color="#00e0ff" stop-opacity="0.02745098"/>
    </linearGradient>
    <linearGradient gradientTransform="matrix(9.0E-4, -0.0106, -0.0106, -9.0E-4, 63.25, 23.8)" gradientUnits="userSpaceOnUse" id="gradient3" spreadMethod="pad" x1="-819.2" x2="819.2">
      <stop offset="0.0" stop-color="#262626"/>
      <stop offset="0.7215686274509804" stop-color="#737375"/>
      <stop offset="1.0" stop-color="#262626"/>
    </linearGradient>
    <linearGradient gradientTransform="matrix(7.0E-4, 0.0087, -0.0087, 7.0E-4, 72.5, -70.35)" gradientUnits="userSpaceOnUse" id="gradient4" spreadMethod="pad" x1="-819.2" x2="819.2">
      <stop offset="0.0" stop-color="#262626"/>
      <stop offset="0.7215686274509804" stop-color="#737375"/>
      <stop offset="1.0" stop-color="#262626"/>
    </linearGradient>
    <linearGradient gradientTransform="matrix(8.0E-4, -0.0092, -0.0092, -8.0E-4, 112.6, -69.45)" gradientUnits="userSpaceOnUse" id="gradient5" spreadMethod="pad" x1="-819.2" x2="819.2">
      <stop offset="0.0" stop-color="#262626"/>
      <stop offset="0.7215686274509804" stop-color="#737375"/>
      <stop offset="1.0" stop-color="#262626"/>
    </linearGradient>
    <linearGradient gradientTransform="matrix(0.0, -0.0211, -0.0211, 0.0, 90.85, -57.25)" gradientUnits="userSpaceOnUse" id="gradient6" spreadMethod="pad" x1="-819.2" x2="819.2">
      <stop offset="0.0" stop-color="#282828"/>
      <stop offset="0.9058823529411765" stop-color="#a4a4a4"/>
      <stop offset="1.0" stop-color="#373737"/>
    </linearGradient>
    <linearGradient gradientTransform="matrix(0.0, -0.0211, -0.0211, 0.0, 90.85, -60.05)" gradientUnits="userSpaceOnUse" id="gradient7" spreadMethod="pad" x1="-819.2" x2="819.2">
      <stop offset="0.0" stop-color="#a4a4a4"/>
      <stop offset="1.0" stop-color="#282828"/>
    </linearGradient>
  </defs>
</svg>
