<?xml version="1.0" encoding="UTF-8" standalone="no"?>
<svg xmlns:ffdec="https://www.free-decompiler.com/flash" xmlns:xlink="http://www.w3.org/1999/xlink" ffdec:objectType="shape" height="109.05px" width="141.35px" xmlns="http://www.w3.org/2000/svg">
  <g transform="matrix(1.0, 0.0, 0.0, 1.0, -57.35, 49.1)">
    <path d="M118.9 -27.7 L116.55 -26.55 115.6 -34.1 119.8 -34.1 118.9 -27.7" fill="url(#gradient0)" fill-rule="evenodd" stroke="none"/>
    <path d="M111.75 -45.7 L120.15 -49.1 123.65 -46.6 120.45 -33.4 116.75 -31.4 114.95 -32.65 111.75 -45.7" fill="url(#gradient1)" fill-rule="evenodd" stroke="none"/>
    <path d="M115.9 -42.8 L111.75 -45.7 120.15 -49.1 123.65 -46.6 115.9 -42.8" fill="#8c8c8c" fill-rule="evenodd" stroke="none"/>
    <path d="M115.9 -42.8 L116.75 -31.4 114.95 -32.65 111.75 -45.7 115.9 -42.8" fill="#4f4f4f" fill-rule="evenodd" stroke="none"/>
    <path d="M63.05 -27.7 L62.15 -34.1 66.35 -34.1 65.4 -26.55 63.05 -27.7" fill="url(#gradient2)" fill-rule="evenodd" stroke="none"/>
    <path d="M70.0 -45.7 L66.8 -32.65 65.0 -31.4 61.35 -33.4 57.35 -45.95 61.65 -49.1 70.0 -45.7" fill="url(#gradient3)" fill-rule="evenodd" stroke="none"/>
    <path d="M65.85 -42.8 L57.35 -45.95 61.65 -49.1 70.0 -45.7 65.85 -42.8" fill="#8c8c8c" fill-rule="evenodd" stroke="none"/>
    <path d="M65.85 -42.8 L70.0 -45.7 66.8 -32.65 65.0 -31.4 65.85 -42.8" fill="#4f4f4f" fill-rule="evenodd" stroke="none"/>
    <path d="M137.85 23.6 L143.65 22.35 146.8 24.05 145.35 36.3 142.55 36.85 141.15 35.85 137.85 23.6" fill="url(#gradient4)" fill-rule="evenodd" stroke="none"/>
    <path d="M140.45 25.35 L137.85 23.6 143.65 22.35 146.8 24.05 140.45 25.35" fill="#4f4f4f" fill-rule="evenodd" stroke="none"/>
    <path d="M188.4 24.75 L183.9 37.1 182.45 38.1 179.7 37.5 178.4 24.35 182.05 22.8 188.4 24.75" fill="url(#gradient5)" fill-rule="evenodd" stroke="none"/>
    <path d="M184.45 26.4 L178.4 24.35 182.05 22.8 188.4 24.75 184.45 26.4" fill="#4f4f4f" fill-rule="evenodd" stroke="none"/>
    <path d="M198.7 42.7 Q198.7 49.85 187.7 54.9 176.7 59.95 161.15 59.95 145.55 59.95 134.55 54.9 123.6 49.85 123.6 42.7 123.6 35.55 134.55 30.5 145.55 25.45 161.15 25.45 176.7 25.45 187.7 30.5 198.7 35.55 198.7 42.7" fill="url(#gradient6)" fill-rule="evenodd" stroke="none"/>
    <path d="M198.7 39.9 Q198.7 47.05 187.7 52.15 176.7 57.15 161.15 57.15 145.55 57.15 134.55 52.15 123.6 47.05 123.6 39.9 123.6 32.8 134.55 27.75 145.55 22.7 161.15 22.7 176.7 22.7 187.7 27.75 198.7 32.8 198.7 39.9" fill="url(#gradient7)" fill-rule="evenodd" stroke="none"/>
    <path d="M184.0 28.45 Q193.45 32.6 193.45 38.45 193.45 44.3 184.0 48.45 174.5 52.55 161.15 52.55 147.75 52.55 138.25 48.45 128.8 44.3 128.8 38.45 128.8 32.6 138.25 28.45 147.75 24.3 161.15 24.3 174.5 24.3 184.0 28.45" fill="#131821" fill-rule="evenodd" stroke="none"/>
  </g>
  <defs>
    <linearGradient gradientTransform="matrix(0.0, 0.0046, -0.0046, 0.0, 117.7, -30.35)" gradientUnits="userSpaceOnUse" id="gradient0" spreadMethod="pad" x1="-819.2" x2="819.2">
      <stop offset="0.0" stop-color="#00e0ff" stop-opacity="0.7490196"/>
      <stop offset="1.0" stop-color="#00e0ff" stop-opacity="0.02745098"/>
    </linearGradient>
    <linearGradient gradientTransform="matrix(9.0E-4, 0.0106, -0.0106, 9.0E-4, 118.2, -40.25)" gradientUnits="userSpaceOnUse" id="gradient1" spreadMethod="pad" x1="-819.2" x2="819.2">
      <stop offset="0.0" stop-color="#262626"/>
      <stop offset="0.7215686274509804" stop-color="#737375"/>
      <stop offset="1.0" stop-color="#262626"/>
    </linearGradient>
    <linearGradient gradientTransform="matrix(0.0, 0.0046, 0.0046, 0.0, 64.25, -30.35)" gradientUnits="userSpaceOnUse" id="gradient2" spreadMethod="pad" x1="-819.2" x2="819.2">
      <stop offset="0.0" stop-color="#00e0ff" stop-opacity="0.7490196"/>
      <stop offset="1.0" stop-color="#00e0ff" stop-opacity="0.02745098"/>
    </linearGradient>
    <linearGradient gradientTransform="matrix(9.0E-4, -0.0106, -0.0106, -9.0E-4, 63.25, -40.25)" gradientUnits="userSpaceOnUse" id="gradient3" spreadMethod="pad" x1="-819.2" x2="819.2">
      <stop offset="0.0" stop-color="#262626"/>
      <stop offset="0.7215686274509804" stop-color="#737375"/>
      <stop offset="1.0" stop-color="#262626"/>
    </linearGradient>
    <linearGradient gradientTransform="matrix(7.0E-4, 0.0087, -0.0087, 7.0E-4, 142.8, 29.6)" gradientUnits="userSpaceOnUse" id="gradient4" spreadMethod="pad" x1="-819.2" x2="819.2">
      <stop offset="0.0" stop-color="#262626"/>
      <stop offset="0.7215686274509804" stop-color="#737375"/>
      <stop offset="1.0" stop-color="#262626"/>
    </linearGradient>
    <linearGradient gradientTransform="matrix(8.0E-4, -0.0092, -0.0092, -8.0E-4, 182.9, 30.5)" gradientUnits="userSpaceOnUse" id="gradient5" spreadMethod="pad" x1="-819.2" x2="819.2">
      <stop offset="0.0" stop-color="#262626"/>
      <stop offset="0.7215686274509804" stop-color="#737375"/>
      <stop offset="1.0" stop-color="#262626"/>
    </linearGradient>
    <linearGradient gradientTransform="matrix(0.0, -0.0211, -0.0211, 0.0, 161.15, 42.7)" gradientUnits="userSpaceOnUse" id="gradient6" spreadMethod="pad" x1="-819.2" x2="819.2">
      <stop offset="0.0" stop-color="#282828"/>
      <stop offset="0.9058823529411765" stop-color="#a4a4a4"/>
      <stop offset="1.0" stop-color="#373737"/>
    </linearGradient>
    <linearGradient gradientTransform="matrix(0.0, -0.0211, -0.0211, 0.0, 161.15, 39.9)" gradientUnits="userSpaceOnUse" id="gradient7" spreadMethod="pad" x1="-819.2" x2="819.2">
      <stop offset="0.0" stop-color="#a4a4a4"/>
      <stop offset="1.0" stop-color="#282828"/>
    </linearGradient>
  </defs>
</svg>
