<?xml version="1.0" encoding="UTF-8" standalone="no"?>
<svg xmlns:ffdec="https://www.free-decompiler.com/flash" xmlns:xlink="http://www.w3.org/1999/xlink" ffdec:objectType="shape" height="84.95px" width="144.4px" xmlns="http://www.w3.org/2000/svg">
  <g transform="matrix(1.0, 0.0, 0.0, 1.0, -127.65, 11.55)">
    <path d="M189.2 72.25 L186.85 73.4 185.9 65.85 190.1 65.85 189.2 72.25" fill="url(#gradient0)" fill-rule="evenodd" stroke="none"/>
    <path d="M182.05 54.25 L190.45 50.85 193.95 53.35 190.75 66.55 187.05 68.55 185.25 67.3 182.05 54.25" fill="url(#gradient1)" fill-rule="evenodd" stroke="none"/>
    <path d="M186.2 57.15 L182.05 54.25 190.45 50.85 193.95 53.35 186.2 57.15" fill="#8c8c8c" fill-rule="evenodd" stroke="none"/>
    <path d="M186.2 57.15 L187.05 68.55 185.25 67.3 182.05 54.25 186.2 57.15" fill="#4f4f4f" fill-rule="evenodd" stroke="none"/>
    <path d="M133.35 72.25 L132.45 65.85 136.65 65.85 135.7 73.4 133.35 72.25" fill="url(#gradient2)" fill-rule="evenodd" stroke="none"/>
    <path d="M140.3 54.25 L137.1 67.3 135.3 68.55 131.65 66.55 127.65 54.0 131.95 50.85 140.3 54.25" fill="url(#gradient3)" fill-rule="evenodd" stroke="none"/>
    <path d="M136.15 57.15 L127.65 54.0 131.95 50.85 140.3 54.25 136.15 57.15" fill="#8c8c8c" fill-rule="evenodd" stroke="none"/>
    <path d="M136.15 57.15 L140.3 54.25 137.1 67.3 135.3 68.55 136.15 57.15" fill="#4f4f4f" fill-rule="evenodd" stroke="none"/>
    <path d="M211.2 -10.3 L217.0 -11.55 220.15 -9.85 218.7 2.4 215.9 2.95 214.5 1.95 211.2 -10.3" fill="url(#gradient4)" fill-rule="evenodd" stroke="none"/>
    <path d="M213.8 -8.55 L211.2 -10.3 217.0 -11.55 220.15 -9.85 213.8 -8.55" fill="#4f4f4f" fill-rule="evenodd" stroke="none"/>
    <path d="M261.75 -9.15 L257.25 3.2 255.8 4.2 253.05 3.6 251.75 -9.55 255.4 -11.1 261.75 -9.15" fill="url(#gradient5)" fill-rule="evenodd" stroke="none"/>
    <path d="M257.8 -7.5 L251.75 -9.55 255.4 -11.1 261.75 -9.15 257.8 -7.5" fill="#4f4f4f" fill-rule="evenodd" stroke="none"/>
    <path d="M272.05 8.8 Q272.05 15.95 261.05 21.0 250.05 26.05 234.5 26.05 218.9 26.05 207.9 21.0 196.95 15.95 196.95 8.8 196.95 1.65 207.9 -3.4 218.9 -8.45 234.5 -8.45 250.05 -8.45 261.05 -3.4 272.05 1.65 272.05 8.8" fill="url(#gradient6)" fill-rule="evenodd" stroke="none"/>
    <path d="M272.05 6.0 Q272.05 13.15 261.05 18.25 250.05 23.25 234.5 23.25 218.9 23.25 207.9 18.25 196.95 13.15 196.95 6.0 196.95 -1.1 207.9 -6.15 218.9 -11.2 234.5 -11.2 250.05 -11.2 261.05 -6.15 272.05 -1.1 272.05 6.0" fill="url(#gradient7)" fill-rule="evenodd" stroke="none"/>
    <path d="M257.35 -5.45 Q266.8 -1.3 266.8 4.55 266.8 10.4 257.35 14.55 247.85 18.65 234.5 18.65 221.1 18.65 211.6 14.55 202.15 10.4 202.15 4.55 202.15 -1.3 211.6 -5.45 221.1 -9.6 234.5 -9.6 247.85 -9.6 257.35 -5.45" fill="#131821" fill-rule="evenodd" stroke="none"/>
  </g>
  <defs>
    <linearGradient gradientTransform="matrix(0.0, 0.0046, -0.0046, 0.0, 188.0, 69.6)" gradientUnits="userSpaceOnUse" id="gradient0" spreadMethod="pad" x1="-819.2" x2="819.2">
      <stop offset="0.0" stop-color="#00e0ff" stop-opacity="0.7490196"/>
      <stop offset="1.0" stop-color="#00e0ff" stop-opacity="0.02745098"/>
    </linearGradient>
    <linearGradient gradientTransform="matrix(9.0E-4, 0.0106, -0.0106, 9.0E-4, 188.5, 59.7)" gradientUnits="userSpaceOnUse" id="gradient1" spreadMethod="pad" x1="-819.2" x2="819.2">
      <stop offset="0.0" stop-color="#262626"/>
      <stop offset="0.7215686274509804" stop-color="#737375"/>
      <stop offset="1.0" stop-color="#262626"/>
    </linearGradient>
    <linearGradient gradientTransform="matrix(0.0, 0.0046, 0.0046, 0.0, 134.55, 69.6)" gradientUnits="userSpaceOnUse" id="gradient2" spreadMethod="pad" x1="-819.2" x2="819.2">
      <stop offset="0.0" stop-color="#00e0ff" stop-opacity="0.7490196"/>
      <stop offset="1.0" stop-color="#00e0ff" stop-opacity="0.02745098"/>
    </linearGradient>
    <linearGradient gradientTransform="matrix(9.0E-4, -0.0106, -0.0106, -9.0E-4, 133.55, 59.7)" gradientUnits="userSpaceOnUse" id="gradient3" spreadMethod="pad" x1="-819.2" x2="819.2">
      <stop offset="0.0" stop-color="#262626"/>
      <stop offset="0.7215686274509804" stop-color="#737375"/>
      <stop offset="1.0" stop-color="#262626"/>
    </linearGradient>
    <linearGradient gradientTransform="matrix(7.0E-4, 0.0087, -0.0087, 7.0E-4, 216.15, -4.3)" gradientUnits="userSpaceOnUse" id="gradient4" spreadMethod="pad" x1="-819.2" x2="819.2">
      <stop offset="0.0" stop-color="#262626"/>
      <stop offset="0.7215686274509804" stop-color="#737375"/>
      <stop offset="1.0" stop-color="#262626"/>
    </linearGradient>
    <linearGradient gradientTransform="matrix(8.0E-4, -0.0092, -0.0092, -8.0E-4, 256.25, -3.4)" gradientUnits="userSpaceOnUse" id="gradient5" spreadMethod="pad" x1="-819.2" x2="819.2">
      <stop offset="0.0" stop-color="#262626"/>
      <stop offset="0.7215686274509804" stop-color="#737375"/>
      <stop offset="1.0" stop-color="#262626"/>
    </linearGradient>
    <linearGradient gradientTransform="matrix(0.0, -0.0211, -0.0211, 0.0, 234.5, 8.8)" gradientUnits="userSpaceOnUse" id="gradient6" spreadMethod="pad" x1="-819.2" x2="819.2">
      <stop offset="0.0" stop-color="#282828"/>
      <stop offset="0.9058823529411765" stop-color="#a4a4a4"/>
      <stop offset="1.0" stop-color="#373737"/>
    </linearGradient>
    <linearGradient gradientTransform="matrix(0.0, -0.0211, -0.0211, 0.0, 234.5, 6.0)" gradientUnits="userSpaceOnUse" id="gradient7" spreadMethod="pad" x1="-819.2" x2="819.2">
      <stop offset="0.0" stop-color="#a4a4a4"/>
      <stop offset="1.0" stop-color="#282828"/>
    </linearGradient>
  </defs>
</svg>
