<?xml version="1.0" encoding="UTF-8" standalone="no"?>
<svg xmlns:ffdec="https://www.free-decompiler.com/flash" xmlns:xlink="http://www.w3.org/1999/xlink" ffdec:objectType="shape" height="86.85px" width="143.7px" xmlns="http://www.w3.org/2000/svg">
  <g transform="matrix(1.0, 0.0, 0.0, 1.0, -123.6, 47.35)">
    <path d="M262.55 38.35 L260.2 39.5 259.25 31.95 263.45 31.95 262.55 38.35" fill="url(#gradient0)" fill-rule="evenodd" stroke="none"/>
    <path d="M255.4 20.35 L263.8 16.95 267.3 19.45 264.1 32.65 260.4 34.65 258.6 33.4 255.4 20.35" fill="url(#gradient1)" fill-rule="evenodd" stroke="none"/>
    <path d="M259.55 23.25 L255.4 20.35 263.8 16.95 267.3 19.45 259.55 23.25" fill="#8c8c8c" fill-rule="evenodd" stroke="none"/>
    <path d="M259.55 23.25 L260.4 34.65 258.6 33.4 255.4 20.35 259.55 23.25" fill="#4f4f4f" fill-rule="evenodd" stroke="none"/>
    <path d="M206.7 38.35 L205.8 31.95 210.0 31.95 209.05 39.5 206.7 38.35" fill="url(#gradient2)" fill-rule="evenodd" stroke="none"/>
    <path d="M213.65 20.35 L210.45 33.4 208.65 34.65 205.0 32.65 201.0 20.1 205.3 16.95 213.65 20.35" fill="url(#gradient3)" fill-rule="evenodd" stroke="none"/>
    <path d="M209.5 23.25 L201.0 20.1 205.3 16.95 213.65 20.35 209.5 23.25" fill="#8c8c8c" fill-rule="evenodd" stroke="none"/>
    <path d="M209.5 23.25 L213.65 20.35 210.45 33.4 208.65 34.65 209.5 23.25" fill="#4f4f4f" fill-rule="evenodd" stroke="none"/>
    <path d="M137.85 -46.1 L143.65 -47.35 146.8 -45.65 145.35 -33.4 142.55 -32.85 141.15 -33.85 137.85 -46.1" fill="url(#gradient4)" fill-rule="evenodd" stroke="none"/>
    <path d="M140.45 -44.35 L137.85 -46.1 143.65 -47.35 146.8 -45.65 140.45 -44.35" fill="#4f4f4f" fill-rule="evenodd" stroke="none"/>
    <path d="M188.4 -44.95 L183.9 -32.6 182.45 -31.6 179.7 -32.2 178.4 -45.35 182.05 -46.9 188.4 -44.95" fill="url(#gradient5)" fill-rule="evenodd" stroke="none"/>
    <path d="M184.45 -43.3 L178.4 -45.35 182.05 -46.9 188.4 -44.95 184.45 -43.3" fill="#4f4f4f" fill-rule="evenodd" stroke="none"/>
    <path d="M198.7 -27.0 Q198.7 -19.85 187.7 -14.8 176.7 -9.75 161.15 -9.75 145.55 -9.75 134.55 -14.8 123.6 -19.85 123.6 -27.0 123.6 -34.15 134.55 -39.2 145.55 -44.25 161.15 -44.25 176.7 -44.25 187.7 -39.2 198.7 -34.15 198.7 -27.0" fill="url(#gradient6)" fill-rule="evenodd" stroke="none"/>
    <path d="M198.7 -29.8 Q198.7 -22.65 187.7 -17.55 176.7 -12.55 161.15 -12.55 145.55 -12.55 134.55 -17.55 123.6 -22.65 123.6 -29.8 123.6 -36.9 134.55 -41.95 145.55 -47.0 161.15 -47.0 176.7 -47.0 187.7 -41.95 198.7 -36.9 198.7 -29.8" fill="url(#gradient7)" fill-rule="evenodd" stroke="none"/>
    <path d="M184.0 -41.25 Q193.45 -37.1 193.45 -31.25 193.45 -25.4 184.0 -21.25 174.5 -17.15 161.15 -17.15 147.75 -17.15 138.25 -21.25 128.8 -25.4 128.8 -31.25 128.8 -37.1 138.25 -41.25 147.75 -45.4 161.15 -45.4 174.5 -45.4 184.0 -41.25" fill="#131821" fill-rule="evenodd" stroke="none"/>
  </g>
  <defs>
    <linearGradient gradientTransform="matrix(0.0, 0.0046, -0.0046, 0.0, 261.35, 35.7)" gradientUnits="userSpaceOnUse" id="gradient0" spreadMethod="pad" x1="-819.2" x2="819.2">
      <stop offset="0.0" stop-color="#00e0ff" stop-opacity="0.7490196"/>
      <stop offset="1.0" stop-color="#00e0ff" stop-opacity="0.02745098"/>
    </linearGradient>
    <linearGradient gradientTransform="matrix(9.0E-4, 0.0106, -0.0106, 9.0E-4, 261.85, 25.8)" gradientUnits="userSpaceOnUse" id="gradient1" spreadMethod="pad" x1="-819.2" x2="819.2">
      <stop offset="0.0" stop-color="#262626"/>
      <stop offset="0.7215686274509804" stop-color="#737375"/>
      <stop offset="1.0" stop-color="#262626"/>
    </linearGradient>
    <linearGradient gradientTransform="matrix(0.0, 0.0046, 0.0046, 0.0, 207.9, 35.7)" gradientUnits="userSpaceOnUse" id="gradient2" spreadMethod="pad" x1="-819.2" x2="819.2">
      <stop offset="0.0" stop-color="#00e0ff" stop-opacity="0.7490196"/>
      <stop offset="1.0" stop-color="#00e0ff" stop-opacity="0.02745098"/>
    </linearGradient>
    <linearGradient gradientTransform="matrix(9.0E-4, -0.0106, -0.0106, -9.0E-4, 206.9, 25.8)" gradientUnits="userSpaceOnUse" id="gradient3" spreadMethod="pad" x1="-819.2" x2="819.2">
      <stop offset="0.0" stop-color="#262626"/>
      <stop offset="0.7215686274509804" stop-color="#737375"/>
      <stop offset="1.0" stop-color="#262626"/>
    </linearGradient>
    <linearGradient gradientTransform="matrix(7.0E-4, 0.0087, -0.0087, 7.0E-4, 142.8, -40.1)" gradientUnits="userSpaceOnUse" id="gradient4" spreadMethod="pad" x1="-819.2" x2="819.2">
      <stop offset="0.0" stop-color="#262626"/>
      <stop offset="0.7215686274509804" stop-color="#737375"/>
      <stop offset="1.0" stop-color="#262626"/>
    </linearGradient>
    <linearGradient gradientTransform="matrix(8.0E-4, -0.0092, -0.0092, -8.0E-4, 182.9, -39.2)" gradientUnits="userSpaceOnUse" id="gradient5" spreadMethod="pad" x1="-819.2" x2="819.2">
      <stop offset="0.0" stop-color="#262626"/>
      <stop offset="0.7215686274509804" stop-color="#737375"/>
      <stop offset="1.0" stop-color="#262626"/>
    </linearGradient>
    <linearGradient gradientTransform="matrix(0.0, -0.0211, -0.0211, 0.0, 161.15, -27.0)" gradientUnits="userSpaceOnUse" id="gradient6" spreadMethod="pad" x1="-819.2" x2="819.2">
      <stop offset="0.0" stop-color="#282828"/>
      <stop offset="0.9058823529411765" stop-color="#a4a4a4"/>
      <stop offset="1.0" stop-color="#373737"/>
    </linearGradient>
    <linearGradient gradientTransform="matrix(0.0, -0.0211, -0.0211, 0.0, 161.15, -29.8)" gradientUnits="userSpaceOnUse" id="gradient7" spreadMethod="pad" x1="-819.2" x2="819.2">
      <stop offset="0.0" stop-color="#a4a4a4"/>
      <stop offset="1.0" stop-color="#282828"/>
    </linearGradient>
  </defs>
</svg>
