<?xml version="1.0" encoding="UTF-8" standalone="no"?>
<svg xmlns:ffdec="https://www.free-decompiler.com/flash" xmlns:xlink="http://www.w3.org/1999/xlink" ffdec:objectType="shape" height="80.8px" width="213.95px" xmlns="http://www.w3.org/2000/svg">
  <g transform="matrix(1.0, 0.0, 0.0, 1.0, 20.0, 18.85)">
    <path d="M189.2 2.55 L186.85 3.7 185.9 -3.85 190.1 -3.85 189.2 2.55" fill="url(#gradient0)" fill-rule="evenodd" stroke="none"/>
    <path d="M182.05 -15.45 L190.45 -18.85 193.95 -16.35 190.75 -3.15 187.05 -1.15 185.25 -2.4 182.05 -15.45" fill="url(#gradient1)" fill-rule="evenodd" stroke="none"/>
    <path d="M186.2 -12.55 L182.05 -15.45 190.45 -18.85 193.95 -16.35 186.2 -12.55" fill="#8c8c8c" fill-rule="evenodd" stroke="none"/>
    <path d="M186.2 -12.55 L187.05 -1.15 185.25 -2.4 182.05 -15.45 186.2 -12.55" fill="#4f4f4f" fill-rule="evenodd" stroke="none"/>
    <path d="M133.35 2.55 L132.45 -3.85 136.65 -3.85 135.7 3.7 133.35 2.55" fill="url(#gradient2)" fill-rule="evenodd" stroke="none"/>
    <path d="M140.3 -15.45 L137.1 -2.4 135.3 -1.15 131.65 -3.15 127.65 -15.7 131.95 -18.85 140.3 -15.45" fill="url(#gradient3)" fill-rule="evenodd" stroke="none"/>
    <path d="M136.15 -12.55 L127.65 -15.7 131.95 -18.85 140.3 -15.45 136.15 -12.55" fill="#8c8c8c" fill-rule="evenodd" stroke="none"/>
    <path d="M136.15 -12.55 L140.3 -15.45 137.1 -2.4 135.3 -1.15 136.15 -12.55" fill="#4f4f4f" fill-rule="evenodd" stroke="none"/>
    <path d="M40.85 25.6 L35.05 24.35 31.9 26.05 33.35 38.3 36.15 38.85 37.55 37.85 40.85 25.6" fill="url(#gradient4)" fill-rule="evenodd" stroke="none"/>
    <path d="M38.25 27.35 L40.85 25.6 35.05 24.35 31.9 26.05 38.25 27.35" fill="#4f4f4f" fill-rule="evenodd" stroke="none"/>
    <path d="M-9.7 26.75 L-5.2 39.1 -3.75 40.1 -1.0 39.5 0.3 26.35 -3.35 24.8 -9.7 26.75" fill="url(#gradient5)" fill-rule="evenodd" stroke="none"/>
    <path d="M-5.75 28.4 L0.3 26.35 -3.35 24.8 -9.7 26.75 -5.75 28.4" fill="#4f4f4f" fill-rule="evenodd" stroke="none"/>
    <path d="M-20.0 44.7 Q-20.0 51.85 -9.0 56.9 2.0 61.95 17.55 61.95 33.15 61.95 44.15 56.9 55.1 51.85 55.1 44.7 55.1 37.55 44.15 32.5 33.15 27.45 17.55 27.45 2.0 27.45 -9.0 32.5 -20.0 37.55 -20.0 44.7" fill="url(#gradient6)" fill-rule="evenodd" stroke="none"/>
    <path d="M-20.0 41.9 Q-20.0 49.05 -9.0 54.15 2.0 59.15 17.55 59.15 33.15 59.15 44.15 54.15 55.1 49.05 55.1 41.9 55.1 34.8 44.15 29.75 33.15 24.7 17.55 24.7 2.0 24.7 -9.0 29.75 -20.0 34.8 -20.0 41.9" fill="url(#gradient7)" fill-rule="evenodd" stroke="none"/>
    <path d="M-5.3 30.45 Q-14.75 34.6 -14.75 40.45 -14.75 46.3 -5.3 50.45 4.2 54.55 17.55 54.55 30.95 54.55 40.45 50.45 49.9 46.3 49.9 40.45 49.9 34.6 40.45 30.45 30.95 26.3 17.55 26.3 4.2 26.3 -5.3 30.45" fill="#131821" fill-rule="evenodd" stroke="none"/>
  </g>
  <defs>
    <linearGradient gradientTransform="matrix(0.0, 0.0046, -0.0046, 0.0, 188.0, -0.1)" gradientUnits="userSpaceOnUse" id="gradient0" spreadMethod="pad" x1="-819.2" x2="819.2">
      <stop offset="0.0" stop-color="#00e0ff" stop-opacity="0.7490196"/>
      <stop offset="1.0" stop-color="#00e0ff" stop-opacity="0.02745098"/>
    </linearGradient>
    <linearGradient gradientTransform="matrix(9.0E-4, 0.0106, -0.0106, 9.0E-4, 188.5, -10.0)" gradientUnits="userSpaceOnUse" id="gradient1" spreadMethod="pad" x1="-819.2" x2="819.2">
      <stop offset="0.0" stop-color="#262626"/>
      <stop offset="0.7215686274509804" stop-color="#737375"/>
      <stop offset="1.0" stop-color="#262626"/>
    </linearGradient>
    <linearGradient gradientTransform="matrix(0.0, 0.0046, 0.0046, 0.0, 134.55, -0.1)" gradientUnits="userSpaceOnUse" id="gradient2" spreadMethod="pad" x1="-819.2" x2="819.2">
      <stop offset="0.0" stop-color="#00e0ff" stop-opacity="0.7490196"/>
      <stop offset="1.0" stop-color="#00e0ff" stop-opacity="0.02745098"/>
    </linearGradient>
    <linearGradient gradientTransform="matrix(9.0E-4, -0.0106, -0.0106, -9.0E-4, 133.55, -10.0)" gradientUnits="userSpaceOnUse" id="gradient3" spreadMethod="pad" x1="-819.2" x2="819.2">
      <stop offset="0.0" stop-color="#262626"/>
      <stop offset="0.7215686274509804" stop-color="#737375"/>
      <stop offset="1.0" stop-color="#262626"/>
    </linearGradient>
    <linearGradient gradientTransform="matrix(-7.0E-4, 0.0087, 0.0087, 7.0E-4, 35.9, 31.6)" gradientUnits="userSpaceOnUse" id="gradient4" spreadMethod="pad" x1="-819.2" x2="819.2">
      <stop offset="0.0" stop-color="#262626"/>
      <stop offset="0.7215686274509804" stop-color="#737375"/>
      <stop offset="1.0" stop-color="#262626"/>
    </linearGradient>
    <linearGradient gradientTransform="matrix(-8.0E-4, -0.0092, 0.0092, -8.0E-4, -4.2, 32.5)" gradientUnits="userSpaceOnUse" id="gradient5" spreadMethod="pad" x1="-819.2" x2="819.2">
      <stop offset="0.0" stop-color="#262626"/>
      <stop offset="0.7215686274509804" stop-color="#737375"/>
      <stop offset="1.0" stop-color="#262626"/>
    </linearGradient>
    <linearGradient gradientTransform="matrix(0.0, -0.0211, 0.0211, 0.0, 17.55, 44.7)" gradientUnits="userSpaceOnUse" id="gradient6" spreadMethod="pad" x1="-819.2" x2="819.2">
      <stop offset="0.0" stop-color="#282828"/>
      <stop offset="0.9058823529411765" stop-color="#a4a4a4"/>
      <stop offset="1.0" stop-color="#373737"/>
    </linearGradient>
    <linearGradient gradientTransform="matrix(0.0, -0.0211, 0.0211, 0.0, 17.55, 41.9)" gradientUnits="userSpaceOnUse" id="gradient7" spreadMethod="pad" x1="-819.2" x2="819.2">
      <stop offset="0.0" stop-color="#a4a4a4"/>
      <stop offset="1.0" stop-color="#282828"/>
    </linearGradient>
  </defs>
</svg>
