<?xml version="1.0" encoding="UTF-8" standalone="no"?>
<svg xmlns:ffdec="https://www.free-decompiler.com/flash" xmlns:xlink="http://www.w3.org/1999/xlink" ffdec:objectType="shape" height="87.95px" width="144.35px" xmlns="http://www.w3.org/2000/svg">
  <g transform="matrix(1.0, 0.0, 0.0, 1.0, 93.3, 12.55)">
    <path d="M-10.5 74.25 L-8.15 75.4 -7.2 67.85 -11.4 67.85 -10.5 74.25" fill="url(#gradient0)" fill-rule="evenodd" stroke="none"/>
    <path d="M-3.35 56.25 L-11.75 52.85 -15.25 55.35 -12.05 68.55 -8.35 70.55 -6.55 69.3 -3.35 56.25" fill="url(#gradient1)" fill-rule="evenodd" stroke="none"/>
    <path d="M-7.5 59.15 L-3.35 56.25 -11.75 52.85 -15.25 55.35 -7.5 59.15" fill="#8c8c8c" fill-rule="evenodd" stroke="none"/>
    <path d="M-7.5 59.15 L-8.35 70.55 -6.55 69.3 -3.35 56.25 -7.5 59.15" fill="#4f4f4f" fill-rule="evenodd" stroke="none"/>
    <path d="M45.35 74.25 L46.25 67.85 42.05 67.85 43.0 75.4 45.35 74.25" fill="url(#gradient2)" fill-rule="evenodd" stroke="none"/>
    <path d="M38.4 56.25 L41.6 69.3 43.4 70.55 47.05 68.55 51.05 56.0 46.75 52.85 38.4 56.25" fill="url(#gradient3)" fill-rule="evenodd" stroke="none"/>
    <path d="M42.55 59.15 L51.05 56.0 46.75 52.85 38.4 56.25 42.55 59.15" fill="#8c8c8c" fill-rule="evenodd" stroke="none"/>
    <path d="M42.55 59.15 L38.4 56.25 41.6 69.3 43.4 70.55 42.55 59.15" fill="#4f4f4f" fill-rule="evenodd" stroke="none"/>
    <path d="M-32.45 -11.3 L-38.25 -12.55 -41.4 -10.85 -39.95 1.4 -37.15 1.95 -35.75 0.95 -32.45 -11.3" fill="url(#gradient4)" fill-rule="evenodd" stroke="none"/>
    <path d="M-35.05 -9.55 L-32.45 -11.3 -38.25 -12.55 -41.4 -10.85 -35.05 -9.55" fill="#4f4f4f" fill-rule="evenodd" stroke="none"/>
    <path d="M-83.0 -10.15 L-78.5 2.2 -77.05 3.2 -74.3 2.6 -73.0 -10.55 -76.65 -12.1 -83.0 -10.15" fill="url(#gradient5)" fill-rule="evenodd" stroke="none"/>
    <path d="M-79.05 -8.5 L-73.0 -10.55 -76.65 -12.1 -83.0 -10.15 -79.05 -8.5" fill="#4f4f4f" fill-rule="evenodd" stroke="none"/>
    <path d="M-93.3 7.8 Q-93.3 14.95 -82.3 20.0 -71.3 25.05 -55.75 25.05 -40.15 25.05 -29.15 20.0 -18.2 14.95 -18.2 7.8 -18.2 0.65 -29.15 -4.4 -40.15 -9.45 -55.75 -9.45 -71.3 -9.45 -82.3 -4.4 -93.3 0.65 -93.3 7.8" fill="url(#gradient6)" fill-rule="evenodd" stroke="none"/>
    <path d="M-93.3 5.0 Q-93.3 12.15 -82.3 17.25 -71.3 22.25 -55.75 22.25 -40.15 22.25 -29.15 17.25 -18.2 12.15 -18.2 5.0 -18.2 -2.1 -29.15 -7.15 -40.15 -12.2 -55.75 -12.2 -71.3 -12.2 -82.3 -7.15 -93.3 -2.1 -93.3 5.0" fill="url(#gradient7)" fill-rule="evenodd" stroke="none"/>
    <path d="M-78.6 -6.45 Q-88.05 -2.3 -88.05 3.55 -88.05 9.4 -78.6 13.55 -69.1 17.65 -55.75 17.65 -42.35 17.65 -32.85 13.55 -23.4 9.4 -23.4 3.55 -23.4 -2.3 -32.85 -6.45 -42.35 -10.6 -55.75 -10.6 -69.1 -10.6 -78.6 -6.45" fill="#131821" fill-rule="evenodd" stroke="none"/>
  </g>
  <defs>
    <linearGradient gradientTransform="matrix(0.0, 0.0046, 0.0046, 0.0, -9.3, 71.6)" gradientUnits="userSpaceOnUse" id="gradient0" spreadMethod="pad" x1="-819.2" x2="819.2">
      <stop offset="0.0" stop-color="#00e0ff" stop-opacity="0.7490196"/>
      <stop offset="1.0" stop-color="#00e0ff" stop-opacity="0.02745098"/>
    </linearGradient>
    <linearGradient gradientTransform="matrix(-9.0E-4, 0.0106, 0.0106, 9.0E-4, -9.8, 61.7)" gradientUnits="userSpaceOnUse" id="gradient1" spreadMethod="pad" x1="-819.2" x2="819.2">
      <stop offset="0.0" stop-color="#262626"/>
      <stop offset="0.7215686274509804" stop-color="#737375"/>
      <stop offset="1.0" stop-color="#262626"/>
    </linearGradient>
    <linearGradient gradientTransform="matrix(0.0, 0.0046, -0.0046, 0.0, 44.15, 71.6)" gradientUnits="userSpaceOnUse" id="gradient2" spreadMethod="pad" x1="-819.2" x2="819.2">
      <stop offset="0.0" stop-color="#00e0ff" stop-opacity="0.7490196"/>
      <stop offset="1.0" stop-color="#00e0ff" stop-opacity="0.02745098"/>
    </linearGradient>
    <linearGradient gradientTransform="matrix(-9.0E-4, -0.0106, 0.0106, -9.0E-4, 45.15, 61.7)" gradientUnits="userSpaceOnUse" id="gradient3" spreadMethod="pad" x1="-819.2" x2="819.2">
      <stop offset="0.0" stop-color="#262626"/>
      <stop offset="0.7215686274509804" stop-color="#737375"/>
      <stop offset="1.0" stop-color="#262626"/>
    </linearGradient>
    <linearGradient gradientTransform="matrix(-7.0E-4, 0.0087, 0.0087, 7.0E-4, -37.4, -5.3)" gradientUnits="userSpaceOnUse" id="gradient4" spreadMethod="pad" x1="-819.2" x2="819.2">
      <stop offset="0.0" stop-color="#262626"/>
      <stop offset="0.7215686274509804" stop-color="#737375"/>
      <stop offset="1.0" stop-color="#262626"/>
    </linearGradient>
    <linearGradient gradientTransform="matrix(-8.0E-4, -0.0092, 0.0092, -8.0E-4, -77.5, -4.4)" gradientUnits="userSpaceOnUse" id="gradient5" spreadMethod="pad" x1="-819.2" x2="819.2">
      <stop offset="0.0" stop-color="#262626"/>
      <stop offset="0.7215686274509804" stop-color="#737375"/>
      <stop offset="1.0" stop-color="#262626"/>
    </linearGradient>
    <linearGradient gradientTransform="matrix(0.0, -0.0211, 0.0211, 0.0, -55.75, 7.8)" gradientUnits="userSpaceOnUse" id="gradient6" spreadMethod="pad" x1="-819.2" x2="819.2">
      <stop offset="0.0" stop-color="#282828"/>
      <stop offset="0.9058823529411765" stop-color="#a4a4a4"/>
      <stop offset="1.0" stop-color="#373737"/>
    </linearGradient>
    <linearGradient gradientTransform="matrix(0.0, -0.0211, 0.0211, 0.0, -55.75, 5.0)" gradientUnits="userSpaceOnUse" id="gradient7" spreadMethod="pad" x1="-819.2" x2="819.2">
      <stop offset="0.0" stop-color="#a4a4a4"/>
      <stop offset="1.0" stop-color="#282828"/>
    </linearGradient>
  </defs>
</svg>
