<?xml version="1.0" encoding="UTF-8" standalone="no"?>
<svg xmlns:ffdec="https://www.free-decompiler.com/flash" xmlns:xlink="http://www.w3.org/1999/xlink" ffdec:objectType="shape" height="86.85px" width="143.65px" xmlns="http://www.w3.org/2000/svg">
  <g transform="matrix(1.0, 0.0, 0.0, 1.0, 88.55, 48.35)">
    <path d="M-83.8 37.35 L-81.45 38.5 -80.5 30.95 -84.7 30.95 -83.8 37.35" fill="url(#gradient0)" fill-rule="evenodd" stroke="none"/>
    <path d="M-76.65 19.35 L-85.05 15.95 -88.55 18.45 -85.35 31.65 -81.65 33.65 -79.85 32.4 -76.65 19.35" fill="url(#gradient1)" fill-rule="evenodd" stroke="none"/>
    <path d="M-80.8 22.25 L-76.65 19.35 -85.05 15.95 -88.55 18.45 -80.8 22.25" fill="#8c8c8c" fill-rule="evenodd" stroke="none"/>
    <path d="M-80.8 22.25 L-81.65 33.65 -79.85 32.4 -76.65 19.35 -80.8 22.25" fill="#4f4f4f" fill-rule="evenodd" stroke="none"/>
    <path d="M-27.95 37.35 L-27.05 30.95 -31.25 30.95 -30.3 38.5 -27.95 37.35" fill="url(#gradient2)" fill-rule="evenodd" stroke="none"/>
    <path d="M-34.9 19.35 L-31.7 32.4 -29.9 33.65 -26.25 31.65 -22.25 19.1 -26.55 15.95 -34.9 19.35" fill="url(#gradient3)" fill-rule="evenodd" stroke="none"/>
    <path d="M-30.75 22.25 L-22.25 19.1 -26.55 15.95 -34.9 19.35 -30.75 22.25" fill="#8c8c8c" fill-rule="evenodd" stroke="none"/>
    <path d="M-30.75 22.25 L-34.9 19.35 -31.7 32.4 -29.9 33.65 -30.75 22.25" fill="#4f4f4f" fill-rule="evenodd" stroke="none"/>
    <path d="M40.85 -47.1 L35.05 -48.35 31.9 -46.65 33.35 -34.4 36.15 -33.85 37.55 -34.85 40.85 -47.1" fill="url(#gradient4)" fill-rule="evenodd" stroke="none"/>
    <path d="M38.25 -45.35 L40.85 -47.1 35.05 -48.35 31.9 -46.65 38.25 -45.35" fill="#4f4f4f" fill-rule="evenodd" stroke="none"/>
    <path d="M-9.7 -45.95 L-5.2 -33.6 -3.75 -32.6 -1.0 -33.2 0.3 -46.35 -3.35 -47.9 -9.7 -45.95" fill="url(#gradient5)" fill-rule="evenodd" stroke="none"/>
    <path d="M-5.75 -44.3 L0.3 -46.35 -3.35 -47.9 -9.7 -45.95 -5.75 -44.3" fill="#4f4f4f" fill-rule="evenodd" stroke="none"/>
    <path d="M-20.0 -28.0 Q-20.0 -20.85 -9.0 -15.8 2.0 -10.75 17.55 -10.75 33.15 -10.75 44.15 -15.8 55.1 -20.85 55.1 -28.0 55.1 -35.15 44.15 -40.2 33.15 -45.25 17.55 -45.25 2.0 -45.25 -9.0 -40.2 -20.0 -35.15 -20.0 -28.0" fill="url(#gradient6)" fill-rule="evenodd" stroke="none"/>
    <path d="M-20.0 -30.8 Q-20.0 -23.65 -9.0 -18.55 2.0 -13.55 17.55 -13.55 33.15 -13.55 44.15 -18.55 55.1 -23.65 55.1 -30.8 55.1 -37.9 44.15 -42.95 33.15 -48.0 17.55 -48.0 2.0 -48.0 -9.0 -42.95 -20.0 -37.9 -20.0 -30.8" fill="url(#gradient7)" fill-rule="evenodd" stroke="none"/>
    <path d="M-5.3 -42.25 Q-14.75 -38.1 -14.75 -32.25 -14.75 -26.4 -5.3 -22.25 4.2 -18.15 17.55 -18.15 30.95 -18.15 40.45 -22.25 49.9 -26.4 49.9 -32.25 49.9 -38.1 40.45 -42.25 30.95 -46.4 17.55 -46.4 4.2 -46.4 -5.3 -42.25" fill="#131821" fill-rule="evenodd" stroke="none"/>
  </g>
  <defs>
    <linearGradient gradientTransform="matrix(0.0, 0.0046, 0.0046, 0.0, -82.6, 34.7)" gradientUnits="userSpaceOnUse" id="gradient0" spreadMethod="pad" x1="-819.2" x2="819.2">
      <stop offset="0.0" stop-color="#00e0ff" stop-opacity="0.7490196"/>
      <stop offset="1.0" stop-color="#00e0ff" stop-opacity="0.02745098"/>
    </linearGradient>
    <linearGradient gradientTransform="matrix(-9.0E-4, 0.0106, 0.0106, 9.0E-4, -83.1, 24.8)" gradientUnits="userSpaceOnUse" id="gradient1" spreadMethod="pad" x1="-819.2" x2="819.2">
      <stop offset="0.0" stop-color="#262626"/>
      <stop offset="0.7215686274509804" stop-color="#737375"/>
      <stop offset="1.0" stop-color="#262626"/>
    </linearGradient>
    <linearGradient gradientTransform="matrix(0.0, 0.0046, -0.0046, 0.0, -29.15, 34.7)" gradientUnits="userSpaceOnUse" id="gradient2" spreadMethod="pad" x1="-819.2" x2="819.2">
      <stop offset="0.0" stop-color="#00e0ff" stop-opacity="0.7490196"/>
      <stop offset="1.0" stop-color="#00e0ff" stop-opacity="0.02745098"/>
    </linearGradient>
    <linearGradient gradientTransform="matrix(-9.0E-4, -0.0106, 0.0106, -9.0E-4, -28.15, 24.8)" gradientUnits="userSpaceOnUse" id="gradient3" spreadMethod="pad" x1="-819.2" x2="819.2">
      <stop offset="0.0" stop-color="#262626"/>
      <stop offset="0.7215686274509804" stop-color="#737375"/>
      <stop offset="1.0" stop-color="#262626"/>
    </linearGradient>
    <linearGradient gradientTransform="matrix(-7.0E-4, 0.0087, 0.0087, 7.0E-4, 35.9, -41.1)" gradientUnits="userSpaceOnUse" id="gradient4" spreadMethod="pad" x1="-819.2" x2="819.2">
      <stop offset="0.0" stop-color="#262626"/>
      <stop offset="0.7215686274509804" stop-color="#737375"/>
      <stop offset="1.0" stop-color="#262626"/>
    </linearGradient>
    <linearGradient gradientTransform="matrix(-8.0E-4, -0.0092, 0.0092, -8.0E-4, -4.2, -40.2)" gradientUnits="userSpaceOnUse" id="gradient5" spreadMethod="pad" x1="-819.2" x2="819.2">
      <stop offset="0.0" stop-color="#262626"/>
      <stop offset="0.7215686274509804" stop-color="#737375"/>
      <stop offset="1.0" stop-color="#262626"/>
    </linearGradient>
    <linearGradient gradientTransform="matrix(0.0, -0.0211, 0.0211, 0.0, 17.55, -28.0)" gradientUnits="userSpaceOnUse" id="gradient6" spreadMethod="pad" x1="-819.2" x2="819.2">
      <stop offset="0.0" stop-color="#282828"/>
      <stop offset="0.9058823529411765" stop-color="#a4a4a4"/>
      <stop offset="1.0" stop-color="#373737"/>
    </linearGradient>
    <linearGradient gradientTransform="matrix(0.0, -0.0211, 0.0211, 0.0, 17.55, -30.8)" gradientUnits="userSpaceOnUse" id="gradient7" spreadMethod="pad" x1="-819.2" x2="819.2">
      <stop offset="0.0" stop-color="#a4a4a4"/>
      <stop offset="1.0" stop-color="#282828"/>
    </linearGradient>
  </defs>
</svg>
