<?xml version="1.0" encoding="UTF-8" standalone="no"?>
<svg xmlns:ffdec="https://www.free-decompiler.com/flash" xmlns:xlink="http://www.w3.org/1999/xlink" ffdec:objectType="shape" height="22.55px" width="66.3px" xmlns="http://www.w3.org/2000/svg">
  <g transform="matrix(1.0, 0.0, 0.0, 1.0, 15.25, 19.85)">
    <path d="M-10.5 1.55 L-8.15 2.7 -7.2 -4.85 -11.4 -4.85 -10.5 1.55" fill="url(#gradient0)" fill-rule="evenodd" stroke="none"/>
    <path d="M-3.35 -16.45 L-11.75 -19.85 -15.25 -17.35 -12.05 -4.15 -8.35 -2.15 -6.55 -3.4 -3.35 -16.45" fill="url(#gradient1)" fill-rule="evenodd" stroke="none"/>
    <path d="M-7.5 -13.55 L-3.35 -16.45 -11.75 -19.85 -15.25 -17.35 -7.5 -13.55" fill="#8c8c8c" fill-rule="evenodd" stroke="none"/>
    <path d="M-7.5 -13.55 L-8.35 -2.15 -6.55 -3.4 -3.35 -16.45 -7.5 -13.55" fill="#4f4f4f" fill-rule="evenodd" stroke="none"/>
    <path d="M45.35 1.55 L46.25 -4.85 42.05 -4.85 43.0 2.7 45.35 1.55" fill="url(#gradient2)" fill-rule="evenodd" stroke="none"/>
    <path d="M38.4 -16.45 L41.6 -3.4 43.4 -2.15 47.05 -4.15 51.05 -16.7 46.75 -19.85 38.4 -16.45" fill="url(#gradient3)" fill-rule="evenodd" stroke="none"/>
    <path d="M42.55 -13.55 L51.05 -16.7 46.75 -19.85 38.4 -16.45 42.55 -13.55" fill="#8c8c8c" fill-rule="evenodd" stroke="none"/>
    <path d="M42.55 -13.55 L38.4 -16.45 41.6 -3.4 43.4 -2.15 42.55 -13.55" fill="#4f4f4f" fill-rule="evenodd" stroke="none"/>
  </g>
  <defs>
    <linearGradient gradientTransform="matrix(0.0, 0.0046, 0.0046, 0.0, -9.3, -1.1)" gradientUnits="userSpaceOnUse" id="gradient0" spreadMethod="pad" x1="-819.2" x2="819.2">
      <stop offset="0.0" stop-color="#00e0ff" stop-opacity="0.7490196"/>
      <stop offset="1.0" stop-color="#00e0ff" stop-opacity="0.02745098"/>
    </linearGradient>
    <linearGradient gradientTransform="matrix(-9.0E-4, 0.0106, 0.0106, 9.0E-4, -9.8, -11.0)" gradientUnits="userSpaceOnUse" id="gradient1" spreadMethod="pad" x1="-819.2" x2="819.2">
      <stop offset="0.0" stop-color="#262626"/>
      <stop offset="0.7215686274509804" stop-color="#737375"/>
      <stop offset="1.0" stop-color="#262626"/>
    </linearGradient>
    <linearGradient gradientTransform="matrix(0.0, 0.0046, -0.0046, 0.0, 44.15, -1.1)" gradientUnits="userSpaceOnUse" id="gradient2" spreadMethod="pad" x1="-819.2" x2="819.2">
      <stop offset="0.0" stop-color="#00e0ff" stop-opacity="0.7490196"/>
      <stop offset="1.0" stop-color="#00e0ff" stop-opacity="0.02745098"/>
    </linearGradient>
    <linearGradient gradientTransform="matrix(-9.0E-4, -0.0106, 0.0106, -9.0E-4, 45.15, -11.0)" gradientUnits="userSpaceOnUse" id="gradient3" spreadMethod="pad" x1="-819.2" x2="819.2">
      <stop offset="0.0" stop-color="#262626"/>
      <stop offset="0.7215686274509804" stop-color="#737375"/>
      <stop offset="1.0" stop-color="#262626"/>
    </linearGradient>
  </defs>
</svg>
