<?xml version="1.0" encoding="UTF-8" standalone="no"?>
<svg xmlns:ffdec="https://www.free-decompiler.com/flash" xmlns:xlink="http://www.w3.org/1999/xlink" ffdec:objectType="shape" height="30.95px" width="40.9px" xmlns="http://www.w3.org/2000/svg">
  <g transform="matrix(1.0, 0.0, 0.0, 1.0, -67.6, 140.1)">
    <path d="M77.55 -114.3 L77.55 -134.85 98.1 -134.85 98.1 -114.3 77.55 -114.3" fill="#042860" fill-opacity="0.6117647" fill-rule="evenodd" stroke="none"/>
    <path d="M78.0 -134.45 L78.0 -131.45 77.55 -131.45 77.55 -134.85 80.95 -134.85 80.95 -134.45 78.0 -134.45" fill="#03abff" fill-rule="evenodd" stroke="none"/>
    <path d="M78.0 -134.45 L80.95 -134.45 80.95 -134.85 77.55 -134.85 77.55 -131.45 78.0 -131.45 78.0 -134.45 Z" fill="none" stroke="#0098ff" stroke-linecap="butt" stroke-linejoin="miter-clip" stroke-miterlimit="4.0" stroke-width="1.0"/>
    <path d="M97.6 -134.45 L94.6 -134.45 94.6 -134.85 98.0 -134.85 98.0 -131.45 97.6 -131.45 97.6 -134.45" fill="#03abff" fill-rule="evenodd" stroke="none"/>
    <path d="M97.6 -134.45 L94.6 -134.45 94.6 -134.85 98.0 -134.85 98.0 -131.45 97.6 -131.45 97.6 -134.45 Z" fill="none" stroke="#0098ff" stroke-linecap="butt" stroke-linejoin="miter-clip" stroke-miterlimit="4.0" stroke-width="1.0"/>
    <path d="M77.95 -114.75 L80.95 -114.75 80.95 -114.3 77.55 -114.3 77.55 -117.7 77.95 -117.7 77.95 -114.75" fill="#03abff" fill-rule="evenodd" stroke="none"/>
    <path d="M77.95 -114.75 L80.95 -114.75 80.95 -114.3 77.55 -114.3 77.55 -117.7 77.95 -117.7 77.95 -114.75 Z" fill="none" stroke="#0098ff" stroke-linecap="butt" stroke-linejoin="miter-clip" stroke-miterlimit="4.0" stroke-width="1.0"/>
    <path d="M97.7 -114.75 L97.7 -117.7 98.1 -117.7 98.1 -114.3 94.7 -114.3 94.7 -114.75 97.7 -114.75" fill="#ffab3d" fill-rule="evenodd" stroke="none"/>
    <path d="M97.7 -114.75 L94.7 -114.75 94.7 -114.3 98.1 -114.3 98.1 -117.7 97.7 -117.7 97.7 -114.75 Z" fill="none" stroke="#0098ff" stroke-linecap="butt" stroke-linejoin="miter-clip" stroke-miterlimit="4.0" stroke-width="1.0"/>
    <path d="M85.0 -124.1 L85.0 -124.7 87.7 -124.7 87.7 -127.4 88.3 -127.4 88.3 -124.7 91.0 -124.7 91.0 -124.1 88.3 -124.1 88.3 -121.4 87.7 -121.4 87.7 -124.1 85.0 -124.1" fill="#a4daff" fill-rule="evenodd" stroke="none"/>
    <path d="M75.55 -124.0 L67.6 -124.0 67.6 -124.85 75.55 -124.85 75.55 -124.0" fill="#03abff" fill-rule="evenodd" stroke="none"/>
    <path d="M100.55 -124.85 L108.5 -124.85 108.5 -124.0 100.55 -124.0 100.55 -124.85" fill="#03abff" fill-rule="evenodd" stroke="none"/>
    <path d="M87.65 -136.9 L87.65 -140.1 88.5 -140.1 88.5 -136.9 87.65 -136.9" fill="#03abff" fill-rule="evenodd" stroke="none"/>
    <path d="M87.65 -109.15 L87.65 -111.9 88.5 -111.9 88.5 -109.15 87.65 -109.15" fill="#03abff" fill-rule="evenodd" stroke="none"/>
  </g>
</svg>
