<?xml version="1.0" encoding="UTF-8" standalone="no"?>
<svg xmlns:ffdec="https://www.free-decompiler.com/flash" xmlns:xlink="http://www.w3.org/1999/xlink" ffdec:objectType="shape" height="68.7px" width="349.55px" xmlns="http://www.w3.org/2000/svg">
  <g transform="matrix(1.0, 0.0, 0.0, 1.0, 175.25, -13.95)">
    <path d="M169.15 51.15 Q169.15 49.9 169.75 49.65 170.4 49.4 171.25 50.25 L172.2 51.2 Q173.05 52.05 173.7 53.55 174.3 55.05 174.3 56.3 L174.3 67.6 Q174.3 68.85 173.7 70.35 173.05 71.85 172.2 72.75 L164.35 80.55 Q163.5 81.4 162.0 82.05 160.5 82.65 159.25 82.65 L147.35 82.65 Q146.1 82.65 144.6 82.05 143.1 81.4 142.2 80.55 L140.4 78.7 Q139.5 77.85 139.75 77.2 140.0 76.6 141.25 76.6 L156.4 76.6 Q157.65 76.6 159.15 76.0 160.65 75.35 161.55 74.5 L167.0 69.0 Q167.9 68.1 168.55 66.6 169.15 65.1 169.15 63.85 L169.15 51.15" fill="#606566" fill-rule="evenodd" stroke="none"/>
    <path d="M172.6 54.35 L172.65 69.3 163.2 78.0 160.1 78.0 170.7 68.1 170.7 52.45 172.6 54.35" fill="#262626" fill-opacity="0.8" fill-rule="evenodd" stroke="none"/>
    <path d="M104.1 78.35 L137.35 78.35 138.85 79.85 105.6 79.85 104.1 78.35" fill="#748387" fill-opacity="0.8" fill-rule="evenodd" stroke="none"/>
    <path d="M171.55 13.95 L173.1 15.45 173.1 48.65 171.6 47.15 171.55 13.95" fill="#748387" fill-opacity="0.8" fill-rule="evenodd" stroke="none"/>
    <path d="M151.8 81.05 L149.65 78.35 154.0 78.35 156.15 81.05 151.8 81.05" fill="#00ffff" fill-rule="evenodd" stroke="none"/>
    <path d="M145.35 81.05 L143.2 78.35 147.55 78.35 149.65 81.05 145.35 81.05" fill="#00ffff" fill-rule="evenodd" stroke="none"/>
    <path d="M-174.75 67.9 L-174.75 23.7 -159.65 38.85 -159.65 72.3 -170.35 72.3 -174.75 67.9" fill="#0062ff" fill-opacity="0.29803923" fill-rule="evenodd" stroke="none"/>
    <path d="M-174.75 67.9 L-170.35 72.3 -159.65 72.3 -159.65 38.85 -174.75 23.7 -174.75 67.9 Z" fill="none" stroke="#035eef" stroke-linecap="butt" stroke-linejoin="miter-clip" stroke-miterlimit="4.0" stroke-width="1.0"/>
  </g>
</svg>
