<?xml version="1.0" encoding="UTF-8" standalone="no"?>
<svg xmlns:ffdec="https://www.free-decompiler.com/flash" xmlns:xlink="http://www.w3.org/1999/xlink" ffdec:objectType="shape" height="27.95px" width="54.85px" xmlns="http://www.w3.org/2000/svg">
  <g transform="matrix(1.0, 0.0, 0.0, 1.0, -13.7, -1.55)">
    <path d="M63.9 2.05 Q65.35 2.5 66.2 3.2 L67.4 4.1 Q68.25 4.75 68.45 6.0 68.7 7.15 68.15 8.1 L57.6 27.1 Q57.05 28.1 55.85 28.75 54.7 29.5 53.55 29.5 L27.8 29.5 Q26.65 29.5 25.5 28.75 24.3 28.05 23.85 27.05 L14.05 8.15 Q13.55 7.15 13.75 5.9 13.95 4.65 14.75 3.85 L15.15 3.4 Q15.95 2.65 17.3 2.1 18.65 1.55 19.8 1.55 L61.4 1.55 63.9 2.05" fill="url(#gradient0)" fill-rule="evenodd" stroke="none"/>
    <path d="M48.15 4.6 Q50.7 4.6 51.95 4.05 53.05 3.5 55.85 3.5 L56.85 3.5 Q58.0 3.5 59.35 4.05 60.7 4.6 61.45 5.4 L61.95 5.85 Q62.7 6.6 62.9 7.85 63.05 9.1 62.55 10.05 L54.6 24.35 52.85 26.0 Q51.7 26.7 50.55 26.7 L50.15 26.7 46.65 26.2 Q45.75 25.75 43.1 25.75 L38.7 25.75 Q35.95 25.75 35.25 26.2 34.55 26.7 31.8 26.7 L31.0 26.7 Q29.85 26.7 28.75 26.0 27.55 25.3 27.05 24.35 L19.7 10.1 Q19.2 9.1 19.35 7.8 19.4 6.45 20.15 5.6 L20.2 5.55 Q20.85 4.7 22.15 4.15 23.45 3.5 24.55 3.5 L26.8 3.5 Q29.55 3.5 30.75 4.05 32.1 4.6 34.7 4.6 L48.15 4.6" fill="#2b2b2a" fill-rule="evenodd" stroke="none"/>
    <path d="M50.45 23.6 L48.95 24.05 32.15 24.05 30.65 23.6 29.55 22.45 23.15 10.15 Q22.85 9.5 22.95 8.7 23.1 7.85 23.6 7.3 L23.85 7.05 25.25 6.15 26.95 5.8 54.05 5.8 55.75 6.1 Q56.7 6.45 57.25 6.9 L58.0 7.45 Q58.55 7.9 58.7 8.7 58.85 9.5 58.5 10.15 L51.65 22.5 50.45 23.6" fill="#043095" fill-rule="evenodd" stroke="none"/>
    <path d="M58.0 7.45 Q58.55 7.9 58.7 8.7 58.85 9.5 58.5 10.15 L51.65 22.5 50.45 23.6 48.95 24.05 32.15 24.05 30.65 23.6 29.55 22.45 23.15 10.15 Q22.85 9.5 22.95 8.7 23.1 7.85 23.6 7.3 L23.85 7.05 25.25 6.15 26.95 5.8 54.05 5.8 55.75 6.1 Q56.7 6.45 57.25 6.9 L58.0 7.45" fill="url(#gradient1)" fill-rule="evenodd" stroke="none"/>
    <path d="M50.45 23.6 L51.65 22.5 58.5 10.15 Q58.85 9.5 58.7 8.7 58.55 7.9 58.0 7.45 L57.25 6.9 Q56.7 6.45 55.75 6.1 L54.05 5.8 26.95 5.8 25.25 6.15 23.85 7.05 23.6 7.3 Q23.1 7.85 22.95 8.7 22.85 9.5 23.15 10.15 L29.55 22.45 30.65 23.6 32.15 24.05 48.95 24.05 50.45 23.6 Z" fill="none" stroke="#069aff" stroke-linecap="butt" stroke-linejoin="miter-clip" stroke-miterlimit="4.0" stroke-width="1.0"/>
    <path d="M34.35 9.75 Q37.55 7.3 42.05 7.3 46.6 7.3 49.75 9.75 52.95 12.2 52.95 15.7 52.95 19.15 49.75 21.6 46.55 24.1 42.05 24.1 37.55 24.1 34.35 21.6 31.15 19.15 31.15 15.7 31.15 12.2 34.35 9.75" fill="url(#gradient2)" fill-rule="evenodd" stroke="none"/>
    <path d="M37.75 15.85 Q37.75 14.05 39.1 12.8 40.4 11.55 42.3 11.55 44.15 11.55 45.5 12.8 46.8 14.1 46.8 15.85 46.8 17.6 45.5 18.85 44.15 20.1 42.3 20.1 40.4 20.1 39.1 18.85 37.75 17.65 37.75 15.85" fill="url(#gradient3)" fill-rule="evenodd" stroke="none"/>
    <path d="M50.2 17.5 Q51.15 18.95 50.65 19.8 50.0 21.1 47.05 20.8 44.15 20.5 40.65 18.9 37.2 17.25 35.25 15.2 33.25 13.15 33.9 11.9 34.4 11.0 36.15 10.85 37.85 10.8 40.25 11.5 L38.55 12.55 Q37.15 12.55 36.8 13.25 36.35 14.05 37.65 15.4 38.95 16.75 41.25 17.85 43.5 18.9 45.4 19.1 47.35 19.25 47.75 18.45 48.1 17.75 47.25 16.7 L47.35 15.85 47.2 14.7 Q49.2 16.15 50.2 17.5" fill="url(#gradient4)" fill-rule="evenodd" stroke="none"/>
  </g>
  <defs>
    <linearGradient gradientTransform="matrix(0.0, -0.0171, 0.0171, 0.0, 41.1, 15.5)" gradientUnits="userSpaceOnUse" id="gradient0" spreadMethod="pad" x1="-819.2" x2="819.2">
      <stop offset="0.0" stop-color="#373737"/>
      <stop offset="0.6549019607843137" stop-color="#a4a4a4"/>
      <stop offset="0.803921568627451" stop-color="#a4a4a4"/>
      <stop offset="1.0" stop-color="#6b6b6b"/>
    </linearGradient>
    <linearGradient gradientTransform="matrix(0.0, 0.0188, 0.0156, 0.0, 10.85, 20.45)" gradientUnits="userSpaceOnUse" id="gradient1" spreadMethod="pad" x1="-819.2" x2="819.2">
      <stop offset="0.0" stop-color="#0078ff"/>
      <stop offset="0.0196078431372549" stop-color="#0074ff" stop-opacity="0.90588236"/>
      <stop offset="0.12941176470588237" stop-color="#0063ff" stop-opacity="0.49803922"/>
      <stop offset="0.26666666666666666" stop-color="#0058ff" stop-opacity="0.20784314"/>
      <stop offset="0.4627450980392157" stop-color="#0051ff" stop-opacity="0.043137256"/>
      <stop offset="1.0" stop-color="#004fff" stop-opacity="0.0"/>
    </linearGradient>
    <linearGradient gradientTransform="matrix(0.0, -0.0102, -0.0102, 0.0, 42.05, 15.7)" gradientUnits="userSpaceOnUse" id="gradient2" spreadMethod="pad" x1="-819.2" x2="819.2">
      <stop offset="0.0" stop-color="#065abf" stop-opacity="0.0"/>
      <stop offset="0.24313725490196078" stop-color="#065dc0" stop-opacity="0.023529412"/>
      <stop offset="0.4196078431372549" stop-color="#0666c3" stop-opacity="0.101960786"/>
      <stop offset="0.5764705882352941" stop-color="#0676c9" stop-opacity="0.23529412"/>
      <stop offset="0.7215686274509804" stop-color="#068dd1" stop-opacity="0.42352942"/>
      <stop offset="0.8588235294117647" stop-color="#05aadb" stop-opacity="0.67058825"/>
      <stop offset="0.9882352941176471" stop-color="#05cde7" stop-opacity="0.9647059"/>
      <stop offset="1.0" stop-color="#05d1e8"/>
    </linearGradient>
    <radialGradient cx="0" cy="0" gradientTransform="matrix(-0.0055, 0.0, 0.0, -0.0052, 42.3, 15.85)" gradientUnits="userSpaceOnUse" id="gradient3" r="819.2" spreadMethod="pad">
      <stop offset="0.0" stop-color="#2b9eff"/>
      <stop offset="0.3411764705882353" stop-color="#2aa1ff"/>
      <stop offset="0.5607843137254902" stop-color="#28a9ff"/>
      <stop offset="0.7490196078431373" stop-color="#24b8ff"/>
      <stop offset="0.9137254901960784" stop-color="#1ecdff"/>
      <stop offset="1.0" stop-color="#1adbff"/>
    </radialGradient>
    <linearGradient gradientTransform="matrix(-0.0022, -0.0037, 0.0037, -0.0022, 42.25, 15.85)" gradientUnits="userSpaceOnUse" id="gradient4" spreadMethod="pad" x1="-819.2" x2="819.2">
      <stop offset="0.0" stop-color="#3bade6"/>
      <stop offset="0.5686274509803921" stop-color="#57cef5"/>
      <stop offset="1.0" stop-color="#69e3ff"/>
    </linearGradient>
  </defs>
</svg>
