<?xml version="1.0" encoding="UTF-8" standalone="no"?>
<svg xmlns:ffdec="https://www.free-decompiler.com/flash" xmlns:xlink="http://www.w3.org/1999/xlink" ffdec:objectType="shape" height="119.3px" width="75.1px" xmlns="http://www.w3.org/2000/svg">
  <g transform="matrix(1.0, 0.0, 0.0, 1.0, -371.05, -81.85)">
    <path d="M436.65 200.0 Q435.5 200.6 434.3 201.15 L433.35 193.6 437.55 193.6 436.65 200.0" fill="url(#gradient0)" fill-rule="evenodd" stroke="none"/>
    <path d="M429.5 182.0 L437.9 178.6 441.4 181.1 438.2 194.3 434.5 196.3 432.7 195.05 429.5 182.0" fill="url(#gradient1)" fill-rule="evenodd" stroke="none"/>
    <path d="M433.65 184.9 L429.5 182.0 437.9 178.6 441.4 181.1 433.65 184.9" fill="#8c8c8c" fill-rule="evenodd" stroke="none"/>
    <path d="M433.65 184.9 L434.5 196.3 432.7 195.05 429.5 182.0 433.65 184.9" fill="#4f4f4f" fill-rule="evenodd" stroke="none"/>
    <path d="M380.8 200.0 L379.9 193.6 384.1 193.6 383.15 201.15 380.8 200.0" fill="url(#gradient2)" fill-rule="evenodd" stroke="none"/>
    <path d="M387.75 182.0 L384.55 195.05 382.75 196.3 379.1 194.3 375.1 181.75 379.4 178.6 387.75 182.0" fill="url(#gradient3)" fill-rule="evenodd" stroke="none"/>
    <path d="M383.6 184.9 L375.1 181.75 379.4 178.6 387.75 182.0 383.6 184.9" fill="#8c8c8c" fill-rule="evenodd" stroke="none"/>
    <path d="M383.6 184.9 L387.75 182.0 384.55 195.05 382.75 196.3 383.6 184.9" fill="#4f4f4f" fill-rule="evenodd" stroke="none"/>
    <path d="M385.3 83.1 L391.1 81.85 394.25 83.55 392.8 95.8 390.0 96.35 388.6 95.35 385.3 83.1" fill="url(#gradient4)" fill-rule="evenodd" stroke="none"/>
    <path d="M387.9 84.85 L385.3 83.1 391.1 81.85 394.25 83.55 387.9 84.85" fill="#4f4f4f" fill-rule="evenodd" stroke="none"/>
    <path d="M435.85 84.25 L431.35 96.6 429.9 97.6 427.15 97.0 425.85 83.85 429.5 82.3 435.85 84.25" fill="url(#gradient5)" fill-rule="evenodd" stroke="none"/>
    <path d="M431.9 85.9 L425.85 83.85 429.5 82.3 435.85 84.25 431.9 85.9" fill="#4f4f4f" fill-rule="evenodd" stroke="none"/>
    <path d="M446.15 102.2 Q446.15 109.35 435.15 114.4 424.15 119.45 408.6 119.45 393.0 119.45 382.0 114.4 371.05 109.35 371.05 102.2 371.05 95.05 382.0 90.0 393.0 84.95 408.6 84.95 424.15 84.95 435.15 90.0 446.15 95.05 446.15 102.2" fill="url(#gradient6)" fill-rule="evenodd" stroke="none"/>
    <path d="M446.15 99.4 Q446.15 106.55 435.15 111.65 424.15 116.65 408.6 116.65 393.0 116.65 382.0 111.65 371.05 106.55 371.05 99.4 371.05 92.3 382.0 87.25 393.0 82.2 408.6 82.2 424.15 82.2 435.15 87.25 446.15 92.3 446.15 99.4" fill="url(#gradient7)" fill-rule="evenodd" stroke="none"/>
    <path d="M431.45 87.95 Q440.9 92.1 440.9 97.95 440.9 103.8 431.45 107.95 421.95 112.05 408.6 112.05 395.2 112.05 385.7 107.95 376.25 103.8 376.25 97.95 376.25 92.1 385.7 87.95 395.2 83.8 408.6 83.8 421.95 83.8 431.45 87.95" fill="#131821" fill-rule="evenodd" stroke="none"/>
  </g>
  <defs>
    <linearGradient gradientTransform="matrix(0.0, 0.0046, -0.0046, 0.0, 435.45, 197.35)" gradientUnits="userSpaceOnUse" id="gradient0" spreadMethod="pad" x1="-819.2" x2="819.2">
      <stop offset="0.0" stop-color="#00e0ff" stop-opacity="0.7490196"/>
      <stop offset="1.0" stop-color="#00e0ff" stop-opacity="0.02745098"/>
    </linearGradient>
    <linearGradient gradientTransform="matrix(9.0E-4, 0.0106, -0.0106, 9.0E-4, 435.95, 187.45)" gradientUnits="userSpaceOnUse" id="gradient1" spreadMethod="pad" x1="-819.2" x2="819.2">
      <stop offset="0.0" stop-color="#262626"/>
      <stop offset="0.7215686274509804" stop-color="#737375"/>
      <stop offset="1.0" stop-color="#262626"/>
    </linearGradient>
    <linearGradient gradientTransform="matrix(0.0, 0.0046, 0.0046, 0.0, 382.0, 197.35)" gradientUnits="userSpaceOnUse" id="gradient2" spreadMethod="pad" x1="-819.2" x2="819.2">
      <stop offset="0.0" stop-color="#00e0ff" stop-opacity="0.7490196"/>
      <stop offset="1.0" stop-color="#00e0ff" stop-opacity="0.02745098"/>
    </linearGradient>
    <linearGradient gradientTransform="matrix(9.0E-4, -0.0106, -0.0106, -9.0E-4, 381.0, 187.45)" gradientUnits="userSpaceOnUse" id="gradient3" spreadMethod="pad" x1="-819.2" x2="819.2">
      <stop offset="0.0" stop-color="#262626"/>
      <stop offset="0.7215686274509804" stop-color="#737375"/>
      <stop offset="1.0" stop-color="#262626"/>
    </linearGradient>
    <linearGradient gradientTransform="matrix(7.0E-4, 0.0087, -0.0087, 7.0E-4, 390.25, 89.1)" gradientUnits="userSpaceOnUse" id="gradient4" spreadMethod="pad" x1="-819.2" x2="819.2">
      <stop offset="0.0" stop-color="#262626"/>
      <stop offset="0.7215686274509804" stop-color="#737375"/>
      <stop offset="1.0" stop-color="#262626"/>
    </linearGradient>
    <linearGradient gradientTransform="matrix(8.0E-4, -0.0092, -0.0092, -8.0E-4, 430.35, 90.0)" gradientUnits="userSpaceOnUse" id="gradient5" spreadMethod="pad" x1="-819.2" x2="819.2">
      <stop offset="0.0" stop-color="#262626"/>
      <stop offset="0.7215686274509804" stop-color="#737375"/>
      <stop offset="1.0" stop-color="#262626"/>
    </linearGradient>
    <linearGradient gradientTransform="matrix(0.0, -0.0211, -0.0211, 0.0, 408.6, 102.2)" gradientUnits="userSpaceOnUse" id="gradient6" spreadMethod="pad" x1="-819.2" x2="819.2">
      <stop offset="0.0" stop-color="#282828"/>
      <stop offset="0.9058823529411765" stop-color="#a4a4a4"/>
      <stop offset="1.0" stop-color="#373737"/>
    </linearGradient>
    <linearGradient gradientTransform="matrix(0.0, -0.0211, -0.0211, 0.0, 408.6, 99.4)" gradientUnits="userSpaceOnUse" id="gradient7" spreadMethod="pad" x1="-819.2" x2="819.2">
      <stop offset="0.0" stop-color="#a4a4a4"/>
      <stop offset="1.0" stop-color="#282828"/>
    </linearGradient>
  </defs>
</svg>
