<?xml version="1.0" encoding="UTF-8" standalone="no"?>
<svg xmlns:ffdec="https://www.free-decompiler.com/flash" xmlns:xlink="http://www.w3.org/1999/xlink" ffdec:objectType="shape" height="115.35px" width="75.1px" xmlns="http://www.w3.org/2000/svg">
  <g transform="matrix(1.0, 0.0, 0.0, 1.0, -371.3, -17.55)">
    <path d="M436.65 131.75 Q435.5 132.35 434.3 132.9 L433.35 125.35 437.55 125.35 436.65 131.75" fill="url(#gradient0)" fill-rule="evenodd" stroke="none"/>
    <path d="M429.5 113.75 L437.9 110.35 441.4 112.85 438.2 126.05 434.5 128.05 432.7 126.8 429.5 113.75" fill="url(#gradient1)" fill-rule="evenodd" stroke="none"/>
    <path d="M433.65 116.65 L429.5 113.75 437.9 110.35 441.4 112.85 433.65 116.65" fill="#8c8c8c" fill-rule="evenodd" stroke="none"/>
    <path d="M433.65 116.65 L434.5 128.05 432.7 126.8 429.5 113.75 433.65 116.65" fill="#4f4f4f" fill-rule="evenodd" stroke="none"/>
    <path d="M380.8 131.75 L379.9 125.35 384.1 125.35 383.15 132.9 380.8 131.75" fill="url(#gradient2)" fill-rule="evenodd" stroke="none"/>
    <path d="M387.75 113.75 L384.55 126.8 382.75 128.05 379.1 126.05 375.1 113.5 379.4 110.35 387.75 113.75" fill="url(#gradient3)" fill-rule="evenodd" stroke="none"/>
    <path d="M383.6 116.65 L375.1 113.5 379.4 110.35 387.75 113.75 383.6 116.65" fill="#8c8c8c" fill-rule="evenodd" stroke="none"/>
    <path d="M383.6 116.65 L387.75 113.75 384.55 126.8 382.75 128.05 383.6 116.65" fill="#4f4f4f" fill-rule="evenodd" stroke="none"/>
    <path d="M385.55 18.8 L391.35 17.55 394.5 19.25 393.05 31.5 390.25 32.05 388.85 31.05 385.55 18.8" fill="url(#gradient4)" fill-rule="evenodd" stroke="none"/>
    <path d="M388.15 20.55 L385.55 18.8 391.35 17.55 394.5 19.25 388.15 20.55" fill="#4f4f4f" fill-rule="evenodd" stroke="none"/>
    <path d="M436.1 19.95 L431.6 32.3 430.15 33.3 427.4 32.7 426.1 19.55 429.75 18.0 436.1 19.95" fill="url(#gradient5)" fill-rule="evenodd" stroke="none"/>
    <path d="M432.15 21.6 L426.1 19.55 429.75 18.0 436.1 19.95 432.15 21.6" fill="#4f4f4f" fill-rule="evenodd" stroke="none"/>
    <path d="M446.4 37.9 Q446.4 45.05 435.4 50.1 424.4 55.15 408.85 55.15 393.25 55.15 382.25 50.1 371.3 45.05 371.3 37.9 371.3 30.75 382.25 25.7 393.25 20.65 408.85 20.65 424.4 20.65 435.4 25.7 446.4 30.75 446.4 37.9" fill="url(#gradient6)" fill-rule="evenodd" stroke="none"/>
    <path d="M446.4 35.1 Q446.4 42.25 435.4 47.35 424.4 52.35 408.85 52.35 393.25 52.35 382.25 47.35 371.3 42.25 371.3 35.1 371.3 28.0 382.25 22.95 393.25 17.9 408.85 17.9 424.4 17.9 435.4 22.95 446.4 28.0 446.4 35.1" fill="url(#gradient7)" fill-rule="evenodd" stroke="none"/>
    <path d="M431.7 23.65 Q441.15 27.8 441.15 33.65 441.15 39.5 431.7 43.65 422.2 47.75 408.85 47.75 395.45 47.75 385.95 43.65 376.5 39.5 376.5 33.65 376.5 27.8 385.95 23.65 395.45 19.5 408.85 19.5 422.2 19.5 431.7 23.65" fill="#131821" fill-rule="evenodd" stroke="none"/>
  </g>
  <defs>
    <linearGradient gradientTransform="matrix(0.0, 0.0046, -0.0046, 0.0, 435.45, 129.1)" gradientUnits="userSpaceOnUse" id="gradient0" spreadMethod="pad" x1="-819.2" x2="819.2">
      <stop offset="0.0" stop-color="#00e0ff" stop-opacity="0.7490196"/>
      <stop offset="1.0" stop-color="#00e0ff" stop-opacity="0.02745098"/>
    </linearGradient>
    <linearGradient gradientTransform="matrix(9.0E-4, 0.0106, -0.0106, 9.0E-4, 435.95, 119.2)" gradientUnits="userSpaceOnUse" id="gradient1" spreadMethod="pad" x1="-819.2" x2="819.2">
      <stop offset="0.0" stop-color="#262626"/>
      <stop offset="0.7215686274509804" stop-color="#737375"/>
      <stop offset="1.0" stop-color="#262626"/>
    </linearGradient>
    <linearGradient gradientTransform="matrix(0.0, 0.0046, 0.0046, 0.0, 382.0, 129.1)" gradientUnits="userSpaceOnUse" id="gradient2" spreadMethod="pad" x1="-819.2" x2="819.2">
      <stop offset="0.0" stop-color="#00e0ff" stop-opacity="0.7490196"/>
      <stop offset="1.0" stop-color="#00e0ff" stop-opacity="0.02745098"/>
    </linearGradient>
    <linearGradient gradientTransform="matrix(9.0E-4, -0.0106, -0.0106, -9.0E-4, 381.0, 119.2)" gradientUnits="userSpaceOnUse" id="gradient3" spreadMethod="pad" x1="-819.2" x2="819.2">
      <stop offset="0.0" stop-color="#262626"/>
      <stop offset="0.7215686274509804" stop-color="#737375"/>
      <stop offset="1.0" stop-color="#262626"/>
    </linearGradient>
    <linearGradient gradientTransform="matrix(7.0E-4, 0.0087, -0.0087, 7.0E-4, 390.5, 24.8)" gradientUnits="userSpaceOnUse" id="gradient4" spreadMethod="pad" x1="-819.2" x2="819.2">
      <stop offset="0.0" stop-color="#262626"/>
      <stop offset="0.7215686274509804" stop-color="#737375"/>
      <stop offset="1.0" stop-color="#262626"/>
    </linearGradient>
    <linearGradient gradientTransform="matrix(8.0E-4, -0.0092, -0.0092, -8.0E-4, 430.6, 25.7)" gradientUnits="userSpaceOnUse" id="gradient5" spreadMethod="pad" x1="-819.2" x2="819.2">
      <stop offset="0.0" stop-color="#262626"/>
      <stop offset="0.7215686274509804" stop-color="#737375"/>
      <stop offset="1.0" stop-color="#262626"/>
    </linearGradient>
    <linearGradient gradientTransform="matrix(0.0, -0.0211, -0.0211, 0.0, 408.85, 37.9)" gradientUnits="userSpaceOnUse" id="gradient6" spreadMethod="pad" x1="-819.2" x2="819.2">
      <stop offset="0.0" stop-color="#282828"/>
      <stop offset="0.9058823529411765" stop-color="#a4a4a4"/>
      <stop offset="1.0" stop-color="#373737"/>
    </linearGradient>
    <linearGradient gradientTransform="matrix(0.0, -0.0211, -0.0211, 0.0, 408.85, 35.1)" gradientUnits="userSpaceOnUse" id="gradient7" spreadMethod="pad" x1="-819.2" x2="819.2">
      <stop offset="0.0" stop-color="#a4a4a4"/>
      <stop offset="1.0" stop-color="#282828"/>
    </linearGradient>
  </defs>
</svg>
