<?xml version="1.0" encoding="UTF-8" standalone="no"?>
<svg xmlns:ffdec="https://www.free-decompiler.com/flash" xmlns:xlink="http://www.w3.org/1999/xlink" ffdec:objectType="shape" height="108.55px" width="142.6px" xmlns="http://www.w3.org/2000/svg">
  <g transform="matrix(1.0, 0.0, 0.0, 1.0, -375.35, -46.05)">
    <path d="M436.9 67.45 L434.55 68.6 433.6 61.05 437.8 61.05 436.9 67.45" fill="url(#gradient0)" fill-rule="evenodd" stroke="none"/>
    <path d="M429.75 49.45 L438.15 46.05 441.65 48.55 438.45 61.75 434.75 63.75 432.95 62.5 429.75 49.45" fill="url(#gradient1)" fill-rule="evenodd" stroke="none"/>
    <path d="M433.9 52.35 L429.75 49.45 438.15 46.05 441.65 48.55 433.9 52.35" fill="#8c8c8c" fill-rule="evenodd" stroke="none"/>
    <path d="M433.9 52.35 L434.75 63.75 432.95 62.5 429.75 49.45 433.9 52.35" fill="#4f4f4f" fill-rule="evenodd" stroke="none"/>
    <path d="M381.05 67.45 L380.15 61.05 384.35 61.05 383.4 68.6 381.05 67.45" fill="url(#gradient2)" fill-rule="evenodd" stroke="none"/>
    <path d="M388.0 49.45 L384.8 62.5 383.0 63.75 379.35 61.75 375.35 49.2 379.65 46.05 388.0 49.45" fill="url(#gradient3)" fill-rule="evenodd" stroke="none"/>
    <path d="M383.85 52.35 L375.35 49.2 379.65 46.05 388.0 49.45 383.85 52.35" fill="#8c8c8c" fill-rule="evenodd" stroke="none"/>
    <path d="M383.85 52.35 L388.0 49.45 384.8 62.5 383.0 63.75 383.85 52.35" fill="#4f4f4f" fill-rule="evenodd" stroke="none"/>
    <path d="M457.1 118.25 L462.9 117.0 466.05 118.7 464.6 130.95 461.8 131.5 460.4 130.5 457.1 118.25" fill="url(#gradient4)" fill-rule="evenodd" stroke="none"/>
    <path d="M459.7 120.0 L457.1 118.25 462.9 117.0 466.05 118.7 459.7 120.0" fill="#4f4f4f" fill-rule="evenodd" stroke="none"/>
    <path d="M507.65 119.4 L503.15 131.75 501.7 132.75 498.95 132.15 497.65 119.0 Q499.5 118.2 501.3 117.45 L507.65 119.4" fill="url(#gradient5)" fill-rule="evenodd" stroke="none"/>
    <path d="M503.7 121.05 L497.65 119.0 Q499.5 118.2 501.3 117.45 L507.65 119.4 503.7 121.05" fill="#4f4f4f" fill-rule="evenodd" stroke="none"/>
    <path d="M517.95 137.35 Q517.95 144.5 506.95 149.55 495.95 154.6 480.4 154.6 464.8 154.6 453.8 149.55 442.85 144.5 442.85 137.35 442.85 130.2 453.8 125.15 464.8 120.1 480.4 120.1 495.95 120.1 506.95 125.15 517.95 130.2 517.95 137.35" fill="url(#gradient6)" fill-rule="evenodd" stroke="none"/>
    <path d="M517.95 134.55 Q517.95 141.7 506.95 146.8 495.95 151.8 480.4 151.8 464.8 151.8 453.8 146.8 442.85 141.7 442.85 134.55 442.85 127.45 453.8 122.4 464.8 117.35 480.4 117.35 495.95 117.35 506.95 122.4 517.95 127.45 517.95 134.55" fill="url(#gradient7)" fill-rule="evenodd" stroke="none"/>
    <path d="M503.25 123.1 Q512.7 127.25 512.7 133.1 512.7 138.95 503.25 143.1 493.75 147.2 480.4 147.2 467.0 147.2 457.5 143.1 448.05 138.95 448.05 133.1 448.05 127.25 457.5 123.1 467.0 118.95 480.4 118.95 493.75 118.95 503.25 123.1" fill="#131821" fill-rule="evenodd" stroke="none"/>
  </g>
  <defs>
    <linearGradient gradientTransform="matrix(0.0, 0.0046, -0.0046, 0.0, 435.7, 64.8)" gradientUnits="userSpaceOnUse" id="gradient0" spreadMethod="pad" x1="-819.2" x2="819.2">
      <stop offset="0.0" stop-color="#00e0ff" stop-opacity="0.7490196"/>
      <stop offset="1.0" stop-color="#00e0ff" stop-opacity="0.02745098"/>
    </linearGradient>
    <linearGradient gradientTransform="matrix(9.0E-4, 0.0106, -0.0106, 9.0E-4, 436.2, 54.9)" gradientUnits="userSpaceOnUse" id="gradient1" spreadMethod="pad" x1="-819.2" x2="819.2">
      <stop offset="0.0" stop-color="#262626"/>
      <stop offset="0.7215686274509804" stop-color="#737375"/>
      <stop offset="1.0" stop-color="#262626"/>
    </linearGradient>
    <linearGradient gradientTransform="matrix(0.0, 0.0046, 0.0046, 0.0, 382.25, 64.8)" gradientUnits="userSpaceOnUse" id="gradient2" spreadMethod="pad" x1="-819.2" x2="819.2">
      <stop offset="0.0" stop-color="#00e0ff" stop-opacity="0.7490196"/>
      <stop offset="1.0" stop-color="#00e0ff" stop-opacity="0.02745098"/>
    </linearGradient>
    <linearGradient gradientTransform="matrix(9.0E-4, -0.0106, -0.0106, -9.0E-4, 381.25, 54.9)" gradientUnits="userSpaceOnUse" id="gradient3" spreadMethod="pad" x1="-819.2" x2="819.2">
      <stop offset="0.0" stop-color="#262626"/>
      <stop offset="0.7215686274509804" stop-color="#737375"/>
      <stop offset="1.0" stop-color="#262626"/>
    </linearGradient>
    <linearGradient gradientTransform="matrix(7.0E-4, 0.0087, -0.0087, 7.0E-4, 462.05, 124.25)" gradientUnits="userSpaceOnUse" id="gradient4" spreadMethod="pad" x1="-819.2" x2="819.2">
      <stop offset="0.0" stop-color="#262626"/>
      <stop offset="0.7215686274509804" stop-color="#737375"/>
      <stop offset="1.0" stop-color="#262626"/>
    </linearGradient>
    <linearGradient gradientTransform="matrix(8.0E-4, -0.0092, -0.0092, -8.0E-4, 502.15, 125.15)" gradientUnits="userSpaceOnUse" id="gradient5" spreadMethod="pad" x1="-819.2" x2="819.2">
      <stop offset="0.0" stop-color="#262626"/>
      <stop offset="0.7215686274509804" stop-color="#737375"/>
      <stop offset="1.0" stop-color="#262626"/>
    </linearGradient>
    <linearGradient gradientTransform="matrix(0.0, -0.0211, -0.0211, 0.0, 480.4, 137.35)" gradientUnits="userSpaceOnUse" id="gradient6" spreadMethod="pad" x1="-819.2" x2="819.2">
      <stop offset="0.0" stop-color="#282828"/>
      <stop offset="0.9058823529411765" stop-color="#a4a4a4"/>
      <stop offset="1.0" stop-color="#373737"/>
    </linearGradient>
    <linearGradient gradientTransform="matrix(0.0, -0.0211, -0.0211, 0.0, 480.4, 134.55)" gradientUnits="userSpaceOnUse" id="gradient7" spreadMethod="pad" x1="-819.2" x2="819.2">
      <stop offset="0.0" stop-color="#a4a4a4"/>
      <stop offset="1.0" stop-color="#282828"/>
    </linearGradient>
  </defs>
</svg>
