<?xml version="1.0" encoding="UTF-8" standalone="no"?>
<svg xmlns:ffdec="https://www.free-decompiler.com/flash" xmlns:xlink="http://www.w3.org/1999/xlink" ffdec:objectType="shape" height="84.95px" width="142.9px" xmlns="http://www.w3.org/2000/svg">
  <g transform="matrix(1.0, 0.0, 0.0, 1.0, -446.9, -83.1)">
    <path d="M508.45 166.9 L506.1 168.05 505.15 160.5 509.35 160.5 508.45 166.9" fill="url(#gradient0)" fill-rule="evenodd" stroke="none"/>
    <path d="M501.3 148.9 L509.7 145.5 513.2 148.0 510.0 161.2 506.3 163.2 504.5 161.95 501.3 148.9" fill="url(#gradient1)" fill-rule="evenodd" stroke="none"/>
    <path d="M505.45 151.8 L501.3 148.9 509.7 145.5 513.2 148.0 505.45 151.8" fill="#8c8c8c" fill-rule="evenodd" stroke="none"/>
    <path d="M505.45 151.8 L506.3 163.2 504.5 161.95 501.3 148.9 505.45 151.8" fill="#4f4f4f" fill-rule="evenodd" stroke="none"/>
    <path d="M452.6 166.9 L451.7 160.5 455.9 160.5 454.95 168.05 452.6 166.9" fill="url(#gradient2)" fill-rule="evenodd" stroke="none"/>
    <path d="M459.55 148.9 L456.35 161.95 454.55 163.2 450.9 161.2 446.9 148.65 451.2 145.5 459.55 148.9" fill="url(#gradient3)" fill-rule="evenodd" stroke="none"/>
    <path d="M455.4 151.8 L446.9 148.65 451.2 145.5 459.55 148.9 455.4 151.8" fill="#8c8c8c" fill-rule="evenodd" stroke="none"/>
    <path d="M455.4 151.8 L459.55 148.9 456.35 161.95 454.55 163.2 455.4 151.8" fill="#4f4f4f" fill-rule="evenodd" stroke="none"/>
    <path d="M528.95 84.35 L534.75 83.1 537.9 84.8 536.45 97.05 533.65 97.6 532.25 96.6 528.95 84.35" fill="url(#gradient4)" fill-rule="evenodd" stroke="none"/>
    <path d="M531.55 86.1 L528.95 84.35 534.75 83.1 537.9 84.8 531.55 86.1" fill="#4f4f4f" fill-rule="evenodd" stroke="none"/>
    <path d="M579.5 85.5 L575.0 97.85 573.55 98.85 570.8 98.25 569.5 85.1 573.15 83.55 579.5 85.5" fill="url(#gradient5)" fill-rule="evenodd" stroke="none"/>
    <path d="M575.55 87.15 L569.5 85.1 573.15 83.55 579.5 85.5 575.55 87.15" fill="#4f4f4f" fill-rule="evenodd" stroke="none"/>
    <path d="M589.8 103.45 Q589.8 110.6 578.8 115.65 567.8 120.7 552.25 120.7 536.65 120.7 525.65 115.65 514.7 110.6 514.7 103.45 514.7 96.3 525.65 91.25 536.65 86.2 552.25 86.2 567.8 86.2 578.8 91.25 589.8 96.3 589.8 103.45" fill="url(#gradient6)" fill-rule="evenodd" stroke="none"/>
    <path d="M589.8 100.65 Q589.8 107.8 578.8 112.9 567.8 117.9 552.25 117.9 536.65 117.9 525.65 112.9 514.7 107.8 514.7 100.65 514.7 93.55 525.65 88.5 536.65 83.45 552.25 83.45 567.8 83.45 578.8 88.5 589.8 93.55 589.8 100.65" fill="url(#gradient7)" fill-rule="evenodd" stroke="none"/>
    <path d="M575.1 89.2 Q584.55 93.35 584.55 99.2 584.55 105.05 575.1 109.2 565.6 113.3 552.25 113.3 538.85 113.3 529.35 109.2 519.9 105.05 519.9 99.2 519.9 93.35 529.35 89.2 538.85 85.05 552.25 85.05 565.6 85.05 575.1 89.2" fill="#131821" fill-rule="evenodd" stroke="none"/>
  </g>
  <defs>
    <linearGradient gradientTransform="matrix(0.0, 0.0046, -0.0046, 0.0, 507.25, 164.25)" gradientUnits="userSpaceOnUse" id="gradient0" spreadMethod="pad" x1="-819.2" x2="819.2">
      <stop offset="0.0" stop-color="#00e0ff" stop-opacity="0.7490196"/>
      <stop offset="1.0" stop-color="#00e0ff" stop-opacity="0.02745098"/>
    </linearGradient>
    <linearGradient gradientTransform="matrix(9.0E-4, 0.0106, -0.0106, 9.0E-4, 507.75, 154.35)" gradientUnits="userSpaceOnUse" id="gradient1" spreadMethod="pad" x1="-819.2" x2="819.2">
      <stop offset="0.0" stop-color="#262626"/>
      <stop offset="0.7215686274509804" stop-color="#737375"/>
      <stop offset="1.0" stop-color="#262626"/>
    </linearGradient>
    <linearGradient gradientTransform="matrix(0.0, 0.0046, 0.0046, 0.0, 453.8, 164.25)" gradientUnits="userSpaceOnUse" id="gradient2" spreadMethod="pad" x1="-819.2" x2="819.2">
      <stop offset="0.0" stop-color="#00e0ff" stop-opacity="0.7490196"/>
      <stop offset="1.0" stop-color="#00e0ff" stop-opacity="0.02745098"/>
    </linearGradient>
    <linearGradient gradientTransform="matrix(9.0E-4, -0.0106, -0.0106, -9.0E-4, 452.8, 154.35)" gradientUnits="userSpaceOnUse" id="gradient3" spreadMethod="pad" x1="-819.2" x2="819.2">
      <stop offset="0.0" stop-color="#262626"/>
      <stop offset="0.7215686274509804" stop-color="#737375"/>
      <stop offset="1.0" stop-color="#262626"/>
    </linearGradient>
    <linearGradient gradientTransform="matrix(7.0E-4, 0.0087, -0.0087, 7.0E-4, 533.9, 90.35)" gradientUnits="userSpaceOnUse" id="gradient4" spreadMethod="pad" x1="-819.2" x2="819.2">
      <stop offset="0.0" stop-color="#262626"/>
      <stop offset="0.7215686274509804" stop-color="#737375"/>
      <stop offset="1.0" stop-color="#262626"/>
    </linearGradient>
    <linearGradient gradientTransform="matrix(8.0E-4, -0.0092, -0.0092, -8.0E-4, 574.0, 91.25)" gradientUnits="userSpaceOnUse" id="gradient5" spreadMethod="pad" x1="-819.2" x2="819.2">
      <stop offset="0.0" stop-color="#262626"/>
      <stop offset="0.7215686274509804" stop-color="#737375"/>
      <stop offset="1.0" stop-color="#262626"/>
    </linearGradient>
    <linearGradient gradientTransform="matrix(0.0, -0.0211, -0.0211, 0.0, 552.25, 103.45)" gradientUnits="userSpaceOnUse" id="gradient6" spreadMethod="pad" x1="-819.2" x2="819.2">
      <stop offset="0.0" stop-color="#282828"/>
      <stop offset="0.9058823529411765" stop-color="#a4a4a4"/>
      <stop offset="1.0" stop-color="#373737"/>
    </linearGradient>
    <linearGradient gradientTransform="matrix(0.0, -0.0211, -0.0211, 0.0, 552.25, 100.65)" gradientUnits="userSpaceOnUse" id="gradient7" spreadMethod="pad" x1="-819.2" x2="819.2">
      <stop offset="0.0" stop-color="#a4a4a4"/>
      <stop offset="1.0" stop-color="#282828"/>
    </linearGradient>
  </defs>
</svg>
