<?xml version="1.0" encoding="UTF-8" standalone="no"?>
<svg xmlns:ffdec="https://www.free-decompiler.com/flash" xmlns:xlink="http://www.w3.org/1999/xlink" ffdec:objectType="shape" height="86.35px" width="141.7px" xmlns="http://www.w3.org/2000/svg">
  <g transform="matrix(1.0, 0.0, 0.0, 1.0, -443.35, -47.8)">
    <path d="M580.3 133.0 L577.95 134.15 577.0 126.6 581.2 126.6 580.3 133.0" fill="url(#gradient0)" fill-rule="evenodd" stroke="none"/>
    <path d="M573.15 115.0 L581.55 111.6 585.05 114.1 581.85 127.3 578.15 129.3 576.35 128.05 573.15 115.0" fill="url(#gradient1)" fill-rule="evenodd" stroke="none"/>
    <path d="M577.3 117.9 L573.15 115.0 581.55 111.6 585.05 114.1 577.3 117.9" fill="#8c8c8c" fill-rule="evenodd" stroke="none"/>
    <path d="M577.3 117.9 L578.15 129.3 576.35 128.05 573.15 115.0 577.3 117.9" fill="#4f4f4f" fill-rule="evenodd" stroke="none"/>
    <path d="M524.45 133.0 L523.55 126.6 527.75 126.6 526.8 134.15 524.45 133.0" fill="url(#gradient2)" fill-rule="evenodd" stroke="none"/>
    <path d="M531.4 115.0 L528.2 128.05 526.4 129.3 522.75 127.3 518.75 114.75 523.05 111.6 531.4 115.0" fill="url(#gradient3)" fill-rule="evenodd" stroke="none"/>
    <path d="M527.25 117.9 L518.75 114.75 523.05 111.6 531.4 115.0 527.25 117.9" fill="#8c8c8c" fill-rule="evenodd" stroke="none"/>
    <path d="M527.25 117.9 L531.4 115.0 528.2 128.05 526.4 129.3 527.25 117.9" fill="#4f4f4f" fill-rule="evenodd" stroke="none"/>
    <path d="M457.6 49.05 L463.4 47.8 466.55 49.5 465.1 61.75 462.3 62.3 460.9 61.3 457.6 49.05" fill="url(#gradient4)" fill-rule="evenodd" stroke="none"/>
    <path d="M460.2 50.8 L457.6 49.05 463.4 47.8 466.55 49.5 460.2 50.8" fill="#4f4f4f" fill-rule="evenodd" stroke="none"/>
    <path d="M508.15 50.2 L503.65 62.55 502.2 63.55 499.45 62.95 498.15 49.8 501.8 48.25 508.15 50.2" fill="url(#gradient5)" fill-rule="evenodd" stroke="none"/>
    <path d="M504.2 51.85 L498.15 49.8 501.8 48.25 508.15 50.2 504.2 51.85" fill="#4f4f4f" fill-rule="evenodd" stroke="none"/>
    <path d="M518.45 68.15 Q518.45 75.3 507.45 80.35 496.45 85.4 480.9 85.4 465.3 85.4 454.3 80.35 443.35 75.3 443.35 68.15 443.35 61.0 454.3 55.95 465.3 50.9 480.9 50.9 496.45 50.9 507.45 55.95 518.45 61.0 518.45 68.15" fill="url(#gradient6)" fill-rule="evenodd" stroke="none"/>
    <path d="M518.45 65.35 Q518.45 72.5 507.45 77.6 496.45 82.6 480.9 82.6 465.3 82.6 454.3 77.6 443.35 72.5 443.35 65.35 443.35 58.25 454.3 53.2 465.3 48.15 480.9 48.15 496.45 48.15 507.45 53.2 518.45 58.25 518.45 65.35" fill="url(#gradient7)" fill-rule="evenodd" stroke="none"/>
    <path d="M503.75 53.9 Q513.2 58.05 513.2 63.9 513.2 69.75 503.75 73.9 494.25 78.0 480.9 78.0 467.5 78.0 458.0 73.9 448.55 69.75 448.55 63.9 448.55 58.05 458.0 53.9 467.5 49.75 480.9 49.75 494.25 49.75 503.75 53.9" fill="#131821" fill-rule="evenodd" stroke="none"/>
  </g>
  <defs>
    <linearGradient gradientTransform="matrix(0.0, 0.0046, -0.0046, 0.0, 579.1, 130.35)" gradientUnits="userSpaceOnUse" id="gradient0" spreadMethod="pad" x1="-819.2" x2="819.2">
      <stop offset="0.0" stop-color="#00e0ff" stop-opacity="0.7490196"/>
      <stop offset="1.0" stop-color="#00e0ff" stop-opacity="0.02745098"/>
    </linearGradient>
    <linearGradient gradientTransform="matrix(9.0E-4, 0.0106, -0.0106, 9.0E-4, 579.6, 120.45)" gradientUnits="userSpaceOnUse" id="gradient1" spreadMethod="pad" x1="-819.2" x2="819.2">
      <stop offset="0.0" stop-color="#262626"/>
      <stop offset="0.7215686274509804" stop-color="#737375"/>
      <stop offset="1.0" stop-color="#262626"/>
    </linearGradient>
    <linearGradient gradientTransform="matrix(0.0, 0.0046, 0.0046, 0.0, 525.65, 130.35)" gradientUnits="userSpaceOnUse" id="gradient2" spreadMethod="pad" x1="-819.2" x2="819.2">
      <stop offset="0.0" stop-color="#00e0ff" stop-opacity="0.7490196"/>
      <stop offset="1.0" stop-color="#00e0ff" stop-opacity="0.02745098"/>
    </linearGradient>
    <linearGradient gradientTransform="matrix(9.0E-4, -0.0106, -0.0106, -9.0E-4, 524.65, 120.45)" gradientUnits="userSpaceOnUse" id="gradient3" spreadMethod="pad" x1="-819.2" x2="819.2">
      <stop offset="0.0" stop-color="#262626"/>
      <stop offset="0.7215686274509804" stop-color="#737375"/>
      <stop offset="1.0" stop-color="#262626"/>
    </linearGradient>
    <linearGradient gradientTransform="matrix(7.0E-4, 0.0087, -0.0087, 7.0E-4, 462.55, 55.05)" gradientUnits="userSpaceOnUse" id="gradient4" spreadMethod="pad" x1="-819.2" x2="819.2">
      <stop offset="0.0" stop-color="#262626"/>
      <stop offset="0.7215686274509804" stop-color="#737375"/>
      <stop offset="1.0" stop-color="#262626"/>
    </linearGradient>
    <linearGradient gradientTransform="matrix(8.0E-4, -0.0092, -0.0092, -8.0E-4, 502.65, 55.95)" gradientUnits="userSpaceOnUse" id="gradient5" spreadMethod="pad" x1="-819.2" x2="819.2">
      <stop offset="0.0" stop-color="#262626"/>
      <stop offset="0.7215686274509804" stop-color="#737375"/>
      <stop offset="1.0" stop-color="#262626"/>
    </linearGradient>
    <linearGradient gradientTransform="matrix(0.0, -0.0211, -0.0211, 0.0, 480.9, 68.15)" gradientUnits="userSpaceOnUse" id="gradient6" spreadMethod="pad" x1="-819.2" x2="819.2">
      <stop offset="0.0" stop-color="#282828"/>
      <stop offset="0.9058823529411765" stop-color="#a4a4a4"/>
      <stop offset="1.0" stop-color="#373737"/>
    </linearGradient>
    <linearGradient gradientTransform="matrix(0.0, -0.0211, -0.0211, 0.0, 480.9, 65.35)" gradientUnits="userSpaceOnUse" id="gradient7" spreadMethod="pad" x1="-819.2" x2="819.2">
      <stop offset="0.0" stop-color="#a4a4a4"/>
      <stop offset="1.0" stop-color="#282828"/>
    </linearGradient>
  </defs>
</svg>
