<?xml version="1.0" encoding="UTF-8" standalone="no"?>
<svg xmlns:ffdec="https://www.free-decompiler.com/flash" xmlns:xlink="http://www.w3.org/1999/xlink" ffdec:objectType="shape" height="87.2px" width="143.6px" xmlns="http://www.w3.org/2000/svg">
  <g transform="matrix(1.0, 0.0, 0.0, 1.0, -226.2, -83.1)">
    <path d="M308.25 169.15 L310.6 170.3 311.55 162.75 307.35 162.75 308.25 169.15" fill="url(#gradient0)" fill-rule="evenodd" stroke="none"/>
    <path d="M315.4 151.15 L307.0 147.75 303.5 150.25 306.7 163.45 310.4 165.45 312.2 164.2 315.4 151.15" fill="url(#gradient1)" fill-rule="evenodd" stroke="none"/>
    <path d="M311.25 154.05 L315.4 151.15 307.0 147.75 303.5 150.25 311.25 154.05" fill="#8c8c8c" fill-rule="evenodd" stroke="none"/>
    <path d="M311.25 154.05 L310.4 165.45 312.2 164.2 315.4 151.15 311.25 154.05" fill="#4f4f4f" fill-rule="evenodd" stroke="none"/>
    <path d="M364.1 169.15 L365.0 162.75 360.8 162.75 361.75 170.3 Q362.9 169.75 364.1 169.15" fill="url(#gradient2)" fill-rule="evenodd" stroke="none"/>
    <path d="M357.15 151.15 L360.35 164.2 362.15 165.45 365.8 163.45 369.8 150.9 365.5 147.75 357.15 151.15" fill="url(#gradient3)" fill-rule="evenodd" stroke="none"/>
    <path d="M361.3 154.05 L369.8 150.9 365.5 147.75 357.15 151.15 361.3 154.05" fill="#8c8c8c" fill-rule="evenodd" stroke="none"/>
    <path d="M361.3 154.05 L357.15 151.15 360.35 164.2 362.15 165.45 361.3 154.05" fill="#4f4f4f" fill-rule="evenodd" stroke="none"/>
    <path d="M287.05 84.35 L281.25 83.1 278.1 84.8 279.55 97.05 282.35 97.6 283.75 96.6 287.05 84.35" fill="url(#gradient4)" fill-rule="evenodd" stroke="none"/>
    <path d="M284.45 86.1 L287.05 84.35 281.25 83.1 278.1 84.8 284.45 86.1" fill="#4f4f4f" fill-rule="evenodd" stroke="none"/>
    <path d="M236.5 85.5 L241.0 97.85 242.45 98.85 245.2 98.25 246.5 85.1 242.85 83.55 236.5 85.5" fill="url(#gradient5)" fill-rule="evenodd" stroke="none"/>
    <path d="M240.45 87.15 L246.5 85.1 242.85 83.55 236.5 85.5 240.45 87.15" fill="#4f4f4f" fill-rule="evenodd" stroke="none"/>
    <path d="M226.2 103.45 Q226.2 110.6 237.2 115.65 248.2 120.7 263.75 120.7 279.35 120.7 290.35 115.65 301.3 110.6 301.3 103.45 301.3 96.3 290.35 91.25 279.35 86.2 263.75 86.2 248.2 86.2 237.2 91.25 226.2 96.3 226.2 103.45" fill="url(#gradient6)" fill-rule="evenodd" stroke="none"/>
    <path d="M226.2 100.65 Q226.2 107.8 237.2 112.9 248.2 117.9 263.75 117.9 279.35 117.9 290.35 112.9 301.3 107.8 301.3 100.65 301.3 93.55 290.35 88.5 279.35 83.45 263.75 83.45 248.2 83.45 237.2 88.5 226.2 93.55 226.2 100.65" fill="url(#gradient7)" fill-rule="evenodd" stroke="none"/>
    <path d="M240.9 89.2 Q231.45 93.35 231.45 99.2 231.45 105.05 240.9 109.2 250.4 113.3 263.75 113.3 277.15 113.3 286.65 109.2 296.1 105.05 296.1 99.2 296.1 93.35 286.65 89.2 277.15 85.05 263.75 85.05 250.4 85.05 240.9 89.2" fill="#131821" fill-rule="evenodd" stroke="none"/>
  </g>
  <defs>
    <linearGradient gradientTransform="matrix(0.0, 0.0046, 0.0046, 0.0, 309.45, 166.5)" gradientUnits="userSpaceOnUse" id="gradient0" spreadMethod="pad" x1="-819.2" x2="819.2">
      <stop offset="0.0" stop-color="#00e0ff" stop-opacity="0.7490196"/>
      <stop offset="1.0" stop-color="#00e0ff" stop-opacity="0.02745098"/>
    </linearGradient>
    <linearGradient gradientTransform="matrix(-9.0E-4, 0.0106, 0.0106, 9.0E-4, 308.95, 156.6)" gradientUnits="userSpaceOnUse" id="gradient1" spreadMethod="pad" x1="-819.2" x2="819.2">
      <stop offset="0.0" stop-color="#262626"/>
      <stop offset="0.7215686274509804" stop-color="#737375"/>
      <stop offset="1.0" stop-color="#262626"/>
    </linearGradient>
    <linearGradient gradientTransform="matrix(0.0, 0.0046, -0.0046, 0.0, 362.9, 166.5)" gradientUnits="userSpaceOnUse" id="gradient2" spreadMethod="pad" x1="-819.2" x2="819.2">
      <stop offset="0.0" stop-color="#00e0ff" stop-opacity="0.7490196"/>
      <stop offset="1.0" stop-color="#00e0ff" stop-opacity="0.02745098"/>
    </linearGradient>
    <linearGradient gradientTransform="matrix(-9.0E-4, -0.0106, 0.0106, -9.0E-4, 363.9, 156.6)" gradientUnits="userSpaceOnUse" id="gradient3" spreadMethod="pad" x1="-819.2" x2="819.2">
      <stop offset="0.0" stop-color="#262626"/>
      <stop offset="0.7215686274509804" stop-color="#737375"/>
      <stop offset="1.0" stop-color="#262626"/>
    </linearGradient>
    <linearGradient gradientTransform="matrix(-7.0E-4, 0.0087, 0.0087, 7.0E-4, 282.1, 90.35)" gradientUnits="userSpaceOnUse" id="gradient4" spreadMethod="pad" x1="-819.2" x2="819.2">
      <stop offset="0.0" stop-color="#262626"/>
      <stop offset="0.7215686274509804" stop-color="#737375"/>
      <stop offset="1.0" stop-color="#262626"/>
    </linearGradient>
    <linearGradient gradientTransform="matrix(-8.0E-4, -0.0092, 0.0092, -8.0E-4, 242.0, 91.25)" gradientUnits="userSpaceOnUse" id="gradient5" spreadMethod="pad" x1="-819.2" x2="819.2">
      <stop offset="0.0" stop-color="#262626"/>
      <stop offset="0.7215686274509804" stop-color="#737375"/>
      <stop offset="1.0" stop-color="#262626"/>
    </linearGradient>
    <linearGradient gradientTransform="matrix(0.0, -0.0211, 0.0211, 0.0, 263.75, 103.45)" gradientUnits="userSpaceOnUse" id="gradient6" spreadMethod="pad" x1="-819.2" x2="819.2">
      <stop offset="0.0" stop-color="#282828"/>
      <stop offset="0.9058823529411765" stop-color="#a4a4a4"/>
      <stop offset="1.0" stop-color="#373737"/>
    </linearGradient>
    <linearGradient gradientTransform="matrix(0.0, -0.0211, 0.0211, 0.0, 263.75, 100.65)" gradientUnits="userSpaceOnUse" id="gradient7" spreadMethod="pad" x1="-819.2" x2="819.2">
      <stop offset="0.0" stop-color="#a4a4a4"/>
      <stop offset="1.0" stop-color="#282828"/>
    </linearGradient>
  </defs>
</svg>
