<?xml version="1.0" encoding="UTF-8" standalone="no"?>
<svg xmlns:ffdec="https://www.free-decompiler.com/flash" xmlns:xlink="http://www.w3.org/1999/xlink" ffdec:objectType="shape" height="86.35px" width="142.9px" xmlns="http://www.w3.org/2000/svg">
  <g transform="matrix(1.0, 0.0, 0.0, 1.0, -230.95, -47.8)">
    <path d="M235.7 133.0 L238.05 134.15 239.0 126.6 234.8 126.6 235.7 133.0" fill="url(#gradient0)" fill-rule="evenodd" stroke="none"/>
    <path d="M242.85 115.0 L234.45 111.6 230.95 114.1 234.15 127.3 237.85 129.3 239.65 128.05 242.85 115.0" fill="url(#gradient1)" fill-rule="evenodd" stroke="none"/>
    <path d="M238.7 117.9 L242.85 115.0 234.45 111.6 230.95 114.1 238.7 117.9" fill="#8c8c8c" fill-rule="evenodd" stroke="none"/>
    <path d="M238.7 117.9 L237.85 129.3 239.65 128.05 242.85 115.0 238.7 117.9" fill="#4f4f4f" fill-rule="evenodd" stroke="none"/>
    <path d="M291.55 133.0 L292.45 126.6 288.25 126.6 289.2 134.15 291.55 133.0" fill="url(#gradient2)" fill-rule="evenodd" stroke="none"/>
    <path d="M284.6 115.0 L287.8 128.05 289.6 129.3 293.25 127.3 297.25 114.75 292.95 111.6 284.6 115.0" fill="url(#gradient3)" fill-rule="evenodd" stroke="none"/>
    <path d="M288.75 117.9 L297.25 114.75 292.95 111.6 284.6 115.0 288.75 117.9" fill="#8c8c8c" fill-rule="evenodd" stroke="none"/>
    <path d="M288.75 117.9 L284.6 115.0 287.8 128.05 289.6 129.3 288.75 117.9" fill="#4f4f4f" fill-rule="evenodd" stroke="none"/>
    <path d="M359.6 49.05 L353.8 47.8 350.65 49.5 352.1 61.75 354.9 62.3 356.3 61.3 359.6 49.05" fill="url(#gradient4)" fill-rule="evenodd" stroke="none"/>
    <path d="M357.0 50.8 L359.6 49.05 353.8 47.8 350.65 49.5 357.0 50.8" fill="#4f4f4f" fill-rule="evenodd" stroke="none"/>
    <path d="M309.05 50.2 L313.55 62.55 315.0 63.55 317.75 62.95 319.05 49.8 315.4 48.25 309.05 50.2" fill="url(#gradient5)" fill-rule="evenodd" stroke="none"/>
    <path d="M313.0 51.85 L319.05 49.8 315.4 48.25 309.05 50.2 313.0 51.85" fill="#4f4f4f" fill-rule="evenodd" stroke="none"/>
    <path d="M298.75 68.15 Q298.75 75.3 309.75 80.35 320.75 85.4 336.3 85.4 351.9 85.4 362.9 80.35 373.85 75.3 373.85 68.15 373.85 61.0 362.9 55.95 351.9 50.9 336.3 50.9 320.75 50.9 309.75 55.95 298.75 61.0 298.75 68.15" fill="url(#gradient6)" fill-rule="evenodd" stroke="none"/>
    <path d="M298.75 65.35 Q298.75 72.5 309.75 77.6 320.75 82.6 336.3 82.6 351.9 82.6 362.9 77.6 373.85 72.5 373.85 65.35 373.85 58.25 362.9 53.2 351.9 48.15 336.3 48.15 320.75 48.15 309.75 53.2 298.75 58.25 298.75 65.35" fill="url(#gradient7)" fill-rule="evenodd" stroke="none"/>
    <path d="M313.45 53.9 Q304.0 58.05 304.0 63.9 304.0 69.75 313.45 73.9 322.95 78.0 336.3 78.0 349.7 78.0 359.2 73.9 368.65 69.75 368.65 63.9 368.65 58.05 359.2 53.9 349.7 49.75 336.3 49.75 322.95 49.75 313.45 53.9" fill="#131821" fill-rule="evenodd" stroke="none"/>
  </g>
  <defs>
    <linearGradient gradientTransform="matrix(0.0, 0.0046, 0.0046, 0.0, 236.9, 130.35)" gradientUnits="userSpaceOnUse" id="gradient0" spreadMethod="pad" x1="-819.2" x2="819.2">
      <stop offset="0.0" stop-color="#00e0ff" stop-opacity="0.7490196"/>
      <stop offset="1.0" stop-color="#00e0ff" stop-opacity="0.02745098"/>
    </linearGradient>
    <linearGradient gradientTransform="matrix(-9.0E-4, 0.0106, 0.0106, 9.0E-4, 236.4, 120.45)" gradientUnits="userSpaceOnUse" id="gradient1" spreadMethod="pad" x1="-819.2" x2="819.2">
      <stop offset="0.0" stop-color="#262626"/>
      <stop offset="0.7215686274509804" stop-color="#737375"/>
      <stop offset="1.0" stop-color="#262626"/>
    </linearGradient>
    <linearGradient gradientTransform="matrix(0.0, 0.0046, -0.0046, 0.0, 290.35, 130.35)" gradientUnits="userSpaceOnUse" id="gradient2" spreadMethod="pad" x1="-819.2" x2="819.2">
      <stop offset="0.0" stop-color="#00e0ff" stop-opacity="0.7490196"/>
      <stop offset="1.0" stop-color="#00e0ff" stop-opacity="0.02745098"/>
    </linearGradient>
    <linearGradient gradientTransform="matrix(-9.0E-4, -0.0106, 0.0106, -9.0E-4, 291.35, 120.45)" gradientUnits="userSpaceOnUse" id="gradient3" spreadMethod="pad" x1="-819.2" x2="819.2">
      <stop offset="0.0" stop-color="#262626"/>
      <stop offset="0.7215686274509804" stop-color="#737375"/>
      <stop offset="1.0" stop-color="#262626"/>
    </linearGradient>
    <linearGradient gradientTransform="matrix(-7.0E-4, 0.0087, 0.0087, 7.0E-4, 354.65, 55.05)" gradientUnits="userSpaceOnUse" id="gradient4" spreadMethod="pad" x1="-819.2" x2="819.2">
      <stop offset="0.0" stop-color="#262626"/>
      <stop offset="0.7215686274509804" stop-color="#737375"/>
      <stop offset="1.0" stop-color="#262626"/>
    </linearGradient>
    <linearGradient gradientTransform="matrix(-8.0E-4, -0.0092, 0.0092, -8.0E-4, 314.55, 55.95)" gradientUnits="userSpaceOnUse" id="gradient5" spreadMethod="pad" x1="-819.2" x2="819.2">
      <stop offset="0.0" stop-color="#262626"/>
      <stop offset="0.7215686274509804" stop-color="#737375"/>
      <stop offset="1.0" stop-color="#262626"/>
    </linearGradient>
    <linearGradient gradientTransform="matrix(0.0, -0.0211, 0.0211, 0.0, 336.3, 68.15)" gradientUnits="userSpaceOnUse" id="gradient6" spreadMethod="pad" x1="-819.2" x2="819.2">
      <stop offset="0.0" stop-color="#282828"/>
      <stop offset="0.9058823529411765" stop-color="#a4a4a4"/>
      <stop offset="1.0" stop-color="#373737"/>
    </linearGradient>
    <linearGradient gradientTransform="matrix(0.0, -0.0211, 0.0211, 0.0, 336.3, 65.35)" gradientUnits="userSpaceOnUse" id="gradient7" spreadMethod="pad" x1="-819.2" x2="819.2">
      <stop offset="0.0" stop-color="#a4a4a4"/>
      <stop offset="1.0" stop-color="#282828"/>
    </linearGradient>
  </defs>
</svg>
