<?xml version="1.0" encoding="UTF-8" standalone="no"?>
<svg xmlns:ffdec="https://www.free-decompiler.com/flash" xmlns:xlink="http://www.w3.org/1999/xlink" ffdec:objectType="shape" height="199.15px" width="616.1px" xmlns="http://www.w3.org/2000/svg">
  <g transform="matrix(1.0, 0.0, 0.0, 1.0, 0.5, -0.9)">
    <path d="M308.25 97.7 L310.6 98.85 311.55 91.3 307.35 91.3 308.25 97.7" fill="url(#gradient0)" fill-rule="evenodd" stroke="none"/>
    <path d="M315.4 79.7 L307.0 76.3 303.5 78.8 306.7 92.0 310.4 94.0 312.2 92.75 315.4 79.7" fill="url(#gradient1)" fill-rule="evenodd" stroke="none"/>
    <path d="M311.25 82.6 L315.4 79.7 307.0 76.3 303.5 78.8 311.25 82.6" fill="#8c8c8c" fill-rule="evenodd" stroke="none"/>
    <path d="M311.25 82.6 L310.4 94.0 312.2 92.75 315.4 79.7 311.25 82.6" fill="#4f4f4f" fill-rule="evenodd" stroke="none"/>
    <path d="M364.1 97.7 L365.0 91.3 360.8 91.3 361.75 98.85 Q362.9 98.3 364.1 97.7" fill="url(#gradient2)" fill-rule="evenodd" stroke="none"/>
    <path d="M357.15 79.7 L360.35 92.75 362.15 94.0 365.8 92.0 369.8 79.45 365.5 76.3 357.15 79.7" fill="url(#gradient3)" fill-rule="evenodd" stroke="none"/>
    <path d="M361.3 82.6 L369.8 79.45 365.5 76.3 357.15 79.7 361.3 82.6" fill="#8c8c8c" fill-rule="evenodd" stroke="none"/>
    <path d="M361.3 82.6 L357.15 79.7 360.35 92.75 362.15 94.0 361.3 82.6" fill="#4f4f4f" fill-rule="evenodd" stroke="none"/>
    <path d="M259.6 12.2 L222.25 12.2 206.85 25.05 198.65 25.05 214.55 11.7 260.4 11.7 259.6 12.2" fill="#0b73db" fill-rule="evenodd" stroke="none"/>
    <path d="M607.1 25.05 L591.7 12.2 554.35 12.2 553.55 11.7 599.4 11.7 615.35 25.05 607.1 25.05" fill="#0b73db" fill-rule="evenodd" stroke="none"/>
    <path d="M260.4 200.05 L214.55 200.05 198.65 186.7 206.85 186.7 222.25 199.55 259.6 199.55 260.4 200.05" fill="#0b73db" fill-rule="evenodd" stroke="none"/>
    <path d="M599.4 200.05 L553.55 200.05 554.35 199.55 591.7 199.55 607.1 186.7 615.35 186.7 599.4 200.05" fill="#0b73db" fill-rule="evenodd" stroke="none"/>
    <path d="M202.4 28.15 L202.4 183.9 198.55 183.9 198.55 28.15 202.4 28.15" fill="#011528" fill-rule="evenodd" stroke="none"/>
    <path d="M205.2 29.15 L198.9 29.15 198.9 28.15 205.2 28.15 205.2 29.15" fill="#0b47db" fill-rule="evenodd" stroke="none"/>
    <path d="M205.2 65.9 L198.9 65.9 198.9 64.9 205.2 64.9 205.2 65.9" fill="#0b47db" fill-rule="evenodd" stroke="none"/>
    <path d="M209.95 103.15 L198.9 103.15 198.9 102.15 209.95 102.15 209.95 103.15" fill="#0b47db" fill-rule="evenodd" stroke="none"/>
    <path d="M205.2 142.75 L198.9 142.75 198.9 141.75 205.2 141.75 205.2 142.75" fill="#0b47db" fill-rule="evenodd" stroke="none"/>
    <path d="M205.2 183.9 L198.9 183.9 198.9 182.9 205.2 182.9 205.2 183.9" fill="#0b47db" fill-rule="evenodd" stroke="none"/>
    <path d="M611.8 28.15 L615.6 28.15 615.6 183.9 611.8 183.9 611.8 28.15" fill="#011528" fill-rule="evenodd" stroke="none"/>
    <path d="M608.95 29.15 L608.95 28.15 615.25 28.15 615.25 29.15 608.95 29.15" fill="#0b47db" fill-rule="evenodd" stroke="none"/>
    <path d="M608.95 65.9 L608.95 64.9 615.25 64.9 615.25 65.9 608.95 65.9" fill="#0b47db" fill-rule="evenodd" stroke="none"/>
    <path d="M604.2 103.15 L604.2 102.15 615.25 102.15 615.25 103.15 604.2 103.15" fill="#0b47db" fill-rule="evenodd" stroke="none"/>
    <path d="M608.95 142.75 L608.95 141.75 615.25 141.75 615.25 142.75 608.95 142.75" fill="#0b47db" fill-rule="evenodd" stroke="none"/>
    <path d="M608.95 183.9 L608.95 182.9 615.25 182.9 615.25 183.9 608.95 183.9" fill="#0b47db" fill-rule="evenodd" stroke="none"/>
    <path d="M162.95 1.4 Q164.2 1.4 165.65 2.05 167.15 2.7 168.0 3.6 L180.7 17.2 Q181.55 18.15 181.3 18.75 181.0 19.4 179.75 19.4 L3.0 19.4 Q1.75 19.4 0.9 18.5 0.0 17.65 0.0 16.4 L0.0 4.4 Q0.0 3.15 0.9 2.3 1.75 1.4 3.0 1.4 L162.95 1.4" fill="#0044b2" fill-rule="evenodd" stroke="none"/>
    <path d="M162.95 1.4 L3.0 1.4 Q1.75 1.4 0.9 2.3 0.0 3.15 0.0 4.4 L0.0 16.4 Q0.0 17.65 0.9 18.5 1.75 19.4 3.0 19.4 L179.75 19.4 Q181.0 19.4 181.3 18.75 181.55 18.15 180.7 17.2 L168.0 3.6 Q167.15 2.7 165.65 2.05 164.2 1.4 162.95 1.4 Z" fill="none" stroke="#025fce" stroke-linecap="butt" stroke-linejoin="miter-clip" stroke-miterlimit="4.0" stroke-width="1.0"/>
    <path d="M162.95 1.4 Q164.2 1.4 165.65 2.05 167.15 2.7 168.0 3.6 L180.7 17.2 Q181.55 18.15 181.3 18.75 181.0 19.4 179.75 19.4 L69.1 19.4 Q67.85 19.4 66.4 18.75 L64.1 17.2 51.95 3.65 Q51.15 2.7 51.4 2.05 51.7 1.4 52.95 1.4 L162.95 1.4" fill="#042370" fill-rule="evenodd" stroke="none"/>
    <path d="M162.95 1.4 L52.95 1.4 Q51.7 1.4 51.4 2.05 51.15 2.7 51.95 3.65 L64.1 17.2 66.4 18.75 Q67.85 19.4 69.1 19.4 L179.75 19.4 Q181.0 19.4 181.3 18.75 181.55 18.15 180.7 17.2 L168.0 3.6 Q167.15 2.7 165.65 2.05 164.2 1.4 162.95 1.4 Z" fill="none" stroke="#2565f4" stroke-linecap="butt" stroke-linejoin="miter-clip" stroke-miterlimit="4.0" stroke-width="1.0"/>
  </g>
  <defs>
    <linearGradient gradientTransform="matrix(0.0, 0.0046, 0.0046, 0.0, 309.45, 95.05)" gradientUnits="userSpaceOnUse" id="gradient0" spreadMethod="pad" x1="-819.2" x2="819.2">
      <stop offset="0.0" stop-color="#00e0ff" stop-opacity="0.7490196"/>
      <stop offset="1.0" stop-color="#00e0ff" stop-opacity="0.02745098"/>
    </linearGradient>
    <linearGradient gradientTransform="matrix(-9.0E-4, 0.0106, 0.0106, 9.0E-4, 308.95, 85.15)" gradientUnits="userSpaceOnUse" id="gradient1" spreadMethod="pad" x1="-819.2" x2="819.2">
      <stop offset="0.0" stop-color="#262626"/>
      <stop offset="0.7215686274509804" stop-color="#737375"/>
      <stop offset="1.0" stop-color="#262626"/>
    </linearGradient>
    <linearGradient gradientTransform="matrix(0.0, 0.0046, -0.0046, 0.0, 362.9, 95.05)" gradientUnits="userSpaceOnUse" id="gradient2" spreadMethod="pad" x1="-819.2" x2="819.2">
      <stop offset="0.0" stop-color="#00e0ff" stop-opacity="0.7490196"/>
      <stop offset="1.0" stop-color="#00e0ff" stop-opacity="0.02745098"/>
    </linearGradient>
    <linearGradient gradientTransform="matrix(-9.0E-4, -0.0106, 0.0106, -9.0E-4, 363.9, 85.15)" gradientUnits="userSpaceOnUse" id="gradient3" spreadMethod="pad" x1="-819.2" x2="819.2">
      <stop offset="0.0" stop-color="#262626"/>
      <stop offset="0.7215686274509804" stop-color="#737375"/>
      <stop offset="1.0" stop-color="#262626"/>
    </linearGradient>
  </defs>
</svg>
