<?xml version="1.0" encoding="UTF-8" standalone="no"?>
<svg xmlns:ffdec="https://www.free-decompiler.com/flash" xmlns:xlink="http://www.w3.org/1999/xlink" ffdec:objectType="shape" height="178.25px" width="182.35px" xmlns="http://www.w3.org/2000/svg">
  <g transform="matrix(1.0, 0.0, 0.0, 1.0, 0.3, -24.7)">
    <path d="M161.35 25.2 L164.1 25.8 Q165.6 26.45 166.45 27.3 L179.4 40.25 Q180.3 41.1 180.95 42.6 181.55 44.1 181.55 45.35 L181.55 199.45 Q181.55 200.7 180.65 201.55 179.8 202.45 178.55 202.45 L7.6 202.45 Q6.35 202.45 4.85 201.85 3.35 201.2 2.45 200.3 L2.35 200.2 Q1.45 199.3 0.85 197.8 0.2 196.3 0.2 195.05 L0.2 33.45 Q0.2 32.2 0.85 30.7 1.45 29.15 2.35 28.3 L3.35 27.3 Q4.2 26.45 5.7 25.8 7.2 25.2 8.45 25.2 L161.35 25.2" fill="#031144" fill-rule="evenodd" stroke="none"/>
    <path d="M161.35 25.2 L8.45 25.2 Q7.2 25.2 5.7 25.8 4.2 26.45 3.35 27.3 L2.35 28.3 Q1.45 29.15 0.85 30.7 0.2 32.2 0.2 33.45 L0.2 195.05 Q0.2 196.3 0.85 197.8 1.45 199.3 2.35 200.2 L2.45 200.3 Q3.35 201.2 4.85 201.85 6.35 202.45 7.6 202.45 L178.55 202.45 Q179.8 202.45 180.65 201.55 181.55 200.7 181.55 199.45 L181.55 45.35 Q181.55 44.1 180.95 42.6 180.3 41.1 179.4 40.25 L166.45 27.3 Q165.6 26.45 164.1 25.8 L161.35 25.2 Z" fill="none" stroke="#033072" stroke-linecap="butt" stroke-linejoin="miter-clip" stroke-miterlimit="4.0" stroke-width="1.0"/>
    <path d="M112.6 44.5 L169.3 44.5 Q171.2 44.5 172.5 45.8 173.8 47.15 173.8 49.0 L173.8 95.9 Q173.8 97.75 172.5 99.05 171.15 100.4 169.3 100.4 L13.6 100.4 Q11.75 100.4 10.4 99.05 9.1 97.75 9.1 95.9 L9.1 36.25 Q9.1 34.4 10.4 33.05 11.75 31.75 13.6 31.75 L88.7 31.75 Q90.65 31.75 93.1 32.7 95.6 33.65 97.05 35.0 L103.6 41.0 Q105.2 42.45 107.8 43.45 110.45 44.5 112.6 44.5" fill="url(#gradient0)" fill-rule="evenodd" stroke="none"/>
    <path d="M93.3 32.25 Q95.85 33.2 97.35 34.6 L103.9 40.6 Q105.45 42.0 108.0 43.0 110.55 44.0 112.6 44.0 L169.3 44.0 Q171.35 44.0 172.85 45.45 174.3 46.95 174.3 49.0 L174.3 95.9 Q174.3 97.95 172.85 99.45 171.35 100.9 169.3 100.9 L13.6 100.9 Q11.55 100.9 10.05 99.45 8.6 97.95 8.6 95.9 L8.6 36.25 Q8.6 34.2 10.05 32.7 11.55 31.25 13.6 31.25 L88.7 31.25 Q90.75 31.25 93.3 32.25 M112.6 45.0 Q110.35 45.0 107.65 43.95 104.95 42.9 103.25 41.35 L96.7 35.35 Q95.3 34.1 92.95 33.15 90.6 32.25 88.7 32.25 L13.6 32.25 Q11.9 32.25 10.75 33.45 9.6 34.6 9.6 36.25 L9.6 95.9 Q9.6 97.55 10.75 98.75 11.9 99.9 13.6 99.9 L169.3 99.9 Q170.95 99.9 172.15 98.75 173.3 97.55 173.3 95.9 L173.3 49.0 Q173.3 47.35 172.15 46.2 170.95 45.0 169.3 45.0 L112.6 45.0" fill="#174ce2" fill-rule="evenodd" stroke="none"/>
    <path d="M56.3 110.7 L64.55 122.45 Q65.6 123.95 65.05 124.85 64.6 125.75 62.85 125.75 L20.65 125.75 Q18.8 125.75 17.5 124.45 16.15 123.1 16.15 121.25 L16.15 111.35 Q16.15 109.5 17.5 108.15 18.8 106.85 20.65 106.85 L48.85 106.85 Q50.75 106.85 52.95 108.0 55.2 109.15 56.3 110.7" fill="url(#gradient1)" fill-rule="evenodd" stroke="none"/>
    <path d="M53.2 107.55 Q55.5 108.75 56.7 110.45 L64.95 122.2 Q66.15 123.9 65.55 125.05 64.9 126.25 62.85 126.25 L20.65 126.25 Q18.6 126.25 17.1 124.8 15.65 123.3 15.65 121.25 L15.65 111.35 Q15.65 109.3 17.1 107.8 18.6 106.35 20.65 106.35 L48.85 106.35 Q50.9 106.35 53.2 107.55 M55.9 111.0 Q54.85 109.5 52.75 108.45 50.65 107.35 48.85 107.35 L20.65 107.35 Q19.0 107.35 17.85 108.55 16.65 109.7 16.65 111.35 L16.65 121.25 Q16.65 122.95 17.85 124.1 19.0 125.25 20.65 125.25 L62.85 125.25 Q64.25 125.25 64.65 124.6 64.95 123.95 64.15 122.75 L55.9 111.0" fill="#093fb7" fill-rule="evenodd" stroke="none"/>
    <path d="M10.4 125.35 Q11.75 124.05 13.6 124.05 L169.3 124.05 Q171.2 124.05 172.5 125.35 173.8 126.7 173.8 128.55 L173.8 188.8 Q173.8 190.65 172.5 191.95 171.15 193.3 169.3 193.3 L13.6 193.3 Q11.75 193.3 10.4 191.95 9.1 190.65 9.1 188.8 L9.1 128.55 Q9.1 126.7 10.4 125.35" fill="url(#gradient2)" fill-rule="evenodd" stroke="none"/>
    <path d="M8.6 128.55 Q8.6 126.5 10.05 125.0 11.55 123.55 13.6 123.55 L169.3 123.55 Q171.35 123.55 172.85 125.0 174.3 126.5 174.3 128.55 L174.3 188.8 Q174.3 190.85 172.85 192.35 171.35 193.8 169.3 193.8 L13.6 193.8 Q11.55 193.8 10.05 192.35 8.6 190.85 8.6 188.8 L8.6 128.55 M13.6 124.55 Q11.9 124.55 10.75 125.7 9.6 126.85 9.6 128.55 L9.6 188.8 Q9.6 190.45 10.75 191.65 11.9 192.8 13.6 192.8 L169.3 192.8 Q170.95 192.8 172.15 191.65 173.3 190.45 173.3 188.8 L173.3 128.55 Q173.3 126.85 172.15 125.7 170.95 124.55 169.3 124.55 L13.6 124.55" fill="#093fb7" fill-rule="evenodd" stroke="none"/>
    <path d="M41.55 136.35 L164.95 136.35 Q165.8 136.35 166.35 136.95 166.95 137.55 166.95 138.35 L166.95 143.7 Q166.95 144.5 166.55 145.5 L165.55 147.1 159.6 153.05 Q159.05 153.65 158.05 154.05 L156.2 154.45 41.55 154.45 Q40.75 154.45 40.15 153.85 39.55 153.3 39.55 152.45 L39.55 138.35 Q39.55 137.55 40.15 136.95 40.75 136.35 41.55 136.35" fill="#0446af" fill-rule="evenodd" stroke="none"/>
    <path d="M41.55 136.35 L164.95 136.35 Q165.8 136.35 166.35 136.95 166.95 137.55 166.95 138.35 L166.95 143.7 Q166.95 144.5 166.55 145.5 L165.55 147.1 159.6 153.05 Q159.05 153.65 158.05 154.05 L156.2 154.45 41.55 154.45 Q40.75 154.45 40.15 153.85 39.55 153.3 39.55 152.45 L39.55 138.35 Q39.55 137.55 40.15 136.95 40.75 136.35 41.55 136.35 Z" fill="none" stroke="#0683ff" stroke-linecap="butt" stroke-linejoin="miter-clip" stroke-miterlimit="4.0" stroke-width="1.0"/>
    <path d="M41.35 151.95 L41.35 138.85 163.15 138.85 163.15 145.85 156.0 151.95 41.35 151.95" fill="url(#gradient3)" fill-rule="evenodd" stroke="none"/>
    <path d="M41.35 151.95 L156.0 151.95 163.15 145.85 163.15 138.85 41.35 138.85 41.35 151.95 Z" fill="none" stroke="#033d91" stroke-linecap="butt" stroke-linejoin="miter-clip" stroke-miterlimit="4.0" stroke-width="1.0"/>
    <path d="M29.8 114.2 L34.0 110.2 36.15 116.3 32.4 120.1 29.8 114.2" fill="#0584d3" fill-rule="evenodd" stroke="none"/>
    <path d="M22.8 115.2 L28.9 114.6 31.5 120.5 26.2 120.75 22.8 115.2" fill="#3399ff" fill-rule="evenodd" stroke="none"/>
    <path d="M32.85 109.95 L28.95 113.6 23.45 114.15 27.55 110.4 32.85 109.95" fill="#2497ff" fill-rule="evenodd" stroke="none"/>
    <path d="M44.7 115.15 L48.75 115.1 46.9 119.3 43.2 119.45 44.7 115.15" fill="#0584d3" fill-rule="evenodd" stroke="none"/>
    <path d="M39.4 116.75 L40.3 112.25 43.75 114.85 42.25 119.15 39.4 116.75" fill="#3399ff" fill-rule="evenodd" stroke="none"/>
    <path d="M41.5 111.85 L45.25 111.9 48.1 114.1 44.5 114.15 41.5 111.85" fill="#2497ff" fill-rule="evenodd" stroke="none"/>
    <path d="M88.1 90.8 L88.1 78.25 Q88.1 77.0 89.0 76.15 89.85 75.25 91.1 75.25 L146.0 75.25 Q147.25 75.25 148.1 76.15 149.0 77.0 149.0 78.25 L149.0 82.75 Q149.0 84.0 148.4 85.5 L146.85 87.85 142.95 91.7 Q142.05 92.55 140.55 93.2 139.05 93.8 137.8 93.8 L91.1 93.8 Q89.85 93.8 89.0 92.9 88.1 92.05 88.1 90.8" fill="#0536ad" fill-rule="evenodd" stroke="none"/>
    <path d="M88.1 90.8 Q88.1 92.05 89.0 92.9 89.85 93.8 91.1 93.8 L137.8 93.8 Q139.05 93.8 140.55 93.2 142.05 92.55 142.95 91.7 L146.85 87.85 148.4 85.5 Q149.0 84.0 149.0 82.75 L149.0 78.25 Q149.0 77.0 148.1 76.15 147.25 75.25 146.0 75.25 L91.1 75.25 Q89.85 75.25 89.0 76.15 88.1 77.0 88.1 78.25 L88.1 90.8 Z" fill="none" stroke="#0861ff" stroke-linecap="butt" stroke-linejoin="miter-clip" stroke-miterlimit="4.0" stroke-width="2.0"/>
    <path d="M119.6 78.1 L137.6 78.1 Q138.55 78.1 139.2 78.75 139.85 79.4 139.85 80.35 L139.85 88.9 Q139.85 89.8 139.2 90.5 138.55 91.15 137.6 91.15 L119.6 91.15 Q118.65 91.15 118.0 90.5 117.35 89.8 117.35 88.9 L117.35 80.35 Q117.35 79.4 118.0 78.75 118.65 78.1 119.6 78.1" fill="#00a4ff" fill-opacity="0.3372549" fill-rule="evenodd" stroke="none"/>
    <path d="M119.6 78.1 L137.6 78.1 Q138.55 78.1 139.2 78.75 139.85 79.4 139.85 80.35 L139.85 88.9 Q139.85 89.8 139.2 90.5 138.55 91.15 137.6 91.15 L119.6 91.15 Q118.65 91.15 118.0 90.5 117.35 89.8 117.35 88.9 L117.35 80.35 Q117.35 79.4 118.0 78.75 118.65 78.1 119.6 78.1 Z" fill="none" stroke="#50f7ff" stroke-linecap="butt" stroke-linejoin="miter-clip" stroke-miterlimit="4.0" stroke-opacity="0.6" stroke-width="1.0"/>
  </g>
  <defs>
    <linearGradient gradientTransform="matrix(0.0, -0.0419, -0.0419, 0.0, 91.45, 66.05)" gradientUnits="userSpaceOnUse" id="gradient0" spreadMethod="pad" x1="-819.2" x2="819.2">
      <stop offset="0.00392156862745098" stop-color="#011880"/>
      <stop offset="1.0" stop-color="#020b54"/>
    </linearGradient>
    <linearGradient gradientTransform="matrix(0.0, -0.0116, -0.0116, 0.0, 40.7, 116.3)" gradientUnits="userSpaceOnUse" id="gradient1" spreadMethod="pad" x1="-819.2" x2="819.2">
      <stop offset="0.00392156862745098" stop-color="#011880"/>
      <stop offset="1.0" stop-color="#020b54"/>
    </linearGradient>
    <linearGradient gradientTransform="matrix(0.0, -0.0423, -0.0423, 0.0, 91.45, 158.65)" gradientUnits="userSpaceOnUse" id="gradient2" spreadMethod="pad" x1="-819.2" x2="819.2">
      <stop offset="0.00392156862745098" stop-color="#011880"/>
      <stop offset="1.0" stop-color="#020b54"/>
    </linearGradient>
    <linearGradient gradientTransform="matrix(0.0743, 0.0, 0.0, -0.0743, 102.25, 145.4)" gradientUnits="userSpaceOnUse" id="gradient3" spreadMethod="pad" x1="-819.2" x2="819.2">
      <stop offset="0.0" stop-color="#0d1c63"/>
      <stop offset="0.06666666666666667" stop-color="#082371"/>
      <stop offset="0.16862745098039217" stop-color="#042a7f"/>
      <stop offset="0.29411764705882354" stop-color="#012f87"/>
      <stop offset="0.5058823529411764" stop-color="#00308a"/>
      <stop offset="0.6862745098039216" stop-color="#012e87"/>
      <stop offset="0.8235294117647058" stop-color="#042a7d"/>
      <stop offset="0.9450980392156862" stop-color="#0a216d"/>
      <stop offset="1.0" stop-color="#0d1c63"/>
    </linearGradient>
  </defs>
</svg>
