<?xml version="1.0" encoding="UTF-8" standalone="no"?>
<svg xmlns:ffdec="https://www.free-decompiler.com/flash" xmlns:xlink="http://www.w3.org/1999/xlink" ffdec:objectType="shape" height="31.05px" width="60.9px" xmlns="http://www.w3.org/2000/svg">
  <g transform="matrix(1.0, 0.0, 0.0, 1.0, -10.65, -0.05)">
    <path d="M59.45 28.45 Q58.8 29.55 57.5 30.3 56.2 31.1 54.95 31.1 L26.3 31.1 Q25.05 31.1 23.75 30.3 22.45 29.5 21.9 28.4 L11.05 7.4 Q10.5 6.3 10.7 4.9 10.9 3.5 11.8 2.65 L12.25 2.15 14.65 0.65 Q16.15 0.05 17.4 0.05 L63.65 0.05 Q64.9 0.05 66.45 0.6 68.05 1.1 69.0 1.9 L70.3 2.9 Q71.25 3.65 71.5 5.0 71.75 6.3 71.15 7.35 L59.45 28.45" fill="url(#gradient0)" fill-rule="evenodd" stroke="none"/>
    <path d="M48.9 3.4 L53.15 2.8 Q54.35 2.2 57.45 2.2 L58.6 2.2 61.35 2.8 Q62.85 3.45 63.7 4.3 L64.25 4.8 Q65.1 5.65 65.3 7.05 65.5 8.45 64.9 9.5 L56.1 25.35 Q55.5 26.45 54.15 27.2 52.85 28.0 51.6 28.0 L51.15 28.0 47.25 27.45 Q46.25 26.9 43.3 26.9 L38.4 26.9 Q35.35 26.9 34.6 27.45 33.8 28.0 30.75 28.0 L29.85 28.0 Q28.6 28.0 27.35 27.2 26.05 26.45 25.45 25.35 L17.3 9.55 Q16.75 8.45 16.9 7.0 17.0 5.5 17.8 4.55 L17.85 4.5 Q18.6 3.55 20.05 2.9 21.45 2.2 22.7 2.2 L25.2 2.2 Q28.25 2.2 29.6 2.8 31.1 3.4 34.0 3.4 L48.9 3.4" fill="#2b2b2a" fill-rule="evenodd" stroke="none"/>
    <path d="M55.5 4.8 L57.35 5.15 Q58.4 5.5 59.05 6.0 L59.85 6.65 Q60.5 7.15 60.65 8.0 60.8 8.9 60.4 9.6 L52.8 23.35 51.5 24.55 Q50.65 25.05 49.8 25.05 L31.15 25.05 Q30.35 25.05 29.5 24.55 28.65 24.0 28.25 23.3 L21.15 9.65 Q20.8 8.9 20.95 8.0 21.1 7.05 21.65 6.45 L21.9 6.2 Q22.5 5.6 23.5 5.2 24.5 4.8 25.35 4.8 L55.5 4.8" fill="#03287a" fill-rule="evenodd" stroke="none"/>
    <path d="M55.5 4.8 L25.35 4.8 Q24.5 4.8 23.5 5.2 22.5 5.6 21.9 6.2 L21.65 6.45 Q21.1 7.05 20.95 8.0 20.8 8.9 21.15 9.65 L28.25 23.3 Q28.65 24.0 29.5 24.55 30.35 25.05 31.15 25.05 L49.8 25.05 Q50.65 25.05 51.5 24.55 L52.8 23.35 60.4 9.6 Q60.8 8.9 60.65 8.0 60.5 7.15 59.85 6.65 L59.05 6.0 Q58.4 5.5 57.35 5.15 L55.5 4.8 Z" fill="none" stroke="#069aff" stroke-linecap="butt" stroke-linejoin="miter-clip" stroke-miterlimit="4.0" stroke-width="1.0"/>
    <path d="M33.45 21.25 L33.45 9.2 36.15 9.2 36.15 21.25 33.45 21.25" fill="#00aaff" fill-rule="evenodd" stroke="none"/>
    <path d="M30.85 19.1 L30.85 11.4 33.55 11.4 33.55 19.1 30.85 19.1" fill="#0074ff" fill-rule="evenodd" stroke="none"/>
    <path d="M36.15 13.9 L43.7 13.9 44.05 14.15 Q44.4 14.55 44.4 15.3 44.4 16.55 43.7 16.7 L36.15 16.7 36.15 13.9" fill="#0074ff" fill-rule="evenodd" stroke="none"/>
    <path d="M36.1 10.8 L38.7 10.8 39.85 9.6 44.3 9.6 46.05 12.3 36.1 12.3 36.1 10.8" fill="#0d90fc" fill-rule="evenodd" stroke="none"/>
    <path d="M36.1 19.85 L36.1 18.35 46.05 18.35 44.3 21.05 39.85 21.05 38.7 19.85 36.1 19.85" fill="#0d90fc" fill-rule="evenodd" stroke="none"/>
    <path d="M41.1 17.4 L39.7 13.4 40.35 13.4 41.75 17.4 41.1 17.4" fill="#00aaff" fill-rule="evenodd" stroke="none"/>
    <path d="M43.7 17.4 L42.3 13.4 42.9 13.4 44.3 17.4 43.7 17.4" fill="#00aaff" fill-rule="evenodd" stroke="none"/>
    <path d="M41.0 17.4 L42.4 13.4 43.0 13.4 41.6 17.4 41.0 17.4" fill="#00aaff" fill-rule="evenodd" stroke="none"/>
    <path d="M35.9 17.4 L37.3 13.4 37.9 13.4 36.5 17.4 35.9 17.4" fill="#00aaff" fill-rule="evenodd" stroke="none"/>
    <path d="M38.45 17.4 L39.85 13.4 40.5 13.4 39.05 17.4 38.45 17.4" fill="#00aaff" fill-rule="evenodd" stroke="none"/>
    <path d="M38.55 17.4 L37.15 13.4 37.75 13.4 39.15 17.4 38.55 17.4" fill="#00aaff" fill-rule="evenodd" stroke="none"/>
    <path d="M45.35 16.25 Q44.75 17.55 43.3 17.55 42.4 17.55 41.75 16.9 41.1 16.25 41.1 15.3 41.1 14.35 41.75 13.7 42.4 13.05 43.3 13.05 44.75 13.05 45.35 14.4 L55.45 14.4 55.45 16.25 45.35 16.25" fill="url(#gradient1)" fill-rule="evenodd" stroke="none"/>
  </g>
  <defs>
    <linearGradient gradientTransform="matrix(0.0, -0.019, 0.019, 0.0, 41.1, 15.55)" gradientUnits="userSpaceOnUse" id="gradient0" spreadMethod="pad" x1="-819.2" x2="819.2">
      <stop offset="0.0" stop-color="#373737"/>
      <stop offset="0.6549019607843137" stop-color="#a4a4a4"/>
      <stop offset="0.803921568627451" stop-color="#a4a4a4"/>
      <stop offset="1.0" stop-color="#6b6b6b"/>
    </linearGradient>
    <linearGradient gradientTransform="matrix(0.0088, 0.0, 0.0, -0.0088, 48.25, 15.3)" gradientUnits="userSpaceOnUse" id="gradient1" spreadMethod="pad" x1="-819.2" x2="819.2">
      <stop offset="0.0" stop-color="#85ffff"/>
      <stop offset="0.2" stop-color="#66d9ff"/>
      <stop offset="0.5803921568627451" stop-color="#2f96ff"/>
      <stop offset="0.8588235294117647" stop-color="#0d6cff"/>
      <stop offset="1.0" stop-color="#005cff"/>
    </linearGradient>
  </defs>
</svg>
