<?xml version="1.0" encoding="UTF-8" standalone="no"?>
<svg xmlns:ffdec="https://www.free-decompiler.com/flash" xmlns:xlink="http://www.w3.org/1999/xlink" ffdec:objectType="shape" height="58.35px" width="58.35px" xmlns="http://www.w3.org/2000/svg">
  <g transform="matrix(1.0, 0.0, 0.0, 1.0, -15.15, -36.7)">
    <path d="M20.15 37.2 L68.75 37.2 73.0 41.4 73.0 47.8 70.9 51.75 70.9 80.2 73.0 84.15 73.0 90.7 68.65 94.55 20.3 94.55 15.65 89.75 15.65 84.25 17.75 80.1 17.75 51.75 15.65 47.7 15.65 42.2 20.15 37.2" fill="#011156" fill-rule="evenodd" stroke="none"/>
    <path d="M20.15 37.2 L68.75 37.2 73.0 41.4 73.0 47.8 70.9 51.75 70.9 80.2 73.0 84.15 73.0 90.7 68.65 94.55 20.3 94.55 15.65 89.75 15.65 84.25 17.75 80.1 17.75 51.75 15.65 47.7 15.65 42.2 20.15 37.2 Z" fill="none" stroke="#436cff" stroke-linecap="butt" stroke-linejoin="miter-clip" stroke-miterlimit="4.0" stroke-width="1.0"/>
  </g>
</svg>
