<?xml version="1.0" encoding="UTF-8" standalone="no"?>
<svg xmlns:ffdec="https://www.free-decompiler.com/flash" xmlns:xlink="http://www.w3.org/1999/xlink" ffdec:objectType="shape" height="139.4px" width="142.8px" xmlns="http://www.w3.org/2000/svg">
  <g transform="matrix(1.0, 0.0, 0.0, 1.0, -19.15, -39.55)">
    <path d="M67.15 90.3 L70.2 87.25 70.2 89.95 67.8 92.3 53.85 92.3 52.8 90.95 36.5 90.95 35.45 92.3 21.5 92.3 19.15 89.95 19.15 87.25 22.15 90.3 67.15 90.3" fill="url(#gradient0)" fill-rule="evenodd" stroke="none"/>
    <path d="M36.5 40.9 L52.8 40.9 53.85 39.55 67.8 39.55 70.2 41.95 70.2 44.6 67.15 41.6 22.15 41.6 19.15 44.6 19.15 41.95 21.5 39.55 35.45 39.55 36.5 40.9" fill="url(#gradient1)" fill-rule="evenodd" stroke="none"/>
    <path d="M31.15 178.45 L161.95 178.4 161.95 178.9 31.15 178.95 31.15 178.45" fill="#0562d1" fill-rule="evenodd" stroke="none"/>
  </g>
  <defs>
    <linearGradient gradientTransform="matrix(0.0, -0.0031, -0.0031, 0.0, 44.65, 89.8)" gradientUnits="userSpaceOnUse" id="gradient0" spreadMethod="pad" x1="-819.2" x2="819.2">
      <stop offset="0.0" stop-color="#2fc5ed"/>
      <stop offset="1.0" stop-color="#009cff"/>
    </linearGradient>
    <linearGradient gradientTransform="matrix(0.0, -0.0031, -0.0031, 0.0, 44.65, 42.1)" gradientUnits="userSpaceOnUse" id="gradient1" spreadMethod="pad" x1="-819.2" x2="819.2">
      <stop offset="0.0" stop-color="#009cff"/>
      <stop offset="1.0" stop-color="#2fc5ed"/>
    </linearGradient>
  </defs>
</svg>
