<?xml version="1.0" encoding="UTF-8" standalone="no"?>
<svg xmlns:ffdec="https://www.free-decompiler.com/flash" xmlns:xlink="http://www.w3.org/1999/xlink" ffdec:objectType="shape" height="17.45px" width="20.05px" xmlns="http://www.w3.org/2000/svg">
  <g transform="matrix(1.0, 0.0, 0.0, 1.0, 10.0, 8.75)">
    <path d="M8.55 -7.45 Q9.45 -6.7 9.45 -5.65 L9.45 5.6 Q9.45 6.65 8.55 7.45 7.7 8.2 6.45 8.2 L-6.4 8.2 Q-7.65 8.2 -8.5 7.45 -9.4 6.65 -9.4 5.6 L-9.4 -5.65 Q-9.4 -6.7 -8.5 -7.45 -7.65 -8.25 -6.4 -8.25 L6.45 -8.25 Q7.7 -8.25 8.55 -7.45" fill="#03428e" fill-rule="evenodd" stroke="none"/>
    <path d="M8.55 -7.45 Q9.45 -6.7 9.45 -5.65 L9.45 5.6 Q9.45 6.65 8.55 7.45 7.7 8.2 6.45 8.2 L-6.4 8.2 Q-7.65 8.2 -8.5 7.45 -9.4 6.65 -9.4 5.6 L-9.4 -5.65 Q-9.4 -6.7 -8.5 -7.45 -7.65 -8.25 -6.4 -8.25 L6.45 -8.25 Q7.7 -8.25 8.55 -7.45 Z" fill="none" stroke="#025fce" stroke-linecap="butt" stroke-linejoin="miter-clip" stroke-miterlimit="4.0" stroke-width="1.0"/>
    <path d="M-4.25 -0.05 L3.3 -5.9 3.3 -3.45 1.05 -0.05 3.3 3.2 3.3 5.85 -4.25 -0.05" fill="#00dbff" fill-rule="evenodd" stroke="none"/>
  </g>
</svg>
