<?xml version="1.0" encoding="UTF-8" standalone="no"?>
<svg xmlns:ffdec="https://www.free-decompiler.com/flash" xmlns:xlink="http://www.w3.org/1999/xlink" ffdec:objectType="shape" height="31.05px" width="60.9px" xmlns="http://www.w3.org/2000/svg">
  <g transform="matrix(1.0, 0.0, 0.0, 1.0, -10.65, 0.0)">
    <path d="M66.45 0.55 Q68.05 1.05 69.0 1.85 L70.3 2.85 Q71.25 3.6 71.5 4.95 71.75 6.25 71.15 7.3 L59.45 28.4 Q58.8 29.5 57.5 30.25 56.2 31.05 54.95 31.05 L26.3 31.05 Q25.05 31.05 23.75 30.25 22.45 29.45 21.9 28.35 L11.05 7.35 Q10.5 6.25 10.7 4.85 10.9 3.45 11.8 2.6 L12.25 2.1 14.65 0.6 Q16.15 0.0 17.4 0.0 L63.65 0.0 Q64.9 0.0 66.45 0.55" fill="url(#gradient0)" fill-rule="evenodd" stroke="none"/>
    <path d="M48.9 3.35 L53.15 2.75 Q54.35 2.15 57.45 2.15 L58.6 2.15 61.35 2.75 Q62.85 3.4 63.7 4.25 L64.25 4.75 Q65.1 5.6 65.3 7.0 65.5 8.4 64.9 9.45 L56.1 25.3 Q55.5 26.4 54.15 27.15 52.85 27.95 51.6 27.95 L51.15 27.95 47.25 27.4 Q46.25 26.85 43.3 26.85 L38.4 26.85 Q35.35 26.85 34.6 27.4 33.8 27.95 30.75 27.95 L29.85 27.95 Q28.6 27.95 27.35 27.15 26.05 26.4 25.45 25.3 L17.3 9.5 Q16.75 8.4 16.9 6.95 17.0 5.45 17.8 4.5 L17.85 4.45 Q18.6 3.5 20.05 2.85 21.45 2.15 22.7 2.15 L25.2 2.15 Q28.25 2.15 29.6 2.75 31.1 3.35 34.0 3.35 L48.9 3.35" fill="#2b2b2a" fill-rule="evenodd" stroke="none"/>
    <path d="M51.5 24.5 Q50.65 25.0 49.8 25.0 L31.15 25.0 Q30.35 25.0 29.5 24.5 28.65 23.95 28.25 23.25 L21.15 9.6 Q20.8 8.85 20.95 7.95 21.1 7.0 21.65 6.4 L21.9 6.15 Q22.5 5.55 23.5 5.15 24.5 4.75 25.35 4.75 L55.5 4.75 57.35 5.1 Q58.4 5.45 59.05 5.95 L59.85 6.6 Q60.5 7.1 60.65 7.95 60.8 8.85 60.4 9.55 L52.8 23.3 51.5 24.5" fill="url(#gradient1)" fill-rule="evenodd" stroke="none"/>
    <path d="M51.5 24.5 L52.8 23.3 60.4 9.55 Q60.8 8.85 60.65 7.95 60.5 7.1 59.85 6.6 L59.05 5.95 Q58.4 5.45 57.35 5.1 L55.5 4.75 25.35 4.75 Q24.5 4.75 23.5 5.15 22.5 5.55 21.9 6.15 L21.65 6.4 Q21.1 7.0 20.95 7.95 20.8 8.85 21.15 9.6 L28.25 23.25 Q28.65 23.95 29.5 24.5 30.35 25.0 31.15 25.0 L49.8 25.0 Q50.65 25.0 51.5 24.5 Z" fill="none" stroke="#f19e24" stroke-linecap="butt" stroke-linejoin="miter-clip" stroke-miterlimit="4.0" stroke-width="1.0"/>
    <path d="M51.5 24.5 L52.8 23.3 60.4 9.55 Q60.8 8.85 60.65 7.95 60.5 7.1 59.85 6.6 L59.05 5.95 Q58.4 5.45 57.35 5.1 L55.5 4.75 25.35 4.75 Q24.5 4.75 23.5 5.15 22.5 5.55 21.9 6.15 L21.65 6.4 Q21.1 7.0 20.95 7.95 20.8 8.85 21.15 9.6 L28.25 23.25 Q28.65 23.95 29.5 24.5 30.35 25.0 31.15 25.0 L49.8 25.0 Q50.65 25.0 51.5 24.5 Z" fill="none" stroke="#f19e24" stroke-linecap="butt" stroke-linejoin="miter-clip" stroke-miterlimit="4.0" stroke-width="1.0"/>
    <path d="M33.45 21.25 L33.45 9.2 36.15 9.2 36.15 21.25 33.45 21.25" fill="#fd8c1c" fill-rule="evenodd" stroke="none"/>
    <path d="M30.85 19.1 L30.85 11.4 33.55 11.4 33.55 19.1 30.85 19.1" fill="#c46200" fill-rule="evenodd" stroke="none"/>
    <path d="M36.15 13.9 L43.7 13.9 44.05 14.15 Q44.4 14.55 44.4 15.3 44.4 16.55 43.7 16.7 L36.15 16.7 36.15 13.9" fill="#ba5e01" fill-rule="evenodd" stroke="none"/>
    <path d="M36.1 10.8 L38.7 10.8 39.85 9.6 44.3 9.6 46.05 12.3 36.1 12.3 36.1 10.8" fill="#ca6502" fill-rule="evenodd" stroke="none"/>
    <path d="M36.1 19.85 L36.1 18.35 46.05 18.35 44.3 21.05 39.85 21.05 38.7 19.85 36.1 19.85" fill="#ca6502" fill-rule="evenodd" stroke="none"/>
    <path d="M42.95 13.55 L44.3 17.4 43.7 17.4 42.65 14.4 41.7 17.2 41.75 17.4 41.0 17.4 41.05 17.25 40.1 14.55 39.1 17.25 39.15 17.4 38.45 17.4 38.5 17.25 37.55 14.5 36.5 17.4 35.9 17.4 37.25 13.65 37.15 13.4 37.9 13.4 37.85 13.65 38.8 16.4 39.8 13.65 39.7 13.4 40.5 13.4 40.45 13.65 41.4 16.35 42.35 13.55 42.3 13.4 43.0 13.4 42.95 13.55" fill="#f19e24" fill-rule="evenodd" stroke="none"/>
    <path d="M41.75 13.7 Q42.4 13.05 43.3 13.05 44.75 13.05 45.35 14.4 L55.45 14.4 55.45 16.25 45.35 16.25 Q44.75 17.55 43.3 17.55 42.4 17.55 41.75 16.9 41.1 16.25 41.1 15.3 41.1 14.35 41.75 13.7" fill="url(#gradient2)" fill-rule="evenodd" stroke="none"/>
  </g>
  <defs>
    <linearGradient gradientTransform="matrix(0.0, -0.019, 0.019, 0.0, 41.1, 15.5)" gradientUnits="userSpaceOnUse" id="gradient0" spreadMethod="pad" x1="-819.2" x2="819.2">
      <stop offset="0.0" stop-color="#373737"/>
      <stop offset="0.6549019607843137" stop-color="#a4a4a4"/>
      <stop offset="0.803921568627451" stop-color="#a4a4a4"/>
      <stop offset="1.0" stop-color="#6b6b6b"/>
    </linearGradient>
    <linearGradient gradientTransform="matrix(0.0, 0.0118, 0.0085, 0.0, 76.4, 15.45)" gradientUnits="userSpaceOnUse" id="gradient1" spreadMethod="pad" x1="-819.2" x2="819.2">
      <stop offset="0.0" stop-color="#eb8242"/>
      <stop offset="0.00392156862745098" stop-color="#e87f40"/>
      <stop offset="0.043137254901960784" stop-color="#cb6129"/>
      <stop offset="0.08627450980392157" stop-color="#b34917"/>
      <stop offset="0.13333333333333333" stop-color="#a3380a"/>
      <stop offset="0.1803921568627451" stop-color="#992e02"/>
      <stop offset="0.24313725490196078" stop-color="#962b00"/>
      <stop offset="0.4392156862745098" stop-color="#982e00"/>
      <stop offset="0.592156862745098" stop-color="#9f3800"/>
      <stop offset="0.7333333333333333" stop-color="#ab4901"/>
      <stop offset="0.8666666666666667" stop-color="#bb6002"/>
      <stop offset="0.996078431372549" stop-color="#d07f03"/>
      <stop offset="1.0" stop-color="#d18003"/>
    </linearGradient>
    <linearGradient gradientTransform="matrix(0.0088, 0.0, 0.0, -0.0088, 48.25, 15.3)" gradientUnits="userSpaceOnUse" id="gradient2" spreadMethod="pad" x1="-819.2" x2="819.2">
      <stop offset="0.0" stop-color="#f8ce29"/>
      <stop offset="0.2" stop-color="#ffa530"/>
      <stop offset="0.5803921568627451" stop-color="#ff962b"/>
      <stop offset="0.8588235294117647" stop-color="#fd842c"/>
      <stop offset="1.0" stop-color="#fe802b"/>
    </linearGradient>
  </defs>
</svg>
