<?xml version="1.0" encoding="UTF-8" standalone="no"?>
<svg xmlns:ffdec="https://www.free-decompiler.com/flash" xmlns:xlink="http://www.w3.org/1999/xlink" ffdec:objectType="shape" height="32.05px" width="108.4px" xmlns="http://www.w3.org/2000/svg">
  <g transform="matrix(1.0, 0.0, 0.0, 1.0, -5.4, -9.2)">
    <path d="M102.55 33.65 Q101.8 34.45 100.65 34.45 L7.8 34.45 Q6.65 34.45 6.45 33.85 6.15 33.35 6.95 32.45 L18.35 20.25 Q19.15 19.4 20.5 18.85 21.8 18.25 22.9 18.25 L100.65 18.25 Q101.8 18.25 102.55 19.05 103.35 19.85 103.35 20.95 L103.35 31.75 Q103.35 32.9 102.55 33.65" fill="url(#gradient0)" fill-rule="evenodd" stroke="none"/>
    <path d="M102.6 33.65 Q101.8 34.45 100.7 34.45 L7.8 34.45 Q6.7 34.45 6.45 33.9 6.2 33.35 6.95 32.5 L18.4 20.25 Q19.15 19.45 20.5 18.85 21.8 18.25 22.95 18.25 L100.7 18.25 Q101.8 18.25 102.6 19.05 103.4 19.85 103.4 20.95 L103.4 31.75 Q103.4 32.9 102.6 33.65 Z" fill="none" stroke="#f19e24" stroke-linecap="butt" stroke-linejoin="miter-clip" stroke-miterlimit="4.0" stroke-width="2.0"/>
    <path d="M107.8 15.2 Q112.0 19.4 112.0 25.25 112.0 31.1 107.8 35.3 103.7 39.45 97.8 39.45 91.9 39.45 87.7 35.3 83.55 31.1 83.55 25.25 83.55 19.35 87.7 15.2 91.9 11.0 97.8 11.0 103.7 11.0 107.8 15.2" fill="#ba5e01" fill-rule="evenodd" stroke="none"/>
    <path d="M97.8 9.2 Q104.4 9.2 109.15 13.95 113.8 18.6 113.8 25.25 113.8 31.85 109.15 36.55 104.4 41.25 97.8 41.25 91.15 41.25 86.5 36.55 81.75 31.85 81.75 25.25 81.75 18.6 86.5 13.95 91.15 9.2 97.8 9.2 M107.8 15.2 Q103.7 11.0 97.8 11.0 91.9 11.0 87.7 15.2 83.55 19.35 83.55 25.25 83.55 31.1 87.7 35.3 91.9 39.45 97.8 39.45 103.7 39.45 107.8 35.3 112.0 31.1 112.0 25.25 112.0 19.4 107.8 15.2" fill="#ffcb00" fill-rule="evenodd" stroke="none"/>
    <path d="M88.95 25.05 L97.05 27.55 107.7 18.35 97.5 32.15 87.85 26.7 88.95 25.05" fill="#ffff00" fill-rule="evenodd" stroke="none"/>
  </g>
  <defs>
    <linearGradient gradientTransform="matrix(0.0, -0.0097, 0.0208, 0.0, 333.75, 26.6)" gradientUnits="userSpaceOnUse" id="gradient0" spreadMethod="pad" x1="-819.2" x2="819.2">
      <stop offset="0.0" stop-color="#eb8242"/>
      <stop offset="0.00392156862745098" stop-color="#e87f40"/>
      <stop offset="0.043137254901960784" stop-color="#cb6129"/>
      <stop offset="0.08627450980392157" stop-color="#b34917"/>
      <stop offset="0.13333333333333333" stop-color="#a3380a"/>
      <stop offset="0.1803921568627451" stop-color="#992e02"/>
      <stop offset="0.24313725490196078" stop-color="#962b00"/>
      <stop offset="0.4392156862745098" stop-color="#982e00"/>
      <stop offset="0.592156862745098" stop-color="#9f3800"/>
      <stop offset="0.7333333333333333" stop-color="#ab4901"/>
      <stop offset="0.8666666666666667" stop-color="#bb6002"/>
      <stop offset="0.996078431372549" stop-color="#d07f03"/>
      <stop offset="1.0" stop-color="#d18003"/>
    </linearGradient>
  </defs>
</svg>
