<?xml version="1.0" encoding="UTF-8" standalone="no"?>
<svg xmlns:ffdec="https://www.free-decompiler.com/flash" xmlns:xlink="http://www.w3.org/1999/xlink" ffdec:objectType="shape" height="129.1px" width="267.1px" xmlns="http://www.w3.org/2000/svg">
  <g transform="matrix(1.0, 0.0, 0.0, 1.0, -122.8, -95.65)">
    <path d="M124.3 150.2 L124.3 153.7 123.3 153.7 123.3 150.2 124.3 150.2" fill="#1c0e10" fill-rule="evenodd" stroke="none"/>
    <path d="M124.3 150.2 L124.3 153.7 123.3 153.7 123.3 150.2 124.3 150.2 Z" fill="none" stroke="#2c2e32" stroke-linecap="butt" stroke-linejoin="miter-clip" stroke-miterlimit="4.0" stroke-width="1.0"/>
    <path d="M377.2 100.25 L387.15 95.9 389.1 95.95 Q389.9 96.45 389.9 97.7 L389.9 222.55 Q389.9 223.8 389.05 224.4 388.2 225.0 387.05 224.6 L377.35 221.5 Q376.15 221.15 375.35 220.0 374.5 218.85 374.5 217.6 L374.5 104.45 Q374.5 103.2 375.3 102.0 376.1 100.75 377.2 100.25" fill="url(#gradient0)" fill-rule="evenodd" stroke="none"/>
    <path d="M368.35 129.1 L374.8 127.0 374.8 130.05 365.65 134.05 368.35 129.1" fill="#29292b" fill-rule="evenodd" stroke="none"/>
    <path d="M368.35 191.6 L365.65 186.65 374.8 190.65 374.8 193.65 368.35 191.6" fill="#29292b" fill-rule="evenodd" stroke="none"/>
    <path d="M368.5 131.65 L372.0 130.35 374.0 130.5 Q374.8 131.05 374.8 132.3 L374.8 188.8 Q374.8 190.05 374.0 190.6 L372.05 190.65 368.45 189.15 Q367.3 188.65 366.45 187.45 365.65 186.25 365.65 185.0 L365.65 135.7 Q365.65 134.45 366.5 133.3 367.35 132.1 368.5 131.65" fill="url(#gradient1)" fill-rule="evenodd" stroke="none"/>
    <path d="M374.8 129.3 L374.8 191.8 373.95 191.45 373.95 129.6 374.8 129.3" fill="#595657" fill-rule="evenodd" stroke="none"/>
    <path d="M368.65 131.75 L368.65 189.25 368.05 188.95 368.05 132.1 368.65 131.75" fill="#474647" fill-rule="evenodd" stroke="none"/>
    <path d="M369.3 131.45 L369.3 189.5 368.7 189.15 368.7 131.75 369.3 131.45" fill="#1e1d1f" fill-rule="evenodd" stroke="none"/>
    <path d="M358.45 171.55 L358.45 150.45 367.05 142.55 374.55 141.55 374.55 180.45 367.05 179.4 358.45 171.55" fill="url(#gradient2)" fill-rule="evenodd" stroke="none"/>
    <path d="M357.45 172.0 L357.45 150.05 365.25 142.75 365.3 142.75 366.45 141.8 366.65 141.6 375.55 140.45 375.55 181.6 366.6 180.35 357.45 172.0 M358.45 150.45 L358.45 171.55 367.05 179.4 374.55 180.45 374.55 141.55 367.05 142.55 358.45 150.45" fill="#0d0d0f" fill-rule="evenodd" stroke="none"/>
    <path d="M371.35 142.0 L374.55 141.55 374.55 180.45 371.35 180.05 371.35 142.0" fill="#484949" fill-rule="evenodd" stroke="none"/>
    <path d="M360.15 169.2 L360.15 152.8 366.05 146.2 367.05 145.25 369.85 144.95 371.2 145.85 371.2 153.85 370.75 154.5 370.75 167.55 371.2 168.35 371.2 176.3 369.85 177.2 367.05 176.75 366.05 175.85 360.15 169.2" fill="#171819" fill-rule="evenodd" stroke="none"/>
    <path d="M370.65 168.7 L374.7 168.7 374.7 176.7 370.65 175.85 370.65 168.7" fill="#626363" fill-rule="evenodd" stroke="none"/>
    <path d="M373.95 168.7 L374.7 168.7 374.7 176.7 373.95 176.6 373.95 168.7" fill="#c1bda1" fill-rule="evenodd" stroke="none"/>
    <path d="M370.65 153.55 L370.65 146.4 374.7 145.5 374.7 153.55 370.65 153.55" fill="#626363" fill-rule="evenodd" stroke="none"/>
    <path d="M373.95 153.55 L373.95 145.65 374.7 145.5 374.7 153.55 373.95 153.55" fill="#c1bda1" fill-rule="evenodd" stroke="none"/>
    <path d="M373.8 154.4 L374.55 154.4 374.55 167.65 373.8 167.65 373.8 154.4" fill="#7e7f75" fill-rule="evenodd" stroke="none"/>
  </g>
  <defs>
    <linearGradient gradientTransform="matrix(0.0094, 0.0, 0.0, -0.0094, 382.2, 160.2)" gradientUnits="userSpaceOnUse" id="gradient0" spreadMethod="pad" x1="-819.2" x2="819.2">
      <stop offset="0.0" stop-color="#2c2e32"/>
      <stop offset="1.0" stop-color="#545759"/>
    </linearGradient>
    <linearGradient gradientTransform="matrix(-0.0056, 0.0, 0.0, -0.0056, 370.25, 160.5)" gradientUnits="userSpaceOnUse" id="gradient1" spreadMethod="pad" x1="-819.2" x2="819.2">
      <stop offset="0.0" stop-color="#2c2e32"/>
      <stop offset="1.0" stop-color="#383b3c"/>
    </linearGradient>
    <linearGradient gradientTransform="matrix(-0.0098, 0.0, 0.0, -0.0098, 366.5, 161.0)" gradientUnits="userSpaceOnUse" id="gradient2" spreadMethod="pad" x1="-819.2" x2="819.2">
      <stop offset="0.0" stop-color="#1d1e1f"/>
      <stop offset="1.0" stop-color="#2b2e2f"/>
    </linearGradient>
  </defs>
</svg>
