<?xml version="1.0" encoding="UTF-8" standalone="no"?>
<svg xmlns:ffdec="https://www.free-decompiler.com/flash" xmlns:xlink="http://www.w3.org/1999/xlink" ffdec:objectType="shape" height="63.45px" width="126.7px" xmlns="http://www.w3.org/2000/svg">
  <g transform="matrix(1.0, 0.0, 0.0, 1.0, -77.25, -327.85)">
    <path d="M101.35 329.95 L111.1 327.85 116.45 330.75 114.0 351.35 109.3 352.3 106.9 350.65 101.35 329.95" fill="url(#gradient0)" fill-rule="evenodd" stroke="none"/>
    <path d="M105.7 332.95 L101.35 329.95 111.1 327.85 116.45 330.75 105.7 332.95" fill="#4f4f4f" fill-rule="evenodd" stroke="none"/>
    <path d="M186.65 331.9 L179.0 352.75 176.6 354.4 171.9 353.4 169.75 331.2 175.9 328.6 186.65 331.9" fill="url(#gradient1)" fill-rule="evenodd" stroke="none"/>
    <path d="M179.95 334.7 L169.75 331.2 175.9 328.6 186.65 331.9 179.95 334.7" fill="#4f4f4f" fill-rule="evenodd" stroke="none"/>
    <path d="M203.95 362.2 Q203.95 374.25 185.4 382.75 166.85 391.3 140.6 391.3 114.35 391.3 95.8 382.75 77.25 374.25 77.25 362.2 77.25 350.15 95.8 341.6 114.35 333.1 140.6 333.1 166.85 333.1 185.4 341.6 203.95 350.15 203.95 362.2" fill="url(#gradient2)" fill-rule="evenodd" stroke="none"/>
    <path d="M203.95 357.5 Q203.95 369.55 185.4 378.1 166.85 386.6 140.6 386.6 114.35 386.6 95.8 378.1 77.25 369.55 77.25 357.5 77.25 345.45 95.8 336.95 114.35 328.4 140.6 328.4 166.85 328.4 185.4 336.95 203.95 345.45 203.95 357.5" fill="url(#gradient3)" fill-rule="evenodd" stroke="none"/>
    <path d="M179.2 338.15 Q195.15 345.15 195.15 355.0 195.15 364.9 179.2 371.9 163.2 378.85 140.6 378.85 118.0 378.85 102.0 371.9 86.05 364.9 86.05 355.0 86.05 345.15 102.0 338.15 118.0 331.15 140.6 331.15 163.2 331.15 179.2 338.15" fill="#131821" fill-rule="evenodd" stroke="none"/>
  </g>
  <defs>
    <linearGradient gradientTransform="matrix(0.0012, 0.0148, -0.0148, 0.0012, 109.7, 340.1)" gradientUnits="userSpaceOnUse" id="gradient0" spreadMethod="pad" x1="-819.2" x2="819.2">
      <stop offset="0.0" stop-color="#262626"/>
      <stop offset="0.7215686274509804" stop-color="#737375"/>
      <stop offset="1.0" stop-color="#262626"/>
    </linearGradient>
    <linearGradient gradientTransform="matrix(0.0013, -0.0156, -0.0156, -0.0013, 177.35, 341.6)" gradientUnits="userSpaceOnUse" id="gradient1" spreadMethod="pad" x1="-819.2" x2="819.2">
      <stop offset="0.0" stop-color="#262626"/>
      <stop offset="0.7215686274509804" stop-color="#737375"/>
      <stop offset="1.0" stop-color="#262626"/>
    </linearGradient>
    <linearGradient gradientTransform="matrix(0.0, -0.0355, -0.0355, 0.0, 140.6, 362.2)" gradientUnits="userSpaceOnUse" id="gradient2" spreadMethod="pad" x1="-819.2" x2="819.2">
      <stop offset="0.0" stop-color="#282828"/>
      <stop offset="0.9058823529411765" stop-color="#a4a4a4"/>
      <stop offset="1.0" stop-color="#373737"/>
    </linearGradient>
    <linearGradient gradientTransform="matrix(0.0, -0.0355, -0.0355, 0.0, 140.6, 357.5)" gradientUnits="userSpaceOnUse" id="gradient3" spreadMethod="pad" x1="-819.2" x2="819.2">
      <stop offset="0.0" stop-color="#a4a4a4"/>
      <stop offset="1.0" stop-color="#282828"/>
    </linearGradient>
  </defs>
</svg>
