<?xml version="1.0" encoding="UTF-8" standalone="no"?>
<svg xmlns:ffdec="https://www.free-decompiler.com/flash" xmlns:xlink="http://www.w3.org/1999/xlink" ffdec:objectType="shape" height="38.1px" width="111.85px" xmlns="http://www.w3.org/2000/svg">
  <g transform="matrix(1.0, 0.0, 0.0, 1.0, -84.15, -375.9)">
    <path d="M187.95 412.05 L184.0 414.0 182.4 401.25 189.5 401.25 187.95 412.05" fill="url(#gradient0)" fill-rule="evenodd" stroke="none"/>
    <path d="M175.9 381.7 L190.05 375.9 196.0 380.15 190.55 402.4 184.35 405.8 181.3 403.7 175.9 381.7" fill="url(#gradient1)" fill-rule="evenodd" stroke="none"/>
    <path d="M182.9 386.55 L175.9 381.7 190.05 375.9 196.0 380.15 182.9 386.55" fill="#8c8c8c" fill-rule="evenodd" stroke="none"/>
    <path d="M182.9 386.55 L184.35 405.8 181.3 403.7 175.9 381.7 182.9 386.55" fill="#4f4f4f" fill-rule="evenodd" stroke="none"/>
    <path d="M93.75 412.05 L92.2 401.25 99.3 401.25 97.7 414.0 93.75 412.05" fill="url(#gradient2)" fill-rule="evenodd" stroke="none"/>
    <path d="M105.5 381.7 L100.1 403.7 97.05 405.8 90.85 402.4 84.15 381.25 91.35 375.9 105.5 381.7" fill="url(#gradient3)" fill-rule="evenodd" stroke="none"/>
    <path d="M98.5 386.55 L84.15 381.25 91.35 375.9 105.5 381.7 98.5 386.55" fill="#8c8c8c" fill-rule="evenodd" stroke="none"/>
    <path d="M98.5 386.55 L105.5 381.7 100.1 403.7 97.05 405.8 98.5 386.55" fill="#4f4f4f" fill-rule="evenodd" stroke="none"/>
  </g>
  <defs>
    <linearGradient gradientTransform="matrix(0.0, 0.0078, -0.0078, 0.0, 185.9, 407.6)" gradientUnits="userSpaceOnUse" id="gradient0" spreadMethod="pad" x1="-819.2" x2="819.2">
      <stop offset="0.0" stop-color="#00e0ff" stop-opacity="0.7490196"/>
      <stop offset="1.0" stop-color="#00e0ff" stop-opacity="0.02745098"/>
    </linearGradient>
    <linearGradient gradientTransform="matrix(0.0015, 0.0178, -0.0178, 0.0015, 186.75, 390.9)" gradientUnits="userSpaceOnUse" id="gradient1" spreadMethod="pad" x1="-819.2" x2="819.2">
      <stop offset="0.0" stop-color="#262626"/>
      <stop offset="0.7215686274509804" stop-color="#737375"/>
      <stop offset="1.0" stop-color="#262626"/>
    </linearGradient>
    <linearGradient gradientTransform="matrix(0.0, 0.0078, 0.0078, 0.0, 95.8, 407.6)" gradientUnits="userSpaceOnUse" id="gradient2" spreadMethod="pad" x1="-819.2" x2="819.2">
      <stop offset="0.0" stop-color="#00e0ff" stop-opacity="0.7490196"/>
      <stop offset="1.0" stop-color="#00e0ff" stop-opacity="0.02745098"/>
    </linearGradient>
    <linearGradient gradientTransform="matrix(0.0015, -0.0178, -0.0178, -0.0015, 94.05, 390.85)" gradientUnits="userSpaceOnUse" id="gradient3" spreadMethod="pad" x1="-819.2" x2="819.2">
      <stop offset="0.0" stop-color="#262626"/>
      <stop offset="0.7215686274509804" stop-color="#737375"/>
      <stop offset="1.0" stop-color="#262626"/>
    </linearGradient>
  </defs>
</svg>
