<?xml version="1.0" encoding="UTF-8" standalone="no"?>
<svg xmlns:ffdec="https://www.free-decompiler.com/flash" xmlns:xlink="http://www.w3.org/1999/xlink" ffdec:objectType="shape" height="31.05px" width="60.9px" xmlns="http://www.w3.org/2000/svg">
  <g transform="matrix(1.0, 0.0, 0.0, 1.0, -10.9, 0.0)">
    <path d="M66.7 0.55 Q68.3 1.05 69.25 1.85 L70.55 2.85 Q71.5 3.6 71.75 4.95 72.0 6.25 71.4 7.3 L59.7 28.4 Q59.05 29.5 57.75 30.25 56.45 31.05 55.2 31.05 L26.55 31.05 Q25.3 31.05 24.0 30.25 22.7 29.45 22.15 28.35 L11.3 7.35 Q10.75 6.25 10.95 4.85 11.15 3.45 12.05 2.6 L12.5 2.1 14.9 0.6 Q16.4 0.0 17.65 0.0 L63.9 0.0 Q65.15 0.0 66.7 0.55" fill="url(#gradient0)" fill-rule="evenodd" stroke="none"/>
    <path d="M49.15 3.35 Q52.0 3.35 53.4 2.75 54.6 2.15 57.7 2.15 L58.85 2.15 61.6 2.75 Q63.1 3.4 63.95 4.25 L64.5 4.75 Q65.35 5.6 65.55 7.0 65.75 8.4 65.15 9.45 L56.35 25.3 Q55.75 26.4 54.4 27.15 53.1 27.95 51.85 27.95 L51.4 27.95 Q48.4 27.95 47.5 27.4 46.5 26.85 43.55 26.85 L38.65 26.85 Q35.6 26.85 34.85 27.4 L31.0 27.95 30.1 27.95 Q28.85 27.95 27.6 27.15 26.3 26.4 25.7 25.3 L17.55 9.5 Q17.0 8.4 17.15 6.95 17.25 5.45 18.05 4.5 L18.1 4.45 Q18.85 3.5 20.3 2.85 21.7 2.15 22.95 2.15 L25.45 2.15 Q28.5 2.15 29.85 2.75 L34.25 3.35 49.15 3.35" fill="#2b2b2a" fill-rule="evenodd" stroke="none"/>
    <path d="M60.1 6.6 Q60.75 7.1 60.9 7.95 61.05 8.85 60.65 9.55 L53.05 23.3 Q52.65 24.0 51.75 24.5 50.9 25.0 50.05 25.0 L31.4 25.0 29.75 24.5 Q28.9 23.95 28.5 23.25 L21.4 9.6 Q21.05 8.85 21.2 7.95 21.35 7.0 21.9 6.4 L22.15 6.15 Q22.75 5.55 23.75 5.15 24.75 4.75 25.6 4.75 L55.75 4.75 57.6 5.1 Q58.65 5.45 59.3 5.95 L60.1 6.6" fill="url(#gradient1)" fill-rule="evenodd" stroke="none"/>
    <path d="M60.1 6.6 L59.3 5.95 Q58.65 5.45 57.6 5.1 L55.75 4.75 25.6 4.75 Q24.75 4.75 23.75 5.15 22.75 5.55 22.15 6.15 L21.9 6.4 Q21.35 7.0 21.2 7.95 21.05 8.85 21.4 9.6 L28.5 23.25 Q28.9 23.95 29.75 24.5 L31.4 25.0 50.05 25.0 Q50.9 25.0 51.75 24.5 52.65 24.0 53.05 23.3 L60.65 9.55 Q61.05 8.85 60.9 7.95 60.75 7.1 60.1 6.6 Z" fill="none" stroke="#f19e24" stroke-linecap="butt" stroke-linejoin="miter-clip" stroke-miterlimit="4.0" stroke-width="1.0"/>
    <path d="M51.75 24.5 Q52.65 24.0 53.05 23.3 L60.65 9.55 Q61.05 8.85 60.9 7.95 60.75 7.1 60.1 6.6 L59.3 5.95 Q58.65 5.45 57.6 5.1 L55.75 4.75 25.6 4.75 Q24.75 4.75 23.75 5.15 22.75 5.55 22.15 6.15 L21.9 6.4 Q21.35 7.0 21.2 7.95 21.05 8.85 21.4 9.6 L28.5 23.25 Q28.9 23.95 29.75 24.5 L31.4 25.0 50.05 25.0 Q50.9 25.0 51.75 24.5 Z" fill="none" stroke="#f19e24" stroke-linecap="butt" stroke-linejoin="miter-clip" stroke-miterlimit="4.0" stroke-width="1.0"/>
    <path d="M33.45 20.25 L33.45 8.2 36.15 8.2 36.15 20.25 33.45 20.25" fill="#fd8c1c" fill-rule="evenodd" stroke="none"/>
    <path d="M30.85 18.1 L30.85 10.4 33.55 10.4 33.55 18.1 30.85 18.1" fill="#c46200" fill-rule="evenodd" stroke="none"/>
    <path d="M36.15 12.9 L43.7 12.9 44.05 13.15 Q44.4 13.55 44.4 14.3 44.4 15.55 43.7 15.7 L36.15 15.7 36.15 12.9" fill="#ba5e01" fill-rule="evenodd" stroke="none"/>
    <path d="M36.1 9.8 L38.7 9.8 39.85 8.6 44.3 8.6 46.05 11.3 36.1 11.3 36.1 9.8" fill="#ca6502" fill-rule="evenodd" stroke="none"/>
    <path d="M36.1 18.85 L36.1 17.35 46.05 17.35 44.3 20.05 39.85 20.05 38.7 18.85 36.1 18.85" fill="#ca6502" fill-rule="evenodd" stroke="none"/>
    <path d="M42.35 12.55 L42.3 12.4 43.0 12.4 42.95 12.55 44.3 16.4 43.7 16.4 42.65 13.4 41.7 16.2 41.75 16.4 41.0 16.4 41.05 16.25 40.1 13.55 39.1 16.25 39.15 16.4 38.45 16.4 38.5 16.25 37.55 13.5 36.5 16.4 35.9 16.4 37.25 12.65 37.15 12.4 37.9 12.4 37.85 12.65 38.8 15.4 39.8 12.65 39.7 12.4 40.5 12.4 40.45 12.65 41.4 15.35 42.35 12.55" fill="#f19e24" fill-rule="evenodd" stroke="none"/>
    <path d="M41.75 12.7 Q42.4 12.05 43.3 12.05 44.75 12.05 45.35 13.4 L55.45 13.4 55.45 15.25 45.35 15.25 Q44.75 16.55 43.3 16.55 42.4 16.55 41.75 15.9 41.1 15.25 41.1 14.3 41.1 13.35 41.75 12.7" fill="url(#gradient2)" fill-rule="evenodd" stroke="none"/>
  </g>
  <defs>
    <linearGradient gradientTransform="matrix(0.0, -0.019, 0.019, 0.0, 41.35, 15.5)" gradientUnits="userSpaceOnUse" id="gradient0" spreadMethod="pad" x1="-819.2" x2="819.2">
      <stop offset="0.0" stop-color="#373737"/>
      <stop offset="0.6549019607843137" stop-color="#a4a4a4"/>
      <stop offset="0.803921568627451" stop-color="#a4a4a4"/>
      <stop offset="1.0" stop-color="#6b6b6b"/>
    </linearGradient>
    <linearGradient gradientTransform="matrix(0.0, 0.0118, 0.0085, 0.0, 76.65, 15.45)" gradientUnits="userSpaceOnUse" id="gradient1" spreadMethod="pad" x1="-819.2" x2="819.2">
      <stop offset="0.0" stop-color="#eb8242"/>
      <stop offset="0.00392156862745098" stop-color="#e87f40"/>
      <stop offset="0.043137254901960784" stop-color="#cb6129"/>
      <stop offset="0.08627450980392157" stop-color="#b34917"/>
      <stop offset="0.13333333333333333" stop-color="#a3380a"/>
      <stop offset="0.1803921568627451" stop-color="#992e02"/>
      <stop offset="0.24313725490196078" stop-color="#962b00"/>
      <stop offset="0.4392156862745098" stop-color="#982e00"/>
      <stop offset="0.592156862745098" stop-color="#9f3800"/>
      <stop offset="0.7333333333333333" stop-color="#ab4901"/>
      <stop offset="0.8666666666666667" stop-color="#bb6002"/>
      <stop offset="0.996078431372549" stop-color="#d07f03"/>
      <stop offset="1.0" stop-color="#d18003"/>
    </linearGradient>
    <linearGradient gradientTransform="matrix(0.0088, 0.0, 0.0, -0.0088, 48.25, 14.3)" gradientUnits="userSpaceOnUse" id="gradient2" spreadMethod="pad" x1="-819.2" x2="819.2">
      <stop offset="0.0" stop-color="#f8ce29"/>
      <stop offset="0.2" stop-color="#ffa530"/>
      <stop offset="0.5803921568627451" stop-color="#ff962b"/>
      <stop offset="0.8588235294117647" stop-color="#fd842c"/>
      <stop offset="1.0" stop-color="#fe802b"/>
    </linearGradient>
  </defs>
</svg>
