<?xml version="1.0" encoding="UTF-8" standalone="no"?>
<svg xmlns:ffdec="https://www.free-decompiler.com/flash" xmlns:xlink="http://www.w3.org/1999/xlink" ffdec:objectType="shape" height="16.25px" width="87.35px" xmlns="http://www.w3.org/2000/svg">
  <g transform="matrix(1.0, 0.0, 0.0, 1.0, -2.6, -13.75)">
    <path d="M4.85 29.65 L7.85 29.85 Q10.05 28.6 16.5 26.45 18.3 25.9 17.25 24.0 16.25 22.1 13.9 22.85 5.9 25.55 2.65 28.3 2.35 29.05 4.85 29.65" fill="url(#gradient0)" fill-rule="evenodd" stroke="none"/>
    <path d="M87.7 29.65 L84.7 29.85 Q82.5 28.6 76.05 26.45 74.25 25.9 75.3 24.0 76.3 22.1 78.65 22.85 86.65 25.55 89.9 28.3 90.2 29.05 87.7 29.65" fill="url(#gradient1)" fill-rule="evenodd" stroke="none"/>
    <path d="M76.05 13.75 L78.35 15.15 79.5 19.95 74.7 28.0 69.95 29.25 67.7 27.85 76.05 13.75" fill="url(#gradient2)" fill-rule="evenodd" stroke="none"/>
    <path d="M81.0 22.65 L77.85 27.9 75.6 26.55 78.65 21.3 81.0 22.65" fill="#333333" fill-rule="evenodd" stroke="none"/>
    <path d="M15.75 13.75 L13.4 15.15 12.25 19.95 17.05 28.0 21.8 29.25 24.1 27.85 15.75 13.75" fill="url(#gradient3)" fill-rule="evenodd" stroke="none"/>
    <path d="M10.75 22.65 L13.9 27.9 16.2 26.55 13.15 21.3 10.75 22.65" fill="#333333" fill-rule="evenodd" stroke="none"/>
  </g>
  <defs>
    <linearGradient gradientTransform="matrix(0.0015, 0.0037, 0.0086, -0.0036, -21.25, 39.75)" gradientUnits="userSpaceOnUse" id="gradient0" spreadMethod="pad" x1="-819.2" x2="819.2">
      <stop offset="0.0" stop-color="#505050"/>
      <stop offset="0.09803921568627451" stop-color="#373737"/>
      <stop offset="0.5254901960784314" stop-color="#6e6861"/>
      <stop offset="0.8862745098039215" stop-color="#3d3d3d"/>
      <stop offset="1.0" stop-color="#505050"/>
    </linearGradient>
    <linearGradient gradientTransform="matrix(-0.0015, 0.0037, -0.0086, -0.0036, 113.8, 39.75)" gradientUnits="userSpaceOnUse" id="gradient1" spreadMethod="pad" x1="-819.2" x2="819.2">
      <stop offset="0.0" stop-color="#505050"/>
      <stop offset="0.09803921568627451" stop-color="#373737"/>
      <stop offset="0.5254901960784314" stop-color="#6e6861"/>
      <stop offset="0.8862745098039215" stop-color="#3d3d3d"/>
      <stop offset="1.0" stop-color="#505050"/>
    </linearGradient>
    <linearGradient gradientTransform="matrix(-0.0049, 0.0088, 0.0088, 0.0049, 74.45, 22.35)" gradientUnits="userSpaceOnUse" id="gradient2" spreadMethod="pad" x1="-819.2" x2="819.2">
      <stop offset="0.0" stop-color="#505050"/>
      <stop offset="0.09803921568627451" stop-color="#373737"/>
      <stop offset="0.5254901960784314" stop-color="#6e6963"/>
      <stop offset="0.8862745098039215" stop-color="#3d3d3d"/>
      <stop offset="1.0" stop-color="#505050"/>
    </linearGradient>
    <linearGradient gradientTransform="matrix(0.0049, 0.0088, -0.0088, 0.0049, 17.35, 22.35)" gradientUnits="userSpaceOnUse" id="gradient3" spreadMethod="pad" x1="-819.2" x2="819.2">
      <stop offset="0.0" stop-color="#505050"/>
      <stop offset="0.09803921568627451" stop-color="#373737"/>
      <stop offset="0.5254901960784314" stop-color="#6e6963"/>
      <stop offset="0.8862745098039215" stop-color="#3d3d3d"/>
      <stop offset="1.0" stop-color="#505050"/>
    </linearGradient>
  </defs>
</svg>
