<?xml version="1.0" encoding="UTF-8" standalone="no"?>
<svg xmlns:ffdec="https://www.free-decompiler.com/flash" xmlns:xlink="http://www.w3.org/1999/xlink" ffdec:objectType="shape" height="31.05px" width="60.9px" xmlns="http://www.w3.org/2000/svg">
  <g transform="matrix(1.0, 0.0, 0.0, 1.0, -16.0, -0.05)">
    <path d="M64.8 28.45 Q64.15 29.55 62.85 30.3 61.55 31.1 60.3 31.1 L31.65 31.1 Q30.4 31.1 29.1 30.3 27.8 29.5 27.25 28.4 L16.4 7.4 Q15.85 6.3 16.05 4.9 16.25 3.5 17.15 2.65 L17.6 2.15 20.0 0.65 Q21.5 0.05 22.75 0.05 L69.0 0.05 Q70.25 0.05 71.8 0.6 73.4 1.1 74.35 1.9 L75.65 2.9 Q76.6 3.65 76.85 5.0 77.1 6.3 76.5 7.35 L64.8 28.45" fill="url(#gradient0)" fill-rule="evenodd" stroke="none"/>
    <path d="M54.25 3.4 Q57.1 3.4 58.5 2.8 59.7 2.2 62.8 2.2 L63.95 2.2 Q65.2 2.2 66.7 2.8 68.2 3.45 69.05 4.3 L69.6 4.8 Q70.45 5.65 70.65 7.05 70.85 8.45 70.25 9.5 L61.45 25.35 Q60.85 26.45 59.5 27.2 58.2 28.0 56.95 28.0 L56.5 28.0 52.6 27.45 Q51.6 26.9 48.65 26.9 L43.75 26.9 Q40.7 26.9 39.95 27.45 39.15 28.0 36.1 28.0 L35.2 28.0 Q33.95 28.0 32.7 27.2 31.4 26.45 30.8 25.35 L22.65 9.55 Q22.1 8.45 22.25 7.0 22.35 5.5 23.15 4.55 L23.2 4.5 Q23.95 3.55 25.4 2.9 26.8 2.2 28.05 2.2 L30.55 2.2 Q33.6 2.2 34.95 2.8 L39.35 3.4 54.25 3.4" fill="#2b2b2a" fill-rule="evenodd" stroke="none"/>
    <path d="M60.85 4.8 L62.7 5.15 Q63.75 5.5 64.4 6.0 L65.2 6.65 Q65.85 7.15 66.0 8.0 66.15 8.9 65.75 9.6 L58.15 23.35 56.85 24.55 Q56.0 25.05 55.15 25.05 L36.5 25.05 Q35.7 25.05 34.85 24.55 34.0 24.0 33.6 23.3 L26.5 9.65 Q26.15 8.9 26.3 8.0 26.45 7.05 27.0 6.45 L27.25 6.2 Q27.85 5.6 28.85 5.2 L30.7 4.8 60.85 4.8" fill="#03287a" fill-rule="evenodd" stroke="none"/>
    <path d="M60.85 4.8 L30.7 4.8 28.85 5.2 Q27.85 5.6 27.25 6.2 L27.0 6.45 Q26.45 7.05 26.3 8.0 26.15 8.9 26.5 9.65 L33.6 23.3 Q34.0 24.0 34.85 24.55 35.7 25.05 36.5 25.05 L55.15 25.05 Q56.0 25.05 56.85 24.55 L58.15 23.35 65.75 9.6 Q66.15 8.9 66.0 8.0 65.85 7.15 65.2 6.65 L64.4 6.0 Q63.75 5.5 62.7 5.15 L60.85 4.8 Z" fill="none" stroke="#069aff" stroke-linecap="butt" stroke-linejoin="miter-clip" stroke-miterlimit="4.0" stroke-width="1.0"/>
    <path d="M48.45 20.1 L48.45 22.7 44.8 22.7 44.8 18.6 46.6 18.6 48.45 20.1" fill="#094ace" fill-rule="evenodd" stroke="none"/>
    <path d="M46.6 22.7 L41.35 22.7 41.35 17.3 46.6 17.3 46.6 22.7" fill="#0f67f4" fill-rule="evenodd" stroke="none"/>
    <path d="M50.9 10.9 L45.6 14.95 45.05 14.2 50.35 10.15 50.9 10.9" fill="#094ace" fill-rule="evenodd" stroke="none"/>
    <path d="M48.7 13.4 L48.45 15.5 43.6 19.15 41.0 15.65 45.85 11.95 48.7 13.4" fill="#0f67f4" fill-rule="evenodd" stroke="none"/>
    <path d="M52.25 9.65 L52.15 10.45 50.2 12.2 49.05 10.6 51.25 9.2 52.25 9.65" fill="#22a6ff" fill-rule="evenodd" stroke="none"/>
    <path d="M47.25 14.6 L47.05 17.0 41.05 21.55 38.0 17.45 43.9 12.9 47.25 14.6" fill="#0d90fc" fill-rule="evenodd" stroke="none"/>
    <path d="M42.45 17.3 Q43.25 18.45 43.05 19.8 42.9 21.15 41.75 22.0 40.65 22.8 39.3 22.65 37.95 22.45 37.1 21.35 36.25 20.2 36.45 18.85 36.65 17.5 37.75 16.65 38.9 15.8 40.25 16.0 41.6 16.2 42.45 17.3" fill="#24c6ff" fill-rule="evenodd" stroke="none"/>
    <path d="M41.7 17.85 Q42.35 18.65 42.15 19.65 42.05 20.7 41.2 21.3 40.4 21.9 39.4 21.75 38.45 21.6 37.8 20.8 37.2 20.0 37.35 19.0 37.5 18.0 38.3 17.35 39.1 16.8 40.1 16.9 41.15 17.05 41.7 17.85" fill="#0f67f4" fill-rule="evenodd" stroke="none"/>
    <path d="M41.0 18.35 Q41.4 18.9 41.3 19.55 41.2 20.2 40.7 20.55 40.2 20.95 39.5 20.9 38.9 20.8 38.5 20.25 38.1 19.75 38.2 19.1 38.3 18.45 38.8 18.05 L39.95 17.75 Q40.65 17.85 41.0 18.35" fill="#24c6ff" fill-rule="evenodd" stroke="none"/>
    <path d="M53.7 16.0 L50.75 16.9 53.65 14.6 56.55 16.9 53.7 16.0" fill="#50ceff" fill-rule="evenodd" stroke="none"/>
    <path d="M53.7 18.15 L50.75 19.05 53.65 16.7 56.55 19.05 53.7 18.15" fill="#50ceff" fill-rule="evenodd" stroke="none"/>
  </g>
  <defs>
    <linearGradient gradientTransform="matrix(0.0, -0.019, 0.019, 0.0, 46.45, 15.55)" gradientUnits="userSpaceOnUse" id="gradient0" spreadMethod="pad" x1="-819.2" x2="819.2">
      <stop offset="0.0" stop-color="#373737"/>
      <stop offset="0.6549019607843137" stop-color="#a4a4a4"/>
      <stop offset="0.803921568627451" stop-color="#a4a4a4"/>
      <stop offset="1.0" stop-color="#6b6b6b"/>
    </linearGradient>
  </defs>
</svg>
