<?xml version="1.0" encoding="UTF-8" standalone="no"?>
<svg xmlns:ffdec="https://www.free-decompiler.com/flash" xmlns:xlink="http://www.w3.org/1999/xlink" ffdec:objectType="shape" height="27.95px" width="54.85px" xmlns="http://www.w3.org/2000/svg">
  <g transform="matrix(1.0, 0.0, 0.0, 1.0, -19.05, -1.55)">
    <path d="M69.25 2.05 Q70.7 2.5 71.55 3.2 L72.75 4.1 Q73.6 4.75 73.8 6.0 74.05 7.15 73.5 8.1 L62.95 27.1 Q62.4 28.1 61.2 28.75 60.05 29.5 58.9 29.5 L33.15 29.5 Q32.0 29.5 30.85 28.75 29.65 28.05 29.2 27.05 L19.4 8.15 Q18.9 7.15 19.1 5.9 19.3 4.65 20.1 3.85 L20.5 3.4 22.65 2.1 Q24.0 1.55 25.15 1.55 L66.75 1.55 Q67.9 1.55 69.25 2.05" fill="url(#gradient0)" fill-rule="evenodd" stroke="none"/>
    <path d="M53.5 4.6 L57.3 4.05 Q58.4 3.5 61.2 3.5 L62.2 3.5 Q63.35 3.5 64.7 4.05 66.05 4.6 66.8 5.4 L67.3 5.85 Q68.05 6.6 68.25 7.85 68.4 9.1 67.9 10.05 L59.95 24.35 Q59.4 25.3 58.2 26.0 57.05 26.7 55.9 26.7 L55.5 26.7 Q52.8 26.7 52.0 26.2 L48.45 25.75 44.05 25.75 40.6 26.2 37.15 26.7 36.35 26.7 Q35.2 26.7 34.1 26.0 32.9 25.3 32.4 24.35 L25.05 10.1 Q24.55 9.1 24.7 7.8 24.75 6.45 25.5 5.6 L25.55 5.55 Q26.2 4.7 27.5 4.15 28.8 3.5 29.9 3.5 L32.15 3.5 Q34.9 3.5 36.1 4.05 L40.05 4.6 53.5 4.6" fill="#2b2b2a" fill-rule="evenodd" stroke="none"/>
    <path d="M59.4 5.8 L61.1 6.1 Q62.05 6.45 62.6 6.9 L63.35 7.45 Q63.9 7.9 64.05 8.7 64.2 9.5 63.85 10.15 L57.0 22.5 55.8 23.6 54.3 24.05 37.5 24.05 36.0 23.6 34.9 22.45 28.5 10.15 Q28.2 9.5 28.3 8.7 28.45 7.85 28.95 7.3 L29.2 7.05 Q29.7 6.55 30.6 6.15 L32.3 5.8 59.4 5.8" fill="url(#gradient1)" fill-rule="evenodd" stroke="none"/>
    <path d="M59.4 5.8 L32.3 5.8 30.6 6.15 Q29.7 6.55 29.2 7.05 L28.95 7.3 Q28.45 7.85 28.3 8.7 28.2 9.5 28.5 10.15 L34.9 22.45 36.0 23.6 37.5 24.05 54.3 24.05 55.8 23.6 57.0 22.5 63.85 10.15 Q64.2 9.5 64.05 8.7 63.9 7.9 63.35 7.45 L62.6 6.9 Q62.05 6.45 61.1 6.1 L59.4 5.8 Z" fill="none" stroke="#f19e24" stroke-linecap="butt" stroke-linejoin="miter-clip" stroke-miterlimit="4.0" stroke-width="1.0"/>
    <path d="M63.85 10.15 Q64.2 9.5 64.05 8.7 63.9 7.9 63.35 7.45 L62.6 6.9 Q62.05 6.45 61.1 6.1 L59.4 5.8 32.3 5.8 30.6 6.15 Q29.7 6.55 29.2 7.05 L28.95 7.3 Q28.45 7.85 28.3 8.7 28.2 9.5 28.5 10.15 L34.9 22.45 36.0 23.6 37.5 24.05 54.3 24.05 55.8 23.6 57.0 22.5 63.85 10.15 Z" fill="none" stroke="#f19e24" stroke-linecap="butt" stroke-linejoin="miter-clip" stroke-miterlimit="4.0" stroke-width="1.0"/>
    <path d="M48.25 19.7 L48.25 22.0 45.0 22.0 45.0 18.3 46.6 18.3 48.25 19.7" fill="#934900" fill-rule="evenodd" stroke="none"/>
    <path d="M46.6 22.0 L41.85 22.0 41.85 17.15 46.6 17.15 46.6 22.0" fill="#d36001" fill-rule="evenodd" stroke="none"/>
    <path d="M50.45 11.35 L45.65 15.0 45.2 14.35 49.95 10.75 50.45 11.35" fill="#c46200" fill-rule="evenodd" stroke="none"/>
    <path d="M48.45 13.65 L48.25 15.55 43.9 18.85 41.55 15.65 45.9 12.35 48.45 13.65" fill="#fe9136" fill-rule="evenodd" stroke="none"/>
    <path d="M51.65 10.25 L51.6 10.95 49.85 12.55 48.8 11.15 50.75 9.85 51.65 10.25" fill="#fd882c" fill-rule="evenodd" stroke="none"/>
    <path d="M47.15 14.7 L46.95 16.9 41.55 20.95 38.8 17.3 44.15 13.2 47.15 14.7" fill="#fe7607" fill-rule="evenodd" stroke="none"/>
    <path d="M42.85 17.15 Q43.55 18.2 43.4 19.4 43.25 20.6 42.2 21.4 41.2 22.1 40.0 21.95 38.8 21.8 38.0 20.75 37.25 19.75 37.45 18.55 37.6 17.35 38.6 16.55 39.65 15.8 40.85 16.0 42.05 16.15 42.85 17.15" fill="#ffcc33" fill-rule="evenodd" stroke="none"/>
    <path d="M42.2 17.65 Q42.75 18.4 42.6 19.25 42.45 20.2 41.75 20.75 41.0 21.3 40.1 21.15 39.2 21.0 38.65 20.3 38.15 19.55 38.25 18.65 38.35 17.75 39.1 17.2 39.85 16.7 40.7 16.8 41.65 16.9 42.2 17.65" fill="#fd882c" fill-rule="evenodd" stroke="none"/>
    <path d="M41.55 18.05 Q41.9 18.55 41.85 19.1 41.75 19.75 41.25 20.05 40.8 20.4 40.2 20.35 L39.3 19.75 Q38.95 19.3 39.05 18.7 39.1 18.15 39.55 17.8 L40.6 17.55 Q41.2 17.6 41.55 18.05" fill="#ffcc33" fill-rule="evenodd" stroke="none"/>
    <path d="M52.95 16.0 L50.3 16.8 52.9 14.7 55.55 16.8 52.95 16.0" fill="#fdd32d" fill-rule="evenodd" stroke="none"/>
    <path d="M52.95 17.9 L50.3 18.7 52.9 16.6 55.55 18.7 52.95 17.9" fill="#fdd32d" fill-rule="evenodd" stroke="none"/>
  </g>
  <defs>
    <linearGradient gradientTransform="matrix(0.0, -0.0171, 0.0171, 0.0, 46.45, 15.5)" gradientUnits="userSpaceOnUse" id="gradient0" spreadMethod="pad" x1="-819.2" x2="819.2">
      <stop offset="0.0" stop-color="#373737"/>
      <stop offset="0.6549019607843137" stop-color="#a4a4a4"/>
      <stop offset="0.803921568627451" stop-color="#a4a4a4"/>
      <stop offset="1.0" stop-color="#6b6b6b"/>
    </linearGradient>
    <linearGradient gradientTransform="matrix(0.0, 0.0106, 0.0076, 0.0, 78.25, 15.45)" gradientUnits="userSpaceOnUse" id="gradient1" spreadMethod="pad" x1="-819.2" x2="819.2">
      <stop offset="0.0" stop-color="#eb8242"/>
      <stop offset="0.00392156862745098" stop-color="#e87f40"/>
      <stop offset="0.043137254901960784" stop-color="#cb6129"/>
      <stop offset="0.08627450980392157" stop-color="#b34917"/>
      <stop offset="0.13333333333333333" stop-color="#a3380a"/>
      <stop offset="0.1803921568627451" stop-color="#992e02"/>
      <stop offset="0.24313725490196078" stop-color="#962b00"/>
      <stop offset="0.4392156862745098" stop-color="#982e00"/>
      <stop offset="0.592156862745098" stop-color="#9f3800"/>
      <stop offset="0.7333333333333333" stop-color="#ab4901"/>
      <stop offset="0.8666666666666667" stop-color="#bb6002"/>
      <stop offset="0.996078431372549" stop-color="#d07f03"/>
      <stop offset="1.0" stop-color="#d18003"/>
    </linearGradient>
  </defs>
</svg>
