<?xml version="1.0" encoding="UTF-8" standalone="no"?>
<svg xmlns:ffdec="https://www.free-decompiler.com/flash" xmlns:xlink="http://www.w3.org/1999/xlink" ffdec:objectType="shape" height="31.05px" width="60.9px" xmlns="http://www.w3.org/2000/svg">
  <g transform="matrix(1.0, 0.0, 0.0, 1.0, -16.0, -0.05)">
    <path d="M64.8 28.45 Q64.15 29.55 62.85 30.3 61.55 31.1 60.3 31.1 L31.65 31.1 Q30.4 31.1 29.1 30.3 27.8 29.5 27.25 28.4 L16.4 7.4 Q15.85 6.3 16.05 4.9 16.25 3.5 17.15 2.65 L17.6 2.15 20.0 0.65 Q21.5 0.05 22.75 0.05 L69.0 0.05 Q70.25 0.05 71.8 0.6 73.4 1.1 74.35 1.9 L75.65 2.9 Q76.6 3.65 76.85 5.0 77.1 6.3 76.5 7.35 L64.8 28.45" fill="url(#gradient0)" fill-rule="evenodd" stroke="none"/>
    <path d="M54.25 3.4 Q57.1 3.4 58.5 2.8 59.7 2.2 62.8 2.2 L63.95 2.2 Q65.2 2.2 66.7 2.8 68.2 3.45 69.05 4.3 L69.6 4.8 Q70.45 5.65 70.65 7.05 70.85 8.45 70.25 9.5 L61.45 25.35 Q60.85 26.45 59.5 27.2 58.2 28.0 56.95 28.0 L56.5 28.0 52.6 27.45 Q51.6 26.9 48.65 26.9 L43.75 26.9 Q40.7 26.9 39.95 27.45 39.15 28.0 36.1 28.0 L35.2 28.0 Q33.95 28.0 32.7 27.2 31.4 26.45 30.8 25.35 L22.65 9.55 Q22.1 8.45 22.25 7.0 22.35 5.5 23.15 4.55 L23.2 4.5 Q23.95 3.55 25.4 2.9 26.8 2.2 28.05 2.2 L30.55 2.2 Q33.6 2.2 34.95 2.8 L39.35 3.4 54.25 3.4" fill="#2b2b2a" fill-rule="evenodd" stroke="none"/>
    <path d="M60.85 4.8 L62.7 5.15 Q63.75 5.5 64.4 6.0 L65.2 6.65 Q65.85 7.15 66.0 8.0 66.15 8.9 65.75 9.6 L58.15 23.35 56.85 24.55 Q56.0 25.05 55.15 25.05 L36.5 25.05 Q35.7 25.05 34.85 24.55 34.0 24.0 33.6 23.3 L26.5 9.65 Q26.15 8.9 26.3 8.0 26.45 7.05 27.0 6.45 L27.25 6.2 Q27.85 5.6 28.85 5.2 L30.7 4.8 60.85 4.8" fill="#03287a" fill-rule="evenodd" stroke="none"/>
    <path d="M60.85 4.8 L30.7 4.8 28.85 5.2 Q27.85 5.6 27.25 6.2 L27.0 6.45 Q26.45 7.05 26.3 8.0 26.15 8.9 26.5 9.65 L33.6 23.3 Q34.0 24.0 34.85 24.55 35.7 25.05 36.5 25.05 L55.15 25.05 Q56.0 25.05 56.85 24.55 L58.15 23.35 65.75 9.6 Q66.15 8.9 66.0 8.0 65.85 7.15 65.2 6.65 L64.4 6.0 Q63.75 5.5 62.7 5.15 L60.85 4.8 Z" fill="none" stroke="#069aff" stroke-linecap="butt" stroke-linejoin="miter-clip" stroke-miterlimit="4.0" stroke-width="1.0"/>
    <path d="M37.65 15.8 Q37.45 16.9 37.15 16.8 36.8 16.7 37.0 15.65 37.2 14.55 37.5 14.65 37.85 14.75 37.65 15.8" fill="#0677ff" fill-rule="evenodd" stroke="none"/>
    <path d="M55.3 15.8 Q55.1 14.75 55.45 14.65 55.75 14.55 55.95 15.65 56.15 16.7 55.8 16.8 55.5 16.9 55.3 15.8" fill="#094ace" fill-rule="evenodd" stroke="none"/>
    <path d="M41.65 8.0 L44.55 12.95 45.25 12.4 46.0 12.3 46.45 12.45 46.95 12.3 47.7 12.4 48.4 12.95 51.3 8.0 51.7 8.0 49.75 13.0 52.9 13.0 53.2 13.75 56.8 13.75 57.1 14.75 50.75 16.4 50.95 18.65 49.85 18.65 48.95 20.2 47.7 20.2 46.7 21.6 46.7 22.75 46.25 22.75 46.25 21.6 45.25 20.2 44.0 20.2 43.1 18.65 42.0 18.65 42.2 16.4 35.85 14.75 36.15 13.75 39.75 13.75 40.05 13.0 43.2 13.0 41.25 8.0 41.65 8.0" fill="#094ace" fill-rule="evenodd" stroke="none"/>
    <path d="M44.1 19.9 L43.3 18.4 42.55 18.4 42.6 17.95 42.95 17.85 44.4 17.75 45.2 19.9 44.1 19.9" fill="#065abf" fill-rule="evenodd" stroke="none"/>
    <path d="M46.05 15.6 L45.85 15.9 Q45.7 15.75 45.9 15.35 46.1 15.0 46.25 15.15 L46.05 15.6" fill="#2eceff" fill-rule="evenodd" stroke="none"/>
    <path d="M37.65 15.8 Q37.45 16.9 37.15 16.8 36.8 16.7 37.0 15.65 37.2 14.55 37.5 14.65 37.85 14.75 37.65 15.8" fill="#0677ff" fill-rule="evenodd" stroke="none"/>
    <path d="M41.65 8.0 L44.55 12.95 45.25 12.4 46.0 12.3 46.45 12.45 46.45 22.75 46.25 22.75 46.25 21.6 45.25 20.2 44.0 20.2 43.1 18.65 42.0 18.65 42.2 16.4 35.85 14.75 36.15 13.75 39.75 13.75 40.05 13.0 43.2 13.0 41.25 8.0 41.65 8.0" fill="url(#gradient1)" fill-rule="evenodd" stroke="none"/>
    <path d="M44.1 19.9 L43.3 18.4 42.55 18.4 42.6 17.95 42.95 17.85 44.4 17.75 45.2 19.9 44.1 19.9" fill="#065abf" fill-rule="evenodd" stroke="none"/>
    <path d="M46.55 17.25 L45.7 17.35 Q45.35 17.35 45.35 16.7 45.35 15.9 45.7 15.35 46.05 14.75 46.55 14.75 L46.55 17.25" fill="#025fce" fill-rule="evenodd" stroke="none"/>
    <path d="M46.05 15.6 L45.85 15.9 Q45.7 15.75 45.9 15.35 46.1 15.0 46.25 15.15 L46.05 15.6" fill="#2eceff" fill-rule="evenodd" stroke="none"/>
    <path d="M38.45 9.95 L35.85 9.95 35.5 9.3 39.85 9.3 40.75 11.55 39.55 11.55 38.45 9.95" fill="#094ace" fill-rule="evenodd" stroke="none"/>
    <path d="M54.55 9.95 L53.4 11.55 52.2 11.55 53.1 9.3 57.45 9.3 57.15 9.95 54.55 9.95" fill="#094ace" fill-rule="evenodd" stroke="none"/>
    <path d="M38.45 19.9 L39.55 18.3 40.75 18.3 39.85 20.5 35.5 20.5 35.85 19.9 38.45 19.9" fill="#094ace" fill-rule="evenodd" stroke="none"/>
    <path d="M54.55 19.9 L57.15 19.9 57.45 20.5 53.1 20.5 52.2 18.3 53.4 18.3 54.55 19.9" fill="#094ace" fill-rule="evenodd" stroke="none"/>
  </g>
  <defs>
    <linearGradient gradientTransform="matrix(0.0, -0.019, 0.019, 0.0, 46.45, 15.55)" gradientUnits="userSpaceOnUse" id="gradient0" spreadMethod="pad" x1="-819.2" x2="819.2">
      <stop offset="0.0" stop-color="#373737"/>
      <stop offset="0.6549019607843137" stop-color="#a4a4a4"/>
      <stop offset="0.803921568627451" stop-color="#a4a4a4"/>
      <stop offset="1.0" stop-color="#6b6b6b"/>
    </linearGradient>
    <linearGradient gradientTransform="matrix(0.0, -0.009, -0.009, 0.0, 41.15, 15.35)" gradientUnits="userSpaceOnUse" id="gradient1" spreadMethod="pad" x1="-819.2" x2="819.2">
      <stop offset="0.0" stop-color="#00b0ff"/>
      <stop offset="0.20392156862745098" stop-color="#00a6fc"/>
      <stop offset="0.5607843137254902" stop-color="#0089f6"/>
      <stop offset="1.0" stop-color="#005eeb"/>
    </linearGradient>
  </defs>
</svg>
