<?xml version="1.0" encoding="UTF-8" standalone="no"?>
<svg xmlns:ffdec="https://www.free-decompiler.com/flash" xmlns:xlink="http://www.w3.org/1999/xlink" ffdec:objectType="shape" height="40.85px" width="64.15px" xmlns="http://www.w3.org/2000/svg">
  <g transform="matrix(1.0, 0.0, 0.0, 1.0, 0.0, 0.0)">
    <path d="M62.35 40.85 L1.9 40.85 Q1.15 40.85 0.6 40.35 0.05 39.85 0.05 39.15 L0.0 1.65 Q0.0 1.05 0.4 0.65 0.95 0.0 1.8 0.0 L62.35 0.0 Q63.05 0.0 63.6 0.5 64.15 1.05 64.15 1.7 L64.15 39.15 Q64.15 39.85 63.6 40.35 63.05 40.85 62.35 40.85" fill="#041538" fill-rule="evenodd" stroke="none"/>
    <path d="M62.45 36.35 Q62.45 37.6 61.55 38.45 60.7 39.35 59.45 39.35 L4.7 39.35 Q3.45 39.35 2.6 38.45 1.7 37.6 1.7 36.35 L1.7 4.5 Q1.7 3.25 2.6 2.4 3.45 1.5 4.7 1.5 L59.45 1.5 Q60.7 1.5 61.55 2.4 62.45 3.25 62.45 4.5 L62.45 36.35" fill="#052e70" fill-rule="evenodd" stroke="none"/>
    <path d="M58.55 33.95 Q58.55 35.2 57.65 36.05 56.8 36.95 55.55 36.95 L8.6 36.95 Q7.35 36.95 6.5 36.05 5.6 35.2 5.6 33.95 L5.6 6.9 Q5.6 5.65 6.5 4.8 7.35 3.9 8.6 3.9 L55.55 3.9 Q56.8 3.9 57.65 4.8 58.55 5.65 58.55 6.9 L58.55 33.95" fill="#053aa5" fill-rule="evenodd" stroke="none"/>
    <path d="M49.55 20.9 L44.95 23.15 42.05 23.15 42.05 18.3 44.95 18.3 49.55 20.9" fill="#0859ba" fill-rule="evenodd" stroke="none"/>
    <path d="M14.6 20.9 L19.2 18.3 22.15 18.3 22.15 23.15 19.2 23.15 14.6 20.9" fill="#0859ba" fill-rule="evenodd" stroke="none"/>
    <path d="M42.05 30.5 Q42.05 31.3 41.45 31.9 40.85 32.5 40.05 32.5 L24.15 32.5 Q23.35 32.5 22.75 31.9 22.15 31.35 22.15 30.5 L22.15 10.3 Q22.15 9.5 22.75 8.9 23.35 8.3 24.15 8.3 L40.05 8.3 Q40.85 8.3 41.45 8.9 42.05 9.5 42.05 10.3 L42.05 30.5" fill="#0958d6" fill-rule="evenodd" stroke="none"/>
    <path d="M32.6 39.35 L31.65 39.35 31.65 1.5 32.6 1.5 32.6 39.35" fill="#041538" fill-rule="evenodd" stroke="none"/>
    <path d="M36.0 10.0 L36.0 30.85 32.6 26.8 32.6 14.05 36.0 10.0" fill="#1c74f4" fill-rule="evenodd" stroke="none"/>
    <path d="M28.3 10.0 L31.65 14.05 31.65 26.8 28.3 30.85 28.3 10.0" fill="#1c74f4" fill-rule="evenodd" stroke="none"/>
  </g>
</svg>
