<?xml version="1.0" encoding="UTF-8" standalone="no"?>
<svg xmlns:ffdec="https://www.free-decompiler.com/flash" xmlns:xlink="http://www.w3.org/1999/xlink" ffdec:objectType="shape" height="31.05px" width="60.9px" xmlns="http://www.w3.org/2000/svg">
  <g transform="matrix(1.0, 0.0, 0.0, 1.0, -10.65, -0.05)">
    <path d="M59.45 28.45 Q58.8 29.55 57.5 30.3 56.2 31.1 54.95 31.1 L26.3 31.1 Q25.05 31.1 23.75 30.3 22.45 29.5 21.9 28.4 L11.05 7.4 Q10.5 6.3 10.7 4.9 10.9 3.5 11.8 2.65 L12.25 2.15 14.65 0.65 Q16.15 0.05 17.4 0.05 L63.65 0.05 Q64.9 0.05 66.45 0.6 68.05 1.1 69.0 1.9 L70.3 2.9 Q71.25 3.65 71.5 5.0 71.75 6.3 71.15 7.35 L59.45 28.45" fill="url(#gradient0)" fill-rule="evenodd" stroke="none"/>
    <path d="M48.9 3.4 L53.15 2.8 Q54.35 2.2 57.45 2.2 L58.6 2.2 61.35 2.8 Q62.85 3.45 63.7 4.3 L64.25 4.8 Q65.1 5.65 65.3 7.05 65.5 8.45 64.9 9.5 L56.1 25.35 Q55.5 26.45 54.15 27.2 52.85 28.0 51.6 28.0 L51.15 28.0 47.25 27.45 Q46.25 26.9 43.3 26.9 L38.4 26.9 Q35.35 26.9 34.6 27.45 33.8 28.0 30.75 28.0 L29.85 28.0 Q28.6 28.0 27.35 27.2 26.05 26.45 25.45 25.35 L17.3 9.55 Q16.75 8.45 16.9 7.0 17.0 5.5 17.8 4.55 L17.85 4.5 Q18.6 3.55 20.05 2.9 21.45 2.2 22.7 2.2 L25.2 2.2 Q28.25 2.2 29.6 2.8 31.1 3.4 34.0 3.4 L48.9 3.4" fill="#2b2b2a" fill-rule="evenodd" stroke="none"/>
    <path d="M55.5 4.8 L57.35 5.15 Q58.4 5.5 59.05 6.0 L59.85 6.65 Q60.5 7.15 60.65 8.0 60.8 8.9 60.4 9.6 L52.8 23.35 51.5 24.55 Q50.65 25.05 49.8 25.05 L31.15 25.05 Q30.35 25.05 29.5 24.55 28.65 24.0 28.25 23.3 L21.15 9.65 Q20.8 8.9 20.95 8.0 21.1 7.05 21.65 6.45 L21.9 6.2 Q22.5 5.6 23.5 5.2 24.5 4.8 25.35 4.8 L55.5 4.8" fill="#03287a" fill-rule="evenodd" stroke="none"/>
    <path d="M55.5 4.8 L25.35 4.8 Q24.5 4.8 23.5 5.2 22.5 5.6 21.9 6.2 L21.65 6.45 Q21.1 7.05 20.95 8.0 20.8 8.9 21.15 9.65 L28.25 23.3 Q28.65 24.0 29.5 24.55 30.35 25.05 31.15 25.05 L49.8 25.05 Q50.65 25.05 51.5 24.55 L52.8 23.35 60.4 9.6 Q60.8 8.9 60.65 8.0 60.5 7.15 59.85 6.65 L59.05 6.0 Q58.4 5.5 57.35 5.15 L55.5 4.8 Z" fill="none" stroke="#069aff" stroke-linecap="butt" stroke-linejoin="miter-clip" stroke-miterlimit="4.0" stroke-width="1.0"/>
    <path d="M43.55 18.5 L39.3 21.25 Q38.45 22.15 37.15 21.95 35.8 21.8 34.6 20.6 33.3 19.35 32.9 17.6 32.5 15.85 33.25 14.7 33.65 14.1 34.4 13.75 L39.05 10.65 43.55 18.5" fill="#0074ff" fill-rule="evenodd" stroke="none"/>
    <path d="M37.75 11.65 Q38.55 10.45 40.0 10.55 41.5 10.6 42.8 11.9 44.15 13.2 44.55 14.95 44.9 16.7 44.15 17.9 43.35 19.05 41.9 19.0 40.4 18.9 39.1 17.6 37.8 16.3 37.4 14.55 37.0 12.8 37.75 11.65" fill="#0bb4ff" fill-rule="evenodd" stroke="none"/>
    <path d="M37.75 11.65 Q37.0 12.8 37.4 14.55 37.8 16.3 39.1 17.6 40.4 18.9 41.9 19.0 43.35 19.05 44.15 17.9 44.9 16.7 44.55 14.95 44.15 13.2 42.8 11.9 41.5 10.6 40.0 10.55 38.55 10.45 37.75 11.65 Z" ffdec:has-small-stroke="true" ffdec:original-stroke-width="0.5" fill="none" stroke="#00e1ff" stroke-linecap="butt" stroke-linejoin="miter-clip" stroke-miterlimit="4.0" stroke-width="1.0"/>
    <path d="M39.35 12.6 Q39.8 11.85 40.7 11.9 41.6 11.95 42.45 12.75 43.3 13.55 43.5 14.6 43.75 15.7 43.25 16.45 42.8 17.15 41.9 17.1 41.0 17.05 40.15 16.25 39.35 15.45 39.1 14.4 38.85 13.3 39.35 12.6" fill="#0650bc" fill-rule="evenodd" stroke="none"/>
    <path d="M49.5 10.9 Q49.5 11.9 48.8 12.6 48.05 13.3 47.05 13.3 46.05 13.3 45.35 12.6 44.65 11.9 44.65 10.9 44.65 9.9 45.35 9.15 46.05 8.45 47.05 8.45 48.05 8.45 48.8 9.15 49.5 9.9 49.5 10.9" fill="url(#gradient1)" fill-rule="evenodd" stroke="none"/>
    <path d="M49.5 10.9 Q49.5 11.9 48.8 12.6 48.05 13.3 47.05 13.3 46.05 13.3 45.35 12.6 44.65 11.9 44.65 10.9 44.65 9.9 45.35 9.15 46.05 8.45 47.05 8.45 48.05 8.45 48.8 9.15 49.5 9.9 49.5 10.9 Z" ffdec:has-small-stroke="true" ffdec:original-stroke-width="0.5" fill="none" stroke="#00ffff" stroke-linecap="butt" stroke-linejoin="miter-clip" stroke-miterlimit="4.0" stroke-width="1.0"/>
  </g>
  <defs>
    <linearGradient gradientTransform="matrix(0.0, -0.019, 0.019, 0.0, 41.1, 15.55)" gradientUnits="userSpaceOnUse" id="gradient0" spreadMethod="pad" x1="-819.2" x2="819.2">
      <stop offset="0.0" stop-color="#373737"/>
      <stop offset="0.6549019607843137" stop-color="#a4a4a4"/>
      <stop offset="0.803921568627451" stop-color="#a4a4a4"/>
      <stop offset="1.0" stop-color="#6b6b6b"/>
    </linearGradient>
    <radialGradient cx="0" cy="0" gradientTransform="matrix(0.0029, 0.0, 0.0, -0.0029, 47.05, 10.9)" gradientUnits="userSpaceOnUse" id="gradient1" r="819.2" spreadMethod="pad">
      <stop offset="0.0" stop-color="#2b9eff"/>
      <stop offset="0.2901960784313726" stop-color="#2ca1ff"/>
      <stop offset="0.47843137254901963" stop-color="#31a9ff"/>
      <stop offset="0.6392156862745098" stop-color="#38b8ff"/>
      <stop offset="0.7803921568627451" stop-color="#43cdff"/>
      <stop offset="0.9137254901960784" stop-color="#51e8ff"/>
      <stop offset="1.0" stop-color="#5cffff"/>
    </radialGradient>
  </defs>
</svg>
