<?xml version="1.0" encoding="UTF-8" standalone="no"?>
<svg xmlns:ffdec="https://www.free-decompiler.com/flash" xmlns:xlink="http://www.w3.org/1999/xlink" ffdec:objectType="shape" height="335.25px" width="272.8px" xmlns="http://www.w3.org/2000/svg">
  <g transform="matrix(1.0, 0.0, 0.0, 1.0, 274.95, 177.0)">
    <path d="M-55.0 -175.5 L-50.8 -176.55 -46.15 -177.0 -7.15 -177.0 Q-5.1 -177.0 -3.6 -175.55 -2.15 -174.05 -2.15 -172.0 L-2.15 -143.4 Q-2.15 -141.35 -2.55 -139.4 -2.95 -137.5 -3.5 -136.9 -4.05 -136.25 -4.45 -134.35 -4.85 -132.45 -4.85 -130.4 L-4.85 107.35 Q-4.85 109.4 -4.45 111.3 -4.05 113.2 -3.5 113.85 -2.95 114.45 -2.55 116.35 -2.15 118.3 -2.15 120.35 L-2.15 153.25 Q-2.15 155.3 -3.6 156.8 -5.1 158.25 -7.15 158.25 L-63.65 158.25 -67.45 158.0 Q-69.2 157.75 -69.55 157.4 -69.9 157.05 -71.6 156.8 L-75.4 156.55 -200.85 156.55 -204.7 156.8 Q-206.45 157.05 -206.9 157.4 -207.35 157.75 -209.1 158.0 L-212.95 158.25 -269.95 158.25 Q-272.0 158.25 -273.5 156.8 -274.95 155.3 -274.95 153.25 L-274.95 100.35 Q-274.95 98.3 -274.5 96.35 -274.05 94.45 -273.45 93.85 -272.8 93.2 -272.4 91.3 -271.95 89.45 -271.95 87.35 L-271.95 -110.4 Q-271.95 -112.5 -272.4 -114.35 -272.8 -116.25 -273.45 -116.9 -274.05 -117.5 -274.5 -119.4 -274.95 -121.35 -274.95 -123.4 L-274.95 -172.0 Q-274.95 -174.05 -273.5 -175.55 -272.0 -177.0 -269.95 -177.0 L-234.1 -177.0 -229.3 -176.55 -224.75 -175.5 -220.25 -174.45 -215.45 -174.0 -63.85 -174.0 -59.2 -174.45 Q-56.6 -174.9 -55.0 -175.5" fill="url(#gradient0)" fill-rule="evenodd" stroke="none"/>
    <path d="M-12.65 -150.8 L-12.65 137.9 Q-12.65 139.55 -13.8 140.75 -15.0 141.9 -16.65 141.9 L-260.55 141.9 Q-262.2 141.9 -263.35 140.75 -264.55 139.55 -264.55 137.9 L-264.55 -150.8 Q-264.55 -152.45 -263.35 -153.6 -262.2 -154.8 -260.55 -154.8 L-16.65 -154.8 Q-15.0 -154.8 -13.8 -153.6 -12.65 -152.45 -12.65 -150.8" fill="url(#gradient1)" fill-rule="evenodd" stroke="none"/>
    <path d="M-16.65 -145.8 L-16.65 131.75 Q-16.65 133.8 -18.1 135.3 -19.6 136.75 -21.65 136.75 L-255.55 136.75 Q-257.6 136.75 -259.1 135.3 -260.55 133.8 -260.55 131.75 L-260.55 -145.8 Q-260.55 -147.85 -259.1 -149.35 -257.6 -150.8 -255.55 -150.8 L-21.65 -150.8 Q-19.6 -150.8 -18.1 -149.35 -16.65 -147.85 -16.65 -145.8" fill="#0b0d11" fill-rule="evenodd" stroke="none"/>
    <path d="M-20.9 137.45 L-16.15 132.75 -16.15 111.95 -11.55 116.6 -11.55 136.1 -18.35 142.9 -38.35 142.9 -43.8 137.45 -20.9 137.45 Z" fill="none" stroke="#181919" stroke-linecap="butt" stroke-linejoin="miter-clip" stroke-miterlimit="4.0" stroke-width="2.0"/>
    <path d="M-20.9 137.45 L-16.15 132.75 -16.15 111.95 -11.55 116.6 -11.55 136.1 -18.35 142.9 -38.35 142.9 -43.8 137.45 -20.9 137.45" fill="#717272" fill-rule="evenodd" stroke="none"/>
    <path d="M-261.25 111.95 L-265.9 116.6 -265.9 136.1 -259.05 142.9 -239.05 142.9 -233.6 137.45 -256.55 137.45 -261.25 132.75 -261.25 111.95 Z" fill="none" stroke="#181919" stroke-linecap="butt" stroke-linejoin="miter-clip" stroke-miterlimit="4.0" stroke-width="2.0"/>
    <path d="M-261.25 111.95 L-261.25 132.75 -256.55 137.45 -233.6 137.45 -239.05 142.9 -259.05 142.9 -265.9 136.1 -265.9 116.6 -261.25 111.95" fill="#717272" fill-rule="evenodd" stroke="none"/>
    <path d="M-80.0 146.35 L-194.7 146.35 -205.05 156.7 -69.6 156.7 -80.0 146.35 Z" fill="none" stroke="#181919" stroke-linecap="butt" stroke-linejoin="miter-clip" stroke-miterlimit="4.0" stroke-width="2.0"/>
    <path d="M-80.0 146.35 L-69.6 156.7 -205.05 156.7 -194.7 146.35 -80.0 146.35" fill="#1e1e1e" fill-rule="evenodd" stroke="none"/>
    <path d="M-170.3 -158.7 L-106.3 -158.7 -102.35 -154.75 -174.25 -154.75 -170.3 -158.7" fill="#494949" fill-rule="evenodd" stroke="none"/>
    <path d="M-170.3 -158.7 L-174.25 -154.75 -102.35 -154.75 -106.3 -158.7 -170.3 -158.7 Z" fill="none" stroke="#181919" stroke-linecap="butt" stroke-linejoin="miter-clip" stroke-miterlimit="4.0" stroke-width="2.0"/>
    <path d="M-103.55 -164.8 L-94.25 -156.45 Q-93.35 -155.6 -93.55 -155.05 -93.75 -154.45 -95.0 -154.45 L-180.6 -154.45 Q-181.85 -154.45 -182.1 -155.05 -182.35 -155.7 -181.45 -156.55 L-173.25 -164.7 -170.85 -166.2 Q-169.35 -166.8 -168.1 -166.8 L-108.8 -166.8 Q-107.55 -166.8 -106.0 -166.2 -104.5 -165.6 -103.55 -164.8" fill="url(#gradient2)" fill-rule="evenodd" stroke="none"/>
  </g>
  <defs>
    <linearGradient gradientTransform="matrix(0.0, -0.2046, -0.2046, 0.0, -138.55, -9.35)" gradientUnits="userSpaceOnUse" id="gradient0" spreadMethod="pad" x1="-819.2" x2="819.2">
      <stop offset="0.0" stop-color="#505050"/>
      <stop offset="0.10980392156862745" stop-color="#282828"/>
      <stop offset="0.9058823529411765" stop-color="#a4a4a4"/>
      <stop offset="1.0" stop-color="#373737"/>
    </linearGradient>
    <linearGradient gradientTransform="matrix(0.0, -0.1811, -0.1811, 0.0, -138.6, -6.45)" gradientUnits="userSpaceOnUse" id="gradient1" spreadMethod="pad" x1="-819.2" x2="819.2">
      <stop offset="0.0" stop-color="#505050"/>
      <stop offset="1.0" stop-color="#393939"/>
    </linearGradient>
    <linearGradient gradientTransform="matrix(0.0541, 0.0, 0.0, -0.0541, -137.85, -160.65)" gradientUnits="userSpaceOnUse" id="gradient2" spreadMethod="pad" x1="-819.2" x2="819.2">
      <stop offset="0.0" stop-color="#373737"/>
      <stop offset="0.13333333333333333" stop-color="#4e4e4e"/>
      <stop offset="0.9058823529411765" stop-color="#4e4e4e"/>
      <stop offset="1.0" stop-color="#282828"/>
    </linearGradient>
  </defs>
</svg>
