<?xml version="1.0" encoding="UTF-8" standalone="no"?>
<svg xmlns:ffdec="https://www.free-decompiler.com/flash" xmlns:xlink="http://www.w3.org/1999/xlink" ffdec:objectType="shape" height="111.35px" width="261.85px" xmlns="http://www.w3.org/2000/svg">
  <g transform="matrix(1.0, 0.0, 0.0, 1.0, 0.0, 0.0)">
    <path d="M261.35 17.55 L261.35 97.75 Q261.35 98.9 260.75 100.25 260.15 101.65 259.35 102.4 L252.4 108.9 250.1 110.25 Q248.65 110.85 247.55 110.85 L173.35 110.85 170.9 110.3 Q169.6 109.75 168.9 109.0 168.1 108.05 166.6 107.45 165.1 106.8 163.75 106.8 L96.8 106.8 Q95.45 106.8 93.95 107.45 92.4 108.05 91.55 109.0 90.85 109.75 89.5 110.3 L87.0 110.85 12.95 110.85 10.35 110.3 Q8.85 109.75 8.05 108.95 L2.55 104.05 Q1.75 103.3 1.1 101.9 0.5 100.55 0.5 99.4 L0.5 6.55 Q0.5 5.4 1.0 4.1 1.45 2.8 2.1 2.15 L4.1 1.0 Q5.4 0.5 6.5 0.5 L243.95 0.5 Q245.1 0.5 246.55 1.1 247.95 1.65 248.75 2.45 L259.35 12.85 Q260.15 13.65 260.75 15.05 261.35 16.4 261.35 17.55" fill="url(#gradient0)" fill-rule="evenodd" stroke="none"/>
    <path d="M248.4 2.8 Q247.65 2.1 246.35 1.55 245.0 1.0 243.95 1.0 L6.5 1.0 4.25 1.45 Q3.05 1.9 2.45 2.5 1.9 3.05 1.45 4.3 1.0 5.5 1.0 6.55 L1.0 99.4 Q1.0 100.4 1.6 101.7 2.15 103.0 2.9 103.65 L8.35 108.6 Q9.15 109.3 10.5 109.8 L12.95 110.35 87.0 110.35 89.3 109.85 Q90.55 109.35 91.2 108.65 92.1 107.7 93.75 107.0 95.4 106.3 96.8 106.3 L163.75 106.3 Q165.2 106.3 166.8 107.0 168.4 107.65 169.3 108.65 L171.1 109.85 173.35 110.35 247.55 110.35 249.9 109.8 Q251.25 109.25 252.05 108.55 L259.0 102.05 Q259.75 101.35 260.3 100.05 260.85 98.75 260.85 97.75 L260.85 17.55 Q260.85 16.55 260.3 15.25 259.75 13.9 259.0 13.2 L248.4 2.8 M243.95 0.0 Q245.2 0.0 246.7 0.6 248.25 1.25 249.1 2.1 L259.7 12.45 Q260.6 13.3 261.25 14.8 261.85 16.3 261.85 17.55 L261.85 97.75 Q261.85 99.0 261.2 100.45 260.6 101.95 259.65 102.8 L252.7 109.3 250.3 110.75 247.55 111.35 173.35 111.35 Q172.1 111.35 170.7 110.75 169.3 110.15 168.55 109.3 167.8 108.5 166.4 107.9 165.0 107.3 163.75 107.3 L96.8 107.3 Q95.55 107.3 94.15 107.9 92.7 108.5 91.9 109.3 91.1 110.15 89.7 110.75 88.25 111.35 87.0 111.35 L12.95 111.35 Q11.7 111.35 10.2 110.75 8.65 110.2 7.7 109.35 L2.25 104.4 Q1.3 103.6 0.65 102.1 0.0 100.65 0.0 99.4 L0.0 6.55 Q0.0 5.3 0.5 3.9 1.05 2.5 1.75 1.8 2.5 1.05 3.9 0.55 5.25 0.0 6.5 0.0 L243.95 0.0" fill="#008fff" fill-rule="evenodd" stroke="none"/>
  </g>
  <defs>
    <linearGradient gradientTransform="matrix(0.0, -0.0673, -0.0673, 0.0, 130.95, 55.65)" gradientUnits="userSpaceOnUse" id="gradient0" spreadMethod="pad" x1="-819.2" x2="819.2">
      <stop offset="0.0" stop-color="#004e9c"/>
      <stop offset="0.1803921568627451" stop-color="#00438a"/>
      <stop offset="0.48627450980392156" stop-color="#003472"/>
      <stop offset="0.7647058823529411" stop-color="#002b63"/>
      <stop offset="1.0" stop-color="#00285e"/>
    </linearGradient>
  </defs>
</svg>
