<?xml version="1.0" encoding="UTF-8" standalone="no"?>
<svg xmlns:ffdec="https://www.free-decompiler.com/flash" xmlns:xlink="http://www.w3.org/1999/xlink" ffdec:objectType="shape" height="79.3px" width="28.45px" xmlns="http://www.w3.org/2000/svg">
  <g transform="matrix(1.0, 0.0, 0.0, 1.0, 12.4, 36.95)">
    <path d="M-1.0 -34.85 L-1.0 40.3 Q-1.0 41.55 -1.8 42.05 L-3.75 42.1 -9.65 39.45 Q-10.8 38.95 -11.6 37.75 -12.4 36.5 -12.4 35.25 L-12.4 25.95 Q-12.4 24.7 -11.8 23.4 -11.15 22.1 -10.3 21.5 -9.45 20.9 -8.8 19.6 -8.2 18.3 -8.2 17.05 L-8.2 -12.0 Q-8.2 -13.25 -8.8 -14.55 -9.45 -15.9 -10.3 -16.55 -11.15 -17.2 -11.8 -18.5 -12.4 -19.85 -12.4 -21.1 L-12.4 -30.6 Q-12.4 -31.85 -11.6 -33.0 -10.75 -34.2 -9.6 -34.65 L-3.8 -36.8 -1.8 -36.65 Q-1.0 -36.1 -1.0 -34.85" fill="url(#gradient0)" fill-rule="evenodd" stroke="none"/>
    <path d="M5.1 -29.2 L7.8 -24.25 -1.3 -28.25 -1.3 -31.3 5.1 -29.2" fill="#29292b" fill-rule="evenodd" stroke="none"/>
    <path d="M5.1 33.3 L-1.3 35.35 -1.3 32.35 7.8 28.35 5.1 33.3" fill="#29292b" fill-rule="evenodd" stroke="none"/>
    <path d="M5.0 -26.65 Q6.15 -26.2 7.0 -25.0 7.8 -23.85 7.8 -22.6 L7.8 26.7 Q7.8 27.95 7.0 29.15 6.2 30.35 5.05 30.85 L1.45 32.35 -0.5 32.3 Q-1.3 31.75 -1.3 30.5 L-1.3 -26.0 Q-1.3 -27.25 -0.5 -27.8 L1.5 -27.95 5.0 -26.65" fill="url(#gradient1)" fill-rule="evenodd" stroke="none"/>
    <path d="M-1.3 -29.0 L-0.5 -28.7 -0.5 33.15 -1.3 33.5 -1.3 -29.0" fill="#595657" fill-rule="evenodd" stroke="none"/>
    <path d="M4.8 -26.55 L5.4 -26.2 5.4 30.65 4.8 30.95 4.8 -26.55" fill="#474647" fill-rule="evenodd" stroke="none"/>
    <path d="M4.2 -26.8 L4.8 -26.55 4.8 30.9 4.2 31.2 4.2 -26.8" fill="#1e1d1f" fill-rule="evenodd" stroke="none"/>
    <path d="M6.4 -15.75 L15.05 -7.85 15.05 13.25 6.4 21.15 -1.1 22.15 -1.1 -16.7 6.4 -15.75" fill="url(#gradient2)" fill-rule="evenodd" stroke="none"/>
    <path d="M6.4 -15.75 L-1.1 -16.7 -1.1 22.15 6.4 21.15 15.05 13.25 15.05 -7.85 6.4 -15.75 M6.55 -16.7 L6.85 -16.7 16.05 -8.25 16.05 13.7 6.85 22.1 6.55 22.1 -2.1 23.3 -2.1 -17.85 6.55 -16.7" fill="#0d0d0f" fill-rule="evenodd" stroke="none"/>
    <path d="M-1.1 -16.7 L2.15 -16.3 2.15 21.75 -1.1 22.15 -1.1 -16.7" fill="#484949" fill-rule="evenodd" stroke="none"/>
    <path d="M3.6 -13.35 L6.4 -13.05 7.4 -12.1 13.35 -5.45 13.35 10.9 7.4 17.55 6.4 18.5 3.6 18.9 2.3 18.0 2.3 10.05 2.75 9.3 2.75 -3.75 2.3 -4.4 2.3 -12.45 3.6 -13.35" fill="#171819" fill-rule="evenodd" stroke="none"/>
    <path d="M2.85 10.4 L2.85 17.55 -1.2 18.45 -1.2 10.4 2.85 10.4" fill="#626363" fill-rule="evenodd" stroke="none"/>
    <path d="M-0.5 10.4 L-0.5 18.3 -1.2 18.45 -1.2 10.4 -0.5 10.4" fill="#c1bda1" fill-rule="evenodd" stroke="none"/>
    <path d="M-1.2 -12.75 L2.85 -11.9 2.85 -4.75 -1.2 -4.75 -1.2 -12.75" fill="#626363" fill-rule="evenodd" stroke="none"/>
    <path d="M-1.2 -12.75 L-0.5 -12.65 -0.5 -4.75 -1.2 -4.75 -1.2 -12.75" fill="#c1bda1" fill-rule="evenodd" stroke="none"/>
    <path d="M-0.3 -3.9 L-0.3 9.35 -1.1 9.35 -1.1 -3.9 -0.3 -3.9" fill="#7e7f75" fill-rule="evenodd" stroke="none"/>
  </g>
  <defs>
    <linearGradient gradientTransform="matrix(-0.007, 0.0, 0.0, -0.007, -6.7, 2.7)" gradientUnits="userSpaceOnUse" id="gradient0" spreadMethod="pad" x1="-819.2" x2="819.2">
      <stop offset="0.00392156862745098" stop-color="#292929"/>
      <stop offset="0.09411764705882353" stop-color="#404242"/>
      <stop offset="0.3803921568627451" stop-color="#606165"/>
      <stop offset="0.9411764705882353" stop-color="#a8a8b3"/>
      <stop offset="1.0" stop-color="#454647"/>
    </linearGradient>
    <linearGradient gradientTransform="matrix(-0.0056, 0.0, 0.0, 0.0056, 3.25, 2.2)" gradientUnits="userSpaceOnUse" id="gradient1" spreadMethod="pad" x1="-819.2" x2="819.2">
      <stop offset="0.0" stop-color="#2c2e32"/>
      <stop offset="1.0" stop-color="#383b3c"/>
    </linearGradient>
    <linearGradient gradientTransform="matrix(-0.0098, 0.0, 0.0, 0.0098, 7.0, 2.7)" gradientUnits="userSpaceOnUse" id="gradient2" spreadMethod="pad" x1="-819.2" x2="819.2">
      <stop offset="0.0" stop-color="#1d1e1f"/>
      <stop offset="1.0" stop-color="#2b2e2f"/>
    </linearGradient>
  </defs>
</svg>
