<?xml version="1.0" encoding="UTF-8" standalone="no"?>
<svg xmlns:ffdec="https://www.free-decompiler.com/flash" xmlns:xlink="http://www.w3.org/1999/xlink" ffdec:objectType="shape" height="26.65px" width="101.25px" xmlns="http://www.w3.org/2000/svg">
  <g transform="matrix(1.0, 0.0, 0.0, 1.0, -15.2, -15.7)">
    <path d="M94.35 41.85 L29.75 41.85 27.7 41.45 25.9 40.4 16.5 32.1 Q15.75 31.4 15.65 30.4 15.65 29.3 16.3 28.6 L26.0 17.85 Q26.65 17.15 27.75 16.65 28.8 16.2 29.75 16.2 L114.35 16.2 Q115.5 16.2 115.85 16.95 116.25 17.6 115.5 18.55 L98.0 40.1 96.35 41.35 94.35 41.85" fill="url(#gradient0)" fill-rule="evenodd" stroke="none"/>
    <path d="M116.3 16.7 Q116.75 17.75 115.9 18.9 L98.4 40.45 Q97.7 41.25 96.55 41.8 L94.35 42.35 29.75 42.35 27.5 41.9 Q26.3 41.45 25.55 40.8 L16.2 32.5 Q15.2 31.6 15.2 30.4 15.1 29.15 15.95 28.25 L25.65 17.5 Q26.35 16.75 27.55 16.25 28.7 15.7 29.75 15.7 L114.35 15.7 Q115.8 15.7 116.3 16.7 M115.1 18.25 Q115.65 17.6 115.4 17.15 115.2 16.7 114.35 16.7 L29.75 16.7 Q28.9 16.7 27.95 17.15 26.95 17.55 26.4 18.2 L16.7 28.9 Q16.15 29.55 16.2 30.35 16.2 31.2 16.85 31.75 L26.25 40.05 Q26.85 40.6 27.9 40.95 28.95 41.35 29.75 41.35 L94.35 41.35 96.15 40.9 97.6 39.8 115.1 18.25" fill="#29abe2" fill-rule="evenodd" stroke="none"/>
  </g>
  <defs>
    <linearGradient gradientTransform="matrix(0.0612, 0.0, 0.0, -0.0612, 65.8, 29.05)" gradientUnits="userSpaceOnUse" id="gradient0" spreadMethod="pad" x1="-819.2" x2="819.2">
      <stop offset="0.0" stop-color="#008cff"/>
      <stop offset="0.18823529411764706" stop-color="#0089fb" stop-opacity="0.96862745"/>
      <stop offset="0.36470588235294116" stop-color="#0081f0" stop-opacity="0.8784314"/>
      <stop offset="0.5372549019607843" stop-color="#0074dd" stop-opacity="0.7294118"/>
      <stop offset="0.7058823529411765" stop-color="#0061c2" stop-opacity="0.5176471"/>
      <stop offset="0.8705882352941177" stop-color="#004aa0" stop-opacity="0.2509804"/>
      <stop offset="1.0" stop-color="#003380" stop-opacity="0.0"/>
    </linearGradient>
  </defs>
</svg>
