<?xml version="1.0" encoding="UTF-8" standalone="no"?>
<svg xmlns:ffdec="https://www.free-decompiler.com/flash" xmlns:xlink="http://www.w3.org/1999/xlink" ffdec:objectType="shape" height="26.65px" width="101.3px" xmlns="http://www.w3.org/2000/svg">
  <g transform="matrix(1.0, 0.0, 0.0, 1.0, -15.35, -15.7)">
    <path d="M102.1 41.85 L37.45 41.85 35.45 41.35 33.8 40.1 16.35 18.55 Q15.65 17.75 15.95 16.95 16.35 16.2 17.45 16.2 L102.1 16.2 Q103.05 16.2 104.1 16.65 L105.8 17.85 115.5 28.6 Q116.2 29.4 116.15 30.4 116.05 31.4 115.3 32.1 L105.9 40.4 104.1 41.45 102.1 41.85" fill="url(#gradient0)" fill-rule="evenodd" stroke="none"/>
    <path d="M105.45 18.2 Q104.9 17.55 103.9 17.15 L102.1 16.7 17.45 16.7 Q16.65 16.7 16.4 17.15 16.2 17.6 16.7 18.25 L34.2 39.8 Q34.75 40.45 35.7 40.9 36.65 41.35 37.45 41.35 L102.1 41.35 103.95 40.95 105.6 40.05 115.0 31.75 Q115.6 31.2 115.65 30.35 115.7 29.55 115.15 28.9 L105.45 18.2 M102.1 15.7 Q103.15 15.7 104.3 16.25 105.45 16.75 106.15 17.5 L115.9 28.25 Q116.7 29.25 116.65 30.4 116.55 31.65 115.65 32.5 L106.25 40.8 Q105.5 41.45 104.3 41.9 L102.1 42.35 37.45 42.35 Q36.4 42.35 35.25 41.8 L33.45 40.45 15.95 18.9 Q15.05 17.8 15.5 16.7 16.0 15.7 17.45 15.7 L102.1 15.7" fill="#29abe2" fill-rule="evenodd" stroke="none"/>
  </g>
  <defs>
    <linearGradient gradientTransform="matrix(0.0612, 0.0, 0.0, -0.0612, 66.0, 29.05)" gradientUnits="userSpaceOnUse" id="gradient0" spreadMethod="pad" x1="-819.2" x2="819.2">
      <stop offset="0.00392156862745098" stop-color="#0059c2" stop-opacity="0.8"/>
      <stop offset="0.09803921568627451" stop-color="#0064d0" stop-opacity="0.84313726"/>
      <stop offset="0.3607843137254902" stop-color="#0081f2" stop-opacity="0.95686275"/>
      <stop offset="0.5058823529411764" stop-color="#008cff"/>
      <stop offset="0.6196078431372549" stop-color="#0087f9" stop-opacity="0.98039216"/>
      <stop offset="0.7725490196078432" stop-color="#0079e8" stop-opacity="0.92156863"/>
      <stop offset="0.9450980392156862" stop-color="#0062cd" stop-opacity="0.83137256"/>
      <stop offset="1.0" stop-color="#0059c2" stop-opacity="0.8"/>
    </linearGradient>
  </defs>
</svg>
