<?xml version="1.0" encoding="UTF-8" standalone="no"?>
<svg xmlns:ffdec="https://www.free-decompiler.com/flash" xmlns:xlink="http://www.w3.org/1999/xlink" ffdec:objectType="shape" height="19.3px" width="81.2px" xmlns="http://www.w3.org/2000/svg">
  <g transform="matrix(1.0, 0.0, 0.0, 1.0, -13.75, -2.7)">
    <path d="M13.75 3.85 L94.95 3.85 94.95 2.7 13.75 2.7 13.75 3.85" fill="url(#gradient0)" fill-rule="evenodd" stroke="none"/>
    <path d="M57.75 18.7 L40.3 18.7 40.3 17.55 57.75 17.55 57.75 18.7" fill="#5ffefe" fill-rule="evenodd" stroke="none"/>
    <path d="M57.75 20.35 L40.3 20.35 40.3 19.25 57.75 19.25 57.75 20.35" fill="#0bfdfd" fill-rule="evenodd" stroke="none"/>
    <path d="M57.75 22.0 L40.3 22.0 40.3 20.85 57.75 20.85 57.75 22.0" fill="#02e3e3" fill-rule="evenodd" stroke="none"/>
    <path d="M64.15 12.7 L57.75 12.7 57.75 16.85 40.3 16.85 40.3 12.7 33.9 12.7 49.75 6.35 64.15 12.7" fill="#78ffff" fill-rule="evenodd" stroke="none"/>
  </g>
  <defs>
    <linearGradient gradientTransform="matrix(-0.0495, 0.0, 0.0, -0.0495, 54.35, 3.3)" gradientUnits="userSpaceOnUse" id="gradient0" spreadMethod="pad" x1="-819.2" x2="819.2">
      <stop offset="0.0" stop-color="#006bba" stop-opacity="0.0"/>
      <stop offset="0.01568627450980392" stop-color="#0470be" stop-opacity="0.05882353"/>
      <stop offset="0.15294117647058825" stop-color="#1f90da" stop-opacity="0.46666667"/>
      <stop offset="0.2823529411764706" stop-color="#32a7ef" stop-opacity="0.7607843"/>
      <stop offset="0.40784313725490196" stop-color="#3eb5fb" stop-opacity="0.9372549"/>
      <stop offset="0.5137254901960784" stop-color="#42baff"/>
      <stop offset="0.6392156862745098" stop-color="#3fb7fc" stop-opacity="0.95686275"/>
      <stop offset="0.7450980392156863" stop-color="#37adf3" stop-opacity="0.83137256"/>
      <stop offset="0.8392156862745098" stop-color="#299ce5" stop-opacity="0.6156863"/>
      <stop offset="0.9294117647058824" stop-color="#1584d0" stop-opacity="0.31764707"/>
      <stop offset="1.0" stop-color="#006bba" stop-opacity="0.0"/>
    </linearGradient>
  </defs>
</svg>
