<?xml version="1.0" encoding="UTF-8" standalone="no"?>
<svg xmlns:ffdec="https://www.free-decompiler.com/flash" xmlns:xlink="http://www.w3.org/1999/xlink" ffdec:objectType="shape" height="49.0px" width="49.0px" xmlns="http://www.w3.org/2000/svg">
  <g transform="matrix(1.0, 0.0, 0.0, 1.0, 24.5, 24.5)">
    <path d="M24.5 0.0 Q24.5 10.15 17.3 17.35 10.15 24.5 0.0 24.5 -10.15 24.5 -17.35 17.35 -24.5 10.15 -24.5 0.0 -24.5 -10.15 -17.35 -17.3 -10.15 -24.5 0.0 -24.5 10.15 -24.5 17.3 -17.3 24.5 -10.1 24.5 0.0" fill="#ab4208" fill-rule="evenodd" stroke="none"/>
    <path d="M-8.1 -22.1 L-4.0 -23.2 -5.45 -15.5 -2.1 -23.45 2.15 -23.45 -1.25 -16.35 4.05 -23.2 8.15 -22.1 3.0 -16.15 9.9 -21.4 13.6 -19.25 7.1 -14.8 15.1 -18.1 18.15 -15.05 10.7 -12.5 19.25 -13.6 21.4 -9.9 13.55 -9.3 22.15 -8.15 23.25 -4.0 15.5 -5.5 23.5 -2.15 23.5 2.15 16.4 -1.3 23.25 4.0 22.15 8.15 16.15 3.0 21.4 9.85 19.25 13.6 14.85 7.05 18.15 15.05 15.1 18.1 12.5 10.65 13.6 19.25 9.9 21.4 9.35 13.55 8.15 22.1 4.05 23.2 5.5 15.5 2.15 23.45 -2.1 23.45 1.3 16.35 -4.0 23.2 -8.1 22.1 -2.95 16.15 -9.85 21.4 -13.55 19.25 -7.05 14.8 -15.05 18.1 -18.1 15.05 -10.65 12.5 -19.2 13.6 -21.35 9.85 -13.5 9.3 -22.1 8.15 -23.2 4.0 -15.45 5.5 -23.45 2.15 -23.45 -2.15 -16.35 1.3 -23.2 -4.0 -22.1 -8.15 -16.1 -3.0 -21.35 -9.9 -19.2 -13.6 -14.8 -7.05 -18.1 -15.05 -15.05 -18.1 -12.45 -10.65 -13.55 -19.25 -9.85 -21.4 -9.3 -13.55 -8.1 -22.1" fill="#3d1a02" fill-rule="evenodd" stroke="none"/>
    <path d="M0.0 17.4 Q-7.2 17.4 -12.3 12.3 -17.4 7.2 -17.4 0.0 -17.4 -7.2 -12.3 -12.3 -7.2 -17.4 0.0 -17.4 7.2 -17.4 12.3 -12.3 17.4 -7.2 17.4 0.0 17.4 7.2 12.3 12.3 7.2 17.4 0.0 17.4" fill="url(#gradient0)" fill-rule="evenodd" stroke="none"/>
    <path d="M12.65 -12.65 Q17.9 -7.4 17.9 0.0 17.9 7.45 12.65 12.65 7.45 17.9 0.0 17.9 -7.4 17.9 -12.65 12.65 -17.9 7.45 -17.9 0.0 -17.9 -7.4 -12.65 -12.65 -7.4 -17.9 0.0 -17.9 7.4 -17.9 12.65 -12.65 M0.0 16.9 Q7.0 16.9 11.95 11.95 16.9 7.0 16.9 0.0 16.9 -6.95 11.95 -11.95 7.0 -16.9 0.0 -16.9 -6.95 -16.9 -11.95 -11.95 -16.9 -6.95 -16.9 0.0 -16.9 7.0 -11.95 11.95 -6.95 16.9 0.0 16.9" fill="#aa5d0f" fill-rule="evenodd" stroke="none"/>
  </g>
  <defs>
    <radialGradient cx="0" cy="0" gradientTransform="matrix(0.0212, 0.0, 0.0, -0.0212, 0.0, 0.0)" gradientUnits="userSpaceOnUse" id="gradient0" r="819.2" spreadMethod="pad">
      <stop offset="0.0" stop-color="#c25e07"/>
      <stop offset="0.16862745098039217" stop-color="#bc5a06"/>
      <stop offset="0.396078431372549" stop-color="#ab5005"/>
      <stop offset="0.6509803921568628" stop-color="#8f3f02"/>
      <stop offset="0.8588235294117647" stop-color="#732e00"/>
      <stop offset="1.0" stop-color="#783800"/>
    </radialGradient>
  </defs>
</svg>
