<?xml version="1.0" encoding="UTF-8" standalone="no"?>
<svg xmlns:ffdec="https://www.free-decompiler.com/flash" xmlns:xlink="http://www.w3.org/1999/xlink" ffdec:objectType="shape" height="21.55px" width="21.0px" xmlns="http://www.w3.org/2000/svg">
  <g transform="matrix(1.0, 0.0, 0.0, 1.0, -27.7, -24.1)">
    <path d="M33.45 30.0 Q33.85 27.85 35.45 26.3 36.95 24.8 38.95 24.3 L42.9 24.5 43.55 25.7 40.1 29.15 Q39.6 29.7 40.0 30.7 L40.5 31.35 42.4 32.5 43.8 32.35 47.3 28.85 47.65 29.25 48.35 30.45 Q48.95 32.4 48.5 34.4 48.05 36.45 46.55 37.9 45.0 39.45 42.9 39.9 L38.85 39.65 32.65 45.65 28.4 41.25 27.7 40.0 33.8 34.15 Q33.0 32.15 33.45 30.0" fill="#cc850b" fill-rule="evenodd" stroke="none"/>
    <path d="M40.5 31.3 Q41.45 32.2 42.4 32.5 L43.8 32.35 47.3 28.85 47.65 29.25 Q48.25 31.15 47.8 33.15 47.35 35.2 45.85 36.7 44.35 38.2 42.25 38.65 L38.2 38.4 31.95 44.4 27.7 40.0 33.8 34.15 Q33.0 32.15 33.45 30.0 33.85 27.85 35.45 26.3 36.95 24.8 38.95 24.3 L42.9 24.5 39.4 27.95 Q38.95 28.45 39.3 29.45 39.7 30.5 40.65 31.5 L40.5 31.3" fill="url(#gradient0)" fill-rule="evenodd" stroke="none"/>
  </g>
  <defs>
    <linearGradient gradientTransform="matrix(0.0128, -0.0049, -0.0049, -0.0128, 37.3, 33.65)" gradientUnits="userSpaceOnUse" id="gradient0" spreadMethod="pad" x1="-819.2" x2="819.2">
      <stop offset="0.0" stop-color="#ff7d2b"/>
      <stop offset="0.14901960784313725" stop-color="#ffa41f"/>
      <stop offset="0.5137254901960784" stop-color="#ffff03"/>
      <stop offset="0.6431372549019608" stop-color="#fffb03"/>
      <stop offset="0.7647058823529411" stop-color="#fff002"/>
      <stop offset="0.8823529411764706" stop-color="#ffdd01"/>
      <stop offset="0.996078431372549" stop-color="#ffc300"/>
      <stop offset="1.0" stop-color="#ffc200"/>
    </linearGradient>
  </defs>
</svg>
