<?xml version="1.0" encoding="UTF-8" standalone="no"?>
<svg xmlns:ffdec="https://www.free-decompiler.com/flash" xmlns:xlink="http://www.w3.org/1999/xlink" ffdec:objectType="shape" height="36.55px" width="36.5px" xmlns="http://www.w3.org/2000/svg">
  <g transform="matrix(1.0, 0.0, 0.0, 1.0, -21.15, -15.15)">
    <path d="M51.95 45.95 Q46.75 51.15 39.4 51.15 32.05 51.15 26.85 45.95 21.65 40.75 21.65 33.4 21.65 26.05 26.85 20.85 32.05 15.65 39.4 15.65 46.75 15.65 51.95 20.85 57.15 26.05 57.15 33.4 57.15 40.75 51.95 45.95" fill="url(#gradient0)" fill-rule="evenodd" stroke="none"/>
    <path d="M57.65 33.4 Q57.65 41.0 52.3 46.3 47.0 51.7 39.4 51.7 31.85 51.7 26.5 46.3 21.15 41.0 21.15 33.4 21.15 25.85 26.5 20.5 31.85 15.15 39.4 15.15 47.0 15.15 52.3 20.5 57.65 25.85 57.65 33.4 M51.6 45.6 Q56.65 40.55 56.65 33.4 56.65 26.35 51.6 21.25 46.55 16.2 39.4 16.2 32.3 16.2 27.2 21.25 22.15 26.35 22.15 33.4 22.15 40.55 27.2 45.6 32.3 50.65 39.4 50.65 46.55 50.65 51.6 45.6" fill="#da7714" fill-rule="evenodd" stroke="none"/>
  </g>
  <defs>
    <radialGradient cx="0" cy="0" gradientTransform="matrix(0.0217, 0.0, 0.0, -0.0217, 39.4, 33.4)" gradientUnits="userSpaceOnUse" id="gradient0" r="819.2" spreadMethod="pad">
      <stop offset="0.0" stop-color="#f46c13"/>
      <stop offset="0.16862745098039217" stop-color="#de5c07"/>
      <stop offset="0.396078431372549" stop-color="#cd5607"/>
      <stop offset="0.6509803921568628" stop-color="#b74b04"/>
      <stop offset="0.8588235294117647" stop-color="#b14701"/>
      <stop offset="1.0" stop-color="#863602"/>
    </radialGradient>
  </defs>
</svg>
