<?xml version="1.0" encoding="UTF-8" standalone="no"?>
<svg xmlns:ffdec="https://www.free-decompiler.com/flash" xmlns:xlink="http://www.w3.org/1999/xlink" ffdec:objectType="shape" height="22.0px" width="21.45px" xmlns="http://www.w3.org/2000/svg">
  <g transform="matrix(1.0, 0.0, 0.0, 1.0, -27.45, -23.95)">
    <path d="M33.35 29.95 Q33.75 27.8 35.35 26.2 36.9 24.65 38.95 24.15 L42.95 24.35 43.65 25.6 40.1 29.1 Q39.6 29.65 40.0 30.7 L40.5 31.35 Q41.55 32.2 42.45 32.5 L43.9 32.35 47.45 28.8 47.8 29.2 48.55 30.45 Q49.15 32.4 48.7 34.45 48.2 36.55 46.7 38.05 45.1 39.6 42.95 40.05 L38.85 39.8 32.5 45.95 28.2 41.45 27.45 40.15 33.7 34.2 Q32.85 32.15 33.35 29.95" fill="#cc850b" fill-rule="evenodd" stroke="none"/>
    <path d="M40.5 31.3 Q41.5 32.2 42.45 32.5 L43.9 32.35 47.45 28.8 47.8 29.2 Q48.4 31.15 47.95 33.2 47.5 35.25 46.0 36.8 44.45 38.35 42.3 38.8 L38.15 38.55 31.8 44.65 27.45 40.15 33.7 34.2 Q32.85 32.15 33.35 29.95 33.75 27.8 35.35 26.2 36.9 24.65 38.95 24.15 L42.95 24.35 39.4 27.9 Q38.95 28.4 39.3 29.4 39.7 30.5 40.65 31.5 L40.5 31.3" fill="url(#gradient0)" fill-rule="evenodd" stroke="none"/>
  </g>
  <defs>
    <linearGradient gradientTransform="matrix(0.0131, -0.005, -0.005, -0.0131, 37.25, 33.7)" gradientUnits="userSpaceOnUse" id="gradient0" spreadMethod="pad" x1="-819.2" x2="819.2">
      <stop offset="0.0" stop-color="#ff7d2b"/>
      <stop offset="0.14901960784313725" stop-color="#ffa41f"/>
      <stop offset="0.5137254901960784" stop-color="#ffff03"/>
      <stop offset="0.6431372549019608" stop-color="#fffb03"/>
      <stop offset="0.7647058823529411" stop-color="#fff002"/>
      <stop offset="0.8823529411764706" stop-color="#ffdd01"/>
      <stop offset="0.996078431372549" stop-color="#ffc300"/>
      <stop offset="1.0" stop-color="#ffc200"/>
    </linearGradient>
  </defs>
</svg>
