<?xml version="1.0" encoding="UTF-8" standalone="no"?>
<svg xmlns:ffdec="https://www.free-decompiler.com/flash" xmlns:xlink="http://www.w3.org/1999/xlink" ffdec:objectType="shape" height="32.85px" width="32.85px" xmlns="http://www.w3.org/2000/svg">
  <g transform="matrix(1.0, 0.0, 0.0, 1.0, -22.95, -17.4)">
    <path d="M50.65 45.1 Q46.0 49.8 39.35 49.8 32.75 49.8 28.1 45.1 23.4 40.4 23.4 33.8 23.4 27.2 28.1 22.5 32.75 17.85 39.35 17.85 46.0 17.85 50.65 22.5 55.35 27.2 55.35 33.8 55.35 40.4 50.65 45.1" fill="url(#gradient0)" fill-rule="evenodd" stroke="none"/>
    <path d="M50.35 44.8 Q54.9 40.25 54.9 33.8 54.9 27.45 50.35 22.85 45.8 18.3 39.35 18.3 33.0 18.3 28.4 22.85 23.85 27.45 23.85 33.8 23.85 40.25 28.4 44.8 33.0 49.3 39.35 49.3 45.8 49.3 50.35 44.8 M55.8 33.8 Q55.8 40.65 51.0 45.4 46.2 50.25 39.35 50.25 32.6 50.25 27.75 45.4 22.95 40.65 22.95 33.8 22.95 27.0 27.75 22.2 32.6 17.4 39.35 17.4 46.2 17.4 51.0 22.2 55.8 27.0 55.8 33.8" fill="#da7714" fill-rule="evenodd" stroke="none"/>
  </g>
  <defs>
    <radialGradient cx="0" cy="0" gradientTransform="matrix(0.0195, 0.0, 0.0, -0.0195, 39.35, 33.8)" gradientUnits="userSpaceOnUse" id="gradient0" r="819.2" spreadMethod="pad">
      <stop offset="0.0" stop-color="#f46c13"/>
      <stop offset="0.16862745098039217" stop-color="#de5c07"/>
      <stop offset="0.396078431372549" stop-color="#cd5607"/>
      <stop offset="0.6509803921568628" stop-color="#b74b04"/>
      <stop offset="0.8588235294117647" stop-color="#b14701"/>
      <stop offset="1.0" stop-color="#863602"/>
    </radialGradient>
  </defs>
</svg>
