<?xml version="1.0" encoding="UTF-8" standalone="no"?>
<svg xmlns:ffdec="https://www.free-decompiler.com/flash" xmlns:xlink="http://www.w3.org/1999/xlink" ffdec:objectType="shape" height="19.75px" width="19.25px" xmlns="http://www.w3.org/2000/svg">
  <g transform="matrix(1.0, 0.0, 0.0, 1.0, -28.6, -25.35)">
    <path d="M33.85 30.75 Q34.25 28.75 35.7 27.35 37.1 25.95 38.9 25.5 L42.55 25.7 43.15 26.8 40.0 29.95 Q39.5 30.45 39.9 31.4 L40.35 32.0 Q41.25 32.75 42.1 33.05 L43.35 32.9 46.6 29.7 46.9 30.05 47.55 31.15 Q48.1 32.95 47.7 34.8 47.25 36.65 45.9 38.0 44.45 39.4 42.55 39.85 L38.85 39.6 33.15 45.1 29.25 41.05 28.6 39.9 34.2 34.55 Q33.45 32.7 33.85 30.75" fill="#cc850b" fill-rule="evenodd" stroke="none"/>
    <path d="M40.35 31.95 Q41.2 32.75 42.1 33.05 L43.35 32.9 46.6 29.7 46.9 30.05 Q47.45 31.8 47.05 33.65 46.65 35.5 45.25 36.9 43.9 38.25 41.95 38.7 L38.25 38.45 32.5 43.95 28.6 39.9 34.2 34.55 Q33.45 32.7 33.85 30.75 34.25 28.75 35.7 27.35 37.1 25.95 38.9 25.5 L42.55 25.7 39.35 28.85 Q38.9 29.3 39.25 30.25 39.6 31.2 40.5 32.1 L40.35 31.95" fill="url(#gradient0)" fill-rule="evenodd" stroke="none"/>
  </g>
  <defs>
    <linearGradient gradientTransform="matrix(0.0117, -0.0045, -0.0045, -0.0117, 37.4, 34.1)" gradientUnits="userSpaceOnUse" id="gradient0" spreadMethod="pad" x1="-819.2" x2="819.2">
      <stop offset="0.0" stop-color="#ff7d2b"/>
      <stop offset="0.14901960784313725" stop-color="#ffa41f"/>
      <stop offset="0.5137254901960784" stop-color="#ffff03"/>
      <stop offset="0.6431372549019608" stop-color="#fffb03"/>
      <stop offset="0.7647058823529411" stop-color="#fff002"/>
      <stop offset="0.8823529411764706" stop-color="#ffdd01"/>
      <stop offset="0.996078431372549" stop-color="#ffc300"/>
      <stop offset="1.0" stop-color="#ffc200"/>
    </linearGradient>
  </defs>
</svg>
