<?xml version="1.0" encoding="UTF-8" standalone="no"?>
<svg xmlns:ffdec="https://www.free-decompiler.com/flash" xmlns:xlink="http://www.w3.org/1999/xlink" ffdec:objectType="shape" height="55.4px" width="240.0px" xmlns="http://www.w3.org/2000/svg">
  <g transform="matrix(1.0, 0.0, 0.0, 1.0, 1.0, 1.0)">
    <path d="M238.0 3.0 L238.0 50.4 Q238.0 51.65 237.1 52.5 236.25 53.4 235.0 53.4 L3.0 53.4 Q1.75 53.4 0.9 52.5 0.0 51.65 0.0 50.4 L0.0 3.0 Q0.0 1.75 0.9 0.9 1.75 0.0 3.0 0.0 L235.0 0.0 Q236.25 0.0 237.1 0.9 238.0 1.75 238.0 3.0" fill="url(#gradient0)" fill-rule="evenodd" stroke="none"/>
    <path d="M238.0 3.0 L238.0 50.4 Q238.0 51.65 237.1 52.5 236.25 53.4 235.0 53.4 L3.0 53.4 Q1.75 53.4 0.9 52.5 0.0 51.65 0.0 50.4 L0.0 3.0 Q0.0 1.75 0.9 0.9 1.75 0.0 3.0 0.0 L235.0 0.0 Q236.25 0.0 237.1 0.9 238.0 1.75 238.0 3.0 Z" fill="none" stroke="#096cd8" stroke-linecap="butt" stroke-linejoin="miter-clip" stroke-miterlimit="4.0" stroke-width="2.0"/>
  </g>
  <defs>
    <linearGradient gradientTransform="matrix(0.1452, 0.0, 0.0, -0.1452, 119.0, 26.7)" gradientUnits="userSpaceOnUse" id="gradient0" spreadMethod="pad" x1="-819.2" x2="819.2">
      <stop offset="0.0" stop-color="#00406e"/>
      <stop offset="0.00784313725490196" stop-color="#003f6d"/>
      <stop offset="0.23529411764705882" stop-color="#002c53"/>
      <stop offset="0.47058823529411764" stop-color="#001f41"/>
      <stop offset="0.7215686274509804" stop-color="#001737"/>
      <stop offset="1.0" stop-color="#001433"/>
    </linearGradient>
  </defs>
</svg>
