<?xml version="1.0" encoding="UTF-8" standalone="no"?>
<svg xmlns:ffdec="https://www.free-decompiler.com/flash" xmlns:xlink="http://www.w3.org/1999/xlink" ffdec:objectType="shape" height="16.1px" width="16.05px" xmlns="http://www.w3.org/2000/svg">
  <g transform="matrix(1.0, 0.0, 0.0, 1.0, -76.2, -31.85)">
    <path d="M89.4 34.75 Q91.5 36.85 91.5 39.9 91.5 42.9 89.4 45.05 87.25 47.2 84.25 47.2 81.2 47.2 79.1 45.05 76.95 42.9 76.95 39.9 76.95 36.85 79.1 34.75 81.2 32.6 84.25 32.6 87.25 32.6 89.4 34.75" fill="#0259b3" fill-rule="evenodd" stroke="none"/>
    <path d="M89.4 34.75 Q91.5 36.85 91.5 39.9 91.5 42.9 89.4 45.05 87.25 47.2 84.25 47.2 81.2 47.2 79.1 45.05 76.95 42.9 76.95 39.9 76.95 36.85 79.1 34.75 81.2 32.6 84.25 32.6 87.25 32.6 89.4 34.75 Z" fill="none" stroke="#0ca5f2" stroke-linecap="butt" stroke-linejoin="miter-clip" stroke-miterlimit="4.0" stroke-width="1.5"/>
    <path d="M89.85 40.75 L83.45 40.75 83.45 39.85 89.85 39.85 89.85 40.75" fill="#0cffff" fill-rule="evenodd" stroke="none"/>
    <path d="M85.8 37.0 L84.25 40.95 83.4 40.6 84.95 36.7 85.8 37.0" fill="#0cffff" fill-rule="evenodd" stroke="none"/>
  </g>
</svg>
