<?xml version="1.0" encoding="UTF-8" standalone="no"?>
<svg xmlns:ffdec="https://www.free-decompiler.com/flash" xmlns:xlink="http://www.w3.org/1999/xlink" ffdec:objectType="shape" height="386.85px" width="677.85px" xmlns="http://www.w3.org/2000/svg">
  <g transform="matrix(1.0, 0.0, 0.0, 1.0, 0.0, 0.0)">
    <path d="M661.55 45.05 Q663.6 45.05 666.1 46.1 668.65 47.15 670.05 48.6 L674.3 52.85 Q675.75 54.3 676.8 56.85 677.85 59.35 677.85 61.4 L677.85 369.45 Q677.85 371.5 676.8 374.05 675.75 376.55 674.3 378.0 L669.0 383.3 Q667.55 384.75 665.05 385.8 662.5 386.85 660.45 386.85 L23.7 386.85 Q21.65 386.85 19.15 385.8 16.6 384.75 15.15 383.3 L6.6 374.75 Q5.15 373.3 4.15 370.8 3.1 368.3 3.1 366.25 L3.1 32.8 Q3.1 30.75 4.15 28.25 5.15 25.7 6.6 24.25 L13.55 17.35 Q14.95 15.9 17.5 14.85 20.0 13.8 22.05 13.8 L63.05 13.75 Q65.1 13.75 67.55 14.85 69.95 16.0 71.3 17.55 L91.8 41.25 Q93.1 42.8 95.55 43.95 98.0 45.05 100.05 45.05 L661.55 45.05" fill="url(#gradient0)" fill-rule="evenodd" stroke="none"/>
    <path d="M667.85 60.55 L667.85 370.35 661.35 376.85 22.85 376.85 13.1 367.1 13.1 31.95 21.2 23.8 63.45 23.75 90.45 55.05 662.4 55.05 667.85 60.55" fill="#1f2123" fill-rule="evenodd" stroke="none"/>
    <path d="M667.85 60.55 L667.85 370.35 661.35 376.85 22.85 376.85 13.1 367.1 13.1 31.95 21.2 23.8 63.45 23.75 90.45 55.05 662.4 55.05 667.85 60.55 Z" fill="none" stroke="#333333" stroke-linecap="butt" stroke-linejoin="miter-clip" stroke-miterlimit="4.0" stroke-width="1.0"/>
    <path d="M661.1 67.2 L661.1 363.5 654.75 369.4 29.35 369.4 19.8 359.85 19.8 39.2 27.8 31.25 62.15 31.2 88.55 61.85 655.75 61.85 661.1 67.2" fill="#141516" fill-rule="evenodd" stroke="none"/>
    <path d="M661.1 67.2 L661.1 363.5 654.75 369.4 29.35 369.4 19.8 359.85 19.8 39.2 27.8 31.25 62.15 31.2 88.55 61.85 655.75 61.85 661.1 67.2 Z" fill="none" stroke="#0a0a0a" stroke-linecap="butt" stroke-linejoin="miter-clip" stroke-miterlimit="4.0" stroke-width="1.0"/>
    <path d="M1.0 35.8 Q1.0 21.35 11.2 11.15 16.15 6.25 22.5 3.6 28.9 1.0 35.85 1.0 42.85 1.0 49.25 3.65 55.6 6.25 60.5 11.2 70.7 21.4 70.7 35.85 70.7 50.3 60.5 60.5 55.55 65.4 49.2 68.05 42.8 70.7 35.85 70.7 28.9 70.7 22.5 68.05 16.15 65.4 11.2 60.45 1.0 50.25 1.0 35.8" fill="url(#gradient1)" fill-rule="evenodd" stroke="none"/>
    <path d="M2.7 49.55 Q0.0 43.0 0.0 35.8 0.0 28.6 2.7 22.05 5.45 15.5 10.5 10.45 15.6 5.4 22.15 2.7 28.7 0.0 35.85 0.0 43.05 0.0 49.6 2.7 56.15 5.4 61.25 10.5 66.3 15.55 69.0 22.1 71.7 28.65 71.7 35.85 71.7 43.05 69.0 49.6 66.25 56.15 61.2 61.2 56.1 66.25 49.55 69.0 43.0 71.7 35.85 71.7 28.65 71.7 22.1 69.0 15.55 66.25 10.5 61.2 5.45 56.1 2.7 49.55 M11.2 11.15 Q1.0 21.35 1.0 35.8 1.0 50.25 11.2 60.45 16.15 65.4 22.5 68.05 28.9 70.7 35.85 70.7 42.8 70.7 49.2 68.05 55.55 65.4 60.5 60.5 70.7 50.3 70.7 35.85 70.7 21.4 60.5 11.2 55.6 6.25 49.25 3.65 42.85 1.0 35.85 1.0 28.9 1.0 22.5 3.6 16.15 6.25 11.2 11.15" fill="#1e1e1e" fill-rule="evenodd" stroke="none"/>
    <path d="M24.95 10.3 Q30.0 8.2 35.55 8.2 41.1 8.2 46.15 10.3 51.2 12.4 55.1 16.35 63.2 24.45 63.2 35.9 63.2 47.4 55.1 55.45 51.15 59.4 46.1 61.45 41.1 63.55 35.55 63.55 30.0 63.55 24.95 61.45 19.9 59.4 15.95 55.45 7.9 47.35 7.9 35.9 7.9 24.4 16.0 16.3 19.9 12.4 24.95 10.3 M18.7 52.7 Q22.05 56.1 26.4 57.9 30.75 59.7 35.55 59.7 40.3 59.7 44.65 57.9 49.0 56.1 52.35 52.75 59.3 45.8 59.35 35.9 59.35 26.05 52.4 19.05 49.05 15.7 44.65 13.9 40.35 12.1 35.55 12.1 30.8 12.1 26.45 13.9 22.05 15.7 18.7 19.05 11.75 26.0 11.75 35.9 11.75 45.75 18.7 52.7" fill="#1a5896" fill-rule="evenodd" stroke="none"/>
    <path d="M17.7 18.05 Q25.1 10.65 35.55 10.65 46.0 10.65 53.4 18.05 60.8 25.45 60.8 35.9 60.8 46.35 53.4 53.75 46.0 61.15 35.55 61.15 25.1 61.15 17.65 53.75 10.25 46.3 10.25 35.9 10.3 25.45 17.7 18.05" fill="#041d56" fill-rule="evenodd" stroke="none"/>
    <path d="M25.0 53.6 Q32.05 57.8 40.0 55.95 47.95 54.1 52.5 47.35 L54.35 48.5 Q49.35 56.05 40.55 58.1 31.65 60.15 23.85 55.5 19.5 52.9 16.55 48.5 L18.45 47.4 Q20.95 51.2 25.0 53.6" fill="#2d8bfc" fill-rule="evenodd" stroke="none"/>
    <path d="M17.8 25.45 Q15.1 30.05 14.95 35.4 14.85 40.5 17.15 45.2 L15.25 46.25 Q12.65 41.1 12.75 35.4 12.9 29.45 15.95 24.35 18.95 19.2 24.1 16.25 29.05 13.4 34.85 13.25 L34.8 15.45 Q29.65 15.6 25.15 18.2 20.55 20.85 17.8 25.45" fill="#2d8bfc" fill-rule="evenodd" stroke="none"/>
    <path d="M55.65 46.25 L53.8 45.1 Q57.4 37.9 55.15 30.2 52.9 22.4 45.95 18.25 41.95 15.9 37.4 15.5 L37.45 13.3 Q42.6 13.75 47.05 16.4 54.8 21.0 57.25 29.65 59.7 38.25 55.65 46.25" fill="#2d8bfc" fill-rule="evenodd" stroke="none"/>
  </g>
  <defs>
    <linearGradient gradientTransform="matrix(0.0, -0.2277, -0.2277, 0.0, 340.45, 200.3)" gradientUnits="userSpaceOnUse" id="gradient0" spreadMethod="pad" x1="-819.2" x2="819.2">
      <stop offset="0.0" stop-color="#505050"/>
      <stop offset="0.10980392156862745" stop-color="#282828"/>
      <stop offset="0.5215686274509804" stop-color="#a4a4a4"/>
      <stop offset="1.0" stop-color="#373737"/>
    </linearGradient>
    <linearGradient gradientTransform="matrix(0.0, -0.0425, -0.0425, 0.0, 35.85, 35.85)" gradientUnits="userSpaceOnUse" id="gradient1" spreadMethod="pad" x1="-819.2" x2="819.2">
      <stop offset="0.0" stop-color="#6a6a6a"/>
      <stop offset="0.403921568627451" stop-color="#242424"/>
      <stop offset="1.0" stop-color="#8c8c8c"/>
    </linearGradient>
  </defs>
</svg>
