<?xml version="1.0" encoding="UTF-8" standalone="no"?>
<svg xmlns:ffdec="https://www.free-decompiler.com/flash" xmlns:xlink="http://www.w3.org/1999/xlink" ffdec:objectType="shape" height="49.8px" width="71.7px" xmlns="http://www.w3.org/2000/svg">
  <g transform="matrix(1.0, 0.0, 0.0, 1.0, -26.15, 103.65)">
    <path d="M92.25 -103.15 Q94.35 -103.15 95.85 -101.5 97.35 -99.8 97.35 -97.5 L97.35 -60.0 Q97.35 -57.65 95.85 -56.0 94.35 -54.35 92.25 -54.35 L31.8 -54.35 Q29.7 -54.35 28.2 -56.0 26.7 -57.65 26.7 -60.0 L26.65 -97.5 Q26.65 -99.8 28.15 -101.5 29.65 -103.15 31.7 -103.15 L92.25 -103.15 M29.9 -97.5 L29.95 -60.0 Q29.95 -59.3 30.5 -58.8 31.05 -58.3 31.8 -58.3 L92.25 -58.3 Q93.0 -58.3 93.55 -58.8 94.1 -59.3 94.1 -60.0 L94.1 -97.5 Q94.1 -98.2 93.55 -98.7 93.0 -99.2 92.25 -99.2 L31.7 -99.2 Q30.85 -99.2 30.3 -98.5 29.9 -98.1 29.9 -97.5" fill="#0954ad" fill-rule="evenodd" stroke="none"/>
    <path d="M92.25 -103.15 L31.7 -103.15 Q29.65 -103.15 28.15 -101.5 26.65 -99.8 26.65 -97.5 L26.7 -60.0 Q26.7 -57.65 28.2 -56.0 29.7 -54.35 31.8 -54.35 L92.25 -54.35 Q94.35 -54.35 95.85 -56.0 97.35 -57.65 97.35 -60.0 L97.35 -97.5 Q97.35 -99.8 95.85 -101.5 94.35 -103.15 92.25 -103.15 Z" fill="none" stroke="#5ccaf0" stroke-linecap="butt" stroke-linejoin="miter-clip" stroke-miterlimit="4.0" stroke-opacity="0.6" stroke-width="1.0"/>
    <path d="M96.55 -90.25 L96.55 -69.35 93.15 -73.45 93.15 -86.15 96.55 -90.25" fill="#1c7cf4" fill-rule="evenodd" stroke="none"/>
    <path d="M27.55 -90.25 L30.9 -86.15 30.9 -73.45 27.55 -69.35 27.55 -90.25" fill="#1c7cf4" fill-rule="evenodd" stroke="none"/>
  </g>
</svg>
