<?xml version="1.0" encoding="UTF-8" standalone="no"?>
<svg xmlns:ffdec="https://www.free-decompiler.com/flash" xmlns:xlink="http://www.w3.org/1999/xlink" ffdec:objectType="shape" height="50.75px" width="71.7px" xmlns="http://www.w3.org/2000/svg">
  <g transform="matrix(1.0, 0.0, 0.0, 1.0, -1.2, -1.65)">
    <path d="M70.95 3.85 Q72.4 5.55 72.4 7.95 L72.4 46.1 Q72.4 48.5 70.95 50.2 69.45 51.9 67.35 51.9 L6.85 51.9 Q4.75 51.9 3.25 50.2 1.8 48.5 1.75 46.1 L1.7 7.95 Q1.7 5.55 3.2 3.85 4.7 2.15 6.8 2.15 L67.35 2.15 Q69.45 2.15 70.95 3.85 M69.15 10.95 L68.9 8.25 Q68.6 6.8 68.25 6.6 L64.35 6.2 9.8 6.2 5.7 6.45 5.2 7.1 Q5.0 8.0 5.0 10.9 L5.05 43.1 5.3 45.8 Q5.6 47.25 5.95 47.45 L9.85 47.85 64.35 47.85 67.1 47.6 Q68.55 47.3 68.75 47.0 69.15 46.0 69.15 43.1 L69.15 10.95" fill="#1289ff" fill-rule="evenodd" stroke="none"/>
    <path d="M70.95 3.85 Q69.45 2.15 67.35 2.15 L6.8 2.15 Q4.7 2.15 3.2 3.85 1.7 5.55 1.7 7.95 L1.75 46.1 Q1.8 48.5 3.25 50.2 4.75 51.9 6.85 51.9 L67.35 51.9 Q69.45 51.9 70.95 50.2 72.4 48.5 72.4 46.1 L72.4 7.95 Q72.4 5.55 70.95 3.85 Z" fill="none" stroke="#61f6eb" stroke-linecap="butt" stroke-linejoin="miter-clip" stroke-miterlimit="4.0" stroke-width="1.0"/>
    <path d="M68.25 19.45 L71.6 15.3 71.6 36.55 68.25 32.4 68.25 19.45" fill="#0282ce" fill-rule="evenodd" stroke="none"/>
    <path d="M68.25 19.45 L68.25 32.4 71.6 36.55 71.6 15.3 68.25 19.45 Z" fill="none" stroke="#3eccff" stroke-linecap="butt" stroke-linejoin="miter-clip" stroke-miterlimit="4.0" stroke-width="1.0"/>
    <path d="M6.0 19.45 L6.0 32.4 2.65 36.55 2.65 15.3 6.0 19.45" fill="#0282ce" fill-rule="evenodd" stroke="none"/>
    <path d="M6.0 19.45 L6.0 32.4 2.65 36.55 2.65 15.3 6.0 19.45 Z" fill="none" stroke="#3eccff" stroke-linecap="butt" stroke-linejoin="miter-clip" stroke-miterlimit="4.0" stroke-width="1.0"/>
  </g>
</svg>
