<?xml version="1.0" encoding="UTF-8" standalone="no"?>
<svg xmlns:ffdec="https://www.free-decompiler.com/flash" xmlns:xlink="http://www.w3.org/1999/xlink" ffdec:objectType="shape" height="129.1px" width="32.45px" xmlns="http://www.w3.org/2000/svg">
  <g transform="matrix(1.0, 0.0, 0.0, 1.0, 145.6, 46.75)">
    <path d="M-132.9 -42.15 Q-131.75 -41.65 -130.95 -40.4 -130.15 -39.2 -130.15 -37.95 L-130.15 75.2 Q-130.15 76.45 -131.0 77.6 -131.85 78.75 -133.05 79.1 L-142.75 82.2 -144.75 82.0 Q-145.6 81.4 -145.6 80.15 L-145.6 -44.7 Q-145.6 -45.95 -144.8 -46.45 L-142.85 -46.5 -132.9 -42.15" fill="url(#gradient0)" fill-rule="evenodd" stroke="none"/>
    <path d="M-124.05 -13.3 L-121.35 -8.35 -130.5 -12.35 -130.5 -15.4 -124.05 -13.3" fill="#29292b" fill-rule="evenodd" stroke="none"/>
    <path d="M-130.5 48.2 L-121.35 44.25 -124.05 49.15 -130.5 51.25 -130.5 48.2" fill="#29292b" fill-rule="evenodd" stroke="none"/>
    <path d="M-124.2 -10.75 Q-123.05 -10.3 -122.2 -9.1 -121.35 -7.95 -121.35 -6.7 L-121.35 42.6 Q-121.35 43.85 -122.15 45.05 -123.0 46.25 -124.15 46.75 L-127.75 48.25 -129.7 48.15 Q-130.5 47.65 -130.5 46.4 L-130.5 -10.15 Q-130.5 -11.4 -129.7 -11.95 L-127.7 -12.05 -124.2 -10.75" fill="url(#gradient1)" fill-rule="evenodd" stroke="none"/>
    <path d="M-130.5 -13.15 L-129.65 -12.8 -129.65 49.05 -130.5 49.4 -130.5 -13.15" fill="#595657" fill-rule="evenodd" stroke="none"/>
    <path d="M-124.35 -10.65 L-123.75 -10.35 -123.75 46.5 -124.35 46.85 -124.35 -10.65" fill="#474647" fill-rule="evenodd" stroke="none"/>
    <path d="M-125.0 -10.95 L-124.4 -10.65 -124.4 46.75 -125.0 47.1 -125.0 -10.95" fill="#1e1d1f" fill-rule="evenodd" stroke="none"/>
    <path d="M-114.15 8.05 L-114.15 29.15 -122.75 37.0 -130.25 38.05 -130.25 -0.85 -122.75 0.15 -114.15 8.05" fill="url(#gradient2)" fill-rule="evenodd" stroke="none"/>
    <path d="M-114.15 8.05 L-122.75 0.15 -130.25 -0.85 -130.25 38.05 -122.75 37.0 -114.15 29.15 -114.15 8.05 M-131.25 -2.0 L-122.35 -0.8 -122.15 -0.6 -121.0 0.35 -120.95 0.35 -113.15 7.6 -113.15 29.6 -122.3 37.95 -131.25 39.2 -131.25 -2.0" fill="#0d0d0f" fill-rule="evenodd" stroke="none"/>
    <path d="M-130.25 -0.85 L-127.05 -0.4 -127.05 37.65 -130.25 38.05 -130.25 -0.85" fill="#484949" fill-rule="evenodd" stroke="none"/>
    <path d="M-121.75 3.75 L-115.85 10.4 -115.85 26.8 -121.75 33.45 -122.75 34.35 -125.55 34.8 -126.9 33.9 -126.9 25.95 -126.45 25.15 -126.45 12.1 -126.9 11.45 -126.9 3.4 -125.55 2.55 -122.75 2.85 -121.75 3.75" fill="#171819" fill-rule="evenodd" stroke="none"/>
    <path d="M-126.35 26.3 L-126.35 33.45 -130.4 34.3 -130.4 26.3 -126.35 26.3" fill="#626363" fill-rule="evenodd" stroke="none"/>
    <path d="M-129.65 26.3 L-129.65 34.2 -130.4 34.3 -130.4 26.3 -129.65 26.3" fill="#c1bda1" fill-rule="evenodd" stroke="none"/>
    <path d="M-126.35 11.1 L-130.4 11.1 -130.4 3.1 -126.35 4.0 -126.35 11.1" fill="#626363" fill-rule="evenodd" stroke="none"/>
    <path d="M-129.65 11.1 L-130.4 11.1 -130.4 3.1 -129.65 3.25 -129.65 11.1" fill="#c1bda1" fill-rule="evenodd" stroke="none"/>
    <path d="M-129.5 12.0 L-129.5 25.25 -130.25 25.25 -130.25 12.0 -129.5 12.0" fill="#7e7f75" fill-rule="evenodd" stroke="none"/>
  </g>
  <defs>
    <linearGradient gradientTransform="matrix(0.0094, 0.0, 0.0, -0.0094, -137.9, 17.8)" gradientUnits="userSpaceOnUse" id="gradient0" spreadMethod="pad" x1="-819.2" x2="819.2">
      <stop offset="0.0" stop-color="#454647"/>
      <stop offset="0.058823529411764705" stop-color="#a8a8b3"/>
      <stop offset="0.6196078431372549" stop-color="#606165"/>
      <stop offset="0.9058823529411765" stop-color="#404242"/>
      <stop offset="0.996078431372549" stop-color="#292929"/>
    </linearGradient>
    <linearGradient gradientTransform="matrix(-0.0056, 0.0, 0.0, 0.0056, -125.95, 18.1)" gradientUnits="userSpaceOnUse" id="gradient1" spreadMethod="pad" x1="-819.2" x2="819.2">
      <stop offset="0.0" stop-color="#2c2e32"/>
      <stop offset="1.0" stop-color="#383b3c"/>
    </linearGradient>
    <linearGradient gradientTransform="matrix(-0.0098, 0.0, 0.0, 0.0098, -122.2, 18.6)" gradientUnits="userSpaceOnUse" id="gradient2" spreadMethod="pad" x1="-819.2" x2="819.2">
      <stop offset="0.0" stop-color="#1d1e1f"/>
      <stop offset="1.0" stop-color="#2b2e2f"/>
    </linearGradient>
  </defs>
</svg>
