<?xml version="1.0" encoding="UTF-8" standalone="no"?>
<svg xmlns:ffdec="https://www.free-decompiler.com/flash" xmlns:xlink="http://www.w3.org/1999/xlink" ffdec:objectType="shape" height="102.05px" width="223.9px" xmlns="http://www.w3.org/2000/svg">
  <g transform="matrix(1.0, 0.0, 0.0, 1.0, 125.95, -5.6)">
    <path d="M95.95 31.75 L-123.95 31.75 Q-124.75 31.75 -125.35 31.15 -125.95 30.6 -125.95 29.75 L-125.95 7.6 Q-125.95 6.8 -125.35 6.2 -124.75 5.6 -123.95 5.6 L95.95 5.6 Q96.8 5.6 97.35 6.2 97.95 6.8 97.95 7.6 L97.95 29.75 Q97.95 30.6 97.35 31.15 96.8 31.75 95.95 31.75" fill="url(#gradient0)" fill-rule="evenodd" stroke="none"/>
    <path d="M93.65 41.15 L93.65 89.1 Q93.65 90.35 93.0 91.8 92.35 93.25 91.45 94.1 L78.95 105.6 Q78.05 106.45 76.5 107.05 L73.75 107.65 -110.7 107.65 -113.3 107.15 Q-114.7 106.6 -115.45 105.9 -116.15 105.15 -116.7 103.75 -117.2 102.35 -117.2 101.1 L-117.2 39.5 Q-117.2 38.25 -116.55 36.8 -115.9 35.3 -114.95 34.5 L-109.5 29.55 Q-108.6 28.75 -107.05 28.15 -105.5 27.55 -104.25 27.55 L-61.2 27.55 Q-59.95 27.55 -58.5 28.15 -57.1 28.75 -56.3 29.6 -55.5 30.45 -54.05 31.0 L-51.4 31.6 25.55 31.6 Q26.8 31.6 28.2 31.0 29.6 30.45 30.35 29.6 31.1 28.75 32.5 28.15 33.9 27.55 35.15 27.55 L79.3 27.55 Q80.55 27.55 82.05 28.15 83.6 28.75 84.5 29.6 L91.45 36.1 Q92.35 36.95 93.0 38.45 93.65 39.9 93.65 41.15" fill="url(#gradient1)" fill-rule="evenodd" stroke="none"/>
    <path d="M77.05 33.0 Q78.3 33.0 79.8 33.6 L82.25 35.05 86.6 39.1 Q87.5 39.95 88.15 41.45 88.8 42.9 88.8 44.15 L88.8 87.85 Q88.8 89.1 87.9 89.95 87.05 90.85 85.8 90.85 L79.6 90.85 Q78.35 90.85 76.85 91.45 L74.35 92.85 69.8 96.9 67.35 98.3 64.55 98.9 48.9 98.9 46.15 99.4 Q44.7 99.9 43.85 100.55 43.0 101.25 41.5 101.75 L38.75 102.25 -108.6 102.25 Q-109.85 102.25 -110.7 101.35 -111.6 100.5 -111.6 99.25 L-111.6 67.55 Q-111.6 66.35 -111.0 64.8 -110.45 63.25 -109.65 62.3 L-107.5 59.8 Q-106.7 58.85 -106.15 57.3 -105.55 55.75 -105.55 54.5 L-105.55 36.0 Q-105.55 34.75 -104.65 33.9 -103.8 33.0 -102.55 33.0 L77.05 33.0" fill="#2a2e35" fill-rule="evenodd" stroke="none"/>
    <path d="M77.05 33.0 L-102.55 33.0 Q-103.8 33.0 -104.65 33.9 -105.55 34.75 -105.55 36.0 L-105.55 54.5 Q-105.55 55.75 -106.15 57.3 -106.7 58.85 -107.5 59.8 L-109.65 62.3 Q-110.45 63.25 -111.0 64.8 -111.6 66.35 -111.6 67.55 L-111.6 99.25 Q-111.6 100.5 -110.7 101.35 -109.85 102.25 -108.6 102.25 L38.75 102.25 41.5 101.75 Q43.0 101.25 43.85 100.55 44.7 99.9 46.15 99.4 L48.9 98.9 64.55 98.9 67.35 98.3 69.8 96.9 74.35 92.85 76.85 91.45 Q78.35 90.85 79.6 90.85 L85.8 90.85 Q87.05 90.85 87.9 89.95 88.8 89.1 88.8 87.85 L88.8 44.15 Q88.8 42.9 88.15 41.45 87.5 39.95 86.6 39.1 L82.25 35.05 79.8 33.6 Q78.3 33.0 77.05 33.0 Z" fill="none" stroke="#262626" stroke-linecap="butt" stroke-linejoin="miter-clip" stroke-miterlimit="4.0" stroke-width="1.0"/>
    <path d="M47.25 102.45 L71.25 102.45 81.6 93.85 87.2 93.85 74.9 104.15 44.55 104.15 47.25 102.45" fill="#422103" fill-rule="evenodd" stroke="none"/>
  </g>
  <defs>
    <linearGradient gradientTransform="matrix(0.1366, 0.0, 0.0, -0.1366, -14.0, 18.65)" gradientUnits="userSpaceOnUse" id="gradient0" spreadMethod="pad" x1="-819.2" x2="819.2">
      <stop offset="0.0" stop-color="#000000"/>
      <stop offset="0.21568627450980393" stop-color="#300b00"/>
      <stop offset="0.5176470588235295" stop-color="#701a00"/>
      <stop offset="0.611764705882353" stop-color="#5a1500"/>
      <stop offset="1.0" stop-color="#000000"/>
    </linearGradient>
    <linearGradient gradientTransform="matrix(-0.1287, 0.0, 0.0, -0.1287, -11.75, 67.6)" gradientUnits="userSpaceOnUse" id="gradient1" spreadMethod="pad" x1="-819.2" x2="819.2">
      <stop offset="0.0" stop-color="#454647"/>
      <stop offset="0.058823529411764705" stop-color="#a8a8b3"/>
      <stop offset="0.6823529411764706" stop-color="#606165"/>
      <stop offset="1.0" stop-color="#404242"/>
    </linearGradient>
  </defs>
</svg>
