<?xml version="1.0" encoding="UTF-8" standalone="no"?>
<svg xmlns:ffdec="https://www.free-decompiler.com/flash" xmlns:xlink="http://www.w3.org/1999/xlink" ffdec:objectType="shape" height="104.35px" width="134.85px" xmlns="http://www.w3.org/2000/svg">
  <g transform="matrix(1.0, 0.0, 0.0, 1.0, 0.0, 0.0)">
    <path d="M134.35 15.55 L134.35 94.35 Q134.35 95.05 133.95 95.9 L132.95 97.2 125.6 102.75 124.05 103.55 122.35 103.85 99.3 103.85 97.65 103.45 96.3 102.55 95.65 101.8 Q95.05 101.1 93.95 100.6 92.9 100.1 91.95 100.1 L60.35 100.1 Q59.4 100.1 58.35 100.55 L56.6 101.75 55.85 102.55 54.45 103.45 52.8 103.85 11.2 103.85 Q9.45 103.85 7.85 102.8 L1.9 98.65 Q1.35 98.25 0.9 97.45 0.5 96.6 0.5 95.9 L0.5 5.3 Q0.5 4.55 0.9 3.65 1.25 2.75 1.75 2.2 L2.2 1.8 Q2.75 1.3 3.65 0.9 L5.25 0.5 119.0 0.5 120.65 0.9 Q121.55 1.25 122.1 1.75 L133.1 12.5 133.95 13.9 Q134.35 14.8 134.35 15.55" fill="url(#gradient0)" fill-rule="evenodd" stroke="none"/>
    <path d="M122.45 1.4 L133.45 12.15 134.45 13.7 Q134.85 14.75 134.85 15.55 L134.85 94.35 134.4 96.15 133.25 97.6 125.9 103.15 Q125.25 103.65 124.2 104.0 L122.35 104.35 99.3 104.35 97.5 103.9 95.95 102.85 95.3 102.1 Q94.75 101.5 93.75 101.05 L91.95 100.6 60.35 100.6 Q59.55 100.6 58.55 101.05 57.55 101.45 57.0 102.05 L56.2 102.9 Q55.65 103.5 54.65 103.95 L52.8 104.35 11.2 104.35 9.35 104.0 Q8.25 103.7 7.6 103.2 L1.65 99.05 Q1.0 98.6 0.5 97.65 0.0 96.75 0.0 95.9 L0.0 5.3 Q0.0 4.5 0.4 3.45 0.85 2.45 1.4 1.85 L1.85 1.4 3.45 0.4 5.25 0.0 119.0 0.0 120.85 0.4 Q121.85 0.85 122.45 1.4 M133.85 15.55 L133.5 14.1 132.75 12.85 121.75 2.1 120.45 1.35 Q119.65 1.0 119.0 1.0 L5.25 1.0 3.85 1.35 2.55 2.15 2.1 2.6 1.35 3.85 Q1.0 4.65 1.0 5.3 L1.0 95.9 Q1.0 96.5 1.35 97.2 1.7 97.9 2.2 98.25 L8.15 102.4 Q9.6 103.35 11.2 103.35 L52.8 103.35 54.25 103.0 55.45 102.2 56.25 101.4 Q56.95 100.65 58.15 100.15 59.3 99.6 60.35 99.6 L91.95 99.6 Q93.0 99.6 94.15 100.15 95.35 100.65 96.05 101.45 L96.7 102.2 97.9 103.0 99.3 103.35 122.35 103.35 123.9 103.05 125.3 102.35 132.65 96.8 133.5 95.7 133.85 94.35 133.85 15.55" fill="#0080ff" fill-rule="evenodd" stroke="none"/>
  </g>
  <defs>
    <linearGradient gradientTransform="matrix(0.0, -0.0631, -0.0631, 0.0, 67.45, 52.2)" gradientUnits="userSpaceOnUse" id="gradient0" spreadMethod="pad" x1="-819.2" x2="819.2">
      <stop offset="0.0" stop-color="#003f9c"/>
      <stop offset="0.1803921568627451" stop-color="#00348a"/>
      <stop offset="0.48627450980392156" stop-color="#002572"/>
      <stop offset="0.7647058823529411" stop-color="#001c63"/>
      <stop offset="1.0" stop-color="#00195e"/>
    </linearGradient>
  </defs>
</svg>
