<?xml version="1.0" encoding="UTF-8" standalone="no"?>
<svg xmlns:ffdec="https://www.free-decompiler.com/flash" xmlns:xlink="http://www.w3.org/1999/xlink" ffdec:objectType="shape" height="79.3px" width="28.45px" xmlns="http://www.w3.org/2000/svg">
  <g transform="matrix(1.0, 0.0, 0.0, 1.0, -86.7, 21.65)">
    <path d="M112.35 -19.35 Q113.5 -18.9 114.35 -17.7 115.15 -16.55 115.15 -15.3 L115.15 -5.75 Q115.15 -4.5 114.55 -3.15 113.9 -1.85 113.05 -1.2 112.2 -0.55 111.55 0.75 110.95 2.05 110.95 3.3 L110.95 32.35 Q110.95 33.6 111.55 34.9 112.2 36.2 113.05 36.8 113.9 37.4 114.55 38.7 115.15 40.0 115.15 41.25 L115.15 50.55 Q115.15 51.8 114.35 53.05 113.55 54.25 112.4 54.75 L106.5 57.4 104.55 57.35 Q103.75 56.85 103.75 55.6 L103.75 -19.5 Q103.75 -20.75 104.55 -21.3 105.4 -21.9 106.55 -21.5 L112.35 -19.35" fill="url(#gradient0)" fill-rule="evenodd" stroke="none"/>
    <path d="M104.05 -16.0 L104.05 -12.95 94.95 -8.95 97.65 -13.9 104.05 -16.0" fill="#29292b" fill-rule="evenodd" stroke="none"/>
    <path d="M94.95 43.65 L104.05 47.65 104.05 50.7 97.65 48.6 94.95 43.65" fill="#29292b" fill-rule="evenodd" stroke="none"/>
    <path d="M101.25 -12.65 L103.25 -12.5 Q104.05 -11.95 104.05 -10.7 L104.05 45.8 Q104.05 47.05 103.25 47.6 L101.3 47.65 97.7 46.15 Q96.6 45.7 95.75 44.45 94.95 43.25 94.95 42.0 L94.95 -7.25 Q94.95 -8.5 95.75 -9.7 96.6 -10.9 97.75 -11.35 L101.25 -12.65" fill="url(#gradient1)" fill-rule="evenodd" stroke="none"/>
    <path d="M104.05 -13.7 L104.05 48.8 103.25 48.45 103.25 -13.4 104.05 -13.7" fill="#595657" fill-rule="evenodd" stroke="none"/>
    <path d="M97.9 -11.2 L97.9 46.25 97.35 45.95 97.35 -10.9 97.9 -11.2" fill="#474647" fill-rule="evenodd" stroke="none"/>
    <path d="M97.95 -11.2 L98.55 -11.5 98.55 46.55 97.95 46.2 97.95 -11.2" fill="#1e1d1f" fill-rule="evenodd" stroke="none"/>
    <path d="M96.35 36.45 L87.7 28.55 87.7 7.5 95.2 0.5 96.35 -0.4 103.85 -1.4 103.85 37.45 96.35 36.45" fill="url(#gradient2)" fill-rule="evenodd" stroke="none"/>
    <path d="M95.2 0.5 L87.7 7.5 87.7 28.55 96.35 36.45 103.85 37.45 103.85 -1.4 96.35 -0.4 95.2 0.5 M95.7 -1.2 L95.9 -1.35 104.85 -2.55 104.85 38.6 95.9 37.4 86.7 29.0 86.7 7.05 95.7 -1.2" fill="#0d0d0f" fill-rule="evenodd" stroke="none"/>
    <path d="M103.85 -1.4 L103.85 37.45 100.6 37.05 100.6 -1.0 103.85 -1.4" fill="#484949" fill-rule="evenodd" stroke="none"/>
    <path d="M96.35 33.8 L95.35 32.85 89.4 26.2 89.4 9.85 95.35 3.2 96.35 2.25 99.15 1.95 100.45 2.85 100.45 10.9 100.0 11.55 100.0 24.6 100.45 25.35 100.45 33.3 99.15 34.25 96.35 33.8" fill="#171819" fill-rule="evenodd" stroke="none"/>
    <path d="M99.9 25.75 L103.95 25.75 103.95 33.75 99.9 32.85 99.9 25.75" fill="#626363" fill-rule="evenodd" stroke="none"/>
    <path d="M103.25 25.75 L103.95 25.75 103.95 33.75 103.25 33.6 103.25 25.75" fill="#c1bda1" fill-rule="evenodd" stroke="none"/>
    <path d="M99.9 10.55 L99.9 3.4 103.95 2.55 103.95 10.55 99.9 10.55" fill="#626363" fill-rule="evenodd" stroke="none"/>
    <path d="M103.25 10.55 L103.25 2.65 103.95 2.55 103.95 10.55 103.25 10.55" fill="#c1bda1" fill-rule="evenodd" stroke="none"/>
    <path d="M103.05 11.4 L103.85 11.4 103.85 24.65 103.05 24.65 103.05 11.4" fill="#7e7f75" fill-rule="evenodd" stroke="none"/>
  </g>
  <defs>
    <linearGradient gradientTransform="matrix(0.007, 0.0, 0.0, -0.007, 109.45, 18.0)" gradientUnits="userSpaceOnUse" id="gradient0" spreadMethod="pad" x1="-819.2" x2="819.2">
      <stop offset="0.00392156862745098" stop-color="#292929"/>
      <stop offset="0.09411764705882353" stop-color="#404242"/>
      <stop offset="0.3803921568627451" stop-color="#606165"/>
      <stop offset="0.9411764705882353" stop-color="#a8a8b3"/>
      <stop offset="1.0" stop-color="#454647"/>
    </linearGradient>
    <linearGradient gradientTransform="matrix(-0.0056, 0.0, 0.0, -0.0056, 99.5, 17.5)" gradientUnits="userSpaceOnUse" id="gradient1" spreadMethod="pad" x1="-819.2" x2="819.2">
      <stop offset="0.0" stop-color="#2c2e32"/>
      <stop offset="1.0" stop-color="#383b3c"/>
    </linearGradient>
    <linearGradient gradientTransform="matrix(-0.0098, 0.0, 0.0, -0.0098, 95.75, 18.0)" gradientUnits="userSpaceOnUse" id="gradient2" spreadMethod="pad" x1="-819.2" x2="819.2">
      <stop offset="0.0" stop-color="#1d1e1f"/>
      <stop offset="1.0" stop-color="#2b2e2f"/>
    </linearGradient>
  </defs>
</svg>
