<?xml version="1.0" encoding="UTF-8" standalone="no"?>
<svg xmlns:ffdec="https://www.free-decompiler.com/flash" xmlns:xlink="http://www.w3.org/1999/xlink" ffdec:objectType="shape" height="121.35px" width="210.85px" xmlns="http://www.w3.org/2000/svg">
  <g transform="matrix(1.0, 0.0, 0.0, 1.0, 0.0, 0.0)">
    <path d="M210.35 17.55 L210.35 107.75 Q210.35 108.9 209.75 110.25 209.15 111.65 208.35 112.45 L201.35 118.95 199.1 120.3 196.5 120.85 152.35 120.85 149.9 120.3 Q148.6 119.75 147.9 119.0 147.1 118.1 145.6 117.45 144.1 116.8 142.75 116.8 L65.8 116.8 Q64.45 116.8 62.95 117.45 61.4 118.05 60.55 119.0 L58.5 120.3 Q57.15 120.85 56.0 120.85 L12.95 120.85 10.35 120.3 Q8.85 119.75 8.05 118.95 L2.55 114.05 Q1.75 113.3 1.1 111.9 0.5 110.55 0.5 109.4 L0.5 6.55 Q0.5 5.45 1.0 4.1 1.45 2.8 2.1 2.15 L4.1 1.0 Q5.4 0.5 6.5 0.5 L192.95 0.5 Q194.1 0.5 195.5 1.1 L197.75 2.45 208.35 12.85 Q209.15 13.65 209.75 15.05 210.35 16.4 210.35 17.55" fill="url(#gradient0)" fill-rule="evenodd" stroke="none"/>
    <path d="M208.7 12.5 Q209.6 13.35 210.25 14.85 210.85 16.35 210.85 17.55 L210.85 107.75 Q210.85 109.0 210.2 110.45 L208.65 112.8 201.7 119.3 Q200.8 120.15 199.25 120.75 197.75 121.35 196.5 121.35 L152.35 121.35 Q151.1 121.35 149.7 120.75 148.3 120.2 147.55 119.35 146.8 118.5 145.4 117.9 144.0 117.3 142.75 117.3 L65.8 117.3 Q64.55 117.3 63.15 117.9 61.7 118.5 60.9 119.35 L58.7 120.75 Q57.25 121.35 56.0 121.35 L12.95 121.35 Q11.7 121.35 10.15 120.75 8.6 120.15 7.7 119.35 L2.25 114.4 Q1.3 113.6 0.65 112.1 0.0 110.65 0.0 109.4 L0.0 6.55 Q0.0 5.3 0.5 3.9 1.05 2.5 1.75 1.8 2.5 1.05 3.9 0.55 5.25 0.0 6.5 0.0 L192.95 0.0 Q194.2 0.0 195.7 0.6 197.25 1.25 198.1 2.1 L208.7 12.5 M209.85 17.55 Q209.85 16.55 209.3 15.25 208.75 13.9 208.0 13.2 L197.4 2.85 195.35 1.55 Q194.0 1.0 192.95 1.0 L6.5 1.0 4.25 1.45 Q3.05 1.9 2.45 2.5 1.9 3.05 1.45 4.3 1.0 5.5 1.0 6.55 L1.0 109.4 Q1.0 110.4 1.6 111.7 2.15 113.0 2.9 113.65 L8.35 118.6 Q9.15 119.3 10.5 119.85 L12.95 120.35 56.0 120.35 Q57.05 120.35 58.3 119.85 59.55 119.35 60.2 118.65 61.1 117.7 62.75 117.0 64.4 116.3 65.8 116.3 L142.75 116.3 Q144.2 116.3 145.8 117.0 147.4 117.65 148.3 118.65 L150.1 119.85 152.35 120.35 196.5 120.35 198.9 119.8 201.05 118.55 208.0 112.05 Q208.75 111.4 209.3 110.05 209.85 108.8 209.85 107.75 L209.85 17.55" fill="#0080ff" fill-rule="evenodd" stroke="none"/>
  </g>
  <defs>
    <linearGradient gradientTransform="matrix(0.0, -0.0734, -0.0734, 0.0, 105.45, 60.7)" gradientUnits="userSpaceOnUse" id="gradient0" spreadMethod="pad" x1="-819.2" x2="819.2">
      <stop offset="0.0" stop-color="#003f9c"/>
      <stop offset="0.1803921568627451" stop-color="#00348a"/>
      <stop offset="0.48627450980392156" stop-color="#002572"/>
      <stop offset="0.7647058823529411" stop-color="#001c63"/>
      <stop offset="1.0" stop-color="#00195e"/>
    </linearGradient>
  </defs>
</svg>
