<?xml version="1.0" encoding="UTF-8" standalone="no"?>
<svg xmlns:ffdec="https://www.free-decompiler.com/flash" xmlns:xlink="http://www.w3.org/1999/xlink" ffdec:objectType="shape" height="200.7px" width="344.15px" xmlns="http://www.w3.org/2000/svg">
  <g transform="matrix(1.0, 0.0, 0.0, 1.0, 119.15, 147.45)">
    <path d="M83.9 -122.65 Q83.4 -121.5 82.2 -120.7 80.95 -119.9 79.7 -119.9 L-108.1 -119.9 Q-109.35 -119.9 -110.5 -120.75 -111.6 -121.6 -112.0 -122.75 L-119.0 -144.6 Q-119.35 -145.8 -118.75 -146.6 -118.15 -147.45 -116.9 -147.45 L91.8 -147.45 Q93.05 -147.45 93.55 -146.65 94.1 -145.85 93.6 -144.7 L83.9 -122.65" fill="url(#gradient0)" fill-rule="evenodd" stroke="none"/>
    <path d="M73.7 -124.8 Q73.35 -123.6 72.25 -122.75 71.1 -121.9 69.85 -121.9 L-99.25 -121.9 Q-100.5 -121.9 -101.6 -122.75 -102.7 -123.6 -103.05 -124.8 L-107.5 -140.55 Q-107.85 -141.75 -107.2 -142.6 -106.55 -143.45 -105.3 -143.45 L76.2 -143.45 Q77.45 -143.45 78.05 -142.6 78.7 -141.75 78.35 -140.6 L73.7 -124.8" fill="url(#gradient1)" fill-rule="evenodd" stroke="none"/>
    <path d="M42.35 -109.0 L33.55 -104.2 40.65 -120.5 46.1 -120.5 42.35 -109.0" fill="#29292b" fill-rule="evenodd" stroke="none"/>
    <path d="M-69.25 -109.0 L-73.0 -120.5 -67.55 -120.5 -60.45 -104.2 -69.25 -109.0" fill="#29292b" fill-rule="evenodd" stroke="none"/>
    <path d="M36.95 -107.0 Q36.5 -105.85 35.3 -105.0 34.15 -104.2 32.9 -104.2 L-59.85 -104.2 Q-61.1 -104.2 -62.3 -105.0 -63.5 -105.8 -64.0 -106.95 L-68.5 -117.75 Q-69.0 -118.85 -68.45 -119.7 -67.9 -120.5 -66.65 -120.5 L39.0 -120.5 Q40.25 -120.5 40.8 -119.7 41.4 -118.85 40.95 -117.7 L36.95 -107.0" fill="url(#gradient2)" fill-rule="evenodd" stroke="none"/>
    <path d="M42.0 -120.5 L41.45 -119.0 -69.0 -119.0 -69.65 -120.5 42.0 -120.5" fill="#595657" fill-rule="evenodd" stroke="none"/>
    <path d="M37.6 -109.55 L37.05 -108.5 -64.55 -108.5 -65.1 -109.55 37.6 -109.55" fill="#474647" fill-rule="evenodd" stroke="none"/>
    <path d="M38.1 -110.65 L37.6 -109.6 -64.95 -109.6 -65.55 -110.65 38.1 -110.65" fill="#1e1d1f" fill-rule="evenodd" stroke="none"/>
    <path d="M224.5 9.75 L147.5 9.75 147.5 -6.25 224.5 -6.25 224.5 9.75" fill="#2246dd" fill-opacity="0.2" fill-rule="evenodd" stroke="none"/>
    <path d="M224.5 9.75 L147.5 9.75 147.5 -6.25 224.5 -6.25 224.5 9.75 Z" fill="none" stroke="#07448c" stroke-linecap="butt" stroke-linejoin="miter-clip" stroke-miterlimit="4.0" stroke-width="1.0"/>
    <path d="M224.5 31.25 L147.5 31.25 147.5 15.25 224.5 15.25 224.5 31.25" fill="#2246dd" fill-opacity="0.2" fill-rule="evenodd" stroke="none"/>
    <path d="M224.5 31.25 L147.5 31.25 147.5 15.25 224.5 15.25 224.5 31.25 Z" fill="none" stroke="#07448c" stroke-linecap="butt" stroke-linejoin="miter-clip" stroke-miterlimit="4.0" stroke-width="1.0"/>
    <path d="M224.5 52.75 L147.5 52.75 147.5 36.75 224.5 36.75 224.5 52.75" fill="#2246dd" fill-opacity="0.2" fill-rule="evenodd" stroke="none"/>
    <path d="M224.5 52.75 L147.5 52.75 147.5 36.75 224.5 36.75 224.5 52.75 Z" fill="none" stroke="#07448c" stroke-linecap="butt" stroke-linejoin="miter-clip" stroke-miterlimit="4.0" stroke-width="1.0"/>
  </g>
  <defs>
    <linearGradient gradientTransform="matrix(0.0, -0.0168, -0.0168, 0.0, -12.65, -133.7)" gradientUnits="userSpaceOnUse" id="gradient0" spreadMethod="pad" x1="-819.2" x2="819.2">
      <stop offset="0.00392156862745098" stop-color="#292929"/>
      <stop offset="0.09411764705882353" stop-color="#404242"/>
      <stop offset="0.40784313725490196" stop-color="#626465"/>
      <stop offset="0.8627450980392157" stop-color="#9b9d9e"/>
      <stop offset="0.9176470588235294" stop-color="#737576"/>
      <stop offset="0.9725490196078431" stop-color="#525354"/>
      <stop offset="1.0" stop-color="#454647"/>
    </linearGradient>
    <linearGradient gradientTransform="matrix(0.1135, 0.0, 0.0, -0.1135, -14.55, -132.7)" gradientUnits="userSpaceOnUse" id="gradient1" spreadMethod="pad" x1="-819.2" x2="819.2">
      <stop offset="0.0" stop-color="#0b001c"/>
      <stop offset="0.11372549019607843" stop-color="#070733"/>
      <stop offset="0.24705882352941178" stop-color="#030d47"/>
      <stop offset="0.3843137254901961" stop-color="#011153"/>
      <stop offset="0.5176470588235295" stop-color="#001257"/>
      <stop offset="0.6627450980392157" stop-color="#011154"/>
      <stop offset="0.7764705882352941" stop-color="#020e4a"/>
      <stop offset="0.8823529411764706" stop-color="#060939"/>
      <stop offset="0.9803921568627451" stop-color="#0a0222"/>
      <stop offset="1.0" stop-color="#0b001c"/>
    </linearGradient>
    <linearGradient gradientTransform="matrix(0.0, -0.0099, -0.0099, 0.0, -13.8, -112.35)" gradientUnits="userSpaceOnUse" id="gradient2" spreadMethod="pad" x1="-819.2" x2="819.2">
      <stop offset="0.0" stop-color="#2c2e32"/>
      <stop offset="1.0" stop-color="#383b3c"/>
    </linearGradient>
  </defs>
</svg>
