<?xml version="1.0" encoding="UTF-8" standalone="no"?>
<svg xmlns:ffdec="https://www.free-decompiler.com/flash" xmlns:xlink="http://www.w3.org/1999/xlink" ffdec:objectType="shape" height="9.15px" width="218.35px" xmlns="http://www.w3.org/2000/svg">
  <g transform="matrix(1.0, 0.0, 0.0, 1.0, 0.0, 0.0)">
    <path d="M214.7 8.7 L141.25 8.7 Q140.45 8.7 139.85 8.1 139.25 7.55 139.25 6.7 L139.25 2.45 Q139.25 1.65 139.85 1.05 140.45 0.45 141.25 0.45 L214.7 0.45 Q215.5 0.45 216.1 1.05 216.7 1.65 216.7 2.45 L216.7 6.7 Q216.7 7.5 216.1 8.1 215.5 8.7 214.7 8.7" fill="url(#gradient0)" fill-rule="evenodd" stroke="none"/>
    <path d="M139.55 0.75 Q139.85 0.45 140.25 0.45 L145.1 0.45 145.8 0.75 146.1 1.45 146.1 7.7 145.8 8.4 145.1 8.7 140.25 8.7 139.55 8.4 Q139.25 8.1 139.25 7.7 L139.25 1.45 Q139.25 1.05 139.55 0.75" fill="url(#gradient1)" fill-rule="evenodd" stroke="none"/>
    <path d="M145.0 0.45 L145.0 8.7 140.25 8.7 140.25 0.45 145.0 0.45" fill="#363738" fill-rule="evenodd" stroke="none"/>
    <path d="M144.4 6.75 L144.4 7.75 140.85 7.75 140.85 6.75 144.4 6.75" fill="#0c0c0c" fill-rule="evenodd" stroke="none"/>
    <path d="M144.4 1.35 L144.4 2.3 140.85 2.3 140.85 1.35 144.4 1.35" fill="#0c0c0c" fill-rule="evenodd" stroke="none"/>
    <path d="M217.25 0.0 L217.8 0.75 Q218.35 1.95 218.35 4.2 218.35 7.8 217.25 9.15 L209.6 9.15 Q210.75 7.25 210.75 4.2 210.75 2.3 210.2 0.95 L209.6 0.0 217.25 0.0" fill="url(#gradient2)" fill-rule="evenodd" stroke="none"/>
    <path d="M216.45 7.0 L215.95 8.1 211.95 8.1 212.5 7.0 216.45 7.0" fill="#0c0c0c" fill-rule="evenodd" stroke="none"/>
    <path d="M216.9 3.9 L216.9 5.0 213.1 5.0 213.1 3.9 216.9 3.9" fill="#0c0c0c" fill-rule="evenodd" stroke="none"/>
    <path d="M215.95 1.0 L216.45 2.05 212.5 2.05 211.95 1.0 215.95 1.0" fill="#0c0c0c" fill-rule="evenodd" stroke="none"/>
    <path d="M77.1 0.45 Q77.95 0.45 78.5 1.05 79.1 1.65 79.1 2.45 L79.1 6.7 Q79.1 7.55 78.5 8.1 77.95 8.7 77.1 8.7 L3.65 8.7 Q2.85 8.7 2.25 8.1 1.65 7.55 1.65 6.7 L1.65 2.45 Q1.65 1.65 2.25 1.05 2.85 0.45 3.65 0.45 L77.1 0.45" fill="url(#gradient3)" fill-rule="evenodd" stroke="none"/>
    <path d="M79.1 1.45 L79.1 7.7 78.8 8.4 Q78.5 8.7 78.1 8.7 L73.25 8.7 Q72.85 8.7 72.55 8.4 72.25 8.1 72.25 7.7 L72.25 1.45 Q72.25 1.05 72.55 0.75 72.85 0.45 73.25 0.45 L78.1 0.45 Q78.5 0.45 78.8 0.75 L79.1 1.45" fill="url(#gradient4)" fill-rule="evenodd" stroke="none"/>
    <path d="M73.35 0.45 L78.1 0.45 78.1 8.7 73.35 8.7 73.35 0.45" fill="#363738" fill-rule="evenodd" stroke="none"/>
    <path d="M73.9 6.75 L77.5 6.75 77.5 7.75 73.9 7.75 73.9 6.75" fill="#0c0c0c" fill-rule="evenodd" stroke="none"/>
    <path d="M73.9 1.35 L77.5 1.35 77.5 2.3 73.9 2.3 73.9 1.35" fill="#0c0c0c" fill-rule="evenodd" stroke="none"/>
    <path d="M1.1 9.15 L0.55 8.05 Q0.0 6.45 0.0 4.2 0.0 1.95 0.55 0.75 L1.1 0.0 8.75 0.0 8.2 0.95 Q7.6 2.3 7.6 4.2 7.6 7.25 8.75 9.15 L1.1 9.15" fill="url(#gradient5)" fill-rule="evenodd" stroke="none"/>
    <path d="M1.85 7.0 L5.85 7.0 6.4 8.1 2.4 8.1 1.85 7.0" fill="#0c0c0c" fill-rule="evenodd" stroke="none"/>
    <path d="M1.45 3.9 L5.25 3.9 5.25 5.0 1.45 5.0 1.45 3.9" fill="#0c0c0c" fill-rule="evenodd" stroke="none"/>
    <path d="M2.4 1.0 L6.4 1.0 5.85 2.05 1.85 2.05 2.4 1.0" fill="#0c0c0c" fill-rule="evenodd" stroke="none"/>
  </g>
  <defs>
    <linearGradient gradientTransform="matrix(0.0, -0.005, -0.005, 0.0, 177.95, 4.6)" gradientUnits="userSpaceOnUse" id="gradient0" spreadMethod="pad" x1="-819.2" x2="819.2">
      <stop offset="0.0" stop-color="#008fee"/>
      <stop offset="0.36470588235294116" stop-color="#011d87"/>
      <stop offset="0.49019607843137253" stop-color="#02186c"/>
      <stop offset="0.611764705882353" stop-color="#052469"/>
      <stop offset="0.7411764705882353" stop-color="#0c4496"/>
      <stop offset="1.0" stop-color="#008fee"/>
    </linearGradient>
    <linearGradient gradientTransform="matrix(0.0, -0.005, -0.005, 0.0, 142.65, 4.6)" gradientUnits="userSpaceOnUse" id="gradient1" spreadMethod="pad" x1="-819.2" x2="819.2">
      <stop offset="0.0" stop-color="#505050"/>
      <stop offset="0.09803921568627451" stop-color="#373737"/>
      <stop offset="0.5254901960784314" stop-color="#6e6963"/>
      <stop offset="0.8862745098039215" stop-color="#3d3d3d"/>
      <stop offset="1.0" stop-color="#505050"/>
    </linearGradient>
    <linearGradient gradientTransform="matrix(0.0, -0.0056, -0.0056, 0.0, 214.0, 4.6)" gradientUnits="userSpaceOnUse" id="gradient2" spreadMethod="pad" x1="-819.2" x2="819.2">
      <stop offset="0.0" stop-color="#505050"/>
      <stop offset="0.09803921568627451" stop-color="#373737"/>
      <stop offset="0.5254901960784314" stop-color="#6e6963"/>
      <stop offset="0.8862745098039215" stop-color="#3d3d3d"/>
      <stop offset="1.0" stop-color="#505050"/>
    </linearGradient>
    <linearGradient gradientTransform="matrix(0.0, -0.005, 0.005, 0.0, 40.4, 4.6)" gradientUnits="userSpaceOnUse" id="gradient3" spreadMethod="pad" x1="-819.2" x2="819.2">
      <stop offset="0.0" stop-color="#ff6600"/>
      <stop offset="0.30196078431372547" stop-color="#8c2d15"/>
      <stop offset="0.43137254901960786" stop-color="#71180f"/>
      <stop offset="0.5568627450980392" stop-color="#64130b"/>
      <stop offset="0.7137254901960784" stop-color="#8a2e17"/>
      <stop offset="1.0" stop-color="#ff6600"/>
    </linearGradient>
    <linearGradient gradientTransform="matrix(0.0, -0.005, 0.005, 0.0, 75.7, 4.6)" gradientUnits="userSpaceOnUse" id="gradient4" spreadMethod="pad" x1="-819.2" x2="819.2">
      <stop offset="0.0" stop-color="#505050"/>
      <stop offset="0.09803921568627451" stop-color="#373737"/>
      <stop offset="0.5254901960784314" stop-color="#6e6963"/>
      <stop offset="0.8862745098039215" stop-color="#3d3d3d"/>
      <stop offset="1.0" stop-color="#505050"/>
    </linearGradient>
    <linearGradient gradientTransform="matrix(0.0, -0.0056, 0.0056, 0.0, 4.35, 4.6)" gradientUnits="userSpaceOnUse" id="gradient5" spreadMethod="pad" x1="-819.2" x2="819.2">
      <stop offset="0.0" stop-color="#505050"/>
      <stop offset="0.09803921568627451" stop-color="#373737"/>
      <stop offset="0.5254901960784314" stop-color="#6e6963"/>
      <stop offset="0.8862745098039215" stop-color="#3d3d3d"/>
      <stop offset="1.0" stop-color="#505050"/>
    </linearGradient>
  </defs>
</svg>
