<?xml version="1.0" encoding="UTF-8" standalone="no"?>
<svg xmlns:ffdec="https://www.free-decompiler.com/flash" xmlns:xlink="http://www.w3.org/1999/xlink" ffdec:objectType="shape" height="67.7px" width="67.7px" xmlns="http://www.w3.org/2000/svg">
  <g transform="matrix(1.0, 0.0, 0.0, 1.0, -5.0, 0.5)">
    <path d="M38.85 0.0 Q45.55 0.0 51.65 2.5 57.75 5.05 62.45 9.8 72.2 19.55 72.2 33.4 72.2 47.2 62.45 56.95 57.75 61.65 51.65 64.2 45.55 66.7 38.85 66.7 32.15 66.7 26.1 64.2 19.95 61.65 15.25 56.95 5.5 47.15 5.5 33.35 5.5 19.5 15.3 9.75 20.0 5.05 26.1 2.5 32.15 0.0 38.85 0.0" fill="url(#gradient0)" fill-rule="evenodd" stroke="none"/>
    <path d="M38.85 0.0 Q32.15 0.0 26.1 2.5 20.0 5.05 15.3 9.75 5.5 19.5 5.5 33.35 5.5 47.15 15.25 56.95 19.95 61.65 26.1 64.2 32.15 66.7 38.85 66.7 45.55 66.7 51.65 64.2 57.75 61.65 62.45 56.95 72.2 47.2 72.2 33.4 72.2 19.55 62.45 9.8 57.75 5.05 51.65 2.5 45.55 0.0 38.85 0.0 Z" fill="none" stroke="#1e1e1e" stroke-linecap="butt" stroke-linejoin="miter-clip" stroke-miterlimit="4.0" stroke-width="1.0"/>
    <path d="M57.3 14.7 Q65.05 22.45 65.0 33.45 65.0 44.45 57.25 52.15 53.5 55.9 48.65 57.9 43.85 59.9 38.55 59.9 33.25 59.9 28.4 57.9 23.55 55.9 19.8 52.15 12.05 44.4 12.1 33.4 12.1 22.4 19.85 14.7 23.6 10.95 28.45 8.95 33.25 6.95 38.55 6.95 43.85 6.95 48.7 8.95 53.55 10.95 57.3 14.7 M38.55 10.6 Q34.0 10.6 29.85 12.35 25.7 14.05 22.45 17.3 15.8 23.95 15.75 33.4 15.75 42.85 22.4 49.5 25.65 52.75 29.8 54.5 33.95 56.2 38.55 56.2 43.15 56.2 47.3 54.5 51.45 52.8 54.65 49.55 61.35 42.9 61.35 33.45 61.35 24.0 54.65 17.3 51.4 14.05 47.3 12.35 43.1 10.6 38.55 10.6" fill="#3a322d" fill-rule="evenodd" stroke="none"/>
  </g>
  <defs>
    <linearGradient gradientTransform="matrix(0.0, -0.0407, -0.0407, 0.0, 38.85, 33.35)" gradientUnits="userSpaceOnUse" id="gradient0" spreadMethod="pad" x1="-819.2" x2="819.2">
      <stop offset="0.0" stop-color="#6a6a6a"/>
      <stop offset="0.403921568627451" stop-color="#242424"/>
      <stop offset="1.0" stop-color="#8c8c8c"/>
    </linearGradient>
  </defs>
</svg>
