<?xml version="1.0" encoding="UTF-8" standalone="no"?>
<svg xmlns:ffdec="https://www.free-decompiler.com/flash" xmlns:xlink="http://www.w3.org/1999/xlink" ffdec:objectType="shape" height="64.05px" width="64.05px" xmlns="http://www.w3.org/2000/svg">
  <g transform="matrix(1.0, 0.0, 0.0, 1.0, -6.85, -1.35)">
    <path d="M50.95 4.2 Q56.7 6.6 61.15 11.1 70.4 20.3 70.4 33.4 70.4 46.45 61.15 55.65 56.7 60.1 50.95 62.5 45.2 64.9 38.85 64.9 32.55 64.9 26.8 62.5 21.0 60.1 16.55 55.65 7.35 46.4 7.35 33.35 7.35 20.3 16.6 11.05 21.05 6.6 26.8 4.2 32.55 1.85 38.85 1.85 45.2 1.85 50.95 4.2" fill="url(#gradient0)" fill-rule="evenodd" stroke="none"/>
    <path d="M50.95 4.2 Q45.2 1.85 38.85 1.85 32.55 1.85 26.8 4.2 21.05 6.6 16.6 11.05 7.35 20.3 7.35 33.35 7.35 46.4 16.55 55.65 21.0 60.1 26.8 62.5 32.55 64.9 38.85 64.9 45.2 64.9 50.95 62.5 56.7 60.1 61.15 55.65 70.4 46.45 70.4 33.4 70.4 20.3 61.15 11.1 56.7 6.6 50.95 4.2 Z" fill="none" stroke="#1e1e1e" stroke-linecap="butt" stroke-linejoin="miter-clip" stroke-miterlimit="4.0" stroke-width="1.0"/>
    <path d="M56.25 15.75 Q63.6 23.1 63.55 33.45 63.55 43.85 56.2 51.15 52.65 54.7 48.1 56.6 43.55 58.45 38.55 58.45 33.55 58.45 28.95 56.6 24.35 54.7 20.8 51.15 13.5 43.8 13.55 33.4 13.55 23.05 20.85 15.75 24.4 12.2 29.0 10.3 33.55 8.45 38.55 8.45 43.55 8.45 48.15 10.3 52.7 12.2 56.25 15.75 M38.55 11.9 Q34.25 11.9 30.3 13.55 26.4 15.15 23.3 18.2 17.05 24.5 17.0 33.4 17.0 42.35 23.3 48.65 26.35 51.7 30.25 53.35 34.2 54.95 38.55 54.95 42.9 54.95 46.8 53.35 50.75 51.75 53.75 48.7 60.1 42.4 60.1 33.45 60.1 24.55 53.75 18.2 50.7 15.15 46.8 13.55 42.85 11.9 38.55 11.9" fill="#3a322d" fill-rule="evenodd" stroke="none"/>
  </g>
  <defs>
    <linearGradient gradientTransform="matrix(0.0, -0.0385, -0.0385, 0.0, 38.85, 33.35)" gradientUnits="userSpaceOnUse" id="gradient0" spreadMethod="pad" x1="-819.2" x2="819.2">
      <stop offset="0.0" stop-color="#6a6a6a"/>
      <stop offset="0.403921568627451" stop-color="#242424"/>
      <stop offset="1.0" stop-color="#8c8c8c"/>
    </linearGradient>
  </defs>
</svg>
