<?xml version="1.0" encoding="UTF-8" standalone="no"?>
<svg xmlns:ffdec="https://www.free-decompiler.com/flash" xmlns:xlink="http://www.w3.org/1999/xlink" ffdec:objectType="shape" height="22.35px" width="18.65px" xmlns="http://www.w3.org/2000/svg">
  <g transform="matrix(1.0, 0.0, 0.0, 1.0, -29.15, -21.2)">
    <path d="M46.7 28.25 L45.0 28.25 45.0 41.15 47.8 41.15 47.8 43.55 29.15 43.55 29.15 41.15 31.4 41.15 31.4 28.25 29.9 28.25 29.9 25.8 31.6 25.8 31.6 23.1 36.5 23.1 36.5 21.85 40.05 21.85 40.05 23.1 45.0 23.1 45.0 25.8 46.7 25.8 46.7 28.25" fill="#ff7100" fill-rule="evenodd" stroke="none"/>
    <path d="M39.9 23.1 L36.85 23.1 36.85 21.2 39.9 21.2 39.9 23.1" fill="#ffaa00" fill-rule="evenodd" stroke="none"/>
    <path d="M43.95 25.6 L32.8 25.6 32.8 23.65 43.95 23.65 43.95 25.6" fill="#ffd900" fill-rule="evenodd" stroke="none"/>
    <path d="M46.35 27.8 L30.3 27.8 30.3 26.25 46.35 26.25 46.35 27.8" fill="url(#gradient0)" fill-rule="evenodd" stroke="none"/>
    <path d="M47.0 43.1 L29.9 43.1 29.9 41.4 47.0 41.4 47.0 43.1" fill="url(#gradient1)" fill-rule="evenodd" stroke="none"/>
    <path d="M33.3 28.55 L33.3 40.45 31.9 40.45 31.9 28.55 33.3 28.55" fill="#ff9e00" fill-rule="evenodd" stroke="none"/>
    <path d="M44.5 28.55 L44.5 40.45 43.05 40.45 43.05 28.55 44.5 28.55" fill="#ff9e00" fill-rule="evenodd" stroke="none"/>
    <path d="M37.15 28.55 L37.15 40.45 35.75 40.45 35.75 28.55 37.15 28.55" fill="#ffdb26" fill-rule="evenodd" stroke="none"/>
    <path d="M41.15 28.55 L41.15 40.45 39.5 40.45 39.5 28.55 41.15 28.55" fill="#ffdb26" fill-rule="evenodd" stroke="none"/>
  </g>
  <defs>
    <linearGradient gradientTransform="matrix(0.0098, 0.0, 0.0, -0.0098, 38.3, 27.0)" gradientUnits="userSpaceOnUse" id="gradient0" spreadMethod="pad" x1="-819.2" x2="819.2">
      <stop offset="0.0" stop-color="#ff9e00"/>
      <stop offset="0.050980392156862744" stop-color="#ffad01"/>
      <stop offset="0.1568627450980392" stop-color="#ffc602"/>
      <stop offset="0.2627450980392157" stop-color="#ffd802"/>
      <stop offset="0.3803921568627451" stop-color="#ffe303"/>
      <stop offset="0.5137254901960784" stop-color="#ffe603"/>
      <stop offset="0.6313725490196078" stop-color="#ffe203"/>
      <stop offset="0.7450980392156863" stop-color="#ffd702"/>
      <stop offset="0.8549019607843137" stop-color="#ffc402"/>
      <stop offset="0.9607843137254902" stop-color="#ffaa00"/>
      <stop offset="1.0" stop-color="#ff9e00"/>
    </linearGradient>
    <linearGradient gradientTransform="matrix(0.0104, 0.0, 0.0, -0.0104, 38.45, 42.25)" gradientUnits="userSpaceOnUse" id="gradient1" spreadMethod="pad" x1="-819.2" x2="819.2">
      <stop offset="0.0" stop-color="#ff9e00"/>
      <stop offset="0.050980392156862744" stop-color="#ffad01"/>
      <stop offset="0.1568627450980392" stop-color="#ffc602"/>
      <stop offset="0.2627450980392157" stop-color="#ffd802"/>
      <stop offset="0.3803921568627451" stop-color="#ffe303"/>
      <stop offset="0.5137254901960784" stop-color="#ffe603"/>
      <stop offset="0.6313725490196078" stop-color="#ffe203"/>
      <stop offset="0.7450980392156863" stop-color="#ffd702"/>
      <stop offset="0.8549019607843137" stop-color="#ffc402"/>
      <stop offset="0.9607843137254902" stop-color="#ffaa00"/>
      <stop offset="1.0" stop-color="#ff9e00"/>
    </linearGradient>
  </defs>
</svg>
