<?xml version="1.0" encoding="UTF-8" standalone="no"?>
<svg xmlns:ffdec="https://www.free-decompiler.com/flash" xmlns:xlink="http://www.w3.org/1999/xlink" ffdec:objectType="shape" height="392.85px" width="251.2px" xmlns="http://www.w3.org/2000/svg">
  <g transform="matrix(1.0, 0.0, 0.0, 1.0, 0.0, 0.0)">
    <path d="M248.6 21.55 Q249.45 22.45 250.1 23.95 250.7 25.45 250.7 26.7 L250.7 389.35 Q250.7 390.6 249.8 391.45 248.95 392.35 247.7 392.35 L7.9 392.35 5.15 391.75 2.75 390.25 2.65 390.1 Q1.75 389.25 1.15 387.75 0.5 386.25 0.5 385.0 L0.5 8.75 Q0.5 7.5 1.15 6.0 1.75 4.5 2.65 3.65 L3.65 2.65 Q4.5 1.75 6.0 1.15 7.5 0.5 8.75 0.5 L224.5 0.5 Q225.75 0.5 227.25 1.15 228.8 1.75 229.65 2.65 L248.6 21.55" fill="url(#gradient0)" fill-rule="evenodd" stroke="none"/>
    <path d="M248.6 21.55 L229.65 2.65 Q228.8 1.75 227.25 1.15 225.75 0.5 224.5 0.5 L8.75 0.5 Q7.5 0.5 6.0 1.15 4.5 1.75 3.65 2.65 L2.65 3.65 Q1.75 4.5 1.15 6.0 0.5 7.5 0.5 8.75 L0.5 385.0 Q0.5 386.25 1.15 387.75 1.75 389.25 2.65 390.1 L2.75 390.25 5.15 391.75 7.9 392.35 247.7 392.35 Q248.95 392.35 249.8 391.45 250.7 390.6 250.7 389.35 L250.7 26.7 Q250.7 25.45 250.1 23.95 249.45 22.45 248.6 21.55 Z" fill="none" stroke="#00b1ff" stroke-linecap="butt" stroke-linejoin="miter-clip" stroke-miterlimit="4.0" stroke-width="1.0"/>
  </g>
  <defs>
    <linearGradient gradientTransform="matrix(0.1447, 0.2408, 0.2408, -0.1447, 122.0, 199.85)" gradientUnits="userSpaceOnUse" id="gradient0" spreadMethod="pad" x1="-819.2" x2="819.2">
      <stop offset="0.0" stop-color="#0091ee"/>
      <stop offset="0.00392156862745098" stop-color="#0090ed"/>
      <stop offset="0.11764705882352941" stop-color="#0078d8"/>
      <stop offset="0.24313725490196078" stop-color="#0166c7"/>
      <stop offset="0.396078431372549" stop-color="#0159bc"/>
      <stop offset="0.592156862745098" stop-color="#0151b5"/>
      <stop offset="1.0" stop-color="#014fb3"/>
    </linearGradient>
  </defs>
</svg>
