<?xml version="1.0" encoding="UTF-8" standalone="no"?>
<svg xmlns:ffdec="https://www.free-decompiler.com/flash" xmlns:xlink="http://www.w3.org/1999/xlink" ffdec:objectType="shape" height="346.95px" width="236.6px" xmlns="http://www.w3.org/2000/svg">
  <g transform="matrix(1.0, 0.0, 0.0, 1.0, -6.4, -36.8)">
    <path d="M39.5 36.8 L183.25 36.8 186.1 37.3 Q187.7 37.85 188.7 38.55 L200.35 47.0 Q201.35 47.75 202.95 48.3 L205.75 48.8 240.0 48.8 Q241.25 48.8 242.1 49.7 243.0 50.55 243.0 51.8 L243.0 380.75 Q243.0 382.0 242.1 382.85 241.25 383.75 240.0 383.75 L39.5 383.75 38.8 286.2 39.5 36.8" fill="url(#gradient0)" fill-rule="evenodd" stroke="none"/>
    <path d="M39.5 383.75 L28.4 383.75 Q27.15 383.75 26.3 382.85 25.4 382.0 25.4 380.75 L25.4 319.9 Q25.4 318.65 24.8 317.15 24.15 315.65 23.3 314.75 L8.45 299.55 Q7.6 298.7 7.0 297.15 6.4 295.65 6.4 294.4 L6.4 39.8 Q6.4 38.55 7.3 37.7 8.15 36.8 9.4 36.8 L39.5 36.8 38.8 286.2 39.5 383.75" fill="url(#gradient1)" fill-rule="evenodd" stroke="none"/>
  </g>
  <defs>
    <linearGradient gradientTransform="matrix(0.0471, -0.2217, -0.2217, -0.0471, 124.85, 214.05)" gradientUnits="userSpaceOnUse" id="gradient0" spreadMethod="pad" x1="-819.2" x2="819.2">
      <stop offset="0.0" stop-color="#000830"/>
      <stop offset="0.34509803921568627" stop-color="#001646"/>
      <stop offset="1.0" stop-color="#013878"/>
    </linearGradient>
    <linearGradient gradientTransform="matrix(0.0471, -0.2217, -0.2217, -0.0471, 122.85, 214.05)" gradientUnits="userSpaceOnUse" id="gradient1" spreadMethod="pad" x1="-819.2" x2="819.2">
      <stop offset="0.0" stop-color="#000830"/>
      <stop offset="0.34509803921568627" stop-color="#001646"/>
      <stop offset="1.0" stop-color="#013878"/>
    </linearGradient>
  </defs>
</svg>
