<?xml version="1.0" encoding="UTF-8" standalone="no"?>
<svg xmlns:ffdec="https://www.free-decompiler.com/flash" xmlns:xlink="http://www.w3.org/1999/xlink" ffdec:objectType="shape" height="38.85px" width="69.7px" xmlns="http://www.w3.org/2000/svg">
  <g transform="matrix(1.0, 0.0, 0.0, 1.0, 6.6, -4.25)">
    <path d="M51.35 10.15 Q53.4 4.65 56.3 4.85 59.15 5.05 61.2 10.75 63.2 16.45 63.1 24.35 63.05 32.2 61.0 37.8 58.9 43.3 56.0 43.1 53.1 43.0 51.15 37.25 49.15 31.65 49.2 23.6 49.2 15.75 51.35 10.15" fill="#333c49" fill-rule="evenodd" stroke="none"/>
    <path d="M59.25 10.1 Q61.25 15.9 61.2 23.75 61.15 31.6 59.05 37.2 56.95 42.7 54.1 42.55 51.2 42.4 49.2 36.7 47.2 31.05 47.3 23.05 47.3 15.2 49.4 9.6 51.45 4.15 54.4 4.25 57.25 4.4 59.25 10.1" fill="url(#gradient0)" fill-rule="evenodd" stroke="none"/>
    <path d="M52.55 7.85 Q54.7 8.0 56.25 12.55 57.75 17.05 57.7 23.35 57.65 29.65 56.05 34.05 54.45 38.45 52.3 38.3 50.1 38.2 48.6 33.65 47.1 29.15 47.15 22.8 47.2 16.5 48.75 12.1 50.35 7.75 52.55 7.85" fill="#0045e5" fill-rule="evenodd" stroke="none"/>
    <path d="M57.1 15.9 Q57.75 19.4 57.7 23.35 57.65 31.25 55.3 35.75 L54.55 35.9 Q52.7 35.8 51.45 31.95 50.15 28.15 50.2 22.8 50.25 17.5 51.55 13.8 52.9 10.1 54.75 10.2 L55.3 10.35 Q56.45 12.5 57.1 15.9" fill="#32abfc" fill-rule="evenodd" stroke="none"/>
    <path d="M-1.65 17.1 L-1.4 16.85 -1.55 16.9 -0.35 14.5 12.0 12.95 22.95 16.9 23.0 16.9 24.35 17.1 25.65 16.4 26.55 16.85 26.95 15.15 28.45 14.65 28.7 14.9 29.4 14.8 30.2 15.25 32.35 14.25 32.85 14.75 31.05 15.9 31.35 16.4 30.65 16.85 30.75 17.1 31.5 17.1 32.25 17.9 43.75 18.5 43.75 23.25 43.65 23.5 43.6 23.55 43.55 23.85 35.7 32.05 35.6 32.1 35.65 32.0 31.35 31.55 28.4 30.45 22.85 30.75 10.2 34.9 -0.1 30.2 Q-1.45 29.3 -3.15 28.75 L-3.9 28.45 -4.45 26.95 -2.15 18.6 -1.95 17.75 -1.9 17.35 -1.65 17.1" fill="url(#gradient1)" fill-rule="evenodd" stroke="none"/>
    <path d="M-1.65 17.1 L-1.9 17.35 -1.95 17.75 -2.15 18.6 -4.45 26.95 -3.9 28.45 -3.15 28.75 Q-1.45 29.3 -0.1 30.2 L-1.65 30.55 Q-4.1 30.2 -4.6 27.6 -5.05 24.9 -4.0 22.75 -3.0 20.55 -2.7 19.0 -2.45 17.45 -1.55 16.9 L-1.65 17.1" fill="#0466cc" fill-rule="evenodd" stroke="none"/>
    <path d="M43.4 19.2 L43.65 23.35 35.55 32.05 23.1 30.75 14.8 33.4 15.8 31.2 14.25 33.55 10.2 34.9 4.25 33.05 1.4 34.55 1.05 34.25 -2.3 31.1 -5.75 26.95 -2.1 18.45 -2.15 18.7 -2.3 19.2 -2.15 20.05 Q-2.1 22.8 -1.65 23.8 L-1.4 25.15 -1.3 25.9 -1.0 26.7 -0.25 28.45 2.85 27.95 12.6 25.55 15.05 27.4 21.4 26.7 25.25 26.15 Q30.25 25.8 35.4 26.05 L35.35 31.1 39.95 26.55 43.05 23.1 43.4 19.2" fill="#0a6cd3" fill-rule="evenodd" stroke="none"/>
    <path d="M23.2 30.15 L10.2 34.35 4.3 32.35 1.35 34.05 4.5 29.45 23.3 28.4 33.7 31.25 23.2 30.15" fill="#045aae" fill-rule="evenodd" stroke="none"/>
    <path d="M10.35 34.0 L11.55 31.3 15.2 30.65 13.9 32.7 10.35 34.0" fill="#04357c" fill-rule="evenodd" stroke="none"/>
    <path d="M42.75 22.45 L36.15 29.95 36.2 26.2 42.85 20.4 42.75 22.45" fill="#0669d1" fill-rule="evenodd" stroke="none"/>
    <path d="M24.65 22.7 L27.1 22.3 27.9 22.75 30.05 21.75 30.55 22.25 28.75 23.4 29.1 23.9 28.4 24.35 Q29.15 24.65 29.7 25.1 L35.4 25.55 43.05 18.9 43.05 19.35 35.4 26.05 26.4 26.4 25.0 26.35 21.5 27.4 15.05 27.4 12.6 25.55 4.8 25.4 12.55 24.75 15.35 24.5 24.25 24.35 24.65 22.7" fill="#0466cc" fill-rule="evenodd" stroke="none"/>
    <path d="M11.0 31.55 Q11.0 31.35 11.7 31.25 L13.3 31.4 13.6 31.55 12.7 31.8 11.5 31.9 11.1 31.75 11.0 31.55" fill="#94fdff" fill-rule="evenodd" stroke="none"/>
    <path d="M9.8 33.7 L9.65 33.65 Q9.55 33.2 10.25 33.0 L11.2 32.85 12.2 32.8 13.1 32.65 11.9 33.1 9.8 33.7" fill="#94fdff" fill-rule="evenodd" stroke="none"/>
    <path d="M-1.3 13.85 L-0.15 14.2 -5.65 26.75 -6.6 25.7 -1.3 13.85" fill="#27baff" fill-rule="evenodd" stroke="none"/>
  </g>
  <defs>
    <linearGradient gradientTransform="matrix(0.013, 4.0E-4, -2.0E-4, 0.0085, 54.2, 23.4)" gradientUnits="userSpaceOnUse" id="gradient0" spreadMethod="pad" x1="-819.2" x2="819.2">
      <stop offset="0.10980392156862745" stop-color="#aaaaaa"/>
      <stop offset="1.0" stop-color="#282828"/>
    </linearGradient>
    <linearGradient gradientTransform="matrix(0.0431, 0.0, 0.0, -0.0431, 21.3, 23.8)" gradientUnits="userSpaceOnUse" id="gradient1" spreadMethod="pad" x1="-819.2" x2="819.2">
      <stop offset="0.0" stop-color="#095cfa"/>
      <stop offset="0.17254901960784313" stop-color="#1775fb"/>
      <stop offset="0.6470588235294118" stop-color="#40c7ff"/>
      <stop offset="1.0" stop-color="#4dd6ff"/>
    </linearGradient>
  </defs>
</svg>
