<?xml version="1.0" encoding="UTF-8" standalone="no"?>
<svg xmlns:ffdec="https://www.free-decompiler.com/flash" xmlns:xlink="http://www.w3.org/1999/xlink" ffdec:objectType="shape" height="30.35px" width="38.05px" xmlns="http://www.w3.org/2000/svg">
  <g transform="matrix(1.0, 0.0, 0.0, 1.0, -0.55, -4.3)">
    <path d="M33.3 17.2 L32.95 17.35 Q32.8 17.35 32.8 17.5 32.8 17.85 33.1 17.85 L33.35 17.75 33.4 17.75 33.35 17.85 33.05 17.9 32.75 17.85 32.6 17.5 32.75 17.25 33.05 17.1 33.3 17.2 M32.1 15.35 Q31.75 15.4 31.75 15.75 31.75 16.1 32.05 16.1 L32.25 16.0 32.2 16.1 31.9 16.2 31.7 16.1 31.5 15.75 31.7 15.45 Q31.75 15.35 31.9 15.35 L32.1 15.35 M13.05 25.65 L12.8 25.65 Q12.35 25.6 12.35 26.0 L12.45 26.2 12.55 26.3 12.45 26.25 12.35 25.95 12.45 25.65 12.75 25.5 13.05 25.65 M13.85 26.85 L13.65 26.85 13.35 26.75 13.6 26.7 13.85 26.85 M13.15 27.15 L13.6 27.5 13.25 27.4 13.15 27.15" fill="#383947" fill-rule="evenodd" stroke="none"/>
    <path d="M34.05 17.75 L34.9 19.2 33.35 19.1 32.95 19.05 30.1 14.2 31.9 14.2 32.6 15.35 32.4 15.35 32.1 15.35 31.9 15.35 Q31.75 15.35 31.7 15.45 L31.5 15.75 31.7 16.1 31.9 16.2 32.2 16.1 32.25 16.0 33.0 16.0 33.7 17.15 33.35 17.15 33.3 17.2 33.05 17.1 32.75 17.25 32.6 17.5 32.75 17.85 33.05 17.9 33.35 17.85 33.4 17.75 34.05 17.75 M13.2 25.15 L13.5 25.65 13.05 25.65 12.75 25.5 12.45 25.65 12.35 25.95 12.45 26.25 12.55 26.3 12.6 26.3 12.9 26.35 13.05 26.3 13.9 26.3 14.25 26.85 13.85 26.85 13.6 26.7 13.35 26.75 13.15 27.1 13.15 27.15 13.25 27.4 13.6 27.5 14.65 27.5 15.0 28.15 15.0 28.2 13.05 27.8 11.1 24.95 13.2 25.15" fill="#021d42" fill-rule="evenodd" stroke="none"/>
    <path d="M33.95 28.65 L23.15 25.9 23.2 25.9 20.15 25.2 20.9 25.05 20.95 25.05 33.05 27.15 33.1 27.85 Q33.35 28.45 33.95 28.65 M23.0 25.85 L23.45 25.95 23.0 25.8 23.0 25.85" fill="#064d93" fill-rule="evenodd" stroke="none"/>
    <path d="M8.7 26.9 L9.85 24.8 11.1 24.95 13.05 27.8 8.7 26.9 M24.65 14.15 L24.85 14.2 30.1 14.2 32.95 19.05 32.6 19.05 25.6 18.45 25.5 18.45 25.5 18.35 26.6 16.8 26.55 16.8 24.65 14.15" fill="#04357c" fill-rule="evenodd" stroke="none"/>
    <path d="M14.9 15.0 L20.35 12.5 21.65 13.0 16.65 22.45 16.6 22.65 13.05 23.55 12.65 23.85 12.9 23.35 15.4 16.75 Q15.6 16.15 15.35 15.65 L14.9 15.0" fill="#3ec4fd" fill-rule="evenodd" stroke="none"/>
    <path d="M33.7 17.15 L36.25 17.15 36.2 17.25 36.4 17.75 34.05 17.75 33.4 17.75 33.35 17.75 33.1 17.85 Q32.8 17.85 32.8 17.5 32.8 17.35 32.95 17.35 L33.3 17.2 33.35 17.15 33.7 17.15 M13.5 25.65 L15.6 25.65 15.9 26.0 15.7 26.3 13.9 26.3 13.05 26.3 12.9 26.35 12.6 26.3 12.55 26.3 12.45 26.2 12.35 26.0 Q12.35 25.6 12.8 25.65 L13.05 25.65 13.5 25.65 M14.25 26.85 L15.9 26.85 16.25 27.2 16.0 27.5 14.65 27.5 13.6 27.5 13.15 27.15 13.15 27.1 13.35 26.75 13.65 26.85 13.85 26.85 14.25 26.85 M32.6 15.35 L35.75 15.35 35.6 15.8 35.6 16.0 33.0 16.0 32.25 16.0 32.05 16.1 Q31.75 16.1 31.75 15.75 31.75 15.4 32.1 15.35 L32.4 15.35 32.6 15.35" fill="#d6eefe" fill-rule="evenodd" stroke="none"/>
    <path d="M37.75 20.2 L37.95 20.9 37.7 21.65 35.15 27.7 34.3 27.8 33.7 27.1 34.65 24.55 Q35.5 22.1 36.95 20.0 L37.75 20.2 M30.55 10.25 L33.1 11.6 33.6 11.85 33.7 11.85 34.0 11.95 34.15 12.05 34.15 12.1 34.3 12.35 34.25 12.4 34.3 12.7 34.3 12.75 Q34.2 13.3 33.7 13.45 L33.35 13.45 33.3 13.45 33.15 13.4 33.1 13.4 32.95 13.3 32.95 13.25 31.35 12.55 29.55 11.6 26.9 10.25 26.25 9.8 Q26.25 9.35 26.65 8.8 L26.7 8.7 26.7 8.65 Q26.7 8.55 26.9 8.55 L27.05 8.6 27.45 8.7 27.85 8.9 27.95 9.0 28.85 9.35 30.55 10.25 M11.0 23.0 L10.95 22.7 12.05 19.1 Q12.7 17.2 13.8 15.55 14.5 15.35 14.75 15.95 14.85 16.75 14.0 18.55 L12.65 21.95 11.8 23.55 11.3 23.35 11.0 23.0 M14.4 29.25 L14.6 29.0 Q14.65 28.85 14.85 28.8 L15.75 28.95 16.35 29.2 16.65 29.4 17.25 29.85 19.25 30.95 21.25 32.0 Q22.1 32.45 22.1 33.25 22.1 33.9 21.55 34.0 L20.55 33.8 20.5 33.75 19.15 33.05 17.55 32.1 16.6 31.55 15.2 30.7 14.5 30.25 14.3 30.1 14.3 29.8 14.35 29.25 14.4 29.25" fill="#0786e5" fill-rule="evenodd" stroke="none"/>
    <path d="M36.65 19.3 L37.7 19.35 38.5 20.15 Q38.7 20.7 38.5 21.25 L35.9 27.85 35.05 28.65 34.15 28.7 33.95 28.65 Q33.35 28.45 33.1 27.85 L33.05 27.15 33.05 27.1 33.1 26.7 35.75 20.15 36.5 19.35 36.65 19.3 M15.25 28.25 L15.55 28.35 15.8 28.45 22.0 31.85 Q22.55 32.2 22.7 32.75 22.9 33.35 22.6 33.85 L21.7 34.55 21.25 34.65 20.7 34.5 20.55 34.45 14.4 31.0 13.95 30.6 13.75 30.1 Q13.55 29.55 13.85 29.05 14.15 28.5 14.7 28.3 L15.25 28.25 M13.4 14.9 L14.3 14.85 14.9 15.0 15.35 15.65 Q15.6 16.15 15.4 16.75 L12.9 23.35 12.65 23.85 12.3 24.1 12.2 24.15 12.1 24.2 11.5 24.25 11.15 24.25 11.1 24.25 11.05 24.25 11.0 24.2 Q10.45 23.95 10.2 23.4 L10.2 23.35 10.1 23.25 10.05 23.0 10.05 22.95 10.05 22.85 10.05 22.8 10.2 22.3 12.7 15.7 Q12.9 15.1 13.4 14.9 M26.5 8.1 L26.55 8.05 27.65 8.15 34.0 11.4 Q34.55 11.65 34.7 12.25 L34.65 13.4 33.75 14.15 33.1 14.15 32.6 14.0 26.3 10.75 26.0 10.6 25.6 9.9 Q25.4 9.35 25.65 8.75 25.9 8.25 26.5 8.1 M37.75 20.2 L36.95 20.0 Q35.5 22.1 34.65 24.55 L33.7 27.1 34.3 27.8 35.15 27.7 37.7 21.65 37.95 20.9 37.75 20.2 M30.55 10.25 L28.85 9.35 27.95 9.0 27.85 8.9 27.45 8.7 27.05 8.6 26.9 8.55 Q26.7 8.55 26.7 8.65 L26.7 8.7 26.65 8.8 Q26.25 9.35 26.25 9.8 L26.9 10.25 29.55 11.6 31.35 12.55 32.95 13.25 32.95 13.3 33.1 13.4 33.15 13.4 33.3 13.45 33.35 13.45 33.7 13.45 Q34.2 13.3 34.3 12.75 L34.3 12.7 34.25 12.4 34.3 12.35 34.15 12.1 34.15 12.05 34.0 11.95 33.7 11.85 33.6 11.85 33.1 11.6 30.55 10.25 M11.0 23.0 L11.3 23.35 11.8 23.55 12.65 21.95 14.0 18.55 Q14.85 16.75 14.75 15.95 14.5 15.35 13.8 15.55 12.7 17.2 12.05 19.1 L10.95 22.7 11.0 23.0 M14.4 29.25 L14.35 29.25 14.3 29.8 14.3 30.1 14.5 30.25 15.2 30.7 16.6 31.55 17.55 32.1 19.15 33.05 20.5 33.75 20.55 33.8 21.55 34.0 Q22.1 33.9 22.1 33.25 22.1 32.45 21.25 32.0 L19.25 30.95 17.25 29.85 16.65 29.4 16.35 29.2 15.75 28.95 14.85 28.8 Q14.65 28.85 14.6 29.0 L14.4 29.25" fill="#43ffff" fill-rule="evenodd" stroke="none"/>
    <path d="M10.05 22.95 L10.05 23.0 10.1 23.25 10.2 23.35 9.7 23.35 0.6 21.75 4.05 22.1 10.05 22.95" fill="#86bff9" fill-rule="evenodd" stroke="none"/>
    <path d="M23.7 19.65 L25.05 21.0 22.9 24.65 22.85 24.65 21.6 22.6 21.6 22.55 23.7 19.65" fill="#43eaff" fill-rule="evenodd" stroke="none"/>
    <path d="M34.9 19.2 L36.65 19.3 36.5 19.35 35.75 20.15 33.1 26.7 33.05 27.1 33.05 27.15 20.95 25.05 22.85 24.65 22.9 24.65 25.05 21.0 25.15 20.85 25.6 18.45 32.6 19.05 33.35 19.1 34.9 19.2" fill="url(#gradient0)" fill-rule="evenodd" stroke="none"/>
    <path d="M15.0 28.2 L15.25 28.25 14.7 28.3 Q14.15 28.5 13.85 29.05 13.55 29.55 13.75 30.1 L13.95 30.6 3.4 28.1 Q3.05 27.1 3.45 26.65 3.9 26.05 4.6 26.0 L8.7 26.9 13.05 27.8 15.0 28.2 M16.75 11.1 L16.7 11.1 16.55 10.95 Q15.95 9.9 16.8 9.15 L18.25 9.0 22.65 8.45 26.5 8.1 Q25.9 8.25 25.65 8.75 25.4 9.35 25.6 9.9 L26.0 10.6 16.75 11.1" fill="url(#gradient1)" fill-rule="evenodd" stroke="none"/>
    <path d="M20.35 12.5 L16.75 11.1 26.0 10.6 26.3 10.75 32.6 14.0 33.1 14.15 31.9 14.2 30.1 14.2 24.85 14.2 24.65 14.15 24.6 14.1 21.65 13.0 20.35 12.5" fill="url(#gradient2)" fill-rule="evenodd" stroke="none"/>
    <path d="M21.65 13.0 L24.6 14.1 24.45 14.2 23.65 19.65 23.7 19.65 21.6 22.55 21.6 22.6 16.6 22.65 16.65 22.45 21.65 13.0" fill="url(#gradient3)" fill-rule="evenodd" stroke="none"/>
    <path d="M24.6 14.1 L24.65 14.15 26.55 16.8 26.6 16.8 25.5 18.35 25.4 18.4 25.5 18.45 25.6 18.45 25.15 20.85 25.05 21.0 23.7 19.65 23.65 19.65 24.45 14.2 24.6 14.1" fill="url(#gradient4)" fill-rule="evenodd" stroke="none"/>
    <path d="M20.15 25.2 L17.85 25.65 13.2 25.15 11.1 24.95 9.85 24.8 10.25 24.1 11.05 24.25 11.1 24.25 11.15 24.25 11.5 24.25 12.1 24.2 12.2 24.15 12.3 24.1 12.65 23.85 13.05 23.55 16.6 22.65 21.6 22.6 22.85 24.65 20.95 25.05 20.9 25.05 20.15 25.2" fill="url(#gradient5)" fill-rule="evenodd" stroke="none"/>
    <path d="M11.05 24.25 L1.45 22.65 1.0 22.4 0.55 21.8 0.6 21.5 2.25 18.35 2.35 18.45 7.6 18.65 4.2 15.2 13.4 14.9 Q12.9 15.1 12.7 15.7 L10.2 22.3 10.05 22.8 10.05 22.85 10.05 22.95 4.05 22.1 0.6 21.75 9.7 23.35 10.2 23.35 10.2 23.4 Q10.45 23.95 11.0 24.2 L11.05 24.25" fill="url(#gradient6)" fill-rule="evenodd" stroke="none"/>
    <path d="M20.55 34.45 L10.0 32.0 9.55 31.6 10.6 30.95 6.65 30.05 3.5 28.25 3.45 28.15 3.4 28.1 13.95 30.6 14.4 31.0 20.55 34.45" fill="url(#gradient7)" fill-rule="evenodd" stroke="none"/>
    <path d="M9.55 31.6 L6.2 33.8 4.7 33.4 5.35 32.3 5.3 32.25 5.45 32.1 6.6 30.1 6.65 30.05 10.6 30.95 9.55 31.6 M2.25 18.35 L1.65 16.65 1.55 16.55 1.3 15.75 1.2 15.55 1.0 14.85 0.9 14.65 0.6 13.75 2.1 13.05 4.2 15.2 7.6 18.65 2.35 18.45 2.25 18.35 M18.25 9.0 L18.3 7.45 18.3 7.35 18.35 6.35 18.35 6.2 18.4 5.55 18.35 5.5 18.4 5.25 18.4 4.75 20.5 4.3 22.65 8.45 18.25 9.0" fill="#94fdff" fill-rule="evenodd" stroke="none"/>
  </g>
  <defs>
    <linearGradient gradientTransform="matrix(-0.0085, -0.0033, 0.0019, -0.0049, 27.45, 22.25)" gradientUnits="userSpaceOnUse" id="gradient0" spreadMethod="pad" x1="-819.2" x2="819.2">
      <stop offset="0.0" stop-color="#009bdd"/>
      <stop offset="0.5333333333333333" stop-color="#1d93f2"/>
      <stop offset="1.0" stop-color="#81ccfe"/>
    </linearGradient>
    <linearGradient gradientTransform="matrix(-0.0233, 0.0, 0.0, -0.0233, -42.6, 22.3)" gradientUnits="userSpaceOnUse" id="gradient1" spreadMethod="pad" x1="-819.2" x2="819.2">
      <stop offset="0.0" stop-color="#26eaff"/>
      <stop offset="0.23137254901960785" stop-color="#25e6ff"/>
      <stop offset="0.4588235294117647" stop-color="#20daff"/>
      <stop offset="0.6823529411764706" stop-color="#19c7ff"/>
      <stop offset="0.9058823529411765" stop-color="#0eabff"/>
      <stop offset="1.0" stop-color="#099dff"/>
    </linearGradient>
    <linearGradient gradientTransform="matrix(-0.0014, 0.0028, -0.0033, -0.0016, 26.6, 12.95)" gradientUnits="userSpaceOnUse" id="gradient2" spreadMethod="pad" x1="-819.2" x2="819.2">
      <stop offset="0.0" stop-color="#009bdd"/>
      <stop offset="0.5333333333333333" stop-color="#1d93f2"/>
      <stop offset="1.0" stop-color="#81ccfe"/>
    </linearGradient>
    <linearGradient gradientTransform="matrix(0.0038, 0.0024, -0.3895, 0.6044, 25.15, 10.55)" gradientUnits="userSpaceOnUse" id="gradient3" spreadMethod="pad" x1="-819.2" x2="819.2">
      <stop offset="0.0" stop-color="#095ed4"/>
      <stop offset="0.17647058823529413" stop-color="#1d93f2"/>
      <stop offset="1.0" stop-color="#26abff"/>
    </linearGradient>
    <linearGradient gradientTransform="matrix(0.0018, -0.0025, 0.0034, 0.0024, 25.1, 17.5)" gradientUnits="userSpaceOnUse" id="gradient4" spreadMethod="pad" x1="-819.2" x2="819.2">
      <stop offset="0.0" stop-color="#095ed4"/>
      <stop offset="0.7019607843137254" stop-color="#1d93f2"/>
      <stop offset="1.0" stop-color="#26abff"/>
    </linearGradient>
    <linearGradient gradientTransform="matrix(-0.0077, 0.0019, -5.0E-4, -0.0022, 16.4, 24.4)" gradientUnits="userSpaceOnUse" id="gradient5" spreadMethod="pad" x1="-819.2" x2="819.2">
      <stop offset="0.0" stop-color="#095ed4"/>
      <stop offset="0.7019607843137254" stop-color="#1d93f2"/>
      <stop offset="1.0" stop-color="#26abff"/>
    </linearGradient>
    <linearGradient gradientTransform="matrix(-0.0046, -0.0017, 0.002, -0.0053, 6.85, 18.85)" gradientUnits="userSpaceOnUse" id="gradient6" spreadMethod="pad" x1="-819.2" x2="819.2">
      <stop offset="0.0" stop-color="#095ed4"/>
      <stop offset="0.7019607843137254" stop-color="#1d93f2"/>
      <stop offset="1.0" stop-color="#26abff"/>
    </linearGradient>
    <linearGradient gradientTransform="matrix(-0.0026, 0.0037, -0.0032, -0.0022, 11.95, 31.3)" gradientUnits="userSpaceOnUse" id="gradient7" spreadMethod="pad" x1="-819.2" x2="819.2">
      <stop offset="0.0" stop-color="#009bdd"/>
      <stop offset="0.5333333333333333" stop-color="#1d93f2"/>
      <stop offset="1.0" stop-color="#81ccfe"/>
    </linearGradient>
  </defs>
</svg>
