<?xml version="1.0" encoding="UTF-8" standalone="no"?>
<svg xmlns:ffdec="https://www.free-decompiler.com/flash" xmlns:xlink="http://www.w3.org/1999/xlink" ffdec:objectType="shape" height="38.9px" width="54.8px" xmlns="http://www.w3.org/2000/svg">
  <g transform="matrix(1.0, 0.0, 0.0, 1.0, 7.35, 0.0)">
    <path d="M-6.8 5.7 L-6.8 9.5 -7.35 9.5 -7.35 5.15 -3.0 5.15 -3.0 5.7 -6.8 5.7" fill="#03e8ff" fill-rule="evenodd" stroke="none"/>
    <path d="M46.8 5.7 L43.0 5.7 43.0 5.15 47.35 5.15 47.35 9.5 46.8 9.5 46.8 5.7" fill="#03e8ff" fill-rule="evenodd" stroke="none"/>
    <path d="M-6.85 33.9 L-3.0 33.9 -3.0 34.4 -7.35 34.4 -7.35 30.05 -6.85 30.05 -6.85 33.9" fill="#03e8ff" fill-rule="evenodd" stroke="none"/>
    <path d="M46.9 33.9 L46.9 30.05 47.45 30.05 47.45 34.4 43.1 34.4 43.1 33.9 46.9 33.9" fill="#03e8ff" fill-rule="evenodd" stroke="none"/>
    <path d="M13.45 32.35 L13.5 32.3 13.5 32.35 13.45 32.35" fill="#053dad" fill-rule="evenodd" stroke="none"/>
    <path d="M37.15 16.55 L36.75 16.7 Q36.55 16.75 36.55 16.95 36.55 17.35 36.95 17.35 L37.25 17.25 37.3 17.25 37.25 17.35 36.85 17.45 36.5 17.35 36.3 16.95 36.5 16.6 Q36.65 16.4 36.85 16.4 L37.15 16.55 M35.85 15.0 L35.75 15.1 Q35.65 15.25 35.4 15.25 L35.1 15.1 34.85 14.7 35.1 14.3 Q35.2 14.15 35.4 14.15 L35.65 14.15 Q35.2 14.25 35.2 14.65 35.2 15.1 35.6 15.1 L35.85 15.0 M10.55 28.2 L10.45 28.15 10.3 27.75 10.45 27.4 10.85 27.2 11.25 27.4 10.9 27.4 Q10.35 27.3 10.35 27.8 L10.45 28.1 10.55 28.2 M12.25 28.9 L12.0 28.9 11.6 28.8 11.9 28.75 Q12.1 28.75 12.25 28.9 M11.35 29.3 L11.95 29.75 11.9 29.75 11.45 29.6 11.35 29.3" fill="#383947" fill-rule="evenodd" stroke="none"/>
    <path d="M37.7 16.45 L37.25 16.45 37.15 16.55 36.85 16.4 Q36.65 16.4 36.5 16.6 L36.3 16.95 36.5 17.35 36.85 17.45 37.25 17.35 37.3 17.25 38.15 17.25 39.25 19.1 37.25 18.95 36.75 18.9 33.05 12.7 35.4 12.7 36.3 14.15 36.0 14.15 35.65 14.15 35.4 14.15 Q35.2 14.15 35.1 14.3 L34.85 14.7 35.1 15.1 35.4 15.25 Q35.65 15.25 35.75 15.1 L35.85 15.0 36.8 15.0 37.7 16.45 M11.4 26.75 L11.4 26.8 11.8 27.4 11.25 27.4 10.85 27.2 10.45 27.4 10.3 27.75 10.45 28.15 10.55 28.2 10.65 28.2 11.0 28.3 11.25 28.2 12.3 28.2 12.75 28.9 12.25 28.9 Q12.1 28.75 11.9 28.75 L11.6 28.8 Q11.35 28.85 11.35 29.25 L11.35 29.3 11.45 29.6 11.9 29.75 11.95 29.75 13.25 29.75 13.65 30.45 13.7 30.55 13.75 30.55 13.75 30.6 13.7 30.65 11.25 30.1 8.7 26.5 11.4 26.75" fill="#021d42" fill-rule="evenodd" stroke="none"/>
    <path d="M37.9 31.25 L24.65 27.85 24.8 27.85 20.35 26.8 21.3 26.6 21.35 26.6 36.85 29.3 Q36.75 29.8 36.95 30.2 L37.65 31.05 38.0 31.25 37.9 31.25 M23.95 27.6 L24.55 27.75 24.0 27.55 23.95 27.55 23.95 27.6" fill="#064d93" fill-rule="evenodd" stroke="none"/>
    <path d="M41.85 20.1 L42.9 20.4 43.15 21.3 42.85 22.25 Q41.5 26.3 39.55 30.0 L38.45 30.15 37.7 29.25 38.9 25.95 Q40.0 22.85 41.85 20.1 M33.65 7.65 Q35.05 8.55 36.95 9.35 L37.55 9.65 37.7 9.7 38.1 9.8 38.25 9.95 38.3 10.0 38.45 10.35 38.4 10.4 38.45 10.8 38.45 10.85 Q38.35 11.55 37.7 11.7 L37.25 11.7 37.15 11.7 37.0 11.65 36.9 11.65 36.75 11.55 36.75 11.5 34.7 10.55 32.35 9.35 Q29.8 8.25 28.95 7.65 L28.15 7.05 Q28.15 6.45 28.65 5.75 L28.75 5.65 28.75 5.6 28.95 5.45 29.15 5.5 29.65 5.65 30.2 5.9 30.35 6.0 31.5 6.5 Q32.35 6.9 33.65 7.65 M8.5 23.6 L9.95 18.95 Q10.8 16.55 12.2 14.4 13.1 14.15 13.4 14.95 13.5 15.95 12.45 18.3 11.4 20.65 10.7 22.65 9.85 24.75 9.6 24.65 L9.0 24.4 8.6 24.0 8.5 23.6 M13.7 31.5 Q14.6 31.4 15.3 31.8 L16.6 32.75 Q18.5 33.7 19.15 34.15 20.2 34.8 21.75 35.5 22.8 36.1 22.8 37.1 22.8 38.1 21.85 38.1 20.85 38.1 20.8 37.75 L19.05 36.85 17.0 35.65 15.75 34.95 13.95 33.85 13.0 33.2 Q12.85 33.05 13.0 32.75 L12.95 32.4 Q12.8 31.55 13.7 31.5 M13.45 32.35 L13.5 32.35 13.5 32.3 13.45 32.35" fill="#0669d1" fill-rule="evenodd" stroke="none"/>
    <path d="M13.7 30.65 L14.05 30.7 13.35 30.75 Q12.6 31.0 12.25 31.75 11.85 32.4 12.1 33.05 L12.35 33.7 -1.15 30.5 Q-1.6 29.25 -1.1 28.65 -0.5 27.9 0.4 27.85 L5.65 28.95 11.25 30.1 13.7 30.65 M15.95 8.75 L15.9 8.75 15.7 8.5 Q14.95 7.2 16.0 6.2 L17.9 6.0 23.5 5.35 28.45 4.85 Q27.7 5.05 27.4 5.7 27.05 6.45 27.3 7.2 L27.8 8.05 15.95 8.75" fill="#27baff" fill-rule="evenodd" stroke="none"/>
    <path d="M5.65 28.95 L7.1 26.3 8.7 26.5 11.25 30.1 5.65 28.95 M27.3 18.15 L27.15 18.15 27.05 18.1 27.15 18.0 28.6 16.05 28.55 16.0 26.2 12.75 26.2 12.65 26.35 12.7 33.05 12.7 36.75 18.9 36.3 18.9 27.3 18.15" fill="#04357c" fill-rule="evenodd" stroke="none"/>
    <path d="M13.6 13.75 L20.55 10.5 20.65 10.55 22.25 11.15 15.85 23.25 15.75 23.5 11.25 24.65 10.75 25.05 10.8 25.0 10.9 24.8 11.05 24.4 14.2 15.95 Q14.5 15.2 14.15 14.55 L13.6 13.75" fill="#3ec4fd" fill-rule="evenodd" stroke="none"/>
    <path d="M37.7 16.45 L40.95 16.45 40.9 16.6 Q40.9 17.1 41.15 17.25 L38.15 17.25 37.3 17.25 37.25 17.25 36.95 17.35 Q36.55 17.35 36.55 16.95 36.55 16.75 36.75 16.7 L37.15 16.55 37.25 16.45 37.7 16.45 M11.8 27.4 L14.5 27.4 14.9 27.8 14.6 28.2 12.3 28.2 11.25 28.2 11.0 28.3 10.65 28.2 10.55 28.2 10.45 28.1 10.35 27.8 Q10.35 27.3 10.9 27.4 L11.25 27.4 11.8 27.4 M12.75 28.9 L14.9 28.9 Q15.3 29.0 15.3 29.35 L15.0 29.75 13.25 29.75 11.95 29.75 11.35 29.3 11.35 29.25 Q11.35 28.85 11.6 28.8 L12.0 28.9 12.25 28.9 12.75 28.9 M36.3 14.15 L40.3 14.15 40.1 14.75 40.15 15.0 36.8 15.0 35.85 15.0 35.6 15.1 Q35.2 15.1 35.2 14.65 35.2 14.25 35.65 14.15 L36.0 14.15 36.3 14.15" fill="#d6eefe" fill-rule="evenodd" stroke="none"/>
    <path d="M26.2 12.75 L26.1 12.6 26.2 12.65 26.2 12.75" fill="#0546a5" fill-rule="evenodd" stroke="none"/>
    <path d="M7.4 23.9 L7.4 24.0 7.45 24.3 7.55 24.45 6.9 24.4 -4.75 22.4 -0.35 22.85 7.4 23.9" fill="#0756a3" fill-rule="evenodd" stroke="none"/>
    <path d="M24.9 19.65 L26.6 21.4 23.85 26.1 23.8 26.1 22.15 23.45 22.15 23.4 24.9 19.65" fill="#43eaff" fill-rule="evenodd" stroke="none"/>
    <path d="M28.45 4.85 L28.5 4.8 29.95 4.95 38.05 9.1 Q38.8 9.4 38.95 10.2 39.2 10.9 38.9 11.65 38.5 12.3 37.75 12.6 L36.9 12.65 36.3 12.45 28.2 8.3 27.8 8.05 27.3 7.2 Q27.05 6.45 27.4 5.7 27.7 5.05 28.45 4.85 M33.65 7.65 Q32.35 6.9 31.5 6.5 L30.35 6.0 30.2 5.9 29.65 5.65 29.15 5.5 28.95 5.45 28.75 5.6 28.75 5.65 28.65 5.75 Q28.15 6.45 28.15 7.05 L28.95 7.65 Q29.8 8.25 32.35 9.35 L34.7 10.55 36.75 11.5 36.75 11.55 36.9 11.65 37.0 11.65 37.15 11.7 37.25 11.7 37.7 11.7 Q38.35 11.55 38.45 10.85 L38.45 10.8 38.4 10.4 38.45 10.35 38.3 10.0 38.25 9.95 38.1 9.8 37.7 9.7 37.55 9.65 36.95 9.35 Q35.05 8.55 33.65 7.65" fill="url(#gradient0)" fill-rule="evenodd" stroke="none"/>
    <path d="M39.25 19.1 L41.5 19.25 41.3 19.3 Q40.65 19.65 40.3 20.35 L36.95 28.75 36.85 29.2 36.85 29.3 21.35 26.6 23.8 26.1 23.85 26.1 26.6 21.4 26.7 21.2 27.3 18.15 36.3 18.9 37.25 18.95 39.25 19.1 M20.85 38.65 L7.3 35.5 6.75 35.0 8.1 34.15 3.0 33.0 -1.05 30.7 -1.1 30.6 -1.15 30.5 12.35 33.7 12.4 33.75 12.95 34.25 20.85 38.65 M24.7 26.8 L24.9 26.75 25.1 26.6 25.1 26.55 24.7 26.8" fill="url(#gradient1)" fill-rule="evenodd" stroke="none"/>
    <path d="M41.5 19.25 L42.8 19.3 Q43.5 19.6 43.85 20.3 44.1 21.0 43.85 21.75 L40.5 30.2 Q40.15 30.95 39.45 31.2 L38.25 31.3 38.0 31.25 37.95 31.25 37.9 31.25 38.0 31.25 37.65 31.05 36.95 30.2 Q36.75 29.8 36.85 29.3 L36.85 29.2 36.95 28.75 40.3 20.35 Q40.65 19.65 41.3 19.3 L41.5 19.25 M41.85 20.1 Q40.0 22.85 38.9 25.95 L37.7 29.25 38.45 30.15 39.55 30.0 Q41.5 26.3 42.85 22.25 L43.15 21.3 42.9 20.4 41.85 20.1" fill="url(#gradient2)" fill-rule="evenodd" stroke="none"/>
    <path d="M20.55 10.5 L15.95 8.75 27.8 8.05 28.2 8.3 36.3 12.45 36.9 12.65 35.4 12.7 33.05 12.7 26.35 12.7 26.2 12.65 26.1 12.6 26.0 12.55 22.25 11.15 20.65 10.55 20.55 10.5" fill="url(#gradient3)" fill-rule="evenodd" stroke="none"/>
    <path d="M26.0 12.55 L25.85 12.7 24.8 19.7 24.9 19.65 22.15 23.4 22.15 23.45 15.75 23.5 15.85 23.25 22.25 11.15 26.0 12.55" fill="url(#gradient4)" fill-rule="evenodd" stroke="none"/>
    <path d="M26.0 12.55 L26.1 12.6 26.2 12.75 28.55 16.0 28.6 16.05 27.15 18.0 27.05 18.1 27.15 18.15 27.3 18.15 26.7 21.2 26.6 21.4 24.9 19.65 24.8 19.7 25.85 12.7 26.0 12.55" fill="url(#gradient5)" fill-rule="evenodd" stroke="none"/>
    <path d="M20.35 26.8 L17.35 27.35 11.4 26.75 8.7 26.5 7.1 26.3 7.6 25.4 8.65 25.55 8.7 25.55 8.8 25.55 9.2 25.6 10.0 25.5 10.1 25.45 10.25 25.4 10.7 25.05 10.75 25.05 11.25 24.65 15.75 23.5 22.15 23.45 23.8 26.1 21.35 26.6 21.3 26.6 20.35 26.8" fill="url(#gradient6)" fill-rule="evenodd" stroke="none"/>
    <path d="M8.65 25.55 L-3.65 23.5 -4.25 23.2 -4.8 22.45 -4.75 22.05 -2.65 18.0 -2.5 18.15 4.25 18.4 -0.15 13.95 11.65 13.6 Q11.05 13.85 10.75 14.6 L7.55 23.1 7.4 23.75 7.4 23.9 7.55 24.45 7.55 24.5 Q7.9 25.2 8.6 25.5 L8.65 25.55 M7.55 24.45 L7.45 24.3 7.4 24.0 7.4 23.9 -0.35 22.85 -4.75 22.4 6.9 24.4 7.55 24.45" fill="url(#gradient7)" fill-rule="evenodd" stroke="none"/>
    <path d="M11.65 13.6 L12.85 13.55 13.6 13.75 14.15 14.55 Q14.5 15.2 14.2 15.95 L11.05 24.4 10.9 24.8 10.8 25.0 10.75 25.05 10.7 25.05 10.25 25.4 10.1 25.45 10.0 25.5 9.2 25.6 8.8 25.55 8.7 25.55 8.65 25.55 8.6 25.5 Q7.9 25.2 7.55 24.5 L7.55 24.45 7.4 23.9 7.4 23.75 7.55 23.1 10.75 14.6 Q11.05 13.85 11.65 13.6 M8.5 23.6 L8.6 24.0 9.0 24.4 9.6 24.65 Q9.85 24.75 10.7 22.65 11.4 20.65 12.45 18.3 13.5 15.95 13.4 14.95 13.1 14.15 12.2 14.4 10.8 16.55 9.95 18.95 L8.5 23.6" fill="url(#gradient8)" fill-rule="evenodd" stroke="none"/>
    <path d="M14.05 30.7 L14.2 30.75 14.25 30.75 14.4 30.85 14.45 30.85 14.75 30.95 22.7 35.35 Q23.4 35.75 23.6 36.45 23.85 37.25 23.45 37.9 23.1 38.6 22.3 38.8 L21.7 38.9 Q21.4 38.9 21.05 38.7 L20.85 38.65 12.95 34.25 12.4 33.75 12.35 33.7 12.1 33.05 Q11.85 32.4 12.25 31.75 12.6 31.0 13.35 30.75 L14.05 30.7 M13.7 31.5 Q12.8 31.55 12.95 32.4 L13.0 32.75 Q12.85 33.05 13.0 33.2 L13.95 33.85 15.75 34.95 17.0 35.65 19.05 36.85 20.8 37.75 Q20.85 38.1 21.85 38.1 22.8 38.1 22.8 37.1 22.8 36.1 21.75 35.5 20.2 34.8 19.15 34.15 18.5 33.7 16.6 32.75 L15.3 31.8 Q14.6 31.4 13.7 31.5" fill="url(#gradient9)" fill-rule="evenodd" stroke="none"/>
    <path d="M24.7 26.8 L25.1 26.55 25.1 26.6 24.9 26.75 24.7 26.8" fill="url(#gradient10)" fill-rule="evenodd" stroke="none"/>
    <path d="M6.75 35.0 L2.45 37.8 0.5 37.3 2.95 33.05 3.0 33.0 8.1 34.15 6.75 35.0 M-2.65 18.0 L-4.75 12.1 -2.8 11.2 -0.15 13.95 4.25 18.4 -2.5 18.15 -2.65 18.0 M17.9 6.0 L18.05 0.55 20.75 0.0 23.5 5.35 17.9 6.0" fill="#94fdff" fill-rule="evenodd" stroke="none"/>
  </g>
  <defs>
    <linearGradient gradientTransform="matrix(0.0124, 0.006, -0.0021, 0.0044, 24.45, 5.3)" gradientUnits="userSpaceOnUse" id="gradient0" spreadMethod="pad" x1="-819.2" x2="819.2">
      <stop offset="0.0" stop-color="#095cfa"/>
      <stop offset="0.17254901960784313" stop-color="#1775fb"/>
      <stop offset="0.6470588235294118" stop-color="#40c7ff"/>
      <stop offset="1.0" stop-color="#4dd6ff"/>
    </linearGradient>
    <linearGradient gradientTransform="matrix(-0.007, -0.0029, -0.007, 0.0171, 21.9, 48.8)" gradientUnits="userSpaceOnUse" id="gradient1" spreadMethod="pad" x1="-819.2" x2="819.2">
      <stop offset="0.0" stop-color="#095ed4"/>
      <stop offset="0.7019607843137254" stop-color="#1d93f2"/>
      <stop offset="1.0" stop-color="#26abff"/>
    </linearGradient>
    <linearGradient gradientTransform="matrix(0.0551, 0.0, 0.0, -0.0551, 25.15, 70.05)" gradientUnits="userSpaceOnUse" id="gradient2" spreadMethod="pad" x1="-819.2" x2="819.2">
      <stop offset="0.0" stop-color="#095cfa"/>
      <stop offset="0.17254901960784313" stop-color="#1775fb"/>
      <stop offset="0.6470588235294118" stop-color="#40c7ff"/>
      <stop offset="1.0" stop-color="#4dd6ff"/>
    </linearGradient>
    <linearGradient gradientTransform="matrix(-0.0018, 0.0036, -0.0043, -0.0021, 27.5, 12.0)" gradientUnits="userSpaceOnUse" id="gradient3" spreadMethod="pad" x1="-819.2" x2="819.2">
      <stop offset="0.0" stop-color="#095ed4"/>
      <stop offset="0.7019607843137254" stop-color="#1d93f2"/>
      <stop offset="1.0" stop-color="#26abff"/>
    </linearGradient>
    <linearGradient gradientTransform="matrix(0.0048, 0.0031, -0.4994, 0.7749, 26.75, 8.0)" gradientUnits="userSpaceOnUse" id="gradient4" spreadMethod="pad" x1="-819.2" x2="819.2">
      <stop offset="0.0" stop-color="#095ed4"/>
      <stop offset="0.17647058823529413" stop-color="#1d93f2"/>
      <stop offset="1.0" stop-color="#26abff"/>
    </linearGradient>
    <linearGradient gradientTransform="matrix(0.0023, -0.0032, 0.0044, 0.0031, 26.65, 16.95)" gradientUnits="userSpaceOnUse" id="gradient5" spreadMethod="pad" x1="-819.2" x2="819.2">
      <stop offset="0.0" stop-color="#095ed4"/>
      <stop offset="0.7019607843137254" stop-color="#1d93f2"/>
      <stop offset="1.0" stop-color="#26abff"/>
    </linearGradient>
    <linearGradient gradientTransform="matrix(-0.0099, 0.0024, -7.0E-4, -0.0028, 15.5, 25.8)" gradientUnits="userSpaceOnUse" id="gradient6" spreadMethod="pad" x1="-819.2" x2="819.2">
      <stop offset="0.0" stop-color="#095ed4"/>
      <stop offset="0.7019607843137254" stop-color="#1d93f2"/>
      <stop offset="1.0" stop-color="#26abff"/>
    </linearGradient>
    <linearGradient gradientTransform="matrix(-0.0059, -0.0021, 0.0025, -0.0069, 3.3, 18.65)" gradientUnits="userSpaceOnUse" id="gradient7" spreadMethod="pad" x1="-819.2" x2="819.2">
      <stop offset="0.0" stop-color="#095ed4"/>
      <stop offset="0.7019607843137254" stop-color="#1d93f2"/>
      <stop offset="1.0" stop-color="#26abff"/>
    </linearGradient>
    <linearGradient gradientTransform="matrix(0.002, 9.0E-4, -0.0031, 0.0067, 9.1, 17.5)" gradientUnits="userSpaceOnUse" id="gradient8" spreadMethod="pad" x1="-819.2" x2="819.2">
      <stop offset="0.0" stop-color="#095cfa"/>
      <stop offset="0.17254901960784313" stop-color="#1775fb"/>
      <stop offset="0.6470588235294118" stop-color="#40c7ff"/>
      <stop offset="1.0" stop-color="#4dd6ff"/>
    </linearGradient>
    <linearGradient gradientTransform="matrix(0.0013, -0.0026, 0.0044, 0.0023, 16.85, 36.15)" gradientUnits="userSpaceOnUse" id="gradient9" spreadMethod="pad" x1="-819.2" x2="819.2">
      <stop offset="0.0" stop-color="#095cfa"/>
      <stop offset="0.17254901960784313" stop-color="#1775fb"/>
      <stop offset="0.6470588235294118" stop-color="#40c7ff"/>
      <stop offset="1.0" stop-color="#4dd6ff"/>
    </linearGradient>
    <linearGradient gradientTransform="matrix(0.0086, 0.0017, 0.0059, -0.03, 19.05, 12.95)" gradientUnits="userSpaceOnUse" id="gradient10" spreadMethod="pad" x1="-819.2" x2="819.2">
      <stop offset="0.0" stop-color="#095ed4"/>
      <stop offset="0.6470588235294118" stop-color="#1d93f2"/>
      <stop offset="1.0" stop-color="#26abff"/>
    </linearGradient>
  </defs>
</svg>
