<?xml version="1.0" encoding="UTF-8" standalone="no"?>
<svg xmlns:ffdec="https://www.free-decompiler.com/flash" xmlns:xlink="http://www.w3.org/1999/xlink" ffdec:objectType="shape" height="15.25px" width="95.25px" xmlns="http://www.w3.org/2000/svg">
  <g transform="matrix(1.0, 0.0, 0.0, 1.0, -7.2, 0.4)">
    <path d="M10.2 0.0 L78.05 0.0 Q79.3 0.0 80.7 0.6 82.15 1.2 82.9 2.1 L92.25 12.75 Q93.0 13.6 92.65 14.25 92.3 14.85 91.05 14.85 L10.2 14.85 Q8.95 14.85 8.1 14.05 7.2 13.3 7.2 12.25 L7.2 2.6 Q7.2 1.5 8.1 0.8 8.95 0.0 10.2 0.0" fill="url(#gradient0)" fill-rule="evenodd" stroke="none"/>
    <path d="M101.35 13.8 L97.05 13.8 84.95 0.15 88.8 0.15 101.35 13.8" fill="url(#gradient1)" fill-rule="evenodd" stroke="none"/>
    <path d="M101.35 13.8 L88.8 0.15 84.95 0.15 97.05 13.8 101.35 13.8 Z" fill="none" stroke="#3f2902" stroke-linecap="butt" stroke-linejoin="miter-clip" stroke-miterlimit="4.0" stroke-width="1.0"/>
  </g>
  <defs>
    <linearGradient gradientTransform="matrix(0.0522, 0.0, 0.0, -0.0453, 50.0, 7.4)" gradientUnits="userSpaceOnUse" id="gradient0" spreadMethod="pad" x1="-819.2" x2="819.2">
      <stop offset="0.0" stop-color="#282828"/>
      <stop offset="0.9058823529411765" stop-color="#a4a4a4"/>
      <stop offset="1.0" stop-color="#373737"/>
    </linearGradient>
    <linearGradient gradientTransform="matrix(0.01, 0.0, 0.0, -0.0087, 93.15, 7.0)" gradientUnits="userSpaceOnUse" id="gradient1" spreadMethod="pad" x1="-819.2" x2="819.2">
      <stop offset="0.0" stop-color="#d48a00"/>
      <stop offset="0.9294117647058824" stop-color="#8c3300"/>
      <stop offset="1.0" stop-color="#a34f00"/>
    </linearGradient>
  </defs>
</svg>
