<?xml version="1.0" encoding="UTF-8" standalone="no"?>
<svg xmlns:ffdec="https://www.free-decompiler.com/flash" xmlns:xlink="http://www.w3.org/1999/xlink" ffdec:objectType="shape" height="129.25px" width="451.45px" xmlns="http://www.w3.org/2000/svg">
  <g transform="matrix(1.0, 0.0, 0.0, 1.0, 0.0, -16.35)">
    <path d="M325.2 16.35 Q326.35 16.35 327.8 16.95 L330.0 18.45 347.85 37.4 Q348.65 38.25 349.3 39.75 349.85 41.25 349.85 42.5 L349.85 136.0 Q349.85 137.25 349.0 138.1 348.2 139.0 347.0 139.0 L6.95 139.0 Q5.75 139.0 4.35 138.4 L2.15 136.9 2.0 136.75 Q1.2 135.9 0.6 134.4 0.0 132.9 0.0 131.65 L0.0 24.6 Q0.0 23.35 0.6 21.85 1.2 20.35 2.0 19.45 L2.95 18.45 Q3.8 17.6 5.2 16.95 6.6 16.35 7.8 16.35 L325.2 16.35" fill="url(#gradient0)" fill-rule="evenodd" stroke="none"/>
    <path d="M342.85 45.3 L343.05 129.8 Q343.05 131.05 342.2 131.9 341.4 132.8 340.25 132.8 L23.95 132.8 Q22.75 132.8 21.95 131.9 21.1 131.05 21.1 129.8 L21.1 104.25 Q21.1 103.0 20.55 101.5 19.9 100.0 19.1 99.1 L9.85 88.9 Q9.05 88.05 8.45 86.5 7.9 85.0 7.9 83.75 L7.9 26.3 Q7.9 25.05 8.75 24.2 9.55 23.3 10.7 23.3 L108.55 23.3 111.2 23.85 Q112.7 24.4 113.6 25.2 L115.0 26.4 117.35 27.75 120.0 28.3 327.3 28.3 Q328.5 28.3 329.85 28.95 331.25 29.55 332.05 30.45 L340.9 40.15 Q341.7 41.0 342.3 42.55 342.85 44.05 342.85 45.3" fill="url(#gradient1)" fill-rule="evenodd" stroke="none"/>
    <path d="M348.9 114.05 Q348.9 112.8 349.55 112.55 350.15 112.3 351.05 113.2 L351.95 114.1 Q352.8 114.95 353.45 116.5 354.1 118.0 354.1 119.25 L354.1 130.55 Q354.1 131.8 353.45 133.3 352.8 134.8 351.95 135.65 L344.15 143.45 Q343.25 144.35 341.75 145.0 340.25 145.6 339.0 145.6 L327.1 145.6 324.35 145.0 Q322.85 144.35 322.0 143.45 L320.15 141.65 Q319.3 140.75 319.55 140.15 319.8 139.5 321.05 139.5 L336.2 139.5 Q337.45 139.5 338.95 138.9 L341.3 137.4 346.8 131.9 Q347.65 131.05 348.3 129.55 348.9 128.05 348.9 126.8 L348.9 114.05" fill="#606566" fill-rule="evenodd" stroke="none"/>
    <path d="M350.45 115.35 L352.4 117.25 352.4 132.2 343.0 140.95 339.9 140.95 350.45 131.0 350.45 115.35" fill="#262626" fill-opacity="0.8" fill-rule="evenodd" stroke="none"/>
    <path d="M318.65 142.8 L285.35 142.8 283.85 141.3 317.15 141.3 318.65 142.8" fill="#748387" fill-opacity="0.8" fill-rule="evenodd" stroke="none"/>
    <path d="M352.85 111.6 L351.35 110.1 351.35 76.8 352.85 78.3 352.85 111.6" fill="#748387" fill-opacity="0.8" fill-rule="evenodd" stroke="none"/>
    <path d="M331.55 143.95 L329.45 141.3 333.8 141.3 335.9 143.95 331.55 143.95" fill="#00ffff" fill-rule="evenodd" stroke="none"/>
    <path d="M325.1 143.95 L323.0 141.3 327.35 141.3 329.45 143.95 325.1 143.95" fill="#00ffff" fill-rule="evenodd" stroke="none"/>
    <path d="M0.05 96.95 L13.1 110.0 13.1 139.0 3.8 139.0 0.05 135.2 0.05 96.95" fill="#1b1e26" fill-rule="evenodd" stroke="none"/>
    <path d="M94.35 27.5 L14.0 57.05 12.0 56.9 Q11.2 56.35 11.2 55.1 L11.2 29.5 Q11.2 28.25 12.1 27.4 12.95 26.5 14.2 26.5 L94.15 26.5 Q95.4 26.5 95.45 26.8 95.5 27.1 94.35 27.5" fill="url(#gradient2)" fill-rule="evenodd" stroke="none"/>
    <path d="M433.05 41.7 L442.4 54.05 Q443.15 55.0 442.8 55.7 442.45 56.4 441.2 56.4 L360.35 56.4 Q359.1 56.4 358.25 55.5 357.35 54.65 357.35 53.4 L357.35 42.3 Q357.35 41.05 358.25 40.2 359.1 39.3 360.35 39.3 L428.2 39.3 Q429.45 39.3 430.85 40.0 432.3 40.7 433.05 41.7" fill="url(#gradient3)" fill-rule="evenodd" stroke="none"/>
    <path d="M450.45 54.55 L446.15 54.55 436.25 40.9 440.1 40.9 450.45 54.55" fill="url(#gradient4)" fill-rule="evenodd" stroke="none"/>
    <path d="M450.45 54.55 L440.1 40.9 436.25 40.9 446.15 54.55 450.45 54.55 Z" fill="none" stroke="#3f2902" stroke-linecap="butt" stroke-linejoin="miter-clip" stroke-miterlimit="4.0" stroke-width="1.0"/>
  </g>
  <defs>
    <linearGradient gradientTransform="matrix(0.0, -0.0749, -0.0706, 0.0, 174.95, 77.65)" gradientUnits="userSpaceOnUse" id="gradient0" spreadMethod="pad" x1="-819.2" x2="819.2">
      <stop offset="0.0" stop-color="#1e1e2b"/>
      <stop offset="0.09019607843137255" stop-color="#303139"/>
      <stop offset="0.16470588235294117" stop-color="#3b3c42"/>
      <stop offset="0.8470588235294118" stop-color="#636676"/>
      <stop offset="0.9411764705882353" stop-color="#7a82a3"/>
      <stop offset="1.0" stop-color="#505050"/>
    </linearGradient>
    <linearGradient gradientTransform="matrix(0.0, -0.0668, -0.063, 0.0, 175.5, 78.05)" gradientUnits="userSpaceOnUse" id="gradient1" spreadMethod="pad" x1="-819.2" x2="819.2">
      <stop offset="0.00392156862745098" stop-color="#012580"/>
      <stop offset="1.0" stop-color="#020d42"/>
    </linearGradient>
    <linearGradient gradientTransform="matrix(0.0078, 0.0194, 0.0161, -0.0065, 48.0, 30.35)" gradientUnits="userSpaceOnUse" id="gradient2" spreadMethod="pad" x1="-819.2" x2="819.2">
      <stop offset="0.0" stop-color="#0078ff"/>
      <stop offset="0.0196078431372549" stop-color="#0074ff" stop-opacity="0.90588236"/>
      <stop offset="0.12941176470588237" stop-color="#0063ff" stop-opacity="0.49803922"/>
      <stop offset="0.26666666666666666" stop-color="#0058ff" stop-opacity="0.20784314"/>
      <stop offset="0.4627450980392157" stop-color="#0051ff" stop-opacity="0.043137256"/>
      <stop offset="1.0" stop-color="#004fff" stop-opacity="0.0"/>
    </linearGradient>
    <linearGradient gradientTransform="matrix(0.0522, 0.0, 0.0, -0.0522, 400.15, 47.85)" gradientUnits="userSpaceOnUse" id="gradient3" spreadMethod="pad" x1="-819.2" x2="819.2">
      <stop offset="0.0" stop-color="#282828"/>
      <stop offset="0.9058823529411765" stop-color="#a4a4a4"/>
      <stop offset="1.0" stop-color="#373737"/>
    </linearGradient>
    <linearGradient gradientTransform="matrix(0.01, 0.0, 0.0014, -0.0087, 443.35, 47.75)" gradientUnits="userSpaceOnUse" id="gradient4" spreadMethod="pad" x1="-819.2" x2="819.2">
      <stop offset="0.0" stop-color="#d48a00"/>
      <stop offset="0.9294117647058824" stop-color="#8c3300"/>
      <stop offset="1.0" stop-color="#a34f00"/>
    </linearGradient>
  </defs>
</svg>
