<?xml version="1.0" encoding="UTF-8" standalone="no"?>
<svg xmlns:ffdec="https://www.free-decompiler.com/flash" xmlns:xlink="http://www.w3.org/1999/xlink" ffdec:objectType="shape" height="63.5px" width="104.3px" xmlns="http://www.w3.org/2000/svg">
  <g transform="matrix(1.0, 0.0, 0.0, 1.0, -357.3, -59.0)">
    <path d="M357.6 59.3 Q357.9 59.0 358.3 59.0 L450.65 59.0 Q451.65 59.0 452.25 59.8 L460.95 70.25 Q461.6 71.0 461.6 72.0 L461.6 121.5 461.3 122.2 460.6 122.5 365.0 122.5 Q363.95 122.5 363.35 121.75 L357.95 115.7 Q357.3 114.95 357.3 113.95 L357.3 60.0 Q357.3 59.6 357.6 59.3" fill="url(#gradient0)" fill-rule="evenodd" stroke="none"/>
    <path d="M363.5 60.95 L446.05 60.95 Q447.3 60.95 448.75 61.65 450.2 62.3 451.0 63.25 L456.5 69.9 Q457.3 70.85 457.85 72.4 458.4 73.95 458.4 75.2 L458.4 117.6 Q458.4 118.85 457.5 119.7 456.65 120.6 455.4 120.6 L369.75 120.6 Q368.55 120.6 367.05 119.95 365.6 119.25 364.75 118.35 L362.45 115.7 Q361.65 114.8 361.05 113.25 360.5 111.7 360.5 110.45 L360.5 63.95 Q360.5 62.7 361.4 61.85 362.25 60.95 363.5 60.95" fill="url(#gradient1)" fill-rule="evenodd" stroke="none"/>
    <path d="M365.95 63.4 L445.9 63.4 Q447.15 63.4 447.2 63.7 447.25 64.0 446.1 64.45 L365.75 93.95 363.75 93.8 Q362.95 93.25 362.95 92.0 L362.95 66.4 Q362.95 65.15 363.85 64.3 364.7 63.4 365.95 63.4" fill="url(#gradient2)" fill-rule="evenodd" stroke="none"/>
  </g>
  <defs>
    <linearGradient gradientTransform="matrix(0.0, 0.0394, 0.0394, 0.0, 409.45, 89.25)" gradientUnits="userSpaceOnUse" id="gradient0" spreadMethod="pad" x1="-819.2" x2="819.2">
      <stop offset="0.07058823529411765" stop-color="#636676"/>
      <stop offset="0.09411764705882353" stop-color="#5f6271"/>
      <stop offset="0.23137254901960785" stop-color="#4f515c"/>
      <stop offset="0.3803921568627451" stop-color="#44454d"/>
      <stop offset="0.5607843137254902" stop-color="#3d3e45"/>
      <stop offset="0.8352941176470589" stop-color="#3b3c42"/>
      <stop offset="0.9098039215686274" stop-color="#303139"/>
      <stop offset="1.0" stop-color="#1e1e2b"/>
    </linearGradient>
    <linearGradient gradientTransform="matrix(0.0, -0.0364, -0.0364, 0.0, 409.45, 90.75)" gradientUnits="userSpaceOnUse" id="gradient1" spreadMethod="pad" x1="-819.2" x2="819.2">
      <stop offset="0.00392156862745098" stop-color="#011880"/>
      <stop offset="1.0" stop-color="#020b54"/>
    </linearGradient>
    <linearGradient gradientTransform="matrix(0.0078, 0.0194, 0.0161, -0.0065, 399.75, 67.25)" gradientUnits="userSpaceOnUse" id="gradient2" spreadMethod="pad" x1="-819.2" x2="819.2">
      <stop offset="0.0" stop-color="#0078ff"/>
      <stop offset="0.0196078431372549" stop-color="#0074ff" stop-opacity="0.90588236"/>
      <stop offset="0.12941176470588237" stop-color="#0063ff" stop-opacity="0.49803922"/>
      <stop offset="0.26666666666666666" stop-color="#0058ff" stop-opacity="0.20784314"/>
      <stop offset="0.4627450980392157" stop-color="#0051ff" stop-opacity="0.043137256"/>
      <stop offset="1.0" stop-color="#004fff" stop-opacity="0.0"/>
    </linearGradient>
  </defs>
</svg>
