<?xml version="1.0" encoding="UTF-8" standalone="no"?>
<svg xmlns:ffdec="https://www.free-decompiler.com/flash" xmlns:xlink="http://www.w3.org/1999/xlink" ffdec:objectType="shape" height="17.0px" width="137.7px" xmlns="http://www.w3.org/2000/svg">
  <g transform="matrix(1.0, 0.0, 0.0, 1.0, 245.45, -228.3)">
    <path d="M-108.25 241.8 Q-108.25 243.05 -109.3 243.9 -110.3 244.8 -111.75 244.8 L-241.45 244.8 Q-242.9 244.8 -243.9 243.9 -244.95 243.05 -244.95 241.8 L-244.95 231.8 Q-244.95 230.55 -243.9 229.7 -242.9 228.8 -241.45 228.8 L-111.75 228.8 Q-110.3 228.8 -109.3 229.7 -108.25 230.55 -108.25 231.8 L-108.25 241.8" fill="#022b75" fill-rule="evenodd" stroke="none"/>
    <path d="M-108.25 241.8 Q-108.25 243.05 -109.3 243.9 -110.3 244.8 -111.75 244.8 L-241.45 244.8 Q-242.9 244.8 -243.9 243.9 -244.95 243.05 -244.95 241.8 L-244.95 231.8 Q-244.95 230.55 -243.9 229.7 -242.9 228.8 -241.45 228.8 L-111.75 228.8 Q-110.3 228.8 -109.3 229.7 -108.25 230.55 -108.25 231.8 L-108.25 241.8 Z" fill="none" stroke="#043284" stroke-linecap="butt" stroke-linejoin="miter-clip" stroke-miterlimit="4.0" stroke-width="1.0"/>
  </g>
</svg>
