<?xml version="1.0" encoding="UTF-8" standalone="no"?>
<svg xmlns:ffdec="https://www.free-decompiler.com/flash" xmlns:xlink="http://www.w3.org/1999/xlink" ffdec:objectType="shape" height="17.0px" width="137.7px" xmlns="http://www.w3.org/2000/svg">
  <g transform="matrix(1.0, 0.0, 0.0, 1.0, 86.45, -149.9)">
    <path d="M50.75 163.4 Q50.75 164.65 49.7 165.5 48.7 166.4 47.25 166.4 L-82.45 166.4 Q-83.9 166.4 -84.9 165.5 -85.95 164.65 -85.95 163.4 L-85.95 153.4 Q-85.95 152.15 -84.9 151.3 -83.9 150.4 -82.45 150.4 L47.25 150.4 Q48.7 150.4 49.7 151.3 50.75 152.15 50.75 153.4 L50.75 163.4" fill="#022b75" fill-rule="evenodd" stroke="none"/>
    <path d="M50.75 163.4 Q50.75 164.65 49.7 165.5 48.7 166.4 47.25 166.4 L-82.45 166.4 Q-83.9 166.4 -84.9 165.5 -85.95 164.65 -85.95 163.4 L-85.95 153.4 Q-85.95 152.15 -84.9 151.3 -83.9 150.4 -82.45 150.4 L47.25 150.4 Q48.7 150.4 49.7 151.3 50.75 152.15 50.75 153.4 L50.75 163.4 Z" fill="none" stroke="#043284" stroke-linecap="butt" stroke-linejoin="miter-clip" stroke-miterlimit="4.0" stroke-width="1.0"/>
  </g>
</svg>
