<?xml version="1.0" encoding="UTF-8" standalone="no"?>
<svg xmlns:ffdec="https://www.free-decompiler.com/flash" xmlns:xlink="http://www.w3.org/1999/xlink" ffdec:objectType="shape" height="17.0px" width="137.7px" xmlns="http://www.w3.org/2000/svg">
  <g transform="matrix(1.0, 0.0, 0.0, 1.0, 86.45, -228.3)">
    <path d="M50.75 241.8 Q50.75 243.05 49.7 243.9 48.7 244.8 47.25 244.8 L-82.45 244.8 Q-83.9 244.8 -84.9 243.9 -85.95 243.05 -85.95 241.8 L-85.95 231.8 Q-85.95 230.55 -84.9 229.7 -83.9 228.8 -82.45 228.8 L47.25 228.8 Q48.7 228.8 49.7 229.7 50.75 230.55 50.75 231.8 L50.75 241.8" fill="#022b75" fill-rule="evenodd" stroke="none"/>
    <path d="M50.75 241.8 Q50.75 243.05 49.7 243.9 48.7 244.8 47.25 244.8 L-82.45 244.8 Q-83.9 244.8 -84.9 243.9 -85.95 243.05 -85.95 241.8 L-85.95 231.8 Q-85.95 230.55 -84.9 229.7 -83.9 228.8 -82.45 228.8 L47.25 228.8 Q48.7 228.8 49.7 229.7 50.75 230.55 50.75 231.8 L50.75 241.8 Z" fill="none" stroke="#043284" stroke-linecap="butt" stroke-linejoin="miter-clip" stroke-miterlimit="4.0" stroke-width="1.0"/>
  </g>
</svg>
