<?xml version="1.0" encoding="UTF-8" standalone="no"?>
<svg xmlns:ffdec="https://www.free-decompiler.com/flash" xmlns:xlink="http://www.w3.org/1999/xlink" ffdec:objectType="shape" height="12.25px" width="151.85px" xmlns="http://www.w3.org/2000/svg">
  <g transform="matrix(1.0, 0.0, 0.0, 1.0, -172.6, -100.7)">
    <path d="M323.95 111.45 L323.65 112.15 Q323.35 112.45 322.95 112.45 L174.15 112.45 Q173.75 112.45 173.45 112.15 173.15 111.85 173.15 111.45 L173.1 102.2 Q173.05 101.8 173.35 101.5 173.65 101.2 174.05 101.2 L322.95 101.2 Q323.35 101.2 323.65 101.5 L323.95 102.2 323.95 111.45" fill="#021e7f" fill-rule="evenodd" stroke="none"/>
    <path d="M323.95 111.45 L323.65 112.15 Q323.35 112.45 322.95 112.45 L174.15 112.45 Q173.75 112.45 173.45 112.15 173.15 111.85 173.15 111.45 L173.1 102.2 Q173.05 101.8 173.35 101.5 173.65 101.2 174.05 101.2 L322.95 101.2 Q323.35 101.2 323.65 101.5 L323.95 102.2 323.95 111.45 Z" fill="none" stroke="#093bb7" stroke-linecap="butt" stroke-linejoin="miter-clip" stroke-miterlimit="4.0" stroke-width="1.0"/>
  </g>
</svg>
