<?xml version="1.0" encoding="UTF-8" standalone="no"?>
<svg xmlns:ffdec="https://www.free-decompiler.com/flash" xmlns:xlink="http://www.w3.org/1999/xlink" ffdec:objectType="shape" height="25.35px" width="109.55px" xmlns="http://www.w3.org/2000/svg">
  <g transform="matrix(1.0, 0.0, 0.0, 1.0, 0.0, 0.0)">
    <path d="M104.55 0.0 Q106.65 0.0 108.1 1.45 109.55 2.95 109.55 5.0 L109.55 20.35 Q109.55 22.4 108.1 23.9 106.65 25.35 104.55 25.35 L5.0 25.35 Q2.95 25.35 1.45 23.9 0.0 22.4 0.0 20.35 L0.0 5.0 Q0.0 2.95 1.45 1.45 2.95 0.0 5.0 0.0 L104.55 0.0" fill="url(#gradient0)" fill-rule="evenodd" stroke="none"/>
    <path d="M89.8 2.45 Q90.35 3.0 92.35 3.0 L105.55 3.0 Q106.4 3.0 106.95 3.6 107.55 4.2 107.55 5.0 L107.55 20.35 Q107.55 21.2 106.95 21.75 106.4 22.35 105.55 22.35 L92.35 22.35 Q90.3 22.35 89.8 22.95 89.15 23.5 87.2 23.5 L24.4 23.5 Q22.4 23.5 21.85 22.95 21.25 22.35 19.25 22.35 L4.0 22.35 Q3.2 22.35 2.6 21.75 2.0 21.2 2.0 20.35 L2.0 5.0 Q2.0 4.2 2.6 3.6 3.2 3.0 4.0 3.0 L19.25 3.0 Q21.2 3.0 21.85 2.45 22.35 1.85 24.4 1.85 L87.2 1.85 Q89.2 1.85 89.8 2.45" fill="url(#gradient1)" fill-rule="evenodd" stroke="none"/>
    <path d="M87.95 2.75 L90.15 3.85 21.5 3.85 23.75 2.75 87.95 2.75" fill="#e0a800" fill-rule="evenodd" stroke="none"/>
    <path d="M87.95 22.6 L23.75 22.6 21.5 21.5 90.15 21.5 87.95 22.6" fill="#d68a00" fill-rule="evenodd" stroke="none"/>
  </g>
  <defs>
    <linearGradient gradientTransform="matrix(0.0, -0.0155, -0.0155, 0.0, 54.8, 12.7)" gradientUnits="userSpaceOnUse" id="gradient0" spreadMethod="pad" x1="-819.2" x2="819.2">
      <stop offset="0.0" stop-color="#bb6900"/>
      <stop offset="0.44313725490196076" stop-color="#bc6b00"/>
      <stop offset="0.6" stop-color="#c07201"/>
      <stop offset="0.7137254901960784" stop-color="#c87d02"/>
      <stop offset="0.807843137254902" stop-color="#d28e03"/>
      <stop offset="0.8862745098039215" stop-color="#e0a405"/>
      <stop offset="0.9529411764705882" stop-color="#f1bf08"/>
      <stop offset="1.0" stop-color="#ffd60a"/>
    </linearGradient>
    <linearGradient gradientTransform="matrix(0.0644, 0.0, 0.0, -0.0644, 54.8, 12.7)" gradientUnits="userSpaceOnUse" id="gradient1" spreadMethod="pad" x1="-819.2" x2="819.2">
      <stop offset="0.0" stop-color="#753000"/>
      <stop offset="0.21568627450980393" stop-color="#8b4000"/>
      <stop offset="0.5294117647058824" stop-color="#a65400"/>
      <stop offset="0.6705882352941176" stop-color="#9b4c00"/>
      <stop offset="0.9215686274509803" stop-color="#7f3700"/>
      <stop offset="1.0" stop-color="#753000"/>
    </linearGradient>
  </defs>
</svg>
