<?xml version="1.0" encoding="UTF-8" standalone="no"?>
<svg xmlns:ffdec="https://www.free-decompiler.com/flash" xmlns:xlink="http://www.w3.org/1999/xlink" ffdec:objectType="shape" height="22.8px" width="98.6px" xmlns="http://www.w3.org/2000/svg">
  <g transform="matrix(1.0, 0.0, 0.0, 1.0, -5.5, -1.25)">
    <path d="M99.6 1.25 Q101.5 1.25 102.8 2.55 104.1 3.9 104.1 5.75 L104.1 19.55 Q104.1 21.4 102.8 22.75 101.5 24.05 99.6 24.05 L10.0 24.05 Q8.15 24.05 6.8 22.75 5.5 21.4 5.5 19.55 L5.5 5.75 Q5.5 3.9 6.8 2.55 8.15 1.25 10.0 1.25 L99.6 1.25" fill="url(#gradient0)" fill-rule="evenodd" stroke="none"/>
    <path d="M86.3 3.45 Q86.8 3.95 88.6 3.95 L100.5 3.95 Q101.25 3.95 101.75 4.5 102.3 5.0 102.3 5.75 L102.3 19.55 Q102.3 20.3 101.75 20.8 101.25 21.35 100.5 21.35 L88.6 21.35 Q86.75 21.35 86.3 21.9 85.75 22.4 84.0 22.4 L27.45 22.4 Q25.65 22.4 25.15 21.9 24.6 21.35 22.8 21.35 L9.1 21.35 Q8.4 21.35 7.85 20.8 7.3 20.3 7.3 19.55 L7.3 5.75 Q7.3 5.0 7.85 4.5 8.4 3.95 9.1 3.95 L22.8 3.95 Q24.6 3.95 25.15 3.45 25.6 2.9 27.45 2.9 L84.0 2.9 Q85.8 2.9 86.3 3.45" fill="url(#gradient1)" fill-rule="evenodd" stroke="none"/>
    <path d="M83.7 3.7 L85.7 4.7 23.9 4.7 25.9 3.7 83.7 3.7" fill="#e0a800" fill-rule="evenodd" stroke="none"/>
    <path d="M83.7 21.6 L25.9 21.6 23.9 20.6 85.7 20.6 83.7 21.6" fill="#d68a00" fill-rule="evenodd" stroke="none"/>
  </g>
  <defs>
    <linearGradient gradientTransform="matrix(0.0, -0.0139, -0.0139, 0.0, 54.8, 12.65)" gradientUnits="userSpaceOnUse" id="gradient0" spreadMethod="pad" x1="-819.2" x2="819.2">
      <stop offset="0.0" stop-color="#bb6900"/>
      <stop offset="0.44313725490196076" stop-color="#bc6b00"/>
      <stop offset="0.6" stop-color="#c07201"/>
      <stop offset="0.7137254901960784" stop-color="#c87d02"/>
      <stop offset="0.807843137254902" stop-color="#d28e03"/>
      <stop offset="0.8862745098039215" stop-color="#e0a405"/>
      <stop offset="0.9529411764705882" stop-color="#f1bf08"/>
      <stop offset="1.0" stop-color="#ffd60a"/>
    </linearGradient>
    <linearGradient gradientTransform="matrix(0.058, 0.0, 0.0, -0.058, 54.8, 12.65)" gradientUnits="userSpaceOnUse" id="gradient1" spreadMethod="pad" x1="-819.2" x2="819.2">
      <stop offset="0.0" stop-color="#753000"/>
      <stop offset="0.21568627450980393" stop-color="#8b4000"/>
      <stop offset="0.5294117647058824" stop-color="#a65400"/>
      <stop offset="0.6705882352941176" stop-color="#9b4c00"/>
      <stop offset="0.9215686274509803" stop-color="#7f3700"/>
      <stop offset="1.0" stop-color="#753000"/>
    </linearGradient>
  </defs>
</svg>
