<?xml version="1.0" encoding="UTF-8" standalone="no"?>
<svg xmlns:ffdec="https://www.free-decompiler.com/flash" xmlns:xlink="http://www.w3.org/1999/xlink" ffdec:objectType="shape" height="42.6px" width="42.6px" xmlns="http://www.w3.org/2000/svg">
  <g transform="matrix(1.0, 0.0, 0.0, 1.0, 0.0, 0.0)">
    <path d="M41.1 20.05 L41.1 22.65 Q41.1 24.95 41.45 25.65 42.1 26.05 42.1 29.3 L42.1 38.6 Q42.1 40.05 41.05 41.05 40.05 42.1 38.6 42.1 L29.2 42.1 Q26.0 42.1 25.5 41.4 L22.55 41.1 19.95 41.1 16.95 41.45 Q16.5 42.1 13.25 42.1 L4.0 42.1 Q2.6 42.1 1.55 41.05 0.5 40.05 0.5 38.6 L0.5 29.25 Q0.5 26.2 1.1 25.6 1.4 25.2 1.4 22.65 L1.4 20.05 Q1.4 17.7 1.1 17.1 0.5 16.5 0.5 13.4 L0.5 4.0 Q0.5 2.6 1.55 1.55 2.6 0.5 4.0 0.5 L13.25 0.5 Q16.5 0.5 17.0 1.2 L19.95 1.5 22.55 1.5 25.55 1.15 Q25.95 0.5 29.2 0.5 L38.6 0.5 Q40.05 0.5 41.05 1.55 42.1 2.6 42.1 4.0 L42.1 13.35 Q42.1 16.6 41.4 17.1 41.1 18.0 41.1 20.05" fill="url(#gradient0)" fill-rule="evenodd" stroke="none"/>
    <path d="M41.6 4.0 Q41.6 2.75 40.7 1.9 39.85 1.0 38.6 1.0 L29.2 1.0 Q26.3 1.0 25.9 1.5 L24.75 1.85 22.55 2.0 19.95 2.0 Q17.0 2.0 16.6 1.5 16.2 1.0 13.25 1.0 L4.0 1.0 Q2.75 1.0 1.9 1.9 1.0 2.75 1.0 4.0 L1.0 13.4 Q1.0 16.4 1.45 16.75 1.9 17.0 1.9 20.05 L1.9 22.65 Q1.9 25.7 1.45 25.95 1.0 26.3 1.0 29.25 L1.0 38.6 Q1.0 39.85 1.9 40.7 2.75 41.6 4.0 41.6 L13.25 41.6 15.45 41.45 16.6 41.1 Q17.0 40.6 19.95 40.6 L22.55 40.6 Q25.5 40.6 25.9 41.1 26.3 41.6 29.2 41.6 L38.6 41.6 Q39.85 41.6 40.7 40.7 41.6 39.85 41.6 38.6 L41.6 29.3 Q41.6 26.3 41.1 26.0 40.6 25.6 40.6 22.65 L40.6 20.05 Q40.6 17.1 41.1 16.7 41.6 16.3 41.6 13.35 L41.6 4.0 M38.6 0.0 Q40.25 0.0 41.45 1.2 42.6 2.35 42.6 4.0 L42.6 13.35 Q42.6 16.4 41.9 17.35 41.6 18.25 41.6 20.05 L41.6 22.65 Q41.6 24.5 41.85 25.35 42.6 26.1 42.6 29.3 L42.6 38.6 Q42.6 40.25 41.45 41.45 40.25 42.6 38.6 42.6 L29.2 42.6 Q26.15 42.6 25.25 41.85 L22.55 41.6 19.95 41.6 17.25 41.9 Q16.3 42.6 13.25 42.6 L4.0 42.6 Q2.35 42.6 1.2 41.45 0.0 40.25 0.0 38.6 L0.0 29.25 Q0.0 26.05 0.7 25.35 L0.9 22.65 0.9 20.05 Q0.9 17.95 0.7 17.35 0.0 16.55 0.0 13.4 L0.0 4.0 Q0.0 2.35 1.2 1.2 2.35 0.0 4.0 0.0 L13.25 0.0 Q16.3 0.0 17.25 0.7 L19.95 1.0 22.55 1.0 25.25 0.75 Q26.15 0.0 29.2 0.0 L38.6 0.0" fill="#333333" fill-rule="evenodd" stroke="none"/>
    <path d="M36.85 8.2 L36.85 34.3 Q36.85 35.35 36.15 36.1 35.4 36.8 34.35 36.8 L8.25 36.8 Q7.2 36.8 6.5 36.1 5.75 35.35 5.75 34.3 L5.75 8.2 Q5.75 7.15 6.5 6.45 7.2 5.7 8.25 5.7 L34.35 5.7 Q35.4 5.7 36.15 6.45 36.85 7.15 36.85 8.2" fill="#232323" fill-rule="evenodd" stroke="none"/>
    <path d="M36.35 8.2 Q36.35 7.4 35.75 6.8 35.2 6.2 34.35 6.2 L8.25 6.2 Q7.45 6.2 6.85 6.8 6.25 7.4 6.25 8.2 L6.25 34.3 Q6.25 35.15 6.85 35.7 7.45 36.3 8.25 36.3 L34.35 36.3 Q35.2 36.3 35.75 35.7 36.35 35.15 36.35 34.3 L36.35 8.2 M34.35 5.2 Q35.6 5.2 36.45 6.1 37.35 6.95 37.35 8.2 L37.35 34.3 Q37.35 35.55 36.45 36.4 35.6 37.3 34.35 37.3 L8.25 37.3 Q7.0 37.3 6.15 36.4 5.25 35.55 5.25 34.3 L5.25 8.2 Q5.25 6.95 6.15 6.1 7.0 5.2 8.25 5.2 L34.35 5.2" fill="#3a3a3a" fill-rule="evenodd" stroke="none"/>
    <path d="M4.3 5.45 L4.3 8.75 3.1 8.75 3.1 4.65 4.55 3.2 8.65 3.2 8.65 4.3 5.45 4.3 4.3 5.45" fill="#c4c4c4" fill-rule="evenodd" stroke="none"/>
    <path d="M38.3 5.45 L37.15 4.3 33.95 4.3 33.95 3.2 38.05 3.2 39.5 4.65 39.5 8.75 38.3 8.75 38.3 5.45" fill="#c4c4c4" fill-rule="evenodd" stroke="none"/>
    <path d="M4.3 37.25 L5.45 38.4 8.65 38.4 8.65 39.5 4.55 39.5 3.1 38.05 3.1 33.95 4.3 33.95 4.3 37.25" fill="#505151" fill-rule="evenodd" stroke="none"/>
    <path d="M38.3 37.25 L38.3 33.95 39.5 33.95 39.5 38.05 38.05 39.5 33.95 39.5 33.95 38.4 37.15 38.4 38.3 37.25" fill="#505151" fill-rule="evenodd" stroke="none"/>
    <path d="M36.3 35.5 L35.6 36.2 32.75 33.35 33.45 32.65 36.3 35.5" fill="#666668" fill-rule="evenodd" stroke="none"/>
    <path d="M9.25 32.65 L9.9 33.35 7.05 36.2 6.4 35.5 9.25 32.65" fill="#666668" fill-rule="evenodd" stroke="none"/>
    <path d="M36.3 6.95 L33.45 9.8 32.75 9.1 35.6 6.25 36.3 6.95" fill="#666668" fill-rule="evenodd" stroke="none"/>
    <path d="M9.25 9.8 L6.4 6.95 7.05 6.25 9.9 9.1 9.25 9.8" fill="#666668" fill-rule="evenodd" stroke="none"/>
    <path d="M34.05 11.1 L34.05 31.4 Q34.05 32.45 33.3 33.2 32.55 33.9 31.55 33.9 L11.25 33.9 Q10.2 33.9 9.5 33.2 8.75 32.45 8.75 31.4 L8.75 11.1 Q8.75 10.1 9.5 9.35 10.2 8.6 11.25 8.6 L31.55 8.6 Q32.55 8.6 33.3 9.35 34.05 10.1 34.05 11.1" fill="url(#gradient1)" fill-rule="evenodd" stroke="none"/>
    <path d="M33.55 11.1 Q33.55 10.3 32.95 9.7 32.4 9.1 31.55 9.1 L11.25 9.1 Q10.45 9.1 9.85 9.7 9.25 10.3 9.25 11.1 L9.25 31.4 Q9.25 32.25 9.85 32.8 10.45 33.4 11.25 33.4 L31.55 33.4 Q32.4 33.4 32.95 32.8 33.55 32.25 33.55 31.4 L33.55 11.1 M31.55 8.1 Q32.8 8.1 33.65 9.0 34.55 9.85 34.55 11.1 L34.55 31.4 Q34.55 32.65 33.65 33.5 32.8 34.4 31.55 34.4 L11.25 34.4 Q10.0 34.4 9.15 33.5 8.25 32.65 8.25 31.4 L8.25 11.1 Q8.25 9.85 9.15 9.0 10.0 8.1 11.25 8.1 L31.55 8.1" fill="#007dff" fill-rule="evenodd" stroke="none"/>
    <path d="M31.7 10.5 L10.55 32.0 Q10.0 32.6 9.55 32.45 9.15 32.3 9.15 31.45 L9.15 11.1 Q9.15 10.3 9.75 9.7 10.35 9.1 11.15 9.1 L31.1 9.1 Q31.95 9.1 32.1 9.5 32.25 9.9 31.7 10.5" fill="url(#gradient2)" fill-rule="evenodd" stroke="none"/>
    <path d="M29.65 13.2 Q30.05 14.55 30.05 17.65 30.05 24.6 21.4 30.25 12.7 24.6 12.7 17.65 12.7 14.55 13.1 13.2 15.65 14.65 21.4 12.35 22.95 13.05 25.05 13.45 L29.65 13.2" fill="#00a9f5" fill-rule="evenodd" stroke="none"/>
    <path d="M30.05 17.65 Q30.05 14.55 29.65 13.2 L27.25 13.7 23.75 13.2 21.4 12.35 Q18.35 13.7 15.5 13.7 14.05 13.7 13.1 13.2 12.7 14.55 12.7 17.65 12.7 24.6 21.4 30.25 30.05 24.6 30.05 17.65 M29.4 12.75 L30.0 12.4 30.15 13.05 Q30.55 14.45 30.55 17.65 30.55 22.3 26.35 26.9 22.85 30.75 21.4 30.75 19.9 30.75 16.4 26.9 12.2 22.35 12.2 17.65 12.2 14.45 12.6 13.05 L12.75 12.4 13.35 12.75 Q14.1 13.2 15.5 13.2 18.15 13.2 21.2 11.9 L21.4 11.85 21.6 11.9 Q24.55 13.2 27.25 13.2 L29.4 12.75" fill="#00cdf5" fill-rule="evenodd" stroke="none"/>
    <path d="M27.8 14.55 L28.05 18.1 Q28.05 24.2 21.35 29.15 14.7 24.2 14.7 18.1 L14.9 14.55 16.4 14.6 19.3 14.2 21.35 13.45 23.4 14.2 26.3 14.6 27.8 14.55" fill="#0763db" fill-rule="evenodd" stroke="none"/>
    <path d="M15.65 18.6 L15.85 15.55 17.15 15.6 Q19.0 15.8 21.35 14.6 23.6 15.7 25.55 15.6 L26.85 15.55 27.05 18.6 Q27.05 23.8 21.35 28.0 15.65 23.8 15.65 18.6" fill="#2f95ea" fill-rule="evenodd" stroke="none"/>
    <path d="M16.55 19.0 Q16.55 17.2 16.7 16.4 L17.75 16.45 Q19.4 16.55 21.35 15.6 23.3 16.55 24.95 16.45 L26.05 16.4 26.2 19.0 Q26.2 23.4 21.35 27.0 16.55 23.4 16.55 19.0" fill="#6cc8f5" fill-rule="evenodd" stroke="none"/>
  </g>
  <defs>
    <linearGradient gradientTransform="matrix(0.0, -0.0254, -0.0254, 0.0, 21.3, 21.3)" gradientUnits="userSpaceOnUse" id="gradient0" spreadMethod="pad" x1="-819.2" x2="819.2">
      <stop offset="0.0" stop-color="#505050"/>
      <stop offset="0.10980392156862745" stop-color="#282828"/>
      <stop offset="0.9058823529411765" stop-color="#a4a4a4"/>
      <stop offset="1.0" stop-color="#373737"/>
    </linearGradient>
    <linearGradient gradientTransform="matrix(0.0137, 0.0153, 0.0153, -0.0137, 21.4, 21.25)" gradientUnits="userSpaceOnUse" id="gradient1" spreadMethod="pad" x1="-819.2" x2="819.2">
      <stop offset="0.0" stop-color="#00003b"/>
      <stop offset="0.2901960784313726" stop-color="#001d63"/>
      <stop offset="0.7725490196078432" stop-color="#004aa2"/>
      <stop offset="1.0" stop-color="#005cba"/>
    </linearGradient>
    <linearGradient gradientTransform="matrix(0.0059, 0.0146, 0.0121, -0.0049, 19.2, 17.8)" gradientUnits="userSpaceOnUse" id="gradient2" spreadMethod="pad" x1="-819.2" x2="819.2">
      <stop offset="0.0" stop-color="#00b5ff"/>
      <stop offset="0.03529411764705882" stop-color="#00a5ff" stop-opacity="0.8392157"/>
      <stop offset="0.10196078431372549" stop-color="#008aff" stop-opacity="0.5803922"/>
      <stop offset="0.1843137254901961" stop-color="#0074ff" stop-opacity="0.3647059"/>
      <stop offset="0.27450980392156865" stop-color="#0063ff" stop-opacity="0.2"/>
      <stop offset="0.39215686274509803" stop-color="#0058ff" stop-opacity="0.08235294"/>
      <stop offset="0.5529411764705883" stop-color="#0051ff" stop-opacity="0.015686275"/>
      <stop offset="1.0" stop-color="#004fff" stop-opacity="0.0"/>
    </linearGradient>
  </defs>
</svg>
