<?xml version="1.0" encoding="UTF-8" standalone="no"?>
<svg xmlns:ffdec="https://www.free-decompiler.com/flash" xmlns:xlink="http://www.w3.org/1999/xlink" ffdec:objectType="shape" height="18.9px" width="18.4px" xmlns="http://www.w3.org/2000/svg">
  <g transform="matrix(1.0, 0.0, 0.0, 1.0, 0.0, 0.0)">
    <path d="M9.2 0.55 Q10.8 1.25 12.9 1.65 L17.5 1.35 Q17.9 2.75 17.9 5.85 17.9 12.75 9.2 18.4 0.5 12.75 0.5 5.85 0.5 2.95 0.9 1.35 L5.5 1.65 9.2 0.55" fill="#00bdff" fill-rule="evenodd" stroke="none"/>
    <path d="M15.1 1.35 L17.25 0.9 17.8 0.6 18.0 1.2 Q18.4 2.8 18.4 5.85 18.4 10.5 14.2 15.1 10.7 18.9 9.2 18.9 7.7 18.9 4.2 15.1 0.0 10.5 0.0 5.85 0.0 2.8 0.45 1.2 L0.6 0.6 1.15 0.9 Q2.0 1.35 3.3 1.35 L6.95 0.75 9.0 0.05 9.2 0.0 9.4 0.1 Q12.45 1.35 15.1 1.35 M17.9 5.85 Q17.9 2.75 17.5 1.35 16.55 1.85 15.1 1.85 L11.55 1.35 9.2 0.55 Q6.05 1.85 3.3 1.85 1.85 1.85 0.9 1.35 0.5 2.95 0.5 5.85 0.5 12.75 9.2 18.4 17.9 12.75 17.9 5.85" fill="#00e1ff" fill-rule="evenodd" stroke="none"/>
    <path d="M11.2 2.35 L14.15 2.75 15.65 2.7 15.85 6.25 Q15.85 12.4 9.2 17.3 2.5 12.4 2.5 6.25 2.5 3.85 2.75 2.7 L4.25 2.75 Q6.35 2.9 9.2 1.6 L11.2 2.35" fill="#0777e5" fill-rule="evenodd" stroke="none"/>
    <path d="M10.9 3.4 L13.4 3.75 14.7 3.7 14.85 6.75 Q14.85 11.95 9.2 16.15 3.5 11.95 3.5 6.75 L3.7 3.7 4.95 3.75 Q6.7 3.9 9.2 2.75 L10.9 3.4" fill="#2fa9f4" fill-rule="evenodd" stroke="none"/>
    <path d="M14.0 7.15 Q14.0 11.55 9.2 15.15 4.35 11.55 4.35 7.15 4.35 5.4 4.5 4.6 L5.6 4.6 Q7.0 4.75 9.2 3.75 11.05 4.8 12.75 4.6 L13.85 4.6 14.0 7.15" fill="#6cdcff" fill-rule="evenodd" stroke="none"/>
  </g>
</svg>
