<?xml version="1.0" encoding="UTF-8" standalone="no"?>
<svg xmlns:ffdec="https://www.free-decompiler.com/flash" xmlns:xlink="http://www.w3.org/1999/xlink" ffdec:objectType="shape" height="38.35px" width="38.3px" xmlns="http://www.w3.org/2000/svg">
  <g transform="matrix(1.0, 0.0, 0.0, 1.0, -2.15, -2.15)">
    <path d="M39.1 22.5 Q39.1 24.7 39.4 25.2 40.0 25.65 40.0 28.55 L40.0 36.9 Q40.0 38.2 39.1 39.15 38.15 40.05 36.85 40.05 L28.4 40.05 Q25.5 40.05 25.05 39.4 L22.45 39.15 20.1 39.15 17.4 39.45 Q16.95 40.05 14.05 40.05 L5.75 40.05 Q4.45 40.05 3.5 39.15 2.6 38.2 2.6 36.9 L2.6 28.5 Q2.6 25.7 3.1 25.2 3.4 24.65 3.4 22.5 L3.4 20.2 Q3.4 18.05 3.1 17.55 2.6 17.0 2.6 14.2 L2.6 5.75 Q2.6 4.45 3.5 3.55 4.45 2.6 5.75 2.6 L14.05 2.6 Q16.95 2.6 17.45 3.2 L20.1 3.5 22.45 3.5 25.1 3.15 Q25.5 2.6 28.4 2.6 L36.85 2.6 Q38.15 2.6 39.1 3.55 40.0 4.45 40.0 5.75 L40.0 14.15 Q40.0 17.1 39.35 17.55 39.1 18.0 39.1 20.2 L39.1 22.5" fill="url(#gradient0)" fill-rule="evenodd" stroke="none"/>
    <path d="M36.85 2.15 Q38.3 2.15 39.4 3.2 40.45 4.25 40.45 5.75 L40.45 14.15 Q40.45 16.9 39.8 17.75 39.55 18.45 39.55 20.2 L39.55 22.5 Q39.55 24.3 39.8 24.95 40.45 25.65 40.45 28.55 L40.45 36.9 Q40.45 38.35 39.4 39.45 38.3 40.5 36.85 40.5 L28.4 40.5 Q25.7 40.5 24.8 39.85 L22.45 39.6 20.1 39.6 17.6 39.85 Q16.85 40.5 14.05 40.5 L5.75 40.5 Q4.25 40.5 3.2 39.45 2.15 38.35 2.15 36.9 L2.15 28.5 Q2.15 25.65 2.7 24.95 L2.95 22.5 2.95 20.2 2.7 17.75 Q2.15 17.15 2.15 14.2 L2.15 5.75 Q2.15 4.25 3.2 3.2 4.25 2.15 5.75 2.15 L14.05 2.15 Q16.9 2.15 17.6 2.8 L20.1 3.05 22.45 3.05 24.8 2.8 Q25.6 2.15 28.4 2.15 L36.85 2.15 M39.55 5.75 Q39.55 4.6 38.7 3.85 37.95 3.05 36.85 3.05 L28.4 3.05 Q25.75 3.05 25.4 3.5 25.15 3.95 22.45 3.95 L20.1 3.95 17.05 3.5 Q16.7 3.05 14.05 3.05 L5.75 3.05 Q4.6 3.05 3.85 3.85 3.05 4.6 3.05 5.75 L3.05 14.2 Q3.05 16.9 3.45 17.2 3.85 17.45 3.85 20.2 L3.85 22.5 Q3.85 25.2 3.45 25.55 3.05 25.75 3.05 28.5 L3.05 36.9 Q3.05 38.0 3.85 38.75 4.6 39.6 5.75 39.6 L14.05 39.6 Q16.75 39.6 17.05 39.15 17.45 38.7 20.1 38.7 L22.45 38.7 Q25.15 38.7 25.4 39.15 25.7 39.6 28.4 39.6 L36.85 39.6 Q37.95 39.6 38.7 38.75 39.55 38.0 39.55 36.9 L39.55 28.55 Q39.55 25.85 39.1 25.55 38.65 25.2 38.65 22.5 L38.65 20.2 Q38.65 17.5 39.1 17.15 39.55 16.95 39.55 14.15 L39.55 5.75" fill="#333333" fill-rule="evenodd" stroke="none"/>
    <path d="M35.3 9.5 L35.3 33.05 Q35.3 33.95 34.6 34.65 33.95 35.3 33.05 35.3 L9.5 35.3 Q8.6 35.3 7.95 34.65 7.25 33.95 7.25 33.05 L7.25 9.5 Q7.25 8.55 7.95 7.95 8.6 7.25 9.5 7.25 L33.05 7.25 Q33.95 7.25 34.6 7.95 35.3 8.55 35.3 9.5" fill="#232323" fill-rule="evenodd" stroke="none"/>
    <path d="M33.05 6.8 Q34.15 6.8 34.95 7.65 35.75 8.4 35.75 9.5 L35.75 33.05 Q35.75 34.2 34.95 34.95 34.15 35.75 33.05 35.75 L9.5 35.75 Q8.4 35.75 7.6 34.95 6.8 34.2 6.8 33.05 L6.8 9.5 Q6.8 8.4 7.6 7.65 8.4 6.8 9.5 6.8 L33.05 6.8 M34.85 9.5 Q34.85 8.8 34.3 8.25 33.8 7.7 33.05 7.7 L9.5 7.7 Q8.8 7.7 8.25 8.25 7.7 8.8 7.7 9.5 L7.7 33.05 Q7.7 33.8 8.25 34.3 8.8 34.85 9.5 34.85 L33.05 34.85 Q33.8 34.85 34.3 34.3 34.85 33.8 34.85 33.05 L34.85 9.5" fill="#3a3a3a" fill-rule="evenodd" stroke="none"/>
    <path d="M5.95 7.05 L5.95 10.05 4.9 10.05 4.9 6.3 6.25 5.0 9.85 5.0 9.85 6.05 7.0 6.05 5.95 7.05" fill="#c4c4c4" fill-rule="evenodd" stroke="none"/>
    <path d="M36.55 7.05 L35.55 6.05 32.7 6.05 32.7 5.0 36.35 5.0 37.65 6.3 37.65 10.05 36.55 10.05 36.55 7.05" fill="#c4c4c4" fill-rule="evenodd" stroke="none"/>
    <path d="M5.95 35.65 L7.0 36.7 9.85 36.7 9.85 37.75 6.25 37.75 4.9 36.4 4.9 32.7 5.95 32.7 5.95 35.65" fill="#505151" fill-rule="evenodd" stroke="none"/>
    <path d="M36.55 35.65 L36.55 32.7 37.65 32.7 37.65 36.4 36.35 37.75 32.7 37.75 32.7 36.7 35.55 36.7 36.55 35.65" fill="#505151" fill-rule="evenodd" stroke="none"/>
    <path d="M34.75 34.15 L34.15 34.7 31.6 32.15 32.2 31.55 34.75 34.15" fill="#666668" fill-rule="evenodd" stroke="none"/>
    <path d="M10.4 31.55 L11.0 32.15 8.45 34.7 7.85 34.15 10.4 31.55" fill="#666668" fill-rule="evenodd" stroke="none"/>
    <path d="M34.75 8.4 L32.2 10.95 31.6 10.35 34.15 7.75 34.75 8.4" fill="#666668" fill-rule="evenodd" stroke="none"/>
    <path d="M10.4 10.95 L7.85 8.4 8.45 7.75 11.0 10.35 10.4 10.95" fill="#666668" fill-rule="evenodd" stroke="none"/>
    <path d="M32.5 12.15 L32.5 30.4 Q32.5 31.25 31.9 31.85 31.35 32.4 30.5 32.4 L12.2 32.4 Q11.35 32.4 10.75 31.85 10.2 31.25 10.2 30.4 L10.2 12.15 Q10.2 11.3 10.75 10.75 11.35 10.1 12.2 10.1 L30.5 10.1 Q31.35 10.1 31.9 10.75 32.5 11.3 32.5 12.15" fill="url(#gradient1)" fill-rule="evenodd" stroke="none"/>
    <path d="M30.5 9.45 Q31.6 9.45 32.35 10.25 33.2 11.0 33.2 12.15 L33.2 30.4 Q33.2 31.5 32.35 32.3 31.6 33.1 30.5 33.1 L12.2 33.1 Q11.1 33.1 10.3 32.3 9.5 31.5 9.5 30.4 L9.5 12.15 Q9.5 11.0 10.3 10.25 11.1 9.45 12.2 9.45 L30.5 9.45 M31.85 12.15 Q31.85 11.6 31.45 11.2 31.0 10.8 30.5 10.8 L12.2 10.8 Q11.65 10.8 11.25 11.2 10.85 11.6 10.85 12.15 L10.85 30.4 Q10.85 31.0 11.25 31.35 11.65 31.75 12.2 31.75 L30.5 31.75 Q31.0 31.75 31.45 31.35 31.85 31.0 31.85 30.4 L31.85 12.15" fill="#00c9ff" fill-rule="evenodd" stroke="none"/>
  </g>
  <defs>
    <linearGradient gradientTransform="matrix(0.0, -0.0228, -0.0228, 0.0, 21.25, 21.3)" gradientUnits="userSpaceOnUse" id="gradient0" spreadMethod="pad" x1="-819.2" x2="819.2">
      <stop offset="0.0" stop-color="#505050"/>
      <stop offset="0.10980392156862745" stop-color="#282828"/>
      <stop offset="0.9058823529411765" stop-color="#a4a4a4"/>
      <stop offset="1.0" stop-color="#373737"/>
    </linearGradient>
    <linearGradient gradientTransform="matrix(0.0122, 0.0135, 0.0135, -0.0122, 21.35, 21.25)" gradientUnits="userSpaceOnUse" id="gradient1" spreadMethod="pad" x1="-819.2" x2="819.2">
      <stop offset="0.0" stop-color="#002969"/>
      <stop offset="0.3686274509803922" stop-color="#004aa3"/>
      <stop offset="0.796078431372549" stop-color="#006ce2"/>
      <stop offset="1.0" stop-color="#007afa"/>
    </linearGradient>
  </defs>
</svg>
