<?xml version="1.0" encoding="UTF-8" standalone="no"?>
<svg xmlns:ffdec="https://www.free-decompiler.com/flash" xmlns:xlink="http://www.w3.org/1999/xlink" ffdec:objectType="shape" height="42.6px" width="42.55px" xmlns="http://www.w3.org/2000/svg">
  <g transform="matrix(1.0, 0.0, 0.0, 1.0, 0.0, 0.0)">
    <path d="M25.55 1.15 Q25.95 0.5 29.2 0.5 L38.55 0.5 Q40.0 0.5 41.05 1.55 42.05 2.55 42.05 4.0 L42.05 13.35 Q42.05 16.6 41.35 17.1 41.1 17.85 41.1 20.05 L41.1 22.65 Q41.1 25.2 41.45 25.65 42.05 26.05 42.05 29.3 L42.05 38.6 Q42.05 40.05 41.05 41.05 40.0 42.1 38.55 42.1 L29.2 42.1 Q25.95 42.1 25.45 41.4 L22.55 41.1 19.95 41.1 16.95 41.45 Q16.5 42.1 13.25 42.1 L4.0 42.1 Q2.55 42.1 1.5 41.05 0.5 40.05 0.5 38.6 L0.5 29.25 Q0.5 26.2 1.1 25.6 1.4 25.0 1.4 22.65 L1.4 20.05 Q1.4 17.7 1.1 17.1 0.5 16.5 0.5 13.4 L0.5 4.0 Q0.5 2.55 1.5 1.55 2.55 0.5 4.0 0.5 L13.25 0.5 Q16.5 0.5 17.0 1.2 L19.95 1.5 22.55 1.5 25.55 1.15" fill="url(#gradient0)" fill-rule="evenodd" stroke="none"/>
    <path d="M24.75 1.85 L22.55 2.0 19.95 2.0 Q17.0 2.0 16.6 1.5 16.2 1.0 13.25 1.0 L4.0 1.0 Q2.75 1.0 1.9 1.9 1.0 2.75 1.0 4.0 L1.0 13.4 Q1.0 16.4 1.45 16.75 1.9 17.0 1.9 20.05 L1.9 22.65 Q1.9 25.7 1.45 25.95 1.0 26.3 1.0 29.25 L1.0 38.6 Q1.0 39.85 1.9 40.7 2.75 41.6 4.0 41.6 L13.25 41.6 16.6 41.1 Q17.0 40.6 19.95 40.6 L22.55 40.6 Q25.55 40.6 25.85 41.1 L27.0 41.45 29.2 41.6 38.55 41.6 Q39.8 41.6 40.65 40.7 41.55 39.85 41.55 38.6 L41.55 29.3 Q41.55 26.25 41.1 26.0 40.6 25.65 40.6 22.65 L40.6 20.05 Q40.6 17.05 41.1 16.7 41.55 16.35 41.55 13.35 L41.55 4.0 Q41.55 2.75 40.65 1.9 39.8 1.0 38.55 1.0 L29.2 1.0 Q26.25 1.0 25.85 1.5 L24.75 1.85 M19.95 1.0 L22.55 1.0 25.2 0.75 Q26.1 0.0 29.2 0.0 L38.55 0.0 Q40.2 0.0 41.4 1.2 42.55 2.35 42.55 4.0 L42.55 13.35 Q42.55 16.5 41.85 17.35 41.6 18.1 41.6 20.05 L41.6 22.65 Q41.6 24.5 41.85 25.35 42.55 26.05 42.55 29.3 L42.55 38.6 Q42.55 40.25 41.4 41.45 40.2 42.6 38.55 42.6 L29.2 42.6 Q26.1 42.6 25.2 41.85 L22.55 41.6 19.95 41.6 17.2 41.9 Q16.35 42.6 13.25 42.6 L4.0 42.6 Q2.35 42.6 1.2 41.45 0.0 40.25 0.0 38.6 L0.0 29.25 Q0.0 26.15 0.65 25.35 L0.9 22.65 0.9 20.05 0.65 17.35 Q0.0 16.45 0.0 13.4 L0.0 4.0 Q0.0 2.35 1.2 1.2 2.35 0.0 4.0 0.0 L13.25 0.0 Q16.35 0.0 17.2 0.7 L19.95 1.0" fill="#333333" fill-rule="evenodd" stroke="none"/>
    <path d="M36.85 8.2 L36.85 34.3 Q36.85 35.35 36.1 36.1 35.35 36.8 34.35 36.8 L8.2 36.8 Q7.2 36.8 6.45 36.1 5.7 35.35 5.7 34.3 L5.7 8.2 Q5.7 7.15 6.45 6.45 7.2 5.7 8.2 5.7 L34.35 5.7 Q35.35 5.7 36.1 6.45 36.85 7.15 36.85 8.2" fill="#232323" fill-rule="evenodd" stroke="none"/>
    <path d="M36.35 8.2 Q36.35 7.4 35.75 6.8 35.2 6.2 34.35 6.2 L8.2 6.2 Q7.4 6.2 6.8 6.8 6.2 7.4 6.2 8.2 L6.2 34.3 Q6.2 35.15 6.8 35.7 7.4 36.3 8.2 36.3 L34.35 36.3 Q35.2 36.3 35.75 35.7 36.35 35.15 36.35 34.3 L36.35 8.2 M34.35 5.2 Q35.6 5.2 36.45 6.1 37.35 6.95 37.35 8.2 L37.35 34.3 Q37.35 35.55 36.45 36.4 35.6 37.3 34.35 37.3 L8.2 37.3 Q6.95 37.3 6.1 36.4 5.2 35.55 5.2 34.3 L5.2 8.2 Q5.2 6.95 6.1 6.1 6.95 5.2 8.2 5.2 L34.35 5.2" fill="#3a3a3a" fill-rule="evenodd" stroke="none"/>
    <path d="M4.3 5.45 L4.3 8.75 3.1 8.75 3.1 4.65 4.55 3.2 8.6 3.2 8.6 4.3 5.4 4.3 4.3 5.45" fill="#c4c4c4" fill-rule="evenodd" stroke="none"/>
    <path d="M38.3 5.45 L37.15 4.3 33.95 4.3 33.95 3.2 38.0 3.2 39.5 4.65 39.5 8.75 38.3 8.75 38.3 5.45" fill="#c4c4c4" fill-rule="evenodd" stroke="none"/>
    <path d="M4.3 37.25 L5.4 38.4 8.6 38.4 8.6 39.5 4.55 39.5 3.1 38.05 3.1 33.95 4.3 33.95 4.3 37.25" fill="#505151" fill-rule="evenodd" stroke="none"/>
    <path d="M38.3 37.25 L38.3 33.95 39.5 33.95 39.5 38.05 38.0 39.5 33.95 39.5 33.95 38.4 37.15 38.4 38.3 37.25" fill="#505151" fill-rule="evenodd" stroke="none"/>
    <path d="M36.25 35.5 L35.6 36.2 32.75 33.35 33.4 32.65 36.25 35.5" fill="#666668" fill-rule="evenodd" stroke="none"/>
    <path d="M9.2 32.65 L9.9 33.35 7.05 36.2 6.35 35.5 9.2 32.65" fill="#666668" fill-rule="evenodd" stroke="none"/>
    <path d="M36.25 6.95 L33.4 9.8 32.75 9.1 35.6 6.25 36.25 6.95" fill="#666668" fill-rule="evenodd" stroke="none"/>
    <path d="M9.2 9.8 L6.35 6.95 7.05 6.25 9.9 9.1 9.2 9.8" fill="#666668" fill-rule="evenodd" stroke="none"/>
    <path d="M34.0 11.1 L34.0 31.4 Q34.0 32.45 33.3 33.2 32.55 33.9 31.5 33.9 L11.2 33.9 Q10.2 33.9 9.45 33.2 8.7 32.45 8.7 31.4 L8.7 11.1 Q8.7 10.1 9.45 9.35 10.2 8.6 11.2 8.6 L31.5 8.6 Q32.55 8.6 33.3 9.35 34.0 10.1 34.0 11.1" fill="url(#gradient1)" fill-rule="evenodd" stroke="none"/>
    <path d="M33.5 11.1 Q33.5 10.3 32.9 9.7 32.35 9.1 31.5 9.1 L11.2 9.1 Q10.4 9.1 9.8 9.7 9.2 10.3 9.2 11.1 L9.2 31.4 Q9.2 32.25 9.8 32.8 10.4 33.4 11.2 33.4 L31.5 33.4 Q32.35 33.4 32.9 32.8 33.5 32.25 33.5 31.4 L33.5 11.1 M31.5 8.1 Q32.75 8.1 33.6 9.0 34.5 9.85 34.5 11.1 L34.5 31.4 Q34.5 32.65 33.6 33.5 32.75 34.4 31.5 34.4 L11.2 34.4 Q9.95 34.4 9.1 33.5 8.2 32.65 8.2 31.4 L8.2 11.1 Q8.2 9.85 9.1 9.0 9.95 8.1 11.2 8.1 L31.5 8.1" fill="#007dff" fill-rule="evenodd" stroke="none"/>
    <path d="M31.65 10.5 L10.55 32.0 Q9.95 32.6 9.55 32.45 9.15 32.3 9.15 31.45 L9.15 11.1 Q9.15 10.3 9.75 9.7 10.35 9.1 11.15 9.1 L31.05 9.1 Q31.9 9.1 32.05 9.5 32.25 9.9 31.65 10.5" fill="url(#gradient2)" fill-rule="evenodd" stroke="none"/>
    <path d="M26.8 14.65 Q29.05 16.45 28.95 19.05 28.85 20.35 28.35 21.25 28.35 18.65 26.9 18.55 L25.45 19.0 25.25 18.85 25.05 18.9 23.55 20.4 Q24.1 21.4 22.4 22.5 21.3 23.25 19.3 25.8 17.4 28.2 16.05 28.9 14.8 28.4 14.3 27.15 15.0 25.75 17.4 23.9 L20.65 20.8 Q21.85 19.05 22.75 19.6 L24.25 18.15 24.25 18.0 24.3 17.95 24.1 17.65 24.65 16.7 Q24.95 15.55 24.7 15.3 L23.8 15.2 23.45 14.95 Q23.0 14.5 23.45 13.95 L24.1 13.35 Q24.3 13.15 24.6 13.15 L25.1 13.35 25.35 13.65 25.5 14.45 Q25.6 14.75 26.45 14.7 L26.8 14.65" fill="#066dea" fill-rule="evenodd" stroke="none"/>
    <path d="M26.8 14.65 Q29.05 16.45 28.95 19.05 28.85 20.35 28.35 21.25 28.35 18.65 26.9 18.55 L25.45 19.0 25.25 18.85 25.05 18.9 23.55 20.4 Q24.1 21.4 22.4 22.5 21.3 23.25 19.3 25.8 17.4 28.2 16.05 28.9 14.8 28.4 14.3 27.15 15.0 25.75 17.4 23.9 L20.65 20.8 Q21.85 19.05 22.75 19.6 L24.25 18.15 24.25 18.0 24.3 17.95 24.1 17.65 24.65 16.7 Q24.95 15.55 24.7 15.3 L23.8 15.2 23.45 14.95 Q23.0 14.5 23.45 13.95 L24.1 13.35 Q24.3 13.15 24.6 13.15 L25.1 13.35 25.35 13.65 25.5 14.45 Q25.6 14.75 26.45 14.7 L26.8 14.65" fill="#066dea" fill-rule="evenodd" stroke="none"/>
    <path d="M26.8 14.65 Q29.05 16.45 28.95 19.05 28.85 20.35 28.35 21.25 28.35 18.65 26.9 18.55 L25.45 19.0 25.25 18.85 25.05 18.9 23.55 20.4 Q24.1 21.4 22.4 22.5 21.3 23.25 19.3 25.8 17.4 28.2 16.05 28.9 14.8 28.4 14.3 27.15 15.0 25.75 17.4 23.9 L20.65 20.8 Q21.85 19.05 22.75 19.6 L24.25 18.15 24.25 18.0 24.3 17.95 24.1 17.65 24.65 16.7 Q24.95 15.55 24.7 15.3 L23.8 15.2 23.45 14.95 Q23.0 14.5 23.45 13.95 L24.1 13.35 Q24.3 13.15 24.6 13.15 L25.1 13.35 25.35 13.65 25.5 14.45 Q25.6 14.75 26.45 14.7 L26.8 14.65" fill="#009eff" fill-rule="evenodd" stroke="none"/>
    <path d="M26.8 14.65 Q29.05 16.45 28.95 19.05 28.85 20.35 28.35 21.25 28.35 18.65 26.9 18.55 L25.45 19.0 25.25 18.85 25.05 18.9 24.25 18.15 24.25 18.0 24.3 17.95 24.1 17.65 24.65 16.7 Q24.95 15.55 24.7 15.3 L23.8 15.2 23.45 14.95 Q23.0 14.5 23.45 13.95 L24.1 13.35 Q24.3 13.15 24.6 13.15 L25.1 13.35 25.35 13.65 25.5 14.45 Q25.6 14.75 26.45 14.7 L26.8 14.65" fill="#00bdff" fill-rule="evenodd" stroke="none"/>
    <path d="M26.8 14.65 Q29.05 16.45 28.95 19.05 28.85 20.35 28.35 21.25 28.35 18.65 26.9 18.55 L25.45 19.0 25.25 18.85 25.05 18.9 24.25 18.15 24.25 18.0 24.3 17.95 24.1 17.65 24.65 16.7 Q24.95 15.55 24.7 15.3 L23.8 15.2 23.45 14.95 Q23.0 14.5 23.45 13.95 L24.1 13.35 Q24.3 13.15 24.6 13.15 L25.1 13.35 25.35 13.65 25.5 14.45 Q25.6 14.75 26.45 14.7 L26.8 14.65 Z" ffdec:has-small-stroke="true" ffdec:original-stroke-width="0.5" fill="none" stroke="#00e1ff" stroke-linecap="butt" stroke-linejoin="miter-clip" stroke-miterlimit="4.0" stroke-width="1.0"/>
    <path d="M23.55 20.4 Q24.1 21.4 22.4 22.5 21.3 23.25 19.3 25.8 17.4 28.2 16.05 28.9 14.8 28.4 14.3 27.15 15.0 25.75 17.4 23.9 L20.65 20.8 Q21.85 19.05 22.75 19.6 L23.55 20.4" fill="#05b0e5" fill-rule="evenodd" stroke="none"/>
    <path d="M23.55 20.4 Q24.1 21.4 22.4 22.5 21.3 23.25 19.3 25.8 17.4 28.2 16.05 28.9 14.8 28.4 14.3 27.15 15.0 25.75 17.4 23.9 L20.65 20.8 Q21.85 19.05 22.75 19.6 L23.55 20.4 Z" ffdec:has-small-stroke="true" ffdec:original-stroke-width="0.5" fill="none" stroke="#00e1ff" stroke-linecap="butt" stroke-linejoin="miter-clip" stroke-miterlimit="4.0" stroke-width="1.0"/>
    <path d="M17.9 15.0 Q19.0 16.2 18.5 17.65 L25.25 24.45 Q26.85 23.85 28.05 25.05 29.15 26.15 28.7 27.65 L27.45 26.45 26.9 26.4 Q26.6 26.55 26.3 26.8 L26.2 26.9 Q25.55 27.65 25.9 28.0 L27.15 29.25 27.0 29.35 Q25.5 29.85 24.35 28.7 23.25 27.6 23.75 26.0 L16.9 19.2 Q15.45 19.65 14.35 18.55 13.25 17.5 13.75 16.05 L14.9 17.2 Q15.35 17.55 16.05 16.85 16.8 16.0 16.4 15.7 L15.25 14.5 15.35 14.4 Q16.75 13.9 17.9 15.0" fill="#00dbff" fill-rule="evenodd" stroke="none"/>
    <path d="M17.9 15.0 Q19.0 16.2 18.5 17.65 L25.25 24.45 Q26.85 23.85 28.05 25.05 29.15 26.15 28.7 27.65 L27.45 26.45 26.9 26.4 Q26.6 26.55 26.3 26.8 L26.2 26.9 Q25.55 27.65 25.9 28.0 L27.15 29.25 27.0 29.35 Q25.5 29.85 24.35 28.7 23.25 27.6 23.75 26.0 L16.9 19.2 Q15.45 19.65 14.35 18.55 13.25 17.5 13.75 16.05 L14.9 17.2 Q15.35 17.55 16.05 16.85 16.8 16.0 16.4 15.7 L15.25 14.5 15.35 14.4 Q16.75 13.9 17.9 15.0 Z" ffdec:has-small-stroke="true" ffdec:original-stroke-width="0.5" fill="none" stroke="#00e1ff" stroke-linecap="butt" stroke-linejoin="miter-clip" stroke-miterlimit="4.0" stroke-width="1.0"/>
  </g>
  <defs>
    <linearGradient gradientTransform="matrix(0.0, -0.0254, -0.0254, 0.0, 21.3, 21.3)" gradientUnits="userSpaceOnUse" id="gradient0" spreadMethod="pad" x1="-819.2" x2="819.2">
      <stop offset="0.0" stop-color="#505050"/>
      <stop offset="0.10980392156862745" stop-color="#282828"/>
      <stop offset="0.9058823529411765" stop-color="#a4a4a4"/>
      <stop offset="1.0" stop-color="#373737"/>
    </linearGradient>
    <linearGradient gradientTransform="matrix(0.0137, 0.0153, 0.0153, -0.0137, 21.35, 21.25)" gradientUnits="userSpaceOnUse" id="gradient1" spreadMethod="pad" x1="-819.2" x2="819.2">
      <stop offset="0.0" stop-color="#00003b"/>
      <stop offset="0.2901960784313726" stop-color="#001d63"/>
      <stop offset="0.7725490196078432" stop-color="#004aa2"/>
      <stop offset="1.0" stop-color="#005cba"/>
    </linearGradient>
    <linearGradient gradientTransform="matrix(0.0059, 0.0146, 0.0121, -0.0049, 19.2, 17.8)" gradientUnits="userSpaceOnUse" id="gradient2" spreadMethod="pad" x1="-819.2" x2="819.2">
      <stop offset="0.0" stop-color="#00b5ff"/>
      <stop offset="0.03529411764705882" stop-color="#00a5ff" stop-opacity="0.8392157"/>
      <stop offset="0.10196078431372549" stop-color="#008aff" stop-opacity="0.5803922"/>
      <stop offset="0.1843137254901961" stop-color="#0074ff" stop-opacity="0.3647059"/>
      <stop offset="0.27450980392156865" stop-color="#0063ff" stop-opacity="0.2"/>
      <stop offset="0.39215686274509803" stop-color="#0058ff" stop-opacity="0.08235294"/>
      <stop offset="0.5529411764705883" stop-color="#0051ff" stop-opacity="0.015686275"/>
      <stop offset="1.0" stop-color="#004fff" stop-opacity="0.0"/>
    </linearGradient>
  </defs>
</svg>
