<?xml version="1.0" encoding="UTF-8" standalone="no"?>
<svg xmlns:ffdec="https://www.free-decompiler.com/flash" xmlns:xlink="http://www.w3.org/1999/xlink" ffdec:objectType="shape" height="16.85px" width="15.9px" xmlns="http://www.w3.org/2000/svg">
  <g transform="matrix(1.0, 0.0, 0.0, 1.0, 0.3, 0.25)">
    <path d="M13.2 1.5 Q15.45 3.3 15.35 5.9 15.25 7.2 14.75 8.1 14.75 5.5 13.3 5.45 L11.85 5.9 11.6 5.75 11.45 5.8 9.95 7.3 Q10.5 8.2 8.75 9.4 7.7 10.1 5.65 12.65 3.8 15.05 2.4 15.75 1.15 15.3 0.7 14.0 1.4 12.65 3.75 10.75 6.3 8.75 7.05 7.65 8.15 5.95 9.15 6.45 L10.6 5.0 10.65 4.85 10.5 4.55 11.0 3.55 11.15 2.9 11.1 2.15 10.2 2.1 9.85 1.8 9.65 1.35 9.85 0.85 10.45 0.2 10.95 0.0 11.45 0.2 11.75 0.55 Q12.05 0.85 11.9 1.3 11.9 1.6 12.85 1.55 L13.2 1.5" fill="#066dea" fill-rule="evenodd" stroke="none"/>
    <path d="M13.2 1.5 Q15.45 3.3 15.35 5.9 15.25 7.2 14.75 8.1 14.75 5.5 13.3 5.45 L11.85 5.9 11.6 5.75 11.45 5.8 9.95 7.3 Q10.5 8.2 8.75 9.4 7.7 10.1 5.65 12.65 3.8 15.05 2.4 15.75 1.15 15.3 0.7 14.0 1.4 12.65 3.75 10.75 6.3 8.75 7.05 7.65 8.15 5.95 9.15 6.45 L10.6 5.0 10.65 4.85 10.5 4.55 11.0 3.55 11.15 2.9 11.1 2.15 10.2 2.1 9.85 1.8 9.65 1.35 9.85 0.85 10.45 0.2 10.95 0.0 11.45 0.2 11.75 0.55 Q12.05 0.85 11.9 1.3 11.9 1.6 12.85 1.55 L13.2 1.5" fill="#066dea" fill-rule="evenodd" stroke="none"/>
    <path d="M13.2 1.5 Q15.45 3.3 15.35 5.9 15.25 7.2 14.75 8.1 14.75 5.5 13.3 5.45 L11.85 5.9 11.6 5.75 11.45 5.8 9.95 7.3 Q10.5 8.2 8.75 9.4 7.7 10.1 5.65 12.65 3.8 15.05 2.4 15.75 1.15 15.3 0.7 14.0 1.4 12.65 3.75 10.75 6.3 8.75 7.05 7.65 8.15 5.95 9.15 6.45 L10.6 5.0 10.65 4.85 10.5 4.55 11.0 3.55 11.15 2.9 11.1 2.15 10.2 2.1 9.85 1.8 9.65 1.35 9.85 0.85 10.45 0.2 10.95 0.0 11.45 0.2 11.75 0.55 Q12.05 0.85 11.9 1.3 11.9 1.6 12.85 1.55 L13.2 1.5" fill="#00bdff" fill-rule="evenodd" stroke="none"/>
    <path d="M13.2 1.5 Q15.45 3.3 15.35 5.9 15.25 7.2 14.75 8.1 14.75 5.5 13.3 5.45 L11.85 5.9 11.6 5.75 11.45 5.8 10.6 5.0 10.65 4.85 10.5 4.55 11.0 3.55 11.15 2.9 11.1 2.15 10.2 2.1 9.85 1.8 9.65 1.35 9.85 0.85 10.45 0.2 10.95 0.0 11.45 0.2 11.75 0.55 Q12.05 0.85 11.9 1.3 11.9 1.6 12.85 1.55 L13.2 1.5" fill="#00e7ff" fill-rule="evenodd" stroke="none"/>
    <path d="M13.2 1.5 Q15.45 3.3 15.35 5.9 15.25 7.2 14.75 8.1 14.75 5.5 13.3 5.45 L11.85 5.9 11.6 5.75 11.45 5.8 10.6 5.0 10.65 4.85 10.5 4.55 11.0 3.55 11.15 2.9 11.1 2.15 10.2 2.1 9.85 1.8 9.65 1.35 9.85 0.85 10.45 0.2 10.95 0.0 11.45 0.2 11.75 0.55 Q12.05 0.85 11.9 1.3 11.9 1.6 12.85 1.55 L13.2 1.5 Z" ffdec:has-small-stroke="true" ffdec:original-stroke-width="0.5" fill="none" stroke="#00e1ff" stroke-linecap="butt" stroke-linejoin="miter-clip" stroke-miterlimit="4.0" stroke-width="1.0"/>
    <path d="M9.95 7.3 Q10.5 8.2 8.75 9.4 7.7 10.1 5.65 12.65 3.8 15.05 2.4 15.75 1.15 15.3 0.7 14.0 1.4 12.65 3.75 10.75 6.3 8.75 7.05 7.65 8.15 5.95 9.15 6.45 L9.95 7.3" fill="#08cffc" fill-rule="evenodd" stroke="none"/>
    <path d="M9.95 7.3 Q10.5 8.2 8.75 9.4 7.7 10.1 5.65 12.65 3.8 15.05 2.4 15.75 1.15 15.3 0.7 14.0 1.4 12.65 3.75 10.75 6.3 8.75 7.05 7.65 8.15 5.95 9.15 6.45 L9.95 7.3 Z" ffdec:has-small-stroke="true" ffdec:original-stroke-width="0.5" fill="none" stroke="#00e1ff" stroke-linecap="butt" stroke-linejoin="miter-clip" stroke-miterlimit="4.0" stroke-width="1.0"/>
    <path d="M14.45 11.9 Q15.55 13.0 15.05 14.55 L13.85 13.3 Q13.4 12.95 12.65 13.7 L12.6 13.75 Q11.9 14.55 12.3 14.85 L13.5 16.1 13.4 16.2 Q11.85 16.7 10.75 15.6 9.55 14.4 10.15 12.9 L3.3 6.05 1.95 6.15 0.75 5.45 Q-0.35 4.35 0.1 2.9 L1.3 4.1 Q1.65 4.45 2.45 3.7 3.15 3.0 2.8 2.55 L1.6 1.4 1.75 1.25 Q3.2 0.8 4.3 1.9 5.45 3.05 4.85 4.55 L11.65 11.3 Q13.25 10.7 14.45 11.9" fill="#0dffff" fill-rule="evenodd" stroke="none"/>
    <path d="M14.45 11.9 Q15.55 13.0 15.05 14.55 L13.85 13.3 Q13.4 12.95 12.65 13.7 L12.6 13.75 Q11.9 14.55 12.3 14.85 L13.5 16.1 13.4 16.2 Q11.85 16.7 10.75 15.6 9.55 14.4 10.15 12.9 L3.3 6.05 1.95 6.15 0.75 5.45 Q-0.35 4.35 0.1 2.9 L1.3 4.1 Q1.65 4.45 2.45 3.7 3.15 3.0 2.8 2.55 L1.6 1.4 1.75 1.25 Q3.2 0.8 4.3 1.9 5.45 3.05 4.85 4.55 L11.65 11.3 Q13.25 10.7 14.45 11.9 Z" ffdec:has-small-stroke="true" ffdec:original-stroke-width="0.5" fill="none" stroke="#00e1ff" stroke-linecap="butt" stroke-linejoin="miter-clip" stroke-miterlimit="4.0" stroke-width="1.0"/>
  </g>
</svg>
