<?xml version="1.0" encoding="UTF-8" standalone="no"?>
<svg xmlns:ffdec="https://www.free-decompiler.com/flash" xmlns:xlink="http://www.w3.org/1999/xlink" ffdec:objectType="shape" height="38.35px" width="38.35px" xmlns="http://www.w3.org/2000/svg">
  <g transform="matrix(1.0, 0.0, 0.0, 1.0, -2.15, -2.15)">
    <path d="M20.1 3.5 L22.45 3.5 25.15 3.15 Q25.5 2.6 28.45 2.6 L36.9 2.6 Q38.2 2.6 39.1 3.55 40.05 4.5 40.05 5.75 L40.05 14.15 Q40.05 17.1 39.4 17.55 39.15 18.1 39.15 20.2 L39.15 22.5 Q39.15 24.6 39.45 25.2 40.05 25.65 40.05 28.55 L40.05 36.9 Q40.05 38.2 39.1 39.15 38.2 40.05 36.9 40.05 L28.45 40.05 Q25.5 40.05 25.1 39.4 L22.45 39.15 20.1 39.15 17.4 39.45 Q17.0 40.05 14.1 40.05 L5.75 40.05 Q4.45 40.05 3.55 39.15 2.6 38.2 2.6 36.9 L2.6 28.5 Q2.6 25.7 3.15 25.2 L3.4 22.5 3.4 20.2 3.15 17.55 Q2.6 17.0 2.6 14.2 L2.6 5.75 Q2.6 4.5 3.55 3.55 4.5 2.6 5.75 2.6 L14.1 2.6 Q17.0 2.6 17.45 3.2 L20.1 3.5" fill="url(#gradient0)" fill-rule="evenodd" stroke="none"/>
    <path d="M14.1 2.15 Q16.85 2.15 17.7 2.8 L20.1 3.05 22.45 3.05 24.9 2.8 Q25.55 2.15 28.45 2.15 L36.9 2.15 Q38.4 2.15 39.45 3.2 40.5 4.25 40.5 5.75 L40.5 14.15 Q40.5 16.9 39.85 17.75 39.6 18.55 39.6 20.2 L39.6 22.5 39.8 24.95 Q40.5 25.75 40.5 28.55 L40.5 36.9 Q40.5 38.35 39.45 39.45 38.4 40.5 36.9 40.5 L28.45 40.5 Q25.8 40.5 24.9 39.85 L22.45 39.6 20.1 39.6 17.7 39.85 Q16.8 40.5 14.1 40.5 L5.75 40.5 Q4.25 40.5 3.25 39.45 2.15 38.35 2.15 36.9 L2.15 28.5 Q2.15 25.65 2.8 24.95 L2.95 22.5 2.95 20.2 2.8 17.75 Q2.15 17.1 2.15 14.2 L2.15 5.75 Q2.15 4.25 3.25 3.2 4.25 2.15 5.75 2.15 L14.1 2.15 M20.1 3.95 L17.1 3.5 Q16.75 3.05 14.1 3.05 L5.75 3.05 Q4.65 3.05 3.85 3.85 3.05 4.6 3.05 5.75 L3.05 14.2 Q3.05 16.9 3.45 17.2 3.85 17.45 3.85 20.2 L3.85 22.5 Q3.85 25.2 3.45 25.55 3.05 25.75 3.05 28.5 L3.05 36.9 Q3.05 38.0 3.85 38.75 4.65 39.6 5.75 39.6 L14.1 39.6 Q16.8 39.6 17.1 39.15 17.45 38.7 20.1 38.7 L22.45 38.7 Q25.1 38.7 25.45 39.15 25.7 39.6 28.45 39.6 L36.9 39.6 Q38.0 39.6 38.8 38.75 39.6 38.0 39.6 36.9 L39.6 28.55 Q39.6 25.9 39.15 25.55 38.7 25.2 38.7 22.5 L38.7 20.2 Q38.7 17.55 39.15 17.15 39.6 16.9 39.6 14.15 L39.6 5.75 Q39.6 4.6 38.8 3.85 38.0 3.05 36.9 3.05 L28.45 3.05 Q25.75 3.05 25.45 3.5 25.15 3.95 22.45 3.95 L20.1 3.95" fill="#333333" fill-rule="evenodd" stroke="none"/>
    <path d="M9.6 7.25 L33.05 7.25 Q34.0 7.25 34.7 7.95 35.3 8.55 35.3 9.5 L35.3 33.05 Q35.3 33.95 34.7 34.65 34.0 35.3 33.05 35.3 L9.6 35.3 Q8.65 35.3 8.0 34.65 7.35 33.95 7.35 33.05 L7.35 9.5 Q7.35 8.55 8.0 7.95 8.65 7.25 9.6 7.25" fill="#232323" fill-rule="evenodd" stroke="none"/>
    <path d="M6.9 9.5 Q6.9 8.4 7.7 7.65 8.45 6.8 9.6 6.8 L33.05 6.8 Q34.2 6.8 34.95 7.65 35.75 8.4 35.75 9.5 L35.75 33.05 Q35.75 34.2 34.95 34.95 34.2 35.75 33.05 35.75 L9.6 35.75 Q8.45 35.75 7.7 34.95 6.9 34.2 6.9 33.05 L6.9 9.5 M9.6 7.7 Q8.85 7.7 8.3 8.25 7.8 8.8 7.8 9.5 L7.8 33.05 Q7.8 33.8 8.3 34.3 8.85 34.85 9.6 34.85 L33.05 34.85 Q33.85 34.85 34.35 34.3 34.85 33.8 34.85 33.05 L34.85 9.5 Q34.85 8.8 34.35 8.25 33.85 7.7 33.05 7.7 L9.6 7.7" fill="#3a3a3a" fill-rule="evenodd" stroke="none"/>
    <path d="M6.0 7.05 L6.0 10.05 4.95 10.05 4.95 6.3 6.25 5.0 9.95 5.0 9.95 6.05 7.05 6.05 6.0 7.05" fill="#c4c4c4" fill-rule="evenodd" stroke="none"/>
    <path d="M36.6 7.05 L35.6 6.05 32.7 6.05 32.7 5.0 36.4 5.0 37.7 6.3 37.7 10.05 36.6 10.05 36.6 7.05" fill="#c4c4c4" fill-rule="evenodd" stroke="none"/>
    <path d="M6.0 35.65 L7.05 36.7 9.95 36.7 9.95 37.75 6.25 37.75 4.95 36.4 4.95 32.7 6.0 32.7 6.0 35.65" fill="#505151" fill-rule="evenodd" stroke="none"/>
    <path d="M36.6 35.65 L36.6 32.7 37.7 32.7 37.7 36.4 36.4 37.75 32.7 37.75 32.7 36.7 35.6 36.7 36.6 35.65" fill="#505151" fill-rule="evenodd" stroke="none"/>
    <path d="M34.8 34.15 L34.2 34.7 31.65 32.15 32.25 31.55 34.8 34.15" fill="#666668" fill-rule="evenodd" stroke="none"/>
    <path d="M10.5 31.55 L11.05 32.15 8.5 34.7 7.9 34.15 10.5 31.55" fill="#666668" fill-rule="evenodd" stroke="none"/>
    <path d="M34.8 8.4 L32.25 10.95 31.65 10.35 34.2 7.75 34.8 8.4" fill="#666668" fill-rule="evenodd" stroke="none"/>
    <path d="M10.5 10.95 L7.9 8.4 8.5 7.75 11.05 10.35 10.5 10.95" fill="#666668" fill-rule="evenodd" stroke="none"/>
    <path d="M12.3 10.1 L30.55 10.1 Q31.35 10.1 32.0 10.75 32.55 11.3 32.55 12.15 L32.55 30.4 Q32.55 31.25 32.0 31.85 31.35 32.4 30.55 32.4 L12.3 32.4 Q11.4 32.4 10.85 31.85 10.25 31.25 10.25 30.4 L10.25 12.15 Q10.25 11.3 10.85 10.75 11.4 10.1 12.3 10.1" fill="url(#gradient1)" fill-rule="evenodd" stroke="none"/>
    <path d="M9.6 12.15 Q9.6 11.0 10.4 10.25 11.15 9.45 12.3 9.45 L30.55 9.45 Q31.65 9.45 32.45 10.25 33.25 11.0 33.25 12.15 L33.25 30.4 Q33.25 31.5 32.45 32.3 31.65 33.1 30.55 33.1 L12.3 33.1 Q11.15 33.1 10.4 32.3 9.6 31.5 9.6 30.4 L9.6 12.15 M12.3 10.8 Q11.7 10.8 11.35 11.2 10.95 11.6 10.95 12.15 L10.95 30.4 Q10.95 31.0 11.35 31.35 11.7 31.75 12.3 31.75 L30.55 31.75 Q31.1 31.75 31.5 31.35 31.9 31.0 31.9 30.4 L31.9 12.15 Q31.9 11.6 31.5 11.2 31.1 10.8 30.55 10.8 L12.3 10.8" fill="#00c9ff" fill-rule="evenodd" stroke="none"/>
  </g>
  <defs>
    <linearGradient gradientTransform="matrix(0.0, -0.0228, -0.0228, 0.0, 21.3, 21.3)" gradientUnits="userSpaceOnUse" id="gradient0" spreadMethod="pad" x1="-819.2" x2="819.2">
      <stop offset="0.0" stop-color="#505050"/>
      <stop offset="0.10980392156862745" stop-color="#282828"/>
      <stop offset="0.9058823529411765" stop-color="#a4a4a4"/>
      <stop offset="1.0" stop-color="#373737"/>
    </linearGradient>
    <linearGradient gradientTransform="matrix(0.0122, 0.0135, 0.0135, -0.0122, 21.4, 21.25)" gradientUnits="userSpaceOnUse" id="gradient1" spreadMethod="pad" x1="-819.2" x2="819.2">
      <stop offset="0.0" stop-color="#002969"/>
      <stop offset="0.3686274509803922" stop-color="#004aa3"/>
      <stop offset="0.796078431372549" stop-color="#006ce2"/>
      <stop offset="1.0" stop-color="#007afa"/>
    </linearGradient>
  </defs>
</svg>
