<?xml version="1.0" encoding="UTF-8" standalone="no"?>
<svg xmlns:ffdec="https://www.free-decompiler.com/flash" xmlns:xlink="http://www.w3.org/1999/xlink" ffdec:objectType="shape" height="41.05px" width="41.45px" xmlns="http://www.w3.org/2000/svg">
  <g transform="matrix(1.0, 0.0, 0.0, 1.0, -3.6, -7.8)">
    <path d="M4.3 8.45 L4.3 13.1 3.6 13.1 3.6 7.8 8.95 7.8 8.95 8.45 4.3 8.45" fill="#03abff" fill-rule="evenodd" stroke="none"/>
    <path d="M39.6 7.8 L44.9 7.8 44.9 13.1 44.25 13.1 44.25 8.45 39.6 8.45 39.6 7.8" fill="#03abff" fill-rule="evenodd" stroke="none"/>
    <path d="M4.25 48.2 L8.9 48.2 8.9 48.85 3.6 48.85 3.6 43.55 4.25 43.55 4.25 48.2" fill="#03abff" fill-rule="evenodd" stroke="none"/>
    <path d="M39.75 48.85 L39.75 48.2 44.4 48.2 44.4 43.55 45.05 43.55 45.05 48.85 39.75 48.85" fill="#03abff" fill-rule="evenodd" stroke="none"/>
  </g>
</svg>
