<?xml version="1.0" encoding="UTF-8" standalone="no"?>
<svg xmlns:ffdec="https://www.free-decompiler.com/flash" xmlns:xlink="http://www.w3.org/1999/xlink" ffdec:objectType="shape" height="24.3px" width="71.05px" xmlns="http://www.w3.org/2000/svg">
  <g transform="matrix(1.0, 0.0, 0.0, 1.0, 1.0, 1.0)">
    <path d="M18.05 0.65 Q19.5 0.0 20.75 0.0 L67.35 0.0 Q68.6 0.0 68.95 0.7 69.25 1.35 68.55 2.35 L55.35 19.9 Q54.6 20.9 53.15 21.6 51.75 22.3 50.5 22.3 L1.65 22.3 Q0.4 22.3 0.1 21.65 -0.2 21.0 0.6 20.05 L15.8 2.25 Q16.6 1.3 18.05 0.65" fill="url(#gradient0)" fill-rule="evenodd" stroke="none"/>
    <path d="M53.15 21.6 Q51.75 22.3 50.5 22.3 L1.65 22.3 Q0.4 22.3 0.1 21.65 -0.2 21.0 0.6 20.05 L15.8 2.25 Q16.6 1.3 18.05 0.65 19.5 0.0 20.75 0.0 L67.35 0.0 Q68.6 0.0 68.95 0.7 69.25 1.35 68.55 2.35 L55.35 19.9 Q54.6 20.9 53.15 21.6 Z" fill="none" stroke="#587bc0" stroke-linecap="butt" stroke-linejoin="miter-clip" stroke-miterlimit="4.0" stroke-width="2.0"/>
    <path d="M27.45 11.5 L42.2 5.0 40.3 7.9 34.9 11.5 35.55 15.25 33.8 17.95 27.45 11.5" fill="#456593" fill-rule="evenodd" stroke="none"/>
  </g>
  <defs>
    <linearGradient gradientTransform="matrix(0.052, 0.0, 0.0, -0.052, -216.75, -410.9)" gradientUnits="userSpaceOnUse" id="gradient0" spreadMethod="pad" x1="-819.2" x2="819.2">
      <stop offset="0.0" stop-color="#2a3e5c"/>
      <stop offset="1.0" stop-color="#1a1d34"/>
    </linearGradient>
  </defs>
</svg>
