<?xml version="1.0" encoding="UTF-8" standalone="no"?>
<svg xmlns:ffdec="https://www.free-decompiler.com/flash" xmlns:xlink="http://www.w3.org/1999/xlink" ffdec:objectType="shape" height="9.1px" width="10.3px" xmlns="http://www.w3.org/2000/svg">
  <g transform="matrix(1.0, 0.0, 0.0, 1.0, -12.75, -13.0)">
    <path d="M16.2 17.4 L13.55 13.3 16.45 13.3 17.95 15.95 19.45 13.3 22.35 13.3 19.65 17.45 22.6 21.85 19.6 21.85 17.9 19.1 16.2 21.85 13.25 21.85 16.2 17.4" fill="#ffff00" fill-rule="evenodd" stroke="none"/>
    <path d="M16.2 17.4 L13.55 13.3 16.45 13.3 17.95 15.95 19.45 13.3 22.35 13.3 19.65 17.45 22.6 21.85 19.6 21.85 17.9 19.1 16.2 21.85 13.25 21.85 16.2 17.4 Z" ffdec:has-small-stroke="true" ffdec:original-stroke-width="0.5" fill="none" stroke="#ffcb00" stroke-linecap="butt" stroke-linejoin="miter-clip" stroke-miterlimit="4.0" stroke-width="1.0"/>
  </g>
</svg>
