<?xml version="1.0" encoding="UTF-8" standalone="no"?>
<svg xmlns:ffdec="https://www.free-decompiler.com/flash" xmlns:xlink="http://www.w3.org/1999/xlink" ffdec:objectType="shape" height="15.1px" width="18.1px" xmlns="http://www.w3.org/2000/svg">
  <g transform="matrix(1.0, 0.0, 0.0, 1.0, 0.0, 0.0)">
    <path d="M2.35 15.1 L2.35 0.0 5.7 0.0 5.7 15.1 2.35 15.1" fill="#0bb4ff" fill-rule="evenodd" stroke="none"/>
    <path d="M0.0 12.7 L0.0 2.4 3.35 2.4 3.35 12.7 0.0 12.7" fill="#0074ff" fill-rule="evenodd" stroke="none"/>
    <path d="M5.7 5.95 L15.15 5.95 15.6 6.25 Q16.0 6.75 16.0 7.7 16.0 9.2 15.15 9.45 L5.7 9.45 5.7 5.95" fill="#0074ff" fill-rule="evenodd" stroke="none"/>
    <path d="M18.1 3.9 L5.65 3.9 5.65 2.05 8.9 2.05 10.3 0.55 15.9 0.55 18.1 3.9" fill="#0074ff" fill-rule="evenodd" stroke="none"/>
    <path d="M18.1 11.45 L15.9 14.85 10.3 14.85 8.9 13.35 5.65 13.35 5.65 11.45 18.1 11.45" fill="#0074ff" fill-rule="evenodd" stroke="none"/>
    <path d="M12.2 10.65 L10.75 4.75 10.95 4.75 12.4 10.65 12.2 10.65" fill="#6cd9ff" fill-rule="evenodd" stroke="none"/>
    <path d="M15.15 10.65 L13.7 4.75 13.95 4.75 15.4 10.65 15.15 10.65" fill="#6cd9ff" fill-rule="evenodd" stroke="none"/>
    <path d="M13.65 4.75 L13.85 4.75 12.4 10.65 12.2 10.65 13.65 4.75" fill="#0bb4ff" fill-rule="evenodd" stroke="none"/>
    <path d="M7.8 4.75 L8.0 4.75 6.55 10.65 6.35 10.65 7.8 4.75" fill="#00aaff" fill-rule="evenodd" stroke="none"/>
    <path d="M10.75 4.75 L11.0 4.75 9.55 10.65 9.3 10.65 10.75 4.75" fill="#00aaff" fill-rule="evenodd" stroke="none"/>
    <path d="M9.25 10.65 L7.8 4.75 8.0 4.75 9.45 10.65 9.25 10.65" fill="#6cd9ff" fill-rule="evenodd" stroke="none"/>
  </g>
</svg>
