<?xml version="1.0" encoding="UTF-8" standalone="no"?>
<svg xmlns:ffdec="https://www.free-decompiler.com/flash" xmlns:xlink="http://www.w3.org/1999/xlink" ffdec:objectType="shape" height="16.55px" width="19.9px" xmlns="http://www.w3.org/2000/svg">
  <g transform="matrix(1.0, 0.0, 0.0, 1.0, 0.9, 0.75)">
    <path d="M1.7 15.8 L1.7 -0.75 5.4 -0.75 5.4 15.8 1.7 15.8" fill="#0be2ff" fill-rule="evenodd" stroke="none"/>
    <path d="M-0.9 13.15 L-0.9 1.85 2.85 1.85 2.85 13.15 -0.9 13.15" fill="#00a2ff" fill-rule="evenodd" stroke="none"/>
    <path d="M5.4 5.75 L15.75 5.75 Q16.75 6.0 16.75 7.65 16.75 9.3 15.75 9.6 L5.4 9.6 5.4 5.75" fill="#00a2ff" fill-rule="evenodd" stroke="none"/>
    <path d="M19.0 3.55 L5.3 3.55 5.3 1.45 8.9 1.45 10.45 -0.2 16.6 -0.2 19.0 3.55" fill="#00a2ff" fill-rule="evenodd" stroke="none"/>
    <path d="M19.0 11.8 L16.6 15.55 10.45 15.55 8.9 13.9 5.3 13.9 5.3 11.8 19.0 11.8" fill="#00a2ff" fill-rule="evenodd" stroke="none"/>
    <path d="M12.55 10.9 L10.9 4.4 11.2 4.4 12.8 10.9 12.55 10.9" fill="#6cffff" fill-rule="evenodd" stroke="none"/>
    <path d="M15.8 10.9 L14.2 4.4 14.45 4.4 16.05 10.9 15.8 10.9" fill="#6cffff" fill-rule="evenodd" stroke="none"/>
    <path d="M14.1 4.4 L14.4 4.4 12.8 10.9 12.5 10.9 14.1 4.4" fill="#0be2ff" fill-rule="evenodd" stroke="none"/>
    <path d="M7.7 4.4 L7.95 4.4 6.35 10.9 6.1 10.9 7.7 4.4" fill="#00d8ff" fill-rule="evenodd" stroke="none"/>
    <path d="M11.0 4.4 L11.2 4.4 9.6 10.9 9.4 10.9 11.0 4.4" fill="#00d8ff" fill-rule="evenodd" stroke="none"/>
    <path d="M9.25 10.9 L7.7 4.4 7.95 4.4 9.55 10.9 9.25 10.9" fill="#6cffff" fill-rule="evenodd" stroke="none"/>
  </g>
</svg>
