<?xml version="1.0" encoding="UTF-8" standalone="no"?>
<svg xmlns:ffdec="https://www.free-decompiler.com/flash" xmlns:xlink="http://www.w3.org/1999/xlink" ffdec:objectType="shape" height="19.7px" width="19.95px" xmlns="http://www.w3.org/2000/svg">
  <g transform="matrix(1.0, 0.0, 0.0, 1.0, 0.0, 0.0)">
    <path d="M12.85 5.3 L11.6 5.9 10.4 5.05 10.6 4.55 12.85 5.3" fill="#0bb4ff" fill-rule="evenodd" stroke="none"/>
    <path d="M7.4 8.8 L7.65 6.45 8.2 6.5 8.45 7.9 7.4 8.8" fill="#0bb4ff" fill-rule="evenodd" stroke="none"/>
    <path d="M13.85 19.5 L13.7 16.1 14.75 17.7 13.85 19.5" fill="#0bb4ff" fill-rule="evenodd" stroke="none"/>
    <path d="M19.95 15.6 L17.95 15.65 16.9 14.0 19.95 15.6" fill="#0bb4ff" fill-rule="evenodd" stroke="none"/>
    <path d="M5.65 3.45 L5.6 2.5 Q5.15 1.8 5.15 1.1 5.15 0.4 5.6 0.15 L6.7 0.1 7.75 1.1 8.65 1.55 10.35 4.15 10.05 5.1 10.3 5.5 11.45 6.3 15.05 11.85 16.35 12.5 17.25 13.85 16.4 13.6 17.85 15.9 15.0 17.7 13.55 15.45 13.4 16.4 12.5 15.0 12.4 13.55 8.85 8.0 8.6 6.6 8.35 6.2 7.3 6.1 5.65 3.45" fill="#0074ff" fill-rule="evenodd" stroke="none"/>
    <path d="M17.2 16.0 L15.3 17.25 12.8 13.4 14.75 12.15 17.2 16.0" fill="#0895ff" fill-rule="evenodd" stroke="none"/>
    <path d="M17.25 17.75 L16.95 18.0 15.1 15.15 15.45 14.95 17.25 17.75" fill="#0bb4ff" fill-rule="evenodd" stroke="none"/>
    <path d="M15.55 15.1 L15.2 15.35 13.65 12.85 13.95 12.65 15.55 15.1" fill="#0bb4ff" fill-rule="evenodd" stroke="none"/>
    <path d="M15.55 15.1 L15.2 15.35 13.65 12.85 13.95 12.65 15.55 15.1 Z" ffdec:has-small-stroke="true" ffdec:original-stroke-width="0.5" fill="none" stroke="#00e1ff" stroke-linecap="butt" stroke-linejoin="miter-clip" stroke-miterlimit="4.0" stroke-width="1.0"/>
    <path d="M10.5 7.3 L10.2 7.5 9.1 5.8 9.4 5.6 10.5 7.3" fill="#29c3ff" fill-rule="evenodd" stroke="none"/>
    <path d="M9.5 4.7 L8.2 5.55 6.55 3.0 7.9 2.15 9.5 4.7" fill="#0bb4ff" fill-rule="evenodd" stroke="none"/>
    <path d="M14.2 12.0 L12.9 12.85 9.9 8.2 11.25 7.35 14.2 12.0" fill="#0bb4ff" fill-rule="evenodd" stroke="none"/>
    <path d="M6.4 0.3 Q6.6 0.55 6.3 0.75 6.05 0.95 5.85 0.65 5.65 0.4 5.95 0.2 6.2 0.0 6.4 0.3" fill="#00aaff" fill-rule="evenodd" stroke="none"/>
    <path d="M5.5 9.55 L4.6 10.0 3.75 9.4 3.9 9.05 5.5 9.55" fill="#0bb4ff" fill-rule="evenodd" stroke="none"/>
    <path d="M1.6 12.1 L1.8 10.4 2.2 10.45 2.35 11.45 1.6 12.1" fill="#0bb4ff" fill-rule="evenodd" stroke="none"/>
    <path d="M6.1 17.3 L6.85 18.45 6.2 19.7 6.1 17.3" fill="#0bb4ff" fill-rule="evenodd" stroke="none"/>
    <path d="M10.55 16.9 L9.15 16.95 8.4 15.8 10.55 16.9" fill="#0bb4ff" fill-rule="evenodd" stroke="none"/>
    <path d="M1.1 5.9 L1.9 6.6 2.5 6.9 3.7 8.75 3.5 9.45 3.7 9.75 4.5 10.3 7.05 14.25 8.0 14.75 8.6 15.7 8.0 15.5 9.05 17.15 7.05 18.45 6.0 16.8 5.9 17.5 5.25 16.5 5.2 15.45 2.65 11.5 2.45 10.5 2.3 10.25 1.55 10.15 0.35 8.3 0.3 7.6 Q0.0 7.1 0.0 6.6 0.0 6.1 0.35 5.9 0.65 5.7 1.1 5.9" fill="#0569e2" fill-rule="evenodd" stroke="none"/>
    <path d="M8.6 17.25 L7.25 18.1 5.5 15.35 6.85 14.5 8.6 17.25" fill="#0bb4ff" fill-rule="evenodd" stroke="none"/>
    <path d="M8.65 18.5 L8.4 18.65 7.1 16.65 7.35 16.5 8.65 18.5" fill="#0d92ff" fill-rule="evenodd" stroke="none"/>
    <path d="M7.4 16.6 L7.2 16.75 6.05 15.0 Q6.2 14.95 6.3 14.85 L7.4 16.6" fill="#29c3ff" fill-rule="evenodd" stroke="none"/>
    <path d="M3.8 11.0 L3.6 11.15 2.8 9.95 3.05 9.8 3.8 11.0" fill="#29c3ff" fill-rule="evenodd" stroke="none"/>
    <path d="M3.1 9.15 L2.2 9.75 1.0 7.95 1.95 7.35 3.1 9.15" fill="#0bb4ff" fill-rule="evenodd" stroke="none"/>
    <path d="M6.5 14.35 L5.55 15.0 3.4 11.65 4.35 11.05 6.5 14.35" fill="#0bb4ff" fill-rule="evenodd" stroke="none"/>
    <path d="M0.9 6.05 L0.85 6.35 0.5 6.3 Q0.4 6.15 0.6 5.95 0.8 5.85 0.9 6.05" fill="#0bb4ff" fill-rule="evenodd" stroke="none"/>
  </g>
</svg>
