<?xml version="1.0" encoding="UTF-8" standalone="no"?>
<svg xmlns:ffdec="https://www.free-decompiler.com/flash" xmlns:xlink="http://www.w3.org/1999/xlink" ffdec:objectType="shape" height="19.7px" width="19.9px" xmlns="http://www.w3.org/2000/svg">
  <g transform="matrix(1.0, 0.0, 0.0, 1.0, 0.0, 3.0)">
    <path d="M12.85 2.3 L11.6 2.9 10.4 2.05 10.55 1.55 12.85 2.3" fill="#0be2ff" fill-rule="evenodd" stroke="none"/>
    <path d="M7.35 5.8 L7.6 3.45 8.15 3.5 8.45 4.95 7.35 5.8" fill="#0be2ff" fill-rule="evenodd" stroke="none"/>
    <path d="M13.85 16.5 L13.65 13.1 14.7 14.7 13.85 16.5" fill="#0be2ff" fill-rule="evenodd" stroke="none"/>
    <path d="M19.9 12.6 L17.9 12.65 16.85 11.05 19.9 12.6" fill="#0be2ff" fill-rule="evenodd" stroke="none"/>
    <path d="M10.25 2.5 L11.4 3.3 15.0 8.85 16.35 9.55 17.2 10.9 16.35 10.6 17.85 12.9 15.0 14.75 13.5 12.45 13.4 13.4 12.5 12.0 12.4 10.55 8.8 5.0 8.6 3.6 8.3 3.2 7.3 3.1 5.6 0.5 5.55 -0.5 Q5.15 -1.2 5.15 -1.85 5.15 -2.55 5.6 -2.85 6.05 -3.15 6.7 -2.85 L7.75 -1.9 8.65 -1.45 10.3 1.15 10.0 2.15 10.25 2.5" fill="#00a2ff" fill-rule="evenodd" stroke="none"/>
    <path d="M17.2 13.05 L15.25 14.25 12.8 10.4 14.7 9.2 17.2 13.05" fill="#08c3ff" fill-rule="evenodd" stroke="none"/>
    <path d="M17.2 14.8 L16.9 15.0 15.1 12.2 15.4 11.95 17.2 14.8" fill="#0be2ff" fill-rule="evenodd" stroke="none"/>
    <path d="M15.5 12.15 L15.2 12.35 13.6 9.9 13.95 9.7 15.5 12.15" fill="#0be2ff" fill-rule="evenodd" stroke="none"/>
    <path d="M15.5 12.15 L15.2 12.35 13.6 9.9 13.95 9.7 15.5 12.15 Z" ffdec:has-small-stroke="true" ffdec:original-stroke-width="0.5" fill="none" stroke="#00ffff" stroke-linecap="butt" stroke-linejoin="miter-clip" stroke-miterlimit="4.0" stroke-width="1.0"/>
    <path d="M10.45 4.3 L10.15 4.5 9.05 2.8 9.4 2.6 10.45 4.3" fill="#29f1ff" fill-rule="evenodd" stroke="none"/>
    <path d="M9.5 1.7 L8.15 2.55 6.55 0.05 7.85 -0.8 9.5 1.7" fill="#0be2ff" fill-rule="evenodd" stroke="none"/>
    <path d="M14.2 9.0 L12.85 9.85 9.9 5.2 11.2 4.35 14.2 9.0" fill="#0be2ff" fill-rule="evenodd" stroke="none"/>
    <path d="M6.4 -2.65 Q6.6 -2.4 6.3 -2.2 6.05 -2.0 5.85 -2.3 5.65 -2.55 5.95 -2.75 L6.4 -2.65" fill="#00d8ff" fill-rule="evenodd" stroke="none"/>
    <path d="M5.45 6.6 L4.6 7.05 3.75 6.45 3.85 6.05 5.45 6.6" fill="#0be2ff" fill-rule="evenodd" stroke="none"/>
    <path d="M1.55 9.1 L1.75 7.4 2.15 7.45 2.35 8.45 1.55 9.1" fill="#0be2ff" fill-rule="evenodd" stroke="none"/>
    <path d="M6.2 16.7 L6.05 14.3 6.8 15.45 6.2 16.7" fill="#0be2ff" fill-rule="evenodd" stroke="none"/>
    <path d="M10.5 13.95 L9.1 13.95 8.35 12.8 10.5 13.95" fill="#0be2ff" fill-rule="evenodd" stroke="none"/>
    <path d="M0.3 2.9 Q0.65 2.7 1.1 2.9 L1.85 3.6 2.45 3.9 3.7 5.8 3.45 6.45 3.65 6.75 4.45 7.3 7.0 11.25 8.0 11.75 8.6 12.7 8.0 12.5 9.05 14.15 7.0 15.45 5.95 13.8 5.85 14.5 5.25 13.5 5.15 12.45 2.6 8.5 2.45 7.5 2.25 7.25 1.5 7.15 0.3 5.3 0.3 4.6 Q-0.05 4.15 0.0 3.6 0.0 3.15 0.3 2.9" fill="#0597fc" fill-rule="evenodd" stroke="none"/>
    <path d="M8.6 14.25 L7.2 15.15 5.45 12.4 6.8 11.5 8.6 14.25" fill="#0be2ff" fill-rule="evenodd" stroke="none"/>
    <path d="M8.6 15.5 L8.35 15.65 7.1 13.65 7.3 13.5 8.6 15.5" fill="#0dc0ff" fill-rule="evenodd" stroke="none"/>
    <path d="M7.4 13.6 L7.15 13.75 6.05 12.0 6.25 11.85 7.4 13.6" fill="#29f1ff" fill-rule="evenodd" stroke="none"/>
    <path d="M3.8 8.0 L3.55 8.15 2.8 6.95 3.0 6.8 3.8 8.0" fill="#29f1ff" fill-rule="evenodd" stroke="none"/>
    <path d="M3.1 6.15 L2.15 6.75 1.0 4.95 1.95 4.35 3.1 6.15" fill="#0be2ff" fill-rule="evenodd" stroke="none"/>
    <path d="M6.45 11.4 L5.5 12.0 3.35 8.65 4.3 8.05 6.45 11.4" fill="#0be2ff" fill-rule="evenodd" stroke="none"/>
    <path d="M0.9 3.05 L0.8 3.35 0.5 3.3 Q0.35 3.15 0.55 2.95 0.7 2.85 0.9 3.05" fill="#0be2ff" fill-rule="evenodd" stroke="none"/>
  </g>
</svg>
