<?xml version="1.0" encoding="UTF-8" standalone="no"?>
<svg xmlns:ffdec="https://www.free-decompiler.com/flash" xmlns:xlink="http://www.w3.org/1999/xlink" ffdec:objectType="shape" height="17.75px" width="17.9px" xmlns="http://www.w3.org/2000/svg">
  <g transform="matrix(1.0, 0.0, 0.0, 1.0, -1.0, 2.0)">
    <path d="M12.55 2.75 L11.45 3.3 10.35 2.55 10.5 2.1 12.55 2.75" fill="#0be2ff" fill-rule="evenodd" stroke="none"/>
    <path d="M7.6 5.9 L7.85 3.8 8.35 3.85 8.6 5.15 7.6 5.9" fill="#0be2ff" fill-rule="evenodd" stroke="none"/>
    <path d="M13.45 15.55 L13.3 12.5 14.25 13.95 13.45 15.55" fill="#0be2ff" fill-rule="evenodd" stroke="none"/>
    <path d="M18.9 12.05 L17.1 12.1 16.15 10.65 18.9 12.05" fill="#0be2ff" fill-rule="evenodd" stroke="none"/>
    <path d="M10.2 2.95 L11.25 3.65 14.5 8.65 15.7 9.3 16.5 10.5 15.7 10.25 17.05 12.3 14.5 13.95 13.15 11.9 13.05 12.75 12.25 11.5 12.15 10.2 8.9 5.2 8.75 3.95 8.45 3.6 7.55 3.5 6.05 1.15 6.0 0.25 Q5.65 -0.4 5.65 -0.95 5.65 -1.6 6.05 -1.85 6.45 -2.15 7.05 -1.85 L7.95 -1.0 8.8 -0.6 10.25 1.75 10.0 2.65 10.2 2.95" fill="#00a2ff" fill-rule="evenodd" stroke="none"/>
    <path d="M16.5 12.45 L14.7 13.5 12.5 10.05 14.25 9.0 16.5 12.45" fill="#08c3ff" fill-rule="evenodd" stroke="none"/>
    <path d="M16.5 14.0 L16.2 14.2 14.6 11.7 14.85 11.45 16.5 14.0" fill="#0be2ff" fill-rule="evenodd" stroke="none"/>
    <path d="M14.95 11.65 L14.7 11.8 13.25 9.6 13.55 9.45 14.95 11.65" fill="#0be2ff" fill-rule="evenodd" stroke="none"/>
    <path d="M14.95 11.65 L14.7 11.8 13.25 9.6 13.55 9.45 14.95 11.65 Z" ffdec:has-small-stroke="true" ffdec:original-stroke-width="0.5" fill="none" stroke="#00ffff" stroke-linecap="butt" stroke-linejoin="miter-clip" stroke-miterlimit="4.0" stroke-width="1.0"/>
    <path d="M10.4 4.55 L10.15 4.75 9.15 3.2 9.45 3.05 10.4 4.55" fill="#29f1ff" fill-rule="evenodd" stroke="none"/>
    <path d="M9.55 2.25 L8.35 3.0 6.9 0.75 8.05 0.0 9.55 2.25" fill="#0be2ff" fill-rule="evenodd" stroke="none"/>
    <path d="M13.8 8.8 L12.55 9.55 9.9 5.4 11.1 4.6 13.8 8.8" fill="#0be2ff" fill-rule="evenodd" stroke="none"/>
    <path d="M6.75 -1.7 Q6.95 -1.45 6.65 -1.3 L6.25 -1.35 Q6.1 -1.6 6.35 -1.8 L6.75 -1.7" fill="#00d8ff" fill-rule="evenodd" stroke="none"/>
    <path d="M5.9 6.65 L5.15 7.05 4.35 6.5 4.45 6.15 5.9 6.65" fill="#0be2ff" fill-rule="evenodd" stroke="none"/>
    <path d="M2.4 8.9 L2.55 7.35 2.95 7.4 3.1 8.3 2.4 8.9" fill="#0be2ff" fill-rule="evenodd" stroke="none"/>
    <path d="M6.6 15.75 L6.45 13.55 7.1 14.6 6.6 15.75" fill="#0be2ff" fill-rule="evenodd" stroke="none"/>
    <path d="M10.45 13.25 L9.2 13.25 8.5 12.2 10.45 13.25" fill="#0be2ff" fill-rule="evenodd" stroke="none"/>
    <path d="M1.25 3.3 Q1.6 3.15 2.0 3.3 L2.65 3.95 3.2 4.2 4.35 5.9 4.1 6.5 4.3 6.75 5.0 7.25 7.3 10.8 8.2 11.25 8.75 12.15 8.2 11.95 9.15 13.45 7.3 14.6 6.35 13.1 6.25 13.75 5.7 12.85 5.65 11.9 3.35 8.35 3.2 7.45 3.0 7.2 2.35 7.15 1.25 5.45 1.25 4.85 Q0.95 4.45 1.0 3.95 1.0 3.55 1.25 3.3" fill="#0597fc" fill-rule="evenodd" stroke="none"/>
    <path d="M8.75 13.5 L7.5 14.35 5.9 11.85 7.1 11.05 8.75 13.5" fill="#0be2ff" fill-rule="evenodd" stroke="none"/>
    <path d="M8.75 14.65 L8.5 14.8 7.4 13.0 7.55 12.85 8.75 14.65" fill="#0dc0ff" fill-rule="evenodd" stroke="none"/>
    <path d="M7.65 12.95 L7.45 13.05 6.45 11.5 6.6 11.35 7.65 12.95" fill="#29f1ff" fill-rule="evenodd" stroke="none"/>
    <path d="M4.4 7.9 L4.2 8.05 3.5 6.95 3.7 6.8 4.4 7.9" fill="#29f1ff" fill-rule="evenodd" stroke="none"/>
    <path d="M3.8 6.25 L2.95 6.75 1.9 5.15 Q2.35 4.9 2.75 4.6 L3.8 6.25" fill="#0be2ff" fill-rule="evenodd" stroke="none"/>
    <path d="M6.8 10.95 L5.95 11.5 4.0 8.5 4.85 7.95 6.8 10.95" fill="#0be2ff" fill-rule="evenodd" stroke="none"/>
    <path d="M1.8 3.45 L1.7 3.7 1.45 3.65 Q1.3 3.55 1.5 3.35 1.65 3.25 1.8 3.45" fill="#0be2ff" fill-rule="evenodd" stroke="none"/>
  </g>
</svg>
