<?xml version="1.0" encoding="UTF-8" standalone="no"?>
<svg xmlns:ffdec="https://www.free-decompiler.com/flash" xmlns:xlink="http://www.w3.org/1999/xlink" ffdec:objectType="shape" height="16.2px" width="23.4px" xmlns="http://www.w3.org/2000/svg">
  <g transform="matrix(1.0, 0.0, 0.0, 1.0, 0.0, 3.0)">
    <path d="M0.95 -2.6 L7.45 1.15 5.75 3.15 6.6 5.2 0.0 -1.1 0.95 -2.6" fill="#00d8ff" fill-rule="evenodd" stroke="none"/>
    <path d="M22.9 3.15 L14.55 3.15 14.55 2.0 22.9 2.0 22.9 3.15" fill="#00a2ff" fill-rule="evenodd" stroke="none"/>
    <path d="M23.4 3.65 L20.35 3.65 20.35 1.55 23.4 1.55 23.4 3.65" fill="#0dbeff" fill-rule="evenodd" stroke="none"/>
    <path d="M23.0 3.15 L20.75 3.15 20.75 2.0 23.0 2.0 23.0 3.15" fill="#36f9ff" fill-rule="evenodd" stroke="none"/>
    <path d="M21.2 5.75 L12.9 5.75 12.9 4.6 21.2 4.6 21.2 5.75" fill="#00a2ff" fill-rule="evenodd" stroke="none"/>
    <path d="M22.35 6.25 L19.35 6.25 19.35 4.15 22.35 4.15 22.35 6.25" fill="#0dbeff" fill-rule="evenodd" stroke="none"/>
    <path d="M21.85 5.75 L19.7 5.75 19.7 4.6 21.85 4.6 21.85 5.75" fill="#36f9ff" fill-rule="evenodd" stroke="none"/>
    <path d="M10.8 -0.6 L14.55 0.7 17.05 5.65 14.0 8.65 13.3 7.45 11.4 7.45 10.75 8.65 9.65 8.4 7.1 3.05 10.8 -0.6" fill="#0be2ff" fill-rule="evenodd" stroke="none"/>
    <path d="M8.45 3.55 L10.3 3.4 11.15 5.3 10.1 7.0 8.45 3.55" fill="#0290db" fill-rule="evenodd" stroke="none"/>
    <path d="M9.55 -0.6 L8.15 0.5 2.65 -2.7 4.25 -3.0 9.55 -0.6" fill="#00a2ff" fill-rule="evenodd" stroke="none"/>
    <path d="M7.4 5.65 L9.05 9.4 5.8 13.2 5.1 11.15 7.4 5.65" fill="#00a2ff" fill-rule="evenodd" stroke="none"/>
    <path d="M11.65 8.05 L13.1 8.05 10.1 11.8 11.65 8.05" fill="#0be2ff" fill-rule="evenodd" stroke="none"/>
  </g>
</svg>
