<?xml version="1.0" encoding="UTF-8" standalone="no"?>
<svg xmlns:ffdec="https://www.free-decompiler.com/flash" xmlns:xlink="http://www.w3.org/1999/xlink" ffdec:objectType="shape" height="14.6px" width="21.05px" xmlns="http://www.w3.org/2000/svg">
  <g transform="matrix(1.0, 0.0, 0.0, 1.0, -1.15, 2.2)">
    <path d="M2.0 -1.85 L7.85 1.55 6.3 3.35 7.1 5.2 1.15 -0.5 2.0 -1.85" fill="#00d8ff" fill-rule="evenodd" stroke="none"/>
    <path d="M21.75 3.35 L14.25 3.35 14.25 2.3 21.75 2.3 21.75 3.35" fill="#00a2ff" fill-rule="evenodd" stroke="none"/>
    <path d="M22.2 3.8 L19.45 3.8 19.45 1.9 22.2 1.9 22.2 3.8" fill="#0dbeff" fill-rule="evenodd" stroke="none"/>
    <path d="M21.85 3.35 L19.8 3.35 19.8 2.3 21.85 2.3 21.85 3.35" fill="#36f9ff" fill-rule="evenodd" stroke="none"/>
    <path d="M20.25 5.65 L12.75 5.65 12.75 4.65 20.25 4.65 20.25 5.65" fill="#00a2ff" fill-rule="evenodd" stroke="none"/>
    <path d="M21.25 6.1 L18.55 6.1 18.55 4.25 21.25 4.25 21.25 6.1" fill="#0dbeff" fill-rule="evenodd" stroke="none"/>
    <path d="M20.8 5.65 L18.9 5.65 18.9 4.65 20.8 4.65 20.8 5.65" fill="#36f9ff" fill-rule="evenodd" stroke="none"/>
    <path d="M10.85 -0.05 L14.25 1.15 16.5 5.6 13.75 8.3 13.1 7.2 11.4 7.2 10.8 8.3 9.85 8.05 7.55 3.25 10.85 -0.05" fill="#0be2ff" fill-rule="evenodd" stroke="none"/>
    <path d="M8.75 3.7 L10.4 3.55 11.2 5.25 10.25 6.8 8.75 3.7" fill="#0290db" fill-rule="evenodd" stroke="none"/>
    <path d="M9.75 -0.05 L8.5 0.95 3.55 -1.95 4.95 -2.2 9.75 -0.05" fill="#00a2ff" fill-rule="evenodd" stroke="none"/>
    <path d="M7.8 5.6 L9.3 8.95 6.35 12.4 5.75 10.55 7.8 5.6" fill="#00a2ff" fill-rule="evenodd" stroke="none"/>
    <path d="M11.65 7.75 L12.95 7.75 10.25 11.1 11.65 7.75" fill="#0be2ff" fill-rule="evenodd" stroke="none"/>
  </g>
</svg>
