<?xml version="1.0" encoding="UTF-8" standalone="no"?>
<svg xmlns:ffdec="https://www.free-decompiler.com/flash" xmlns:xlink="http://www.w3.org/1999/xlink" ffdec:objectType="shape" height="17.8px" width="25.75px" xmlns="http://www.w3.org/2000/svg">
  <g transform="matrix(1.0, 0.0, 0.0, 1.0, 1.15, 0.8)">
    <path d="M-0.1 -0.35 L7.05 3.75 5.15 5.95 6.1 8.2 -1.15 1.3 -0.1 -0.35" fill="#00d8ff" fill-rule="evenodd" stroke="none"/>
    <path d="M24.05 5.95 L14.85 5.95 14.85 4.7 24.05 4.7 24.05 5.95" fill="#00a2ff" fill-rule="evenodd" stroke="none"/>
    <path d="M24.6 6.5 L21.25 6.5 21.25 4.2 24.6 4.2 24.6 6.5" fill="#0dbeff" fill-rule="evenodd" stroke="none"/>
    <path d="M24.15 5.95 L21.65 5.95 21.65 4.7 24.15 4.7 24.15 5.95" fill="#36f9ff" fill-rule="evenodd" stroke="none"/>
    <path d="M22.15 8.8 L13.05 8.8 13.05 7.55 22.15 7.55 22.15 8.8" fill="#00a2ff" fill-rule="evenodd" stroke="none"/>
    <path d="M23.45 9.35 L20.15 9.35 20.15 7.05 23.45 7.05 23.45 9.35" fill="#0dbeff" fill-rule="evenodd" stroke="none"/>
    <path d="M22.9 8.8 L20.5 8.8 20.5 7.55 22.9 7.55 22.9 8.8" fill="#36f9ff" fill-rule="evenodd" stroke="none"/>
    <path d="M10.75 1.85 L14.85 3.25 17.6 8.7 14.25 12.0 13.5 10.7 11.4 10.7 10.65 12.0 9.45 11.75 6.65 5.85 10.75 1.85" fill="#0be2ff" fill-rule="evenodd" stroke="none"/>
    <path d="M8.15 6.4 L10.2 6.25 11.1 8.35 9.95 10.2 8.15 6.4" fill="#0290db" fill-rule="evenodd" stroke="none"/>
    <path d="M9.35 1.85 L7.8 3.05 1.75 -0.45 3.5 -0.8 9.35 1.85" fill="#00a2ff" fill-rule="evenodd" stroke="none"/>
    <path d="M7.0 8.7 L8.8 12.85 5.25 17.0 4.45 14.75 7.0 8.7" fill="#00a2ff" fill-rule="evenodd" stroke="none"/>
    <path d="M11.65 11.35 L13.25 11.35 9.95 15.5 11.65 11.35" fill="#0be2ff" fill-rule="evenodd" stroke="none"/>
  </g>
</svg>
