<?xml version="1.0" encoding="UTF-8" standalone="no"?>
<svg xmlns:ffdec="https://www.free-decompiler.com/flash" xmlns:xlink="http://www.w3.org/1999/xlink" ffdec:objectType="shape" height="14.85px" width="18.4px" xmlns="http://www.w3.org/2000/svg">
  <g transform="matrix(1.0, 0.0, 0.0, 1.0, 0.85, 0.65)">
    <path d="M11.1 10.4 L6.35 13.35 Q5.45 14.35 4.0 14.2 2.5 14.0 1.2 12.7 -0.25 11.35 -0.7 9.35 -1.1 7.45 -0.3 6.15 0.2 5.45 1.0 5.2 L6.1 1.75 11.1 10.4" fill="#00a2ff" fill-rule="evenodd" stroke="none"/>
    <path d="M4.7 2.8 Q5.55 1.55 7.1 1.6 8.75 1.7 10.2 3.15 11.7 4.55 12.15 6.5 12.55 8.4 11.7 9.75 10.85 11.0 9.2 10.9 7.55 10.85 6.15 9.4 4.7 8.0 4.25 6.05 3.8 4.15 4.7 2.8" fill="#0be2ff" fill-rule="evenodd" stroke="none"/>
    <path d="M6.4 3.85 Q6.95 3.1 7.95 3.15 8.9 3.2 9.8 4.1 10.7 4.95 10.95 6.1 11.25 7.3 10.7 8.1 10.2 8.9 9.2 8.85 8.2 8.8 7.3 7.95 6.4 7.05 6.15 5.9 5.85 4.7 6.4 3.85" fill="#0290db" fill-rule="evenodd" stroke="none"/>
    <path d="M17.55 2.05 Q17.55 3.15 16.8 3.9 16.0 4.7 14.9 4.7 13.85 4.7 13.0 3.9 12.25 3.15 12.25 2.05 12.25 0.95 13.0 0.1 13.8 -0.65 14.9 -0.65 16.0 -0.65 16.8 0.1 17.55 0.95 17.55 2.05" fill="#0be2ff" fill-rule="evenodd" stroke="none"/>
  </g>
</svg>
