<?xml version="1.0" encoding="UTF-8" standalone="no"?>
<svg xmlns:ffdec="https://www.free-decompiler.com/flash" xmlns:xlink="http://www.w3.org/1999/xlink" ffdec:objectType="shape" height="16.25px" width="15.75px" xmlns="http://www.w3.org/2000/svg">
  <g transform="matrix(1.0, 0.0, 0.0, 1.0, 0.0, 3.0)">
    <path d="M0.85 10.5 Q0.85 9.3 1.75 8.5 L2.9 4.9 2.65 7.95 3.5 7.75 5.75 5.1 4.4 7.9 4.85 8.05 15.75 -3.0 6.0 9.15 6.15 9.4 10.25 6.4 6.35 10.25 6.3 11.2 10.45 9.55 Q8.2 10.8 5.9 12.0 5.15 13.25 3.6 13.25 2.5 13.25 1.65 12.45 0.85 11.65 0.85 10.5" fill="url(#gradient0)" fill-rule="evenodd" stroke="none"/>
    <path d="M4.45 4.0 L2.05 5.5 4.9 5.45 0.8 6.35 0.0 3.0 1.1 4.9 1.3 2.85 1.65 4.45 5.75 -2.35 2.45 4.75 4.45 4.0" fill="url(#gradient1)" fill-rule="evenodd" stroke="none"/>
  </g>
  <defs>
    <linearGradient gradientTransform="matrix(-0.0036, 0.0112, 0.0112, 0.0036, -360.45, -116.15)" gradientUnits="userSpaceOnUse" id="gradient0" spreadMethod="pad" x1="-819.2" x2="819.2">
      <stop offset="0.0" stop-color="#00c2ff"/>
      <stop offset="0.23529411764705882" stop-color="#03c3ff"/>
      <stop offset="0.38823529411764707" stop-color="#0bc6ff"/>
      <stop offset="0.5176470588235295" stop-color="#1acbff"/>
      <stop offset="0.6352941176470588" stop-color="#2fd2ff"/>
      <stop offset="0.7450980392156863" stop-color="#4bdcff"/>
      <stop offset="0.8470588235294118" stop-color="#6ce8ff"/>
      <stop offset="0.9411764705882353" stop-color="#93f5ff"/>
      <stop offset="1.0" stop-color="#b0ffff"/>
    </linearGradient>
    <linearGradient gradientTransform="matrix(-0.0029, 0.0029, -0.7071, -0.7071, 247.05, 249.0)" gradientUnits="userSpaceOnUse" id="gradient1" spreadMethod="pad" x1="-819.2" x2="819.2">
      <stop offset="0.0" stop-color="#00c2ff"/>
      <stop offset="0.23529411764705882" stop-color="#03c3ff"/>
      <stop offset="0.38823529411764707" stop-color="#0bc6ff"/>
      <stop offset="0.5176470588235295" stop-color="#1acbff"/>
      <stop offset="0.6352941176470588" stop-color="#2fd2ff"/>
      <stop offset="0.7450980392156863" stop-color="#4bdcff"/>
      <stop offset="0.8470588235294118" stop-color="#6ce8ff"/>
      <stop offset="0.9411764705882353" stop-color="#93f5ff"/>
      <stop offset="1.0" stop-color="#b0ffff"/>
    </linearGradient>
  </defs>
</svg>
