<?xml version="1.0" encoding="UTF-8" standalone="no"?>
<svg xmlns:ffdec="https://www.free-decompiler.com/flash" xmlns:xlink="http://www.w3.org/1999/xlink" ffdec:objectType="shape" height="13.65px" width="15.1px" xmlns="http://www.w3.org/2000/svg">
  <g transform="matrix(1.0, 0.0, 0.0, 1.0, 0.0, 3.0)">
    <path d="M7.45 3.9 L1.0 9.95 0.45 10.15 7.45 3.45 7.45 3.9" fill="#04bcea" fill-rule="evenodd" stroke="none"/>
    <path d="M8.35 3.55 L7.85 3.55 13.3 0.55 13.8 0.55 8.35 3.55" fill="#04bcea" fill-rule="evenodd" stroke="none"/>
    <path d="M7.35 3.95 L1.9 -1.35 2.15 -1.35 7.6 3.85 7.35 3.95" fill="#04bcea" fill-rule="evenodd" stroke="none"/>
    <path d="M11.55 7.9 L7.25 3.9 7.75 3.9 12.05 7.9 11.55 7.9" fill="#04bcea" fill-rule="evenodd" stroke="none"/>
    <path d="M3.3 9.05 Q3.3 9.7 2.8 10.2 2.35 10.65 1.65 10.65 0.95 10.65 0.5 10.2 0.0 9.7 0.0 9.05 0.0 8.4 0.5 7.9 1.0 7.4 1.65 7.4 2.35 7.4 2.8 7.9 3.3 8.4 3.3 9.05" fill="#57e0ff" fill-rule="evenodd" stroke="none"/>
    <path d="M9.1 3.65 Q9.1 4.35 8.6 4.8 8.15 5.3 7.45 5.3 6.8 5.3 6.3 4.8 5.8 4.35 5.8 3.65 5.8 3.0 6.3 2.5 6.75 2.05 7.45 2.05 8.15 2.05 8.6 2.5 9.1 3.0 9.1 3.65" fill="#9af7ff" fill-rule="evenodd" stroke="none"/>
    <path d="M13.5 7.6 Q13.5 8.3 13.05 8.75 12.55 9.25 11.9 9.25 11.25 9.25 10.75 8.75 10.25 8.3 10.25 7.6 10.25 6.95 10.75 6.45 11.2 6.0 11.9 6.0 12.6 6.0 13.05 6.45 13.5 6.95 13.5 7.6" fill="#7aecff" fill-rule="evenodd" stroke="none"/>
    <path d="M15.1 0.7 Q15.1 1.35 14.6 1.85 14.15 2.3 13.45 2.3 12.75 2.3 12.3 1.85 11.8 1.35 11.8 0.7 11.8 0.05 12.3 -0.45 12.8 -0.95 13.45 -0.95 14.15 -0.95 14.6 -0.45 15.1 0.05 15.1 0.7" fill="#03c3ff" fill-rule="evenodd" stroke="none"/>
    <path d="M3.75 -1.35 Q3.75 -0.7 3.25 -0.2 2.8 0.25 2.1 0.25 1.4 0.25 0.95 -0.2 0.45 -0.7 0.45 -1.35 0.45 -2.0 0.95 -2.5 1.45 -3.0 2.1 -3.0 2.8 -3.0 3.25 -2.5 3.75 -2.0 3.75 -1.35" fill="#57e0ff" fill-rule="evenodd" stroke="none"/>
  </g>
</svg>
