<?xml version="1.0" encoding="UTF-8" standalone="no"?>
<svg xmlns:ffdec="https://www.free-decompiler.com/flash" xmlns:xlink="http://www.w3.org/1999/xlink" ffdec:objectType="shape" height="12.25px" width="13.6px" xmlns="http://www.w3.org/2000/svg">
  <g transform="matrix(1.0, 0.0, 0.0, 1.0, -0.75, 2.3)">
    <path d="M7.45 3.9 L1.65 9.35 1.15 9.5 7.45 3.5 7.45 3.9" fill="#04bcea" fill-rule="evenodd" stroke="none"/>
    <path d="M8.25 3.6 L7.8 3.6 12.7 0.9 13.15 0.9 8.25 3.6" fill="#04bcea" fill-rule="evenodd" stroke="none"/>
    <path d="M7.35 3.95 L2.45 -0.85 2.7 -0.85 7.6 3.85 7.35 3.95" fill="#04bcea" fill-rule="evenodd" stroke="none"/>
    <path d="M11.15 7.5 L7.25 3.9 7.7 3.9 11.6 7.5 11.15 7.5" fill="#04bcea" fill-rule="evenodd" stroke="none"/>
    <path d="M3.7 8.55 L3.25 9.55 Q2.85 9.95 2.25 9.95 1.6 9.95 1.2 9.55 0.75 9.1 0.75 8.55 0.75 7.95 1.2 7.5 1.65 7.05 2.25 7.05 2.85 7.05 3.25 7.5 3.7 7.95 3.7 8.55" fill="#57e0ff" fill-rule="evenodd" stroke="none"/>
    <path d="M8.95 3.65 L8.5 4.7 Q8.1 5.15 7.45 5.15 6.85 5.15 6.4 4.7 5.95 4.3 5.95 3.65 5.95 3.1 6.4 2.65 6.8 2.25 7.45 2.25 8.1 2.25 8.5 2.65 8.95 3.1 8.95 3.65" fill="#9af7ff" fill-rule="evenodd" stroke="none"/>
    <path d="M12.9 7.25 Q12.9 7.85 12.5 8.25 12.05 8.7 11.45 8.7 10.85 8.7 10.4 8.25 9.95 7.85 9.95 7.25 9.95 6.65 10.4 6.2 10.8 5.8 11.45 5.8 12.1 5.8 12.5 6.2 12.9 6.65 12.9 7.25" fill="#7aecff" fill-rule="evenodd" stroke="none"/>
    <path d="M14.35 1.0 L13.9 2.05 Q13.5 2.45 12.85 2.45 12.2 2.45 11.8 2.05 11.35 1.6 11.35 1.0 11.35 0.45 11.8 0.0 12.25 -0.45 12.85 -0.45 13.5 -0.45 13.9 0.0 L14.35 1.0" fill="#03c3ff" fill-rule="evenodd" stroke="none"/>
    <path d="M4.1 -0.85 Q4.1 -0.25 3.65 0.2 3.25 0.6 2.65 0.6 2.0 0.6 1.6 0.2 1.15 -0.25 1.15 -0.85 1.15 -1.4 1.6 -1.85 2.05 -2.3 2.65 -2.3 3.25 -2.3 3.65 -1.85 L4.1 -0.85" fill="#57e0ff" fill-rule="evenodd" stroke="none"/>
  </g>
</svg>
