<?xml version="1.0" encoding="UTF-8" standalone="no"?>
<svg xmlns:ffdec="https://www.free-decompiler.com/flash" xmlns:xlink="http://www.w3.org/1999/xlink" ffdec:objectType="shape" height="15.0px" width="16.6px" xmlns="http://www.w3.org/2000/svg">
  <g transform="matrix(1.0, 0.0, 0.0, 1.0, 0.75, 0.7)">
    <path d="M7.45 6.9 L0.35 13.55 -0.25 13.75 7.45 6.4 7.45 6.9" fill="#04bcea" fill-rule="evenodd" stroke="none"/>
    <path d="M8.45 6.5 L7.9 6.5 13.9 3.2 14.45 3.2 8.45 6.5" fill="#04bcea" fill-rule="evenodd" stroke="none"/>
    <path d="M7.35 6.95 L1.35 1.1 1.6 1.1 7.6 6.85 7.35 6.95" fill="#04bcea" fill-rule="evenodd" stroke="none"/>
    <path d="M11.95 11.3 L7.2 6.9 7.75 6.9 12.5 11.3 11.95 11.3" fill="#04bcea" fill-rule="evenodd" stroke="none"/>
    <path d="M2.9 12.55 Q2.9 13.25 2.35 13.8 1.85 14.3 1.05 14.3 0.3 14.3 -0.2 13.8 -0.75 13.25 -0.75 12.55 -0.75 11.85 -0.2 11.3 0.35 10.75 1.05 10.75 1.85 10.75 2.35 11.3 2.9 11.85 2.9 12.55" fill="#57e0ff" fill-rule="evenodd" stroke="none"/>
    <path d="M9.25 6.6 Q9.25 7.4 8.7 7.9 8.2 8.45 7.45 8.45 6.75 8.45 6.2 7.9 5.65 7.4 5.65 6.6 5.65 5.9 6.2 5.35 6.65 4.85 7.45 4.85 8.2 4.85 8.7 5.35 9.25 5.9 9.25 6.6" fill="#9af7ff" fill-rule="evenodd" stroke="none"/>
    <path d="M14.1 10.95 Q14.1 11.75 13.6 12.25 13.05 12.8 12.35 12.8 11.6 12.8 11.05 12.25 10.5 11.75 10.5 10.95 10.5 10.25 11.05 9.7 11.55 9.2 12.35 9.2 13.1 9.2 13.6 9.7 14.1 10.25 14.1 10.95" fill="#7aecff" fill-rule="evenodd" stroke="none"/>
    <path d="M15.85 3.35 Q15.85 4.1 15.3 4.65 14.8 5.15 14.05 5.15 13.25 5.15 12.8 4.65 12.25 4.1 12.25 3.35 12.25 2.65 12.8 2.1 13.35 1.55 14.05 1.55 14.8 1.55 15.3 2.1 15.85 2.65 15.85 3.35" fill="#03c3ff" fill-rule="evenodd" stroke="none"/>
    <path d="M3.35 1.1 Q3.35 1.85 2.8 2.4 2.35 2.9 1.55 2.9 0.8 2.9 0.3 2.4 -0.25 1.85 -0.25 1.1 -0.25 0.4 0.3 -0.15 0.85 -0.7 1.55 -0.7 2.35 -0.7 2.8 -0.15 3.35 0.4 3.35 1.1" fill="#57e0ff" fill-rule="evenodd" stroke="none"/>
  </g>
</svg>
