<?xml version="1.0" encoding="UTF-8" standalone="no"?>
<svg xmlns:ffdec="https://www.free-decompiler.com/flash" xmlns:xlink="http://www.w3.org/1999/xlink" ffdec:objectType="shape" height="19.95px" width="22.05px" xmlns="http://www.w3.org/2000/svg">
  <g transform="matrix(1.0, 0.0, 0.0, 1.0, 0.0, 0.0)">
    <path d="M7.85 0.25 Q10.85 -0.55 12.8 1.05 14.75 2.65 14.5 5.7 14.3 8.75 12.0 11.5 9.7 14.2 6.7 15.05 3.65 15.85 1.7 14.3 -0.2 12.7 0.0 9.6 0.25 6.55 2.55 3.8 4.85 1.1 7.85 0.25" fill="url(#gradient0)" fill-rule="evenodd" stroke="none"/>
    <path d="M12.5 12.15 L17.85 11.6 14.65 12.9 17.85 13.65 15.3 13.9 22.05 19.95 14.7 15.05 15.4 18.35 13.55 14.25 13.05 18.75 12.5 12.15" fill="url(#gradient1)" fill-rule="evenodd" stroke="none"/>
  </g>
  <defs>
    <linearGradient gradientTransform="matrix(0.005, 0.0056, 0.0056, -0.005, 7.25, 7.65)" gradientUnits="userSpaceOnUse" id="gradient0" spreadMethod="pad" x1="-819.2" x2="819.2">
      <stop offset="0.0" stop-color="#065abf" stop-opacity="0.0"/>
      <stop offset="0.2549019607843137" stop-color="#065dc1" stop-opacity="0.02745098"/>
      <stop offset="0.44313725490196076" stop-color="#0666c7" stop-opacity="0.11764706"/>
      <stop offset="0.6078431372549019" stop-color="#0776d0" stop-opacity="0.27058825"/>
      <stop offset="0.7607843137254902" stop-color="#088dde" stop-opacity="0.4862745"/>
      <stop offset="0.9019607843137255" stop-color="#09aaf0" stop-opacity="0.7647059"/>
      <stop offset="1.0" stop-color="#0ac2ff"/>
    </linearGradient>
    <linearGradient gradientTransform="matrix(-0.0015, -0.0058, -0.0058, 0.0015, 16.7, 16.2)" gradientUnits="userSpaceOnUse" id="gradient1" spreadMethod="pad" x1="-819.2" x2="819.2">
      <stop offset="0.0" stop-color="#267aff"/>
      <stop offset="0.35294117647058826" stop-color="#277dff"/>
      <stop offset="0.5843137254901961" stop-color="#2985ff"/>
      <stop offset="0.7803921568627451" stop-color="#2c94ff"/>
      <stop offset="0.9529411764705882" stop-color="#31a9ff"/>
      <stop offset="1.0" stop-color="#33b0ff"/>
    </linearGradient>
  </defs>
</svg>
