<?xml version="1.0" encoding="UTF-8" standalone="no"?>
<svg xmlns:ffdec="https://www.free-decompiler.com/flash" xmlns:xlink="http://www.w3.org/1999/xlink" ffdec:objectType="shape" height="19.95px" width="22.05px" xmlns="http://www.w3.org/2000/svg">
  <g transform="matrix(1.0, 0.0, 0.0, 1.0, 0.0, 3.0)">
    <path d="M7.85 -2.75 Q10.85 -3.55 12.8 -1.95 14.75 -0.35 14.5 2.7 14.3 5.75 12.0 8.5 9.7 11.2 6.7 12.05 3.65 12.85 1.7 11.3 -0.2 9.7 0.0 6.6 0.25 3.55 2.55 0.8 4.85 -1.9 7.85 -2.75" fill="url(#gradient0)" fill-rule="evenodd" stroke="none"/>
    <path d="M17.85 10.65 L15.3 10.9 22.05 16.95 14.7 12.05 15.4 15.35 13.55 11.25 13.05 15.75 12.5 9.15 17.85 8.6 14.65 9.9 17.85 10.65" fill="url(#gradient1)" fill-rule="evenodd" stroke="none"/>
  </g>
  <defs>
    <linearGradient gradientTransform="matrix(0.005, 0.0056, 0.0056, -0.005, 7.25, 4.65)" gradientUnits="userSpaceOnUse" id="gradient0" spreadMethod="pad" x1="-819.2" x2="819.2">
      <stop offset="0.0" stop-color="#065abf" stop-opacity="0.0"/>
      <stop offset="0.2549019607843137" stop-color="#065dc1" stop-opacity="0.02745098"/>
      <stop offset="0.44313725490196076" stop-color="#14c9ff" stop-opacity="0.11764706"/>
      <stop offset="0.6078431372549019" stop-color="#06c4ff" stop-opacity="0.2"/>
      <stop offset="0.7607843137254902" stop-color="#45d9ff" stop-opacity="0.4"/>
      <stop offset="0.9019607843137255" stop-color="#6de8ff" stop-opacity="0.7019608"/>
      <stop offset="1.0" stop-color="#8af2ff"/>
    </linearGradient>
    <linearGradient gradientTransform="matrix(-0.0072, -0.0072, -0.0083, 0.0083, 281.75, -250.05)" gradientUnits="userSpaceOnUse" id="gradient1" spreadMethod="pad" x1="-819.2" x2="819.2">
      <stop offset="0.0" stop-color="#00c2ff"/>
      <stop offset="0.23529411764705882" stop-color="#03c3ff"/>
      <stop offset="0.38823529411764707" stop-color="#0bc6ff"/>
      <stop offset="0.5176470588235295" stop-color="#1acbff"/>
      <stop offset="0.6352941176470588" stop-color="#2fd2ff"/>
      <stop offset="0.7450980392156863" stop-color="#4bdcff"/>
      <stop offset="0.8470588235294118" stop-color="#6ce8ff"/>
      <stop offset="0.9411764705882353" stop-color="#93f5ff"/>
      <stop offset="1.0" stop-color="#b0ffff"/>
    </linearGradient>
  </defs>
</svg>
