<?xml version="1.0" encoding="UTF-8" standalone="no"?>
<svg xmlns:ffdec="https://www.free-decompiler.com/flash" xmlns:xlink="http://www.w3.org/1999/xlink" ffdec:objectType="shape" height="18.0px" width="19.85px" xmlns="http://www.w3.org/2000/svg">
  <g transform="matrix(1.0, 0.0, 0.0, 1.0, -1.1, 2.05)">
    <path d="M8.15 -1.8 Q10.85 -2.5 12.6 -1.05 14.4 0.35 14.15 3.1 13.95 5.85 11.9 8.35 9.85 10.75 7.15 11.55 4.4 12.25 2.65 10.85 0.9 9.4 1.1 6.6 1.35 3.9 3.4 1.4 5.45 -1.05 8.15 -1.8" fill="url(#gradient0)" fill-rule="evenodd" stroke="none"/>
    <path d="M17.15 10.25 L14.85 10.5 20.95 15.95 14.35 11.55 14.95 14.5 13.3 10.8 12.85 14.85 12.35 8.9 17.15 8.4 14.3 9.6 17.15 10.25" fill="url(#gradient1)" fill-rule="evenodd" stroke="none"/>
  </g>
  <defs>
    <linearGradient gradientTransform="matrix(0.0045, 0.005, 0.005, -0.0045, 7.65, 4.85)" gradientUnits="userSpaceOnUse" id="gradient0" spreadMethod="pad" x1="-819.2" x2="819.2">
      <stop offset="0.0" stop-color="#065abf" stop-opacity="0.0"/>
      <stop offset="0.2549019607843137" stop-color="#065dc1" stop-opacity="0.02745098"/>
      <stop offset="0.44313725490196076" stop-color="#14c9ff" stop-opacity="0.11764706"/>
      <stop offset="0.6078431372549019" stop-color="#06c4ff" stop-opacity="0.2"/>
      <stop offset="0.7607843137254902" stop-color="#45d9ff" stop-opacity="0.4"/>
      <stop offset="0.9019607843137255" stop-color="#6de8ff" stop-opacity="0.7019608"/>
      <stop offset="1.0" stop-color="#8af2ff"/>
    </linearGradient>
    <linearGradient gradientTransform="matrix(-0.0065, -0.0065, -0.0075, 0.0075, 254.7, -224.35)" gradientUnits="userSpaceOnUse" id="gradient1" spreadMethod="pad" x1="-819.2" x2="819.2">
      <stop offset="0.0" stop-color="#00c2ff"/>
      <stop offset="0.23529411764705882" stop-color="#03c3ff"/>
      <stop offset="0.38823529411764707" stop-color="#0bc6ff"/>
      <stop offset="0.5176470588235295" stop-color="#1acbff"/>
      <stop offset="0.6352941176470588" stop-color="#2fd2ff"/>
      <stop offset="0.7450980392156863" stop-color="#4bdcff"/>
      <stop offset="0.8470588235294118" stop-color="#6ce8ff"/>
      <stop offset="0.9411764705882353" stop-color="#93f5ff"/>
      <stop offset="1.0" stop-color="#b0ffff"/>
    </linearGradient>
  </defs>
</svg>
