<?xml version="1.0" encoding="UTF-8" standalone="no"?>
<svg xmlns:ffdec="https://www.free-decompiler.com/flash" xmlns:xlink="http://www.w3.org/1999/xlink" ffdec:objectType="shape" height="19.65px" width="19.7px" xmlns="http://www.w3.org/2000/svg">
  <g transform="matrix(1.0, 0.0, 0.0, 1.0, 0.0, 3.0)">
    <path d="M5.1 15.45 L5.05 15.15 7.3 13.05 10.25 13.9 10.9 16.6 Q7.75 16.9 5.1 15.45 M0.7 10.4 L2.8 8.4 5.8 9.25 6.55 12.25 4.3 14.4 3.2 14.1 2.75 13.65 Q1.4 12.2 0.7 10.4 M0.35 4.25 L1.25 4.55 2.0 7.55 0.3 9.15 Q-0.3 6.65 0.35 4.25 M7.55 3.15 L8.3 6.15 6.05 8.3 3.05 7.4 2.35 4.4 4.55 2.25 7.55 3.15 M12.0 7.8 L12.75 10.8 10.5 12.95 7.55 12.05 6.8 9.05 9.05 6.9 12.0 7.8 M13.8 10.55 L13.05 7.55 15.3 5.4 18.25 6.25 19.0 9.25 16.75 11.4 13.8 10.55 M13.8 1.6 L14.55 4.6 12.3 6.75 9.3 5.9 8.6 2.9 10.85 0.75 13.8 1.6 M19.25 6.1 L19.65 5.75 19.65 7.7 19.25 6.1 M18.5 5.3 L15.5 4.45 14.8 1.45 16.6 -0.3 16.95 0.0 Q18.75 1.9 19.4 4.45 L18.5 5.3 M10.3 -3.0 Q13.25 -2.85 15.7 -1.1 L13.95 0.6 11.0 -0.25 10.3 -3.0 M3.0 -0.25 L3.25 -0.5 3.75 1.4 1.5 3.55 0.65 3.3 Q1.45 1.25 3.0 -0.25 M9.3 -3.0 L10.0 -0.1 7.75 2.05 4.8 1.15 4.2 -1.25 Q6.55 -2.85 9.3 -3.0" fill="url(#gradient0)" fill-rule="evenodd" stroke="none"/>
    <path d="M3.15 6.85 L2.25 6.65 2.45 6.05 4.95 6.05 5.15 5.6 7.3 5.6 5.95 2.05 6.25 2.05 8.2 5.55 8.7 5.25 9.2 5.15 9.55 5.25 9.85 5.15 10.4 5.25 10.85 5.55 12.85 2.05 13.15 2.05 11.8 5.6 13.95 5.6 14.15 6.05 16.65 6.05 16.85 6.65 16.0 6.85 15.6 6.95 12.45 7.6 12.6 8.95 11.85 8.95 11.25 9.85 10.35 9.85 9.7 10.7 9.7 11.35 9.4 11.35 9.4 10.7 8.7 9.85 7.85 9.85 7.2 8.95 6.45 8.95 6.6 7.6 3.55 6.95 3.15 6.85 M10.4 7.75 L10.15 7.0 9.6 6.65 Q9.25 6.65 9.05 7.0 8.8 7.3 8.8 7.75 8.8 8.15 9.05 8.15 L9.6 8.1 10.15 8.15 10.4 7.75 M12.2 8.5 L11.95 8.45 10.95 8.4 10.4 9.65 11.15 9.65 11.7 8.75 12.25 8.75 12.2 8.5 M6.9 8.5 L6.85 8.75 7.35 8.75 7.9 9.65 8.7 9.65 8.15 8.4 7.1 8.45 6.9 8.5" fill="url(#gradient1)" fill-rule="evenodd" stroke="none"/>
    <path d="M3.15 6.85 L3.55 6.95 3.5 7.25 3.15 7.85 Q2.9 7.75 3.05 7.15 L3.15 6.85 M15.6 6.95 L16.0 6.85 16.05 7.15 Q16.25 7.75 15.95 7.85 15.75 7.85 15.6 7.25 L15.6 6.95 M12.2 8.5 L12.25 8.75 11.7 8.75 11.15 9.65 10.4 9.65 10.95 8.4 11.95 8.45 12.2 8.5 M10.4 7.75 L10.15 8.15 9.6 8.1 9.05 8.15 Q8.8 8.15 8.8 7.75 8.8 7.3 9.05 7.0 9.25 6.65 9.6 6.65 L10.15 7.0 10.4 7.75 M6.9 8.5 L7.1 8.45 8.15 8.4 8.7 9.65 7.9 9.65 7.35 8.75 6.85 8.75 6.9 8.5" fill="#0680f9" fill-rule="evenodd" stroke="none"/>
    <path d="M16.0 6.85 L16.85 6.65 16.65 6.05 14.15 6.05 13.95 5.6 11.8 5.6 13.15 2.05 12.85 2.05 10.85 5.55 10.4 5.25 9.85 5.15 9.55 5.25 9.2 5.15 8.7 5.25 8.2 5.55 6.25 2.05 5.95 2.05 7.3 5.6 5.15 5.6 4.95 6.05 2.45 6.05 2.25 6.65 3.15 6.85 3.55 6.95 6.6 7.6 6.45 8.95 7.2 8.95 7.85 9.85 8.7 9.85 9.4 10.7 9.4 11.35 9.7 11.35 9.7 10.7 10.35 9.85 11.25 9.85 11.85 8.95 12.6 8.95 12.45 7.6 15.6 6.95 16.0 6.85 Z" ffdec:has-small-stroke="true" ffdec:original-stroke-width="0.5" fill="none" stroke="#009fff" stroke-linecap="butt" stroke-linejoin="miter-clip" stroke-miterlimit="4.0" stroke-width="1.0"/>
  </g>
  <defs>
    <linearGradient gradientTransform="matrix(0.0017, -0.0119, -0.0119, -0.0017, 9.85, 6.85)" gradientUnits="userSpaceOnUse" id="gradient0" spreadMethod="pad" x1="-819.2" x2="819.2">
      <stop offset="0.0" stop-color="#00a2ff" stop-opacity="0.26666668"/>
      <stop offset="0.19215686274509805" stop-color="#00a2ff" stop-opacity="0.2509804"/>
      <stop offset="0.3215686274509804" stop-color="#0665c6" stop-opacity="0.20392157"/>
      <stop offset="0.43137254901960786" stop-color="#0774cf" stop-opacity="0.11764706"/>
      <stop offset="0.5333333333333333" stop-color="#0889dc" stop-opacity="0.0"/>
      <stop offset="1.0" stop-color="#0be2ff"/>
    </linearGradient>
    <linearGradient gradientTransform="matrix(0.0, -0.0057, -0.0057, 0.0, 9.55, 6.7)" gradientUnits="userSpaceOnUse" id="gradient1" spreadMethod="pad" x1="-819.2" x2="819.2">
      <stop offset="0.0" stop-color="#a3f5fe"/>
      <stop offset="0.13725490196078433" stop-color="#47ebfc"/>
      <stop offset="0.3803921568627451" stop-color="#4ad7f9"/>
      <stop offset="0.6901960784313725" stop-color="#3eacf4"/>
      <stop offset="1.0" stop-color="#247bfd"/>
    </linearGradient>
  </defs>
</svg>
