<?xml version="1.0" encoding="UTF-8" standalone="no"?>
<svg xmlns:ffdec="https://www.free-decompiler.com/flash" xmlns:xlink="http://www.w3.org/1999/xlink" ffdec:objectType="shape" height="17.7px" width="17.7px" xmlns="http://www.w3.org/2000/svg">
  <g transform="matrix(1.0, 0.0, 0.0, 1.0, -1.0, 2.0)">
    <path d="M5.6 14.6 L5.55 14.35 7.55 12.45 10.2 13.2 10.8 15.65 Q7.95 15.9 5.6 14.6 M1.65 10.05 L3.5 8.25 6.2 9.0 6.9 11.7 4.85 13.65 3.9 13.4 3.45 13.0 Q2.25 11.7 1.65 10.05 M1.3 4.5 L2.1 4.8 2.8 7.5 1.25 8.95 Q0.75 6.7 1.3 4.5 M7.8 3.55 L8.45 6.25 6.45 8.15 3.75 7.35 3.1 4.65 5.1 2.7 7.8 3.55 M13.4 10.2 L12.75 7.5 14.75 5.55 17.4 6.3 18.1 9.0 16.05 10.95 13.4 10.2 M11.8 7.7 L12.45 10.4 10.45 12.35 7.8 11.55 7.1 8.85 9.15 6.9 11.8 7.7 M13.4 2.15 L14.1 4.85 12.05 6.75 9.35 6.0 8.75 3.3 10.75 1.35 13.4 2.15 M18.3 6.2 L18.7 5.85 18.7 7.65 18.3 6.2 M18.45 4.7 L17.65 5.45 14.95 4.7 14.3 2.0 15.95 0.45 16.25 0.7 Q17.85 2.4 18.45 4.7 M9.35 -2.0 L10.0 0.6 7.95 2.55 5.3 1.75 4.8 -0.4 Q6.9 -1.85 9.35 -2.0 M3.7 0.5 L3.9 0.25 4.35 1.95 2.35 3.9 1.6 3.65 Q2.3 1.8 3.7 0.5 M10.25 -2.0 Q12.9 -1.85 15.15 -0.3 L13.55 1.25 10.9 0.5 10.25 -2.0" fill="url(#gradient0)" fill-rule="evenodd" stroke="none"/>
    <path d="M3.85 6.85 L3.0 6.7 3.2 6.15 5.45 6.15 5.65 5.75 7.55 5.75 6.35 2.55 6.6 2.55 8.4 5.7 8.85 5.4 9.3 5.35 9.6 5.4 9.85 5.35 10.35 5.4 10.75 5.7 12.55 2.55 12.85 2.55 11.6 5.75 13.55 5.75 13.75 6.15 16.0 6.15 16.15 6.7 15.4 6.85 15.05 6.95 12.2 7.55 12.35 8.75 11.65 8.75 11.1 9.55 10.3 9.55 9.75 10.35 9.75 10.9 9.45 10.9 9.45 10.35 8.85 9.55 8.05 9.55 7.5 8.75 6.8 8.75 6.95 7.55 4.2 6.95 3.85 6.85 M10.15 8.05 Q10.35 8.05 10.35 7.65 L10.15 7.0 Q9.95 6.7 9.65 6.7 L9.15 7.0 Q8.9 7.25 8.9 7.65 8.9 8.05 9.15 8.05 L9.65 8.0 10.15 8.05 M11.55 8.55 L12.0 8.55 12.0 8.35 11.75 8.3 10.85 8.25 10.35 9.4 11.05 9.4 11.55 8.55 M7.2 8.35 L7.15 8.55 7.6 8.55 8.1 9.4 8.85 9.4 8.35 8.25 7.4 8.3 7.2 8.35" fill="url(#gradient1)" fill-rule="evenodd" stroke="none"/>
    <path d="M3.85 6.85 L4.2 6.95 4.15 7.2 3.85 7.75 Q3.6 7.65 3.75 7.15 L3.85 6.85 M15.05 6.95 L15.4 6.85 15.45 7.15 Q15.6 7.65 15.35 7.75 15.15 7.75 15.05 7.2 L15.05 6.95 M11.55 8.55 L11.05 9.4 10.35 9.4 10.85 8.25 11.75 8.3 12.0 8.35 12.0 8.55 11.55 8.55 M10.15 8.05 L9.65 8.0 9.15 8.05 Q8.9 8.05 8.9 7.65 8.9 7.25 9.15 7.0 L9.65 6.7 Q9.95 6.7 10.15 7.0 L10.35 7.65 Q10.35 8.05 10.15 8.05 M7.2 8.35 L7.4 8.3 8.35 8.25 8.85 9.4 8.1 9.4 7.6 8.55 7.15 8.55 7.2 8.35" fill="#0680f9" fill-rule="evenodd" stroke="none"/>
    <path d="M15.4 6.85 L16.15 6.7 16.0 6.15 13.75 6.15 13.55 5.75 11.6 5.75 12.85 2.55 12.55 2.55 10.75 5.7 10.35 5.4 9.85 5.35 9.6 5.4 9.3 5.35 8.85 5.4 8.4 5.7 6.6 2.55 6.35 2.55 7.55 5.75 5.65 5.75 5.45 6.15 3.2 6.15 3.0 6.7 3.85 6.85 4.2 6.95 6.95 7.55 6.8 8.75 7.5 8.75 8.05 9.55 8.85 9.55 9.45 10.35 9.45 10.9 9.75 10.9 9.75 10.35 10.3 9.55 11.1 9.55 11.65 8.75 12.35 8.75 12.2 7.55 15.05 6.95 15.4 6.85 Z" ffdec:has-small-stroke="true" ffdec:original-stroke-width="0.5" fill="none" stroke="#009fff" stroke-linecap="butt" stroke-linejoin="miter-clip" stroke-miterlimit="4.0" stroke-width="1.0"/>
  </g>
  <defs>
    <linearGradient gradientTransform="matrix(0.0015, -0.0107, -0.0107, -0.0015, 9.85, 6.85)" gradientUnits="userSpaceOnUse" id="gradient0" spreadMethod="pad" x1="-819.2" x2="819.2">
      <stop offset="0.0" stop-color="#00a2ff" stop-opacity="0.26666668"/>
      <stop offset="0.19215686274509805" stop-color="#00a2ff" stop-opacity="0.2509804"/>
      <stop offset="0.3215686274509804" stop-color="#0665c6" stop-opacity="0.20392157"/>
      <stop offset="0.43137254901960786" stop-color="#0774cf" stop-opacity="0.11764706"/>
      <stop offset="0.5333333333333333" stop-color="#0889dc" stop-opacity="0.0"/>
      <stop offset="1.0" stop-color="#0be2ff"/>
    </linearGradient>
    <linearGradient gradientTransform="matrix(0.0, -0.0051, -0.0051, 0.0, 9.6, 6.75)" gradientUnits="userSpaceOnUse" id="gradient1" spreadMethod="pad" x1="-819.2" x2="819.2">
      <stop offset="0.0" stop-color="#a3f5fe"/>
      <stop offset="0.13725490196078433" stop-color="#47ebfc"/>
      <stop offset="0.3803921568627451" stop-color="#4ad7f9"/>
      <stop offset="0.6901960784313725" stop-color="#3eacf4"/>
      <stop offset="1.0" stop-color="#247bfd"/>
    </linearGradient>
  </defs>
</svg>
