<?xml version="1.0" encoding="UTF-8" standalone="no"?>
<svg xmlns:ffdec="https://www.free-decompiler.com/flash" xmlns:xlink="http://www.w3.org/1999/xlink" ffdec:objectType="shape" height="18.5px" width="23.0px" xmlns="http://www.w3.org/2000/svg">
  <g transform="matrix(1.0, 0.0, 0.0, 1.0, 0.0, 0.0)">
    <path d="M23.0 17.55 L22.6 17.6 18.4 18.5 18.3 18.5 3.35 13.85 2.6 15.15 0.0 13.9 0.0 12.25 6.45 0.0 9.55 1.1 9.0 2.1 9.55 2.3 9.4 2.55 22.7 7.35 23.0 17.55 M0.5 12.35 L0.5 13.6 2.4 14.5 3.1 13.25 18.3 18.0 22.5 17.1 22.2 7.7 8.7 2.8 8.8 2.6 8.3 2.4 8.8 1.35 6.7 0.6 0.5 12.35" fill="#0a75e0" fill-rule="evenodd" stroke="none"/>
    <path d="M8.8 1.35 L8.3 2.4 8.8 2.6 8.7 2.8 22.2 7.7 22.5 17.1 18.3 18.0 3.1 13.25 2.4 14.5 0.5 13.6 0.5 12.35 2.4 13.3 8.8 1.35" fill="#085499" fill-rule="evenodd" stroke="none"/>
    <path d="M8.8 1.35 L2.4 13.3 0.5 12.35 6.7 0.6 8.8 1.35" fill="#00aaff" fill-rule="evenodd" stroke="none"/>
    <path d="M3.95 7.7 Q4.5 7.15 5.25 7.15 6.05 7.15 6.6 7.7 7.15 8.25 7.15 9.05 7.15 9.85 6.6 10.4 6.05 10.95 5.25 10.95 4.5 10.95 3.95 10.4 3.4 9.85 3.4 9.05 3.4 8.25 3.95 7.7" fill="#00aaff" fill-rule="evenodd" stroke="none"/>
    <path d="M4.65 9.1 L22.5 15.55 22.5 15.9 22.35 15.95 4.1 9.4 4.4 8.6 4.8 8.75 4.65 9.1" fill="#00aaff" fill-rule="evenodd" stroke="none"/>
    <path d="M15.95 10.75 L14.65 9.0 10.45 7.5 10.3 7.95 10.15 7.9 10.45 7.1 14.65 8.6 15.95 10.35 22.4 12.7 22.45 13.5 22.4 13.5 22.4 13.1 15.95 10.75" fill="#00aaff" fill-rule="evenodd" stroke="none"/>
    <path d="M11.45 6.75 L11.75 7.5 11.45 8.25 10.7 8.6 Q10.25 8.6 9.9 8.25 9.6 7.95 9.6 7.5 9.6 7.05 9.9 6.75 10.25 6.4 10.7 6.4 11.1 6.4 11.45 6.75" fill="#00aaff" fill-rule="evenodd" stroke="none"/>
    <path d="M19.15 15.75 L19.3 10.55 19.9 10.8 19.8 15.95 19.15 15.75" fill="#00cfff" fill-rule="evenodd" stroke="none"/>
    <path d="M22.2 16.85 L22.3 11.7 22.95 11.95 22.8 17.1 22.2 16.85" fill="#00cfff" fill-rule="evenodd" stroke="none"/>
    <path d="M19.05 15.65 L22.4 11.75 23.0 11.95 19.65 15.9 19.05 15.65" fill="#00cfff" fill-rule="evenodd" stroke="none"/>
    <path d="M13.1 13.4 L16.4 9.45 17.05 9.7 13.7 13.65 13.1 13.4" fill="#00cfff" fill-rule="evenodd" stroke="none"/>
    <path d="M16.1 14.55 L19.45 10.6 20.05 10.85 16.7 14.8 16.1 14.55" fill="#00cfff" fill-rule="evenodd" stroke="none"/>
    <path d="M16.15 14.6 L16.3 9.4 16.9 9.65 16.8 14.8 16.15 14.6" fill="#00cfff" fill-rule="evenodd" stroke="none"/>
  </g>
</svg>
