<?xml version="1.0" encoding="UTF-8" standalone="no"?>
<svg xmlns:ffdec="https://www.free-decompiler.com/flash" xmlns:xlink="http://www.w3.org/1999/xlink" ffdec:objectType="shape" height="18.5px" width="23.0px" xmlns="http://www.w3.org/2000/svg">
  <g transform="matrix(1.0, 0.0, 0.0, 1.0, 0.0, 3.0)">
    <path d="M6.45 -3.0 L9.55 -1.9 9.0 -0.9 9.55 -0.7 9.4 -0.45 22.7 4.35 23.0 14.55 22.6 14.6 18.4 15.5 18.3 15.5 3.35 10.85 2.6 12.15 0.0 10.9 0.0 9.25 6.45 -3.0 M8.8 -1.65 L6.7 -2.4 0.5 9.35 0.5 10.6 2.4 11.5 3.1 10.25 18.3 15.0 22.5 14.1 22.45 12.95 22.5 12.9 22.5 12.55 22.45 12.55 22.4 10.5 22.45 10.5 22.4 9.7 22.35 9.7 22.2 4.7 8.7 -0.2 8.8 -0.4 8.3 -0.6 8.8 -1.65" fill="#00d8ff" fill-rule="evenodd" stroke="none"/>
    <path d="M8.8 -1.65 L8.3 -0.6 8.8 -0.4 8.7 -0.2 22.2 4.7 22.35 9.7 15.95 7.35 14.65 5.6 11.75 4.6 11.75 4.5 11.45 3.75 Q11.1 3.4 10.7 3.4 10.25 3.4 9.9 3.75 9.6 4.05 9.6 4.5 9.6 4.95 9.9 5.25 10.25 5.6 10.7 5.6 L11.45 5.25 11.7 4.95 14.65 6.0 15.95 7.75 22.4 10.1 22.4 10.5 22.45 12.55 6.95 6.95 7.15 6.05 Q7.15 5.25 6.6 4.7 L5.7 4.2 8.8 -1.65 M22.45 12.95 L22.5 14.1 18.3 15.0 3.1 10.25 2.4 11.5 0.5 10.6 0.5 9.35 2.4 10.3 3.95 7.4 Q4.5 7.95 5.25 7.95 6.05 7.95 6.6 7.4 L6.7 7.35 22.35 12.95 22.45 12.95" fill="#00a2ff" fill-rule="evenodd" stroke="none"/>
    <path d="M0.5 9.35 L6.7 -2.4 8.8 -1.65 5.7 4.2 6.6 4.7 Q7.15 5.25 7.15 6.05 L6.95 6.95 22.45 12.55 22.5 12.55 22.5 12.9 22.45 12.95 22.35 12.95 6.7 7.35 6.6 7.4 Q6.05 7.95 5.25 7.95 4.5 7.95 3.95 7.4 L2.4 10.3 0.5 9.35 M22.35 9.7 L22.4 9.7 22.45 10.5 22.4 10.5 22.4 10.1 15.95 7.75 14.65 6.0 11.7 4.95 11.45 5.25 10.7 5.6 Q10.25 5.6 9.9 5.25 9.6 4.95 9.6 4.5 9.6 4.05 9.9 3.75 10.25 3.4 10.7 3.4 11.1 3.4 11.45 3.75 L11.75 4.5 11.75 4.6 14.65 5.6 15.95 7.35 22.35 9.7" fill="#2de9fd" fill-rule="evenodd" stroke="none"/>
    <path d="M19.3 7.55 L19.9 7.8 19.8 12.95 19.15 12.75 19.3 7.55" fill="#6cffff" fill-rule="evenodd" stroke="none"/>
    <path d="M22.3 8.7 L22.95 8.95 22.8 14.1 22.2 13.85 22.3 8.7" fill="#6cffff" fill-rule="evenodd" stroke="none"/>
    <path d="M22.4 8.75 L23.0 8.95 19.65 12.9 19.05 12.65 22.4 8.75" fill="#6cffff" fill-rule="evenodd" stroke="none"/>
    <path d="M16.4 6.45 L17.05 6.7 13.7 10.65 13.1 10.4 16.4 6.45" fill="#6cffff" fill-rule="evenodd" stroke="none"/>
    <path d="M19.45 7.6 L20.05 7.85 16.7 11.8 16.1 11.55 19.45 7.6" fill="#6cffff" fill-rule="evenodd" stroke="none"/>
    <path d="M16.15 11.6 L16.3 6.4 16.9 6.65 16.8 11.8 16.15 11.6" fill="#6cffff" fill-rule="evenodd" stroke="none"/>
  </g>
</svg>
