<?xml version="1.0" encoding="UTF-8" standalone="no"?>
<svg xmlns:ffdec="https://www.free-decompiler.com/flash" xmlns:xlink="http://www.w3.org/1999/xlink" ffdec:objectType="shape" height="16.65px" width="20.7px" xmlns="http://www.w3.org/2000/svg">
  <g transform="matrix(1.0, 0.0, 0.0, 1.0, -1.15, 2.05)">
    <path d="M6.95 -2.05 L9.75 -1.05 9.25 -0.15 9.75 0.0 9.6 0.25 21.6 4.55 21.85 13.75 17.7 14.6 17.6 14.6 4.15 10.4 3.5 11.6 1.15 10.45 1.15 8.95 6.95 -2.05 M9.05 -0.85 L7.2 -1.5 1.6 9.05 1.6 10.2 3.3 11.0 3.95 9.85 17.6 14.15 21.4 13.35 21.35 12.3 21.4 12.25 21.4 11.95 21.35 11.95 21.3 10.1 21.35 10.1 21.3 9.4 21.25 9.4 21.15 4.9 9.0 0.45 9.05 0.3 8.6 0.1 9.05 -0.85" fill="#00d8ff" fill-rule="evenodd" stroke="none"/>
    <path d="M1.6 9.05 L7.2 -1.5 9.05 -0.85 6.3 4.45 Q6.75 4.5 7.1 4.9 7.6 5.35 7.6 6.1 L7.4 6.9 21.35 11.95 21.4 11.95 21.4 12.25 21.35 12.3 21.25 12.3 7.2 7.25 7.1 7.3 Q6.6 7.8 5.85 7.8 5.2 7.8 4.7 7.3 L3.3 9.9 1.6 9.05 M21.25 9.4 L21.3 9.4 21.35 10.1 21.3 10.1 21.3 9.75 15.5 7.6 14.35 6.05 11.7 5.1 11.45 5.35 Q11.15 5.7 10.8 5.7 10.35 5.7 10.05 5.35 9.8 5.1 9.8 4.7 9.8 4.3 10.05 4.0 10.35 3.7 10.8 3.7 11.15 3.7 11.45 4.0 L11.7 4.7 11.7 4.8 14.35 5.7 15.5 7.25 21.25 9.4" fill="#2de9fd" fill-rule="evenodd" stroke="none"/>
    <path d="M1.6 9.05 L3.3 9.9 4.7 7.3 Q5.2 7.8 5.85 7.8 6.6 7.8 7.1 7.3 L7.2 7.25 21.25 12.3 21.35 12.3 21.4 13.35 17.6 14.15 3.95 9.85 3.3 11.0 1.6 10.2 1.6 9.05 M21.35 11.95 L7.4 6.9 7.6 6.1 Q7.6 5.35 7.1 4.9 6.75 4.5 6.3 4.45 L9.05 -0.85 8.6 0.1 9.05 0.3 9.0 0.45 21.15 4.9 21.25 9.4 15.5 7.25 14.35 5.7 11.7 4.8 11.7 4.7 11.45 4.0 Q11.15 3.7 10.8 3.7 10.35 3.7 10.05 4.0 9.8 4.3 9.8 4.7 9.8 5.1 10.05 5.35 10.35 5.7 10.8 5.7 11.15 5.7 11.45 5.35 L11.7 5.1 14.35 6.05 15.5 7.6 21.3 9.75 21.3 10.1 21.35 11.95" fill="#00a2ff" fill-rule="evenodd" stroke="none"/>
    <path d="M18.5 7.45 L19.05 7.65 18.95 12.3 18.4 12.1 18.5 7.45" fill="#6cffff" fill-rule="evenodd" stroke="none"/>
    <path d="M21.2 8.5 L21.8 8.7 21.65 13.35 21.15 13.1 21.2 8.5" fill="#6cffff" fill-rule="evenodd" stroke="none"/>
    <path d="M21.3 8.5 L21.85 8.7 18.85 12.25 18.3 12.05 21.3 8.5" fill="#6cffff" fill-rule="evenodd" stroke="none"/>
    <path d="M15.9 6.45 L16.5 6.7 13.5 10.25 12.95 10.0 15.9 6.45" fill="#6cffff" fill-rule="evenodd" stroke="none"/>
    <path d="M18.65 7.5 L19.2 7.7 16.2 11.25 15.65 11.05 18.65 7.5" fill="#6cffff" fill-rule="evenodd" stroke="none"/>
    <path d="M15.7 11.1 L15.8 6.4 16.35 6.65 16.25 11.25 15.7 11.1" fill="#6cffff" fill-rule="evenodd" stroke="none"/>
  </g>
</svg>
