<?xml version="1.0" encoding="UTF-8" standalone="no"?>
<svg xmlns:ffdec="https://www.free-decompiler.com/flash" xmlns:xlink="http://www.w3.org/1999/xlink" ffdec:objectType="shape" height="20.35px" width="25.3px" xmlns="http://www.w3.org/2000/svg">
  <g transform="matrix(1.0, 0.0, 0.0, 1.0, 1.15, 0.9)">
    <path d="M23.45 13.05 L23.5 13.05 23.55 13.95 23.5 13.95 23.5 13.5 16.4 10.9 14.95 9.0 11.7 7.85 11.45 8.15 Q11.05 8.55 10.6 8.55 10.1 8.55 9.75 8.15 9.4 7.85 9.4 7.35 9.4 6.85 9.75 6.5 10.1 6.15 10.6 6.15 11.05 6.15 11.45 6.5 L11.75 7.35 11.75 7.45 14.95 8.55 16.4 10.5 23.45 13.05 M23.55 16.2 L23.6 16.2 23.6 16.6 23.55 16.65 23.45 16.65 6.2 10.5 6.1 10.55 Q5.5 11.15 4.6 11.15 3.8 11.15 3.2 10.55 L1.5 13.75 -0.6 12.7 6.2 -0.25 8.55 0.6 5.1 7.0 Q5.65 7.15 6.1 7.55 6.7 8.15 6.7 9.05 L6.5 10.05 23.55 16.2" fill="#2de9fd" fill-rule="evenodd" stroke="none"/>
    <path d="M23.5 13.95 L23.55 13.95 23.5 13.05 23.45 13.05 23.25 7.55 8.4 2.2 8.55 1.95 8.0 1.75 8.55 0.6 6.2 -0.25 -0.6 12.7 -0.6 14.05 1.5 15.05 2.25 13.65 19.0 18.9 23.6 17.9 23.55 16.65 23.6 16.6 23.6 16.2 23.55 16.2 23.5 13.95 M24.15 18.4 L23.7 18.45 19.1 19.45 19.0 19.45 2.55 14.35 1.7 15.75 -1.15 14.4 -1.15 12.55 5.95 -0.9 9.35 0.3 8.75 1.4 9.35 1.65 9.2 1.9 23.8 7.2 24.15 18.4" fill="#00d8ff" fill-rule="evenodd" stroke="none"/>
    <path d="M23.45 13.05 L16.4 10.5 14.95 8.55 11.75 7.45 11.75 7.35 11.45 6.5 Q11.05 6.15 10.6 6.15 10.1 6.15 9.75 6.5 9.4 6.85 9.4 7.35 9.4 7.85 9.75 8.15 10.1 8.55 10.6 8.55 11.05 8.55 11.45 8.15 L11.7 7.85 14.95 9.0 16.4 10.9 23.5 13.5 23.5 13.95 23.55 16.2 6.5 10.05 6.7 9.05 Q6.7 8.15 6.1 7.55 5.65 7.15 5.1 7.0 L8.55 0.6 8.0 1.75 8.55 1.95 8.4 2.2 23.25 7.55 23.45 13.05 M23.55 16.65 L23.6 17.9 19.0 18.9 2.25 13.65 1.5 15.05 -0.6 14.05 -0.6 12.7 1.5 13.75 3.2 10.55 Q3.8 11.15 4.6 11.15 5.5 11.15 6.1 10.55 L6.2 10.5 23.45 16.65 23.55 16.65" fill="#00a2ff" fill-rule="evenodd" stroke="none"/>
    <path d="M20.05 10.7 L20.75 10.95 20.6 16.65 19.9 16.4 20.05 10.7" fill="#6cffff" fill-rule="evenodd" stroke="none"/>
    <path d="M23.35 11.95 L24.1 12.25 23.9 17.9 23.25 17.65 23.35 11.95" fill="#6cffff" fill-rule="evenodd" stroke="none"/>
    <path d="M23.5 12.0 L24.15 12.25 20.45 16.6 19.8 16.3 23.5 12.0" fill="#6cffff" fill-rule="evenodd" stroke="none"/>
    <path d="M16.9 9.5 L17.6 9.75 13.9 14.1 13.25 13.85 16.9 9.5" fill="#6cffff" fill-rule="evenodd" stroke="none"/>
    <path d="M20.25 10.75 L20.9 11.05 17.2 15.35 16.55 15.1 20.25 10.75" fill="#6cffff" fill-rule="evenodd" stroke="none"/>
    <path d="M16.6 15.15 L16.75 9.45 17.45 9.7 17.3 15.35 16.6 15.15" fill="#6cffff" fill-rule="evenodd" stroke="none"/>
  </g>
</svg>
