<?xml version="1.0" encoding="UTF-8" standalone="no"?>
<svg xmlns:ffdec="https://www.free-decompiler.com/flash" xmlns:xlink="http://www.w3.org/1999/xlink" ffdec:objectType="shape" height="16.25px" width="15.05px" xmlns="http://www.w3.org/2000/svg">
  <g transform="matrix(1.0, 0.0, 0.0, 1.0, 0.25, 0.1)">
    <path d="M13.55 8.85 L14.3 10.1 Q14.8 10.95 13.85 12.3 12.95 13.65 11.15 14.7 9.35 15.75 7.75 15.9 6.1 16.05 5.6 15.2 L4.9 14.0 Q4.4 13.15 5.3 11.8 6.2 10.45 8.0 9.4 9.8 8.3 11.45 8.15 13.05 8.0 13.55 8.85" fill="#085499" fill-rule="evenodd" stroke="none"/>
    <path d="M13.55 8.85 Q13.05 8.0 11.45 8.15 9.8 8.3 8.0 9.4 6.2 10.45 5.3 11.8 4.4 13.15 4.9 14.0 L5.6 15.2 Q6.1 16.05 7.75 15.9 9.35 15.75 11.15 14.7 12.95 13.65 13.85 12.3 14.8 10.95 14.3 10.1 L13.55 8.85 Z" ffdec:has-small-stroke="true" ffdec:original-stroke-width="0.5" fill="none" stroke="#0a75e0" stroke-linecap="butt" stroke-linejoin="miter-clip" stroke-miterlimit="4.0" stroke-width="1.0"/>
    <path d="M13.55 8.85 Q14.1 9.7 13.15 11.05 12.25 12.4 10.45 13.45 8.65 14.55 7.0 14.7 5.4 14.85 4.9 14.0 4.4 13.15 5.3 11.8 6.2 10.45 8.0 9.4 9.8 8.3 11.45 8.15 13.05 8.0 13.55 8.85" fill="#0080ff" fill-rule="evenodd" stroke="none"/>
    <path d="M5.7 13.35 L0.25 4.15 7.3 0.0 12.75 9.15 Q12.95 9.85 11.95 10.95 L10.1 12.5 7.5 13.55 5.7 13.35" fill="#48b9ff" fill-rule="evenodd" stroke="none"/>
    <path d="M8.85 0.85 L9.55 2.1 Q10.05 2.95 9.1 4.3 8.2 5.65 6.4 6.7 4.65 7.75 3.0 7.9 1.4 8.1 0.9 7.25 L0.15 6.0 Q-0.35 5.15 0.6 3.8 1.5 2.45 3.3 1.4 5.1 0.3 6.7 0.15 8.3 0.0 8.85 0.85" fill="#085499" fill-rule="evenodd" stroke="none"/>
    <path d="M8.85 0.85 Q8.3 0.0 6.7 0.15 5.1 0.3 3.3 1.4 1.5 2.45 0.6 3.8 -0.35 5.15 0.15 6.0 L0.9 7.25 Q1.4 8.1 3.0 7.9 4.65 7.75 6.4 6.7 8.2 5.65 9.1 4.3 10.05 2.95 9.55 2.1 L8.85 0.85 Z" ffdec:has-small-stroke="true" ffdec:original-stroke-width="0.5" fill="none" stroke="#0a75e0" stroke-linecap="butt" stroke-linejoin="miter-clip" stroke-miterlimit="4.0" stroke-width="1.0"/>
    <path d="M8.85 0.85 Q9.35 1.7 8.4 3.05 7.5 4.4 5.7 5.5 3.9 6.55 2.25 6.7 0.65 6.85 0.15 6.0 -0.35 5.15 0.6 3.8 1.5 2.45 3.3 1.4 5.1 0.3 6.7 0.15 8.3 0.0 8.85 0.85" fill="#0080ff" fill-rule="evenodd" stroke="none"/>
  </g>
</svg>
