<?xml version="1.0" encoding="UTF-8" standalone="no"?>
<svg xmlns:ffdec="https://www.free-decompiler.com/flash" xmlns:xlink="http://www.w3.org/1999/xlink" ffdec:objectType="shape" height="33.75px" width="33.75px" xmlns="http://www.w3.org/2000/svg">
  <g transform="matrix(1.0, 0.0, 0.0, 1.0, -1.05, -0.7)">
    <path d="M28.8 6.7 Q33.3 11.25 33.3 17.6 33.3 23.95 28.8 28.45 24.25 32.95 17.9 32.95 11.55 32.95 7.05 28.45 2.55 23.95 2.55 17.6 2.55 11.2 7.05 6.7 11.55 2.2 17.9 2.2 24.3 2.2 28.8 6.7" fill="#082e99" fill-rule="evenodd" stroke="none"/>
    <path d="M17.9 0.7 Q24.9 0.7 29.85 5.65 34.8 10.6 34.8 17.6 34.8 24.55 29.85 29.5 24.9 34.45 17.9 34.45 10.95 34.45 6.0 29.5 1.05 24.6 1.05 17.6 1.05 10.6 6.0 5.65 10.9 0.7 17.9 0.7 M17.9 2.2 Q11.55 2.2 7.05 6.7 2.55 11.2 2.55 17.6 2.55 23.95 7.05 28.45 11.55 32.95 17.9 32.95 24.25 32.95 28.8 28.45 33.3 23.95 33.3 17.6 33.3 11.25 28.8 6.7 24.3 2.2 17.9 2.2" fill="#4aa5ff" fill-rule="evenodd" stroke="none"/>
    <path d="M17.95 26.45 Q14.25 26.45 11.65 23.85 9.0 21.25 9.0 17.6 9.0 13.95 11.65 11.3 14.25 8.7 17.95 8.7 21.65 8.7 24.25 11.3 26.85 13.95 26.85 17.6 26.85 21.25 24.25 23.85 21.65 26.45 17.95 26.45" fill="url(#gradient0)" fill-rule="evenodd" stroke="none"/>
    <path d="M11.3 10.95 Q14.05 8.2 17.95 8.2 21.85 8.2 24.6 10.95 27.35 13.7 27.35 17.6 27.35 21.45 24.6 24.2 21.85 26.95 17.95 26.95 14.05 26.95 11.3 24.2 8.5 21.45 8.5 17.6 8.5 13.7 11.3 10.95 M17.95 9.2 Q14.45 9.2 12.0 11.65 9.5 14.1 9.5 17.6 9.5 21.05 12.0 23.5 14.45 25.95 17.95 25.95 21.45 25.95 23.9 23.5 26.35 21.05 26.35 17.6 26.35 14.1 23.9 11.65 21.45 9.2 17.95 9.2" fill="#00d2ff" fill-rule="evenodd" stroke="none"/>
    <path d="M23.8 18.6 L21.3 18.6 21.3 22.05 14.5 22.05 14.5 18.6 12.0 18.6 18.15 13.05 23.8 18.6" fill="#ffff00" fill-rule="evenodd" stroke="none"/>
    <path d="M23.8 18.6 L18.15 13.05 12.0 18.6 14.5 18.6 14.5 22.05 21.3 22.05 21.3 18.6 23.8 18.6 Z" fill="none" stroke="#ffcb00" stroke-linecap="butt" stroke-linejoin="miter-clip" stroke-miterlimit="4.0" stroke-width="1.0"/>
  </g>
  <defs>
    <radialGradient cx="0" cy="0" gradientTransform="matrix(0.0109, 0.0, 0.0, -0.0109, 17.95, 17.6)" gradientUnits="userSpaceOnUse" id="gradient0" r="819.2" spreadMethod="pad">
      <stop offset="0.0" stop-color="#00deff"/>
      <stop offset="0.1568627450980392" stop-color="#00d8ff"/>
      <stop offset="0.36470588235294116" stop-color="#00c7ff"/>
      <stop offset="0.6039215686274509" stop-color="#00abff"/>
      <stop offset="0.8588235294117647" stop-color="#0085ff"/>
      <stop offset="1.0" stop-color="#008fff"/>
    </radialGradient>
  </defs>
</svg>
