<?xml version="1.0" encoding="UTF-8" standalone="no"?>
<svg xmlns:ffdec="https://www.free-decompiler.com/flash" xmlns:xlink="http://www.w3.org/1999/xlink" ffdec:objectType="shape" height="16.7px" width="20.3px" xmlns="http://www.w3.org/2000/svg">
  <g transform="matrix(1.0, 0.0, 0.0, 1.0, 0.25, 0.25)">
    <path d="M7.9 2.4 Q9.25 4.75 9.25 8.1 9.25 11.45 7.9 13.8 6.55 16.2 4.6 16.2 2.7 16.2 1.35 13.8 0.0 11.45 0.0 8.1 0.0 4.75 1.35 2.4 2.7 0.0 4.6 0.0 6.55 0.0 7.9 2.4" fill="url(#gradient0)" fill-rule="evenodd" stroke="none"/>
    <path d="M7.9 2.4 Q9.25 4.75 9.25 8.1 9.25 11.45 7.9 13.8 6.55 16.2 4.6 16.2 2.7 16.2 1.35 13.8 0.0 11.45 0.0 8.1 0.0 4.75 1.35 2.4 2.7 0.0 4.6 0.0 6.55 0.0 7.9 2.4 Z" ffdec:has-small-stroke="true" ffdec:original-stroke-width="0.5" fill="none" stroke="#0086ff" stroke-linecap="butt" stroke-linejoin="miter-clip" stroke-miterlimit="4.0" stroke-width="1.0"/>
    <path d="M10.65 3.45 Q11.75 5.35 11.75 8.1 11.75 10.85 10.65 12.75 9.55 14.65 7.95 14.65 6.4 14.65 5.3 12.75 4.2 10.85 4.2 8.1 4.2 5.35 5.3 3.45 6.4 1.5 7.95 1.5 9.55 1.5 10.65 3.45" fill="url(#gradient1)" fill-rule="evenodd" stroke="none"/>
    <path d="M10.65 3.45 Q11.75 5.35 11.75 8.1 11.75 10.85 10.65 12.75 9.55 14.65 7.95 14.65 6.4 14.65 5.3 12.75 4.2 10.85 4.2 8.1 4.2 5.35 5.3 3.45 6.4 1.5 7.95 1.5 9.55 1.5 10.65 3.45 Z" ffdec:has-small-stroke="true" ffdec:original-stroke-width="0.5" fill="none" stroke="#0086ff" stroke-linecap="butt" stroke-linejoin="miter-clip" stroke-miterlimit="4.0" stroke-width="1.0"/>
    <path d="M10.7 4.8 Q11.5 6.15 11.5 8.1 11.5 10.05 10.7 11.45 9.95 12.8 8.8 12.8 7.7 12.8 6.9 11.45 6.1 10.05 6.1 8.1 6.1 6.15 6.9 4.8 7.7 3.4 8.8 3.4 9.95 3.4 10.7 4.8" fill="#aee2ff" fill-rule="evenodd" stroke="none"/>
    <path d="M10.7 4.8 Q11.5 6.15 11.5 8.1 11.5 10.05 10.7 11.45 9.95 12.8 8.8 12.8 7.7 12.8 6.9 11.45 6.1 10.05 6.1 8.1 6.1 6.15 6.9 4.8 7.7 3.4 8.8 3.4 9.95 3.4 10.7 4.8 Z" ffdec:has-small-stroke="true" ffdec:original-stroke-width="0.5" fill="none" stroke="#0086ff" stroke-linecap="butt" stroke-linejoin="miter-clip" stroke-miterlimit="4.0" stroke-width="1.0"/>
    <path d="M8.15 4.05 L8.65 4.0 Q13.35 4.0 16.7 5.2 20.05 6.4 20.05 8.1 20.05 9.8 16.7 11.0 13.35 12.2 8.65 12.2 L8.15 12.15 Q7.25 10.65 7.25 8.1 7.25 5.65 8.15 4.05" fill="url(#gradient2)" fill-rule="evenodd" stroke="none"/>
  </g>
  <defs>
    <linearGradient gradientTransform="matrix(0.0057, 0.0, 0.0, -0.0057, 4.6, 8.1)" gradientUnits="userSpaceOnUse" id="gradient0" spreadMethod="pad" x1="-819.2" x2="819.2">
      <stop offset="0.0" stop-color="#00b0ff"/>
      <stop offset="0.20392156862745098" stop-color="#00a6fc"/>
      <stop offset="0.5607843137254902" stop-color="#0089f6"/>
      <stop offset="1.0" stop-color="#005eeb"/>
    </linearGradient>
    <linearGradient gradientTransform="matrix(0.0046, 0.0, 0.0, -0.0046, 7.95, 8.1)" gradientUnits="userSpaceOnUse" id="gradient1" spreadMethod="pad" x1="-819.2" x2="819.2">
      <stop offset="0.0" stop-color="#005eeb"/>
      <stop offset="0.4392156862745098" stop-color="#0089f6"/>
      <stop offset="0.796078431372549" stop-color="#00a6fc"/>
      <stop offset="1.0" stop-color="#00b0ff"/>
    </linearGradient>
    <linearGradient gradientTransform="matrix(0.0078, 0.0, 0.0, -0.0078, 13.65, 8.1)" gradientUnits="userSpaceOnUse" id="gradient2" spreadMethod="pad" x1="-819.2" x2="819.2">
      <stop offset="0.0" stop-color="#a3ffff"/>
      <stop offset="0.12156862745098039" stop-color="#99f6ff" stop-opacity="0.93333334"/>
      <stop offset="0.32941176470588235" stop-color="#7cdeff" stop-opacity="0.7607843"/>
      <stop offset="0.6039215686274509" stop-color="#4fb7ff" stop-opacity="0.48235294"/>
      <stop offset="0.9254901960784314" stop-color="#1081ff" stop-opacity="0.09411765"/>
      <stop offset="1.0" stop-color="#0073ff" stop-opacity="0.0"/>
    </linearGradient>
  </defs>
</svg>
