<?xml version="1.0" encoding="UTF-8" standalone="no"?>
<svg xmlns:ffdec="https://www.free-decompiler.com/flash" xmlns:xlink="http://www.w3.org/1999/xlink" ffdec:objectType="shape" height="16.7px" width="20.3px" xmlns="http://www.w3.org/2000/svg">
  <g transform="matrix(1.0, 0.0, 0.0, 1.0, 0.25, 1.25)">
    <path d="M9.25 7.1 Q9.25 10.45 7.9 12.8 6.55 15.2 4.6 15.2 2.7 15.2 1.35 12.8 0.0 10.45 0.0 7.1 0.0 3.75 1.35 1.4 2.7 -1.0 4.6 -1.0 6.55 -1.0 7.9 1.4 9.25 3.75 9.25 7.1" fill="url(#gradient0)" fill-rule="evenodd" stroke="none"/>
    <path d="M9.25 7.1 Q9.25 10.45 7.9 12.8 6.55 15.2 4.6 15.2 2.7 15.2 1.35 12.8 0.0 10.45 0.0 7.1 0.0 3.75 1.35 1.4 2.7 -1.0 4.6 -1.0 6.55 -1.0 7.9 1.4 9.25 3.75 9.25 7.1 Z" ffdec:has-small-stroke="true" ffdec:original-stroke-width="0.5" fill="none" stroke="#0096f0" stroke-linecap="butt" stroke-linejoin="miter-clip" stroke-miterlimit="4.0" stroke-width="1.0"/>
    <path d="M11.75 7.1 Q11.75 9.85 10.65 11.75 9.55 13.65 7.95 13.65 6.4 13.65 5.3 11.75 4.2 9.85 4.2 7.1 4.2 4.35 5.3 2.45 6.4 0.5 7.95 0.5 9.55 0.5 10.65 2.45 11.75 4.35 11.75 7.1" fill="url(#gradient1)" fill-rule="evenodd" stroke="none"/>
    <path d="M11.75 7.1 Q11.75 9.85 10.65 11.75 9.55 13.65 7.95 13.65 6.4 13.65 5.3 11.75 4.2 9.85 4.2 7.1 4.2 4.35 5.3 2.45 6.4 0.5 7.95 0.5 9.55 0.5 10.65 2.45 11.75 4.35 11.75 7.1 Z" ffdec:has-small-stroke="true" ffdec:original-stroke-width="0.5" fill="none" stroke="#0096f0" stroke-linecap="butt" stroke-linejoin="miter-clip" stroke-miterlimit="4.0" stroke-width="1.0"/>
    <path d="M10.7 3.8 Q11.5 5.15 11.5 7.1 11.5 9.05 10.7 10.45 9.95 11.8 8.8 11.8 7.7 11.8 6.9 10.45 6.1 9.05 6.1 7.1 6.1 5.15 6.9 3.8 7.7 2.4 8.8 2.4 9.95 2.4 10.7 3.8" fill="#aee2ff" fill-rule="evenodd" stroke="none"/>
    <path d="M10.7 3.8 Q11.5 5.15 11.5 7.1 11.5 9.05 10.7 10.45 9.95 11.8 8.8 11.8 7.7 11.8 6.9 10.45 6.1 9.05 6.1 7.1 6.1 5.15 6.9 3.8 7.7 2.4 8.8 2.4 9.95 2.4 10.7 3.8 Z" ffdec:has-small-stroke="true" ffdec:original-stroke-width="0.5" fill="none" stroke="#00a2ff" stroke-linecap="butt" stroke-linejoin="miter-clip" stroke-miterlimit="4.0" stroke-width="1.0"/>
    <path d="M8.15 3.05 L8.65 3.0 Q13.35 3.0 16.7 4.2 20.05 5.4 20.05 7.1 20.05 8.8 16.7 10.0 13.35 11.2 8.65 11.2 L8.15 11.15 Q7.25 9.65 7.25 7.1 7.25 4.65 8.15 3.05" fill="url(#gradient2)" fill-rule="evenodd" stroke="none"/>
  </g>
  <defs>
    <linearGradient gradientTransform="matrix(0.0057, 0.0, 0.0, -0.0057, 4.6, 7.1)" gradientUnits="userSpaceOnUse" id="gradient0" spreadMethod="pad" x1="-819.2" x2="819.2">
      <stop offset="0.0" stop-color="#6fe9ff"/>
      <stop offset="0.4117647058823529" stop-color="#1cbafd"/>
      <stop offset="1.0" stop-color="#00a2ff"/>
    </linearGradient>
    <linearGradient gradientTransform="matrix(0.0046, 0.0, 0.0, -0.0046, 7.95, 7.1)" gradientUnits="userSpaceOnUse" id="gradient1" spreadMethod="pad" x1="-819.2" x2="819.2">
      <stop offset="0.0" stop-color="#008ef6"/>
      <stop offset="0.4392156862745098" stop-color="#3eb0fd"/>
      <stop offset="0.796078431372549" stop-color="#2dbffd"/>
      <stop offset="1.0" stop-color="#81d9fe"/>
    </linearGradient>
    <linearGradient gradientTransform="matrix(0.0078, 0.0, 0.0, -0.0078, 13.65, 7.1)" gradientUnits="userSpaceOnUse" id="gradient2" spreadMethod="pad" x1="-819.2" x2="819.2">
      <stop offset="0.0" stop-color="#c4ffff"/>
      <stop offset="0.12156862745098039" stop-color="#bcfefd" stop-opacity="0.93333334"/>
      <stop offset="0.32941176470588235" stop-color="#7cdeff" stop-opacity="0.7607843"/>
      <stop offset="0.6039215686274509" stop-color="#4fb7ff" stop-opacity="0.48235294"/>
      <stop offset="0.9254901960784314" stop-color="#1081ff" stop-opacity="0.09411765"/>
      <stop offset="1.0" stop-color="#0073ff" stop-opacity="0.0"/>
    </linearGradient>
  </defs>
</svg>
