<?xml version="1.0" encoding="UTF-8" standalone="no"?>
<svg xmlns:ffdec="https://www.free-decompiler.com/flash" xmlns:xlink="http://www.w3.org/1999/xlink" ffdec:objectType="shape" height="15.1px" width="18.3px" xmlns="http://www.w3.org/2000/svg">
  <g transform="matrix(1.0, 0.0, 0.0, 1.0, -0.75, 0.45)">
    <path d="M9.3 7.1 Q9.3 10.1 8.1 12.2 6.9 14.4 5.15 14.4 3.45 14.4 2.2 12.2 1.0 10.1 1.0 7.1 1.0 4.05 2.2 1.95 3.45 -0.2 5.15 -0.2 6.9 -0.2 8.1 1.95 9.3 4.05 9.3 7.1" fill="url(#gradient0)" fill-rule="evenodd" stroke="none"/>
    <path d="M9.3 7.1 Q9.3 10.1 8.1 12.2 6.9 14.4 5.15 14.4 3.45 14.4 2.2 12.2 1.0 10.1 1.0 7.1 1.0 4.05 2.2 1.95 3.45 -0.2 5.15 -0.2 6.9 -0.2 8.1 1.95 9.3 4.05 9.3 7.1 Z" ffdec:has-small-stroke="true" ffdec:original-stroke-width="0.5" fill="none" stroke="#0096f0" stroke-linecap="butt" stroke-linejoin="miter-clip" stroke-miterlimit="4.0" stroke-width="1.0"/>
    <path d="M11.55 7.1 Q11.55 9.55 10.6 11.25 9.6 13.0 8.15 13.0 6.75 13.0 5.75 11.25 4.8 9.55 4.8 7.1 4.8 4.6 5.75 2.9 6.75 1.15 8.15 1.15 9.6 1.15 10.6 2.9 11.55 4.6 11.55 7.1" fill="url(#gradient1)" fill-rule="evenodd" stroke="none"/>
    <path d="M11.55 7.1 Q11.55 9.55 10.6 11.25 9.6 13.0 8.15 13.0 6.75 13.0 5.75 11.25 4.8 9.55 4.8 7.1 4.8 4.6 5.75 2.9 6.75 1.15 8.15 1.15 9.6 1.15 10.6 2.9 11.55 4.6 11.55 7.1 Z" ffdec:has-small-stroke="true" ffdec:original-stroke-width="0.5" fill="none" stroke="#0096f0" stroke-linecap="butt" stroke-linejoin="miter-clip" stroke-miterlimit="4.0" stroke-width="1.0"/>
    <path d="M10.6 4.1 Q11.35 5.3 11.35 7.05 11.35 8.8 10.6 10.1 9.95 11.3 8.9 11.3 7.9 11.3 7.2 10.1 6.45 8.8 6.45 7.05 6.45 5.3 7.2 4.1 7.9 2.85 8.9 2.85 9.95 2.85 10.6 4.1" fill="#aee2ff" fill-rule="evenodd" stroke="none"/>
    <path d="M10.6 4.1 Q11.35 5.3 11.35 7.05 11.35 8.8 10.6 10.1 9.95 11.3 8.9 11.3 7.9 11.3 7.2 10.1 6.45 8.8 6.45 7.05 6.45 5.3 7.2 4.1 7.9 2.85 8.9 2.85 9.95 2.85 10.6 4.1 Z" ffdec:has-small-stroke="true" ffdec:original-stroke-width="0.5" fill="none" stroke="#00a2ff" stroke-linecap="butt" stroke-linejoin="miter-clip" stroke-miterlimit="4.0" stroke-width="1.0"/>
    <path d="M8.3 3.4 L8.75 3.4 Q13.0 3.4 16.0 4.45 19.05 5.55 19.05 7.05 19.05 8.6 16.0 9.7 13.0 10.75 8.75 10.75 L8.3 10.7 Q7.5 9.35 7.5 7.05 7.5 4.85 8.3 3.4" fill="url(#gradient2)" fill-rule="evenodd" stroke="none"/>
  </g>
  <defs>
    <linearGradient gradientTransform="matrix(0.0051, 0.0, 0.0, -0.0051, 5.15, 7.1)" gradientUnits="userSpaceOnUse" id="gradient0" spreadMethod="pad" x1="-819.2" x2="819.2">
      <stop offset="0.0" stop-color="#6fe9ff"/>
      <stop offset="0.4117647058823529" stop-color="#1cbafd"/>
      <stop offset="1.0" stop-color="#00a2ff"/>
    </linearGradient>
    <linearGradient gradientTransform="matrix(0.0041, 0.0, 0.0, -0.0041, 8.15, 7.1)" gradientUnits="userSpaceOnUse" id="gradient1" spreadMethod="pad" x1="-819.2" x2="819.2">
      <stop offset="0.0" stop-color="#008ef6"/>
      <stop offset="0.4392156862745098" stop-color="#3eb0fd"/>
      <stop offset="0.796078431372549" stop-color="#2dbffd"/>
      <stop offset="1.0" stop-color="#81d9fe"/>
    </linearGradient>
    <linearGradient gradientTransform="matrix(0.007, 0.0, 0.0, -0.007, 13.25, 7.05)" gradientUnits="userSpaceOnUse" id="gradient2" spreadMethod="pad" x1="-819.2" x2="819.2">
      <stop offset="0.0" stop-color="#c4ffff"/>
      <stop offset="0.12156862745098039" stop-color="#bcfefd" stop-opacity="0.93333334"/>
      <stop offset="0.32941176470588235" stop-color="#7cdeff" stop-opacity="0.7607843"/>
      <stop offset="0.6039215686274509" stop-color="#4fb7ff" stop-opacity="0.48235294"/>
      <stop offset="0.9254901960784314" stop-color="#1081ff" stop-opacity="0.09411765"/>
      <stop offset="1.0" stop-color="#0073ff" stop-opacity="0.0"/>
    </linearGradient>
  </defs>
</svg>
