<?xml version="1.0" encoding="UTF-8" standalone="no"?>
<svg xmlns:ffdec="https://www.free-decompiler.com/flash" xmlns:xlink="http://www.w3.org/1999/xlink" ffdec:objectType="shape" height="18.3px" width="22.3px" xmlns="http://www.w3.org/2000/svg">
  <g transform="matrix(1.0, 0.0, 0.0, 1.0, 1.25, 1.05)">
    <path d="M9.2 8.1 Q9.2 11.8 7.7 14.4 6.2 17.0 4.05 17.0 2.0 17.0 0.5 14.4 -1.0 11.8 -1.0 8.1 -1.0 4.45 0.5 1.85 2.0 -0.8 4.05 -0.8 6.2 -0.8 7.7 1.85 9.2 4.45 9.2 8.1" fill="url(#gradient0)" fill-rule="evenodd" stroke="none"/>
    <path d="M9.2 8.1 Q9.2 11.8 7.7 14.4 6.2 17.0 4.05 17.0 2.0 17.0 0.5 14.4 -1.0 11.8 -1.0 8.1 -1.0 4.45 0.5 1.85 2.0 -0.8 4.05 -0.8 6.2 -0.8 7.7 1.85 9.2 4.45 9.2 8.1 Z" ffdec:has-small-stroke="true" ffdec:original-stroke-width="0.5" fill="none" stroke="#0096f0" stroke-linecap="butt" stroke-linejoin="miter-clip" stroke-miterlimit="4.0" stroke-width="1.0"/>
    <path d="M11.9 8.1 Q11.9 11.15 10.7 13.2 9.5 15.3 7.75 15.3 6.05 15.3 4.85 13.2 3.6 11.15 3.6 8.1 3.6 5.1 4.85 3.0 6.05 0.85 7.75 0.85 9.5 0.85 10.7 3.0 11.9 5.1 11.9 8.1" fill="url(#gradient1)" fill-rule="evenodd" stroke="none"/>
    <path d="M11.9 8.1 Q11.9 11.15 10.7 13.2 9.5 15.3 7.75 15.3 6.05 15.3 4.85 13.2 3.6 11.15 3.6 8.1 3.6 5.1 4.85 3.0 6.05 0.85 7.75 0.85 9.5 0.85 10.7 3.0 11.9 5.1 11.9 8.1 Z" ffdec:has-small-stroke="true" ffdec:original-stroke-width="0.5" fill="none" stroke="#0096f0" stroke-linecap="butt" stroke-linejoin="miter-clip" stroke-miterlimit="4.0" stroke-width="1.0"/>
    <path d="M10.8 4.5 Q11.65 6.0 11.65 8.1 11.65 10.25 10.8 11.8 9.95 13.3 8.7 13.3 7.5 13.3 6.6 11.8 5.7 10.25 5.7 8.1 5.7 6.0 6.6 4.5 7.5 2.95 8.7 2.95 9.95 2.95 10.8 4.5" fill="#aee2ff" fill-rule="evenodd" stroke="none"/>
    <path d="M10.8 4.5 Q11.65 6.0 11.65 8.1 11.65 10.25 10.8 11.8 9.95 13.3 8.7 13.3 7.5 13.3 6.6 11.8 5.7 10.25 5.7 8.1 5.7 6.0 6.6 4.5 7.5 2.95 8.7 2.95 9.95 2.95 10.8 4.5 Z" ffdec:has-small-stroke="true" ffdec:original-stroke-width="0.5" fill="none" stroke="#00a2ff" stroke-linecap="butt" stroke-linejoin="miter-clip" stroke-miterlimit="4.0" stroke-width="1.0"/>
    <path d="M7.95 3.65 L8.5 3.6 Q13.7 3.6 17.4 4.95 21.05 6.25 21.05 8.1 21.05 10.0 17.4 11.3 13.7 12.65 8.5 12.65 L7.95 12.6 Q7.0 10.95 7.0 8.1 7.0 5.45 7.95 3.65" fill="url(#gradient2)" fill-rule="evenodd" stroke="none"/>
  </g>
  <defs>
    <linearGradient gradientTransform="matrix(0.0062, 0.0, 0.0, -0.0062, 4.05, 8.1)" gradientUnits="userSpaceOnUse" id="gradient0" spreadMethod="pad" x1="-819.2" x2="819.2">
      <stop offset="0.0" stop-color="#6fe9ff"/>
      <stop offset="0.4117647058823529" stop-color="#1cbafd"/>
      <stop offset="1.0" stop-color="#00a2ff"/>
    </linearGradient>
    <linearGradient gradientTransform="matrix(0.0051, 0.0, 0.0, -0.0051, 7.75, 8.1)" gradientUnits="userSpaceOnUse" id="gradient1" spreadMethod="pad" x1="-819.2" x2="819.2">
      <stop offset="0.0" stop-color="#008ef6"/>
      <stop offset="0.4392156862745098" stop-color="#3eb0fd"/>
      <stop offset="0.796078431372549" stop-color="#2dbffd"/>
      <stop offset="1.0" stop-color="#81d9fe"/>
    </linearGradient>
    <linearGradient gradientTransform="matrix(0.0086, 0.0, 0.0, -0.0086, 14.0, 8.1)" gradientUnits="userSpaceOnUse" id="gradient2" spreadMethod="pad" x1="-819.2" x2="819.2">
      <stop offset="0.0" stop-color="#c4ffff"/>
      <stop offset="0.12156862745098039" stop-color="#bcfefd" stop-opacity="0.93333334"/>
      <stop offset="0.32941176470588235" stop-color="#7cdeff" stop-opacity="0.7607843"/>
      <stop offset="0.6039215686274509" stop-color="#4fb7ff" stop-opacity="0.48235294"/>
      <stop offset="0.9254901960784314" stop-color="#1081ff" stop-opacity="0.09411765"/>
      <stop offset="1.0" stop-color="#0073ff" stop-opacity="0.0"/>
    </linearGradient>
  </defs>
</svg>
