<?xml version="1.0" encoding="UTF-8" standalone="no"?>
<svg xmlns:ffdec="https://www.free-decompiler.com/flash" xmlns:xlink="http://www.w3.org/1999/xlink" ffdec:objectType="shape" height="70.7px" width="19.85px" xmlns="http://www.w3.org/2000/svg">
  <g transform="matrix(1.0, 0.0, 0.0, 1.0, 10.3, 12.6)">
    <path d="M5.9 -8.85 L5.9 -7.15 -7.8 -7.15 -7.8 58.1 -9.5 58.1 -9.5 -8.85 5.9 -8.85" fill="#0b88f9" fill-rule="evenodd" stroke="none"/>
    <path d="M5.9 -7.15 L5.9 -6.35 -7.0 -6.35 -7.0 58.1 -7.8 58.1 -7.8 -7.15 5.9 -7.15 M-9.5 58.1 L-10.3 58.1 -10.3 -9.65 5.9 -9.65 5.9 -8.85 -9.5 -8.85 -9.5 58.1" fill="#000000" fill-rule="evenodd" stroke="none"/>
    <path d="M9.55 -7.95 L3.9 -3.3 3.9 -5.4 5.55 -7.95 3.9 -10.65 3.9 -12.6 9.55 -7.95" fill="#0881b7" fill-rule="evenodd" stroke="none"/>
  </g>
</svg>
