<?xml version="1.0" encoding="UTF-8" standalone="no"?>
<svg xmlns:ffdec="https://www.free-decompiler.com/flash" xmlns:xlink="http://www.w3.org/1999/xlink" ffdec:objectType="shape" height="66.5px" width="63.8px" xmlns="http://www.w3.org/2000/svg">
  <g transform="matrix(1.0, 0.0, 0.0, 1.0, 33.45, 46.7)">
    <path d="M26.7 15.65 L24.9 15.65 24.9 -43.9 -33.45 -43.9 -33.45 -45.9 26.7 -45.9 26.7 15.65" fill="#0b88f9" fill-rule="evenodd" stroke="none"/>
    <path d="M24.9 15.65 L24.1 15.65 24.1 -43.1 -33.45 -43.1 -33.45 -43.9 24.9 -43.9 24.9 15.65 M-33.45 -45.9 L-33.45 -46.7 27.5 -46.7 27.5 15.65 26.7 15.65 26.7 -45.9 -33.45 -45.9" fill="#000000" fill-rule="evenodd" stroke="none"/>
    <path d="M25.7 19.8 L21.05 14.15 23.15 14.15 25.7 15.8 28.4 14.15 30.35 14.15 25.7 19.8" fill="#0881b7" fill-rule="evenodd" stroke="none"/>
  </g>
</svg>
