<?xml version="1.0" encoding="UTF-8" standalone="no"?>
<svg xmlns:ffdec="https://www.free-decompiler.com/flash" xmlns:xlink="http://www.w3.org/1999/xlink" ffdec:objectType="shape" height="35.85px" width="16.15px" xmlns="http://www.w3.org/2000/svg">
  <g transform="matrix(1.0, 0.0, 0.0, 1.0, 8.4, 18.05)">
    <path d="M3.75 -14.45 L3.75 -12.75 -5.9 -12.75 -5.9 -9.0 -5.9 -6.35 -5.9 17.8 -7.6 17.8 -7.6 -14.45 3.75 -14.45" fill="#0b88f9" fill-rule="evenodd" stroke="none"/>
    <path d="M-7.6 17.8 L-8.4 17.8 -8.4 -15.25 3.75 -15.25 3.75 -14.45 -7.6 -14.45 -7.6 17.8 M3.75 -12.75 L3.75 -11.95 -5.1 -11.95 -5.1 -8.95 -5.1 -6.4 -5.1 17.8 -5.9 17.8 -5.9 -6.35 -5.9 -9.0 -5.9 -12.75 3.75 -12.75" fill="#000000" fill-rule="evenodd" stroke="none"/>
    <path d="M7.75 -13.4 L2.1 -18.05 2.1 -15.95 3.75 -13.4 2.1 -10.7 2.1 -8.75 7.75 -13.4" fill="#0881b7" fill-rule="evenodd" stroke="none"/>
  </g>
</svg>
