<?xml version="1.0" encoding="UTF-8" standalone="no"?>
<svg xmlns:ffdec="https://www.free-decompiler.com/flash" xmlns:xlink="http://www.w3.org/1999/xlink" ffdec:objectType="shape" height="78.75px" width="78.75px" xmlns="http://www.w3.org/2000/svg">
  <g transform="matrix(1.0, 0.0, 0.0, 1.0, 0.0, 0.0)">
    <path d="M39.35 9.8 Q27.1 9.8 18.45 18.45 9.8 27.15 9.8 39.4 9.8 48.95 15.35 56.65 L56.65 15.4 Q48.9 9.8 39.35 9.8 M66.85 11.9 Q78.25 23.3 78.25 39.4 78.25 55.5 66.85 66.85 55.45 78.25 39.35 78.25 23.25 78.25 11.9 66.85 0.5 55.5 0.5 39.4 0.5 23.3 11.9 11.9 23.25 0.5 39.35 0.5 55.5 0.5 66.85 11.9 M68.95 39.4 Q68.95 30.2 63.65 22.5 L22.5 63.65 Q30.1 68.95 39.35 68.95 51.6 68.95 60.3 60.3 68.95 51.65 68.95 39.4" fill="#0059b2" fill-rule="evenodd" stroke="none"/>
    <path d="M68.95 39.4 Q68.95 51.65 60.3 60.3 51.6 68.95 39.35 68.95 30.1 68.95 22.5 63.65 L63.65 22.5 Q68.95 30.2 68.95 39.4 M66.85 11.9 Q55.5 0.5 39.35 0.5 23.25 0.5 11.9 11.9 0.5 23.3 0.5 39.4 0.5 55.5 11.9 66.85 23.25 78.25 39.35 78.25 55.45 78.25 66.85 66.85 78.25 55.5 78.25 39.4 78.25 23.3 66.85 11.9 M39.35 9.8 Q48.9 9.8 56.65 15.4 L15.35 56.65 Q9.8 48.95 9.8 39.4 9.8 27.15 18.45 18.45 27.1 9.8 39.35 9.8 Z" fill="none" stroke="#00bdff" stroke-linecap="butt" stroke-linejoin="miter-clip" stroke-miterlimit="4.0" stroke-width="1.0"/>
  </g>
</svg>
