<?xml version="1.0" encoding="UTF-8" standalone="no"?>
<svg xmlns:ffdec="https://www.free-decompiler.com/flash" xmlns:xlink="http://www.w3.org/1999/xlink" ffdec:objectType="shape" height="41.05px" width="151.4px" xmlns="http://www.w3.org/2000/svg">
  <g transform="matrix(1.0, 0.0, 0.0, 1.0, 0.0, 0.0)">
    <path d="M150.65 6.5 L150.65 34.55 Q150.65 36.9 149.0 38.6 147.3 40.3 144.9 40.3 L6.5 40.3 Q4.1 40.3 2.45 38.6 0.75 36.9 0.75 34.55 L0.75 6.5 Q0.75 4.1 2.45 2.45 4.1 0.75 6.5 0.75 L144.9 0.75 Q147.3 0.75 149.0 2.45 150.65 4.1 150.65 6.5" fill="#042d7f" fill-rule="evenodd" stroke="none"/>
    <path d="M149.5 1.9 Q151.4 3.8 151.4 6.5 L151.4 34.55 Q151.4 37.25 149.5 39.15 147.6 41.05 144.9 41.05 L6.5 41.05 Q3.8 41.05 1.9 39.15 0.0 37.25 0.0 34.55 L0.0 6.5 Q0.0 3.8 1.9 1.9 3.8 0.0 6.5 0.0 L144.9 0.0 Q147.6 0.0 149.5 1.9 M149.9 6.5 Q149.9 4.45 148.45 2.95 146.95 1.5 144.9 1.5 L6.5 1.5 Q4.45 1.5 2.95 2.95 1.5 4.45 1.5 6.5 L1.5 34.55 Q1.5 36.6 2.95 38.1 4.45 39.55 6.5 39.55 L144.9 39.55 Q146.95 39.55 148.45 38.1 149.9 36.6 149.9 34.55 L149.9 6.5" fill="#0376ff" fill-rule="evenodd" stroke="none"/>
    <path d="M1.85 5.2 L5.25 6.7 5.25 35.4 1.85 36.95 1.85 5.2" fill="#043ea5" fill-rule="evenodd" stroke="none"/>
    <path d="M1.85 5.2 L1.85 36.95 5.25 35.4 5.25 6.7 1.85 5.2 Z" fill="none" stroke="#065b9d" stroke-linecap="butt" stroke-linejoin="miter-clip" stroke-miterlimit="4.0" stroke-width="1.0"/>
    <path d="M150.0 5.2 L150.0 36.95 146.55 35.4 146.55 6.7 150.0 5.2" fill="#043ea5" fill-rule="evenodd" stroke="none"/>
    <path d="M150.0 5.2 L150.0 36.95 146.55 35.4 146.55 6.7 150.0 5.2 Z" fill="none" stroke="#065b9d" stroke-linecap="butt" stroke-linejoin="miter-clip" stroke-miterlimit="4.0" stroke-width="1.0"/>
  </g>
</svg>
