<?xml version="1.0" encoding="UTF-8" standalone="no"?>
<svg xmlns:ffdec="https://www.free-decompiler.com/flash" xmlns:xlink="http://www.w3.org/1999/xlink" ffdec:objectType="shape" height="34.05px" width="123.45px" xmlns="http://www.w3.org/2000/svg">
  <g transform="matrix(1.0, 0.0, 0.0, 1.0, -14.45, -3.95)">
    <path d="M137.1 9.65 L137.1 32.35 Q137.1 34.35 135.65 35.8 134.25 37.2 132.2 37.2 L20.1 37.2 Q18.15 37.2 16.65 35.8 15.25 34.35 15.25 32.35 L15.25 9.65 Q15.25 7.6 16.65 6.2 18.1 4.75 20.1 4.75 L132.2 4.75 Q134.25 4.75 135.65 6.2 137.1 7.6 137.1 9.65" fill="url(#gradient0)" fill-rule="evenodd" stroke="none"/>
    <path d="M136.25 5.6 Q137.9 7.3 137.9 9.65 L137.9 32.35 Q137.9 34.7 136.25 36.35 134.55 38.0 132.2 38.0 L20.1 38.0 Q17.75 38.0 16.1 36.35 14.45 34.7 14.45 32.35 L14.45 9.65 Q14.45 7.3 16.1 5.6 17.75 3.95 20.1 3.95 L132.2 3.95 Q134.55 3.95 136.25 5.6 M136.25 9.65 Q136.25 7.95 135.1 6.75 133.9 5.6 132.2 5.6 L20.1 5.6 Q18.45 5.6 17.25 6.75 16.05 7.95 16.05 9.65 L16.05 32.35 Q16.05 34.0 17.25 35.2 18.45 36.4 20.1 36.4 L132.2 36.4 Q133.9 36.4 135.1 35.2 136.25 34.0 136.25 32.35 L136.25 9.65" fill="#29abe2" fill-rule="evenodd" stroke="none"/>
    <path d="M16.35 8.55 L19.1 9.8 19.1 33.05 16.35 34.3 16.35 8.55" fill="#0677ff" fill-rule="evenodd" stroke="none"/>
    <path d="M16.35 8.55 L16.35 34.3 19.1 33.05 19.1 9.8 16.35 8.55 Z" fill="none" stroke="#00a4ff" stroke-linecap="butt" stroke-linejoin="miter-clip" stroke-miterlimit="4.0" stroke-width="1.0"/>
    <path d="M136.35 8.55 L136.35 34.3 133.55 33.05 133.55 9.8 136.35 8.55" fill="#0677ff" fill-rule="evenodd" stroke="none"/>
    <path d="M136.35 8.55 L136.35 34.3 133.55 33.05 133.55 9.8 136.35 8.55 Z" fill="none" stroke="#00a4ff" stroke-linecap="butt" stroke-linejoin="miter-clip" stroke-miterlimit="4.0" stroke-width="1.0"/>
  </g>
  <defs>
    <linearGradient gradientTransform="matrix(0.0, 0.0201, 0.0201, 0.0, 76.15, 20.2)" gradientUnits="userSpaceOnUse" id="gradient0" spreadMethod="pad" x1="-819.2" x2="819.2">
      <stop offset="0.0" stop-color="#0d63bf"/>
      <stop offset="0.09019607843137255" stop-color="#0d5ac3"/>
      <stop offset="0.24313725490196078" stop-color="#0d4fc7"/>
      <stop offset="1.0" stop-color="#005cff"/>
    </linearGradient>
  </defs>
</svg>
