<?xml version="1.0" encoding="UTF-8" standalone="no"?>
<svg xmlns:ffdec="https://www.free-decompiler.com/flash" xmlns:xlink="http://www.w3.org/1999/xlink" ffdec:objectType="shape" height="42.05px" width="152.4px" xmlns="http://www.w3.org/2000/svg">
  <g transform="matrix(1.0, 0.0, 0.0, 1.0, 0.0, 0.0)">
    <path d="M151.4 7.0 L151.4 35.05 Q151.4 37.55 149.65 39.3 147.9 41.05 145.4 41.05 L7.0 41.05 Q4.55 41.05 2.75 39.3 1.0 37.55 1.0 35.05 L1.0 7.0 Q1.0 4.5 2.75 2.75 4.5 1.0 7.0 1.0 L145.4 1.0 Q147.9 1.0 149.65 2.75 151.4 4.5 151.4 7.0" fill="url(#gradient0)" fill-rule="evenodd" stroke="none"/>
    <path d="M150.35 2.05 Q152.4 4.1 152.4 7.0 L152.4 35.05 Q152.4 37.95 150.35 40.0 148.3 42.05 145.4 42.05 L7.0 42.05 Q4.1 42.05 2.05 40.0 0.0 37.95 0.0 35.05 L0.0 7.0 Q0.0 4.1 2.05 2.05 4.1 0.0 7.0 0.0 L145.4 0.0 Q148.3 0.0 150.35 2.05 M148.95 3.45 Q147.45 2.0 145.4 2.0 L7.0 2.0 Q4.95 2.0 3.45 3.45 2.0 4.95 2.0 7.0 L2.0 35.05 Q2.0 37.1 3.45 38.6 4.95 40.05 7.0 40.05 L145.4 40.05 Q147.45 40.05 148.95 38.6 150.4 37.1 150.4 35.05 L150.4 7.0 Q150.4 4.95 148.95 3.45" fill="#f19e24" fill-rule="evenodd" stroke="none"/>
    <path d="M2.35 5.7 L5.75 7.2 5.75 35.9 2.35 37.45 2.35 5.7" fill="#d18003" fill-rule="evenodd" stroke="none"/>
    <path d="M2.35 5.7 L2.35 37.45 5.75 35.9 5.75 7.2 2.35 5.7 Z" fill="none" stroke="#f19e24" stroke-linecap="butt" stroke-linejoin="miter-clip" stroke-miterlimit="4.0" stroke-width="1.0"/>
    <path d="M150.5 5.7 L150.5 37.45 147.05 35.9 147.05 7.2 150.5 5.7" fill="#d18003" fill-rule="evenodd" stroke="none"/>
    <path d="M150.5 5.7 L150.5 37.45 147.05 35.9 147.05 7.2 150.5 5.7 Z" fill="none" stroke="#f19e24" stroke-linecap="butt" stroke-linejoin="miter-clip" stroke-miterlimit="4.0" stroke-width="1.0"/>
  </g>
  <defs>
    <linearGradient gradientTransform="matrix(0.0, 0.0287, 0.0085, 0.0, 78.25, 12.0)" gradientUnits="userSpaceOnUse" id="gradient0" spreadMethod="pad" x1="-819.2" x2="819.2">
      <stop offset="0.0" stop-color="#eb8242"/>
      <stop offset="0.00392156862745098" stop-color="#e87f40"/>
      <stop offset="0.043137254901960784" stop-color="#cb6129"/>
      <stop offset="0.08627450980392157" stop-color="#b34917"/>
      <stop offset="0.13333333333333333" stop-color="#a3380a"/>
      <stop offset="0.1803921568627451" stop-color="#992e02"/>
      <stop offset="0.24313725490196078" stop-color="#962b00"/>
      <stop offset="0.4392156862745098" stop-color="#982e00"/>
      <stop offset="0.592156862745098" stop-color="#9f3800"/>
      <stop offset="0.7333333333333333" stop-color="#ab4901"/>
      <stop offset="0.8666666666666667" stop-color="#bb6002"/>
      <stop offset="0.996078431372549" stop-color="#d07f03"/>
      <stop offset="1.0" stop-color="#d18003"/>
    </linearGradient>
  </defs>
</svg>
