<?xml version="1.0" encoding="UTF-8" standalone="no"?>
<svg xmlns:ffdec="https://www.free-decompiler.com/flash" xmlns:xlink="http://www.w3.org/1999/xlink" ffdec:objectType="shape" height="295.25px" width="560.35px" xmlns="http://www.w3.org/2000/svg">
  <g transform="matrix(1.0, 0.0, 0.0, 1.0, 278.9, 168.4)">
    <path d="M281.45 -62.65 L-278.35 -62.65 -278.35 -63.65 281.45 -63.65 281.45 -62.65 M281.45 -15.15 L-278.35 -15.15 -278.35 -16.15 281.45 -16.15 281.45 -15.15 M-278.9 126.85 L-278.9 125.85 281.45 125.85 281.45 126.85 -278.9 126.85 M-278.35 78.85 L-278.35 77.85 281.45 77.85 281.45 78.85 -278.35 78.85 M-278.35 31.85 L-278.35 30.85 281.45 30.85 281.45 31.85 -278.35 31.85" fill="#4083cd" fill-rule="evenodd" stroke="none"/>
    <path d="M279.6 -136.5 L279.6 -114.9 Q279.6 -113.65 278.7 -112.8 277.85 -111.9 276.6 -111.9 L-275.05 -111.9 Q-276.35 -111.9 -277.2 -112.8 -278.1 -113.65 -278.1 -114.9 L-278.1 -136.5 Q-278.1 -137.75 -277.2 -138.6 -276.35 -139.5 -275.05 -139.5 L276.6 -139.5 Q277.85 -139.5 278.7 -138.6 279.6 -137.75 279.6 -136.5" fill="#042370" fill-rule="evenodd" stroke="none"/>
    <path d="M279.6 -136.5 L279.6 -114.9 Q279.6 -113.65 278.7 -112.8 277.85 -111.9 276.6 -111.9 L-275.05 -111.9 Q-276.35 -111.9 -277.2 -112.8 -278.1 -113.65 -278.1 -114.9 L-278.1 -136.5 Q-278.1 -137.75 -277.2 -138.6 -276.35 -139.5 -275.05 -139.5 L276.6 -139.5 Q277.85 -139.5 278.7 -138.6 279.6 -137.75 279.6 -136.5 Z" fill="none" stroke="#2565f4" stroke-linecap="butt" stroke-linejoin="miter-clip" stroke-miterlimit="4.0" stroke-width="1.0"/>
    <path d="M38.6 -143.05 L80.85 -143.05 Q82.05 -143.05 83.4 -143.7 84.75 -144.4 85.5 -145.35 L99.9 -164.05 Q100.65 -165.0 100.3 -165.7 100.05 -166.4 98.85 -166.4 L38.6 -166.4 -10.6 -166.4 -103.5 -166.4 Q-104.7 -166.4 -104.95 -165.7 -105.3 -165.0 -104.6 -164.0 L-91.05 -145.4 Q-90.3 -144.4 -89.0 -143.75 -87.65 -143.05 -86.45 -143.05 L-10.6 -143.05 38.6 -143.05 M102.0 -166.55 Q102.8 -164.7 101.35 -162.8 L86.95 -144.1 Q85.95 -142.8 84.2 -141.9 82.45 -141.05 80.85 -141.05 L-86.45 -141.05 Q-88.1 -141.05 -89.8 -141.95 -91.55 -142.85 -92.55 -144.2 L-106.1 -162.8 Q-107.5 -164.8 -106.65 -166.55 -105.85 -168.4 -103.5 -168.4 L98.85 -168.4 Q101.2 -168.4 102.0 -166.55" fill="#0068ff" fill-rule="evenodd" stroke="none"/>
    <path d="M38.6 -166.4 L98.85 -166.4 Q100.05 -166.4 100.3 -165.7 100.65 -165.0 99.9 -164.05 L85.5 -145.35 Q84.75 -144.4 83.4 -143.7 82.05 -143.05 80.85 -143.05 L38.6 -143.05 38.6 -166.4" fill="url(#gradient0)" fill-rule="evenodd" stroke="none"/>
    <path d="M38.6 -143.05 L-10.6 -143.05 -10.6 -166.4 38.6 -166.4 38.6 -143.05" fill="url(#gradient1)" fill-rule="evenodd" stroke="none"/>
    <path d="M-10.6 -143.05 L-86.45 -143.05 Q-87.65 -143.05 -89.0 -143.75 -90.3 -144.4 -91.05 -145.4 L-104.6 -164.0 Q-105.3 -165.0 -104.95 -165.7 -104.7 -166.4 -103.5 -166.4 L-10.6 -166.4 -10.6 -143.05" fill="url(#gradient2)" fill-rule="evenodd" stroke="none"/>
  </g>
  <defs>
    <linearGradient gradientTransform="matrix(0.0, -0.0155, -0.0146, 0.0, 9.7, -154.7)" gradientUnits="userSpaceOnUse" id="gradient0" spreadMethod="pad" x1="-819.2" x2="819.2">
      <stop offset="0.0" stop-color="#05337a"/>
      <stop offset="0.17647058823529413" stop-color="#032970"/>
      <stop offset="0.4627450980392157" stop-color="#012168"/>
      <stop offset="1.0" stop-color="#001f66"/>
    </linearGradient>
    <linearGradient gradientTransform="matrix(0.0, -0.0155, -0.0363, 0.0, -20.1, -154.7)" gradientUnits="userSpaceOnUse" id="gradient1" spreadMethod="pad" x1="-819.2" x2="819.2">
      <stop offset="0.0" stop-color="#05337a"/>
      <stop offset="0.17647058823529413" stop-color="#032970"/>
      <stop offset="0.4627450980392157" stop-color="#012168"/>
      <stop offset="1.0" stop-color="#001f66"/>
    </linearGradient>
    <linearGradient gradientTransform="matrix(0.0, -0.0155, -0.0146, 0.0, -14.4, -154.7)" gradientUnits="userSpaceOnUse" id="gradient2" spreadMethod="pad" x1="-819.2" x2="819.2">
      <stop offset="0.0" stop-color="#05337a"/>
      <stop offset="0.17647058823529413" stop-color="#032970"/>
      <stop offset="0.4627450980392157" stop-color="#012168"/>
      <stop offset="1.0" stop-color="#001f66"/>
    </linearGradient>
  </defs>
</svg>
