<?xml version="1.0" encoding="UTF-8" standalone="no"?>
<svg xmlns:ffdec="https://www.free-decompiler.com/flash" xmlns:xlink="http://www.w3.org/1999/xlink" ffdec:objectType="shape" height="37.85px" width="137.2px" xmlns="http://www.w3.org/2000/svg">
  <g transform="matrix(1.0, 0.0, 0.0, 1.0, -7.6, -2.1)">
    <path d="M143.9 8.4 L143.9 33.65 Q143.9 35.9 142.3 37.45 140.75 39.05 138.5 39.05 L13.9 39.05 Q11.7 39.05 10.1 37.45 8.5 35.9 8.5 33.65 L8.5 8.4 Q8.5 6.15 10.1 4.55 11.65 3.0 13.9 3.0 L138.5 3.0 Q140.75 3.0 142.3 4.55 143.9 6.15 143.9 8.4" fill="url(#gradient0)" fill-rule="evenodd" stroke="none"/>
    <path d="M143.0 8.4 Q143.0 6.55 141.7 5.2 140.35 3.9 138.5 3.9 L13.9 3.9 Q12.1 3.9 10.75 5.2 9.4 6.55 9.4 8.4 L9.4 33.65 Q9.4 35.5 10.75 36.85 12.1 38.15 13.9 38.15 L138.5 38.15 Q140.35 38.15 141.7 36.85 143.0 35.5 143.0 33.65 L143.0 8.4 M142.95 3.95 Q144.8 5.8 144.8 8.4 L144.8 33.65 Q144.8 36.25 142.95 38.1 141.1 39.95 138.5 39.95 L13.9 39.95 Q11.3 39.95 9.45 38.1 7.6 36.25 7.6 33.65 L7.6 8.4 Q7.6 5.8 9.45 3.95 11.3 2.1 13.9 2.1 L138.5 2.1 Q141.1 2.1 142.95 3.95" fill="#29abe2" fill-rule="evenodd" stroke="none"/>
    <path d="M9.75 7.2 L12.8 8.55 12.8 34.4 9.75 35.8 9.75 7.2" fill="#0677ff" fill-rule="evenodd" stroke="none"/>
    <path d="M9.75 7.2 L9.75 35.8 12.8 34.4 12.8 8.55 9.75 7.2 Z" fill="none" stroke="#00a4ff" stroke-linecap="butt" stroke-linejoin="miter-clip" stroke-miterlimit="4.0" stroke-width="1.0"/>
    <path d="M143.05 7.2 L143.05 35.8 139.95 34.4 139.95 8.55 143.05 7.2" fill="#0677ff" fill-rule="evenodd" stroke="none"/>
    <path d="M143.05 7.2 L143.05 35.8 139.95 34.4 139.95 8.55 143.05 7.2 Z" fill="none" stroke="#00a4ff" stroke-linecap="butt" stroke-linejoin="miter-clip" stroke-miterlimit="4.0" stroke-width="1.0"/>
  </g>
  <defs>
    <linearGradient gradientTransform="matrix(0.0, 0.0224, 0.0224, 0.0, 76.2, 20.15)" gradientUnits="userSpaceOnUse" id="gradient0" spreadMethod="pad" x1="-819.2" x2="819.2">
      <stop offset="0.0" stop-color="#0d63bf"/>
      <stop offset="0.09019607843137255" stop-color="#0d5ac3"/>
      <stop offset="0.24313725490196078" stop-color="#0d4fc7"/>
      <stop offset="1.0" stop-color="#005cff"/>
    </linearGradient>
  </defs>
</svg>
