<?xml version="1.0" encoding="UTF-8" standalone="no"?>
<svg xmlns:ffdec="https://www.free-decompiler.com/flash" xmlns:xlink="http://www.w3.org/1999/xlink" ffdec:objectType="shape" height="30.65px" width="119.1px" xmlns="http://www.w3.org/2000/svg">
  <g transform="matrix(1.0, 0.0, 0.0, 1.0, 0.0, 0.0)">
    <path d="M117.25 1.85 L114.6 0.75 Q116.15 0.75 117.25 1.85 M1.85 28.8 L4.45 29.9 Q2.95 29.9 1.85 28.8" fill="url(#gradient0)" fill-rule="evenodd" stroke="none"/>
    <path d="M117.25 1.85 Q118.35 2.95 118.35 4.5 L118.35 26.15 Q118.35 27.75 117.25 28.8 116.2 29.9 114.6 29.9 L4.45 29.9 1.85 28.8 Q0.75 27.75 0.75 26.15 L0.8 11.65 Q0.8 10.2 1.65 8.7 2.45 7.2 3.7 6.4 L9.9 2.45 Q11.05 1.75 12.75 1.25 14.45 0.75 15.8 0.75 L114.6 0.75 117.25 1.85" fill="url(#gradient1)" fill-rule="evenodd" stroke="none"/>
    <path d="M117.8 1.3 Q119.1 2.65 119.1 4.5 L119.1 26.15 Q119.1 28.05 117.8 29.35 116.5 30.65 114.6 30.65 L4.45 30.65 Q2.6 30.65 1.3 29.35 0.0 28.05 0.0 26.15 L0.05 11.65 Q0.05 10.0 1.0 8.35 1.9 6.65 3.3 5.8 L9.45 1.85 Q10.7 1.05 12.55 0.55 L15.8 0.0 114.6 0.0 Q116.5 0.0 117.8 1.3 M117.6 4.5 Q117.6 3.25 116.7 2.4 115.85 1.5 114.6 1.5 L15.8 1.5 12.95 1.95 Q11.3 2.45 10.3 3.1 L4.1 7.05 Q3.05 7.75 2.3 9.05 1.55 10.4 1.55 11.65 L1.5 26.15 Q1.5 27.4 2.35 28.25 3.2 29.15 4.45 29.15 L114.6 29.15 Q115.85 29.15 116.7 28.25 117.6 27.4 117.6 26.15 L117.6 4.5" fill="#aa803c" fill-rule="evenodd" stroke="none"/>
  </g>
  <defs>
    <radialGradient cx="0" cy="0" gradientTransform="matrix(0.1009, 0.0, 0.0, -0.0252, 59.3, 29.25)" gradientUnits="userSpaceOnUse" id="gradient0" r="819.2" spreadMethod="pad">
      <stop offset="0.0" stop-color="#ffcc00"/>
      <stop offset="0.34509803921568627" stop-color="#b57f02"/>
      <stop offset="0.5568627450980392" stop-color="#975a01"/>
      <stop offset="1.0" stop-color="#732e00"/>
    </radialGradient>
    <radialGradient cx="0" cy="0" gradientTransform="matrix(0.1158, 0.0, 0.0, -0.0289, 60.0, 24.0)" gradientUnits="userSpaceOnUse" id="gradient1" r="819.2" spreadMethod="pad">
      <stop offset="0.0" stop-color="#e6b107"/>
      <stop offset="0.10588235294117647" stop-color="#e1ab07"/>
      <stop offset="0.24705882352941178" stop-color="#d29a06"/>
      <stop offset="0.40784313725490196" stop-color="#b97e04"/>
      <stop offset="0.5843137254901961" stop-color="#975702"/>
      <stop offset="0.7411764705882353" stop-color="#732e00"/>
      <stop offset="0.8196078431372549" stop-color="#592204"/>
      <stop offset="0.9372549019607843" stop-color="#39140a"/>
      <stop offset="1.0" stop-color="#2d0e0c"/>
    </radialGradient>
  </defs>
</svg>
