<?xml version="1.0" encoding="UTF-8" standalone="no"?>
<svg xmlns:ffdec="https://www.free-decompiler.com/flash" xmlns:xlink="http://www.w3.org/1999/xlink" ffdec:objectType="shape" height="96.45px" width="185.65px" xmlns="http://www.w3.org/2000/svg">
  <g transform="matrix(1.0, 0.0, 0.0, 1.0, 1.0, 1.0)">
    <path d="M3.0 0.0 L180.65 0.0 Q181.9 0.0 182.75 0.9 183.65 1.75 183.65 3.0 L183.65 91.45 Q183.65 92.7 182.75 93.55 181.9 94.45 180.65 94.45 L3.0 94.45 Q1.75 94.45 0.9 93.55 0.0 92.7 0.0 91.45 L0.0 3.0 Q0.0 1.75 0.9 0.9 1.75 0.0 3.0 0.0" fill="#061e60" fill-rule="evenodd" stroke="none"/>
    <path d="M3.0 0.0 L180.65 0.0 Q181.9 0.0 182.75 0.9 183.65 1.75 183.65 3.0 L183.65 91.45 Q183.65 92.7 182.75 93.55 181.9 94.45 180.65 94.45 L3.0 94.45 Q1.75 94.45 0.9 93.55 0.0 92.7 0.0 91.45 L0.0 3.0 Q0.0 1.75 0.9 0.9 1.75 0.0 3.0 0.0 Z" fill="none" stroke="#004ecc" stroke-linecap="butt" stroke-linejoin="miter-clip" stroke-miterlimit="4.0" stroke-width="2.0"/>
    <path d="M84.3 0.75 Q84.75 1.5 84.1 2.55 L75.1 18.05 Q74.5 19.1 73.15 19.9 71.85 20.65 70.6 20.65 L3.0 20.65 Q1.75 20.65 0.9 19.75 0.0 18.9 0.0 17.65 L0.0 3.0 Q0.0 1.75 0.9 0.9 1.75 0.0 3.0 0.0 L82.6 0.0 Q83.85 0.0 84.3 0.75" fill="#062f93" fill-rule="evenodd" stroke="none"/>
    <path d="M84.3 0.75 Q84.75 1.5 84.1 2.55 L75.1 18.05 Q74.5 19.1 73.15 19.9 71.85 20.65 70.6 20.65 L3.0 20.65 Q1.75 20.65 0.9 19.75 0.0 18.9 0.0 17.65 L0.0 3.0 Q0.0 1.75 0.9 0.9 1.75 0.0 3.0 0.0 L82.6 0.0 Q83.85 0.0 84.3 0.75 Z" fill="none" stroke="#0659ff" stroke-linecap="butt" stroke-linejoin="miter-clip" stroke-miterlimit="4.0" stroke-width="1.5"/>
  </g>
</svg>
