<?xml version="1.0" encoding="UTF-8" standalone="no"?>
<svg xmlns:ffdec="https://www.free-decompiler.com/flash" xmlns:xlink="http://www.w3.org/1999/xlink" ffdec:objectType="shape" height="26.7px" width="195.9px" xmlns="http://www.w3.org/2000/svg">
  <g transform="matrix(1.0, 0.0, 0.0, 1.0, 0.75, 0.75)">
    <path d="M194.4 3.0 L194.4 22.2 Q194.4 23.45 193.5 24.3 192.65 25.2 191.4 25.2 L3.0 25.2 Q1.75 25.2 0.9 24.3 0.0 23.45 0.0 22.2 L0.0 3.0 Q0.0 1.75 0.9 0.9 1.75 0.0 3.0 0.0 L191.4 0.0 Q192.65 0.0 193.5 0.9 194.4 1.75 194.4 3.0" fill="#062f93" fill-rule="evenodd" stroke="none"/>
    <path d="M194.4 3.0 L194.4 22.2 Q194.4 23.45 193.5 24.3 192.65 25.2 191.4 25.2 L3.0 25.2 Q1.75 25.2 0.9 24.3 0.0 23.45 0.0 22.2 L0.0 3.0 Q0.0 1.75 0.9 0.9 1.75 0.0 3.0 0.0 L191.4 0.0 Q192.65 0.0 193.5 0.9 194.4 1.75 194.4 3.0 Z" fill="none" stroke="#0659ff" stroke-linecap="butt" stroke-linejoin="miter-clip" stroke-miterlimit="4.0" stroke-width="1.5"/>
  </g>
</svg>
