<?xml version="1.0" encoding="UTF-8" standalone="no"?>
<svg xmlns:ffdec="https://www.free-decompiler.com/flash" xmlns:xlink="http://www.w3.org/1999/xlink" ffdec:objectType="shape" height="25.2px" width="177.4px" xmlns="http://www.w3.org/2000/svg">
  <g transform="matrix(1.0, 0.0, 0.0, 1.0, -9.3, -0.9)">
    <path d="M186.1 4.1 L186.1 22.85 Q186.1 24.0 185.3 24.8 184.55 25.6 183.4 25.6 L12.5 25.6 Q11.35 25.6 10.6 24.8 9.8 24.0 9.8 22.85 L9.8 4.1 Q9.8 2.95 10.6 2.2 11.35 1.4 12.5 1.4 L183.4 1.4 Q184.55 1.4 185.3 2.2 186.1 2.95 186.1 4.1" fill="url(#gradient0)" fill-rule="evenodd" stroke="none"/>
    <path d="M183.4 1.4 L12.5 1.4 Q11.35 1.4 10.6 2.2 9.8 2.95 9.8 4.1 L9.8 22.85 Q9.8 24.0 10.6 24.8 11.35 25.6 12.5 25.6 L183.4 25.6 Q184.55 25.6 185.3 24.8 186.1 24.0 186.1 22.85 L186.1 4.1 Q186.1 2.95 185.3 2.2 184.55 1.4 183.4 1.4 Z" fill="none" stroke="#29abe2" stroke-linecap="butt" stroke-linejoin="miter-clip" stroke-miterlimit="4.0" stroke-width="1.0"/>
  </g>
  <defs>
    <linearGradient gradientTransform="matrix(0.0, -0.0191, 0.8999, -2.0E-4, -2.35, 14.35)" gradientUnits="userSpaceOnUse" id="gradient0" spreadMethod="pad" x1="-819.2" x2="819.2">
      <stop offset="0.0" stop-color="#0d63bf"/>
      <stop offset="0.09019607843137255" stop-color="#0d5ac3"/>
      <stop offset="0.24313725490196078" stop-color="#0d4fc7"/>
      <stop offset="1.0" stop-color="#005cff"/>
    </linearGradient>
  </defs>
</svg>
