<?xml version="1.0" encoding="UTF-8" standalone="no"?>
<svg xmlns:ffdec="https://www.free-decompiler.com/flash" xmlns:xlink="http://www.w3.org/1999/xlink" ffdec:objectType="shape" height="30.15px" width="25.85px" xmlns="http://www.w3.org/2000/svg">
  <g transform="matrix(1.0, 0.0, 0.0, 1.0, 12.9, 14.5)">
    <path d="M-6.45 -14.3 L-1.35 -13.15 1.9 -8.05 0.8 -3.95 4.9 1.75 9.7 2.95 12.75 6.65 12.95 9.3 12.8 9.4 12.75 9.4 9.8 10.6 7.5 6.45 5.65 6.6 5.55 7.3 5.55 10.25 8.0 12.8 3.75 14.2 0.4 8.95 0.45 8.6 1.7 5.1 -2.75 -1.3 -8.95 -2.55 -11.85 -7.45 -10.0 -11.75 -9.6 -11.1 -6.45 -6.95 -3.6 -8.85 -6.5 -14.2 -6.45 -14.3" fill="url(#gradient0)" fill-rule="evenodd" stroke="none"/>
    <path d="M-6.45 -14.3 L-6.5 -14.2 -3.6 -8.85 -6.45 -6.95 -9.6 -11.1 -6.9 -8.05 Q-5.5 -9.05 -4.8 -9.25 L-6.45 -14.3 M5.55 7.3 L5.65 6.6 7.5 6.45 9.8 10.6 12.75 9.4 Q12.6 9.6 12.7 10.45 L9.75 11.6 9.1 11.95 5.55 7.3" fill="#666666" fill-rule="evenodd" stroke="none"/>
    <path d="M-10.0 -11.75 L-11.85 -7.45 -8.95 -2.55 -2.75 -1.3 1.7 5.1 0.45 8.6 0.4 8.95 3.75 14.2 8.0 12.8 7.8 14.1 3.4 15.65 -0.75 10.05 -0.15 6.2 -4.35 0.3 -9.25 -1.0 -12.9 -6.85 -10.05 -11.85 -10.0 -11.75" fill="url(#gradient1)" fill-rule="evenodd" stroke="none"/>
  </g>
  <defs>
    <linearGradient gradientTransform="matrix(-0.0081, 0.0059, 0.0101, 0.0138, -3.75, -0.7)" gradientUnits="userSpaceOnUse" id="gradient0" spreadMethod="pad" x1="-819.2" x2="819.2">
      <stop offset="0.023529411764705882" stop-color="#ffffff"/>
      <stop offset="0.32941176470588235" stop-color="#d6d6d6"/>
      <stop offset="0.5803921568627451" stop-color="#a6a6a6"/>
      <stop offset="1.0" stop-color="#000000"/>
    </linearGradient>
    <linearGradient gradientTransform="matrix(0.0098, -0.0081, 0.0102, 0.0124, -5.5, 9.3)" gradientUnits="userSpaceOnUse" id="gradient1" spreadMethod="pad" x1="-819.2" x2="819.2">
      <stop offset="0.0" stop-color="#ffffff"/>
      <stop offset="1.0" stop-color="#000000"/>
    </linearGradient>
  </defs>
</svg>
