<?xml version="1.0" encoding="UTF-8" standalone="no"?>
<svg xmlns:ffdec="https://www.free-decompiler.com/flash" xmlns:xlink="http://www.w3.org/1999/xlink" ffdec:objectType="shape" height="330.4px" width="604.45px" xmlns="http://www.w3.org/2000/svg">
  <g transform="matrix(1.0, 0.0, 0.0, 1.0, 0.0, 0.0)">
    <path d="M603.95 3.0 L603.95 327.4 Q603.95 328.45 603.2 329.2 602.45 329.9 601.45 329.9 L3.0 329.9 Q1.95 329.9 1.25 329.2 0.5 328.45 0.5 327.4 L0.5 3.0 Q0.5 1.95 1.25 1.25 1.95 0.5 3.0 0.5 L601.45 0.5 Q602.45 0.5 603.2 1.25 603.95 1.95 603.95 3.0" fill="url(#gradient0)" fill-rule="evenodd" stroke="none"/>
    <path d="M603.45 3.0 Q603.45 2.2 602.85 1.6 602.3 1.0 601.45 1.0 L3.0 1.0 Q2.2 1.0 1.6 1.6 1.0 2.2 1.0 3.0 L1.0 327.4 Q1.0 328.25 1.6 328.8 2.2 329.4 3.0 329.4 L601.45 329.4 Q602.3 329.4 602.85 328.8 603.45 328.25 603.45 327.4 L603.45 3.0 M601.45 0.0 Q602.7 0.0 603.55 0.85 604.45 1.75 604.45 3.0 L604.45 327.4 Q604.45 328.65 603.55 329.5 602.7 330.4 601.45 330.4 L3.0 330.4 Q1.75 330.4 0.9 329.5 0.0 328.65 0.0 327.4 L0.0 3.0 Q0.0 1.75 0.9 0.85 1.75 0.0 3.0 0.0 L601.45 0.0" fill="#2e8eff" fill-rule="evenodd" stroke="none"/>
  </g>
  <defs>
    <linearGradient gradientTransform="matrix(0.0, -0.201, -0.201, 0.0, 302.2, 165.2)" gradientUnits="userSpaceOnUse" id="gradient0" spreadMethod="pad" x1="-819.2" x2="819.2">
      <stop offset="0.0" stop-color="#003f9c"/>
      <stop offset="0.1803921568627451" stop-color="#00348a"/>
      <stop offset="0.48627450980392156" stop-color="#002572"/>
      <stop offset="0.7647058823529411" stop-color="#001c63"/>
      <stop offset="1.0" stop-color="#00195e"/>
    </linearGradient>
  </defs>
</svg>
