<?xml version="1.0" encoding="UTF-8" standalone="no"?>
<svg xmlns:ffdec="https://www.free-decompiler.com/flash" xmlns:xlink="http://www.w3.org/1999/xlink" ffdec:objectType="shape" height="229.0px" width="334.0px" xmlns="http://www.w3.org/2000/svg">
  <g transform="matrix(1.0, 0.0, 0.0, 1.0, 0.0, 0.0)">
    <path d="M320.4 70.15 Q333.5 91.3 333.5 114.5 333.5 137.7 320.4 158.9 307.8 179.35 284.75 195.15 261.7 210.9 231.8 219.55 200.85 228.5 167.0 228.5 133.1 228.5 102.15 219.55 72.3 210.9 49.25 195.15 26.2 179.35 13.6 158.9 0.5 137.7 0.5 114.5 0.5 91.3 13.6 70.15 26.2 49.65 49.25 33.9 72.3 18.1 102.15 9.45 133.1 0.5 167.0 0.5 200.85 0.5 231.8 9.45 261.7 18.1 284.75 33.9 307.8 49.65 320.4 70.15" fill="url(#gradient0)" fill-rule="evenodd" stroke="none"/>
    <path d="M320.4 70.15 Q333.5 91.3 333.5 114.5 333.5 137.7 320.4 158.9 307.8 179.35 284.75 195.15 261.7 210.9 231.8 219.55 200.85 228.5 167.0 228.5 133.1 228.5 102.15 219.55 72.3 210.9 49.25 195.15 26.2 179.35 13.6 158.9 0.5 137.7 0.5 114.5 0.5 91.3 13.6 70.15 26.2 49.65 49.25 33.9 72.3 18.1 102.15 9.45 133.1 0.5 167.0 0.5 200.85 0.5 231.8 9.45 261.7 18.1 284.75 33.9 307.8 49.65 320.4 70.15 Z" fill="none" stroke="#2e8eff" stroke-linecap="butt" stroke-linejoin="miter-clip" stroke-miterlimit="4.0" stroke-width="1.0"/>
  </g>
  <defs>
    <radialGradient cx="0" cy="0" gradientTransform="matrix(0.1761, 0.0, 0.0, -0.1191, 167.0, 114.55)" gradientUnits="userSpaceOnUse" id="gradient0" r="819.2" spreadMethod="pad">
      <stop offset="0.0" stop-color="#00195e" stop-opacity="0.11764706"/>
      <stop offset="0.17647058823529413" stop-color="#00216a" stop-opacity="0.14901961"/>
      <stop offset="0.49019607843137253" stop-color="#003789" stop-opacity="0.22745098"/>
      <stop offset="0.9058823529411765" stop-color="#005abb" stop-opacity="0.35686275"/>
      <stop offset="1.0" stop-color="#0063c7" stop-opacity="0.3882353"/>
    </radialGradient>
  </defs>
</svg>
