<?xml version="1.0" encoding="UTF-8" standalone="no"?>
<svg xmlns:ffdec="https://www.free-decompiler.com/flash" xmlns:xlink="http://www.w3.org/1999/xlink" ffdec:objectType="shape" height="4.25px" width="3.95px" xmlns="http://www.w3.org/2000/svg">
  <g transform="matrix(1.0, 0.0, 0.0, 1.0, 1.15, 1.2)">
    <path d="M1.55 -1.15 Q-1.0 -0.75 -1.0 1.25 -1.0 1.8 -0.5 2.25 0.15 2.85 1.4 2.85 L2.35 2.7 2.8 2.7 2.25 2.9 0.4 3.05 Q-0.25 3.05 -0.75 2.3 L-1.15 1.25 Q-1.15 0.5 -0.75 -0.2 -0.1 -1.2 1.05 -1.2 L1.55 -1.15 M2.0 0.9 Q2.0 1.25 1.45 1.4 1.3 1.95 0.95 1.95 0.25 1.95 0.05 1.4 L-0.25 0.9 Q-0.25 0.2 0.05 0.0 0.25 -0.3 0.95 -0.3 1.3 -0.3 1.45 0.0 2.0 0.2 2.0 0.9" fill="#e6ffff" fill-opacity="0.7019608" fill-rule="evenodd" stroke="none"/>
  </g>
</svg>
