<?xml version="1.0" encoding="UTF-8" standalone="no"?>
<svg xmlns:ffdec="https://www.free-decompiler.com/flash" xmlns:xlink="http://www.w3.org/1999/xlink" ffdec:objectType="shape" height="261.6px" width="162.85px" xmlns="http://www.w3.org/2000/svg">
  <g transform="matrix(1.0, 0.0, 0.0, 1.0, 0.0, 0.0)">
    <path d="M161.6 1.25 Q162.35 1.95 162.35 3.0 L162.35 258.6 Q162.35 259.65 161.6 260.4 160.85 261.1 159.85 261.1 L3.0 261.1 Q1.95 261.1 1.25 260.4 0.5 259.65 0.5 258.6 L0.5 11.9 Q0.5 10.95 0.95 9.85 1.35 8.8 2.0 8.1 L7.75 2.1 Q8.4 1.45 9.5 0.95 10.55 0.5 11.5 0.5 L159.85 0.5 Q160.85 0.5 161.6 1.25" fill="url(#gradient0)" fill-rule="evenodd" stroke="none"/>
    <path d="M159.85 0.0 Q161.1 0.0 161.95 0.9 162.85 1.75 162.85 3.0 L162.85 258.6 Q162.85 259.85 161.95 260.75 161.1 261.6 159.85 261.6 L3.0 261.6 Q1.75 261.6 0.9 260.75 0.0 259.85 0.0 258.6 L0.0 11.9 Q0.0 10.9 0.5 9.7 0.95 8.5 1.65 7.75 L7.4 1.75 Q8.1 1.0 9.3 0.5 10.45 0.0 11.5 0.0 L159.85 0.0 M161.85 3.0 Q161.85 2.2 161.25 1.6 160.65 1.0 159.85 1.0 L11.5 1.0 Q10.65 1.0 9.65 1.45 8.65 1.85 8.1 2.45 L2.4 8.45 Q1.8 9.05 1.4 10.05 1.0 11.05 1.0 11.9 L1.0 258.6 Q1.0 259.45 1.6 260.0 2.2 260.6 3.0 260.6 L159.85 260.6 Q160.65 260.6 161.25 260.0 161.85 259.4 161.85 258.6 L161.85 3.0" fill="#2e8eff" fill-rule="evenodd" stroke="none"/>
  </g>
  <defs>
    <linearGradient gradientTransform="matrix(0.0, -0.1591, -0.1591, 0.0, 81.4, 130.8)" gradientUnits="userSpaceOnUse" id="gradient0" spreadMethod="pad" x1="-819.2" x2="819.2">
      <stop offset="0.0" stop-color="#00195e"/>
      <stop offset="0.23529411764705882" stop-color="#001c63"/>
      <stop offset="0.5137254901960784" stop-color="#002572"/>
      <stop offset="0.8196078431372549" stop-color="#00348a"/>
      <stop offset="1.0" stop-color="#003f9c"/>
    </linearGradient>
  </defs>
</svg>
