<?xml version="1.0" encoding="UTF-8" standalone="no"?>
<svg xmlns:ffdec="https://www.free-decompiler.com/flash" xmlns:xlink="http://www.w3.org/1999/xlink" ffdec:objectType="shape" height="25.0px" width="45.8px" xmlns="http://www.w3.org/2000/svg">
  <g transform="matrix(1.0, 0.0, 0.0, 1.0, 0.0, 0.0)">
    <path d="M39.1 3.65 Q45.8 7.35 45.8 12.5 45.8 17.7 39.1 21.35 32.4 25.0 22.9 25.0 13.4 25.0 6.7 21.35 0.0 17.7 0.0 12.5 0.0 7.35 6.7 3.65 13.4 0.0 22.9 0.0 32.4 0.0 39.1 3.65" fill="#0555b7" fill-rule="evenodd" stroke="none"/>
    <path d="M38.3 4.4 Q31.8 1.0 22.9 1.0 14.0 1.0 7.5 4.4 1.0 7.8 1.0 12.5 1.0 17.2 7.5 20.6 14.0 24.0 22.9 24.0 31.8 24.0 38.3 20.6 44.8 17.2 44.8 12.5 44.8 7.8 38.3 4.4 M22.9 0.0 Q32.4 0.0 39.1 3.65 45.8 7.35 45.8 12.5 45.8 17.7 39.1 21.35 32.4 25.0 22.9 25.0 13.4 25.0 6.7 21.35 0.0 17.7 0.0 12.5 0.0 7.35 6.7 3.65 13.4 0.0 22.9 0.0" fill="#00d7ff" fill-rule="evenodd" stroke="none"/>
  </g>
</svg>
