<?xml version="1.0" encoding="UTF-8" standalone="no"?>
<svg xmlns:ffdec="https://www.free-decompiler.com/flash" xmlns:xlink="http://www.w3.org/1999/xlink" ffdec:objectType="shape" height="32.7px" width="33.1px" xmlns="http://www.w3.org/2000/svg">
  <g transform="matrix(1.0, 0.0, 0.0, 1.0, 16.55, 16.35)">
    <path d="M2.75 -13.7 L2.75 -16.35 Q7.9 -15.45 11.7 -11.9 15.45 -8.2 16.45 -3.2 L13.75 -3.2 Q11.8 -12.05 2.75 -13.7 M10.3 9.9 Q13.15 7.05 13.9 2.45 L16.55 2.45 Q15.75 7.75 11.95 11.6 8.1 15.35 2.75 16.25 L2.75 13.65 Q7.4 12.85 10.3 9.9 M-13.75 -3.2 L-16.4 -3.2 Q-15.4 -8.3 -11.6 -11.9 -7.8 -15.55 -2.55 -16.35 L-2.55 -13.7 Q-11.8 -12.25 -13.75 -3.2 M-10.2 10.0 Q-7.25 12.95 -2.55 13.65 L-2.55 16.35 Q-8.0 15.45 -11.85 11.6 -15.75 7.75 -16.55 2.45 L-13.9 2.45 Q-13.1 7.05 -10.2 10.0" fill="#4ddeff" fill-rule="evenodd" stroke="none"/>
  </g>
</svg>
