<?xml version="1.0" encoding="UTF-8" standalone="no"?>
<svg xmlns:ffdec="https://www.free-decompiler.com/flash" xmlns:xlink="http://www.w3.org/1999/xlink" ffdec:objectType="shape" height="375.8px" width="441.0px" xmlns="http://www.w3.org/2000/svg">
  <g transform="matrix(1.0, 0.0, 0.0, 1.0, 220.5, 180.5)">
    <path d="M-63.95 194.25 L-71.75 194.25 -71.55 194.3 -215.5 194.3 Q-217.55 194.3 -219.05 192.85 -220.5 191.35 -220.5 189.3 L-220.5 -175.5 Q-220.5 -177.6 -219.05 -179.05 -217.55 -180.5 -215.5 -180.5 L-146.5 -180.5 Q-144.95 -180.5 -143.05 -179.9 -141.15 -179.3 -139.9 -178.4 L-130.8 -171.9 Q-130.05 -171.35 -128.75 -170.9 L-126.5 -170.5 126.5 -170.5 128.75 -170.9 Q130.05 -171.35 130.8 -171.9 L139.9 -178.4 Q141.15 -179.3 143.05 -179.9 144.95 -180.5 146.5 -180.5 L215.5 -180.5 Q217.55 -180.5 219.05 -179.05 220.5 -177.6 220.5 -175.5 L220.5 189.3 Q220.5 191.35 219.05 192.85 217.55 194.3 215.5 194.3 L69.25 194.3 69.8 195.3 69.15 194.3 68.5 193.35 67.85 192.3 68.2 192.3 215.5 192.3 Q216.75 192.3 217.6 191.4 218.5 190.55 218.5 189.3 L218.5 -175.5 Q218.5 -176.75 217.6 -177.6 216.75 -178.5 215.5 -178.5 L146.5 -178.5 143.65 -178.0 Q142.05 -177.5 141.05 -176.8 L131.95 -170.25 Q130.95 -169.55 129.35 -169.0 L126.5 -168.5 -126.5 -168.5 -129.35 -169.0 Q-130.95 -169.55 -131.95 -170.25 L-141.05 -176.8 Q-142.05 -177.5 -143.65 -178.0 L-146.5 -178.5 -215.5 -178.5 Q-216.75 -178.5 -217.6 -177.6 -218.5 -176.75 -218.5 -175.5 L-218.5 189.3 Q-218.5 190.55 -217.6 191.4 -216.75 192.3 -215.5 192.3 L-65.95 192.3 -65.2 192.3 -63.9 192.3 -63.95 194.25 M-65.95 193.0 L-65.2 192.3 -65.95 193.0" fill="#0082d6" fill-rule="evenodd" stroke="none"/>
    <path d="M-63.95 194.25 L-63.9 192.3 -65.2 192.3 -65.95 192.3 -43.7 170.75 46.3 170.75 67.6 191.25 68.2 192.3 67.85 192.3 68.5 193.35 69.15 194.3 68.7 194.3 67.6 194.3 65.5 193.4 45.1 173.75 -42.5 173.75 -63.75 194.3 -63.95 194.25" fill="#0c81bc" fill-rule="evenodd" stroke="none"/>
    <path d="M69.15 194.3 L69.8 195.3 68.7 194.3 69.15 194.3" fill="url(#gradient0)" fill-rule="evenodd" stroke="none"/>
    <path d="M-65.95 192.3 L-215.5 192.3 Q-216.75 192.3 -217.6 191.4 -218.5 190.55 -218.5 189.3 L-218.5 -175.5 Q-218.5 -176.75 -217.6 -177.6 -216.75 -178.5 -215.5 -178.5 L-146.5 -178.5 -143.65 -178.0 Q-142.05 -177.5 -141.05 -176.8 L-131.95 -170.25 Q-130.95 -169.55 -129.35 -169.0 L-126.5 -168.5 126.5 -168.5 129.35 -169.0 Q130.95 -169.55 131.95 -170.25 L141.05 -176.8 Q142.05 -177.5 143.65 -178.0 L146.5 -178.5 215.5 -178.5 Q216.75 -178.5 217.6 -177.6 218.5 -176.75 218.5 -175.5 L218.5 189.3 Q218.5 190.55 217.6 191.4 216.75 192.3 215.5 192.3 L68.2 192.3 67.6 191.25 46.3 170.75 -43.7 170.75 -65.95 192.3" fill="url(#gradient1)" fill-rule="evenodd" stroke="none"/>
    <path d="M-65.2 192.3 L-65.95 193.0 M67.85 192.3 L68.5 193.35" fill="none" stroke="#0c81bc" stroke-linecap="butt" stroke-linejoin="miter-clip" stroke-miterlimit="4.0" stroke-width="1.0"/>
    <path d="M-216.45 -173.65 L-216.45 -176.25 -208.1 -176.25 -210.75 -173.65 -216.45 -173.65" fill="#0068ff" fill-rule="evenodd" stroke="none"/>
    <path d="M132.75 -166.05 L-129.45 -166.05 -144.55 -176.0 -216.2 -176.0 -216.2 178.5 -213.0 178.5 -213.0 179.0 -216.7 179.0 -216.7 -176.5 -144.5 -176.5 -129.45 -166.55 132.75 -166.55 147.8 -176.5 217.0 -176.5 217.0 179.0 213.3 179.0 213.3 178.5 216.5 178.5 216.5 -176.0 147.85 -176.0 132.75 -166.05" fill="#1456c1" fill-rule="evenodd" stroke="none"/>
    <path d="M19.75 -178.6 L134.25 -178.6 126.75 -173.9 19.75 -173.9 19.75 -178.6" fill="url(#gradient2)" fill-rule="evenodd" stroke="none"/>
    <path d="M19.75 -178.6 L19.75 -173.9 -126.15 -173.9 -133.0 -178.6 19.75 -178.6" fill="url(#gradient3)" fill-rule="evenodd" stroke="none"/>
    <path d="M19.75 -173.9 L126.75 -173.9 134.25 -178.6 19.75 -178.6 -133.0 -178.6 -126.15 -173.9 19.75 -173.9 Z" fill="none" stroke="#0842b7" stroke-linecap="butt" stroke-linejoin="miter-clip" stroke-miterlimit="4.0" stroke-width="1.0"/>
    <path d="M209.05 -135.3 Q209.95 -134.45 209.95 -133.2 L209.95 148.6 Q209.95 149.85 209.05 150.7 208.2 151.6 206.95 151.6 L-207.0 151.6 Q-208.25 151.6 -209.1 150.7 -210.0 149.85 -210.0 148.6 L-210.0 -133.2 Q-210.0 -134.45 -209.1 -135.3 -208.25 -136.2 -207.0 -136.2 L206.95 -136.2 Q208.2 -136.2 209.05 -135.3 M208.35 -134.6 Q207.8 -135.2 206.95 -135.2 L-207.0 -135.2 Q-207.8 -135.2 -208.4 -134.6 -209.0 -134.0 -209.0 -133.2 L-209.0 148.6 Q-209.0 149.45 -208.4 150.0 -207.8 150.6 -207.0 150.6 L206.95 150.6 Q207.8 150.6 208.35 150.0 208.95 149.45 208.95 148.6 L208.95 -133.2 Q208.95 -134.0 208.35 -134.6" fill="#0c5b91" fill-rule="evenodd" stroke="none"/>
    <path d="M208.35 -134.6 Q208.95 -134.0 208.95 -133.2 L208.95 148.6 Q208.95 149.45 208.35 150.0 207.8 150.6 206.95 150.6 L-207.0 150.6 Q-207.8 150.6 -208.4 150.0 -209.0 149.45 -209.0 148.6 L-209.0 -133.2 Q-209.0 -134.0 -208.4 -134.6 -207.8 -135.2 -207.0 -135.2 L206.95 -135.2 Q207.8 -135.2 208.35 -134.6" fill="url(#gradient4)" fill-rule="evenodd" stroke="none"/>
    <path d="M209.45 -159.95 L209.45 -141.75 Q209.45 -140.5 208.55 -139.65 207.7 -138.75 206.45 -138.75 L-206.45 -138.75 Q-207.7 -138.75 -208.55 -139.65 -209.45 -140.5 -209.45 -141.75 L-209.45 -159.95 -209.4 -160.5 Q-209.25 -161.4 -208.55 -162.05 -207.7 -162.95 -206.45 -162.95 L206.45 -162.95 Q207.7 -162.95 208.55 -162.05 209.25 -161.4 209.4 -160.5 L209.45 -159.95" fill="url(#gradient5)" fill-rule="evenodd" stroke="none"/>
    <path d="M209.45 -159.95 L209.45 -141.75 Q209.45 -140.5 208.55 -139.65 207.7 -138.75 206.45 -138.75 L-206.45 -138.75 Q-207.7 -138.75 -208.55 -139.65 -209.45 -140.5 -209.45 -141.75 L-209.45 -159.95 -209.4 -160.5 Q-209.25 -161.4 -208.55 -162.05 -207.7 -162.95 -206.45 -162.95 L206.45 -162.95 Q207.7 -162.95 208.55 -162.05 209.25 -161.4 209.4 -160.5 L209.45 -159.95 Z" fill="none" stroke="#0c81bc" stroke-linecap="butt" stroke-linejoin="miter-clip" stroke-miterlimit="4.0" stroke-width="1.0"/>
  </g>
  <defs>
    <linearGradient gradientTransform="matrix(0.0, -0.2404, -0.2251, 0.0, -7.05, 42.9)" gradientUnits="userSpaceOnUse" id="gradient0" spreadMethod="pad" x1="-819.2" x2="819.2">
      <stop offset="0.0" stop-color="#00123b"/>
      <stop offset="0.2196078431372549" stop-color="#001f51"/>
      <stop offset="1.0" stop-color="#01305c"/>
    </linearGradient>
    <linearGradient gradientTransform="matrix(0.0, -0.2404, -0.2251, 0.0, 13.95, 11.9)" gradientUnits="userSpaceOnUse" id="gradient1" spreadMethod="pad" x1="-819.2" x2="819.2">
      <stop offset="0.0" stop-color="#00123b"/>
      <stop offset="0.2196078431372549" stop-color="#001f51"/>
      <stop offset="1.0" stop-color="#01305c"/>
    </linearGradient>
    <linearGradient gradientTransform="matrix(0.1617, 0.0, 0.0, -0.2112, -3.75, -177.75)" gradientUnits="userSpaceOnUse" id="gradient2" spreadMethod="pad" x1="-819.2" x2="819.2">
      <stop offset="0.0" stop-color="#1cadff"/>
      <stop offset="0.47058823529411764" stop-color="#0342d1"/>
      <stop offset="1.0" stop-color="#1cadff"/>
    </linearGradient>
    <linearGradient gradientTransform="matrix(0.1617, 0.0, 0.0, -0.2112, -3.5, -177.75)" gradientUnits="userSpaceOnUse" id="gradient3" spreadMethod="pad" x1="-819.2" x2="819.2">
      <stop offset="0.0" stop-color="#1cadff"/>
      <stop offset="0.47058823529411764" stop-color="#0342d1"/>
      <stop offset="1.0" stop-color="#1cadff"/>
    </linearGradient>
    <linearGradient gradientTransform="matrix(0.0, -0.1824, -0.1479, 0.0, 1.95, 11.45)" gradientUnits="userSpaceOnUse" id="gradient4" spreadMethod="pad" x1="-819.2" x2="819.2">
      <stop offset="0.0" stop-color="#003059"/>
      <stop offset="0.5019607843137255" stop-color="#00244b"/>
      <stop offset="1.0" stop-color="#001c42"/>
    </linearGradient>
    <linearGradient gradientTransform="matrix(0.0, -0.0148, -0.0099, 0.0, 0.0, -150.85)" gradientUnits="userSpaceOnUse" id="gradient5" spreadMethod="pad" x1="-819.2" x2="819.2">
      <stop offset="0.0" stop-color="#00316e"/>
      <stop offset="0.22745098039215686" stop-color="#003e78"/>
      <stop offset="1.0" stop-color="#006699"/>
    </linearGradient>
  </defs>
</svg>
