<?xml version="1.0" encoding="UTF-8" standalone="no"?>
<svg xmlns:ffdec="https://www.free-decompiler.com/flash" xmlns:xlink="http://www.w3.org/1999/xlink" ffdec:objectType="shape" height="76.95px" width="78.6px" xmlns="http://www.w3.org/2000/svg">
  <g transform="matrix(1.0, 0.0, 0.0, 1.0, 44.65, 59.35)">
    <path d="M-26.15 -47.0 L31.35 9.2 23.9 9.2 -33.6 -47.0 -26.15 -47.0" fill="url(#gradient0)" fill-rule="evenodd" stroke="none"/>
    <path d="M-25.5 -51.6 Q-13.9 -42.4 0.8 -27.7 15.5 -13.0 24.7 -1.4 33.95 10.25 32.25 11.95 30.55 13.65 18.9 4.4 7.3 -4.8 -7.4 -19.5 -22.1 -34.2 -31.3 -45.8 -40.5 -57.4 -38.8 -59.1 -37.1 -60.8 -25.5 -51.6" fill="url(#gradient1)" fill-rule="evenodd" stroke="none"/>
    <path d="M-31.1 -50.8 Q-19.5 -41.6 -4.8 -26.9 9.9 -12.2 19.1 -0.6 28.35 11.05 26.65 12.75 24.95 14.45 13.3 5.2 1.7 -4.0 -13.0 -18.7 -27.7 -33.4 -36.9 -45.0 -46.1 -56.6 -44.4 -58.3 -42.7 -60.0 -31.1 -50.8" fill="url(#gradient2)" fill-rule="evenodd" stroke="none"/>
    <path d="M-24.05 -46.2 Q-12.45 -37.0 2.25 -22.3 16.95 -7.6 26.15 4.0 35.4 15.65 33.7 17.35 32.0 19.05 20.35 9.8 8.75 0.6 -5.95 -14.1 -20.65 -28.8 -29.85 -40.4 -39.05 -52.0 -37.35 -53.7 -35.65 -55.4 -24.05 -46.2" fill="url(#gradient3)" fill-rule="evenodd" stroke="none"/>
  </g>
  <defs>
    <linearGradient gradientTransform="matrix(0.0396, 0.0, 0.0, 0.0343, -1.15, -18.9)" gradientUnits="userSpaceOnUse" id="gradient0" spreadMethod="pad" x1="-819.2" x2="819.2">
      <stop offset="0.0" stop-color="#ffffff" stop-opacity="0.4117647"/>
      <stop offset="0.3215686274509804" stop-color="#ffffff" stop-opacity="0.8235294"/>
      <stop offset="0.7372549019607844" stop-color="#ffffff"/>
      <stop offset="1.0" stop-color="#ffffff" stop-opacity="0.6"/>
    </linearGradient>
    <radialGradient cx="0" cy="0" gradientTransform="matrix(0.0063, -0.0063, 0.0439, 0.0439, -3.3, -23.6)" gradientUnits="userSpaceOnUse" id="gradient1" r="819.2" spreadMethod="pad">
      <stop offset="0.0" stop-color="#ffffff" stop-opacity="0.7921569"/>
      <stop offset="0.7254901960784313" stop-color="#ffffff" stop-opacity="0.10980392"/>
      <stop offset="1.0" stop-color="#ffffff" stop-opacity="0.0"/>
    </radialGradient>
    <radialGradient cx="0" cy="0" gradientTransform="matrix(0.0063, -0.0063, 0.0439, 0.0439, -8.9, -22.8)" gradientUnits="userSpaceOnUse" id="gradient2" r="819.2" spreadMethod="pad">
      <stop offset="0.0" stop-color="#ffffff" stop-opacity="0.7921569"/>
      <stop offset="0.7254901960784313" stop-color="#ffffff" stop-opacity="0.10980392"/>
      <stop offset="1.0" stop-color="#ffffff" stop-opacity="0.0"/>
    </radialGradient>
    <radialGradient cx="0" cy="0" gradientTransform="matrix(0.0063, -0.0063, 0.0439, 0.0439, -1.85, -18.2)" gradientUnits="userSpaceOnUse" id="gradient3" r="819.2" spreadMethod="pad">
      <stop offset="0.0" stop-color="#ffffff" stop-opacity="0.7921569"/>
      <stop offset="0.7254901960784313" stop-color="#ffffff" stop-opacity="0.10980392"/>
      <stop offset="1.0" stop-color="#ffffff" stop-opacity="0.0"/>
    </radialGradient>
  </defs>
</svg>
