<?xml version="1.0" encoding="UTF-8" standalone="no"?>
<svg xmlns:ffdec="https://www.free-decompiler.com/flash" xmlns:xlink="http://www.w3.org/1999/xlink" ffdec:objectType="shape" height="112.4px" width="188.1px" xmlns="http://www.w3.org/2000/svg">
  <g transform="matrix(1.0, 0.0, 0.0, 1.0, 47.8, 56.25)">
    <path d="M2.3 27.15 L0.5 27.85 15.1 36.9 M29.6 45.45 L44.55 54.4 59.55 45.55 M74.2 18.2 L90.05 27.85 75.45 36.9" fill="none" stroke="#ff0000" stroke-linecap="butt" stroke-linejoin="miter-clip" stroke-miterlimit="4.0" stroke-width="3.0"/>
    <path d="M30.0 -45.55 L44.95 -54.5 59.95 -45.65 M74.6 -37.25 L92.4 -26.2 M16.75 -37.25 L-0.95 -26.45" fill="none" stroke="#ff0000" stroke-linecap="butt" stroke-linejoin="miter-clip" stroke-miterlimit="4.0" stroke-width="3.0"/>
    <path d="M77.0 -17.55 L91.95 -26.5 106.95 -17.65 M121.6 -9.25 L137.45 0.4 122.85 9.45 M89.55 28.35 L106.95 18.1" fill="none" stroke="#ff0000" stroke-linecap="butt" stroke-linejoin="miter-clip" stroke-miterlimit="4.0" stroke-width="3.0"/>
    <path d="M-15.85 -17.55 L-0.9 -26.5 14.1 -17.65 M-15.85 18.0 L-0.9 26.95 14.1 18.1 M-29.1 -9.25 L-44.95 0.4 -30.35 9.45" fill="none" stroke="#ff0000" stroke-linecap="butt" stroke-linejoin="miter-clip" stroke-miterlimit="4.0" stroke-width="3.0"/>
  </g>
</svg>
