<?xml version="1.0" encoding="UTF-8" standalone="no"?>
<svg xmlns:ffdec="https://www.free-decompiler.com/flash" xmlns:xlink="http://www.w3.org/1999/xlink" ffdec:objectType="shape" height="111.9px" width="185.75px" xmlns="http://www.w3.org/2000/svg">
  <g transform="matrix(1.0, 0.0, 0.0, 1.0, 92.45, 56.25)">
    <path d="M30.0 9.45 L44.95 0.5 59.95 9.35 M30.0 45.0 L44.95 53.95 59.95 45.1 M16.75 17.75 L0.9 27.4 15.5 36.45 M74.6 17.75 L90.45 27.4 75.85 36.45" fill="none" stroke="#ff0000" stroke-linecap="butt" stroke-linejoin="miter-clip" stroke-miterlimit="4.0" stroke-width="3.0"/>
    <path d="M30.0 -45.55 L44.95 -54.5 59.95 -45.65 M30.0 -10.0 L44.95 -1.05 59.95 -9.9 M16.75 -37.25 L0.9 -27.6 15.5 -18.55 M74.6 -37.25 L90.45 -27.6 75.85 -18.55" fill="none" stroke="#ff0000" stroke-linecap="butt" stroke-linejoin="miter-clip" stroke-miterlimit="4.0" stroke-width="3.0"/>
    <path d="M-60.5 9.45 L-45.55 0.5 -30.55 9.35 M-60.5 45.0 L-45.55 53.95 -30.55 45.1 M-73.75 17.75 L-89.6 27.4 -75.0 36.45 M-15.9 17.75 L-0.05 27.4 -14.65 36.45" fill="none" stroke="#ff0000" stroke-linecap="butt" stroke-linejoin="miter-clip" stroke-miterlimit="4.0" stroke-width="3.0"/>
    <path d="M-60.5 -45.55 L-45.55 -54.5 -30.55 -45.65 M-60.5 -10.0 L-45.55 -1.05 -30.55 -9.9 M-73.75 -37.25 L-89.6 -27.6 -75.0 -18.55 M-15.9 -37.25 L-0.05 -27.6 -14.65 -18.55" fill="none" stroke="#ff0000" stroke-linecap="butt" stroke-linejoin="miter-clip" stroke-miterlimit="4.0" stroke-width="3.0"/>
  </g>
</svg>
