<?xml version="1.0" encoding="UTF-8" standalone="no"?>
<svg xmlns:ffdec="https://www.free-decompiler.com/flash" xmlns:xlink="http://www.w3.org/1999/xlink" ffdec:objectType="shape" height="10.0px" width="10.0px" xmlns="http://www.w3.org/2000/svg">
  <g transform="matrix(1.0, 0.0, 0.0, 1.0, 0.0, 0.0)">
    <path d="M0.0 4.2 Q0.0 2.45 1.3 1.25 2.6 0.0 4.45 0.0 6.3 0.0 7.6 1.25 8.9 2.45 8.9 4.2 8.9 5.95 7.6 7.2 6.3 8.4 4.45 8.4 2.6 8.4 1.3 7.2 0.0 5.95 0.0 4.2" fill="url(#gradient0)" fill-rule="evenodd" stroke="none"/>
    <path d="M6.65 3.8 L7.4 6.15 10.0 6.15 7.9 7.6 8.7 10.0 6.65 8.55 4.55 10.0 5.35 7.6 3.3 6.15 5.85 6.15 6.65 3.8" fill="#ffffbd" fill-rule="evenodd" stroke="none"/>
  </g>
  <defs>
    <radialGradient cx="0" cy="0" gradientTransform="matrix(-0.0054, 0.0, 0.0, -0.0051, 4.45, 4.2)" gradientUnits="userSpaceOnUse" id="gradient0" r="819.2" spreadMethod="pad">
      <stop offset="0.0" stop-color="#0094ff"/>
      <stop offset="0.20784313725490197" stop-color="#0090ff"/>
      <stop offset="0.43137254901960786" stop-color="#0083ff"/>
      <stop offset="0.6666666666666666" stop-color="#006dff"/>
      <stop offset="0.9019607843137255" stop-color="#004fff"/>
      <stop offset="1.0" stop-color="#0040ff"/>
    </radialGradient>
  </defs>
</svg>
